<?xml version="1.0" encoding="UTF-8" standalone="no"?>
<!DOCTYPE svg PUBLIC "-//W3C//DTD SVG 1.1//EN"
 "http://www.w3.org/Graphics/SVG/1.1/DTD/svg11.dtd">
<!-- Generated by graphviz version 2.40.1 (20161225.0304)
 -->
<!-- Title: G Pages: 1 -->
<svg width="317pt" height="549pt"
 viewBox="0.00 0.00 316.90 548.80" xmlns="http://www.w3.org/2000/svg" xmlns:xlink="http://www.w3.org/1999/xlink">
<g id="graph0" class="graph" transform="scale(1 1) rotate(0) translate(4 544.8)">
<title>G</title>
<polygon fill="#ffffff" stroke="transparent" points="-4,4 -4,-544.8 312.904,-544.8 312.904,4 -4,4"/>
<!-- GO:0030145 -->
<g id="node1" class="node">
<title>GO:0030145</title>
<polygon fill="#ffffff" stroke="#000000" points="145.7982,-41.4019 .0672,-41.4019 .0672,-.1981 145.7982,-.1981 145.7982,-41.4019"/>
<text text-anchor="middle" x="72.9327" y="-25" font-family="Times,serif" font-size="14.00" fill="#000000">GO:0030145</text>
<text text-anchor="middle" x="72.9327" y="-8.2" font-family="Times,serif" font-size="14.00" fill="#000000">manganese ion binding</text>
</g>
<!-- GO:0046914 -->
<g id="node2" class="node">
<title>GO:0046914</title>
<polygon fill="#ffffff" stroke="#000000" points="135.3066,-136.2014 10.5588,-136.2014 10.5588,-77.3986 135.3066,-77.3986 135.3066,-136.2014"/>
<text text-anchor="middle" x="72.9327" y="-119.4" font-family="Times,serif" font-size="14.00" fill="#000000">GO:0046914</text>
<text text-anchor="middle" x="72.9327" y="-102.6" font-family="Times,serif" font-size="14.00" fill="#000000">transition metal ion</text>
<text text-anchor="middle" x="72.9327" y="-85.8" font-family="Times,serif" font-size="14.00" fill="#000000">binding</text>
</g>
<!-- GO:0030145&#45;&gt;GO:0046914 -->
<g id="edge1" class="edge">
<title>GO:0030145&#45;&gt;GO:0046914</title>
<path fill="none" stroke="#000000" d="M72.9327,-41.6182C72.9327,-49.3358 72.9327,-58.3662 72.9327,-67.2036"/>
<polygon fill="#000000" stroke="#000000" points="69.4328,-67.3991 72.9327,-77.3991 76.4328,-67.3992 69.4328,-67.3991"/>
</g>
<!-- GO:0046872 -->
<g id="node3" class="node">
<title>GO:0046872</title>
<polygon fill="#ffffff" stroke="#000000" points="135.2057,-213.4019 20.6597,-213.4019 20.6597,-172.1981 135.2057,-172.1981 135.2057,-213.4019"/>
<text text-anchor="middle" x="77.9327" y="-197" font-family="Times,serif" font-size="14.00" fill="#000000">GO:0046872</text>
<text text-anchor="middle" x="77.9327" y="-180.2" font-family="Times,serif" font-size="14.00" fill="#000000">metal ion binding</text>
</g>
<!-- GO:0046914&#45;&gt;GO:0046872 -->
<g id="edge2" class="edge">
<title>GO:0046914&#45;&gt;GO:0046872</title>
<path fill="none" stroke="#000000" d="M74.6534,-136.3963C75.1341,-144.6638 75.6575,-153.6657 76.1421,-162.0008"/>
<polygon fill="#000000" stroke="#000000" points="72.6544,-162.3166 76.729,-172.0966 79.6426,-161.9102 72.6544,-162.3166"/>
</g>
<!-- GO:0043169 -->
<g id="node4" class="node">
<title>GO:0043169</title>
<polygon fill="#ffffff" stroke="#000000" points="134.4256,-299.4019 37.4398,-299.4019 37.4398,-258.1981 134.4256,-258.1981 134.4256,-299.4019"/>
<text text-anchor="middle" x="85.9327" y="-283" font-family="Times,serif" font-size="14.00" fill="#000000">GO:0043169</text>
<text text-anchor="middle" x="85.9327" y="-266.2" font-family="Times,serif" font-size="14.00" fill="#000000">cation binding</text>
</g>
<!-- GO:0046872&#45;&gt;GO:0043169 -->
<g id="edge3" class="edge">
<title>GO:0046872&#45;&gt;GO:0043169</title>
<path fill="none" stroke="#000000" d="M79.8693,-213.6182C80.8323,-223.9705 82.015,-236.6848 83.0794,-248.1271"/>
<polygon fill="#000000" stroke="#000000" points="79.6027,-248.5407 84.014,-258.1735 86.5726,-247.8923 79.6027,-248.5407"/>
</g>
<!-- GO:0043167 -->
<g id="node5" class="node">
<title>GO:0043167</title>
<polygon fill="#ffffff" stroke="#000000" points="133.5366,-385.4019 44.3288,-385.4019 44.3288,-344.1981 133.5366,-344.1981 133.5366,-385.4019"/>
<text text-anchor="middle" x="88.9327" y="-369" font-family="Times,serif" font-size="14.00" fill="#000000">GO:0043167</text>
<text text-anchor="middle" x="88.9327" y="-352.2" font-family="Times,serif" font-size="14.00" fill="#000000">ion binding</text>
</g>
<!-- GO:0043169&#45;&gt;GO:0043167 -->
<g id="edge4" class="edge">
<title>GO:0043169&#45;&gt;GO:0043167</title>
<path fill="none" stroke="#000000" d="M86.6589,-299.6182C87.02,-309.9705 87.4636,-322.6848 87.8627,-334.1271"/>
<polygon fill="#000000" stroke="#000000" points="84.3666,-334.3016 88.2132,-344.1735 91.3623,-334.0575 84.3666,-334.3016"/>
</g>
<!-- GO:0005488 -->
<g id="node6" class="node">
<title>GO:0005488</title>
<polygon fill="#ffffff" stroke="#000000" points="140.5366,-463.0019 51.3288,-463.0019 51.3288,-421.7981 140.5366,-421.7981 140.5366,-463.0019"/>
<text text-anchor="middle" x="95.9327" y="-446.6" font-family="Times,serif" font-size="14.00" fill="#000000">GO:0005488</text>
<text text-anchor="middle" x="95.9327" y="-429.8" font-family="Times,serif" font-size="14.00" fill="#000000">binding</text>
</g>
<!-- GO:0043167&#45;&gt;GO:0005488 -->
<g id="edge5" class="edge">
<title>GO:0043167&#45;&gt;GO:0005488</title>
<path fill="none" stroke="#000000" d="M90.8086,-385.5954C91.5226,-393.5109 92.3525,-402.7109 93.1338,-411.3722"/>
<polygon fill="#000000" stroke="#000000" points="89.6673,-411.9021 94.0517,-421.5472 96.639,-411.2732 89.6673,-411.9021"/>
</g>
<!-- GO:0003674 -->
<g id="node7" class="node">
<title>GO:0003674</title>
<polygon fill="#ffffff" stroke="#000000" points="216.5658,-540.6019 91.2996,-540.6019 91.2996,-499.3981 216.5658,-499.3981 216.5658,-540.6019"/>
<text text-anchor="middle" x="153.9327" y="-524.2" font-family="Times,serif" font-size="14.00" fill="#000000">GO:0003674</text>
<text text-anchor="middle" x="153.9327" y="-507.4" font-family="Times,serif" font-size="14.00" fill="#000000">molecular_function</text>
</g>
<!-- GO:0005488&#45;&gt;GO:0003674 -->
<g id="edge6" class="edge">
<title>GO:0005488&#45;&gt;GO:0003674</title>
<path fill="none" stroke="#000000" d="M111.4756,-463.1954C117.8469,-471.7197 125.3318,-481.7339 132.2279,-490.9605"/>
<polygon fill="#000000" stroke="#000000" points="129.5566,-493.2327 138.3469,-499.1472 135.1635,-489.0419 129.5566,-493.2327"/>
</g>
<!-- GO:0008701 -->
<g id="node8" class="node">
<title>GO:0008701</title>
<polygon fill="#ffffff" stroke="#000000" points="308.8753,-136.2014 152.9901,-136.2014 152.9901,-77.3986 308.8753,-77.3986 308.8753,-136.2014"/>
<text text-anchor="middle" x="230.9327" y="-119.4" font-family="Times,serif" font-size="14.00" fill="#000000">GO:0008701</text>
<text text-anchor="middle" x="230.9327" y="-102.6" font-family="Times,serif" font-size="14.00" fill="#000000">4&#45;hydroxy&#45;2&#45;oxovalerate</text>
<text text-anchor="middle" x="230.9327" y="-85.8" font-family="Times,serif" font-size="14.00" fill="#000000">aldolase activity</text>
</g>
<!-- GO:0016833 -->
<g id="node9" class="node">
<title>GO:0016833</title>
<polygon fill="#ffffff" stroke="#000000" points="299.8297,-213.4019 156.0357,-213.4019 156.0357,-172.1981 299.8297,-172.1981 299.8297,-213.4019"/>
<text text-anchor="middle" x="227.9327" y="-197" font-family="Times,serif" font-size="14.00" fill="#000000">GO:0016833</text>
<text text-anchor="middle" x="227.9327" y="-180.2" font-family="Times,serif" font-size="14.00" fill="#000000">oxo&#45;acid&#45;lyase activity</text>
</g>
<!-- GO:0008701&#45;&gt;GO:0016833 -->
<g id="edge7" class="edge">
<title>GO:0008701&#45;&gt;GO:0016833</title>
<path fill="none" stroke="#000000" d="M229.9003,-136.3963C229.6119,-144.6638 229.2978,-153.6657 229.0071,-162.0008"/>
<polygon fill="#000000" stroke="#000000" points="225.5058,-161.9806 228.6549,-172.0966 232.5015,-162.2247 225.5058,-161.9806"/>
</g>
<!-- GO:0016830 -->
<g id="node10" class="node">
<title>GO:0016830</title>
<polygon fill="#ffffff" stroke="#000000" points="286.5373,-308.2014 157.3281,-308.2014 157.3281,-249.3986 286.5373,-249.3986 286.5373,-308.2014"/>
<text text-anchor="middle" x="221.9327" y="-291.4" font-family="Times,serif" font-size="14.00" fill="#000000">GO:0016830</text>
<text text-anchor="middle" x="221.9327" y="-274.6" font-family="Times,serif" font-size="14.00" fill="#000000">carbon&#45;carbon lyase</text>
<text text-anchor="middle" x="221.9327" y="-257.8" font-family="Times,serif" font-size="14.00" fill="#000000">activity</text>
</g>
<!-- GO:0016833&#45;&gt;GO:0016830 -->
<g id="edge8" class="edge">
<title>GO:0016833&#45;&gt;GO:0016830</title>
<path fill="none" stroke="#000000" d="M226.4803,-213.6182C225.9418,-221.3358 225.3118,-230.3662 224.6952,-239.2036"/>
<polygon fill="#000000" stroke="#000000" points="221.1885,-239.1798 223.9839,-249.3991 228.1715,-239.667 221.1885,-239.1798"/>
</g>
<!-- GO:0016829 -->
<g id="node11" class="node">
<title>GO:0016829</title>
<polygon fill="#ffffff" stroke="#000000" points="264.1891,-385.4019 173.6763,-385.4019 173.6763,-344.1981 264.1891,-344.1981 264.1891,-385.4019"/>
<text text-anchor="middle" x="218.9327" y="-369" font-family="Times,serif" font-size="14.00" fill="#000000">GO:0016829</text>
<text text-anchor="middle" x="218.9327" y="-352.2" font-family="Times,serif" font-size="14.00" fill="#000000">lyase activity</text>
</g>
<!-- GO:0016830&#45;&gt;GO:0016829 -->
<g id="edge9" class="edge">
<title>GO:0016830&#45;&gt;GO:0016829</title>
<path fill="none" stroke="#000000" d="M220.9003,-308.3963C220.6119,-316.6638 220.2978,-325.6657 220.0071,-334.0008"/>
<polygon fill="#000000" stroke="#000000" points="216.5058,-333.9806 219.6549,-344.0966 223.5015,-334.2247 216.5058,-333.9806"/>
</g>
<!-- GO:0003824 -->
<g id="node12" class="node">
<title>GO:0003824</title>
<polygon fill="#ffffff" stroke="#000000" points="271.3451,-463.0019 162.5203,-463.0019 162.5203,-421.7981 271.3451,-421.7981 271.3451,-463.0019"/>
<text text-anchor="middle" x="216.9327" y="-446.6" font-family="Times,serif" font-size="14.00" fill="#000000">GO:0003824</text>
<text text-anchor="middle" x="216.9327" y="-429.8" font-family="Times,serif" font-size="14.00" fill="#000000">catalytic activity</text>
</g>
<!-- GO:0016829&#45;&gt;GO:0003824 -->
<g id="edge10" class="edge">
<title>GO:0016829&#45;&gt;GO:0003824</title>
<path fill="none" stroke="#000000" d="M218.3967,-385.5954C218.1927,-393.5109 217.9556,-402.7109 217.7324,-411.3722"/>
<polygon fill="#000000" stroke="#000000" points="214.229,-411.4603 217.4701,-421.5472 221.2267,-411.6408 214.229,-411.4603"/>
</g>
<!-- GO:0003824&#45;&gt;GO:0003674 -->
<g id="edge11" class="edge">
<title>GO:0003824&#45;&gt;GO:0003674</title>
<path fill="none" stroke="#000000" d="M200.0499,-463.1954C193.0587,-471.8067 184.8332,-481.9384 177.2795,-491.2427"/>
<polygon fill="#000000" stroke="#000000" points="174.4478,-489.1776 170.8621,-499.1472 179.8824,-493.5896 174.4478,-489.1776"/>
</g>
</g>
</svg>
