<?xml version="1.0" encoding="UTF-8" standalone="no"?>
<!DOCTYPE svg PUBLIC "-//W3C//DTD SVG 1.1//EN"
 "http://www.w3.org/Graphics/SVG/1.1/DTD/svg11.dtd">
<!-- Generated by graphviz version 2.40.1 (20161225.0304)
 -->
<!-- Title: G Pages: 1 -->
<svg width="1174pt" height="771pt"
 viewBox="0.00 0.00 1174.12 771.20" xmlns="http://www.w3.org/2000/svg" xmlns:xlink="http://www.w3.org/1999/xlink">
<g id="graph0" class="graph" transform="scale(1 1) rotate(0) translate(4 767.2)">
<title>G</title>
<polygon fill="#ffffff" stroke="transparent" points="-4,4 -4,-767.2 1170.1242,-767.2 1170.1242,4 -4,4"/>
<!-- GO:0005794 -->
<g id="node1" class="node">
<title>GO:0005794</title>
<polygon fill="#ffffff" stroke="#000000" points="460.6477,-291.0019 355.5929,-291.0019 355.5929,-249.7981 460.6477,-249.7981 460.6477,-291.0019"/>
<text text-anchor="middle" x="408.1203" y="-274.6" font-family="Times,serif" font-size="14.00" fill="#000000">GO:0005794</text>
<text text-anchor="middle" x="408.1203" y="-257.8" font-family="Times,serif" font-size="14.00" fill="#000000">Golgi apparatus</text>
</g>
<!-- GO:0044444 -->
<g id="node2" class="node">
<title>GO:0044444</title>
<polygon fill="#ffffff" stroke="#000000" points="388.5369,-393.8019 279.7037,-393.8019 279.7037,-352.5981 388.5369,-352.5981 388.5369,-393.8019"/>
<text text-anchor="middle" x="334.1203" y="-377.4" font-family="Times,serif" font-size="14.00" fill="#000000">GO:0044444</text>
<text text-anchor="middle" x="334.1203" y="-360.6" font-family="Times,serif" font-size="14.00" fill="#000000">cytoplasmic part</text>
</g>
<!-- GO:0005794&#45;&gt;GO:0044444 -->
<g id="edge1" class="edge">
<title>GO:0005794&#45;&gt;GO:0044444</title>
<path fill="none" stroke="#000000" d="M393.1453,-291.2031C382.2124,-306.391 367.2456,-327.1827 355.1191,-344.0287"/>
<polygon fill="#000000" stroke="#000000" points="352.0747,-342.2671 349.073,-352.4278 357.7559,-346.3567 352.0747,-342.2671"/>
</g>
<!-- GO:0043231 -->
<g id="node3" class="node">
<title>GO:0043231</title>
<polygon fill="#ffffff" stroke="#000000" points="598.4991,-402.6014 447.7415,-402.6014 447.7415,-343.7986 598.4991,-343.7986 598.4991,-402.6014"/>
<text text-anchor="middle" x="523.1203" y="-385.8" font-family="Times,serif" font-size="14.00" fill="#000000">GO:0043231</text>
<text text-anchor="middle" x="523.1203" y="-369" font-family="Times,serif" font-size="14.00" fill="#000000">intracellular membrane&#45;</text>
<text text-anchor="middle" x="523.1203" y="-352.2" font-family="Times,serif" font-size="14.00" fill="#000000">bounded organelle</text>
</g>
<!-- GO:0005794&#45;&gt;GO:0043231 -->
<g id="edge2" class="edge">
<title>GO:0005794&#45;&gt;GO:0043231</title>
<path fill="none" stroke="#000000" d="M431.3923,-291.2031C446.0763,-304.3294 465.4427,-321.6413 482.5954,-336.9743"/>
<polygon fill="#000000" stroke="#000000" points="480.5077,-339.8026 490.2958,-343.8577 485.1729,-334.5837 480.5077,-339.8026"/>
</g>
<!-- GO:0044424 -->
<g id="node4" class="node">
<title>GO:0044424</title>
<polygon fill="#ffffff" stroke="#000000" points="359.5187,-591.0019 250.7219,-591.0019 250.7219,-549.7981 359.5187,-549.7981 359.5187,-591.0019"/>
<text text-anchor="middle" x="305.1203" y="-574.6" font-family="Times,serif" font-size="14.00" fill="#000000">GO:0044424</text>
<text text-anchor="middle" x="305.1203" y="-557.8" font-family="Times,serif" font-size="14.00" fill="#000000">intracellular part</text>
</g>
<!-- GO:0044444&#45;&gt;GO:0044424 -->
<g id="edge3" class="edge">
<title>GO:0044444&#45;&gt;GO:0044424</title>
<path fill="none" stroke="#000000" d="M331.0716,-393.9311C325.9588,-428.6982 315.6308,-498.9284 309.6609,-539.524"/>
<polygon fill="#000000" stroke="#000000" points="306.1639,-539.2479 308.1717,-549.6507 313.0894,-540.2664 306.1639,-539.2479"/>
</g>
<!-- GO:0043229 -->
<g id="node5" class="node">
<title>GO:0043229</title>
<polygon fill="#ffffff" stroke="#000000" points="592.8387,-488.2019 453.4019,-488.2019 453.4019,-446.9981 592.8387,-446.9981 592.8387,-488.2019"/>
<text text-anchor="middle" x="523.1203" y="-471.8" font-family="Times,serif" font-size="14.00" fill="#000000">GO:0043229</text>
<text text-anchor="middle" x="523.1203" y="-455" font-family="Times,serif" font-size="14.00" fill="#000000">intracellular organelle</text>
</g>
<!-- GO:0043231&#45;&gt;GO:0043229 -->
<g id="edge4" class="edge">
<title>GO:0043231&#45;&gt;GO:0043229</title>
<path fill="none" stroke="#000000" d="M523.1203,-402.5513C523.1203,-413.4614 523.1203,-425.8637 523.1203,-436.892"/>
<polygon fill="#000000" stroke="#000000" points="519.6204,-436.9509 523.1203,-446.951 526.6204,-436.951 519.6204,-436.9509"/>
</g>
<!-- GO:0043227 -->
<g id="node6" class="node">
<title>GO:0043227</title>
<polygon fill="#ffffff" stroke="#000000" points="768.0811,-497.0014 640.1595,-497.0014 640.1595,-438.1986 768.0811,-438.1986 768.0811,-497.0014"/>
<text text-anchor="middle" x="704.1203" y="-480.2" font-family="Times,serif" font-size="14.00" fill="#000000">GO:0043227</text>
<text text-anchor="middle" x="704.1203" y="-463.4" font-family="Times,serif" font-size="14.00" fill="#000000">membrane&#45;bounded</text>
<text text-anchor="middle" x="704.1203" y="-446.6" font-family="Times,serif" font-size="14.00" fill="#000000">organelle</text>
</g>
<!-- GO:0043231&#45;&gt;GO:0043227 -->
<g id="edge5" class="edge">
<title>GO:0043231&#45;&gt;GO:0043227</title>
<path fill="none" stroke="#000000" d="M579.3977,-402.5513C598.211,-412.3633 619.3383,-423.3822 638.7822,-433.5231"/>
<polygon fill="#000000" stroke="#000000" points="637.3927,-436.7458 647.8777,-438.2669 640.6297,-430.5392 637.3927,-436.7458"/>
</g>
<!-- GO:0044464 -->
<g id="node7" class="node">
<title>GO:0044464</title>
<polygon fill="#ffffff" stroke="#000000" points="466.7242,-685.4019 377.5164,-685.4019 377.5164,-644.1981 466.7242,-644.1981 466.7242,-685.4019"/>
<text text-anchor="middle" x="422.1203" y="-669" font-family="Times,serif" font-size="14.00" fill="#000000">GO:0044464</text>
<text text-anchor="middle" x="422.1203" y="-652.2" font-family="Times,serif" font-size="14.00" fill="#000000">cell part</text>
</g>
<!-- GO:0044424&#45;&gt;GO:0044464 -->
<g id="edge6" class="edge">
<title>GO:0044424&#45;&gt;GO:0044464</title>
<path fill="none" stroke="#000000" d="M330.7964,-591.1165C347.7131,-604.7655 370.0442,-622.783 388.3894,-637.5846"/>
<polygon fill="#000000" stroke="#000000" points="386.5236,-640.5764 396.504,-644.1318 390.9191,-635.1285 386.5236,-640.5764"/>
</g>
<!-- GO:0043229&#45;&gt;GO:0044424 -->
<g id="edge7" class="edge">
<title>GO:0043229&#45;&gt;GO:0044424</title>
<path fill="none" stroke="#000000" d="M468.8395,-488.2672C438.7062,-500.276 400.8165,-516.2683 368.1203,-532.8 361.087,-536.3562 353.7732,-540.3898 346.7253,-544.4624"/>
<polygon fill="#000000" stroke="#000000" points="344.8242,-541.5201 337.9815,-549.6088 348.3749,-547.5527 344.8242,-541.5201"/>
</g>
<!-- GO:0043226 -->
<g id="node8" class="node">
<title>GO:0043226</title>
<polygon fill="#ffffff" stroke="#000000" points="805.7242,-591.0019 716.5164,-591.0019 716.5164,-549.7981 805.7242,-549.7981 805.7242,-591.0019"/>
<text text-anchor="middle" x="761.1203" y="-574.6" font-family="Times,serif" font-size="14.00" fill="#000000">GO:0043226</text>
<text text-anchor="middle" x="761.1203" y="-557.8" font-family="Times,serif" font-size="14.00" fill="#000000">organelle</text>
</g>
<!-- GO:0043229&#45;&gt;GO:0043226 -->
<g id="edge8" class="edge">
<title>GO:0043229&#45;&gt;GO:0043226</title>
<path fill="none" stroke="#000000" d="M593.1166,-487.1989C628.5591,-498.3742 671.683,-513.9259 708.1203,-532.8 714.3124,-536.0074 720.6042,-539.8581 726.5866,-543.8543"/>
<polygon fill="#000000" stroke="#000000" points="724.8725,-546.9252 735.0823,-549.7555 728.8659,-541.176 724.8725,-546.9252"/>
</g>
<!-- GO:0043227&#45;&gt;GO:0043226 -->
<g id="edge9" class="edge">
<title>GO:0043227&#45;&gt;GO:0043226</title>
<path fill="none" stroke="#000000" d="M720.4542,-497.0584C728.0453,-510.7489 737.0539,-526.996 744.6605,-540.7146"/>
<polygon fill="#000000" stroke="#000000" points="741.7578,-542.6973 749.668,-549.7456 747.8797,-539.3028 741.7578,-542.6973"/>
</g>
<!-- GO:0005575 -->
<g id="node9" class="node">
<title>GO:0005575</title>
<polygon fill="#ffffff" stroke="#000000" points="521.807,-763.0019 394.4336,-763.0019 394.4336,-721.7981 521.807,-721.7981 521.807,-763.0019"/>
<text text-anchor="middle" x="458.1203" y="-746.6" font-family="Times,serif" font-size="14.00" fill="#000000">GO:0005575</text>
<text text-anchor="middle" x="458.1203" y="-729.8" font-family="Times,serif" font-size="14.00" fill="#000000">cellular_component</text>
</g>
<!-- GO:0044464&#45;&gt;GO:0005575 -->
<g id="edge10" class="edge">
<title>GO:0044464&#45;&gt;GO:0005575</title>
<path fill="none" stroke="#000000" d="M431.7676,-685.5954C435.5608,-693.7718 439.9899,-703.3189 444.1225,-712.227"/>
<polygon fill="#000000" stroke="#000000" points="441.0629,-713.9488 448.4463,-721.5472 447.4129,-711.0029 441.0629,-713.9488"/>
</g>
<!-- GO:0043226&#45;&gt;GO:0005575 -->
<g id="edge11" class="edge">
<title>GO:0043226&#45;&gt;GO:0005575</title>
<path fill="none" stroke="#000000" d="M733.2286,-591.1603C725.2543,-596.8271 716.4614,-602.8267 708.1203,-608 641.4953,-649.3219 561.124,-691.1922 509.825,-716.9695"/>
<polygon fill="#000000" stroke="#000000" points="507.9691,-713.9845 500.5946,-721.5916 511.1033,-720.2436 507.9691,-713.9845"/>
</g>
<!-- GO:0005942 -->
<g id="node10" class="node">
<title>GO:0005942</title>
<polygon fill="#ffffff" stroke="#000000" points="1064.4587,-497.0014 933.7819,-497.0014 933.7819,-438.1986 1064.4587,-438.1986 1064.4587,-497.0014"/>
<text text-anchor="middle" x="999.1203" y="-480.2" font-family="Times,serif" font-size="14.00" fill="#000000">GO:0005942</text>
<text text-anchor="middle" x="999.1203" y="-463.4" font-family="Times,serif" font-size="14.00" fill="#000000">phosphatidylinositol</text>
<text text-anchor="middle" x="999.1203" y="-446.6" font-family="Times,serif" font-size="14.00" fill="#000000">3&#45;kinase complex</text>
</g>
<!-- GO:0098796 -->
<g id="node11" class="node">
<title>GO:0098796</title>
<polygon fill="#ffffff" stroke="#000000" points="994.0727,-591.0019 824.1679,-591.0019 824.1679,-549.7981 994.0727,-549.7981 994.0727,-591.0019"/>
<text text-anchor="middle" x="909.1203" y="-574.6" font-family="Times,serif" font-size="14.00" fill="#000000">GO:0098796</text>
<text text-anchor="middle" x="909.1203" y="-557.8" font-family="Times,serif" font-size="14.00" fill="#000000">membrane protein complex</text>
</g>
<!-- GO:0005942&#45;&gt;GO:0098796 -->
<g id="edge12" class="edge">
<title>GO:0005942&#45;&gt;GO:0098796</title>
<path fill="none" stroke="#000000" d="M973.3299,-497.0584C960.9983,-511.1438 946.2974,-527.9355 934.0757,-541.8954"/>
<polygon fill="#000000" stroke="#000000" points="931.1567,-539.9162 927.2029,-549.7456 936.4235,-544.5272 931.1567,-539.9162"/>
</g>
<!-- GO:0061695 -->
<g id="node12" class="node">
<title>GO:0061695</title>
<polygon fill="#ffffff" stroke="#000000" points="1166.1281,-608.1003 1012.1125,-608.1003 1012.1125,-532.6997 1166.1281,-532.6997 1166.1281,-608.1003"/>
<text text-anchor="middle" x="1089.1203" y="-591.4" font-family="Times,serif" font-size="14.00" fill="#000000">GO:0061695</text>
<text text-anchor="middle" x="1089.1203" y="-574.6" font-family="Times,serif" font-size="14.00" fill="#000000">transferase complex,</text>
<text text-anchor="middle" x="1089.1203" y="-557.8" font-family="Times,serif" font-size="14.00" fill="#000000">transferring phosphorus&#45;</text>
<text text-anchor="middle" x="1089.1203" y="-541" font-family="Times,serif" font-size="14.00" fill="#000000">containing groups</text>
</g>
<!-- GO:0005942&#45;&gt;GO:0061695 -->
<g id="edge13" class="edge">
<title>GO:0005942&#45;&gt;GO:0061695</title>
<path fill="none" stroke="#000000" d="M1024.9107,-497.0584C1032.4587,-505.6798 1040.8943,-515.3152 1049.1057,-524.6945"/>
<polygon fill="#000000" stroke="#000000" points="1046.7057,-527.2665 1055.9262,-532.485 1051.9724,-522.6555 1046.7057,-527.2665"/>
</g>
<!-- GO:0043234 -->
<g id="node13" class="node">
<title>GO:0043234</title>
<polygon fill="#ffffff" stroke="#000000" points="962.9877,-685.4019 855.2529,-685.4019 855.2529,-644.1981 962.9877,-644.1981 962.9877,-685.4019"/>
<text text-anchor="middle" x="909.1203" y="-669" font-family="Times,serif" font-size="14.00" fill="#000000">GO:0043234</text>
<text text-anchor="middle" x="909.1203" y="-652.2" font-family="Times,serif" font-size="14.00" fill="#000000">protein complex</text>
</g>
<!-- GO:0098796&#45;&gt;GO:0043234 -->
<g id="edge14" class="edge">
<title>GO:0098796&#45;&gt;GO:0043234</title>
<path fill="none" stroke="#000000" d="M909.1203,-591.3504C909.1203,-603.8165 909.1203,-619.8645 909.1203,-633.7786"/>
<polygon fill="#000000" stroke="#000000" points="905.6204,-633.9081 909.1203,-643.9081 912.6204,-633.9082 905.6204,-633.9081"/>
</g>
<!-- GO:0044425 -->
<g id="node14" class="node">
<title>GO:0044425</title>
<polygon fill="#ffffff" stroke="#000000" points="801.4723,-685.4019 700.7683,-685.4019 700.7683,-644.1981 801.4723,-644.1981 801.4723,-685.4019"/>
<text text-anchor="middle" x="751.1203" y="-669" font-family="Times,serif" font-size="14.00" fill="#000000">GO:0044425</text>
<text text-anchor="middle" x="751.1203" y="-652.2" font-family="Times,serif" font-size="14.00" fill="#000000">membrane part</text>
</g>
<!-- GO:0098796&#45;&gt;GO:0044425 -->
<g id="edge15" class="edge">
<title>GO:0098796&#45;&gt;GO:0044425</title>
<path fill="none" stroke="#000000" d="M874.4465,-591.1165C850.8815,-605.1959 819.5363,-623.9236 794.3444,-638.975"/>
<polygon fill="#000000" stroke="#000000" points="792.5025,-635.9982 785.7132,-644.1318 796.0929,-642.0074 792.5025,-635.9982"/>
</g>
<!-- GO:1990234 -->
<g id="node15" class="node">
<title>GO:1990234</title>
<polygon fill="#ffffff" stroke="#000000" points="1153.4511,-685.4019 1024.7895,-685.4019 1024.7895,-644.1981 1153.4511,-644.1981 1153.4511,-685.4019"/>
<text text-anchor="middle" x="1089.1203" y="-669" font-family="Times,serif" font-size="14.00" fill="#000000">GO:1990234</text>
<text text-anchor="middle" x="1089.1203" y="-652.2" font-family="Times,serif" font-size="14.00" fill="#000000">transferase complex</text>
</g>
<!-- GO:0061695&#45;&gt;GO:1990234 -->
<g id="edge16" class="edge">
<title>GO:0061695&#45;&gt;GO:1990234</title>
<path fill="none" stroke="#000000" d="M1089.1203,-608.2522C1089.1203,-616.7406 1089.1203,-625.6492 1089.1203,-633.8197"/>
<polygon fill="#000000" stroke="#000000" points="1085.6204,-634.0379 1089.1203,-644.0379 1092.6204,-634.0379 1085.6204,-634.0379"/>
</g>
<!-- GO:0032991 -->
<g id="node16" class="node">
<title>GO:0032991</title>
<polygon fill="#ffffff" stroke="#000000" points="988.2876,-763.0019 829.953,-763.0019 829.953,-721.7981 988.2876,-721.7981 988.2876,-763.0019"/>
<text text-anchor="middle" x="909.1203" y="-746.6" font-family="Times,serif" font-size="14.00" fill="#000000">GO:0032991</text>
<text text-anchor="middle" x="909.1203" y="-729.8" font-family="Times,serif" font-size="14.00" fill="#000000">macromolecular complex</text>
</g>
<!-- GO:0043234&#45;&gt;GO:0032991 -->
<g id="edge17" class="edge">
<title>GO:0043234&#45;&gt;GO:0032991</title>
<path fill="none" stroke="#000000" d="M909.1203,-685.5954C909.1203,-693.5109 909.1203,-702.7109 909.1203,-711.3722"/>
<polygon fill="#000000" stroke="#000000" points="905.6204,-711.5472 909.1203,-721.5472 912.6204,-711.5473 905.6204,-711.5472"/>
</g>
<!-- GO:0044425&#45;&gt;GO:0005575 -->
<g id="edge18" class="edge">
<title>GO:0044425&#45;&gt;GO:0005575</title>
<path fill="none" stroke="#000000" d="M700.7518,-678.1399C654.2538,-690.4548 584.6235,-708.8961 531.8651,-722.869"/>
<polygon fill="#000000" stroke="#000000" points="530.6559,-719.5684 521.8853,-725.5121 532.4481,-726.3351 530.6559,-719.5684"/>
</g>
<!-- GO:1902494 -->
<g id="node17" class="node">
<title>GO:1902494</title>
<polygon fill="#ffffff" stroke="#000000" points="1146.7516,-763.0019 1031.489,-763.0019 1031.489,-721.7981 1146.7516,-721.7981 1146.7516,-763.0019"/>
<text text-anchor="middle" x="1089.1203" y="-746.6" font-family="Times,serif" font-size="14.00" fill="#000000">GO:1902494</text>
<text text-anchor="middle" x="1089.1203" y="-729.8" font-family="Times,serif" font-size="14.00" fill="#000000">catalytic complex</text>
</g>
<!-- GO:1990234&#45;&gt;GO:1902494 -->
<g id="edge19" class="edge">
<title>GO:1990234&#45;&gt;GO:1902494</title>
<path fill="none" stroke="#000000" d="M1089.1203,-685.5954C1089.1203,-693.5109 1089.1203,-702.7109 1089.1203,-711.3722"/>
<polygon fill="#000000" stroke="#000000" points="1085.6204,-711.5472 1089.1203,-721.5472 1092.6204,-711.5473 1085.6204,-711.5472"/>
</g>
<!-- GO:0005943 -->
<g id="node18" class="node">
<title>GO:0005943</title>
<polygon fill="#ffffff" stroke="#000000" points="1073.9651,-308.1003 924.2755,-308.1003 924.2755,-232.6997 1073.9651,-232.6997 1073.9651,-308.1003"/>
<text text-anchor="middle" x="999.1203" y="-291.4" font-family="Times,serif" font-size="14.00" fill="#000000">GO:0005943</text>
<text text-anchor="middle" x="999.1203" y="-274.6" font-family="Times,serif" font-size="14.00" fill="#000000">phosphatidylinositol</text>
<text text-anchor="middle" x="999.1203" y="-257.8" font-family="Times,serif" font-size="14.00" fill="#000000">3&#45;kinase complex, class</text>
<text text-anchor="middle" x="999.1203" y="-241" font-family="Times,serif" font-size="14.00" fill="#000000">IA</text>
</g>
<!-- GO:0097651 -->
<g id="node19" class="node">
<title>GO:0097651</title>
<polygon fill="#ffffff" stroke="#000000" points="1077.6261,-402.6014 920.6145,-402.6014 920.6145,-343.7986 1077.6261,-343.7986 1077.6261,-402.6014"/>
<text text-anchor="middle" x="999.1203" y="-385.8" font-family="Times,serif" font-size="14.00" fill="#000000">GO:0097651</text>
<text text-anchor="middle" x="999.1203" y="-369" font-family="Times,serif" font-size="14.00" fill="#000000">phosphatidylinositol</text>
<text text-anchor="middle" x="999.1203" y="-352.2" font-family="Times,serif" font-size="14.00" fill="#000000">3&#45;kinase complex, class I</text>
</g>
<!-- GO:0005943&#45;&gt;GO:0097651 -->
<g id="edge20" class="edge">
<title>GO:0005943&#45;&gt;GO:0097651</title>
<path fill="none" stroke="#000000" d="M999.1203,-308.0952C999.1203,-316.4874 999.1203,-325.4054 999.1203,-333.8618"/>
<polygon fill="#000000" stroke="#000000" points="995.6204,-333.8813 999.1203,-343.8814 1002.6204,-333.8814 995.6204,-333.8813"/>
</g>
<!-- GO:0097651&#45;&gt;GO:0005942 -->
<g id="edge21" class="edge">
<title>GO:0097651&#45;&gt;GO:0005942</title>
<path fill="none" stroke="#000000" d="M999.1203,-402.5513C999.1203,-410.6318 999.1203,-419.5308 999.1203,-428.0838"/>
<polygon fill="#000000" stroke="#000000" points="995.6204,-428.2668 999.1203,-438.2669 1002.6204,-428.2669 995.6204,-428.2668"/>
</g>
<!-- GO:0051286 -->
<g id="node20" class="node">
<title>GO:0051286</title>
<polygon fill="#ffffff" stroke="#000000" points="466.7242,-591.0019 377.5164,-591.0019 377.5164,-549.7981 466.7242,-549.7981 466.7242,-591.0019"/>
<text text-anchor="middle" x="422.1203" y="-574.6" font-family="Times,serif" font-size="14.00" fill="#000000">GO:0051286</text>
<text text-anchor="middle" x="422.1203" y="-557.8" font-family="Times,serif" font-size="14.00" fill="#000000">cell tip</text>
</g>
<!-- GO:0051286&#45;&gt;GO:0044464 -->
<g id="edge22" class="edge">
<title>GO:0051286&#45;&gt;GO:0044464</title>
<path fill="none" stroke="#000000" d="M422.1203,-591.3504C422.1203,-603.8165 422.1203,-619.8645 422.1203,-633.7786"/>
<polygon fill="#000000" stroke="#000000" points="418.6204,-633.9081 422.1203,-643.9081 425.6204,-633.9082 418.6204,-633.9081"/>
</g>
<!-- GO:0032153 -->
<g id="node21" class="node">
<title>GO:0032153</title>
<polygon fill="#ffffff" stroke="#000000" points="591.8878,-591.0019 484.3528,-591.0019 484.3528,-549.7981 591.8878,-549.7981 591.8878,-591.0019"/>
<text text-anchor="middle" x="538.1203" y="-574.6" font-family="Times,serif" font-size="14.00" fill="#000000">GO:0032153</text>
<text text-anchor="middle" x="538.1203" y="-557.8" font-family="Times,serif" font-size="14.00" fill="#000000">cell division site</text>
</g>
<!-- GO:0032153&#45;&gt;GO:0044464 -->
<g id="edge23" class="edge">
<title>GO:0032153&#45;&gt;GO:0044464</title>
<path fill="none" stroke="#000000" d="M512.6636,-591.1165C495.8915,-604.7655 473.7514,-622.783 455.5629,-637.5846"/>
<polygon fill="#000000" stroke="#000000" points="453.0647,-635.1052 447.5176,-644.1318 457.4831,-640.5345 453.0647,-635.1052"/>
</g>
<!-- GO:0042629 -->
<g id="node22" class="node">
<title>GO:0042629</title>
<polygon fill="#ffffff" stroke="#000000" points="578.7521,-41.4019 467.4885,-41.4019 467.4885,-.1981 578.7521,-.1981 578.7521,-41.4019"/>
<text text-anchor="middle" x="523.1203" y="-25" font-family="Times,serif" font-size="14.00" fill="#000000">GO:0042629</text>
<text text-anchor="middle" x="523.1203" y="-8.2" font-family="Times,serif" font-size="14.00" fill="#000000">mast cell granule</text>
</g>
<!-- GO:0005764 -->
<g id="node23" class="node">
<title>GO:0005764</title>
<polygon fill="#ffffff" stroke="#000000" points="567.7242,-119.0019 478.5164,-119.0019 478.5164,-77.7981 567.7242,-77.7981 567.7242,-119.0019"/>
<text text-anchor="middle" x="523.1203" y="-102.6" font-family="Times,serif" font-size="14.00" fill="#000000">GO:0005764</text>
<text text-anchor="middle" x="523.1203" y="-85.8" font-family="Times,serif" font-size="14.00" fill="#000000">lysosome</text>
</g>
<!-- GO:0042629&#45;&gt;GO:0005764 -->
<g id="edge24" class="edge">
<title>GO:0042629&#45;&gt;GO:0005764</title>
<path fill="none" stroke="#000000" d="M523.1203,-41.5954C523.1203,-49.5109 523.1203,-58.7109 523.1203,-67.3722"/>
<polygon fill="#000000" stroke="#000000" points="519.6204,-67.5472 523.1203,-77.5472 526.6204,-67.5473 519.6204,-67.5472"/>
</g>
<!-- GO:0000323 -->
<g id="node24" class="node">
<title>GO:0000323</title>
<polygon fill="#ffffff" stroke="#000000" points="567.7242,-196.6019 478.5164,-196.6019 478.5164,-155.3981 567.7242,-155.3981 567.7242,-196.6019"/>
<text text-anchor="middle" x="523.1203" y="-180.2" font-family="Times,serif" font-size="14.00" fill="#000000">GO:0000323</text>
<text text-anchor="middle" x="523.1203" y="-163.4" font-family="Times,serif" font-size="14.00" fill="#000000">lytic vacuole</text>
</g>
<!-- GO:0005764&#45;&gt;GO:0000323 -->
<g id="edge25" class="edge">
<title>GO:0005764&#45;&gt;GO:0000323</title>
<path fill="none" stroke="#000000" d="M523.1203,-119.1954C523.1203,-127.1109 523.1203,-136.3109 523.1203,-144.9722"/>
<polygon fill="#000000" stroke="#000000" points="519.6204,-145.1472 523.1203,-155.1472 526.6204,-145.1473 519.6204,-145.1472"/>
</g>
<!-- GO:0005773 -->
<g id="node25" class="node">
<title>GO:0005773</title>
<polygon fill="#ffffff" stroke="#000000" points="567.7242,-291.0019 478.5164,-291.0019 478.5164,-249.7981 567.7242,-249.7981 567.7242,-291.0019"/>
<text text-anchor="middle" x="523.1203" y="-274.6" font-family="Times,serif" font-size="14.00" fill="#000000">GO:0005773</text>
<text text-anchor="middle" x="523.1203" y="-257.8" font-family="Times,serif" font-size="14.00" fill="#000000">vacuole</text>
</g>
<!-- GO:0000323&#45;&gt;GO:0005773 -->
<g id="edge26" class="edge">
<title>GO:0000323&#45;&gt;GO:0005773</title>
<path fill="none" stroke="#000000" d="M523.1203,-196.9504C523.1203,-209.4165 523.1203,-225.4645 523.1203,-239.3786"/>
<polygon fill="#000000" stroke="#000000" points="519.6204,-239.5081 523.1203,-249.5081 526.6204,-239.5082 519.6204,-239.5081"/>
</g>
<!-- GO:0005773&#45;&gt;GO:0044444 -->
<g id="edge27" class="edge">
<title>GO:0005773&#45;&gt;GO:0044444</title>
<path fill="none" stroke="#000000" d="M495.9305,-291.0236C487.8154,-296.81 478.7732,-302.9064 470.1203,-308 445.1093,-322.7228 416.2615,-336.9191 391.5879,-348.2848"/>
<polygon fill="#000000" stroke="#000000" points="389.9982,-345.163 382.3526,-352.4975 392.9033,-351.5317 389.9982,-345.163"/>
</g>
<!-- GO:0005773&#45;&gt;GO:0043231 -->
<g id="edge28" class="edge">
<title>GO:0005773&#45;&gt;GO:0043231</title>
<path fill="none" stroke="#000000" d="M523.1203,-291.2031C523.1203,-303.3833 523.1203,-319.1676 523.1203,-333.6305"/>
<polygon fill="#000000" stroke="#000000" points="519.6204,-333.8577 523.1203,-343.8577 526.6204,-333.8578 519.6204,-333.8577"/>
</g>
<!-- GO:0005622 -->
<g id="node26" class="node">
<title>GO:0005622</title>
<polygon fill="#ffffff" stroke="#000000" points="698.7242,-591.0019 609.5164,-591.0019 609.5164,-549.7981 698.7242,-549.7981 698.7242,-591.0019"/>
<text text-anchor="middle" x="654.1203" y="-574.6" font-family="Times,serif" font-size="14.00" fill="#000000">GO:0005622</text>
<text text-anchor="middle" x="654.1203" y="-557.8" font-family="Times,serif" font-size="14.00" fill="#000000">intracellular</text>
</g>
<!-- GO:0005622&#45;&gt;GO:0044464 -->
<g id="edge29" class="edge">
<title>GO:0005622&#45;&gt;GO:0044464</title>
<path fill="none" stroke="#000000" d="M628.4441,-591.0291C620.0742,-597.0805 610.5117,-603.3219 601.1203,-608 561.3741,-627.7987 513.2552,-642.6076 476.9219,-652.1322"/>
<polygon fill="#000000" stroke="#000000" points="475.8191,-648.8018 467.0034,-654.6783 477.5596,-655.5819 475.8191,-648.8018"/>
</g>
<!-- GO:0030027 -->
<g id="node27" class="node">
<title>GO:0030027</title>
<polygon fill="#ffffff" stroke="#000000" points="232.7843,-488.2019 135.4563,-488.2019 135.4563,-446.9981 232.7843,-446.9981 232.7843,-488.2019"/>
<text text-anchor="middle" x="184.1203" y="-471.8" font-family="Times,serif" font-size="14.00" fill="#000000">GO:0030027</text>
<text text-anchor="middle" x="184.1203" y="-455" font-family="Times,serif" font-size="14.00" fill="#000000">lamellipodium</text>
</g>
<!-- GO:0042995 -->
<g id="node28" class="node">
<title>GO:0042995</title>
<polygon fill="#ffffff" stroke="#000000" points="232.5935,-591.0019 135.6471,-591.0019 135.6471,-549.7981 232.5935,-549.7981 232.5935,-591.0019"/>
<text text-anchor="middle" x="184.1203" y="-574.6" font-family="Times,serif" font-size="14.00" fill="#000000">GO:0042995</text>
<text text-anchor="middle" x="184.1203" y="-557.8" font-family="Times,serif" font-size="14.00" fill="#000000">cell projection</text>
</g>
<!-- GO:0030027&#45;&gt;GO:0042995 -->
<g id="edge30" class="edge">
<title>GO:0030027&#45;&gt;GO:0042995</title>
<path fill="none" stroke="#000000" d="M184.1203,-488.4031C184.1203,-503.0337 184.1203,-522.8642 184.1203,-539.3586"/>
<polygon fill="#000000" stroke="#000000" points="180.6204,-539.6278 184.1203,-549.6278 187.6204,-539.6279 180.6204,-539.6278"/>
</g>
<!-- GO:0042995&#45;&gt;GO:0044464 -->
<g id="edge31" class="edge">
<title>GO:0042995&#45;&gt;GO:0044464</title>
<path fill="none" stroke="#000000" d="M212.7364,-591.1274C221.8341,-597.1136 232.1336,-603.2934 242.1203,-608 282.4913,-627.0263 330.8533,-641.8847 367.2772,-651.6247"/>
<polygon fill="#000000" stroke="#000000" points="366.6563,-655.0803 377.2174,-654.2354 368.4345,-648.3099 366.6563,-655.0803"/>
</g>
<!-- GO:0005886 -->
<g id="node29" class="node">
<title>GO:0005886</title>
<polygon fill="#ffffff" stroke="#000000" points="118.3611,-591.0019 -.1205,-591.0019 -.1205,-549.7981 118.3611,-549.7981 118.3611,-591.0019"/>
<text text-anchor="middle" x="59.1203" y="-574.6" font-family="Times,serif" font-size="14.00" fill="#000000">GO:0005886</text>
<text text-anchor="middle" x="59.1203" y="-557.8" font-family="Times,serif" font-size="14.00" fill="#000000">plasma membrane</text>
</g>
<!-- GO:0005886&#45;&gt;GO:0044464 -->
<g id="edge33" class="edge">
<title>GO:0005886&#45;&gt;GO:0044464</title>
<path fill="none" stroke="#000000" d="M91.6806,-591.1284C102.6007,-597.3302 115.0714,-603.6338 127.1203,-608 208.0081,-637.3117 307.1389,-652.4322 367.4174,-659.4798"/>
<polygon fill="#000000" stroke="#000000" points="367.1466,-662.9715 377.4779,-660.623 367.937,-656.0162 367.1466,-662.9715"/>
</g>
<!-- GO:0016020 -->
<g id="node30" class="node">
<title>GO:0016020</title>
<polygon fill="#ffffff" stroke="#000000" points="231.7242,-685.4019 142.5164,-685.4019 142.5164,-644.1981 231.7242,-644.1981 231.7242,-685.4019"/>
<text text-anchor="middle" x="187.1203" y="-669" font-family="Times,serif" font-size="14.00" fill="#000000">GO:0016020</text>
<text text-anchor="middle" x="187.1203" y="-652.2" font-family="Times,serif" font-size="14.00" fill="#000000">membrane</text>
</g>
<!-- GO:0005886&#45;&gt;GO:0016020 -->
<g id="edge32" class="edge">
<title>GO:0005886&#45;&gt;GO:0016020</title>
<path fill="none" stroke="#000000" d="M87.2104,-591.1165C105.9677,-604.9499 130.8095,-623.2708 151.0293,-638.1829"/>
<polygon fill="#000000" stroke="#000000" points="148.9702,-641.0132 159.0957,-644.1318 153.125,-635.3796 148.9702,-641.0132"/>
</g>
<!-- GO:0016020&#45;&gt;GO:0005575 -->
<g id="edge34" class="edge">
<title>GO:0016020&#45;&gt;GO:0005575</title>
<path fill="none" stroke="#000000" d="M231.8704,-677.6141C273.2906,-689.4746 335.6489,-707.3307 384.4166,-721.2952"/>
<polygon fill="#000000" stroke="#000000" points="383.714,-724.7346 394.2911,-724.1227 385.641,-718.005 383.714,-724.7346"/>
</g>
<!-- GO:0005829 -->
<g id="node31" class="node">
<title>GO:0005829</title>
<polygon fill="#ffffff" stroke="#000000" points="337.7242,-291.0019 248.5164,-291.0019 248.5164,-249.7981 337.7242,-249.7981 337.7242,-291.0019"/>
<text text-anchor="middle" x="293.1203" y="-274.6" font-family="Times,serif" font-size="14.00" fill="#000000">GO:0005829</text>
<text text-anchor="middle" x="293.1203" y="-257.8" font-family="Times,serif" font-size="14.00" fill="#000000">cytosol</text>
</g>
<!-- GO:0005829&#45;&gt;GO:0044444 -->
<g id="edge35" class="edge">
<title>GO:0005829&#45;&gt;GO:0044444</title>
<path fill="none" stroke="#000000" d="M301.4173,-291.2031C307.3635,-306.1123 315.4635,-326.4216 322.1144,-343.0975"/>
<polygon fill="#000000" stroke="#000000" points="318.8801,-344.4359 325.8357,-352.4278 325.382,-341.8427 318.8801,-344.4359"/>
</g>
</g>
</svg>
