<?xml version="1.0" encoding="UTF-8" standalone="no"?>
<!DOCTYPE svg PUBLIC "-//W3C//DTD SVG 1.1//EN"
 "http://www.w3.org/Graphics/SVG/1.1/DTD/svg11.dtd">
<!-- Generated by graphviz version 2.40.1 (20161225.0304)
 -->
<!-- Title: G Pages: 1 -->
<svg width="978pt" height="1094pt"
 viewBox="0.00 0.00 977.93 1094.40" xmlns="http://www.w3.org/2000/svg" xmlns:xlink="http://www.w3.org/1999/xlink">
<g id="graph0" class="graph" transform="scale(1 1) rotate(0) translate(4 1090.4)">
<title>G</title>
<polygon fill="#ffffff" stroke="transparent" points="-4,4 -4,-1090.4 973.9303,-1090.4 973.9303,4 -4,4"/>
<!-- GO:0042626 -->
<g id="node1" class="node">
<title>GO:0042626</title>
<polygon fill="#ff00ff" stroke="#000000" points="367.0042,-75.3003 187.4286,-75.3003 187.4286,.1003 367.0042,.1003 367.0042,-75.3003"/>
<text text-anchor="middle" x="277.2164" y="-58.6" font-family="Times,serif" font-size="14.00" fill="#000000">GO:0042626</text>
<text text-anchor="middle" x="277.2164" y="-41.8" font-family="Times,serif" font-size="14.00" fill="#000000">ATPase activity, coupled</text>
<text text-anchor="middle" x="277.2164" y="-25" font-family="Times,serif" font-size="14.00" fill="#000000">to transmembrane movement</text>
<text text-anchor="middle" x="277.2164" y="-8.2" font-family="Times,serif" font-size="14.00" fill="#000000">of substances</text>
</g>
<!-- GO:0043492 -->
<g id="node2" class="node">
<title>GO:0043492</title>
<polygon fill="#ff00ff" stroke="#000000" points="510.2368,-178.2014 342.196,-178.2014 342.196,-119.3986 510.2368,-119.3986 510.2368,-178.2014"/>
<text text-anchor="middle" x="426.2164" y="-161.4" font-family="Times,serif" font-size="14.00" fill="#000000">GO:0043492</text>
<text text-anchor="middle" x="426.2164" y="-144.6" font-family="Times,serif" font-size="14.00" fill="#000000">ATPase activity, coupled</text>
<text text-anchor="middle" x="426.2164" y="-127.8" font-family="Times,serif" font-size="14.00" fill="#000000">to movement of substances</text>
</g>
<!-- GO:0042626&#45;&gt;GO:0043492 -->
<g id="edge1" class="edge">
<title>GO:0042626&#45;&gt;GO:0043492</title>
<path fill="none" stroke="#000000" d="M327.661,-75.2472C344.0528,-87.4806 362.1851,-101.0129 378.3807,-113.0998"/>
<polygon fill="#000000" stroke="#000000" points="376.5463,-116.098 386.6539,-119.2742 380.7331,-110.4881 376.5463,-116.098"/>
</g>
<!-- GO:0016820 -->
<g id="node3" class="node">
<title>GO:0016820</title>
<polygon fill="#ffffff" stroke="#000000" points="367.274,-331.1002 187.1588,-331.1002 187.1588,-222.4998 367.274,-222.4998 367.274,-331.1002"/>
<text text-anchor="middle" x="277.2164" y="-314.6" font-family="Times,serif" font-size="14.00" fill="#000000">GO:0016820</text>
<text text-anchor="middle" x="277.2164" y="-297.8" font-family="Times,serif" font-size="14.00" fill="#000000">hydrolase activity,</text>
<text text-anchor="middle" x="277.2164" y="-281" font-family="Times,serif" font-size="14.00" fill="#000000">acting on acid</text>
<text text-anchor="middle" x="277.2164" y="-264.2" font-family="Times,serif" font-size="14.00" fill="#000000">anhydrides, catalyzing</text>
<text text-anchor="middle" x="277.2164" y="-247.4" font-family="Times,serif" font-size="14.00" fill="#000000">transmembrane movement of</text>
<text text-anchor="middle" x="277.2164" y="-230.6" font-family="Times,serif" font-size="14.00" fill="#000000">substances</text>
</g>
<!-- GO:0042626&#45;&gt;GO:0016820 -->
<g id="edge2" class="edge">
<title>GO:0042626&#45;&gt;GO:0016820</title>
<path fill="none" stroke="#000000" d="M277.2164,-75.2381C277.2164,-111.9778 277.2164,-168.5996 277.2164,-212.487"/>
<polygon fill="#000000" stroke="#000000" points="273.7165,-212.4955 277.2164,-222.4955 280.7165,-212.4956 273.7165,-212.4955"/>
</g>
<!-- GO:0015405 -->
<g id="node4" class="node">
<title>GO:0015405</title>
<polygon fill="#ffffff" stroke="#000000" points="202.7789,-186.5003 61.6539,-186.5003 61.6539,-111.0997 202.7789,-111.0997 202.7789,-186.5003"/>
<text text-anchor="middle" x="132.2164" y="-169.8" font-family="Times,serif" font-size="14.00" fill="#000000">GO:0015405</text>
<text text-anchor="middle" x="132.2164" y="-153" font-family="Times,serif" font-size="14.00" fill="#000000">P&#45;P&#45;bond&#45;hydrolysis&#45;</text>
<text text-anchor="middle" x="132.2164" y="-136.2" font-family="Times,serif" font-size="14.00" fill="#000000">driven transmembrane</text>
<text text-anchor="middle" x="132.2164" y="-119.4" font-family="Times,serif" font-size="14.00" fill="#000000">transporter activity</text>
</g>
<!-- GO:0042626&#45;&gt;GO:0015405 -->
<g id="edge3" class="edge">
<title>GO:0042626&#45;&gt;GO:0015405</title>
<path fill="none" stroke="#000000" d="M228.126,-75.2472C215.7251,-84.7575 202.3005,-95.0527 189.5336,-104.8436"/>
<polygon fill="#000000" stroke="#000000" points="187.0615,-102.3287 181.2562,-111.1915 191.3214,-107.8833 187.0615,-102.3287"/>
</g>
<!-- GO:0042623 -->
<g id="node5" class="node">
<title>GO:0042623</title>
<polygon fill="#ffffff" stroke="#000000" points="542.8435,-297.4019 385.5893,-297.4019 385.5893,-256.1981 542.8435,-256.1981 542.8435,-297.4019"/>
<text text-anchor="middle" x="464.2164" y="-281" font-family="Times,serif" font-size="14.00" fill="#000000">GO:0042623</text>
<text text-anchor="middle" x="464.2164" y="-264.2" font-family="Times,serif" font-size="14.00" fill="#000000">ATPase activity, coupled</text>
</g>
<!-- GO:0043492&#45;&gt;GO:0042623 -->
<g id="edge4" class="edge">
<title>GO:0043492&#45;&gt;GO:0042623</title>
<path fill="none" stroke="#000000" d="M434.9344,-178.1658C440.9702,-198.4972 448.9872,-225.5017 455.1065,-246.1139"/>
<polygon fill="#000000" stroke="#000000" points="451.8255,-247.3605 458.0268,-255.9508 458.536,-245.3682 451.8255,-247.3605"/>
</g>
<!-- GO:0016817 -->
<g id="node6" class="node">
<title>GO:0016817</title>
<polygon fill="#ffffff" stroke="#000000" points="544.1723,-837.0014 384.2605,-837.0014 384.2605,-778.1986 544.1723,-778.1986 544.1723,-837.0014"/>
<text text-anchor="middle" x="464.2164" y="-820.2" font-family="Times,serif" font-size="14.00" fill="#000000">GO:0016817</text>
<text text-anchor="middle" x="464.2164" y="-803.4" font-family="Times,serif" font-size="14.00" fill="#000000">hydrolase activity,</text>
<text text-anchor="middle" x="464.2164" y="-786.6" font-family="Times,serif" font-size="14.00" fill="#000000">acting on acid anhydrides</text>
</g>
<!-- GO:0016820&#45;&gt;GO:0016817 -->
<g id="edge5" class="edge">
<title>GO:0016820&#45;&gt;GO:0016817</title>
<path fill="none" stroke="#000000" d="M304.6786,-331.167C323.5511,-373.5485 345.2164,-434.4691 345.2164,-490.8 345.2164,-490.8 345.2164,-490.8 345.2164,-576.8 345.2164,-652.3129 343.1493,-678.3936 383.2164,-742.4 390.0186,-753.2665 399.2802,-763.1215 409.1131,-771.69"/>
<polygon fill="#000000" stroke="#000000" points="407.1479,-774.6065 417.0853,-778.2807 411.6081,-769.2114 407.1479,-774.6065"/>
</g>
<!-- GO:0022804 -->
<g id="node7" class="node">
<title>GO:0022804</title>
<polygon fill="#ffffff" stroke="#000000" points="155.9376,-425.8014 16.4952,-425.8014 16.4952,-366.9986 155.9376,-366.9986 155.9376,-425.8014"/>
<text text-anchor="middle" x="86.2164" y="-409" font-family="Times,serif" font-size="14.00" fill="#000000">GO:0022804</text>
<text text-anchor="middle" x="86.2164" y="-392.2" font-family="Times,serif" font-size="14.00" fill="#000000">active transmembrane</text>
<text text-anchor="middle" x="86.2164" y="-375.4" font-family="Times,serif" font-size="14.00" fill="#000000">transporter activity</text>
</g>
<!-- GO:0016820&#45;&gt;GO:0022804 -->
<g id="edge6" class="edge">
<title>GO:0016820&#45;&gt;GO:0022804</title>
<path fill="none" stroke="#000000" d="M190.3791,-331.1756C173.8211,-341.5438 156.9129,-352.1314 141.6676,-361.6777"/>
<polygon fill="#000000" stroke="#000000" points="139.5167,-358.8949 132.8987,-367.1686 143.2318,-364.8278 139.5167,-358.8949"/>
</g>
<!-- GO:0015399 -->
<g id="node8" class="node">
<title>GO:0015399</title>
<polygon fill="#ffffff" stroke="#000000" points="169.6498,-314.5003 2.783,-314.5003 2.783,-239.0997 169.6498,-239.0997 169.6498,-314.5003"/>
<text text-anchor="middle" x="86.2164" y="-297.8" font-family="Times,serif" font-size="14.00" fill="#000000">GO:0015399</text>
<text text-anchor="middle" x="86.2164" y="-281" font-family="Times,serif" font-size="14.00" fill="#000000">primary active</text>
<text text-anchor="middle" x="86.2164" y="-264.2" font-family="Times,serif" font-size="14.00" fill="#000000">transmembrane transporter</text>
<text text-anchor="middle" x="86.2164" y="-247.4" font-family="Times,serif" font-size="14.00" fill="#000000">activity</text>
</g>
<!-- GO:0015405&#45;&gt;GO:0015399 -->
<g id="edge7" class="edge">
<title>GO:0015405&#45;&gt;GO:0015399</title>
<path fill="none" stroke="#000000" d="M118.6637,-186.5119C113.8404,-199.9333 108.3462,-215.2215 103.2675,-229.3535"/>
<polygon fill="#000000" stroke="#000000" points="99.9195,-228.3208 99.8312,-238.9153 106.507,-230.6883 99.9195,-228.3208"/>
</g>
<!-- GO:0016887 -->
<g id="node9" class="node">
<title>GO:0016887</title>
<polygon fill="#ffffff" stroke="#000000" points="517.0238,-417.0019 411.409,-417.0019 411.409,-375.7981 517.0238,-375.7981 517.0238,-417.0019"/>
<text text-anchor="middle" x="464.2164" y="-400.6" font-family="Times,serif" font-size="14.00" fill="#000000">GO:0016887</text>
<text text-anchor="middle" x="464.2164" y="-383.8" font-family="Times,serif" font-size="14.00" fill="#000000">ATPase activity</text>
</g>
<!-- GO:0042623&#45;&gt;GO:0016887 -->
<g id="edge8" class="edge">
<title>GO:0042623&#45;&gt;GO:0016887</title>
<path fill="none" stroke="#000000" d="M464.2164,-297.6327C464.2164,-316.2973 464.2164,-343.9322 464.2164,-365.2278"/>
<polygon fill="#000000" stroke="#000000" points="460.7165,-365.4047 464.2164,-375.4047 467.7165,-365.4047 460.7165,-365.4047"/>
</g>
<!-- GO:0016787 -->
<g id="node10" class="node">
<title>GO:0016787</title>
<polygon fill="#ffffff" stroke="#000000" points="528.133,-922.6019 412.2998,-922.6019 412.2998,-881.3981 528.133,-881.3981 528.133,-922.6019"/>
<text text-anchor="middle" x="470.2164" y="-906.2" font-family="Times,serif" font-size="14.00" fill="#000000">GO:0016787</text>
<text text-anchor="middle" x="470.2164" y="-889.4" font-family="Times,serif" font-size="14.00" fill="#000000">hydrolase activity</text>
</g>
<!-- GO:0016817&#45;&gt;GO:0016787 -->
<g id="edge9" class="edge">
<title>GO:0016817&#45;&gt;GO:0016787</title>
<path fill="none" stroke="#000000" d="M466.0819,-836.9513C466.7754,-847.8614 467.5637,-860.2637 468.2646,-871.292"/>
<polygon fill="#000000" stroke="#000000" points="464.7766,-871.5932 468.904,-881.351 471.7625,-871.1491 464.7766,-871.5932"/>
</g>
<!-- GO:0022857 -->
<g id="node11" class="node">
<title>GO:0022857</title>
<polygon fill="#ffffff" stroke="#000000" points="166.6498,-520.2014 -.217,-520.2014 -.217,-461.3986 166.6498,-461.3986 166.6498,-520.2014"/>
<text text-anchor="middle" x="83.2164" y="-503.4" font-family="Times,serif" font-size="14.00" fill="#000000">GO:0022857</text>
<text text-anchor="middle" x="83.2164" y="-486.6" font-family="Times,serif" font-size="14.00" fill="#000000">transmembrane transporter</text>
<text text-anchor="middle" x="83.2164" y="-469.8" font-family="Times,serif" font-size="14.00" fill="#000000">activity</text>
</g>
<!-- GO:0022804&#45;&gt;GO:0022857 -->
<g id="edge10" class="edge">
<title>GO:0022804&#45;&gt;GO:0022857</title>
<path fill="none" stroke="#000000" d="M85.2836,-425.7513C85.0268,-433.8318 84.744,-442.7308 84.4722,-451.2838"/>
<polygon fill="#000000" stroke="#000000" points="80.9681,-451.3607 84.1486,-461.4669 87.9646,-451.5831 80.9681,-451.3607"/>
</g>
<!-- GO:0015399&#45;&gt;GO:0022804 -->
<g id="edge11" class="edge">
<title>GO:0015399&#45;&gt;GO:0022804</title>
<path fill="none" stroke="#000000" d="M86.2164,-314.6422C86.2164,-328.1668 86.2164,-343.4315 86.2164,-357.078"/>
<polygon fill="#000000" stroke="#000000" points="82.7165,-357.1425 86.2164,-367.1425 89.7165,-357.1426 82.7165,-357.1425"/>
</g>
<!-- GO:0017111 -->
<g id="node12" class="node">
<title>GO:0017111</title>
<polygon fill="#ffffff" stroke="#000000" points="545.1125,-520.2014 383.3203,-520.2014 383.3203,-461.3986 545.1125,-461.3986 545.1125,-520.2014"/>
<text text-anchor="middle" x="464.2164" y="-503.4" font-family="Times,serif" font-size="14.00" fill="#000000">GO:0017111</text>
<text text-anchor="middle" x="464.2164" y="-486.6" font-family="Times,serif" font-size="14.00" fill="#000000">nucleoside&#45;triphosphatase</text>
<text text-anchor="middle" x="464.2164" y="-469.8" font-family="Times,serif" font-size="14.00" fill="#000000">activity</text>
</g>
<!-- GO:0016887&#45;&gt;GO:0017111 -->
<g id="edge12" class="edge">
<title>GO:0016887&#45;&gt;GO:0017111</title>
<path fill="none" stroke="#000000" d="M464.2164,-417.3504C464.2164,-427.3492 464.2164,-439.6525 464.2164,-451.3106"/>
<polygon fill="#000000" stroke="#000000" points="460.7165,-451.3155 464.2164,-461.3155 467.7165,-451.3156 460.7165,-451.3155"/>
</g>
<!-- GO:0003824 -->
<g id="node13" class="node">
<title>GO:0003824</title>
<polygon fill="#ff0000" stroke="#000000" points="375.6288,-1008.6019 266.804,-1008.6019 266.804,-967.3981 375.6288,-967.3981 375.6288,-1008.6019"/>
<text text-anchor="middle" x="321.2164" y="-992.2" font-family="Times,serif" font-size="14.00" fill="#000000">GO:0003824</text>
<text text-anchor="middle" x="321.2164" y="-975.4" font-family="Times,serif" font-size="14.00" fill="#000000">catalytic activity</text>
</g>
<!-- GO:0016787&#45;&gt;GO:0003824 -->
<g id="edge13" class="edge">
<title>GO:0016787&#45;&gt;GO:0003824</title>
<path fill="none" stroke="#000000" d="M434.1477,-922.8182C413.5579,-934.7022 387.5752,-949.699 365.7244,-962.3108"/>
<polygon fill="#000000" stroke="#000000" points="363.8643,-959.3432 356.953,-967.3735 367.3635,-965.4059 363.8643,-959.3432"/>
</g>
<!-- GO:0005215 -->
<g id="node14" class="node">
<title>GO:0005215</title>
<polygon fill="#00ff00" stroke="#000000" points="144.3449,-597.4019 22.0879,-597.4019 22.0879,-556.1981 144.3449,-556.1981 144.3449,-597.4019"/>
<text text-anchor="middle" x="83.2164" y="-581" font-family="Times,serif" font-size="14.00" fill="#000000">GO:0005215</text>
<text text-anchor="middle" x="83.2164" y="-564.2" font-family="Times,serif" font-size="14.00" fill="#000000">transporter activity</text>
</g>
<!-- GO:0022857&#45;&gt;GO:0005215 -->
<g id="edge14" class="edge">
<title>GO:0022857&#45;&gt;GO:0005215</title>
<path fill="none" stroke="#000000" d="M83.2164,-520.3963C83.2164,-528.6638 83.2164,-537.6657 83.2164,-546.0008"/>
<polygon fill="#000000" stroke="#000000" points="79.7165,-546.0965 83.2164,-556.0966 86.7165,-546.0966 79.7165,-546.0965"/>
</g>
<!-- GO:0016462 -->
<g id="node15" class="node">
<title>GO:0016462</title>
<polygon fill="#ffffff" stroke="#000000" points="541.7928,-597.4019 386.64,-597.4019 386.64,-556.1981 541.7928,-556.1981 541.7928,-597.4019"/>
<text text-anchor="middle" x="464.2164" y="-581" font-family="Times,serif" font-size="14.00" fill="#000000">GO:0016462</text>
<text text-anchor="middle" x="464.2164" y="-564.2" font-family="Times,serif" font-size="14.00" fill="#000000">pyrophosphatase activity</text>
</g>
<!-- GO:0017111&#45;&gt;GO:0016462 -->
<g id="edge15" class="edge">
<title>GO:0017111&#45;&gt;GO:0016462</title>
<path fill="none" stroke="#000000" d="M464.2164,-520.3963C464.2164,-528.6638 464.2164,-537.6657 464.2164,-546.0008"/>
<polygon fill="#000000" stroke="#000000" points="460.7165,-546.0965 464.2164,-556.0966 467.7165,-546.0966 460.7165,-546.0965"/>
</g>
<!-- GO:0003674 -->
<g id="node16" class="node">
<title>GO:0003674</title>
<polygon fill="#ffffff" stroke="#000000" points="383.8495,-1086.2019 258.5833,-1086.2019 258.5833,-1044.9981 383.8495,-1044.9981 383.8495,-1086.2019"/>
<text text-anchor="middle" x="321.2164" y="-1069.8" font-family="Times,serif" font-size="14.00" fill="#000000">GO:0003674</text>
<text text-anchor="middle" x="321.2164" y="-1053" font-family="Times,serif" font-size="14.00" fill="#000000">molecular_function</text>
</g>
<!-- GO:0003824&#45;&gt;GO:0003674 -->
<g id="edge16" class="edge">
<title>GO:0003824&#45;&gt;GO:0003674</title>
<path fill="none" stroke="#000000" d="M321.2164,-1008.7954C321.2164,-1016.7109 321.2164,-1025.9109 321.2164,-1034.5722"/>
<polygon fill="#000000" stroke="#000000" points="317.7165,-1034.7472 321.2164,-1044.7472 324.7165,-1034.7473 317.7165,-1034.7472"/>
</g>
<!-- GO:0005215&#45;&gt;GO:0003674 -->
<g id="edge17" class="edge">
<title>GO:0005215&#45;&gt;GO:0003674</title>
<path fill="none" stroke="#000000" d="M82.7673,-597.4877C81.9304,-637.8768 80.2164,-730.0591 80.2164,-807.6 80.2164,-807.6 80.2164,-807.6 80.2164,-902 80.2164,-984.3486 177.7297,-1028.1296 248.7004,-1049.0885"/>
<polygon fill="#000000" stroke="#000000" points="247.9488,-1052.5138 258.5256,-1051.8961 249.8721,-1045.7832 247.9488,-1052.5138"/>
</g>
<!-- GO:0016818 -->
<g id="node17" class="node">
<title>GO:0016818</title>
<polygon fill="#ffffff" stroke="#000000" points="536.5281,-742.3002 391.9047,-742.3002 391.9047,-633.6998 536.5281,-633.6998 536.5281,-742.3002"/>
<text text-anchor="middle" x="464.2164" y="-725.8" font-family="Times,serif" font-size="14.00" fill="#000000">GO:0016818</text>
<text text-anchor="middle" x="464.2164" y="-709" font-family="Times,serif" font-size="14.00" fill="#000000">hydrolase activity,</text>
<text text-anchor="middle" x="464.2164" y="-692.2" font-family="Times,serif" font-size="14.00" fill="#000000">acting on acid</text>
<text text-anchor="middle" x="464.2164" y="-675.4" font-family="Times,serif" font-size="14.00" fill="#000000">anhydrides, in</text>
<text text-anchor="middle" x="464.2164" y="-658.6" font-family="Times,serif" font-size="14.00" fill="#000000">phosphorus&#45;containing</text>
<text text-anchor="middle" x="464.2164" y="-641.8" font-family="Times,serif" font-size="14.00" fill="#000000">anhydrides</text>
</g>
<!-- GO:0016462&#45;&gt;GO:0016818 -->
<g id="edge18" class="edge">
<title>GO:0016462&#45;&gt;GO:0016818</title>
<path fill="none" stroke="#000000" d="M464.2164,-597.4553C464.2164,-605.0198 464.2164,-614.0357 464.2164,-623.4015"/>
<polygon fill="#000000" stroke="#000000" points="460.7165,-623.6495 464.2164,-633.6496 467.7165,-623.6496 460.7165,-623.6495"/>
</g>
<!-- GO:0016818&#45;&gt;GO:0016817 -->
<g id="edge20" class="edge">
<title>GO:0016818&#45;&gt;GO:0016817</title>
<path fill="none" stroke="#000000" d="M464.2164,-742.5502C464.2164,-751.2138 464.2164,-760.0255 464.2164,-768.2504"/>
<polygon fill="#000000" stroke="#000000" points="460.7165,-768.2995 464.2164,-778.2995 467.7165,-768.2995 460.7165,-768.2995"/>
</g>
<!-- GO:0022892 -->
<g id="node18" class="node">
<title>GO:0022892</title>
<polygon fill="#ffffff" stroke="#000000" points="306.3449,-520.2014 184.0879,-520.2014 184.0879,-461.3986 306.3449,-461.3986 306.3449,-520.2014"/>
<text text-anchor="middle" x="245.2164" y="-503.4" font-family="Times,serif" font-size="14.00" fill="#000000">GO:0022892</text>
<text text-anchor="middle" x="245.2164" y="-486.6" font-family="Times,serif" font-size="14.00" fill="#000000">substrate&#45;specific</text>
<text text-anchor="middle" x="245.2164" y="-469.8" font-family="Times,serif" font-size="14.00" fill="#000000">transporter activity</text>
</g>
<!-- GO:0022892&#45;&gt;GO:0005215 -->
<g id="edge19" class="edge">
<title>GO:0022892&#45;&gt;GO:0005215</title>
<path fill="none" stroke="#000000" d="M189.9183,-520.1558C170.864,-530.271 149.6928,-541.51 131.2648,-551.2928"/>
<polygon fill="#000000" stroke="#000000" points="129.3743,-548.3337 122.1829,-556.1141 132.6566,-554.5165 129.3743,-548.3337"/>
</g>
<!-- GO:0016740 -->
<g id="node19" class="node">
<title>GO:0016740</title>
<polygon fill="#ffffff" stroke="#000000" points="230.3281,-922.6019 108.1047,-922.6019 108.1047,-881.3981 230.3281,-881.3981 230.3281,-922.6019"/>
<text text-anchor="middle" x="169.2164" y="-906.2" font-family="Times,serif" font-size="14.00" fill="#000000">GO:0016740</text>
<text text-anchor="middle" x="169.2164" y="-889.4" font-family="Times,serif" font-size="14.00" fill="#000000">transferase activity</text>
</g>
<!-- GO:0016740&#45;&gt;GO:0003824 -->
<g id="edge21" class="edge">
<title>GO:0016740&#45;&gt;GO:0003824</title>
<path fill="none" stroke="#000000" d="M206.0114,-922.8182C227.0156,-934.7022 253.5215,-949.699 275.8123,-962.3108"/>
<polygon fill="#000000" stroke="#000000" points="274.3332,-965.4953 284.7603,-967.3735 277.7803,-959.4029 274.3332,-965.4953"/>
</g>
<!-- GO:0000166 -->
<g id="node20" class="node">
<title>GO:0000166</title>
<polygon fill="#ffffff" stroke="#000000" points="876.3139,-708.6019 756.1189,-708.6019 756.1189,-667.3981 876.3139,-667.3981 876.3139,-708.6019"/>
<text text-anchor="middle" x="816.2164" y="-692.2" font-family="Times,serif" font-size="14.00" fill="#000000">GO:0000166</text>
<text text-anchor="middle" x="816.2164" y="-675.4" font-family="Times,serif" font-size="14.00" fill="#000000">nucleotide binding</text>
</g>
<!-- GO:0036094 -->
<g id="node21" class="node">
<title>GO:0036094</title>
<polygon fill="#ffffff" stroke="#000000" points="970.1448,-828.2019 822.288,-828.2019 822.288,-786.9981 970.1448,-786.9981 970.1448,-828.2019"/>
<text text-anchor="middle" x="896.2164" y="-811.8" font-family="Times,serif" font-size="14.00" fill="#000000">GO:0036094</text>
<text text-anchor="middle" x="896.2164" y="-795" font-family="Times,serif" font-size="14.00" fill="#000000">small molecule binding</text>
</g>
<!-- GO:0000166&#45;&gt;GO:0036094 -->
<g id="edge22" class="edge">
<title>GO:0000166&#45;&gt;GO:0036094</title>
<path fill="none" stroke="#000000" d="M830.1513,-708.8327C842.978,-728.0086 862.1383,-756.6532 876.5264,-778.1635"/>
<polygon fill="#000000" stroke="#000000" points="873.7037,-780.2387 882.1727,-786.6047 879.522,-776.3468 873.7037,-780.2387"/>
</g>
<!-- GO:1901265 -->
<g id="node22" class="node">
<title>GO:1901265</title>
<polygon fill="#ffffff" stroke="#000000" points="804.3505,-837.0014 668.0823,-837.0014 668.0823,-778.1986 804.3505,-778.1986 804.3505,-837.0014"/>
<text text-anchor="middle" x="736.2164" y="-820.2" font-family="Times,serif" font-size="14.00" fill="#000000">GO:1901265</text>
<text text-anchor="middle" x="736.2164" y="-803.4" font-family="Times,serif" font-size="14.00" fill="#000000">nucleoside phosphate</text>
<text text-anchor="middle" x="736.2164" y="-786.6" font-family="Times,serif" font-size="14.00" fill="#000000">binding</text>
</g>
<!-- GO:0000166&#45;&gt;GO:1901265 -->
<g id="edge23" class="edge">
<title>GO:0000166&#45;&gt;GO:1901265</title>
<path fill="none" stroke="#000000" d="M802.2815,-708.8327C791.0786,-725.581 775.0443,-749.5523 761.5778,-769.6847"/>
<polygon fill="#000000" stroke="#000000" points="758.636,-767.7876 755.9853,-778.0455 764.4543,-771.6795 758.636,-767.7876"/>
</g>
<!-- GO:0005488 -->
<g id="node23" class="node">
<title>GO:0005488</title>
<polygon fill="#ffffff" stroke="#000000" points="748.8203,-1008.6019 659.6125,-1008.6019 659.6125,-967.3981 748.8203,-967.3981 748.8203,-1008.6019"/>
<text text-anchor="middle" x="704.2164" y="-992.2" font-family="Times,serif" font-size="14.00" fill="#000000">GO:0005488</text>
<text text-anchor="middle" x="704.2164" y="-975.4" font-family="Times,serif" font-size="14.00" fill="#000000">binding</text>
</g>
<!-- GO:0036094&#45;&gt;GO:0005488 -->
<g id="edge24" class="edge">
<title>GO:0036094&#45;&gt;GO:0005488</title>
<path fill="none" stroke="#000000" d="M899.1347,-828.6498C901.6405,-855.638 901.6403,-902.3815 877.2164,-931.2 861.6827,-949.5288 803.6033,-966.1168 758.9791,-976.5694"/>
<polygon fill="#000000" stroke="#000000" points="758.0735,-973.1861 749.1094,-978.8338 759.6389,-980.0089 758.0735,-973.1861"/>
</g>
<!-- GO:0097159 -->
<g id="node24" class="node">
<title>GO:0097159</title>
<polygon fill="#ffffff" stroke="#000000" points="867.7278,-931.4014 710.705,-931.4014 710.705,-872.5986 867.7278,-872.5986 867.7278,-931.4014"/>
<text text-anchor="middle" x="789.2164" y="-914.6" font-family="Times,serif" font-size="14.00" fill="#000000">GO:0097159</text>
<text text-anchor="middle" x="789.2164" y="-897.8" font-family="Times,serif" font-size="14.00" fill="#000000">organic cyclic compound</text>
<text text-anchor="middle" x="789.2164" y="-881" font-family="Times,serif" font-size="14.00" fill="#000000">binding</text>
</g>
<!-- GO:1901265&#45;&gt;GO:0097159 -->
<g id="edge25" class="edge">
<title>GO:1901265&#45;&gt;GO:0097159</title>
<path fill="none" stroke="#000000" d="M752.6954,-836.9513C757.4814,-845.4758 762.7788,-854.9111 767.8201,-863.8904"/>
<polygon fill="#000000" stroke="#000000" points="764.8,-865.6606 772.7476,-872.6669 770.9038,-862.2337 764.8,-865.6606"/>
</g>
<!-- GO:1901363 -->
<g id="node25" class="node">
<title>GO:1901363</title>
<polygon fill="#ffffff" stroke="#000000" points="692.727,-931.4014 545.7058,-931.4014 545.7058,-872.5986 692.727,-872.5986 692.727,-931.4014"/>
<text text-anchor="middle" x="619.2164" y="-914.6" font-family="Times,serif" font-size="14.00" fill="#000000">GO:1901363</text>
<text text-anchor="middle" x="619.2164" y="-897.8" font-family="Times,serif" font-size="14.00" fill="#000000">heterocyclic compound</text>
<text text-anchor="middle" x="619.2164" y="-881" font-family="Times,serif" font-size="14.00" fill="#000000">binding</text>
</g>
<!-- GO:1901265&#45;&gt;GO:1901363 -->
<g id="edge26" class="edge">
<title>GO:1901265&#45;&gt;GO:1901363</title>
<path fill="none" stroke="#000000" d="M699.8382,-836.9513C688.3925,-846.1861 675.6218,-856.49 663.6803,-866.1249"/>
<polygon fill="#000000" stroke="#000000" points="661.157,-863.6635 655.5721,-872.6669 665.5526,-869.1114 661.157,-863.6635"/>
</g>
<!-- GO:0005488&#45;&gt;GO:0003674 -->
<g id="edge27" class="edge">
<title>GO:0005488&#45;&gt;GO:0003674</title>
<path fill="none" stroke="#000000" d="M659.5319,-997.0536C594.3794,-1010.2542 472.5643,-1034.9353 394.2617,-1050.8002"/>
<polygon fill="#000000" stroke="#000000" points="393.0928,-1047.4658 383.987,-1052.882 394.4829,-1054.3264 393.0928,-1047.4658"/>
</g>
<!-- GO:0097159&#45;&gt;GO:0005488 -->
<g id="edge28" class="edge">
<title>GO:0097159&#45;&gt;GO:0005488</title>
<path fill="none" stroke="#000000" d="M759.9642,-931.5963C750.885,-940.7824 740.9095,-950.8752 731.9377,-959.9526"/>
<polygon fill="#000000" stroke="#000000" points="729.2194,-957.7239 724.6791,-967.2966 734.1981,-962.6446 729.2194,-957.7239"/>
</g>
<!-- GO:1901363&#45;&gt;GO:0005488 -->
<g id="edge29" class="edge">
<title>GO:1901363&#45;&gt;GO:0005488</title>
<path fill="none" stroke="#000000" d="M648.4686,-931.5963C657.5478,-940.7824 667.5233,-950.8752 676.4951,-959.9526"/>
<polygon fill="#000000" stroke="#000000" points="674.2347,-962.6446 683.7537,-967.2966 679.2134,-957.7239 674.2347,-962.6446"/>
</g>
<!-- GO:0016491 -->
<g id="node26" class="node">
<title>GO:0016491</title>
<polygon fill="#ffffff" stroke="#000000" points="394.453,-922.6019 247.9798,-922.6019 247.9798,-881.3981 394.453,-881.3981 394.453,-922.6019"/>
<text text-anchor="middle" x="321.2164" y="-906.2" font-family="Times,serif" font-size="14.00" fill="#000000">GO:0016491</text>
<text text-anchor="middle" x="321.2164" y="-889.4" font-family="Times,serif" font-size="14.00" fill="#000000">oxidoreductase activity</text>
</g>
<!-- GO:0016491&#45;&gt;GO:0003824 -->
<g id="edge30" class="edge">
<title>GO:0016491&#45;&gt;GO:0003824</title>
<path fill="none" stroke="#000000" d="M321.2164,-922.8182C321.2164,-933.1705 321.2164,-945.8848 321.2164,-957.3271"/>
<polygon fill="#000000" stroke="#000000" points="317.7165,-957.3735 321.2164,-967.3735 324.7165,-957.3735 317.7165,-957.3735"/>
</g>
</g>
</svg>
