<?xml version="1.0" encoding="UTF-8" standalone="no"?>
<!DOCTYPE svg PUBLIC "-//W3C//DTD SVG 1.1//EN"
 "http://www.w3.org/Graphics/SVG/1.1/DTD/svg11.dtd">
<!-- Generated by graphviz version 2.40.1 (20161225.0304)
 -->
<!-- Title: G Pages: 1 -->
<svg width="944pt" height="650pt"
 viewBox="0.00 0.00 943.97 649.60" xmlns="http://www.w3.org/2000/svg" xmlns:xlink="http://www.w3.org/1999/xlink">
<g id="graph0" class="graph" transform="scale(1 1) rotate(0) translate(4 645.6)">
<title>G</title>
<polygon fill="#ffffff" stroke="transparent" points="-4,4 -4,-645.6 939.9685,-645.6 939.9685,4 -4,4"/>
<!-- GO:0022607 -->
<g id="node1" class="node">
<title>GO:0022607</title>
<polygon fill="#ff00ff" stroke="#000000" points="316.1702,-358.6014 192.7962,-358.6014 192.7962,-299.7986 316.1702,-299.7986 316.1702,-358.6014"/>
<text text-anchor="middle" x="254.4832" y="-341.8" font-family="Times,serif" font-size="14.00" fill="#000000">GO:0022607</text>
<text text-anchor="middle" x="254.4832" y="-325" font-family="Times,serif" font-size="14.00" fill="#000000">cellular component</text>
<text text-anchor="middle" x="254.4832" y="-308.2" font-family="Times,serif" font-size="14.00" fill="#000000">assembly</text>
</g>
<!-- GO:0016043 -->
<g id="node2" class="node">
<title>GO:0016043</title>
<polygon fill="#ffffff" stroke="#000000" points="307.1702,-453.0014 183.7962,-453.0014 183.7962,-394.1986 307.1702,-394.1986 307.1702,-453.0014"/>
<text text-anchor="middle" x="245.4832" y="-436.2" font-family="Times,serif" font-size="14.00" fill="#000000">GO:0016043</text>
<text text-anchor="middle" x="245.4832" y="-419.4" font-family="Times,serif" font-size="14.00" fill="#000000">cellular component</text>
<text text-anchor="middle" x="245.4832" y="-402.6" font-family="Times,serif" font-size="14.00" fill="#000000">organization</text>
</g>
<!-- GO:0022607&#45;&gt;GO:0016043 -->
<g id="edge1" class="edge">
<title>GO:0022607&#45;&gt;GO:0016043</title>
<path fill="none" stroke="#000000" d="M251.6849,-358.5513C250.9145,-366.6318 250.0661,-375.5308 249.2506,-384.0838"/>
<polygon fill="#000000" stroke="#000000" points="245.7448,-383.9798 248.2798,-394.2669 252.7132,-384.6442 245.7448,-383.9798"/>
</g>
<!-- GO:0009987 -->
<g id="node3" class="node">
<title>GO:0009987</title>
<polygon fill="#ff0000" stroke="#000000" points="435.4394,-547.0019 331.527,-547.0019 331.527,-505.7981 435.4394,-505.7981 435.4394,-547.0019"/>
<text text-anchor="middle" x="383.4832" y="-530.6" font-family="Times,serif" font-size="14.00" fill="#000000">GO:0009987</text>
<text text-anchor="middle" x="383.4832" y="-513.8" font-family="Times,serif" font-size="14.00" fill="#000000">cellular process</text>
</g>
<!-- GO:0016043&#45;&gt;GO:0009987 -->
<g id="edge2" class="edge">
<title>GO:0016043&#45;&gt;GO:0009987</title>
<path fill="none" stroke="#000000" d="M285.0285,-453.0584C304.7321,-467.7362 328.3808,-485.3527 347.5619,-499.6412"/>
<polygon fill="#000000" stroke="#000000" points="345.6461,-502.5785 355.7565,-505.7456 349.8279,-496.9648 345.6461,-502.5785"/>
</g>
<!-- GO:0071840 -->
<g id="node4" class="node">
<title>GO:0071840</title>
<polygon fill="#ffffff" stroke="#000000" points="310.1702,-564.1003 186.7962,-564.1003 186.7962,-488.6997 310.1702,-488.6997 310.1702,-564.1003"/>
<text text-anchor="middle" x="248.4832" y="-547.4" font-family="Times,serif" font-size="14.00" fill="#000000">GO:0071840</text>
<text text-anchor="middle" x="248.4832" y="-530.6" font-family="Times,serif" font-size="14.00" fill="#000000">cellular component</text>
<text text-anchor="middle" x="248.4832" y="-513.8" font-family="Times,serif" font-size="14.00" fill="#000000">organization or</text>
<text text-anchor="middle" x="248.4832" y="-497" font-family="Times,serif" font-size="14.00" fill="#000000">biogenesis</text>
</g>
<!-- GO:0016043&#45;&gt;GO:0071840 -->
<g id="edge3" class="edge">
<title>GO:0016043&#45;&gt;GO:0071840</title>
<path fill="none" stroke="#000000" d="M246.3429,-453.0584C246.5744,-460.9901 246.8309,-469.78 247.0836,-478.4392"/>
<polygon fill="#000000" stroke="#000000" points="243.5864,-478.5913 247.3767,-488.485 250.5834,-478.3871 243.5864,-478.5913"/>
</g>
<!-- GO:0008150 -->
<g id="node5" class="node">
<title>GO:0008150</title>
<polygon fill="#ffffff" stroke="#000000" points="571.9538,-641.4019 451.0126,-641.4019 451.0126,-600.1981 571.9538,-600.1981 571.9538,-641.4019"/>
<text text-anchor="middle" x="511.4832" y="-625" font-family="Times,serif" font-size="14.00" fill="#000000">GO:0008150</text>
<text text-anchor="middle" x="511.4832" y="-608.2" font-family="Times,serif" font-size="14.00" fill="#000000">biological_process</text>
</g>
<!-- GO:0009987&#45;&gt;GO:0008150 -->
<g id="edge4" class="edge">
<title>GO:0009987&#45;&gt;GO:0008150</title>
<path fill="none" stroke="#000000" d="M411.5733,-547.1165C430.3306,-560.9499 455.1724,-579.2708 475.3922,-594.1829"/>
<polygon fill="#000000" stroke="#000000" points="473.3331,-597.0132 483.4586,-600.1318 477.4879,-591.3796 473.3331,-597.0132"/>
</g>
<!-- GO:0071840&#45;&gt;GO:0008150 -->
<g id="edge5" class="edge">
<title>GO:0071840&#45;&gt;GO:0008150</title>
<path fill="none" stroke="#000000" d="M310.2897,-558.8131C314.3813,-560.6451 318.4701,-562.3923 322.4832,-564 360.858,-579.3731 405.0435,-592.8725 441.0378,-602.8494"/>
<polygon fill="#000000" stroke="#000000" points="440.3918,-606.3013 450.9613,-605.5686 442.2418,-599.5502 440.3918,-606.3013"/>
</g>
<!-- GO:0043933 -->
<g id="node6" class="node">
<title>GO:0043933</title>
<polygon fill="#ff00ff" stroke="#000000" points="174.6505,-358.6014 16.3159,-358.6014 16.3159,-299.7986 174.6505,-299.7986 174.6505,-358.6014"/>
<text text-anchor="middle" x="95.4832" y="-341.8" font-family="Times,serif" font-size="14.00" fill="#000000">GO:0043933</text>
<text text-anchor="middle" x="95.4832" y="-325" font-family="Times,serif" font-size="14.00" fill="#000000">macromolecular complex</text>
<text text-anchor="middle" x="95.4832" y="-308.2" font-family="Times,serif" font-size="14.00" fill="#000000">subunit organization</text>
</g>
<!-- GO:0043933&#45;&gt;GO:0016043 -->
<g id="edge6" class="edge">
<title>GO:0043933&#45;&gt;GO:0016043</title>
<path fill="none" stroke="#000000" d="M142.1219,-358.5513C157.3603,-368.1413 174.4306,-378.8842 190.2398,-388.8335"/>
<polygon fill="#000000" stroke="#000000" points="188.5456,-391.9027 198.8733,-394.2669 192.2741,-385.9783 188.5456,-391.9027"/>
</g>
<!-- GO:0006091 -->
<g id="node7" class="node">
<title>GO:0006091</title>
<polygon fill="#ff00ff" stroke="#000000" points="498.5855,-358.6014 352.3809,-358.6014 352.3809,-299.7986 498.5855,-299.7986 498.5855,-358.6014"/>
<text text-anchor="middle" x="425.4832" y="-341.8" font-family="Times,serif" font-size="14.00" fill="#000000">GO:0006091</text>
<text text-anchor="middle" x="425.4832" y="-325" font-family="Times,serif" font-size="14.00" fill="#000000">generation of precursor</text>
<text text-anchor="middle" x="425.4832" y="-308.2" font-family="Times,serif" font-size="14.00" fill="#000000">metabolites and energy</text>
</g>
<!-- GO:0044237 -->
<g id="node8" class="node">
<title>GO:0044237</title>
<polygon fill="#ffa500" stroke="#000000" points="441.666,-453.0014 325.3004,-453.0014 325.3004,-394.1986 441.666,-394.1986 441.666,-453.0014"/>
<text text-anchor="middle" x="383.4832" y="-436.2" font-family="Times,serif" font-size="14.00" fill="#000000">GO:0044237</text>
<text text-anchor="middle" x="383.4832" y="-419.4" font-family="Times,serif" font-size="14.00" fill="#000000">cellular metabolic</text>
<text text-anchor="middle" x="383.4832" y="-402.6" font-family="Times,serif" font-size="14.00" fill="#000000">process</text>
</g>
<!-- GO:0006091&#45;&gt;GO:0044237 -->
<g id="edge7" class="edge">
<title>GO:0006091&#45;&gt;GO:0044237</title>
<path fill="none" stroke="#000000" d="M412.4244,-358.5513C408.7107,-366.8982 404.6085,-376.1184 400.6887,-384.9286"/>
<polygon fill="#000000" stroke="#000000" points="397.4012,-383.7076 396.534,-394.2669 403.7968,-386.5531 397.4012,-383.7076"/>
</g>
<!-- GO:0044237&#45;&gt;GO:0009987 -->
<g id="edge8" class="edge">
<title>GO:0044237&#45;&gt;GO:0009987</title>
<path fill="none" stroke="#000000" d="M383.4832,-453.0584C383.4832,-466.3539 383.4832,-482.0608 383.4832,-495.5212"/>
<polygon fill="#000000" stroke="#000000" points="379.9833,-495.7456 383.4832,-505.7456 386.9833,-495.7457 379.9833,-495.7456"/>
</g>
<!-- GO:0008152 -->
<g id="node9" class="node">
<title>GO:0008152</title>
<polygon fill="#ffa500" stroke="#000000" points="569.6688,-547.0019 453.2976,-547.0019 453.2976,-505.7981 569.6688,-505.7981 569.6688,-547.0019"/>
<text text-anchor="middle" x="511.4832" y="-530.6" font-family="Times,serif" font-size="14.00" fill="#000000">GO:0008152</text>
<text text-anchor="middle" x="511.4832" y="-513.8" font-family="Times,serif" font-size="14.00" fill="#000000">metabolic process</text>
</g>
<!-- GO:0044237&#45;&gt;GO:0008152 -->
<g id="edge9" class="edge">
<title>GO:0044237&#45;&gt;GO:0008152</title>
<path fill="none" stroke="#000000" d="M420.1629,-453.0584C438.3568,-467.6703 460.177,-485.1947 477.9253,-499.4488"/>
<polygon fill="#000000" stroke="#000000" points="475.7773,-502.2127 485.7657,-505.7456 480.1605,-496.7549 475.7773,-502.2127"/>
</g>
<!-- GO:0008152&#45;&gt;GO:0008150 -->
<g id="edge10" class="edge">
<title>GO:0008152&#45;&gt;GO:0008150</title>
<path fill="none" stroke="#000000" d="M511.4832,-547.3504C511.4832,-559.8165 511.4832,-575.8645 511.4832,-589.7786"/>
<polygon fill="#000000" stroke="#000000" points="507.9833,-589.9081 511.4832,-599.9081 514.9833,-589.9082 507.9833,-589.9081"/>
</g>
<!-- GO:0044710 -->
<g id="node10" class="node">
<title>GO:0044710</title>
<polygon fill="#00ff00" stroke="#000000" points="793.8914,-453.0014 629.075,-453.0014 629.075,-394.1986 793.8914,-394.1986 793.8914,-453.0014"/>
<text text-anchor="middle" x="711.4832" y="-436.2" font-family="Times,serif" font-size="14.00" fill="#000000">GO:0044710</text>
<text text-anchor="middle" x="711.4832" y="-419.4" font-family="Times,serif" font-size="14.00" fill="#000000">single&#45;organism metabolic</text>
<text text-anchor="middle" x="711.4832" y="-402.6" font-family="Times,serif" font-size="14.00" fill="#000000">process</text>
</g>
<!-- GO:0044710&#45;&gt;GO:0008152 -->
<g id="edge11" class="edge">
<title>GO:0044710&#45;&gt;GO:0008152</title>
<path fill="none" stroke="#000000" d="M649.8771,-452.918C627.2831,-463.9017 601.5914,-476.6638 578.4832,-488.8 571.3425,-492.5502 563.837,-496.6266 556.5375,-500.6659"/>
<polygon fill="#000000" stroke="#000000" points="554.4746,-497.8087 547.4445,-505.7351 557.8832,-503.9228 554.4746,-497.8087"/>
</g>
<!-- GO:0044699 -->
<g id="node11" class="node">
<title>GO:0044699</title>
<polygon fill="#ff0000" stroke="#000000" points="739.1645,-547.0019 587.8019,-547.0019 587.8019,-505.7981 739.1645,-505.7981 739.1645,-547.0019"/>
<text text-anchor="middle" x="663.4832" y="-530.6" font-family="Times,serif" font-size="14.00" fill="#000000">GO:0044699</text>
<text text-anchor="middle" x="663.4832" y="-513.8" font-family="Times,serif" font-size="14.00" fill="#000000">single&#45;organism process</text>
</g>
<!-- GO:0044710&#45;&gt;GO:0044699 -->
<g id="edge12" class="edge">
<title>GO:0044710&#45;&gt;GO:0044699</title>
<path fill="none" stroke="#000000" d="M697.7283,-453.0584C691.3973,-466.6172 683.8954,-482.6838 677.5292,-496.3182"/>
<polygon fill="#000000" stroke="#000000" points="674.1868,-495.2039 673.1273,-505.7456 680.5294,-498.1655 674.1868,-495.2039"/>
</g>
<!-- GO:0044699&#45;&gt;GO:0008150 -->
<g id="edge13" class="edge">
<title>GO:0044699&#45;&gt;GO:0008150</title>
<path fill="none" stroke="#000000" d="M630.1262,-547.1165C607.5549,-561.1344 577.5644,-579.7601 553.3837,-594.7776"/>
<polygon fill="#000000" stroke="#000000" points="551.4109,-591.8827 544.7624,-600.1318 555.104,-597.8292 551.4109,-591.8827"/>
</g>
<!-- GO:0071822 -->
<g id="node12" class="node">
<title>GO:0071822</title>
<polygon fill="#ff00ff" stroke="#000000" points="157.5758,-264.2014 5.3906,-264.2014 5.3906,-205.3986 157.5758,-205.3986 157.5758,-264.2014"/>
<text text-anchor="middle" x="81.4832" y="-247.4" font-family="Times,serif" font-size="14.00" fill="#000000">GO:0071822</text>
<text text-anchor="middle" x="81.4832" y="-230.6" font-family="Times,serif" font-size="14.00" fill="#000000">protein complex subunit</text>
<text text-anchor="middle" x="81.4832" y="-213.8" font-family="Times,serif" font-size="14.00" fill="#000000">organization</text>
</g>
<!-- GO:0071822&#45;&gt;GO:0043933 -->
<g id="edge14" class="edge">
<title>GO:0071822&#45;&gt;GO:0043933</title>
<path fill="none" stroke="#000000" d="M85.8361,-264.1513C87.0477,-272.3206 88.3833,-281.3264 89.6646,-289.9657"/>
<polygon fill="#000000" stroke="#000000" points="86.2037,-290.4885 91.1329,-299.8669 93.128,-289.4616 86.2037,-290.4885"/>
</g>
<!-- GO:0065003 -->
<g id="node13" class="node">
<title>GO:0065003</title>
<polygon fill="#ff00ff" stroke="#000000" points="333.6505,-264.2014 175.3159,-264.2014 175.3159,-205.3986 333.6505,-205.3986 333.6505,-264.2014"/>
<text text-anchor="middle" x="254.4832" y="-247.4" font-family="Times,serif" font-size="14.00" fill="#000000">GO:0065003</text>
<text text-anchor="middle" x="254.4832" y="-230.6" font-family="Times,serif" font-size="14.00" fill="#000000">macromolecular complex</text>
<text text-anchor="middle" x="254.4832" y="-213.8" font-family="Times,serif" font-size="14.00" fill="#000000">assembly</text>
</g>
<!-- GO:0065003&#45;&gt;GO:0022607 -->
<g id="edge16" class="edge">
<title>GO:0065003&#45;&gt;GO:0022607</title>
<path fill="none" stroke="#000000" d="M254.4832,-264.1513C254.4832,-272.2318 254.4832,-281.1308 254.4832,-289.6838"/>
<polygon fill="#000000" stroke="#000000" points="250.9833,-289.8668 254.4832,-299.8669 257.9833,-289.8669 250.9833,-289.8668"/>
</g>
<!-- GO:0065003&#45;&gt;GO:0043933 -->
<g id="edge15" class="edge">
<title>GO:0065003&#45;&gt;GO:0043933</title>
<path fill="none" stroke="#000000" d="M205.0462,-264.1513C188.7439,-273.8301 170.4637,-284.6833 153.576,-294.7097"/>
<polygon fill="#000000" stroke="#000000" points="151.7015,-291.7521 144.8896,-299.8669 155.2752,-297.7712 151.7015,-291.7521"/>
</g>
<!-- GO:0022904 -->
<g id="node14" class="node">
<title>GO:0022904</title>
<polygon fill="#ff00ff" stroke="#000000" points="598.2058,-169.8014 472.7606,-169.8014 472.7606,-110.9986 598.2058,-110.9986 598.2058,-169.8014"/>
<text text-anchor="middle" x="535.4832" y="-153" font-family="Times,serif" font-size="14.00" fill="#000000">GO:0022904</text>
<text text-anchor="middle" x="535.4832" y="-136.2" font-family="Times,serif" font-size="14.00" fill="#000000">respiratory electron</text>
<text text-anchor="middle" x="535.4832" y="-119.4" font-family="Times,serif" font-size="14.00" fill="#000000">transport chain</text>
</g>
<!-- GO:0022900 -->
<g id="node15" class="node">
<title>GO:0022900</title>
<polygon fill="#ffffff" stroke="#000000" points="609.6503,-255.4019 461.3161,-255.4019 461.3161,-214.1981 609.6503,-214.1981 609.6503,-255.4019"/>
<text text-anchor="middle" x="535.4832" y="-239" font-family="Times,serif" font-size="14.00" fill="#000000">GO:0022900</text>
<text text-anchor="middle" x="535.4832" y="-222.2" font-family="Times,serif" font-size="14.00" fill="#000000">electron transport chain</text>
</g>
<!-- GO:0022904&#45;&gt;GO:0022900 -->
<g id="edge17" class="edge">
<title>GO:0022904&#45;&gt;GO:0022900</title>
<path fill="none" stroke="#000000" d="M535.4832,-169.7513C535.4832,-180.6614 535.4832,-193.0637 535.4832,-204.092"/>
<polygon fill="#000000" stroke="#000000" points="531.9833,-204.1509 535.4832,-214.151 538.9833,-204.151 531.9833,-204.1509"/>
</g>
<!-- GO:0022900&#45;&gt;GO:0006091 -->
<g id="edge18" class="edge">
<title>GO:0022900&#45;&gt;GO:0006091</title>
<path fill="none" stroke="#000000" d="M511.3432,-255.5165C498.418,-266.6087 482.1308,-280.586 467.2252,-293.3778"/>
<polygon fill="#000000" stroke="#000000" points="464.8909,-290.7689 459.5815,-299.9374 469.4496,-296.081 464.8909,-290.7689"/>
</g>
<!-- GO:0044763 -->
<g id="node16" class="node">
<title>GO:0044763</title>
<polygon fill="#ff0000" stroke="#000000" points="611.1617,-453.0014 459.8047,-453.0014 459.8047,-394.1986 611.1617,-394.1986 611.1617,-453.0014"/>
<text text-anchor="middle" x="535.4832" y="-436.2" font-family="Times,serif" font-size="14.00" fill="#000000">GO:0044763</text>
<text text-anchor="middle" x="535.4832" y="-419.4" font-family="Times,serif" font-size="14.00" fill="#000000">single&#45;organism cellular</text>
<text text-anchor="middle" x="535.4832" y="-402.6" font-family="Times,serif" font-size="14.00" fill="#000000">process</text>
</g>
<!-- GO:0022900&#45;&gt;GO:0044763 -->
<g id="edge19" class="edge">
<title>GO:0022900&#45;&gt;GO:0044763</title>
<path fill="none" stroke="#000000" d="M535.4832,-255.7263C535.4832,-286.5951 535.4832,-344.8952 535.4832,-384.0013"/>
<polygon fill="#000000" stroke="#000000" points="531.9833,-384.2376 535.4832,-394.2376 538.9833,-384.2377 531.9833,-384.2376"/>
</g>
<!-- GO:0055114 -->
<g id="node17" class="node">
<title>GO:0055114</title>
<polygon fill="#ff00ff" stroke="#000000" points="732.9019,-358.6014 606.0645,-358.6014 606.0645,-299.7986 732.9019,-299.7986 732.9019,-358.6014"/>
<text text-anchor="middle" x="669.4832" y="-341.8" font-family="Times,serif" font-size="14.00" fill="#000000">GO:0055114</text>
<text text-anchor="middle" x="669.4832" y="-325" font-family="Times,serif" font-size="14.00" fill="#000000">oxidation&#45;reduction</text>
<text text-anchor="middle" x="669.4832" y="-308.2" font-family="Times,serif" font-size="14.00" fill="#000000">process</text>
</g>
<!-- GO:0022900&#45;&gt;GO:0055114 -->
<g id="edge20" class="edge">
<title>GO:0022900&#45;&gt;GO:0055114</title>
<path fill="none" stroke="#000000" d="M564.8901,-255.5165C580.9243,-266.8122 601.2056,-281.0999 619.6317,-294.0807"/>
<polygon fill="#000000" stroke="#000000" points="617.7544,-297.0395 627.9452,-299.9374 621.7858,-291.3169 617.7544,-297.0395"/>
</g>
<!-- GO:0044763&#45;&gt;GO:0009987 -->
<g id="edge21" class="edge">
<title>GO:0044763&#45;&gt;GO:0009987</title>
<path fill="none" stroke="#000000" d="M491.9261,-453.0584C470.0289,-467.8678 443.7082,-485.6689 422.4815,-500.0249"/>
<polygon fill="#000000" stroke="#000000" points="420.3454,-497.2442 414.0227,-505.7456 424.267,-503.0426 420.3454,-497.2442"/>
</g>
<!-- GO:0044763&#45;&gt;GO:0044699 -->
<g id="edge22" class="edge">
<title>GO:0044763&#45;&gt;GO:0044699</title>
<path fill="none" stroke="#000000" d="M572.1629,-453.0584C590.3568,-467.6703 612.177,-485.1947 629.9253,-499.4488"/>
<polygon fill="#000000" stroke="#000000" points="627.7773,-502.2127 637.7657,-505.7456 632.1605,-496.7549 627.7773,-502.2127"/>
</g>
<!-- GO:0055114&#45;&gt;GO:0044710 -->
<g id="edge23" class="edge">
<title>GO:0055114&#45;&gt;GO:0044710</title>
<path fill="none" stroke="#000000" d="M682.542,-358.5513C686.2557,-366.8982 690.3579,-376.1184 694.2777,-384.9286"/>
<polygon fill="#000000" stroke="#000000" points="691.1696,-386.5531 698.4324,-394.2669 697.5652,-383.7076 691.1696,-386.5531"/>
</g>
<!-- GO:0006950 -->
<g id="node18" class="node">
<title>GO:0006950</title>
<polygon fill="#ff00ff" stroke="#000000" points="925.4524,-444.2019 811.514,-444.2019 811.514,-402.9981 925.4524,-402.9981 925.4524,-444.2019"/>
<text text-anchor="middle" x="868.4832" y="-427.8" font-family="Times,serif" font-size="14.00" fill="#000000">GO:0006950</text>
<text text-anchor="middle" x="868.4832" y="-411" font-family="Times,serif" font-size="14.00" fill="#000000">response to stress</text>
</g>
<!-- GO:0050896 -->
<g id="node19" class="node">
<title>GO:0050896</title>
<polygon fill="#00ffff" stroke="#000000" points="910.8048,-547.0019 780.1616,-547.0019 780.1616,-505.7981 910.8048,-505.7981 910.8048,-547.0019"/>
<text text-anchor="middle" x="845.4832" y="-530.6" font-family="Times,serif" font-size="14.00" fill="#000000">GO:0050896</text>
<text text-anchor="middle" x="845.4832" y="-513.8" font-family="Times,serif" font-size="14.00" fill="#000000">response to stimulus</text>
</g>
<!-- GO:0006950&#45;&gt;GO:0050896 -->
<g id="edge24" class="edge">
<title>GO:0006950&#45;&gt;GO:0050896</title>
<path fill="none" stroke="#000000" d="M863.8288,-444.4031C860.5243,-459.173 856.034,-479.2424 852.323,-495.829"/>
<polygon fill="#000000" stroke="#000000" points="848.8986,-495.1049 850.1307,-505.6278 855.7297,-496.6333 848.8986,-495.1049"/>
</g>
<!-- GO:0050896&#45;&gt;GO:0008150 -->
<g id="edge25" class="edge">
<title>GO:0050896&#45;&gt;GO:0008150</title>
<path fill="none" stroke="#000000" d="M796.0927,-547.0222C780.9645,-552.9371 764.1726,-559.1035 748.4832,-564 693.2416,-581.2403 629.3784,-596.2718 581.8741,-606.5335"/>
<polygon fill="#000000" stroke="#000000" points="581.0395,-603.1328 571.9945,-608.6499 582.5058,-609.9775 581.0395,-603.1328"/>
</g>
<!-- GO:0043623 -->
<g id="node20" class="node">
<title>GO:0043623</title>
<polygon fill="#ff00ff" stroke="#000000" points="245.8263,-67.0014 93.1401,-67.0014 93.1401,-8.1986 245.8263,-8.1986 245.8263,-67.0014"/>
<text text-anchor="middle" x="169.4832" y="-50.2" font-family="Times,serif" font-size="14.00" fill="#000000">GO:0043623</text>
<text text-anchor="middle" x="169.4832" y="-33.4" font-family="Times,serif" font-size="14.00" fill="#000000">cellular protein complex</text>
<text text-anchor="middle" x="169.4832" y="-16.6" font-family="Times,serif" font-size="14.00" fill="#000000">assembly</text>
</g>
<!-- GO:0006461 -->
<g id="node21" class="node">
<title>GO:0006461</title>
<polygon fill="#ffffff" stroke="#000000" points="162.9496,-161.0019 .0168,-161.0019 .0168,-119.7981 162.9496,-119.7981 162.9496,-161.0019"/>
<text text-anchor="middle" x="81.4832" y="-144.6" font-family="Times,serif" font-size="14.00" fill="#000000">GO:0006461</text>
<text text-anchor="middle" x="81.4832" y="-127.8" font-family="Times,serif" font-size="14.00" fill="#000000">protein complex assembly</text>
</g>
<!-- GO:0043623&#45;&gt;GO:0006461 -->
<g id="edge26" class="edge">
<title>GO:0043623&#45;&gt;GO:0006461</title>
<path fill="none" stroke="#000000" d="M144.2659,-67.0584C132.2084,-81.1438 117.8341,-97.9355 105.884,-111.8954"/>
<polygon fill="#000000" stroke="#000000" points="103.0082,-109.8728 99.164,-119.7456 108.3259,-114.425 103.0082,-109.8728"/>
</g>
<!-- GO:0034622 -->
<g id="node22" class="node">
<title>GO:0034622</title>
<polygon fill="#ffffff" stroke="#000000" points="333.9166,-169.8014 181.0498,-169.8014 181.0498,-110.9986 333.9166,-110.9986 333.9166,-169.8014"/>
<text text-anchor="middle" x="257.4832" y="-153" font-family="Times,serif" font-size="14.00" fill="#000000">GO:0034622</text>
<text text-anchor="middle" x="257.4832" y="-136.2" font-family="Times,serif" font-size="14.00" fill="#000000">cellular macromolecular</text>
<text text-anchor="middle" x="257.4832" y="-119.4" font-family="Times,serif" font-size="14.00" fill="#000000">complex assembly</text>
</g>
<!-- GO:0043623&#45;&gt;GO:0034622 -->
<g id="edge27" class="edge">
<title>GO:0043623&#45;&gt;GO:0034622</title>
<path fill="none" stroke="#000000" d="M194.7005,-67.0584C204.3662,-78.3497 215.5207,-91.3801 225.7217,-103.2967"/>
<polygon fill="#000000" stroke="#000000" points="223.1003,-105.6167 232.2622,-110.9373 228.418,-101.0645 223.1003,-105.6167"/>
</g>
<!-- GO:0006461&#45;&gt;GO:0071822 -->
<g id="edge29" class="edge">
<title>GO:0006461&#45;&gt;GO:0071822</title>
<path fill="none" stroke="#000000" d="M81.4832,-161.3504C81.4832,-171.3492 81.4832,-183.6525 81.4832,-195.3106"/>
<polygon fill="#000000" stroke="#000000" points="77.9833,-195.3155 81.4832,-205.3155 84.9833,-195.3156 77.9833,-195.3155"/>
</g>
<!-- GO:0006461&#45;&gt;GO:0065003 -->
<g id="edge28" class="edge">
<title>GO:0006461&#45;&gt;GO:0065003</title>
<path fill="none" stroke="#000000" d="M119.4488,-161.1165C140.7091,-172.7175 167.7531,-187.4744 192.046,-200.7302"/>
<polygon fill="#000000" stroke="#000000" points="190.4011,-203.8198 200.8558,-205.5374 193.7541,-197.6751 190.4011,-203.8198"/>
</g>
<!-- GO:0034622&#45;&gt;GO:0065003 -->
<g id="edge30" class="edge">
<title>GO:0034622&#45;&gt;GO:0065003</title>
<path fill="none" stroke="#000000" d="M256.5504,-169.7513C256.2936,-177.8318 256.0108,-186.7308 255.739,-195.2838"/>
<polygon fill="#000000" stroke="#000000" points="252.2349,-195.3607 255.4154,-205.4669 259.2314,-195.5831 252.2349,-195.3607"/>
</g>
<!-- GO:0006979 -->
<g id="node23" class="node">
<title>GO:0006979</title>
<polygon fill="#ff00ff" stroke="#000000" points="935.9538,-358.6014 801.0126,-358.6014 801.0126,-299.7986 935.9538,-299.7986 935.9538,-358.6014"/>
<text text-anchor="middle" x="868.4832" y="-341.8" font-family="Times,serif" font-size="14.00" fill="#000000">GO:0006979</text>
<text text-anchor="middle" x="868.4832" y="-325" font-family="Times,serif" font-size="14.00" fill="#000000">response to oxidative</text>
<text text-anchor="middle" x="868.4832" y="-308.2" font-family="Times,serif" font-size="14.00" fill="#000000">stress</text>
</g>
<!-- GO:0006979&#45;&gt;GO:0006950 -->
<g id="edge31" class="edge">
<title>GO:0006979&#45;&gt;GO:0006950</title>
<path fill="none" stroke="#000000" d="M868.4832,-358.5513C868.4832,-369.4614 868.4832,-381.8637 868.4832,-392.892"/>
<polygon fill="#000000" stroke="#000000" points="864.9833,-392.9509 868.4832,-402.951 871.9833,-392.951 864.9833,-392.9509"/>
</g>
<!-- GO:0006120 -->
<g id="node24" class="node">
<title>GO:0006120</title>
<polygon fill="#ff00ff" stroke="#000000" points="607.1117,-75.3003 463.8547,-75.3003 463.8547,.1003 607.1117,.1003 607.1117,-75.3003"/>
<text text-anchor="middle" x="535.4832" y="-58.6" font-family="Times,serif" font-size="14.00" fill="#000000">GO:0006120</text>
<text text-anchor="middle" x="535.4832" y="-41.8" font-family="Times,serif" font-size="14.00" fill="#000000">mitochondrial electron</text>
<text text-anchor="middle" x="535.4832" y="-25" font-family="Times,serif" font-size="14.00" fill="#000000">transport, NADH to</text>
<text text-anchor="middle" x="535.4832" y="-8.2" font-family="Times,serif" font-size="14.00" fill="#000000">ubiquinone</text>
</g>
<!-- GO:0006120&#45;&gt;GO:0022904 -->
<g id="edge32" class="edge">
<title>GO:0006120&#45;&gt;GO:0022904</title>
<path fill="none" stroke="#000000" d="M535.4832,-75.2952C535.4832,-83.6874 535.4832,-92.6054 535.4832,-101.0618"/>
<polygon fill="#000000" stroke="#000000" points="531.9833,-101.0813 535.4832,-111.0814 538.9833,-101.0814 531.9833,-101.0813"/>
</g>
</g>
</svg>
