<?xml version="1.0" encoding="UTF-8" standalone="no"?>
<!DOCTYPE svg PUBLIC "-//W3C//DTD SVG 1.1//EN"
 "http://www.w3.org/Graphics/SVG/1.1/DTD/svg11.dtd">
<!-- Generated by graphviz version 2.40.1 (20161225.0304)
 -->
<!-- Title: G Pages: 1 -->
<svg width="353pt" height="299pt"
 viewBox="0.00 0.00 353.25 299.20" xmlns="http://www.w3.org/2000/svg" xmlns:xlink="http://www.w3.org/1999/xlink">
<g id="graph0" class="graph" transform="scale(1 1) rotate(0) translate(4 295.2)">
<title>G</title>
<polygon fill="#ffffff" stroke="transparent" points="-4,4 -4,-295.2 349.2455,-295.2 349.2455,4 -4,4"/>
<!-- GO:0043168 -->
<g id="node1" class="node">
<title>GO:0043168</title>
<polygon fill="#ffffff" stroke="#000000" points="93.5804,-49.8019 -.194,-49.8019 -.194,-8.5981 93.5804,-8.5981 93.5804,-49.8019"/>
<text text-anchor="middle" x="46.6932" y="-33.4" font-family="Times,serif" font-size="14.00" fill="#000000">GO:0043168</text>
<text text-anchor="middle" x="46.6932" y="-16.6" font-family="Times,serif" font-size="14.00" fill="#000000">anion binding</text>
</g>
<!-- GO:0043167 -->
<g id="node2" class="node">
<title>GO:0043167</title>
<polygon fill="#ffffff" stroke="#000000" points="91.2971,-135.8019 2.0893,-135.8019 2.0893,-94.5981 91.2971,-94.5981 91.2971,-135.8019"/>
<text text-anchor="middle" x="46.6932" y="-119.4" font-family="Times,serif" font-size="14.00" fill="#000000">GO:0043167</text>
<text text-anchor="middle" x="46.6932" y="-102.6" font-family="Times,serif" font-size="14.00" fill="#000000">ion binding</text>
</g>
<!-- GO:0043168&#45;&gt;GO:0043167 -->
<g id="edge1" class="edge">
<title>GO:0043168&#45;&gt;GO:0043167</title>
<path fill="none" stroke="#000000" d="M46.6932,-50.0182C46.6932,-60.3705 46.6932,-73.0848 46.6932,-84.5271"/>
<polygon fill="#000000" stroke="#000000" points="43.1933,-84.5735 46.6932,-94.5735 50.1933,-84.5735 43.1933,-84.5735"/>
</g>
<!-- GO:0005488 -->
<g id="node3" class="node">
<title>GO:0005488</title>
<polygon fill="#ffffff" stroke="#000000" points="208.2971,-213.4019 119.0893,-213.4019 119.0893,-172.1981 208.2971,-172.1981 208.2971,-213.4019"/>
<text text-anchor="middle" x="163.6932" y="-197" font-family="Times,serif" font-size="14.00" fill="#000000">GO:0005488</text>
<text text-anchor="middle" x="163.6932" y="-180.2" font-family="Times,serif" font-size="14.00" fill="#000000">binding</text>
</g>
<!-- GO:0043167&#45;&gt;GO:0005488 -->
<g id="edge2" class="edge">
<title>GO:0043167&#45;&gt;GO:0005488</title>
<path fill="none" stroke="#000000" d="M78.0471,-135.9954C92.0798,-145.3026 108.7904,-156.3858 123.7095,-166.2809"/>
<polygon fill="#000000" stroke="#000000" points="121.9846,-169.3367 132.2528,-171.9472 125.8537,-163.5031 121.9846,-169.3367"/>
</g>
<!-- GO:0003674 -->
<g id="node4" class="node">
<title>GO:0003674</title>
<polygon fill="#ffffff" stroke="#000000" points="284.3263,-291.0019 159.0601,-291.0019 159.0601,-249.7981 284.3263,-249.7981 284.3263,-291.0019"/>
<text text-anchor="middle" x="221.6932" y="-274.6" font-family="Times,serif" font-size="14.00" fill="#000000">GO:0003674</text>
<text text-anchor="middle" x="221.6932" y="-257.8" font-family="Times,serif" font-size="14.00" fill="#000000">molecular_function</text>
</g>
<!-- GO:0005488&#45;&gt;GO:0003674 -->
<g id="edge3" class="edge">
<title>GO:0005488&#45;&gt;GO:0003674</title>
<path fill="none" stroke="#000000" d="M179.2361,-213.5954C185.6074,-222.1197 193.0923,-232.1339 199.9884,-241.3605"/>
<polygon fill="#000000" stroke="#000000" points="197.3171,-243.6327 206.1074,-249.5472 202.924,-239.4419 197.3171,-243.6327"/>
</g>
<!-- GO:0048037 -->
<g id="node5" class="node">
<title>GO:0048037</title>
<polygon fill="#ffffff" stroke="#000000" points="217.8301,-135.8019 109.5563,-135.8019 109.5563,-94.5981 217.8301,-94.5981 217.8301,-135.8019"/>
<text text-anchor="middle" x="163.6932" y="-119.4" font-family="Times,serif" font-size="14.00" fill="#000000">GO:0048037</text>
<text text-anchor="middle" x="163.6932" y="-102.6" font-family="Times,serif" font-size="14.00" fill="#000000">cofactor binding</text>
</g>
<!-- GO:0048037&#45;&gt;GO:0005488 -->
<g id="edge4" class="edge">
<title>GO:0048037&#45;&gt;GO:0005488</title>
<path fill="none" stroke="#000000" d="M163.6932,-135.9954C163.6932,-143.9109 163.6932,-153.1109 163.6932,-161.7722"/>
<polygon fill="#000000" stroke="#000000" points="160.1933,-161.9472 163.6932,-171.9472 167.1933,-161.9473 160.1933,-161.9472"/>
</g>
<!-- GO:0016830 -->
<g id="node6" class="node">
<title>GO:0016830</title>
<polygon fill="#ffffff" stroke="#000000" points="345.2978,-58.6014 216.0886,-58.6014 216.0886,.2014 345.2978,.2014 345.2978,-58.6014"/>
<text text-anchor="middle" x="280.6932" y="-41.8" font-family="Times,serif" font-size="14.00" fill="#000000">GO:0016830</text>
<text text-anchor="middle" x="280.6932" y="-25" font-family="Times,serif" font-size="14.00" fill="#000000">carbon&#45;carbon lyase</text>
<text text-anchor="middle" x="280.6932" y="-8.2" font-family="Times,serif" font-size="14.00" fill="#000000">activity</text>
</g>
<!-- GO:0016829 -->
<g id="node7" class="node">
<title>GO:0016829</title>
<polygon fill="#ffffff" stroke="#000000" points="325.9496,-135.8019 235.4368,-135.8019 235.4368,-94.5981 325.9496,-94.5981 325.9496,-135.8019"/>
<text text-anchor="middle" x="280.6932" y="-119.4" font-family="Times,serif" font-size="14.00" fill="#000000">GO:0016829</text>
<text text-anchor="middle" x="280.6932" y="-102.6" font-family="Times,serif" font-size="14.00" fill="#000000">lyase activity</text>
</g>
<!-- GO:0016830&#45;&gt;GO:0016829 -->
<g id="edge5" class="edge">
<title>GO:0016830&#45;&gt;GO:0016829</title>
<path fill="none" stroke="#000000" d="M280.6932,-58.7963C280.6932,-67.0638 280.6932,-76.0657 280.6932,-84.4008"/>
<polygon fill="#000000" stroke="#000000" points="277.1933,-84.4965 280.6932,-94.4966 284.1933,-84.4966 277.1933,-84.4965"/>
</g>
<!-- GO:0003824 -->
<g id="node8" class="node">
<title>GO:0003824</title>
<polygon fill="#ffffff" stroke="#000000" points="335.1056,-213.4019 226.2808,-213.4019 226.2808,-172.1981 335.1056,-172.1981 335.1056,-213.4019"/>
<text text-anchor="middle" x="280.6932" y="-197" font-family="Times,serif" font-size="14.00" fill="#000000">GO:0003824</text>
<text text-anchor="middle" x="280.6932" y="-180.2" font-family="Times,serif" font-size="14.00" fill="#000000">catalytic activity</text>
</g>
<!-- GO:0016829&#45;&gt;GO:0003824 -->
<g id="edge6" class="edge">
<title>GO:0016829&#45;&gt;GO:0003824</title>
<path fill="none" stroke="#000000" d="M280.6932,-135.9954C280.6932,-143.9109 280.6932,-153.1109 280.6932,-161.7722"/>
<polygon fill="#000000" stroke="#000000" points="277.1933,-161.9472 280.6932,-171.9472 284.1933,-161.9473 277.1933,-161.9472"/>
</g>
<!-- GO:0003824&#45;&gt;GO:0003674 -->
<g id="edge7" class="edge">
<title>GO:0003824&#45;&gt;GO:0003674</title>
<path fill="none" stroke="#000000" d="M264.8823,-213.5954C258.4011,-222.1197 250.7873,-232.1339 243.7722,-241.3605"/>
<polygon fill="#000000" stroke="#000000" points="240.814,-239.4684 237.5478,-249.5472 246.3864,-243.7051 240.814,-239.4684"/>
</g>
</g>
</svg>
