<?xml version="1.0" encoding="UTF-8" standalone="no"?>
<!DOCTYPE svg PUBLIC "-//W3C//DTD SVG 1.1//EN"
 "http://www.w3.org/Graphics/SVG/1.1/DTD/svg11.dtd">
<!-- Generated by graphviz version 2.40.1 (20161225.0304)
 -->
<!-- Title: G Pages: 1 -->
<svg width="550pt" height="488pt"
 viewBox="0.00 0.00 550.18 488.00" xmlns="http://www.w3.org/2000/svg" xmlns:xlink="http://www.w3.org/1999/xlink">
<g id="graph0" class="graph" transform="scale(1 1) rotate(0) translate(4 484)">
<title>G</title>
<polygon fill="#ffffff" stroke="transparent" points="-4,4 -4,-484 546.1817,-484 546.1817,4 -4,4"/>
<!-- GO:0043436 -->
<g id="node1" class="node">
<title>GO:0043436</title>
<polygon fill="#ffffff" stroke="#000000" points="280.3483,-41.4019 116.3369,-41.4019 116.3369,-.1981 280.3483,-.1981 280.3483,-41.4019"/>
<text text-anchor="middle" x="198.3426" y="-25" font-family="Times,serif" font-size="14.00" fill="#000000">GO:0043436</text>
<text text-anchor="middle" x="198.3426" y="-8.2" font-family="Times,serif" font-size="14.00" fill="#000000">oxoacid metabolic process</text>
</g>
<!-- GO:0006082 -->
<g id="node2" class="node">
<title>GO:0006082</title>
<polygon fill="#ffffff" stroke="#000000" points="269.8498,-136.2014 126.8354,-136.2014 126.8354,-77.3986 269.8498,-77.3986 269.8498,-136.2014"/>
<text text-anchor="middle" x="198.3426" y="-119.4" font-family="Times,serif" font-size="14.00" fill="#000000">GO:0006082</text>
<text text-anchor="middle" x="198.3426" y="-102.6" font-family="Times,serif" font-size="14.00" fill="#000000">organic acid metabolic</text>
<text text-anchor="middle" x="198.3426" y="-85.8" font-family="Times,serif" font-size="14.00" fill="#000000">process</text>
</g>
<!-- GO:0043436&#45;&gt;GO:0006082 -->
<g id="edge1" class="edge">
<title>GO:0043436&#45;&gt;GO:0006082</title>
<path fill="none" stroke="#000000" d="M198.3426,-41.6182C198.3426,-49.3358 198.3426,-58.3662 198.3426,-67.2036"/>
<polygon fill="#000000" stroke="#000000" points="194.8427,-67.3991 198.3426,-77.3991 201.8427,-67.3992 194.8427,-67.3991"/>
</g>
<!-- GO:0071704 -->
<g id="node3" class="node">
<title>GO:0071704</title>
<polygon fill="#ffffff" stroke="#000000" points="116.5282,-230.6014 .157,-230.6014 .157,-171.7986 116.5282,-171.7986 116.5282,-230.6014"/>
<text text-anchor="middle" x="58.3426" y="-213.8" font-family="Times,serif" font-size="14.00" fill="#000000">GO:0071704</text>
<text text-anchor="middle" x="58.3426" y="-197" font-family="Times,serif" font-size="14.00" fill="#000000">organic substance</text>
<text text-anchor="middle" x="58.3426" y="-180.2" font-family="Times,serif" font-size="14.00" fill="#000000">metabolic process</text>
</g>
<!-- GO:0006082&#45;&gt;GO:0071704 -->
<g id="edge2" class="edge">
<title>GO:0006082&#45;&gt;GO:0071704</title>
<path fill="none" stroke="#000000" d="M154.8131,-136.1513C140.7223,-145.6525 124.9533,-156.2854 110.3133,-166.1569"/>
<polygon fill="#000000" stroke="#000000" points="108.1796,-163.3742 101.8451,-171.8669 112.0931,-169.1781 108.1796,-163.3742"/>
</g>
<!-- GO:0044763 -->
<g id="node4" class="node">
<title>GO:0044763</title>
<polygon fill="#ffffff" stroke="#000000" points="542.0211,-325.0014 390.6641,-325.0014 390.6641,-266.1986 542.0211,-266.1986 542.0211,-325.0014"/>
<text text-anchor="middle" x="466.3426" y="-308.2" font-family="Times,serif" font-size="14.00" fill="#000000">GO:0044763</text>
<text text-anchor="middle" x="466.3426" y="-291.4" font-family="Times,serif" font-size="14.00" fill="#000000">single&#45;organism cellular</text>
<text text-anchor="middle" x="466.3426" y="-274.6" font-family="Times,serif" font-size="14.00" fill="#000000">process</text>
</g>
<!-- GO:0006082&#45;&gt;GO:0044763 -->
<g id="edge3" class="edge">
<title>GO:0006082&#45;&gt;GO:0044763</title>
<path fill="none" stroke="#000000" d="M269.891,-125.4592C301.3848,-135.8814 337.6576,-151.0687 366.3426,-172 398.0309,-195.1228 425.355,-230.6651 443.3943,-257.7111"/>
<polygon fill="#000000" stroke="#000000" points="440.5192,-259.7097 448.9187,-266.1672 446.3795,-255.8812 440.5192,-259.7097"/>
</g>
<!-- GO:0044281 -->
<g id="node5" class="node">
<title>GO:0044281</title>
<polygon fill="#ffffff" stroke="#000000" points="357.1955,-230.6014 197.4897,-230.6014 197.4897,-171.7986 357.1955,-171.7986 357.1955,-230.6014"/>
<text text-anchor="middle" x="277.3426" y="-213.8" font-family="Times,serif" font-size="14.00" fill="#000000">GO:0044281</text>
<text text-anchor="middle" x="277.3426" y="-197" font-family="Times,serif" font-size="14.00" fill="#000000">small molecule metabolic</text>
<text text-anchor="middle" x="277.3426" y="-180.2" font-family="Times,serif" font-size="14.00" fill="#000000">process</text>
</g>
<!-- GO:0006082&#45;&gt;GO:0044281 -->
<g id="edge4" class="edge">
<title>GO:0006082&#45;&gt;GO:0044281</title>
<path fill="none" stroke="#000000" d="M222.9056,-136.1513C230.2624,-144.9422 238.4299,-154.7018 246.1533,-163.9308"/>
<polygon fill="#000000" stroke="#000000" points="243.6928,-166.4442 252.7947,-171.8669 249.061,-161.9517 243.6928,-166.4442"/>
</g>
<!-- GO:0044237 -->
<g id="node6" class="node">
<title>GO:0044237</title>
<polygon fill="#ffffff" stroke="#000000" points="189.5254,-325.0014 73.1598,-325.0014 73.1598,-266.1986 189.5254,-266.1986 189.5254,-325.0014"/>
<text text-anchor="middle" x="131.3426" y="-308.2" font-family="Times,serif" font-size="14.00" fill="#000000">GO:0044237</text>
<text text-anchor="middle" x="131.3426" y="-291.4" font-family="Times,serif" font-size="14.00" fill="#000000">cellular metabolic</text>
<text text-anchor="middle" x="131.3426" y="-274.6" font-family="Times,serif" font-size="14.00" fill="#000000">process</text>
</g>
<!-- GO:0006082&#45;&gt;GO:0044237 -->
<g id="edge5" class="edge">
<title>GO:0006082&#45;&gt;GO:0044237</title>
<path fill="none" stroke="#000000" d="M187.8738,-136.3C176.3685,-168.721 157.8384,-220.9372 145.1508,-256.6898"/>
<polygon fill="#000000" stroke="#000000" points="141.7838,-255.7124 141.7378,-266.3072 148.3808,-258.0535 141.7838,-255.7124"/>
</g>
<!-- GO:0008152 -->
<g id="node7" class="node">
<title>GO:0008152</title>
<polygon fill="#ffffff" stroke="#000000" points="189.5282,-402.2019 73.157,-402.2019 73.157,-360.9981 189.5282,-360.9981 189.5282,-402.2019"/>
<text text-anchor="middle" x="131.3426" y="-385.8" font-family="Times,serif" font-size="14.00" fill="#000000">GO:0008152</text>
<text text-anchor="middle" x="131.3426" y="-369" font-family="Times,serif" font-size="14.00" fill="#000000">metabolic process</text>
</g>
<!-- GO:0071704&#45;&gt;GO:0008152 -->
<g id="edge6" class="edge">
<title>GO:0071704&#45;&gt;GO:0008152</title>
<path fill="none" stroke="#000000" d="M53.4446,-230.5516C50.5079,-256.6765 49.7599,-295.2222 64.3426,-324.8 69.9828,-336.2399 79.0894,-346.2676 88.7954,-354.5849"/>
<polygon fill="#000000" stroke="#000000" points="86.6611,-357.3597 96.6531,-360.8827 91.039,-351.8976 86.6611,-357.3597"/>
</g>
<!-- GO:0009987 -->
<g id="node8" class="node">
<title>GO:0009987</title>
<polygon fill="#ffffff" stroke="#000000" points="311.2988,-402.2019 207.3864,-402.2019 207.3864,-360.9981 311.2988,-360.9981 311.2988,-402.2019"/>
<text text-anchor="middle" x="259.3426" y="-385.8" font-family="Times,serif" font-size="14.00" fill="#000000">GO:0009987</text>
<text text-anchor="middle" x="259.3426" y="-369" font-family="Times,serif" font-size="14.00" fill="#000000">cellular process</text>
</g>
<!-- GO:0044763&#45;&gt;GO:0009987 -->
<g id="edge7" class="edge">
<title>GO:0044763&#45;&gt;GO:0009987</title>
<path fill="none" stroke="#000000" d="M395.973,-324.8357C370.726,-335.3248 342.5389,-347.0354 318.3542,-357.0831"/>
<polygon fill="#000000" stroke="#000000" points="316.8429,-353.9209 308.951,-360.9898 319.5286,-360.3852 316.8429,-353.9209"/>
</g>
<!-- GO:0044699 -->
<g id="node9" class="node">
<title>GO:0044699</title>
<polygon fill="#ffffff" stroke="#000000" points="481.0239,-402.2019 329.6613,-402.2019 329.6613,-360.9981 481.0239,-360.9981 481.0239,-402.2019"/>
<text text-anchor="middle" x="405.3426" y="-385.8" font-family="Times,serif" font-size="14.00" fill="#000000">GO:0044699</text>
<text text-anchor="middle" x="405.3426" y="-369" font-family="Times,serif" font-size="14.00" fill="#000000">single&#45;organism process</text>
</g>
<!-- GO:0044763&#45;&gt;GO:0044699 -->
<g id="edge8" class="edge">
<title>GO:0044763&#45;&gt;GO:0044699</title>
<path fill="none" stroke="#000000" d="M445.3499,-325.1963C439.0296,-334.1068 432.1043,-343.8705 425.8181,-352.7329"/>
<polygon fill="#000000" stroke="#000000" points="422.9583,-350.7151 420.0276,-360.8966 428.6679,-354.7649 422.9583,-350.7151"/>
</g>
<!-- GO:0044710 -->
<g id="node10" class="node">
<title>GO:0044710</title>
<polygon fill="#ffffff" stroke="#000000" points="372.7508,-325.0014 207.9344,-325.0014 207.9344,-266.1986 372.7508,-266.1986 372.7508,-325.0014"/>
<text text-anchor="middle" x="290.3426" y="-308.2" font-family="Times,serif" font-size="14.00" fill="#000000">GO:0044710</text>
<text text-anchor="middle" x="290.3426" y="-291.4" font-family="Times,serif" font-size="14.00" fill="#000000">single&#45;organism metabolic</text>
<text text-anchor="middle" x="290.3426" y="-274.6" font-family="Times,serif" font-size="14.00" fill="#000000">process</text>
</g>
<!-- GO:0044281&#45;&gt;GO:0044710 -->
<g id="edge9" class="edge">
<title>GO:0044281&#45;&gt;GO:0044710</title>
<path fill="none" stroke="#000000" d="M281.3846,-230.5513C282.4974,-238.6318 283.7229,-247.5308 284.9008,-256.0838"/>
<polygon fill="#000000" stroke="#000000" points="281.4715,-256.8379 286.3031,-266.2669 288.406,-255.8828 281.4715,-256.8379"/>
</g>
<!-- GO:0044237&#45;&gt;GO:0008152 -->
<g id="edge11" class="edge">
<title>GO:0044237&#45;&gt;GO:0008152</title>
<path fill="none" stroke="#000000" d="M131.3426,-325.1963C131.3426,-333.4638 131.3426,-342.4657 131.3426,-350.8008"/>
<polygon fill="#000000" stroke="#000000" points="127.8427,-350.8965 131.3426,-360.8966 134.8427,-350.8966 127.8427,-350.8965"/>
</g>
<!-- GO:0044237&#45;&gt;GO:0009987 -->
<g id="edge10" class="edge">
<title>GO:0044237&#45;&gt;GO:0009987</title>
<path fill="none" stroke="#000000" d="M175.0349,-324.9558C189.549,-334.7074 205.6175,-345.5035 219.8,-355.0323"/>
<polygon fill="#000000" stroke="#000000" points="218.1037,-358.1092 228.3561,-360.7809 222.0075,-352.2988 218.1037,-358.1092"/>
</g>
<!-- GO:0008150 -->
<g id="node11" class="node">
<title>GO:0008150</title>
<polygon fill="#ffffff" stroke="#000000" points="319.8132,-479.8019 198.872,-479.8019 198.872,-438.5981 319.8132,-438.5981 319.8132,-479.8019"/>
<text text-anchor="middle" x="259.3426" y="-463.4" font-family="Times,serif" font-size="14.00" fill="#000000">GO:0008150</text>
<text text-anchor="middle" x="259.3426" y="-446.6" font-family="Times,serif" font-size="14.00" fill="#000000">biological_process</text>
</g>
<!-- GO:0008152&#45;&gt;GO:0008150 -->
<g id="edge12" class="edge">
<title>GO:0008152&#45;&gt;GO:0008150</title>
<path fill="none" stroke="#000000" d="M165.6443,-402.3954C181.1398,-411.7896 199.6199,-422.9931 216.0568,-432.958"/>
<polygon fill="#000000" stroke="#000000" points="214.5805,-436.1559 224.9463,-438.3472 218.2095,-430.17 214.5805,-436.1559"/>
</g>
<!-- GO:0009987&#45;&gt;GO:0008150 -->
<g id="edge13" class="edge">
<title>GO:0009987&#45;&gt;GO:0008150</title>
<path fill="none" stroke="#000000" d="M259.3426,-402.3954C259.3426,-410.3109 259.3426,-419.5109 259.3426,-428.1722"/>
<polygon fill="#000000" stroke="#000000" points="255.8427,-428.3472 259.3426,-438.3472 262.8427,-428.3473 255.8427,-428.3472"/>
</g>
<!-- GO:0044699&#45;&gt;GO:0008150 -->
<g id="edge14" class="edge">
<title>GO:0044699&#45;&gt;GO:0008150</title>
<path fill="none" stroke="#000000" d="M366.2173,-402.3954C348.0606,-412.0458 326.3115,-423.6056 307.1868,-433.7705"/>
<polygon fill="#000000" stroke="#000000" points="305.5101,-430.6979 298.3226,-438.4819 308.7955,-436.8791 305.5101,-430.6979"/>
</g>
<!-- GO:0044710&#45;&gt;GO:0008152 -->
<g id="edge15" class="edge">
<title>GO:0044710&#45;&gt;GO:0008152</title>
<path fill="none" stroke="#000000" d="M236.0685,-324.9558C217.5291,-334.9834 196.9478,-346.1154 178.9718,-355.8383"/>
<polygon fill="#000000" stroke="#000000" points="176.9643,-352.9449 169.8336,-360.7809 180.2946,-359.1019 176.9643,-352.9449"/>
</g>
<!-- GO:0044710&#45;&gt;GO:0044699 -->
<g id="edge16" class="edge">
<title>GO:0044710&#45;&gt;GO:0044699</title>
<path fill="none" stroke="#000000" d="M329.5974,-324.9558C342.5144,-334.6154 356.8017,-345.2999 369.455,-354.7623"/>
<polygon fill="#000000" stroke="#000000" points="367.3987,-357.595 377.5032,-360.7809 371.5909,-351.9891 367.3987,-357.595"/>
</g>
</g>
</svg>
