<?xml version="1.0" encoding="UTF-8" standalone="no"?>
<!DOCTYPE svg PUBLIC "-//W3C//DTD SVG 1.1//EN"
 "http://www.w3.org/Graphics/SVG/1.1/DTD/svg11.dtd">
<!-- Generated by graphviz version 2.40.1 (20161225.0304)
 -->
<!-- Title: G Pages: 1 -->
<svg width="278pt" height="410pt"
 viewBox="0.00 0.00 278.04 410.40" xmlns="http://www.w3.org/2000/svg" xmlns:xlink="http://www.w3.org/1999/xlink">
<g id="graph0" class="graph" transform="scale(1 1) rotate(0) translate(4 406.4)">
<title>G</title>
<polygon fill="#ffffff" stroke="transparent" points="-4,4 -4,-406.4 274.0435,-406.4 274.0435,4 -4,4"/>
<!-- GO:0043169 -->
<g id="node1" class="node">
<title>GO:0043169</title>
<polygon fill="#ffffff" stroke="#000000" points="96.7387,-161.0019 -.2471,-161.0019 -.2471,-119.7981 96.7387,-119.7981 96.7387,-161.0019"/>
<text text-anchor="middle" x="48.2458" y="-144.6" font-family="Times,serif" font-size="14.00" fill="#000000">GO:0043169</text>
<text text-anchor="middle" x="48.2458" y="-127.8" font-family="Times,serif" font-size="14.00" fill="#000000">cation binding</text>
</g>
<!-- GO:0043167 -->
<g id="node2" class="node">
<title>GO:0043167</title>
<polygon fill="#ffffff" stroke="#000000" points="103.8497,-247.0019 14.6419,-247.0019 14.6419,-205.7981 103.8497,-205.7981 103.8497,-247.0019"/>
<text text-anchor="middle" x="59.2458" y="-230.6" font-family="Times,serif" font-size="14.00" fill="#000000">GO:0043167</text>
<text text-anchor="middle" x="59.2458" y="-213.8" font-family="Times,serif" font-size="14.00" fill="#000000">ion binding</text>
</g>
<!-- GO:0043169&#45;&gt;GO:0043167 -->
<g id="edge1" class="edge">
<title>GO:0043169&#45;&gt;GO:0043167</title>
<path fill="none" stroke="#000000" d="M50.9086,-161.2182C52.2327,-171.5705 53.859,-184.2848 55.3225,-195.7271"/>
<polygon fill="#000000" stroke="#000000" points="51.867,-196.2984 56.6075,-205.7735 58.8104,-195.4102 51.867,-196.2984"/>
</g>
<!-- GO:0005488 -->
<g id="node3" class="node">
<title>GO:0005488</title>
<polygon fill="#ffffff" stroke="#000000" points="105.8497,-324.6019 16.6419,-324.6019 16.6419,-283.3981 105.8497,-283.3981 105.8497,-324.6019"/>
<text text-anchor="middle" x="61.2458" y="-308.2" font-family="Times,serif" font-size="14.00" fill="#000000">GO:0005488</text>
<text text-anchor="middle" x="61.2458" y="-291.4" font-family="Times,serif" font-size="14.00" fill="#000000">binding</text>
</g>
<!-- GO:0043167&#45;&gt;GO:0005488 -->
<g id="edge2" class="edge">
<title>GO:0043167&#45;&gt;GO:0005488</title>
<path fill="none" stroke="#000000" d="M59.7818,-247.1954C59.9858,-255.1109 60.2229,-264.3109 60.4461,-272.9722"/>
<polygon fill="#000000" stroke="#000000" points="56.9518,-273.2408 60.7084,-283.1472 63.9495,-273.0603 56.9518,-273.2408"/>
</g>
<!-- GO:0003674 -->
<g id="node4" class="node">
<title>GO:0003674</title>
<polygon fill="#ffffff" stroke="#000000" points="181.8789,-402.2019 56.6127,-402.2019 56.6127,-360.9981 181.8789,-360.9981 181.8789,-402.2019"/>
<text text-anchor="middle" x="119.2458" y="-385.8" font-family="Times,serif" font-size="14.00" fill="#000000">GO:0003674</text>
<text text-anchor="middle" x="119.2458" y="-369" font-family="Times,serif" font-size="14.00" fill="#000000">molecular_function</text>
</g>
<!-- GO:0005488&#45;&gt;GO:0003674 -->
<g id="edge3" class="edge">
<title>GO:0005488&#45;&gt;GO:0003674</title>
<path fill="none" stroke="#000000" d="M76.7887,-324.7954C83.16,-333.3197 90.6449,-343.3339 97.541,-352.5605"/>
<polygon fill="#000000" stroke="#000000" points="94.8697,-354.8327 103.66,-360.7472 100.4766,-350.6419 94.8697,-354.8327"/>
</g>
<!-- GO:0004553 -->
<g id="node5" class="node">
<title>GO:0004553</title>
<polygon fill="#ffffff" stroke="#000000" points="267.1102,-75.3003 117.3814,-75.3003 117.3814,.1003 267.1102,.1003 267.1102,-75.3003"/>
<text text-anchor="middle" x="192.2458" y="-58.6" font-family="Times,serif" font-size="14.00" fill="#000000">GO:0004553</text>
<text text-anchor="middle" x="192.2458" y="-41.8" font-family="Times,serif" font-size="14.00" fill="#000000">hydrolase activity,</text>
<text text-anchor="middle" x="192.2458" y="-25" font-family="Times,serif" font-size="14.00" fill="#000000">hydrolyzing O&#45;glycosyl</text>
<text text-anchor="middle" x="192.2458" y="-8.2" font-family="Times,serif" font-size="14.00" fill="#000000">compounds</text>
</g>
<!-- GO:0016798 -->
<g id="node6" class="node">
<title>GO:0016798</title>
<polygon fill="#ffffff" stroke="#000000" points="269.8417,-169.8014 114.6499,-169.8014 114.6499,-110.9986 269.8417,-110.9986 269.8417,-169.8014"/>
<text text-anchor="middle" x="192.2458" y="-153" font-family="Times,serif" font-size="14.00" fill="#000000">GO:0016798</text>
<text text-anchor="middle" x="192.2458" y="-136.2" font-family="Times,serif" font-size="14.00" fill="#000000">hydrolase activity,</text>
<text text-anchor="middle" x="192.2458" y="-119.4" font-family="Times,serif" font-size="14.00" fill="#000000">acting on glycosyl bonds</text>
</g>
<!-- GO:0004553&#45;&gt;GO:0016798 -->
<g id="edge4" class="edge">
<title>GO:0004553&#45;&gt;GO:0016798</title>
<path fill="none" stroke="#000000" d="M192.2458,-75.2952C192.2458,-83.6874 192.2458,-92.6054 192.2458,-101.0618"/>
<polygon fill="#000000" stroke="#000000" points="188.7459,-101.0813 192.2458,-111.0814 195.7459,-101.0814 188.7459,-101.0813"/>
</g>
<!-- GO:0016787 -->
<g id="node7" class="node">
<title>GO:0016787</title>
<polygon fill="#ffffff" stroke="#000000" points="244.1624,-247.0019 128.3292,-247.0019 128.3292,-205.7981 244.1624,-205.7981 244.1624,-247.0019"/>
<text text-anchor="middle" x="186.2458" y="-230.6" font-family="Times,serif" font-size="14.00" fill="#000000">GO:0016787</text>
<text text-anchor="middle" x="186.2458" y="-213.8" font-family="Times,serif" font-size="14.00" fill="#000000">hydrolase activity</text>
</g>
<!-- GO:0016798&#45;&gt;GO:0016787 -->
<g id="edge5" class="edge">
<title>GO:0016798&#45;&gt;GO:0016787</title>
<path fill="none" stroke="#000000" d="M190.1809,-169.9963C189.6041,-178.2638 188.9761,-187.2657 188.3946,-195.6008"/>
<polygon fill="#000000" stroke="#000000" points="184.8948,-195.4772 187.6902,-205.6966 191.8778,-195.9644 184.8948,-195.4772"/>
</g>
<!-- GO:0003824 -->
<g id="node8" class="node">
<title>GO:0003824</title>
<polygon fill="#ffffff" stroke="#000000" points="236.6582,-324.6019 127.8334,-324.6019 127.8334,-283.3981 236.6582,-283.3981 236.6582,-324.6019"/>
<text text-anchor="middle" x="182.2458" y="-308.2" font-family="Times,serif" font-size="14.00" fill="#000000">GO:0003824</text>
<text text-anchor="middle" x="182.2458" y="-291.4" font-family="Times,serif" font-size="14.00" fill="#000000">catalytic activity</text>
</g>
<!-- GO:0016787&#45;&gt;GO:0003824 -->
<g id="edge6" class="edge">
<title>GO:0016787&#45;&gt;GO:0003824</title>
<path fill="none" stroke="#000000" d="M185.1739,-247.1954C184.7659,-255.1109 184.2916,-264.3109 183.8452,-272.9722"/>
<polygon fill="#000000" stroke="#000000" points="180.3402,-272.9803 183.3207,-283.1472 187.3309,-273.3407 180.3402,-272.9803"/>
</g>
<!-- GO:0003824&#45;&gt;GO:0003674 -->
<g id="edge7" class="edge">
<title>GO:0003824&#45;&gt;GO:0003674</title>
<path fill="none" stroke="#000000" d="M165.363,-324.7954C158.3718,-333.4067 150.1463,-343.5384 142.5926,-352.8427"/>
<polygon fill="#000000" stroke="#000000" points="139.7609,-350.7776 136.1752,-360.7472 145.1955,-355.1896 139.7609,-350.7776"/>
</g>
</g>
</svg>
