<?xml version="1.0" encoding="UTF-8" standalone="no"?>
<!DOCTYPE svg PUBLIC "-//W3C//DTD SVG 1.1//EN"
 "http://www.w3.org/Graphics/SVG/1.1/DTD/svg11.dtd">
<!-- Generated by graphviz version 2.40.1 (20161225.0304)
 -->
<!-- Title: G Pages: 1 -->
<svg width="474pt" height="488pt"
 viewBox="0.00 0.00 473.73 488.00" xmlns="http://www.w3.org/2000/svg" xmlns:xlink="http://www.w3.org/1999/xlink">
<g id="graph0" class="graph" transform="scale(1 1) rotate(0) translate(4 484)">
<title>G</title>
<polygon fill="#ffffff" stroke="transparent" points="-4,4 -4,-484 469.7308,-484 469.7308,4 -4,4"/>
<!-- GO:0005788 -->
<g id="node1" class="node">
<title>GO:0005788</title>
<polygon fill="#ffffff" stroke="#000000" points="293.5229,-58.6014 149.6981,-58.6014 149.6981,.2014 293.5229,.2014 293.5229,-58.6014"/>
<text text-anchor="middle" x="221.6105" y="-41.8" font-family="Times,serif" font-size="14.00" fill="#000000">GO:0005788</text>
<text text-anchor="middle" x="221.6105" y="-25" font-family="Times,serif" font-size="14.00" fill="#000000">endoplasmic reticulum</text>
<text text-anchor="middle" x="221.6105" y="-8.2" font-family="Times,serif" font-size="14.00" fill="#000000">lumen</text>
</g>
<!-- GO:0070013 -->
<g id="node2" class="node">
<title>GO:0070013</title>
<polygon fill="#ffffff" stroke="#000000" points="211.3289,-153.0014 71.8921,-153.0014 71.8921,-94.1986 211.3289,-94.1986 211.3289,-153.0014"/>
<text text-anchor="middle" x="141.6105" y="-136.2" font-family="Times,serif" font-size="14.00" fill="#000000">GO:0070013</text>
<text text-anchor="middle" x="141.6105" y="-119.4" font-family="Times,serif" font-size="14.00" fill="#000000">intracellular organelle</text>
<text text-anchor="middle" x="141.6105" y="-102.6" font-family="Times,serif" font-size="14.00" fill="#000000">lumen</text>
</g>
<!-- GO:0005788&#45;&gt;GO:0070013 -->
<g id="edge1" class="edge">
<title>GO:0005788&#45;&gt;GO:0070013</title>
<path fill="none" stroke="#000000" d="M196.7365,-58.5513C189.2114,-67.431 180.8486,-77.299 172.9577,-86.6103"/>
<polygon fill="#000000" stroke="#000000" points="170.2642,-84.375 166.4691,-94.2669 175.6045,-88.9007 170.2642,-84.375"/>
</g>
<!-- GO:0044432 -->
<g id="node3" class="node">
<title>GO:0044432</title>
<polygon fill="#ffffff" stroke="#000000" points="373.5229,-153.0014 229.6981,-153.0014 229.6981,-94.1986 373.5229,-94.1986 373.5229,-153.0014"/>
<text text-anchor="middle" x="301.6105" y="-136.2" font-family="Times,serif" font-size="14.00" fill="#000000">GO:0044432</text>
<text text-anchor="middle" x="301.6105" y="-119.4" font-family="Times,serif" font-size="14.00" fill="#000000">endoplasmic reticulum</text>
<text text-anchor="middle" x="301.6105" y="-102.6" font-family="Times,serif" font-size="14.00" fill="#000000">part</text>
</g>
<!-- GO:0005788&#45;&gt;GO:0044432 -->
<g id="edge2" class="edge">
<title>GO:0005788&#45;&gt;GO:0044432</title>
<path fill="none" stroke="#000000" d="M246.4845,-58.5513C254.0096,-67.431 262.3724,-77.299 270.2633,-86.6103"/>
<polygon fill="#000000" stroke="#000000" points="267.6165,-88.9007 276.7519,-94.2669 272.9568,-84.375 267.6165,-88.9007"/>
</g>
<!-- GO:0044446 -->
<g id="node4" class="node">
<title>GO:0044446</title>
<polygon fill="#ffffff" stroke="#000000" points="291.3289,-247.4014 151.8921,-247.4014 151.8921,-188.5986 291.3289,-188.5986 291.3289,-247.4014"/>
<text text-anchor="middle" x="221.6105" y="-230.6" font-family="Times,serif" font-size="14.00" fill="#000000">GO:0044446</text>
<text text-anchor="middle" x="221.6105" y="-213.8" font-family="Times,serif" font-size="14.00" fill="#000000">intracellular organelle</text>
<text text-anchor="middle" x="221.6105" y="-197" font-family="Times,serif" font-size="14.00" fill="#000000">part</text>
</g>
<!-- GO:0070013&#45;&gt;GO:0044446 -->
<g id="edge3" class="edge">
<title>GO:0070013&#45;&gt;GO:0044446</title>
<path fill="none" stroke="#000000" d="M166.4845,-152.9513C174.0096,-161.831 182.3724,-171.699 190.2633,-181.0103"/>
<polygon fill="#000000" stroke="#000000" points="187.6165,-183.3007 196.7519,-188.6669 192.9568,-178.775 187.6165,-183.3007"/>
</g>
<!-- GO:0043233 -->
<g id="node5" class="node">
<title>GO:0043233</title>
<polygon fill="#ffffff" stroke="#000000" points="133.6927,-238.6019 27.5283,-238.6019 27.5283,-197.3981 133.6927,-197.3981 133.6927,-238.6019"/>
<text text-anchor="middle" x="80.6105" y="-222.2" font-family="Times,serif" font-size="14.00" fill="#000000">GO:0043233</text>
<text text-anchor="middle" x="80.6105" y="-205.4" font-family="Times,serif" font-size="14.00" fill="#000000">organelle lumen</text>
</g>
<!-- GO:0070013&#45;&gt;GO:0043233 -->
<g id="edge4" class="edge">
<title>GO:0070013&#45;&gt;GO:0043233</title>
<path fill="none" stroke="#000000" d="M122.6441,-152.9513C115.3034,-164.3113 106.9173,-177.2891 99.5766,-188.6491"/>
<polygon fill="#000000" stroke="#000000" points="96.4413,-187.0523 93.9536,-197.351 102.3207,-190.8515 96.4413,-187.0523"/>
</g>
<!-- GO:0044432&#45;&gt;GO:0044446 -->
<g id="edge5" class="edge">
<title>GO:0044432&#45;&gt;GO:0044446</title>
<path fill="none" stroke="#000000" d="M276.7365,-152.9513C269.2114,-161.831 260.8486,-171.699 252.9577,-181.0103"/>
<polygon fill="#000000" stroke="#000000" points="250.2642,-178.775 246.4691,-188.6669 255.6045,-183.3007 250.2642,-178.775"/>
</g>
<!-- GO:0044444 -->
<g id="node6" class="node">
<title>GO:0044444</title>
<polygon fill="#ffffff" stroke="#000000" points="418.0271,-238.6019 309.1939,-238.6019 309.1939,-197.3981 418.0271,-197.3981 418.0271,-238.6019"/>
<text text-anchor="middle" x="363.6105" y="-222.2" font-family="Times,serif" font-size="14.00" fill="#000000">GO:0044444</text>
<text text-anchor="middle" x="363.6105" y="-205.4" font-family="Times,serif" font-size="14.00" fill="#000000">cytoplasmic part</text>
</g>
<!-- GO:0044432&#45;&gt;GO:0044444 -->
<g id="edge6" class="edge">
<title>GO:0044432&#45;&gt;GO:0044444</title>
<path fill="none" stroke="#000000" d="M320.8878,-152.9513C328.4228,-164.4238 337.0413,-177.5462 344.5547,-188.9861"/>
<polygon fill="#000000" stroke="#000000" points="341.6335,-190.9139 350.0486,-197.351 347.4844,-187.0711 341.6335,-190.9139"/>
</g>
<!-- GO:0044424 -->
<g id="node7" class="node">
<title>GO:0044424</title>
<polygon fill="#ffffff" stroke="#000000" points="329.0089,-324.6019 220.2121,-324.6019 220.2121,-283.3981 329.0089,-283.3981 329.0089,-324.6019"/>
<text text-anchor="middle" x="274.6105" y="-308.2" font-family="Times,serif" font-size="14.00" fill="#000000">GO:0044424</text>
<text text-anchor="middle" x="274.6105" y="-291.4" font-family="Times,serif" font-size="14.00" fill="#000000">intracellular part</text>
</g>
<!-- GO:0044446&#45;&gt;GO:0044424 -->
<g id="edge7" class="edge">
<title>GO:0044446&#45;&gt;GO:0044424</title>
<path fill="none" stroke="#000000" d="M239.8501,-247.5963C245.2282,-256.3231 251.1107,-265.8682 256.4818,-274.5836"/>
<polygon fill="#000000" stroke="#000000" points="253.6252,-276.6196 261.8514,-283.2966 259.5845,-272.9471 253.6252,-276.6196"/>
</g>
<!-- GO:0044422 -->
<g id="node8" class="node">
<title>GO:0044422</title>
<polygon fill="#ffffff" stroke="#000000" points="202.4626,-324.6019 108.7584,-324.6019 108.7584,-283.3981 202.4626,-283.3981 202.4626,-324.6019"/>
<text text-anchor="middle" x="155.6105" y="-308.2" font-family="Times,serif" font-size="14.00" fill="#000000">GO:0044422</text>
<text text-anchor="middle" x="155.6105" y="-291.4" font-family="Times,serif" font-size="14.00" fill="#000000">organelle part</text>
</g>
<!-- GO:0044446&#45;&gt;GO:0044422 -->
<g id="edge8" class="edge">
<title>GO:0044446&#45;&gt;GO:0044422</title>
<path fill="none" stroke="#000000" d="M198.897,-247.5963C192.0588,-256.5068 184.5657,-266.2705 177.7643,-275.1329"/>
<polygon fill="#000000" stroke="#000000" points="174.8108,-273.2326 171.4992,-283.2966 180.364,-277.4943 174.8108,-273.2326"/>
</g>
<!-- GO:0043233&#45;&gt;GO:0044422 -->
<g id="edge9" class="edge">
<title>GO:0043233&#45;&gt;GO:0044422</title>
<path fill="none" stroke="#000000" d="M98.7659,-238.8182C108.4389,-249.9099 120.4767,-263.7132 130.9811,-275.7583"/>
<polygon fill="#000000" stroke="#000000" points="128.4118,-278.1373 137.6223,-283.3735 133.6874,-273.5364 128.4118,-278.1373"/>
</g>
<!-- GO:0031974 -->
<g id="node9" class="node">
<title>GO:0031974</title>
<polygon fill="#ffffff" stroke="#000000" points="167.3316,-402.2019 -.1106,-402.2019 -.1106,-360.9981 167.3316,-360.9981 167.3316,-402.2019"/>
<text text-anchor="middle" x="83.6105" y="-385.8" font-family="Times,serif" font-size="14.00" fill="#000000">GO:0031974</text>
<text text-anchor="middle" x="83.6105" y="-369" font-family="Times,serif" font-size="14.00" fill="#000000">membrane&#45;enclosed lumen</text>
</g>
<!-- GO:0043233&#45;&gt;GO:0031974 -->
<g id="edge10" class="edge">
<title>GO:0043233&#45;&gt;GO:0031974</title>
<path fill="none" stroke="#000000" d="M80.9905,-238.7201C81.5075,-266.9159 82.437,-317.6064 83.0386,-350.4099"/>
<polygon fill="#000000" stroke="#000000" points="79.5461,-350.8563 83.2289,-360.7904 86.5449,-350.7279 79.5461,-350.8563"/>
</g>
<!-- GO:0044444&#45;&gt;GO:0044424 -->
<g id="edge11" class="edge">
<title>GO:0044444&#45;&gt;GO:0044424</title>
<path fill="none" stroke="#000000" d="M342.0661,-238.8182C330.4781,-250.0156 316.0303,-263.9764 303.4818,-276.1019"/>
<polygon fill="#000000" stroke="#000000" points="300.7157,-273.9077 295.9565,-283.3735 305.5799,-278.9416 300.7157,-273.9077"/>
</g>
<!-- GO:0044464 -->
<g id="node10" class="node">
<title>GO:0044464</title>
<polygon fill="#ffffff" stroke="#000000" points="319.2144,-402.2019 230.0066,-402.2019 230.0066,-360.9981 319.2144,-360.9981 319.2144,-402.2019"/>
<text text-anchor="middle" x="274.6105" y="-385.8" font-family="Times,serif" font-size="14.00" fill="#000000">GO:0044464</text>
<text text-anchor="middle" x="274.6105" y="-369" font-family="Times,serif" font-size="14.00" fill="#000000">cell part</text>
</g>
<!-- GO:0044424&#45;&gt;GO:0044464 -->
<g id="edge12" class="edge">
<title>GO:0044424&#45;&gt;GO:0044464</title>
<path fill="none" stroke="#000000" d="M274.6105,-324.7954C274.6105,-332.7109 274.6105,-341.9109 274.6105,-350.5722"/>
<polygon fill="#000000" stroke="#000000" points="271.1106,-350.7472 274.6105,-360.7472 278.1106,-350.7473 271.1106,-350.7472"/>
</g>
<!-- GO:0005575 -->
<g id="node11" class="node">
<title>GO:0005575</title>
<polygon fill="#ffffff" stroke="#000000" points="299.2972,-479.8019 171.9238,-479.8019 171.9238,-438.5981 299.2972,-438.5981 299.2972,-479.8019"/>
<text text-anchor="middle" x="235.6105" y="-463.4" font-family="Times,serif" font-size="14.00" fill="#000000">GO:0005575</text>
<text text-anchor="middle" x="235.6105" y="-446.6" font-family="Times,serif" font-size="14.00" fill="#000000">cellular_component</text>
</g>
<!-- GO:0044422&#45;&gt;GO:0005575 -->
<g id="edge13" class="edge">
<title>GO:0044422&#45;&gt;GO:0005575</title>
<path fill="none" stroke="#000000" d="M166.2339,-324.6094C180.1005,-351.5106 204.4645,-398.7767 220.3175,-429.5317"/>
<polygon fill="#000000" stroke="#000000" points="217.2503,-431.2204 224.9432,-438.5054 223.4724,-428.0131 217.2503,-431.2204"/>
</g>
<!-- GO:0031974&#45;&gt;GO:0005575 -->
<g id="edge14" class="edge">
<title>GO:0031974&#45;&gt;GO:0005575</title>
<path fill="none" stroke="#000000" d="M124.3437,-402.3954C143.3321,-412.0895 166.0945,-423.7102 186.0702,-433.9084"/>
<polygon fill="#000000" stroke="#000000" points="184.5307,-437.0521 195.0286,-438.4819 187.7136,-430.8176 184.5307,-437.0521"/>
</g>
<!-- GO:0044464&#45;&gt;GO:0005575 -->
<g id="edge18" class="edge">
<title>GO:0044464&#45;&gt;GO:0005575</title>
<path fill="none" stroke="#000000" d="M264.1592,-402.3954C260.0062,-410.6588 255.1496,-420.3222 250.632,-429.311"/>
<polygon fill="#000000" stroke="#000000" points="247.454,-427.8405 246.0906,-438.3472 253.7085,-430.9839 247.454,-427.8405"/>
</g>
<!-- GO:0005886 -->
<g id="node12" class="node">
<title>GO:0005886</title>
<polygon fill="#ffffff" stroke="#000000" points="465.8513,-324.6019 347.3697,-324.6019 347.3697,-283.3981 465.8513,-283.3981 465.8513,-324.6019"/>
<text text-anchor="middle" x="406.6105" y="-308.2" font-family="Times,serif" font-size="14.00" fill="#000000">GO:0005886</text>
<text text-anchor="middle" x="406.6105" y="-291.4" font-family="Times,serif" font-size="14.00" fill="#000000">plasma membrane</text>
</g>
<!-- GO:0005886&#45;&gt;GO:0044464 -->
<g id="edge16" class="edge">
<title>GO:0005886&#45;&gt;GO:0044464</title>
<path fill="none" stroke="#000000" d="M371.2369,-324.7954C355.1091,-334.2766 335.8463,-345.6008 318.7787,-355.6345"/>
<polygon fill="#000000" stroke="#000000" points="316.9286,-352.662 310.0817,-360.7472 320.4762,-358.6965 316.9286,-352.662"/>
</g>
<!-- GO:0016020 -->
<g id="node13" class="node">
<title>GO:0016020</title>
<polygon fill="#ffffff" stroke="#000000" points="438.2144,-402.2019 349.0066,-402.2019 349.0066,-360.9981 438.2144,-360.9981 438.2144,-402.2019"/>
<text text-anchor="middle" x="393.6105" y="-385.8" font-family="Times,serif" font-size="14.00" fill="#000000">GO:0016020</text>
<text text-anchor="middle" x="393.6105" y="-369" font-family="Times,serif" font-size="14.00" fill="#000000">membrane</text>
</g>
<!-- GO:0005886&#45;&gt;GO:0016020 -->
<g id="edge15" class="edge">
<title>GO:0005886&#45;&gt;GO:0016020</title>
<path fill="none" stroke="#000000" d="M403.1267,-324.7954C401.7861,-332.7978 400.2255,-342.1133 398.7607,-350.8575"/>
<polygon fill="#000000" stroke="#000000" points="395.3043,-350.3063 397.1039,-360.7472 402.2081,-351.463 395.3043,-350.3063"/>
</g>
<!-- GO:0016020&#45;&gt;GO:0005575 -->
<g id="edge17" class="edge">
<title>GO:0016020&#45;&gt;GO:0005575</title>
<path fill="none" stroke="#000000" d="M351.2694,-402.3954C331.4425,-412.1331 307.6573,-423.815 286.8259,-434.0461"/>
<polygon fill="#000000" stroke="#000000" points="285.2272,-430.9319 277.7943,-438.4819 288.3131,-437.215 285.2272,-430.9319"/>
</g>
</g>
</svg>
