<?xml version="1.0" encoding="UTF-8" standalone="no"?>
<!DOCTYPE svg PUBLIC "-//W3C//DTD SVG 1.1//EN"
 "http://www.w3.org/Graphics/SVG/1.1/DTD/svg11.dtd">
<!-- Generated by graphviz version 2.40.1 (20161225.0304)
 -->
<!-- Title: G Pages: 1 -->
<svg width="881pt" height="299pt"
 viewBox="0.00 0.00 880.91 299.20" xmlns="http://www.w3.org/2000/svg" xmlns:xlink="http://www.w3.org/1999/xlink">
<g id="graph0" class="graph" transform="scale(1 1) rotate(0) translate(4 295.2)">
<title>G</title>
<polygon fill="#ffffff" stroke="transparent" points="-4,4 -4,-295.2 876.9124,-295.2 876.9124,4 -4,4"/>
<!-- GO:0044238 -->
<g id="node1" class="node">
<title>GO:0044238</title>
<polygon fill="#ff00ff" stroke="#000000" points="290.0763,-127.4019 126.0703,-127.4019 126.0703,-86.1981 290.0763,-86.1981 290.0763,-127.4019"/>
<text text-anchor="middle" x="208.0733" y="-111" font-family="Times,serif" font-size="14.00" fill="#000000">GO:0044238</text>
<text text-anchor="middle" x="208.0733" y="-94.2" font-family="Times,serif" font-size="14.00" fill="#000000">primary metabolic process</text>
</g>
<!-- GO:0008152 -->
<g id="node2" class="node">
<title>GO:0008152</title>
<polygon fill="#ffffff" stroke="#000000" points="564.2589,-213.4019 447.8877,-213.4019 447.8877,-172.1981 564.2589,-172.1981 564.2589,-213.4019"/>
<text text-anchor="middle" x="506.0733" y="-197" font-family="Times,serif" font-size="14.00" fill="#000000">GO:0008152</text>
<text text-anchor="middle" x="506.0733" y="-180.2" font-family="Times,serif" font-size="14.00" fill="#000000">metabolic process</text>
</g>
<!-- GO:0044238&#45;&gt;GO:0008152 -->
<g id="edge1" class="edge">
<title>GO:0044238&#45;&gt;GO:0008152</title>
<path fill="none" stroke="#000000" d="M272.318,-127.5358C281.6129,-130.4353 291.0761,-133.3329 300.0733,-136 345.9119,-149.5885 397.8046,-163.8903 438.0393,-174.7435"/>
<polygon fill="#000000" stroke="#000000" points="437.1779,-178.1362 447.744,-177.3555 438.9973,-171.3767 437.1779,-178.1362"/>
</g>
<!-- GO:0008150 -->
<g id="node3" class="node">
<title>GO:0008150</title>
<polygon fill="#ffffff" stroke="#000000" points="635.5439,-291.0019 514.6027,-291.0019 514.6027,-249.7981 635.5439,-249.7981 635.5439,-291.0019"/>
<text text-anchor="middle" x="575.0733" y="-274.6" font-family="Times,serif" font-size="14.00" fill="#000000">GO:0008150</text>
<text text-anchor="middle" x="575.0733" y="-257.8" font-family="Times,serif" font-size="14.00" fill="#000000">biological_process</text>
</g>
<!-- GO:0008152&#45;&gt;GO:0008150 -->
<g id="edge2" class="edge">
<title>GO:0008152&#45;&gt;GO:0008150</title>
<path fill="none" stroke="#000000" d="M524.564,-213.5954C532.2984,-222.2937 541.412,-232.5433 549.7535,-241.9244"/>
<polygon fill="#000000" stroke="#000000" points="547.2711,-244.3999 556.5315,-249.5472 552.5022,-239.7485 547.2711,-244.3999"/>
</g>
<!-- GO:0006810 -->
<g id="node4" class="node">
<title>GO:0006810</title>
<polygon fill="#ffffff" stroke="#000000" points="98.6772,-41.4019 9.4694,-41.4019 9.4694,-.1981 98.6772,-.1981 98.6772,-41.4019"/>
<text text-anchor="middle" x="54.0733" y="-25" font-family="Times,serif" font-size="14.00" fill="#000000">GO:0006810</text>
<text text-anchor="middle" x="54.0733" y="-8.2" font-family="Times,serif" font-size="14.00" fill="#000000">transport</text>
</g>
<!-- GO:0051234 -->
<g id="node5" class="node">
<title>GO:0051234</title>
<polygon fill="#ffffff" stroke="#000000" points="108.22,-136.2014 -.0734,-136.2014 -.0734,-77.3986 108.22,-77.3986 108.22,-136.2014"/>
<text text-anchor="middle" x="54.0733" y="-119.4" font-family="Times,serif" font-size="14.00" fill="#000000">GO:0051234</text>
<text text-anchor="middle" x="54.0733" y="-102.6" font-family="Times,serif" font-size="14.00" fill="#000000">establishment of</text>
<text text-anchor="middle" x="54.0733" y="-85.8" font-family="Times,serif" font-size="14.00" fill="#000000">localization</text>
</g>
<!-- GO:0006810&#45;&gt;GO:0051234 -->
<g id="edge3" class="edge">
<title>GO:0006810&#45;&gt;GO:0051234</title>
<path fill="none" stroke="#000000" d="M54.0733,-41.6182C54.0733,-49.3358 54.0733,-58.3662 54.0733,-67.2036"/>
<polygon fill="#000000" stroke="#000000" points="50.5734,-67.3991 54.0733,-77.3991 57.5734,-67.3992 50.5734,-67.3991"/>
</g>
<!-- GO:0051179 -->
<g id="node6" class="node">
<title>GO:0051179</title>
<polygon fill="#ffffff" stroke="#000000" points="264.6772,-213.4019 175.4694,-213.4019 175.4694,-172.1981 264.6772,-172.1981 264.6772,-213.4019"/>
<text text-anchor="middle" x="220.0733" y="-197" font-family="Times,serif" font-size="14.00" fill="#000000">GO:0051179</text>
<text text-anchor="middle" x="220.0733" y="-180.2" font-family="Times,serif" font-size="14.00" fill="#000000">localization</text>
</g>
<!-- GO:0051234&#45;&gt;GO:0051179 -->
<g id="edge4" class="edge">
<title>GO:0051234&#45;&gt;GO:0051179</title>
<path fill="none" stroke="#000000" d="M108.4279,-134.9596C128.5901,-145.4051 151.3228,-157.1823 170.9879,-167.3702"/>
<polygon fill="#000000" stroke="#000000" points="169.5886,-170.587 180.0778,-172.0794 172.8087,-164.3716 169.5886,-170.587"/>
</g>
<!-- GO:0051179&#45;&gt;GO:0008150 -->
<g id="edge5" class="edge">
<title>GO:0051179&#45;&gt;GO:0008150</title>
<path fill="none" stroke="#000000" d="M264.6748,-202.5495C324.9682,-215.7291 433.1309,-239.3726 504.5105,-254.9756"/>
<polygon fill="#000000" stroke="#000000" points="503.8128,-258.4056 514.3296,-257.1219 505.3077,-251.5671 503.8128,-258.4056"/>
</g>
<!-- GO:0009987 -->
<g id="node7" class="node">
<title>GO:0009987</title>
<polygon fill="#ffa500" stroke="#000000" points="697.0295,-213.4019 593.1171,-213.4019 593.1171,-172.1981 697.0295,-172.1981 697.0295,-213.4019"/>
<text text-anchor="middle" x="645.0733" y="-197" font-family="Times,serif" font-size="14.00" fill="#000000">GO:0009987</text>
<text text-anchor="middle" x="645.0733" y="-180.2" font-family="Times,serif" font-size="14.00" fill="#000000">cellular process</text>
</g>
<!-- GO:0009987&#45;&gt;GO:0008150 -->
<g id="edge6" class="edge">
<title>GO:0009987&#45;&gt;GO:0008150</title>
<path fill="none" stroke="#000000" d="M626.3146,-213.5954C618.4681,-222.2937 609.2224,-232.5433 600.76,-241.9244"/>
<polygon fill="#000000" stroke="#000000" points="597.9831,-239.7775 593.8838,-249.5472 603.1808,-244.4662 597.9831,-239.7775"/>
</g>
<!-- GO:0044237 -->
<g id="node8" class="node">
<title>GO:0044237</title>
<polygon fill="#ff00ff" stroke="#000000" points="703.2561,-136.2014 586.8905,-136.2014 586.8905,-77.3986 703.2561,-77.3986 703.2561,-136.2014"/>
<text text-anchor="middle" x="645.0733" y="-119.4" font-family="Times,serif" font-size="14.00" fill="#000000">GO:0044237</text>
<text text-anchor="middle" x="645.0733" y="-102.6" font-family="Times,serif" font-size="14.00" fill="#000000">cellular metabolic</text>
<text text-anchor="middle" x="645.0733" y="-85.8" font-family="Times,serif" font-size="14.00" fill="#000000">process</text>
</g>
<!-- GO:0044237&#45;&gt;GO:0008152 -->
<g id="edge8" class="edge">
<title>GO:0044237&#45;&gt;GO:0008152</title>
<path fill="none" stroke="#000000" d="M597.6262,-136.1558C581.7161,-145.9994 564.086,-156.9073 548.5788,-166.5017"/>
<polygon fill="#000000" stroke="#000000" points="546.3852,-163.7431 539.7227,-171.9809 550.0682,-169.6958 546.3852,-163.7431"/>
</g>
<!-- GO:0044237&#45;&gt;GO:0009987 -->
<g id="edge7" class="edge">
<title>GO:0044237&#45;&gt;GO:0009987</title>
<path fill="none" stroke="#000000" d="M645.0733,-136.3963C645.0733,-144.6638 645.0733,-153.6657 645.0733,-162.0008"/>
<polygon fill="#000000" stroke="#000000" points="641.5734,-162.0965 645.0733,-172.0966 648.5734,-162.0966 641.5734,-162.0965"/>
</g>
<!-- GO:0071704 -->
<g id="node9" class="node">
<title>GO:0071704</title>
<polygon fill="#ff00ff" stroke="#000000" points="425.2589,-136.2014 308.8877,-136.2014 308.8877,-77.3986 425.2589,-77.3986 425.2589,-136.2014"/>
<text text-anchor="middle" x="367.0733" y="-119.4" font-family="Times,serif" font-size="14.00" fill="#000000">GO:0071704</text>
<text text-anchor="middle" x="367.0733" y="-102.6" font-family="Times,serif" font-size="14.00" fill="#000000">organic substance</text>
<text text-anchor="middle" x="367.0733" y="-85.8" font-family="Times,serif" font-size="14.00" fill="#000000">metabolic process</text>
</g>
<!-- GO:0071704&#45;&gt;GO:0008152 -->
<g id="edge9" class="edge">
<title>GO:0071704&#45;&gt;GO:0008152</title>
<path fill="none" stroke="#000000" d="M414.5204,-136.1558C430.4305,-145.9994 448.0606,-156.9073 463.5678,-166.5017"/>
<polygon fill="#000000" stroke="#000000" points="462.0784,-169.6958 472.4239,-171.9809 465.7614,-163.7431 462.0784,-169.6958"/>
</g>
<!-- GO:0006807 -->
<g id="node10" class="node">
<title>GO:0006807</title>
<polygon fill="#ffffff" stroke="#000000" points="568.8352,-136.2014 443.3114,-136.2014 443.3114,-77.3986 568.8352,-77.3986 568.8352,-136.2014"/>
<text text-anchor="middle" x="506.0733" y="-119.4" font-family="Times,serif" font-size="14.00" fill="#000000">GO:0006807</text>
<text text-anchor="middle" x="506.0733" y="-102.6" font-family="Times,serif" font-size="14.00" fill="#000000">nitrogen compound</text>
<text text-anchor="middle" x="506.0733" y="-85.8" font-family="Times,serif" font-size="14.00" fill="#000000">metabolic process</text>
</g>
<!-- GO:0006807&#45;&gt;GO:0008152 -->
<g id="edge10" class="edge">
<title>GO:0006807&#45;&gt;GO:0008152</title>
<path fill="none" stroke="#000000" d="M506.0733,-136.3963C506.0733,-144.6638 506.0733,-153.6657 506.0733,-162.0008"/>
<polygon fill="#000000" stroke="#000000" points="502.5734,-162.0965 506.0733,-172.0966 509.5734,-162.0966 502.5734,-162.0965"/>
</g>
<!-- GO:0044763 -->
<g id="node11" class="node">
<title>GO:0044763</title>
<polygon fill="#ff00ff" stroke="#000000" points="872.7518,-136.2014 721.3948,-136.2014 721.3948,-77.3986 872.7518,-77.3986 872.7518,-136.2014"/>
<text text-anchor="middle" x="797.0733" y="-119.4" font-family="Times,serif" font-size="14.00" fill="#000000">GO:0044763</text>
<text text-anchor="middle" x="797.0733" y="-102.6" font-family="Times,serif" font-size="14.00" fill="#000000">single&#45;organism cellular</text>
<text text-anchor="middle" x="797.0733" y="-85.8" font-family="Times,serif" font-size="14.00" fill="#000000">process</text>
</g>
<!-- GO:0044763&#45;&gt;GO:0009987 -->
<g id="edge11" class="edge">
<title>GO:0044763&#45;&gt;GO:0009987</title>
<path fill="none" stroke="#000000" d="M745.1887,-136.1558C727.4654,-146.1834 707.7903,-157.3154 690.6057,-167.0383"/>
<polygon fill="#000000" stroke="#000000" points="688.8497,-164.0103 681.8698,-171.9809 692.2968,-170.1028 688.8497,-164.0103"/>
</g>
<!-- GO:0044699 -->
<g id="node12" class="node">
<title>GO:0044699</title>
<polygon fill="#00ffff" stroke="#000000" points="869.7546,-213.4019 718.392,-213.4019 718.392,-172.1981 869.7546,-172.1981 869.7546,-213.4019"/>
<text text-anchor="middle" x="794.0733" y="-197" font-family="Times,serif" font-size="14.00" fill="#000000">GO:0044699</text>
<text text-anchor="middle" x="794.0733" y="-180.2" font-family="Times,serif" font-size="14.00" fill="#000000">single&#45;organism process</text>
</g>
<!-- GO:0044763&#45;&gt;GO:0044699 -->
<g id="edge12" class="edge">
<title>GO:0044763&#45;&gt;GO:0044699</title>
<path fill="none" stroke="#000000" d="M796.0409,-136.3963C795.7525,-144.6638 795.4384,-153.6657 795.1477,-162.0008"/>
<polygon fill="#000000" stroke="#000000" points="791.6464,-161.9806 794.7955,-172.0966 798.6421,-162.2247 791.6464,-161.9806"/>
</g>
<!-- GO:0044699&#45;&gt;GO:0008150 -->
<g id="edge13" class="edge">
<title>GO:0044699&#45;&gt;GO:0008150</title>
<path fill="none" stroke="#000000" d="M735.673,-213.4934C707.089,-223.6218 672.5165,-235.8722 642.7814,-246.4085"/>
<polygon fill="#000000" stroke="#000000" points="641.5676,-243.1252 633.3108,-249.7642 643.9056,-249.7233 641.5676,-243.1252"/>
</g>
</g>
</svg>
