<?xml version="1.0" encoding="UTF-8" standalone="no"?>
<!DOCTYPE svg PUBLIC "-//W3C//DTD SVG 1.1//EN"
 "http://www.w3.org/Graphics/SVG/1.1/DTD/svg11.dtd">
<!-- Generated by graphviz version 2.40.1 (20161225.0304)
 -->
<!-- Title: G Pages: 1 -->
<svg width="1015pt" height="549pt"
 viewBox="0.00 0.00 1014.93 548.80" xmlns="http://www.w3.org/2000/svg" xmlns:xlink="http://www.w3.org/1999/xlink">
<g id="graph0" class="graph" transform="scale(1 1) rotate(0) translate(4 544.8)">
<title>G</title>
<polygon fill="#ffffff" stroke="transparent" points="-4,4 -4,-544.8 1010.9345,-544.8 1010.9345,4 -4,4"/>
<!-- GO:0005656 -->
<g id="node1" class="node">
<title>GO:0005656</title>
<polygon fill="#ffffff" stroke="#000000" points="331.3844,-58.6014 188.7594,-58.6014 188.7594,.2014 331.3844,.2014 331.3844,-58.6014"/>
<text text-anchor="middle" x="260.0719" y="-41.8" font-family="Times,serif" font-size="14.00" fill="#000000">GO:0005656</text>
<text text-anchor="middle" x="260.0719" y="-25" font-family="Times,serif" font-size="14.00" fill="#000000">nuclear pre&#45;replicative</text>
<text text-anchor="middle" x="260.0719" y="-8.2" font-family="Times,serif" font-size="14.00" fill="#000000">complex</text>
</g>
<!-- GO:0044451 -->
<g id="node2" class="node">
<title>GO:0044451</title>
<polygon fill="#ffffff" stroke="#000000" points="179.0979,-135.8019 67.0459,-135.8019 67.0459,-94.5981 179.0979,-94.5981 179.0979,-135.8019"/>
<text text-anchor="middle" x="123.0719" y="-119.4" font-family="Times,serif" font-size="14.00" fill="#000000">GO:0044451</text>
<text text-anchor="middle" x="123.0719" y="-102.6" font-family="Times,serif" font-size="14.00" fill="#000000">nucleoplasm part</text>
</g>
<!-- GO:0005656&#45;&gt;GO:0044451 -->
<g id="edge1" class="edge">
<title>GO:0005656&#45;&gt;GO:0044451</title>
<path fill="none" stroke="#000000" d="M213.3074,-58.5558C197.6263,-68.3994 180.2499,-79.3073 164.9658,-88.9017"/>
<polygon fill="#000000" stroke="#000000" points="162.8459,-86.0999 156.2371,-94.3809 166.5675,-92.0286 162.8459,-86.0999"/>
</g>
<!-- GO:0036387 -->
<g id="node3" class="node">
<title>GO:0036387</title>
<polygon fill="#ffffff" stroke="#000000" points="346.8999,-135.8019 197.2439,-135.8019 197.2439,-94.5981 346.8999,-94.5981 346.8999,-135.8019"/>
<text text-anchor="middle" x="272.0719" y="-119.4" font-family="Times,serif" font-size="14.00" fill="#000000">GO:0036387</text>
<text text-anchor="middle" x="272.0719" y="-102.6" font-family="Times,serif" font-size="14.00" fill="#000000">pre&#45;replicative complex</text>
</g>
<!-- GO:0005656&#45;&gt;GO:0036387 -->
<g id="edge2" class="edge">
<title>GO:0005656&#45;&gt;GO:0036387</title>
<path fill="none" stroke="#000000" d="M264.2016,-58.7963C265.3552,-67.0638 266.6113,-76.0657 267.7743,-84.4008"/>
<polygon fill="#000000" stroke="#000000" points="264.3346,-85.0762 269.183,-94.4966 271.2674,-84.1088 264.3346,-85.0762"/>
</g>
<!-- GO:0044428 -->
<g id="node4" class="node">
<title>GO:0044428</title>
<polygon fill="#ffffff" stroke="#000000" points="492.6758,-213.4019 403.468,-213.4019 403.468,-172.1981 492.6758,-172.1981 492.6758,-213.4019"/>
<text text-anchor="middle" x="448.0719" y="-197" font-family="Times,serif" font-size="14.00" fill="#000000">GO:0044428</text>
<text text-anchor="middle" x="448.0719" y="-180.2" font-family="Times,serif" font-size="14.00" fill="#000000">nuclear part</text>
</g>
<!-- GO:0044451&#45;&gt;GO:0044428 -->
<g id="edge3" class="edge">
<title>GO:0044451&#45;&gt;GO:0044428</title>
<path fill="none" stroke="#000000" d="M179.3455,-133.5668C182.2893,-134.415 185.2112,-135.2317 188.0719,-136 193.0661,-137.3414 318.2986,-164.6 393.1074,-180.8602"/>
<polygon fill="#000000" stroke="#000000" points="392.7956,-184.374 403.3108,-183.0777 394.2823,-177.5337 392.7956,-184.374"/>
</g>
<!-- GO:0032993 -->
<g id="node5" class="node">
<title>GO:0032993</title>
<polygon fill="#ffffff" stroke="#000000" points="343.4195,-213.4019 200.7243,-213.4019 200.7243,-172.1981 343.4195,-172.1981 343.4195,-213.4019"/>
<text text-anchor="middle" x="272.0719" y="-197" font-family="Times,serif" font-size="14.00" fill="#000000">GO:0032993</text>
<text text-anchor="middle" x="272.0719" y="-180.2" font-family="Times,serif" font-size="14.00" fill="#000000">protein&#45;DNA complex</text>
</g>
<!-- GO:0036387&#45;&gt;GO:0032993 -->
<g id="edge4" class="edge">
<title>GO:0036387&#45;&gt;GO:0032993</title>
<path fill="none" stroke="#000000" d="M272.0719,-135.9954C272.0719,-143.9109 272.0719,-153.1109 272.0719,-161.7722"/>
<polygon fill="#000000" stroke="#000000" points="268.572,-161.9472 272.0719,-171.9472 275.572,-161.9473 268.572,-161.9472"/>
</g>
<!-- GO:0044446 -->
<g id="node6" class="node">
<title>GO:0044446</title>
<polygon fill="#ffffff" stroke="#000000" points="581.7903,-308.2014 442.3535,-308.2014 442.3535,-249.3986 581.7903,-249.3986 581.7903,-308.2014"/>
<text text-anchor="middle" x="512.0719" y="-291.4" font-family="Times,serif" font-size="14.00" fill="#000000">GO:0044446</text>
<text text-anchor="middle" x="512.0719" y="-274.6" font-family="Times,serif" font-size="14.00" fill="#000000">intracellular organelle</text>
<text text-anchor="middle" x="512.0719" y="-257.8" font-family="Times,serif" font-size="14.00" fill="#000000">part</text>
</g>
<!-- GO:0044428&#45;&gt;GO:0044446 -->
<g id="edge5" class="edge">
<title>GO:0044428&#45;&gt;GO:0044446</title>
<path fill="none" stroke="#000000" d="M463.5645,-213.6182C469.7448,-221.923 477.0564,-231.748 484.103,-241.2168"/>
<polygon fill="#000000" stroke="#000000" points="481.4142,-243.4663 490.1922,-249.3991 487.0299,-239.2872 481.4142,-243.4663"/>
</g>
<!-- GO:0032991 -->
<g id="node7" class="node">
<title>GO:0032991</title>
<polygon fill="#ffffff" stroke="#000000" points="424.2392,-299.4019 265.9046,-299.4019 265.9046,-258.1981 424.2392,-258.1981 424.2392,-299.4019"/>
<text text-anchor="middle" x="345.0719" y="-283" font-family="Times,serif" font-size="14.00" fill="#000000">GO:0032991</text>
<text text-anchor="middle" x="345.0719" y="-266.2" font-family="Times,serif" font-size="14.00" fill="#000000">macromolecular complex</text>
</g>
<!-- GO:0032993&#45;&gt;GO:0032991 -->
<g id="edge6" class="edge">
<title>GO:0032993&#45;&gt;GO:0032991</title>
<path fill="none" stroke="#000000" d="M289.7432,-213.6182C299.0686,-224.6043 310.652,-238.2506 320.8067,-250.2137"/>
<polygon fill="#000000" stroke="#000000" points="318.4237,-252.8147 327.5634,-258.1735 323.7603,-248.2847 318.4237,-252.8147"/>
</g>
<!-- GO:0044424 -->
<g id="node8" class="node">
<title>GO:0044424</title>
<polygon fill="#ffffff" stroke="#000000" points="566.4703,-385.4019 457.6735,-385.4019 457.6735,-344.1981 566.4703,-344.1981 566.4703,-385.4019"/>
<text text-anchor="middle" x="512.0719" y="-369" font-family="Times,serif" font-size="14.00" fill="#000000">GO:0044424</text>
<text text-anchor="middle" x="512.0719" y="-352.2" font-family="Times,serif" font-size="14.00" fill="#000000">intracellular part</text>
</g>
<!-- GO:0044446&#45;&gt;GO:0044424 -->
<g id="edge7" class="edge">
<title>GO:0044446&#45;&gt;GO:0044424</title>
<path fill="none" stroke="#000000" d="M512.0719,-308.3963C512.0719,-316.6638 512.0719,-325.6657 512.0719,-334.0008"/>
<polygon fill="#000000" stroke="#000000" points="508.572,-334.0965 512.0719,-344.0966 515.572,-334.0966 508.572,-334.0965"/>
</g>
<!-- GO:0044422 -->
<g id="node9" class="node">
<title>GO:0044422</title>
<polygon fill="#ffffff" stroke="#000000" points="536.924,-463.0019 443.2198,-463.0019 443.2198,-421.7981 536.924,-421.7981 536.924,-463.0019"/>
<text text-anchor="middle" x="490.0719" y="-446.6" font-family="Times,serif" font-size="14.00" fill="#000000">GO:0044422</text>
<text text-anchor="middle" x="490.0719" y="-429.8" font-family="Times,serif" font-size="14.00" fill="#000000">organelle part</text>
</g>
<!-- GO:0044446&#45;&gt;GO:0044422 -->
<g id="edge8" class="edge">
<title>GO:0044446&#45;&gt;GO:0044422</title>
<path fill="none" stroke="#000000" d="M474.3146,-308.2606C464.1613,-318.3775 454.4986,-330.5741 449.0719,-344 442.1433,-361.1416 443.3857,-368.0072 449.0719,-385.6 452.2699,-395.4943 457.9051,-405.1153 463.9928,-413.5419"/>
<polygon fill="#000000" stroke="#000000" points="461.2794,-415.7548 470.1578,-421.5363 466.8226,-411.4801 461.2794,-415.7548"/>
</g>
<!-- GO:0005575 -->
<g id="node10" class="node">
<title>GO:0005575</title>
<polygon fill="#ffffff" stroke="#000000" points="708.7586,-540.6019 581.3852,-540.6019 581.3852,-499.3981 708.7586,-499.3981 708.7586,-540.6019"/>
<text text-anchor="middle" x="645.0719" y="-524.2" font-family="Times,serif" font-size="14.00" fill="#000000">GO:0005575</text>
<text text-anchor="middle" x="645.0719" y="-507.4" font-family="Times,serif" font-size="14.00" fill="#000000">cellular_component</text>
</g>
<!-- GO:0032991&#45;&gt;GO:0005575 -->
<g id="edge9" class="edge">
<title>GO:0032991&#45;&gt;GO:0005575</title>
<path fill="none" stroke="#000000" d="M349.1251,-299.4465C357.7345,-337.6989 381.5222,-419.6479 434.0719,-463.2 455.1322,-480.6543 519.4186,-496.4678 571.5496,-506.9505"/>
<polygon fill="#000000" stroke="#000000" points="570.9738,-510.4043 581.4627,-508.9099 572.3312,-503.5372 570.9738,-510.4043"/>
</g>
<!-- GO:0044464 -->
<g id="node11" class="node">
<title>GO:0044464</title>
<polygon fill="#ffffff" stroke="#000000" points="689.6758,-463.0019 600.468,-463.0019 600.468,-421.7981 689.6758,-421.7981 689.6758,-463.0019"/>
<text text-anchor="middle" x="645.0719" y="-446.6" font-family="Times,serif" font-size="14.00" fill="#000000">GO:0044464</text>
<text text-anchor="middle" x="645.0719" y="-429.8" font-family="Times,serif" font-size="14.00" fill="#000000">cell part</text>
</g>
<!-- GO:0044424&#45;&gt;GO:0044464 -->
<g id="edge10" class="edge">
<title>GO:0044424&#45;&gt;GO:0044464</title>
<path fill="none" stroke="#000000" d="M547.7135,-385.5954C563.9634,-395.0766 583.3722,-406.4008 600.5691,-416.4345"/>
<polygon fill="#000000" stroke="#000000" points="598.9308,-419.5307 609.332,-421.5472 602.4585,-413.4846 598.9308,-419.5307"/>
</g>
<!-- GO:0044422&#45;&gt;GO:0005575 -->
<g id="edge11" class="edge">
<title>GO:0044422&#45;&gt;GO:0005575</title>
<path fill="none" stroke="#000000" d="M531.6091,-463.1954C550.9722,-472.8895 574.1839,-484.5102 594.5539,-494.7084"/>
<polygon fill="#000000" stroke="#000000" points="593.1802,-497.9348 603.6891,-499.2819 596.314,-491.6754 593.1802,-497.9348"/>
</g>
<!-- GO:0044464&#45;&gt;GO:0005575 -->
<g id="edge31" class="edge">
<title>GO:0044464&#45;&gt;GO:0005575</title>
<path fill="none" stroke="#000000" d="M645.0719,-463.1954C645.0719,-471.1109 645.0719,-480.3109 645.0719,-488.9722"/>
<polygon fill="#000000" stroke="#000000" points="641.572,-489.1472 645.0719,-499.1472 648.572,-489.1473 641.572,-489.1472"/>
</g>
<!-- GO:0031298 -->
<g id="node12" class="node">
<title>GO:0031298</title>
<polygon fill="#ffffff" stroke="#000000" points="491.5448,-58.6014 366.599,-58.6014 366.599,.2014 491.5448,.2014 491.5448,-58.6014"/>
<text text-anchor="middle" x="429.0719" y="-41.8" font-family="Times,serif" font-size="14.00" fill="#000000">GO:0031298</text>
<text text-anchor="middle" x="429.0719" y="-25" font-family="Times,serif" font-size="14.00" fill="#000000">replication fork</text>
<text text-anchor="middle" x="429.0719" y="-8.2" font-family="Times,serif" font-size="14.00" fill="#000000">protection complex</text>
</g>
<!-- GO:0043234 -->
<g id="node13" class="node">
<title>GO:0043234</title>
<polygon fill="#ffffff" stroke="#000000" points="471.9393,-135.8019 364.2045,-135.8019 364.2045,-94.5981 471.9393,-94.5981 471.9393,-135.8019"/>
<text text-anchor="middle" x="418.0719" y="-119.4" font-family="Times,serif" font-size="14.00" fill="#000000">GO:0043234</text>
<text text-anchor="middle" x="418.0719" y="-102.6" font-family="Times,serif" font-size="14.00" fill="#000000">protein complex</text>
</g>
<!-- GO:0031298&#45;&gt;GO:0043234 -->
<g id="edge12" class="edge">
<title>GO:0031298&#45;&gt;GO:0043234</title>
<path fill="none" stroke="#000000" d="M425.2863,-58.7963C424.2289,-67.0638 423.0774,-76.0657 422.0113,-84.4008"/>
<polygon fill="#000000" stroke="#000000" points="418.5171,-84.1333 420.72,-94.4966 425.4606,-85.0214 418.5171,-84.1333"/>
</g>
<!-- GO:0044454 -->
<g id="node14" class="node">
<title>GO:0044454</title>
<polygon fill="#ffffff" stroke="#000000" points="648.3485,-135.8019 489.7953,-135.8019 489.7953,-94.5981 648.3485,-94.5981 648.3485,-135.8019"/>
<text text-anchor="middle" x="569.0719" y="-119.4" font-family="Times,serif" font-size="14.00" fill="#000000">GO:0044454</text>
<text text-anchor="middle" x="569.0719" y="-102.6" font-family="Times,serif" font-size="14.00" fill="#000000">nuclear chromosome part</text>
</g>
<!-- GO:0031298&#45;&gt;GO:0044454 -->
<g id="edge13" class="edge">
<title>GO:0031298&#45;&gt;GO:0044454</title>
<path fill="none" stroke="#000000" d="M476.8604,-58.5558C492.8849,-68.3994 510.6419,-79.3073 526.2606,-88.9017"/>
<polygon fill="#000000" stroke="#000000" points="524.8277,-92.129 535.1804,-94.3809 528.4916,-86.1644 524.8277,-92.129"/>
</g>
<!-- GO:0043234&#45;&gt;GO:0032991 -->
<g id="edge14" class="edge">
<title>GO:0043234&#45;&gt;GO:0032991</title>
<path fill="none" stroke="#000000" d="M408.8264,-135.9201C396.1357,-164.3611 373.2324,-215.6897 358.6092,-248.4615"/>
<polygon fill="#000000" stroke="#000000" points="355.236,-247.4321 354.3573,-257.9904 361.6285,-250.2845 355.236,-247.4321"/>
</g>
<!-- GO:0044454&#45;&gt;GO:0044428 -->
<g id="edge16" class="edge">
<title>GO:0044454&#45;&gt;GO:0044428</title>
<path fill="none" stroke="#000000" d="M536.6461,-135.9954C522.1336,-145.3026 504.8518,-156.3858 489.4226,-166.2809"/>
<polygon fill="#000000" stroke="#000000" points="487.1154,-163.6026 480.5872,-171.9472 490.8943,-169.4949 487.1154,-163.6026"/>
</g>
<!-- GO:0044427 -->
<g id="node15" class="node">
<title>GO:0044427</title>
<polygon fill="#ffffff" stroke="#000000" points="628.0449,-213.4019 510.0989,-213.4019 510.0989,-172.1981 628.0449,-172.1981 628.0449,-213.4019"/>
<text text-anchor="middle" x="569.0719" y="-197" font-family="Times,serif" font-size="14.00" fill="#000000">GO:0044427</text>
<text text-anchor="middle" x="569.0719" y="-180.2" font-family="Times,serif" font-size="14.00" fill="#000000">chromosomal part</text>
</g>
<!-- GO:0044454&#45;&gt;GO:0044427 -->
<g id="edge15" class="edge">
<title>GO:0044454&#45;&gt;GO:0044427</title>
<path fill="none" stroke="#000000" d="M569.0719,-135.9954C569.0719,-143.9109 569.0719,-153.1109 569.0719,-161.7722"/>
<polygon fill="#000000" stroke="#000000" points="565.572,-161.9472 569.0719,-171.9472 572.572,-161.9473 565.572,-161.9472"/>
</g>
<!-- GO:0044427&#45;&gt;GO:0044446 -->
<g id="edge17" class="edge">
<title>GO:0044427&#45;&gt;GO:0044446</title>
<path fill="none" stroke="#000000" d="M555.2738,-213.6182C549.825,-221.8391 543.389,-231.5496 537.1719,-240.9298"/>
<polygon fill="#000000" stroke="#000000" points="534.1658,-239.1301 531.5585,-249.3991 540.0006,-242.9974 534.1658,-239.1301"/>
</g>
<!-- GO:0031261 -->
<g id="node16" class="node">
<title>GO:0031261</title>
<polygon fill="#ffffff" stroke="#000000" points="136.2158,-58.6014 -.072,-58.6014 -.072,.2014 136.2158,.2014 136.2158,-58.6014"/>
<text text-anchor="middle" x="68.0719" y="-41.8" font-family="Times,serif" font-size="14.00" fill="#000000">GO:0031261</text>
<text text-anchor="middle" x="68.0719" y="-25" font-family="Times,serif" font-size="14.00" fill="#000000">DNA replication</text>
<text text-anchor="middle" x="68.0719" y="-8.2" font-family="Times,serif" font-size="14.00" fill="#000000">preinitiation complex</text>
</g>
<!-- GO:0031261&#45;&gt;GO:0044451 -->
<g id="edge18" class="edge">
<title>GO:0031261&#45;&gt;GO:0044451</title>
<path fill="none" stroke="#000000" d="M86.9998,-58.7963C92.6396,-67.6149 98.8139,-77.2692 104.4349,-86.0586"/>
<polygon fill="#000000" stroke="#000000" points="101.4949,-87.9578 109.8313,-94.4966 107.3921,-84.1863 101.4949,-87.9578"/>
</g>
<!-- GO:0031261&#45;&gt;GO:0032993 -->
<g id="edge19" class="edge">
<title>GO:0031261&#45;&gt;GO:0032993</title>
<path fill="none" stroke="#000000" d="M55.2618,-58.5217C47.2356,-81.8715 41.2676,-114.1537 58.0719,-136 74.5298,-157.396 137.3412,-172.4115 190.691,-181.6075"/>
<polygon fill="#000000" stroke="#000000" points="190.4323,-185.1128 200.8731,-183.3131 191.5888,-178.209 190.4323,-185.1128"/>
</g>
<!-- GO:0032587 -->
<g id="node17" class="node">
<title>GO:0032587</title>
<polygon fill="#ffffff" stroke="#000000" points="884.745,-135.8019 775.3988,-135.8019 775.3988,-94.5981 884.745,-94.5981 884.745,-135.8019"/>
<text text-anchor="middle" x="830.0719" y="-119.4" font-family="Times,serif" font-size="14.00" fill="#000000">GO:0032587</text>
<text text-anchor="middle" x="830.0719" y="-102.6" font-family="Times,serif" font-size="14.00" fill="#000000">ruffle membrane</text>
</g>
<!-- GO:0031256 -->
<g id="node18" class="node">
<title>GO:0031256</title>
<polygon fill="#ffffff" stroke="#000000" points="1006.7974,-299.4019 857.3464,-299.4019 857.3464,-258.1981 1006.7974,-258.1981 1006.7974,-299.4019"/>
<text text-anchor="middle" x="932.0719" y="-283" font-family="Times,serif" font-size="14.00" fill="#000000">GO:0031256</text>
<text text-anchor="middle" x="932.0719" y="-266.2" font-family="Times,serif" font-size="14.00" fill="#000000">leading edge membrane</text>
</g>
<!-- GO:0032587&#45;&gt;GO:0031256 -->
<g id="edge20" class="edge">
<title>GO:0032587&#45;&gt;GO:0031256</title>
<path fill="none" stroke="#000000" d="M842.9903,-135.9201C860.8753,-164.6063 893.2772,-216.5764 913.6825,-249.3049"/>
<polygon fill="#000000" stroke="#000000" points="910.837,-251.3564 919.0977,-257.9904 916.7771,-247.6529 910.837,-251.3564"/>
</g>
<!-- GO:0031253 -->
<g id="node19" class="node">
<title>GO:0031253</title>
<polygon fill="#ffffff" stroke="#000000" points="839.6295,-213.4019 680.5143,-213.4019 680.5143,-172.1981 839.6295,-172.1981 839.6295,-213.4019"/>
<text text-anchor="middle" x="760.0719" y="-197" font-family="Times,serif" font-size="14.00" fill="#000000">GO:0031253</text>
<text text-anchor="middle" x="760.0719" y="-180.2" font-family="Times,serif" font-size="14.00" fill="#000000">cell projection membrane</text>
</g>
<!-- GO:0032587&#45;&gt;GO:0031253 -->
<g id="edge21" class="edge">
<title>GO:0032587&#45;&gt;GO:0031253</title>
<path fill="none" stroke="#000000" d="M811.3132,-135.9954C803.4667,-144.6937 794.221,-154.9433 785.7586,-164.3244"/>
<polygon fill="#000000" stroke="#000000" points="782.9817,-162.1775 778.8824,-171.9472 788.1794,-166.8662 782.9817,-162.1775"/>
</g>
<!-- GO:0044459 -->
<g id="node20" class="node">
<title>GO:0044459</title>
<polygon fill="#ffffff" stroke="#000000" points="973.5791,-385.4019 830.5647,-385.4019 830.5647,-344.1981 973.5791,-344.1981 973.5791,-385.4019"/>
<text text-anchor="middle" x="902.0719" y="-369" font-family="Times,serif" font-size="14.00" fill="#000000">GO:0044459</text>
<text text-anchor="middle" x="902.0719" y="-352.2" font-family="Times,serif" font-size="14.00" fill="#000000">plasma membrane part</text>
</g>
<!-- GO:0031256&#45;&gt;GO:0044459 -->
<g id="edge22" class="edge">
<title>GO:0031256&#45;&gt;GO:0044459</title>
<path fill="none" stroke="#000000" d="M924.8097,-299.6182C921.1616,-310.0761 916.6726,-322.9446 912.6497,-334.477"/>
<polygon fill="#000000" stroke="#000000" points="909.2563,-333.5787 909.2672,-344.1735 915.8657,-335.8843 909.2563,-333.5787"/>
</g>
<!-- GO:0098590 -->
<g id="node21" class="node">
<title>GO:0098590</title>
<polygon fill="#ffffff" stroke="#000000" points="838.5791,-299.4019 681.5647,-299.4019 681.5647,-258.1981 838.5791,-258.1981 838.5791,-299.4019"/>
<text text-anchor="middle" x="760.0719" y="-283" font-family="Times,serif" font-size="14.00" fill="#000000">GO:0098590</text>
<text text-anchor="middle" x="760.0719" y="-266.2" font-family="Times,serif" font-size="14.00" fill="#000000">plasma membrane region</text>
</g>
<!-- GO:0031253&#45;&gt;GO:0098590 -->
<g id="edge23" class="edge">
<title>GO:0031253&#45;&gt;GO:0098590</title>
<path fill="none" stroke="#000000" d="M760.0719,-213.6182C760.0719,-223.9705 760.0719,-236.6848 760.0719,-248.1271"/>
<polygon fill="#000000" stroke="#000000" points="756.572,-248.1735 760.0719,-258.1735 763.572,-248.1735 756.572,-248.1735"/>
</g>
<!-- GO:0044463 -->
<g id="node22" class="node">
<title>GO:0044463</title>
<polygon fill="#ffffff" stroke="#000000" points="705.81,-385.4019 584.3338,-385.4019 584.3338,-344.1981 705.81,-344.1981 705.81,-385.4019"/>
<text text-anchor="middle" x="645.0719" y="-369" font-family="Times,serif" font-size="14.00" fill="#000000">GO:0044463</text>
<text text-anchor="middle" x="645.0719" y="-352.2" font-family="Times,serif" font-size="14.00" fill="#000000">cell projection part</text>
</g>
<!-- GO:0031253&#45;&gt;GO:0044463 -->
<g id="edge24" class="edge">
<title>GO:0031253&#45;&gt;GO:0044463</title>
<path fill="none" stroke="#000000" d="M713.9922,-213.5428C698.5813,-222.5802 682.6519,-234.588 672.0719,-249.6 654.5478,-274.465 648.263,-309.111 646.0784,-333.9019"/>
<polygon fill="#000000" stroke="#000000" points="642.5647,-333.9758 645.3548,-344.1967 649.5475,-334.4667 642.5647,-333.9758"/>
</g>
<!-- GO:0044459&#45;&gt;GO:0044464 -->
<g id="edge26" class="edge">
<title>GO:0044459&#45;&gt;GO:0044464</title>
<path fill="none" stroke="#000000" d="M833.5382,-385.4934C791.5919,-398.1589 738.6563,-414.1426 699.5741,-425.9433"/>
<polygon fill="#000000" stroke="#000000" points="698.5129,-422.6076 689.9515,-428.8488 700.5364,-429.3088 698.5129,-422.6076"/>
</g>
<!-- GO:0044425 -->
<g id="node23" class="node">
<title>GO:0044425</title>
<polygon fill="#ffffff" stroke="#000000" points="911.4239,-463.0019 810.7199,-463.0019 810.7199,-421.7981 911.4239,-421.7981 911.4239,-463.0019"/>
<text text-anchor="middle" x="861.0719" y="-446.6" font-family="Times,serif" font-size="14.00" fill="#000000">GO:0044425</text>
<text text-anchor="middle" x="861.0719" y="-429.8" font-family="Times,serif" font-size="14.00" fill="#000000">membrane part</text>
</g>
<!-- GO:0044459&#45;&gt;GO:0044425 -->
<g id="edge25" class="edge">
<title>GO:0044459&#45;&gt;GO:0044425</title>
<path fill="none" stroke="#000000" d="M891.0847,-385.5954C886.7187,-393.8588 881.613,-403.5222 876.8638,-412.511"/>
<polygon fill="#000000" stroke="#000000" points="873.6665,-411.0704 872.0895,-421.5472 879.8557,-414.3405 873.6665,-411.0704"/>
</g>
<!-- GO:0098590&#45;&gt;GO:0044459 -->
<g id="edge28" class="edge">
<title>GO:0098590&#45;&gt;GO:0044459</title>
<path fill="none" stroke="#000000" d="M794.4461,-299.6182C813.9813,-311.4494 838.6106,-326.3657 859.377,-338.9425"/>
<polygon fill="#000000" stroke="#000000" points="857.6475,-341.9869 868.0142,-344.1735 861.2737,-335.9994 857.6475,-341.9869"/>
</g>
<!-- GO:0016020 -->
<g id="node24" class="node">
<title>GO:0016020</title>
<polygon fill="#ffffff" stroke="#000000" points="812.6758,-385.4019 723.468,-385.4019 723.468,-344.1981 812.6758,-344.1981 812.6758,-385.4019"/>
<text text-anchor="middle" x="768.0719" y="-369" font-family="Times,serif" font-size="14.00" fill="#000000">GO:0016020</text>
<text text-anchor="middle" x="768.0719" y="-352.2" font-family="Times,serif" font-size="14.00" fill="#000000">membrane</text>
</g>
<!-- GO:0098590&#45;&gt;GO:0016020 -->
<g id="edge27" class="edge">
<title>GO:0098590&#45;&gt;GO:0016020</title>
<path fill="none" stroke="#000000" d="M762.0085,-299.6182C762.9715,-309.9705 764.1542,-322.6848 765.2186,-334.1271"/>
<polygon fill="#000000" stroke="#000000" points="761.7419,-334.5407 766.1532,-344.1735 768.7118,-333.8923 761.7419,-334.5407"/>
</g>
<!-- GO:0044463&#45;&gt;GO:0044464 -->
<g id="edge29" class="edge">
<title>GO:0044463&#45;&gt;GO:0044464</title>
<path fill="none" stroke="#000000" d="M645.0719,-385.5954C645.0719,-393.5109 645.0719,-402.7109 645.0719,-411.3722"/>
<polygon fill="#000000" stroke="#000000" points="641.572,-411.5472 645.0719,-421.5472 648.572,-411.5473 641.572,-411.5472"/>
</g>
<!-- GO:0044425&#45;&gt;GO:0005575 -->
<g id="edge30" class="edge">
<title>GO:0044425&#45;&gt;GO:0005575</title>
<path fill="none" stroke="#000000" d="M810.7021,-460.4958C781.4419,-471.0078 744.2002,-484.3872 712.4444,-495.7958"/>
<polygon fill="#000000" stroke="#000000" points="711.0079,-492.5928 702.7802,-499.2678 713.3747,-499.1806 711.0079,-492.5928"/>
</g>
<!-- GO:0016020&#45;&gt;GO:0005575 -->
<g id="edge32" class="edge">
<title>GO:0016020&#45;&gt;GO:0005575</title>
<path fill="none" stroke="#000000" d="M754.9095,-385.4181C741.6112,-405.7855 720.0824,-437.5262 699.0719,-463.2 691.0606,-472.9894 681.7463,-483.1596 673.1319,-492.143"/>
<polygon fill="#000000" stroke="#000000" points="670.563,-489.7644 666.1045,-499.3755 675.5834,-494.6425 670.563,-489.7644"/>
</g>
</g>
</svg>
