<?xml version="1.0" encoding="UTF-8" standalone="no"?>
<!DOCTYPE svg PUBLIC "-//W3C//DTD SVG 1.1//EN"
 "http://www.w3.org/Graphics/SVG/1.1/DTD/svg11.dtd">
<!-- Generated by graphviz version 2.40.1 (20161225.0304)
 -->
<!-- Title: G Pages: 1 -->
<svg width="600pt" height="582pt"
 viewBox="0.00 0.00 600.40 582.40" xmlns="http://www.w3.org/2000/svg" xmlns:xlink="http://www.w3.org/1999/xlink">
<g id="graph0" class="graph" transform="scale(1 1) rotate(0) translate(4 578.4)">
<title>G</title>
<polygon fill="#ffffff" stroke="transparent" points="-4,4 -4,-578.4 596.3952,-578.4 596.3952,4 -4,4"/>
<!-- GO:0043169 -->
<g id="node1" class="node">
<title>GO:0043169</title>
<polygon fill="#ffffff" stroke="#000000" points="578.4512,-333.0019 481.4654,-333.0019 481.4654,-291.7981 578.4512,-291.7981 578.4512,-333.0019"/>
<text text-anchor="middle" x="529.9583" y="-316.6" font-family="Times,serif" font-size="14.00" fill="#000000">GO:0043169</text>
<text text-anchor="middle" x="529.9583" y="-299.8" font-family="Times,serif" font-size="14.00" fill="#000000">cation binding</text>
</g>
<!-- GO:0043167 -->
<g id="node2" class="node">
<title>GO:0043167</title>
<polygon fill="#ffffff" stroke="#000000" points="574.5622,-419.0019 485.3544,-419.0019 485.3544,-377.7981 574.5622,-377.7981 574.5622,-419.0019"/>
<text text-anchor="middle" x="529.9583" y="-402.6" font-family="Times,serif" font-size="14.00" fill="#000000">GO:0043167</text>
<text text-anchor="middle" x="529.9583" y="-385.8" font-family="Times,serif" font-size="14.00" fill="#000000">ion binding</text>
</g>
<!-- GO:0043169&#45;&gt;GO:0043167 -->
<g id="edge1" class="edge">
<title>GO:0043169&#45;&gt;GO:0043167</title>
<path fill="none" stroke="#000000" d="M529.9583,-333.2182C529.9583,-343.5705 529.9583,-356.2848 529.9583,-367.7271"/>
<polygon fill="#000000" stroke="#000000" points="526.4584,-367.7735 529.9583,-377.7735 533.4584,-367.7735 526.4584,-367.7735"/>
</g>
<!-- GO:0005488 -->
<g id="node3" class="node">
<title>GO:0005488</title>
<polygon fill="#ffffff" stroke="#000000" points="457.5622,-496.6019 368.3544,-496.6019 368.3544,-455.3981 457.5622,-455.3981 457.5622,-496.6019"/>
<text text-anchor="middle" x="412.9583" y="-480.2" font-family="Times,serif" font-size="14.00" fill="#000000">GO:0005488</text>
<text text-anchor="middle" x="412.9583" y="-463.4" font-family="Times,serif" font-size="14.00" fill="#000000">binding</text>
</g>
<!-- GO:0043167&#45;&gt;GO:0005488 -->
<g id="edge2" class="edge">
<title>GO:0043167&#45;&gt;GO:0005488</title>
<path fill="none" stroke="#000000" d="M498.6044,-419.1954C484.5717,-428.5026 467.8611,-439.5858 452.942,-449.4809"/>
<polygon fill="#000000" stroke="#000000" points="450.7978,-446.7031 444.3987,-455.1472 454.6669,-452.5367 450.7978,-446.7031"/>
</g>
<!-- GO:0003674 -->
<g id="node4" class="node">
<title>GO:0003674</title>
<polygon fill="#ffffff" stroke="#000000" points="402.5914,-574.2019 277.3252,-574.2019 277.3252,-532.9981 402.5914,-532.9981 402.5914,-574.2019"/>
<text text-anchor="middle" x="339.9583" y="-557.8" font-family="Times,serif" font-size="14.00" fill="#000000">GO:0003674</text>
<text text-anchor="middle" x="339.9583" y="-541" font-family="Times,serif" font-size="14.00" fill="#000000">molecular_function</text>
</g>
<!-- GO:0005488&#45;&gt;GO:0003674 -->
<g id="edge3" class="edge">
<title>GO:0005488&#45;&gt;GO:0003674</title>
<path fill="none" stroke="#000000" d="M393.3956,-496.7954C385.1311,-505.5807 375.378,-515.9484 366.4814,-525.4056"/>
<polygon fill="#000000" stroke="#000000" points="363.8776,-523.0654 359.575,-532.7472 368.9762,-527.8617 363.8776,-523.0654"/>
</g>
<!-- GO:0046914 -->
<g id="node5" class="node">
<title>GO:0046914</title>
<polygon fill="#ffffff" stroke="#000000" points="592.3322,-153.0014 467.5844,-153.0014 467.5844,-94.1986 592.3322,-94.1986 592.3322,-153.0014"/>
<text text-anchor="middle" x="529.9583" y="-136.2" font-family="Times,serif" font-size="14.00" fill="#000000">GO:0046914</text>
<text text-anchor="middle" x="529.9583" y="-119.4" font-family="Times,serif" font-size="14.00" fill="#000000">transition metal ion</text>
<text text-anchor="middle" x="529.9583" y="-102.6" font-family="Times,serif" font-size="14.00" fill="#000000">binding</text>
</g>
<!-- GO:0046872 -->
<g id="node6" class="node">
<title>GO:0046872</title>
<polygon fill="#ffffff" stroke="#000000" points="587.2313,-238.6019 472.6853,-238.6019 472.6853,-197.3981 587.2313,-197.3981 587.2313,-238.6019"/>
<text text-anchor="middle" x="529.9583" y="-222.2" font-family="Times,serif" font-size="14.00" fill="#000000">GO:0046872</text>
<text text-anchor="middle" x="529.9583" y="-205.4" font-family="Times,serif" font-size="14.00" fill="#000000">metal ion binding</text>
</g>
<!-- GO:0046914&#45;&gt;GO:0046872 -->
<g id="edge4" class="edge">
<title>GO:0046914&#45;&gt;GO:0046872</title>
<path fill="none" stroke="#000000" d="M529.9583,-152.9513C529.9583,-163.8614 529.9583,-176.2637 529.9583,-187.292"/>
<polygon fill="#000000" stroke="#000000" points="526.4584,-187.3509 529.9583,-197.351 533.4584,-187.351 526.4584,-187.3509"/>
</g>
<!-- GO:0046872&#45;&gt;GO:0043169 -->
<g id="edge5" class="edge">
<title>GO:0046872&#45;&gt;GO:0043169</title>
<path fill="none" stroke="#000000" d="M529.9583,-238.9504C529.9583,-251.4165 529.9583,-267.4645 529.9583,-281.3786"/>
<polygon fill="#000000" stroke="#000000" points="526.4584,-281.5081 529.9583,-291.5081 533.4584,-281.5082 526.4584,-281.5081"/>
</g>
<!-- GO:0016787 -->
<g id="node7" class="node">
<title>GO:0016787</title>
<polygon fill="#ff0000" stroke="#000000" points="176.8749,-419.0019 61.0417,-419.0019 61.0417,-377.7981 176.8749,-377.7981 176.8749,-419.0019"/>
<text text-anchor="middle" x="118.9583" y="-402.6" font-family="Times,serif" font-size="14.00" fill="#000000">GO:0016787</text>
<text text-anchor="middle" x="118.9583" y="-385.8" font-family="Times,serif" font-size="14.00" fill="#000000">hydrolase activity</text>
</g>
<!-- GO:0003824 -->
<g id="node8" class="node">
<title>GO:0003824</title>
<polygon fill="#ff0000" stroke="#000000" points="322.3707,-496.6019 213.5459,-496.6019 213.5459,-455.3981 322.3707,-455.3981 322.3707,-496.6019"/>
<text text-anchor="middle" x="267.9583" y="-480.2" font-family="Times,serif" font-size="14.00" fill="#000000">GO:0003824</text>
<text text-anchor="middle" x="267.9583" y="-463.4" font-family="Times,serif" font-size="14.00" fill="#000000">catalytic activity</text>
</g>
<!-- GO:0016787&#45;&gt;GO:0003824 -->
<g id="edge6" class="edge">
<title>GO:0016787&#45;&gt;GO:0003824</title>
<path fill="none" stroke="#000000" d="M158.8876,-419.1954C177.4174,-428.8458 199.6134,-440.4056 219.131,-450.5705"/>
<polygon fill="#000000" stroke="#000000" points="217.6914,-453.7669 228.1774,-455.2819 220.9249,-447.5584 217.6914,-453.7669"/>
</g>
<!-- GO:0003824&#45;&gt;GO:0003674 -->
<g id="edge7" class="edge">
<title>GO:0003824&#45;&gt;GO:0003674</title>
<path fill="none" stroke="#000000" d="M287.253,-496.7954C295.4043,-505.5807 305.0238,-515.9484 313.7985,-525.4056"/>
<polygon fill="#000000" stroke="#000000" points="311.243,-527.7971 320.6104,-532.7472 316.3744,-523.036 311.243,-527.7971"/>
</g>
<!-- GO:0052689 -->
<g id="node9" class="node">
<title>GO:0052689</title>
<polygon fill="#ff00ff" stroke="#000000" points="115.8749,-247.4014 .0417,-247.4014 .0417,-188.5986 115.8749,-188.5986 115.8749,-247.4014"/>
<text text-anchor="middle" x="57.9583" y="-230.6" font-family="Times,serif" font-size="14.00" fill="#000000">GO:0052689</text>
<text text-anchor="middle" x="57.9583" y="-213.8" font-family="Times,serif" font-size="14.00" fill="#000000">carboxylic ester</text>
<text text-anchor="middle" x="57.9583" y="-197" font-family="Times,serif" font-size="14.00" fill="#000000">hydrolase activity</text>
</g>
<!-- GO:0016788 -->
<g id="node10" class="node">
<title>GO:0016788</title>
<polygon fill="#ffffff" stroke="#000000" points="186.039,-341.8014 51.8776,-341.8014 51.8776,-282.9986 186.039,-282.9986 186.039,-341.8014"/>
<text text-anchor="middle" x="118.9583" y="-325" font-family="Times,serif" font-size="14.00" fill="#000000">GO:0016788</text>
<text text-anchor="middle" x="118.9583" y="-308.2" font-family="Times,serif" font-size="14.00" fill="#000000">hydrolase activity,</text>
<text text-anchor="middle" x="118.9583" y="-291.4" font-family="Times,serif" font-size="14.00" fill="#000000">acting on ester bonds</text>
</g>
<!-- GO:0052689&#45;&gt;GO:0016788 -->
<g id="edge8" class="edge">
<title>GO:0052689&#45;&gt;GO:0016788</title>
<path fill="none" stroke="#000000" d="M76.9247,-247.3513C82.4905,-255.9646 88.6572,-265.5078 94.5136,-274.5708"/>
<polygon fill="#000000" stroke="#000000" points="91.6366,-276.5674 100.0036,-283.0669 97.5159,-272.7682 91.6366,-276.5674"/>
</g>
<!-- GO:0016788&#45;&gt;GO:0016787 -->
<g id="edge9" class="edge">
<title>GO:0016788&#45;&gt;GO:0016787</title>
<path fill="none" stroke="#000000" d="M118.9583,-341.9963C118.9583,-350.2638 118.9583,-359.2657 118.9583,-367.6008"/>
<polygon fill="#000000" stroke="#000000" points="115.4584,-367.6965 118.9583,-377.6966 122.4584,-367.6966 115.4584,-367.6965"/>
</g>
<!-- GO:0048037 -->
<g id="node11" class="node">
<title>GO:0048037</title>
<polygon fill="#ffffff" stroke="#000000" points="467.0952,-419.0019 358.8214,-419.0019 358.8214,-377.7981 467.0952,-377.7981 467.0952,-419.0019"/>
<text text-anchor="middle" x="412.9583" y="-402.6" font-family="Times,serif" font-size="14.00" fill="#000000">GO:0048037</text>
<text text-anchor="middle" x="412.9583" y="-385.8" font-family="Times,serif" font-size="14.00" fill="#000000">cofactor binding</text>
</g>
<!-- GO:0048037&#45;&gt;GO:0005488 -->
<g id="edge10" class="edge">
<title>GO:0048037&#45;&gt;GO:0005488</title>
<path fill="none" stroke="#000000" d="M412.9583,-419.1954C412.9583,-427.1109 412.9583,-436.3109 412.9583,-444.9722"/>
<polygon fill="#000000" stroke="#000000" points="409.4584,-445.1472 412.9583,-455.1472 416.4584,-445.1473 409.4584,-445.1472"/>
</g>
<!-- GO:0004622 -->
<g id="node12" class="node">
<title>GO:0004622</title>
<polygon fill="#ffffff" stroke="#000000" points="172.8939,-58.6014 53.0227,-58.6014 53.0227,.2014 172.8939,.2014 172.8939,-58.6014"/>
<text text-anchor="middle" x="112.9583" y="-41.8" font-family="Times,serif" font-size="14.00" fill="#000000">GO:0004622</text>
<text text-anchor="middle" x="112.9583" y="-25" font-family="Times,serif" font-size="14.00" fill="#000000">lysophospholipase</text>
<text text-anchor="middle" x="112.9583" y="-8.2" font-family="Times,serif" font-size="14.00" fill="#000000">activity</text>
</g>
<!-- GO:0004622&#45;&gt;GO:0052689 -->
<g id="edge12" class="edge">
<title>GO:0004622&#45;&gt;GO:0052689</title>
<path fill="none" stroke="#000000" d="M101.4118,-58.5078C97.221,-69.6549 92.6206,-82.5282 88.9583,-94.4 80.342,-122.3312 72.3621,-154.3547 66.6568,-178.8063"/>
<polygon fill="#000000" stroke="#000000" points="63.1917,-178.2573 64.3558,-188.788 70.0128,-179.8298 63.1917,-178.2573"/>
</g>
<!-- GO:0004620 -->
<g id="node13" class="node">
<title>GO:0004620</title>
<polygon fill="#ffffff" stroke="#000000" points="239.5501,-144.2019 98.3665,-144.2019 98.3665,-102.9981 239.5501,-102.9981 239.5501,-144.2019"/>
<text text-anchor="middle" x="168.9583" y="-127.8" font-family="Times,serif" font-size="14.00" fill="#000000">GO:0004620</text>
<text text-anchor="middle" x="168.9583" y="-111" font-family="Times,serif" font-size="14.00" fill="#000000">phospholipase activity</text>
</g>
<!-- GO:0004622&#45;&gt;GO:0004620 -->
<g id="edge11" class="edge">
<title>GO:0004622&#45;&gt;GO:0004620</title>
<path fill="none" stroke="#000000" d="M130.3701,-58.5513C137.1091,-69.9113 144.8078,-82.8891 151.5468,-94.2491"/>
<polygon fill="#000000" stroke="#000000" points="148.5966,-96.1361 156.7089,-102.951 154.617,-92.5647 148.5966,-96.1361"/>
</g>
<!-- GO:0016298 -->
<g id="node14" class="node">
<title>GO:0016298</title>
<polygon fill="#ffffff" stroke="#000000" points="228.105,-238.6019 133.8116,-238.6019 133.8116,-197.3981 228.105,-197.3981 228.105,-238.6019"/>
<text text-anchor="middle" x="180.9583" y="-222.2" font-family="Times,serif" font-size="14.00" fill="#000000">GO:0016298</text>
<text text-anchor="middle" x="180.9583" y="-205.4" font-family="Times,serif" font-size="14.00" fill="#000000">lipase activity</text>
</g>
<!-- GO:0004620&#45;&gt;GO:0016298 -->
<g id="edge13" class="edge">
<title>GO:0004620&#45;&gt;GO:0016298</title>
<path fill="none" stroke="#000000" d="M171.6215,-144.5504C173.2062,-157.0165 175.2462,-173.0645 177.0149,-186.9786"/>
<polygon fill="#000000" stroke="#000000" points="173.5694,-187.6294 178.3026,-197.1081 180.5135,-186.7466 173.5694,-187.6294"/>
</g>
<!-- GO:0016298&#45;&gt;GO:0016788 -->
<g id="edge14" class="edge">
<title>GO:0016298&#45;&gt;GO:0016788</title>
<path fill="none" stroke="#000000" d="M167.1985,-238.9504C160.3661,-249.3532 151.8955,-262.2504 143.9682,-274.3204"/>
<polygon fill="#000000" stroke="#000000" points="140.8874,-272.6357 138.3231,-282.9155 146.7383,-276.4784 140.8874,-272.6357"/>
</g>
<!-- GO:0016491 -->
<g id="node15" class="node">
<title>GO:0016491</title>
<polygon fill="#ffffff" stroke="#000000" points="341.1949,-419.0019 194.7217,-419.0019 194.7217,-377.7981 341.1949,-377.7981 341.1949,-419.0019"/>
<text text-anchor="middle" x="267.9583" y="-402.6" font-family="Times,serif" font-size="14.00" fill="#000000">GO:0016491</text>
<text text-anchor="middle" x="267.9583" y="-385.8" font-family="Times,serif" font-size="14.00" fill="#000000">oxidoreductase activity</text>
</g>
<!-- GO:0016491&#45;&gt;GO:0003824 -->
<g id="edge15" class="edge">
<title>GO:0016491&#45;&gt;GO:0003824</title>
<path fill="none" stroke="#000000" d="M267.9583,-419.1954C267.9583,-427.1109 267.9583,-436.3109 267.9583,-444.9722"/>
<polygon fill="#000000" stroke="#000000" points="264.4584,-445.1472 267.9583,-455.1472 271.4584,-445.1473 264.4584,-445.1472"/>
</g>
</g>
</svg>
