<?xml version="1.0" encoding="UTF-8" standalone="no"?>
<!DOCTYPE svg PUBLIC "-//W3C//DTD SVG 1.1//EN"
 "http://www.w3.org/Graphics/SVG/1.1/DTD/svg11.dtd">
<!-- Generated by graphviz version 2.40.1 (20161225.0304)
 -->
<!-- Title: G Pages: 1 -->
<svg width="1601pt" height="694pt"
 viewBox="0.00 0.00 1601.48 693.60" xmlns="http://www.w3.org/2000/svg" xmlns:xlink="http://www.w3.org/1999/xlink">
<g id="graph0" class="graph" transform="scale(1 1) rotate(0) translate(4 689.6)">
<title>G</title>
<polygon fill="#ffffff" stroke="transparent" points="-4,4 -4,-689.6 1597.4815,-689.6 1597.4815,4 -4,4"/>
<!-- GO:0005743 -->
<g id="node1" class="node">
<title>GO:0005743</title>
<polygon fill="#ffffff" stroke="#000000" points="200.7772,-153.0014 74.1598,-153.0014 74.1598,-94.1986 200.7772,-94.1986 200.7772,-153.0014"/>
<text text-anchor="middle" x="137.4685" y="-136.2" font-family="Times,serif" font-size="14.00" fill="#000000">GO:0005743</text>
<text text-anchor="middle" x="137.4685" y="-119.4" font-family="Times,serif" font-size="14.00" fill="#000000">mitochondrial inner</text>
<text text-anchor="middle" x="137.4685" y="-102.6" font-family="Times,serif" font-size="14.00" fill="#000000">membrane</text>
</g>
<!-- GO:0019866 -->
<g id="node2" class="node">
<title>GO:0019866</title>
<polygon fill="#ffffff" stroke="#000000" points="162.9055,-341.4019 .0315,-341.4019 .0315,-300.1981 162.9055,-300.1981 162.9055,-341.4019"/>
<text text-anchor="middle" x="81.4685" y="-325" font-family="Times,serif" font-size="14.00" fill="#000000">GO:0019866</text>
<text text-anchor="middle" x="81.4685" y="-308.2" font-family="Times,serif" font-size="14.00" fill="#000000">organelle inner membrane</text>
</g>
<!-- GO:0005743&#45;&gt;GO:0019866 -->
<g id="edge1" class="edge">
<title>GO:0005743&#45;&gt;GO:0019866</title>
<path fill="none" stroke="#000000" d="M119.0731,-152.8395C112.9369,-163.7621 106.6144,-176.5044 102.4685,-188.8 91.145,-222.3823 85.8582,-262.8761 83.4354,-290.0822"/>
<polygon fill="#000000" stroke="#000000" points="79.9375,-289.9159 82.6146,-300.1669 86.9144,-290.4838 79.9375,-289.9159"/>
</g>
<!-- GO:0031966 -->
<g id="node3" class="node">
<title>GO:0031966</title>
<polygon fill="#ffffff" stroke="#000000" points="269.097,-238.6019 111.84,-238.6019 111.84,-197.3981 269.097,-197.3981 269.097,-238.6019"/>
<text text-anchor="middle" x="190.4685" y="-222.2" font-family="Times,serif" font-size="14.00" fill="#000000">GO:0031966</text>
<text text-anchor="middle" x="190.4685" y="-205.4" font-family="Times,serif" font-size="14.00" fill="#000000">mitochondrial membrane</text>
</g>
<!-- GO:0005743&#45;&gt;GO:0031966 -->
<g id="edge2" class="edge">
<title>GO:0005743&#45;&gt;GO:0031966</title>
<path fill="none" stroke="#000000" d="M153.9475,-152.9513C160.2624,-164.1989 167.4675,-177.0323 173.8,-188.3112"/>
<polygon fill="#000000" stroke="#000000" points="170.9278,-190.3447 178.8753,-197.351 177.0316,-186.9178 170.9278,-190.3447"/>
</g>
<!-- GO:0044424 -->
<g id="node4" class="node">
<title>GO:0044424</title>
<polygon fill="#ffffff" stroke="#000000" points="624.8669,-530.2019 516.0701,-530.2019 516.0701,-488.9981 624.8669,-488.9981 624.8669,-530.2019"/>
<text text-anchor="middle" x="570.4685" y="-513.8" font-family="Times,serif" font-size="14.00" fill="#000000">GO:0044424</text>
<text text-anchor="middle" x="570.4685" y="-497" font-family="Times,serif" font-size="14.00" fill="#000000">intracellular part</text>
</g>
<!-- GO:0019866&#45;&gt;GO:0044424 -->
<g id="edge3" class="edge">
<title>GO:0019866&#45;&gt;GO:0044424</title>
<path fill="none" stroke="#000000" d="M104.7588,-341.549C120.0124,-355.7003 139.9258,-375.277 155.4685,-394.4 174.9997,-418.4303 167.1374,-436.5028 193.4685,-452.8 309.745,-524.7676 366.9345,-462.097 505.7179,-488.964"/>
<polygon fill="#000000" stroke="#000000" points="505.3521,-492.4622 515.8532,-491.0562 506.7673,-485.6067 505.3521,-492.4622"/>
</g>
<!-- GO:0031090 -->
<g id="node5" class="node">
<title>GO:0031090</title>
<polygon fill="#ffffff" stroke="#000000" points="146.6401,-444.2019 16.2969,-444.2019 16.2969,-402.9981 146.6401,-402.9981 146.6401,-444.2019"/>
<text text-anchor="middle" x="81.4685" y="-427.8" font-family="Times,serif" font-size="14.00" fill="#000000">GO:0031090</text>
<text text-anchor="middle" x="81.4685" y="-411" font-family="Times,serif" font-size="14.00" fill="#000000">organelle membrane</text>
</g>
<!-- GO:0019866&#45;&gt;GO:0031090 -->
<g id="edge4" class="edge">
<title>GO:0019866&#45;&gt;GO:0031090</title>
<path fill="none" stroke="#000000" d="M81.4685,-341.6031C81.4685,-356.2337 81.4685,-376.0642 81.4685,-392.5586"/>
<polygon fill="#000000" stroke="#000000" points="77.9686,-392.8278 81.4685,-402.8278 84.9686,-392.8279 77.9686,-392.8278"/>
</g>
<!-- GO:0031966&#45;&gt;GO:0031090 -->
<g id="edge6" class="edge">
<title>GO:0031966&#45;&gt;GO:0031090</title>
<path fill="none" stroke="#000000" d="M192.5124,-238.6955C194.3528,-267.6272 193.9482,-320.8285 171.4685,-358.4 162.1109,-374.0399 147.4053,-387.0151 132.5724,-397.1626"/>
<polygon fill="#000000" stroke="#000000" points="130.3502,-394.4321 123.8638,-402.8093 134.1585,-400.3055 130.3502,-394.4321"/>
</g>
<!-- GO:0044429 -->
<g id="node6" class="node">
<title>GO:0044429</title>
<polygon fill="#ffffff" stroke="#000000" points="338.2773,-341.4019 218.6597,-341.4019 218.6597,-300.1981 338.2773,-300.1981 338.2773,-341.4019"/>
<text text-anchor="middle" x="278.4685" y="-325" font-family="Times,serif" font-size="14.00" fill="#000000">GO:0044429</text>
<text text-anchor="middle" x="278.4685" y="-308.2" font-family="Times,serif" font-size="14.00" fill="#000000">mitochondrial part</text>
</g>
<!-- GO:0031966&#45;&gt;GO:0044429 -->
<g id="edge5" class="edge">
<title>GO:0031966&#45;&gt;GO:0044429</title>
<path fill="none" stroke="#000000" d="M208.2766,-238.8031C221.3972,-254.1304 239.4032,-275.1647 253.893,-292.0913"/>
<polygon fill="#000000" stroke="#000000" points="251.5249,-294.7071 260.6869,-300.0278 256.8427,-290.155 251.5249,-294.7071"/>
</g>
<!-- GO:0044464 -->
<g id="node7" class="node">
<title>GO:0044464</title>
<polygon fill="#ffffff" stroke="#000000" points="609.0724,-607.8019 519.8646,-607.8019 519.8646,-566.5981 609.0724,-566.5981 609.0724,-607.8019"/>
<text text-anchor="middle" x="564.4685" y="-591.4" font-family="Times,serif" font-size="14.00" fill="#000000">GO:0044464</text>
<text text-anchor="middle" x="564.4685" y="-574.6" font-family="Times,serif" font-size="14.00" fill="#000000">cell part</text>
</g>
<!-- GO:0044424&#45;&gt;GO:0044464 -->
<g id="edge7" class="edge">
<title>GO:0044424&#45;&gt;GO:0044464</title>
<path fill="none" stroke="#000000" d="M568.8606,-530.3954C568.2486,-538.3109 567.5372,-547.5109 566.8676,-556.1722"/>
<polygon fill="#000000" stroke="#000000" points="563.3622,-556.1071 566.0808,-566.3472 570.3414,-556.6468 563.3622,-556.1071"/>
</g>
<!-- GO:0016020 -->
<g id="node8" class="node">
<title>GO:0016020</title>
<polygon fill="#ffffff" stroke="#000000" points="438.0724,-607.8019 348.8646,-607.8019 348.8646,-566.5981 438.0724,-566.5981 438.0724,-607.8019"/>
<text text-anchor="middle" x="393.4685" y="-591.4" font-family="Times,serif" font-size="14.00" fill="#000000">GO:0016020</text>
<text text-anchor="middle" x="393.4685" y="-574.6" font-family="Times,serif" font-size="14.00" fill="#000000">membrane</text>
</g>
<!-- GO:0031090&#45;&gt;GO:0016020 -->
<g id="edge8" class="edge">
<title>GO:0031090&#45;&gt;GO:0016020</title>
<path fill="none" stroke="#000000" d="M84.5725,-444.289C89.3589,-468.6748 100.9388,-508.6271 127.4685,-530.4 159.194,-556.4371 270.4763,-573.3032 338.6484,-581.4482"/>
<polygon fill="#000000" stroke="#000000" points="338.451,-584.9489 348.7897,-582.6337 339.2638,-577.9962 338.451,-584.9489"/>
</g>
<!-- GO:0044422 -->
<g id="node9" class="node">
<title>GO:0044422</title>
<polygon fill="#ffffff" stroke="#000000" points="230.3206,-530.2019 136.6164,-530.2019 136.6164,-488.9981 230.3206,-488.9981 230.3206,-530.2019"/>
<text text-anchor="middle" x="183.4685" y="-513.8" font-family="Times,serif" font-size="14.00" fill="#000000">GO:0044422</text>
<text text-anchor="middle" x="183.4685" y="-497" font-family="Times,serif" font-size="14.00" fill="#000000">organelle part</text>
</g>
<!-- GO:0031090&#45;&gt;GO:0044422 -->
<g id="edge9" class="edge">
<title>GO:0031090&#45;&gt;GO:0044422</title>
<path fill="none" stroke="#000000" d="M106.1599,-444.4182C119.691,-455.8268 136.6246,-470.1042 151.1918,-482.3863"/>
<polygon fill="#000000" stroke="#000000" points="149.1032,-485.2033 159.0045,-488.9735 153.6154,-479.8517 149.1032,-485.2033"/>
</g>
<!-- GO:0044446 -->
<g id="node10" class="node">
<title>GO:0044446</title>
<polygon fill="#ffffff" stroke="#000000" points="342.1869,-453.0014 202.7501,-453.0014 202.7501,-394.1986 342.1869,-394.1986 342.1869,-453.0014"/>
<text text-anchor="middle" x="272.4685" y="-436.2" font-family="Times,serif" font-size="14.00" fill="#000000">GO:0044446</text>
<text text-anchor="middle" x="272.4685" y="-419.4" font-family="Times,serif" font-size="14.00" fill="#000000">intracellular organelle</text>
<text text-anchor="middle" x="272.4685" y="-402.6" font-family="Times,serif" font-size="14.00" fill="#000000">part</text>
</g>
<!-- GO:0044429&#45;&gt;GO:0044446 -->
<g id="edge10" class="edge">
<title>GO:0044429&#45;&gt;GO:0044446</title>
<path fill="none" stroke="#000000" d="M277.2543,-341.6031C276.5434,-353.7833 275.6221,-369.5676 274.778,-384.0305"/>
<polygon fill="#000000" stroke="#000000" points="271.2698,-384.0708 274.1811,-394.2577 278.2579,-384.4787 271.2698,-384.0708"/>
</g>
<!-- GO:0044444 -->
<g id="node11" class="node">
<title>GO:0044444</title>
<polygon fill="#ffffff" stroke="#000000" points="468.8851,-444.2019 360.0519,-444.2019 360.0519,-402.9981 468.8851,-402.9981 468.8851,-444.2019"/>
<text text-anchor="middle" x="414.4685" y="-427.8" font-family="Times,serif" font-size="14.00" fill="#000000">GO:0044444</text>
<text text-anchor="middle" x="414.4685" y="-411" font-family="Times,serif" font-size="14.00" fill="#000000">cytoplasmic part</text>
</g>
<!-- GO:0044429&#45;&gt;GO:0044444 -->
<g id="edge11" class="edge">
<title>GO:0044429&#45;&gt;GO:0044444</title>
<path fill="none" stroke="#000000" d="M305.9901,-341.6031C327.0048,-357.4877 356.1287,-379.502 378.9089,-396.7211"/>
<polygon fill="#000000" stroke="#000000" points="376.8999,-399.5899 386.9878,-402.8278 381.1209,-394.0057 376.8999,-399.5899"/>
</g>
<!-- GO:0005575 -->
<g id="node12" class="node">
<title>GO:0005575</title>
<polygon fill="#ffffff" stroke="#000000" points="628.1552,-685.4019 500.7818,-685.4019 500.7818,-644.1981 628.1552,-644.1981 628.1552,-685.4019"/>
<text text-anchor="middle" x="564.4685" y="-669" font-family="Times,serif" font-size="14.00" fill="#000000">GO:0005575</text>
<text text-anchor="middle" x="564.4685" y="-652.2" font-family="Times,serif" font-size="14.00" fill="#000000">cellular_component</text>
</g>
<!-- GO:0044464&#45;&gt;GO:0005575 -->
<g id="edge12" class="edge">
<title>GO:0044464&#45;&gt;GO:0005575</title>
<path fill="none" stroke="#000000" d="M564.4685,-607.9954C564.4685,-615.9109 564.4685,-625.1109 564.4685,-633.7722"/>
<polygon fill="#000000" stroke="#000000" points="560.9686,-633.9472 564.4685,-643.9472 567.9686,-633.9473 560.9686,-633.9472"/>
</g>
<!-- GO:0016020&#45;&gt;GO:0005575 -->
<g id="edge13" class="edge">
<title>GO:0016020&#45;&gt;GO:0005575</title>
<path fill="none" stroke="#000000" d="M438.3967,-607.5885C460.2265,-617.4949 486.6498,-629.4858 509.6555,-639.9258"/>
<polygon fill="#000000" stroke="#000000" points="508.3963,-643.1979 518.9489,-644.1432 511.2891,-636.8235 508.3963,-643.1979"/>
</g>
<!-- GO:0044422&#45;&gt;GO:0005575 -->
<g id="edge14" class="edge">
<title>GO:0044422&#45;&gt;GO:0005575</title>
<path fill="none" stroke="#000000" d="M210.4551,-530.3714C240.4472,-552.5333 291.0553,-587.2448 339.4685,-608 388.0079,-628.8092 445.8326,-643.2005 490.7064,-652.2903"/>
<polygon fill="#000000" stroke="#000000" points="490.1664,-655.7513 500.656,-654.2622 491.5273,-648.8848 490.1664,-655.7513"/>
</g>
<!-- GO:0044446&#45;&gt;GO:0044424 -->
<g id="edge15" class="edge">
<title>GO:0044446&#45;&gt;GO:0044424</title>
<path fill="none" stroke="#000000" d="M342.0946,-449.8757C345.2517,-450.8963 348.387,-451.8766 351.4685,-452.8 416.3041,-472.2275 436.5987,-470.0884 506.0845,-488.8208"/>
<polygon fill="#000000" stroke="#000000" points="505.1799,-492.2019 515.7497,-491.474 507.033,-485.4517 505.1799,-492.2019"/>
</g>
<!-- GO:0044446&#45;&gt;GO:0044422 -->
<g id="edge16" class="edge">
<title>GO:0044446&#45;&gt;GO:0044422</title>
<path fill="none" stroke="#000000" d="M241.8397,-453.1963C232.2382,-462.4742 221.6793,-472.6772 212.2128,-481.8246"/>
<polygon fill="#000000" stroke="#000000" points="209.6533,-479.4308 204.8942,-488.8966 214.5175,-484.4646 209.6533,-479.4308"/>
</g>
<!-- GO:0044444&#45;&gt;GO:0044424 -->
<g id="edge17" class="edge">
<title>GO:0044444&#45;&gt;GO:0044424</title>
<path fill="none" stroke="#000000" d="M452.2317,-444.4182C473.8846,-456.355 501.2341,-471.4323 524.1743,-484.0788"/>
<polygon fill="#000000" stroke="#000000" points="522.6058,-487.2108 533.053,-488.9735 525.9853,-481.0806 522.6058,-487.2108"/>
</g>
<!-- GO:0098805 -->
<g id="node13" class="node">
<title>GO:0098805</title>
<polygon fill="#ffffff" stroke="#000000" points="360.7661,-530.2019 248.1709,-530.2019 248.1709,-488.9981 360.7661,-488.9981 360.7661,-530.2019"/>
<text text-anchor="middle" x="304.4685" y="-513.8" font-family="Times,serif" font-size="14.00" fill="#000000">GO:0098805</text>
<text text-anchor="middle" x="304.4685" y="-497" font-family="Times,serif" font-size="14.00" fill="#000000">whole membrane</text>
</g>
<!-- GO:0098805&#45;&gt;GO:0016020 -->
<g id="edge18" class="edge">
<title>GO:0098805&#45;&gt;GO:0016020</title>
<path fill="none" stroke="#000000" d="M328.3189,-530.3954C338.5943,-539.3547 350.7573,-549.9596 361.7752,-559.5663"/>
<polygon fill="#000000" stroke="#000000" points="359.7148,-562.4134 369.5523,-566.3472 364.3151,-557.1373 359.7148,-562.4134"/>
</g>
<!-- GO:0005777 -->
<g id="node14" class="node">
<title>GO:0005777</title>
<polygon fill="#ffffff" stroke="#000000" points="636.0724,-144.2019 546.8646,-144.2019 546.8646,-102.9981 636.0724,-102.9981 636.0724,-144.2019"/>
<text text-anchor="middle" x="591.4685" y="-127.8" font-family="Times,serif" font-size="14.00" fill="#000000">GO:0005777</text>
<text text-anchor="middle" x="591.4685" y="-111" font-family="Times,serif" font-size="14.00" fill="#000000">peroxisome</text>
</g>
<!-- GO:0042579 -->
<g id="node15" class="node">
<title>GO:0042579</title>
<polygon fill="#ffffff" stroke="#000000" points="636.0724,-238.6019 546.8646,-238.6019 546.8646,-197.3981 636.0724,-197.3981 636.0724,-238.6019"/>
<text text-anchor="middle" x="591.4685" y="-222.2" font-family="Times,serif" font-size="14.00" fill="#000000">GO:0042579</text>
<text text-anchor="middle" x="591.4685" y="-205.4" font-family="Times,serif" font-size="14.00" fill="#000000">microbody</text>
</g>
<!-- GO:0005777&#45;&gt;GO:0042579 -->
<g id="edge19" class="edge">
<title>GO:0005777&#45;&gt;GO:0042579</title>
<path fill="none" stroke="#000000" d="M591.4685,-144.5504C591.4685,-157.0165 591.4685,-173.0645 591.4685,-186.9786"/>
<polygon fill="#000000" stroke="#000000" points="587.9686,-187.1081 591.4685,-197.1081 594.9686,-187.1082 587.9686,-187.1081"/>
</g>
<!-- GO:0042579&#45;&gt;GO:0044444 -->
<g id="edge20" class="edge">
<title>GO:0042579&#45;&gt;GO:0044444</title>
<path fill="none" stroke="#000000" d="M576.6247,-238.6849C556.221,-266.698 517.8851,-317.8543 481.4685,-358.4 469.9918,-371.1779 456.5551,-384.5326 444.7397,-395.8039"/>
<polygon fill="#000000" stroke="#000000" points="442.112,-393.4714 437.2463,-402.8829 446.9191,-398.5599 442.112,-393.4714"/>
</g>
<!-- GO:0043231 -->
<g id="node16" class="node">
<title>GO:0043231</title>
<polygon fill="#ffffff" stroke="#000000" points="816.8473,-350.2014 666.0897,-350.2014 666.0897,-291.3986 816.8473,-291.3986 816.8473,-350.2014"/>
<text text-anchor="middle" x="741.4685" y="-333.4" font-family="Times,serif" font-size="14.00" fill="#000000">GO:0043231</text>
<text text-anchor="middle" x="741.4685" y="-316.6" font-family="Times,serif" font-size="14.00" fill="#000000">intracellular membrane&#45;</text>
<text text-anchor="middle" x="741.4685" y="-299.8" font-family="Times,serif" font-size="14.00" fill="#000000">bounded organelle</text>
</g>
<!-- GO:0042579&#45;&gt;GO:0043231 -->
<g id="edge21" class="edge">
<title>GO:0042579&#45;&gt;GO:0043231</title>
<path fill="none" stroke="#000000" d="M621.8232,-238.8031C641.4077,-252.225 667.3779,-270.0232 690.1171,-285.6072"/>
<polygon fill="#000000" stroke="#000000" points="688.4265,-288.6916 698.6539,-291.4577 692.3838,-282.9175 688.4265,-288.6916"/>
</g>
<!-- GO:0043229 -->
<g id="node17" class="node">
<title>GO:0043229</title>
<polygon fill="#ffffff" stroke="#000000" points="811.1869,-444.2019 671.7501,-444.2019 671.7501,-402.9981 811.1869,-402.9981 811.1869,-444.2019"/>
<text text-anchor="middle" x="741.4685" y="-427.8" font-family="Times,serif" font-size="14.00" fill="#000000">GO:0043229</text>
<text text-anchor="middle" x="741.4685" y="-411" font-family="Times,serif" font-size="14.00" fill="#000000">intracellular organelle</text>
</g>
<!-- GO:0043231&#45;&gt;GO:0043229 -->
<g id="edge22" class="edge">
<title>GO:0043231&#45;&gt;GO:0043229</title>
<path fill="none" stroke="#000000" d="M741.4685,-350.2584C741.4685,-363.5539 741.4685,-379.2608 741.4685,-392.7212"/>
<polygon fill="#000000" stroke="#000000" points="737.9686,-392.9456 741.4685,-402.9456 744.9686,-392.9457 737.9686,-392.9456"/>
</g>
<!-- GO:0043227 -->
<g id="node18" class="node">
<title>GO:0043227</title>
<polygon fill="#ffffff" stroke="#000000" points="957.4293,-453.0014 829.5077,-453.0014 829.5077,-394.1986 957.4293,-394.1986 957.4293,-453.0014"/>
<text text-anchor="middle" x="893.4685" y="-436.2" font-family="Times,serif" font-size="14.00" fill="#000000">GO:0043227</text>
<text text-anchor="middle" x="893.4685" y="-419.4" font-family="Times,serif" font-size="14.00" fill="#000000">membrane&#45;bounded</text>
<text text-anchor="middle" x="893.4685" y="-402.6" font-family="Times,serif" font-size="14.00" fill="#000000">organelle</text>
</g>
<!-- GO:0043231&#45;&gt;GO:0043227 -->
<g id="edge23" class="edge">
<title>GO:0043231&#45;&gt;GO:0043227</title>
<path fill="none" stroke="#000000" d="M785.0256,-350.2584C802.751,-362.2464 823.375,-376.1947 841.8493,-388.6891"/>
<polygon fill="#000000" stroke="#000000" points="839.9238,-391.6121 850.168,-394.3152 843.8454,-385.8137 839.9238,-391.6121"/>
</g>
<!-- GO:0043229&#45;&gt;GO:0044424 -->
<g id="edge24" class="edge">
<title>GO:0043229&#45;&gt;GO:0044424</title>
<path fill="none" stroke="#000000" d="M700.0742,-444.4182C676.1293,-456.4606 645.8289,-471.6994 620.5476,-484.414"/>
<polygon fill="#000000" stroke="#000000" points="618.8429,-481.3536 611.4816,-488.9735 621.988,-487.6073 618.8429,-481.3536"/>
</g>
<!-- GO:0043226 -->
<g id="node19" class="node">
<title>GO:0043226</title>
<polygon fill="#ffffff" stroke="#000000" points="786.0724,-530.2019 696.8646,-530.2019 696.8646,-488.9981 786.0724,-488.9981 786.0724,-530.2019"/>
<text text-anchor="middle" x="741.4685" y="-513.8" font-family="Times,serif" font-size="14.00" fill="#000000">GO:0043226</text>
<text text-anchor="middle" x="741.4685" y="-497" font-family="Times,serif" font-size="14.00" fill="#000000">organelle</text>
</g>
<!-- GO:0043229&#45;&gt;GO:0043226 -->
<g id="edge25" class="edge">
<title>GO:0043229&#45;&gt;GO:0043226</title>
<path fill="none" stroke="#000000" d="M741.4685,-444.4182C741.4685,-454.7705 741.4685,-467.4848 741.4685,-478.9271"/>
<polygon fill="#000000" stroke="#000000" points="737.9686,-478.9735 741.4685,-488.9735 744.9686,-478.9735 737.9686,-478.9735"/>
</g>
<!-- GO:0043227&#45;&gt;GO:0043226 -->
<g id="edge26" class="edge">
<title>GO:0043227&#45;&gt;GO:0043226</title>
<path fill="none" stroke="#000000" d="M841.5839,-452.9558C823.8606,-462.9834 804.1855,-474.1154 787.0009,-483.8383"/>
<polygon fill="#000000" stroke="#000000" points="785.2449,-480.8103 778.265,-488.7809 788.692,-486.9028 785.2449,-480.8103"/>
</g>
<!-- GO:0043226&#45;&gt;GO:0005575 -->
<g id="edge27" class="edge">
<title>GO:0043226&#45;&gt;GO:0005575</title>
<path fill="none" stroke="#000000" d="M706.605,-530.2058C690.6744,-540.285 671.9494,-553.098 656.4685,-566.4 637.4754,-582.7198 635.5408,-589.6803 618.4685,-608 609.6995,-617.4097 600.0435,-627.615 591.3512,-636.7454"/>
<polygon fill="#000000" stroke="#000000" points="588.6858,-634.4688 584.317,-644.121 593.7515,-639.3 588.6858,-634.4688"/>
</g>
<!-- GO:0005886 -->
<g id="node20" class="node">
<title>GO:0005886</title>
<polygon fill="#ffffff" stroke="#000000" points="497.7093,-530.2019 379.2277,-530.2019 379.2277,-488.9981 497.7093,-488.9981 497.7093,-530.2019"/>
<text text-anchor="middle" x="438.4685" y="-513.8" font-family="Times,serif" font-size="14.00" fill="#000000">GO:0005886</text>
<text text-anchor="middle" x="438.4685" y="-497" font-family="Times,serif" font-size="14.00" fill="#000000">plasma membrane</text>
</g>
<!-- GO:0005886&#45;&gt;GO:0044464 -->
<g id="edge29" class="edge">
<title>GO:0005886&#45;&gt;GO:0044464</title>
<path fill="none" stroke="#000000" d="M472.2342,-530.3954C487.4877,-539.7896 505.679,-550.9931 521.859,-560.958"/>
<polygon fill="#000000" stroke="#000000" points="520.2595,-564.0833 530.6096,-566.3472 523.9303,-558.123 520.2595,-564.0833"/>
</g>
<!-- GO:0005886&#45;&gt;GO:0016020 -->
<g id="edge28" class="edge">
<title>GO:0005886&#45;&gt;GO:0016020</title>
<path fill="none" stroke="#000000" d="M426.4093,-530.3954C421.567,-538.7458 415.8956,-548.5258 410.6365,-557.5947"/>
<polygon fill="#000000" stroke="#000000" points="407.5498,-555.9407 405.561,-566.3472 413.6053,-559.4523 407.5498,-555.9407"/>
</g>
<!-- GO:0043190 -->
<g id="node21" class="node">
<title>GO:0043190</title>
<polygon fill="#ffffff" stroke="#000000" points="1251.4167,-247.4014 1081.5203,-247.4014 1081.5203,-188.5986 1251.4167,-188.5986 1251.4167,-247.4014"/>
<text text-anchor="middle" x="1166.4685" y="-230.6" font-family="Times,serif" font-size="14.00" fill="#000000">GO:0043190</text>
<text text-anchor="middle" x="1166.4685" y="-213.8" font-family="Times,serif" font-size="14.00" fill="#000000">ATP&#45;binding cassette</text>
<text text-anchor="middle" x="1166.4685" y="-197" font-family="Times,serif" font-size="14.00" fill="#000000">(ABC) transporter complex</text>
</g>
<!-- GO:0098797 -->
<g id="node22" class="node">
<title>GO:0098797</title>
<polygon fill="#ffffff" stroke="#000000" points="1137.366,-453.0014 975.571,-453.0014 975.571,-394.1986 1137.366,-394.1986 1137.366,-453.0014"/>
<text text-anchor="middle" x="1056.4685" y="-436.2" font-family="Times,serif" font-size="14.00" fill="#000000">GO:0098797</text>
<text text-anchor="middle" x="1056.4685" y="-419.4" font-family="Times,serif" font-size="14.00" fill="#000000">plasma membrane protein</text>
<text text-anchor="middle" x="1056.4685" y="-402.6" font-family="Times,serif" font-size="14.00" fill="#000000">complex</text>
</g>
<!-- GO:0043190&#45;&gt;GO:0098797 -->
<g id="edge30" class="edge">
<title>GO:0043190&#45;&gt;GO:0098797</title>
<path fill="none" stroke="#000000" d="M1150.7082,-247.4575C1131.3083,-283.7175 1098.3179,-345.3797 1076.9655,-385.2892"/>
<polygon fill="#000000" stroke="#000000" points="1073.831,-383.7287 1072.1996,-394.1972 1080.0032,-387.0309 1073.831,-383.7287"/>
</g>
<!-- GO:0098533 -->
<g id="node23" class="node">
<title>GO:0098533</title>
<polygon fill="#ffffff" stroke="#000000" points="1316.0267,-358.5003 1160.9103,-358.5003 1160.9103,-283.0997 1316.0267,-283.0997 1316.0267,-358.5003"/>
<text text-anchor="middle" x="1238.4685" y="-341.8" font-family="Times,serif" font-size="14.00" fill="#000000">GO:0098533</text>
<text text-anchor="middle" x="1238.4685" y="-325" font-family="Times,serif" font-size="14.00" fill="#000000">ATPase dependent</text>
<text text-anchor="middle" x="1238.4685" y="-308.2" font-family="Times,serif" font-size="14.00" fill="#000000">transmembrane transport</text>
<text text-anchor="middle" x="1238.4685" y="-291.4" font-family="Times,serif" font-size="14.00" fill="#000000">complex</text>
</g>
<!-- GO:0043190&#45;&gt;GO:0098533 -->
<g id="edge31" class="edge">
<title>GO:0043190&#45;&gt;GO:0098533</title>
<path fill="none" stroke="#000000" d="M1187.1008,-247.4584C1193.0184,-255.9074 1199.618,-265.3302 1206.0625,-274.5314"/>
<polygon fill="#000000" stroke="#000000" points="1203.3096,-276.702 1211.9132,-282.885 1209.0432,-272.6862 1203.3096,-276.702"/>
</g>
<!-- GO:0098796 -->
<g id="node24" class="node">
<title>GO:0098796</title>
<polygon fill="#ffffff" stroke="#000000" points="1156.4209,-530.2019 986.5161,-530.2019 986.5161,-488.9981 1156.4209,-488.9981 1156.4209,-530.2019"/>
<text text-anchor="middle" x="1071.4685" y="-513.8" font-family="Times,serif" font-size="14.00" fill="#000000">GO:0098796</text>
<text text-anchor="middle" x="1071.4685" y="-497" font-family="Times,serif" font-size="14.00" fill="#000000">membrane protein complex</text>
</g>
<!-- GO:0098797&#45;&gt;GO:0098796 -->
<g id="edge32" class="edge">
<title>GO:0098797&#45;&gt;GO:0098796</title>
<path fill="none" stroke="#000000" d="M1061.6306,-453.1963C1063.0726,-461.4638 1064.6428,-470.4657 1066.0966,-478.8008"/>
<polygon fill="#000000" stroke="#000000" points="1062.6912,-479.6467 1067.8574,-488.8966 1069.5871,-478.4439 1062.6912,-479.6467"/>
</g>
<!-- GO:0044459 -->
<g id="node25" class="node">
<title>GO:0044459</title>
<polygon fill="#ffffff" stroke="#000000" points="967.9757,-530.2019 824.9613,-530.2019 824.9613,-488.9981 967.9757,-488.9981 967.9757,-530.2019"/>
<text text-anchor="middle" x="896.4685" y="-513.8" font-family="Times,serif" font-size="14.00" fill="#000000">GO:0044459</text>
<text text-anchor="middle" x="896.4685" y="-497" font-family="Times,serif" font-size="14.00" fill="#000000">plasma membrane part</text>
</g>
<!-- GO:0098797&#45;&gt;GO:0044459 -->
<g id="edge33" class="edge">
<title>GO:0098797&#45;&gt;GO:0044459</title>
<path fill="none" stroke="#000000" d="M1001.8531,-452.9558C983.1971,-462.9834 962.4864,-474.1154 944.3973,-483.8383"/>
<polygon fill="#000000" stroke="#000000" points="942.3528,-480.9636 935.2016,-488.7809 945.667,-487.1293 942.3528,-480.9636"/>
</g>
<!-- GO:1904949 -->
<g id="node26" class="node">
<title>GO:1904949</title>
<polygon fill="#ffffff" stroke="#000000" points="1593.4945,-444.2019 1481.4425,-444.2019 1481.4425,-402.9981 1593.4945,-402.9981 1593.4945,-444.2019"/>
<text text-anchor="middle" x="1537.4685" y="-427.8" font-family="Times,serif" font-size="14.00" fill="#000000">GO:1904949</text>
<text text-anchor="middle" x="1537.4685" y="-411" font-family="Times,serif" font-size="14.00" fill="#000000">ATPase complex</text>
</g>
<!-- GO:0098533&#45;&gt;GO:1904949 -->
<g id="edge34" class="edge">
<title>GO:0098533&#45;&gt;GO:1904949</title>
<path fill="none" stroke="#000000" d="M1316.1857,-342.7481C1362.1038,-356.3325 1421.1203,-374.8685 1472.4685,-394.4 1476.1993,-395.8191 1480.0223,-397.3444 1483.8548,-398.9264"/>
<polygon fill="#000000" stroke="#000000" points="1482.7811,-402.2725 1493.3544,-402.9481 1485.5101,-395.8264 1482.7811,-402.2725"/>
</g>
<!-- GO:1902495 -->
<g id="node27" class="node">
<title>GO:1902495</title>
<polygon fill="#ffffff" stroke="#000000" points="1321.9019,-453.0014 1155.0351,-453.0014 1155.0351,-394.1986 1321.9019,-394.1986 1321.9019,-453.0014"/>
<text text-anchor="middle" x="1238.4685" y="-436.2" font-family="Times,serif" font-size="14.00" fill="#000000">GO:1902495</text>
<text text-anchor="middle" x="1238.4685" y="-419.4" font-family="Times,serif" font-size="14.00" fill="#000000">transmembrane transporter</text>
<text text-anchor="middle" x="1238.4685" y="-402.6" font-family="Times,serif" font-size="14.00" fill="#000000">complex</text>
</g>
<!-- GO:0098533&#45;&gt;GO:1902495 -->
<g id="edge35" class="edge">
<title>GO:0098533&#45;&gt;GO:1902495</title>
<path fill="none" stroke="#000000" d="M1238.4685,-358.4952C1238.4685,-366.8874 1238.4685,-375.8054 1238.4685,-384.2618"/>
<polygon fill="#000000" stroke="#000000" points="1234.9686,-384.2813 1238.4685,-394.2814 1241.9686,-384.2814 1234.9686,-384.2813"/>
</g>
<!-- GO:0043234 -->
<g id="node28" class="node">
<title>GO:0043234</title>
<polygon fill="#ffffff" stroke="#000000" points="1292.3359,-607.8019 1184.6011,-607.8019 1184.6011,-566.5981 1292.3359,-566.5981 1292.3359,-607.8019"/>
<text text-anchor="middle" x="1238.4685" y="-591.4" font-family="Times,serif" font-size="14.00" fill="#000000">GO:0043234</text>
<text text-anchor="middle" x="1238.4685" y="-574.6" font-family="Times,serif" font-size="14.00" fill="#000000">protein complex</text>
</g>
<!-- GO:0098796&#45;&gt;GO:0043234 -->
<g id="edge36" class="edge">
<title>GO:0098796&#45;&gt;GO:0043234</title>
<path fill="none" stroke="#000000" d="M1116.2214,-530.3954C1137.2717,-540.1768 1162.5433,-551.9198 1184.6318,-562.1837"/>
<polygon fill="#000000" stroke="#000000" points="1183.3382,-565.4419 1193.8818,-566.4819 1186.288,-559.0938 1183.3382,-565.4419"/>
</g>
<!-- GO:0044425 -->
<g id="node29" class="node">
<title>GO:0044425</title>
<polygon fill="#ffffff" stroke="#000000" points="951.8205,-607.8019 851.1165,-607.8019 851.1165,-566.5981 951.8205,-566.5981 951.8205,-607.8019"/>
<text text-anchor="middle" x="901.4685" y="-591.4" font-family="Times,serif" font-size="14.00" fill="#000000">GO:0044425</text>
<text text-anchor="middle" x="901.4685" y="-574.6" font-family="Times,serif" font-size="14.00" fill="#000000">membrane part</text>
</g>
<!-- GO:0098796&#45;&gt;GO:0044425 -->
<g id="edge37" class="edge">
<title>GO:0098796&#45;&gt;GO:0044425</title>
<path fill="none" stroke="#000000" d="M1025.9116,-530.3954C1004.3876,-540.2205 978.5278,-552.0247 955.9714,-562.321"/>
<polygon fill="#000000" stroke="#000000" points="954.4998,-559.1453 946.8561,-566.4819 957.4066,-565.5133 954.4998,-559.1453"/>
</g>
<!-- GO:0044459&#45;&gt;GO:0044464 -->
<g id="edge39" class="edge">
<title>GO:0044459&#45;&gt;GO:0044464</title>
<path fill="none" stroke="#000000" d="M824.8382,-526.3425C763.1579,-540.7593 675.4483,-561.2601 619.2441,-574.397"/>
<polygon fill="#000000" stroke="#000000" points="618.4144,-570.9965 609.4735,-576.6808 620.0077,-577.8128 618.4144,-570.9965"/>
</g>
<!-- GO:0044459&#45;&gt;GO:0044425 -->
<g id="edge38" class="edge">
<title>GO:0044459&#45;&gt;GO:0044425</title>
<path fill="none" stroke="#000000" d="M897.8084,-530.3954C898.3184,-538.3109 898.9112,-547.5109 899.4693,-556.1722"/>
<polygon fill="#000000" stroke="#000000" points="895.989,-556.593 900.1249,-566.3472 902.9746,-556.1428 895.989,-556.593"/>
</g>
<!-- GO:1902494 -->
<g id="node30" class="node">
<title>GO:1902494</title>
<polygon fill="#ffffff" stroke="#000000" points="1588.0998,-530.2019 1472.8372,-530.2019 1472.8372,-488.9981 1588.0998,-488.9981 1588.0998,-530.2019"/>
<text text-anchor="middle" x="1530.4685" y="-513.8" font-family="Times,serif" font-size="14.00" fill="#000000">GO:1902494</text>
<text text-anchor="middle" x="1530.4685" y="-497" font-family="Times,serif" font-size="14.00" fill="#000000">catalytic complex</text>
</g>
<!-- GO:1904949&#45;&gt;GO:1902494 -->
<g id="edge40" class="edge">
<title>GO:1904949&#45;&gt;GO:1902494</title>
<path fill="none" stroke="#000000" d="M1535.774,-444.4182C1534.9314,-454.7705 1533.8965,-467.4848 1532.9651,-478.9271"/>
<polygon fill="#000000" stroke="#000000" points="1529.4703,-478.7225 1532.1474,-488.9735 1536.4472,-479.2905 1529.4703,-478.7225"/>
</g>
<!-- GO:1902495&#45;&gt;GO:0098796 -->
<g id="edge41" class="edge">
<title>GO:1902495&#45;&gt;GO:0098796</title>
<path fill="none" stroke="#000000" d="M1181.4637,-452.9558C1161.7316,-463.1172 1139.7973,-474.4127 1120.7398,-484.2267"/>
<polygon fill="#000000" stroke="#000000" points="1118.9256,-481.2241 1111.6377,-488.9141 1122.1305,-487.4474 1118.9256,-481.2241"/>
</g>
<!-- GO:1990351 -->
<g id="node31" class="node">
<title>GO:1990351</title>
<polygon fill="#ffffff" stroke="#000000" points="1302.8162,-530.2019 1174.1208,-530.2019 1174.1208,-488.9981 1302.8162,-488.9981 1302.8162,-530.2019"/>
<text text-anchor="middle" x="1238.4685" y="-513.8" font-family="Times,serif" font-size="14.00" fill="#000000">GO:1990351</text>
<text text-anchor="middle" x="1238.4685" y="-497" font-family="Times,serif" font-size="14.00" fill="#000000">transporter complex</text>
</g>
<!-- GO:1902495&#45;&gt;GO:1990351 -->
<g id="edge42" class="edge">
<title>GO:1902495&#45;&gt;GO:1990351</title>
<path fill="none" stroke="#000000" d="M1238.4685,-453.1963C1238.4685,-461.4638 1238.4685,-470.4657 1238.4685,-478.8008"/>
<polygon fill="#000000" stroke="#000000" points="1234.9686,-478.8965 1238.4685,-488.8966 1241.9686,-478.8966 1234.9686,-478.8965"/>
</g>
<!-- GO:0032991 -->
<g id="node32" class="node">
<title>GO:0032991</title>
<polygon fill="#ffffff" stroke="#000000" points="1075.6358,-685.4019 917.3012,-685.4019 917.3012,-644.1981 1075.6358,-644.1981 1075.6358,-685.4019"/>
<text text-anchor="middle" x="996.4685" y="-669" font-family="Times,serif" font-size="14.00" fill="#000000">GO:0032991</text>
<text text-anchor="middle" x="996.4685" y="-652.2" font-family="Times,serif" font-size="14.00" fill="#000000">macromolecular complex</text>
</g>
<!-- GO:0043234&#45;&gt;GO:0032991 -->
<g id="edge43" class="edge">
<title>GO:0043234&#45;&gt;GO:0032991</title>
<path fill="none" stroke="#000000" d="M1184.7609,-604.422C1151.1427,-615.202 1107.3629,-629.2405 1070.4795,-641.0675"/>
<polygon fill="#000000" stroke="#000000" points="1069.2227,-637.7949 1060.769,-644.1813 1071.3601,-644.4606 1069.2227,-637.7949"/>
</g>
<!-- GO:0044425&#45;&gt;GO:0005575 -->
<g id="edge44" class="edge">
<title>GO:0044425&#45;&gt;GO:0005575</title>
<path fill="none" stroke="#000000" d="M851.083,-605.4754C848.1807,-606.368 845.2945,-607.2171 842.4685,-608 774.0606,-626.9501 694.5831,-642.5632 638.1721,-652.5919"/>
<polygon fill="#000000" stroke="#000000" points="637.5087,-649.1548 628.2679,-654.3374 638.7237,-656.0485 637.5087,-649.1548"/>
</g>
<!-- GO:1902494&#45;&gt;GO:0043234 -->
<g id="edge45" class="edge">
<title>GO:1902494&#45;&gt;GO:0043234</title>
<path fill="none" stroke="#000000" d="M1472.7834,-527.7239C1469.6373,-528.645 1466.5169,-529.5427 1463.4685,-530.4 1409.3837,-545.6101 1347.4565,-561.104 1302.2802,-572.059"/>
<polygon fill="#000000" stroke="#000000" points="1301.2259,-568.713 1292.3282,-574.4647 1302.8706,-575.517 1301.2259,-568.713"/>
</g>
<!-- GO:1990351&#45;&gt;GO:0043234 -->
<g id="edge46" class="edge">
<title>GO:1990351&#45;&gt;GO:0043234</title>
<path fill="none" stroke="#000000" d="M1238.4685,-530.3954C1238.4685,-538.3109 1238.4685,-547.5109 1238.4685,-556.1722"/>
<polygon fill="#000000" stroke="#000000" points="1234.9686,-556.3472 1238.4685,-566.3472 1241.9686,-556.3473 1234.9686,-556.3472"/>
</g>
<!-- GO:0009380 -->
<g id="node33" class="node">
<title>GO:0009380</title>
<polygon fill="#ffffff" stroke="#000000" points="1463.1234,-453.0014 1339.8136,-453.0014 1339.8136,-394.1986 1463.1234,-394.1986 1463.1234,-453.0014"/>
<text text-anchor="middle" x="1401.4685" y="-436.2" font-family="Times,serif" font-size="14.00" fill="#000000">GO:0009380</text>
<text text-anchor="middle" x="1401.4685" y="-419.4" font-family="Times,serif" font-size="14.00" fill="#000000">excinuclease repair</text>
<text text-anchor="middle" x="1401.4685" y="-402.6" font-family="Times,serif" font-size="14.00" fill="#000000">complex</text>
</g>
<!-- GO:0009380&#45;&gt;GO:0044424 -->
<g id="edge48" class="edge">
<title>GO:0009380&#45;&gt;GO:0044424</title>
<path fill="none" stroke="#000000" d="M1339.5143,-450.45C1336.4835,-451.3299 1333.458,-452.1219 1330.4685,-452.8 1051.3341,-516.116 971.7724,-455.6909 687.4685,-488.8 670.3381,-490.795 651.9197,-493.7049 634.8812,-496.7196"/>
<polygon fill="#000000" stroke="#000000" points="634.2466,-493.2774 625.0287,-498.5005 635.4918,-500.1658 634.2466,-493.2774"/>
</g>
<!-- GO:0009380&#45;&gt;GO:1902494 -->
<g id="edge49" class="edge">
<title>GO:0009380&#45;&gt;GO:1902494</title>
<path fill="none" stroke="#000000" d="M1445.5022,-452.9558C1460.1296,-462.7074 1476.3237,-473.5035 1490.617,-483.0323"/>
<polygon fill="#000000" stroke="#000000" points="1488.9779,-486.1461 1499.2399,-488.7809 1492.8609,-480.3217 1488.9779,-486.1461"/>
</g>
<!-- GO:1990391 -->
<g id="node34" class="node">
<title>GO:1990391</title>
<polygon fill="#ffffff" stroke="#000000" points="1454.6398,-530.2019 1320.2972,-530.2019 1320.2972,-488.9981 1454.6398,-488.9981 1454.6398,-530.2019"/>
<text text-anchor="middle" x="1387.4685" y="-513.8" font-family="Times,serif" font-size="14.00" fill="#000000">GO:1990391</text>
<text text-anchor="middle" x="1387.4685" y="-497" font-family="Times,serif" font-size="14.00" fill="#000000">DNA repair complex</text>
</g>
<!-- GO:0009380&#45;&gt;GO:1990391 -->
<g id="edge47" class="edge">
<title>GO:0009380&#45;&gt;GO:1990391</title>
<path fill="none" stroke="#000000" d="M1396.6505,-453.1963C1395.3046,-461.4638 1393.8392,-470.4657 1392.4823,-478.8008"/>
<polygon fill="#000000" stroke="#000000" points="1388.9911,-478.4641 1390.8388,-488.8966 1395.9002,-479.5889 1388.9911,-478.4641"/>
</g>
<!-- GO:1990391&#45;&gt;GO:0043234 -->
<g id="edge50" class="edge">
<title>GO:1990391&#45;&gt;GO:0043234</title>
<path fill="none" stroke="#000000" d="M1347.5392,-530.3954C1329.0094,-540.0458 1306.8134,-551.6056 1287.2958,-561.7705"/>
<polygon fill="#000000" stroke="#000000" points="1285.5019,-558.7584 1278.2494,-566.4819 1288.7354,-564.9669 1285.5019,-558.7584"/>
</g>
<!-- GO:0005762 -->
<g id="node35" class="node">
<title>GO:0005762</title>
<polygon fill="#ffffff" stroke="#000000" points="413.4917,-58.6014 287.4453,-58.6014 287.4453,.2014 413.4917,.2014 413.4917,-58.6014"/>
<text text-anchor="middle" x="350.4685" y="-41.8" font-family="Times,serif" font-size="14.00" fill="#000000">GO:0005762</text>
<text text-anchor="middle" x="350.4685" y="-25" font-family="Times,serif" font-size="14.00" fill="#000000">mitochondrial large</text>
<text text-anchor="middle" x="350.4685" y="-8.2" font-family="Times,serif" font-size="14.00" fill="#000000">ribosomal subunit</text>
</g>
<!-- GO:0005762&#45;&gt;GO:0044429 -->
<g id="edge52" class="edge">
<title>GO:0005762&#45;&gt;GO:0044429</title>
<path fill="none" stroke="#000000" d="M342.0939,-58.677C338.9837,-69.8436 335.4814,-82.6861 332.4685,-94.4 314.5214,-164.1761 295.3793,-246.58 285.4127,-290.1743"/>
<polygon fill="#000000" stroke="#000000" points="281.9517,-289.6094 283.1403,-300.1374 288.7765,-291.1661 281.9517,-289.6094"/>
</g>
<!-- GO:0000315 -->
<g id="node36" class="node">
<title>GO:0000315</title>
<polygon fill="#ffffff" stroke="#000000" points="457.6862,-153.0014 341.2508,-153.0014 341.2508,-94.1986 457.6862,-94.1986 457.6862,-153.0014"/>
<text text-anchor="middle" x="399.4685" y="-136.2" font-family="Times,serif" font-size="14.00" fill="#000000">GO:0000315</text>
<text text-anchor="middle" x="399.4685" y="-119.4" font-family="Times,serif" font-size="14.00" fill="#000000">organellar large</text>
<text text-anchor="middle" x="399.4685" y="-102.6" font-family="Times,serif" font-size="14.00" fill="#000000">ribosomal subunit</text>
</g>
<!-- GO:0005762&#45;&gt;GO:0000315 -->
<g id="edge51" class="edge">
<title>GO:0005762&#45;&gt;GO:0000315</title>
<path fill="none" stroke="#000000" d="M365.7038,-58.5513C370.0825,-66.987 374.9242,-76.3147 379.5413,-85.2096"/>
<polygon fill="#000000" stroke="#000000" points="376.5291,-87.0038 384.2426,-94.2669 382.742,-83.7788 376.5291,-87.0038"/>
</g>
<!-- GO:0015934 -->
<g id="node37" class="node">
<title>GO:0015934</title>
<polygon fill="#ffffff" stroke="#000000" points="481.6664,-238.6019 333.2706,-238.6019 333.2706,-197.3981 481.6664,-197.3981 481.6664,-238.6019"/>
<text text-anchor="middle" x="407.4685" y="-222.2" font-family="Times,serif" font-size="14.00" fill="#000000">GO:0015934</text>
<text text-anchor="middle" x="407.4685" y="-205.4" font-family="Times,serif" font-size="14.00" fill="#000000">large ribosomal subunit</text>
</g>
<!-- GO:0000315&#45;&gt;GO:0015934 -->
<g id="edge53" class="edge">
<title>GO:0000315&#45;&gt;GO:0015934</title>
<path fill="none" stroke="#000000" d="M401.9559,-152.9513C402.8805,-163.8614 403.9315,-176.2637 404.8661,-187.292"/>
<polygon fill="#000000" stroke="#000000" points="401.3866,-187.6823 405.7186,-197.351 408.3616,-187.0911 401.3866,-187.6823"/>
</g>
<!-- GO:0044391 -->
<g id="node38" class="node">
<title>GO:0044391</title>
<polygon fill="#ffffff" stroke="#000000" points="472.6862,-341.4019 356.2508,-341.4019 356.2508,-300.1981 472.6862,-300.1981 472.6862,-341.4019"/>
<text text-anchor="middle" x="414.4685" y="-325" font-family="Times,serif" font-size="14.00" fill="#000000">GO:0044391</text>
<text text-anchor="middle" x="414.4685" y="-308.2" font-family="Times,serif" font-size="14.00" fill="#000000">ribosomal subunit</text>
</g>
<!-- GO:0015934&#45;&gt;GO:0044391 -->
<g id="edge54" class="edge">
<title>GO:0015934&#45;&gt;GO:0044391</title>
<path fill="none" stroke="#000000" d="M408.8851,-238.8031C409.8813,-253.4337 411.2316,-273.2642 412.3548,-289.7586"/>
<polygon fill="#000000" stroke="#000000" points="408.8827,-290.2887 413.0541,-300.0278 415.8665,-289.8131 408.8827,-290.2887"/>
</g>
<!-- GO:0044391&#45;&gt;GO:0044446 -->
<g id="edge55" class="edge">
<title>GO:0044391&#45;&gt;GO:0044446</title>
<path fill="none" stroke="#000000" d="M385.7327,-341.6031C367.2744,-354.9659 342.8241,-372.6665 321.3658,-388.2011"/>
<polygon fill="#000000" stroke="#000000" points="319.0474,-385.5586 312.9996,-394.2577 323.1523,-391.2287 319.0474,-385.5586"/>
</g>
<!-- GO:0044391&#45;&gt;GO:0044444 -->
<g id="edge56" class="edge">
<title>GO:0044391&#45;&gt;GO:0044444</title>
<path fill="none" stroke="#000000" d="M414.4685,-341.6031C414.4685,-356.2337 414.4685,-376.0642 414.4685,-392.5586"/>
<polygon fill="#000000" stroke="#000000" points="410.9686,-392.8278 414.4685,-402.8278 417.9686,-392.8279 410.9686,-392.8278"/>
</g>
<!-- GO:0030529 -->
<g id="node39" class="node">
<title>GO:0030529</title>
<polygon fill="#ffffff" stroke="#000000" points="654.2065,-453.0014 486.7305,-453.0014 486.7305,-394.1986 654.2065,-394.1986 654.2065,-453.0014"/>
<text text-anchor="middle" x="570.4685" y="-436.2" font-family="Times,serif" font-size="14.00" fill="#000000">GO:0030529</text>
<text text-anchor="middle" x="570.4685" y="-419.4" font-family="Times,serif" font-size="14.00" fill="#000000">intracellular</text>
<text text-anchor="middle" x="570.4685" y="-402.6" font-family="Times,serif" font-size="14.00" fill="#000000">ribonucleoprotein complex</text>
</g>
<!-- GO:0044391&#45;&gt;GO:0030529 -->
<g id="edge57" class="edge">
<title>GO:0044391&#45;&gt;GO:0030529</title>
<path fill="none" stroke="#000000" d="M446.0374,-341.6031C466.495,-355.0841 493.6523,-372.9801 517.3754,-388.613"/>
<polygon fill="#000000" stroke="#000000" points="515.6654,-391.6778 525.9413,-394.2577 519.5172,-385.8327 515.6654,-391.6778"/>
</g>
<!-- GO:0030529&#45;&gt;GO:0044424 -->
<g id="edge58" class="edge">
<title>GO:0030529&#45;&gt;GO:0044424</title>
<path fill="none" stroke="#000000" d="M570.4685,-453.1963C570.4685,-461.4638 570.4685,-470.4657 570.4685,-478.8008"/>
<polygon fill="#000000" stroke="#000000" points="566.9686,-478.8965 570.4685,-488.8966 573.9686,-478.8966 566.9686,-478.8965"/>
</g>
<!-- GO:1990904 -->
<g id="node40" class="node">
<title>GO:1990904</title>
<polygon fill="#ffffff" stroke="#000000" points="833.2065,-607.8019 665.7305,-607.8019 665.7305,-566.5981 833.2065,-566.5981 833.2065,-607.8019"/>
<text text-anchor="middle" x="749.4685" y="-591.4" font-family="Times,serif" font-size="14.00" fill="#000000">GO:1990904</text>
<text text-anchor="middle" x="749.4685" y="-574.6" font-family="Times,serif" font-size="14.00" fill="#000000">ribonucleoprotein complex</text>
</g>
<!-- GO:0030529&#45;&gt;GO:1990904 -->
<g id="edge59" class="edge">
<title>GO:0030529&#45;&gt;GO:1990904</title>
<path fill="none" stroke="#000000" d="M602.4701,-452.8484C635.6125,-483.1394 686.997,-530.1032 719.4056,-559.7235"/>
<polygon fill="#000000" stroke="#000000" points="717.0723,-562.3326 726.815,-566.4955 721.7948,-557.1655 717.0723,-562.3326"/>
</g>
<!-- GO:1990904&#45;&gt;GO:0032991 -->
<g id="edge60" class="edge">
<title>GO:1990904&#45;&gt;GO:0032991</title>
<path fill="none" stroke="#000000" d="M815.3355,-607.8934C847.8532,-618.1095 887.2426,-630.4845 920.9735,-641.0817"/>
<polygon fill="#000000" stroke="#000000" points="920.1958,-644.506 930.7851,-644.1642 922.2939,-637.8278 920.1958,-644.506"/>
</g>
</g>
</svg>
