<?xml version="1.0" encoding="UTF-8" standalone="no"?>
<!DOCTYPE svg PUBLIC "-//W3C//DTD SVG 1.1//EN"
 "http://www.w3.org/Graphics/SVG/1.1/DTD/svg11.dtd">
<!-- Generated by graphviz version 2.40.1 (20161225.0304)
 -->
<!-- Title: G Pages: 1 -->
<svg width="1079pt" height="744pt"
 viewBox="0.00 0.00 1078.97 744.00" xmlns="http://www.w3.org/2000/svg" xmlns:xlink="http://www.w3.org/1999/xlink">
<g id="graph0" class="graph" transform="scale(1 1) rotate(0) translate(4 740)">
<title>G</title>
<polygon fill="#ffffff" stroke="transparent" points="-4,4 -4,-740 1074.971,-740 1074.971,4 -4,4"/>
<!-- GO:0035639 -->
<g id="node1" class="node">
<title>GO:0035639</title>
<polygon fill="#ffffff" stroke="#000000" points="212.9602,-367.0014 75.5862,-367.0014 75.5862,-308.1986 212.9602,-308.1986 212.9602,-367.0014"/>
<text text-anchor="middle" x="144.2732" y="-350.2" font-family="Times,serif" font-size="14.00" fill="#000000">GO:0035639</text>
<text text-anchor="middle" x="144.2732" y="-333.4" font-family="Times,serif" font-size="14.00" fill="#000000">purine ribonucleoside</text>
<text text-anchor="middle" x="144.2732" y="-316.6" font-family="Times,serif" font-size="14.00" fill="#000000">triphosphate binding</text>
</g>
<!-- GO:1901265 -->
<g id="node2" class="node">
<title>GO:1901265</title>
<polygon fill="#ffffff" stroke="#000000" points="324.4073,-486.6014 188.1391,-486.6014 188.1391,-427.7986 324.4073,-427.7986 324.4073,-486.6014"/>
<text text-anchor="middle" x="256.2732" y="-469.8" font-family="Times,serif" font-size="14.00" fill="#000000">GO:1901265</text>
<text text-anchor="middle" x="256.2732" y="-453" font-family="Times,serif" font-size="14.00" fill="#000000">nucleoside phosphate</text>
<text text-anchor="middle" x="256.2732" y="-436.2" font-family="Times,serif" font-size="14.00" fill="#000000">binding</text>
</g>
<!-- GO:0035639&#45;&gt;GO:1901265 -->
<g id="edge1" class="edge">
<title>GO:0035639&#45;&gt;GO:1901265</title>
<path fill="none" stroke="#000000" d="M171.6715,-366.8575C186.7223,-382.9295 205.5409,-403.0251 221.6057,-420.18"/>
<polygon fill="#000000" stroke="#000000" points="219.3795,-422.9233 228.7696,-427.8301 224.4889,-418.1385 219.3795,-422.9233"/>
</g>
<!-- GO:0097159 -->
<g id="node3" class="node">
<title>GO:0097159</title>
<polygon fill="#ffffff" stroke="#000000" points="323.7846,-581.0014 166.7618,-581.0014 166.7618,-522.1986 323.7846,-522.1986 323.7846,-581.0014"/>
<text text-anchor="middle" x="245.2732" y="-564.2" font-family="Times,serif" font-size="14.00" fill="#000000">GO:0097159</text>
<text text-anchor="middle" x="245.2732" y="-547.4" font-family="Times,serif" font-size="14.00" fill="#000000">organic cyclic compound</text>
<text text-anchor="middle" x="245.2732" y="-530.6" font-family="Times,serif" font-size="14.00" fill="#000000">binding</text>
</g>
<!-- GO:1901265&#45;&gt;GO:0097159 -->
<g id="edge2" class="edge">
<title>GO:1901265&#45;&gt;GO:0097159</title>
<path fill="none" stroke="#000000" d="M252.853,-486.5513C251.9114,-494.6318 250.8745,-503.5308 249.8778,-512.0838"/>
<polygon fill="#000000" stroke="#000000" points="246.3723,-511.9289 248.6913,-522.2669 253.3252,-512.7392 246.3723,-511.9289"/>
</g>
<!-- GO:1901363 -->
<g id="node4" class="node">
<title>GO:1901363</title>
<polygon fill="#ffffff" stroke="#000000" points="488.7838,-581.0014 341.7626,-581.0014 341.7626,-522.1986 488.7838,-522.1986 488.7838,-581.0014"/>
<text text-anchor="middle" x="415.2732" y="-564.2" font-family="Times,serif" font-size="14.00" fill="#000000">GO:1901363</text>
<text text-anchor="middle" x="415.2732" y="-547.4" font-family="Times,serif" font-size="14.00" fill="#000000">heterocyclic compound</text>
<text text-anchor="middle" x="415.2732" y="-530.6" font-family="Times,serif" font-size="14.00" fill="#000000">binding</text>
</g>
<!-- GO:1901265&#45;&gt;GO:1901363 -->
<g id="edge3" class="edge">
<title>GO:1901265&#45;&gt;GO:1901363</title>
<path fill="none" stroke="#000000" d="M305.7102,-486.5513C322.0125,-496.2301 340.2927,-507.0833 357.1804,-517.1097"/>
<polygon fill="#000000" stroke="#000000" points="355.4812,-520.1712 365.8668,-522.2669 359.0549,-514.1521 355.4812,-520.1712"/>
</g>
<!-- GO:0005488 -->
<g id="node5" class="node">
<title>GO:0005488</title>
<polygon fill="#ffffff" stroke="#000000" points="624.8771,-658.2019 535.6693,-658.2019 535.6693,-616.9981 624.8771,-616.9981 624.8771,-658.2019"/>
<text text-anchor="middle" x="580.2732" y="-641.8" font-family="Times,serif" font-size="14.00" fill="#000000">GO:0005488</text>
<text text-anchor="middle" x="580.2732" y="-625" font-family="Times,serif" font-size="14.00" fill="#000000">binding</text>
</g>
<!-- GO:0097159&#45;&gt;GO:0005488 -->
<g id="edge4" class="edge">
<title>GO:0097159&#45;&gt;GO:0005488</title>
<path fill="none" stroke="#000000" d="M323.8856,-578.3717C326.7104,-579.2103 329.5128,-580.0227 332.2732,-580.8 398.1034,-599.3372 475.0223,-616.2288 525.5358,-626.6844"/>
<polygon fill="#000000" stroke="#000000" points="525.0876,-630.1654 535.5878,-628.7522 526.4981,-623.309 525.0876,-630.1654"/>
</g>
<!-- GO:1901363&#45;&gt;GO:0005488 -->
<g id="edge5" class="edge">
<title>GO:1901363&#45;&gt;GO:0005488</title>
<path fill="none" stroke="#000000" d="M471.5954,-580.9558C491.0911,-591.1172 512.7627,-602.4127 531.592,-612.2267"/>
<polygon fill="#000000" stroke="#000000" points="530.0996,-615.3958 540.5851,-616.9141 533.3351,-609.1883 530.0996,-615.3958"/>
</g>
<!-- GO:0003674 -->
<g id="node6" class="node">
<title>GO:0003674</title>
<polygon fill="#ffffff" stroke="#000000" points="700.9063,-735.8019 575.6401,-735.8019 575.6401,-694.5981 700.9063,-694.5981 700.9063,-735.8019"/>
<text text-anchor="middle" x="638.2732" y="-719.4" font-family="Times,serif" font-size="14.00" fill="#000000">GO:0003674</text>
<text text-anchor="middle" x="638.2732" y="-702.6" font-family="Times,serif" font-size="14.00" fill="#000000">molecular_function</text>
</g>
<!-- GO:0005488&#45;&gt;GO:0003674 -->
<g id="edge6" class="edge">
<title>GO:0005488&#45;&gt;GO:0003674</title>
<path fill="none" stroke="#000000" d="M595.8161,-658.3954C602.1874,-666.9197 609.6723,-676.9339 616.5684,-686.1605"/>
<polygon fill="#000000" stroke="#000000" points="613.8971,-688.4327 622.6874,-694.3472 619.504,-684.2419 613.8971,-688.4327"/>
</g>
<!-- GO:0046914 -->
<g id="node7" class="node">
<title>GO:0046914</title>
<polygon fill="#ffffff" stroke="#000000" points="894.6471,-247.4014 769.8993,-247.4014 769.8993,-188.5986 894.6471,-188.5986 894.6471,-247.4014"/>
<text text-anchor="middle" x="832.2732" y="-230.6" font-family="Times,serif" font-size="14.00" fill="#000000">GO:0046914</text>
<text text-anchor="middle" x="832.2732" y="-213.8" font-family="Times,serif" font-size="14.00" fill="#000000">transition metal ion</text>
<text text-anchor="middle" x="832.2732" y="-197" font-family="Times,serif" font-size="14.00" fill="#000000">binding</text>
</g>
<!-- GO:0046872 -->
<g id="node8" class="node">
<title>GO:0046872</title>
<polygon fill="#ffffff" stroke="#000000" points="892.5462,-358.2019 778.0002,-358.2019 778.0002,-316.9981 892.5462,-316.9981 892.5462,-358.2019"/>
<text text-anchor="middle" x="835.2732" y="-341.8" font-family="Times,serif" font-size="14.00" fill="#000000">GO:0046872</text>
<text text-anchor="middle" x="835.2732" y="-325" font-family="Times,serif" font-size="14.00" fill="#000000">metal ion binding</text>
</g>
<!-- GO:0046914&#45;&gt;GO:0046872 -->
<g id="edge7" class="edge">
<title>GO:0046914&#45;&gt;GO:0046872</title>
<path fill="none" stroke="#000000" d="M833.0071,-247.2575C833.4595,-265.294 834.039,-288.3977 834.4988,-306.7259"/>
<polygon fill="#000000" stroke="#000000" points="831.004,-306.982 834.7537,-316.891 838.0018,-306.8064 831.004,-306.982"/>
</g>
<!-- GO:0043169 -->
<g id="node9" class="node">
<title>GO:0043169</title>
<polygon fill="#ffffff" stroke="#000000" points="885.7661,-477.8019 788.7803,-477.8019 788.7803,-436.5981 885.7661,-436.5981 885.7661,-477.8019"/>
<text text-anchor="middle" x="837.2732" y="-461.4" font-family="Times,serif" font-size="14.00" fill="#000000">GO:0043169</text>
<text text-anchor="middle" x="837.2732" y="-444.6" font-family="Times,serif" font-size="14.00" fill="#000000">cation binding</text>
</g>
<!-- GO:0046872&#45;&gt;GO:0043169 -->
<g id="edge8" class="edge">
<title>GO:0046872&#45;&gt;GO:0043169</title>
<path fill="none" stroke="#000000" d="M835.6216,-358.4327C835.9337,-377.0973 836.3958,-404.7322 836.7519,-426.0278"/>
<polygon fill="#000000" stroke="#000000" points="833.2553,-426.2647 836.9221,-436.2047 840.2543,-426.1476 833.2553,-426.2647"/>
</g>
<!-- GO:0043167 -->
<g id="node10" class="node">
<title>GO:0043167</title>
<polygon fill="#ffffff" stroke="#000000" points="881.8771,-572.2019 792.6693,-572.2019 792.6693,-530.9981 881.8771,-530.9981 881.8771,-572.2019"/>
<text text-anchor="middle" x="837.2732" y="-555.8" font-family="Times,serif" font-size="14.00" fill="#000000">GO:0043167</text>
<text text-anchor="middle" x="837.2732" y="-539" font-family="Times,serif" font-size="14.00" fill="#000000">ion binding</text>
</g>
<!-- GO:0043169&#45;&gt;GO:0043167 -->
<g id="edge9" class="edge">
<title>GO:0043169&#45;&gt;GO:0043167</title>
<path fill="none" stroke="#000000" d="M837.2732,-478.1504C837.2732,-490.6165 837.2732,-506.6645 837.2732,-520.5786"/>
<polygon fill="#000000" stroke="#000000" points="833.7733,-520.7081 837.2732,-530.7081 840.7733,-520.7082 833.7733,-520.7081"/>
</g>
<!-- GO:0043167&#45;&gt;GO:0005488 -->
<g id="edge10" class="edge">
<title>GO:0043167&#45;&gt;GO:0005488</title>
<path fill="none" stroke="#000000" d="M801.7952,-572.2237C795.7253,-575.3328 789.3992,-578.3228 783.2732,-580.8 734.5341,-600.5085 676.572,-615.984 635.0854,-625.7711"/>
<polygon fill="#000000" stroke="#000000" points="634.1216,-622.4017 625.1738,-628.0751 635.7066,-629.2199 634.1216,-622.4017"/>
</g>
<!-- GO:0017111 -->
<g id="node11" class="node">
<title>GO:0017111</title>
<polygon fill="#ffffff" stroke="#000000" points="1071.1693,-153.0014 909.3771,-153.0014 909.3771,-94.1986 1071.1693,-94.1986 1071.1693,-153.0014"/>
<text text-anchor="middle" x="990.2732" y="-136.2" font-family="Times,serif" font-size="14.00" fill="#000000">GO:0017111</text>
<text text-anchor="middle" x="990.2732" y="-119.4" font-family="Times,serif" font-size="14.00" fill="#000000">nucleoside&#45;triphosphatase</text>
<text text-anchor="middle" x="990.2732" y="-102.6" font-family="Times,serif" font-size="14.00" fill="#000000">activity</text>
</g>
<!-- GO:0016462 -->
<g id="node12" class="node">
<title>GO:0016462</title>
<polygon fill="#ffffff" stroke="#000000" points="1067.8496,-238.6019 912.6968,-238.6019 912.6968,-197.3981 1067.8496,-197.3981 1067.8496,-238.6019"/>
<text text-anchor="middle" x="990.2732" y="-222.2" font-family="Times,serif" font-size="14.00" fill="#000000">GO:0016462</text>
<text text-anchor="middle" x="990.2732" y="-205.4" font-family="Times,serif" font-size="14.00" fill="#000000">pyrophosphatase activity</text>
</g>
<!-- GO:0017111&#45;&gt;GO:0016462 -->
<g id="edge11" class="edge">
<title>GO:0017111&#45;&gt;GO:0016462</title>
<path fill="none" stroke="#000000" d="M990.2732,-152.9513C990.2732,-163.8614 990.2732,-176.2637 990.2732,-187.292"/>
<polygon fill="#000000" stroke="#000000" points="986.7733,-187.3509 990.2732,-197.351 993.7733,-187.351 986.7733,-187.3509"/>
</g>
<!-- GO:0016818 -->
<g id="node13" class="node">
<title>GO:0016818</title>
<polygon fill="#ffffff" stroke="#000000" points="1060.5849,-391.9002 915.9615,-391.9002 915.9615,-283.2998 1060.5849,-283.2998 1060.5849,-391.9002"/>
<text text-anchor="middle" x="988.2732" y="-375.4" font-family="Times,serif" font-size="14.00" fill="#000000">GO:0016818</text>
<text text-anchor="middle" x="988.2732" y="-358.6" font-family="Times,serif" font-size="14.00" fill="#000000">hydrolase activity,</text>
<text text-anchor="middle" x="988.2732" y="-341.8" font-family="Times,serif" font-size="14.00" fill="#000000">acting on acid</text>
<text text-anchor="middle" x="988.2732" y="-325" font-family="Times,serif" font-size="14.00" fill="#000000">anhydrides, in</text>
<text text-anchor="middle" x="988.2732" y="-308.2" font-family="Times,serif" font-size="14.00" fill="#000000">phosphorus&#45;containing</text>
<text text-anchor="middle" x="988.2732" y="-291.4" font-family="Times,serif" font-size="14.00" fill="#000000">anhydrides</text>
</g>
<!-- GO:0016462&#45;&gt;GO:0016818 -->
<g id="edge12" class="edge">
<title>GO:0016462&#45;&gt;GO:0016818</title>
<path fill="none" stroke="#000000" d="M989.9248,-238.8327C989.7639,-248.4534 989.5632,-260.4573 989.3577,-272.748"/>
<polygon fill="#000000" stroke="#000000" points="985.8525,-273.0363 989.1847,-283.0935 992.8515,-273.1534 985.8525,-273.0363"/>
</g>
<!-- GO:0016817 -->
<g id="node14" class="node">
<title>GO:0016817</title>
<polygon fill="#ffffff" stroke="#000000" points="1066.2291,-486.6014 906.3173,-486.6014 906.3173,-427.7986 1066.2291,-427.7986 1066.2291,-486.6014"/>
<text text-anchor="middle" x="986.2732" y="-469.8" font-family="Times,serif" font-size="14.00" fill="#000000">GO:0016817</text>
<text text-anchor="middle" x="986.2732" y="-453" font-family="Times,serif" font-size="14.00" fill="#000000">hydrolase activity,</text>
<text text-anchor="middle" x="986.2732" y="-436.2" font-family="Times,serif" font-size="14.00" fill="#000000">acting on acid anhydrides</text>
</g>
<!-- GO:0016818&#45;&gt;GO:0016817 -->
<g id="edge13" class="edge">
<title>GO:0016818&#45;&gt;GO:0016817</title>
<path fill="none" stroke="#000000" d="M987.361,-392.1502C987.2161,-400.8138 987.0688,-409.6255 986.9312,-417.8504"/>
<polygon fill="#000000" stroke="#000000" points="983.431,-417.8423 986.7632,-427.8995 990.43,-417.9594 983.431,-417.8423"/>
</g>
<!-- GO:0016787 -->
<g id="node15" class="node">
<title>GO:0016787</title>
<polygon fill="#ffffff" stroke="#000000" points="1030.1898,-572.2019 914.3566,-572.2019 914.3566,-530.9981 1030.1898,-530.9981 1030.1898,-572.2019"/>
<text text-anchor="middle" x="972.2732" y="-555.8" font-family="Times,serif" font-size="14.00" fill="#000000">GO:0016787</text>
<text text-anchor="middle" x="972.2732" y="-539" font-family="Times,serif" font-size="14.00" fill="#000000">hydrolase activity</text>
</g>
<!-- GO:0016817&#45;&gt;GO:0016787 -->
<g id="edge14" class="edge">
<title>GO:0016817&#45;&gt;GO:0016787</title>
<path fill="none" stroke="#000000" d="M981.9203,-486.5513C980.3022,-497.4614 978.4629,-509.8637 976.8274,-520.892"/>
<polygon fill="#000000" stroke="#000000" points="973.3405,-520.5457 975.3356,-530.951 980.2648,-521.5727 973.3405,-520.5457"/>
</g>
<!-- GO:0003824 -->
<g id="node16" class="node">
<title>GO:0003824</title>
<polygon fill="#ffffff" stroke="#000000" points="895.6856,-658.2019 786.8608,-658.2019 786.8608,-616.9981 895.6856,-616.9981 895.6856,-658.2019"/>
<text text-anchor="middle" x="841.2732" y="-641.8" font-family="Times,serif" font-size="14.00" fill="#000000">GO:0003824</text>
<text text-anchor="middle" x="841.2732" y="-625" font-family="Times,serif" font-size="14.00" fill="#000000">catalytic activity</text>
</g>
<!-- GO:0016787&#45;&gt;GO:0003824 -->
<g id="edge15" class="edge">
<title>GO:0016787&#45;&gt;GO:0003824</title>
<path fill="none" stroke="#000000" d="M940.5618,-572.4182C922.7008,-584.1437 900.2238,-598.8996 881.1748,-611.4051"/>
<polygon fill="#000000" stroke="#000000" points="879.1314,-608.5597 872.6926,-616.9735 882.973,-614.4114 879.1314,-608.5597"/>
</g>
<!-- GO:0003824&#45;&gt;GO:0003674 -->
<g id="edge16" class="edge">
<title>GO:0003824&#45;&gt;GO:0003674</title>
<path fill="none" stroke="#000000" d="M787.1396,-658.2934C760.8733,-668.3341 729.1517,-680.4602 701.7515,-690.9344"/>
<polygon fill="#000000" stroke="#000000" points="700.347,-687.7242 692.2559,-694.5642 702.8465,-694.2628 700.347,-687.7242"/>
</g>
<!-- GO:0032559 -->
<g id="node17" class="node">
<title>GO:0032559</title>
<polygon fill="#ffffff" stroke="#000000" points="275.9602,-58.6014 138.5862,-58.6014 138.5862,.2014 275.9602,.2014 275.9602,-58.6014"/>
<text text-anchor="middle" x="207.2732" y="-41.8" font-family="Times,serif" font-size="14.00" fill="#000000">GO:0032559</text>
<text text-anchor="middle" x="207.2732" y="-25" font-family="Times,serif" font-size="14.00" fill="#000000">adenyl ribonucleotide</text>
<text text-anchor="middle" x="207.2732" y="-8.2" font-family="Times,serif" font-size="14.00" fill="#000000">binding</text>
</g>
<!-- GO:0032555 -->
<g id="node18" class="node">
<title>GO:0032555</title>
<polygon fill="#ffffff" stroke="#000000" points="192.4059,-153.0014 56.1405,-153.0014 56.1405,-94.1986 192.4059,-94.1986 192.4059,-153.0014"/>
<text text-anchor="middle" x="124.2732" y="-136.2" font-family="Times,serif" font-size="14.00" fill="#000000">GO:0032555</text>
<text text-anchor="middle" x="124.2732" y="-119.4" font-family="Times,serif" font-size="14.00" fill="#000000">purine ribonucleotide</text>
<text text-anchor="middle" x="124.2732" y="-102.6" font-family="Times,serif" font-size="14.00" fill="#000000">binding</text>
</g>
<!-- GO:0032559&#45;&gt;GO:0032555 -->
<g id="edge17" class="edge">
<title>GO:0032559&#45;&gt;GO:0032555</title>
<path fill="none" stroke="#000000" d="M181.4665,-58.5513C173.6591,-67.431 164.9828,-77.299 156.7959,-86.6103"/>
<polygon fill="#000000" stroke="#000000" points="154.0386,-84.4458 150.064,-94.2669 159.2956,-89.0679 154.0386,-84.4458"/>
</g>
<!-- GO:0030554 -->
<g id="node19" class="node">
<title>GO:0030554</title>
<polygon fill="#ffffff" stroke="#000000" points="372.1903,-144.2019 210.3561,-144.2019 210.3561,-102.9981 372.1903,-102.9981 372.1903,-144.2019"/>
<text text-anchor="middle" x="291.2732" y="-127.8" font-family="Times,serif" font-size="14.00" fill="#000000">GO:0030554</text>
<text text-anchor="middle" x="291.2732" y="-111" font-family="Times,serif" font-size="14.00" fill="#000000">adenyl nucleotide binding</text>
</g>
<!-- GO:0032559&#45;&gt;GO:0030554 -->
<g id="edge18" class="edge">
<title>GO:0032559&#45;&gt;GO:0030554</title>
<path fill="none" stroke="#000000" d="M233.3909,-58.5513C243.7996,-70.2488 255.7347,-83.6615 266.0528,-95.257"/>
<polygon fill="#000000" stroke="#000000" points="263.6368,-97.807 272.8991,-102.951 268.8662,-93.1537 263.6368,-97.807"/>
</g>
<!-- GO:0017076 -->
<g id="node20" class="node">
<title>GO:0017076</title>
<polygon fill="#ffffff" stroke="#000000" points="371.1359,-238.6019 211.4105,-238.6019 211.4105,-197.3981 371.1359,-197.3981 371.1359,-238.6019"/>
<text text-anchor="middle" x="291.2732" y="-222.2" font-family="Times,serif" font-size="14.00" fill="#000000">GO:0017076</text>
<text text-anchor="middle" x="291.2732" y="-205.4" font-family="Times,serif" font-size="14.00" fill="#000000">purine nucleotide binding</text>
</g>
<!-- GO:0032555&#45;&gt;GO:0017076 -->
<g id="edge19" class="edge">
<title>GO:0032555&#45;&gt;GO:0017076</title>
<path fill="none" stroke="#000000" d="M176.1976,-152.9513C198.4831,-165.5486 224.2876,-180.1351 245.8065,-192.2991"/>
<polygon fill="#000000" stroke="#000000" points="244.3159,-195.4769 254.7437,-197.351 247.7606,-189.3831 244.3159,-195.4769"/>
</g>
<!-- GO:0032553 -->
<g id="node21" class="node">
<title>GO:0032553</title>
<polygon fill="#ffffff" stroke="#000000" points="192.9213,-238.6019 49.6251,-238.6019 49.6251,-197.3981 192.9213,-197.3981 192.9213,-238.6019"/>
<text text-anchor="middle" x="121.2732" y="-222.2" font-family="Times,serif" font-size="14.00" fill="#000000">GO:0032553</text>
<text text-anchor="middle" x="121.2732" y="-205.4" font-family="Times,serif" font-size="14.00" fill="#000000">ribonucleotide binding</text>
</g>
<!-- GO:0032555&#45;&gt;GO:0032553 -->
<g id="edge20" class="edge">
<title>GO:0032555&#45;&gt;GO:0032553</title>
<path fill="none" stroke="#000000" d="M123.3404,-152.9513C122.9937,-163.8614 122.5996,-176.2637 122.2491,-187.292"/>
<polygon fill="#000000" stroke="#000000" points="118.7489,-187.2448 121.9294,-197.351 125.7454,-187.4672 118.7489,-187.2448"/>
</g>
<!-- GO:0030554&#45;&gt;GO:0017076 -->
<g id="edge21" class="edge">
<title>GO:0030554&#45;&gt;GO:0017076</title>
<path fill="none" stroke="#000000" d="M291.2732,-144.5504C291.2732,-157.0165 291.2732,-173.0645 291.2732,-186.9786"/>
<polygon fill="#000000" stroke="#000000" points="287.7733,-187.1081 291.2732,-197.1081 294.7733,-187.1082 287.7733,-187.1081"/>
</g>
<!-- GO:0000166 -->
<g id="node22" class="node">
<title>GO:0000166</title>
<polygon fill="#ffffff" stroke="#000000" points="351.3707,-358.2019 231.1757,-358.2019 231.1757,-316.9981 351.3707,-316.9981 351.3707,-358.2019"/>
<text text-anchor="middle" x="291.2732" y="-341.8" font-family="Times,serif" font-size="14.00" fill="#000000">GO:0000166</text>
<text text-anchor="middle" x="291.2732" y="-325" font-family="Times,serif" font-size="14.00" fill="#000000">nucleotide binding</text>
</g>
<!-- GO:0017076&#45;&gt;GO:0000166 -->
<g id="edge22" class="edge">
<title>GO:0017076&#45;&gt;GO:0000166</title>
<path fill="none" stroke="#000000" d="M291.2732,-238.8327C291.2732,-257.4973 291.2732,-285.1322 291.2732,-306.4278"/>
<polygon fill="#000000" stroke="#000000" points="287.7733,-306.6047 291.2732,-316.6047 294.7733,-306.6047 287.7733,-306.6047"/>
</g>
<!-- GO:0032553&#45;&gt;GO:0000166 -->
<g id="edge24" class="edge">
<title>GO:0032553&#45;&gt;GO:0000166</title>
<path fill="none" stroke="#000000" d="M155.0079,-238.6609C174.8926,-251.1136 200.3675,-267.547 222.2732,-283.2 234.258,-291.7639 247.0187,-301.6071 258.2648,-310.5462"/>
<polygon fill="#000000" stroke="#000000" points="256.16,-313.3446 266.1532,-316.8641 260.5359,-307.881 256.16,-313.3446"/>
</g>
<!-- GO:0097367 -->
<g id="node23" class="node">
<title>GO:0097367</title>
<polygon fill="#ffffff" stroke="#000000" points="148.3203,-581.0014 .2261,-581.0014 .2261,-522.1986 148.3203,-522.1986 148.3203,-581.0014"/>
<text text-anchor="middle" x="74.2732" y="-564.2" font-family="Times,serif" font-size="14.00" fill="#000000">GO:0097367</text>
<text text-anchor="middle" x="74.2732" y="-547.4" font-family="Times,serif" font-size="14.00" fill="#000000">carbohydrate derivative</text>
<text text-anchor="middle" x="74.2732" y="-530.6" font-family="Times,serif" font-size="14.00" fill="#000000">binding</text>
</g>
<!-- GO:0032553&#45;&gt;GO:0097367 -->
<g id="edge23" class="edge">
<title>GO:0032553&#45;&gt;GO:0097367</title>
<path fill="none" stroke="#000000" d="M97.2254,-238.6559C85.4664,-250.3719 72.5254,-266.0916 66.2732,-283.2 38.0119,-360.533 52.554,-458.9125 64.2901,-512.4893"/>
<polygon fill="#000000" stroke="#000000" points="60.8841,-513.2959 66.5121,-522.2723 67.7103,-511.7455 60.8841,-513.2959"/>
</g>
<!-- GO:0000166&#45;&gt;GO:1901265 -->
<g id="edge26" class="edge">
<title>GO:0000166&#45;&gt;GO:1901265</title>
<path fill="none" stroke="#000000" d="M285.1767,-358.4327C280.3848,-374.8072 273.5725,-398.0857 267.765,-417.9309"/>
<polygon fill="#000000" stroke="#000000" points="264.3717,-417.065 264.9221,-427.6455 271.0899,-419.0311 264.3717,-417.065"/>
</g>
<!-- GO:0036094 -->
<g id="node24" class="node">
<title>GO:0036094</title>
<polygon fill="#ffffff" stroke="#000000" points="654.2016,-572.2019 506.3448,-572.2019 506.3448,-530.9981 654.2016,-530.9981 654.2016,-572.2019"/>
<text text-anchor="middle" x="580.2732" y="-555.8" font-family="Times,serif" font-size="14.00" fill="#000000">GO:0036094</text>
<text text-anchor="middle" x="580.2732" y="-539" font-family="Times,serif" font-size="14.00" fill="#000000">small molecule binding</text>
</g>
<!-- GO:0000166&#45;&gt;GO:0036094 -->
<g id="edge25" class="edge">
<title>GO:0000166&#45;&gt;GO:0036094</title>
<path fill="none" stroke="#000000" d="M313.0257,-358.2563C326.1099,-369.675 343.6099,-383.275 361.2732,-392 417.7184,-419.8818 447.0713,-391.3691 498.2732,-428 531.246,-451.5894 554.6763,-492.9114 567.8305,-521.2335"/>
<polygon fill="#000000" stroke="#000000" points="564.7706,-522.9641 572.0536,-530.6588 571.1587,-520.1018 564.7706,-522.9641"/>
</g>
<!-- GO:0097367&#45;&gt;GO:0005488 -->
<g id="edge27" class="edge">
<title>GO:0097367&#45;&gt;GO:0005488</title>
<path fill="none" stroke="#000000" d="M148.7136,-578.5973C151.591,-579.3833 154.4512,-580.1217 157.2732,-580.8 287.3348,-612.0612 444.3152,-627.4785 525.5699,-633.8518"/>
<polygon fill="#000000" stroke="#000000" points="525.3332,-637.3438 535.572,-634.6205 525.8696,-630.3644 525.3332,-637.3438"/>
</g>
<!-- GO:0036094&#45;&gt;GO:0005488 -->
<g id="edge28" class="edge">
<title>GO:0036094&#45;&gt;GO:0005488</title>
<path fill="none" stroke="#000000" d="M580.2732,-572.4182C580.2732,-582.7705 580.2732,-595.4848 580.2732,-606.9271"/>
<polygon fill="#000000" stroke="#000000" points="576.7733,-606.9735 580.2732,-616.9735 583.7733,-606.9735 576.7733,-606.9735"/>
</g>
<!-- GO:0005102 -->
<g id="node25" class="node">
<title>GO:0005102</title>
<polygon fill="#ffffff" stroke="#000000" points="771.4101,-477.8019 663.1363,-477.8019 663.1363,-436.5981 771.4101,-436.5981 771.4101,-477.8019"/>
<text text-anchor="middle" x="717.2732" y="-461.4" font-family="Times,serif" font-size="14.00" fill="#000000">GO:0005102</text>
<text text-anchor="middle" x="717.2732" y="-444.6" font-family="Times,serif" font-size="14.00" fill="#000000">receptor binding</text>
</g>
<!-- GO:0005515 -->
<g id="node26" class="node">
<title>GO:0005515</title>
<polygon fill="#ffffff" stroke="#000000" points="774.2108,-572.2019 672.3356,-572.2019 672.3356,-530.9981 774.2108,-530.9981 774.2108,-572.2019"/>
<text text-anchor="middle" x="723.2732" y="-555.8" font-family="Times,serif" font-size="14.00" fill="#000000">GO:0005515</text>
<text text-anchor="middle" x="723.2732" y="-539" font-family="Times,serif" font-size="14.00" fill="#000000">protein binding</text>
</g>
<!-- GO:0005102&#45;&gt;GO:0005515 -->
<g id="edge29" class="edge">
<title>GO:0005102&#45;&gt;GO:0005515</title>
<path fill="none" stroke="#000000" d="M718.6048,-478.1504C719.3971,-490.6165 720.4171,-506.6645 721.3015,-520.5786"/>
<polygon fill="#000000" stroke="#000000" points="717.818,-520.9503 721.9453,-530.7081 724.8039,-520.5062 717.818,-520.9503"/>
</g>
<!-- GO:0005515&#45;&gt;GO:0005488 -->
<g id="edge30" class="edge">
<title>GO:0005515&#45;&gt;GO:0005488</title>
<path fill="none" stroke="#000000" d="M688.6569,-572.4182C668.9841,-584.2494 644.1814,-599.1657 623.2688,-611.7425"/>
<polygon fill="#000000" stroke="#000000" points="621.3365,-608.8203 614.5707,-616.9735 624.9442,-614.8191 621.3365,-608.8203"/>
</g>
<!-- GO:0032550 -->
<g id="node27" class="node">
<title>GO:0032550</title>
<polygon fill="#ffffff" stroke="#000000" points="604.9602,-247.4014 467.5862,-247.4014 467.5862,-188.5986 604.9602,-188.5986 604.9602,-247.4014"/>
<text text-anchor="middle" x="536.2732" y="-230.6" font-family="Times,serif" font-size="14.00" fill="#000000">GO:0032550</text>
<text text-anchor="middle" x="536.2732" y="-213.8" font-family="Times,serif" font-size="14.00" fill="#000000">purine ribonucleoside</text>
<text text-anchor="middle" x="536.2732" y="-197" font-family="Times,serif" font-size="14.00" fill="#000000">binding</text>
</g>
<!-- GO:0001883 -->
<g id="node28" class="node">
<title>GO:0001883</title>
<polygon fill="#ffffff" stroke="#000000" points="694.1903,-358.2019 532.3561,-358.2019 532.3561,-316.9981 694.1903,-316.9981 694.1903,-358.2019"/>
<text text-anchor="middle" x="613.2732" y="-341.8" font-family="Times,serif" font-size="14.00" fill="#000000">GO:0001883</text>
<text text-anchor="middle" x="613.2732" y="-325" font-family="Times,serif" font-size="14.00" fill="#000000">purine nucleoside binding</text>
</g>
<!-- GO:0032550&#45;&gt;GO:0001883 -->
<g id="edge31" class="edge">
<title>GO:0032550&#45;&gt;GO:0001883</title>
<path fill="none" stroke="#000000" d="M555.1095,-247.2575C567.0472,-265.7997 582.4328,-289.6972 594.3812,-308.256"/>
<polygon fill="#000000" stroke="#000000" points="591.5843,-310.3775 599.9405,-316.891 597.47,-306.5882 591.5843,-310.3775"/>
</g>
<!-- GO:0032549 -->
<g id="node29" class="node">
<title>GO:0032549</title>
<polygon fill="#ffffff" stroke="#000000" points="514.4755,-358.2019 370.0709,-358.2019 370.0709,-316.9981 514.4755,-316.9981 514.4755,-358.2019"/>
<text text-anchor="middle" x="442.2732" y="-341.8" font-family="Times,serif" font-size="14.00" fill="#000000">GO:0032549</text>
<text text-anchor="middle" x="442.2732" y="-325" font-family="Times,serif" font-size="14.00" fill="#000000">ribonucleoside binding</text>
</g>
<!-- GO:0032550&#45;&gt;GO:0032549 -->
<g id="edge32" class="edge">
<title>GO:0032550&#45;&gt;GO:0032549</title>
<path fill="none" stroke="#000000" d="M513.2782,-247.2575C498.5062,-266.0525 479.4095,-290.35 464.7418,-309.0123"/>
<polygon fill="#000000" stroke="#000000" points="461.9771,-306.8659 458.5495,-316.891 467.4807,-311.1915 461.9771,-306.8659"/>
</g>
<!-- GO:0001882 -->
<g id="node30" class="node">
<title>GO:0001882</title>
<polygon fill="#ffffff" stroke="#000000" points="489.4241,-477.8019 367.1223,-477.8019 367.1223,-436.5981 489.4241,-436.5981 489.4241,-477.8019"/>
<text text-anchor="middle" x="428.2732" y="-461.4" font-family="Times,serif" font-size="14.00" fill="#000000">GO:0001882</text>
<text text-anchor="middle" x="428.2732" y="-444.6" font-family="Times,serif" font-size="14.00" fill="#000000">nucleoside binding</text>
</g>
<!-- GO:0001883&#45;&gt;GO:0001882 -->
<g id="edge33" class="edge">
<title>GO:0001883&#45;&gt;GO:0001882</title>
<path fill="none" stroke="#000000" d="M581.0487,-358.4327C549.9736,-378.5223 502.8232,-409.0044 469.128,-430.7879"/>
<polygon fill="#000000" stroke="#000000" points="466.936,-428.0373 460.4383,-436.4057 470.7364,-433.9158 466.936,-428.0373"/>
</g>
<!-- GO:0032549&#45;&gt;GO:0001882 -->
<g id="edge34" class="edge">
<title>GO:0032549&#45;&gt;GO:0001882</title>
<path fill="none" stroke="#000000" d="M439.8346,-358.4327C437.6498,-377.0973 434.4149,-404.7322 431.9221,-426.0278"/>
<polygon fill="#000000" stroke="#000000" points="428.4173,-425.8656 430.7308,-436.2047 435.3698,-426.6795 428.4173,-425.8656"/>
</g>
<!-- GO:0001882&#45;&gt;GO:0097159 -->
<g id="edge38" class="edge">
<title>GO:0001882&#45;&gt;GO:0097159</title>
<path fill="none" stroke="#000000" d="M388.1131,-477.9165C365.5252,-489.5684 336.7656,-504.4039 310.9815,-517.7046"/>
<polygon fill="#000000" stroke="#000000" points="309.2831,-514.6424 302.0004,-522.3374 312.4922,-520.8635 309.2831,-514.6424"/>
</g>
<!-- GO:0001882&#45;&gt;GO:1901363 -->
<g id="edge37" class="edge">
<title>GO:0001882&#45;&gt;GO:1901363</title>
<path fill="none" stroke="#000000" d="M425.3881,-478.1504C424.0111,-488.1492 422.3168,-500.4525 420.7114,-512.1106"/>
<polygon fill="#000000" stroke="#000000" points="417.2306,-511.7315 419.3336,-522.1155 424.1652,-512.6865 417.2306,-511.7315"/>
</g>
<!-- GO:0001882&#45;&gt;GO:0097367 -->
<g id="edge36" class="edge">
<title>GO:0001882&#45;&gt;GO:0097367</title>
<path fill="none" stroke="#000000" d="M367.1946,-476.9226C355.9662,-480.2773 344.3072,-483.5828 333.2732,-486.4 258.935,-505.3803 236.0015,-501.4586 158.1049,-522.3151"/>
<polygon fill="#000000" stroke="#000000" points="157.051,-518.9746 148.3257,-524.9846 158.8944,-525.7276 157.051,-518.9746"/>
</g>
<!-- GO:0001882&#45;&gt;GO:0036094 -->
<g id="edge35" class="edge">
<title>GO:0001882&#45;&gt;GO:0036094</title>
<path fill="none" stroke="#000000" d="M461.6302,-477.9165C484.2015,-491.9344 514.192,-510.5601 538.3727,-525.5776"/>
<polygon fill="#000000" stroke="#000000" points="536.6524,-528.6292 546.994,-530.9318 540.3455,-522.6827 536.6524,-528.6292"/>
</g>
</g>
</svg>
