<?xml version="1.0" encoding="UTF-8" standalone="no"?>
<!DOCTYPE svg PUBLIC "-//W3C//DTD SVG 1.1//EN"
 "http://www.w3.org/Graphics/SVG/1.1/DTD/svg11.dtd">
<!-- Generated by graphviz version 2.40.1 (20161225.0304)
 -->
<!-- Title: G Pages: 1 -->
<svg width="168pt" height="299pt"
 viewBox="0.00 0.00 168.23 299.20" xmlns="http://www.w3.org/2000/svg" xmlns:xlink="http://www.w3.org/1999/xlink">
<g id="graph0" class="graph" transform="scale(1 1) rotate(0) translate(4 295.2)">
<title>G</title>
<polygon fill="#ffffff" stroke="transparent" points="-4,4 -4,-295.2 164.2266,-295.2 164.2266,4 -4,4"/>
<!-- GO:0042597 -->
<g id="node1" class="node">
<title>GO:0042597</title>
<polygon fill="#ffffff" stroke="#000000" points="138.0131,-135.8019 22.2135,-135.8019 22.2135,-94.5981 138.0131,-94.5981 138.0131,-135.8019"/>
<text text-anchor="middle" x="80.1133" y="-119.4" font-family="Times,serif" font-size="14.00" fill="#000000">GO:0042597</text>
<text text-anchor="middle" x="80.1133" y="-102.6" font-family="Times,serif" font-size="14.00" fill="#000000">periplasmic space</text>
</g>
<!-- GO:0044464 -->
<g id="node2" class="node">
<title>GO:0044464</title>
<polygon fill="#ffffff" stroke="#000000" points="124.7172,-213.4019 35.5094,-213.4019 35.5094,-172.1981 124.7172,-172.1981 124.7172,-213.4019"/>
<text text-anchor="middle" x="80.1133" y="-197" font-family="Times,serif" font-size="14.00" fill="#000000">GO:0044464</text>
<text text-anchor="middle" x="80.1133" y="-180.2" font-family="Times,serif" font-size="14.00" fill="#000000">cell part</text>
</g>
<!-- GO:0042597&#45;&gt;GO:0044464 -->
<g id="edge1" class="edge">
<title>GO:0042597&#45;&gt;GO:0044464</title>
<path fill="none" stroke="#000000" d="M80.1133,-135.9954C80.1133,-143.9109 80.1133,-153.1109 80.1133,-161.7722"/>
<polygon fill="#000000" stroke="#000000" points="76.6134,-161.9472 80.1133,-171.9472 83.6134,-161.9473 76.6134,-161.9472"/>
</g>
<!-- GO:0005575 -->
<g id="node3" class="node">
<title>GO:0005575</title>
<polygon fill="#ffffff" stroke="#000000" points="143.8,-291.0019 16.4266,-291.0019 16.4266,-249.7981 143.8,-249.7981 143.8,-291.0019"/>
<text text-anchor="middle" x="80.1133" y="-274.6" font-family="Times,serif" font-size="14.00" fill="#000000">GO:0005575</text>
<text text-anchor="middle" x="80.1133" y="-257.8" font-family="Times,serif" font-size="14.00" fill="#000000">cellular_component</text>
</g>
<!-- GO:0044464&#45;&gt;GO:0005575 -->
<g id="edge2" class="edge">
<title>GO:0044464&#45;&gt;GO:0005575</title>
<path fill="none" stroke="#000000" d="M80.1133,-213.5954C80.1133,-221.5109 80.1133,-230.7109 80.1133,-239.3722"/>
<polygon fill="#000000" stroke="#000000" points="76.6134,-239.5472 80.1133,-249.5472 83.6134,-239.5473 76.6134,-239.5472"/>
</g>
<!-- GO:0030288 -->
<g id="node4" class="node">
<title>GO:0030288</title>
<polygon fill="#ffffff" stroke="#000000" points="160.3401,-58.6014 -.1135,-58.6014 -.1135,.2014 160.3401,.2014 160.3401,-58.6014"/>
<text text-anchor="middle" x="80.1133" y="-41.8" font-family="Times,serif" font-size="14.00" fill="#000000">GO:0030288</text>
<text text-anchor="middle" x="80.1133" y="-25" font-family="Times,serif" font-size="14.00" fill="#000000">outer membrane&#45;bounded</text>
<text text-anchor="middle" x="80.1133" y="-8.2" font-family="Times,serif" font-size="14.00" fill="#000000">periplasmic space</text>
</g>
<!-- GO:0030288&#45;&gt;GO:0042597 -->
<g id="edge3" class="edge">
<title>GO:0030288&#45;&gt;GO:0042597</title>
<path fill="none" stroke="#000000" d="M80.1133,-58.7963C80.1133,-67.0638 80.1133,-76.0657 80.1133,-84.4008"/>
<polygon fill="#000000" stroke="#000000" points="76.6134,-84.4965 80.1133,-94.4966 83.6134,-84.4966 76.6134,-84.4965"/>
</g>
</g>
</svg>
