<?xml version="1.0" encoding="UTF-8" standalone="no"?>
<!DOCTYPE svg PUBLIC "-//W3C//DTD SVG 1.1//EN"
 "http://www.w3.org/Graphics/SVG/1.1/DTD/svg11.dtd">
<!-- Generated by graphviz version 2.40.1 (20161225.0304)
 -->
<!-- Title: G Pages: 1 -->
<svg width="658pt" height="866pt"
 viewBox="0.00 0.00 658.37 865.60" xmlns="http://www.w3.org/2000/svg" xmlns:xlink="http://www.w3.org/1999/xlink">
<g id="graph0" class="graph" transform="scale(1 1) rotate(0) translate(4 861.6)">
<title>G</title>
<polygon fill="#ffffff" stroke="transparent" points="-4,4 -4,-861.6 654.3742,-861.6 654.3742,4 -4,4"/>
<!-- GO:0061695 -->
<g id="node1" class="node">
<title>GO:0061695</title>
<polygon fill="#ffffff" stroke="#000000" points="217.038,-469.7003 63.0224,-469.7003 63.0224,-394.2997 217.038,-394.2997 217.038,-469.7003"/>
<text text-anchor="middle" x="140.0302" y="-453" font-family="Times,serif" font-size="14.00" fill="#000000">GO:0061695</text>
<text text-anchor="middle" x="140.0302" y="-436.2" font-family="Times,serif" font-size="14.00" fill="#000000">transferase complex,</text>
<text text-anchor="middle" x="140.0302" y="-419.4" font-family="Times,serif" font-size="14.00" fill="#000000">transferring phosphorus&#45;</text>
<text text-anchor="middle" x="140.0302" y="-402.6" font-family="Times,serif" font-size="14.00" fill="#000000">containing groups</text>
</g>
<!-- GO:1990234 -->
<g id="node2" class="node">
<title>GO:1990234</title>
<polygon fill="#ffffff" stroke="#000000" points="209.361,-547.0019 80.6994,-547.0019 80.6994,-505.7981 209.361,-505.7981 209.361,-547.0019"/>
<text text-anchor="middle" x="145.0302" y="-530.6" font-family="Times,serif" font-size="14.00" fill="#000000">GO:1990234</text>
<text text-anchor="middle" x="145.0302" y="-513.8" font-family="Times,serif" font-size="14.00" fill="#000000">transferase complex</text>
</g>
<!-- GO:0061695&#45;&gt;GO:1990234 -->
<g id="edge1" class="edge">
<title>GO:0061695&#45;&gt;GO:1990234</title>
<path fill="none" stroke="#000000" d="M142.0351,-469.8522C142.4847,-478.3406 142.9565,-487.2492 143.3893,-495.4197"/>
<polygon fill="#000000" stroke="#000000" points="139.9064,-495.837 143.9305,-505.6379 146.8966,-495.4667 139.9064,-495.837"/>
</g>
<!-- GO:1902494 -->
<g id="node3" class="node">
<title>GO:1902494</title>
<polygon fill="#ffffff" stroke="#000000" points="218.6615,-624.6019 103.3989,-624.6019 103.3989,-583.3981 218.6615,-583.3981 218.6615,-624.6019"/>
<text text-anchor="middle" x="161.0302" y="-608.2" font-family="Times,serif" font-size="14.00" fill="#000000">GO:1902494</text>
<text text-anchor="middle" x="161.0302" y="-591.4" font-family="Times,serif" font-size="14.00" fill="#000000">catalytic complex</text>
</g>
<!-- GO:1990234&#45;&gt;GO:1902494 -->
<g id="edge2" class="edge">
<title>GO:1990234&#45;&gt;GO:1902494</title>
<path fill="none" stroke="#000000" d="M149.3179,-547.1954C150.9679,-555.1978 152.8886,-564.5133 154.6915,-573.2575"/>
<polygon fill="#000000" stroke="#000000" points="151.2833,-574.06 156.7307,-583.1472 158.1391,-572.6464 151.2833,-574.06"/>
</g>
<!-- GO:0043234 -->
<g id="node4" class="node">
<title>GO:0043234</title>
<polygon fill="#ffffff" stroke="#000000" points="222.8976,-702.2019 115.1628,-702.2019 115.1628,-660.9981 222.8976,-660.9981 222.8976,-702.2019"/>
<text text-anchor="middle" x="169.0302" y="-685.8" font-family="Times,serif" font-size="14.00" fill="#000000">GO:0043234</text>
<text text-anchor="middle" x="169.0302" y="-669" font-family="Times,serif" font-size="14.00" fill="#000000">protein complex</text>
</g>
<!-- GO:1902494&#45;&gt;GO:0043234 -->
<g id="edge3" class="edge">
<title>GO:1902494&#45;&gt;GO:0043234</title>
<path fill="none" stroke="#000000" d="M163.1741,-624.7954C163.9901,-632.7109 164.9385,-641.9109 165.8315,-650.5722"/>
<polygon fill="#000000" stroke="#000000" points="162.3733,-651.1589 166.8804,-660.7472 169.3364,-650.441 162.3733,-651.1589"/>
</g>
<!-- GO:0032991 -->
<g id="node5" class="node">
<title>GO:0032991</title>
<polygon fill="#ffffff" stroke="#000000" points="257.1975,-779.8019 98.8629,-779.8019 98.8629,-738.5981 257.1975,-738.5981 257.1975,-779.8019"/>
<text text-anchor="middle" x="178.0302" y="-763.4" font-family="Times,serif" font-size="14.00" fill="#000000">GO:0032991</text>
<text text-anchor="middle" x="178.0302" y="-746.6" font-family="Times,serif" font-size="14.00" fill="#000000">macromolecular complex</text>
</g>
<!-- GO:0043234&#45;&gt;GO:0032991 -->
<g id="edge4" class="edge">
<title>GO:0043234&#45;&gt;GO:0032991</title>
<path fill="none" stroke="#000000" d="M171.442,-702.3954C172.3601,-710.3109 173.4271,-719.5109 174.4316,-728.1722"/>
<polygon fill="#000000" stroke="#000000" points="170.9829,-728.8171 175.6117,-738.3472 177.9362,-728.0106 170.9829,-728.8171"/>
</g>
<!-- GO:0005575 -->
<g id="node6" class="node">
<title>GO:0005575</title>
<polygon fill="#ffffff" stroke="#000000" points="352.7169,-857.4019 225.3435,-857.4019 225.3435,-816.1981 352.7169,-816.1981 352.7169,-857.4019"/>
<text text-anchor="middle" x="289.0302" y="-841" font-family="Times,serif" font-size="14.00" fill="#000000">GO:0005575</text>
<text text-anchor="middle" x="289.0302" y="-824.2" font-family="Times,serif" font-size="14.00" fill="#000000">cellular_component</text>
</g>
<!-- GO:0032991&#45;&gt;GO:0005575 -->
<g id="edge5" class="edge">
<title>GO:0032991&#45;&gt;GO:0005575</title>
<path fill="none" stroke="#000000" d="M207.7762,-779.9954C220.9649,-789.2156 236.6468,-800.1788 250.6996,-810.0031"/>
<polygon fill="#000000" stroke="#000000" points="249.0009,-813.086 259.2021,-815.9472 253.0117,-807.349 249.0009,-813.086"/>
</g>
<!-- GO:0044454 -->
<g id="node7" class="node">
<title>GO:0044454</title>
<polygon fill="#ffffff" stroke="#000000" points="530.3068,-161.0019 371.7536,-161.0019 371.7536,-119.7981 530.3068,-119.7981 530.3068,-161.0019"/>
<text text-anchor="middle" x="451.0302" y="-144.6" font-family="Times,serif" font-size="14.00" fill="#000000">GO:0044454</text>
<text text-anchor="middle" x="451.0302" y="-127.8" font-family="Times,serif" font-size="14.00" fill="#000000">nuclear chromosome part</text>
</g>
<!-- GO:0044427 -->
<g id="node8" class="node">
<title>GO:0044427</title>
<polygon fill="#ffffff" stroke="#000000" points="596.0032,-255.4019 478.0572,-255.4019 478.0572,-214.1981 596.0032,-214.1981 596.0032,-255.4019"/>
<text text-anchor="middle" x="537.0302" y="-239" font-family="Times,serif" font-size="14.00" fill="#000000">GO:0044427</text>
<text text-anchor="middle" x="537.0302" y="-222.2" font-family="Times,serif" font-size="14.00" fill="#000000">chromosomal part</text>
</g>
<!-- GO:0044454&#45;&gt;GO:0044427 -->
<g id="edge6" class="edge">
<title>GO:0044454&#45;&gt;GO:0044427</title>
<path fill="none" stroke="#000000" d="M470.1164,-161.3504C482.1412,-174.5498 497.8245,-191.7649 510.9849,-206.2107"/>
<polygon fill="#000000" stroke="#000000" points="508.6755,-208.8729 517.9974,-213.9081 513.8501,-204.1587 508.6755,-208.8729"/>
</g>
<!-- GO:0044428 -->
<g id="node9" class="node">
<title>GO:0044428</title>
<polygon fill="#ffffff" stroke="#000000" points="460.6341,-255.4019 371.4263,-255.4019 371.4263,-214.1981 460.6341,-214.1981 460.6341,-255.4019"/>
<text text-anchor="middle" x="416.0302" y="-239" font-family="Times,serif" font-size="14.00" fill="#000000">GO:0044428</text>
<text text-anchor="middle" x="416.0302" y="-222.2" font-family="Times,serif" font-size="14.00" fill="#000000">nuclear part</text>
</g>
<!-- GO:0044454&#45;&gt;GO:0044428 -->
<g id="edge7" class="edge">
<title>GO:0044454&#45;&gt;GO:0044428</title>
<path fill="none" stroke="#000000" d="M443.2626,-161.3504C438.5953,-173.9387 432.5738,-190.1795 427.3803,-204.1872"/>
<polygon fill="#000000" stroke="#000000" points="423.9709,-203.3151 423.7761,-213.9081 430.5343,-205.7486 423.9709,-203.3151"/>
</g>
<!-- GO:0044446 -->
<g id="node10" class="node">
<title>GO:0044446</title>
<polygon fill="#ffffff" stroke="#000000" points="506.7486,-358.6014 367.3118,-358.6014 367.3118,-299.7986 506.7486,-299.7986 506.7486,-358.6014"/>
<text text-anchor="middle" x="437.0302" y="-341.8" font-family="Times,serif" font-size="14.00" fill="#000000">GO:0044446</text>
<text text-anchor="middle" x="437.0302" y="-325" font-family="Times,serif" font-size="14.00" fill="#000000">intracellular organelle</text>
<text text-anchor="middle" x="437.0302" y="-308.2" font-family="Times,serif" font-size="14.00" fill="#000000">part</text>
</g>
<!-- GO:0044427&#45;&gt;GO:0044446 -->
<g id="edge8" class="edge">
<title>GO:0044427&#45;&gt;GO:0044446</title>
<path fill="none" stroke="#000000" d="M514.837,-255.7504C503.3891,-266.5572 489.0896,-280.0559 475.8833,-292.5227"/>
<polygon fill="#000000" stroke="#000000" points="473.1329,-290.3058 468.2638,-299.7155 477.9381,-295.3961 473.1329,-290.3058"/>
</g>
<!-- GO:0044428&#45;&gt;GO:0044446 -->
<g id="edge9" class="edge">
<title>GO:0044428&#45;&gt;GO:0044446</title>
<path fill="none" stroke="#000000" d="M420.6908,-255.7504C422.9151,-265.7492 425.652,-278.0525 428.2455,-289.7106"/>
<polygon fill="#000000" stroke="#000000" points="424.8831,-290.7142 430.4712,-299.7155 431.7161,-289.1941 424.8831,-290.7142"/>
</g>
<!-- GO:0044424 -->
<g id="node11" class="node">
<title>GO:0044424</title>
<polygon fill="#ffffff" stroke="#000000" points="343.4286,-452.6019 234.6318,-452.6019 234.6318,-411.3981 343.4286,-411.3981 343.4286,-452.6019"/>
<text text-anchor="middle" x="289.0302" y="-436.2" font-family="Times,serif" font-size="14.00" fill="#000000">GO:0044424</text>
<text text-anchor="middle" x="289.0302" y="-419.4" font-family="Times,serif" font-size="14.00" fill="#000000">intracellular part</text>
</g>
<!-- GO:0044446&#45;&gt;GO:0044424 -->
<g id="edge10" class="edge">
<title>GO:0044446&#45;&gt;GO:0044424</title>
<path fill="none" stroke="#000000" d="M394.6193,-358.6584C373.2984,-373.4678 347.6703,-391.2689 327.0022,-405.6249"/>
<polygon fill="#000000" stroke="#000000" points="324.9825,-402.7662 318.7661,-411.3456 328.9759,-408.5154 324.9825,-402.7662"/>
</g>
<!-- GO:0044422 -->
<g id="node12" class="node">
<title>GO:0044422</title>
<polygon fill="#ffffff" stroke="#000000" points="437.8823,-624.6019 344.1781,-624.6019 344.1781,-583.3981 437.8823,-583.3981 437.8823,-624.6019"/>
<text text-anchor="middle" x="391.0302" y="-608.2" font-family="Times,serif" font-size="14.00" fill="#000000">GO:0044422</text>
<text text-anchor="middle" x="391.0302" y="-591.4" font-family="Times,serif" font-size="14.00" fill="#000000">organelle part</text>
</g>
<!-- GO:0044446&#45;&gt;GO:0044422 -->
<g id="edge11" class="edge">
<title>GO:0044446&#45;&gt;GO:0044422</title>
<path fill="none" stroke="#000000" d="M432.1074,-358.6084C423.329,-411.0497 405.0597,-520.1887 396.145,-573.4445"/>
<polygon fill="#000000" stroke="#000000" points="392.6915,-572.8766 394.4924,-583.3172 399.5954,-574.0323 392.6915,-572.8766"/>
</g>
<!-- GO:0044464 -->
<g id="node13" class="node">
<title>GO:0044464</title>
<polygon fill="#ffffff" stroke="#000000" points="333.6341,-702.2019 244.4263,-702.2019 244.4263,-660.9981 333.6341,-660.9981 333.6341,-702.2019"/>
<text text-anchor="middle" x="289.0302" y="-685.8" font-family="Times,serif" font-size="14.00" fill="#000000">GO:0044464</text>
<text text-anchor="middle" x="289.0302" y="-669" font-family="Times,serif" font-size="14.00" fill="#000000">cell part</text>
</g>
<!-- GO:0044424&#45;&gt;GO:0044464 -->
<g id="edge12" class="edge">
<title>GO:0044424&#45;&gt;GO:0044464</title>
<path fill="none" stroke="#000000" d="M289.0302,-452.8514C289.0302,-496.8243 289.0302,-599.2412 289.0302,-650.794"/>
<polygon fill="#000000" stroke="#000000" points="285.5303,-650.9834 289.0302,-660.9834 292.5303,-650.9835 285.5303,-650.9834"/>
</g>
<!-- GO:0044422&#45;&gt;GO:0005575 -->
<g id="edge13" class="edge">
<title>GO:0044422&#45;&gt;GO:0005575</title>
<path fill="none" stroke="#000000" d="M381.9784,-624.6594C363.8697,-665.9898 323.1219,-758.9908 302.1097,-806.948"/>
<polygon fill="#000000" stroke="#000000" points="298.8691,-805.6228 298.0617,-816.1869 305.2807,-808.4321 298.8691,-805.6228"/>
</g>
<!-- GO:0044464&#45;&gt;GO:0005575 -->
<g id="edge22" class="edge">
<title>GO:0044464&#45;&gt;GO:0005575</title>
<path fill="none" stroke="#000000" d="M289.0302,-702.2094C289.0302,-728.7627 289.0302,-775.1577 289.0302,-805.9304"/>
<polygon fill="#000000" stroke="#000000" points="285.5303,-806.1054 289.0302,-816.1054 292.5303,-806.1054 285.5303,-806.1054"/>
</g>
<!-- GO:0005657 -->
<g id="node14" class="node">
<title>GO:0005657</title>
<polygon fill="#ffffff" stroke="#000000" points="650.2187,-161.0019 547.8417,-161.0019 547.8417,-119.7981 650.2187,-119.7981 650.2187,-161.0019"/>
<text text-anchor="middle" x="599.0302" y="-144.6" font-family="Times,serif" font-size="14.00" fill="#000000">GO:0005657</text>
<text text-anchor="middle" x="599.0302" y="-127.8" font-family="Times,serif" font-size="14.00" fill="#000000">replication fork</text>
</g>
<!-- GO:0005657&#45;&gt;GO:0044427 -->
<g id="edge14" class="edge">
<title>GO:0005657&#45;&gt;GO:0044427</title>
<path fill="none" stroke="#000000" d="M585.2704,-161.3504C576.7619,-174.3054 565.7126,-191.1287 556.336,-205.4053"/>
<polygon fill="#000000" stroke="#000000" points="553.3158,-203.6283 550.7515,-213.9081 559.1667,-207.4711 553.3158,-203.6283"/>
</g>
<!-- GO:0005658 -->
<g id="node15" class="node">
<title>GO:0005658</title>
<polygon fill="#ffffff" stroke="#000000" points="423.2669,-75.3003 294.7935,-75.3003 294.7935,.1003 423.2669,.1003 423.2669,-75.3003"/>
<text text-anchor="middle" x="359.0302" y="-58.6" font-family="Times,serif" font-size="14.00" fill="#000000">GO:0005658</text>
<text text-anchor="middle" x="359.0302" y="-41.8" font-family="Times,serif" font-size="14.00" fill="#000000">alpha DNA</text>
<text text-anchor="middle" x="359.0302" y="-25" font-family="Times,serif" font-size="14.00" fill="#000000">polymerase:primase</text>
<text text-anchor="middle" x="359.0302" y="-8.2" font-family="Times,serif" font-size="14.00" fill="#000000">complex</text>
</g>
<!-- GO:0005658&#45;&gt;GO:0044454 -->
<g id="edge15" class="edge">
<title>GO:0005658&#45;&gt;GO:0044454</title>
<path fill="none" stroke="#000000" d="M392.7652,-75.2952C403.682,-87.4935 415.5931,-100.8028 425.7844,-112.1906"/>
<polygon fill="#000000" stroke="#000000" points="423.255,-114.6126 432.5319,-119.7302 428.4712,-109.9444 423.255,-114.6126"/>
</g>
<!-- GO:0055029 -->
<g id="node16" class="node">
<title>GO:0055029</title>
<polygon fill="#ffffff" stroke="#000000" points="353.8411,-169.8014 180.2193,-169.8014 180.2193,-110.9986 353.8411,-110.9986 353.8411,-169.8014"/>
<text text-anchor="middle" x="267.0302" y="-153" font-family="Times,serif" font-size="14.00" fill="#000000">GO:0055029</text>
<text text-anchor="middle" x="267.0302" y="-136.2" font-family="Times,serif" font-size="14.00" fill="#000000">nuclear DNA&#45;directed RNA</text>
<text text-anchor="middle" x="267.0302" y="-119.4" font-family="Times,serif" font-size="14.00" fill="#000000">polymerase complex</text>
</g>
<!-- GO:0005658&#45;&gt;GO:0055029 -->
<g id="edge16" class="edge">
<title>GO:0005658&#45;&gt;GO:0055029</title>
<path fill="none" stroke="#000000" d="M325.2952,-75.2952C317.0419,-84.5174 308.2203,-94.3745 300.0032,-103.5563"/>
<polygon fill="#000000" stroke="#000000" points="297.3294,-101.2956 293.2687,-111.0814 302.5456,-105.9638 297.3294,-101.2956"/>
</g>
<!-- GO:0055029&#45;&gt;GO:0044428 -->
<g id="edge17" class="edge">
<title>GO:0055029&#45;&gt;GO:0044428</title>
<path fill="none" stroke="#000000" d="M313.358,-169.7513C333.0639,-182.2361 355.8538,-196.6748 374.9489,-208.7727"/>
<polygon fill="#000000" stroke="#000000" points="373.1175,-211.7556 383.438,-214.151 376.8638,-205.8425 373.1175,-211.7556"/>
</g>
<!-- GO:0000428 -->
<g id="node17" class="node">
<title>GO:0000428</title>
<polygon fill="#ffffff" stroke="#000000" points="333.271,-264.2014 200.7894,-264.2014 200.7894,-205.3986 333.271,-205.3986 333.271,-264.2014"/>
<text text-anchor="middle" x="267.0302" y="-247.4" font-family="Times,serif" font-size="14.00" fill="#000000">GO:0000428</text>
<text text-anchor="middle" x="267.0302" y="-230.6" font-family="Times,serif" font-size="14.00" fill="#000000">DNA&#45;directed RNA</text>
<text text-anchor="middle" x="267.0302" y="-213.8" font-family="Times,serif" font-size="14.00" fill="#000000">polymerase complex</text>
</g>
<!-- GO:0055029&#45;&gt;GO:0000428 -->
<g id="edge18" class="edge">
<title>GO:0055029&#45;&gt;GO:0000428</title>
<path fill="none" stroke="#000000" d="M267.0302,-169.7513C267.0302,-177.8318 267.0302,-186.7308 267.0302,-195.2838"/>
<polygon fill="#000000" stroke="#000000" points="263.5303,-195.4668 267.0302,-205.4669 270.5303,-195.4669 263.5303,-195.4668"/>
</g>
<!-- GO:0030880 -->
<g id="node18" class="node">
<title>GO:0030880</title>
<polygon fill="#ffffff" stroke="#000000" points="349.8209,-349.8019 184.2395,-349.8019 184.2395,-308.5981 349.8209,-308.5981 349.8209,-349.8019"/>
<text text-anchor="middle" x="267.0302" y="-333.4" font-family="Times,serif" font-size="14.00" fill="#000000">GO:0030880</text>
<text text-anchor="middle" x="267.0302" y="-316.6" font-family="Times,serif" font-size="14.00" fill="#000000">RNA polymerase complex</text>
</g>
<!-- GO:0000428&#45;&gt;GO:0030880 -->
<g id="edge19" class="edge">
<title>GO:0000428&#45;&gt;GO:0030880</title>
<path fill="none" stroke="#000000" d="M267.0302,-264.1513C267.0302,-275.0614 267.0302,-287.4637 267.0302,-298.492"/>
<polygon fill="#000000" stroke="#000000" points="263.5303,-298.5509 267.0302,-308.551 270.5303,-298.551 263.5303,-298.5509"/>
</g>
<!-- GO:0030880&#45;&gt;GO:0061695 -->
<g id="edge21" class="edge">
<title>GO:0030880&#45;&gt;GO:0061695</title>
<path fill="none" stroke="#000000" d="M241.3299,-350.0031C227.8135,-360.9439 210.7046,-374.7927 194.4133,-387.9797"/>
<polygon fill="#000000" stroke="#000000" points="192.0714,-385.3723 186.5007,-394.3845 196.4756,-390.8133 192.0714,-385.3723"/>
</g>
<!-- GO:0030880&#45;&gt;GO:0044424 -->
<g id="edge20" class="edge">
<title>GO:0030880&#45;&gt;GO:0044424</title>
<path fill="none" stroke="#000000" d="M271.4822,-350.0031C274.6431,-364.773 278.9381,-384.8424 282.4878,-401.429"/>
<polygon fill="#000000" stroke="#000000" points="279.0695,-402.1817 284.5848,-411.2278 285.9145,-400.7168 279.0695,-402.1817"/>
</g>
<!-- GO:0042575 -->
<g id="node19" class="node">
<title>GO:0042575</title>
<polygon fill="#ffffff" stroke="#000000" points="166.0906,-349.8019 -.0302,-349.8019 -.0302,-308.5981 166.0906,-308.5981 166.0906,-349.8019"/>
<text text-anchor="middle" x="83.0302" y="-333.4" font-family="Times,serif" font-size="14.00" fill="#000000">GO:0042575</text>
<text text-anchor="middle" x="83.0302" y="-316.6" font-family="Times,serif" font-size="14.00" fill="#000000">DNA polymerase complex</text>
</g>
<!-- GO:0042575&#45;&gt;GO:0061695 -->
<g id="edge24" class="edge">
<title>GO:0042575&#45;&gt;GO:0061695</title>
<path fill="none" stroke="#000000" d="M94.565,-350.0031C100.2192,-360.2005 107.2741,-372.924 114.127,-385.2834"/>
<polygon fill="#000000" stroke="#000000" points="111.1482,-387.1289 119.0584,-394.1773 117.2701,-383.7344 111.1482,-387.1289"/>
</g>
<!-- GO:0042575&#45;&gt;GO:0044424 -->
<g id="edge23" class="edge">
<title>GO:0042575&#45;&gt;GO:0044424</title>
<path fill="none" stroke="#000000" d="M131.9901,-349.9239C159.9077,-362.1362 195.341,-378.3083 226.0302,-394.4 232.9308,-398.0183 240.1308,-402.0543 247.093,-406.1018"/>
<polygon fill="#000000" stroke="#000000" points="245.3527,-409.1387 255.7443,-411.2041 248.9088,-403.1093 245.3527,-409.1387"/>
</g>
</g>
</svg>
