<?xml version="1.0" encoding="UTF-8" standalone="no"?>
<!DOCTYPE svg PUBLIC "-//W3C//DTD SVG 1.1//EN"
 "http://www.w3.org/Graphics/SVG/1.1/DTD/svg11.dtd">
<!-- Generated by graphviz version 2.40.1 (20161225.0304)
 -->
<!-- Title: G Pages: 1 -->
<svg width="797pt" height="505pt"
 viewBox="0.00 0.00 796.80 504.80" xmlns="http://www.w3.org/2000/svg" xmlns:xlink="http://www.w3.org/1999/xlink">
<g id="graph0" class="graph" transform="scale(1 1) rotate(0) translate(4 500.8)">
<title>G</title>
<polygon fill="#ffffff" stroke="transparent" points="-4,4 -4,-500.8 792.7953,-500.8 792.7953,4 -4,4"/>
<!-- GO:0004518 -->
<g id="node1" class="node">
<title>GO:0004518</title>
<polygon fill="#ffffff" stroke="#000000" points="121.9757,-127.4019 12.6043,-127.4019 12.6043,-86.1981 121.9757,-86.1981 121.9757,-127.4019"/>
<text text-anchor="middle" x="67.29" y="-111" font-family="Times,serif" font-size="14.00" fill="#000000">GO:0004518</text>
<text text-anchor="middle" x="67.29" y="-94.2" font-family="Times,serif" font-size="14.00" fill="#000000">nuclease activity</text>
</g>
<!-- GO:0016788 -->
<g id="node2" class="node">
<title>GO:0016788</title>
<polygon fill="#ffffff" stroke="#000000" points="134.3707,-239.0014 .2093,-239.0014 .2093,-180.1986 134.3707,-180.1986 134.3707,-239.0014"/>
<text text-anchor="middle" x="67.29" y="-222.2" font-family="Times,serif" font-size="14.00" fill="#000000">GO:0016788</text>
<text text-anchor="middle" x="67.29" y="-205.4" font-family="Times,serif" font-size="14.00" fill="#000000">hydrolase activity,</text>
<text text-anchor="middle" x="67.29" y="-188.6" font-family="Times,serif" font-size="14.00" fill="#000000">acting on ester bonds</text>
</g>
<!-- GO:0004518&#45;&gt;GO:0016788 -->
<g id="edge1" class="edge">
<title>GO:0004518&#45;&gt;GO:0016788</title>
<path fill="none" stroke="#000000" d="M67.29,-127.6031C67.29,-139.7833 67.29,-155.5676 67.29,-170.0305"/>
<polygon fill="#000000" stroke="#000000" points="63.7901,-170.2577 67.29,-180.2577 70.7901,-170.2578 63.7901,-170.2577"/>
</g>
<!-- GO:0016787 -->
<g id="node3" class="node">
<title>GO:0016787</title>
<polygon fill="#ffffff" stroke="#000000" points="137.2066,-333.0019 21.3734,-333.0019 21.3734,-291.7981 137.2066,-291.7981 137.2066,-333.0019"/>
<text text-anchor="middle" x="79.29" y="-316.6" font-family="Times,serif" font-size="14.00" fill="#000000">GO:0016787</text>
<text text-anchor="middle" x="79.29" y="-299.8" font-family="Times,serif" font-size="14.00" fill="#000000">hydrolase activity</text>
</g>
<!-- GO:0016788&#45;&gt;GO:0016787 -->
<g id="edge2" class="edge">
<title>GO:0016788&#45;&gt;GO:0016787</title>
<path fill="none" stroke="#000000" d="M70.7287,-239.0584C72.2807,-252.3539 74.1142,-268.0608 75.6855,-281.5212"/>
<polygon fill="#000000" stroke="#000000" points="72.2431,-282.2189 76.879,-291.7456 79.1959,-281.4072 72.2431,-282.2189"/>
</g>
<!-- GO:0003824 -->
<g id="node4" class="node">
<title>GO:0003824</title>
<polygon fill="#ffffff" stroke="#000000" points="276.7024,-419.0019 167.8776,-419.0019 167.8776,-377.7981 276.7024,-377.7981 276.7024,-419.0019"/>
<text text-anchor="middle" x="222.29" y="-402.6" font-family="Times,serif" font-size="14.00" fill="#000000">GO:0003824</text>
<text text-anchor="middle" x="222.29" y="-385.8" font-family="Times,serif" font-size="14.00" fill="#000000">catalytic activity</text>
</g>
<!-- GO:0016787&#45;&gt;GO:0003824 -->
<g id="edge3" class="edge">
<title>GO:0016787&#45;&gt;GO:0003824</title>
<path fill="none" stroke="#000000" d="M113.9063,-333.2182C133.5791,-345.0494 158.3818,-359.9657 179.2944,-372.5425"/>
<polygon fill="#000000" stroke="#000000" points="177.619,-375.6191 187.9925,-377.7735 181.2267,-369.6203 177.619,-375.6191"/>
</g>
<!-- GO:0003674 -->
<g id="node5" class="node">
<title>GO:0003674</title>
<polygon fill="#ffffff" stroke="#000000" points="363.9231,-496.6019 238.6569,-496.6019 238.6569,-455.3981 363.9231,-455.3981 363.9231,-496.6019"/>
<text text-anchor="middle" x="301.29" y="-480.2" font-family="Times,serif" font-size="14.00" fill="#000000">GO:0003674</text>
<text text-anchor="middle" x="301.29" y="-463.4" font-family="Times,serif" font-size="14.00" fill="#000000">molecular_function</text>
</g>
<!-- GO:0003824&#45;&gt;GO:0003674 -->
<g id="edge4" class="edge">
<title>GO:0003824&#45;&gt;GO:0003674</title>
<path fill="none" stroke="#000000" d="M243.4606,-419.1954C252.4929,-428.0677 263.1683,-438.5539 272.8726,-448.0862"/>
<polygon fill="#000000" stroke="#000000" points="270.4743,-450.6365 280.061,-455.1472 275.3796,-445.6427 270.4743,-450.6365"/>
</g>
<!-- GO:0034061 -->
<g id="node6" class="node">
<title>GO:0034061</title>
<polygon fill="#ffffff" stroke="#000000" points="309.1317,-41.4019 149.4483,-41.4019 149.4483,-.1981 309.1317,-.1981 309.1317,-41.4019"/>
<text text-anchor="middle" x="229.29" y="-25" font-family="Times,serif" font-size="14.00" fill="#000000">GO:0034061</text>
<text text-anchor="middle" x="229.29" y="-8.2" font-family="Times,serif" font-size="14.00" fill="#000000">DNA polymerase activity</text>
</g>
<!-- GO:0016779 -->
<g id="node7" class="node">
<title>GO:0016779</title>
<polygon fill="#ffffff" stroke="#000000" points="298.9021,-136.2014 159.6779,-136.2014 159.6779,-77.3986 298.9021,-77.3986 298.9021,-136.2014"/>
<text text-anchor="middle" x="229.29" y="-119.4" font-family="Times,serif" font-size="14.00" fill="#000000">GO:0016779</text>
<text text-anchor="middle" x="229.29" y="-102.6" font-family="Times,serif" font-size="14.00" fill="#000000">nucleotidyltransferase</text>
<text text-anchor="middle" x="229.29" y="-85.8" font-family="Times,serif" font-size="14.00" fill="#000000">activity</text>
</g>
<!-- GO:0034061&#45;&gt;GO:0016779 -->
<g id="edge5" class="edge">
<title>GO:0034061&#45;&gt;GO:0016779</title>
<path fill="none" stroke="#000000" d="M229.29,-41.6182C229.29,-49.3358 229.29,-58.3662 229.29,-67.2036"/>
<polygon fill="#000000" stroke="#000000" points="225.7901,-67.3991 229.29,-77.3991 232.7901,-67.3992 225.7901,-67.3991"/>
</g>
<!-- GO:0016772 -->
<g id="node8" class="node">
<title>GO:0016772</title>
<polygon fill="#ffffff" stroke="#000000" points="306.2978,-247.3003 152.2822,-247.3003 152.2822,-171.8997 306.2978,-171.8997 306.2978,-247.3003"/>
<text text-anchor="middle" x="229.29" y="-230.6" font-family="Times,serif" font-size="14.00" fill="#000000">GO:0016772</text>
<text text-anchor="middle" x="229.29" y="-213.8" font-family="Times,serif" font-size="14.00" fill="#000000">transferase activity,</text>
<text text-anchor="middle" x="229.29" y="-197" font-family="Times,serif" font-size="14.00" fill="#000000">transferring phosphorus&#45;</text>
<text text-anchor="middle" x="229.29" y="-180.2" font-family="Times,serif" font-size="14.00" fill="#000000">containing groups</text>
</g>
<!-- GO:0016779&#45;&gt;GO:0016772 -->
<g id="edge6" class="edge">
<title>GO:0016779&#45;&gt;GO:0016772</title>
<path fill="none" stroke="#000000" d="M229.29,-136.2584C229.29,-144.1901 229.29,-152.98 229.29,-161.6392"/>
<polygon fill="#000000" stroke="#000000" points="225.7901,-161.6849 229.29,-171.685 232.7901,-161.685 225.7901,-161.6849"/>
</g>
<!-- GO:0016740 -->
<g id="node9" class="node">
<title>GO:0016740</title>
<polygon fill="#ffffff" stroke="#000000" points="283.4017,-333.0019 161.1783,-333.0019 161.1783,-291.7981 283.4017,-291.7981 283.4017,-333.0019"/>
<text text-anchor="middle" x="222.29" y="-316.6" font-family="Times,serif" font-size="14.00" fill="#000000">GO:0016740</text>
<text text-anchor="middle" x="222.29" y="-299.8" font-family="Times,serif" font-size="14.00" fill="#000000">transferase activity</text>
</g>
<!-- GO:0016772&#45;&gt;GO:0016740 -->
<g id="edge7" class="edge">
<title>GO:0016772&#45;&gt;GO:0016740</title>
<path fill="none" stroke="#000000" d="M226.7232,-247.2952C225.9565,-258.5552 225.1253,-270.7618 224.392,-281.5299"/>
<polygon fill="#000000" stroke="#000000" points="220.885,-281.5155 223.6975,-291.7302 227.8688,-281.9911 220.885,-281.5155"/>
</g>
<!-- GO:0016740&#45;&gt;GO:0003824 -->
<g id="edge8" class="edge">
<title>GO:0016740&#45;&gt;GO:0003824</title>
<path fill="none" stroke="#000000" d="M222.29,-333.2182C222.29,-343.5705 222.29,-356.2848 222.29,-367.7271"/>
<polygon fill="#000000" stroke="#000000" points="218.7901,-367.7735 222.29,-377.7735 225.7901,-367.7735 218.7901,-367.7735"/>
</g>
<!-- GO:0036094 -->
<g id="node10" class="node">
<title>GO:0036094</title>
<polygon fill="#ffffff" stroke="#000000" points="624.2184,-333.0019 476.3616,-333.0019 476.3616,-291.7981 624.2184,-291.7981 624.2184,-333.0019"/>
<text text-anchor="middle" x="550.29" y="-316.6" font-family="Times,serif" font-size="14.00" fill="#000000">GO:0036094</text>
<text text-anchor="middle" x="550.29" y="-299.8" font-family="Times,serif" font-size="14.00" fill="#000000">small molecule binding</text>
</g>
<!-- GO:0005488 -->
<g id="node11" class="node">
<title>GO:0005488</title>
<polygon fill="#ffffff" stroke="#000000" points="509.8939,-419.0019 420.6861,-419.0019 420.6861,-377.7981 509.8939,-377.7981 509.8939,-419.0019"/>
<text text-anchor="middle" x="465.29" y="-402.6" font-family="Times,serif" font-size="14.00" fill="#000000">GO:0005488</text>
<text text-anchor="middle" x="465.29" y="-385.8" font-family="Times,serif" font-size="14.00" fill="#000000">binding</text>
</g>
<!-- GO:0036094&#45;&gt;GO:0005488 -->
<g id="edge9" class="edge">
<title>GO:0036094&#45;&gt;GO:0005488</title>
<path fill="none" stroke="#000000" d="M529.7139,-333.2182C518.6467,-344.4156 504.8482,-358.3764 492.8637,-370.5019"/>
<polygon fill="#000000" stroke="#000000" points="490.217,-368.2008 485.6766,-377.7735 495.1956,-373.1216 490.217,-368.2008"/>
</g>
<!-- GO:0005488&#45;&gt;GO:0003674 -->
<g id="edge10" class="edge">
<title>GO:0005488&#45;&gt;GO:0003674</title>
<path fill="none" stroke="#000000" d="M421.341,-419.1954C400.6689,-428.9768 375.8513,-440.7198 354.1596,-450.9837"/>
<polygon fill="#000000" stroke="#000000" points="352.6179,-447.841 345.0757,-455.2819 355.6119,-454.1685 352.6179,-447.841"/>
</g>
<!-- GO:1901265 -->
<g id="node12" class="node">
<title>GO:1901265</title>
<polygon fill="#ffffff" stroke="#000000" points="618.4241,-239.0014 482.1559,-239.0014 482.1559,-180.1986 618.4241,-180.1986 618.4241,-239.0014"/>
<text text-anchor="middle" x="550.29" y="-222.2" font-family="Times,serif" font-size="14.00" fill="#000000">GO:1901265</text>
<text text-anchor="middle" x="550.29" y="-205.4" font-family="Times,serif" font-size="14.00" fill="#000000">nucleoside phosphate</text>
<text text-anchor="middle" x="550.29" y="-188.6" font-family="Times,serif" font-size="14.00" fill="#000000">binding</text>
</g>
<!-- GO:0097159 -->
<g id="node13" class="node">
<title>GO:0097159</title>
<polygon fill="#ffffff" stroke="#000000" points="458.8014,-341.8014 301.7786,-341.8014 301.7786,-282.9986 458.8014,-282.9986 458.8014,-341.8014"/>
<text text-anchor="middle" x="380.29" y="-325" font-family="Times,serif" font-size="14.00" fill="#000000">GO:0097159</text>
<text text-anchor="middle" x="380.29" y="-308.2" font-family="Times,serif" font-size="14.00" fill="#000000">organic cyclic compound</text>
<text text-anchor="middle" x="380.29" y="-291.4" font-family="Times,serif" font-size="14.00" fill="#000000">binding</text>
</g>
<!-- GO:1901265&#45;&gt;GO:0097159 -->
<g id="edge11" class="edge">
<title>GO:1901265&#45;&gt;GO:0097159</title>
<path fill="none" stroke="#000000" d="M501.5748,-239.0584C481.5717,-251.1544 458.2681,-265.2462 437.4642,-277.8264"/>
<polygon fill="#000000" stroke="#000000" points="435.4642,-274.9456 428.7182,-283.1152 439.0864,-280.9356 435.4642,-274.9456"/>
</g>
<!-- GO:1901363 -->
<g id="node14" class="node">
<title>GO:1901363</title>
<polygon fill="#ffffff" stroke="#000000" points="788.8006,-341.8014 641.7794,-341.8014 641.7794,-282.9986 788.8006,-282.9986 788.8006,-341.8014"/>
<text text-anchor="middle" x="715.29" y="-325" font-family="Times,serif" font-size="14.00" fill="#000000">GO:1901363</text>
<text text-anchor="middle" x="715.29" y="-308.2" font-family="Times,serif" font-size="14.00" fill="#000000">heterocyclic compound</text>
<text text-anchor="middle" x="715.29" y="-291.4" font-family="Times,serif" font-size="14.00" fill="#000000">binding</text>
</g>
<!-- GO:1901265&#45;&gt;GO:1901363 -->
<g id="edge12" class="edge">
<title>GO:1901265&#45;&gt;GO:1901363</title>
<path fill="none" stroke="#000000" d="M597.5724,-239.0584C616.9872,-251.1544 639.6053,-265.2462 659.7974,-277.8264"/>
<polygon fill="#000000" stroke="#000000" points="657.9479,-280.7978 668.2862,-283.1152 661.6495,-274.8566 657.9479,-280.7978"/>
</g>
<!-- GO:0097159&#45;&gt;GO:0005488 -->
<g id="edge13" class="edge">
<title>GO:0097159&#45;&gt;GO:0005488</title>
<path fill="none" stroke="#000000" d="M409.5422,-341.9963C418.6214,-351.1824 428.5969,-361.2752 437.5687,-370.3526"/>
<polygon fill="#000000" stroke="#000000" points="435.3083,-373.0446 444.8273,-377.6966 440.287,-368.1239 435.3083,-373.0446"/>
</g>
<!-- GO:1901363&#45;&gt;GO:0005488 -->
<g id="edge14" class="edge">
<title>GO:1901363&#45;&gt;GO:0005488</title>
<path fill="none" stroke="#000000" d="M641.5525,-338.7207C638.7641,-339.696 636.0025,-340.6586 633.29,-341.6 595.4639,-354.7284 552.7148,-369.1762 519.8058,-380.215"/>
<polygon fill="#000000" stroke="#000000" points="518.2946,-377.0301 509.9249,-383.5262 520.5188,-383.6673 518.2946,-377.0301"/>
</g>
</g>
</svg>
