<?xml version="1.0" encoding="UTF-8" standalone="no"?>
<!DOCTYPE svg PUBLIC "-//W3C//DTD SVG 1.1//EN"
 "http://www.w3.org/Graphics/SVG/1.1/DTD/svg11.dtd">
<!-- Generated by graphviz version 2.40.1 (20161225.0304)
 -->
<!-- Title: G Pages: 1 -->
<svg width="992pt" height="855pt"
 viewBox="0.00 0.00 992.14 855.20" xmlns="http://www.w3.org/2000/svg" xmlns:xlink="http://www.w3.org/1999/xlink">
<g id="graph0" class="graph" transform="scale(1 1) rotate(0) translate(4 851.2)">
<title>G</title>
<polygon fill="#ffffff" stroke="transparent" points="-4,4 -4,-851.2 988.1438,-851.2 988.1438,4 -4,4"/>
<!-- GO:0040011 -->
<g id="node1" class="node">
<title>GO:0040011</title>
<polygon fill="#ff00ff" stroke="#000000" points="984.1958,-589.0019 894.988,-589.0019 894.988,-547.7981 984.1958,-547.7981 984.1958,-589.0019"/>
<text text-anchor="middle" x="939.5919" y="-572.6" font-family="Times,serif" font-size="14.00" fill="#000000">GO:0040011</text>
<text text-anchor="middle" x="939.5919" y="-555.8" font-family="Times,serif" font-size="14.00" fill="#000000">locomotion</text>
</g>
<!-- GO:0008150 -->
<g id="node2" class="node">
<title>GO:0008150</title>
<polygon fill="#ffffff" stroke="#000000" points="559.0625,-847.0019 438.1213,-847.0019 438.1213,-805.7981 559.0625,-805.7981 559.0625,-847.0019"/>
<text text-anchor="middle" x="498.5919" y="-830.6" font-family="Times,serif" font-size="14.00" fill="#000000">GO:0008150</text>
<text text-anchor="middle" x="498.5919" y="-813.8" font-family="Times,serif" font-size="14.00" fill="#000000">biological_process</text>
</g>
<!-- GO:0040011&#45;&gt;GO:0008150 -->
<g id="edge1" class="edge">
<title>GO:0040011&#45;&gt;GO:0008150</title>
<path fill="none" stroke="#000000" d="M928.9671,-589.1486C906.5483,-630.6763 850.1843,-723.9327 774.5919,-769.6 740.7182,-790.0639 639.4188,-807.3489 569.4504,-817.2992"/>
<polygon fill="#000000" stroke="#000000" points="568.7832,-813.8584 559.3663,-818.7135 569.7555,-820.7906 568.7832,-813.8584"/>
</g>
<!-- GO:0046718 -->
<g id="node3" class="node">
<title>GO:0046718</title>
<polygon fill="#ffffff" stroke="#000000" points="202.6305,-169.8014 76.5533,-169.8014 76.5533,-110.9986 202.6305,-110.9986 202.6305,-169.8014"/>
<text text-anchor="middle" x="139.5919" y="-153" font-family="Times,serif" font-size="14.00" fill="#000000">GO:0046718</text>
<text text-anchor="middle" x="139.5919" y="-136.2" font-family="Times,serif" font-size="14.00" fill="#000000">viral entry into host</text>
<text text-anchor="middle" x="139.5919" y="-119.4" font-family="Times,serif" font-size="14.00" fill="#000000">cell</text>
</g>
<!-- GO:0030260 -->
<g id="node4" class="node">
<title>GO:0030260</title>
<polygon fill="#ffffff" stroke="#000000" points="199.6852,-263.8019 79.4986,-263.8019 79.4986,-222.5981 199.6852,-222.5981 199.6852,-263.8019"/>
<text text-anchor="middle" x="139.5919" y="-247.4" font-family="Times,serif" font-size="14.00" fill="#000000">GO:0030260</text>
<text text-anchor="middle" x="139.5919" y="-230.6" font-family="Times,serif" font-size="14.00" fill="#000000">entry into host cell</text>
</g>
<!-- GO:0046718&#45;&gt;GO:0030260 -->
<g id="edge2" class="edge">
<title>GO:0046718&#45;&gt;GO:0030260</title>
<path fill="none" stroke="#000000" d="M139.5919,-169.8584C139.5919,-183.1539 139.5919,-198.8608 139.5919,-212.3212"/>
<polygon fill="#000000" stroke="#000000" points="136.092,-212.5456 139.5919,-222.5456 143.092,-212.5457 136.092,-212.5456"/>
</g>
<!-- GO:0051806 -->
<g id="node5" class="node">
<title>GO:0051806</title>
<polygon fill="#ffffff" stroke="#000000" points="141.2758,-392.1003 -.092,-392.1003 -.092,-316.6997 141.2758,-316.6997 141.2758,-392.1003"/>
<text text-anchor="middle" x="70.5919" y="-375.4" font-family="Times,serif" font-size="14.00" fill="#000000">GO:0051806</text>
<text text-anchor="middle" x="70.5919" y="-358.6" font-family="Times,serif" font-size="14.00" fill="#000000">entry into cell of other</text>
<text text-anchor="middle" x="70.5919" y="-341.8" font-family="Times,serif" font-size="14.00" fill="#000000">organism involved in</text>
<text text-anchor="middle" x="70.5919" y="-325" font-family="Times,serif" font-size="14.00" fill="#000000">symbiotic interaction</text>
</g>
<!-- GO:0030260&#45;&gt;GO:0051806 -->
<g id="edge3" class="edge">
<title>GO:0030260&#45;&gt;GO:0051806</title>
<path fill="none" stroke="#000000" d="M126.7752,-263.8553C119.0866,-276.2463 108.9816,-292.5314 99.4639,-307.87"/>
<polygon fill="#000000" stroke="#000000" points="96.2492,-306.4127 93.9506,-316.7552 102.1972,-310.1034 96.2492,-306.4127"/>
</g>
<!-- GO:0044409 -->
<g id="node6" class="node">
<title>GO:0044409</title>
<polygon fill="#ffffff" stroke="#000000" points="255.9742,-375.0019 159.2096,-375.0019 159.2096,-333.7981 255.9742,-333.7981 255.9742,-375.0019"/>
<text text-anchor="middle" x="207.5919" y="-358.6" font-family="Times,serif" font-size="14.00" fill="#000000">GO:0044409</text>
<text text-anchor="middle" x="207.5919" y="-341.8" font-family="Times,serif" font-size="14.00" fill="#000000">entry into host</text>
</g>
<!-- GO:0030260&#45;&gt;GO:0044409 -->
<g id="edge4" class="edge">
<title>GO:0030260&#45;&gt;GO:0044409</title>
<path fill="none" stroke="#000000" d="M152.2228,-263.8553C162.7005,-280.9894 177.7314,-305.5692 189.489,-324.7965"/>
<polygon fill="#000000" stroke="#000000" points="186.5949,-326.7727 194.7979,-333.478 192.5668,-323.1207 186.5949,-326.7727"/>
</g>
<!-- GO:0051828 -->
<g id="node7" class="node">
<title>GO:0051828</title>
<polygon fill="#ffffff" stroke="#000000" points="217.5057,-503.3003 59.6781,-503.3003 59.6781,-427.8997 217.5057,-427.8997 217.5057,-503.3003"/>
<text text-anchor="middle" x="138.5919" y="-486.6" font-family="Times,serif" font-size="14.00" fill="#000000">GO:0051828</text>
<text text-anchor="middle" x="138.5919" y="-469.8" font-family="Times,serif" font-size="14.00" fill="#000000">entry into other organism</text>
<text text-anchor="middle" x="138.5919" y="-453" font-family="Times,serif" font-size="14.00" fill="#000000">involved in symbiotic</text>
<text text-anchor="middle" x="138.5919" y="-436.2" font-family="Times,serif" font-size="14.00" fill="#000000">interaction</text>
</g>
<!-- GO:0051806&#45;&gt;GO:0051828 -->
<g id="edge5" class="edge">
<title>GO:0051806&#45;&gt;GO:0051828</title>
<path fill="none" stroke="#000000" d="M93.6136,-392.0472C98.9861,-400.8329 104.7683,-410.2885 110.3386,-419.3975"/>
<polygon fill="#000000" stroke="#000000" points="107.3909,-421.2862 115.5939,-427.9915 113.3628,-417.6342 107.3909,-421.2862"/>
</g>
<!-- GO:0044409&#45;&gt;GO:0051828 -->
<g id="edge6" class="edge">
<title>GO:0044409&#45;&gt;GO:0051828</title>
<path fill="none" stroke="#000000" d="M194.7752,-375.0553C187.0866,-387.4463 176.9816,-403.7314 167.4639,-419.07"/>
<polygon fill="#000000" stroke="#000000" points="164.2492,-417.6127 161.9506,-427.9552 170.1972,-421.3034 164.2492,-417.6127"/>
</g>
<!-- GO:0051701 -->
<g id="node8" class="node">
<title>GO:0051701</title>
<polygon fill="#ffffff" stroke="#000000" points="204.1817,-589.0019 73.0021,-589.0019 73.0021,-547.7981 204.1817,-547.7981 204.1817,-589.0019"/>
<text text-anchor="middle" x="138.5919" y="-572.6" font-family="Times,serif" font-size="14.00" fill="#000000">GO:0051701</text>
<text text-anchor="middle" x="138.5919" y="-555.8" font-family="Times,serif" font-size="14.00" fill="#000000">interaction with host</text>
</g>
<!-- GO:0051828&#45;&gt;GO:0051701 -->
<g id="edge7" class="edge">
<title>GO:0051828&#45;&gt;GO:0051701</title>
<path fill="none" stroke="#000000" d="M138.5919,-503.2952C138.5919,-514.5552 138.5919,-526.7618 138.5919,-537.5299"/>
<polygon fill="#000000" stroke="#000000" points="135.092,-537.7302 138.5919,-547.7302 142.092,-537.7302 135.092,-537.7302"/>
</g>
<!-- GO:0044419 -->
<g id="node9" class="node">
<title>GO:0044419</title>
<polygon fill="#ffffff" stroke="#000000" points="211.5394,-692.2014 65.6444,-692.2014 65.6444,-633.3986 211.5394,-633.3986 211.5394,-692.2014"/>
<text text-anchor="middle" x="138.5919" y="-675.4" font-family="Times,serif" font-size="14.00" fill="#000000">GO:0044419</text>
<text text-anchor="middle" x="138.5919" y="-658.6" font-family="Times,serif" font-size="14.00" fill="#000000">interspecies interaction</text>
<text text-anchor="middle" x="138.5919" y="-641.8" font-family="Times,serif" font-size="14.00" fill="#000000">between organisms</text>
</g>
<!-- GO:0051701&#45;&gt;GO:0044419 -->
<g id="edge8" class="edge">
<title>GO:0051701&#45;&gt;GO:0044419</title>
<path fill="none" stroke="#000000" d="M138.5919,-589.3504C138.5919,-599.3492 138.5919,-611.6525 138.5919,-623.3106"/>
<polygon fill="#000000" stroke="#000000" points="135.092,-623.3155 138.5919,-633.3155 142.092,-623.3156 135.092,-623.3155"/>
</g>
<!-- GO:0051704 -->
<g id="node10" class="node">
<title>GO:0051704</title>
<polygon fill="#ffffff" stroke="#000000" points="214.395,-769.4019 66.7888,-769.4019 66.7888,-728.1981 214.395,-728.1981 214.395,-769.4019"/>
<text text-anchor="middle" x="140.5919" y="-753" font-family="Times,serif" font-size="14.00" fill="#000000">GO:0051704</text>
<text text-anchor="middle" x="140.5919" y="-736.2" font-family="Times,serif" font-size="14.00" fill="#000000">multi&#45;organism process</text>
</g>
<!-- GO:0044419&#45;&gt;GO:0051704 -->
<g id="edge9" class="edge">
<title>GO:0044419&#45;&gt;GO:0051704</title>
<path fill="none" stroke="#000000" d="M139.2802,-692.3963C139.4725,-700.6638 139.6818,-709.6657 139.8756,-718.0008"/>
<polygon fill="#000000" stroke="#000000" points="136.3788,-718.1807 140.1104,-728.0966 143.3769,-718.0178 136.3788,-718.1807"/>
</g>
<!-- GO:0051704&#45;&gt;GO:0008150 -->
<g id="edge10" class="edge">
<title>GO:0051704&#45;&gt;GO:0008150</title>
<path fill="none" stroke="#000000" d="M214.6759,-766.8744C218.7038,-767.8082 222.6957,-768.7222 226.5919,-769.6 294.8199,-784.9706 373.0046,-801.1485 427.9872,-812.2897"/>
<polygon fill="#000000" stroke="#000000" points="427.4806,-815.7581 437.976,-814.3101 428.8684,-808.897 427.4806,-815.7581"/>
</g>
<!-- GO:0042330 -->
<g id="node11" class="node">
<title>GO:0042330</title>
<polygon fill="#ffffff" stroke="#000000" points="984.1958,-486.2019 894.988,-486.2019 894.988,-444.9981 984.1958,-444.9981 984.1958,-486.2019"/>
<text text-anchor="middle" x="939.5919" y="-469.8" font-family="Times,serif" font-size="14.00" fill="#000000">GO:0042330</text>
<text text-anchor="middle" x="939.5919" y="-453" font-family="Times,serif" font-size="14.00" fill="#000000">taxis</text>
</g>
<!-- GO:0042330&#45;&gt;GO:0040011 -->
<g id="edge11" class="edge">
<title>GO:0042330&#45;&gt;GO:0040011</title>
<path fill="none" stroke="#000000" d="M939.5919,-486.4031C939.5919,-501.0337 939.5919,-520.8642 939.5919,-537.3586"/>
<polygon fill="#000000" stroke="#000000" points="936.092,-537.6278 939.5919,-547.6278 943.092,-537.6279 936.092,-537.6278"/>
</g>
<!-- GO:0050896 -->
<g id="node12" class="node">
<title>GO:0050896</title>
<polygon fill="#ffffff" stroke="#000000" points="365.9135,-769.4019 235.2703,-769.4019 235.2703,-728.1981 365.9135,-728.1981 365.9135,-769.4019"/>
<text text-anchor="middle" x="300.5919" y="-753" font-family="Times,serif" font-size="14.00" fill="#000000">GO:0050896</text>
<text text-anchor="middle" x="300.5919" y="-736.2" font-family="Times,serif" font-size="14.00" fill="#000000">response to stimulus</text>
</g>
<!-- GO:0050896&#45;&gt;GO:0008150 -->
<g id="edge12" class="edge">
<title>GO:0050896&#45;&gt;GO:0008150</title>
<path fill="none" stroke="#000000" d="M353.3922,-769.4934C378.8996,-779.4903 409.6816,-791.5544 436.3268,-801.9971"/>
<polygon fill="#000000" stroke="#000000" points="435.3511,-805.3739 445.9388,-805.7642 437.9055,-798.8565 435.3511,-805.3739"/>
</g>
<!-- GO:0006810 -->
<g id="node13" class="node">
<title>GO:0006810</title>
<polygon fill="#ffffff" stroke="#000000" points="479.1958,-589.0019 389.988,-589.0019 389.988,-547.7981 479.1958,-547.7981 479.1958,-589.0019"/>
<text text-anchor="middle" x="434.5919" y="-572.6" font-family="Times,serif" font-size="14.00" fill="#000000">GO:0006810</text>
<text text-anchor="middle" x="434.5919" y="-555.8" font-family="Times,serif" font-size="14.00" fill="#000000">transport</text>
</g>
<!-- GO:0051234 -->
<g id="node14" class="node">
<title>GO:0051234</title>
<polygon fill="#ffffff" stroke="#000000" points="488.7386,-692.2014 380.4452,-692.2014 380.4452,-633.3986 488.7386,-633.3986 488.7386,-692.2014"/>
<text text-anchor="middle" x="434.5919" y="-675.4" font-family="Times,serif" font-size="14.00" fill="#000000">GO:0051234</text>
<text text-anchor="middle" x="434.5919" y="-658.6" font-family="Times,serif" font-size="14.00" fill="#000000">establishment of</text>
<text text-anchor="middle" x="434.5919" y="-641.8" font-family="Times,serif" font-size="14.00" fill="#000000">localization</text>
</g>
<!-- GO:0006810&#45;&gt;GO:0051234 -->
<g id="edge13" class="edge">
<title>GO:0006810&#45;&gt;GO:0051234</title>
<path fill="none" stroke="#000000" d="M434.5919,-589.3504C434.5919,-599.3492 434.5919,-611.6525 434.5919,-623.3106"/>
<polygon fill="#000000" stroke="#000000" points="431.092,-623.3155 434.5919,-633.3155 438.092,-623.3156 431.092,-623.3155"/>
</g>
<!-- GO:0051179 -->
<g id="node15" class="node">
<title>GO:0051179</title>
<polygon fill="#ffffff" stroke="#000000" points="474.1958,-769.4019 384.988,-769.4019 384.988,-728.1981 474.1958,-728.1981 474.1958,-769.4019"/>
<text text-anchor="middle" x="429.5919" y="-753" font-family="Times,serif" font-size="14.00" fill="#000000">GO:0051179</text>
<text text-anchor="middle" x="429.5919" y="-736.2" font-family="Times,serif" font-size="14.00" fill="#000000">localization</text>
</g>
<!-- GO:0051234&#45;&gt;GO:0051179 -->
<g id="edge14" class="edge">
<title>GO:0051234&#45;&gt;GO:0051179</title>
<path fill="none" stroke="#000000" d="M432.8712,-692.3963C432.3905,-700.6638 431.8671,-709.6657 431.3825,-718.0008"/>
<polygon fill="#000000" stroke="#000000" points="427.882,-717.9102 430.7956,-728.0966 434.8702,-718.3166 427.882,-717.9102"/>
</g>
<!-- GO:0051179&#45;&gt;GO:0008150 -->
<g id="edge15" class="edge">
<title>GO:0051179&#45;&gt;GO:0008150</title>
<path fill="none" stroke="#000000" d="M448.0826,-769.5954C455.817,-778.2937 464.9306,-788.5433 473.2721,-797.9244"/>
<polygon fill="#000000" stroke="#000000" points="470.7897,-800.3999 480.0501,-805.5472 476.0208,-795.7485 470.7897,-800.3999"/>
</g>
<!-- GO:0072488 -->
<g id="node16" class="node">
<title>GO:0072488</title>
<polygon fill="#ffffff" stroke="#000000" points="661.1654,-67.0014 492.0184,-67.0014 492.0184,-8.1986 661.1654,-8.1986 661.1654,-67.0014"/>
<text text-anchor="middle" x="576.5919" y="-50.2" font-family="Times,serif" font-size="14.00" fill="#000000">GO:0072488</text>
<text text-anchor="middle" x="576.5919" y="-33.4" font-family="Times,serif" font-size="14.00" fill="#000000">ammonium transmembrane</text>
<text text-anchor="middle" x="576.5919" y="-16.6" font-family="Times,serif" font-size="14.00" fill="#000000">transport</text>
</g>
<!-- GO:0098655 -->
<g id="node17" class="node">
<title>GO:0098655</title>
<polygon fill="#ffffff" stroke="#000000" points="689.5983,-169.8014 549.5855,-169.8014 549.5855,-110.9986 689.5983,-110.9986 689.5983,-169.8014"/>
<text text-anchor="middle" x="619.5919" y="-153" font-family="Times,serif" font-size="14.00" fill="#000000">GO:0098655</text>
<text text-anchor="middle" x="619.5919" y="-136.2" font-family="Times,serif" font-size="14.00" fill="#000000">cation transmembrane</text>
<text text-anchor="middle" x="619.5919" y="-119.4" font-family="Times,serif" font-size="14.00" fill="#000000">transport</text>
</g>
<!-- GO:0072488&#45;&gt;GO:0098655 -->
<g id="edge16" class="edge">
<title>GO:0072488&#45;&gt;GO:0098655</title>
<path fill="none" stroke="#000000" d="M588.914,-67.0584C593.4121,-77.812 598.57,-90.1431 603.3569,-101.5871"/>
<polygon fill="#000000" stroke="#000000" points="600.1802,-103.0625 607.268,-110.9373 606.638,-100.3613 600.1802,-103.0625"/>
</g>
<!-- GO:0015696 -->
<g id="node18" class="node">
<title>GO:0015696</title>
<polygon fill="#ffffff" stroke="#000000" points="531.1305,-161.0019 398.0533,-161.0019 398.0533,-119.7981 531.1305,-119.7981 531.1305,-161.0019"/>
<text text-anchor="middle" x="464.5919" y="-144.6" font-family="Times,serif" font-size="14.00" fill="#000000">GO:0015696</text>
<text text-anchor="middle" x="464.5919" y="-127.8" font-family="Times,serif" font-size="14.00" fill="#000000">ammonium transport</text>
</g>
<!-- GO:0072488&#45;&gt;GO:0015696 -->
<g id="edge17" class="edge">
<title>GO:0072488&#45;&gt;GO:0015696</title>
<path fill="none" stroke="#000000" d="M544.4972,-67.0584C528.8644,-81.4071 510.1718,-98.5642 494.7979,-112.6752"/>
<polygon fill="#000000" stroke="#000000" points="492.0952,-110.4051 487.0947,-119.7456 496.8286,-115.5621 492.0952,-110.4051"/>
</g>
<!-- GO:0006812 -->
<g id="node19" class="node">
<title>GO:0006812</title>
<polygon fill="#ffffff" stroke="#000000" points="569.565,-263.8019 465.6188,-263.8019 465.6188,-222.5981 569.565,-222.5981 569.565,-263.8019"/>
<text text-anchor="middle" x="517.5919" y="-247.4" font-family="Times,serif" font-size="14.00" fill="#000000">GO:0006812</text>
<text text-anchor="middle" x="517.5919" y="-230.6" font-family="Times,serif" font-size="14.00" fill="#000000">cation transport</text>
</g>
<!-- GO:0098655&#45;&gt;GO:0006812 -->
<g id="edge18" class="edge">
<title>GO:0098655&#45;&gt;GO:0006812</title>
<path fill="none" stroke="#000000" d="M590.3628,-169.8584C576.2564,-184.0754 559.4143,-201.0496 545.4871,-215.086"/>
<polygon fill="#000000" stroke="#000000" points="542.6444,-212.9818 538.0855,-222.5456 547.6135,-217.9122 542.6444,-212.9818"/>
</g>
<!-- GO:0034220 -->
<g id="node20" class="node">
<title>GO:0034220</title>
<polygon fill="#ffffff" stroke="#000000" points="711.2789,-272.6014 587.9049,-272.6014 587.9049,-213.7986 711.2789,-213.7986 711.2789,-272.6014"/>
<text text-anchor="middle" x="649.5919" y="-255.8" font-family="Times,serif" font-size="14.00" fill="#000000">GO:0034220</text>
<text text-anchor="middle" x="649.5919" y="-239" font-family="Times,serif" font-size="14.00" fill="#000000">ion transmembrane</text>
<text text-anchor="middle" x="649.5919" y="-222.2" font-family="Times,serif" font-size="14.00" fill="#000000">transport</text>
</g>
<!-- GO:0098655&#45;&gt;GO:0034220 -->
<g id="edge19" class="edge">
<title>GO:0098655&#45;&gt;GO:0034220</title>
<path fill="none" stroke="#000000" d="M628.1887,-169.8584C631.2955,-180.5045 634.8536,-192.6966 638.1649,-204.0435"/>
<polygon fill="#000000" stroke="#000000" points="634.8325,-205.1183 640.9938,-213.7373 641.5522,-203.1572 634.8325,-205.1183"/>
</g>
<!-- GO:0015696&#45;&gt;GO:0006812 -->
<g id="edge21" class="edge">
<title>GO:0015696&#45;&gt;GO:0006812</title>
<path fill="none" stroke="#000000" d="M475.3172,-161.2031C483.0039,-176.1123 493.4746,-196.4216 502.0721,-213.0975"/>
<polygon fill="#000000" stroke="#000000" points="499.1891,-215.1434 506.8825,-222.4278 505.4109,-211.9357 499.1891,-215.1434"/>
</g>
<!-- GO:0071705 -->
<g id="node21" class="node">
<title>GO:0071705</title>
<polygon fill="#ffffff" stroke="#000000" points="480.3538,-495.0014 354.83,-495.0014 354.83,-436.1986 480.3538,-436.1986 480.3538,-495.0014"/>
<text text-anchor="middle" x="417.5919" y="-478.2" font-family="Times,serif" font-size="14.00" fill="#000000">GO:0071705</text>
<text text-anchor="middle" x="417.5919" y="-461.4" font-family="Times,serif" font-size="14.00" fill="#000000">nitrogen compound</text>
<text text-anchor="middle" x="417.5919" y="-444.6" font-family="Times,serif" font-size="14.00" fill="#000000">transport</text>
</g>
<!-- GO:0015696&#45;&gt;GO:0071705 -->
<g id="edge20" class="edge">
<title>GO:0015696&#45;&gt;GO:0071705</title>
<path fill="none" stroke="#000000" d="M461.5803,-161.2374C453.8718,-214.5737 433.3293,-356.7109 423.2833,-426.2202"/>
<polygon fill="#000000" stroke="#000000" points="419.7888,-425.9311 421.8223,-436.3289 426.7168,-426.9324 419.7888,-425.9311"/>
</g>
<!-- GO:0006811 -->
<g id="node22" class="node">
<title>GO:0006811</title>
<polygon fill="#ffffff" stroke="#000000" points="567.1958,-375.0019 477.988,-375.0019 477.988,-333.7981 567.1958,-333.7981 567.1958,-375.0019"/>
<text text-anchor="middle" x="522.5919" y="-358.6" font-family="Times,serif" font-size="14.00" fill="#000000">GO:0006811</text>
<text text-anchor="middle" x="522.5919" y="-341.8" font-family="Times,serif" font-size="14.00" fill="#000000">ion transport</text>
</g>
<!-- GO:0006812&#45;&gt;GO:0006811 -->
<g id="edge22" class="edge">
<title>GO:0006812&#45;&gt;GO:0006811</title>
<path fill="none" stroke="#000000" d="M518.5206,-263.8553C519.2736,-280.6017 520.3464,-304.4608 521.2018,-323.4834"/>
<polygon fill="#000000" stroke="#000000" points="517.7054,-323.6454 521.6512,-333.478 524.6983,-323.3309 517.7054,-323.6454"/>
</g>
<!-- GO:0034220&#45;&gt;GO:0006811 -->
<g id="edge23" class="edge">
<title>GO:0034220&#45;&gt;GO:0006811</title>
<path fill="none" stroke="#000000" d="M616.2241,-272.4165C597.0611,-289.1955 573.1319,-310.1477 554.2613,-326.6706"/>
<polygon fill="#000000" stroke="#000000" points="551.7302,-324.2347 546.5123,-333.4556 556.3415,-329.5012 551.7302,-324.2347"/>
</g>
<!-- GO:0055085 -->
<g id="node23" class="node">
<title>GO:0055085</title>
<polygon fill="#ffffff" stroke="#000000" points="740.1501,-375.0019 585.0337,-375.0019 585.0337,-333.7981 740.1501,-333.7981 740.1501,-375.0019"/>
<text text-anchor="middle" x="662.5919" y="-358.6" font-family="Times,serif" font-size="14.00" fill="#000000">GO:0055085</text>
<text text-anchor="middle" x="662.5919" y="-341.8" font-family="Times,serif" font-size="14.00" fill="#000000">transmembrane transport</text>
</g>
<!-- GO:0034220&#45;&gt;GO:0055085 -->
<g id="edge24" class="edge">
<title>GO:0034220&#45;&gt;GO:0055085</title>
<path fill="none" stroke="#000000" d="M653.0075,-272.4165C654.8465,-288.1468 657.1142,-307.5449 658.9821,-323.5227"/>
<polygon fill="#000000" stroke="#000000" points="655.5058,-323.9296 660.1434,-333.4556 662.4584,-323.1168 655.5058,-323.9296"/>
</g>
<!-- GO:0071705&#45;&gt;GO:0006810 -->
<g id="edge25" class="edge">
<title>GO:0071705&#45;&gt;GO:0006810</title>
<path fill="none" stroke="#000000" d="M422.4634,-495.0584C424.6621,-508.3539 427.2595,-524.0608 429.4855,-537.5212"/>
<polygon fill="#000000" stroke="#000000" points="426.0916,-538.4507 431.1763,-547.7456 432.9978,-537.3086 426.0916,-538.4507"/>
</g>
<!-- GO:0044765 -->
<g id="node24" class="node">
<title>GO:0044765</title>
<polygon fill="#ffffff" stroke="#000000" points="657.5562,-486.2019 497.6276,-486.2019 497.6276,-444.9981 657.5562,-444.9981 657.5562,-486.2019"/>
<text text-anchor="middle" x="577.5919" y="-469.8" font-family="Times,serif" font-size="14.00" fill="#000000">GO:0044765</text>
<text text-anchor="middle" x="577.5919" y="-453" font-family="Times,serif" font-size="14.00" fill="#000000">single&#45;organism transport</text>
</g>
<!-- GO:0006811&#45;&gt;GO:0044765 -->
<g id="edge26" class="edge">
<title>GO:0006811&#45;&gt;GO:0044765</title>
<path fill="none" stroke="#000000" d="M532.8081,-375.0553C541.206,-392.0343 553.2202,-416.3249 562.691,-435.4732"/>
<polygon fill="#000000" stroke="#000000" points="559.6731,-437.2662 567.2438,-444.678 565.9476,-434.1628 559.6731,-437.2662"/>
</g>
<!-- GO:0055085&#45;&gt;GO:0044765 -->
<g id="edge27" class="edge">
<title>GO:0055085&#45;&gt;GO:0044765</title>
<path fill="none" stroke="#000000" d="M646.8033,-375.0553C633.5876,-392.3444 614.5771,-417.2147 599.8225,-436.5172"/>
<polygon fill="#000000" stroke="#000000" points="596.8767,-434.6077 593.5844,-444.678 602.4381,-438.8587 596.8767,-434.6077"/>
</g>
<!-- GO:0044763 -->
<g id="node25" class="node">
<title>GO:0044763</title>
<polygon fill="#ffffff" stroke="#000000" points="782.2704,-692.2014 630.9134,-692.2014 630.9134,-633.3986 782.2704,-633.3986 782.2704,-692.2014"/>
<text text-anchor="middle" x="706.5919" y="-675.4" font-family="Times,serif" font-size="14.00" fill="#000000">GO:0044763</text>
<text text-anchor="middle" x="706.5919" y="-658.6" font-family="Times,serif" font-size="14.00" fill="#000000">single&#45;organism cellular</text>
<text text-anchor="middle" x="706.5919" y="-641.8" font-family="Times,serif" font-size="14.00" fill="#000000">process</text>
</g>
<!-- GO:0055085&#45;&gt;GO:0044763 -->
<g id="edge28" class="edge">
<title>GO:0055085&#45;&gt;GO:0044763</title>
<path fill="none" stroke="#000000" d="M665.5472,-375.1139C672.7899,-425.879 691.5208,-557.1653 700.9677,-623.3797"/>
<polygon fill="#000000" stroke="#000000" points="697.5236,-624.0203 702.401,-633.4257 704.4534,-623.0316 697.5236,-624.0203"/>
</g>
<!-- GO:0044765&#45;&gt;GO:0006810 -->
<g id="edge29" class="edge">
<title>GO:0044765&#45;&gt;GO:0006810</title>
<path fill="none" stroke="#000000" d="M548.6537,-486.4031C526.4605,-502.3574 495.6657,-524.4952 471.667,-541.7474"/>
<polygon fill="#000000" stroke="#000000" points="469.5637,-538.9488 463.487,-547.6278 473.6497,-544.6326 469.5637,-538.9488"/>
</g>
<!-- GO:1902578 -->
<g id="node26" class="node">
<title>GO:1902578</title>
<polygon fill="#ffffff" stroke="#000000" points="612.7941,-692.2014 506.3897,-692.2014 506.3897,-633.3986 612.7941,-633.3986 612.7941,-692.2014"/>
<text text-anchor="middle" x="559.5919" y="-675.4" font-family="Times,serif" font-size="14.00" fill="#000000">GO:1902578</text>
<text text-anchor="middle" x="559.5919" y="-658.6" font-family="Times,serif" font-size="14.00" fill="#000000">single&#45;organism</text>
<text text-anchor="middle" x="559.5919" y="-641.8" font-family="Times,serif" font-size="14.00" fill="#000000">localization</text>
</g>
<!-- GO:0044765&#45;&gt;GO:1902578 -->
<g id="edge30" class="edge">
<title>GO:0044765&#45;&gt;GO:1902578</title>
<path fill="none" stroke="#000000" d="M575.6996,-486.3311C572.7373,-518.7847 566.9545,-582.1391 563.1841,-623.4458"/>
<polygon fill="#000000" stroke="#000000" points="559.6954,-623.1635 562.2718,-633.4402 566.6664,-623.7998 559.6954,-623.1635"/>
</g>
<!-- GO:0009987 -->
<g id="node27" class="node">
<title>GO:0009987</title>
<polygon fill="#ffffff" stroke="#000000" points="765.5481,-769.4019 661.6357,-769.4019 661.6357,-728.1981 765.5481,-728.1981 765.5481,-769.4019"/>
<text text-anchor="middle" x="713.5919" y="-753" font-family="Times,serif" font-size="14.00" fill="#000000">GO:0009987</text>
<text text-anchor="middle" x="713.5919" y="-736.2" font-family="Times,serif" font-size="14.00" fill="#000000">cellular process</text>
</g>
<!-- GO:0044763&#45;&gt;GO:0009987 -->
<g id="edge31" class="edge">
<title>GO:0044763&#45;&gt;GO:0009987</title>
<path fill="none" stroke="#000000" d="M709.0009,-692.3963C709.6738,-700.6638 710.4066,-709.6657 711.085,-718.0008"/>
<polygon fill="#000000" stroke="#000000" points="707.6069,-718.4135 711.9067,-728.0966 714.5838,-717.8455 707.6069,-718.4135"/>
</g>
<!-- GO:0044699 -->
<g id="node28" class="node">
<title>GO:0044699</title>
<polygon fill="#ffffff" stroke="#000000" points="643.2732,-769.4019 491.9106,-769.4019 491.9106,-728.1981 643.2732,-728.1981 643.2732,-769.4019"/>
<text text-anchor="middle" x="567.5919" y="-753" font-family="Times,serif" font-size="14.00" fill="#000000">GO:0044699</text>
<text text-anchor="middle" x="567.5919" y="-736.2" font-family="Times,serif" font-size="14.00" fill="#000000">single&#45;organism process</text>
</g>
<!-- GO:0044763&#45;&gt;GO:0044699 -->
<g id="edge32" class="edge">
<title>GO:0044763&#45;&gt;GO:0044699</title>
<path fill="none" stroke="#000000" d="M659.1448,-692.1558C643.2347,-701.9994 625.6046,-712.9073 610.0974,-722.5017"/>
<polygon fill="#000000" stroke="#000000" points="607.9038,-719.7431 601.2413,-727.9809 611.5868,-725.6958 607.9038,-719.7431"/>
</g>
<!-- GO:1902578&#45;&gt;GO:0051179 -->
<g id="edge33" class="edge">
<title>GO:1902578&#45;&gt;GO:0051179</title>
<path fill="none" stroke="#000000" d="M515.2169,-692.1558C500.4761,-701.9074 484.1564,-712.7035 469.7524,-722.2323"/>
<polygon fill="#000000" stroke="#000000" points="467.4717,-719.5445 461.0626,-727.9809 471.3339,-725.3826 467.4717,-719.5445"/>
</g>
<!-- GO:1902578&#45;&gt;GO:0044699 -->
<g id="edge34" class="edge">
<title>GO:1902578&#45;&gt;GO:0044699</title>
<path fill="none" stroke="#000000" d="M562.345,-692.3963C563.1141,-700.6638 563.9515,-709.6657 564.7269,-718.0008"/>
<polygon fill="#000000" stroke="#000000" points="561.2547,-718.4638 565.666,-728.0966 568.2246,-717.8153 561.2547,-718.4638"/>
</g>
<!-- GO:0009987&#45;&gt;GO:0008150 -->
<g id="edge35" class="edge">
<title>GO:0009987&#45;&gt;GO:0008150</title>
<path fill="none" stroke="#000000" d="M661.8204,-767.4859C632.8808,-777.9311 596.4934,-791.0644 565.4225,-802.2788"/>
<polygon fill="#000000" stroke="#000000" points="564.1825,-799.0053 555.9647,-805.6924 566.559,-805.5896 564.1825,-799.0053"/>
</g>
<!-- GO:0044699&#45;&gt;GO:0008150 -->
<g id="edge36" class="edge">
<title>GO:0044699&#45;&gt;GO:0008150</title>
<path fill="none" stroke="#000000" d="M549.1012,-769.5954C541.3668,-778.2937 532.2532,-788.5433 523.9117,-797.9244"/>
<polygon fill="#000000" stroke="#000000" points="521.163,-795.7485 517.1337,-805.5472 526.3941,-800.3999 521.163,-795.7485"/>
</g>
<!-- GO:0001539 -->
<g id="node29" class="node">
<title>GO:0001539</title>
<polygon fill="#ffffff" stroke="#000000" points="904.1803,-383.8014 759.0035,-383.8014 759.0035,-324.9986 904.1803,-324.9986 904.1803,-383.8014"/>
<text text-anchor="middle" x="831.5919" y="-367" font-family="Times,serif" font-size="14.00" fill="#000000">GO:0001539</text>
<text text-anchor="middle" x="831.5919" y="-350.2" font-family="Times,serif" font-size="14.00" fill="#000000">cilium or flagellum&#45;</text>
<text text-anchor="middle" x="831.5919" y="-333.4" font-family="Times,serif" font-size="14.00" fill="#000000">dependent cell motility</text>
</g>
<!-- GO:0048870 -->
<g id="node30" class="node">
<title>GO:0048870</title>
<polygon fill="#ffffff" stroke="#000000" points="876.1958,-486.2019 786.988,-486.2019 786.988,-444.9981 876.1958,-444.9981 876.1958,-486.2019"/>
<text text-anchor="middle" x="831.5919" y="-469.8" font-family="Times,serif" font-size="14.00" fill="#000000">GO:0048870</text>
<text text-anchor="middle" x="831.5919" y="-453" font-family="Times,serif" font-size="14.00" fill="#000000">cell motility</text>
</g>
<!-- GO:0001539&#45;&gt;GO:0048870 -->
<g id="edge37" class="edge">
<title>GO:0001539&#45;&gt;GO:0048870</title>
<path fill="none" stroke="#000000" d="M831.5919,-383.6165C831.5919,-399.197 831.5919,-418.3758 831.5919,-434.2653"/>
<polygon fill="#000000" stroke="#000000" points="828.092,-434.6555 831.5919,-444.6556 835.092,-434.6556 828.092,-434.6555"/>
</g>
<!-- GO:0048870&#45;&gt;GO:0040011 -->
<g id="edge38" class="edge">
<title>GO:0048870&#45;&gt;GO:0040011</title>
<path fill="none" stroke="#000000" d="M853.4473,-486.4031C869.8426,-502.009 892.4537,-523.5314 910.3967,-540.6105"/>
<polygon fill="#000000" stroke="#000000" points="908.1126,-543.2684 917.769,-547.6278 912.9388,-538.1981 908.1126,-543.2684"/>
</g>
<!-- GO:0006928 -->
<g id="node31" class="node">
<title>GO:0006928</title>
<polygon fill="#ffffff" stroke="#000000" points="877.2232,-597.8014 733.9606,-597.8014 733.9606,-538.9986 877.2232,-538.9986 877.2232,-597.8014"/>
<text text-anchor="middle" x="805.5919" y="-581" font-family="Times,serif" font-size="14.00" fill="#000000">GO:0006928</text>
<text text-anchor="middle" x="805.5919" y="-564.2" font-family="Times,serif" font-size="14.00" fill="#000000">movement of cell or</text>
<text text-anchor="middle" x="805.5919" y="-547.4" font-family="Times,serif" font-size="14.00" fill="#000000">subcellular component</text>
</g>
<!-- GO:0048870&#45;&gt;GO:0006928 -->
<g id="edge39" class="edge">
<title>GO:0048870&#45;&gt;GO:0006928</title>
<path fill="none" stroke="#000000" d="M826.3304,-486.4031C823.2199,-498.7016 819.1801,-514.6744 815.4933,-529.2514"/>
<polygon fill="#000000" stroke="#000000" points="812.072,-528.5048 813.0131,-539.0577 818.8583,-530.2212 812.072,-528.5048"/>
</g>
<!-- GO:0006928&#45;&gt;GO:0044763 -->
<g id="edge40" class="edge">
<title>GO:0006928&#45;&gt;GO:0044763</title>
<path fill="none" stroke="#000000" d="M774.8104,-597.7513C765.3117,-606.8086 754.7347,-616.8941 744.7989,-626.3683"/>
<polygon fill="#000000" stroke="#000000" points="742.1763,-624.0329 737.3544,-633.4669 747.007,-629.0989 742.1763,-624.0329"/>
</g>
<!-- GO:0071978 -->
<g id="node32" class="node">
<title>GO:0071978</title>
<polygon fill="#ffffff" stroke="#000000" points="908.8615,-75.3003 754.3223,-75.3003 754.3223,.1003 908.8615,.1003 908.8615,-75.3003"/>
<text text-anchor="middle" x="831.5919" y="-58.6" font-family="Times,serif" font-size="14.00" fill="#000000">GO:0071978</text>
<text text-anchor="middle" x="831.5919" y="-41.8" font-family="Times,serif" font-size="14.00" fill="#000000">bacterial&#45;type flagellum&#45;</text>
<text text-anchor="middle" x="831.5919" y="-25" font-family="Times,serif" font-size="14.00" fill="#000000">dependent swarming</text>
<text text-anchor="middle" x="831.5919" y="-8.2" font-family="Times,serif" font-size="14.00" fill="#000000">motility</text>
</g>
<!-- GO:0071973 -->
<g id="node33" class="node">
<title>GO:0071973</title>
<polygon fill="#ffffff" stroke="#000000" points="908.8615,-169.8014 754.3223,-169.8014 754.3223,-110.9986 908.8615,-110.9986 908.8615,-169.8014"/>
<text text-anchor="middle" x="831.5919" y="-153" font-family="Times,serif" font-size="14.00" fill="#000000">GO:0071973</text>
<text text-anchor="middle" x="831.5919" y="-136.2" font-family="Times,serif" font-size="14.00" fill="#000000">bacterial&#45;type flagellum&#45;</text>
<text text-anchor="middle" x="831.5919" y="-119.4" font-family="Times,serif" font-size="14.00" fill="#000000">dependent cell motility</text>
</g>
<!-- GO:0071978&#45;&gt;GO:0071973 -->
<g id="edge41" class="edge">
<title>GO:0071978&#45;&gt;GO:0071973</title>
<path fill="none" stroke="#000000" d="M831.5919,-75.2952C831.5919,-83.6874 831.5919,-92.6054 831.5919,-101.0618"/>
<polygon fill="#000000" stroke="#000000" points="828.092,-101.0813 831.5919,-111.0814 835.092,-101.0814 828.092,-101.0813"/>
</g>
<!-- GO:0097588 -->
<g id="node34" class="node">
<title>GO:0097588</title>
<polygon fill="#ffffff" stroke="#000000" points="911.5449,-280.9003 751.6389,-280.9003 751.6389,-205.4997 911.5449,-205.4997 911.5449,-280.9003"/>
<text text-anchor="middle" x="831.5919" y="-264.2" font-family="Times,serif" font-size="14.00" fill="#000000">GO:0097588</text>
<text text-anchor="middle" x="831.5919" y="-247.4" font-family="Times,serif" font-size="14.00" fill="#000000">archaeal or bacterial&#45;</text>
<text text-anchor="middle" x="831.5919" y="-230.6" font-family="Times,serif" font-size="14.00" fill="#000000">type flagellum&#45;dependent</text>
<text text-anchor="middle" x="831.5919" y="-213.8" font-family="Times,serif" font-size="14.00" fill="#000000">cell motility</text>
</g>
<!-- GO:0071973&#45;&gt;GO:0097588 -->
<g id="edge42" class="edge">
<title>GO:0071973&#45;&gt;GO:0097588</title>
<path fill="none" stroke="#000000" d="M831.5919,-169.8584C831.5919,-177.7901 831.5919,-186.58 831.5919,-195.2392"/>
<polygon fill="#000000" stroke="#000000" points="828.092,-195.2849 831.5919,-205.285 835.092,-195.285 828.092,-195.2849"/>
</g>
<!-- GO:0097588&#45;&gt;GO:0001539 -->
<g id="edge43" class="edge">
<title>GO:0097588&#45;&gt;GO:0001539</title>
<path fill="none" stroke="#000000" d="M831.5919,-280.8472C831.5919,-291.7338 831.5919,-303.649 831.5919,-314.6589"/>
<polygon fill="#000000" stroke="#000000" points="828.092,-314.8741 831.5919,-324.8742 835.092,-314.8742 828.092,-314.8741"/>
</g>
<!-- GO:0042221 -->
<g id="node35" class="node">
<title>GO:0042221</title>
<polygon fill="#ffffff" stroke="#000000" points="362.4923,-683.4019 228.6915,-683.4019 228.6915,-642.1981 362.4923,-642.1981 362.4923,-683.4019"/>
<text text-anchor="middle" x="295.5919" y="-667" font-family="Times,serif" font-size="14.00" fill="#000000">GO:0042221</text>
<text text-anchor="middle" x="295.5919" y="-650.2" font-family="Times,serif" font-size="14.00" fill="#000000">response to chemical</text>
</g>
<!-- GO:0042221&#45;&gt;GO:0050896 -->
<g id="edge44" class="edge">
<title>GO:0042221&#45;&gt;GO:0050896</title>
<path fill="none" stroke="#000000" d="M296.8023,-683.6182C297.4041,-693.9705 298.1433,-706.6848 298.8086,-718.1271"/>
<polygon fill="#000000" stroke="#000000" points="295.3181,-718.3936 299.3927,-728.1735 302.3063,-717.9872 295.3181,-718.3936"/>
</g>
<!-- GO:0051301 -->
<g id="node36" class="node">
<title>GO:0051301</title>
<polygon fill="#ffffff" stroke="#000000" points="677.1958,-589.0019 587.988,-589.0019 587.988,-547.7981 677.1958,-547.7981 677.1958,-589.0019"/>
<text text-anchor="middle" x="632.5919" y="-572.6" font-family="Times,serif" font-size="14.00" fill="#000000">GO:0051301</text>
<text text-anchor="middle" x="632.5919" y="-555.8" font-family="Times,serif" font-size="14.00" fill="#000000">cell division</text>
</g>
<!-- GO:0051301&#45;&gt;GO:0044763 -->
<g id="edge45" class="edge">
<title>GO:0051301&#45;&gt;GO:0044763</title>
<path fill="none" stroke="#000000" d="M649.0149,-589.3504C657.328,-599.9552 667.6731,-613.1522 677.2918,-625.4225"/>
<polygon fill="#000000" stroke="#000000" points="674.5551,-627.6047 683.4791,-633.3155 680.0642,-623.2861 674.5551,-627.6047"/>
</g>
</g>
</svg>
