<?xml version="1.0" encoding="UTF-8" standalone="no"?>
<!DOCTYPE svg PUBLIC "-//W3C//DTD SVG 1.1//EN"
 "http://www.w3.org/Graphics/SVG/1.1/DTD/svg11.dtd">
<!-- Generated by graphviz version 2.40.1 (20161225.0304)
 -->
<!-- Title: G Pages: 1 -->
<svg width="337pt" height="727pt"
 viewBox="0.00 0.00 336.91 727.20" xmlns="http://www.w3.org/2000/svg" xmlns:xlink="http://www.w3.org/1999/xlink">
<g id="graph0" class="graph" transform="scale(1 1) rotate(0) translate(4 723.2)">
<title>G</title>
<polygon fill="#ffffff" stroke="transparent" points="-4,4 -4,-723.2 332.9142,-723.2 332.9142,4 -4,4"/>
<!-- GO:0015288 -->
<g id="node1" class="node">
<title>GO:0015288</title>
<polygon fill="#ffffff" stroke="#000000" points="122.7592,-127.4019 31.6736,-127.4019 31.6736,-86.1981 122.7592,-86.1981 122.7592,-127.4019"/>
<text text-anchor="middle" x="77.2164" y="-111" font-family="Times,serif" font-size="14.00" fill="#000000">GO:0015288</text>
<text text-anchor="middle" x="77.2164" y="-94.2" font-family="Times,serif" font-size="14.00" fill="#000000">porin activity</text>
</g>
<!-- GO:0022829 -->
<g id="node2" class="node">
<title>GO:0022829</title>
<polygon fill="#ffffff" stroke="#000000" points="136.3384,-230.6014 18.0944,-230.6014 18.0944,-171.7986 136.3384,-171.7986 136.3384,-230.6014"/>
<text text-anchor="middle" x="77.2164" y="-213.8" font-family="Times,serif" font-size="14.00" fill="#000000">GO:0022829</text>
<text text-anchor="middle" x="77.2164" y="-197" font-family="Times,serif" font-size="14.00" fill="#000000">wide pore channel</text>
<text text-anchor="middle" x="77.2164" y="-180.2" font-family="Times,serif" font-size="14.00" fill="#000000">activity</text>
</g>
<!-- GO:0015288&#45;&gt;GO:0022829 -->
<g id="edge1" class="edge">
<title>GO:0015288&#45;&gt;GO:0022829</title>
<path fill="none" stroke="#000000" d="M77.2164,-127.7504C77.2164,-137.7492 77.2164,-150.0525 77.2164,-161.7106"/>
<polygon fill="#000000" stroke="#000000" points="73.7165,-161.7155 77.2164,-171.7155 80.7165,-161.7156 73.7165,-161.7155"/>
</g>
<!-- GO:0015267 -->
<g id="node3" class="node">
<title>GO:0015267</title>
<polygon fill="#ffffff" stroke="#000000" points="129.7424,-341.4019 24.6904,-341.4019 24.6904,-300.1981 129.7424,-300.1981 129.7424,-341.4019"/>
<text text-anchor="middle" x="77.2164" y="-325" font-family="Times,serif" font-size="14.00" fill="#000000">GO:0015267</text>
<text text-anchor="middle" x="77.2164" y="-308.2" font-family="Times,serif" font-size="14.00" fill="#000000">channel activity</text>
</g>
<!-- GO:0022829&#45;&gt;GO:0015267 -->
<g id="edge2" class="edge">
<title>GO:0022829&#45;&gt;GO:0015267</title>
<path fill="none" stroke="#000000" d="M77.2164,-230.4575C77.2164,-248.494 77.2164,-271.5977 77.2164,-289.9259"/>
<polygon fill="#000000" stroke="#000000" points="73.7165,-290.091 77.2164,-300.091 80.7165,-290.0911 73.7165,-290.091"/>
</g>
<!-- GO:0022803 -->
<g id="node4" class="node">
<title>GO:0022803</title>
<polygon fill="#ffffff" stroke="#000000" points="150.7214,-469.8014 3.7114,-469.8014 3.7114,-410.9986 150.7214,-410.9986 150.7214,-469.8014"/>
<text text-anchor="middle" x="77.2164" y="-453" font-family="Times,serif" font-size="14.00" fill="#000000">GO:0022803</text>
<text text-anchor="middle" x="77.2164" y="-436.2" font-family="Times,serif" font-size="14.00" fill="#000000">passive transmembrane</text>
<text text-anchor="middle" x="77.2164" y="-419.4" font-family="Times,serif" font-size="14.00" fill="#000000">transporter activity</text>
</g>
<!-- GO:0015267&#45;&gt;GO:0022803 -->
<g id="edge3" class="edge">
<title>GO:0015267&#45;&gt;GO:0022803</title>
<path fill="none" stroke="#000000" d="M77.2164,-341.6327C77.2164,-357.8576 77.2164,-380.8611 77.2164,-400.5863"/>
<polygon fill="#000000" stroke="#000000" points="73.7165,-400.8455 77.2164,-410.8455 80.7165,-400.8456 73.7165,-400.8455"/>
</g>
<!-- GO:0022857 -->
<g id="node5" class="node">
<title>GO:0022857</title>
<polygon fill="#ffffff" stroke="#000000" points="166.6498,-564.2014 -.217,-564.2014 -.217,-505.3986 166.6498,-505.3986 166.6498,-564.2014"/>
<text text-anchor="middle" x="83.2164" y="-547.4" font-family="Times,serif" font-size="14.00" fill="#000000">GO:0022857</text>
<text text-anchor="middle" x="83.2164" y="-530.6" font-family="Times,serif" font-size="14.00" fill="#000000">transmembrane transporter</text>
<text text-anchor="middle" x="83.2164" y="-513.8" font-family="Times,serif" font-size="14.00" fill="#000000">activity</text>
</g>
<!-- GO:0022803&#45;&gt;GO:0022857 -->
<g id="edge4" class="edge">
<title>GO:0022803&#45;&gt;GO:0022857</title>
<path fill="none" stroke="#000000" d="M79.0819,-469.7513C79.5955,-477.8318 80.1612,-486.7308 80.7048,-495.2838"/>
<polygon fill="#000000" stroke="#000000" points="77.2246,-495.709 81.352,-505.4669 84.2106,-495.265 77.2246,-495.709"/>
</g>
<!-- GO:0005215 -->
<g id="node6" class="node">
<title>GO:0005215</title>
<polygon fill="#ffffff" stroke="#000000" points="156.3449,-641.4019 34.0879,-641.4019 34.0879,-600.1981 156.3449,-600.1981 156.3449,-641.4019"/>
<text text-anchor="middle" x="95.2164" y="-625" font-family="Times,serif" font-size="14.00" fill="#000000">GO:0005215</text>
<text text-anchor="middle" x="95.2164" y="-608.2" font-family="Times,serif" font-size="14.00" fill="#000000">transporter activity</text>
</g>
<!-- GO:0022857&#45;&gt;GO:0005215 -->
<g id="edge5" class="edge">
<title>GO:0022857&#45;&gt;GO:0005215</title>
<path fill="none" stroke="#000000" d="M87.3461,-564.3963C88.4997,-572.6638 89.7558,-581.6657 90.9188,-590.0008"/>
<polygon fill="#000000" stroke="#000000" points="87.4791,-590.6762 92.3275,-600.0966 94.4119,-589.7088 87.4791,-590.6762"/>
</g>
<!-- GO:0003674 -->
<g id="node7" class="node">
<title>GO:0003674</title>
<polygon fill="#ffffff" stroke="#000000" points="224.8495,-719.0019 99.5833,-719.0019 99.5833,-677.7981 224.8495,-677.7981 224.8495,-719.0019"/>
<text text-anchor="middle" x="162.2164" y="-702.6" font-family="Times,serif" font-size="14.00" fill="#000000">GO:0003674</text>
<text text-anchor="middle" x="162.2164" y="-685.8" font-family="Times,serif" font-size="14.00" fill="#000000">molecular_function</text>
</g>
<!-- GO:0005215&#45;&gt;GO:0003674 -->
<g id="edge6" class="edge">
<title>GO:0005215&#45;&gt;GO:0003674</title>
<path fill="none" stroke="#000000" d="M113.1712,-641.5954C120.6813,-650.2937 129.5308,-660.5433 137.6305,-669.9244"/>
<polygon fill="#000000" stroke="#000000" points="135.0277,-672.2654 144.2121,-677.5472 140.326,-667.6908 135.0277,-672.2654"/>
</g>
<!-- GO:0003774 -->
<g id="node8" class="node">
<title>GO:0003774</title>
<polygon fill="#ffffff" stroke="#000000" points="295.6498,-41.4019 200.783,-41.4019 200.783,-.1981 295.6498,-.1981 295.6498,-41.4019"/>
<text text-anchor="middle" x="248.2164" y="-25" font-family="Times,serif" font-size="14.00" fill="#000000">GO:0003774</text>
<text text-anchor="middle" x="248.2164" y="-8.2" font-family="Times,serif" font-size="14.00" fill="#000000">motor activity</text>
</g>
<!-- GO:0017111 -->
<g id="node9" class="node">
<title>GO:0017111</title>
<polygon fill="#ffffff" stroke="#000000" points="329.1125,-136.2014 167.3203,-136.2014 167.3203,-77.3986 329.1125,-77.3986 329.1125,-136.2014"/>
<text text-anchor="middle" x="248.2164" y="-119.4" font-family="Times,serif" font-size="14.00" fill="#000000">GO:0017111</text>
<text text-anchor="middle" x="248.2164" y="-102.6" font-family="Times,serif" font-size="14.00" fill="#000000">nucleoside&#45;triphosphatase</text>
<text text-anchor="middle" x="248.2164" y="-85.8" font-family="Times,serif" font-size="14.00" fill="#000000">activity</text>
</g>
<!-- GO:0003774&#45;&gt;GO:0017111 -->
<g id="edge7" class="edge">
<title>GO:0003774&#45;&gt;GO:0017111</title>
<path fill="none" stroke="#000000" d="M248.2164,-41.6182C248.2164,-49.3358 248.2164,-58.3662 248.2164,-67.2036"/>
<polygon fill="#000000" stroke="#000000" points="244.7165,-67.3991 248.2164,-77.3991 251.7165,-67.3992 244.7165,-67.3991"/>
</g>
<!-- GO:0016462 -->
<g id="node10" class="node">
<title>GO:0016462</title>
<polygon fill="#ffffff" stroke="#000000" points="325.7928,-221.8019 170.64,-221.8019 170.64,-180.5981 325.7928,-180.5981 325.7928,-221.8019"/>
<text text-anchor="middle" x="248.2164" y="-205.4" font-family="Times,serif" font-size="14.00" fill="#000000">GO:0016462</text>
<text text-anchor="middle" x="248.2164" y="-188.6" font-family="Times,serif" font-size="14.00" fill="#000000">pyrophosphatase activity</text>
</g>
<!-- GO:0017111&#45;&gt;GO:0016462 -->
<g id="edge8" class="edge">
<title>GO:0017111&#45;&gt;GO:0016462</title>
<path fill="none" stroke="#000000" d="M248.2164,-136.1513C248.2164,-147.0614 248.2164,-159.4637 248.2164,-170.492"/>
<polygon fill="#000000" stroke="#000000" points="244.7165,-170.5509 248.2164,-180.551 251.7165,-170.551 244.7165,-170.5509"/>
</g>
<!-- GO:0016818 -->
<g id="node11" class="node">
<title>GO:0016818</title>
<polygon fill="#ffffff" stroke="#000000" points="320.5281,-375.1002 175.9047,-375.1002 175.9047,-266.4998 320.5281,-266.4998 320.5281,-375.1002"/>
<text text-anchor="middle" x="248.2164" y="-358.6" font-family="Times,serif" font-size="14.00" fill="#000000">GO:0016818</text>
<text text-anchor="middle" x="248.2164" y="-341.8" font-family="Times,serif" font-size="14.00" fill="#000000">hydrolase activity,</text>
<text text-anchor="middle" x="248.2164" y="-325" font-family="Times,serif" font-size="14.00" fill="#000000">acting on acid</text>
<text text-anchor="middle" x="248.2164" y="-308.2" font-family="Times,serif" font-size="14.00" fill="#000000">anhydrides, in</text>
<text text-anchor="middle" x="248.2164" y="-291.4" font-family="Times,serif" font-size="14.00" fill="#000000">phosphorus&#45;containing</text>
<text text-anchor="middle" x="248.2164" y="-274.6" font-family="Times,serif" font-size="14.00" fill="#000000">anhydrides</text>
</g>
<!-- GO:0016462&#45;&gt;GO:0016818 -->
<g id="edge9" class="edge">
<title>GO:0016462&#45;&gt;GO:0016818</title>
<path fill="none" stroke="#000000" d="M248.2164,-222.0327C248.2164,-231.6534 248.2164,-243.6573 248.2164,-255.948"/>
<polygon fill="#000000" stroke="#000000" points="244.7165,-256.2935 248.2164,-266.2935 251.7165,-256.2935 244.7165,-256.2935"/>
</g>
<!-- GO:0016817 -->
<g id="node12" class="node">
<title>GO:0016817</title>
<polygon fill="#ffffff" stroke="#000000" points="328.1723,-469.8014 168.2605,-469.8014 168.2605,-410.9986 328.1723,-410.9986 328.1723,-469.8014"/>
<text text-anchor="middle" x="248.2164" y="-453" font-family="Times,serif" font-size="14.00" fill="#000000">GO:0016817</text>
<text text-anchor="middle" x="248.2164" y="-436.2" font-family="Times,serif" font-size="14.00" fill="#000000">hydrolase activity,</text>
<text text-anchor="middle" x="248.2164" y="-419.4" font-family="Times,serif" font-size="14.00" fill="#000000">acting on acid anhydrides</text>
</g>
<!-- GO:0016818&#45;&gt;GO:0016817 -->
<g id="edge10" class="edge">
<title>GO:0016818&#45;&gt;GO:0016817</title>
<path fill="none" stroke="#000000" d="M248.2164,-375.3502C248.2164,-384.0138 248.2164,-392.8255 248.2164,-401.0504"/>
<polygon fill="#000000" stroke="#000000" points="244.7165,-401.0995 248.2164,-411.0995 251.7165,-401.0995 244.7165,-401.0995"/>
</g>
<!-- GO:0016787 -->
<g id="node13" class="node">
<title>GO:0016787</title>
<polygon fill="#ffffff" stroke="#000000" points="303.133,-555.4019 187.2998,-555.4019 187.2998,-514.1981 303.133,-514.1981 303.133,-555.4019"/>
<text text-anchor="middle" x="245.2164" y="-539" font-family="Times,serif" font-size="14.00" fill="#000000">GO:0016787</text>
<text text-anchor="middle" x="245.2164" y="-522.2" font-family="Times,serif" font-size="14.00" fill="#000000">hydrolase activity</text>
</g>
<!-- GO:0016817&#45;&gt;GO:0016787 -->
<g id="edge11" class="edge">
<title>GO:0016817&#45;&gt;GO:0016787</title>
<path fill="none" stroke="#000000" d="M247.2836,-469.7513C246.9369,-480.6614 246.5428,-493.0637 246.1923,-504.092"/>
<polygon fill="#000000" stroke="#000000" points="242.6921,-504.0448 245.8726,-514.151 249.6886,-504.2672 242.6921,-504.0448"/>
</g>
<!-- GO:0003824 -->
<g id="node14" class="node">
<title>GO:0003824</title>
<polygon fill="#ffffff" stroke="#000000" points="291.6288,-641.4019 182.804,-641.4019 182.804,-600.1981 291.6288,-600.1981 291.6288,-641.4019"/>
<text text-anchor="middle" x="237.2164" y="-625" font-family="Times,serif" font-size="14.00" fill="#000000">GO:0003824</text>
<text text-anchor="middle" x="237.2164" y="-608.2" font-family="Times,serif" font-size="14.00" fill="#000000">catalytic activity</text>
</g>
<!-- GO:0016787&#45;&gt;GO:0003824 -->
<g id="edge12" class="edge">
<title>GO:0016787&#45;&gt;GO:0003824</title>
<path fill="none" stroke="#000000" d="M243.2798,-555.6182C242.3168,-565.9705 241.1341,-578.6848 240.0697,-590.1271"/>
<polygon fill="#000000" stroke="#000000" points="236.5765,-589.8923 239.1351,-600.1735 243.5464,-590.5407 236.5765,-589.8923"/>
</g>
<!-- GO:0003824&#45;&gt;GO:0003674 -->
<g id="edge13" class="edge">
<title>GO:0003824&#45;&gt;GO:0003674</title>
<path fill="none" stroke="#000000" d="M217.1178,-641.5954C208.6268,-650.3807 198.6065,-660.7484 189.4662,-670.2056"/>
<polygon fill="#000000" stroke="#000000" points="186.8034,-667.9243 182.3705,-677.5472 191.8368,-672.7891 186.8034,-667.9243"/>
</g>
</g>
</svg>
