<?xml version="1.0" encoding="UTF-8" standalone="no"?>
<!DOCTYPE svg PUBLIC "-//W3C//DTD SVG 1.1//EN"
 "http://www.w3.org/Graphics/SVG/1.1/DTD/svg11.dtd">
<!-- Generated by graphviz version 2.40.1 (20161225.0304)
 -->
<!-- Title: G Pages: 1 -->
<svg width="559pt" height="410pt"
 viewBox="0.00 0.00 558.60 410.40" xmlns="http://www.w3.org/2000/svg" xmlns:xlink="http://www.w3.org/1999/xlink">
<g id="graph0" class="graph" transform="scale(1 1) rotate(0) translate(4 406.4)">
<title>G</title>
<polygon fill="#ffffff" stroke="transparent" points="-4,4 -4,-406.4 554.6035,-406.4 554.6035,4 -4,4"/>
<!-- GO:0045184 -->
<g id="node1" class="node">
<title>GO:0045184</title>
<polygon fill="#ffffff" stroke="#000000" points="151.4548,-136.2014 -.1518,-136.2014 -.1518,-77.3986 151.4548,-77.3986 151.4548,-136.2014"/>
<text text-anchor="middle" x="75.6515" y="-119.4" font-family="Times,serif" font-size="14.00" fill="#000000">GO:0045184</text>
<text text-anchor="middle" x="75.6515" y="-102.6" font-family="Times,serif" font-size="14.00" fill="#000000">establishment of protein</text>
<text text-anchor="middle" x="75.6515" y="-85.8" font-family="Times,serif" font-size="14.00" fill="#000000">localization</text>
</g>
<!-- GO:0051234 -->
<g id="node2" class="node">
<title>GO:0051234</title>
<polygon fill="#ffffff" stroke="#000000" points="240.7982,-230.6014 132.5048,-230.6014 132.5048,-171.7986 240.7982,-171.7986 240.7982,-230.6014"/>
<text text-anchor="middle" x="186.6515" y="-213.8" font-family="Times,serif" font-size="14.00" fill="#000000">GO:0051234</text>
<text text-anchor="middle" x="186.6515" y="-197" font-family="Times,serif" font-size="14.00" fill="#000000">establishment of</text>
<text text-anchor="middle" x="186.6515" y="-180.2" font-family="Times,serif" font-size="14.00" fill="#000000">localization</text>
</g>
<!-- GO:0045184&#45;&gt;GO:0051234 -->
<g id="edge1" class="edge">
<title>GO:0045184&#45;&gt;GO:0051234</title>
<path fill="none" stroke="#000000" d="M110.1641,-136.1513C121.0229,-145.3861 133.1387,-155.69 144.4678,-165.3249"/>
<polygon fill="#000000" stroke="#000000" points="142.275,-168.0546 152.1602,-171.8669 146.81,-162.7222 142.275,-168.0546"/>
</g>
<!-- GO:0051179 -->
<g id="node3" class="node">
<title>GO:0051179</title>
<polygon fill="#ffffff" stroke="#000000" points="231.2554,-316.2019 142.0476,-316.2019 142.0476,-274.9981 231.2554,-274.9981 231.2554,-316.2019"/>
<text text-anchor="middle" x="186.6515" y="-299.8" font-family="Times,serif" font-size="14.00" fill="#000000">GO:0051179</text>
<text text-anchor="middle" x="186.6515" y="-283" font-family="Times,serif" font-size="14.00" fill="#000000">localization</text>
</g>
<!-- GO:0051234&#45;&gt;GO:0051179 -->
<g id="edge2" class="edge">
<title>GO:0051234&#45;&gt;GO:0051179</title>
<path fill="none" stroke="#000000" d="M186.6515,-230.5513C186.6515,-241.4614 186.6515,-253.8637 186.6515,-264.892"/>
<polygon fill="#000000" stroke="#000000" points="183.1516,-264.9509 186.6515,-274.951 190.1516,-264.951 183.1516,-264.9509"/>
</g>
<!-- GO:0008150 -->
<g id="node4" class="node">
<title>GO:0008150</title>
<polygon fill="#ffffff" stroke="#000000" points="247.1221,-402.2019 126.1809,-402.2019 126.1809,-360.9981 247.1221,-360.9981 247.1221,-402.2019"/>
<text text-anchor="middle" x="186.6515" y="-385.8" font-family="Times,serif" font-size="14.00" fill="#000000">GO:0008150</text>
<text text-anchor="middle" x="186.6515" y="-369" font-family="Times,serif" font-size="14.00" fill="#000000">biological_process</text>
</g>
<!-- GO:0051179&#45;&gt;GO:0008150 -->
<g id="edge3" class="edge">
<title>GO:0051179&#45;&gt;GO:0008150</title>
<path fill="none" stroke="#000000" d="M186.6515,-316.4182C186.6515,-326.7705 186.6515,-339.4848 186.6515,-350.9271"/>
<polygon fill="#000000" stroke="#000000" points="183.1516,-350.9735 186.6515,-360.9735 190.1516,-350.9735 183.1516,-350.9735"/>
</g>
<!-- GO:0050658 -->
<g id="node5" class="node">
<title>GO:0050658</title>
<polygon fill="#ffffff" stroke="#000000" points="366.9631,-41.4019 268.3399,-41.4019 268.3399,-.1981 366.9631,-.1981 366.9631,-41.4019"/>
<text text-anchor="middle" x="317.6515" y="-25" font-family="Times,serif" font-size="14.00" fill="#000000">GO:0050658</text>
<text text-anchor="middle" x="317.6515" y="-8.2" font-family="Times,serif" font-size="14.00" fill="#000000">RNA transport</text>
</g>
<!-- GO:0051236 -->
<g id="node6" class="node">
<title>GO:0051236</title>
<polygon fill="#ffffff" stroke="#000000" points="310.348,-136.2014 168.955,-136.2014 168.955,-77.3986 310.348,-77.3986 310.348,-136.2014"/>
<text text-anchor="middle" x="239.6515" y="-119.4" font-family="Times,serif" font-size="14.00" fill="#000000">GO:0051236</text>
<text text-anchor="middle" x="239.6515" y="-102.6" font-family="Times,serif" font-size="14.00" fill="#000000">establishment of RNA</text>
<text text-anchor="middle" x="239.6515" y="-85.8" font-family="Times,serif" font-size="14.00" fill="#000000">localization</text>
</g>
<!-- GO:0050658&#45;&gt;GO:0051236 -->
<g id="edge4" class="edge">
<title>GO:0050658&#45;&gt;GO:0051236</title>
<path fill="none" stroke="#000000" d="M298.7699,-41.6182C291.0854,-50.0908 281.966,-60.1456 273.2185,-69.7903"/>
<polygon fill="#000000" stroke="#000000" points="270.443,-67.6406 266.3174,-77.3991 275.6281,-72.3433 270.443,-67.6406"/>
</g>
<!-- GO:0050657 -->
<g id="node7" class="node">
<title>GO:0050657</title>
<polygon fill="#ffffff" stroke="#000000" points="464.6588,-127.4019 328.6442,-127.4019 328.6442,-86.1981 464.6588,-86.1981 464.6588,-127.4019"/>
<text text-anchor="middle" x="396.6515" y="-111" font-family="Times,serif" font-size="14.00" fill="#000000">GO:0050657</text>
<text text-anchor="middle" x="396.6515" y="-94.2" font-family="Times,serif" font-size="14.00" fill="#000000">nucleic acid transport</text>
</g>
<!-- GO:0050658&#45;&gt;GO:0050657 -->
<g id="edge5" class="edge">
<title>GO:0050658&#45;&gt;GO:0050657</title>
<path fill="none" stroke="#000000" d="M336.7752,-41.6182C346.9641,-52.7099 359.6439,-66.5132 370.7085,-78.5583"/>
<polygon fill="#000000" stroke="#000000" points="368.3613,-81.1768 377.7039,-86.1735 373.5164,-76.4413 368.3613,-81.1768"/>
</g>
<!-- GO:0051236&#45;&gt;GO:0051234 -->
<g id="edge6" class="edge">
<title>GO:0051236&#45;&gt;GO:0051234</title>
<path fill="none" stroke="#000000" d="M223.1725,-136.1513C218.3865,-144.6758 213.0891,-154.1111 208.0478,-163.0904"/>
<polygon fill="#000000" stroke="#000000" points="204.9641,-161.4337 203.1203,-171.8669 211.0679,-164.8606 204.9641,-161.4337"/>
</g>
<!-- GO:0015931 -->
<g id="node8" class="node">
<title>GO:0015931</title>
<polygon fill="#ffffff" stroke="#000000" points="467.6067,-230.6014 325.6963,-230.6014 325.6963,-171.7986 467.6067,-171.7986 467.6067,-230.6014"/>
<text text-anchor="middle" x="396.6515" y="-213.8" font-family="Times,serif" font-size="14.00" fill="#000000">GO:0015931</text>
<text text-anchor="middle" x="396.6515" y="-197" font-family="Times,serif" font-size="14.00" fill="#000000">nucleobase&#45;containing</text>
<text text-anchor="middle" x="396.6515" y="-180.2" font-family="Times,serif" font-size="14.00" fill="#000000">compound transport</text>
</g>
<!-- GO:0050657&#45;&gt;GO:0015931 -->
<g id="edge7" class="edge">
<title>GO:0050657&#45;&gt;GO:0015931</title>
<path fill="none" stroke="#000000" d="M396.6515,-127.7504C396.6515,-137.7492 396.6515,-150.0525 396.6515,-161.7106"/>
<polygon fill="#000000" stroke="#000000" points="393.1516,-161.7155 396.6515,-171.7155 400.1516,-161.7156 393.1516,-161.7155"/>
</g>
<!-- GO:0071705 -->
<g id="node9" class="node">
<title>GO:0071705</title>
<polygon fill="#ffffff" stroke="#000000" points="416.4134,-325.0014 290.8896,-325.0014 290.8896,-266.1986 416.4134,-266.1986 416.4134,-325.0014"/>
<text text-anchor="middle" x="353.6515" y="-308.2" font-family="Times,serif" font-size="14.00" fill="#000000">GO:0071705</text>
<text text-anchor="middle" x="353.6515" y="-291.4" font-family="Times,serif" font-size="14.00" fill="#000000">nitrogen compound</text>
<text text-anchor="middle" x="353.6515" y="-274.6" font-family="Times,serif" font-size="14.00" fill="#000000">transport</text>
</g>
<!-- GO:0015931&#45;&gt;GO:0071705 -->
<g id="edge8" class="edge">
<title>GO:0015931&#45;&gt;GO:0071705</title>
<path fill="none" stroke="#000000" d="M383.2817,-230.5513C379.4797,-238.8982 375.2798,-248.1184 371.2667,-256.9286"/>
<polygon fill="#000000" stroke="#000000" points="367.9732,-255.7156 367.013,-266.2669 374.3435,-258.6174 367.9732,-255.7156"/>
</g>
<!-- GO:0071702 -->
<g id="node10" class="node">
<title>GO:0071702</title>
<polygon fill="#ffffff" stroke="#000000" points="550.5555,-325.0014 434.7475,-325.0014 434.7475,-266.1986 550.5555,-266.1986 550.5555,-325.0014"/>
<text text-anchor="middle" x="492.6515" y="-308.2" font-family="Times,serif" font-size="14.00" fill="#000000">GO:0071702</text>
<text text-anchor="middle" x="492.6515" y="-291.4" font-family="Times,serif" font-size="14.00" fill="#000000">organic substance</text>
<text text-anchor="middle" x="492.6515" y="-274.6" font-family="Times,serif" font-size="14.00" fill="#000000">transport</text>
</g>
<!-- GO:0015931&#45;&gt;GO:0071702 -->
<g id="edge9" class="edge">
<title>GO:0015931&#45;&gt;GO:0071702</title>
<path fill="none" stroke="#000000" d="M426.5003,-230.5513C435.711,-239.6086 445.9676,-249.6941 455.6023,-259.1683"/>
<polygon fill="#000000" stroke="#000000" points="453.2369,-261.751 462.8212,-266.2669 458.1449,-256.7598 453.2369,-261.751"/>
</g>
<!-- GO:0006810 -->
<g id="node11" class="node">
<title>GO:0006810</title>
<polygon fill="#ffffff" stroke="#000000" points="467.2554,-402.2019 378.0476,-402.2019 378.0476,-360.9981 467.2554,-360.9981 467.2554,-402.2019"/>
<text text-anchor="middle" x="422.6515" y="-385.8" font-family="Times,serif" font-size="14.00" fill="#000000">GO:0006810</text>
<text text-anchor="middle" x="422.6515" y="-369" font-family="Times,serif" font-size="14.00" fill="#000000">transport</text>
</g>
<!-- GO:0071705&#45;&gt;GO:0006810 -->
<g id="edge10" class="edge">
<title>GO:0071705&#45;&gt;GO:0006810</title>
<path fill="none" stroke="#000000" d="M377.3974,-325.1963C384.6202,-334.1986 392.5417,-344.0719 399.7104,-353.0067"/>
<polygon fill="#000000" stroke="#000000" points="397.0526,-355.287 406.0406,-360.8966 402.5125,-350.9064 397.0526,-355.287"/>
</g>
<!-- GO:0071702&#45;&gt;GO:0006810 -->
<g id="edge11" class="edge">
<title>GO:0071702&#45;&gt;GO:0006810</title>
<path fill="none" stroke="#000000" d="M468.5615,-325.1963C461.234,-334.1986 453.1977,-344.0719 445.9251,-353.0067"/>
<polygon fill="#000000" stroke="#000000" points="443.1014,-350.9314 439.5031,-360.8966 448.5304,-355.3504 443.1014,-350.9314"/>
</g>
</g>
</svg>
