<?xml version="1.0" encoding="UTF-8" standalone="no"?>
<!DOCTYPE svg PUBLIC "-//W3C//DTD SVG 1.1//EN"
 "http://www.w3.org/Graphics/SVG/1.1/DTD/svg11.dtd">
<!-- Generated by graphviz version 2.40.1 (20161225.0304)
 -->
<!-- Title: G Pages: 1 -->
<svg width="1046pt" height="805pt"
 viewBox="0.00 0.00 1045.93 804.80" xmlns="http://www.w3.org/2000/svg" xmlns:xlink="http://www.w3.org/1999/xlink">
<g id="graph0" class="graph" transform="scale(1 1) rotate(0) translate(4 800.8)">
<title>G</title>
<polygon fill="#ffffff" stroke="transparent" points="-4,4 -4,-800.8 1041.9303,-800.8 1041.9303,4 -4,4"/>
<!-- GO:0022891 -->
<g id="node1" class="node">
<title>GO:0022891</title>
<polygon fill="#ffffff" stroke="#000000" points="166.6498,-547.3003 -.217,-547.3003 -.217,-471.8997 166.6498,-471.8997 166.6498,-547.3003"/>
<text text-anchor="middle" x="83.2164" y="-530.6" font-family="Times,serif" font-size="14.00" fill="#000000">GO:0022891</text>
<text text-anchor="middle" x="83.2164" y="-513.8" font-family="Times,serif" font-size="14.00" fill="#000000">substrate&#45;specific</text>
<text text-anchor="middle" x="83.2164" y="-497" font-family="Times,serif" font-size="14.00" fill="#000000">transmembrane transporter</text>
<text text-anchor="middle" x="83.2164" y="-480.2" font-family="Times,serif" font-size="14.00" fill="#000000">activity</text>
</g>
<!-- GO:0022857 -->
<g id="node2" class="node">
<title>GO:0022857</title>
<polygon fill="#ffffff" stroke="#000000" points="333.6498,-641.8014 166.783,-641.8014 166.783,-582.9986 333.6498,-582.9986 333.6498,-641.8014"/>
<text text-anchor="middle" x="250.2164" y="-625" font-family="Times,serif" font-size="14.00" fill="#000000">GO:0022857</text>
<text text-anchor="middle" x="250.2164" y="-608.2" font-family="Times,serif" font-size="14.00" fill="#000000">transmembrane transporter</text>
<text text-anchor="middle" x="250.2164" y="-591.4" font-family="Times,serif" font-size="14.00" fill="#000000">activity</text>
</g>
<!-- GO:0022891&#45;&gt;GO:0022857 -->
<g id="edge1" class="edge">
<title>GO:0022891&#45;&gt;GO:0022857</title>
<path fill="none" stroke="#000000" d="M144.4528,-547.2952C160.6328,-557.2552 178.0161,-567.9558 193.921,-577.7463"/>
<polygon fill="#000000" stroke="#000000" points="192.2372,-580.8198 202.5879,-583.0814 195.9067,-574.8586 192.2372,-580.8198"/>
</g>
<!-- GO:0022892 -->
<g id="node3" class="node">
<title>GO:0022892</title>
<polygon fill="#ffffff" stroke="#000000" points="147.3449,-641.8014 25.0879,-641.8014 25.0879,-582.9986 147.3449,-582.9986 147.3449,-641.8014"/>
<text text-anchor="middle" x="86.2164" y="-625" font-family="Times,serif" font-size="14.00" fill="#000000">GO:0022892</text>
<text text-anchor="middle" x="86.2164" y="-608.2" font-family="Times,serif" font-size="14.00" fill="#000000">substrate&#45;specific</text>
<text text-anchor="middle" x="86.2164" y="-591.4" font-family="Times,serif" font-size="14.00" fill="#000000">transporter activity</text>
</g>
<!-- GO:0022891&#45;&gt;GO:0022892 -->
<g id="edge2" class="edge">
<title>GO:0022891&#45;&gt;GO:0022892</title>
<path fill="none" stroke="#000000" d="M84.3165,-547.2952C84.5614,-555.6874 84.8216,-564.6054 85.0684,-573.0618"/>
<polygon fill="#000000" stroke="#000000" points="81.5705,-573.1878 85.3608,-583.0814 88.5675,-572.9835 81.5705,-573.1878"/>
</g>
<!-- GO:0005215 -->
<g id="node4" class="node">
<title>GO:0005215</title>
<polygon fill="#ffffff" stroke="#000000" points="311.3449,-719.0019 189.0879,-719.0019 189.0879,-677.7981 311.3449,-677.7981 311.3449,-719.0019"/>
<text text-anchor="middle" x="250.2164" y="-702.6" font-family="Times,serif" font-size="14.00" fill="#000000">GO:0005215</text>
<text text-anchor="middle" x="250.2164" y="-685.8" font-family="Times,serif" font-size="14.00" fill="#000000">transporter activity</text>
</g>
<!-- GO:0022857&#45;&gt;GO:0005215 -->
<g id="edge3" class="edge">
<title>GO:0022857&#45;&gt;GO:0005215</title>
<path fill="none" stroke="#000000" d="M250.2164,-641.9963C250.2164,-650.2638 250.2164,-659.2657 250.2164,-667.6008"/>
<polygon fill="#000000" stroke="#000000" points="246.7165,-667.6965 250.2164,-677.6966 253.7165,-667.6966 246.7165,-667.6965"/>
</g>
<!-- GO:0022892&#45;&gt;GO:0005215 -->
<g id="edge4" class="edge">
<title>GO:0022892&#45;&gt;GO:0005215</title>
<path fill="none" stroke="#000000" d="M142.1972,-641.7558C161.5748,-651.9172 183.115,-663.2127 201.8302,-673.0267"/>
<polygon fill="#000000" stroke="#000000" points="200.2872,-676.1696 210.7688,-677.7141 203.5381,-669.9703 200.2872,-676.1696"/>
</g>
<!-- GO:0003674 -->
<g id="node5" class="node">
<title>GO:0003674</title>
<polygon fill="#ffffff" stroke="#000000" points="551.8495,-796.6019 426.5833,-796.6019 426.5833,-755.3981 551.8495,-755.3981 551.8495,-796.6019"/>
<text text-anchor="middle" x="489.2164" y="-780.2" font-family="Times,serif" font-size="14.00" fill="#000000">GO:0003674</text>
<text text-anchor="middle" x="489.2164" y="-763.4" font-family="Times,serif" font-size="14.00" fill="#000000">molecular_function</text>
</g>
<!-- GO:0005215&#45;&gt;GO:0003674 -->
<g id="edge5" class="edge">
<title>GO:0005215&#45;&gt;GO:0003674</title>
<path fill="none" stroke="#000000" d="M311.4545,-718.2832C343.5537,-728.7053 383.0785,-741.5385 416.7011,-752.4553"/>
<polygon fill="#000000" stroke="#000000" points="415.8805,-755.8687 426.4726,-755.628 418.0423,-749.2108 415.8805,-755.8687"/>
</g>
<!-- GO:0016787 -->
<g id="node6" class="node">
<title>GO:0016787</title>
<polygon fill="#ffffff" stroke="#000000" points="479.133,-633.0019 363.2998,-633.0019 363.2998,-591.7981 479.133,-591.7981 479.133,-633.0019"/>
<text text-anchor="middle" x="421.2164" y="-616.6" font-family="Times,serif" font-size="14.00" fill="#000000">GO:0016787</text>
<text text-anchor="middle" x="421.2164" y="-599.8" font-family="Times,serif" font-size="14.00" fill="#000000">hydrolase activity</text>
</g>
<!-- GO:0003824 -->
<g id="node7" class="node">
<title>GO:0003824</title>
<polygon fill="#ffffff" stroke="#000000" points="543.6288,-719.0019 434.804,-719.0019 434.804,-677.7981 543.6288,-677.7981 543.6288,-719.0019"/>
<text text-anchor="middle" x="489.2164" y="-702.6" font-family="Times,serif" font-size="14.00" fill="#000000">GO:0003824</text>
<text text-anchor="middle" x="489.2164" y="-685.8" font-family="Times,serif" font-size="14.00" fill="#000000">catalytic activity</text>
</g>
<!-- GO:0016787&#45;&gt;GO:0003824 -->
<g id="edge6" class="edge">
<title>GO:0016787&#45;&gt;GO:0003824</title>
<path fill="none" stroke="#000000" d="M437.6773,-633.2182C446.364,-644.2043 457.154,-657.8506 466.6132,-669.8137"/>
<polygon fill="#000000" stroke="#000000" points="463.9592,-672.1002 472.9071,-677.7735 469.4502,-667.7585 463.9592,-672.1002"/>
</g>
<!-- GO:0003824&#45;&gt;GO:0003674 -->
<g id="edge7" class="edge">
<title>GO:0003824&#45;&gt;GO:0003674</title>
<path fill="none" stroke="#000000" d="M489.2164,-719.1954C489.2164,-727.1109 489.2164,-736.3109 489.2164,-744.9722"/>
<polygon fill="#000000" stroke="#000000" points="485.7165,-745.1472 489.2164,-755.1472 492.7165,-745.1473 485.7165,-745.1472"/>
</g>
<!-- GO:0008092 -->
<g id="node8" class="node">
<title>GO:0008092</title>
<polygon fill="#ffffff" stroke="#000000" points="645.2382,-539.0014 519.1946,-539.0014 519.1946,-480.1986 645.2382,-480.1986 645.2382,-539.0014"/>
<text text-anchor="middle" x="582.2164" y="-522.2" font-family="Times,serif" font-size="14.00" fill="#000000">GO:0008092</text>
<text text-anchor="middle" x="582.2164" y="-505.4" font-family="Times,serif" font-size="14.00" fill="#000000">cytoskeletal protein</text>
<text text-anchor="middle" x="582.2164" y="-488.6" font-family="Times,serif" font-size="14.00" fill="#000000">binding</text>
</g>
<!-- GO:0005515 -->
<g id="node9" class="node">
<title>GO:0005515</title>
<polygon fill="#ffffff" stroke="#000000" points="765.154,-633.0019 663.2788,-633.0019 663.2788,-591.7981 765.154,-591.7981 765.154,-633.0019"/>
<text text-anchor="middle" x="714.2164" y="-616.6" font-family="Times,serif" font-size="14.00" fill="#000000">GO:0005515</text>
<text text-anchor="middle" x="714.2164" y="-599.8" font-family="Times,serif" font-size="14.00" fill="#000000">protein binding</text>
</g>
<!-- GO:0008092&#45;&gt;GO:0005515 -->
<g id="edge8" class="edge">
<title>GO:0008092&#45;&gt;GO:0005515</title>
<path fill="none" stroke="#000000" d="M620.0423,-539.0584C638.8048,-553.6703 661.3069,-571.1947 679.6098,-585.4488"/>
<polygon fill="#000000" stroke="#000000" points="677.655,-588.3626 687.6952,-591.7456 681.9561,-582.8398 677.655,-588.3626"/>
</g>
<!-- GO:0005488 -->
<g id="node10" class="node">
<title>GO:0005488</title>
<polygon fill="#ffffff" stroke="#000000" points="815.8203,-719.0019 726.6125,-719.0019 726.6125,-677.7981 815.8203,-677.7981 815.8203,-719.0019"/>
<text text-anchor="middle" x="771.2164" y="-702.6" font-family="Times,serif" font-size="14.00" fill="#000000">GO:0005488</text>
<text text-anchor="middle" x="771.2164" y="-685.8" font-family="Times,serif" font-size="14.00" fill="#000000">binding</text>
</g>
<!-- GO:0005515&#45;&gt;GO:0005488 -->
<g id="edge9" class="edge">
<title>GO:0005515&#45;&gt;GO:0005488</title>
<path fill="none" stroke="#000000" d="M728.0145,-633.2182C735.156,-643.993 743.9934,-657.3267 751.811,-669.1216"/>
<polygon fill="#000000" stroke="#000000" points="749.1033,-671.3717 757.5454,-677.7735 754.9381,-667.5045 749.1033,-671.3717"/>
</g>
<!-- GO:0005488&#45;&gt;GO:0003674 -->
<g id="edge10" class="edge">
<title>GO:0005488&#45;&gt;GO:0003674</title>
<path fill="none" stroke="#000000" d="M726.5327,-710.696C682.3243,-722.8611 613.9187,-741.6848 561.8862,-756.0029"/>
<polygon fill="#000000" stroke="#000000" points="560.7538,-752.6844 552.0408,-758.7122 562.611,-759.4335 560.7538,-752.6844"/>
</g>
<!-- GO:0042623 -->
<g id="node11" class="node">
<title>GO:0042623</title>
<polygon fill="#ffffff" stroke="#000000" points="499.8435,-41.4019 342.5893,-41.4019 342.5893,-.1981 499.8435,-.1981 499.8435,-41.4019"/>
<text text-anchor="middle" x="421.2164" y="-25" font-family="Times,serif" font-size="14.00" fill="#000000">GO:0042623</text>
<text text-anchor="middle" x="421.2164" y="-8.2" font-family="Times,serif" font-size="14.00" fill="#000000">ATPase activity, coupled</text>
</g>
<!-- GO:0016887 -->
<g id="node12" class="node">
<title>GO:0016887</title>
<polygon fill="#ffffff" stroke="#000000" points="474.0238,-119.0019 368.409,-119.0019 368.409,-77.7981 474.0238,-77.7981 474.0238,-119.0019"/>
<text text-anchor="middle" x="421.2164" y="-102.6" font-family="Times,serif" font-size="14.00" fill="#000000">GO:0016887</text>
<text text-anchor="middle" x="421.2164" y="-85.8" font-family="Times,serif" font-size="14.00" fill="#000000">ATPase activity</text>
</g>
<!-- GO:0042623&#45;&gt;GO:0016887 -->
<g id="edge11" class="edge">
<title>GO:0042623&#45;&gt;GO:0016887</title>
<path fill="none" stroke="#000000" d="M421.2164,-41.5954C421.2164,-49.5109 421.2164,-58.7109 421.2164,-67.3722"/>
<polygon fill="#000000" stroke="#000000" points="417.7165,-67.5472 421.2164,-77.5472 424.7165,-67.5473 417.7165,-67.5472"/>
</g>
<!-- GO:0017111 -->
<g id="node13" class="node">
<title>GO:0017111</title>
<polygon fill="#ffffff" stroke="#000000" points="502.1125,-213.8014 340.3203,-213.8014 340.3203,-154.9986 502.1125,-154.9986 502.1125,-213.8014"/>
<text text-anchor="middle" x="421.2164" y="-197" font-family="Times,serif" font-size="14.00" fill="#000000">GO:0017111</text>
<text text-anchor="middle" x="421.2164" y="-180.2" font-family="Times,serif" font-size="14.00" fill="#000000">nucleoside&#45;triphosphatase</text>
<text text-anchor="middle" x="421.2164" y="-163.4" font-family="Times,serif" font-size="14.00" fill="#000000">activity</text>
</g>
<!-- GO:0016887&#45;&gt;GO:0017111 -->
<g id="edge12" class="edge">
<title>GO:0016887&#45;&gt;GO:0017111</title>
<path fill="none" stroke="#000000" d="M421.2164,-119.2182C421.2164,-126.9358 421.2164,-135.9662 421.2164,-144.8036"/>
<polygon fill="#000000" stroke="#000000" points="417.7165,-144.9991 421.2164,-154.9991 424.7165,-144.9992 417.7165,-144.9991"/>
</g>
<!-- GO:0016462 -->
<g id="node14" class="node">
<title>GO:0016462</title>
<polygon fill="#ffffff" stroke="#000000" points="498.7928,-291.0019 343.64,-291.0019 343.64,-249.7981 498.7928,-249.7981 498.7928,-291.0019"/>
<text text-anchor="middle" x="421.2164" y="-274.6" font-family="Times,serif" font-size="14.00" fill="#000000">GO:0016462</text>
<text text-anchor="middle" x="421.2164" y="-257.8" font-family="Times,serif" font-size="14.00" fill="#000000">pyrophosphatase activity</text>
</g>
<!-- GO:0017111&#45;&gt;GO:0016462 -->
<g id="edge13" class="edge">
<title>GO:0017111&#45;&gt;GO:0016462</title>
<path fill="none" stroke="#000000" d="M421.2164,-213.9963C421.2164,-222.2638 421.2164,-231.2657 421.2164,-239.6008"/>
<polygon fill="#000000" stroke="#000000" points="417.7165,-239.6965 421.2164,-249.6966 424.7165,-239.6966 417.7165,-239.6965"/>
</g>
<!-- GO:0016818 -->
<g id="node15" class="node">
<title>GO:0016818</title>
<polygon fill="#ffffff" stroke="#000000" points="493.5281,-435.9002 348.9047,-435.9002 348.9047,-327.2998 493.5281,-327.2998 493.5281,-435.9002"/>
<text text-anchor="middle" x="421.2164" y="-419.4" font-family="Times,serif" font-size="14.00" fill="#000000">GO:0016818</text>
<text text-anchor="middle" x="421.2164" y="-402.6" font-family="Times,serif" font-size="14.00" fill="#000000">hydrolase activity,</text>
<text text-anchor="middle" x="421.2164" y="-385.8" font-family="Times,serif" font-size="14.00" fill="#000000">acting on acid</text>
<text text-anchor="middle" x="421.2164" y="-369" font-family="Times,serif" font-size="14.00" fill="#000000">anhydrides, in</text>
<text text-anchor="middle" x="421.2164" y="-352.2" font-family="Times,serif" font-size="14.00" fill="#000000">phosphorus&#45;containing</text>
<text text-anchor="middle" x="421.2164" y="-335.4" font-family="Times,serif" font-size="14.00" fill="#000000">anhydrides</text>
</g>
<!-- GO:0016462&#45;&gt;GO:0016818 -->
<g id="edge14" class="edge">
<title>GO:0016462&#45;&gt;GO:0016818</title>
<path fill="none" stroke="#000000" d="M421.2164,-291.0553C421.2164,-298.6198 421.2164,-307.6357 421.2164,-317.0015"/>
<polygon fill="#000000" stroke="#000000" points="417.7165,-317.2495 421.2164,-327.2496 424.7165,-317.2496 417.7165,-317.2495"/>
</g>
<!-- GO:0016817 -->
<g id="node16" class="node">
<title>GO:0016817</title>
<polygon fill="#ffffff" stroke="#000000" points="501.1723,-539.0014 341.2605,-539.0014 341.2605,-480.1986 501.1723,-480.1986 501.1723,-539.0014"/>
<text text-anchor="middle" x="421.2164" y="-522.2" font-family="Times,serif" font-size="14.00" fill="#000000">GO:0016817</text>
<text text-anchor="middle" x="421.2164" y="-505.4" font-family="Times,serif" font-size="14.00" fill="#000000">hydrolase activity,</text>
<text text-anchor="middle" x="421.2164" y="-488.6" font-family="Times,serif" font-size="14.00" fill="#000000">acting on acid anhydrides</text>
</g>
<!-- GO:0016818&#45;&gt;GO:0016817 -->
<g id="edge15" class="edge">
<title>GO:0016818&#45;&gt;GO:0016817</title>
<path fill="none" stroke="#000000" d="M421.2164,-436.2548C421.2164,-447.5684 421.2164,-459.2801 421.2164,-469.9346"/>
<polygon fill="#000000" stroke="#000000" points="417.7165,-470.1827 421.2164,-480.1828 424.7165,-470.1828 417.7165,-470.1827"/>
</g>
<!-- GO:0016817&#45;&gt;GO:0016787 -->
<g id="edge16" class="edge">
<title>GO:0016817&#45;&gt;GO:0016787</title>
<path fill="none" stroke="#000000" d="M421.2164,-539.0584C421.2164,-552.3539 421.2164,-568.0608 421.2164,-581.5212"/>
<polygon fill="#000000" stroke="#000000" points="417.7165,-581.7456 421.2164,-591.7456 424.7165,-581.7457 417.7165,-581.7456"/>
</g>
<!-- GO:0043169 -->
<g id="node17" class="node">
<title>GO:0043169</title>
<polygon fill="#ffffff" stroke="#000000" points="931.7093,-530.2019 834.7235,-530.2019 834.7235,-488.9981 931.7093,-488.9981 931.7093,-530.2019"/>
<text text-anchor="middle" x="883.2164" y="-513.8" font-family="Times,serif" font-size="14.00" fill="#000000">GO:0043169</text>
<text text-anchor="middle" x="883.2164" y="-497" font-family="Times,serif" font-size="14.00" fill="#000000">cation binding</text>
</g>
<!-- GO:0043167 -->
<g id="node18" class="node">
<title>GO:0043167</title>
<polygon fill="#ffffff" stroke="#000000" points="872.8203,-633.0019 783.6125,-633.0019 783.6125,-591.7981 872.8203,-591.7981 872.8203,-633.0019"/>
<text text-anchor="middle" x="828.2164" y="-616.6" font-family="Times,serif" font-size="14.00" fill="#000000">GO:0043167</text>
<text text-anchor="middle" x="828.2164" y="-599.8" font-family="Times,serif" font-size="14.00" fill="#000000">ion binding</text>
</g>
<!-- GO:0043169&#45;&gt;GO:0043167 -->
<g id="edge17" class="edge">
<title>GO:0043169&#45;&gt;GO:0043167</title>
<path fill="none" stroke="#000000" d="M872.0863,-530.4031C864.0351,-545.4517 853.0404,-566.0017 844.0722,-582.764"/>
<polygon fill="#000000" stroke="#000000" points="840.9613,-581.1593 839.3299,-591.6278 847.1335,-584.4616 840.9613,-581.1593"/>
</g>
<!-- GO:0043167&#45;&gt;GO:0005488 -->
<g id="edge18" class="edge">
<title>GO:0043167&#45;&gt;GO:0005488</title>
<path fill="none" stroke="#000000" d="M814.4183,-633.2182C807.2768,-643.993 798.4394,-657.3267 790.6218,-669.1216"/>
<polygon fill="#000000" stroke="#000000" points="787.4947,-667.5045 784.8874,-677.7735 793.3295,-671.3717 787.4947,-667.5045"/>
</g>
<!-- GO:0036094 -->
<g id="node19" class="node">
<title>GO:0036094</title>
<polygon fill="#ffffff" stroke="#000000" points="1038.1448,-633.0019 890.288,-633.0019 890.288,-591.7981 1038.1448,-591.7981 1038.1448,-633.0019"/>
<text text-anchor="middle" x="964.2164" y="-616.6" font-family="Times,serif" font-size="14.00" fill="#000000">GO:0036094</text>
<text text-anchor="middle" x="964.2164" y="-599.8" font-family="Times,serif" font-size="14.00" fill="#000000">small molecule binding</text>
</g>
<!-- GO:0036094&#45;&gt;GO:0005488 -->
<g id="edge19" class="edge">
<title>GO:0036094&#45;&gt;GO:0005488</title>
<path fill="none" stroke="#000000" d="M917.4965,-633.2182C889.6121,-645.6434 854.0913,-661.4713 825.0354,-674.4185"/>
<polygon fill="#000000" stroke="#000000" points="823.5564,-671.2457 815.8468,-678.5129 826.4056,-677.6396 823.5564,-671.2457"/>
</g>
<!-- GO:0016740 -->
<g id="node20" class="node">
<title>GO:0016740</title>
<polygon fill="#ffffff" stroke="#000000" points="619.3281,-633.0019 497.1047,-633.0019 497.1047,-591.7981 619.3281,-591.7981 619.3281,-633.0019"/>
<text text-anchor="middle" x="558.2164" y="-616.6" font-family="Times,serif" font-size="14.00" fill="#000000">GO:0016740</text>
<text text-anchor="middle" x="558.2164" y="-599.8" font-family="Times,serif" font-size="14.00" fill="#000000">transferase activity</text>
</g>
<!-- GO:0016740&#45;&gt;GO:0003824 -->
<g id="edge20" class="edge">
<title>GO:0016740&#45;&gt;GO:0003824</title>
<path fill="none" stroke="#000000" d="M541.5134,-633.2182C532.699,-644.2043 521.7503,-657.8506 512.152,-669.8137"/>
<polygon fill="#000000" stroke="#000000" points="509.2937,-667.7833 505.7656,-677.7735 514.7535,-672.164 509.2937,-667.7833"/>
</g>
<!-- GO:0022804 -->
<g id="node21" class="node">
<title>GO:0022804</title>
<polygon fill="#ffffff" stroke="#000000" points="323.9376,-539.0014 184.4952,-539.0014 184.4952,-480.1986 323.9376,-480.1986 323.9376,-539.0014"/>
<text text-anchor="middle" x="254.2164" y="-522.2" font-family="Times,serif" font-size="14.00" fill="#000000">GO:0022804</text>
<text text-anchor="middle" x="254.2164" y="-505.4" font-family="Times,serif" font-size="14.00" fill="#000000">active transmembrane</text>
<text text-anchor="middle" x="254.2164" y="-488.6" font-family="Times,serif" font-size="14.00" fill="#000000">transporter activity</text>
</g>
<!-- GO:0022804&#45;&gt;GO:0022857 -->
<g id="edge21" class="edge">
<title>GO:0022804&#45;&gt;GO:0022857</title>
<path fill="none" stroke="#000000" d="M253.0702,-539.0584C252.6601,-549.5969 252.1911,-561.6505 251.7534,-572.8994"/>
<polygon fill="#000000" stroke="#000000" points="248.2544,-572.8088 251.3628,-582.9373 255.2491,-573.081 248.2544,-572.8088"/>
</g>
<!-- GO:0042802 -->
<g id="node22" class="node">
<title>GO:0042802</title>
<polygon fill="#ffffff" stroke="#000000" points="816.8606,-530.2019 663.5722,-530.2019 663.5722,-488.9981 816.8606,-488.9981 816.8606,-530.2019"/>
<text text-anchor="middle" x="740.2164" y="-513.8" font-family="Times,serif" font-size="14.00" fill="#000000">GO:0042802</text>
<text text-anchor="middle" x="740.2164" y="-497" font-family="Times,serif" font-size="14.00" fill="#000000">identical protein binding</text>
</g>
<!-- GO:0042802&#45;&gt;GO:0005515 -->
<g id="edge22" class="edge">
<title>GO:0042802&#45;&gt;GO:0005515</title>
<path fill="none" stroke="#000000" d="M734.9549,-530.4031C731.2193,-545.173 726.1434,-565.2424 721.9484,-581.829"/>
<polygon fill="#000000" stroke="#000000" points="718.529,-581.0749 719.4701,-591.6278 725.3153,-582.7913 718.529,-581.0749"/>
</g>
</g>
</svg>
