<?xml version="1.0" encoding="UTF-8" standalone="no"?>
<!DOCTYPE svg PUBLIC "-//W3C//DTD SVG 1.1//EN"
 "http://www.w3.org/Graphics/SVG/1.1/DTD/svg11.dtd">
<!-- Generated by graphviz version 2.40.1 (20161225.0304)
 -->
<!-- Title: G Pages: 1 -->
<svg width="462pt" height="299pt"
 viewBox="0.00 0.00 462.39 299.20" xmlns="http://www.w3.org/2000/svg" xmlns:xlink="http://www.w3.org/1999/xlink">
<g id="graph0" class="graph" transform="scale(1 1) rotate(0) translate(4 295.2)">
<title>G</title>
<polygon fill="#ffffff" stroke="transparent" points="-4,4 -4,-295.2 458.3903,-295.2 458.3903,4 -4,4"/>
<!-- GO:0055036 -->
<g id="node1" class="node">
<title>GO:0055036</title>
<polygon fill="#ffffff" stroke="#000000" points="112.0411,-127.4019 -.0137,-127.4019 -.0137,-86.1981 112.0411,-86.1981 112.0411,-127.4019"/>
<text text-anchor="middle" x="56.0137" y="-111" font-family="Times,serif" font-size="14.00" fill="#000000">GO:0055036</text>
<text text-anchor="middle" x="56.0137" y="-94.2" font-family="Times,serif" font-size="14.00" fill="#000000">virion membrane</text>
</g>
<!-- GO:0016020 -->
<g id="node2" class="node">
<title>GO:0016020</title>
<polygon fill="#ffffff" stroke="#000000" points="100.6176,-213.4019 11.4098,-213.4019 11.4098,-172.1981 100.6176,-172.1981 100.6176,-213.4019"/>
<text text-anchor="middle" x="56.0137" y="-197" font-family="Times,serif" font-size="14.00" fill="#000000">GO:0016020</text>
<text text-anchor="middle" x="56.0137" y="-180.2" font-family="Times,serif" font-size="14.00" fill="#000000">membrane</text>
</g>
<!-- GO:0055036&#45;&gt;GO:0016020 -->
<g id="edge1" class="edge">
<title>GO:0055036&#45;&gt;GO:0016020</title>
<path fill="none" stroke="#000000" d="M56.0137,-127.6182C56.0137,-137.9705 56.0137,-150.6848 56.0137,-162.1271"/>
<polygon fill="#000000" stroke="#000000" points="52.5138,-162.1735 56.0137,-172.1735 59.5138,-162.1735 52.5138,-162.1735"/>
</g>
<!-- GO:0044423 -->
<g id="node3" class="node">
<title>GO:0044423</title>
<polygon fill="#ffffff" stroke="#000000" points="207.6176,-213.4019 118.4098,-213.4019 118.4098,-172.1981 207.6176,-172.1981 207.6176,-213.4019"/>
<text text-anchor="middle" x="163.0137" y="-197" font-family="Times,serif" font-size="14.00" fill="#000000">GO:0044423</text>
<text text-anchor="middle" x="163.0137" y="-180.2" font-family="Times,serif" font-size="14.00" fill="#000000">virion part</text>
</g>
<!-- GO:0055036&#45;&gt;GO:0044423 -->
<g id="edge2" class="edge">
<title>GO:0055036&#45;&gt;GO:0044423</title>
<path fill="none" stroke="#000000" d="M81.9154,-127.6182C96.1099,-139.0268 113.8736,-153.3042 129.1548,-165.5863"/>
<polygon fill="#000000" stroke="#000000" points="127.3634,-168.6368 137.3505,-172.1735 131.7487,-163.1807 127.3634,-168.6368"/>
</g>
<!-- GO:0005575 -->
<g id="node4" class="node">
<title>GO:0005575</title>
<polygon fill="#ffffff" stroke="#000000" points="279.7004,-291.0019 152.327,-291.0019 152.327,-249.7981 279.7004,-249.7981 279.7004,-291.0019"/>
<text text-anchor="middle" x="216.0137" y="-274.6" font-family="Times,serif" font-size="14.00" fill="#000000">GO:0005575</text>
<text text-anchor="middle" x="216.0137" y="-257.8" font-family="Times,serif" font-size="14.00" fill="#000000">cellular_component</text>
</g>
<!-- GO:0016020&#45;&gt;GO:0005575 -->
<g id="edge3" class="edge">
<title>GO:0016020&#45;&gt;GO:0005575</title>
<path fill="none" stroke="#000000" d="M98.8908,-213.5954C118.9686,-223.3331 143.0549,-235.015 164.15,-245.2461"/>
<polygon fill="#000000" stroke="#000000" points="162.771,-248.4672 173.2959,-249.6819 165.8257,-242.1688 162.771,-248.4672"/>
</g>
<!-- GO:0044423&#45;&gt;GO:0005575 -->
<g id="edge4" class="edge">
<title>GO:0044423&#45;&gt;GO:0005575</title>
<path fill="none" stroke="#000000" d="M177.2167,-213.5954C182.9794,-222.0328 189.7389,-231.9297 195.987,-241.0778"/>
<polygon fill="#000000" stroke="#000000" points="193.2412,-243.2634 201.7715,-249.5472 199.0217,-239.3154 193.2412,-243.2634"/>
</g>
<!-- GO:0019012 -->
<g id="node5" class="node">
<title>GO:0019012</title>
<polygon fill="#ffffff" stroke="#000000" points="314.6176,-213.4019 225.4098,-213.4019 225.4098,-172.1981 314.6176,-172.1981 314.6176,-213.4019"/>
<text text-anchor="middle" x="270.0137" y="-197" font-family="Times,serif" font-size="14.00" fill="#000000">GO:0019012</text>
<text text-anchor="middle" x="270.0137" y="-180.2" font-family="Times,serif" font-size="14.00" fill="#000000">virion</text>
</g>
<!-- GO:0019012&#45;&gt;GO:0005575 -->
<g id="edge5" class="edge">
<title>GO:0019012&#45;&gt;GO:0005575</title>
<path fill="none" stroke="#000000" d="M255.5427,-213.5954C249.6713,-222.0328 242.7843,-231.9297 236.4183,-241.0778"/>
<polygon fill="#000000" stroke="#000000" points="233.3637,-239.3398 230.5247,-249.5472 239.1095,-243.3382 233.3637,-239.3398"/>
</g>
<!-- GO:0019031 -->
<g id="node6" class="node">
<title>GO:0019031</title>
<polygon fill="#ffffff" stroke="#000000" points="229.705,-41.4019 134.3224,-41.4019 134.3224,-.1981 229.705,-.1981 229.705,-41.4019"/>
<text text-anchor="middle" x="182.0137" y="-25" font-family="Times,serif" font-size="14.00" fill="#000000">GO:0019031</text>
<text text-anchor="middle" x="182.0137" y="-8.2" font-family="Times,serif" font-size="14.00" fill="#000000">viral envelope</text>
</g>
<!-- GO:0036338 -->
<g id="node7" class="node">
<title>GO:0036338</title>
<polygon fill="#ffffff" stroke="#000000" points="234.256,-127.4019 129.7714,-127.4019 129.7714,-86.1981 234.256,-86.1981 234.256,-127.4019"/>
<text text-anchor="middle" x="182.0137" y="-111" font-family="Times,serif" font-size="14.00" fill="#000000">GO:0036338</text>
<text text-anchor="middle" x="182.0137" y="-94.2" font-family="Times,serif" font-size="14.00" fill="#000000">viral membrane</text>
</g>
<!-- GO:0019031&#45;&gt;GO:0036338 -->
<g id="edge6" class="edge">
<title>GO:0019031&#45;&gt;GO:0036338</title>
<path fill="none" stroke="#000000" d="M182.0137,-41.6182C182.0137,-51.9705 182.0137,-64.6848 182.0137,-76.1271"/>
<polygon fill="#000000" stroke="#000000" points="178.5138,-76.1735 182.0137,-86.1735 185.5138,-76.1735 178.5138,-76.1735"/>
</g>
<!-- GO:0036338&#45;&gt;GO:0044423 -->
<g id="edge7" class="edge">
<title>GO:0036338&#45;&gt;GO:0044423</title>
<path fill="none" stroke="#000000" d="M177.4143,-127.6182C175.1272,-137.9705 172.3182,-150.6848 169.7903,-162.1271"/>
<polygon fill="#000000" stroke="#000000" points="166.3105,-161.6539 167.5707,-172.1735 173.1457,-163.1641 166.3105,-161.6539"/>
</g>
<!-- GO:0031224 -->
<g id="node8" class="node">
<title>GO:0031224</title>
<polygon fill="#ffffff" stroke="#000000" points="454.2671,-136.2014 311.7603,-136.2014 311.7603,-77.3986 454.2671,-77.3986 454.2671,-136.2014"/>
<text text-anchor="middle" x="383.0137" y="-119.4" font-family="Times,serif" font-size="14.00" fill="#000000">GO:0031224</text>
<text text-anchor="middle" x="383.0137" y="-102.6" font-family="Times,serif" font-size="14.00" fill="#000000">intrinsic component of</text>
<text text-anchor="middle" x="383.0137" y="-85.8" font-family="Times,serif" font-size="14.00" fill="#000000">membrane</text>
</g>
<!-- GO:0044425 -->
<g id="node9" class="node">
<title>GO:0044425</title>
<polygon fill="#ffffff" stroke="#000000" points="433.3657,-213.4019 332.6617,-213.4019 332.6617,-172.1981 433.3657,-172.1981 433.3657,-213.4019"/>
<text text-anchor="middle" x="383.0137" y="-197" font-family="Times,serif" font-size="14.00" fill="#000000">GO:0044425</text>
<text text-anchor="middle" x="383.0137" y="-180.2" font-family="Times,serif" font-size="14.00" fill="#000000">membrane part</text>
</g>
<!-- GO:0031224&#45;&gt;GO:0044425 -->
<g id="edge8" class="edge">
<title>GO:0031224&#45;&gt;GO:0044425</title>
<path fill="none" stroke="#000000" d="M383.0137,-136.3963C383.0137,-144.6638 383.0137,-153.6657 383.0137,-162.0008"/>
<polygon fill="#000000" stroke="#000000" points="379.5138,-162.0965 383.0137,-172.0966 386.5138,-162.0966 379.5138,-162.0965"/>
</g>
<!-- GO:0044425&#45;&gt;GO:0005575 -->
<g id="edge9" class="edge">
<title>GO:0044425&#45;&gt;GO:0005575</title>
<path fill="none" stroke="#000000" d="M338.2608,-213.5954C317.2105,-223.3768 291.9389,-235.1198 269.8504,-245.3837"/>
<polygon fill="#000000" stroke="#000000" points="268.1942,-242.2938 260.6004,-249.6819 271.144,-248.6419 268.1942,-242.2938"/>
</g>
</g>
</svg>
