<?xml version="1.0" encoding="UTF-8" standalone="no"?>
<!DOCTYPE svg PUBLIC "-//W3C//DTD SVG 1.1//EN"
 "http://www.w3.org/Graphics/SVG/1.1/DTD/svg11.dtd">
<!-- Generated by graphviz version 2.40.1 (20161225.0304)
 -->
<!-- Title: G Pages: 1 -->
<svg width="1523pt" height="650pt"
 viewBox="0.00 0.00 1522.74 649.60" xmlns="http://www.w3.org/2000/svg" xmlns:xlink="http://www.w3.org/1999/xlink">
<g id="graph0" class="graph" transform="scale(1 1) rotate(0) translate(4 645.6)">
<title>G</title>
<polygon fill="#ffffff" stroke="transparent" points="-4,4 -4,-645.6 1518.7441,-645.6 1518.7441,4 -4,4"/>
<!-- GO:0031696 -->
<g id="node1" class="node">
<title>GO:0031696</title>
<polygon fill="#ffffff" stroke="#000000" points="743.0678,-58.6014 613.2934,-58.6014 613.2934,.2014 743.0678,.2014 743.0678,-58.6014"/>
<text text-anchor="middle" x="678.1806" y="-41.8" font-family="Times,serif" font-size="14.00" fill="#000000">GO:0031696</text>
<text text-anchor="middle" x="678.1806" y="-25" font-family="Times,serif" font-size="14.00" fill="#000000">alpha&#45;2C adrenergic</text>
<text text-anchor="middle" x="678.1806" y="-8.2" font-family="Times,serif" font-size="14.00" fill="#000000">receptor binding</text>
</g>
<!-- GO:0031690 -->
<g id="node2" class="node">
<title>GO:0031690</title>
<polygon fill="#ffffff" stroke="#000000" points="740.6071,-153.0014 615.7541,-153.0014 615.7541,-94.1986 740.6071,-94.1986 740.6071,-153.0014"/>
<text text-anchor="middle" x="678.1806" y="-136.2" font-family="Times,serif" font-size="14.00" fill="#000000">GO:0031690</text>
<text text-anchor="middle" x="678.1806" y="-119.4" font-family="Times,serif" font-size="14.00" fill="#000000">adrenergic receptor</text>
<text text-anchor="middle" x="678.1806" y="-102.6" font-family="Times,serif" font-size="14.00" fill="#000000">binding</text>
</g>
<!-- GO:0031696&#45;&gt;GO:0031690 -->
<g id="edge1" class="edge">
<title>GO:0031696&#45;&gt;GO:0031690</title>
<path fill="none" stroke="#000000" d="M678.1806,-58.5513C678.1806,-66.6318 678.1806,-75.5308 678.1806,-84.0838"/>
<polygon fill="#000000" stroke="#000000" points="674.6807,-84.2668 678.1806,-94.2669 681.6807,-84.2669 674.6807,-84.2668"/>
</g>
<!-- GO:0001664 -->
<g id="node3" class="node">
<title>GO:0001664</title>
<polygon fill="#ffffff" stroke="#000000" points="737.4243,-255.8014 618.9369,-255.8014 618.9369,-196.9986 737.4243,-196.9986 737.4243,-255.8014"/>
<text text-anchor="middle" x="678.1806" y="-239" font-family="Times,serif" font-size="14.00" fill="#000000">GO:0001664</text>
<text text-anchor="middle" x="678.1806" y="-222.2" font-family="Times,serif" font-size="14.00" fill="#000000">G&#45;protein coupled</text>
<text text-anchor="middle" x="678.1806" y="-205.4" font-family="Times,serif" font-size="14.00" fill="#000000">receptor binding</text>
</g>
<!-- GO:0031690&#45;&gt;GO:0001664 -->
<g id="edge2" class="edge">
<title>GO:0031690&#45;&gt;GO:0001664</title>
<path fill="none" stroke="#000000" d="M678.1806,-153.0584C678.1806,-163.5969 678.1806,-175.6505 678.1806,-186.8994"/>
<polygon fill="#000000" stroke="#000000" points="674.6807,-186.9373 678.1806,-196.9373 681.6807,-186.9374 674.6807,-186.9373"/>
</g>
<!-- GO:0005102 -->
<g id="node4" class="node">
<title>GO:0005102</title>
<polygon fill="#ffffff" stroke="#000000" points="732.3175,-349.8019 624.0437,-349.8019 624.0437,-308.5981 732.3175,-308.5981 732.3175,-349.8019"/>
<text text-anchor="middle" x="678.1806" y="-333.4" font-family="Times,serif" font-size="14.00" fill="#000000">GO:0005102</text>
<text text-anchor="middle" x="678.1806" y="-316.6" font-family="Times,serif" font-size="14.00" fill="#000000">receptor binding</text>
</g>
<!-- GO:0001664&#45;&gt;GO:0005102 -->
<g id="edge3" class="edge">
<title>GO:0001664&#45;&gt;GO:0005102</title>
<path fill="none" stroke="#000000" d="M678.1806,-255.8584C678.1806,-269.1539 678.1806,-284.8608 678.1806,-298.3212"/>
<polygon fill="#000000" stroke="#000000" points="674.6807,-298.5456 678.1806,-308.5456 681.6807,-298.5457 674.6807,-298.5456"/>
</g>
<!-- GO:0005515 -->
<g id="node5" class="node">
<title>GO:0005515</title>
<polygon fill="#ffffff" stroke="#000000" points="591.1182,-444.2019 489.243,-444.2019 489.243,-402.9981 591.1182,-402.9981 591.1182,-444.2019"/>
<text text-anchor="middle" x="540.1806" y="-427.8" font-family="Times,serif" font-size="14.00" fill="#000000">GO:0005515</text>
<text text-anchor="middle" x="540.1806" y="-411" font-family="Times,serif" font-size="14.00" fill="#000000">protein binding</text>
</g>
<!-- GO:0005102&#45;&gt;GO:0005515 -->
<g id="edge4" class="edge">
<title>GO:0005102&#45;&gt;GO:0005515</title>
<path fill="none" stroke="#000000" d="M647.8959,-349.9165C627.5834,-363.8114 600.6525,-382.2337 578.8008,-397.1815"/>
<polygon fill="#000000" stroke="#000000" points="576.6722,-394.397 570.3946,-402.9318 580.6244,-400.1746 576.6722,-394.397"/>
</g>
<!-- GO:0005488 -->
<g id="node6" class="node">
<title>GO:0005488</title>
<polygon fill="#ffffff" stroke="#000000" points="997.7845,-538.6019 908.5767,-538.6019 908.5767,-497.3981 997.7845,-497.3981 997.7845,-538.6019"/>
<text text-anchor="middle" x="953.1806" y="-522.2" font-family="Times,serif" font-size="14.00" fill="#000000">GO:0005488</text>
<text text-anchor="middle" x="953.1806" y="-505.4" font-family="Times,serif" font-size="14.00" fill="#000000">binding</text>
</g>
<!-- GO:0005515&#45;&gt;GO:0005488 -->
<g id="edge5" class="edge">
<title>GO:0005515&#45;&gt;GO:0005488</title>
<path fill="none" stroke="#000000" d="M591.2367,-435.27C669.4697,-453.1518 818.3543,-487.1826 898.6324,-505.5318"/>
<polygon fill="#000000" stroke="#000000" points="898.0169,-508.9814 908.5454,-507.7977 899.5767,-502.1573 898.0169,-508.9814"/>
</g>
<!-- GO:0003674 -->
<g id="node7" class="node">
<title>GO:0003674</title>
<polygon fill="#ffffff" stroke="#000000" points="1183.8137,-633.0019 1058.5475,-633.0019 1058.5475,-591.7981 1183.8137,-591.7981 1183.8137,-633.0019"/>
<text text-anchor="middle" x="1121.1806" y="-616.6" font-family="Times,serif" font-size="14.00" fill="#000000">GO:0003674</text>
<text text-anchor="middle" x="1121.1806" y="-599.8" font-family="Times,serif" font-size="14.00" fill="#000000">molecular_function</text>
</g>
<!-- GO:0005488&#45;&gt;GO:0003674 -->
<g id="edge6" class="edge">
<title>GO:0005488&#45;&gt;GO:0003674</title>
<path fill="none" stroke="#000000" d="M990.0489,-538.7165C1015.2149,-552.8574 1048.7257,-571.6872 1075.5713,-586.7719"/>
<polygon fill="#000000" stroke="#000000" points="1073.9658,-589.8844 1084.3983,-591.7318 1077.3949,-583.7818 1073.9658,-589.8844"/>
</g>
<!-- GO:0051379 -->
<g id="node8" class="node">
<title>GO:0051379</title>
<polygon fill="#ffffff" stroke="#000000" points="1189.5479,-247.0019 1060.8133,-247.0019 1060.8133,-205.7981 1189.5479,-205.7981 1189.5479,-247.0019"/>
<text text-anchor="middle" x="1125.1806" y="-230.6" font-family="Times,serif" font-size="14.00" fill="#000000">GO:0051379</text>
<text text-anchor="middle" x="1125.1806" y="-213.8" font-family="Times,serif" font-size="14.00" fill="#000000">epinephrine binding</text>
</g>
<!-- GO:1901338 -->
<g id="node9" class="node">
<title>GO:1901338</title>
<polygon fill="#ffffff" stroke="#000000" points="1200.8119,-349.8019 1057.5493,-349.8019 1057.5493,-308.5981 1200.8119,-308.5981 1200.8119,-349.8019"/>
<text text-anchor="middle" x="1129.1806" y="-333.4" font-family="Times,serif" font-size="14.00" fill="#000000">GO:1901338</text>
<text text-anchor="middle" x="1129.1806" y="-316.6" font-family="Times,serif" font-size="14.00" fill="#000000">catecholamine binding</text>
</g>
<!-- GO:0051379&#45;&gt;GO:1901338 -->
<g id="edge7" class="edge">
<title>GO:0051379&#45;&gt;GO:1901338</title>
<path fill="none" stroke="#000000" d="M1125.9901,-247.2031C1126.5593,-261.8337 1127.331,-281.6642 1127.9728,-298.1586"/>
<polygon fill="#000000" stroke="#000000" points="1124.4861,-298.5715 1128.3723,-308.4278 1131.4808,-298.2993 1124.4861,-298.5715"/>
</g>
<!-- GO:0097159 -->
<g id="node10" class="node">
<title>GO:0097159</title>
<polygon fill="#ffffff" stroke="#000000" points="1207.692,-453.0014 1050.6692,-453.0014 1050.6692,-394.1986 1207.692,-394.1986 1207.692,-453.0014"/>
<text text-anchor="middle" x="1129.1806" y="-436.2" font-family="Times,serif" font-size="14.00" fill="#000000">GO:0097159</text>
<text text-anchor="middle" x="1129.1806" y="-419.4" font-family="Times,serif" font-size="14.00" fill="#000000">organic cyclic compound</text>
<text text-anchor="middle" x="1129.1806" y="-402.6" font-family="Times,serif" font-size="14.00" fill="#000000">binding</text>
</g>
<!-- GO:1901338&#45;&gt;GO:0097159 -->
<g id="edge8" class="edge">
<title>GO:1901338&#45;&gt;GO:0097159</title>
<path fill="none" stroke="#000000" d="M1129.1806,-350.1504C1129.1806,-360.1492 1129.1806,-372.4525 1129.1806,-384.1106"/>
<polygon fill="#000000" stroke="#000000" points="1125.6807,-384.1155 1129.1806,-394.1155 1132.6807,-384.1156 1125.6807,-384.1155"/>
</g>
<!-- GO:0097159&#45;&gt;GO:0005488 -->
<g id="edge9" class="edge">
<title>GO:0097159&#45;&gt;GO:0005488</title>
<path fill="none" stroke="#000000" d="M1074.4579,-452.9513C1050.7617,-465.6611 1023.2902,-480.3957 1000.4912,-492.6243"/>
<polygon fill="#000000" stroke="#000000" points="998.8368,-489.5399 991.6788,-497.351 1002.1455,-495.7086 998.8368,-489.5399"/>
</g>
<!-- GO:0031996 -->
<g id="node11" class="node">
<title>GO:0031996</title>
<polygon fill="#ffffff" stroke="#000000" points="128.5423,-247.0019 -.1811,-247.0019 -.1811,-205.7981 128.5423,-205.7981 128.5423,-247.0019"/>
<text text-anchor="middle" x="64.1806" y="-230.6" font-family="Times,serif" font-size="14.00" fill="#000000">GO:0031996</text>
<text text-anchor="middle" x="64.1806" y="-213.8" font-family="Times,serif" font-size="14.00" fill="#000000">thioesterase binding</text>
</g>
<!-- GO:0019899 -->
<g id="node12" class="node">
<title>GO:0019899</title>
<polygon fill="#ffffff" stroke="#000000" points="117.9964,-349.8019 12.3648,-349.8019 12.3648,-308.5981 117.9964,-308.5981 117.9964,-349.8019"/>
<text text-anchor="middle" x="65.1806" y="-333.4" font-family="Times,serif" font-size="14.00" fill="#000000">GO:0019899</text>
<text text-anchor="middle" x="65.1806" y="-316.6" font-family="Times,serif" font-size="14.00" fill="#000000">enzyme binding</text>
</g>
<!-- GO:0031996&#45;&gt;GO:0019899 -->
<g id="edge10" class="edge">
<title>GO:0031996&#45;&gt;GO:0019899</title>
<path fill="none" stroke="#000000" d="M64.383,-247.2031C64.5253,-261.8337 64.7182,-281.6642 64.8786,-298.1586"/>
<polygon fill="#000000" stroke="#000000" points="61.3813,-298.4624 64.9785,-308.4278 68.381,-298.3942 61.3813,-298.4624"/>
</g>
<!-- GO:0019899&#45;&gt;GO:0005515 -->
<g id="edge11" class="edge">
<title>GO:0019899&#45;&gt;GO:0005515</title>
<path fill="none" stroke="#000000" d="M105.54,-349.8979C112.9332,-353.1126 120.6843,-356.1182 128.1806,-358.4 249.4297,-395.3076 397.4547,-412.2245 478.9756,-419.2341"/>
<polygon fill="#000000" stroke="#000000" points="478.8057,-422.7321 489.0632,-420.08 479.3907,-415.7566 478.8057,-422.7321"/>
</g>
<!-- GO:0051380 -->
<g id="node13" class="node">
<title>GO:0051380</title>
<polygon fill="#ffffff" stroke="#000000" points="1354.708,-247.0019 1207.6532,-247.0019 1207.6532,-205.7981 1354.708,-205.7981 1354.708,-247.0019"/>
<text text-anchor="middle" x="1281.1806" y="-230.6" font-family="Times,serif" font-size="14.00" fill="#000000">GO:0051380</text>
<text text-anchor="middle" x="1281.1806" y="-213.8" font-family="Times,serif" font-size="14.00" fill="#000000">norepinephrine binding</text>
</g>
<!-- GO:0051380&#45;&gt;GO:1901338 -->
<g id="edge12" class="edge">
<title>GO:0051380&#45;&gt;GO:1901338</title>
<path fill="none" stroke="#000000" d="M1250.4211,-247.2031C1226.7282,-263.2271 1193.8122,-285.4887 1168.2553,-302.7731"/>
<polygon fill="#000000" stroke="#000000" points="1166.217,-299.9264 1159.8943,-308.4278 1170.1386,-305.7248 1166.217,-299.9264"/>
</g>
<!-- GO:0032795 -->
<g id="node14" class="node">
<title>GO:0032795</title>
<polygon fill="#ffffff" stroke="#000000" points="1034.8976,-255.8014 881.4636,-255.8014 881.4636,-196.9986 1034.8976,-196.9986 1034.8976,-255.8014"/>
<text text-anchor="middle" x="958.1806" y="-239" font-family="Times,serif" font-size="14.00" fill="#000000">GO:0032795</text>
<text text-anchor="middle" x="958.1806" y="-222.2" font-family="Times,serif" font-size="14.00" fill="#000000">heterotrimeric G&#45;protein</text>
<text text-anchor="middle" x="958.1806" y="-205.4" font-family="Times,serif" font-size="14.00" fill="#000000">binding</text>
</g>
<!-- GO:0032403 -->
<g id="node15" class="node">
<title>GO:0032403</title>
<polygon fill="#ffffff" stroke="#000000" points="1029.829,-349.8019 876.5322,-349.8019 876.5322,-308.5981 1029.829,-308.5981 1029.829,-349.8019"/>
<text text-anchor="middle" x="953.1806" y="-333.4" font-family="Times,serif" font-size="14.00" fill="#000000">GO:0032403</text>
<text text-anchor="middle" x="953.1806" y="-316.6" font-family="Times,serif" font-size="14.00" fill="#000000">protein complex binding</text>
</g>
<!-- GO:0032795&#45;&gt;GO:0032403 -->
<g id="edge13" class="edge">
<title>GO:0032795&#45;&gt;GO:0032403</title>
<path fill="none" stroke="#000000" d="M956.7478,-255.8584C956.1011,-269.1539 955.3372,-284.8608 954.6825,-298.3212"/>
<polygon fill="#000000" stroke="#000000" points="951.1752,-298.3874 954.1852,-308.5456 958.167,-298.7275 951.1752,-298.3874"/>
</g>
<!-- GO:0032403&#45;&gt;GO:0005515 -->
<g id="edge15" class="edge">
<title>GO:0032403&#45;&gt;GO:0005515</title>
<path fill="none" stroke="#000000" d="M876.4664,-346.7347C797.0398,-364.8893 674.5336,-392.8907 601.3701,-409.6138"/>
<polygon fill="#000000" stroke="#000000" points="600.3522,-406.2562 591.3835,-411.8965 601.912,-413.0802 600.3522,-406.2562"/>
</g>
<!-- GO:0044877 -->
<g id="node16" class="node">
<title>GO:0044877</title>
<polygon fill="#ffffff" stroke="#000000" points="1032.3479,-453.0014 874.0133,-453.0014 874.0133,-394.1986 1032.3479,-394.1986 1032.3479,-453.0014"/>
<text text-anchor="middle" x="953.1806" y="-436.2" font-family="Times,serif" font-size="14.00" fill="#000000">GO:0044877</text>
<text text-anchor="middle" x="953.1806" y="-419.4" font-family="Times,serif" font-size="14.00" fill="#000000">macromolecular complex</text>
<text text-anchor="middle" x="953.1806" y="-402.6" font-family="Times,serif" font-size="14.00" fill="#000000">binding</text>
</g>
<!-- GO:0032403&#45;&gt;GO:0044877 -->
<g id="edge14" class="edge">
<title>GO:0032403&#45;&gt;GO:0044877</title>
<path fill="none" stroke="#000000" d="M953.1806,-350.1504C953.1806,-360.1492 953.1806,-372.4525 953.1806,-384.1106"/>
<polygon fill="#000000" stroke="#000000" points="949.6807,-384.1155 953.1806,-394.1155 956.6807,-384.1156 949.6807,-384.1155"/>
</g>
<!-- GO:0044877&#45;&gt;GO:0005488 -->
<g id="edge16" class="edge">
<title>GO:0044877&#45;&gt;GO:0005488</title>
<path fill="none" stroke="#000000" d="M953.1806,-452.9513C953.1806,-463.8614 953.1806,-476.2637 953.1806,-487.292"/>
<polygon fill="#000000" stroke="#000000" points="949.6807,-487.3509 953.1806,-497.351 956.6807,-487.351 949.6807,-487.3509"/>
</g>
<!-- GO:0004935 -->
<g id="node17" class="node">
<title>GO:0004935</title>
<polygon fill="#ffffff" stroke="#000000" points="1498.6071,-58.6014 1373.7541,-58.6014 1373.7541,.2014 1498.6071,.2014 1498.6071,-58.6014"/>
<text text-anchor="middle" x="1436.1806" y="-41.8" font-family="Times,serif" font-size="14.00" fill="#000000">GO:0004935</text>
<text text-anchor="middle" x="1436.1806" y="-25" font-family="Times,serif" font-size="14.00" fill="#000000">adrenergic receptor</text>
<text text-anchor="middle" x="1436.1806" y="-8.2" font-family="Times,serif" font-size="14.00" fill="#000000">activity</text>
</g>
<!-- GO:0008227 -->
<g id="node18" class="node">
<title>GO:0008227</title>
<polygon fill="#ffffff" stroke="#000000" points="1514.1344,-153.0014 1358.2268,-153.0014 1358.2268,-94.1986 1514.1344,-94.1986 1514.1344,-153.0014"/>
<text text-anchor="middle" x="1436.1806" y="-136.2" font-family="Times,serif" font-size="14.00" fill="#000000">GO:0008227</text>
<text text-anchor="middle" x="1436.1806" y="-119.4" font-family="Times,serif" font-size="14.00" fill="#000000">G&#45;protein coupled amine</text>
<text text-anchor="middle" x="1436.1806" y="-102.6" font-family="Times,serif" font-size="14.00" fill="#000000">receptor activity</text>
</g>
<!-- GO:0004935&#45;&gt;GO:0008227 -->
<g id="edge17" class="edge">
<title>GO:0004935&#45;&gt;GO:0008227</title>
<path fill="none" stroke="#000000" d="M1436.1806,-58.5513C1436.1806,-66.6318 1436.1806,-75.5308 1436.1806,-84.0838"/>
<polygon fill="#000000" stroke="#000000" points="1432.6807,-84.2668 1436.1806,-94.2669 1439.6807,-84.2669 1432.6807,-84.2668"/>
</g>
<!-- GO:0004930 -->
<g id="node19" class="node">
<title>GO:0004930</title>
<polygon fill="#ffffff" stroke="#000000" points="1495.4243,-255.8014 1376.9369,-255.8014 1376.9369,-196.9986 1495.4243,-196.9986 1495.4243,-255.8014"/>
<text text-anchor="middle" x="1436.1806" y="-239" font-family="Times,serif" font-size="14.00" fill="#000000">GO:0004930</text>
<text text-anchor="middle" x="1436.1806" y="-222.2" font-family="Times,serif" font-size="14.00" fill="#000000">G&#45;protein coupled</text>
<text text-anchor="middle" x="1436.1806" y="-205.4" font-family="Times,serif" font-size="14.00" fill="#000000">receptor activity</text>
</g>
<!-- GO:0008227&#45;&gt;GO:0004930 -->
<g id="edge18" class="edge">
<title>GO:0008227&#45;&gt;GO:0004930</title>
<path fill="none" stroke="#000000" d="M1436.1806,-153.0584C1436.1806,-163.5969 1436.1806,-175.6505 1436.1806,-186.8994"/>
<polygon fill="#000000" stroke="#000000" points="1432.6807,-186.9373 1436.1806,-196.9373 1439.6807,-186.9374 1432.6807,-186.9373"/>
</g>
<!-- GO:0004888 -->
<g id="node20" class="node">
<title>GO:0004888</title>
<polygon fill="#ffffff" stroke="#000000" points="1514.8077,-358.6014 1357.5535,-358.6014 1357.5535,-299.7986 1514.8077,-299.7986 1514.8077,-358.6014"/>
<text text-anchor="middle" x="1436.1806" y="-341.8" font-family="Times,serif" font-size="14.00" fill="#000000">GO:0004888</text>
<text text-anchor="middle" x="1436.1806" y="-325" font-family="Times,serif" font-size="14.00" fill="#000000">transmembrane signaling</text>
<text text-anchor="middle" x="1436.1806" y="-308.2" font-family="Times,serif" font-size="14.00" fill="#000000">receptor activity</text>
</g>
<!-- GO:0004930&#45;&gt;GO:0004888 -->
<g id="edge19" class="edge">
<title>GO:0004930&#45;&gt;GO:0004888</title>
<path fill="none" stroke="#000000" d="M1436.1806,-255.8584C1436.1806,-266.3969 1436.1806,-278.4505 1436.1806,-289.6994"/>
<polygon fill="#000000" stroke="#000000" points="1432.6807,-289.7373 1436.1806,-299.7373 1439.6807,-289.7374 1432.6807,-289.7373"/>
</g>
<!-- GO:0038023 -->
<g id="node21" class="node">
<title>GO:0038023</title>
<polygon fill="#ffffff" stroke="#000000" points="1342.3676,-453.0014 1225.9936,-453.0014 1225.9936,-394.1986 1342.3676,-394.1986 1342.3676,-453.0014"/>
<text text-anchor="middle" x="1284.1806" y="-436.2" font-family="Times,serif" font-size="14.00" fill="#000000">GO:0038023</text>
<text text-anchor="middle" x="1284.1806" y="-419.4" font-family="Times,serif" font-size="14.00" fill="#000000">signaling receptor</text>
<text text-anchor="middle" x="1284.1806" y="-402.6" font-family="Times,serif" font-size="14.00" fill="#000000">activity</text>
</g>
<!-- GO:0004888&#45;&gt;GO:0038023 -->
<g id="edge20" class="edge">
<title>GO:0004888&#45;&gt;GO:0038023</title>
<path fill="none" stroke="#000000" d="M1388.9201,-358.5513C1373.4785,-368.1413 1356.1806,-378.8842 1340.1606,-388.8335"/>
<polygon fill="#000000" stroke="#000000" points="1338.0604,-386.0177 1331.4119,-394.2669 1341.7535,-391.9642 1338.0604,-386.0177"/>
</g>
<!-- GO:0099600 -->
<g id="node22" class="node">
<title>GO:0099600</title>
<polygon fill="#ffffff" stroke="#000000" points="1511.8326,-453.0014 1360.5286,-453.0014 1360.5286,-394.1986 1511.8326,-394.1986 1511.8326,-453.0014"/>
<text text-anchor="middle" x="1436.1806" y="-436.2" font-family="Times,serif" font-size="14.00" fill="#000000">GO:0099600</text>
<text text-anchor="middle" x="1436.1806" y="-419.4" font-family="Times,serif" font-size="14.00" fill="#000000">transmembrane receptor</text>
<text text-anchor="middle" x="1436.1806" y="-402.6" font-family="Times,serif" font-size="14.00" fill="#000000">activity</text>
</g>
<!-- GO:0004888&#45;&gt;GO:0099600 -->
<g id="edge21" class="edge">
<title>GO:0004888&#45;&gt;GO:0099600</title>
<path fill="none" stroke="#000000" d="M1436.1806,-358.5513C1436.1806,-366.6318 1436.1806,-375.5308 1436.1806,-384.0838"/>
<polygon fill="#000000" stroke="#000000" points="1432.6807,-384.2668 1436.1806,-394.2669 1439.6807,-384.2669 1432.6807,-384.2668"/>
</g>
<!-- GO:0004872 -->
<g id="node23" class="node">
<title>GO:0004872</title>
<polygon fill="#ffffff" stroke="#000000" points="1414.0284,-538.6019 1306.3328,-538.6019 1306.3328,-497.3981 1414.0284,-497.3981 1414.0284,-538.6019"/>
<text text-anchor="middle" x="1360.1806" y="-522.2" font-family="Times,serif" font-size="14.00" fill="#000000">GO:0004872</text>
<text text-anchor="middle" x="1360.1806" y="-505.4" font-family="Times,serif" font-size="14.00" fill="#000000">receptor activity</text>
</g>
<!-- GO:0038023&#45;&gt;GO:0004872 -->
<g id="edge22" class="edge">
<title>GO:0038023&#45;&gt;GO:0004872</title>
<path fill="none" stroke="#000000" d="M1307.8109,-452.9513C1317.1378,-464.5363 1327.8192,-477.8037 1337.0924,-489.322"/>
<polygon fill="#000000" stroke="#000000" points="1334.559,-491.7565 1343.5564,-497.351 1340.0116,-487.3667 1334.559,-491.7565"/>
</g>
<!-- GO:0004871 -->
<g id="node24" class="node">
<title>GO:0004871</title>
<polygon fill="#ffffff" stroke="#000000" points="1245.9215,-547.4014 1134.4397,-547.4014 1134.4397,-488.5986 1245.9215,-488.5986 1245.9215,-547.4014"/>
<text text-anchor="middle" x="1190.1806" y="-530.6" font-family="Times,serif" font-size="14.00" fill="#000000">GO:0004871</text>
<text text-anchor="middle" x="1190.1806" y="-513.8" font-family="Times,serif" font-size="14.00" fill="#000000">signal transducer</text>
<text text-anchor="middle" x="1190.1806" y="-497" font-family="Times,serif" font-size="14.00" fill="#000000">activity</text>
</g>
<!-- GO:0038023&#45;&gt;GO:0004871 -->
<g id="edge23" class="edge">
<title>GO:0038023&#45;&gt;GO:0004871</title>
<path fill="none" stroke="#000000" d="M1254.9537,-452.9513C1245.9348,-462.0086 1235.892,-472.0941 1226.458,-481.5683"/>
<polygon fill="#000000" stroke="#000000" points="1223.9654,-479.1111 1219.3894,-488.6669 1228.9256,-484.0504 1223.9654,-479.1111"/>
</g>
<!-- GO:0099600&#45;&gt;GO:0004872 -->
<g id="edge24" class="edge">
<title>GO:0099600&#45;&gt;GO:0004872</title>
<path fill="none" stroke="#000000" d="M1412.5503,-452.9513C1403.2234,-464.5363 1392.542,-477.8037 1383.2688,-489.322"/>
<polygon fill="#000000" stroke="#000000" points="1380.3496,-487.3667 1376.8048,-497.351 1385.8022,-491.7565 1380.3496,-487.3667"/>
</g>
<!-- GO:0060089 -->
<g id="node25" class="node">
<title>GO:0060089</title>
<polygon fill="#ffffff" stroke="#000000" points="1426.9572,-641.8014 1293.404,-641.8014 1293.404,-582.9986 1426.9572,-582.9986 1426.9572,-641.8014"/>
<text text-anchor="middle" x="1360.1806" y="-625" font-family="Times,serif" font-size="14.00" fill="#000000">GO:0060089</text>
<text text-anchor="middle" x="1360.1806" y="-608.2" font-family="Times,serif" font-size="14.00" fill="#000000">molecular transducer</text>
<text text-anchor="middle" x="1360.1806" y="-591.4" font-family="Times,serif" font-size="14.00" fill="#000000">activity</text>
</g>
<!-- GO:0004872&#45;&gt;GO:0060089 -->
<g id="edge25" class="edge">
<title>GO:0004872&#45;&gt;GO:0060089</title>
<path fill="none" stroke="#000000" d="M1360.1806,-538.9504C1360.1806,-548.9492 1360.1806,-561.2525 1360.1806,-572.9106"/>
<polygon fill="#000000" stroke="#000000" points="1356.6807,-572.9155 1360.1806,-582.9155 1363.6807,-572.9156 1356.6807,-572.9155"/>
</g>
<!-- GO:0004871&#45;&gt;GO:0003674 -->
<g id="edge26" class="edge">
<title>GO:0004871&#45;&gt;GO:0003674</title>
<path fill="none" stroke="#000000" d="M1168.7268,-547.3513C1160.3412,-558.8238 1150.7496,-571.9462 1142.3878,-583.3861"/>
<polygon fill="#000000" stroke="#000000" points="1139.349,-581.6123 1136.2736,-591.751 1145.0003,-585.7431 1139.349,-581.6123"/>
</g>
<!-- GO:0030165 -->
<g id="node26" class="node">
<title>GO:0030165</title>
<polygon fill="#ffffff" stroke="#000000" points="280.3996,-247.0019 145.9616,-247.0019 145.9616,-205.7981 280.3996,-205.7981 280.3996,-247.0019"/>
<text text-anchor="middle" x="213.1806" y="-230.6" font-family="Times,serif" font-size="14.00" fill="#000000">GO:0030165</text>
<text text-anchor="middle" x="213.1806" y="-213.8" font-family="Times,serif" font-size="14.00" fill="#000000">PDZ domain binding</text>
</g>
<!-- GO:0019904 -->
<g id="node27" class="node">
<title>GO:0019904</title>
<polygon fill="#ffffff" stroke="#000000" points="285.3631,-358.6014 136.9981,-358.6014 136.9981,-299.7986 285.3631,-299.7986 285.3631,-358.6014"/>
<text text-anchor="middle" x="211.1806" y="-341.8" font-family="Times,serif" font-size="14.00" fill="#000000">GO:0019904</text>
<text text-anchor="middle" x="211.1806" y="-325" font-family="Times,serif" font-size="14.00" fill="#000000">protein domain specific</text>
<text text-anchor="middle" x="211.1806" y="-308.2" font-family="Times,serif" font-size="14.00" fill="#000000">binding</text>
</g>
<!-- GO:0030165&#45;&gt;GO:0019904 -->
<g id="edge27" class="edge">
<title>GO:0030165&#45;&gt;GO:0019904</title>
<path fill="none" stroke="#000000" d="M212.7759,-247.2031C212.5389,-259.3833 212.2318,-275.1676 211.9504,-289.6305"/>
<polygon fill="#000000" stroke="#000000" points="208.4467,-289.7915 211.7515,-299.8577 215.4454,-289.9277 208.4467,-289.7915"/>
</g>
<!-- GO:0019904&#45;&gt;GO:0005515 -->
<g id="edge28" class="edge">
<title>GO:0019904&#45;&gt;GO:0005515</title>
<path fill="none" stroke="#000000" d="M285.2957,-355.6011C288.2906,-356.5642 291.2608,-357.501 294.1806,-358.4 356.5986,-377.6182 428.9517,-396.3806 478.9565,-408.8062"/>
<polygon fill="#000000" stroke="#000000" points="478.4148,-412.2776 488.9627,-411.2822 480.0962,-405.4826 478.4148,-412.2776"/>
</g>
<!-- GO:0046982 -->
<g id="node28" class="node">
<title>GO:0046982</title>
<polygon fill="#ffffff" stroke="#000000" points="600.9187,-264.1003 479.4425,-264.1003 479.4425,-188.6997 600.9187,-188.6997 600.9187,-264.1003"/>
<text text-anchor="middle" x="540.1806" y="-247.4" font-family="Times,serif" font-size="14.00" fill="#000000">GO:0046982</text>
<text text-anchor="middle" x="540.1806" y="-230.6" font-family="Times,serif" font-size="14.00" fill="#000000">protein</text>
<text text-anchor="middle" x="540.1806" y="-213.8" font-family="Times,serif" font-size="14.00" fill="#000000">heterodimerization</text>
<text text-anchor="middle" x="540.1806" y="-197" font-family="Times,serif" font-size="14.00" fill="#000000">activity</text>
</g>
<!-- GO:0046983 -->
<g id="node29" class="node">
<title>GO:0046983</title>
<polygon fill="#ffffff" stroke="#000000" points="605.0944,-358.6014 475.2668,-358.6014 475.2668,-299.7986 605.0944,-299.7986 605.0944,-358.6014"/>
<text text-anchor="middle" x="540.1806" y="-341.8" font-family="Times,serif" font-size="14.00" fill="#000000">GO:0046983</text>
<text text-anchor="middle" x="540.1806" y="-325" font-family="Times,serif" font-size="14.00" fill="#000000">protein dimerization</text>
<text text-anchor="middle" x="540.1806" y="-308.2" font-family="Times,serif" font-size="14.00" fill="#000000">activity</text>
</g>
<!-- GO:0046982&#45;&gt;GO:0046983 -->
<g id="edge29" class="edge">
<title>GO:0046982&#45;&gt;GO:0046983</title>
<path fill="none" stroke="#000000" d="M540.1806,-264.0952C540.1806,-272.4874 540.1806,-281.4054 540.1806,-289.8618"/>
<polygon fill="#000000" stroke="#000000" points="536.6807,-289.8813 540.1806,-299.8814 543.6807,-289.8814 536.6807,-289.8813"/>
</g>
<!-- GO:0046983&#45;&gt;GO:0005515 -->
<g id="edge30" class="edge">
<title>GO:0046983&#45;&gt;GO:0005515</title>
<path fill="none" stroke="#000000" d="M540.1806,-358.5513C540.1806,-369.4614 540.1806,-381.8637 540.1806,-392.892"/>
<polygon fill="#000000" stroke="#000000" points="536.6807,-392.9509 540.1806,-402.951 543.6807,-392.951 536.6807,-392.9509"/>
</g>
<!-- GO:0046789 -->
<g id="node30" class="node">
<title>GO:0046789</title>
<polygon fill="#ffffff" stroke="#000000" points="863.3175,-255.8014 755.0437,-255.8014 755.0437,-196.9986 863.3175,-196.9986 863.3175,-255.8014"/>
<text text-anchor="middle" x="809.1806" y="-239" font-family="Times,serif" font-size="14.00" fill="#000000">GO:0046789</text>
<text text-anchor="middle" x="809.1806" y="-222.2" font-family="Times,serif" font-size="14.00" fill="#000000">host cell surface</text>
<text text-anchor="middle" x="809.1806" y="-205.4" font-family="Times,serif" font-size="14.00" fill="#000000">receptor binding</text>
</g>
<!-- GO:0046789&#45;&gt;GO:0005102 -->
<g id="edge31" class="edge">
<title>GO:0046789&#45;&gt;GO:0005102</title>
<path fill="none" stroke="#000000" d="M771.6413,-255.8584C753.0209,-270.4703 730.6893,-287.9947 712.525,-302.2488"/>
<polygon fill="#000000" stroke="#000000" points="710.2071,-299.6187 704.5009,-308.5456 714.5285,-305.1256 710.2071,-299.6187"/>
</g>
<!-- GO:0046812 -->
<g id="node31" class="node">
<title>GO:0046812</title>
<polygon fill="#ffffff" stroke="#000000" points="855.9172,-444.2019 702.444,-444.2019 702.444,-402.9981 855.9172,-402.9981 855.9172,-444.2019"/>
<text text-anchor="middle" x="779.1806" y="-427.8" font-family="Times,serif" font-size="14.00" fill="#000000">GO:0046812</text>
<text text-anchor="middle" x="779.1806" y="-411" font-family="Times,serif" font-size="14.00" fill="#000000">host cell surface binding</text>
</g>
<!-- GO:0046789&#45;&gt;GO:0046812 -->
<g id="edge32" class="edge">
<title>GO:0046789&#45;&gt;GO:0046812</title>
<path fill="none" stroke="#000000" d="M804.6893,-255.9228C799.0955,-292.6928 789.5833,-355.2193 783.8899,-392.6441"/>
<polygon fill="#000000" stroke="#000000" points="780.3668,-392.5316 782.323,-402.9442 787.2872,-393.5844 780.3668,-392.5316"/>
</g>
<!-- GO:0046812&#45;&gt;GO:0005488 -->
<g id="edge33" class="edge">
<title>GO:0046812&#45;&gt;GO:0005488</title>
<path fill="none" stroke="#000000" d="M817.3656,-444.3165C843.4304,-458.4574 878.138,-477.2872 905.9424,-492.3719"/>
<polygon fill="#000000" stroke="#000000" points="904.6258,-495.6395 915.0846,-497.3318 907.9639,-489.4867 904.6258,-495.6395"/>
</g>
<!-- GO:0042803 -->
<g id="node32" class="node">
<title>GO:0042803</title>
<polygon fill="#ffffff" stroke="#000000" points="460.9851,-255.8014 299.3761,-255.8014 299.3761,-196.9986 460.9851,-196.9986 460.9851,-255.8014"/>
<text text-anchor="middle" x="380.1806" y="-239" font-family="Times,serif" font-size="14.00" fill="#000000">GO:0042803</text>
<text text-anchor="middle" x="380.1806" y="-222.2" font-family="Times,serif" font-size="14.00" fill="#000000">protein homodimerization</text>
<text text-anchor="middle" x="380.1806" y="-205.4" font-family="Times,serif" font-size="14.00" fill="#000000">activity</text>
</g>
<!-- GO:0042803&#45;&gt;GO:0046983 -->
<g id="edge34" class="edge">
<title>GO:0042803&#45;&gt;GO:0046983</title>
<path fill="none" stroke="#000000" d="M426.0302,-255.8584C444.7726,-267.9004 466.5936,-281.9204 486.1072,-294.4578"/>
<polygon fill="#000000" stroke="#000000" points="484.2961,-297.4543 494.6011,-299.9152 488.0799,-291.5651 484.2961,-297.4543"/>
</g>
<!-- GO:0042802 -->
<g id="node33" class="node">
<title>GO:0042802</title>
<polygon fill="#ffffff" stroke="#000000" points="456.8248,-349.8019 303.5364,-349.8019 303.5364,-308.5981 456.8248,-308.5981 456.8248,-349.8019"/>
<text text-anchor="middle" x="380.1806" y="-333.4" font-family="Times,serif" font-size="14.00" fill="#000000">GO:0042802</text>
<text text-anchor="middle" x="380.1806" y="-316.6" font-family="Times,serif" font-size="14.00" fill="#000000">identical protein binding</text>
</g>
<!-- GO:0042803&#45;&gt;GO:0042802 -->
<g id="edge35" class="edge">
<title>GO:0042803&#45;&gt;GO:0042802</title>
<path fill="none" stroke="#000000" d="M380.1806,-255.8584C380.1806,-269.1539 380.1806,-284.8608 380.1806,-298.3212"/>
<polygon fill="#000000" stroke="#000000" points="376.6807,-298.5456 380.1806,-308.5456 383.6807,-298.5457 376.6807,-298.5456"/>
</g>
<!-- GO:0042802&#45;&gt;GO:0005515 -->
<g id="edge36" class="edge">
<title>GO:0042802&#45;&gt;GO:0005515</title>
<path fill="none" stroke="#000000" d="M415.2933,-349.9165C439.1566,-363.9959 470.8985,-382.7236 496.4093,-397.775"/>
<polygon fill="#000000" stroke="#000000" points="494.7586,-400.8648 505.1498,-402.9318 498.3157,-394.8359 494.7586,-400.8648"/>
</g>
</g>
</svg>
