<?xml version="1.0" encoding="UTF-8" standalone="no"?>
<!DOCTYPE svg PUBLIC "-//W3C//DTD SVG 1.1//EN"
 "http://www.w3.org/Graphics/SVG/1.1/DTD/svg11.dtd">
<!-- Generated by graphviz version 2.40.1 (20161225.0304)
 -->
<!-- Title: G Pages: 1 -->
<svg width="964pt" height="899pt"
 viewBox="0.00 0.00 964.32 899.20" xmlns="http://www.w3.org/2000/svg" xmlns:xlink="http://www.w3.org/1999/xlink">
<g id="graph0" class="graph" transform="scale(1 1) rotate(0) translate(4 895.2)">
<title>G</title>
<polygon fill="#ffffff" stroke="transparent" points="-4,4 -4,-895.2 960.323,-895.2 960.323,4 -4,4"/>
<!-- GO:0085030 -->
<g id="node1" class="node">
<title>GO:0085030</title>
<polygon fill="#ffffff" stroke="#000000" points="123.7638,-521.8019 34.556,-521.8019 34.556,-480.5981 123.7638,-480.5981 123.7638,-521.8019"/>
<text text-anchor="middle" x="79.1599" y="-505.4" font-family="Times,serif" font-size="14.00" fill="#000000">GO:0085030</text>
<text text-anchor="middle" x="79.1599" y="-488.6" font-family="Times,serif" font-size="14.00" fill="#000000">mutualism</text>
</g>
<!-- GO:0044403 -->
<g id="node2" class="node">
<title>GO:0044403</title>
<polygon fill="#ffffff" stroke="#000000" points="158.48,-641.7003 -.1602,-641.7003 -.1602,-566.2997 158.48,-566.2997 158.48,-641.7003"/>
<text text-anchor="middle" x="79.1599" y="-625" font-family="Times,serif" font-size="14.00" fill="#000000">GO:0044403</text>
<text text-anchor="middle" x="79.1599" y="-608.2" font-family="Times,serif" font-size="14.00" fill="#000000">symbiosis, encompassing</text>
<text text-anchor="middle" x="79.1599" y="-591.4" font-family="Times,serif" font-size="14.00" fill="#000000">mutualism through</text>
<text text-anchor="middle" x="79.1599" y="-574.6" font-family="Times,serif" font-size="14.00" fill="#000000">parasitism</text>
</g>
<!-- GO:0085030&#45;&gt;GO:0044403 -->
<g id="edge1" class="edge">
<title>GO:0085030&#45;&gt;GO:0044403</title>
<path fill="none" stroke="#000000" d="M79.1599,-522.0031C79.1599,-531.8045 79.1599,-543.9396 79.1599,-555.842"/>
<polygon fill="#000000" stroke="#000000" points="75.66,-556.1772 79.1599,-566.1773 82.66,-556.1773 75.66,-556.1772"/>
</g>
<!-- GO:0044419 -->
<g id="node3" class="node">
<title>GO:0044419</title>
<polygon fill="#ffffff" stroke="#000000" points="158.1074,-736.2014 12.2124,-736.2014 12.2124,-677.3986 158.1074,-677.3986 158.1074,-736.2014"/>
<text text-anchor="middle" x="85.1599" y="-719.4" font-family="Times,serif" font-size="14.00" fill="#000000">GO:0044419</text>
<text text-anchor="middle" x="85.1599" y="-702.6" font-family="Times,serif" font-size="14.00" fill="#000000">interspecies interaction</text>
<text text-anchor="middle" x="85.1599" y="-685.8" font-family="Times,serif" font-size="14.00" fill="#000000">between organisms</text>
</g>
<!-- GO:0044403&#45;&gt;GO:0044419 -->
<g id="edge2" class="edge">
<title>GO:0044403&#45;&gt;GO:0044419</title>
<path fill="none" stroke="#000000" d="M81.36,-641.6952C81.8498,-650.0874 82.3703,-659.0054 82.8639,-667.4618"/>
<polygon fill="#000000" stroke="#000000" points="79.3719,-667.7023 83.4487,-677.4814 86.36,-667.2944 79.3719,-667.7023"/>
</g>
<!-- GO:0051704 -->
<g id="node4" class="node">
<title>GO:0051704</title>
<polygon fill="#ffffff" stroke="#000000" points="161.963,-813.4019 14.3568,-813.4019 14.3568,-772.1981 161.963,-772.1981 161.963,-813.4019"/>
<text text-anchor="middle" x="88.1599" y="-797" font-family="Times,serif" font-size="14.00" fill="#000000">GO:0051704</text>
<text text-anchor="middle" x="88.1599" y="-780.2" font-family="Times,serif" font-size="14.00" fill="#000000">multi&#45;organism process</text>
</g>
<!-- GO:0044419&#45;&gt;GO:0051704 -->
<g id="edge3" class="edge">
<title>GO:0044419&#45;&gt;GO:0051704</title>
<path fill="none" stroke="#000000" d="M86.1923,-736.3963C86.4807,-744.6638 86.7948,-753.6657 87.0855,-762.0008"/>
<polygon fill="#000000" stroke="#000000" points="83.5911,-762.2247 87.4377,-772.0966 90.5868,-761.9806 83.5911,-762.2247"/>
</g>
<!-- GO:0008150 -->
<g id="node5" class="node">
<title>GO:0008150</title>
<polygon fill="#ffffff" stroke="#000000" points="295.6305,-891.0019 174.6893,-891.0019 174.6893,-849.7981 295.6305,-849.7981 295.6305,-891.0019"/>
<text text-anchor="middle" x="235.1599" y="-874.6" font-family="Times,serif" font-size="14.00" fill="#000000">GO:0008150</text>
<text text-anchor="middle" x="235.1599" y="-857.8" font-family="Times,serif" font-size="14.00" fill="#000000">biological_process</text>
</g>
<!-- GO:0051704&#45;&gt;GO:0008150 -->
<g id="edge4" class="edge">
<title>GO:0051704&#45;&gt;GO:0008150</title>
<path fill="none" stroke="#000000" d="M127.5532,-813.5954C145.8343,-823.2458 167.7324,-834.8056 186.988,-844.9705"/>
<polygon fill="#000000" stroke="#000000" points="185.4356,-848.1087 195.913,-849.6819 188.7035,-841.9183 185.4356,-848.1087"/>
</g>
<!-- GO:2000899 -->
<g id="node6" class="node">
<title>GO:2000899</title>
<polygon fill="#ffffff" stroke="#000000" points="682.4007,-58.6014 549.9191,-58.6014 549.9191,.2014 682.4007,.2014 682.4007,-58.6014"/>
<text text-anchor="middle" x="616.1599" y="-41.8" font-family="Times,serif" font-size="14.00" fill="#000000">GO:2000899</text>
<text text-anchor="middle" x="616.1599" y="-25" font-family="Times,serif" font-size="14.00" fill="#000000">xyloglucan catabolic</text>
<text text-anchor="middle" x="616.1599" y="-8.2" font-family="Times,serif" font-size="14.00" fill="#000000">process</text>
</g>
<!-- GO:0009251 -->
<g id="node7" class="node">
<title>GO:0009251</title>
<polygon fill="#ffffff" stroke="#000000" points="796.489,-333.0019 643.8308,-333.0019 643.8308,-291.7981 796.489,-291.7981 796.489,-333.0019"/>
<text text-anchor="middle" x="720.1599" y="-316.6" font-family="Times,serif" font-size="14.00" fill="#000000">GO:0009251</text>
<text text-anchor="middle" x="720.1599" y="-299.8" font-family="Times,serif" font-size="14.00" fill="#000000">glucan catabolic process</text>
</g>
<!-- GO:2000899&#45;&gt;GO:0009251 -->
<g id="edge5" class="edge">
<title>GO:2000899&#45;&gt;GO:0009251</title>
<path fill="none" stroke="#000000" d="M666.916,-58.6412C679.4739,-68.4031 691.5102,-80.4134 699.1599,-94.4 731.8592,-154.1869 729.0663,-237.1086 724.4498,-281.4692"/>
<polygon fill="#000000" stroke="#000000" points="720.9478,-281.2884 723.2896,-291.6211 727.9025,-282.0833 720.9478,-281.2884"/>
</g>
<!-- GO:2000895 -->
<g id="node8" class="node">
<title>GO:2000895</title>
<polygon fill="#ffffff" stroke="#000000" points="689.9463,-153.0014 542.3735,-153.0014 542.3735,-94.1986 689.9463,-94.1986 689.9463,-153.0014"/>
<text text-anchor="middle" x="616.1599" y="-136.2" font-family="Times,serif" font-size="14.00" fill="#000000">GO:2000895</text>
<text text-anchor="middle" x="616.1599" y="-119.4" font-family="Times,serif" font-size="14.00" fill="#000000">hemicellulose catabolic</text>
<text text-anchor="middle" x="616.1599" y="-102.6" font-family="Times,serif" font-size="14.00" fill="#000000">process</text>
</g>
<!-- GO:2000899&#45;&gt;GO:2000895 -->
<g id="edge6" class="edge">
<title>GO:2000899&#45;&gt;GO:2000895</title>
<path fill="none" stroke="#000000" d="M616.1599,-58.5513C616.1599,-66.6318 616.1599,-75.5308 616.1599,-84.0838"/>
<polygon fill="#000000" stroke="#000000" points="612.66,-84.2668 616.1599,-94.2669 619.66,-84.2669 612.66,-84.2668"/>
</g>
<!-- GO:0010411 -->
<g id="node9" class="node">
<title>GO:0010411</title>
<polygon fill="#ffffff" stroke="#000000" points="524.5765,-153.0014 387.7433,-153.0014 387.7433,-94.1986 524.5765,-94.1986 524.5765,-153.0014"/>
<text text-anchor="middle" x="456.1599" y="-136.2" font-family="Times,serif" font-size="14.00" fill="#000000">GO:0010411</text>
<text text-anchor="middle" x="456.1599" y="-119.4" font-family="Times,serif" font-size="14.00" fill="#000000">xyloglucan metabolic</text>
<text text-anchor="middle" x="456.1599" y="-102.6" font-family="Times,serif" font-size="14.00" fill="#000000">process</text>
</g>
<!-- GO:2000899&#45;&gt;GO:0010411 -->
<g id="edge7" class="edge">
<title>GO:2000899&#45;&gt;GO:0010411</title>
<path fill="none" stroke="#000000" d="M566.412,-58.5513C550.0071,-68.2301 531.612,-79.0833 514.6181,-89.1097"/>
<polygon fill="#000000" stroke="#000000" points="512.7112,-86.1709 505.8771,-94.2669 516.2683,-92.1998 512.7112,-86.1709"/>
</g>
<!-- GO:0044042 -->
<g id="node10" class="node">
<title>GO:0044042</title>
<polygon fill="#ffffff" stroke="#000000" points="669.6657,-427.4019 512.6541,-427.4019 512.6541,-386.1981 669.6657,-386.1981 669.6657,-427.4019"/>
<text text-anchor="middle" x="591.1599" y="-411" font-family="Times,serif" font-size="14.00" fill="#000000">GO:0044042</text>
<text text-anchor="middle" x="591.1599" y="-394.2" font-family="Times,serif" font-size="14.00" fill="#000000">glucan metabolic process</text>
</g>
<!-- GO:0009251&#45;&gt;GO:0044042 -->
<g id="edge8" class="edge">
<title>GO:0009251&#45;&gt;GO:0044042</title>
<path fill="none" stroke="#000000" d="M691.8503,-333.1165C672.9465,-346.9499 647.9107,-365.2708 627.5328,-380.1829"/>
<polygon fill="#000000" stroke="#000000" points="625.4066,-377.4018 619.4035,-386.1318 629.5404,-383.0508 625.4066,-377.4018"/>
</g>
<!-- GO:0000272 -->
<g id="node11" class="node">
<title>GO:0000272</title>
<polygon fill="#ffffff" stroke="#000000" points="842.1495,-436.2014 688.1703,-436.2014 688.1703,-377.3986 842.1495,-377.3986 842.1495,-436.2014"/>
<text text-anchor="middle" x="765.1599" y="-419.4" font-family="Times,serif" font-size="14.00" fill="#000000">GO:0000272</text>
<text text-anchor="middle" x="765.1599" y="-402.6" font-family="Times,serif" font-size="14.00" fill="#000000">polysaccharide catabolic</text>
<text text-anchor="middle" x="765.1599" y="-385.8" font-family="Times,serif" font-size="14.00" fill="#000000">process</text>
</g>
<!-- GO:0009251&#45;&gt;GO:0000272 -->
<g id="edge9" class="edge">
<title>GO:0009251&#45;&gt;GO:0000272</title>
<path fill="none" stroke="#000000" d="M730.1469,-333.3504C735.0095,-343.5512 741.0155,-356.1505 746.6719,-368.0164"/>
<polygon fill="#000000" stroke="#000000" points="743.6423,-369.7948 751.1048,-377.3155 749.9611,-366.7826 743.6423,-369.7948"/>
</g>
<!-- GO:2000895&#45;&gt;GO:0000272 -->
<g id="edge11" class="edge">
<title>GO:2000895&#45;&gt;GO:0000272</title>
<path fill="none" stroke="#000000" d="M610.3286,-153.0061C603.1417,-197.8709 596.2162,-284.2375 635.1599,-341.6 641.7974,-351.3767 660.9609,-362.7207 682.6031,-373.1787"/>
<polygon fill="#000000" stroke="#000000" points="681.1252,-376.3513 691.6635,-377.4444 684.107,-370.0181 681.1252,-376.3513"/>
</g>
<!-- GO:0010410 -->
<g id="node12" class="node">
<title>GO:0010410</title>
<polygon fill="#ffffff" stroke="#000000" points="560.6228,-247.4014 407.697,-247.4014 407.697,-188.5986 560.6228,-188.5986 560.6228,-247.4014"/>
<text text-anchor="middle" x="484.1599" y="-230.6" font-family="Times,serif" font-size="14.00" fill="#000000">GO:0010410</text>
<text text-anchor="middle" x="484.1599" y="-213.8" font-family="Times,serif" font-size="14.00" fill="#000000">hemicellulose metabolic</text>
<text text-anchor="middle" x="484.1599" y="-197" font-family="Times,serif" font-size="14.00" fill="#000000">process</text>
</g>
<!-- GO:2000895&#45;&gt;GO:0010410 -->
<g id="edge10" class="edge">
<title>GO:2000895&#45;&gt;GO:0010410</title>
<path fill="none" stroke="#000000" d="M575.1178,-152.9513C561.9564,-162.3637 547.242,-172.8867 533.5481,-182.68"/>
<polygon fill="#000000" stroke="#000000" points="531.2746,-180.0029 525.1766,-188.6669 535.3466,-185.6967 531.2746,-180.0029"/>
</g>
<!-- GO:0010411&#45;&gt;GO:0010410 -->
<g id="edge12" class="edge">
<title>GO:0010411&#45;&gt;GO:0010410</title>
<path fill="none" stroke="#000000" d="M464.8658,-152.9513C467.3152,-161.2094 470.0182,-170.3223 472.6061,-179.0473"/>
<polygon fill="#000000" stroke="#000000" points="469.2602,-180.075 475.4594,-188.6669 475.9712,-178.0844 469.2602,-180.075"/>
</g>
<!-- GO:0006073 -->
<g id="node13" class="node">
<title>GO:0006073</title>
<polygon fill="#ffffff" stroke="#000000" points="390.6629,-341.8014 233.6569,-341.8014 233.6569,-282.9986 390.6629,-282.9986 390.6629,-341.8014"/>
<text text-anchor="middle" x="312.1599" y="-325" font-family="Times,serif" font-size="14.00" fill="#000000">GO:0006073</text>
<text text-anchor="middle" x="312.1599" y="-308.2" font-family="Times,serif" font-size="14.00" fill="#000000">cellular glucan metabolic</text>
<text text-anchor="middle" x="312.1599" y="-291.4" font-family="Times,serif" font-size="14.00" fill="#000000">process</text>
</g>
<!-- GO:0010411&#45;&gt;GO:0006073 -->
<g id="edge13" class="edge">
<title>GO:0010411&#45;&gt;GO:0006073</title>
<path fill="none" stroke="#000000" d="M429.3805,-152.9036C419.6067,-163.9397 408.6335,-176.7401 399.1599,-188.8 377.1917,-216.7657 354.1014,-249.7605 337.2334,-274.6227"/>
<polygon fill="#000000" stroke="#000000" points="334.2344,-272.8098 331.5386,-283.0559 340.0356,-276.7273 334.2344,-272.8098"/>
</g>
<!-- GO:0005976 -->
<g id="node14" class="node">
<title>GO:0005976</title>
<polygon fill="#ffffff" stroke="#000000" points="620.3259,-530.6014 461.9939,-530.6014 461.9939,-471.7986 620.3259,-471.7986 620.3259,-530.6014"/>
<text text-anchor="middle" x="541.1599" y="-513.8" font-family="Times,serif" font-size="14.00" fill="#000000">GO:0005976</text>
<text text-anchor="middle" x="541.1599" y="-497" font-family="Times,serif" font-size="14.00" fill="#000000">polysaccharide metabolic</text>
<text text-anchor="middle" x="541.1599" y="-480.2" font-family="Times,serif" font-size="14.00" fill="#000000">process</text>
</g>
<!-- GO:0044042&#45;&gt;GO:0005976 -->
<g id="edge14" class="edge">
<title>GO:0044042&#45;&gt;GO:0005976</title>
<path fill="none" stroke="#000000" d="M580.0633,-427.7504C574.6068,-438.0522 567.8547,-450.8002 561.5155,-462.7686"/>
<polygon fill="#000000" stroke="#000000" points="558.3644,-461.2403 556.7767,-471.7155 564.5503,-464.5168 558.3644,-461.2403"/>
</g>
<!-- GO:0000272&#45;&gt;GO:0005976 -->
<g id="edge17" class="edge">
<title>GO:0000272&#45;&gt;GO:0005976</title>
<path fill="none" stroke="#000000" d="M695.8189,-436.0223C671.7789,-446.1534 644.656,-457.5838 619.9137,-468.0109"/>
<polygon fill="#000000" stroke="#000000" points="618.4147,-464.8444 610.5588,-471.9533 621.1332,-471.295 618.4147,-464.8444"/>
</g>
<!-- GO:0016052 -->
<g id="node15" class="node">
<title>GO:0016052</title>
<polygon fill="#ffffff" stroke="#000000" points="781.7603,-530.6014 638.5595,-530.6014 638.5595,-471.7986 781.7603,-471.7986 781.7603,-530.6014"/>
<text text-anchor="middle" x="710.1599" y="-513.8" font-family="Times,serif" font-size="14.00" fill="#000000">GO:0016052</text>
<text text-anchor="middle" x="710.1599" y="-497" font-family="Times,serif" font-size="14.00" fill="#000000">carbohydrate catabolic</text>
<text text-anchor="middle" x="710.1599" y="-480.2" font-family="Times,serif" font-size="14.00" fill="#000000">process</text>
</g>
<!-- GO:0000272&#45;&gt;GO:0016052 -->
<g id="edge15" class="edge">
<title>GO:0000272&#45;&gt;GO:0016052</title>
<path fill="none" stroke="#000000" d="M748.059,-436.1513C743.0924,-444.6758 737.5951,-454.1111 732.3636,-463.0904"/>
<polygon fill="#000000" stroke="#000000" points="729.2602,-461.4644 727.2502,-471.8669 735.3085,-464.9884 729.2602,-461.4644"/>
</g>
<!-- GO:0009057 -->
<g id="node16" class="node">
<title>GO:0009057</title>
<polygon fill="#ffffff" stroke="#000000" points="956.4864,-530.6014 799.8334,-530.6014 799.8334,-471.7986 956.4864,-471.7986 956.4864,-530.6014"/>
<text text-anchor="middle" x="878.1599" y="-513.8" font-family="Times,serif" font-size="14.00" fill="#000000">GO:0009057</text>
<text text-anchor="middle" x="878.1599" y="-497" font-family="Times,serif" font-size="14.00" fill="#000000">macromolecule catabolic</text>
<text text-anchor="middle" x="878.1599" y="-480.2" font-family="Times,serif" font-size="14.00" fill="#000000">process</text>
</g>
<!-- GO:0000272&#45;&gt;GO:0009057 -->
<g id="edge16" class="edge">
<title>GO:0000272&#45;&gt;GO:0009057</title>
<path fill="none" stroke="#000000" d="M800.2944,-436.1513C811.3488,-445.3861 823.6829,-455.69 835.2161,-465.3249"/>
<polygon fill="#000000" stroke="#000000" points="833.1288,-468.1417 843.0471,-471.8669 837.6166,-462.7696 833.1288,-468.1417"/>
</g>
<!-- GO:0010383 -->
<g id="node17" class="node">
<title>GO:0010383</title>
<polygon fill="#ffffff" stroke="#000000" points="559.9323,-341.8014 408.3875,-341.8014 408.3875,-282.9986 559.9323,-282.9986 559.9323,-341.8014"/>
<text text-anchor="middle" x="484.1599" y="-325" font-family="Times,serif" font-size="14.00" fill="#000000">GO:0010383</text>
<text text-anchor="middle" x="484.1599" y="-308.2" font-family="Times,serif" font-size="14.00" fill="#000000">cell wall polysaccharide</text>
<text text-anchor="middle" x="484.1599" y="-291.4" font-family="Times,serif" font-size="14.00" fill="#000000">metabolic process</text>
</g>
<!-- GO:0010410&#45;&gt;GO:0010383 -->
<g id="edge18" class="edge">
<title>GO:0010410&#45;&gt;GO:0010383</title>
<path fill="none" stroke="#000000" d="M484.1599,-247.3513C484.1599,-255.4318 484.1599,-264.3308 484.1599,-272.8838"/>
<polygon fill="#000000" stroke="#000000" points="480.66,-273.0668 484.1599,-283.0669 487.66,-273.0669 480.66,-273.0668"/>
</g>
<!-- GO:0006073&#45;&gt;GO:0044042 -->
<g id="edge19" class="edge">
<title>GO:0006073&#45;&gt;GO:0044042</title>
<path fill="none" stroke="#000000" d="M390.9914,-339.0727C431.7805,-352.8738 481.1639,-369.5827 520.6739,-382.951"/>
<polygon fill="#000000" stroke="#000000" points="519.6409,-386.2963 530.2352,-386.1861 521.8845,-379.6656 519.6409,-386.2963"/>
</g>
<!-- GO:0044264 -->
<g id="node18" class="node">
<title>GO:0044264</title>
<polygon fill="#ffffff" stroke="#000000" points="284.0962,-436.2014 138.2236,-436.2014 138.2236,-377.3986 284.0962,-377.3986 284.0962,-436.2014"/>
<text text-anchor="middle" x="211.1599" y="-419.4" font-family="Times,serif" font-size="14.00" fill="#000000">GO:0044264</text>
<text text-anchor="middle" x="211.1599" y="-402.6" font-family="Times,serif" font-size="14.00" fill="#000000">cellular polysaccharide</text>
<text text-anchor="middle" x="211.1599" y="-385.8" font-family="Times,serif" font-size="14.00" fill="#000000">metabolic process</text>
</g>
<!-- GO:0006073&#45;&gt;GO:0044264 -->
<g id="edge20" class="edge">
<title>GO:0006073&#45;&gt;GO:0044264</title>
<path fill="none" stroke="#000000" d="M280.7565,-341.7513C271.066,-350.8086 260.2753,-360.8941 250.1388,-370.3683"/>
<polygon fill="#000000" stroke="#000000" points="247.4597,-368.0815 242.5439,-377.4669 252.2396,-373.1955 247.4597,-368.0815"/>
</g>
<!-- GO:0005975 -->
<g id="node19" class="node">
<title>GO:0005975</title>
<polygon fill="#ffffff" stroke="#000000" points="458.9365,-633.4014 311.3833,-633.4014 311.3833,-574.5986 458.9365,-574.5986 458.9365,-633.4014"/>
<text text-anchor="middle" x="385.1599" y="-616.6" font-family="Times,serif" font-size="14.00" fill="#000000">GO:0005975</text>
<text text-anchor="middle" x="385.1599" y="-599.8" font-family="Times,serif" font-size="14.00" fill="#000000">carbohydrate metabolic</text>
<text text-anchor="middle" x="385.1599" y="-583" font-family="Times,serif" font-size="14.00" fill="#000000">process</text>
</g>
<!-- GO:0005976&#45;&gt;GO:0005975 -->
<g id="edge21" class="edge">
<title>GO:0005976&#45;&gt;GO:0005975</title>
<path fill="none" stroke="#000000" d="M496.4566,-530.6584C478.2647,-542.6464 457.0979,-556.5947 438.1375,-569.0891"/>
<polygon fill="#000000" stroke="#000000" points="436.024,-566.2902 429.5999,-574.7152 439.8758,-572.1352 436.024,-566.2902"/>
</g>
<!-- GO:0043170 -->
<g id="node20" class="node">
<title>GO:0043170</title>
<polygon fill="#ffffff" stroke="#000000" points="637.6621,-633.4014 476.6577,-633.4014 476.6577,-574.5986 637.6621,-574.5986 637.6621,-633.4014"/>
<text text-anchor="middle" x="557.1599" y="-616.6" font-family="Times,serif" font-size="14.00" fill="#000000">GO:0043170</text>
<text text-anchor="middle" x="557.1599" y="-599.8" font-family="Times,serif" font-size="14.00" fill="#000000">macromolecule metabolic</text>
<text text-anchor="middle" x="557.1599" y="-583" font-family="Times,serif" font-size="14.00" fill="#000000">process</text>
</g>
<!-- GO:0005976&#45;&gt;GO:0043170 -->
<g id="edge22" class="edge">
<title>GO:0005976&#45;&gt;GO:0043170</title>
<path fill="none" stroke="#000000" d="M545.7449,-530.6584C547.3851,-541.1969 549.2611,-553.2505 551.0119,-564.4994"/>
<polygon fill="#000000" stroke="#000000" points="547.5779,-565.1946 552.5743,-574.5373 554.4946,-564.118 547.5779,-565.1946"/>
</g>
<!-- GO:0016052&#45;&gt;GO:0005975 -->
<g id="edge24" class="edge">
<title>GO:0016052&#45;&gt;GO:0005975</title>
<path fill="none" stroke="#000000" d="M638.3272,-527.6319C635.2401,-528.5979 632.1748,-529.5254 629.1599,-530.4 558.3237,-550.9481 537.0716,-542.8979 467.1599,-566.4 463.1517,-567.7474 459.0769,-569.2289 454.9941,-570.8011"/>
<polygon fill="#000000" stroke="#000000" points="453.4607,-567.6449 445.4805,-574.6139 456.0648,-574.1425 453.4607,-567.6449"/>
</g>
<!-- GO:1901575 -->
<g id="node21" class="node">
<title>GO:1901575</title>
<polygon fill="#ffffff" stroke="#000000" points="771.0639,-633.4014 655.2559,-633.4014 655.2559,-574.5986 771.0639,-574.5986 771.0639,-633.4014"/>
<text text-anchor="middle" x="713.1599" y="-616.6" font-family="Times,serif" font-size="14.00" fill="#000000">GO:1901575</text>
<text text-anchor="middle" x="713.1599" y="-599.8" font-family="Times,serif" font-size="14.00" fill="#000000">organic substance</text>
<text text-anchor="middle" x="713.1599" y="-583" font-family="Times,serif" font-size="14.00" fill="#000000">catabolic process</text>
</g>
<!-- GO:0016052&#45;&gt;GO:1901575 -->
<g id="edge23" class="edge">
<title>GO:0016052&#45;&gt;GO:1901575</title>
<path fill="none" stroke="#000000" d="M711.0196,-530.6584C711.3271,-541.1969 711.6789,-553.2505 712.0072,-564.4994"/>
<polygon fill="#000000" stroke="#000000" points="708.5098,-564.6437 712.3001,-574.5373 715.5068,-564.4395 708.5098,-564.6437"/>
</g>
<!-- GO:0009057&#45;&gt;GO:0043170 -->
<g id="edge26" class="edge">
<title>GO:0009057&#45;&gt;GO:0043170</title>
<path fill="none" stroke="#000000" d="M799.5288,-527.9066C796.7093,-528.7637 793.9132,-529.5976 791.1599,-530.4 727.4111,-548.979 709.1578,-545.4154 646.1599,-566.4 641.8358,-567.8404 637.4269,-569.3986 633,-571.0334"/>
<polygon fill="#000000" stroke="#000000" points="631.4095,-567.8936 623.3058,-574.7186 633.8969,-574.4367 631.4095,-567.8936"/>
</g>
<!-- GO:0009057&#45;&gt;GO:1901575 -->
<g id="edge25" class="edge">
<title>GO:0009057&#45;&gt;GO:1901575</title>
<path fill="none" stroke="#000000" d="M830.8775,-530.6584C811.4627,-542.7544 788.8446,-556.8462 768.6525,-569.4264"/>
<polygon fill="#000000" stroke="#000000" points="766.8004,-566.4566 760.1637,-574.7152 770.502,-572.3978 766.8004,-566.4566"/>
</g>
<!-- GO:0010383&#45;&gt;GO:0005976 -->
<g id="edge28" class="edge">
<title>GO:0010383&#45;&gt;GO:0005976</title>
<path fill="none" stroke="#000000" d="M485.5689,-341.6196C487.5173,-367.1497 492.1515,-404.8905 503.1599,-436 506.4037,-445.1669 510.9606,-454.4987 515.7966,-463.1293"/>
<polygon fill="#000000" stroke="#000000" points="512.8201,-464.9727 520.8939,-471.8331 518.8605,-461.4352 512.8201,-464.9727"/>
</g>
<!-- GO:0044036 -->
<g id="node22" class="node">
<title>GO:0044036</title>
<polygon fill="#ffffff" stroke="#000000" points="455.7692,-436.2014 302.5506,-436.2014 302.5506,-377.3986 455.7692,-377.3986 455.7692,-436.2014"/>
<text text-anchor="middle" x="379.1599" y="-419.4" font-family="Times,serif" font-size="14.00" fill="#000000">GO:0044036</text>
<text text-anchor="middle" x="379.1599" y="-402.6" font-family="Times,serif" font-size="14.00" fill="#000000">cell wall macromolecule</text>
<text text-anchor="middle" x="379.1599" y="-385.8" font-family="Times,serif" font-size="14.00" fill="#000000">metabolic process</text>
</g>
<!-- GO:0010383&#45;&gt;GO:0044036 -->
<g id="edge27" class="edge">
<title>GO:0010383&#45;&gt;GO:0044036</title>
<path fill="none" stroke="#000000" d="M451.5128,-341.7513C441.3398,-350.8973 430.0004,-361.092 419.3727,-370.6467"/>
<polygon fill="#000000" stroke="#000000" points="416.8833,-368.1783 411.7868,-377.4669 421.5633,-373.3839 416.8833,-368.1783"/>
</g>
<!-- GO:0044264&#45;&gt;GO:0005976 -->
<g id="edge31" class="edge">
<title>GO:0044264&#45;&gt;GO:0005976</title>
<path fill="none" stroke="#000000" d="M283.8887,-433.2125C287.0115,-434.1838 290.1115,-435.1178 293.1599,-436 360.1672,-455.392 381.138,-452.7776 451.814,-471.735"/>
<polygon fill="#000000" stroke="#000000" points="451.0739,-475.1611 461.6429,-474.4229 452.9204,-468.409 451.0739,-475.1611"/>
</g>
<!-- GO:0044262 -->
<g id="node23" class="node">
<title>GO:0044262</title>
<polygon fill="#ffffff" stroke="#000000" points="278.2071,-530.6014 144.1127,-530.6014 144.1127,-471.7986 278.2071,-471.7986 278.2071,-530.6014"/>
<text text-anchor="middle" x="211.1599" y="-513.8" font-family="Times,serif" font-size="14.00" fill="#000000">GO:0044262</text>
<text text-anchor="middle" x="211.1599" y="-497" font-family="Times,serif" font-size="14.00" fill="#000000">cellular carbohydrate</text>
<text text-anchor="middle" x="211.1599" y="-480.2" font-family="Times,serif" font-size="14.00" fill="#000000">metabolic process</text>
</g>
<!-- GO:0044264&#45;&gt;GO:0044262 -->
<g id="edge29" class="edge">
<title>GO:0044264&#45;&gt;GO:0044262</title>
<path fill="none" stroke="#000000" d="M211.1599,-436.1513C211.1599,-444.2318 211.1599,-453.1308 211.1599,-461.6838"/>
<polygon fill="#000000" stroke="#000000" points="207.66,-461.8668 211.1599,-471.8669 214.66,-461.8669 207.66,-461.8668"/>
</g>
<!-- GO:0044260 -->
<g id="node24" class="node">
<title>GO:0044260</title>
<polygon fill="#ffffff" stroke="#000000" points="443.9323,-530.6014 296.3875,-530.6014 296.3875,-471.7986 443.9323,-471.7986 443.9323,-530.6014"/>
<text text-anchor="middle" x="370.1599" y="-513.8" font-family="Times,serif" font-size="14.00" fill="#000000">GO:0044260</text>
<text text-anchor="middle" x="370.1599" y="-497" font-family="Times,serif" font-size="14.00" fill="#000000">cellular macromolecule</text>
<text text-anchor="middle" x="370.1599" y="-480.2" font-family="Times,serif" font-size="14.00" fill="#000000">metabolic process</text>
</g>
<!-- GO:0044264&#45;&gt;GO:0044260 -->
<g id="edge30" class="edge">
<title>GO:0044264&#45;&gt;GO:0044260</title>
<path fill="none" stroke="#000000" d="M260.5969,-436.1513C276.8992,-445.8301 295.1794,-456.6833 312.0671,-466.7097"/>
<polygon fill="#000000" stroke="#000000" points="310.3679,-469.7712 320.7535,-471.8669 313.9416,-463.7521 310.3679,-469.7712"/>
</g>
<!-- GO:0071704 -->
<g id="node25" class="node">
<title>GO:0071704</title>
<polygon fill="#ffffff" stroke="#000000" points="608.3455,-736.2014 491.9743,-736.2014 491.9743,-677.3986 608.3455,-677.3986 608.3455,-736.2014"/>
<text text-anchor="middle" x="550.1599" y="-719.4" font-family="Times,serif" font-size="14.00" fill="#000000">GO:0071704</text>
<text text-anchor="middle" x="550.1599" y="-702.6" font-family="Times,serif" font-size="14.00" fill="#000000">organic substance</text>
<text text-anchor="middle" x="550.1599" y="-685.8" font-family="Times,serif" font-size="14.00" fill="#000000">metabolic process</text>
</g>
<!-- GO:0005975&#45;&gt;GO:0071704 -->
<g id="edge32" class="edge">
<title>GO:0005975&#45;&gt;GO:0071704</title>
<path fill="none" stroke="#000000" d="M432.4423,-633.4584C451.8571,-645.5544 474.4752,-659.6462 494.6673,-672.2264"/>
<polygon fill="#000000" stroke="#000000" points="492.8178,-675.1978 503.1561,-677.5152 496.5194,-669.2566 492.8178,-675.1978"/>
</g>
<!-- GO:0044238 -->
<g id="node26" class="node">
<title>GO:0044238</title>
<polygon fill="#ffffff" stroke="#000000" points="467.1629,-727.4019 303.1569,-727.4019 303.1569,-686.1981 467.1629,-686.1981 467.1629,-727.4019"/>
<text text-anchor="middle" x="385.1599" y="-711" font-family="Times,serif" font-size="14.00" fill="#000000">GO:0044238</text>
<text text-anchor="middle" x="385.1599" y="-694.2" font-family="Times,serif" font-size="14.00" fill="#000000">primary metabolic process</text>
</g>
<!-- GO:0005975&#45;&gt;GO:0044238 -->
<g id="edge33" class="edge">
<title>GO:0005975&#45;&gt;GO:0044238</title>
<path fill="none" stroke="#000000" d="M385.1599,-633.4584C385.1599,-646.7539 385.1599,-662.4608 385.1599,-675.9212"/>
<polygon fill="#000000" stroke="#000000" points="381.66,-676.1456 385.1599,-686.1456 388.66,-676.1457 381.66,-676.1456"/>
</g>
<!-- GO:0043170&#45;&gt;GO:0071704 -->
<g id="edge34" class="edge">
<title>GO:0043170&#45;&gt;GO:0071704</title>
<path fill="none" stroke="#000000" d="M555.154,-633.4584C554.4364,-643.9969 553.6156,-656.0505 552.8496,-667.2994"/>
<polygon fill="#000000" stroke="#000000" points="549.3537,-667.1226 552.1661,-677.3373 556.3375,-667.5983 549.3537,-667.1226"/>
</g>
<!-- GO:1901575&#45;&gt;GO:0071704 -->
<g id="edge35" class="edge">
<title>GO:1901575&#45;&gt;GO:0071704</title>
<path fill="none" stroke="#000000" d="M666.4506,-633.4584C647.3568,-645.5004 625.1266,-659.5204 605.2472,-672.0578"/>
<polygon fill="#000000" stroke="#000000" points="603.1853,-669.2203 596.594,-677.5152 606.9194,-675.1411 603.1853,-669.2203"/>
</g>
<!-- GO:0009056 -->
<g id="node27" class="node">
<title>GO:0009056</title>
<polygon fill="#ffffff" stroke="#000000" points="753.1691,-727.4019 641.1507,-727.4019 641.1507,-686.1981 753.1691,-686.1981 753.1691,-727.4019"/>
<text text-anchor="middle" x="697.1599" y="-711" font-family="Times,serif" font-size="14.00" fill="#000000">GO:0009056</text>
<text text-anchor="middle" x="697.1599" y="-694.2" font-family="Times,serif" font-size="14.00" fill="#000000">catabolic process</text>
</g>
<!-- GO:1901575&#45;&gt;GO:0009056 -->
<g id="edge36" class="edge">
<title>GO:1901575&#45;&gt;GO:0009056</title>
<path fill="none" stroke="#000000" d="M708.5749,-633.4584C706.5056,-646.7539 704.0609,-662.4608 701.9659,-675.9212"/>
<polygon fill="#000000" stroke="#000000" points="698.4542,-675.7263 700.3746,-686.1456 705.3709,-676.8029 698.4542,-675.7263"/>
</g>
<!-- GO:0044036&#45;&gt;GO:0044260 -->
<g id="edge37" class="edge">
<title>GO:0044036&#45;&gt;GO:0044260</title>
<path fill="none" stroke="#000000" d="M376.3616,-436.1513C375.5912,-444.2318 374.7428,-453.1308 373.9273,-461.6838"/>
<polygon fill="#000000" stroke="#000000" points="370.4215,-461.5798 372.9565,-471.8669 377.3899,-462.2442 370.4215,-461.5798"/>
</g>
<!-- GO:0044262&#45;&gt;GO:0005975 -->
<g id="edge38" class="edge">
<title>GO:0044262&#45;&gt;GO:0005975</title>
<path fill="none" stroke="#000000" d="M261.0213,-530.6584C281.5865,-542.8084 305.56,-556.972 326.9255,-569.5948"/>
<polygon fill="#000000" stroke="#000000" points="325.2022,-572.6419 335.5922,-574.7152 328.7629,-566.6151 325.2022,-572.6419"/>
</g>
<!-- GO:0044237 -->
<g id="node28" class="node">
<title>GO:0044237</title>
<polygon fill="#ffffff" stroke="#000000" points="293.3427,-633.4014 176.9771,-633.4014 176.9771,-574.5986 293.3427,-574.5986 293.3427,-633.4014"/>
<text text-anchor="middle" x="235.1599" y="-616.6" font-family="Times,serif" font-size="14.00" fill="#000000">GO:0044237</text>
<text text-anchor="middle" x="235.1599" y="-599.8" font-family="Times,serif" font-size="14.00" fill="#000000">cellular metabolic</text>
<text text-anchor="middle" x="235.1599" y="-583" font-family="Times,serif" font-size="14.00" fill="#000000">process</text>
</g>
<!-- GO:0044262&#45;&gt;GO:0044237 -->
<g id="edge39" class="edge">
<title>GO:0044262&#45;&gt;GO:0044237</title>
<path fill="none" stroke="#000000" d="M218.0373,-530.6584C220.4977,-541.1969 223.3118,-553.2505 225.938,-564.4994"/>
<polygon fill="#000000" stroke="#000000" points="222.5995,-565.595 228.2815,-574.5373 229.4162,-564.0035 222.5995,-565.595"/>
</g>
<!-- GO:0044260&#45;&gt;GO:0043170 -->
<g id="edge41" class="edge">
<title>GO:0044260&#45;&gt;GO:0043170</title>
<path fill="none" stroke="#000000" d="M423.4963,-530.5208C445.7018,-542.7279 471.6388,-556.9863 494.7251,-569.6775"/>
<polygon fill="#000000" stroke="#000000" points="493.3034,-572.8899 503.7526,-574.6403 496.6756,-566.7557 493.3034,-572.8899"/>
</g>
<!-- GO:0044260&#45;&gt;GO:0044237 -->
<g id="edge40" class="edge">
<title>GO:0044260&#45;&gt;GO:0044237</title>
<path fill="none" stroke="#000000" d="M331.4743,-530.6584C316.0813,-542.3798 298.2272,-555.9754 282.1031,-568.2536"/>
<polygon fill="#000000" stroke="#000000" points="279.6867,-565.6944 273.8511,-574.5373 283.9275,-571.2636 279.6867,-565.6944"/>
</g>
<!-- GO:0008152 -->
<g id="node29" class="node">
<title>GO:0008152</title>
<polygon fill="#ffffff" stroke="#000000" points="443.3455,-813.4019 326.9743,-813.4019 326.9743,-772.1981 443.3455,-772.1981 443.3455,-813.4019"/>
<text text-anchor="middle" x="385.1599" y="-797" font-family="Times,serif" font-size="14.00" fill="#000000">GO:0008152</text>
<text text-anchor="middle" x="385.1599" y="-780.2" font-family="Times,serif" font-size="14.00" fill="#000000">metabolic process</text>
</g>
<!-- GO:0071704&#45;&gt;GO:0008152 -->
<g id="edge42" class="edge">
<title>GO:0071704&#45;&gt;GO:0008152</title>
<path fill="none" stroke="#000000" d="M493.8377,-736.1558C474.342,-746.3172 452.6704,-757.6127 433.8411,-767.4267"/>
<polygon fill="#000000" stroke="#000000" points="432.098,-764.3883 424.848,-772.1141 435.3335,-770.5958 432.098,-764.3883"/>
</g>
<!-- GO:0044238&#45;&gt;GO:0008152 -->
<g id="edge43" class="edge">
<title>GO:0044238&#45;&gt;GO:0008152</title>
<path fill="none" stroke="#000000" d="M385.1599,-727.6182C385.1599,-737.9705 385.1599,-750.6848 385.1599,-762.1271"/>
<polygon fill="#000000" stroke="#000000" points="381.66,-762.1735 385.1599,-772.1735 388.66,-762.1735 381.66,-762.1735"/>
</g>
<!-- GO:0009056&#45;&gt;GO:0008152 -->
<g id="edge44" class="edge">
<title>GO:0009056&#45;&gt;GO:0008152</title>
<path fill="none" stroke="#000000" d="M643.2097,-727.4037C634.5513,-730.4461 625.6477,-733.4205 617.1599,-736 562.8237,-752.5133 500.2279,-767.614 453.76,-778.0875"/>
<polygon fill="#000000" stroke="#000000" points="452.7951,-774.7168 443.8014,-780.317 454.3245,-781.5477 452.7951,-774.7168"/>
</g>
<!-- GO:0044237&#45;&gt;GO:0008152 -->
<g id="edge46" class="edge">
<title>GO:0044237&#45;&gt;GO:0008152</title>
<path fill="none" stroke="#000000" d="M242.7805,-633.2588C251.432,-661.9982 267.8637,-705.8092 294.1599,-736 304.5952,-747.9808 318.1815,-758.2844 331.6598,-766.6981"/>
<polygon fill="#000000" stroke="#000000" points="330.0861,-769.8348 340.4671,-771.9528 333.6727,-763.8234 330.0861,-769.8348"/>
</g>
<!-- GO:0009987 -->
<g id="node30" class="node">
<title>GO:0009987</title>
<polygon fill="#ffffff" stroke="#000000" points="287.1161,-813.4019 183.2037,-813.4019 183.2037,-772.1981 287.1161,-772.1981 287.1161,-813.4019"/>
<text text-anchor="middle" x="235.1599" y="-797" font-family="Times,serif" font-size="14.00" fill="#000000">GO:0009987</text>
<text text-anchor="middle" x="235.1599" y="-780.2" font-family="Times,serif" font-size="14.00" fill="#000000">cellular process</text>
</g>
<!-- GO:0044237&#45;&gt;GO:0009987 -->
<g id="edge45" class="edge">
<title>GO:0044237&#45;&gt;GO:0009987</title>
<path fill="none" stroke="#000000" d="M235.1599,-633.5C235.1599,-668.3696 235.1599,-726.1372 235.1599,-761.6929"/>
<polygon fill="#000000" stroke="#000000" points="231.66,-761.9644 235.1599,-771.9645 238.66,-761.9645 231.66,-761.9644"/>
</g>
<!-- GO:0008152&#45;&gt;GO:0008150 -->
<g id="edge47" class="edge">
<title>GO:0008152&#45;&gt;GO:0008150</title>
<path fill="none" stroke="#000000" d="M344.9627,-813.5954C326.3085,-823.2458 303.9635,-834.8056 284.3149,-844.9705"/>
<polygon fill="#000000" stroke="#000000" points="282.4814,-841.9783 275.2078,-849.6819 285.6979,-848.1956 282.4814,-841.9783"/>
</g>
<!-- GO:0009987&#45;&gt;GO:0008150 -->
<g id="edge48" class="edge">
<title>GO:0009987&#45;&gt;GO:0008150</title>
<path fill="none" stroke="#000000" d="M235.1599,-813.5954C235.1599,-821.5109 235.1599,-830.7109 235.1599,-839.3722"/>
<polygon fill="#000000" stroke="#000000" points="231.66,-839.5472 235.1599,-849.5472 238.66,-839.5473 231.66,-839.5472"/>
</g>
</g>
</svg>
