<?xml version="1.0" encoding="UTF-8" standalone="no"?>
<!DOCTYPE svg PUBLIC "-//W3C//DTD SVG 1.1//EN"
 "http://www.w3.org/Graphics/SVG/1.1/DTD/svg11.dtd">
<!-- Generated by graphviz version 2.40.1 (20161225.0304)
 -->
<!-- Title: G Pages: 1 -->
<svg width="832pt" height="522pt"
 viewBox="0.00 0.00 831.67 521.60" xmlns="http://www.w3.org/2000/svg" xmlns:xlink="http://www.w3.org/1999/xlink">
<g id="graph0" class="graph" transform="scale(1 1) rotate(0) translate(4 517.6)">
<title>G</title>
<polygon fill="#ffffff" stroke="transparent" points="-4,4 -4,-517.6 827.6743,-517.6 827.6743,4 -4,4"/>
<!-- GO:0046912 -->
<g id="node1" class="node">
<title>GO:0046912</title>
<polygon fill="#ffffff" stroke="#000000" points="761.109,-186.4 607.6638,-186.4 607.6638,-94.4 761.109,-94.4 761.109,-186.4"/>
<text text-anchor="middle" x="684.3864" y="-169.8" font-family="Times,serif" font-size="14.00" fill="#000000">GO:0046912</text>
<text text-anchor="middle" x="684.3864" y="-153" font-family="Times,serif" font-size="14.00" fill="#000000">transferase activity,</text>
<text text-anchor="middle" x="684.3864" y="-136.2" font-family="Times,serif" font-size="14.00" fill="#000000">transferring acyl groups,</text>
<text text-anchor="middle" x="684.3864" y="-119.4" font-family="Times,serif" font-size="14.00" fill="#000000">acyl groups converted</text>
<text text-anchor="middle" x="684.3864" y="-102.6" font-family="Times,serif" font-size="14.00" fill="#000000">into alkyl on transfer</text>
</g>
<!-- GO:0016746 -->
<g id="node2" class="node">
<title>GO:0016746</title>
<polygon fill="#ffffff" stroke="#000000" points="759.1091,-281.0014 609.6637,-281.0014 609.6637,-222.1986 759.1091,-222.1986 759.1091,-281.0014"/>
<text text-anchor="middle" x="684.3864" y="-264.2" font-family="Times,serif" font-size="14.00" fill="#000000">GO:0016746</text>
<text text-anchor="middle" x="684.3864" y="-247.4" font-family="Times,serif" font-size="14.00" fill="#000000">transferase activity,</text>
<text text-anchor="middle" x="684.3864" y="-230.6" font-family="Times,serif" font-size="14.00" fill="#000000">transferring acyl groups</text>
</g>
<!-- GO:0046912&#45;&gt;GO:0016746 -->
<g id="edge1" class="edge">
<title>GO:0046912&#45;&gt;GO:0016746</title>
<path fill="none" stroke="#000000" d="M684.3864,-186.5928C684.3864,-195.068 684.3864,-203.8437 684.3864,-212.1009"/>
<polygon fill="#000000" stroke="#000000" points="680.8865,-212.221 684.3864,-222.221 687.8865,-212.221 680.8865,-212.221"/>
</g>
<!-- GO:0016740 -->
<g id="node3" class="node">
<title>GO:0016740</title>
<polygon fill="#ffffff" stroke="#000000" points="724.4981,-358.2019 602.2747,-358.2019 602.2747,-316.9981 724.4981,-316.9981 724.4981,-358.2019"/>
<text text-anchor="middle" x="663.3864" y="-341.8" font-family="Times,serif" font-size="14.00" fill="#000000">GO:0016740</text>
<text text-anchor="middle" x="663.3864" y="-325" font-family="Times,serif" font-size="14.00" fill="#000000">transferase activity</text>
</g>
<!-- GO:0016746&#45;&gt;GO:0016740 -->
<g id="edge2" class="edge">
<title>GO:0016746&#45;&gt;GO:0016740</title>
<path fill="none" stroke="#000000" d="M677.1594,-281.1963C675.1182,-289.5556 672.8936,-298.6658 670.8393,-307.0784"/>
<polygon fill="#000000" stroke="#000000" points="667.414,-306.3517 668.4419,-316.8966 674.2142,-308.0123 667.414,-306.3517"/>
</g>
<!-- GO:0003824 -->
<g id="node4" class="node">
<title>GO:0003824</title>
<polygon fill="#ffffff" stroke="#000000" points="500.7988,-435.8019 391.974,-435.8019 391.974,-394.5981 500.7988,-394.5981 500.7988,-435.8019"/>
<text text-anchor="middle" x="446.3864" y="-419.4" font-family="Times,serif" font-size="14.00" fill="#000000">GO:0003824</text>
<text text-anchor="middle" x="446.3864" y="-402.6" font-family="Times,serif" font-size="14.00" fill="#000000">catalytic activity</text>
</g>
<!-- GO:0016740&#45;&gt;GO:0003824 -->
<g id="edge3" class="edge">
<title>GO:0016740&#45;&gt;GO:0003824</title>
<path fill="none" stroke="#000000" d="M605.5194,-358.2934C576.2901,-368.7459 540.7412,-381.4584 510.6627,-392.2146"/>
<polygon fill="#000000" stroke="#000000" points="509.3417,-388.9698 501.1042,-395.6327 511.6988,-395.5611 509.3417,-388.9698"/>
</g>
<!-- GO:0003674 -->
<g id="node5" class="node">
<title>GO:0003674</title>
<polygon fill="#ffffff" stroke="#000000" points="425.0195,-513.4019 299.7533,-513.4019 299.7533,-472.1981 425.0195,-472.1981 425.0195,-513.4019"/>
<text text-anchor="middle" x="362.3864" y="-497" font-family="Times,serif" font-size="14.00" fill="#000000">GO:0003674</text>
<text text-anchor="middle" x="362.3864" y="-480.2" font-family="Times,serif" font-size="14.00" fill="#000000">molecular_function</text>
</g>
<!-- GO:0003824&#45;&gt;GO:0003674 -->
<g id="edge4" class="edge">
<title>GO:0003824&#45;&gt;GO:0003674</title>
<path fill="none" stroke="#000000" d="M423.8759,-435.9954C414.2719,-444.8677 402.9209,-455.3539 392.6023,-464.8862"/>
<polygon fill="#000000" stroke="#000000" points="389.9294,-462.5906 384.959,-471.9472 394.6794,-467.7324 389.9294,-462.5906"/>
</g>
<!-- GO:0046872 -->
<g id="node6" class="node">
<title>GO:0046872</title>
<polygon fill="#ffffff" stroke="#000000" points="114.6594,-161.0019 .1134,-161.0019 .1134,-119.7981 114.6594,-119.7981 114.6594,-161.0019"/>
<text text-anchor="middle" x="57.3864" y="-144.6" font-family="Times,serif" font-size="14.00" fill="#000000">GO:0046872</text>
<text text-anchor="middle" x="57.3864" y="-127.8" font-family="Times,serif" font-size="14.00" fill="#000000">metal ion binding</text>
</g>
<!-- GO:0043169 -->
<g id="node7" class="node">
<title>GO:0043169</title>
<polygon fill="#ffffff" stroke="#000000" points="192.8793,-272.2019 95.8935,-272.2019 95.8935,-230.9981 192.8793,-230.9981 192.8793,-272.2019"/>
<text text-anchor="middle" x="144.3864" y="-255.8" font-family="Times,serif" font-size="14.00" fill="#000000">GO:0043169</text>
<text text-anchor="middle" x="144.3864" y="-239" font-family="Times,serif" font-size="14.00" fill="#000000">cation binding</text>
</g>
<!-- GO:0046872&#45;&gt;GO:0043169 -->
<g id="edge5" class="edge">
<title>GO:0046872&#45;&gt;GO:0043169</title>
<path fill="none" stroke="#000000" d="M73.5465,-161.0553C87.1338,-178.4219 106.7056,-203.4379 121.8356,-222.7765"/>
<polygon fill="#000000" stroke="#000000" points="119.099,-224.9587 128.0176,-230.678 124.6122,-220.6453 119.099,-224.9587"/>
</g>
<!-- GO:0043167 -->
<g id="node8" class="node">
<title>GO:0043167</title>
<polygon fill="#ffffff" stroke="#000000" points="298.9903,-358.2019 209.7825,-358.2019 209.7825,-316.9981 298.9903,-316.9981 298.9903,-358.2019"/>
<text text-anchor="middle" x="254.3864" y="-341.8" font-family="Times,serif" font-size="14.00" fill="#000000">GO:0043167</text>
<text text-anchor="middle" x="254.3864" y="-325" font-family="Times,serif" font-size="14.00" fill="#000000">ion binding</text>
</g>
<!-- GO:0043169&#45;&gt;GO:0043167 -->
<g id="edge6" class="edge">
<title>GO:0043169&#45;&gt;GO:0043167</title>
<path fill="none" stroke="#000000" d="M171.0143,-272.4182C185.7419,-283.9325 204.207,-298.3688 220.0139,-310.7269"/>
<polygon fill="#000000" stroke="#000000" points="217.9699,-313.5716 228.0037,-316.9735 222.2813,-308.0569 217.9699,-313.5716"/>
</g>
<!-- GO:0005488 -->
<g id="node9" class="node">
<title>GO:0005488</title>
<polygon fill="#ffffff" stroke="#000000" points="348.9903,-435.8019 259.7825,-435.8019 259.7825,-394.5981 348.9903,-394.5981 348.9903,-435.8019"/>
<text text-anchor="middle" x="304.3864" y="-419.4" font-family="Times,serif" font-size="14.00" fill="#000000">GO:0005488</text>
<text text-anchor="middle" x="304.3864" y="-402.6" font-family="Times,serif" font-size="14.00" fill="#000000">binding</text>
</g>
<!-- GO:0043167&#45;&gt;GO:0005488 -->
<g id="edge7" class="edge">
<title>GO:0043167&#45;&gt;GO:0005488</title>
<path fill="none" stroke="#000000" d="M267.7855,-358.3954C273.2219,-366.8328 279.5988,-376.7297 285.4933,-385.8778"/>
<polygon fill="#000000" stroke="#000000" points="282.5918,-387.8368 290.9503,-394.3472 288.4761,-384.0453 282.5918,-387.8368"/>
</g>
<!-- GO:0005488&#45;&gt;GO:0003674 -->
<g id="edge8" class="edge">
<title>GO:0005488&#45;&gt;GO:0003674</title>
<path fill="none" stroke="#000000" d="M319.9293,-435.9954C326.3006,-444.5197 333.7855,-454.5339 340.6816,-463.7605"/>
<polygon fill="#000000" stroke="#000000" points="338.0103,-466.0327 346.8006,-471.9472 343.6172,-461.8419 338.0103,-466.0327"/>
</g>
<!-- GO:0004419 -->
<g id="node10" class="node">
<title>GO:0004419</title>
<polygon fill="#ffffff" stroke="#000000" points="292.5843,-58.6014 116.1885,-58.6014 116.1885,.2014 292.5843,.2014 292.5843,-58.6014"/>
<text text-anchor="middle" x="204.3864" y="-41.8" font-family="Times,serif" font-size="14.00" fill="#000000">GO:0004419</text>
<text text-anchor="middle" x="204.3864" y="-25" font-family="Times,serif" font-size="14.00" fill="#000000">hydroxymethylglutaryl&#45;CoA</text>
<text text-anchor="middle" x="204.3864" y="-8.2" font-family="Times,serif" font-size="14.00" fill="#000000">lyase activity</text>
</g>
<!-- GO:0016833 -->
<g id="node11" class="node">
<title>GO:0016833</title>
<polygon fill="#ffffff" stroke="#000000" points="276.2834,-161.0019 132.4894,-161.0019 132.4894,-119.7981 276.2834,-119.7981 276.2834,-161.0019"/>
<text text-anchor="middle" x="204.3864" y="-144.6" font-family="Times,serif" font-size="14.00" fill="#000000">GO:0016833</text>
<text text-anchor="middle" x="204.3864" y="-127.8" font-family="Times,serif" font-size="14.00" fill="#000000">oxo&#45;acid&#45;lyase activity</text>
</g>
<!-- GO:0004419&#45;&gt;GO:0016833 -->
<g id="edge9" class="edge">
<title>GO:0004419&#45;&gt;GO:0016833</title>
<path fill="none" stroke="#000000" d="M204.3864,-58.4165C204.3864,-73.997 204.3864,-93.1758 204.3864,-109.0653"/>
<polygon fill="#000000" stroke="#000000" points="200.8865,-109.4555 204.3864,-119.4556 207.8865,-109.4556 200.8865,-109.4555"/>
</g>
<!-- GO:0016830 -->
<g id="node12" class="node">
<title>GO:0016830</title>
<polygon fill="#ffffff" stroke="#000000" points="426.991,-281.0014 297.7818,-281.0014 297.7818,-222.1986 426.991,-222.1986 426.991,-281.0014"/>
<text text-anchor="middle" x="362.3864" y="-264.2" font-family="Times,serif" font-size="14.00" fill="#000000">GO:0016830</text>
<text text-anchor="middle" x="362.3864" y="-247.4" font-family="Times,serif" font-size="14.00" fill="#000000">carbon&#45;carbon lyase</text>
<text text-anchor="middle" x="362.3864" y="-230.6" font-family="Times,serif" font-size="14.00" fill="#000000">activity</text>
</g>
<!-- GO:0016833&#45;&gt;GO:0016830 -->
<g id="edge10" class="edge">
<title>GO:0016833&#45;&gt;GO:0016830</title>
<path fill="none" stroke="#000000" d="M233.7347,-161.0553C255.7993,-176.5843 286.5541,-198.2294 312.461,-216.4627"/>
<polygon fill="#000000" stroke="#000000" points="310.4927,-219.3573 320.6849,-222.2506 314.5216,-213.6329 310.4927,-219.3573"/>
</g>
<!-- GO:0016829 -->
<g id="node13" class="node">
<title>GO:0016829</title>
<polygon fill="#ffffff" stroke="#000000" points="418.6428,-358.2019 328.13,-358.2019 328.13,-316.9981 418.6428,-316.9981 418.6428,-358.2019"/>
<text text-anchor="middle" x="373.3864" y="-341.8" font-family="Times,serif" font-size="14.00" fill="#000000">GO:0016829</text>
<text text-anchor="middle" x="373.3864" y="-325" font-family="Times,serif" font-size="14.00" fill="#000000">lyase activity</text>
</g>
<!-- GO:0016830&#45;&gt;GO:0016829 -->
<g id="edge11" class="edge">
<title>GO:0016830&#45;&gt;GO:0016829</title>
<path fill="none" stroke="#000000" d="M366.172,-281.1963C367.2294,-289.4638 368.3809,-298.4657 369.447,-306.8008"/>
<polygon fill="#000000" stroke="#000000" points="365.9977,-307.4214 370.7383,-316.8966 372.9412,-306.5333 365.9977,-307.4214"/>
</g>
<!-- GO:0016829&#45;&gt;GO:0003824 -->
<g id="edge12" class="edge">
<title>GO:0016829&#45;&gt;GO:0003824</title>
<path fill="none" stroke="#000000" d="M392.9491,-358.3954C401.2136,-367.1807 410.9667,-377.5484 419.8633,-387.0056"/>
<polygon fill="#000000" stroke="#000000" points="417.3685,-389.4617 426.7697,-394.3472 422.4671,-384.6654 417.3685,-389.4617"/>
</g>
<!-- GO:0016831 -->
<g id="node14" class="node">
<title>GO:0016831</title>
<polygon fill="#ffffff" stroke="#000000" points="434.3928,-161.0019 294.38,-161.0019 294.38,-119.7981 434.3928,-119.7981 434.3928,-161.0019"/>
<text text-anchor="middle" x="364.3864" y="-144.6" font-family="Times,serif" font-size="14.00" fill="#000000">GO:0016831</text>
<text text-anchor="middle" x="364.3864" y="-127.8" font-family="Times,serif" font-size="14.00" fill="#000000">carboxy&#45;lyase activity</text>
</g>
<!-- GO:0016831&#45;&gt;GO:0016830 -->
<g id="edge13" class="edge">
<title>GO:0016831&#45;&gt;GO:0016830</title>
<path fill="none" stroke="#000000" d="M364.0149,-161.0553C363.7586,-175.307 363.4096,-194.7101 363.1004,-211.8996"/>
<polygon fill="#000000" stroke="#000000" points="359.5948,-212.1892 362.9143,-222.2506 366.5936,-212.3152 359.5948,-212.1892"/>
</g>
<!-- GO:0004736 -->
<g id="node15" class="node">
<title>GO:0004736</title>
<polygon fill="#ffffff" stroke="#000000" points="588.2214,-169.8014 452.5514,-169.8014 452.5514,-110.9986 588.2214,-110.9986 588.2214,-169.8014"/>
<text text-anchor="middle" x="520.3864" y="-153" font-family="Times,serif" font-size="14.00" fill="#000000">GO:0004736</text>
<text text-anchor="middle" x="520.3864" y="-136.2" font-family="Times,serif" font-size="14.00" fill="#000000">pyruvate carboxylase</text>
<text text-anchor="middle" x="520.3864" y="-119.4" font-family="Times,serif" font-size="14.00" fill="#000000">activity</text>
</g>
<!-- GO:0016885 -->
<g id="node16" class="node">
<title>GO:0016885</title>
<polygon fill="#ffffff" stroke="#000000" points="591.6356,-281.0014 445.1372,-281.0014 445.1372,-222.1986 591.6356,-222.1986 591.6356,-281.0014"/>
<text text-anchor="middle" x="518.3864" y="-264.2" font-family="Times,serif" font-size="14.00" fill="#000000">GO:0016885</text>
<text text-anchor="middle" x="518.3864" y="-247.4" font-family="Times,serif" font-size="14.00" fill="#000000">ligase activity, forming</text>
<text text-anchor="middle" x="518.3864" y="-230.6" font-family="Times,serif" font-size="14.00" fill="#000000">carbon&#45;carbon bonds</text>
</g>
<!-- GO:0004736&#45;&gt;GO:0016885 -->
<g id="edge14" class="edge">
<title>GO:0004736&#45;&gt;GO:0016885</title>
<path fill="none" stroke="#000000" d="M519.8609,-169.6165C519.6285,-182.5386 519.3516,-197.9358 519.1008,-211.8788"/>
<polygon fill="#000000" stroke="#000000" points="515.5958,-212.1312 518.9153,-222.1926 522.5947,-212.2571 515.5958,-212.1312"/>
</g>
<!-- GO:0016874 -->
<g id="node17" class="node">
<title>GO:0016874</title>
<polygon fill="#ffffff" stroke="#000000" points="553.5331,-358.2019 459.2397,-358.2019 459.2397,-316.9981 553.5331,-316.9981 553.5331,-358.2019"/>
<text text-anchor="middle" x="506.3864" y="-341.8" font-family="Times,serif" font-size="14.00" fill="#000000">GO:0016874</text>
<text text-anchor="middle" x="506.3864" y="-325" font-family="Times,serif" font-size="14.00" fill="#000000">ligase activity</text>
</g>
<!-- GO:0016885&#45;&gt;GO:0016874 -->
<g id="edge15" class="edge">
<title>GO:0016885&#45;&gt;GO:0016874</title>
<path fill="none" stroke="#000000" d="M514.2567,-281.1963C513.1031,-289.4638 511.847,-298.4657 510.684,-306.8008"/>
<polygon fill="#000000" stroke="#000000" points="507.1909,-306.5088 509.2753,-316.8966 514.1237,-307.4762 507.1909,-306.5088"/>
</g>
<!-- GO:0016874&#45;&gt;GO:0003824 -->
<g id="edge16" class="edge">
<title>GO:0016874&#45;&gt;GO:0003824</title>
<path fill="none" stroke="#000000" d="M490.3075,-358.3954C483.7165,-366.9197 475.9736,-376.9339 468.8396,-386.1605"/>
<polygon fill="#000000" stroke="#000000" points="465.8576,-384.2953 462.5097,-394.3472 471.3954,-388.577 465.8576,-384.2953"/>
</g>
<!-- GO:0003852 -->
<g id="node18" class="node">
<title>GO:0003852</title>
<polygon fill="#ffffff" stroke="#000000" points="671.2491,-58.6014 553.5237,-58.6014 553.5237,.2014 671.2491,.2014 671.2491,-58.6014"/>
<text text-anchor="middle" x="612.3864" y="-41.8" font-family="Times,serif" font-size="14.00" fill="#000000">GO:0003852</text>
<text text-anchor="middle" x="612.3864" y="-25" font-family="Times,serif" font-size="14.00" fill="#000000">2&#45;isopropylmalate</text>
<text text-anchor="middle" x="612.3864" y="-8.2" font-family="Times,serif" font-size="14.00" fill="#000000">synthase activity</text>
</g>
<!-- GO:0003852&#45;&gt;GO:0046912 -->
<g id="edge17" class="edge">
<title>GO:0003852&#45;&gt;GO:0046912</title>
<path fill="none" stroke="#000000" d="M631.3036,-58.4165C636.7265,-66.7919 642.8227,-76.2071 648.8994,-85.5922"/>
<polygon fill="#000000" stroke="#000000" points="646.0816,-87.6802 654.4546,-94.1721 651.9575,-83.8757 646.0816,-87.6802"/>
</g>
<!-- GO:0004410 -->
<g id="node19" class="node">
<title>GO:0004410</title>
<polygon fill="#ffffff" stroke="#000000" points="823.4629,-58.6014 689.3099,-58.6014 689.3099,.2014 823.4629,.2014 823.4629,-58.6014"/>
<text text-anchor="middle" x="756.3864" y="-41.8" font-family="Times,serif" font-size="14.00" fill="#000000">GO:0004410</text>
<text text-anchor="middle" x="756.3864" y="-25" font-family="Times,serif" font-size="14.00" fill="#000000">homocitrate synthase</text>
<text text-anchor="middle" x="756.3864" y="-8.2" font-family="Times,serif" font-size="14.00" fill="#000000">activity</text>
</g>
<!-- GO:0004410&#45;&gt;GO:0046912 -->
<g id="edge18" class="edge">
<title>GO:0004410&#45;&gt;GO:0046912</title>
<path fill="none" stroke="#000000" d="M737.4692,-58.4165C732.0463,-66.7919 725.9501,-76.2071 719.8734,-85.5922"/>
<polygon fill="#000000" stroke="#000000" points="716.8153,-83.8757 714.3182,-94.1721 722.6912,-87.6802 716.8153,-83.8757"/>
</g>
</g>
</svg>
