<?xml version="1.0" encoding="UTF-8" standalone="no"?>
<!DOCTYPE svg PUBLIC "-//W3C//DTD SVG 1.1//EN"
 "http://www.w3.org/Graphics/SVG/1.1/DTD/svg11.dtd">
<!-- Generated by graphviz version 2.40.1 (20161225.0304)
 -->
<!-- Title: G Pages: 1 -->
<svg width="574pt" height="505pt"
 viewBox="0.00 0.00 573.67 504.80" xmlns="http://www.w3.org/2000/svg" xmlns:xlink="http://www.w3.org/1999/xlink">
<g id="graph0" class="graph" transform="scale(1 1) rotate(0) translate(4 500.8)">
<title>G</title>
<polygon fill="#ffffff" stroke="transparent" points="-4,4 -4,-500.8 569.674,-500.8 569.674,4 -4,4"/>
<!-- GO:0005737 -->
<g id="node1" class="node">
<title>GO:0005737</title>
<polygon fill="#ffffff" stroke="#000000" points="155.2975,-238.6019 66.0897,-238.6019 66.0897,-197.3981 155.2975,-197.3981 155.2975,-238.6019"/>
<text text-anchor="middle" x="110.6936" y="-222.2" font-family="Times,serif" font-size="14.00" fill="#000000">GO:0005737</text>
<text text-anchor="middle" x="110.6936" y="-205.4" font-family="Times,serif" font-size="14.00" fill="#000000">cytoplasm</text>
</g>
<!-- GO:0044424 -->
<g id="node2" class="node">
<title>GO:0044424</title>
<polygon fill="#ffffff" stroke="#000000" points="222.092,-333.0019 113.2952,-333.0019 113.2952,-291.7981 222.092,-291.7981 222.092,-333.0019"/>
<text text-anchor="middle" x="167.6936" y="-316.6" font-family="Times,serif" font-size="14.00" fill="#000000">GO:0044424</text>
<text text-anchor="middle" x="167.6936" y="-299.8" font-family="Times,serif" font-size="14.00" fill="#000000">intracellular part</text>
</g>
<!-- GO:0005737&#45;&gt;GO:0044424 -->
<g id="edge1" class="edge">
<title>GO:0005737&#45;&gt;GO:0044424</title>
<path fill="none" stroke="#000000" d="M123.3437,-238.9504C131.0923,-251.7831 141.1328,-268.4116 149.7003,-282.6006"/>
<polygon fill="#000000" stroke="#000000" points="146.9136,-284.7568 155.0788,-291.5081 152.906,-281.1385 146.9136,-284.7568"/>
</g>
<!-- GO:0044464 -->
<g id="node3" class="node">
<title>GO:0044464</title>
<polygon fill="#ffffff" stroke="#000000" points="384.2975,-419.0019 295.0897,-419.0019 295.0897,-377.7981 384.2975,-377.7981 384.2975,-419.0019"/>
<text text-anchor="middle" x="339.6936" y="-402.6" font-family="Times,serif" font-size="14.00" fill="#000000">GO:0044464</text>
<text text-anchor="middle" x="339.6936" y="-385.8" font-family="Times,serif" font-size="14.00" fill="#000000">cell part</text>
</g>
<!-- GO:0044424&#45;&gt;GO:0044464 -->
<g id="edge2" class="edge">
<title>GO:0044424&#45;&gt;GO:0044464</title>
<path fill="none" stroke="#000000" d="M209.33,-333.2182C233.4149,-345.2606 263.8925,-360.4994 289.3216,-373.214"/>
<polygon fill="#000000" stroke="#000000" points="287.9311,-376.4318 298.4406,-377.7735 291.0616,-370.1708 287.9311,-376.4318"/>
</g>
<!-- GO:0005575 -->
<g id="node4" class="node">
<title>GO:0005575</title>
<polygon fill="#ffffff" stroke="#000000" points="439.3803,-496.6019 312.0069,-496.6019 312.0069,-455.3981 439.3803,-455.3981 439.3803,-496.6019"/>
<text text-anchor="middle" x="375.6936" y="-480.2" font-family="Times,serif" font-size="14.00" fill="#000000">GO:0005575</text>
<text text-anchor="middle" x="375.6936" y="-463.4" font-family="Times,serif" font-size="14.00" fill="#000000">cellular_component</text>
</g>
<!-- GO:0044464&#45;&gt;GO:0005575 -->
<g id="edge3" class="edge">
<title>GO:0044464&#45;&gt;GO:0005575</title>
<path fill="none" stroke="#000000" d="M349.3409,-419.1954C353.1341,-427.3718 357.5632,-436.9189 361.6958,-445.827"/>
<polygon fill="#000000" stroke="#000000" points="358.6362,-447.5488 366.0196,-455.1472 364.9862,-444.6029 358.6362,-447.5488"/>
</g>
<!-- GO:0005618 -->
<g id="node5" class="node">
<title>GO:0005618</title>
<polygon fill="#ffffff" stroke="#000000" points="419.2975,-238.6019 330.0897,-238.6019 330.0897,-197.3981 419.2975,-197.3981 419.2975,-238.6019"/>
<text text-anchor="middle" x="374.6936" y="-222.2" font-family="Times,serif" font-size="14.00" fill="#000000">GO:0005618</text>
<text text-anchor="middle" x="374.6936" y="-205.4" font-family="Times,serif" font-size="14.00" fill="#000000">cell wall</text>
</g>
<!-- GO:0030312 -->
<g id="node6" class="node">
<title>GO:0030312</title>
<polygon fill="#ffffff" stroke="#000000" points="410.2547,-341.8014 269.1325,-341.8014 269.1325,-282.9986 410.2547,-282.9986 410.2547,-341.8014"/>
<text text-anchor="middle" x="339.6936" y="-325" font-family="Times,serif" font-size="14.00" fill="#000000">GO:0030312</text>
<text text-anchor="middle" x="339.6936" y="-308.2" font-family="Times,serif" font-size="14.00" fill="#000000">external encapsulating</text>
<text text-anchor="middle" x="339.6936" y="-291.4" font-family="Times,serif" font-size="14.00" fill="#000000">structure</text>
</g>
<!-- GO:0005618&#45;&gt;GO:0030312 -->
<g id="edge4" class="edge">
<title>GO:0005618&#45;&gt;GO:0030312</title>
<path fill="none" stroke="#000000" d="M366.926,-238.9504C363.1813,-249.0502 358.565,-261.5012 354.2039,-273.2637"/>
<polygon fill="#000000" stroke="#000000" points="350.8201,-272.3225 350.6253,-282.9155 357.3835,-274.756 350.8201,-272.3225"/>
</g>
<!-- GO:0030312&#45;&gt;GO:0044464 -->
<g id="edge5" class="edge">
<title>GO:0030312&#45;&gt;GO:0044464</title>
<path fill="none" stroke="#000000" d="M339.6936,-341.9963C339.6936,-350.2638 339.6936,-359.2657 339.6936,-367.6008"/>
<polygon fill="#000000" stroke="#000000" points="336.1937,-367.6965 339.6936,-377.6966 343.1937,-367.6966 336.1937,-367.6965"/>
</g>
<!-- GO:0048471 -->
<g id="node7" class="node">
<title>GO:0048471</title>
<polygon fill="#ffffff" stroke="#000000" points="133.5814,-58.6014 -.1942,-58.6014 -.1942,.2014 133.5814,.2014 133.5814,-58.6014"/>
<text text-anchor="middle" x="66.6936" y="-41.8" font-family="Times,serif" font-size="14.00" fill="#000000">GO:0048471</text>
<text text-anchor="middle" x="66.6936" y="-25" font-family="Times,serif" font-size="14.00" fill="#000000">perinuclear region of</text>
<text text-anchor="middle" x="66.6936" y="-8.2" font-family="Times,serif" font-size="14.00" fill="#000000">cytoplasm</text>
</g>
<!-- GO:0044444 -->
<g id="node8" class="node">
<title>GO:0044444</title>
<polygon fill="#ffffff" stroke="#000000" points="121.1102,-144.2019 12.277,-144.2019 12.277,-102.9981 121.1102,-102.9981 121.1102,-144.2019"/>
<text text-anchor="middle" x="66.6936" y="-127.8" font-family="Times,serif" font-size="14.00" fill="#000000">GO:0044444</text>
<text text-anchor="middle" x="66.6936" y="-111" font-family="Times,serif" font-size="14.00" fill="#000000">cytoplasmic part</text>
</g>
<!-- GO:0048471&#45;&gt;GO:0044444 -->
<g id="edge6" class="edge">
<title>GO:0048471&#45;&gt;GO:0044444</title>
<path fill="none" stroke="#000000" d="M66.6936,-58.5513C66.6936,-69.4614 66.6936,-81.8637 66.6936,-92.892"/>
<polygon fill="#000000" stroke="#000000" points="63.1937,-92.9509 66.6936,-102.951 70.1937,-92.951 63.1937,-92.9509"/>
</g>
<!-- GO:0044444&#45;&gt;GO:0044424 -->
<g id="edge7" class="edge">
<title>GO:0044444&#45;&gt;GO:0044424</title>
<path fill="none" stroke="#000000" d="M58.2289,-144.4093C49.1366,-170.315 38.2994,-215.0628 56.6936,-247.2 67.2839,-265.7028 85.3938,-279.4693 103.9489,-289.4602"/>
<polygon fill="#000000" stroke="#000000" points="102.5588,-292.6792 113.0625,-294.0657 105.716,-286.4316 102.5588,-292.6792"/>
</g>
<!-- GO:0005739 -->
<g id="node9" class="node">
<title>GO:0005739</title>
<polygon fill="#ffffff" stroke="#000000" points="257.1322,-49.8019 158.255,-49.8019 158.255,-8.5981 257.1322,-8.5981 257.1322,-49.8019"/>
<text text-anchor="middle" x="207.6936" y="-33.4" font-family="Times,serif" font-size="14.00" fill="#000000">GO:0005739</text>
<text text-anchor="middle" x="207.6936" y="-16.6" font-family="Times,serif" font-size="14.00" fill="#000000">mitochondrion</text>
</g>
<!-- GO:0005739&#45;&gt;GO:0044444 -->
<g id="edge8" class="edge">
<title>GO:0005739&#45;&gt;GO:0044444</title>
<path fill="none" stroke="#000000" d="M176.7506,-49.9165C155.9965,-63.8114 128.4801,-82.2337 106.1534,-97.1815"/>
<polygon fill="#000000" stroke="#000000" points="103.9269,-94.4601 97.5645,-102.9318 107.8213,-100.2769 103.9269,-94.4601"/>
</g>
<!-- GO:0043231 -->
<g id="node10" class="node">
<title>GO:0043231</title>
<polygon fill="#ffffff" stroke="#000000" points="318.0724,-153.0014 167.3148,-153.0014 167.3148,-94.1986 318.0724,-94.1986 318.0724,-153.0014"/>
<text text-anchor="middle" x="242.6936" y="-136.2" font-family="Times,serif" font-size="14.00" fill="#000000">GO:0043231</text>
<text text-anchor="middle" x="242.6936" y="-119.4" font-family="Times,serif" font-size="14.00" fill="#000000">intracellular membrane&#45;</text>
<text text-anchor="middle" x="242.6936" y="-102.6" font-family="Times,serif" font-size="14.00" fill="#000000">bounded organelle</text>
</g>
<!-- GO:0005739&#45;&gt;GO:0043231 -->
<g id="edge9" class="edge">
<title>GO:0005739&#45;&gt;GO:0043231</title>
<path fill="none" stroke="#000000" d="M215.4612,-50.1504C219.2059,-60.2502 223.8222,-72.7012 228.1833,-84.4637"/>
<polygon fill="#000000" stroke="#000000" points="225.0037,-85.956 231.7619,-94.1155 231.5671,-83.5225 225.0037,-85.956"/>
</g>
<!-- GO:0043229 -->
<g id="node11" class="node">
<title>GO:0043229</title>
<polygon fill="#ffffff" stroke="#000000" points="312.412,-238.6019 172.9752,-238.6019 172.9752,-197.3981 312.412,-197.3981 312.412,-238.6019"/>
<text text-anchor="middle" x="242.6936" y="-222.2" font-family="Times,serif" font-size="14.00" fill="#000000">GO:0043229</text>
<text text-anchor="middle" x="242.6936" y="-205.4" font-family="Times,serif" font-size="14.00" fill="#000000">intracellular organelle</text>
</g>
<!-- GO:0043231&#45;&gt;GO:0043229 -->
<g id="edge10" class="edge">
<title>GO:0043231&#45;&gt;GO:0043229</title>
<path fill="none" stroke="#000000" d="M242.6936,-152.9513C242.6936,-163.8614 242.6936,-176.2637 242.6936,-187.292"/>
<polygon fill="#000000" stroke="#000000" points="239.1937,-187.3509 242.6936,-197.351 246.1937,-187.351 239.1937,-187.3509"/>
</g>
<!-- GO:0043227 -->
<g id="node12" class="node">
<title>GO:0043227</title>
<polygon fill="#ffffff" stroke="#000000" points="565.6544,-247.4014 437.7328,-247.4014 437.7328,-188.5986 565.6544,-188.5986 565.6544,-247.4014"/>
<text text-anchor="middle" x="501.6936" y="-230.6" font-family="Times,serif" font-size="14.00" fill="#000000">GO:0043227</text>
<text text-anchor="middle" x="501.6936" y="-213.8" font-family="Times,serif" font-size="14.00" fill="#000000">membrane&#45;bounded</text>
<text text-anchor="middle" x="501.6936" y="-197" font-family="Times,serif" font-size="14.00" fill="#000000">organelle</text>
</g>
<!-- GO:0043231&#45;&gt;GO:0043227 -->
<g id="edge11" class="edge">
<title>GO:0043231&#45;&gt;GO:0043227</title>
<path fill="none" stroke="#000000" d="M318.0768,-149.1933C349.6213,-160.1013 386.8293,-173.2236 428.2026,-188.662"/>
<polygon fill="#000000" stroke="#000000" points="427.0683,-191.9746 437.6606,-192.2047 429.5237,-185.4193 427.0683,-191.9746"/>
</g>
<!-- GO:0043229&#45;&gt;GO:0044424 -->
<g id="edge12" class="edge">
<title>GO:0043229&#45;&gt;GO:0044424</title>
<path fill="none" stroke="#000000" d="M226.0487,-238.9504C215.659,-252.0276 202.1376,-269.0464 190.7269,-283.4087"/>
<polygon fill="#000000" stroke="#000000" points="187.7723,-281.5012 184.292,-291.5081 193.2531,-285.8557 187.7723,-281.5012"/>
</g>
<!-- GO:0043226 -->
<g id="node13" class="node">
<title>GO:0043226</title>
<polygon fill="#ffffff" stroke="#000000" points="517.2975,-333.0019 428.0897,-333.0019 428.0897,-291.7981 517.2975,-291.7981 517.2975,-333.0019"/>
<text text-anchor="middle" x="472.6936" y="-316.6" font-family="Times,serif" font-size="14.00" fill="#000000">GO:0043226</text>
<text text-anchor="middle" x="472.6936" y="-299.8" font-family="Times,serif" font-size="14.00" fill="#000000">organelle</text>
</g>
<!-- GO:0043229&#45;&gt;GO:0043226 -->
<g id="edge13" class="edge">
<title>GO:0043229&#45;&gt;GO:0043226</title>
<path fill="none" stroke="#000000" d="M297.6412,-238.6442C305.3772,-241.5291 313.2326,-244.447 320.6936,-247.2 364.6176,-263.4074 377.0625,-263.8458 419.6936,-283.2 422.3391,-284.4011 425.0316,-285.6834 427.7301,-287.0155"/>
<polygon fill="#000000" stroke="#000000" points="426.3711,-290.2516 436.8679,-291.69 429.5592,-284.0197 426.3711,-290.2516"/>
</g>
<!-- GO:0043227&#45;&gt;GO:0043226 -->
<g id="edge14" class="edge">
<title>GO:0043227&#45;&gt;GO:0043226</title>
<path fill="none" stroke="#000000" d="M492.6768,-247.3513C489.2906,-258.3739 485.4365,-270.9196 482.0226,-282.0326"/>
<polygon fill="#000000" stroke="#000000" points="478.628,-281.164 479.037,-291.751 485.3194,-283.2197 478.628,-281.164"/>
</g>
<!-- GO:0043226&#45;&gt;GO:0005575 -->
<g id="edge15" class="edge">
<title>GO:0043226&#45;&gt;GO:0005575</title>
<path fill="none" stroke="#000000" d="M460.4085,-333.1201C443.4002,-361.8063 412.5866,-413.7764 393.1815,-446.5049"/>
<polygon fill="#000000" stroke="#000000" points="390.1213,-444.8037 388.0318,-455.1904 396.1425,-448.3737 390.1213,-444.8037"/>
</g>
</g>
</svg>
