<?xml version="1.0" encoding="UTF-8" standalone="no"?>
<!DOCTYPE svg PUBLIC "-//W3C//DTD SVG 1.1//EN"
 "http://www.w3.org/Graphics/SVG/1.1/DTD/svg11.dtd">
<!-- Generated by graphviz version 2.40.1 (20161225.0304)
 -->
<!-- Title: G Pages: 1 -->
<svg width="795pt" height="710pt"
 viewBox="0.00 0.00 795.18 710.40" xmlns="http://www.w3.org/2000/svg" xmlns:xlink="http://www.w3.org/1999/xlink">
<g id="graph0" class="graph" transform="scale(1 1) rotate(0) translate(4 706.4)">
<title>G</title>
<polygon fill="#ffffff" stroke="transparent" points="-4,4 -4,-706.4 791.1817,-706.4 791.1817,4 -4,4"/>
<!-- GO:0046834 -->
<g id="node1" class="node">
<title>GO:0046834</title>
<polygon fill="#ffffff" stroke="#000000" points="298.0026,-144.2019 161.6756,-144.2019 161.6756,-102.9981 298.0026,-102.9981 298.0026,-144.2019"/>
<text text-anchor="middle" x="229.8391" y="-127.8" font-family="Times,serif" font-size="14.00" fill="#000000">GO:0046834</text>
<text text-anchor="middle" x="229.8391" y="-111" font-family="Times,serif" font-size="14.00" fill="#000000">lipid phosphorylation</text>
</g>
<!-- GO:0016310 -->
<g id="node2" class="node">
<title>GO:0016310</title>
<polygon fill="#ffffff" stroke="#000000" points="432.3307,-238.6019 325.3475,-238.6019 325.3475,-197.3981 432.3307,-197.3981 432.3307,-238.6019"/>
<text text-anchor="middle" x="378.8391" y="-222.2" font-family="Times,serif" font-size="14.00" fill="#000000">GO:0016310</text>
<text text-anchor="middle" x="378.8391" y="-205.4" font-family="Times,serif" font-size="14.00" fill="#000000">phosphorylation</text>
</g>
<!-- GO:0046834&#45;&gt;GO:0016310 -->
<g id="edge1" class="edge">
<title>GO:0046834&#45;&gt;GO:0016310</title>
<path fill="none" stroke="#000000" d="M262.5378,-144.3165C284.6635,-158.3344 314.0622,-176.9601 337.7656,-191.9776"/>
<polygon fill="#000000" stroke="#000000" points="335.8962,-194.9365 346.2167,-197.3318 339.6425,-189.0234 335.8962,-194.9365"/>
</g>
<!-- GO:0030258 -->
<g id="node3" class="node">
<title>GO:0030258</title>
<polygon fill="#ffffff" stroke="#000000" points="146.054,-238.6019 29.6242,-238.6019 29.6242,-197.3981 146.054,-197.3981 146.054,-238.6019"/>
<text text-anchor="middle" x="87.8391" y="-222.2" font-family="Times,serif" font-size="14.00" fill="#000000">GO:0030258</text>
<text text-anchor="middle" x="87.8391" y="-205.4" font-family="Times,serif" font-size="14.00" fill="#000000">lipid modification</text>
</g>
<!-- GO:0046834&#45;&gt;GO:0030258 -->
<g id="edge2" class="edge">
<title>GO:0046834&#45;&gt;GO:0030258</title>
<path fill="none" stroke="#000000" d="M198.6766,-144.3165C177.6828,-158.2729 149.8185,-176.7968 127.2806,-191.7798"/>
<polygon fill="#000000" stroke="#000000" points="125.319,-188.8809 118.9289,-197.3318 129.1943,-194.7103 125.319,-188.8809"/>
</g>
<!-- GO:0006796 -->
<g id="node4" class="node">
<title>GO:0006796</title>
<polygon fill="#ffffff" stroke="#000000" points="454.8659,-358.5003 318.8123,-358.5003 318.8123,-283.0997 454.8659,-283.0997 454.8659,-358.5003"/>
<text text-anchor="middle" x="386.8391" y="-341.8" font-family="Times,serif" font-size="14.00" fill="#000000">GO:0006796</text>
<text text-anchor="middle" x="386.8391" y="-325" font-family="Times,serif" font-size="14.00" fill="#000000">phosphate&#45;containing</text>
<text text-anchor="middle" x="386.8391" y="-308.2" font-family="Times,serif" font-size="14.00" fill="#000000">compound metabolic</text>
<text text-anchor="middle" x="386.8391" y="-291.4" font-family="Times,serif" font-size="14.00" fill="#000000">process</text>
</g>
<!-- GO:0016310&#45;&gt;GO:0006796 -->
<g id="edge3" class="edge">
<title>GO:0016310&#45;&gt;GO:0006796</title>
<path fill="none" stroke="#000000" d="M380.458,-238.8031C381.2285,-248.7035 382.1842,-260.985 383.1195,-273.0026"/>
<polygon fill="#000000" stroke="#000000" points="379.6303,-273.279 383.8957,-282.9773 386.6092,-272.7358 379.6303,-273.279"/>
</g>
<!-- GO:0044255 -->
<g id="node5" class="node">
<title>GO:0044255</title>
<polygon fill="#ffffff" stroke="#000000" points="300.6934,-350.2014 154.9848,-350.2014 154.9848,-291.3986 300.6934,-291.3986 300.6934,-350.2014"/>
<text text-anchor="middle" x="227.8391" y="-333.4" font-family="Times,serif" font-size="14.00" fill="#000000">GO:0044255</text>
<text text-anchor="middle" x="227.8391" y="-316.6" font-family="Times,serif" font-size="14.00" fill="#000000">cellular lipid metabolic</text>
<text text-anchor="middle" x="227.8391" y="-299.8" font-family="Times,serif" font-size="14.00" fill="#000000">process</text>
</g>
<!-- GO:0030258&#45;&gt;GO:0044255 -->
<g id="edge4" class="edge">
<title>GO:0030258&#45;&gt;GO:0044255</title>
<path fill="none" stroke="#000000" d="M116.1702,-238.8031C134.3685,-252.1659 158.4744,-269.8665 179.6305,-285.4011"/>
<polygon fill="#000000" stroke="#000000" points="177.7469,-288.3602 187.8788,-291.4577 181.8899,-282.7179 177.7469,-288.3602"/>
</g>
<!-- GO:0006793 -->
<g id="node6" class="node">
<title>GO:0006793</title>
<polygon fill="#ffffff" stroke="#000000" points="456.5953,-453.0014 317.0829,-453.0014 317.0829,-394.1986 456.5953,-394.1986 456.5953,-453.0014"/>
<text text-anchor="middle" x="386.8391" y="-436.2" font-family="Times,serif" font-size="14.00" fill="#000000">GO:0006793</text>
<text text-anchor="middle" x="386.8391" y="-419.4" font-family="Times,serif" font-size="14.00" fill="#000000">phosphorus metabolic</text>
<text text-anchor="middle" x="386.8391" y="-402.6" font-family="Times,serif" font-size="14.00" fill="#000000">process</text>
</g>
<!-- GO:0006796&#45;&gt;GO:0006793 -->
<g id="edge5" class="edge">
<title>GO:0006796&#45;&gt;GO:0006793</title>
<path fill="none" stroke="#000000" d="M386.8391,-358.4952C386.8391,-366.8874 386.8391,-375.8054 386.8391,-384.2618"/>
<polygon fill="#000000" stroke="#000000" points="383.3392,-384.2813 386.8391,-394.2814 390.3392,-384.2814 383.3392,-384.2813"/>
</g>
<!-- GO:0044763 -->
<g id="node7" class="node">
<title>GO:0044763</title>
<polygon fill="#ffffff" stroke="#000000" points="151.5176,-547.4014 .1606,-547.4014 .1606,-488.5986 151.5176,-488.5986 151.5176,-547.4014"/>
<text text-anchor="middle" x="75.8391" y="-530.6" font-family="Times,serif" font-size="14.00" fill="#000000">GO:0044763</text>
<text text-anchor="middle" x="75.8391" y="-513.8" font-family="Times,serif" font-size="14.00" fill="#000000">single&#45;organism cellular</text>
<text text-anchor="middle" x="75.8391" y="-497" font-family="Times,serif" font-size="14.00" fill="#000000">process</text>
</g>
<!-- GO:0044255&#45;&gt;GO:0044763 -->
<g id="edge6" class="edge">
<title>GO:0044255&#45;&gt;GO:0044763</title>
<path fill="none" stroke="#000000" d="M205.0832,-350.3228C178.3659,-384.985 134.0065,-442.5354 104.8438,-480.3702"/>
<polygon fill="#000000" stroke="#000000" points="101.8348,-478.5408 98.502,-488.5978 107.379,-482.8143 101.8348,-478.5408"/>
</g>
<!-- GO:0006629 -->
<g id="node8" class="node">
<title>GO:0006629</title>
<polygon fill="#ffffff" stroke="#000000" points="631.6962,-444.2019 485.982,-444.2019 485.982,-402.9981 631.6962,-402.9981 631.6962,-444.2019"/>
<text text-anchor="middle" x="558.8391" y="-427.8" font-family="Times,serif" font-size="14.00" fill="#000000">GO:0006629</text>
<text text-anchor="middle" x="558.8391" y="-411" font-family="Times,serif" font-size="14.00" fill="#000000">lipid metabolic process</text>
</g>
<!-- GO:0044255&#45;&gt;GO:0006629 -->
<g id="edge7" class="edge">
<title>GO:0044255&#45;&gt;GO:0006629</title>
<path fill="none" stroke="#000000" d="M288.1791,-350.1287C295.3931,-353.1386 302.7233,-355.9757 309.8391,-358.4 377.1929,-381.3473 397.177,-375.7283 465.8391,-394.4 472.3124,-396.1603 479.0109,-398.0756 485.7095,-400.0557"/>
<polygon fill="#000000" stroke="#000000" points="484.9138,-403.471 495.4978,-402.9926 486.9255,-396.7663 484.9138,-403.471"/>
</g>
<!-- GO:0044237 -->
<g id="node9" class="node">
<title>GO:0044237</title>
<polygon fill="#ffffff" stroke="#000000" points="286.0219,-547.4014 169.6563,-547.4014 169.6563,-488.5986 286.0219,-488.5986 286.0219,-547.4014"/>
<text text-anchor="middle" x="227.8391" y="-530.6" font-family="Times,serif" font-size="14.00" fill="#000000">GO:0044237</text>
<text text-anchor="middle" x="227.8391" y="-513.8" font-family="Times,serif" font-size="14.00" fill="#000000">cellular metabolic</text>
<text text-anchor="middle" x="227.8391" y="-497" font-family="Times,serif" font-size="14.00" fill="#000000">process</text>
</g>
<!-- GO:0044255&#45;&gt;GO:0044237 -->
<g id="edge8" class="edge">
<title>GO:0044255&#45;&gt;GO:0044237</title>
<path fill="none" stroke="#000000" d="M227.8391,-350.3228C227.8391,-384.4024 227.8391,-440.6074 227.8391,-478.4461"/>
<polygon fill="#000000" stroke="#000000" points="224.3392,-478.5978 227.8391,-488.5978 231.3392,-478.5979 224.3392,-478.5978"/>
</g>
<!-- GO:0006793&#45;&gt;GO:0044237 -->
<g id="edge9" class="edge">
<title>GO:0006793&#45;&gt;GO:0044237</title>
<path fill="none" stroke="#000000" d="M337.4021,-452.9513C321.0998,-462.6301 302.8196,-473.4833 285.9319,-483.5097"/>
<polygon fill="#000000" stroke="#000000" points="284.0574,-480.5521 277.2455,-488.6669 287.6311,-486.5712 284.0574,-480.5521"/>
</g>
<!-- GO:0009987 -->
<g id="node10" class="node">
<title>GO:0009987</title>
<polygon fill="#ffffff" stroke="#000000" points="209.7953,-624.6019 105.8829,-624.6019 105.8829,-583.3981 209.7953,-583.3981 209.7953,-624.6019"/>
<text text-anchor="middle" x="157.8391" y="-608.2" font-family="Times,serif" font-size="14.00" fill="#000000">GO:0009987</text>
<text text-anchor="middle" x="157.8391" y="-591.4" font-family="Times,serif" font-size="14.00" fill="#000000">cellular process</text>
</g>
<!-- GO:0044763&#45;&gt;GO:0009987 -->
<g id="edge10" class="edge">
<title>GO:0044763&#45;&gt;GO:0009987</title>
<path fill="none" stroke="#000000" d="M104.0588,-547.5963C112.8176,-556.7824 122.441,-566.8752 131.0962,-575.9526"/>
<polygon fill="#000000" stroke="#000000" points="128.6647,-578.4744 138.0986,-583.2966 133.7309,-573.6439 128.6647,-578.4744"/>
</g>
<!-- GO:0044699 -->
<g id="node11" class="node">
<title>GO:0044699</title>
<polygon fill="#ffffff" stroke="#000000" points="379.5204,-624.6019 228.1578,-624.6019 228.1578,-583.3981 379.5204,-583.3981 379.5204,-624.6019"/>
<text text-anchor="middle" x="303.8391" y="-608.2" font-family="Times,serif" font-size="14.00" fill="#000000">GO:0044699</text>
<text text-anchor="middle" x="303.8391" y="-591.4" font-family="Times,serif" font-size="14.00" fill="#000000">single&#45;organism process</text>
</g>
<!-- GO:0044763&#45;&gt;GO:0044699 -->
<g id="edge11" class="edge">
<title>GO:0044763&#45;&gt;GO:0044699</title>
<path fill="none" stroke="#000000" d="M151.7598,-546.6368C180.266,-557.3891 212.3612,-569.4952 239.6945,-579.8051"/>
<polygon fill="#000000" stroke="#000000" points="238.5586,-583.1173 249.1504,-583.3718 241.0291,-576.5677 238.5586,-583.1173"/>
</g>
<!-- GO:0071704 -->
<g id="node12" class="node">
<title>GO:0071704</title>
<polygon fill="#ffffff" stroke="#000000" points="787.0247,-547.4014 670.6535,-547.4014 670.6535,-488.5986 787.0247,-488.5986 787.0247,-547.4014"/>
<text text-anchor="middle" x="728.8391" y="-530.6" font-family="Times,serif" font-size="14.00" fill="#000000">GO:0071704</text>
<text text-anchor="middle" x="728.8391" y="-513.8" font-family="Times,serif" font-size="14.00" fill="#000000">organic substance</text>
<text text-anchor="middle" x="728.8391" y="-497" font-family="Times,serif" font-size="14.00" fill="#000000">metabolic process</text>
</g>
<!-- GO:0006629&#45;&gt;GO:0071704 -->
<g id="edge12" class="edge">
<title>GO:0006629&#45;&gt;GO:0071704</title>
<path fill="none" stroke="#000000" d="M596.1463,-444.3165C616.9464,-455.8666 643.38,-470.545 667.1704,-483.7557"/>
<polygon fill="#000000" stroke="#000000" points="665.7,-486.9426 676.1417,-488.7374 669.0983,-480.8228 665.7,-486.9426"/>
</g>
<!-- GO:0044710 -->
<g id="node13" class="node">
<title>GO:0044710</title>
<polygon fill="#ffffff" stroke="#000000" points="469.2473,-547.4014 304.4309,-547.4014 304.4309,-488.5986 469.2473,-488.5986 469.2473,-547.4014"/>
<text text-anchor="middle" x="386.8391" y="-530.6" font-family="Times,serif" font-size="14.00" fill="#000000">GO:0044710</text>
<text text-anchor="middle" x="386.8391" y="-513.8" font-family="Times,serif" font-size="14.00" fill="#000000">single&#45;organism metabolic</text>
<text text-anchor="middle" x="386.8391" y="-497" font-family="Times,serif" font-size="14.00" fill="#000000">process</text>
</g>
<!-- GO:0006629&#45;&gt;GO:0044710 -->
<g id="edge13" class="edge">
<title>GO:0006629&#45;&gt;GO:0044710</title>
<path fill="none" stroke="#000000" d="M521.093,-444.3165C500.0482,-455.8666 473.3036,-470.545 449.2333,-483.7557"/>
<polygon fill="#000000" stroke="#000000" points="447.239,-480.8578 440.1565,-488.7374 450.607,-486.9943 447.239,-480.8578"/>
</g>
<!-- GO:0044238 -->
<g id="node14" class="node">
<title>GO:0044238</title>
<polygon fill="#ffffff" stroke="#000000" points="651.8421,-538.6019 487.8361,-538.6019 487.8361,-497.3981 651.8421,-497.3981 651.8421,-538.6019"/>
<text text-anchor="middle" x="569.8391" y="-522.2" font-family="Times,serif" font-size="14.00" fill="#000000">GO:0044238</text>
<text text-anchor="middle" x="569.8391" y="-505.4" font-family="Times,serif" font-size="14.00" fill="#000000">primary metabolic process</text>
</g>
<!-- GO:0006629&#45;&gt;GO:0044238 -->
<g id="edge14" class="edge">
<title>GO:0006629&#45;&gt;GO:0044238</title>
<path fill="none" stroke="#000000" d="M561.2804,-444.5504C562.733,-457.0165 564.603,-473.0645 566.2243,-486.9786"/>
<polygon fill="#000000" stroke="#000000" points="562.7707,-487.5805 567.4047,-497.1081 569.7236,-486.7702 562.7707,-487.5805"/>
</g>
<!-- GO:0044237&#45;&gt;GO:0009987 -->
<g id="edge15" class="edge">
<title>GO:0044237&#45;&gt;GO:0009987</title>
<path fill="none" stroke="#000000" d="M203.7491,-547.5963C196.4216,-556.5986 188.3853,-566.4719 181.1127,-575.4067"/>
<polygon fill="#000000" stroke="#000000" points="178.289,-573.3314 174.6907,-583.2966 183.718,-577.7504 178.289,-573.3314"/>
</g>
<!-- GO:0008152 -->
<g id="node15" class="node">
<title>GO:0008152</title>
<polygon fill="#ffffff" stroke="#000000" points="514.0247,-624.6019 397.6535,-624.6019 397.6535,-583.3981 514.0247,-583.3981 514.0247,-624.6019"/>
<text text-anchor="middle" x="455.8391" y="-608.2" font-family="Times,serif" font-size="14.00" fill="#000000">GO:0008152</text>
<text text-anchor="middle" x="455.8391" y="-591.4" font-family="Times,serif" font-size="14.00" fill="#000000">metabolic process</text>
</g>
<!-- GO:0044237&#45;&gt;GO:0008152 -->
<g id="edge16" class="edge">
<title>GO:0044237&#45;&gt;GO:0008152</title>
<path fill="none" stroke="#000000" d="M286.3454,-543.4071C289.5488,-544.7094 292.7288,-545.9816 295.8391,-547.2 325.7986,-558.9362 359.2999,-570.9912 387.8752,-580.9591"/>
<polygon fill="#000000" stroke="#000000" points="386.77,-584.2803 397.3648,-584.2561 389.0673,-577.668 386.77,-584.2803"/>
</g>
<!-- GO:0008150 -->
<g id="node16" class="node">
<title>GO:0008150</title>
<polygon fill="#ffffff" stroke="#000000" points="364.3097,-702.2019 243.3685,-702.2019 243.3685,-660.9981 364.3097,-660.9981 364.3097,-702.2019"/>
<text text-anchor="middle" x="303.8391" y="-685.8" font-family="Times,serif" font-size="14.00" fill="#000000">GO:0008150</text>
<text text-anchor="middle" x="303.8391" y="-669" font-family="Times,serif" font-size="14.00" fill="#000000">biological_process</text>
</g>
<!-- GO:0009987&#45;&gt;GO:0008150 -->
<g id="edge17" class="edge">
<title>GO:0009987&#45;&gt;GO:0008150</title>
<path fill="none" stroke="#000000" d="M196.9644,-624.7954C215.1211,-634.4458 236.8702,-646.0056 255.9949,-656.1705"/>
<polygon fill="#000000" stroke="#000000" points="254.3862,-659.2791 264.8591,-660.8819 257.6716,-653.0979 254.3862,-659.2791"/>
</g>
<!-- GO:0044699&#45;&gt;GO:0008150 -->
<g id="edge18" class="edge">
<title>GO:0044699&#45;&gt;GO:0008150</title>
<path fill="none" stroke="#000000" d="M303.8391,-624.7954C303.8391,-632.7109 303.8391,-641.9109 303.8391,-650.5722"/>
<polygon fill="#000000" stroke="#000000" points="300.3392,-650.7472 303.8391,-660.7472 307.3392,-650.7473 300.3392,-650.7472"/>
</g>
<!-- GO:0071704&#45;&gt;GO:0008152 -->
<g id="edge19" class="edge">
<title>GO:0071704&#45;&gt;GO:0008152</title>
<path fill="none" stroke="#000000" d="M670.4325,-543.6756C667.2034,-544.9087 663.9906,-546.0925 660.8391,-547.2 615.9365,-562.9801 564.2908,-577.2669 524.0707,-587.5648"/>
<polygon fill="#000000" stroke="#000000" points="523.1961,-584.1758 514.3651,-590.0294 524.919,-590.9604 523.1961,-584.1758"/>
</g>
<!-- GO:0044710&#45;&gt;GO:0044699 -->
<g id="edge21" class="edge">
<title>GO:0044710&#45;&gt;GO:0044699</title>
<path fill="none" stroke="#000000" d="M358.2752,-547.5963C349.4096,-556.7824 339.6688,-566.8752 330.9081,-575.9526"/>
<polygon fill="#000000" stroke="#000000" points="328.2464,-573.6705 323.8203,-583.2966 333.2832,-578.5316 328.2464,-573.6705"/>
</g>
<!-- GO:0044710&#45;&gt;GO:0008152 -->
<g id="edge20" class="edge">
<title>GO:0044710&#45;&gt;GO:0008152</title>
<path fill="none" stroke="#000000" d="M410.585,-547.5963C417.8078,-556.5986 425.7293,-566.4719 432.898,-575.4067"/>
<polygon fill="#000000" stroke="#000000" points="430.2402,-577.687 439.2282,-583.2966 435.7001,-573.3064 430.2402,-577.687"/>
</g>
<!-- GO:0044238&#45;&gt;GO:0008152 -->
<g id="edge22" class="edge">
<title>GO:0044238&#45;&gt;GO:0008152</title>
<path fill="none" stroke="#000000" d="M542.2429,-538.8182C526.9798,-550.3325 507.8432,-564.7688 491.4615,-577.1269"/>
<polygon fill="#000000" stroke="#000000" points="489.0565,-574.557 483.1812,-583.3735 493.2722,-580.1452 489.0565,-574.557"/>
</g>
<!-- GO:0008152&#45;&gt;GO:0008150 -->
<g id="edge23" class="edge">
<title>GO:0008152&#45;&gt;GO:0008150</title>
<path fill="none" stroke="#000000" d="M415.1059,-624.7954C396.1175,-634.4895 373.3551,-646.1102 353.3794,-656.3084"/>
<polygon fill="#000000" stroke="#000000" points="351.736,-653.2176 344.421,-660.8819 354.9189,-659.4521 351.736,-653.2176"/>
</g>
<!-- GO:0046488 -->
<g id="node17" class="node">
<title>GO:0046488</title>
<polygon fill="#ffffff" stroke="#000000" points="518.1775,-58.6014 387.5007,-58.6014 387.5007,.2014 518.1775,.2014 518.1775,-58.6014"/>
<text text-anchor="middle" x="452.8391" y="-41.8" font-family="Times,serif" font-size="14.00" fill="#000000">GO:0046488</text>
<text text-anchor="middle" x="452.8391" y="-25" font-family="Times,serif" font-size="14.00" fill="#000000">phosphatidylinositol</text>
<text text-anchor="middle" x="452.8391" y="-8.2" font-family="Times,serif" font-size="14.00" fill="#000000">metabolic process</text>
</g>
<!-- GO:0006650 -->
<g id="node18" class="node">
<title>GO:0006650</title>
<polygon fill="#ffffff" stroke="#000000" points="518.4359,-153.0014 387.2423,-153.0014 387.2423,-94.1986 518.4359,-94.1986 518.4359,-153.0014"/>
<text text-anchor="middle" x="452.8391" y="-136.2" font-family="Times,serif" font-size="14.00" fill="#000000">GO:0006650</text>
<text text-anchor="middle" x="452.8391" y="-119.4" font-family="Times,serif" font-size="14.00" fill="#000000">glycerophospholipid</text>
<text text-anchor="middle" x="452.8391" y="-102.6" font-family="Times,serif" font-size="14.00" fill="#000000">metabolic process</text>
</g>
<!-- GO:0046488&#45;&gt;GO:0006650 -->
<g id="edge24" class="edge">
<title>GO:0046488&#45;&gt;GO:0006650</title>
<path fill="none" stroke="#000000" d="M452.8391,-58.5513C452.8391,-66.6318 452.8391,-75.5308 452.8391,-84.0838"/>
<polygon fill="#000000" stroke="#000000" points="449.3392,-84.2668 452.8391,-94.2669 456.3392,-84.2669 449.3392,-84.2668"/>
</g>
<!-- GO:0046486 -->
<g id="node19" class="node">
<title>GO:0046486</title>
<polygon fill="#ffffff" stroke="#000000" points="307.198,-247.4014 164.4802,-247.4014 164.4802,-188.5986 307.198,-188.5986 307.198,-247.4014"/>
<text text-anchor="middle" x="235.8391" y="-230.6" font-family="Times,serif" font-size="14.00" fill="#000000">GO:0046486</text>
<text text-anchor="middle" x="235.8391" y="-213.8" font-family="Times,serif" font-size="14.00" fill="#000000">glycerolipid metabolic</text>
<text text-anchor="middle" x="235.8391" y="-197" font-family="Times,serif" font-size="14.00" fill="#000000">process</text>
</g>
<!-- GO:0006650&#45;&gt;GO:0046486 -->
<g id="edge25" class="edge">
<title>GO:0006650&#45;&gt;GO:0046486</title>
<path fill="none" stroke="#000000" d="M387.1431,-152.1793C363.5826,-162.4286 336.8152,-174.0731 312.413,-184.6886"/>
<polygon fill="#000000" stroke="#000000" points="310.9618,-181.503 303.1881,-188.7016 313.7542,-187.9219 310.9618,-181.503"/>
</g>
<!-- GO:0006644 -->
<g id="node20" class="node">
<title>GO:0006644</title>
<polygon fill="#ffffff" stroke="#000000" points="597.6618,-247.4014 450.0164,-247.4014 450.0164,-188.5986 597.6618,-188.5986 597.6618,-247.4014"/>
<text text-anchor="middle" x="523.8391" y="-230.6" font-family="Times,serif" font-size="14.00" fill="#000000">GO:0006644</text>
<text text-anchor="middle" x="523.8391" y="-213.8" font-family="Times,serif" font-size="14.00" fill="#000000">phospholipid metabolic</text>
<text text-anchor="middle" x="523.8391" y="-197" font-family="Times,serif" font-size="14.00" fill="#000000">process</text>
</g>
<!-- GO:0006650&#45;&gt;GO:0006644 -->
<g id="edge26" class="edge">
<title>GO:0006650&#45;&gt;GO:0006644</title>
<path fill="none" stroke="#000000" d="M474.9148,-152.9513C481.4597,-161.6534 488.7187,-171.3047 495.5978,-180.4509"/>
<polygon fill="#000000" stroke="#000000" points="492.9691,-182.7788 501.7771,-188.6669 498.5634,-178.5712 492.9691,-182.7788"/>
</g>
<!-- GO:0046486&#45;&gt;GO:0044255 -->
<g id="edge27" class="edge">
<title>GO:0046486&#45;&gt;GO:0044255</title>
<path fill="none" stroke="#000000" d="M233.5466,-247.4584C232.7265,-257.9969 231.7885,-270.0505 230.9131,-281.2994"/>
<polygon fill="#000000" stroke="#000000" points="227.4184,-281.0959 230.1319,-291.3373 234.3973,-281.6391 227.4184,-281.0959"/>
</g>
<!-- GO:0006644&#45;&gt;GO:0006796 -->
<g id="edge29" class="edge">
<title>GO:0006644&#45;&gt;GO:0006796</title>
<path fill="none" stroke="#000000" d="M484.5804,-247.4584C472.3358,-256.6462 458.5567,-266.9856 445.2914,-276.9394"/>
<polygon fill="#000000" stroke="#000000" points="443.0146,-274.2721 437.1166,-283.0735 447.2159,-279.8711 443.0146,-274.2721"/>
</g>
<!-- GO:0006644&#45;&gt;GO:0044255 -->
<g id="edge30" class="edge">
<title>GO:0006644&#45;&gt;GO:0044255</title>
<path fill="none" stroke="#000000" d="M449.7135,-244.3673C446.7215,-245.3398 443.7548,-246.2877 440.8391,-247.2 383.2133,-265.2303 366.5785,-262.5489 309.8391,-283.2 305.9483,-284.6161 301.9866,-286.1407 298.0101,-287.7363"/>
<polygon fill="#000000" stroke="#000000" points="296.6366,-284.5168 288.7313,-291.5707 299.31,-290.9862 296.6366,-284.5168"/>
</g>
<!-- GO:0019637 -->
<g id="node21" class="node">
<title>GO:0019637</title>
<polygon fill="#ffffff" stroke="#000000" points="643.1853,-350.2014 472.4929,-350.2014 472.4929,-291.3986 643.1853,-291.3986 643.1853,-350.2014"/>
<text text-anchor="middle" x="557.8391" y="-333.4" font-family="Times,serif" font-size="14.00" fill="#000000">GO:0019637</text>
<text text-anchor="middle" x="557.8391" y="-316.6" font-family="Times,serif" font-size="14.00" fill="#000000">organophosphate metabolic</text>
<text text-anchor="middle" x="557.8391" y="-299.8" font-family="Times,serif" font-size="14.00" fill="#000000">process</text>
</g>
<!-- GO:0006644&#45;&gt;GO:0019637 -->
<g id="edge28" class="edge">
<title>GO:0006644&#45;&gt;GO:0019637</title>
<path fill="none" stroke="#000000" d="M533.5821,-247.4584C537.1032,-258.1045 541.1356,-270.2966 544.8885,-281.6435"/>
<polygon fill="#000000" stroke="#000000" points="541.6315,-282.9422 548.0946,-291.3373 548.2774,-280.7441 541.6315,-282.9422"/>
</g>
<!-- GO:0019637&#45;&gt;GO:0006793 -->
<g id="edge32" class="edge">
<title>GO:0019637&#45;&gt;GO:0006793</title>
<path fill="none" stroke="#000000" d="M508.8374,-350.2584C488.7166,-362.3544 465.2759,-376.4462 444.3496,-389.0264"/>
<polygon fill="#000000" stroke="#000000" points="442.3193,-386.1631 435.5521,-394.3152 445.926,-392.1625 442.3193,-386.1631"/>
</g>
<!-- GO:0019637&#45;&gt;GO:0071704 -->
<g id="edge31" class="edge">
<title>GO:0019637&#45;&gt;GO:0071704</title>
<path fill="none" stroke="#000000" d="M594.6323,-350.288C609.6784,-363.1248 626.8081,-378.7855 640.8391,-394.4 664.9355,-421.2159 688.4192,-454.6865 705.0581,-480.0318"/>
<polygon fill="#000000" stroke="#000000" points="702.2641,-482.1556 710.6478,-488.6336 708.1337,-478.3414 702.2641,-482.1556"/>
</g>
</g>
</svg>
