<?xml version="1.0" encoding="UTF-8" standalone="no"?>
<!DOCTYPE svg PUBLIC "-//W3C//DTD SVG 1.1//EN"
 "http://www.w3.org/Graphics/SVG/1.1/DTD/svg11.dtd">
<!-- Generated by graphviz version 2.40.1 (20161225.0304)
 -->
<!-- Title: G Pages: 1 -->
<svg width="711pt" height="643pt"
 viewBox="0.00 0.00 710.81 643.20" xmlns="http://www.w3.org/2000/svg" xmlns:xlink="http://www.w3.org/1999/xlink">
<g id="graph0" class="graph" transform="scale(1 1) rotate(0) translate(4 639.2)">
<title>G</title>
<polygon fill="#ffffff" stroke="transparent" points="-4,4 -4,-639.2 706.81,-639.2 706.81,4 -4,4"/>
<!-- GO:0005654 -->
<g id="node1" class="node">
<title>GO:0005654</title>
<polygon fill="#ffffff" stroke="#000000" points="376.6779,-230.2019 287.4701,-230.2019 287.4701,-188.9981 376.6779,-188.9981 376.6779,-230.2019"/>
<text text-anchor="middle" x="332.074" y="-213.8" font-family="Times,serif" font-size="14.00" fill="#000000">GO:0005654</text>
<text text-anchor="middle" x="332.074" y="-197" font-family="Times,serif" font-size="14.00" fill="#000000">nucleoplasm</text>
</g>
<!-- GO:0044428 -->
<g id="node2" class="node">
<title>GO:0044428</title>
<polygon fill="#ffffff" stroke="#000000" points="376.6779,-307.8019 287.4701,-307.8019 287.4701,-266.5981 376.6779,-266.5981 376.6779,-307.8019"/>
<text text-anchor="middle" x="332.074" y="-291.4" font-family="Times,serif" font-size="14.00" fill="#000000">GO:0044428</text>
<text text-anchor="middle" x="332.074" y="-274.6" font-family="Times,serif" font-size="14.00" fill="#000000">nuclear part</text>
</g>
<!-- GO:0005654&#45;&gt;GO:0044428 -->
<g id="edge1" class="edge">
<title>GO:0005654&#45;&gt;GO:0044428</title>
<path fill="none" stroke="#000000" d="M332.074,-230.3954C332.074,-238.3109 332.074,-247.5109 332.074,-256.1722"/>
<polygon fill="#000000" stroke="#000000" points="328.5741,-256.3472 332.074,-266.3472 335.5741,-256.3473 328.5741,-256.3472"/>
</g>
<!-- GO:0044446 -->
<g id="node3" class="node">
<title>GO:0044446</title>
<polygon fill="#ffffff" stroke="#000000" points="425.7924,-402.6014 286.3556,-402.6014 286.3556,-343.7986 425.7924,-343.7986 425.7924,-402.6014"/>
<text text-anchor="middle" x="356.074" y="-385.8" font-family="Times,serif" font-size="14.00" fill="#000000">GO:0044446</text>
<text text-anchor="middle" x="356.074" y="-369" font-family="Times,serif" font-size="14.00" fill="#000000">intracellular organelle</text>
<text text-anchor="middle" x="356.074" y="-352.2" font-family="Times,serif" font-size="14.00" fill="#000000">part</text>
</g>
<!-- GO:0044428&#45;&gt;GO:0044446 -->
<g id="edge2" class="edge">
<title>GO:0044428&#45;&gt;GO:0044446</title>
<path fill="none" stroke="#000000" d="M337.8837,-308.0182C340.0609,-315.8197 342.6124,-324.9626 345.1042,-333.8917"/>
<polygon fill="#000000" stroke="#000000" points="341.8099,-335.108 347.8691,-343.7991 348.5522,-333.2264 341.8099,-335.108"/>
</g>
<!-- GO:0044424 -->
<g id="node4" class="node">
<title>GO:0044424</title>
<polygon fill="#ffffff" stroke="#000000" points="323.4724,-479.8019 214.6756,-479.8019 214.6756,-438.5981 323.4724,-438.5981 323.4724,-479.8019"/>
<text text-anchor="middle" x="269.074" y="-463.4" font-family="Times,serif" font-size="14.00" fill="#000000">GO:0044424</text>
<text text-anchor="middle" x="269.074" y="-446.6" font-family="Times,serif" font-size="14.00" fill="#000000">intracellular part</text>
</g>
<!-- GO:0044446&#45;&gt;GO:0044424 -->
<g id="edge3" class="edge">
<title>GO:0044446&#45;&gt;GO:0044424</title>
<path fill="none" stroke="#000000" d="M326.1335,-402.7963C316.7477,-412.0742 306.4262,-422.2772 297.1724,-431.4246"/>
<polygon fill="#000000" stroke="#000000" points="294.6695,-428.9773 290.0182,-438.4966 299.5906,-433.9556 294.6695,-428.9773"/>
</g>
<!-- GO:0044422 -->
<g id="node5" class="node">
<title>GO:0044422</title>
<polygon fill="#ffffff" stroke="#000000" points="424.9261,-557.4019 331.2219,-557.4019 331.2219,-516.1981 424.9261,-516.1981 424.9261,-557.4019"/>
<text text-anchor="middle" x="378.074" y="-541" font-family="Times,serif" font-size="14.00" fill="#000000">GO:0044422</text>
<text text-anchor="middle" x="378.074" y="-524.2" font-family="Times,serif" font-size="14.00" fill="#000000">organelle part</text>
</g>
<!-- GO:0044446&#45;&gt;GO:0044422 -->
<g id="edge4" class="edge">
<title>GO:0044446&#45;&gt;GO:0044422</title>
<path fill="none" stroke="#000000" d="M360.0072,-402.4484C363.9258,-431.5891 369.9195,-476.1603 373.9155,-505.8759"/>
<polygon fill="#000000" stroke="#000000" points="370.4882,-506.6512 375.2898,-516.0955 377.4257,-505.7182 370.4882,-506.6512"/>
</g>
<!-- GO:0044464 -->
<g id="node6" class="node">
<title>GO:0044464</title>
<polygon fill="#ffffff" stroke="#000000" points="313.6779,-557.4019 224.4701,-557.4019 224.4701,-516.1981 313.6779,-516.1981 313.6779,-557.4019"/>
<text text-anchor="middle" x="269.074" y="-541" font-family="Times,serif" font-size="14.00" fill="#000000">GO:0044464</text>
<text text-anchor="middle" x="269.074" y="-524.2" font-family="Times,serif" font-size="14.00" fill="#000000">cell part</text>
</g>
<!-- GO:0044424&#45;&gt;GO:0044464 -->
<g id="edge5" class="edge">
<title>GO:0044424&#45;&gt;GO:0044464</title>
<path fill="none" stroke="#000000" d="M269.074,-479.9954C269.074,-487.9109 269.074,-497.1109 269.074,-505.7722"/>
<polygon fill="#000000" stroke="#000000" points="265.5741,-505.9472 269.074,-515.9472 272.5741,-505.9473 265.5741,-505.9472"/>
</g>
<!-- GO:0005575 -->
<g id="node7" class="node">
<title>GO:0005575</title>
<polygon fill="#ffffff" stroke="#000000" points="386.7607,-635.0019 259.3873,-635.0019 259.3873,-593.7981 386.7607,-593.7981 386.7607,-635.0019"/>
<text text-anchor="middle" x="323.074" y="-618.6" font-family="Times,serif" font-size="14.00" fill="#000000">GO:0005575</text>
<text text-anchor="middle" x="323.074" y="-601.8" font-family="Times,serif" font-size="14.00" fill="#000000">cellular_component</text>
</g>
<!-- GO:0044422&#45;&gt;GO:0005575 -->
<g id="edge6" class="edge">
<title>GO:0044422&#45;&gt;GO:0005575</title>
<path fill="none" stroke="#000000" d="M363.335,-557.5954C357.2933,-566.1197 350.1956,-576.1339 343.6561,-585.3605"/>
<polygon fill="#000000" stroke="#000000" points="340.7807,-583.3647 337.8537,-593.5472 346.4917,-587.4125 340.7807,-583.3647"/>
</g>
<!-- GO:0044464&#45;&gt;GO:0005575 -->
<g id="edge13" class="edge">
<title>GO:0044464&#45;&gt;GO:0005575</title>
<path fill="none" stroke="#000000" d="M283.545,-557.5954C289.4164,-566.0328 296.3034,-575.9297 302.6694,-585.0778"/>
<polygon fill="#000000" stroke="#000000" points="299.9782,-587.3382 308.563,-593.5472 305.724,-583.3398 299.9782,-587.3382"/>
</g>
<!-- GO:0032301 -->
<g id="node8" class="node">
<title>GO:0032301</title>
<polygon fill="#ffffff" stroke="#000000" points="269.7221,-230.2019 140.4259,-230.2019 140.4259,-188.9981 269.7221,-188.9981 269.7221,-230.2019"/>
<text text-anchor="middle" x="205.074" y="-213.8" font-family="Times,serif" font-size="14.00" fill="#000000">GO:0032301</text>
<text text-anchor="middle" x="205.074" y="-197" font-family="Times,serif" font-size="14.00" fill="#000000">MutSalpha complex</text>
</g>
<!-- GO:0032301&#45;&gt;GO:0044428 -->
<g id="edge8" class="edge">
<title>GO:0032301&#45;&gt;GO:0044428</title>
<path fill="none" stroke="#000000" d="M239.1077,-230.3954C254.4822,-239.7896 272.8179,-250.9931 289.1264,-260.958"/>
<polygon fill="#000000" stroke="#000000" points="287.5883,-264.1198 297.9464,-266.3472 291.2381,-258.1466 287.5883,-264.1198"/>
</g>
<!-- GO:0032300 -->
<g id="node9" class="node">
<title>GO:0032300</title>
<polygon fill="#ffffff" stroke="#000000" points="246.3619,-307.8019 87.7861,-307.8019 87.7861,-266.5981 246.3619,-266.5981 246.3619,-307.8019"/>
<text text-anchor="middle" x="167.074" y="-291.4" font-family="Times,serif" font-size="14.00" fill="#000000">GO:0032300</text>
<text text-anchor="middle" x="167.074" y="-274.6" font-family="Times,serif" font-size="14.00" fill="#000000">mismatch repair complex</text>
</g>
<!-- GO:0032301&#45;&gt;GO:0032300 -->
<g id="edge7" class="edge">
<title>GO:0032301&#45;&gt;GO:0032300</title>
<path fill="none" stroke="#000000" d="M194.8907,-230.3954C190.8442,-238.6588 186.1121,-248.3222 181.7103,-257.311"/>
<polygon fill="#000000" stroke="#000000" points="178.54,-255.8269 177.2854,-266.3472 184.8267,-258.9055 178.54,-255.8269"/>
</g>
<!-- GO:0032300&#45;&gt;GO:0044424 -->
<g id="edge10" class="edge">
<title>GO:0032300&#45;&gt;GO:0044424</title>
<path fill="none" stroke="#000000" d="M188.6574,-308.001C198.4694,-318.2198 209.7237,-331.0922 218.074,-344 235.4342,-370.835 249.5925,-404.5689 258.5479,-428.5826"/>
<polygon fill="#000000" stroke="#000000" points="255.3509,-430.0321 262.0616,-438.2306 261.9283,-427.6366 255.3509,-430.0321"/>
</g>
<!-- GO:1990391 -->
<g id="node10" class="node">
<title>GO:1990391</title>
<polygon fill="#ffffff" stroke="#000000" points="209.2453,-393.8019 74.9027,-393.8019 74.9027,-352.5981 209.2453,-352.5981 209.2453,-393.8019"/>
<text text-anchor="middle" x="142.074" y="-377.4" font-family="Times,serif" font-size="14.00" fill="#000000">GO:1990391</text>
<text text-anchor="middle" x="142.074" y="-360.6" font-family="Times,serif" font-size="14.00" fill="#000000">DNA repair complex</text>
</g>
<!-- GO:0032300&#45;&gt;GO:1990391 -->
<g id="edge9" class="edge">
<title>GO:0032300&#45;&gt;GO:1990391</title>
<path fill="none" stroke="#000000" d="M161.0222,-308.0182C157.9821,-318.4761 154.2413,-331.3446 150.8888,-342.877"/>
<polygon fill="#000000" stroke="#000000" points="147.5007,-341.994 148.0701,-352.5735 154.2224,-343.948 147.5007,-341.994"/>
</g>
<!-- GO:0043234 -->
<g id="node11" class="node">
<title>GO:0043234</title>
<polygon fill="#ffffff" stroke="#000000" points="188.9414,-479.8019 81.2066,-479.8019 81.2066,-438.5981 188.9414,-438.5981 188.9414,-479.8019"/>
<text text-anchor="middle" x="135.074" y="-463.4" font-family="Times,serif" font-size="14.00" fill="#000000">GO:0043234</text>
<text text-anchor="middle" x="135.074" y="-446.6" font-family="Times,serif" font-size="14.00" fill="#000000">protein complex</text>
</g>
<!-- GO:1990391&#45;&gt;GO:0043234 -->
<g id="edge11" class="edge">
<title>GO:1990391&#45;&gt;GO:0043234</title>
<path fill="none" stroke="#000000" d="M140.3795,-394.0182C139.5369,-404.3705 138.502,-417.0848 137.5706,-428.5271"/>
<polygon fill="#000000" stroke="#000000" points="134.0758,-428.3225 136.7529,-438.5735 141.0527,-428.8905 134.0758,-428.3225"/>
</g>
<!-- GO:0032991 -->
<g id="node12" class="node">
<title>GO:0032991</title>
<polygon fill="#ffffff" stroke="#000000" points="206.2413,-557.4019 47.9067,-557.4019 47.9067,-516.1981 206.2413,-516.1981 206.2413,-557.4019"/>
<text text-anchor="middle" x="127.074" y="-541" font-family="Times,serif" font-size="14.00" fill="#000000">GO:0032991</text>
<text text-anchor="middle" x="127.074" y="-524.2" font-family="Times,serif" font-size="14.00" fill="#000000">macromolecular complex</text>
</g>
<!-- GO:0043234&#45;&gt;GO:0032991 -->
<g id="edge12" class="edge">
<title>GO:0043234&#45;&gt;GO:0032991</title>
<path fill="none" stroke="#000000" d="M132.9301,-479.9954C132.1141,-487.9109 131.1657,-497.1109 130.2727,-505.7722"/>
<polygon fill="#000000" stroke="#000000" points="126.7678,-505.641 129.2238,-515.9472 133.7309,-506.3589 126.7678,-505.641"/>
</g>
<!-- GO:0032302 -->
<g id="node13" class="node">
<title>GO:0032302</title>
<polygon fill="#ffffff" stroke="#000000" points="122.2221,-230.2019 -.0741,-230.2019 -.0741,-188.9981 122.2221,-188.9981 122.2221,-230.2019"/>
<text text-anchor="middle" x="61.074" y="-213.8" font-family="Times,serif" font-size="14.00" fill="#000000">GO:0032302</text>
<text text-anchor="middle" x="61.074" y="-197" font-family="Times,serif" font-size="14.00" fill="#000000">MutSbeta complex</text>
</g>
<!-- GO:0032302&#45;&gt;GO:0044428 -->
<g id="edge15" class="edge">
<title>GO:0032302&#45;&gt;GO:0044428</title>
<path fill="none" stroke="#000000" d="M122.5204,-227.9091C125.4109,-228.7544 128.2733,-229.5882 131.074,-230.4 180.6248,-244.7623 237.1792,-260.7038 277.6491,-272.0333"/>
<polygon fill="#000000" stroke="#000000" points="276.7455,-275.4149 287.3187,-274.7383 278.6313,-268.6737 276.7455,-275.4149"/>
</g>
<!-- GO:0032302&#45;&gt;GO:0032300 -->
<g id="edge14" class="edge">
<title>GO:0032302&#45;&gt;GO:0032300</title>
<path fill="none" stroke="#000000" d="M89.4801,-230.3954C102.0747,-239.6156 117.0502,-250.5788 130.47,-260.4031"/>
<polygon fill="#000000" stroke="#000000" points="128.4532,-263.2643 138.5895,-266.3472 132.5881,-257.616 128.4532,-263.2643"/>
</g>
<!-- GO:0000784 -->
<g id="node14" class="node">
<title>GO:0000784</title>
<polygon fill="#ffffff" stroke="#000000" points="623.0855,-58.6014 487.0625,-58.6014 487.0625,.2014 623.0855,.2014 623.0855,-58.6014"/>
<text text-anchor="middle" x="555.074" y="-41.8" font-family="Times,serif" font-size="14.00" fill="#000000">GO:0000784</text>
<text text-anchor="middle" x="555.074" y="-25" font-family="Times,serif" font-size="14.00" fill="#000000">nuclear chromosome,</text>
<text text-anchor="middle" x="555.074" y="-8.2" font-family="Times,serif" font-size="14.00" fill="#000000">telomeric region</text>
</g>
<!-- GO:0000781 -->
<g id="node15" class="node">
<title>GO:0000781</title>
<polygon fill="#ffffff" stroke="#000000" points="695.2565,-153.0014 546.8915,-153.0014 546.8915,-94.1986 695.2565,-94.1986 695.2565,-153.0014"/>
<text text-anchor="middle" x="621.074" y="-136.2" font-family="Times,serif" font-size="14.00" fill="#000000">GO:0000781</text>
<text text-anchor="middle" x="621.074" y="-119.4" font-family="Times,serif" font-size="14.00" fill="#000000">chromosome, telomeric</text>
<text text-anchor="middle" x="621.074" y="-102.6" font-family="Times,serif" font-size="14.00" fill="#000000">region</text>
</g>
<!-- GO:0000784&#45;&gt;GO:0000781 -->
<g id="edge16" class="edge">
<title>GO:0000784&#45;&gt;GO:0000781</title>
<path fill="none" stroke="#000000" d="M575.595,-58.5513C581.6791,-67.2534 588.4269,-76.9047 594.8215,-86.0509"/>
<polygon fill="#000000" stroke="#000000" points="591.9672,-88.0768 600.5657,-94.2669 597.7041,-84.0658 591.9672,-88.0768"/>
</g>
<!-- GO:0044454 -->
<g id="node16" class="node">
<title>GO:0044454</title>
<polygon fill="#ffffff" stroke="#000000" points="553.3506,-230.2019 394.7974,-230.2019 394.7974,-188.9981 553.3506,-188.9981 553.3506,-230.2019"/>
<text text-anchor="middle" x="474.074" y="-213.8" font-family="Times,serif" font-size="14.00" fill="#000000">GO:0044454</text>
<text text-anchor="middle" x="474.074" y="-197" font-family="Times,serif" font-size="14.00" fill="#000000">nuclear chromosome part</text>
</g>
<!-- GO:0000784&#45;&gt;GO:0044454 -->
<g id="edge17" class="edge">
<title>GO:0000784&#45;&gt;GO:0044454</title>
<path fill="none" stroke="#000000" d="M541.8797,-58.5859C526.9057,-91.9354 502.6101,-146.0456 487.5289,-179.6338"/>
<polygon fill="#000000" stroke="#000000" points="484.2532,-178.3846 483.35,-188.9409 490.6391,-181.2519 484.2532,-178.3846"/>
</g>
<!-- GO:0098687 -->
<g id="node17" class="node">
<title>GO:0098687</title>
<polygon fill="#ffffff" stroke="#000000" points="703.0469,-230.2019 571.1011,-230.2019 571.1011,-188.9981 703.0469,-188.9981 703.0469,-230.2019"/>
<text text-anchor="middle" x="637.074" y="-213.8" font-family="Times,serif" font-size="14.00" fill="#000000">GO:0098687</text>
<text text-anchor="middle" x="637.074" y="-197" font-family="Times,serif" font-size="14.00" fill="#000000">chromosomal region</text>
</g>
<!-- GO:0000781&#45;&gt;GO:0098687 -->
<g id="edge18" class="edge">
<title>GO:0000781&#45;&gt;GO:0098687</title>
<path fill="none" stroke="#000000" d="M626.5803,-153.1963C628.1184,-161.4638 629.7932,-170.4657 631.3439,-178.8008"/>
<polygon fill="#000000" stroke="#000000" points="627.9521,-179.7055 633.2222,-188.8966 634.834,-178.425 627.9521,-179.7055"/>
</g>
<!-- GO:0044454&#45;&gt;GO:0044428 -->
<g id="edge20" class="edge">
<title>GO:0044454&#45;&gt;GO:0044428</title>
<path fill="none" stroke="#000000" d="M436.0206,-230.3954C418.5118,-239.9635 397.5684,-251.4087 379.0835,-261.5103"/>
<polygon fill="#000000" stroke="#000000" points="377.3292,-258.4804 370.2324,-266.3472 380.686,-264.623 377.3292,-258.4804"/>
</g>
<!-- GO:0044427 -->
<g id="node18" class="node">
<title>GO:0044427</title>
<polygon fill="#ffffff" stroke="#000000" points="533.047,-307.8019 415.101,-307.8019 415.101,-266.5981 533.047,-266.5981 533.047,-307.8019"/>
<text text-anchor="middle" x="474.074" y="-291.4" font-family="Times,serif" font-size="14.00" fill="#000000">GO:0044427</text>
<text text-anchor="middle" x="474.074" y="-274.6" font-family="Times,serif" font-size="14.00" fill="#000000">chromosomal part</text>
</g>
<!-- GO:0044454&#45;&gt;GO:0044427 -->
<g id="edge19" class="edge">
<title>GO:0044454&#45;&gt;GO:0044427</title>
<path fill="none" stroke="#000000" d="M474.074,-230.3954C474.074,-238.3109 474.074,-247.5109 474.074,-256.1722"/>
<polygon fill="#000000" stroke="#000000" points="470.5741,-256.3472 474.074,-266.3472 477.5741,-256.3473 470.5741,-256.3472"/>
</g>
<!-- GO:0098687&#45;&gt;GO:0044427 -->
<g id="edge21" class="edge">
<title>GO:0098687&#45;&gt;GO:0044427</title>
<path fill="none" stroke="#000000" d="M593.393,-230.3954C572.9387,-240.1331 548.4008,-251.815 526.9101,-262.0461"/>
<polygon fill="#000000" stroke="#000000" points="525.1173,-259.0232 517.5927,-266.4819 528.1262,-265.3435 525.1173,-259.0232"/>
</g>
<!-- GO:0044427&#45;&gt;GO:0044446 -->
<g id="edge22" class="edge">
<title>GO:0044427&#45;&gt;GO:0044446</title>
<path fill="none" stroke="#000000" d="M445.5095,-308.0182C433.1937,-316.9941 418.4414,-327.7458 404.5029,-337.9044"/>
<polygon fill="#000000" stroke="#000000" points="402.4347,-335.0807 396.4147,-343.7991 406.5576,-340.7378 402.4347,-335.0807"/>
</g>
</g>
</svg>
