<?xml version="1.0" encoding="UTF-8" standalone="no"?>
<!DOCTYPE svg PUBLIC "-//W3C//DTD SVG 1.1//EN"
 "http://www.w3.org/Graphics/SVG/1.1/DTD/svg11.dtd">
<!-- Generated by graphviz version 2.40.1 (20161225.0304)
 -->
<!-- Title: G Pages: 1 -->
<svg width="709pt" height="488pt"
 viewBox="0.00 0.00 709.27 488.00" xmlns="http://www.w3.org/2000/svg" xmlns:xlink="http://www.w3.org/1999/xlink">
<g id="graph0" class="graph" transform="scale(1 1) rotate(0) translate(4 484)">
<title>G</title>
<polygon fill="#ffffff" stroke="transparent" points="-4,4 -4,-484 705.269,-484 705.269,4 -4,4"/>
<!-- GO:0005856 -->
<g id="node1" class="node">
<title>GO:0005856</title>
<polygon fill="#ffffff" stroke="#000000" points="203.4146,-41.4019 114.2068,-41.4019 114.2068,-.1981 203.4146,-.1981 203.4146,-41.4019"/>
<text text-anchor="middle" x="158.8107" y="-25" font-family="Times,serif" font-size="14.00" fill="#000000">GO:0005856</text>
<text text-anchor="middle" x="158.8107" y="-8.2" font-family="Times,serif" font-size="14.00" fill="#000000">cytoskeleton</text>
</g>
<!-- GO:0043232 -->
<g id="node2" class="node">
<title>GO:0043232</title>
<polygon fill="#ffffff" stroke="#000000" points="222.7715,-152.9003 94.8499,-152.9003 94.8499,-77.4997 222.7715,-77.4997 222.7715,-152.9003"/>
<text text-anchor="middle" x="158.8107" y="-136.2" font-family="Times,serif" font-size="14.00" fill="#000000">GO:0043232</text>
<text text-anchor="middle" x="158.8107" y="-119.4" font-family="Times,serif" font-size="14.00" fill="#000000">intracellular non&#45;</text>
<text text-anchor="middle" x="158.8107" y="-102.6" font-family="Times,serif" font-size="14.00" fill="#000000">membrane&#45;bounded</text>
<text text-anchor="middle" x="158.8107" y="-85.8" font-family="Times,serif" font-size="14.00" fill="#000000">organelle</text>
</g>
<!-- GO:0005856&#45;&gt;GO:0043232 -->
<g id="edge1" class="edge">
<title>GO:0005856&#45;&gt;GO:0043232</title>
<path fill="none" stroke="#000000" d="M158.8107,-41.7504C158.8107,-49.4068 158.8107,-58.4143 158.8107,-67.4487"/>
<polygon fill="#000000" stroke="#000000" points="155.3108,-67.5897 158.8107,-77.5897 162.3108,-67.5897 155.3108,-67.5897"/>
</g>
<!-- GO:0043229 -->
<g id="node3" class="node">
<title>GO:0043229</title>
<polygon fill="#ffffff" stroke="#000000" points="310.5291,-238.6019 171.0923,-238.6019 171.0923,-197.3981 310.5291,-197.3981 310.5291,-238.6019"/>
<text text-anchor="middle" x="240.8107" y="-222.2" font-family="Times,serif" font-size="14.00" fill="#000000">GO:0043229</text>
<text text-anchor="middle" x="240.8107" y="-205.4" font-family="Times,serif" font-size="14.00" fill="#000000">intracellular organelle</text>
</g>
<!-- GO:0043232&#45;&gt;GO:0043229 -->
<g id="edge2" class="edge">
<title>GO:0043232&#45;&gt;GO:0043229</title>
<path fill="none" stroke="#000000" d="M188.8789,-152.8952C198.5155,-164.9763 209.0213,-178.147 218.0466,-189.4616"/>
<polygon fill="#000000" stroke="#000000" points="215.3511,-191.6951 224.3231,-197.3302 220.8234,-187.33 215.3511,-191.6951"/>
</g>
<!-- GO:0043228 -->
<g id="node4" class="node">
<title>GO:0043228</title>
<polygon fill="#ffffff" stroke="#000000" points="153.4326,-247.4014 .1888,-247.4014 .1888,-188.5986 153.4326,-188.5986 153.4326,-247.4014"/>
<text text-anchor="middle" x="76.8107" y="-230.6" font-family="Times,serif" font-size="14.00" fill="#000000">GO:0043228</text>
<text text-anchor="middle" x="76.8107" y="-213.8" font-family="Times,serif" font-size="14.00" fill="#000000">non&#45;membrane&#45;bounded</text>
<text text-anchor="middle" x="76.8107" y="-197" font-family="Times,serif" font-size="14.00" fill="#000000">organelle</text>
</g>
<!-- GO:0043232&#45;&gt;GO:0043228 -->
<g id="edge3" class="edge">
<title>GO:0043232&#45;&gt;GO:0043228</title>
<path fill="none" stroke="#000000" d="M128.7425,-152.8952C121.5335,-161.9329 113.8379,-171.5805 106.6397,-180.6046"/>
<polygon fill="#000000" stroke="#000000" points="103.6968,-178.6812 100.1972,-188.6814 109.1692,-183.0463 103.6968,-178.6812"/>
</g>
<!-- GO:0044424 -->
<g id="node5" class="node">
<title>GO:0044424</title>
<polygon fill="#ffffff" stroke="#000000" points="540.2091,-324.6019 431.4123,-324.6019 431.4123,-283.3981 540.2091,-283.3981 540.2091,-324.6019"/>
<text text-anchor="middle" x="485.8107" y="-308.2" font-family="Times,serif" font-size="14.00" fill="#000000">GO:0044424</text>
<text text-anchor="middle" x="485.8107" y="-291.4" font-family="Times,serif" font-size="14.00" fill="#000000">intracellular part</text>
</g>
<!-- GO:0043229&#45;&gt;GO:0044424 -->
<g id="edge4" class="edge">
<title>GO:0043229&#45;&gt;GO:0044424</title>
<path fill="none" stroke="#000000" d="M295.2836,-238.6327C303.1633,-241.5474 311.1851,-244.4766 318.8107,-247.2 352.5113,-259.236 390.2412,-272.1187 421.3004,-282.5674"/>
<polygon fill="#000000" stroke="#000000" points="420.5426,-286.0049 431.1366,-285.8701 422.7708,-279.369 420.5426,-286.0049"/>
</g>
<!-- GO:0043226 -->
<g id="node6" class="node">
<title>GO:0043226</title>
<polygon fill="#ffffff" stroke="#000000" points="285.4146,-324.6019 196.2068,-324.6019 196.2068,-283.3981 285.4146,-283.3981 285.4146,-324.6019"/>
<text text-anchor="middle" x="240.8107" y="-308.2" font-family="Times,serif" font-size="14.00" fill="#000000">GO:0043226</text>
<text text-anchor="middle" x="240.8107" y="-291.4" font-family="Times,serif" font-size="14.00" fill="#000000">organelle</text>
</g>
<!-- GO:0043229&#45;&gt;GO:0043226 -->
<g id="edge5" class="edge">
<title>GO:0043229&#45;&gt;GO:0043226</title>
<path fill="none" stroke="#000000" d="M240.8107,-238.8182C240.8107,-249.1705 240.8107,-261.8848 240.8107,-273.3271"/>
<polygon fill="#000000" stroke="#000000" points="237.3108,-273.3735 240.8107,-283.3735 244.3108,-273.3735 237.3108,-273.3735"/>
</g>
<!-- GO:0043228&#45;&gt;GO:0043226 -->
<g id="edge6" class="edge">
<title>GO:0043228&#45;&gt;GO:0043226</title>
<path fill="none" stroke="#000000" d="M132.7915,-247.3558C152.1691,-257.5172 173.7093,-268.8127 192.4245,-278.6267"/>
<polygon fill="#000000" stroke="#000000" points="190.8815,-281.7696 201.3631,-283.3141 194.1324,-275.5703 190.8815,-281.7696"/>
</g>
<!-- GO:0044464 -->
<g id="node7" class="node">
<title>GO:0044464</title>
<polygon fill="#ffffff" stroke="#000000" points="530.4146,-402.2019 441.2068,-402.2019 441.2068,-360.9981 530.4146,-360.9981 530.4146,-402.2019"/>
<text text-anchor="middle" x="485.8107" y="-385.8" font-family="Times,serif" font-size="14.00" fill="#000000">GO:0044464</text>
<text text-anchor="middle" x="485.8107" y="-369" font-family="Times,serif" font-size="14.00" fill="#000000">cell part</text>
</g>
<!-- GO:0044424&#45;&gt;GO:0044464 -->
<g id="edge7" class="edge">
<title>GO:0044424&#45;&gt;GO:0044464</title>
<path fill="none" stroke="#000000" d="M485.8107,-324.7954C485.8107,-332.7109 485.8107,-341.9109 485.8107,-350.5722"/>
<polygon fill="#000000" stroke="#000000" points="482.3108,-350.7472 485.8107,-360.7472 489.3108,-350.7473 482.3108,-350.7472"/>
</g>
<!-- GO:0005575 -->
<g id="node8" class="node">
<title>GO:0005575</title>
<polygon fill="#ffffff" stroke="#000000" points="440.4974,-479.8019 313.124,-479.8019 313.124,-438.5981 440.4974,-438.5981 440.4974,-479.8019"/>
<text text-anchor="middle" x="376.8107" y="-463.4" font-family="Times,serif" font-size="14.00" fill="#000000">GO:0005575</text>
<text text-anchor="middle" x="376.8107" y="-446.6" font-family="Times,serif" font-size="14.00" fill="#000000">cellular_component</text>
</g>
<!-- GO:0043226&#45;&gt;GO:0005575 -->
<g id="edge8" class="edge">
<title>GO:0043226&#45;&gt;GO:0005575</title>
<path fill="none" stroke="#000000" d="M256.8017,-324.8283C272.5668,-345.0791 297.6005,-376.4887 320.8107,-402.4 329.4006,-411.9895 339.137,-422.105 348.0543,-431.0998"/>
<polygon fill="#000000" stroke="#000000" points="345.7635,-433.7587 355.3091,-438.3557 350.7136,-428.8093 345.7635,-433.7587"/>
</g>
<!-- GO:0044464&#45;&gt;GO:0005575 -->
<g id="edge18" class="edge">
<title>GO:0044464&#45;&gt;GO:0005575</title>
<path fill="none" stroke="#000000" d="M456.6007,-402.3954C443.6496,-411.6156 428.2503,-422.5788 414.4506,-432.4031"/>
<polygon fill="#000000" stroke="#000000" points="412.2179,-429.6963 406.1013,-438.3472 416.2777,-435.3988 412.2179,-429.6963"/>
</g>
<!-- GO:0044430 -->
<g id="node9" class="node">
<title>GO:0044430</title>
<polygon fill="#ffffff" stroke="#000000" points="451.942,-135.8019 343.6794,-135.8019 343.6794,-94.5981 451.942,-94.5981 451.942,-135.8019"/>
<text text-anchor="middle" x="397.8107" y="-119.4" font-family="Times,serif" font-size="14.00" fill="#000000">GO:0044430</text>
<text text-anchor="middle" x="397.8107" y="-102.6" font-family="Times,serif" font-size="14.00" fill="#000000">cytoskeletal part</text>
</g>
<!-- GO:0044446 -->
<g id="node10" class="node">
<title>GO:0044446</title>
<polygon fill="#ffffff" stroke="#000000" points="467.5291,-247.4014 328.0923,-247.4014 328.0923,-188.5986 467.5291,-188.5986 467.5291,-247.4014"/>
<text text-anchor="middle" x="397.8107" y="-230.6" font-family="Times,serif" font-size="14.00" fill="#000000">GO:0044446</text>
<text text-anchor="middle" x="397.8107" y="-213.8" font-family="Times,serif" font-size="14.00" fill="#000000">intracellular organelle</text>
<text text-anchor="middle" x="397.8107" y="-197" font-family="Times,serif" font-size="14.00" fill="#000000">part</text>
</g>
<!-- GO:0044430&#45;&gt;GO:0044446 -->
<g id="edge9" class="edge">
<title>GO:0044430&#45;&gt;GO:0044446</title>
<path fill="none" stroke="#000000" d="M397.8107,-136.0031C397.8107,-148.1833 397.8107,-163.9676 397.8107,-178.4305"/>
<polygon fill="#000000" stroke="#000000" points="394.3108,-178.6577 397.8107,-188.6577 401.3108,-178.6578 394.3108,-178.6577"/>
</g>
<!-- GO:0044446&#45;&gt;GO:0044424 -->
<g id="edge10" class="edge">
<title>GO:0044446&#45;&gt;GO:0044424</title>
<path fill="none" stroke="#000000" d="M428.0953,-247.5963C437.589,-256.8742 448.0292,-267.0772 457.3894,-276.2246"/>
<polygon fill="#000000" stroke="#000000" points="455.0276,-278.8104 464.6258,-283.2966 459.9202,-273.804 455.0276,-278.8104"/>
</g>
<!-- GO:0044422 -->
<g id="node11" class="node">
<title>GO:0044422</title>
<polygon fill="#ffffff" stroke="#000000" points="423.6628,-402.2019 329.9586,-402.2019 329.9586,-360.9981 423.6628,-360.9981 423.6628,-402.2019"/>
<text text-anchor="middle" x="376.8107" y="-385.8" font-family="Times,serif" font-size="14.00" fill="#000000">GO:0044422</text>
<text text-anchor="middle" x="376.8107" y="-369" font-family="Times,serif" font-size="14.00" fill="#000000">organelle part</text>
</g>
<!-- GO:0044446&#45;&gt;GO:0044422 -->
<g id="edge11" class="edge">
<title>GO:0044446&#45;&gt;GO:0044422</title>
<path fill="none" stroke="#000000" d="M394.0563,-247.2484C390.3158,-276.3891 384.5945,-320.9603 380.7802,-350.6759"/>
<polygon fill="#000000" stroke="#000000" points="377.2701,-350.5312 379.4684,-360.8955 384.2131,-351.4225 377.2701,-350.5312"/>
</g>
<!-- GO:0044422&#45;&gt;GO:0005575 -->
<g id="edge12" class="edge">
<title>GO:0044422&#45;&gt;GO:0005575</title>
<path fill="none" stroke="#000000" d="M376.8107,-402.3954C376.8107,-410.3109 376.8107,-419.5109 376.8107,-428.1722"/>
<polygon fill="#000000" stroke="#000000" points="373.3108,-428.3472 376.8107,-438.3472 380.3108,-428.3473 373.3108,-428.3472"/>
</g>
<!-- GO:0005938 -->
<g id="node12" class="node">
<title>GO:0005938</title>
<polygon fill="#ffffff" stroke="#000000" points="633.4146,-41.4019 544.2068,-41.4019 544.2068,-.1981 633.4146,-.1981 633.4146,-41.4019"/>
<text text-anchor="middle" x="588.8107" y="-25" font-family="Times,serif" font-size="14.00" fill="#000000">GO:0005938</text>
<text text-anchor="middle" x="588.8107" y="-8.2" font-family="Times,serif" font-size="14.00" fill="#000000">cell cortex</text>
</g>
<!-- GO:0099568 -->
<g id="node13" class="node">
<title>GO:0099568</title>
<polygon fill="#ffffff" stroke="#000000" points="650.2273,-135.8019 527.3941,-135.8019 527.3941,-94.5981 650.2273,-94.5981 650.2273,-135.8019"/>
<text text-anchor="middle" x="588.8107" y="-119.4" font-family="Times,serif" font-size="14.00" fill="#000000">GO:0099568</text>
<text text-anchor="middle" x="588.8107" y="-102.6" font-family="Times,serif" font-size="14.00" fill="#000000">cytoplasmic region</text>
</g>
<!-- GO:0005938&#45;&gt;GO:0099568 -->
<g id="edge13" class="edge">
<title>GO:0005938&#45;&gt;GO:0099568</title>
<path fill="none" stroke="#000000" d="M588.8107,-41.7504C588.8107,-54.2165 588.8107,-70.2645 588.8107,-84.1786"/>
<polygon fill="#000000" stroke="#000000" points="585.3108,-84.3081 588.8107,-94.3081 592.3108,-84.3082 585.3108,-84.3081"/>
</g>
<!-- GO:0005737 -->
<g id="node14" class="node">
<title>GO:0005737</title>
<polygon fill="#ffffff" stroke="#000000" points="574.4146,-238.6019 485.2068,-238.6019 485.2068,-197.3981 574.4146,-197.3981 574.4146,-238.6019"/>
<text text-anchor="middle" x="529.8107" y="-222.2" font-family="Times,serif" font-size="14.00" fill="#000000">GO:0005737</text>
<text text-anchor="middle" x="529.8107" y="-205.4" font-family="Times,serif" font-size="14.00" fill="#000000">cytoplasm</text>
</g>
<!-- GO:0099568&#45;&gt;GO:0005737 -->
<g id="edge14" class="edge">
<title>GO:0099568&#45;&gt;GO:0005737</title>
<path fill="none" stroke="#000000" d="M576.8712,-136.0031C568.2343,-151.0517 556.4401,-171.6017 546.8197,-188.364"/>
<polygon fill="#000000" stroke="#000000" points="543.6747,-186.8125 541.7325,-197.2278 549.7458,-190.297 543.6747,-186.8125"/>
</g>
<!-- GO:0044444 -->
<g id="node15" class="node">
<title>GO:0044444</title>
<polygon fill="#ffffff" stroke="#000000" points="701.2273,-238.6019 592.3941,-238.6019 592.3941,-197.3981 701.2273,-197.3981 701.2273,-238.6019"/>
<text text-anchor="middle" x="646.8107" y="-222.2" font-family="Times,serif" font-size="14.00" fill="#000000">GO:0044444</text>
<text text-anchor="middle" x="646.8107" y="-205.4" font-family="Times,serif" font-size="14.00" fill="#000000">cytoplasmic part</text>
</g>
<!-- GO:0099568&#45;&gt;GO:0044444 -->
<g id="edge15" class="edge">
<title>GO:0099568&#45;&gt;GO:0044444</title>
<path fill="none" stroke="#000000" d="M600.5479,-136.0031C609.0383,-151.0517 620.6326,-171.6017 630.09,-188.364"/>
<polygon fill="#000000" stroke="#000000" points="627.1288,-190.2383 635.091,-197.2278 633.2254,-186.7985 627.1288,-190.2383"/>
</g>
<!-- GO:0005737&#45;&gt;GO:0044424 -->
<g id="edge16" class="edge">
<title>GO:0005737&#45;&gt;GO:0044424</title>
<path fill="none" stroke="#000000" d="M519.1595,-238.8182C513.7009,-249.4874 506.9586,-262.6655 500.968,-274.3743"/>
<polygon fill="#000000" stroke="#000000" points="497.8027,-272.8768 496.3638,-283.3735 504.0345,-276.0652 497.8027,-272.8768"/>
</g>
<!-- GO:0044444&#45;&gt;GO:0044424 -->
<g id="edge17" class="edge">
<title>GO:0044444&#45;&gt;GO:0044424</title>
<path fill="none" stroke="#000000" d="M607.8371,-238.8182C585.3914,-250.8078 557.0142,-265.9658 533.2747,-278.6466"/>
<polygon fill="#000000" stroke="#000000" points="531.5968,-275.5747 524.4254,-283.3735 534.895,-281.7491 531.5968,-275.5747"/>
</g>
</g>
</svg>
