<?xml version="1.0" encoding="UTF-8" standalone="no"?>
<!DOCTYPE svg PUBLIC "-//W3C//DTD SVG 1.1//EN"
 "http://www.w3.org/Graphics/SVG/1.1/DTD/svg11.dtd">
<!-- Generated by graphviz version 2.40.1 (20161225.0304)
 -->
<!-- Title: G Pages: 1 -->
<svg width="684pt" height="394pt"
 viewBox="0.00 0.00 684.44 393.60" xmlns="http://www.w3.org/2000/svg" xmlns:xlink="http://www.w3.org/1999/xlink">
<g id="graph0" class="graph" transform="scale(1 1) rotate(0) translate(4 389.6)">
<title>G</title>
<polygon fill="#ffffff" stroke="transparent" points="-4,4 -4,-389.6 680.4387,-389.6 680.4387,4 -4,4"/>
<!-- GO:0005737 -->
<g id="node1" class="node">
<title>GO:0005737</title>
<polygon fill="#ff00ff" stroke="#000000" points="216.0622,-144.2019 126.8544,-144.2019 126.8544,-102.9981 216.0622,-102.9981 216.0622,-144.2019"/>
<text text-anchor="middle" x="171.4583" y="-127.8" font-family="Times,serif" font-size="14.00" fill="#000000">GO:0005737</text>
<text text-anchor="middle" x="171.4583" y="-111" font-family="Times,serif" font-size="14.00" fill="#000000">cytoplasm</text>
</g>
<!-- GO:0044424 -->
<g id="node2" class="node">
<title>GO:0044424</title>
<polygon fill="#ff0000" stroke="#000000" points="248.8567,-230.2019 140.0599,-230.2019 140.0599,-188.9981 248.8567,-188.9981 248.8567,-230.2019"/>
<text text-anchor="middle" x="194.4583" y="-213.8" font-family="Times,serif" font-size="14.00" fill="#000000">GO:0044424</text>
<text text-anchor="middle" x="194.4583" y="-197" font-family="Times,serif" font-size="14.00" fill="#000000">intracellular part</text>
</g>
<!-- GO:0005737&#45;&gt;GO:0044424 -->
<g id="edge1" class="edge">
<title>GO:0005737&#45;&gt;GO:0044424</title>
<path fill="none" stroke="#000000" d="M177.026,-144.4182C179.8228,-154.8761 183.2644,-167.7446 186.3487,-179.277"/>
<polygon fill="#000000" stroke="#000000" points="182.9771,-180.2173 188.9419,-188.9735 189.7394,-178.4087 182.9771,-180.2173"/>
</g>
<!-- GO:0044464 -->
<g id="node3" class="node">
<title>GO:0044464</title>
<polygon fill="#ff0000" stroke="#000000" points="239.0622,-307.8019 149.8544,-307.8019 149.8544,-266.5981 239.0622,-266.5981 239.0622,-307.8019"/>
<text text-anchor="middle" x="194.4583" y="-291.4" font-family="Times,serif" font-size="14.00" fill="#000000">GO:0044464</text>
<text text-anchor="middle" x="194.4583" y="-274.6" font-family="Times,serif" font-size="14.00" fill="#000000">cell part</text>
</g>
<!-- GO:0044424&#45;&gt;GO:0044464 -->
<g id="edge2" class="edge">
<title>GO:0044424&#45;&gt;GO:0044464</title>
<path fill="none" stroke="#000000" d="M194.4583,-230.3954C194.4583,-238.3109 194.4583,-247.5109 194.4583,-256.1722"/>
<polygon fill="#000000" stroke="#000000" points="190.9584,-256.3472 194.4583,-266.3472 197.9584,-256.3473 190.9584,-256.3472"/>
</g>
<!-- GO:0005575 -->
<g id="node4" class="node">
<title>GO:0005575</title>
<polygon fill="#ffffff" stroke="#000000" points="421.145,-385.4019 293.7716,-385.4019 293.7716,-344.1981 421.145,-344.1981 421.145,-385.4019"/>
<text text-anchor="middle" x="357.4583" y="-369" font-family="Times,serif" font-size="14.00" fill="#000000">GO:0005575</text>
<text text-anchor="middle" x="357.4583" y="-352.2" font-family="Times,serif" font-size="14.00" fill="#000000">cellular_component</text>
</g>
<!-- GO:0044464&#45;&gt;GO:0005575 -->
<g id="edge3" class="edge">
<title>GO:0044464&#45;&gt;GO:0005575</title>
<path fill="none" stroke="#000000" d="M238.1393,-307.9954C258.5936,-317.7331 283.1315,-329.415 304.6222,-339.6461"/>
<polygon fill="#000000" stroke="#000000" points="303.4061,-342.9435 313.9396,-344.0819 306.415,-336.6232 303.4061,-342.9435"/>
</g>
<!-- GO:0043231 -->
<g id="node5" class="node">
<title>GO:0043231</title>
<polygon fill="#ffa500" stroke="#000000" points="611.8371,-58.6014 461.0795,-58.6014 461.0795,.2014 611.8371,.2014 611.8371,-58.6014"/>
<text text-anchor="middle" x="536.4583" y="-41.8" font-family="Times,serif" font-size="14.00" fill="#000000">GO:0043231</text>
<text text-anchor="middle" x="536.4583" y="-25" font-family="Times,serif" font-size="14.00" fill="#000000">intracellular membrane&#45;</text>
<text text-anchor="middle" x="536.4583" y="-8.2" font-family="Times,serif" font-size="14.00" fill="#000000">bounded organelle</text>
</g>
<!-- GO:0043229 -->
<g id="node6" class="node">
<title>GO:0043229</title>
<polygon fill="#ffa500" stroke="#000000" points="530.1767,-144.2019 390.7399,-144.2019 390.7399,-102.9981 530.1767,-102.9981 530.1767,-144.2019"/>
<text text-anchor="middle" x="460.4583" y="-127.8" font-family="Times,serif" font-size="14.00" fill="#000000">GO:0043229</text>
<text text-anchor="middle" x="460.4583" y="-111" font-family="Times,serif" font-size="14.00" fill="#000000">intracellular organelle</text>
</g>
<!-- GO:0043231&#45;&gt;GO:0043229 -->
<g id="edge4" class="edge">
<title>GO:0043231&#45;&gt;GO:0043229</title>
<path fill="none" stroke="#000000" d="M512.828,-58.5513C503.5011,-70.1363 492.8197,-83.4037 483.5465,-94.922"/>
<polygon fill="#000000" stroke="#000000" points="480.6273,-92.9667 477.0825,-102.951 486.0799,-97.3565 480.6273,-92.9667"/>
</g>
<!-- GO:0043227 -->
<g id="node7" class="node">
<title>GO:0043227</title>
<polygon fill="#ff0000" stroke="#000000" points="676.4191,-153.0014 548.4975,-153.0014 548.4975,-94.1986 676.4191,-94.1986 676.4191,-153.0014"/>
<text text-anchor="middle" x="612.4583" y="-136.2" font-family="Times,serif" font-size="14.00" fill="#000000">GO:0043227</text>
<text text-anchor="middle" x="612.4583" y="-119.4" font-family="Times,serif" font-size="14.00" fill="#000000">membrane&#45;bounded</text>
<text text-anchor="middle" x="612.4583" y="-102.6" font-family="Times,serif" font-size="14.00" fill="#000000">organelle</text>
</g>
<!-- GO:0043231&#45;&gt;GO:0043227 -->
<g id="edge5" class="edge">
<title>GO:0043231&#45;&gt;GO:0043227</title>
<path fill="none" stroke="#000000" d="M560.0886,-58.5513C567.166,-67.3422 575.0233,-77.1018 582.4534,-86.3308"/>
<polygon fill="#000000" stroke="#000000" points="579.8453,-88.6724 588.8426,-94.2669 585.2978,-84.2826 579.8453,-88.6724"/>
</g>
<!-- GO:0043229&#45;&gt;GO:0044424 -->
<g id="edge6" class="edge">
<title>GO:0043229&#45;&gt;GO:0044424</title>
<path fill="none" stroke="#000000" d="M406.4919,-144.3196C398.4647,-147.2511 390.2666,-150.162 382.4583,-152.8 341.712,-166.5661 295.4756,-180.5565 259.0523,-191.2079"/>
<polygon fill="#000000" stroke="#000000" points="257.6743,-187.9638 249.052,-194.1206 259.6318,-194.6845 257.6743,-187.9638"/>
</g>
<!-- GO:0043226 -->
<g id="node8" class="node">
<title>GO:0043226</title>
<polygon fill="#ffffff" stroke="#000000" points="530.0622,-230.2019 440.8544,-230.2019 440.8544,-188.9981 530.0622,-188.9981 530.0622,-230.2019"/>
<text text-anchor="middle" x="485.4583" y="-213.8" font-family="Times,serif" font-size="14.00" fill="#000000">GO:0043226</text>
<text text-anchor="middle" x="485.4583" y="-197" font-family="Times,serif" font-size="14.00" fill="#000000">organelle</text>
</g>
<!-- GO:0043229&#45;&gt;GO:0043226 -->
<g id="edge7" class="edge">
<title>GO:0043229&#45;&gt;GO:0043226</title>
<path fill="none" stroke="#000000" d="M466.5101,-144.4182C469.5502,-154.8761 473.291,-167.7446 476.6435,-179.277"/>
<polygon fill="#000000" stroke="#000000" points="473.3099,-180.348 479.4622,-188.9735 480.0316,-178.394 473.3099,-180.348"/>
</g>
<!-- GO:0043227&#45;&gt;GO:0043226 -->
<g id="edge8" class="edge">
<title>GO:0043227&#45;&gt;GO:0043226</title>
<path fill="none" stroke="#000000" d="M569.1073,-152.9558C554.7067,-162.7074 538.7636,-173.5035 524.692,-183.0323"/>
<polygon fill="#000000" stroke="#000000" points="522.5204,-180.2758 516.2027,-188.7809 526.4454,-186.0719 522.5204,-180.2758"/>
</g>
<!-- GO:0043226&#45;&gt;GO:0005575 -->
<g id="edge9" class="edge">
<title>GO:0043226&#45;&gt;GO:0005575</title>
<path fill="none" stroke="#000000" d="M486.4682,-230.5174C486.4379,-251.9999 483.304,-285.4017 466.4583,-308 456.7419,-321.0345 443.1547,-331.3414 428.8612,-339.3898"/>
<polygon fill="#000000" stroke="#000000" points="427.1132,-336.3547 419.8985,-344.1135 430.377,-342.5473 427.1132,-336.3547"/>
</g>
<!-- GO:0016020 -->
<g id="node9" class="node">
<title>GO:0016020</title>
<polygon fill="#ff00ff" stroke="#000000" points="457.0622,-307.8019 367.8544,-307.8019 367.8544,-266.5981 457.0622,-266.5981 457.0622,-307.8019"/>
<text text-anchor="middle" x="412.4583" y="-291.4" font-family="Times,serif" font-size="14.00" fill="#000000">GO:0016020</text>
<text text-anchor="middle" x="412.4583" y="-274.6" font-family="Times,serif" font-size="14.00" fill="#000000">membrane</text>
</g>
<!-- GO:0016020&#45;&gt;GO:0005575 -->
<g id="edge10" class="edge">
<title>GO:0016020&#45;&gt;GO:0005575</title>
<path fill="none" stroke="#000000" d="M397.7193,-307.9954C391.6776,-316.5197 384.5799,-326.5339 378.0404,-335.7605"/>
<polygon fill="#000000" stroke="#000000" points="375.165,-333.7647 372.238,-343.9472 380.876,-337.8125 375.165,-333.7647"/>
</g>
<!-- GO:0044444 -->
<g id="node10" class="node">
<title>GO:0044444</title>
<polygon fill="#ff00ff" stroke="#000000" points="108.8749,-144.2019 .0417,-144.2019 .0417,-102.9981 108.8749,-102.9981 108.8749,-144.2019"/>
<text text-anchor="middle" x="54.4583" y="-127.8" font-family="Times,serif" font-size="14.00" fill="#000000">GO:0044444</text>
<text text-anchor="middle" x="54.4583" y="-111" font-family="Times,serif" font-size="14.00" fill="#000000">cytoplasmic part</text>
</g>
<!-- GO:0044444&#45;&gt;GO:0044424 -->
<g id="edge11" class="edge">
<title>GO:0044444&#45;&gt;GO:0044424</title>
<path fill="none" stroke="#000000" d="M88.3484,-144.4182C107.5225,-156.1966 131.6742,-171.0326 152.0903,-183.5739"/>
<polygon fill="#000000" stroke="#000000" points="150.5275,-186.7216 160.8803,-188.9735 154.1915,-180.757 150.5275,-186.7216"/>
</g>
<!-- GO:0044446 -->
<g id="node11" class="node">
<title>GO:0044446</title>
<polygon fill="#ff00ff" stroke="#000000" points="373.1767,-153.0014 233.7399,-153.0014 233.7399,-94.1986 373.1767,-94.1986 373.1767,-153.0014"/>
<text text-anchor="middle" x="303.4583" y="-136.2" font-family="Times,serif" font-size="14.00" fill="#000000">GO:0044446</text>
<text text-anchor="middle" x="303.4583" y="-119.4" font-family="Times,serif" font-size="14.00" fill="#000000">intracellular organelle</text>
<text text-anchor="middle" x="303.4583" y="-102.6" font-family="Times,serif" font-size="14.00" fill="#000000">part</text>
</g>
<!-- GO:0044446&#45;&gt;GO:0044424 -->
<g id="edge12" class="edge">
<title>GO:0044446&#45;&gt;GO:0044424</title>
<path fill="none" stroke="#000000" d="M266.2515,-152.9558C254.1251,-162.5234 240.7244,-173.0964 228.8166,-182.4916"/>
<polygon fill="#000000" stroke="#000000" points="226.528,-179.8391 220.8452,-188.7809 230.8639,-185.3345 226.528,-179.8391"/>
</g>
<!-- GO:0044422 -->
<g id="node12" class="node">
<title>GO:0044422</title>
<polygon fill="#ffffff" stroke="#000000" points="350.3104,-307.8019 256.6062,-307.8019 256.6062,-266.5981 350.3104,-266.5981 350.3104,-307.8019"/>
<text text-anchor="middle" x="303.4583" y="-291.4" font-family="Times,serif" font-size="14.00" fill="#000000">GO:0044422</text>
<text text-anchor="middle" x="303.4583" y="-274.6" font-family="Times,serif" font-size="14.00" fill="#000000">organelle part</text>
</g>
<!-- GO:0044446&#45;&gt;GO:0044422 -->
<g id="edge13" class="edge">
<title>GO:0044446&#45;&gt;GO:0044422</title>
<path fill="none" stroke="#000000" d="M303.4583,-152.8484C303.4583,-181.9891 303.4583,-226.5603 303.4583,-256.2759"/>
<polygon fill="#000000" stroke="#000000" points="299.9584,-256.4955 303.4583,-266.4955 306.9584,-256.4955 299.9584,-256.4955"/>
</g>
<!-- GO:0044422&#45;&gt;GO:0005575 -->
<g id="edge14" class="edge">
<title>GO:0044422&#45;&gt;GO:0005575</title>
<path fill="none" stroke="#000000" d="M317.9293,-307.9954C323.8007,-316.4328 330.6877,-326.3297 337.0537,-335.4778"/>
<polygon fill="#000000" stroke="#000000" points="334.3625,-337.7382 342.9473,-343.9472 340.1083,-333.7398 334.3625,-337.7382"/>
</g>
</g>
</svg>
