<?xml version="1.0" encoding="UTF-8" standalone="no"?>
<!DOCTYPE svg PUBLIC "-//W3C//DTD SVG 1.1//EN"
 "http://www.w3.org/Graphics/SVG/1.1/DTD/svg11.dtd">
<!-- Generated by graphviz version 2.40.1 (20161225.0304)
 -->
<!-- Title: G Pages: 1 -->
<svg width="265pt" height="282pt"
 viewBox="0.00 0.00 265.36 282.40" xmlns="http://www.w3.org/2000/svg" xmlns:xlink="http://www.w3.org/1999/xlink">
<g id="graph0" class="graph" transform="scale(1 1) rotate(0) translate(4 278.4)">
<title>G</title>
<polygon fill="#ffffff" stroke="transparent" points="-4,4 -4,-278.4 261.364,-278.4 261.364,4 -4,4"/>
<!-- GO:0043169 -->
<g id="node1" class="node">
<title>GO:0043169</title>
<polygon fill="#ffffff" stroke="#000000" points="96.7387,-41.4019 -.2471,-41.4019 -.2471,-.1981 96.7387,-.1981 96.7387,-41.4019"/>
<text text-anchor="middle" x="48.2458" y="-25" font-family="Times,serif" font-size="14.00" fill="#000000">GO:0043169</text>
<text text-anchor="middle" x="48.2458" y="-8.2" font-family="Times,serif" font-size="14.00" fill="#000000">cation binding</text>
</g>
<!-- GO:0043167 -->
<g id="node2" class="node">
<title>GO:0043167</title>
<polygon fill="#ffffff" stroke="#000000" points="92.8497,-119.0019 3.6419,-119.0019 3.6419,-77.7981 92.8497,-77.7981 92.8497,-119.0019"/>
<text text-anchor="middle" x="48.2458" y="-102.6" font-family="Times,serif" font-size="14.00" fill="#000000">GO:0043167</text>
<text text-anchor="middle" x="48.2458" y="-85.8" font-family="Times,serif" font-size="14.00" fill="#000000">ion binding</text>
</g>
<!-- GO:0043169&#45;&gt;GO:0043167 -->
<g id="edge1" class="edge">
<title>GO:0043169&#45;&gt;GO:0043167</title>
<path fill="none" stroke="#000000" d="M48.2458,-41.5954C48.2458,-49.5109 48.2458,-58.7109 48.2458,-67.3722"/>
<polygon fill="#000000" stroke="#000000" points="44.7459,-67.5472 48.2458,-77.5472 51.7459,-67.5473 44.7459,-67.5472"/>
</g>
<!-- GO:0005488 -->
<g id="node3" class="node">
<title>GO:0005488</title>
<polygon fill="#ffffff" stroke="#000000" points="101.8497,-196.6019 12.6419,-196.6019 12.6419,-155.3981 101.8497,-155.3981 101.8497,-196.6019"/>
<text text-anchor="middle" x="57.2458" y="-180.2" font-family="Times,serif" font-size="14.00" fill="#000000">GO:0005488</text>
<text text-anchor="middle" x="57.2458" y="-163.4" font-family="Times,serif" font-size="14.00" fill="#000000">binding</text>
</g>
<!-- GO:0043167&#45;&gt;GO:0005488 -->
<g id="edge2" class="edge">
<title>GO:0043167&#45;&gt;GO:0005488</title>
<path fill="none" stroke="#000000" d="M50.6576,-119.1954C51.5757,-127.1109 52.6427,-136.3109 53.6472,-144.9722"/>
<polygon fill="#000000" stroke="#000000" points="50.1985,-145.6171 54.8273,-155.1472 57.1518,-144.8106 50.1985,-145.6171"/>
</g>
<!-- GO:0003674 -->
<g id="node4" class="node">
<title>GO:0003674</title>
<polygon fill="#ffffff" stroke="#000000" points="177.8789,-274.2019 52.6127,-274.2019 52.6127,-232.9981 177.8789,-232.9981 177.8789,-274.2019"/>
<text text-anchor="middle" x="115.2458" y="-257.8" font-family="Times,serif" font-size="14.00" fill="#000000">GO:0003674</text>
<text text-anchor="middle" x="115.2458" y="-241" font-family="Times,serif" font-size="14.00" fill="#000000">molecular_function</text>
</g>
<!-- GO:0005488&#45;&gt;GO:0003674 -->
<g id="edge3" class="edge">
<title>GO:0005488&#45;&gt;GO:0003674</title>
<path fill="none" stroke="#000000" d="M72.7887,-196.7954C79.16,-205.3197 86.6449,-215.3339 93.541,-224.5605"/>
<polygon fill="#000000" stroke="#000000" points="90.8697,-226.8327 99.66,-232.7472 96.4766,-222.6419 90.8697,-226.8327"/>
</g>
<!-- GO:0016491 -->
<g id="node5" class="node">
<title>GO:0016491</title>
<polygon fill="#ffffff" stroke="#000000" points="257.4824,-119.0019 111.0092,-119.0019 111.0092,-77.7981 257.4824,-77.7981 257.4824,-119.0019"/>
<text text-anchor="middle" x="184.2458" y="-102.6" font-family="Times,serif" font-size="14.00" fill="#000000">GO:0016491</text>
<text text-anchor="middle" x="184.2458" y="-85.8" font-family="Times,serif" font-size="14.00" fill="#000000">oxidoreductase activity</text>
</g>
<!-- GO:0003824 -->
<g id="node6" class="node">
<title>GO:0003824</title>
<polygon fill="#ffffff" stroke="#000000" points="233.6582,-196.6019 124.8334,-196.6019 124.8334,-155.3981 233.6582,-155.3981 233.6582,-196.6019"/>
<text text-anchor="middle" x="179.2458" y="-180.2" font-family="Times,serif" font-size="14.00" fill="#000000">GO:0003824</text>
<text text-anchor="middle" x="179.2458" y="-163.4" font-family="Times,serif" font-size="14.00" fill="#000000">catalytic activity</text>
</g>
<!-- GO:0016491&#45;&gt;GO:0003824 -->
<g id="edge4" class="edge">
<title>GO:0016491&#45;&gt;GO:0003824</title>
<path fill="none" stroke="#000000" d="M182.9059,-119.1954C182.3959,-127.1109 181.8031,-136.3109 181.245,-144.9722"/>
<polygon fill="#000000" stroke="#000000" points="177.7397,-144.9428 180.5894,-155.1472 184.7253,-145.393 177.7397,-144.9428"/>
</g>
<!-- GO:0003824&#45;&gt;GO:0003674 -->
<g id="edge5" class="edge">
<title>GO:0003824&#45;&gt;GO:0003674</title>
<path fill="none" stroke="#000000" d="M162.095,-196.7954C154.9928,-205.4067 146.6368,-215.5384 138.9631,-224.8427"/>
<polygon fill="#000000" stroke="#000000" points="136.1065,-222.8056 132.444,-232.7472 141.5068,-227.2594 136.1065,-222.8056"/>
</g>
</g>
</svg>
