<?xml version="1.0" encoding="UTF-8" standalone="no"?>
<!DOCTYPE svg PUBLIC "-//W3C//DTD SVG 1.1//EN"
 "http://www.w3.org/Graphics/SVG/1.1/DTD/svg11.dtd">
<!-- Generated by graphviz version 2.40.1 (20161225.0304)
 -->
<!-- Title: G Pages: 1 -->
<svg width="1276pt" height="633pt"
 viewBox="0.00 0.00 1275.61 632.80" xmlns="http://www.w3.org/2000/svg" xmlns:xlink="http://www.w3.org/1999/xlink">
<g id="graph0" class="graph" transform="scale(1 1) rotate(0) translate(4 628.8)">
<title>G</title>
<polygon fill="#ffffff" stroke="transparent" points="-4,4 -4,-628.8 1271.6147,-628.8 1271.6147,4 -4,4"/>
<!-- GO:0042773 -->
<g id="node1" class="node">
<title>GO:0042773</title>
<polygon fill="#ffffff" stroke="#000000" points="314.0453,-58.6014 168.8629,-58.6014 168.8629,.2014 314.0453,.2014 314.0453,-58.6014"/>
<text text-anchor="middle" x="241.4541" y="-41.8" font-family="Times,serif" font-size="14.00" fill="#000000">GO:0042773</text>
<text text-anchor="middle" x="241.4541" y="-25" font-family="Times,serif" font-size="14.00" fill="#000000">ATP synthesis coupled</text>
<text text-anchor="middle" x="241.4541" y="-8.2" font-family="Times,serif" font-size="14.00" fill="#000000">electron transport</text>
</g>
<!-- GO:0022904 -->
<g id="node2" class="node">
<title>GO:0022904</title>
<polygon fill="#ffffff" stroke="#000000" points="304.1767,-153.0014 178.7315,-153.0014 178.7315,-94.1986 304.1767,-94.1986 304.1767,-153.0014"/>
<text text-anchor="middle" x="241.4541" y="-136.2" font-family="Times,serif" font-size="14.00" fill="#000000">GO:0022904</text>
<text text-anchor="middle" x="241.4541" y="-119.4" font-family="Times,serif" font-size="14.00" fill="#000000">respiratory electron</text>
<text text-anchor="middle" x="241.4541" y="-102.6" font-family="Times,serif" font-size="14.00" fill="#000000">transport chain</text>
</g>
<!-- GO:0042773&#45;&gt;GO:0022904 -->
<g id="edge1" class="edge">
<title>GO:0042773&#45;&gt;GO:0022904</title>
<path fill="none" stroke="#000000" d="M241.4541,-58.5513C241.4541,-66.6318 241.4541,-75.5308 241.4541,-84.0838"/>
<polygon fill="#000000" stroke="#000000" points="237.9542,-84.2668 241.4541,-94.2669 244.9542,-84.2669 237.9542,-84.2668"/>
</g>
<!-- GO:0022900 -->
<g id="node3" class="node">
<title>GO:0022900</title>
<polygon fill="#ffffff" stroke="#000000" points="315.6212,-238.6019 167.287,-238.6019 167.287,-197.3981 315.6212,-197.3981 315.6212,-238.6019"/>
<text text-anchor="middle" x="241.4541" y="-222.2" font-family="Times,serif" font-size="14.00" fill="#000000">GO:0022900</text>
<text text-anchor="middle" x="241.4541" y="-205.4" font-family="Times,serif" font-size="14.00" fill="#000000">electron transport chain</text>
</g>
<!-- GO:0022904&#45;&gt;GO:0022900 -->
<g id="edge2" class="edge">
<title>GO:0022904&#45;&gt;GO:0022900</title>
<path fill="none" stroke="#000000" d="M241.4541,-152.9513C241.4541,-163.8614 241.4541,-176.2637 241.4541,-187.292"/>
<polygon fill="#000000" stroke="#000000" points="237.9542,-187.3509 241.4541,-197.351 244.9542,-187.351 237.9542,-187.3509"/>
</g>
<!-- GO:0006091 -->
<g id="node4" class="node">
<title>GO:0006091</title>
<polygon fill="#ffffff" stroke="#000000" points="314.5564,-341.8014 168.3518,-341.8014 168.3518,-282.9986 314.5564,-282.9986 314.5564,-341.8014"/>
<text text-anchor="middle" x="241.4541" y="-325" font-family="Times,serif" font-size="14.00" fill="#000000">GO:0006091</text>
<text text-anchor="middle" x="241.4541" y="-308.2" font-family="Times,serif" font-size="14.00" fill="#000000">generation of precursor</text>
<text text-anchor="middle" x="241.4541" y="-291.4" font-family="Times,serif" font-size="14.00" fill="#000000">metabolites and energy</text>
</g>
<!-- GO:0022900&#45;&gt;GO:0006091 -->
<g id="edge3" class="edge">
<title>GO:0022900&#45;&gt;GO:0006091</title>
<path fill="none" stroke="#000000" d="M241.4541,-238.9504C241.4541,-248.9492 241.4541,-261.2525 241.4541,-272.9106"/>
<polygon fill="#000000" stroke="#000000" points="237.9542,-272.9155 241.4541,-282.9155 244.9542,-272.9156 237.9542,-272.9155"/>
</g>
<!-- GO:0044763 -->
<g id="node5" class="node">
<title>GO:0044763</title>
<polygon fill="#ffffff" stroke="#000000" points="469.1326,-444.6014 317.7756,-444.6014 317.7756,-385.7986 469.1326,-385.7986 469.1326,-444.6014"/>
<text text-anchor="middle" x="393.4541" y="-427.8" font-family="Times,serif" font-size="14.00" fill="#000000">GO:0044763</text>
<text text-anchor="middle" x="393.4541" y="-411" font-family="Times,serif" font-size="14.00" fill="#000000">single&#45;organism cellular</text>
<text text-anchor="middle" x="393.4541" y="-394.2" font-family="Times,serif" font-size="14.00" fill="#000000">process</text>
</g>
<!-- GO:0022900&#45;&gt;GO:0044763 -->
<g id="edge4" class="edge">
<title>GO:0022900&#45;&gt;GO:0044763</title>
<path fill="none" stroke="#000000" d="M273.6787,-238.8626C289.9853,-250.526 309.2732,-266.1336 323.4541,-283.2 346.8845,-311.3979 365.7798,-348.6946 378.0059,-376.4484"/>
<polygon fill="#000000" stroke="#000000" points="374.879,-378.0364 382.0488,-385.8367 381.3082,-375.2678 374.879,-378.0364"/>
</g>
<!-- GO:0055114 -->
<g id="node6" class="node">
<title>GO:0055114</title>
<polygon fill="#ffffff" stroke="#000000" points="147.8728,-341.8014 21.0354,-341.8014 21.0354,-282.9986 147.8728,-282.9986 147.8728,-341.8014"/>
<text text-anchor="middle" x="84.4541" y="-325" font-family="Times,serif" font-size="14.00" fill="#000000">GO:0055114</text>
<text text-anchor="middle" x="84.4541" y="-308.2" font-family="Times,serif" font-size="14.00" fill="#000000">oxidation&#45;reduction</text>
<text text-anchor="middle" x="84.4541" y="-291.4" font-family="Times,serif" font-size="14.00" fill="#000000">process</text>
</g>
<!-- GO:0022900&#45;&gt;GO:0055114 -->
<g id="edge5" class="edge">
<title>GO:0022900&#45;&gt;GO:0055114</title>
<path fill="none" stroke="#000000" d="M206.9998,-238.7165C187.875,-250.2157 163.5931,-264.8158 141.6975,-277.9811"/>
<polygon fill="#000000" stroke="#000000" points="139.8883,-274.9849 133.1217,-283.1374 143.4954,-280.9839 139.8883,-274.9849"/>
</g>
<!-- GO:0044237 -->
<g id="node7" class="node">
<title>GO:0044237</title>
<polygon fill="#ffffff" stroke="#000000" points="299.6369,-444.6014 183.2713,-444.6014 183.2713,-385.7986 299.6369,-385.7986 299.6369,-444.6014"/>
<text text-anchor="middle" x="241.4541" y="-427.8" font-family="Times,serif" font-size="14.00" fill="#000000">GO:0044237</text>
<text text-anchor="middle" x="241.4541" y="-411" font-family="Times,serif" font-size="14.00" fill="#000000">cellular metabolic</text>
<text text-anchor="middle" x="241.4541" y="-394.2" font-family="Times,serif" font-size="14.00" fill="#000000">process</text>
</g>
<!-- GO:0006091&#45;&gt;GO:0044237 -->
<g id="edge6" class="edge">
<title>GO:0006091&#45;&gt;GO:0044237</title>
<path fill="none" stroke="#000000" d="M241.4541,-341.8584C241.4541,-352.3969 241.4541,-364.4505 241.4541,-375.6994"/>
<polygon fill="#000000" stroke="#000000" points="237.9542,-375.7373 241.4541,-385.7373 244.9542,-375.7374 237.9542,-375.7373"/>
</g>
<!-- GO:0009987 -->
<g id="node8" class="node">
<title>GO:0009987</title>
<polygon fill="#ffffff" stroke="#000000" points="469.4103,-538.6019 365.4979,-538.6019 365.4979,-497.3981 469.4103,-497.3981 469.4103,-538.6019"/>
<text text-anchor="middle" x="417.4541" y="-522.2" font-family="Times,serif" font-size="14.00" fill="#000000">GO:0009987</text>
<text text-anchor="middle" x="417.4541" y="-505.4" font-family="Times,serif" font-size="14.00" fill="#000000">cellular process</text>
</g>
<!-- GO:0044763&#45;&gt;GO:0009987 -->
<g id="edge7" class="edge">
<title>GO:0044763&#45;&gt;GO:0009987</title>
<path fill="none" stroke="#000000" d="M400.3315,-444.6584C403.4663,-458.0856 407.1752,-473.9721 410.3382,-487.5204"/>
<polygon fill="#000000" stroke="#000000" points="406.9502,-488.4032 412.6321,-497.3456 413.7668,-486.8117 406.9502,-488.4032"/>
</g>
<!-- GO:0044699 -->
<g id="node9" class="node">
<title>GO:0044699</title>
<polygon fill="#ffffff" stroke="#000000" points="347.1354,-538.6019 195.7728,-538.6019 195.7728,-497.3981 347.1354,-497.3981 347.1354,-538.6019"/>
<text text-anchor="middle" x="271.4541" y="-522.2" font-family="Times,serif" font-size="14.00" fill="#000000">GO:0044699</text>
<text text-anchor="middle" x="271.4541" y="-505.4" font-family="Times,serif" font-size="14.00" fill="#000000">single&#45;organism process</text>
</g>
<!-- GO:0044763&#45;&gt;GO:0044699 -->
<g id="edge8" class="edge">
<title>GO:0044763&#45;&gt;GO:0044699</title>
<path fill="none" stroke="#000000" d="M358.4938,-444.6584C341.309,-459.1387 320.7297,-476.4792 303.8971,-490.6628"/>
<polygon fill="#000000" stroke="#000000" points="301.358,-488.2254 295.9661,-497.3456 305.8686,-493.5784 301.358,-488.2254"/>
</g>
<!-- GO:0044710 -->
<g id="node10" class="node">
<title>GO:0044710</title>
<polygon fill="#ffffff" stroke="#000000" points="164.8623,-444.6014 .0459,-444.6014 .0459,-385.7986 164.8623,-385.7986 164.8623,-444.6014"/>
<text text-anchor="middle" x="82.4541" y="-427.8" font-family="Times,serif" font-size="14.00" fill="#000000">GO:0044710</text>
<text text-anchor="middle" x="82.4541" y="-411" font-family="Times,serif" font-size="14.00" fill="#000000">single&#45;organism metabolic</text>
<text text-anchor="middle" x="82.4541" y="-394.2" font-family="Times,serif" font-size="14.00" fill="#000000">process</text>
</g>
<!-- GO:0055114&#45;&gt;GO:0044710 -->
<g id="edge9" class="edge">
<title>GO:0055114&#45;&gt;GO:0044710</title>
<path fill="none" stroke="#000000" d="M83.881,-341.8584C83.6759,-352.3969 83.4414,-364.4505 83.2226,-375.6994"/>
<polygon fill="#000000" stroke="#000000" points="79.7226,-375.6711 83.0273,-385.7373 86.7213,-375.8074 79.7226,-375.6711"/>
</g>
<!-- GO:0044237&#45;&gt;GO:0009987 -->
<g id="edge10" class="edge">
<title>GO:0044237&#45;&gt;GO:0009987</title>
<path fill="none" stroke="#000000" d="M291.8886,-444.6584C317.5814,-459.6653 348.5335,-477.7441 373.2782,-492.1973"/>
<polygon fill="#000000" stroke="#000000" points="371.6923,-495.3242 382.0925,-497.3456 375.2229,-489.2798 371.6923,-495.3242"/>
</g>
<!-- GO:0008152 -->
<g id="node11" class="node">
<title>GO:0008152</title>
<polygon fill="#ffffff" stroke="#000000" points="159.6397,-538.6019 43.2685,-538.6019 43.2685,-497.3981 159.6397,-497.3981 159.6397,-538.6019"/>
<text text-anchor="middle" x="101.4541" y="-522.2" font-family="Times,serif" font-size="14.00" fill="#000000">GO:0008152</text>
<text text-anchor="middle" x="101.4541" y="-505.4" font-family="Times,serif" font-size="14.00" fill="#000000">metabolic process</text>
</g>
<!-- GO:0044237&#45;&gt;GO:0008152 -->
<g id="edge11" class="edge">
<title>GO:0044237&#45;&gt;GO:0008152</title>
<path fill="none" stroke="#000000" d="M201.3357,-444.6584C181.3465,-459.3362 157.3551,-476.9527 137.896,-491.2412"/>
<polygon fill="#000000" stroke="#000000" points="135.5715,-488.6058 129.5826,-497.3456 139.7146,-494.2481 135.5715,-488.6058"/>
</g>
<!-- GO:0008150 -->
<g id="node12" class="node">
<title>GO:0008150</title>
<polygon fill="#ffffff" stroke="#000000" points="517.9247,-624.6019 396.9835,-624.6019 396.9835,-583.3981 517.9247,-583.3981 517.9247,-624.6019"/>
<text text-anchor="middle" x="457.4541" y="-608.2" font-family="Times,serif" font-size="14.00" fill="#000000">GO:0008150</text>
<text text-anchor="middle" x="457.4541" y="-591.4" font-family="Times,serif" font-size="14.00" fill="#000000">biological_process</text>
</g>
<!-- GO:0009987&#45;&gt;GO:0008150 -->
<g id="edge12" class="edge">
<title>GO:0009987&#45;&gt;GO:0008150</title>
<path fill="none" stroke="#000000" d="M427.137,-538.8182C432.0503,-549.3818 438.1075,-562.4048 443.5127,-574.0261"/>
<polygon fill="#000000" stroke="#000000" points="440.4695,-575.7824 447.8604,-583.3735 446.8165,-572.8302 440.4695,-575.7824"/>
</g>
<!-- GO:0044699&#45;&gt;GO:0008150 -->
<g id="edge13" class="edge">
<title>GO:0044699&#45;&gt;GO:0008150</title>
<path fill="none" stroke="#000000" d="M316.4795,-538.8182C342.7533,-550.9663 376.0618,-566.367 403.7044,-579.148"/>
<polygon fill="#000000" stroke="#000000" points="402.2977,-582.3535 412.8433,-583.3735 405.2355,-575.9998 402.2977,-582.3535"/>
</g>
<!-- GO:0044710&#45;&gt;GO:0044699 -->
<g id="edge15" class="edge">
<title>GO:0044710&#45;&gt;GO:0044699</title>
<path fill="none" stroke="#000000" d="M136.361,-444.5208C164.2005,-459.6631 197.8433,-477.962 224.5911,-492.5105"/>
<polygon fill="#000000" stroke="#000000" points="222.9225,-495.5871 233.3795,-497.2906 226.2672,-489.4378 222.9225,-495.5871"/>
</g>
<!-- GO:0044710&#45;&gt;GO:0008152 -->
<g id="edge14" class="edge">
<title>GO:0044710&#45;&gt;GO:0008152</title>
<path fill="none" stroke="#000000" d="M87.8987,-444.6584C90.3561,-457.9539 93.2591,-473.6608 95.7469,-487.1212"/>
<polygon fill="#000000" stroke="#000000" points="92.3774,-488.1483 97.6367,-497.3456 99.2608,-486.876 92.3774,-488.1483"/>
</g>
<!-- GO:0051607 -->
<g id="node13" class="node">
<title>GO:0051607</title>
<polygon fill="#ffffff" stroke="#000000" points="837.0685,-144.2019 679.8397,-144.2019 679.8397,-102.9981 837.0685,-102.9981 837.0685,-144.2019"/>
<text text-anchor="middle" x="758.4541" y="-127.8" font-family="Times,serif" font-size="14.00" fill="#000000">GO:0051607</text>
<text text-anchor="middle" x="758.4541" y="-111" font-family="Times,serif" font-size="14.00" fill="#000000">defense response to virus</text>
</g>
<!-- GO:0009615 -->
<g id="node14" class="node">
<title>GO:0009615</title>
<polygon fill="#ffffff" stroke="#000000" points="813.8196,-238.6019 703.0886,-238.6019 703.0886,-197.3981 813.8196,-197.3981 813.8196,-238.6019"/>
<text text-anchor="middle" x="758.4541" y="-222.2" font-family="Times,serif" font-size="14.00" fill="#000000">GO:0009615</text>
<text text-anchor="middle" x="758.4541" y="-205.4" font-family="Times,serif" font-size="14.00" fill="#000000">response to virus</text>
</g>
<!-- GO:0051607&#45;&gt;GO:0009615 -->
<g id="edge16" class="edge">
<title>GO:0051607&#45;&gt;GO:0009615</title>
<path fill="none" stroke="#000000" d="M758.4541,-144.5504C758.4541,-157.0165 758.4541,-173.0645 758.4541,-186.9786"/>
<polygon fill="#000000" stroke="#000000" points="754.9542,-187.1081 758.4541,-197.1081 761.9542,-187.1082 754.9542,-187.1081"/>
</g>
<!-- GO:0098542 -->
<g id="node15" class="node">
<title>GO:0098542</title>
<polygon fill="#ffffff" stroke="#000000" points="989.3385,-247.4014 831.5697,-247.4014 831.5697,-188.5986 989.3385,-188.5986 989.3385,-247.4014"/>
<text text-anchor="middle" x="910.4541" y="-230.6" font-family="Times,serif" font-size="14.00" fill="#000000">GO:0098542</text>
<text text-anchor="middle" x="910.4541" y="-213.8" font-family="Times,serif" font-size="14.00" fill="#000000">defense response to other</text>
<text text-anchor="middle" x="910.4541" y="-197" font-family="Times,serif" font-size="14.00" fill="#000000">organism</text>
</g>
<!-- GO:0051607&#45;&gt;GO:0098542 -->
<g id="edge17" class="edge">
<title>GO:0051607&#45;&gt;GO:0098542</title>
<path fill="none" stroke="#000000" d="M791.8111,-144.3165C810.245,-155.7649 833.6275,-170.2866 854.7523,-183.4062"/>
<polygon fill="#000000" stroke="#000000" points="852.9948,-186.4348 863.3364,-188.7374 856.6879,-180.4883 852.9948,-186.4348"/>
</g>
<!-- GO:0002252 -->
<g id="node16" class="node">
<title>GO:0002252</title>
<polygon fill="#ffffff" stroke="#000000" points="646.8362,-238.6019 492.072,-238.6019 492.072,-197.3981 646.8362,-197.3981 646.8362,-238.6019"/>
<text text-anchor="middle" x="569.4541" y="-222.2" font-family="Times,serif" font-size="14.00" fill="#000000">GO:0002252</text>
<text text-anchor="middle" x="569.4541" y="-205.4" font-family="Times,serif" font-size="14.00" fill="#000000">immune effector process</text>
</g>
<!-- GO:0051607&#45;&gt;GO:0002252 -->
<g id="edge18" class="edge">
<title>GO:0051607&#45;&gt;GO:0002252</title>
<path fill="none" stroke="#000000" d="M716.9772,-144.3165C688.4194,-158.5803 650.3095,-177.6151 619.9784,-192.7646"/>
<polygon fill="#000000" stroke="#000000" points="618.2164,-189.7323 610.8342,-197.3318 621.3443,-195.9946 618.2164,-189.7323"/>
</g>
<!-- GO:0051707 -->
<g id="node17" class="node">
<title>GO:0051707</title>
<polygon fill="#ffffff" stroke="#000000" points="955.0901,-341.8014 843.8181,-341.8014 843.8181,-282.9986 955.0901,-282.9986 955.0901,-341.8014"/>
<text text-anchor="middle" x="899.4541" y="-325" font-family="Times,serif" font-size="14.00" fill="#000000">GO:0051707</text>
<text text-anchor="middle" x="899.4541" y="-308.2" font-family="Times,serif" font-size="14.00" fill="#000000">response to other</text>
<text text-anchor="middle" x="899.4541" y="-291.4" font-family="Times,serif" font-size="14.00" fill="#000000">organism</text>
</g>
<!-- GO:0009615&#45;&gt;GO:0051707 -->
<g id="edge19" class="edge">
<title>GO:0009615&#45;&gt;GO:0051707</title>
<path fill="none" stroke="#000000" d="M789.3971,-238.7165C806.345,-250.0631 827.8021,-264.4287 847.2603,-277.456"/>
<polygon fill="#000000" stroke="#000000" points="845.4894,-280.4824 855.7462,-283.1374 849.3838,-274.6657 845.4894,-280.4824"/>
</g>
<!-- GO:0016032 -->
<g id="node18" class="node">
<title>GO:0016032</title>
<polygon fill="#ffffff" stroke="#000000" points="803.058,-333.0019 713.8502,-333.0019 713.8502,-291.7981 803.058,-291.7981 803.058,-333.0019"/>
<text text-anchor="middle" x="758.4541" y="-316.6" font-family="Times,serif" font-size="14.00" fill="#000000">GO:0016032</text>
<text text-anchor="middle" x="758.4541" y="-299.8" font-family="Times,serif" font-size="14.00" fill="#000000">viral process</text>
</g>
<!-- GO:0009615&#45;&gt;GO:0016032 -->
<g id="edge20" class="edge">
<title>GO:0009615&#45;&gt;GO:0016032</title>
<path fill="none" stroke="#000000" d="M758.4541,-238.9504C758.4541,-251.4165 758.4541,-267.4645 758.4541,-281.3786"/>
<polygon fill="#000000" stroke="#000000" points="754.9542,-281.5081 758.4541,-291.5081 761.9542,-281.5082 754.9542,-281.5081"/>
</g>
<!-- GO:0098542&#45;&gt;GO:0051707 -->
<g id="edge22" class="edge">
<title>GO:0098542&#45;&gt;GO:0051707</title>
<path fill="none" stroke="#000000" d="M907.0339,-247.3513C906.0923,-255.4318 905.0554,-264.3308 904.0587,-272.8838"/>
<polygon fill="#000000" stroke="#000000" points="900.5532,-272.7289 902.8722,-283.0669 907.5061,-273.5392 900.5532,-272.7289"/>
</g>
<!-- GO:0006952 -->
<g id="node19" class="node">
<title>GO:0006952</title>
<polygon fill="#ffffff" stroke="#000000" points="1135.1823,-333.0019 1023.7259,-333.0019 1023.7259,-291.7981 1135.1823,-291.7981 1135.1823,-333.0019"/>
<text text-anchor="middle" x="1079.4541" y="-316.6" font-family="Times,serif" font-size="14.00" fill="#000000">GO:0006952</text>
<text text-anchor="middle" x="1079.4541" y="-299.8" font-family="Times,serif" font-size="14.00" fill="#000000">defense response</text>
</g>
<!-- GO:0098542&#45;&gt;GO:0006952 -->
<g id="edge21" class="edge">
<title>GO:0098542&#45;&gt;GO:0006952</title>
<path fill="none" stroke="#000000" d="M963.0004,-247.3513C985.6534,-260.0048 1011.8995,-274.6654 1033.7343,-286.8618"/>
<polygon fill="#000000" stroke="#000000" points="1032.0499,-289.93 1042.4871,-291.751 1035.4636,-283.8187 1032.0499,-289.93"/>
</g>
<!-- GO:0002376 -->
<g id="node20" class="node">
<title>GO:0002376</title>
<polygon fill="#ffffff" stroke="#000000" points="625.2047,-333.0019 475.7035,-333.0019 475.7035,-291.7981 625.2047,-291.7981 625.2047,-333.0019"/>
<text text-anchor="middle" x="550.4541" y="-316.6" font-family="Times,serif" font-size="14.00" fill="#000000">GO:0002376</text>
<text text-anchor="middle" x="550.4541" y="-299.8" font-family="Times,serif" font-size="14.00" fill="#000000">immune system process</text>
</g>
<!-- GO:0002252&#45;&gt;GO:0002376 -->
<g id="edge23" class="edge">
<title>GO:0002252&#45;&gt;GO:0002376</title>
<path fill="none" stroke="#000000" d="M565.2374,-238.9504C562.7283,-251.4165 559.4983,-267.4645 556.6978,-281.3786"/>
<polygon fill="#000000" stroke="#000000" points="553.2011,-281.0141 554.659,-291.5081 560.0634,-282.3954 553.2011,-281.0141"/>
</g>
<!-- GO:0043207 -->
<g id="node21" class="node">
<title>GO:0043207</title>
<polygon fill="#ffffff" stroke="#000000" points="1033.4093,-444.6014 905.4989,-444.6014 905.4989,-385.7986 1033.4093,-385.7986 1033.4093,-444.6014"/>
<text text-anchor="middle" x="969.4541" y="-427.8" font-family="Times,serif" font-size="14.00" fill="#000000">GO:0043207</text>
<text text-anchor="middle" x="969.4541" y="-411" font-family="Times,serif" font-size="14.00" fill="#000000">response to external</text>
<text text-anchor="middle" x="969.4541" y="-394.2" font-family="Times,serif" font-size="14.00" fill="#000000">biotic stimulus</text>
</g>
<!-- GO:0051707&#45;&gt;GO:0043207 -->
<g id="edge24" class="edge">
<title>GO:0051707&#45;&gt;GO:0043207</title>
<path fill="none" stroke="#000000" d="M919.5133,-341.8584C927.0555,-352.9346 935.7372,-365.6844 943.7247,-377.4146"/>
<polygon fill="#000000" stroke="#000000" points="940.8706,-379.4416 949.392,-385.7373 946.6566,-375.5017 940.8706,-379.4416"/>
</g>
<!-- GO:0051704 -->
<g id="node22" class="node">
<title>GO:0051704</title>
<polygon fill="#ffffff" stroke="#000000" points="673.2572,-538.6019 525.651,-538.6019 525.651,-497.3981 673.2572,-497.3981 673.2572,-538.6019"/>
<text text-anchor="middle" x="599.4541" y="-522.2" font-family="Times,serif" font-size="14.00" fill="#000000">GO:0051704</text>
<text text-anchor="middle" x="599.4541" y="-505.4" font-family="Times,serif" font-size="14.00" fill="#000000">multi&#45;organism process</text>
</g>
<!-- GO:0051707&#45;&gt;GO:0051704 -->
<g id="edge25" class="edge">
<title>GO:0051707&#45;&gt;GO:0051704</title>
<path fill="none" stroke="#000000" d="M899.2942,-341.6504C897.4618,-373.6518 889.4136,-424.1933 858.4541,-452.8 800.7722,-506.0982 761.223,-468.1365 685.4541,-488.8 679.3645,-490.4607 673.0765,-492.3161 666.801,-494.2646"/>
<polygon fill="#000000" stroke="#000000" points="665.4487,-491.0219 656.9802,-497.3886 667.5707,-497.6925 665.4487,-491.0219"/>
</g>
<!-- GO:0044403 -->
<g id="node23" class="node">
<title>GO:0044403</title>
<polygon fill="#ffffff" stroke="#000000" points="849.7742,-452.9003 691.134,-452.9003 691.134,-377.4997 849.7742,-377.4997 849.7742,-452.9003"/>
<text text-anchor="middle" x="770.4541" y="-436.2" font-family="Times,serif" font-size="14.00" fill="#000000">GO:0044403</text>
<text text-anchor="middle" x="770.4541" y="-419.4" font-family="Times,serif" font-size="14.00" fill="#000000">symbiosis, encompassing</text>
<text text-anchor="middle" x="770.4541" y="-402.6" font-family="Times,serif" font-size="14.00" fill="#000000">mutualism through</text>
<text text-anchor="middle" x="770.4541" y="-385.8" font-family="Times,serif" font-size="14.00" fill="#000000">parasitism</text>
</g>
<!-- GO:0016032&#45;&gt;GO:0044403 -->
<g id="edge26" class="edge">
<title>GO:0016032&#45;&gt;GO:0044403</title>
<path fill="none" stroke="#000000" d="M760.8825,-333.2031C762.0382,-343.1035 763.4718,-355.385 764.8746,-367.4026"/>
<polygon fill="#000000" stroke="#000000" points="761.4031,-367.8505 766.039,-377.3773 768.3559,-367.0389 761.4031,-367.8505"/>
</g>
<!-- GO:0044764 -->
<g id="node24" class="node">
<title>GO:0044764</title>
<polygon fill="#ffffff" stroke="#000000" points="673.2544,-444.6014 525.6538,-444.6014 525.6538,-385.7986 673.2544,-385.7986 673.2544,-444.6014"/>
<text text-anchor="middle" x="599.4541" y="-427.8" font-family="Times,serif" font-size="14.00" fill="#000000">GO:0044764</text>
<text text-anchor="middle" x="599.4541" y="-411" font-family="Times,serif" font-size="14.00" fill="#000000">multi&#45;organism cellular</text>
<text text-anchor="middle" x="599.4541" y="-394.2" font-family="Times,serif" font-size="14.00" fill="#000000">process</text>
</g>
<!-- GO:0016032&#45;&gt;GO:0044764 -->
<g id="edge27" class="edge">
<title>GO:0016032&#45;&gt;GO:0044764</title>
<path fill="none" stroke="#000000" d="M726.2781,-333.2031C705.3357,-346.7432 677.5046,-364.7372 653.2503,-380.4186"/>
<polygon fill="#000000" stroke="#000000" points="651.3349,-377.489 644.8376,-385.8577 655.1356,-383.3674 651.3349,-377.489"/>
</g>
<!-- GO:0006950 -->
<g id="node25" class="node">
<title>GO:0006950</title>
<polygon fill="#ffffff" stroke="#000000" points="1212.4233,-435.8019 1098.4849,-435.8019 1098.4849,-394.5981 1212.4233,-394.5981 1212.4233,-435.8019"/>
<text text-anchor="middle" x="1155.4541" y="-419.4" font-family="Times,serif" font-size="14.00" fill="#000000">GO:0006950</text>
<text text-anchor="middle" x="1155.4541" y="-402.6" font-family="Times,serif" font-size="14.00" fill="#000000">response to stress</text>
</g>
<!-- GO:0006952&#45;&gt;GO:0006950 -->
<g id="edge28" class="edge">
<title>GO:0006952&#45;&gt;GO:0006950</title>
<path fill="none" stroke="#000000" d="M1094.8338,-333.2031C1106.0622,-348.391 1121.4335,-369.1827 1133.8878,-386.0287"/>
<polygon fill="#000000" stroke="#000000" points="1131.338,-388.4674 1140.0972,-394.4278 1136.9668,-384.306 1131.338,-388.4674"/>
</g>
<!-- GO:0002376&#45;&gt;GO:0008150 -->
<g id="edge29" class="edge">
<title>GO:0002376&#45;&gt;GO:0008150</title>
<path fill="none" stroke="#000000" d="M537.8288,-333.1985C530.6986,-345.6984 522.1095,-362.1333 516.4541,-377.6 489.9267,-450.1489 500.3411,-473.1189 478.4541,-547.2 475.8848,-555.8963 472.663,-565.1802 469.5201,-573.6687"/>
<polygon fill="#000000" stroke="#000000" points="466.1845,-572.5938 465.9106,-583.1851 472.7296,-575.0763 466.1845,-572.5938"/>
</g>
<!-- GO:0009607 -->
<g id="node26" class="node">
<title>GO:0009607</title>
<polygon fill="#ffffff" stroke="#000000" points="1118.7104,-547.4014 1004.1978,-547.4014 1004.1978,-488.5986 1118.7104,-488.5986 1118.7104,-547.4014"/>
<text text-anchor="middle" x="1061.4541" y="-530.6" font-family="Times,serif" font-size="14.00" fill="#000000">GO:0009607</text>
<text text-anchor="middle" x="1061.4541" y="-513.8" font-family="Times,serif" font-size="14.00" fill="#000000">response to biotic</text>
<text text-anchor="middle" x="1061.4541" y="-497" font-family="Times,serif" font-size="14.00" fill="#000000">stimulus</text>
</g>
<!-- GO:0043207&#45;&gt;GO:0009607 -->
<g id="edge30" class="edge">
<title>GO:0043207&#45;&gt;GO:0009607</title>
<path fill="none" stroke="#000000" d="M995.8176,-444.6584C1005.9227,-455.9497 1017.5842,-468.9801 1028.2488,-480.8967"/>
<polygon fill="#000000" stroke="#000000" points="1025.8098,-483.4198 1035.0867,-488.5373 1031.026,-478.7516 1025.8098,-483.4198"/>
</g>
<!-- GO:0009605 -->
<g id="node27" class="node">
<title>GO:0009605</title>
<polygon fill="#ffffff" stroke="#000000" points="986.4093,-547.4014 858.4989,-547.4014 858.4989,-488.5986 986.4093,-488.5986 986.4093,-547.4014"/>
<text text-anchor="middle" x="922.4541" y="-530.6" font-family="Times,serif" font-size="14.00" fill="#000000">GO:0009605</text>
<text text-anchor="middle" x="922.4541" y="-513.8" font-family="Times,serif" font-size="14.00" fill="#000000">response to external</text>
<text text-anchor="middle" x="922.4541" y="-497" font-family="Times,serif" font-size="14.00" fill="#000000">stimulus</text>
</g>
<!-- GO:0043207&#45;&gt;GO:0009605 -->
<g id="edge31" class="edge">
<title>GO:0043207&#45;&gt;GO:0009605</title>
<path fill="none" stroke="#000000" d="M955.9858,-444.6584C951.0692,-455.412 945.4315,-467.7431 940.1993,-479.1871"/>
<polygon fill="#000000" stroke="#000000" points="936.8994,-477.9875 935.9244,-488.5373 943.2655,-480.8981 936.8994,-477.9875"/>
</g>
<!-- GO:0051704&#45;&gt;GO:0008150 -->
<g id="edge32" class="edge">
<title>GO:0051704&#45;&gt;GO:0008150</title>
<path fill="none" stroke="#000000" d="M565.0799,-538.8182C545.5447,-550.6494 520.9154,-565.5657 500.149,-578.1425"/>
<polygon fill="#000000" stroke="#000000" points="498.2523,-575.1994 491.5118,-583.3735 501.8785,-581.1869 498.2523,-575.1994"/>
</g>
<!-- GO:0044419 -->
<g id="node28" class="node">
<title>GO:0044419</title>
<polygon fill="#ffffff" stroke="#000000" points="840.4016,-547.4014 694.5066,-547.4014 694.5066,-488.5986 840.4016,-488.5986 840.4016,-547.4014"/>
<text text-anchor="middle" x="767.4541" y="-530.6" font-family="Times,serif" font-size="14.00" fill="#000000">GO:0044419</text>
<text text-anchor="middle" x="767.4541" y="-513.8" font-family="Times,serif" font-size="14.00" fill="#000000">interspecies interaction</text>
<text text-anchor="middle" x="767.4541" y="-497" font-family="Times,serif" font-size="14.00" fill="#000000">between organisms</text>
</g>
<!-- GO:0044403&#45;&gt;GO:0044419 -->
<g id="edge33" class="edge">
<title>GO:0044403&#45;&gt;GO:0044419</title>
<path fill="none" stroke="#000000" d="M769.354,-452.8952C769.1091,-461.2874 768.8489,-470.2054 768.6021,-478.6618"/>
<polygon fill="#000000" stroke="#000000" points="765.103,-478.5835 768.3097,-488.6814 772.1,-478.7878 765.103,-478.5835"/>
</g>
<!-- GO:0044764&#45;&gt;GO:0009987 -->
<g id="edge34" class="edge">
<title>GO:0044764&#45;&gt;GO:0009987</title>
<path fill="none" stroke="#000000" d="M547.3002,-444.6584C520.615,-459.7311 488.4434,-477.9028 462.7997,-492.3872"/>
<polygon fill="#000000" stroke="#000000" points="461.0069,-489.3801 454.0212,-497.3456 464.4496,-495.475 461.0069,-489.3801"/>
</g>
<!-- GO:0044764&#45;&gt;GO:0051704 -->
<g id="edge35" class="edge">
<title>GO:0044764&#45;&gt;GO:0051704</title>
<path fill="none" stroke="#000000" d="M599.4541,-444.6584C599.4541,-457.9539 599.4541,-473.6608 599.4541,-487.1212"/>
<polygon fill="#000000" stroke="#000000" points="595.9542,-487.3456 599.4541,-497.3456 602.9542,-487.3457 595.9542,-487.3456"/>
</g>
<!-- GO:0050896 -->
<g id="node29" class="node">
<title>GO:0050896</title>
<polygon fill="#ffffff" stroke="#000000" points="1267.7757,-538.6019 1137.1325,-538.6019 1137.1325,-497.3981 1267.7757,-497.3981 1267.7757,-538.6019"/>
<text text-anchor="middle" x="1202.4541" y="-522.2" font-family="Times,serif" font-size="14.00" fill="#000000">GO:0050896</text>
<text text-anchor="middle" x="1202.4541" y="-505.4" font-family="Times,serif" font-size="14.00" fill="#000000">response to stimulus</text>
</g>
<!-- GO:0006950&#45;&gt;GO:0050896 -->
<g id="edge36" class="edge">
<title>GO:0006950&#45;&gt;GO:0050896</title>
<path fill="none" stroke="#000000" d="M1164.9653,-436.0031C1171.7817,-450.9123 1181.0671,-471.2216 1188.6913,-487.8975"/>
<polygon fill="#000000" stroke="#000000" points="1185.6159,-489.5886 1192.9571,-497.2278 1191.9821,-486.6779 1185.6159,-489.5886"/>
</g>
</g>
</svg>
