<?xml version="1.0" encoding="UTF-8" standalone="no"?>
<!DOCTYPE svg PUBLIC "-//W3C//DTD SVG 1.1//EN"
 "http://www.w3.org/Graphics/SVG/1.1/DTD/svg11.dtd">
<!-- Generated by graphviz version 2.40.1 (20161225.0304)
 -->
<!-- Title: G Pages: 1 -->
<svg width="258pt" height="394pt"
 viewBox="0.00 0.00 257.54 393.60" xmlns="http://www.w3.org/2000/svg" xmlns:xlink="http://www.w3.org/1999/xlink">
<g id="graph0" class="graph" transform="scale(1 1) rotate(0) translate(4 389.6)">
<title>G</title>
<polygon fill="#ffffff" stroke="transparent" points="-4,4 -4,-389.6 253.5358,-389.6 253.5358,4 -4,4"/>
<!-- GO:0042578 -->
<g id="node1" class="node">
<title>GO:0042578</title>
<polygon fill="#ffffff" stroke="#000000" points="125.2066,-58.6014 9.3734,-58.6014 9.3734,.2014 125.2066,.2014 125.2066,-58.6014"/>
<text text-anchor="middle" x="67.29" y="-41.8" font-family="Times,serif" font-size="14.00" fill="#000000">GO:0042578</text>
<text text-anchor="middle" x="67.29" y="-25" font-family="Times,serif" font-size="14.00" fill="#000000">phosphoric ester</text>
<text text-anchor="middle" x="67.29" y="-8.2" font-family="Times,serif" font-size="14.00" fill="#000000">hydrolase activity</text>
</g>
<!-- GO:0016788 -->
<g id="node2" class="node">
<title>GO:0016788</title>
<polygon fill="#ffffff" stroke="#000000" points="134.3707,-153.0014 .2093,-153.0014 .2093,-94.1986 134.3707,-94.1986 134.3707,-153.0014"/>
<text text-anchor="middle" x="67.29" y="-136.2" font-family="Times,serif" font-size="14.00" fill="#000000">GO:0016788</text>
<text text-anchor="middle" x="67.29" y="-119.4" font-family="Times,serif" font-size="14.00" fill="#000000">hydrolase activity,</text>
<text text-anchor="middle" x="67.29" y="-102.6" font-family="Times,serif" font-size="14.00" fill="#000000">acting on ester bonds</text>
</g>
<!-- GO:0042578&#45;&gt;GO:0016788 -->
<g id="edge1" class="edge">
<title>GO:0042578&#45;&gt;GO:0016788</title>
<path fill="none" stroke="#000000" d="M67.29,-58.5513C67.29,-66.6318 67.29,-75.5308 67.29,-84.0838"/>
<polygon fill="#000000" stroke="#000000" points="63.7901,-84.2668 67.29,-94.2669 70.7901,-84.2669 63.7901,-84.2668"/>
</g>
<!-- GO:0016787 -->
<g id="node3" class="node">
<title>GO:0016787</title>
<polygon fill="#ffffff" stroke="#000000" points="131.2066,-230.2019 15.3734,-230.2019 15.3734,-188.9981 131.2066,-188.9981 131.2066,-230.2019"/>
<text text-anchor="middle" x="73.29" y="-213.8" font-family="Times,serif" font-size="14.00" fill="#000000">GO:0016787</text>
<text text-anchor="middle" x="73.29" y="-197" font-family="Times,serif" font-size="14.00" fill="#000000">hydrolase activity</text>
</g>
<!-- GO:0016788&#45;&gt;GO:0016787 -->
<g id="edge2" class="edge">
<title>GO:0016788&#45;&gt;GO:0016787</title>
<path fill="none" stroke="#000000" d="M69.3549,-153.1963C69.9317,-161.4638 70.5597,-170.4657 71.1412,-178.8008"/>
<polygon fill="#000000" stroke="#000000" points="67.658,-179.1644 71.8456,-188.8966 74.641,-178.6772 67.658,-179.1644"/>
</g>
<!-- GO:0003824 -->
<g id="node4" class="node">
<title>GO:0003824</title>
<polygon fill="#ffffff" stroke="#000000" points="129.7024,-307.8019 20.8776,-307.8019 20.8776,-266.5981 129.7024,-266.5981 129.7024,-307.8019"/>
<text text-anchor="middle" x="75.29" y="-291.4" font-family="Times,serif" font-size="14.00" fill="#000000">GO:0003824</text>
<text text-anchor="middle" x="75.29" y="-274.6" font-family="Times,serif" font-size="14.00" fill="#000000">catalytic activity</text>
</g>
<!-- GO:0016787&#45;&gt;GO:0003824 -->
<g id="edge3" class="edge">
<title>GO:0016787&#45;&gt;GO:0003824</title>
<path fill="none" stroke="#000000" d="M73.826,-230.3954C74.03,-238.3109 74.2671,-247.5109 74.4903,-256.1722"/>
<polygon fill="#000000" stroke="#000000" points="70.996,-256.4408 74.7526,-266.3472 77.9937,-256.2603 70.996,-256.4408"/>
</g>
<!-- GO:0003674 -->
<g id="node5" class="node">
<title>GO:0003674</title>
<polygon fill="#ffffff" stroke="#000000" points="195.9231,-385.4019 70.6569,-385.4019 70.6569,-344.1981 195.9231,-344.1981 195.9231,-385.4019"/>
<text text-anchor="middle" x="133.29" y="-369" font-family="Times,serif" font-size="14.00" fill="#000000">GO:0003674</text>
<text text-anchor="middle" x="133.29" y="-352.2" font-family="Times,serif" font-size="14.00" fill="#000000">molecular_function</text>
</g>
<!-- GO:0003824&#45;&gt;GO:0003674 -->
<g id="edge4" class="edge">
<title>GO:0003824&#45;&gt;GO:0003674</title>
<path fill="none" stroke="#000000" d="M90.8329,-307.9954C97.2042,-316.5197 104.6891,-326.5339 111.5852,-335.7605"/>
<polygon fill="#000000" stroke="#000000" points="108.9139,-338.0327 117.7042,-343.9472 114.5208,-333.8419 108.9139,-338.0327"/>
</g>
<!-- GO:0043169 -->
<g id="node6" class="node">
<title>GO:0043169</title>
<polygon fill="#ffffff" stroke="#000000" points="249.7829,-144.2019 152.7971,-144.2019 152.7971,-102.9981 249.7829,-102.9981 249.7829,-144.2019"/>
<text text-anchor="middle" x="201.29" y="-127.8" font-family="Times,serif" font-size="14.00" fill="#000000">GO:0043169</text>
<text text-anchor="middle" x="201.29" y="-111" font-family="Times,serif" font-size="14.00" fill="#000000">cation binding</text>
</g>
<!-- GO:0043167 -->
<g id="node7" class="node">
<title>GO:0043167</title>
<polygon fill="#ffffff" stroke="#000000" points="241.8939,-230.2019 152.6861,-230.2019 152.6861,-188.9981 241.8939,-188.9981 241.8939,-230.2019"/>
<text text-anchor="middle" x="197.29" y="-213.8" font-family="Times,serif" font-size="14.00" fill="#000000">GO:0043167</text>
<text text-anchor="middle" x="197.29" y="-197" font-family="Times,serif" font-size="14.00" fill="#000000">ion binding</text>
</g>
<!-- GO:0043169&#45;&gt;GO:0043167 -->
<g id="edge5" class="edge">
<title>GO:0043169&#45;&gt;GO:0043167</title>
<path fill="none" stroke="#000000" d="M200.3217,-144.4182C199.8402,-154.7705 199.2488,-167.4848 198.7166,-178.9271"/>
<polygon fill="#000000" stroke="#000000" points="195.2179,-178.8217 198.2494,-188.9735 202.2103,-179.147 195.2179,-178.8217"/>
</g>
<!-- GO:0005488 -->
<g id="node8" class="node">
<title>GO:0005488</title>
<polygon fill="#ffffff" stroke="#000000" points="238.8939,-307.8019 149.6861,-307.8019 149.6861,-266.5981 238.8939,-266.5981 238.8939,-307.8019"/>
<text text-anchor="middle" x="194.29" y="-291.4" font-family="Times,serif" font-size="14.00" fill="#000000">GO:0005488</text>
<text text-anchor="middle" x="194.29" y="-274.6" font-family="Times,serif" font-size="14.00" fill="#000000">binding</text>
</g>
<!-- GO:0043167&#45;&gt;GO:0005488 -->
<g id="edge6" class="edge">
<title>GO:0043167&#45;&gt;GO:0005488</title>
<path fill="none" stroke="#000000" d="M196.4861,-230.3954C196.18,-238.3109 195.8244,-247.5109 195.4895,-256.1722"/>
<polygon fill="#000000" stroke="#000000" points="191.9852,-256.2194 195.0962,-266.3472 198.98,-256.4899 191.9852,-256.2194"/>
</g>
<!-- GO:0005488&#45;&gt;GO:0003674 -->
<g id="edge7" class="edge">
<title>GO:0005488&#45;&gt;GO:0003674</title>
<path fill="none" stroke="#000000" d="M177.9431,-307.9954C171.1739,-316.6067 163.2095,-326.7384 155.8956,-336.0427"/>
<polygon fill="#000000" stroke="#000000" points="153.1104,-333.9224 149.682,-343.9472 158.6137,-338.2484 153.1104,-333.9224"/>
</g>
</g>
</svg>
