<?xml version="1.0" encoding="UTF-8" standalone="no"?>
<!DOCTYPE svg PUBLIC "-//W3C//DTD SVG 1.1//EN"
 "http://www.w3.org/Graphics/SVG/1.1/DTD/svg11.dtd">
<!-- Generated by graphviz version 2.40.1 (20161225.0304)
 -->
<!-- Title: G Pages: 1 -->
<svg width="1387pt" height="866pt"
 viewBox="0.00 0.00 1387.10 865.60" xmlns="http://www.w3.org/2000/svg" xmlns:xlink="http://www.w3.org/1999/xlink">
<g id="graph0" class="graph" transform="scale(1 1) rotate(0) translate(4 861.6)">
<title>G</title>
<polygon fill="#ffffff" stroke="transparent" points="-4,4 -4,-861.6 1383.0965,-861.6 1383.0965,4 -4,4"/>
<!-- GO:0014032 -->
<g id="node1" class="node">
<title>GO:0014032</title>
<polygon fill="#ffffff" stroke="#000000" points="272.065,-325.0014 167.832,-325.0014 167.832,-266.1986 272.065,-266.1986 272.065,-325.0014"/>
<text text-anchor="middle" x="219.9485" y="-308.2" font-family="Times,serif" font-size="14.00" fill="#000000">GO:0014032</text>
<text text-anchor="middle" x="219.9485" y="-291.4" font-family="Times,serif" font-size="14.00" fill="#000000">neural crest cell</text>
<text text-anchor="middle" x="219.9485" y="-274.6" font-family="Times,serif" font-size="14.00" fill="#000000">development</text>
</g>
<!-- GO:0014031 -->
<g id="node2" class="node">
<title>GO:0014031</title>
<polygon fill="#ffffff" stroke="#000000" points="278.1341,-419.4014 161.7629,-419.4014 161.7629,-360.5986 278.1341,-360.5986 278.1341,-419.4014"/>
<text text-anchor="middle" x="219.9485" y="-402.6" font-family="Times,serif" font-size="14.00" fill="#000000">GO:0014031</text>
<text text-anchor="middle" x="219.9485" y="-385.8" font-family="Times,serif" font-size="14.00" fill="#000000">mesenchymal cell</text>
<text text-anchor="middle" x="219.9485" y="-369" font-family="Times,serif" font-size="14.00" fill="#000000">development</text>
</g>
<!-- GO:0014032&#45;&gt;GO:0014031 -->
<g id="edge1" class="edge">
<title>GO:0014032&#45;&gt;GO:0014031</title>
<path fill="none" stroke="#000000" d="M219.9485,-324.9513C219.9485,-333.0318 219.9485,-341.9308 219.9485,-350.4838"/>
<polygon fill="#000000" stroke="#000000" points="216.4486,-350.6668 219.9485,-360.6669 223.4486,-350.6669 216.4486,-350.6668"/>
</g>
<!-- GO:0048468 -->
<g id="node3" class="node">
<title>GO:0048468</title>
<polygon fill="#ffffff" stroke="#000000" points="275.9745,-505.0019 163.9225,-505.0019 163.9225,-463.7981 275.9745,-463.7981 275.9745,-505.0019"/>
<text text-anchor="middle" x="219.9485" y="-488.6" font-family="Times,serif" font-size="14.00" fill="#000000">GO:0048468</text>
<text text-anchor="middle" x="219.9485" y="-471.8" font-family="Times,serif" font-size="14.00" fill="#000000">cell development</text>
</g>
<!-- GO:0014031&#45;&gt;GO:0048468 -->
<g id="edge2" class="edge">
<title>GO:0014031&#45;&gt;GO:0048468</title>
<path fill="none" stroke="#000000" d="M219.9485,-419.3513C219.9485,-430.2614 219.9485,-442.6637 219.9485,-453.692"/>
<polygon fill="#000000" stroke="#000000" points="216.4486,-453.7509 219.9485,-463.751 223.4486,-453.751 216.4486,-453.7509"/>
</g>
<!-- GO:0044767 -->
<g id="node4" class="node">
<title>GO:0044767</title>
<polygon fill="#ffffff" stroke="#000000" points="291.8483,-608.2014 148.0487,-608.2014 148.0487,-549.3986 291.8483,-549.3986 291.8483,-608.2014"/>
<text text-anchor="middle" x="219.9485" y="-591.4" font-family="Times,serif" font-size="14.00" fill="#000000">GO:0044767</text>
<text text-anchor="middle" x="219.9485" y="-574.6" font-family="Times,serif" font-size="14.00" fill="#000000">single&#45;organism</text>
<text text-anchor="middle" x="219.9485" y="-557.8" font-family="Times,serif" font-size="14.00" fill="#000000">developmental process</text>
</g>
<!-- GO:0048468&#45;&gt;GO:0044767 -->
<g id="edge3" class="edge">
<title>GO:0048468&#45;&gt;GO:0044767</title>
<path fill="none" stroke="#000000" d="M219.9485,-505.3504C219.9485,-515.3492 219.9485,-527.6525 219.9485,-539.3106"/>
<polygon fill="#000000" stroke="#000000" points="216.4486,-539.3155 219.9485,-549.3155 223.4486,-539.3156 216.4486,-539.3155"/>
</g>
<!-- GO:0048869 -->
<g id="node5" class="node">
<title>GO:0048869</title>
<polygon fill="#ffffff" stroke="#000000" points="453.8455,-608.2014 310.0515,-608.2014 310.0515,-549.3986 453.8455,-549.3986 453.8455,-608.2014"/>
<text text-anchor="middle" x="381.9485" y="-591.4" font-family="Times,serif" font-size="14.00" fill="#000000">GO:0048869</text>
<text text-anchor="middle" x="381.9485" y="-574.6" font-family="Times,serif" font-size="14.00" fill="#000000">cellular developmental</text>
<text text-anchor="middle" x="381.9485" y="-557.8" font-family="Times,serif" font-size="14.00" fill="#000000">process</text>
</g>
<!-- GO:0048468&#45;&gt;GO:0048869 -->
<g id="edge4" class="edge">
<title>GO:0048468&#45;&gt;GO:0048869</title>
<path fill="none" stroke="#000000" d="M255.5001,-505.1165C275.234,-516.6157 300.2891,-531.2158 322.8821,-544.3811"/>
<polygon fill="#000000" stroke="#000000" points="321.3287,-547.5267 331.731,-549.5374 324.853,-541.4786 321.3287,-547.5267"/>
</g>
<!-- GO:0048856 -->
<g id="node6" class="node">
<title>GO:0048856</title>
<polygon fill="#ffffff" stroke="#000000" points="129.8455,-608.2014 .0515,-608.2014 .0515,-549.3986 129.8455,-549.3986 129.8455,-608.2014"/>
<text text-anchor="middle" x="64.9485" y="-591.4" font-family="Times,serif" font-size="14.00" fill="#000000">GO:0048856</text>
<text text-anchor="middle" x="64.9485" y="-574.6" font-family="Times,serif" font-size="14.00" fill="#000000">anatomical structure</text>
<text text-anchor="middle" x="64.9485" y="-557.8" font-family="Times,serif" font-size="14.00" fill="#000000">development</text>
</g>
<!-- GO:0048468&#45;&gt;GO:0048856 -->
<g id="edge5" class="edge">
<title>GO:0048468&#45;&gt;GO:0048856</title>
<path fill="none" stroke="#000000" d="M185.9331,-505.1165C167.1354,-516.5649 143.2914,-531.0866 121.7497,-544.2062"/>
<polygon fill="#000000" stroke="#000000" points="119.7163,-541.3466 112.9962,-549.5374 123.3574,-547.3251 119.7163,-541.3466"/>
</g>
<!-- GO:0032502 -->
<g id="node7" class="node">
<title>GO:0032502</title>
<polygon fill="#ffffff" stroke="#000000" points="225.8483,-693.8019 82.0487,-693.8019 82.0487,-652.5981 225.8483,-652.5981 225.8483,-693.8019"/>
<text text-anchor="middle" x="153.9485" y="-677.4" font-family="Times,serif" font-size="14.00" fill="#000000">GO:0032502</text>
<text text-anchor="middle" x="153.9485" y="-660.6" font-family="Times,serif" font-size="14.00" fill="#000000">developmental process</text>
</g>
<!-- GO:0044767&#45;&gt;GO:0032502 -->
<g id="edge6" class="edge">
<title>GO:0044767&#45;&gt;GO:0032502</title>
<path fill="none" stroke="#000000" d="M199.4275,-608.1513C191.4064,-619.6238 182.2319,-632.7462 174.2337,-644.1861"/>
<polygon fill="#000000" stroke="#000000" points="171.2469,-642.3499 168.3853,-652.551 176.9838,-646.3609 171.2469,-642.3499"/>
</g>
<!-- GO:0044699 -->
<g id="node8" class="node">
<title>GO:0044699</title>
<polygon fill="#ffffff" stroke="#000000" points="439.6298,-779.8019 288.2672,-779.8019 288.2672,-738.5981 439.6298,-738.5981 439.6298,-779.8019"/>
<text text-anchor="middle" x="363.9485" y="-763.4" font-family="Times,serif" font-size="14.00" fill="#000000">GO:0044699</text>
<text text-anchor="middle" x="363.9485" y="-746.6" font-family="Times,serif" font-size="14.00" fill="#000000">single&#45;organism process</text>
</g>
<!-- GO:0044767&#45;&gt;GO:0044699 -->
<g id="edge7" class="edge">
<title>GO:0044767&#45;&gt;GO:0044699</title>
<path fill="none" stroke="#000000" d="M227.1116,-608.2488C234.8354,-635.1589 249.3122,-674.8418 272.9485,-702.4 283.2922,-714.46 296.848,-724.79 310.3262,-733.2037"/>
<polygon fill="#000000" stroke="#000000" points="308.7555,-736.3421 319.1376,-738.4549 312.3391,-730.3289 308.7555,-736.3421"/>
</g>
<!-- GO:0044763 -->
<g id="node9" class="node">
<title>GO:0044763</title>
<polygon fill="#ffffff" stroke="#000000" points="433.627,-702.6014 282.27,-702.6014 282.27,-643.7986 433.627,-643.7986 433.627,-702.6014"/>
<text text-anchor="middle" x="357.9485" y="-685.8" font-family="Times,serif" font-size="14.00" fill="#000000">GO:0044763</text>
<text text-anchor="middle" x="357.9485" y="-669" font-family="Times,serif" font-size="14.00" fill="#000000">single&#45;organism cellular</text>
<text text-anchor="middle" x="357.9485" y="-652.2" font-family="Times,serif" font-size="14.00" fill="#000000">process</text>
</g>
<!-- GO:0048869&#45;&gt;GO:0044763 -->
<g id="edge8" class="edge">
<title>GO:0048869&#45;&gt;GO:0044763</title>
<path fill="none" stroke="#000000" d="M374.4863,-608.1513C372.4094,-616.3206 370.1197,-625.3264 367.9233,-633.9657"/>
<polygon fill="#000000" stroke="#000000" points="364.478,-633.3128 365.4061,-643.8669 371.2622,-635.0376 364.478,-633.3128"/>
</g>
<!-- GO:0048856&#45;&gt;GO:0032502 -->
<g id="edge9" class="edge">
<title>GO:0048856&#45;&gt;GO:0032502</title>
<path fill="none" stroke="#000000" d="M92.6208,-608.1513C103.7552,-619.9612 116.5379,-633.5196 127.5417,-645.191"/>
<polygon fill="#000000" stroke="#000000" points="125.0741,-647.6758 134.4807,-652.551 130.1674,-642.8739 125.0741,-647.6758"/>
</g>
<!-- GO:0008150 -->
<g id="node10" class="node">
<title>GO:0008150</title>
<polygon fill="#ffffff" stroke="#000000" points="570.4191,-857.4019 449.4779,-857.4019 449.4779,-816.1981 570.4191,-816.1981 570.4191,-857.4019"/>
<text text-anchor="middle" x="509.9485" y="-841" font-family="Times,serif" font-size="14.00" fill="#000000">GO:0008150</text>
<text text-anchor="middle" x="509.9485" y="-824.2" font-family="Times,serif" font-size="14.00" fill="#000000">biological_process</text>
</g>
<!-- GO:0032502&#45;&gt;GO:0008150 -->
<g id="edge10" class="edge">
<title>GO:0032502&#45;&gt;GO:0008150</title>
<path fill="none" stroke="#000000" d="M172.5756,-694.1903C195.3013,-718.488 236.0296,-757.9783 278.9485,-780 329.27,-805.82 391.8605,-820.2699 439.1915,-828.1255"/>
<polygon fill="#000000" stroke="#000000" points="438.9257,-831.6274 449.3529,-829.7501 440.0309,-824.7152 438.9257,-831.6274"/>
</g>
<!-- GO:0044699&#45;&gt;GO:0008150 -->
<g id="edge11" class="edge">
<title>GO:0044699&#45;&gt;GO:0008150</title>
<path fill="none" stroke="#000000" d="M403.0738,-779.9954C421.2305,-789.6458 442.9796,-801.2056 462.1043,-811.3705"/>
<polygon fill="#000000" stroke="#000000" points="460.4956,-814.4791 470.9685,-816.0819 463.781,-808.2979 460.4956,-814.4791"/>
</g>
<!-- GO:0044763&#45;&gt;GO:0044699 -->
<g id="edge13" class="edge">
<title>GO:0044763&#45;&gt;GO:0044699</title>
<path fill="none" stroke="#000000" d="M360.0134,-702.7963C360.5902,-711.0638 361.2182,-720.0657 361.7997,-728.4008"/>
<polygon fill="#000000" stroke="#000000" points="358.3165,-728.7644 362.5041,-738.4966 365.2995,-728.2772 358.3165,-728.7644"/>
</g>
<!-- GO:0009987 -->
<g id="node11" class="node">
<title>GO:0009987</title>
<polygon fill="#ffffff" stroke="#000000" points="561.9047,-779.8019 457.9923,-779.8019 457.9923,-738.5981 561.9047,-738.5981 561.9047,-779.8019"/>
<text text-anchor="middle" x="509.9485" y="-763.4" font-family="Times,serif" font-size="14.00" fill="#000000">GO:0009987</text>
<text text-anchor="middle" x="509.9485" y="-746.6" font-family="Times,serif" font-size="14.00" fill="#000000">cellular process</text>
</g>
<!-- GO:0044763&#45;&gt;GO:0009987 -->
<g id="edge12" class="edge">
<title>GO:0044763&#45;&gt;GO:0009987</title>
<path fill="none" stroke="#000000" d="M409.8331,-702.5558C427.5564,-712.5834 447.2315,-723.7154 464.4161,-733.4383"/>
<polygon fill="#000000" stroke="#000000" points="462.725,-736.5028 473.152,-738.3809 466.1721,-730.4103 462.725,-736.5028"/>
</g>
<!-- GO:0009987&#45;&gt;GO:0008150 -->
<g id="edge21" class="edge">
<title>GO:0009987&#45;&gt;GO:0008150</title>
<path fill="none" stroke="#000000" d="M509.9485,-779.9954C509.9485,-787.9109 509.9485,-797.1109 509.9485,-805.7722"/>
<polygon fill="#000000" stroke="#000000" points="506.4486,-805.9472 509.9485,-815.9472 513.4486,-805.9473 506.4486,-805.9472"/>
</g>
<!-- GO:0044351 -->
<g id="node12" class="node">
<title>GO:0044351</title>
<polygon fill="#ffffff" stroke="#000000" points="715.2048,-221.8019 600.6922,-221.8019 600.6922,-180.5981 715.2048,-180.5981 715.2048,-221.8019"/>
<text text-anchor="middle" x="657.9485" y="-205.4" font-family="Times,serif" font-size="14.00" fill="#000000">GO:0044351</text>
<text text-anchor="middle" x="657.9485" y="-188.6" font-family="Times,serif" font-size="14.00" fill="#000000">macropinocytosis</text>
</g>
<!-- GO:0006907 -->
<g id="node13" class="node">
<title>GO:0006907</title>
<polygon fill="#ffffff" stroke="#000000" points="702.5524,-316.2019 613.3446,-316.2019 613.3446,-274.9981 702.5524,-274.9981 702.5524,-316.2019"/>
<text text-anchor="middle" x="657.9485" y="-299.8" font-family="Times,serif" font-size="14.00" fill="#000000">GO:0006907</text>
<text text-anchor="middle" x="657.9485" y="-283" font-family="Times,serif" font-size="14.00" fill="#000000">pinocytosis</text>
</g>
<!-- GO:0044351&#45;&gt;GO:0006907 -->
<g id="edge14" class="edge">
<title>GO:0044351&#45;&gt;GO:0006907</title>
<path fill="none" stroke="#000000" d="M657.9485,-222.1504C657.9485,-234.6165 657.9485,-250.6645 657.9485,-264.5786"/>
<polygon fill="#000000" stroke="#000000" points="654.4486,-264.7081 657.9485,-274.7081 661.4486,-264.7082 654.4486,-264.7081"/>
</g>
<!-- GO:0006897 -->
<g id="node14" class="node">
<title>GO:0006897</title>
<polygon fill="#ffffff" stroke="#000000" points="702.5524,-410.6019 613.3446,-410.6019 613.3446,-369.3981 702.5524,-369.3981 702.5524,-410.6019"/>
<text text-anchor="middle" x="657.9485" y="-394.2" font-family="Times,serif" font-size="14.00" fill="#000000">GO:0006897</text>
<text text-anchor="middle" x="657.9485" y="-377.4" font-family="Times,serif" font-size="14.00" fill="#000000">endocytosis</text>
</g>
<!-- GO:0006907&#45;&gt;GO:0006897 -->
<g id="edge15" class="edge">
<title>GO:0006907&#45;&gt;GO:0006897</title>
<path fill="none" stroke="#000000" d="M657.9485,-316.5504C657.9485,-329.0165 657.9485,-345.0645 657.9485,-358.9786"/>
<polygon fill="#000000" stroke="#000000" points="654.4486,-359.1081 657.9485,-369.1081 661.4486,-359.1082 654.4486,-359.1081"/>
</g>
<!-- GO:0016192 -->
<g id="node15" class="node">
<title>GO:0016192</title>
<polygon fill="#ffffff" stroke="#000000" points="713.2944,-513.8014 602.6026,-513.8014 602.6026,-454.9986 713.2944,-454.9986 713.2944,-513.8014"/>
<text text-anchor="middle" x="657.9485" y="-497" font-family="Times,serif" font-size="14.00" fill="#000000">GO:0016192</text>
<text text-anchor="middle" x="657.9485" y="-480.2" font-family="Times,serif" font-size="14.00" fill="#000000">vesicle&#45;mediated</text>
<text text-anchor="middle" x="657.9485" y="-463.4" font-family="Times,serif" font-size="14.00" fill="#000000">transport</text>
</g>
<!-- GO:0006897&#45;&gt;GO:0016192 -->
<g id="edge16" class="edge">
<title>GO:0006897&#45;&gt;GO:0016192</title>
<path fill="none" stroke="#000000" d="M657.9485,-410.9504C657.9485,-420.9492 657.9485,-433.2525 657.9485,-444.9106"/>
<polygon fill="#000000" stroke="#000000" points="654.4486,-444.9155 657.9485,-454.9155 661.4486,-444.9156 654.4486,-444.9155"/>
</g>
<!-- GO:0006810 -->
<g id="node16" class="node">
<title>GO:0006810</title>
<polygon fill="#ffffff" stroke="#000000" points="674.5524,-599.4019 585.3446,-599.4019 585.3446,-558.1981 674.5524,-558.1981 674.5524,-599.4019"/>
<text text-anchor="middle" x="629.9485" y="-583" font-family="Times,serif" font-size="14.00" fill="#000000">GO:0006810</text>
<text text-anchor="middle" x="629.9485" y="-566.2" font-family="Times,serif" font-size="14.00" fill="#000000">transport</text>
</g>
<!-- GO:0016192&#45;&gt;GO:0006810 -->
<g id="edge17" class="edge">
<title>GO:0016192&#45;&gt;GO:0006810</title>
<path fill="none" stroke="#000000" d="M649.2426,-513.7513C645.9732,-524.7739 642.252,-537.3196 638.9558,-548.4326"/>
<polygon fill="#000000" stroke="#000000" points="635.5614,-547.5685 636.0732,-558.151 642.2724,-549.5591 635.5614,-547.5685"/>
</g>
<!-- GO:0051234 -->
<g id="node17" class="node">
<title>GO:0051234</title>
<polygon fill="#ffffff" stroke="#000000" points="684.0952,-702.6014 575.8018,-702.6014 575.8018,-643.7986 684.0952,-643.7986 684.0952,-702.6014"/>
<text text-anchor="middle" x="629.9485" y="-685.8" font-family="Times,serif" font-size="14.00" fill="#000000">GO:0051234</text>
<text text-anchor="middle" x="629.9485" y="-669" font-family="Times,serif" font-size="14.00" fill="#000000">establishment of</text>
<text text-anchor="middle" x="629.9485" y="-652.2" font-family="Times,serif" font-size="14.00" fill="#000000">localization</text>
</g>
<!-- GO:0006810&#45;&gt;GO:0051234 -->
<g id="edge18" class="edge">
<title>GO:0006810&#45;&gt;GO:0051234</title>
<path fill="none" stroke="#000000" d="M629.9485,-599.7504C629.9485,-609.7492 629.9485,-622.0525 629.9485,-633.7106"/>
<polygon fill="#000000" stroke="#000000" points="626.4486,-633.7155 629.9485,-643.7155 633.4486,-633.7156 626.4486,-633.7155"/>
</g>
<!-- GO:0051179 -->
<g id="node18" class="node">
<title>GO:0051179</title>
<polygon fill="#ffffff" stroke="#000000" points="668.5524,-779.8019 579.3446,-779.8019 579.3446,-738.5981 668.5524,-738.5981 668.5524,-779.8019"/>
<text text-anchor="middle" x="623.9485" y="-763.4" font-family="Times,serif" font-size="14.00" fill="#000000">GO:0051179</text>
<text text-anchor="middle" x="623.9485" y="-746.6" font-family="Times,serif" font-size="14.00" fill="#000000">localization</text>
</g>
<!-- GO:0051234&#45;&gt;GO:0051179 -->
<g id="edge19" class="edge">
<title>GO:0051234&#45;&gt;GO:0051179</title>
<path fill="none" stroke="#000000" d="M627.8836,-702.7963C627.3068,-711.0638 626.6788,-720.0657 626.0973,-728.4008"/>
<polygon fill="#000000" stroke="#000000" points="622.5975,-728.2772 625.3929,-738.4966 629.5805,-728.7644 622.5975,-728.2772"/>
</g>
<!-- GO:0051179&#45;&gt;GO:0008150 -->
<g id="edge20" class="edge">
<title>GO:0051179&#45;&gt;GO:0008150</title>
<path fill="none" stroke="#000000" d="M593.3986,-779.9954C579.7256,-789.3026 563.4436,-800.3858 548.907,-810.2809"/>
<polygon fill="#000000" stroke="#000000" points="546.8798,-807.4268 540.5827,-815.9472 550.8188,-813.2134 546.8798,-807.4268"/>
</g>
<!-- GO:0006816 -->
<g id="node19" class="node">
<title>GO:0006816</title>
<polygon fill="#ffffff" stroke="#000000" points="448.4163,-41.4019 313.4807,-41.4019 313.4807,-.1981 448.4163,-.1981 448.4163,-41.4019"/>
<text text-anchor="middle" x="380.9485" y="-25" font-family="Times,serif" font-size="14.00" fill="#000000">GO:0006816</text>
<text text-anchor="middle" x="380.9485" y="-8.2" font-family="Times,serif" font-size="14.00" fill="#000000">calcium ion transport</text>
</g>
<!-- GO:0070838 -->
<g id="node20" class="node">
<title>GO:0070838</title>
<polygon fill="#ffffff" stroke="#000000" points="439.5411,-136.2014 322.3559,-136.2014 322.3559,-77.3986 439.5411,-77.3986 439.5411,-136.2014"/>
<text text-anchor="middle" x="380.9485" y="-119.4" font-family="Times,serif" font-size="14.00" fill="#000000">GO:0070838</text>
<text text-anchor="middle" x="380.9485" y="-102.6" font-family="Times,serif" font-size="14.00" fill="#000000">divalent metal ion</text>
<text text-anchor="middle" x="380.9485" y="-85.8" font-family="Times,serif" font-size="14.00" fill="#000000">transport</text>
</g>
<!-- GO:0006816&#45;&gt;GO:0070838 -->
<g id="edge22" class="edge">
<title>GO:0006816&#45;&gt;GO:0070838</title>
<path fill="none" stroke="#000000" d="M380.9485,-41.6182C380.9485,-49.3358 380.9485,-58.3662 380.9485,-67.2036"/>
<polygon fill="#000000" stroke="#000000" points="377.4486,-67.3991 380.9485,-77.3991 384.4486,-67.3992 377.4486,-67.3991"/>
</g>
<!-- GO:0072511 -->
<g id="node21" class="node">
<title>GO:0072511</title>
<polygon fill="#ffffff" stroke="#000000" points="380.631,-230.6014 225.266,-230.6014 225.266,-171.7986 380.631,-171.7986 380.631,-230.6014"/>
<text text-anchor="middle" x="302.9485" y="-213.8" font-family="Times,serif" font-size="14.00" fill="#000000">GO:0072511</text>
<text text-anchor="middle" x="302.9485" y="-197" font-family="Times,serif" font-size="14.00" fill="#000000">divalent inorganic cation</text>
<text text-anchor="middle" x="302.9485" y="-180.2" font-family="Times,serif" font-size="14.00" fill="#000000">transport</text>
</g>
<!-- GO:0070838&#45;&gt;GO:0072511 -->
<g id="edge23" class="edge">
<title>GO:0070838&#45;&gt;GO:0072511</title>
<path fill="none" stroke="#000000" d="M356.6964,-136.1513C349.4327,-144.9422 341.3687,-154.7018 333.743,-163.9308"/>
<polygon fill="#000000" stroke="#000000" points="330.8572,-161.9285 327.1856,-171.8669 336.2534,-166.3873 330.8572,-161.9285"/>
</g>
<!-- GO:0030001 -->
<g id="node22" class="node">
<title>GO:0030001</title>
<polygon fill="#ffffff" stroke="#000000" points="519.7019,-221.8019 398.1951,-221.8019 398.1951,-180.5981 519.7019,-180.5981 519.7019,-221.8019"/>
<text text-anchor="middle" x="458.9485" y="-205.4" font-family="Times,serif" font-size="14.00" fill="#000000">GO:0030001</text>
<text text-anchor="middle" x="458.9485" y="-188.6" font-family="Times,serif" font-size="14.00" fill="#000000">metal ion transport</text>
</g>
<!-- GO:0070838&#45;&gt;GO:0030001 -->
<g id="edge24" class="edge">
<title>GO:0070838&#45;&gt;GO:0030001</title>
<path fill="none" stroke="#000000" d="M405.2006,-136.1513C414.773,-147.7363 425.7354,-161.0037 435.2527,-172.522"/>
<polygon fill="#000000" stroke="#000000" points="432.819,-175.0714 441.8868,-180.551 438.2152,-170.6126 432.819,-175.0714"/>
</g>
<!-- GO:0006812 -->
<g id="node23" class="node">
<title>GO:0006812</title>
<polygon fill="#ffffff" stroke="#000000" points="446.9216,-316.2019 342.9754,-316.2019 342.9754,-274.9981 446.9216,-274.9981 446.9216,-316.2019"/>
<text text-anchor="middle" x="394.9485" y="-299.8" font-family="Times,serif" font-size="14.00" fill="#000000">GO:0006812</text>
<text text-anchor="middle" x="394.9485" y="-283" font-family="Times,serif" font-size="14.00" fill="#000000">cation transport</text>
</g>
<!-- GO:0072511&#45;&gt;GO:0006812 -->
<g id="edge25" class="edge">
<title>GO:0072511&#45;&gt;GO:0006812</title>
<path fill="none" stroke="#000000" d="M331.5536,-230.5513C343.0633,-242.3612 356.2769,-255.9196 367.6516,-267.591"/>
<polygon fill="#000000" stroke="#000000" points="365.3384,-270.2323 374.8245,-274.951 370.3515,-265.3466 365.3384,-270.2323"/>
</g>
<!-- GO:0030001&#45;&gt;GO:0006812 -->
<g id="edge26" class="edge">
<title>GO:0030001&#45;&gt;GO:0006812</title>
<path fill="none" stroke="#000000" d="M444.7448,-222.1504C435.9618,-235.1054 424.5562,-251.9287 414.8771,-266.2053"/>
<polygon fill="#000000" stroke="#000000" points="411.8271,-264.467 409.1125,-274.7081 417.6211,-268.3951 411.8271,-264.467"/>
</g>
<!-- GO:0006811 -->
<g id="node24" class="node">
<title>GO:0006811</title>
<polygon fill="#ffffff" stroke="#000000" points="439.5524,-410.6019 350.3446,-410.6019 350.3446,-369.3981 439.5524,-369.3981 439.5524,-410.6019"/>
<text text-anchor="middle" x="394.9485" y="-394.2" font-family="Times,serif" font-size="14.00" fill="#000000">GO:0006811</text>
<text text-anchor="middle" x="394.9485" y="-377.4" font-family="Times,serif" font-size="14.00" fill="#000000">ion transport</text>
</g>
<!-- GO:0006812&#45;&gt;GO:0006811 -->
<g id="edge27" class="edge">
<title>GO:0006812&#45;&gt;GO:0006811</title>
<path fill="none" stroke="#000000" d="M394.9485,-316.5504C394.9485,-329.0165 394.9485,-345.0645 394.9485,-358.9786"/>
<polygon fill="#000000" stroke="#000000" points="391.4486,-359.1081 394.9485,-369.1081 398.4486,-359.1082 391.4486,-359.1081"/>
</g>
<!-- GO:0044765 -->
<g id="node25" class="node">
<title>GO:0044765</title>
<polygon fill="#ffffff" stroke="#000000" points="584.9128,-505.0019 424.9842,-505.0019 424.9842,-463.7981 584.9128,-463.7981 584.9128,-505.0019"/>
<text text-anchor="middle" x="504.9485" y="-488.6" font-family="Times,serif" font-size="14.00" fill="#000000">GO:0044765</text>
<text text-anchor="middle" x="504.9485" y="-471.8" font-family="Times,serif" font-size="14.00" fill="#000000">single&#45;organism transport</text>
</g>
<!-- GO:0006811&#45;&gt;GO:0044765 -->
<g id="edge28" class="edge">
<title>GO:0006811&#45;&gt;GO:0044765</title>
<path fill="none" stroke="#000000" d="M419.0885,-410.7165C434.993,-424.3655 455.988,-442.383 473.2357,-457.1846"/>
<polygon fill="#000000" stroke="#000000" points="470.9968,-459.8754 480.8648,-463.7318 475.5555,-454.5633 470.9968,-459.8754"/>
</g>
<!-- GO:0044765&#45;&gt;GO:0006810 -->
<g id="edge29" class="edge">
<title>GO:0044765&#45;&gt;GO:0006810</title>
<path fill="none" stroke="#000000" d="M532.3803,-505.1165C550.6165,-518.8885 574.7419,-537.108 594.4399,-551.9839"/>
<polygon fill="#000000" stroke="#000000" points="592.4914,-554.8983 602.5807,-558.1318 596.71,-549.3123 592.4914,-554.8983"/>
</g>
<!-- GO:1902578 -->
<g id="node26" class="node">
<title>GO:1902578</title>
<polygon fill="#ffffff" stroke="#000000" points="558.1507,-702.6014 451.7463,-702.6014 451.7463,-643.7986 558.1507,-643.7986 558.1507,-702.6014"/>
<text text-anchor="middle" x="504.9485" y="-685.8" font-family="Times,serif" font-size="14.00" fill="#000000">GO:1902578</text>
<text text-anchor="middle" x="504.9485" y="-669" font-family="Times,serif" font-size="14.00" fill="#000000">single&#45;organism</text>
<text text-anchor="middle" x="504.9485" y="-652.2" font-family="Times,serif" font-size="14.00" fill="#000000">localization</text>
</g>
<!-- GO:0044765&#45;&gt;GO:1902578 -->
<g id="edge30" class="edge">
<title>GO:0044765&#45;&gt;GO:1902578</title>
<path fill="none" stroke="#000000" d="M504.9485,-505.3263C504.9485,-536.1951 504.9485,-594.4952 504.9485,-633.6013"/>
<polygon fill="#000000" stroke="#000000" points="501.4486,-633.8376 504.9485,-643.8376 508.4486,-633.8377 501.4486,-633.8376"/>
</g>
<!-- GO:1902578&#45;&gt;GO:0044699 -->
<g id="edge32" class="edge">
<title>GO:1902578&#45;&gt;GO:0044699</title>
<path fill="none" stroke="#000000" d="M456.8187,-702.5558C440.5289,-712.4914 422.4615,-723.5112 406.6251,-733.1703"/>
<polygon fill="#000000" stroke="#000000" points="404.7969,-730.1857 398.0821,-738.3809 408.4419,-736.1618 404.7969,-730.1857"/>
</g>
<!-- GO:1902578&#45;&gt;GO:0051179 -->
<g id="edge31" class="edge">
<title>GO:1902578&#45;&gt;GO:0051179</title>
<path fill="none" stroke="#000000" d="M545.5687,-702.5558C558.9349,-712.2154 573.7192,-722.8999 586.8126,-732.3623"/>
<polygon fill="#000000" stroke="#000000" points="584.9856,-735.3603 595.1407,-738.3809 589.0858,-729.6868 584.9856,-735.3603"/>
</g>
<!-- GO:0018298 -->
<g id="node27" class="node">
<title>GO:0018298</title>
<polygon fill="#ffffff" stroke="#000000" points="1246.4065,-230.6014 1111.4905,-230.6014 1111.4905,-171.7986 1246.4065,-171.7986 1246.4065,-230.6014"/>
<text text-anchor="middle" x="1178.9485" y="-213.8" font-family="Times,serif" font-size="14.00" fill="#000000">GO:0018298</text>
<text text-anchor="middle" x="1178.9485" y="-197" font-family="Times,serif" font-size="14.00" fill="#000000">protein&#45;chromophore</text>
<text text-anchor="middle" x="1178.9485" y="-180.2" font-family="Times,serif" font-size="14.00" fill="#000000">linkage</text>
</g>
<!-- GO:0006464 -->
<g id="node28" class="node">
<title>GO:0006464</title>
<polygon fill="#ffffff" stroke="#000000" points="1245.4703,-325.0014 1112.4267,-325.0014 1112.4267,-266.1986 1245.4703,-266.1986 1245.4703,-325.0014"/>
<text text-anchor="middle" x="1178.9485" y="-308.2" font-family="Times,serif" font-size="14.00" fill="#000000">GO:0006464</text>
<text text-anchor="middle" x="1178.9485" y="-291.4" font-family="Times,serif" font-size="14.00" fill="#000000">cellular protein</text>
<text text-anchor="middle" x="1178.9485" y="-274.6" font-family="Times,serif" font-size="14.00" fill="#000000">modification process</text>
</g>
<!-- GO:0018298&#45;&gt;GO:0006464 -->
<g id="edge33" class="edge">
<title>GO:0018298&#45;&gt;GO:0006464</title>
<path fill="none" stroke="#000000" d="M1178.9485,-230.5513C1178.9485,-238.6318 1178.9485,-247.5308 1178.9485,-256.0838"/>
<polygon fill="#000000" stroke="#000000" points="1175.4486,-256.2668 1178.9485,-266.2669 1182.4486,-256.2669 1175.4486,-256.2668"/>
</g>
<!-- GO:0044267 -->
<g id="node29" class="node">
<title>GO:0044267</title>
<polygon fill="#ffffff" stroke="#000000" points="1166.1341,-419.4014 1049.7629,-419.4014 1049.7629,-360.5986 1166.1341,-360.5986 1166.1341,-419.4014"/>
<text text-anchor="middle" x="1107.9485" y="-402.6" font-family="Times,serif" font-size="14.00" fill="#000000">GO:0044267</text>
<text text-anchor="middle" x="1107.9485" y="-385.8" font-family="Times,serif" font-size="14.00" fill="#000000">cellular protein</text>
<text text-anchor="middle" x="1107.9485" y="-369" font-family="Times,serif" font-size="14.00" fill="#000000">metabolic process</text>
</g>
<!-- GO:0006464&#45;&gt;GO:0044267 -->
<g id="edge34" class="edge">
<title>GO:0006464&#45;&gt;GO:0044267</title>
<path fill="none" stroke="#000000" d="M1156.8728,-324.9513C1150.3279,-333.6534 1143.0689,-343.3047 1136.1898,-352.4509"/>
<polygon fill="#000000" stroke="#000000" points="1133.2242,-350.5712 1130.0105,-360.6669 1138.8185,-354.7788 1133.2242,-350.5712"/>
</g>
<!-- GO:0036211 -->
<g id="node30" class="node">
<title>GO:0036211</title>
<polygon fill="#ffffff" stroke="#000000" points="1315.148,-419.4014 1184.749,-419.4014 1184.749,-360.5986 1315.148,-360.5986 1315.148,-419.4014"/>
<text text-anchor="middle" x="1249.9485" y="-402.6" font-family="Times,serif" font-size="14.00" fill="#000000">GO:0036211</text>
<text text-anchor="middle" x="1249.9485" y="-385.8" font-family="Times,serif" font-size="14.00" fill="#000000">protein modification</text>
<text text-anchor="middle" x="1249.9485" y="-369" font-family="Times,serif" font-size="14.00" fill="#000000">process</text>
</g>
<!-- GO:0006464&#45;&gt;GO:0036211 -->
<g id="edge35" class="edge">
<title>GO:0006464&#45;&gt;GO:0036211</title>
<path fill="none" stroke="#000000" d="M1201.0242,-324.9513C1207.5691,-333.6534 1214.8281,-343.3047 1221.7072,-352.4509"/>
<polygon fill="#000000" stroke="#000000" points="1219.0785,-354.7788 1227.8865,-360.6669 1224.6728,-350.5712 1219.0785,-354.7788"/>
</g>
<!-- GO:0019538 -->
<g id="node31" class="node">
<title>GO:0019538</title>
<polygon fill="#ffffff" stroke="#000000" points="1258.7902,-505.0019 1099.1068,-505.0019 1099.1068,-463.7981 1258.7902,-463.7981 1258.7902,-505.0019"/>
<text text-anchor="middle" x="1178.9485" y="-488.6" font-family="Times,serif" font-size="14.00" fill="#000000">GO:0019538</text>
<text text-anchor="middle" x="1178.9485" y="-471.8" font-family="Times,serif" font-size="14.00" fill="#000000">protein metabolic process</text>
</g>
<!-- GO:0044267&#45;&gt;GO:0019538 -->
<g id="edge36" class="edge">
<title>GO:0044267&#45;&gt;GO:0019538</title>
<path fill="none" stroke="#000000" d="M1130.0242,-419.3513C1138.7375,-430.9363 1148.7161,-444.2037 1157.3793,-455.722"/>
<polygon fill="#000000" stroke="#000000" points="1154.61,-457.8629 1163.418,-463.751 1160.2043,-453.6553 1154.61,-457.8629"/>
</g>
<!-- GO:0044260 -->
<g id="node32" class="node">
<title>GO:0044260</title>
<polygon fill="#ffffff" stroke="#000000" points="1080.7209,-513.8014 933.1761,-513.8014 933.1761,-454.9986 1080.7209,-454.9986 1080.7209,-513.8014"/>
<text text-anchor="middle" x="1006.9485" y="-497" font-family="Times,serif" font-size="14.00" fill="#000000">GO:0044260</text>
<text text-anchor="middle" x="1006.9485" y="-480.2" font-family="Times,serif" font-size="14.00" fill="#000000">cellular macromolecule</text>
<text text-anchor="middle" x="1006.9485" y="-463.4" font-family="Times,serif" font-size="14.00" fill="#000000">metabolic process</text>
</g>
<!-- GO:0044267&#45;&gt;GO:0044260 -->
<g id="edge37" class="edge">
<title>GO:0044267&#45;&gt;GO:0044260</title>
<path fill="none" stroke="#000000" d="M1076.5451,-419.3513C1066.8546,-428.4086 1056.0639,-438.4941 1045.9274,-447.9683"/>
<polygon fill="#000000" stroke="#000000" points="1043.2483,-445.6815 1038.3325,-455.0669 1048.0282,-450.7955 1043.2483,-445.6815"/>
</g>
<!-- GO:0036211&#45;&gt;GO:0019538 -->
<g id="edge38" class="edge">
<title>GO:0036211&#45;&gt;GO:0019538</title>
<path fill="none" stroke="#000000" d="M1227.8728,-419.3513C1219.1595,-430.9363 1209.1809,-444.2037 1200.5177,-455.722"/>
<polygon fill="#000000" stroke="#000000" points="1197.6927,-453.6553 1194.479,-463.751 1203.287,-457.8629 1197.6927,-453.6553"/>
</g>
<!-- GO:0043412 -->
<g id="node33" class="node">
<title>GO:0043412</title>
<polygon fill="#ffffff" stroke="#000000" points="1379.2449,-513.8014 1276.6521,-513.8014 1276.6521,-454.9986 1379.2449,-454.9986 1379.2449,-513.8014"/>
<text text-anchor="middle" x="1327.9485" y="-497" font-family="Times,serif" font-size="14.00" fill="#000000">GO:0043412</text>
<text text-anchor="middle" x="1327.9485" y="-480.2" font-family="Times,serif" font-size="14.00" fill="#000000">macromolecule</text>
<text text-anchor="middle" x="1327.9485" y="-463.4" font-family="Times,serif" font-size="14.00" fill="#000000">modification</text>
</g>
<!-- GO:0036211&#45;&gt;GO:0043412 -->
<g id="edge39" class="edge">
<title>GO:0036211&#45;&gt;GO:0043412</title>
<path fill="none" stroke="#000000" d="M1274.2006,-419.3513C1281.4643,-428.1422 1289.5283,-437.9018 1297.154,-447.1308"/>
<polygon fill="#000000" stroke="#000000" points="1294.6436,-449.5873 1303.7114,-455.0669 1300.0398,-445.1285 1294.6436,-449.5873"/>
</g>
<!-- GO:0044238 -->
<g id="node34" class="node">
<title>GO:0044238</title>
<polygon fill="#ffffff" stroke="#000000" points="1319.9515,-693.8019 1155.9455,-693.8019 1155.9455,-652.5981 1319.9515,-652.5981 1319.9515,-693.8019"/>
<text text-anchor="middle" x="1237.9485" y="-677.4" font-family="Times,serif" font-size="14.00" fill="#000000">GO:0044238</text>
<text text-anchor="middle" x="1237.9485" y="-660.6" font-family="Times,serif" font-size="14.00" fill="#000000">primary metabolic process</text>
</g>
<!-- GO:0019538&#45;&gt;GO:0044238 -->
<g id="edge40" class="edge">
<title>GO:0019538&#45;&gt;GO:0044238</title>
<path fill="none" stroke="#000000" d="M1190.2111,-505.0462C1196.7069,-517.63 1204.6177,-534.2028 1209.9485,-549.6 1220.5929,-580.345 1228.2827,-616.812 1232.8796,-642.1321"/>
<polygon fill="#000000" stroke="#000000" points="1229.4802,-643.0096 1234.66,-652.2518 1236.3743,-641.7966 1229.4802,-643.0096"/>
</g>
<!-- GO:0043170 -->
<g id="node35" class="node">
<title>GO:0043170</title>
<polygon fill="#ffffff" stroke="#000000" points="1200.4507,-608.2014 1039.4463,-608.2014 1039.4463,-549.3986 1200.4507,-549.3986 1200.4507,-608.2014"/>
<text text-anchor="middle" x="1119.9485" y="-591.4" font-family="Times,serif" font-size="14.00" fill="#000000">GO:0043170</text>
<text text-anchor="middle" x="1119.9485" y="-574.6" font-family="Times,serif" font-size="14.00" fill="#000000">macromolecule metabolic</text>
<text text-anchor="middle" x="1119.9485" y="-557.8" font-family="Times,serif" font-size="14.00" fill="#000000">process</text>
</g>
<!-- GO:0019538&#45;&gt;GO:0043170 -->
<g id="edge41" class="edge">
<title>GO:0019538&#45;&gt;GO:0043170</title>
<path fill="none" stroke="#000000" d="M1165.8545,-505.3504C1159.3527,-515.7532 1151.292,-528.6504 1143.7483,-540.7204"/>
<polygon fill="#000000" stroke="#000000" points="1140.7083,-538.9805 1138.3763,-549.3155 1146.6443,-542.6905 1140.7083,-538.9805"/>
</g>
<!-- GO:0044260&#45;&gt;GO:0043170 -->
<g id="edge43" class="edge">
<title>GO:0044260&#45;&gt;GO:0043170</title>
<path fill="none" stroke="#000000" d="M1042.083,-513.7513C1053.1374,-522.9861 1065.4715,-533.29 1077.0047,-542.9249"/>
<polygon fill="#000000" stroke="#000000" points="1074.9174,-545.7417 1084.8357,-549.4669 1079.4052,-540.3696 1074.9174,-545.7417"/>
</g>
<!-- GO:0044237 -->
<g id="node36" class="node">
<title>GO:0044237</title>
<polygon fill="#ffffff" stroke="#000000" points="1002.1313,-702.6014 885.7657,-702.6014 885.7657,-643.7986 1002.1313,-643.7986 1002.1313,-702.6014"/>
<text text-anchor="middle" x="943.9485" y="-685.8" font-family="Times,serif" font-size="14.00" fill="#000000">GO:0044237</text>
<text text-anchor="middle" x="943.9485" y="-669" font-family="Times,serif" font-size="14.00" fill="#000000">cellular metabolic</text>
<text text-anchor="middle" x="943.9485" y="-652.2" font-family="Times,serif" font-size="14.00" fill="#000000">process</text>
</g>
<!-- GO:0044260&#45;&gt;GO:0044237 -->
<g id="edge42" class="edge">
<title>GO:0044260&#45;&gt;GO:0044237</title>
<path fill="none" stroke="#000000" d="M1006.0444,-513.8077C1004.4196,-539.4583 999.9766,-577.2704 987.9485,-608 984.2528,-617.4419 978.9994,-626.8916 973.4029,-635.5503"/>
<polygon fill="#000000" stroke="#000000" points="970.447,-633.6732 967.7371,-643.9156 976.2428,-637.5987 970.447,-633.6732"/>
</g>
<!-- GO:0043412&#45;&gt;GO:0043170 -->
<g id="edge44" class="edge">
<title>GO:0043412&#45;&gt;GO:0043170</title>
<path fill="none" stroke="#000000" d="M1276.6227,-509.5371C1273.6932,-510.9224 1270.7865,-512.2849 1267.9485,-513.6 1245.1106,-524.1831 1220.1183,-535.3497 1197.2811,-545.3932"/>
<polygon fill="#000000" stroke="#000000" points="1195.7267,-542.2531 1187.9757,-549.4761 1198.5393,-548.6632 1195.7267,-542.2531"/>
</g>
<!-- GO:0008152 -->
<g id="node37" class="node">
<title>GO:0008152</title>
<polygon fill="#ffffff" stroke="#000000" points="1002.1341,-779.8019 885.7629,-779.8019 885.7629,-738.5981 1002.1341,-738.5981 1002.1341,-779.8019"/>
<text text-anchor="middle" x="943.9485" y="-763.4" font-family="Times,serif" font-size="14.00" fill="#000000">GO:0008152</text>
<text text-anchor="middle" x="943.9485" y="-746.6" font-family="Times,serif" font-size="14.00" fill="#000000">metabolic process</text>
</g>
<!-- GO:0044238&#45;&gt;GO:0008152 -->
<g id="edge45" class="edge">
<title>GO:0044238&#45;&gt;GO:0008152</title>
<path fill="none" stroke="#000000" d="M1173.6914,-693.8941C1164.3983,-696.7997 1154.9389,-699.7101 1145.9485,-702.4 1101.5481,-715.6846 1051.3917,-729.7928 1012.1652,-740.6254"/>
<polygon fill="#000000" stroke="#000000" points="1011.1485,-737.275 1002.438,-743.3064 1013.0085,-744.0234 1011.1485,-737.275"/>
</g>
<!-- GO:0071704 -->
<g id="node38" class="node">
<title>GO:0071704</title>
<polygon fill="#ffffff" stroke="#000000" points="1137.1341,-702.6014 1020.7629,-702.6014 1020.7629,-643.7986 1137.1341,-643.7986 1137.1341,-702.6014"/>
<text text-anchor="middle" x="1078.9485" y="-685.8" font-family="Times,serif" font-size="14.00" fill="#000000">GO:0071704</text>
<text text-anchor="middle" x="1078.9485" y="-669" font-family="Times,serif" font-size="14.00" fill="#000000">organic substance</text>
<text text-anchor="middle" x="1078.9485" y="-652.2" font-family="Times,serif" font-size="14.00" fill="#000000">metabolic process</text>
</g>
<!-- GO:0043170&#45;&gt;GO:0071704 -->
<g id="edge46" class="edge">
<title>GO:0043170&#45;&gt;GO:0071704</title>
<path fill="none" stroke="#000000" d="M1107.2006,-608.1513C1103.5754,-616.4982 1099.5708,-625.7184 1095.7444,-634.5286"/>
<polygon fill="#000000" stroke="#000000" points="1092.462,-633.3003 1091.6885,-643.8669 1098.8826,-636.0889 1092.462,-633.3003"/>
</g>
<!-- GO:0044237&#45;&gt;GO:0009987 -->
<g id="edge47" class="edge">
<title>GO:0044237&#45;&gt;GO:0009987</title>
<path fill="none" stroke="#000000" d="M885.7248,-699.4674C882.4485,-700.5478 879.1755,-701.5369 875.9485,-702.4 746.7614,-736.9541 705.3591,-709.164 571.576,-738.2658"/>
<polygon fill="#000000" stroke="#000000" points="570.7738,-734.8587 561.7814,-740.4611 572.3048,-741.6892 570.7738,-734.8587"/>
</g>
<!-- GO:0044237&#45;&gt;GO:0008152 -->
<g id="edge48" class="edge">
<title>GO:0044237&#45;&gt;GO:0008152</title>
<path fill="none" stroke="#000000" d="M943.9485,-702.7963C943.9485,-711.0638 943.9485,-720.0657 943.9485,-728.4008"/>
<polygon fill="#000000" stroke="#000000" points="940.4486,-728.4965 943.9485,-738.4966 947.4486,-728.4966 940.4486,-728.4965"/>
</g>
<!-- GO:0008152&#45;&gt;GO:0008150 -->
<g id="edge49" class="edge">
<title>GO:0008152&#45;&gt;GO:0008150</title>
<path fill="none" stroke="#000000" d="M885.4173,-769.6655C806.3769,-783.798 665.6613,-808.9583 580.7582,-824.1391"/>
<polygon fill="#000000" stroke="#000000" points="579.9166,-820.734 570.6888,-825.9395 581.1487,-827.6247 579.9166,-820.734"/>
</g>
<!-- GO:0071704&#45;&gt;GO:0008152 -->
<g id="edge50" class="edge">
<title>GO:0071704&#45;&gt;GO:0008152</title>
<path fill="none" stroke="#000000" d="M1032.8667,-702.5558C1017.4146,-712.3994 1000.2918,-723.3073 985.2308,-732.9017"/>
<polygon fill="#000000" stroke="#000000" points="983.1831,-730.0562 976.6296,-738.3809 986.9441,-735.96 983.1831,-730.0562"/>
</g>
<!-- GO:0006818 -->
<g id="node39" class="node">
<title>GO:0006818</title>
<polygon fill="#ffffff" stroke="#000000" points="580.0854,-410.6019 457.8116,-410.6019 457.8116,-369.3981 580.0854,-369.3981 580.0854,-410.6019"/>
<text text-anchor="middle" x="518.9485" y="-394.2" font-family="Times,serif" font-size="14.00" fill="#000000">GO:0006818</text>
<text text-anchor="middle" x="518.9485" y="-377.4" font-family="Times,serif" font-size="14.00" fill="#000000">hydrogen transport</text>
</g>
<!-- GO:0006818&#45;&gt;GO:0044765 -->
<g id="edge51" class="edge">
<title>GO:0006818&#45;&gt;GO:0044765</title>
<path fill="none" stroke="#000000" d="M515.8414,-410.9504C513.9927,-423.4165 511.6127,-439.4645 509.5491,-453.3786"/>
<polygon fill="#000000" stroke="#000000" points="506.0518,-453.1029 508.0469,-463.5081 512.9761,-454.1298 506.0518,-453.1029"/>
</g>
<!-- GO:0015979 -->
<g id="node40" class="node">
<title>GO:0015979</title>
<polygon fill="#ffffff" stroke="#000000" points="978.6689,-599.4019 879.2281,-599.4019 879.2281,-558.1981 978.6689,-558.1981 978.6689,-599.4019"/>
<text text-anchor="middle" x="928.9485" y="-583" font-family="Times,serif" font-size="14.00" fill="#000000">GO:0015979</text>
<text text-anchor="middle" x="928.9485" y="-566.2" font-family="Times,serif" font-size="14.00" fill="#000000">photosynthesis</text>
</g>
<!-- GO:0015979&#45;&gt;GO:0044237 -->
<g id="edge52" class="edge">
<title>GO:0015979&#45;&gt;GO:0044237</title>
<path fill="none" stroke="#000000" d="M932.2775,-599.7504C933.8663,-609.7492 935.8212,-622.0525 937.6737,-633.7106"/>
<polygon fill="#000000" stroke="#000000" points="934.2375,-634.3887 939.2635,-643.7155 941.1507,-633.2901 934.2375,-634.3887"/>
</g>
<!-- GO:0055114 -->
<g id="node41" class="node">
<title>GO:0055114</title>
<polygon fill="#ffffff" stroke="#000000" points="848.3672,-608.2014 721.5298,-608.2014 721.5298,-549.3986 848.3672,-549.3986 848.3672,-608.2014"/>
<text text-anchor="middle" x="784.9485" y="-591.4" font-family="Times,serif" font-size="14.00" fill="#000000">GO:0055114</text>
<text text-anchor="middle" x="784.9485" y="-574.6" font-family="Times,serif" font-size="14.00" fill="#000000">oxidation&#45;reduction</text>
<text text-anchor="middle" x="784.9485" y="-557.8" font-family="Times,serif" font-size="14.00" fill="#000000">process</text>
</g>
<!-- GO:0044710 -->
<g id="node42" class="node">
<title>GO:0044710</title>
<polygon fill="#ffffff" stroke="#000000" points="867.3567,-702.6014 702.5403,-702.6014 702.5403,-643.7986 867.3567,-643.7986 867.3567,-702.6014"/>
<text text-anchor="middle" x="784.9485" y="-685.8" font-family="Times,serif" font-size="14.00" fill="#000000">GO:0044710</text>
<text text-anchor="middle" x="784.9485" y="-669" font-family="Times,serif" font-size="14.00" fill="#000000">single&#45;organism metabolic</text>
<text text-anchor="middle" x="784.9485" y="-652.2" font-family="Times,serif" font-size="14.00" fill="#000000">process</text>
</g>
<!-- GO:0055114&#45;&gt;GO:0044710 -->
<g id="edge53" class="edge">
<title>GO:0055114&#45;&gt;GO:0044710</title>
<path fill="none" stroke="#000000" d="M784.9485,-608.1513C784.9485,-616.2318 784.9485,-625.1308 784.9485,-633.6838"/>
<polygon fill="#000000" stroke="#000000" points="781.4486,-633.8668 784.9485,-643.8669 788.4486,-633.8669 781.4486,-633.8668"/>
</g>
<!-- GO:0044710&#45;&gt;GO:0044699 -->
<g id="edge55" class="edge">
<title>GO:0044710&#45;&gt;GO:0044699</title>
<path fill="none" stroke="#000000" d="M702.3703,-700.0996C699.1994,-700.9129 696.0508,-701.6837 692.9485,-702.4 589.2692,-726.3381 558.3281,-717.8888 449.9036,-738.3183"/>
<polygon fill="#000000" stroke="#000000" points="449.0292,-734.9223 439.8706,-740.2487 450.3518,-741.7962 449.0292,-734.9223"/>
</g>
<!-- GO:0044710&#45;&gt;GO:0008152 -->
<g id="edge54" class="edge">
<title>GO:0044710&#45;&gt;GO:0008152</title>
<path fill="none" stroke="#000000" d="M839.2226,-702.5558C857.762,-712.5834 878.3433,-723.7154 896.3193,-733.4383"/>
<polygon fill="#000000" stroke="#000000" points="894.9965,-736.7019 905.4575,-738.3809 898.3268,-730.5449 894.9965,-736.7019"/>
</g>
</g>
</svg>
