<?xml version="1.0" encoding="UTF-8" standalone="no"?>
<!DOCTYPE svg PUBLIC "-//W3C//DTD SVG 1.1//EN"
 "http://www.w3.org/Graphics/SVG/1.1/DTD/svg11.dtd">
<!-- Generated by graphviz version 2.40.1 (20161225.0304)
 -->
<!-- Title: G Pages: 1 -->
<svg width="1148pt" height="1155pt"
 viewBox="0.00 0.00 1147.97 1155.20" xmlns="http://www.w3.org/2000/svg" xmlns:xlink="http://www.w3.org/1999/xlink">
<g id="graph0" class="graph" transform="scale(1 1) rotate(0) translate(4 1151.2)">
<title>G</title>
<polygon fill="#ffffff" stroke="transparent" points="-4,4 -4,-1151.2 1143.9675,-1151.2 1143.9675,4 -4,4"/>
<!-- GO:0015085 -->
<g id="node1" class="node">
<title>GO:0015085</title>
<polygon fill="#ff00ff" stroke="#000000" points="1139.7193,-350.2014 968.7135,-350.2014 968.7135,-291.3986 1139.7193,-291.3986 1139.7193,-350.2014"/>
<text text-anchor="middle" x="1054.2164" y="-333.4" font-family="Times,serif" font-size="14.00" fill="#000000">GO:0015085</text>
<text text-anchor="middle" x="1054.2164" y="-316.6" font-family="Times,serif" font-size="14.00" fill="#000000">calcium ion transmembrane</text>
<text text-anchor="middle" x="1054.2164" y="-299.8" font-family="Times,serif" font-size="14.00" fill="#000000">transporter activity</text>
</g>
<!-- GO:0046873 -->
<g id="node2" class="node">
<title>GO:0046873</title>
<polygon fill="#ffffff" stroke="#000000" points="907.5043,-461.4014 748.9285,-461.4014 748.9285,-402.5986 907.5043,-402.5986 907.5043,-461.4014"/>
<text text-anchor="middle" x="828.2164" y="-444.6" font-family="Times,serif" font-size="14.00" fill="#000000">GO:0046873</text>
<text text-anchor="middle" x="828.2164" y="-427.8" font-family="Times,serif" font-size="14.00" fill="#000000">metal ion transmembrane</text>
<text text-anchor="middle" x="828.2164" y="-411" font-family="Times,serif" font-size="14.00" fill="#000000">transporter activity</text>
</g>
<!-- GO:0015085&#45;&gt;GO:0046873 -->
<g id="edge1" class="edge">
<title>GO:0015085&#45;&gt;GO:0046873</title>
<path fill="none" stroke="#000000" d="M994.8376,-350.0165C964.7227,-364.8341 927.9932,-382.9063 896.6904,-398.3084"/>
<polygon fill="#000000" stroke="#000000" points="895.0181,-395.2304 887.5906,-402.7858 898.1085,-401.5113 895.0181,-395.2304"/>
</g>
<!-- GO:0072509 -->
<g id="node3" class="node">
<title>GO:0072509</title>
<polygon fill="#ffffff" stroke="#000000" points="1114.6498,-469.7003 947.783,-469.7003 947.783,-394.2997 1114.6498,-394.2997 1114.6498,-469.7003"/>
<text text-anchor="middle" x="1031.2164" y="-453" font-family="Times,serif" font-size="14.00" fill="#000000">GO:0072509</text>
<text text-anchor="middle" x="1031.2164" y="-436.2" font-family="Times,serif" font-size="14.00" fill="#000000">divalent inorganic cation</text>
<text text-anchor="middle" x="1031.2164" y="-419.4" font-family="Times,serif" font-size="14.00" fill="#000000">transmembrane transporter</text>
<text text-anchor="middle" x="1031.2164" y="-402.6" font-family="Times,serif" font-size="14.00" fill="#000000">activity</text>
</g>
<!-- GO:0015085&#45;&gt;GO:0072509 -->
<g id="edge2" class="edge">
<title>GO:0015085&#45;&gt;GO:0072509</title>
<path fill="none" stroke="#000000" d="M1048.1734,-350.0165C1046.0117,-360.4682 1043.515,-372.5391 1041.1134,-384.1501"/>
<polygon fill="#000000" stroke="#000000" points="1037.6364,-383.6814 1039.0383,-394.183 1044.4913,-385.0992 1037.6364,-383.6814"/>
</g>
<!-- GO:0022890 -->
<g id="node4" class="node">
<title>GO:0022890</title>
<polygon fill="#ffffff" stroke="#000000" points="823.6498,-580.9003 656.783,-580.9003 656.783,-505.4997 823.6498,-505.4997 823.6498,-580.9003"/>
<text text-anchor="middle" x="740.2164" y="-564.2" font-family="Times,serif" font-size="14.00" fill="#000000">GO:0022890</text>
<text text-anchor="middle" x="740.2164" y="-547.4" font-family="Times,serif" font-size="14.00" fill="#000000">inorganic cation</text>
<text text-anchor="middle" x="740.2164" y="-530.6" font-family="Times,serif" font-size="14.00" fill="#000000">transmembrane transporter</text>
<text text-anchor="middle" x="740.2164" y="-513.8" font-family="Times,serif" font-size="14.00" fill="#000000">activity</text>
</g>
<!-- GO:0046873&#45;&gt;GO:0022890 -->
<g id="edge3" class="edge">
<title>GO:0046873&#45;&gt;GO:0022890</title>
<path fill="none" stroke="#000000" d="M805.0954,-461.2165C796.3231,-472.3016 786.1092,-485.2082 776.417,-497.4556"/>
<polygon fill="#000000" stroke="#000000" points="773.6045,-495.3694 770.1435,-505.383 779.0937,-499.7134 773.6045,-495.3694"/>
</g>
<!-- GO:0072509&#45;&gt;GO:0022890 -->
<g id="edge4" class="edge">
<title>GO:0072509&#45;&gt;GO:0022890</title>
<path fill="none" stroke="#000000" d="M947.8275,-463.8655C912.0596,-477.5335 870.1268,-493.5573 833.3463,-507.6122"/>
<polygon fill="#000000" stroke="#000000" points="831.7093,-504.4908 823.6175,-511.3299 834.2081,-511.0297 831.7093,-504.4908"/>
</g>
<!-- GO:0008324 -->
<g id="node5" class="node">
<title>GO:0008324</title>
<polygon fill="#ffffff" stroke="#000000" points="362.2228,-683.8014 222.21,-683.8014 222.21,-624.9986 362.2228,-624.9986 362.2228,-683.8014"/>
<text text-anchor="middle" x="292.2164" y="-667" font-family="Times,serif" font-size="14.00" fill="#000000">GO:0008324</text>
<text text-anchor="middle" x="292.2164" y="-650.2" font-family="Times,serif" font-size="14.00" fill="#000000">cation transmembrane</text>
<text text-anchor="middle" x="292.2164" y="-633.4" font-family="Times,serif" font-size="14.00" fill="#000000">transporter activity</text>
</g>
<!-- GO:0022890&#45;&gt;GO:0008324 -->
<g id="edge5" class="edge">
<title>GO:0022890&#45;&gt;GO:0008324</title>
<path fill="none" stroke="#000000" d="M656.7389,-563.9203C575.4118,-584.1069 452.6289,-614.5833 372.4329,-634.4891"/>
<polygon fill="#000000" stroke="#000000" points="371.2456,-631.1775 362.3833,-636.9836 372.9319,-637.9714 371.2456,-631.1775"/>
</g>
<!-- GO:0015075 -->
<g id="node6" class="node">
<title>GO:0015075</title>
<polygon fill="#ffffff" stroke="#000000" points="299.9034,-786.6014 176.5294,-786.6014 176.5294,-727.7986 299.9034,-727.7986 299.9034,-786.6014"/>
<text text-anchor="middle" x="238.2164" y="-769.8" font-family="Times,serif" font-size="14.00" fill="#000000">GO:0015075</text>
<text text-anchor="middle" x="238.2164" y="-753" font-family="Times,serif" font-size="14.00" fill="#000000">ion transmembrane</text>
<text text-anchor="middle" x="238.2164" y="-736.2" font-family="Times,serif" font-size="14.00" fill="#000000">transporter activity</text>
</g>
<!-- GO:0008324&#45;&gt;GO:0015075 -->
<g id="edge6" class="edge">
<title>GO:0008324&#45;&gt;GO:0015075</title>
<path fill="none" stroke="#000000" d="M276.7422,-683.8584C271.0369,-694.7195 264.4863,-707.1898 258.4243,-718.7301"/>
<polygon fill="#000000" stroke="#000000" points="255.2448,-717.2568 253.6929,-727.7373 261.4418,-720.5121 255.2448,-717.2568"/>
</g>
<!-- GO:0022891 -->
<g id="node7" class="node">
<title>GO:0022891</title>
<polygon fill="#ffffff" stroke="#000000" points="321.6498,-897.7003 154.783,-897.7003 154.783,-822.2997 321.6498,-822.2997 321.6498,-897.7003"/>
<text text-anchor="middle" x="238.2164" y="-881" font-family="Times,serif" font-size="14.00" fill="#000000">GO:0022891</text>
<text text-anchor="middle" x="238.2164" y="-864.2" font-family="Times,serif" font-size="14.00" fill="#000000">substrate&#45;specific</text>
<text text-anchor="middle" x="238.2164" y="-847.4" font-family="Times,serif" font-size="14.00" fill="#000000">transmembrane transporter</text>
<text text-anchor="middle" x="238.2164" y="-830.6" font-family="Times,serif" font-size="14.00" fill="#000000">activity</text>
</g>
<!-- GO:0015075&#45;&gt;GO:0022891 -->
<g id="edge7" class="edge">
<title>GO:0015075&#45;&gt;GO:0022891</title>
<path fill="none" stroke="#000000" d="M238.2164,-786.6584C238.2164,-794.5901 238.2164,-803.38 238.2164,-812.0392"/>
<polygon fill="#000000" stroke="#000000" points="234.7165,-812.0849 238.2164,-822.085 241.7165,-812.085 234.7165,-812.0849"/>
</g>
<!-- GO:0022857 -->
<g id="node8" class="node">
<title>GO:0022857</title>
<polygon fill="#ffffff" stroke="#000000" points="166.6498,-992.2014 -.217,-992.2014 -.217,-933.3986 166.6498,-933.3986 166.6498,-992.2014"/>
<text text-anchor="middle" x="83.2164" y="-975.4" font-family="Times,serif" font-size="14.00" fill="#000000">GO:0022857</text>
<text text-anchor="middle" x="83.2164" y="-958.6" font-family="Times,serif" font-size="14.00" fill="#000000">transmembrane transporter</text>
<text text-anchor="middle" x="83.2164" y="-941.8" font-family="Times,serif" font-size="14.00" fill="#000000">activity</text>
</g>
<!-- GO:0022891&#45;&gt;GO:0022857 -->
<g id="edge8" class="edge">
<title>GO:0022891&#45;&gt;GO:0022857</title>
<path fill="none" stroke="#000000" d="M181.3803,-897.6952C166.5019,-907.5629 150.5273,-918.1577 135.877,-927.8741"/>
<polygon fill="#000000" stroke="#000000" points="133.8217,-925.0374 127.4225,-933.4814 137.6908,-930.871 133.8217,-925.0374"/>
</g>
<!-- GO:0022892 -->
<g id="node9" class="node">
<title>GO:0022892</title>
<polygon fill="#ffffff" stroke="#000000" points="306.3449,-992.2014 184.0879,-992.2014 184.0879,-933.3986 306.3449,-933.3986 306.3449,-992.2014"/>
<text text-anchor="middle" x="245.2164" y="-975.4" font-family="Times,serif" font-size="14.00" fill="#000000">GO:0022892</text>
<text text-anchor="middle" x="245.2164" y="-958.6" font-family="Times,serif" font-size="14.00" fill="#000000">substrate&#45;specific</text>
<text text-anchor="middle" x="245.2164" y="-941.8" font-family="Times,serif" font-size="14.00" fill="#000000">transporter activity</text>
</g>
<!-- GO:0022891&#45;&gt;GO:0022892 -->
<g id="edge9" class="edge">
<title>GO:0022891&#45;&gt;GO:0022892</title>
<path fill="none" stroke="#000000" d="M240.7832,-897.6952C241.3546,-906.0874 241.9619,-915.0054 242.5377,-923.4618"/>
<polygon fill="#000000" stroke="#000000" points="239.0486,-923.7423 243.22,-933.4814 246.0325,-923.2667 239.0486,-923.7423"/>
</g>
<!-- GO:0005215 -->
<g id="node10" class="node">
<title>GO:0005215</title>
<polygon fill="#ffffff" stroke="#000000" points="225.3449,-1069.4019 103.0879,-1069.4019 103.0879,-1028.1981 225.3449,-1028.1981 225.3449,-1069.4019"/>
<text text-anchor="middle" x="164.2164" y="-1053" font-family="Times,serif" font-size="14.00" fill="#000000">GO:0005215</text>
<text text-anchor="middle" x="164.2164" y="-1036.2" font-family="Times,serif" font-size="14.00" fill="#000000">transporter activity</text>
</g>
<!-- GO:0022857&#45;&gt;GO:0005215 -->
<g id="edge10" class="edge">
<title>GO:0022857&#45;&gt;GO:0005215</title>
<path fill="none" stroke="#000000" d="M111.092,-992.3963C119.744,-1001.5824 129.25,-1011.6752 137.7997,-1020.7526"/>
<polygon fill="#000000" stroke="#000000" points="135.3125,-1023.2167 144.7166,-1028.0966 140.4082,-1018.4173 135.3125,-1023.2167"/>
</g>
<!-- GO:0022892&#45;&gt;GO:0005215 -->
<g id="edge11" class="edge">
<title>GO:0022892&#45;&gt;GO:0005215</title>
<path fill="none" stroke="#000000" d="M217.3408,-992.3963C208.6888,-1001.5824 199.1828,-1011.6752 190.6331,-1020.7526"/>
<polygon fill="#000000" stroke="#000000" points="188.0246,-1018.4173 183.7162,-1028.0966 193.1203,-1023.2167 188.0246,-1018.4173"/>
</g>
<!-- GO:0003674 -->
<g id="node11" class="node">
<title>GO:0003674</title>
<polygon fill="#ffffff" stroke="#000000" points="226.8495,-1147.0019 101.5833,-1147.0019 101.5833,-1105.7981 226.8495,-1105.7981 226.8495,-1147.0019"/>
<text text-anchor="middle" x="164.2164" y="-1130.6" font-family="Times,serif" font-size="14.00" fill="#000000">GO:0003674</text>
<text text-anchor="middle" x="164.2164" y="-1113.8" font-family="Times,serif" font-size="14.00" fill="#000000">molecular_function</text>
</g>
<!-- GO:0005215&#45;&gt;GO:0003674 -->
<g id="edge12" class="edge">
<title>GO:0005215&#45;&gt;GO:0003674</title>
<path fill="none" stroke="#000000" d="M164.2164,-1069.5954C164.2164,-1077.5109 164.2164,-1086.7109 164.2164,-1095.3722"/>
<polygon fill="#000000" stroke="#000000" points="160.7165,-1095.5472 164.2164,-1105.5472 167.7165,-1095.5473 160.7165,-1095.5472"/>
</g>
<!-- GO:0015386 -->
<g id="node12" class="node">
<title>GO:0015386</title>
<polygon fill="#ffffff" stroke="#000000" points="303.1302,-58.6014 187.3026,-58.6014 187.3026,.2014 303.1302,.2014 303.1302,-58.6014"/>
<text text-anchor="middle" x="245.2164" y="-41.8" font-family="Times,serif" font-size="14.00" fill="#000000">GO:0015386</text>
<text text-anchor="middle" x="245.2164" y="-25" font-family="Times,serif" font-size="14.00" fill="#000000">potassium:proton</text>
<text text-anchor="middle" x="245.2164" y="-8.2" font-family="Times,serif" font-size="14.00" fill="#000000">antiporter activity</text>
</g>
<!-- GO:0005451 -->
<g id="node13" class="node">
<title>GO:0005451</title>
<polygon fill="#ffffff" stroke="#000000" points="379.4698,-153.0014 218.963,-153.0014 218.963,-94.1986 379.4698,-94.1986 379.4698,-153.0014"/>
<text text-anchor="middle" x="299.2164" y="-136.2" font-family="Times,serif" font-size="14.00" fill="#000000">GO:0005451</text>
<text text-anchor="middle" x="299.2164" y="-119.4" font-family="Times,serif" font-size="14.00" fill="#000000">monovalent cation:proton</text>
<text text-anchor="middle" x="299.2164" y="-102.6" font-family="Times,serif" font-size="14.00" fill="#000000">antiporter activity</text>
</g>
<!-- GO:0015386&#45;&gt;GO:0005451 -->
<g id="edge13" class="edge">
<title>GO:0015386&#45;&gt;GO:0005451</title>
<path fill="none" stroke="#000000" d="M262.0063,-58.5513C266.8826,-67.0758 272.28,-76.5111 277.4164,-85.4904"/>
<polygon fill="#000000" stroke="#000000" points="274.4334,-87.3246 282.4369,-94.2669 280.5095,-83.8488 274.4334,-87.3246"/>
</g>
<!-- GO:0022821 -->
<g id="node14" class="node">
<title>GO:0022821</title>
<polygon fill="#ffffff" stroke="#000000" points="203.3048,-247.4014 51.128,-247.4014 51.128,-188.5986 203.3048,-188.5986 203.3048,-247.4014"/>
<text text-anchor="middle" x="127.2164" y="-230.6" font-family="Times,serif" font-size="14.00" fill="#000000">GO:0022821</text>
<text text-anchor="middle" x="127.2164" y="-213.8" font-family="Times,serif" font-size="14.00" fill="#000000">potassium ion antiporter</text>
<text text-anchor="middle" x="127.2164" y="-197" font-family="Times,serif" font-size="14.00" fill="#000000">activity</text>
</g>
<!-- GO:0015386&#45;&gt;GO:0022821 -->
<g id="edge14" class="edge">
<title>GO:0015386&#45;&gt;GO:0022821</title>
<path fill="none" stroke="#000000" d="M226.7789,-58.7C206.3426,-91.3981 173.3219,-144.2312 150.9646,-180.0029"/>
<polygon fill="#000000" stroke="#000000" points="147.8565,-178.3721 145.5244,-188.7072 153.7925,-182.0822 147.8565,-178.3721"/>
</g>
<!-- GO:0015299 -->
<g id="node15" class="node">
<title>GO:0015299</title>
<polygon fill="#ffffff" stroke="#000000" points="533.0209,-247.4014 385.4119,-247.4014 385.4119,-188.5986 533.0209,-188.5986 533.0209,-247.4014"/>
<text text-anchor="middle" x="459.2164" y="-230.6" font-family="Times,serif" font-size="14.00" fill="#000000">GO:0015299</text>
<text text-anchor="middle" x="459.2164" y="-213.8" font-family="Times,serif" font-size="14.00" fill="#000000">solute:proton antiporter</text>
<text text-anchor="middle" x="459.2164" y="-197" font-family="Times,serif" font-size="14.00" fill="#000000">activity</text>
</g>
<!-- GO:0005451&#45;&gt;GO:0015299 -->
<g id="edge15" class="edge">
<title>GO:0005451&#45;&gt;GO:0015299</title>
<path fill="none" stroke="#000000" d="M348.9643,-152.9513C365.3692,-162.6301 383.7643,-173.4833 400.7582,-183.5097"/>
<polygon fill="#000000" stroke="#000000" points="399.108,-186.5998 409.4992,-188.6669 402.6651,-180.5709 399.108,-186.5998"/>
</g>
<!-- GO:0015491 -->
<g id="node16" class="node">
<title>GO:0015491</title>
<polygon fill="#ffffff" stroke="#000000" points="367.4502,-247.4014 220.9826,-247.4014 220.9826,-188.5986 367.4502,-188.5986 367.4502,-247.4014"/>
<text text-anchor="middle" x="294.2164" y="-230.6" font-family="Times,serif" font-size="14.00" fill="#000000">GO:0015491</text>
<text text-anchor="middle" x="294.2164" y="-213.8" font-family="Times,serif" font-size="14.00" fill="#000000">cation:cation antiporter</text>
<text text-anchor="middle" x="294.2164" y="-197" font-family="Times,serif" font-size="14.00" fill="#000000">activity</text>
</g>
<!-- GO:0005451&#45;&gt;GO:0015491 -->
<g id="edge16" class="edge">
<title>GO:0005451&#45;&gt;GO:0015491</title>
<path fill="none" stroke="#000000" d="M297.6618,-152.9513C297.2338,-161.0318 296.7624,-169.9308 296.3094,-178.4838"/>
<polygon fill="#000000" stroke="#000000" points="292.804,-178.4957 295.7701,-188.6669 299.7942,-178.866 292.804,-178.4957"/>
</g>
<!-- GO:0015297 -->
<g id="node17" class="node">
<title>GO:0015297</title>
<polygon fill="#ffffff" stroke="#000000" points="159.1302,-452.6019 43.3026,-452.6019 43.3026,-411.3981 159.1302,-411.3981 159.1302,-452.6019"/>
<text text-anchor="middle" x="101.2164" y="-436.2" font-family="Times,serif" font-size="14.00" fill="#000000">GO:0015297</text>
<text text-anchor="middle" x="101.2164" y="-419.4" font-family="Times,serif" font-size="14.00" fill="#000000">antiporter activity</text>
</g>
<!-- GO:0022821&#45;&gt;GO:0015297 -->
<g id="edge17" class="edge">
<title>GO:0022821&#45;&gt;GO:0015297</title>
<path fill="none" stroke="#000000" d="M78.01,-247.4302C66.0485,-257.192 54.8119,-269.205 48.2164,-283.2 33.9683,-313.4331 37.9555,-326.5918 48.2164,-358.4 53.4905,-374.7495 63.8955,-390.5312 74.1001,-403.2596"/>
<polygon fill="#000000" stroke="#000000" points="71.6147,-405.743 80.721,-411.1583 76.9793,-401.2461 71.6147,-405.743"/>
</g>
<!-- GO:0015079 -->
<g id="node18" class="node">
<title>GO:0015079</title>
<polygon fill="#ffffff" stroke="#000000" points="726.6498,-358.5003 559.783,-358.5003 559.783,-283.0997 726.6498,-283.0997 726.6498,-358.5003"/>
<text text-anchor="middle" x="643.2164" y="-341.8" font-family="Times,serif" font-size="14.00" fill="#000000">GO:0015079</text>
<text text-anchor="middle" x="643.2164" y="-325" font-family="Times,serif" font-size="14.00" fill="#000000">potassium ion</text>
<text text-anchor="middle" x="643.2164" y="-308.2" font-family="Times,serif" font-size="14.00" fill="#000000">transmembrane transporter</text>
<text text-anchor="middle" x="643.2164" y="-291.4" font-family="Times,serif" font-size="14.00" fill="#000000">activity</text>
</g>
<!-- GO:0022821&#45;&gt;GO:0015079 -->
<g id="edge18" class="edge">
<title>GO:0022821&#45;&gt;GO:0015079</title>
<path fill="none" stroke="#000000" d="M203.4395,-245.0901C206.3893,-245.8501 209.3221,-246.5578 212.2164,-247.2 356.9549,-279.3154 402.3513,-247.5954 549.9453,-283.1118"/>
<polygon fill="#000000" stroke="#000000" points="549.2695,-286.55 559.817,-285.5499 550.9479,-279.7542 549.2695,-286.55"/>
</g>
<!-- GO:0015078 -->
<g id="node19" class="node">
<title>GO:0015078</title>
<polygon fill="#ffffff" stroke="#000000" points="542.6498,-358.5003 375.783,-358.5003 375.783,-283.0997 542.6498,-283.0997 542.6498,-358.5003"/>
<text text-anchor="middle" x="459.2164" y="-341.8" font-family="Times,serif" font-size="14.00" fill="#000000">GO:0015078</text>
<text text-anchor="middle" x="459.2164" y="-325" font-family="Times,serif" font-size="14.00" fill="#000000">hydrogen ion</text>
<text text-anchor="middle" x="459.2164" y="-308.2" font-family="Times,serif" font-size="14.00" fill="#000000">transmembrane transporter</text>
<text text-anchor="middle" x="459.2164" y="-291.4" font-family="Times,serif" font-size="14.00" fill="#000000">activity</text>
</g>
<!-- GO:0015299&#45;&gt;GO:0015078 -->
<g id="edge19" class="edge">
<title>GO:0015299&#45;&gt;GO:0015078</title>
<path fill="none" stroke="#000000" d="M459.2164,-247.4584C459.2164,-255.3901 459.2164,-264.18 459.2164,-272.8392"/>
<polygon fill="#000000" stroke="#000000" points="455.7165,-272.8849 459.2164,-282.885 462.7165,-272.885 455.7165,-272.8849"/>
</g>
<!-- GO:0015298 -->
<g id="node20" class="node">
<title>GO:0015298</title>
<polygon fill="#ffffff" stroke="#000000" points="358.1807,-350.2014 212.2521,-350.2014 212.2521,-291.3986 358.1807,-291.3986 358.1807,-350.2014"/>
<text text-anchor="middle" x="285.2164" y="-333.4" font-family="Times,serif" font-size="14.00" fill="#000000">GO:0015298</text>
<text text-anchor="middle" x="285.2164" y="-316.6" font-family="Times,serif" font-size="14.00" fill="#000000">solute:cation antiporter</text>
<text text-anchor="middle" x="285.2164" y="-299.8" font-family="Times,serif" font-size="14.00" fill="#000000">activity</text>
</g>
<!-- GO:0015299&#45;&gt;GO:0015298 -->
<g id="edge20" class="edge">
<title>GO:0015299&#45;&gt;GO:0015298</title>
<path fill="none" stroke="#000000" d="M409.355,-247.4584C388.7898,-259.6084 364.8163,-273.772 343.4508,-286.3948"/>
<polygon fill="#000000" stroke="#000000" points="341.6134,-283.4151 334.7841,-291.5152 345.1741,-289.4419 341.6134,-283.4151"/>
</g>
<!-- GO:0015491&#45;&gt;GO:0015298 -->
<g id="edge22" class="edge">
<title>GO:0015491&#45;&gt;GO:0015298</title>
<path fill="none" stroke="#000000" d="M291.6374,-247.4584C290.7147,-257.9969 289.6595,-270.0505 288.6746,-281.2994"/>
<polygon fill="#000000" stroke="#000000" points="285.1814,-281.0702 287.7958,-291.3373 292.1547,-281.6807 285.1814,-281.0702"/>
</g>
<!-- GO:0099516 -->
<g id="node21" class="node">
<title>GO:0099516</title>
<polygon fill="#ffffff" stroke="#000000" points="195.0211,-341.4019 57.4117,-341.4019 57.4117,-300.1981 195.0211,-300.1981 195.0211,-341.4019"/>
<text text-anchor="middle" x="126.2164" y="-325" font-family="Times,serif" font-size="14.00" fill="#000000">GO:0099516</text>
<text text-anchor="middle" x="126.2164" y="-308.2" font-family="Times,serif" font-size="14.00" fill="#000000">ion antiporter activity</text>
</g>
<!-- GO:0015491&#45;&gt;GO:0099516 -->
<g id="edge21" class="edge">
<title>GO:0015491&#45;&gt;GO:0099516</title>
<path fill="none" stroke="#000000" d="M246.0743,-247.4584C221.657,-262.3994 192.2633,-280.3856 168.6954,-294.8069"/>
<polygon fill="#000000" stroke="#000000" points="166.6736,-291.9407 159.9706,-300.1456 170.3273,-297.9116 166.6736,-291.9407"/>
</g>
<!-- GO:0015291 -->
<g id="node22" class="node">
<title>GO:0015291</title>
<polygon fill="#ffffff" stroke="#000000" points="166.6498,-692.1003 -.217,-692.1003 -.217,-616.6997 166.6498,-616.6997 166.6498,-692.1003"/>
<text text-anchor="middle" x="83.2164" y="-675.4" font-family="Times,serif" font-size="14.00" fill="#000000">GO:0015291</text>
<text text-anchor="middle" x="83.2164" y="-658.6" font-family="Times,serif" font-size="14.00" fill="#000000">secondary active</text>
<text text-anchor="middle" x="83.2164" y="-641.8" font-family="Times,serif" font-size="14.00" fill="#000000">transmembrane transporter</text>
<text text-anchor="middle" x="83.2164" y="-625" font-family="Times,serif" font-size="14.00" fill="#000000">activity</text>
</g>
<!-- GO:0015297&#45;&gt;GO:0015291 -->
<g id="edge23" class="edge">
<title>GO:0015297&#45;&gt;GO:0015291</title>
<path fill="none" stroke="#000000" d="M99.523,-452.9229C96.7019,-487.7788 90.9695,-558.6062 87.1098,-606.2947"/>
<polygon fill="#000000" stroke="#000000" points="83.6105,-606.1453 86.2923,-616.3951 90.5877,-606.7101 83.6105,-606.1453"/>
</g>
<!-- GO:0015079&#45;&gt;GO:0046873 -->
<g id="edge25" class="edge">
<title>GO:0015079&#45;&gt;GO:0046873</title>
<path fill="none" stroke="#000000" d="M705.849,-358.4472C726.8531,-371.0724 750.1588,-385.0811 770.7477,-397.4567"/>
<polygon fill="#000000" stroke="#000000" points="769.0165,-400.4997 779.3905,-402.6517 772.6228,-394.5001 769.0165,-400.4997"/>
</g>
<!-- GO:0015077 -->
<g id="node23" class="node">
<title>GO:0015077</title>
<polygon fill="#ffffff" stroke="#000000" points="722.2228,-469.7003 582.21,-469.7003 582.21,-394.2997 722.2228,-394.2997 722.2228,-469.7003"/>
<text text-anchor="middle" x="652.2164" y="-453" font-family="Times,serif" font-size="14.00" fill="#000000">GO:0015077</text>
<text text-anchor="middle" x="652.2164" y="-436.2" font-family="Times,serif" font-size="14.00" fill="#000000">monovalent inorganic</text>
<text text-anchor="middle" x="652.2164" y="-419.4" font-family="Times,serif" font-size="14.00" fill="#000000">cation transmembrane</text>
<text text-anchor="middle" x="652.2164" y="-402.6" font-family="Times,serif" font-size="14.00" fill="#000000">transporter activity</text>
</g>
<!-- GO:0015079&#45;&gt;GO:0015077 -->
<g id="edge24" class="edge">
<title>GO:0015079&#45;&gt;GO:0015077</title>
<path fill="none" stroke="#000000" d="M646.2634,-358.4472C646.9378,-366.78 647.661,-375.7155 648.3628,-384.3863"/>
<polygon fill="#000000" stroke="#000000" points="644.8771,-384.7065 649.1725,-394.3915 651.8543,-384.1417 644.8771,-384.7065"/>
</g>
<!-- GO:0015078&#45;&gt;GO:0015077 -->
<g id="edge26" class="edge">
<title>GO:0015078&#45;&gt;GO:0015077</title>
<path fill="none" stroke="#000000" d="M524.5574,-358.4472C541.6923,-368.3198 560.2954,-379.0383 577.8634,-389.1603"/>
<polygon fill="#000000" stroke="#000000" points="576.5307,-392.4318 586.9427,-394.3915 580.0253,-386.3665 576.5307,-392.4318"/>
</g>
<!-- GO:0015298&#45;&gt;GO:0008324 -->
<g id="edge28" class="edge">
<title>GO:0015298&#45;&gt;GO:0008324</title>
<path fill="none" stroke="#000000" d="M285.8315,-350.1124C287.0887,-410.0274 289.9541,-546.5839 291.3793,-614.5062"/>
<polygon fill="#000000" stroke="#000000" points="287.8861,-614.8715 291.5952,-624.7958 294.8846,-614.7245 287.8861,-614.8715"/>
</g>
<!-- GO:0015298&#45;&gt;GO:0015297 -->
<g id="edge27" class="edge">
<title>GO:0015298&#45;&gt;GO:0015297</title>
<path fill="none" stroke="#000000" d="M236.8726,-350.0165C208.1451,-367.3779 172.0246,-389.2072 144.2797,-405.9748"/>
<polygon fill="#000000" stroke="#000000" points="142.3341,-403.061 135.586,-411.2288 145.9548,-409.052 142.3341,-403.061"/>
</g>
<!-- GO:0099516&#45;&gt;GO:0015075 -->
<g id="edge29" class="edge">
<title>GO:0099516&#45;&gt;GO:0015075</title>
<path fill="none" stroke="#000000" d="M140.9226,-341.6957C150.208,-355.909 161.6512,-375.4996 168.2164,-394.4 212.1096,-520.764 179.0712,-562.661 213.2164,-692 215.5097,-700.6867 218.5703,-709.808 221.7618,-718.3843"/>
<polygon fill="#000000" stroke="#000000" points="218.5228,-719.7128 225.3868,-727.7835 225.0539,-717.1939 218.5228,-719.7128"/>
</g>
<!-- GO:0099516&#45;&gt;GO:0015297 -->
<g id="edge30" class="edge">
<title>GO:0099516&#45;&gt;GO:0015297</title>
<path fill="none" stroke="#000000" d="M121.5727,-341.4553C117.8077,-358.2017 112.4437,-382.0608 108.1671,-401.0834"/>
<polygon fill="#000000" stroke="#000000" points="104.6988,-400.5538 105.9201,-411.078 111.5284,-402.0893 104.6988,-400.5538"/>
</g>
<!-- GO:0022804 -->
<g id="node24" class="node">
<title>GO:0022804</title>
<polygon fill="#ffffff" stroke="#000000" points="152.9376,-786.6014 13.4952,-786.6014 13.4952,-727.7986 152.9376,-727.7986 152.9376,-786.6014"/>
<text text-anchor="middle" x="83.2164" y="-769.8" font-family="Times,serif" font-size="14.00" fill="#000000">GO:0022804</text>
<text text-anchor="middle" x="83.2164" y="-753" font-family="Times,serif" font-size="14.00" fill="#000000">active transmembrane</text>
<text text-anchor="middle" x="83.2164" y="-736.2" font-family="Times,serif" font-size="14.00" fill="#000000">transporter activity</text>
</g>
<!-- GO:0015291&#45;&gt;GO:0022804 -->
<g id="edge31" class="edge">
<title>GO:0015291&#45;&gt;GO:0022804</title>
<path fill="none" stroke="#000000" d="M83.2164,-692.0952C83.2164,-700.4874 83.2164,-709.4054 83.2164,-717.8618"/>
<polygon fill="#000000" stroke="#000000" points="79.7165,-717.8813 83.2164,-727.8814 86.7165,-717.8814 79.7165,-717.8813"/>
</g>
<!-- GO:0015077&#45;&gt;GO:0022890 -->
<g id="edge32" class="edge">
<title>GO:0015077&#45;&gt;GO:0022890</title>
<path fill="none" stroke="#000000" d="M682.0092,-469.6472C689.1052,-478.614 696.7535,-488.2787 704.0988,-497.5605"/>
<polygon fill="#000000" stroke="#000000" points="701.5041,-499.9219 710.4543,-505.5915 706.9932,-495.5779 701.5041,-499.9219"/>
</g>
<!-- GO:0022804&#45;&gt;GO:0022857 -->
<g id="edge33" class="edge">
<title>GO:0022804&#45;&gt;GO:0022857</title>
<path fill="none" stroke="#000000" d="M83.2164,-786.6575C83.2164,-822.5359 83.2164,-883.2844 83.2164,-923.2217"/>
<polygon fill="#000000" stroke="#000000" points="79.7165,-923.3971 83.2164,-933.3972 86.7165,-923.3972 79.7165,-923.3971"/>
</g>
<!-- GO:0015369 -->
<g id="node25" class="node">
<title>GO:0015369</title>
<polygon fill="#ffffff" stroke="#000000" points="562.3963,-58.6014 404.0365,-58.6014 404.0365,.2014 562.3963,.2014 562.3963,-58.6014"/>
<text text-anchor="middle" x="483.2164" y="-41.8" font-family="Times,serif" font-size="14.00" fill="#000000">GO:0015369</text>
<text text-anchor="middle" x="483.2164" y="-25" font-family="Times,serif" font-size="14.00" fill="#000000">calcium:proton antiporter</text>
<text text-anchor="middle" x="483.2164" y="-8.2" font-family="Times,serif" font-size="14.00" fill="#000000">activity</text>
</g>
<!-- GO:0015368 -->
<g id="node26" class="node">
<title>GO:0015368</title>
<polygon fill="#ffffff" stroke="#000000" points="691.5556,-153.0014 534.8772,-153.0014 534.8772,-94.1986 691.5556,-94.1986 691.5556,-153.0014"/>
<text text-anchor="middle" x="613.2164" y="-136.2" font-family="Times,serif" font-size="14.00" fill="#000000">GO:0015368</text>
<text text-anchor="middle" x="613.2164" y="-119.4" font-family="Times,serif" font-size="14.00" fill="#000000">calcium:cation antiporter</text>
<text text-anchor="middle" x="613.2164" y="-102.6" font-family="Times,serif" font-size="14.00" fill="#000000">activity</text>
</g>
<!-- GO:0015369&#45;&gt;GO:0015368 -->
<g id="edge34" class="edge">
<title>GO:0015369&#45;&gt;GO:0015368</title>
<path fill="none" stroke="#000000" d="M523.6366,-58.5513C536.5987,-67.9637 551.0901,-78.4867 564.5765,-88.28"/>
<polygon fill="#000000" stroke="#000000" points="562.673,-91.2231 572.8212,-94.2669 566.7861,-85.5589 562.673,-91.2231"/>
</g>
<!-- GO:0051139 -->
<g id="node27" class="node">
<title>GO:0051139</title>
<polygon fill="#ffffff" stroke="#000000" points="517.1302,-153.0014 401.3026,-153.0014 401.3026,-94.1986 517.1302,-94.1986 517.1302,-153.0014"/>
<text text-anchor="middle" x="459.2164" y="-136.2" font-family="Times,serif" font-size="14.00" fill="#000000">GO:0051139</text>
<text text-anchor="middle" x="459.2164" y="-119.4" font-family="Times,serif" font-size="14.00" fill="#000000">metal ion:proton</text>
<text text-anchor="middle" x="459.2164" y="-102.6" font-family="Times,serif" font-size="14.00" fill="#000000">antiporter activity</text>
</g>
<!-- GO:0015369&#45;&gt;GO:0051139 -->
<g id="edge35" class="edge">
<title>GO:0015369&#45;&gt;GO:0051139</title>
<path fill="none" stroke="#000000" d="M475.7542,-58.5513C473.6773,-66.7206 471.3876,-75.7264 469.1912,-84.3657"/>
<polygon fill="#000000" stroke="#000000" points="465.7459,-83.7128 466.674,-94.2669 472.5301,-85.4376 465.7459,-83.7128"/>
</g>
<!-- GO:0015368&#45;&gt;GO:0015085 -->
<g id="edge36" class="edge">
<title>GO:0015368&#45;&gt;GO:0015085</title>
<path fill="none" stroke="#000000" d="M691.5358,-131.9946C778.1861,-142.417 911.2684,-162.1308 954.2164,-188.8 990.5172,-211.3416 1018.3737,-252.2009 1035.3554,-282.5109"/>
<polygon fill="#000000" stroke="#000000" points="1032.4188,-284.4369 1040.2737,-291.5468 1038.567,-281.0904 1032.4188,-284.4369"/>
</g>
<!-- GO:0015368&#45;&gt;GO:0015491 -->
<g id="edge37" class="edge">
<title>GO:0015368&#45;&gt;GO:0015491</title>
<path fill="none" stroke="#000000" d="M534.5934,-150.3345C531.7716,-151.1837 528.9728,-152.0083 526.2164,-152.8 463.2808,-170.8757 443.684,-169.4499 377.1202,-188.6511"/>
<polygon fill="#000000" stroke="#000000" points="376.0165,-185.3273 367.4066,-191.5016 377.9876,-192.0441 376.0165,-185.3273"/>
</g>
<!-- GO:0051139&#45;&gt;GO:0046873 -->
<g id="edge38" class="edge">
<title>GO:0051139&#45;&gt;GO:0046873</title>
<path fill="none" stroke="#000000" d="M517.186,-149.2536C520.2297,-150.4784 523.2531,-151.6679 526.2164,-152.8 698.9167,-218.7789 812.9018,-133.3783 921.2164,-283.2 940.7979,-310.2853 935.7738,-328.3147 921.2164,-358.4 914.0866,-373.135 902.4162,-385.8161 889.7129,-396.2979"/>
<polygon fill="#000000" stroke="#000000" points="887.4393,-393.6324 881.7013,-402.5388 891.7411,-399.1546 887.4393,-393.6324"/>
</g>
<!-- GO:0051139&#45;&gt;GO:0015299 -->
<g id="edge39" class="edge">
<title>GO:0051139&#45;&gt;GO:0015299</title>
<path fill="none" stroke="#000000" d="M459.2164,-152.9513C459.2164,-161.0318 459.2164,-169.9308 459.2164,-178.4838"/>
<polygon fill="#000000" stroke="#000000" points="455.7165,-178.6668 459.2164,-188.6669 462.7165,-178.6669 455.7165,-178.6668"/>
</g>
<!-- GO:0051139&#45;&gt;GO:0015491 -->
<g id="edge40" class="edge">
<title>GO:0051139&#45;&gt;GO:0015491</title>
<path fill="none" stroke="#000000" d="M407.9138,-152.9513C390.9964,-162.6301 372.0264,-173.4833 354.5014,-183.5097"/>
<polygon fill="#000000" stroke="#000000" points="352.429,-180.6629 345.4872,-188.6669 355.9052,-186.7388 352.429,-180.6629"/>
</g>
<!-- GO:0015385 -->
<g id="node28" class="node">
<title>GO:0015385</title>
<polygon fill="#ffffff" stroke="#000000" points="832.8067,-58.6014 677.6261,-58.6014 677.6261,.2014 832.8067,.2014 832.8067,-58.6014"/>
<text text-anchor="middle" x="755.2164" y="-41.8" font-family="Times,serif" font-size="14.00" fill="#000000">GO:0015385</text>
<text text-anchor="middle" x="755.2164" y="-25" font-family="Times,serif" font-size="14.00" fill="#000000">sodium:proton antiporter</text>
<text text-anchor="middle" x="755.2164" y="-8.2" font-family="Times,serif" font-size="14.00" fill="#000000">activity</text>
</g>
<!-- GO:0015385&#45;&gt;GO:0005451 -->
<g id="edge41" class="edge">
<title>GO:0015385&#45;&gt;GO:0005451</title>
<path fill="none" stroke="#000000" d="M677.3391,-41.9993C587.3823,-56.9935 444.991,-81.4306 392.2164,-94.4 391.2997,-94.6253 390.3788,-94.8546 389.4543,-95.0877"/>
<polygon fill="#000000" stroke="#000000" points="388.2236,-91.7921 379.4398,-97.7162 390.0008,-98.5627 388.2236,-91.7921"/>
</g>
<!-- GO:0015081 -->
<g id="node29" class="node">
<title>GO:0015081</title>
<polygon fill="#ffffff" stroke="#000000" points="912.6293,-350.2014 743.8035,-350.2014 743.8035,-291.3986 912.6293,-291.3986 912.6293,-350.2014"/>
<text text-anchor="middle" x="828.2164" y="-333.4" font-family="Times,serif" font-size="14.00" fill="#000000">GO:0015081</text>
<text text-anchor="middle" x="828.2164" y="-316.6" font-family="Times,serif" font-size="14.00" fill="#000000">sodium ion transmembrane</text>
<text text-anchor="middle" x="828.2164" y="-299.8" font-family="Times,serif" font-size="14.00" fill="#000000">transporter activity</text>
</g>
<!-- GO:0015385&#45;&gt;GO:0015081 -->
<g id="edge42" class="edge">
<title>GO:0015385&#45;&gt;GO:0015081</title>
<path fill="none" stroke="#000000" d="M762.5502,-58.4948C775.7773,-111.3308 803.6277,-222.5799 818.451,-281.792"/>
<polygon fill="#000000" stroke="#000000" points="815.0637,-282.674 820.8875,-291.5246 821.8542,-280.974 815.0637,-282.674"/>
</g>
<!-- GO:0015081&#45;&gt;GO:0046873 -->
<g id="edge44" class="edge">
<title>GO:0015081&#45;&gt;GO:0046873</title>
<path fill="none" stroke="#000000" d="M828.2164,-350.0165C828.2164,-362.9386 828.2164,-378.3358 828.2164,-392.2788"/>
<polygon fill="#000000" stroke="#000000" points="824.7165,-392.5925 828.2164,-402.5926 831.7165,-392.5926 824.7165,-392.5925"/>
</g>
<!-- GO:0015081&#45;&gt;GO:0015077 -->
<g id="edge43" class="edge">
<title>GO:0015081&#45;&gt;GO:0015077</title>
<path fill="none" stroke="#000000" d="M781.9745,-350.0165C763.1709,-361.8969 741.056,-375.8695 720.4628,-388.8807"/>
<polygon fill="#000000" stroke="#000000" points="718.3289,-386.0888 711.7444,-394.3891 722.0679,-392.0066 718.3289,-386.0888"/>
</g>
</g>
</svg>
