<?xml version="1.0" encoding="UTF-8" standalone="no"?>
<!DOCTYPE svg PUBLIC "-//W3C//DTD SVG 1.1//EN"
 "http://www.w3.org/Graphics/SVG/1.1/DTD/svg11.dtd">
<!-- Generated by graphviz version 2.40.1 (20161225.0304)
 -->
<!-- Title: G Pages: 1 -->
<svg width="826pt" height="488pt"
 viewBox="0.00 0.00 825.94 488.00" xmlns="http://www.w3.org/2000/svg" xmlns:xlink="http://www.w3.org/1999/xlink">
<g id="graph0" class="graph" transform="scale(1 1) rotate(0) translate(4 484)">
<title>G</title>
<polygon fill="#ffffff" stroke="transparent" points="-4,4 -4,-484 821.9366,-484 821.9366,4 -4,4"/>
<!-- GO:0005739 -->
<g id="node1" class="node">
<title>GO:0005739</title>
<polygon fill="#ffffff" stroke="#000000" points="267.419,-49.8019 168.5418,-49.8019 168.5418,-8.5981 267.419,-8.5981 267.419,-49.8019"/>
<text text-anchor="middle" x="217.9804" y="-33.4" font-family="Times,serif" font-size="14.00" fill="#000000">GO:0005739</text>
<text text-anchor="middle" x="217.9804" y="-16.6" font-family="Times,serif" font-size="14.00" fill="#000000">mitochondrion</text>
</g>
<!-- GO:0044444 -->
<g id="node2" class="node">
<title>GO:0044444</title>
<polygon fill="#ffffff" stroke="#000000" points="412.397,-238.6019 303.5638,-238.6019 303.5638,-197.3981 412.397,-197.3981 412.397,-238.6019"/>
<text text-anchor="middle" x="357.9804" y="-222.2" font-family="Times,serif" font-size="14.00" fill="#000000">GO:0044444</text>
<text text-anchor="middle" x="357.9804" y="-205.4" font-family="Times,serif" font-size="14.00" fill="#000000">cytoplasmic part</text>
</g>
<!-- GO:0005739&#45;&gt;GO:0044444 -->
<g id="edge1" class="edge">
<title>GO:0005739&#45;&gt;GO:0044444</title>
<path fill="none" stroke="#000000" d="M251.4161,-49.9557C267.9436,-61.4832 287.2376,-77.0006 300.9804,-94.4 323.3187,-122.6819 339.2716,-161.1351 348.5188,-187.6019"/>
<polygon fill="#000000" stroke="#000000" points="345.2156,-188.7601 351.7339,-197.1125 351.847,-186.5183 345.2156,-188.7601"/>
</g>
<!-- GO:0043231 -->
<g id="node3" class="node">
<title>GO:0043231</title>
<polygon fill="#ffffff" stroke="#000000" points="292.3592,-153.0014 141.6016,-153.0014 141.6016,-94.1986 292.3592,-94.1986 292.3592,-153.0014"/>
<text text-anchor="middle" x="216.9804" y="-136.2" font-family="Times,serif" font-size="14.00" fill="#000000">GO:0043231</text>
<text text-anchor="middle" x="216.9804" y="-119.4" font-family="Times,serif" font-size="14.00" fill="#000000">intracellular membrane&#45;</text>
<text text-anchor="middle" x="216.9804" y="-102.6" font-family="Times,serif" font-size="14.00" fill="#000000">bounded organelle</text>
</g>
<!-- GO:0005739&#45;&gt;GO:0043231 -->
<g id="edge2" class="edge">
<title>GO:0005739&#45;&gt;GO:0043231</title>
<path fill="none" stroke="#000000" d="M217.7585,-50.1504C217.6525,-60.1492 217.5222,-72.4525 217.3987,-84.1106"/>
<polygon fill="#000000" stroke="#000000" points="213.899,-84.079 217.2927,-94.1155 220.8986,-84.1532 213.899,-84.079"/>
</g>
<!-- GO:0044424 -->
<g id="node4" class="node">
<title>GO:0044424</title>
<polygon fill="#ffffff" stroke="#000000" points="423.3788,-324.6019 314.582,-324.6019 314.582,-283.3981 423.3788,-283.3981 423.3788,-324.6019"/>
<text text-anchor="middle" x="368.9804" y="-308.2" font-family="Times,serif" font-size="14.00" fill="#000000">GO:0044424</text>
<text text-anchor="middle" x="368.9804" y="-291.4" font-family="Times,serif" font-size="14.00" fill="#000000">intracellular part</text>
</g>
<!-- GO:0044444&#45;&gt;GO:0044424 -->
<g id="edge3" class="edge">
<title>GO:0044444&#45;&gt;GO:0044424</title>
<path fill="none" stroke="#000000" d="M360.6432,-238.8182C361.9673,-249.1705 363.5936,-261.8848 365.0571,-273.3271"/>
<polygon fill="#000000" stroke="#000000" points="361.6016,-273.8984 366.3421,-283.3735 368.545,-273.0102 361.6016,-273.8984"/>
</g>
<!-- GO:0043229 -->
<g id="node5" class="node">
<title>GO:0043229</title>
<polygon fill="#ffffff" stroke="#000000" points="285.6988,-238.6019 146.262,-238.6019 146.262,-197.3981 285.6988,-197.3981 285.6988,-238.6019"/>
<text text-anchor="middle" x="215.9804" y="-222.2" font-family="Times,serif" font-size="14.00" fill="#000000">GO:0043229</text>
<text text-anchor="middle" x="215.9804" y="-205.4" font-family="Times,serif" font-size="14.00" fill="#000000">intracellular organelle</text>
</g>
<!-- GO:0043231&#45;&gt;GO:0043229 -->
<g id="edge4" class="edge">
<title>GO:0043231&#45;&gt;GO:0043229</title>
<path fill="none" stroke="#000000" d="M216.6695,-152.9513C216.5539,-163.8614 216.4225,-176.2637 216.3057,-187.292"/>
<polygon fill="#000000" stroke="#000000" points="212.8054,-187.3144 216.1991,-197.351 219.805,-187.3887 212.8054,-187.3144"/>
</g>
<!-- GO:0043227 -->
<g id="node6" class="node">
<title>GO:0043227</title>
<polygon fill="#ffffff" stroke="#000000" points="127.9412,-247.4014 .0196,-247.4014 .0196,-188.5986 127.9412,-188.5986 127.9412,-247.4014"/>
<text text-anchor="middle" x="63.9804" y="-230.6" font-family="Times,serif" font-size="14.00" fill="#000000">GO:0043227</text>
<text text-anchor="middle" x="63.9804" y="-213.8" font-family="Times,serif" font-size="14.00" fill="#000000">membrane&#45;bounded</text>
<text text-anchor="middle" x="63.9804" y="-197" font-family="Times,serif" font-size="14.00" fill="#000000">organelle</text>
</g>
<!-- GO:0043231&#45;&gt;GO:0043227 -->
<g id="edge5" class="edge">
<title>GO:0043231&#45;&gt;GO:0043227</title>
<path fill="none" stroke="#000000" d="M169.4089,-152.9513C153.8657,-162.5413 136.4541,-173.2842 120.3286,-183.2335"/>
<polygon fill="#000000" stroke="#000000" points="118.1951,-180.4372 111.5225,-188.6669 121.8708,-186.3946 118.1951,-180.4372"/>
</g>
<!-- GO:0044464 -->
<g id="node7" class="node">
<title>GO:0044464</title>
<polygon fill="#ffffff" stroke="#000000" points="447.5843,-402.2019 358.3765,-402.2019 358.3765,-360.9981 447.5843,-360.9981 447.5843,-402.2019"/>
<text text-anchor="middle" x="402.9804" y="-385.8" font-family="Times,serif" font-size="14.00" fill="#000000">GO:0044464</text>
<text text-anchor="middle" x="402.9804" y="-369" font-family="Times,serif" font-size="14.00" fill="#000000">cell part</text>
</g>
<!-- GO:0044424&#45;&gt;GO:0044464 -->
<g id="edge6" class="edge">
<title>GO:0044424&#45;&gt;GO:0044464</title>
<path fill="none" stroke="#000000" d="M378.0918,-324.7954C381.6742,-332.9718 385.8572,-342.5189 389.7603,-351.427"/>
<polygon fill="#000000" stroke="#000000" points="386.6249,-352.9924 393.8439,-360.7472 393.0365,-350.1832 386.6249,-352.9924"/>
</g>
<!-- GO:0043229&#45;&gt;GO:0044424 -->
<g id="edge7" class="edge">
<title>GO:0043229&#45;&gt;GO:0044424</title>
<path fill="none" stroke="#000000" d="M253.0174,-238.8182C274.1599,-250.7022 300.8402,-265.699 323.2775,-278.3108"/>
<polygon fill="#000000" stroke="#000000" points="321.8522,-281.5246 332.2844,-283.3735 325.2821,-275.4225 321.8522,-281.5246"/>
</g>
<!-- GO:0043226 -->
<g id="node8" class="node">
<title>GO:0043226</title>
<polygon fill="#ffffff" stroke="#000000" points="260.5843,-324.6019 171.3765,-324.6019 171.3765,-283.3981 260.5843,-283.3981 260.5843,-324.6019"/>
<text text-anchor="middle" x="215.9804" y="-308.2" font-family="Times,serif" font-size="14.00" fill="#000000">GO:0043226</text>
<text text-anchor="middle" x="215.9804" y="-291.4" font-family="Times,serif" font-size="14.00" fill="#000000">organelle</text>
</g>
<!-- GO:0043229&#45;&gt;GO:0043226 -->
<g id="edge8" class="edge">
<title>GO:0043229&#45;&gt;GO:0043226</title>
<path fill="none" stroke="#000000" d="M215.9804,-238.8182C215.9804,-249.1705 215.9804,-261.8848 215.9804,-273.3271"/>
<polygon fill="#000000" stroke="#000000" points="212.4805,-273.3735 215.9804,-283.3735 219.4805,-273.3735 212.4805,-273.3735"/>
</g>
<!-- GO:0043227&#45;&gt;GO:0043226 -->
<g id="edge9" class="edge">
<title>GO:0043227&#45;&gt;GO:0043226</title>
<path fill="none" stroke="#000000" d="M115.865,-247.3558C133.5883,-257.3834 153.2634,-268.5154 170.448,-278.2383"/>
<polygon fill="#000000" stroke="#000000" points="168.7569,-281.3028 179.1839,-283.1809 172.204,-275.2103 168.7569,-281.3028"/>
</g>
<!-- GO:0005575 -->
<g id="node9" class="node">
<title>GO:0005575</title>
<polygon fill="#ffffff" stroke="#000000" points="585.6671,-479.8019 458.2937,-479.8019 458.2937,-438.5981 585.6671,-438.5981 585.6671,-479.8019"/>
<text text-anchor="middle" x="521.9804" y="-463.4" font-family="Times,serif" font-size="14.00" fill="#000000">GO:0005575</text>
<text text-anchor="middle" x="521.9804" y="-446.6" font-family="Times,serif" font-size="14.00" fill="#000000">cellular_component</text>
</g>
<!-- GO:0044464&#45;&gt;GO:0005575 -->
<g id="edge10" class="edge">
<title>GO:0044464&#45;&gt;GO:0005575</title>
<path fill="none" stroke="#000000" d="M434.8702,-402.3954C449.1429,-411.7026 466.139,-422.7858 481.3132,-432.6809"/>
<polygon fill="#000000" stroke="#000000" points="479.7144,-435.8167 490.0026,-438.3472 483.538,-429.9532 479.7144,-435.8167"/>
</g>
<!-- GO:0043226&#45;&gt;GO:0005575 -->
<g id="edge11" class="edge">
<title>GO:0043226&#45;&gt;GO:0005575</title>
<path fill="none" stroke="#000000" d="M238.9525,-324.61C264.321,-346.4692 307.1353,-380.7688 348.9804,-402.4 380.283,-418.5814 417.1256,-431.4402 448.749,-440.802"/>
<polygon fill="#000000" stroke="#000000" points="447.8045,-444.1723 458.3836,-443.595 449.7535,-437.4491 447.8045,-444.1723"/>
</g>
<!-- GO:0005783 -->
<g id="node10" class="node">
<title>GO:0005783</title>
<polygon fill="#ffffff" stroke="#000000" points="428.8928,-49.8019 285.068,-49.8019 285.068,-8.5981 428.8928,-8.5981 428.8928,-49.8019"/>
<text text-anchor="middle" x="356.9804" y="-33.4" font-family="Times,serif" font-size="14.00" fill="#000000">GO:0005783</text>
<text text-anchor="middle" x="356.9804" y="-16.6" font-family="Times,serif" font-size="14.00" fill="#000000">endoplasmic reticulum</text>
</g>
<!-- GO:0005783&#45;&gt;GO:0044444 -->
<g id="edge12" class="edge">
<title>GO:0005783&#45;&gt;GO:0044444</title>
<path fill="none" stroke="#000000" d="M357.0912,-50.1263C357.2674,-83.3865 357.6122,-148.4928 357.8169,-187.1227"/>
<polygon fill="#000000" stroke="#000000" points="354.3176,-187.2865 357.8706,-197.2677 361.3175,-187.2493 354.3176,-187.2865"/>
</g>
<!-- GO:0005783&#45;&gt;GO:0043231 -->
<g id="edge13" class="edge">
<title>GO:0005783&#45;&gt;GO:0043231</title>
<path fill="none" stroke="#000000" d="M326.2568,-49.9165C309.4292,-61.2631 288.1243,-75.6287 268.8041,-88.656"/>
<polygon fill="#000000" stroke="#000000" points="266.7128,-85.8448 260.3783,-94.3374 270.6263,-91.6487 266.7128,-85.8448"/>
</g>
<!-- GO:0031090 -->
<g id="node11" class="node">
<title>GO:0031090</title>
<polygon fill="#ffffff" stroke="#000000" points="718.152,-238.6019 587.8088,-238.6019 587.8088,-197.3981 718.152,-197.3981 718.152,-238.6019"/>
<text text-anchor="middle" x="652.9804" y="-222.2" font-family="Times,serif" font-size="14.00" fill="#000000">GO:0031090</text>
<text text-anchor="middle" x="652.9804" y="-205.4" font-family="Times,serif" font-size="14.00" fill="#000000">organelle membrane</text>
</g>
<!-- GO:0016020 -->
<g id="node12" class="node">
<title>GO:0016020</title>
<polygon fill="#ffffff" stroke="#000000" points="697.5843,-324.6019 608.3765,-324.6019 608.3765,-283.3981 697.5843,-283.3981 697.5843,-324.6019"/>
<text text-anchor="middle" x="652.9804" y="-308.2" font-family="Times,serif" font-size="14.00" fill="#000000">GO:0016020</text>
<text text-anchor="middle" x="652.9804" y="-291.4" font-family="Times,serif" font-size="14.00" fill="#000000">membrane</text>
</g>
<!-- GO:0031090&#45;&gt;GO:0016020 -->
<g id="edge14" class="edge">
<title>GO:0031090&#45;&gt;GO:0016020</title>
<path fill="none" stroke="#000000" d="M652.9804,-238.8182C652.9804,-249.1705 652.9804,-261.8848 652.9804,-273.3271"/>
<polygon fill="#000000" stroke="#000000" points="649.4805,-273.3735 652.9804,-283.3735 656.4805,-273.3735 649.4805,-273.3735"/>
</g>
<!-- GO:0044422 -->
<g id="node13" class="node">
<title>GO:0044422</title>
<polygon fill="#ffffff" stroke="#000000" points="568.8325,-324.6019 475.1283,-324.6019 475.1283,-283.3981 568.8325,-283.3981 568.8325,-324.6019"/>
<text text-anchor="middle" x="521.9804" y="-308.2" font-family="Times,serif" font-size="14.00" fill="#000000">GO:0044422</text>
<text text-anchor="middle" x="521.9804" y="-291.4" font-family="Times,serif" font-size="14.00" fill="#000000">organelle part</text>
</g>
<!-- GO:0031090&#45;&gt;GO:0044422 -->
<g id="edge15" class="edge">
<title>GO:0031090&#45;&gt;GO:0044422</title>
<path fill="none" stroke="#000000" d="M621.269,-238.8182C603.408,-250.5437 580.931,-265.2996 561.882,-277.8051"/>
<polygon fill="#000000" stroke="#000000" points="559.8386,-274.9597 553.3998,-283.3735 563.6802,-280.8114 559.8386,-274.9597"/>
</g>
<!-- GO:0016020&#45;&gt;GO:0005575 -->
<g id="edge16" class="edge">
<title>GO:0016020&#45;&gt;GO:0005575</title>
<path fill="none" stroke="#000000" d="M635.5846,-324.6094C612.5844,-351.8585 571.9473,-400.0025 546.0226,-430.7164"/>
<polygon fill="#000000" stroke="#000000" points="543.2237,-428.6061 539.4481,-438.5054 548.5729,-433.1212 543.2237,-428.6061"/>
</g>
<!-- GO:0044422&#45;&gt;GO:0005575 -->
<g id="edge17" class="edge">
<title>GO:0044422&#45;&gt;GO:0005575</title>
<path fill="none" stroke="#000000" d="M521.9804,-324.6094C521.9804,-351.1627 521.9804,-397.5577 521.9804,-428.3304"/>
<polygon fill="#000000" stroke="#000000" points="518.4805,-428.5054 521.9804,-438.5054 525.4805,-428.5054 518.4805,-428.5054"/>
</g>
<!-- GO:0005789 -->
<g id="node14" class="node">
<title>GO:0005789</title>
<polygon fill="#ffffff" stroke="#000000" points="817.8928,-58.6014 674.068,-58.6014 674.068,.2014 817.8928,.2014 817.8928,-58.6014"/>
<text text-anchor="middle" x="745.9804" y="-41.8" font-family="Times,serif" font-size="14.00" fill="#000000">GO:0005789</text>
<text text-anchor="middle" x="745.9804" y="-25" font-family="Times,serif" font-size="14.00" fill="#000000">endoplasmic reticulum</text>
<text text-anchor="middle" x="745.9804" y="-8.2" font-family="Times,serif" font-size="14.00" fill="#000000">membrane</text>
</g>
<!-- GO:0005789&#45;&gt;GO:0016020 -->
<g id="edge19" class="edge">
<title>GO:0005789&#45;&gt;GO:0016020</title>
<path fill="none" stroke="#000000" d="M750.5123,-58.4803C755.8259,-102.4302 760.1315,-186.739 726.9804,-247.2 720.5274,-258.969 710.4972,-269.0707 699.8821,-277.3513"/>
<polygon fill="#000000" stroke="#000000" points="697.7122,-274.602 691.7003,-283.3259 701.8403,-280.2551 697.7122,-274.602"/>
</g>
<!-- GO:0044425 -->
<g id="node15" class="node">
<title>GO:0044425</title>
<polygon fill="#ffffff" stroke="#000000" points="800.3324,-402.2019 699.6284,-402.2019 699.6284,-360.9981 800.3324,-360.9981 800.3324,-402.2019"/>
<text text-anchor="middle" x="749.9804" y="-385.8" font-family="Times,serif" font-size="14.00" fill="#000000">GO:0044425</text>
<text text-anchor="middle" x="749.9804" y="-369" font-family="Times,serif" font-size="14.00" fill="#000000">membrane part</text>
</g>
<!-- GO:0005789&#45;&gt;GO:0044425 -->
<g id="edge18" class="edge">
<title>GO:0005789&#45;&gt;GO:0044425</title>
<path fill="none" stroke="#000000" d="M758.1428,-58.5421C762.1129,-69.5824 766.0064,-82.3756 767.9804,-94.4 783.1613,-186.8738 766.4315,-298.0251 756.4041,-350.8354"/>
<polygon fill="#000000" stroke="#000000" points="752.9213,-350.4089 754.4396,-360.8943 759.7915,-351.7506 752.9213,-350.4089"/>
</g>
<!-- GO:0044432 -->
<g id="node16" class="node">
<title>GO:0044432</title>
<polygon fill="#ffffff" stroke="#000000" points="571.8928,-153.0014 428.068,-153.0014 428.068,-94.1986 571.8928,-94.1986 571.8928,-153.0014"/>
<text text-anchor="middle" x="499.9804" y="-136.2" font-family="Times,serif" font-size="14.00" fill="#000000">GO:0044432</text>
<text text-anchor="middle" x="499.9804" y="-119.4" font-family="Times,serif" font-size="14.00" fill="#000000">endoplasmic reticulum</text>
<text text-anchor="middle" x="499.9804" y="-102.6" font-family="Times,serif" font-size="14.00" fill="#000000">part</text>
</g>
<!-- GO:0005789&#45;&gt;GO:0044432 -->
<g id="edge20" class="edge">
<title>GO:0005789&#45;&gt;GO:0044432</title>
<path fill="none" stroke="#000000" d="M673.8345,-56.8853C644.9228,-67.9798 611.4615,-80.8203 581.6614,-92.2558"/>
<polygon fill="#000000" stroke="#000000" points="580.2073,-89.0648 572.125,-95.9152 582.7152,-95.6002 580.2073,-89.0648"/>
</g>
<!-- GO:0044425&#45;&gt;GO:0005575 -->
<g id="edge21" class="edge">
<title>GO:0044425&#45;&gt;GO:0005575</title>
<path fill="none" stroke="#000000" d="M699.6626,-398.7257C668.1368,-409.4555 627.0443,-423.4414 592.3188,-435.2603"/>
<polygon fill="#000000" stroke="#000000" points="591.0455,-431.9964 582.7065,-438.5318 593.3009,-438.6231 591.0455,-431.9964"/>
</g>
<!-- GO:0044432&#45;&gt;GO:0044444 -->
<g id="edge23" class="edge">
<title>GO:0044432&#45;&gt;GO:0044444</title>
<path fill="none" stroke="#000000" d="M455.8291,-152.9513C437.2182,-165.3236 415.7209,-179.6148 397.6244,-191.6451"/>
<polygon fill="#000000" stroke="#000000" points="395.4315,-188.9001 389.0414,-197.351 399.3068,-194.7295 395.4315,-188.9001"/>
</g>
<!-- GO:0044446 -->
<g id="node17" class="node">
<title>GO:0044446</title>
<polygon fill="#ffffff" stroke="#000000" points="569.6988,-247.4014 430.262,-247.4014 430.262,-188.5986 569.6988,-188.5986 569.6988,-247.4014"/>
<text text-anchor="middle" x="499.9804" y="-230.6" font-family="Times,serif" font-size="14.00" fill="#000000">GO:0044446</text>
<text text-anchor="middle" x="499.9804" y="-213.8" font-family="Times,serif" font-size="14.00" fill="#000000">intracellular organelle</text>
<text text-anchor="middle" x="499.9804" y="-197" font-family="Times,serif" font-size="14.00" fill="#000000">part</text>
</g>
<!-- GO:0044432&#45;&gt;GO:0044446 -->
<g id="edge22" class="edge">
<title>GO:0044432&#45;&gt;GO:0044446</title>
<path fill="none" stroke="#000000" d="M499.9804,-152.9513C499.9804,-161.0318 499.9804,-169.9308 499.9804,-178.4838"/>
<polygon fill="#000000" stroke="#000000" points="496.4805,-178.6668 499.9804,-188.6669 503.4805,-178.6669 496.4805,-178.6668"/>
</g>
<!-- GO:0044446&#45;&gt;GO:0044424 -->
<g id="edge24" class="edge">
<title>GO:0044446&#45;&gt;GO:0044424</title>
<path fill="none" stroke="#000000" d="M455.264,-247.3558C440.4098,-257.1074 423.9647,-267.9035 409.4498,-277.4323"/>
<polygon fill="#000000" stroke="#000000" points="407.1319,-274.7671 400.6932,-283.1809 410.9735,-280.6188 407.1319,-274.7671"/>
</g>
<!-- GO:0044446&#45;&gt;GO:0044422 -->
<g id="edge25" class="edge">
<title>GO:0044446&#45;&gt;GO:0044422</title>
<path fill="none" stroke="#000000" d="M507.5516,-247.5963C509.69,-255.9556 512.0205,-265.0658 514.1726,-273.4784"/>
<polygon fill="#000000" stroke="#000000" points="510.815,-274.476 516.6842,-283.2966 517.5966,-272.7411 510.815,-274.476"/>
</g>
</g>
</svg>
