<?xml version="1.0" encoding="UTF-8" standalone="no"?>
<!DOCTYPE svg PUBLIC "-//W3C//DTD SVG 1.1//EN"
 "http://www.w3.org/Graphics/SVG/1.1/DTD/svg11.dtd">
<!-- Generated by graphviz version 2.40.1 (20161225.0304)
 -->
<!-- Title: G Pages: 1 -->
<svg width="246pt" height="427pt"
 viewBox="0.00 0.00 246.07 427.20" xmlns="http://www.w3.org/2000/svg" xmlns:xlink="http://www.w3.org/1999/xlink">
<g id="graph0" class="graph" transform="scale(1 1) rotate(0) translate(4 423.2)">
<title>G</title>
<polygon fill="#ffffff" stroke="transparent" points="-4,4 -4,-423.2 242.0702,-423.2 242.0702,4 -4,4"/>
<!-- GO:0006796 -->
<g id="node1" class="node">
<title>GO:0006796</title>
<polygon fill="#ffffff" stroke="#000000" points="183.7544,-75.3003 47.7008,-75.3003 47.7008,.1003 183.7544,.1003 183.7544,-75.3003"/>
<text text-anchor="middle" x="115.7276" y="-58.6" font-family="Times,serif" font-size="14.00" fill="#000000">GO:0006796</text>
<text text-anchor="middle" x="115.7276" y="-41.8" font-family="Times,serif" font-size="14.00" fill="#000000">phosphate&#45;containing</text>
<text text-anchor="middle" x="115.7276" y="-25" font-family="Times,serif" font-size="14.00" fill="#000000">compound metabolic</text>
<text text-anchor="middle" x="115.7276" y="-8.2" font-family="Times,serif" font-size="14.00" fill="#000000">process</text>
</g>
<!-- GO:0006793 -->
<g id="node2" class="node">
<title>GO:0006793</title>
<polygon fill="#ffffff" stroke="#000000" points="185.4838,-169.8014 45.9714,-169.8014 45.9714,-110.9986 185.4838,-110.9986 185.4838,-169.8014"/>
<text text-anchor="middle" x="115.7276" y="-153" font-family="Times,serif" font-size="14.00" fill="#000000">GO:0006793</text>
<text text-anchor="middle" x="115.7276" y="-136.2" font-family="Times,serif" font-size="14.00" fill="#000000">phosphorus metabolic</text>
<text text-anchor="middle" x="115.7276" y="-119.4" font-family="Times,serif" font-size="14.00" fill="#000000">process</text>
</g>
<!-- GO:0006796&#45;&gt;GO:0006793 -->
<g id="edge1" class="edge">
<title>GO:0006796&#45;&gt;GO:0006793</title>
<path fill="none" stroke="#000000" d="M115.7276,-75.2952C115.7276,-83.6874 115.7276,-92.6054 115.7276,-101.0618"/>
<polygon fill="#000000" stroke="#000000" points="112.2277,-101.0813 115.7276,-111.0814 119.2277,-101.0814 112.2277,-101.0813"/>
</g>
<!-- GO:0044237 -->
<g id="node3" class="node">
<title>GO:0044237</title>
<polygon fill="#ffffff" stroke="#000000" points="173.9104,-264.2014 57.5448,-264.2014 57.5448,-205.3986 173.9104,-205.3986 173.9104,-264.2014"/>
<text text-anchor="middle" x="115.7276" y="-247.4" font-family="Times,serif" font-size="14.00" fill="#000000">GO:0044237</text>
<text text-anchor="middle" x="115.7276" y="-230.6" font-family="Times,serif" font-size="14.00" fill="#000000">cellular metabolic</text>
<text text-anchor="middle" x="115.7276" y="-213.8" font-family="Times,serif" font-size="14.00" fill="#000000">process</text>
</g>
<!-- GO:0006793&#45;&gt;GO:0044237 -->
<g id="edge2" class="edge">
<title>GO:0006793&#45;&gt;GO:0044237</title>
<path fill="none" stroke="#000000" d="M115.7276,-169.7513C115.7276,-177.8318 115.7276,-186.7308 115.7276,-195.2838"/>
<polygon fill="#000000" stroke="#000000" points="112.2277,-195.4668 115.7276,-205.4669 119.2277,-195.4669 112.2277,-195.4668"/>
</g>
<!-- GO:0009987 -->
<g id="node4" class="node">
<title>GO:0009987</title>
<polygon fill="#ffffff" stroke="#000000" points="103.6838,-341.4019 -.2286,-341.4019 -.2286,-300.1981 103.6838,-300.1981 103.6838,-341.4019"/>
<text text-anchor="middle" x="51.7276" y="-325" font-family="Times,serif" font-size="14.00" fill="#000000">GO:0009987</text>
<text text-anchor="middle" x="51.7276" y="-308.2" font-family="Times,serif" font-size="14.00" fill="#000000">cellular process</text>
</g>
<!-- GO:0044237&#45;&gt;GO:0009987 -->
<g id="edge3" class="edge">
<title>GO:0044237&#45;&gt;GO:0009987</title>
<path fill="none" stroke="#000000" d="M93.7024,-264.3963C87.0714,-273.3068 79.8054,-283.0705 73.2101,-291.9329"/>
<polygon fill="#000000" stroke="#000000" points="70.2971,-289.9846 67.1348,-300.0966 75.9128,-294.1638 70.2971,-289.9846"/>
</g>
<!-- GO:0008152 -->
<g id="node5" class="node">
<title>GO:0008152</title>
<polygon fill="#ffffff" stroke="#000000" points="237.9132,-341.4019 121.542,-341.4019 121.542,-300.1981 237.9132,-300.1981 237.9132,-341.4019"/>
<text text-anchor="middle" x="179.7276" y="-325" font-family="Times,serif" font-size="14.00" fill="#000000">GO:0008152</text>
<text text-anchor="middle" x="179.7276" y="-308.2" font-family="Times,serif" font-size="14.00" fill="#000000">metabolic process</text>
</g>
<!-- GO:0044237&#45;&gt;GO:0008152 -->
<g id="edge4" class="edge">
<title>GO:0044237&#45;&gt;GO:0008152</title>
<path fill="none" stroke="#000000" d="M137.7528,-264.3963C144.3838,-273.3068 151.6498,-283.0705 158.2451,-291.9329"/>
<polygon fill="#000000" stroke="#000000" points="155.5424,-294.1638 164.3204,-300.0966 161.1581,-289.9846 155.5424,-294.1638"/>
</g>
<!-- GO:0008150 -->
<g id="node6" class="node">
<title>GO:0008150</title>
<polygon fill="#ffffff" stroke="#000000" points="176.1982,-419.0019 55.257,-419.0019 55.257,-377.7981 176.1982,-377.7981 176.1982,-419.0019"/>
<text text-anchor="middle" x="115.7276" y="-402.6" font-family="Times,serif" font-size="14.00" fill="#000000">GO:0008150</text>
<text text-anchor="middle" x="115.7276" y="-385.8" font-family="Times,serif" font-size="14.00" fill="#000000">biological_process</text>
</g>
<!-- GO:0009987&#45;&gt;GO:0008150 -->
<g id="edge5" class="edge">
<title>GO:0009987&#45;&gt;GO:0008150</title>
<path fill="none" stroke="#000000" d="M68.8784,-341.5954C75.9806,-350.2067 84.3366,-360.3384 92.0103,-369.6427"/>
<polygon fill="#000000" stroke="#000000" points="89.4666,-372.0594 98.5294,-377.5472 94.8669,-367.6056 89.4666,-372.0594"/>
</g>
<!-- GO:0008152&#45;&gt;GO:0008150 -->
<g id="edge6" class="edge">
<title>GO:0008152&#45;&gt;GO:0008150</title>
<path fill="none" stroke="#000000" d="M162.5768,-341.5954C155.4746,-350.2067 147.1186,-360.3384 139.4449,-369.6427"/>
<polygon fill="#000000" stroke="#000000" points="136.5883,-367.6056 132.9258,-377.5472 141.9886,-372.0594 136.5883,-367.6056"/>
</g>
</g>
</svg>
