<?xml version="1.0" encoding="UTF-8" standalone="no"?>
<!DOCTYPE svg PUBLIC "-//W3C//DTD SVG 1.1//EN"
 "http://www.w3.org/Graphics/SVG/1.1/DTD/svg11.dtd">
<!-- Generated by graphviz version 2.40.1 (20161225.0304)
 -->
<!-- Title: G Pages: 1 -->
<svg width="780pt" height="566pt"
 viewBox="0.00 0.00 780.45 565.60" xmlns="http://www.w3.org/2000/svg" xmlns:xlink="http://www.w3.org/1999/xlink">
<g id="graph0" class="graph" transform="scale(1 1) rotate(0) translate(4 561.6)">
<title>G</title>
<polygon fill="#ffffff" stroke="transparent" points="-4,4 -4,-561.6 776.4489,-561.6 776.4489,4 -4,4"/>
<!-- GO:0005739 -->
<g id="node1" class="node">
<title>GO:0005739</title>
<polygon fill="#ffffff" stroke="#000000" points="327.419,-135.8019 228.5418,-135.8019 228.5418,-94.5981 327.419,-94.5981 327.419,-135.8019"/>
<text text-anchor="middle" x="277.9804" y="-119.4" font-family="Times,serif" font-size="14.00" fill="#000000">GO:0005739</text>
<text text-anchor="middle" x="277.9804" y="-102.6" font-family="Times,serif" font-size="14.00" fill="#000000">mitochondrion</text>
</g>
<!-- GO:0044444 -->
<g id="node2" class="node">
<title>GO:0044444</title>
<polygon fill="#ffffff" stroke="#000000" points="412.397,-316.2019 303.5638,-316.2019 303.5638,-274.9981 412.397,-274.9981 412.397,-316.2019"/>
<text text-anchor="middle" x="357.9804" y="-299.8" font-family="Times,serif" font-size="14.00" fill="#000000">GO:0044444</text>
<text text-anchor="middle" x="357.9804" y="-283" font-family="Times,serif" font-size="14.00" fill="#000000">cytoplasmic part</text>
</g>
<!-- GO:0005739&#45;&gt;GO:0044444 -->
<g id="edge1" class="edge">
<title>GO:0005739&#45;&gt;GO:0044444</title>
<path fill="none" stroke="#000000" d="M287.1574,-135.8942C301.2856,-167.7532 328.4308,-228.9657 344.7028,-265.659"/>
<polygon fill="#000000" stroke="#000000" points="341.5341,-267.1475 348.7875,-274.8701 347.9331,-264.3097 341.5341,-267.1475"/>
</g>
<!-- GO:0043231 -->
<g id="node3" class="node">
<title>GO:0043231</title>
<polygon fill="#ffffff" stroke="#000000" points="291.3592,-230.6014 140.6016,-230.6014 140.6016,-171.7986 291.3592,-171.7986 291.3592,-230.6014"/>
<text text-anchor="middle" x="215.9804" y="-213.8" font-family="Times,serif" font-size="14.00" fill="#000000">GO:0043231</text>
<text text-anchor="middle" x="215.9804" y="-197" font-family="Times,serif" font-size="14.00" fill="#000000">intracellular membrane&#45;</text>
<text text-anchor="middle" x="215.9804" y="-180.2" font-family="Times,serif" font-size="14.00" fill="#000000">bounded organelle</text>
</g>
<!-- GO:0005739&#45;&gt;GO:0043231 -->
<g id="edge2" class="edge">
<title>GO:0005739&#45;&gt;GO:0043231</title>
<path fill="none" stroke="#000000" d="M262.9719,-136.0182C256.9847,-144.323 249.9016,-154.148 243.0752,-163.6168"/>
<polygon fill="#000000" stroke="#000000" points="240.1853,-161.6405 237.1764,-171.7991 245.8635,-165.7342 240.1853,-161.6405"/>
</g>
<!-- GO:0044424 -->
<g id="node4" class="node">
<title>GO:0044424</title>
<polygon fill="#ffffff" stroke="#000000" points="464.3788,-402.2019 355.582,-402.2019 355.582,-360.9981 464.3788,-360.9981 464.3788,-402.2019"/>
<text text-anchor="middle" x="409.9804" y="-385.8" font-family="Times,serif" font-size="14.00" fill="#000000">GO:0044424</text>
<text text-anchor="middle" x="409.9804" y="-369" font-family="Times,serif" font-size="14.00" fill="#000000">intracellular part</text>
</g>
<!-- GO:0044444&#45;&gt;GO:0044424 -->
<g id="edge3" class="edge">
<title>GO:0044444&#45;&gt;GO:0044424</title>
<path fill="none" stroke="#000000" d="M370.5681,-316.4182C377.0832,-327.193 385.1454,-340.5267 392.2772,-352.3216"/>
<polygon fill="#000000" stroke="#000000" points="389.3393,-354.2272 397.5086,-360.9735 395.3294,-350.6052 389.3393,-354.2272"/>
</g>
<!-- GO:0043229 -->
<g id="node5" class="node">
<title>GO:0043229</title>
<polygon fill="#ffffff" stroke="#000000" points="285.6988,-316.2019 146.262,-316.2019 146.262,-274.9981 285.6988,-274.9981 285.6988,-316.2019"/>
<text text-anchor="middle" x="215.9804" y="-299.8" font-family="Times,serif" font-size="14.00" fill="#000000">GO:0043229</text>
<text text-anchor="middle" x="215.9804" y="-283" font-family="Times,serif" font-size="14.00" fill="#000000">intracellular organelle</text>
</g>
<!-- GO:0043231&#45;&gt;GO:0043229 -->
<g id="edge4" class="edge">
<title>GO:0043231&#45;&gt;GO:0043229</title>
<path fill="none" stroke="#000000" d="M215.9804,-230.5513C215.9804,-241.4614 215.9804,-253.8637 215.9804,-264.892"/>
<polygon fill="#000000" stroke="#000000" points="212.4805,-264.9509 215.9804,-274.951 219.4805,-264.951 212.4805,-264.9509"/>
</g>
<!-- GO:0043227 -->
<g id="node6" class="node">
<title>GO:0043227</title>
<polygon fill="#ffffff" stroke="#000000" points="127.9412,-325.0014 .0196,-325.0014 .0196,-266.1986 127.9412,-266.1986 127.9412,-325.0014"/>
<text text-anchor="middle" x="63.9804" y="-308.2" font-family="Times,serif" font-size="14.00" fill="#000000">GO:0043227</text>
<text text-anchor="middle" x="63.9804" y="-291.4" font-family="Times,serif" font-size="14.00" fill="#000000">membrane&#45;bounded</text>
<text text-anchor="middle" x="63.9804" y="-274.6" font-family="Times,serif" font-size="14.00" fill="#000000">organelle</text>
</g>
<!-- GO:0043231&#45;&gt;GO:0043227 -->
<g id="edge5" class="edge">
<title>GO:0043231&#45;&gt;GO:0043227</title>
<path fill="none" stroke="#000000" d="M168.7199,-230.5513C153.2783,-240.1413 135.9804,-250.8842 119.9604,-260.8335"/>
<polygon fill="#000000" stroke="#000000" points="117.8602,-258.0177 111.2117,-266.2669 121.5533,-263.9642 117.8602,-258.0177"/>
</g>
<!-- GO:0044464 -->
<g id="node7" class="node">
<title>GO:0044464</title>
<polygon fill="#ffffff" stroke="#000000" points="465.5843,-479.8019 376.3765,-479.8019 376.3765,-438.5981 465.5843,-438.5981 465.5843,-479.8019"/>
<text text-anchor="middle" x="420.9804" y="-463.4" font-family="Times,serif" font-size="14.00" fill="#000000">GO:0044464</text>
<text text-anchor="middle" x="420.9804" y="-446.6" font-family="Times,serif" font-size="14.00" fill="#000000">cell part</text>
</g>
<!-- GO:0044424&#45;&gt;GO:0044464 -->
<g id="edge6" class="edge">
<title>GO:0044424&#45;&gt;GO:0044464</title>
<path fill="none" stroke="#000000" d="M412.9282,-402.3954C414.0502,-410.3109 415.3544,-419.5109 416.5821,-428.1722"/>
<polygon fill="#000000" stroke="#000000" points="413.1555,-428.9375 418.0245,-438.3472 420.0862,-427.9549 413.1555,-428.9375"/>
</g>
<!-- GO:0043229&#45;&gt;GO:0044424 -->
<g id="edge7" class="edge">
<title>GO:0043229&#45;&gt;GO:0044424</title>
<path fill="none" stroke="#000000" d="M262.9424,-316.4182C290.4653,-328.6191 325.3896,-344.101 354.2947,-356.9146"/>
<polygon fill="#000000" stroke="#000000" points="352.8904,-360.1205 363.4509,-360.9735 355.7273,-353.7211 352.8904,-360.1205"/>
</g>
<!-- GO:0043226 -->
<g id="node8" class="node">
<title>GO:0043226</title>
<polygon fill="#ffffff" stroke="#000000" points="260.5843,-402.2019 171.3765,-402.2019 171.3765,-360.9981 260.5843,-360.9981 260.5843,-402.2019"/>
<text text-anchor="middle" x="215.9804" y="-385.8" font-family="Times,serif" font-size="14.00" fill="#000000">GO:0043226</text>
<text text-anchor="middle" x="215.9804" y="-369" font-family="Times,serif" font-size="14.00" fill="#000000">organelle</text>
</g>
<!-- GO:0043229&#45;&gt;GO:0043226 -->
<g id="edge8" class="edge">
<title>GO:0043229&#45;&gt;GO:0043226</title>
<path fill="none" stroke="#000000" d="M215.9804,-316.4182C215.9804,-326.7705 215.9804,-339.4848 215.9804,-350.9271"/>
<polygon fill="#000000" stroke="#000000" points="212.4805,-350.9735 215.9804,-360.9735 219.4805,-350.9735 212.4805,-350.9735"/>
</g>
<!-- GO:0043227&#45;&gt;GO:0043226 -->
<g id="edge9" class="edge">
<title>GO:0043227&#45;&gt;GO:0043226</title>
<path fill="none" stroke="#000000" d="M115.865,-324.9558C133.5883,-334.9834 153.2634,-346.1154 170.448,-355.8383"/>
<polygon fill="#000000" stroke="#000000" points="168.7569,-358.9028 179.1839,-360.7809 172.204,-352.8103 168.7569,-358.9028"/>
</g>
<!-- GO:0005575 -->
<g id="node9" class="node">
<title>GO:0005575</title>
<polygon fill="#ffffff" stroke="#000000" points="520.6671,-557.4019 393.2937,-557.4019 393.2937,-516.1981 520.6671,-516.1981 520.6671,-557.4019"/>
<text text-anchor="middle" x="456.9804" y="-541" font-family="Times,serif" font-size="14.00" fill="#000000">GO:0005575</text>
<text text-anchor="middle" x="456.9804" y="-524.2" font-family="Times,serif" font-size="14.00" fill="#000000">cellular_component</text>
</g>
<!-- GO:0044464&#45;&gt;GO:0005575 -->
<g id="edge10" class="edge">
<title>GO:0044464&#45;&gt;GO:0005575</title>
<path fill="none" stroke="#000000" d="M430.6277,-479.9954C434.4209,-488.1718 438.85,-497.7189 442.9826,-506.627"/>
<polygon fill="#000000" stroke="#000000" points="439.923,-508.3488 447.3064,-515.9472 446.273,-505.4029 439.923,-508.3488"/>
</g>
<!-- GO:0043226&#45;&gt;GO:0005575 -->
<g id="edge11" class="edge">
<title>GO:0043226&#45;&gt;GO:0005575</title>
<path fill="none" stroke="#000000" d="M247.4176,-402.2764C277.9018,-422.2809 325.4966,-453.395 366.9804,-480 382.7118,-490.0891 400.0621,-501.0728 415.2961,-510.6691"/>
<polygon fill="#000000" stroke="#000000" points="413.665,-513.778 423.9928,-516.1417 417.3932,-507.8534 413.665,-513.778"/>
</g>
<!-- GO:0005743 -->
<g id="node10" class="node">
<title>GO:0005743</title>
<polygon fill="#ffffff" stroke="#000000" points="698.2891,-58.6014 571.6717,-58.6014 571.6717,.2014 698.2891,.2014 698.2891,-58.6014"/>
<text text-anchor="middle" x="634.9804" y="-41.8" font-family="Times,serif" font-size="14.00" fill="#000000">GO:0005743</text>
<text text-anchor="middle" x="634.9804" y="-25" font-family="Times,serif" font-size="14.00" fill="#000000">mitochondrial inner</text>
<text text-anchor="middle" x="634.9804" y="-8.2" font-family="Times,serif" font-size="14.00" fill="#000000">membrane</text>
</g>
<!-- GO:0019866 -->
<g id="node11" class="node">
<title>GO:0019866</title>
<polygon fill="#ffffff" stroke="#000000" points="772.4174,-221.8019 609.5434,-221.8019 609.5434,-180.5981 772.4174,-180.5981 772.4174,-221.8019"/>
<text text-anchor="middle" x="690.9804" y="-205.4" font-family="Times,serif" font-size="14.00" fill="#000000">GO:0019866</text>
<text text-anchor="middle" x="690.9804" y="-188.6" font-family="Times,serif" font-size="14.00" fill="#000000">organelle inner membrane</text>
</g>
<!-- GO:0005743&#45;&gt;GO:0019866 -->
<g id="edge12" class="edge">
<title>GO:0005743&#45;&gt;GO:0019866</title>
<path fill="none" stroke="#000000" d="M653.1306,-58.5246C659.242,-69.4559 665.6115,-82.1819 669.9804,-94.4 678.8381,-119.1717 684.2724,-148.586 687.3871,-170.2673"/>
<polygon fill="#000000" stroke="#000000" points="683.9264,-170.7945 688.7346,-180.2354 690.8633,-169.8566 683.9264,-170.7945"/>
</g>
<!-- GO:0031966 -->
<g id="node12" class="node">
<title>GO:0031966</title>
<polygon fill="#ffffff" stroke="#000000" points="660.6089,-135.8019 503.3519,-135.8019 503.3519,-94.5981 660.6089,-94.5981 660.6089,-135.8019"/>
<text text-anchor="middle" x="581.9804" y="-119.4" font-family="Times,serif" font-size="14.00" fill="#000000">GO:0031966</text>
<text text-anchor="middle" x="581.9804" y="-102.6" font-family="Times,serif" font-size="14.00" fill="#000000">mitochondrial membrane</text>
</g>
<!-- GO:0005743&#45;&gt;GO:0031966 -->
<g id="edge13" class="edge">
<title>GO:0005743&#45;&gt;GO:0031966</title>
<path fill="none" stroke="#000000" d="M616.7408,-58.7963C611.3627,-67.5231 605.4802,-77.0682 600.1091,-85.7836"/>
<polygon fill="#000000" stroke="#000000" points="597.0064,-84.1471 594.7395,-94.4966 602.9657,-87.8196 597.0064,-84.1471"/>
</g>
<!-- GO:0019866&#45;&gt;GO:0044424 -->
<g id="edge14" class="edge">
<title>GO:0019866&#45;&gt;GO:0044424</title>
<path fill="none" stroke="#000000" d="M664.0267,-221.936C649.2342,-234.0271 631.0873,-250.0768 616.9804,-266.4 596.7322,-289.8294 603.461,-305.8363 578.9804,-324.8 577.8501,-325.6756 521.6805,-344.4772 474.4087,-360.2116"/>
<polygon fill="#000000" stroke="#000000" points="473.1698,-356.935 464.7861,-363.413 475.3797,-363.5771 473.1698,-356.935"/>
</g>
<!-- GO:0031090 -->
<g id="node13" class="node">
<title>GO:0031090</title>
<polygon fill="#ffffff" stroke="#000000" points="756.152,-316.2019 625.8088,-316.2019 625.8088,-274.9981 756.152,-274.9981 756.152,-316.2019"/>
<text text-anchor="middle" x="690.9804" y="-299.8" font-family="Times,serif" font-size="14.00" fill="#000000">GO:0031090</text>
<text text-anchor="middle" x="690.9804" y="-283" font-family="Times,serif" font-size="14.00" fill="#000000">organelle membrane</text>
</g>
<!-- GO:0019866&#45;&gt;GO:0031090 -->
<g id="edge15" class="edge">
<title>GO:0019866&#45;&gt;GO:0031090</title>
<path fill="none" stroke="#000000" d="M690.9804,-222.1504C690.9804,-234.6165 690.9804,-250.6645 690.9804,-264.5786"/>
<polygon fill="#000000" stroke="#000000" points="687.4805,-264.7081 690.9804,-274.7081 694.4805,-264.7082 687.4805,-264.7081"/>
</g>
<!-- GO:0031966&#45;&gt;GO:0031090 -->
<g id="edge17" class="edge">
<title>GO:0031966&#45;&gt;GO:0031090</title>
<path fill="none" stroke="#000000" d="M580.8312,-135.9754C580.4574,-160.3897 582.9683,-201.261 600.9804,-230.4 610.6482,-246.04 625.5898,-259.0709 640.5391,-269.2678"/>
<polygon fill="#000000" stroke="#000000" points="639.0059,-272.4447 649.3022,-274.9425 642.8108,-266.5691 639.0059,-272.4447"/>
</g>
<!-- GO:0044429 -->
<g id="node14" class="node">
<title>GO:0044429</title>
<polygon fill="#ffffff" stroke="#000000" points="553.7892,-221.8019 434.1716,-221.8019 434.1716,-180.5981 553.7892,-180.5981 553.7892,-221.8019"/>
<text text-anchor="middle" x="493.9804" y="-205.4" font-family="Times,serif" font-size="14.00" fill="#000000">GO:0044429</text>
<text text-anchor="middle" x="493.9804" y="-188.6" font-family="Times,serif" font-size="14.00" fill="#000000">mitochondrial part</text>
</g>
<!-- GO:0031966&#45;&gt;GO:0044429 -->
<g id="edge16" class="edge">
<title>GO:0031966&#45;&gt;GO:0044429</title>
<path fill="none" stroke="#000000" d="M560.6781,-136.0182C549.2203,-147.2156 534.9348,-161.1764 522.5273,-173.3019"/>
<polygon fill="#000000" stroke="#000000" points="519.7922,-171.081 515.0866,-180.5735 524.6847,-176.0873 519.7922,-171.081"/>
</g>
<!-- GO:0016020 -->
<g id="node15" class="node">
<title>GO:0016020</title>
<polygon fill="#ffffff" stroke="#000000" points="675.5843,-479.8019 586.3765,-479.8019 586.3765,-438.5981 675.5843,-438.5981 675.5843,-479.8019"/>
<text text-anchor="middle" x="630.9804" y="-463.4" font-family="Times,serif" font-size="14.00" fill="#000000">GO:0016020</text>
<text text-anchor="middle" x="630.9804" y="-446.6" font-family="Times,serif" font-size="14.00" fill="#000000">membrane</text>
</g>
<!-- GO:0031090&#45;&gt;GO:0016020 -->
<g id="edge18" class="edge">
<title>GO:0031090&#45;&gt;GO:0016020</title>
<path fill="none" stroke="#000000" d="M683.3814,-316.3201C672.9507,-344.7611 654.126,-396.0897 642.107,-428.8615"/>
<polygon fill="#000000" stroke="#000000" points="638.7696,-427.7968 638.6123,-438.3904 645.3415,-430.2071 638.7696,-427.7968"/>
</g>
<!-- GO:0044422 -->
<g id="node16" class="node">
<title>GO:0044422</title>
<polygon fill="#ffffff" stroke="#000000" points="575.8325,-402.2019 482.1283,-402.2019 482.1283,-360.9981 575.8325,-360.9981 575.8325,-402.2019"/>
<text text-anchor="middle" x="528.9804" y="-385.8" font-family="Times,serif" font-size="14.00" fill="#000000">GO:0044422</text>
<text text-anchor="middle" x="528.9804" y="-369" font-family="Times,serif" font-size="14.00" fill="#000000">organelle part</text>
</g>
<!-- GO:0031090&#45;&gt;GO:0044422 -->
<g id="edge19" class="edge">
<title>GO:0031090&#45;&gt;GO:0044422</title>
<path fill="none" stroke="#000000" d="M651.7647,-316.4182C629.1796,-328.4078 600.6262,-343.5658 576.7392,-356.2466"/>
<polygon fill="#000000" stroke="#000000" points="575.0264,-353.1932 567.8349,-360.9735 578.3087,-359.376 575.0264,-353.1932"/>
</g>
<!-- GO:0044429&#45;&gt;GO:0044444 -->
<g id="edge21" class="edge">
<title>GO:0044429&#45;&gt;GO:0044444</title>
<path fill="none" stroke="#000000" d="M464.1346,-221.9165C444.1165,-235.8114 417.5759,-254.2337 396.0409,-269.1815"/>
<polygon fill="#000000" stroke="#000000" points="393.9758,-266.3544 387.7566,-274.9318 397.9673,-272.1049 393.9758,-266.3544"/>
</g>
<!-- GO:0044446 -->
<g id="node17" class="node">
<title>GO:0044446</title>
<polygon fill="#ffffff" stroke="#000000" points="569.6988,-325.0014 430.262,-325.0014 430.262,-266.1986 569.6988,-266.1986 569.6988,-325.0014"/>
<text text-anchor="middle" x="499.9804" y="-308.2" font-family="Times,serif" font-size="14.00" fill="#000000">GO:0044446</text>
<text text-anchor="middle" x="499.9804" y="-291.4" font-family="Times,serif" font-size="14.00" fill="#000000">intracellular organelle</text>
<text text-anchor="middle" x="499.9804" y="-274.6" font-family="Times,serif" font-size="14.00" fill="#000000">part</text>
</g>
<!-- GO:0044429&#45;&gt;GO:0044446 -->
<g id="edge20" class="edge">
<title>GO:0044429&#45;&gt;GO:0044446</title>
<path fill="none" stroke="#000000" d="M495.312,-222.1504C495.9475,-232.1492 496.7295,-244.4525 497.4705,-256.1106"/>
<polygon fill="#000000" stroke="#000000" points="493.979,-256.3577 498.1064,-266.1155 500.9649,-255.9136 493.979,-256.3577"/>
</g>
<!-- GO:0016020&#45;&gt;GO:0005575 -->
<g id="edge22" class="edge">
<title>GO:0016020&#45;&gt;GO:0005575</title>
<path fill="none" stroke="#000000" d="M586.1711,-479.1839C563.77,-489.1743 536.4449,-501.3607 512.7041,-511.9485"/>
<polygon fill="#000000" stroke="#000000" points="511.1665,-508.8019 503.4592,-516.0715 514.0177,-515.1949 511.1665,-508.8019"/>
</g>
<!-- GO:0044422&#45;&gt;GO:0005575 -->
<g id="edge23" class="edge">
<title>GO:0044422&#45;&gt;GO:0005575</title>
<path fill="none" stroke="#000000" d="M519.4194,-402.2094C506.9932,-428.9947 485.2007,-475.9697 470.929,-506.7331"/>
<polygon fill="#000000" stroke="#000000" points="467.6144,-505.5611 466.581,-516.1054 473.9644,-508.507 467.6144,-505.5611"/>
</g>
<!-- GO:0044446&#45;&gt;GO:0044424 -->
<g id="edge24" class="edge">
<title>GO:0044446&#45;&gt;GO:0044424</title>
<path fill="none" stroke="#000000" d="M469.2592,-324.9558C459.5354,-334.2474 448.8193,-344.4873 439.2035,-353.6757"/>
<polygon fill="#000000" stroke="#000000" points="436.5797,-351.3419 431.7678,-360.7809 441.4157,-356.4028 436.5797,-351.3419"/>
</g>
<!-- GO:0044446&#45;&gt;GO:0044422 -->
<g id="edge25" class="edge">
<title>GO:0044446&#45;&gt;GO:0044422</title>
<path fill="none" stroke="#000000" d="M509.9606,-325.1963C512.8104,-333.6475 515.919,-342.8662 518.7817,-351.3555"/>
<polygon fill="#000000" stroke="#000000" points="515.4871,-352.5392 521.999,-360.8966 522.1201,-350.3024 515.4871,-352.5392"/>
</g>
</g>
</svg>
