<?xml version="1.0" encoding="UTF-8" standalone="no"?>
<!DOCTYPE svg PUBLIC "-//W3C//DTD SVG 1.1//EN"
 "http://www.w3.org/Graphics/SVG/1.1/DTD/svg11.dtd">
<!-- Generated by graphviz version 2.40.1 (20161225.0304)
 -->
<!-- Title: G Pages: 1 -->
<svg width="376pt" height="549pt"
 viewBox="0.00 0.00 376.44 548.80" xmlns="http://www.w3.org/2000/svg" xmlns:xlink="http://www.w3.org/1999/xlink">
<g id="graph0" class="graph" transform="scale(1 1) rotate(0) translate(4 544.8)">
<title>G</title>
<polygon fill="#ffffff" stroke="transparent" points="-4,4 -4,-544.8 372.4387,-544.8 372.4387,4 -4,4"/>
<!-- GO:0009507 -->
<g id="node1" class="node">
<title>GO:0009507</title>
<polygon fill="#ffffff" stroke="#000000" points="173.0622,-41.4019 83.8544,-41.4019 83.8544,-.1981 173.0622,-.1981 173.0622,-41.4019"/>
<text text-anchor="middle" x="128.4583" y="-25" font-family="Times,serif" font-size="14.00" fill="#000000">GO:0009507</text>
<text text-anchor="middle" x="128.4583" y="-8.2" font-family="Times,serif" font-size="14.00" fill="#000000">chloroplast</text>
</g>
<!-- GO:0009536 -->
<g id="node2" class="node">
<title>GO:0009536</title>
<polygon fill="#ffffff" stroke="#000000" points="173.0622,-119.0019 83.8544,-119.0019 83.8544,-77.7981 173.0622,-77.7981 173.0622,-119.0019"/>
<text text-anchor="middle" x="128.4583" y="-102.6" font-family="Times,serif" font-size="14.00" fill="#000000">GO:0009536</text>
<text text-anchor="middle" x="128.4583" y="-85.8" font-family="Times,serif" font-size="14.00" fill="#000000">plastid</text>
</g>
<!-- GO:0009507&#45;&gt;GO:0009536 -->
<g id="edge1" class="edge">
<title>GO:0009507&#45;&gt;GO:0009536</title>
<path fill="none" stroke="#000000" d="M128.4583,-41.5954C128.4583,-49.5109 128.4583,-58.7109 128.4583,-67.3722"/>
<polygon fill="#000000" stroke="#000000" points="124.9584,-67.5472 128.4583,-77.5472 131.9584,-67.5473 124.9584,-67.5472"/>
</g>
<!-- GO:0044444 -->
<g id="node3" class="node">
<title>GO:0044444</title>
<polygon fill="#ffffff" stroke="#000000" points="108.8749,-205.0019 .0417,-205.0019 .0417,-163.7981 108.8749,-163.7981 108.8749,-205.0019"/>
<text text-anchor="middle" x="54.4583" y="-188.6" font-family="Times,serif" font-size="14.00" fill="#000000">GO:0044444</text>
<text text-anchor="middle" x="54.4583" y="-171.8" font-family="Times,serif" font-size="14.00" fill="#000000">cytoplasmic part</text>
</g>
<!-- GO:0009536&#45;&gt;GO:0044444 -->
<g id="edge2" class="edge">
<title>GO:0009536&#45;&gt;GO:0044444</title>
<path fill="none" stroke="#000000" d="M110.545,-119.2182C101.0009,-130.3099 89.1237,-144.1132 78.7593,-156.1583"/>
<polygon fill="#000000" stroke="#000000" points="76.0761,-153.9105 72.2067,-163.7735 81.3822,-158.4762 76.0761,-153.9105"/>
</g>
<!-- GO:0043231 -->
<g id="node4" class="node">
<title>GO:0043231</title>
<polygon fill="#ffffff" stroke="#000000" points="277.8371,-213.8014 127.0795,-213.8014 127.0795,-154.9986 277.8371,-154.9986 277.8371,-213.8014"/>
<text text-anchor="middle" x="202.4583" y="-197" font-family="Times,serif" font-size="14.00" fill="#000000">GO:0043231</text>
<text text-anchor="middle" x="202.4583" y="-180.2" font-family="Times,serif" font-size="14.00" fill="#000000">intracellular membrane&#45;</text>
<text text-anchor="middle" x="202.4583" y="-163.4" font-family="Times,serif" font-size="14.00" fill="#000000">bounded organelle</text>
</g>
<!-- GO:0009536&#45;&gt;GO:0043231 -->
<g id="edge3" class="edge">
<title>GO:0009536&#45;&gt;GO:0043231</title>
<path fill="none" stroke="#000000" d="M146.3716,-119.2182C153.662,-127.6908 162.3138,-137.7456 170.6127,-147.3903"/>
<polygon fill="#000000" stroke="#000000" points="167.9844,-149.7019 177.1599,-154.9991 173.2905,-145.1362 167.9844,-149.7019"/>
</g>
<!-- GO:0044424 -->
<g id="node5" class="node">
<title>GO:0044424</title>
<polygon fill="#ffffff" stroke="#000000" points="157.8567,-385.4019 49.0599,-385.4019 49.0599,-344.1981 157.8567,-344.1981 157.8567,-385.4019"/>
<text text-anchor="middle" x="103.4583" y="-369" font-family="Times,serif" font-size="14.00" fill="#000000">GO:0044424</text>
<text text-anchor="middle" x="103.4583" y="-352.2" font-family="Times,serif" font-size="14.00" fill="#000000">intracellular part</text>
</g>
<!-- GO:0044444&#45;&gt;GO:0044424 -->
<g id="edge4" class="edge">
<title>GO:0044444&#45;&gt;GO:0044424</title>
<path fill="none" stroke="#000000" d="M55.5288,-205.0102C57.2975,-229.9505 61.8754,-272.957 73.4583,-308 76.4912,-317.1757 80.9083,-326.6478 85.425,-335.1641"/>
<polygon fill="#000000" stroke="#000000" points="82.3964,-336.92 90.3043,-343.971 88.5195,-333.5276 82.3964,-336.92"/>
</g>
<!-- GO:0043229 -->
<g id="node6" class="node">
<title>GO:0043229</title>
<polygon fill="#ffffff" stroke="#000000" points="222.1767,-299.4019 82.7399,-299.4019 82.7399,-258.1981 222.1767,-258.1981 222.1767,-299.4019"/>
<text text-anchor="middle" x="152.4583" y="-283" font-family="Times,serif" font-size="14.00" fill="#000000">GO:0043229</text>
<text text-anchor="middle" x="152.4583" y="-266.2" font-family="Times,serif" font-size="14.00" fill="#000000">intracellular organelle</text>
</g>
<!-- GO:0043231&#45;&gt;GO:0043229 -->
<g id="edge5" class="edge">
<title>GO:0043231&#45;&gt;GO:0043229</title>
<path fill="none" stroke="#000000" d="M186.9121,-213.7513C180.9547,-224.9989 174.1573,-237.8323 168.1833,-249.1112"/>
<polygon fill="#000000" stroke="#000000" points="164.983,-247.6758 163.3953,-258.151 171.1689,-250.9522 164.983,-247.6758"/>
</g>
<!-- GO:0043227 -->
<g id="node7" class="node">
<title>GO:0043227</title>
<polygon fill="#ffffff" stroke="#000000" points="368.4191,-308.2014 240.4975,-308.2014 240.4975,-249.3986 368.4191,-249.3986 368.4191,-308.2014"/>
<text text-anchor="middle" x="304.4583" y="-291.4" font-family="Times,serif" font-size="14.00" fill="#000000">GO:0043227</text>
<text text-anchor="middle" x="304.4583" y="-274.6" font-family="Times,serif" font-size="14.00" fill="#000000">membrane&#45;bounded</text>
<text text-anchor="middle" x="304.4583" y="-257.8" font-family="Times,serif" font-size="14.00" fill="#000000">organelle</text>
</g>
<!-- GO:0043231&#45;&gt;GO:0043227 -->
<g id="edge6" class="edge">
<title>GO:0043231&#45;&gt;GO:0043227</title>
<path fill="none" stroke="#000000" d="M234.1726,-213.7513C244.055,-222.8973 255.0704,-233.092 265.3944,-242.6467"/>
<polygon fill="#000000" stroke="#000000" points="263.047,-245.2432 272.7636,-249.4669 267.8017,-240.1057 263.047,-245.2432"/>
</g>
<!-- GO:0044464 -->
<g id="node8" class="node">
<title>GO:0044464</title>
<polygon fill="#ffffff" stroke="#000000" points="170.0622,-463.0019 80.8544,-463.0019 80.8544,-421.7981 170.0622,-421.7981 170.0622,-463.0019"/>
<text text-anchor="middle" x="125.4583" y="-446.6" font-family="Times,serif" font-size="14.00" fill="#000000">GO:0044464</text>
<text text-anchor="middle" x="125.4583" y="-429.8" font-family="Times,serif" font-size="14.00" fill="#000000">cell part</text>
</g>
<!-- GO:0044424&#45;&gt;GO:0044464 -->
<g id="edge7" class="edge">
<title>GO:0044424&#45;&gt;GO:0044464</title>
<path fill="none" stroke="#000000" d="M109.3539,-385.5954C111.6226,-393.5978 114.2636,-402.9133 116.7426,-411.6575"/>
<polygon fill="#000000" stroke="#000000" points="113.4515,-412.8811 119.5464,-421.5472 120.1861,-410.9717 113.4515,-412.8811"/>
</g>
<!-- GO:0043229&#45;&gt;GO:0044424 -->
<g id="edge8" class="edge">
<title>GO:0043229&#45;&gt;GO:0044424</title>
<path fill="none" stroke="#000000" d="M140.5968,-299.6182C134.5178,-310.2874 127.0094,-323.4655 120.3381,-335.1743"/>
<polygon fill="#000000" stroke="#000000" points="117.1201,-333.7522 115.2106,-344.1735 123.2022,-337.2176 117.1201,-333.7522"/>
</g>
<!-- GO:0043226 -->
<g id="node9" class="node">
<title>GO:0043226</title>
<polygon fill="#ffffff" stroke="#000000" points="265.0622,-385.4019 175.8544,-385.4019 175.8544,-344.1981 265.0622,-344.1981 265.0622,-385.4019"/>
<text text-anchor="middle" x="220.4583" y="-369" font-family="Times,serif" font-size="14.00" fill="#000000">GO:0043226</text>
<text text-anchor="middle" x="220.4583" y="-352.2" font-family="Times,serif" font-size="14.00" fill="#000000">organelle</text>
</g>
<!-- GO:0043229&#45;&gt;GO:0043226 -->
<g id="edge9" class="edge">
<title>GO:0043229&#45;&gt;GO:0043226</title>
<path fill="none" stroke="#000000" d="M168.9192,-299.6182C177.6059,-310.6043 188.3959,-324.2506 197.8551,-336.2137"/>
<polygon fill="#000000" stroke="#000000" points="195.2011,-338.5002 204.149,-344.1735 200.6921,-334.1585 195.2011,-338.5002"/>
</g>
<!-- GO:0043227&#45;&gt;GO:0043226 -->
<g id="edge10" class="edge">
<title>GO:0043227&#45;&gt;GO:0043226</title>
<path fill="none" stroke="#000000" d="M275.5503,-308.3963C266.5778,-317.5824 256.7197,-327.6752 247.8534,-336.7526"/>
<polygon fill="#000000" stroke="#000000" points="245.1639,-334.4972 240.6803,-344.0966 250.1715,-339.3884 245.1639,-334.4972"/>
</g>
<!-- GO:0005575 -->
<g id="node10" class="node">
<title>GO:0005575</title>
<polygon fill="#ffffff" stroke="#000000" points="225.145,-540.6019 97.7716,-540.6019 97.7716,-499.3981 225.145,-499.3981 225.145,-540.6019"/>
<text text-anchor="middle" x="161.4583" y="-524.2" font-family="Times,serif" font-size="14.00" fill="#000000">GO:0005575</text>
<text text-anchor="middle" x="161.4583" y="-507.4" font-family="Times,serif" font-size="14.00" fill="#000000">cellular_component</text>
</g>
<!-- GO:0044464&#45;&gt;GO:0005575 -->
<g id="edge11" class="edge">
<title>GO:0044464&#45;&gt;GO:0005575</title>
<path fill="none" stroke="#000000" d="M135.1056,-463.1954C138.8988,-471.3718 143.3279,-480.9189 147.4605,-489.827"/>
<polygon fill="#000000" stroke="#000000" points="144.4009,-491.5488 151.7843,-499.1472 150.7509,-488.6029 144.4009,-491.5488"/>
</g>
<!-- GO:0043226&#45;&gt;GO:0005575 -->
<g id="edge12" class="edge">
<title>GO:0043226&#45;&gt;GO:0005575</title>
<path fill="none" stroke="#000000" d="M212.6236,-385.4094C202.441,-412.1947 184.5832,-459.1697 172.8884,-489.9331"/>
<polygon fill="#000000" stroke="#000000" points="169.6074,-488.7143 169.3254,-499.3054 176.1505,-491.2018 169.6074,-488.7143"/>
</g>
</g>
</svg>
