<?xml version="1.0" encoding="UTF-8" standalone="no"?>
<!DOCTYPE svg PUBLIC "-//W3C//DTD SVG 1.1//EN"
 "http://www.w3.org/Graphics/SVG/1.1/DTD/svg11.dtd">
<!-- Generated by graphviz version 2.40.1 (20161225.0304)
 -->
<!-- Title: G Pages: 1 -->
<svg width="1008pt" height="882pt"
 viewBox="0.00 0.00 1007.80 882.40" xmlns="http://www.w3.org/2000/svg" xmlns:xlink="http://www.w3.org/1999/xlink">
<g id="graph0" class="graph" transform="scale(1 1) rotate(0) translate(4 878.4)">
<title>G</title>
<polygon fill="#ffffff" stroke="transparent" points="-4,4 -4,-878.4 1003.7967,-878.4 1003.7967,4 -4,4"/>
<!-- GO:0046211 -->
<g id="node1" class="node">
<title>GO:0046211</title>
<polygon fill="#ffffff" stroke="#000000" points="496.2507,-58.6014 337.6645,-58.6014 337.6645,.2014 496.2507,.2014 496.2507,-58.6014"/>
<text text-anchor="middle" x="416.9576" y="-41.8" font-family="Times,serif" font-size="14.00" fill="#000000">GO:0046211</text>
<text text-anchor="middle" x="416.9576" y="-25" font-family="Times,serif" font-size="14.00" fill="#000000">(+)&#45;camphor biosynthetic</text>
<text text-anchor="middle" x="416.9576" y="-8.2" font-family="Times,serif" font-size="14.00" fill="#000000">process</text>
</g>
<!-- GO:0016099 -->
<g id="node2" class="node">
<title>GO:0016099</title>
<polygon fill="#ffffff" stroke="#000000" points="481.8728,-153.0014 352.0424,-153.0014 352.0424,-94.1986 481.8728,-94.1986 481.8728,-153.0014"/>
<text text-anchor="middle" x="416.9576" y="-136.2" font-family="Times,serif" font-size="14.00" fill="#000000">GO:0016099</text>
<text text-anchor="middle" x="416.9576" y="-119.4" font-family="Times,serif" font-size="14.00" fill="#000000">monoterpenoid</text>
<text text-anchor="middle" x="416.9576" y="-102.6" font-family="Times,serif" font-size="14.00" fill="#000000">biosynthetic process</text>
</g>
<!-- GO:0046211&#45;&gt;GO:0016099 -->
<g id="edge1" class="edge">
<title>GO:0046211&#45;&gt;GO:0016099</title>
<path fill="none" stroke="#000000" d="M416.9576,-58.5513C416.9576,-66.6318 416.9576,-75.5308 416.9576,-84.0838"/>
<polygon fill="#000000" stroke="#000000" points="413.4577,-84.2668 416.9576,-94.2669 420.4577,-84.2669 413.4577,-84.2668"/>
</g>
<!-- GO:0042181 -->
<g id="node3" class="node">
<title>GO:0042181</title>
<polygon fill="#ffffff" stroke="#000000" points="375.7139,-436.2014 250.2013,-436.2014 250.2013,-377.3986 375.7139,-377.3986 375.7139,-436.2014"/>
<text text-anchor="middle" x="312.9576" y="-419.4" font-family="Times,serif" font-size="14.00" fill="#000000">GO:0042181</text>
<text text-anchor="middle" x="312.9576" y="-402.6" font-family="Times,serif" font-size="14.00" fill="#000000">ketone biosynthetic</text>
<text text-anchor="middle" x="312.9576" y="-385.8" font-family="Times,serif" font-size="14.00" fill="#000000">process</text>
</g>
<!-- GO:0046211&#45;&gt;GO:0042181 -->
<g id="edge2" class="edge">
<title>GO:0046211&#45;&gt;GO:0042181</title>
<path fill="none" stroke="#000000" d="M372.9806,-58.669C361.3726,-68.6357 350.1047,-80.7473 342.9576,-94.4 296.6151,-182.925 301.2737,-304.9359 307.6445,-367.0264"/>
<polygon fill="#000000" stroke="#000000" points="304.1889,-367.6237 308.7578,-377.1827 311.1472,-366.8609 304.1889,-367.6237"/>
</g>
<!-- GO:0018882 -->
<g id="node4" class="node">
<title>GO:0018882</title>
<polygon fill="#ffffff" stroke="#000000" points="651.5213,-153.0014 506.3939,-153.0014 506.3939,-94.1986 651.5213,-94.1986 651.5213,-153.0014"/>
<text text-anchor="middle" x="578.9576" y="-136.2" font-family="Times,serif" font-size="14.00" fill="#000000">GO:0018882</text>
<text text-anchor="middle" x="578.9576" y="-119.4" font-family="Times,serif" font-size="14.00" fill="#000000">(+)&#45;camphor metabolic</text>
<text text-anchor="middle" x="578.9576" y="-102.6" font-family="Times,serif" font-size="14.00" fill="#000000">process</text>
</g>
<!-- GO:0046211&#45;&gt;GO:0018882 -->
<g id="edge3" class="edge">
<title>GO:0046211&#45;&gt;GO:0018882</title>
<path fill="none" stroke="#000000" d="M467.3274,-58.5513C483.9373,-68.2301 502.5624,-79.0833 519.7687,-89.1097"/>
<polygon fill="#000000" stroke="#000000" points="518.2167,-92.2561 528.619,-94.2669 521.741,-86.208 518.2167,-92.2561"/>
</g>
<!-- GO:0016098 -->
<g id="node5" class="node">
<title>GO:0016098</title>
<polygon fill="#ffffff" stroke="#000000" points="658.9261,-247.4014 498.9891,-247.4014 498.9891,-188.5986 658.9261,-188.5986 658.9261,-247.4014"/>
<text text-anchor="middle" x="578.9576" y="-230.6" font-family="Times,serif" font-size="14.00" fill="#000000">GO:0016098</text>
<text text-anchor="middle" x="578.9576" y="-213.8" font-family="Times,serif" font-size="14.00" fill="#000000">monoterpenoid metabolic</text>
<text text-anchor="middle" x="578.9576" y="-197" font-family="Times,serif" font-size="14.00" fill="#000000">process</text>
</g>
<!-- GO:0016099&#45;&gt;GO:0016098 -->
<g id="edge4" class="edge">
<title>GO:0016099&#45;&gt;GO:0016098</title>
<path fill="none" stroke="#000000" d="M467.3274,-152.9513C483.9373,-162.6301 502.5624,-173.4833 519.7687,-183.5097"/>
<polygon fill="#000000" stroke="#000000" points="518.2167,-186.6561 528.619,-188.6669 521.741,-180.608 518.2167,-186.6561"/>
</g>
<!-- GO:0016114 -->
<g id="node6" class="node">
<title>GO:0016114</title>
<polygon fill="#ffffff" stroke="#000000" points="481.2649,-247.4014 340.6503,-247.4014 340.6503,-188.5986 481.2649,-188.5986 481.2649,-247.4014"/>
<text text-anchor="middle" x="410.9576" y="-230.6" font-family="Times,serif" font-size="14.00" fill="#000000">GO:0016114</text>
<text text-anchor="middle" x="410.9576" y="-213.8" font-family="Times,serif" font-size="14.00" fill="#000000">terpenoid biosynthetic</text>
<text text-anchor="middle" x="410.9576" y="-197" font-family="Times,serif" font-size="14.00" fill="#000000">process</text>
</g>
<!-- GO:0016099&#45;&gt;GO:0016114 -->
<g id="edge5" class="edge">
<title>GO:0016099&#45;&gt;GO:0016114</title>
<path fill="none" stroke="#000000" d="M415.0921,-152.9513C414.5785,-161.0318 414.0128,-169.9308 413.4692,-178.4838"/>
<polygon fill="#000000" stroke="#000000" points="409.9634,-178.465 412.822,-188.6669 416.9494,-178.909 409.9634,-178.465"/>
</g>
<!-- GO:1901576 -->
<g id="node7" class="node">
<title>GO:1901576</title>
<polygon fill="#ffffff" stroke="#000000" points="129.8728,-625.0014 .0424,-625.0014 .0424,-566.1986 129.8728,-566.1986 129.8728,-625.0014"/>
<text text-anchor="middle" x="64.9576" y="-608.2" font-family="Times,serif" font-size="14.00" fill="#000000">GO:1901576</text>
<text text-anchor="middle" x="64.9576" y="-591.4" font-family="Times,serif" font-size="14.00" fill="#000000">organic substance</text>
<text text-anchor="middle" x="64.9576" y="-574.6" font-family="Times,serif" font-size="14.00" fill="#000000">biosynthetic process</text>
</g>
<!-- GO:0042181&#45;&gt;GO:1901576 -->
<g id="edge6" class="edge">
<title>GO:0042181&#45;&gt;GO:1901576</title>
<path fill="none" stroke="#000000" d="M250.0805,-417.1668C190.7703,-428.2541 107.791,-447.588 85.9576,-472 65.7183,-494.6296 61.2999,-529.2928 61.4705,-556.1581"/>
<polygon fill="#000000" stroke="#000000" points="57.9785,-556.4992 61.7547,-566.3982 64.9758,-556.3048 57.9785,-556.4992"/>
</g>
<!-- GO:0044283 -->
<g id="node8" class="node">
<title>GO:0044283</title>
<polygon fill="#ffffff" stroke="#000000" points="356.8728,-530.6014 227.0424,-530.6014 227.0424,-471.7986 356.8728,-471.7986 356.8728,-530.6014"/>
<text text-anchor="middle" x="291.9576" y="-513.8" font-family="Times,serif" font-size="14.00" fill="#000000">GO:0044283</text>
<text text-anchor="middle" x="291.9576" y="-497" font-family="Times,serif" font-size="14.00" fill="#000000">small molecule</text>
<text text-anchor="middle" x="291.9576" y="-480.2" font-family="Times,serif" font-size="14.00" fill="#000000">biosynthetic process</text>
</g>
<!-- GO:0042181&#45;&gt;GO:0044283 -->
<g id="edge7" class="edge">
<title>GO:0042181&#45;&gt;GO:0044283</title>
<path fill="none" stroke="#000000" d="M306.4282,-436.1513C304.6109,-444.3206 302.6074,-453.3264 300.6856,-461.9657"/>
<polygon fill="#000000" stroke="#000000" points="297.2381,-461.3454 298.483,-471.8669 304.071,-462.8655 297.2381,-461.3454"/>
</g>
<!-- GO:0042180 -->
<g id="node9" class="node">
<title>GO:0042180</title>
<polygon fill="#ffffff" stroke="#000000" points="680.4606,-530.6014 523.4546,-530.6014 523.4546,-471.7986 680.4606,-471.7986 680.4606,-530.6014"/>
<text text-anchor="middle" x="601.9576" y="-513.8" font-family="Times,serif" font-size="14.00" fill="#000000">GO:0042180</text>
<text text-anchor="middle" x="601.9576" y="-497" font-family="Times,serif" font-size="14.00" fill="#000000">cellular ketone metabolic</text>
<text text-anchor="middle" x="601.9576" y="-480.2" font-family="Times,serif" font-size="14.00" fill="#000000">process</text>
</g>
<!-- GO:0042181&#45;&gt;GO:0042180 -->
<g id="edge8" class="edge">
<title>GO:0042181&#45;&gt;GO:0042180</title>
<path fill="none" stroke="#000000" d="M375.913,-427.1015C413.2272,-439.1624 461.6947,-454.8763 513.5616,-471.8769"/>
<polygon fill="#000000" stroke="#000000" points="512.6912,-475.2748 523.284,-475.0656 514.8728,-468.6234 512.6912,-475.2748"/>
</g>
<!-- GO:0044249 -->
<g id="node10" class="node">
<title>GO:0044249</title>
<polygon fill="#ffffff" stroke="#000000" points="504.87,-530.6014 375.0452,-530.6014 375.0452,-471.7986 504.87,-471.7986 504.87,-530.6014"/>
<text text-anchor="middle" x="439.9576" y="-513.8" font-family="Times,serif" font-size="14.00" fill="#000000">GO:0044249</text>
<text text-anchor="middle" x="439.9576" y="-497" font-family="Times,serif" font-size="14.00" fill="#000000">cellular biosynthetic</text>
<text text-anchor="middle" x="439.9576" y="-480.2" font-family="Times,serif" font-size="14.00" fill="#000000">process</text>
</g>
<!-- GO:0042181&#45;&gt;GO:0044249 -->
<g id="edge9" class="edge">
<title>GO:0042181&#45;&gt;GO:0044249</title>
<path fill="none" stroke="#000000" d="M352.445,-436.1513C365.108,-445.5637 379.265,-456.0867 392.4402,-465.88"/>
<polygon fill="#000000" stroke="#000000" points="390.3809,-468.7103 400.4946,-471.8669 394.5568,-463.0923 390.3809,-468.7103"/>
</g>
<!-- GO:0018882&#45;&gt;GO:0016098 -->
<g id="edge10" class="edge">
<title>GO:0018882&#45;&gt;GO:0016098</title>
<path fill="none" stroke="#000000" d="M578.9576,-152.9513C578.9576,-161.0318 578.9576,-169.9308 578.9576,-178.4838"/>
<polygon fill="#000000" stroke="#000000" points="575.4577,-178.6668 578.9576,-188.6669 582.4577,-178.6669 575.4577,-178.6668"/>
</g>
<!-- GO:0018882&#45;&gt;GO:0042180 -->
<g id="edge11" class="edge">
<title>GO:0018882&#45;&gt;GO:0042180</title>
<path fill="none" stroke="#000000" d="M635.6455,-152.9137C648.598,-162.4972 660.6815,-174.4499 667.9576,-188.8 688.8672,-230.0382 696.2729,-321.5337 651.9576,-436 648.1719,-445.7784 642.4378,-455.317 636.1863,-463.9472"/>
<polygon fill="#000000" stroke="#000000" points="633.3811,-461.8537 630.0808,-471.9215 638.9391,-466.1092 633.3811,-461.8537"/>
</g>
<!-- GO:0006721 -->
<g id="node11" class="node">
<title>GO:0006721</title>
<polygon fill="#ffffff" stroke="#000000" points="639.5355,-341.8014 512.3797,-341.8014 512.3797,-282.9986 639.5355,-282.9986 639.5355,-341.8014"/>
<text text-anchor="middle" x="575.9576" y="-325" font-family="Times,serif" font-size="14.00" fill="#000000">GO:0006721</text>
<text text-anchor="middle" x="575.9576" y="-308.2" font-family="Times,serif" font-size="14.00" fill="#000000">terpenoid metabolic</text>
<text text-anchor="middle" x="575.9576" y="-291.4" font-family="Times,serif" font-size="14.00" fill="#000000">process</text>
</g>
<!-- GO:0016098&#45;&gt;GO:0006721 -->
<g id="edge12" class="edge">
<title>GO:0016098&#45;&gt;GO:0006721</title>
<path fill="none" stroke="#000000" d="M578.0248,-247.3513C577.768,-255.4318 577.4852,-264.3308 577.2134,-272.8838"/>
<polygon fill="#000000" stroke="#000000" points="573.7093,-272.9607 576.8898,-283.0669 580.7058,-273.1831 573.7093,-272.9607"/>
</g>
<!-- GO:0016114&#45;&gt;GO:0006721 -->
<g id="edge13" class="edge">
<title>GO:0016114&#45;&gt;GO:0006721</title>
<path fill="none" stroke="#000000" d="M462.2602,-247.3513C479.1776,-257.0301 498.1476,-267.8833 515.6726,-277.9097"/>
<polygon fill="#000000" stroke="#000000" points="514.2688,-281.1388 524.6868,-283.0669 517.745,-275.0629 514.2688,-281.1388"/>
</g>
<!-- GO:0008299 -->
<g id="node12" class="node">
<title>GO:0008299</title>
<polygon fill="#ffffff" stroke="#000000" points="492.4948,-341.8014 345.4204,-341.8014 345.4204,-282.9986 492.4948,-282.9986 492.4948,-341.8014"/>
<text text-anchor="middle" x="418.9576" y="-325" font-family="Times,serif" font-size="14.00" fill="#000000">GO:0008299</text>
<text text-anchor="middle" x="418.9576" y="-308.2" font-family="Times,serif" font-size="14.00" fill="#000000">isoprenoid biosynthetic</text>
<text text-anchor="middle" x="418.9576" y="-291.4" font-family="Times,serif" font-size="14.00" fill="#000000">process</text>
</g>
<!-- GO:0016114&#45;&gt;GO:0008299 -->
<g id="edge14" class="edge">
<title>GO:0016114&#45;&gt;GO:0008299</title>
<path fill="none" stroke="#000000" d="M413.445,-247.3513C414.1298,-255.4318 414.8839,-264.3308 415.6088,-272.8838"/>
<polygon fill="#000000" stroke="#000000" points="412.1397,-273.3982 416.4717,-283.0669 419.1147,-272.807 412.1397,-273.3982"/>
</g>
<!-- GO:0071704 -->
<g id="node13" class="node">
<title>GO:0071704</title>
<polygon fill="#ffffff" stroke="#000000" points="390.1432,-719.4014 273.772,-719.4014 273.772,-660.5986 390.1432,-660.5986 390.1432,-719.4014"/>
<text text-anchor="middle" x="331.9576" y="-702.6" font-family="Times,serif" font-size="14.00" fill="#000000">GO:0071704</text>
<text text-anchor="middle" x="331.9576" y="-685.8" font-family="Times,serif" font-size="14.00" fill="#000000">organic substance</text>
<text text-anchor="middle" x="331.9576" y="-669" font-family="Times,serif" font-size="14.00" fill="#000000">metabolic process</text>
</g>
<!-- GO:1901576&#45;&gt;GO:0071704 -->
<g id="edge15" class="edge">
<title>GO:1901576&#45;&gt;GO:0071704</title>
<path fill="none" stroke="#000000" d="M130.1997,-621.7433C133.1508,-622.7998 136.0802,-623.8238 138.9576,-624.8 191.2025,-642.5243 208.3421,-641.3156 264.008,-660.633"/>
<polygon fill="#000000" stroke="#000000" points="263.0809,-664.0176 273.6757,-664.0569 265.4178,-657.4192 263.0809,-664.0176"/>
</g>
<!-- GO:0009058 -->
<g id="node14" class="node">
<title>GO:0009058</title>
<polygon fill="#ffffff" stroke="#000000" points="255.8728,-710.6019 126.0424,-710.6019 126.0424,-669.3981 255.8728,-669.3981 255.8728,-710.6019"/>
<text text-anchor="middle" x="190.9576" y="-694.2" font-family="Times,serif" font-size="14.00" fill="#000000">GO:0009058</text>
<text text-anchor="middle" x="190.9576" y="-677.4" font-family="Times,serif" font-size="14.00" fill="#000000">biosynthetic process</text>
</g>
<!-- GO:1901576&#45;&gt;GO:0009058 -->
<g id="edge16" class="edge">
<title>GO:1901576&#45;&gt;GO:0009058</title>
<path fill="none" stroke="#000000" d="M104.1341,-624.9513C120.4979,-637.2112 139.3765,-651.3551 155.3419,-663.3165"/>
<polygon fill="#000000" stroke="#000000" points="153.2948,-666.1561 163.3964,-669.351 157.4919,-660.5539 153.2948,-666.1561"/>
</g>
<!-- GO:0044711 -->
<g id="node15" class="node">
<title>GO:0044711</title>
<polygon fill="#ffffff" stroke="#000000" points="277.8728,-625.0014 148.0424,-625.0014 148.0424,-566.1986 277.8728,-566.1986 277.8728,-625.0014"/>
<text text-anchor="middle" x="212.9576" y="-608.2" font-family="Times,serif" font-size="14.00" fill="#000000">GO:0044711</text>
<text text-anchor="middle" x="212.9576" y="-591.4" font-family="Times,serif" font-size="14.00" fill="#000000">single&#45;organism</text>
<text text-anchor="middle" x="212.9576" y="-574.6" font-family="Times,serif" font-size="14.00" fill="#000000">biosynthetic process</text>
</g>
<!-- GO:0044283&#45;&gt;GO:0044711 -->
<g id="edge17" class="edge">
<title>GO:0044283&#45;&gt;GO:0044711</title>
<path fill="none" stroke="#000000" d="M267.3946,-530.5513C260.0378,-539.3422 251.8703,-549.1018 244.1469,-558.3308"/>
<polygon fill="#000000" stroke="#000000" points="241.2392,-556.3517 237.5055,-566.2669 246.6074,-560.8442 241.2392,-556.3517"/>
</g>
<!-- GO:0044281 -->
<g id="node16" class="node">
<title>GO:0044281</title>
<polygon fill="#ffffff" stroke="#000000" points="531.8105,-625.0014 372.1047,-625.0014 372.1047,-566.1986 531.8105,-566.1986 531.8105,-625.0014"/>
<text text-anchor="middle" x="451.9576" y="-608.2" font-family="Times,serif" font-size="14.00" fill="#000000">GO:0044281</text>
<text text-anchor="middle" x="451.9576" y="-591.4" font-family="Times,serif" font-size="14.00" fill="#000000">small molecule metabolic</text>
<text text-anchor="middle" x="451.9576" y="-574.6" font-family="Times,serif" font-size="14.00" fill="#000000">process</text>
</g>
<!-- GO:0044283&#45;&gt;GO:0044281 -->
<g id="edge18" class="edge">
<title>GO:0044283&#45;&gt;GO:0044281</title>
<path fill="none" stroke="#000000" d="M341.7055,-530.5513C358.1104,-540.2301 376.5055,-551.0833 393.4994,-561.1097"/>
<polygon fill="#000000" stroke="#000000" points="391.8492,-564.1998 402.2404,-566.2669 395.4063,-558.1709 391.8492,-564.1998"/>
</g>
<!-- GO:0042180&#45;&gt;GO:0071704 -->
<g id="edge19" class="edge">
<title>GO:0042180&#45;&gt;GO:0071704</title>
<path fill="none" stroke="#000000" d="M523.3796,-527.6468C520.2038,-528.5973 517.0541,-529.5189 513.9576,-530.4 447.5996,-549.2815 412.0269,-517.9014 362.9576,-566.4 340.8435,-588.2569 333.6673,-623.3684 331.6924,-650.5931"/>
<polygon fill="#000000" stroke="#000000" points="328.1963,-650.428 331.1698,-660.597 335.1868,-650.7932 328.1963,-650.428"/>
</g>
<!-- GO:0042180&#45;&gt;GO:0044281 -->
<g id="edge21" class="edge">
<title>GO:0042180&#45;&gt;GO:0044281</title>
<path fill="none" stroke="#000000" d="M555.3189,-530.5513C540.0805,-540.1413 523.0102,-550.8842 507.201,-560.8335"/>
<polygon fill="#000000" stroke="#000000" points="505.1667,-557.9783 498.5675,-566.2669 508.8952,-563.9027 505.1667,-557.9783"/>
</g>
<!-- GO:0044763 -->
<g id="node17" class="node">
<title>GO:0044763</title>
<polygon fill="#ffffff" stroke="#000000" points="999.6361,-625.0014 848.2791,-625.0014 848.2791,-566.1986 999.6361,-566.1986 999.6361,-625.0014"/>
<text text-anchor="middle" x="923.9576" y="-608.2" font-family="Times,serif" font-size="14.00" fill="#000000">GO:0044763</text>
<text text-anchor="middle" x="923.9576" y="-591.4" font-family="Times,serif" font-size="14.00" fill="#000000">single&#45;organism cellular</text>
<text text-anchor="middle" x="923.9576" y="-574.6" font-family="Times,serif" font-size="14.00" fill="#000000">process</text>
</g>
<!-- GO:0042180&#45;&gt;GO:0044763 -->
<g id="edge20" class="edge">
<title>GO:0042180&#45;&gt;GO:0044763</title>
<path fill="none" stroke="#000000" d="M680.539,-527.6349C683.7138,-528.5887 686.8625,-529.5142 689.9576,-530.4 752.5137,-548.3021 771.8366,-547.435 838.3611,-566.3341"/>
<polygon fill="#000000" stroke="#000000" points="837.4922,-569.7261 848.0706,-569.136 839.4331,-563.0006 837.4922,-569.7261"/>
</g>
<!-- GO:0044237 -->
<g id="node18" class="node">
<title>GO:0044237</title>
<polygon fill="#ffffff" stroke="#000000" points="830.1404,-625.0014 713.7748,-625.0014 713.7748,-566.1986 830.1404,-566.1986 830.1404,-625.0014"/>
<text text-anchor="middle" x="771.9576" y="-608.2" font-family="Times,serif" font-size="14.00" fill="#000000">GO:0044237</text>
<text text-anchor="middle" x="771.9576" y="-591.4" font-family="Times,serif" font-size="14.00" fill="#000000">cellular metabolic</text>
<text text-anchor="middle" x="771.9576" y="-574.6" font-family="Times,serif" font-size="14.00" fill="#000000">process</text>
</g>
<!-- GO:0042180&#45;&gt;GO:0044237 -->
<g id="edge22" class="edge">
<title>GO:0042180&#45;&gt;GO:0044237</title>
<path fill="none" stroke="#000000" d="M654.8148,-530.5513C672.4048,-540.3189 692.1486,-551.2825 710.3423,-561.3854"/>
<polygon fill="#000000" stroke="#000000" points="708.6914,-564.472 719.1331,-566.2669 712.0897,-558.3522 708.6914,-564.472"/>
</g>
<!-- GO:0044249&#45;&gt;GO:0009058 -->
<g id="edge23" class="edge">
<title>GO:0044249&#45;&gt;GO:0009058</title>
<path fill="none" stroke="#000000" d="M380.7259,-530.4819C363.3655,-540.5535 345.0183,-552.7696 329.9576,-566.4 306.0593,-588.0287 310.179,-602.4462 286.9576,-624.8 271.8781,-639.3161 253.2274,-652.7882 236.3875,-663.6729"/>
<polygon fill="#000000" stroke="#000000" points="234.3549,-660.8171 227.7748,-669.1209 238.0971,-666.7329 234.3549,-660.8171"/>
</g>
<!-- GO:0044249&#45;&gt;GO:0044237 -->
<g id="edge24" class="edge">
<title>GO:0044249&#45;&gt;GO:0044237</title>
<path fill="none" stroke="#000000" d="M505.0948,-527.6776C508.0743,-528.6436 511.0384,-529.5572 513.9576,-530.4 593.9527,-553.4954 620.4838,-541.9015 703.7994,-566.2994"/>
<polygon fill="#000000" stroke="#000000" points="702.8298,-569.6626 713.4145,-569.1987 704.8507,-562.9607 702.8298,-569.6626"/>
</g>
<!-- GO:0006720 -->
<g id="node19" class="node">
<title>GO:0006720</title>
<polygon fill="#ffffff" stroke="#000000" points="642.7649,-436.2014 509.1503,-436.2014 509.1503,-377.3986 642.7649,-377.3986 642.7649,-436.2014"/>
<text text-anchor="middle" x="575.9576" y="-419.4" font-family="Times,serif" font-size="14.00" fill="#000000">GO:0006720</text>
<text text-anchor="middle" x="575.9576" y="-402.6" font-family="Times,serif" font-size="14.00" fill="#000000">isoprenoid metabolic</text>
<text text-anchor="middle" x="575.9576" y="-385.8" font-family="Times,serif" font-size="14.00" fill="#000000">process</text>
</g>
<!-- GO:0006721&#45;&gt;GO:0006720 -->
<g id="edge25" class="edge">
<title>GO:0006721&#45;&gt;GO:0006720</title>
<path fill="none" stroke="#000000" d="M575.9576,-341.7513C575.9576,-349.8318 575.9576,-358.7308 575.9576,-367.2838"/>
<polygon fill="#000000" stroke="#000000" points="572.4577,-367.4668 575.9576,-377.4669 579.4577,-367.4669 572.4577,-367.4668"/>
</g>
<!-- GO:0008299&#45;&gt;GO:0044249 -->
<g id="edge28" class="edge">
<title>GO:0008299&#45;&gt;GO:0044249</title>
<path fill="none" stroke="#000000" d="M422.2389,-341.9C425.8296,-374.1825 431.6033,-426.0912 435.5786,-461.8305"/>
<polygon fill="#000000" stroke="#000000" points="432.1153,-462.3554 436.6994,-471.9072 439.0724,-461.5815 432.1153,-462.3554"/>
</g>
<!-- GO:0008299&#45;&gt;GO:0006720 -->
<g id="edge26" class="edge">
<title>GO:0008299&#45;&gt;GO:0006720</title>
<path fill="none" stroke="#000000" d="M467.7728,-341.7513C483.87,-351.4301 501.9202,-362.2833 518.5955,-372.3097"/>
<polygon fill="#000000" stroke="#000000" points="516.7989,-375.3134 527.1726,-377.4669 520.4061,-369.3143 516.7989,-375.3134"/>
</g>
<!-- GO:0008610 -->
<g id="node20" class="node">
<title>GO:0008610</title>
<polygon fill="#ffffff" stroke="#000000" points="208.5663,-530.6014 95.3489,-530.6014 95.3489,-471.7986 208.5663,-471.7986 208.5663,-530.6014"/>
<text text-anchor="middle" x="151.9576" y="-513.8" font-family="Times,serif" font-size="14.00" fill="#000000">GO:0008610</text>
<text text-anchor="middle" x="151.9576" y="-497" font-family="Times,serif" font-size="14.00" fill="#000000">lipid biosynthetic</text>
<text text-anchor="middle" x="151.9576" y="-480.2" font-family="Times,serif" font-size="14.00" fill="#000000">process</text>
</g>
<!-- GO:0008299&#45;&gt;GO:0008610 -->
<g id="edge27" class="edge">
<title>GO:0008299&#45;&gt;GO:0008610</title>
<path fill="none" stroke="#000000" d="M345.2081,-328.7408C311.1128,-338.8451 271.5052,-354.4295 240.9576,-377.6 211.0514,-400.284 186.9461,-435.8152 171.404,-462.9711"/>
<polygon fill="#000000" stroke="#000000" points="168.2782,-461.3902 166.4654,-471.8288 174.3921,-464.799 168.2782,-461.3902"/>
</g>
<!-- GO:0008152 -->
<g id="node21" class="node">
<title>GO:0008152</title>
<polygon fill="#ffffff" stroke="#000000" points="549.1432,-796.6019 432.772,-796.6019 432.772,-755.3981 549.1432,-755.3981 549.1432,-796.6019"/>
<text text-anchor="middle" x="490.9576" y="-780.2" font-family="Times,serif" font-size="14.00" fill="#000000">GO:0008152</text>
<text text-anchor="middle" x="490.9576" y="-763.4" font-family="Times,serif" font-size="14.00" fill="#000000">metabolic process</text>
</g>
<!-- GO:0071704&#45;&gt;GO:0008152 -->
<g id="edge29" class="edge">
<title>GO:0071704&#45;&gt;GO:0008152</title>
<path fill="none" stroke="#000000" d="M386.2317,-719.3558C404.7711,-729.3834 425.3524,-740.5154 443.3284,-750.2383"/>
<polygon fill="#000000" stroke="#000000" points="442.0056,-753.5019 452.4666,-755.1809 445.3359,-747.3449 442.0056,-753.5019"/>
</g>
<!-- GO:0009058&#45;&gt;GO:0008152 -->
<g id="edge30" class="edge">
<title>GO:0009058&#45;&gt;GO:0008152</title>
<path fill="none" stroke="#000000" d="M240.7948,-710.68C248.8124,-713.7126 257.0685,-716.6639 264.9576,-719.2 317.0569,-735.9482 377.1978,-750.8557 422.3359,-761.1917"/>
<polygon fill="#000000" stroke="#000000" points="421.7829,-764.6552 432.3098,-763.4572 423.3335,-757.829 421.7829,-764.6552"/>
</g>
<!-- GO:0044711&#45;&gt;GO:0009058 -->
<g id="edge32" class="edge">
<title>GO:0044711&#45;&gt;GO:0009058</title>
<path fill="none" stroke="#000000" d="M206.1173,-624.9513C203.5746,-635.8614 200.6843,-648.2637 198.1141,-659.292"/>
<polygon fill="#000000" stroke="#000000" points="194.631,-658.8175 195.7699,-669.351 201.4483,-660.4064 194.631,-658.8175"/>
</g>
<!-- GO:0044710 -->
<g id="node22" class="node">
<title>GO:0044710</title>
<polygon fill="#ffffff" stroke="#000000" points="573.3658,-719.4014 408.5494,-719.4014 408.5494,-660.5986 573.3658,-660.5986 573.3658,-719.4014"/>
<text text-anchor="middle" x="490.9576" y="-702.6" font-family="Times,serif" font-size="14.00" fill="#000000">GO:0044710</text>
<text text-anchor="middle" x="490.9576" y="-685.8" font-family="Times,serif" font-size="14.00" fill="#000000">single&#45;organism metabolic</text>
<text text-anchor="middle" x="490.9576" y="-669" font-family="Times,serif" font-size="14.00" fill="#000000">process</text>
</g>
<!-- GO:0044711&#45;&gt;GO:0044710 -->
<g id="edge31" class="edge">
<title>GO:0044711&#45;&gt;GO:0044710</title>
<path fill="none" stroke="#000000" d="M278.1362,-617.7326C314.0895,-629.9412 359.3253,-645.3018 398.837,-658.7188"/>
<polygon fill="#000000" stroke="#000000" points="397.891,-662.0937 408.4853,-661.995 400.1418,-655.4655 397.891,-662.0937"/>
</g>
<!-- GO:0044281&#45;&gt;GO:0044710 -->
<g id="edge33" class="edge">
<title>GO:0044281&#45;&gt;GO:0044710</title>
<path fill="none" stroke="#000000" d="M464.0837,-624.9513C467.5321,-633.2982 471.3413,-642.5184 474.9811,-651.3286"/>
<polygon fill="#000000" stroke="#000000" points="471.7858,-652.761 478.839,-660.6669 478.2555,-650.0881 471.7858,-652.761"/>
</g>
<!-- GO:0009987 -->
<g id="node23" class="node">
<title>GO:0009987</title>
<polygon fill="#ffffff" stroke="#000000" points="953.9138,-710.6019 850.0014,-710.6019 850.0014,-669.3981 953.9138,-669.3981 953.9138,-710.6019"/>
<text text-anchor="middle" x="901.9576" y="-694.2" font-family="Times,serif" font-size="14.00" fill="#000000">GO:0009987</text>
<text text-anchor="middle" x="901.9576" y="-677.4" font-family="Times,serif" font-size="14.00" fill="#000000">cellular process</text>
</g>
<!-- GO:0044763&#45;&gt;GO:0009987 -->
<g id="edge34" class="edge">
<title>GO:0044763&#45;&gt;GO:0009987</title>
<path fill="none" stroke="#000000" d="M917.1173,-624.9513C914.5746,-635.8614 911.6843,-648.2637 909.1141,-659.292"/>
<polygon fill="#000000" stroke="#000000" points="905.631,-658.8175 906.7699,-669.351 912.4483,-660.4064 905.631,-658.8175"/>
</g>
<!-- GO:0044699 -->
<g id="node24" class="node">
<title>GO:0044699</title>
<polygon fill="#ffffff" stroke="#000000" points="795.6389,-796.6019 644.2763,-796.6019 644.2763,-755.3981 795.6389,-755.3981 795.6389,-796.6019"/>
<text text-anchor="middle" x="719.9576" y="-780.2" font-family="Times,serif" font-size="14.00" fill="#000000">GO:0044699</text>
<text text-anchor="middle" x="719.9576" y="-763.4" font-family="Times,serif" font-size="14.00" fill="#000000">single&#45;organism process</text>
</g>
<!-- GO:0044763&#45;&gt;GO:0044699 -->
<g id="edge35" class="edge">
<title>GO:0044763&#45;&gt;GO:0044699</title>
<path fill="none" stroke="#000000" d="M881.9926,-625.0414C868.2408,-635.5855 853.3284,-648.0372 840.9576,-660.8 818.524,-683.9443 820.8093,-696.4684 797.9576,-719.2 786.9571,-730.1427 773.7059,-740.6026 761.2727,-749.4966"/>
<polygon fill="#000000" stroke="#000000" points="759.0279,-746.7952 752.8335,-755.3906 763.036,-752.5342 759.0279,-746.7952"/>
</g>
<!-- GO:0044237&#45;&gt;GO:0008152 -->
<g id="edge37" class="edge">
<title>GO:0044237&#45;&gt;GO:0008152</title>
<path fill="none" stroke="#000000" d="M779.463,-625.0269C784.6164,-652.6861 787.0609,-693.5614 764.9576,-719.2 751.5431,-734.7601 636.2257,-754.5564 559.5297,-766.1971"/>
<polygon fill="#000000" stroke="#000000" points="558.8133,-762.7654 549.4454,-767.7145 559.855,-769.6874 558.8133,-762.7654"/>
</g>
<!-- GO:0044237&#45;&gt;GO:0009987 -->
<g id="edge36" class="edge">
<title>GO:0044237&#45;&gt;GO:0009987</title>
<path fill="none" stroke="#000000" d="M812.3778,-624.9513C829.2611,-637.2112 848.739,-651.3551 865.2112,-663.3165"/>
<polygon fill="#000000" stroke="#000000" points="863.3732,-666.3072 873.5215,-669.351 867.4863,-660.6431 863.3732,-666.3072"/>
</g>
<!-- GO:0044255 -->
<g id="node25" class="node">
<title>GO:0044255</title>
<polygon fill="#ffffff" stroke="#000000" points="844.8119,-530.6014 699.1033,-530.6014 699.1033,-471.7986 844.8119,-471.7986 844.8119,-530.6014"/>
<text text-anchor="middle" x="771.9576" y="-513.8" font-family="Times,serif" font-size="14.00" fill="#000000">GO:0044255</text>
<text text-anchor="middle" x="771.9576" y="-497" font-family="Times,serif" font-size="14.00" fill="#000000">cellular lipid metabolic</text>
<text text-anchor="middle" x="771.9576" y="-480.2" font-family="Times,serif" font-size="14.00" fill="#000000">process</text>
</g>
<!-- GO:0006720&#45;&gt;GO:0044255 -->
<g id="edge38" class="edge">
<title>GO:0006720&#45;&gt;GO:0044255</title>
<path fill="none" stroke="#000000" d="M636.631,-436.0223C657.388,-446.0195 680.7717,-457.2819 702.1886,-467.597"/>
<polygon fill="#000000" stroke="#000000" points="700.7053,-470.7673 711.2335,-471.9533 703.7428,-464.4607 700.7053,-470.7673"/>
</g>
<!-- GO:0008610&#45;&gt;GO:1901576 -->
<g id="edge39" class="edge">
<title>GO:0008610&#45;&gt;GO:1901576</title>
<path fill="none" stroke="#000000" d="M124.9072,-530.5513C116.6417,-539.5198 107.4471,-549.4965 98.7904,-558.8894"/>
<polygon fill="#000000" stroke="#000000" points="96.1946,-556.5415 91.9913,-566.2669 101.342,-561.2854 96.1946,-556.5415"/>
</g>
<!-- GO:0008610&#45;&gt;GO:0044711 -->
<g id="edge40" class="edge">
<title>GO:0008610&#45;&gt;GO:0044711</title>
<path fill="none" stroke="#000000" d="M170.924,-530.5513C176.4898,-539.1646 182.6565,-548.7078 188.5129,-557.7708"/>
<polygon fill="#000000" stroke="#000000" points="185.6359,-559.7674 194.0029,-566.2669 191.5152,-555.9682 185.6359,-559.7674"/>
</g>
<!-- GO:0006629 -->
<g id="node26" class="node">
<title>GO:0006629</title>
<polygon fill="#ffffff" stroke="#000000" points="695.8147,-616.2019 550.1005,-616.2019 550.1005,-574.9981 695.8147,-574.9981 695.8147,-616.2019"/>
<text text-anchor="middle" x="622.9576" y="-599.8" font-family="Times,serif" font-size="14.00" fill="#000000">GO:0006629</text>
<text text-anchor="middle" x="622.9576" y="-583" font-family="Times,serif" font-size="14.00" fill="#000000">lipid metabolic process</text>
</g>
<!-- GO:0008610&#45;&gt;GO:0006629 -->
<g id="edge41" class="edge">
<title>GO:0008610&#45;&gt;GO:0006629</title>
<path fill="none" stroke="#000000" d="M208.8054,-527.6241C211.8707,-528.6477 214.9335,-529.5833 217.9576,-530.4 357.4064,-568.0594 400.204,-533.9558 540.9576,-566.4 547.4875,-567.9052 554.2156,-569.765 560.8772,-571.8115"/>
<polygon fill="#000000" stroke="#000000" points="559.9677,-575.1955 570.559,-574.9239 562.11,-568.5313 559.9677,-575.1955"/>
</g>
<!-- GO:0008150 -->
<g id="node27" class="node">
<title>GO:0008150</title>
<polygon fill="#ffffff" stroke="#000000" points="780.4282,-874.2019 659.487,-874.2019 659.487,-832.9981 780.4282,-832.9981 780.4282,-874.2019"/>
<text text-anchor="middle" x="719.9576" y="-857.8" font-family="Times,serif" font-size="14.00" fill="#000000">GO:0008150</text>
<text text-anchor="middle" x="719.9576" y="-841" font-family="Times,serif" font-size="14.00" fill="#000000">biological_process</text>
</g>
<!-- GO:0008152&#45;&gt;GO:0008150 -->
<g id="edge42" class="edge">
<title>GO:0008152&#45;&gt;GO:0008150</title>
<path fill="none" stroke="#000000" d="M549.3365,-795.7825C579.8395,-806.1189 617.4022,-818.8476 649.5112,-829.7282"/>
<polygon fill="#000000" stroke="#000000" points="648.6928,-833.1463 659.2872,-833.0409 650.9395,-826.5166 648.6928,-833.1463"/>
</g>
<!-- GO:0044710&#45;&gt;GO:0008152 -->
<g id="edge43" class="edge">
<title>GO:0044710&#45;&gt;GO:0008152</title>
<path fill="none" stroke="#000000" d="M490.9576,-719.5963C490.9576,-727.8638 490.9576,-736.8657 490.9576,-745.2008"/>
<polygon fill="#000000" stroke="#000000" points="487.4577,-745.2965 490.9576,-755.2966 494.4577,-745.2966 487.4577,-745.2965"/>
</g>
<!-- GO:0044710&#45;&gt;GO:0044699 -->
<g id="edge44" class="edge">
<title>GO:0044710&#45;&gt;GO:0044699</title>
<path fill="none" stroke="#000000" d="M568.8061,-719.2357C596.9835,-729.8176 628.4714,-741.6427 655.3835,-751.7495"/>
<polygon fill="#000000" stroke="#000000" points="654.4847,-755.1505 665.0768,-755.3898 656.9457,-748.5974 654.4847,-755.1505"/>
</g>
<!-- GO:0009987&#45;&gt;GO:0008150 -->
<g id="edge45" class="edge">
<title>GO:0009987&#45;&gt;GO:0008150</title>
<path fill="none" stroke="#000000" d="M885.7692,-710.6639C867.5114,-733.2526 836.2656,-769.8208 804.9576,-796.8 792.3843,-807.6348 777.6545,-818.1333 764.0215,-827.0953"/>
<polygon fill="#000000" stroke="#000000" points="761.7605,-824.3887 755.2547,-832.7508 765.5552,-830.2709 761.7605,-824.3887"/>
</g>
<!-- GO:0044699&#45;&gt;GO:0008150 -->
<g id="edge46" class="edge">
<title>GO:0044699&#45;&gt;GO:0008150</title>
<path fill="none" stroke="#000000" d="M719.9576,-796.7954C719.9576,-804.7109 719.9576,-813.9109 719.9576,-822.5722"/>
<polygon fill="#000000" stroke="#000000" points="716.4577,-822.7472 719.9576,-832.7472 723.4577,-822.7473 716.4577,-822.7472"/>
</g>
<!-- GO:0044255&#45;&gt;GO:0044763 -->
<g id="edge47" class="edge">
<title>GO:0044255&#45;&gt;GO:0044763</title>
<path fill="none" stroke="#000000" d="M819.2181,-530.5513C834.6597,-540.1413 851.9576,-550.8842 867.9776,-560.8335"/>
<polygon fill="#000000" stroke="#000000" points="866.3847,-563.9642 876.7263,-566.2669 870.0778,-558.0177 866.3847,-563.9642"/>
</g>
<!-- GO:0044255&#45;&gt;GO:0044237 -->
<g id="edge49" class="edge">
<title>GO:0044255&#45;&gt;GO:0044237</title>
<path fill="none" stroke="#000000" d="M771.9576,-530.5513C771.9576,-538.6318 771.9576,-547.5308 771.9576,-556.0838"/>
<polygon fill="#000000" stroke="#000000" points="768.4577,-556.2668 771.9576,-566.2669 775.4577,-556.2669 768.4577,-556.2668"/>
</g>
<!-- GO:0044255&#45;&gt;GO:0006629 -->
<g id="edge48" class="edge">
<title>GO:0044255&#45;&gt;GO:0006629</title>
<path fill="none" stroke="#000000" d="M725.6298,-530.5513C705.9239,-543.0361 683.134,-557.4748 664.0389,-569.5727"/>
<polygon fill="#000000" stroke="#000000" points="662.124,-566.6425 655.5498,-574.951 665.8703,-572.5556 662.124,-566.6425"/>
</g>
<!-- GO:0006629&#45;&gt;GO:0071704 -->
<g id="edge50" class="edge">
<title>GO:0006629&#45;&gt;GO:0071704</title>
<path fill="none" stroke="#000000" d="M567.167,-616.2411C558.4384,-619.2458 549.4857,-622.1989 540.9576,-624.8 479.0941,-643.6684 461.1909,-639.9771 399.9576,-660.8 399.8588,-660.8336 399.7599,-660.8673 399.6609,-660.9011"/>
<polygon fill="#000000" stroke="#000000" points="398.5675,-657.5748 390.3373,-664.2467 400.9319,-664.1635 398.5675,-657.5748"/>
</g>
<!-- GO:0006629&#45;&gt;GO:0044710 -->
<g id="edge51" class="edge">
<title>GO:0006629&#45;&gt;GO:0044710</title>
<path fill="none" stroke="#000000" d="M593.9896,-616.3165C578.1948,-627.6122 558.2162,-641.8999 540.0651,-654.8807"/>
<polygon fill="#000000" stroke="#000000" points="537.9736,-652.0734 531.8756,-660.7374 542.0456,-657.7673 537.9736,-652.0734"/>
</g>
<!-- GO:0044238 -->
<g id="node28" class="node">
<title>GO:0044238</title>
<polygon fill="#ffffff" stroke="#000000" points="755.9606,-710.6019 591.9546,-710.6019 591.9546,-669.3981 755.9606,-669.3981 755.9606,-710.6019"/>
<text text-anchor="middle" x="673.9576" y="-694.2" font-family="Times,serif" font-size="14.00" fill="#000000">GO:0044238</text>
<text text-anchor="middle" x="673.9576" y="-677.4" font-family="Times,serif" font-size="14.00" fill="#000000">primary metabolic process</text>
</g>
<!-- GO:0006629&#45;&gt;GO:0044238 -->
<g id="edge52" class="edge">
<title>GO:0006629&#45;&gt;GO:0044238</title>
<path fill="none" stroke="#000000" d="M634.2762,-616.5504C641.2091,-629.3831 650.1927,-646.0116 657.8584,-660.2006"/>
<polygon fill="#000000" stroke="#000000" points="654.8381,-661.9737 662.6707,-669.1081 660.9968,-658.6464 654.8381,-661.9737"/>
</g>
</g>
</svg>
