<?xml version="1.0" encoding="UTF-8" standalone="no"?>
<!DOCTYPE svg PUBLIC "-//W3C//DTD SVG 1.1//EN"
 "http://www.w3.org/Graphics/SVG/1.1/DTD/svg11.dtd">
<!-- Generated by graphviz version 2.40.1 (20161225.0304)
 -->
<!-- Title: G Pages: 1 -->
<svg width="280pt" height="410pt"
 viewBox="0.00 0.00 279.60 410.40" xmlns="http://www.w3.org/2000/svg" xmlns:xlink="http://www.w3.org/1999/xlink">
<g id="graph0" class="graph" transform="scale(1 1) rotate(0) translate(4 406.4)">
<title>G</title>
<polygon fill="#ffffff" stroke="transparent" points="-4,4 -4,-406.4 275.6035,-406.4 275.6035,4 -4,4"/>
<!-- GO:0045184 -->
<g id="node1" class="node">
<title>GO:0045184</title>
<polygon fill="#ffffff" stroke="#000000" points="151.4548,-153.0014 -.1518,-153.0014 -.1518,-94.1986 151.4548,-94.1986 151.4548,-153.0014"/>
<text text-anchor="middle" x="75.6515" y="-136.2" font-family="Times,serif" font-size="14.00" fill="#000000">GO:0045184</text>
<text text-anchor="middle" x="75.6515" y="-119.4" font-family="Times,serif" font-size="14.00" fill="#000000">establishment of protein</text>
<text text-anchor="middle" x="75.6515" y="-102.6" font-family="Times,serif" font-size="14.00" fill="#000000">localization</text>
</g>
<!-- GO:0051234 -->
<g id="node2" class="node">
<title>GO:0051234</title>
<polygon fill="#ffffff" stroke="#000000" points="198.7982,-247.4014 90.5048,-247.4014 90.5048,-188.5986 198.7982,-188.5986 198.7982,-247.4014"/>
<text text-anchor="middle" x="144.6515" y="-230.6" font-family="Times,serif" font-size="14.00" fill="#000000">GO:0051234</text>
<text text-anchor="middle" x="144.6515" y="-213.8" font-family="Times,serif" font-size="14.00" fill="#000000">establishment of</text>
<text text-anchor="middle" x="144.6515" y="-197" font-family="Times,serif" font-size="14.00" fill="#000000">localization</text>
</g>
<!-- GO:0045184&#45;&gt;GO:0051234 -->
<g id="edge1" class="edge">
<title>GO:0045184&#45;&gt;GO:0051234</title>
<path fill="none" stroke="#000000" d="M97.1053,-152.9513C103.4659,-161.6534 110.5204,-171.3047 117.2057,-180.4509"/>
<polygon fill="#000000" stroke="#000000" points="114.4842,-182.6589 123.211,-188.6669 120.1356,-178.5282 114.4842,-182.6589"/>
</g>
<!-- GO:0051179 -->
<g id="node3" class="node">
<title>GO:0051179</title>
<polygon fill="#ffffff" stroke="#000000" points="189.2554,-324.6019 100.0476,-324.6019 100.0476,-283.3981 189.2554,-283.3981 189.2554,-324.6019"/>
<text text-anchor="middle" x="144.6515" y="-308.2" font-family="Times,serif" font-size="14.00" fill="#000000">GO:0051179</text>
<text text-anchor="middle" x="144.6515" y="-291.4" font-family="Times,serif" font-size="14.00" fill="#000000">localization</text>
</g>
<!-- GO:0051234&#45;&gt;GO:0051179 -->
<g id="edge2" class="edge">
<title>GO:0051234&#45;&gt;GO:0051179</title>
<path fill="none" stroke="#000000" d="M144.6515,-247.5963C144.6515,-255.8638 144.6515,-264.8657 144.6515,-273.2008"/>
<polygon fill="#000000" stroke="#000000" points="141.1516,-273.2965 144.6515,-283.2966 148.1516,-273.2966 141.1516,-273.2965"/>
</g>
<!-- GO:0008150 -->
<g id="node4" class="node">
<title>GO:0008150</title>
<polygon fill="#ffffff" stroke="#000000" points="205.1221,-402.2019 84.1809,-402.2019 84.1809,-360.9981 205.1221,-360.9981 205.1221,-402.2019"/>
<text text-anchor="middle" x="144.6515" y="-385.8" font-family="Times,serif" font-size="14.00" fill="#000000">GO:0008150</text>
<text text-anchor="middle" x="144.6515" y="-369" font-family="Times,serif" font-size="14.00" fill="#000000">biological_process</text>
</g>
<!-- GO:0051179&#45;&gt;GO:0008150 -->
<g id="edge3" class="edge">
<title>GO:0051179&#45;&gt;GO:0008150</title>
<path fill="none" stroke="#000000" d="M144.6515,-324.7954C144.6515,-332.7109 144.6515,-341.9109 144.6515,-350.5722"/>
<polygon fill="#000000" stroke="#000000" points="141.1516,-350.7472 144.6515,-360.7472 148.1516,-350.7473 141.1516,-350.7472"/>
</g>
<!-- GO:0071702 -->
<g id="node5" class="node">
<title>GO:0071702</title>
<polygon fill="#ffffff" stroke="#000000" points="271.5555,-58.6014 155.7475,-58.6014 155.7475,.2014 271.5555,.2014 271.5555,-58.6014"/>
<text text-anchor="middle" x="213.6515" y="-41.8" font-family="Times,serif" font-size="14.00" fill="#000000">GO:0071702</text>
<text text-anchor="middle" x="213.6515" y="-25" font-family="Times,serif" font-size="14.00" fill="#000000">organic substance</text>
<text text-anchor="middle" x="213.6515" y="-8.2" font-family="Times,serif" font-size="14.00" fill="#000000">transport</text>
</g>
<!-- GO:0006810 -->
<g id="node6" class="node">
<title>GO:0006810</title>
<polygon fill="#ffffff" stroke="#000000" points="258.2554,-144.2019 169.0476,-144.2019 169.0476,-102.9981 258.2554,-102.9981 258.2554,-144.2019"/>
<text text-anchor="middle" x="213.6515" y="-127.8" font-family="Times,serif" font-size="14.00" fill="#000000">GO:0006810</text>
<text text-anchor="middle" x="213.6515" y="-111" font-family="Times,serif" font-size="14.00" fill="#000000">transport</text>
</g>
<!-- GO:0071702&#45;&gt;GO:0006810 -->
<g id="edge4" class="edge">
<title>GO:0071702&#45;&gt;GO:0006810</title>
<path fill="none" stroke="#000000" d="M213.6515,-58.5513C213.6515,-69.4614 213.6515,-81.8637 213.6515,-92.892"/>
<polygon fill="#000000" stroke="#000000" points="210.1516,-92.9509 213.6515,-102.951 217.1516,-92.951 210.1516,-92.9509"/>
</g>
<!-- GO:0006810&#45;&gt;GO:0051234 -->
<g id="edge5" class="edge">
<title>GO:0006810&#45;&gt;GO:0051234</title>
<path fill="none" stroke="#000000" d="M198.3382,-144.5504C190.6606,-155.0542 181.1242,-168.1011 172.2283,-180.2717"/>
<polygon fill="#000000" stroke="#000000" points="169.2781,-178.3768 166.2027,-188.5155 174.9294,-182.5076 169.2781,-178.3768"/>
</g>
</g>
</svg>
