<?xml version="1.0" encoding="UTF-8" standalone="no"?>
<!DOCTYPE svg PUBLIC "-//W3C//DTD SVG 1.1//EN"
 "http://www.w3.org/Graphics/SVG/1.1/DTD/svg11.dtd">
<!-- Generated by graphviz version 2.40.1 (20161225.0304)
 -->
<!-- Title: G Pages: 1 -->
<svg width="417pt" height="454pt"
 viewBox="0.00 0.00 416.73 454.40" xmlns="http://www.w3.org/2000/svg" xmlns:xlink="http://www.w3.org/1999/xlink">
<g id="graph0" class="graph" transform="scale(1 1) rotate(0) translate(4 450.4)">
<title>G</title>
<polygon fill="#ffffff" stroke="transparent" points="-4,4 -4,-450.4 412.7294,-450.4 412.7294,4 -4,4"/>
<!-- GO:0005654 -->
<g id="node1" class="node">
<title>GO:0005654</title>
<polygon fill="#ffffff" stroke="#000000" points="114.213,-41.4019 25.0052,-41.4019 25.0052,-.1981 114.213,-.1981 114.213,-41.4019"/>
<text text-anchor="middle" x="69.6091" y="-25" font-family="Times,serif" font-size="14.00" fill="#000000">GO:0005654</text>
<text text-anchor="middle" x="69.6091" y="-8.2" font-family="Times,serif" font-size="14.00" fill="#000000">nucleoplasm</text>
</g>
<!-- GO:0044428 -->
<g id="node2" class="node">
<title>GO:0044428</title>
<polygon fill="#ffffff" stroke="#000000" points="114.213,-119.0019 25.0052,-119.0019 25.0052,-77.7981 114.213,-77.7981 114.213,-119.0019"/>
<text text-anchor="middle" x="69.6091" y="-102.6" font-family="Times,serif" font-size="14.00" fill="#000000">GO:0044428</text>
<text text-anchor="middle" x="69.6091" y="-85.8" font-family="Times,serif" font-size="14.00" fill="#000000">nuclear part</text>
</g>
<!-- GO:0005654&#45;&gt;GO:0044428 -->
<g id="edge1" class="edge">
<title>GO:0005654&#45;&gt;GO:0044428</title>
<path fill="none" stroke="#000000" d="M69.6091,-41.5954C69.6091,-49.5109 69.6091,-58.7109 69.6091,-67.3722"/>
<polygon fill="#000000" stroke="#000000" points="66.1092,-67.5472 69.6091,-77.5472 73.1092,-67.5473 66.1092,-67.5472"/>
</g>
<!-- GO:0044446 -->
<g id="node3" class="node">
<title>GO:0044446</title>
<polygon fill="#ffffff" stroke="#000000" points="139.3275,-213.8014 -.1093,-213.8014 -.1093,-154.9986 139.3275,-154.9986 139.3275,-213.8014"/>
<text text-anchor="middle" x="69.6091" y="-197" font-family="Times,serif" font-size="14.00" fill="#000000">GO:0044446</text>
<text text-anchor="middle" x="69.6091" y="-180.2" font-family="Times,serif" font-size="14.00" fill="#000000">intracellular organelle</text>
<text text-anchor="middle" x="69.6091" y="-163.4" font-family="Times,serif" font-size="14.00" fill="#000000">part</text>
</g>
<!-- GO:0044428&#45;&gt;GO:0044446 -->
<g id="edge2" class="edge">
<title>GO:0044428&#45;&gt;GO:0044446</title>
<path fill="none" stroke="#000000" d="M69.6091,-119.2182C69.6091,-126.9358 69.6091,-135.9662 69.6091,-144.8036"/>
<polygon fill="#000000" stroke="#000000" points="66.1092,-144.9991 69.6091,-154.9991 73.1092,-144.9992 66.1092,-144.9991"/>
</g>
<!-- GO:0044424 -->
<g id="node4" class="node">
<title>GO:0044424</title>
<polygon fill="#ffffff" stroke="#000000" points="165.0075,-291.0019 56.2107,-291.0019 56.2107,-249.7981 165.0075,-249.7981 165.0075,-291.0019"/>
<text text-anchor="middle" x="110.6091" y="-274.6" font-family="Times,serif" font-size="14.00" fill="#000000">GO:0044424</text>
<text text-anchor="middle" x="110.6091" y="-257.8" font-family="Times,serif" font-size="14.00" fill="#000000">intracellular part</text>
</g>
<!-- GO:0044446&#45;&gt;GO:0044424 -->
<g id="edge3" class="edge">
<title>GO:0044446&#45;&gt;GO:0044424</title>
<path fill="none" stroke="#000000" d="M83.719,-213.9963C87.7918,-222.5393 92.2386,-231.8667 96.3221,-240.4321"/>
<polygon fill="#000000" stroke="#000000" points="93.2761,-242.1761 100.7389,-249.6966 99.5947,-239.1637 93.2761,-242.1761"/>
</g>
<!-- GO:0044422 -->
<g id="node5" class="node">
<title>GO:0044422</title>
<polygon fill="#ffffff" stroke="#000000" points="120.4612,-368.6019 26.757,-368.6019 26.757,-327.3981 120.4612,-327.3981 120.4612,-368.6019"/>
<text text-anchor="middle" x="73.6091" y="-352.2" font-family="Times,serif" font-size="14.00" fill="#000000">GO:0044422</text>
<text text-anchor="middle" x="73.6091" y="-335.4" font-family="Times,serif" font-size="14.00" fill="#000000">organelle part</text>
</g>
<!-- GO:0044446&#45;&gt;GO:0044422 -->
<g id="edge4" class="edge">
<title>GO:0044446&#45;&gt;GO:0044422</title>
<path fill="none" stroke="#000000" d="M56.8372,-213.9041C49.1751,-235.3698 41.9237,-265.1198 47.6091,-291.2 49.5895,-300.2846 53.1596,-309.655 57.0324,-318.1007"/>
<polygon fill="#000000" stroke="#000000" points="53.9322,-319.7285 61.465,-327.1788 60.2224,-316.6571 53.9322,-319.7285"/>
</g>
<!-- GO:0044464 -->
<g id="node6" class="node">
<title>GO:0044464</title>
<polygon fill="#ffffff" stroke="#000000" points="272.213,-368.6019 183.0052,-368.6019 183.0052,-327.3981 272.213,-327.3981 272.213,-368.6019"/>
<text text-anchor="middle" x="227.6091" y="-352.2" font-family="Times,serif" font-size="14.00" fill="#000000">GO:0044464</text>
<text text-anchor="middle" x="227.6091" y="-335.4" font-family="Times,serif" font-size="14.00" fill="#000000">cell part</text>
</g>
<!-- GO:0044424&#45;&gt;GO:0044464 -->
<g id="edge5" class="edge">
<title>GO:0044424&#45;&gt;GO:0044464</title>
<path fill="none" stroke="#000000" d="M141.963,-291.1954C155.9957,-300.5026 172.7063,-311.5858 187.6254,-321.4809"/>
<polygon fill="#000000" stroke="#000000" points="185.9005,-324.5367 196.1687,-327.1472 189.7696,-318.7031 185.9005,-324.5367"/>
</g>
<!-- GO:0005575 -->
<g id="node7" class="node">
<title>GO:0005575</title>
<polygon fill="#ffffff" stroke="#000000" points="291.2958,-446.2019 163.9224,-446.2019 163.9224,-404.9981 291.2958,-404.9981 291.2958,-446.2019"/>
<text text-anchor="middle" x="227.6091" y="-429.8" font-family="Times,serif" font-size="14.00" fill="#000000">GO:0005575</text>
<text text-anchor="middle" x="227.6091" y="-413" font-family="Times,serif" font-size="14.00" fill="#000000">cellular_component</text>
</g>
<!-- GO:0044422&#45;&gt;GO:0005575 -->
<g id="edge6" class="edge">
<title>GO:0044422&#45;&gt;GO:0005575</title>
<path fill="none" stroke="#000000" d="M114.8783,-368.7954C134.1165,-378.4895 157.1784,-390.1102 177.417,-400.3084"/>
<polygon fill="#000000" stroke="#000000" points="175.9879,-403.5075 186.4933,-404.8819 179.1379,-397.2563 175.9879,-403.5075"/>
</g>
<!-- GO:0044464&#45;&gt;GO:0005575 -->
<g id="edge10" class="edge">
<title>GO:0044464&#45;&gt;GO:0005575</title>
<path fill="none" stroke="#000000" d="M227.6091,-368.7954C227.6091,-376.7109 227.6091,-385.9109 227.6091,-394.5722"/>
<polygon fill="#000000" stroke="#000000" points="224.1092,-394.7472 227.6091,-404.7472 231.1092,-394.7473 224.1092,-394.7472"/>
</g>
<!-- GO:0005886 -->
<g id="node8" class="node">
<title>GO:0005886</title>
<polygon fill="#ffffff" stroke="#000000" points="408.8499,-291.0019 290.3683,-291.0019 290.3683,-249.7981 408.8499,-249.7981 408.8499,-291.0019"/>
<text text-anchor="middle" x="349.6091" y="-274.6" font-family="Times,serif" font-size="14.00" fill="#000000">GO:0005886</text>
<text text-anchor="middle" x="349.6091" y="-257.8" font-family="Times,serif" font-size="14.00" fill="#000000">plasma membrane</text>
</g>
<!-- GO:0005886&#45;&gt;GO:0044464 -->
<g id="edge8" class="edge">
<title>GO:0005886&#45;&gt;GO:0044464</title>
<path fill="none" stroke="#000000" d="M316.9153,-291.1954C302.1461,-300.5896 284.5323,-311.7931 268.8659,-321.758"/>
<polygon fill="#000000" stroke="#000000" points="266.9524,-318.827 260.3931,-327.1472 270.7093,-324.7334 266.9524,-318.827"/>
</g>
<!-- GO:0016020 -->
<g id="node9" class="node">
<title>GO:0016020</title>
<polygon fill="#ffffff" stroke="#000000" points="386.213,-368.6019 297.0052,-368.6019 297.0052,-327.3981 386.213,-327.3981 386.213,-368.6019"/>
<text text-anchor="middle" x="341.6091" y="-352.2" font-family="Times,serif" font-size="14.00" fill="#000000">GO:0016020</text>
<text text-anchor="middle" x="341.6091" y="-335.4" font-family="Times,serif" font-size="14.00" fill="#000000">membrane</text>
</g>
<!-- GO:0005886&#45;&gt;GO:0016020 -->
<g id="edge7" class="edge">
<title>GO:0005886&#45;&gt;GO:0016020</title>
<path fill="none" stroke="#000000" d="M347.4652,-291.1954C346.6492,-299.1109 345.7008,-308.3109 344.8078,-316.9722"/>
<polygon fill="#000000" stroke="#000000" points="341.3029,-316.841 343.7589,-327.1472 348.266,-317.5589 341.3029,-316.841"/>
</g>
<!-- GO:0016020&#45;&gt;GO:0005575 -->
<g id="edge9" class="edge">
<title>GO:0016020&#45;&gt;GO:0005575</title>
<path fill="none" stroke="#000000" d="M311.0592,-368.7954C297.3862,-378.1026 281.1042,-389.1858 266.5676,-399.0809"/>
<polygon fill="#000000" stroke="#000000" points="264.5404,-396.2268 258.2433,-404.7472 268.4794,-402.0134 264.5404,-396.2268"/>
</g>
<!-- GO:0005622 -->
<g id="node10" class="node">
<title>GO:0005622</title>
<polygon fill="#ffffff" stroke="#000000" points="272.213,-291.0019 183.0052,-291.0019 183.0052,-249.7981 272.213,-249.7981 272.213,-291.0019"/>
<text text-anchor="middle" x="227.6091" y="-274.6" font-family="Times,serif" font-size="14.00" fill="#000000">GO:0005622</text>
<text text-anchor="middle" x="227.6091" y="-257.8" font-family="Times,serif" font-size="14.00" fill="#000000">intracellular</text>
</g>
<!-- GO:0005622&#45;&gt;GO:0044464 -->
<g id="edge11" class="edge">
<title>GO:0005622&#45;&gt;GO:0044464</title>
<path fill="none" stroke="#000000" d="M227.6091,-291.1954C227.6091,-299.1109 227.6091,-308.3109 227.6091,-316.9722"/>
<polygon fill="#000000" stroke="#000000" points="224.1092,-317.1472 227.6091,-327.1472 231.1092,-317.1473 224.1092,-317.1472"/>
</g>
</g>
</svg>
