<?xml version="1.0" encoding="UTF-8" standalone="no"?>
<!DOCTYPE svg PUBLIC "-//W3C//DTD SVG 1.1//EN"
 "http://www.w3.org/Graphics/SVG/1.1/DTD/svg11.dtd">
<!-- Generated by graphviz version 2.40.1 (20161225.0304)
 -->
<!-- Title: G Pages: 1 -->
<svg width="825pt" height="410pt"
 viewBox="0.00 0.00 825.36 410.40" xmlns="http://www.w3.org/2000/svg" xmlns:xlink="http://www.w3.org/1999/xlink">
<g id="graph0" class="graph" transform="scale(1 1) rotate(0) translate(4 406.4)">
<title>G</title>
<polygon fill="#ffffff" stroke="transparent" points="-4,4 -4,-406.4 821.3563,-406.4 821.3563,4 -4,4"/>
<!-- GO:0045277 -->
<g id="node1" class="node">
<title>GO:0045277</title>
<polygon fill="#ffffff" stroke="#000000" points="314.0651,-58.6014 151.7309,-58.6014 151.7309,.2014 314.0651,.2014 314.0651,-58.6014"/>
<text text-anchor="middle" x="232.898" y="-41.8" font-family="Times,serif" font-size="14.00" fill="#000000">GO:0045277</text>
<text text-anchor="middle" x="232.898" y="-25" font-family="Times,serif" font-size="14.00" fill="#000000">respiratory chain complex</text>
<text text-anchor="middle" x="232.898" y="-8.2" font-family="Times,serif" font-size="14.00" fill="#000000">IV</text>
</g>
<!-- GO:0044424 -->
<g id="node2" class="node">
<title>GO:0044424</title>
<polygon fill="#ffffff" stroke="#000000" points="817.2964,-238.6019 708.4996,-238.6019 708.4996,-197.3981 817.2964,-197.3981 817.2964,-238.6019"/>
<text text-anchor="middle" x="762.898" y="-222.2" font-family="Times,serif" font-size="14.00" fill="#000000">GO:0044424</text>
<text text-anchor="middle" x="762.898" y="-205.4" font-family="Times,serif" font-size="14.00" fill="#000000">intracellular part</text>
</g>
<!-- GO:0045277&#45;&gt;GO:0044424 -->
<g id="edge1" class="edge">
<title>GO:0045277&#45;&gt;GO:0044424</title>
<path fill="none" stroke="#000000" d="M314.2592,-37.1726C382.2596,-45.7375 480.847,-62.6382 561.898,-94.4 624.4844,-118.926 689.4189,-162.7919 727.9778,-191.1284"/>
<polygon fill="#000000" stroke="#000000" points="726.1453,-194.127 736.2614,-197.2761 730.3171,-188.5059 726.1453,-194.127"/>
</g>
<!-- GO:0098803 -->
<g id="node3" class="node">
<title>GO:0098803</title>
<polygon fill="#ffffff" stroke="#000000" points="314.0651,-144.2019 151.7309,-144.2019 151.7309,-102.9981 314.0651,-102.9981 314.0651,-144.2019"/>
<text text-anchor="middle" x="232.898" y="-127.8" font-family="Times,serif" font-size="14.00" fill="#000000">GO:0098803</text>
<text text-anchor="middle" x="232.898" y="-111" font-family="Times,serif" font-size="14.00" fill="#000000">respiratory chain complex</text>
</g>
<!-- GO:0045277&#45;&gt;GO:0098803 -->
<g id="edge2" class="edge">
<title>GO:0045277&#45;&gt;GO:0098803</title>
<path fill="none" stroke="#000000" d="M232.898,-58.5513C232.898,-69.4614 232.898,-81.8637 232.898,-92.892"/>
<polygon fill="#000000" stroke="#000000" points="229.3981,-92.9509 232.898,-102.951 236.3981,-92.951 229.3981,-92.9509"/>
</g>
<!-- GO:0070069 -->
<g id="node4" class="node">
<title>GO:0070069</title>
<polygon fill="#ffffff" stroke="#000000" points="133.6942,-144.2019 .1018,-144.2019 .1018,-102.9981 133.6942,-102.9981 133.6942,-144.2019"/>
<text text-anchor="middle" x="66.898" y="-127.8" font-family="Times,serif" font-size="14.00" fill="#000000">GO:0070069</text>
<text text-anchor="middle" x="66.898" y="-111" font-family="Times,serif" font-size="14.00" fill="#000000">cytochrome complex</text>
</g>
<!-- GO:0045277&#45;&gt;GO:0070069 -->
<g id="edge3" class="edge">
<title>GO:0045277&#45;&gt;GO:0070069</title>
<path fill="none" stroke="#000000" d="M181.2845,-58.5513C159.1325,-71.1486 133.4824,-85.7351 112.0925,-97.8991"/>
<polygon fill="#000000" stroke="#000000" points="110.1713,-94.9651 103.2088,-102.951 113.6317,-101.0501 110.1713,-94.9651"/>
</g>
<!-- GO:0044464 -->
<g id="node5" class="node">
<title>GO:0044464</title>
<polygon fill="#ffffff" stroke="#000000" points="728.5019,-324.6019 639.2941,-324.6019 639.2941,-283.3981 728.5019,-283.3981 728.5019,-324.6019"/>
<text text-anchor="middle" x="683.898" y="-308.2" font-family="Times,serif" font-size="14.00" fill="#000000">GO:0044464</text>
<text text-anchor="middle" x="683.898" y="-291.4" font-family="Times,serif" font-size="14.00" fill="#000000">cell part</text>
</g>
<!-- GO:0044424&#45;&gt;GO:0044464 -->
<g id="edge4" class="edge">
<title>GO:0044424&#45;&gt;GO:0044464</title>
<path fill="none" stroke="#000000" d="M743.7743,-238.8182C733.5854,-249.9099 720.9056,-263.7132 709.841,-275.7583"/>
<polygon fill="#000000" stroke="#000000" points="707.0331,-273.6413 702.8456,-283.3735 712.1882,-278.3768 707.0331,-273.6413"/>
</g>
<!-- GO:0098796 -->
<g id="node6" class="node">
<title>GO:0098796</title>
<polygon fill="#ffffff" stroke="#000000" points="264.8504,-238.6019 94.9456,-238.6019 94.9456,-197.3981 264.8504,-197.3981 264.8504,-238.6019"/>
<text text-anchor="middle" x="179.898" y="-222.2" font-family="Times,serif" font-size="14.00" fill="#000000">GO:0098796</text>
<text text-anchor="middle" x="179.898" y="-205.4" font-family="Times,serif" font-size="14.00" fill="#000000">membrane protein complex</text>
</g>
<!-- GO:0098803&#45;&gt;GO:0098796 -->
<g id="edge5" class="edge">
<title>GO:0098803&#45;&gt;GO:0098796</title>
<path fill="none" stroke="#000000" d="M221.1356,-144.5504C213.9308,-157.3831 204.5949,-174.0116 196.6286,-188.2006"/>
<polygon fill="#000000" stroke="#000000" points="193.4713,-186.675 191.6275,-197.1081 199.5751,-190.1019 193.4713,-186.675"/>
</g>
<!-- GO:0043234 -->
<g id="node7" class="node">
<title>GO:0043234</title>
<polygon fill="#ffffff" stroke="#000000" points="177.7654,-324.6019 70.0306,-324.6019 70.0306,-283.3981 177.7654,-283.3981 177.7654,-324.6019"/>
<text text-anchor="middle" x="123.898" y="-308.2" font-family="Times,serif" font-size="14.00" fill="#000000">GO:0043234</text>
<text text-anchor="middle" x="123.898" y="-291.4" font-family="Times,serif" font-size="14.00" fill="#000000">protein complex</text>
</g>
<!-- GO:0070069&#45;&gt;GO:0043234 -->
<g id="edge6" class="edge">
<title>GO:0070069&#45;&gt;GO:0043234</title>
<path fill="none" stroke="#000000" d="M67.3589,-144.4294C68.5274,-169.5854 72.5146,-212.8044 85.898,-247.2 89.6732,-256.9024 95.3251,-266.627 101.1236,-275.2186"/>
<polygon fill="#000000" stroke="#000000" points="98.2728,-277.2493 106.9068,-283.3898 103.9866,-273.2053 98.2728,-277.2493"/>
</g>
<!-- GO:0005575 -->
<g id="node8" class="node">
<title>GO:0005575</title>
<polygon fill="#ffffff" stroke="#000000" points="640.5847,-402.2019 513.2113,-402.2019 513.2113,-360.9981 640.5847,-360.9981 640.5847,-402.2019"/>
<text text-anchor="middle" x="576.898" y="-385.8" font-family="Times,serif" font-size="14.00" fill="#000000">GO:0005575</text>
<text text-anchor="middle" x="576.898" y="-369" font-family="Times,serif" font-size="14.00" fill="#000000">cellular_component</text>
</g>
<!-- GO:0044464&#45;&gt;GO:0005575 -->
<g id="edge7" class="edge">
<title>GO:0044464&#45;&gt;GO:0005575</title>
<path fill="none" stroke="#000000" d="M655.224,-324.7954C642.5105,-334.0156 627.3937,-344.9788 613.8473,-354.8031"/>
<polygon fill="#000000" stroke="#000000" points="611.6916,-352.0429 605.6512,-360.7472 615.8012,-357.7096 611.6916,-352.0429"/>
</g>
<!-- GO:0098796&#45;&gt;GO:0043234 -->
<g id="edge8" class="edge">
<title>GO:0098796&#45;&gt;GO:0043234</title>
<path fill="none" stroke="#000000" d="M166.342,-238.8182C159.3258,-249.593 150.6434,-262.9267 142.963,-274.7216"/>
<polygon fill="#000000" stroke="#000000" points="139.853,-273.0836 137.3292,-283.3735 145.719,-276.9034 139.853,-273.0836"/>
</g>
<!-- GO:0044425 -->
<g id="node9" class="node">
<title>GO:0044425</title>
<polygon fill="#ffffff" stroke="#000000" points="424.25,-324.6019 323.546,-324.6019 323.546,-283.3981 424.25,-283.3981 424.25,-324.6019"/>
<text text-anchor="middle" x="373.898" y="-308.2" font-family="Times,serif" font-size="14.00" fill="#000000">GO:0044425</text>
<text text-anchor="middle" x="373.898" y="-291.4" font-family="Times,serif" font-size="14.00" fill="#000000">membrane part</text>
</g>
<!-- GO:0098796&#45;&gt;GO:0044425 -->
<g id="edge9" class="edge">
<title>GO:0098796&#45;&gt;GO:0044425</title>
<path fill="none" stroke="#000000" d="M226.86,-238.8182C254.3829,-251.0191 289.3072,-266.501 318.2123,-279.3146"/>
<polygon fill="#000000" stroke="#000000" points="316.808,-282.5205 327.3685,-283.3735 319.6449,-276.1211 316.808,-282.5205"/>
</g>
<!-- GO:0032991 -->
<g id="node10" class="node">
<title>GO:0032991</title>
<polygon fill="#ffffff" stroke="#000000" points="203.0653,-402.2019 44.7307,-402.2019 44.7307,-360.9981 203.0653,-360.9981 203.0653,-402.2019"/>
<text text-anchor="middle" x="123.898" y="-385.8" font-family="Times,serif" font-size="14.00" fill="#000000">GO:0032991</text>
<text text-anchor="middle" x="123.898" y="-369" font-family="Times,serif" font-size="14.00" fill="#000000">macromolecular complex</text>
</g>
<!-- GO:0043234&#45;&gt;GO:0032991 -->
<g id="edge10" class="edge">
<title>GO:0043234&#45;&gt;GO:0032991</title>
<path fill="none" stroke="#000000" d="M123.898,-324.7954C123.898,-332.7109 123.898,-341.9109 123.898,-350.5722"/>
<polygon fill="#000000" stroke="#000000" points="120.3981,-350.7472 123.898,-360.7472 127.3981,-350.7473 120.3981,-350.7472"/>
</g>
<!-- GO:0044425&#45;&gt;GO:0005575 -->
<g id="edge13" class="edge">
<title>GO:0044425&#45;&gt;GO:0005575</title>
<path fill="none" stroke="#000000" d="M424.0778,-323.182C450.9767,-333.4646 484.4013,-346.2417 513.1257,-357.222"/>
<polygon fill="#000000" stroke="#000000" points="512.0801,-360.5693 522.6707,-360.8707 514.5796,-354.0307 512.0801,-360.5693"/>
</g>
<!-- GO:0016021 -->
<g id="node11" class="node">
<title>GO:0016021</title>
<polygon fill="#ffffff" stroke="#000000" points="552.5311,-153.0014 413.2649,-153.0014 413.2649,-94.1986 552.5311,-94.1986 552.5311,-153.0014"/>
<text text-anchor="middle" x="482.898" y="-136.2" font-family="Times,serif" font-size="14.00" fill="#000000">GO:0016021</text>
<text text-anchor="middle" x="482.898" y="-119.4" font-family="Times,serif" font-size="14.00" fill="#000000">integral component of</text>
<text text-anchor="middle" x="482.898" y="-102.6" font-family="Times,serif" font-size="14.00" fill="#000000">membrane</text>
</g>
<!-- GO:0031224 -->
<g id="node12" class="node">
<title>GO:0031224</title>
<polygon fill="#ffffff" stroke="#000000" points="554.1514,-247.4014 411.6446,-247.4014 411.6446,-188.5986 554.1514,-188.5986 554.1514,-247.4014"/>
<text text-anchor="middle" x="482.898" y="-230.6" font-family="Times,serif" font-size="14.00" fill="#000000">GO:0031224</text>
<text text-anchor="middle" x="482.898" y="-213.8" font-family="Times,serif" font-size="14.00" fill="#000000">intrinsic component of</text>
<text text-anchor="middle" x="482.898" y="-197" font-family="Times,serif" font-size="14.00" fill="#000000">membrane</text>
</g>
<!-- GO:0016021&#45;&gt;GO:0031224 -->
<g id="edge11" class="edge">
<title>GO:0016021&#45;&gt;GO:0031224</title>
<path fill="none" stroke="#000000" d="M482.898,-152.9513C482.898,-161.0318 482.898,-169.9308 482.898,-178.4838"/>
<polygon fill="#000000" stroke="#000000" points="479.3981,-178.6668 482.898,-188.6669 486.3981,-178.6669 479.3981,-178.6668"/>
</g>
<!-- GO:0031224&#45;&gt;GO:0044425 -->
<g id="edge12" class="edge">
<title>GO:0031224&#45;&gt;GO:0044425</title>
<path fill="none" stroke="#000000" d="M445.6912,-247.3558C433.5648,-256.9234 420.1641,-267.4964 408.2563,-276.8916"/>
<polygon fill="#000000" stroke="#000000" points="405.9677,-274.2391 400.2849,-283.1809 410.3036,-279.7345 405.9677,-274.2391"/>
</g>
<!-- GO:0005886 -->
<g id="node13" class="node">
<title>GO:0005886</title>
<polygon fill="#ffffff" stroke="#000000" points="690.1388,-238.6019 571.6572,-238.6019 571.6572,-197.3981 690.1388,-197.3981 690.1388,-238.6019"/>
<text text-anchor="middle" x="630.898" y="-222.2" font-family="Times,serif" font-size="14.00" fill="#000000">GO:0005886</text>
<text text-anchor="middle" x="630.898" y="-205.4" font-family="Times,serif" font-size="14.00" fill="#000000">plasma membrane</text>
</g>
<!-- GO:0005886&#45;&gt;GO:0044464 -->
<g id="edge15" class="edge">
<title>GO:0005886&#45;&gt;GO:0044464</title>
<path fill="none" stroke="#000000" d="M643.7278,-238.8182C650.3681,-249.593 658.5854,-262.9267 665.8544,-274.7216"/>
<polygon fill="#000000" stroke="#000000" points="662.9602,-276.6966 671.1863,-283.3735 668.9194,-273.024 662.9602,-276.6966"/>
</g>
<!-- GO:0016020 -->
<g id="node14" class="node">
<title>GO:0016020</title>
<polygon fill="#ffffff" stroke="#000000" points="621.5019,-324.6019 532.2941,-324.6019 532.2941,-283.3981 621.5019,-283.3981 621.5019,-324.6019"/>
<text text-anchor="middle" x="576.898" y="-308.2" font-family="Times,serif" font-size="14.00" fill="#000000">GO:0016020</text>
<text text-anchor="middle" x="576.898" y="-291.4" font-family="Times,serif" font-size="14.00" fill="#000000">membrane</text>
</g>
<!-- GO:0005886&#45;&gt;GO:0016020 -->
<g id="edge14" class="edge">
<title>GO:0005886&#45;&gt;GO:0016020</title>
<path fill="none" stroke="#000000" d="M617.8261,-238.8182C611.0605,-249.593 602.6882,-262.9267 595.2821,-274.7216"/>
<polygon fill="#000000" stroke="#000000" points="592.2031,-273.0434 589.8495,-283.3735 598.1314,-276.7658 592.2031,-273.0434"/>
</g>
<!-- GO:0016020&#45;&gt;GO:0005575 -->
<g id="edge16" class="edge">
<title>GO:0016020&#45;&gt;GO:0005575</title>
<path fill="none" stroke="#000000" d="M576.898,-324.7954C576.898,-332.7109 576.898,-341.9109 576.898,-350.5722"/>
<polygon fill="#000000" stroke="#000000" points="573.3981,-350.7472 576.898,-360.7472 580.3981,-350.7473 573.3981,-350.7472"/>
</g>
<!-- GO:0070469 -->
<g id="node15" class="node">
<title>GO:0070469</title>
<polygon fill="#ffffff" stroke="#000000" points="393.3555,-238.6019 282.4405,-238.6019 282.4405,-197.3981 393.3555,-197.3981 393.3555,-238.6019"/>
<text text-anchor="middle" x="337.898" y="-222.2" font-family="Times,serif" font-size="14.00" fill="#000000">GO:0070469</text>
<text text-anchor="middle" x="337.898" y="-205.4" font-family="Times,serif" font-size="14.00" fill="#000000">respiratory chain</text>
</g>
<!-- GO:0070469&#45;&gt;GO:0044425 -->
<g id="edge17" class="edge">
<title>GO:0070469&#45;&gt;GO:0044425</title>
<path fill="none" stroke="#000000" d="M346.6126,-238.8182C351.0345,-249.3818 356.486,-262.4048 361.3508,-274.0261"/>
<polygon fill="#000000" stroke="#000000" points="358.1737,-275.5006 365.2637,-283.3735 364.6308,-272.7976 358.1737,-275.5006"/>
</g>
<!-- GO:0005829 -->
<g id="node16" class="node">
<title>GO:0005829</title>
<polygon fill="#ffffff" stroke="#000000" points="807.5019,-49.8019 718.2941,-49.8019 718.2941,-8.5981 807.5019,-8.5981 807.5019,-49.8019"/>
<text text-anchor="middle" x="762.898" y="-33.4" font-family="Times,serif" font-size="14.00" fill="#000000">GO:0005829</text>
<text text-anchor="middle" x="762.898" y="-16.6" font-family="Times,serif" font-size="14.00" fill="#000000">cytosol</text>
</g>
<!-- GO:0044444 -->
<g id="node17" class="node">
<title>GO:0044444</title>
<polygon fill="#ffffff" stroke="#000000" points="817.3146,-144.2019 708.4814,-144.2019 708.4814,-102.9981 817.3146,-102.9981 817.3146,-144.2019"/>
<text text-anchor="middle" x="762.898" y="-127.8" font-family="Times,serif" font-size="14.00" fill="#000000">GO:0044444</text>
<text text-anchor="middle" x="762.898" y="-111" font-family="Times,serif" font-size="14.00" fill="#000000">cytoplasmic part</text>
</g>
<!-- GO:0005829&#45;&gt;GO:0044444 -->
<g id="edge18" class="edge">
<title>GO:0005829&#45;&gt;GO:0044444</title>
<path fill="none" stroke="#000000" d="M762.898,-50.1504C762.898,-62.6165 762.898,-78.6645 762.898,-92.5786"/>
<polygon fill="#000000" stroke="#000000" points="759.3981,-92.7081 762.898,-102.7081 766.3981,-92.7082 759.3981,-92.7081"/>
</g>
<!-- GO:0044444&#45;&gt;GO:0044424 -->
<g id="edge19" class="edge">
<title>GO:0044444&#45;&gt;GO:0044424</title>
<path fill="none" stroke="#000000" d="M762.898,-144.5504C762.898,-157.0165 762.898,-173.0645 762.898,-186.9786"/>
<polygon fill="#000000" stroke="#000000" points="759.3981,-187.1081 762.898,-197.1081 766.3981,-187.1082 759.3981,-187.1081"/>
</g>
</g>
</svg>
