<?xml version="1.0" encoding="UTF-8" standalone="no"?>
<!DOCTYPE svg PUBLIC "-//W3C//DTD SVG 1.1//EN"
 "http://www.w3.org/Graphics/SVG/1.1/DTD/svg11.dtd">
<!-- Generated by graphviz version 2.40.1 (20161225.0304)
 -->
<!-- Title: G Pages: 1 -->
<svg width="946pt" height="366pt"
 viewBox="0.00 0.00 945.91 366.40" xmlns="http://www.w3.org/2000/svg" xmlns:xlink="http://www.w3.org/1999/xlink">
<g id="graph0" class="graph" transform="scale(1 1) rotate(0) translate(4 362.4)">
<title>G</title>
<polygon fill="#ffffff" stroke="transparent" points="-4,4 -4,-362.4 941.9054,-362.4 941.9054,4 -4,4"/>
<!-- GO:0043169 -->
<g id="node1" class="node">
<title>GO:0043169</title>
<polygon fill="#ffffff" stroke="#000000" points="381.5571,-66.6019 284.5713,-66.6019 284.5713,-25.3981 381.5571,-25.3981 381.5571,-66.6019"/>
<text text-anchor="middle" x="333.0642" y="-50.2" font-family="Times,serif" font-size="14.00" fill="#000000">GO:0043169</text>
<text text-anchor="middle" x="333.0642" y="-33.4" font-family="Times,serif" font-size="14.00" fill="#000000">cation binding</text>
</g>
<!-- GO:0043167 -->
<g id="node2" class="node">
<title>GO:0043167</title>
<polygon fill="#ffffff" stroke="#000000" points="413.6681,-177.8019 324.4603,-177.8019 324.4603,-136.5981 413.6681,-136.5981 413.6681,-177.8019"/>
<text text-anchor="middle" x="369.0642" y="-161.4" font-family="Times,serif" font-size="14.00" fill="#000000">GO:0043167</text>
<text text-anchor="middle" x="369.0642" y="-144.6" font-family="Times,serif" font-size="14.00" fill="#000000">ion binding</text>
</g>
<!-- GO:0043169&#45;&gt;GO:0043167 -->
<g id="edge1" class="edge">
<title>GO:0043169&#45;&gt;GO:0043167</title>
<path fill="none" stroke="#000000" d="M339.7512,-66.6553C345.1978,-83.4792 352.9684,-107.4819 359.1407,-126.5473"/>
<polygon fill="#000000" stroke="#000000" points="355.8809,-127.8422 362.2909,-136.278 362.5407,-125.6861 355.8809,-127.8422"/>
</g>
<!-- GO:0005488 -->
<g id="node3" class="node">
<title>GO:0005488</title>
<polygon fill="#ffffff" stroke="#000000" points="527.6681,-272.2019 438.4603,-272.2019 438.4603,-230.9981 527.6681,-230.9981 527.6681,-272.2019"/>
<text text-anchor="middle" x="483.0642" y="-255.8" font-family="Times,serif" font-size="14.00" fill="#000000">GO:0005488</text>
<text text-anchor="middle" x="483.0642" y="-239" font-family="Times,serif" font-size="14.00" fill="#000000">binding</text>
</g>
<!-- GO:0043167&#45;&gt;GO:0005488 -->
<g id="edge2" class="edge">
<title>GO:0043167&#45;&gt;GO:0005488</title>
<path fill="none" stroke="#000000" d="M394.082,-177.9165C410.5649,-191.5655 432.3233,-209.583 450.1982,-224.3846"/>
<polygon fill="#000000" stroke="#000000" points="448.1704,-227.2497 458.1048,-230.9318 452.6349,-221.8582 448.1704,-227.2497"/>
</g>
<!-- GO:0003674 -->
<g id="node4" class="node">
<title>GO:0003674</title>
<polygon fill="#ffffff" stroke="#000000" points="675.6973,-358.2019 550.4311,-358.2019 550.4311,-316.9981 675.6973,-316.9981 675.6973,-358.2019"/>
<text text-anchor="middle" x="613.0642" y="-341.8" font-family="Times,serif" font-size="14.00" fill="#000000">GO:0003674</text>
<text text-anchor="middle" x="613.0642" y="-325" font-family="Times,serif" font-size="14.00" fill="#000000">molecular_function</text>
</g>
<!-- GO:0005488&#45;&gt;GO:0003674 -->
<g id="edge3" class="edge">
<title>GO:0005488&#45;&gt;GO:0003674</title>
<path fill="none" stroke="#000000" d="M514.5336,-272.4182C532.2582,-284.1437 554.5636,-298.8996 573.4672,-311.4051"/>
<polygon fill="#000000" stroke="#000000" points="571.6133,-314.3752 581.8846,-316.9735 575.4755,-308.537 571.6133,-314.3752"/>
</g>
<!-- GO:0022892 -->
<g id="node5" class="node">
<title>GO:0022892</title>
<polygon fill="#ffffff" stroke="#000000" points="122.1927,-186.6014 -.0643,-186.6014 -.0643,-127.7986 122.1927,-127.7986 122.1927,-186.6014"/>
<text text-anchor="middle" x="61.0642" y="-169.8" font-family="Times,serif" font-size="14.00" fill="#000000">GO:0022892</text>
<text text-anchor="middle" x="61.0642" y="-153" font-family="Times,serif" font-size="14.00" fill="#000000">substrate&#45;specific</text>
<text text-anchor="middle" x="61.0642" y="-136.2" font-family="Times,serif" font-size="14.00" fill="#000000">transporter activity</text>
</g>
<!-- GO:0005215 -->
<g id="node6" class="node">
<title>GO:0005215</title>
<polygon fill="#ffffff" stroke="#000000" points="284.1927,-272.2019 161.9357,-272.2019 161.9357,-230.9981 284.1927,-230.9981 284.1927,-272.2019"/>
<text text-anchor="middle" x="223.0642" y="-255.8" font-family="Times,serif" font-size="14.00" fill="#000000">GO:0005215</text>
<text text-anchor="middle" x="223.0642" y="-239" font-family="Times,serif" font-size="14.00" fill="#000000">transporter activity</text>
</g>
<!-- GO:0022892&#45;&gt;GO:0005215 -->
<g id="edge4" class="edge">
<title>GO:0022892&#45;&gt;GO:0005215</title>
<path fill="none" stroke="#000000" d="M111.434,-186.5513C133.0522,-199.1486 158.0842,-213.7351 178.9588,-225.8991"/>
<polygon fill="#000000" stroke="#000000" points="177.2261,-228.9402 187.6284,-230.951 180.7504,-222.8922 177.2261,-228.9402"/>
</g>
<!-- GO:0005215&#45;&gt;GO:0003674 -->
<g id="edge5" class="edge">
<title>GO:0005215&#45;&gt;GO:0003674</title>
<path fill="none" stroke="#000000" d="M284.4307,-265.1321C353.6782,-280.4021 466.2466,-305.2248 539.9801,-321.484"/>
<polygon fill="#000000" stroke="#000000" points="539.5988,-324.984 550.1179,-323.7195 541.1063,-318.1482 539.5988,-324.984"/>
</g>
<!-- GO:0016788 -->
<g id="node7" class="node">
<title>GO:0016788</title>
<polygon fill="#ffffff" stroke="#000000" points="705.1449,-75.4014 570.9835,-75.4014 570.9835,-16.5986 705.1449,-16.5986 705.1449,-75.4014"/>
<text text-anchor="middle" x="638.0642" y="-58.6" font-family="Times,serif" font-size="14.00" fill="#000000">GO:0016788</text>
<text text-anchor="middle" x="638.0642" y="-41.8" font-family="Times,serif" font-size="14.00" fill="#000000">hydrolase activity,</text>
<text text-anchor="middle" x="638.0642" y="-25" font-family="Times,serif" font-size="14.00" fill="#000000">acting on ester bonds</text>
</g>
<!-- GO:0016787 -->
<g id="node8" class="node">
<title>GO:0016787</title>
<polygon fill="#ffffff" stroke="#000000" points="684.9808,-177.8019 569.1476,-177.8019 569.1476,-136.5981 684.9808,-136.5981 684.9808,-177.8019"/>
<text text-anchor="middle" x="627.0642" y="-161.4" font-family="Times,serif" font-size="14.00" fill="#000000">GO:0016787</text>
<text text-anchor="middle" x="627.0642" y="-144.6" font-family="Times,serif" font-size="14.00" fill="#000000">hydrolase activity</text>
</g>
<!-- GO:0016788&#45;&gt;GO:0016787 -->
<g id="edge6" class="edge">
<title>GO:0016788&#45;&gt;GO:0016787</title>
<path fill="none" stroke="#000000" d="M635.1741,-75.2165C633.6328,-90.797 631.7357,-109.9758 630.1639,-125.8653"/>
<polygon fill="#000000" stroke="#000000" points="626.6375,-125.9596 629.136,-136.2556 633.6035,-126.6487 626.6375,-125.9596"/>
</g>
<!-- GO:0003824 -->
<g id="node9" class="node">
<title>GO:0003824</title>
<polygon fill="#ffffff" stroke="#000000" points="667.4766,-272.2019 558.6518,-272.2019 558.6518,-230.9981 667.4766,-230.9981 667.4766,-272.2019"/>
<text text-anchor="middle" x="613.0642" y="-255.8" font-family="Times,serif" font-size="14.00" fill="#000000">GO:0003824</text>
<text text-anchor="middle" x="613.0642" y="-239" font-family="Times,serif" font-size="14.00" fill="#000000">catalytic activity</text>
</g>
<!-- GO:0016787&#45;&gt;GO:0003824 -->
<g id="edge7" class="edge">
<title>GO:0016787&#45;&gt;GO:0003824</title>
<path fill="none" stroke="#000000" d="M623.9571,-178.1504C622.1084,-190.6165 619.7284,-206.6645 617.6648,-220.5786"/>
<polygon fill="#000000" stroke="#000000" points="614.1675,-220.3029 616.1626,-230.7081 621.0918,-221.3298 614.1675,-220.3029"/>
</g>
<!-- GO:0003824&#45;&gt;GO:0003674 -->
<g id="edge8" class="edge">
<title>GO:0003824&#45;&gt;GO:0003674</title>
<path fill="none" stroke="#000000" d="M613.0642,-272.4182C613.0642,-282.7705 613.0642,-295.4848 613.0642,-306.9271"/>
<polygon fill="#000000" stroke="#000000" points="609.5643,-306.9735 613.0642,-316.9735 616.5643,-306.9735 609.5643,-306.9735"/>
</g>
<!-- GO:0016701 -->
<g id="node10" class="node">
<title>GO:0016701</title>
<polygon fill="#ffffff" stroke="#000000" points="872.8008,-92 723.3276,-92 723.3276,0 872.8008,0 872.8008,-92"/>
<text text-anchor="middle" x="798.0642" y="-75.4" font-family="Times,serif" font-size="14.00" fill="#000000">GO:0016701</text>
<text text-anchor="middle" x="798.0642" y="-58.6" font-family="Times,serif" font-size="14.00" fill="#000000">oxidoreductase activity,</text>
<text text-anchor="middle" x="798.0642" y="-41.8" font-family="Times,serif" font-size="14.00" fill="#000000">acting on single donors</text>
<text text-anchor="middle" x="798.0642" y="-25" font-family="Times,serif" font-size="14.00" fill="#000000">with incorporation of</text>
<text text-anchor="middle" x="798.0642" y="-8.2" font-family="Times,serif" font-size="14.00" fill="#000000">molecular oxygen</text>
</g>
<!-- GO:0016491 -->
<g id="node11" class="node">
<title>GO:0016491</title>
<polygon fill="#ffffff" stroke="#000000" points="863.3008,-177.8019 716.8276,-177.8019 716.8276,-136.5981 863.3008,-136.5981 863.3008,-177.8019"/>
<text text-anchor="middle" x="790.0642" y="-161.4" font-family="Times,serif" font-size="14.00" fill="#000000">GO:0016491</text>
<text text-anchor="middle" x="790.0642" y="-144.6" font-family="Times,serif" font-size="14.00" fill="#000000">oxidoreductase activity</text>
</g>
<!-- GO:0016701&#45;&gt;GO:0016491 -->
<g id="edge9" class="edge">
<title>GO:0016701&#45;&gt;GO:0016491</title>
<path fill="none" stroke="#000000" d="M794.741,-92.1928C793.9103,-103.7393 793.0395,-115.8433 792.2776,-126.4342"/>
<polygon fill="#000000" stroke="#000000" points="788.7841,-126.2187 791.5574,-136.4441 795.7661,-126.7211 788.7841,-126.2187"/>
</g>
<!-- GO:0016491&#45;&gt;GO:0003824 -->
<g id="edge10" class="edge">
<title>GO:0016491&#45;&gt;GO:0003824</title>
<path fill="none" stroke="#000000" d="M751.2208,-177.9165C724.5914,-192.1188 689.0935,-211.0511 660.7483,-226.1685"/>
<polygon fill="#000000" stroke="#000000" points="658.9935,-223.1377 651.817,-230.9318 662.2876,-229.3142 658.9935,-223.1377"/>
</g>
<!-- GO:0022857 -->
<g id="node12" class="node">
<title>GO:0022857</title>
<polygon fill="#ffffff" stroke="#000000" points="306.4976,-186.6014 139.6308,-186.6014 139.6308,-127.7986 306.4976,-127.7986 306.4976,-186.6014"/>
<text text-anchor="middle" x="223.0642" y="-169.8" font-family="Times,serif" font-size="14.00" fill="#000000">GO:0022857</text>
<text text-anchor="middle" x="223.0642" y="-153" font-family="Times,serif" font-size="14.00" fill="#000000">transmembrane transporter</text>
<text text-anchor="middle" x="223.0642" y="-136.2" font-family="Times,serif" font-size="14.00" fill="#000000">activity</text>
</g>
<!-- GO:0022857&#45;&gt;GO:0005215 -->
<g id="edge11" class="edge">
<title>GO:0022857&#45;&gt;GO:0005215</title>
<path fill="none" stroke="#000000" d="M223.0642,-186.5513C223.0642,-197.4614 223.0642,-209.8637 223.0642,-220.892"/>
<polygon fill="#000000" stroke="#000000" points="219.5643,-220.9509 223.0642,-230.951 226.5643,-220.951 219.5643,-220.9509"/>
</g>
<!-- GO:0004871 -->
<g id="node13" class="node">
<title>GO:0004871</title>
<polygon fill="#ffffff" stroke="#000000" points="796.8051,-281.0014 685.3233,-281.0014 685.3233,-222.1986 796.8051,-222.1986 796.8051,-281.0014"/>
<text text-anchor="middle" x="741.0642" y="-264.2" font-family="Times,serif" font-size="14.00" fill="#000000">GO:0004871</text>
<text text-anchor="middle" x="741.0642" y="-247.4" font-family="Times,serif" font-size="14.00" fill="#000000">signal transducer</text>
<text text-anchor="middle" x="741.0642" y="-230.6" font-family="Times,serif" font-size="14.00" fill="#000000">activity</text>
</g>
<!-- GO:0004871&#45;&gt;GO:0003674 -->
<g id="edge12" class="edge">
<title>GO:0004871&#45;&gt;GO:0003674</title>
<path fill="none" stroke="#000000" d="M697.3719,-280.9558C682.8578,-290.7074 666.7893,-301.5035 652.6068,-311.0323"/>
<polygon fill="#000000" stroke="#000000" points="650.3993,-308.2988 644.0507,-316.7809 654.3031,-314.1092 650.3993,-308.2988"/>
</g>
<!-- GO:0005198 -->
<g id="node14" class="node">
<title>GO:0005198</title>
<polygon fill="#00ffff" stroke="#000000" points="937.747,-281.0014 814.3814,-281.0014 814.3814,-222.1986 937.747,-222.1986 937.747,-281.0014"/>
<text text-anchor="middle" x="876.0642" y="-264.2" font-family="Times,serif" font-size="14.00" fill="#000000">GO:0005198</text>
<text text-anchor="middle" x="876.0642" y="-247.4" font-family="Times,serif" font-size="14.00" fill="#000000">structural molecule</text>
<text text-anchor="middle" x="876.0642" y="-230.6" font-family="Times,serif" font-size="14.00" fill="#000000">activity</text>
</g>
<!-- GO:0005198&#45;&gt;GO:0003674 -->
<g id="edge13" class="edge">
<title>GO:0005198&#45;&gt;GO:0003674</title>
<path fill="none" stroke="#000000" d="M814.37,-277.7638C811.5726,-278.8147 808.7946,-279.832 806.0642,-280.8 766.7953,-294.7221 722.2182,-308.0023 685.8056,-318.2159"/>
<polygon fill="#000000" stroke="#000000" points="684.4571,-314.9582 675.7631,-321.0134 686.3356,-321.7015 684.4571,-314.9582"/>
</g>
<!-- GO:0042802 -->
<g id="node15" class="node">
<title>GO:0042802</title>
<polygon fill="#ffffff" stroke="#000000" points="552.7084,-66.6019 399.42,-66.6019 399.42,-25.3981 552.7084,-25.3981 552.7084,-66.6019"/>
<text text-anchor="middle" x="476.0642" y="-50.2" font-family="Times,serif" font-size="14.00" fill="#000000">GO:0042802</text>
<text text-anchor="middle" x="476.0642" y="-33.4" font-family="Times,serif" font-size="14.00" fill="#000000">identical protein binding</text>
</g>
<!-- GO:0005515 -->
<g id="node16" class="node">
<title>GO:0005515</title>
<polygon fill="#ffffff" stroke="#000000" points="534.0018,-177.8019 432.1266,-177.8019 432.1266,-136.5981 534.0018,-136.5981 534.0018,-177.8019"/>
<text text-anchor="middle" x="483.0642" y="-161.4" font-family="Times,serif" font-size="14.00" fill="#000000">GO:0005515</text>
<text text-anchor="middle" x="483.0642" y="-144.6" font-family="Times,serif" font-size="14.00" fill="#000000">protein binding</text>
</g>
<!-- GO:0042802&#45;&gt;GO:0005515 -->
<g id="edge14" class="edge">
<title>GO:0042802&#45;&gt;GO:0005515</title>
<path fill="none" stroke="#000000" d="M477.3644,-66.6553C478.4186,-83.4017 479.9205,-107.2608 481.118,-126.2834"/>
<polygon fill="#000000" stroke="#000000" points="477.6257,-126.5177 481.7472,-136.278 484.6119,-126.0778 477.6257,-126.5177"/>
</g>
<!-- GO:0005515&#45;&gt;GO:0005488 -->
<g id="edge15" class="edge">
<title>GO:0005515&#45;&gt;GO:0005488</title>
<path fill="none" stroke="#000000" d="M483.0642,-178.1504C483.0642,-190.6165 483.0642,-206.6645 483.0642,-220.5786"/>
<polygon fill="#000000" stroke="#000000" points="479.5643,-220.7081 483.0642,-230.7081 486.5643,-220.7082 479.5643,-220.7081"/>
</g>
</g>
</svg>
