<?xml version="1.0" encoding="UTF-8" standalone="no"?>
<!DOCTYPE svg PUBLIC "-//W3C//DTD SVG 1.1//EN"
 "http://www.w3.org/Graphics/SVG/1.1/DTD/svg11.dtd">
<!-- Generated by graphviz version 2.40.1 (20161225.0304)
 -->
<!-- Title: G Pages: 1 -->
<svg width="620pt" height="677pt"
 viewBox="0.00 0.00 619.99 676.80" xmlns="http://www.w3.org/2000/svg" xmlns:xlink="http://www.w3.org/1999/xlink">
<g id="graph0" class="graph" transform="scale(1 1) rotate(0) translate(4 672.8)">
<title>G</title>
<polygon fill="#ffffff" stroke="transparent" points="-4,4 -4,-672.8 615.992,-672.8 615.992,4 -4,4"/>
<!-- GO:0050658 -->
<g id="node1" class="node">
<title>GO:0050658</title>
<polygon fill="#ffffff" stroke="#000000" points="197.9098,-41.4019 99.2866,-41.4019 99.2866,-.1981 197.9098,-.1981 197.9098,-41.4019"/>
<text text-anchor="middle" x="148.5982" y="-25" font-family="Times,serif" font-size="14.00" fill="#000000">GO:0050658</text>
<text text-anchor="middle" x="148.5982" y="-8.2" font-family="Times,serif" font-size="14.00" fill="#000000">RNA transport</text>
</g>
<!-- GO:0051236 -->
<g id="node2" class="node">
<title>GO:0051236</title>
<polygon fill="#ffffff" stroke="#000000" points="141.2947,-136.2014 -.0983,-136.2014 -.0983,-77.3986 141.2947,-77.3986 141.2947,-136.2014"/>
<text text-anchor="middle" x="70.5982" y="-119.4" font-family="Times,serif" font-size="14.00" fill="#000000">GO:0051236</text>
<text text-anchor="middle" x="70.5982" y="-102.6" font-family="Times,serif" font-size="14.00" fill="#000000">establishment of RNA</text>
<text text-anchor="middle" x="70.5982" y="-85.8" font-family="Times,serif" font-size="14.00" fill="#000000">localization</text>
</g>
<!-- GO:0050658&#45;&gt;GO:0051236 -->
<g id="edge1" class="edge">
<title>GO:0050658&#45;&gt;GO:0051236</title>
<path fill="none" stroke="#000000" d="M129.7166,-41.6182C122.0321,-50.0908 112.9127,-60.1456 104.1652,-69.7903"/>
<polygon fill="#000000" stroke="#000000" points="101.3897,-67.6406 97.2641,-77.3991 106.5748,-72.3433 101.3897,-67.6406"/>
</g>
<!-- GO:0050657 -->
<g id="node3" class="node">
<title>GO:0050657</title>
<polygon fill="#ffffff" stroke="#000000" points="295.6055,-127.4019 159.5909,-127.4019 159.5909,-86.1981 295.6055,-86.1981 295.6055,-127.4019"/>
<text text-anchor="middle" x="227.5982" y="-111" font-family="Times,serif" font-size="14.00" fill="#000000">GO:0050657</text>
<text text-anchor="middle" x="227.5982" y="-94.2" font-family="Times,serif" font-size="14.00" fill="#000000">nucleic acid transport</text>
</g>
<!-- GO:0050658&#45;&gt;GO:0050657 -->
<g id="edge2" class="edge">
<title>GO:0050658&#45;&gt;GO:0050657</title>
<path fill="none" stroke="#000000" d="M167.7219,-41.6182C177.9108,-52.7099 190.5906,-66.5132 201.6552,-78.5583"/>
<polygon fill="#000000" stroke="#000000" points="199.308,-81.1768 208.6506,-86.1735 204.4631,-76.4413 199.308,-81.1768"/>
</g>
<!-- GO:0051234 -->
<g id="node4" class="node">
<title>GO:0051234</title>
<polygon fill="#ffffff" stroke="#000000" points="406.7449,-513.8014 298.4515,-513.8014 298.4515,-454.9986 406.7449,-454.9986 406.7449,-513.8014"/>
<text text-anchor="middle" x="352.5982" y="-497" font-family="Times,serif" font-size="14.00" fill="#000000">GO:0051234</text>
<text text-anchor="middle" x="352.5982" y="-480.2" font-family="Times,serif" font-size="14.00" fill="#000000">establishment of</text>
<text text-anchor="middle" x="352.5982" y="-463.4" font-family="Times,serif" font-size="14.00" fill="#000000">localization</text>
</g>
<!-- GO:0051236&#45;&gt;GO:0051234 -->
<g id="edge3" class="edge">
<title>GO:0051236&#45;&gt;GO:0051234</title>
<path fill="none" stroke="#000000" d="M67.354,-136.1312C63.8157,-179.4231 61.9011,-262.0692 89.5982,-324.8 112.6434,-376.9948 129.2032,-387.4338 176.5982,-419.2 210.6176,-442.0012 253.6551,-458.1293 288.656,-468.6406"/>
<polygon fill="#000000" stroke="#000000" points="287.7206,-472.0136 298.3008,-471.4573 289.6829,-465.2943 287.7206,-472.0136"/>
</g>
<!-- GO:0015931 -->
<g id="node5" class="node">
<title>GO:0015931</title>
<polygon fill="#ffffff" stroke="#000000" points="298.5534,-230.6014 156.643,-230.6014 156.643,-171.7986 298.5534,-171.7986 298.5534,-230.6014"/>
<text text-anchor="middle" x="227.5982" y="-213.8" font-family="Times,serif" font-size="14.00" fill="#000000">GO:0015931</text>
<text text-anchor="middle" x="227.5982" y="-197" font-family="Times,serif" font-size="14.00" fill="#000000">nucleobase&#45;containing</text>
<text text-anchor="middle" x="227.5982" y="-180.2" font-family="Times,serif" font-size="14.00" fill="#000000">compound transport</text>
</g>
<!-- GO:0050657&#45;&gt;GO:0015931 -->
<g id="edge4" class="edge">
<title>GO:0050657&#45;&gt;GO:0015931</title>
<path fill="none" stroke="#000000" d="M227.5982,-127.7504C227.5982,-137.7492 227.5982,-150.0525 227.5982,-161.7106"/>
<polygon fill="#000000" stroke="#000000" points="224.0983,-161.7155 227.5982,-171.7155 231.0983,-161.7156 224.0983,-161.7155"/>
</g>
<!-- GO:0051179 -->
<g id="node6" class="node">
<title>GO:0051179</title>
<polygon fill="#ffffff" stroke="#000000" points="464.2021,-591.0019 374.9943,-591.0019 374.9943,-549.7981 464.2021,-549.7981 464.2021,-591.0019"/>
<text text-anchor="middle" x="419.5982" y="-574.6" font-family="Times,serif" font-size="14.00" fill="#000000">GO:0051179</text>
<text text-anchor="middle" x="419.5982" y="-557.8" font-family="Times,serif" font-size="14.00" fill="#000000">localization</text>
</g>
<!-- GO:0051234&#45;&gt;GO:0051179 -->
<g id="edge5" class="edge">
<title>GO:0051234&#45;&gt;GO:0051179</title>
<path fill="none" stroke="#000000" d="M375.6558,-513.9963C382.6692,-522.9986 390.3612,-532.8719 397.3221,-541.8067"/>
<polygon fill="#000000" stroke="#000000" points="394.562,-543.959 403.4688,-549.6966 400.084,-539.6569 394.562,-543.959"/>
</g>
<!-- GO:0071705 -->
<g id="node7" class="node">
<title>GO:0071705</title>
<polygon fill="#ffffff" stroke="#000000" points="224.3601,-325.0014 98.8363,-325.0014 98.8363,-266.1986 224.3601,-266.1986 224.3601,-325.0014"/>
<text text-anchor="middle" x="161.5982" y="-308.2" font-family="Times,serif" font-size="14.00" fill="#000000">GO:0071705</text>
<text text-anchor="middle" x="161.5982" y="-291.4" font-family="Times,serif" font-size="14.00" fill="#000000">nitrogen compound</text>
<text text-anchor="middle" x="161.5982" y="-274.6" font-family="Times,serif" font-size="14.00" fill="#000000">transport</text>
</g>
<!-- GO:0015931&#45;&gt;GO:0071705 -->
<g id="edge6" class="edge">
<title>GO:0015931&#45;&gt;GO:0071705</title>
<path fill="none" stroke="#000000" d="M207.0772,-230.5513C200.9931,-239.2534 194.2453,-248.9047 187.8507,-258.0509"/>
<polygon fill="#000000" stroke="#000000" points="184.9681,-256.0658 182.1065,-266.2669 190.705,-260.0768 184.9681,-256.0658"/>
</g>
<!-- GO:0071702 -->
<g id="node8" class="node">
<title>GO:0071702</title>
<polygon fill="#ffffff" stroke="#000000" points="358.5022,-325.0014 242.6942,-325.0014 242.6942,-266.1986 358.5022,-266.1986 358.5022,-325.0014"/>
<text text-anchor="middle" x="300.5982" y="-308.2" font-family="Times,serif" font-size="14.00" fill="#000000">GO:0071702</text>
<text text-anchor="middle" x="300.5982" y="-291.4" font-family="Times,serif" font-size="14.00" fill="#000000">organic substance</text>
<text text-anchor="middle" x="300.5982" y="-274.6" font-family="Times,serif" font-size="14.00" fill="#000000">transport</text>
</g>
<!-- GO:0015931&#45;&gt;GO:0071702 -->
<g id="edge7" class="edge">
<title>GO:0015931&#45;&gt;GO:0071702</title>
<path fill="none" stroke="#000000" d="M250.2957,-230.5513C257.0937,-239.3422 264.6409,-249.1018 271.7777,-258.3308"/>
<polygon fill="#000000" stroke="#000000" points="269.0286,-260.4973 277.9147,-266.2669 274.5661,-256.2151 269.0286,-260.4973"/>
</g>
<!-- GO:0008150 -->
<g id="node9" class="node">
<title>GO:0008150</title>
<polygon fill="#ffffff" stroke="#000000" points="480.0688,-668.6019 359.1276,-668.6019 359.1276,-627.3981 480.0688,-627.3981 480.0688,-668.6019"/>
<text text-anchor="middle" x="419.5982" y="-652.2" font-family="Times,serif" font-size="14.00" fill="#000000">GO:0008150</text>
<text text-anchor="middle" x="419.5982" y="-635.4" font-family="Times,serif" font-size="14.00" fill="#000000">biological_process</text>
</g>
<!-- GO:0051179&#45;&gt;GO:0008150 -->
<g id="edge8" class="edge">
<title>GO:0051179&#45;&gt;GO:0008150</title>
<path fill="none" stroke="#000000" d="M419.5982,-591.1954C419.5982,-599.1109 419.5982,-608.3109 419.5982,-616.9722"/>
<polygon fill="#000000" stroke="#000000" points="416.0983,-617.1472 419.5982,-627.1472 423.0983,-617.1473 416.0983,-617.1472"/>
</g>
<!-- GO:0006810 -->
<g id="node10" class="node">
<title>GO:0006810</title>
<polygon fill="#ffffff" stroke="#000000" points="275.2021,-410.6019 185.9943,-410.6019 185.9943,-369.3981 275.2021,-369.3981 275.2021,-410.6019"/>
<text text-anchor="middle" x="230.5982" y="-394.2" font-family="Times,serif" font-size="14.00" fill="#000000">GO:0006810</text>
<text text-anchor="middle" x="230.5982" y="-377.4" font-family="Times,serif" font-size="14.00" fill="#000000">transport</text>
</g>
<!-- GO:0071705&#45;&gt;GO:0006810 -->
<g id="edge9" class="edge">
<title>GO:0071705&#45;&gt;GO:0006810</title>
<path fill="none" stroke="#000000" d="M183.052,-324.9513C191.4376,-336.4238 201.0292,-349.5462 209.391,-360.9861"/>
<polygon fill="#000000" stroke="#000000" points="206.7785,-363.3431 215.5052,-369.351 212.4298,-359.2123 206.7785,-363.3431"/>
</g>
<!-- GO:0071702&#45;&gt;GO:0006810 -->
<g id="edge10" class="edge">
<title>GO:0071702&#45;&gt;GO:0006810</title>
<path fill="none" stroke="#000000" d="M278.8335,-324.9513C270.3263,-336.4238 260.5957,-349.5462 252.1128,-360.9861"/>
<polygon fill="#000000" stroke="#000000" points="249.055,-359.2337 245.91,-369.351 254.6778,-363.4031 249.055,-359.2337"/>
</g>
<!-- GO:0006810&#45;&gt;GO:0051234 -->
<g id="edge16" class="edge">
<title>GO:0006810&#45;&gt;GO:0051234</title>
<path fill="none" stroke="#000000" d="M257.3716,-410.7165C271.8384,-421.9105 290.1026,-436.0427 306.7572,-448.9296"/>
<polygon fill="#000000" stroke="#000000" points="304.7293,-451.7859 314.78,-455.1374 309.0131,-446.2496 304.7293,-451.7859"/>
</g>
<!-- GO:0045184 -->
<g id="node11" class="node">
<title>GO:0045184</title>
<polygon fill="#ffffff" stroke="#000000" points="581.4015,-419.4014 429.7949,-419.4014 429.7949,-360.5986 581.4015,-360.5986 581.4015,-419.4014"/>
<text text-anchor="middle" x="505.5982" y="-402.6" font-family="Times,serif" font-size="14.00" fill="#000000">GO:0045184</text>
<text text-anchor="middle" x="505.5982" y="-385.8" font-family="Times,serif" font-size="14.00" fill="#000000">establishment of protein</text>
<text text-anchor="middle" x="505.5982" y="-369" font-family="Times,serif" font-size="14.00" fill="#000000">localization</text>
</g>
<!-- GO:0045184&#45;&gt;GO:0051234 -->
<g id="edge11" class="edge">
<title>GO:0045184&#45;&gt;GO:0051234</title>
<path fill="none" stroke="#000000" d="M458.0267,-419.3513C442.4835,-428.9413 425.0719,-439.6842 408.9464,-449.6335"/>
<polygon fill="#000000" stroke="#000000" points="406.8129,-446.8372 400.1403,-455.0669 410.4886,-452.7946 406.8129,-446.8372"/>
</g>
<!-- GO:0051169 -->
<g id="node12" class="node">
<title>GO:0051169</title>
<polygon fill="#ffffff" stroke="#000000" points="500.0557,-221.8019 389.1407,-221.8019 389.1407,-180.5981 500.0557,-180.5981 500.0557,-221.8019"/>
<text text-anchor="middle" x="444.5982" y="-205.4" font-family="Times,serif" font-size="14.00" fill="#000000">GO:0051169</text>
<text text-anchor="middle" x="444.5982" y="-188.6" font-family="Times,serif" font-size="14.00" fill="#000000">nuclear transport</text>
</g>
<!-- GO:0046907 -->
<g id="node13" class="node">
<title>GO:0046907</title>
<polygon fill="#ffffff" stroke="#000000" points="512.9924,-316.2019 376.204,-316.2019 376.204,-274.9981 512.9924,-274.9981 512.9924,-316.2019"/>
<text text-anchor="middle" x="444.5982" y="-299.8" font-family="Times,serif" font-size="14.00" fill="#000000">GO:0046907</text>
<text text-anchor="middle" x="444.5982" y="-283" font-family="Times,serif" font-size="14.00" fill="#000000">intracellular transport</text>
</g>
<!-- GO:0051169&#45;&gt;GO:0046907 -->
<g id="edge12" class="edge">
<title>GO:0051169&#45;&gt;GO:0046907</title>
<path fill="none" stroke="#000000" d="M444.5982,-222.1504C444.5982,-234.6165 444.5982,-250.6645 444.5982,-264.5786"/>
<polygon fill="#000000" stroke="#000000" points="441.0983,-264.7081 444.5982,-274.7081 448.0983,-264.7082 441.0983,-264.7081"/>
</g>
<!-- GO:0046907&#45;&gt;GO:0006810 -->
<g id="edge13" class="edge">
<title>GO:0046907&#45;&gt;GO:0006810</title>
<path fill="none" stroke="#000000" d="M391.5767,-316.2868C352.708,-331.5998 303.4082,-351.3726 283.5982,-360.8 281.0192,-362.0273 278.3902,-363.3233 275.7509,-364.6595"/>
<polygon fill="#000000" stroke="#000000" points="274.053,-361.5974 266.7955,-369.3163 277.2825,-367.808 274.053,-361.5974"/>
</g>
<!-- GO:0051649 -->
<g id="node14" class="node">
<title>GO:0051649</title>
<polygon fill="#ffffff" stroke="#000000" points="412.5113,-419.4014 292.6851,-419.4014 292.6851,-360.5986 412.5113,-360.5986 412.5113,-419.4014"/>
<text text-anchor="middle" x="352.5982" y="-402.6" font-family="Times,serif" font-size="14.00" fill="#000000">GO:0051649</text>
<text text-anchor="middle" x="352.5982" y="-385.8" font-family="Times,serif" font-size="14.00" fill="#000000">establishment of</text>
<text text-anchor="middle" x="352.5982" y="-369" font-family="Times,serif" font-size="14.00" fill="#000000">localization in cell</text>
</g>
<!-- GO:0046907&#45;&gt;GO:0051649 -->
<g id="edge14" class="edge">
<title>GO:0046907&#45;&gt;GO:0051649</title>
<path fill="none" stroke="#000000" d="M424.1804,-316.5504C413.6484,-327.3572 400.4929,-340.8559 388.3431,-353.3227"/>
<polygon fill="#000000" stroke="#000000" points="385.806,-350.9112 381.3331,-360.5155 390.8191,-355.7968 385.806,-350.9112"/>
</g>
<!-- GO:0051641 -->
<g id="node15" class="node">
<title>GO:0051641</title>
<polygon fill="#ffffff" stroke="#000000" points="611.886,-505.0019 485.3104,-505.0019 485.3104,-463.7981 611.886,-463.7981 611.886,-505.0019"/>
<text text-anchor="middle" x="548.5982" y="-488.6" font-family="Times,serif" font-size="14.00" fill="#000000">GO:0051641</text>
<text text-anchor="middle" x="548.5982" y="-471.8" font-family="Times,serif" font-size="14.00" fill="#000000">cellular localization</text>
</g>
<!-- GO:0046907&#45;&gt;GO:0051641 -->
<g id="edge15" class="edge">
<title>GO:0046907&#45;&gt;GO:0051641</title>
<path fill="none" stroke="#000000" d="M513.2512,-308.8968C542.2708,-318.2775 573.3018,-334.1331 590.5982,-360.8 609.656,-390.1826 590.4019,-429.1295 572.1447,-455.3876"/>
<polygon fill="#000000" stroke="#000000" points="569.0972,-453.6273 566.0481,-463.7739 574.7592,-457.7434 569.0972,-453.6273"/>
</g>
<!-- GO:0051649&#45;&gt;GO:0051234 -->
<g id="edge17" class="edge">
<title>GO:0051649&#45;&gt;GO:0051234</title>
<path fill="none" stroke="#000000" d="M352.5982,-419.3513C352.5982,-427.4318 352.5982,-436.3308 352.5982,-444.8838"/>
<polygon fill="#000000" stroke="#000000" points="349.0983,-445.0668 352.5982,-455.0669 356.0983,-445.0669 349.0983,-445.0668"/>
</g>
<!-- GO:0051641&#45;&gt;GO:0051179 -->
<g id="edge18" class="edge">
<title>GO:0051641&#45;&gt;GO:0051179</title>
<path fill="none" stroke="#000000" d="M517.3709,-505.2182C499.7826,-516.9437 477.6488,-531.6996 458.8906,-544.2051"/>
<polygon fill="#000000" stroke="#000000" points="456.917,-541.3143 450.5379,-549.7735 460.7999,-547.1386 456.917,-541.3143"/>
</g>
</g>
</svg>
