<?xml version="1.0" encoding="UTF-8" standalone="no"?>
<!DOCTYPE svg PUBLIC "-//W3C//DTD SVG 1.1//EN"
 "http://www.w3.org/Graphics/SVG/1.1/DTD/svg11.dtd">
<!-- Generated by graphviz version 2.40.1 (20161225.0304)
 -->
<!-- Title: G Pages: 1 -->
<svg width="1174pt" height="855pt"
 viewBox="0.00 0.00 1173.56 855.20" xmlns="http://www.w3.org/2000/svg" xmlns:xlink="http://www.w3.org/1999/xlink">
<g id="graph0" class="graph" transform="scale(1 1) rotate(0) translate(4 851.2)">
<title>G</title>
<polygon fill="#ffffff" stroke="transparent" points="-4,4 -4,-851.2 1169.559,-851.2 1169.559,4 -4,4"/>
<!-- GO:0042171 -->
<g id="node1" class="node">
<title>GO:0042171</title>
<polygon fill="#ff00ff" stroke="#000000" points="145.6477,-255.8014 -.2163,-255.8014 -.2163,-196.9986 145.6477,-196.9986 145.6477,-255.8014"/>
<text text-anchor="middle" x="72.7157" y="-239" font-family="Times,serif" font-size="14.00" fill="#000000">GO:0042171</text>
<text text-anchor="middle" x="72.7157" y="-222.2" font-family="Times,serif" font-size="14.00" fill="#000000">lysophosphatidic acid</text>
<text text-anchor="middle" x="72.7157" y="-205.4" font-family="Times,serif" font-size="14.00" fill="#000000">acyltransferase activity</text>
</g>
<!-- GO:0071617 -->
<g id="node2" class="node">
<title>GO:0071617</title>
<polygon fill="#ffffff" stroke="#000000" points="145.6477,-358.6014 -.2163,-358.6014 -.2163,-299.7986 145.6477,-299.7986 145.6477,-358.6014"/>
<text text-anchor="middle" x="72.7157" y="-341.8" font-family="Times,serif" font-size="14.00" fill="#000000">GO:0071617</text>
<text text-anchor="middle" x="72.7157" y="-325" font-family="Times,serif" font-size="14.00" fill="#000000">lysophospholipid</text>
<text text-anchor="middle" x="72.7157" y="-308.2" font-family="Times,serif" font-size="14.00" fill="#000000">acyltransferase activity</text>
</g>
<!-- GO:0042171&#45;&gt;GO:0071617 -->
<g id="edge1" class="edge">
<title>GO:0042171&#45;&gt;GO:0071617</title>
<path fill="none" stroke="#000000" d="M72.7157,-255.8584C72.7157,-266.3969 72.7157,-278.4505 72.7157,-289.6994"/>
<polygon fill="#000000" stroke="#000000" points="69.2158,-289.7373 72.7157,-299.7373 76.2158,-289.7374 69.2158,-289.7373"/>
</g>
<!-- GO:0016747 -->
<g id="node3" class="node">
<title>GO:0016747</title>
<polygon fill="#ffffff" stroke="#000000" points="286.4384,-494.8 136.993,-494.8 136.993,-402.8 286.4384,-402.8 286.4384,-494.8"/>
<text text-anchor="middle" x="211.7157" y="-478.2" font-family="Times,serif" font-size="14.00" fill="#000000">GO:0016747</text>
<text text-anchor="middle" x="211.7157" y="-461.4" font-family="Times,serif" font-size="14.00" fill="#000000">transferase activity,</text>
<text text-anchor="middle" x="211.7157" y="-444.6" font-family="Times,serif" font-size="14.00" fill="#000000">transferring acyl groups</text>
<text text-anchor="middle" x="211.7157" y="-427.8" font-family="Times,serif" font-size="14.00" fill="#000000">other than amino&#45;acyl</text>
<text text-anchor="middle" x="211.7157" y="-411" font-family="Times,serif" font-size="14.00" fill="#000000">groups</text>
</g>
<!-- GO:0071617&#45;&gt;GO:0016747 -->
<g id="edge2" class="edge">
<title>GO:0071617&#45;&gt;GO:0016747</title>
<path fill="none" stroke="#000000" d="M106.7189,-358.4575C119.8598,-369.7643 135.3151,-383.0625 150.2666,-395.9272"/>
<polygon fill="#000000" stroke="#000000" points="148.1613,-398.7331 158.0244,-402.6023 152.7269,-393.4269 148.1613,-398.7331"/>
</g>
<!-- GO:0016746 -->
<g id="node4" class="node">
<title>GO:0016746</title>
<polygon fill="#ffffff" stroke="#000000" points="286.4384,-597.8014 136.993,-597.8014 136.993,-538.9986 286.4384,-538.9986 286.4384,-597.8014"/>
<text text-anchor="middle" x="211.7157" y="-581" font-family="Times,serif" font-size="14.00" fill="#000000">GO:0016746</text>
<text text-anchor="middle" x="211.7157" y="-564.2" font-family="Times,serif" font-size="14.00" fill="#000000">transferase activity,</text>
<text text-anchor="middle" x="211.7157" y="-547.4" font-family="Times,serif" font-size="14.00" fill="#000000">transferring acyl groups</text>
</g>
<!-- GO:0016747&#45;&gt;GO:0016746 -->
<g id="edge3" class="edge">
<title>GO:0016747&#45;&gt;GO:0016746</title>
<path fill="none" stroke="#000000" d="M211.7157,-495.0405C211.7157,-506.1987 211.7157,-518.0218 211.7157,-528.8424"/>
<polygon fill="#000000" stroke="#000000" points="208.2158,-528.8551 211.7157,-538.8551 215.2158,-528.8552 208.2158,-528.8551"/>
</g>
<!-- GO:0016740 -->
<g id="node5" class="node">
<title>GO:0016740</title>
<polygon fill="#ffffff" stroke="#000000" points="290.8274,-683.4019 168.604,-683.4019 168.604,-642.1981 290.8274,-642.1981 290.8274,-683.4019"/>
<text text-anchor="middle" x="229.7157" y="-667" font-family="Times,serif" font-size="14.00" fill="#000000">GO:0016740</text>
<text text-anchor="middle" x="229.7157" y="-650.2" font-family="Times,serif" font-size="14.00" fill="#000000">transferase activity</text>
</g>
<!-- GO:0016746&#45;&gt;GO:0016740 -->
<g id="edge4" class="edge">
<title>GO:0016746&#45;&gt;GO:0016740</title>
<path fill="none" stroke="#000000" d="M217.3123,-597.7513C219.3927,-608.6614 221.7575,-621.0637 223.8604,-632.092"/>
<polygon fill="#000000" stroke="#000000" points="220.4672,-632.9836 225.7784,-642.151 227.3433,-631.6724 220.4672,-632.9836"/>
</g>
<!-- GO:0003824 -->
<g id="node6" class="node">
<title>GO:0003824</title>
<polygon fill="#ffffff" stroke="#000000" points="430.1281,-769.4019 321.3033,-769.4019 321.3033,-728.1981 430.1281,-728.1981 430.1281,-769.4019"/>
<text text-anchor="middle" x="375.7157" y="-753" font-family="Times,serif" font-size="14.00" fill="#000000">GO:0003824</text>
<text text-anchor="middle" x="375.7157" y="-736.2" font-family="Times,serif" font-size="14.00" fill="#000000">catalytic activity</text>
</g>
<!-- GO:0016740&#45;&gt;GO:0003824 -->
<g id="edge5" class="edge">
<title>GO:0016740&#45;&gt;GO:0003824</title>
<path fill="none" stroke="#000000" d="M265.0582,-683.6182C285.1437,-695.4494 310.4668,-710.3657 331.8181,-722.9425"/>
<polygon fill="#000000" stroke="#000000" points="330.3059,-726.1138 340.6986,-728.1735 333.8587,-720.0824 330.3059,-726.1138"/>
</g>
<!-- GO:0003674 -->
<g id="node7" class="node">
<title>GO:0003674</title>
<polygon fill="#ffffff" stroke="#000000" points="596.3488,-847.0019 471.0826,-847.0019 471.0826,-805.7981 596.3488,-805.7981 596.3488,-847.0019"/>
<text text-anchor="middle" x="533.7157" y="-830.6" font-family="Times,serif" font-size="14.00" fill="#000000">GO:0003674</text>
<text text-anchor="middle" x="533.7157" y="-813.8" font-family="Times,serif" font-size="14.00" fill="#000000">molecular_function</text>
</g>
<!-- GO:0003824&#45;&gt;GO:0003674 -->
<g id="edge6" class="edge">
<title>GO:0003824&#45;&gt;GO:0003674</title>
<path fill="none" stroke="#000000" d="M418.0568,-769.5954C437.8837,-779.3331 461.6689,-791.015 482.5003,-801.2461"/>
<polygon fill="#000000" stroke="#000000" points="481.0131,-804.415 491.5319,-805.6819 484.099,-798.1319 481.0131,-804.415"/>
</g>
<!-- GO:0008374 -->
<g id="node8" class="node">
<title>GO:0008374</title>
<polygon fill="#ff00ff" stroke="#000000" points="277.9231,-358.6014 163.5083,-358.6014 163.5083,-299.7986 277.9231,-299.7986 277.9231,-358.6014"/>
<text text-anchor="middle" x="220.7157" y="-341.8" font-family="Times,serif" font-size="14.00" fill="#000000">GO:0008374</text>
<text text-anchor="middle" x="220.7157" y="-325" font-family="Times,serif" font-size="14.00" fill="#000000">O&#45;acyltransferase</text>
<text text-anchor="middle" x="220.7157" y="-308.2" font-family="Times,serif" font-size="14.00" fill="#000000">activity</text>
</g>
<!-- GO:0008374&#45;&gt;GO:0016747 -->
<g id="edge7" class="edge">
<title>GO:0008374&#45;&gt;GO:0016747</title>
<path fill="none" stroke="#000000" d="M218.5141,-358.4575C217.7413,-368.727 216.8449,-380.6392 215.9615,-392.3774"/>
<polygon fill="#000000" stroke="#000000" points="212.4525,-392.3678 215.1921,-402.6023 219.4327,-392.8932 212.4525,-392.3678"/>
</g>
<!-- GO:0005525 -->
<g id="node9" class="node">
<title>GO:0005525</title>
<polygon fill="#ffffff" stroke="#000000" points="1015.3196,-41.4019 926.1118,-41.4019 926.1118,-.1981 1015.3196,-.1981 1015.3196,-41.4019"/>
<text text-anchor="middle" x="970.7157" y="-25" font-family="Times,serif" font-size="14.00" fill="#000000">GO:0005525</text>
<text text-anchor="middle" x="970.7157" y="-8.2" font-family="Times,serif" font-size="14.00" fill="#000000">GTP binding</text>
</g>
<!-- GO:0035639 -->
<g id="node10" class="node">
<title>GO:0035639</title>
<polygon fill="#ffffff" stroke="#000000" points="1165.4027,-144.6014 1028.0287,-144.6014 1028.0287,-85.7986 1165.4027,-85.7986 1165.4027,-144.6014"/>
<text text-anchor="middle" x="1096.7157" y="-127.8" font-family="Times,serif" font-size="14.00" fill="#000000">GO:0035639</text>
<text text-anchor="middle" x="1096.7157" y="-111" font-family="Times,serif" font-size="14.00" fill="#000000">purine ribonucleoside</text>
<text text-anchor="middle" x="1096.7157" y="-94.2" font-family="Times,serif" font-size="14.00" fill="#000000">triphosphate binding</text>
</g>
<!-- GO:0005525&#45;&gt;GO:0035639 -->
<g id="edge8" class="edge">
<title>GO:0005525&#45;&gt;GO:0035639</title>
<path fill="none" stroke="#000000" d="M998.3669,-41.5165C1013.308,-52.7105 1032.171,-66.8427 1049.3717,-79.7296"/>
<polygon fill="#000000" stroke="#000000" points="1047.556,-82.7425 1057.6576,-85.9374 1051.7531,-77.1404 1047.556,-82.7425"/>
</g>
<!-- GO:0032561 -->
<g id="node11" class="node">
<title>GO:0032561</title>
<polygon fill="#ffffff" stroke="#000000" points="879.1885,-144.6014 740.2429,-144.6014 740.2429,-85.7986 879.1885,-85.7986 879.1885,-144.6014"/>
<text text-anchor="middle" x="809.7157" y="-127.8" font-family="Times,serif" font-size="14.00" fill="#000000">GO:0032561</text>
<text text-anchor="middle" x="809.7157" y="-111" font-family="Times,serif" font-size="14.00" fill="#000000">guanyl ribonucleotide</text>
<text text-anchor="middle" x="809.7157" y="-94.2" font-family="Times,serif" font-size="14.00" fill="#000000">binding</text>
</g>
<!-- GO:0005525&#45;&gt;GO:0032561 -->
<g id="edge9" class="edge">
<title>GO:0005525&#45;&gt;GO:0032561</title>
<path fill="none" stroke="#000000" d="M935.3836,-41.5165C915.7715,-53.0157 890.871,-67.6158 868.4175,-80.7811"/>
<polygon fill="#000000" stroke="#000000" points="866.4794,-77.8601 859.6233,-85.9374 870.0201,-83.8986 866.4794,-77.8601"/>
</g>
<!-- GO:0032550 -->
<g id="node12" class="node">
<title>GO:0032550</title>
<polygon fill="#ffffff" stroke="#000000" points="1039.4027,-358.6014 902.0287,-358.6014 902.0287,-299.7986 1039.4027,-299.7986 1039.4027,-358.6014"/>
<text text-anchor="middle" x="970.7157" y="-341.8" font-family="Times,serif" font-size="14.00" fill="#000000">GO:0032550</text>
<text text-anchor="middle" x="970.7157" y="-325" font-family="Times,serif" font-size="14.00" fill="#000000">purine ribonucleoside</text>
<text text-anchor="middle" x="970.7157" y="-308.2" font-family="Times,serif" font-size="14.00" fill="#000000">binding</text>
</g>
<!-- GO:0005525&#45;&gt;GO:0032550 -->
<g id="edge10" class="edge">
<title>GO:0005525&#45;&gt;GO:0032550</title>
<path fill="none" stroke="#000000" d="M970.7157,-41.5139C970.7157,-92.279 970.7157,-223.5653 970.7157,-289.7797"/>
<polygon fill="#000000" stroke="#000000" points="967.2158,-289.8257 970.7157,-299.8257 974.2158,-289.8257 967.2158,-289.8257"/>
</g>
<!-- GO:1901265 -->
<g id="node13" class="node">
<title>GO:1901265</title>
<polygon fill="#ffffff" stroke="#000000" points="1088.8498,-597.8014 952.5816,-597.8014 952.5816,-538.9986 1088.8498,-538.9986 1088.8498,-597.8014"/>
<text text-anchor="middle" x="1020.7157" y="-581" font-family="Times,serif" font-size="14.00" fill="#000000">GO:1901265</text>
<text text-anchor="middle" x="1020.7157" y="-564.2" font-family="Times,serif" font-size="14.00" fill="#000000">nucleoside phosphate</text>
<text text-anchor="middle" x="1020.7157" y="-547.4" font-family="Times,serif" font-size="14.00" fill="#000000">binding</text>
</g>
<!-- GO:0035639&#45;&gt;GO:1901265 -->
<g id="edge11" class="edge">
<title>GO:0035639&#45;&gt;GO:1901265</title>
<path fill="none" stroke="#000000" d="M1102.5829,-144.4581C1114.5541,-211.2495 1136.4474,-378.7782 1083.7157,-503.2 1079.3423,-513.5191 1072.528,-523.1419 1064.969,-531.6573"/>
<polygon fill="#000000" stroke="#000000" points="1062.2029,-529.4879 1057.8663,-539.1546 1067.2846,-534.3022 1062.2029,-529.4879"/>
</g>
<!-- GO:0032555 -->
<g id="node14" class="node">
<title>GO:0032555</title>
<polygon fill="#ffffff" stroke="#000000" points="710.8484,-255.8014 574.583,-255.8014 574.583,-196.9986 710.8484,-196.9986 710.8484,-255.8014"/>
<text text-anchor="middle" x="642.7157" y="-239" font-family="Times,serif" font-size="14.00" fill="#000000">GO:0032555</text>
<text text-anchor="middle" x="642.7157" y="-222.2" font-family="Times,serif" font-size="14.00" fill="#000000">purine ribonucleotide</text>
<text text-anchor="middle" x="642.7157" y="-205.4" font-family="Times,serif" font-size="14.00" fill="#000000">binding</text>
</g>
<!-- GO:0032561&#45;&gt;GO:0032555 -->
<g id="edge12" class="edge">
<title>GO:0032561&#45;&gt;GO:0032555</title>
<path fill="none" stroke="#000000" d="M765.8384,-144.4165C744.1584,-158.8525 717.8392,-176.3777 695.1085,-191.5133"/>
<polygon fill="#000000" stroke="#000000" points="692.9733,-188.7301 686.5896,-197.1858 696.853,-194.5566 692.9733,-188.7301"/>
</g>
<!-- GO:0019001 -->
<g id="node15" class="node">
<title>GO:0019001</title>
<polygon fill="#ffffff" stroke="#000000" points="890.9178,-247.0019 728.5136,-247.0019 728.5136,-205.7981 890.9178,-205.7981 890.9178,-247.0019"/>
<text text-anchor="middle" x="809.7157" y="-230.6" font-family="Times,serif" font-size="14.00" fill="#000000">GO:0019001</text>
<text text-anchor="middle" x="809.7157" y="-213.8" font-family="Times,serif" font-size="14.00" fill="#000000">guanyl nucleotide binding</text>
</g>
<!-- GO:0032561&#45;&gt;GO:0019001 -->
<g id="edge13" class="edge">
<title>GO:0032561&#45;&gt;GO:0019001</title>
<path fill="none" stroke="#000000" d="M809.7157,-144.4165C809.7157,-159.997 809.7157,-179.1758 809.7157,-195.0653"/>
<polygon fill="#000000" stroke="#000000" points="806.2158,-195.4555 809.7157,-205.4556 813.2158,-195.4556 806.2158,-195.4555"/>
</g>
<!-- GO:0001883 -->
<g id="node16" class="node">
<title>GO:0001883</title>
<polygon fill="#ffffff" stroke="#000000" points="1074.6328,-469.4019 912.7986,-469.4019 912.7986,-428.1981 1074.6328,-428.1981 1074.6328,-469.4019"/>
<text text-anchor="middle" x="993.7157" y="-453" font-family="Times,serif" font-size="14.00" fill="#000000">GO:0001883</text>
<text text-anchor="middle" x="993.7157" y="-436.2" font-family="Times,serif" font-size="14.00" fill="#000000">purine nucleoside binding</text>
</g>
<!-- GO:0032550&#45;&gt;GO:0001883 -->
<g id="edge14" class="edge">
<title>GO:0032550&#45;&gt;GO:0001883</title>
<path fill="none" stroke="#000000" d="M976.3421,-358.4575C979.8269,-376.5782 984.2953,-399.8137 987.8277,-418.1825"/>
<polygon fill="#000000" stroke="#000000" points="984.4076,-418.932 989.7332,-428.091 991.2817,-417.61 984.4076,-418.932"/>
</g>
<!-- GO:0032549 -->
<g id="node17" class="node">
<title>GO:0032549</title>
<polygon fill="#ffffff" stroke="#000000" points="894.918,-469.4019 750.5134,-469.4019 750.5134,-428.1981 894.918,-428.1981 894.918,-469.4019"/>
<text text-anchor="middle" x="822.7157" y="-453" font-family="Times,serif" font-size="14.00" fill="#000000">GO:0032549</text>
<text text-anchor="middle" x="822.7157" y="-436.2" font-family="Times,serif" font-size="14.00" fill="#000000">ribonucleoside binding</text>
</g>
<!-- GO:0032550&#45;&gt;GO:0032549 -->
<g id="edge15" class="edge">
<title>GO:0032550&#45;&gt;GO:0032549</title>
<path fill="none" stroke="#000000" d="M934.5108,-358.4575C910.6269,-377.7582 879.5628,-402.8614 856.2432,-421.7062"/>
<polygon fill="#000000" stroke="#000000" points="853.9202,-419.0834 848.3422,-428.091 858.3199,-424.5279 853.9202,-419.0834"/>
</g>
<!-- GO:0097159 -->
<g id="node18" class="node">
<title>GO:0097159</title>
<polygon fill="#ffffff" stroke="#000000" points="940.2271,-692.2014 783.2043,-692.2014 783.2043,-633.3986 940.2271,-633.3986 940.2271,-692.2014"/>
<text text-anchor="middle" x="861.7157" y="-675.4" font-family="Times,serif" font-size="14.00" fill="#000000">GO:0097159</text>
<text text-anchor="middle" x="861.7157" y="-658.6" font-family="Times,serif" font-size="14.00" fill="#000000">organic cyclic compound</text>
<text text-anchor="middle" x="861.7157" y="-641.8" font-family="Times,serif" font-size="14.00" fill="#000000">binding</text>
</g>
<!-- GO:1901265&#45;&gt;GO:0097159 -->
<g id="edge16" class="edge">
<title>GO:1901265&#45;&gt;GO:0097159</title>
<path fill="none" stroke="#000000" d="M971.2787,-597.7513C954.9764,-607.4301 936.6962,-618.2833 919.8085,-628.3097"/>
<polygon fill="#000000" stroke="#000000" points="917.934,-625.3521 911.1221,-633.4669 921.5077,-631.3712 917.934,-625.3521"/>
</g>
<!-- GO:1901363 -->
<g id="node19" class="node">
<title>GO:1901363</title>
<polygon fill="#ffffff" stroke="#000000" points="1105.2263,-692.2014 958.2051,-692.2014 958.2051,-633.3986 1105.2263,-633.3986 1105.2263,-692.2014"/>
<text text-anchor="middle" x="1031.7157" y="-675.4" font-family="Times,serif" font-size="14.00" fill="#000000">GO:1901363</text>
<text text-anchor="middle" x="1031.7157" y="-658.6" font-family="Times,serif" font-size="14.00" fill="#000000">heterocyclic compound</text>
<text text-anchor="middle" x="1031.7157" y="-641.8" font-family="Times,serif" font-size="14.00" fill="#000000">binding</text>
</g>
<!-- GO:1901265&#45;&gt;GO:1901363 -->
<g id="edge17" class="edge">
<title>GO:1901265&#45;&gt;GO:1901363</title>
<path fill="none" stroke="#000000" d="M1024.1359,-597.7513C1025.0775,-605.8318 1026.1144,-614.7308 1027.1111,-623.2838"/>
<polygon fill="#000000" stroke="#000000" points="1023.6637,-623.9392 1028.2976,-633.4669 1030.6166,-623.1289 1023.6637,-623.9392"/>
</g>
<!-- GO:0017076 -->
<g id="node20" class="node">
<title>GO:0017076</title>
<polygon fill="#ffffff" stroke="#000000" points="837.5784,-349.8019 677.853,-349.8019 677.853,-308.5981 837.5784,-308.5981 837.5784,-349.8019"/>
<text text-anchor="middle" x="757.7157" y="-333.4" font-family="Times,serif" font-size="14.00" fill="#000000">GO:0017076</text>
<text text-anchor="middle" x="757.7157" y="-316.6" font-family="Times,serif" font-size="14.00" fill="#000000">purine nucleotide binding</text>
</g>
<!-- GO:0032555&#45;&gt;GO:0017076 -->
<g id="edge18" class="edge">
<title>GO:0032555&#45;&gt;GO:0017076</title>
<path fill="none" stroke="#000000" d="M675.6701,-255.8584C691.8689,-270.3387 711.2674,-287.6792 727.1342,-301.8628"/>
<polygon fill="#000000" stroke="#000000" points="724.822,-304.4905 734.6101,-308.5456 729.4872,-299.2716 724.822,-304.4905"/>
</g>
<!-- GO:0032553 -->
<g id="node21" class="node">
<title>GO:0032553</title>
<polygon fill="#ffffff" stroke="#000000" points="659.3638,-349.8019 516.0676,-349.8019 516.0676,-308.5981 659.3638,-308.5981 659.3638,-349.8019"/>
<text text-anchor="middle" x="587.7157" y="-333.4" font-family="Times,serif" font-size="14.00" fill="#000000">GO:0032553</text>
<text text-anchor="middle" x="587.7157" y="-316.6" font-family="Times,serif" font-size="14.00" fill="#000000">ribonucleotide binding</text>
</g>
<!-- GO:0032555&#45;&gt;GO:0032553 -->
<g id="edge19" class="edge">
<title>GO:0032555&#45;&gt;GO:0032553</title>
<path fill="none" stroke="#000000" d="M626.9549,-255.8584C619.6302,-269.5489 610.9377,-285.796 603.598,-299.5146"/>
<polygon fill="#000000" stroke="#000000" points="600.3976,-298.0771 598.7662,-308.5456 606.5698,-301.3794 600.3976,-298.0771"/>
</g>
<!-- GO:0019001&#45;&gt;GO:0017076 -->
<g id="edge20" class="edge">
<title>GO:0019001&#45;&gt;GO:0017076</title>
<path fill="none" stroke="#000000" d="M799.1927,-247.2031C791.6511,-262.1123 781.3779,-282.4216 772.9427,-299.0975"/>
<polygon fill="#000000" stroke="#000000" points="769.6137,-297.9246 768.223,-308.4278 775.86,-301.0843 769.6137,-297.9246"/>
</g>
<!-- GO:0001882 -->
<g id="node22" class="node">
<title>GO:0001882</title>
<polygon fill="#ffffff" stroke="#000000" points="894.8666,-589.0019 772.5648,-589.0019 772.5648,-547.7981 894.8666,-547.7981 894.8666,-589.0019"/>
<text text-anchor="middle" x="833.7157" y="-572.6" font-family="Times,serif" font-size="14.00" fill="#000000">GO:0001882</text>
<text text-anchor="middle" x="833.7157" y="-555.8" font-family="Times,serif" font-size="14.00" fill="#000000">nucleoside binding</text>
</g>
<!-- GO:0001883&#45;&gt;GO:0001882 -->
<g id="edge21" class="edge">
<title>GO:0001883&#45;&gt;GO:0001882</title>
<path fill="none" stroke="#000000" d="M965.8458,-469.6327C939.1988,-489.5514 898.8845,-519.6864 869.7962,-541.4298"/>
<polygon fill="#000000" stroke="#000000" points="867.4483,-538.8151 861.5342,-547.6057 871.6393,-544.4219 867.4483,-538.8151"/>
</g>
<!-- GO:0032549&#45;&gt;GO:0001882 -->
<g id="edge22" class="edge">
<title>GO:0032549&#45;&gt;GO:0001882</title>
<path fill="none" stroke="#000000" d="M824.6318,-469.6327C826.3484,-488.2973 828.8901,-515.9322 830.8487,-537.2278"/>
<polygon fill="#000000" stroke="#000000" points="827.3834,-537.7673 831.7847,-547.4047 834.354,-537.1262 827.3834,-537.7673"/>
</g>
<!-- GO:0005488 -->
<g id="node23" class="node">
<title>GO:0005488</title>
<polygon fill="#ffffff" stroke="#000000" points="736.3196,-769.4019 647.1118,-769.4019 647.1118,-728.1981 736.3196,-728.1981 736.3196,-769.4019"/>
<text text-anchor="middle" x="691.7157" y="-753" font-family="Times,serif" font-size="14.00" fill="#000000">GO:0005488</text>
<text text-anchor="middle" x="691.7157" y="-736.2" font-family="Times,serif" font-size="14.00" fill="#000000">binding</text>
</g>
<!-- GO:0097159&#45;&gt;GO:0005488 -->
<g id="edge23" class="edge">
<title>GO:0097159&#45;&gt;GO:0005488</title>
<path fill="none" stroke="#000000" d="M803.6868,-692.1558C783.509,-702.3634 761.069,-713.7154 741.6078,-723.5605"/>
<polygon fill="#000000" stroke="#000000" points="739.9497,-720.4768 732.6065,-728.1141 743.1096,-726.7231 739.9497,-720.4768"/>
</g>
<!-- GO:1901363&#45;&gt;GO:0005488 -->
<g id="edge24" class="edge">
<title>GO:1901363&#45;&gt;GO:0005488</title>
<path fill="none" stroke="#000000" d="M958.1,-689.5054C955.2775,-690.373 952.4756,-691.2082 949.7157,-692 880.4873,-711.8618 799.1127,-728.7288 746.5411,-738.8017"/>
<polygon fill="#000000" stroke="#000000" points="745.5937,-735.4191 736.423,-740.7246 746.9006,-742.296 745.5937,-735.4191"/>
</g>
<!-- GO:0000166 -->
<g id="node24" class="node">
<title>GO:0000166</title>
<polygon fill="#ffffff" stroke="#000000" points="731.8132,-469.4019 611.6182,-469.4019 611.6182,-428.1981 731.8132,-428.1981 731.8132,-469.4019"/>
<text text-anchor="middle" x="671.7157" y="-453" font-family="Times,serif" font-size="14.00" fill="#000000">GO:0000166</text>
<text text-anchor="middle" x="671.7157" y="-436.2" font-family="Times,serif" font-size="14.00" fill="#000000">nucleotide binding</text>
</g>
<!-- GO:0017076&#45;&gt;GO:0000166 -->
<g id="edge25" class="edge">
<title>GO:0017076&#45;&gt;GO:0000166</title>
<path fill="none" stroke="#000000" d="M742.7356,-350.0327C728.8857,-369.2939 708.1665,-398.108 692.6765,-419.6499"/>
<polygon fill="#000000" stroke="#000000" points="689.8091,-417.6424 686.8126,-427.8047 695.4924,-421.7291 689.8091,-417.6424"/>
</g>
<!-- GO:0032553&#45;&gt;GO:0000166 -->
<g id="edge27" class="edge">
<title>GO:0032553&#45;&gt;GO:0000166</title>
<path fill="none" stroke="#000000" d="M602.3474,-350.0327C615.8154,-369.2086 635.9337,-397.8532 651.0412,-419.3635"/>
<polygon fill="#000000" stroke="#000000" points="648.3582,-421.633 656.9698,-427.8047 654.0865,-417.6098 648.3582,-421.633"/>
</g>
<!-- GO:0097367 -->
<g id="node25" class="node">
<title>GO:0097367</title>
<polygon fill="#ffffff" stroke="#000000" points="599.7628,-692.2014 451.6686,-692.2014 451.6686,-633.3986 599.7628,-633.3986 599.7628,-692.2014"/>
<text text-anchor="middle" x="525.7157" y="-675.4" font-family="Times,serif" font-size="14.00" fill="#000000">GO:0097367</text>
<text text-anchor="middle" x="525.7157" y="-658.6" font-family="Times,serif" font-size="14.00" fill="#000000">carbohydrate derivative</text>
<text text-anchor="middle" x="525.7157" y="-641.8" font-family="Times,serif" font-size="14.00" fill="#000000">binding</text>
</g>
<!-- GO:0032553&#45;&gt;GO:0097367 -->
<g id="edge26" class="edge">
<title>GO:0032553&#45;&gt;GO:0097367</title>
<path fill="none" stroke="#000000" d="M583.8841,-349.8164C573.7683,-404.2458 546.2168,-552.4909 532.9908,-623.6553"/>
<polygon fill="#000000" stroke="#000000" points="529.5334,-623.1041 531.1471,-633.5753 536.4155,-624.3832 529.5334,-623.1041"/>
</g>
<!-- GO:0001882&#45;&gt;GO:0097159 -->
<g id="edge31" class="edge">
<title>GO:0001882&#45;&gt;GO:0097159</title>
<path fill="none" stroke="#000000" d="M839.9298,-589.3504C842.9255,-599.4502 846.6186,-611.9012 850.1075,-623.6637"/>
<polygon fill="#000000" stroke="#000000" points="846.7711,-624.7237 852.9703,-633.3155 853.4821,-622.733 846.7711,-624.7237"/>
</g>
<!-- GO:0001882&#45;&gt;GO:1901363 -->
<g id="edge30" class="edge">
<title>GO:0001882&#45;&gt;GO:1901363</title>
<path fill="none" stroke="#000000" d="M877.1676,-589.1165C901.7137,-600.8193 932.9958,-615.7336 960.9868,-629.0787"/>
<polygon fill="#000000" stroke="#000000" points="959.8058,-632.3931 970.3387,-633.5374 962.8184,-626.0745 959.8058,-632.3931"/>
</g>
<!-- GO:0001882&#45;&gt;GO:0097367 -->
<g id="edge29" class="edge">
<title>GO:0001882&#45;&gt;GO:0097367</title>
<path fill="none" stroke="#000000" d="M772.3162,-585.1867C729.2283,-597.1981 670.0847,-614.1459 609.578,-633.3783"/>
<polygon fill="#000000" stroke="#000000" points="608.3179,-630.1066 599.8576,-636.4842 610.4485,-636.7745 608.3179,-630.1066"/>
</g>
<!-- GO:0036094 -->
<g id="node26" class="node">
<title>GO:0036094</title>
<polygon fill="#ffffff" stroke="#000000" points="765.6441,-683.4019 617.7873,-683.4019 617.7873,-642.1981 765.6441,-642.1981 765.6441,-683.4019"/>
<text text-anchor="middle" x="691.7157" y="-667" font-family="Times,serif" font-size="14.00" fill="#000000">GO:0036094</text>
<text text-anchor="middle" x="691.7157" y="-650.2" font-family="Times,serif" font-size="14.00" fill="#000000">small molecule binding</text>
</g>
<!-- GO:0001882&#45;&gt;GO:0036094 -->
<g id="edge28" class="edge">
<title>GO:0001882&#45;&gt;GO:0036094</title>
<path fill="none" stroke="#000000" d="M802.5532,-589.1165C781.5594,-603.0729 753.6951,-621.5968 731.1572,-636.5798"/>
<polygon fill="#000000" stroke="#000000" points="729.1956,-633.6809 722.8055,-642.1318 733.0709,-639.5103 729.1956,-633.6809"/>
</g>
<!-- GO:0005488&#45;&gt;GO:0003674 -->
<g id="edge32" class="edge">
<title>GO:0005488&#45;&gt;GO:0003674</title>
<path fill="none" stroke="#000000" d="M649.3746,-769.5954C629.5477,-779.3331 605.7625,-791.015 584.9311,-801.2461"/>
<polygon fill="#000000" stroke="#000000" points="583.3324,-798.1319 575.8995,-805.6819 586.4183,-804.415 583.3324,-798.1319"/>
</g>
<!-- GO:0000166&#45;&gt;GO:1901265 -->
<g id="edge34" class="edge">
<title>GO:0000166&#45;&gt;GO:1901265</title>
<path fill="none" stroke="#000000" d="M693.0405,-469.4419C706.1152,-481.002 723.7493,-494.7493 741.7157,-503.2 808.4576,-534.5929 831.929,-522.2687 903.7157,-539.2 916.2998,-542.168 929.6213,-545.4034 942.5922,-548.6044"/>
<polygon fill="#000000" stroke="#000000" points="941.8765,-552.0328 952.4247,-551.0405 943.5599,-545.2382 941.8765,-552.0328"/>
</g>
<!-- GO:0000166&#45;&gt;GO:0036094 -->
<g id="edge33" class="edge">
<title>GO:0000166&#45;&gt;GO:0036094</title>
<path fill="none" stroke="#000000" d="M673.6698,-469.7089C677.2112,-507.6015 684.7046,-587.781 688.8343,-631.969"/>
<polygon fill="#000000" stroke="#000000" points="685.3677,-632.4904 689.7831,-642.1213 692.3373,-631.839 685.3677,-632.4904"/>
</g>
<!-- GO:0097367&#45;&gt;GO:0005488 -->
<g id="edge35" class="edge">
<title>GO:0097367&#45;&gt;GO:0005488</title>
<path fill="none" stroke="#000000" d="M582.3792,-692.1558C601.9931,-702.3172 623.796,-713.6127 642.7394,-723.4267"/>
<polygon fill="#000000" stroke="#000000" points="641.2979,-726.6217 651.7871,-728.1141 644.5179,-720.4063 641.2979,-726.6217"/>
</g>
<!-- GO:0036094&#45;&gt;GO:0005488 -->
<g id="edge36" class="edge">
<title>GO:0036094&#45;&gt;GO:0005488</title>
<path fill="none" stroke="#000000" d="M691.7157,-683.6182C691.7157,-693.9705 691.7157,-706.6848 691.7157,-718.1271"/>
<polygon fill="#000000" stroke="#000000" points="688.2158,-718.1735 691.7157,-728.1735 695.2158,-718.1735 688.2158,-718.1735"/>
</g>
<!-- GO:0016411 -->
<g id="node27" class="node">
<title>GO:0016411</title>
<polygon fill="#ff00ff" stroke="#000000" points="277.9231,-264.1003 163.5083,-264.1003 163.5083,-188.6997 277.9231,-188.6997 277.9231,-264.1003"/>
<text text-anchor="middle" x="220.7157" y="-247.4" font-family="Times,serif" font-size="14.00" fill="#000000">GO:0016411</text>
<text text-anchor="middle" x="220.7157" y="-230.6" font-family="Times,serif" font-size="14.00" fill="#000000">acylglycerol</text>
<text text-anchor="middle" x="220.7157" y="-213.8" font-family="Times,serif" font-size="14.00" fill="#000000">O&#45;acyltransferase</text>
<text text-anchor="middle" x="220.7157" y="-197" font-family="Times,serif" font-size="14.00" fill="#000000">activity</text>
</g>
<!-- GO:0016411&#45;&gt;GO:0008374 -->
<g id="edge37" class="edge">
<title>GO:0016411&#45;&gt;GO:0008374</title>
<path fill="none" stroke="#000000" d="M220.7157,-264.0952C220.7157,-272.4874 220.7157,-281.4054 220.7157,-289.8618"/>
<polygon fill="#000000" stroke="#000000" points="217.2158,-289.8813 220.7157,-299.8814 224.2158,-289.8814 217.2158,-289.8813"/>
</g>
<!-- GO:0003924 -->
<g id="node28" class="node">
<title>GO:0003924</title>
<polygon fill="#ffffff" stroke="#000000" points="437.5231,-135.8019 331.9083,-135.8019 331.9083,-94.5981 437.5231,-94.5981 437.5231,-135.8019"/>
<text text-anchor="middle" x="384.7157" y="-119.4" font-family="Times,serif" font-size="14.00" fill="#000000">GO:0003924</text>
<text text-anchor="middle" x="384.7157" y="-102.6" font-family="Times,serif" font-size="14.00" fill="#000000">GTPase activity</text>
</g>
<!-- GO:0017111 -->
<g id="node29" class="node">
<title>GO:0017111</title>
<polygon fill="#ffffff" stroke="#000000" points="465.6118,-255.8014 303.8196,-255.8014 303.8196,-196.9986 465.6118,-196.9986 465.6118,-255.8014"/>
<text text-anchor="middle" x="384.7157" y="-239" font-family="Times,serif" font-size="14.00" fill="#000000">GO:0017111</text>
<text text-anchor="middle" x="384.7157" y="-222.2" font-family="Times,serif" font-size="14.00" fill="#000000">nucleoside&#45;triphosphatase</text>
<text text-anchor="middle" x="384.7157" y="-205.4" font-family="Times,serif" font-size="14.00" fill="#000000">activity</text>
</g>
<!-- GO:0003924&#45;&gt;GO:0017111 -->
<g id="edge38" class="edge">
<title>GO:0003924&#45;&gt;GO:0017111</title>
<path fill="none" stroke="#000000" d="M384.7157,-135.8553C384.7157,-150.107 384.7157,-169.5101 384.7157,-186.6996"/>
<polygon fill="#000000" stroke="#000000" points="381.2158,-187.0505 384.7157,-197.0506 388.2158,-187.0506 381.2158,-187.0505"/>
</g>
<!-- GO:0016462 -->
<g id="node30" class="node">
<title>GO:0016462</title>
<polygon fill="#ffffff" stroke="#000000" points="462.2921,-349.8019 307.1393,-349.8019 307.1393,-308.5981 462.2921,-308.5981 462.2921,-349.8019"/>
<text text-anchor="middle" x="384.7157" y="-333.4" font-family="Times,serif" font-size="14.00" fill="#000000">GO:0016462</text>
<text text-anchor="middle" x="384.7157" y="-316.6" font-family="Times,serif" font-size="14.00" fill="#000000">pyrophosphatase activity</text>
</g>
<!-- GO:0017111&#45;&gt;GO:0016462 -->
<g id="edge39" class="edge">
<title>GO:0017111&#45;&gt;GO:0016462</title>
<path fill="none" stroke="#000000" d="M384.7157,-255.8584C384.7157,-269.1539 384.7157,-284.8608 384.7157,-298.3212"/>
<polygon fill="#000000" stroke="#000000" points="381.2158,-298.5456 384.7157,-308.5456 388.2158,-298.5457 381.2158,-298.5456"/>
</g>
<!-- GO:0016818 -->
<g id="node31" class="node">
<title>GO:0016818</title>
<polygon fill="#ffffff" stroke="#000000" points="457.0274,-503.1002 312.404,-503.1002 312.404,-394.4998 457.0274,-394.4998 457.0274,-503.1002"/>
<text text-anchor="middle" x="384.7157" y="-486.6" font-family="Times,serif" font-size="14.00" fill="#000000">GO:0016818</text>
<text text-anchor="middle" x="384.7157" y="-469.8" font-family="Times,serif" font-size="14.00" fill="#000000">hydrolase activity,</text>
<text text-anchor="middle" x="384.7157" y="-453" font-family="Times,serif" font-size="14.00" fill="#000000">acting on acid</text>
<text text-anchor="middle" x="384.7157" y="-436.2" font-family="Times,serif" font-size="14.00" fill="#000000">anhydrides, in</text>
<text text-anchor="middle" x="384.7157" y="-419.4" font-family="Times,serif" font-size="14.00" fill="#000000">phosphorus&#45;containing</text>
<text text-anchor="middle" x="384.7157" y="-402.6" font-family="Times,serif" font-size="14.00" fill="#000000">anhydrides</text>
</g>
<!-- GO:0016462&#45;&gt;GO:0016818 -->
<g id="edge40" class="edge">
<title>GO:0016462&#45;&gt;GO:0016818</title>
<path fill="none" stroke="#000000" d="M384.7157,-350.0327C384.7157,-359.6534 384.7157,-371.6573 384.7157,-383.948"/>
<polygon fill="#000000" stroke="#000000" points="381.2158,-384.2935 384.7157,-394.2935 388.2158,-384.2935 381.2158,-384.2935"/>
</g>
<!-- GO:0016817 -->
<g id="node32" class="node">
<title>GO:0016817</title>
<polygon fill="#ffffff" stroke="#000000" points="464.6716,-597.8014 304.7598,-597.8014 304.7598,-538.9986 464.6716,-538.9986 464.6716,-597.8014"/>
<text text-anchor="middle" x="384.7157" y="-581" font-family="Times,serif" font-size="14.00" fill="#000000">GO:0016817</text>
<text text-anchor="middle" x="384.7157" y="-564.2" font-family="Times,serif" font-size="14.00" fill="#000000">hydrolase activity,</text>
<text text-anchor="middle" x="384.7157" y="-547.4" font-family="Times,serif" font-size="14.00" fill="#000000">acting on acid anhydrides</text>
</g>
<!-- GO:0016818&#45;&gt;GO:0016817 -->
<g id="edge41" class="edge">
<title>GO:0016818&#45;&gt;GO:0016817</title>
<path fill="none" stroke="#000000" d="M384.7157,-503.3502C384.7157,-512.0138 384.7157,-520.8255 384.7157,-529.0504"/>
<polygon fill="#000000" stroke="#000000" points="381.2158,-529.0995 384.7157,-539.0995 388.2158,-529.0995 381.2158,-529.0995"/>
</g>
<!-- GO:0016787 -->
<g id="node33" class="node">
<title>GO:0016787</title>
<polygon fill="#ffffff" stroke="#000000" points="433.6323,-683.4019 317.7991,-683.4019 317.7991,-642.1981 433.6323,-642.1981 433.6323,-683.4019"/>
<text text-anchor="middle" x="375.7157" y="-667" font-family="Times,serif" font-size="14.00" fill="#000000">GO:0016787</text>
<text text-anchor="middle" x="375.7157" y="-650.2" font-family="Times,serif" font-size="14.00" fill="#000000">hydrolase activity</text>
</g>
<!-- GO:0016817&#45;&gt;GO:0016787 -->
<g id="edge42" class="edge">
<title>GO:0016817&#45;&gt;GO:0016787</title>
<path fill="none" stroke="#000000" d="M381.9174,-597.7513C380.8772,-608.6614 379.6948,-621.0637 378.6434,-632.092"/>
<polygon fill="#000000" stroke="#000000" points="375.1493,-631.8639 377.6844,-642.151 382.1177,-632.5283 375.1493,-631.8639"/>
</g>
<!-- GO:0016787&#45;&gt;GO:0003824 -->
<g id="edge43" class="edge">
<title>GO:0016787&#45;&gt;GO:0003824</title>
<path fill="none" stroke="#000000" d="M375.7157,-683.6182C375.7157,-693.9705 375.7157,-706.6848 375.7157,-718.1271"/>
<polygon fill="#000000" stroke="#000000" points="372.2158,-718.1735 375.7157,-728.1735 379.2158,-718.1735 372.2158,-718.1735"/>
</g>
<!-- GO:0003841 -->
<g id="node34" class="node">
<title>GO:0003841</title>
<polygon fill="#ffffff" stroke="#000000" points="228.4383,-152.9003 64.9931,-152.9003 64.9931,-77.4997 228.4383,-77.4997 228.4383,-152.9003"/>
<text text-anchor="middle" x="146.7157" y="-136.2" font-family="Times,serif" font-size="14.00" fill="#000000">GO:0003841</text>
<text text-anchor="middle" x="146.7157" y="-119.4" font-family="Times,serif" font-size="14.00" fill="#000000">1&#45;acylglycerol&#45;3&#45;phosphat</text>
<text text-anchor="middle" x="146.7157" y="-102.6" font-family="Times,serif" font-size="14.00" fill="#000000">e O&#45;acyltransferase</text>
<text text-anchor="middle" x="146.7157" y="-85.8" font-family="Times,serif" font-size="14.00" fill="#000000">activity</text>
</g>
<!-- GO:0003841&#45;&gt;GO:0042171 -->
<g id="edge44" class="edge">
<title>GO:0003841&#45;&gt;GO:0042171</title>
<path fill="none" stroke="#000000" d="M121.6627,-152.8472C114.0446,-164.295 105.6696,-176.8801 98.0341,-188.354"/>
<polygon fill="#000000" stroke="#000000" points="94.9905,-186.61 92.3642,-196.8742 100.8181,-190.4881 94.9905,-186.61"/>
</g>
<!-- GO:0003841&#45;&gt;GO:0016411 -->
<g id="edge45" class="edge">
<title>GO:0003841&#45;&gt;GO:0016411</title>
<path fill="none" stroke="#000000" d="M171.7687,-152.8472C177.6153,-161.6329 183.9077,-171.0885 189.9694,-180.1975"/>
<polygon fill="#000000" stroke="#000000" points="187.2345,-182.4054 195.6885,-188.7915 193.0621,-178.5274 187.2345,-182.4054"/>
</g>
</g>
</svg>
