<?xml version="1.0" encoding="UTF-8" standalone="no"?>
<!DOCTYPE svg PUBLIC "-//W3C//DTD SVG 1.1//EN"
 "http://www.w3.org/Graphics/SVG/1.1/DTD/svg11.dtd">
<!-- Generated by graphviz version 2.40.1 (20161225.0304)
 -->
<!-- Title: G Pages: 1 -->
<svg width="540pt" height="299pt"
 viewBox="0.00 0.00 540.11 299.20" xmlns="http://www.w3.org/2000/svg" xmlns:xlink="http://www.w3.org/1999/xlink">
<g id="graph0" class="graph" transform="scale(1 1) rotate(0) translate(4 295.2)">
<title>G</title>
<polygon fill="#ffffff" stroke="transparent" points="-4,4 -4,-295.2 536.1137,-295.2 536.1137,4 -4,4"/>
<!-- GO:0044462 -->
<g id="node1" class="node">
<title>GO:0044462</title>
<polygon fill="#ffffff" stroke="#000000" points="141.3413,-136.2014 .2191,-136.2014 .2191,-77.3986 141.3413,-77.3986 141.3413,-136.2014"/>
<text text-anchor="middle" x="70.7802" y="-119.4" font-family="Times,serif" font-size="14.00" fill="#000000">GO:0044462</text>
<text text-anchor="middle" x="70.7802" y="-102.6" font-family="Times,serif" font-size="14.00" fill="#000000">external encapsulating</text>
<text text-anchor="middle" x="70.7802" y="-85.8" font-family="Times,serif" font-size="14.00" fill="#000000">structure part</text>
</g>
<!-- GO:0044464 -->
<g id="node2" class="node">
<title>GO:0044464</title>
<polygon fill="#ff0000" stroke="#000000" points="155.3841,-213.4019 66.1763,-213.4019 66.1763,-172.1981 155.3841,-172.1981 155.3841,-213.4019"/>
<text text-anchor="middle" x="110.7802" y="-197" font-family="Times,serif" font-size="14.00" fill="#000000">GO:0044464</text>
<text text-anchor="middle" x="110.7802" y="-180.2" font-family="Times,serif" font-size="14.00" fill="#000000">cell part</text>
</g>
<!-- GO:0044462&#45;&gt;GO:0044464 -->
<g id="edge1" class="edge">
<title>GO:0044462&#45;&gt;GO:0044464</title>
<path fill="none" stroke="#000000" d="M84.5459,-136.3963C88.5194,-144.9393 92.8577,-154.2667 96.8416,-162.8321"/>
<polygon fill="#000000" stroke="#000000" points="93.7598,-164.5054 101.1507,-172.0966 100.1069,-161.5533 93.7598,-164.5054"/>
</g>
<!-- GO:0005575 -->
<g id="node3" class="node">
<title>GO:0005575</title>
<polygon fill="#ffffff" stroke="#000000" points="281.4669,-291.0019 154.0935,-291.0019 154.0935,-249.7981 281.4669,-249.7981 281.4669,-291.0019"/>
<text text-anchor="middle" x="217.7802" y="-274.6" font-family="Times,serif" font-size="14.00" fill="#000000">GO:0005575</text>
<text text-anchor="middle" x="217.7802" y="-257.8" font-family="Times,serif" font-size="14.00" fill="#000000">cellular_component</text>
</g>
<!-- GO:0044464&#45;&gt;GO:0005575 -->
<g id="edge2" class="edge">
<title>GO:0044464&#45;&gt;GO:0005575</title>
<path fill="none" stroke="#000000" d="M139.4542,-213.5954C152.1677,-222.8156 167.2845,-233.7788 180.8309,-243.6031"/>
<polygon fill="#000000" stroke="#000000" points="178.877,-246.5096 189.027,-249.5472 182.9866,-240.8429 178.877,-246.5096"/>
</g>
<!-- GO:0016020 -->
<g id="node4" class="node">
<title>GO:0016020</title>
<polygon fill="#ff0000" stroke="#000000" points="262.3841,-213.4019 173.1763,-213.4019 173.1763,-172.1981 262.3841,-172.1981 262.3841,-213.4019"/>
<text text-anchor="middle" x="217.7802" y="-197" font-family="Times,serif" font-size="14.00" fill="#000000">GO:0016020</text>
<text text-anchor="middle" x="217.7802" y="-180.2" font-family="Times,serif" font-size="14.00" fill="#000000">membrane</text>
</g>
<!-- GO:0016020&#45;&gt;GO:0005575 -->
<g id="edge3" class="edge">
<title>GO:0016020&#45;&gt;GO:0005575</title>
<path fill="none" stroke="#000000" d="M217.7802,-213.5954C217.7802,-221.5109 217.7802,-230.7109 217.7802,-239.3722"/>
<polygon fill="#000000" stroke="#000000" points="214.2803,-239.5472 217.7802,-249.5472 221.2803,-239.5473 214.2803,-239.5472"/>
</g>
<!-- GO:0098796 -->
<g id="node5" class="node">
<title>GO:0098796</title>
<polygon fill="#ffffff" stroke="#000000" points="496.7326,-127.4019 326.8278,-127.4019 326.8278,-86.1981 496.7326,-86.1981 496.7326,-127.4019"/>
<text text-anchor="middle" x="411.7802" y="-111" font-family="Times,serif" font-size="14.00" fill="#000000">GO:0098796</text>
<text text-anchor="middle" x="411.7802" y="-94.2" font-family="Times,serif" font-size="14.00" fill="#000000">membrane protein complex</text>
</g>
<!-- GO:0043234 -->
<g id="node6" class="node">
<title>GO:0043234</title>
<polygon fill="#ffffff" stroke="#000000" points="506.6476,-213.4019 398.9128,-213.4019 398.9128,-172.1981 506.6476,-172.1981 506.6476,-213.4019"/>
<text text-anchor="middle" x="452.7802" y="-197" font-family="Times,serif" font-size="14.00" fill="#000000">GO:0043234</text>
<text text-anchor="middle" x="452.7802" y="-180.2" font-family="Times,serif" font-size="14.00" fill="#000000">protein complex</text>
</g>
<!-- GO:0098796&#45;&gt;GO:0043234 -->
<g id="edge4" class="edge">
<title>GO:0098796&#45;&gt;GO:0043234</title>
<path fill="none" stroke="#000000" d="M421.7052,-127.6182C426.7413,-138.1818 432.9499,-151.2048 438.4903,-162.8261"/>
<polygon fill="#000000" stroke="#000000" points="435.4838,-164.6531 442.9466,-172.1735 441.8025,-161.6406 435.4838,-164.6531"/>
</g>
<!-- GO:0044425 -->
<g id="node7" class="node">
<title>GO:0044425</title>
<polygon fill="#ff00ff" stroke="#000000" points="381.1322,-213.4019 280.4282,-213.4019 280.4282,-172.1981 381.1322,-172.1981 381.1322,-213.4019"/>
<text text-anchor="middle" x="330.7802" y="-197" font-family="Times,serif" font-size="14.00" fill="#000000">GO:0044425</text>
<text text-anchor="middle" x="330.7802" y="-180.2" font-family="Times,serif" font-size="14.00" fill="#000000">membrane part</text>
</g>
<!-- GO:0098796&#45;&gt;GO:0044425 -->
<g id="edge5" class="edge">
<title>GO:0098796&#45;&gt;GO:0044425</title>
<path fill="none" stroke="#000000" d="M392.1724,-127.6182C381.7255,-138.7099 368.7247,-152.5132 357.38,-164.5583"/>
<polygon fill="#000000" stroke="#000000" points="354.5159,-162.4943 350.2075,-172.1735 359.6116,-167.2937 354.5159,-162.4943"/>
</g>
<!-- GO:0032991 -->
<g id="node8" class="node">
<title>GO:0032991</title>
<polygon fill="#ffffff" stroke="#000000" points="531.9475,-291.0019 373.6129,-291.0019 373.6129,-249.7981 531.9475,-249.7981 531.9475,-291.0019"/>
<text text-anchor="middle" x="452.7802" y="-274.6" font-family="Times,serif" font-size="14.00" fill="#000000">GO:0032991</text>
<text text-anchor="middle" x="452.7802" y="-257.8" font-family="Times,serif" font-size="14.00" fill="#000000">macromolecular complex</text>
</g>
<!-- GO:0043234&#45;&gt;GO:0032991 -->
<g id="edge6" class="edge">
<title>GO:0043234&#45;&gt;GO:0032991</title>
<path fill="none" stroke="#000000" d="M452.7802,-213.5954C452.7802,-221.5109 452.7802,-230.7109 452.7802,-239.3722"/>
<polygon fill="#000000" stroke="#000000" points="449.2803,-239.5472 452.7802,-249.5472 456.2803,-239.5473 449.2803,-239.5472"/>
</g>
<!-- GO:0044425&#45;&gt;GO:0005575 -->
<g id="edge7" class="edge">
<title>GO:0044425&#45;&gt;GO:0005575</title>
<path fill="none" stroke="#000000" d="M300.4983,-213.5954C286.9452,-222.9026 270.806,-233.9858 256.397,-243.8809"/>
<polygon fill="#000000" stroke="#000000" points="254.4078,-241.001 248.1457,-249.5472 258.3705,-246.7714 254.4078,-241.001"/>
</g>
<!-- GO:0044444 -->
<g id="node9" class="node">
<title>GO:0044444</title>
<polygon fill="#ff00ff" stroke="#000000" points="268.1968,-41.4019 159.3636,-41.4019 159.3636,-.1981 268.1968,-.1981 268.1968,-41.4019"/>
<text text-anchor="middle" x="213.7802" y="-25" font-family="Times,serif" font-size="14.00" fill="#000000">GO:0044444</text>
<text text-anchor="middle" x="213.7802" y="-8.2" font-family="Times,serif" font-size="14.00" fill="#000000">cytoplasmic part</text>
</g>
<!-- GO:0044424 -->
<g id="node10" class="node">
<title>GO:0044424</title>
<polygon fill="#ffffff" stroke="#000000" points="268.1786,-127.4019 159.3818,-127.4019 159.3818,-86.1981 268.1786,-86.1981 268.1786,-127.4019"/>
<text text-anchor="middle" x="213.7802" y="-111" font-family="Times,serif" font-size="14.00" fill="#000000">GO:0044424</text>
<text text-anchor="middle" x="213.7802" y="-94.2" font-family="Times,serif" font-size="14.00" fill="#000000">intracellular part</text>
</g>
<!-- GO:0044444&#45;&gt;GO:0044424 -->
<g id="edge8" class="edge">
<title>GO:0044444&#45;&gt;GO:0044424</title>
<path fill="none" stroke="#000000" d="M213.7802,-41.6182C213.7802,-51.9705 213.7802,-64.6848 213.7802,-76.1271"/>
<polygon fill="#000000" stroke="#000000" points="210.2803,-76.1735 213.7802,-86.1735 217.2803,-76.1735 210.2803,-76.1735"/>
</g>
<!-- GO:0044424&#45;&gt;GO:0044464 -->
<g id="edge9" class="edge">
<title>GO:0044424&#45;&gt;GO:0044464</title>
<path fill="none" stroke="#000000" d="M188.8468,-127.6182C175.1829,-139.0268 158.0833,-153.3042 143.3734,-165.5863"/>
<polygon fill="#000000" stroke="#000000" points="140.9169,-163.0777 135.484,-172.1735 145.4034,-168.451 140.9169,-163.0777"/>
</g>
</g>
</svg>
