<?xml version="1.0" encoding="UTF-8" standalone="no"?>
<!DOCTYPE svg PUBLIC "-//W3C//DTD SVG 1.1//EN"
 "http://www.w3.org/Graphics/SVG/1.1/DTD/svg11.dtd">
<!-- Generated by graphviz version 2.40.1 (20161225.0304)
 -->
<!-- Title: G Pages: 1 -->
<svg width="916pt" height="522pt"
 viewBox="0.00 0.00 915.69 521.60" xmlns="http://www.w3.org/2000/svg" xmlns:xlink="http://www.w3.org/1999/xlink">
<g id="graph0" class="graph" transform="scale(1 1) rotate(0) translate(4 517.6)">
<title>G</title>
<polygon fill="#ffffff" stroke="transparent" points="-4,4 -4,-517.6 911.6859,-517.6 911.6859,4 -4,4"/>
<!-- GO:0043190 -->
<g id="node1" class="node">
<title>GO:0043190</title>
<polygon fill="#ffffff" stroke="#000000" points="352.5138,-58.6014 182.6174,-58.6014 182.6174,.2014 352.5138,.2014 352.5138,-58.6014"/>
<text text-anchor="middle" x="267.5656" y="-41.8" font-family="Times,serif" font-size="14.00" fill="#000000">GO:0043190</text>
<text text-anchor="middle" x="267.5656" y="-25" font-family="Times,serif" font-size="14.00" fill="#000000">ATP&#45;binding cassette</text>
<text text-anchor="middle" x="267.5656" y="-8.2" font-family="Times,serif" font-size="14.00" fill="#000000">(ABC) transporter complex</text>
</g>
<!-- GO:0098797 -->
<g id="node2" class="node">
<title>GO:0098797</title>
<polygon fill="#ffffff" stroke="#000000" points="477.4631,-264.2014 315.6681,-264.2014 315.6681,-205.3986 477.4631,-205.3986 477.4631,-264.2014"/>
<text text-anchor="middle" x="396.5656" y="-247.4" font-family="Times,serif" font-size="14.00" fill="#000000">GO:0098797</text>
<text text-anchor="middle" x="396.5656" y="-230.6" font-family="Times,serif" font-size="14.00" fill="#000000">plasma membrane protein</text>
<text text-anchor="middle" x="396.5656" y="-213.8" font-family="Times,serif" font-size="14.00" fill="#000000">complex</text>
</g>
<!-- GO:0043190&#45;&gt;GO:0098797 -->
<g id="edge1" class="edge">
<title>GO:0043190&#45;&gt;GO:0098797</title>
<path fill="none" stroke="#000000" d="M286.0482,-58.6575C308.8468,-94.9939 347.6507,-156.8395 372.6862,-196.741"/>
<polygon fill="#000000" stroke="#000000" points="369.8377,-198.7866 378.1173,-205.3972 375.7672,-195.0663 369.8377,-198.7866"/>
</g>
<!-- GO:0098533 -->
<g id="node3" class="node">
<title>GO:0098533</title>
<polygon fill="#ffffff" stroke="#000000" points="292.1238,-169.7003 137.0074,-169.7003 137.0074,-94.2997 292.1238,-94.2997 292.1238,-169.7003"/>
<text text-anchor="middle" x="214.5656" y="-153" font-family="Times,serif" font-size="14.00" fill="#000000">GO:0098533</text>
<text text-anchor="middle" x="214.5656" y="-136.2" font-family="Times,serif" font-size="14.00" fill="#000000">ATPase dependent</text>
<text text-anchor="middle" x="214.5656" y="-119.4" font-family="Times,serif" font-size="14.00" fill="#000000">transmembrane transport</text>
<text text-anchor="middle" x="214.5656" y="-102.6" font-family="Times,serif" font-size="14.00" fill="#000000">complex</text>
</g>
<!-- GO:0043190&#45;&gt;GO:0098533 -->
<g id="edge2" class="edge">
<title>GO:0043190&#45;&gt;GO:0098533</title>
<path fill="none" stroke="#000000" d="M252.3779,-58.6584C248.1108,-66.935 243.3619,-76.146 238.7106,-85.1678"/>
<polygon fill="#000000" stroke="#000000" points="235.5849,-83.5928 234.1132,-94.085 241.8066,-86.8006 235.5849,-83.5928"/>
</g>
<!-- GO:0098796 -->
<g id="node4" class="node">
<title>GO:0098796</title>
<polygon fill="#ffffff" stroke="#000000" points="449.518,-349.8019 279.6132,-349.8019 279.6132,-308.5981 449.518,-308.5981 449.518,-349.8019"/>
<text text-anchor="middle" x="364.5656" y="-333.4" font-family="Times,serif" font-size="14.00" fill="#000000">GO:0098796</text>
<text text-anchor="middle" x="364.5656" y="-316.6" font-family="Times,serif" font-size="14.00" fill="#000000">membrane protein complex</text>
</g>
<!-- GO:0098797&#45;&gt;GO:0098796 -->
<g id="edge3" class="edge">
<title>GO:0098797&#45;&gt;GO:0098796</title>
<path fill="none" stroke="#000000" d="M386.616,-264.1513C382.8795,-275.1739 378.6268,-287.7196 374.8596,-298.8326"/>
<polygon fill="#000000" stroke="#000000" points="371.461,-297.9567 371.5653,-308.551 378.0905,-300.204 371.461,-297.9567"/>
</g>
<!-- GO:0044459 -->
<g id="node5" class="node">
<title>GO:0044459</title>
<polygon fill="#ffffff" stroke="#000000" points="611.0728,-349.8019 468.0584,-349.8019 468.0584,-308.5981 611.0728,-308.5981 611.0728,-349.8019"/>
<text text-anchor="middle" x="539.5656" y="-333.4" font-family="Times,serif" font-size="14.00" fill="#000000">GO:0044459</text>
<text text-anchor="middle" x="539.5656" y="-316.6" font-family="Times,serif" font-size="14.00" fill="#000000">plasma membrane part</text>
</g>
<!-- GO:0098797&#45;&gt;GO:0044459 -->
<g id="edge4" class="edge">
<title>GO:0098797&#45;&gt;GO:0044459</title>
<path fill="none" stroke="#000000" d="M441.0278,-264.1513C459.7698,-276.5236 481.4185,-290.8148 499.6424,-302.8451"/>
<polygon fill="#000000" stroke="#000000" points="498.012,-305.9627 508.2858,-308.551 501.8685,-300.1208 498.012,-305.9627"/>
</g>
<!-- GO:1904949 -->
<g id="node6" class="node">
<title>GO:1904949</title>
<polygon fill="#ffffff" stroke="#000000" points="113.5916,-255.4019 1.5396,-255.4019 1.5396,-214.1981 113.5916,-214.1981 113.5916,-255.4019"/>
<text text-anchor="middle" x="57.5656" y="-239" font-family="Times,serif" font-size="14.00" fill="#000000">GO:1904949</text>
<text text-anchor="middle" x="57.5656" y="-222.2" font-family="Times,serif" font-size="14.00" fill="#000000">ATPase complex</text>
</g>
<!-- GO:0098533&#45;&gt;GO:1904949 -->
<g id="edge5" class="edge">
<title>GO:0098533&#45;&gt;GO:1904949</title>
<path fill="none" stroke="#000000" d="M156.9961,-169.6952C137.2915,-182.5973 115.6888,-196.7422 97.6681,-208.5418"/>
<polygon fill="#000000" stroke="#000000" points="95.5821,-205.7241 89.1333,-214.1302 99.4167,-211.5804 95.5821,-205.7241"/>
</g>
<!-- GO:1902495 -->
<g id="node7" class="node">
<title>GO:1902495</title>
<polygon fill="#ffffff" stroke="#000000" points="297.999,-264.2014 131.1322,-264.2014 131.1322,-205.3986 297.999,-205.3986 297.999,-264.2014"/>
<text text-anchor="middle" x="214.5656" y="-247.4" font-family="Times,serif" font-size="14.00" fill="#000000">GO:1902495</text>
<text text-anchor="middle" x="214.5656" y="-230.6" font-family="Times,serif" font-size="14.00" fill="#000000">transmembrane transporter</text>
<text text-anchor="middle" x="214.5656" y="-213.8" font-family="Times,serif" font-size="14.00" fill="#000000">complex</text>
</g>
<!-- GO:0098533&#45;&gt;GO:1902495 -->
<g id="edge6" class="edge">
<title>GO:0098533&#45;&gt;GO:1902495</title>
<path fill="none" stroke="#000000" d="M214.5656,-169.6952C214.5656,-178.0874 214.5656,-187.0054 214.5656,-195.4618"/>
<polygon fill="#000000" stroke="#000000" points="211.0657,-195.4813 214.5656,-205.4814 218.0657,-195.4814 211.0657,-195.4813"/>
</g>
<!-- GO:0043234 -->
<g id="node8" class="node">
<title>GO:0043234</title>
<polygon fill="#ffffff" stroke="#000000" points="251.433,-435.8019 143.6982,-435.8019 143.6982,-394.5981 251.433,-394.5981 251.433,-435.8019"/>
<text text-anchor="middle" x="197.5656" y="-419.4" font-family="Times,serif" font-size="14.00" fill="#000000">GO:0043234</text>
<text text-anchor="middle" x="197.5656" y="-402.6" font-family="Times,serif" font-size="14.00" fill="#000000">protein complex</text>
</g>
<!-- GO:0098796&#45;&gt;GO:0043234 -->
<g id="edge7" class="edge">
<title>GO:0098796&#45;&gt;GO:0043234</title>
<path fill="none" stroke="#000000" d="M324.1396,-350.0182C300.8574,-362.0078 271.4227,-377.1658 246.7984,-389.8466"/>
<polygon fill="#000000" stroke="#000000" points="244.9074,-386.8835 237.6194,-394.5735 248.1122,-393.1068 244.9074,-386.8835"/>
</g>
<!-- GO:0044425 -->
<g id="node9" class="node">
<title>GO:0044425</title>
<polygon fill="#ffffff" stroke="#000000" points="600.9176,-435.8019 500.2136,-435.8019 500.2136,-394.5981 600.9176,-394.5981 600.9176,-435.8019"/>
<text text-anchor="middle" x="550.5656" y="-419.4" font-family="Times,serif" font-size="14.00" fill="#000000">GO:0044425</text>
<text text-anchor="middle" x="550.5656" y="-402.6" font-family="Times,serif" font-size="14.00" fill="#000000">membrane part</text>
</g>
<!-- GO:0098796&#45;&gt;GO:0044425 -->
<g id="edge8" class="edge">
<title>GO:0098796&#45;&gt;GO:0044425</title>
<path fill="none" stroke="#000000" d="M409.591,-350.0182C435.8648,-362.1663 469.1733,-377.567 496.8159,-390.348"/>
<polygon fill="#000000" stroke="#000000" points="495.4092,-393.5535 505.9548,-394.5735 498.347,-387.1998 495.4092,-393.5535"/>
</g>
<!-- GO:0044459&#45;&gt;GO:0044425 -->
<g id="edge9" class="edge">
<title>GO:0044459&#45;&gt;GO:0044425</title>
<path fill="none" stroke="#000000" d="M542.2284,-350.0182C543.5525,-360.3705 545.1788,-373.0848 546.6423,-384.5271"/>
<polygon fill="#000000" stroke="#000000" points="543.1868,-385.0984 547.9273,-394.5735 550.1302,-384.2102 543.1868,-385.0984"/>
</g>
<!-- GO:0044464 -->
<g id="node10" class="node">
<title>GO:0044464</title>
<polygon fill="#ffffff" stroke="#000000" points="752.1695,-435.8019 662.9617,-435.8019 662.9617,-394.5981 752.1695,-394.5981 752.1695,-435.8019"/>
<text text-anchor="middle" x="707.5656" y="-419.4" font-family="Times,serif" font-size="14.00" fill="#000000">GO:0044464</text>
<text text-anchor="middle" x="707.5656" y="-402.6" font-family="Times,serif" font-size="14.00" fill="#000000">cell part</text>
</g>
<!-- GO:0044459&#45;&gt;GO:0044464 -->
<g id="edge10" class="edge">
<title>GO:0044459&#45;&gt;GO:0044464</title>
<path fill="none" stroke="#000000" d="M580.2337,-350.0182C603.7585,-362.0606 633.5273,-377.2994 658.365,-390.014"/>
<polygon fill="#000000" stroke="#000000" points="656.7756,-393.1323 667.272,-394.5735 659.9654,-386.9012 656.7756,-393.1323"/>
</g>
<!-- GO:1902494 -->
<g id="node11" class="node">
<title>GO:1902494</title>
<polygon fill="#ffffff" stroke="#000000" points="115.1969,-349.8019 -.0657,-349.8019 -.0657,-308.5981 115.1969,-308.5981 115.1969,-349.8019"/>
<text text-anchor="middle" x="57.5656" y="-333.4" font-family="Times,serif" font-size="14.00" fill="#000000">GO:1902494</text>
<text text-anchor="middle" x="57.5656" y="-316.6" font-family="Times,serif" font-size="14.00" fill="#000000">catalytic complex</text>
</g>
<!-- GO:1904949&#45;&gt;GO:1902494 -->
<g id="edge11" class="edge">
<title>GO:1904949&#45;&gt;GO:1902494</title>
<path fill="none" stroke="#000000" d="M57.5656,-255.7504C57.5656,-268.2165 57.5656,-284.2645 57.5656,-298.1786"/>
<polygon fill="#000000" stroke="#000000" points="54.0657,-298.3081 57.5656,-308.3081 61.0657,-298.3082 54.0657,-298.3081"/>
</g>
<!-- GO:1902495&#45;&gt;GO:0098796 -->
<g id="edge12" class="edge">
<title>GO:1902495&#45;&gt;GO:0098796</title>
<path fill="none" stroke="#000000" d="M261.2043,-264.1513C281.0425,-276.6361 303.9853,-291.0748 323.2086,-303.1727"/>
<polygon fill="#000000" stroke="#000000" points="321.427,-306.1868 331.7547,-308.551 325.1554,-300.2624 321.427,-306.1868"/>
</g>
<!-- GO:1990351 -->
<g id="node12" class="node">
<title>GO:1990351</title>
<polygon fill="#ffffff" stroke="#000000" points="261.9133,-349.8019 133.2179,-349.8019 133.2179,-308.5981 261.9133,-308.5981 261.9133,-349.8019"/>
<text text-anchor="middle" x="197.5656" y="-333.4" font-family="Times,serif" font-size="14.00" fill="#000000">GO:1990351</text>
<text text-anchor="middle" x="197.5656" y="-316.6" font-family="Times,serif" font-size="14.00" fill="#000000">transporter complex</text>
</g>
<!-- GO:1902495&#45;&gt;GO:1990351 -->
<g id="edge13" class="edge">
<title>GO:1902495&#45;&gt;GO:1990351</title>
<path fill="none" stroke="#000000" d="M209.2799,-264.1513C207.3151,-275.0614 205.0817,-287.4637 203.0956,-298.492"/>
<polygon fill="#000000" stroke="#000000" points="199.612,-298.0889 201.2842,-308.551 206.5012,-299.3296 199.612,-298.0889"/>
</g>
<!-- GO:0032991 -->
<g id="node13" class="node">
<title>GO:0032991</title>
<polygon fill="#ffffff" stroke="#000000" points="276.7329,-513.4019 118.3983,-513.4019 118.3983,-472.1981 276.7329,-472.1981 276.7329,-513.4019"/>
<text text-anchor="middle" x="197.5656" y="-497" font-family="Times,serif" font-size="14.00" fill="#000000">GO:0032991</text>
<text text-anchor="middle" x="197.5656" y="-480.2" font-family="Times,serif" font-size="14.00" fill="#000000">macromolecular complex</text>
</g>
<!-- GO:0043234&#45;&gt;GO:0032991 -->
<g id="edge14" class="edge">
<title>GO:0043234&#45;&gt;GO:0032991</title>
<path fill="none" stroke="#000000" d="M197.5656,-435.9954C197.5656,-443.9109 197.5656,-453.1109 197.5656,-461.7722"/>
<polygon fill="#000000" stroke="#000000" points="194.0657,-461.9472 197.5656,-471.9472 201.0657,-461.9473 194.0657,-461.9472"/>
</g>
<!-- GO:0005575 -->
<g id="node14" class="node">
<title>GO:0005575</title>
<polygon fill="#ffffff" stroke="#000000" points="771.2523,-513.4019 643.8789,-513.4019 643.8789,-472.1981 771.2523,-472.1981 771.2523,-513.4019"/>
<text text-anchor="middle" x="707.5656" y="-497" font-family="Times,serif" font-size="14.00" fill="#000000">GO:0005575</text>
<text text-anchor="middle" x="707.5656" y="-480.2" font-family="Times,serif" font-size="14.00" fill="#000000">cellular_component</text>
</g>
<!-- GO:0044425&#45;&gt;GO:0005575 -->
<g id="edge15" class="edge">
<title>GO:0044425&#45;&gt;GO:0005575</title>
<path fill="none" stroke="#000000" d="M592.6387,-435.9954C612.3401,-445.7331 635.9748,-457.415 656.6744,-467.6461"/>
<polygon fill="#000000" stroke="#000000" points="655.1332,-470.7885 665.6488,-472.0819 658.2349,-464.5132 655.1332,-470.7885"/>
</g>
<!-- GO:0044464&#45;&gt;GO:0005575 -->
<g id="edge16" class="edge">
<title>GO:0044464&#45;&gt;GO:0005575</title>
<path fill="none" stroke="#000000" d="M707.5656,-435.9954C707.5656,-443.9109 707.5656,-453.1109 707.5656,-461.7722"/>
<polygon fill="#000000" stroke="#000000" points="704.0657,-461.9472 707.5656,-471.9472 711.0657,-461.9473 704.0657,-461.9472"/>
</g>
<!-- GO:1902494&#45;&gt;GO:0043234 -->
<g id="edge17" class="edge">
<title>GO:1902494&#45;&gt;GO:0043234</title>
<path fill="none" stroke="#000000" d="M91.4557,-350.0182C110.6298,-361.7966 134.7815,-376.6326 155.1976,-389.1739"/>
<polygon fill="#000000" stroke="#000000" points="153.6348,-392.3216 163.9876,-394.5735 157.2988,-386.357 153.6348,-392.3216"/>
</g>
<!-- GO:1990351&#45;&gt;GO:0043234 -->
<g id="edge18" class="edge">
<title>GO:1990351&#45;&gt;GO:0043234</title>
<path fill="none" stroke="#000000" d="M197.5656,-350.0182C197.5656,-360.3705 197.5656,-373.0848 197.5656,-384.5271"/>
<polygon fill="#000000" stroke="#000000" points="194.0657,-384.5735 197.5656,-394.5735 201.0657,-384.5735 194.0657,-384.5735"/>
</g>
<!-- GO:0016021 -->
<g id="node15" class="node">
<title>GO:0016021</title>
<polygon fill="#ffffff" stroke="#000000" points="770.1987,-264.2014 630.9325,-264.2014 630.9325,-205.3986 770.1987,-205.3986 770.1987,-264.2014"/>
<text text-anchor="middle" x="700.5656" y="-247.4" font-family="Times,serif" font-size="14.00" fill="#000000">GO:0016021</text>
<text text-anchor="middle" x="700.5656" y="-230.6" font-family="Times,serif" font-size="14.00" fill="#000000">integral component of</text>
<text text-anchor="middle" x="700.5656" y="-213.8" font-family="Times,serif" font-size="14.00" fill="#000000">membrane</text>
</g>
<!-- GO:0031224 -->
<g id="node16" class="node">
<title>GO:0031224</title>
<polygon fill="#ffffff" stroke="#000000" points="771.819,-358.6014 629.3122,-358.6014 629.3122,-299.7986 771.819,-299.7986 771.819,-358.6014"/>
<text text-anchor="middle" x="700.5656" y="-341.8" font-family="Times,serif" font-size="14.00" fill="#000000">GO:0031224</text>
<text text-anchor="middle" x="700.5656" y="-325" font-family="Times,serif" font-size="14.00" fill="#000000">intrinsic component of</text>
<text text-anchor="middle" x="700.5656" y="-308.2" font-family="Times,serif" font-size="14.00" fill="#000000">membrane</text>
</g>
<!-- GO:0016021&#45;&gt;GO:0031224 -->
<g id="edge19" class="edge">
<title>GO:0016021&#45;&gt;GO:0031224</title>
<path fill="none" stroke="#000000" d="M700.5656,-264.1513C700.5656,-272.2318 700.5656,-281.1308 700.5656,-289.6838"/>
<polygon fill="#000000" stroke="#000000" points="697.0657,-289.8668 700.5656,-299.8669 704.0657,-289.8669 697.0657,-289.8668"/>
</g>
<!-- GO:0031224&#45;&gt;GO:0044425 -->
<g id="edge20" class="edge">
<title>GO:0031224&#45;&gt;GO:0044425</title>
<path fill="none" stroke="#000000" d="M649.3636,-358.5558C632.0341,-368.4914 612.8134,-379.5112 595.9662,-389.1703"/>
<polygon fill="#000000" stroke="#000000" points="593.8124,-386.3707 586.8779,-394.3809 597.2941,-392.4434 593.8124,-386.3707"/>
</g>
<!-- GO:0005886 -->
<g id="node17" class="node">
<title>GO:0005886</title>
<polygon fill="#ffffff" stroke="#000000" points="907.8064,-349.8019 789.3248,-349.8019 789.3248,-308.5981 907.8064,-308.5981 907.8064,-349.8019"/>
<text text-anchor="middle" x="848.5656" y="-333.4" font-family="Times,serif" font-size="14.00" fill="#000000">GO:0005886</text>
<text text-anchor="middle" x="848.5656" y="-316.6" font-family="Times,serif" font-size="14.00" fill="#000000">plasma membrane</text>
</g>
<!-- GO:0005886&#45;&gt;GO:0044464 -->
<g id="edge22" class="edge">
<title>GO:0005886&#45;&gt;GO:0044464</title>
<path fill="none" stroke="#000000" d="M814.4334,-350.0182C795.0358,-361.8494 770.5799,-376.7657 749.9599,-389.3425"/>
<polygon fill="#000000" stroke="#000000" points="748.0982,-386.3783 741.3834,-394.5735 751.7433,-392.3544 748.0982,-386.3783"/>
</g>
<!-- GO:0016020 -->
<g id="node18" class="node">
<title>GO:0016020</title>
<polygon fill="#ffffff" stroke="#000000" points="881.1695,-435.8019 791.9617,-435.8019 791.9617,-394.5981 881.1695,-394.5981 881.1695,-435.8019"/>
<text text-anchor="middle" x="836.5656" y="-419.4" font-family="Times,serif" font-size="14.00" fill="#000000">GO:0016020</text>
<text text-anchor="middle" x="836.5656" y="-402.6" font-family="Times,serif" font-size="14.00" fill="#000000">membrane</text>
</g>
<!-- GO:0005886&#45;&gt;GO:0016020 -->
<g id="edge21" class="edge">
<title>GO:0005886&#45;&gt;GO:0016020</title>
<path fill="none" stroke="#000000" d="M845.6607,-350.0182C844.2162,-360.3705 842.4421,-373.0848 840.8455,-384.5271"/>
<polygon fill="#000000" stroke="#000000" points="837.3593,-384.1857 839.4437,-394.5735 844.2922,-385.1532 837.3593,-384.1857"/>
</g>
<!-- GO:0016020&#45;&gt;GO:0005575 -->
<g id="edge23" class="edge">
<title>GO:0016020&#45;&gt;GO:0005575</title>
<path fill="none" stroke="#000000" d="M801.996,-435.9954C786.3793,-445.3896 767.7549,-456.5931 751.1896,-466.558"/>
<polygon fill="#000000" stroke="#000000" points="748.9956,-463.7933 742.2307,-471.9472 752.6039,-469.7916 748.9956,-463.7933"/>
</g>
</g>
</svg>
