<?xml version="1.0" encoding="UTF-8" standalone="no"?>
<!DOCTYPE svg PUBLIC "-//W3C//DTD SVG 1.1//EN"
 "http://www.w3.org/Graphics/SVG/1.1/DTD/svg11.dtd">
<!-- Generated by graphviz version 2.40.1 (20161225.0304)
 -->
<!-- Title: G Pages: 1 -->
<svg width="526pt" height="316pt"
 viewBox="0.00 0.00 525.77 316.00" xmlns="http://www.w3.org/2000/svg" xmlns:xlink="http://www.w3.org/1999/xlink">
<g id="graph0" class="graph" transform="scale(1 1) rotate(0) translate(4 312)">
<title>G</title>
<polygon fill="#ffffff" stroke="transparent" points="-4,4 -4,-312 521.7662,-312 521.7662,4 -4,4"/>
<!-- GO:0044710 -->
<g id="node1" class="node">
<title>GO:0044710</title>
<polygon fill="#ffffff" stroke="#000000" points="209.7508,-153.0014 44.9344,-153.0014 44.9344,-94.1986 209.7508,-94.1986 209.7508,-153.0014"/>
<text text-anchor="middle" x="127.3426" y="-136.2" font-family="Times,serif" font-size="14.00" fill="#000000">GO:0044710</text>
<text text-anchor="middle" x="127.3426" y="-119.4" font-family="Times,serif" font-size="14.00" fill="#000000">single&#45;organism metabolic</text>
<text text-anchor="middle" x="127.3426" y="-102.6" font-family="Times,serif" font-size="14.00" fill="#000000">process</text>
</g>
<!-- GO:0008152 -->
<g id="node2" class="node">
<title>GO:0008152</title>
<polygon fill="#ffffff" stroke="#000000" points="116.5282,-230.2019 .157,-230.2019 .157,-188.9981 116.5282,-188.9981 116.5282,-230.2019"/>
<text text-anchor="middle" x="58.3426" y="-213.8" font-family="Times,serif" font-size="14.00" fill="#000000">GO:0008152</text>
<text text-anchor="middle" x="58.3426" y="-197" font-family="Times,serif" font-size="14.00" fill="#000000">metabolic process</text>
</g>
<!-- GO:0044710&#45;&gt;GO:0008152 -->
<g id="edge1" class="edge">
<title>GO:0044710&#45;&gt;GO:0008152</title>
<path fill="none" stroke="#000000" d="M103.5967,-153.1963C96.3739,-162.1986 88.4524,-172.0719 81.2837,-181.0067"/>
<polygon fill="#000000" stroke="#000000" points="78.4816,-178.9064 74.9535,-188.8966 83.9415,-183.287 78.4816,-178.9064"/>
</g>
<!-- GO:0044699 -->
<g id="node3" class="node">
<title>GO:0044699</title>
<polygon fill="#ffffff" stroke="#000000" points="286.0239,-230.2019 134.6613,-230.2019 134.6613,-188.9981 286.0239,-188.9981 286.0239,-230.2019"/>
<text text-anchor="middle" x="210.3426" y="-213.8" font-family="Times,serif" font-size="14.00" fill="#000000">GO:0044699</text>
<text text-anchor="middle" x="210.3426" y="-197" font-family="Times,serif" font-size="14.00" fill="#000000">single&#45;organism process</text>
</g>
<!-- GO:0044710&#45;&gt;GO:0044699 -->
<g id="edge2" class="edge">
<title>GO:0044710&#45;&gt;GO:0044699</title>
<path fill="none" stroke="#000000" d="M155.9065,-153.1963C164.7721,-162.3824 174.5129,-172.4752 183.2736,-181.5526"/>
<polygon fill="#000000" stroke="#000000" points="180.8985,-184.1316 190.3614,-188.8966 185.9353,-179.2705 180.8985,-184.1316"/>
</g>
<!-- GO:0008150 -->
<g id="node4" class="node">
<title>GO:0008150</title>
<polygon fill="#ffffff" stroke="#000000" points="270.8132,-307.8019 149.872,-307.8019 149.872,-266.5981 270.8132,-266.5981 270.8132,-307.8019"/>
<text text-anchor="middle" x="210.3426" y="-291.4" font-family="Times,serif" font-size="14.00" fill="#000000">GO:0008150</text>
<text text-anchor="middle" x="210.3426" y="-274.6" font-family="Times,serif" font-size="14.00" fill="#000000">biological_process</text>
</g>
<!-- GO:0008152&#45;&gt;GO:0008150 -->
<g id="edge3" class="edge">
<title>GO:0008152&#45;&gt;GO:0008150</title>
<path fill="none" stroke="#000000" d="M99.0758,-230.3954C118.0642,-240.0895 140.8266,-251.7102 160.8023,-261.9084"/>
<polygon fill="#000000" stroke="#000000" points="159.2628,-265.0521 169.7607,-266.4819 162.4457,-258.8176 159.2628,-265.0521"/>
</g>
<!-- GO:0044699&#45;&gt;GO:0008150 -->
<g id="edge4" class="edge">
<title>GO:0044699&#45;&gt;GO:0008150</title>
<path fill="none" stroke="#000000" d="M210.3426,-230.3954C210.3426,-238.3109 210.3426,-247.5109 210.3426,-256.1722"/>
<polygon fill="#000000" stroke="#000000" points="206.8427,-256.3472 210.3426,-266.3472 213.8427,-256.3473 206.8427,-256.3472"/>
</g>
<!-- GO:0050790 -->
<g id="node5" class="node">
<title>GO:0050790</title>
<polygon fill="#ffffff" stroke="#000000" points="360.6857,-58.6014 221.9995,-58.6014 221.9995,.2014 360.6857,.2014 360.6857,-58.6014"/>
<text text-anchor="middle" x="291.3426" y="-41.8" font-family="Times,serif" font-size="14.00" fill="#000000">GO:0050790</text>
<text text-anchor="middle" x="291.3426" y="-25" font-family="Times,serif" font-size="14.00" fill="#000000">regulation of catalytic</text>
<text text-anchor="middle" x="291.3426" y="-8.2" font-family="Times,serif" font-size="14.00" fill="#000000">activity</text>
</g>
<!-- GO:0065009 -->
<g id="node6" class="node">
<title>GO:0065009</title>
<polygon fill="#ffffff" stroke="#000000" points="444.2415,-153.0014 296.4437,-153.0014 296.4437,-94.1986 444.2415,-94.1986 444.2415,-153.0014"/>
<text text-anchor="middle" x="370.3426" y="-136.2" font-family="Times,serif" font-size="14.00" fill="#000000">GO:0065009</text>
<text text-anchor="middle" x="370.3426" y="-119.4" font-family="Times,serif" font-size="14.00" fill="#000000">regulation of molecular</text>
<text text-anchor="middle" x="370.3426" y="-102.6" font-family="Times,serif" font-size="14.00" fill="#000000">function</text>
</g>
<!-- GO:0050790&#45;&gt;GO:0065009 -->
<g id="edge5" class="edge">
<title>GO:0050790&#45;&gt;GO:0065009</title>
<path fill="none" stroke="#000000" d="M315.9056,-58.5513C323.2624,-67.3422 331.4299,-77.1018 339.1533,-86.3308"/>
<polygon fill="#000000" stroke="#000000" points="336.6928,-88.8442 345.7947,-94.2669 342.061,-84.3517 336.6928,-88.8442"/>
</g>
<!-- GO:0065007 -->
<g id="node7" class="node">
<title>GO:0065007</title>
<polygon fill="#ffffff" stroke="#000000" points="436.596,-230.2019 304.0892,-230.2019 304.0892,-188.9981 436.596,-188.9981 436.596,-230.2019"/>
<text text-anchor="middle" x="370.3426" y="-213.8" font-family="Times,serif" font-size="14.00" fill="#000000">GO:0065007</text>
<text text-anchor="middle" x="370.3426" y="-197" font-family="Times,serif" font-size="14.00" fill="#000000">biological regulation</text>
</g>
<!-- GO:0065009&#45;&gt;GO:0065007 -->
<g id="edge6" class="edge">
<title>GO:0065009&#45;&gt;GO:0065007</title>
<path fill="none" stroke="#000000" d="M370.3426,-153.1963C370.3426,-161.4638 370.3426,-170.4657 370.3426,-178.8008"/>
<polygon fill="#000000" stroke="#000000" points="366.8427,-178.8965 370.3426,-188.8966 373.8427,-178.8966 366.8427,-178.8965"/>
</g>
<!-- GO:0065007&#45;&gt;GO:0008150 -->
<g id="edge7" class="edge">
<title>GO:0065007&#45;&gt;GO:0008150</title>
<path fill="none" stroke="#000000" d="M327.4655,-230.3954C307.3877,-240.1331 283.3014,-251.815 262.2063,-262.0461"/>
<polygon fill="#000000" stroke="#000000" points="260.5306,-258.9688 253.0604,-266.4819 263.5853,-265.2672 260.5306,-258.9688"/>
</g>
<!-- GO:0044092 -->
<g id="node8" class="node">
<title>GO:0044092</title>
<polygon fill="#ffffff" stroke="#000000" points="517.6899,-58.6014 378.9953,-58.6014 378.9953,.2014 517.6899,.2014 517.6899,-58.6014"/>
<text text-anchor="middle" x="448.3426" y="-41.8" font-family="Times,serif" font-size="14.00" fill="#000000">GO:0044092</text>
<text text-anchor="middle" x="448.3426" y="-25" font-family="Times,serif" font-size="14.00" fill="#000000">negative regulation of</text>
<text text-anchor="middle" x="448.3426" y="-8.2" font-family="Times,serif" font-size="14.00" fill="#000000">molecular function</text>
</g>
<!-- GO:0044092&#45;&gt;GO:0065009 -->
<g id="edge8" class="edge">
<title>GO:0044092&#45;&gt;GO:0065009</title>
<path fill="none" stroke="#000000" d="M424.0905,-58.5513C416.8268,-67.3422 408.7628,-77.1018 401.1371,-86.3308"/>
<polygon fill="#000000" stroke="#000000" points="398.2513,-84.3285 394.5797,-94.2669 403.6475,-88.7873 398.2513,-84.3285"/>
</g>
</g>
</svg>
