<?xml version="1.0" encoding="UTF-8" standalone="no"?>
<!DOCTYPE svg PUBLIC "-//W3C//DTD SVG 1.1//EN"
 "http://www.w3.org/Graphics/SVG/1.1/DTD/svg11.dtd">
<!-- Generated by graphviz version 2.40.1 (20161225.0304)
 -->
<!-- Title: G Pages: 1 -->
<svg width="951pt" height="427pt"
 viewBox="0.00 0.00 951.24 427.20" xmlns="http://www.w3.org/2000/svg" xmlns:xlink="http://www.w3.org/1999/xlink">
<g id="graph0" class="graph" transform="scale(1 1) rotate(0) translate(4 423.2)">
<title>G</title>
<polygon fill="#ffffff" stroke="transparent" points="-4,4 -4,-423.2 947.2427,-423.2 947.2427,4 -4,4"/>
<!-- GO:0050662 -->
<g id="node1" class="node">
<title>GO:0050662</title>
<polygon fill="#ffffff" stroke="#000000" points="778.059,-135.8019 658.9986,-135.8019 658.9986,-94.5981 778.059,-94.5981 778.059,-135.8019"/>
<text text-anchor="middle" x="718.5288" y="-119.4" font-family="Times,serif" font-size="14.00" fill="#000000">GO:0050662</text>
<text text-anchor="middle" x="718.5288" y="-102.6" font-family="Times,serif" font-size="14.00" fill="#000000">coenzyme binding</text>
</g>
<!-- GO:0048037 -->
<g id="node2" class="node">
<title>GO:0048037</title>
<polygon fill="#ffffff" stroke="#000000" points="790.6657,-238.6019 682.3919,-238.6019 682.3919,-197.3981 790.6657,-197.3981 790.6657,-238.6019"/>
<text text-anchor="middle" x="736.5288" y="-222.2" font-family="Times,serif" font-size="14.00" fill="#000000">GO:0048037</text>
<text text-anchor="middle" x="736.5288" y="-205.4" font-family="Times,serif" font-size="14.00" fill="#000000">cofactor binding</text>
</g>
<!-- GO:0050662&#45;&gt;GO:0048037 -->
<g id="edge1" class="edge">
<title>GO:0050662&#45;&gt;GO:0048037</title>
<path fill="none" stroke="#000000" d="M722.1714,-136.0031C724.7331,-150.6337 728.2054,-170.4642 731.0935,-186.9586"/>
<polygon fill="#000000" stroke="#000000" points="727.7193,-187.9814 732.8916,-197.2278 734.6144,-186.774 727.7193,-187.9814"/>
</g>
<!-- GO:0005488 -->
<g id="node3" class="node">
<title>GO:0005488</title>
<polygon fill="#ffffff" stroke="#000000" points="635.1327,-333.0019 545.9249,-333.0019 545.9249,-291.7981 635.1327,-291.7981 635.1327,-333.0019"/>
<text text-anchor="middle" x="590.5288" y="-316.6" font-family="Times,serif" font-size="14.00" fill="#000000">GO:0005488</text>
<text text-anchor="middle" x="590.5288" y="-299.8" font-family="Times,serif" font-size="14.00" fill="#000000">binding</text>
</g>
<!-- GO:0048037&#45;&gt;GO:0005488 -->
<g id="edge2" class="edge">
<title>GO:0048037&#45;&gt;GO:0005488</title>
<path fill="none" stroke="#000000" d="M704.4885,-238.7165C682.9033,-252.6729 654.2541,-271.1968 631.0813,-286.1798"/>
<polygon fill="#000000" stroke="#000000" points="628.9916,-283.363 622.4944,-291.7318 632.7923,-289.2413 628.9916,-283.363"/>
</g>
<!-- GO:0003674 -->
<g id="node4" class="node">
<title>GO:0003674</title>
<polygon fill="#ffffff" stroke="#000000" points="313.1619,-419.0019 187.8957,-419.0019 187.8957,-377.7981 313.1619,-377.7981 313.1619,-419.0019"/>
<text text-anchor="middle" x="250.5288" y="-402.6" font-family="Times,serif" font-size="14.00" fill="#000000">GO:0003674</text>
<text text-anchor="middle" x="250.5288" y="-385.8" font-family="Times,serif" font-size="14.00" fill="#000000">molecular_function</text>
</g>
<!-- GO:0005488&#45;&gt;GO:0003674 -->
<g id="edge3" class="edge">
<title>GO:0005488&#45;&gt;GO:0003674</title>
<path fill="none" stroke="#000000" d="M545.7301,-323.7314C489.0133,-338.0774 390.5756,-362.9764 323.081,-380.0485"/>
<polygon fill="#000000" stroke="#000000" points="322.1924,-376.663 313.356,-382.5084 323.909,-383.4493 322.1924,-376.663"/>
</g>
<!-- GO:0030234 -->
<g id="node5" class="node">
<title>GO:0030234</title>
<polygon fill="#ffffff" stroke="#000000" points="159.0864,-238.6019 -.0288,-238.6019 -.0288,-197.3981 159.0864,-197.3981 159.0864,-238.6019"/>
<text text-anchor="middle" x="79.5288" y="-222.2" font-family="Times,serif" font-size="14.00" fill="#000000">GO:0030234</text>
<text text-anchor="middle" x="79.5288" y="-205.4" font-family="Times,serif" font-size="14.00" fill="#000000">enzyme regulator activity</text>
</g>
<!-- GO:0098772 -->
<g id="node6" class="node">
<title>GO:0098772</title>
<polygon fill="#ffffff" stroke="#000000" points="159.6615,-341.8014 37.3961,-341.8014 37.3961,-282.9986 159.6615,-282.9986 159.6615,-341.8014"/>
<text text-anchor="middle" x="98.5288" y="-325" font-family="Times,serif" font-size="14.00" fill="#000000">GO:0098772</text>
<text text-anchor="middle" x="98.5288" y="-308.2" font-family="Times,serif" font-size="14.00" fill="#000000">molecular function</text>
<text text-anchor="middle" x="98.5288" y="-291.4" font-family="Times,serif" font-size="14.00" fill="#000000">regulator</text>
</g>
<!-- GO:0030234&#45;&gt;GO:0098772 -->
<g id="edge4" class="edge">
<title>GO:0030234&#45;&gt;GO:0098772</title>
<path fill="none" stroke="#000000" d="M83.7455,-238.9504C85.758,-248.9492 88.2343,-261.2525 90.5807,-272.9106"/>
<polygon fill="#000000" stroke="#000000" points="87.19,-273.8027 92.5944,-282.9155 94.0524,-272.4215 87.19,-273.8027"/>
</g>
<!-- GO:0098772&#45;&gt;GO:0003674 -->
<g id="edge5" class="edge">
<title>GO:0098772&#45;&gt;GO:0003674</title>
<path fill="none" stroke="#000000" d="M150.4134,-341.7558C168.1367,-351.7834 187.8118,-362.9154 204.9964,-372.6383"/>
<polygon fill="#000000" stroke="#000000" points="203.3053,-375.7028 213.7323,-377.5809 206.7524,-369.6103 203.3053,-375.7028"/>
</g>
<!-- GO:0000166 -->
<g id="node7" class="node">
<title>GO:0000166</title>
<polygon fill="#ffffff" stroke="#000000" points="780.6263,-41.4019 660.4313,-41.4019 660.4313,-.1981 780.6263,-.1981 780.6263,-41.4019"/>
<text text-anchor="middle" x="720.5288" y="-25" font-family="Times,serif" font-size="14.00" fill="#000000">GO:0000166</text>
<text text-anchor="middle" x="720.5288" y="-8.2" font-family="Times,serif" font-size="14.00" fill="#000000">nucleotide binding</text>
</g>
<!-- GO:0036094 -->
<g id="node8" class="node">
<title>GO:0036094</title>
<polygon fill="#ffffff" stroke="#000000" points="943.4572,-135.8019 795.6004,-135.8019 795.6004,-94.5981 943.4572,-94.5981 943.4572,-135.8019"/>
<text text-anchor="middle" x="869.5288" y="-119.4" font-family="Times,serif" font-size="14.00" fill="#000000">GO:0036094</text>
<text text-anchor="middle" x="869.5288" y="-102.6" font-family="Times,serif" font-size="14.00" fill="#000000">small molecule binding</text>
</g>
<!-- GO:0000166&#45;&gt;GO:0036094 -->
<g id="edge6" class="edge">
<title>GO:0000166&#45;&gt;GO:0036094</title>
<path fill="none" stroke="#000000" d="M753.2275,-41.5165C775.3532,-55.5344 804.7519,-74.1601 828.4553,-89.1776"/>
<polygon fill="#000000" stroke="#000000" points="826.5859,-92.1365 836.9064,-94.5318 830.3322,-86.2234 826.5859,-92.1365"/>
</g>
<!-- GO:1901265 -->
<g id="node9" class="node">
<title>GO:1901265</title>
<polygon fill="#ffffff" stroke="#000000" points="640.6629,-144.6014 504.3947,-144.6014 504.3947,-85.7986 640.6629,-85.7986 640.6629,-144.6014"/>
<text text-anchor="middle" x="572.5288" y="-127.8" font-family="Times,serif" font-size="14.00" fill="#000000">GO:1901265</text>
<text text-anchor="middle" x="572.5288" y="-111" font-family="Times,serif" font-size="14.00" fill="#000000">nucleoside phosphate</text>
<text text-anchor="middle" x="572.5288" y="-94.2" font-family="Times,serif" font-size="14.00" fill="#000000">binding</text>
</g>
<!-- GO:0000166&#45;&gt;GO:1901265 -->
<g id="edge7" class="edge">
<title>GO:0000166&#45;&gt;GO:1901265</title>
<path fill="none" stroke="#000000" d="M688.0496,-41.5165C670.1806,-52.914 647.5359,-67.3576 627.0392,-80.4312"/>
<polygon fill="#000000" stroke="#000000" points="624.9554,-77.6089 618.4066,-85.9374 628.7197,-83.5106 624.9554,-77.6089"/>
</g>
<!-- GO:0036094&#45;&gt;GO:0005488 -->
<g id="edge8" class="edge">
<title>GO:0036094&#45;&gt;GO:0005488</title>
<path fill="none" stroke="#000000" d="M863.8882,-136.282C855.0208,-165.4129 835.0568,-217.71 799.5288,-247.2 755.4804,-283.7624 690.9223,-299.871 645.2329,-306.9377"/>
<polygon fill="#000000" stroke="#000000" points="644.6017,-303.4925 635.2072,-308.3908 645.6058,-310.4201 644.6017,-303.4925"/>
</g>
<!-- GO:0097159 -->
<g id="node10" class="node">
<title>GO:0097159</title>
<polygon fill="#ffffff" stroke="#000000" points="499.0402,-247.4014 342.0174,-247.4014 342.0174,-188.5986 499.0402,-188.5986 499.0402,-247.4014"/>
<text text-anchor="middle" x="420.5288" y="-230.6" font-family="Times,serif" font-size="14.00" fill="#000000">GO:0097159</text>
<text text-anchor="middle" x="420.5288" y="-213.8" font-family="Times,serif" font-size="14.00" fill="#000000">organic cyclic compound</text>
<text text-anchor="middle" x="420.5288" y="-197" font-family="Times,serif" font-size="14.00" fill="#000000">binding</text>
</g>
<!-- GO:1901265&#45;&gt;GO:0097159 -->
<g id="edge9" class="edge">
<title>GO:1901265&#45;&gt;GO:0097159</title>
<path fill="none" stroke="#000000" d="M528.9717,-144.6584C511.2463,-156.6464 490.6223,-170.5947 472.148,-183.0891"/>
<polygon fill="#000000" stroke="#000000" points="470.1519,-180.2137 463.8293,-188.7152 474.0735,-186.0121 470.1519,-180.2137"/>
</g>
<!-- GO:1901363 -->
<g id="node11" class="node">
<title>GO:1901363</title>
<polygon fill="#ffffff" stroke="#000000" points="664.0394,-247.4014 517.0182,-247.4014 517.0182,-188.5986 664.0394,-188.5986 664.0394,-247.4014"/>
<text text-anchor="middle" x="590.5288" y="-230.6" font-family="Times,serif" font-size="14.00" fill="#000000">GO:1901363</text>
<text text-anchor="middle" x="590.5288" y="-213.8" font-family="Times,serif" font-size="14.00" fill="#000000">heterocyclic compound</text>
<text text-anchor="middle" x="590.5288" y="-197" font-family="Times,serif" font-size="14.00" fill="#000000">binding</text>
</g>
<!-- GO:1901265&#45;&gt;GO:1901363 -->
<g id="edge10" class="edge">
<title>GO:1901265&#45;&gt;GO:1901363</title>
<path fill="none" stroke="#000000" d="M577.6869,-144.6584C579.5322,-155.1969 581.6427,-167.2505 583.6124,-178.4994"/>
<polygon fill="#000000" stroke="#000000" points="580.1976,-179.2909 585.37,-188.5373 587.0927,-178.0835 580.1976,-179.2909"/>
</g>
<!-- GO:0097159&#45;&gt;GO:0005488 -->
<g id="edge11" class="edge">
<title>GO:0097159&#45;&gt;GO:0005488</title>
<path fill="none" stroke="#000000" d="M473.386,-247.3513C496.1731,-260.0048 522.5745,-274.6654 544.5384,-286.8618"/>
<polygon fill="#000000" stroke="#000000" points="542.9014,-289.9561 553.3431,-291.751 546.2997,-283.8364 542.9014,-289.9561"/>
</g>
<!-- GO:1901363&#45;&gt;GO:0005488 -->
<g id="edge12" class="edge">
<title>GO:1901363&#45;&gt;GO:0005488</title>
<path fill="none" stroke="#000000" d="M590.5288,-247.3513C590.5288,-258.2614 590.5288,-270.6637 590.5288,-281.692"/>
<polygon fill="#000000" stroke="#000000" points="587.0289,-281.7509 590.5288,-291.751 594.0289,-281.751 587.0289,-281.7509"/>
</g>
<!-- GO:0016627 -->
<g id="node12" class="node">
<title>GO:0016627</title>
<polygon fill="#ffffff" stroke="#000000" points="336.0527,-152.9003 165.0049,-152.9003 165.0049,-77.4997 336.0527,-77.4997 336.0527,-152.9003"/>
<text text-anchor="middle" x="250.5288" y="-136.2" font-family="Times,serif" font-size="14.00" fill="#000000">GO:0016627</text>
<text text-anchor="middle" x="250.5288" y="-119.4" font-family="Times,serif" font-size="14.00" fill="#000000">oxidoreductase activity,</text>
<text text-anchor="middle" x="250.5288" y="-102.6" font-family="Times,serif" font-size="14.00" fill="#000000">acting on the CH&#45;CH group</text>
<text text-anchor="middle" x="250.5288" y="-85.8" font-family="Times,serif" font-size="14.00" fill="#000000">of donors</text>
</g>
<!-- GO:0016491 -->
<g id="node13" class="node">
<title>GO:0016491</title>
<polygon fill="#ffffff" stroke="#000000" points="323.7654,-238.6019 177.2922,-238.6019 177.2922,-197.3981 323.7654,-197.3981 323.7654,-238.6019"/>
<text text-anchor="middle" x="250.5288" y="-222.2" font-family="Times,serif" font-size="14.00" fill="#000000">GO:0016491</text>
<text text-anchor="middle" x="250.5288" y="-205.4" font-family="Times,serif" font-size="14.00" fill="#000000">oxidoreductase activity</text>
</g>
<!-- GO:0016627&#45;&gt;GO:0016491 -->
<g id="edge13" class="edge">
<title>GO:0016627&#45;&gt;GO:0016491</title>
<path fill="none" stroke="#000000" d="M250.5288,-152.8952C250.5288,-164.1552 250.5288,-176.3618 250.5288,-187.1299"/>
<polygon fill="#000000" stroke="#000000" points="247.0289,-187.3302 250.5288,-197.3302 254.0289,-187.3302 247.0289,-187.3302"/>
</g>
<!-- GO:0003824 -->
<g id="node14" class="node">
<title>GO:0003824</title>
<polygon fill="#ffffff" stroke="#000000" points="304.9412,-333.0019 196.1164,-333.0019 196.1164,-291.7981 304.9412,-291.7981 304.9412,-333.0019"/>
<text text-anchor="middle" x="250.5288" y="-316.6" font-family="Times,serif" font-size="14.00" fill="#000000">GO:0003824</text>
<text text-anchor="middle" x="250.5288" y="-299.8" font-family="Times,serif" font-size="14.00" fill="#000000">catalytic activity</text>
</g>
<!-- GO:0016491&#45;&gt;GO:0003824 -->
<g id="edge14" class="edge">
<title>GO:0016491&#45;&gt;GO:0003824</title>
<path fill="none" stroke="#000000" d="M250.5288,-238.9504C250.5288,-251.4165 250.5288,-267.4645 250.5288,-281.3786"/>
<polygon fill="#000000" stroke="#000000" points="247.0289,-281.5081 250.5288,-291.5081 254.0289,-281.5082 247.0289,-281.5081"/>
</g>
<!-- GO:0003824&#45;&gt;GO:0003674 -->
<g id="edge15" class="edge">
<title>GO:0003824&#45;&gt;GO:0003674</title>
<path fill="none" stroke="#000000" d="M250.5288,-333.2182C250.5288,-343.5705 250.5288,-356.2848 250.5288,-367.7271"/>
<polygon fill="#000000" stroke="#000000" points="247.0289,-367.7735 250.5288,-377.7735 254.0289,-367.7735 247.0289,-367.7735"/>
</g>
</g>
</svg>
