<?xml version="1.0" encoding="UTF-8" standalone="no"?>
<!DOCTYPE svg PUBLIC "-//W3C//DTD SVG 1.1//EN"
 "http://www.w3.org/Graphics/SVG/1.1/DTD/svg11.dtd">
<!-- Generated by graphviz version 2.40.1 (20161225.0304)
 -->
<!-- Title: G Pages: 1 -->
<svg width="978pt" height="599pt"
 viewBox="0.00 0.00 978.45 599.20" xmlns="http://www.w3.org/2000/svg" xmlns:xlink="http://www.w3.org/1999/xlink">
<g id="graph0" class="graph" transform="scale(1 1) rotate(0) translate(4 595.2)">
<title>G</title>
<polygon fill="#ffffff" stroke="transparent" points="-4,4 -4,-595.2 974.4496,-595.2 974.4496,4 -4,4"/>
<!-- GO:0044238 -->
<g id="node1" class="node">
<title>GO:0044238</title>
<polygon fill="#ffffff" stroke="#000000" points="334.5041,-427.4019 170.4981,-427.4019 170.4981,-386.1981 334.5041,-386.1981 334.5041,-427.4019"/>
<text text-anchor="middle" x="252.5011" y="-411" font-family="Times,serif" font-size="14.00" fill="#000000">GO:0044238</text>
<text text-anchor="middle" x="252.5011" y="-394.2" font-family="Times,serif" font-size="14.00" fill="#000000">primary metabolic process</text>
</g>
<!-- GO:0008152 -->
<g id="node2" class="node">
<title>GO:0008152</title>
<polygon fill="#ffffff" stroke="#000000" points="469.6867,-513.4019 353.3155,-513.4019 353.3155,-472.1981 469.6867,-472.1981 469.6867,-513.4019"/>
<text text-anchor="middle" x="411.5011" y="-497" font-family="Times,serif" font-size="14.00" fill="#000000">GO:0008152</text>
<text text-anchor="middle" x="411.5011" y="-480.2" font-family="Times,serif" font-size="14.00" fill="#000000">metabolic process</text>
</g>
<!-- GO:0044238&#45;&gt;GO:0008152 -->
<g id="edge1" class="edge">
<title>GO:0044238&#45;&gt;GO:0008152</title>
<path fill="none" stroke="#000000" d="M290.9906,-427.6182C313.0598,-439.555 340.9353,-454.6323 364.3166,-467.2788"/>
<polygon fill="#000000" stroke="#000000" points="362.9051,-470.4945 373.3661,-472.1735 366.2354,-464.3374 362.9051,-470.4945"/>
</g>
<!-- GO:0008150 -->
<g id="node3" class="node">
<title>GO:0008150</title>
<polygon fill="#ffffff" stroke="#000000" points="699.9717,-591.0019 579.0305,-591.0019 579.0305,-549.7981 699.9717,-549.7981 699.9717,-591.0019"/>
<text text-anchor="middle" x="639.5011" y="-574.6" font-family="Times,serif" font-size="14.00" fill="#000000">GO:0008150</text>
<text text-anchor="middle" x="639.5011" y="-557.8" font-family="Times,serif" font-size="14.00" fill="#000000">biological_process</text>
</g>
<!-- GO:0008152&#45;&gt;GO:0008150 -->
<g id="edge2" class="edge">
<title>GO:0008152&#45;&gt;GO:0008150</title>
<path fill="none" stroke="#000000" d="M469.9207,-512.6832C500.172,-522.9792 537.3367,-535.6283 569.1564,-546.4581"/>
<polygon fill="#000000" stroke="#000000" points="568.2519,-549.8474 578.8463,-549.7561 570.5073,-543.2207 568.2519,-549.8474"/>
</g>
<!-- GO:0044710 -->
<g id="node4" class="node">
<title>GO:0044710</title>
<polygon fill="#ffffff" stroke="#000000" points="652.9093,-436.2014 488.0929,-436.2014 488.0929,-377.3986 652.9093,-377.3986 652.9093,-436.2014"/>
<text text-anchor="middle" x="570.5011" y="-419.4" font-family="Times,serif" font-size="14.00" fill="#000000">GO:0044710</text>
<text text-anchor="middle" x="570.5011" y="-402.6" font-family="Times,serif" font-size="14.00" fill="#000000">single&#45;organism metabolic</text>
<text text-anchor="middle" x="570.5011" y="-385.8" font-family="Times,serif" font-size="14.00" fill="#000000">process</text>
</g>
<!-- GO:0044710&#45;&gt;GO:0008152 -->
<g id="edge3" class="edge">
<title>GO:0044710&#45;&gt;GO:0008152</title>
<path fill="none" stroke="#000000" d="M516.227,-436.1558C497.6876,-446.1834 477.1063,-457.3154 459.1303,-467.0383"/>
<polygon fill="#000000" stroke="#000000" points="457.1228,-464.1449 449.9921,-471.9809 460.4531,-470.3019 457.1228,-464.1449"/>
</g>
<!-- GO:0044699 -->
<g id="node5" class="node">
<title>GO:0044699</title>
<polygon fill="#ffffff" stroke="#000000" points="788.1824,-513.4019 636.8198,-513.4019 636.8198,-472.1981 788.1824,-472.1981 788.1824,-513.4019"/>
<text text-anchor="middle" x="712.5011" y="-497" font-family="Times,serif" font-size="14.00" fill="#000000">GO:0044699</text>
<text text-anchor="middle" x="712.5011" y="-480.2" font-family="Times,serif" font-size="14.00" fill="#000000">single&#45;organism process</text>
</g>
<!-- GO:0044710&#45;&gt;GO:0044699 -->
<g id="edge4" class="edge">
<title>GO:0044710&#45;&gt;GO:0044699</title>
<path fill="none" stroke="#000000" d="M618.9723,-436.1558C635.3776,-446.0914 653.5731,-457.1112 669.5218,-466.7703"/>
<polygon fill="#000000" stroke="#000000" points="667.7587,-469.7943 678.1254,-471.9809 671.385,-463.8068 667.7587,-469.7943"/>
</g>
<!-- GO:0044699&#45;&gt;GO:0008150 -->
<g id="edge5" class="edge">
<title>GO:0044699&#45;&gt;GO:0008150</title>
<path fill="none" stroke="#000000" d="M692.9384,-513.5954C684.6739,-522.3807 674.9208,-532.7484 666.0242,-542.2056"/>
<polygon fill="#000000" stroke="#000000" points="663.4204,-539.8654 659.1178,-549.5472 668.519,-544.6617 663.4204,-539.8654"/>
</g>
<!-- GO:0048856 -->
<g id="node6" class="node">
<title>GO:0048856</title>
<polygon fill="#ffffff" stroke="#000000" points="970.3981,-436.2014 840.6041,-436.2014 840.6041,-377.3986 970.3981,-377.3986 970.3981,-436.2014"/>
<text text-anchor="middle" x="905.5011" y="-419.4" font-family="Times,serif" font-size="14.00" fill="#000000">GO:0048856</text>
<text text-anchor="middle" x="905.5011" y="-402.6" font-family="Times,serif" font-size="14.00" fill="#000000">anatomical structure</text>
<text text-anchor="middle" x="905.5011" y="-385.8" font-family="Times,serif" font-size="14.00" fill="#000000">development</text>
</g>
<!-- GO:0032502 -->
<g id="node7" class="node">
<title>GO:0032502</title>
<polygon fill="#ffffff" stroke="#000000" points="963.4009,-513.4019 819.6013,-513.4019 819.6013,-472.1981 963.4009,-472.1981 963.4009,-513.4019"/>
<text text-anchor="middle" x="891.5011" y="-497" font-family="Times,serif" font-size="14.00" fill="#000000">GO:0032502</text>
<text text-anchor="middle" x="891.5011" y="-480.2" font-family="Times,serif" font-size="14.00" fill="#000000">developmental process</text>
</g>
<!-- GO:0048856&#45;&gt;GO:0032502 -->
<g id="edge6" class="edge">
<title>GO:0048856&#45;&gt;GO:0032502</title>
<path fill="none" stroke="#000000" d="M900.6831,-436.3963C899.3372,-444.6638 897.8718,-453.6657 896.5149,-462.0008"/>
<polygon fill="#000000" stroke="#000000" points="893.0237,-461.6641 894.8714,-472.0966 899.9328,-462.7889 893.0237,-461.6641"/>
</g>
<!-- GO:0032502&#45;&gt;GO:0008150 -->
<g id="edge7" class="edge">
<title>GO:0032502&#45;&gt;GO:0008150</title>
<path fill="none" stroke="#000000" d="M824.3008,-513.4934C788.9833,-524.369 745.7208,-537.6911 709.9357,-548.7106"/>
<polygon fill="#000000" stroke="#000000" points="708.5807,-545.4656 700.0536,-551.7537 710.6408,-552.1556 708.5807,-545.4656"/>
</g>
<!-- GO:0005975 -->
<g id="node8" class="node">
<title>GO:0005975</title>
<polygon fill="#ffffff" stroke="#000000" points="326.2777,-341.8014 178.7245,-341.8014 178.7245,-282.9986 326.2777,-282.9986 326.2777,-341.8014"/>
<text text-anchor="middle" x="252.5011" y="-325" font-family="Times,serif" font-size="14.00" fill="#000000">GO:0005975</text>
<text text-anchor="middle" x="252.5011" y="-308.2" font-family="Times,serif" font-size="14.00" fill="#000000">carbohydrate metabolic</text>
<text text-anchor="middle" x="252.5011" y="-291.4" font-family="Times,serif" font-size="14.00" fill="#000000">process</text>
</g>
<!-- GO:0005975&#45;&gt;GO:0044238 -->
<g id="edge9" class="edge">
<title>GO:0005975&#45;&gt;GO:0044238</title>
<path fill="none" stroke="#000000" d="M252.5011,-341.7513C252.5011,-352.6614 252.5011,-365.0637 252.5011,-376.092"/>
<polygon fill="#000000" stroke="#000000" points="249.0012,-376.1509 252.5011,-386.151 256.0012,-376.151 249.0012,-376.1509"/>
</g>
<!-- GO:0071704 -->
<g id="node9" class="node">
<title>GO:0071704</title>
<polygon fill="#ffffff" stroke="#000000" points="151.6867,-436.2014 35.3155,-436.2014 35.3155,-377.3986 151.6867,-377.3986 151.6867,-436.2014"/>
<text text-anchor="middle" x="93.5011" y="-419.4" font-family="Times,serif" font-size="14.00" fill="#000000">GO:0071704</text>
<text text-anchor="middle" x="93.5011" y="-402.6" font-family="Times,serif" font-size="14.00" fill="#000000">organic substance</text>
<text text-anchor="middle" x="93.5011" y="-385.8" font-family="Times,serif" font-size="14.00" fill="#000000">metabolic process</text>
</g>
<!-- GO:0005975&#45;&gt;GO:0071704 -->
<g id="edge8" class="edge">
<title>GO:0005975&#45;&gt;GO:0071704</title>
<path fill="none" stroke="#000000" d="M203.0641,-341.7513C186.7618,-351.4301 168.4816,-362.2833 151.5939,-372.3097"/>
<polygon fill="#000000" stroke="#000000" points="149.7194,-369.3521 142.9075,-377.4669 153.2931,-375.3712 149.7194,-369.3521"/>
</g>
<!-- GO:0071704&#45;&gt;GO:0008152 -->
<g id="edge10" class="edge">
<title>GO:0071704&#45;&gt;GO:0008152</title>
<path fill="none" stroke="#000000" d="M151.8469,-432.6552C155.0917,-433.842 158.3245,-434.9666 161.5011,-436 221.8153,-455.6203 292.445,-470.9971 343.2179,-480.7753"/>
<polygon fill="#000000" stroke="#000000" points="342.6207,-484.2244 353.0988,-482.6559 343.9295,-477.3478 342.6207,-484.2244"/>
</g>
<!-- GO:0009987 -->
<g id="node10" class="node">
<title>GO:0009987</title>
<polygon fill="#ffffff" stroke="#000000" points="618.4573,-513.4019 514.5449,-513.4019 514.5449,-472.1981 618.4573,-472.1981 618.4573,-513.4019"/>
<text text-anchor="middle" x="566.5011" y="-497" font-family="Times,serif" font-size="14.00" fill="#000000">GO:0009987</text>
<text text-anchor="middle" x="566.5011" y="-480.2" font-family="Times,serif" font-size="14.00" fill="#000000">cellular process</text>
</g>
<!-- GO:0009987&#45;&gt;GO:0008150 -->
<g id="edge11" class="edge">
<title>GO:0009987&#45;&gt;GO:0008150</title>
<path fill="none" stroke="#000000" d="M586.0638,-513.5954C594.3283,-522.3807 604.0814,-532.7484 612.978,-542.2056"/>
<polygon fill="#000000" stroke="#000000" points="610.4832,-544.6617 619.8844,-549.5472 615.5818,-539.8654 610.4832,-544.6617"/>
</g>
<!-- GO:0044237 -->
<g id="node11" class="node">
<title>GO:0044237</title>
<polygon fill="#ffffff" stroke="#000000" points="469.6839,-436.2014 353.3183,-436.2014 353.3183,-377.3986 469.6839,-377.3986 469.6839,-436.2014"/>
<text text-anchor="middle" x="411.5011" y="-419.4" font-family="Times,serif" font-size="14.00" fill="#000000">GO:0044237</text>
<text text-anchor="middle" x="411.5011" y="-402.6" font-family="Times,serif" font-size="14.00" fill="#000000">cellular metabolic</text>
<text text-anchor="middle" x="411.5011" y="-385.8" font-family="Times,serif" font-size="14.00" fill="#000000">process</text>
</g>
<!-- GO:0044237&#45;&gt;GO:0008152 -->
<g id="edge13" class="edge">
<title>GO:0044237&#45;&gt;GO:0008152</title>
<path fill="none" stroke="#000000" d="M411.5011,-436.3963C411.5011,-444.6638 411.5011,-453.6657 411.5011,-462.0008"/>
<polygon fill="#000000" stroke="#000000" points="408.0012,-462.0965 411.5011,-472.0966 415.0012,-462.0966 408.0012,-462.0965"/>
</g>
<!-- GO:0044237&#45;&gt;GO:0009987 -->
<g id="edge12" class="edge">
<title>GO:0044237&#45;&gt;GO:0009987</title>
<path fill="none" stroke="#000000" d="M464.4098,-436.1558C482.4828,-446.1834 502.5463,-457.3154 520.0701,-467.0383"/>
<polygon fill="#000000" stroke="#000000" points="518.536,-470.1897 528.9784,-471.9809 521.9322,-464.0688 518.536,-470.1897"/>
</g>
<!-- GO:0044763 -->
<g id="node12" class="node">
<title>GO:0044763</title>
<polygon fill="#ffffff" stroke="#000000" points="822.1796,-436.2014 670.8226,-436.2014 670.8226,-377.3986 822.1796,-377.3986 822.1796,-436.2014"/>
<text text-anchor="middle" x="746.5011" y="-419.4" font-family="Times,serif" font-size="14.00" fill="#000000">GO:0044763</text>
<text text-anchor="middle" x="746.5011" y="-402.6" font-family="Times,serif" font-size="14.00" fill="#000000">single&#45;organism cellular</text>
<text text-anchor="middle" x="746.5011" y="-385.8" font-family="Times,serif" font-size="14.00" fill="#000000">process</text>
</g>
<!-- GO:0044763&#45;&gt;GO:0044699 -->
<g id="edge15" class="edge">
<title>GO:0044763&#45;&gt;GO:0044699</title>
<path fill="none" stroke="#000000" d="M734.8002,-436.3963C731.4591,-444.8475 727.8145,-454.0662 724.4582,-462.5555"/>
<polygon fill="#000000" stroke="#000000" points="721.108,-461.5101 720.6862,-472.0966 727.6177,-464.0838 721.108,-461.5101"/>
</g>
<!-- GO:0044763&#45;&gt;GO:0009987 -->
<g id="edge14" class="edge">
<title>GO:0044763&#45;&gt;GO:0009987</title>
<path fill="none" stroke="#000000" d="M685.3101,-436.0357C663.7448,-446.3391 639.7125,-457.8212 618.9354,-467.748"/>
<polygon fill="#000000" stroke="#000000" points="617.153,-464.7206 609.6388,-472.1898 620.1708,-471.0368 617.153,-464.7206"/>
</g>
<!-- GO:0006464 -->
<g id="node13" class="node">
<title>GO:0006464</title>
<polygon fill="#ffffff" stroke="#000000" points="296.0229,-58.6014 162.9793,-58.6014 162.9793,.2014 296.0229,.2014 296.0229,-58.6014"/>
<text text-anchor="middle" x="229.5011" y="-41.8" font-family="Times,serif" font-size="14.00" fill="#000000">GO:0006464</text>
<text text-anchor="middle" x="229.5011" y="-25" font-family="Times,serif" font-size="14.00" fill="#000000">cellular protein</text>
<text text-anchor="middle" x="229.5011" y="-8.2" font-family="Times,serif" font-size="14.00" fill="#000000">modification process</text>
</g>
<!-- GO:0044267 -->
<g id="node14" class="node">
<title>GO:0044267</title>
<polygon fill="#ffffff" stroke="#000000" points="358.6867,-153.0014 242.3155,-153.0014 242.3155,-94.1986 358.6867,-94.1986 358.6867,-153.0014"/>
<text text-anchor="middle" x="300.5011" y="-136.2" font-family="Times,serif" font-size="14.00" fill="#000000">GO:0044267</text>
<text text-anchor="middle" x="300.5011" y="-119.4" font-family="Times,serif" font-size="14.00" fill="#000000">cellular protein</text>
<text text-anchor="middle" x="300.5011" y="-102.6" font-family="Times,serif" font-size="14.00" fill="#000000">metabolic process</text>
</g>
<!-- GO:0006464&#45;&gt;GO:0044267 -->
<g id="edge16" class="edge">
<title>GO:0006464&#45;&gt;GO:0044267</title>
<path fill="none" stroke="#000000" d="M251.5768,-58.5513C258.1217,-67.2534 265.3807,-76.9047 272.2598,-86.0509"/>
<polygon fill="#000000" stroke="#000000" points="269.6311,-88.3788 278.4391,-94.2669 275.2254,-84.1712 269.6311,-88.3788"/>
</g>
<!-- GO:0036211 -->
<g id="node15" class="node">
<title>GO:0036211</title>
<polygon fill="#ffffff" stroke="#000000" points="223.7006,-153.0014 93.3016,-153.0014 93.3016,-94.1986 223.7006,-94.1986 223.7006,-153.0014"/>
<text text-anchor="middle" x="158.5011" y="-136.2" font-family="Times,serif" font-size="14.00" fill="#000000">GO:0036211</text>
<text text-anchor="middle" x="158.5011" y="-119.4" font-family="Times,serif" font-size="14.00" fill="#000000">protein modification</text>
<text text-anchor="middle" x="158.5011" y="-102.6" font-family="Times,serif" font-size="14.00" fill="#000000">process</text>
</g>
<!-- GO:0006464&#45;&gt;GO:0036211 -->
<g id="edge17" class="edge">
<title>GO:0006464&#45;&gt;GO:0036211</title>
<path fill="none" stroke="#000000" d="M207.4254,-58.5513C200.8805,-67.2534 193.6215,-76.9047 186.7424,-86.0509"/>
<polygon fill="#000000" stroke="#000000" points="183.7768,-84.1712 180.5631,-94.2669 189.3711,-88.3788 183.7768,-84.1712"/>
</g>
<!-- GO:0019538 -->
<g id="node16" class="node">
<title>GO:0019538</title>
<polygon fill="#ffffff" stroke="#000000" points="309.3428,-238.6019 149.6594,-238.6019 149.6594,-197.3981 309.3428,-197.3981 309.3428,-238.6019"/>
<text text-anchor="middle" x="229.5011" y="-222.2" font-family="Times,serif" font-size="14.00" fill="#000000">GO:0019538</text>
<text text-anchor="middle" x="229.5011" y="-205.4" font-family="Times,serif" font-size="14.00" fill="#000000">protein metabolic process</text>
</g>
<!-- GO:0044267&#45;&gt;GO:0019538 -->
<g id="edge18" class="edge">
<title>GO:0044267&#45;&gt;GO:0019538</title>
<path fill="none" stroke="#000000" d="M278.4254,-152.9513C269.7121,-164.5363 259.7335,-177.8037 251.0703,-189.322"/>
<polygon fill="#000000" stroke="#000000" points="248.2453,-187.2553 245.0316,-197.351 253.8396,-191.4629 248.2453,-187.2553"/>
</g>
<!-- GO:0044260 -->
<g id="node17" class="node">
<title>GO:0044260</title>
<polygon fill="#ffffff" stroke="#000000" points="475.2735,-247.4014 327.7287,-247.4014 327.7287,-188.5986 475.2735,-188.5986 475.2735,-247.4014"/>
<text text-anchor="middle" x="401.5011" y="-230.6" font-family="Times,serif" font-size="14.00" fill="#000000">GO:0044260</text>
<text text-anchor="middle" x="401.5011" y="-213.8" font-family="Times,serif" font-size="14.00" fill="#000000">cellular macromolecule</text>
<text text-anchor="middle" x="401.5011" y="-197" font-family="Times,serif" font-size="14.00" fill="#000000">metabolic process</text>
</g>
<!-- GO:0044267&#45;&gt;GO:0044260 -->
<g id="edge19" class="edge">
<title>GO:0044267&#45;&gt;GO:0044260</title>
<path fill="none" stroke="#000000" d="M331.9045,-152.9513C341.595,-162.0086 352.3857,-172.0941 362.5222,-181.5683"/>
<polygon fill="#000000" stroke="#000000" points="360.4214,-184.3955 370.1171,-188.6669 365.2013,-179.2815 360.4214,-184.3955"/>
</g>
<!-- GO:0036211&#45;&gt;GO:0019538 -->
<g id="edge20" class="edge">
<title>GO:0036211&#45;&gt;GO:0019538</title>
<path fill="none" stroke="#000000" d="M180.5768,-152.9513C189.2901,-164.5363 199.2687,-177.8037 207.9319,-189.322"/>
<polygon fill="#000000" stroke="#000000" points="205.1626,-191.4629 213.9706,-197.351 210.7569,-187.2553 205.1626,-191.4629"/>
</g>
<!-- GO:0043412 -->
<g id="node18" class="node">
<title>GO:0043412</title>
<polygon fill="#ffffff" stroke="#000000" points="131.7975,-247.4014 29.2047,-247.4014 29.2047,-188.5986 131.7975,-188.5986 131.7975,-247.4014"/>
<text text-anchor="middle" x="80.5011" y="-230.6" font-family="Times,serif" font-size="14.00" fill="#000000">GO:0043412</text>
<text text-anchor="middle" x="80.5011" y="-213.8" font-family="Times,serif" font-size="14.00" fill="#000000">macromolecule</text>
<text text-anchor="middle" x="80.5011" y="-197" font-family="Times,serif" font-size="14.00" fill="#000000">modification</text>
</g>
<!-- GO:0036211&#45;&gt;GO:0043412 -->
<g id="edge21" class="edge">
<title>GO:0036211&#45;&gt;GO:0043412</title>
<path fill="none" stroke="#000000" d="M134.249,-152.9513C126.9853,-161.7422 118.9213,-171.5018 111.2956,-180.7308"/>
<polygon fill="#000000" stroke="#000000" points="108.4098,-178.7285 104.7382,-188.6669 113.806,-183.1873 108.4098,-178.7285"/>
</g>
<!-- GO:0019538&#45;&gt;GO:0044238 -->
<g id="edge22" class="edge">
<title>GO:0019538&#45;&gt;GO:0044238</title>
<path fill="none" stroke="#000000" d="M285.0801,-238.6235C304.6119,-248.8709 324.4329,-263.3976 335.5011,-283.2 348.1647,-305.8567 346.8485,-318.2563 335.5011,-341.6 328.0046,-357.0218 314.8982,-369.881 301.2849,-379.9904"/>
<polygon fill="#000000" stroke="#000000" points="298.9806,-377.3307 292.7888,-385.9279 302.9905,-383.0684 298.9806,-377.3307"/>
</g>
<!-- GO:0043170 -->
<g id="node19" class="node">
<title>GO:0043170</title>
<polygon fill="#ffffff" stroke="#000000" points="161.0033,-341.8014 -.0011,-341.8014 -.0011,-282.9986 161.0033,-282.9986 161.0033,-341.8014"/>
<text text-anchor="middle" x="80.5011" y="-325" font-family="Times,serif" font-size="14.00" fill="#000000">GO:0043170</text>
<text text-anchor="middle" x="80.5011" y="-308.2" font-family="Times,serif" font-size="14.00" fill="#000000">macromolecule metabolic</text>
<text text-anchor="middle" x="80.5011" y="-291.4" font-family="Times,serif" font-size="14.00" fill="#000000">process</text>
</g>
<!-- GO:0019538&#45;&gt;GO:0043170 -->
<g id="edge23" class="edge">
<title>GO:0019538&#45;&gt;GO:0043170</title>
<path fill="none" stroke="#000000" d="M196.8024,-238.7165C178.8127,-250.114 156.015,-264.5576 135.3798,-277.6312"/>
<polygon fill="#000000" stroke="#000000" points="133.263,-274.8289 126.6888,-283.1374 137.0094,-280.7421 133.263,-274.8289"/>
</g>
<!-- GO:0044260&#45;&gt;GO:0044237 -->
<g id="edge24" class="edge">
<title>GO:0044260&#45;&gt;GO:0044237</title>
<path fill="none" stroke="#000000" d="M403.0636,-247.5C404.7735,-279.7825 407.5229,-331.6912 409.4159,-367.4305"/>
<polygon fill="#000000" stroke="#000000" points="405.9255,-367.7063 409.9496,-377.5072 412.9157,-367.336 405.9255,-367.7063"/>
</g>
<!-- GO:0044260&#45;&gt;GO:0043170 -->
<g id="edge25" class="edge">
<title>GO:0044260&#45;&gt;GO:0043170</title>
<path fill="none" stroke="#000000" d="M327.4108,-244.4832C324.409,-245.4236 321.4306,-246.3332 318.5011,-247.2 256.2353,-265.6234 236.8354,-264.7033 171.419,-282.7427"/>
<polygon fill="#000000" stroke="#000000" points="170.1061,-279.4757 161.4229,-285.5463 171.9965,-286.2157 170.1061,-279.4757"/>
</g>
<!-- GO:0043412&#45;&gt;GO:0043170 -->
<g id="edge26" class="edge">
<title>GO:0043412&#45;&gt;GO:0043170</title>
<path fill="none" stroke="#000000" d="M80.5011,-247.3513C80.5011,-255.4318 80.5011,-264.3308 80.5011,-272.8838"/>
<polygon fill="#000000" stroke="#000000" points="77.0012,-273.0668 80.5011,-283.0669 84.0012,-273.0669 77.0012,-273.0668"/>
</g>
<!-- GO:0043170&#45;&gt;GO:0071704 -->
<g id="edge27" class="edge">
<title>GO:0043170&#45;&gt;GO:0071704</title>
<path fill="none" stroke="#000000" d="M84.5431,-341.7513C85.6559,-349.8318 86.8814,-358.7308 88.0593,-367.2838"/>
<polygon fill="#000000" stroke="#000000" points="84.63,-368.0379 89.4616,-377.4669 91.5645,-367.0828 84.63,-368.0379"/>
</g>
</g>
</svg>
