<?xml version="1.0" encoding="UTF-8" standalone="no"?>
<!DOCTYPE svg PUBLIC "-//W3C//DTD SVG 1.1//EN"
 "http://www.w3.org/Graphics/SVG/1.1/DTD/svg11.dtd">
<!-- Generated by graphviz version 2.40.1 (20161225.0304)
 -->
<!-- Title: G Pages: 1 -->
<svg width="403pt" height="532pt"
 viewBox="0.00 0.00 402.79 532.00" xmlns="http://www.w3.org/2000/svg" xmlns:xlink="http://www.w3.org/1999/xlink">
<g id="graph0" class="graph" transform="scale(1 1) rotate(0) translate(4 528)">
<title>G</title>
<polygon fill="#ffffff" stroke="transparent" points="-4,4 -4,-528 398.7918,-528 398.7918,4 -4,4"/>
<!-- GO:0005829 -->
<g id="node1" class="node">
<title>GO:0005829</title>
<polygon fill="#ffffff" stroke="#000000" points="99.0622,-196.6019 9.8544,-196.6019 9.8544,-155.3981 99.0622,-155.3981 99.0622,-196.6019"/>
<text text-anchor="middle" x="54.4583" y="-180.2" font-family="Times,serif" font-size="14.00" fill="#000000">GO:0005829</text>
<text text-anchor="middle" x="54.4583" y="-163.4" font-family="Times,serif" font-size="14.00" fill="#000000">cytosol</text>
</g>
<!-- GO:0044444 -->
<g id="node2" class="node">
<title>GO:0044444</title>
<polygon fill="#ffffff" stroke="#000000" points="108.8749,-282.6019 .0417,-282.6019 .0417,-241.3981 108.8749,-241.3981 108.8749,-282.6019"/>
<text text-anchor="middle" x="54.4583" y="-266.2" font-family="Times,serif" font-size="14.00" fill="#000000">GO:0044444</text>
<text text-anchor="middle" x="54.4583" y="-249.4" font-family="Times,serif" font-size="14.00" fill="#000000">cytoplasmic part</text>
</g>
<!-- GO:0005829&#45;&gt;GO:0044444 -->
<g id="edge1" class="edge">
<title>GO:0005829&#45;&gt;GO:0044444</title>
<path fill="none" stroke="#000000" d="M54.4583,-196.8182C54.4583,-207.1705 54.4583,-219.8848 54.4583,-231.3271"/>
<polygon fill="#000000" stroke="#000000" points="50.9584,-231.3735 54.4583,-241.3735 57.9584,-231.3735 50.9584,-231.3735"/>
</g>
<!-- GO:0044424 -->
<g id="node3" class="node">
<title>GO:0044424</title>
<polygon fill="#ffffff" stroke="#000000" points="135.8567,-368.6019 27.0599,-368.6019 27.0599,-327.3981 135.8567,-327.3981 135.8567,-368.6019"/>
<text text-anchor="middle" x="81.4583" y="-352.2" font-family="Times,serif" font-size="14.00" fill="#000000">GO:0044424</text>
<text text-anchor="middle" x="81.4583" y="-335.4" font-family="Times,serif" font-size="14.00" fill="#000000">intracellular part</text>
</g>
<!-- GO:0044444&#45;&gt;GO:0044424 -->
<g id="edge2" class="edge">
<title>GO:0044444&#45;&gt;GO:0044424</title>
<path fill="none" stroke="#000000" d="M60.9942,-282.8182C64.2775,-293.2761 68.3176,-306.1446 71.9383,-317.677"/>
<polygon fill="#000000" stroke="#000000" points="68.6478,-318.8811 74.9825,-327.3735 75.3264,-316.7843 68.6478,-318.8811"/>
</g>
<!-- GO:0044464 -->
<g id="node4" class="node">
<title>GO:0044464</title>
<polygon fill="#ffffff" stroke="#000000" points="149.0622,-446.2019 59.8544,-446.2019 59.8544,-404.9981 149.0622,-404.9981 149.0622,-446.2019"/>
<text text-anchor="middle" x="104.4583" y="-429.8" font-family="Times,serif" font-size="14.00" fill="#000000">GO:0044464</text>
<text text-anchor="middle" x="104.4583" y="-413" font-family="Times,serif" font-size="14.00" fill="#000000">cell part</text>
</g>
<!-- GO:0044424&#45;&gt;GO:0044464 -->
<g id="edge3" class="edge">
<title>GO:0044424&#45;&gt;GO:0044464</title>
<path fill="none" stroke="#000000" d="M87.6219,-368.7954C90.0195,-376.8848 92.8148,-386.3159 95.4309,-395.1424"/>
<polygon fill="#000000" stroke="#000000" points="92.0802,-396.1541 98.2777,-404.7472 98.7916,-394.1649 92.0802,-396.1541"/>
</g>
<!-- GO:0005575 -->
<g id="node5" class="node">
<title>GO:0005575</title>
<polygon fill="#ffffff" stroke="#000000" points="264.145,-523.8019 136.7716,-523.8019 136.7716,-482.5981 264.145,-482.5981 264.145,-523.8019"/>
<text text-anchor="middle" x="200.4583" y="-507.4" font-family="Times,serif" font-size="14.00" fill="#000000">GO:0005575</text>
<text text-anchor="middle" x="200.4583" y="-490.6" font-family="Times,serif" font-size="14.00" fill="#000000">cellular_component</text>
</g>
<!-- GO:0044464&#45;&gt;GO:0005575 -->
<g id="edge4" class="edge">
<title>GO:0044464&#45;&gt;GO:0005575</title>
<path fill="none" stroke="#000000" d="M130.1845,-446.3954C141.3758,-455.4416 154.6427,-466.1657 166.6181,-475.8458"/>
<polygon fill="#000000" stroke="#000000" points="164.6838,-478.7827 174.661,-482.3472 169.0843,-473.3388 164.6838,-478.7827"/>
</g>
<!-- GO:0016459 -->
<g id="node6" class="node">
<title>GO:0016459</title>
<polygon fill="#ffffff" stroke="#000000" points="306.8945,-119.0019 198.0221,-119.0019 198.0221,-77.7981 306.8945,-77.7981 306.8945,-119.0019"/>
<text text-anchor="middle" x="252.4583" y="-102.6" font-family="Times,serif" font-size="14.00" fill="#000000">GO:0016459</text>
<text text-anchor="middle" x="252.4583" y="-85.8" font-family="Times,serif" font-size="14.00" fill="#000000">myosin complex</text>
</g>
<!-- GO:0043234 -->
<g id="node7" class="node">
<title>GO:0043234</title>
<polygon fill="#ffffff" stroke="#000000" points="391.3257,-282.6019 283.5909,-282.6019 283.5909,-241.3981 391.3257,-241.3981 391.3257,-282.6019"/>
<text text-anchor="middle" x="337.4583" y="-266.2" font-family="Times,serif" font-size="14.00" fill="#000000">GO:0043234</text>
<text text-anchor="middle" x="337.4583" y="-249.4" font-family="Times,serif" font-size="14.00" fill="#000000">protein complex</text>
</g>
<!-- GO:0016459&#45;&gt;GO:0043234 -->
<g id="edge5" class="edge">
<title>GO:0016459&#45;&gt;GO:0043234</title>
<path fill="none" stroke="#000000" d="M263.2236,-119.1201C278.0641,-147.6837 304.8988,-199.3326 321.9153,-232.0842"/>
<polygon fill="#000000" stroke="#000000" points="318.9302,-233.9303 326.6465,-241.1904 325.1418,-230.703 318.9302,-233.9303"/>
</g>
<!-- GO:0044430 -->
<g id="node8" class="node">
<title>GO:0044430</title>
<polygon fill="#ffffff" stroke="#000000" points="265.5896,-196.6019 157.327,-196.6019 157.327,-155.3981 265.5896,-155.3981 265.5896,-196.6019"/>
<text text-anchor="middle" x="211.4583" y="-180.2" font-family="Times,serif" font-size="14.00" fill="#000000">GO:0044430</text>
<text text-anchor="middle" x="211.4583" y="-163.4" font-family="Times,serif" font-size="14.00" fill="#000000">cytoskeletal part</text>
</g>
<!-- GO:0016459&#45;&gt;GO:0044430 -->
<g id="edge6" class="edge">
<title>GO:0016459&#45;&gt;GO:0044430</title>
<path fill="none" stroke="#000000" d="M241.4711,-119.1954C237.1051,-127.4588 231.9994,-137.1222 227.2502,-146.111"/>
<polygon fill="#000000" stroke="#000000" points="224.0529,-144.6704 222.4759,-155.1472 230.2421,-147.9405 224.0529,-144.6704"/>
</g>
<!-- GO:0032991 -->
<g id="node9" class="node">
<title>GO:0032991</title>
<polygon fill="#ffffff" stroke="#000000" points="394.6256,-446.2019 236.291,-446.2019 236.291,-404.9981 394.6256,-404.9981 394.6256,-446.2019"/>
<text text-anchor="middle" x="315.4583" y="-429.8" font-family="Times,serif" font-size="14.00" fill="#000000">GO:0032991</text>
<text text-anchor="middle" x="315.4583" y="-413" font-family="Times,serif" font-size="14.00" fill="#000000">macromolecular complex</text>
</g>
<!-- GO:0043234&#45;&gt;GO:0032991 -->
<g id="edge7" class="edge">
<title>GO:0043234&#45;&gt;GO:0032991</title>
<path fill="none" stroke="#000000" d="M334.672,-282.7201C330.8639,-311.0385 324.0045,-362.0476 319.5952,-394.8367"/>
<polygon fill="#000000" stroke="#000000" points="316.1207,-394.4131 318.2567,-404.7904 323.0583,-395.3461 316.1207,-394.4131"/>
</g>
<!-- GO:0044446 -->
<g id="node10" class="node">
<title>GO:0044446</title>
<polygon fill="#ffffff" stroke="#000000" points="266.1767,-291.4014 126.7399,-291.4014 126.7399,-232.5986 266.1767,-232.5986 266.1767,-291.4014"/>
<text text-anchor="middle" x="196.4583" y="-274.6" font-family="Times,serif" font-size="14.00" fill="#000000">GO:0044446</text>
<text text-anchor="middle" x="196.4583" y="-257.8" font-family="Times,serif" font-size="14.00" fill="#000000">intracellular organelle</text>
<text text-anchor="middle" x="196.4583" y="-241" font-family="Times,serif" font-size="14.00" fill="#000000">part</text>
</g>
<!-- GO:0044430&#45;&gt;GO:0044446 -->
<g id="edge8" class="edge">
<title>GO:0044430&#45;&gt;GO:0044446</title>
<path fill="none" stroke="#000000" d="M207.8272,-196.8182C206.4665,-204.6197 204.8718,-213.7626 203.3144,-222.6917"/>
<polygon fill="#000000" stroke="#000000" points="199.8567,-222.1465 201.5864,-232.5991 206.7526,-223.3493 199.8567,-222.1465"/>
</g>
<!-- GO:0032991&#45;&gt;GO:0005575 -->
<g id="edge9" class="edge">
<title>GO:0032991&#45;&gt;GO:0005575</title>
<path fill="none" stroke="#000000" d="M284.6404,-446.3954C270.8475,-455.7026 254.4226,-466.7858 239.7586,-476.6809"/>
<polygon fill="#000000" stroke="#000000" points="237.6929,-473.8524 231.3613,-482.3472 241.6083,-479.655 237.6929,-473.8524"/>
</g>
<!-- GO:0044446&#45;&gt;GO:0044424 -->
<g id="edge10" class="edge">
<title>GO:0044446&#45;&gt;GO:0044424</title>
<path fill="none" stroke="#000000" d="M157.2035,-291.3558C144.2865,-301.0154 129.9992,-311.6999 117.3459,-321.1623"/>
<polygon fill="#000000" stroke="#000000" points="115.21,-318.3891 109.2977,-327.1809 119.4022,-323.995 115.21,-318.3891"/>
</g>
<!-- GO:0044422 -->
<g id="node11" class="node">
<title>GO:0044422</title>
<polygon fill="#ffffff" stroke="#000000" points="247.3104,-368.6019 153.6062,-368.6019 153.6062,-327.3981 247.3104,-327.3981 247.3104,-368.6019"/>
<text text-anchor="middle" x="200.4583" y="-352.2" font-family="Times,serif" font-size="14.00" fill="#000000">GO:0044422</text>
<text text-anchor="middle" x="200.4583" y="-335.4" font-family="Times,serif" font-size="14.00" fill="#000000">organelle part</text>
</g>
<!-- GO:0044446&#45;&gt;GO:0044422 -->
<g id="edge11" class="edge">
<title>GO:0044446&#45;&gt;GO:0044422</title>
<path fill="none" stroke="#000000" d="M197.8349,-291.5963C198.2194,-299.8638 198.6381,-308.8657 199.0258,-317.2008"/>
<polygon fill="#000000" stroke="#000000" points="195.5344,-317.47 199.4953,-327.2966 202.5269,-317.1447 195.5344,-317.47"/>
</g>
<!-- GO:0044422&#45;&gt;GO:0005575 -->
<g id="edge12" class="edge">
<title>GO:0044422&#45;&gt;GO:0005575</title>
<path fill="none" stroke="#000000" d="M200.4583,-368.6094C200.4583,-395.1627 200.4583,-441.5577 200.4583,-472.3304"/>
<polygon fill="#000000" stroke="#000000" points="196.9584,-472.5054 200.4583,-482.5054 203.9584,-472.5054 196.9584,-472.5054"/>
</g>
<!-- GO:0032982 -->
<g id="node12" class="node">
<title>GO:0032982</title>
<polygon fill="#ffffff" stroke="#000000" points="306.337,-41.4019 198.5796,-41.4019 198.5796,-.1981 306.337,-.1981 306.337,-41.4019"/>
<text text-anchor="middle" x="252.4583" y="-25" font-family="Times,serif" font-size="14.00" fill="#000000">GO:0032982</text>
<text text-anchor="middle" x="252.4583" y="-8.2" font-family="Times,serif" font-size="14.00" fill="#000000">myosin filament</text>
</g>
<!-- GO:0032982&#45;&gt;GO:0016459 -->
<g id="edge13" class="edge">
<title>GO:0032982&#45;&gt;GO:0016459</title>
<path fill="none" stroke="#000000" d="M252.4583,-41.5954C252.4583,-49.5109 252.4583,-58.7109 252.4583,-67.3722"/>
<polygon fill="#000000" stroke="#000000" points="248.9584,-67.5472 252.4583,-77.5472 255.9584,-67.5473 248.9584,-67.5472"/>
</g>
</g>
</svg>
