<?xml version="1.0" encoding="UTF-8" standalone="no"?>
<!DOCTYPE svg PUBLIC "-//W3C//DTD SVG 1.1//EN"
 "http://www.w3.org/Graphics/SVG/1.1/DTD/svg11.dtd">
<!-- Generated by graphviz version 2.40.1 (20161225.0304)
 -->
<!-- Title: G Pages: 1 -->
<svg width="557pt" height="410pt"
 viewBox="0.00 0.00 557.49 410.40" xmlns="http://www.w3.org/2000/svg" xmlns:xlink="http://www.w3.org/1999/xlink">
<g id="graph0" class="graph" transform="scale(1 1) rotate(0) translate(4 406.4)">
<title>G</title>
<polygon fill="#ffffff" stroke="transparent" points="-4,4 -4,-406.4 553.4864,-406.4 553.4864,4 -4,4"/>
<!-- GO:0005576 -->
<g id="node1" class="node">
<title>GO:0005576</title>
<polygon fill="#ffffff" stroke="#000000" points="236.3983,-324.6019 110.9531,-324.6019 110.9531,-283.3981 236.3983,-283.3981 236.3983,-324.6019"/>
<text text-anchor="middle" x="173.6757" y="-308.2" font-family="Times,serif" font-size="14.00" fill="#000000">GO:0005576</text>
<text text-anchor="middle" x="173.6757" y="-291.4" font-family="Times,serif" font-size="14.00" fill="#000000">extracellular region</text>
</g>
<!-- GO:0005575 -->
<g id="node2" class="node">
<title>GO:0005575</title>
<polygon fill="#ffffff" stroke="#000000" points="237.3624,-402.2019 109.989,-402.2019 109.989,-360.9981 237.3624,-360.9981 237.3624,-402.2019"/>
<text text-anchor="middle" x="173.6757" y="-385.8" font-family="Times,serif" font-size="14.00" fill="#000000">GO:0005575</text>
<text text-anchor="middle" x="173.6757" y="-369" font-family="Times,serif" font-size="14.00" fill="#000000">cellular_component</text>
</g>
<!-- GO:0005576&#45;&gt;GO:0005575 -->
<g id="edge1" class="edge">
<title>GO:0005576&#45;&gt;GO:0005575</title>
<path fill="none" stroke="#000000" d="M173.6757,-324.7954C173.6757,-332.7109 173.6757,-341.9109 173.6757,-350.5722"/>
<polygon fill="#000000" stroke="#000000" points="170.1758,-350.7472 173.6757,-360.7472 177.1758,-350.7473 170.1758,-350.7472"/>
</g>
<!-- GO:0005730 -->
<g id="node3" class="node">
<title>GO:0005730</title>
<polygon fill="#ffffff" stroke="#000000" points="274.2796,-41.4019 185.0718,-41.4019 185.0718,-.1981 274.2796,-.1981 274.2796,-41.4019"/>
<text text-anchor="middle" x="229.6757" y="-25" font-family="Times,serif" font-size="14.00" fill="#000000">GO:0005730</text>
<text text-anchor="middle" x="229.6757" y="-8.2" font-family="Times,serif" font-size="14.00" fill="#000000">nucleolus</text>
</g>
<!-- GO:0044428 -->
<g id="node4" class="node">
<title>GO:0044428</title>
<polygon fill="#ffffff" stroke="#000000" points="211.2796,-135.8019 122.0718,-135.8019 122.0718,-94.5981 211.2796,-94.5981 211.2796,-135.8019"/>
<text text-anchor="middle" x="166.6757" y="-119.4" font-family="Times,serif" font-size="14.00" fill="#000000">GO:0044428</text>
<text text-anchor="middle" x="166.6757" y="-102.6" font-family="Times,serif" font-size="14.00" fill="#000000">nuclear part</text>
</g>
<!-- GO:0005730&#45;&gt;GO:0044428 -->
<g id="edge2" class="edge">
<title>GO:0005730&#45;&gt;GO:0044428</title>
<path fill="none" stroke="#000000" d="M215.694,-41.7504C207.0482,-54.7054 195.8208,-71.5287 186.2929,-85.8053"/>
<polygon fill="#000000" stroke="#000000" points="183.2582,-84.0474 180.6184,-94.3081 189.0807,-87.9332 183.2582,-84.0474"/>
</g>
<!-- GO:0043232 -->
<g id="node5" class="node">
<title>GO:0043232</title>
<polygon fill="#ffffff" stroke="#000000" points="372.6365,-152.9003 244.7149,-152.9003 244.7149,-77.4997 372.6365,-77.4997 372.6365,-152.9003"/>
<text text-anchor="middle" x="308.6757" y="-136.2" font-family="Times,serif" font-size="14.00" fill="#000000">GO:0043232</text>
<text text-anchor="middle" x="308.6757" y="-119.4" font-family="Times,serif" font-size="14.00" fill="#000000">intracellular non&#45;</text>
<text text-anchor="middle" x="308.6757" y="-102.6" font-family="Times,serif" font-size="14.00" fill="#000000">membrane&#45;bounded</text>
<text text-anchor="middle" x="308.6757" y="-85.8" font-family="Times,serif" font-size="14.00" fill="#000000">organelle</text>
</g>
<!-- GO:0005730&#45;&gt;GO:0043232 -->
<g id="edge3" class="edge">
<title>GO:0005730&#45;&gt;GO:0043232</title>
<path fill="none" stroke="#000000" d="M247.2084,-41.7504C254.1668,-50.0654 262.459,-59.9739 270.6652,-69.7799"/>
<polygon fill="#000000" stroke="#000000" points="268.099,-72.167 277.201,-77.5897 273.4672,-67.6745 268.099,-72.167"/>
</g>
<!-- GO:0044446 -->
<g id="node6" class="node">
<title>GO:0044446</title>
<polygon fill="#ffffff" stroke="#000000" points="221.3941,-247.4014 81.9573,-247.4014 81.9573,-188.5986 221.3941,-188.5986 221.3941,-247.4014"/>
<text text-anchor="middle" x="151.6757" y="-230.6" font-family="Times,serif" font-size="14.00" fill="#000000">GO:0044446</text>
<text text-anchor="middle" x="151.6757" y="-213.8" font-family="Times,serif" font-size="14.00" fill="#000000">intracellular organelle</text>
<text text-anchor="middle" x="151.6757" y="-197" font-family="Times,serif" font-size="14.00" fill="#000000">part</text>
</g>
<!-- GO:0044428&#45;&gt;GO:0044446 -->
<g id="edge4" class="edge">
<title>GO:0044428&#45;&gt;GO:0044446</title>
<path fill="none" stroke="#000000" d="M163.6402,-136.0031C161.863,-148.1833 159.5598,-163.9676 157.4495,-178.4305"/>
<polygon fill="#000000" stroke="#000000" points="153.9378,-178.2571 155.9572,-188.6577 160.8644,-179.2679 153.9378,-178.2571"/>
</g>
<!-- GO:0043229 -->
<g id="node7" class="node">
<title>GO:0043229</title>
<polygon fill="#ffffff" stroke="#000000" points="378.3941,-238.6019 238.9573,-238.6019 238.9573,-197.3981 378.3941,-197.3981 378.3941,-238.6019"/>
<text text-anchor="middle" x="308.6757" y="-222.2" font-family="Times,serif" font-size="14.00" fill="#000000">GO:0043229</text>
<text text-anchor="middle" x="308.6757" y="-205.4" font-family="Times,serif" font-size="14.00" fill="#000000">intracellular organelle</text>
</g>
<!-- GO:0043232&#45;&gt;GO:0043229 -->
<g id="edge5" class="edge">
<title>GO:0043232&#45;&gt;GO:0043229</title>
<path fill="none" stroke="#000000" d="M308.6757,-152.8952C308.6757,-164.1552 308.6757,-176.3618 308.6757,-187.1299"/>
<polygon fill="#000000" stroke="#000000" points="305.1758,-187.3302 308.6757,-197.3302 312.1758,-187.3302 305.1758,-187.3302"/>
</g>
<!-- GO:0043228 -->
<g id="node8" class="node">
<title>GO:0043228</title>
<polygon fill="#ffffff" stroke="#000000" points="549.2976,-247.4014 396.0538,-247.4014 396.0538,-188.5986 549.2976,-188.5986 549.2976,-247.4014"/>
<text text-anchor="middle" x="472.6757" y="-230.6" font-family="Times,serif" font-size="14.00" fill="#000000">GO:0043228</text>
<text text-anchor="middle" x="472.6757" y="-213.8" font-family="Times,serif" font-size="14.00" fill="#000000">non&#45;membrane&#45;bounded</text>
<text text-anchor="middle" x="472.6757" y="-197" font-family="Times,serif" font-size="14.00" fill="#000000">organelle</text>
</g>
<!-- GO:0043232&#45;&gt;GO:0043228 -->
<g id="edge6" class="edge">
<title>GO:0043232&#45;&gt;GO:0043228</title>
<path fill="none" stroke="#000000" d="M368.812,-152.8952C384.7014,-162.8552 401.7724,-173.5558 417.3916,-183.3463"/>
<polygon fill="#000000" stroke="#000000" points="415.5708,-186.3358 425.9028,-188.6814 419.2887,-180.4046 415.5708,-186.3358"/>
</g>
<!-- GO:0044424 -->
<g id="node9" class="node">
<title>GO:0044424</title>
<polygon fill="#ffffff" stroke="#000000" points="363.0741,-324.6019 254.2773,-324.6019 254.2773,-283.3981 363.0741,-283.3981 363.0741,-324.6019"/>
<text text-anchor="middle" x="308.6757" y="-308.2" font-family="Times,serif" font-size="14.00" fill="#000000">GO:0044424</text>
<text text-anchor="middle" x="308.6757" y="-291.4" font-family="Times,serif" font-size="14.00" fill="#000000">intracellular part</text>
</g>
<!-- GO:0044446&#45;&gt;GO:0044424 -->
<g id="edge7" class="edge">
<title>GO:0044446&#45;&gt;GO:0044424</title>
<path fill="none" stroke="#000000" d="M205.2671,-247.3558C223.5733,-257.3834 243.8957,-268.5154 261.6456,-278.2383"/>
<polygon fill="#000000" stroke="#000000" points="260.2169,-281.4464 270.6688,-283.1809 263.5799,-275.3071 260.2169,-281.4464"/>
</g>
<!-- GO:0044422 -->
<g id="node10" class="node">
<title>GO:0044422</title>
<polygon fill="#ffffff" stroke="#000000" points="93.5278,-324.6019 -.1764,-324.6019 -.1764,-283.3981 93.5278,-283.3981 93.5278,-324.6019"/>
<text text-anchor="middle" x="46.6757" y="-308.2" font-family="Times,serif" font-size="14.00" fill="#000000">GO:0044422</text>
<text text-anchor="middle" x="46.6757" y="-291.4" font-family="Times,serif" font-size="14.00" fill="#000000">organelle part</text>
</g>
<!-- GO:0044446&#45;&gt;GO:0044422 -->
<g id="edge8" class="edge">
<title>GO:0044446&#45;&gt;GO:0044422</title>
<path fill="none" stroke="#000000" d="M115.8343,-247.3558C104.2652,-256.8314 91.4921,-267.2932 80.1044,-276.6203"/>
<polygon fill="#000000" stroke="#000000" points="77.6129,-274.1368 72.0943,-283.1809 82.0484,-279.5522 77.6129,-274.1368"/>
</g>
<!-- GO:0043229&#45;&gt;GO:0044424 -->
<g id="edge9" class="edge">
<title>GO:0043229&#45;&gt;GO:0044424</title>
<path fill="none" stroke="#000000" d="M308.6757,-238.8182C308.6757,-249.1705 308.6757,-261.8848 308.6757,-273.3271"/>
<polygon fill="#000000" stroke="#000000" points="305.1758,-273.3735 308.6757,-283.3735 312.1758,-273.3735 305.1758,-273.3735"/>
</g>
<!-- GO:0043226 -->
<g id="node11" class="node">
<title>GO:0043226</title>
<polygon fill="#ffffff" stroke="#000000" points="470.2796,-324.6019 381.0718,-324.6019 381.0718,-283.3981 470.2796,-283.3981 470.2796,-324.6019"/>
<text text-anchor="middle" x="425.6757" y="-308.2" font-family="Times,serif" font-size="14.00" fill="#000000">GO:0043226</text>
<text text-anchor="middle" x="425.6757" y="-291.4" font-family="Times,serif" font-size="14.00" fill="#000000">organelle</text>
</g>
<!-- GO:0043229&#45;&gt;GO:0043226 -->
<g id="edge10" class="edge">
<title>GO:0043229&#45;&gt;GO:0043226</title>
<path fill="none" stroke="#000000" d="M336.9981,-238.8182C352.6629,-250.3325 372.3031,-264.7688 389.1158,-277.1269"/>
<polygon fill="#000000" stroke="#000000" points="387.4837,-280.271 397.6141,-283.3735 391.6295,-274.6308 387.4837,-280.271"/>
</g>
<!-- GO:0043228&#45;&gt;GO:0043226 -->
<g id="edge11" class="edge">
<title>GO:0043228&#45;&gt;GO:0043226</title>
<path fill="none" stroke="#000000" d="M456.501,-247.5963C451.7819,-256.2312 446.6249,-265.6673 441.9027,-274.3081"/>
<polygon fill="#000000" stroke="#000000" points="438.7148,-272.843 436.9904,-283.2966 444.8574,-276.2 438.7148,-272.843"/>
</g>
<!-- GO:0044464 -->
<g id="node12" class="node">
<title>GO:0044464</title>
<polygon fill="#ffffff" stroke="#000000" points="353.2796,-402.2019 264.0718,-402.2019 264.0718,-360.9981 353.2796,-360.9981 353.2796,-402.2019"/>
<text text-anchor="middle" x="308.6757" y="-385.8" font-family="Times,serif" font-size="14.00" fill="#000000">GO:0044464</text>
<text text-anchor="middle" x="308.6757" y="-369" font-family="Times,serif" font-size="14.00" fill="#000000">cell part</text>
</g>
<!-- GO:0044424&#45;&gt;GO:0044464 -->
<g id="edge12" class="edge">
<title>GO:0044424&#45;&gt;GO:0044464</title>
<path fill="none" stroke="#000000" d="M308.6757,-324.7954C308.6757,-332.7109 308.6757,-341.9109 308.6757,-350.5722"/>
<polygon fill="#000000" stroke="#000000" points="305.1758,-350.7472 308.6757,-360.7472 312.1758,-350.7473 305.1758,-350.7472"/>
</g>
<!-- GO:0044422&#45;&gt;GO:0005575 -->
<g id="edge13" class="edge">
<title>GO:0044422&#45;&gt;GO:0005575</title>
<path fill="none" stroke="#000000" d="M80.7094,-324.7954C96.0839,-334.1896 114.4196,-345.3931 130.7281,-355.358"/>
<polygon fill="#000000" stroke="#000000" points="129.19,-358.5198 139.5481,-360.7472 132.8398,-352.5466 129.19,-358.5198"/>
</g>
<!-- GO:0043226&#45;&gt;GO:0005575 -->
<g id="edge14" class="edge">
<title>GO:0043226&#45;&gt;GO:0005575</title>
<path fill="none" stroke="#000000" d="M380.9971,-321.5588C377.8536,-322.6865 374.7238,-323.778 371.6757,-324.8 330.9021,-338.4713 284.7445,-351.832 247.258,-362.1572"/>
<polygon fill="#000000" stroke="#000000" points="246.1461,-358.8328 237.4262,-364.8506 247.9956,-365.584 246.1461,-358.8328"/>
</g>
</g>
</svg>
