<?xml version="1.0" encoding="UTF-8" standalone="no"?>
<!DOCTYPE svg PUBLIC "-//W3C//DTD SVG 1.1//EN"
 "http://www.w3.org/Graphics/SVG/1.1/DTD/svg11.dtd">
<!-- Generated by graphviz version 2.40.1 (20161225.0304)
 -->
<!-- Title: G Pages: 1 -->
<svg width="632pt" height="744pt"
 viewBox="0.00 0.00 632.08 744.00" xmlns="http://www.w3.org/2000/svg" xmlns:xlink="http://www.w3.org/1999/xlink">
<g id="graph0" class="graph" transform="scale(1 1) rotate(0) translate(4 740)">
<title>G</title>
<polygon fill="#ffffff" stroke="transparent" points="-4,4 -4,-740 628.0832,-740 628.0832,4 -4,4"/>
<!-- GO:0016153 -->
<g id="node1" class="node">
<title>GO:0016153</title>
<polygon fill="#ffffff" stroke="#000000" points="127.3246,-255.8014 .2246,-255.8014 .2246,-196.9986 127.3246,-196.9986 127.3246,-255.8014"/>
<text text-anchor="middle" x="63.7746" y="-239" font-family="Times,serif" font-size="14.00" fill="#000000">GO:0016153</text>
<text text-anchor="middle" x="63.7746" y="-222.2" font-family="Times,serif" font-size="14.00" fill="#000000">urocanate hydratase</text>
<text text-anchor="middle" x="63.7746" y="-205.4" font-family="Times,serif" font-size="14.00" fill="#000000">activity</text>
</g>
<!-- GO:0016836 -->
<g id="node2" class="node">
<title>GO:0016836</title>
<polygon fill="#ffffff" stroke="#000000" points="164.3525,-366.6019 37.1967,-366.6019 37.1967,-325.3981 164.3525,-325.3981 164.3525,-366.6019"/>
<text text-anchor="middle" x="100.7746" y="-350.2" font-family="Times,serif" font-size="14.00" fill="#000000">GO:0016836</text>
<text text-anchor="middle" x="100.7746" y="-333.4" font-family="Times,serif" font-size="14.00" fill="#000000">hydro&#45;lyase activity</text>
</g>
<!-- GO:0016153&#45;&gt;GO:0016836 -->
<g id="edge1" class="edge">
<title>GO:0016153&#45;&gt;GO:0016836</title>
<path fill="none" stroke="#000000" d="M72.8258,-255.6575C78.4578,-273.8625 85.6869,-297.23 91.3818,-315.6385"/>
<polygon fill="#000000" stroke="#000000" points="88.0688,-316.7722 94.368,-325.291 94.7561,-314.7033 88.0688,-316.7722"/>
</g>
<!-- GO:0016835 -->
<g id="node3" class="node">
<title>GO:0016835</title>
<polygon fill="#ffffff" stroke="#000000" points="240.0042,-495.0014 107.545,-495.0014 107.545,-436.1986 240.0042,-436.1986 240.0042,-495.0014"/>
<text text-anchor="middle" x="173.7746" y="-478.2" font-family="Times,serif" font-size="14.00" fill="#000000">GO:0016835</text>
<text text-anchor="middle" x="173.7746" y="-461.4" font-family="Times,serif" font-size="14.00" fill="#000000">carbon&#45;oxygen lyase</text>
<text text-anchor="middle" x="173.7746" y="-444.6" font-family="Times,serif" font-size="14.00" fill="#000000">activity</text>
</g>
<!-- GO:0016836&#45;&gt;GO:0016835 -->
<g id="edge2" class="edge">
<title>GO:0016836&#45;&gt;GO:0016835</title>
<path fill="none" stroke="#000000" d="M113.4902,-366.8327C123.6672,-383.5062 138.2136,-407.3384 150.4676,-427.4148"/>
<polygon fill="#000000" stroke="#000000" points="147.5381,-429.3334 155.7355,-436.0455 153.5131,-425.6864 147.5381,-429.3334"/>
</g>
<!-- GO:0016829 -->
<g id="node4" class="node">
<title>GO:0016829</title>
<polygon fill="#ffffff" stroke="#000000" points="249.031,-580.6019 158.5182,-580.6019 158.5182,-539.3981 249.031,-539.3981 249.031,-580.6019"/>
<text text-anchor="middle" x="203.7746" y="-564.2" font-family="Times,serif" font-size="14.00" fill="#000000">GO:0016829</text>
<text text-anchor="middle" x="203.7746" y="-547.4" font-family="Times,serif" font-size="14.00" fill="#000000">lyase activity</text>
</g>
<!-- GO:0016835&#45;&gt;GO:0016829 -->
<g id="edge3" class="edge">
<title>GO:0016835&#45;&gt;GO:0016829</title>
<path fill="none" stroke="#000000" d="M183.1023,-494.9513C186.6053,-505.9739 190.5923,-518.5196 194.124,-529.6326"/>
<polygon fill="#000000" stroke="#000000" points="190.848,-530.8807 197.2124,-539.351 197.5193,-528.7606 190.848,-530.8807"/>
</g>
<!-- GO:0003824 -->
<g id="node5" class="node">
<title>GO:0003824</title>
<polygon fill="#ffffff" stroke="#000000" points="318.187,-658.2019 209.3622,-658.2019 209.3622,-616.9981 318.187,-616.9981 318.187,-658.2019"/>
<text text-anchor="middle" x="263.7746" y="-641.8" font-family="Times,serif" font-size="14.00" fill="#000000">GO:0003824</text>
<text text-anchor="middle" x="263.7746" y="-625" font-family="Times,serif" font-size="14.00" fill="#000000">catalytic activity</text>
</g>
<!-- GO:0016829&#45;&gt;GO:0003824 -->
<g id="edge4" class="edge">
<title>GO:0016829&#45;&gt;GO:0003824</title>
<path fill="none" stroke="#000000" d="M219.8535,-580.7954C226.4445,-589.3197 234.1874,-599.3339 241.3214,-608.5605"/>
<polygon fill="#000000" stroke="#000000" points="238.7656,-610.977 247.6513,-616.7472 244.3034,-606.6953 238.7656,-610.977"/>
</g>
<!-- GO:0003674 -->
<g id="node6" class="node">
<title>GO:0003674</title>
<polygon fill="#ffffff" stroke="#000000" points="326.4077,-735.8019 201.1415,-735.8019 201.1415,-694.5981 326.4077,-694.5981 326.4077,-735.8019"/>
<text text-anchor="middle" x="263.7746" y="-719.4" font-family="Times,serif" font-size="14.00" fill="#000000">GO:0003674</text>
<text text-anchor="middle" x="263.7746" y="-702.6" font-family="Times,serif" font-size="14.00" fill="#000000">molecular_function</text>
</g>
<!-- GO:0003824&#45;&gt;GO:0003674 -->
<g id="edge5" class="edge">
<title>GO:0003824&#45;&gt;GO:0003674</title>
<path fill="none" stroke="#000000" d="M263.7746,-658.3954C263.7746,-666.3109 263.7746,-675.5109 263.7746,-684.1722"/>
<polygon fill="#000000" stroke="#000000" points="260.2747,-684.3472 263.7746,-694.3472 267.2747,-684.3473 260.2747,-684.3472"/>
</g>
<!-- GO:0046559 -->
<g id="node7" class="node">
<title>GO:0046559</title>
<polygon fill="#ffffff" stroke="#000000" points="275.2861,-255.8014 146.2631,-255.8014 146.2631,-196.9986 275.2861,-196.9986 275.2861,-255.8014"/>
<text text-anchor="middle" x="210.7746" y="-239" font-family="Times,serif" font-size="14.00" fill="#000000">GO:0046559</text>
<text text-anchor="middle" x="210.7746" y="-222.2" font-family="Times,serif" font-size="14.00" fill="#000000">alpha&#45;glucuronidase</text>
<text text-anchor="middle" x="210.7746" y="-205.4" font-family="Times,serif" font-size="14.00" fill="#000000">activity</text>
</g>
<!-- GO:0004553 -->
<g id="node8" class="node">
<title>GO:0004553</title>
<polygon fill="#ffffff" stroke="#000000" points="428.639,-383.7003 278.9102,-383.7003 278.9102,-308.2997 428.639,-308.2997 428.639,-383.7003"/>
<text text-anchor="middle" x="353.7746" y="-367" font-family="Times,serif" font-size="14.00" fill="#000000">GO:0004553</text>
<text text-anchor="middle" x="353.7746" y="-350.2" font-family="Times,serif" font-size="14.00" fill="#000000">hydrolase activity,</text>
<text text-anchor="middle" x="353.7746" y="-333.4" font-family="Times,serif" font-size="14.00" fill="#000000">hydrolyzing O&#45;glycosyl</text>
<text text-anchor="middle" x="353.7746" y="-316.6" font-family="Times,serif" font-size="14.00" fill="#000000">compounds</text>
</g>
<!-- GO:0046559&#45;&gt;GO:0004553 -->
<g id="edge6" class="edge">
<title>GO:0046559&#45;&gt;GO:0004553</title>
<path fill="none" stroke="#000000" d="M245.7563,-255.6575C262.3244,-269.5144 282.4686,-286.3622 300.8522,-301.7376"/>
<polygon fill="#000000" stroke="#000000" points="298.6913,-304.4931 308.6075,-308.2239 303.1822,-299.1235 298.6913,-304.4931"/>
</g>
<!-- GO:0016798 -->
<g id="node9" class="node">
<title>GO:0016798</title>
<polygon fill="#ffffff" stroke="#000000" points="431.3705,-495.0014 276.1787,-495.0014 276.1787,-436.1986 431.3705,-436.1986 431.3705,-495.0014"/>
<text text-anchor="middle" x="353.7746" y="-478.2" font-family="Times,serif" font-size="14.00" fill="#000000">GO:0016798</text>
<text text-anchor="middle" x="353.7746" y="-461.4" font-family="Times,serif" font-size="14.00" fill="#000000">hydrolase activity,</text>
<text text-anchor="middle" x="353.7746" y="-444.6" font-family="Times,serif" font-size="14.00" fill="#000000">acting on glycosyl bonds</text>
</g>
<!-- GO:0004553&#45;&gt;GO:0016798 -->
<g id="edge7" class="edge">
<title>GO:0004553&#45;&gt;GO:0016798</title>
<path fill="none" stroke="#000000" d="M353.7746,-383.8422C353.7746,-397.3668 353.7746,-412.6315 353.7746,-426.278"/>
<polygon fill="#000000" stroke="#000000" points="350.2747,-426.3425 353.7746,-436.3425 357.2747,-426.3426 350.2747,-426.3425"/>
</g>
<!-- GO:0016787 -->
<g id="node10" class="node">
<title>GO:0016787</title>
<polygon fill="#ffffff" stroke="#000000" points="411.6912,-580.6019 295.858,-580.6019 295.858,-539.3981 411.6912,-539.3981 411.6912,-580.6019"/>
<text text-anchor="middle" x="353.7746" y="-564.2" font-family="Times,serif" font-size="14.00" fill="#000000">GO:0016787</text>
<text text-anchor="middle" x="353.7746" y="-547.4" font-family="Times,serif" font-size="14.00" fill="#000000">hydrolase activity</text>
</g>
<!-- GO:0016798&#45;&gt;GO:0016787 -->
<g id="edge8" class="edge">
<title>GO:0016798&#45;&gt;GO:0016787</title>
<path fill="none" stroke="#000000" d="M353.7746,-494.9513C353.7746,-505.8614 353.7746,-518.2637 353.7746,-529.292"/>
<polygon fill="#000000" stroke="#000000" points="350.2747,-529.3509 353.7746,-539.351 357.2747,-529.351 350.2747,-529.3509"/>
</g>
<!-- GO:0016787&#45;&gt;GO:0003824 -->
<g id="edge9" class="edge">
<title>GO:0016787&#45;&gt;GO:0003824</title>
<path fill="none" stroke="#000000" d="M329.6563,-580.7954C319.2653,-589.7547 306.9657,-600.3596 295.824,-609.9663"/>
<polygon fill="#000000" stroke="#000000" points="293.2475,-607.5664 287.9595,-616.7472 297.8186,-612.8679 293.2475,-607.5664"/>
</g>
<!-- GO:0044682 -->
<g id="node11" class="node">
<title>GO:0044682</title>
<polygon fill="#ffffff" stroke="#000000" points="622.0112,-58.6014 475.538,-58.6014 475.538,.2014 622.0112,.2014 622.0112,-58.6014"/>
<text text-anchor="middle" x="548.7746" y="-41.8" font-family="Times,serif" font-size="14.00" fill="#000000">GO:0044682</text>
<text text-anchor="middle" x="548.7746" y="-25" font-family="Times,serif" font-size="14.00" fill="#000000">archaeal&#45;specific GTP</text>
<text text-anchor="middle" x="548.7746" y="-8.2" font-family="Times,serif" font-size="14.00" fill="#000000">cyclohydrolase activity</text>
</g>
<!-- GO:0003933 -->
<g id="node12" class="node">
<title>GO:0003933</title>
<polygon fill="#ffffff" stroke="#000000" points="613.9616,-153.0014 483.5876,-153.0014 483.5876,-94.1986 613.9616,-94.1986 613.9616,-153.0014"/>
<text text-anchor="middle" x="548.7746" y="-136.2" font-family="Times,serif" font-size="14.00" fill="#000000">GO:0003933</text>
<text text-anchor="middle" x="548.7746" y="-119.4" font-family="Times,serif" font-size="14.00" fill="#000000">GTP cyclohydrolase</text>
<text text-anchor="middle" x="548.7746" y="-102.6" font-family="Times,serif" font-size="14.00" fill="#000000">activity</text>
</g>
<!-- GO:0044682&#45;&gt;GO:0003933 -->
<g id="edge10" class="edge">
<title>GO:0044682&#45;&gt;GO:0003933</title>
<path fill="none" stroke="#000000" d="M548.7746,-58.5513C548.7746,-66.6318 548.7746,-75.5308 548.7746,-84.0838"/>
<polygon fill="#000000" stroke="#000000" points="545.2747,-84.2668 548.7746,-94.2669 552.2747,-84.2669 545.2747,-84.2668"/>
</g>
<!-- GO:0019238 -->
<g id="node13" class="node">
<title>GO:0019238</title>
<polygon fill="#ffffff" stroke="#000000" points="622.0112,-247.0019 475.538,-247.0019 475.538,-205.7981 622.0112,-205.7981 622.0112,-247.0019"/>
<text text-anchor="middle" x="548.7746" y="-230.6" font-family="Times,serif" font-size="14.00" fill="#000000">GO:0019238</text>
<text text-anchor="middle" x="548.7746" y="-213.8" font-family="Times,serif" font-size="14.00" fill="#000000">cyclohydrolase activity</text>
</g>
<!-- GO:0003933&#45;&gt;GO:0019238 -->
<g id="edge11" class="edge">
<title>GO:0003933&#45;&gt;GO:0019238</title>
<path fill="none" stroke="#000000" d="M548.7746,-153.0584C548.7746,-166.3539 548.7746,-182.0608 548.7746,-195.5212"/>
<polygon fill="#000000" stroke="#000000" points="545.2747,-195.7456 548.7746,-205.7456 552.2747,-195.7457 545.2747,-195.7456"/>
</g>
<!-- GO:0016814 -->
<g id="node14" class="node">
<title>GO:0016814</title>
<polygon fill="#ffffff" stroke="#000000" points="623.8923,-392 463.6569,-392 463.6569,-300 623.8923,-300 623.8923,-392"/>
<text text-anchor="middle" x="543.7746" y="-375.4" font-family="Times,serif" font-size="14.00" fill="#000000">GO:0016814</text>
<text text-anchor="middle" x="543.7746" y="-358.6" font-family="Times,serif" font-size="14.00" fill="#000000">hydrolase activity,</text>
<text text-anchor="middle" x="543.7746" y="-341.8" font-family="Times,serif" font-size="14.00" fill="#000000">acting on carbon&#45;nitrogen</text>
<text text-anchor="middle" x="543.7746" y="-325" font-family="Times,serif" font-size="14.00" fill="#000000">(but not peptide) bonds,</text>
<text text-anchor="middle" x="543.7746" y="-308.2" font-family="Times,serif" font-size="14.00" fill="#000000">in cyclic amidines</text>
</g>
<!-- GO:0019238&#45;&gt;GO:0016814 -->
<g id="edge12" class="edge">
<title>GO:0019238&#45;&gt;GO:0016814</title>
<path fill="none" stroke="#000000" d="M547.9037,-247.2327C547.4104,-259.0326 546.7672,-274.4179 546.1358,-289.52"/>
<polygon fill="#000000" stroke="#000000" points="542.6234,-289.745 545.7026,-299.8825 549.6173,-290.0374 542.6234,-289.745"/>
</g>
<!-- GO:0016810 -->
<g id="node15" class="node">
<title>GO:0016810</title>
<polygon fill="#ffffff" stroke="#000000" points="618.8923,-503.3003 458.6569,-503.3003 458.6569,-427.8997 618.8923,-427.8997 618.8923,-503.3003"/>
<text text-anchor="middle" x="538.7746" y="-486.6" font-family="Times,serif" font-size="14.00" fill="#000000">GO:0016810</text>
<text text-anchor="middle" x="538.7746" y="-469.8" font-family="Times,serif" font-size="14.00" fill="#000000">hydrolase activity,</text>
<text text-anchor="middle" x="538.7746" y="-453" font-family="Times,serif" font-size="14.00" fill="#000000">acting on carbon&#45;nitrogen</text>
<text text-anchor="middle" x="538.7746" y="-436.2" font-family="Times,serif" font-size="14.00" fill="#000000">(but not peptide) bonds</text>
</g>
<!-- GO:0016814&#45;&gt;GO:0016810 -->
<g id="edge13" class="edge">
<title>GO:0016814&#45;&gt;GO:0016810</title>
<path fill="none" stroke="#000000" d="M541.8415,-392.2405C541.4898,-400.6523 541.1223,-409.4419 540.769,-417.8951"/>
<polygon fill="#000000" stroke="#000000" points="537.2677,-417.8537 540.3469,-427.9912 544.2616,-418.1461 537.2677,-417.8537"/>
</g>
<!-- GO:0016810&#45;&gt;GO:0016787 -->
<g id="edge14" class="edge">
<title>GO:0016810&#45;&gt;GO:0016787</title>
<path fill="none" stroke="#000000" d="M464.8601,-503.3164C444.1888,-513.8643 422.2259,-525.0714 403.3341,-534.7112"/>
<polygon fill="#000000" stroke="#000000" points="401.6424,-531.6451 394.3258,-539.3079 404.824,-537.8803 401.6424,-531.6451"/>
</g>
<!-- GO:0033939 -->
<g id="node16" class="node">
<title>GO:0033939</title>
<polygon fill="#ffffff" stroke="#000000" points="457.8904,-264.1003 293.6588,-264.1003 293.6588,-188.6997 457.8904,-188.6997 457.8904,-264.1003"/>
<text text-anchor="middle" x="375.7746" y="-247.4" font-family="Times,serif" font-size="14.00" fill="#000000">GO:0033939</text>
<text text-anchor="middle" x="375.7746" y="-230.6" font-family="Times,serif" font-size="14.00" fill="#000000">xylan</text>
<text text-anchor="middle" x="375.7746" y="-213.8" font-family="Times,serif" font-size="14.00" fill="#000000">alpha&#45;1,2&#45;glucuronosidase</text>
<text text-anchor="middle" x="375.7746" y="-197" font-family="Times,serif" font-size="14.00" fill="#000000">activity</text>
</g>
<!-- GO:0033939&#45;&gt;GO:0004553 -->
<g id="edge15" class="edge">
<title>GO:0033939&#45;&gt;GO:0004553</title>
<path fill="none" stroke="#000000" d="M368.8137,-264.2422C366.8475,-274.931 364.6814,-286.7067 362.6203,-297.9114"/>
<polygon fill="#000000" stroke="#000000" points="359.1327,-297.5253 360.7658,-307.9935 366.0172,-298.7917 359.1327,-297.5253"/>
</g>
</g>
</svg>
