<?xml version="1.0" encoding="UTF-8" standalone="no"?>
<!DOCTYPE svg PUBLIC "-//W3C//DTD SVG 1.1//EN"
 "http://www.w3.org/Graphics/SVG/1.1/DTD/svg11.dtd">
<!-- Generated by graphviz version 2.40.1 (20161225.0304)
 -->
<!-- Title: G Pages: 1 -->
<svg width="495pt" height="316pt"
 viewBox="0.00 0.00 495.22 316.00" xmlns="http://www.w3.org/2000/svg" xmlns:xlink="http://www.w3.org/1999/xlink">
<g id="graph0" class="graph" transform="scale(1 1) rotate(0) translate(4 312)">
<title>G</title>
<polygon fill="#ffffff" stroke="transparent" points="-4,4 -4,-312 491.2192,-312 491.2192,4 -4,4"/>
<!-- GO:0036094 -->
<g id="node1" class="node">
<title>GO:0036094</title>
<polygon fill="#ffffff" stroke="#000000" points="147.6423,-144.2019 -.2145,-144.2019 -.2145,-102.9981 147.6423,-102.9981 147.6423,-144.2019"/>
<text text-anchor="middle" x="73.7139" y="-127.8" font-family="Times,serif" font-size="14.00" fill="#000000">GO:0036094</text>
<text text-anchor="middle" x="73.7139" y="-111" font-family="Times,serif" font-size="14.00" fill="#000000">small molecule binding</text>
</g>
<!-- GO:0005488 -->
<g id="node2" class="node">
<title>GO:0005488</title>
<polygon fill="#ffffff" stroke="#000000" points="288.3178,-230.2019 199.11,-230.2019 199.11,-188.9981 288.3178,-188.9981 288.3178,-230.2019"/>
<text text-anchor="middle" x="243.7139" y="-213.8" font-family="Times,serif" font-size="14.00" fill="#000000">GO:0005488</text>
<text text-anchor="middle" x="243.7139" y="-197" font-family="Times,serif" font-size="14.00" fill="#000000">binding</text>
</g>
<!-- GO:0036094&#45;&gt;GO:0005488 -->
<g id="edge1" class="edge">
<title>GO:0036094&#45;&gt;GO:0005488</title>
<path fill="none" stroke="#000000" d="M114.8662,-144.4182C138.671,-156.4606 168.7942,-171.6994 193.9276,-184.414"/>
<polygon fill="#000000" stroke="#000000" points="192.4375,-187.5825 202.9406,-188.9735 195.5974,-181.3363 192.4375,-187.5825"/>
</g>
<!-- GO:0003674 -->
<g id="node3" class="node">
<title>GO:0003674</title>
<polygon fill="#ffffff" stroke="#000000" points="306.347,-307.8019 181.0808,-307.8019 181.0808,-266.5981 306.347,-266.5981 306.347,-307.8019"/>
<text text-anchor="middle" x="243.7139" y="-291.4" font-family="Times,serif" font-size="14.00" fill="#000000">GO:0003674</text>
<text text-anchor="middle" x="243.7139" y="-274.6" font-family="Times,serif" font-size="14.00" fill="#000000">molecular_function</text>
</g>
<!-- GO:0005488&#45;&gt;GO:0003674 -->
<g id="edge2" class="edge">
<title>GO:0005488&#45;&gt;GO:0003674</title>
<path fill="none" stroke="#000000" d="M243.7139,-230.3954C243.7139,-238.3109 243.7139,-247.5109 243.7139,-256.1722"/>
<polygon fill="#000000" stroke="#000000" points="240.214,-256.3472 243.7139,-266.3472 247.214,-256.3473 240.214,-256.3472"/>
</g>
<!-- GO:1901265 -->
<g id="node4" class="node">
<title>GO:1901265</title>
<polygon fill="#ffffff" stroke="#000000" points="396.848,-58.6014 260.5798,-58.6014 260.5798,.2014 396.848,.2014 396.848,-58.6014"/>
<text text-anchor="middle" x="328.7139" y="-41.8" font-family="Times,serif" font-size="14.00" fill="#000000">GO:1901265</text>
<text text-anchor="middle" x="328.7139" y="-25" font-family="Times,serif" font-size="14.00" fill="#000000">nucleoside phosphate</text>
<text text-anchor="middle" x="328.7139" y="-8.2" font-family="Times,serif" font-size="14.00" fill="#000000">binding</text>
</g>
<!-- GO:0097159 -->
<g id="node5" class="node">
<title>GO:0097159</title>
<polygon fill="#ffffff" stroke="#000000" points="322.2253,-153.0014 165.2025,-153.0014 165.2025,-94.1986 322.2253,-94.1986 322.2253,-153.0014"/>
<text text-anchor="middle" x="243.7139" y="-136.2" font-family="Times,serif" font-size="14.00" fill="#000000">GO:0097159</text>
<text text-anchor="middle" x="243.7139" y="-119.4" font-family="Times,serif" font-size="14.00" fill="#000000">organic cyclic compound</text>
<text text-anchor="middle" x="243.7139" y="-102.6" font-family="Times,serif" font-size="14.00" fill="#000000">binding</text>
</g>
<!-- GO:1901265&#45;&gt;GO:0097159 -->
<g id="edge3" class="edge">
<title>GO:1901265&#45;&gt;GO:0097159</title>
<path fill="none" stroke="#000000" d="M302.2853,-58.5513C294.2898,-67.431 285.4044,-77.299 277.0203,-86.6103"/>
<polygon fill="#000000" stroke="#000000" points="274.2166,-84.4935 270.1262,-94.2669 279.4186,-89.1775 274.2166,-84.4935"/>
</g>
<!-- GO:1901363 -->
<g id="node6" class="node">
<title>GO:1901363</title>
<polygon fill="#ffffff" stroke="#000000" points="487.2245,-153.0014 340.2033,-153.0014 340.2033,-94.1986 487.2245,-94.1986 487.2245,-153.0014"/>
<text text-anchor="middle" x="413.7139" y="-136.2" font-family="Times,serif" font-size="14.00" fill="#000000">GO:1901363</text>
<text text-anchor="middle" x="413.7139" y="-119.4" font-family="Times,serif" font-size="14.00" fill="#000000">heterocyclic compound</text>
<text text-anchor="middle" x="413.7139" y="-102.6" font-family="Times,serif" font-size="14.00" fill="#000000">binding</text>
</g>
<!-- GO:1901265&#45;&gt;GO:1901363 -->
<g id="edge4" class="edge">
<title>GO:1901265&#45;&gt;GO:1901363</title>
<path fill="none" stroke="#000000" d="M355.1425,-58.5513C363.138,-67.431 372.0234,-77.299 380.4075,-86.6103"/>
<polygon fill="#000000" stroke="#000000" points="378.0092,-89.1775 387.3016,-94.2669 383.2112,-84.4935 378.0092,-89.1775"/>
</g>
<!-- GO:0097159&#45;&gt;GO:0005488 -->
<g id="edge5" class="edge">
<title>GO:0097159&#45;&gt;GO:0005488</title>
<path fill="none" stroke="#000000" d="M243.7139,-153.1963C243.7139,-161.4638 243.7139,-170.4657 243.7139,-178.8008"/>
<polygon fill="#000000" stroke="#000000" points="240.214,-178.8965 243.7139,-188.8966 247.214,-178.8966 240.214,-178.8965"/>
</g>
<!-- GO:1901363&#45;&gt;GO:0005488 -->
<g id="edge6" class="edge">
<title>GO:1901363&#45;&gt;GO:0005488</title>
<path fill="none" stroke="#000000" d="M355.685,-152.9558C335.5072,-163.1634 313.0672,-174.5154 293.606,-184.3605"/>
<polygon fill="#000000" stroke="#000000" points="291.9479,-181.2768 284.6047,-188.9141 295.1078,-187.5231 291.9479,-181.2768"/>
</g>
</g>
</svg>
