<?xml version="1.0" encoding="UTF-8" standalone="no"?>
<!DOCTYPE svg PUBLIC "-//W3C//DTD SVG 1.1//EN"
 "http://www.w3.org/Graphics/SVG/1.1/DTD/svg11.dtd">
<!-- Generated by graphviz version 2.40.1 (20161225.0304)
 -->
<!-- Title: G Pages: 1 -->
<svg width="563pt" height="549pt"
 viewBox="0.00 0.00 563.23 548.80" xmlns="http://www.w3.org/2000/svg" xmlns:xlink="http://www.w3.org/1999/xlink">
<g id="graph0" class="graph" transform="scale(1 1) rotate(0) translate(4 544.8)">
<title>G</title>
<polygon fill="#ffffff" stroke="transparent" points="-4,4 -4,-544.8 559.2294,-544.8 559.2294,4 -4,4"/>
<!-- GO:0070062 -->
<g id="node1" class="node">
<title>GO:0070062</title>
<polygon fill="#ffffff" stroke="#000000" points="224.4923,-41.4019 85.0499,-41.4019 85.0499,-.1981 224.4923,-.1981 224.4923,-41.4019"/>
<text text-anchor="middle" x="154.7711" y="-25" font-family="Times,serif" font-size="14.00" fill="#000000">GO:0070062</text>
<text text-anchor="middle" x="154.7711" y="-8.2" font-family="Times,serif" font-size="14.00" fill="#000000">extracellular exosome</text>
</g>
<!-- GO:1903561 -->
<g id="node2" class="node">
<title>GO:1903561</title>
<polygon fill="#ffffff" stroke="#000000" points="135.0977,-119.0019 6.4445,-119.0019 6.4445,-77.7981 135.0977,-77.7981 135.0977,-119.0019"/>
<text text-anchor="middle" x="70.7711" y="-102.6" font-family="Times,serif" font-size="14.00" fill="#000000">GO:1903561</text>
<text text-anchor="middle" x="70.7711" y="-85.8" font-family="Times,serif" font-size="14.00" fill="#000000">extracellular vesicle</text>
</g>
<!-- GO:0070062&#45;&gt;GO:1903561 -->
<g id="edge1" class="edge">
<title>GO:0070062&#45;&gt;GO:1903561</title>
<path fill="none" stroke="#000000" d="M132.2606,-41.5954C122.6566,-50.4677 111.3056,-60.9539 100.987,-70.4862"/>
<polygon fill="#000000" stroke="#000000" points="98.3141,-68.1906 93.3437,-77.5472 103.0641,-73.3324 98.3141,-68.1906"/>
</g>
<!-- GO:0031988 -->
<g id="node3" class="node">
<title>GO:0031988</title>
<polygon fill="#ffffff" stroke="#000000" points="323.1018,-119.0019 152.4404,-119.0019 152.4404,-77.7981 323.1018,-77.7981 323.1018,-119.0019"/>
<text text-anchor="middle" x="237.7711" y="-102.6" font-family="Times,serif" font-size="14.00" fill="#000000">GO:0031988</text>
<text text-anchor="middle" x="237.7711" y="-85.8" font-family="Times,serif" font-size="14.00" fill="#000000">membrane&#45;bounded vesicle</text>
</g>
<!-- GO:0070062&#45;&gt;GO:0031988 -->
<g id="edge2" class="edge">
<title>GO:0070062&#45;&gt;GO:0031988</title>
<path fill="none" stroke="#000000" d="M177.0136,-41.5954C186.5033,-50.4677 197.7192,-60.9539 207.9149,-70.4862"/>
<polygon fill="#000000" stroke="#000000" points="205.7722,-73.2744 215.4672,-77.5472 210.5528,-68.1611 205.7722,-73.2744"/>
</g>
<!-- GO:0043230 -->
<g id="node4" class="node">
<title>GO:0043230</title>
<polygon fill="#ffffff" stroke="#000000" points="141.314,-299.4019 .2282,-299.4019 .2282,-258.1981 141.314,-258.1981 141.314,-299.4019"/>
<text text-anchor="middle" x="70.7711" y="-283" font-family="Times,serif" font-size="14.00" fill="#000000">GO:0043230</text>
<text text-anchor="middle" x="70.7711" y="-266.2" font-family="Times,serif" font-size="14.00" fill="#000000">extracellular organelle</text>
</g>
<!-- GO:1903561&#45;&gt;GO:0043230 -->
<g id="edge3" class="edge">
<title>GO:1903561&#45;&gt;GO:0043230</title>
<path fill="none" stroke="#000000" d="M70.7711,-119.0942C70.7711,-150.682 70.7711,-211.1259 70.7711,-247.9168"/>
<polygon fill="#000000" stroke="#000000" points="67.2712,-248.07 70.7711,-258.0701 74.2712,-248.0701 67.2712,-248.07"/>
</g>
<!-- GO:0031982 -->
<g id="node5" class="node">
<title>GO:0031982</title>
<polygon fill="#ffffff" stroke="#000000" points="259.375,-205.0019 170.1672,-205.0019 170.1672,-163.7981 259.375,-163.7981 259.375,-205.0019"/>
<text text-anchor="middle" x="214.7711" y="-188.6" font-family="Times,serif" font-size="14.00" fill="#000000">GO:0031982</text>
<text text-anchor="middle" x="214.7711" y="-171.8" font-family="Times,serif" font-size="14.00" fill="#000000">vesicle</text>
</g>
<!-- GO:1903561&#45;&gt;GO:0031982 -->
<g id="edge4" class="edge">
<title>GO:1903561&#45;&gt;GO:0031982</title>
<path fill="none" stroke="#000000" d="M105.6295,-119.2182C125.4398,-131.0494 150.416,-145.9657 171.4748,-158.5425"/>
<polygon fill="#000000" stroke="#000000" points="169.8537,-161.651 180.2337,-163.7735 173.4429,-155.6411 169.8537,-161.651"/>
</g>
<!-- GO:0031988&#45;&gt;GO:0031982 -->
<g id="edge5" class="edge">
<title>GO:0031988&#45;&gt;GO:0031982</title>
<path fill="none" stroke="#000000" d="M232.2034,-119.2182C229.4066,-129.6761 225.965,-142.5446 222.8807,-154.077"/>
<polygon fill="#000000" stroke="#000000" points="219.49,-153.2087 220.2875,-163.7735 226.2523,-155.0173 219.49,-153.2087"/>
</g>
<!-- GO:0043226 -->
<g id="node6" class="node">
<title>GO:0043226</title>
<polygon fill="#ffffff" stroke="#000000" points="268.375,-385.4019 179.1672,-385.4019 179.1672,-344.1981 268.375,-344.1981 268.375,-385.4019"/>
<text text-anchor="middle" x="223.7711" y="-369" font-family="Times,serif" font-size="14.00" fill="#000000">GO:0043226</text>
<text text-anchor="middle" x="223.7711" y="-352.2" font-family="Times,serif" font-size="14.00" fill="#000000">organelle</text>
</g>
<!-- GO:0043230&#45;&gt;GO:0043226 -->
<g id="edge6" class="edge">
<title>GO:0043230&#45;&gt;GO:0043226</title>
<path fill="none" stroke="#000000" d="M107.8081,-299.6182C128.9506,-311.5022 155.6309,-326.499 178.0682,-339.1108"/>
<polygon fill="#000000" stroke="#000000" points="176.6429,-342.3246 187.0751,-344.1735 180.0728,-336.2225 176.6429,-342.3246"/>
</g>
<!-- GO:0044421 -->
<g id="node7" class="node">
<title>GO:0044421</title>
<polygon fill="#ffffff" stroke="#000000" points="184.2601,-463.0019 33.2821,-463.0019 33.2821,-421.7981 184.2601,-421.7981 184.2601,-463.0019"/>
<text text-anchor="middle" x="108.7711" y="-446.6" font-family="Times,serif" font-size="14.00" fill="#000000">GO:0044421</text>
<text text-anchor="middle" x="108.7711" y="-429.8" font-family="Times,serif" font-size="14.00" fill="#000000">extracellular region part</text>
</g>
<!-- GO:0043230&#45;&gt;GO:0044421 -->
<g id="edge7" class="edge">
<title>GO:0043230&#45;&gt;GO:0044421</title>
<path fill="none" stroke="#000000" d="M75.5838,-299.5201C82.1615,-327.8385 94.0095,-378.8476 101.6256,-411.6367"/>
<polygon fill="#000000" stroke="#000000" points="98.2658,-412.6416 103.9376,-421.5904 105.0842,-411.0578 98.2658,-412.6416"/>
</g>
<!-- GO:0043227 -->
<g id="node8" class="node">
<title>GO:0043227</title>
<polygon fill="#ffffff" stroke="#000000" points="287.7319,-308.2014 159.8103,-308.2014 159.8103,-249.3986 287.7319,-249.3986 287.7319,-308.2014"/>
<text text-anchor="middle" x="223.7711" y="-291.4" font-family="Times,serif" font-size="14.00" fill="#000000">GO:0043227</text>
<text text-anchor="middle" x="223.7711" y="-274.6" font-family="Times,serif" font-size="14.00" fill="#000000">membrane&#45;bounded</text>
<text text-anchor="middle" x="223.7711" y="-257.8" font-family="Times,serif" font-size="14.00" fill="#000000">organelle</text>
</g>
<!-- GO:0031982&#45;&gt;GO:0043227 -->
<g id="edge8" class="edge">
<title>GO:0031982&#45;&gt;GO:0043227</title>
<path fill="none" stroke="#000000" d="M216.7685,-205.3504C217.7218,-215.3492 218.8947,-227.6525 220.0062,-239.3106"/>
<polygon fill="#000000" stroke="#000000" points="216.5267,-239.6929 220.9601,-249.3155 223.4951,-239.0284 216.5267,-239.6929"/>
</g>
<!-- GO:0005575 -->
<g id="node9" class="node">
<title>GO:0005575</title>
<polygon fill="#ffffff" stroke="#000000" points="287.4578,-540.6019 160.0844,-540.6019 160.0844,-499.3981 287.4578,-499.3981 287.4578,-540.6019"/>
<text text-anchor="middle" x="223.7711" y="-524.2" font-family="Times,serif" font-size="14.00" fill="#000000">GO:0005575</text>
<text text-anchor="middle" x="223.7711" y="-507.4" font-family="Times,serif" font-size="14.00" fill="#000000">cellular_component</text>
</g>
<!-- GO:0043226&#45;&gt;GO:0005575 -->
<g id="edge9" class="edge">
<title>GO:0043226&#45;&gt;GO:0005575</title>
<path fill="none" stroke="#000000" d="M223.7711,-385.4094C223.7711,-411.9627 223.7711,-458.3577 223.7711,-489.1304"/>
<polygon fill="#000000" stroke="#000000" points="220.2712,-489.3054 223.7711,-499.3054 227.2712,-489.3054 220.2712,-489.3054"/>
</g>
<!-- GO:0044421&#45;&gt;GO:0005575 -->
<g id="edge10" class="edge">
<title>GO:0044421&#45;&gt;GO:0005575</title>
<path fill="none" stroke="#000000" d="M139.589,-463.1954C153.3819,-472.5026 169.8068,-483.5858 184.4708,-493.4809"/>
<polygon fill="#000000" stroke="#000000" points="182.6211,-496.455 192.8681,-499.1472 186.5365,-490.6524 182.6211,-496.455"/>
</g>
<!-- GO:0043227&#45;&gt;GO:0043226 -->
<g id="edge11" class="edge">
<title>GO:0043227&#45;&gt;GO:0043226</title>
<path fill="none" stroke="#000000" d="M223.7711,-308.3963C223.7711,-316.6638 223.7711,-325.6657 223.7711,-334.0008"/>
<polygon fill="#000000" stroke="#000000" points="220.2712,-334.0965 223.7711,-344.0966 227.2712,-334.0966 220.2712,-334.0965"/>
</g>
<!-- GO:0009507 -->
<g id="node10" class="node">
<title>GO:0009507</title>
<polygon fill="#ffffff" stroke="#000000" points="474.375,-41.4019 385.1672,-41.4019 385.1672,-.1981 474.375,-.1981 474.375,-41.4019"/>
<text text-anchor="middle" x="429.7711" y="-25" font-family="Times,serif" font-size="14.00" fill="#000000">GO:0009507</text>
<text text-anchor="middle" x="429.7711" y="-8.2" font-family="Times,serif" font-size="14.00" fill="#000000">chloroplast</text>
</g>
<!-- GO:0009536 -->
<g id="node11" class="node">
<title>GO:0009536</title>
<polygon fill="#ffffff" stroke="#000000" points="474.375,-119.0019 385.1672,-119.0019 385.1672,-77.7981 474.375,-77.7981 474.375,-119.0019"/>
<text text-anchor="middle" x="429.7711" y="-102.6" font-family="Times,serif" font-size="14.00" fill="#000000">GO:0009536</text>
<text text-anchor="middle" x="429.7711" y="-85.8" font-family="Times,serif" font-size="14.00" fill="#000000">plastid</text>
</g>
<!-- GO:0009507&#45;&gt;GO:0009536 -->
<g id="edge12" class="edge">
<title>GO:0009507&#45;&gt;GO:0009536</title>
<path fill="none" stroke="#000000" d="M429.7711,-41.5954C429.7711,-49.5109 429.7711,-58.7109 429.7711,-67.3722"/>
<polygon fill="#000000" stroke="#000000" points="426.2712,-67.5472 429.7711,-77.5472 433.2712,-67.5473 426.2712,-67.5472"/>
</g>
<!-- GO:0044444 -->
<g id="node12" class="node">
<title>GO:0044444</title>
<polygon fill="#ffffff" stroke="#000000" points="555.1877,-205.0019 446.3545,-205.0019 446.3545,-163.7981 555.1877,-163.7981 555.1877,-205.0019"/>
<text text-anchor="middle" x="500.7711" y="-188.6" font-family="Times,serif" font-size="14.00" fill="#000000">GO:0044444</text>
<text text-anchor="middle" x="500.7711" y="-171.8" font-family="Times,serif" font-size="14.00" fill="#000000">cytoplasmic part</text>
</g>
<!-- GO:0009536&#45;&gt;GO:0044444 -->
<g id="edge13" class="edge">
<title>GO:0009536&#45;&gt;GO:0044444</title>
<path fill="none" stroke="#000000" d="M446.9582,-119.2182C456.0281,-130.2043 467.2942,-143.8506 477.1707,-155.8137"/>
<polygon fill="#000000" stroke="#000000" points="474.6767,-158.2902 483.7423,-163.7735 480.0748,-153.8337 474.6767,-158.2902"/>
</g>
<!-- GO:0043231 -->
<g id="node13" class="node">
<title>GO:0043231</title>
<polygon fill="#ffffff" stroke="#000000" points="428.1499,-213.8014 277.3923,-213.8014 277.3923,-154.9986 428.1499,-154.9986 428.1499,-213.8014"/>
<text text-anchor="middle" x="352.7711" y="-197" font-family="Times,serif" font-size="14.00" fill="#000000">GO:0043231</text>
<text text-anchor="middle" x="352.7711" y="-180.2" font-family="Times,serif" font-size="14.00" fill="#000000">intracellular membrane&#45;</text>
<text text-anchor="middle" x="352.7711" y="-163.4" font-family="Times,serif" font-size="14.00" fill="#000000">bounded organelle</text>
</g>
<!-- GO:0009536&#45;&gt;GO:0043231 -->
<g id="edge14" class="edge">
<title>GO:0009536&#45;&gt;GO:0043231</title>
<path fill="none" stroke="#000000" d="M411.1315,-119.2182C403.5456,-127.6908 394.5431,-137.7456 385.9077,-147.3903"/>
<polygon fill="#000000" stroke="#000000" points="383.1581,-145.2143 379.0951,-154.9991 388.3732,-149.8837 383.1581,-145.2143"/>
</g>
<!-- GO:0044424 -->
<g id="node14" class="node">
<title>GO:0044424</title>
<polygon fill="#ffffff" stroke="#000000" points="430.1695,-385.4019 321.3727,-385.4019 321.3727,-344.1981 430.1695,-344.1981 430.1695,-385.4019"/>
<text text-anchor="middle" x="375.7711" y="-369" font-family="Times,serif" font-size="14.00" fill="#000000">GO:0044424</text>
<text text-anchor="middle" x="375.7711" y="-352.2" font-family="Times,serif" font-size="14.00" fill="#000000">intracellular part</text>
</g>
<!-- GO:0044444&#45;&gt;GO:0044424 -->
<g id="edge15" class="edge">
<title>GO:0044444&#45;&gt;GO:0044424</title>
<path fill="none" stroke="#000000" d="M496.9784,-205.0228C491.3606,-231.136 478.8015,-276.5114 454.7711,-308 445.9474,-319.5623 434.1226,-329.7722 422.3135,-338.2316"/>
<polygon fill="#000000" stroke="#000000" points="420.0423,-335.5444 413.7607,-344.0762 423.9918,-341.3239 420.0423,-335.5444"/>
</g>
<!-- GO:0043231&#45;&gt;GO:0043227 -->
<g id="edge17" class="edge">
<title>GO:0043231&#45;&gt;GO:0043227</title>
<path fill="none" stroke="#000000" d="M312.6618,-213.7513C299.7995,-223.1637 285.4195,-233.6867 272.0368,-243.48"/>
<polygon fill="#000000" stroke="#000000" points="269.8587,-240.7368 263.8556,-249.4669 273.9925,-246.3858 269.8587,-240.7368"/>
</g>
<!-- GO:0043229 -->
<g id="node15" class="node">
<title>GO:0043229</title>
<polygon fill="#ffffff" stroke="#000000" points="445.4895,-299.4019 306.0527,-299.4019 306.0527,-258.1981 445.4895,-258.1981 445.4895,-299.4019"/>
<text text-anchor="middle" x="375.7711" y="-283" font-family="Times,serif" font-size="14.00" fill="#000000">GO:0043229</text>
<text text-anchor="middle" x="375.7711" y="-266.2" font-family="Times,serif" font-size="14.00" fill="#000000">intracellular organelle</text>
</g>
<!-- GO:0043231&#45;&gt;GO:0043229 -->
<g id="edge16" class="edge">
<title>GO:0043231&#45;&gt;GO:0043229</title>
<path fill="none" stroke="#000000" d="M359.9224,-213.7513C362.608,-224.7739 365.6646,-237.3196 368.3723,-248.4326"/>
<polygon fill="#000000" stroke="#000000" points="364.9723,-249.2637 370.7401,-258.151 371.7733,-247.6067 364.9723,-249.2637"/>
</g>
<!-- GO:0044464 -->
<g id="node16" class="node">
<title>GO:0044464</title>
<polygon fill="#ffffff" stroke="#000000" points="380.375,-463.0019 291.1672,-463.0019 291.1672,-421.7981 380.375,-421.7981 380.375,-463.0019"/>
<text text-anchor="middle" x="335.7711" y="-446.6" font-family="Times,serif" font-size="14.00" fill="#000000">GO:0044464</text>
<text text-anchor="middle" x="335.7711" y="-429.8" font-family="Times,serif" font-size="14.00" fill="#000000">cell part</text>
</g>
<!-- GO:0044424&#45;&gt;GO:0044464 -->
<g id="edge18" class="edge">
<title>GO:0044424&#45;&gt;GO:0044464</title>
<path fill="none" stroke="#000000" d="M365.0518,-385.5954C360.7923,-393.8588 355.8112,-403.5222 351.1778,-412.511"/>
<polygon fill="#000000" stroke="#000000" points="347.9907,-411.055 346.52,-421.5472 354.2128,-414.2622 347.9907,-411.055"/>
</g>
<!-- GO:0043229&#45;&gt;GO:0043226 -->
<g id="edge20" class="edge">
<title>GO:0043229&#45;&gt;GO:0043226</title>
<path fill="none" stroke="#000000" d="M338.9761,-299.6182C317.9719,-311.5022 291.466,-326.499 269.1752,-339.1108"/>
<polygon fill="#000000" stroke="#000000" points="267.2072,-336.2029 260.2272,-344.1735 270.6543,-342.2953 267.2072,-336.2029"/>
</g>
<!-- GO:0043229&#45;&gt;GO:0044424 -->
<g id="edge19" class="edge">
<title>GO:0043229&#45;&gt;GO:0044424</title>
<path fill="none" stroke="#000000" d="M375.7711,-299.6182C375.7711,-309.9705 375.7711,-322.6848 375.7711,-334.1271"/>
<polygon fill="#000000" stroke="#000000" points="372.2712,-334.1735 375.7711,-344.1735 379.2712,-334.1735 372.2712,-334.1735"/>
</g>
<!-- GO:0044464&#45;&gt;GO:0005575 -->
<g id="edge21" class="edge">
<title>GO:0044464&#45;&gt;GO:0005575</title>
<path fill="none" stroke="#000000" d="M305.7572,-463.1954C292.4496,-472.4156 276.6264,-483.3788 262.447,-493.2031"/>
<polygon fill="#000000" stroke="#000000" points="260.0944,-490.5751 253.8679,-499.1472 264.081,-496.329 260.0944,-490.5751"/>
</g>
</g>
</svg>
