<?xml version="1.0" encoding="UTF-8" standalone="no"?>
<!DOCTYPE svg PUBLIC "-//W3C//DTD SVG 1.1//EN"
 "http://www.w3.org/Graphics/SVG/1.1/DTD/svg11.dtd">
<!-- Generated by graphviz version 2.40.1 (20161225.0304)
 -->
<!-- Title: G Pages: 1 -->
<svg width="310pt" height="316pt"
 viewBox="0.00 0.00 309.95 316.00" xmlns="http://www.w3.org/2000/svg" xmlns:xlink="http://www.w3.org/1999/xlink">
<g id="graph0" class="graph" transform="scale(1 1) rotate(0) translate(4 312)">
<title>G</title>
<polygon fill="#ffffff" stroke="transparent" points="-4,4 -4,-312 305.9489,-312 305.9489,4 -4,4"/>
<!-- GO:0030246 -->
<g id="node1" class="node">
<title>GO:0030246</title>
<polygon fill="#ffffff" stroke="#000000" points="135.5276,-144.2019 -.1762,-144.2019 -.1762,-102.9981 135.5276,-102.9981 135.5276,-144.2019"/>
<text text-anchor="middle" x="67.6757" y="-127.8" font-family="Times,serif" font-size="14.00" fill="#000000">GO:0030246</text>
<text text-anchor="middle" x="67.6757" y="-111" font-family="Times,serif" font-size="14.00" fill="#000000">carbohydrate binding</text>
</g>
<!-- GO:0005488 -->
<g id="node2" class="node">
<title>GO:0005488</title>
<polygon fill="#ffffff" stroke="#000000" points="192.2796,-230.2019 103.0718,-230.2019 103.0718,-188.9981 192.2796,-188.9981 192.2796,-230.2019"/>
<text text-anchor="middle" x="147.6757" y="-213.8" font-family="Times,serif" font-size="14.00" fill="#000000">GO:0005488</text>
<text text-anchor="middle" x="147.6757" y="-197" font-family="Times,serif" font-size="14.00" fill="#000000">binding</text>
</g>
<!-- GO:0030246&#45;&gt;GO:0005488 -->
<g id="edge1" class="edge">
<title>GO:0030246&#45;&gt;GO:0005488</title>
<path fill="none" stroke="#000000" d="M87.0415,-144.4182C97.3594,-155.5099 110.1996,-169.3132 121.4043,-181.3583"/>
<polygon fill="#000000" stroke="#000000" points="119.1145,-184.0355 128.4883,-188.9735 124.2399,-179.2677 119.1145,-184.0355"/>
</g>
<!-- GO:0003674 -->
<g id="node3" class="node">
<title>GO:0003674</title>
<polygon fill="#ffffff" stroke="#000000" points="210.3088,-307.8019 85.0426,-307.8019 85.0426,-266.5981 210.3088,-266.5981 210.3088,-307.8019"/>
<text text-anchor="middle" x="147.6757" y="-291.4" font-family="Times,serif" font-size="14.00" fill="#000000">GO:0003674</text>
<text text-anchor="middle" x="147.6757" y="-274.6" font-family="Times,serif" font-size="14.00" fill="#000000">molecular_function</text>
</g>
<!-- GO:0005488&#45;&gt;GO:0003674 -->
<g id="edge2" class="edge">
<title>GO:0005488&#45;&gt;GO:0003674</title>
<path fill="none" stroke="#000000" d="M147.6757,-230.3954C147.6757,-238.3109 147.6757,-247.5109 147.6757,-256.1722"/>
<polygon fill="#000000" stroke="#000000" points="144.1758,-256.3472 147.6757,-266.3472 151.1758,-256.3473 144.1758,-256.3472"/>
</g>
<!-- GO:0070095 -->
<g id="node4" class="node">
<title>GO:0070095</title>
<polygon fill="#ffffff" stroke="#000000" points="294.847,-58.6014 160.5044,-58.6014 160.5044,.2014 294.847,.2014 294.847,-58.6014"/>
<text text-anchor="middle" x="227.6757" y="-41.8" font-family="Times,serif" font-size="14.00" fill="#000000">GO:0070095</text>
<text text-anchor="middle" x="227.6757" y="-25" font-family="Times,serif" font-size="14.00" fill="#000000">fructose&#45;6&#45;phosphate</text>
<text text-anchor="middle" x="227.6757" y="-8.2" font-family="Times,serif" font-size="14.00" fill="#000000">binding</text>
</g>
<!-- GO:0097367 -->
<g id="node5" class="node">
<title>GO:0097367</title>
<polygon fill="#ffffff" stroke="#000000" points="301.7228,-153.0014 153.6286,-153.0014 153.6286,-94.1986 301.7228,-94.1986 301.7228,-153.0014"/>
<text text-anchor="middle" x="227.6757" y="-136.2" font-family="Times,serif" font-size="14.00" fill="#000000">GO:0097367</text>
<text text-anchor="middle" x="227.6757" y="-119.4" font-family="Times,serif" font-size="14.00" fill="#000000">carbohydrate derivative</text>
<text text-anchor="middle" x="227.6757" y="-102.6" font-family="Times,serif" font-size="14.00" fill="#000000">binding</text>
</g>
<!-- GO:0070095&#45;&gt;GO:0097367 -->
<g id="edge3" class="edge">
<title>GO:0070095&#45;&gt;GO:0097367</title>
<path fill="none" stroke="#000000" d="M227.6757,-58.5513C227.6757,-66.6318 227.6757,-75.5308 227.6757,-84.0838"/>
<polygon fill="#000000" stroke="#000000" points="224.1758,-84.2668 227.6757,-94.2669 231.1758,-84.2669 224.1758,-84.2668"/>
</g>
<!-- GO:0097367&#45;&gt;GO:0005488 -->
<g id="edge4" class="edge">
<title>GO:0097367&#45;&gt;GO:0005488</title>
<path fill="none" stroke="#000000" d="M200.1442,-153.1963C191.5991,-162.3824 182.2104,-172.4752 173.7663,-181.5526"/>
<polygon fill="#000000" stroke="#000000" points="171.1831,-179.1908 166.9347,-188.8966 176.3085,-183.9585 171.1831,-179.1908"/>
</g>
</g>
</svg>
