<?xml version="1.0" encoding="UTF-8" standalone="no"?>
<!DOCTYPE svg PUBLIC "-//W3C//DTD SVG 1.1//EN"
 "http://www.w3.org/Graphics/SVG/1.1/DTD/svg11.dtd">
<!-- Generated by graphviz version 2.40.1 (20161225.0304)
 -->
<!-- Title: G Pages: 1 -->
<svg width="528pt" height="505pt"
 viewBox="0.00 0.00 527.72 504.80" xmlns="http://www.w3.org/2000/svg" xmlns:xlink="http://www.w3.org/1999/xlink">
<g id="graph0" class="graph" transform="scale(1 1) rotate(0) translate(4 500.8)">
<title>G</title>
<polygon fill="#ffffff" stroke="transparent" points="-4,4 -4,-500.8 523.7192,-500.8 523.7192,4 -4,4"/>
<!-- GO:0019430 -->
<g id="node1" class="node">
<title>GO:0019430</title>
<polygon fill="#ffffff" stroke="#000000" points="235.8353,-58.6014 93.9221,-58.6014 93.9221,.2014 235.8353,.2014 235.8353,-58.6014"/>
<text text-anchor="middle" x="164.8787" y="-41.8" font-family="Times,serif" font-size="14.00" fill="#000000">GO:0019430</text>
<text text-anchor="middle" x="164.8787" y="-25" font-family="Times,serif" font-size="14.00" fill="#000000">removal of superoxide</text>
<text text-anchor="middle" x="164.8787" y="-8.2" font-family="Times,serif" font-size="14.00" fill="#000000">radicals</text>
</g>
<!-- GO:0098869 -->
<g id="node2" class="node">
<title>GO:0098869</title>
<polygon fill="#ffffff" stroke="#000000" points="147.8518,-153.0014 43.9056,-153.0014 43.9056,-94.1986 147.8518,-94.1986 147.8518,-153.0014"/>
<text text-anchor="middle" x="95.8787" y="-136.2" font-family="Times,serif" font-size="14.00" fill="#000000">GO:0098869</text>
<text text-anchor="middle" x="95.8787" y="-119.4" font-family="Times,serif" font-size="14.00" fill="#000000">cellular oxidant</text>
<text text-anchor="middle" x="95.8787" y="-102.6" font-family="Times,serif" font-size="14.00" fill="#000000">detoxification</text>
</g>
<!-- GO:0019430&#45;&gt;GO:0098869 -->
<g id="edge1" class="edge">
<title>GO:0019430&#45;&gt;GO:0098869</title>
<path fill="none" stroke="#000000" d="M143.4249,-58.5513C137.0643,-67.2534 130.0098,-76.9047 123.3245,-86.0509"/>
<polygon fill="#000000" stroke="#000000" points="120.3946,-84.1282 117.3192,-94.2669 126.046,-88.2589 120.3946,-84.1282"/>
</g>
<!-- GO:0006801 -->
<g id="node3" class="node">
<title>GO:0006801</title>
<polygon fill="#ffffff" stroke="#000000" points="303.01,-153.0014 166.7474,-153.0014 166.7474,-94.1986 303.01,-94.1986 303.01,-153.0014"/>
<text text-anchor="middle" x="234.8787" y="-136.2" font-family="Times,serif" font-size="14.00" fill="#000000">GO:0006801</text>
<text text-anchor="middle" x="234.8787" y="-119.4" font-family="Times,serif" font-size="14.00" fill="#000000">superoxide metabolic</text>
<text text-anchor="middle" x="234.8787" y="-102.6" font-family="Times,serif" font-size="14.00" fill="#000000">process</text>
</g>
<!-- GO:0019430&#45;&gt;GO:0006801 -->
<g id="edge2" class="edge">
<title>GO:0019430&#45;&gt;GO:0006801</title>
<path fill="none" stroke="#000000" d="M186.6434,-58.5513C193.0962,-67.2534 200.2529,-76.9047 207.0351,-86.0509"/>
<polygon fill="#000000" stroke="#000000" points="204.3596,-88.319 213.1274,-94.2669 209.9825,-84.1496 204.3596,-88.319"/>
</g>
<!-- GO:1990748 -->
<g id="node4" class="node">
<title>GO:1990748</title>
<polygon fill="#ffffff" stroke="#000000" points="162.6125,-333.0019 23.1449,-333.0019 23.1449,-291.7981 162.6125,-291.7981 162.6125,-333.0019"/>
<text text-anchor="middle" x="92.8787" y="-316.6" font-family="Times,serif" font-size="14.00" fill="#000000">GO:1990748</text>
<text text-anchor="middle" x="92.8787" y="-299.8" font-family="Times,serif" font-size="14.00" fill="#000000">cellular detoxification</text>
</g>
<!-- GO:0098869&#45;&gt;GO:1990748 -->
<g id="edge3" class="edge">
<title>GO:0098869&#45;&gt;GO:1990748</title>
<path fill="none" stroke="#000000" d="M95.4099,-153.1C94.8559,-187.9696 93.938,-245.7372 93.373,-281.2929"/>
<polygon fill="#000000" stroke="#000000" points="89.8692,-281.5101 93.2098,-291.5645 96.8683,-281.6214 89.8692,-281.5101"/>
</g>
<!-- GO:0072593 -->
<g id="node5" class="node">
<title>GO:0072593</title>
<polygon fill="#ffffff" stroke="#000000" points="309.3171,-247.4014 160.4403,-247.4014 160.4403,-188.5986 309.3171,-188.5986 309.3171,-247.4014"/>
<text text-anchor="middle" x="234.8787" y="-230.6" font-family="Times,serif" font-size="14.00" fill="#000000">GO:0072593</text>
<text text-anchor="middle" x="234.8787" y="-213.8" font-family="Times,serif" font-size="14.00" fill="#000000">reactive oxygen species</text>
<text text-anchor="middle" x="234.8787" y="-197" font-family="Times,serif" font-size="14.00" fill="#000000">metabolic process</text>
</g>
<!-- GO:0006801&#45;&gt;GO:0072593 -->
<g id="edge4" class="edge">
<title>GO:0006801&#45;&gt;GO:0072593</title>
<path fill="none" stroke="#000000" d="M234.8787,-152.9513C234.8787,-161.0318 234.8787,-169.9308 234.8787,-178.4838"/>
<polygon fill="#000000" stroke="#000000" points="231.3788,-178.6668 234.8787,-188.6669 238.3788,-178.6669 231.3788,-178.6668"/>
</g>
<!-- GO:0009987 -->
<g id="node6" class="node">
<title>GO:0009987</title>
<polygon fill="#ffffff" stroke="#000000" points="215.8349,-419.0019 111.9225,-419.0019 111.9225,-377.7981 215.8349,-377.7981 215.8349,-419.0019"/>
<text text-anchor="middle" x="163.8787" y="-402.6" font-family="Times,serif" font-size="14.00" fill="#000000">GO:0009987</text>
<text text-anchor="middle" x="163.8787" y="-385.8" font-family="Times,serif" font-size="14.00" fill="#000000">cellular process</text>
</g>
<!-- GO:1990748&#45;&gt;GO:0009987 -->
<g id="edge5" class="edge">
<title>GO:1990748&#45;&gt;GO:0009987</title>
<path fill="none" stroke="#000000" d="M110.0658,-333.2182C119.1357,-344.2043 130.4018,-357.8506 140.2783,-369.8137"/>
<polygon fill="#000000" stroke="#000000" points="137.7843,-372.2902 146.8499,-377.7735 143.1824,-367.8337 137.7843,-372.2902"/>
</g>
<!-- GO:0098754 -->
<g id="node7" class="node">
<title>GO:0098754</title>
<polygon fill="#ffffff" stroke="#000000" points="93.6364,-419.0019 .121,-419.0019 .121,-377.7981 93.6364,-377.7981 93.6364,-419.0019"/>
<text text-anchor="middle" x="46.8787" y="-402.6" font-family="Times,serif" font-size="14.00" fill="#000000">GO:0098754</text>
<text text-anchor="middle" x="46.8787" y="-385.8" font-family="Times,serif" font-size="14.00" fill="#000000">detoxification</text>
</g>
<!-- GO:1990748&#45;&gt;GO:0098754 -->
<g id="edge6" class="edge">
<title>GO:1990748&#45;&gt;GO:0098754</title>
<path fill="none" stroke="#000000" d="M81.7434,-333.2182C76.0366,-343.8874 68.9879,-357.0655 62.725,-368.7743"/>
<polygon fill="#000000" stroke="#000000" points="59.5418,-367.3049 57.9115,-377.7735 65.7143,-370.6065 59.5418,-367.3049"/>
</g>
<!-- GO:0044237 -->
<g id="node8" class="node">
<title>GO:0044237</title>
<polygon fill="#ffffff" stroke="#000000" points="297.0615,-341.8014 180.6959,-341.8014 180.6959,-282.9986 297.0615,-282.9986 297.0615,-341.8014"/>
<text text-anchor="middle" x="238.8787" y="-325" font-family="Times,serif" font-size="14.00" fill="#000000">GO:0044237</text>
<text text-anchor="middle" x="238.8787" y="-308.2" font-family="Times,serif" font-size="14.00" fill="#000000">cellular metabolic</text>
<text text-anchor="middle" x="238.8787" y="-291.4" font-family="Times,serif" font-size="14.00" fill="#000000">process</text>
</g>
<!-- GO:0072593&#45;&gt;GO:0044237 -->
<g id="edge7" class="edge">
<title>GO:0072593&#45;&gt;GO:0044237</title>
<path fill="none" stroke="#000000" d="M236.1224,-247.3513C236.4648,-255.4318 236.8419,-264.3308 237.2043,-272.8838"/>
<polygon fill="#000000" stroke="#000000" points="233.7155,-273.224 237.6358,-283.0669 240.7092,-272.9276 233.7155,-273.224"/>
</g>
<!-- GO:0008150 -->
<g id="node9" class="node">
<title>GO:0008150</title>
<polygon fill="#ffffff" stroke="#000000" points="288.3493,-496.6019 167.4081,-496.6019 167.4081,-455.3981 288.3493,-455.3981 288.3493,-496.6019"/>
<text text-anchor="middle" x="227.8787" y="-480.2" font-family="Times,serif" font-size="14.00" fill="#000000">GO:0008150</text>
<text text-anchor="middle" x="227.8787" y="-463.4" font-family="Times,serif" font-size="14.00" fill="#000000">biological_process</text>
</g>
<!-- GO:0009987&#45;&gt;GO:0008150 -->
<g id="edge8" class="edge">
<title>GO:0009987&#45;&gt;GO:0008150</title>
<path fill="none" stroke="#000000" d="M181.0295,-419.1954C188.1317,-427.8067 196.4877,-437.9384 204.1614,-447.2427"/>
<polygon fill="#000000" stroke="#000000" points="201.6177,-449.6594 210.6805,-455.1472 207.018,-445.2056 201.6177,-449.6594"/>
</g>
<!-- GO:0098754&#45;&gt;GO:0008150 -->
<g id="edge9" class="edge">
<title>GO:0098754&#45;&gt;GO:0008150</title>
<path fill="none" stroke="#000000" d="M93.9618,-418.5859C117.3674,-428.6206 145.8507,-440.8322 170.5213,-451.4092"/>
<polygon fill="#000000" stroke="#000000" points="169.2013,-454.6513 179.7714,-455.375 171.9596,-448.2177 169.2013,-454.6513"/>
</g>
<!-- GO:0044237&#45;&gt;GO:0009987 -->
<g id="edge10" class="edge">
<title>GO:0044237&#45;&gt;GO:0009987</title>
<path fill="none" stroke="#000000" d="M213.068,-341.9963C205.137,-351.0905 196.4309,-361.0734 188.5764,-370.08"/>
<polygon fill="#000000" stroke="#000000" points="185.8689,-367.8595 181.934,-377.6966 191.1445,-372.4603 185.8689,-367.8595"/>
</g>
<!-- GO:0008152 -->
<g id="node10" class="node">
<title>GO:0008152</title>
<polygon fill="#ffffff" stroke="#000000" points="350.0643,-419.0019 233.6931,-419.0019 233.6931,-377.7981 350.0643,-377.7981 350.0643,-419.0019"/>
<text text-anchor="middle" x="291.8787" y="-402.6" font-family="Times,serif" font-size="14.00" fill="#000000">GO:0008152</text>
<text text-anchor="middle" x="291.8787" y="-385.8" font-family="Times,serif" font-size="14.00" fill="#000000">metabolic process</text>
</g>
<!-- GO:0044237&#45;&gt;GO:0008152 -->
<g id="edge11" class="edge">
<title>GO:0044237&#45;&gt;GO:0008152</title>
<path fill="none" stroke="#000000" d="M257.1183,-341.9963C262.4964,-350.7231 268.3789,-360.2682 273.75,-368.9836"/>
<polygon fill="#000000" stroke="#000000" points="270.8934,-371.0196 279.1196,-377.6966 276.8527,-367.3471 270.8934,-371.0196"/>
</g>
<!-- GO:0008152&#45;&gt;GO:0008150 -->
<g id="edge15" class="edge">
<title>GO:0008152&#45;&gt;GO:0008150</title>
<path fill="none" stroke="#000000" d="M274.7279,-419.1954C267.6257,-427.8067 259.2697,-437.9384 251.596,-447.2427"/>
<polygon fill="#000000" stroke="#000000" points="248.7394,-445.2056 245.0769,-455.1472 254.1397,-449.6594 248.7394,-445.2056"/>
</g>
<!-- GO:0055114 -->
<g id="node11" class="node">
<title>GO:0055114</title>
<polygon fill="#ffffff" stroke="#000000" points="484.2974,-247.4014 357.46,-247.4014 357.46,-188.5986 484.2974,-188.5986 484.2974,-247.4014"/>
<text text-anchor="middle" x="420.8787" y="-230.6" font-family="Times,serif" font-size="14.00" fill="#000000">GO:0055114</text>
<text text-anchor="middle" x="420.8787" y="-213.8" font-family="Times,serif" font-size="14.00" fill="#000000">oxidation&#45;reduction</text>
<text text-anchor="middle" x="420.8787" y="-197" font-family="Times,serif" font-size="14.00" fill="#000000">process</text>
</g>
<!-- GO:0044710 -->
<g id="node12" class="node">
<title>GO:0044710</title>
<polygon fill="#ffffff" stroke="#000000" points="503.2869,-341.8014 338.4705,-341.8014 338.4705,-282.9986 503.2869,-282.9986 503.2869,-341.8014"/>
<text text-anchor="middle" x="420.8787" y="-325" font-family="Times,serif" font-size="14.00" fill="#000000">GO:0044710</text>
<text text-anchor="middle" x="420.8787" y="-308.2" font-family="Times,serif" font-size="14.00" fill="#000000">single&#45;organism metabolic</text>
<text text-anchor="middle" x="420.8787" y="-291.4" font-family="Times,serif" font-size="14.00" fill="#000000">process</text>
</g>
<!-- GO:0055114&#45;&gt;GO:0044710 -->
<g id="edge12" class="edge">
<title>GO:0055114&#45;&gt;GO:0044710</title>
<path fill="none" stroke="#000000" d="M420.8787,-247.3513C420.8787,-255.4318 420.8787,-264.3308 420.8787,-272.8838"/>
<polygon fill="#000000" stroke="#000000" points="417.3788,-273.0668 420.8787,-283.0669 424.3788,-273.0669 417.3788,-273.0668"/>
</g>
<!-- GO:0044710&#45;&gt;GO:0008152 -->
<g id="edge13" class="edge">
<title>GO:0044710&#45;&gt;GO:0008152</title>
<path fill="none" stroke="#000000" d="M376.845,-341.7558C362.2176,-351.5074 346.0235,-362.3035 331.7302,-371.8323"/>
<polygon fill="#000000" stroke="#000000" points="329.4863,-369.1217 323.1073,-377.5809 333.3693,-374.9461 329.4863,-369.1217"/>
</g>
<!-- GO:0044699 -->
<g id="node13" class="node">
<title>GO:0044699</title>
<polygon fill="#ffffff" stroke="#000000" points="519.56,-419.0019 368.1974,-419.0019 368.1974,-377.7981 519.56,-377.7981 519.56,-419.0019"/>
<text text-anchor="middle" x="443.8787" y="-402.6" font-family="Times,serif" font-size="14.00" fill="#000000">GO:0044699</text>
<text text-anchor="middle" x="443.8787" y="-385.8" font-family="Times,serif" font-size="14.00" fill="#000000">single&#45;organism process</text>
</g>
<!-- GO:0044710&#45;&gt;GO:0044699 -->
<g id="edge14" class="edge">
<title>GO:0044710&#45;&gt;GO:0044699</title>
<path fill="none" stroke="#000000" d="M428.794,-341.9963C431.0296,-350.3556 433.4661,-359.4658 435.716,-367.8784"/>
<polygon fill="#000000" stroke="#000000" points="432.3769,-368.9404 438.3417,-377.6966 439.1392,-367.1318 432.3769,-368.9404"/>
</g>
<!-- GO:0044699&#45;&gt;GO:0008150 -->
<g id="edge16" class="edge">
<title>GO:0044699&#45;&gt;GO:0008150</title>
<path fill="none" stroke="#000000" d="M386.2784,-419.0934C358.208,-429.178 324.2821,-441.3662 295.0404,-451.8715"/>
<polygon fill="#000000" stroke="#000000" points="293.5462,-448.6893 285.3185,-455.3642 295.9129,-455.277 293.5462,-448.6893"/>
</g>
</g>
</svg>
