<?xml version="1.0" encoding="UTF-8" standalone="no"?>
<!DOCTYPE svg PUBLIC "-//W3C//DTD SVG 1.1//EN"
 "http://www.w3.org/Graphics/SVG/1.1/DTD/svg11.dtd">
<!-- Generated by graphviz version 2.40.1 (20161225.0304)
 -->
<!-- Title: G Pages: 1 -->
<svg width="344pt" height="316pt"
 viewBox="0.00 0.00 343.86 316.00" xmlns="http://www.w3.org/2000/svg" xmlns:xlink="http://www.w3.org/1999/xlink">
<g id="graph0" class="graph" transform="scale(1 1) rotate(0) translate(4 312)">
<title>G</title>
<polygon fill="#ffffff" stroke="transparent" points="-4,4 -4,-312 339.8609,-312 339.8609,4 -4,4"/>
<!-- GO:0015238 -->
<g id="node1" class="node">
<title>GO:0015238</title>
<polygon fill="#ffffff" stroke="#000000" points="237.1738,-58.6014 105.259,-58.6014 105.259,.2014 237.1738,.2014 237.1738,-58.6014"/>
<text text-anchor="middle" x="171.2164" y="-41.8" font-family="Times,serif" font-size="14.00" fill="#000000">GO:0015238</text>
<text text-anchor="middle" x="171.2164" y="-25" font-family="Times,serif" font-size="14.00" fill="#000000">drug transmembrane</text>
<text text-anchor="middle" x="171.2164" y="-8.2" font-family="Times,serif" font-size="14.00" fill="#000000">transporter activity</text>
</g>
<!-- GO:0022857 -->
<g id="node2" class="node">
<title>GO:0022857</title>
<polygon fill="#ffffff" stroke="#000000" points="166.6498,-153.0014 -.217,-153.0014 -.217,-94.1986 166.6498,-94.1986 166.6498,-153.0014"/>
<text text-anchor="middle" x="83.2164" y="-136.2" font-family="Times,serif" font-size="14.00" fill="#000000">GO:0022857</text>
<text text-anchor="middle" x="83.2164" y="-119.4" font-family="Times,serif" font-size="14.00" fill="#000000">transmembrane transporter</text>
<text text-anchor="middle" x="83.2164" y="-102.6" font-family="Times,serif" font-size="14.00" fill="#000000">activity</text>
</g>
<!-- GO:0015238&#45;&gt;GO:0022857 -->
<g id="edge1" class="edge">
<title>GO:0015238&#45;&gt;GO:0022857</title>
<path fill="none" stroke="#000000" d="M143.855,-58.5513C135.4946,-67.5198 126.1943,-77.4965 117.4381,-86.8894"/>
<polygon fill="#000000" stroke="#000000" points="114.8195,-84.5656 110.5608,-94.2669 119.9398,-89.3387 114.8195,-84.5656"/>
</g>
<!-- GO:0090484 -->
<g id="node3" class="node">
<title>GO:0090484</title>
<polygon fill="#ffffff" stroke="#000000" points="336.0057,-144.2019 184.4271,-144.2019 184.4271,-102.9981 336.0057,-102.9981 336.0057,-144.2019"/>
<text text-anchor="middle" x="260.2164" y="-127.8" font-family="Times,serif" font-size="14.00" fill="#000000">GO:0090484</text>
<text text-anchor="middle" x="260.2164" y="-111" font-family="Times,serif" font-size="14.00" fill="#000000">drug transporter activity</text>
</g>
<!-- GO:0015238&#45;&gt;GO:0090484 -->
<g id="edge2" class="edge">
<title>GO:0015238&#45;&gt;GO:0090484</title>
<path fill="none" stroke="#000000" d="M198.8887,-58.5513C210.0231,-70.3612 222.8058,-83.9196 233.8096,-95.591"/>
<polygon fill="#000000" stroke="#000000" points="231.342,-98.0758 240.7486,-102.951 236.4353,-93.2739 231.342,-98.0758"/>
</g>
<!-- GO:0005215 -->
<g id="node4" class="node">
<title>GO:0005215</title>
<polygon fill="#ffffff" stroke="#000000" points="232.3449,-230.2019 110.0879,-230.2019 110.0879,-188.9981 232.3449,-188.9981 232.3449,-230.2019"/>
<text text-anchor="middle" x="171.2164" y="-213.8" font-family="Times,serif" font-size="14.00" fill="#000000">GO:0005215</text>
<text text-anchor="middle" x="171.2164" y="-197" font-family="Times,serif" font-size="14.00" fill="#000000">transporter activity</text>
</g>
<!-- GO:0022857&#45;&gt;GO:0005215 -->
<g id="edge3" class="edge">
<title>GO:0022857&#45;&gt;GO:0005215</title>
<path fill="none" stroke="#000000" d="M113.501,-153.1963C122.9947,-162.4742 133.4349,-172.6772 142.7951,-181.8246"/>
<polygon fill="#000000" stroke="#000000" points="140.4333,-184.4104 150.0315,-188.8966 145.3259,-179.404 140.4333,-184.4104"/>
</g>
<!-- GO:0090484&#45;&gt;GO:0005215 -->
<g id="edge4" class="edge">
<title>GO:0090484&#45;&gt;GO:0005215</title>
<path fill="none" stroke="#000000" d="M238.672,-144.4182C227.084,-155.6156 212.6362,-169.5764 200.0877,-181.7019"/>
<polygon fill="#000000" stroke="#000000" points="197.3216,-179.5077 192.5624,-188.9735 202.1858,-184.5416 197.3216,-179.5077"/>
</g>
<!-- GO:0003674 -->
<g id="node5" class="node">
<title>GO:0003674</title>
<polygon fill="#ffffff" stroke="#000000" points="233.8495,-307.8019 108.5833,-307.8019 108.5833,-266.5981 233.8495,-266.5981 233.8495,-307.8019"/>
<text text-anchor="middle" x="171.2164" y="-291.4" font-family="Times,serif" font-size="14.00" fill="#000000">GO:0003674</text>
<text text-anchor="middle" x="171.2164" y="-274.6" font-family="Times,serif" font-size="14.00" fill="#000000">molecular_function</text>
</g>
<!-- GO:0005215&#45;&gt;GO:0003674 -->
<g id="edge5" class="edge">
<title>GO:0005215&#45;&gt;GO:0003674</title>
<path fill="none" stroke="#000000" d="M171.2164,-230.3954C171.2164,-238.3109 171.2164,-247.5109 171.2164,-256.1722"/>
<polygon fill="#000000" stroke="#000000" points="167.7165,-256.3472 171.2164,-266.3472 174.7165,-256.3473 167.7165,-256.3472"/>
</g>
</g>
</svg>
