<?xml version="1.0" encoding="UTF-8" standalone="no"?>
<!DOCTYPE svg PUBLIC "-//W3C//DTD SVG 1.1//EN"
 "http://www.w3.org/Graphics/SVG/1.1/DTD/svg11.dtd">
<!-- Generated by graphviz version 2.40.1 (20161225.0304)
 -->
<!-- Title: G Pages: 1 -->
<svg width="666pt" height="683pt"
 viewBox="0.00 0.00 666.29 683.20" xmlns="http://www.w3.org/2000/svg" xmlns:xlink="http://www.w3.org/1999/xlink">
<g id="graph0" class="graph" transform="scale(1 1) rotate(0) translate(4 679.2)">
<title>G</title>
<polygon fill="#ffffff" stroke="transparent" points="-4,4 -4,-679.2 662.2876,-679.2 662.2876,4 -4,4"/>
<!-- GO:0036094 -->
<g id="node1" class="node">
<title>GO:0036094</title>
<polygon fill="#ffffff" stroke="#000000" points="318.7107,-511.4019 170.8539,-511.4019 170.8539,-470.1981 318.7107,-470.1981 318.7107,-511.4019"/>
<text text-anchor="middle" x="244.7823" y="-495" font-family="Times,serif" font-size="14.00" fill="#000000">GO:0036094</text>
<text text-anchor="middle" x="244.7823" y="-478.2" font-family="Times,serif" font-size="14.00" fill="#000000">small molecule binding</text>
</g>
<!-- GO:0005488 -->
<g id="node2" class="node">
<title>GO:0005488</title>
<polygon fill="#ffffff" stroke="#000000" points="374.3862,-597.4019 285.1784,-597.4019 285.1784,-556.1981 374.3862,-556.1981 374.3862,-597.4019"/>
<text text-anchor="middle" x="329.7823" y="-581" font-family="Times,serif" font-size="14.00" fill="#000000">GO:0005488</text>
<text text-anchor="middle" x="329.7823" y="-564.2" font-family="Times,serif" font-size="14.00" fill="#000000">binding</text>
</g>
<!-- GO:0036094&#45;&gt;GO:0005488 -->
<g id="edge1" class="edge">
<title>GO:0036094&#45;&gt;GO:0005488</title>
<path fill="none" stroke="#000000" d="M265.3584,-511.6182C276.4256,-522.8156 290.2241,-536.7764 302.2086,-548.9019"/>
<polygon fill="#000000" stroke="#000000" points="299.8767,-551.5216 309.3957,-556.1735 304.8553,-546.6008 299.8767,-551.5216"/>
</g>
<!-- GO:0003674 -->
<g id="node3" class="node">
<title>GO:0003674</title>
<polygon fill="#ffffff" stroke="#000000" points="309.4154,-675.0019 184.1492,-675.0019 184.1492,-633.7981 309.4154,-633.7981 309.4154,-675.0019"/>
<text text-anchor="middle" x="246.7823" y="-658.6" font-family="Times,serif" font-size="14.00" fill="#000000">GO:0003674</text>
<text text-anchor="middle" x="246.7823" y="-641.8" font-family="Times,serif" font-size="14.00" fill="#000000">molecular_function</text>
</g>
<!-- GO:0005488&#45;&gt;GO:0003674 -->
<g id="edge2" class="edge">
<title>GO:0005488&#45;&gt;GO:0003674</title>
<path fill="none" stroke="#000000" d="M307.5398,-597.5954C298.0501,-606.4677 286.8342,-616.9539 276.6385,-626.4862"/>
<polygon fill="#000000" stroke="#000000" points="274.0006,-624.1611 269.0862,-633.5472 278.7812,-629.2744 274.0006,-624.1611"/>
</g>
<!-- GO:0047023 -->
<g id="node4" class="node">
<title>GO:0047023</title>
<polygon fill="#ffffff" stroke="#000000" points="232.7382,-58.6014 86.8264,-58.6014 86.8264,.2014 232.7382,.2014 232.7382,-58.6014"/>
<text text-anchor="middle" x="159.7823" y="-41.8" font-family="Times,serif" font-size="14.00" fill="#000000">GO:0047023</text>
<text text-anchor="middle" x="159.7823" y="-25" font-family="Times,serif" font-size="14.00" fill="#000000">androsterone</text>
<text text-anchor="middle" x="159.7823" y="-8.2" font-family="Times,serif" font-size="14.00" fill="#000000">dehydrogenase activity</text>
</g>
<!-- GO:0033764 -->
<g id="node5" class="node">
<title>GO:0033764</title>
<polygon fill="#ffffff" stroke="#000000" points="244.434,-186.4 75.1306,-186.4 75.1306,-94.4 244.434,-94.4 244.434,-186.4"/>
<text text-anchor="middle" x="159.7823" y="-169.8" font-family="Times,serif" font-size="14.00" fill="#000000">GO:0033764</text>
<text text-anchor="middle" x="159.7823" y="-153" font-family="Times,serif" font-size="14.00" fill="#000000">steroid dehydrogenase</text>
<text text-anchor="middle" x="159.7823" y="-136.2" font-family="Times,serif" font-size="14.00" fill="#000000">activity, acting on the</text>
<text text-anchor="middle" x="159.7823" y="-119.4" font-family="Times,serif" font-size="14.00" fill="#000000">CH&#45;OH group of donors,</text>
<text text-anchor="middle" x="159.7823" y="-102.6" font-family="Times,serif" font-size="14.00" fill="#000000">NAD or NADP as acceptor</text>
</g>
<!-- GO:0047023&#45;&gt;GO:0033764 -->
<g id="edge3" class="edge">
<title>GO:0047023&#45;&gt;GO:0033764</title>
<path fill="none" stroke="#000000" d="M159.7823,-58.4165C159.7823,-66.3646 159.7823,-75.2491 159.7823,-84.1556"/>
<polygon fill="#000000" stroke="#000000" points="156.2824,-84.172 159.7823,-94.1721 163.2824,-84.1721 156.2824,-84.172"/>
</g>
<!-- GO:0016229 -->
<g id="node6" class="node">
<title>GO:0016229</title>
<polygon fill="#ffffff" stroke="#000000" points="141.3476,-297.8014 .217,-297.8014 .217,-238.9986 141.3476,-238.9986 141.3476,-297.8014"/>
<text text-anchor="middle" x="70.7823" y="-281" font-family="Times,serif" font-size="14.00" fill="#000000">GO:0016229</text>
<text text-anchor="middle" x="70.7823" y="-264.2" font-family="Times,serif" font-size="14.00" fill="#000000">steroid dehydrogenase</text>
<text text-anchor="middle" x="70.7823" y="-247.4" font-family="Times,serif" font-size="14.00" fill="#000000">activity</text>
</g>
<!-- GO:0033764&#45;&gt;GO:0016229 -->
<g id="edge4" class="edge">
<title>GO:0033764&#45;&gt;GO:0016229</title>
<path fill="none" stroke="#000000" d="M127.6513,-186.6109C117.5904,-201.0805 106.6132,-216.8679 97.01,-230.6793"/>
<polygon fill="#000000" stroke="#000000" points="94.0638,-228.7856 91.2286,-238.9941 99.8111,-232.7818 94.0638,-228.7856"/>
</g>
<!-- GO:0016616 -->
<g id="node7" class="node">
<title>GO:0016616</title>
<polygon fill="#ffffff" stroke="#000000" points="337.7908,-314.4 159.7738,-314.4 159.7738,-222.4 337.7908,-222.4 337.7908,-314.4"/>
<text text-anchor="middle" x="248.7823" y="-297.8" font-family="Times,serif" font-size="14.00" fill="#000000">GO:0016616</text>
<text text-anchor="middle" x="248.7823" y="-281" font-family="Times,serif" font-size="14.00" fill="#000000">oxidoreductase activity,</text>
<text text-anchor="middle" x="248.7823" y="-264.2" font-family="Times,serif" font-size="14.00" fill="#000000">acting on the CH&#45;OH group</text>
<text text-anchor="middle" x="248.7823" y="-247.4" font-family="Times,serif" font-size="14.00" fill="#000000">of donors, NAD or NADP as</text>
<text text-anchor="middle" x="248.7823" y="-230.6" font-family="Times,serif" font-size="14.00" fill="#000000">acceptor</text>
</g>
<!-- GO:0033764&#45;&gt;GO:0016616 -->
<g id="edge5" class="edge">
<title>GO:0033764&#45;&gt;GO:0016616</title>
<path fill="none" stroke="#000000" d="M191.9133,-186.6109C198.089,-195.4928 204.6099,-204.8711 210.9463,-213.9842"/>
<polygon fill="#000000" stroke="#000000" points="208.116,-216.0446 216.6984,-222.2569 213.8632,-212.0484 208.116,-216.0446"/>
</g>
<!-- GO:0016491 -->
<g id="node8" class="node">
<title>GO:0016491</title>
<polygon fill="#ffffff" stroke="#000000" points="153.0189,-511.4019 6.5457,-511.4019 6.5457,-470.1981 153.0189,-470.1981 153.0189,-511.4019"/>
<text text-anchor="middle" x="79.7823" y="-495" font-family="Times,serif" font-size="14.00" fill="#000000">GO:0016491</text>
<text text-anchor="middle" x="79.7823" y="-478.2" font-family="Times,serif" font-size="14.00" fill="#000000">oxidoreductase activity</text>
</g>
<!-- GO:0016229&#45;&gt;GO:0016491 -->
<g id="edge6" class="edge">
<title>GO:0016229&#45;&gt;GO:0016491</title>
<path fill="none" stroke="#000000" d="M71.9774,-297.933C73.6833,-340.0879 76.8015,-417.1399 78.5354,-459.988"/>
<polygon fill="#000000" stroke="#000000" points="75.0431,-460.2523 78.9447,-470.1025 82.0374,-459.9692 75.0431,-460.2523"/>
</g>
<!-- GO:0016614 -->
<g id="node9" class="node">
<title>GO:0016614</title>
<polygon fill="#ffffff" stroke="#000000" points="316.131,-425.7003 149.4336,-425.7003 149.4336,-350.2997 316.131,-350.2997 316.131,-425.7003"/>
<text text-anchor="middle" x="232.7823" y="-409" font-family="Times,serif" font-size="14.00" fill="#000000">GO:0016614</text>
<text text-anchor="middle" x="232.7823" y="-392.2" font-family="Times,serif" font-size="14.00" fill="#000000">oxidoreductase activity,</text>
<text text-anchor="middle" x="232.7823" y="-375.4" font-family="Times,serif" font-size="14.00" fill="#000000">acting on CH&#45;OH group of</text>
<text text-anchor="middle" x="232.7823" y="-358.6" font-family="Times,serif" font-size="14.00" fill="#000000">donors</text>
</g>
<!-- GO:0016616&#45;&gt;GO:0016614 -->
<g id="edge7" class="edge">
<title>GO:0016616&#45;&gt;GO:0016614</title>
<path fill="none" stroke="#000000" d="M242.5963,-314.6405C241.471,-323.0523 240.2951,-331.8419 239.1642,-340.2951"/>
<polygon fill="#000000" stroke="#000000" points="235.6706,-340.0154 237.8136,-350.3912 242.6087,-340.9436 235.6706,-340.0154"/>
</g>
<!-- GO:0003824 -->
<g id="node10" class="node">
<title>GO:0003824</title>
<polygon fill="#ffffff" stroke="#000000" points="243.1947,-597.4019 134.3699,-597.4019 134.3699,-556.1981 243.1947,-556.1981 243.1947,-597.4019"/>
<text text-anchor="middle" x="188.7823" y="-581" font-family="Times,serif" font-size="14.00" fill="#000000">GO:0003824</text>
<text text-anchor="middle" x="188.7823" y="-564.2" font-family="Times,serif" font-size="14.00" fill="#000000">catalytic activity</text>
</g>
<!-- GO:0016491&#45;&gt;GO:0003824 -->
<g id="edge8" class="edge">
<title>GO:0016491&#45;&gt;GO:0003824</title>
<path fill="none" stroke="#000000" d="M106.1682,-511.6182C120.7618,-523.1325 139.0591,-537.5688 154.7223,-549.9269"/>
<polygon fill="#000000" stroke="#000000" points="152.6208,-552.7271 162.6394,-556.1735 156.9567,-547.2316 152.6208,-552.7271"/>
</g>
<!-- GO:0016614&#45;&gt;GO:0016491 -->
<g id="edge9" class="edge">
<title>GO:0016614&#45;&gt;GO:0016491</title>
<path fill="none" stroke="#000000" d="M176.6795,-425.6952C157.477,-438.5973 136.4247,-452.7422 118.8631,-464.5418"/>
<polygon fill="#000000" stroke="#000000" points="116.8942,-461.648 110.5457,-470.1302 120.7981,-467.4583 116.8942,-461.648"/>
</g>
<!-- GO:0003824&#45;&gt;GO:0003674 -->
<g id="edge10" class="edge">
<title>GO:0003824&#45;&gt;GO:0003674</title>
<path fill="none" stroke="#000000" d="M204.3252,-597.5954C210.6965,-606.1197 218.1814,-616.1339 225.0775,-625.3605"/>
<polygon fill="#000000" stroke="#000000" points="222.4062,-627.6327 231.1965,-633.5472 228.0131,-623.4419 222.4062,-627.6327"/>
</g>
<!-- GO:1901265 -->
<g id="node11" class="node">
<title>GO:1901265</title>
<polygon fill="#ffffff" stroke="#000000" points="498.9164,-417.4014 362.6482,-417.4014 362.6482,-358.5986 498.9164,-358.5986 498.9164,-417.4014"/>
<text text-anchor="middle" x="430.7823" y="-400.6" font-family="Times,serif" font-size="14.00" fill="#000000">GO:1901265</text>
<text text-anchor="middle" x="430.7823" y="-383.8" font-family="Times,serif" font-size="14.00" fill="#000000">nucleoside phosphate</text>
<text text-anchor="middle" x="430.7823" y="-367" font-family="Times,serif" font-size="14.00" fill="#000000">binding</text>
</g>
<!-- GO:0097159 -->
<g id="node12" class="node">
<title>GO:0097159</title>
<polygon fill="#ffffff" stroke="#000000" points="493.2937,-520.2014 336.2709,-520.2014 336.2709,-461.3986 493.2937,-461.3986 493.2937,-520.2014"/>
<text text-anchor="middle" x="414.7823" y="-503.4" font-family="Times,serif" font-size="14.00" fill="#000000">GO:0097159</text>
<text text-anchor="middle" x="414.7823" y="-486.6" font-family="Times,serif" font-size="14.00" fill="#000000">organic cyclic compound</text>
<text text-anchor="middle" x="414.7823" y="-469.8" font-family="Times,serif" font-size="14.00" fill="#000000">binding</text>
</g>
<!-- GO:1901265&#45;&gt;GO:0097159 -->
<g id="edge11" class="edge">
<title>GO:1901265&#45;&gt;GO:0097159</title>
<path fill="none" stroke="#000000" d="M426.1973,-417.4584C424.5571,-427.9969 422.6811,-440.0505 420.9303,-451.2994"/>
<polygon fill="#000000" stroke="#000000" points="417.4476,-450.918 419.3679,-461.3373 424.3643,-451.9946 417.4476,-450.918"/>
</g>
<!-- GO:1901363 -->
<g id="node13" class="node">
<title>GO:1901363</title>
<polygon fill="#ffffff" stroke="#000000" points="658.2929,-520.2014 511.2717,-520.2014 511.2717,-461.3986 658.2929,-461.3986 658.2929,-520.2014"/>
<text text-anchor="middle" x="584.7823" y="-503.4" font-family="Times,serif" font-size="14.00" fill="#000000">GO:1901363</text>
<text text-anchor="middle" x="584.7823" y="-486.6" font-family="Times,serif" font-size="14.00" fill="#000000">heterocyclic compound</text>
<text text-anchor="middle" x="584.7823" y="-469.8" font-family="Times,serif" font-size="14.00" fill="#000000">binding</text>
</g>
<!-- GO:1901265&#45;&gt;GO:1901363 -->
<g id="edge12" class="edge">
<title>GO:1901265&#45;&gt;GO:1901363</title>
<path fill="none" stroke="#000000" d="M474.9125,-417.4584C492.8712,-429.4464 513.7666,-443.3947 532.4839,-455.8891"/>
<polygon fill="#000000" stroke="#000000" points="530.6517,-458.8742 540.9121,-461.5152 534.5381,-453.0521 530.6517,-458.8742"/>
</g>
<!-- GO:0097159&#45;&gt;GO:0005488 -->
<g id="edge13" class="edge">
<title>GO:0097159&#45;&gt;GO:0005488</title>
<path fill="none" stroke="#000000" d="M385.5301,-520.3963C376.4509,-529.5824 366.4754,-539.6752 357.5036,-548.7526"/>
<polygon fill="#000000" stroke="#000000" points="354.7853,-546.5239 350.245,-556.0966 359.764,-551.4446 354.7853,-546.5239"/>
</g>
<!-- GO:1901363&#45;&gt;GO:0005488 -->
<g id="edge14" class="edge">
<title>GO:1901363&#45;&gt;GO:0005488</title>
<path fill="none" stroke="#000000" d="M511.0553,-517.1514C508.264,-518.1181 505.4989,-519.0705 502.7823,-520 463.3095,-533.5057 418.5583,-548.1816 384.4612,-559.232"/>
<polygon fill="#000000" stroke="#000000" points="383.1271,-555.9849 374.6905,-562.3938 385.2823,-562.6449 383.1271,-555.9849"/>
</g>
</g>
</svg>
