<?xml version="1.0" encoding="UTF-8" standalone="no"?>
<!DOCTYPE svg PUBLIC "-//W3C//DTD SVG 1.1//EN"
 "http://www.w3.org/Graphics/SVG/1.1/DTD/svg11.dtd">
<!-- Generated by graphviz version 2.40.1 (20161225.0304)
 -->
<!-- Title: G Pages: 1 -->
<svg width="1266pt" height="855pt"
 viewBox="0.00 0.00 1266.31 855.20" xmlns="http://www.w3.org/2000/svg" xmlns:xlink="http://www.w3.org/1999/xlink">
<g id="graph0" class="graph" transform="scale(1 1) rotate(0) translate(4 851.2)">
<title>G</title>
<polygon fill="#ffffff" stroke="transparent" points="-4,4 -4,-851.2 1262.3128,-851.2 1262.3128,4 -4,4"/>
<!-- GO:0016787 -->
<g id="node1" class="node">
<title>GO:0016787</title>
<polygon fill="#ffffff" stroke="#000000" points="1238.4317,-683.4019 1122.5985,-683.4019 1122.5985,-642.1981 1238.4317,-642.1981 1238.4317,-683.4019"/>
<text text-anchor="middle" x="1180.5151" y="-667" font-family="Times,serif" font-size="14.00" fill="#000000">GO:0016787</text>
<text text-anchor="middle" x="1180.5151" y="-650.2" font-family="Times,serif" font-size="14.00" fill="#000000">hydrolase activity</text>
</g>
<!-- GO:0003824 -->
<g id="node2" class="node">
<title>GO:0003824</title>
<polygon fill="#00ff00" stroke="#000000" points="1113.9275,-769.4019 1005.1027,-769.4019 1005.1027,-728.1981 1113.9275,-728.1981 1113.9275,-769.4019"/>
<text text-anchor="middle" x="1059.5151" y="-753" font-family="Times,serif" font-size="14.00" fill="#000000">GO:0003824</text>
<text text-anchor="middle" x="1059.5151" y="-736.2" font-family="Times,serif" font-size="14.00" fill="#000000">catalytic activity</text>
</g>
<!-- GO:0016787&#45;&gt;GO:0003824 -->
<g id="edge1" class="edge">
<title>GO:0016787&#45;&gt;GO:0003824</title>
<path fill="none" stroke="#000000" d="M1151.2244,-683.6182C1134.8754,-695.2381 1114.3394,-709.834 1096.847,-722.2665"/>
<polygon fill="#000000" stroke="#000000" points="1094.6594,-719.5274 1088.5361,-728.1735 1098.7147,-725.2331 1094.6594,-719.5274"/>
</g>
<!-- GO:0003674 -->
<g id="node3" class="node">
<title>GO:0003674</title>
<polygon fill="#ffffff" stroke="#000000" points="912.1482,-847.0019 786.882,-847.0019 786.882,-805.7981 912.1482,-805.7981 912.1482,-847.0019"/>
<text text-anchor="middle" x="849.5151" y="-830.6" font-family="Times,serif" font-size="14.00" fill="#000000">GO:0003674</text>
<text text-anchor="middle" x="849.5151" y="-813.8" font-family="Times,serif" font-size="14.00" fill="#000000">molecular_function</text>
</g>
<!-- GO:0003824&#45;&gt;GO:0003674 -->
<g id="edge2" class="edge">
<title>GO:0003824&#45;&gt;GO:0003674</title>
<path fill="none" stroke="#000000" d="M1004.8883,-768.9859C977.3737,-779.1532 943.8112,-791.5553 914.9299,-802.2277"/>
<polygon fill="#000000" stroke="#000000" points="913.4972,-799.0257 905.3303,-805.775 915.9235,-805.5918 913.4972,-799.0257"/>
</g>
<!-- GO:0050662 -->
<g id="node4" class="node">
<title>GO:0050662</title>
<polygon fill="#ffffff" stroke="#000000" points="119.0453,-580.6019 -.0151,-580.6019 -.0151,-539.3981 119.0453,-539.3981 119.0453,-580.6019"/>
<text text-anchor="middle" x="59.5151" y="-564.2" font-family="Times,serif" font-size="14.00" fill="#000000">GO:0050662</text>
<text text-anchor="middle" x="59.5151" y="-547.4" font-family="Times,serif" font-size="14.00" fill="#000000">coenzyme binding</text>
</g>
<!-- GO:0048037 -->
<g id="node5" class="node">
<title>GO:0048037</title>
<polygon fill="#ffffff" stroke="#000000" points="147.652,-683.4019 39.3782,-683.4019 39.3782,-642.1981 147.652,-642.1981 147.652,-683.4019"/>
<text text-anchor="middle" x="93.5151" y="-667" font-family="Times,serif" font-size="14.00" fill="#000000">GO:0048037</text>
<text text-anchor="middle" x="93.5151" y="-650.2" font-family="Times,serif" font-size="14.00" fill="#000000">cofactor binding</text>
</g>
<!-- GO:0050662&#45;&gt;GO:0048037 -->
<g id="edge3" class="edge">
<title>GO:0050662&#45;&gt;GO:0048037</title>
<path fill="none" stroke="#000000" d="M66.3955,-580.8031C71.2805,-595.573 77.9182,-615.6424 83.4041,-632.229"/>
<polygon fill="#000000" stroke="#000000" points="80.1818,-633.6327 86.6449,-642.0278 86.8277,-631.4346 80.1818,-633.6327"/>
</g>
<!-- GO:0005488 -->
<g id="node6" class="node">
<title>GO:0005488</title>
<polygon fill="#ffffff" stroke="#000000" points="429.119,-769.4019 339.9112,-769.4019 339.9112,-728.1981 429.119,-728.1981 429.119,-769.4019"/>
<text text-anchor="middle" x="384.5151" y="-753" font-family="Times,serif" font-size="14.00" fill="#000000">GO:0005488</text>
<text text-anchor="middle" x="384.5151" y="-736.2" font-family="Times,serif" font-size="14.00" fill="#000000">binding</text>
</g>
<!-- GO:0048037&#45;&gt;GO:0005488 -->
<g id="edge4" class="edge">
<title>GO:0048037&#45;&gt;GO:0005488</title>
<path fill="none" stroke="#000000" d="M147.7647,-681.9953C157.9458,-685.4386 168.5276,-688.9108 178.5151,-692 229.5368,-707.7812 288.318,-723.7753 329.9974,-734.7524"/>
<polygon fill="#000000" stroke="#000000" points="329.1181,-738.14 339.679,-737.293 330.8949,-731.3693 329.1181,-738.14"/>
</g>
<!-- GO:0005488&#45;&gt;GO:0003674 -->
<g id="edge5" class="edge">
<title>GO:0005488&#45;&gt;GO:0003674</title>
<path fill="none" stroke="#000000" d="M429.1013,-756.2406C509.4552,-769.6502 679.252,-797.9862 776.6851,-814.246"/>
<polygon fill="#000000" stroke="#000000" points="776.3105,-817.7318 786.7503,-815.9257 777.4628,-810.8273 776.3105,-817.7318"/>
</g>
<!-- GO:0016829 -->
<g id="node7" class="node">
<title>GO:0016829</title>
<polygon fill="#ffffff" stroke="#000000" points="1104.7715,-683.4019 1014.2587,-683.4019 1014.2587,-642.1981 1104.7715,-642.1981 1104.7715,-683.4019"/>
<text text-anchor="middle" x="1059.5151" y="-667" font-family="Times,serif" font-size="14.00" fill="#000000">GO:0016829</text>
<text text-anchor="middle" x="1059.5151" y="-650.2" font-family="Times,serif" font-size="14.00" fill="#000000">lyase activity</text>
</g>
<!-- GO:0016829&#45;&gt;GO:0003824 -->
<g id="edge6" class="edge">
<title>GO:0016829&#45;&gt;GO:0003824</title>
<path fill="none" stroke="#000000" d="M1059.5151,-683.6182C1059.5151,-693.9705 1059.5151,-706.6848 1059.5151,-718.1271"/>
<polygon fill="#000000" stroke="#000000" points="1056.0152,-718.1735 1059.5151,-728.1735 1063.0152,-718.1735 1056.0152,-718.1735"/>
</g>
<!-- GO:0046915 -->
<g id="node8" class="node">
<title>GO:0046915</title>
<polygon fill="#ffffff" stroke="#000000" points="1022.9485,-75.3003 856.0817,-75.3003 856.0817,.1003 1022.9485,.1003 1022.9485,-75.3003"/>
<text text-anchor="middle" x="939.5151" y="-58.6" font-family="Times,serif" font-size="14.00" fill="#000000">GO:0046915</text>
<text text-anchor="middle" x="939.5151" y="-41.8" font-family="Times,serif" font-size="14.00" fill="#000000">transition metal ion</text>
<text text-anchor="middle" x="939.5151" y="-25" font-family="Times,serif" font-size="14.00" fill="#000000">transmembrane transporter</text>
<text text-anchor="middle" x="939.5151" y="-8.2" font-family="Times,serif" font-size="14.00" fill="#000000">activity</text>
</g>
<!-- GO:0046873 -->
<g id="node9" class="node">
<title>GO:0046873</title>
<polygon fill="#ffffff" stroke="#000000" points="1018.803,-169.8014 860.2272,-169.8014 860.2272,-110.9986 1018.803,-110.9986 1018.803,-169.8014"/>
<text text-anchor="middle" x="939.5151" y="-153" font-family="Times,serif" font-size="14.00" fill="#000000">GO:0046873</text>
<text text-anchor="middle" x="939.5151" y="-136.2" font-family="Times,serif" font-size="14.00" fill="#000000">metal ion transmembrane</text>
<text text-anchor="middle" x="939.5151" y="-119.4" font-family="Times,serif" font-size="14.00" fill="#000000">transporter activity</text>
</g>
<!-- GO:0046915&#45;&gt;GO:0046873 -->
<g id="edge7" class="edge">
<title>GO:0046915&#45;&gt;GO:0046873</title>
<path fill="none" stroke="#000000" d="M939.5151,-75.2952C939.5151,-83.6874 939.5151,-92.6054 939.5151,-101.0618"/>
<polygon fill="#000000" stroke="#000000" points="936.0152,-101.0813 939.5151,-111.0814 943.0152,-101.0814 936.0152,-101.0813"/>
</g>
<!-- GO:0022890 -->
<g id="node10" class="node">
<title>GO:0022890</title>
<polygon fill="#ffffff" stroke="#000000" points="1022.9485,-280.9003 856.0817,-280.9003 856.0817,-205.4997 1022.9485,-205.4997 1022.9485,-280.9003"/>
<text text-anchor="middle" x="939.5151" y="-264.2" font-family="Times,serif" font-size="14.00" fill="#000000">GO:0022890</text>
<text text-anchor="middle" x="939.5151" y="-247.4" font-family="Times,serif" font-size="14.00" fill="#000000">inorganic cation</text>
<text text-anchor="middle" x="939.5151" y="-230.6" font-family="Times,serif" font-size="14.00" fill="#000000">transmembrane transporter</text>
<text text-anchor="middle" x="939.5151" y="-213.8" font-family="Times,serif" font-size="14.00" fill="#000000">activity</text>
</g>
<!-- GO:0046873&#45;&gt;GO:0022890 -->
<g id="edge8" class="edge">
<title>GO:0046873&#45;&gt;GO:0022890</title>
<path fill="none" stroke="#000000" d="M939.5151,-169.8584C939.5151,-177.7901 939.5151,-186.58 939.5151,-195.2392"/>
<polygon fill="#000000" stroke="#000000" points="936.0152,-195.2849 939.5151,-205.285 943.0152,-195.285 936.0152,-195.2849"/>
</g>
<!-- GO:0008324 -->
<g id="node11" class="node">
<title>GO:0008324</title>
<polygon fill="#ffffff" stroke="#000000" points="1009.5215,-375.4014 869.5087,-375.4014 869.5087,-316.5986 1009.5215,-316.5986 1009.5215,-375.4014"/>
<text text-anchor="middle" x="939.5151" y="-358.6" font-family="Times,serif" font-size="14.00" fill="#000000">GO:0008324</text>
<text text-anchor="middle" x="939.5151" y="-341.8" font-family="Times,serif" font-size="14.00" fill="#000000">cation transmembrane</text>
<text text-anchor="middle" x="939.5151" y="-325" font-family="Times,serif" font-size="14.00" fill="#000000">transporter activity</text>
</g>
<!-- GO:0022890&#45;&gt;GO:0008324 -->
<g id="edge9" class="edge">
<title>GO:0022890&#45;&gt;GO:0008324</title>
<path fill="none" stroke="#000000" d="M939.5151,-280.8952C939.5151,-289.2874 939.5151,-298.2054 939.5151,-306.6618"/>
<polygon fill="#000000" stroke="#000000" points="936.0152,-306.6813 939.5151,-316.6814 943.0152,-306.6814 936.0152,-306.6813"/>
</g>
<!-- GO:0015075 -->
<g id="node12" class="node">
<title>GO:0015075</title>
<polygon fill="#ffffff" stroke="#000000" points="1001.2021,-478.2014 877.8281,-478.2014 877.8281,-419.3986 1001.2021,-419.3986 1001.2021,-478.2014"/>
<text text-anchor="middle" x="939.5151" y="-461.4" font-family="Times,serif" font-size="14.00" fill="#000000">GO:0015075</text>
<text text-anchor="middle" x="939.5151" y="-444.6" font-family="Times,serif" font-size="14.00" fill="#000000">ion transmembrane</text>
<text text-anchor="middle" x="939.5151" y="-427.8" font-family="Times,serif" font-size="14.00" fill="#000000">transporter activity</text>
</g>
<!-- GO:0008324&#45;&gt;GO:0015075 -->
<g id="edge10" class="edge">
<title>GO:0008324&#45;&gt;GO:0015075</title>
<path fill="none" stroke="#000000" d="M939.5151,-375.4584C939.5151,-385.9969 939.5151,-398.0505 939.5151,-409.2994"/>
<polygon fill="#000000" stroke="#000000" points="936.0152,-409.3373 939.5151,-419.3373 943.0152,-409.3374 936.0152,-409.3373"/>
</g>
<!-- GO:0022891 -->
<g id="node13" class="node">
<title>GO:0022891</title>
<polygon fill="#ffffff" stroke="#000000" points="1022.9485,-597.7003 856.0817,-597.7003 856.0817,-522.2997 1022.9485,-522.2997 1022.9485,-597.7003"/>
<text text-anchor="middle" x="939.5151" y="-581" font-family="Times,serif" font-size="14.00" fill="#000000">GO:0022891</text>
<text text-anchor="middle" x="939.5151" y="-564.2" font-family="Times,serif" font-size="14.00" fill="#000000">substrate&#45;specific</text>
<text text-anchor="middle" x="939.5151" y="-547.4" font-family="Times,serif" font-size="14.00" fill="#000000">transmembrane transporter</text>
<text text-anchor="middle" x="939.5151" y="-530.6" font-family="Times,serif" font-size="14.00" fill="#000000">activity</text>
</g>
<!-- GO:0015075&#45;&gt;GO:0022891 -->
<g id="edge11" class="edge">
<title>GO:0015075&#45;&gt;GO:0022891</title>
<path fill="none" stroke="#000000" d="M939.5151,-478.0165C939.5151,-488.4682 939.5151,-500.5391 939.5151,-512.1501"/>
<polygon fill="#000000" stroke="#000000" points="936.0152,-512.183 939.5151,-522.183 943.0152,-512.1831 936.0152,-512.183"/>
</g>
<!-- GO:0022857 -->
<g id="node14" class="node">
<title>GO:0022857</title>
<polygon fill="#ffffff" stroke="#000000" points="856.9485,-692.2014 690.0817,-692.2014 690.0817,-633.3986 856.9485,-633.3986 856.9485,-692.2014"/>
<text text-anchor="middle" x="773.5151" y="-675.4" font-family="Times,serif" font-size="14.00" fill="#000000">GO:0022857</text>
<text text-anchor="middle" x="773.5151" y="-658.6" font-family="Times,serif" font-size="14.00" fill="#000000">transmembrane transporter</text>
<text text-anchor="middle" x="773.5151" y="-641.8" font-family="Times,serif" font-size="14.00" fill="#000000">activity</text>
</g>
<!-- GO:0022891&#45;&gt;GO:0022857 -->
<g id="edge12" class="edge">
<title>GO:0022891&#45;&gt;GO:0022857</title>
<path fill="none" stroke="#000000" d="M878.6454,-597.6952C862.5622,-607.6552 845.2831,-618.3558 829.4734,-628.1463"/>
<polygon fill="#000000" stroke="#000000" points="827.5175,-625.2407 820.8584,-633.4814 831.203,-631.192 827.5175,-625.2407"/>
</g>
<!-- GO:0022892 -->
<g id="node15" class="node">
<title>GO:0022892</title>
<polygon fill="#ffffff" stroke="#000000" points="996.6436,-692.2014 874.3866,-692.2014 874.3866,-633.3986 996.6436,-633.3986 996.6436,-692.2014"/>
<text text-anchor="middle" x="935.5151" y="-675.4" font-family="Times,serif" font-size="14.00" fill="#000000">GO:0022892</text>
<text text-anchor="middle" x="935.5151" y="-658.6" font-family="Times,serif" font-size="14.00" fill="#000000">substrate&#45;specific</text>
<text text-anchor="middle" x="935.5151" y="-641.8" font-family="Times,serif" font-size="14.00" fill="#000000">transporter activity</text>
</g>
<!-- GO:0022891&#45;&gt;GO:0022892 -->
<g id="edge13" class="edge">
<title>GO:0022891&#45;&gt;GO:0022892</title>
<path fill="none" stroke="#000000" d="M938.0484,-597.6952C937.7218,-606.0874 937.3748,-615.0054 937.0458,-623.4618"/>
<polygon fill="#000000" stroke="#000000" points="933.5475,-623.3528 936.6559,-633.4814 940.5422,-623.625 933.5475,-623.3528"/>
</g>
<!-- GO:0005215 -->
<g id="node16" class="node">
<title>GO:0005215</title>
<polygon fill="#ffffff" stroke="#000000" points="910.6436,-769.4019 788.3866,-769.4019 788.3866,-728.1981 910.6436,-728.1981 910.6436,-769.4019"/>
<text text-anchor="middle" x="849.5151" y="-753" font-family="Times,serif" font-size="14.00" fill="#000000">GO:0005215</text>
<text text-anchor="middle" x="849.5151" y="-736.2" font-family="Times,serif" font-size="14.00" fill="#000000">transporter activity</text>
</g>
<!-- GO:0022857&#45;&gt;GO:0005215 -->
<g id="edge14" class="edge">
<title>GO:0022857&#45;&gt;GO:0005215</title>
<path fill="none" stroke="#000000" d="M799.67,-692.3963C807.7067,-701.4905 816.5288,-711.4734 824.4881,-720.48"/>
<polygon fill="#000000" stroke="#000000" points="821.9744,-722.9209 831.219,-728.0966 827.2197,-718.2855 821.9744,-722.9209"/>
</g>
<!-- GO:0022892&#45;&gt;GO:0005215 -->
<g id="edge15" class="edge">
<title>GO:0022892&#45;&gt;GO:0005215</title>
<path fill="none" stroke="#000000" d="M905.9188,-692.3963C896.6409,-701.6742 886.4379,-711.8772 877.2905,-721.0246"/>
<polygon fill="#000000" stroke="#000000" points="874.8148,-718.5506 870.2185,-728.0966 879.7645,-723.5003 874.8148,-718.5506"/>
</g>
<!-- GO:0005215&#45;&gt;GO:0003674 -->
<g id="edge16" class="edge">
<title>GO:0005215&#45;&gt;GO:0003674</title>
<path fill="none" stroke="#000000" d="M849.5151,-769.5954C849.5151,-777.5109 849.5151,-786.7109 849.5151,-795.3722"/>
<polygon fill="#000000" stroke="#000000" points="846.0152,-795.5472 849.5151,-805.5472 853.0152,-795.5473 846.0152,-795.5472"/>
</g>
<!-- GO:0000166 -->
<g id="node17" class="node">
<title>GO:0000166</title>
<polygon fill="#ffffff" stroke="#000000" points="350.6126,-469.4019 230.4176,-469.4019 230.4176,-428.1981 350.6126,-428.1981 350.6126,-469.4019"/>
<text text-anchor="middle" x="290.5151" y="-453" font-family="Times,serif" font-size="14.00" fill="#000000">GO:0000166</text>
<text text-anchor="middle" x="290.5151" y="-436.2" font-family="Times,serif" font-size="14.00" fill="#000000">nucleotide binding</text>
</g>
<!-- GO:0036094 -->
<g id="node18" class="node">
<title>GO:0036094</title>
<polygon fill="#ffffff" stroke="#000000" points="284.4435,-580.6019 136.5867,-580.6019 136.5867,-539.3981 284.4435,-539.3981 284.4435,-580.6019"/>
<text text-anchor="middle" x="210.5151" y="-564.2" font-family="Times,serif" font-size="14.00" fill="#000000">GO:0036094</text>
<text text-anchor="middle" x="210.5151" y="-547.4" font-family="Times,serif" font-size="14.00" fill="#000000">small molecule binding</text>
</g>
<!-- GO:0000166&#45;&gt;GO:0036094 -->
<g id="edge17" class="edge">
<title>GO:0000166&#45;&gt;GO:0036094</title>
<path fill="none" stroke="#000000" d="M275.6552,-469.4553C263.217,-486.7444 245.3247,-511.6147 231.438,-530.9172"/>
<polygon fill="#000000" stroke="#000000" points="228.5658,-528.9164 225.5669,-539.078 234.2481,-533.0044 228.5658,-528.9164"/>
</g>
<!-- GO:1901265 -->
<g id="node19" class="node">
<title>GO:1901265</title>
<polygon fill="#ffffff" stroke="#000000" points="438.6492,-589.4014 302.381,-589.4014 302.381,-530.5986 438.6492,-530.5986 438.6492,-589.4014"/>
<text text-anchor="middle" x="370.5151" y="-572.6" font-family="Times,serif" font-size="14.00" fill="#000000">GO:1901265</text>
<text text-anchor="middle" x="370.5151" y="-555.8" font-family="Times,serif" font-size="14.00" fill="#000000">nucleoside phosphate</text>
<text text-anchor="middle" x="370.5151" y="-539" font-family="Times,serif" font-size="14.00" fill="#000000">binding</text>
</g>
<!-- GO:0000166&#45;&gt;GO:1901265 -->
<g id="edge18" class="edge">
<title>GO:0000166&#45;&gt;GO:1901265</title>
<path fill="none" stroke="#000000" d="M305.375,-469.4553C316.015,-484.2448 330.6459,-504.5819 343.3466,-522.2357"/>
<polygon fill="#000000" stroke="#000000" points="340.7192,-524.577 349.4004,-530.6506 346.4015,-520.489 340.7192,-524.577"/>
</g>
<!-- GO:0036094&#45;&gt;GO:0005488 -->
<g id="edge19" class="edge">
<title>GO:0036094&#45;&gt;GO:0005488</title>
<path fill="none" stroke="#000000" d="M203.7798,-581.0709C196.1791,-609.2482 187.7337,-659.4221 211.5151,-692 225.7675,-711.5242 284.732,-727.9919 329.9004,-738.0872"/>
<polygon fill="#000000" stroke="#000000" points="329.3702,-741.5539 339.8866,-740.267 330.8631,-734.7149 329.3702,-741.5539"/>
</g>
<!-- GO:0097159 -->
<g id="node20" class="node">
<title>GO:0097159</title>
<polygon fill="#ffffff" stroke="#000000" points="378.0265,-692.2014 221.0037,-692.2014 221.0037,-633.3986 378.0265,-633.3986 378.0265,-692.2014"/>
<text text-anchor="middle" x="299.5151" y="-675.4" font-family="Times,serif" font-size="14.00" fill="#000000">GO:0097159</text>
<text text-anchor="middle" x="299.5151" y="-658.6" font-family="Times,serif" font-size="14.00" fill="#000000">organic cyclic compound</text>
<text text-anchor="middle" x="299.5151" y="-641.8" font-family="Times,serif" font-size="14.00" fill="#000000">binding</text>
</g>
<!-- GO:1901265&#45;&gt;GO:0097159 -->
<g id="edge20" class="edge">
<title>GO:1901265&#45;&gt;GO:0097159</title>
<path fill="none" stroke="#000000" d="M350.1693,-589.4584C342.5194,-600.5346 333.7137,-613.2844 325.612,-625.0146"/>
<polygon fill="#000000" stroke="#000000" points="322.6669,-623.12 319.8638,-633.3373 328.4267,-627.0981 322.6669,-623.12"/>
</g>
<!-- GO:1901363 -->
<g id="node21" class="node">
<title>GO:1901363</title>
<polygon fill="#ffffff" stroke="#000000" points="543.0257,-692.2014 396.0045,-692.2014 396.0045,-633.3986 543.0257,-633.3986 543.0257,-692.2014"/>
<text text-anchor="middle" x="469.5151" y="-675.4" font-family="Times,serif" font-size="14.00" fill="#000000">GO:1901363</text>
<text text-anchor="middle" x="469.5151" y="-658.6" font-family="Times,serif" font-size="14.00" fill="#000000">heterocyclic compound</text>
<text text-anchor="middle" x="469.5151" y="-641.8" font-family="Times,serif" font-size="14.00" fill="#000000">binding</text>
</g>
<!-- GO:1901265&#45;&gt;GO:1901363 -->
<g id="edge21" class="edge">
<title>GO:1901265&#45;&gt;GO:1901363</title>
<path fill="none" stroke="#000000" d="M398.8845,-589.4584C409.862,-600.8572 422.5464,-614.0285 434.111,-626.0369"/>
<polygon fill="#000000" stroke="#000000" points="431.6838,-628.5622 441.1415,-633.3373 436.7259,-623.7065 431.6838,-628.5622"/>
</g>
<!-- GO:0097159&#45;&gt;GO:0005488 -->
<g id="edge22" class="edge">
<title>GO:0097159&#45;&gt;GO:0005488</title>
<path fill="none" stroke="#000000" d="M328.7673,-692.3963C337.8465,-701.5824 347.822,-711.6752 356.7938,-720.7526"/>
<polygon fill="#000000" stroke="#000000" points="354.5334,-723.4446 364.0524,-728.0966 359.5121,-718.5239 354.5334,-723.4446"/>
</g>
<!-- GO:1901363&#45;&gt;GO:0005488 -->
<g id="edge23" class="edge">
<title>GO:1901363&#45;&gt;GO:0005488</title>
<path fill="none" stroke="#000000" d="M440.2629,-692.3963C431.1837,-701.5824 421.2082,-711.6752 412.2364,-720.7526"/>
<polygon fill="#000000" stroke="#000000" points="409.5181,-718.5239 404.9778,-728.0966 414.4968,-723.4446 409.5181,-718.5239"/>
</g>
<!-- GO:0022804 -->
<g id="node22" class="node">
<title>GO:0022804</title>
<polygon fill="#ffffff" stroke="#000000" points="838.2363,-589.4014 698.7939,-589.4014 698.7939,-530.5986 838.2363,-530.5986 838.2363,-589.4014"/>
<text text-anchor="middle" x="768.5151" y="-572.6" font-family="Times,serif" font-size="14.00" fill="#000000">GO:0022804</text>
<text text-anchor="middle" x="768.5151" y="-555.8" font-family="Times,serif" font-size="14.00" fill="#000000">active transmembrane</text>
<text text-anchor="middle" x="768.5151" y="-539" font-family="Times,serif" font-size="14.00" fill="#000000">transporter activity</text>
</g>
<!-- GO:0022804&#45;&gt;GO:0022857 -->
<g id="edge24" class="edge">
<title>GO:0022804&#45;&gt;GO:0022857</title>
<path fill="none" stroke="#000000" d="M769.9479,-589.4584C770.4605,-599.9969 771.0467,-612.0505 771.5939,-623.2994"/>
<polygon fill="#000000" stroke="#000000" points="768.1003,-623.5192 772.0821,-633.3373 775.0921,-623.1791 768.1003,-623.5192"/>
</g>
<!-- GO:0004553 -->
<g id="node23" class="node">
<title>GO:0004553</title>
<polygon fill="#ffffff" stroke="#000000" points="1255.3795,-486.5003 1105.6507,-486.5003 1105.6507,-411.0997 1255.3795,-411.0997 1255.3795,-486.5003"/>
<text text-anchor="middle" x="1180.5151" y="-469.8" font-family="Times,serif" font-size="14.00" fill="#000000">GO:0004553</text>
<text text-anchor="middle" x="1180.5151" y="-453" font-family="Times,serif" font-size="14.00" fill="#000000">hydrolase activity,</text>
<text text-anchor="middle" x="1180.5151" y="-436.2" font-family="Times,serif" font-size="14.00" fill="#000000">hydrolyzing O&#45;glycosyl</text>
<text text-anchor="middle" x="1180.5151" y="-419.4" font-family="Times,serif" font-size="14.00" fill="#000000">compounds</text>
</g>
<!-- GO:0016798 -->
<g id="node24" class="node">
<title>GO:0016798</title>
<polygon fill="#ffffff" stroke="#000000" points="1258.111,-589.4014 1102.9192,-589.4014 1102.9192,-530.5986 1258.111,-530.5986 1258.111,-589.4014"/>
<text text-anchor="middle" x="1180.5151" y="-572.6" font-family="Times,serif" font-size="14.00" fill="#000000">GO:0016798</text>
<text text-anchor="middle" x="1180.5151" y="-555.8" font-family="Times,serif" font-size="14.00" fill="#000000">hydrolase activity,</text>
<text text-anchor="middle" x="1180.5151" y="-539" font-family="Times,serif" font-size="14.00" fill="#000000">acting on glycosyl bonds</text>
</g>
<!-- GO:0004553&#45;&gt;GO:0016798 -->
<g id="edge25" class="edge">
<title>GO:0004553&#45;&gt;GO:0016798</title>
<path fill="none" stroke="#000000" d="M1180.5151,-486.4472C1180.5151,-497.3338 1180.5151,-509.249 1180.5151,-520.2589"/>
<polygon fill="#000000" stroke="#000000" points="1177.0152,-520.4741 1180.5151,-530.4742 1184.0152,-520.4742 1177.0152,-520.4741"/>
</g>
<!-- GO:0016798&#45;&gt;GO:0016787 -->
<g id="edge26" class="edge">
<title>GO:0016798&#45;&gt;GO:0016787</title>
<path fill="none" stroke="#000000" d="M1180.5151,-589.4584C1180.5151,-602.7539 1180.5151,-618.4608 1180.5151,-631.9212"/>
<polygon fill="#000000" stroke="#000000" points="1177.0152,-632.1456 1180.5151,-642.1456 1184.0152,-632.1457 1177.0152,-632.1456"/>
</g>
<!-- GO:0097599 -->
<g id="node25" class="node">
<title>GO:0097599</title>
<polygon fill="#ffffff" stroke="#000000" points="1235.9867,-366.6019 1125.0435,-366.6019 1125.0435,-325.3981 1235.9867,-325.3981 1235.9867,-366.6019"/>
<text text-anchor="middle" x="1180.5151" y="-350.2" font-family="Times,serif" font-size="14.00" fill="#000000">GO:0097599</text>
<text text-anchor="middle" x="1180.5151" y="-333.4" font-family="Times,serif" font-size="14.00" fill="#000000">xylanase activity</text>
</g>
<!-- GO:0097599&#45;&gt;GO:0004553 -->
<g id="edge27" class="edge">
<title>GO:0097599&#45;&gt;GO:0004553</title>
<path fill="none" stroke="#000000" d="M1180.5151,-366.8031C1180.5151,-376.6045 1180.5151,-388.7396 1180.5151,-400.642"/>
<polygon fill="#000000" stroke="#000000" points="1177.0152,-400.9772 1180.5151,-410.9773 1184.0152,-400.9773 1177.0152,-400.9772"/>
</g>
<!-- GO:0042802 -->
<g id="node26" class="node">
<title>GO:0042802</title>
<polygon fill="#ffffff" stroke="#000000" points="681.1593,-580.6019 527.8709,-580.6019 527.8709,-539.3981 681.1593,-539.3981 681.1593,-580.6019"/>
<text text-anchor="middle" x="604.5151" y="-564.2" font-family="Times,serif" font-size="14.00" fill="#000000">GO:0042802</text>
<text text-anchor="middle" x="604.5151" y="-547.4" font-family="Times,serif" font-size="14.00" fill="#000000">identical protein binding</text>
</g>
<!-- GO:0005515 -->
<g id="node27" class="node">
<title>GO:0005515</title>
<polygon fill="#ffffff" stroke="#000000" points="662.4527,-683.4019 560.5775,-683.4019 560.5775,-642.1981 662.4527,-642.1981 662.4527,-683.4019"/>
<text text-anchor="middle" x="611.5151" y="-667" font-family="Times,serif" font-size="14.00" fill="#000000">GO:0005515</text>
<text text-anchor="middle" x="611.5151" y="-650.2" font-family="Times,serif" font-size="14.00" fill="#000000">protein binding</text>
</g>
<!-- GO:0042802&#45;&gt;GO:0005515 -->
<g id="edge28" class="edge">
<title>GO:0042802&#45;&gt;GO:0005515</title>
<path fill="none" stroke="#000000" d="M605.9317,-580.8031C606.9279,-595.4337 608.2782,-615.2642 609.4014,-631.7586"/>
<polygon fill="#000000" stroke="#000000" points="605.9293,-632.2887 610.1007,-642.0278 612.9131,-631.8131 605.9293,-632.2887"/>
</g>
<!-- GO:0005515&#45;&gt;GO:0005488 -->
<g id="edge29" class="edge">
<title>GO:0005515&#45;&gt;GO:0005488</title>
<path fill="none" stroke="#000000" d="M571.539,-683.4766C565.2365,-686.4766 558.7446,-689.4189 552.5151,-692 515.396,-707.3796 472.4644,-721.8394 439.292,-732.3205"/>
<polygon fill="#000000" stroke="#000000" points="437.824,-729.1126 429.3277,-735.4421 439.9168,-735.7924 437.824,-729.1126"/>
</g>
</g>
</svg>
