<?xml version="1.0" encoding="UTF-8" standalone="no"?>
<!DOCTYPE svg PUBLIC "-//W3C//DTD SVG 1.1//EN"
 "http://www.w3.org/Graphics/SVG/1.1/DTD/svg11.dtd">
<!-- Generated by graphviz version 2.40.1 (20161225.0304)
 -->
<!-- Title: G Pages: 1 -->
<svg width="1227pt" height="677pt"
 viewBox="0.00 0.00 1227.21 676.80" xmlns="http://www.w3.org/2000/svg" xmlns:xlink="http://www.w3.org/1999/xlink">
<g id="graph0" class="graph" transform="scale(1 1) rotate(0) translate(4 672.8)">
<title>G</title>
<polygon fill="#ffffff" stroke="transparent" points="-4,4 -4,-672.8 1223.208,-672.8 1223.208,4 -4,4"/>
<!-- GO:0005739 -->
<g id="node1" class="node">
<title>GO:0005739</title>
<polygon fill="#ffffff" stroke="#000000" points="311.419,-238.6019 212.5418,-238.6019 212.5418,-197.3981 311.419,-197.3981 311.419,-238.6019"/>
<text text-anchor="middle" x="261.9804" y="-222.2" font-family="Times,serif" font-size="14.00" fill="#000000">GO:0005739</text>
<text text-anchor="middle" x="261.9804" y="-205.4" font-family="Times,serif" font-size="14.00" fill="#000000">mitochondrion</text>
</g>
<!-- GO:0044444 -->
<g id="node2" class="node">
<title>GO:0044444</title>
<polygon fill="#ffffff" stroke="#000000" points="561.397,-427.4019 452.5638,-427.4019 452.5638,-386.1981 561.397,-386.1981 561.397,-427.4019"/>
<text text-anchor="middle" x="506.9804" y="-411" font-family="Times,serif" font-size="14.00" fill="#000000">GO:0044444</text>
<text text-anchor="middle" x="506.9804" y="-394.2" font-family="Times,serif" font-size="14.00" fill="#000000">cytoplasmic part</text>
</g>
<!-- GO:0005739&#45;&gt;GO:0044444 -->
<g id="edge1" class="edge">
<title>GO:0005739&#45;&gt;GO:0044444</title>
<path fill="none" stroke="#000000" d="M289.1358,-238.9263C333.7721,-273.3236 422.6082,-341.7817 471.9298,-379.7896"/>
<polygon fill="#000000" stroke="#000000" points="470.0194,-382.7361 480.0768,-386.0677 474.2922,-377.1914 470.0194,-382.7361"/>
</g>
<!-- GO:0043231 -->
<g id="node3" class="node">
<title>GO:0043231</title>
<polygon fill="#ffffff" stroke="#000000" points="291.3592,-341.8014 140.6016,-341.8014 140.6016,-282.9986 291.3592,-282.9986 291.3592,-341.8014"/>
<text text-anchor="middle" x="215.9804" y="-325" font-family="Times,serif" font-size="14.00" fill="#000000">GO:0043231</text>
<text text-anchor="middle" x="215.9804" y="-308.2" font-family="Times,serif" font-size="14.00" fill="#000000">intracellular membrane&#45;</text>
<text text-anchor="middle" x="215.9804" y="-291.4" font-family="Times,serif" font-size="14.00" fill="#000000">bounded organelle</text>
</g>
<!-- GO:0005739&#45;&gt;GO:0043231 -->
<g id="edge2" class="edge">
<title>GO:0005739&#45;&gt;GO:0043231</title>
<path fill="none" stroke="#000000" d="M251.7715,-238.9504C246.8008,-249.1512 240.6613,-261.7505 234.8792,-273.6164"/>
<polygon fill="#000000" stroke="#000000" points="231.582,-272.3928 230.3478,-282.9155 237.8747,-275.4592 231.582,-272.3928"/>
</g>
<!-- GO:0044424 -->
<g id="node4" class="node">
<title>GO:0044424</title>
<polygon fill="#ffffff" stroke="#000000" points="653.3788,-513.4019 544.582,-513.4019 544.582,-472.1981 653.3788,-472.1981 653.3788,-513.4019"/>
<text text-anchor="middle" x="598.9804" y="-497" font-family="Times,serif" font-size="14.00" fill="#000000">GO:0044424</text>
<text text-anchor="middle" x="598.9804" y="-480.2" font-family="Times,serif" font-size="14.00" fill="#000000">intracellular part</text>
</g>
<!-- GO:0044444&#45;&gt;GO:0044424 -->
<g id="edge3" class="edge">
<title>GO:0044444&#45;&gt;GO:0044424</title>
<path fill="none" stroke="#000000" d="M529.251,-427.6182C541.3426,-438.9212 556.4465,-453.0401 569.5025,-465.2446"/>
<polygon fill="#000000" stroke="#000000" points="567.2195,-467.9015 576.9149,-472.1735 571.9997,-462.7878 567.2195,-467.9015"/>
</g>
<!-- GO:0043229 -->
<g id="node5" class="node">
<title>GO:0043229</title>
<polygon fill="#ffffff" stroke="#000000" points="285.6988,-427.4019 146.262,-427.4019 146.262,-386.1981 285.6988,-386.1981 285.6988,-427.4019"/>
<text text-anchor="middle" x="215.9804" y="-411" font-family="Times,serif" font-size="14.00" fill="#000000">GO:0043229</text>
<text text-anchor="middle" x="215.9804" y="-394.2" font-family="Times,serif" font-size="14.00" fill="#000000">intracellular organelle</text>
</g>
<!-- GO:0043231&#45;&gt;GO:0043229 -->
<g id="edge4" class="edge">
<title>GO:0043231&#45;&gt;GO:0043229</title>
<path fill="none" stroke="#000000" d="M215.9804,-341.7513C215.9804,-352.6614 215.9804,-365.0637 215.9804,-376.092"/>
<polygon fill="#000000" stroke="#000000" points="212.4805,-376.1509 215.9804,-386.151 219.4805,-376.151 212.4805,-376.1509"/>
</g>
<!-- GO:0043227 -->
<g id="node6" class="node">
<title>GO:0043227</title>
<polygon fill="#ffffff" stroke="#000000" points="127.9412,-436.2014 .0196,-436.2014 .0196,-377.3986 127.9412,-377.3986 127.9412,-436.2014"/>
<text text-anchor="middle" x="63.9804" y="-419.4" font-family="Times,serif" font-size="14.00" fill="#000000">GO:0043227</text>
<text text-anchor="middle" x="63.9804" y="-402.6" font-family="Times,serif" font-size="14.00" fill="#000000">membrane&#45;bounded</text>
<text text-anchor="middle" x="63.9804" y="-385.8" font-family="Times,serif" font-size="14.00" fill="#000000">organelle</text>
</g>
<!-- GO:0043231&#45;&gt;GO:0043227 -->
<g id="edge5" class="edge">
<title>GO:0043231&#45;&gt;GO:0043227</title>
<path fill="none" stroke="#000000" d="M168.7199,-341.7513C153.2783,-351.3413 135.9804,-362.0842 119.9604,-372.0335"/>
<polygon fill="#000000" stroke="#000000" points="117.8602,-369.2177 111.2117,-377.4669 121.5533,-375.1642 117.8602,-369.2177"/>
</g>
<!-- GO:0044464 -->
<g id="node7" class="node">
<title>GO:0044464</title>
<polygon fill="#ffffff" stroke="#000000" points="798.5843,-591.0019 709.3765,-591.0019 709.3765,-549.7981 798.5843,-549.7981 798.5843,-591.0019"/>
<text text-anchor="middle" x="753.9804" y="-574.6" font-family="Times,serif" font-size="14.00" fill="#000000">GO:0044464</text>
<text text-anchor="middle" x="753.9804" y="-557.8" font-family="Times,serif" font-size="14.00" fill="#000000">cell part</text>
</g>
<!-- GO:0044424&#45;&gt;GO:0044464 -->
<g id="edge6" class="edge">
<title>GO:0044424&#45;&gt;GO:0044464</title>
<path fill="none" stroke="#000000" d="M640.5176,-513.5954C659.8807,-523.2895 683.0924,-534.9102 703.4624,-545.1084"/>
<polygon fill="#000000" stroke="#000000" points="702.0887,-548.3348 712.5976,-549.6819 705.2225,-542.0754 702.0887,-548.3348"/>
</g>
<!-- GO:0043229&#45;&gt;GO:0044424 -->
<g id="edge7" class="edge">
<title>GO:0043229&#45;&gt;GO:0044424</title>
<path fill="none" stroke="#000000" d="M267.3402,-427.5127C276.446,-430.6863 285.9158,-433.6742 294.9804,-436 396.8086,-462.1273 428.7572,-447.8319 534.7089,-471.8984"/>
<polygon fill="#000000" stroke="#000000" points="533.9746,-475.321 544.5083,-474.1844 535.5649,-468.504 533.9746,-475.321"/>
</g>
<!-- GO:0043226 -->
<g id="node8" class="node">
<title>GO:0043226</title>
<polygon fill="#ffffff" stroke="#000000" points="260.5843,-513.4019 171.3765,-513.4019 171.3765,-472.1981 260.5843,-472.1981 260.5843,-513.4019"/>
<text text-anchor="middle" x="215.9804" y="-497" font-family="Times,serif" font-size="14.00" fill="#000000">GO:0043226</text>
<text text-anchor="middle" x="215.9804" y="-480.2" font-family="Times,serif" font-size="14.00" fill="#000000">organelle</text>
</g>
<!-- GO:0043229&#45;&gt;GO:0043226 -->
<g id="edge8" class="edge">
<title>GO:0043229&#45;&gt;GO:0043226</title>
<path fill="none" stroke="#000000" d="M215.9804,-427.6182C215.9804,-437.9705 215.9804,-450.6848 215.9804,-462.1271"/>
<polygon fill="#000000" stroke="#000000" points="212.4805,-462.1735 215.9804,-472.1735 219.4805,-462.1735 212.4805,-462.1735"/>
</g>
<!-- GO:0043227&#45;&gt;GO:0043226 -->
<g id="edge9" class="edge">
<title>GO:0043227&#45;&gt;GO:0043226</title>
<path fill="none" stroke="#000000" d="M115.865,-436.1558C133.5883,-446.1834 153.2634,-457.3154 170.448,-467.0383"/>
<polygon fill="#000000" stroke="#000000" points="168.7569,-470.1028 179.1839,-471.9809 172.204,-464.0103 168.7569,-470.1028"/>
</g>
<!-- GO:0005575 -->
<g id="node9" class="node">
<title>GO:0005575</title>
<polygon fill="#ffffff" stroke="#000000" points="693.6671,-668.6019 566.2937,-668.6019 566.2937,-627.3981 693.6671,-627.3981 693.6671,-668.6019"/>
<text text-anchor="middle" x="629.9804" y="-652.2" font-family="Times,serif" font-size="14.00" fill="#000000">GO:0005575</text>
<text text-anchor="middle" x="629.9804" y="-635.4" font-family="Times,serif" font-size="14.00" fill="#000000">cellular_component</text>
</g>
<!-- GO:0044464&#45;&gt;GO:0005575 -->
<g id="edge10" class="edge">
<title>GO:0044464&#45;&gt;GO:0005575</title>
<path fill="none" stroke="#000000" d="M720.7507,-591.1954C705.7393,-600.5896 687.8367,-611.7931 671.9135,-621.758"/>
<polygon fill="#000000" stroke="#000000" points="669.922,-618.8753 663.3019,-627.1472 673.6355,-624.8092 669.922,-618.8753"/>
</g>
<!-- GO:0043226&#45;&gt;GO:0005575 -->
<g id="edge11" class="edge">
<title>GO:0043226&#45;&gt;GO:0005575</title>
<path fill="none" stroke="#000000" d="M248.7024,-513.5403C284.6033,-535.5108 344.5182,-569.905 399.9804,-591.2 450.7771,-610.7037 510.4951,-625.218 556.3486,-634.6912"/>
<polygon fill="#000000" stroke="#000000" points="555.7124,-638.1334 566.2092,-636.6951 557.1065,-631.2736 555.7124,-638.1334"/>
</g>
<!-- GO:0031966 -->
<g id="node10" class="node">
<title>GO:0031966</title>
<polygon fill="#ffffff" stroke="#000000" points="489.6089,-238.6019 332.3519,-238.6019 332.3519,-197.3981 489.6089,-197.3981 489.6089,-238.6019"/>
<text text-anchor="middle" x="410.9804" y="-222.2" font-family="Times,serif" font-size="14.00" fill="#000000">GO:0031966</text>
<text text-anchor="middle" x="410.9804" y="-205.4" font-family="Times,serif" font-size="14.00" fill="#000000">mitochondrial membrane</text>
</g>
<!-- GO:0044429 -->
<g id="node11" class="node">
<title>GO:0044429</title>
<polygon fill="#ffffff" stroke="#000000" points="660.7892,-333.0019 541.1716,-333.0019 541.1716,-291.7981 660.7892,-291.7981 660.7892,-333.0019"/>
<text text-anchor="middle" x="600.9804" y="-316.6" font-family="Times,serif" font-size="14.00" fill="#000000">GO:0044429</text>
<text text-anchor="middle" x="600.9804" y="-299.8" font-family="Times,serif" font-size="14.00" fill="#000000">mitochondrial part</text>
</g>
<!-- GO:0031966&#45;&gt;GO:0044429 -->
<g id="edge12" class="edge">
<title>GO:0031966&#45;&gt;GO:0044429</title>
<path fill="none" stroke="#000000" d="M452.6767,-238.7165C481.3857,-252.9803 519.6972,-272.0151 550.1888,-287.1646"/>
<polygon fill="#000000" stroke="#000000" points="548.8685,-290.4167 559.3814,-291.7318 551.9831,-284.1478 548.8685,-290.4167"/>
</g>
<!-- GO:0031090 -->
<g id="node12" class="node">
<title>GO:0031090</title>
<polygon fill="#ffffff" stroke="#000000" points="434.152,-427.4019 303.8088,-427.4019 303.8088,-386.1981 434.152,-386.1981 434.152,-427.4019"/>
<text text-anchor="middle" x="368.9804" y="-411" font-family="Times,serif" font-size="14.00" fill="#000000">GO:0031090</text>
<text text-anchor="middle" x="368.9804" y="-394.2" font-family="Times,serif" font-size="14.00" fill="#000000">organelle membrane</text>
</g>
<!-- GO:0031966&#45;&gt;GO:0031090 -->
<g id="edge13" class="edge">
<title>GO:0031966&#45;&gt;GO:0031090</title>
<path fill="none" stroke="#000000" d="M406.3252,-238.9263C398.9262,-272.1865 384.4428,-337.2928 375.8493,-375.9227"/>
<polygon fill="#000000" stroke="#000000" points="372.3475,-375.5463 373.5924,-386.0677 379.1805,-377.0664 372.3475,-375.5463"/>
</g>
<!-- GO:0044429&#45;&gt;GO:0044444 -->
<g id="edge15" class="edge">
<title>GO:0044429&#45;&gt;GO:0044444</title>
<path fill="none" stroke="#000000" d="M580.1188,-333.3504C566.8536,-346.672 549.5154,-364.084 535.0497,-378.6112"/>
<polygon fill="#000000" stroke="#000000" points="532.3597,-376.3524 527.7837,-385.9081 537.3199,-381.2917 532.3597,-376.3524"/>
</g>
<!-- GO:0044446 -->
<g id="node13" class="node">
<title>GO:0044446</title>
<polygon fill="#ffffff" stroke="#000000" points="718.6988,-436.2014 579.262,-436.2014 579.262,-377.3986 718.6988,-377.3986 718.6988,-436.2014"/>
<text text-anchor="middle" x="648.9804" y="-419.4" font-family="Times,serif" font-size="14.00" fill="#000000">GO:0044446</text>
<text text-anchor="middle" x="648.9804" y="-402.6" font-family="Times,serif" font-size="14.00" fill="#000000">intracellular organelle</text>
<text text-anchor="middle" x="648.9804" y="-385.8" font-family="Times,serif" font-size="14.00" fill="#000000">part</text>
</g>
<!-- GO:0044429&#45;&gt;GO:0044446 -->
<g id="edge14" class="edge">
<title>GO:0044429&#45;&gt;GO:0044446</title>
<path fill="none" stroke="#000000" d="M611.6332,-333.3504C616.8714,-343.6522 623.3534,-356.4002 629.439,-368.3686"/>
<polygon fill="#000000" stroke="#000000" points="626.3359,-369.988 633.9883,-377.3155 632.5756,-366.8153 626.3359,-369.988"/>
</g>
<!-- GO:0016020 -->
<g id="node14" class="node">
<title>GO:0016020</title>
<polygon fill="#ffffff" stroke="#000000" points="498.5843,-591.0019 409.3765,-591.0019 409.3765,-549.7981 498.5843,-549.7981 498.5843,-591.0019"/>
<text text-anchor="middle" x="453.9804" y="-574.6" font-family="Times,serif" font-size="14.00" fill="#000000">GO:0016020</text>
<text text-anchor="middle" x="453.9804" y="-557.8" font-family="Times,serif" font-size="14.00" fill="#000000">membrane</text>
</g>
<!-- GO:0031090&#45;&gt;GO:0016020 -->
<g id="edge16" class="edge">
<title>GO:0031090&#45;&gt;GO:0016020</title>
<path fill="none" stroke="#000000" d="M379.6662,-427.707C390.7021,-449.2617 408.4526,-483.828 423.9804,-513.6 428.563,-522.3864 433.5788,-531.9166 438.1749,-540.6156"/>
<polygon fill="#000000" stroke="#000000" points="435.1868,-542.452 442.9572,-549.6543 441.3741,-539.1784 435.1868,-542.452"/>
</g>
<!-- GO:0044422 -->
<g id="node15" class="node">
<title>GO:0044422</title>
<polygon fill="#ffffff" stroke="#000000" points="526.8325,-513.4019 433.1283,-513.4019 433.1283,-472.1981 526.8325,-472.1981 526.8325,-513.4019"/>
<text text-anchor="middle" x="479.9804" y="-497" font-family="Times,serif" font-size="14.00" fill="#000000">GO:0044422</text>
<text text-anchor="middle" x="479.9804" y="-480.2" font-family="Times,serif" font-size="14.00" fill="#000000">organelle part</text>
</g>
<!-- GO:0031090&#45;&gt;GO:0044422 -->
<g id="edge17" class="edge">
<title>GO:0031090&#45;&gt;GO:0044422</title>
<path fill="none" stroke="#000000" d="M395.8504,-427.6182C410.7118,-439.1325 429.3448,-453.5688 445.2954,-465.9269"/>
<polygon fill="#000000" stroke="#000000" points="443.3092,-468.8156 453.3578,-472.1735 447.5964,-463.2821 443.3092,-468.8156"/>
</g>
<!-- GO:0044446&#45;&gt;GO:0044424 -->
<g id="edge18" class="edge">
<title>GO:0044446&#45;&gt;GO:0044424</title>
<path fill="none" stroke="#000000" d="M631.7732,-436.3963C626.6995,-445.1231 621.1501,-454.6682 616.083,-463.3836"/>
<polygon fill="#000000" stroke="#000000" points="613.0178,-461.6923 611.0173,-472.0966 619.0693,-465.2107 613.0178,-461.6923"/>
</g>
<!-- GO:0044446&#45;&gt;GO:0044422 -->
<g id="edge19" class="edge">
<title>GO:0044446&#45;&gt;GO:0044422</title>
<path fill="none" stroke="#000000" d="M591.2929,-436.1558C571.2337,-446.3634 548.9257,-457.7154 529.579,-467.5605"/>
<polygon fill="#000000" stroke="#000000" points="527.9557,-464.4594 520.6306,-472.1141 531.1304,-470.6981 527.9557,-464.4594"/>
</g>
<!-- GO:0016020&#45;&gt;GO:0005575 -->
<g id="edge20" class="edge">
<title>GO:0016020&#45;&gt;GO:0005575</title>
<path fill="none" stroke="#000000" d="M498.848,-590.1825C521.5952,-600.212 549.4506,-612.4937 573.6288,-623.1541"/>
<polygon fill="#000000" stroke="#000000" points="572.4802,-626.4727 583.0423,-627.3046 575.3043,-620.0676 572.4802,-626.4727"/>
</g>
<!-- GO:0044422&#45;&gt;GO:0005575 -->
<g id="edge21" class="edge">
<title>GO:0044422&#45;&gt;GO:0005575</title>
<path fill="none" stroke="#000000" d="M499.8992,-513.4094C526.3474,-540.7744 573.1627,-589.2127 602.8292,-619.9075"/>
<polygon fill="#000000" stroke="#000000" points="600.5129,-622.5472 609.9792,-627.3054 605.5462,-617.6825 600.5129,-622.5472"/>
</g>
<!-- GO:0005747 -->
<g id="node16" class="node">
<title>GO:0005747</title>
<polygon fill="#ffffff" stroke="#000000" points="948.1603,-58.6014 789.8005,-58.6014 789.8005,.2014 948.1603,.2014 948.1603,-58.6014"/>
<text text-anchor="middle" x="868.9804" y="-41.8" font-family="Times,serif" font-size="14.00" fill="#000000">GO:0005747</text>
<text text-anchor="middle" x="868.9804" y="-25" font-family="Times,serif" font-size="14.00" fill="#000000">mitochondrial respiratory</text>
<text text-anchor="middle" x="868.9804" y="-8.2" font-family="Times,serif" font-size="14.00" fill="#000000">chain complex I</text>
</g>
<!-- GO:0045271 -->
<g id="node17" class="node">
<title>GO:0045271</title>
<polygon fill="#ffffff" stroke="#000000" points="1053.1475,-153.0014 890.8133,-153.0014 890.8133,-94.1986 1053.1475,-94.1986 1053.1475,-153.0014"/>
<text text-anchor="middle" x="971.9804" y="-136.2" font-family="Times,serif" font-size="14.00" fill="#000000">GO:0045271</text>
<text text-anchor="middle" x="971.9804" y="-119.4" font-family="Times,serif" font-size="14.00" fill="#000000">respiratory chain complex</text>
<text text-anchor="middle" x="971.9804" y="-102.6" font-family="Times,serif" font-size="14.00" fill="#000000">I</text>
</g>
<!-- GO:0005747&#45;&gt;GO:0045271 -->
<g id="edge22" class="edge">
<title>GO:0005747&#45;&gt;GO:0045271</title>
<path fill="none" stroke="#000000" d="M901.0056,-58.5513C910.9849,-67.6973 922.1083,-77.892 932.5335,-87.4467"/>
<polygon fill="#000000" stroke="#000000" points="930.238,-90.0905 939.975,-94.2669 934.9676,-84.93 930.238,-90.0905"/>
</g>
<!-- GO:0098800 -->
<g id="node18" class="node">
<title>GO:0098800</title>
<polygon fill="#ffffff" stroke="#000000" points="861.9328,-153.0014 692.028,-153.0014 692.028,-94.1986 861.9328,-94.1986 861.9328,-153.0014"/>
<text text-anchor="middle" x="776.9804" y="-136.2" font-family="Times,serif" font-size="14.00" fill="#000000">GO:0098800</text>
<text text-anchor="middle" x="776.9804" y="-119.4" font-family="Times,serif" font-size="14.00" fill="#000000">inner mitochondrial</text>
<text text-anchor="middle" x="776.9804" y="-102.6" font-family="Times,serif" font-size="14.00" fill="#000000">membrane protein complex</text>
</g>
<!-- GO:0005747&#45;&gt;GO:0098800 -->
<g id="edge23" class="edge">
<title>GO:0005747&#45;&gt;GO:0098800</title>
<path fill="none" stroke="#000000" d="M840.3753,-58.5513C831.6349,-67.5198 821.9118,-77.4965 812.7576,-86.8894"/>
<polygon fill="#000000" stroke="#000000" points="810.0407,-84.6625 805.5678,-94.2669 815.0538,-89.5481 810.0407,-84.6625"/>
</g>
<!-- GO:0030964 -->
<g id="node19" class="node">
<title>GO:0030964</title>
<polygon fill="#ffffff" stroke="#000000" points="1214.8704,-247.4014 1071.0904,-247.4014 1071.0904,-188.5986 1214.8704,-188.5986 1214.8704,-247.4014"/>
<text text-anchor="middle" x="1142.9804" y="-230.6" font-family="Times,serif" font-size="14.00" fill="#000000">GO:0030964</text>
<text text-anchor="middle" x="1142.9804" y="-213.8" font-family="Times,serif" font-size="14.00" fill="#000000">NADH dehydrogenase</text>
<text text-anchor="middle" x="1142.9804" y="-197" font-family="Times,serif" font-size="14.00" fill="#000000">complex</text>
</g>
<!-- GO:0045271&#45;&gt;GO:0030964 -->
<g id="edge24" class="edge">
<title>GO:0045271&#45;&gt;GO:0030964</title>
<path fill="none" stroke="#000000" d="M1025.1485,-152.9513C1042.842,-162.7189 1062.7019,-173.6825 1081.0027,-183.7854"/>
<polygon fill="#000000" stroke="#000000" points="1079.399,-186.898 1089.8452,-188.6669 1082.7821,-180.7698 1079.399,-186.898"/>
</g>
<!-- GO:0098803 -->
<g id="node20" class="node">
<title>GO:0098803</title>
<polygon fill="#ffffff" stroke="#000000" points="1053.1475,-238.6019 890.8133,-238.6019 890.8133,-197.3981 1053.1475,-197.3981 1053.1475,-238.6019"/>
<text text-anchor="middle" x="971.9804" y="-222.2" font-family="Times,serif" font-size="14.00" fill="#000000">GO:0098803</text>
<text text-anchor="middle" x="971.9804" y="-205.4" font-family="Times,serif" font-size="14.00" fill="#000000">respiratory chain complex</text>
</g>
<!-- GO:0045271&#45;&gt;GO:0098803 -->
<g id="edge25" class="edge">
<title>GO:0045271&#45;&gt;GO:0098803</title>
<path fill="none" stroke="#000000" d="M971.9804,-152.9513C971.9804,-163.8614 971.9804,-176.2637 971.9804,-187.292"/>
<polygon fill="#000000" stroke="#000000" points="968.4805,-187.3509 971.9804,-197.351 975.4805,-187.351 968.4805,-187.3509"/>
</g>
<!-- GO:0044455 -->
<g id="node21" class="node">
<title>GO:0044455</title>
<polygon fill="#ffffff" stroke="#000000" points="679.6089,-247.4014 522.3519,-247.4014 522.3519,-188.5986 679.6089,-188.5986 679.6089,-247.4014"/>
<text text-anchor="middle" x="600.9804" y="-230.6" font-family="Times,serif" font-size="14.00" fill="#000000">GO:0044455</text>
<text text-anchor="middle" x="600.9804" y="-213.8" font-family="Times,serif" font-size="14.00" fill="#000000">mitochondrial membrane</text>
<text text-anchor="middle" x="600.9804" y="-197" font-family="Times,serif" font-size="14.00" fill="#000000">part</text>
</g>
<!-- GO:0098800&#45;&gt;GO:0044455 -->
<g id="edge26" class="edge">
<title>GO:0098800&#45;&gt;GO:0044455</title>
<path fill="none" stroke="#000000" d="M722.2577,-152.9513C703.964,-162.7633 683.4204,-173.7822 664.5136,-183.9231"/>
<polygon fill="#000000" stroke="#000000" points="662.8274,-180.8558 655.6693,-188.6669 666.1361,-187.0245 662.8274,-180.8558"/>
</g>
<!-- GO:0098796 -->
<g id="node22" class="node">
<title>GO:0098796</title>
<polygon fill="#ffffff" stroke="#000000" points="1048.9328,-333.0019 879.028,-333.0019 879.028,-291.7981 1048.9328,-291.7981 1048.9328,-333.0019"/>
<text text-anchor="middle" x="963.9804" y="-316.6" font-family="Times,serif" font-size="14.00" fill="#000000">GO:0098796</text>
<text text-anchor="middle" x="963.9804" y="-299.8" font-family="Times,serif" font-size="14.00" fill="#000000">membrane protein complex</text>
</g>
<!-- GO:0098800&#45;&gt;GO:0098796 -->
<g id="edge27" class="edge">
<title>GO:0098800&#45;&gt;GO:0098796</title>
<path fill="none" stroke="#000000" d="M810.1585,-153.0825C821.4465,-163.8231 833.778,-176.3863 843.9804,-188.8 863.6424,-212.7235 861.147,-224.2894 881.9804,-247.2 894.664,-261.1483 910.5201,-274.4906 924.9002,-285.4308"/>
<polygon fill="#000000" stroke="#000000" points="923.0499,-288.4168 933.1612,-291.5811 927.2301,-282.8019 923.0499,-288.4168"/>
</g>
<!-- GO:0098798 -->
<g id="node23" class="node">
<title>GO:0098798</title>
<polygon fill="#ffffff" stroke="#000000" points="834.6799,-247.4014 697.2809,-247.4014 697.2809,-188.5986 834.6799,-188.5986 834.6799,-247.4014"/>
<text text-anchor="middle" x="765.9804" y="-230.6" font-family="Times,serif" font-size="14.00" fill="#000000">GO:0098798</text>
<text text-anchor="middle" x="765.9804" y="-213.8" font-family="Times,serif" font-size="14.00" fill="#000000">mitochondrial protein</text>
<text text-anchor="middle" x="765.9804" y="-197" font-family="Times,serif" font-size="14.00" fill="#000000">complex</text>
</g>
<!-- GO:0098800&#45;&gt;GO:0098798 -->
<g id="edge28" class="edge">
<title>GO:0098800&#45;&gt;GO:0098798</title>
<path fill="none" stroke="#000000" d="M773.5602,-152.9513C772.6186,-161.0318 771.5817,-169.9308 770.585,-178.4838"/>
<polygon fill="#000000" stroke="#000000" points="767.0795,-178.3289 769.3985,-188.6669 774.0324,-179.1392 767.0795,-178.3289"/>
</g>
<!-- GO:0030964&#45;&gt;GO:0098796 -->
<g id="edge29" class="edge">
<title>GO:0030964&#45;&gt;GO:0098796</title>
<path fill="none" stroke="#000000" d="M1087.3249,-247.3513C1063.2248,-260.0611 1035.2851,-274.7957 1012.0975,-287.0243"/>
<polygon fill="#000000" stroke="#000000" points="1010.3474,-283.9903 1003.1348,-291.751 1013.6128,-290.182 1010.3474,-283.9903"/>
</g>
<!-- GO:1990204 -->
<g id="node24" class="node">
<title>GO:1990204</title>
<polygon fill="#ffffff" stroke="#000000" points="1219.4363,-333.0019 1066.5245,-333.0019 1066.5245,-291.7981 1219.4363,-291.7981 1219.4363,-333.0019"/>
<text text-anchor="middle" x="1142.9804" y="-316.6" font-family="Times,serif" font-size="14.00" fill="#000000">GO:1990204</text>
<text text-anchor="middle" x="1142.9804" y="-299.8" font-family="Times,serif" font-size="14.00" fill="#000000">oxidoreductase complex</text>
</g>
<!-- GO:0030964&#45;&gt;GO:1990204 -->
<g id="edge30" class="edge">
<title>GO:0030964&#45;&gt;GO:1990204</title>
<path fill="none" stroke="#000000" d="M1142.9804,-247.3513C1142.9804,-258.2614 1142.9804,-270.6637 1142.9804,-281.692"/>
<polygon fill="#000000" stroke="#000000" points="1139.4805,-281.7509 1142.9804,-291.751 1146.4805,-281.751 1139.4805,-281.7509"/>
</g>
<!-- GO:0098803&#45;&gt;GO:0098796 -->
<g id="edge31" class="edge">
<title>GO:0098803&#45;&gt;GO:0098796</title>
<path fill="none" stroke="#000000" d="M970.2049,-238.9504C969.1485,-251.4165 967.7885,-267.4645 966.6093,-281.3786"/>
<polygon fill="#000000" stroke="#000000" points="963.1079,-281.2483 965.7509,-291.5081 970.0829,-281.8394 963.1079,-281.2483"/>
</g>
<!-- GO:0044455&#45;&gt;GO:0044429 -->
<g id="edge33" class="edge">
<title>GO:0044455&#45;&gt;GO:0044429</title>
<path fill="none" stroke="#000000" d="M600.9804,-247.3513C600.9804,-258.2614 600.9804,-270.6637 600.9804,-281.692"/>
<polygon fill="#000000" stroke="#000000" points="597.4805,-281.7509 600.9804,-291.751 604.4805,-281.751 597.4805,-281.7509"/>
</g>
<!-- GO:0044425 -->
<g id="node25" class="node">
<title>GO:0044425</title>
<polygon fill="#ffffff" stroke="#000000" points="837.3324,-427.4019 736.6284,-427.4019 736.6284,-386.1981 837.3324,-386.1981 837.3324,-427.4019"/>
<text text-anchor="middle" x="786.9804" y="-411" font-family="Times,serif" font-size="14.00" fill="#000000">GO:0044425</text>
<text text-anchor="middle" x="786.9804" y="-394.2" font-family="Times,serif" font-size="14.00" fill="#000000">membrane part</text>
</g>
<!-- GO:0044455&#45;&gt;GO:0044425 -->
<g id="edge32" class="edge">
<title>GO:0044455&#45;&gt;GO:0044425</title>
<path fill="none" stroke="#000000" d="M632.9369,-247.4969C644.7186,-258.5541 658.0881,-271.3182 669.9804,-283.2 701.9939,-315.1852 737.5792,-353.1383 761.0041,-378.4703"/>
<polygon fill="#000000" stroke="#000000" points="758.5121,-380.9308 767.8661,-385.9062 763.6564,-376.1836 758.5121,-380.9308"/>
</g>
<!-- GO:0098796&#45;&gt;GO:0044425 -->
<g id="edge35" class="edge">
<title>GO:0098796&#45;&gt;GO:0044425</title>
<path fill="none" stroke="#000000" d="M925.137,-333.1165C898.5076,-347.3188 863.0097,-366.2511 834.6645,-381.3685"/>
<polygon fill="#000000" stroke="#000000" points="832.9097,-378.3377 825.7332,-386.1318 836.2038,-384.5142 832.9097,-378.3377"/>
</g>
<!-- GO:0043234 -->
<g id="node26" class="node">
<title>GO:0043234</title>
<polygon fill="#ffffff" stroke="#000000" points="952.8478,-513.4019 845.113,-513.4019 845.113,-472.1981 952.8478,-472.1981 952.8478,-513.4019"/>
<text text-anchor="middle" x="898.9804" y="-497" font-family="Times,serif" font-size="14.00" fill="#000000">GO:0043234</text>
<text text-anchor="middle" x="898.9804" y="-480.2" font-family="Times,serif" font-size="14.00" fill="#000000">protein complex</text>
</g>
<!-- GO:0098796&#45;&gt;GO:0043234 -->
<g id="edge34" class="edge">
<title>GO:0098796&#45;&gt;GO:0043234</title>
<path fill="none" stroke="#000000" d="M956.5241,-333.0942C945.0938,-364.8176 923.177,-425.6453 909.9377,-462.3892"/>
<polygon fill="#000000" stroke="#000000" points="906.5467,-461.4757 906.4496,-472.0701 913.1322,-463.8486 906.5467,-461.4757"/>
</g>
<!-- GO:0098798&#45;&gt;GO:0044429 -->
<g id="edge37" class="edge">
<title>GO:0098798&#45;&gt;GO:0044429</title>
<path fill="none" stroke="#000000" d="M714.6778,-247.3513C692.6593,-259.9486 667.1637,-274.5351 645.9026,-286.6991"/>
<polygon fill="#000000" stroke="#000000" points="644.0142,-283.7471 637.0724,-291.751 647.4904,-289.823 644.0142,-283.7471"/>
</g>
<!-- GO:0098798&#45;&gt;GO:0043234 -->
<g id="edge36" class="edge">
<title>GO:0098798&#45;&gt;GO:0043234</title>
<path fill="none" stroke="#000000" d="M781.0208,-247.2705C797.3254,-279.1696 823.9659,-331.7837 845.9804,-377.6 859.746,-406.2488 874.842,-439.2238 885.3895,-462.5335"/>
<polygon fill="#000000" stroke="#000000" points="882.3093,-464.2169 889.6142,-471.8908 888.6892,-461.3364 882.3093,-464.2169"/>
</g>
<!-- GO:1990204&#45;&gt;GO:0044464 -->
<g id="edge38" class="edge">
<title>GO:1990204&#45;&gt;GO:0044464</title>
<path fill="none" stroke="#000000" d="M1141.1933,-333.0117C1137.9272,-359.5262 1128.8464,-405.7581 1103.9804,-436 1015.0128,-544.202 944.0477,-508.9938 809.9804,-549.6 809.5213,-549.739 809.0606,-549.8799 808.5983,-550.0223"/>
<polygon fill="#000000" stroke="#000000" points="807.1771,-546.8038 798.7461,-553.22 809.3381,-553.4619 807.1771,-546.8038"/>
</g>
<!-- GO:1902494 -->
<g id="node27" class="node">
<title>GO:1902494</title>
<polygon fill="#ffffff" stroke="#000000" points="1094.6117,-427.4019 979.3491,-427.4019 979.3491,-386.1981 1094.6117,-386.1981 1094.6117,-427.4019"/>
<text text-anchor="middle" x="1036.9804" y="-411" font-family="Times,serif" font-size="14.00" fill="#000000">GO:1902494</text>
<text text-anchor="middle" x="1036.9804" y="-394.2" font-family="Times,serif" font-size="14.00" fill="#000000">catalytic complex</text>
</g>
<!-- GO:1990204&#45;&gt;GO:1902494 -->
<g id="edge39" class="edge">
<title>GO:1990204&#45;&gt;GO:1902494</title>
<path fill="none" stroke="#000000" d="M1119.7183,-333.1165C1104.5301,-346.6425 1084.5246,-364.4587 1067.9901,-379.1838"/>
<polygon fill="#000000" stroke="#000000" points="1065.3284,-376.8674 1060.1883,-386.1318 1069.9839,-382.0949 1065.3284,-376.8674"/>
</g>
<!-- GO:0044425&#45;&gt;GO:0005575 -->
<g id="edge40" class="edge">
<title>GO:0044425&#45;&gt;GO:0005575</title>
<path fill="none" stroke="#000000" d="M773.3223,-427.783C745.2996,-470.8345 681.2442,-569.2431 649.1083,-618.6138"/>
<polygon fill="#000000" stroke="#000000" points="646.0171,-616.947 643.4951,-627.2373 651.8837,-620.7657 646.0171,-616.947"/>
</g>
<!-- GO:0032991 -->
<g id="node28" class="node">
<title>GO:0032991</title>
<polygon fill="#ffffff" stroke="#000000" points="977.1477,-591.0019 818.8131,-591.0019 818.8131,-549.7981 977.1477,-549.7981 977.1477,-591.0019"/>
<text text-anchor="middle" x="897.9804" y="-574.6" font-family="Times,serif" font-size="14.00" fill="#000000">GO:0032991</text>
<text text-anchor="middle" x="897.9804" y="-557.8" font-family="Times,serif" font-size="14.00" fill="#000000">macromolecular complex</text>
</g>
<!-- GO:0043234&#45;&gt;GO:0032991 -->
<g id="edge41" class="edge">
<title>GO:0043234&#45;&gt;GO:0032991</title>
<path fill="none" stroke="#000000" d="M898.7124,-513.5954C898.6104,-521.5109 898.4919,-530.7109 898.3802,-539.3722"/>
<polygon fill="#000000" stroke="#000000" points="894.8784,-539.5029 898.2491,-549.5472 901.8778,-539.5932 894.8784,-539.5029"/>
</g>
<!-- GO:1902494&#45;&gt;GO:0043234 -->
<g id="edge42" class="edge">
<title>GO:1902494&#45;&gt;GO:0043234</title>
<path fill="none" stroke="#000000" d="M1003.5744,-427.6182C984.6743,-439.3966 960.8676,-454.2326 940.7432,-466.7739"/>
<polygon fill="#000000" stroke="#000000" points="938.7145,-463.9141 932.0787,-472.1735 942.4168,-469.855 938.7145,-463.9141"/>
</g>
<!-- GO:0032991&#45;&gt;GO:0005575 -->
<g id="edge43" class="edge">
<title>GO:0032991&#45;&gt;GO:0005575</title>
<path fill="none" stroke="#000000" d="M826.5134,-591.0934C788.6507,-602.0567 742.2017,-615.5061 703.968,-626.5767"/>
<polygon fill="#000000" stroke="#000000" points="702.5589,-623.3409 693.927,-629.4841 704.5059,-630.0647 702.5589,-623.3409"/>
</g>
</g>
</svg>
