<?xml version="1.0" encoding="UTF-8" standalone="no"?>
<!DOCTYPE svg PUBLIC "-//W3C//DTD SVG 1.1//EN"
 "http://www.w3.org/Graphics/SVG/1.1/DTD/svg11.dtd">
<!-- Generated by graphviz version 2.40.1 (20161225.0304)
 -->
<!-- Title: G Pages: 1 -->
<svg width="1012pt" height="555pt"
 viewBox="0.00 0.00 1011.97 555.20" xmlns="http://www.w3.org/2000/svg" xmlns:xlink="http://www.w3.org/1999/xlink">
<g id="graph0" class="graph" transform="scale(1 1) rotate(0) translate(4 551.2)">
<title>G</title>
<polygon fill="#ffffff" stroke="transparent" points="-4,4 -4,-551.2 1007.9699,-551.2 1007.9699,4 -4,4"/>
<!-- GO:0043169 -->
<g id="node1" class="node">
<title>GO:0043169</title>
<polygon fill="#ffffff" stroke="#000000" points="854.4512,-280.6019 757.4654,-280.6019 757.4654,-239.3981 854.4512,-239.3981 854.4512,-280.6019"/>
<text text-anchor="middle" x="805.9583" y="-264.2" font-family="Times,serif" font-size="14.00" fill="#000000">GO:0043169</text>
<text text-anchor="middle" x="805.9583" y="-247.4" font-family="Times,serif" font-size="14.00" fill="#000000">cation binding</text>
</g>
<!-- GO:0043167 -->
<g id="node2" class="node">
<title>GO:0043167</title>
<polygon fill="#ffffff" stroke="#000000" points="848.5622,-383.4019 759.3544,-383.4019 759.3544,-342.1981 848.5622,-342.1981 848.5622,-383.4019"/>
<text text-anchor="middle" x="803.9583" y="-367" font-family="Times,serif" font-size="14.00" fill="#000000">GO:0043167</text>
<text text-anchor="middle" x="803.9583" y="-350.2" font-family="Times,serif" font-size="14.00" fill="#000000">ion binding</text>
</g>
<!-- GO:0043169&#45;&gt;GO:0043167 -->
<g id="edge1" class="edge">
<title>GO:0043169&#45;&gt;GO:0043167</title>
<path fill="none" stroke="#000000" d="M805.5536,-280.8031C805.2689,-295.4337 804.8831,-315.2642 804.5622,-331.7586"/>
<polygon fill="#000000" stroke="#000000" points="801.0577,-331.9616 804.3624,-342.0278 808.0564,-332.0978 801.0577,-331.9616"/>
</g>
<!-- GO:0005488 -->
<g id="node3" class="node">
<title>GO:0005488</title>
<polygon fill="#ffffff" stroke="#000000" points="660.5622,-469.4019 571.3544,-469.4019 571.3544,-428.1981 660.5622,-428.1981 660.5622,-469.4019"/>
<text text-anchor="middle" x="615.9583" y="-453" font-family="Times,serif" font-size="14.00" fill="#000000">GO:0005488</text>
<text text-anchor="middle" x="615.9583" y="-436.2" font-family="Times,serif" font-size="14.00" fill="#000000">binding</text>
</g>
<!-- GO:0043167&#45;&gt;GO:0005488 -->
<g id="edge2" class="edge">
<title>GO:0043167&#45;&gt;GO:0005488</title>
<path fill="none" stroke="#000000" d="M766.7218,-383.5284C761.1468,-386.4586 755.4329,-389.3668 749.9583,-392 724.127,-404.4243 694.8761,-416.9909 670.3086,-427.1341"/>
<polygon fill="#000000" stroke="#000000" points="668.7144,-424.005 660.7917,-431.0392 671.3718,-430.481 668.7144,-424.005"/>
</g>
<!-- GO:0003674 -->
<g id="node4" class="node">
<title>GO:0003674</title>
<polygon fill="#ffffff" stroke="#000000" points="436.5914,-547.0019 311.3252,-547.0019 311.3252,-505.7981 436.5914,-505.7981 436.5914,-547.0019"/>
<text text-anchor="middle" x="373.9583" y="-530.6" font-family="Times,serif" font-size="14.00" fill="#000000">GO:0003674</text>
<text text-anchor="middle" x="373.9583" y="-513.8" font-family="Times,serif" font-size="14.00" fill="#000000">molecular_function</text>
</g>
<!-- GO:0005488&#45;&gt;GO:0003674 -->
<g id="edge3" class="edge">
<title>GO:0005488&#45;&gt;GO:0003674</title>
<path fill="none" stroke="#000000" d="M571.2897,-463.1235C536.2672,-474.3538 486.8245,-490.2082 446.1924,-503.2373"/>
<polygon fill="#000000" stroke="#000000" points="445.0557,-499.9262 436.602,-506.3126 447.1932,-506.5919 445.0557,-499.9262"/>
</g>
<!-- GO:0051539 -->
<g id="node5" class="node">
<title>GO:0051539</title>
<polygon fill="#ffffff" stroke="#000000" points="1003.9815,-169.8014 863.9351,-169.8014 863.9351,-110.9986 1003.9815,-110.9986 1003.9815,-169.8014"/>
<text text-anchor="middle" x="933.9583" y="-153" font-family="Times,serif" font-size="14.00" fill="#000000">GO:0051539</text>
<text text-anchor="middle" x="933.9583" y="-136.2" font-family="Times,serif" font-size="14.00" fill="#000000">4 iron, 4 sulfur cluster</text>
<text text-anchor="middle" x="933.9583" y="-119.4" font-family="Times,serif" font-size="14.00" fill="#000000">binding</text>
</g>
<!-- GO:0051536 -->
<g id="node6" class="node">
<title>GO:0051536</title>
<polygon fill="#ffffff" stroke="#000000" points="992.1425,-289.4014 875.7741,-289.4014 875.7741,-230.5986 992.1425,-230.5986 992.1425,-289.4014"/>
<text text-anchor="middle" x="933.9583" y="-272.6" font-family="Times,serif" font-size="14.00" fill="#000000">GO:0051536</text>
<text text-anchor="middle" x="933.9583" y="-255.8" font-family="Times,serif" font-size="14.00" fill="#000000">iron&#45;sulfur cluster</text>
<text text-anchor="middle" x="933.9583" y="-239" font-family="Times,serif" font-size="14.00" fill="#000000">binding</text>
</g>
<!-- GO:0051539&#45;&gt;GO:0051536 -->
<g id="edge4" class="edge">
<title>GO:0051539&#45;&gt;GO:0051536</title>
<path fill="none" stroke="#000000" d="M933.9583,-169.6575C933.9583,-184.8608 933.9583,-203.6644 933.9583,-220.1735"/>
<polygon fill="#000000" stroke="#000000" points="930.4584,-220.63 933.9583,-230.6301 937.4584,-220.6301 930.4584,-220.63"/>
</g>
<!-- GO:0051540 -->
<g id="node7" class="node">
<title>GO:0051540</title>
<polygon fill="#ffffff" stroke="#000000" points="1001.1562,-383.4019 866.7604,-383.4019 866.7604,-342.1981 1001.1562,-342.1981 1001.1562,-383.4019"/>
<text text-anchor="middle" x="933.9583" y="-367" font-family="Times,serif" font-size="14.00" fill="#000000">GO:0051540</text>
<text text-anchor="middle" x="933.9583" y="-350.2" font-family="Times,serif" font-size="14.00" fill="#000000">metal cluster binding</text>
</g>
<!-- GO:0051536&#45;&gt;GO:0051540 -->
<g id="edge5" class="edge">
<title>GO:0051536&#45;&gt;GO:0051540</title>
<path fill="none" stroke="#000000" d="M933.9583,-289.4584C933.9583,-302.7539 933.9583,-318.4608 933.9583,-331.9212"/>
<polygon fill="#000000" stroke="#000000" points="930.4584,-332.1456 933.9583,-342.1456 937.4584,-332.1457 930.4584,-332.1456"/>
</g>
<!-- GO:0051540&#45;&gt;GO:0005488 -->
<g id="edge6" class="edge">
<title>GO:0051540&#45;&gt;GO:0005488</title>
<path fill="none" stroke="#000000" d="M882.7795,-383.5513C874.5445,-386.5747 866.0637,-389.5044 857.9583,-392 794.4834,-411.5433 719.8681,-428.1165 670.4464,-438.2278"/>
<polygon fill="#000000" stroke="#000000" points="669.7071,-434.8063 660.6025,-440.2244 671.0987,-441.6666 669.7071,-434.8063"/>
</g>
<!-- GO:0016787 -->
<g id="node8" class="node">
<title>GO:0016787</title>
<polygon fill="#ffffff" stroke="#000000" points="115.8749,-383.4019 .0417,-383.4019 .0417,-342.1981 115.8749,-342.1981 115.8749,-383.4019"/>
<text text-anchor="middle" x="57.9583" y="-367" font-family="Times,serif" font-size="14.00" fill="#000000">GO:0016787</text>
<text text-anchor="middle" x="57.9583" y="-350.2" font-family="Times,serif" font-size="14.00" fill="#000000">hydrolase activity</text>
</g>
<!-- GO:0003824 -->
<g id="node9" class="node">
<title>GO:0003824</title>
<polygon fill="#ffffff" stroke="#000000" points="261.3707,-469.4019 152.5459,-469.4019 152.5459,-428.1981 261.3707,-428.1981 261.3707,-469.4019"/>
<text text-anchor="middle" x="206.9583" y="-453" font-family="Times,serif" font-size="14.00" fill="#000000">GO:0003824</text>
<text text-anchor="middle" x="206.9583" y="-436.2" font-family="Times,serif" font-size="14.00" fill="#000000">catalytic activity</text>
</g>
<!-- GO:0016787&#45;&gt;GO:0003824 -->
<g id="edge7" class="edge">
<title>GO:0016787&#45;&gt;GO:0003824</title>
<path fill="none" stroke="#000000" d="M94.027,-383.6182C114.6168,-395.5022 140.5995,-410.499 162.4503,-423.1108"/>
<polygon fill="#000000" stroke="#000000" points="160.8112,-426.2059 171.2217,-428.1735 164.3104,-420.1432 160.8112,-426.2059"/>
</g>
<!-- GO:0003824&#45;&gt;GO:0003674 -->
<g id="edge8" class="edge">
<title>GO:0003824&#45;&gt;GO:0003674</title>
<path fill="none" stroke="#000000" d="M251.7112,-469.5954C272.7615,-479.3768 298.0331,-491.1198 320.1216,-501.3837"/>
<polygon fill="#000000" stroke="#000000" points="318.828,-504.6419 329.3716,-505.6819 321.7778,-498.2938 318.828,-504.6419"/>
</g>
<!-- GO:0097159 -->
<g id="node10" class="node">
<title>GO:0097159</title>
<polygon fill="#ffffff" stroke="#000000" points="620.4697,-392.2014 463.4469,-392.2014 463.4469,-333.3986 620.4697,-333.3986 620.4697,-392.2014"/>
<text text-anchor="middle" x="541.9583" y="-375.4" font-family="Times,serif" font-size="14.00" fill="#000000">GO:0097159</text>
<text text-anchor="middle" x="541.9583" y="-358.6" font-family="Times,serif" font-size="14.00" fill="#000000">organic cyclic compound</text>
<text text-anchor="middle" x="541.9583" y="-341.8" font-family="Times,serif" font-size="14.00" fill="#000000">binding</text>
</g>
<!-- GO:0097159&#45;&gt;GO:0005488 -->
<g id="edge9" class="edge">
<title>GO:0097159&#45;&gt;GO:0005488</title>
<path fill="none" stroke="#000000" d="M567.4249,-392.3963C575.2501,-401.4905 583.8401,-411.4734 591.5899,-420.48"/>
<polygon fill="#000000" stroke="#000000" points="588.9682,-422.7993 598.1437,-428.0966 594.2743,-418.2336 588.9682,-422.7993"/>
</g>
<!-- GO:0047134 -->
<g id="node11" class="node">
<title>GO:0047134</title>
<polygon fill="#ffffff" stroke="#000000" points="216.3046,-58.6014 101.612,-58.6014 101.612,.2014 216.3046,.2014 216.3046,-58.6014"/>
<text text-anchor="middle" x="158.9583" y="-41.8" font-family="Times,serif" font-size="14.00" fill="#000000">GO:0047134</text>
<text text-anchor="middle" x="158.9583" y="-25" font-family="Times,serif" font-size="14.00" fill="#000000">protein&#45;disulfide</text>
<text text-anchor="middle" x="158.9583" y="-8.2" font-family="Times,serif" font-size="14.00" fill="#000000">reductase activity</text>
</g>
<!-- GO:0016668 -->
<g id="node12" class="node">
<title>GO:0016668</title>
<polygon fill="#ffffff" stroke="#000000" points="233.7005,-186.4 84.2161,-186.4 84.2161,-94.4 233.7005,-94.4 233.7005,-186.4"/>
<text text-anchor="middle" x="158.9583" y="-169.8" font-family="Times,serif" font-size="14.00" fill="#000000">GO:0016668</text>
<text text-anchor="middle" x="158.9583" y="-153" font-family="Times,serif" font-size="14.00" fill="#000000">oxidoreductase activity,</text>
<text text-anchor="middle" x="158.9583" y="-136.2" font-family="Times,serif" font-size="14.00" fill="#000000">acting on a sulfur group</text>
<text text-anchor="middle" x="158.9583" y="-119.4" font-family="Times,serif" font-size="14.00" fill="#000000">of donors, NAD(P) as</text>
<text text-anchor="middle" x="158.9583" y="-102.6" font-family="Times,serif" font-size="14.00" fill="#000000">acceptor</text>
</g>
<!-- GO:0047134&#45;&gt;GO:0016668 -->
<g id="edge10" class="edge">
<title>GO:0047134&#45;&gt;GO:0016668</title>
<path fill="none" stroke="#000000" d="M158.9583,-58.4165C158.9583,-66.3646 158.9583,-75.2491 158.9583,-84.1556"/>
<polygon fill="#000000" stroke="#000000" points="155.4584,-84.172 158.9583,-94.1721 162.4584,-84.1721 155.4584,-84.172"/>
</g>
<!-- GO:0016651 -->
<g id="node13" class="node">
<title>GO:0016651</title>
<polygon fill="#ffffff" stroke="#000000" points="317.6949,-289.4014 168.2217,-289.4014 168.2217,-230.5986 317.6949,-230.5986 317.6949,-289.4014"/>
<text text-anchor="middle" x="242.9583" y="-272.6" font-family="Times,serif" font-size="14.00" fill="#000000">GO:0016651</text>
<text text-anchor="middle" x="242.9583" y="-255.8" font-family="Times,serif" font-size="14.00" fill="#000000">oxidoreductase activity,</text>
<text text-anchor="middle" x="242.9583" y="-239" font-family="Times,serif" font-size="14.00" fill="#000000">acting on NAD(P)H</text>
</g>
<!-- GO:0016668&#45;&gt;GO:0016651 -->
<g id="edge11" class="edge">
<title>GO:0016668&#45;&gt;GO:0016651</title>
<path fill="none" stroke="#000000" d="M191.4349,-186.6405C199.6757,-198.3739 208.4329,-210.8424 216.3448,-222.1074"/>
<polygon fill="#000000" stroke="#000000" points="213.596,-224.2834 222.2077,-230.4551 219.3244,-220.2602 213.596,-224.2834"/>
</g>
<!-- GO:0016667 -->
<g id="node14" class="node">
<title>GO:0016667</title>
<polygon fill="#ffffff" stroke="#000000" points="149.7005,-297.7003 .2161,-297.7003 .2161,-222.2997 149.7005,-222.2997 149.7005,-297.7003"/>
<text text-anchor="middle" x="74.9583" y="-281" font-family="Times,serif" font-size="14.00" fill="#000000">GO:0016667</text>
<text text-anchor="middle" x="74.9583" y="-264.2" font-family="Times,serif" font-size="14.00" fill="#000000">oxidoreductase activity,</text>
<text text-anchor="middle" x="74.9583" y="-247.4" font-family="Times,serif" font-size="14.00" fill="#000000">acting on a sulfur group</text>
<text text-anchor="middle" x="74.9583" y="-230.6" font-family="Times,serif" font-size="14.00" fill="#000000">of donors</text>
</g>
<!-- GO:0016668&#45;&gt;GO:0016667 -->
<g id="edge12" class="edge">
<title>GO:0016668&#45;&gt;GO:0016667</title>
<path fill="none" stroke="#000000" d="M126.4817,-186.6405C120.1842,-195.6069 113.5852,-205.0027 107.2923,-213.9626"/>
<polygon fill="#000000" stroke="#000000" points="104.2559,-212.1962 101.3725,-222.3912 109.9842,-216.2195 104.2559,-212.1962"/>
</g>
<!-- GO:0016491 -->
<g id="node15" class="node">
<title>GO:0016491</title>
<polygon fill="#ffffff" stroke="#000000" points="280.1949,-383.4019 133.7217,-383.4019 133.7217,-342.1981 280.1949,-342.1981 280.1949,-383.4019"/>
<text text-anchor="middle" x="206.9583" y="-367" font-family="Times,serif" font-size="14.00" fill="#000000">GO:0016491</text>
<text text-anchor="middle" x="206.9583" y="-350.2" font-family="Times,serif" font-size="14.00" fill="#000000">oxidoreductase activity</text>
</g>
<!-- GO:0016651&#45;&gt;GO:0016491 -->
<g id="edge13" class="edge">
<title>GO:0016651&#45;&gt;GO:0016491</title>
<path fill="none" stroke="#000000" d="M232.6421,-289.4584C227.94,-302.8856 222.3766,-318.7721 217.6321,-332.3204"/>
<polygon fill="#000000" stroke="#000000" points="214.1932,-331.5508 214.1913,-342.1456 220.7999,-333.8644 214.1932,-331.5508"/>
</g>
<!-- GO:0016667&#45;&gt;GO:0016491 -->
<g id="edge14" class="edge">
<title>GO:0016667&#45;&gt;GO:0016491</title>
<path fill="none" stroke="#000000" d="M123.3607,-297.6952C139.6264,-310.3627 157.4304,-324.2283 172.4122,-335.8959"/>
<polygon fill="#000000" stroke="#000000" points="170.3771,-338.7472 180.4173,-342.1302 174.6782,-333.2244 170.3771,-338.7472"/>
</g>
<!-- GO:0016491&#45;&gt;GO:0003824 -->
<g id="edge15" class="edge">
<title>GO:0016491&#45;&gt;GO:0003824</title>
<path fill="none" stroke="#000000" d="M206.9583,-383.6182C206.9583,-393.9705 206.9583,-406.6848 206.9583,-418.1271"/>
<polygon fill="#000000" stroke="#000000" points="203.4584,-418.1735 206.9583,-428.1735 210.4584,-418.1735 203.4584,-418.1735"/>
</g>
<!-- GO:0003677 -->
<g id="node16" class="node">
<title>GO:0003677</title>
<polygon fill="#ffffff" stroke="#000000" points="515.0602,-161.0019 422.8564,-161.0019 422.8564,-119.7981 515.0602,-119.7981 515.0602,-161.0019"/>
<text text-anchor="middle" x="468.9583" y="-144.6" font-family="Times,serif" font-size="14.00" fill="#000000">GO:0003677</text>
<text text-anchor="middle" x="468.9583" y="-127.8" font-family="Times,serif" font-size="14.00" fill="#000000">DNA binding</text>
</g>
<!-- GO:0003676 -->
<g id="node17" class="node">
<title>GO:0003676</title>
<polygon fill="#ffffff" stroke="#000000" points="533.4852,-280.6019 404.4314,-280.6019 404.4314,-239.3981 533.4852,-239.3981 533.4852,-280.6019"/>
<text text-anchor="middle" x="468.9583" y="-264.2" font-family="Times,serif" font-size="14.00" fill="#000000">GO:0003676</text>
<text text-anchor="middle" x="468.9583" y="-247.4" font-family="Times,serif" font-size="14.00" fill="#000000">nucleic acid binding</text>
</g>
<!-- GO:0003677&#45;&gt;GO:0003676 -->
<g id="edge16" class="edge">
<title>GO:0003677&#45;&gt;GO:0003676</title>
<path fill="none" stroke="#000000" d="M468.9583,-161.2327C468.9583,-179.8973 468.9583,-207.5322 468.9583,-228.8278"/>
<polygon fill="#000000" stroke="#000000" points="465.4584,-229.0047 468.9583,-239.0047 472.4584,-229.0047 465.4584,-229.0047"/>
</g>
<!-- GO:0003676&#45;&gt;GO:0097159 -->
<g id="edge17" class="edge">
<title>GO:0003676&#45;&gt;GO:0097159</title>
<path fill="none" stroke="#000000" d="M483.7309,-280.8031C492.7162,-293.4563 504.4634,-309.999 515.0514,-324.9092"/>
<polygon fill="#000000" stroke="#000000" points="512.4783,-327.3308 521.1219,-333.4577 518.1857,-323.2779 512.4783,-327.3308"/>
</g>
<!-- GO:1901363 -->
<g id="node18" class="node">
<title>GO:1901363</title>
<polygon fill="#ffffff" stroke="#000000" points="445.4689,-392.2014 298.4477,-392.2014 298.4477,-333.3986 445.4689,-333.3986 445.4689,-392.2014"/>
<text text-anchor="middle" x="371.9583" y="-375.4" font-family="Times,serif" font-size="14.00" fill="#000000">GO:1901363</text>
<text text-anchor="middle" x="371.9583" y="-358.6" font-family="Times,serif" font-size="14.00" fill="#000000">heterocyclic compound</text>
<text text-anchor="middle" x="371.9583" y="-341.8" font-family="Times,serif" font-size="14.00" fill="#000000">binding</text>
</g>
<!-- GO:0003676&#45;&gt;GO:1901363 -->
<g id="edge18" class="edge">
<title>GO:0003676&#45;&gt;GO:1901363</title>
<path fill="none" stroke="#000000" d="M449.3289,-280.8031C437.0548,-293.8111 420.9021,-310.9297 406.5317,-326.1594"/>
<polygon fill="#000000" stroke="#000000" points="403.9624,-323.7824 399.6451,-333.4577 409.0537,-328.5865 403.9624,-323.7824"/>
</g>
<!-- GO:1901363&#45;&gt;GO:0005488 -->
<g id="edge19" class="edge">
<title>GO:1901363&#45;&gt;GO:0005488</title>
<path fill="none" stroke="#000000" d="M445.7095,-389.0817C448.4941,-390.0679 451.2511,-391.0434 453.9583,-392 489.866,-404.6882 530.289,-418.8613 561.7735,-429.8759"/>
<polygon fill="#000000" stroke="#000000" points="560.6479,-433.19 571.2427,-433.1876 562.9589,-426.5825 560.6479,-433.19"/>
</g>
<!-- GO:0042802 -->
<g id="node19" class="node">
<title>GO:0042802</title>
<polygon fill="#ffffff" stroke="#000000" points="739.6025,-280.6019 586.3141,-280.6019 586.3141,-239.3981 739.6025,-239.3981 739.6025,-280.6019"/>
<text text-anchor="middle" x="662.9583" y="-264.2" font-family="Times,serif" font-size="14.00" fill="#000000">GO:0042802</text>
<text text-anchor="middle" x="662.9583" y="-247.4" font-family="Times,serif" font-size="14.00" fill="#000000">identical protein binding</text>
</g>
<!-- GO:0005515 -->
<g id="node20" class="node">
<title>GO:0005515</title>
<polygon fill="#ffffff" stroke="#000000" points="740.8959,-383.4019 639.0207,-383.4019 639.0207,-342.1981 740.8959,-342.1981 740.8959,-383.4019"/>
<text text-anchor="middle" x="689.9583" y="-367" font-family="Times,serif" font-size="14.00" fill="#000000">GO:0005515</text>
<text text-anchor="middle" x="689.9583" y="-350.2" font-family="Times,serif" font-size="14.00" fill="#000000">protein binding</text>
</g>
<!-- GO:0042802&#45;&gt;GO:0005515 -->
<g id="edge20" class="edge">
<title>GO:0042802&#45;&gt;GO:0005515</title>
<path fill="none" stroke="#000000" d="M668.4222,-280.8031C672.3014,-295.573 677.5726,-315.6424 681.9289,-332.229"/>
<polygon fill="#000000" stroke="#000000" points="678.577,-333.245 684.5026,-342.0278 685.3474,-331.4667 678.577,-333.245"/>
</g>
<!-- GO:0005515&#45;&gt;GO:0005488 -->
<g id="edge21" class="edge">
<title>GO:0005515&#45;&gt;GO:0005488</title>
<path fill="none" stroke="#000000" d="M672.045,-383.6182C662.5009,-394.7099 650.6237,-408.5132 640.2593,-420.5583"/>
<polygon fill="#000000" stroke="#000000" points="637.5761,-418.3105 633.7067,-428.1735 642.8822,-422.8762 637.5761,-418.3105"/>
</g>
</g>
</svg>
