<?xml version="1.0" encoding="UTF-8" standalone="no"?>
<!DOCTYPE svg PUBLIC "-//W3C//DTD SVG 1.1//EN"
 "http://www.w3.org/Graphics/SVG/1.1/DTD/svg11.dtd">
<!-- Generated by graphviz version 2.40.1 (20161225.0304)
 -->
<!-- Title: G Pages: 1 -->
<svg width="759pt" height="410pt"
 viewBox="0.00 0.00 759.47 410.40" xmlns="http://www.w3.org/2000/svg" xmlns:xlink="http://www.w3.org/1999/xlink">
<g id="graph0" class="graph" transform="scale(1 1) rotate(0) translate(4 406.4)">
<title>G</title>
<polygon fill="#ffffff" stroke="transparent" points="-4,4 -4,-406.4 755.4692,-406.4 755.4692,4 -4,4"/>
<!-- GO:0044238 -->
<g id="node1" class="node">
<title>GO:0044238</title>
<polygon fill="#ff00ff" stroke="#000000" points="299.3456,-238.6019 135.3396,-238.6019 135.3396,-197.3981 299.3456,-197.3981 299.3456,-238.6019"/>
<text text-anchor="middle" x="217.3426" y="-222.2" font-family="Times,serif" font-size="14.00" fill="#000000">GO:0044238</text>
<text text-anchor="middle" x="217.3426" y="-205.4" font-family="Times,serif" font-size="14.00" fill="#000000">primary metabolic process</text>
</g>
<!-- GO:0008152 -->
<g id="node2" class="node">
<title>GO:0008152</title>
<polygon fill="#ffffff" stroke="#000000" points="294.5282,-324.6019 178.157,-324.6019 178.157,-283.3981 294.5282,-283.3981 294.5282,-324.6019"/>
<text text-anchor="middle" x="236.3426" y="-308.2" font-family="Times,serif" font-size="14.00" fill="#000000">GO:0008152</text>
<text text-anchor="middle" x="236.3426" y="-291.4" font-family="Times,serif" font-size="14.00" fill="#000000">metabolic process</text>
</g>
<!-- GO:0044238&#45;&gt;GO:0008152 -->
<g id="edge1" class="edge">
<title>GO:0044238&#45;&gt;GO:0008152</title>
<path fill="none" stroke="#000000" d="M221.942,-238.8182C224.2291,-249.1705 227.0381,-261.8848 229.566,-273.3271"/>
<polygon fill="#000000" stroke="#000000" points="226.2106,-274.3641 231.7856,-283.3735 233.0458,-272.8539 226.2106,-274.3641"/>
</g>
<!-- GO:0008150 -->
<g id="node3" class="node">
<title>GO:0008150</title>
<polygon fill="#ffffff" stroke="#000000" points="512.8132,-402.2019 391.872,-402.2019 391.872,-360.9981 512.8132,-360.9981 512.8132,-402.2019"/>
<text text-anchor="middle" x="452.3426" y="-385.8" font-family="Times,serif" font-size="14.00" fill="#000000">GO:0008150</text>
<text text-anchor="middle" x="452.3426" y="-369" font-family="Times,serif" font-size="14.00" fill="#000000">biological_process</text>
</g>
<!-- GO:0008152&#45;&gt;GO:0008150 -->
<g id="edge2" class="edge">
<title>GO:0008152&#45;&gt;GO:0008150</title>
<path fill="none" stroke="#000000" d="M293.9429,-324.6934C322.0133,-334.778 355.9392,-346.9662 385.1809,-357.4715"/>
<polygon fill="#000000" stroke="#000000" points="384.3084,-360.877 394.9028,-360.9642 386.6751,-354.2893 384.3084,-360.877"/>
</g>
<!-- GO:0044260 -->
<g id="node4" class="node">
<title>GO:0044260</title>
<polygon fill="#ffffff" stroke="#000000" points="290.115,-58.6014 142.5702,-58.6014 142.5702,.2014 290.115,.2014 290.115,-58.6014"/>
<text text-anchor="middle" x="216.3426" y="-41.8" font-family="Times,serif" font-size="14.00" fill="#000000">GO:0044260</text>
<text text-anchor="middle" x="216.3426" y="-25" font-family="Times,serif" font-size="14.00" fill="#000000">cellular macromolecule</text>
<text text-anchor="middle" x="216.3426" y="-8.2" font-family="Times,serif" font-size="14.00" fill="#000000">metabolic process</text>
</g>
<!-- GO:0044237 -->
<g id="node5" class="node">
<title>GO:0044237</title>
<polygon fill="#ffffff" stroke="#000000" points="434.5254,-247.4014 318.1598,-247.4014 318.1598,-188.5986 434.5254,-188.5986 434.5254,-247.4014"/>
<text text-anchor="middle" x="376.3426" y="-230.6" font-family="Times,serif" font-size="14.00" fill="#000000">GO:0044237</text>
<text text-anchor="middle" x="376.3426" y="-213.8" font-family="Times,serif" font-size="14.00" fill="#000000">cellular metabolic</text>
<text text-anchor="middle" x="376.3426" y="-197" font-family="Times,serif" font-size="14.00" fill="#000000">process</text>
</g>
<!-- GO:0044260&#45;&gt;GO:0044237 -->
<g id="edge3" class="edge">
<title>GO:0044260&#45;&gt;GO:0044237</title>
<path fill="none" stroke="#000000" d="M241.3426,-58.7C269.2877,-91.6752 314.5868,-145.1281 344.9092,-180.9086"/>
<polygon fill="#000000" stroke="#000000" points="342.3828,-183.341 351.5182,-188.7072 347.723,-178.8153 342.3828,-183.341"/>
</g>
<!-- GO:0043170 -->
<g id="node6" class="node">
<title>GO:0043170</title>
<polygon fill="#ffffff" stroke="#000000" points="242.8448,-153.0014 81.8404,-153.0014 81.8404,-94.1986 242.8448,-94.1986 242.8448,-153.0014"/>
<text text-anchor="middle" x="162.3426" y="-136.2" font-family="Times,serif" font-size="14.00" fill="#000000">GO:0043170</text>
<text text-anchor="middle" x="162.3426" y="-119.4" font-family="Times,serif" font-size="14.00" fill="#000000">macromolecule metabolic</text>
<text text-anchor="middle" x="162.3426" y="-102.6" font-family="Times,serif" font-size="14.00" fill="#000000">process</text>
</g>
<!-- GO:0044260&#45;&gt;GO:0043170 -->
<g id="edge4" class="edge">
<title>GO:0044260&#45;&gt;GO:0043170</title>
<path fill="none" stroke="#000000" d="M199.5527,-58.5513C194.6764,-67.0758 189.279,-76.5111 184.1426,-85.4904"/>
<polygon fill="#000000" stroke="#000000" points="181.0495,-83.8488 179.1221,-94.2669 187.1256,-87.3246 181.0495,-83.8488"/>
</g>
<!-- GO:0044237&#45;&gt;GO:0008152 -->
<g id="edge6" class="edge">
<title>GO:0044237&#45;&gt;GO:0008152</title>
<path fill="none" stroke="#000000" d="M328.5541,-247.3558C312.5296,-257.1994 294.7726,-268.1073 279.1539,-277.7017"/>
<polygon fill="#000000" stroke="#000000" points="276.9229,-274.9644 270.2341,-283.1809 280.5868,-280.929 276.9229,-274.9644"/>
</g>
<!-- GO:0009987 -->
<g id="node7" class="node">
<title>GO:0009987</title>
<polygon fill="#ffffff" stroke="#000000" points="431.2988,-324.6019 327.3864,-324.6019 327.3864,-283.3981 431.2988,-283.3981 431.2988,-324.6019"/>
<text text-anchor="middle" x="379.3426" y="-308.2" font-family="Times,serif" font-size="14.00" fill="#000000">GO:0009987</text>
<text text-anchor="middle" x="379.3426" y="-291.4" font-family="Times,serif" font-size="14.00" fill="#000000">cellular process</text>
</g>
<!-- GO:0044237&#45;&gt;GO:0009987 -->
<g id="edge5" class="edge">
<title>GO:0044237&#45;&gt;GO:0009987</title>
<path fill="none" stroke="#000000" d="M377.375,-247.5963C377.6634,-255.8638 377.9775,-264.8657 378.2682,-273.2008"/>
<polygon fill="#000000" stroke="#000000" points="374.7738,-273.4247 378.6204,-283.2966 381.7695,-273.1806 374.7738,-273.4247"/>
</g>
<!-- GO:0071704 -->
<g id="node8" class="node">
<title>GO:0071704</title>
<polygon fill="#ff00ff" stroke="#000000" points="116.5282,-247.4014 .157,-247.4014 .157,-188.5986 116.5282,-188.5986 116.5282,-247.4014"/>
<text text-anchor="middle" x="58.3426" y="-230.6" font-family="Times,serif" font-size="14.00" fill="#000000">GO:0071704</text>
<text text-anchor="middle" x="58.3426" y="-213.8" font-family="Times,serif" font-size="14.00" fill="#000000">organic substance</text>
<text text-anchor="middle" x="58.3426" y="-197" font-family="Times,serif" font-size="14.00" fill="#000000">metabolic process</text>
</g>
<!-- GO:0043170&#45;&gt;GO:0071704 -->
<g id="edge7" class="edge">
<title>GO:0043170&#45;&gt;GO:0071704</title>
<path fill="none" stroke="#000000" d="M130.0064,-152.9513C119.9303,-162.0973 108.6989,-172.292 98.1725,-181.8467"/>
<polygon fill="#000000" stroke="#000000" points="95.711,-179.3542 90.6588,-188.6669 100.4157,-184.5374 95.711,-179.3542"/>
</g>
<!-- GO:0009987&#45;&gt;GO:0008150 -->
<g id="edge8" class="edge">
<title>GO:0009987&#45;&gt;GO:0008150</title>
<path fill="none" stroke="#000000" d="M398.9053,-324.7954C407.1698,-333.5807 416.9229,-343.9484 425.8195,-353.4056"/>
<polygon fill="#000000" stroke="#000000" points="423.3247,-355.8617 432.7259,-360.7472 428.4233,-351.0654 423.3247,-355.8617"/>
</g>
<!-- GO:0071704&#45;&gt;GO:0008152 -->
<g id="edge9" class="edge">
<title>GO:0071704&#45;&gt;GO:0008152</title>
<path fill="none" stroke="#000000" d="M116.6265,-246.1596C138.4418,-256.6996 163.0636,-268.5955 184.2805,-278.8464"/>
<polygon fill="#000000" stroke="#000000" points="182.9291,-282.0805 193.4559,-283.2794 185.9743,-275.7776 182.9291,-282.0805"/>
</g>
<!-- GO:0065007 -->
<g id="node9" class="node">
<title>GO:0065007</title>
<polygon fill="#ffffff" stroke="#000000" points="751.596,-324.6019 619.0892,-324.6019 619.0892,-283.3981 751.596,-283.3981 751.596,-324.6019"/>
<text text-anchor="middle" x="685.3426" y="-308.2" font-family="Times,serif" font-size="14.00" fill="#000000">GO:0065007</text>
<text text-anchor="middle" x="685.3426" y="-291.4" font-family="Times,serif" font-size="14.00" fill="#000000">biological regulation</text>
</g>
<!-- GO:0065007&#45;&gt;GO:0008150 -->
<g id="edge10" class="edge">
<title>GO:0065007&#45;&gt;GO:0008150</title>
<path fill="none" stroke="#000000" d="M623.209,-324.6934C592.2995,-334.9877 554.8082,-347.4741 522.8286,-358.1248"/>
<polygon fill="#000000" stroke="#000000" points="521.4759,-354.8863 513.0942,-361.3669 523.6878,-361.5276 521.4759,-354.8863"/>
</g>
<!-- GO:0044763 -->
<g id="node10" class="node">
<title>GO:0044763</title>
<polygon fill="#ffffff" stroke="#000000" points="604.0211,-247.4014 452.6641,-247.4014 452.6641,-188.5986 604.0211,-188.5986 604.0211,-247.4014"/>
<text text-anchor="middle" x="528.3426" y="-230.6" font-family="Times,serif" font-size="14.00" fill="#000000">GO:0044763</text>
<text text-anchor="middle" x="528.3426" y="-213.8" font-family="Times,serif" font-size="14.00" fill="#000000">single&#45;organism cellular</text>
<text text-anchor="middle" x="528.3426" y="-197" font-family="Times,serif" font-size="14.00" fill="#000000">process</text>
</g>
<!-- GO:0044763&#45;&gt;GO:0009987 -->
<g id="edge11" class="edge">
<title>GO:0044763&#45;&gt;GO:0009987</title>
<path fill="none" stroke="#000000" d="M477.482,-247.3558C460.268,-257.2914 441.1755,-268.3112 424.4405,-277.9703"/>
<polygon fill="#000000" stroke="#000000" points="422.3241,-275.1507 415.4128,-283.1809 425.8234,-281.2133 422.3241,-275.1507"/>
</g>
<!-- GO:0044699 -->
<g id="node11" class="node">
<title>GO:0044699</title>
<polygon fill="#ffffff" stroke="#000000" points="601.0239,-324.6019 449.6613,-324.6019 449.6613,-283.3981 601.0239,-283.3981 601.0239,-324.6019"/>
<text text-anchor="middle" x="525.3426" y="-308.2" font-family="Times,serif" font-size="14.00" fill="#000000">GO:0044699</text>
<text text-anchor="middle" x="525.3426" y="-291.4" font-family="Times,serif" font-size="14.00" fill="#000000">single&#45;organism process</text>
</g>
<!-- GO:0044763&#45;&gt;GO:0044699 -->
<g id="edge12" class="edge">
<title>GO:0044763&#45;&gt;GO:0044699</title>
<path fill="none" stroke="#000000" d="M527.3102,-247.5963C527.0218,-255.8638 526.7077,-264.8657 526.417,-273.2008"/>
<polygon fill="#000000" stroke="#000000" points="522.9157,-273.1806 526.0648,-283.2966 529.9114,-273.4247 522.9157,-273.1806"/>
</g>
<!-- GO:0044699&#45;&gt;GO:0008150 -->
<g id="edge13" class="edge">
<title>GO:0044699&#45;&gt;GO:0008150</title>
<path fill="none" stroke="#000000" d="M505.7799,-324.7954C497.5154,-333.5807 487.7623,-343.9484 478.8657,-353.4056"/>
<polygon fill="#000000" stroke="#000000" points="476.2619,-351.0654 471.9593,-360.7472 481.3605,-355.8617 476.2619,-351.0654"/>
</g>
</g>
</svg>
