<?xml version="1.0" encoding="UTF-8" standalone="no"?>
<!DOCTYPE svg PUBLIC "-//W3C//DTD SVG 1.1//EN"
 "http://www.w3.org/Graphics/SVG/1.1/DTD/svg11.dtd">
<!-- Generated by graphviz version 2.40.1 (20161225.0304)
 -->
<!-- Title: G Pages: 1 -->
<svg width="346pt" height="282pt"
 viewBox="0.00 0.00 346.01 282.40" xmlns="http://www.w3.org/2000/svg" xmlns:xlink="http://www.w3.org/1999/xlink">
<g id="graph0" class="graph" transform="scale(1 1) rotate(0) translate(4 278.4)">
<title>G</title>
<polygon fill="#ffffff" stroke="transparent" points="-4,4 -4,-278.4 342.0102,-278.4 342.0102,4 -4,4"/>
<!-- GO:0016020 -->
<g id="node1" class="node">
<title>GO:0016020</title>
<polygon fill="#ff0000" stroke="#000000" points="231.0622,-196.6019 141.8544,-196.6019 141.8544,-155.3981 231.0622,-155.3981 231.0622,-196.6019"/>
<text text-anchor="middle" x="186.4583" y="-180.2" font-family="Times,serif" font-size="14.00" fill="#000000">GO:0016020</text>
<text text-anchor="middle" x="186.4583" y="-163.4" font-family="Times,serif" font-size="14.00" fill="#000000">membrane</text>
</g>
<!-- GO:0005575 -->
<g id="node2" class="node">
<title>GO:0005575</title>
<polygon fill="#ffffff" stroke="#000000" points="250.145,-274.2019 122.7716,-274.2019 122.7716,-232.9981 250.145,-232.9981 250.145,-274.2019"/>
<text text-anchor="middle" x="186.4583" y="-257.8" font-family="Times,serif" font-size="14.00" fill="#000000">GO:0005575</text>
<text text-anchor="middle" x="186.4583" y="-241" font-family="Times,serif" font-size="14.00" fill="#000000">cellular_component</text>
</g>
<!-- GO:0016020&#45;&gt;GO:0005575 -->
<g id="edge1" class="edge">
<title>GO:0016020&#45;&gt;GO:0005575</title>
<path fill="none" stroke="#000000" d="M186.4583,-196.7954C186.4583,-204.7109 186.4583,-213.9109 186.4583,-222.5722"/>
<polygon fill="#000000" stroke="#000000" points="182.9584,-222.7472 186.4583,-232.7472 189.9584,-222.7473 182.9584,-222.7472"/>
</g>
<!-- GO:0044464 -->
<g id="node3" class="node">
<title>GO:0044464</title>
<polygon fill="#ff0000" stroke="#000000" points="124.0622,-196.6019 34.8544,-196.6019 34.8544,-155.3981 124.0622,-155.3981 124.0622,-196.6019"/>
<text text-anchor="middle" x="79.4583" y="-180.2" font-family="Times,serif" font-size="14.00" fill="#000000">GO:0044464</text>
<text text-anchor="middle" x="79.4583" y="-163.4" font-family="Times,serif" font-size="14.00" fill="#000000">cell part</text>
</g>
<!-- GO:0044464&#45;&gt;GO:0005575 -->
<g id="edge2" class="edge">
<title>GO:0044464&#45;&gt;GO:0005575</title>
<path fill="none" stroke="#000000" d="M108.1323,-196.7954C120.8458,-206.0156 135.9626,-216.9788 149.509,-226.8031"/>
<polygon fill="#000000" stroke="#000000" points="147.5551,-229.7096 157.7051,-232.7472 151.6647,-224.0429 147.5551,-229.7096"/>
</g>
<!-- GO:0044444 -->
<g id="node4" class="node">
<title>GO:0044444</title>
<polygon fill="#ff00ff" stroke="#000000" points="108.8749,-41.4019 .0417,-41.4019 .0417,-.1981 108.8749,-.1981 108.8749,-41.4019"/>
<text text-anchor="middle" x="54.4583" y="-25" font-family="Times,serif" font-size="14.00" fill="#000000">GO:0044444</text>
<text text-anchor="middle" x="54.4583" y="-8.2" font-family="Times,serif" font-size="14.00" fill="#000000">cytoplasmic part</text>
</g>
<!-- GO:0044424 -->
<g id="node5" class="node">
<title>GO:0044424</title>
<polygon fill="#ffffff" stroke="#000000" points="108.8567,-119.0019 .0599,-119.0019 .0599,-77.7981 108.8567,-77.7981 108.8567,-119.0019"/>
<text text-anchor="middle" x="54.4583" y="-102.6" font-family="Times,serif" font-size="14.00" fill="#000000">GO:0044424</text>
<text text-anchor="middle" x="54.4583" y="-85.8" font-family="Times,serif" font-size="14.00" fill="#000000">intracellular part</text>
</g>
<!-- GO:0044444&#45;&gt;GO:0044424 -->
<g id="edge3" class="edge">
<title>GO:0044444&#45;&gt;GO:0044424</title>
<path fill="none" stroke="#000000" d="M54.4583,-41.5954C54.4583,-49.5109 54.4583,-58.7109 54.4583,-67.3722"/>
<polygon fill="#000000" stroke="#000000" points="50.9584,-67.5472 54.4583,-77.5472 57.9584,-67.5473 50.9584,-67.5472"/>
</g>
<!-- GO:0044424&#45;&gt;GO:0044464 -->
<g id="edge4" class="edge">
<title>GO:0044424&#45;&gt;GO:0044464</title>
<path fill="none" stroke="#000000" d="M61.1578,-119.1954C63.764,-127.2848 66.8023,-136.7159 69.6459,-145.5424"/>
<polygon fill="#000000" stroke="#000000" points="66.3424,-146.7023 72.7403,-155.1472 73.0051,-144.5557 66.3424,-146.7023"/>
</g>
<!-- GO:0005886 -->
<g id="node6" class="node">
<title>GO:0005886</title>
<polygon fill="#00ffff" stroke="#000000" points="245.6991,-119.0019 127.2175,-119.0019 127.2175,-77.7981 245.6991,-77.7981 245.6991,-119.0019"/>
<text text-anchor="middle" x="186.4583" y="-102.6" font-family="Times,serif" font-size="14.00" fill="#000000">GO:0005886</text>
<text text-anchor="middle" x="186.4583" y="-85.8" font-family="Times,serif" font-size="14.00" fill="#000000">plasma membrane</text>
</g>
<!-- GO:0005886&#45;&gt;GO:0016020 -->
<g id="edge5" class="edge">
<title>GO:0005886&#45;&gt;GO:0016020</title>
<path fill="none" stroke="#000000" d="M186.4583,-119.1954C186.4583,-127.1109 186.4583,-136.3109 186.4583,-144.9722"/>
<polygon fill="#000000" stroke="#000000" points="182.9584,-145.1472 186.4583,-155.1472 189.9584,-145.1473 182.9584,-145.1472"/>
</g>
<!-- GO:0005886&#45;&gt;GO:0044464 -->
<g id="edge6" class="edge">
<title>GO:0005886&#45;&gt;GO:0044464</title>
<path fill="none" stroke="#000000" d="M157.7843,-119.1954C145.0708,-128.4156 129.954,-139.3788 116.4076,-149.2031"/>
<polygon fill="#000000" stroke="#000000" points="114.2519,-146.4429 108.2115,-155.1472 118.3615,-152.1096 114.2519,-146.4429"/>
</g>
<!-- GO:0043226 -->
<g id="node7" class="node">
<title>GO:0043226</title>
<polygon fill="#ffffff" stroke="#000000" points="338.0622,-196.6019 248.8544,-196.6019 248.8544,-155.3981 338.0622,-155.3981 338.0622,-196.6019"/>
<text text-anchor="middle" x="293.4583" y="-180.2" font-family="Times,serif" font-size="14.00" fill="#000000">GO:0043226</text>
<text text-anchor="middle" x="293.4583" y="-163.4" font-family="Times,serif" font-size="14.00" fill="#000000">organelle</text>
</g>
<!-- GO:0043226&#45;&gt;GO:0005575 -->
<g id="edge7" class="edge">
<title>GO:0043226&#45;&gt;GO:0005575</title>
<path fill="none" stroke="#000000" d="M264.7843,-196.7954C252.0708,-206.0156 236.954,-216.9788 223.4076,-226.8031"/>
<polygon fill="#000000" stroke="#000000" points="221.2519,-224.0429 215.2115,-232.7472 225.3615,-229.7096 221.2519,-224.0429"/>
</g>
</g>
</svg>
