<?xml version="1.0" encoding="UTF-8" standalone="no"?>
<!DOCTYPE svg PUBLIC "-//W3C//DTD SVG 1.1//EN"
 "http://www.w3.org/Graphics/SVG/1.1/DTD/svg11.dtd">
<!-- Generated by graphviz version 2.40.1 (20161225.0304)
 -->
<!-- Title: G Pages: 1 -->
<svg width="565pt" height="761pt"
 viewBox="0.00 0.00 565.23 760.80" xmlns="http://www.w3.org/2000/svg" xmlns:xlink="http://www.w3.org/1999/xlink">
<g id="graph0" class="graph" transform="scale(1 1) rotate(0) translate(4 756.8)">
<title>G</title>
<polygon fill="#ffffff" stroke="transparent" points="-4,4 -4,-756.8 561.2252,-756.8 561.2252,4 -4,4"/>
<!-- GO:0015129 -->
<g id="node1" class="node">
<title>GO:0015129</title>
<polygon fill="#ffffff" stroke="#000000" points="154.543,-58.6014 11.8898,-58.6014 11.8898,.2014 154.543,.2014 154.543,-58.6014"/>
<text text-anchor="middle" x="83.2164" y="-41.8" font-family="Times,serif" font-size="14.00" fill="#000000">GO:0015129</text>
<text text-anchor="middle" x="83.2164" y="-25" font-family="Times,serif" font-size="14.00" fill="#000000">lactate transmembrane</text>
<text text-anchor="middle" x="83.2164" y="-8.2" font-family="Times,serif" font-size="14.00" fill="#000000">transporter activity</text>
</g>
<!-- GO:0008514 -->
<g id="node2" class="node">
<title>GO:0008514</title>
<polygon fill="#ffffff" stroke="#000000" points="166.6498,-169.7003 -.217,-169.7003 -.217,-94.2997 166.6498,-94.2997 166.6498,-169.7003"/>
<text text-anchor="middle" x="83.2164" y="-153" font-family="Times,serif" font-size="14.00" fill="#000000">GO:0008514</text>
<text text-anchor="middle" x="83.2164" y="-136.2" font-family="Times,serif" font-size="14.00" fill="#000000">organic anion</text>
<text text-anchor="middle" x="83.2164" y="-119.4" font-family="Times,serif" font-size="14.00" fill="#000000">transmembrane transporter</text>
<text text-anchor="middle" x="83.2164" y="-102.6" font-family="Times,serif" font-size="14.00" fill="#000000">activity</text>
</g>
<!-- GO:0015129&#45;&gt;GO:0008514 -->
<g id="edge1" class="edge">
<title>GO:0015129&#45;&gt;GO:0008514</title>
<path fill="none" stroke="#000000" d="M83.2164,-58.6584C83.2164,-66.5901 83.2164,-75.38 83.2164,-84.0392"/>
<polygon fill="#000000" stroke="#000000" points="79.7165,-84.0849 83.2164,-94.085 86.7165,-84.085 79.7165,-84.0849"/>
</g>
<!-- GO:0008509 -->
<g id="node3" class="node">
<title>GO:0008509</title>
<polygon fill="#ffffff" stroke="#000000" points="158.6176,-272.6014 21.8152,-272.6014 21.8152,-213.7986 158.6176,-213.7986 158.6176,-272.6014"/>
<text text-anchor="middle" x="90.2164" y="-255.8" font-family="Times,serif" font-size="14.00" fill="#000000">GO:0008509</text>
<text text-anchor="middle" x="90.2164" y="-239" font-family="Times,serif" font-size="14.00" fill="#000000">anion transmembrane</text>
<text text-anchor="middle" x="90.2164" y="-222.2" font-family="Times,serif" font-size="14.00" fill="#000000">transporter activity</text>
</g>
<!-- GO:0008514&#45;&gt;GO:0008509 -->
<g id="edge2" class="edge">
<title>GO:0008514&#45;&gt;GO:0008509</title>
<path fill="none" stroke="#000000" d="M85.5863,-169.6472C86.2716,-180.5338 87.0216,-192.449 87.7147,-203.4589"/>
<polygon fill="#000000" stroke="#000000" points="84.2363,-203.9138 88.3578,-213.6742 91.2225,-203.474 84.2363,-203.9138"/>
</g>
<!-- GO:0015075 -->
<g id="node4" class="node">
<title>GO:0015075</title>
<polygon fill="#ffffff" stroke="#000000" points="154.9034,-383.8014 31.5294,-383.8014 31.5294,-324.9986 154.9034,-324.9986 154.9034,-383.8014"/>
<text text-anchor="middle" x="93.2164" y="-367" font-family="Times,serif" font-size="14.00" fill="#000000">GO:0015075</text>
<text text-anchor="middle" x="93.2164" y="-350.2" font-family="Times,serif" font-size="14.00" fill="#000000">ion transmembrane</text>
<text text-anchor="middle" x="93.2164" y="-333.4" font-family="Times,serif" font-size="14.00" fill="#000000">transporter activity</text>
</g>
<!-- GO:0008509&#45;&gt;GO:0015075 -->
<g id="edge3" class="edge">
<title>GO:0008509&#45;&gt;GO:0015075</title>
<path fill="none" stroke="#000000" d="M91.0046,-272.4165C91.3532,-285.3386 91.7686,-300.7358 92.1448,-314.6788"/>
<polygon fill="#000000" stroke="#000000" points="88.6545,-315.0906 92.423,-324.9926 95.652,-314.9018 88.6545,-315.0906"/>
</g>
<!-- GO:0022891 -->
<g id="node5" class="node">
<title>GO:0022891</title>
<polygon fill="#ffffff" stroke="#000000" points="308.6498,-503.3003 141.783,-503.3003 141.783,-427.8997 308.6498,-427.8997 308.6498,-503.3003"/>
<text text-anchor="middle" x="225.2164" y="-486.6" font-family="Times,serif" font-size="14.00" fill="#000000">GO:0022891</text>
<text text-anchor="middle" x="225.2164" y="-469.8" font-family="Times,serif" font-size="14.00" fill="#000000">substrate&#45;specific</text>
<text text-anchor="middle" x="225.2164" y="-453" font-family="Times,serif" font-size="14.00" fill="#000000">transmembrane transporter</text>
<text text-anchor="middle" x="225.2164" y="-436.2" font-family="Times,serif" font-size="14.00" fill="#000000">activity</text>
</g>
<!-- GO:0015075&#45;&gt;GO:0022891 -->
<g id="edge4" class="edge">
<title>GO:0015075&#45;&gt;GO:0022891</title>
<path fill="none" stroke="#000000" d="M127.8978,-383.6165C141.5577,-395.1239 157.5476,-408.5942 172.5735,-421.2523"/>
<polygon fill="#000000" stroke="#000000" points="170.4228,-424.017 180.3258,-427.783 174.9328,-418.6634 170.4228,-424.017"/>
</g>
<!-- GO:0022857 -->
<g id="node6" class="node">
<title>GO:0022857</title>
<polygon fill="#ffffff" stroke="#000000" points="279.6498,-597.8014 112.783,-597.8014 112.783,-538.9986 279.6498,-538.9986 279.6498,-597.8014"/>
<text text-anchor="middle" x="196.2164" y="-581" font-family="Times,serif" font-size="14.00" fill="#000000">GO:0022857</text>
<text text-anchor="middle" x="196.2164" y="-564.2" font-family="Times,serif" font-size="14.00" fill="#000000">transmembrane transporter</text>
<text text-anchor="middle" x="196.2164" y="-547.4" font-family="Times,serif" font-size="14.00" fill="#000000">activity</text>
</g>
<!-- GO:0022891&#45;&gt;GO:0022857 -->
<g id="edge5" class="edge">
<title>GO:0022891&#45;&gt;GO:0022857</title>
<path fill="none" stroke="#000000" d="M214.5825,-503.2952C212.1891,-511.7796 209.644,-520.8015 207.2352,-529.3404"/>
<polygon fill="#000000" stroke="#000000" points="203.8338,-528.5067 204.4872,-539.0814 210.5709,-530.4073 203.8338,-528.5067"/>
</g>
<!-- GO:0022892 -->
<g id="node7" class="node">
<title>GO:0022892</title>
<polygon fill="#ffffff" stroke="#000000" points="419.3449,-597.8014 297.0879,-597.8014 297.0879,-538.9986 419.3449,-538.9986 419.3449,-597.8014"/>
<text text-anchor="middle" x="358.2164" y="-581" font-family="Times,serif" font-size="14.00" fill="#000000">GO:0022892</text>
<text text-anchor="middle" x="358.2164" y="-564.2" font-family="Times,serif" font-size="14.00" fill="#000000">substrate&#45;specific</text>
<text text-anchor="middle" x="358.2164" y="-547.4" font-family="Times,serif" font-size="14.00" fill="#000000">transporter activity</text>
</g>
<!-- GO:0022891&#45;&gt;GO:0022892 -->
<g id="edge6" class="edge">
<title>GO:0022891&#45;&gt;GO:0022892</title>
<path fill="none" stroke="#000000" d="M273.9855,-503.2952C286.5135,-512.9785 299.9472,-523.3618 312.3241,-532.9283"/>
<polygon fill="#000000" stroke="#000000" points="310.2322,-535.7351 320.2847,-539.0814 314.5131,-530.1966 310.2322,-535.7351"/>
</g>
<!-- GO:0005215 -->
<g id="node8" class="node">
<title>GO:0005215</title>
<polygon fill="#ffffff" stroke="#000000" points="414.3449,-675.0019 292.0879,-675.0019 292.0879,-633.7981 414.3449,-633.7981 414.3449,-675.0019"/>
<text text-anchor="middle" x="353.2164" y="-658.6" font-family="Times,serif" font-size="14.00" fill="#000000">GO:0005215</text>
<text text-anchor="middle" x="353.2164" y="-641.8" font-family="Times,serif" font-size="14.00" fill="#000000">transporter activity</text>
</g>
<!-- GO:0022857&#45;&gt;GO:0005215 -->
<g id="edge7" class="edge">
<title>GO:0022857&#45;&gt;GO:0005215</title>
<path fill="none" stroke="#000000" d="M249.8078,-597.7558C268.114,-607.7834 288.4364,-618.9154 306.1863,-628.6383"/>
<polygon fill="#000000" stroke="#000000" points="304.7576,-631.8464 315.2095,-633.5809 308.1206,-625.7071 304.7576,-631.8464"/>
</g>
<!-- GO:0022892&#45;&gt;GO:0005215 -->
<g id="edge8" class="edge">
<title>GO:0022892&#45;&gt;GO:0005215</title>
<path fill="none" stroke="#000000" d="M356.4957,-597.9963C356.015,-606.2638 355.4916,-615.2657 355.007,-623.6008"/>
<polygon fill="#000000" stroke="#000000" points="351.5065,-623.5102 354.4201,-633.6966 358.4947,-623.9166 351.5065,-623.5102"/>
</g>
<!-- GO:0003674 -->
<g id="node9" class="node">
<title>GO:0003674</title>
<polygon fill="#ffffff" stroke="#000000" points="482.8495,-752.6019 357.5833,-752.6019 357.5833,-711.3981 482.8495,-711.3981 482.8495,-752.6019"/>
<text text-anchor="middle" x="420.2164" y="-736.2" font-family="Times,serif" font-size="14.00" fill="#000000">GO:0003674</text>
<text text-anchor="middle" x="420.2164" y="-719.4" font-family="Times,serif" font-size="14.00" fill="#000000">molecular_function</text>
</g>
<!-- GO:0005215&#45;&gt;GO:0003674 -->
<g id="edge9" class="edge">
<title>GO:0005215&#45;&gt;GO:0003674</title>
<path fill="none" stroke="#000000" d="M371.1712,-675.1954C378.6813,-683.8937 387.5308,-694.1433 395.6305,-703.5244"/>
<polygon fill="#000000" stroke="#000000" points="393.0277,-705.8654 402.2121,-711.1472 398.326,-701.2908 393.0277,-705.8654"/>
</g>
<!-- GO:0016842 -->
<g id="node10" class="node">
<title>GO:0016842</title>
<polygon fill="#ffffff" stroke="#000000" points="557.234,-375.0019 417.1988,-375.0019 417.1988,-333.7981 557.234,-333.7981 557.234,-375.0019"/>
<text text-anchor="middle" x="487.2164" y="-358.6" font-family="Times,serif" font-size="14.00" fill="#000000">GO:0016842</text>
<text text-anchor="middle" x="487.2164" y="-341.8" font-family="Times,serif" font-size="14.00" fill="#000000">amidine&#45;lyase activity</text>
</g>
<!-- GO:0016840 -->
<g id="node11" class="node">
<title>GO:0016840</title>
<polygon fill="#ffffff" stroke="#000000" points="555.888,-495.0014 418.5448,-495.0014 418.5448,-436.1986 555.888,-436.1986 555.888,-495.0014"/>
<text text-anchor="middle" x="487.2164" y="-478.2" font-family="Times,serif" font-size="14.00" fill="#000000">GO:0016840</text>
<text text-anchor="middle" x="487.2164" y="-461.4" font-family="Times,serif" font-size="14.00" fill="#000000">carbon&#45;nitrogen lyase</text>
<text text-anchor="middle" x="487.2164" y="-444.6" font-family="Times,serif" font-size="14.00" fill="#000000">activity</text>
</g>
<!-- GO:0016842&#45;&gt;GO:0016840 -->
<g id="edge10" class="edge">
<title>GO:0016842&#45;&gt;GO:0016840</title>
<path fill="none" stroke="#000000" d="M487.2164,-375.0553C487.2164,-389.307 487.2164,-408.7101 487.2164,-425.8996"/>
<polygon fill="#000000" stroke="#000000" points="483.7165,-426.2505 487.2164,-436.2506 490.7165,-426.2506 483.7165,-426.2505"/>
</g>
<!-- GO:0016829 -->
<g id="node12" class="node">
<title>GO:0016829</title>
<polygon fill="#ffffff" stroke="#000000" points="532.4728,-589.0019 441.96,-589.0019 441.96,-547.7981 532.4728,-547.7981 532.4728,-589.0019"/>
<text text-anchor="middle" x="487.2164" y="-572.6" font-family="Times,serif" font-size="14.00" fill="#000000">GO:0016829</text>
<text text-anchor="middle" x="487.2164" y="-555.8" font-family="Times,serif" font-size="14.00" fill="#000000">lyase activity</text>
</g>
<!-- GO:0016840&#45;&gt;GO:0016829 -->
<g id="edge11" class="edge">
<title>GO:0016840&#45;&gt;GO:0016829</title>
<path fill="none" stroke="#000000" d="M487.2164,-495.0584C487.2164,-508.3539 487.2164,-524.0608 487.2164,-537.5212"/>
<polygon fill="#000000" stroke="#000000" points="483.7165,-537.7456 487.2164,-547.7456 490.7165,-537.7457 483.7165,-537.7456"/>
</g>
<!-- GO:0003824 -->
<g id="node13" class="node">
<title>GO:0003824</title>
<polygon fill="#ffffff" stroke="#000000" points="541.6288,-675.0019 432.804,-675.0019 432.804,-633.7981 541.6288,-633.7981 541.6288,-675.0019"/>
<text text-anchor="middle" x="487.2164" y="-658.6" font-family="Times,serif" font-size="14.00" fill="#000000">GO:0003824</text>
<text text-anchor="middle" x="487.2164" y="-641.8" font-family="Times,serif" font-size="14.00" fill="#000000">catalytic activity</text>
</g>
<!-- GO:0016829&#45;&gt;GO:0003824 -->
<g id="edge12" class="edge">
<title>GO:0016829&#45;&gt;GO:0003824</title>
<path fill="none" stroke="#000000" d="M487.2164,-589.2182C487.2164,-599.5705 487.2164,-612.2848 487.2164,-623.7271"/>
<polygon fill="#000000" stroke="#000000" points="483.7165,-623.7735 487.2164,-633.7735 490.7165,-623.7735 483.7165,-623.7735"/>
</g>
<!-- GO:0003824&#45;&gt;GO:0003674 -->
<g id="edge13" class="edge">
<title>GO:0003824&#45;&gt;GO:0003674</title>
<path fill="none" stroke="#000000" d="M469.2616,-675.1954C461.7515,-683.8937 452.902,-694.1433 444.8023,-703.5244"/>
<polygon fill="#000000" stroke="#000000" points="442.1068,-701.2908 438.2207,-711.1472 447.4051,-705.8654 442.1068,-701.2908"/>
</g>
<!-- GO:0008028 -->
<g id="node14" class="node">
<title>GO:0008028</title>
<polygon fill="#ffffff" stroke="#000000" points="350.6498,-169.7003 183.783,-169.7003 183.783,-94.2997 350.6498,-94.2997 350.6498,-169.7003"/>
<text text-anchor="middle" x="267.2164" y="-153" font-family="Times,serif" font-size="14.00" fill="#000000">GO:0008028</text>
<text text-anchor="middle" x="267.2164" y="-136.2" font-family="Times,serif" font-size="14.00" fill="#000000">monocarboxylic acid</text>
<text text-anchor="middle" x="267.2164" y="-119.4" font-family="Times,serif" font-size="14.00" fill="#000000">transmembrane transporter</text>
<text text-anchor="middle" x="267.2164" y="-102.6" font-family="Times,serif" font-size="14.00" fill="#000000">activity</text>
</g>
<!-- GO:0046943 -->
<g id="node15" class="node">
<title>GO:0046943</title>
<polygon fill="#ffffff" stroke="#000000" points="346.6498,-280.9003 179.783,-280.9003 179.783,-205.4997 346.6498,-205.4997 346.6498,-280.9003"/>
<text text-anchor="middle" x="263.2164" y="-264.2" font-family="Times,serif" font-size="14.00" fill="#000000">GO:0046943</text>
<text text-anchor="middle" x="263.2164" y="-247.4" font-family="Times,serif" font-size="14.00" fill="#000000">carboxylic acid</text>
<text text-anchor="middle" x="263.2164" y="-230.6" font-family="Times,serif" font-size="14.00" fill="#000000">transmembrane transporter</text>
<text text-anchor="middle" x="263.2164" y="-213.8" font-family="Times,serif" font-size="14.00" fill="#000000">activity</text>
</g>
<!-- GO:0008028&#45;&gt;GO:0046943 -->
<g id="edge14" class="edge">
<title>GO:0008028&#45;&gt;GO:0046943</title>
<path fill="none" stroke="#000000" d="M265.8622,-169.6472C265.5624,-177.98 265.241,-186.9155 264.9291,-195.5863"/>
<polygon fill="#000000" stroke="#000000" points="261.4311,-195.4721 264.5692,-205.5915 268.4265,-195.7238 261.4311,-195.4721"/>
</g>
<!-- GO:0005342 -->
<g id="node16" class="node">
<title>GO:0005342</title>
<polygon fill="#ffffff" stroke="#000000" points="342.6498,-392.1003 175.783,-392.1003 175.783,-316.6997 342.6498,-316.6997 342.6498,-392.1003"/>
<text text-anchor="middle" x="259.2164" y="-375.4" font-family="Times,serif" font-size="14.00" fill="#000000">GO:0005342</text>
<text text-anchor="middle" x="259.2164" y="-358.6" font-family="Times,serif" font-size="14.00" fill="#000000">organic acid</text>
<text text-anchor="middle" x="259.2164" y="-341.8" font-family="Times,serif" font-size="14.00" fill="#000000">transmembrane transporter</text>
<text text-anchor="middle" x="259.2164" y="-325" font-family="Times,serif" font-size="14.00" fill="#000000">activity</text>
</g>
<!-- GO:0046943&#45;&gt;GO:0005342 -->
<g id="edge15" class="edge">
<title>GO:0046943&#45;&gt;GO:0005342</title>
<path fill="none" stroke="#000000" d="M261.8622,-280.8472C261.5624,-289.18 261.241,-298.1155 260.9291,-306.7863"/>
<polygon fill="#000000" stroke="#000000" points="257.4311,-306.6721 260.5692,-316.7915 264.4265,-306.9238 257.4311,-306.6721"/>
</g>
<!-- GO:0005342&#45;&gt;GO:0022891 -->
<g id="edge16" class="edge">
<title>GO:0005342&#45;&gt;GO:0022891</title>
<path fill="none" stroke="#000000" d="M247.7056,-392.0472C245.1301,-400.4706 242.3663,-409.5098 239.6881,-418.2689"/>
<polygon fill="#000000" stroke="#000000" points="236.2924,-417.4051 236.7154,-427.9915 242.9864,-419.4519 236.2924,-417.4051"/>
</g>
</g>
</svg>
