<?xml version="1.0" encoding="UTF-8" standalone="no"?>
<!DOCTYPE svg PUBLIC "-//W3C//DTD SVG 1.1//EN"
 "http://www.w3.org/Graphics/SVG/1.1/DTD/svg11.dtd">
<!-- Generated by graphviz version 2.40.1 (20161225.0304)
 -->
<!-- Title: G Pages: 1 -->
<svg width="1037pt" height="488pt"
 viewBox="0.00 0.00 1036.93 488.00" xmlns="http://www.w3.org/2000/svg" xmlns:xlink="http://www.w3.org/1999/xlink">
<g id="graph0" class="graph" transform="scale(1 1) rotate(0) translate(4 484)">
<title>G</title>
<polygon fill="#ffffff" stroke="transparent" points="-4,4 -4,-484 1032.9285,-484 1032.9285,4 -4,4"/>
<!-- GO:0005737 -->
<g id="node1" class="node">
<title>GO:0005737</title>
<polygon fill="#ffffff" stroke="#000000" points="89.1558,-221.8019 -.052,-221.8019 -.052,-180.5981 89.1558,-180.5981 89.1558,-221.8019"/>
<text text-anchor="middle" x="44.5519" y="-205.4" font-family="Times,serif" font-size="14.00" fill="#000000">GO:0005737</text>
<text text-anchor="middle" x="44.5519" y="-188.6" font-family="Times,serif" font-size="14.00" fill="#000000">cytoplasm</text>
</g>
<!-- GO:0044424 -->
<g id="node2" class="node">
<title>GO:0044424</title>
<polygon fill="#ffffff" stroke="#000000" points="177.9503,-316.2019 69.1535,-316.2019 69.1535,-274.9981 177.9503,-274.9981 177.9503,-316.2019"/>
<text text-anchor="middle" x="123.5519" y="-299.8" font-family="Times,serif" font-size="14.00" fill="#000000">GO:0044424</text>
<text text-anchor="middle" x="123.5519" y="-283" font-family="Times,serif" font-size="14.00" fill="#000000">intracellular part</text>
</g>
<!-- GO:0005737&#45;&gt;GO:0044424 -->
<g id="edge1" class="edge">
<title>GO:0005737&#45;&gt;GO:0044424</title>
<path fill="none" stroke="#000000" d="M62.0846,-222.1504C73.1306,-235.3498 87.5373,-252.5649 99.6265,-267.0107"/>
<polygon fill="#000000" stroke="#000000" points="96.9663,-269.2855 106.0682,-274.7081 102.3345,-264.793 96.9663,-269.2855"/>
</g>
<!-- GO:0044464 -->
<g id="node3" class="node">
<title>GO:0044464</title>
<polygon fill="#ffffff" stroke="#000000" points="166.1558,-402.2019 76.948,-402.2019 76.948,-360.9981 166.1558,-360.9981 166.1558,-402.2019"/>
<text text-anchor="middle" x="121.5519" y="-385.8" font-family="Times,serif" font-size="14.00" fill="#000000">GO:0044464</text>
<text text-anchor="middle" x="121.5519" y="-369" font-family="Times,serif" font-size="14.00" fill="#000000">cell part</text>
</g>
<!-- GO:0044424&#45;&gt;GO:0044464 -->
<g id="edge2" class="edge">
<title>GO:0044424&#45;&gt;GO:0044464</title>
<path fill="none" stroke="#000000" d="M123.0678,-316.4182C122.827,-326.7705 122.5313,-339.4848 122.2652,-350.9271"/>
<polygon fill="#000000" stroke="#000000" points="118.7651,-350.8948 122.0316,-360.9735 125.7632,-351.0576 118.7651,-350.8948"/>
</g>
<!-- GO:0005575 -->
<g id="node4" class="node">
<title>GO:0005575</title>
<polygon fill="#ffffff" stroke="#000000" points="546.2386,-479.8019 418.8652,-479.8019 418.8652,-438.5981 546.2386,-438.5981 546.2386,-479.8019"/>
<text text-anchor="middle" x="482.5519" y="-463.4" font-family="Times,serif" font-size="14.00" fill="#000000">GO:0005575</text>
<text text-anchor="middle" x="482.5519" y="-446.6" font-family="Times,serif" font-size="14.00" fill="#000000">cellular_component</text>
</g>
<!-- GO:0044464&#45;&gt;GO:0005575 -->
<g id="edge3" class="edge">
<title>GO:0044464&#45;&gt;GO:0005575</title>
<path fill="none" stroke="#000000" d="M166.1255,-399.4989C169.294,-400.5456 172.4581,-401.5261 175.5519,-402.4 253.8687,-424.5231 345.9205,-440.2338 408.6577,-449.444"/>
<polygon fill="#000000" stroke="#000000" points="408.4569,-452.9514 418.8555,-450.9217 409.4608,-446.0237 408.4569,-452.9514"/>
</g>
<!-- GO:0070062 -->
<g id="node5" class="node">
<title>GO:0070062</title>
<polygon fill="#ffffff" stroke="#000000" points="804.2731,-41.4019 664.8307,-41.4019 664.8307,-.1981 804.2731,-.1981 804.2731,-41.4019"/>
<text text-anchor="middle" x="734.5519" y="-25" font-family="Times,serif" font-size="14.00" fill="#000000">GO:0070062</text>
<text text-anchor="middle" x="734.5519" y="-8.2" font-family="Times,serif" font-size="14.00" fill="#000000">extracellular exosome</text>
</g>
<!-- GO:1903561 -->
<g id="node6" class="node">
<title>GO:1903561</title>
<polygon fill="#ffffff" stroke="#000000" points="715.8785,-127.4019 587.2253,-127.4019 587.2253,-86.1981 715.8785,-86.1981 715.8785,-127.4019"/>
<text text-anchor="middle" x="651.5519" y="-111" font-family="Times,serif" font-size="14.00" fill="#000000">GO:1903561</text>
<text text-anchor="middle" x="651.5519" y="-94.2" font-family="Times,serif" font-size="14.00" fill="#000000">extracellular vesicle</text>
</g>
<!-- GO:0070062&#45;&gt;GO:1903561 -->
<g id="edge4" class="edge">
<title>GO:0070062&#45;&gt;GO:1903561</title>
<path fill="none" stroke="#000000" d="M714.4599,-41.6182C703.6532,-52.8156 690.1793,-66.7764 678.4768,-78.9019"/>
<polygon fill="#000000" stroke="#000000" points="675.8849,-76.5475 671.4589,-86.1735 680.9218,-81.4086 675.8849,-76.5475"/>
</g>
<!-- GO:0031988 -->
<g id="node7" class="node">
<title>GO:0031988</title>
<polygon fill="#ffffff" stroke="#000000" points="903.8826,-127.4019 733.2212,-127.4019 733.2212,-86.1981 903.8826,-86.1981 903.8826,-127.4019"/>
<text text-anchor="middle" x="818.5519" y="-111" font-family="Times,serif" font-size="14.00" fill="#000000">GO:0031988</text>
<text text-anchor="middle" x="818.5519" y="-94.2" font-family="Times,serif" font-size="14.00" fill="#000000">membrane&#45;bounded vesicle</text>
</g>
<!-- GO:0070062&#45;&gt;GO:0031988 -->
<g id="edge5" class="edge">
<title>GO:0070062&#45;&gt;GO:0031988</title>
<path fill="none" stroke="#000000" d="M754.886,-41.6182C765.8229,-52.8156 779.4591,-66.7764 791.3026,-78.9019"/>
<polygon fill="#000000" stroke="#000000" points="788.9138,-81.4653 798.4051,-86.1735 793.9215,-76.5741 788.9138,-81.4653"/>
</g>
<!-- GO:0043230 -->
<g id="node8" class="node">
<title>GO:0043230</title>
<polygon fill="#ffffff" stroke="#000000" points="722.0948,-316.2019 581.009,-316.2019 581.009,-274.9981 722.0948,-274.9981 722.0948,-316.2019"/>
<text text-anchor="middle" x="651.5519" y="-299.8" font-family="Times,serif" font-size="14.00" fill="#000000">GO:0043230</text>
<text text-anchor="middle" x="651.5519" y="-283" font-family="Times,serif" font-size="14.00" fill="#000000">extracellular organelle</text>
</g>
<!-- GO:1903561&#45;&gt;GO:0043230 -->
<g id="edge6" class="edge">
<title>GO:1903561&#45;&gt;GO:0043230</title>
<path fill="none" stroke="#000000" d="M651.5519,-127.7263C651.5519,-160.9865 651.5519,-226.0928 651.5519,-264.7227"/>
<polygon fill="#000000" stroke="#000000" points="648.052,-264.8677 651.5519,-274.8677 655.052,-264.8678 648.052,-264.8677"/>
</g>
<!-- GO:0031982 -->
<g id="node9" class="node">
<title>GO:0031982</title>
<polygon fill="#ffffff" stroke="#000000" points="849.1558,-221.8019 759.948,-221.8019 759.948,-180.5981 849.1558,-180.5981 849.1558,-221.8019"/>
<text text-anchor="middle" x="804.5519" y="-205.4" font-family="Times,serif" font-size="14.00" fill="#000000">GO:0031982</text>
<text text-anchor="middle" x="804.5519" y="-188.6" font-family="Times,serif" font-size="14.00" fill="#000000">vesicle</text>
</g>
<!-- GO:1903561&#45;&gt;GO:0031982 -->
<g id="edge7" class="edge">
<title>GO:1903561&#45;&gt;GO:0031982</title>
<path fill="none" stroke="#000000" d="M685.1284,-127.5165C707.8481,-141.5344 738.036,-160.1601 762.3757,-175.1776"/>
<polygon fill="#000000" stroke="#000000" points="760.7054,-178.2596 771.0537,-180.5318 764.3811,-172.3022 760.7054,-178.2596"/>
</g>
<!-- GO:0031988&#45;&gt;GO:0031982 -->
<g id="edge8" class="edge">
<title>GO:0031988&#45;&gt;GO:0031982</title>
<path fill="none" stroke="#000000" d="M815.4448,-127.7504C813.5961,-140.2165 811.2161,-156.2645 809.1525,-170.1786"/>
<polygon fill="#000000" stroke="#000000" points="805.6552,-169.9029 807.6503,-180.3081 812.5795,-170.9298 805.6552,-169.9029"/>
</g>
<!-- GO:0043226 -->
<g id="node10" class="node">
<title>GO:0043226</title>
<polygon fill="#ffffff" stroke="#000000" points="842.1558,-402.2019 752.948,-402.2019 752.948,-360.9981 842.1558,-360.9981 842.1558,-402.2019"/>
<text text-anchor="middle" x="797.5519" y="-385.8" font-family="Times,serif" font-size="14.00" fill="#000000">GO:0043226</text>
<text text-anchor="middle" x="797.5519" y="-369" font-family="Times,serif" font-size="14.00" fill="#000000">organelle</text>
</g>
<!-- GO:0043230&#45;&gt;GO:0043226 -->
<g id="edge9" class="edge">
<title>GO:0043230&#45;&gt;GO:0043226</title>
<path fill="none" stroke="#000000" d="M686.8944,-316.4182C706.9799,-328.2494 732.303,-343.1657 753.6543,-355.7425"/>
<polygon fill="#000000" stroke="#000000" points="752.1421,-358.9138 762.5348,-360.9735 755.6949,-352.8824 752.1421,-358.9138"/>
</g>
<!-- GO:0044421 -->
<g id="node11" class="node">
<title>GO:0044421</title>
<polygon fill="#ffffff" stroke="#000000" points="735.0409,-402.2019 584.0629,-402.2019 584.0629,-360.9981 735.0409,-360.9981 735.0409,-402.2019"/>
<text text-anchor="middle" x="659.5519" y="-385.8" font-family="Times,serif" font-size="14.00" fill="#000000">GO:0044421</text>
<text text-anchor="middle" x="659.5519" y="-369" font-family="Times,serif" font-size="14.00" fill="#000000">extracellular region part</text>
</g>
<!-- GO:0043230&#45;&gt;GO:0044421 -->
<g id="edge10" class="edge">
<title>GO:0043230&#45;&gt;GO:0044421</title>
<path fill="none" stroke="#000000" d="M653.4885,-316.4182C654.4515,-326.7705 655.6342,-339.4848 656.6986,-350.9271"/>
<polygon fill="#000000" stroke="#000000" points="653.2219,-351.3407 657.6332,-360.9735 660.1918,-350.6923 653.2219,-351.3407"/>
</g>
<!-- GO:0043227 -->
<g id="node12" class="node">
<title>GO:0043227</title>
<polygon fill="#ffffff" stroke="#000000" points="868.5127,-325.0014 740.5911,-325.0014 740.5911,-266.1986 868.5127,-266.1986 868.5127,-325.0014"/>
<text text-anchor="middle" x="804.5519" y="-308.2" font-family="Times,serif" font-size="14.00" fill="#000000">GO:0043227</text>
<text text-anchor="middle" x="804.5519" y="-291.4" font-family="Times,serif" font-size="14.00" fill="#000000">membrane&#45;bounded</text>
<text text-anchor="middle" x="804.5519" y="-274.6" font-family="Times,serif" font-size="14.00" fill="#000000">organelle</text>
</g>
<!-- GO:0031982&#45;&gt;GO:0043227 -->
<g id="edge11" class="edge">
<title>GO:0031982&#45;&gt;GO:0043227</title>
<path fill="none" stroke="#000000" d="M804.5519,-222.1504C804.5519,-232.1492 804.5519,-244.4525 804.5519,-256.1106"/>
<polygon fill="#000000" stroke="#000000" points="801.052,-256.1155 804.5519,-266.1155 808.052,-256.1156 801.052,-256.1155"/>
</g>
<!-- GO:0043226&#45;&gt;GO:0005575 -->
<g id="edge12" class="edge">
<title>GO:0043226&#45;&gt;GO:0005575</title>
<path fill="none" stroke="#000000" d="M752.9459,-399.3878C749.7852,-400.461 746.6316,-401.4777 743.5519,-402.4 681.2638,-421.0538 608.9112,-436.3131 556.2043,-446.3003"/>
<polygon fill="#000000" stroke="#000000" points="555.4493,-442.8808 546.2664,-448.1652 556.7404,-449.7608 555.4493,-442.8808"/>
</g>
<!-- GO:0044421&#45;&gt;GO:0005575 -->
<g id="edge13" class="edge">
<title>GO:0044421&#45;&gt;GO:0005575</title>
<path fill="none" stroke="#000000" d="M612.1191,-402.3954C589.6092,-412.2641 562.5449,-424.1296 538.9861,-434.4582"/>
<polygon fill="#000000" stroke="#000000" points="537.5616,-431.2611 529.8084,-438.4819 540.3723,-437.6721 537.5616,-431.2611"/>
</g>
<!-- GO:0043227&#45;&gt;GO:0043226 -->
<g id="edge14" class="edge">
<title>GO:0043227&#45;&gt;GO:0043226</title>
<path fill="none" stroke="#000000" d="M802.1429,-325.1963C801.47,-333.4638 800.7372,-342.4657 800.0588,-350.8008"/>
<polygon fill="#000000" stroke="#000000" points="796.56,-350.6455 799.2371,-360.8966 803.5369,-351.2135 796.56,-350.6455"/>
</g>
<!-- GO:0005829 -->
<g id="node13" class="node">
<title>GO:0005829</title>
<polygon fill="#ffffff" stroke="#000000" points="91.1558,-127.4019 1.948,-127.4019 1.948,-86.1981 91.1558,-86.1981 91.1558,-127.4019"/>
<text text-anchor="middle" x="46.5519" y="-111" font-family="Times,serif" font-size="14.00" fill="#000000">GO:0005829</text>
<text text-anchor="middle" x="46.5519" y="-94.2" font-family="Times,serif" font-size="14.00" fill="#000000">cytosol</text>
</g>
<!-- GO:0044444 -->
<g id="node14" class="node">
<title>GO:0044444</title>
<polygon fill="#ffffff" stroke="#000000" points="215.9685,-221.8019 107.1353,-221.8019 107.1353,-180.5981 215.9685,-180.5981 215.9685,-221.8019"/>
<text text-anchor="middle" x="161.5519" y="-205.4" font-family="Times,serif" font-size="14.00" fill="#000000">GO:0044444</text>
<text text-anchor="middle" x="161.5519" y="-188.6" font-family="Times,serif" font-size="14.00" fill="#000000">cytoplasmic part</text>
</g>
<!-- GO:0005829&#45;&gt;GO:0044444 -->
<g id="edge15" class="edge">
<title>GO:0005829&#45;&gt;GO:0044444</title>
<path fill="none" stroke="#000000" d="M71.7891,-127.5165C88.4166,-141.1655 110.3659,-159.183 128.3976,-173.9846"/>
<polygon fill="#000000" stroke="#000000" points="126.4234,-176.8923 136.3735,-180.5318 130.8648,-171.4817 126.4234,-176.8923"/>
</g>
<!-- GO:0044444&#45;&gt;GO:0044424 -->
<g id="edge16" class="edge">
<title>GO:0044444&#45;&gt;GO:0044424</title>
<path fill="none" stroke="#000000" d="M153.1185,-222.1504C148.002,-234.8609 141.3865,-251.2952 135.7109,-265.3945"/>
<polygon fill="#000000" stroke="#000000" points="132.4492,-264.1245 131.9618,-274.7081 138.9429,-266.7385 132.4492,-264.1245"/>
</g>
<!-- GO:0045239 -->
<g id="node15" class="node">
<title>GO:0045239</title>
<polygon fill="#ffffff" stroke="#000000" points="256.434,-136.2014 108.6698,-136.2014 108.6698,-77.3986 256.434,-77.3986 256.434,-136.2014"/>
<text text-anchor="middle" x="182.5519" y="-119.4" font-family="Times,serif" font-size="14.00" fill="#000000">GO:0045239</text>
<text text-anchor="middle" x="182.5519" y="-102.6" font-family="Times,serif" font-size="14.00" fill="#000000">tricarboxylic acid cycle</text>
<text text-anchor="middle" x="182.5519" y="-85.8" font-family="Times,serif" font-size="14.00" fill="#000000">enzyme complex</text>
</g>
<!-- GO:0045239&#45;&gt;GO:0044444 -->
<g id="edge18" class="edge">
<title>GO:0045239&#45;&gt;GO:0044444</title>
<path fill="none" stroke="#000000" d="M176.0225,-136.1513C173.5954,-147.0614 170.8365,-159.4637 168.3831,-170.492"/>
<polygon fill="#000000" stroke="#000000" points="164.9005,-170.0295 166.1454,-180.551 171.7335,-171.5496 164.9005,-170.0295"/>
</g>
<!-- GO:0043234 -->
<g id="node16" class="node">
<title>GO:0043234</title>
<polygon fill="#ffffff" stroke="#000000" points="304.4193,-316.2019 196.6845,-316.2019 196.6845,-274.9981 304.4193,-274.9981 304.4193,-316.2019"/>
<text text-anchor="middle" x="250.5519" y="-299.8" font-family="Times,serif" font-size="14.00" fill="#000000">GO:0043234</text>
<text text-anchor="middle" x="250.5519" y="-283" font-family="Times,serif" font-size="14.00" fill="#000000">protein complex</text>
</g>
<!-- GO:0045239&#45;&gt;GO:0043234 -->
<g id="edge17" class="edge">
<title>GO:0045239&#45;&gt;GO:0043234</title>
<path fill="none" stroke="#000000" d="M204.6326,-136.0516C211.9073,-146.8722 219.4353,-159.5454 224.5519,-172 236.9468,-202.171 243.7157,-239.0104 247.2118,-264.5823"/>
<polygon fill="#000000" stroke="#000000" points="243.778,-265.3235 248.5166,-274.7996 250.7216,-264.4367 243.778,-265.3235"/>
</g>
<!-- GO:0032991 -->
<g id="node17" class="node">
<title>GO:0032991</title>
<polygon fill="#ffffff" stroke="#000000" points="342.7192,-402.2019 184.3846,-402.2019 184.3846,-360.9981 342.7192,-360.9981 342.7192,-402.2019"/>
<text text-anchor="middle" x="263.5519" y="-385.8" font-family="Times,serif" font-size="14.00" fill="#000000">GO:0032991</text>
<text text-anchor="middle" x="263.5519" y="-369" font-family="Times,serif" font-size="14.00" fill="#000000">macromolecular complex</text>
</g>
<!-- GO:0043234&#45;&gt;GO:0032991 -->
<g id="edge19" class="edge">
<title>GO:0043234&#45;&gt;GO:0032991</title>
<path fill="none" stroke="#000000" d="M253.6988,-316.4182C255.2637,-326.7705 257.1857,-339.4848 258.9153,-350.9271"/>
<polygon fill="#000000" stroke="#000000" points="255.4785,-351.609 260.4339,-360.9735 262.3999,-350.5627 255.4785,-351.609"/>
</g>
<!-- GO:0032991&#45;&gt;GO:0005575 -->
<g id="edge20" class="edge">
<title>GO:0032991&#45;&gt;GO:0005575</title>
<path fill="none" stroke="#000000" d="M321.9522,-402.2934C350.5362,-412.4218 385.1087,-424.6722 414.8438,-435.2085"/>
<polygon fill="#000000" stroke="#000000" points="413.7196,-438.5233 424.3144,-438.5642 416.0576,-431.9252 413.7196,-438.5233"/>
</g>
<!-- GO:0005759 -->
<g id="node18" class="node">
<title>GO:0005759</title>
<polygon fill="#ffffff" stroke="#000000" points="475.6423,-41.4019 341.4615,-41.4019 341.4615,-.1981 475.6423,-.1981 475.6423,-41.4019"/>
<text text-anchor="middle" x="408.5519" y="-25" font-family="Times,serif" font-size="14.00" fill="#000000">GO:0005759</text>
<text text-anchor="middle" x="408.5519" y="-8.2" font-family="Times,serif" font-size="14.00" fill="#000000">mitochondrial matrix</text>
</g>
<!-- GO:0070013 -->
<g id="node19" class="node">
<title>GO:0070013</title>
<polygon fill="#ffffff" stroke="#000000" points="552.2703,-136.2014 412.8335,-136.2014 412.8335,-77.3986 552.2703,-77.3986 552.2703,-136.2014"/>
<text text-anchor="middle" x="482.5519" y="-119.4" font-family="Times,serif" font-size="14.00" fill="#000000">GO:0070013</text>
<text text-anchor="middle" x="482.5519" y="-102.6" font-family="Times,serif" font-size="14.00" fill="#000000">intracellular organelle</text>
<text text-anchor="middle" x="482.5519" y="-85.8" font-family="Times,serif" font-size="14.00" fill="#000000">lumen</text>
</g>
<!-- GO:0005759&#45;&gt;GO:0070013 -->
<g id="edge21" class="edge">
<title>GO:0005759&#45;&gt;GO:0070013</title>
<path fill="none" stroke="#000000" d="M426.4652,-41.6182C433.7556,-50.0908 442.4074,-60.1456 450.7063,-69.7903"/>
<polygon fill="#000000" stroke="#000000" points="448.078,-72.1019 457.2535,-77.3991 453.3841,-67.5362 448.078,-72.1019"/>
</g>
<!-- GO:0044429 -->
<g id="node20" class="node">
<title>GO:0044429</title>
<polygon fill="#ffffff" stroke="#000000" points="394.3607,-127.4019 274.7431,-127.4019 274.7431,-86.1981 394.3607,-86.1981 394.3607,-127.4019"/>
<text text-anchor="middle" x="334.5519" y="-111" font-family="Times,serif" font-size="14.00" fill="#000000">GO:0044429</text>
<text text-anchor="middle" x="334.5519" y="-94.2" font-family="Times,serif" font-size="14.00" fill="#000000">mitochondrial part</text>
</g>
<!-- GO:0005759&#45;&gt;GO:0044429 -->
<g id="edge22" class="edge">
<title>GO:0005759&#45;&gt;GO:0044429</title>
<path fill="none" stroke="#000000" d="M390.6386,-41.6182C381.0945,-52.7099 369.2173,-66.5132 358.8529,-78.5583"/>
<polygon fill="#000000" stroke="#000000" points="356.1697,-76.3105 352.3003,-86.1735 361.4758,-80.8762 356.1697,-76.3105"/>
</g>
<!-- GO:0044446 -->
<g id="node21" class="node">
<title>GO:0044446</title>
<polygon fill="#ffffff" stroke="#000000" points="411.2703,-230.6014 271.8335,-230.6014 271.8335,-171.7986 411.2703,-171.7986 411.2703,-230.6014"/>
<text text-anchor="middle" x="341.5519" y="-213.8" font-family="Times,serif" font-size="14.00" fill="#000000">GO:0044446</text>
<text text-anchor="middle" x="341.5519" y="-197" font-family="Times,serif" font-size="14.00" fill="#000000">intracellular organelle</text>
<text text-anchor="middle" x="341.5519" y="-180.2" font-family="Times,serif" font-size="14.00" fill="#000000">part</text>
</g>
<!-- GO:0070013&#45;&gt;GO:0044446 -->
<g id="edge23" class="edge">
<title>GO:0070013&#45;&gt;GO:0044446</title>
<path fill="none" stroke="#000000" d="M438.7115,-136.1513C424.52,-145.6525 408.6384,-156.2854 393.8938,-166.1569"/>
<polygon fill="#000000" stroke="#000000" points="391.7276,-163.3951 385.3652,-171.8669 395.622,-169.2119 391.7276,-163.3951"/>
</g>
<!-- GO:0043233 -->
<g id="node22" class="node">
<title>GO:0043233</title>
<polygon fill="#ffffff" stroke="#000000" points="535.6341,-221.8019 429.4697,-221.8019 429.4697,-180.5981 535.6341,-180.5981 535.6341,-221.8019"/>
<text text-anchor="middle" x="482.5519" y="-205.4" font-family="Times,serif" font-size="14.00" fill="#000000">GO:0043233</text>
<text text-anchor="middle" x="482.5519" y="-188.6" font-family="Times,serif" font-size="14.00" fill="#000000">organelle lumen</text>
</g>
<!-- GO:0070013&#45;&gt;GO:0043233 -->
<g id="edge24" class="edge">
<title>GO:0070013&#45;&gt;GO:0043233</title>
<path fill="none" stroke="#000000" d="M482.5519,-136.1513C482.5519,-147.0614 482.5519,-159.4637 482.5519,-170.492"/>
<polygon fill="#000000" stroke="#000000" points="479.052,-170.5509 482.5519,-180.551 486.052,-170.551 479.052,-170.5509"/>
</g>
<!-- GO:0044429&#45;&gt;GO:0044444 -->
<g id="edge26" class="edge">
<title>GO:0044429&#45;&gt;GO:0044444</title>
<path fill="none" stroke="#000000" d="M296.5863,-127.5165C270.6714,-141.6574 236.1632,-160.4872 208.5186,-175.5719"/>
<polygon fill="#000000" stroke="#000000" points="206.5306,-172.6695 199.4289,-180.5318 209.8836,-178.8142 206.5306,-172.6695"/>
</g>
<!-- GO:0044429&#45;&gt;GO:0044446 -->
<g id="edge25" class="edge">
<title>GO:0044429&#45;&gt;GO:0044446</title>
<path fill="none" stroke="#000000" d="M336.1054,-127.7504C336.8469,-137.7492 337.7592,-150.0525 338.6237,-161.7106"/>
<polygon fill="#000000" stroke="#000000" points="335.1355,-162.0018 339.3656,-171.7155 342.1164,-161.484 335.1355,-162.0018"/>
</g>
<!-- GO:0044446&#45;&gt;GO:0044424 -->
<g id="edge27" class="edge">
<title>GO:0044446&#45;&gt;GO:0044424</title>
<path fill="none" stroke="#000000" d="M271.6146,-230.3306C245.2032,-241.4572 214.9269,-254.3628 187.5519,-266.4 184.3814,-267.7941 181.1279,-269.2377 177.8487,-270.7027"/>
<polygon fill="#000000" stroke="#000000" points="176.2738,-267.5732 168.587,-274.8647 179.143,-273.9582 176.2738,-267.5732"/>
</g>
<!-- GO:0044422 -->
<g id="node23" class="node">
<title>GO:0044422</title>
<polygon fill="#ffffff" stroke="#000000" points="417.404,-316.2019 323.6998,-316.2019 323.6998,-274.9981 417.404,-274.9981 417.404,-316.2019"/>
<text text-anchor="middle" x="370.5519" y="-299.8" font-family="Times,serif" font-size="14.00" fill="#000000">GO:0044422</text>
<text text-anchor="middle" x="370.5519" y="-283" font-family="Times,serif" font-size="14.00" fill="#000000">organelle part</text>
</g>
<!-- GO:0044446&#45;&gt;GO:0044422 -->
<g id="edge28" class="edge">
<title>GO:0044446&#45;&gt;GO:0044422</title>
<path fill="none" stroke="#000000" d="M350.5687,-230.5513C353.9549,-241.5739 357.809,-254.1196 361.2229,-265.2326"/>
<polygon fill="#000000" stroke="#000000" points="357.9261,-266.4197 364.2085,-274.951 364.6175,-264.364 357.9261,-266.4197"/>
</g>
<!-- GO:0043233&#45;&gt;GO:0044422 -->
<g id="edge29" class="edge">
<title>GO:0043233&#45;&gt;GO:0044422</title>
<path fill="none" stroke="#000000" d="M457.973,-221.9165C441.7793,-235.5655 420.4026,-253.583 402.8413,-268.3846"/>
<polygon fill="#000000" stroke="#000000" points="400.4641,-265.8109 395.0734,-274.9318 404.9754,-271.1633 400.4641,-265.8109"/>
</g>
<!-- GO:0031974 -->
<g id="node24" class="node">
<title>GO:0031974</title>
<polygon fill="#ffffff" stroke="#000000" points="566.273,-402.2019 398.8308,-402.2019 398.8308,-360.9981 566.273,-360.9981 566.273,-402.2019"/>
<text text-anchor="middle" x="482.5519" y="-385.8" font-family="Times,serif" font-size="14.00" fill="#000000">GO:0031974</text>
<text text-anchor="middle" x="482.5519" y="-369" font-family="Times,serif" font-size="14.00" fill="#000000">membrane&#45;enclosed lumen</text>
</g>
<!-- GO:0043233&#45;&gt;GO:0031974 -->
<g id="edge30" class="edge">
<title>GO:0043233&#45;&gt;GO:0031974</title>
<path fill="none" stroke="#000000" d="M482.5519,-221.8942C482.5519,-253.482 482.5519,-313.9259 482.5519,-350.7168"/>
<polygon fill="#000000" stroke="#000000" points="479.052,-350.87 482.5519,-360.8701 486.052,-350.8701 479.052,-350.87"/>
</g>
<!-- GO:0044422&#45;&gt;GO:0005575 -->
<g id="edge31" class="edge">
<title>GO:0044422&#45;&gt;GO:0005575</title>
<path fill="none" stroke="#000000" d="M369.4074,-316.3471C369.1643,-339.3428 371.9183,-376.5854 389.5519,-402.4 398.0489,-414.8392 410.2573,-425.0353 423.0463,-433.1803"/>
<polygon fill="#000000" stroke="#000000" points="421.5732,-436.377 431.9544,-438.4938 425.1591,-430.3652 421.5732,-436.377"/>
</g>
<!-- GO:0031974&#45;&gt;GO:0005575 -->
<g id="edge32" class="edge">
<title>GO:0031974&#45;&gt;GO:0005575</title>
<path fill="none" stroke="#000000" d="M482.5519,-402.3954C482.5519,-410.3109 482.5519,-419.5109 482.5519,-428.1722"/>
<polygon fill="#000000" stroke="#000000" points="479.052,-428.3472 482.5519,-438.3472 486.052,-428.3473 479.052,-428.3472"/>
</g>
<!-- GO:0016021 -->
<g id="node25" class="node">
<title>GO:0016021</title>
<polygon fill="#ffffff" stroke="#000000" points="1027.185,-230.6014 887.9188,-230.6014 887.9188,-171.7986 1027.185,-171.7986 1027.185,-230.6014"/>
<text text-anchor="middle" x="957.5519" y="-213.8" font-family="Times,serif" font-size="14.00" fill="#000000">GO:0016021</text>
<text text-anchor="middle" x="957.5519" y="-197" font-family="Times,serif" font-size="14.00" fill="#000000">integral component of</text>
<text text-anchor="middle" x="957.5519" y="-180.2" font-family="Times,serif" font-size="14.00" fill="#000000">membrane</text>
</g>
<!-- GO:0031224 -->
<g id="node26" class="node">
<title>GO:0031224</title>
<polygon fill="#ffffff" stroke="#000000" points="1028.8053,-325.0014 886.2985,-325.0014 886.2985,-266.1986 1028.8053,-266.1986 1028.8053,-325.0014"/>
<text text-anchor="middle" x="957.5519" y="-308.2" font-family="Times,serif" font-size="14.00" fill="#000000">GO:0031224</text>
<text text-anchor="middle" x="957.5519" y="-291.4" font-family="Times,serif" font-size="14.00" fill="#000000">intrinsic component of</text>
<text text-anchor="middle" x="957.5519" y="-274.6" font-family="Times,serif" font-size="14.00" fill="#000000">membrane</text>
</g>
<!-- GO:0016021&#45;&gt;GO:0031224 -->
<g id="edge33" class="edge">
<title>GO:0016021&#45;&gt;GO:0031224</title>
<path fill="none" stroke="#000000" d="M957.5519,-230.5513C957.5519,-238.6318 957.5519,-247.5308 957.5519,-256.0838"/>
<polygon fill="#000000" stroke="#000000" points="954.052,-256.2668 957.5519,-266.2669 961.052,-256.2669 954.052,-256.2668"/>
</g>
<!-- GO:0044425 -->
<g id="node27" class="node">
<title>GO:0044425</title>
<polygon fill="#ffffff" stroke="#000000" points="984.9039,-402.2019 884.1999,-402.2019 884.1999,-360.9981 984.9039,-360.9981 984.9039,-402.2019"/>
<text text-anchor="middle" x="934.5519" y="-385.8" font-family="Times,serif" font-size="14.00" fill="#000000">GO:0044425</text>
<text text-anchor="middle" x="934.5519" y="-369" font-family="Times,serif" font-size="14.00" fill="#000000">membrane part</text>
</g>
<!-- GO:0031224&#45;&gt;GO:0044425 -->
<g id="edge34" class="edge">
<title>GO:0031224&#45;&gt;GO:0044425</title>
<path fill="none" stroke="#000000" d="M949.6366,-325.1963C947.401,-333.5556 944.9645,-342.6658 942.7146,-351.0784"/>
<polygon fill="#000000" stroke="#000000" points="939.2914,-350.3318 940.0889,-360.8966 946.0537,-352.1404 939.2914,-350.3318"/>
</g>
<!-- GO:0044425&#45;&gt;GO:0005575 -->
<g id="edge35" class="edge">
<title>GO:0044425&#45;&gt;GO:0005575</title>
<path fill="none" stroke="#000000" d="M884.246,-395.0019C873.4986,-397.6416 862.182,-400.2547 851.5519,-402.4 749.9097,-422.9127 631.2042,-439.9692 556.4532,-449.8787"/>
<polygon fill="#000000" stroke="#000000" points="555.6606,-446.4528 546.2036,-451.2292 556.5751,-453.3928 555.6606,-446.4528"/>
</g>
</g>
</svg>
