<?xml version="1.0" encoding="UTF-8" standalone="no"?>
<!DOCTYPE svg PUBLIC "-//W3C//DTD SVG 1.1//EN"
 "http://www.w3.org/Graphics/SVG/1.1/DTD/svg11.dtd">
<!-- Generated by graphviz version 2.40.1 (20161225.0304)
 -->
<!-- Title: G Pages: 1 -->
<svg width="413pt" height="377pt"
 viewBox="0.00 0.00 412.90 376.80" xmlns="http://www.w3.org/2000/svg" xmlns:xlink="http://www.w3.org/1999/xlink">
<g id="graph0" class="graph" transform="scale(1 1) rotate(0) translate(4 372.8)">
<title>G</title>
<polygon fill="#ffffff" stroke="transparent" points="-4,4 -4,-372.8 408.9005,-372.8 408.9005,4 -4,4"/>
<!-- GO:0005618 -->
<g id="node1" class="node">
<title>GO:0005618</title>
<polygon fill="#ffffff" stroke="#000000" points="115.3841,-119.0019 26.1763,-119.0019 26.1763,-77.7981 115.3841,-77.7981 115.3841,-119.0019"/>
<text text-anchor="middle" x="70.7802" y="-102.6" font-family="Times,serif" font-size="14.00" fill="#000000">GO:0005618</text>
<text text-anchor="middle" x="70.7802" y="-85.8" font-family="Times,serif" font-size="14.00" fill="#000000">cell wall</text>
</g>
<!-- GO:0030312 -->
<g id="node2" class="node">
<title>GO:0030312</title>
<polygon fill="#ffffff" stroke="#000000" points="141.3413,-213.8014 .2191,-213.8014 .2191,-154.9986 141.3413,-154.9986 141.3413,-213.8014"/>
<text text-anchor="middle" x="70.7802" y="-197" font-family="Times,serif" font-size="14.00" fill="#000000">GO:0030312</text>
<text text-anchor="middle" x="70.7802" y="-180.2" font-family="Times,serif" font-size="14.00" fill="#000000">external encapsulating</text>
<text text-anchor="middle" x="70.7802" y="-163.4" font-family="Times,serif" font-size="14.00" fill="#000000">structure</text>
</g>
<!-- GO:0005618&#45;&gt;GO:0030312 -->
<g id="edge1" class="edge">
<title>GO:0005618&#45;&gt;GO:0030312</title>
<path fill="none" stroke="#000000" d="M70.7802,-119.2182C70.7802,-126.9358 70.7802,-135.9662 70.7802,-144.8036"/>
<polygon fill="#000000" stroke="#000000" points="67.2803,-144.9991 70.7802,-154.9991 74.2803,-144.9992 67.2803,-144.9991"/>
</g>
<!-- GO:0044464 -->
<g id="node3" class="node">
<title>GO:0044464</title>
<polygon fill="#ffa500" stroke="#000000" points="270.3841,-291.0019 181.1763,-291.0019 181.1763,-249.7981 270.3841,-249.7981 270.3841,-291.0019"/>
<text text-anchor="middle" x="225.7802" y="-274.6" font-family="Times,serif" font-size="14.00" fill="#000000">GO:0044464</text>
<text text-anchor="middle" x="225.7802" y="-257.8" font-family="Times,serif" font-size="14.00" fill="#000000">cell part</text>
</g>
<!-- GO:0030312&#45;&gt;GO:0044464 -->
<g id="edge2" class="edge">
<title>GO:0030312&#45;&gt;GO:0044464</title>
<path fill="none" stroke="#000000" d="M123.6889,-213.7558C141.7619,-223.7834 161.8254,-234.9154 179.3492,-244.6383"/>
<polygon fill="#000000" stroke="#000000" points="177.8151,-247.7897 188.2575,-249.5809 181.2113,-241.6688 177.8151,-247.7897"/>
</g>
<!-- GO:0005575 -->
<g id="node4" class="node">
<title>GO:0005575</title>
<polygon fill="#ffffff" stroke="#000000" points="342.4669,-368.6019 215.0935,-368.6019 215.0935,-327.3981 342.4669,-327.3981 342.4669,-368.6019"/>
<text text-anchor="middle" x="278.7802" y="-352.2" font-family="Times,serif" font-size="14.00" fill="#000000">GO:0005575</text>
<text text-anchor="middle" x="278.7802" y="-335.4" font-family="Times,serif" font-size="14.00" fill="#000000">cellular_component</text>
</g>
<!-- GO:0044464&#45;&gt;GO:0005575 -->
<g id="edge3" class="edge">
<title>GO:0044464&#45;&gt;GO:0005575</title>
<path fill="none" stroke="#000000" d="M239.9832,-291.1954C245.7459,-299.6328 252.5054,-309.5297 258.7535,-318.6778"/>
<polygon fill="#000000" stroke="#000000" points="256.0077,-320.8634 264.538,-327.1472 261.7882,-316.9154 256.0077,-320.8634"/>
</g>
<!-- GO:0005829 -->
<g id="node5" class="node">
<title>GO:0005829</title>
<polygon fill="#ff00ff" stroke="#000000" points="258.3841,-41.4019 169.1763,-41.4019 169.1763,-.1981 258.3841,-.1981 258.3841,-41.4019"/>
<text text-anchor="middle" x="213.7802" y="-25" font-family="Times,serif" font-size="14.00" fill="#000000">GO:0005829</text>
<text text-anchor="middle" x="213.7802" y="-8.2" font-family="Times,serif" font-size="14.00" fill="#000000">cytosol</text>
</g>
<!-- GO:0044444 -->
<g id="node6" class="node">
<title>GO:0044444</title>
<polygon fill="#ffffff" stroke="#000000" points="268.1968,-119.0019 159.3636,-119.0019 159.3636,-77.7981 268.1968,-77.7981 268.1968,-119.0019"/>
<text text-anchor="middle" x="213.7802" y="-102.6" font-family="Times,serif" font-size="14.00" fill="#000000">GO:0044444</text>
<text text-anchor="middle" x="213.7802" y="-85.8" font-family="Times,serif" font-size="14.00" fill="#000000">cytoplasmic part</text>
</g>
<!-- GO:0005829&#45;&gt;GO:0044444 -->
<g id="edge4" class="edge">
<title>GO:0005829&#45;&gt;GO:0044444</title>
<path fill="none" stroke="#000000" d="M213.7802,-41.5954C213.7802,-49.5109 213.7802,-58.7109 213.7802,-67.3722"/>
<polygon fill="#000000" stroke="#000000" points="210.2803,-67.5472 213.7802,-77.5472 217.2803,-67.5473 210.2803,-67.5472"/>
</g>
<!-- GO:0044424 -->
<g id="node7" class="node">
<title>GO:0044424</title>
<polygon fill="#ffffff" stroke="#000000" points="268.1786,-205.0019 159.3818,-205.0019 159.3818,-163.7981 268.1786,-163.7981 268.1786,-205.0019"/>
<text text-anchor="middle" x="213.7802" y="-188.6" font-family="Times,serif" font-size="14.00" fill="#000000">GO:0044424</text>
<text text-anchor="middle" x="213.7802" y="-171.8" font-family="Times,serif" font-size="14.00" fill="#000000">intracellular part</text>
</g>
<!-- GO:0044444&#45;&gt;GO:0044424 -->
<g id="edge5" class="edge">
<title>GO:0044444&#45;&gt;GO:0044424</title>
<path fill="none" stroke="#000000" d="M213.7802,-119.2182C213.7802,-129.5705 213.7802,-142.2848 213.7802,-153.7271"/>
<polygon fill="#000000" stroke="#000000" points="210.2803,-153.7735 213.7802,-163.7735 217.2803,-153.7735 210.2803,-153.7735"/>
</g>
<!-- GO:0044424&#45;&gt;GO:0044464 -->
<g id="edge6" class="edge">
<title>GO:0044424&#45;&gt;GO:0044464</title>
<path fill="none" stroke="#000000" d="M216.6851,-205.2182C218.1296,-215.5705 219.9037,-228.2848 221.5003,-239.7271"/>
<polygon fill="#000000" stroke="#000000" points="218.0536,-240.3532 222.9021,-249.7735 224.9865,-239.3857 218.0536,-240.3532"/>
</g>
<!-- GO:0005886 -->
<g id="node8" class="node">
<title>GO:0005886</title>
<polygon fill="#00ff00" stroke="#000000" points="405.021,-205.0019 286.5394,-205.0019 286.5394,-163.7981 405.021,-163.7981 405.021,-205.0019"/>
<text text-anchor="middle" x="345.7802" y="-188.6" font-family="Times,serif" font-size="14.00" fill="#000000">GO:0005886</text>
<text text-anchor="middle" x="345.7802" y="-171.8" font-family="Times,serif" font-size="14.00" fill="#000000">plasma membrane</text>
</g>
<!-- GO:0005886&#45;&gt;GO:0044464 -->
<g id="edge8" class="edge">
<title>GO:0005886&#45;&gt;GO:0044464</title>
<path fill="none" stroke="#000000" d="M316.7315,-205.2182C300.5177,-216.8381 280.1514,-231.434 262.8036,-243.8665"/>
<polygon fill="#000000" stroke="#000000" points="260.6507,-241.1034 254.5613,-249.7735 264.7284,-246.7931 260.6507,-241.1034"/>
</g>
<!-- GO:0016020 -->
<g id="node9" class="node">
<title>GO:0016020</title>
<polygon fill="#ffffff" stroke="#000000" points="383.3841,-291.0019 294.1763,-291.0019 294.1763,-249.7981 383.3841,-249.7981 383.3841,-291.0019"/>
<text text-anchor="middle" x="338.7802" y="-274.6" font-family="Times,serif" font-size="14.00" fill="#000000">GO:0016020</text>
<text text-anchor="middle" x="338.7802" y="-257.8" font-family="Times,serif" font-size="14.00" fill="#000000">membrane</text>
</g>
<!-- GO:0005886&#45;&gt;GO:0016020 -->
<g id="edge7" class="edge">
<title>GO:0005886&#45;&gt;GO:0016020</title>
<path fill="none" stroke="#000000" d="M344.0857,-205.2182C343.2431,-215.5705 342.2082,-228.2848 341.2768,-239.7271"/>
<polygon fill="#000000" stroke="#000000" points="337.782,-239.5225 340.4591,-249.7735 344.7589,-240.0905 337.782,-239.5225"/>
</g>
<!-- GO:0016020&#45;&gt;GO:0005575 -->
<g id="edge9" class="edge">
<title>GO:0016020&#45;&gt;GO:0005575</title>
<path fill="none" stroke="#000000" d="M322.7013,-291.1954C316.1103,-299.7197 308.3674,-309.7339 301.2334,-318.9605"/>
<polygon fill="#000000" stroke="#000000" points="298.2514,-317.0953 294.9035,-327.1472 303.7892,-321.377 298.2514,-317.0953"/>
</g>
</g>
</svg>
