<?xml version="1.0" encoding="UTF-8" standalone="no"?>
<!DOCTYPE svg PUBLIC "-//W3C//DTD SVG 1.1//EN"
 "http://www.w3.org/Graphics/SVG/1.1/DTD/svg11.dtd">
<!-- Generated by graphviz version 2.40.1 (20161225.0304)
 -->
<!-- Title: G Pages: 1 -->
<svg width="1323pt" height="522pt"
 viewBox="0.00 0.00 1322.72 521.60" xmlns="http://www.w3.org/2000/svg" xmlns:xlink="http://www.w3.org/1999/xlink">
<g id="graph0" class="graph" transform="scale(1 1) rotate(0) translate(4 517.6)">
<title>G</title>
<polygon fill="#ffffff" stroke="transparent" points="-4,4 -4,-517.6 1318.7206,-517.6 1318.7206,4 -4,4"/>
<!-- GO:0019058 -->
<g id="node1" class="node">
<title>GO:0019058</title>
<polygon fill="#ffffff" stroke="#000000" points="790.7253,-49.8019 694.0307,-49.8019 694.0307,-8.5981 790.7253,-8.5981 790.7253,-49.8019"/>
<text text-anchor="middle" x="742.378" y="-33.4" font-family="Times,serif" font-size="14.00" fill="#000000">GO:0019058</text>
<text text-anchor="middle" x="742.378" y="-16.6" font-family="Times,serif" font-size="14.00" fill="#000000">viral life cycle</text>
</g>
<!-- GO:0016032 -->
<g id="node2" class="node">
<title>GO:0016032</title>
<polygon fill="#ffffff" stroke="#000000" points="786.9819,-144.2019 697.7741,-144.2019 697.7741,-102.9981 786.9819,-102.9981 786.9819,-144.2019"/>
<text text-anchor="middle" x="742.378" y="-127.8" font-family="Times,serif" font-size="14.00" fill="#000000">GO:0016032</text>
<text text-anchor="middle" x="742.378" y="-111" font-family="Times,serif" font-size="14.00" fill="#000000">viral process</text>
</g>
<!-- GO:0019058&#45;&gt;GO:0016032 -->
<g id="edge1" class="edge">
<title>GO:0019058&#45;&gt;GO:0016032</title>
<path fill="none" stroke="#000000" d="M742.378,-50.1504C742.378,-62.6165 742.378,-78.6645 742.378,-92.5786"/>
<polygon fill="#000000" stroke="#000000" points="738.8781,-92.7081 742.378,-102.7081 745.8781,-92.7082 738.8781,-92.7081"/>
</g>
<!-- GO:0044403 -->
<g id="node3" class="node">
<title>GO:0044403</title>
<polygon fill="#ffffff" stroke="#000000" points="761.6981,-264.1003 603.0579,-264.1003 603.0579,-188.6997 761.6981,-188.6997 761.6981,-264.1003"/>
<text text-anchor="middle" x="682.378" y="-247.4" font-family="Times,serif" font-size="14.00" fill="#000000">GO:0044403</text>
<text text-anchor="middle" x="682.378" y="-230.6" font-family="Times,serif" font-size="14.00" fill="#000000">symbiosis, encompassing</text>
<text text-anchor="middle" x="682.378" y="-213.8" font-family="Times,serif" font-size="14.00" fill="#000000">mutualism through</text>
<text text-anchor="middle" x="682.378" y="-197" font-family="Times,serif" font-size="14.00" fill="#000000">parasitism</text>
</g>
<!-- GO:0016032&#45;&gt;GO:0044403 -->
<g id="edge2" class="edge">
<title>GO:0016032&#45;&gt;GO:0044403</title>
<path fill="none" stroke="#000000" d="M730.2361,-144.4031C724.2843,-154.6005 716.8581,-167.324 709.6445,-179.6834"/>
<polygon fill="#000000" stroke="#000000" points="706.4716,-178.1764 704.4535,-188.5773 712.5172,-181.705 706.4716,-178.1764"/>
</g>
<!-- GO:0044764 -->
<g id="node4" class="node">
<title>GO:0044764</title>
<polygon fill="#ffffff" stroke="#000000" points="902.1783,-358.6014 754.5777,-358.6014 754.5777,-299.7986 902.1783,-299.7986 902.1783,-358.6014"/>
<text text-anchor="middle" x="828.378" y="-341.8" font-family="Times,serif" font-size="14.00" fill="#000000">GO:0044764</text>
<text text-anchor="middle" x="828.378" y="-325" font-family="Times,serif" font-size="14.00" fill="#000000">multi&#45;organism cellular</text>
<text text-anchor="middle" x="828.378" y="-308.2" font-family="Times,serif" font-size="14.00" fill="#000000">process</text>
</g>
<!-- GO:0016032&#45;&gt;GO:0044764 -->
<g id="edge3" class="edge">
<title>GO:0016032&#45;&gt;GO:0044764</title>
<path fill="none" stroke="#000000" d="M751.4048,-144.4166C756.9279,-157.2032 764.113,-173.9277 770.378,-188.8 784.8027,-223.0423 800.9173,-262.1189 812.4928,-290.3373"/>
<polygon fill="#000000" stroke="#000000" points="809.3566,-291.9144 816.3877,-299.84 815.8337,-289.2596 809.3566,-291.9144"/>
</g>
<!-- GO:0044419 -->
<g id="node5" class="node">
<title>GO:0044419</title>
<polygon fill="#ffffff" stroke="#000000" points="736.3255,-358.6014 590.4305,-358.6014 590.4305,-299.7986 736.3255,-299.7986 736.3255,-358.6014"/>
<text text-anchor="middle" x="663.378" y="-341.8" font-family="Times,serif" font-size="14.00" fill="#000000">GO:0044419</text>
<text text-anchor="middle" x="663.378" y="-325" font-family="Times,serif" font-size="14.00" fill="#000000">interspecies interaction</text>
<text text-anchor="middle" x="663.378" y="-308.2" font-family="Times,serif" font-size="14.00" fill="#000000">between organisms</text>
</g>
<!-- GO:0044403&#45;&gt;GO:0044419 -->
<g id="edge4" class="edge">
<title>GO:0044403&#45;&gt;GO:0044419</title>
<path fill="none" stroke="#000000" d="M675.411,-264.0952C673.8599,-272.4874 672.2116,-281.4054 670.6487,-289.8618"/>
<polygon fill="#000000" stroke="#000000" points="667.1727,-289.4118 668.7968,-299.8814 674.0561,-290.6841 667.1727,-289.4118"/>
</g>
<!-- GO:0009987 -->
<g id="node6" class="node">
<title>GO:0009987</title>
<polygon fill="#ff00ff" stroke="#000000" points="870.3342,-435.8019 766.4218,-435.8019 766.4218,-394.5981 870.3342,-394.5981 870.3342,-435.8019"/>
<text text-anchor="middle" x="818.378" y="-419.4" font-family="Times,serif" font-size="14.00" fill="#000000">GO:0009987</text>
<text text-anchor="middle" x="818.378" y="-402.6" font-family="Times,serif" font-size="14.00" fill="#000000">cellular process</text>
</g>
<!-- GO:0044764&#45;&gt;GO:0009987 -->
<g id="edge5" class="edge">
<title>GO:0044764&#45;&gt;GO:0009987</title>
<path fill="none" stroke="#000000" d="M824.9366,-358.7963C823.9752,-367.0638 822.9285,-376.0657 821.9593,-384.4008"/>
<polygon fill="#000000" stroke="#000000" points="818.4639,-384.1592 820.7854,-394.4966 825.417,-384.9678 818.4639,-384.1592"/>
</g>
<!-- GO:0051704 -->
<g id="node7" class="node">
<title>GO:0051704</title>
<polygon fill="#ffffff" stroke="#000000" points="742.1811,-435.8019 594.5749,-435.8019 594.5749,-394.5981 742.1811,-394.5981 742.1811,-435.8019"/>
<text text-anchor="middle" x="668.378" y="-419.4" font-family="Times,serif" font-size="14.00" fill="#000000">GO:0051704</text>
<text text-anchor="middle" x="668.378" y="-402.6" font-family="Times,serif" font-size="14.00" fill="#000000">multi&#45;organism process</text>
</g>
<!-- GO:0044764&#45;&gt;GO:0051704 -->
<g id="edge6" class="edge">
<title>GO:0044764&#45;&gt;GO:0051704</title>
<path fill="none" stroke="#000000" d="M773.7626,-358.5558C755.1066,-368.5834 734.3959,-379.7154 716.3068,-389.4383"/>
<polygon fill="#000000" stroke="#000000" points="714.2623,-386.5636 707.1111,-394.3809 717.5765,-392.7293 714.2623,-386.5636"/>
</g>
<!-- GO:0044419&#45;&gt;GO:0051704 -->
<g id="edge7" class="edge">
<title>GO:0044419&#45;&gt;GO:0051704</title>
<path fill="none" stroke="#000000" d="M665.0987,-358.7963C665.5794,-367.0638 666.1028,-376.0657 666.5874,-384.4008"/>
<polygon fill="#000000" stroke="#000000" points="663.0997,-384.7166 667.1743,-394.4966 670.0879,-384.3102 663.0997,-384.7166"/>
</g>
<!-- GO:0008150 -->
<g id="node8" class="node">
<title>GO:0008150</title>
<polygon fill="#ffffff" stroke="#000000" points="810.8486,-513.4019 689.9074,-513.4019 689.9074,-472.1981 810.8486,-472.1981 810.8486,-513.4019"/>
<text text-anchor="middle" x="750.378" y="-497" font-family="Times,serif" font-size="14.00" fill="#000000">GO:0008150</text>
<text text-anchor="middle" x="750.378" y="-480.2" font-family="Times,serif" font-size="14.00" fill="#000000">biological_process</text>
</g>
<!-- GO:0009987&#45;&gt;GO:0008150 -->
<g id="edge8" class="edge">
<title>GO:0009987&#45;&gt;GO:0008150</title>
<path fill="none" stroke="#000000" d="M800.1552,-435.9954C792.533,-444.6937 783.5514,-454.9433 775.3308,-464.3244"/>
<polygon fill="#000000" stroke="#000000" points="772.6093,-462.1195 768.6511,-471.9472 777.874,-466.7329 772.6093,-462.1195"/>
</g>
<!-- GO:0051704&#45;&gt;GO:0008150 -->
<g id="edge9" class="edge">
<title>GO:0051704&#45;&gt;GO:0008150</title>
<path fill="none" stroke="#000000" d="M690.3525,-435.9954C699.7279,-444.8677 710.8086,-455.3539 720.8815,-464.8862"/>
<polygon fill="#000000" stroke="#000000" points="718.6738,-467.6158 728.3428,-471.9472 723.4853,-462.5315 718.6738,-467.6158"/>
</g>
<!-- GO:0009617 -->
<g id="node9" class="node">
<title>GO:0009617</title>
<polygon fill="#ffffff" stroke="#000000" points="570.7239,-49.8019 432.0321,-49.8019 432.0321,-8.5981 570.7239,-8.5981 570.7239,-49.8019"/>
<text text-anchor="middle" x="501.378" y="-33.4" font-family="Times,serif" font-size="14.00" fill="#000000">GO:0009617</text>
<text text-anchor="middle" x="501.378" y="-16.6" font-family="Times,serif" font-size="14.00" fill="#000000">response to bacterium</text>
</g>
<!-- GO:0051707 -->
<g id="node10" class="node">
<title>GO:0051707</title>
<polygon fill="#ffffff" stroke="#000000" points="539.014,-153.0014 427.742,-153.0014 427.742,-94.1986 539.014,-94.1986 539.014,-153.0014"/>
<text text-anchor="middle" x="483.378" y="-136.2" font-family="Times,serif" font-size="14.00" fill="#000000">GO:0051707</text>
<text text-anchor="middle" x="483.378" y="-119.4" font-family="Times,serif" font-size="14.00" fill="#000000">response to other</text>
<text text-anchor="middle" x="483.378" y="-102.6" font-family="Times,serif" font-size="14.00" fill="#000000">organism</text>
</g>
<!-- GO:0009617&#45;&gt;GO:0051707 -->
<g id="edge10" class="edge">
<title>GO:0009617&#45;&gt;GO:0051707</title>
<path fill="none" stroke="#000000" d="M497.3832,-50.1504C495.4767,-60.1492 493.1307,-72.4525 490.9078,-84.1106"/>
<polygon fill="#000000" stroke="#000000" points="487.4351,-83.6369 489,-94.1155 494.3112,-84.9481 487.4351,-83.6369"/>
</g>
<!-- GO:0051707&#45;&gt;GO:0051704 -->
<g id="edge12" class="edge">
<title>GO:0051707&#45;&gt;GO:0051704</title>
<path fill="none" stroke="#000000" d="M501.4198,-152.9003C507.8355,-163.9361 514.8352,-176.7371 520.378,-188.8 553.8236,-261.5888 531.7072,-295.5539 581.378,-358.4 590.8293,-370.3583 603.5201,-380.6107 616.282,-388.9805"/>
<polygon fill="#000000" stroke="#000000" points="614.7521,-392.1511 625.0896,-394.472 618.4557,-386.2111 614.7521,-392.1511"/>
</g>
<!-- GO:0043207 -->
<g id="node11" class="node">
<title>GO:0043207</title>
<polygon fill="#ffffff" stroke="#000000" points="260.3332,-255.8014 132.4228,-255.8014 132.4228,-196.9986 260.3332,-196.9986 260.3332,-255.8014"/>
<text text-anchor="middle" x="196.378" y="-239" font-family="Times,serif" font-size="14.00" fill="#000000">GO:0043207</text>
<text text-anchor="middle" x="196.378" y="-222.2" font-family="Times,serif" font-size="14.00" fill="#000000">response to external</text>
<text text-anchor="middle" x="196.378" y="-205.4" font-family="Times,serif" font-size="14.00" fill="#000000">biotic stimulus</text>
</g>
<!-- GO:0051707&#45;&gt;GO:0043207 -->
<g id="edge11" class="edge">
<title>GO:0051707&#45;&gt;GO:0043207</title>
<path fill="none" stroke="#000000" d="M427.7012,-143.5428C382.7715,-159.636 319.1786,-182.4143 270.0369,-200.0163"/>
<polygon fill="#000000" stroke="#000000" points="268.6451,-196.797 260.4111,-203.4641 271.0056,-203.387 268.6451,-196.797"/>
</g>
<!-- GO:0009607 -->
<g id="node12" class="node">
<title>GO:0009607</title>
<polygon fill="#ffffff" stroke="#000000" points="114.6343,-358.6014 .1217,-358.6014 .1217,-299.7986 114.6343,-299.7986 114.6343,-358.6014"/>
<text text-anchor="middle" x="57.378" y="-341.8" font-family="Times,serif" font-size="14.00" fill="#000000">GO:0009607</text>
<text text-anchor="middle" x="57.378" y="-325" font-family="Times,serif" font-size="14.00" fill="#000000">response to biotic</text>
<text text-anchor="middle" x="57.378" y="-308.2" font-family="Times,serif" font-size="14.00" fill="#000000">stimulus</text>
</g>
<!-- GO:0043207&#45;&gt;GO:0009607 -->
<g id="edge13" class="edge">
<title>GO:0043207&#45;&gt;GO:0009607</title>
<path fill="none" stroke="#000000" d="M156.5462,-255.8584C140.6971,-267.5798 122.3139,-281.1754 105.7121,-293.4536"/>
<polygon fill="#000000" stroke="#000000" points="103.1746,-290.9771 97.2156,-299.7373 107.3369,-296.6052 103.1746,-290.9771"/>
</g>
<!-- GO:0009605 -->
<g id="node13" class="node">
<title>GO:0009605</title>
<polygon fill="#ffffff" stroke="#000000" points="260.3332,-358.6014 132.4228,-358.6014 132.4228,-299.7986 260.3332,-299.7986 260.3332,-358.6014"/>
<text text-anchor="middle" x="196.378" y="-341.8" font-family="Times,serif" font-size="14.00" fill="#000000">GO:0009605</text>
<text text-anchor="middle" x="196.378" y="-325" font-family="Times,serif" font-size="14.00" fill="#000000">response to external</text>
<text text-anchor="middle" x="196.378" y="-308.2" font-family="Times,serif" font-size="14.00" fill="#000000">stimulus</text>
</g>
<!-- GO:0043207&#45;&gt;GO:0009605 -->
<g id="edge14" class="edge">
<title>GO:0043207&#45;&gt;GO:0009605</title>
<path fill="none" stroke="#000000" d="M196.378,-255.8584C196.378,-266.3969 196.378,-278.4505 196.378,-289.6994"/>
<polygon fill="#000000" stroke="#000000" points="192.8781,-289.7373 196.378,-299.7373 199.8781,-289.7374 192.8781,-289.7373"/>
</g>
<!-- GO:0050896 -->
<g id="node14" class="node">
<title>GO:0050896</title>
<polygon fill="#ffffff" stroke="#000000" points="400.6996,-435.8019 270.0564,-435.8019 270.0564,-394.5981 400.6996,-394.5981 400.6996,-435.8019"/>
<text text-anchor="middle" x="335.378" y="-419.4" font-family="Times,serif" font-size="14.00" fill="#000000">GO:0050896</text>
<text text-anchor="middle" x="335.378" y="-402.6" font-family="Times,serif" font-size="14.00" fill="#000000">response to stimulus</text>
</g>
<!-- GO:0009607&#45;&gt;GO:0050896 -->
<g id="edge15" class="edge">
<title>GO:0009607&#45;&gt;GO:0050896</title>
<path fill="none" stroke="#000000" d="M114.7594,-355.2132C117.658,-356.3301 120.5422,-357.3996 123.378,-358.4 168.0267,-374.1515 219.277,-387.9936 260.2019,-398.069"/>
<polygon fill="#000000" stroke="#000000" points="259.5604,-401.515 270.1049,-400.4833 261.2185,-394.7142 259.5604,-401.515"/>
</g>
<!-- GO:0009605&#45;&gt;GO:0050896 -->
<g id="edge16" class="edge">
<title>GO:0009605&#45;&gt;GO:0050896</title>
<path fill="none" stroke="#000000" d="M243.8251,-358.5558C259.7352,-368.3994 277.3653,-379.3073 292.8725,-388.9017"/>
<polygon fill="#000000" stroke="#000000" points="291.3831,-392.0958 301.7286,-394.3809 295.0661,-386.1431 291.3831,-392.0958"/>
</g>
<!-- GO:0050896&#45;&gt;GO:0008150 -->
<g id="edge17" class="edge">
<title>GO:0050896&#45;&gt;GO:0008150</title>
<path fill="none" stroke="#000000" d="M400.6783,-427.4104C476.5907,-441.6051 601.4282,-464.9482 679.6041,-479.5661"/>
<polygon fill="#000000" stroke="#000000" points="679.3701,-483.083 689.843,-481.4807 680.6568,-476.2022 679.3701,-483.083"/>
</g>
<!-- GO:0044260 -->
<g id="node15" class="node">
<title>GO:0044260</title>
<polygon fill="#ff00ff" stroke="#000000" points="1190.1504,-153.0014 1042.6056,-153.0014 1042.6056,-94.1986 1190.1504,-94.1986 1190.1504,-153.0014"/>
<text text-anchor="middle" x="1116.378" y="-136.2" font-family="Times,serif" font-size="14.00" fill="#000000">GO:0044260</text>
<text text-anchor="middle" x="1116.378" y="-119.4" font-family="Times,serif" font-size="14.00" fill="#000000">cellular macromolecule</text>
<text text-anchor="middle" x="1116.378" y="-102.6" font-family="Times,serif" font-size="14.00" fill="#000000">metabolic process</text>
</g>
<!-- GO:0044237 -->
<g id="node16" class="node">
<title>GO:0044237</title>
<polygon fill="#ffffff" stroke="#000000" points="1036.5608,-358.6014 920.1952,-358.6014 920.1952,-299.7986 1036.5608,-299.7986 1036.5608,-358.6014"/>
<text text-anchor="middle" x="978.378" y="-341.8" font-family="Times,serif" font-size="14.00" fill="#000000">GO:0044237</text>
<text text-anchor="middle" x="978.378" y="-325" font-family="Times,serif" font-size="14.00" fill="#000000">cellular metabolic</text>
<text text-anchor="middle" x="978.378" y="-308.2" font-family="Times,serif" font-size="14.00" fill="#000000">process</text>
</g>
<!-- GO:0044260&#45;&gt;GO:0044237 -->
<g id="edge18" class="edge">
<title>GO:0044260&#45;&gt;GO:0044237</title>
<path fill="none" stroke="#000000" d="M1096.606,-153.0575C1072.1655,-189.4702 1030.5311,-251.4994 1003.7549,-291.3922"/>
<polygon fill="#000000" stroke="#000000" points="1000.7804,-289.5435 998.1134,-299.7972 1006.5925,-293.4447 1000.7804,-289.5435"/>
</g>
<!-- GO:0043170 -->
<g id="node17" class="node">
<title>GO:0043170</title>
<polygon fill="#ffffff" stroke="#000000" points="1293.8802,-255.8014 1132.8758,-255.8014 1132.8758,-196.9986 1293.8802,-196.9986 1293.8802,-255.8014"/>
<text text-anchor="middle" x="1213.378" y="-239" font-family="Times,serif" font-size="14.00" fill="#000000">GO:0043170</text>
<text text-anchor="middle" x="1213.378" y="-222.2" font-family="Times,serif" font-size="14.00" fill="#000000">macromolecule metabolic</text>
<text text-anchor="middle" x="1213.378" y="-205.4" font-family="Times,serif" font-size="14.00" fill="#000000">process</text>
</g>
<!-- GO:0044260&#45;&gt;GO:0043170 -->
<g id="edge19" class="edge">
<title>GO:0044260&#45;&gt;GO:0043170</title>
<path fill="none" stroke="#000000" d="M1144.1743,-153.0584C1154.93,-164.4572 1167.3582,-177.6285 1178.6891,-189.6369"/>
<polygon fill="#000000" stroke="#000000" points="1176.169,-192.0661 1185.5776,-196.9373 1181.2603,-187.262 1176.169,-192.0661"/>
</g>
<!-- GO:0044237&#45;&gt;GO:0009987 -->
<g id="edge20" class="edge">
<title>GO:0044237&#45;&gt;GO:0009987</title>
<path fill="none" stroke="#000000" d="M923.7626,-358.5558C905.1066,-368.5834 884.3959,-379.7154 866.3068,-389.4383"/>
<polygon fill="#000000" stroke="#000000" points="864.2623,-386.5636 857.1111,-394.3809 867.5765,-392.7293 864.2623,-386.5636"/>
</g>
<!-- GO:0008152 -->
<g id="node18" class="node">
<title>GO:0008152</title>
<polygon fill="#ffffff" stroke="#000000" points="1105.5636,-435.8019 989.1924,-435.8019 989.1924,-394.5981 1105.5636,-394.5981 1105.5636,-435.8019"/>
<text text-anchor="middle" x="1047.378" y="-419.4" font-family="Times,serif" font-size="14.00" fill="#000000">GO:0008152</text>
<text text-anchor="middle" x="1047.378" y="-402.6" font-family="Times,serif" font-size="14.00" fill="#000000">metabolic process</text>
</g>
<!-- GO:0044237&#45;&gt;GO:0008152 -->
<g id="edge21" class="edge">
<title>GO:0044237&#45;&gt;GO:0008152</title>
<path fill="none" stroke="#000000" d="M1002.1239,-358.7963C1009.3467,-367.7986 1017.2682,-377.6719 1024.4369,-386.6067"/>
<polygon fill="#000000" stroke="#000000" points="1021.7791,-388.887 1030.7671,-394.4966 1027.239,-384.5064 1021.7791,-388.887"/>
</g>
<!-- GO:0071704 -->
<g id="node19" class="node">
<title>GO:0071704</title>
<polygon fill="#ffffff" stroke="#000000" points="1314.5636,-358.6014 1198.1924,-358.6014 1198.1924,-299.7986 1314.5636,-299.7986 1314.5636,-358.6014"/>
<text text-anchor="middle" x="1256.378" y="-341.8" font-family="Times,serif" font-size="14.00" fill="#000000">GO:0071704</text>
<text text-anchor="middle" x="1256.378" y="-325" font-family="Times,serif" font-size="14.00" fill="#000000">organic substance</text>
<text text-anchor="middle" x="1256.378" y="-308.2" font-family="Times,serif" font-size="14.00" fill="#000000">metabolic process</text>
</g>
<!-- GO:0043170&#45;&gt;GO:0071704 -->
<g id="edge22" class="edge">
<title>GO:0043170&#45;&gt;GO:0071704</title>
<path fill="none" stroke="#000000" d="M1225.7001,-255.8584C1230.1982,-266.612 1235.3561,-278.9431 1240.143,-290.3871"/>
<polygon fill="#000000" stroke="#000000" points="1236.9663,-291.8625 1244.0541,-299.7373 1243.4241,-289.1613 1236.9663,-291.8625"/>
</g>
<!-- GO:0008152&#45;&gt;GO:0008150 -->
<g id="edge23" class="edge">
<title>GO:0008152&#45;&gt;GO:0008150</title>
<path fill="none" stroke="#000000" d="M989.0547,-430.4387C940.7288,-443.0652 871.8974,-461.0495 820.5597,-474.463"/>
<polygon fill="#000000" stroke="#000000" points="819.6522,-471.0825 810.8618,-476.9968 821.4218,-477.8551 819.6522,-471.0825"/>
</g>
<!-- GO:0071704&#45;&gt;GO:0008152 -->
<g id="edge24" class="edge">
<title>GO:0071704&#45;&gt;GO:0008152</title>
<path fill="none" stroke="#000000" d="M1197.9574,-354.7857C1195.0598,-356.0156 1192.1879,-357.226 1189.378,-358.4 1163.3089,-369.2916 1134.3785,-380.942 1109.4692,-390.8388"/>
<polygon fill="#000000" stroke="#000000" points="1108.1393,-387.6009 1100.1336,-394.5407 1110.7196,-394.108 1108.1393,-387.6009"/>
</g>
<!-- GO:0044036 -->
<g id="node20" class="node">
<title>GO:0044036</title>
<polygon fill="#ffffff" stroke="#000000" points="1192.9873,-58.6014 1039.7687,-58.6014 1039.7687,.2014 1192.9873,.2014 1192.9873,-58.6014"/>
<text text-anchor="middle" x="1116.378" y="-41.8" font-family="Times,serif" font-size="14.00" fill="#000000">GO:0044036</text>
<text text-anchor="middle" x="1116.378" y="-25" font-family="Times,serif" font-size="14.00" fill="#000000">cell wall macromolecule</text>
<text text-anchor="middle" x="1116.378" y="-8.2" font-family="Times,serif" font-size="14.00" fill="#000000">metabolic process</text>
</g>
<!-- GO:0044036&#45;&gt;GO:0044260 -->
<g id="edge25" class="edge">
<title>GO:0044036&#45;&gt;GO:0044260</title>
<path fill="none" stroke="#000000" d="M1116.378,-58.5513C1116.378,-66.6318 1116.378,-75.5308 1116.378,-84.0838"/>
<polygon fill="#000000" stroke="#000000" points="1112.8781,-84.2668 1116.378,-94.2669 1119.8781,-84.2669 1112.8781,-84.2668"/>
</g>
<!-- GO:0006950 -->
<g id="node21" class="node">
<title>GO:0006950</title>
<polygon fill="#00ffff" stroke="#000000" points="392.3472,-349.8019 278.4088,-349.8019 278.4088,-308.5981 392.3472,-308.5981 392.3472,-349.8019"/>
<text text-anchor="middle" x="335.378" y="-333.4" font-family="Times,serif" font-size="14.00" fill="#000000">GO:0006950</text>
<text text-anchor="middle" x="335.378" y="-316.6" font-family="Times,serif" font-size="14.00" fill="#000000">response to stress</text>
</g>
<!-- GO:0006950&#45;&gt;GO:0050896 -->
<g id="edge26" class="edge">
<title>GO:0006950&#45;&gt;GO:0050896</title>
<path fill="none" stroke="#000000" d="M335.378,-350.0182C335.378,-360.3705 335.378,-373.0848 335.378,-384.5271"/>
<polygon fill="#000000" stroke="#000000" points="331.8781,-384.5735 335.378,-394.5735 338.8781,-384.5735 331.8781,-384.5735"/>
</g>
<!-- GO:0006807 -->
<g id="node22" class="node">
<title>GO:0006807</title>
<polygon fill="#ff00ff" stroke="#000000" points="1180.1399,-358.6014 1054.6161,-358.6014 1054.6161,-299.7986 1180.1399,-299.7986 1180.1399,-358.6014"/>
<text text-anchor="middle" x="1117.378" y="-341.8" font-family="Times,serif" font-size="14.00" fill="#000000">GO:0006807</text>
<text text-anchor="middle" x="1117.378" y="-325" font-family="Times,serif" font-size="14.00" fill="#000000">nitrogen compound</text>
<text text-anchor="middle" x="1117.378" y="-308.2" font-family="Times,serif" font-size="14.00" fill="#000000">metabolic process</text>
</g>
<!-- GO:0006807&#45;&gt;GO:0008152 -->
<g id="edge27" class="edge">
<title>GO:0006807&#45;&gt;GO:0008152</title>
<path fill="none" stroke="#000000" d="M1093.288,-358.7963C1085.9605,-367.7986 1077.9242,-377.6719 1070.6516,-386.6067"/>
<polygon fill="#000000" stroke="#000000" points="1067.8279,-384.5314 1064.2296,-394.4966 1073.2569,-388.9504 1067.8279,-384.5314"/>
</g>
<!-- GO:0098542 -->
<g id="node23" class="node">
<title>GO:0098542</title>
<polygon fill="#ffffff" stroke="#000000" points="414.2624,-58.6014 256.4936,-58.6014 256.4936,.2014 414.2624,.2014 414.2624,-58.6014"/>
<text text-anchor="middle" x="335.378" y="-41.8" font-family="Times,serif" font-size="14.00" fill="#000000">GO:0098542</text>
<text text-anchor="middle" x="335.378" y="-25" font-family="Times,serif" font-size="14.00" fill="#000000">defense response to other</text>
<text text-anchor="middle" x="335.378" y="-8.2" font-family="Times,serif" font-size="14.00" fill="#000000">organism</text>
</g>
<!-- GO:0098542&#45;&gt;GO:0051707 -->
<g id="edge29" class="edge">
<title>GO:0098542&#45;&gt;GO:0051707</title>
<path fill="none" stroke="#000000" d="M381.3948,-58.5513C396.4301,-68.1413 413.2728,-78.8842 428.8712,-88.8335"/>
<polygon fill="#000000" stroke="#000000" points="427.0764,-91.8401 437.3896,-94.2669 430.8408,-85.9384 427.0764,-91.8401"/>
</g>
<!-- GO:0006952 -->
<g id="node24" class="node">
<title>GO:0006952</title>
<polygon fill="#ffffff" stroke="#000000" points="391.1062,-144.2019 279.6498,-144.2019 279.6498,-102.9981 391.1062,-102.9981 391.1062,-144.2019"/>
<text text-anchor="middle" x="335.378" y="-127.8" font-family="Times,serif" font-size="14.00" fill="#000000">GO:0006952</text>
<text text-anchor="middle" x="335.378" y="-111" font-family="Times,serif" font-size="14.00" fill="#000000">defense response</text>
</g>
<!-- GO:0098542&#45;&gt;GO:0006952 -->
<g id="edge28" class="edge">
<title>GO:0098542&#45;&gt;GO:0006952</title>
<path fill="none" stroke="#000000" d="M335.378,-58.5513C335.378,-69.4614 335.378,-81.8637 335.378,-92.892"/>
<polygon fill="#000000" stroke="#000000" points="331.8781,-92.9509 335.378,-102.951 338.8781,-92.951 331.8781,-92.9509"/>
</g>
<!-- GO:0006952&#45;&gt;GO:0006950 -->
<g id="edge30" class="edge">
<title>GO:0006952&#45;&gt;GO:0006950</title>
<path fill="none" stroke="#000000" d="M335.378,-144.4455C335.378,-180.7732 335.378,-255.8478 335.378,-298.263"/>
<polygon fill="#000000" stroke="#000000" points="331.8781,-298.2993 335.378,-308.2994 338.8781,-298.2994 331.8781,-298.2993"/>
</g>
<!-- GO:0033554 -->
<g id="node25" class="node">
<title>GO:0033554</title>
<polygon fill="#ff00ff" stroke="#000000" points="511.7239,-255.8014 387.0321,-255.8014 387.0321,-196.9986 511.7239,-196.9986 511.7239,-255.8014"/>
<text text-anchor="middle" x="449.378" y="-239" font-family="Times,serif" font-size="14.00" fill="#000000">GO:0033554</text>
<text text-anchor="middle" x="449.378" y="-222.2" font-family="Times,serif" font-size="14.00" fill="#000000">cellular response to</text>
<text text-anchor="middle" x="449.378" y="-205.4" font-family="Times,serif" font-size="14.00" fill="#000000">stress</text>
</g>
<!-- GO:0033554&#45;&gt;GO:0006950 -->
<g id="edge31" class="edge">
<title>GO:0033554&#45;&gt;GO:0006950</title>
<path fill="none" stroke="#000000" d="M416.7102,-255.8584C400.7982,-270.2071 381.7718,-287.3642 366.1234,-301.4752"/>
<polygon fill="#000000" stroke="#000000" points="363.3652,-299.2495 358.2826,-308.5456 368.053,-304.448 363.3652,-299.2495"/>
</g>
<!-- GO:0051716 -->
<g id="node26" class="node">
<title>GO:0051716</title>
<polygon fill="#ffffff" stroke="#000000" points="534.7239,-358.6014 410.0321,-358.6014 410.0321,-299.7986 534.7239,-299.7986 534.7239,-358.6014"/>
<text text-anchor="middle" x="472.378" y="-341.8" font-family="Times,serif" font-size="14.00" fill="#000000">GO:0051716</text>
<text text-anchor="middle" x="472.378" y="-325" font-family="Times,serif" font-size="14.00" fill="#000000">cellular response to</text>
<text text-anchor="middle" x="472.378" y="-308.2" font-family="Times,serif" font-size="14.00" fill="#000000">stimulus</text>
</g>
<!-- GO:0033554&#45;&gt;GO:0051716 -->
<g id="edge32" class="edge">
<title>GO:0033554&#45;&gt;GO:0051716</title>
<path fill="none" stroke="#000000" d="M455.9689,-255.8584C458.3267,-266.3969 461.0235,-278.4505 463.5403,-289.6994"/>
<polygon fill="#000000" stroke="#000000" points="460.1872,-290.7428 465.7862,-299.7373 467.0183,-289.2144 460.1872,-290.7428"/>
</g>
<!-- GO:0051716&#45;&gt;GO:0009987 -->
<g id="edge34" class="edge">
<title>GO:0051716&#45;&gt;GO:0009987</title>
<path fill="none" stroke="#000000" d="M534.7726,-346.5249C549.9813,-350.579 566.2321,-354.7703 581.378,-358.4 656.4825,-376.3987 676.6413,-374.9302 751.378,-394.4 753.0796,-394.8433 754.8024,-395.3027 756.5386,-395.7751"/>
<polygon fill="#000000" stroke="#000000" points="755.9997,-399.2594 766.574,-398.5993 757.8961,-392.5211 755.9997,-399.2594"/>
</g>
<!-- GO:0051716&#45;&gt;GO:0050896 -->
<g id="edge33" class="edge">
<title>GO:0051716&#45;&gt;GO:0050896</title>
<path fill="none" stroke="#000000" d="M425.6135,-358.5558C409.9324,-368.3994 392.556,-379.3073 377.2719,-388.9017"/>
<polygon fill="#000000" stroke="#000000" points="375.152,-386.0999 368.5432,-394.3809 378.8736,-392.0286 375.152,-386.0999"/>
</g>
</g>
</svg>
