<?xml version="1.0" encoding="UTF-8" standalone="no"?>
<!DOCTYPE svg PUBLIC "-//W3C//DTD SVG 1.1//EN"
 "http://www.w3.org/Graphics/SVG/1.1/DTD/svg11.dtd">
<!-- Generated by graphviz version 2.40.1 (20161225.0304)
 -->
<!-- Title: G Pages: 1 -->
<svg width="1553pt" height="454pt"
 viewBox="0.00 0.00 1553.48 454.40" xmlns="http://www.w3.org/2000/svg" xmlns:xlink="http://www.w3.org/1999/xlink">
<g id="graph0" class="graph" transform="scale(1 1) rotate(0) translate(4 450.4)">
<title>G</title>
<polygon fill="#ffffff" stroke="transparent" points="-4,4 -4,-450.4 1549.4829,-450.4 1549.4829,4 -4,4"/>
<!-- GO:0098590 -->
<g id="node1" class="node">
<title>GO:0098590</title>
<polygon fill="#ffffff" stroke="#000000" points="157.2604,-205.0019 .246,-205.0019 .246,-163.7981 157.2604,-163.7981 157.2604,-205.0019"/>
<text text-anchor="middle" x="78.7532" y="-188.6" font-family="Times,serif" font-size="14.00" fill="#000000">GO:0098590</text>
<text text-anchor="middle" x="78.7532" y="-171.8" font-family="Times,serif" font-size="14.00" fill="#000000">plasma membrane region</text>
</g>
<!-- GO:0016020 -->
<g id="node2" class="node">
<title>GO:0016020</title>
<polygon fill="#ffffff" stroke="#000000" points="258.3571,-368.6019 169.1493,-368.6019 169.1493,-327.3981 258.3571,-327.3981 258.3571,-368.6019"/>
<text text-anchor="middle" x="213.7532" y="-352.2" font-family="Times,serif" font-size="14.00" fill="#000000">GO:0016020</text>
<text text-anchor="middle" x="213.7532" y="-335.4" font-family="Times,serif" font-size="14.00" fill="#000000">membrane</text>
</g>
<!-- GO:0098590&#45;&gt;GO:0016020 -->
<g id="edge1" class="edge">
<title>GO:0098590&#45;&gt;GO:0016020</title>
<path fill="none" stroke="#000000" d="M89.8661,-205.2918C102.3389,-227.7536 123.9665,-263.9086 147.7532,-291.2 156.8557,-301.6436 167.8988,-311.8887 178.3267,-320.7392"/>
<polygon fill="#000000" stroke="#000000" points="176.2064,-323.5278 186.1387,-327.2155 180.674,-318.1388 176.2064,-323.5278"/>
</g>
<!-- GO:0044459 -->
<g id="node3" class="node">
<title>GO:0044459</title>
<polygon fill="#ffffff" stroke="#000000" points="432.2604,-291.0019 289.246,-291.0019 289.246,-249.7981 432.2604,-249.7981 432.2604,-291.0019"/>
<text text-anchor="middle" x="360.7532" y="-274.6" font-family="Times,serif" font-size="14.00" fill="#000000">GO:0044459</text>
<text text-anchor="middle" x="360.7532" y="-257.8" font-family="Times,serif" font-size="14.00" fill="#000000">plasma membrane part</text>
</g>
<!-- GO:0098590&#45;&gt;GO:0044459 -->
<g id="edge2" class="edge">
<title>GO:0098590&#45;&gt;GO:0044459</title>
<path fill="none" stroke="#000000" d="M139.4958,-205.1351C148.2871,-208.0347 157.2393,-210.9324 165.7532,-213.6 202.9686,-225.2602 244.4251,-237.4472 279.5116,-247.5294"/>
<polygon fill="#000000" stroke="#000000" points="278.6527,-250.9241 289.23,-250.315 280.5816,-244.195 278.6527,-250.9241"/>
</g>
<!-- GO:0005575 -->
<g id="node4" class="node">
<title>GO:0005575</title>
<polygon fill="#ffffff" stroke="#000000" points="1114.4399,-446.2019 987.0665,-446.2019 987.0665,-404.9981 1114.4399,-404.9981 1114.4399,-446.2019"/>
<text text-anchor="middle" x="1050.7532" y="-429.8" font-family="Times,serif" font-size="14.00" fill="#000000">GO:0005575</text>
<text text-anchor="middle" x="1050.7532" y="-413" font-family="Times,serif" font-size="14.00" fill="#000000">cellular_component</text>
</g>
<!-- GO:0016020&#45;&gt;GO:0005575 -->
<g id="edge3" class="edge">
<title>GO:0016020&#45;&gt;GO:0005575</title>
<path fill="none" stroke="#000000" d="M258.7065,-360.0546C272.436,-363.3489 287.6362,-366.6101 301.7532,-368.8 546.9771,-406.8399 841.4885,-419.7117 976.5178,-423.8132"/>
<polygon fill="#000000" stroke="#000000" points="976.6434,-427.3184 986.7427,-424.1162 976.8508,-420.3214 976.6434,-427.3184"/>
</g>
<!-- GO:0044425 -->
<g id="node5" class="node">
<title>GO:0044425</title>
<polygon fill="#ffffff" stroke="#000000" points="411.1052,-368.6019 310.4012,-368.6019 310.4012,-327.3981 411.1052,-327.3981 411.1052,-368.6019"/>
<text text-anchor="middle" x="360.7532" y="-352.2" font-family="Times,serif" font-size="14.00" fill="#000000">GO:0044425</text>
<text text-anchor="middle" x="360.7532" y="-335.4" font-family="Times,serif" font-size="14.00" fill="#000000">membrane part</text>
</g>
<!-- GO:0044459&#45;&gt;GO:0044425 -->
<g id="edge4" class="edge">
<title>GO:0044459&#45;&gt;GO:0044425</title>
<path fill="none" stroke="#000000" d="M360.7532,-291.1954C360.7532,-299.1109 360.7532,-308.3109 360.7532,-316.9722"/>
<polygon fill="#000000" stroke="#000000" points="357.2533,-317.1472 360.7532,-327.1472 364.2533,-317.1473 357.2533,-317.1472"/>
</g>
<!-- GO:0044464 -->
<g id="node6" class="node">
<title>GO:0044464</title>
<polygon fill="#ffffff" stroke="#000000" points="845.3571,-368.6019 756.1493,-368.6019 756.1493,-327.3981 845.3571,-327.3981 845.3571,-368.6019"/>
<text text-anchor="middle" x="800.7532" y="-352.2" font-family="Times,serif" font-size="14.00" fill="#000000">GO:0044464</text>
<text text-anchor="middle" x="800.7532" y="-335.4" font-family="Times,serif" font-size="14.00" fill="#000000">cell part</text>
</g>
<!-- GO:0044459&#45;&gt;GO:0044464 -->
<g id="edge5" class="edge">
<title>GO:0044459&#45;&gt;GO:0044464</title>
<path fill="none" stroke="#000000" d="M432.6598,-289.2405C435.7267,-289.9253 438.7676,-290.5819 441.7532,-291.2 548.7948,-313.3599 675.3556,-331.538 746.0049,-340.9762"/>
<polygon fill="#000000" stroke="#000000" points="745.6403,-344.4584 756.0139,-342.3047 746.5614,-337.5192 745.6403,-344.4584"/>
</g>
<!-- GO:0044425&#45;&gt;GO:0005575 -->
<g id="edge19" class="edge">
<title>GO:0044425&#45;&gt;GO:0005575</title>
<path fill="none" stroke="#000000" d="M410.9321,-353.6433C531.0435,-367.1515 835.562,-401.3988 976.7628,-417.2788"/>
<polygon fill="#000000" stroke="#000000" points="976.7226,-420.7962 987.0512,-418.4358 977.505,-413.8401 976.7226,-420.7962"/>
</g>
<!-- GO:0044464&#45;&gt;GO:0005575 -->
<g id="edge14" class="edge">
<title>GO:0044464&#45;&gt;GO:0005575</title>
<path fill="none" stroke="#000000" d="M845.4482,-361.8733C881.9315,-373.1977 934.2422,-389.435 976.9289,-402.6849"/>
<polygon fill="#000000" stroke="#000000" points="976.1288,-406.1013 986.7169,-405.7231 978.204,-399.4159 976.1288,-406.1013"/>
</g>
<!-- GO:0043679 -->
<g id="node7" class="node">
<title>GO:0043679</title>
<polygon fill="#ffffff" stroke="#000000" points="511.4598,-119.0019 416.0466,-119.0019 416.0466,-77.7981 511.4598,-77.7981 511.4598,-119.0019"/>
<text text-anchor="middle" x="463.7532" y="-102.6" font-family="Times,serif" font-size="14.00" fill="#000000">GO:0043679</text>
<text text-anchor="middle" x="463.7532" y="-85.8" font-family="Times,serif" font-size="14.00" fill="#000000">axon terminus</text>
</g>
<!-- GO:0044306 -->
<g id="node8" class="node">
<title>GO:0044306</title>
<polygon fill="#ffffff" stroke="#000000" points="461.3901,-213.8014 346.1163,-213.8014 346.1163,-154.9986 461.3901,-154.9986 461.3901,-213.8014"/>
<text text-anchor="middle" x="403.7532" y="-197" font-family="Times,serif" font-size="14.00" fill="#000000">GO:0044306</text>
<text text-anchor="middle" x="403.7532" y="-180.2" font-family="Times,serif" font-size="14.00" fill="#000000">neuron projection</text>
<text text-anchor="middle" x="403.7532" y="-163.4" font-family="Times,serif" font-size="14.00" fill="#000000">terminus</text>
</g>
<!-- GO:0043679&#45;&gt;GO:0044306 -->
<g id="edge6" class="edge">
<title>GO:0043679&#45;&gt;GO:0044306</title>
<path fill="none" stroke="#000000" d="M449.2289,-119.2182C443.4933,-127.4391 436.7186,-137.1496 430.1743,-146.5298"/>
<polygon fill="#000000" stroke="#000000" points="427.1168,-144.7952 424.2654,-154.9991 432.8577,-148.8005 427.1168,-144.7952"/>
</g>
<!-- GO:0033267 -->
<g id="node9" class="node">
<title>GO:0033267</title>
<polygon fill="#ffffff" stroke="#000000" points="568.3571,-205.0019 479.1493,-205.0019 479.1493,-163.7981 568.3571,-163.7981 568.3571,-205.0019"/>
<text text-anchor="middle" x="523.7532" y="-188.6" font-family="Times,serif" font-size="14.00" fill="#000000">GO:0033267</text>
<text text-anchor="middle" x="523.7532" y="-171.8" font-family="Times,serif" font-size="14.00" fill="#000000">axon part</text>
</g>
<!-- GO:0043679&#45;&gt;GO:0033267 -->
<g id="edge7" class="edge">
<title>GO:0043679&#45;&gt;GO:0033267</title>
<path fill="none" stroke="#000000" d="M478.2775,-119.2182C485.8685,-130.0987 495.28,-143.5884 503.5682,-155.4681"/>
<polygon fill="#000000" stroke="#000000" points="500.7703,-157.5749 509.3626,-163.7735 506.5112,-153.5696 500.7703,-157.5749"/>
</g>
<!-- GO:0097458 -->
<g id="node10" class="node">
<title>GO:0097458</title>
<polygon fill="#ffffff" stroke="#000000" points="679.3571,-291.0019 590.1493,-291.0019 590.1493,-249.7981 679.3571,-249.7981 679.3571,-291.0019"/>
<text text-anchor="middle" x="634.7532" y="-274.6" font-family="Times,serif" font-size="14.00" fill="#000000">GO:0097458</text>
<text text-anchor="middle" x="634.7532" y="-257.8" font-family="Times,serif" font-size="14.00" fill="#000000">neuron part</text>
</g>
<!-- GO:0044306&#45;&gt;GO:0097458 -->
<g id="edge8" class="edge">
<title>GO:0044306&#45;&gt;GO:0097458</title>
<path fill="none" stroke="#000000" d="M461.5576,-210.3871C464.3179,-211.4979 467.06,-212.5747 469.7532,-213.6 515.7546,-231.1132 530.7565,-231.9952 580.3336,-249.2008"/>
<polygon fill="#000000" stroke="#000000" points="579.4136,-252.5875 590.0084,-252.6111 581.7408,-245.9856 579.4136,-252.5875"/>
</g>
<!-- GO:0044463 -->
<g id="node11" class="node">
<title>GO:0044463</title>
<polygon fill="#ffffff" stroke="#000000" points="572.4913,-291.0019 451.0151,-291.0019 451.0151,-249.7981 572.4913,-249.7981 572.4913,-291.0019"/>
<text text-anchor="middle" x="511.7532" y="-274.6" font-family="Times,serif" font-size="14.00" fill="#000000">GO:0044463</text>
<text text-anchor="middle" x="511.7532" y="-257.8" font-family="Times,serif" font-size="14.00" fill="#000000">cell projection part</text>
</g>
<!-- GO:0044306&#45;&gt;GO:0044463 -->
<g id="edge9" class="edge">
<title>GO:0044306&#45;&gt;GO:0044463</title>
<path fill="none" stroke="#000000" d="M440.6186,-213.7558C452.6338,-223.3234 465.9115,-233.8964 477.7101,-243.2916"/>
<polygon fill="#000000" stroke="#000000" points="475.6053,-246.0896 485.6083,-249.5809 479.9658,-240.6136 475.6053,-246.0896"/>
</g>
<!-- GO:0033267&#45;&gt;GO:0097458 -->
<g id="edge10" class="edge">
<title>GO:0033267&#45;&gt;GO:0097458</title>
<path fill="none" stroke="#000000" d="M550.6232,-205.2182C565.4846,-216.7325 584.1176,-231.1688 600.0682,-243.5269"/>
<polygon fill="#000000" stroke="#000000" points="598.082,-246.4156 608.1306,-249.7735 602.3692,-240.8821 598.082,-246.4156"/>
</g>
<!-- GO:0033267&#45;&gt;GO:0044463 -->
<g id="edge11" class="edge">
<title>GO:0033267&#45;&gt;GO:0044463</title>
<path fill="none" stroke="#000000" d="M520.8483,-205.2182C519.4038,-215.5705 517.6297,-228.2848 516.0331,-239.7271"/>
<polygon fill="#000000" stroke="#000000" points="512.5469,-239.3857 514.6313,-249.7735 519.4798,-240.3532 512.5469,-239.3857"/>
</g>
<!-- GO:0097458&#45;&gt;GO:0044464 -->
<g id="edge12" class="edge">
<title>GO:0097458&#45;&gt;GO:0044464</title>
<path fill="none" stroke="#000000" d="M679.2382,-291.1954C700.1623,-300.9768 725.2826,-312.7198 747.2389,-322.9837"/>
<polygon fill="#000000" stroke="#000000" points="745.8923,-326.2177 756.4335,-327.2819 748.8567,-319.8763 745.8923,-326.2177"/>
</g>
<!-- GO:0044463&#45;&gt;GO:0044464 -->
<g id="edge13" class="edge">
<title>GO:0044463&#45;&gt;GO:0044464</title>
<path fill="none" stroke="#000000" d="M572.6677,-288.9072C575.3976,-289.691 578.1024,-290.4586 580.7532,-291.2 636.9086,-306.9063 701.565,-323.4124 746.1818,-334.5578"/>
<polygon fill="#000000" stroke="#000000" points="745.3991,-337.9698 755.9488,-336.992 747.092,-331.1775 745.3991,-337.9698"/>
</g>
<!-- GO:0045121 -->
<g id="node12" class="node">
<title>GO:0045121</title>
<polygon fill="#ffffff" stroke="#000000" points="300.7652,-119.0019 202.7412,-119.0019 202.7412,-77.7981 300.7652,-77.7981 300.7652,-119.0019"/>
<text text-anchor="middle" x="251.7532" y="-102.6" font-family="Times,serif" font-size="14.00" fill="#000000">GO:0045121</text>
<text text-anchor="middle" x="251.7532" y="-85.8" font-family="Times,serif" font-size="14.00" fill="#000000">membrane raft</text>
</g>
<!-- GO:0098857 -->
<g id="node13" class="node">
<title>GO:0098857</title>
<polygon fill="#ffffff" stroke="#000000" points="328.4912,-205.0019 175.0152,-205.0019 175.0152,-163.7981 328.4912,-163.7981 328.4912,-205.0019"/>
<text text-anchor="middle" x="251.7532" y="-188.6" font-family="Times,serif" font-size="14.00" fill="#000000">GO:0098857</text>
<text text-anchor="middle" x="251.7532" y="-171.8" font-family="Times,serif" font-size="14.00" fill="#000000">membrane microdomain</text>
</g>
<!-- GO:0045121&#45;&gt;GO:0098857 -->
<g id="edge15" class="edge">
<title>GO:0045121&#45;&gt;GO:0098857</title>
<path fill="none" stroke="#000000" d="M251.7532,-119.2182C251.7532,-129.5705 251.7532,-142.2848 251.7532,-153.7271"/>
<polygon fill="#000000" stroke="#000000" points="248.2533,-153.7735 251.7532,-163.7735 255.2533,-153.7735 248.2533,-153.7735"/>
</g>
<!-- GO:0098589 -->
<g id="node14" class="node">
<title>GO:0098589</title>
<polygon fill="#ffffff" stroke="#000000" points="271.1051,-291.0019 156.4013,-291.0019 156.4013,-249.7981 271.1051,-249.7981 271.1051,-291.0019"/>
<text text-anchor="middle" x="213.7532" y="-274.6" font-family="Times,serif" font-size="14.00" fill="#000000">GO:0098589</text>
<text text-anchor="middle" x="213.7532" y="-257.8" font-family="Times,serif" font-size="14.00" fill="#000000">membrane region</text>
</g>
<!-- GO:0098857&#45;&gt;GO:0098589 -->
<g id="edge16" class="edge">
<title>GO:0098857&#45;&gt;GO:0098589</title>
<path fill="none" stroke="#000000" d="M242.5545,-205.2182C237.8868,-215.7818 232.1325,-228.8048 226.9975,-240.4261"/>
<polygon fill="#000000" stroke="#000000" points="223.7075,-239.212 222.8672,-249.7735 230.1103,-242.0412 223.7075,-239.212"/>
</g>
<!-- GO:0098589&#45;&gt;GO:0016020 -->
<g id="edge18" class="edge">
<title>GO:0098589&#45;&gt;GO:0016020</title>
<path fill="none" stroke="#000000" d="M213.7532,-291.1954C213.7532,-299.1109 213.7532,-308.3109 213.7532,-316.9722"/>
<polygon fill="#000000" stroke="#000000" points="210.2533,-317.1472 213.7532,-327.1472 217.2533,-317.1473 210.2533,-317.1472"/>
</g>
<!-- GO:0098589&#45;&gt;GO:0044425 -->
<g id="edge17" class="edge">
<title>GO:0098589&#45;&gt;GO:0044425</title>
<path fill="none" stroke="#000000" d="M253.1465,-291.1954C271.4276,-300.8458 293.3257,-312.4056 312.5813,-322.5705"/>
<polygon fill="#000000" stroke="#000000" points="311.0289,-325.7087 321.5063,-327.2819 314.2968,-319.5183 311.0289,-325.7087"/>
</g>
<!-- GO:0030425 -->
<g id="node15" class="node">
<title>GO:0030425</title>
<polygon fill="#ffffff" stroke="#000000" points="795.3571,-119.0019 706.1493,-119.0019 706.1493,-77.7981 795.3571,-77.7981 795.3571,-119.0019"/>
<text text-anchor="middle" x="750.7532" y="-102.6" font-family="Times,serif" font-size="14.00" fill="#000000">GO:0030425</text>
<text text-anchor="middle" x="750.7532" y="-85.8" font-family="Times,serif" font-size="14.00" fill="#000000">dendrite</text>
</g>
<!-- GO:0043005 -->
<g id="node16" class="node">
<title>GO:0043005</title>
<polygon fill="#ffffff" stroke="#000000" points="808.3901,-205.0019 693.1163,-205.0019 693.1163,-163.7981 808.3901,-163.7981 808.3901,-205.0019"/>
<text text-anchor="middle" x="750.7532" y="-188.6" font-family="Times,serif" font-size="14.00" fill="#000000">GO:0043005</text>
<text text-anchor="middle" x="750.7532" y="-171.8" font-family="Times,serif" font-size="14.00" fill="#000000">neuron projection</text>
</g>
<!-- GO:0030425&#45;&gt;GO:0043005 -->
<g id="edge20" class="edge">
<title>GO:0030425&#45;&gt;GO:0043005</title>
<path fill="none" stroke="#000000" d="M750.7532,-119.2182C750.7532,-129.5705 750.7532,-142.2848 750.7532,-153.7271"/>
<polygon fill="#000000" stroke="#000000" points="747.2533,-153.7735 750.7532,-163.7735 754.2533,-153.7735 747.2533,-153.7735"/>
</g>
<!-- GO:0043005&#45;&gt;GO:0097458 -->
<g id="edge21" class="edge">
<title>GO:0043005&#45;&gt;GO:0097458</title>
<path fill="none" stroke="#000000" d="M722.6728,-205.2182C707.142,-216.7325 687.6696,-231.1688 671.0006,-243.5269"/>
<polygon fill="#000000" stroke="#000000" points="668.5236,-241.0063 662.575,-249.7735 672.6926,-246.6295 668.5236,-241.0063"/>
</g>
<!-- GO:0042995 -->
<g id="node17" class="node">
<title>GO:0042995</title>
<polygon fill="#ffffff" stroke="#000000" points="794.2264,-291.0019 697.28,-291.0019 697.28,-249.7981 794.2264,-249.7981 794.2264,-291.0019"/>
<text text-anchor="middle" x="745.7532" y="-274.6" font-family="Times,serif" font-size="14.00" fill="#000000">GO:0042995</text>
<text text-anchor="middle" x="745.7532" y="-257.8" font-family="Times,serif" font-size="14.00" fill="#000000">cell projection</text>
</g>
<!-- GO:0043005&#45;&gt;GO:0042995 -->
<g id="edge22" class="edge">
<title>GO:0043005&#45;&gt;GO:0042995</title>
<path fill="none" stroke="#000000" d="M749.5428,-205.2182C748.941,-215.5705 748.2018,-228.2848 747.5365,-239.7271"/>
<polygon fill="#000000" stroke="#000000" points="744.0388,-239.5872 746.9524,-249.7735 751.027,-239.9936 744.0388,-239.5872"/>
</g>
<!-- GO:0042995&#45;&gt;GO:0044464 -->
<g id="edge23" class="edge">
<title>GO:0042995&#45;&gt;GO:0044464</title>
<path fill="none" stroke="#000000" d="M760.4922,-291.1954C766.5339,-299.7197 773.6316,-309.7339 780.1711,-318.9605"/>
<polygon fill="#000000" stroke="#000000" points="777.3355,-321.0125 785.9735,-327.1472 783.0465,-316.9647 777.3355,-321.0125"/>
</g>
<!-- GO:0098794 -->
<g id="node18" class="node">
<title>GO:0098794</title>
<polygon fill="#ffffff" stroke="#000000" points="1135.3571,-291.0019 1046.1493,-291.0019 1046.1493,-249.7981 1135.3571,-249.7981 1135.3571,-291.0019"/>
<text text-anchor="middle" x="1090.7532" y="-274.6" font-family="Times,serif" font-size="14.00" fill="#000000">GO:0098794</text>
<text text-anchor="middle" x="1090.7532" y="-257.8" font-family="Times,serif" font-size="14.00" fill="#000000">postsynapse</text>
</g>
<!-- GO:0098794&#45;&gt;GO:0044464 -->
<g id="edge25" class="edge">
<title>GO:0098794&#45;&gt;GO:0044464</title>
<path fill="none" stroke="#000000" d="M1046.1236,-288.1105C1042.9685,-289.202 1039.8226,-290.244 1036.7532,-291.2 975.5239,-310.2699 903.6967,-326.7386 855.5069,-336.9603"/>
<polygon fill="#000000" stroke="#000000" points="854.6601,-333.5617 845.5948,-339.0453 856.1011,-340.4118 854.6601,-333.5617"/>
</g>
<!-- GO:0044456 -->
<g id="node19" class="node">
<title>GO:0044456</title>
<polygon fill="#ffffff" stroke="#000000" points="1041.3571,-368.6019 952.1493,-368.6019 952.1493,-327.3981 1041.3571,-327.3981 1041.3571,-368.6019"/>
<text text-anchor="middle" x="996.7532" y="-352.2" font-family="Times,serif" font-size="14.00" fill="#000000">GO:0044456</text>
<text text-anchor="middle" x="996.7532" y="-335.4" font-family="Times,serif" font-size="14.00" fill="#000000">synapse part</text>
</g>
<!-- GO:0098794&#45;&gt;GO:0044456 -->
<g id="edge24" class="edge">
<title>GO:0098794&#45;&gt;GO:0044456</title>
<path fill="none" stroke="#000000" d="M1065.5629,-291.1954C1054.6048,-300.2416 1041.6143,-310.9657 1029.8884,-320.6458"/>
<polygon fill="#000000" stroke="#000000" points="1027.4965,-318.0818 1022.013,-327.1472 1031.953,-323.48 1027.4965,-318.0818"/>
</g>
<!-- GO:0044456&#45;&gt;GO:0005575 -->
<g id="edge26" class="edge">
<title>GO:0044456&#45;&gt;GO:0005575</title>
<path fill="none" stroke="#000000" d="M1011.2242,-368.7954C1017.0956,-377.2328 1023.9826,-387.1297 1030.3486,-396.2778"/>
<polygon fill="#000000" stroke="#000000" points="1027.6574,-398.5382 1036.2422,-404.7472 1033.4032,-394.5398 1027.6574,-398.5382"/>
</g>
<!-- GO:0030430 -->
<g id="node20" class="node">
<title>GO:0030430</title>
<polygon fill="#ffffff" stroke="#000000" points="1294.8444,-119.0019 1170.662,-119.0019 1170.662,-77.7981 1294.8444,-77.7981 1294.8444,-119.0019"/>
<text text-anchor="middle" x="1232.7532" y="-102.6" font-family="Times,serif" font-size="14.00" fill="#000000">GO:0030430</text>
<text text-anchor="middle" x="1232.7532" y="-85.8" font-family="Times,serif" font-size="14.00" fill="#000000">host cell cytoplasm</text>
</g>
<!-- GO:0033646 -->
<g id="node21" class="node">
<title>GO:0033646</title>
<polygon fill="#ffffff" stroke="#000000" points="1304.4871,-205.0019 1169.0193,-205.0019 1169.0193,-163.7981 1304.4871,-163.7981 1304.4871,-205.0019"/>
<text text-anchor="middle" x="1236.7532" y="-188.6" font-family="Times,serif" font-size="14.00" fill="#000000">GO:0033646</text>
<text text-anchor="middle" x="1236.7532" y="-171.8" font-family="Times,serif" font-size="14.00" fill="#000000">host intracellular part</text>
</g>
<!-- GO:0030430&#45;&gt;GO:0033646 -->
<g id="edge27" class="edge">
<title>GO:0030430&#45;&gt;GO:0033646</title>
<path fill="none" stroke="#000000" d="M1233.7215,-119.2182C1234.203,-129.5705 1234.7944,-142.2848 1235.3266,-153.7271"/>
<polygon fill="#000000" stroke="#000000" points="1231.8329,-153.947 1235.7938,-163.7735 1238.8253,-153.6217 1231.8329,-153.947"/>
</g>
<!-- GO:0033643 -->
<g id="node22" class="node">
<title>GO:0033643</title>
<polygon fill="#ffffff" stroke="#000000" points="1281.3571,-291.0019 1192.1493,-291.0019 1192.1493,-249.7981 1281.3571,-249.7981 1281.3571,-291.0019"/>
<text text-anchor="middle" x="1236.7532" y="-274.6" font-family="Times,serif" font-size="14.00" fill="#000000">GO:0033643</text>
<text text-anchor="middle" x="1236.7532" y="-257.8" font-family="Times,serif" font-size="14.00" fill="#000000">host cell part</text>
</g>
<!-- GO:0033646&#45;&gt;GO:0033643 -->
<g id="edge28" class="edge">
<title>GO:0033646&#45;&gt;GO:0033643</title>
<path fill="none" stroke="#000000" d="M1236.7532,-205.2182C1236.7532,-215.5705 1236.7532,-228.2848 1236.7532,-239.7271"/>
<polygon fill="#000000" stroke="#000000" points="1233.2533,-239.7735 1236.7532,-249.7735 1240.2533,-239.7735 1233.2533,-239.7735"/>
</g>
<!-- GO:0044217 -->
<g id="node23" class="node">
<title>GO:0044217</title>
<polygon fill="#ffffff" stroke="#000000" points="1295.3863,-368.6019 1170.1201,-368.6019 1170.1201,-327.3981 1295.3863,-327.3981 1295.3863,-368.6019"/>
<text text-anchor="middle" x="1232.7532" y="-352.2" font-family="Times,serif" font-size="14.00" fill="#000000">GO:0044217</text>
<text text-anchor="middle" x="1232.7532" y="-335.4" font-family="Times,serif" font-size="14.00" fill="#000000">other organism part</text>
</g>
<!-- GO:0033643&#45;&gt;GO:0044217 -->
<g id="edge29" class="edge">
<title>GO:0033643&#45;&gt;GO:0044217</title>
<path fill="none" stroke="#000000" d="M1235.6813,-291.1954C1235.2733,-299.1109 1234.799,-308.3109 1234.3526,-316.9722"/>
<polygon fill="#000000" stroke="#000000" points="1230.8476,-316.9803 1233.8281,-327.1472 1237.8383,-317.3407 1230.8476,-316.9803"/>
</g>
<!-- GO:0044217&#45;&gt;GO:0005575 -->
<g id="edge30" class="edge">
<title>GO:0044217&#45;&gt;GO:0005575</title>
<path fill="none" stroke="#000000" d="M1183.9805,-368.7954C1160.8347,-378.6641 1133.0058,-390.5296 1108.7816,-400.8582"/>
<polygon fill="#000000" stroke="#000000" points="1107.1707,-397.7402 1099.3447,-404.8819 1109.9162,-404.1793 1107.1707,-397.7402"/>
</g>
<!-- GO:0019038 -->
<g id="node24" class="node">
<title>GO:0019038</title>
<polygon fill="#ffffff" stroke="#000000" points="1266.3571,-41.4019 1177.1493,-41.4019 1177.1493,-.1981 1266.3571,-.1981 1266.3571,-41.4019"/>
<text text-anchor="middle" x="1221.7532" y="-25" font-family="Times,serif" font-size="14.00" fill="#000000">GO:0019038</text>
<text text-anchor="middle" x="1221.7532" y="-8.2" font-family="Times,serif" font-size="14.00" fill="#000000">provirus</text>
</g>
<!-- GO:0019015 -->
<g id="node25" class="node">
<title>GO:0019015</title>
<polygon fill="#ffffff" stroke="#000000" points="1402.7307,-119.0019 1312.7757,-119.0019 1312.7757,-77.7981 1402.7307,-77.7981 1402.7307,-119.0019"/>
<text text-anchor="middle" x="1357.7532" y="-102.6" font-family="Times,serif" font-size="14.00" fill="#000000">GO:0019015</text>
<text text-anchor="middle" x="1357.7532" y="-85.8" font-family="Times,serif" font-size="14.00" fill="#000000">viral genome</text>
</g>
<!-- GO:0019038&#45;&gt;GO:0019015 -->
<g id="edge31" class="edge">
<title>GO:0019038&#45;&gt;GO:0019015</title>
<path fill="none" stroke="#000000" d="M1258.1987,-41.5954C1274.8152,-51.0766 1294.6617,-62.4008 1312.2466,-72.4345"/>
<polygon fill="#000000" stroke="#000000" points="1310.7869,-75.6312 1321.2071,-77.5472 1314.2561,-69.5513 1310.7869,-75.6312"/>
</g>
<!-- GO:0044427 -->
<g id="node26" class="node">
<title>GO:0044427</title>
<polygon fill="#ffffff" stroke="#000000" points="1144.7262,-119.0019 1026.7802,-119.0019 1026.7802,-77.7981 1144.7262,-77.7981 1144.7262,-119.0019"/>
<text text-anchor="middle" x="1085.7532" y="-102.6" font-family="Times,serif" font-size="14.00" fill="#000000">GO:0044427</text>
<text text-anchor="middle" x="1085.7532" y="-85.8" font-family="Times,serif" font-size="14.00" fill="#000000">chromosomal part</text>
</g>
<!-- GO:0019038&#45;&gt;GO:0044427 -->
<g id="edge32" class="edge">
<title>GO:0019038&#45;&gt;GO:0044427</title>
<path fill="none" stroke="#000000" d="M1185.3077,-41.5954C1168.6912,-51.0766 1148.8447,-62.4008 1131.2598,-72.4345"/>
<polygon fill="#000000" stroke="#000000" points="1129.2503,-69.5513 1122.2993,-77.5472 1132.7195,-75.6312 1129.2503,-69.5513"/>
</g>
<!-- GO:0044423 -->
<g id="node27" class="node">
<title>GO:0044423</title>
<polygon fill="#ffffff" stroke="#000000" points="1402.3571,-368.6019 1313.1493,-368.6019 1313.1493,-327.3981 1402.3571,-327.3981 1402.3571,-368.6019"/>
<text text-anchor="middle" x="1357.7532" y="-352.2" font-family="Times,serif" font-size="14.00" fill="#000000">GO:0044423</text>
<text text-anchor="middle" x="1357.7532" y="-335.4" font-family="Times,serif" font-size="14.00" fill="#000000">virion part</text>
</g>
<!-- GO:0019015&#45;&gt;GO:0044423 -->
<g id="edge33" class="edge">
<title>GO:0019015&#45;&gt;GO:0044423</title>
<path fill="none" stroke="#000000" d="M1357.7532,-119.2514C1357.7532,-163.2243 1357.7532,-265.6412 1357.7532,-317.194"/>
<polygon fill="#000000" stroke="#000000" points="1354.2533,-317.3834 1357.7532,-327.3834 1361.2533,-317.3835 1354.2533,-317.3834"/>
</g>
<!-- GO:0044446 -->
<g id="node28" class="node">
<title>GO:0044446</title>
<polygon fill="#ffffff" stroke="#000000" points="1151.4716,-213.8014 1012.0348,-213.8014 1012.0348,-154.9986 1151.4716,-154.9986 1151.4716,-213.8014"/>
<text text-anchor="middle" x="1081.7532" y="-197" font-family="Times,serif" font-size="14.00" fill="#000000">GO:0044446</text>
<text text-anchor="middle" x="1081.7532" y="-180.2" font-family="Times,serif" font-size="14.00" fill="#000000">intracellular organelle</text>
<text text-anchor="middle" x="1081.7532" y="-163.4" font-family="Times,serif" font-size="14.00" fill="#000000">part</text>
</g>
<!-- GO:0044427&#45;&gt;GO:0044446 -->
<g id="edge34" class="edge">
<title>GO:0044427&#45;&gt;GO:0044446</title>
<path fill="none" stroke="#000000" d="M1084.7849,-119.2182C1084.426,-126.9358 1084.0059,-135.9662 1083.5949,-144.8036"/>
<polygon fill="#000000" stroke="#000000" points="1080.0892,-144.8473 1083.1207,-154.9991 1087.0816,-145.1726 1080.0892,-144.8473"/>
</g>
<!-- GO:0044423&#45;&gt;GO:0005575 -->
<g id="edge35" class="edge">
<title>GO:0044423&#45;&gt;GO:0005575</title>
<path fill="none" stroke="#000000" d="M1313.1051,-366.081C1310.2944,-367.0454 1307.4942,-367.9611 1304.7532,-368.8 1244.9032,-387.1168 1175.458,-402.241 1124.3231,-412.265"/>
<polygon fill="#000000" stroke="#000000" points="1123.4982,-408.8597 1114.3485,-414.2012 1124.8322,-415.7314 1123.4982,-408.8597"/>
</g>
<!-- GO:0044424 -->
<g id="node29" class="node">
<title>GO:0044424</title>
<polygon fill="#ffffff" stroke="#000000" points="1028.1516,-291.0019 919.3548,-291.0019 919.3548,-249.7981 1028.1516,-249.7981 1028.1516,-291.0019"/>
<text text-anchor="middle" x="973.7532" y="-274.6" font-family="Times,serif" font-size="14.00" fill="#000000">GO:0044424</text>
<text text-anchor="middle" x="973.7532" y="-257.8" font-family="Times,serif" font-size="14.00" fill="#000000">intracellular part</text>
</g>
<!-- GO:0044446&#45;&gt;GO:0044424 -->
<g id="edge36" class="edge">
<title>GO:0044446&#45;&gt;GO:0044424</title>
<path fill="none" stroke="#000000" d="M1044.8878,-213.7558C1032.8726,-223.3234 1019.5949,-233.8964 1007.7963,-243.2916"/>
<polygon fill="#000000" stroke="#000000" points="1005.5406,-240.6136 999.8981,-249.5809 1009.9011,-246.0896 1005.5406,-240.6136"/>
</g>
<!-- GO:0044422 -->
<g id="node30" class="node">
<title>GO:0044422</title>
<polygon fill="#ffffff" stroke="#000000" points="1152.6053,-368.6019 1058.9011,-368.6019 1058.9011,-327.3981 1152.6053,-327.3981 1152.6053,-368.6019"/>
<text text-anchor="middle" x="1105.7532" y="-352.2" font-family="Times,serif" font-size="14.00" fill="#000000">GO:0044422</text>
<text text-anchor="middle" x="1105.7532" y="-335.4" font-family="Times,serif" font-size="14.00" fill="#000000">organelle part</text>
</g>
<!-- GO:0044446&#45;&gt;GO:0044422 -->
<g id="edge37" class="edge">
<title>GO:0044446&#45;&gt;GO:0044422</title>
<path fill="none" stroke="#000000" d="M1119.5105,-213.8606C1129.6638,-223.9775 1139.3265,-236.1741 1144.7532,-249.6 1151.6818,-266.7416 1150.232,-273.5415 1144.7532,-291.2 1141.7278,-300.9511 1136.3846,-310.5138 1130.6054,-318.93"/>
<polygon fill="#000000" stroke="#000000" points="1127.5981,-317.1122 1124.5039,-327.2452 1133.2417,-321.2534 1127.5981,-317.1122"/>
</g>
<!-- GO:0044424&#45;&gt;GO:0044464 -->
<g id="edge38" class="edge">
<title>GO:0044424&#45;&gt;GO:0044464</title>
<path fill="none" stroke="#000000" d="M927.3924,-291.1954C905.0487,-301.2178 878.1138,-313.2995 854.8392,-323.7395"/>
<polygon fill="#000000" stroke="#000000" points="853.1408,-320.6652 845.4491,-327.9514 856.0057,-327.0522 853.1408,-320.6652"/>
</g>
<!-- GO:0044422&#45;&gt;GO:0005575 -->
<g id="edge39" class="edge">
<title>GO:0044422&#45;&gt;GO:0005575</title>
<path fill="none" stroke="#000000" d="M1091.0142,-368.7954C1084.9725,-377.3197 1077.8748,-387.3339 1071.3353,-396.5605"/>
<polygon fill="#000000" stroke="#000000" points="1068.4599,-394.5647 1065.5329,-404.7472 1074.1709,-398.6125 1068.4599,-394.5647"/>
</g>
<!-- GO:0098984 -->
<g id="node31" class="node">
<title>GO:0098984</title>
<polygon fill="#ffffff" stroke="#000000" points="1545.7133,-291.0019 1385.7931,-291.0019 1385.7931,-249.7981 1545.7133,-249.7981 1545.7133,-291.0019"/>
<text text-anchor="middle" x="1465.7532" y="-274.6" font-family="Times,serif" font-size="14.00" fill="#000000">GO:0098984</text>
<text text-anchor="middle" x="1465.7532" y="-257.8" font-family="Times,serif" font-size="14.00" fill="#000000">neuron to neuron synapse</text>
</g>
<!-- GO:0045202 -->
<g id="node32" class="node">
<title>GO:0045202</title>
<polygon fill="#ffffff" stroke="#000000" points="1509.3571,-368.6019 1420.1493,-368.6019 1420.1493,-327.3981 1509.3571,-327.3981 1509.3571,-368.6019"/>
<text text-anchor="middle" x="1464.7532" y="-352.2" font-family="Times,serif" font-size="14.00" fill="#000000">GO:0045202</text>
<text text-anchor="middle" x="1464.7532" y="-335.4" font-family="Times,serif" font-size="14.00" fill="#000000">synapse</text>
</g>
<!-- GO:0098984&#45;&gt;GO:0045202 -->
<g id="edge40" class="edge">
<title>GO:0098984&#45;&gt;GO:0045202</title>
<path fill="none" stroke="#000000" d="M1465.4852,-291.1954C1465.3832,-299.1109 1465.2647,-308.3109 1465.153,-316.9722"/>
<polygon fill="#000000" stroke="#000000" points="1461.6512,-317.1029 1465.0219,-327.1472 1468.6506,-317.1932 1461.6512,-317.1029"/>
</g>
<!-- GO:0045202&#45;&gt;GO:0005575 -->
<g id="edge41" class="edge">
<title>GO:0045202&#45;&gt;GO:0005575</title>
<path fill="none" stroke="#000000" d="M1420.1651,-366.2886C1417.3395,-367.2015 1414.5197,-368.0492 1411.7532,-368.8 1314.2394,-395.2659 1198.3406,-410.7851 1124.6711,-418.7349"/>
<polygon fill="#000000" stroke="#000000" points="1124.1377,-415.2718 1114.5626,-419.8068 1124.8759,-422.2327 1124.1377,-415.2718"/>
</g>
<!-- GO:0043025 -->
<g id="node33" class="node">
<title>GO:0043025</title>
<polygon fill="#ffffff" stroke="#000000" points="946.9442,-205.0019 826.5622,-205.0019 826.5622,-163.7981 946.9442,-163.7981 946.9442,-205.0019"/>
<text text-anchor="middle" x="886.7532" y="-188.6" font-family="Times,serif" font-size="14.00" fill="#000000">GO:0043025</text>
<text text-anchor="middle" x="886.7532" y="-171.8" font-family="Times,serif" font-size="14.00" fill="#000000">neuronal cell body</text>
</g>
<!-- GO:0043025&#45;&gt;GO:0097458 -->
<g id="edge42" class="edge">
<title>GO:0043025&#45;&gt;GO:0097458</title>
<path fill="none" stroke="#000000" d="M840.3035,-205.0115C832.8251,-208.0529 825.1208,-211.0249 817.7532,-213.6 764.4158,-232.2421 747.0161,-231.0637 689.0813,-249.6561"/>
<polygon fill="#000000" stroke="#000000" points="687.8393,-246.3798 679.4234,-252.8159 690.016,-253.0328 687.8393,-246.3798"/>
</g>
<!-- GO:0044297 -->
<g id="node34" class="node">
<title>GO:0044297</title>
<polygon fill="#ffffff" stroke="#000000" points="901.3571,-291.0019 812.1493,-291.0019 812.1493,-249.7981 901.3571,-249.7981 901.3571,-291.0019"/>
<text text-anchor="middle" x="856.7532" y="-274.6" font-family="Times,serif" font-size="14.00" fill="#000000">GO:0044297</text>
<text text-anchor="middle" x="856.7532" y="-257.8" font-family="Times,serif" font-size="14.00" fill="#000000">cell body</text>
</g>
<!-- GO:0043025&#45;&gt;GO:0044297 -->
<g id="edge43" class="edge">
<title>GO:0043025&#45;&gt;GO:0044297</title>
<path fill="none" stroke="#000000" d="M879.491,-205.2182C875.8429,-215.6761 871.3539,-228.5446 867.331,-240.077"/>
<polygon fill="#000000" stroke="#000000" points="863.9376,-239.1787 863.9485,-249.7735 870.547,-241.4843 863.9376,-239.1787"/>
</g>
<!-- GO:0044297&#45;&gt;GO:0044464 -->
<g id="edge44" class="edge">
<title>GO:0044297&#45;&gt;GO:0044464</title>
<path fill="none" stroke="#000000" d="M841.7462,-291.1954C835.5946,-299.7197 828.3679,-309.7339 821.7095,-318.9605"/>
<polygon fill="#000000" stroke="#000000" points="818.8153,-316.99 815.8016,-327.1472 824.4916,-321.0864 818.8153,-316.99"/>
</g>
<!-- GO:0043204 -->
<g id="node35" class="node">
<title>GO:0043204</title>
<polygon fill="#ffffff" stroke="#000000" points="675.3571,-205.0019 586.1493,-205.0019 586.1493,-163.7981 675.3571,-163.7981 675.3571,-205.0019"/>
<text text-anchor="middle" x="630.7532" y="-188.6" font-family="Times,serif" font-size="14.00" fill="#000000">GO:0043204</text>
<text text-anchor="middle" x="630.7532" y="-171.8" font-family="Times,serif" font-size="14.00" fill="#000000">perikaryon</text>
</g>
<!-- GO:0043204&#45;&gt;GO:0097458 -->
<g id="edge45" class="edge">
<title>GO:0043204&#45;&gt;GO:0097458</title>
<path fill="none" stroke="#000000" d="M631.7215,-205.2182C632.203,-215.5705 632.7944,-228.2848 633.3266,-239.7271"/>
<polygon fill="#000000" stroke="#000000" points="629.8329,-239.947 633.7938,-249.7735 636.8253,-239.6217 629.8329,-239.947"/>
</g>
</g>
</svg>
