<?xml version="1.0" encoding="UTF-8" standalone="no"?>
<!DOCTYPE svg PUBLIC "-//W3C//DTD SVG 1.1//EN"
 "http://www.w3.org/Graphics/SVG/1.1/DTD/svg11.dtd">
<!-- Generated by graphviz version 2.40.1 (20161225.0304)
 -->
<!-- Title: G Pages: 1 -->
<svg width="598pt" height="677pt"
 viewBox="0.00 0.00 598.07 676.80" xmlns="http://www.w3.org/2000/svg" xmlns:xlink="http://www.w3.org/1999/xlink">
<g id="graph0" class="graph" transform="scale(1 1) rotate(0) translate(4 672.8)">
<title>G</title>
<polygon fill="#ffffff" stroke="transparent" points="-4,4 -4,-672.8 594.0695,-672.8 594.0695,4 -4,4"/>
<!-- GO:0030669 -->
<g id="node1" class="node">
<title>GO:0030669</title>
<polygon fill="#ffffff" stroke="#000000" points="335.4928,-58.6014 177.7296,-58.6014 177.7296,.2014 335.4928,.2014 335.4928,-58.6014"/>
<text text-anchor="middle" x="256.6112" y="-41.8" font-family="Times,serif" font-size="14.00" fill="#000000">GO:0030669</text>
<text text-anchor="middle" x="256.6112" y="-25" font-family="Times,serif" font-size="14.00" fill="#000000">clathrin&#45;coated endocytic</text>
<text text-anchor="middle" x="256.6112" y="-8.2" font-family="Times,serif" font-size="14.00" fill="#000000">vesicle membrane</text>
</g>
<!-- GO:0030665 -->
<g id="node2" class="node">
<title>GO:0030665</title>
<polygon fill="#ffffff" stroke="#000000" points="390.9378,-153.0014 248.2846,-153.0014 248.2846,-94.1986 390.9378,-94.1986 390.9378,-153.0014"/>
<text text-anchor="middle" x="319.6112" y="-136.2" font-family="Times,serif" font-size="14.00" fill="#000000">GO:0030665</text>
<text text-anchor="middle" x="319.6112" y="-119.4" font-family="Times,serif" font-size="14.00" fill="#000000">clathrin&#45;coated vesicle</text>
<text text-anchor="middle" x="319.6112" y="-102.6" font-family="Times,serif" font-size="14.00" fill="#000000">membrane</text>
</g>
<!-- GO:0030669&#45;&gt;GO:0030665 -->
<g id="edge1" class="edge">
<title>GO:0030669&#45;&gt;GO:0030665</title>
<path fill="none" stroke="#000000" d="M276.1995,-58.5513C281.9477,-67.1646 288.3166,-76.7078 294.365,-85.7708"/>
<polygon fill="#000000" stroke="#000000" points="291.5727,-87.8919 300.0351,-94.2669 297.3952,-84.0062 291.5727,-87.8919"/>
</g>
<!-- GO:0030666 -->
<g id="node3" class="node">
<title>GO:0030666</title>
<polygon fill="#ffffff" stroke="#000000" points="236.906,-247.4014 124.3164,-247.4014 124.3164,-188.5986 236.906,-188.5986 236.906,-247.4014"/>
<text text-anchor="middle" x="180.6112" y="-230.6" font-family="Times,serif" font-size="14.00" fill="#000000">GO:0030666</text>
<text text-anchor="middle" x="180.6112" y="-213.8" font-family="Times,serif" font-size="14.00" fill="#000000">endocytic vesicle</text>
<text text-anchor="middle" x="180.6112" y="-197" font-family="Times,serif" font-size="14.00" fill="#000000">membrane</text>
</g>
<!-- GO:0030669&#45;&gt;GO:0030666 -->
<g id="edge2" class="edge">
<title>GO:0030669&#45;&gt;GO:0030666</title>
<path fill="none" stroke="#000000" d="M244.7362,-58.7C231.6854,-91.121 210.6662,-143.3372 196.2742,-179.0898"/>
<polygon fill="#000000" stroke="#000000" points="192.8903,-178.1235 192.4028,-188.7072 199.3839,-180.7375 192.8903,-178.1235"/>
</g>
<!-- GO:0030662 -->
<g id="node4" class="node">
<title>GO:0030662</title>
<polygon fill="#ffffff" stroke="#000000" points="412.6016,-238.6019 254.6208,-238.6019 254.6208,-197.3981 412.6016,-197.3981 412.6016,-238.6019"/>
<text text-anchor="middle" x="333.6112" y="-222.2" font-family="Times,serif" font-size="14.00" fill="#000000">GO:0030662</text>
<text text-anchor="middle" x="333.6112" y="-205.4" font-family="Times,serif" font-size="14.00" fill="#000000">coated vesicle membrane</text>
</g>
<!-- GO:0030665&#45;&gt;GO:0030662 -->
<g id="edge3" class="edge">
<title>GO:0030665&#45;&gt;GO:0030662</title>
<path fill="none" stroke="#000000" d="M323.9641,-152.9513C325.5822,-163.8614 327.4215,-176.2637 329.057,-187.292"/>
<polygon fill="#000000" stroke="#000000" points="325.6196,-187.9727 330.5488,-197.351 332.5439,-186.9457 325.6196,-187.9727"/>
</g>
<!-- GO:0030659 -->
<g id="node5" class="node">
<title>GO:0030659</title>
<polygon fill="#ffffff" stroke="#000000" points="471.6316,-341.8014 345.5908,-341.8014 345.5908,-282.9986 471.6316,-282.9986 471.6316,-341.8014"/>
<text text-anchor="middle" x="408.6112" y="-325" font-family="Times,serif" font-size="14.00" fill="#000000">GO:0030659</text>
<text text-anchor="middle" x="408.6112" y="-308.2" font-family="Times,serif" font-size="14.00" fill="#000000">cytoplasmic vesicle</text>
<text text-anchor="middle" x="408.6112" y="-291.4" font-family="Times,serif" font-size="14.00" fill="#000000">membrane</text>
</g>
<!-- GO:0030666&#45;&gt;GO:0030659 -->
<g id="edge4" class="edge">
<title>GO:0030666&#45;&gt;GO:0030659</title>
<path fill="none" stroke="#000000" d="M236.9127,-243.4808C239.8492,-244.7508 242.7619,-245.9971 245.6112,-247.2 283.0203,-262.9926 294.7038,-266.5784 336.1025,-283.0193"/>
<polygon fill="#000000" stroke="#000000" points="334.8224,-286.2768 345.4075,-286.7317 337.4164,-279.7751 334.8224,-286.2768"/>
</g>
<!-- GO:0098588 -->
<g id="node6" class="node">
<title>GO:0098588</title>
<polygon fill="#ffffff" stroke="#000000" points="327.7484,-341.8014 181.474,-341.8014 181.474,-282.9986 327.7484,-282.9986 327.7484,-341.8014"/>
<text text-anchor="middle" x="254.6112" y="-325" font-family="Times,serif" font-size="14.00" fill="#000000">GO:0098588</text>
<text text-anchor="middle" x="254.6112" y="-308.2" font-family="Times,serif" font-size="14.00" fill="#000000">bounding membrane of</text>
<text text-anchor="middle" x="254.6112" y="-291.4" font-family="Times,serif" font-size="14.00" fill="#000000">organelle</text>
</g>
<!-- GO:0030666&#45;&gt;GO:0098588 -->
<g id="edge5" class="edge">
<title>GO:0030666&#45;&gt;GO:0098588</title>
<path fill="none" stroke="#000000" d="M203.6196,-247.3513C210.5108,-256.1422 218.1613,-265.9018 225.3959,-275.1308"/>
<polygon fill="#000000" stroke="#000000" points="222.693,-277.356 231.617,-283.0669 228.2021,-273.0374 222.693,-277.356"/>
</g>
<!-- GO:0098805 -->
<g id="node7" class="node">
<title>GO:0098805</title>
<polygon fill="#ffffff" stroke="#000000" points="162.9088,-333.0019 50.3136,-333.0019 50.3136,-291.7981 162.9088,-291.7981 162.9088,-333.0019"/>
<text text-anchor="middle" x="106.6112" y="-316.6" font-family="Times,serif" font-size="14.00" fill="#000000">GO:0098805</text>
<text text-anchor="middle" x="106.6112" y="-299.8" font-family="Times,serif" font-size="14.00" fill="#000000">whole membrane</text>
</g>
<!-- GO:0030666&#45;&gt;GO:0098805 -->
<g id="edge6" class="edge">
<title>GO:0030666&#45;&gt;GO:0098805</title>
<path fill="none" stroke="#000000" d="M157.6028,-247.3513C148.5213,-258.9363 138.121,-272.2037 129.0918,-283.722"/>
<polygon fill="#000000" stroke="#000000" points="126.2128,-281.7215 122.7979,-291.751 131.7219,-286.0401 126.2128,-281.7215"/>
</g>
<!-- GO:0030662&#45;&gt;GO:0030659 -->
<g id="edge7" class="edge">
<title>GO:0030662&#45;&gt;GO:0030659</title>
<path fill="none" stroke="#000000" d="M350.2561,-238.9504C358.6816,-249.5552 369.1665,-262.7522 378.9151,-275.0225"/>
<polygon fill="#000000" stroke="#000000" points="376.225,-277.263 385.186,-282.9155 381.7058,-272.9086 376.225,-277.263"/>
</g>
<!-- GO:0030662&#45;&gt;GO:0098588 -->
<g id="edge8" class="edge">
<title>GO:0030662&#45;&gt;GO:0098588</title>
<path fill="none" stroke="#000000" d="M316.0785,-238.9504C307.2037,-249.5552 296.1597,-262.7522 285.8911,-275.0225"/>
<polygon fill="#000000" stroke="#000000" points="283.0194,-273.0004 279.2857,-282.9155 288.3877,-277.4929 283.0194,-273.0004"/>
</g>
<!-- GO:0030662&#45;&gt;GO:0098805 -->
<g id="edge9" class="edge">
<title>GO:0030662&#45;&gt;GO:0098805</title>
<path fill="none" stroke="#000000" d="M281.2323,-238.7238C249.6634,-251.3352 208.7098,-267.9097 172.6112,-283.2 169.1788,-284.6539 165.6529,-286.1641 162.1015,-287.6981"/>
<polygon fill="#000000" stroke="#000000" points="160.4628,-284.594 152.688,-291.7915 163.2542,-291.0134 160.4628,-284.594"/>
</g>
<!-- GO:0044433 -->
<g id="node8" class="node">
<title>GO:0044433</title>
<polygon fill="#ffffff" stroke="#000000" points="555.3977,-419.0019 403.8247,-419.0019 403.8247,-377.7981 555.3977,-377.7981 555.3977,-419.0019"/>
<text text-anchor="middle" x="479.6112" y="-402.6" font-family="Times,serif" font-size="14.00" fill="#000000">GO:0044433</text>
<text text-anchor="middle" x="479.6112" y="-385.8" font-family="Times,serif" font-size="14.00" fill="#000000">cytoplasmic vesicle part</text>
</g>
<!-- GO:0030659&#45;&gt;GO:0044433 -->
<g id="edge10" class="edge">
<title>GO:0030659&#45;&gt;GO:0044433</title>
<path fill="none" stroke="#000000" d="M433.0454,-341.9963C440.4775,-350.9986 448.6287,-360.8719 456.0051,-369.8067"/>
<polygon fill="#000000" stroke="#000000" points="453.4532,-372.2133 462.5188,-377.6966 458.8513,-367.7567 453.4532,-372.2133"/>
</g>
<!-- GO:0012506 -->
<g id="node9" class="node">
<title>GO:0012506</title>
<polygon fill="#ffffff" stroke="#000000" points="386.5673,-419.0019 268.6551,-419.0019 268.6551,-377.7981 386.5673,-377.7981 386.5673,-419.0019"/>
<text text-anchor="middle" x="327.6112" y="-402.6" font-family="Times,serif" font-size="14.00" fill="#000000">GO:0012506</text>
<text text-anchor="middle" x="327.6112" y="-385.8" font-family="Times,serif" font-size="14.00" fill="#000000">vesicle membrane</text>
</g>
<!-- GO:0030659&#45;&gt;GO:0012506 -->
<g id="edge11" class="edge">
<title>GO:0030659&#45;&gt;GO:0012506</title>
<path fill="none" stroke="#000000" d="M380.7356,-341.9963C372.0836,-351.1824 362.5776,-361.2752 354.0279,-370.3526"/>
<polygon fill="#000000" stroke="#000000" points="351.4194,-368.0173 347.111,-377.6966 356.5151,-372.8167 351.4194,-368.0173"/>
</g>
<!-- GO:0031090 -->
<g id="node10" class="node">
<title>GO:0031090</title>
<polygon fill="#ffffff" stroke="#000000" points="305.7828,-505.0019 175.4396,-505.0019 175.4396,-463.7981 305.7828,-463.7981 305.7828,-505.0019"/>
<text text-anchor="middle" x="240.6112" y="-488.6" font-family="Times,serif" font-size="14.00" fill="#000000">GO:0031090</text>
<text text-anchor="middle" x="240.6112" y="-471.8" font-family="Times,serif" font-size="14.00" fill="#000000">organelle membrane</text>
</g>
<!-- GO:0098588&#45;&gt;GO:0031090 -->
<g id="edge12" class="edge">
<title>GO:0098588&#45;&gt;GO:0031090</title>
<path fill="none" stroke="#000000" d="M252.2045,-341.9679C249.6759,-373.0339 245.7155,-421.6895 243.1414,-453.3143"/>
<polygon fill="#000000" stroke="#000000" points="239.6486,-453.0853 242.3257,-463.3363 246.6255,-453.6533 239.6486,-453.0853"/>
</g>
<!-- GO:0016020 -->
<g id="node11" class="node">
<title>GO:0016020</title>
<polygon fill="#ffffff" stroke="#000000" points="232.2151,-591.0019 143.0073,-591.0019 143.0073,-549.7981 232.2151,-549.7981 232.2151,-591.0019"/>
<text text-anchor="middle" x="187.6112" y="-574.6" font-family="Times,serif" font-size="14.00" fill="#000000">GO:0016020</text>
<text text-anchor="middle" x="187.6112" y="-557.8" font-family="Times,serif" font-size="14.00" fill="#000000">membrane</text>
</g>
<!-- GO:0098805&#45;&gt;GO:0016020 -->
<g id="edge13" class="edge">
<title>GO:0098805&#45;&gt;GO:0016020</title>
<path fill="none" stroke="#000000" d="M112.3097,-333.1017C122.4967,-369.7266 144.8112,-448.2484 166.6112,-513.6 169.5045,-522.2736 172.8557,-531.6093 176.0196,-540.1562"/>
<polygon fill="#000000" stroke="#000000" points="172.824,-541.6032 179.6091,-549.7403 179.3793,-539.148 172.824,-541.6032"/>
</g>
<!-- GO:0044446 -->
<g id="node12" class="node">
<title>GO:0044446</title>
<polygon fill="#ffffff" stroke="#000000" points="463.3296,-513.8014 323.8928,-513.8014 323.8928,-454.9986 463.3296,-454.9986 463.3296,-513.8014"/>
<text text-anchor="middle" x="393.6112" y="-497" font-family="Times,serif" font-size="14.00" fill="#000000">GO:0044446</text>
<text text-anchor="middle" x="393.6112" y="-480.2" font-family="Times,serif" font-size="14.00" fill="#000000">intracellular organelle</text>
<text text-anchor="middle" x="393.6112" y="-463.4" font-family="Times,serif" font-size="14.00" fill="#000000">part</text>
</g>
<!-- GO:0044433&#45;&gt;GO:0044446 -->
<g id="edge14" class="edge">
<title>GO:0044433&#45;&gt;GO:0044446</title>
<path fill="none" stroke="#000000" d="M458.793,-419.2182C450.2365,-427.7747 440.0664,-437.9448 430.3346,-447.6766"/>
<polygon fill="#000000" stroke="#000000" points="427.6083,-445.4532 423.0121,-454.9991 432.558,-450.4029 427.6083,-445.4532"/>
</g>
<!-- GO:0044444 -->
<g id="node13" class="node">
<title>GO:0044444</title>
<polygon fill="#ffffff" stroke="#000000" points="590.0278,-505.0019 481.1946,-505.0019 481.1946,-463.7981 590.0278,-463.7981 590.0278,-505.0019"/>
<text text-anchor="middle" x="535.6112" y="-488.6" font-family="Times,serif" font-size="14.00" fill="#000000">GO:0044444</text>
<text text-anchor="middle" x="535.6112" y="-471.8" font-family="Times,serif" font-size="14.00" fill="#000000">cytoplasmic part</text>
</g>
<!-- GO:0044433&#45;&gt;GO:0044444 -->
<g id="edge15" class="edge">
<title>GO:0044433&#45;&gt;GO:0044444</title>
<path fill="none" stroke="#000000" d="M493.1672,-419.2182C500.1834,-429.993 508.8658,-443.3267 516.5462,-455.1216"/>
<polygon fill="#000000" stroke="#000000" points="513.7902,-457.3034 522.18,-463.7735 519.6562,-453.4836 513.7902,-457.3034"/>
</g>
<!-- GO:0012506&#45;&gt;GO:0031090 -->
<g id="edge16" class="edge">
<title>GO:0012506&#45;&gt;GO:0031090</title>
<path fill="none" stroke="#000000" d="M306.5509,-419.2182C295.2234,-430.4156 281.1002,-444.3764 268.8337,-456.5019"/>
<polygon fill="#000000" stroke="#000000" points="266.1288,-454.2543 261.4775,-463.7735 271.0499,-459.2326 266.1288,-454.2543"/>
</g>
<!-- GO:0031090&#45;&gt;GO:0016020 -->
<g id="edge17" class="edge">
<title>GO:0031090&#45;&gt;GO:0016020</title>
<path fill="none" stroke="#000000" d="M227.7814,-505.2182C221.1411,-515.993 212.9238,-529.3267 205.6548,-541.1216"/>
<polygon fill="#000000" stroke="#000000" points="202.5898,-539.424 200.3229,-549.7735 208.549,-543.0966 202.5898,-539.424"/>
</g>
<!-- GO:0044422 -->
<g id="node14" class="node">
<title>GO:0044422</title>
<polygon fill="#ffffff" stroke="#000000" points="343.4633,-591.0019 249.7591,-591.0019 249.7591,-549.7981 343.4633,-549.7981 343.4633,-591.0019"/>
<text text-anchor="middle" x="296.6112" y="-574.6" font-family="Times,serif" font-size="14.00" fill="#000000">GO:0044422</text>
<text text-anchor="middle" x="296.6112" y="-557.8" font-family="Times,serif" font-size="14.00" fill="#000000">organelle part</text>
</g>
<!-- GO:0031090&#45;&gt;GO:0044422 -->
<g id="edge18" class="edge">
<title>GO:0031090&#45;&gt;GO:0044422</title>
<path fill="none" stroke="#000000" d="M254.1672,-505.2182C261.1834,-515.993 269.8658,-529.3267 277.5462,-541.1216"/>
<polygon fill="#000000" stroke="#000000" points="274.7902,-543.3034 283.18,-549.7735 280.6562,-539.4836 274.7902,-543.3034"/>
</g>
<!-- GO:0005575 -->
<g id="node15" class="node">
<title>GO:0005575</title>
<polygon fill="#ffffff" stroke="#000000" points="251.2979,-668.6019 123.9245,-668.6019 123.9245,-627.3981 251.2979,-627.3981 251.2979,-668.6019"/>
<text text-anchor="middle" x="187.6112" y="-652.2" font-family="Times,serif" font-size="14.00" fill="#000000">GO:0005575</text>
<text text-anchor="middle" x="187.6112" y="-635.4" font-family="Times,serif" font-size="14.00" fill="#000000">cellular_component</text>
</g>
<!-- GO:0016020&#45;&gt;GO:0005575 -->
<g id="edge19" class="edge">
<title>GO:0016020&#45;&gt;GO:0005575</title>
<path fill="none" stroke="#000000" d="M187.6112,-591.1954C187.6112,-599.1109 187.6112,-608.3109 187.6112,-616.9722"/>
<polygon fill="#000000" stroke="#000000" points="184.1113,-617.1472 187.6112,-627.1472 191.1113,-617.1473 184.1113,-617.1472"/>
</g>
<!-- GO:0044446&#45;&gt;GO:0044422 -->
<g id="edge21" class="edge">
<title>GO:0044446&#45;&gt;GO:0044422</title>
<path fill="none" stroke="#000000" d="M360.5006,-513.7558C349.9167,-523.1394 338.2421,-533.4902 327.7998,-542.7483"/>
<polygon fill="#000000" stroke="#000000" points="325.2539,-540.3279 320.0932,-549.5809 329.8977,-545.5658 325.2539,-540.3279"/>
</g>
<!-- GO:0044424 -->
<g id="node16" class="node">
<title>GO:0044424</title>
<polygon fill="#ffffff" stroke="#000000" points="503.0096,-591.0019 394.2128,-591.0019 394.2128,-549.7981 503.0096,-549.7981 503.0096,-591.0019"/>
<text text-anchor="middle" x="448.6112" y="-574.6" font-family="Times,serif" font-size="14.00" fill="#000000">GO:0044424</text>
<text text-anchor="middle" x="448.6112" y="-557.8" font-family="Times,serif" font-size="14.00" fill="#000000">intracellular part</text>
</g>
<!-- GO:0044446&#45;&gt;GO:0044424 -->
<g id="edge20" class="edge">
<title>GO:0044446&#45;&gt;GO:0044424</title>
<path fill="none" stroke="#000000" d="M412.5391,-513.9963C418.1789,-522.8149 424.3532,-532.4692 429.9742,-541.2586"/>
<polygon fill="#000000" stroke="#000000" points="427.0342,-543.1578 435.3706,-549.6966 432.9314,-539.3863 427.0342,-543.1578"/>
</g>
<!-- GO:0044444&#45;&gt;GO:0044424 -->
<g id="edge22" class="edge">
<title>GO:0044444&#45;&gt;GO:0044424</title>
<path fill="none" stroke="#000000" d="M514.5509,-505.2182C503.2234,-516.4156 489.1002,-530.3764 476.8337,-542.5019"/>
<polygon fill="#000000" stroke="#000000" points="474.1288,-540.2543 469.4775,-549.7735 479.0499,-545.2326 474.1288,-540.2543"/>
</g>
<!-- GO:0044422&#45;&gt;GO:0005575 -->
<g id="edge23" class="edge">
<title>GO:0044422&#45;&gt;GO:0005575</title>
<path fill="none" stroke="#000000" d="M267.4012,-591.1954C254.4501,-600.4156 239.0508,-611.3788 225.2511,-621.2031"/>
<polygon fill="#000000" stroke="#000000" points="223.0184,-618.4963 216.9018,-627.1472 227.0782,-624.1988 223.0184,-618.4963"/>
</g>
<!-- GO:0044464 -->
<g id="node17" class="node">
<title>GO:0044464</title>
<polygon fill="#ffffff" stroke="#000000" points="493.2151,-668.6019 404.0073,-668.6019 404.0073,-627.3981 493.2151,-627.3981 493.2151,-668.6019"/>
<text text-anchor="middle" x="448.6112" y="-652.2" font-family="Times,serif" font-size="14.00" fill="#000000">GO:0044464</text>
<text text-anchor="middle" x="448.6112" y="-635.4" font-family="Times,serif" font-size="14.00" fill="#000000">cell part</text>
</g>
<!-- GO:0044424&#45;&gt;GO:0044464 -->
<g id="edge24" class="edge">
<title>GO:0044424&#45;&gt;GO:0044464</title>
<path fill="none" stroke="#000000" d="M448.6112,-591.1954C448.6112,-599.1109 448.6112,-608.3109 448.6112,-616.9722"/>
<polygon fill="#000000" stroke="#000000" points="445.1113,-617.1472 448.6112,-627.1472 452.1113,-617.1473 445.1113,-617.1472"/>
</g>
<!-- GO:0005576 -->
<g id="node18" class="node">
<title>GO:0005576</title>
<polygon fill="#ffffff" stroke="#000000" points="125.3338,-591.0019 -.1114,-591.0019 -.1114,-549.7981 125.3338,-549.7981 125.3338,-591.0019"/>
<text text-anchor="middle" x="62.6112" y="-574.6" font-family="Times,serif" font-size="14.00" fill="#000000">GO:0005576</text>
<text text-anchor="middle" x="62.6112" y="-557.8" font-family="Times,serif" font-size="14.00" fill="#000000">extracellular region</text>
</g>
<!-- GO:0005576&#45;&gt;GO:0005575 -->
<g id="edge25" class="edge">
<title>GO:0005576&#45;&gt;GO:0005575</title>
<path fill="none" stroke="#000000" d="M96.1089,-591.1954C111.2413,-600.5896 129.2883,-611.7931 145.3399,-621.758"/>
<polygon fill="#000000" stroke="#000000" points="143.679,-624.8465 154.021,-627.1472 147.3711,-618.8993 143.679,-624.8465"/>
</g>
</g>
</svg>
