<?xml version="1.0" encoding="UTF-8" standalone="no"?>
<!DOCTYPE svg PUBLIC "-//W3C//DTD SVG 1.1//EN"
 "http://www.w3.org/Graphics/SVG/1.1/DTD/svg11.dtd">
<!-- Generated by graphviz version 2.40.1 (20161225.0304)
 -->
<!-- Title: G Pages: 1 -->
<svg width="156pt" height="127pt"
 viewBox="0.00 0.00 155.80 127.20" xmlns="http://www.w3.org/2000/svg" xmlns:xlink="http://www.w3.org/1999/xlink">
<g id="graph0" class="graph" transform="scale(1 1) rotate(0) translate(4 123.2)">
<title>G</title>
<polygon fill="#ffffff" stroke="transparent" points="-4,4 -4,-123.2 151.803,-123.2 151.803,4 -4,4"/>
<!-- GO:0051704 -->
<g id="node1" class="node">
<title>GO:0051704</title>
<polygon fill="#ffffff" stroke="#000000" points="147.7046,-41.4019 .0984,-41.4019 .0984,-.1981 147.7046,-.1981 147.7046,-41.4019"/>
<text text-anchor="middle" x="73.9015" y="-25" font-family="Times,serif" font-size="14.00" fill="#000000">GO:0051704</text>
<text text-anchor="middle" x="73.9015" y="-8.2" font-family="Times,serif" font-size="14.00" fill="#000000">multi&#45;organism process</text>
</g>
<!-- GO:0008150 -->
<g id="node2" class="node">
<title>GO:0008150</title>
<polygon fill="#ffffff" stroke="#000000" points="134.3721,-119.0019 13.4309,-119.0019 13.4309,-77.7981 134.3721,-77.7981 134.3721,-119.0019"/>
<text text-anchor="middle" x="73.9015" y="-102.6" font-family="Times,serif" font-size="14.00" fill="#000000">GO:0008150</text>
<text text-anchor="middle" x="73.9015" y="-85.8" font-family="Times,serif" font-size="14.00" fill="#000000">biological_process</text>
</g>
<!-- GO:0051704&#45;&gt;GO:0008150 -->
<g id="edge1" class="edge">
<title>GO:0051704&#45;&gt;GO:0008150</title>
<path fill="none" stroke="#000000" d="M73.9015,-41.5954C73.9015,-49.5109 73.9015,-58.7109 73.9015,-67.3722"/>
<polygon fill="#000000" stroke="#000000" points="70.4016,-67.5472 73.9015,-77.5472 77.4016,-67.5473 70.4016,-67.5472"/>
</g>
</g>
</svg>
