<?xml version="1.0" encoding="UTF-8" standalone="no"?>
<!DOCTYPE svg PUBLIC "-//W3C//DTD SVG 1.1//EN"
 "http://www.w3.org/Graphics/SVG/1.1/DTD/svg11.dtd">
<!-- Generated by graphviz version 2.40.1 (20161225.0304)
 -->
<!-- Title: G Pages: 1 -->
<svg width="212pt" height="282pt"
 viewBox="0.00 0.00 211.79 282.40" xmlns="http://www.w3.org/2000/svg" xmlns:xlink="http://www.w3.org/1999/xlink">
<g id="graph0" class="graph" transform="scale(1 1) rotate(0) translate(4 278.4)">
<title>G</title>
<polygon fill="#ffffff" stroke="transparent" points="-4,4 -4,-278.4 207.7879,-278.4 207.7879,4 -4,4"/>
<!-- GO:0043005 -->
<g id="node1" class="node">
<title>GO:0043005</title>
<polygon fill="#ffffff" stroke="#000000" points="157.1888,-41.4019 41.915,-41.4019 41.915,-.1981 157.1888,-.1981 157.1888,-41.4019"/>
<text text-anchor="middle" x="99.5519" y="-25" font-family="Times,serif" font-size="14.00" fill="#000000">GO:0043005</text>
<text text-anchor="middle" x="99.5519" y="-8.2" font-family="Times,serif" font-size="14.00" fill="#000000">neuron projection</text>
</g>
<!-- GO:0097458 -->
<g id="node2" class="node">
<title>GO:0097458</title>
<polygon fill="#ffffff" stroke="#000000" points="89.1558,-119.0019 -.052,-119.0019 -.052,-77.7981 89.1558,-77.7981 89.1558,-119.0019"/>
<text text-anchor="middle" x="44.5519" y="-102.6" font-family="Times,serif" font-size="14.00" fill="#000000">GO:0097458</text>
<text text-anchor="middle" x="44.5519" y="-85.8" font-family="Times,serif" font-size="14.00" fill="#000000">neuron part</text>
</g>
<!-- GO:0043005&#45;&gt;GO:0097458 -->
<g id="edge1" class="edge">
<title>GO:0043005&#45;&gt;GO:0097458</title>
<path fill="none" stroke="#000000" d="M84.8129,-41.5954C78.7712,-50.1197 71.6735,-60.1339 65.134,-69.3605"/>
<polygon fill="#000000" stroke="#000000" points="62.2586,-67.3647 59.3316,-77.5472 67.9696,-71.4125 62.2586,-67.3647"/>
</g>
<!-- GO:0042995 -->
<g id="node3" class="node">
<title>GO:0042995</title>
<polygon fill="#ffffff" stroke="#000000" points="204.0251,-119.0019 107.0787,-119.0019 107.0787,-77.7981 204.0251,-77.7981 204.0251,-119.0019"/>
<text text-anchor="middle" x="155.5519" y="-102.6" font-family="Times,serif" font-size="14.00" fill="#000000">GO:0042995</text>
<text text-anchor="middle" x="155.5519" y="-85.8" font-family="Times,serif" font-size="14.00" fill="#000000">cell projection</text>
</g>
<!-- GO:0043005&#45;&gt;GO:0042995 -->
<g id="edge2" class="edge">
<title>GO:0043005&#45;&gt;GO:0042995</title>
<path fill="none" stroke="#000000" d="M114.5589,-41.5954C120.7105,-50.1197 127.9372,-60.1339 134.5956,-69.3605"/>
<polygon fill="#000000" stroke="#000000" points="131.8135,-71.4864 140.5035,-77.5472 137.4898,-67.39 131.8135,-71.4864"/>
</g>
<!-- GO:0044464 -->
<g id="node4" class="node">
<title>GO:0044464</title>
<polygon fill="#ffffff" stroke="#000000" points="144.1558,-196.6019 54.948,-196.6019 54.948,-155.3981 144.1558,-155.3981 144.1558,-196.6019"/>
<text text-anchor="middle" x="99.5519" y="-180.2" font-family="Times,serif" font-size="14.00" fill="#000000">GO:0044464</text>
<text text-anchor="middle" x="99.5519" y="-163.4" font-family="Times,serif" font-size="14.00" fill="#000000">cell part</text>
</g>
<!-- GO:0097458&#45;&gt;GO:0044464 -->
<g id="edge3" class="edge">
<title>GO:0097458&#45;&gt;GO:0044464</title>
<path fill="none" stroke="#000000" d="M59.2909,-119.1954C65.3326,-127.7197 72.4303,-137.7339 78.9698,-146.9605"/>
<polygon fill="#000000" stroke="#000000" points="76.1342,-149.0125 84.7722,-155.1472 81.8452,-144.9647 76.1342,-149.0125"/>
</g>
<!-- GO:0042995&#45;&gt;GO:0044464 -->
<g id="edge4" class="edge">
<title>GO:0042995&#45;&gt;GO:0044464</title>
<path fill="none" stroke="#000000" d="M140.5449,-119.1954C134.3933,-127.7197 127.1666,-137.7339 120.5082,-146.9605"/>
<polygon fill="#000000" stroke="#000000" points="117.614,-144.99 114.6003,-155.1472 123.2903,-149.0864 117.614,-144.99"/>
</g>
<!-- GO:0005575 -->
<g id="node5" class="node">
<title>GO:0005575</title>
<polygon fill="#ffffff" stroke="#000000" points="163.2386,-274.2019 35.8652,-274.2019 35.8652,-232.9981 163.2386,-232.9981 163.2386,-274.2019"/>
<text text-anchor="middle" x="99.5519" y="-257.8" font-family="Times,serif" font-size="14.00" fill="#000000">GO:0005575</text>
<text text-anchor="middle" x="99.5519" y="-241" font-family="Times,serif" font-size="14.00" fill="#000000">cellular_component</text>
</g>
<!-- GO:0044464&#45;&gt;GO:0005575 -->
<g id="edge5" class="edge">
<title>GO:0044464&#45;&gt;GO:0005575</title>
<path fill="none" stroke="#000000" d="M99.5519,-196.7954C99.5519,-204.7109 99.5519,-213.9109 99.5519,-222.5722"/>
<polygon fill="#000000" stroke="#000000" points="96.052,-222.7472 99.5519,-232.7472 103.052,-222.7473 96.052,-222.7472"/>
</g>
</g>
</svg>
