<?xml version="1.0" encoding="UTF-8" standalone="no"?>
<!DOCTYPE svg PUBLIC "-//W3C//DTD SVG 1.1//EN"
 "http://www.w3.org/Graphics/SVG/1.1/DTD/svg11.dtd">
<!-- Generated by graphviz version 2.40.1 (20161225.0304)
 -->
<!-- Title: G Pages: 1 -->
<svg width="1157pt" height="1078pt"
 viewBox="0.00 0.00 1156.54 1077.60" xmlns="http://www.w3.org/2000/svg" xmlns:xlink="http://www.w3.org/1999/xlink">
<g id="graph0" class="graph" transform="scale(1 1) rotate(0) translate(4 1073.6)">
<title>G</title>
<polygon fill="#ffffff" stroke="transparent" points="-4,4 -4,-1073.6 1152.5411,-1073.6 1152.5411,4 -4,4"/>
<!-- GO:0016491 -->
<g id="node1" class="node">
<title>GO:0016491</title>
<polygon fill="#ffffff" stroke="#000000" points="146.3548,-889.0019 -.1184,-889.0019 -.1184,-847.7981 146.3548,-847.7981 146.3548,-889.0019"/>
<text text-anchor="middle" x="73.1182" y="-872.6" font-family="Times,serif" font-size="14.00" fill="#000000">GO:0016491</text>
<text text-anchor="middle" x="73.1182" y="-855.8" font-family="Times,serif" font-size="14.00" fill="#000000">oxidoreductase activity</text>
</g>
<!-- GO:0003824 -->
<g id="node2" class="node">
<title>GO:0003824</title>
<polygon fill="#ffffff" stroke="#000000" points="236.5306,-983.4019 127.7058,-983.4019 127.7058,-942.1981 236.5306,-942.1981 236.5306,-983.4019"/>
<text text-anchor="middle" x="182.1182" y="-967" font-family="Times,serif" font-size="14.00" fill="#000000">GO:0003824</text>
<text text-anchor="middle" x="182.1182" y="-950.2" font-family="Times,serif" font-size="14.00" fill="#000000">catalytic activity</text>
</g>
<!-- GO:0016491&#45;&gt;GO:0003824 -->
<g id="edge1" class="edge">
<title>GO:0016491&#45;&gt;GO:0003824</title>
<path fill="none" stroke="#000000" d="M97.0387,-889.1165C112.7987,-902.7655 133.6028,-920.783 150.6937,-935.5846"/>
<polygon fill="#000000" stroke="#000000" points="148.4029,-938.2309 158.2535,-942.1318 152.9856,-932.9394 148.4029,-938.2309"/>
</g>
<!-- GO:0003674 -->
<g id="node3" class="node">
<title>GO:0003674</title>
<polygon fill="#ffffff" stroke="#000000" points="579.7513,-1069.4019 454.4851,-1069.4019 454.4851,-1028.1981 579.7513,-1028.1981 579.7513,-1069.4019"/>
<text text-anchor="middle" x="517.1182" y="-1053" font-family="Times,serif" font-size="14.00" fill="#000000">GO:0003674</text>
<text text-anchor="middle" x="517.1182" y="-1036.2" font-family="Times,serif" font-size="14.00" fill="#000000">molecular_function</text>
</g>
<!-- GO:0003824&#45;&gt;GO:0003674 -->
<g id="edge2" class="edge">
<title>GO:0003824&#45;&gt;GO:0003674</title>
<path fill="none" stroke="#000000" d="M236.6873,-976.8088C293.2674,-991.3338 382.027,-1014.1199 444.5043,-1030.1588"/>
<polygon fill="#000000" stroke="#000000" points="443.7407,-1033.5762 454.297,-1032.6728 445.4813,-1026.7961 443.7407,-1033.5762"/>
</g>
<!-- GO:0050662 -->
<g id="node4" class="node">
<title>GO:0050662</title>
<polygon fill="#ffffff" stroke="#000000" points="243.6484,-786.2019 124.588,-786.2019 124.588,-744.9981 243.6484,-744.9981 243.6484,-786.2019"/>
<text text-anchor="middle" x="184.1182" y="-769.8" font-family="Times,serif" font-size="14.00" fill="#000000">GO:0050662</text>
<text text-anchor="middle" x="184.1182" y="-753" font-family="Times,serif" font-size="14.00" fill="#000000">coenzyme binding</text>
</g>
<!-- GO:0048037 -->
<g id="node5" class="node">
<title>GO:0048037</title>
<polygon fill="#ffffff" stroke="#000000" points="272.2551,-889.0019 163.9813,-889.0019 163.9813,-847.7981 272.2551,-847.7981 272.2551,-889.0019"/>
<text text-anchor="middle" x="218.1182" y="-872.6" font-family="Times,serif" font-size="14.00" fill="#000000">GO:0048037</text>
<text text-anchor="middle" x="218.1182" y="-855.8" font-family="Times,serif" font-size="14.00" fill="#000000">cofactor binding</text>
</g>
<!-- GO:0050662&#45;&gt;GO:0048037 -->
<g id="edge3" class="edge">
<title>GO:0050662&#45;&gt;GO:0048037</title>
<path fill="none" stroke="#000000" d="M190.9986,-786.4031C195.8836,-801.173 202.5213,-821.2424 208.0072,-837.829"/>
<polygon fill="#000000" stroke="#000000" points="204.7849,-839.2327 211.248,-847.6278 211.4308,-837.0346 204.7849,-839.2327"/>
</g>
<!-- GO:0005488 -->
<g id="node6" class="node">
<title>GO:0005488</title>
<polygon fill="#ffffff" stroke="#000000" points="451.7221,-983.4019 362.5143,-983.4019 362.5143,-942.1981 451.7221,-942.1981 451.7221,-983.4019"/>
<text text-anchor="middle" x="407.1182" y="-967" font-family="Times,serif" font-size="14.00" fill="#000000">GO:0005488</text>
<text text-anchor="middle" x="407.1182" y="-950.2" font-family="Times,serif" font-size="14.00" fill="#000000">binding</text>
</g>
<!-- GO:0048037&#45;&gt;GO:0005488 -->
<g id="edge4" class="edge">
<title>GO:0048037&#45;&gt;GO:0005488</title>
<path fill="none" stroke="#000000" d="M259.5951,-889.1165C288.1529,-903.3803 326.2628,-922.4151 356.5939,-937.5646"/>
<polygon fill="#000000" stroke="#000000" points="355.228,-940.7946 365.7381,-942.1318 358.3559,-934.5323 355.228,-940.7946"/>
</g>
<!-- GO:0005488&#45;&gt;GO:0003674 -->
<g id="edge5" class="edge">
<title>GO:0005488&#45;&gt;GO:0003674</title>
<path fill="none" stroke="#000000" d="M433.7461,-983.6182C448.4737,-995.1325 466.9388,-1009.5688 482.7457,-1021.9269"/>
<polygon fill="#000000" stroke="#000000" points="480.7017,-1024.7716 490.7355,-1028.1735 485.0131,-1019.2569 480.7017,-1024.7716"/>
</g>
<!-- GO:0000166 -->
<g id="node7" class="node">
<title>GO:0000166</title>
<polygon fill="#ffffff" stroke="#000000" points="475.2157,-683.4019 355.0207,-683.4019 355.0207,-642.1981 475.2157,-642.1981 475.2157,-683.4019"/>
<text text-anchor="middle" x="415.1182" y="-667" font-family="Times,serif" font-size="14.00" fill="#000000">GO:0000166</text>
<text text-anchor="middle" x="415.1182" y="-650.2" font-family="Times,serif" font-size="14.00" fill="#000000">nucleotide binding</text>
</g>
<!-- GO:0036094 -->
<g id="node8" class="node">
<title>GO:0036094</title>
<polygon fill="#ffffff" stroke="#000000" points="409.0466,-786.2019 261.1898,-786.2019 261.1898,-744.9981 409.0466,-744.9981 409.0466,-786.2019"/>
<text text-anchor="middle" x="335.1182" y="-769.8" font-family="Times,serif" font-size="14.00" fill="#000000">GO:0036094</text>
<text text-anchor="middle" x="335.1182" y="-753" font-family="Times,serif" font-size="14.00" fill="#000000">small molecule binding</text>
</g>
<!-- GO:0000166&#45;&gt;GO:0036094 -->
<g id="edge6" class="edge">
<title>GO:0000166&#45;&gt;GO:0036094</title>
<path fill="none" stroke="#000000" d="M398.929,-683.6031C387.0012,-698.9304 370.6321,-719.9647 357.4596,-736.8913"/>
<polygon fill="#000000" stroke="#000000" points="354.6627,-734.7864 351.2833,-744.8278 360.187,-739.0855 354.6627,-734.7864"/>
</g>
<!-- GO:1901265 -->
<g id="node9" class="node">
<title>GO:1901265</title>
<polygon fill="#ffffff" stroke="#000000" points="563.2523,-795.0014 426.9841,-795.0014 426.9841,-736.1986 563.2523,-736.1986 563.2523,-795.0014"/>
<text text-anchor="middle" x="495.1182" y="-778.2" font-family="Times,serif" font-size="14.00" fill="#000000">GO:1901265</text>
<text text-anchor="middle" x="495.1182" y="-761.4" font-family="Times,serif" font-size="14.00" fill="#000000">nucleoside phosphate</text>
<text text-anchor="middle" x="495.1182" y="-744.6" font-family="Times,serif" font-size="14.00" fill="#000000">binding</text>
</g>
<!-- GO:0000166&#45;&gt;GO:1901265 -->
<g id="edge7" class="edge">
<title>GO:0000166&#45;&gt;GO:1901265</title>
<path fill="none" stroke="#000000" d="M431.3074,-683.6031C441.2463,-696.3746 454.2688,-713.1086 465.9562,-728.1268"/>
<polygon fill="#000000" stroke="#000000" points="463.38,-730.5154 472.2838,-736.2577 468.9043,-726.2163 463.38,-730.5154"/>
</g>
<!-- GO:0036094&#45;&gt;GO:0005488 -->
<g id="edge8" class="edge">
<title>GO:0036094&#45;&gt;GO:0005488</title>
<path fill="none" stroke="#000000" d="M325.6837,-786.5116C314.935,-813.6377 301.0501,-861.7263 319.1182,-897.6 324.357,-908.0014 344.7321,-923.3777 364.558,-936.586"/>
<polygon fill="#000000" stroke="#000000" points="362.6911,-939.5471 372.9755,-942.0931 366.5235,-933.6894 362.6911,-939.5471"/>
</g>
<!-- GO:0097159 -->
<g id="node10" class="node">
<title>GO:0097159</title>
<polygon fill="#ffffff" stroke="#000000" points="485.6296,-897.8014 328.6068,-897.8014 328.6068,-838.9986 485.6296,-838.9986 485.6296,-897.8014"/>
<text text-anchor="middle" x="407.1182" y="-881" font-family="Times,serif" font-size="14.00" fill="#000000">GO:0097159</text>
<text text-anchor="middle" x="407.1182" y="-864.2" font-family="Times,serif" font-size="14.00" fill="#000000">organic cyclic compound</text>
<text text-anchor="middle" x="407.1182" y="-847.4" font-family="Times,serif" font-size="14.00" fill="#000000">binding</text>
</g>
<!-- GO:1901265&#45;&gt;GO:0097159 -->
<g id="edge9" class="edge">
<title>GO:1901265&#45;&gt;GO:0097159</title>
<path fill="none" stroke="#000000" d="M469.9009,-795.0584C460.2352,-806.3497 449.0807,-819.3801 438.8797,-831.2967"/>
<polygon fill="#000000" stroke="#000000" points="436.1834,-829.0645 432.3392,-838.9373 441.5011,-833.6167 436.1834,-829.0645"/>
</g>
<!-- GO:1901363 -->
<g id="node11" class="node">
<title>GO:1901363</title>
<polygon fill="#ffffff" stroke="#000000" points="650.6288,-897.8014 503.6076,-897.8014 503.6076,-838.9986 650.6288,-838.9986 650.6288,-897.8014"/>
<text text-anchor="middle" x="577.1182" y="-881" font-family="Times,serif" font-size="14.00" fill="#000000">GO:1901363</text>
<text text-anchor="middle" x="577.1182" y="-864.2" font-family="Times,serif" font-size="14.00" fill="#000000">heterocyclic compound</text>
<text text-anchor="middle" x="577.1182" y="-847.4" font-family="Times,serif" font-size="14.00" fill="#000000">binding</text>
</g>
<!-- GO:1901265&#45;&gt;GO:1901363 -->
<g id="edge10" class="edge">
<title>GO:1901265&#45;&gt;GO:1901363</title>
<path fill="none" stroke="#000000" d="M518.6161,-795.0584C527.537,-806.2421 537.8189,-819.1321 547.2504,-830.956"/>
<polygon fill="#000000" stroke="#000000" points="544.6448,-833.3023 553.6169,-838.9373 550.1172,-828.9372 544.6448,-833.3023"/>
</g>
<!-- GO:0097159&#45;&gt;GO:0005488 -->
<g id="edge11" class="edge">
<title>GO:0097159&#45;&gt;GO:0005488</title>
<path fill="none" stroke="#000000" d="M407.1182,-897.7513C407.1182,-908.6614 407.1182,-921.0637 407.1182,-932.092"/>
<polygon fill="#000000" stroke="#000000" points="403.6183,-932.1509 407.1182,-942.151 410.6183,-932.151 403.6183,-932.1509"/>
</g>
<!-- GO:1901363&#45;&gt;GO:0005488 -->
<g id="edge12" class="edge">
<title>GO:1901363&#45;&gt;GO:0005488</title>
<path fill="none" stroke="#000000" d="M524.261,-897.7513C501.4739,-910.4048 475.0725,-925.0654 453.1086,-937.2618"/>
<polygon fill="#000000" stroke="#000000" points="451.3473,-934.2364 444.3039,-942.151 454.7456,-940.3561 451.3473,-934.2364"/>
</g>
<!-- GO:0015459 -->
<g id="node12" class="node">
<title>GO:0015459</title>
<polygon fill="#ff00ff" stroke="#000000" points="772.9284,-795.0014 653.308,-795.0014 653.308,-736.1986 772.9284,-736.1986 772.9284,-795.0014"/>
<text text-anchor="middle" x="713.1182" y="-778.2" font-family="Times,serif" font-size="14.00" fill="#000000">GO:0015459</text>
<text text-anchor="middle" x="713.1182" y="-761.4" font-family="Times,serif" font-size="14.00" fill="#000000">potassium channel</text>
<text text-anchor="middle" x="713.1182" y="-744.6" font-family="Times,serif" font-size="14.00" fill="#000000">regulator activity</text>
</g>
<!-- GO:0016247 -->
<g id="node13" class="node">
<title>GO:0016247</title>
<polygon fill="#ffffff" stroke="#000000" points="781.685,-897.8014 668.5514,-897.8014 668.5514,-838.9986 781.685,-838.9986 781.685,-897.8014"/>
<text text-anchor="middle" x="725.1182" y="-881" font-family="Times,serif" font-size="14.00" fill="#000000">GO:0016247</text>
<text text-anchor="middle" x="725.1182" y="-864.2" font-family="Times,serif" font-size="14.00" fill="#000000">channel regulator</text>
<text text-anchor="middle" x="725.1182" y="-847.4" font-family="Times,serif" font-size="14.00" fill="#000000">activity</text>
</g>
<!-- GO:0015459&#45;&gt;GO:0016247 -->
<g id="edge13" class="edge">
<title>GO:0015459&#45;&gt;GO:0016247</title>
<path fill="none" stroke="#000000" d="M716.5569,-795.0584C717.7871,-805.5969 719.1941,-817.6505 720.5072,-828.8994"/>
<polygon fill="#000000" stroke="#000000" points="717.0431,-829.4106 721.679,-838.9373 723.9958,-828.599 717.0431,-829.4106"/>
</g>
<!-- GO:0098772 -->
<g id="node14" class="node">
<title>GO:0098772</title>
<polygon fill="#ffffff" stroke="#000000" points="688.2509,-992.2014 565.9855,-992.2014 565.9855,-933.3986 688.2509,-933.3986 688.2509,-992.2014"/>
<text text-anchor="middle" x="627.1182" y="-975.4" font-family="Times,serif" font-size="14.00" fill="#000000">GO:0098772</text>
<text text-anchor="middle" x="627.1182" y="-958.6" font-family="Times,serif" font-size="14.00" fill="#000000">molecular function</text>
<text text-anchor="middle" x="627.1182" y="-941.8" font-family="Times,serif" font-size="14.00" fill="#000000">regulator</text>
</g>
<!-- GO:0016247&#45;&gt;GO:0098772 -->
<g id="edge14" class="edge">
<title>GO:0016247&#45;&gt;GO:0098772</title>
<path fill="none" stroke="#000000" d="M694.6476,-897.7513C685.2449,-906.8086 674.7747,-916.8941 664.9393,-926.3683"/>
<polygon fill="#000000" stroke="#000000" points="662.344,-924.0085 657.57,-933.4669 667.2003,-929.05 662.344,-924.0085"/>
</g>
<!-- GO:0098772&#45;&gt;GO:0003674 -->
<g id="edge15" class="edge">
<title>GO:0098772&#45;&gt;GO:0003674</title>
<path fill="none" stroke="#000000" d="M589.5701,-992.1558C577.3324,-1001.7234 563.8088,-1012.2964 551.7917,-1021.6916"/>
<polygon fill="#000000" stroke="#000000" points="549.4696,-1019.0644 543.7472,-1027.9809 553.7811,-1024.579 549.4696,-1019.0644"/>
</g>
<!-- GO:0015269 -->
<g id="node15" class="node">
<title>GO:0015269</title>
<polygon fill="#ff00ff" stroke="#000000" points="1009.9284,-75.3003 890.308,-75.3003 890.308,.1003 1009.9284,.1003 1009.9284,-75.3003"/>
<text text-anchor="middle" x="950.1182" y="-58.6" font-family="Times,serif" font-size="14.00" fill="#000000">GO:0015269</text>
<text text-anchor="middle" x="950.1182" y="-41.8" font-family="Times,serif" font-size="14.00" fill="#000000">calcium&#45;activated</text>
<text text-anchor="middle" x="950.1182" y="-25" font-family="Times,serif" font-size="14.00" fill="#000000">potassium channel</text>
<text text-anchor="middle" x="950.1182" y="-8.2" font-family="Times,serif" font-size="14.00" fill="#000000">activity</text>
</g>
<!-- GO:0005267 -->
<g id="node16" class="node">
<title>GO:0005267</title>
<polygon fill="#ffffff" stroke="#000000" points="965.9284,-169.8014 846.308,-169.8014 846.308,-110.9986 965.9284,-110.9986 965.9284,-169.8014"/>
<text text-anchor="middle" x="906.1182" y="-153" font-family="Times,serif" font-size="14.00" fill="#000000">GO:0005267</text>
<text text-anchor="middle" x="906.1182" y="-136.2" font-family="Times,serif" font-size="14.00" fill="#000000">potassium channel</text>
<text text-anchor="middle" x="906.1182" y="-119.4" font-family="Times,serif" font-size="14.00" fill="#000000">activity</text>
</g>
<!-- GO:0015269&#45;&gt;GO:0005267 -->
<g id="edge16" class="edge">
<title>GO:0015269&#45;&gt;GO:0005267</title>
<path fill="none" stroke="#000000" d="M933.9841,-75.2952C930.3131,-83.8718 926.4071,-92.9976 922.7172,-101.6187"/>
<polygon fill="#000000" stroke="#000000" points="919.3843,-100.5108 918.667,-111.0814 925.8196,-103.2653 919.3843,-100.5108"/>
</g>
<!-- GO:0005227 -->
<g id="node17" class="node">
<title>GO:0005227</title>
<polygon fill="#ffffff" stroke="#000000" points="1086.1744,-272.6014 934.062,-272.6014 934.062,-213.7986 1086.1744,-213.7986 1086.1744,-272.6014"/>
<text text-anchor="middle" x="1010.1182" y="-255.8" font-family="Times,serif" font-size="14.00" fill="#000000">GO:0005227</text>
<text text-anchor="middle" x="1010.1182" y="-239" font-family="Times,serif" font-size="14.00" fill="#000000">calcium activated cation</text>
<text text-anchor="middle" x="1010.1182" y="-222.2" font-family="Times,serif" font-size="14.00" fill="#000000">channel activity</text>
</g>
<!-- GO:0015269&#45;&gt;GO:0005227 -->
<g id="edge17" class="edge">
<title>GO:0015269&#45;&gt;GO:0005227</title>
<path fill="none" stroke="#000000" d="M963.4622,-75.2611C967.3823,-86.7461 971.5676,-99.4442 975.1182,-111.2 984.4678,-142.1561 993.79,-177.5963 1000.4599,-203.955"/>
<polygon fill="#000000" stroke="#000000" points="997.1375,-205.0949 1002.9697,-213.94 1003.9263,-203.3885 997.1375,-205.0949"/>
</g>
<!-- GO:0005261 -->
<g id="node18" class="node">
<title>GO:0005261</title>
<polygon fill="#ffffff" stroke="#000000" points="1006.3548,-375.0019 863.8816,-375.0019 863.8816,-333.7981 1006.3548,-333.7981 1006.3548,-375.0019"/>
<text text-anchor="middle" x="935.1182" y="-358.6" font-family="Times,serif" font-size="14.00" fill="#000000">GO:0005261</text>
<text text-anchor="middle" x="935.1182" y="-341.8" font-family="Times,serif" font-size="14.00" fill="#000000">cation channel activity</text>
</g>
<!-- GO:0005267&#45;&gt;GO:0005261 -->
<g id="edge18" class="edge">
<title>GO:0005267&#45;&gt;GO:0005261</title>
<path fill="none" stroke="#000000" d="M910.0802,-169.7114C913.9206,-198.115 919.9127,-242.4108 925.1182,-280.8 927.0323,-294.916 929.1565,-310.5543 930.9532,-323.7725"/>
<polygon fill="#000000" stroke="#000000" points="927.4983,-324.3418 932.3135,-333.7792 934.4345,-323.3988 927.4983,-324.3418"/>
</g>
<!-- GO:0015079 -->
<g id="node19" class="node">
<title>GO:0015079</title>
<polygon fill="#ffffff" stroke="#000000" points="849.5516,-280.9003 682.6848,-280.9003 682.6848,-205.4997 849.5516,-205.4997 849.5516,-280.9003"/>
<text text-anchor="middle" x="766.1182" y="-264.2" font-family="Times,serif" font-size="14.00" fill="#000000">GO:0015079</text>
<text text-anchor="middle" x="766.1182" y="-247.4" font-family="Times,serif" font-size="14.00" fill="#000000">potassium ion</text>
<text text-anchor="middle" x="766.1182" y="-230.6" font-family="Times,serif" font-size="14.00" fill="#000000">transmembrane transporter</text>
<text text-anchor="middle" x="766.1182" y="-213.8" font-family="Times,serif" font-size="14.00" fill="#000000">activity</text>
</g>
<!-- GO:0005267&#45;&gt;GO:0015079 -->
<g id="edge19" class="edge">
<title>GO:0005267&#45;&gt;GO:0015079</title>
<path fill="none" stroke="#000000" d="M865.9998,-169.8584C853.4871,-179.0462 839.4063,-189.3856 825.8505,-199.3394"/>
<polygon fill="#000000" stroke="#000000" points="823.4856,-196.7337 817.4967,-205.4735 827.6287,-202.376 823.4856,-196.7337"/>
</g>
<!-- GO:0005227&#45;&gt;GO:0005261 -->
<g id="edge21" class="edge">
<title>GO:0005227&#45;&gt;GO:0005261</title>
<path fill="none" stroke="#000000" d="M990.4128,-272.4165C979.5002,-288.5962 965.9704,-308.6564 955.0258,-324.8837"/>
<polygon fill="#000000" stroke="#000000" points="951.9344,-323.2079 949.2444,-333.4556 957.7378,-327.1221 951.9344,-323.2079"/>
</g>
<!-- GO:0022839 -->
<g id="node20" class="node">
<title>GO:0022839</title>
<polygon fill="#ffffff" stroke="#000000" points="1134.3633,-495.0014 1019.8731,-495.0014 1019.8731,-436.1986 1134.3633,-436.1986 1134.3633,-495.0014"/>
<text text-anchor="middle" x="1077.1182" y="-478.2" font-family="Times,serif" font-size="14.00" fill="#000000">GO:0022839</text>
<text text-anchor="middle" x="1077.1182" y="-461.4" font-family="Times,serif" font-size="14.00" fill="#000000">ion gated channel</text>
<text text-anchor="middle" x="1077.1182" y="-444.6" font-family="Times,serif" font-size="14.00" fill="#000000">activity</text>
</g>
<!-- GO:0005227&#45;&gt;GO:0022839 -->
<g id="edge20" class="edge">
<title>GO:0005227&#45;&gt;GO:0022839</title>
<path fill="none" stroke="#000000" d="M1019.0153,-272.733C1030.9369,-312.3057 1052.1231,-382.6313 1065.3525,-426.5449"/>
<polygon fill="#000000" stroke="#000000" points="1062.0552,-427.7337 1068.291,-436.2991 1068.7577,-425.7145 1062.0552,-427.7337"/>
</g>
<!-- GO:0005216 -->
<g id="node21" class="node">
<title>GO:0005216</title>
<polygon fill="#ffffff" stroke="#000000" points="998.5355,-486.2019 871.7009,-486.2019 871.7009,-444.9981 998.5355,-444.9981 998.5355,-486.2019"/>
<text text-anchor="middle" x="935.1182" y="-469.8" font-family="Times,serif" font-size="14.00" fill="#000000">GO:0005216</text>
<text text-anchor="middle" x="935.1182" y="-453" font-family="Times,serif" font-size="14.00" fill="#000000">ion channel activity</text>
</g>
<!-- GO:0005261&#45;&gt;GO:0005216 -->
<g id="edge22" class="edge">
<title>GO:0005261&#45;&gt;GO:0005216</title>
<path fill="none" stroke="#000000" d="M935.1182,-375.0553C935.1182,-391.7242 935.1182,-415.4401 935.1182,-434.4189"/>
<polygon fill="#000000" stroke="#000000" points="931.6183,-434.678 935.1182,-444.678 938.6183,-434.678 931.6183,-434.678"/>
</g>
<!-- GO:0008324 -->
<g id="node22" class="node">
<title>GO:0008324</title>
<polygon fill="#ffffff" stroke="#000000" points="822.1246,-597.8014 682.1118,-597.8014 682.1118,-538.9986 822.1246,-538.9986 822.1246,-597.8014"/>
<text text-anchor="middle" x="752.1182" y="-581" font-family="Times,serif" font-size="14.00" fill="#000000">GO:0008324</text>
<text text-anchor="middle" x="752.1182" y="-564.2" font-family="Times,serif" font-size="14.00" fill="#000000">cation transmembrane</text>
<text text-anchor="middle" x="752.1182" y="-547.4" font-family="Times,serif" font-size="14.00" fill="#000000">transporter activity</text>
</g>
<!-- GO:0005261&#45;&gt;GO:0008324 -->
<g id="edge23" class="edge">
<title>GO:0005261&#45;&gt;GO:0008324</title>
<path fill="none" stroke="#000000" d="M911.4807,-375.0321C896.4166,-388.9817 877.162,-408.3761 863.1182,-428 841.3251,-458.4522 847.9245,-473.499 825.1182,-503.2 817.2788,-513.4093 807.6872,-523.2855 798.0666,-532.1317"/>
<polygon fill="#000000" stroke="#000000" points="795.5093,-529.7228 790.3779,-538.9921 800.1697,-534.9459 795.5093,-529.7228"/>
</g>
<!-- GO:0015077 -->
<g id="node23" class="node">
<title>GO:0015077</title>
<polygon fill="#ffffff" stroke="#000000" points="669.1246,-392.1003 529.1118,-392.1003 529.1118,-316.6997 669.1246,-316.6997 669.1246,-392.1003"/>
<text text-anchor="middle" x="599.1182" y="-375.4" font-family="Times,serif" font-size="14.00" fill="#000000">GO:0015077</text>
<text text-anchor="middle" x="599.1182" y="-358.6" font-family="Times,serif" font-size="14.00" fill="#000000">monovalent inorganic</text>
<text text-anchor="middle" x="599.1182" y="-341.8" font-family="Times,serif" font-size="14.00" fill="#000000">cation transmembrane</text>
<text text-anchor="middle" x="599.1182" y="-325" font-family="Times,serif" font-size="14.00" fill="#000000">transporter activity</text>
</g>
<!-- GO:0015079&#45;&gt;GO:0015077 -->
<g id="edge24" class="edge">
<title>GO:0015079&#45;&gt;GO:0015077</title>
<path fill="none" stroke="#000000" d="M709.5796,-280.8472C695.0251,-290.5386 679.2463,-301.0452 664.2924,-311.0026"/>
<polygon fill="#000000" stroke="#000000" points="661.9823,-308.3358 655.5986,-316.7915 665.862,-314.1623 661.9823,-308.3358"/>
</g>
<!-- GO:0046873 -->
<g id="node24" class="node">
<title>GO:0046873</title>
<polygon fill="#ffffff" stroke="#000000" points="845.4061,-383.8014 686.8303,-383.8014 686.8303,-324.9986 845.4061,-324.9986 845.4061,-383.8014"/>
<text text-anchor="middle" x="766.1182" y="-367" font-family="Times,serif" font-size="14.00" fill="#000000">GO:0046873</text>
<text text-anchor="middle" x="766.1182" y="-350.2" font-family="Times,serif" font-size="14.00" fill="#000000">metal ion transmembrane</text>
<text text-anchor="middle" x="766.1182" y="-333.4" font-family="Times,serif" font-size="14.00" fill="#000000">transporter activity</text>
</g>
<!-- GO:0015079&#45;&gt;GO:0046873 -->
<g id="edge25" class="edge">
<title>GO:0015079&#45;&gt;GO:0046873</title>
<path fill="none" stroke="#000000" d="M766.1182,-280.8472C766.1182,-291.7338 766.1182,-303.649 766.1182,-314.6589"/>
<polygon fill="#000000" stroke="#000000" points="762.6183,-314.8741 766.1182,-324.8742 769.6183,-314.8742 762.6183,-314.8741"/>
</g>
<!-- GO:0022836 -->
<g id="node25" class="node">
<title>GO:0022836</title>
<polygon fill="#ffffff" stroke="#000000" points="1148.4641,-589.0019 1009.7723,-589.0019 1009.7723,-547.7981 1148.4641,-547.7981 1148.4641,-589.0019"/>
<text text-anchor="middle" x="1079.1182" y="-572.6" font-family="Times,serif" font-size="14.00" fill="#000000">GO:0022836</text>
<text text-anchor="middle" x="1079.1182" y="-555.8" font-family="Times,serif" font-size="14.00" fill="#000000">gated channel activity</text>
</g>
<!-- GO:0022839&#45;&gt;GO:0022836 -->
<g id="edge26" class="edge">
<title>GO:0022839&#45;&gt;GO:0022836</title>
<path fill="none" stroke="#000000" d="M1077.6913,-495.0584C1077.95,-508.3539 1078.2556,-524.0608 1078.5174,-537.5212"/>
<polygon fill="#000000" stroke="#000000" points="1075.0224,-537.8156 1078.7164,-547.7456 1082.0211,-537.6794 1075.0224,-537.8156"/>
</g>
<!-- GO:0015075 -->
<g id="node26" class="node">
<title>GO:0015075</title>
<polygon fill="#ffffff" stroke="#000000" points="906.8052,-692.2014 783.4312,-692.2014 783.4312,-633.3986 906.8052,-633.3986 906.8052,-692.2014"/>
<text text-anchor="middle" x="845.1182" y="-675.4" font-family="Times,serif" font-size="14.00" fill="#000000">GO:0015075</text>
<text text-anchor="middle" x="845.1182" y="-658.6" font-family="Times,serif" font-size="14.00" fill="#000000">ion transmembrane</text>
<text text-anchor="middle" x="845.1182" y="-641.8" font-family="Times,serif" font-size="14.00" fill="#000000">transporter activity</text>
</g>
<!-- GO:0005216&#45;&gt;GO:0015075 -->
<g id="edge27" class="edge">
<title>GO:0005216&#45;&gt;GO:0015075</title>
<path fill="none" stroke="#000000" d="M910.7637,-486.3971C896.4364,-499.98 879.2043,-518.914 869.1182,-539.2 856.0899,-565.4038 850.1244,-598.0027 847.3977,-623.142"/>
<polygon fill="#000000" stroke="#000000" points="843.8829,-623.1314 846.4163,-633.4188 850.8512,-623.7969 843.8829,-623.1314"/>
</g>
<!-- GO:0022838 -->
<g id="node27" class="node">
<title>GO:0022838</title>
<polygon fill="#ffffff" stroke="#000000" points="992.0692,-597.8014 878.1672,-597.8014 878.1672,-538.9986 992.0692,-538.9986 992.0692,-597.8014"/>
<text text-anchor="middle" x="935.1182" y="-581" font-family="Times,serif" font-size="14.00" fill="#000000">GO:0022838</text>
<text text-anchor="middle" x="935.1182" y="-564.2" font-family="Times,serif" font-size="14.00" fill="#000000">substrate&#45;specific</text>
<text text-anchor="middle" x="935.1182" y="-547.4" font-family="Times,serif" font-size="14.00" fill="#000000">channel activity</text>
</g>
<!-- GO:0005216&#45;&gt;GO:0022838 -->
<g id="edge28" class="edge">
<title>GO:0005216&#45;&gt;GO:0022838</title>
<path fill="none" stroke="#000000" d="M935.1182,-486.4031C935.1182,-498.5833 935.1182,-514.3676 935.1182,-528.8305"/>
<polygon fill="#000000" stroke="#000000" points="931.6183,-529.0577 935.1182,-539.0577 938.6183,-529.0578 931.6183,-529.0577"/>
</g>
<!-- GO:0008324&#45;&gt;GO:0015075 -->
<g id="edge29" class="edge">
<title>GO:0008324&#45;&gt;GO:0015075</title>
<path fill="none" stroke="#000000" d="M781.0342,-597.7513C789.8697,-606.7198 799.6984,-616.6965 808.9521,-626.0894"/>
<polygon fill="#000000" stroke="#000000" points="806.7087,-628.7995 816.2201,-633.4669 811.6953,-623.8868 806.7087,-628.7995"/>
</g>
<!-- GO:0022890 -->
<g id="node28" class="node">
<title>GO:0022890</title>
<polygon fill="#ffffff" stroke="#000000" points="816.5516,-503.3003 649.6848,-503.3003 649.6848,-427.8997 816.5516,-427.8997 816.5516,-503.3003"/>
<text text-anchor="middle" x="733.1182" y="-486.6" font-family="Times,serif" font-size="14.00" fill="#000000">GO:0022890</text>
<text text-anchor="middle" x="733.1182" y="-469.8" font-family="Times,serif" font-size="14.00" fill="#000000">inorganic cation</text>
<text text-anchor="middle" x="733.1182" y="-453" font-family="Times,serif" font-size="14.00" fill="#000000">transmembrane transporter</text>
<text text-anchor="middle" x="733.1182" y="-436.2" font-family="Times,serif" font-size="14.00" fill="#000000">activity</text>
</g>
<!-- GO:0015077&#45;&gt;GO:0022890 -->
<g id="edge30" class="edge">
<title>GO:0015077&#45;&gt;GO:0022890</title>
<path fill="none" stroke="#000000" d="M644.4845,-392.0472C655.8355,-401.4669 668.1146,-411.6567 679.8119,-421.3638"/>
<polygon fill="#000000" stroke="#000000" points="677.8681,-424.2989 687.7986,-427.9915 682.3383,-418.9121 677.8681,-424.2989"/>
</g>
<!-- GO:0046873&#45;&gt;GO:0022890 -->
<g id="edge31" class="edge">
<title>GO:0046873&#45;&gt;GO:0022890</title>
<path fill="none" stroke="#000000" d="M757.4478,-383.6165C754.3148,-394.1737 750.6916,-406.3831 747.2139,-418.1018"/>
<polygon fill="#000000" stroke="#000000" points="743.8306,-417.2005 744.3409,-427.783 750.5413,-419.192 743.8306,-417.2005"/>
</g>
<!-- GO:0015267 -->
<g id="node29" class="node">
<title>GO:0015267</title>
<polygon fill="#ffffff" stroke="#000000" points="1101.6442,-683.4019 996.5922,-683.4019 996.5922,-642.1981 1101.6442,-642.1981 1101.6442,-683.4019"/>
<text text-anchor="middle" x="1049.1182" y="-667" font-family="Times,serif" font-size="14.00" fill="#000000">GO:0015267</text>
<text text-anchor="middle" x="1049.1182" y="-650.2" font-family="Times,serif" font-size="14.00" fill="#000000">channel activity</text>
</g>
<!-- GO:0022836&#45;&gt;GO:0015267 -->
<g id="edge32" class="edge">
<title>GO:0022836&#45;&gt;GO:0015267</title>
<path fill="none" stroke="#000000" d="M1072.4602,-589.3504C1068.4597,-601.9387 1063.2984,-618.1795 1058.8468,-632.1872"/>
<polygon fill="#000000" stroke="#000000" points="1055.4507,-631.3178 1055.7576,-641.9081 1062.1219,-633.4379 1055.4507,-631.3178"/>
</g>
<!-- GO:0022891 -->
<g id="node30" class="node">
<title>GO:0022891</title>
<polygon fill="#ffffff" stroke="#000000" points="957.5516,-803.3003 790.6848,-803.3003 790.6848,-727.8997 957.5516,-727.8997 957.5516,-803.3003"/>
<text text-anchor="middle" x="874.1182" y="-786.6" font-family="Times,serif" font-size="14.00" fill="#000000">GO:0022891</text>
<text text-anchor="middle" x="874.1182" y="-769.8" font-family="Times,serif" font-size="14.00" fill="#000000">substrate&#45;specific</text>
<text text-anchor="middle" x="874.1182" y="-753" font-family="Times,serif" font-size="14.00" fill="#000000">transmembrane transporter</text>
<text text-anchor="middle" x="874.1182" y="-736.2" font-family="Times,serif" font-size="14.00" fill="#000000">activity</text>
</g>
<!-- GO:0015075&#45;&gt;GO:0022891 -->
<g id="edge33" class="edge">
<title>GO:0015075&#45;&gt;GO:0022891</title>
<path fill="none" stroke="#000000" d="M853.4284,-692.2584C855.6903,-700.2763 858.1996,-709.1712 860.668,-717.9215"/>
<polygon fill="#000000" stroke="#000000" points="857.3387,-719.0109 863.4223,-727.685 864.0757,-717.1103 857.3387,-719.0109"/>
</g>
<!-- GO:0022838&#45;&gt;GO:0015267 -->
<g id="edge35" class="edge">
<title>GO:0022838&#45;&gt;GO:0015267</title>
<path fill="none" stroke="#000000" d="M970.5636,-597.7513C985.0973,-609.7862 1001.8235,-623.6367 1016.0967,-635.4559"/>
<polygon fill="#000000" stroke="#000000" points="1014.2475,-638.4688 1024.1819,-642.151 1018.712,-633.0773 1014.2475,-638.4688"/>
</g>
<!-- GO:0022838&#45;&gt;GO:0022891 -->
<g id="edge34" class="edge">
<title>GO:0022838&#45;&gt;GO:0022891</title>
<path fill="none" stroke="#000000" d="M933.6191,-597.847C931.6146,-623.3573 926.9487,-660.9431 916.1182,-692 912.9542,-701.0728 908.6709,-710.3068 904.0453,-719.0292"/>
<polygon fill="#000000" stroke="#000000" points="900.913,-717.4611 899.1337,-727.9054 907.0378,-720.8503 900.913,-717.4611"/>
</g>
<!-- GO:0022890&#45;&gt;GO:0008324 -->
<g id="edge36" class="edge">
<title>GO:0022890&#45;&gt;GO:0008324</title>
<path fill="none" stroke="#000000" d="M740.0852,-503.2952C741.6363,-511.6874 743.2846,-520.6054 744.8475,-529.0618"/>
<polygon fill="#000000" stroke="#000000" points="741.4401,-529.8841 746.6994,-539.0814 748.3235,-528.6118 741.4401,-529.8841"/>
</g>
<!-- GO:0022803 -->
<g id="node31" class="node">
<title>GO:0022803</title>
<polygon fill="#ffffff" stroke="#000000" points="1122.6232,-795.0014 975.6132,-795.0014 975.6132,-736.1986 1122.6232,-736.1986 1122.6232,-795.0014"/>
<text text-anchor="middle" x="1049.1182" y="-778.2" font-family="Times,serif" font-size="14.00" fill="#000000">GO:0022803</text>
<text text-anchor="middle" x="1049.1182" y="-761.4" font-family="Times,serif" font-size="14.00" fill="#000000">passive transmembrane</text>
<text text-anchor="middle" x="1049.1182" y="-744.6" font-family="Times,serif" font-size="14.00" fill="#000000">transporter activity</text>
</g>
<!-- GO:0015267&#45;&gt;GO:0022803 -->
<g id="edge37" class="edge">
<title>GO:0015267&#45;&gt;GO:0022803</title>
<path fill="none" stroke="#000000" d="M1049.1182,-683.6031C1049.1182,-695.7833 1049.1182,-711.5676 1049.1182,-726.0305"/>
<polygon fill="#000000" stroke="#000000" points="1045.6183,-726.2577 1049.1182,-736.2577 1052.6183,-726.2578 1045.6183,-726.2577"/>
</g>
<!-- GO:0022857 -->
<g id="node32" class="node">
<title>GO:0022857</title>
<polygon fill="#ffffff" stroke="#000000" points="1108.5516,-897.8014 941.6848,-897.8014 941.6848,-838.9986 1108.5516,-838.9986 1108.5516,-897.8014"/>
<text text-anchor="middle" x="1025.1182" y="-881" font-family="Times,serif" font-size="14.00" fill="#000000">GO:0022857</text>
<text text-anchor="middle" x="1025.1182" y="-864.2" font-family="Times,serif" font-size="14.00" fill="#000000">transmembrane transporter</text>
<text text-anchor="middle" x="1025.1182" y="-847.4" font-family="Times,serif" font-size="14.00" fill="#000000">activity</text>
</g>
<!-- GO:0022891&#45;&gt;GO:0022857 -->
<g id="edge38" class="edge">
<title>GO:0022891&#45;&gt;GO:0022857</title>
<path fill="none" stroke="#000000" d="M929.4876,-803.2952C943.8466,-813.0707 959.2535,-823.5597 973.416,-833.2014"/>
<polygon fill="#000000" stroke="#000000" points="971.817,-836.3469 982.0529,-839.0814 975.7563,-830.5606 971.817,-836.3469"/>
</g>
<!-- GO:0022892 -->
<g id="node33" class="node">
<title>GO:0022892</title>
<polygon fill="#ffffff" stroke="#000000" points="924.2467,-897.8014 801.9897,-897.8014 801.9897,-838.9986 924.2467,-838.9986 924.2467,-897.8014"/>
<text text-anchor="middle" x="863.1182" y="-881" font-family="Times,serif" font-size="14.00" fill="#000000">GO:0022892</text>
<text text-anchor="middle" x="863.1182" y="-864.2" font-family="Times,serif" font-size="14.00" fill="#000000">substrate&#45;specific</text>
<text text-anchor="middle" x="863.1182" y="-847.4" font-family="Times,serif" font-size="14.00" fill="#000000">transporter activity</text>
</g>
<!-- GO:0022891&#45;&gt;GO:0022892 -->
<g id="edge39" class="edge">
<title>GO:0022891&#45;&gt;GO:0022892</title>
<path fill="none" stroke="#000000" d="M870.0847,-803.2952C869.1867,-811.6874 868.2324,-820.6054 867.3275,-829.0618"/>
<polygon fill="#000000" stroke="#000000" points="863.8393,-828.7657 866.2554,-839.0814 870.7996,-829.5105 863.8393,-828.7657"/>
</g>
<!-- GO:0022803&#45;&gt;GO:0022857 -->
<g id="edge40" class="edge">
<title>GO:0022803&#45;&gt;GO:0022857</title>
<path fill="none" stroke="#000000" d="M1042.2408,-795.0584C1039.7804,-805.5969 1036.9663,-817.6505 1034.3401,-828.8994"/>
<polygon fill="#000000" stroke="#000000" points="1030.8619,-828.4035 1031.9966,-838.9373 1037.6786,-829.995 1030.8619,-828.4035"/>
</g>
<!-- GO:0005215 -->
<g id="node34" class="node">
<title>GO:0005215</title>
<polygon fill="#ffffff" stroke="#000000" points="924.2467,-983.4019 801.9897,-983.4019 801.9897,-942.1981 924.2467,-942.1981 924.2467,-983.4019"/>
<text text-anchor="middle" x="863.1182" y="-967" font-family="Times,serif" font-size="14.00" fill="#000000">GO:0005215</text>
<text text-anchor="middle" x="863.1182" y="-950.2" font-family="Times,serif" font-size="14.00" fill="#000000">transporter activity</text>
</g>
<!-- GO:0022857&#45;&gt;GO:0005215 -->
<g id="edge41" class="edge">
<title>GO:0022857&#45;&gt;GO:0005215</title>
<path fill="none" stroke="#000000" d="M974.7484,-897.7513C953.1302,-910.3486 928.0982,-924.9351 907.2236,-937.0991"/>
<polygon fill="#000000" stroke="#000000" points="905.432,-934.0922 898.554,-942.151 908.9563,-940.1402 905.432,-934.0922"/>
</g>
<!-- GO:0022892&#45;&gt;GO:0005215 -->
<g id="edge42" class="edge">
<title>GO:0022892&#45;&gt;GO:0005215</title>
<path fill="none" stroke="#000000" d="M863.1182,-897.7513C863.1182,-908.6614 863.1182,-921.0637 863.1182,-932.092"/>
<polygon fill="#000000" stroke="#000000" points="859.6183,-932.1509 863.1182,-942.151 866.6183,-932.151 859.6183,-932.1509"/>
</g>
<!-- GO:0005215&#45;&gt;GO:0003674 -->
<g id="edge43" class="edge">
<title>GO:0005215&#45;&gt;GO:0003674</title>
<path fill="none" stroke="#000000" d="M801.659,-978.076C742.3044,-992.8289 652.413,-1015.1718 589.5962,-1030.7852"/>
<polygon fill="#000000" stroke="#000000" points="588.6163,-1027.4222 579.7558,-1033.2311 590.3048,-1034.2155 588.6163,-1027.4222"/>
</g>
</g>
</svg>
