<?xml version="1.0" encoding="UTF-8" standalone="no"?>
<!DOCTYPE svg PUBLIC "-//W3C//DTD SVG 1.1//EN"
 "http://www.w3.org/Graphics/SVG/1.1/DTD/svg11.dtd">
<!-- Generated by graphviz version 2.40.1 (20161225.0304)
 -->
<!-- Title: G Pages: 1 -->
<svg width="1534pt" height="761pt"
 viewBox="0.00 0.00 1533.79 760.80" xmlns="http://www.w3.org/2000/svg" xmlns:xlink="http://www.w3.org/1999/xlink">
<g id="graph0" class="graph" transform="scale(1 1) rotate(0) translate(4 756.8)">
<title>G</title>
<polygon fill="#ffffff" stroke="transparent" points="-4,4 -4,-756.8 1529.7911,-756.8 1529.7911,4 -4,4"/>
<!-- GO:0006996 -->
<g id="node1" class="node">
<title>GO:0006996</title>
<polygon fill="#ffffff" stroke="#000000" points="451.4051,-452.6019 310.2801,-452.6019 310.2801,-411.3981 451.4051,-411.3981 451.4051,-452.6019"/>
<text text-anchor="middle" x="380.8426" y="-436.2" font-family="Times,serif" font-size="14.00" fill="#000000">GO:0006996</text>
<text text-anchor="middle" x="380.8426" y="-419.4" font-family="Times,serif" font-size="14.00" fill="#000000">organelle organization</text>
</g>
<!-- GO:0016043 -->
<g id="node2" class="node">
<title>GO:0016043</title>
<polygon fill="#ffffff" stroke="#000000" points="447.5296,-564.2014 324.1556,-564.2014 324.1556,-505.3986 447.5296,-505.3986 447.5296,-564.2014"/>
<text text-anchor="middle" x="385.8426" y="-547.4" font-family="Times,serif" font-size="14.00" fill="#000000">GO:0016043</text>
<text text-anchor="middle" x="385.8426" y="-530.6" font-family="Times,serif" font-size="14.00" fill="#000000">cellular component</text>
<text text-anchor="middle" x="385.8426" y="-513.8" font-family="Times,serif" font-size="14.00" fill="#000000">organization</text>
</g>
<!-- GO:0006996&#45;&gt;GO:0016043 -->
<g id="edge1" class="edge">
<title>GO:0006996&#45;&gt;GO:0016043</title>
<path fill="none" stroke="#000000" d="M381.8544,-452.8031C382.4468,-464.9833 383.2146,-480.7676 383.918,-495.2305"/>
<polygon fill="#000000" stroke="#000000" points="380.4337,-495.6396 384.4154,-505.4577 387.4254,-495.2995 380.4337,-495.6396"/>
</g>
<!-- GO:0009987 -->
<g id="node3" class="node">
<title>GO:0009987</title>
<polygon fill="#ffffff" stroke="#000000" points="635.7988,-658.2019 531.8864,-658.2019 531.8864,-616.9981 635.7988,-616.9981 635.7988,-658.2019"/>
<text text-anchor="middle" x="583.8426" y="-641.8" font-family="Times,serif" font-size="14.00" fill="#000000">GO:0009987</text>
<text text-anchor="middle" x="583.8426" y="-625" font-family="Times,serif" font-size="14.00" fill="#000000">cellular process</text>
</g>
<!-- GO:0016043&#45;&gt;GO:0009987 -->
<g id="edge2" class="edge">
<title>GO:0016043&#45;&gt;GO:0009987</title>
<path fill="none" stroke="#000000" d="M442.3165,-564.1208C471.4817,-579.2631 506.7265,-597.562 534.7481,-612.1105"/>
<polygon fill="#000000" stroke="#000000" points="533.467,-615.389 543.9549,-616.8906 536.6925,-609.1764 533.467,-615.389"/>
</g>
<!-- GO:0071840 -->
<g id="node4" class="node">
<title>GO:0071840</title>
<polygon fill="#ffffff" stroke="#000000" points="482.5296,-675.3003 359.1556,-675.3003 359.1556,-599.8997 482.5296,-599.8997 482.5296,-675.3003"/>
<text text-anchor="middle" x="420.8426" y="-658.6" font-family="Times,serif" font-size="14.00" fill="#000000">GO:0071840</text>
<text text-anchor="middle" x="420.8426" y="-641.8" font-family="Times,serif" font-size="14.00" fill="#000000">cellular component</text>
<text text-anchor="middle" x="420.8426" y="-625" font-family="Times,serif" font-size="14.00" fill="#000000">organization or</text>
<text text-anchor="middle" x="420.8426" y="-608.2" font-family="Times,serif" font-size="14.00" fill="#000000">biogenesis</text>
</g>
<!-- GO:0016043&#45;&gt;GO:0071840 -->
<g id="edge3" class="edge">
<title>GO:0016043&#45;&gt;GO:0071840</title>
<path fill="none" stroke="#000000" d="M395.8722,-564.2584C398.6314,-572.3625 401.6956,-581.3626 404.7057,-590.2037"/>
<polygon fill="#000000" stroke="#000000" points="401.3975,-591.3466 407.9338,-599.685 408.024,-589.0905 401.3975,-591.3466"/>
</g>
<!-- GO:0008150 -->
<g id="node5" class="node">
<title>GO:0008150</title>
<polygon fill="#ffffff" stroke="#000000" points="967.3132,-752.6019 846.372,-752.6019 846.372,-711.3981 967.3132,-711.3981 967.3132,-752.6019"/>
<text text-anchor="middle" x="906.8426" y="-736.2" font-family="Times,serif" font-size="14.00" fill="#000000">GO:0008150</text>
<text text-anchor="middle" x="906.8426" y="-719.4" font-family="Times,serif" font-size="14.00" fill="#000000">biological_process</text>
</g>
<!-- GO:0009987&#45;&gt;GO:0008150 -->
<g id="edge4" class="edge">
<title>GO:0009987&#45;&gt;GO:0008150</title>
<path fill="none" stroke="#000000" d="M635.7381,-652.767C690.1321,-668.6642 775.9336,-693.7405 836.4164,-711.4172"/>
<polygon fill="#000000" stroke="#000000" points="835.6921,-714.8519 846.2724,-714.2978 837.6558,-708.133 835.6921,-714.8519"/>
</g>
<!-- GO:0071840&#45;&gt;GO:0008150 -->
<g id="edge5" class="edge">
<title>GO:0071840&#45;&gt;GO:0008150</title>
<path fill="none" stroke="#000000" d="M482.7709,-662.7398C495.8478,-667.3928 509.6764,-671.8379 522.8426,-675.2 630.3272,-702.6467 758.3525,-718.2809 836.0628,-725.9457"/>
<polygon fill="#000000" stroke="#000000" points="835.9282,-729.4489 846.2192,-726.9302 836.6036,-722.4816 835.9282,-729.4489"/>
</g>
<!-- GO:0006997 -->
<g id="node6" class="node">
<title>GO:0006997</title>
<polygon fill="#ffffff" stroke="#000000" points="452.0834,-341.4019 319.6018,-341.4019 319.6018,-300.1981 452.0834,-300.1981 452.0834,-341.4019"/>
<text text-anchor="middle" x="385.8426" y="-325" font-family="Times,serif" font-size="14.00" fill="#000000">GO:0006997</text>
<text text-anchor="middle" x="385.8426" y="-308.2" font-family="Times,serif" font-size="14.00" fill="#000000">nucleus organization</text>
</g>
<!-- GO:0006997&#45;&gt;GO:0006996 -->
<g id="edge6" class="edge">
<title>GO:0006997&#45;&gt;GO:0006996</title>
<path fill="none" stroke="#000000" d="M384.9139,-341.4553C384.1609,-358.2017 383.0881,-382.0608 382.2327,-401.0834"/>
<polygon fill="#000000" stroke="#000000" points="378.7362,-400.9309 381.7833,-411.078 385.7291,-401.2454 378.7362,-400.9309"/>
</g>
<!-- GO:0022607 -->
<g id="node7" class="node">
<title>GO:0022607</title>
<polygon fill="#ffffff" stroke="#000000" points="207.5296,-461.4014 84.1556,-461.4014 84.1556,-402.5986 207.5296,-402.5986 207.5296,-461.4014"/>
<text text-anchor="middle" x="145.8426" y="-444.6" font-family="Times,serif" font-size="14.00" fill="#000000">GO:0022607</text>
<text text-anchor="middle" x="145.8426" y="-427.8" font-family="Times,serif" font-size="14.00" fill="#000000">cellular component</text>
<text text-anchor="middle" x="145.8426" y="-411" font-family="Times,serif" font-size="14.00" fill="#000000">assembly</text>
</g>
<!-- GO:0022607&#45;&gt;GO:0016043 -->
<g id="edge7" class="edge">
<title>GO:0022607&#45;&gt;GO:0016043</title>
<path fill="none" stroke="#000000" d="M207.6486,-458.4736C240.2751,-472.4486 280.4746,-489.6674 314.4295,-504.2114"/>
<polygon fill="#000000" stroke="#000000" points="313.2591,-507.5176 323.8294,-508.2377 316.0153,-501.083 313.2591,-507.5176"/>
</g>
<!-- GO:1901564 -->
<g id="node8" class="node">
<title>GO:1901564</title>
<polygon fill="#ffffff" stroke="#000000" points="965.9795,-461.4014 801.7057,-461.4014 801.7057,-402.5986 965.9795,-402.5986 965.9795,-461.4014"/>
<text text-anchor="middle" x="883.8426" y="-444.6" font-family="Times,serif" font-size="14.00" fill="#000000">GO:1901564</text>
<text text-anchor="middle" x="883.8426" y="-427.8" font-family="Times,serif" font-size="14.00" fill="#000000">organonitrogen compound</text>
<text text-anchor="middle" x="883.8426" y="-411" font-family="Times,serif" font-size="14.00" fill="#000000">metabolic process</text>
</g>
<!-- GO:0071704 -->
<g id="node9" class="node">
<title>GO:0071704</title>
<polygon fill="#ffffff" stroke="#000000" points="1072.0282,-564.2014 955.657,-564.2014 955.657,-505.3986 1072.0282,-505.3986 1072.0282,-564.2014"/>
<text text-anchor="middle" x="1013.8426" y="-547.4" font-family="Times,serif" font-size="14.00" fill="#000000">GO:0071704</text>
<text text-anchor="middle" x="1013.8426" y="-530.6" font-family="Times,serif" font-size="14.00" fill="#000000">organic substance</text>
<text text-anchor="middle" x="1013.8426" y="-513.8" font-family="Times,serif" font-size="14.00" fill="#000000">metabolic process</text>
</g>
<!-- GO:1901564&#45;&gt;GO:0071704 -->
<g id="edge8" class="edge">
<title>GO:1901564&#45;&gt;GO:0071704</title>
<path fill="none" stroke="#000000" d="M921.0954,-461.4584C935.9183,-473.1798 953.1111,-486.7754 968.638,-499.0536"/>
<polygon fill="#000000" stroke="#000000" points="966.5695,-501.88 976.5844,-505.3373 970.9114,-496.3892 966.5695,-501.88"/>
</g>
<!-- GO:0006807 -->
<g id="node10" class="node">
<title>GO:0006807</title>
<polygon fill="#ffffff" stroke="#000000" points="937.6045,-564.2014 812.0807,-564.2014 812.0807,-505.3986 937.6045,-505.3986 937.6045,-564.2014"/>
<text text-anchor="middle" x="874.8426" y="-547.4" font-family="Times,serif" font-size="14.00" fill="#000000">GO:0006807</text>
<text text-anchor="middle" x="874.8426" y="-530.6" font-family="Times,serif" font-size="14.00" fill="#000000">nitrogen compound</text>
<text text-anchor="middle" x="874.8426" y="-513.8" font-family="Times,serif" font-size="14.00" fill="#000000">metabolic process</text>
</g>
<!-- GO:1901564&#45;&gt;GO:0006807 -->
<g id="edge9" class="edge">
<title>GO:1901564&#45;&gt;GO:0006807</title>
<path fill="none" stroke="#000000" d="M881.2636,-461.4584C880.3409,-471.9969 879.2857,-484.0505 878.3008,-495.2994"/>
<polygon fill="#000000" stroke="#000000" points="874.8076,-495.0702 877.422,-505.3373 881.7809,-495.6807 874.8076,-495.0702"/>
</g>
<!-- GO:0008152 -->
<g id="node11" class="node">
<title>GO:0008152</title>
<polygon fill="#ffffff" stroke="#000000" points="889.0282,-658.2019 772.657,-658.2019 772.657,-616.9981 889.0282,-616.9981 889.0282,-658.2019"/>
<text text-anchor="middle" x="830.8426" y="-641.8" font-family="Times,serif" font-size="14.00" fill="#000000">GO:0008152</text>
<text text-anchor="middle" x="830.8426" y="-625" font-family="Times,serif" font-size="14.00" fill="#000000">metabolic process</text>
</g>
<!-- GO:0071704&#45;&gt;GO:0008152 -->
<g id="edge10" class="edge">
<title>GO:0071704&#45;&gt;GO:0008152</title>
<path fill="none" stroke="#000000" d="M961.4021,-564.2584C934.5704,-579.3311 902.2219,-597.5028 876.4373,-611.9872"/>
<polygon fill="#000000" stroke="#000000" points="874.615,-608.9965 867.6106,-616.9456 878.0433,-615.0994 874.615,-608.9965"/>
</g>
<!-- GO:0006807&#45;&gt;GO:0008152 -->
<g id="edge11" class="edge">
<title>GO:0006807&#45;&gt;GO:0008152</title>
<path fill="none" stroke="#000000" d="M862.234,-564.2584C856.4306,-577.8172 849.5538,-593.8838 843.7181,-607.5182"/>
<polygon fill="#000000" stroke="#000000" points="840.4003,-606.3751 839.683,-616.9456 846.8356,-609.1296 840.4003,-606.3751"/>
</g>
<!-- GO:0008152&#45;&gt;GO:0008150 -->
<g id="edge12" class="edge">
<title>GO:0008152&#45;&gt;GO:0008150</title>
<path fill="none" stroke="#000000" d="M847.7095,-658.5504C858.2377,-671.6276 871.9393,-688.6464 883.5022,-703.0087"/>
<polygon fill="#000000" stroke="#000000" points="881.0255,-705.5137 890.0229,-711.1081 886.4781,-701.1239 881.0255,-705.5137"/>
</g>
<!-- GO:0044707 -->
<g id="node12" class="node">
<title>GO:0044707</title>
<polygon fill="#ffffff" stroke="#000000" points="1215.4827,-564.2014 1090.2025,-564.2014 1090.2025,-505.3986 1215.4827,-505.3986 1215.4827,-564.2014"/>
<text text-anchor="middle" x="1152.8426" y="-547.4" font-family="Times,serif" font-size="14.00" fill="#000000">GO:0044707</text>
<text text-anchor="middle" x="1152.8426" y="-530.6" font-family="Times,serif" font-size="14.00" fill="#000000">single&#45;multicellular</text>
<text text-anchor="middle" x="1152.8426" y="-513.8" font-family="Times,serif" font-size="14.00" fill="#000000">organism process</text>
</g>
<!-- GO:0032501 -->
<g id="node13" class="node">
<title>GO:0032501</title>
<polygon fill="#ffffff" stroke="#000000" points="1229.5876,-667.0014 1076.0976,-667.0014 1076.0976,-608.1986 1229.5876,-608.1986 1229.5876,-667.0014"/>
<text text-anchor="middle" x="1152.8426" y="-650.2" font-family="Times,serif" font-size="14.00" fill="#000000">GO:0032501</text>
<text text-anchor="middle" x="1152.8426" y="-633.4" font-family="Times,serif" font-size="14.00" fill="#000000">multicellular organismal</text>
<text text-anchor="middle" x="1152.8426" y="-616.6" font-family="Times,serif" font-size="14.00" fill="#000000">process</text>
</g>
<!-- GO:0044707&#45;&gt;GO:0032501 -->
<g id="edge13" class="edge">
<title>GO:0044707&#45;&gt;GO:0032501</title>
<path fill="none" stroke="#000000" d="M1152.8426,-564.2584C1152.8426,-574.7969 1152.8426,-586.8505 1152.8426,-598.0994"/>
<polygon fill="#000000" stroke="#000000" points="1149.3427,-598.1373 1152.8426,-608.1373 1156.3427,-598.1374 1149.3427,-598.1373"/>
</g>
<!-- GO:0044699 -->
<g id="node14" class="node">
<title>GO:0044699</title>
<polygon fill="#ffffff" stroke="#000000" points="1058.5239,-658.2019 907.1613,-658.2019 907.1613,-616.9981 1058.5239,-616.9981 1058.5239,-658.2019"/>
<text text-anchor="middle" x="982.8426" y="-641.8" font-family="Times,serif" font-size="14.00" fill="#000000">GO:0044699</text>
<text text-anchor="middle" x="982.8426" y="-625" font-family="Times,serif" font-size="14.00" fill="#000000">single&#45;organism process</text>
</g>
<!-- GO:0044707&#45;&gt;GO:0044699 -->
<g id="edge14" class="edge">
<title>GO:0044707&#45;&gt;GO:0044699</title>
<path fill="none" stroke="#000000" d="M1104.1274,-564.2584C1079.4194,-579.1994 1049.6757,-597.1856 1025.8273,-611.6069"/>
<polygon fill="#000000" stroke="#000000" points="1023.7447,-608.7761 1016.9987,-616.9456 1027.3669,-614.766 1023.7447,-608.7761"/>
</g>
<!-- GO:0032501&#45;&gt;GO:0008150 -->
<g id="edge15" class="edge">
<title>GO:0032501&#45;&gt;GO:0008150</title>
<path fill="none" stroke="#000000" d="M1088.0894,-666.861C1081.2835,-669.7513 1074.4418,-672.5809 1067.8426,-675.2 1038.5165,-686.8391 1005.7414,-698.6197 977.4563,-708.4117"/>
<polygon fill="#000000" stroke="#000000" points="975.9668,-705.2228 967.6518,-711.7888 978.2465,-711.8412 975.9668,-705.2228"/>
</g>
<!-- GO:0044699&#45;&gt;GO:0008150 -->
<g id="edge16" class="edge">
<title>GO:0044699&#45;&gt;GO:0008150</title>
<path fill="none" stroke="#000000" d="M965.9757,-658.5504C955.4475,-671.6276 941.7459,-688.6464 930.183,-703.0087"/>
<polygon fill="#000000" stroke="#000000" points="927.2071,-701.1239 923.6623,-711.1081 932.6597,-705.5137 927.2071,-701.1239"/>
</g>
<!-- GO:0048856 -->
<g id="node15" class="node">
<title>GO:0048856</title>
<polygon fill="#ffffff" stroke="#000000" points="1525.7396,-564.2014 1395.9456,-564.2014 1395.9456,-505.3986 1525.7396,-505.3986 1525.7396,-564.2014"/>
<text text-anchor="middle" x="1460.8426" y="-547.4" font-family="Times,serif" font-size="14.00" fill="#000000">GO:0048856</text>
<text text-anchor="middle" x="1460.8426" y="-530.6" font-family="Times,serif" font-size="14.00" fill="#000000">anatomical structure</text>
<text text-anchor="middle" x="1460.8426" y="-513.8" font-family="Times,serif" font-size="14.00" fill="#000000">development</text>
</g>
<!-- GO:0032502 -->
<g id="node16" class="node">
<title>GO:0032502</title>
<polygon fill="#ffffff" stroke="#000000" points="1391.7424,-658.2019 1247.9428,-658.2019 1247.9428,-616.9981 1391.7424,-616.9981 1391.7424,-658.2019"/>
<text text-anchor="middle" x="1319.8426" y="-641.8" font-family="Times,serif" font-size="14.00" fill="#000000">GO:0032502</text>
<text text-anchor="middle" x="1319.8426" y="-625" font-family="Times,serif" font-size="14.00" fill="#000000">developmental process</text>
</g>
<!-- GO:0048856&#45;&gt;GO:0032502 -->
<g id="edge17" class="edge">
<title>GO:0048856&#45;&gt;GO:0032502</title>
<path fill="none" stroke="#000000" d="M1420.4377,-564.2584C1400.2154,-579.002 1375.9261,-596.7107 1356.2814,-611.0332"/>
<polygon fill="#000000" stroke="#000000" points="1354.1905,-608.2262 1348.172,-616.9456 1358.3144,-613.8825 1354.1905,-608.2262"/>
</g>
<!-- GO:0032502&#45;&gt;GO:0008150 -->
<g id="edge18" class="edge">
<title>GO:0032502&#45;&gt;GO:0008150</title>
<path fill="none" stroke="#000000" d="M1280.7129,-658.3109C1267.6844,-664.5116 1252.9045,-670.819 1238.8426,-675.2 1150.9563,-702.5811 1045.6186,-717.7654 977.5237,-725.3995"/>
<polygon fill="#000000" stroke="#000000" points="976.8976,-721.9471 967.3387,-726.5161 977.6606,-728.9054 976.8976,-721.9471"/>
</g>
<!-- GO:0006584 -->
<g id="node17" class="node">
<title>GO:0006584</title>
<polygon fill="#ffffff" stroke="#000000" points="1053.3994,-136.2014 898.2858,-136.2014 898.2858,-77.3986 1053.3994,-77.3986 1053.3994,-136.2014"/>
<text text-anchor="middle" x="975.8426" y="-119.4" font-family="Times,serif" font-size="14.00" fill="#000000">GO:0006584</text>
<text text-anchor="middle" x="975.8426" y="-102.6" font-family="Times,serif" font-size="14.00" fill="#000000">catecholamine metabolic</text>
<text text-anchor="middle" x="975.8426" y="-85.8" font-family="Times,serif" font-size="14.00" fill="#000000">process</text>
</g>
<!-- GO:0006584&#45;&gt;GO:1901564 -->
<g id="edge20" class="edge">
<title>GO:0006584&#45;&gt;GO:1901564</title>
<path fill="none" stroke="#000000" d="M967.516,-136.2329C950.8975,-194.9754 913.6121,-326.7714 894.9399,-392.7736"/>
<polygon fill="#000000" stroke="#000000" points="891.5712,-391.8242 892.2167,-402.3993 898.3068,-393.7297 891.5712,-391.8242"/>
</g>
<!-- GO:0009712 -->
<g id="node18" class="node">
<title>GO:0009712</title>
<polygon fill="#ffffff" stroke="#000000" points="1112.6541,-247.3003 979.0311,-247.3003 979.0311,-171.8997 1112.6541,-171.8997 1112.6541,-247.3003"/>
<text text-anchor="middle" x="1045.8426" y="-230.6" font-family="Times,serif" font-size="14.00" fill="#000000">GO:0009712</text>
<text text-anchor="middle" x="1045.8426" y="-213.8" font-family="Times,serif" font-size="14.00" fill="#000000">catechol&#45;containing</text>
<text text-anchor="middle" x="1045.8426" y="-197" font-family="Times,serif" font-size="14.00" fill="#000000">compound metabolic</text>
<text text-anchor="middle" x="1045.8426" y="-180.2" font-family="Times,serif" font-size="14.00" fill="#000000">process</text>
</g>
<!-- GO:0006584&#45;&gt;GO:0009712 -->
<g id="edge19" class="edge">
<title>GO:0006584&#45;&gt;GO:0009712</title>
<path fill="none" stroke="#000000" d="M995.9018,-136.2584C1001.655,-144.7074 1008.0713,-154.1302 1014.3368,-163.3314"/>
<polygon fill="#000000" stroke="#000000" points="1011.5036,-165.3892 1020.025,-171.685 1017.2895,-161.4493 1011.5036,-165.3892"/>
</g>
<!-- GO:0018958 -->
<g id="node19" class="node">
<title>GO:0018958</title>
<polygon fill="#ffffff" stroke="#000000" points="1124.6541,-358.5003 991.0311,-358.5003 991.0311,-283.0997 1124.6541,-283.0997 1124.6541,-358.5003"/>
<text text-anchor="middle" x="1057.8426" y="-341.8" font-family="Times,serif" font-size="14.00" fill="#000000">GO:0018958</text>
<text text-anchor="middle" x="1057.8426" y="-325" font-family="Times,serif" font-size="14.00" fill="#000000">phenol&#45;containing</text>
<text text-anchor="middle" x="1057.8426" y="-308.2" font-family="Times,serif" font-size="14.00" fill="#000000">compound metabolic</text>
<text text-anchor="middle" x="1057.8426" y="-291.4" font-family="Times,serif" font-size="14.00" fill="#000000">process</text>
</g>
<!-- GO:0009712&#45;&gt;GO:0018958 -->
<g id="edge21" class="edge">
<title>GO:0009712&#45;&gt;GO:0018958</title>
<path fill="none" stroke="#000000" d="M1049.9053,-247.2472C1050.8045,-255.58 1051.7687,-264.5155 1052.7044,-273.1863"/>
<polygon fill="#000000" stroke="#000000" points="1049.2313,-273.6248 1053.7841,-283.1915 1056.1909,-272.8737 1049.2313,-273.6248"/>
</g>
<!-- GO:0006725 -->
<g id="node20" class="node">
<title>GO:0006725</title>
<polygon fill="#ffffff" stroke="#000000" points="783.6541,-469.7003 650.0311,-469.7003 650.0311,-394.2997 783.6541,-394.2997 783.6541,-469.7003"/>
<text text-anchor="middle" x="716.8426" y="-453" font-family="Times,serif" font-size="14.00" fill="#000000">GO:0006725</text>
<text text-anchor="middle" x="716.8426" y="-436.2" font-family="Times,serif" font-size="14.00" fill="#000000">cellular aromatic</text>
<text text-anchor="middle" x="716.8426" y="-419.4" font-family="Times,serif" font-size="14.00" fill="#000000">compound metabolic</text>
<text text-anchor="middle" x="716.8426" y="-402.6" font-family="Times,serif" font-size="14.00" fill="#000000">process</text>
</g>
<!-- GO:0018958&#45;&gt;GO:0006725 -->
<g id="edge22" class="edge">
<title>GO:0018958&#45;&gt;GO:0006725</title>
<path fill="none" stroke="#000000" d="M990.8377,-335.7023C938.9103,-348.0914 865.2829,-367.4931 793.3495,-394.4128"/>
<polygon fill="#000000" stroke="#000000" points="791.7809,-391.2644 783.6728,-398.0842 794.2641,-397.8091 791.7809,-391.2644"/>
</g>
<!-- GO:1901360 -->
<g id="node21" class="node">
<title>GO:1901360</title>
<polygon fill="#ffffff" stroke="#000000" points="1329.354,-461.4014 1172.3312,-461.4014 1172.3312,-402.5986 1329.354,-402.5986 1329.354,-461.4014"/>
<text text-anchor="middle" x="1250.8426" y="-444.6" font-family="Times,serif" font-size="14.00" fill="#000000">GO:1901360</text>
<text text-anchor="middle" x="1250.8426" y="-427.8" font-family="Times,serif" font-size="14.00" fill="#000000">organic cyclic compound</text>
<text text-anchor="middle" x="1250.8426" y="-411" font-family="Times,serif" font-size="14.00" fill="#000000">metabolic process</text>
</g>
<!-- GO:0018958&#45;&gt;GO:1901360 -->
<g id="edge23" class="edge">
<title>GO:0018958&#45;&gt;GO:1901360</title>
<path fill="none" stroke="#000000" d="M1123.1836,-358.4472C1145.1938,-371.1288 1169.6267,-385.2062 1191.1763,-397.6223"/>
<polygon fill="#000000" stroke="#000000" points="1189.4933,-400.692 1199.9053,-402.6517 1192.988,-394.6267 1189.4933,-400.692"/>
</g>
<!-- GO:1901615 -->
<g id="node22" class="node">
<title>GO:1901615</title>
<polygon fill="#ffffff" stroke="#000000" points="1154.089,-461.4014 983.5962,-461.4014 983.5962,-402.5986 1154.089,-402.5986 1154.089,-461.4014"/>
<text text-anchor="middle" x="1068.8426" y="-444.6" font-family="Times,serif" font-size="14.00" fill="#000000">GO:1901615</text>
<text text-anchor="middle" x="1068.8426" y="-427.8" font-family="Times,serif" font-size="14.00" fill="#000000">organic hydroxy compound</text>
<text text-anchor="middle" x="1068.8426" y="-411" font-family="Times,serif" font-size="14.00" fill="#000000">metabolic process</text>
</g>
<!-- GO:0018958&#45;&gt;GO:1901615 -->
<g id="edge24" class="edge">
<title>GO:0018958&#45;&gt;GO:1901615</title>
<path fill="none" stroke="#000000" d="M1061.5667,-358.4472C1062.6436,-369.3338 1063.8223,-381.249 1064.9114,-392.2589"/>
<polygon fill="#000000" stroke="#000000" points="1061.4544,-392.8673 1065.9219,-402.4742 1068.4204,-392.1782 1061.4544,-392.8673"/>
</g>
<!-- GO:0044237 -->
<g id="node23" class="node">
<title>GO:0044237</title>
<polygon fill="#ffffff" stroke="#000000" points="794.0254,-564.2014 677.6598,-564.2014 677.6598,-505.3986 794.0254,-505.3986 794.0254,-564.2014"/>
<text text-anchor="middle" x="735.8426" y="-547.4" font-family="Times,serif" font-size="14.00" fill="#000000">GO:0044237</text>
<text text-anchor="middle" x="735.8426" y="-530.6" font-family="Times,serif" font-size="14.00" fill="#000000">cellular metabolic</text>
<text text-anchor="middle" x="735.8426" y="-513.8" font-family="Times,serif" font-size="14.00" fill="#000000">process</text>
</g>
<!-- GO:0006725&#45;&gt;GO:0044237 -->
<g id="edge25" class="edge">
<title>GO:0006725&#45;&gt;GO:0044237</title>
<path fill="none" stroke="#000000" d="M723.8096,-469.6952C725.3607,-478.0874 727.009,-487.0054 728.5719,-495.4618"/>
<polygon fill="#000000" stroke="#000000" points="725.1645,-496.2841 730.4238,-505.4814 732.0479,-495.0118 725.1645,-496.2841"/>
</g>
<!-- GO:1901360&#45;&gt;GO:0071704 -->
<g id="edge26" class="edge">
<title>GO:1901360&#45;&gt;GO:0071704</title>
<path fill="none" stroke="#000000" d="M1182.9929,-461.3303C1154.171,-473.8001 1119.9863,-488.604 1081.6135,-505.2678"/>
<polygon fill="#000000" stroke="#000000" points="1080.0823,-502.1169 1072.3045,-509.3112 1082.871,-508.5375 1080.0823,-502.1169"/>
</g>
<!-- GO:1901615&#45;&gt;GO:0071704 -->
<g id="edge27" class="edge">
<title>GO:1901615&#45;&gt;GO:0071704</title>
<path fill="none" stroke="#000000" d="M1053.0818,-461.4584C1047.2709,-472.3195 1040.599,-484.7898 1034.4247,-496.3301"/>
<polygon fill="#000000" stroke="#000000" points="1031.2371,-494.8689 1029.6057,-505.3373 1037.4093,-498.1711 1031.2371,-494.8689"/>
</g>
<!-- GO:0044237&#45;&gt;GO:0009987 -->
<g id="edge28" class="edge">
<title>GO:0044237&#45;&gt;GO:0009987</title>
<path fill="none" stroke="#000000" d="M692.2855,-564.2584C670.3883,-579.0678 644.0676,-596.8689 622.8409,-611.2249"/>
<polygon fill="#000000" stroke="#000000" points="620.7048,-608.4442 614.3821,-616.9456 624.6264,-614.2426 620.7048,-608.4442"/>
</g>
<!-- GO:0044237&#45;&gt;GO:0008152 -->
<g id="edge29" class="edge">
<title>GO:0044237&#45;&gt;GO:0008152</title>
<path fill="none" stroke="#000000" d="M763.0658,-564.2584C776.2041,-578.4754 791.8904,-595.4496 804.8618,-609.486"/>
<polygon fill="#000000" stroke="#000000" points="802.3979,-611.9769 811.7554,-616.9456 807.5389,-607.226 802.3979,-611.9769"/>
</g>
<!-- GO:0044767 -->
<g id="node24" class="node">
<title>GO:0044767</title>
<polygon fill="#ffffff" stroke="#000000" points="1377.7424,-564.2014 1233.9428,-564.2014 1233.9428,-505.3986 1377.7424,-505.3986 1377.7424,-564.2014"/>
<text text-anchor="middle" x="1305.8426" y="-547.4" font-family="Times,serif" font-size="14.00" fill="#000000">GO:0044767</text>
<text text-anchor="middle" x="1305.8426" y="-530.6" font-family="Times,serif" font-size="14.00" fill="#000000">single&#45;organism</text>
<text text-anchor="middle" x="1305.8426" y="-513.8" font-family="Times,serif" font-size="14.00" fill="#000000">developmental process</text>
</g>
<!-- GO:0044767&#45;&gt;GO:0044699 -->
<g id="edge31" class="edge">
<title>GO:0044767&#45;&gt;GO:0044699</title>
<path fill="none" stroke="#000000" d="M1233.5634,-561.35C1230.6268,-562.2719 1227.7117,-563.1594 1224.8426,-564 1155.7261,-584.2501 1135.1527,-577.177 1066.8426,-600 1056.0594,-603.6027 1044.781,-608.1076 1034.1157,-612.7348"/>
<polygon fill="#000000" stroke="#000000" points="1032.6487,-609.5566 1024.9289,-616.8129 1035.4889,-615.9545 1032.6487,-609.5566"/>
</g>
<!-- GO:0044767&#45;&gt;GO:0032502 -->
<g id="edge30" class="edge">
<title>GO:0044767&#45;&gt;GO:0032502</title>
<path fill="none" stroke="#000000" d="M1309.8544,-564.2584C1311.6651,-577.5539 1313.8042,-593.2608 1315.6373,-606.7212"/>
<polygon fill="#000000" stroke="#000000" points="1312.2123,-607.5094 1317.0297,-616.9456 1319.1482,-606.5648 1312.2123,-607.5094"/>
</g>
<!-- GO:0051225 -->
<g id="node25" class="node">
<title>GO:0051225</title>
<polygon fill="#ffffff" stroke="#000000" points="303.8826,-41.4019 191.8026,-41.4019 191.8026,-.1981 303.8826,-.1981 303.8826,-41.4019"/>
<text text-anchor="middle" x="247.8426" y="-25" font-family="Times,serif" font-size="14.00" fill="#000000">GO:0051225</text>
<text text-anchor="middle" x="247.8426" y="-8.2" font-family="Times,serif" font-size="14.00" fill="#000000">spindle assembly</text>
</g>
<!-- GO:0007051 -->
<g id="node26" class="node">
<title>GO:0007051</title>
<polygon fill="#ffffff" stroke="#000000" points="499.7592,-127.4019 369.926,-127.4019 369.926,-86.1981 499.7592,-86.1981 499.7592,-127.4019"/>
<text text-anchor="middle" x="434.8426" y="-111" font-family="Times,serif" font-size="14.00" fill="#000000">GO:0007051</text>
<text text-anchor="middle" x="434.8426" y="-94.2" font-family="Times,serif" font-size="14.00" fill="#000000">spindle organization</text>
</g>
<!-- GO:0051225&#45;&gt;GO:0007051 -->
<g id="edge32" class="edge">
<title>GO:0051225&#45;&gt;GO:0007051</title>
<path fill="none" stroke="#000000" d="M293.1101,-41.6182C319.5251,-53.7663 353.0128,-69.167 380.804,-81.948"/>
<polygon fill="#000000" stroke="#000000" points="379.4443,-85.1751 389.992,-86.1735 382.3691,-78.8154 379.4443,-85.1751"/>
</g>
<!-- GO:0070925 -->
<g id="node27" class="node">
<title>GO:0070925</title>
<polygon fill="#ffffff" stroke="#000000" points="123.5282,-341.4019 .157,-341.4019 .157,-300.1981 123.5282,-300.1981 123.5282,-341.4019"/>
<text text-anchor="middle" x="61.8426" y="-325" font-family="Times,serif" font-size="14.00" fill="#000000">GO:0070925</text>
<text text-anchor="middle" x="61.8426" y="-308.2" font-family="Times,serif" font-size="14.00" fill="#000000">organelle assembly</text>
</g>
<!-- GO:0051225&#45;&gt;GO:0070925 -->
<g id="edge33" class="edge">
<title>GO:0051225&#45;&gt;GO:0070925</title>
<path fill="none" stroke="#000000" d="M235.0581,-41.4202C202.7379,-93.5495 117.6708,-230.7546 80.1117,-291.3337"/>
<polygon fill="#000000" stroke="#000000" points="77.0114,-289.6921 74.7166,-300.0355 82.9607,-293.3808 77.0114,-289.6921"/>
</g>
<!-- GO:0022402 -->
<g id="node28" class="node">
<title>GO:0022402</title>
<polygon fill="#ffffff" stroke="#000000" points="492.0667,-230.2019 377.6185,-230.2019 377.6185,-188.9981 492.0667,-188.9981 492.0667,-230.2019"/>
<text text-anchor="middle" x="434.8426" y="-213.8" font-family="Times,serif" font-size="14.00" fill="#000000">GO:0022402</text>
<text text-anchor="middle" x="434.8426" y="-197" font-family="Times,serif" font-size="14.00" fill="#000000">cell cycle process</text>
</g>
<!-- GO:0007051&#45;&gt;GO:0022402 -->
<g id="edge34" class="edge">
<title>GO:0007051&#45;&gt;GO:0022402</title>
<path fill="none" stroke="#000000" d="M434.8426,-127.6031C434.8426,-142.2337 434.8426,-162.0642 434.8426,-178.5586"/>
<polygon fill="#000000" stroke="#000000" points="431.3427,-178.8278 434.8426,-188.8278 438.3427,-178.8279 431.3427,-178.8278"/>
</g>
<!-- GO:0000226 -->
<g id="node29" class="node">
<title>GO:0000226</title>
<polygon fill="#ffffff" stroke="#000000" points="667.755,-239.0014 509.9302,-239.0014 509.9302,-180.1986 667.755,-180.1986 667.755,-239.0014"/>
<text text-anchor="middle" x="588.8426" y="-222.2" font-family="Times,serif" font-size="14.00" fill="#000000">GO:0000226</text>
<text text-anchor="middle" x="588.8426" y="-205.4" font-family="Times,serif" font-size="14.00" fill="#000000">microtubule cytoskeleton</text>
<text text-anchor="middle" x="588.8426" y="-188.6" font-family="Times,serif" font-size="14.00" fill="#000000">organization</text>
</g>
<!-- GO:0007051&#45;&gt;GO:0000226 -->
<g id="edge35" class="edge">
<title>GO:0007051&#45;&gt;GO:0000226</title>
<path fill="none" stroke="#000000" d="M466.0068,-127.6031C486.2021,-141.0841 513.0112,-158.9801 536.4302,-174.613"/>
<polygon fill="#000000" stroke="#000000" points="534.6259,-177.6167 544.8863,-180.2577 538.5123,-171.7947 534.6259,-177.6167"/>
</g>
<!-- GO:0070925&#45;&gt;GO:0006996 -->
<g id="edge36" class="edge">
<title>GO:0070925&#45;&gt;GO:0006996</title>
<path fill="none" stroke="#000000" d="M97.6623,-341.5432C108.7241,-347.4622 121.0921,-353.6006 132.8426,-358.4 187.2991,-380.6422 250.9498,-399.3907 300.1321,-412.3983"/>
<polygon fill="#000000" stroke="#000000" points="299.5228,-415.8567 310.0833,-415.0042 301.2962,-409.085 299.5228,-415.8567"/>
</g>
<!-- GO:0070925&#45;&gt;GO:0022607 -->
<g id="edge37" class="edge">
<title>GO:0070925&#45;&gt;GO:0022607</title>
<path fill="none" stroke="#000000" d="M77.4455,-341.4553C88.6175,-356.2448 103.98,-376.5819 117.3156,-394.2357"/>
<polygon fill="#000000" stroke="#000000" points="114.8518,-396.7809 123.6722,-402.6506 120.4374,-392.5616 114.8518,-396.7809"/>
</g>
<!-- GO:0022402&#45;&gt;GO:0009987 -->
<g id="edge38" class="edge">
<title>GO:0022402&#45;&gt;GO:0009987</title>
<path fill="none" stroke="#000000" d="M443.5231,-230.5096C449.2388,-245.0546 456.451,-265.0217 460.8426,-283.2 490.4165,-405.6159 438.9261,-453.2287 498.8426,-564 508.8864,-582.5685 525.6138,-598.5836 541.5854,-610.8887"/>
<polygon fill="#000000" stroke="#000000" points="539.7064,-613.852 549.8292,-616.9792 543.8659,-608.2219 539.7064,-613.852"/>
</g>
<!-- GO:1902589 -->
<g id="node30" class="node">
<title>GO:1902589</title>
<polygon fill="#ffffff" stroke="#000000" points="669.6303,-350.2014 508.0549,-350.2014 508.0549,-291.3986 669.6303,-291.3986 669.6303,-350.2014"/>
<text text-anchor="middle" x="588.8426" y="-333.4" font-family="Times,serif" font-size="14.00" fill="#000000">GO:1902589</text>
<text text-anchor="middle" x="588.8426" y="-316.6" font-family="Times,serif" font-size="14.00" fill="#000000">single&#45;organism organelle</text>
<text text-anchor="middle" x="588.8426" y="-299.8" font-family="Times,serif" font-size="14.00" fill="#000000">organization</text>
</g>
<!-- GO:0000226&#45;&gt;GO:1902589 -->
<g id="edge39" class="edge">
<title>GO:0000226&#45;&gt;GO:1902589</title>
<path fill="none" stroke="#000000" d="M588.8426,-238.8165C588.8426,-251.7386 588.8426,-267.1358 588.8426,-281.0788"/>
<polygon fill="#000000" stroke="#000000" points="585.3427,-281.3925 588.8426,-291.3926 592.3427,-281.3926 585.3427,-281.3925"/>
</g>
<!-- GO:0007017 -->
<g id="node31" class="node">
<title>GO:0007017</title>
<polygon fill="#ffffff" stroke="#000000" points="853.5085,-341.4019 688.1767,-341.4019 688.1767,-300.1981 853.5085,-300.1981 853.5085,-341.4019"/>
<text text-anchor="middle" x="770.8426" y="-325" font-family="Times,serif" font-size="14.00" fill="#000000">GO:0007017</text>
<text text-anchor="middle" x="770.8426" y="-308.2" font-family="Times,serif" font-size="14.00" fill="#000000">microtubule&#45;based process</text>
</g>
<!-- GO:0000226&#45;&gt;GO:0007017 -->
<g id="edge40" class="edge">
<title>GO:0000226&#45;&gt;GO:0007017</title>
<path fill="none" stroke="#000000" d="M636.661,-238.8165C665.0762,-256.1779 700.8041,-278.0072 728.2473,-294.7748"/>
<polygon fill="#000000" stroke="#000000" points="726.4885,-297.8017 736.8466,-300.0288 730.1381,-291.8284 726.4885,-297.8017"/>
</g>
<!-- GO:0007010 -->
<g id="node32" class="node">
<title>GO:0007010</title>
<polygon fill="#ffffff" stroke="#000000" points="302.0792,-341.4019 141.606,-341.4019 141.606,-300.1981 302.0792,-300.1981 302.0792,-341.4019"/>
<text text-anchor="middle" x="221.8426" y="-325" font-family="Times,serif" font-size="14.00" fill="#000000">GO:0007010</text>
<text text-anchor="middle" x="221.8426" y="-308.2" font-family="Times,serif" font-size="14.00" fill="#000000">cytoskeleton organization</text>
</g>
<!-- GO:0000226&#45;&gt;GO:0007010 -->
<g id="edge41" class="edge">
<title>GO:0000226&#45;&gt;GO:0007010</title>
<path fill="none" stroke="#000000" d="M524.5562,-238.9442C516.6611,-241.9882 508.6305,-244.8291 500.8426,-247.2 418.6216,-272.2313 393.1144,-258.336 310.8426,-283.2 299.0511,-286.7636 286.7008,-291.3768 275.0827,-296.1442"/>
<polygon fill="#000000" stroke="#000000" points="273.3843,-293.0615 265.5239,-300.1654 276.0987,-299.5138 273.3843,-293.0615"/>
</g>
<!-- GO:1902589&#45;&gt;GO:0006996 -->
<g id="edge42" class="edge">
<title>GO:1902589&#45;&gt;GO:0006996</title>
<path fill="none" stroke="#000000" d="M534.193,-350.0165C501.4373,-367.5282 460.179,-389.5855 428.7104,-406.4091"/>
<polygon fill="#000000" stroke="#000000" points="426.8638,-403.4275 419.6952,-411.2288 430.1642,-409.6007 426.8638,-403.4275"/>
</g>
<!-- GO:0044763 -->
<g id="node33" class="node">
<title>GO:0044763</title>
<polygon fill="#ffffff" stroke="#000000" points="659.5211,-564.2014 508.1641,-564.2014 508.1641,-505.3986 659.5211,-505.3986 659.5211,-564.2014"/>
<text text-anchor="middle" x="583.8426" y="-547.4" font-family="Times,serif" font-size="14.00" fill="#000000">GO:0044763</text>
<text text-anchor="middle" x="583.8426" y="-530.6" font-family="Times,serif" font-size="14.00" fill="#000000">single&#45;organism cellular</text>
<text text-anchor="middle" x="583.8426" y="-513.8" font-family="Times,serif" font-size="14.00" fill="#000000">process</text>
</g>
<!-- GO:1902589&#45;&gt;GO:0044763 -->
<g id="edge43" class="edge">
<title>GO:1902589&#45;&gt;GO:0044763</title>
<path fill="none" stroke="#000000" d="M588.1579,-350.1071C587.2776,-387.7806 585.746,-453.3333 584.7641,-495.3582"/>
<polygon fill="#000000" stroke="#000000" points="581.2617,-495.4252 584.5271,-505.5043 588.2598,-495.5888 581.2617,-495.4252"/>
</g>
<!-- GO:0007017&#45;&gt;GO:0044763 -->
<g id="edge44" class="edge">
<title>GO:0007017&#45;&gt;GO:0044763</title>
<path fill="none" stroke="#000000" d="M716.4962,-341.5505C690.7306,-353.6759 661.2083,-371.2099 640.8426,-394.4 615.4207,-423.3474 600.4312,-465.121 592.2575,-495.5734"/>
<polygon fill="#000000" stroke="#000000" points="588.8232,-494.8769 589.7417,-505.4318 595.6058,-496.6078 588.8232,-494.8769"/>
</g>
<!-- GO:0007010&#45;&gt;GO:0006996 -->
<g id="edge45" class="edge">
<title>GO:0007010&#45;&gt;GO:0006996</title>
<path fill="none" stroke="#000000" d="M251.3766,-341.4553C277.1768,-359.4991 314.7838,-385.8004 342.8255,-405.412"/>
<polygon fill="#000000" stroke="#000000" points="340.9967,-408.4039 351.1974,-411.267 345.0085,-402.6676 340.9967,-408.4039"/>
</g>
<!-- GO:0044763&#45;&gt;GO:0009987 -->
<g id="edge46" class="edge">
<title>GO:0044763&#45;&gt;GO:0009987</title>
<path fill="none" stroke="#000000" d="M583.8426,-564.2584C583.8426,-577.5539 583.8426,-593.2608 583.8426,-606.7212"/>
<polygon fill="#000000" stroke="#000000" points="580.3427,-606.9456 583.8426,-616.9456 587.3427,-606.9457 580.3427,-606.9456"/>
</g>
<!-- GO:0044763&#45;&gt;GO:0044699 -->
<g id="edge47" class="edge">
<title>GO:0044763&#45;&gt;GO:0044699</title>
<path fill="none" stroke="#000000" d="M659.6454,-561.5756C662.7397,-562.435 665.8139,-563.2479 668.8426,-564 768.8332,-588.8315 799.0057,-570.9141 897.8426,-600 909.3316,-603.381 921.3033,-607.9619 932.5121,-612.7629"/>
<polygon fill="#000000" stroke="#000000" points="931.1588,-615.9913 941.7208,-616.8259 933.9846,-609.5869 931.1588,-615.9913"/>
</g>
</g>
</svg>
