<?xml version="1.0" encoding="UTF-8" standalone="no"?>
<!DOCTYPE svg PUBLIC "-//W3C//DTD SVG 1.1//EN"
 "http://www.w3.org/Graphics/SVG/1.1/DTD/svg11.dtd">
<!-- Generated by graphviz version 2.40.1 (20161225.0304)
 -->
<!-- Title: G Pages: 1 -->
<svg width="365pt" height="656pt"
 viewBox="0.00 0.00 365.08 656.00" xmlns="http://www.w3.org/2000/svg" xmlns:xlink="http://www.w3.org/1999/xlink">
<g id="graph0" class="graph" transform="scale(1 1) rotate(0) translate(4 652)">
<title>G</title>
<polygon fill="#ffffff" stroke="transparent" points="-4,4 -4,-652 361.0765,-652 361.0765,4 -4,4"/>
<!-- GO:0004500 -->
<g id="node1" class="node">
<title>GO:0004500</title>
<polygon fill="#ffffff" stroke="#000000" points="237.7066,-58.6014 84.764,-58.6014 84.764,.2014 237.7066,.2014 237.7066,-58.6014"/>
<text text-anchor="middle" x="161.2353" y="-41.8" font-family="Times,serif" font-size="14.00" fill="#000000">GO:0004500</text>
<text text-anchor="middle" x="161.2353" y="-25" font-family="Times,serif" font-size="14.00" fill="#000000">dopamine beta&#45;</text>
<text text-anchor="middle" x="161.2353" y="-8.2" font-family="Times,serif" font-size="14.00" fill="#000000">monooxygenase activity</text>
</g>
<!-- GO:0016715 -->
<g id="node2" class="node">
<title>GO:0016715</title>
<polygon fill="#ffffff" stroke="#000000" points="243.6085,-253.7001 78.8621,-253.7001 78.8621,-94.2999 243.6085,-94.2999 243.6085,-253.7001"/>
<text text-anchor="middle" x="161.2353" y="-237" font-family="Times,serif" font-size="14.00" fill="#000000">GO:0016715</text>
<text text-anchor="middle" x="161.2353" y="-220.2" font-family="Times,serif" font-size="14.00" fill="#000000">oxidoreductase activity,</text>
<text text-anchor="middle" x="161.2353" y="-203.4" font-family="Times,serif" font-size="14.00" fill="#000000">acting on paired donors,</text>
<text text-anchor="middle" x="161.2353" y="-186.6" font-family="Times,serif" font-size="14.00" fill="#000000">with incorporation or</text>
<text text-anchor="middle" x="161.2353" y="-169.8" font-family="Times,serif" font-size="14.00" fill="#000000">reduction of molecular</text>
<text text-anchor="middle" x="161.2353" y="-153" font-family="Times,serif" font-size="14.00" fill="#000000">oxygen, reduced ascorbate</text>
<text text-anchor="middle" x="161.2353" y="-136.2" font-family="Times,serif" font-size="14.00" fill="#000000">as one donor, and</text>
<text text-anchor="middle" x="161.2353" y="-119.4" font-family="Times,serif" font-size="14.00" fill="#000000">incorporation of one atom</text>
<text text-anchor="middle" x="161.2353" y="-102.6" font-family="Times,serif" font-size="14.00" fill="#000000">of oxygen</text>
</g>
<!-- GO:0004500&#45;&gt;GO:0016715 -->
<g id="edge1" class="edge">
<title>GO:0004500&#45;&gt;GO:0016715</title>
<path fill="none" stroke="#000000" d="M161.2353,-58.5024C161.2353,-66.2705 161.2353,-75.0792 161.2353,-84.2847"/>
<polygon fill="#000000" stroke="#000000" points="157.7354,-84.3988 161.2353,-94.3989 164.7354,-84.3989 157.7354,-84.3988"/>
</g>
<!-- GO:0004497 -->
<g id="node3" class="node">
<title>GO:0004497</title>
<polygon fill="#ffffff" stroke="#000000" points="152.7066,-364.6019 -.236,-364.6019 -.236,-323.3981 152.7066,-323.3981 152.7066,-364.6019"/>
<text text-anchor="middle" x="76.2353" y="-348.2" font-family="Times,serif" font-size="14.00" fill="#000000">GO:0004497</text>
<text text-anchor="middle" x="76.2353" y="-331.4" font-family="Times,serif" font-size="14.00" fill="#000000">monooxygenase activity</text>
</g>
<!-- GO:0016715&#45;&gt;GO:0004497 -->
<g id="edge2" class="edge">
<title>GO:0016715&#45;&gt;GO:0004497</title>
<path fill="none" stroke="#000000" d="M121.2243,-254.0221C110.5698,-275.3311 99.706,-297.0587 91.3236,-313.8235"/>
<polygon fill="#000000" stroke="#000000" points="88.0369,-312.5706 86.6952,-323.0801 94.2979,-315.7011 88.0369,-312.5706"/>
</g>
<!-- GO:0016705 -->
<g id="node4" class="node">
<title>GO:0016705</title>
<polygon fill="#ffffff" stroke="#000000" points="322.0316,-398.3002 170.439,-398.3002 170.439,-289.6998 322.0316,-289.6998 322.0316,-398.3002"/>
<text text-anchor="middle" x="246.2353" y="-381.8" font-family="Times,serif" font-size="14.00" fill="#000000">GO:0016705</text>
<text text-anchor="middle" x="246.2353" y="-365" font-family="Times,serif" font-size="14.00" fill="#000000">oxidoreductase activity,</text>
<text text-anchor="middle" x="246.2353" y="-348.2" font-family="Times,serif" font-size="14.00" fill="#000000">acting on paired donors,</text>
<text text-anchor="middle" x="246.2353" y="-331.4" font-family="Times,serif" font-size="14.00" fill="#000000">with incorporation or</text>
<text text-anchor="middle" x="246.2353" y="-314.6" font-family="Times,serif" font-size="14.00" fill="#000000">reduction of molecular</text>
<text text-anchor="middle" x="246.2353" y="-297.8" font-family="Times,serif" font-size="14.00" fill="#000000">oxygen</text>
</g>
<!-- GO:0016715&#45;&gt;GO:0016705 -->
<g id="edge3" class="edge">
<title>GO:0016715&#45;&gt;GO:0016705</title>
<path fill="none" stroke="#000000" d="M201.2463,-254.0221C205.6734,-262.8761 210.1365,-271.8025 214.4428,-280.4151"/>
<polygon fill="#000000" stroke="#000000" points="211.4422,-282.2402 219.0449,-289.6192 217.7032,-279.1097 211.4422,-282.2402"/>
</g>
<!-- GO:0016491 -->
<g id="node5" class="node">
<title>GO:0016491</title>
<polygon fill="#ffffff" stroke="#000000" points="234.4719,-475.8019 87.9987,-475.8019 87.9987,-434.5981 234.4719,-434.5981 234.4719,-475.8019"/>
<text text-anchor="middle" x="161.2353" y="-459.4" font-family="Times,serif" font-size="14.00" fill="#000000">GO:0016491</text>
<text text-anchor="middle" x="161.2353" y="-442.6" font-family="Times,serif" font-size="14.00" fill="#000000">oxidoreductase activity</text>
</g>
<!-- GO:0004497&#45;&gt;GO:0016491 -->
<g id="edge4" class="edge">
<title>GO:0004497&#45;&gt;GO:0016491</title>
<path fill="none" stroke="#000000" d="M92.0239,-364.6553C105.2396,-381.9444 124.2501,-406.8147 139.0047,-426.1172"/>
<polygon fill="#000000" stroke="#000000" points="136.3891,-428.4587 145.2428,-434.278 141.9505,-424.2077 136.3891,-428.4587"/>
</g>
<!-- GO:0016705&#45;&gt;GO:0016491 -->
<g id="edge5" class="edge">
<title>GO:0016705&#45;&gt;GO:0016491</title>
<path fill="none" stroke="#000000" d="M204.4823,-398.6227C197.177,-408.1798 189.8423,-417.7753 183.3418,-426.2795"/>
<polygon fill="#000000" stroke="#000000" points="180.4437,-424.3076 177.1515,-434.3779 186.0051,-428.5586 180.4437,-424.3076"/>
</g>
<!-- GO:0003824 -->
<g id="node6" class="node">
<title>GO:0003824</title>
<polygon fill="#ffffff" stroke="#000000" points="215.6477,-561.8019 106.8229,-561.8019 106.8229,-520.5981 215.6477,-520.5981 215.6477,-561.8019"/>
<text text-anchor="middle" x="161.2353" y="-545.4" font-family="Times,serif" font-size="14.00" fill="#000000">GO:0003824</text>
<text text-anchor="middle" x="161.2353" y="-528.6" font-family="Times,serif" font-size="14.00" fill="#000000">catalytic activity</text>
</g>
<!-- GO:0016491&#45;&gt;GO:0003824 -->
<g id="edge6" class="edge">
<title>GO:0016491&#45;&gt;GO:0003824</title>
<path fill="none" stroke="#000000" d="M161.2353,-476.0182C161.2353,-486.3705 161.2353,-499.0848 161.2353,-510.5271"/>
<polygon fill="#000000" stroke="#000000" points="157.7354,-510.5735 161.2353,-520.5735 164.7354,-510.5735 157.7354,-510.5735"/>
</g>
<!-- GO:0003674 -->
<g id="node7" class="node">
<title>GO:0003674</title>
<polygon fill="#ffffff" stroke="#000000" points="290.8684,-647.8019 165.6022,-647.8019 165.6022,-606.5981 290.8684,-606.5981 290.8684,-647.8019"/>
<text text-anchor="middle" x="228.2353" y="-631.4" font-family="Times,serif" font-size="14.00" fill="#000000">GO:0003674</text>
<text text-anchor="middle" x="228.2353" y="-614.6" font-family="Times,serif" font-size="14.00" fill="#000000">molecular_function</text>
</g>
<!-- GO:0003824&#45;&gt;GO:0003674 -->
<g id="edge7" class="edge">
<title>GO:0003824&#45;&gt;GO:0003674</title>
<path fill="none" stroke="#000000" d="M177.4541,-562.0182C186.0131,-573.0043 196.6445,-586.6506 205.9645,-598.6137"/>
<polygon fill="#000000" stroke="#000000" points="203.259,-600.8359 212.1658,-606.5735 208.781,-596.5339 203.259,-600.8359"/>
</g>
<!-- GO:0005198 -->
<g id="node8" class="node">
<title>GO:0005198</title>
<polygon fill="#ffffff" stroke="#000000" points="356.9181,-570.6014 233.5525,-570.6014 233.5525,-511.7986 356.9181,-511.7986 356.9181,-570.6014"/>
<text text-anchor="middle" x="295.2353" y="-553.8" font-family="Times,serif" font-size="14.00" fill="#000000">GO:0005198</text>
<text text-anchor="middle" x="295.2353" y="-537" font-family="Times,serif" font-size="14.00" fill="#000000">structural molecule</text>
<text text-anchor="middle" x="295.2353" y="-520.2" font-family="Times,serif" font-size="14.00" fill="#000000">activity</text>
</g>
<!-- GO:0005198&#45;&gt;GO:0003674 -->
<g id="edge8" class="edge">
<title>GO:0005198&#45;&gt;GO:0003674</title>
<path fill="none" stroke="#000000" d="M272.1777,-570.7963C265.1643,-579.7986 257.4723,-589.6719 250.5114,-598.6067"/>
<polygon fill="#000000" stroke="#000000" points="247.7495,-596.4569 244.3647,-606.4966 253.2715,-600.759 247.7495,-596.4569"/>
</g>
</g>
</svg>
