<?xml version="1.0" encoding="UTF-8" standalone="no"?>
<!DOCTYPE svg PUBLIC "-//W3C//DTD SVG 1.1//EN"
 "http://www.w3.org/Graphics/SVG/1.1/DTD/svg11.dtd">
<!-- Generated by graphviz version 2.40.1 (20161225.0304)
 -->
<!-- Title: G Pages: 1 -->
<svg width="392pt" height="394pt"
 viewBox="0.00 0.00 391.79 393.60" xmlns="http://www.w3.org/2000/svg" xmlns:xlink="http://www.w3.org/1999/xlink">
<g id="graph0" class="graph" transform="scale(1 1) rotate(0) translate(4 389.6)">
<title>G</title>
<polygon fill="#ffffff" stroke="transparent" points="-4,4 -4,-389.6 387.7925,-389.6 387.7925,4 -4,4"/>
<!-- GO:0044765 -->
<g id="node1" class="node">
<title>GO:0044765</title>
<polygon fill="#ffffff" stroke="#000000" points="315.9163,-49.8019 155.9877,-49.8019 155.9877,-8.5981 315.9163,-8.5981 315.9163,-49.8019"/>
<text text-anchor="middle" x="235.952" y="-33.4" font-family="Times,serif" font-size="14.00" fill="#000000">GO:0044765</text>
<text text-anchor="middle" x="235.952" y="-16.6" font-family="Times,serif" font-size="14.00" fill="#000000">single&#45;organism transport</text>
</g>
<!-- GO:0006810 -->
<g id="node2" class="node">
<title>GO:0006810</title>
<polygon fill="#ffffff" stroke="#000000" points="102.5559,-135.8019 13.3481,-135.8019 13.3481,-94.5981 102.5559,-94.5981 102.5559,-135.8019"/>
<text text-anchor="middle" x="57.952" y="-119.4" font-family="Times,serif" font-size="14.00" fill="#000000">GO:0006810</text>
<text text-anchor="middle" x="57.952" y="-102.6" font-family="Times,serif" font-size="14.00" fill="#000000">transport</text>
</g>
<!-- GO:0044765&#45;&gt;GO:0006810 -->
<g id="edge1" class="edge">
<title>GO:0044765&#45;&gt;GO:0006810</title>
<path fill="none" stroke="#000000" d="M192.8632,-50.0182C167.8288,-62.1135 136.1206,-77.4332 109.7352,-90.1812"/>
<polygon fill="#000000" stroke="#000000" points="108.1256,-87.0717 100.644,-94.5735 111.1708,-93.3746 108.1256,-87.0717"/>
</g>
<!-- GO:1902578 -->
<g id="node3" class="node">
<title>GO:1902578</title>
<polygon fill="#ffffff" stroke="#000000" points="353.1542,-230.6014 246.7498,-230.6014 246.7498,-171.7986 353.1542,-171.7986 353.1542,-230.6014"/>
<text text-anchor="middle" x="299.952" y="-213.8" font-family="Times,serif" font-size="14.00" fill="#000000">GO:1902578</text>
<text text-anchor="middle" x="299.952" y="-197" font-family="Times,serif" font-size="14.00" fill="#000000">single&#45;organism</text>
<text text-anchor="middle" x="299.952" y="-180.2" font-family="Times,serif" font-size="14.00" fill="#000000">localization</text>
</g>
<!-- GO:0044765&#45;&gt;GO:1902578 -->
<g id="edge2" class="edge">
<title>GO:0044765&#45;&gt;GO:1902578</title>
<path fill="none" stroke="#000000" d="M243.6719,-49.9472C254.0042,-77.7153 272.5292,-127.5011 285.4941,-162.3445"/>
<polygon fill="#000000" stroke="#000000" points="282.2244,-163.5936 288.9921,-171.7452 288.7849,-161.1524 282.2244,-163.5936"/>
</g>
<!-- GO:0051234 -->
<g id="node4" class="node">
<title>GO:0051234</title>
<polygon fill="#ffffff" stroke="#000000" points="109.0987,-230.6014 .8053,-230.6014 .8053,-171.7986 109.0987,-171.7986 109.0987,-230.6014"/>
<text text-anchor="middle" x="54.952" y="-213.8" font-family="Times,serif" font-size="14.00" fill="#000000">GO:0051234</text>
<text text-anchor="middle" x="54.952" y="-197" font-family="Times,serif" font-size="14.00" fill="#000000">establishment of</text>
<text text-anchor="middle" x="54.952" y="-180.2" font-family="Times,serif" font-size="14.00" fill="#000000">localization</text>
</g>
<!-- GO:0006810&#45;&gt;GO:0051234 -->
<g id="edge3" class="edge">
<title>GO:0006810&#45;&gt;GO:0051234</title>
<path fill="none" stroke="#000000" d="M57.2258,-136.0182C56.9566,-143.7358 56.6416,-152.7662 56.3333,-161.6036"/>
<polygon fill="#000000" stroke="#000000" points="52.8285,-161.6832 55.9776,-171.7991 59.8242,-161.9273 52.8285,-161.6832"/>
</g>
<!-- GO:0051179 -->
<g id="node5" class="node">
<title>GO:0051179</title>
<polygon fill="#ffffff" stroke="#000000" points="214.5559,-307.8019 125.3481,-307.8019 125.3481,-266.5981 214.5559,-266.5981 214.5559,-307.8019"/>
<text text-anchor="middle" x="169.952" y="-291.4" font-family="Times,serif" font-size="14.00" fill="#000000">GO:0051179</text>
<text text-anchor="middle" x="169.952" y="-274.6" font-family="Times,serif" font-size="14.00" fill="#000000">localization</text>
</g>
<!-- GO:1902578&#45;&gt;GO:0051179 -->
<g id="edge4" class="edge">
<title>GO:1902578&#45;&gt;GO:0051179</title>
<path fill="none" stroke="#000000" d="M255.577,-230.5558C240.8362,-240.3074 224.5165,-251.1035 210.1125,-260.6323"/>
<polygon fill="#000000" stroke="#000000" points="207.8318,-257.9445 201.4227,-266.3809 211.694,-263.7826 207.8318,-257.9445"/>
</g>
<!-- GO:0044699 -->
<g id="node6" class="node">
<title>GO:0044699</title>
<polygon fill="#ffffff" stroke="#000000" points="383.6333,-307.8019 232.2707,-307.8019 232.2707,-266.5981 383.6333,-266.5981 383.6333,-307.8019"/>
<text text-anchor="middle" x="307.952" y="-291.4" font-family="Times,serif" font-size="14.00" fill="#000000">GO:0044699</text>
<text text-anchor="middle" x="307.952" y="-274.6" font-family="Times,serif" font-size="14.00" fill="#000000">single&#45;organism process</text>
</g>
<!-- GO:1902578&#45;&gt;GO:0044699 -->
<g id="edge5" class="edge">
<title>GO:1902578&#45;&gt;GO:0044699</title>
<path fill="none" stroke="#000000" d="M302.7051,-230.7963C303.4742,-239.0638 304.3116,-248.0657 305.087,-256.4008"/>
<polygon fill="#000000" stroke="#000000" points="301.6148,-256.8638 306.0261,-266.4966 308.5847,-256.2153 301.6148,-256.8638"/>
</g>
<!-- GO:0051234&#45;&gt;GO:0051179 -->
<g id="edge6" class="edge">
<title>GO:0051234&#45;&gt;GO:0051179</title>
<path fill="none" stroke="#000000" d="M94.2068,-230.5558C107.1238,-240.2154 121.4111,-250.8999 134.0644,-260.3623"/>
<polygon fill="#000000" stroke="#000000" points="132.0081,-263.195 142.1126,-266.3809 136.2003,-257.5891 132.0081,-263.195"/>
</g>
<!-- GO:0008150 -->
<g id="node7" class="node">
<title>GO:0008150</title>
<polygon fill="#ffffff" stroke="#000000" points="299.4226,-385.4019 178.4814,-385.4019 178.4814,-344.1981 299.4226,-344.1981 299.4226,-385.4019"/>
<text text-anchor="middle" x="238.952" y="-369" font-family="Times,serif" font-size="14.00" fill="#000000">GO:0008150</text>
<text text-anchor="middle" x="238.952" y="-352.2" font-family="Times,serif" font-size="14.00" fill="#000000">biological_process</text>
</g>
<!-- GO:0051179&#45;&gt;GO:0008150 -->
<g id="edge7" class="edge">
<title>GO:0051179&#45;&gt;GO:0008150</title>
<path fill="none" stroke="#000000" d="M188.4427,-307.9954C196.1771,-316.6937 205.2907,-326.9433 213.6322,-336.3244"/>
<polygon fill="#000000" stroke="#000000" points="211.1498,-338.7999 220.4102,-343.9472 216.3809,-334.1485 211.1498,-338.7999"/>
</g>
<!-- GO:0044699&#45;&gt;GO:0008150 -->
<g id="edge8" class="edge">
<title>GO:0044699&#45;&gt;GO:0008150</title>
<path fill="none" stroke="#000000" d="M289.4613,-307.9954C281.7269,-316.6937 272.6133,-326.9433 264.2718,-336.3244"/>
<polygon fill="#000000" stroke="#000000" points="261.5231,-334.1485 257.4938,-343.9472 266.7542,-338.7999 261.5231,-334.1485"/>
</g>
<!-- GO:0071702 -->
<g id="node8" class="node">
<title>GO:0071702</title>
<polygon fill="#ffffff" stroke="#000000" points="115.856,-58.6014 .048,-58.6014 .048,.2014 115.856,.2014 115.856,-58.6014"/>
<text text-anchor="middle" x="57.952" y="-41.8" font-family="Times,serif" font-size="14.00" fill="#000000">GO:0071702</text>
<text text-anchor="middle" x="57.952" y="-25" font-family="Times,serif" font-size="14.00" fill="#000000">organic substance</text>
<text text-anchor="middle" x="57.952" y="-8.2" font-family="Times,serif" font-size="14.00" fill="#000000">transport</text>
</g>
<!-- GO:0071702&#45;&gt;GO:0006810 -->
<g id="edge9" class="edge">
<title>GO:0071702&#45;&gt;GO:0006810</title>
<path fill="none" stroke="#000000" d="M57.952,-58.7963C57.952,-67.0638 57.952,-76.0657 57.952,-84.4008"/>
<polygon fill="#000000" stroke="#000000" points="54.4521,-84.4965 57.952,-94.4966 61.4521,-84.4966 54.4521,-84.4965"/>
</g>
<!-- GO:0010876 -->
<g id="node9" class="node">
<title>GO:0010876</title>
<polygon fill="#ffffff" stroke="#000000" points="233.4363,-135.8019 122.4677,-135.8019 122.4677,-94.5981 233.4363,-94.5981 233.4363,-135.8019"/>
<text text-anchor="middle" x="177.952" y="-119.4" font-family="Times,serif" font-size="14.00" fill="#000000">GO:0010876</text>
<text text-anchor="middle" x="177.952" y="-102.6" font-family="Times,serif" font-size="14.00" fill="#000000">lipid localization</text>
</g>
<!-- GO:0033036 -->
<g id="node10" class="node">
<title>GO:0033036</title>
<polygon fill="#ffffff" stroke="#000000" points="229.2484,-230.6014 126.6556,-230.6014 126.6556,-171.7986 229.2484,-171.7986 229.2484,-230.6014"/>
<text text-anchor="middle" x="177.952" y="-213.8" font-family="Times,serif" font-size="14.00" fill="#000000">GO:0033036</text>
<text text-anchor="middle" x="177.952" y="-197" font-family="Times,serif" font-size="14.00" fill="#000000">macromolecule</text>
<text text-anchor="middle" x="177.952" y="-180.2" font-family="Times,serif" font-size="14.00" fill="#000000">localization</text>
</g>
<!-- GO:0010876&#45;&gt;GO:0033036 -->
<g id="edge10" class="edge">
<title>GO:0010876&#45;&gt;GO:0033036</title>
<path fill="none" stroke="#000000" d="M177.952,-136.0182C177.952,-143.7358 177.952,-152.7662 177.952,-161.6036"/>
<polygon fill="#000000" stroke="#000000" points="174.4521,-161.7991 177.952,-171.7991 181.4521,-161.7992 174.4521,-161.7991"/>
</g>
<!-- GO:0033036&#45;&gt;GO:0051179 -->
<g id="edge11" class="edge">
<title>GO:0033036&#45;&gt;GO:0051179</title>
<path fill="none" stroke="#000000" d="M175.1989,-230.7963C174.4298,-239.0638 173.5924,-248.0657 172.817,-256.4008"/>
<polygon fill="#000000" stroke="#000000" points="169.3193,-256.2153 171.8779,-266.4966 176.2892,-256.8638 169.3193,-256.2153"/>
</g>
</g>
</svg>
