<?xml version="1.0" encoding="UTF-8" standalone="no"?>
<!DOCTYPE svg PUBLIC "-//W3C//DTD SVG 1.1//EN"
 "http://www.w3.org/Graphics/SVG/1.1/DTD/svg11.dtd">
<!-- Generated by graphviz version 2.40.1 (20161225.0304)
 -->
<!-- Title: G Pages: 1 -->
<svg width="840pt" height="538pt"
 viewBox="0.00 0.00 839.54 538.40" xmlns="http://www.w3.org/2000/svg" xmlns:xlink="http://www.w3.org/1999/xlink">
<g id="graph0" class="graph" transform="scale(1 1) rotate(0) translate(4 534.4)">
<title>G</title>
<polygon fill="#ffffff" stroke="transparent" points="-4,4 -4,-534.4 835.5397,-534.4 835.5397,4 -4,4"/>
<!-- GO:0044238 -->
<g id="node1" class="node">
<title>GO:0044238</title>
<polygon fill="#ff00ff" stroke="#000000" points="441.7022,-349.8019 277.6962,-349.8019 277.6962,-308.5981 441.7022,-308.5981 441.7022,-349.8019"/>
<text text-anchor="middle" x="359.6992" y="-333.4" font-family="Times,serif" font-size="14.00" fill="#000000">GO:0044238</text>
<text text-anchor="middle" x="359.6992" y="-316.6" font-family="Times,serif" font-size="14.00" fill="#000000">primary metabolic process</text>
</g>
<!-- GO:0008152 -->
<g id="node2" class="node">
<title>GO:0008152</title>
<polygon fill="#ffa500" stroke="#000000" points="539.8848,-444.2019 423.5136,-444.2019 423.5136,-402.9981 539.8848,-402.9981 539.8848,-444.2019"/>
<text text-anchor="middle" x="481.6992" y="-427.8" font-family="Times,serif" font-size="14.00" fill="#000000">GO:0008152</text>
<text text-anchor="middle" x="481.6992" y="-411" font-family="Times,serif" font-size="14.00" fill="#000000">metabolic process</text>
</g>
<!-- GO:0044238&#45;&gt;GO:0008152 -->
<g id="edge1" class="edge">
<title>GO:0044238&#45;&gt;GO:0008152</title>
<path fill="none" stroke="#000000" d="M386.4726,-349.9165C404.2711,-363.6885 427.8176,-381.908 447.0428,-396.7839"/>
<polygon fill="#000000" stroke="#000000" points="444.9375,-399.5803 454.9882,-402.9318 449.2212,-394.0441 444.9375,-399.5803"/>
</g>
<!-- GO:0008150 -->
<g id="node3" class="node">
<title>GO:0008150</title>
<polygon fill="#ffffff" stroke="#000000" points="481.1698,-530.2019 360.2286,-530.2019 360.2286,-488.9981 481.1698,-488.9981 481.1698,-530.2019"/>
<text text-anchor="middle" x="420.6992" y="-513.8" font-family="Times,serif" font-size="14.00" fill="#000000">GO:0008150</text>
<text text-anchor="middle" x="420.6992" y="-497" font-family="Times,serif" font-size="14.00" fill="#000000">biological_process</text>
</g>
<!-- GO:0008152&#45;&gt;GO:0008150 -->
<g id="edge2" class="edge">
<title>GO:0008152&#45;&gt;GO:0008150</title>
<path fill="none" stroke="#000000" d="M466.9328,-444.4182C459.2153,-455.2987 449.647,-468.7884 441.2207,-480.6681"/>
<polygon fill="#000000" stroke="#000000" points="438.2603,-478.7921 435.3296,-488.9735 443.9699,-482.8419 438.2603,-478.7921"/>
</g>
<!-- GO:0000160 -->
<g id="node4" class="node">
<title>GO:0000160</title>
<polygon fill="#ff00ff" stroke="#000000" points="131.0651,-58.6014 2.3333,-58.6014 2.3333,.2014 131.0651,.2014 131.0651,-58.6014"/>
<text text-anchor="middle" x="66.6992" y="-41.8" font-family="Times,serif" font-size="14.00" fill="#000000">GO:0000160</text>
<text text-anchor="middle" x="66.6992" y="-25" font-family="Times,serif" font-size="14.00" fill="#000000">phosphorelay signal</text>
<text text-anchor="middle" x="66.6992" y="-8.2" font-family="Times,serif" font-size="14.00" fill="#000000">transduction system</text>
</g>
<!-- GO:0035556 -->
<g id="node5" class="node">
<title>GO:0035556</title>
<polygon fill="#ffffff" stroke="#000000" points="126.773,-161.4014 6.6254,-161.4014 6.6254,-102.5986 126.773,-102.5986 126.773,-161.4014"/>
<text text-anchor="middle" x="66.6992" y="-144.6" font-family="Times,serif" font-size="14.00" fill="#000000">GO:0035556</text>
<text text-anchor="middle" x="66.6992" y="-127.8" font-family="Times,serif" font-size="14.00" fill="#000000">intracellular signal</text>
<text text-anchor="middle" x="66.6992" y="-111" font-family="Times,serif" font-size="14.00" fill="#000000">transduction</text>
</g>
<!-- GO:0000160&#45;&gt;GO:0035556 -->
<g id="edge3" class="edge">
<title>GO:0000160&#45;&gt;GO:0035556</title>
<path fill="none" stroke="#000000" d="M66.6992,-58.6584C66.6992,-69.1969 66.6992,-81.2505 66.6992,-92.4994"/>
<polygon fill="#000000" stroke="#000000" points="63.1993,-92.5373 66.6992,-102.5373 70.1993,-92.5374 63.1993,-92.5373"/>
</g>
<!-- GO:0007165 -->
<g id="node6" class="node">
<title>GO:0007165</title>
<polygon fill="#ffffff" stroke="#000000" points="127.8459,-255.4019 5.5525,-255.4019 5.5525,-214.1981 127.8459,-214.1981 127.8459,-255.4019"/>
<text text-anchor="middle" x="66.6992" y="-239" font-family="Times,serif" font-size="14.00" fill="#000000">GO:0007165</text>
<text text-anchor="middle" x="66.6992" y="-222.2" font-family="Times,serif" font-size="14.00" fill="#000000">signal transduction</text>
</g>
<!-- GO:0035556&#45;&gt;GO:0007165 -->
<g id="edge4" class="edge">
<title>GO:0035556&#45;&gt;GO:0007165</title>
<path fill="none" stroke="#000000" d="M66.6992,-161.4584C66.6992,-174.7539 66.6992,-190.4608 66.6992,-203.9212"/>
<polygon fill="#000000" stroke="#000000" points="63.1993,-204.1456 66.6992,-214.1456 70.1993,-204.1457 63.1993,-204.1456"/>
</g>
<!-- GO:0050794 -->
<g id="node7" class="node">
<title>GO:0050794</title>
<polygon fill="#ff00ff" stroke="#000000" points="133.5982,-358.6014 -.1998,-358.6014 -.1998,-299.7986 133.5982,-299.7986 133.5982,-358.6014"/>
<text text-anchor="middle" x="66.6992" y="-341.8" font-family="Times,serif" font-size="14.00" fill="#000000">GO:0050794</text>
<text text-anchor="middle" x="66.6992" y="-325" font-family="Times,serif" font-size="14.00" fill="#000000">regulation of cellular</text>
<text text-anchor="middle" x="66.6992" y="-308.2" font-family="Times,serif" font-size="14.00" fill="#000000">process</text>
</g>
<!-- GO:0007165&#45;&gt;GO:0050794 -->
<g id="edge5" class="edge">
<title>GO:0007165&#45;&gt;GO:0050794</title>
<path fill="none" stroke="#000000" d="M66.6992,-255.7504C66.6992,-265.7492 66.6992,-278.0525 66.6992,-289.7106"/>
<polygon fill="#000000" stroke="#000000" points="63.1993,-289.7155 66.6992,-299.7155 70.1993,-289.7156 63.1993,-289.7155"/>
</g>
<!-- GO:0065007 -->
<g id="node8" class="node">
<title>GO:0065007</title>
<polygon fill="#00ffff" stroke="#000000" points="132.9526,-444.2019 .4458,-444.2019 .4458,-402.9981 132.9526,-402.9981 132.9526,-444.2019"/>
<text text-anchor="middle" x="66.6992" y="-427.8" font-family="Times,serif" font-size="14.00" fill="#000000">GO:0065007</text>
<text text-anchor="middle" x="66.6992" y="-411" font-family="Times,serif" font-size="14.00" fill="#000000">biological regulation</text>
</g>
<!-- GO:0050794&#45;&gt;GO:0065007 -->
<g id="edge6" class="edge">
<title>GO:0050794&#45;&gt;GO:0065007</title>
<path fill="none" stroke="#000000" d="M66.6992,-358.5513C66.6992,-369.4614 66.6992,-381.8637 66.6992,-392.892"/>
<polygon fill="#000000" stroke="#000000" points="63.1993,-392.9509 66.6992,-402.951 70.1993,-392.951 63.1993,-392.9509"/>
</g>
<!-- GO:0050789 -->
<g id="node9" class="node">
<title>GO:0050789</title>
<polygon fill="#00ffff" stroke="#000000" points="298.6136,-453.0014 150.7848,-453.0014 150.7848,-394.1986 298.6136,-394.1986 298.6136,-453.0014"/>
<text text-anchor="middle" x="224.6992" y="-436.2" font-family="Times,serif" font-size="14.00" fill="#000000">GO:0050789</text>
<text text-anchor="middle" x="224.6992" y="-419.4" font-family="Times,serif" font-size="14.00" fill="#000000">regulation of biological</text>
<text text-anchor="middle" x="224.6992" y="-402.6" font-family="Times,serif" font-size="14.00" fill="#000000">process</text>
</g>
<!-- GO:0050794&#45;&gt;GO:0050789 -->
<g id="edge7" class="edge">
<title>GO:0050794&#45;&gt;GO:0050789</title>
<path fill="none" stroke="#000000" d="M115.8253,-358.5513C132.025,-368.2301 150.1903,-379.0833 166.9717,-389.1097"/>
<polygon fill="#000000" stroke="#000000" points="165.2238,-392.1424 175.6035,-394.2669 168.8141,-386.1333 165.2238,-392.1424"/>
</g>
<!-- GO:0065007&#45;&gt;GO:0008150 -->
<g id="edge8" class="edge">
<title>GO:0065007&#45;&gt;GO:0008150</title>
<path fill="none" stroke="#000000" d="M116.3139,-444.2799C124.7035,-447.3823 133.3881,-450.3555 141.6992,-452.8 211.4879,-473.3266 293.2385,-489.0237 350.1356,-498.6606"/>
<polygon fill="#000000" stroke="#000000" points="349.6666,-502.1307 360.1074,-500.3306 350.8229,-495.2269 349.6666,-502.1307"/>
</g>
<!-- GO:0050789&#45;&gt;GO:0008150 -->
<g id="edge9" class="edge">
<title>GO:0050789&#45;&gt;GO:0008150</title>
<path fill="none" stroke="#000000" d="M291.3294,-452.8357C315.1289,-463.2783 341.6879,-474.9318 364.5193,-484.9496"/>
<polygon fill="#000000" stroke="#000000" points="363.1634,-488.1768 373.727,-488.9898 365.976,-481.7667 363.1634,-488.1768"/>
</g>
<!-- GO:0006810 -->
<g id="node10" class="node">
<title>GO:0006810</title>
<polygon fill="#ff00ff" stroke="#000000" points="250.3031,-255.4019 161.0953,-255.4019 161.0953,-214.1981 250.3031,-214.1981 250.3031,-255.4019"/>
<text text-anchor="middle" x="205.6992" y="-239" font-family="Times,serif" font-size="14.00" fill="#000000">GO:0006810</text>
<text text-anchor="middle" x="205.6992" y="-222.2" font-family="Times,serif" font-size="14.00" fill="#000000">transport</text>
</g>
<!-- GO:0051234 -->
<g id="node11" class="node">
<title>GO:0051234</title>
<polygon fill="#ffffff" stroke="#000000" points="259.8459,-358.6014 151.5525,-358.6014 151.5525,-299.7986 259.8459,-299.7986 259.8459,-358.6014"/>
<text text-anchor="middle" x="205.6992" y="-341.8" font-family="Times,serif" font-size="14.00" fill="#000000">GO:0051234</text>
<text text-anchor="middle" x="205.6992" y="-325" font-family="Times,serif" font-size="14.00" fill="#000000">establishment of</text>
<text text-anchor="middle" x="205.6992" y="-308.2" font-family="Times,serif" font-size="14.00" fill="#000000">localization</text>
</g>
<!-- GO:0006810&#45;&gt;GO:0051234 -->
<g id="edge10" class="edge">
<title>GO:0006810&#45;&gt;GO:0051234</title>
<path fill="none" stroke="#000000" d="M205.6992,-255.7504C205.6992,-265.7492 205.6992,-278.0525 205.6992,-289.7106"/>
<polygon fill="#000000" stroke="#000000" points="202.1993,-289.7155 205.6992,-299.7155 209.1993,-289.7156 202.1993,-289.7155"/>
</g>
<!-- GO:0051179 -->
<g id="node12" class="node">
<title>GO:0051179</title>
<polygon fill="#ffffff" stroke="#000000" points="405.3031,-444.2019 316.0953,-444.2019 316.0953,-402.9981 405.3031,-402.9981 405.3031,-444.2019"/>
<text text-anchor="middle" x="360.6992" y="-427.8" font-family="Times,serif" font-size="14.00" fill="#000000">GO:0051179</text>
<text text-anchor="middle" x="360.6992" y="-411" font-family="Times,serif" font-size="14.00" fill="#000000">localization</text>
</g>
<!-- GO:0051234&#45;&gt;GO:0051179 -->
<g id="edge11" class="edge">
<title>GO:0051234&#45;&gt;GO:0051179</title>
<path fill="none" stroke="#000000" d="M253.8925,-358.5513C274.4843,-371.0923 298.3132,-385.6049 318.2318,-397.736"/>
<polygon fill="#000000" stroke="#000000" points="316.4333,-400.7386 326.7946,-402.951 320.0744,-394.7601 316.4333,-400.7386"/>
</g>
<!-- GO:0051179&#45;&gt;GO:0008150 -->
<g id="edge12" class="edge">
<title>GO:0051179&#45;&gt;GO:0008150</title>
<path fill="none" stroke="#000000" d="M375.2235,-444.4182C382.8145,-455.2987 392.226,-468.7884 400.5142,-480.6681"/>
<polygon fill="#000000" stroke="#000000" points="397.7163,-482.7749 406.3086,-488.9735 403.4572,-478.7696 397.7163,-482.7749"/>
</g>
<!-- GO:0009987 -->
<g id="node13" class="node">
<title>GO:0009987</title>
<polygon fill="#00ffff" stroke="#000000" points="661.6554,-444.2019 557.743,-444.2019 557.743,-402.9981 661.6554,-402.9981 661.6554,-444.2019"/>
<text text-anchor="middle" x="609.6992" y="-427.8" font-family="Times,serif" font-size="14.00" fill="#000000">GO:0009987</text>
<text text-anchor="middle" x="609.6992" y="-411" font-family="Times,serif" font-size="14.00" fill="#000000">cellular process</text>
</g>
<!-- GO:0009987&#45;&gt;GO:0008150 -->
<g id="edge13" class="edge">
<title>GO:0009987&#45;&gt;GO:0008150</title>
<path fill="none" stroke="#000000" d="M566.7816,-444.3349C560.7235,-447.2061 554.5634,-450.096 548.6992,-452.8 525.5174,-463.4892 499.8188,-474.9653 477.5676,-484.7845"/>
<polygon fill="#000000" stroke="#000000" points="476.0007,-481.6502 468.2599,-488.8842 478.8224,-488.0563 476.0007,-481.6502"/>
</g>
<!-- GO:0044237 -->
<g id="node14" class="node">
<title>GO:0044237</title>
<polygon fill="#ff00ff" stroke="#000000" points="711.882,-358.6014 595.5164,-358.6014 595.5164,-299.7986 711.882,-299.7986 711.882,-358.6014"/>
<text text-anchor="middle" x="653.6992" y="-341.8" font-family="Times,serif" font-size="14.00" fill="#000000">GO:0044237</text>
<text text-anchor="middle" x="653.6992" y="-325" font-family="Times,serif" font-size="14.00" fill="#000000">cellular metabolic</text>
<text text-anchor="middle" x="653.6992" y="-308.2" font-family="Times,serif" font-size="14.00" fill="#000000">process</text>
</g>
<!-- GO:0044237&#45;&gt;GO:0008152 -->
<g id="edge15" class="edge">
<title>GO:0044237&#45;&gt;GO:0008152</title>
<path fill="none" stroke="#000000" d="M600.2202,-358.5513C577.165,-371.2048 550.4529,-385.8654 528.2306,-398.0618"/>
<polygon fill="#000000" stroke="#000000" points="526.4049,-395.0713 519.3224,-402.951 529.7729,-401.2078 526.4049,-395.0713"/>
</g>
<!-- GO:0044237&#45;&gt;GO:0009987 -->
<g id="edge14" class="edge">
<title>GO:0044237&#45;&gt;GO:0009987</title>
<path fill="none" stroke="#000000" d="M640.0185,-358.5513C634.8284,-369.6864 628.9139,-382.3758 623.6951,-393.5724"/>
<polygon fill="#000000" stroke="#000000" points="620.3761,-392.4085 619.3237,-402.951 626.7208,-395.3658 620.3761,-392.4085"/>
</g>
<!-- GO:0071704 -->
<g id="node15" class="node">
<title>GO:0071704</title>
<polygon fill="#ff00ff" stroke="#000000" points="576.8848,-358.6014 460.5136,-358.6014 460.5136,-299.7986 576.8848,-299.7986 576.8848,-358.6014"/>
<text text-anchor="middle" x="518.6992" y="-341.8" font-family="Times,serif" font-size="14.00" fill="#000000">GO:0071704</text>
<text text-anchor="middle" x="518.6992" y="-325" font-family="Times,serif" font-size="14.00" fill="#000000">organic substance</text>
<text text-anchor="middle" x="518.6992" y="-308.2" font-family="Times,serif" font-size="14.00" fill="#000000">metabolic process</text>
</g>
<!-- GO:0071704&#45;&gt;GO:0008152 -->
<g id="edge16" class="edge">
<title>GO:0071704&#45;&gt;GO:0008152</title>
<path fill="none" stroke="#000000" d="M507.195,-358.5513C502.8306,-369.6864 497.857,-382.3758 493.4685,-393.5724"/>
<polygon fill="#000000" stroke="#000000" points="490.1832,-392.3633 489.7926,-402.951 496.7005,-394.9178 490.1832,-392.3633"/>
</g>
<!-- GO:0006796 -->
<g id="node16" class="node">
<title>GO:0006796</title>
<polygon fill="#ff00ff" stroke="#000000" points="737.726,-169.7003 601.6724,-169.7003 601.6724,-94.2997 737.726,-94.2997 737.726,-169.7003"/>
<text text-anchor="middle" x="669.6992" y="-153" font-family="Times,serif" font-size="14.00" fill="#000000">GO:0006796</text>
<text text-anchor="middle" x="669.6992" y="-136.2" font-family="Times,serif" font-size="14.00" fill="#000000">phosphate&#45;containing</text>
<text text-anchor="middle" x="669.6992" y="-119.4" font-family="Times,serif" font-size="14.00" fill="#000000">compound metabolic</text>
<text text-anchor="middle" x="669.6992" y="-102.6" font-family="Times,serif" font-size="14.00" fill="#000000">process</text>
</g>
<!-- GO:0006793 -->
<g id="node17" class="node">
<title>GO:0006793</title>
<polygon fill="#ff00ff" stroke="#000000" points="739.4554,-264.2014 599.943,-264.2014 599.943,-205.3986 739.4554,-205.3986 739.4554,-264.2014"/>
<text text-anchor="middle" x="669.6992" y="-247.4" font-family="Times,serif" font-size="14.00" fill="#000000">GO:0006793</text>
<text text-anchor="middle" x="669.6992" y="-230.6" font-family="Times,serif" font-size="14.00" fill="#000000">phosphorus metabolic</text>
<text text-anchor="middle" x="669.6992" y="-213.8" font-family="Times,serif" font-size="14.00" fill="#000000">process</text>
</g>
<!-- GO:0006796&#45;&gt;GO:0006793 -->
<g id="edge17" class="edge">
<title>GO:0006796&#45;&gt;GO:0006793</title>
<path fill="none" stroke="#000000" d="M669.6992,-169.6952C669.6992,-178.0874 669.6992,-187.0054 669.6992,-195.4618"/>
<polygon fill="#000000" stroke="#000000" points="666.1993,-195.4813 669.6992,-205.4814 673.1993,-195.4814 666.1993,-195.4813"/>
</g>
<!-- GO:0006793&#45;&gt;GO:0044237 -->
<g id="edge18" class="edge">
<title>GO:0006793&#45;&gt;GO:0044237</title>
<path fill="none" stroke="#000000" d="M664.7244,-264.1513C663.3398,-272.3206 661.8134,-281.3264 660.3491,-289.9657"/>
<polygon fill="#000000" stroke="#000000" points="656.8913,-289.4226 658.6709,-299.8669 663.7929,-290.5924 656.8913,-289.4226"/>
</g>
<!-- GO:0043170 -->
<g id="node18" class="node">
<title>GO:0043170</title>
<polygon fill="#ff00ff" stroke="#000000" points="582.2014,-264.2014 421.197,-264.2014 421.197,-205.3986 582.2014,-205.3986 582.2014,-264.2014"/>
<text text-anchor="middle" x="501.6992" y="-247.4" font-family="Times,serif" font-size="14.00" fill="#000000">GO:0043170</text>
<text text-anchor="middle" x="501.6992" y="-230.6" font-family="Times,serif" font-size="14.00" fill="#000000">macromolecule metabolic</text>
<text text-anchor="middle" x="501.6992" y="-213.8" font-family="Times,serif" font-size="14.00" fill="#000000">process</text>
</g>
<!-- GO:0043170&#45;&gt;GO:0071704 -->
<g id="edge19" class="edge">
<title>GO:0043170&#45;&gt;GO:0071704</title>
<path fill="none" stroke="#000000" d="M506.9849,-264.1513C508.4561,-272.3206 510.0779,-281.3264 511.6337,-289.9657"/>
<polygon fill="#000000" stroke="#000000" points="508.1997,-290.6455 513.4167,-299.8669 515.0889,-289.4048 508.1997,-290.6455"/>
</g>
<!-- GO:0044699 -->
<g id="node19" class="node">
<title>GO:0044699</title>
<polygon fill="#ff00ff" stroke="#000000" points="831.3805,-444.2019 680.0179,-444.2019 680.0179,-402.9981 831.3805,-402.9981 831.3805,-444.2019"/>
<text text-anchor="middle" x="755.6992" y="-427.8" font-family="Times,serif" font-size="14.00" fill="#000000">GO:0044699</text>
<text text-anchor="middle" x="755.6992" y="-411" font-family="Times,serif" font-size="14.00" fill="#000000">single&#45;organism process</text>
</g>
<!-- GO:0044699&#45;&gt;GO:0008150 -->
<g id="edge20" class="edge">
<title>GO:0044699&#45;&gt;GO:0008150</title>
<path fill="none" stroke="#000000" d="M698.3534,-444.2351C689.157,-447.2735 679.704,-450.2384 670.6992,-452.8 610.6978,-469.8689 541.4611,-485.2731 491.0864,-495.7191"/>
<polygon fill="#000000" stroke="#000000" points="490.3593,-492.2953 481.2712,-497.7413 491.7718,-499.1514 490.3593,-492.2953"/>
</g>
</g>
</svg>
