<?xml version="1.0" encoding="UTF-8" standalone="no"?>
<!DOCTYPE svg PUBLIC "-//W3C//DTD SVG 1.1//EN"
 "http://www.w3.org/Graphics/SVG/1.1/DTD/svg11.dtd">
<!-- Generated by graphviz version 2.40.1 (20161225.0304)
 -->
<!-- Title: G Pages: 1 -->
<svg width="852pt" height="566pt"
 viewBox="0.00 0.00 852.17 565.60" xmlns="http://www.w3.org/2000/svg" xmlns:xlink="http://www.w3.org/1999/xlink">
<g id="graph0" class="graph" transform="scale(1 1) rotate(0) translate(4 561.6)">
<title>G</title>
<polygon fill="#ffffff" stroke="transparent" points="-4,4 -4,-561.6 848.1659,-561.6 848.1659,4 -4,4"/>
<!-- GO:1905202 -->
<g id="node1" class="node">
<title>GO:1905202</title>
<polygon fill="#ffffff" stroke="#000000" points="139.4703,-230.6014 .1763,-230.6014 .1763,-171.7986 139.4703,-171.7986 139.4703,-230.6014"/>
<text text-anchor="middle" x="69.8233" y="-213.8" font-family="Times,serif" font-size="14.00" fill="#000000">GO:1905202</text>
<text text-anchor="middle" x="69.8233" y="-197" font-family="Times,serif" font-size="14.00" fill="#000000">methylcrotonoyl&#45;CoA</text>
<text text-anchor="middle" x="69.8233" y="-180.2" font-family="Times,serif" font-size="14.00" fill="#000000">carboxylase complex</text>
</g>
<!-- GO:1902494 -->
<g id="node2" class="node">
<title>GO:1902494</title>
<polygon fill="#ffffff" stroke="#000000" points="128.4546,-316.2019 13.192,-316.2019 13.192,-274.9981 128.4546,-274.9981 128.4546,-316.2019"/>
<text text-anchor="middle" x="70.8233" y="-299.8" font-family="Times,serif" font-size="14.00" fill="#000000">GO:1902494</text>
<text text-anchor="middle" x="70.8233" y="-283" font-family="Times,serif" font-size="14.00" fill="#000000">catalytic complex</text>
</g>
<!-- GO:1905202&#45;&gt;GO:1902494 -->
<g id="edge1" class="edge">
<title>GO:1905202&#45;&gt;GO:1902494</title>
<path fill="none" stroke="#000000" d="M70.1342,-230.5513C70.2498,-241.4614 70.3812,-253.8637 70.498,-264.892"/>
<polygon fill="#000000" stroke="#000000" points="66.9987,-264.9887 70.6046,-274.951 73.9983,-264.9144 66.9987,-264.9887"/>
</g>
<!-- GO:0043234 -->
<g id="node3" class="node">
<title>GO:0043234</title>
<polygon fill="#ffffff" stroke="#000000" points="176.6907,-402.2019 68.9559,-402.2019 68.9559,-360.9981 176.6907,-360.9981 176.6907,-402.2019"/>
<text text-anchor="middle" x="122.8233" y="-385.8" font-family="Times,serif" font-size="14.00" fill="#000000">GO:0043234</text>
<text text-anchor="middle" x="122.8233" y="-369" font-family="Times,serif" font-size="14.00" fill="#000000">protein complex</text>
</g>
<!-- GO:1902494&#45;&gt;GO:0043234 -->
<g id="edge2" class="edge">
<title>GO:1902494&#45;&gt;GO:0043234</title>
<path fill="none" stroke="#000000" d="M83.411,-316.4182C89.9261,-327.193 97.9883,-340.5267 105.1201,-352.3216"/>
<polygon fill="#000000" stroke="#000000" points="102.1822,-354.2272 110.3515,-360.9735 108.1723,-350.6052 102.1822,-354.2272"/>
</g>
<!-- GO:0032991 -->
<g id="node4" class="node">
<title>GO:0032991</title>
<polygon fill="#ffffff" stroke="#000000" points="249.9906,-479.8019 91.656,-479.8019 91.656,-438.5981 249.9906,-438.5981 249.9906,-479.8019"/>
<text text-anchor="middle" x="170.8233" y="-463.4" font-family="Times,serif" font-size="14.00" fill="#000000">GO:0032991</text>
<text text-anchor="middle" x="170.8233" y="-446.6" font-family="Times,serif" font-size="14.00" fill="#000000">macromolecular complex</text>
</g>
<!-- GO:0043234&#45;&gt;GO:0032991 -->
<g id="edge3" class="edge">
<title>GO:0043234&#45;&gt;GO:0032991</title>
<path fill="none" stroke="#000000" d="M135.6864,-402.3954C140.8516,-410.7458 146.9011,-420.5258 152.5107,-429.5947"/>
<polygon fill="#000000" stroke="#000000" points="149.6875,-431.6839 157.9247,-438.3472 155.6407,-428.0015 149.6875,-431.6839"/>
</g>
<!-- GO:0005575 -->
<g id="node5" class="node">
<title>GO:0005575</title>
<polygon fill="#ffffff" stroke="#000000" points="408.51,-557.4019 281.1366,-557.4019 281.1366,-516.1981 408.51,-516.1981 408.51,-557.4019"/>
<text text-anchor="middle" x="344.8233" y="-541" font-family="Times,serif" font-size="14.00" fill="#000000">GO:0005575</text>
<text text-anchor="middle" x="344.8233" y="-524.2" font-family="Times,serif" font-size="14.00" fill="#000000">cellular_component</text>
</g>
<!-- GO:0032991&#45;&gt;GO:0005575 -->
<g id="edge4" class="edge">
<title>GO:0032991&#45;&gt;GO:0005575</title>
<path fill="none" stroke="#000000" d="M217.4521,-479.9954C239.4826,-489.8205 265.9508,-501.6247 289.038,-511.921"/>
<polygon fill="#000000" stroke="#000000" points="287.8092,-515.2053 298.3677,-516.0819 290.6604,-508.8122 287.8092,-515.2053"/>
</g>
<!-- GO:0005741 -->
<g id="node6" class="node">
<title>GO:0005741</title>
<polygon fill="#ffffff" stroke="#000000" points="513.132,-58.6014 386.5146,-58.6014 386.5146,.2014 513.132,.2014 513.132,-58.6014"/>
<text text-anchor="middle" x="449.8233" y="-41.8" font-family="Times,serif" font-size="14.00" fill="#000000">GO:0005741</text>
<text text-anchor="middle" x="449.8233" y="-25" font-family="Times,serif" font-size="14.00" fill="#000000">mitochondrial outer</text>
<text text-anchor="middle" x="449.8233" y="-8.2" font-family="Times,serif" font-size="14.00" fill="#000000">membrane</text>
</g>
<!-- GO:0031968 -->
<g id="node7" class="node">
<title>GO:0031968</title>
<polygon fill="#ffffff" stroke="#000000" points="442.2603,-135.8019 279.3863,-135.8019 279.3863,-94.5981 442.2603,-94.5981 442.2603,-135.8019"/>
<text text-anchor="middle" x="360.8233" y="-119.4" font-family="Times,serif" font-size="14.00" fill="#000000">GO:0031968</text>
<text text-anchor="middle" x="360.8233" y="-102.6" font-family="Times,serif" font-size="14.00" fill="#000000">organelle outer membrane</text>
</g>
<!-- GO:0005741&#45;&gt;GO:0031968 -->
<g id="edge5" class="edge">
<title>GO:0005741&#45;&gt;GO:0031968</title>
<path fill="none" stroke="#000000" d="M419.1945,-58.7963C409.593,-68.0742 399.0341,-78.2772 389.5676,-87.4246"/>
<polygon fill="#000000" stroke="#000000" points="387.0081,-85.0308 382.249,-94.4966 391.8723,-90.0646 387.0081,-85.0308"/>
</g>
<!-- GO:0031966 -->
<g id="node8" class="node">
<title>GO:0031966</title>
<polygon fill="#ffffff" stroke="#000000" points="617.4518,-135.8019 460.1948,-135.8019 460.1948,-94.5981 617.4518,-94.5981 617.4518,-135.8019"/>
<text text-anchor="middle" x="538.8233" y="-119.4" font-family="Times,serif" font-size="14.00" fill="#000000">GO:0031966</text>
<text text-anchor="middle" x="538.8233" y="-102.6" font-family="Times,serif" font-size="14.00" fill="#000000">mitochondrial membrane</text>
</g>
<!-- GO:0005741&#45;&gt;GO:0031966 -->
<g id="edge6" class="edge">
<title>GO:0005741&#45;&gt;GO:0031966</title>
<path fill="none" stroke="#000000" d="M480.4521,-58.7963C490.0536,-68.0742 500.6125,-78.2772 510.079,-87.4246"/>
<polygon fill="#000000" stroke="#000000" points="507.7743,-90.0646 517.3976,-94.4966 512.6385,-85.0308 507.7743,-90.0646"/>
</g>
<!-- GO:0044424 -->
<g id="node9" class="node">
<title>GO:0044424</title>
<polygon fill="#ffffff" stroke="#000000" points="681.2217,-402.2019 572.4249,-402.2019 572.4249,-360.9981 681.2217,-360.9981 681.2217,-402.2019"/>
<text text-anchor="middle" x="626.8233" y="-385.8" font-family="Times,serif" font-size="14.00" fill="#000000">GO:0044424</text>
<text text-anchor="middle" x="626.8233" y="-369" font-family="Times,serif" font-size="14.00" fill="#000000">intracellular part</text>
</g>
<!-- GO:0031968&#45;&gt;GO:0044424 -->
<g id="edge7" class="edge">
<title>GO:0031968&#45;&gt;GO:0044424</title>
<path fill="none" stroke="#000000" d="M442.6603,-134.5265C445.4099,-135.0439 448.1366,-135.5371 450.8233,-136 520.0381,-147.9266 718.0737,-119.5843 764.8233,-172 777.2147,-185.8932 774.439,-305.1567 760.8233,-324.8 756.2379,-331.4153 723.0191,-345.5172 690.807,-358.014"/>
<polygon fill="#000000" stroke="#000000" points="689.4038,-354.8037 681.3258,-361.6591 691.9157,-361.3375 689.4038,-354.8037"/>
</g>
<!-- GO:0098588 -->
<g id="node10" class="node">
<title>GO:0098588</title>
<polygon fill="#ffffff" stroke="#000000" points="472.9605,-230.6014 326.6861,-230.6014 326.6861,-171.7986 472.9605,-171.7986 472.9605,-230.6014"/>
<text text-anchor="middle" x="399.8233" y="-213.8" font-family="Times,serif" font-size="14.00" fill="#000000">GO:0098588</text>
<text text-anchor="middle" x="399.8233" y="-197" font-family="Times,serif" font-size="14.00" fill="#000000">bounding membrane of</text>
<text text-anchor="middle" x="399.8233" y="-180.2" font-family="Times,serif" font-size="14.00" fill="#000000">organelle</text>
</g>
<!-- GO:0031968&#45;&gt;GO:0098588 -->
<g id="edge8" class="edge">
<title>GO:0031968&#45;&gt;GO:0098588</title>
<path fill="none" stroke="#000000" d="M370.2641,-136.0182C373.8781,-143.9875 378.1268,-153.3565 382.2586,-162.4675"/>
<polygon fill="#000000" stroke="#000000" points="379.1727,-164.1374 386.4904,-171.7991 385.5478,-161.2463 379.1727,-164.1374"/>
</g>
<!-- GO:0019867 -->
<g id="node11" class="node">
<title>GO:0019867</title>
<polygon fill="#ffffff" stroke="#000000" points="258.6753,-316.2019 150.9713,-316.2019 150.9713,-274.9981 258.6753,-274.9981 258.6753,-316.2019"/>
<text text-anchor="middle" x="204.8233" y="-299.8" font-family="Times,serif" font-size="14.00" fill="#000000">GO:0019867</text>
<text text-anchor="middle" x="204.8233" y="-283" font-family="Times,serif" font-size="14.00" fill="#000000">outer membrane</text>
</g>
<!-- GO:0031968&#45;&gt;GO:0019867 -->
<g id="edge9" class="edge">
<title>GO:0031968&#45;&gt;GO:0019867</title>
<path fill="none" stroke="#000000" d="M278.9744,-132.2113C239.5781,-142.2283 198.3928,-156.053 186.8233,-172 167.2031,-199.0438 177.7209,-238.3075 189.2057,-265.2851"/>
<polygon fill="#000000" stroke="#000000" points="186.1183,-266.9523 193.4267,-274.6229 192.4969,-264.0689 186.1183,-266.9523"/>
</g>
<!-- GO:0098805 -->
<g id="node12" class="node">
<title>GO:0098805</title>
<polygon fill="#ffffff" stroke="#000000" points="308.1209,-221.8019 195.5257,-221.8019 195.5257,-180.5981 308.1209,-180.5981 308.1209,-221.8019"/>
<text text-anchor="middle" x="251.8233" y="-205.4" font-family="Times,serif" font-size="14.00" fill="#000000">GO:0098805</text>
<text text-anchor="middle" x="251.8233" y="-188.6" font-family="Times,serif" font-size="14.00" fill="#000000">whole membrane</text>
</g>
<!-- GO:0031968&#45;&gt;GO:0098805 -->
<g id="edge10" class="edge">
<title>GO:0031968&#45;&gt;GO:0098805</title>
<path fill="none" stroke="#000000" d="M334.4374,-136.0182C319.8438,-147.5325 301.5465,-161.9688 285.8833,-174.3269"/>
<polygon fill="#000000" stroke="#000000" points="283.6489,-171.6316 277.9662,-180.5735 287.9848,-177.1271 283.6489,-171.6316"/>
</g>
<!-- GO:0044429 -->
<g id="node13" class="node">
<title>GO:0044429</title>
<polygon fill="#ffffff" stroke="#000000" points="648.6321,-221.8019 529.0145,-221.8019 529.0145,-180.5981 648.6321,-180.5981 648.6321,-221.8019"/>
<text text-anchor="middle" x="588.8233" y="-205.4" font-family="Times,serif" font-size="14.00" fill="#000000">GO:0044429</text>
<text text-anchor="middle" x="588.8233" y="-188.6" font-family="Times,serif" font-size="14.00" fill="#000000">mitochondrial part</text>
</g>
<!-- GO:0031966&#45;&gt;GO:0044429 -->
<g id="edge11" class="edge">
<title>GO:0031966&#45;&gt;GO:0044429</title>
<path fill="none" stroke="#000000" d="M550.9269,-136.0182C557.1913,-146.793 564.9435,-160.1267 571.801,-171.9216"/>
<polygon fill="#000000" stroke="#000000" points="568.7791,-173.6876 576.8312,-180.5735 574.8307,-170.1692 568.7791,-173.6876"/>
</g>
<!-- GO:0031090 -->
<g id="node14" class="node">
<title>GO:0031090</title>
<polygon fill="#ffffff" stroke="#000000" points="464.9949,-316.2019 334.6517,-316.2019 334.6517,-274.9981 464.9949,-274.9981 464.9949,-316.2019"/>
<text text-anchor="middle" x="399.8233" y="-299.8" font-family="Times,serif" font-size="14.00" fill="#000000">GO:0031090</text>
<text text-anchor="middle" x="399.8233" y="-283" font-family="Times,serif" font-size="14.00" fill="#000000">organelle membrane</text>
</g>
<!-- GO:0031966&#45;&gt;GO:0031090 -->
<g id="edge12" class="edge">
<title>GO:0031966&#45;&gt;GO:0031090</title>
<path fill="none" stroke="#000000" d="M531.7567,-135.9054C522.7665,-160.2525 505.5139,-201.0592 481.8233,-230.4 470.1707,-244.8317 454.7887,-258.1124 440.4979,-268.8687"/>
<polygon fill="#000000" stroke="#000000" points="438.2544,-266.1733 432.2463,-274.8999 442.385,-271.8247 438.2544,-266.1733"/>
</g>
<!-- GO:0044464 -->
<g id="node15" class="node">
<title>GO:0044464</title>
<polygon fill="#ffffff" stroke="#000000" points="671.4272,-479.8019 582.2194,-479.8019 582.2194,-438.5981 671.4272,-438.5981 671.4272,-479.8019"/>
<text text-anchor="middle" x="626.8233" y="-463.4" font-family="Times,serif" font-size="14.00" fill="#000000">GO:0044464</text>
<text text-anchor="middle" x="626.8233" y="-446.6" font-family="Times,serif" font-size="14.00" fill="#000000">cell part</text>
</g>
<!-- GO:0044424&#45;&gt;GO:0044464 -->
<g id="edge13" class="edge">
<title>GO:0044424&#45;&gt;GO:0044464</title>
<path fill="none" stroke="#000000" d="M626.8233,-402.3954C626.8233,-410.3109 626.8233,-419.5109 626.8233,-428.1722"/>
<polygon fill="#000000" stroke="#000000" points="623.3234,-428.3472 626.8233,-438.3472 630.3234,-428.3473 623.3234,-428.3472"/>
</g>
<!-- GO:0098588&#45;&gt;GO:0031090 -->
<g id="edge14" class="edge">
<title>GO:0098588&#45;&gt;GO:0031090</title>
<path fill="none" stroke="#000000" d="M399.8233,-230.5513C399.8233,-241.4614 399.8233,-253.8637 399.8233,-264.892"/>
<polygon fill="#000000" stroke="#000000" points="396.3234,-264.9509 399.8233,-274.951 403.3234,-264.951 396.3234,-264.9509"/>
</g>
<!-- GO:0016020 -->
<g id="node16" class="node">
<title>GO:0016020</title>
<polygon fill="#ffffff" stroke="#000000" points="334.4272,-402.2019 245.2194,-402.2019 245.2194,-360.9981 334.4272,-360.9981 334.4272,-402.2019"/>
<text text-anchor="middle" x="289.8233" y="-385.8" font-family="Times,serif" font-size="14.00" fill="#000000">GO:0016020</text>
<text text-anchor="middle" x="289.8233" y="-369" font-family="Times,serif" font-size="14.00" fill="#000000">membrane</text>
</g>
<!-- GO:0019867&#45;&gt;GO:0016020 -->
<g id="edge15" class="edge">
<title>GO:0019867&#45;&gt;GO:0016020</title>
<path fill="none" stroke="#000000" d="M225.3994,-316.4182C236.4666,-327.6156 250.2651,-341.5764 262.2496,-353.7019"/>
<polygon fill="#000000" stroke="#000000" points="259.9177,-356.3216 269.4367,-360.9735 264.8963,-351.4008 259.9177,-356.3216"/>
</g>
<!-- GO:0098805&#45;&gt;GO:0016020 -->
<g id="edge16" class="edge">
<title>GO:0098805&#45;&gt;GO:0016020</title>
<path fill="none" stroke="#000000" d="M257.2157,-221.984C260.4573,-234.7587 264.5707,-251.482 267.8233,-266.4 274.0297,-294.8656 280.1711,-327.4994 284.3812,-350.7492"/>
<polygon fill="#000000" stroke="#000000" points="280.9598,-351.4991 286.173,-360.7226 287.8495,-350.2612 280.9598,-351.4991"/>
</g>
<!-- GO:0044446 -->
<g id="node17" class="node">
<title>GO:0044446</title>
<polygon fill="#ffffff" stroke="#000000" points="625.5417,-325.0014 486.1049,-325.0014 486.1049,-266.1986 625.5417,-266.1986 625.5417,-325.0014"/>
<text text-anchor="middle" x="555.8233" y="-308.2" font-family="Times,serif" font-size="14.00" fill="#000000">GO:0044446</text>
<text text-anchor="middle" x="555.8233" y="-291.4" font-family="Times,serif" font-size="14.00" fill="#000000">intracellular organelle</text>
<text text-anchor="middle" x="555.8233" y="-274.6" font-family="Times,serif" font-size="14.00" fill="#000000">part</text>
</g>
<!-- GO:0044429&#45;&gt;GO:0044446 -->
<g id="edge17" class="edge">
<title>GO:0044429&#45;&gt;GO:0044446</title>
<path fill="none" stroke="#000000" d="M581.4995,-222.1504C577.9689,-232.2502 573.6163,-244.7012 569.5044,-256.4637"/>
<polygon fill="#000000" stroke="#000000" points="566.1264,-255.5207 566.1304,-266.1155 572.7343,-257.8307 566.1264,-255.5207"/>
</g>
<!-- GO:0044444 -->
<g id="node18" class="node">
<title>GO:0044444</title>
<polygon fill="#ffffff" stroke="#000000" points="752.2399,-316.2019 643.4067,-316.2019 643.4067,-274.9981 752.2399,-274.9981 752.2399,-316.2019"/>
<text text-anchor="middle" x="697.8233" y="-299.8" font-family="Times,serif" font-size="14.00" fill="#000000">GO:0044444</text>
<text text-anchor="middle" x="697.8233" y="-283" font-family="Times,serif" font-size="14.00" fill="#000000">cytoplasmic part</text>
</g>
<!-- GO:0044429&#45;&gt;GO:0044444 -->
<g id="edge18" class="edge">
<title>GO:0044429&#45;&gt;GO:0044444</title>
<path fill="none" stroke="#000000" d="M612.7438,-221.9165C628.5038,-235.5655 649.3079,-253.583 666.3988,-268.3846"/>
<polygon fill="#000000" stroke="#000000" points="664.108,-271.0309 673.9586,-274.9318 668.6907,-265.7394 664.108,-271.0309"/>
</g>
<!-- GO:0031090&#45;&gt;GO:0016020 -->
<g id="edge19" class="edge">
<title>GO:0031090&#45;&gt;GO:0016020</title>
<path fill="none" stroke="#000000" d="M373.1954,-316.4182C358.4678,-327.9325 340.0027,-342.3688 324.1958,-354.7269"/>
<polygon fill="#000000" stroke="#000000" points="321.9284,-352.0569 316.206,-360.9735 326.2398,-357.5716 321.9284,-352.0569"/>
</g>
<!-- GO:0044422 -->
<g id="node19" class="node">
<title>GO:0044422</title>
<polygon fill="#ffffff" stroke="#000000" points="446.6754,-402.2019 352.9712,-402.2019 352.9712,-360.9981 446.6754,-360.9981 446.6754,-402.2019"/>
<text text-anchor="middle" x="399.8233" y="-385.8" font-family="Times,serif" font-size="14.00" fill="#000000">GO:0044422</text>
<text text-anchor="middle" x="399.8233" y="-369" font-family="Times,serif" font-size="14.00" fill="#000000">organelle part</text>
</g>
<!-- GO:0031090&#45;&gt;GO:0044422 -->
<g id="edge20" class="edge">
<title>GO:0031090&#45;&gt;GO:0044422</title>
<path fill="none" stroke="#000000" d="M399.8233,-316.4182C399.8233,-326.7705 399.8233,-339.4848 399.8233,-350.9271"/>
<polygon fill="#000000" stroke="#000000" points="396.3234,-350.9735 399.8233,-360.9735 403.3234,-350.9735 396.3234,-350.9735"/>
</g>
<!-- GO:0044464&#45;&gt;GO:0005575 -->
<g id="edge21" class="edge">
<title>GO:0044464&#45;&gt;GO:0005575</title>
<path fill="none" stroke="#000000" d="M582.1396,-471.496C538.1501,-483.6009 470.2023,-502.2985 418.2671,-516.5899"/>
<polygon fill="#000000" stroke="#000000" points="417.1488,-513.2675 408.4358,-519.2953 419.006,-520.0166 417.1488,-513.2675"/>
</g>
<!-- GO:0016020&#45;&gt;GO:0005575 -->
<g id="edge22" class="edge">
<title>GO:0016020&#45;&gt;GO:0005575</title>
<path fill="none" stroke="#000000" d="M297.1269,-402.2094C306.578,-428.8787 323.1222,-475.5633 334.0262,-506.3326"/>
<polygon fill="#000000" stroke="#000000" points="330.8502,-507.8489 337.4895,-516.1054 337.4482,-505.5106 330.8502,-507.8489"/>
</g>
<!-- GO:0044446&#45;&gt;GO:0044424 -->
<g id="edge23" class="edge">
<title>GO:0044446&#45;&gt;GO:0044424</title>
<path fill="none" stroke="#000000" d="M580.2575,-325.1963C587.6896,-334.1986 595.8408,-344.0719 603.2172,-353.0067"/>
<polygon fill="#000000" stroke="#000000" points="600.6653,-355.4133 609.7309,-360.8966 606.0634,-350.9567 600.6653,-355.4133"/>
</g>
<!-- GO:0044446&#45;&gt;GO:0044422 -->
<g id="edge24" class="edge">
<title>GO:0044446&#45;&gt;GO:0044422</title>
<path fill="none" stroke="#000000" d="M502.5733,-324.9558C484.3837,-334.9834 464.1907,-346.1154 446.5539,-355.8383"/>
<polygon fill="#000000" stroke="#000000" points="444.6558,-352.888 437.5881,-360.7809 448.0353,-359.0182 444.6558,-352.888"/>
</g>
<!-- GO:0044444&#45;&gt;GO:0044424 -->
<g id="edge25" class="edge">
<title>GO:0044444&#45;&gt;GO:0044424</title>
<path fill="none" stroke="#000000" d="M680.6362,-316.4182C671.5663,-327.4043 660.3002,-341.0506 650.4237,-353.0137"/>
<polygon fill="#000000" stroke="#000000" points="647.5196,-351.0337 643.8521,-360.9735 652.9177,-355.4902 647.5196,-351.0337"/>
</g>
<!-- GO:0044422&#45;&gt;GO:0005575 -->
<g id="edge26" class="edge">
<title>GO:0044422&#45;&gt;GO:0005575</title>
<path fill="none" stroke="#000000" d="M392.5197,-402.2094C383.0686,-428.8787 366.5244,-475.5633 355.6204,-506.3326"/>
<polygon fill="#000000" stroke="#000000" points="352.1984,-505.5106 352.1571,-516.1054 358.7964,-507.8489 352.1984,-505.5106"/>
</g>
<!-- GO:0012505 -->
<g id="node20" class="node">
<title>GO:0012505</title>
<polygon fill="#ffffff" stroke="#000000" points="844.0088,-402.2019 699.6378,-402.2019 699.6378,-360.9981 844.0088,-360.9981 844.0088,-402.2019"/>
<text text-anchor="middle" x="771.8233" y="-385.8" font-family="Times,serif" font-size="14.00" fill="#000000">GO:0012505</text>
<text text-anchor="middle" x="771.8233" y="-369" font-family="Times,serif" font-size="14.00" fill="#000000">endomembrane system</text>
</g>
<!-- GO:0012505&#45;&gt;GO:0044464 -->
<g id="edge27" class="edge">
<title>GO:0012505&#45;&gt;GO:0044464</title>
<path fill="none" stroke="#000000" d="M732.966,-402.3954C715.0152,-412.0021 693.5289,-423.501 674.5978,-433.6324"/>
<polygon fill="#000000" stroke="#000000" points="672.7016,-430.6775 665.5363,-438.4819 676.0046,-436.8492 672.7016,-430.6775"/>
</g>
<!-- GO:0005829 -->
<g id="node21" class="node">
<title>GO:0005829</title>
<polygon fill="#ffffff" stroke="#000000" points="755.4272,-221.8019 666.2194,-221.8019 666.2194,-180.5981 755.4272,-180.5981 755.4272,-221.8019"/>
<text text-anchor="middle" x="710.8233" y="-205.4" font-family="Times,serif" font-size="14.00" fill="#000000">GO:0005829</text>
<text text-anchor="middle" x="710.8233" y="-188.6" font-family="Times,serif" font-size="14.00" fill="#000000">cytosol</text>
</g>
<!-- GO:0005829&#45;&gt;GO:0044444 -->
<g id="edge28" class="edge">
<title>GO:0005829&#45;&gt;GO:0044444</title>
<path fill="none" stroke="#000000" d="M707.9382,-222.1504C706.2215,-234.6165 704.0115,-250.6645 702.0953,-264.5786"/>
<polygon fill="#000000" stroke="#000000" points="698.5974,-264.3241 700.7004,-274.7081 705.532,-265.2792 698.5974,-264.3241"/>
</g>
</g>
</svg>
