<?xml version="1.0" encoding="UTF-8" standalone="no"?>
<!DOCTYPE svg PUBLIC "-//W3C//DTD SVG 1.1//EN"
 "http://www.w3.org/Graphics/SVG/1.1/DTD/svg11.dtd">
<!-- Generated by graphviz version 2.40.1 (20161225.0304)
 -->
<!-- Title: G Pages: 1 -->
<svg width="288pt" height="522pt"
 viewBox="0.00 0.00 288.08 521.60" xmlns="http://www.w3.org/2000/svg" xmlns:xlink="http://www.w3.org/1999/xlink">
<g id="graph0" class="graph" transform="scale(1 1) rotate(0) translate(4 517.6)">
<title>G</title>
<polygon fill="#ffffff" stroke="transparent" points="-4,4 -4,-517.6 284.0849,-517.6 284.0849,4 -4,4"/>
<!-- GO:0046914 -->
<g id="node1" class="node">
<title>GO:0046914</title>
<polygon fill="#ffffff" stroke="#000000" points="124.8108,-58.6014 .063,-58.6014 .063,.2014 124.8108,.2014 124.8108,-58.6014"/>
<text text-anchor="middle" x="62.4369" y="-41.8" font-family="Times,serif" font-size="14.00" fill="#000000">GO:0046914</text>
<text text-anchor="middle" x="62.4369" y="-25" font-family="Times,serif" font-size="14.00" fill="#000000">transition metal ion</text>
<text text-anchor="middle" x="62.4369" y="-8.2" font-family="Times,serif" font-size="14.00" fill="#000000">binding</text>
</g>
<!-- GO:0046872 -->
<g id="node2" class="node">
<title>GO:0046872</title>
<polygon fill="#ffffff" stroke="#000000" points="119.7099,-135.8019 5.1639,-135.8019 5.1639,-94.5981 119.7099,-94.5981 119.7099,-135.8019"/>
<text text-anchor="middle" x="62.4369" y="-119.4" font-family="Times,serif" font-size="14.00" fill="#000000">GO:0046872</text>
<text text-anchor="middle" x="62.4369" y="-102.6" font-family="Times,serif" font-size="14.00" fill="#000000">metal ion binding</text>
</g>
<!-- GO:0046914&#45;&gt;GO:0046872 -->
<g id="edge1" class="edge">
<title>GO:0046914&#45;&gt;GO:0046872</title>
<path fill="none" stroke="#000000" d="M62.4369,-58.7963C62.4369,-67.0638 62.4369,-76.0657 62.4369,-84.4008"/>
<polygon fill="#000000" stroke="#000000" points="58.937,-84.4965 62.4369,-94.4966 65.937,-84.4966 58.937,-84.4965"/>
</g>
<!-- GO:0043169 -->
<g id="node3" class="node">
<title>GO:0043169</title>
<polygon fill="#ffffff" stroke="#000000" points="110.9298,-247.0019 13.944,-247.0019 13.944,-205.7981 110.9298,-205.7981 110.9298,-247.0019"/>
<text text-anchor="middle" x="62.4369" y="-230.6" font-family="Times,serif" font-size="14.00" fill="#000000">GO:0043169</text>
<text text-anchor="middle" x="62.4369" y="-213.8" font-family="Times,serif" font-size="14.00" fill="#000000">cation binding</text>
</g>
<!-- GO:0046872&#45;&gt;GO:0043169 -->
<g id="edge2" class="edge">
<title>GO:0046872&#45;&gt;GO:0043169</title>
<path fill="none" stroke="#000000" d="M62.4369,-135.8553C62.4369,-152.5242 62.4369,-176.2401 62.4369,-195.2189"/>
<polygon fill="#000000" stroke="#000000" points="58.937,-195.478 62.4369,-205.478 65.937,-195.478 58.937,-195.478"/>
</g>
<!-- GO:0043167 -->
<g id="node4" class="node">
<title>GO:0043167</title>
<polygon fill="#ffffff" stroke="#000000" points="110.0408,-358.2019 20.833,-358.2019 20.833,-316.9981 110.0408,-316.9981 110.0408,-358.2019"/>
<text text-anchor="middle" x="65.4369" y="-341.8" font-family="Times,serif" font-size="14.00" fill="#000000">GO:0043167</text>
<text text-anchor="middle" x="65.4369" y="-325" font-family="Times,serif" font-size="14.00" fill="#000000">ion binding</text>
</g>
<!-- GO:0043169&#45;&gt;GO:0043167 -->
<g id="edge3" class="edge">
<title>GO:0043169&#45;&gt;GO:0043167</title>
<path fill="none" stroke="#000000" d="M62.9941,-247.0553C63.4438,-263.7242 64.0837,-287.4401 64.5957,-306.4189"/>
<polygon fill="#000000" stroke="#000000" points="61.1039,-306.7761 64.8725,-316.678 68.1014,-306.5872 61.1039,-306.7761"/>
</g>
<!-- GO:0005488 -->
<g id="node5" class="node">
<title>GO:0005488</title>
<polygon fill="#ffffff" stroke="#000000" points="119.0408,-435.8019 29.833,-435.8019 29.833,-394.5981 119.0408,-394.5981 119.0408,-435.8019"/>
<text text-anchor="middle" x="74.4369" y="-419.4" font-family="Times,serif" font-size="14.00" fill="#000000">GO:0005488</text>
<text text-anchor="middle" x="74.4369" y="-402.6" font-family="Times,serif" font-size="14.00" fill="#000000">binding</text>
</g>
<!-- GO:0043167&#45;&gt;GO:0005488 -->
<g id="edge4" class="edge">
<title>GO:0043167&#45;&gt;GO:0005488</title>
<path fill="none" stroke="#000000" d="M67.8487,-358.3954C68.7668,-366.3109 69.8338,-375.5109 70.8383,-384.1722"/>
<polygon fill="#000000" stroke="#000000" points="67.3896,-384.8171 72.0184,-394.3472 74.3429,-384.0106 67.3896,-384.8171"/>
</g>
<!-- GO:0003674 -->
<g id="node6" class="node">
<title>GO:0003674</title>
<polygon fill="#ffffff" stroke="#000000" points="195.07,-513.4019 69.8038,-513.4019 69.8038,-472.1981 195.07,-472.1981 195.07,-513.4019"/>
<text text-anchor="middle" x="132.4369" y="-497" font-family="Times,serif" font-size="14.00" fill="#000000">GO:0003674</text>
<text text-anchor="middle" x="132.4369" y="-480.2" font-family="Times,serif" font-size="14.00" fill="#000000">molecular_function</text>
</g>
<!-- GO:0005488&#45;&gt;GO:0003674 -->
<g id="edge5" class="edge">
<title>GO:0005488&#45;&gt;GO:0003674</title>
<path fill="none" stroke="#000000" d="M89.9798,-435.9954C96.3511,-444.5197 103.836,-454.5339 110.7321,-463.7605"/>
<polygon fill="#000000" stroke="#000000" points="108.0608,-466.0327 116.8511,-471.9472 113.6677,-461.8419 108.0608,-466.0327"/>
</g>
<!-- GO:0016705 -->
<g id="node7" class="node">
<title>GO:0016705</title>
<polygon fill="#ffffff" stroke="#000000" points="280.2332,-280.7002 128.6406,-280.7002 128.6406,-172.0998 280.2332,-172.0998 280.2332,-280.7002"/>
<text text-anchor="middle" x="204.4369" y="-264.2" font-family="Times,serif" font-size="14.00" fill="#000000">GO:0016705</text>
<text text-anchor="middle" x="204.4369" y="-247.4" font-family="Times,serif" font-size="14.00" fill="#000000">oxidoreductase activity,</text>
<text text-anchor="middle" x="204.4369" y="-230.6" font-family="Times,serif" font-size="14.00" fill="#000000">acting on paired donors,</text>
<text text-anchor="middle" x="204.4369" y="-213.8" font-family="Times,serif" font-size="14.00" fill="#000000">with incorporation or</text>
<text text-anchor="middle" x="204.4369" y="-197" font-family="Times,serif" font-size="14.00" fill="#000000">reduction of molecular</text>
<text text-anchor="middle" x="204.4369" y="-180.2" font-family="Times,serif" font-size="14.00" fill="#000000">oxygen</text>
</g>
<!-- GO:0016491 -->
<g id="node8" class="node">
<title>GO:0016491</title>
<polygon fill="#ffffff" stroke="#000000" points="275.6735,-358.2019 129.2003,-358.2019 129.2003,-316.9981 275.6735,-316.9981 275.6735,-358.2019"/>
<text text-anchor="middle" x="202.4369" y="-341.8" font-family="Times,serif" font-size="14.00" fill="#000000">GO:0016491</text>
<text text-anchor="middle" x="202.4369" y="-325" font-family="Times,serif" font-size="14.00" fill="#000000">oxidoreductase activity</text>
</g>
<!-- GO:0016705&#45;&gt;GO:0016491 -->
<g id="edge6" class="edge">
<title>GO:0016705&#45;&gt;GO:0016491</title>
<path fill="none" stroke="#000000" d="M203.4545,-281.0227C203.2969,-289.7833 203.1388,-298.5763 202.9957,-306.5313"/>
<polygon fill="#000000" stroke="#000000" points="199.4919,-306.7166 202.8114,-316.7779 206.4908,-306.8425 199.4919,-306.7166"/>
</g>
<!-- GO:0003824 -->
<g id="node9" class="node">
<title>GO:0003824</title>
<polygon fill="#ffffff" stroke="#000000" points="250.8493,-435.8019 142.0245,-435.8019 142.0245,-394.5981 250.8493,-394.5981 250.8493,-435.8019"/>
<text text-anchor="middle" x="196.4369" y="-419.4" font-family="Times,serif" font-size="14.00" fill="#000000">GO:0003824</text>
<text text-anchor="middle" x="196.4369" y="-402.6" font-family="Times,serif" font-size="14.00" fill="#000000">catalytic activity</text>
</g>
<!-- GO:0016491&#45;&gt;GO:0003824 -->
<g id="edge7" class="edge">
<title>GO:0016491&#45;&gt;GO:0003824</title>
<path fill="none" stroke="#000000" d="M200.829,-358.3954C200.217,-366.3109 199.5056,-375.5109 198.836,-384.1722"/>
<polygon fill="#000000" stroke="#000000" points="195.3306,-384.1071 198.0492,-394.3472 202.3098,-384.6468 195.3306,-384.1071"/>
</g>
<!-- GO:0003824&#45;&gt;GO:0003674 -->
<g id="edge8" class="edge">
<title>GO:0003824&#45;&gt;GO:0003674</title>
<path fill="none" stroke="#000000" d="M179.2861,-435.9954C172.1839,-444.6067 163.8279,-454.7384 156.1542,-464.0427"/>
<polygon fill="#000000" stroke="#000000" points="153.2976,-462.0056 149.6351,-471.9472 158.6979,-466.4594 153.2976,-462.0056"/>
</g>
</g>
</svg>
