<?xml version="1.0" encoding="UTF-8" standalone="no"?>
<!DOCTYPE svg PUBLIC "-//W3C//DTD SVG 1.1//EN"
 "http://www.w3.org/Graphics/SVG/1.1/DTD/svg11.dtd">
<!-- Generated by graphviz version 2.40.1 (20161225.0304)
 -->
<!-- Title: G Pages: 1 -->
<svg width="735pt" height="505pt"
 viewBox="0.00 0.00 735.45 504.80" xmlns="http://www.w3.org/2000/svg" xmlns:xlink="http://www.w3.org/1999/xlink">
<g id="graph0" class="graph" transform="scale(1 1) rotate(0) translate(4 500.8)">
<title>G</title>
<polygon fill="#ffffff" stroke="transparent" points="-4,4 -4,-500.8 731.451,-500.8 731.451,4 -4,4"/>
<!-- GO:0005856 -->
<g id="node1" class="node">
<title>GO:0005856</title>
<polygon fill="#ffffff" stroke="#000000" points="241.0531,-41.4019 151.8453,-41.4019 151.8453,-.1981 241.0531,-.1981 241.0531,-41.4019"/>
<text text-anchor="middle" x="196.4492" y="-25" font-family="Times,serif" font-size="14.00" fill="#000000">GO:0005856</text>
<text text-anchor="middle" x="196.4492" y="-8.2" font-family="Times,serif" font-size="14.00" fill="#000000">cytoskeleton</text>
</g>
<!-- GO:0043232 -->
<g id="node2" class="node">
<title>GO:0043232</title>
<polygon fill="#ffffff" stroke="#000000" points="260.41,-152.9003 132.4884,-152.9003 132.4884,-77.4997 260.41,-77.4997 260.41,-152.9003"/>
<text text-anchor="middle" x="196.4492" y="-136.2" font-family="Times,serif" font-size="14.00" fill="#000000">GO:0043232</text>
<text text-anchor="middle" x="196.4492" y="-119.4" font-family="Times,serif" font-size="14.00" fill="#000000">intracellular non&#45;</text>
<text text-anchor="middle" x="196.4492" y="-102.6" font-family="Times,serif" font-size="14.00" fill="#000000">membrane&#45;bounded</text>
<text text-anchor="middle" x="196.4492" y="-85.8" font-family="Times,serif" font-size="14.00" fill="#000000">organelle</text>
</g>
<!-- GO:0005856&#45;&gt;GO:0043232 -->
<g id="edge1" class="edge">
<title>GO:0005856&#45;&gt;GO:0043232</title>
<path fill="none" stroke="#000000" d="M196.4492,-41.7504C196.4492,-49.4068 196.4492,-58.4143 196.4492,-67.4487"/>
<polygon fill="#000000" stroke="#000000" points="192.9493,-67.5897 196.4492,-77.5897 199.9493,-67.5897 192.9493,-67.5897"/>
</g>
<!-- GO:0043229 -->
<g id="node3" class="node">
<title>GO:0043229</title>
<polygon fill="#ffffff" stroke="#000000" points="184.1676,-238.6019 44.7308,-238.6019 44.7308,-197.3981 184.1676,-197.3981 184.1676,-238.6019"/>
<text text-anchor="middle" x="114.4492" y="-222.2" font-family="Times,serif" font-size="14.00" fill="#000000">GO:0043229</text>
<text text-anchor="middle" x="114.4492" y="-205.4" font-family="Times,serif" font-size="14.00" fill="#000000">intracellular organelle</text>
</g>
<!-- GO:0043232&#45;&gt;GO:0043229 -->
<g id="edge2" class="edge">
<title>GO:0043232&#45;&gt;GO:0043229</title>
<path fill="none" stroke="#000000" d="M166.381,-152.8952C156.7444,-164.9763 146.2386,-178.147 137.2133,-189.4616"/>
<polygon fill="#000000" stroke="#000000" points="134.4365,-187.33 130.9368,-197.3302 139.9088,-191.6951 134.4365,-187.33"/>
</g>
<!-- GO:0043228 -->
<g id="node4" class="node">
<title>GO:0043228</title>
<polygon fill="#ffffff" stroke="#000000" points="355.0711,-247.4014 201.8273,-247.4014 201.8273,-188.5986 355.0711,-188.5986 355.0711,-247.4014"/>
<text text-anchor="middle" x="278.4492" y="-230.6" font-family="Times,serif" font-size="14.00" fill="#000000">GO:0043228</text>
<text text-anchor="middle" x="278.4492" y="-213.8" font-family="Times,serif" font-size="14.00" fill="#000000">non&#45;membrane&#45;bounded</text>
<text text-anchor="middle" x="278.4492" y="-197" font-family="Times,serif" font-size="14.00" fill="#000000">organelle</text>
</g>
<!-- GO:0043232&#45;&gt;GO:0043228 -->
<g id="edge3" class="edge">
<title>GO:0043232&#45;&gt;GO:0043228</title>
<path fill="none" stroke="#000000" d="M226.5174,-152.8952C233.7264,-161.9329 241.422,-171.5805 248.6202,-180.6046"/>
<polygon fill="#000000" stroke="#000000" points="246.0907,-183.0463 255.0627,-188.6814 251.5631,-178.6812 246.0907,-183.0463"/>
</g>
<!-- GO:0044424 -->
<g id="node5" class="node">
<title>GO:0044424</title>
<polygon fill="#ffffff" stroke="#000000" points="108.8476,-333.0019 .0508,-333.0019 .0508,-291.7981 108.8476,-291.7981 108.8476,-333.0019"/>
<text text-anchor="middle" x="54.4492" y="-316.6" font-family="Times,serif" font-size="14.00" fill="#000000">GO:0044424</text>
<text text-anchor="middle" x="54.4492" y="-299.8" font-family="Times,serif" font-size="14.00" fill="#000000">intracellular part</text>
</g>
<!-- GO:0043229&#45;&gt;GO:0044424 -->
<g id="edge4" class="edge">
<title>GO:0043229&#45;&gt;GO:0044424</title>
<path fill="none" stroke="#000000" d="M101.1333,-238.9504C92.8992,-251.9054 82.2064,-268.7287 73.1322,-283.0053"/>
<polygon fill="#000000" stroke="#000000" points="70.1382,-281.1911 67.7279,-291.5081 76.0459,-284.946 70.1382,-281.1911"/>
</g>
<!-- GO:0043226 -->
<g id="node6" class="node">
<title>GO:0043226</title>
<polygon fill="#ffffff" stroke="#000000" points="323.0531,-333.0019 233.8453,-333.0019 233.8453,-291.7981 323.0531,-291.7981 323.0531,-333.0019"/>
<text text-anchor="middle" x="278.4492" y="-316.6" font-family="Times,serif" font-size="14.00" fill="#000000">GO:0043226</text>
<text text-anchor="middle" x="278.4492" y="-299.8" font-family="Times,serif" font-size="14.00" fill="#000000">organelle</text>
</g>
<!-- GO:0043229&#45;&gt;GO:0043226 -->
<g id="edge5" class="edge">
<title>GO:0043229&#45;&gt;GO:0043226</title>
<path fill="none" stroke="#000000" d="M150.4397,-238.7165C174.8997,-252.7959 207.4351,-271.5236 233.5837,-286.575"/>
<polygon fill="#000000" stroke="#000000" points="232.1298,-289.7765 242.5427,-291.7318 235.6219,-283.7097 232.1298,-289.7765"/>
</g>
<!-- GO:0043228&#45;&gt;GO:0043226 -->
<g id="edge6" class="edge">
<title>GO:0043228&#45;&gt;GO:0043226</title>
<path fill="none" stroke="#000000" d="M278.4492,-247.3513C278.4492,-258.2614 278.4492,-270.6637 278.4492,-281.692"/>
<polygon fill="#000000" stroke="#000000" points="274.9493,-281.7509 278.4492,-291.751 281.9493,-281.751 274.9493,-281.7509"/>
</g>
<!-- GO:0044464 -->
<g id="node7" class="node">
<title>GO:0044464</title>
<polygon fill="#ffffff" stroke="#000000" points="216.0531,-419.0019 126.8453,-419.0019 126.8453,-377.7981 216.0531,-377.7981 216.0531,-419.0019"/>
<text text-anchor="middle" x="171.4492" y="-402.6" font-family="Times,serif" font-size="14.00" fill="#000000">GO:0044464</text>
<text text-anchor="middle" x="171.4492" y="-385.8" font-family="Times,serif" font-size="14.00" fill="#000000">cell part</text>
</g>
<!-- GO:0044424&#45;&gt;GO:0044464 -->
<g id="edge7" class="edge">
<title>GO:0044424&#45;&gt;GO:0044464</title>
<path fill="none" stroke="#000000" d="M82.7716,-333.2182C98.4364,-344.7325 118.0766,-359.1688 134.8893,-371.5269"/>
<polygon fill="#000000" stroke="#000000" points="133.2572,-374.671 143.3876,-377.7735 137.403,-369.0308 133.2572,-374.671"/>
</g>
<!-- GO:0005575 -->
<g id="node8" class="node">
<title>GO:0005575</title>
<polygon fill="#ffffff" stroke="#000000" points="416.1359,-496.6019 288.7625,-496.6019 288.7625,-455.3981 416.1359,-455.3981 416.1359,-496.6019"/>
<text text-anchor="middle" x="352.4492" y="-480.2" font-family="Times,serif" font-size="14.00" fill="#000000">GO:0005575</text>
<text text-anchor="middle" x="352.4492" y="-463.4" font-family="Times,serif" font-size="14.00" fill="#000000">cellular_component</text>
</g>
<!-- GO:0043226&#45;&gt;GO:0005575 -->
<g id="edge8" class="edge">
<title>GO:0043226&#45;&gt;GO:0005575</title>
<path fill="none" stroke="#000000" d="M273.7986,-333.3111C269.9082,-355.7894 266.9254,-391.9585 280.4492,-419.2 286.2589,-430.9028 295.7424,-440.9393 305.9474,-449.1753"/>
<polygon fill="#000000" stroke="#000000" points="304.131,-452.1882 314.2299,-455.3919 308.3331,-446.5897 304.131,-452.1882"/>
</g>
<!-- GO:0044464&#45;&gt;GO:0005575 -->
<g id="edge15" class="edge">
<title>GO:0044464&#45;&gt;GO:0005575</title>
<path fill="none" stroke="#000000" d="M216.1908,-417.582C239.8617,-427.7304 269.2003,-440.3088 294.5839,-451.1915"/>
<polygon fill="#000000" stroke="#000000" points="293.5286,-454.5471 304.0987,-455.2707 296.287,-448.1134 293.5286,-454.5471"/>
</g>
<!-- GO:0005576 -->
<g id="node9" class="node">
<title>GO:0005576</title>
<polygon fill="#ffffff" stroke="#000000" points="415.1718,-419.0019 289.7266,-419.0019 289.7266,-377.7981 415.1718,-377.7981 415.1718,-419.0019"/>
<text text-anchor="middle" x="352.4492" y="-402.6" font-family="Times,serif" font-size="14.00" fill="#000000">GO:0005576</text>
<text text-anchor="middle" x="352.4492" y="-385.8" font-family="Times,serif" font-size="14.00" fill="#000000">extracellular region</text>
</g>
<!-- GO:0005576&#45;&gt;GO:0005575 -->
<g id="edge9" class="edge">
<title>GO:0005576&#45;&gt;GO:0005575</title>
<path fill="none" stroke="#000000" d="M352.4492,-419.1954C352.4492,-427.1109 352.4492,-436.3109 352.4492,-444.9722"/>
<polygon fill="#000000" stroke="#000000" points="348.9493,-445.1472 352.4492,-455.1472 355.9493,-445.1473 348.9493,-445.1472"/>
</g>
<!-- GO:0005578 -->
<g id="node10" class="node">
<title>GO:0005578</title>
<polygon fill="#ffffff" stroke="#000000" points="649.4528,-341.8014 523.4456,-341.8014 523.4456,-282.9986 649.4528,-282.9986 649.4528,-341.8014"/>
<text text-anchor="middle" x="586.4492" y="-325" font-family="Times,serif" font-size="14.00" fill="#000000">GO:0005578</text>
<text text-anchor="middle" x="586.4492" y="-308.2" font-family="Times,serif" font-size="14.00" fill="#000000">proteinaceous</text>
<text text-anchor="middle" x="586.4492" y="-291.4" font-family="Times,serif" font-size="14.00" fill="#000000">extracellular matrix</text>
</g>
<!-- GO:0044421 -->
<g id="node11" class="node">
<title>GO:0044421</title>
<polygon fill="#ffffff" stroke="#000000" points="583.9382,-419.0019 432.9602,-419.0019 432.9602,-377.7981 583.9382,-377.7981 583.9382,-419.0019"/>
<text text-anchor="middle" x="508.4492" y="-402.6" font-family="Times,serif" font-size="14.00" fill="#000000">GO:0044421</text>
<text text-anchor="middle" x="508.4492" y="-385.8" font-family="Times,serif" font-size="14.00" fill="#000000">extracellular region part</text>
</g>
<!-- GO:0005578&#45;&gt;GO:0044421 -->
<g id="edge10" class="edge">
<title>GO:0005578&#45;&gt;GO:0044421</title>
<path fill="none" stroke="#000000" d="M559.606,-341.9963C551.3578,-351.0905 542.3035,-361.0734 534.1348,-370.08"/>
<polygon fill="#000000" stroke="#000000" points="531.3524,-367.938 527.2267,-377.6966 536.5375,-372.6407 531.3524,-367.938"/>
</g>
<!-- GO:0031012 -->
<g id="node12" class="node">
<title>GO:0031012</title>
<polygon fill="#ffffff" stroke="#000000" points="727.4528,-419.0019 601.4456,-419.0019 601.4456,-377.7981 727.4528,-377.7981 727.4528,-419.0019"/>
<text text-anchor="middle" x="664.4492" y="-402.6" font-family="Times,serif" font-size="14.00" fill="#000000">GO:0031012</text>
<text text-anchor="middle" x="664.4492" y="-385.8" font-family="Times,serif" font-size="14.00" fill="#000000">extracellular matrix</text>
</g>
<!-- GO:0005578&#45;&gt;GO:0031012 -->
<g id="edge11" class="edge">
<title>GO:0005578&#45;&gt;GO:0031012</title>
<path fill="none" stroke="#000000" d="M613.2924,-341.9963C621.5406,-351.0905 630.5949,-361.0734 638.7636,-370.08"/>
<polygon fill="#000000" stroke="#000000" points="636.3609,-372.6407 645.6717,-377.6966 641.546,-367.938 636.3609,-372.6407"/>
</g>
<!-- GO:0044421&#45;&gt;GO:0005575 -->
<g id="edge12" class="edge">
<title>GO:0044421&#45;&gt;GO:0005575</title>
<path fill="none" stroke="#000000" d="M466.6441,-419.1954C447.156,-428.8895 423.7946,-440.5102 403.2932,-450.7084"/>
<polygon fill="#000000" stroke="#000000" points="401.4936,-447.6944 394.099,-455.2819 404.6113,-453.9618 401.4936,-447.6944"/>
</g>
<!-- GO:0031012&#45;&gt;GO:0005575 -->
<g id="edge13" class="edge">
<title>GO:0031012&#45;&gt;GO:0005575</title>
<path fill="none" stroke="#000000" d="M601.2814,-416.8375C598.2991,-417.6485 595.3436,-418.4399 592.4492,-419.2 536.8706,-433.7955 473.6072,-448.698 425.9905,-459.5744"/>
<polygon fill="#000000" stroke="#000000" points="425.0485,-456.1992 416.0755,-461.8326 426.6031,-463.0244 425.0485,-456.1992"/>
</g>
<!-- GO:0005622 -->
<g id="node13" class="node">
<title>GO:0005622</title>
<polygon fill="#ffffff" stroke="#000000" points="216.0531,-333.0019 126.8453,-333.0019 126.8453,-291.7981 216.0531,-291.7981 216.0531,-333.0019"/>
<text text-anchor="middle" x="171.4492" y="-316.6" font-family="Times,serif" font-size="14.00" fill="#000000">GO:0005622</text>
<text text-anchor="middle" x="171.4492" y="-299.8" font-family="Times,serif" font-size="14.00" fill="#000000">intracellular</text>
</g>
<!-- GO:0005622&#45;&gt;GO:0044464 -->
<g id="edge14" class="edge">
<title>GO:0005622&#45;&gt;GO:0044464</title>
<path fill="none" stroke="#000000" d="M171.4492,-333.2182C171.4492,-343.5705 171.4492,-356.2848 171.4492,-367.7271"/>
<polygon fill="#000000" stroke="#000000" points="167.9493,-367.7735 171.4492,-377.7735 174.9493,-367.7735 167.9493,-367.7735"/>
</g>
</g>
</svg>
