<?xml version="1.0" encoding="UTF-8" standalone="no"?>
<!DOCTYPE svg PUBLIC "-//W3C//DTD SVG 1.1//EN"
 "http://www.w3.org/Graphics/SVG/1.1/DTD/svg11.dtd">
<!-- Generated by graphviz version 2.40.1 (20161225.0304)
 -->
<!-- Title: G Pages: 1 -->
<svg width="1356pt" height="845pt"
 viewBox="0.00 0.00 1356.08 844.80" xmlns="http://www.w3.org/2000/svg" xmlns:xlink="http://www.w3.org/1999/xlink">
<g id="graph0" class="graph" transform="scale(1 1) rotate(0) translate(4 840.8)">
<title>G</title>
<polygon fill="#ffffff" stroke="transparent" points="-4,4 -4,-840.8 1352.0842,-840.8 1352.0842,4 -4,4"/>
<!-- GO:0043169 -->
<g id="node1" class="node">
<title>GO:0043169</title>
<polygon fill="#ffffff" stroke="#000000" points="115.8793,-511.4019 18.8935,-511.4019 18.8935,-470.1981 115.8793,-470.1981 115.8793,-511.4019"/>
<text text-anchor="middle" x="67.3864" y="-495" font-family="Times,serif" font-size="14.00" fill="#000000">GO:0043169</text>
<text text-anchor="middle" x="67.3864" y="-478.2" font-family="Times,serif" font-size="14.00" fill="#000000">cation binding</text>
</g>
<!-- GO:0043167 -->
<g id="node2" class="node">
<title>GO:0043167</title>
<polygon fill="#ffffff" stroke="#000000" points="129.9903,-605.8019 40.7825,-605.8019 40.7825,-564.5981 129.9903,-564.5981 129.9903,-605.8019"/>
<text text-anchor="middle" x="85.3864" y="-589.4" font-family="Times,serif" font-size="14.00" fill="#000000">GO:0043167</text>
<text text-anchor="middle" x="85.3864" y="-572.6" font-family="Times,serif" font-size="14.00" fill="#000000">ion binding</text>
</g>
<!-- GO:0043169&#45;&gt;GO:0043167 -->
<g id="edge1" class="edge">
<title>GO:0043169&#45;&gt;GO:0043167</title>
<path fill="none" stroke="#000000" d="M71.3812,-511.7504C73.7582,-524.2165 76.8182,-540.2645 79.4713,-554.1786"/>
<polygon fill="#000000" stroke="#000000" points="76.0916,-555.1407 81.4028,-564.3081 82.9677,-553.8295 76.0916,-555.1407"/>
</g>
<!-- GO:0005488 -->
<g id="node3" class="node">
<title>GO:0005488</title>
<polygon fill="#ffffff" stroke="#000000" points="532.9903,-691.8019 443.7825,-691.8019 443.7825,-650.5981 532.9903,-650.5981 532.9903,-691.8019"/>
<text text-anchor="middle" x="488.3864" y="-675.4" font-family="Times,serif" font-size="14.00" fill="#000000">GO:0005488</text>
<text text-anchor="middle" x="488.3864" y="-658.6" font-family="Times,serif" font-size="14.00" fill="#000000">binding</text>
</g>
<!-- GO:0043167&#45;&gt;GO:0005488 -->
<g id="edge2" class="edge">
<title>GO:0043167&#45;&gt;GO:0005488</title>
<path fill="none" stroke="#000000" d="M125.0969,-605.8598C132.3736,-609.0785 140.0041,-612.0953 147.3864,-614.4 245.6096,-645.0644 365.2161,-660.1319 433.5084,-666.7399"/>
<polygon fill="#000000" stroke="#000000" points="433.326,-670.2381 443.6102,-667.6916 433.9826,-663.269 433.326,-670.2381"/>
</g>
<!-- GO:0003674 -->
<g id="node4" class="node">
<title>GO:0003674</title>
<polygon fill="#ffffff" stroke="#000000" points="954.0195,-803.0019 828.7533,-803.0019 828.7533,-761.7981 954.0195,-761.7981 954.0195,-803.0019"/>
<text text-anchor="middle" x="891.3864" y="-786.6" font-family="Times,serif" font-size="14.00" fill="#000000">GO:0003674</text>
<text text-anchor="middle" x="891.3864" y="-769.8" font-family="Times,serif" font-size="14.00" fill="#000000">molecular_function</text>
</g>
<!-- GO:0005488&#45;&gt;GO:0003674 -->
<g id="edge3" class="edge">
<title>GO:0005488&#45;&gt;GO:0003674</title>
<path fill="none" stroke="#000000" d="M533.0542,-683.5252C602.1761,-702.598 735.7346,-739.4509 818.8351,-762.3809"/>
<polygon fill="#000000" stroke="#000000" points="818.1407,-765.82 828.7114,-765.1061 820.0026,-759.0722 818.1407,-765.82"/>
</g>
<!-- GO:0042626 -->
<g id="node5" class="node">
<title>GO:0042626</title>
<polygon fill="#ffffff" stroke="#000000" points="1177.1742,-169.7003 997.5986,-169.7003 997.5986,-94.2997 1177.1742,-94.2997 1177.1742,-169.7003"/>
<text text-anchor="middle" x="1087.3864" y="-153" font-family="Times,serif" font-size="14.00" fill="#000000">GO:0042626</text>
<text text-anchor="middle" x="1087.3864" y="-136.2" font-family="Times,serif" font-size="14.00" fill="#000000">ATPase activity, coupled</text>
<text text-anchor="middle" x="1087.3864" y="-119.4" font-family="Times,serif" font-size="14.00" fill="#000000">to transmembrane movement</text>
<text text-anchor="middle" x="1087.3864" y="-102.6" font-family="Times,serif" font-size="14.00" fill="#000000">of substances</text>
</g>
<!-- GO:0043492 -->
<g id="node6" class="node">
<title>GO:0043492</title>
<polygon fill="#ffffff" stroke="#000000" points="1347.4068,-272.6014 1179.366,-272.6014 1179.366,-213.7986 1347.4068,-213.7986 1347.4068,-272.6014"/>
<text text-anchor="middle" x="1263.3864" y="-255.8" font-family="Times,serif" font-size="14.00" fill="#000000">GO:0043492</text>
<text text-anchor="middle" x="1263.3864" y="-239" font-family="Times,serif" font-size="14.00" fill="#000000">ATPase activity, coupled</text>
<text text-anchor="middle" x="1263.3864" y="-222.2" font-family="Times,serif" font-size="14.00" fill="#000000">to movement of substances</text>
</g>
<!-- GO:0042626&#45;&gt;GO:0043492 -->
<g id="edge4" class="edge">
<title>GO:0042626&#45;&gt;GO:0043492</title>
<path fill="none" stroke="#000000" d="M1146.972,-169.6472C1166.8651,-182.2161 1188.9283,-196.156 1208.451,-208.4908"/>
<polygon fill="#000000" stroke="#000000" points="1206.6124,-211.4692 1216.9358,-213.8517 1210.3514,-205.5514 1206.6124,-211.4692"/>
</g>
<!-- GO:0016820 -->
<g id="node7" class="node">
<title>GO:0016820</title>
<polygon fill="#ffffff" stroke="#000000" points="986.444,-425.5002 806.3288,-425.5002 806.3288,-316.8998 986.444,-316.8998 986.444,-425.5002"/>
<text text-anchor="middle" x="896.3864" y="-409" font-family="Times,serif" font-size="14.00" fill="#000000">GO:0016820</text>
<text text-anchor="middle" x="896.3864" y="-392.2" font-family="Times,serif" font-size="14.00" fill="#000000">hydrolase activity,</text>
<text text-anchor="middle" x="896.3864" y="-375.4" font-family="Times,serif" font-size="14.00" fill="#000000">acting on acid</text>
<text text-anchor="middle" x="896.3864" y="-358.6" font-family="Times,serif" font-size="14.00" fill="#000000">anhydrides, catalyzing</text>
<text text-anchor="middle" x="896.3864" y="-341.8" font-family="Times,serif" font-size="14.00" fill="#000000">transmembrane movement of</text>
<text text-anchor="middle" x="896.3864" y="-325" font-family="Times,serif" font-size="14.00" fill="#000000">substances</text>
</g>
<!-- GO:0042626&#45;&gt;GO:0016820 -->
<g id="edge5" class="edge">
<title>GO:0042626&#45;&gt;GO:0016820</title>
<path fill="none" stroke="#000000" d="M1042.3815,-169.9619C1030.4456,-180.9295 1017.9508,-193.2785 1007.3864,-205.6 980.2044,-237.3029 953.9877,-275.9076 933.8646,-307.8659"/>
<polygon fill="#000000" stroke="#000000" points="930.6812,-306.356 928.3547,-316.6922 936.6192,-310.0628 930.6812,-306.356"/>
</g>
<!-- GO:0015405 -->
<g id="node8" class="node">
<title>GO:0015405</title>
<polygon fill="#ffffff" stroke="#000000" points="1157.9489,-280.9003 1016.8239,-280.9003 1016.8239,-205.4997 1157.9489,-205.4997 1157.9489,-280.9003"/>
<text text-anchor="middle" x="1087.3864" y="-264.2" font-family="Times,serif" font-size="14.00" fill="#000000">GO:0015405</text>
<text text-anchor="middle" x="1087.3864" y="-247.4" font-family="Times,serif" font-size="14.00" fill="#000000">P&#45;P&#45;bond&#45;hydrolysis&#45;</text>
<text text-anchor="middle" x="1087.3864" y="-230.6" font-family="Times,serif" font-size="14.00" fill="#000000">driven transmembrane</text>
<text text-anchor="middle" x="1087.3864" y="-213.8" font-family="Times,serif" font-size="14.00" fill="#000000">transporter activity</text>
</g>
<!-- GO:0042626&#45;&gt;GO:0015405 -->
<g id="edge6" class="edge">
<title>GO:0042626&#45;&gt;GO:0015405</title>
<path fill="none" stroke="#000000" d="M1087.3864,-169.6472C1087.3864,-177.98 1087.3864,-186.9155 1087.3864,-195.5863"/>
<polygon fill="#000000" stroke="#000000" points="1083.8865,-195.5915 1087.3864,-205.5915 1090.8865,-195.5916 1083.8865,-195.5915"/>
</g>
<!-- GO:0042623 -->
<g id="node9" class="node">
<title>GO:0042623</title>
<polygon fill="#ffffff" stroke="#000000" points="1346.0135,-391.8019 1188.7593,-391.8019 1188.7593,-350.5981 1346.0135,-350.5981 1346.0135,-391.8019"/>
<text text-anchor="middle" x="1267.3864" y="-375.4" font-family="Times,serif" font-size="14.00" fill="#000000">GO:0042623</text>
<text text-anchor="middle" x="1267.3864" y="-358.6" font-family="Times,serif" font-size="14.00" fill="#000000">ATPase activity, coupled</text>
</g>
<!-- GO:0043492&#45;&gt;GO:0042623 -->
<g id="edge7" class="edge">
<title>GO:0043492&#45;&gt;GO:0042623</title>
<path fill="none" stroke="#000000" d="M1264.3041,-272.5658C1264.9365,-292.8043 1265.7756,-319.6552 1266.4186,-340.2312"/>
<polygon fill="#000000" stroke="#000000" points="1262.9241,-340.4651 1266.7349,-350.3508 1269.9207,-340.2463 1262.9241,-340.4651"/>
</g>
<!-- GO:0016817 -->
<g id="node10" class="node">
<title>GO:0016817</title>
<polygon fill="#ffffff" stroke="#000000" points="971.3423,-520.2014 811.4305,-520.2014 811.4305,-461.3986 971.3423,-461.3986 971.3423,-520.2014"/>
<text text-anchor="middle" x="891.3864" y="-503.4" font-family="Times,serif" font-size="14.00" fill="#000000">GO:0016817</text>
<text text-anchor="middle" x="891.3864" y="-486.6" font-family="Times,serif" font-size="14.00" fill="#000000">hydrolase activity,</text>
<text text-anchor="middle" x="891.3864" y="-469.8" font-family="Times,serif" font-size="14.00" fill="#000000">acting on acid anhydrides</text>
</g>
<!-- GO:0016820&#45;&gt;GO:0016817 -->
<g id="edge8" class="edge">
<title>GO:0016820&#45;&gt;GO:0016817</title>
<path fill="none" stroke="#000000" d="M894.1059,-425.7502C893.7437,-434.4138 893.3753,-443.2255 893.0314,-451.4504"/>
<polygon fill="#000000" stroke="#000000" points="889.5322,-451.362 892.6113,-461.4995 896.5261,-451.6544 889.5322,-451.362"/>
</g>
<!-- GO:0022804 -->
<g id="node11" class="node">
<title>GO:0022804</title>
<polygon fill="#ffffff" stroke="#000000" points="1128.1076,-520.2014 988.6652,-520.2014 988.6652,-461.3986 1128.1076,-461.3986 1128.1076,-520.2014"/>
<text text-anchor="middle" x="1058.3864" y="-503.4" font-family="Times,serif" font-size="14.00" fill="#000000">GO:0022804</text>
<text text-anchor="middle" x="1058.3864" y="-486.6" font-family="Times,serif" font-size="14.00" fill="#000000">active transmembrane</text>
<text text-anchor="middle" x="1058.3864" y="-469.8" font-family="Times,serif" font-size="14.00" fill="#000000">transporter activity</text>
</g>
<!-- GO:0016820&#45;&gt;GO:0022804 -->
<g id="edge9" class="edge">
<title>GO:0016820&#45;&gt;GO:0022804</title>
<path fill="none" stroke="#000000" d="M970.2754,-425.7502C983.9662,-435.8577 997.9301,-446.1669 1010.5863,-455.5106"/>
<polygon fill="#000000" stroke="#000000" points="1008.5745,-458.3758 1018.6984,-461.4995 1012.7322,-452.7442 1008.5745,-458.3758"/>
</g>
<!-- GO:0015399 -->
<g id="node12" class="node">
<title>GO:0015399</title>
<polygon fill="#ffffff" stroke="#000000" points="1170.8198,-408.9003 1003.953,-408.9003 1003.953,-333.4997 1170.8198,-333.4997 1170.8198,-408.9003"/>
<text text-anchor="middle" x="1087.3864" y="-392.2" font-family="Times,serif" font-size="14.00" fill="#000000">GO:0015399</text>
<text text-anchor="middle" x="1087.3864" y="-375.4" font-family="Times,serif" font-size="14.00" fill="#000000">primary active</text>
<text text-anchor="middle" x="1087.3864" y="-358.6" font-family="Times,serif" font-size="14.00" fill="#000000">transmembrane transporter</text>
<text text-anchor="middle" x="1087.3864" y="-341.8" font-family="Times,serif" font-size="14.00" fill="#000000">activity</text>
</g>
<!-- GO:0015405&#45;&gt;GO:0015399 -->
<g id="edge10" class="edge">
<title>GO:0015405&#45;&gt;GO:0015399</title>
<path fill="none" stroke="#000000" d="M1087.3864,-280.9119C1087.3864,-294.0752 1087.3864,-309.0342 1087.3864,-322.9369"/>
<polygon fill="#000000" stroke="#000000" points="1083.8865,-323.3153 1087.3864,-333.3153 1090.8865,-323.3153 1083.8865,-323.3153"/>
</g>
<!-- GO:0016887 -->
<g id="node13" class="node">
<title>GO:0016887</title>
<polygon fill="#ffffff" stroke="#000000" points="1320.1938,-511.4019 1214.579,-511.4019 1214.579,-470.1981 1320.1938,-470.1981 1320.1938,-511.4019"/>
<text text-anchor="middle" x="1267.3864" y="-495" font-family="Times,serif" font-size="14.00" fill="#000000">GO:0016887</text>
<text text-anchor="middle" x="1267.3864" y="-478.2" font-family="Times,serif" font-size="14.00" fill="#000000">ATPase activity</text>
</g>
<!-- GO:0042623&#45;&gt;GO:0016887 -->
<g id="edge11" class="edge">
<title>GO:0042623&#45;&gt;GO:0016887</title>
<path fill="none" stroke="#000000" d="M1267.3864,-392.0327C1267.3864,-410.6973 1267.3864,-438.3322 1267.3864,-459.6278"/>
<polygon fill="#000000" stroke="#000000" points="1263.8865,-459.8047 1267.3864,-469.8047 1270.8865,-459.8047 1263.8865,-459.8047"/>
</g>
<!-- GO:0016787 -->
<g id="node14" class="node">
<title>GO:0016787</title>
<polygon fill="#ffffff" stroke="#000000" points="949.303,-605.8019 833.4698,-605.8019 833.4698,-564.5981 949.303,-564.5981 949.303,-605.8019"/>
<text text-anchor="middle" x="891.3864" y="-589.4" font-family="Times,serif" font-size="14.00" fill="#000000">GO:0016787</text>
<text text-anchor="middle" x="891.3864" y="-572.6" font-family="Times,serif" font-size="14.00" fill="#000000">hydrolase activity</text>
</g>
<!-- GO:0016817&#45;&gt;GO:0016787 -->
<g id="edge12" class="edge">
<title>GO:0016817&#45;&gt;GO:0016787</title>
<path fill="none" stroke="#000000" d="M891.3864,-520.1513C891.3864,-531.0614 891.3864,-543.4637 891.3864,-554.492"/>
<polygon fill="#000000" stroke="#000000" points="887.8865,-554.5509 891.3864,-564.551 894.8865,-554.551 887.8865,-554.5509"/>
</g>
<!-- GO:0022857 -->
<g id="node15" class="node">
<title>GO:0022857</title>
<polygon fill="#ffffff" stroke="#000000" points="1137.8198,-614.6014 970.953,-614.6014 970.953,-555.7986 1137.8198,-555.7986 1137.8198,-614.6014"/>
<text text-anchor="middle" x="1054.3864" y="-597.8" font-family="Times,serif" font-size="14.00" fill="#000000">GO:0022857</text>
<text text-anchor="middle" x="1054.3864" y="-581" font-family="Times,serif" font-size="14.00" fill="#000000">transmembrane transporter</text>
<text text-anchor="middle" x="1054.3864" y="-564.2" font-family="Times,serif" font-size="14.00" fill="#000000">activity</text>
</g>
<!-- GO:0022804&#45;&gt;GO:0022857 -->
<g id="edge13" class="edge">
<title>GO:0022804&#45;&gt;GO:0022857</title>
<path fill="none" stroke="#000000" d="M1057.1427,-520.1513C1056.8003,-528.2318 1056.4232,-537.1308 1056.0608,-545.6838"/>
<polygon fill="#000000" stroke="#000000" points="1052.5559,-545.7276 1055.6293,-555.8669 1059.5496,-546.024 1052.5559,-545.7276"/>
</g>
<!-- GO:0015399&#45;&gt;GO:0022804 -->
<g id="edge14" class="edge">
<title>GO:0015399&#45;&gt;GO:0022804</title>
<path fill="none" stroke="#000000" d="M1078.2106,-409.0422C1074.9312,-422.5668 1071.2299,-437.8315 1067.921,-451.478"/>
<polygon fill="#000000" stroke="#000000" points="1064.4357,-450.9994 1065.4806,-461.5425 1071.2386,-452.6489 1064.4357,-450.9994"/>
</g>
<!-- GO:0017111 -->
<g id="node16" class="node">
<title>GO:0017111</title>
<polygon fill="#ffffff" stroke="#000000" points="1348.2825,-614.6014 1186.4903,-614.6014 1186.4903,-555.7986 1348.2825,-555.7986 1348.2825,-614.6014"/>
<text text-anchor="middle" x="1267.3864" y="-597.8" font-family="Times,serif" font-size="14.00" fill="#000000">GO:0017111</text>
<text text-anchor="middle" x="1267.3864" y="-581" font-family="Times,serif" font-size="14.00" fill="#000000">nucleoside&#45;triphosphatase</text>
<text text-anchor="middle" x="1267.3864" y="-564.2" font-family="Times,serif" font-size="14.00" fill="#000000">activity</text>
</g>
<!-- GO:0016887&#45;&gt;GO:0017111 -->
<g id="edge15" class="edge">
<title>GO:0016887&#45;&gt;GO:0017111</title>
<path fill="none" stroke="#000000" d="M1267.3864,-511.7504C1267.3864,-521.7492 1267.3864,-534.0525 1267.3864,-545.7106"/>
<polygon fill="#000000" stroke="#000000" points="1263.8865,-545.7155 1267.3864,-555.7155 1270.8865,-545.7156 1263.8865,-545.7155"/>
</g>
<!-- GO:0003824 -->
<g id="node17" class="node">
<title>GO:0003824</title>
<polygon fill="#ffffff" stroke="#000000" points="945.7988,-691.8019 836.974,-691.8019 836.974,-650.5981 945.7988,-650.5981 945.7988,-691.8019"/>
<text text-anchor="middle" x="891.3864" y="-675.4" font-family="Times,serif" font-size="14.00" fill="#000000">GO:0003824</text>
<text text-anchor="middle" x="891.3864" y="-658.6" font-family="Times,serif" font-size="14.00" fill="#000000">catalytic activity</text>
</g>
<!-- GO:0016787&#45;&gt;GO:0003824 -->
<g id="edge16" class="edge">
<title>GO:0016787&#45;&gt;GO:0003824</title>
<path fill="none" stroke="#000000" d="M891.3864,-606.0182C891.3864,-616.3705 891.3864,-629.0848 891.3864,-640.5271"/>
<polygon fill="#000000" stroke="#000000" points="887.8865,-640.5735 891.3864,-650.5735 894.8865,-640.5735 887.8865,-640.5735"/>
</g>
<!-- GO:0005215 -->
<g id="node18" class="node">
<title>GO:0005215</title>
<polygon fill="#ffffff" stroke="#000000" points="1099.5149,-691.8019 977.2579,-691.8019 977.2579,-650.5981 1099.5149,-650.5981 1099.5149,-691.8019"/>
<text text-anchor="middle" x="1038.3864" y="-675.4" font-family="Times,serif" font-size="14.00" fill="#000000">GO:0005215</text>
<text text-anchor="middle" x="1038.3864" y="-658.6" font-family="Times,serif" font-size="14.00" fill="#000000">transporter activity</text>
</g>
<!-- GO:0022857&#45;&gt;GO:0005215 -->
<g id="edge17" class="edge">
<title>GO:0022857&#45;&gt;GO:0005215</title>
<path fill="none" stroke="#000000" d="M1048.8801,-614.7963C1047.342,-623.0638 1045.6672,-632.0657 1044.1165,-640.4008"/>
<polygon fill="#000000" stroke="#000000" points="1040.6264,-640.025 1042.2382,-650.4966 1047.5083,-641.3055 1040.6264,-640.025"/>
</g>
<!-- GO:0016462 -->
<g id="node19" class="node">
<title>GO:0016462</title>
<polygon fill="#ffffff" stroke="#000000" points="1344.9628,-691.8019 1189.81,-691.8019 1189.81,-650.5981 1344.9628,-650.5981 1344.9628,-691.8019"/>
<text text-anchor="middle" x="1267.3864" y="-675.4" font-family="Times,serif" font-size="14.00" fill="#000000">GO:0016462</text>
<text text-anchor="middle" x="1267.3864" y="-658.6" font-family="Times,serif" font-size="14.00" fill="#000000">pyrophosphatase activity</text>
</g>
<!-- GO:0017111&#45;&gt;GO:0016462 -->
<g id="edge18" class="edge">
<title>GO:0017111&#45;&gt;GO:0016462</title>
<path fill="none" stroke="#000000" d="M1267.3864,-614.7963C1267.3864,-623.0638 1267.3864,-632.0657 1267.3864,-640.4008"/>
<polygon fill="#000000" stroke="#000000" points="1263.8865,-640.4965 1267.3864,-650.4966 1270.8865,-640.4966 1263.8865,-640.4965"/>
</g>
<!-- GO:0003824&#45;&gt;GO:0003674 -->
<g id="edge19" class="edge">
<title>GO:0003824&#45;&gt;GO:0003674</title>
<path fill="none" stroke="#000000" d="M891.3864,-691.8553C891.3864,-708.5242 891.3864,-732.2401 891.3864,-751.2189"/>
<polygon fill="#000000" stroke="#000000" points="887.8865,-751.478 891.3864,-761.478 894.8865,-751.478 887.8865,-751.478"/>
</g>
<!-- GO:0005215&#45;&gt;GO:0003674 -->
<g id="edge20" class="edge">
<title>GO:0005215&#45;&gt;GO:0003674</title>
<path fill="none" stroke="#000000" d="M1011.0813,-691.8553C987.4061,-709.7647 952.9772,-735.8089 927.1153,-755.3724"/>
<polygon fill="#000000" stroke="#000000" points="924.9077,-752.6537 919.0441,-761.478 929.1308,-758.2364 924.9077,-752.6537"/>
</g>
<!-- GO:0016818 -->
<g id="node20" class="node">
<title>GO:0016818</title>
<polygon fill="#ffffff" stroke="#000000" points="1339.6981,-836.7002 1195.0747,-836.7002 1195.0747,-728.0998 1339.6981,-728.0998 1339.6981,-836.7002"/>
<text text-anchor="middle" x="1267.3864" y="-820.2" font-family="Times,serif" font-size="14.00" fill="#000000">GO:0016818</text>
<text text-anchor="middle" x="1267.3864" y="-803.4" font-family="Times,serif" font-size="14.00" fill="#000000">hydrolase activity,</text>
<text text-anchor="middle" x="1267.3864" y="-786.6" font-family="Times,serif" font-size="14.00" fill="#000000">acting on acid</text>
<text text-anchor="middle" x="1267.3864" y="-769.8" font-family="Times,serif" font-size="14.00" fill="#000000">anhydrides, in</text>
<text text-anchor="middle" x="1267.3864" y="-753" font-family="Times,serif" font-size="14.00" fill="#000000">phosphorus&#45;containing</text>
<text text-anchor="middle" x="1267.3864" y="-736.2" font-family="Times,serif" font-size="14.00" fill="#000000">anhydrides</text>
</g>
<!-- GO:0016462&#45;&gt;GO:0016818 -->
<g id="edge21" class="edge">
<title>GO:0016462&#45;&gt;GO:0016818</title>
<path fill="none" stroke="#000000" d="M1267.3864,-691.8553C1267.3864,-699.4198 1267.3864,-708.4357 1267.3864,-717.8015"/>
<polygon fill="#000000" stroke="#000000" points="1263.8865,-718.0495 1267.3864,-728.0496 1270.8865,-718.0496 1263.8865,-718.0495"/>
</g>
<!-- GO:0035639 -->
<g id="node21" class="node">
<title>GO:0035639</title>
<polygon fill="#ffffff" stroke="#000000" points="270.0734,-400.6014 132.6994,-400.6014 132.6994,-341.7986 270.0734,-341.7986 270.0734,-400.6014"/>
<text text-anchor="middle" x="201.3864" y="-383.8" font-family="Times,serif" font-size="14.00" fill="#000000">GO:0035639</text>
<text text-anchor="middle" x="201.3864" y="-367" font-family="Times,serif" font-size="14.00" fill="#000000">purine ribonucleoside</text>
<text text-anchor="middle" x="201.3864" y="-350.2" font-family="Times,serif" font-size="14.00" fill="#000000">triphosphate binding</text>
</g>
<!-- GO:1901265 -->
<g id="node22" class="node">
<title>GO:1901265</title>
<polygon fill="#ffffff" stroke="#000000" points="311.5205,-520.2014 175.2523,-520.2014 175.2523,-461.3986 311.5205,-461.3986 311.5205,-520.2014"/>
<text text-anchor="middle" x="243.3864" y="-503.4" font-family="Times,serif" font-size="14.00" fill="#000000">GO:1901265</text>
<text text-anchor="middle" x="243.3864" y="-486.6" font-family="Times,serif" font-size="14.00" fill="#000000">nucleoside phosphate</text>
<text text-anchor="middle" x="243.3864" y="-469.8" font-family="Times,serif" font-size="14.00" fill="#000000">binding</text>
</g>
<!-- GO:0035639&#45;&gt;GO:1901265 -->
<g id="edge22" class="edge">
<title>GO:0035639&#45;&gt;GO:1901265</title>
<path fill="none" stroke="#000000" d="M211.6608,-400.4575C217.1014,-415.9504 223.855,-435.182 229.7309,-451.9143"/>
<polygon fill="#000000" stroke="#000000" points="226.4568,-453.1546 233.0725,-461.4301 233.0614,-450.8352 226.4568,-453.1546"/>
</g>
<!-- GO:0097159 -->
<g id="node23" class="node">
<title>GO:0097159</title>
<polygon fill="#ffffff" stroke="#000000" points="313.8978,-614.6014 156.875,-614.6014 156.875,-555.7986 313.8978,-555.7986 313.8978,-614.6014"/>
<text text-anchor="middle" x="235.3864" y="-597.8" font-family="Times,serif" font-size="14.00" fill="#000000">GO:0097159</text>
<text text-anchor="middle" x="235.3864" y="-581" font-family="Times,serif" font-size="14.00" fill="#000000">organic cyclic compound</text>
<text text-anchor="middle" x="235.3864" y="-564.2" font-family="Times,serif" font-size="14.00" fill="#000000">binding</text>
</g>
<!-- GO:1901265&#45;&gt;GO:0097159 -->
<g id="edge23" class="edge">
<title>GO:1901265&#45;&gt;GO:0097159</title>
<path fill="none" stroke="#000000" d="M240.899,-520.1513C240.2142,-528.2318 239.4601,-537.1308 238.7352,-545.6838"/>
<polygon fill="#000000" stroke="#000000" points="235.2293,-545.607 237.8723,-555.8669 242.2043,-546.1982 235.2293,-545.607"/>
</g>
<!-- GO:1901363 -->
<g id="node24" class="node">
<title>GO:1901363</title>
<polygon fill="#ffffff" stroke="#000000" points="478.897,-614.6014 331.8758,-614.6014 331.8758,-555.7986 478.897,-555.7986 478.897,-614.6014"/>
<text text-anchor="middle" x="405.3864" y="-597.8" font-family="Times,serif" font-size="14.00" fill="#000000">GO:1901363</text>
<text text-anchor="middle" x="405.3864" y="-581" font-family="Times,serif" font-size="14.00" fill="#000000">heterocyclic compound</text>
<text text-anchor="middle" x="405.3864" y="-564.2" font-family="Times,serif" font-size="14.00" fill="#000000">binding</text>
</g>
<!-- GO:1901265&#45;&gt;GO:1901363 -->
<g id="edge24" class="edge">
<title>GO:1901265&#45;&gt;GO:1901363</title>
<path fill="none" stroke="#000000" d="M293.7562,-520.1513C310.3661,-529.8301 328.9912,-540.6833 346.1975,-550.7097"/>
<polygon fill="#000000" stroke="#000000" points="344.6455,-553.8561 355.0478,-555.8669 348.1698,-547.808 344.6455,-553.8561"/>
</g>
<!-- GO:0097159&#45;&gt;GO:0005488 -->
<g id="edge25" class="edge">
<title>GO:0097159&#45;&gt;GO:0005488</title>
<path fill="none" stroke="#000000" d="M314.0503,-611.9395C353.0319,-625.1902 399.1207,-640.8567 434.117,-652.7527"/>
<polygon fill="#000000" stroke="#000000" points="433.084,-656.0982 443.6784,-656.0028 435.3369,-649.4706 433.084,-656.0982"/>
</g>
<!-- GO:1901363&#45;&gt;GO:0005488 -->
<g id="edge26" class="edge">
<title>GO:1901363&#45;&gt;GO:0005488</title>
<path fill="none" stroke="#000000" d="M433.9503,-614.7963C442.8159,-623.9824 452.5567,-634.0752 461.3174,-643.1526"/>
<polygon fill="#000000" stroke="#000000" points="458.9423,-645.7316 468.4052,-650.4966 463.9791,-640.8705 458.9423,-645.7316"/>
</g>
<!-- GO:0032550 -->
<g id="node25" class="node">
<title>GO:0032550</title>
<polygon fill="#ffffff" stroke="#000000" points="746.0734,-272.6014 608.6994,-272.6014 608.6994,-213.7986 746.0734,-213.7986 746.0734,-272.6014"/>
<text text-anchor="middle" x="677.3864" y="-255.8" font-family="Times,serif" font-size="14.00" fill="#000000">GO:0032550</text>
<text text-anchor="middle" x="677.3864" y="-239" font-family="Times,serif" font-size="14.00" fill="#000000">purine ribonucleoside</text>
<text text-anchor="middle" x="677.3864" y="-222.2" font-family="Times,serif" font-size="14.00" fill="#000000">binding</text>
</g>
<!-- GO:0001883 -->
<g id="node26" class="node">
<title>GO:0001883</title>
<polygon fill="#ffffff" stroke="#000000" points="588.3035,-391.8019 426.4693,-391.8019 426.4693,-350.5981 588.3035,-350.5981 588.3035,-391.8019"/>
<text text-anchor="middle" x="507.3864" y="-375.4" font-family="Times,serif" font-size="14.00" fill="#000000">GO:0001883</text>
<text text-anchor="middle" x="507.3864" y="-358.6" font-family="Times,serif" font-size="14.00" fill="#000000">purine nucleoside binding</text>
</g>
<!-- GO:0032550&#45;&gt;GO:0001883 -->
<g id="edge27" class="edge">
<title>GO:0032550&#45;&gt;GO:0001883</title>
<path fill="none" stroke="#000000" d="M638.385,-272.5658C609.6906,-294.1709 570.9882,-323.3116 543.1003,-344.3095"/>
<polygon fill="#000000" stroke="#000000" points="540.6991,-341.7363 534.8157,-350.5474 544.9097,-347.3284 540.6991,-341.7363"/>
</g>
<!-- GO:0032549 -->
<g id="node27" class="node">
<title>GO:0032549</title>
<polygon fill="#ffffff" stroke="#000000" points="750.5887,-391.8019 606.1841,-391.8019 606.1841,-350.5981 750.5887,-350.5981 750.5887,-391.8019"/>
<text text-anchor="middle" x="678.3864" y="-375.4" font-family="Times,serif" font-size="14.00" fill="#000000">GO:0032549</text>
<text text-anchor="middle" x="678.3864" y="-358.6" font-family="Times,serif" font-size="14.00" fill="#000000">ribonucleoside binding</text>
</g>
<!-- GO:0032550&#45;&gt;GO:0032549 -->
<g id="edge28" class="edge">
<title>GO:0032550&#45;&gt;GO:0032549</title>
<path fill="none" stroke="#000000" d="M677.6158,-272.5658C677.7739,-292.8043 677.9837,-319.6552 678.1445,-340.2312"/>
<polygon fill="#000000" stroke="#000000" points="674.6454,-340.3785 678.2235,-350.3508 681.6452,-340.3238 674.6454,-340.3785"/>
</g>
<!-- GO:0001882 -->
<g id="node28" class="node">
<title>GO:0001882</title>
<polygon fill="#ffffff" stroke="#000000" points="599.5373,-511.4019 477.2355,-511.4019 477.2355,-470.1981 599.5373,-470.1981 599.5373,-511.4019"/>
<text text-anchor="middle" x="538.3864" y="-495" font-family="Times,serif" font-size="14.00" fill="#000000">GO:0001882</text>
<text text-anchor="middle" x="538.3864" y="-478.2" font-family="Times,serif" font-size="14.00" fill="#000000">nucleoside binding</text>
</g>
<!-- GO:0001883&#45;&gt;GO:0001882 -->
<g id="edge29" class="edge">
<title>GO:0001883&#45;&gt;GO:0001882</title>
<path fill="none" stroke="#000000" d="M512.7862,-392.0327C517.6461,-410.7825 524.8524,-438.5848 530.3822,-459.9191"/>
<polygon fill="#000000" stroke="#000000" points="527.0473,-461.0028 532.9445,-469.8047 533.8234,-459.2464 527.0473,-461.0028"/>
</g>
<!-- GO:0032549&#45;&gt;GO:0001882 -->
<g id="edge30" class="edge">
<title>GO:0032549&#45;&gt;GO:0001882</title>
<path fill="none" stroke="#000000" d="M654.0003,-392.0327C630.955,-411.72 596.2269,-441.3877 570.8477,-463.0688"/>
<polygon fill="#000000" stroke="#000000" points="568.2927,-460.6481 562.9628,-469.8047 572.8395,-465.9705 568.2927,-460.6481"/>
</g>
<!-- GO:0001882&#45;&gt;GO:0097159 -->
<g id="edge34" class="edge">
<title>GO:0001882&#45;&gt;GO:0097159</title>
<path fill="none" stroke="#000000" d="M477.2488,-508.7108C436.1974,-520.8628 380.6771,-537.5385 323.6138,-555.6354"/>
<polygon fill="#000000" stroke="#000000" points="322.5402,-552.3041 314.0715,-558.6705 324.662,-558.9748 322.5402,-552.3041"/>
</g>
<!-- GO:0001882&#45;&gt;GO:1901363 -->
<g id="edge33" class="edge">
<title>GO:0001882&#45;&gt;GO:1901363</title>
<path fill="none" stroke="#000000" d="M509.199,-511.5165C493.2844,-522.8122 473.1545,-537.0999 454.8659,-550.0807"/>
<polygon fill="#000000" stroke="#000000" points="452.7433,-547.2952 446.6144,-555.9374 456.7949,-553.0035 452.7433,-547.2952"/>
</g>
<!-- GO:0036094 -->
<g id="node29" class="node">
<title>GO:0036094</title>
<polygon fill="#ffffff" stroke="#000000" points="644.3148,-605.8019 496.458,-605.8019 496.458,-564.5981 644.3148,-564.5981 644.3148,-605.8019"/>
<text text-anchor="middle" x="570.3864" y="-589.4" font-family="Times,serif" font-size="14.00" fill="#000000">GO:0036094</text>
<text text-anchor="middle" x="570.3864" y="-572.6" font-family="Times,serif" font-size="14.00" fill="#000000">small molecule binding</text>
</g>
<!-- GO:0001882&#45;&gt;GO:0036094 -->
<g id="edge31" class="edge">
<title>GO:0001882&#45;&gt;GO:0036094</title>
<path fill="none" stroke="#000000" d="M545.4882,-511.7504C549.7555,-524.3387 555.2608,-540.5795 560.0092,-554.5872"/>
<polygon fill="#000000" stroke="#000000" points="556.7792,-555.9611 563.3044,-564.3081 563.4087,-553.7138 556.7792,-555.9611"/>
</g>
<!-- GO:0097367 -->
<g id="node30" class="node">
<title>GO:0097367</title>
<polygon fill="#ffffff" stroke="#000000" points="810.4335,-614.6014 662.3393,-614.6014 662.3393,-555.7986 810.4335,-555.7986 810.4335,-614.6014"/>
<text text-anchor="middle" x="736.3864" y="-597.8" font-family="Times,serif" font-size="14.00" fill="#000000">GO:0097367</text>
<text text-anchor="middle" x="736.3864" y="-581" font-family="Times,serif" font-size="14.00" fill="#000000">carbohydrate derivative</text>
<text text-anchor="middle" x="736.3864" y="-564.2" font-family="Times,serif" font-size="14.00" fill="#000000">binding</text>
</g>
<!-- GO:0001882&#45;&gt;GO:0097367 -->
<g id="edge32" class="edge">
<title>GO:0001882&#45;&gt;GO:0097367</title>
<path fill="none" stroke="#000000" d="M581.8383,-511.5165C606.3844,-523.2193 637.6665,-538.1336 665.6575,-551.4787"/>
<polygon fill="#000000" stroke="#000000" points="664.4765,-554.7931 675.0094,-555.9374 667.4891,-548.4745 664.4765,-554.7931"/>
</g>
<!-- GO:0036094&#45;&gt;GO:0005488 -->
<g id="edge35" class="edge">
<title>GO:0036094&#45;&gt;GO:0005488</title>
<path fill="none" stroke="#000000" d="M550.5365,-606.0182C539.8599,-617.2156 526.5484,-631.1764 514.9869,-643.3019"/>
<polygon fill="#000000" stroke="#000000" points="512.4212,-640.9208 508.0535,-650.5735 517.4874,-645.7514 512.4212,-640.9208"/>
</g>
<!-- GO:0097367&#45;&gt;GO:0005488 -->
<g id="edge36" class="edge">
<title>GO:0097367&#45;&gt;GO:0005488</title>
<path fill="none" stroke="#000000" d="M662.1834,-611.333C659.2129,-612.3704 656.2717,-613.3958 653.3864,-614.4 616.5658,-627.2143 575.0693,-641.4984 542.9021,-652.5366"/>
<polygon fill="#000000" stroke="#000000" points="541.5577,-649.2975 533.2343,-655.8528 543.8289,-655.9188 541.5577,-649.2975"/>
</g>
<!-- GO:0032559 -->
<g id="node31" class="node">
<title>GO:0032559</title>
<polygon fill="#ffffff" stroke="#000000" points="500.0734,-58.6014 362.6994,-58.6014 362.6994,.2014 500.0734,.2014 500.0734,-58.6014"/>
<text text-anchor="middle" x="431.3864" y="-41.8" font-family="Times,serif" font-size="14.00" fill="#000000">GO:0032559</text>
<text text-anchor="middle" x="431.3864" y="-25" font-family="Times,serif" font-size="14.00" fill="#000000">adenyl ribonucleotide</text>
<text text-anchor="middle" x="431.3864" y="-8.2" font-family="Times,serif" font-size="14.00" fill="#000000">binding</text>
</g>
<!-- GO:0032555 -->
<g id="node32" class="node">
<title>GO:0032555</title>
<polygon fill="#ffffff" stroke="#000000" points="583.5191,-161.4014 447.2537,-161.4014 447.2537,-102.5986 583.5191,-102.5986 583.5191,-161.4014"/>
<text text-anchor="middle" x="515.3864" y="-144.6" font-family="Times,serif" font-size="14.00" fill="#000000">GO:0032555</text>
<text text-anchor="middle" x="515.3864" y="-127.8" font-family="Times,serif" font-size="14.00" fill="#000000">purine ribonucleotide</text>
<text text-anchor="middle" x="515.3864" y="-111" font-family="Times,serif" font-size="14.00" fill="#000000">binding</text>
</g>
<!-- GO:0032559&#45;&gt;GO:0032555 -->
<g id="edge37" class="edge">
<title>GO:0032559&#45;&gt;GO:0032555</title>
<path fill="none" stroke="#000000" d="M455.4574,-58.6584C464.5959,-69.8421 475.1286,-82.7321 484.7901,-94.556"/>
<polygon fill="#000000" stroke="#000000" points="482.2741,-97.0083 491.3119,-102.5373 487.6946,-92.5791 482.2741,-97.0083"/>
</g>
<!-- GO:0030554 -->
<g id="node33" class="node">
<title>GO:0030554</title>
<polygon fill="#ffffff" stroke="#000000" points="429.3035,-152.6019 267.4693,-152.6019 267.4693,-111.3981 429.3035,-111.3981 429.3035,-152.6019"/>
<text text-anchor="middle" x="348.3864" y="-136.2" font-family="Times,serif" font-size="14.00" fill="#000000">GO:0030554</text>
<text text-anchor="middle" x="348.3864" y="-119.4" font-family="Times,serif" font-size="14.00" fill="#000000">adenyl nucleotide binding</text>
</g>
<!-- GO:0032559&#45;&gt;GO:0030554 -->
<g id="edge38" class="edge">
<title>GO:0032559&#45;&gt;GO:0030554</title>
<path fill="none" stroke="#000000" d="M407.6019,-58.6584C396.2295,-72.7438 382.6719,-89.5355 371.4008,-103.4954"/>
<polygon fill="#000000" stroke="#000000" points="368.6214,-101.3664 365.0626,-111.3456 374.0678,-105.7638 368.6214,-101.3664"/>
</g>
<!-- GO:0017076 -->
<g id="node34" class="node">
<title>GO:0017076</title>
<polygon fill="#ffffff" stroke="#000000" points="428.2491,-263.8019 268.5237,-263.8019 268.5237,-222.5981 428.2491,-222.5981 428.2491,-263.8019"/>
<text text-anchor="middle" x="348.3864" y="-247.4" font-family="Times,serif" font-size="14.00" fill="#000000">GO:0017076</text>
<text text-anchor="middle" x="348.3864" y="-230.6" font-family="Times,serif" font-size="14.00" fill="#000000">purine nucleotide binding</text>
</g>
<!-- GO:0032555&#45;&gt;GO:0017076 -->
<g id="edge39" class="edge">
<title>GO:0032555&#45;&gt;GO:0017076</title>
<path fill="none" stroke="#000000" d="M471.5091,-161.2165C445.6616,-178.4276 413.2197,-200.0296 388.1268,-216.7381"/>
<polygon fill="#000000" stroke="#000000" points="385.9642,-213.9731 379.5805,-222.4288 389.844,-219.7996 385.9642,-213.9731"/>
</g>
<!-- GO:0032553 -->
<g id="node35" class="node">
<title>GO:0032553</title>
<polygon fill="#ffffff" stroke="#000000" points="590.0345,-263.8019 446.7383,-263.8019 446.7383,-222.5981 590.0345,-222.5981 590.0345,-263.8019"/>
<text text-anchor="middle" x="518.3864" y="-247.4" font-family="Times,serif" font-size="14.00" fill="#000000">GO:0032553</text>
<text text-anchor="middle" x="518.3864" y="-230.6" font-family="Times,serif" font-size="14.00" fill="#000000">ribonucleotide binding</text>
</g>
<!-- GO:0032555&#45;&gt;GO:0032553 -->
<g id="edge40" class="edge">
<title>GO:0032555&#45;&gt;GO:0032553</title>
<path fill="none" stroke="#000000" d="M516.1746,-161.2165C516.595,-176.797 517.1124,-195.9758 517.541,-211.8653"/>
<polygon fill="#000000" stroke="#000000" points="514.0528,-212.3536 517.8214,-222.2556 521.0503,-212.1648 514.0528,-212.3536"/>
</g>
<!-- GO:0030554&#45;&gt;GO:0017076 -->
<g id="edge41" class="edge">
<title>GO:0030554&#45;&gt;GO:0017076</title>
<path fill="none" stroke="#000000" d="M348.3864,-152.6553C348.3864,-169.3242 348.3864,-193.0401 348.3864,-212.0189"/>
<polygon fill="#000000" stroke="#000000" points="344.8865,-212.278 348.3864,-222.278 351.8865,-212.278 344.8865,-212.278"/>
</g>
<!-- GO:0000166 -->
<g id="node36" class="node">
<title>GO:0000166</title>
<polygon fill="#ffffff" stroke="#000000" points="408.4839,-391.8019 288.2889,-391.8019 288.2889,-350.5981 408.4839,-350.5981 408.4839,-391.8019"/>
<text text-anchor="middle" x="348.3864" y="-375.4" font-family="Times,serif" font-size="14.00" fill="#000000">GO:0000166</text>
<text text-anchor="middle" x="348.3864" y="-358.6" font-family="Times,serif" font-size="14.00" fill="#000000">nucleotide binding</text>
</g>
<!-- GO:0017076&#45;&gt;GO:0000166 -->
<g id="edge42" class="edge">
<title>GO:0017076&#45;&gt;GO:0000166</title>
<path fill="none" stroke="#000000" d="M348.3864,-264.0503C348.3864,-284.6914 348.3864,-316.5413 348.3864,-340.1573"/>
<polygon fill="#000000" stroke="#000000" points="344.8865,-340.3586 348.3864,-350.3586 351.8865,-340.3587 344.8865,-340.3586"/>
</g>
<!-- GO:0032553&#45;&gt;GO:0097367 -->
<g id="edge43" class="edge">
<title>GO:0032553&#45;&gt;GO:0097367</title>
<path fill="none" stroke="#000000" d="M558.4821,-263.8702C571.3141,-269.9236 585.7364,-276.1557 599.3864,-280.8 668.3905,-304.2781 713.8531,-259.8833 759.3864,-316.8 812.2749,-382.9106 778.8634,-489.7344 754.7574,-546.6335"/>
<polygon fill="#000000" stroke="#000000" points="751.4668,-545.4238 750.6856,-555.9898 757.8854,-548.2171 751.4668,-545.4238"/>
</g>
<!-- GO:0032553&#45;&gt;GO:0000166 -->
<g id="edge44" class="edge">
<title>GO:0032553&#45;&gt;GO:0000166</title>
<path fill="none" stroke="#000000" d="M489.4396,-263.8509C469.1298,-278.4477 441.4188,-298.5803 417.3864,-316.8 405.7461,-325.6248 393.1598,-335.4592 381.9638,-344.3131"/>
<polygon fill="#000000" stroke="#000000" points="379.75,-341.6017 374.0906,-350.5584 384.1002,-347.0859 379.75,-341.6017"/>
</g>
<!-- GO:0000166&#45;&gt;GO:1901265 -->
<g id="edge46" class="edge">
<title>GO:0000166&#45;&gt;GO:1901265</title>
<path fill="none" stroke="#000000" d="M330.0968,-392.0327C315.1961,-409.0053 293.7832,-433.3956 275.965,-453.6915"/>
<polygon fill="#000000" stroke="#000000" points="273.3004,-451.4215 269.333,-461.2455 278.5608,-456.0398 273.3004,-451.4215"/>
</g>
<!-- GO:0000166&#45;&gt;GO:0036094 -->
<g id="edge45" class="edge">
<title>GO:0000166&#45;&gt;GO:0036094</title>
<path fill="none" stroke="#000000" d="M361.8993,-391.9644C382.4112,-422.4518 423.7661,-480.0327 468.3864,-520 484.7998,-534.7018 504.8774,-548.2973 522.8648,-559.2268"/>
<polygon fill="#000000" stroke="#000000" points="521.1193,-562.261 531.5019,-564.3712 524.7014,-556.2469 521.1193,-562.261"/>
</g>
<!-- GO:0046872 -->
<g id="node37" class="node">
<title>GO:0046872</title>
<polygon fill="#ffffff" stroke="#000000" points="114.6594,-391.8019 .1134,-391.8019 .1134,-350.5981 114.6594,-350.5981 114.6594,-391.8019"/>
<text text-anchor="middle" x="57.3864" y="-375.4" font-family="Times,serif" font-size="14.00" fill="#000000">GO:0046872</text>
<text text-anchor="middle" x="57.3864" y="-358.6" font-family="Times,serif" font-size="14.00" fill="#000000">metal ion binding</text>
</g>
<!-- GO:0046872&#45;&gt;GO:0043169 -->
<g id="edge47" class="edge">
<title>GO:0046872&#45;&gt;GO:0043169</title>
<path fill="none" stroke="#000000" d="M59.1283,-392.0327C60.6888,-410.6973 62.9995,-438.3322 64.78,-459.6278"/>
<polygon fill="#000000" stroke="#000000" points="61.3098,-460.1311 65.6309,-469.8047 68.2855,-459.5478 61.3098,-460.1311"/>
</g>
</g>
</svg>
