<?xml version="1.0" encoding="UTF-8" standalone="no"?>
<!DOCTYPE svg PUBLIC "-//W3C//DTD SVG 1.1//EN"
 "http://www.w3.org/Graphics/SVG/1.1/DTD/svg11.dtd">
<!-- Generated by graphviz version 2.40.1 (20161225.0304)
 -->
<!-- Title: G Pages: 1 -->
<svg width="1134pt" height="960pt"
 viewBox="0.00 0.00 1133.99 960.00" xmlns="http://www.w3.org/2000/svg" xmlns:xlink="http://www.w3.org/1999/xlink">
<g id="graph0" class="graph" transform="scale(1 1) rotate(0) translate(4 956)">
<title>G</title>
<polygon fill="#ffffff" stroke="transparent" points="-4,4 -4,-956 1129.9888,-956 1129.9888,4 -4,4"/>
<!-- GO:0098716 -->
<g id="node1" class="node">
<title>GO:0098716</title>
<polygon fill="#ffffff" stroke="#000000" points="626.6568,-58.6014 470.217,-58.6014 470.217,.2014 626.6568,.2014 626.6568,-58.6014"/>
<text text-anchor="middle" x="548.4369" y="-41.8" font-family="Times,serif" font-size="14.00" fill="#000000">GO:0098716</text>
<text text-anchor="middle" x="548.4369" y="-25" font-family="Times,serif" font-size="14.00" fill="#000000">nickel cation import</text>
<text text-anchor="middle" x="548.4369" y="-8.2" font-family="Times,serif" font-size="14.00" fill="#000000">across plasma membrane</text>
</g>
<!-- GO:0090509 -->
<g id="node2" class="node">
<title>GO:0090509</title>
<polygon fill="#ffffff" stroke="#000000" points="452.4713,-153.0014 298.4025,-153.0014 298.4025,-94.1986 452.4713,-94.1986 452.4713,-153.0014"/>
<text text-anchor="middle" x="375.4369" y="-136.2" font-family="Times,serif" font-size="14.00" fill="#000000">GO:0090509</text>
<text text-anchor="middle" x="375.4369" y="-119.4" font-family="Times,serif" font-size="14.00" fill="#000000">nickel cation import into</text>
<text text-anchor="middle" x="375.4369" y="-102.6" font-family="Times,serif" font-size="14.00" fill="#000000">cell</text>
</g>
<!-- GO:0098716&#45;&gt;GO:0090509 -->
<g id="edge1" class="edge">
<title>GO:0098716&#45;&gt;GO:0090509</title>
<path fill="none" stroke="#000000" d="M494.6469,-58.5513C476.7465,-68.3189 456.6543,-79.2825 438.1395,-89.3854"/>
<polygon fill="#000000" stroke="#000000" points="436.2953,-86.4045 429.1936,-94.2669 439.6483,-92.5492 436.2953,-86.4045"/>
</g>
<!-- GO:0098739 -->
<g id="node3" class="node">
<title>GO:0098739</title>
<polygon fill="#ffffff" stroke="#000000" points="772.9033,-530.6014 637.9705,-530.6014 637.9705,-471.7986 772.9033,-471.7986 772.9033,-530.6014"/>
<text text-anchor="middle" x="705.4369" y="-513.8" font-family="Times,serif" font-size="14.00" fill="#000000">GO:0098739</text>
<text text-anchor="middle" x="705.4369" y="-497" font-family="Times,serif" font-size="14.00" fill="#000000">import across plasma</text>
<text text-anchor="middle" x="705.4369" y="-480.2" font-family="Times,serif" font-size="14.00" fill="#000000">membrane</text>
</g>
<!-- GO:0098716&#45;&gt;GO:0098739 -->
<g id="edge2" class="edge">
<title>GO:0098716&#45;&gt;GO:0098739</title>
<path fill="none" stroke="#000000" d="M584.2064,-58.5422C621.4575,-92.6199 674.4369,-152.5847 674.4369,-218 674.4369,-218 674.4369,-218 674.4369,-312.4 674.4369,-364.471 686.0611,-423.5656 695.0733,-461.5566"/>
<polygon fill="#000000" stroke="#000000" points="691.7728,-462.7976 697.5341,-471.6891 698.5751,-461.1455 691.7728,-462.7976"/>
</g>
<!-- GO:0098659 -->
<g id="node4" class="node">
<title>GO:0098659</title>
<polygon fill="#ffffff" stroke="#000000" points="622.3513,-436.2014 474.5225,-436.2014 474.5225,-377.3986 622.3513,-377.3986 622.3513,-436.2014"/>
<text text-anchor="middle" x="548.4369" y="-419.4" font-family="Times,serif" font-size="14.00" fill="#000000">GO:0098659</text>
<text text-anchor="middle" x="548.4369" y="-402.6" font-family="Times,serif" font-size="14.00" fill="#000000">inorganic cation import</text>
<text text-anchor="middle" x="548.4369" y="-385.8" font-family="Times,serif" font-size="14.00" fill="#000000">into cell</text>
</g>
<!-- GO:0098716&#45;&gt;GO:0098659 -->
<g id="edge3" class="edge">
<title>GO:0098716&#45;&gt;GO:0098659</title>
<path fill="none" stroke="#000000" d="M548.4369,-58.5154C548.4369,-125.7891 548.4369,-291.2978 548.4369,-367.3806"/>
<polygon fill="#000000" stroke="#000000" points="544.937,-367.5032 548.4369,-377.5032 551.937,-367.5033 544.937,-367.5032"/>
</g>
<!-- GO:0035444 -->
<g id="node5" class="node">
<title>GO:0035444</title>
<polygon fill="#ffffff" stroke="#000000" points="384.9951,-247.4014 229.8787,-247.4014 229.8787,-188.5986 384.9951,-188.5986 384.9951,-247.4014"/>
<text text-anchor="middle" x="307.4369" y="-230.6" font-family="Times,serif" font-size="14.00" fill="#000000">GO:0035444</text>
<text text-anchor="middle" x="307.4369" y="-213.8" font-family="Times,serif" font-size="14.00" fill="#000000">nickel cation</text>
<text text-anchor="middle" x="307.4369" y="-197" font-family="Times,serif" font-size="14.00" fill="#000000">transmembrane transport</text>
</g>
<!-- GO:0090509&#45;&gt;GO:0035444 -->
<g id="edge4" class="edge">
<title>GO:0090509&#45;&gt;GO:0035444</title>
<path fill="none" stroke="#000000" d="M354.294,-152.9513C348.0256,-161.6534 341.0734,-171.3047 334.4849,-180.4509"/>
<polygon fill="#000000" stroke="#000000" points="331.5717,-178.5071 328.5667,-188.6669 337.2515,-182.5985 331.5717,-178.5071"/>
</g>
<!-- GO:0098657 -->
<g id="node6" class="node">
<title>GO:0098657</title>
<polygon fill="#ffffff" stroke="#000000" points="600.7614,-607.8019 498.1124,-607.8019 498.1124,-566.5981 600.7614,-566.5981 600.7614,-607.8019"/>
<text text-anchor="middle" x="549.4369" y="-591.4" font-family="Times,serif" font-size="14.00" fill="#000000">GO:0098657</text>
<text text-anchor="middle" x="549.4369" y="-574.6" font-family="Times,serif" font-size="14.00" fill="#000000">import into cell</text>
</g>
<!-- GO:0098739&#45;&gt;GO:0098657 -->
<g id="edge5" class="edge">
<title>GO:0098739&#45;&gt;GO:0098657</title>
<path fill="none" stroke="#000000" d="M652.1869,-530.5558C633.9973,-540.5834 613.8043,-551.7154 596.1675,-561.4383"/>
<polygon fill="#000000" stroke="#000000" points="594.2694,-558.488 587.2017,-566.3809 597.6489,-564.6182 594.2694,-558.488"/>
</g>
<!-- GO:0055085 -->
<g id="node7" class="node">
<title>GO:0055085</title>
<polygon fill="#ffffff" stroke="#000000" points="782.9951,-607.8019 627.8787,-607.8019 627.8787,-566.5981 782.9951,-566.5981 782.9951,-607.8019"/>
<text text-anchor="middle" x="705.4369" y="-591.4" font-family="Times,serif" font-size="14.00" fill="#000000">GO:0055085</text>
<text text-anchor="middle" x="705.4369" y="-574.6" font-family="Times,serif" font-size="14.00" fill="#000000">transmembrane transport</text>
</g>
<!-- GO:0098739&#45;&gt;GO:0055085 -->
<g id="edge6" class="edge">
<title>GO:0098739&#45;&gt;GO:0055085</title>
<path fill="none" stroke="#000000" d="M705.4369,-530.7963C705.4369,-539.0638 705.4369,-548.0657 705.4369,-556.4008"/>
<polygon fill="#000000" stroke="#000000" points="701.937,-556.4965 705.4369,-566.4966 708.937,-556.4966 701.937,-556.4965"/>
</g>
<!-- GO:0006812 -->
<g id="node8" class="node">
<title>GO:0006812</title>
<polygon fill="#ffffff" stroke="#000000" points="445.41,-521.8019 341.4638,-521.8019 341.4638,-480.5981 445.41,-480.5981 445.41,-521.8019"/>
<text text-anchor="middle" x="393.4369" y="-505.4" font-family="Times,serif" font-size="14.00" fill="#000000">GO:0006812</text>
<text text-anchor="middle" x="393.4369" y="-488.6" font-family="Times,serif" font-size="14.00" fill="#000000">cation transport</text>
</g>
<!-- GO:0098659&#45;&gt;GO:0006812 -->
<g id="edge7" class="edge">
<title>GO:0098659&#45;&gt;GO:0006812</title>
<path fill="none" stroke="#000000" d="M500.2436,-436.1513C479.6518,-448.6923 455.8229,-463.2049 435.9043,-475.336"/>
<polygon fill="#000000" stroke="#000000" points="434.0617,-472.3601 427.3415,-480.551 437.7028,-478.3386 434.0617,-472.3601"/>
</g>
<!-- GO:0099587 -->
<g id="node9" class="node">
<title>GO:0099587</title>
<polygon fill="#ffffff" stroke="#000000" points="619.8126,-530.6014 463.0612,-530.6014 463.0612,-471.7986 619.8126,-471.7986 619.8126,-530.6014"/>
<text text-anchor="middle" x="541.4369" y="-513.8" font-family="Times,serif" font-size="14.00" fill="#000000">GO:0099587</text>
<text text-anchor="middle" x="541.4369" y="-497" font-family="Times,serif" font-size="14.00" fill="#000000">inorganic ion import into</text>
<text text-anchor="middle" x="541.4369" y="-480.2" font-family="Times,serif" font-size="14.00" fill="#000000">cell</text>
</g>
<!-- GO:0098659&#45;&gt;GO:0099587 -->
<g id="edge8" class="edge">
<title>GO:0098659&#45;&gt;GO:0099587</title>
<path fill="none" stroke="#000000" d="M546.2604,-436.1513C545.6612,-444.2318 545.0014,-453.1308 544.3671,-461.6838"/>
<polygon fill="#000000" stroke="#000000" points="540.8612,-461.6354 543.612,-471.8669 547.842,-462.1531 540.8612,-461.6354"/>
</g>
<!-- GO:0015675 -->
<g id="node10" class="node">
<title>GO:0015675</title>
<polygon fill="#ffffff" stroke="#000000" points="173.1194,-333.0019 31.7544,-333.0019 31.7544,-291.7981 173.1194,-291.7981 173.1194,-333.0019"/>
<text text-anchor="middle" x="102.4369" y="-316.6" font-family="Times,serif" font-size="14.00" fill="#000000">GO:0015675</text>
<text text-anchor="middle" x="102.4369" y="-299.8" font-family="Times,serif" font-size="14.00" fill="#000000">nickel cation transport</text>
</g>
<!-- GO:0035444&#45;&gt;GO:0015675 -->
<g id="edge9" class="edge">
<title>GO:0035444&#45;&gt;GO:0015675</title>
<path fill="none" stroke="#000000" d="M243.9775,-247.2223C215.9974,-260.1068 183.4541,-275.0926 156.6321,-287.4438"/>
<polygon fill="#000000" stroke="#000000" points="155.0195,-284.333 147.4003,-291.6949 157.9475,-290.6913 155.0195,-284.333"/>
</g>
<!-- GO:0098662 -->
<g id="node11" class="node">
<title>GO:0098662</title>
<polygon fill="#ffffff" stroke="#000000" points="384.9951,-341.8014 229.8787,-341.8014 229.8787,-282.9986 384.9951,-282.9986 384.9951,-341.8014"/>
<text text-anchor="middle" x="307.4369" y="-325" font-family="Times,serif" font-size="14.00" fill="#000000">GO:0098662</text>
<text text-anchor="middle" x="307.4369" y="-308.2" font-family="Times,serif" font-size="14.00" fill="#000000">inorganic cation</text>
<text text-anchor="middle" x="307.4369" y="-291.4" font-family="Times,serif" font-size="14.00" fill="#000000">transmembrane transport</text>
</g>
<!-- GO:0035444&#45;&gt;GO:0098662 -->
<g id="edge10" class="edge">
<title>GO:0035444&#45;&gt;GO:0098662</title>
<path fill="none" stroke="#000000" d="M307.4369,-247.3513C307.4369,-255.4318 307.4369,-264.3308 307.4369,-272.8838"/>
<polygon fill="#000000" stroke="#000000" points="303.937,-273.0668 307.4369,-283.0669 310.937,-273.0669 303.937,-273.0668"/>
</g>
<!-- GO:0006810 -->
<g id="node12" class="node">
<title>GO:0006810</title>
<polygon fill="#ffffff" stroke="#000000" points="545.0408,-771.4019 455.833,-771.4019 455.833,-730.1981 545.0408,-730.1981 545.0408,-771.4019"/>
<text text-anchor="middle" x="500.4369" y="-755" font-family="Times,serif" font-size="14.00" fill="#000000">GO:0006810</text>
<text text-anchor="middle" x="500.4369" y="-738.2" font-family="Times,serif" font-size="14.00" fill="#000000">transport</text>
</g>
<!-- GO:0098657&#45;&gt;GO:0006810 -->
<g id="edge11" class="edge">
<title>GO:0098657&#45;&gt;GO:0006810</title>
<path fill="none" stroke="#000000" d="M539.6817,-607.917C534.9373,-618.5413 529.4152,-631.7852 525.4369,-644 517.2268,-669.208 510.5528,-698.584 506.1722,-720.1396"/>
<polygon fill="#000000" stroke="#000000" points="502.7209,-719.551 504.2093,-730.0407 509.5872,-720.9123 502.7209,-719.551"/>
</g>
<!-- GO:0044765 -->
<g id="node13" class="node">
<title>GO:0044765</title>
<polygon fill="#ffffff" stroke="#000000" points="694.4012,-685.4019 534.4726,-685.4019 534.4726,-644.1981 694.4012,-644.1981 694.4012,-685.4019"/>
<text text-anchor="middle" x="614.4369" y="-669" font-family="Times,serif" font-size="14.00" fill="#000000">GO:0044765</text>
<text text-anchor="middle" x="614.4369" y="-652.2" font-family="Times,serif" font-size="14.00" fill="#000000">single&#45;organism transport</text>
</g>
<!-- GO:0055085&#45;&gt;GO:0044765 -->
<g id="edge12" class="edge">
<title>GO:0055085&#45;&gt;GO:0044765</title>
<path fill="none" stroke="#000000" d="M681.0506,-607.9954C670.4422,-617.0416 657.8663,-627.7657 646.5146,-637.4458"/>
<polygon fill="#000000" stroke="#000000" points="644.2286,-634.7954 638.8905,-643.9472 648.7707,-640.1218 644.2286,-634.7954"/>
</g>
<!-- GO:0044763 -->
<g id="node14" class="node">
<title>GO:0044763</title>
<polygon fill="#ffffff" stroke="#000000" points="839.1154,-780.2014 687.7584,-780.2014 687.7584,-721.3986 839.1154,-721.3986 839.1154,-780.2014"/>
<text text-anchor="middle" x="763.4369" y="-763.4" font-family="Times,serif" font-size="14.00" fill="#000000">GO:0044763</text>
<text text-anchor="middle" x="763.4369" y="-746.6" font-family="Times,serif" font-size="14.00" fill="#000000">single&#45;organism cellular</text>
<text text-anchor="middle" x="763.4369" y="-729.8" font-family="Times,serif" font-size="14.00" fill="#000000">process</text>
</g>
<!-- GO:0055085&#45;&gt;GO:0044763 -->
<g id="edge13" class="edge">
<title>GO:0055085&#45;&gt;GO:0044763</title>
<path fill="none" stroke="#000000" d="M712.7826,-607.9201C722.0093,-633.9455 738.0303,-679.136 749.5875,-711.7352"/>
<polygon fill="#000000" stroke="#000000" points="746.3781,-713.1572 753.0185,-721.4129 752.9758,-710.8181 746.3781,-713.1572"/>
</g>
<!-- GO:0006811 -->
<g id="node15" class="node">
<title>GO:0006811</title>
<polygon fill="#ffffff" stroke="#000000" points="480.0408,-607.8019 390.833,-607.8019 390.833,-566.5981 480.0408,-566.5981 480.0408,-607.8019"/>
<text text-anchor="middle" x="435.4369" y="-591.4" font-family="Times,serif" font-size="14.00" fill="#000000">GO:0006811</text>
<text text-anchor="middle" x="435.4369" y="-574.6" font-family="Times,serif" font-size="14.00" fill="#000000">ion transport</text>
</g>
<!-- GO:0006812&#45;&gt;GO:0006811 -->
<g id="edge14" class="edge">
<title>GO:0006812&#45;&gt;GO:0006811</title>
<path fill="none" stroke="#000000" d="M403.6039,-522.0182C408.8145,-532.6874 415.2503,-545.8655 420.9685,-557.5743"/>
<polygon fill="#000000" stroke="#000000" points="417.8301,-559.1238 425.3635,-566.5735 424.1201,-556.0519 417.8301,-559.1238"/>
</g>
<!-- GO:0099587&#45;&gt;GO:0098657 -->
<g id="edge15" class="edge">
<title>GO:0099587&#45;&gt;GO:0098657</title>
<path fill="none" stroke="#000000" d="M544.19,-530.7963C544.9591,-539.0638 545.7965,-548.0657 546.5719,-556.4008"/>
<polygon fill="#000000" stroke="#000000" points="543.0997,-556.8638 547.511,-566.4966 550.0696,-556.2153 543.0997,-556.8638"/>
</g>
<!-- GO:0099587&#45;&gt;GO:0006811 -->
<g id="edge16" class="edge">
<title>GO:0099587&#45;&gt;GO:0006811</title>
<path fill="none" stroke="#000000" d="M505.2542,-530.5558C493.5749,-540.0314 480.6802,-550.4932 469.184,-559.8203"/>
<polygon fill="#000000" stroke="#000000" points="466.6581,-557.3625 461.0976,-566.3809 471.0684,-562.7985 466.6581,-557.3625"/>
</g>
<!-- GO:0000041 -->
<g id="node16" class="node">
<title>GO:0000041</title>
<polygon fill="#ffffff" stroke="#000000" points="124.8108,-436.2014 .063,-436.2014 .063,-377.3986 124.8108,-377.3986 124.8108,-436.2014"/>
<text text-anchor="middle" x="62.4369" y="-419.4" font-family="Times,serif" font-size="14.00" fill="#000000">GO:0000041</text>
<text text-anchor="middle" x="62.4369" y="-402.6" font-family="Times,serif" font-size="14.00" fill="#000000">transition metal ion</text>
<text text-anchor="middle" x="62.4369" y="-385.8" font-family="Times,serif" font-size="14.00" fill="#000000">transport</text>
</g>
<!-- GO:0015675&#45;&gt;GO:0000041 -->
<g id="edge17" class="edge">
<title>GO:0015675&#45;&gt;GO:0000041</title>
<path fill="none" stroke="#000000" d="M93.5596,-333.3504C89.2372,-343.5512 83.8986,-356.1505 78.8706,-368.0164"/>
<polygon fill="#000000" stroke="#000000" points="75.6092,-366.7424 74.9303,-377.3155 82.0545,-369.4735 75.6092,-366.7424"/>
</g>
<!-- GO:0098655 -->
<g id="node17" class="node">
<title>GO:0098655</title>
<polygon fill="#ffffff" stroke="#000000" points="456.4433,-436.2014 316.4305,-436.2014 316.4305,-377.3986 456.4433,-377.3986 456.4433,-436.2014"/>
<text text-anchor="middle" x="386.4369" y="-419.4" font-family="Times,serif" font-size="14.00" fill="#000000">GO:0098655</text>
<text text-anchor="middle" x="386.4369" y="-402.6" font-family="Times,serif" font-size="14.00" fill="#000000">cation transmembrane</text>
<text text-anchor="middle" x="386.4369" y="-385.8" font-family="Times,serif" font-size="14.00" fill="#000000">transport</text>
</g>
<!-- GO:0098662&#45;&gt;GO:0098655 -->
<g id="edge18" class="edge">
<title>GO:0098662&#45;&gt;GO:0098655</title>
<path fill="none" stroke="#000000" d="M331.9999,-341.7513C339.3567,-350.5422 347.5242,-360.3018 355.2476,-369.5308"/>
<polygon fill="#000000" stroke="#000000" points="352.7871,-372.0442 361.889,-377.4669 358.1553,-367.5517 352.7871,-372.0442"/>
</g>
<!-- GO:0098660 -->
<g id="node18" class="node">
<title>GO:0098660</title>
<polygon fill="#ffffff" stroke="#000000" points="297.9951,-436.2014 142.8787,-436.2014 142.8787,-377.3986 297.9951,-377.3986 297.9951,-436.2014"/>
<text text-anchor="middle" x="220.4369" y="-419.4" font-family="Times,serif" font-size="14.00" fill="#000000">GO:0098660</text>
<text text-anchor="middle" x="220.4369" y="-402.6" font-family="Times,serif" font-size="14.00" fill="#000000">inorganic ion</text>
<text text-anchor="middle" x="220.4369" y="-385.8" font-family="Times,serif" font-size="14.00" fill="#000000">transmembrane transport</text>
</g>
<!-- GO:0098662&#45;&gt;GO:0098660 -->
<g id="edge19" class="edge">
<title>GO:0098662&#45;&gt;GO:0098660</title>
<path fill="none" stroke="#000000" d="M280.3865,-341.7513C272.121,-350.7198 262.9264,-360.6965 254.2697,-370.0894"/>
<polygon fill="#000000" stroke="#000000" points="251.6739,-367.7415 247.4706,-377.4669 256.8213,-372.4854 251.6739,-367.7415"/>
</g>
<!-- GO:0051234 -->
<g id="node19" class="node">
<title>GO:0051234</title>
<polygon fill="#ffffff" stroke="#000000" points="554.5836,-874.6014 446.2902,-874.6014 446.2902,-815.7986 554.5836,-815.7986 554.5836,-874.6014"/>
<text text-anchor="middle" x="500.4369" y="-857.8" font-family="Times,serif" font-size="14.00" fill="#000000">GO:0051234</text>
<text text-anchor="middle" x="500.4369" y="-841" font-family="Times,serif" font-size="14.00" fill="#000000">establishment of</text>
<text text-anchor="middle" x="500.4369" y="-824.2" font-family="Times,serif" font-size="14.00" fill="#000000">localization</text>
</g>
<!-- GO:0006810&#45;&gt;GO:0051234 -->
<g id="edge20" class="edge">
<title>GO:0006810&#45;&gt;GO:0051234</title>
<path fill="none" stroke="#000000" d="M500.4369,-771.7504C500.4369,-781.7492 500.4369,-794.0525 500.4369,-805.7106"/>
<polygon fill="#000000" stroke="#000000" points="496.937,-805.7155 500.4369,-815.7155 503.937,-805.7156 496.937,-805.7155"/>
</g>
<!-- GO:0044765&#45;&gt;GO:0006810 -->
<g id="edge21" class="edge">
<title>GO:0044765&#45;&gt;GO:0006810</title>
<path fill="none" stroke="#000000" d="M586.8407,-685.6182C571.5776,-697.1325 552.441,-711.5688 536.0593,-723.9269"/>
<polygon fill="#000000" stroke="#000000" points="533.6543,-721.357 527.779,-730.1735 537.87,-726.9452 533.6543,-721.357"/>
</g>
<!-- GO:1902578 -->
<g id="node20" class="node">
<title>GO:1902578</title>
<polygon fill="#ffffff" stroke="#000000" points="669.6391,-780.2014 563.2347,-780.2014 563.2347,-721.3986 669.6391,-721.3986 669.6391,-780.2014"/>
<text text-anchor="middle" x="616.4369" y="-763.4" font-family="Times,serif" font-size="14.00" fill="#000000">GO:1902578</text>
<text text-anchor="middle" x="616.4369" y="-746.6" font-family="Times,serif" font-size="14.00" fill="#000000">single&#45;organism</text>
<text text-anchor="middle" x="616.4369" y="-729.8" font-family="Times,serif" font-size="14.00" fill="#000000">localization</text>
</g>
<!-- GO:0044765&#45;&gt;GO:1902578 -->
<g id="edge22" class="edge">
<title>GO:0044765&#45;&gt;GO:1902578</title>
<path fill="none" stroke="#000000" d="M614.921,-685.6182C615.1005,-693.3358 615.3105,-702.3662 615.5161,-711.2036"/>
<polygon fill="#000000" stroke="#000000" points="612.0215,-711.4833 615.7532,-721.3991 619.0196,-711.3204 612.0215,-711.4833"/>
</g>
<!-- GO:0009987 -->
<g id="node21" class="node">
<title>GO:0009987</title>
<polygon fill="#ffffff" stroke="#000000" points="714.3931,-865.8019 610.4807,-865.8019 610.4807,-824.5981 714.3931,-824.5981 714.3931,-865.8019"/>
<text text-anchor="middle" x="662.4369" y="-849.4" font-family="Times,serif" font-size="14.00" fill="#000000">GO:0009987</text>
<text text-anchor="middle" x="662.4369" y="-832.6" font-family="Times,serif" font-size="14.00" fill="#000000">cellular process</text>
</g>
<!-- GO:0044763&#45;&gt;GO:0009987 -->
<g id="edge23" class="edge">
<title>GO:0044763&#45;&gt;GO:0009987</title>
<path fill="none" stroke="#000000" d="M732.0335,-780.1513C719.2775,-792.0737 704.6151,-805.778 692.0479,-817.524"/>
<polygon fill="#000000" stroke="#000000" points="689.4454,-815.1656 684.5296,-824.551 694.2253,-820.2796 689.4454,-815.1656"/>
</g>
<!-- GO:0044699 -->
<g id="node22" class="node">
<title>GO:0044699</title>
<polygon fill="#ffffff" stroke="#000000" points="884.1182,-865.8019 732.7556,-865.8019 732.7556,-824.5981 884.1182,-824.5981 884.1182,-865.8019"/>
<text text-anchor="middle" x="808.4369" y="-849.4" font-family="Times,serif" font-size="14.00" fill="#000000">GO:0044699</text>
<text text-anchor="middle" x="808.4369" y="-832.6" font-family="Times,serif" font-size="14.00" fill="#000000">single&#45;organism process</text>
</g>
<!-- GO:0044763&#45;&gt;GO:0044699 -->
<g id="edge24" class="edge">
<title>GO:0044763&#45;&gt;GO:0044699</title>
<path fill="none" stroke="#000000" d="M777.4285,-780.1513C782.7902,-791.3989 788.9078,-804.2323 794.2844,-815.5112"/>
<polygon fill="#000000" stroke="#000000" points="791.1311,-817.0302 798.5936,-824.551 797.4499,-814.0181 791.1311,-817.0302"/>
</g>
<!-- GO:0006811&#45;&gt;GO:0044765 -->
<g id="edge25" class="edge">
<title>GO:0006811&#45;&gt;GO:0044765</title>
<path fill="none" stroke="#000000" d="M480.1444,-606.5816C503.5589,-616.7322 532.4841,-629.2719 557.4861,-640.1107"/>
<polygon fill="#000000" stroke="#000000" points="556.2894,-643.4066 566.8565,-644.173 559.0737,-636.9842 556.2894,-643.4066"/>
</g>
<!-- GO:0030001 -->
<g id="node23" class="node">
<title>GO:0030001</title>
<polygon fill="#ffffff" stroke="#000000" points="123.1903,-521.8019 1.6835,-521.8019 1.6835,-480.5981 123.1903,-480.5981 123.1903,-521.8019"/>
<text text-anchor="middle" x="62.4369" y="-505.4" font-family="Times,serif" font-size="14.00" fill="#000000">GO:0030001</text>
<text text-anchor="middle" x="62.4369" y="-488.6" font-family="Times,serif" font-size="14.00" fill="#000000">metal ion transport</text>
</g>
<!-- GO:0000041&#45;&gt;GO:0030001 -->
<g id="edge26" class="edge">
<title>GO:0000041&#45;&gt;GO:0030001</title>
<path fill="none" stroke="#000000" d="M62.4369,-436.1513C62.4369,-447.0614 62.4369,-459.4637 62.4369,-470.492"/>
<polygon fill="#000000" stroke="#000000" points="58.937,-470.5509 62.4369,-480.551 65.937,-470.551 58.937,-470.5509"/>
</g>
<!-- GO:0098655&#45;&gt;GO:0006812 -->
<g id="edge27" class="edge">
<title>GO:0098655&#45;&gt;GO:0006812</title>
<path fill="none" stroke="#000000" d="M388.6134,-436.1513C389.4224,-447.0614 390.342,-459.4637 391.1598,-470.492"/>
<polygon fill="#000000" stroke="#000000" points="387.6757,-470.8372 391.9057,-480.551 394.6566,-470.3195 387.6757,-470.8372"/>
</g>
<!-- GO:0034220 -->
<g id="node24" class="node">
<title>GO:0034220</title>
<polygon fill="#ffffff" stroke="#000000" points="299.1239,-530.6014 175.7499,-530.6014 175.7499,-471.7986 299.1239,-471.7986 299.1239,-530.6014"/>
<text text-anchor="middle" x="237.4369" y="-513.8" font-family="Times,serif" font-size="14.00" fill="#000000">GO:0034220</text>
<text text-anchor="middle" x="237.4369" y="-497" font-family="Times,serif" font-size="14.00" fill="#000000">ion transmembrane</text>
<text text-anchor="middle" x="237.4369" y="-480.2" font-family="Times,serif" font-size="14.00" fill="#000000">transport</text>
</g>
<!-- GO:0098655&#45;&gt;GO:0034220 -->
<g id="edge28" class="edge">
<title>GO:0098655&#45;&gt;GO:0034220</title>
<path fill="none" stroke="#000000" d="M340.1091,-436.1513C324.9723,-445.7413 308.0158,-456.4842 292.312,-466.4335"/>
<polygon fill="#000000" stroke="#000000" points="290.3102,-463.5584 283.736,-471.8669 294.0565,-469.4715 290.3102,-463.5584"/>
</g>
<!-- GO:0098660&#45;&gt;GO:0034220 -->
<g id="edge29" class="edge">
<title>GO:0098660&#45;&gt;GO:0034220</title>
<path fill="none" stroke="#000000" d="M225.7226,-436.1513C227.1938,-444.3206 228.8156,-453.3264 230.3714,-461.9657"/>
<polygon fill="#000000" stroke="#000000" points="226.9374,-462.6455 232.1544,-471.8669 233.8266,-461.4048 226.9374,-462.6455"/>
</g>
<!-- GO:0051179 -->
<g id="node25" class="node">
<title>GO:0051179</title>
<polygon fill="#ffffff" stroke="#000000" points="586.0408,-951.8019 496.833,-951.8019 496.833,-910.5981 586.0408,-910.5981 586.0408,-951.8019"/>
<text text-anchor="middle" x="541.4369" y="-935.4" font-family="Times,serif" font-size="14.00" fill="#000000">GO:0051179</text>
<text text-anchor="middle" x="541.4369" y="-918.6" font-family="Times,serif" font-size="14.00" fill="#000000">localization</text>
</g>
<!-- GO:0051234&#45;&gt;GO:0051179 -->
<g id="edge30" class="edge">
<title>GO:0051234&#45;&gt;GO:0051179</title>
<path fill="none" stroke="#000000" d="M514.5468,-874.7963C518.6196,-883.3393 523.0664,-892.6667 527.1499,-901.2321"/>
<polygon fill="#000000" stroke="#000000" points="524.1039,-902.9761 531.5667,-910.4966 530.4225,-899.9637 524.1039,-902.9761"/>
</g>
<!-- GO:1902578&#45;&gt;GO:0044699 -->
<g id="edge32" class="edge">
<title>GO:1902578&#45;&gt;GO:0044699</title>
<path fill="none" stroke="#000000" d="M669.6646,-776.9703C696.9651,-790.393 730.0665,-806.6679 757.0925,-819.9557"/>
<polygon fill="#000000" stroke="#000000" points="755.8608,-823.2502 766.3791,-824.5216 758.9494,-816.9684 755.8608,-823.2502"/>
</g>
<!-- GO:1902578&#45;&gt;GO:0051179 -->
<g id="edge31" class="edge">
<title>GO:1902578&#45;&gt;GO:0051179</title>
<path fill="none" stroke="#000000" d="M604.2199,-780.1859C590.3551,-813.5354 567.8592,-867.6456 553.8951,-901.2338"/>
<polygon fill="#000000" stroke="#000000" points="550.6329,-899.9634 550.0258,-910.5409 557.0966,-902.6507 550.6329,-899.9634"/>
</g>
<!-- GO:0008150 -->
<g id="node26" class="node">
<title>GO:0008150</title>
<polygon fill="#ffffff" stroke="#000000" points="944.9075,-951.8019 823.9663,-951.8019 823.9663,-910.5981 944.9075,-910.5981 944.9075,-951.8019"/>
<text text-anchor="middle" x="884.4369" y="-935.4" font-family="Times,serif" font-size="14.00" fill="#000000">GO:0008150</text>
<text text-anchor="middle" x="884.4369" y="-918.6" font-family="Times,serif" font-size="14.00" fill="#000000">biological_process</text>
</g>
<!-- GO:0009987&#45;&gt;GO:0008150 -->
<g id="edge33" class="edge">
<title>GO:0009987&#45;&gt;GO:0008150</title>
<path fill="none" stroke="#000000" d="M704.172,-865.9046C710.5741,-868.8689 717.1457,-871.7933 723.4369,-874.4 752.8356,-886.5811 785.893,-898.5353 814.3695,-908.3105"/>
<polygon fill="#000000" stroke="#000000" points="813.2448,-911.6248 823.8393,-911.5392 815.5038,-904.9993 813.2448,-911.6248"/>
</g>
<!-- GO:0044699&#45;&gt;GO:0008150 -->
<g id="edge34" class="edge">
<title>GO:0044699&#45;&gt;GO:0008150</title>
<path fill="none" stroke="#000000" d="M826.8344,-866.0182C836.6364,-877.1099 848.8346,-890.9132 859.4791,-902.9583"/>
<polygon fill="#000000" stroke="#000000" points="856.9642,-905.3979 866.2088,-910.5735 862.2095,-900.7625 856.9642,-905.3979"/>
</g>
<!-- GO:0044710 -->
<g id="node27" class="node">
<title>GO:0044710</title>
<polygon fill="#ffffff" stroke="#000000" points="1031.8451,-780.2014 867.0287,-780.2014 867.0287,-721.3986 1031.8451,-721.3986 1031.8451,-780.2014"/>
<text text-anchor="middle" x="949.4369" y="-763.4" font-family="Times,serif" font-size="14.00" fill="#000000">GO:0044710</text>
<text text-anchor="middle" x="949.4369" y="-746.6" font-family="Times,serif" font-size="14.00" fill="#000000">single&#45;organism metabolic</text>
<text text-anchor="middle" x="949.4369" y="-729.8" font-family="Times,serif" font-size="14.00" fill="#000000">process</text>
</g>
<!-- GO:0044710&#45;&gt;GO:0044699 -->
<g id="edge36" class="edge">
<title>GO:0044710&#45;&gt;GO:0044699</title>
<path fill="none" stroke="#000000" d="M905.5965,-780.1513C887.1167,-792.5236 865.7707,-806.8148 847.8017,-818.8451"/>
<polygon fill="#000000" stroke="#000000" points="845.6416,-816.0793 839.2792,-824.551 849.536,-821.896 845.6416,-816.0793"/>
</g>
<!-- GO:0008152 -->
<g id="node28" class="node">
<title>GO:0008152</title>
<polygon fill="#ffffff" stroke="#000000" points="1018.6225,-865.8019 902.2513,-865.8019 902.2513,-824.5981 1018.6225,-824.5981 1018.6225,-865.8019"/>
<text text-anchor="middle" x="960.4369" y="-849.4" font-family="Times,serif" font-size="14.00" fill="#000000">GO:0008152</text>
<text text-anchor="middle" x="960.4369" y="-832.6" font-family="Times,serif" font-size="14.00" fill="#000000">metabolic process</text>
</g>
<!-- GO:0044710&#45;&gt;GO:0008152 -->
<g id="edge35" class="edge">
<title>GO:0044710&#45;&gt;GO:0008152</title>
<path fill="none" stroke="#000000" d="M952.8571,-780.1513C954.1284,-791.0614 955.5736,-803.4637 956.8586,-814.492"/>
<polygon fill="#000000" stroke="#000000" points="953.3968,-815.0233 958.0308,-824.551 960.3497,-814.2131 953.3968,-815.0233"/>
</g>
<!-- GO:0008152&#45;&gt;GO:0008150 -->
<g id="edge37" class="edge">
<title>GO:0008152&#45;&gt;GO:0008150</title>
<path fill="none" stroke="#000000" d="M942.0394,-866.0182C932.2374,-877.1099 920.0392,-890.9132 909.3947,-902.9583"/>
<polygon fill="#000000" stroke="#000000" points="906.6643,-900.7625 902.665,-910.5735 911.9096,-905.3979 906.6643,-900.7625"/>
</g>
<!-- GO:0040007 -->
<g id="node29" class="node">
<title>GO:0040007</title>
<polygon fill="#ffffff" stroke="#000000" points="1126.0408,-865.8019 1036.833,-865.8019 1036.833,-824.5981 1126.0408,-824.5981 1126.0408,-865.8019"/>
<text text-anchor="middle" x="1081.4369" y="-849.4" font-family="Times,serif" font-size="14.00" fill="#000000">GO:0040007</text>
<text text-anchor="middle" x="1081.4369" y="-832.6" font-family="Times,serif" font-size="14.00" fill="#000000">growth</text>
</g>
<!-- GO:0040007&#45;&gt;GO:0008150 -->
<g id="edge38" class="edge">
<title>GO:0040007&#45;&gt;GO:0008150</title>
<path fill="none" stroke="#000000" d="M1044.5479,-865.8886C1038.8727,-868.8551 1033.0378,-871.7844 1027.4369,-874.4 1002.6506,-885.9752 974.8117,-897.3787 950.3288,-906.8958"/>
<polygon fill="#000000" stroke="#000000" points="948.842,-903.7179 940.7714,-910.582 951.361,-910.2489 948.842,-903.7179"/>
</g>
</g>
</svg>
