<?xml version="1.0" encoding="UTF-8" standalone="no"?>
<!DOCTYPE svg PUBLIC "-//W3C//DTD SVG 1.1//EN"
 "http://www.w3.org/Graphics/SVG/1.1/DTD/svg11.dtd">
<!-- Generated by graphviz version 2.40.1 (20161225.0304)
 -->
<!-- Title: G Pages: 1 -->
<svg width="461pt" height="549pt"
 viewBox="0.00 0.00 460.53 548.80" xmlns="http://www.w3.org/2000/svg" xmlns:xlink="http://www.w3.org/1999/xlink">
<g id="graph0" class="graph" transform="scale(1 1) rotate(0) translate(4 544.8)">
<title>G</title>
<polygon fill="#ffffff" stroke="transparent" points="-4,4 -4,-544.8 456.5323,-544.8 456.5323,4 -4,4"/>
<!-- GO:0005783 -->
<g id="node1" class="node">
<title>GO:0005783</title>
<polygon fill="#ffffff" stroke="#000000" points="358.4643,-119.0019 214.6395,-119.0019 214.6395,-77.7981 358.4643,-77.7981 358.4643,-119.0019"/>
<text text-anchor="middle" x="286.5519" y="-102.6" font-family="Times,serif" font-size="14.00" fill="#000000">GO:0005783</text>
<text text-anchor="middle" x="286.5519" y="-85.8" font-family="Times,serif" font-size="14.00" fill="#000000">endoplasmic reticulum</text>
</g>
<!-- GO:0044444 -->
<g id="node2" class="node">
<title>GO:0044444</title>
<polygon fill="#ffffff" stroke="#000000" points="192.9685,-205.0019 84.1353,-205.0019 84.1353,-163.7981 192.9685,-163.7981 192.9685,-205.0019"/>
<text text-anchor="middle" x="138.5519" y="-188.6" font-family="Times,serif" font-size="14.00" fill="#000000">GO:0044444</text>
<text text-anchor="middle" x="138.5519" y="-171.8" font-family="Times,serif" font-size="14.00" fill="#000000">cytoplasmic part</text>
</g>
<!-- GO:0005783&#45;&gt;GO:0044444 -->
<g id="edge1" class="edge">
<title>GO:0005783&#45;&gt;GO:0044444</title>
<path fill="none" stroke="#000000" d="M250.7252,-119.2182C230.2737,-131.1022 204.4653,-146.099 182.7612,-158.7108"/>
<polygon fill="#000000" stroke="#000000" points="180.9364,-155.7231 174.0486,-163.7735 184.4534,-161.7755 180.9364,-155.7231"/>
</g>
<!-- GO:0043231 -->
<g id="node3" class="node">
<title>GO:0043231</title>
<polygon fill="#ffffff" stroke="#000000" points="361.9307,-213.8014 211.1731,-213.8014 211.1731,-154.9986 361.9307,-154.9986 361.9307,-213.8014"/>
<text text-anchor="middle" x="286.5519" y="-197" font-family="Times,serif" font-size="14.00" fill="#000000">GO:0043231</text>
<text text-anchor="middle" x="286.5519" y="-180.2" font-family="Times,serif" font-size="14.00" fill="#000000">intracellular membrane&#45;</text>
<text text-anchor="middle" x="286.5519" y="-163.4" font-family="Times,serif" font-size="14.00" fill="#000000">bounded organelle</text>
</g>
<!-- GO:0005783&#45;&gt;GO:0043231 -->
<g id="edge2" class="edge">
<title>GO:0005783&#45;&gt;GO:0043231</title>
<path fill="none" stroke="#000000" d="M286.5519,-119.2182C286.5519,-126.9358 286.5519,-135.9662 286.5519,-144.8036"/>
<polygon fill="#000000" stroke="#000000" points="283.052,-144.9991 286.5519,-154.9991 290.052,-144.9992 283.052,-144.9991"/>
</g>
<!-- GO:0044424 -->
<g id="node4" class="node">
<title>GO:0044424</title>
<polygon fill="#ffffff" stroke="#000000" points="241.9503,-385.4019 133.1535,-385.4019 133.1535,-344.1981 241.9503,-344.1981 241.9503,-385.4019"/>
<text text-anchor="middle" x="187.5519" y="-369" font-family="Times,serif" font-size="14.00" fill="#000000">GO:0044424</text>
<text text-anchor="middle" x="187.5519" y="-352.2" font-family="Times,serif" font-size="14.00" fill="#000000">intracellular part</text>
</g>
<!-- GO:0044444&#45;&gt;GO:0044424 -->
<g id="edge3" class="edge">
<title>GO:0044444&#45;&gt;GO:0044424</title>
<path fill="none" stroke="#000000" d="M139.6224,-205.0102C141.3911,-229.9505 145.969,-272.957 157.5519,-308 160.5848,-317.1757 165.0019,-326.6478 169.5186,-335.1641"/>
<polygon fill="#000000" stroke="#000000" points="166.49,-336.92 174.3979,-343.971 172.6131,-333.5276 166.49,-336.92"/>
</g>
<!-- GO:0043229 -->
<g id="node5" class="node">
<title>GO:0043229</title>
<polygon fill="#ffffff" stroke="#000000" points="306.2703,-299.4019 166.8335,-299.4019 166.8335,-258.1981 306.2703,-258.1981 306.2703,-299.4019"/>
<text text-anchor="middle" x="236.5519" y="-283" font-family="Times,serif" font-size="14.00" fill="#000000">GO:0043229</text>
<text text-anchor="middle" x="236.5519" y="-266.2" font-family="Times,serif" font-size="14.00" fill="#000000">intracellular organelle</text>
</g>
<!-- GO:0043231&#45;&gt;GO:0043229 -->
<g id="edge4" class="edge">
<title>GO:0043231&#45;&gt;GO:0043229</title>
<path fill="none" stroke="#000000" d="M271.0057,-213.7513C265.0483,-224.9989 258.2509,-237.8323 252.2769,-249.1112"/>
<polygon fill="#000000" stroke="#000000" points="249.0766,-247.6758 247.4889,-258.151 255.2625,-250.9522 249.0766,-247.6758"/>
</g>
<!-- GO:0043227 -->
<g id="node6" class="node">
<title>GO:0043227</title>
<polygon fill="#ffffff" stroke="#000000" points="452.5127,-308.2014 324.5911,-308.2014 324.5911,-249.3986 452.5127,-249.3986 452.5127,-308.2014"/>
<text text-anchor="middle" x="388.5519" y="-291.4" font-family="Times,serif" font-size="14.00" fill="#000000">GO:0043227</text>
<text text-anchor="middle" x="388.5519" y="-274.6" font-family="Times,serif" font-size="14.00" fill="#000000">membrane&#45;bounded</text>
<text text-anchor="middle" x="388.5519" y="-257.8" font-family="Times,serif" font-size="14.00" fill="#000000">organelle</text>
</g>
<!-- GO:0043231&#45;&gt;GO:0043227 -->
<g id="edge5" class="edge">
<title>GO:0043231&#45;&gt;GO:0043227</title>
<path fill="none" stroke="#000000" d="M318.2662,-213.7513C328.1486,-222.8973 339.164,-233.092 349.488,-242.6467"/>
<polygon fill="#000000" stroke="#000000" points="347.1406,-245.2432 356.8572,-249.4669 351.8953,-240.1057 347.1406,-245.2432"/>
</g>
<!-- GO:0044464 -->
<g id="node7" class="node">
<title>GO:0044464</title>
<polygon fill="#ffffff" stroke="#000000" points="254.1558,-463.0019 164.948,-463.0019 164.948,-421.7981 254.1558,-421.7981 254.1558,-463.0019"/>
<text text-anchor="middle" x="209.5519" y="-446.6" font-family="Times,serif" font-size="14.00" fill="#000000">GO:0044464</text>
<text text-anchor="middle" x="209.5519" y="-429.8" font-family="Times,serif" font-size="14.00" fill="#000000">cell part</text>
</g>
<!-- GO:0044424&#45;&gt;GO:0044464 -->
<g id="edge6" class="edge">
<title>GO:0044424&#45;&gt;GO:0044464</title>
<path fill="none" stroke="#000000" d="M193.4475,-385.5954C195.7162,-393.5978 198.3572,-402.9133 200.8362,-411.6575"/>
<polygon fill="#000000" stroke="#000000" points="197.5451,-412.8811 203.64,-421.5472 204.2797,-410.9717 197.5451,-412.8811"/>
</g>
<!-- GO:0043229&#45;&gt;GO:0044424 -->
<g id="edge7" class="edge">
<title>GO:0043229&#45;&gt;GO:0044424</title>
<path fill="none" stroke="#000000" d="M224.6904,-299.6182C218.6114,-310.2874 211.103,-323.4655 204.4317,-335.1743"/>
<polygon fill="#000000" stroke="#000000" points="201.2137,-333.7522 199.3042,-344.1735 207.2958,-337.2176 201.2137,-333.7522"/>
</g>
<!-- GO:0043226 -->
<g id="node8" class="node">
<title>GO:0043226</title>
<polygon fill="#ffffff" stroke="#000000" points="349.1558,-385.4019 259.948,-385.4019 259.948,-344.1981 349.1558,-344.1981 349.1558,-385.4019"/>
<text text-anchor="middle" x="304.5519" y="-369" font-family="Times,serif" font-size="14.00" fill="#000000">GO:0043226</text>
<text text-anchor="middle" x="304.5519" y="-352.2" font-family="Times,serif" font-size="14.00" fill="#000000">organelle</text>
</g>
<!-- GO:0043229&#45;&gt;GO:0043226 -->
<g id="edge8" class="edge">
<title>GO:0043229&#45;&gt;GO:0043226</title>
<path fill="none" stroke="#000000" d="M253.0128,-299.6182C261.6995,-310.6043 272.4895,-324.2506 281.9487,-336.2137"/>
<polygon fill="#000000" stroke="#000000" points="279.2947,-338.5002 288.2426,-344.1735 284.7857,-334.1585 279.2947,-338.5002"/>
</g>
<!-- GO:0043227&#45;&gt;GO:0043226 -->
<g id="edge9" class="edge">
<title>GO:0043227&#45;&gt;GO:0043226</title>
<path fill="none" stroke="#000000" d="M359.6439,-308.3963C350.6714,-317.5824 340.8133,-327.6752 331.947,-336.7526"/>
<polygon fill="#000000" stroke="#000000" points="329.2575,-334.4972 324.7739,-344.0966 334.2651,-339.3884 329.2575,-334.4972"/>
</g>
<!-- GO:0005575 -->
<g id="node9" class="node">
<title>GO:0005575</title>
<polygon fill="#ffffff" stroke="#000000" points="357.2386,-540.6019 229.8652,-540.6019 229.8652,-499.3981 357.2386,-499.3981 357.2386,-540.6019"/>
<text text-anchor="middle" x="293.5519" y="-524.2" font-family="Times,serif" font-size="14.00" fill="#000000">GO:0005575</text>
<text text-anchor="middle" x="293.5519" y="-507.4" font-family="Times,serif" font-size="14.00" fill="#000000">cellular_component</text>
</g>
<!-- GO:0044464&#45;&gt;GO:0005575 -->
<g id="edge10" class="edge">
<title>GO:0044464&#45;&gt;GO:0005575</title>
<path fill="none" stroke="#000000" d="M232.0624,-463.1954C241.6664,-472.0677 253.0174,-482.5539 263.336,-492.0862"/>
<polygon fill="#000000" stroke="#000000" points="261.2589,-494.9324 270.9793,-499.1472 266.0089,-489.7906 261.2589,-494.9324"/>
</g>
<!-- GO:0043226&#45;&gt;GO:0005575 -->
<g id="edge11" class="edge">
<title>GO:0043226&#45;&gt;GO:0005575</title>
<path fill="none" stroke="#000000" d="M303.0912,-385.4094C301.2092,-411.9627 297.9209,-458.3577 295.7398,-489.1304"/>
<polygon fill="#000000" stroke="#000000" points="292.2345,-489.0829 295.0187,-499.3054 299.217,-489.5779 292.2345,-489.0829"/>
</g>
<!-- GO:0005829 -->
<g id="node10" class="node">
<title>GO:0005829</title>
<polygon fill="#ffffff" stroke="#000000" points="89.1558,-119.0019 -.052,-119.0019 -.052,-77.7981 89.1558,-77.7981 89.1558,-119.0019"/>
<text text-anchor="middle" x="44.5519" y="-102.6" font-family="Times,serif" font-size="14.00" fill="#000000">GO:0005829</text>
<text text-anchor="middle" x="44.5519" y="-85.8" font-family="Times,serif" font-size="14.00" fill="#000000">cytosol</text>
</g>
<!-- GO:0005829&#45;&gt;GO:0044444 -->
<g id="edge12" class="edge">
<title>GO:0005829&#45;&gt;GO:0044444</title>
<path fill="none" stroke="#000000" d="M67.3067,-119.2182C79.6611,-130.5212 95.0934,-144.6401 108.4332,-156.8446"/>
<polygon fill="#000000" stroke="#000000" points="106.266,-159.6057 116.0067,-163.7735 110.9911,-154.441 106.266,-159.6057"/>
</g>
<!-- GO:0005777 -->
<g id="node11" class="node">
<title>GO:0005777</title>
<polygon fill="#ffffff" stroke="#000000" points="196.1558,-41.4019 106.948,-41.4019 106.948,-.1981 196.1558,-.1981 196.1558,-41.4019"/>
<text text-anchor="middle" x="151.5519" y="-25" font-family="Times,serif" font-size="14.00" fill="#000000">GO:0005777</text>
<text text-anchor="middle" x="151.5519" y="-8.2" font-family="Times,serif" font-size="14.00" fill="#000000">peroxisome</text>
</g>
<!-- GO:0042579 -->
<g id="node12" class="node">
<title>GO:0042579</title>
<polygon fill="#ffffff" stroke="#000000" points="196.1558,-119.0019 106.948,-119.0019 106.948,-77.7981 196.1558,-77.7981 196.1558,-119.0019"/>
<text text-anchor="middle" x="151.5519" y="-102.6" font-family="Times,serif" font-size="14.00" fill="#000000">GO:0042579</text>
<text text-anchor="middle" x="151.5519" y="-85.8" font-family="Times,serif" font-size="14.00" fill="#000000">microbody</text>
</g>
<!-- GO:0005777&#45;&gt;GO:0042579 -->
<g id="edge13" class="edge">
<title>GO:0005777&#45;&gt;GO:0042579</title>
<path fill="none" stroke="#000000" d="M151.5519,-41.5954C151.5519,-49.5109 151.5519,-58.7109 151.5519,-67.3722"/>
<polygon fill="#000000" stroke="#000000" points="148.052,-67.5472 151.5519,-77.5472 155.052,-67.5473 148.052,-67.5472"/>
</g>
<!-- GO:0042579&#45;&gt;GO:0044444 -->
<g id="edge14" class="edge">
<title>GO:0042579&#45;&gt;GO:0044444</title>
<path fill="none" stroke="#000000" d="M148.405,-119.2182C146.8401,-129.5705 144.9181,-142.2848 143.1885,-153.7271"/>
<polygon fill="#000000" stroke="#000000" points="139.7039,-153.3627 141.6699,-163.7735 146.6253,-154.409 139.7039,-153.3627"/>
</g>
<!-- GO:0042579&#45;&gt;GO:0043231 -->
<g id="edge15" class="edge">
<title>GO:0042579&#45;&gt;GO:0043231</title>
<path fill="none" stroke="#000000" d="M184.2316,-119.2182C198.5193,-128.3199 215.6731,-139.2476 231.816,-149.5312"/>
<polygon fill="#000000" stroke="#000000" points="230.3412,-152.7415 240.6557,-155.1624 234.1022,-146.8377 230.3412,-152.7415"/>
</g>
<!-- GO:0005576 -->
<g id="node13" class="node">
<title>GO:0005576</title>
<polygon fill="#ffffff" stroke="#000000" points="447.2745,-463.0019 321.8293,-463.0019 321.8293,-421.7981 447.2745,-421.7981 447.2745,-463.0019"/>
<text text-anchor="middle" x="384.5519" y="-446.6" font-family="Times,serif" font-size="14.00" fill="#000000">GO:0005576</text>
<text text-anchor="middle" x="384.5519" y="-429.8" font-family="Times,serif" font-size="14.00" fill="#000000">extracellular region</text>
</g>
<!-- GO:0005576&#45;&gt;GO:0005575 -->
<g id="edge16" class="edge">
<title>GO:0005576&#45;&gt;GO:0005575</title>
<path fill="none" stroke="#000000" d="M360.1656,-463.1954C349.5572,-472.2416 336.9813,-482.9657 325.6296,-492.6458"/>
<polygon fill="#000000" stroke="#000000" points="323.3436,-489.9954 318.0055,-499.1472 327.8857,-495.3218 323.3436,-489.9954"/>
</g>
</g>
</svg>
