<?xml version="1.0" encoding="UTF-8" standalone="no"?>
<!DOCTYPE svg PUBLIC "-//W3C//DTD SVG 1.1//EN"
 "http://www.w3.org/Graphics/SVG/1.1/DTD/svg11.dtd">
<!-- Generated by graphviz version 2.40.1 (20161225.0304)
 -->
<!-- Title: G Pages: 1 -->
<svg width="1480pt" height="710pt"
 viewBox="0.00 0.00 1479.80 710.40" xmlns="http://www.w3.org/2000/svg" xmlns:xlink="http://www.w3.org/1999/xlink">
<g id="graph0" class="graph" transform="scale(1 1) rotate(0) translate(4 706.4)">
<title>G</title>
<polygon fill="#ffffff" stroke="transparent" points="-4,4 -4,-706.4 1475.7995,-706.4 1475.7995,4 -4,4"/>
<!-- GO:0006265 -->
<g id="node1" class="node">
<title>GO:0006265</title>
<polygon fill="#ffffff" stroke="#000000" points="667.9114,-41.4019 512.001,-41.4019 512.001,-.1981 667.9114,-.1981 667.9114,-41.4019"/>
<text text-anchor="middle" x="589.9562" y="-25" font-family="Times,serif" font-size="14.00" fill="#000000">GO:0006265</text>
<text text-anchor="middle" x="589.9562" y="-8.2" font-family="Times,serif" font-size="14.00" fill="#000000">DNA topological change</text>
</g>
<!-- GO:0006259 -->
<g id="node2" class="node">
<title>GO:0006259</title>
<polygon fill="#ffffff" stroke="#000000" points="549.962,-119.0019 399.9504,-119.0019 399.9504,-77.7981 549.962,-77.7981 549.962,-119.0019"/>
<text text-anchor="middle" x="474.9562" y="-102.6" font-family="Times,serif" font-size="14.00" fill="#000000">GO:0006259</text>
<text text-anchor="middle" x="474.9562" y="-85.8" font-family="Times,serif" font-size="14.00" fill="#000000">DNA metabolic process</text>
</g>
<!-- GO:0006265&#45;&gt;GO:0006259 -->
<g id="edge1" class="edge">
<title>GO:0006265&#45;&gt;GO:0006259</title>
<path fill="none" stroke="#000000" d="M559.1383,-41.5954C545.3454,-50.9026 528.9205,-61.9858 514.2565,-71.8809"/>
<polygon fill="#000000" stroke="#000000" points="512.1908,-69.0524 505.8592,-77.5472 516.1062,-74.855 512.1908,-69.0524"/>
</g>
<!-- GO:0071103 -->
<g id="node3" class="node">
<title>GO:0071103</title>
<polygon fill="#ffffff" stroke="#000000" points="748.3424,-119.0019 579.57,-119.0019 579.57,-77.7981 748.3424,-77.7981 748.3424,-119.0019"/>
<text text-anchor="middle" x="663.9562" y="-102.6" font-family="Times,serif" font-size="14.00" fill="#000000">GO:0071103</text>
<text text-anchor="middle" x="663.9562" y="-85.8" font-family="Times,serif" font-size="14.00" fill="#000000">DNA conformation change</text>
</g>
<!-- GO:0006265&#45;&gt;GO:0071103 -->
<g id="edge2" class="edge">
<title>GO:0006265&#45;&gt;GO:0071103</title>
<path fill="none" stroke="#000000" d="M609.7868,-41.5954C618.1646,-50.3807 628.0513,-60.7484 637.0698,-70.2056"/>
<polygon fill="#000000" stroke="#000000" points="634.6366,-72.7257 644.0708,-77.5472 639.7025,-67.8948 634.6366,-72.7257"/>
</g>
<!-- GO:0090304 -->
<g id="node4" class="node">
<title>GO:0090304</title>
<polygon fill="#ffffff" stroke="#000000" points="602.9072,-213.8014 461.0052,-213.8014 461.0052,-154.9986 602.9072,-154.9986 602.9072,-213.8014"/>
<text text-anchor="middle" x="531.9562" y="-197" font-family="Times,serif" font-size="14.00" fill="#000000">GO:0090304</text>
<text text-anchor="middle" x="531.9562" y="-180.2" font-family="Times,serif" font-size="14.00" fill="#000000">nucleic acid metabolic</text>
<text text-anchor="middle" x="531.9562" y="-163.4" font-family="Times,serif" font-size="14.00" fill="#000000">process</text>
</g>
<!-- GO:0006259&#45;&gt;GO:0090304 -->
<g id="edge3" class="edge">
<title>GO:0006259&#45;&gt;GO:0090304</title>
<path fill="none" stroke="#000000" d="M488.7543,-119.2182C494.2031,-127.4391 500.6391,-137.1496 506.8562,-146.5298"/>
<polygon fill="#000000" stroke="#000000" points="504.0275,-148.5974 512.4696,-154.9991 509.8623,-144.7301 504.0275,-148.5974"/>
</g>
<!-- GO:0044260 -->
<g id="node5" class="node">
<title>GO:0044260</title>
<polygon fill="#ffffff" stroke="#000000" points="503.7286,-316.6014 356.1838,-316.6014 356.1838,-257.7986 503.7286,-257.7986 503.7286,-316.6014"/>
<text text-anchor="middle" x="429.9562" y="-299.8" font-family="Times,serif" font-size="14.00" fill="#000000">GO:0044260</text>
<text text-anchor="middle" x="429.9562" y="-283" font-family="Times,serif" font-size="14.00" fill="#000000">cellular macromolecule</text>
<text text-anchor="middle" x="429.9562" y="-266.2" font-family="Times,serif" font-size="14.00" fill="#000000">metabolic process</text>
</g>
<!-- GO:0006259&#45;&gt;GO:0044260 -->
<g id="edge4" class="edge">
<title>GO:0006259&#45;&gt;GO:0044260</title>
<path fill="none" stroke="#000000" d="M465.3142,-119.0558C460.6927,-129.6644 455.4223,-142.9129 451.9562,-155.2 443.3251,-185.7967 437.6353,-221.3979 434.2085,-247.9119"/>
<polygon fill="#000000" stroke="#000000" points="430.7202,-247.6023 432.9619,-257.9572 437.6669,-248.4644 430.7202,-247.6023"/>
</g>
<!-- GO:0051276 -->
<g id="node6" class="node">
<title>GO:0051276</title>
<polygon fill="#ffffff" stroke="#000000" points="916.7481,-205.0019 755.1643,-205.0019 755.1643,-163.7981 916.7481,-163.7981 916.7481,-205.0019"/>
<text text-anchor="middle" x="835.9562" y="-188.6" font-family="Times,serif" font-size="14.00" fill="#000000">GO:0051276</text>
<text text-anchor="middle" x="835.9562" y="-171.8" font-family="Times,serif" font-size="14.00" fill="#000000">chromosome organization</text>
</g>
<!-- GO:0071103&#45;&gt;GO:0051276 -->
<g id="edge5" class="edge">
<title>GO:0071103&#45;&gt;GO:0051276</title>
<path fill="none" stroke="#000000" d="M705.5926,-119.2182C729.6775,-131.2606 760.1551,-146.4994 785.5842,-159.214"/>
<polygon fill="#000000" stroke="#000000" points="784.1937,-162.4318 794.7032,-163.7735 787.3242,-156.1708 784.1937,-162.4318"/>
</g>
<!-- GO:0006139 -->
<g id="node7" class="node">
<title>GO:0006139</title>
<polygon fill="#ffffff" stroke="#000000" points="903.9114,-324.9003 762.001,-324.9003 762.001,-249.4997 903.9114,-249.4997 903.9114,-324.9003"/>
<text text-anchor="middle" x="832.9562" y="-308.2" font-family="Times,serif" font-size="14.00" fill="#000000">GO:0006139</text>
<text text-anchor="middle" x="832.9562" y="-291.4" font-family="Times,serif" font-size="14.00" fill="#000000">nucleobase&#45;containing</text>
<text text-anchor="middle" x="832.9562" y="-274.6" font-family="Times,serif" font-size="14.00" fill="#000000">compound metabolic</text>
<text text-anchor="middle" x="832.9562" y="-257.8" font-family="Times,serif" font-size="14.00" fill="#000000">process</text>
</g>
<!-- GO:0090304&#45;&gt;GO:0006139 -->
<g id="edge6" class="edge">
<title>GO:0090304&#45;&gt;GO:0006139</title>
<path fill="none" stroke="#000000" d="M602.9078,-208.632C647.6928,-223.9273 705.6661,-243.7268 752.2102,-259.623"/>
<polygon fill="#000000" stroke="#000000" points="751.3654,-263.0329 761.9599,-262.9528 753.6278,-256.4086 751.3654,-263.0329"/>
</g>
<!-- GO:0043170 -->
<g id="node8" class="node">
<title>GO:0043170</title>
<polygon fill="#ffffff" stroke="#000000" points="456.4584,-427.8014 295.454,-427.8014 295.454,-368.9986 456.4584,-368.9986 456.4584,-427.8014"/>
<text text-anchor="middle" x="375.9562" y="-411" font-family="Times,serif" font-size="14.00" fill="#000000">GO:0043170</text>
<text text-anchor="middle" x="375.9562" y="-394.2" font-family="Times,serif" font-size="14.00" fill="#000000">macromolecule metabolic</text>
<text text-anchor="middle" x="375.9562" y="-377.4" font-family="Times,serif" font-size="14.00" fill="#000000">process</text>
</g>
<!-- GO:0090304&#45;&gt;GO:0043170 -->
<g id="edge7" class="edge">
<title>GO:0090304&#45;&gt;GO:0043170</title>
<path fill="none" stroke="#000000" d="M535.317,-213.7597C537.2459,-244.2336 535.728,-291.9507 512.9562,-324.8 501.059,-341.9622 483.8455,-355.4723 465.6139,-365.9705"/>
<polygon fill="#000000" stroke="#000000" points="463.705,-363.0248 456.601,-370.885 467.0562,-369.1705 463.705,-363.0248"/>
</g>
<!-- GO:0044260&#45;&gt;GO:0043170 -->
<g id="edge9" class="edge">
<title>GO:0044260&#45;&gt;GO:0043170</title>
<path fill="none" stroke="#000000" d="M415.7683,-316.4165C409.3087,-329.7186 401.5753,-345.6436 394.6497,-359.9052"/>
<polygon fill="#000000" stroke="#000000" points="391.4567,-358.4682 390.2368,-368.9926 397.7536,-361.526 391.4567,-358.4682"/>
</g>
<!-- GO:0044237 -->
<g id="node9" class="node">
<title>GO:0044237</title>
<polygon fill="#ffffff" stroke="#000000" points="814.139,-539.0014 697.7734,-539.0014 697.7734,-480.1986 814.139,-480.1986 814.139,-539.0014"/>
<text text-anchor="middle" x="755.9562" y="-522.2" font-family="Times,serif" font-size="14.00" fill="#000000">GO:0044237</text>
<text text-anchor="middle" x="755.9562" y="-505.4" font-family="Times,serif" font-size="14.00" fill="#000000">cellular metabolic</text>
<text text-anchor="middle" x="755.9562" y="-488.6" font-family="Times,serif" font-size="14.00" fill="#000000">process</text>
</g>
<!-- GO:0044260&#45;&gt;GO:0044237 -->
<g id="edge8" class="edge">
<title>GO:0044260&#45;&gt;GO:0044237</title>
<path fill="none" stroke="#000000" d="M444.4413,-316.6932C465.6238,-359.7716 502.6942,-434.9441 503.9562,-436 531.8278,-459.3206 622.7605,-482.1467 687.3745,-496.0451"/>
<polygon fill="#000000" stroke="#000000" points="686.9958,-499.5427 697.5049,-498.1977 688.4509,-492.6956 686.9958,-499.5427"/>
</g>
<!-- GO:0006996 -->
<g id="node10" class="node">
<title>GO:0006996</title>
<polygon fill="#ffffff" stroke="#000000" points="1230.5187,-307.8019 1089.3937,-307.8019 1089.3937,-266.5981 1230.5187,-266.5981 1230.5187,-307.8019"/>
<text text-anchor="middle" x="1159.9562" y="-291.4" font-family="Times,serif" font-size="14.00" fill="#000000">GO:0006996</text>
<text text-anchor="middle" x="1159.9562" y="-274.6" font-family="Times,serif" font-size="14.00" fill="#000000">organelle organization</text>
</g>
<!-- GO:0051276&#45;&gt;GO:0006996 -->
<g id="edge10" class="edge">
<title>GO:0051276&#45;&gt;GO:0006996</title>
<path fill="none" stroke="#000000" d="M901.1327,-205.0795C954.3018,-221.9492 1029.4497,-245.7924 1085.083,-263.4439"/>
<polygon fill="#000000" stroke="#000000" points="1084.2936,-266.8654 1094.8839,-266.5536 1086.4107,-260.1932 1084.2936,-266.8654"/>
</g>
<!-- GO:0044238 -->
<g id="node11" class="node">
<title>GO:0044238</title>
<polygon fill="#ffffff" stroke="#000000" points="1139.9592,-530.2019 975.9532,-530.2019 975.9532,-488.9981 1139.9592,-488.9981 1139.9592,-530.2019"/>
<text text-anchor="middle" x="1057.9562" y="-513.8" font-family="Times,serif" font-size="14.00" fill="#000000">GO:0044238</text>
<text text-anchor="middle" x="1057.9562" y="-497" font-family="Times,serif" font-size="14.00" fill="#000000">primary metabolic process</text>
</g>
<!-- GO:0006139&#45;&gt;GO:0044238 -->
<g id="edge11" class="edge">
<title>GO:0006139&#45;&gt;GO:0044238</title>
<path fill="none" stroke="#000000" d="M903.9453,-294.0413C985.801,-303.5688 1112.8608,-323.9605 1141.9562,-360.8 1162.6712,-387.0285 1155.7566,-405.56 1141.9562,-436 1133.4342,-454.7974 1117.4762,-470.6876 1101.7395,-482.8384"/>
<polygon fill="#000000" stroke="#000000" points="1099.5523,-480.1023 1093.5709,-488.8472 1103.7002,-485.741 1099.5523,-480.1023"/>
</g>
<!-- GO:0034641 -->
<g id="node12" class="node">
<title>GO:0034641</title>
<polygon fill="#ffffff" stroke="#000000" points="1132.7677,-436.1003 999.1447,-436.1003 999.1447,-360.6997 1132.7677,-360.6997 1132.7677,-436.1003"/>
<text text-anchor="middle" x="1065.9562" y="-419.4" font-family="Times,serif" font-size="14.00" fill="#000000">GO:0034641</text>
<text text-anchor="middle" x="1065.9562" y="-402.6" font-family="Times,serif" font-size="14.00" fill="#000000">cellular nitrogen</text>
<text text-anchor="middle" x="1065.9562" y="-385.8" font-family="Times,serif" font-size="14.00" fill="#000000">compound metabolic</text>
<text text-anchor="middle" x="1065.9562" y="-369" font-family="Times,serif" font-size="14.00" fill="#000000">process</text>
</g>
<!-- GO:0006139&#45;&gt;GO:0034641 -->
<g id="edge12" class="edge">
<title>GO:0006139&#45;&gt;GO:0034641</title>
<path fill="none" stroke="#000000" d="M904.2278,-320.225C928.8368,-331.7207 956.7449,-344.859 989.4912,-360.5989"/>
<polygon fill="#000000" stroke="#000000" points="988.3285,-363.9236 998.857,-365.1082 991.3652,-357.6166 988.3285,-363.9236"/>
</g>
<!-- GO:0006725 -->
<g id="node13" class="node">
<title>GO:0006725</title>
<polygon fill="#ffffff" stroke="#000000" points="822.7677,-436.1003 689.1447,-436.1003 689.1447,-360.6997 822.7677,-360.6997 822.7677,-436.1003"/>
<text text-anchor="middle" x="755.9562" y="-419.4" font-family="Times,serif" font-size="14.00" fill="#000000">GO:0006725</text>
<text text-anchor="middle" x="755.9562" y="-402.6" font-family="Times,serif" font-size="14.00" fill="#000000">cellular aromatic</text>
<text text-anchor="middle" x="755.9562" y="-385.8" font-family="Times,serif" font-size="14.00" fill="#000000">compound metabolic</text>
<text text-anchor="middle" x="755.9562" y="-369" font-family="Times,serif" font-size="14.00" fill="#000000">process</text>
</g>
<!-- GO:0006139&#45;&gt;GO:0006725 -->
<g id="edge13" class="edge">
<title>GO:0006139&#45;&gt;GO:0006725</title>
<path fill="none" stroke="#000000" d="M806.8875,-324.8472C800.7412,-333.7235 794.1214,-343.2835 787.7539,-352.4791"/>
<polygon fill="#000000" stroke="#000000" points="784.8135,-350.5776 781.998,-360.7915 790.5684,-354.5626 784.8135,-350.5776"/>
</g>
<!-- GO:1901360 -->
<g id="node14" class="node">
<title>GO:1901360</title>
<polygon fill="#ffffff" stroke="#000000" points="670.4676,-427.8014 513.4448,-427.8014 513.4448,-368.9986 670.4676,-368.9986 670.4676,-427.8014"/>
<text text-anchor="middle" x="591.9562" y="-411" font-family="Times,serif" font-size="14.00" fill="#000000">GO:1901360</text>
<text text-anchor="middle" x="591.9562" y="-394.2" font-family="Times,serif" font-size="14.00" fill="#000000">organic cyclic compound</text>
<text text-anchor="middle" x="591.9562" y="-377.4" font-family="Times,serif" font-size="14.00" fill="#000000">metabolic process</text>
</g>
<!-- GO:0006139&#45;&gt;GO:1901360 -->
<g id="edge14" class="edge">
<title>GO:0006139&#45;&gt;GO:1901360</title>
<path fill="none" stroke="#000000" d="M761.9517,-319.9622C731.3753,-334.0705 695.6527,-350.5533 664.8673,-364.758"/>
<polygon fill="#000000" stroke="#000000" points="663.0966,-361.7204 655.4829,-369.0881 666.0294,-368.0764 663.0966,-361.7204"/>
</g>
<!-- GO:0046483 -->
<g id="node15" class="node">
<title>GO:0046483</title>
<polygon fill="#ffffff" stroke="#000000" points="980.6774,-427.8014 841.235,-427.8014 841.235,-368.9986 980.6774,-368.9986 980.6774,-427.8014"/>
<text text-anchor="middle" x="910.9562" y="-411" font-family="Times,serif" font-size="14.00" fill="#000000">GO:0046483</text>
<text text-anchor="middle" x="910.9562" y="-394.2" font-family="Times,serif" font-size="14.00" fill="#000000">heterocycle metabolic</text>
<text text-anchor="middle" x="910.9562" y="-377.4" font-family="Times,serif" font-size="14.00" fill="#000000">process</text>
</g>
<!-- GO:0006139&#45;&gt;GO:0046483 -->
<g id="edge15" class="edge">
<title>GO:0006139&#45;&gt;GO:0046483</title>
<path fill="none" stroke="#000000" d="M859.3634,-324.8472C867.3933,-336.295 876.2211,-348.8801 884.2692,-360.354"/>
<polygon fill="#000000" stroke="#000000" points="881.6377,-362.6973 890.2456,-368.8742 887.3684,-358.6775 881.6377,-362.6973"/>
</g>
<!-- GO:0071704 -->
<g id="node16" class="node">
<title>GO:0071704</title>
<polygon fill="#ffffff" stroke="#000000" points="542.1418,-539.0014 425.7706,-539.0014 425.7706,-480.1986 542.1418,-480.1986 542.1418,-539.0014"/>
<text text-anchor="middle" x="483.9562" y="-522.2" font-family="Times,serif" font-size="14.00" fill="#000000">GO:0071704</text>
<text text-anchor="middle" x="483.9562" y="-505.4" font-family="Times,serif" font-size="14.00" fill="#000000">organic substance</text>
<text text-anchor="middle" x="483.9562" y="-488.6" font-family="Times,serif" font-size="14.00" fill="#000000">metabolic process</text>
</g>
<!-- GO:0043170&#45;&gt;GO:0071704 -->
<g id="edge16" class="edge">
<title>GO:0043170&#45;&gt;GO:0071704</title>
<path fill="none" stroke="#000000" d="M404.3319,-427.6165C417.7434,-441.4254 433.9001,-458.0608 448.1449,-472.7276"/>
<polygon fill="#000000" stroke="#000000" points="445.9171,-475.4575 455.395,-480.1926 450.9386,-470.5805 445.9171,-475.4575"/>
</g>
<!-- GO:0009987 -->
<g id="node17" class="node">
<title>GO:0009987</title>
<polygon fill="#ffffff" stroke="#000000" points="1057.9124,-624.6019 954,-624.6019 954,-583.3981 1057.9124,-583.3981 1057.9124,-624.6019"/>
<text text-anchor="middle" x="1005.9562" y="-608.2" font-family="Times,serif" font-size="14.00" fill="#000000">GO:0009987</text>
<text text-anchor="middle" x="1005.9562" y="-591.4" font-family="Times,serif" font-size="14.00" fill="#000000">cellular process</text>
</g>
<!-- GO:0044237&#45;&gt;GO:0009987 -->
<g id="edge17" class="edge">
<title>GO:0044237&#45;&gt;GO:0009987</title>
<path fill="none" stroke="#000000" d="M805.4949,-538.9105C811.2945,-541.8883 817.1972,-544.7231 822.9562,-547.2 862.2024,-564.0795 908.1267,-578.318 944.1519,-588.3172"/>
<polygon fill="#000000" stroke="#000000" points="943.4672,-591.7585 954.0366,-591.0238 945.3159,-585.007 943.4672,-591.7585"/>
</g>
<!-- GO:0008152 -->
<g id="node18" class="node">
<title>GO:0008152</title>
<polygon fill="#ffffff" stroke="#000000" points="814.1418,-624.6019 697.7706,-624.6019 697.7706,-583.3981 814.1418,-583.3981 814.1418,-624.6019"/>
<text text-anchor="middle" x="755.9562" y="-608.2" font-family="Times,serif" font-size="14.00" fill="#000000">GO:0008152</text>
<text text-anchor="middle" x="755.9562" y="-591.4" font-family="Times,serif" font-size="14.00" fill="#000000">metabolic process</text>
</g>
<!-- GO:0044237&#45;&gt;GO:0008152 -->
<g id="edge18" class="edge">
<title>GO:0044237&#45;&gt;GO:0008152</title>
<path fill="none" stroke="#000000" d="M755.9562,-538.9513C755.9562,-549.8614 755.9562,-562.2637 755.9562,-573.292"/>
<polygon fill="#000000" stroke="#000000" points="752.4563,-573.3509 755.9562,-583.351 759.4563,-573.351 752.4563,-573.3509"/>
</g>
<!-- GO:0016043 -->
<g id="node19" class="node">
<title>GO:0016043</title>
<polygon fill="#ffffff" stroke="#000000" points="1312.6432,-427.8014 1189.2692,-427.8014 1189.2692,-368.9986 1312.6432,-368.9986 1312.6432,-427.8014"/>
<text text-anchor="middle" x="1250.9562" y="-411" font-family="Times,serif" font-size="14.00" fill="#000000">GO:0016043</text>
<text text-anchor="middle" x="1250.9562" y="-394.2" font-family="Times,serif" font-size="14.00" fill="#000000">cellular component</text>
<text text-anchor="middle" x="1250.9562" y="-377.4" font-family="Times,serif" font-size="14.00" fill="#000000">organization</text>
</g>
<!-- GO:0006996&#45;&gt;GO:0016043 -->
<g id="edge19" class="edge">
<title>GO:0006996&#45;&gt;GO:0016043</title>
<path fill="none" stroke="#000000" d="M1176.8593,-307.8553C1189.0723,-322.7793 1205.908,-343.3521 1220.4454,-361.1165"/>
<polygon fill="#000000" stroke="#000000" points="1217.8964,-363.5282 1226.9382,-369.0506 1223.3137,-359.095 1217.8964,-363.5282"/>
</g>
<!-- GO:0044238&#45;&gt;GO:0008152 -->
<g id="edge20" class="edge">
<title>GO:0044238&#45;&gt;GO:0008152</title>
<path fill="none" stroke="#000000" d="M1011.1654,-530.2853C997.0957,-536.1367 981.5237,-542.2527 966.9562,-547.2 919.9004,-563.1808 865.7525,-577.6794 824.0923,-588.0283"/>
<polygon fill="#000000" stroke="#000000" points="823.1955,-584.6445 814.3236,-590.4359 824.8707,-591.4411 823.1955,-584.6445"/>
</g>
<!-- GO:0034641&#45;&gt;GO:0044237 -->
<g id="edge22" class="edge">
<title>GO:0034641&#45;&gt;GO:0044237</title>
<path fill="none" stroke="#000000" d="M998.7849,-432.7067C995.8261,-433.8763 992.8749,-434.9811 989.9562,-436 918.2716,-461.0252 893.9664,-445.1208 822.9562,-472 819.7401,-473.2174 816.4922,-474.5709 813.2516,-476.0208"/>
<polygon fill="#000000" stroke="#000000" points="811.7052,-472.8805 804.1706,-480.3291 814.7057,-479.2049 811.7052,-472.8805"/>
</g>
<!-- GO:0006807 -->
<g id="node20" class="node">
<title>GO:0006807</title>
<polygon fill="#ffffff" stroke="#000000" points="957.7181,-539.0014 832.1943,-539.0014 832.1943,-480.1986 957.7181,-480.1986 957.7181,-539.0014"/>
<text text-anchor="middle" x="894.9562" y="-522.2" font-family="Times,serif" font-size="14.00" fill="#000000">GO:0006807</text>
<text text-anchor="middle" x="894.9562" y="-505.4" font-family="Times,serif" font-size="14.00" fill="#000000">nitrogen compound</text>
<text text-anchor="middle" x="894.9562" y="-488.6" font-family="Times,serif" font-size="14.00" fill="#000000">metabolic process</text>
</g>
<!-- GO:0034641&#45;&gt;GO:0006807 -->
<g id="edge21" class="edge">
<title>GO:0034641&#45;&gt;GO:0006807</title>
<path fill="none" stroke="#000000" d="M1008.0634,-436.0472C988.8221,-448.5597 967.4912,-462.431 948.5863,-474.7248"/>
<polygon fill="#000000" stroke="#000000" points="946.5624,-471.8659 940.0871,-480.2517 950.3785,-477.7342 946.5624,-471.8659"/>
</g>
<!-- GO:0006725&#45;&gt;GO:0044237 -->
<g id="edge23" class="edge">
<title>GO:0006725&#45;&gt;GO:0044237</title>
<path fill="none" stroke="#000000" d="M755.9562,-436.0472C755.9562,-446.9338 755.9562,-458.849 755.9562,-469.8589"/>
<polygon fill="#000000" stroke="#000000" points="752.4563,-470.0741 755.9562,-480.0742 759.4563,-470.0742 752.4563,-470.0741"/>
</g>
<!-- GO:1901360&#45;&gt;GO:0071704 -->
<g id="edge24" class="edge">
<title>GO:1901360&#45;&gt;GO:0071704</title>
<path fill="none" stroke="#000000" d="M563.5805,-427.6165C550.169,-441.4254 534.0123,-458.0608 519.7675,-472.7276"/>
<polygon fill="#000000" stroke="#000000" points="516.9738,-470.5805 512.5174,-480.1926 521.9953,-475.4575 516.9738,-470.5805"/>
</g>
<!-- GO:0046483&#45;&gt;GO:0044237 -->
<g id="edge25" class="edge">
<title>GO:0046483&#45;&gt;GO:0044237</title>
<path fill="none" stroke="#000000" d="M870.2318,-427.6165C850.1983,-441.9889 825.8967,-459.4233 804.8632,-474.5131"/>
<polygon fill="#000000" stroke="#000000" points="802.7625,-471.7127 796.6775,-480.3858 806.843,-477.4004 802.7625,-471.7127"/>
</g>
<!-- GO:0071704&#45;&gt;GO:0008152 -->
<g id="edge26" class="edge">
<title>GO:0071704&#45;&gt;GO:0008152</title>
<path fill="none" stroke="#000000" d="M542.307,-529.8512C585.0628,-544.6899 643.2167,-564.8728 688.0576,-580.4352"/>
<polygon fill="#000000" stroke="#000000" points="687.1071,-583.81 697.7019,-583.7823 689.4022,-577.197 687.1071,-583.81"/>
</g>
<!-- GO:0008150 -->
<g id="node21" class="node">
<title>GO:0008150</title>
<polygon fill="#ffffff" stroke="#000000" points="1066.4268,-702.2019 945.4856,-702.2019 945.4856,-660.9981 1066.4268,-660.9981 1066.4268,-702.2019"/>
<text text-anchor="middle" x="1005.9562" y="-685.8" font-family="Times,serif" font-size="14.00" fill="#000000">GO:0008150</text>
<text text-anchor="middle" x="1005.9562" y="-669" font-family="Times,serif" font-size="14.00" fill="#000000">biological_process</text>
</g>
<!-- GO:0009987&#45;&gt;GO:0008150 -->
<g id="edge27" class="edge">
<title>GO:0009987&#45;&gt;GO:0008150</title>
<path fill="none" stroke="#000000" d="M1005.9562,-624.7954C1005.9562,-632.7109 1005.9562,-641.9109 1005.9562,-650.5722"/>
<polygon fill="#000000" stroke="#000000" points="1002.4563,-650.7472 1005.9562,-660.7472 1009.4563,-650.7473 1002.4563,-650.7472"/>
</g>
<!-- GO:0008152&#45;&gt;GO:0008150 -->
<g id="edge28" class="edge">
<title>GO:0008152&#45;&gt;GO:0008150</title>
<path fill="none" stroke="#000000" d="M814.2546,-622.0958C850.4127,-633.3193 897.1016,-647.8115 935.3497,-659.6837"/>
<polygon fill="#000000" stroke="#000000" points="934.7996,-663.1777 945.3877,-662.7995 936.8748,-656.4923 934.7996,-663.1777"/>
</g>
<!-- GO:0016043&#45;&gt;GO:0009987 -->
<g id="edge29" class="edge">
<title>GO:0016043&#45;&gt;GO:0009987</title>
<path fill="none" stroke="#000000" d="M1222.39,-427.8274C1210.625,-440.7787 1197.3473,-456.5415 1186.9562,-472 1166.0656,-503.0783 1176.5971,-521.9362 1148.9562,-547.2 1126.3023,-567.9058 1095.1799,-581.4667 1067.7531,-590.1254"/>
<polygon fill="#000000" stroke="#000000" points="1066.4119,-586.8735 1057.8382,-593.0979 1068.4221,-593.5787 1066.4119,-586.8735"/>
</g>
<!-- GO:0071840 -->
<g id="node22" class="node">
<title>GO:0071840</title>
<polygon fill="#ffffff" stroke="#000000" points="1471.6432,-547.3003 1348.2692,-547.3003 1348.2692,-471.8997 1471.6432,-471.8997 1471.6432,-547.3003"/>
<text text-anchor="middle" x="1409.9562" y="-530.6" font-family="Times,serif" font-size="14.00" fill="#000000">GO:0071840</text>
<text text-anchor="middle" x="1409.9562" y="-513.8" font-family="Times,serif" font-size="14.00" fill="#000000">cellular component</text>
<text text-anchor="middle" x="1409.9562" y="-497" font-family="Times,serif" font-size="14.00" fill="#000000">organization or</text>
<text text-anchor="middle" x="1409.9562" y="-480.2" font-family="Times,serif" font-size="14.00" fill="#000000">biogenesis</text>
</g>
<!-- GO:0016043&#45;&gt;GO:0071840 -->
<g id="edge30" class="edge">
<title>GO:0016043&#45;&gt;GO:0071840</title>
<path fill="none" stroke="#000000" d="M1292.7316,-427.6165C1309.5672,-439.3908 1329.3412,-453.2202 1347.8031,-466.1319"/>
<polygon fill="#000000" stroke="#000000" points="1345.9773,-469.1261 1356.178,-471.9891 1349.9892,-463.3897 1345.9773,-469.1261"/>
</g>
<!-- GO:0006260 -->
<g id="node23" class="node">
<title>GO:0006260</title>
<polygon fill="#ffffff" stroke="#000000" points="454.6432,-41.4019 345.2692,-41.4019 345.2692,-.1981 454.6432,-.1981 454.6432,-41.4019"/>
<text text-anchor="middle" x="399.9562" y="-25" font-family="Times,serif" font-size="14.00" fill="#000000">GO:0006260</text>
<text text-anchor="middle" x="399.9562" y="-8.2" font-family="Times,serif" font-size="14.00" fill="#000000">DNA replication</text>
</g>
<!-- GO:0006260&#45;&gt;GO:0006259 -->
<g id="edge31" class="edge">
<title>GO:0006260&#45;&gt;GO:0006259</title>
<path fill="none" stroke="#000000" d="M420.0548,-41.5954C428.5458,-50.3807 438.5661,-60.7484 447.7064,-70.2056"/>
<polygon fill="#000000" stroke="#000000" points="445.3358,-72.7891 454.8021,-77.5472 450.3692,-67.9243 445.3358,-72.7891"/>
</g>
<!-- GO:0034645 -->
<g id="node24" class="node">
<title>GO:0034645</title>
<polygon fill="#ffffff" stroke="#000000" points="375.7286,-213.8014 228.1838,-213.8014 228.1838,-154.9986 375.7286,-154.9986 375.7286,-213.8014"/>
<text text-anchor="middle" x="301.9562" y="-197" font-family="Times,serif" font-size="14.00" fill="#000000">GO:0034645</text>
<text text-anchor="middle" x="301.9562" y="-180.2" font-family="Times,serif" font-size="14.00" fill="#000000">cellular macromolecule</text>
<text text-anchor="middle" x="301.9562" y="-163.4" font-family="Times,serif" font-size="14.00" fill="#000000">biosynthetic process</text>
</g>
<!-- GO:0006260&#45;&gt;GO:0034645 -->
<g id="edge32" class="edge">
<title>GO:0006260&#45;&gt;GO:0034645</title>
<path fill="none" stroke="#000000" d="M387.5444,-41.5201C371.8202,-67.7699 344.417,-113.5165 324.8535,-146.1755"/>
<polygon fill="#000000" stroke="#000000" points="321.696,-144.6356 319.5597,-155.0129 327.7011,-148.2328 321.696,-144.6356"/>
</g>
<!-- GO:0034645&#45;&gt;GO:0044260 -->
<g id="edge35" class="edge">
<title>GO:0034645&#45;&gt;GO:0044260</title>
<path fill="none" stroke="#000000" d="M338.6359,-213.8584C353.2307,-225.5798 370.1591,-239.1754 385.4471,-251.4536"/>
<polygon fill="#000000" stroke="#000000" points="383.2827,-254.2044 393.2712,-257.7373 387.666,-248.7466 383.2827,-254.2044"/>
</g>
<!-- GO:0044249 -->
<g id="node25" class="node">
<title>GO:0044249</title>
<polygon fill="#ffffff" stroke="#000000" points="129.8686,-427.8014 .0438,-427.8014 .0438,-368.9986 129.8686,-368.9986 129.8686,-427.8014"/>
<text text-anchor="middle" x="64.9562" y="-411" font-family="Times,serif" font-size="14.00" fill="#000000">GO:0044249</text>
<text text-anchor="middle" x="64.9562" y="-394.2" font-family="Times,serif" font-size="14.00" fill="#000000">cellular biosynthetic</text>
<text text-anchor="middle" x="64.9562" y="-377.4" font-family="Times,serif" font-size="14.00" fill="#000000">process</text>
</g>
<!-- GO:0034645&#45;&gt;GO:0044249 -->
<g id="edge33" class="edge">
<title>GO:0034645&#45;&gt;GO:0044249</title>
<path fill="none" stroke="#000000" d="M249.7406,-213.6138C232.8481,-224.0509 214.4822,-236.4957 198.9562,-249.6 158.839,-283.4597 119.425,-329.1479 93.8432,-360.9288"/>
<polygon fill="#000000" stroke="#000000" points="90.8268,-359.0976 87.3259,-369.0973 96.2986,-363.4633 90.8268,-359.0976"/>
</g>
<!-- GO:0009059 -->
<g id="node26" class="node">
<title>GO:0009059</title>
<polygon fill="#ffffff" stroke="#000000" points="337.8714,-316.6014 208.041,-316.6014 208.041,-257.7986 337.8714,-257.7986 337.8714,-316.6014"/>
<text text-anchor="middle" x="272.9562" y="-299.8" font-family="Times,serif" font-size="14.00" fill="#000000">GO:0009059</text>
<text text-anchor="middle" x="272.9562" y="-283" font-family="Times,serif" font-size="14.00" fill="#000000">macromolecule</text>
<text text-anchor="middle" x="272.9562" y="-266.2" font-family="Times,serif" font-size="14.00" fill="#000000">biosynthetic process</text>
</g>
<!-- GO:0034645&#45;&gt;GO:0009059 -->
<g id="edge34" class="edge">
<title>GO:0034645&#45;&gt;GO:0009059</title>
<path fill="none" stroke="#000000" d="M293.646,-213.8584C290.6427,-224.5045 287.2033,-236.6966 284.0023,-248.0435"/>
<polygon fill="#000000" stroke="#000000" points="280.6142,-247.1627 281.2676,-257.7373 287.3513,-249.0633 280.6142,-247.1627"/>
</g>
<!-- GO:0044249&#45;&gt;GO:0044237 -->
<g id="edge37" class="edge">
<title>GO:0044249&#45;&gt;GO:0044237</title>
<path fill="none" stroke="#000000" d="M116.493,-427.689C123.8568,-430.9493 131.4746,-433.8597 138.9562,-436 315.6758,-486.5555 368.802,-447.3927 550.9562,-472 596.7399,-478.185 647.8483,-487.5534 687.5813,-495.3914"/>
<polygon fill="#000000" stroke="#000000" points="686.9372,-498.8318 697.4277,-497.3482 688.3017,-491.966 686.9372,-498.8318"/>
</g>
<!-- GO:0009058 -->
<g id="node27" class="node">
<title>GO:0009058</title>
<polygon fill="#ffffff" stroke="#000000" points="277.8714,-530.2019 148.041,-530.2019 148.041,-488.9981 277.8714,-488.9981 277.8714,-530.2019"/>
<text text-anchor="middle" x="212.9562" y="-513.8" font-family="Times,serif" font-size="14.00" fill="#000000">GO:0009058</text>
<text text-anchor="middle" x="212.9562" y="-497" font-family="Times,serif" font-size="14.00" fill="#000000">biosynthetic process</text>
</g>
<!-- GO:0044249&#45;&gt;GO:0009058 -->
<g id="edge36" class="edge">
<title>GO:0044249&#45;&gt;GO:0009058</title>
<path fill="none" stroke="#000000" d="M103.8415,-427.6165C126.4723,-444.6202 154.8071,-465.9096 176.9305,-482.532"/>
<polygon fill="#000000" stroke="#000000" points="174.9832,-485.4468 185.0805,-488.6556 179.1881,-479.8504 174.9832,-485.4468"/>
</g>
<!-- GO:0009059&#45;&gt;GO:0043170 -->
<g id="edge39" class="edge">
<title>GO:0009059&#45;&gt;GO:0043170</title>
<path fill="none" stroke="#000000" d="M300.0182,-316.4165C312.8088,-330.2254 328.2175,-346.8608 341.8028,-361.5276"/>
<polygon fill="#000000" stroke="#000000" points="339.3541,-364.0345 348.7173,-368.9926 344.4896,-359.2777 339.3541,-364.0345"/>
</g>
<!-- GO:1901576 -->
<g id="node28" class="node">
<title>GO:1901576</title>
<polygon fill="#ffffff" stroke="#000000" points="277.8714,-427.8014 148.041,-427.8014 148.041,-368.9986 277.8714,-368.9986 277.8714,-427.8014"/>
<text text-anchor="middle" x="212.9562" y="-411" font-family="Times,serif" font-size="14.00" fill="#000000">GO:1901576</text>
<text text-anchor="middle" x="212.9562" y="-394.2" font-family="Times,serif" font-size="14.00" fill="#000000">organic substance</text>
<text text-anchor="middle" x="212.9562" y="-377.4" font-family="Times,serif" font-size="14.00" fill="#000000">biosynthetic process</text>
</g>
<!-- GO:0009059&#45;&gt;GO:1901576 -->
<g id="edge38" class="edge">
<title>GO:0009059&#45;&gt;GO:1901576</title>
<path fill="none" stroke="#000000" d="M257.1919,-316.4165C250.0145,-329.7186 241.4219,-345.6436 233.7268,-359.9052"/>
<polygon fill="#000000" stroke="#000000" points="230.4919,-358.5299 228.8235,-368.9926 236.6524,-361.8539 230.4919,-358.5299"/>
</g>
<!-- GO:0009058&#45;&gt;GO:0008152 -->
<g id="edge40" class="edge">
<title>GO:0009058&#45;&gt;GO:0008152</title>
<path fill="none" stroke="#000000" d="M278.1374,-521.8927C318.1627,-529.3718 370.4924,-539.0261 416.9562,-547.2 510.5926,-563.6726 618.9808,-581.6414 687.4922,-592.864"/>
<polygon fill="#000000" stroke="#000000" points="687.2866,-596.3769 697.7206,-594.5379 688.4172,-589.4688 687.2866,-596.3769"/>
</g>
<!-- GO:1901576&#45;&gt;GO:0071704 -->
<g id="edge41" class="edge">
<title>GO:1901576&#45;&gt;GO:0071704</title>
<path fill="none" stroke="#000000" d="M268.0219,-427.6426C274.0264,-430.5671 280.0875,-433.409 285.9562,-436 328.482,-454.775 377.4386,-473.0018 416.0315,-486.6202"/>
<polygon fill="#000000" stroke="#000000" points="415.0149,-489.9726 425.6098,-489.9807 417.3324,-483.3674 415.0149,-489.9726"/>
</g>
<!-- GO:1901576&#45;&gt;GO:0009058 -->
<g id="edge42" class="edge">
<title>GO:1901576&#45;&gt;GO:0009058</title>
<path fill="none" stroke="#000000" d="M212.9562,-427.6165C212.9562,-443.197 212.9562,-462.3758 212.9562,-478.2653"/>
<polygon fill="#000000" stroke="#000000" points="209.4563,-478.6555 212.9562,-488.6556 216.4563,-478.6556 209.4563,-478.6555"/>
</g>
<!-- GO:0042221 -->
<g id="node29" class="node">
<title>GO:0042221</title>
<polygon fill="#ffffff" stroke="#000000" points="1329.8566,-530.2019 1196.0558,-530.2019 1196.0558,-488.9981 1329.8566,-488.9981 1329.8566,-530.2019"/>
<text text-anchor="middle" x="1262.9562" y="-513.8" font-family="Times,serif" font-size="14.00" fill="#000000">GO:0042221</text>
<text text-anchor="middle" x="1262.9562" y="-497" font-family="Times,serif" font-size="14.00" fill="#000000">response to chemical</text>
</g>
<!-- GO:0050896 -->
<g id="node30" class="node">
<title>GO:0050896</title>
<polygon fill="#ffffff" stroke="#000000" points="1267.2778,-624.6019 1136.6346,-624.6019 1136.6346,-583.3981 1267.2778,-583.3981 1267.2778,-624.6019"/>
<text text-anchor="middle" x="1201.9562" y="-608.2" font-family="Times,serif" font-size="14.00" fill="#000000">GO:0050896</text>
<text text-anchor="middle" x="1201.9562" y="-591.4" font-family="Times,serif" font-size="14.00" fill="#000000">response to stimulus</text>
</g>
<!-- GO:0042221&#45;&gt;GO:0050896 -->
<g id="edge43" class="edge">
<title>GO:0042221&#45;&gt;GO:0050896</title>
<path fill="none" stroke="#000000" d="M1249.4183,-530.5504C1241.047,-543.5054 1230.176,-560.3287 1220.9506,-574.6053"/>
<polygon fill="#000000" stroke="#000000" points="1217.944,-572.8095 1215.4562,-583.1081 1223.8233,-576.6087 1217.944,-572.8095"/>
</g>
<!-- GO:0050896&#45;&gt;GO:0008150 -->
<g id="edge44" class="edge">
<title>GO:0050896&#45;&gt;GO:0008150</title>
<path fill="none" stroke="#000000" d="M1149.6893,-624.6934C1124.4395,-634.6903 1093.9684,-646.7544 1067.5924,-657.1971"/>
<polygon fill="#000000" stroke="#000000" points="1066.0868,-654.0288 1058.0775,-660.9642 1068.6637,-660.5372 1066.0868,-654.0288"/>
</g>
</g>
</svg>
