<?xml version="1.0" encoding="UTF-8" standalone="no"?>
<!DOCTYPE svg PUBLIC "-//W3C//DTD SVG 1.1//EN"
 "http://www.w3.org/Graphics/SVG/1.1/DTD/svg11.dtd">
<!-- Generated by graphviz version 2.40.1 (20161225.0304)
 -->
<!-- Title: G Pages: 1 -->
<svg width="302pt" height="394pt"
 viewBox="0.00 0.00 302.08 393.60" xmlns="http://www.w3.org/2000/svg" xmlns:xlink="http://www.w3.org/1999/xlink">
<g id="graph0" class="graph" transform="scale(1 1) rotate(0) translate(4 389.6)">
<title>G</title>
<polygon fill="#ffffff" stroke="transparent" points="-4,4 -4,-389.6 298.0772,-389.6 298.0772,4 -4,4"/>
<!-- GO:0048500 -->
<g id="node1" class="node">
<title>GO:0048500</title>
<polygon fill="#ffffff" stroke="#000000" points="190.6607,-58.6014 74.2559,-58.6014 74.2559,.2014 190.6607,.2014 190.6607,-58.6014"/>
<text text-anchor="middle" x="132.4583" y="-41.8" font-family="Times,serif" font-size="14.00" fill="#000000">GO:0048500</text>
<text text-anchor="middle" x="132.4583" y="-25" font-family="Times,serif" font-size="14.00" fill="#000000">signal recognition</text>
<text text-anchor="middle" x="132.4583" y="-8.2" font-family="Times,serif" font-size="14.00" fill="#000000">particle</text>
</g>
<!-- GO:0044444 -->
<g id="node2" class="node">
<title>GO:0044444</title>
<polygon fill="#ffffff" stroke="#000000" points="108.8749,-144.2019 .0417,-144.2019 .0417,-102.9981 108.8749,-102.9981 108.8749,-144.2019"/>
<text text-anchor="middle" x="54.4583" y="-127.8" font-family="Times,serif" font-size="14.00" fill="#000000">GO:0044444</text>
<text text-anchor="middle" x="54.4583" y="-111" font-family="Times,serif" font-size="14.00" fill="#000000">cytoplasmic part</text>
</g>
<!-- GO:0048500&#45;&gt;GO:0044444 -->
<g id="edge1" class="edge">
<title>GO:0048500&#45;&gt;GO:0044444</title>
<path fill="none" stroke="#000000" d="M108.2062,-58.5513C98.6338,-70.1363 87.6714,-83.4037 78.1541,-94.922"/>
<polygon fill="#000000" stroke="#000000" points="75.1916,-93.0126 71.52,-102.951 80.5878,-97.4714 75.1916,-93.0126"/>
</g>
<!-- GO:0030529 -->
<g id="node3" class="node">
<title>GO:0030529</title>
<polygon fill="#ffffff" stroke="#000000" points="294.1963,-153.0014 126.7203,-153.0014 126.7203,-94.1986 294.1963,-94.1986 294.1963,-153.0014"/>
<text text-anchor="middle" x="210.4583" y="-136.2" font-family="Times,serif" font-size="14.00" fill="#000000">GO:0030529</text>
<text text-anchor="middle" x="210.4583" y="-119.4" font-family="Times,serif" font-size="14.00" fill="#000000">intracellular</text>
<text text-anchor="middle" x="210.4583" y="-102.6" font-family="Times,serif" font-size="14.00" fill="#000000">ribonucleoprotein complex</text>
</g>
<!-- GO:0048500&#45;&gt;GO:0030529 -->
<g id="edge2" class="edge">
<title>GO:0048500&#45;&gt;GO:0030529</title>
<path fill="none" stroke="#000000" d="M156.7104,-58.5513C163.9741,-67.3422 172.0381,-77.1018 179.6638,-86.3308"/>
<polygon fill="#000000" stroke="#000000" points="177.1534,-88.7873 186.2212,-94.2669 182.5496,-84.3285 177.1534,-88.7873"/>
</g>
<!-- GO:0044424 -->
<g id="node4" class="node">
<title>GO:0044424</title>
<polygon fill="#ffffff" stroke="#000000" points="108.8567,-230.2019 .0599,-230.2019 .0599,-188.9981 108.8567,-188.9981 108.8567,-230.2019"/>
<text text-anchor="middle" x="54.4583" y="-213.8" font-family="Times,serif" font-size="14.00" fill="#000000">GO:0044424</text>
<text text-anchor="middle" x="54.4583" y="-197" font-family="Times,serif" font-size="14.00" fill="#000000">intracellular part</text>
</g>
<!-- GO:0044444&#45;&gt;GO:0044424 -->
<g id="edge3" class="edge">
<title>GO:0044444&#45;&gt;GO:0044424</title>
<path fill="none" stroke="#000000" d="M54.4583,-144.4182C54.4583,-154.7705 54.4583,-167.4848 54.4583,-178.9271"/>
<polygon fill="#000000" stroke="#000000" points="50.9584,-178.9735 54.4583,-188.9735 57.9584,-178.9735 50.9584,-178.9735"/>
</g>
<!-- GO:0030529&#45;&gt;GO:0044424 -->
<g id="edge4" class="edge">
<title>GO:0030529&#45;&gt;GO:0044424</title>
<path fill="none" stroke="#000000" d="M157.2083,-152.9558C139.0187,-162.9834 118.8257,-174.1154 101.1889,-183.8383"/>
<polygon fill="#000000" stroke="#000000" points="99.2908,-180.888 92.2231,-188.7809 102.6703,-187.0182 99.2908,-180.888"/>
</g>
<!-- GO:1990904 -->
<g id="node5" class="node">
<title>GO:1990904</title>
<polygon fill="#ffffff" stroke="#000000" points="294.1963,-230.2019 126.7203,-230.2019 126.7203,-188.9981 294.1963,-188.9981 294.1963,-230.2019"/>
<text text-anchor="middle" x="210.4583" y="-213.8" font-family="Times,serif" font-size="14.00" fill="#000000">GO:1990904</text>
<text text-anchor="middle" x="210.4583" y="-197" font-family="Times,serif" font-size="14.00" fill="#000000">ribonucleoprotein complex</text>
</g>
<!-- GO:0030529&#45;&gt;GO:1990904 -->
<g id="edge5" class="edge">
<title>GO:0030529&#45;&gt;GO:1990904</title>
<path fill="none" stroke="#000000" d="M210.4583,-153.1963C210.4583,-161.4638 210.4583,-170.4657 210.4583,-178.8008"/>
<polygon fill="#000000" stroke="#000000" points="206.9584,-178.8965 210.4583,-188.8966 213.9584,-178.8966 206.9584,-178.8965"/>
</g>
<!-- GO:0044464 -->
<g id="node6" class="node">
<title>GO:0044464</title>
<polygon fill="#ffffff" stroke="#000000" points="106.0622,-307.8019 16.8544,-307.8019 16.8544,-266.5981 106.0622,-266.5981 106.0622,-307.8019"/>
<text text-anchor="middle" x="61.4583" y="-291.4" font-family="Times,serif" font-size="14.00" fill="#000000">GO:0044464</text>
<text text-anchor="middle" x="61.4583" y="-274.6" font-family="Times,serif" font-size="14.00" fill="#000000">cell part</text>
</g>
<!-- GO:0044424&#45;&gt;GO:0044464 -->
<g id="edge6" class="edge">
<title>GO:0044424&#45;&gt;GO:0044464</title>
<path fill="none" stroke="#000000" d="M56.3342,-230.3954C57.0482,-238.3109 57.8781,-247.5109 58.6594,-256.1722"/>
<polygon fill="#000000" stroke="#000000" points="55.1929,-256.7021 59.5773,-266.3472 62.1646,-256.0732 55.1929,-256.7021"/>
</g>
<!-- GO:0032991 -->
<g id="node7" class="node">
<title>GO:0032991</title>
<polygon fill="#ffffff" stroke="#000000" points="285.6256,-307.8019 127.291,-307.8019 127.291,-266.5981 285.6256,-266.5981 285.6256,-307.8019"/>
<text text-anchor="middle" x="206.4583" y="-291.4" font-family="Times,serif" font-size="14.00" fill="#000000">GO:0032991</text>
<text text-anchor="middle" x="206.4583" y="-274.6" font-family="Times,serif" font-size="14.00" fill="#000000">macromolecular complex</text>
</g>
<!-- GO:1990904&#45;&gt;GO:0032991 -->
<g id="edge7" class="edge">
<title>GO:1990904&#45;&gt;GO:0032991</title>
<path fill="none" stroke="#000000" d="M209.3864,-230.3954C208.9784,-238.3109 208.5041,-247.5109 208.0577,-256.1722"/>
<polygon fill="#000000" stroke="#000000" points="204.5527,-256.1803 207.5332,-266.3472 211.5434,-256.5407 204.5527,-256.1803"/>
</g>
<!-- GO:0005575 -->
<g id="node8" class="node">
<title>GO:0005575</title>
<polygon fill="#ffffff" stroke="#000000" points="196.145,-385.4019 68.7716,-385.4019 68.7716,-344.1981 196.145,-344.1981 196.145,-385.4019"/>
<text text-anchor="middle" x="132.4583" y="-369" font-family="Times,serif" font-size="14.00" fill="#000000">GO:0005575</text>
<text text-anchor="middle" x="132.4583" y="-352.2" font-family="Times,serif" font-size="14.00" fill="#000000">cellular_component</text>
</g>
<!-- GO:0044464&#45;&gt;GO:0005575 -->
<g id="edge8" class="edge">
<title>GO:0044464&#45;&gt;GO:0005575</title>
<path fill="none" stroke="#000000" d="M80.485,-307.9954C88.4435,-316.6937 97.8213,-326.9433 106.4046,-336.3244"/>
<polygon fill="#000000" stroke="#000000" points="104.0464,-338.932 113.3791,-343.9472 109.211,-334.2067 104.0464,-338.932"/>
</g>
<!-- GO:0032991&#45;&gt;GO:0005575 -->
<g id="edge9" class="edge">
<title>GO:0032991&#45;&gt;GO:0005575</title>
<path fill="none" stroke="#000000" d="M186.6277,-307.9954C178.2499,-316.7807 168.3632,-327.1484 159.3447,-336.6056"/>
<polygon fill="#000000" stroke="#000000" points="156.712,-334.2948 152.3437,-343.9472 161.7779,-339.1257 156.712,-334.2948"/>
</g>
</g>
</svg>
