<?xml version="1.0" encoding="UTF-8" standalone="no"?>
<!DOCTYPE svg PUBLIC "-//W3C//DTD SVG 1.1//EN"
 "http://www.w3.org/Graphics/SVG/1.1/DTD/svg11.dtd">
<!-- Generated by graphviz version 2.40.1 (20161225.0304)
 -->
<!-- Title: G Pages: 1 -->
<svg width="1779pt" height="633pt"
 viewBox="0.00 0.00 1778.82 632.80" xmlns="http://www.w3.org/2000/svg" xmlns:xlink="http://www.w3.org/1999/xlink">
<g id="graph0" class="graph" transform="scale(1 1) rotate(0) translate(4 628.8)">
<title>G</title>
<polygon fill="#ffffff" stroke="transparent" points="-4,4 -4,-628.8 1774.8223,-628.8 1774.8223,4 -4,4"/>
<!-- GO:0044700 -->
<g id="node1" class="node">
<title>GO:0044700</title>
<polygon fill="#ffffff" stroke="#000000" points="1770.7586,-419.0019 1611.0136,-419.0019 1611.0136,-377.7981 1770.7586,-377.7981 1770.7586,-419.0019"/>
<text text-anchor="middle" x="1690.8861" y="-402.6" font-family="Times,serif" font-size="14.00" fill="#000000">GO:0044700</text>
<text text-anchor="middle" x="1690.8861" y="-385.8" font-family="Times,serif" font-size="14.00" fill="#000000">single organism signaling</text>
</g>
<!-- GO:0023052 -->
<g id="node2" class="node">
<title>GO:0023052</title>
<polygon fill="#ffffff" stroke="#000000" points="1751.49,-530.2019 1662.2822,-530.2019 1662.2822,-488.9981 1751.49,-488.9981 1751.49,-530.2019"/>
<text text-anchor="middle" x="1706.8861" y="-513.8" font-family="Times,serif" font-size="14.00" fill="#000000">GO:0023052</text>
<text text-anchor="middle" x="1706.8861" y="-497" font-family="Times,serif" font-size="14.00" fill="#000000">signaling</text>
</g>
<!-- GO:0044700&#45;&gt;GO:0023052 -->
<g id="edge1" class="edge">
<title>GO:0044700&#45;&gt;GO:0023052</title>
<path fill="none" stroke="#000000" d="M1693.8581,-419.0553C1696.2676,-435.8017 1699.7006,-459.6608 1702.4377,-478.6834"/>
<polygon fill="#000000" stroke="#000000" points="1698.9872,-479.2784 1703.8757,-488.678 1705.9158,-478.2814 1698.9872,-479.2784"/>
</g>
<!-- GO:0044699 -->
<g id="node3" class="node">
<title>GO:0044699</title>
<polygon fill="#ffffff" stroke="#000000" points="1644.5674,-530.2019 1493.2048,-530.2019 1493.2048,-488.9981 1644.5674,-488.9981 1644.5674,-530.2019"/>
<text text-anchor="middle" x="1568.8861" y="-513.8" font-family="Times,serif" font-size="14.00" fill="#000000">GO:0044699</text>
<text text-anchor="middle" x="1568.8861" y="-497" font-family="Times,serif" font-size="14.00" fill="#000000">single&#45;organism process</text>
</g>
<!-- GO:0044700&#45;&gt;GO:0044699 -->
<g id="edge2" class="edge">
<title>GO:0044700&#45;&gt;GO:0044699</title>
<path fill="none" stroke="#000000" d="M1668.2248,-419.0553C1648.8311,-436.7321 1620.7429,-462.3338 1599.3784,-481.807"/>
<polygon fill="#000000" stroke="#000000" points="1596.873,-479.3549 1591.8401,-488.678 1601.5885,-484.5283 1596.873,-479.3549"/>
</g>
<!-- GO:0008150 -->
<g id="node4" class="node">
<title>GO:0008150</title>
<polygon fill="#ffffff" stroke="#000000" points="1273.3567,-624.6019 1152.4155,-624.6019 1152.4155,-583.3981 1273.3567,-583.3981 1273.3567,-624.6019"/>
<text text-anchor="middle" x="1212.8861" y="-608.2" font-family="Times,serif" font-size="14.00" fill="#000000">GO:0008150</text>
<text text-anchor="middle" x="1212.8861" y="-591.4" font-family="Times,serif" font-size="14.00" fill="#000000">biological_process</text>
</g>
<!-- GO:0023052&#45;&gt;GO:0008150 -->
<g id="edge3" class="edge">
<title>GO:0023052&#45;&gt;GO:0008150</title>
<path fill="none" stroke="#000000" d="M1683.008,-530.2894C1674.3641,-536.7222 1664.1837,-543.1756 1653.8861,-547.2 1588.0646,-572.9239 1390.8128,-590.9064 1283.8006,-599.0626"/>
<polygon fill="#000000" stroke="#000000" points="1283.4425,-595.5796 1273.7338,-599.8212 1283.9685,-602.5598 1283.4425,-595.5796"/>
</g>
<!-- GO:0044699&#45;&gt;GO:0008150 -->
<g id="edge4" class="edge">
<title>GO:0044699&#45;&gt;GO:0008150</title>
<path fill="none" stroke="#000000" d="M1526.762,-530.3242C1513.2941,-536.3801 1498.1704,-542.6001 1483.8861,-547.2 1417.3339,-568.6316 1338.9271,-584.0452 1283.6191,-593.3611"/>
<polygon fill="#000000" stroke="#000000" points="1282.8604,-589.9391 1273.5687,-595.0297 1284.007,-596.8445 1282.8604,-589.9391"/>
</g>
<!-- GO:0051716 -->
<g id="node5" class="node">
<title>GO:0051716</title>
<polygon fill="#ffffff" stroke="#000000" points="1265.232,-427.8014 1140.5402,-427.8014 1140.5402,-368.9986 1265.232,-368.9986 1265.232,-427.8014"/>
<text text-anchor="middle" x="1202.8861" y="-411" font-family="Times,serif" font-size="14.00" fill="#000000">GO:0051716</text>
<text text-anchor="middle" x="1202.8861" y="-394.2" font-family="Times,serif" font-size="14.00" fill="#000000">cellular response to</text>
<text text-anchor="middle" x="1202.8861" y="-377.4" font-family="Times,serif" font-size="14.00" fill="#000000">stimulus</text>
</g>
<!-- GO:0050896 -->
<g id="node6" class="node">
<title>GO:0050896</title>
<polygon fill="#ff00ff" stroke="#000000" points="1211.2077,-530.2019 1080.5645,-530.2019 1080.5645,-488.9981 1211.2077,-488.9981 1211.2077,-530.2019"/>
<text text-anchor="middle" x="1145.8861" y="-513.8" font-family="Times,serif" font-size="14.00" fill="#000000">GO:0050896</text>
<text text-anchor="middle" x="1145.8861" y="-497" font-family="Times,serif" font-size="14.00" fill="#000000">response to stimulus</text>
</g>
<!-- GO:0051716&#45;&gt;GO:0050896 -->
<g id="edge5" class="edge">
<title>GO:0051716&#45;&gt;GO:0050896</title>
<path fill="none" stroke="#000000" d="M1187.91,-427.6165C1179.6932,-443.6464 1169.5241,-463.4852 1161.2474,-479.632"/>
<polygon fill="#000000" stroke="#000000" points="1158.0689,-478.16 1156.622,-488.6556 1164.2983,-481.3531 1158.0689,-478.16"/>
</g>
<!-- GO:0009987 -->
<g id="node7" class="node">
<title>GO:0009987</title>
<polygon fill="#ffffff" stroke="#000000" points="1332.8423,-530.2019 1228.9299,-530.2019 1228.9299,-488.9981 1332.8423,-488.9981 1332.8423,-530.2019"/>
<text text-anchor="middle" x="1280.8861" y="-513.8" font-family="Times,serif" font-size="14.00" fill="#000000">GO:0009987</text>
<text text-anchor="middle" x="1280.8861" y="-497" font-family="Times,serif" font-size="14.00" fill="#000000">cellular process</text>
</g>
<!-- GO:0051716&#45;&gt;GO:0009987 -->
<g id="edge6" class="edge">
<title>GO:0051716&#45;&gt;GO:0009987</title>
<path fill="none" stroke="#000000" d="M1223.3797,-427.6165C1234.7288,-443.7962 1248.7998,-463.8564 1260.1822,-480.0837"/>
<polygon fill="#000000" stroke="#000000" points="1257.5869,-482.4787 1266.1949,-488.6556 1263.3177,-478.4589 1257.5869,-482.4787"/>
</g>
<!-- GO:0050896&#45;&gt;GO:0008150 -->
<g id="edge7" class="edge">
<title>GO:0050896&#45;&gt;GO:0008150</title>
<path fill="none" stroke="#000000" d="M1160.7556,-530.5504C1169.9503,-543.5054 1181.8906,-560.3287 1192.0234,-574.6053"/>
<polygon fill="#000000" stroke="#000000" points="1189.4161,-576.9791 1198.0582,-583.1081 1195.1245,-572.9276 1189.4161,-576.9791"/>
</g>
<!-- GO:0009987&#45;&gt;GO:0008150 -->
<g id="edge8" class="edge">
<title>GO:0009987&#45;&gt;GO:0008150</title>
<path fill="none" stroke="#000000" d="M1265.7947,-530.5504C1256.4628,-543.5054 1244.3443,-560.3287 1234.0602,-574.6053"/>
<polygon fill="#000000" stroke="#000000" points="1230.9403,-572.9484 1227.9353,-583.1081 1236.6201,-577.0398 1230.9403,-572.9484"/>
</g>
<!-- GO:0046907 -->
<g id="node8" class="node">
<title>GO:0046907</title>
<polygon fill="#ffffff" stroke="#000000" points="445.2803,-221.8019 308.4919,-221.8019 308.4919,-180.5981 445.2803,-180.5981 445.2803,-221.8019"/>
<text text-anchor="middle" x="376.8861" y="-205.4" font-family="Times,serif" font-size="14.00" fill="#000000">GO:0046907</text>
<text text-anchor="middle" x="376.8861" y="-188.6" font-family="Times,serif" font-size="14.00" fill="#000000">intracellular transport</text>
</g>
<!-- GO:0006810 -->
<g id="node9" class="node">
<title>GO:0006810</title>
<polygon fill="#ffffff" stroke="#000000" points="683.49,-316.2019 594.2822,-316.2019 594.2822,-274.9981 683.49,-274.9981 683.49,-316.2019"/>
<text text-anchor="middle" x="638.8861" y="-299.8" font-family="Times,serif" font-size="14.00" fill="#000000">GO:0006810</text>
<text text-anchor="middle" x="638.8861" y="-283" font-family="Times,serif" font-size="14.00" fill="#000000">transport</text>
</g>
<!-- GO:0046907&#45;&gt;GO:0006810 -->
<g id="edge9" class="edge">
<title>GO:0046907&#45;&gt;GO:0006810</title>
<path fill="none" stroke="#000000" d="M445.427,-218.8203C486.8375,-230.3849 540.2572,-246.9479 585.8861,-266.4 588.7415,-267.6173 591.6438,-268.9426 594.5441,-270.3347"/>
<polygon fill="#000000" stroke="#000000" points="593.2342,-273.5935 603.7408,-274.9581 596.3784,-267.3393 593.2342,-273.5935"/>
</g>
<!-- GO:0051649 -->
<g id="node10" class="node">
<title>GO:0051649</title>
<polygon fill="#ffffff" stroke="#000000" points="407.7992,-325.0014 287.973,-325.0014 287.973,-266.1986 407.7992,-266.1986 407.7992,-325.0014"/>
<text text-anchor="middle" x="347.8861" y="-308.2" font-family="Times,serif" font-size="14.00" fill="#000000">GO:0051649</text>
<text text-anchor="middle" x="347.8861" y="-291.4" font-family="Times,serif" font-size="14.00" fill="#000000">establishment of</text>
<text text-anchor="middle" x="347.8861" y="-274.6" font-family="Times,serif" font-size="14.00" fill="#000000">localization in cell</text>
</g>
<!-- GO:0046907&#45;&gt;GO:0051649 -->
<g id="edge10" class="edge">
<title>GO:0046907&#45;&gt;GO:0051649</title>
<path fill="none" stroke="#000000" d="M370.4501,-222.1504C367.3474,-232.2502 363.5224,-244.7012 359.9089,-256.4637"/>
<polygon fill="#000000" stroke="#000000" points="356.5348,-255.5286 356.9438,-266.1155 363.2262,-257.5842 356.5348,-255.5286"/>
</g>
<!-- GO:0051641 -->
<g id="node11" class="node">
<title>GO:0051641</title>
<polygon fill="#ffffff" stroke="#000000" points="270.1739,-316.2019 143.5983,-316.2019 143.5983,-274.9981 270.1739,-274.9981 270.1739,-316.2019"/>
<text text-anchor="middle" x="206.8861" y="-299.8" font-family="Times,serif" font-size="14.00" fill="#000000">GO:0051641</text>
<text text-anchor="middle" x="206.8861" y="-283" font-family="Times,serif" font-size="14.00" fill="#000000">cellular localization</text>
</g>
<!-- GO:0046907&#45;&gt;GO:0051641 -->
<g id="edge11" class="edge">
<title>GO:0046907&#45;&gt;GO:0051641</title>
<path fill="none" stroke="#000000" d="M339.5789,-221.9165C314.1133,-236.0574 280.2036,-254.8872 253.0383,-269.9719"/>
<polygon fill="#000000" stroke="#000000" points="251.1497,-267.0172 244.1063,-274.9318 254.548,-273.137 251.1497,-267.0172"/>
</g>
<!-- GO:0051234 -->
<g id="node12" class="node">
<title>GO:0051234</title>
<polygon fill="#ffffff" stroke="#000000" points="478.0328,-427.8014 369.7394,-427.8014 369.7394,-368.9986 478.0328,-368.9986 478.0328,-427.8014"/>
<text text-anchor="middle" x="423.8861" y="-411" font-family="Times,serif" font-size="14.00" fill="#000000">GO:0051234</text>
<text text-anchor="middle" x="423.8861" y="-394.2" font-family="Times,serif" font-size="14.00" fill="#000000">establishment of</text>
<text text-anchor="middle" x="423.8861" y="-377.4" font-family="Times,serif" font-size="14.00" fill="#000000">localization</text>
</g>
<!-- GO:0006810&#45;&gt;GO:0051234 -->
<g id="edge12" class="edge">
<title>GO:0006810&#45;&gt;GO:0051234</title>
<path fill="none" stroke="#000000" d="M602.3012,-316.234C596.8348,-319.1777 591.2384,-322.1148 585.8861,-324.8 553.7317,-340.9318 517.3085,-357.617 487.1538,-371.0141"/>
<polygon fill="#000000" stroke="#000000" points="485.7361,-367.814 478.0084,-375.062 488.5694,-374.215 485.7361,-367.814"/>
</g>
<!-- GO:0051649&#45;&gt;GO:0051234 -->
<g id="edge13" class="edge">
<title>GO:0051649&#45;&gt;GO:0051234</title>
<path fill="none" stroke="#000000" d="M369.6646,-325.0584C377.8533,-336.1346 387.2792,-348.8844 395.9514,-360.6146"/>
<polygon fill="#000000" stroke="#000000" points="393.3451,-362.9769 402.1044,-368.9373 398.9739,-358.8155 393.3451,-362.9769"/>
</g>
<!-- GO:0051179 -->
<g id="node13" class="node">
<title>GO:0051179</title>
<polygon fill="#ffffff" stroke="#000000" points="382.49,-530.2019 293.2822,-530.2019 293.2822,-488.9981 382.49,-488.9981 382.49,-530.2019"/>
<text text-anchor="middle" x="337.8861" y="-513.8" font-family="Times,serif" font-size="14.00" fill="#000000">GO:0051179</text>
<text text-anchor="middle" x="337.8861" y="-497" font-family="Times,serif" font-size="14.00" fill="#000000">localization</text>
</g>
<!-- GO:0051641&#45;&gt;GO:0051179 -->
<g id="edge14" class="edge">
<title>GO:0051641&#45;&gt;GO:0051179</title>
<path fill="none" stroke="#000000" d="M219.6855,-316.5089C243.1266,-354.8021 293.0038,-436.2809 319.8633,-480.1582"/>
<polygon fill="#000000" stroke="#000000" points="317.0216,-482.2198 325.2277,-488.9213 322.9918,-478.5651 317.0216,-482.2198"/>
</g>
<!-- GO:0051234&#45;&gt;GO:0051179 -->
<g id="edge15" class="edge">
<title>GO:0051234&#45;&gt;GO:0051179</title>
<path fill="none" stroke="#000000" d="M401.2906,-427.6165C388.6616,-443.946 372.9758,-464.2282 360.3656,-480.5335"/>
<polygon fill="#000000" stroke="#000000" points="357.4333,-478.604 354.0841,-488.6556 362.9705,-482.8864 357.4333,-478.604"/>
</g>
<!-- GO:0051179&#45;&gt;GO:0008150 -->
<g id="edge16" class="edge">
<title>GO:0051179&#45;&gt;GO:0008150</title>
<path fill="none" stroke="#000000" d="M382.6899,-528.3135C401.5673,-535.4134 423.9736,-542.8328 444.8861,-547.2 576.8704,-574.7626 977.6161,-594.1519 1141.692,-601.1376"/>
<polygon fill="#000000" stroke="#000000" points="1142.0129,-604.6542 1152.1518,-601.5797 1142.3086,-597.6604 1142.0129,-604.6542"/>
</g>
<!-- GO:0090174 -->
<g id="node14" class="node">
<title>GO:0090174</title>
<polygon fill="#ffffff" stroke="#000000" points="1575.5532,-41.4019 1406.219,-41.4019 1406.219,-.1981 1575.5532,-.1981 1575.5532,-41.4019"/>
<text text-anchor="middle" x="1490.8861" y="-25" font-family="Times,serif" font-size="14.00" fill="#000000">GO:0090174</text>
<text text-anchor="middle" x="1490.8861" y="-8.2" font-family="Times,serif" font-size="14.00" fill="#000000">organelle membrane fusion</text>
</g>
<!-- GO:1902589 -->
<g id="node15" class="node">
<title>GO:1902589</title>
<polygon fill="#ffffff" stroke="#000000" points="1388.6738,-136.2014 1227.0984,-136.2014 1227.0984,-77.3986 1388.6738,-77.3986 1388.6738,-136.2014"/>
<text text-anchor="middle" x="1307.8861" y="-119.4" font-family="Times,serif" font-size="14.00" fill="#000000">GO:1902589</text>
<text text-anchor="middle" x="1307.8861" y="-102.6" font-family="Times,serif" font-size="14.00" fill="#000000">single&#45;organism organelle</text>
<text text-anchor="middle" x="1307.8861" y="-85.8" font-family="Times,serif" font-size="14.00" fill="#000000">organization</text>
</g>
<!-- GO:0090174&#45;&gt;GO:1902589 -->
<g id="edge17" class="edge">
<title>GO:0090174&#45;&gt;GO:1902589</title>
<path fill="none" stroke="#000000" d="M1446.5869,-41.6182C1426.4123,-51.0992 1402.0218,-62.5614 1379.3558,-73.2132"/>
<polygon fill="#000000" stroke="#000000" points="1377.6627,-70.1415 1370.1009,-77.5624 1380.64,-76.4768 1377.6627,-70.1415"/>
</g>
<!-- GO:0048284 -->
<g id="node16" class="node">
<title>GO:0048284</title>
<polygon fill="#ffffff" stroke="#000000" points="1699.9683,-127.4019 1593.8039,-127.4019 1593.8039,-86.1981 1699.9683,-86.1981 1699.9683,-127.4019"/>
<text text-anchor="middle" x="1646.8861" y="-111" font-family="Times,serif" font-size="14.00" fill="#000000">GO:0048284</text>
<text text-anchor="middle" x="1646.8861" y="-94.2" font-family="Times,serif" font-size="14.00" fill="#000000">organelle fusion</text>
</g>
<!-- GO:0090174&#45;&gt;GO:0048284 -->
<g id="edge18" class="edge">
<title>GO:0090174&#45;&gt;GO:0048284</title>
<path fill="none" stroke="#000000" d="M1528.6493,-41.6182C1550.3022,-53.555 1577.6517,-68.6323 1600.5919,-81.2788"/>
<polygon fill="#000000" stroke="#000000" points="1599.0234,-84.4108 1609.4706,-86.1735 1602.4029,-78.2806 1599.0234,-84.4108"/>
</g>
<!-- GO:0044801 -->
<g id="node17" class="node">
<title>GO:0044801</title>
<polygon fill="#ffffff" stroke="#000000" points="1575.1738,-136.2014 1406.5984,-136.2014 1406.5984,-77.3986 1575.1738,-77.3986 1575.1738,-136.2014"/>
<text text-anchor="middle" x="1490.8861" y="-119.4" font-family="Times,serif" font-size="14.00" fill="#000000">GO:0044801</text>
<text text-anchor="middle" x="1490.8861" y="-102.6" font-family="Times,serif" font-size="14.00" fill="#000000">single&#45;organism membrane</text>
<text text-anchor="middle" x="1490.8861" y="-85.8" font-family="Times,serif" font-size="14.00" fill="#000000">fusion</text>
</g>
<!-- GO:0090174&#45;&gt;GO:0044801 -->
<g id="edge19" class="edge">
<title>GO:0090174&#45;&gt;GO:0044801</title>
<path fill="none" stroke="#000000" d="M1490.8861,-41.6182C1490.8861,-49.3358 1490.8861,-58.3662 1490.8861,-67.2036"/>
<polygon fill="#000000" stroke="#000000" points="1487.3862,-67.3991 1490.8861,-77.3991 1494.3862,-67.3992 1487.3862,-67.3991"/>
</g>
<!-- GO:0006996 -->
<g id="node18" class="node">
<title>GO:0006996</title>
<polygon fill="#ffffff" stroke="#000000" points="1717.4486,-221.8019 1576.3236,-221.8019 1576.3236,-180.5981 1717.4486,-180.5981 1717.4486,-221.8019"/>
<text text-anchor="middle" x="1646.8861" y="-205.4" font-family="Times,serif" font-size="14.00" fill="#000000">GO:0006996</text>
<text text-anchor="middle" x="1646.8861" y="-188.6" font-family="Times,serif" font-size="14.00" fill="#000000">organelle organization</text>
</g>
<!-- GO:1902589&#45;&gt;GO:0006996 -->
<g id="edge20" class="edge">
<title>GO:1902589&#45;&gt;GO:0006996</title>
<path fill="none" stroke="#000000" d="M1388.7209,-133.4643C1391.8084,-134.3434 1394.8714,-135.1922 1397.8861,-136 1472.0656,-155.8768 1493.079,-150.7822 1566.8861,-172 1572.439,-173.5963 1578.1607,-175.3857 1583.8703,-177.272"/>
<polygon fill="#000000" stroke="#000000" points="1582.8415,-180.6189 1593.4359,-180.521 1585.0928,-173.9908 1582.8415,-180.6189"/>
</g>
<!-- GO:0044763 -->
<g id="node19" class="node">
<title>GO:0044763</title>
<polygon fill="#ffffff" stroke="#000000" points="1434.5646,-427.8014 1283.2076,-427.8014 1283.2076,-368.9986 1434.5646,-368.9986 1434.5646,-427.8014"/>
<text text-anchor="middle" x="1358.8861" y="-411" font-family="Times,serif" font-size="14.00" fill="#000000">GO:0044763</text>
<text text-anchor="middle" x="1358.8861" y="-394.2" font-family="Times,serif" font-size="14.00" fill="#000000">single&#45;organism cellular</text>
<text text-anchor="middle" x="1358.8861" y="-377.4" font-family="Times,serif" font-size="14.00" fill="#000000">process</text>
</g>
<!-- GO:1902589&#45;&gt;GO:0044763 -->
<g id="edge21" class="edge">
<title>GO:1902589&#45;&gt;GO:0044763</title>
<path fill="none" stroke="#000000" d="M1272.7961,-136.3251C1263.1726,-146.5248 1253.9904,-158.7519 1248.8861,-172 1239.5544,-196.22 1245.4087,-204.6784 1248.8861,-230.4 1254.7164,-273.5255 1251.7691,-287.9299 1274.8861,-324.8 1283.6715,-338.8121 1295.9278,-351.6575 1308.3668,-362.5583"/>
<polygon fill="#000000" stroke="#000000" points="1306.2057,-365.3143 1316.106,-369.0872 1310.7194,-359.9639 1306.2057,-365.3143"/>
</g>
<!-- GO:0048284&#45;&gt;GO:0006996 -->
<g id="edge22" class="edge">
<title>GO:0048284&#45;&gt;GO:0006996</title>
<path fill="none" stroke="#000000" d="M1646.8861,-127.7504C1646.8861,-140.2165 1646.8861,-156.2645 1646.8861,-170.1786"/>
<polygon fill="#000000" stroke="#000000" points="1643.3862,-170.3081 1646.8861,-180.3081 1650.3862,-170.3082 1643.3862,-170.3081"/>
</g>
<!-- GO:0061025 -->
<g id="node20" class="node">
<title>GO:0061025</title>
<polygon fill="#ffffff" stroke="#000000" points="1557.4683,-221.8019 1444.3039,-221.8019 1444.3039,-180.5981 1557.4683,-180.5981 1557.4683,-221.8019"/>
<text text-anchor="middle" x="1500.8861" y="-205.4" font-family="Times,serif" font-size="14.00" fill="#000000">GO:0061025</text>
<text text-anchor="middle" x="1500.8861" y="-188.6" font-family="Times,serif" font-size="14.00" fill="#000000">membrane fusion</text>
</g>
<!-- GO:0044801&#45;&gt;GO:0061025 -->
<g id="edge23" class="edge">
<title>GO:0044801&#45;&gt;GO:0061025</title>
<path fill="none" stroke="#000000" d="M1493.9953,-136.1513C1495.1511,-147.0614 1496.4649,-159.4637 1497.6331,-170.492"/>
<polygon fill="#000000" stroke="#000000" points="1494.1647,-170.9754 1498.6987,-180.551 1501.1257,-170.2379 1494.1647,-170.9754"/>
</g>
<!-- GO:0044802 -->
<g id="node21" class="node">
<title>GO:0044802</title>
<polygon fill="#ffffff" stroke="#000000" points="1426.1738,-230.6014 1257.5984,-230.6014 1257.5984,-171.7986 1426.1738,-171.7986 1426.1738,-230.6014"/>
<text text-anchor="middle" x="1341.8861" y="-213.8" font-family="Times,serif" font-size="14.00" fill="#000000">GO:0044802</text>
<text text-anchor="middle" x="1341.8861" y="-197" font-family="Times,serif" font-size="14.00" fill="#000000">single&#45;organism membrane</text>
<text text-anchor="middle" x="1341.8861" y="-180.2" font-family="Times,serif" font-size="14.00" fill="#000000">organization</text>
</g>
<!-- GO:0044801&#45;&gt;GO:0044802 -->
<g id="edge24" class="edge">
<title>GO:0044801&#45;&gt;GO:0044802</title>
<path fill="none" stroke="#000000" d="M1444.5583,-136.1513C1429.4215,-145.7413 1412.465,-156.4842 1396.7612,-166.4335"/>
<polygon fill="#000000" stroke="#000000" points="1394.7594,-163.5584 1388.1852,-171.8669 1398.5057,-169.4715 1394.7594,-163.5584"/>
</g>
<!-- GO:0016043 -->
<g id="node22" class="node">
<title>GO:0016043</title>
<polygon fill="#ffffff" stroke="#000000" points="1576.5731,-427.8014 1453.1991,-427.8014 1453.1991,-368.9986 1576.5731,-368.9986 1576.5731,-427.8014"/>
<text text-anchor="middle" x="1514.8861" y="-411" font-family="Times,serif" font-size="14.00" fill="#000000">GO:0016043</text>
<text text-anchor="middle" x="1514.8861" y="-394.2" font-family="Times,serif" font-size="14.00" fill="#000000">cellular component</text>
<text text-anchor="middle" x="1514.8861" y="-377.4" font-family="Times,serif" font-size="14.00" fill="#000000">organization</text>
</g>
<!-- GO:0006996&#45;&gt;GO:0016043 -->
<g id="edge25" class="edge">
<title>GO:0006996&#45;&gt;GO:0016043</title>
<path fill="none" stroke="#000000" d="M1641.8824,-221.8886C1634.9613,-247.6698 1620.6759,-292.2893 1597.8861,-324.8 1588.2735,-338.5127 1575.6153,-351.4013 1563.0895,-362.4436"/>
<polygon fill="#000000" stroke="#000000" points="1560.6632,-359.9131 1555.3359,-369.0712 1565.2115,-365.2341 1560.6632,-359.9131"/>
</g>
<!-- GO:0044763&#45;&gt;GO:0044699 -->
<g id="edge27" class="edge">
<title>GO:0044763&#45;&gt;GO:0044699</title>
<path fill="none" stroke="#000000" d="M1414.0611,-427.6165C1447.1318,-445.1282 1488.7869,-467.1855 1520.558,-484.0091"/>
<polygon fill="#000000" stroke="#000000" points="1519.1846,-487.2422 1529.66,-488.8288 1522.4604,-481.056 1519.1846,-487.2422"/>
</g>
<!-- GO:0044763&#45;&gt;GO:0009987 -->
<g id="edge26" class="edge">
<title>GO:0044763&#45;&gt;GO:0009987</title>
<path fill="none" stroke="#000000" d="M1338.3925,-427.6165C1327.0434,-443.7962 1312.9724,-463.8564 1301.59,-480.0837"/>
<polygon fill="#000000" stroke="#000000" points="1298.4545,-478.4589 1295.5773,-488.6556 1304.1853,-482.4787 1298.4545,-478.4589"/>
</g>
<!-- GO:0061024 -->
<g id="node23" class="node">
<title>GO:0061024</title>
<polygon fill="#ffffff" stroke="#000000" points="1588.9485,-316.2019 1440.8237,-316.2019 1440.8237,-274.9981 1588.9485,-274.9981 1588.9485,-316.2019"/>
<text text-anchor="middle" x="1514.8861" y="-299.8" font-family="Times,serif" font-size="14.00" fill="#000000">GO:0061024</text>
<text text-anchor="middle" x="1514.8861" y="-283" font-family="Times,serif" font-size="14.00" fill="#000000">membrane organization</text>
</g>
<!-- GO:0061025&#45;&gt;GO:0061024 -->
<g id="edge28" class="edge">
<title>GO:0061025&#45;&gt;GO:0061024</title>
<path fill="none" stroke="#000000" d="M1503.9932,-222.1504C1505.8419,-234.6165 1508.2219,-250.6645 1510.2855,-264.5786"/>
<polygon fill="#000000" stroke="#000000" points="1506.8585,-265.3298 1511.7877,-274.7081 1513.7828,-264.3029 1506.8585,-265.3298"/>
</g>
<!-- GO:0044802&#45;&gt;GO:0044763 -->
<g id="edge30" class="edge">
<title>GO:0044802&#45;&gt;GO:0044763</title>
<path fill="none" stroke="#000000" d="M1309.7169,-230.4486C1300.5341,-240.8008 1291.7151,-253.1862 1286.8861,-266.4 1277.9769,-290.7786 1277.0852,-300.766 1286.8861,-324.8 1292.4799,-338.5173 1301.9976,-351.0666 1312.3125,-361.7665"/>
<polygon fill="#000000" stroke="#000000" points="1309.9564,-364.3583 1319.5424,-368.8703 1314.8624,-359.3651 1309.9564,-364.3583"/>
</g>
<!-- GO:0044802&#45;&gt;GO:0061024 -->
<g id="edge29" class="edge">
<title>GO:0044802&#45;&gt;GO:0061024</title>
<path fill="none" stroke="#000000" d="M1395.6761,-230.5513C1418.8653,-243.2048 1445.7326,-257.8654 1468.0841,-270.0618"/>
<polygon fill="#000000" stroke="#000000" points="1466.5895,-273.2334 1477.0442,-274.951 1469.9425,-267.0886 1466.5895,-273.2334"/>
</g>
<!-- GO:0016043&#45;&gt;GO:0009987 -->
<g id="edge31" class="edge">
<title>GO:0016043&#45;&gt;GO:0009987</title>
<path fill="none" stroke="#000000" d="M1461.4119,-427.787C1455.556,-430.6839 1449.6346,-433.4799 1443.8861,-436 1399.8572,-455.302 1385.2608,-451.2697 1341.8861,-472 1334.7042,-475.4325 1327.3018,-479.498 1320.2376,-483.6656"/>
<polygon fill="#000000" stroke="#000000" points="1318.2466,-480.7798 1311.5128,-488.9594 1321.8778,-486.7644 1318.2466,-480.7798"/>
</g>
<!-- GO:0071840 -->
<g id="node24" class="node">
<title>GO:0071840</title>
<polygon fill="#ffffff" stroke="#000000" points="1474.5731,-547.3003 1351.1991,-547.3003 1351.1991,-471.8997 1474.5731,-471.8997 1474.5731,-547.3003"/>
<text text-anchor="middle" x="1412.8861" y="-530.6" font-family="Times,serif" font-size="14.00" fill="#000000">GO:0071840</text>
<text text-anchor="middle" x="1412.8861" y="-513.8" font-family="Times,serif" font-size="14.00" fill="#000000">cellular component</text>
<text text-anchor="middle" x="1412.8861" y="-497" font-family="Times,serif" font-size="14.00" fill="#000000">organization or</text>
<text text-anchor="middle" x="1412.8861" y="-480.2" font-family="Times,serif" font-size="14.00" fill="#000000">biogenesis</text>
</g>
<!-- GO:0016043&#45;&gt;GO:0071840 -->
<g id="edge32" class="edge">
<title>GO:0016043&#45;&gt;GO:0071840</title>
<path fill="none" stroke="#000000" d="M1488.0868,-427.6165C1477.822,-438.8072 1465.8544,-451.8542 1454.525,-464.2054"/>
<polygon fill="#000000" stroke="#000000" points="1451.7547,-462.0478 1447.5743,-471.783 1456.9133,-466.7796 1451.7547,-462.0478"/>
</g>
<!-- GO:0061024&#45;&gt;GO:0016043 -->
<g id="edge33" class="edge">
<title>GO:0061024&#45;&gt;GO:0016043</title>
<path fill="none" stroke="#000000" d="M1514.8861,-316.4031C1514.8861,-328.5833 1514.8861,-344.3676 1514.8861,-358.8305"/>
<polygon fill="#000000" stroke="#000000" points="1511.3862,-359.0577 1514.8861,-369.0577 1518.3862,-359.0578 1511.3862,-359.0577"/>
</g>
<!-- GO:0034613 -->
<g id="node25" class="node">
<title>GO:0034613</title>
<polygon fill="#ffffff" stroke="#000000" points="201.5188,-136.2014 100.2534,-136.2014 100.2534,-77.3986 201.5188,-77.3986 201.5188,-136.2014"/>
<text text-anchor="middle" x="150.8861" y="-119.4" font-family="Times,serif" font-size="14.00" fill="#000000">GO:0034613</text>
<text text-anchor="middle" x="150.8861" y="-102.6" font-family="Times,serif" font-size="14.00" fill="#000000">cellular protein</text>
<text text-anchor="middle" x="150.8861" y="-85.8" font-family="Times,serif" font-size="14.00" fill="#000000">localization</text>
</g>
<!-- GO:0008104 -->
<g id="node26" class="node">
<title>GO:0008104</title>
<polygon fill="#ffffff" stroke="#000000" points="290.3548,-221.8019 165.4174,-221.8019 165.4174,-180.5981 290.3548,-180.5981 290.3548,-221.8019"/>
<text text-anchor="middle" x="227.8861" y="-205.4" font-family="Times,serif" font-size="14.00" fill="#000000">GO:0008104</text>
<text text-anchor="middle" x="227.8861" y="-188.6" font-family="Times,serif" font-size="14.00" fill="#000000">protein localization</text>
</g>
<!-- GO:0034613&#45;&gt;GO:0008104 -->
<g id="edge34" class="edge">
<title>GO:0034613&#45;&gt;GO:0008104</title>
<path fill="none" stroke="#000000" d="M174.8273,-136.1513C184.2769,-147.7363 195.0989,-161.0037 204.4941,-172.522"/>
<polygon fill="#000000" stroke="#000000" points="202.0102,-175.0142 211.0432,-180.551 207.4346,-170.5896 202.0102,-175.0142"/>
</g>
<!-- GO:0070727 -->
<g id="node27" class="node">
<title>GO:0070727</title>
<polygon fill="#ffffff" stroke="#000000" points="147.6585,-230.6014 .1137,-230.6014 .1137,-171.7986 147.6585,-171.7986 147.6585,-230.6014"/>
<text text-anchor="middle" x="73.8861" y="-213.8" font-family="Times,serif" font-size="14.00" fill="#000000">GO:0070727</text>
<text text-anchor="middle" x="73.8861" y="-197" font-family="Times,serif" font-size="14.00" fill="#000000">cellular macromolecule</text>
<text text-anchor="middle" x="73.8861" y="-180.2" font-family="Times,serif" font-size="14.00" fill="#000000">localization</text>
</g>
<!-- GO:0034613&#45;&gt;GO:0070727 -->
<g id="edge35" class="edge">
<title>GO:0034613&#45;&gt;GO:0070727</title>
<path fill="none" stroke="#000000" d="M126.9449,-136.1513C119.7744,-144.9422 111.8137,-154.7018 104.2858,-163.9308"/>
<polygon fill="#000000" stroke="#000000" points="101.4211,-161.9055 97.8125,-171.8669 106.8455,-166.33 101.4211,-161.9055"/>
</g>
<!-- GO:0033036 -->
<g id="node28" class="node">
<title>GO:0033036</title>
<polygon fill="#ffffff" stroke="#000000" points="125.1825,-325.0014 22.5897,-325.0014 22.5897,-266.1986 125.1825,-266.1986 125.1825,-325.0014"/>
<text text-anchor="middle" x="73.8861" y="-308.2" font-family="Times,serif" font-size="14.00" fill="#000000">GO:0033036</text>
<text text-anchor="middle" x="73.8861" y="-291.4" font-family="Times,serif" font-size="14.00" fill="#000000">macromolecule</text>
<text text-anchor="middle" x="73.8861" y="-274.6" font-family="Times,serif" font-size="14.00" fill="#000000">localization</text>
</g>
<!-- GO:0008104&#45;&gt;GO:0033036 -->
<g id="edge36" class="edge">
<title>GO:0008104&#45;&gt;GO:0033036</title>
<path fill="none" stroke="#000000" d="M194.0901,-221.9165C175.4138,-233.3649 151.7236,-247.8866 130.3209,-261.0062"/>
<polygon fill="#000000" stroke="#000000" points="128.3203,-258.1272 121.6238,-266.3374 131.9786,-264.0952 128.3203,-258.1272"/>
</g>
<!-- GO:0070727&#45;&gt;GO:0051641 -->
<g id="edge38" class="edge">
<title>GO:0070727&#45;&gt;GO:0051641</title>
<path fill="none" stroke="#000000" d="M115.2391,-230.5513C132.512,-242.8112 152.4394,-256.9551 169.2917,-268.9165"/>
<polygon fill="#000000" stroke="#000000" points="167.6132,-272.0171 177.7937,-274.951 171.6648,-266.3088 167.6132,-272.0171"/>
</g>
<!-- GO:0070727&#45;&gt;GO:0033036 -->
<g id="edge37" class="edge">
<title>GO:0070727&#45;&gt;GO:0033036</title>
<path fill="none" stroke="#000000" d="M73.8861,-230.5513C73.8861,-238.6318 73.8861,-247.5308 73.8861,-256.0838"/>
<polygon fill="#000000" stroke="#000000" points="70.3862,-256.2668 73.8861,-266.2669 77.3862,-256.2669 70.3862,-256.2668"/>
</g>
<!-- GO:0033036&#45;&gt;GO:0051179 -->
<g id="edge39" class="edge">
<title>GO:0033036&#45;&gt;GO:0051179</title>
<path fill="none" stroke="#000000" d="M109.1049,-324.8267C143.5726,-353.3566 197.6357,-397.9106 244.8861,-436 264.0349,-451.4362 285.5622,-468.4917 303.0792,-482.2944"/>
<polygon fill="#000000" stroke="#000000" points="301.3057,-485.3527 311.3282,-488.7877 305.6353,-479.8523 301.3057,-485.3527"/>
</g>
<!-- GO:0009271 -->
<g id="node29" class="node">
<title>GO:0009271</title>
<polygon fill="#ff00ff" stroke="#000000" points="1062.49,-41.4019 973.2822,-41.4019 973.2822,-.1981 1062.49,-.1981 1062.49,-41.4019"/>
<text text-anchor="middle" x="1017.8861" y="-25" font-family="Times,serif" font-size="14.00" fill="#000000">GO:0009271</text>
<text text-anchor="middle" x="1017.8861" y="-8.2" font-family="Times,serif" font-size="14.00" fill="#000000">phage shock</text>
</g>
<!-- GO:0006950 -->
<g id="node30" class="node">
<title>GO:0006950</title>
<polygon fill="#ffffff" stroke="#000000" points="1159.8553,-127.4019 1045.9169,-127.4019 1045.9169,-86.1981 1159.8553,-86.1981 1159.8553,-127.4019"/>
<text text-anchor="middle" x="1102.8861" y="-111" font-family="Times,serif" font-size="14.00" fill="#000000">GO:0006950</text>
<text text-anchor="middle" x="1102.8861" y="-94.2" font-family="Times,serif" font-size="14.00" fill="#000000">response to stress</text>
</g>
<!-- GO:0009271&#45;&gt;GO:0006950 -->
<g id="edge40" class="edge">
<title>GO:0009271&#45;&gt;GO:0006950</title>
<path fill="none" stroke="#000000" d="M1038.4622,-41.6182C1049.5294,-52.8156 1063.3279,-66.7764 1075.3124,-78.9019"/>
<polygon fill="#000000" stroke="#000000" points="1072.9805,-81.5216 1082.4995,-86.1735 1077.9591,-76.6008 1072.9805,-81.5216"/>
</g>
<!-- GO:0098586 -->
<g id="node31" class="node">
<title>GO:0098586</title>
<polygon fill="#ffffff" stroke="#000000" points="995.232,-136.2014 870.5402,-136.2014 870.5402,-77.3986 995.232,-77.3986 995.232,-136.2014"/>
<text text-anchor="middle" x="932.8861" y="-119.4" font-family="Times,serif" font-size="14.00" fill="#000000">GO:0098586</text>
<text text-anchor="middle" x="932.8861" y="-102.6" font-family="Times,serif" font-size="14.00" fill="#000000">cellular response to</text>
<text text-anchor="middle" x="932.8861" y="-85.8" font-family="Times,serif" font-size="14.00" fill="#000000">virus</text>
</g>
<!-- GO:0009271&#45;&gt;GO:0098586 -->
<g id="edge41" class="edge">
<title>GO:0009271&#45;&gt;GO:0098586</title>
<path fill="none" stroke="#000000" d="M997.31,-41.6182C988.853,-50.1747 978.8011,-60.3448 969.1825,-70.0766"/>
<polygon fill="#000000" stroke="#000000" points="966.4854,-67.8264 961.9451,-77.3991 971.464,-72.7472 966.4854,-67.8264"/>
</g>
<!-- GO:0006950&#45;&gt;GO:0050896 -->
<g id="edge42" class="edge">
<title>GO:0006950&#45;&gt;GO:0050896</title>
<path fill="none" stroke="#000000" d="M1103.9978,-127.6802C1106.9337,-179.8575 1115.7948,-320.0682 1131.8861,-436 1133.8474,-450.1305 1136.6979,-465.6628 1139.3157,-478.8019"/>
<polygon fill="#000000" stroke="#000000" points="1135.9173,-479.6541 1141.3438,-488.7537 1142.7764,-478.2562 1135.9173,-479.6541"/>
</g>
<!-- GO:0009615 -->
<g id="node32" class="node">
<title>GO:0009615</title>
<polygon fill="#ffffff" stroke="#000000" points="969.2516,-221.8019 858.5206,-221.8019 858.5206,-180.5981 969.2516,-180.5981 969.2516,-221.8019"/>
<text text-anchor="middle" x="913.8861" y="-205.4" font-family="Times,serif" font-size="14.00" fill="#000000">GO:0009615</text>
<text text-anchor="middle" x="913.8861" y="-188.6" font-family="Times,serif" font-size="14.00" fill="#000000">response to virus</text>
</g>
<!-- GO:0098586&#45;&gt;GO:0009615 -->
<g id="edge43" class="edge">
<title>GO:0098586&#45;&gt;GO:0009615</title>
<path fill="none" stroke="#000000" d="M926.9785,-136.1513C924.7826,-147.0614 922.2864,-159.4637 920.0667,-170.492"/>
<polygon fill="#000000" stroke="#000000" points="916.5842,-170.057 918.0422,-180.551 923.4466,-171.4382 916.5842,-170.057"/>
</g>
<!-- GO:0051707 -->
<g id="node33" class="node">
<title>GO:0051707</title>
<polygon fill="#ffffff" stroke="#000000" points="812.5221,-325.0014 701.2501,-325.0014 701.2501,-266.1986 812.5221,-266.1986 812.5221,-325.0014"/>
<text text-anchor="middle" x="756.8861" y="-308.2" font-family="Times,serif" font-size="14.00" fill="#000000">GO:0051707</text>
<text text-anchor="middle" x="756.8861" y="-291.4" font-family="Times,serif" font-size="14.00" fill="#000000">response to other</text>
<text text-anchor="middle" x="756.8861" y="-274.6" font-family="Times,serif" font-size="14.00" fill="#000000">organism</text>
</g>
<!-- GO:0009615&#45;&gt;GO:0051707 -->
<g id="edge44" class="edge">
<title>GO:0009615&#45;&gt;GO:0051707</title>
<path fill="none" stroke="#000000" d="M879.4318,-221.9165C860.307,-233.4157 836.0251,-248.0158 814.1295,-261.1811"/>
<polygon fill="#000000" stroke="#000000" points="812.3203,-258.1849 805.5537,-266.3374 815.9274,-264.1839 812.3203,-258.1849"/>
</g>
<!-- GO:0016032 -->
<g id="node34" class="node">
<title>GO:0016032</title>
<polygon fill="#ffffff" stroke="#000000" points="958.49,-316.2019 869.2822,-316.2019 869.2822,-274.9981 958.49,-274.9981 958.49,-316.2019"/>
<text text-anchor="middle" x="913.8861" y="-299.8" font-family="Times,serif" font-size="14.00" fill="#000000">GO:0016032</text>
<text text-anchor="middle" x="913.8861" y="-283" font-family="Times,serif" font-size="14.00" fill="#000000">viral process</text>
</g>
<!-- GO:0009615&#45;&gt;GO:0016032 -->
<g id="edge45" class="edge">
<title>GO:0009615&#45;&gt;GO:0016032</title>
<path fill="none" stroke="#000000" d="M913.8861,-222.1504C913.8861,-234.6165 913.8861,-250.6645 913.8861,-264.5786"/>
<polygon fill="#000000" stroke="#000000" points="910.3862,-264.7081 913.8861,-274.7081 917.3862,-264.7082 910.3862,-264.7081"/>
</g>
<!-- GO:0043207 -->
<g id="node35" class="node">
<title>GO:0043207</title>
<polygon fill="#ffffff" stroke="#000000" points="704.8413,-427.8014 576.9309,-427.8014 576.9309,-368.9986 704.8413,-368.9986 704.8413,-427.8014"/>
<text text-anchor="middle" x="640.8861" y="-411" font-family="Times,serif" font-size="14.00" fill="#000000">GO:0043207</text>
<text text-anchor="middle" x="640.8861" y="-394.2" font-family="Times,serif" font-size="14.00" fill="#000000">response to external</text>
<text text-anchor="middle" x="640.8861" y="-377.4" font-family="Times,serif" font-size="14.00" fill="#000000">biotic stimulus</text>
</g>
<!-- GO:0051707&#45;&gt;GO:0043207 -->
<g id="edge46" class="edge">
<title>GO:0051707&#45;&gt;GO:0043207</title>
<path fill="none" stroke="#000000" d="M723.6452,-325.0584C710.6613,-336.5648 695.6395,-349.8771 681.9866,-361.9765"/>
<polygon fill="#000000" stroke="#000000" points="679.2946,-359.6855 674.1319,-368.9373 683.9373,-364.9243 679.2946,-359.6855"/>
</g>
<!-- GO:0051704 -->
<g id="node36" class="node">
<title>GO:0051704</title>
<polygon fill="#ffffff" stroke="#000000" points="898.6892,-530.2019 751.083,-530.2019 751.083,-488.9981 898.6892,-488.9981 898.6892,-530.2019"/>
<text text-anchor="middle" x="824.8861" y="-513.8" font-family="Times,serif" font-size="14.00" fill="#000000">GO:0051704</text>
<text text-anchor="middle" x="824.8861" y="-497" font-family="Times,serif" font-size="14.00" fill="#000000">multi&#45;organism process</text>
</g>
<!-- GO:0051707&#45;&gt;GO:0051704 -->
<g id="edge47" class="edge">
<title>GO:0051707&#45;&gt;GO:0051704</title>
<path fill="none" stroke="#000000" d="M749.0349,-324.8002C742.694,-354.0928 737.0258,-399.9154 751.8861,-436 759.2875,-453.9724 773.4364,-469.8798 787.3223,-482.2659"/>
<polygon fill="#000000" stroke="#000000" points="785.0827,-484.9558 794.9651,-488.7755 789.6216,-479.6268 785.0827,-484.9558"/>
</g>
<!-- GO:0044403 -->
<g id="node37" class="node">
<title>GO:0044403</title>
<polygon fill="#ffffff" stroke="#000000" points="1085.2062,-436.1003 926.566,-436.1003 926.566,-360.6997 1085.2062,-360.6997 1085.2062,-436.1003"/>
<text text-anchor="middle" x="1005.8861" y="-419.4" font-family="Times,serif" font-size="14.00" fill="#000000">GO:0044403</text>
<text text-anchor="middle" x="1005.8861" y="-402.6" font-family="Times,serif" font-size="14.00" fill="#000000">symbiosis, encompassing</text>
<text text-anchor="middle" x="1005.8861" y="-385.8" font-family="Times,serif" font-size="14.00" fill="#000000">mutualism through</text>
<text text-anchor="middle" x="1005.8861" y="-369" font-family="Times,serif" font-size="14.00" fill="#000000">parasitism</text>
</g>
<!-- GO:0016032&#45;&gt;GO:0044403 -->
<g id="edge48" class="edge">
<title>GO:0016032&#45;&gt;GO:0044403</title>
<path fill="none" stroke="#000000" d="M932.5037,-316.4031C941.9841,-326.9965 953.9044,-340.3161 965.3645,-353.1215"/>
<polygon fill="#000000" stroke="#000000" points="962.76,-355.4597 972.037,-360.5773 967.9762,-350.7915 962.76,-355.4597"/>
</g>
<!-- GO:0044764 -->
<g id="node38" class="node">
<title>GO:0044764</title>
<polygon fill="#ffffff" stroke="#000000" points="908.6864,-427.8014 761.0858,-427.8014 761.0858,-368.9986 908.6864,-368.9986 908.6864,-427.8014"/>
<text text-anchor="middle" x="834.8861" y="-411" font-family="Times,serif" font-size="14.00" fill="#000000">GO:0044764</text>
<text text-anchor="middle" x="834.8861" y="-394.2" font-family="Times,serif" font-size="14.00" fill="#000000">multi&#45;organism cellular</text>
<text text-anchor="middle" x="834.8861" y="-377.4" font-family="Times,serif" font-size="14.00" fill="#000000">process</text>
</g>
<!-- GO:0016032&#45;&gt;GO:0044764 -->
<g id="edge49" class="edge">
<title>GO:0016032&#45;&gt;GO:0044764</title>
<path fill="none" stroke="#000000" d="M897.8993,-316.4031C888.0846,-329.1746 875.2249,-345.9086 863.6836,-360.9268"/>
<polygon fill="#000000" stroke="#000000" points="860.7533,-358.9959 857.4351,-369.0577 866.3037,-363.2613 860.7533,-358.9959"/>
</g>
<!-- GO:0009607 -->
<g id="node39" class="node">
<title>GO:0009607</title>
<polygon fill="#ffffff" stroke="#000000" points="568.1424,-539.0014 453.6298,-539.0014 453.6298,-480.1986 568.1424,-480.1986 568.1424,-539.0014"/>
<text text-anchor="middle" x="510.8861" y="-522.2" font-family="Times,serif" font-size="14.00" fill="#000000">GO:0009607</text>
<text text-anchor="middle" x="510.8861" y="-505.4" font-family="Times,serif" font-size="14.00" fill="#000000">response to biotic</text>
<text text-anchor="middle" x="510.8861" y="-488.6" font-family="Times,serif" font-size="14.00" fill="#000000">stimulus</text>
</g>
<!-- GO:0043207&#45;&gt;GO:0009607 -->
<g id="edge50" class="edge">
<title>GO:0043207&#45;&gt;GO:0009607</title>
<path fill="none" stroke="#000000" d="M606.7301,-427.6165C590.2905,-441.6787 570.424,-458.6722 553.0508,-473.5329"/>
<polygon fill="#000000" stroke="#000000" points="550.5894,-471.0326 545.2653,-480.1926 555.1396,-476.352 550.5894,-471.0326"/>
</g>
<!-- GO:0009605 -->
<g id="node40" class="node">
<title>GO:0009605</title>
<polygon fill="#ffffff" stroke="#000000" points="713.8413,-539.0014 585.9309,-539.0014 585.9309,-480.1986 713.8413,-480.1986 713.8413,-539.0014"/>
<text text-anchor="middle" x="649.8861" y="-522.2" font-family="Times,serif" font-size="14.00" fill="#000000">GO:0009605</text>
<text text-anchor="middle" x="649.8861" y="-505.4" font-family="Times,serif" font-size="14.00" fill="#000000">response to external</text>
<text text-anchor="middle" x="649.8861" y="-488.6" font-family="Times,serif" font-size="14.00" fill="#000000">stimulus</text>
</g>
<!-- GO:0043207&#45;&gt;GO:0009605 -->
<g id="edge51" class="edge">
<title>GO:0043207&#45;&gt;GO:0009605</title>
<path fill="none" stroke="#000000" d="M643.2507,-427.6165C644.2966,-440.5386 645.5428,-455.9358 646.6713,-469.8788"/>
<polygon fill="#000000" stroke="#000000" points="643.2106,-470.5075 647.506,-480.1926 650.1878,-469.9428 643.2106,-470.5075"/>
</g>
<!-- GO:0051704&#45;&gt;GO:0008150 -->
<g id="edge52" class="edge">
<title>GO:0051704&#45;&gt;GO:0008150</title>
<path fill="none" stroke="#000000" d="M865.4911,-530.3544C878.7425,-536.4837 893.701,-542.7383 907.8861,-547.2 986.2458,-571.8469 1079.4881,-587.2862 1142.0702,-595.7412"/>
<polygon fill="#000000" stroke="#000000" points="1141.8557,-599.2434 1152.2292,-597.0888 1142.7762,-592.3041 1141.8557,-599.2434"/>
</g>
<!-- GO:0044419 -->
<g id="node41" class="node">
<title>GO:0044419</title>
<polygon fill="#ffffff" stroke="#000000" points="1062.8336,-539.0014 916.9386,-539.0014 916.9386,-480.1986 1062.8336,-480.1986 1062.8336,-539.0014"/>
<text text-anchor="middle" x="989.8861" y="-522.2" font-family="Times,serif" font-size="14.00" fill="#000000">GO:0044419</text>
<text text-anchor="middle" x="989.8861" y="-505.4" font-family="Times,serif" font-size="14.00" fill="#000000">interspecies interaction</text>
<text text-anchor="middle" x="989.8861" y="-488.6" font-family="Times,serif" font-size="14.00" fill="#000000">between organisms</text>
</g>
<!-- GO:0044403&#45;&gt;GO:0044419 -->
<g id="edge53" class="edge">
<title>GO:0044403&#45;&gt;GO:0044419</title>
<path fill="none" stroke="#000000" d="M1000.4692,-436.0472C998.9028,-446.9338 997.1884,-458.849 995.6042,-469.8589"/>
<polygon fill="#000000" stroke="#000000" points="992.0944,-469.6776 994.1344,-480.0742 999.023,-470.6746 992.0944,-469.6776"/>
</g>
<!-- GO:0044764&#45;&gt;GO:0009987 -->
<g id="edge54" class="edge">
<title>GO:0044764&#45;&gt;GO:0009987</title>
<path fill="none" stroke="#000000" d="M893.9089,-427.766C901.8332,-430.9264 909.9625,-433.79 917.8861,-436 1048.089,-472.3153 1092.2507,-427.4936 1219.8861,-472 1228.1603,-474.8852 1236.4993,-479.0292 1244.241,-483.5209"/>
<polygon fill="#000000" stroke="#000000" points="1242.6602,-486.6571 1253.0151,-488.8989 1246.3183,-480.689 1242.6602,-486.6571"/>
</g>
<!-- GO:0044764&#45;&gt;GO:0051704 -->
<g id="edge55" class="edge">
<title>GO:0044764&#45;&gt;GO:0051704</title>
<path fill="none" stroke="#000000" d="M832.2587,-427.6165C830.8576,-443.197 829.1329,-462.3758 827.704,-478.2653"/>
<polygon fill="#000000" stroke="#000000" points="824.1794,-478.3822 826.7696,-488.6556 831.1513,-479.0093 824.1794,-478.3822"/>
</g>
<!-- GO:0015031 -->
<g id="node42" class="node">
<title>GO:0015031</title>
<polygon fill="#ffffff" stroke="#000000" points="555.3041,-127.4019 446.4681,-127.4019 446.4681,-86.1981 555.3041,-86.1981 555.3041,-127.4019"/>
<text text-anchor="middle" x="500.8861" y="-111" font-family="Times,serif" font-size="14.00" fill="#000000">GO:0015031</text>
<text text-anchor="middle" x="500.8861" y="-94.2" font-family="Times,serif" font-size="14.00" fill="#000000">protein transport</text>
</g>
<!-- GO:0015031&#45;&gt;GO:0008104 -->
<g id="edge57" class="edge">
<title>GO:0015031&#45;&gt;GO:0008104</title>
<path fill="none" stroke="#000000" d="M446.3547,-123.3285C405.7189,-135.9255 349.0033,-154.0999 299.8861,-172 295.7098,-173.522 291.4156,-175.136 287.1032,-176.7931"/>
<polygon fill="#000000" stroke="#000000" points="285.7171,-173.5768 277.6719,-180.4706 288.2602,-180.0986 285.7171,-173.5768"/>
</g>
<!-- GO:0045184 -->
<g id="node43" class="node">
<title>GO:0045184</title>
<polygon fill="#ffffff" stroke="#000000" points="576.6894,-325.0014 425.0828,-325.0014 425.0828,-266.1986 576.6894,-266.1986 576.6894,-325.0014"/>
<text text-anchor="middle" x="500.8861" y="-308.2" font-family="Times,serif" font-size="14.00" fill="#000000">GO:0045184</text>
<text text-anchor="middle" x="500.8861" y="-291.4" font-family="Times,serif" font-size="14.00" fill="#000000">establishment of protein</text>
<text text-anchor="middle" x="500.8861" y="-274.6" font-family="Times,serif" font-size="14.00" fill="#000000">localization</text>
</g>
<!-- GO:0015031&#45;&gt;GO:0045184 -->
<g id="edge56" class="edge">
<title>GO:0015031&#45;&gt;GO:0045184</title>
<path fill="none" stroke="#000000" d="M500.8861,-127.7263C500.8861,-158.5951 500.8861,-216.8952 500.8861,-256.0013"/>
<polygon fill="#000000" stroke="#000000" points="497.3862,-256.2376 500.8861,-266.2376 504.3862,-256.2377 497.3862,-256.2376"/>
</g>
<!-- GO:0071702 -->
<g id="node44" class="node">
<title>GO:0071702</title>
<polygon fill="#ffffff" stroke="#000000" points="670.7901,-230.6014 554.9821,-230.6014 554.9821,-171.7986 670.7901,-171.7986 670.7901,-230.6014"/>
<text text-anchor="middle" x="612.8861" y="-213.8" font-family="Times,serif" font-size="14.00" fill="#000000">GO:0071702</text>
<text text-anchor="middle" x="612.8861" y="-197" font-family="Times,serif" font-size="14.00" fill="#000000">organic substance</text>
<text text-anchor="middle" x="612.8861" y="-180.2" font-family="Times,serif" font-size="14.00" fill="#000000">transport</text>
</g>
<!-- GO:0015031&#45;&gt;GO:0071702 -->
<g id="edge58" class="edge">
<title>GO:0015031&#45;&gt;GO:0071702</title>
<path fill="none" stroke="#000000" d="M525.465,-127.5165C538.6252,-138.6087 555.2085,-152.586 570.3852,-165.3778"/>
<polygon fill="#000000" stroke="#000000" points="568.2658,-168.1689 578.1678,-171.9374 572.7772,-162.8165 568.2658,-168.1689"/>
</g>
<!-- GO:0045184&#45;&gt;GO:0051234 -->
<g id="edge59" class="edge">
<title>GO:0045184&#45;&gt;GO:0051234</title>
<path fill="none" stroke="#000000" d="M478.821,-325.0584C470.5246,-336.1346 460.9747,-348.8844 452.1884,-360.6146"/>
<polygon fill="#000000" stroke="#000000" points="449.1482,-358.8353 445.9544,-368.9373 454.7508,-363.0319 449.1482,-358.8353"/>
</g>
<!-- GO:0071702&#45;&gt;GO:0006810 -->
<g id="edge60" class="edge">
<title>GO:0071702&#45;&gt;GO:0006810</title>
<path fill="none" stroke="#000000" d="M620.9701,-230.5513C624.006,-241.5739 627.4614,-254.1196 630.5222,-265.2326"/>
<polygon fill="#000000" stroke="#000000" points="627.1691,-266.2394 633.1989,-274.951 633.9178,-264.3806 627.1691,-266.2394"/>
</g>
<!-- GO:0007154 -->
<g id="node45" class="node">
<title>GO:0007154</title>
<polygon fill="#ffffff" stroke="#000000" points="1422.1934,-316.2019 1295.5788,-316.2019 1295.5788,-274.9981 1422.1934,-274.9981 1422.1934,-316.2019"/>
<text text-anchor="middle" x="1358.8861" y="-299.8" font-family="Times,serif" font-size="14.00" fill="#000000">GO:0007154</text>
<text text-anchor="middle" x="1358.8861" y="-283" font-family="Times,serif" font-size="14.00" fill="#000000">cell communication</text>
</g>
<!-- GO:0007154&#45;&gt;GO:0044763 -->
<g id="edge61" class="edge">
<title>GO:0007154&#45;&gt;GO:0044763</title>
<path fill="none" stroke="#000000" d="M1358.8861,-316.4031C1358.8861,-328.5833 1358.8861,-344.3676 1358.8861,-358.8305"/>
<polygon fill="#000000" stroke="#000000" points="1355.3862,-359.0577 1358.8861,-369.0577 1362.3862,-359.0578 1355.3862,-359.0577"/>
</g>
</g>
</svg>
