<?xml version="1.0" encoding="UTF-8" standalone="no"?>
<!DOCTYPE svg PUBLIC "-//W3C//DTD SVG 1.1//EN"
 "http://www.w3.org/Graphics/SVG/1.1/DTD/svg11.dtd">
<!-- Generated by graphviz version 2.40.1 (20161225.0304)
 -->
<!-- Title: G Pages: 1 -->
<svg width="401pt" height="377pt"
 viewBox="0.00 0.00 401.13 376.80" xmlns="http://www.w3.org/2000/svg" xmlns:xlink="http://www.w3.org/1999/xlink">
<g id="graph0" class="graph" transform="scale(1 1) rotate(0) translate(4 372.8)">
<title>G</title>
<polygon fill="#ffffff" stroke="transparent" points="-4,4 -4,-372.8 397.134,-372.8 397.134,4 -4,4"/>
<!-- GO:0005829 -->
<g id="node1" class="node">
<title>GO:0005829</title>
<polygon fill="#ffffff" stroke="#000000" points="99.0622,-41.4019 9.8544,-41.4019 9.8544,-.1981 99.0622,-.1981 99.0622,-41.4019"/>
<text text-anchor="middle" x="54.4583" y="-25" font-family="Times,serif" font-size="14.00" fill="#000000">GO:0005829</text>
<text text-anchor="middle" x="54.4583" y="-8.2" font-family="Times,serif" font-size="14.00" fill="#000000">cytosol</text>
</g>
<!-- GO:0044444 -->
<g id="node2" class="node">
<title>GO:0044444</title>
<polygon fill="#ffffff" stroke="#000000" points="108.8749,-119.0019 .0417,-119.0019 .0417,-77.7981 108.8749,-77.7981 108.8749,-119.0019"/>
<text text-anchor="middle" x="54.4583" y="-102.6" font-family="Times,serif" font-size="14.00" fill="#000000">GO:0044444</text>
<text text-anchor="middle" x="54.4583" y="-85.8" font-family="Times,serif" font-size="14.00" fill="#000000">cytoplasmic part</text>
</g>
<!-- GO:0005829&#45;&gt;GO:0044444 -->
<g id="edge1" class="edge">
<title>GO:0005829&#45;&gt;GO:0044444</title>
<path fill="none" stroke="#000000" d="M54.4583,-41.5954C54.4583,-49.5109 54.4583,-58.7109 54.4583,-67.3722"/>
<polygon fill="#000000" stroke="#000000" points="50.9584,-67.5472 54.4583,-77.5472 57.9584,-67.5473 50.9584,-67.5472"/>
</g>
<!-- GO:0044424 -->
<g id="node3" class="node">
<title>GO:0044424</title>
<polygon fill="#ffffff" stroke="#000000" points="108.8567,-205.0019 .0599,-205.0019 .0599,-163.7981 108.8567,-163.7981 108.8567,-205.0019"/>
<text text-anchor="middle" x="54.4583" y="-188.6" font-family="Times,serif" font-size="14.00" fill="#000000">GO:0044424</text>
<text text-anchor="middle" x="54.4583" y="-171.8" font-family="Times,serif" font-size="14.00" fill="#000000">intracellular part</text>
</g>
<!-- GO:0044444&#45;&gt;GO:0044424 -->
<g id="edge2" class="edge">
<title>GO:0044444&#45;&gt;GO:0044424</title>
<path fill="none" stroke="#000000" d="M54.4583,-119.2182C54.4583,-129.5705 54.4583,-142.2848 54.4583,-153.7271"/>
<polygon fill="#000000" stroke="#000000" points="50.9584,-153.7735 54.4583,-163.7735 57.9584,-153.7735 50.9584,-153.7735"/>
</g>
<!-- GO:0044464 -->
<g id="node4" class="node">
<title>GO:0044464</title>
<polygon fill="#ff0000" stroke="#000000" points="242.0622,-291.0019 152.8544,-291.0019 152.8544,-249.7981 242.0622,-249.7981 242.0622,-291.0019"/>
<text text-anchor="middle" x="197.4583" y="-274.6" font-family="Times,serif" font-size="14.00" fill="#000000">GO:0044464</text>
<text text-anchor="middle" x="197.4583" y="-257.8" font-family="Times,serif" font-size="14.00" fill="#000000">cell part</text>
</g>
<!-- GO:0044424&#45;&gt;GO:0044464 -->
<g id="edge3" class="edge">
<title>GO:0044424&#45;&gt;GO:0044464</title>
<path fill="none" stroke="#000000" d="M89.0746,-205.2182C108.7474,-217.0494 133.5501,-231.9657 154.4627,-244.5425"/>
<polygon fill="#000000" stroke="#000000" points="152.7873,-247.6191 163.1608,-249.7735 156.395,-241.6203 152.7873,-247.6191"/>
</g>
<!-- GO:0005575 -->
<g id="node5" class="node">
<title>GO:0005575</title>
<polygon fill="#ffffff" stroke="#000000" points="314.145,-368.6019 186.7716,-368.6019 186.7716,-327.3981 314.145,-327.3981 314.145,-368.6019"/>
<text text-anchor="middle" x="250.4583" y="-352.2" font-family="Times,serif" font-size="14.00" fill="#000000">GO:0005575</text>
<text text-anchor="middle" x="250.4583" y="-335.4" font-family="Times,serif" font-size="14.00" fill="#000000">cellular_component</text>
</g>
<!-- GO:0044464&#45;&gt;GO:0005575 -->
<g id="edge4" class="edge">
<title>GO:0044464&#45;&gt;GO:0005575</title>
<path fill="none" stroke="#000000" d="M211.6613,-291.1954C217.424,-299.6328 224.1835,-309.5297 230.4316,-318.6778"/>
<polygon fill="#000000" stroke="#000000" points="227.6858,-320.8634 236.2161,-327.1472 233.4663,-316.9154 227.6858,-320.8634"/>
</g>
<!-- GO:0016020 -->
<g id="node6" class="node">
<title>GO:0016020</title>
<polygon fill="#ffff00" stroke="#000000" points="366.0622,-291.0019 276.8544,-291.0019 276.8544,-249.7981 366.0622,-249.7981 366.0622,-291.0019"/>
<text text-anchor="middle" x="321.4583" y="-274.6" font-family="Times,serif" font-size="14.00" fill="#000000">GO:0016020</text>
<text text-anchor="middle" x="321.4583" y="-257.8" font-family="Times,serif" font-size="14.00" fill="#000000">membrane</text>
</g>
<!-- GO:0016020&#45;&gt;GO:0005575 -->
<g id="edge5" class="edge">
<title>GO:0016020&#45;&gt;GO:0005575</title>
<path fill="none" stroke="#000000" d="M302.4316,-291.1954C294.4731,-299.8937 285.0953,-310.1433 276.512,-319.5244"/>
<polygon fill="#000000" stroke="#000000" points="273.7056,-317.4067 269.5375,-327.1472 278.8702,-322.132 273.7056,-317.4067"/>
</g>
<!-- GO:0009279 -->
<g id="node7" class="node">
<title>GO:0009279</title>
<polygon fill="#ff00ff" stroke="#000000" points="334.0201,-119.0019 202.8965,-119.0019 202.8965,-77.7981 334.0201,-77.7981 334.0201,-119.0019"/>
<text text-anchor="middle" x="268.4583" y="-102.6" font-family="Times,serif" font-size="14.00" fill="#000000">GO:0009279</text>
<text text-anchor="middle" x="268.4583" y="-85.8" font-family="Times,serif" font-size="14.00" fill="#000000">cell outer membrane</text>
</g>
<!-- GO:0044462 -->
<g id="node8" class="node">
<title>GO:0044462</title>
<polygon fill="#ffffff" stroke="#000000" points="268.0194,-213.8014 126.8972,-213.8014 126.8972,-154.9986 268.0194,-154.9986 268.0194,-213.8014"/>
<text text-anchor="middle" x="197.4583" y="-197" font-family="Times,serif" font-size="14.00" fill="#000000">GO:0044462</text>
<text text-anchor="middle" x="197.4583" y="-180.2" font-family="Times,serif" font-size="14.00" fill="#000000">external encapsulating</text>
<text text-anchor="middle" x="197.4583" y="-163.4" font-family="Times,serif" font-size="14.00" fill="#000000">structure part</text>
</g>
<!-- GO:0009279&#45;&gt;GO:0044462 -->
<g id="edge6" class="edge">
<title>GO:0009279&#45;&gt;GO:0044462</title>
<path fill="none" stroke="#000000" d="M251.2712,-119.2182C244.3456,-127.6069 236.1396,-137.5466 228.2495,-147.1037"/>
<polygon fill="#000000" stroke="#000000" points="225.3986,-145.0593 221.7311,-154.9991 230.7967,-149.5159 225.3986,-145.0593"/>
</g>
<!-- GO:0019867 -->
<g id="node9" class="node">
<title>GO:0019867</title>
<polygon fill="#ffffff" stroke="#000000" points="393.3103,-205.0019 285.6063,-205.0019 285.6063,-163.7981 393.3103,-163.7981 393.3103,-205.0019"/>
<text text-anchor="middle" x="339.4583" y="-188.6" font-family="Times,serif" font-size="14.00" fill="#000000">GO:0019867</text>
<text text-anchor="middle" x="339.4583" y="-171.8" font-family="Times,serif" font-size="14.00" fill="#000000">outer membrane</text>
</g>
<!-- GO:0009279&#45;&gt;GO:0019867 -->
<g id="edge7" class="edge">
<title>GO:0009279&#45;&gt;GO:0019867</title>
<path fill="none" stroke="#000000" d="M285.6454,-119.2182C294.7153,-130.2043 305.9814,-143.8506 315.8579,-155.8137"/>
<polygon fill="#000000" stroke="#000000" points="313.3639,-158.2902 322.4295,-163.7735 318.762,-153.8337 313.3639,-158.2902"/>
</g>
<!-- GO:0044462&#45;&gt;GO:0044464 -->
<g id="edge8" class="edge">
<title>GO:0044462&#45;&gt;GO:0044464</title>
<path fill="none" stroke="#000000" d="M197.4583,-213.9963C197.4583,-222.2638 197.4583,-231.2657 197.4583,-239.6008"/>
<polygon fill="#000000" stroke="#000000" points="193.9584,-239.6965 197.4583,-249.6966 200.9584,-239.6966 193.9584,-239.6965"/>
</g>
<!-- GO:0019867&#45;&gt;GO:0016020 -->
<g id="edge9" class="edge">
<title>GO:0019867&#45;&gt;GO:0016020</title>
<path fill="none" stroke="#000000" d="M335.101,-205.2182C332.9342,-215.5705 330.2731,-228.2848 327.8782,-239.7271"/>
<polygon fill="#000000" stroke="#000000" points="324.3984,-239.2686 325.7755,-249.7735 331.2499,-240.7027 324.3984,-239.2686"/>
</g>
</g>
</svg>
