<?xml version="1.0" encoding="UTF-8" standalone="no"?>
<!DOCTYPE svg PUBLIC "-//W3C//DTD SVG 1.1//EN"
 "http://www.w3.org/Graphics/SVG/1.1/DTD/svg11.dtd">
<!-- Generated by graphviz version 2.40.1 (20161225.0304)
 -->
<!-- Title: G Pages: 1 -->
<svg width="1109pt" height="744pt"
 viewBox="0.00 0.00 1108.54 744.00" xmlns="http://www.w3.org/2000/svg" xmlns:xlink="http://www.w3.org/1999/xlink">
<g id="graph0" class="graph" transform="scale(1 1) rotate(0) translate(4 740)">
<title>G</title>
<polygon fill="#ffffff" stroke="transparent" points="-4,4 -4,-740 1104.5411,-740 1104.5411,4 -4,4"/>
<!-- GO:0035639 -->
<g id="node1" class="node">
<title>GO:0035639</title>
<polygon fill="#ffffff" stroke="#000000" points="137.5303,-367.0014 .1563,-367.0014 .1563,-308.1986 137.5303,-308.1986 137.5303,-367.0014"/>
<text text-anchor="middle" x="68.8433" y="-350.2" font-family="Times,serif" font-size="14.00" fill="#000000">GO:0035639</text>
<text text-anchor="middle" x="68.8433" y="-333.4" font-family="Times,serif" font-size="14.00" fill="#000000">purine ribonucleoside</text>
<text text-anchor="middle" x="68.8433" y="-316.6" font-family="Times,serif" font-size="14.00" fill="#000000">triphosphate binding</text>
</g>
<!-- GO:1901265 -->
<g id="node2" class="node">
<title>GO:1901265</title>
<polygon fill="#ffffff" stroke="#000000" points="302.9774,-486.6014 166.7092,-486.6014 166.7092,-427.7986 302.9774,-427.7986 302.9774,-486.6014"/>
<text text-anchor="middle" x="234.8433" y="-469.8" font-family="Times,serif" font-size="14.00" fill="#000000">GO:1901265</text>
<text text-anchor="middle" x="234.8433" y="-453" font-family="Times,serif" font-size="14.00" fill="#000000">nucleoside phosphate</text>
<text text-anchor="middle" x="234.8433" y="-436.2" font-family="Times,serif" font-size="14.00" fill="#000000">binding</text>
</g>
<!-- GO:0035639&#45;&gt;GO:1901265 -->
<g id="edge1" class="edge">
<title>GO:0035639&#45;&gt;GO:1901265</title>
<path fill="none" stroke="#000000" d="M109.4515,-366.8575C132.4623,-383.4363 161.4153,-404.2964 185.7009,-421.7938"/>
<polygon fill="#000000" stroke="#000000" points="183.9195,-424.8241 194.079,-427.8301 188.0115,-419.1447 183.9195,-424.8241"/>
</g>
<!-- GO:0097159 -->
<g id="node3" class="node">
<title>GO:0097159</title>
<polygon fill="#ffffff" stroke="#000000" points="302.3547,-581.0014 145.3319,-581.0014 145.3319,-522.1986 302.3547,-522.1986 302.3547,-581.0014"/>
<text text-anchor="middle" x="223.8433" y="-564.2" font-family="Times,serif" font-size="14.00" fill="#000000">GO:0097159</text>
<text text-anchor="middle" x="223.8433" y="-547.4" font-family="Times,serif" font-size="14.00" fill="#000000">organic cyclic compound</text>
<text text-anchor="middle" x="223.8433" y="-530.6" font-family="Times,serif" font-size="14.00" fill="#000000">binding</text>
</g>
<!-- GO:1901265&#45;&gt;GO:0097159 -->
<g id="edge2" class="edge">
<title>GO:1901265&#45;&gt;GO:0097159</title>
<path fill="none" stroke="#000000" d="M231.4231,-486.5513C230.4815,-494.6318 229.4446,-503.5308 228.4479,-512.0838"/>
<polygon fill="#000000" stroke="#000000" points="224.9424,-511.9289 227.2614,-522.2669 231.8953,-512.7392 224.9424,-511.9289"/>
</g>
<!-- GO:1901363 -->
<g id="node4" class="node">
<title>GO:1901363</title>
<polygon fill="#ffffff" stroke="#000000" points="467.3539,-581.0014 320.3327,-581.0014 320.3327,-522.1986 467.3539,-522.1986 467.3539,-581.0014"/>
<text text-anchor="middle" x="393.8433" y="-564.2" font-family="Times,serif" font-size="14.00" fill="#000000">GO:1901363</text>
<text text-anchor="middle" x="393.8433" y="-547.4" font-family="Times,serif" font-size="14.00" fill="#000000">heterocyclic compound</text>
<text text-anchor="middle" x="393.8433" y="-530.6" font-family="Times,serif" font-size="14.00" fill="#000000">binding</text>
</g>
<!-- GO:1901265&#45;&gt;GO:1901363 -->
<g id="edge3" class="edge">
<title>GO:1901265&#45;&gt;GO:1901363</title>
<path fill="none" stroke="#000000" d="M284.2803,-486.5513C300.5826,-496.2301 318.8628,-507.0833 335.7505,-517.1097"/>
<polygon fill="#000000" stroke="#000000" points="334.0513,-520.1712 344.4369,-522.2669 337.625,-514.1521 334.0513,-520.1712"/>
</g>
<!-- GO:0005488 -->
<g id="node5" class="node">
<title>GO:0005488</title>
<polygon fill="#ffffff" stroke="#000000" points="686.4472,-658.2019 597.2394,-658.2019 597.2394,-616.9981 686.4472,-616.9981 686.4472,-658.2019"/>
<text text-anchor="middle" x="641.8433" y="-641.8" font-family="Times,serif" font-size="14.00" fill="#000000">GO:0005488</text>
<text text-anchor="middle" x="641.8433" y="-625" font-family="Times,serif" font-size="14.00" fill="#000000">binding</text>
</g>
<!-- GO:0097159&#45;&gt;GO:0005488 -->
<g id="edge4" class="edge">
<title>GO:0097159&#45;&gt;GO:0005488</title>
<path fill="none" stroke="#000000" d="M302.4028,-578.57C305.2426,-579.3525 308.0625,-580.0992 310.8433,-580.8 406.7719,-604.9762 520.9433,-622.0565 587.0356,-630.8268"/>
<polygon fill="#000000" stroke="#000000" points="586.8497,-634.3323 597.22,-632.1628 587.7602,-627.3918 586.8497,-634.3323"/>
</g>
<!-- GO:1901363&#45;&gt;GO:0005488 -->
<g id="edge5" class="edge">
<title>GO:1901363&#45;&gt;GO:0005488</title>
<path fill="none" stroke="#000000" d="M467.5853,-577.908C470.3724,-578.8869 473.1325,-579.8536 475.8433,-580.8 512.9811,-593.7655 554.8931,-608.1042 587.3119,-619.1312"/>
<polygon fill="#000000" stroke="#000000" points="586.4579,-622.5375 597.0523,-622.4419 588.7106,-615.9099 586.4579,-622.5375"/>
</g>
<!-- GO:0003674 -->
<g id="node6" class="node">
<title>GO:0003674</title>
<polygon fill="#ffffff" stroke="#000000" points="762.4764,-735.8019 637.2102,-735.8019 637.2102,-694.5981 762.4764,-694.5981 762.4764,-735.8019"/>
<text text-anchor="middle" x="699.8433" y="-719.4" font-family="Times,serif" font-size="14.00" fill="#000000">GO:0003674</text>
<text text-anchor="middle" x="699.8433" y="-702.6" font-family="Times,serif" font-size="14.00" fill="#000000">molecular_function</text>
</g>
<!-- GO:0005488&#45;&gt;GO:0003674 -->
<g id="edge6" class="edge">
<title>GO:0005488&#45;&gt;GO:0003674</title>
<path fill="none" stroke="#000000" d="M657.3862,-658.3954C663.7575,-666.9197 671.2424,-676.9339 678.1385,-686.1605"/>
<polygon fill="#000000" stroke="#000000" points="675.4672,-688.4327 684.2575,-694.3472 681.0741,-684.2419 675.4672,-688.4327"/>
</g>
<!-- GO:0003774 -->
<g id="node7" class="node">
<title>GO:0003774</title>
<polygon fill="#ffffff" stroke="#000000" points="1067.2767,-49.8019 972.4099,-49.8019 972.4099,-8.5981 1067.2767,-8.5981 1067.2767,-49.8019"/>
<text text-anchor="middle" x="1019.8433" y="-33.4" font-family="Times,serif" font-size="14.00" fill="#000000">GO:0003774</text>
<text text-anchor="middle" x="1019.8433" y="-16.6" font-family="Times,serif" font-size="14.00" fill="#000000">motor activity</text>
</g>
<!-- GO:0017111 -->
<g id="node8" class="node">
<title>GO:0017111</title>
<polygon fill="#ffffff" stroke="#000000" points="1100.7394,-153.0014 938.9472,-153.0014 938.9472,-94.1986 1100.7394,-94.1986 1100.7394,-153.0014"/>
<text text-anchor="middle" x="1019.8433" y="-136.2" font-family="Times,serif" font-size="14.00" fill="#000000">GO:0017111</text>
<text text-anchor="middle" x="1019.8433" y="-119.4" font-family="Times,serif" font-size="14.00" fill="#000000">nucleoside&#45;triphosphatase</text>
<text text-anchor="middle" x="1019.8433" y="-102.6" font-family="Times,serif" font-size="14.00" fill="#000000">activity</text>
</g>
<!-- GO:0003774&#45;&gt;GO:0017111 -->
<g id="edge7" class="edge">
<title>GO:0003774&#45;&gt;GO:0017111</title>
<path fill="none" stroke="#000000" d="M1019.8433,-50.1504C1019.8433,-60.1492 1019.8433,-72.4525 1019.8433,-84.1106"/>
<polygon fill="#000000" stroke="#000000" points="1016.3434,-84.1155 1019.8433,-94.1155 1023.3434,-84.1156 1016.3434,-84.1155"/>
</g>
<!-- GO:0016462 -->
<g id="node9" class="node">
<title>GO:0016462</title>
<polygon fill="#ffffff" stroke="#000000" points="1097.4197,-238.6019 942.2669,-238.6019 942.2669,-197.3981 1097.4197,-197.3981 1097.4197,-238.6019"/>
<text text-anchor="middle" x="1019.8433" y="-222.2" font-family="Times,serif" font-size="14.00" fill="#000000">GO:0016462</text>
<text text-anchor="middle" x="1019.8433" y="-205.4" font-family="Times,serif" font-size="14.00" fill="#000000">pyrophosphatase activity</text>
</g>
<!-- GO:0017111&#45;&gt;GO:0016462 -->
<g id="edge8" class="edge">
<title>GO:0017111&#45;&gt;GO:0016462</title>
<path fill="none" stroke="#000000" d="M1019.8433,-152.9513C1019.8433,-163.8614 1019.8433,-176.2637 1019.8433,-187.292"/>
<polygon fill="#000000" stroke="#000000" points="1016.3434,-187.3509 1019.8433,-197.351 1023.3434,-187.351 1016.3434,-187.3509"/>
</g>
<!-- GO:0016818 -->
<g id="node10" class="node">
<title>GO:0016818</title>
<polygon fill="#ffffff" stroke="#000000" points="1092.155,-391.9002 947.5316,-391.9002 947.5316,-283.2998 1092.155,-283.2998 1092.155,-391.9002"/>
<text text-anchor="middle" x="1019.8433" y="-375.4" font-family="Times,serif" font-size="14.00" fill="#000000">GO:0016818</text>
<text text-anchor="middle" x="1019.8433" y="-358.6" font-family="Times,serif" font-size="14.00" fill="#000000">hydrolase activity,</text>
<text text-anchor="middle" x="1019.8433" y="-341.8" font-family="Times,serif" font-size="14.00" fill="#000000">acting on acid</text>
<text text-anchor="middle" x="1019.8433" y="-325" font-family="Times,serif" font-size="14.00" fill="#000000">anhydrides, in</text>
<text text-anchor="middle" x="1019.8433" y="-308.2" font-family="Times,serif" font-size="14.00" fill="#000000">phosphorus&#45;containing</text>
<text text-anchor="middle" x="1019.8433" y="-291.4" font-family="Times,serif" font-size="14.00" fill="#000000">anhydrides</text>
</g>
<!-- GO:0016462&#45;&gt;GO:0016818 -->
<g id="edge9" class="edge">
<title>GO:0016462&#45;&gt;GO:0016818</title>
<path fill="none" stroke="#000000" d="M1019.8433,-238.8327C1019.8433,-248.4534 1019.8433,-260.4573 1019.8433,-272.748"/>
<polygon fill="#000000" stroke="#000000" points="1016.3434,-273.0935 1019.8433,-283.0935 1023.3434,-273.0935 1016.3434,-273.0935"/>
</g>
<!-- GO:0016817 -->
<g id="node11" class="node">
<title>GO:0016817</title>
<polygon fill="#ffffff" stroke="#000000" points="1099.7992,-486.6014 939.8874,-486.6014 939.8874,-427.7986 1099.7992,-427.7986 1099.7992,-486.6014"/>
<text text-anchor="middle" x="1019.8433" y="-469.8" font-family="Times,serif" font-size="14.00" fill="#000000">GO:0016817</text>
<text text-anchor="middle" x="1019.8433" y="-453" font-family="Times,serif" font-size="14.00" fill="#000000">hydrolase activity,</text>
<text text-anchor="middle" x="1019.8433" y="-436.2" font-family="Times,serif" font-size="14.00" fill="#000000">acting on acid anhydrides</text>
</g>
<!-- GO:0016818&#45;&gt;GO:0016817 -->
<g id="edge10" class="edge">
<title>GO:0016818&#45;&gt;GO:0016817</title>
<path fill="none" stroke="#000000" d="M1019.8433,-392.1502C1019.8433,-400.8138 1019.8433,-409.6255 1019.8433,-417.8504"/>
<polygon fill="#000000" stroke="#000000" points="1016.3434,-417.8995 1019.8433,-427.8995 1023.3434,-417.8995 1016.3434,-417.8995"/>
</g>
<!-- GO:0016787 -->
<g id="node12" class="node">
<title>GO:0016787</title>
<polygon fill="#ffffff" stroke="#000000" points="1069.7599,-572.2019 953.9267,-572.2019 953.9267,-530.9981 1069.7599,-530.9981 1069.7599,-572.2019"/>
<text text-anchor="middle" x="1011.8433" y="-555.8" font-family="Times,serif" font-size="14.00" fill="#000000">GO:0016787</text>
<text text-anchor="middle" x="1011.8433" y="-539" font-family="Times,serif" font-size="14.00" fill="#000000">hydrolase activity</text>
</g>
<!-- GO:0016817&#45;&gt;GO:0016787 -->
<g id="edge11" class="edge">
<title>GO:0016817&#45;&gt;GO:0016787</title>
<path fill="none" stroke="#000000" d="M1017.3559,-486.5513C1016.4313,-497.4614 1015.3803,-509.8637 1014.4457,-520.892"/>
<polygon fill="#000000" stroke="#000000" points="1010.9502,-520.6911 1013.5932,-530.951 1017.9252,-521.2823 1010.9502,-520.6911"/>
</g>
<!-- GO:0003824 -->
<g id="node13" class="node">
<title>GO:0003824</title>
<polygon fill="#ffffff" stroke="#000000" points="939.2557,-658.2019 830.4309,-658.2019 830.4309,-616.9981 939.2557,-616.9981 939.2557,-658.2019"/>
<text text-anchor="middle" x="884.8433" y="-641.8" font-family="Times,serif" font-size="14.00" fill="#000000">GO:0003824</text>
<text text-anchor="middle" x="884.8433" y="-625" font-family="Times,serif" font-size="14.00" fill="#000000">catalytic activity</text>
</g>
<!-- GO:0016787&#45;&gt;GO:0003824 -->
<g id="edge12" class="edge">
<title>GO:0016787&#45;&gt;GO:0003824</title>
<path fill="none" stroke="#000000" d="M981.1001,-572.4182C963.9405,-584.0381 942.3861,-598.634 924.0264,-611.0665"/>
<polygon fill="#000000" stroke="#000000" points="921.621,-608.4684 915.3033,-616.9735 925.546,-614.2645 921.621,-608.4684"/>
</g>
<!-- GO:0003824&#45;&gt;GO:0003674 -->
<g id="edge13" class="edge">
<title>GO:0003824&#45;&gt;GO:0003674</title>
<path fill="none" stroke="#000000" d="M835.2667,-658.3954C811.6353,-668.3078 783.2013,-680.2347 758.5015,-690.5953"/>
<polygon fill="#000000" stroke="#000000" points="757.1035,-687.3862 749.2357,-694.4819 759.8112,-693.8413 757.1035,-687.3862"/>
</g>
<!-- GO:0015631 -->
<g id="node14" class="node">
<title>GO:0015631</title>
<polygon fill="#ffffff" stroke="#000000" points="909.7963,-358.2019 807.8903,-358.2019 807.8903,-316.9981 909.7963,-316.9981 909.7963,-358.2019"/>
<text text-anchor="middle" x="858.8433" y="-341.8" font-family="Times,serif" font-size="14.00" fill="#000000">GO:0015631</text>
<text text-anchor="middle" x="858.8433" y="-325" font-family="Times,serif" font-size="14.00" fill="#000000">tubulin binding</text>
</g>
<!-- GO:0008092 -->
<g id="node15" class="node">
<title>GO:0008092</title>
<polygon fill="#ffffff" stroke="#000000" points="921.8651,-486.6014 795.8215,-486.6014 795.8215,-427.7986 921.8651,-427.7986 921.8651,-486.6014"/>
<text text-anchor="middle" x="858.8433" y="-469.8" font-family="Times,serif" font-size="14.00" fill="#000000">GO:0008092</text>
<text text-anchor="middle" x="858.8433" y="-453" font-family="Times,serif" font-size="14.00" fill="#000000">cytoskeletal protein</text>
<text text-anchor="middle" x="858.8433" y="-436.2" font-family="Times,serif" font-size="14.00" fill="#000000">binding</text>
</g>
<!-- GO:0015631&#45;&gt;GO:0008092 -->
<g id="edge14" class="edge">
<title>GO:0015631&#45;&gt;GO:0008092</title>
<path fill="none" stroke="#000000" d="M858.8433,-358.4327C858.8433,-374.6576 858.8433,-397.6611 858.8433,-417.3863"/>
<polygon fill="#000000" stroke="#000000" points="855.3434,-417.6455 858.8433,-427.6455 862.3434,-417.6456 855.3434,-417.6455"/>
</g>
<!-- GO:0005515 -->
<g id="node16" class="node">
<title>GO:0005515</title>
<polygon fill="#ffffff" stroke="#000000" points="918.7809,-572.2019 816.9057,-572.2019 816.9057,-530.9981 918.7809,-530.9981 918.7809,-572.2019"/>
<text text-anchor="middle" x="867.8433" y="-555.8" font-family="Times,serif" font-size="14.00" fill="#000000">GO:0005515</text>
<text text-anchor="middle" x="867.8433" y="-539" font-family="Times,serif" font-size="14.00" fill="#000000">protein binding</text>
</g>
<!-- GO:0008092&#45;&gt;GO:0005515 -->
<g id="edge15" class="edge">
<title>GO:0008092&#45;&gt;GO:0005515</title>
<path fill="none" stroke="#000000" d="M861.6416,-486.5513C862.6818,-497.4614 863.8642,-509.8637 864.9156,-520.892"/>
<polygon fill="#000000" stroke="#000000" points="861.4413,-521.3283 865.8746,-530.951 868.4097,-520.6639 861.4413,-521.3283"/>
</g>
<!-- GO:0005515&#45;&gt;GO:0005488 -->
<g id="edge16" class="edge">
<title>GO:0005515&#45;&gt;GO:0005488</title>
<path fill="none" stroke="#000000" d="M827.16,-572.2309C820.7546,-575.237 814.1617,-578.1932 807.8433,-580.8 771.2254,-595.9078 728.9731,-610.324 696.2605,-620.8525"/>
<polygon fill="#000000" stroke="#000000" points="694.8925,-617.6152 686.4313,-623.9916 697.0221,-624.2833 694.8925,-617.6152"/>
</g>
<!-- GO:0032559 -->
<g id="node17" class="node">
<title>GO:0032559</title>
<polygon fill="#ffffff" stroke="#000000" points="707.5303,-58.6014 570.1563,-58.6014 570.1563,.2014 707.5303,.2014 707.5303,-58.6014"/>
<text text-anchor="middle" x="638.8433" y="-41.8" font-family="Times,serif" font-size="14.00" fill="#000000">GO:0032559</text>
<text text-anchor="middle" x="638.8433" y="-25" font-family="Times,serif" font-size="14.00" fill="#000000">adenyl ribonucleotide</text>
<text text-anchor="middle" x="638.8433" y="-8.2" font-family="Times,serif" font-size="14.00" fill="#000000">binding</text>
</g>
<!-- GO:0032555 -->
<g id="node18" class="node">
<title>GO:0032555</title>
<polygon fill="#ffffff" stroke="#000000" points="789.976,-153.0014 653.7106,-153.0014 653.7106,-94.1986 789.976,-94.1986 789.976,-153.0014"/>
<text text-anchor="middle" x="721.8433" y="-136.2" font-family="Times,serif" font-size="14.00" fill="#000000">GO:0032555</text>
<text text-anchor="middle" x="721.8433" y="-119.4" font-family="Times,serif" font-size="14.00" fill="#000000">purine ribonucleotide</text>
<text text-anchor="middle" x="721.8433" y="-102.6" font-family="Times,serif" font-size="14.00" fill="#000000">binding</text>
</g>
<!-- GO:0032559&#45;&gt;GO:0032555 -->
<g id="edge17" class="edge">
<title>GO:0032559&#45;&gt;GO:0032555</title>
<path fill="none" stroke="#000000" d="M664.65,-58.5513C672.4574,-67.431 681.1337,-77.299 689.3206,-86.6103"/>
<polygon fill="#000000" stroke="#000000" points="686.8209,-89.0679 696.0525,-94.2669 692.0779,-84.4458 686.8209,-89.0679"/>
</g>
<!-- GO:0030554 -->
<g id="node19" class="node">
<title>GO:0030554</title>
<polygon fill="#ffffff" stroke="#000000" points="635.7604,-144.2019 473.9262,-144.2019 473.9262,-102.9981 635.7604,-102.9981 635.7604,-144.2019"/>
<text text-anchor="middle" x="554.8433" y="-127.8" font-family="Times,serif" font-size="14.00" fill="#000000">GO:0030554</text>
<text text-anchor="middle" x="554.8433" y="-111" font-family="Times,serif" font-size="14.00" fill="#000000">adenyl nucleotide binding</text>
</g>
<!-- GO:0032559&#45;&gt;GO:0030554 -->
<g id="edge18" class="edge">
<title>GO:0032559&#45;&gt;GO:0030554</title>
<path fill="none" stroke="#000000" d="M612.7256,-58.5513C602.3169,-70.2488 590.3818,-83.6615 580.0637,-95.257"/>
<polygon fill="#000000" stroke="#000000" points="577.2503,-93.1537 573.2174,-102.951 582.4797,-97.807 577.2503,-93.1537"/>
</g>
<!-- GO:0017076 -->
<g id="node20" class="node">
<title>GO:0017076</title>
<polygon fill="#ffffff" stroke="#000000" points="634.706,-238.6019 474.9806,-238.6019 474.9806,-197.3981 634.706,-197.3981 634.706,-238.6019"/>
<text text-anchor="middle" x="554.8433" y="-222.2" font-family="Times,serif" font-size="14.00" fill="#000000">GO:0017076</text>
<text text-anchor="middle" x="554.8433" y="-205.4" font-family="Times,serif" font-size="14.00" fill="#000000">purine nucleotide binding</text>
</g>
<!-- GO:0032555&#45;&gt;GO:0017076 -->
<g id="edge19" class="edge">
<title>GO:0032555&#45;&gt;GO:0017076</title>
<path fill="none" stroke="#000000" d="M669.9189,-152.9513C647.6334,-165.5486 621.8289,-180.1351 600.31,-192.2991"/>
<polygon fill="#000000" stroke="#000000" points="598.3559,-189.3831 591.3728,-197.351 601.8006,-195.4769 598.3559,-189.3831"/>
</g>
<!-- GO:0032553 -->
<g id="node21" class="node">
<title>GO:0032553</title>
<polygon fill="#ffffff" stroke="#000000" points="796.4914,-238.6019 653.1952,-238.6019 653.1952,-197.3981 796.4914,-197.3981 796.4914,-238.6019"/>
<text text-anchor="middle" x="724.8433" y="-222.2" font-family="Times,serif" font-size="14.00" fill="#000000">GO:0032553</text>
<text text-anchor="middle" x="724.8433" y="-205.4" font-family="Times,serif" font-size="14.00" fill="#000000">ribonucleotide binding</text>
</g>
<!-- GO:0032555&#45;&gt;GO:0032553 -->
<g id="edge20" class="edge">
<title>GO:0032555&#45;&gt;GO:0032553</title>
<path fill="none" stroke="#000000" d="M722.7761,-152.9513C723.1228,-163.8614 723.5169,-176.2637 723.8674,-187.292"/>
<polygon fill="#000000" stroke="#000000" points="720.3711,-187.4672 724.1871,-197.351 727.3676,-187.2448 720.3711,-187.4672"/>
</g>
<!-- GO:0030554&#45;&gt;GO:0017076 -->
<g id="edge21" class="edge">
<title>GO:0030554&#45;&gt;GO:0017076</title>
<path fill="none" stroke="#000000" d="M554.8433,-144.5504C554.8433,-157.0165 554.8433,-173.0645 554.8433,-186.9786"/>
<polygon fill="#000000" stroke="#000000" points="551.3434,-187.1081 554.8433,-197.1081 558.3434,-187.1082 551.3434,-187.1081"/>
</g>
<!-- GO:0000166 -->
<g id="node22" class="node">
<title>GO:0000166</title>
<polygon fill="#ffffff" stroke="#000000" points="618.9408,-358.2019 498.7458,-358.2019 498.7458,-316.9981 618.9408,-316.9981 618.9408,-358.2019"/>
<text text-anchor="middle" x="558.8433" y="-341.8" font-family="Times,serif" font-size="14.00" fill="#000000">GO:0000166</text>
<text text-anchor="middle" x="558.8433" y="-325" font-family="Times,serif" font-size="14.00" fill="#000000">nucleotide binding</text>
</g>
<!-- GO:0017076&#45;&gt;GO:0000166 -->
<g id="edge22" class="edge">
<title>GO:0017076&#45;&gt;GO:0000166</title>
<path fill="none" stroke="#000000" d="M555.54,-238.8327C556.1643,-257.4973 557.0885,-285.1322 557.8008,-306.4278"/>
<polygon fill="#000000" stroke="#000000" points="554.3087,-306.7273 558.1411,-316.6047 561.3048,-306.4933 554.3087,-306.7273"/>
</g>
<!-- GO:0032553&#45;&gt;GO:0000166 -->
<g id="edge24" class="edge">
<title>GO:0032553&#45;&gt;GO:0000166</title>
<path fill="none" stroke="#000000" d="M695.9283,-238.8327C668.1634,-258.8369 626.0966,-289.1452 595.8889,-310.9093"/>
<polygon fill="#000000" stroke="#000000" points="593.7725,-308.1203 587.7049,-316.8057 597.8644,-313.7998 593.7725,-308.1203"/>
</g>
<!-- GO:0097367 -->
<g id="node23" class="node">
<title>GO:0097367</title>
<polygon fill="#ffffff" stroke="#000000" points="798.8904,-581.0014 650.7962,-581.0014 650.7962,-522.1986 798.8904,-522.1986 798.8904,-581.0014"/>
<text text-anchor="middle" x="724.8433" y="-564.2" font-family="Times,serif" font-size="14.00" fill="#000000">GO:0097367</text>
<text text-anchor="middle" x="724.8433" y="-547.4" font-family="Times,serif" font-size="14.00" fill="#000000">carbohydrate derivative</text>
<text text-anchor="middle" x="724.8433" y="-530.6" font-family="Times,serif" font-size="14.00" fill="#000000">binding</text>
</g>
<!-- GO:0032553&#45;&gt;GO:0097367 -->
<g id="edge23" class="edge">
<title>GO:0032553&#45;&gt;GO:0097367</title>
<path fill="none" stroke="#000000" d="M724.8433,-238.6164C724.8433,-292.9343 724.8433,-440.6838 724.8433,-512.0168"/>
<polygon fill="#000000" stroke="#000000" points="721.3434,-512.3753 724.8433,-522.3753 728.3434,-512.3753 721.3434,-512.3753"/>
</g>
<!-- GO:0000166&#45;&gt;GO:1901265 -->
<g id="edge26" class="edge">
<title>GO:0000166&#45;&gt;GO:1901265</title>
<path fill="none" stroke="#000000" d="M537.5017,-358.2064C524.4213,-369.7543 506.787,-383.5012 488.8433,-392 423.7532,-422.8291 400.4511,-409.509 330.8433,-428 324.9321,-429.5703 318.8366,-431.2591 312.7185,-433.0044"/>
<polygon fill="#000000" stroke="#000000" points="311.7425,-429.6431 303.1092,-435.7845 313.6879,-436.3674 311.7425,-429.6431"/>
</g>
<!-- GO:0036094 -->
<g id="node24" class="node">
<title>GO:0036094</title>
<polygon fill="#ffffff" stroke="#000000" points="632.7717,-572.2019 484.9149,-572.2019 484.9149,-530.9981 632.7717,-530.9981 632.7717,-572.2019"/>
<text text-anchor="middle" x="558.8433" y="-555.8" font-family="Times,serif" font-size="14.00" fill="#000000">GO:0036094</text>
<text text-anchor="middle" x="558.8433" y="-539" font-family="Times,serif" font-size="14.00" fill="#000000">small molecule binding</text>
</g>
<!-- GO:0000166&#45;&gt;GO:0036094 -->
<g id="edge25" class="edge">
<title>GO:0000166&#45;&gt;GO:0036094</title>
<path fill="none" stroke="#000000" d="M558.8433,-358.5089C558.8433,-396.4015 558.8433,-476.581 558.8433,-520.769"/>
<polygon fill="#000000" stroke="#000000" points="555.3434,-520.9213 558.8433,-530.9213 562.3434,-520.9214 555.3434,-520.9213"/>
</g>
<!-- GO:0097367&#45;&gt;GO:0005488 -->
<g id="edge27" class="edge">
<title>GO:0097367&#45;&gt;GO:0005488</title>
<path fill="none" stroke="#000000" d="M696.2794,-581.1963C687.4138,-590.3824 677.673,-600.4752 668.9123,-609.5526"/>
<polygon fill="#000000" stroke="#000000" points="666.2506,-607.2705 661.8245,-616.8966 671.2874,-612.1316 666.2506,-607.2705"/>
</g>
<!-- GO:0036094&#45;&gt;GO:0005488 -->
<g id="edge28" class="edge">
<title>GO:0036094&#45;&gt;GO:0005488</title>
<path fill="none" stroke="#000000" d="M578.9353,-572.4182C589.742,-583.6156 603.2159,-597.5764 614.9184,-609.7019"/>
<polygon fill="#000000" stroke="#000000" points="612.4734,-612.2086 621.9363,-616.9735 617.5103,-607.3475 612.4734,-612.2086"/>
</g>
<!-- GO:0032550 -->
<g id="node25" class="node">
<title>GO:0032550</title>
<polygon fill="#ffffff" stroke="#000000" points="381.5303,-247.4014 244.1563,-247.4014 244.1563,-188.5986 381.5303,-188.5986 381.5303,-247.4014"/>
<text text-anchor="middle" x="312.8433" y="-230.6" font-family="Times,serif" font-size="14.00" fill="#000000">GO:0032550</text>
<text text-anchor="middle" x="312.8433" y="-213.8" font-family="Times,serif" font-size="14.00" fill="#000000">purine ribonucleoside</text>
<text text-anchor="middle" x="312.8433" y="-197" font-family="Times,serif" font-size="14.00" fill="#000000">binding</text>
</g>
<!-- GO:0001883 -->
<g id="node26" class="node">
<title>GO:0001883</title>
<polygon fill="#ffffff" stroke="#000000" points="317.7604,-358.2019 155.9262,-358.2019 155.9262,-316.9981 317.7604,-316.9981 317.7604,-358.2019"/>
<text text-anchor="middle" x="236.8433" y="-341.8" font-family="Times,serif" font-size="14.00" fill="#000000">GO:0001883</text>
<text text-anchor="middle" x="236.8433" y="-325" font-family="Times,serif" font-size="14.00" fill="#000000">purine nucleoside binding</text>
</g>
<!-- GO:0032550&#45;&gt;GO:0001883 -->
<g id="edge29" class="edge">
<title>GO:0032550&#45;&gt;GO:0001883</title>
<path fill="none" stroke="#000000" d="M294.2516,-247.2575C282.4689,-265.7997 267.2832,-289.6972 255.49,-308.256"/>
<polygon fill="#000000" stroke="#000000" points="252.4121,-306.5737 250.0029,-316.891 258.3202,-310.3281 252.4121,-306.5737"/>
</g>
<!-- GO:0032549 -->
<g id="node27" class="node">
<title>GO:0032549</title>
<polygon fill="#ffffff" stroke="#000000" points="480.0456,-358.2019 335.641,-358.2019 335.641,-316.9981 480.0456,-316.9981 480.0456,-358.2019"/>
<text text-anchor="middle" x="407.8433" y="-341.8" font-family="Times,serif" font-size="14.00" fill="#000000">GO:0032549</text>
<text text-anchor="middle" x="407.8433" y="-325" font-family="Times,serif" font-size="14.00" fill="#000000">ribonucleoside binding</text>
</g>
<!-- GO:0032550&#45;&gt;GO:0032549 -->
<g id="edge30" class="edge">
<title>GO:0032550&#45;&gt;GO:0032549</title>
<path fill="none" stroke="#000000" d="M336.0829,-247.2575C351.0121,-266.0525 370.3119,-290.35 385.1356,-309.0123"/>
<polygon fill="#000000" stroke="#000000" points="382.4334,-311.2376 391.3939,-316.891 387.9147,-306.8837 382.4334,-311.2376"/>
</g>
<!-- GO:0001882 -->
<g id="node28" class="node">
<title>GO:0001882</title>
<polygon fill="#ffffff" stroke="#000000" points="461.9942,-477.8019 339.6924,-477.8019 339.6924,-436.5981 461.9942,-436.5981 461.9942,-477.8019"/>
<text text-anchor="middle" x="400.8433" y="-461.4" font-family="Times,serif" font-size="14.00" fill="#000000">GO:0001882</text>
<text text-anchor="middle" x="400.8433" y="-444.6" font-family="Times,serif" font-size="14.00" fill="#000000">nucleoside binding</text>
</g>
<!-- GO:0001883&#45;&gt;GO:0001882 -->
<g id="edge31" class="edge">
<title>GO:0001883&#45;&gt;GO:0001882</title>
<path fill="none" stroke="#000000" d="M265.4099,-358.4327C292.8403,-378.4369 334.4003,-408.7452 364.2441,-430.5093"/>
<polygon fill="#000000" stroke="#000000" points="362.1874,-433.3413 372.3294,-436.4057 366.312,-427.6855 362.1874,-433.3413"/>
</g>
<!-- GO:0032549&#45;&gt;GO:0001882 -->
<g id="edge32" class="edge">
<title>GO:0032549&#45;&gt;GO:0001882</title>
<path fill="none" stroke="#000000" d="M406.624,-358.4327C405.5316,-377.0973 403.9142,-404.7322 402.6678,-426.0278"/>
<polygon fill="#000000" stroke="#000000" points="399.1625,-426.0173 402.0721,-436.2047 406.1505,-426.4263 399.1625,-426.0173"/>
</g>
<!-- GO:0001882&#45;&gt;GO:0097159 -->
<g id="edge36" class="edge">
<title>GO:0001882&#45;&gt;GO:0097159</title>
<path fill="none" stroke="#000000" d="M361.9999,-477.9165C340.248,-489.5175 312.5788,-504.2744 287.7241,-517.5302"/>
<polygon fill="#000000" stroke="#000000" points="285.8871,-514.5433 278.7106,-522.3374 289.1812,-520.7197 285.8871,-514.5433"/>
</g>
<!-- GO:0001882&#45;&gt;GO:1901363 -->
<g id="edge35" class="edge">
<title>GO:0001882&#45;&gt;GO:1901363</title>
<path fill="none" stroke="#000000" d="M399.2898,-478.1504C398.5483,-488.1492 397.636,-500.4525 396.7715,-512.1106"/>
<polygon fill="#000000" stroke="#000000" points="393.2788,-511.884 396.0296,-522.1155 400.2597,-512.4018 393.2788,-511.884"/>
</g>
<!-- GO:0001882&#45;&gt;GO:0097367 -->
<g id="edge34" class="edge">
<title>GO:0001882&#45;&gt;GO:0097367</title>
<path fill="none" stroke="#000000" d="M462.1177,-472.4403C508.7497,-484.3443 574.6725,-501.8258 640.9442,-522.1924"/>
<polygon fill="#000000" stroke="#000000" points="640.1345,-525.6056 650.7223,-525.218 642.2037,-518.9184 640.1345,-525.6056"/>
</g>
<!-- GO:0001882&#45;&gt;GO:0036094 -->
<g id="edge33" class="edge">
<title>GO:0001882&#45;&gt;GO:0036094</title>
<path fill="none" stroke="#000000" d="M435.5171,-477.9165C459.0821,-491.9959 490.4273,-510.7236 515.6192,-525.775"/>
<polygon fill="#000000" stroke="#000000" points="513.8707,-528.8074 524.2504,-530.9318 517.4611,-522.7982 513.8707,-528.8074"/>
</g>
</g>
</svg>
