<?xml version="1.0" encoding="UTF-8" standalone="no"?>
<!DOCTYPE svg PUBLIC "-//W3C//DTD SVG 1.1//EN"
 "http://www.w3.org/Graphics/SVG/1.1/DTD/svg11.dtd">
<!-- Generated by graphviz version 2.40.1 (20161225.0304)
 -->
<!-- Title: G Pages: 1 -->
<svg width="1028pt" height="238pt"
 viewBox="0.00 0.00 1028.09 238.40" xmlns="http://www.w3.org/2000/svg" xmlns:xlink="http://www.w3.org/1999/xlink">
<g id="graph0" class="graph" transform="scale(1 1) rotate(0) translate(4 234.4)">
<title>G</title>
<polygon fill="#ffffff" stroke="transparent" points="-4,4 -4,-234.4 1024.0916,-234.4 1024.0916,4 -4,4"/>
<!-- GO:0044238 -->
<g id="node1" class="node">
<title>GO:0044238</title>
<polygon fill="#ffffff" stroke="#000000" points="164.2541,-49.8019 .2481,-49.8019 .2481,-8.5981 164.2541,-8.5981 164.2541,-49.8019"/>
<text text-anchor="middle" x="82.2511" y="-33.4" font-family="Times,serif" font-size="14.00" fill="#000000">GO:0044238</text>
<text text-anchor="middle" x="82.2511" y="-16.6" font-family="Times,serif" font-size="14.00" fill="#000000">primary metabolic process</text>
</g>
<!-- GO:0008152 -->
<g id="node2" class="node">
<title>GO:0008152</title>
<polygon fill="#ffffff" stroke="#000000" points="263.4367,-144.2019 147.0655,-144.2019 147.0655,-102.9981 263.4367,-102.9981 263.4367,-144.2019"/>
<text text-anchor="middle" x="205.2511" y="-127.8" font-family="Times,serif" font-size="14.00" fill="#000000">GO:0008152</text>
<text text-anchor="middle" x="205.2511" y="-111" font-family="Times,serif" font-size="14.00" fill="#000000">metabolic process</text>
</g>
<!-- GO:0044238&#45;&gt;GO:0008152 -->
<g id="edge1" class="edge">
<title>GO:0044238&#45;&gt;GO:0008152</title>
<path fill="none" stroke="#000000" d="M109.244,-49.9165C127.1884,-63.6885 150.9278,-81.908 170.3106,-96.7839"/>
<polygon fill="#000000" stroke="#000000" points="168.2573,-99.62 178.3212,-102.9318 172.5192,-94.0669 168.2573,-99.62"/>
</g>
<!-- GO:0008150 -->
<g id="node3" class="node">
<title>GO:0008150</title>
<polygon fill="#ffffff" stroke="#000000" points="610.7217,-230.2019 489.7805,-230.2019 489.7805,-188.9981 610.7217,-188.9981 610.7217,-230.2019"/>
<text text-anchor="middle" x="550.2511" y="-213.8" font-family="Times,serif" font-size="14.00" fill="#000000">GO:0008150</text>
<text text-anchor="middle" x="550.2511" y="-197" font-family="Times,serif" font-size="14.00" fill="#000000">biological_process</text>
</g>
<!-- GO:0008152&#45;&gt;GO:0008150 -->
<g id="edge2" class="edge">
<title>GO:0008152&#45;&gt;GO:0008150</title>
<path fill="none" stroke="#000000" d="M249.7543,-144.2347C257.4877,-147.3791 265.5278,-150.3777 273.2511,-152.8 342.0738,-174.3858 423.1417,-189.9039 479.7284,-199.2089"/>
<polygon fill="#000000" stroke="#000000" points="479.2169,-202.6716 489.6483,-200.8177 480.3376,-195.7619 479.2169,-202.6716"/>
</g>
<!-- GO:0050896 -->
<g id="node4" class="node">
<title>GO:0050896</title>
<polygon fill="#ff00ff" stroke="#000000" points="412.5727,-144.2019 281.9295,-144.2019 281.9295,-102.9981 412.5727,-102.9981 412.5727,-144.2019"/>
<text text-anchor="middle" x="347.2511" y="-127.8" font-family="Times,serif" font-size="14.00" fill="#000000">GO:0050896</text>
<text text-anchor="middle" x="347.2511" y="-111" font-family="Times,serif" font-size="14.00" fill="#000000">response to stimulus</text>
</g>
<!-- GO:0050896&#45;&gt;GO:0008150 -->
<g id="edge3" class="edge">
<title>GO:0050896&#45;&gt;GO:0008150</title>
<path fill="none" stroke="#000000" d="M396.133,-144.3086C425.0522,-156.5601 461.8483,-172.1486 492.2336,-185.0212"/>
<polygon fill="#000000" stroke="#000000" points="490.8688,-188.244 501.4419,-188.9222 493.5994,-181.7986 490.8688,-188.244"/>
</g>
<!-- GO:0009987 -->
<g id="node5" class="node">
<title>GO:0009987</title>
<polygon fill="#ffff00" stroke="#000000" points="534.2073,-144.2019 430.2949,-144.2019 430.2949,-102.9981 534.2073,-102.9981 534.2073,-144.2019"/>
<text text-anchor="middle" x="482.2511" y="-127.8" font-family="Times,serif" font-size="14.00" fill="#000000">GO:0009987</text>
<text text-anchor="middle" x="482.2511" y="-111" font-family="Times,serif" font-size="14.00" fill="#000000">cellular process</text>
</g>
<!-- GO:0009987&#45;&gt;GO:0008150 -->
<g id="edge4" class="edge">
<title>GO:0009987&#45;&gt;GO:0008150</title>
<path fill="none" stroke="#000000" d="M498.712,-144.4182C507.3987,-155.4043 518.1887,-169.0506 527.6479,-181.0137"/>
<polygon fill="#000000" stroke="#000000" points="524.9939,-183.3002 533.9418,-188.9735 530.4849,-178.9585 524.9939,-183.3002"/>
</g>
<!-- GO:0044237 -->
<g id="node6" class="node">
<title>GO:0044237</title>
<polygon fill="#ff00ff" stroke="#000000" points="505.4339,-58.6014 389.0683,-58.6014 389.0683,.2014 505.4339,.2014 505.4339,-58.6014"/>
<text text-anchor="middle" x="447.2511" y="-41.8" font-family="Times,serif" font-size="14.00" fill="#000000">GO:0044237</text>
<text text-anchor="middle" x="447.2511" y="-25" font-family="Times,serif" font-size="14.00" fill="#000000">cellular metabolic</text>
<text text-anchor="middle" x="447.2511" y="-8.2" font-family="Times,serif" font-size="14.00" fill="#000000">process</text>
</g>
<!-- GO:0044237&#45;&gt;GO:0008152 -->
<g id="edge6" class="edge">
<title>GO:0044237&#45;&gt;GO:0008152</title>
<path fill="none" stroke="#000000" d="M388.9873,-50.2537C355.066,-62.7049 311.566,-79.0049 273.2511,-94.4 269.6001,-95.867 265.8495,-97.4009 262.0753,-98.9646"/>
<polygon fill="#000000" stroke="#000000" points="260.5626,-95.8035 252.6887,-102.8923 263.2647,-102.261 260.5626,-95.8035"/>
</g>
<!-- GO:0044237&#45;&gt;GO:0009987 -->
<g id="edge5" class="edge">
<title>GO:0044237&#45;&gt;GO:0009987</title>
<path fill="none" stroke="#000000" d="M458.1335,-58.5513C462.2619,-69.6864 466.9667,-82.3758 471.118,-93.5724"/>
<polygon fill="#000000" stroke="#000000" points="467.8371,-94.7914 474.5952,-102.951 474.4005,-92.3579 467.8371,-94.7914"/>
</g>
<!-- GO:0050794 -->
<g id="node7" class="node">
<title>GO:0050794</title>
<polygon fill="#ff00ff" stroke="#000000" points="732.1501,-58.6014 598.3521,-58.6014 598.3521,.2014 732.1501,.2014 732.1501,-58.6014"/>
<text text-anchor="middle" x="665.2511" y="-41.8" font-family="Times,serif" font-size="14.00" fill="#000000">GO:0050794</text>
<text text-anchor="middle" x="665.2511" y="-25" font-family="Times,serif" font-size="14.00" fill="#000000">regulation of cellular</text>
<text text-anchor="middle" x="665.2511" y="-8.2" font-family="Times,serif" font-size="14.00" fill="#000000">process</text>
</g>
<!-- GO:0065007 -->
<g id="node8" class="node">
<title>GO:0065007</title>
<polygon fill="#ffffff" stroke="#000000" points="684.5045,-144.2019 551.9977,-144.2019 551.9977,-102.9981 684.5045,-102.9981 684.5045,-144.2019"/>
<text text-anchor="middle" x="618.2511" y="-127.8" font-family="Times,serif" font-size="14.00" fill="#000000">GO:0065007</text>
<text text-anchor="middle" x="618.2511" y="-111" font-family="Times,serif" font-size="14.00" fill="#000000">biological regulation</text>
</g>
<!-- GO:0050794&#45;&gt;GO:0065007 -->
<g id="edge7" class="edge">
<title>GO:0050794&#45;&gt;GO:0065007</title>
<path fill="none" stroke="#000000" d="M650.6376,-58.5513C645.0377,-69.7989 638.6482,-82.6323 633.0326,-93.9112"/>
<polygon fill="#000000" stroke="#000000" points="629.8557,-92.4392 628.5319,-102.951 636.122,-95.5591 629.8557,-92.4392"/>
</g>
<!-- GO:0050789 -->
<g id="node9" class="node">
<title>GO:0050789</title>
<polygon fill="#ffffff" stroke="#000000" points="850.1655,-153.0014 702.3367,-153.0014 702.3367,-94.1986 850.1655,-94.1986 850.1655,-153.0014"/>
<text text-anchor="middle" x="776.2511" y="-136.2" font-family="Times,serif" font-size="14.00" fill="#000000">GO:0050789</text>
<text text-anchor="middle" x="776.2511" y="-119.4" font-family="Times,serif" font-size="14.00" fill="#000000">regulation of biological</text>
<text text-anchor="middle" x="776.2511" y="-102.6" font-family="Times,serif" font-size="14.00" fill="#000000">process</text>
</g>
<!-- GO:0050794&#45;&gt;GO:0050789 -->
<g id="edge8" class="edge">
<title>GO:0050794&#45;&gt;GO:0050789</title>
<path fill="none" stroke="#000000" d="M699.7637,-58.5513C710.6225,-67.7861 722.7383,-78.09 734.0674,-87.7249"/>
<polygon fill="#000000" stroke="#000000" points="731.8746,-90.4546 741.7598,-94.2669 736.4096,-85.1222 731.8746,-90.4546"/>
</g>
<!-- GO:0065007&#45;&gt;GO:0008150 -->
<g id="edge9" class="edge">
<title>GO:0065007&#45;&gt;GO:0008150</title>
<path fill="none" stroke="#000000" d="M601.7902,-144.4182C593.1035,-155.4043 582.3135,-169.0506 572.8543,-181.0137"/>
<polygon fill="#000000" stroke="#000000" points="570.0173,-178.9585 566.5604,-188.9735 575.5083,-183.3002 570.0173,-178.9585"/>
</g>
<!-- GO:0050789&#45;&gt;GO:0008150 -->
<g id="edge10" class="edge">
<title>GO:0050789&#45;&gt;GO:0008150</title>
<path fill="none" stroke="#000000" d="M702.2502,-151.7596C673.8069,-162.5832 641.606,-174.8366 614.1876,-185.2702"/>
<polygon fill="#000000" stroke="#000000" points="612.8042,-182.0517 604.7028,-188.8794 615.2938,-188.594 612.8042,-182.0517"/>
</g>
<!-- GO:0071704 -->
<g id="node10" class="node">
<title>GO:0071704</title>
<polygon fill="#ff00ff" stroke="#000000" points="299.4367,-58.6014 183.0655,-58.6014 183.0655,.2014 299.4367,.2014 299.4367,-58.6014"/>
<text text-anchor="middle" x="241.2511" y="-41.8" font-family="Times,serif" font-size="14.00" fill="#000000">GO:0071704</text>
<text text-anchor="middle" x="241.2511" y="-25" font-family="Times,serif" font-size="14.00" fill="#000000">organic substance</text>
<text text-anchor="middle" x="241.2511" y="-8.2" font-family="Times,serif" font-size="14.00" fill="#000000">metabolic process</text>
</g>
<!-- GO:0071704&#45;&gt;GO:0008152 -->
<g id="edge11" class="edge">
<title>GO:0071704&#45;&gt;GO:0008152</title>
<path fill="none" stroke="#000000" d="M230.0578,-58.5513C225.8114,-69.6864 220.9722,-82.3758 216.7023,-93.5724"/>
<polygon fill="#000000" stroke="#000000" points="213.4188,-92.3602 213.1257,-102.951 219.9593,-94.8545 213.4188,-92.3602"/>
</g>
<!-- GO:0044699 -->
<g id="node11" class="node">
<title>GO:0044699</title>
<polygon fill="#ff00ff" stroke="#000000" points="1019.9324,-144.2019 868.5698,-144.2019 868.5698,-102.9981 1019.9324,-102.9981 1019.9324,-144.2019"/>
<text text-anchor="middle" x="944.2511" y="-127.8" font-family="Times,serif" font-size="14.00" fill="#000000">GO:0044699</text>
<text text-anchor="middle" x="944.2511" y="-111" font-family="Times,serif" font-size="14.00" fill="#000000">single&#45;organism process</text>
</g>
<!-- GO:0044699&#45;&gt;GO:0008150 -->
<g id="edge12" class="edge">
<title>GO:0044699&#45;&gt;GO:0008150</title>
<path fill="none" stroke="#000000" d="M887.9155,-144.2656C878.42,-147.3697 868.6091,-150.3472 859.2511,-152.8 778.6585,-173.9242 684.2324,-190.0616 621.1725,-199.6427"/>
<polygon fill="#000000" stroke="#000000" points="620.3085,-196.2332 610.9403,-201.1816 621.3497,-203.1553 620.3085,-196.2332"/>
</g>
</g>
</svg>
