<?xml version="1.0" encoding="UTF-8" standalone="no"?>
<!DOCTYPE svg PUBLIC "-//W3C//DTD SVG 1.1//EN"
 "http://www.w3.org/Graphics/SVG/1.1/DTD/svg11.dtd">
<!-- Generated by graphviz version 2.40.1 (20161225.0304)
 -->
<!-- Title: G Pages: 1 -->
<svg width="1206pt" height="643pt"
 viewBox="0.00 0.00 1205.84 643.20" xmlns="http://www.w3.org/2000/svg" xmlns:xlink="http://www.w3.org/1999/xlink">
<g id="graph0" class="graph" transform="scale(1 1) rotate(0) translate(4 639.2)">
<title>G</title>
<polygon fill="#ffffff" stroke="transparent" points="-4,4 -4,-639.2 1201.8388,-639.2 1201.8388,4 -4,4"/>
<!-- GO:0070062 -->
<g id="node1" class="node">
<title>GO:0070062</title>
<polygon fill="#ffffff" stroke="#000000" points="217.8843,-213.4019 78.4419,-213.4019 78.4419,-172.1981 217.8843,-172.1981 217.8843,-213.4019"/>
<text text-anchor="middle" x="148.1631" y="-197" font-family="Times,serif" font-size="14.00" fill="#000000">GO:0070062</text>
<text text-anchor="middle" x="148.1631" y="-180.2" font-family="Times,serif" font-size="14.00" fill="#000000">extracellular exosome</text>
</g>
<!-- GO:1903561 -->
<g id="node2" class="node">
<title>GO:1903561</title>
<polygon fill="#ffffff" stroke="#000000" points="128.4897,-299.4019 -.1635,-299.4019 -.1635,-258.1981 128.4897,-258.1981 128.4897,-299.4019"/>
<text text-anchor="middle" x="64.1631" y="-283" font-family="Times,serif" font-size="14.00" fill="#000000">GO:1903561</text>
<text text-anchor="middle" x="64.1631" y="-266.2" font-family="Times,serif" font-size="14.00" fill="#000000">extracellular vesicle</text>
</g>
<!-- GO:0070062&#45;&gt;GO:1903561 -->
<g id="edge1" class="edge">
<title>GO:0070062&#45;&gt;GO:1903561</title>
<path fill="none" stroke="#000000" d="M127.829,-213.6182C116.8921,-224.8156 103.2559,-238.7764 91.4124,-250.9019"/>
<polygon fill="#000000" stroke="#000000" points="88.7935,-248.5741 84.3099,-258.1735 93.8012,-253.4653 88.7935,-248.5741"/>
</g>
<!-- GO:0031988 -->
<g id="node3" class="node">
<title>GO:0031988</title>
<polygon fill="#ffffff" stroke="#000000" points="316.4938,-299.4019 145.8324,-299.4019 145.8324,-258.1981 316.4938,-258.1981 316.4938,-299.4019"/>
<text text-anchor="middle" x="231.1631" y="-283" font-family="Times,serif" font-size="14.00" fill="#000000">GO:0031988</text>
<text text-anchor="middle" x="231.1631" y="-266.2" font-family="Times,serif" font-size="14.00" fill="#000000">membrane&#45;bounded vesicle</text>
</g>
<!-- GO:0070062&#45;&gt;GO:0031988 -->
<g id="edge2" class="edge">
<title>GO:0070062&#45;&gt;GO:0031988</title>
<path fill="none" stroke="#000000" d="M168.2551,-213.6182C179.0618,-224.8156 192.5357,-238.7764 204.2382,-250.9019"/>
<polygon fill="#000000" stroke="#000000" points="201.7932,-253.4086 211.2561,-258.1735 206.8301,-248.5475 201.7932,-253.4086"/>
</g>
<!-- GO:0043230 -->
<g id="node4" class="node">
<title>GO:0043230</title>
<polygon fill="#ffffff" stroke="#000000" points="243.706,-471.4019 102.6202,-471.4019 102.6202,-430.1981 243.706,-430.1981 243.706,-471.4019"/>
<text text-anchor="middle" x="173.1631" y="-455" font-family="Times,serif" font-size="14.00" fill="#000000">GO:0043230</text>
<text text-anchor="middle" x="173.1631" y="-438.2" font-family="Times,serif" font-size="14.00" fill="#000000">extracellular organelle</text>
</g>
<!-- GO:1903561&#45;&gt;GO:0043230 -->
<g id="edge3" class="edge">
<title>GO:1903561&#45;&gt;GO:0043230</title>
<path fill="none" stroke="#000000" d="M77.311,-299.5472C96.5428,-329.8945 132.4401,-386.5399 154.4287,-421.2375"/>
<polygon fill="#000000" stroke="#000000" points="151.6593,-423.406 159.9685,-429.9792 157.572,-419.659 151.6593,-423.406"/>
</g>
<!-- GO:0031982 -->
<g id="node5" class="node">
<title>GO:0031982</title>
<polygon fill="#ffffff" stroke="#000000" points="286.767,-385.4019 197.5592,-385.4019 197.5592,-344.1981 286.767,-344.1981 286.767,-385.4019"/>
<text text-anchor="middle" x="242.1631" y="-369" font-family="Times,serif" font-size="14.00" fill="#000000">GO:0031982</text>
<text text-anchor="middle" x="242.1631" y="-352.2" font-family="Times,serif" font-size="14.00" fill="#000000">vesicle</text>
</g>
<!-- GO:1903561&#45;&gt;GO:0031982 -->
<g id="edge4" class="edge">
<title>GO:1903561&#45;&gt;GO:0031982</title>
<path fill="none" stroke="#000000" d="M107.2519,-299.6182C132.2863,-311.7135 163.9945,-327.0332 190.3799,-339.7812"/>
<polygon fill="#000000" stroke="#000000" points="188.9443,-342.9746 199.4711,-344.1735 191.9895,-336.6717 188.9443,-342.9746"/>
</g>
<!-- GO:0031988&#45;&gt;GO:0031982 -->
<g id="edge5" class="edge">
<title>GO:0031988&#45;&gt;GO:0031982</title>
<path fill="none" stroke="#000000" d="M233.8259,-299.6182C235.15,-309.9705 236.7763,-322.6848 238.2398,-334.1271"/>
<polygon fill="#000000" stroke="#000000" points="234.7843,-334.6984 239.5248,-344.1735 241.7277,-333.8102 234.7843,-334.6984"/>
</g>
<!-- GO:0043226 -->
<g id="node6" class="node">
<title>GO:0043226</title>
<polygon fill="#ffffff" stroke="#000000" points="416.767,-557.4019 327.5592,-557.4019 327.5592,-516.1981 416.767,-516.1981 416.767,-557.4019"/>
<text text-anchor="middle" x="372.1631" y="-541" font-family="Times,serif" font-size="14.00" fill="#000000">GO:0043226</text>
<text text-anchor="middle" x="372.1631" y="-524.2" font-family="Times,serif" font-size="14.00" fill="#000000">organelle</text>
</g>
<!-- GO:0043230&#45;&gt;GO:0043226 -->
<g id="edge6" class="edge">
<title>GO:0043230&#45;&gt;GO:0043226</title>
<path fill="none" stroke="#000000" d="M221.0818,-471.5086C250.243,-484.1109 287.5744,-500.2441 317.8319,-513.3202"/>
<polygon fill="#000000" stroke="#000000" points="316.8199,-516.6956 327.3878,-517.4499 319.5968,-510.27 316.8199,-516.6956"/>
</g>
<!-- GO:0044421 -->
<g id="node7" class="node">
<title>GO:0044421</title>
<polygon fill="#ffffff" stroke="#000000" points="302.6521,-557.4019 151.6741,-557.4019 151.6741,-516.1981 302.6521,-516.1981 302.6521,-557.4019"/>
<text text-anchor="middle" x="227.1631" y="-541" font-family="Times,serif" font-size="14.00" fill="#000000">GO:0044421</text>
<text text-anchor="middle" x="227.1631" y="-524.2" font-family="Times,serif" font-size="14.00" fill="#000000">extracellular region part</text>
</g>
<!-- GO:0043230&#45;&gt;GO:0044421 -->
<g id="edge7" class="edge">
<title>GO:0043230&#45;&gt;GO:0044421</title>
<path fill="none" stroke="#000000" d="M186.235,-471.6182C193.0006,-482.393 201.3729,-495.7267 208.779,-507.5216"/>
<polygon fill="#000000" stroke="#000000" points="205.9297,-509.5658 214.2116,-516.1735 211.858,-505.8434 205.9297,-509.5658"/>
</g>
<!-- GO:0043227 -->
<g id="node8" class="node">
<title>GO:0043227</title>
<polygon fill="#ffffff" stroke="#000000" points="390.1239,-480.2014 262.2023,-480.2014 262.2023,-421.3986 390.1239,-421.3986 390.1239,-480.2014"/>
<text text-anchor="middle" x="326.1631" y="-463.4" font-family="Times,serif" font-size="14.00" fill="#000000">GO:0043227</text>
<text text-anchor="middle" x="326.1631" y="-446.6" font-family="Times,serif" font-size="14.00" fill="#000000">membrane&#45;bounded</text>
<text text-anchor="middle" x="326.1631" y="-429.8" font-family="Times,serif" font-size="14.00" fill="#000000">organelle</text>
</g>
<!-- GO:0031982&#45;&gt;GO:0043227 -->
<g id="edge8" class="edge">
<title>GO:0031982&#45;&gt;GO:0043227</title>
<path fill="none" stroke="#000000" d="M262.4972,-385.6182C270.8546,-394.1747 280.7883,-404.3448 290.2937,-414.0766"/>
<polygon fill="#000000" stroke="#000000" points="287.9547,-416.691 297.446,-421.3991 292.9624,-411.7998 287.9547,-416.691"/>
</g>
<!-- GO:0005575 -->
<g id="node9" class="node">
<title>GO:0005575</title>
<polygon fill="#ffffff" stroke="#000000" points="580.8498,-635.0019 453.4764,-635.0019 453.4764,-593.7981 580.8498,-593.7981 580.8498,-635.0019"/>
<text text-anchor="middle" x="517.1631" y="-618.6" font-family="Times,serif" font-size="14.00" fill="#000000">GO:0005575</text>
<text text-anchor="middle" x="517.1631" y="-601.8" font-family="Times,serif" font-size="14.00" fill="#000000">cellular_component</text>
</g>
<!-- GO:0043226&#45;&gt;GO:0005575 -->
<g id="edge9" class="edge">
<title>GO:0043226&#45;&gt;GO:0005575</title>
<path fill="none" stroke="#000000" d="M411.0204,-557.5954C428.9712,-567.2021 450.4575,-578.701 469.3886,-588.8324"/>
<polygon fill="#000000" stroke="#000000" points="467.9818,-592.0492 478.4501,-593.6819 471.2848,-585.8775 467.9818,-592.0492"/>
</g>
<!-- GO:0044421&#45;&gt;GO:0005575 -->
<g id="edge10" class="edge">
<title>GO:0044421&#45;&gt;GO:0005575</title>
<path fill="none" stroke="#000000" d="M302.6001,-556.9859C346.0392,-568.6096 400.3943,-583.1543 443.5265,-594.6959"/>
<polygon fill="#000000" stroke="#000000" points="442.8261,-598.1315 453.391,-597.3355 444.6356,-591.3694 442.8261,-598.1315"/>
</g>
<!-- GO:0043227&#45;&gt;GO:0043226 -->
<g id="edge11" class="edge">
<title>GO:0043227&#45;&gt;GO:0043226</title>
<path fill="none" stroke="#000000" d="M341.9937,-480.3963C346.6124,-489.0312 351.6596,-498.4673 356.2814,-507.1081"/>
<polygon fill="#000000" stroke="#000000" points="353.2863,-508.9295 361.0892,-516.0966 359.4588,-505.6279 353.2863,-508.9295"/>
</g>
<!-- GO:0099503 -->
<g id="node10" class="node">
<title>GO:0099503</title>
<polygon fill="#ffffff" stroke="#000000" points="464.8334,-41.4019 355.4928,-41.4019 355.4928,-.1981 464.8334,-.1981 464.8334,-41.4019"/>
<text text-anchor="middle" x="410.1631" y="-25" font-family="Times,serif" font-size="14.00" fill="#000000">GO:0099503</text>
<text text-anchor="middle" x="410.1631" y="-8.2" font-family="Times,serif" font-size="14.00" fill="#000000">secretory vesicle</text>
</g>
<!-- GO:0016023 -->
<g id="node11" class="node">
<title>GO:0016023</title>
<polygon fill="#ffffff" stroke="#000000" points="487.5606,-136.2014 332.7656,-136.2014 332.7656,-77.3986 487.5606,-77.3986 487.5606,-136.2014"/>
<text text-anchor="middle" x="410.1631" y="-119.4" font-family="Times,serif" font-size="14.00" fill="#000000">GO:0016023</text>
<text text-anchor="middle" x="410.1631" y="-102.6" font-family="Times,serif" font-size="14.00" fill="#000000">cytoplasmic, membrane&#45;</text>
<text text-anchor="middle" x="410.1631" y="-85.8" font-family="Times,serif" font-size="14.00" fill="#000000">bounded vesicle</text>
</g>
<!-- GO:0099503&#45;&gt;GO:0016023 -->
<g id="edge12" class="edge">
<title>GO:0099503&#45;&gt;GO:0016023</title>
<path fill="none" stroke="#000000" d="M410.1631,-41.6182C410.1631,-49.3358 410.1631,-58.3662 410.1631,-67.2036"/>
<polygon fill="#000000" stroke="#000000" points="406.6632,-67.3991 410.1631,-77.3991 413.6632,-67.3992 406.6632,-67.3991"/>
</g>
<!-- GO:0016023&#45;&gt;GO:0031988 -->
<g id="edge15" class="edge">
<title>GO:0016023&#45;&gt;GO:0031988</title>
<path fill="none" stroke="#000000" d="M379.3919,-136.3679C345.9851,-168.4683 293.0334,-219.3492 260.2866,-250.8154"/>
<polygon fill="#000000" stroke="#000000" points="257.6064,-248.5368 252.8208,-257.9892 262.4565,-253.5843 257.6064,-248.5368"/>
</g>
<!-- GO:0031410 -->
<g id="node12" class="node">
<title>GO:0031410</title>
<polygon fill="#ffffff" stroke="#000000" points="629.1835,-213.4019 503.1427,-213.4019 503.1427,-172.1981 629.1835,-172.1981 629.1835,-213.4019"/>
<text text-anchor="middle" x="566.1631" y="-197" font-family="Times,serif" font-size="14.00" fill="#000000">GO:0031410</text>
<text text-anchor="middle" x="566.1631" y="-180.2" font-family="Times,serif" font-size="14.00" fill="#000000">cytoplasmic vesicle</text>
</g>
<!-- GO:0016023&#45;&gt;GO:0031410 -->
<g id="edge13" class="edge">
<title>GO:0016023&#45;&gt;GO:0031410</title>
<path fill="none" stroke="#000000" d="M463.4131,-136.1558C481.6027,-146.1834 501.7957,-157.3154 519.4325,-167.0383"/>
<polygon fill="#000000" stroke="#000000" points="517.9511,-170.2182 528.3983,-171.9809 521.3306,-164.088 517.9511,-170.2182"/>
</g>
<!-- GO:0043231 -->
<g id="node13" class="node">
<title>GO:0043231</title>
<polygon fill="#ffffff" stroke="#000000" points="485.5419,-308.2014 334.7843,-308.2014 334.7843,-249.3986 485.5419,-249.3986 485.5419,-308.2014"/>
<text text-anchor="middle" x="410.1631" y="-291.4" font-family="Times,serif" font-size="14.00" fill="#000000">GO:0043231</text>
<text text-anchor="middle" x="410.1631" y="-274.6" font-family="Times,serif" font-size="14.00" fill="#000000">intracellular membrane&#45;</text>
<text text-anchor="middle" x="410.1631" y="-257.8" font-family="Times,serif" font-size="14.00" fill="#000000">bounded organelle</text>
</g>
<!-- GO:0016023&#45;&gt;GO:0043231 -->
<g id="edge14" class="edge">
<title>GO:0016023&#45;&gt;GO:0043231</title>
<path fill="none" stroke="#000000" d="M410.1631,-136.3679C410.1631,-164.7587 410.1631,-207.8404 410.1631,-239.1878"/>
<polygon fill="#000000" stroke="#000000" points="406.6632,-239.3306 410.1631,-249.3307 413.6632,-239.3307 406.6632,-239.3306"/>
</g>
<!-- GO:0044444 -->
<g id="node14" class="node">
<title>GO:0044444</title>
<polygon fill="#ffffff" stroke="#000000" points="755.5797,-299.4019 646.7465,-299.4019 646.7465,-258.1981 755.5797,-258.1981 755.5797,-299.4019"/>
<text text-anchor="middle" x="701.1631" y="-283" font-family="Times,serif" font-size="14.00" fill="#000000">GO:0044444</text>
<text text-anchor="middle" x="701.1631" y="-266.2" font-family="Times,serif" font-size="14.00" fill="#000000">cytoplasmic part</text>
</g>
<!-- GO:0031410&#45;&gt;GO:0044444 -->
<g id="edge16" class="edge">
<title>GO:0031410&#45;&gt;GO:0044444</title>
<path fill="none" stroke="#000000" d="M598.8428,-213.6182C617.3321,-225.3966 640.6213,-240.2326 660.3082,-252.7739"/>
<polygon fill="#000000" stroke="#000000" points="658.4698,-255.7526 668.7843,-258.1735 662.2308,-249.8488 658.4698,-255.7526"/>
</g>
<!-- GO:0097708 -->
<g id="node15" class="node">
<title>GO:0097708</title>
<polygon fill="#ffffff" stroke="#000000" points="629.1653,-299.4019 503.1609,-299.4019 503.1609,-258.1981 629.1653,-258.1981 629.1653,-299.4019"/>
<text text-anchor="middle" x="566.1631" y="-283" font-family="Times,serif" font-size="14.00" fill="#000000">GO:0097708</text>
<text text-anchor="middle" x="566.1631" y="-266.2" font-family="Times,serif" font-size="14.00" fill="#000000">intracellular vesicle</text>
</g>
<!-- GO:0031410&#45;&gt;GO:0097708 -->
<g id="edge17" class="edge">
<title>GO:0031410&#45;&gt;GO:0097708</title>
<path fill="none" stroke="#000000" d="M566.1631,-213.6182C566.1631,-223.9705 566.1631,-236.6848 566.1631,-248.1271"/>
<polygon fill="#000000" stroke="#000000" points="562.6632,-248.1735 566.1631,-258.1735 569.6632,-248.1735 562.6632,-248.1735"/>
</g>
<!-- GO:0043231&#45;&gt;GO:0043227 -->
<g id="edge19" class="edge">
<title>GO:0043231&#45;&gt;GO:0043227</title>
<path fill="none" stroke="#000000" d="M373.3529,-308.0731C362.7071,-318.3423 352.1006,-330.673 345.1631,-344 334.4508,-364.5784 329.6485,-390.0821 327.5489,-411.006"/>
<polygon fill="#000000" stroke="#000000" points="324.0442,-410.9168 326.7007,-421.1732 331.02,-411.4989 324.0442,-410.9168"/>
</g>
<!-- GO:0043229 -->
<g id="node16" class="node">
<title>GO:0043229</title>
<polygon fill="#ffffff" stroke="#000000" points="493.8815,-385.4019 354.4447,-385.4019 354.4447,-344.1981 493.8815,-344.1981 493.8815,-385.4019"/>
<text text-anchor="middle" x="424.1631" y="-369" font-family="Times,serif" font-size="14.00" fill="#000000">GO:0043229</text>
<text text-anchor="middle" x="424.1631" y="-352.2" font-family="Times,serif" font-size="14.00" fill="#000000">intracellular organelle</text>
</g>
<!-- GO:0043231&#45;&gt;GO:0043229 -->
<g id="edge18" class="edge">
<title>GO:0043231&#45;&gt;GO:0043229</title>
<path fill="none" stroke="#000000" d="M414.9811,-308.3963C416.327,-316.6638 417.7924,-325.6657 419.1493,-334.0008"/>
<polygon fill="#000000" stroke="#000000" points="415.7314,-334.7889 420.7928,-344.0966 422.6405,-333.6641 415.7314,-334.7889"/>
</g>
<!-- GO:0044424 -->
<g id="node17" class="node">
<title>GO:0044424</title>
<polygon fill="#ffffff" stroke="#000000" points="554.5615,-471.4019 445.7647,-471.4019 445.7647,-430.1981 554.5615,-430.1981 554.5615,-471.4019"/>
<text text-anchor="middle" x="500.1631" y="-455" font-family="Times,serif" font-size="14.00" fill="#000000">GO:0044424</text>
<text text-anchor="middle" x="500.1631" y="-438.2" font-family="Times,serif" font-size="14.00" fill="#000000">intracellular part</text>
</g>
<!-- GO:0044444&#45;&gt;GO:0044424 -->
<g id="edge20" class="edge">
<title>GO:0044444&#45;&gt;GO:0044424</title>
<path fill="none" stroke="#000000" d="M676.9178,-299.5472C640.6993,-330.5402 572.427,-388.9623 532.1572,-423.422"/>
<polygon fill="#000000" stroke="#000000" points="529.8167,-420.8182 524.4944,-429.9792 534.3679,-426.1368 529.8167,-420.8182"/>
</g>
<!-- GO:0097708&#45;&gt;GO:0031982 -->
<g id="edge22" class="edge">
<title>GO:0097708&#45;&gt;GO:0031982</title>
<path fill="none" stroke="#000000" d="M518.1468,-299.5361C510.2134,-302.5959 502.0153,-305.541 494.1631,-308 457.9802,-319.3312 359.6584,-340.4732 297.0677,-353.5228"/>
<polygon fill="#000000" stroke="#000000" points="296.0415,-350.1612 286.9635,-355.6239 297.4666,-357.0146 296.0415,-350.1612"/>
</g>
<!-- GO:0097708&#45;&gt;GO:0044424 -->
<g id="edge21" class="edge">
<title>GO:0097708&#45;&gt;GO:0044424</title>
<path fill="none" stroke="#000000" d="M558.202,-299.5472C546.6562,-329.6362 525.1903,-385.5776 511.8486,-420.3469"/>
<polygon fill="#000000" stroke="#000000" points="508.4674,-419.389 508.1525,-429.9792 515.0027,-421.8968 508.4674,-419.389"/>
</g>
<!-- GO:0043229&#45;&gt;GO:0043226 -->
<g id="edge24" class="edge">
<title>GO:0043229&#45;&gt;GO:0043226</title>
<path fill="none" stroke="#000000" d="M421.1326,-385.5813C417.3864,-408.9536 410.1305,-447.8462 399.1631,-480 396.1155,-488.9348 392.0467,-498.3134 387.9941,-506.8168"/>
<polygon fill="#000000" stroke="#000000" points="384.7617,-505.4581 383.4807,-515.9752 391.0407,-508.5524 384.7617,-505.4581"/>
</g>
<!-- GO:0043229&#45;&gt;GO:0044424 -->
<g id="edge23" class="edge">
<title>GO:0043229&#45;&gt;GO:0044424</title>
<path fill="none" stroke="#000000" d="M442.5606,-385.6182C452.3626,-396.7099 464.5608,-410.5132 475.2053,-422.5583"/>
<polygon fill="#000000" stroke="#000000" points="472.6904,-424.9979 481.935,-430.1735 477.9357,-420.3625 472.6904,-424.9979"/>
</g>
<!-- GO:0044464 -->
<g id="node18" class="node">
<title>GO:0044464</title>
<polygon fill="#ffffff" stroke="#000000" points="716.767,-557.4019 627.5592,-557.4019 627.5592,-516.1981 716.767,-516.1981 716.767,-557.4019"/>
<text text-anchor="middle" x="672.1631" y="-541" font-family="Times,serif" font-size="14.00" fill="#000000">GO:0044464</text>
<text text-anchor="middle" x="672.1631" y="-524.2" font-family="Times,serif" font-size="14.00" fill="#000000">cell part</text>
</g>
<!-- GO:0044424&#45;&gt;GO:0044464 -->
<g id="edge25" class="edge">
<title>GO:0044424&#45;&gt;GO:0044464</title>
<path fill="none" stroke="#000000" d="M541.7995,-471.6182C565.8844,-483.6606 596.362,-498.8994 621.7911,-511.614"/>
<polygon fill="#000000" stroke="#000000" points="620.4006,-514.8318 630.9101,-516.1735 623.5311,-508.5708 620.4006,-514.8318"/>
</g>
<!-- GO:0044464&#45;&gt;GO:0005575 -->
<g id="edge30" class="edge">
<title>GO:0044464&#45;&gt;GO:0005575</title>
<path fill="none" stroke="#000000" d="M630.6259,-557.5954C611.2628,-567.2895 588.0511,-578.9102 567.6811,-589.1084"/>
<polygon fill="#000000" stroke="#000000" points="565.921,-586.0754 558.5459,-593.6819 569.0548,-592.3348 565.921,-586.0754"/>
</g>
<!-- GO:0043005 -->
<g id="node19" class="node">
<title>GO:0043005</title>
<polygon fill="#ffffff" stroke="#000000" points="777.8,-385.4019 662.5262,-385.4019 662.5262,-344.1981 777.8,-344.1981 777.8,-385.4019"/>
<text text-anchor="middle" x="720.1631" y="-369" font-family="Times,serif" font-size="14.00" fill="#000000">GO:0043005</text>
<text text-anchor="middle" x="720.1631" y="-352.2" font-family="Times,serif" font-size="14.00" fill="#000000">neuron projection</text>
</g>
<!-- GO:0097458 -->
<g id="node20" class="node">
<title>GO:0097458</title>
<polygon fill="#ffffff" stroke="#000000" points="661.767,-471.4019 572.5592,-471.4019 572.5592,-430.1981 661.767,-430.1981 661.767,-471.4019"/>
<text text-anchor="middle" x="617.1631" y="-455" font-family="Times,serif" font-size="14.00" fill="#000000">GO:0097458</text>
<text text-anchor="middle" x="617.1631" y="-438.2" font-family="Times,serif" font-size="14.00" fill="#000000">neuron part</text>
</g>
<!-- GO:0043005&#45;&gt;GO:0097458 -->
<g id="edge26" class="edge">
<title>GO:0043005&#45;&gt;GO:0097458</title>
<path fill="none" stroke="#000000" d="M695.2297,-385.6182C681.5658,-397.0268 664.4662,-411.3042 649.7563,-423.5863"/>
<polygon fill="#000000" stroke="#000000" points="647.2998,-421.0777 641.8669,-430.1735 651.7863,-426.451 647.2998,-421.0777"/>
</g>
<!-- GO:0042995 -->
<g id="node21" class="node">
<title>GO:0042995</title>
<polygon fill="#ffffff" stroke="#000000" points="776.6363,-471.4019 679.6899,-471.4019 679.6899,-430.1981 776.6363,-430.1981 776.6363,-471.4019"/>
<text text-anchor="middle" x="728.1631" y="-455" font-family="Times,serif" font-size="14.00" fill="#000000">GO:0042995</text>
<text text-anchor="middle" x="728.1631" y="-438.2" font-family="Times,serif" font-size="14.00" fill="#000000">cell projection</text>
</g>
<!-- GO:0043005&#45;&gt;GO:0042995 -->
<g id="edge27" class="edge">
<title>GO:0043005&#45;&gt;GO:0042995</title>
<path fill="none" stroke="#000000" d="M722.0997,-385.6182C723.0627,-395.9705 724.2454,-408.6848 725.3098,-420.1271"/>
<polygon fill="#000000" stroke="#000000" points="721.8331,-420.5407 726.2444,-430.1735 728.803,-419.8923 721.8331,-420.5407"/>
</g>
<!-- GO:0097458&#45;&gt;GO:0044464 -->
<g id="edge28" class="edge">
<title>GO:0097458&#45;&gt;GO:0044464</title>
<path fill="none" stroke="#000000" d="M630.4771,-471.6182C637.3679,-482.393 645.8953,-495.7267 653.4386,-507.5216"/>
<polygon fill="#000000" stroke="#000000" points="650.6354,-509.6347 658.9717,-516.1735 656.5325,-505.8633 650.6354,-509.6347"/>
</g>
<!-- GO:0042995&#45;&gt;GO:0044464 -->
<g id="edge29" class="edge">
<title>GO:0042995&#45;&gt;GO:0044464</title>
<path fill="none" stroke="#000000" d="M714.6071,-471.6182C707.5909,-482.393 698.9085,-495.7267 691.2281,-507.5216"/>
<polygon fill="#000000" stroke="#000000" points="688.1181,-505.8836 685.5943,-516.1735 693.9841,-509.7034 688.1181,-505.8836"/>
</g>
<!-- GO:0005886 -->
<g id="node22" class="node">
<title>GO:0005886</title>
<polygon fill="#ffffff" stroke="#000000" points="1072.4039,-471.4019 953.9223,-471.4019 953.9223,-430.1981 1072.4039,-430.1981 1072.4039,-471.4019"/>
<text text-anchor="middle" x="1013.1631" y="-455" font-family="Times,serif" font-size="14.00" fill="#000000">GO:0005886</text>
<text text-anchor="middle" x="1013.1631" y="-438.2" font-family="Times,serif" font-size="14.00" fill="#000000">plasma membrane</text>
</g>
<!-- GO:0005886&#45;&gt;GO:0044464 -->
<g id="edge32" class="edge">
<title>GO:0005886&#45;&gt;GO:0044464</title>
<path fill="none" stroke="#000000" d="M968.654,-471.4158C960.9213,-474.5624 952.8829,-477.5665 945.1631,-480 871.0539,-503.3612 782.5551,-519.757 726.8447,-528.7381"/>
<polygon fill="#000000" stroke="#000000" points="726.1615,-525.3027 716.8348,-530.3288 727.2602,-532.2159 726.1615,-525.3027"/>
</g>
<!-- GO:0016020 -->
<g id="node23" class="node">
<title>GO:0016020</title>
<polygon fill="#ffffff" stroke="#000000" points="1057.767,-557.4019 968.5592,-557.4019 968.5592,-516.1981 1057.767,-516.1981 1057.767,-557.4019"/>
<text text-anchor="middle" x="1013.1631" y="-541" font-family="Times,serif" font-size="14.00" fill="#000000">GO:0016020</text>
<text text-anchor="middle" x="1013.1631" y="-524.2" font-family="Times,serif" font-size="14.00" fill="#000000">membrane</text>
</g>
<!-- GO:0005886&#45;&gt;GO:0016020 -->
<g id="edge31" class="edge">
<title>GO:0005886&#45;&gt;GO:0016020</title>
<path fill="none" stroke="#000000" d="M1013.1631,-471.6182C1013.1631,-481.9705 1013.1631,-494.6848 1013.1631,-506.1271"/>
<polygon fill="#000000" stroke="#000000" points="1009.6632,-506.1735 1013.1631,-516.1735 1016.6632,-506.1735 1009.6632,-506.1735"/>
</g>
<!-- GO:0016020&#45;&gt;GO:0005575 -->
<g id="edge33" class="edge">
<title>GO:0016020&#45;&gt;GO:0005575</title>
<path fill="none" stroke="#000000" d="M968.2716,-543.8233C882.6516,-557.2187 695.2768,-586.5338 590.9645,-602.8536"/>
<polygon fill="#000000" stroke="#000000" points="590.1658,-599.4359 580.827,-604.4397 591.2478,-606.3518 590.1658,-599.4359"/>
</g>
<!-- GO:0009279 -->
<g id="node24" class="node">
<title>GO:0009279</title>
<polygon fill="#ffffff" stroke="#000000" points="938.7249,-385.4019 807.6013,-385.4019 807.6013,-344.1981 938.7249,-344.1981 938.7249,-385.4019"/>
<text text-anchor="middle" x="873.1631" y="-369" font-family="Times,serif" font-size="14.00" fill="#000000">GO:0009279</text>
<text text-anchor="middle" x="873.1631" y="-352.2" font-family="Times,serif" font-size="14.00" fill="#000000">cell outer membrane</text>
</g>
<!-- GO:0044462 -->
<g id="node25" class="node">
<title>GO:0044462</title>
<polygon fill="#ffffff" stroke="#000000" points="935.7242,-480.2014 794.602,-480.2014 794.602,-421.3986 935.7242,-421.3986 935.7242,-480.2014"/>
<text text-anchor="middle" x="865.1631" y="-463.4" font-family="Times,serif" font-size="14.00" fill="#000000">GO:0044462</text>
<text text-anchor="middle" x="865.1631" y="-446.6" font-family="Times,serif" font-size="14.00" fill="#000000">external encapsulating</text>
<text text-anchor="middle" x="865.1631" y="-429.8" font-family="Times,serif" font-size="14.00" fill="#000000">structure part</text>
</g>
<!-- GO:0009279&#45;&gt;GO:0044462 -->
<g id="edge34" class="edge">
<title>GO:0009279&#45;&gt;GO:0044462</title>
<path fill="none" stroke="#000000" d="M871.2265,-385.6182C870.5086,-393.3358 869.6686,-402.3662 868.8465,-411.2036"/>
<polygon fill="#000000" stroke="#000000" points="865.3394,-411.1179 867.8981,-421.3991 872.3093,-411.7663 865.3394,-411.1179"/>
</g>
<!-- GO:0019867 -->
<g id="node26" class="node">
<title>GO:0019867</title>
<polygon fill="#ffffff" stroke="#000000" points="1198.0151,-471.4019 1090.3111,-471.4019 1090.3111,-430.1981 1198.0151,-430.1981 1198.0151,-471.4019"/>
<text text-anchor="middle" x="1144.1631" y="-455" font-family="Times,serif" font-size="14.00" fill="#000000">GO:0019867</text>
<text text-anchor="middle" x="1144.1631" y="-438.2" font-family="Times,serif" font-size="14.00" fill="#000000">outer membrane</text>
</g>
<!-- GO:0009279&#45;&gt;GO:0019867 -->
<g id="edge35" class="edge">
<title>GO:0009279&#45;&gt;GO:0019867</title>
<path fill="none" stroke="#000000" d="M939.1543,-379.8188C980.4934,-389.9611 1034.5761,-404.5787 1081.1631,-421.6 1085.0483,-423.0195 1089.0239,-424.5831 1092.9957,-426.2266"/>
<polygon fill="#000000" stroke="#000000" points="1091.6421,-429.4543 1102.2123,-430.1764 1094.3994,-423.0203 1091.6421,-429.4543"/>
</g>
<!-- GO:0044462&#45;&gt;GO:0044464 -->
<g id="edge36" class="edge">
<title>GO:0044462&#45;&gt;GO:0044464</title>
<path fill="none" stroke="#000000" d="M799.5528,-480.0357C775.6373,-490.6923 748.8921,-502.6099 726.1057,-512.7634"/>
<polygon fill="#000000" stroke="#000000" points="724.6402,-509.5846 716.9306,-516.8518 727.4893,-515.9786 724.6402,-509.5846"/>
</g>
<!-- GO:0019867&#45;&gt;GO:0016020 -->
<g id="edge37" class="edge">
<title>GO:0019867&#45;&gt;GO:0016020</title>
<path fill="none" stroke="#000000" d="M1112.4517,-471.6182C1094.5907,-483.3437 1072.1137,-498.0996 1053.0647,-510.6051"/>
<polygon fill="#000000" stroke="#000000" points="1051.0213,-507.7597 1044.5825,-516.1735 1054.8629,-513.6114 1051.0213,-507.7597"/>
</g>
</g>
</svg>
