<?xml version="1.0" encoding="UTF-8" standalone="no"?>
<!DOCTYPE svg PUBLIC "-//W3C//DTD SVG 1.1//EN"
 "http://www.w3.org/Graphics/SVG/1.1/DTD/svg11.dtd">
<!-- Generated by graphviz version 2.40.1 (20161225.0304)
 -->
<!-- Title: G Pages: 1 -->
<svg width="516pt" height="299pt"
 viewBox="0.00 0.00 515.63 299.20" xmlns="http://www.w3.org/2000/svg" xmlns:xlink="http://www.w3.org/1999/xlink">
<g id="graph0" class="graph" transform="scale(1 1) rotate(0) translate(4 295.2)">
<title>G</title>
<polygon fill="#ffffff" stroke="transparent" points="-4,4 -4,-295.2 511.6256,-295.2 511.6256,4 -4,4"/>
<!-- GO:0019867 -->
<g id="node1" class="node">
<title>GO:0019867</title>
<polygon fill="#ffffff" stroke="#000000" points="507.8019,-127.4019 400.0979,-127.4019 400.0979,-86.1981 507.8019,-86.1981 507.8019,-127.4019"/>
<text text-anchor="middle" x="453.9499" y="-111" font-family="Times,serif" font-size="14.00" fill="#000000">GO:0019867</text>
<text text-anchor="middle" x="453.9499" y="-94.2" font-family="Times,serif" font-size="14.00" fill="#000000">outer membrane</text>
</g>
<!-- GO:0016020 -->
<g id="node2" class="node">
<title>GO:0016020</title>
<polygon fill="#ffffff" stroke="#000000" points="460.5538,-213.4019 371.346,-213.4019 371.346,-172.1981 460.5538,-172.1981 460.5538,-213.4019"/>
<text text-anchor="middle" x="415.9499" y="-197" font-family="Times,serif" font-size="14.00" fill="#000000">GO:0016020</text>
<text text-anchor="middle" x="415.9499" y="-180.2" font-family="Times,serif" font-size="14.00" fill="#000000">membrane</text>
</g>
<!-- GO:0019867&#45;&gt;GO:0016020 -->
<g id="edge1" class="edge">
<title>GO:0019867&#45;&gt;GO:0016020</title>
<path fill="none" stroke="#000000" d="M444.7512,-127.6182C440.0835,-138.1818 434.3292,-151.2048 429.1942,-162.8261"/>
<polygon fill="#000000" stroke="#000000" points="425.9042,-161.612 425.0639,-172.1735 432.307,-164.4412 425.9042,-161.612"/>
</g>
<!-- GO:0005575 -->
<g id="node3" class="node">
<title>GO:0005575</title>
<polygon fill="#ffffff" stroke="#000000" points="387.6366,-291.0019 260.2632,-291.0019 260.2632,-249.7981 387.6366,-249.7981 387.6366,-291.0019"/>
<text text-anchor="middle" x="323.9499" y="-274.6" font-family="Times,serif" font-size="14.00" fill="#000000">GO:0005575</text>
<text text-anchor="middle" x="323.9499" y="-257.8" font-family="Times,serif" font-size="14.00" fill="#000000">cellular_component</text>
</g>
<!-- GO:0016020&#45;&gt;GO:0005575 -->
<g id="edge2" class="edge">
<title>GO:0016020&#45;&gt;GO:0005575</title>
<path fill="none" stroke="#000000" d="M391.2956,-213.5954C380.5706,-222.6416 367.8565,-233.3657 356.3801,-243.0458"/>
<polygon fill="#000000" stroke="#000000" points="354.0596,-240.4243 348.6723,-249.5472 358.5729,-245.7751 354.0596,-240.4243"/>
</g>
<!-- GO:0042597 -->
<g id="node4" class="node">
<title>GO:0042597</title>
<polygon fill="#ffffff" stroke="#000000" points="115.8497,-127.4019 .0501,-127.4019 .0501,-86.1981 115.8497,-86.1981 115.8497,-127.4019"/>
<text text-anchor="middle" x="57.9499" y="-111" font-family="Times,serif" font-size="14.00" fill="#000000">GO:0042597</text>
<text text-anchor="middle" x="57.9499" y="-94.2" font-family="Times,serif" font-size="14.00" fill="#000000">periplasmic space</text>
</g>
<!-- GO:0044464 -->
<g id="node5" class="node">
<title>GO:0044464</title>
<polygon fill="#ffffff" stroke="#000000" points="315.5538,-213.4019 226.346,-213.4019 226.346,-172.1981 315.5538,-172.1981 315.5538,-213.4019"/>
<text text-anchor="middle" x="270.9499" y="-197" font-family="Times,serif" font-size="14.00" fill="#000000">GO:0044464</text>
<text text-anchor="middle" x="270.9499" y="-180.2" font-family="Times,serif" font-size="14.00" fill="#000000">cell part</text>
</g>
<!-- GO:0042597&#45;&gt;GO:0044464 -->
<g id="edge3" class="edge">
<title>GO:0042597&#45;&gt;GO:0044464</title>
<path fill="none" stroke="#000000" d="M104.7056,-127.4608C111.4793,-130.3713 118.3806,-133.2919 124.9499,-136 155.203,-148.4715 189.268,-161.7663 216.8795,-172.3558"/>
<polygon fill="#000000" stroke="#000000" points="215.7696,-175.6785 226.36,-175.9829 218.2708,-169.1407 215.7696,-175.6785"/>
</g>
<!-- GO:0044464&#45;&gt;GO:0005575 -->
<g id="edge4" class="edge">
<title>GO:0044464&#45;&gt;GO:0005575</title>
<path fill="none" stroke="#000000" d="M285.1529,-213.5954C290.9156,-222.0328 297.6751,-231.9297 303.9232,-241.0778"/>
<polygon fill="#000000" stroke="#000000" points="301.1774,-243.2634 309.7077,-249.5472 306.9579,-239.3154 301.1774,-243.2634"/>
</g>
<!-- GO:0009279 -->
<g id="node6" class="node">
<title>GO:0009279</title>
<polygon fill="#ffffff" stroke="#000000" points="394.5117,-41.4019 263.3881,-41.4019 263.3881,-.1981 394.5117,-.1981 394.5117,-41.4019"/>
<text text-anchor="middle" x="328.9499" y="-25" font-family="Times,serif" font-size="14.00" fill="#000000">GO:0009279</text>
<text text-anchor="middle" x="328.9499" y="-8.2" font-family="Times,serif" font-size="14.00" fill="#000000">cell outer membrane</text>
</g>
<!-- GO:0009279&#45;&gt;GO:0019867 -->
<g id="edge6" class="edge">
<title>GO:0009279&#45;&gt;GO:0019867</title>
<path fill="none" stroke="#000000" d="M359.2089,-41.6182C376.0983,-53.2381 397.3132,-67.834 415.3838,-80.2665"/>
<polygon fill="#000000" stroke="#000000" points="413.7472,-83.3889 423.9695,-86.1735 417.7149,-77.6219 413.7472,-83.3889"/>
</g>
<!-- GO:0044462 -->
<g id="node7" class="node">
<title>GO:0044462</title>
<polygon fill="#ffffff" stroke="#000000" points="275.511,-136.2014 134.3888,-136.2014 134.3888,-77.3986 275.511,-77.3986 275.511,-136.2014"/>
<text text-anchor="middle" x="204.9499" y="-119.4" font-family="Times,serif" font-size="14.00" fill="#000000">GO:0044462</text>
<text text-anchor="middle" x="204.9499" y="-102.6" font-family="Times,serif" font-size="14.00" fill="#000000">external encapsulating</text>
<text text-anchor="middle" x="204.9499" y="-85.8" font-family="Times,serif" font-size="14.00" fill="#000000">structure part</text>
</g>
<!-- GO:0009279&#45;&gt;GO:0044462 -->
<g id="edge5" class="edge">
<title>GO:0009279&#45;&gt;GO:0044462</title>
<path fill="none" stroke="#000000" d="M298.933,-41.6182C285.9909,-50.5941 270.4886,-61.3458 255.8413,-71.5044"/>
<polygon fill="#000000" stroke="#000000" points="253.5643,-68.8241 247.3418,-77.3991 257.5537,-74.5761 253.5643,-68.8241"/>
</g>
<!-- GO:0044462&#45;&gt;GO:0044464 -->
<g id="edge7" class="edge">
<title>GO:0044462&#45;&gt;GO:0044464</title>
<path fill="none" stroke="#000000" d="M227.6634,-136.3963C234.5016,-145.3068 241.9947,-155.0705 248.7961,-163.9329"/>
<polygon fill="#000000" stroke="#000000" points="246.1964,-166.2943 255.0612,-172.0966 251.7496,-162.0326 246.1964,-166.2943"/>
</g>
<!-- GO:0009986 -->
<g id="node8" class="node">
<title>GO:0009986</title>
<polygon fill="#ffffff" stroke="#000000" points="382.5538,-127.4019 293.346,-127.4019 293.346,-86.1981 382.5538,-86.1981 382.5538,-127.4019"/>
<text text-anchor="middle" x="337.9499" y="-111" font-family="Times,serif" font-size="14.00" fill="#000000">GO:0009986</text>
<text text-anchor="middle" x="337.9499" y="-94.2" font-family="Times,serif" font-size="14.00" fill="#000000">cell surface</text>
</g>
<!-- GO:0009986&#45;&gt;GO:0044464 -->
<g id="edge8" class="edge">
<title>GO:0009986&#45;&gt;GO:0044464</title>
<path fill="none" stroke="#000000" d="M321.7311,-127.6182C313.1721,-138.6043 302.5407,-152.2506 293.2207,-164.2137"/>
<polygon fill="#000000" stroke="#000000" points="290.4042,-162.1339 287.0194,-172.1735 295.9262,-166.4359 290.4042,-162.1339"/>
</g>
</g>
</svg>
