<?xml version="1.0" encoding="UTF-8" standalone="no"?>
<!DOCTYPE svg PUBLIC "-//W3C//DTD SVG 1.1//EN"
 "http://www.w3.org/Graphics/SVG/1.1/DTD/svg11.dtd">
<!-- Generated by graphviz version 2.40.1 (20161225.0304)
 -->
<!-- Title: G Pages: 1 -->
<svg width="558pt" height="316pt"
 viewBox="0.00 0.00 558.19 316.00" xmlns="http://www.w3.org/2000/svg" xmlns:xlink="http://www.w3.org/1999/xlink">
<g id="graph0" class="graph" transform="scale(1 1) rotate(0) translate(4 312)">
<title>G</title>
<polygon fill="#ffffff" stroke="transparent" points="-4,4 -4,-312 554.1915,-312 554.1915,4 -4,4"/>
<!-- GO:0044710 -->
<g id="node1" class="node">
<title>GO:0044710</title>
<polygon fill="#ffffff" stroke="#000000" points="164.8623,-153.0014 .0459,-153.0014 .0459,-94.1986 164.8623,-94.1986 164.8623,-153.0014"/>
<text text-anchor="middle" x="82.4541" y="-136.2" font-family="Times,serif" font-size="14.00" fill="#000000">GO:0044710</text>
<text text-anchor="middle" x="82.4541" y="-119.4" font-family="Times,serif" font-size="14.00" fill="#000000">single&#45;organism metabolic</text>
<text text-anchor="middle" x="82.4541" y="-102.6" font-family="Times,serif" font-size="14.00" fill="#000000">process</text>
</g>
<!-- GO:0008152 -->
<g id="node2" class="node">
<title>GO:0008152</title>
<polygon fill="#ffffff" stroke="#000000" points="299.6397,-230.2019 183.2685,-230.2019 183.2685,-188.9981 299.6397,-188.9981 299.6397,-230.2019"/>
<text text-anchor="middle" x="241.4541" y="-213.8" font-family="Times,serif" font-size="14.00" fill="#000000">GO:0008152</text>
<text text-anchor="middle" x="241.4541" y="-197" font-family="Times,serif" font-size="14.00" fill="#000000">metabolic process</text>
</g>
<!-- GO:0044710&#45;&gt;GO:0008152 -->
<g id="edge1" class="edge">
<title>GO:0044710&#45;&gt;GO:0008152</title>
<path fill="none" stroke="#000000" d="M136.7282,-152.9558C155.2676,-162.9834 175.8489,-174.1154 193.8249,-183.8383"/>
<polygon fill="#000000" stroke="#000000" points="192.5021,-187.1019 202.9631,-188.7809 195.8324,-180.9449 192.5021,-187.1019"/>
</g>
<!-- GO:0044699 -->
<g id="node3" class="node">
<title>GO:0044699</title>
<polygon fill="#ffffff" stroke="#000000" points="162.1354,-230.2019 10.7728,-230.2019 10.7728,-188.9981 162.1354,-188.9981 162.1354,-230.2019"/>
<text text-anchor="middle" x="86.4541" y="-213.8" font-family="Times,serif" font-size="14.00" fill="#000000">GO:0044699</text>
<text text-anchor="middle" x="86.4541" y="-197" font-family="Times,serif" font-size="14.00" fill="#000000">single&#45;organism process</text>
</g>
<!-- GO:0044710&#45;&gt;GO:0044699 -->
<g id="edge2" class="edge">
<title>GO:0044710&#45;&gt;GO:0044699</title>
<path fill="none" stroke="#000000" d="M83.8307,-153.1963C84.2152,-161.4638 84.6339,-170.4657 85.0216,-178.8008"/>
<polygon fill="#000000" stroke="#000000" points="81.5302,-179.07 85.4911,-188.8966 88.5227,-178.7447 81.5302,-179.07"/>
</g>
<!-- GO:0008150 -->
<g id="node4" class="node">
<title>GO:0008150</title>
<polygon fill="#ffffff" stroke="#000000" points="301.9247,-307.8019 180.9835,-307.8019 180.9835,-266.5981 301.9247,-266.5981 301.9247,-307.8019"/>
<text text-anchor="middle" x="241.4541" y="-291.4" font-family="Times,serif" font-size="14.00" fill="#000000">GO:0008150</text>
<text text-anchor="middle" x="241.4541" y="-274.6" font-family="Times,serif" font-size="14.00" fill="#000000">biological_process</text>
</g>
<!-- GO:0008152&#45;&gt;GO:0008150 -->
<g id="edge3" class="edge">
<title>GO:0008152&#45;&gt;GO:0008150</title>
<path fill="none" stroke="#000000" d="M241.4541,-230.3954C241.4541,-238.3109 241.4541,-247.5109 241.4541,-256.1722"/>
<polygon fill="#000000" stroke="#000000" points="237.9542,-256.3472 241.4541,-266.3472 244.9542,-256.3473 237.9542,-256.3472"/>
</g>
<!-- GO:0044699&#45;&gt;GO:0008150 -->
<g id="edge4" class="edge">
<title>GO:0044699&#45;&gt;GO:0008150</title>
<path fill="none" stroke="#000000" d="M127.9913,-230.3954C147.3544,-240.0895 170.5661,-251.7102 190.9361,-261.9084"/>
<polygon fill="#000000" stroke="#000000" points="189.5624,-265.1348 200.0713,-266.4819 192.6962,-258.8754 189.5624,-265.1348"/>
</g>
<!-- GO:1901564 -->
<g id="node5" class="node">
<title>GO:1901564</title>
<polygon fill="#ffffff" stroke="#000000" points="392.591,-58.6014 228.3172,-58.6014 228.3172,.2014 392.591,.2014 392.591,-58.6014"/>
<text text-anchor="middle" x="310.4541" y="-41.8" font-family="Times,serif" font-size="14.00" fill="#000000">GO:1901564</text>
<text text-anchor="middle" x="310.4541" y="-25" font-family="Times,serif" font-size="14.00" fill="#000000">organonitrogen compound</text>
<text text-anchor="middle" x="310.4541" y="-8.2" font-family="Times,serif" font-size="14.00" fill="#000000">metabolic process</text>
</g>
<!-- GO:0071704 -->
<g id="node6" class="node">
<title>GO:0071704</title>
<polygon fill="#ffffff" stroke="#000000" points="299.6397,-153.0014 183.2685,-153.0014 183.2685,-94.1986 299.6397,-94.1986 299.6397,-153.0014"/>
<text text-anchor="middle" x="241.4541" y="-136.2" font-family="Times,serif" font-size="14.00" fill="#000000">GO:0071704</text>
<text text-anchor="middle" x="241.4541" y="-119.4" font-family="Times,serif" font-size="14.00" fill="#000000">organic substance</text>
<text text-anchor="middle" x="241.4541" y="-102.6" font-family="Times,serif" font-size="14.00" fill="#000000">metabolic process</text>
</g>
<!-- GO:1901564&#45;&gt;GO:0071704 -->
<g id="edge5" class="edge">
<title>GO:1901564&#45;&gt;GO:0071704</title>
<path fill="none" stroke="#000000" d="M289.0003,-58.5513C282.6397,-67.2534 275.5852,-76.9047 268.8999,-86.0509"/>
<polygon fill="#000000" stroke="#000000" points="265.97,-84.1282 262.8946,-94.2669 271.6214,-88.2589 265.97,-84.1282"/>
</g>
<!-- GO:0006807 -->
<g id="node7" class="node">
<title>GO:0006807</title>
<polygon fill="#ffffff" stroke="#000000" points="443.216,-153.0014 317.6922,-153.0014 317.6922,-94.1986 443.216,-94.1986 443.216,-153.0014"/>
<text text-anchor="middle" x="380.4541" y="-136.2" font-family="Times,serif" font-size="14.00" fill="#000000">GO:0006807</text>
<text text-anchor="middle" x="380.4541" y="-119.4" font-family="Times,serif" font-size="14.00" fill="#000000">nitrogen compound</text>
<text text-anchor="middle" x="380.4541" y="-102.6" font-family="Times,serif" font-size="14.00" fill="#000000">metabolic process</text>
</g>
<!-- GO:1901564&#45;&gt;GO:0006807 -->
<g id="edge6" class="edge">
<title>GO:1901564&#45;&gt;GO:0006807</title>
<path fill="none" stroke="#000000" d="M332.2188,-58.5513C338.6716,-67.2534 345.8283,-76.9047 352.6105,-86.0509"/>
<polygon fill="#000000" stroke="#000000" points="349.935,-88.319 358.7028,-94.2669 355.5579,-84.1496 349.935,-88.319"/>
</g>
<!-- GO:0071704&#45;&gt;GO:0008152 -->
<g id="edge7" class="edge">
<title>GO:0071704&#45;&gt;GO:0008152</title>
<path fill="none" stroke="#000000" d="M241.4541,-153.1963C241.4541,-161.4638 241.4541,-170.4657 241.4541,-178.8008"/>
<polygon fill="#000000" stroke="#000000" points="237.9542,-178.8965 241.4541,-188.8966 244.9542,-178.8966 237.9542,-178.8965"/>
</g>
<!-- GO:0006807&#45;&gt;GO:0008152 -->
<g id="edge8" class="edge">
<title>GO:0006807&#45;&gt;GO:0008152</title>
<path fill="none" stroke="#000000" d="M333.007,-152.9558C317.0969,-162.7994 299.4668,-173.7073 283.9596,-183.3017"/>
<polygon fill="#000000" stroke="#000000" points="281.766,-180.5431 275.1035,-188.7809 285.449,-186.4958 281.766,-180.5431"/>
</g>
<!-- GO:0007155 -->
<g id="node8" class="node">
<title>GO:0007155</title>
<polygon fill="#ff00ff" stroke="#000000" points="550.4302,-144.2019 460.478,-144.2019 460.478,-102.9981 550.4302,-102.9981 550.4302,-144.2019"/>
<text text-anchor="middle" x="505.4541" y="-127.8" font-family="Times,serif" font-size="14.00" fill="#000000">GO:0007155</text>
<text text-anchor="middle" x="505.4541" y="-111" font-family="Times,serif" font-size="14.00" fill="#000000">cell adhesion</text>
</g>
<!-- GO:0022610 -->
<g id="node9" class="node">
<title>GO:0022610</title>
<polygon fill="#ffffff" stroke="#000000" points="505.2104,-230.2019 379.6978,-230.2019 379.6978,-188.9981 505.2104,-188.9981 505.2104,-230.2019"/>
<text text-anchor="middle" x="442.4541" y="-213.8" font-family="Times,serif" font-size="14.00" fill="#000000">GO:0022610</text>
<text text-anchor="middle" x="442.4541" y="-197" font-family="Times,serif" font-size="14.00" fill="#000000">biological adhesion</text>
</g>
<!-- GO:0007155&#45;&gt;GO:0022610 -->
<g id="edge9" class="edge">
<title>GO:0007155&#45;&gt;GO:0022610</title>
<path fill="none" stroke="#000000" d="M490.2036,-144.4182C482.233,-155.2987 472.351,-168.7884 463.6484,-180.6681"/>
<polygon fill="#000000" stroke="#000000" points="460.6503,-178.8381 457.5642,-188.9735 466.2973,-182.9748 460.6503,-178.8381"/>
</g>
<!-- GO:0022610&#45;&gt;GO:0008150 -->
<g id="edge10" class="edge">
<title>GO:0022610&#45;&gt;GO:0008150</title>
<path fill="none" stroke="#000000" d="M388.8538,-230.2934C362.8463,-240.3341 331.4373,-252.4602 304.307,-262.9344"/>
<polygon fill="#000000" stroke="#000000" points="302.9733,-259.6974 294.905,-266.5642 305.4945,-266.2277 302.9733,-259.6974"/>
</g>
</g>
</svg>
