<?xml version="1.0" encoding="UTF-8" standalone="no"?>
<!DOCTYPE svg PUBLIC "-//W3C//DTD SVG 1.1//EN"
 "http://www.w3.org/Graphics/SVG/1.1/DTD/svg11.dtd">
<!-- Generated by graphviz version 2.40.1 (20161225.0304)
 -->
<!-- Title: G Pages: 1 -->
<svg width="314pt" height="454pt"
 viewBox="0.00 0.00 313.89 454.40" xmlns="http://www.w3.org/2000/svg" xmlns:xlink="http://www.w3.org/1999/xlink">
<g id="graph0" class="graph" transform="scale(1 1) rotate(0) translate(4 450.4)">
<title>G</title>
<polygon fill="#ffffff" stroke="transparent" points="-4,4 -4,-450.4 309.8854,-450.4 309.8854,4 -4,4"/>
<!-- GO:0005829 -->
<g id="node1" class="node">
<title>GO:0005829</title>
<polygon fill="#ffffff" stroke="#000000" points="89.1558,-135.8019 -.052,-135.8019 -.052,-94.5981 89.1558,-94.5981 89.1558,-135.8019"/>
<text text-anchor="middle" x="44.5519" y="-119.4" font-family="Times,serif" font-size="14.00" fill="#000000">GO:0005829</text>
<text text-anchor="middle" x="44.5519" y="-102.6" font-family="Times,serif" font-size="14.00" fill="#000000">cytosol</text>
</g>
<!-- GO:0044444 -->
<g id="node2" class="node">
<title>GO:0044444</title>
<polygon fill="#ffffff" stroke="#000000" points="138.9685,-213.4019 30.1353,-213.4019 30.1353,-172.1981 138.9685,-172.1981 138.9685,-213.4019"/>
<text text-anchor="middle" x="84.5519" y="-197" font-family="Times,serif" font-size="14.00" fill="#000000">GO:0044444</text>
<text text-anchor="middle" x="84.5519" y="-180.2" font-family="Times,serif" font-size="14.00" fill="#000000">cytoplasmic part</text>
</g>
<!-- GO:0005829&#45;&gt;GO:0044444 -->
<g id="edge1" class="edge">
<title>GO:0005829&#45;&gt;GO:0044444</title>
<path fill="none" stroke="#000000" d="M55.2712,-135.9954C59.5307,-144.2588 64.5118,-153.9222 69.1452,-162.911"/>
<polygon fill="#000000" stroke="#000000" points="66.1102,-164.6622 73.803,-171.9472 72.3323,-161.455 66.1102,-164.6622"/>
</g>
<!-- GO:0044424 -->
<g id="node3" class="node">
<title>GO:0044424</title>
<polygon fill="#ffffff" stroke="#000000" points="138.9503,-291.0019 30.1535,-291.0019 30.1535,-249.7981 138.9503,-249.7981 138.9503,-291.0019"/>
<text text-anchor="middle" x="84.5519" y="-274.6" font-family="Times,serif" font-size="14.00" fill="#000000">GO:0044424</text>
<text text-anchor="middle" x="84.5519" y="-257.8" font-family="Times,serif" font-size="14.00" fill="#000000">intracellular part</text>
</g>
<!-- GO:0044444&#45;&gt;GO:0044424 -->
<g id="edge2" class="edge">
<title>GO:0044444&#45;&gt;GO:0044424</title>
<path fill="none" stroke="#000000" d="M84.5519,-213.5954C84.5519,-221.5109 84.5519,-230.7109 84.5519,-239.3722"/>
<polygon fill="#000000" stroke="#000000" points="81.052,-239.5472 84.5519,-249.5472 88.052,-239.5473 81.052,-239.5472"/>
</g>
<!-- GO:0044464 -->
<g id="node4" class="node">
<title>GO:0044464</title>
<polygon fill="#ffffff" stroke="#000000" points="129.1558,-368.6019 39.948,-368.6019 39.948,-327.3981 129.1558,-327.3981 129.1558,-368.6019"/>
<text text-anchor="middle" x="84.5519" y="-352.2" font-family="Times,serif" font-size="14.00" fill="#000000">GO:0044464</text>
<text text-anchor="middle" x="84.5519" y="-335.4" font-family="Times,serif" font-size="14.00" fill="#000000">cell part</text>
</g>
<!-- GO:0044424&#45;&gt;GO:0044464 -->
<g id="edge3" class="edge">
<title>GO:0044424&#45;&gt;GO:0044464</title>
<path fill="none" stroke="#000000" d="M84.5519,-291.1954C84.5519,-299.1109 84.5519,-308.3109 84.5519,-316.9722"/>
<polygon fill="#000000" stroke="#000000" points="81.052,-317.1472 84.5519,-327.1472 88.052,-317.1473 81.052,-317.1472"/>
</g>
<!-- GO:0005575 -->
<g id="node5" class="node">
<title>GO:0005575</title>
<polygon fill="#ffffff" stroke="#000000" points="219.2386,-446.2019 91.8652,-446.2019 91.8652,-404.9981 219.2386,-404.9981 219.2386,-446.2019"/>
<text text-anchor="middle" x="155.5519" y="-429.8" font-family="Times,serif" font-size="14.00" fill="#000000">GO:0005575</text>
<text text-anchor="middle" x="155.5519" y="-413" font-family="Times,serif" font-size="14.00" fill="#000000">cellular_component</text>
</g>
<!-- GO:0044464&#45;&gt;GO:0005575 -->
<g id="edge4" class="edge">
<title>GO:0044464&#45;&gt;GO:0005575</title>
<path fill="none" stroke="#000000" d="M103.5786,-368.7954C111.5371,-377.4937 120.9149,-387.7433 129.4982,-397.1244"/>
<polygon fill="#000000" stroke="#000000" points="127.14,-399.732 136.4727,-404.7472 132.3046,-395.0067 127.14,-399.732"/>
</g>
<!-- GO:0009316 -->
<g id="node6" class="node">
<title>GO:0009316</title>
<polygon fill="#ffffff" stroke="#000000" points="256.6172,-58.6014 122.4866,-58.6014 122.4866,.2014 256.6172,.2014 256.6172,-58.6014"/>
<text text-anchor="middle" x="189.5519" y="-41.8" font-family="Times,serif" font-size="14.00" fill="#000000">GO:0009316</text>
<text text-anchor="middle" x="189.5519" y="-25" font-family="Times,serif" font-size="14.00" fill="#000000">3&#45;isopropylmalate</text>
<text text-anchor="middle" x="189.5519" y="-8.2" font-family="Times,serif" font-size="14.00" fill="#000000">dehydratase complex</text>
</g>
<!-- GO:0044445 -->
<g id="node7" class="node">
<title>GO:0044445</title>
<polygon fill="#ffffff" stroke="#000000" points="198.3635,-135.8019 106.7403,-135.8019 106.7403,-94.5981 198.3635,-94.5981 198.3635,-135.8019"/>
<text text-anchor="middle" x="152.5519" y="-119.4" font-family="Times,serif" font-size="14.00" fill="#000000">GO:0044445</text>
<text text-anchor="middle" x="152.5519" y="-102.6" font-family="Times,serif" font-size="14.00" fill="#000000">cytosolic part</text>
</g>
<!-- GO:0009316&#45;&gt;GO:0044445 -->
<g id="edge5" class="edge">
<title>GO:0009316&#45;&gt;GO:0044445</title>
<path fill="none" stroke="#000000" d="M176.8186,-58.7963C173.1431,-67.3393 169.1302,-76.6667 165.4451,-85.2321"/>
<polygon fill="#000000" stroke="#000000" points="162.1963,-83.9274 161.4592,-94.4966 168.6264,-86.6939 162.1963,-83.9274"/>
</g>
<!-- GO:1902494 -->
<g id="node8" class="node">
<title>GO:1902494</title>
<polygon fill="#ffffff" stroke="#000000" points="284.1832,-213.4019 168.9206,-213.4019 168.9206,-172.1981 284.1832,-172.1981 284.1832,-213.4019"/>
<text text-anchor="middle" x="226.5519" y="-197" font-family="Times,serif" font-size="14.00" fill="#000000">GO:1902494</text>
<text text-anchor="middle" x="226.5519" y="-180.2" font-family="Times,serif" font-size="14.00" fill="#000000">catalytic complex</text>
</g>
<!-- GO:0009316&#45;&gt;GO:1902494 -->
<g id="edge6" class="edge">
<title>GO:0009316&#45;&gt;GO:1902494</title>
<path fill="none" stroke="#000000" d="M198.1996,-58.6099C201.3413,-69.7688 204.7938,-82.6235 207.5519,-94.4 212.8319,-116.9448 217.7569,-142.6418 221.2691,-162.1211"/>
<polygon fill="#000000" stroke="#000000" points="217.8231,-162.7341 223.0198,-171.9669 224.715,-161.5086 217.8231,-162.7341"/>
</g>
<!-- GO:0044445&#45;&gt;GO:0044444 -->
<g id="edge7" class="edge">
<title>GO:0044445&#45;&gt;GO:0044444</title>
<path fill="none" stroke="#000000" d="M134.3291,-135.9954C126.7069,-144.6937 117.7253,-154.9433 109.5047,-164.3244"/>
<polygon fill="#000000" stroke="#000000" points="106.7832,-162.1195 102.825,-171.9472 112.0479,-166.7329 106.7832,-162.1195"/>
</g>
<!-- GO:0043234 -->
<g id="node9" class="node">
<title>GO:0043234</title>
<polygon fill="#ffffff" stroke="#000000" points="280.4193,-291.0019 172.6845,-291.0019 172.6845,-249.7981 280.4193,-249.7981 280.4193,-291.0019"/>
<text text-anchor="middle" x="226.5519" y="-274.6" font-family="Times,serif" font-size="14.00" fill="#000000">GO:0043234</text>
<text text-anchor="middle" x="226.5519" y="-257.8" font-family="Times,serif" font-size="14.00" fill="#000000">protein complex</text>
</g>
<!-- GO:1902494&#45;&gt;GO:0043234 -->
<g id="edge8" class="edge">
<title>GO:1902494&#45;&gt;GO:0043234</title>
<path fill="none" stroke="#000000" d="M226.5519,-213.5954C226.5519,-221.5109 226.5519,-230.7109 226.5519,-239.3722"/>
<polygon fill="#000000" stroke="#000000" points="223.052,-239.5472 226.5519,-249.5472 230.052,-239.5473 223.052,-239.5472"/>
</g>
<!-- GO:0032991 -->
<g id="node10" class="node">
<title>GO:0032991</title>
<polygon fill="#ffffff" stroke="#000000" points="305.7192,-368.6019 147.3846,-368.6019 147.3846,-327.3981 305.7192,-327.3981 305.7192,-368.6019"/>
<text text-anchor="middle" x="226.5519" y="-352.2" font-family="Times,serif" font-size="14.00" fill="#000000">GO:0032991</text>
<text text-anchor="middle" x="226.5519" y="-335.4" font-family="Times,serif" font-size="14.00" fill="#000000">macromolecular complex</text>
</g>
<!-- GO:0043234&#45;&gt;GO:0032991 -->
<g id="edge9" class="edge">
<title>GO:0043234&#45;&gt;GO:0032991</title>
<path fill="none" stroke="#000000" d="M226.5519,-291.1954C226.5519,-299.1109 226.5519,-308.3109 226.5519,-316.9722"/>
<polygon fill="#000000" stroke="#000000" points="223.052,-317.1472 226.5519,-327.1472 230.052,-317.1473 223.052,-317.1472"/>
</g>
<!-- GO:0032991&#45;&gt;GO:0005575 -->
<g id="edge10" class="edge">
<title>GO:0032991&#45;&gt;GO:0005575</title>
<path fill="none" stroke="#000000" d="M207.5252,-368.7954C199.5667,-377.4937 190.1889,-387.7433 181.6056,-397.1244"/>
<polygon fill="#000000" stroke="#000000" points="178.7992,-395.0067 174.6311,-404.7472 183.9638,-399.732 178.7992,-395.0067"/>
</g>
</g>
</svg>
