<?xml version="1.0" encoding="UTF-8" standalone="no"?>
<!DOCTYPE svg PUBLIC "-//W3C//DTD SVG 1.1//EN"
 "http://www.w3.org/Graphics/SVG/1.1/DTD/svg11.dtd">
<!-- Generated by graphviz version 2.40.1 (20161225.0304)
 -->
<!-- Title: G Pages: 1 -->
<svg width="727pt" height="410pt"
 viewBox="0.00 0.00 726.61 410.40" xmlns="http://www.w3.org/2000/svg" xmlns:xlink="http://www.w3.org/1999/xlink">
<g id="graph0" class="graph" transform="scale(1 1) rotate(0) translate(4 406.4)">
<title>G</title>
<polygon fill="#ffffff" stroke="transparent" points="-4,4 -4,-406.4 722.6147,-406.4 722.6147,4 -4,4"/>
<!-- GO:0044710 -->
<g id="node1" class="node">
<title>GO:0044710</title>
<polygon fill="#ffffff" stroke="#000000" points="164.8623,-247.4014 .0459,-247.4014 .0459,-188.5986 164.8623,-188.5986 164.8623,-247.4014"/>
<text text-anchor="middle" x="82.4541" y="-230.6" font-family="Times,serif" font-size="14.00" fill="#000000">GO:0044710</text>
<text text-anchor="middle" x="82.4541" y="-213.8" font-family="Times,serif" font-size="14.00" fill="#000000">single&#45;organism metabolic</text>
<text text-anchor="middle" x="82.4541" y="-197" font-family="Times,serif" font-size="14.00" fill="#000000">process</text>
</g>
<!-- GO:0008152 -->
<g id="node2" class="node">
<title>GO:0008152</title>
<polygon fill="#ffffff" stroke="#000000" points="305.6397,-324.6019 189.2685,-324.6019 189.2685,-283.3981 305.6397,-283.3981 305.6397,-324.6019"/>
<text text-anchor="middle" x="247.4541" y="-308.2" font-family="Times,serif" font-size="14.00" fill="#000000">GO:0008152</text>
<text text-anchor="middle" x="247.4541" y="-291.4" font-family="Times,serif" font-size="14.00" fill="#000000">metabolic process</text>
</g>
<!-- GO:0044710&#45;&gt;GO:0008152 -->
<g id="edge1" class="edge">
<title>GO:0044710&#45;&gt;GO:0008152</title>
<path fill="none" stroke="#000000" d="M138.7763,-247.3558C158.272,-257.5172 179.9436,-268.8127 198.7729,-278.6267"/>
<polygon fill="#000000" stroke="#000000" points="197.2805,-281.7958 207.766,-283.3141 200.516,-275.5883 197.2805,-281.7958"/>
</g>
<!-- GO:0044699 -->
<g id="node3" class="node">
<title>GO:0044699</title>
<polygon fill="#ffffff" stroke="#000000" points="167.1354,-324.6019 15.7728,-324.6019 15.7728,-283.3981 167.1354,-283.3981 167.1354,-324.6019"/>
<text text-anchor="middle" x="91.4541" y="-308.2" font-family="Times,serif" font-size="14.00" fill="#000000">GO:0044699</text>
<text text-anchor="middle" x="91.4541" y="-291.4" font-family="Times,serif" font-size="14.00" fill="#000000">single&#45;organism process</text>
</g>
<!-- GO:0044710&#45;&gt;GO:0044699 -->
<g id="edge2" class="edge">
<title>GO:0044710&#45;&gt;GO:0044699</title>
<path fill="none" stroke="#000000" d="M85.5514,-247.5963C86.4166,-255.8638 87.3587,-264.8657 88.2309,-273.2008"/>
<polygon fill="#000000" stroke="#000000" points="84.7656,-273.7152 89.2875,-283.2966 91.7275,-272.9865 84.7656,-273.7152"/>
</g>
<!-- GO:0008150 -->
<g id="node4" class="node">
<title>GO:0008150</title>
<polygon fill="#ffffff" stroke="#000000" points="437.9247,-402.2019 316.9835,-402.2019 316.9835,-360.9981 437.9247,-360.9981 437.9247,-402.2019"/>
<text text-anchor="middle" x="377.4541" y="-385.8" font-family="Times,serif" font-size="14.00" fill="#000000">GO:0008150</text>
<text text-anchor="middle" x="377.4541" y="-369" font-family="Times,serif" font-size="14.00" fill="#000000">biological_process</text>
</g>
<!-- GO:0008152&#45;&gt;GO:0008150 -->
<g id="edge3" class="edge">
<title>GO:0008152&#45;&gt;GO:0008150</title>
<path fill="none" stroke="#000000" d="M282.2917,-324.7954C298.0294,-334.1896 316.7983,-345.3931 333.492,-355.358"/>
<polygon fill="#000000" stroke="#000000" points="332.1398,-358.627 342.5203,-360.7472 335.7277,-352.6164 332.1398,-358.627"/>
</g>
<!-- GO:0044699&#45;&gt;GO:0008150 -->
<g id="edge4" class="edge">
<title>GO:0044699&#45;&gt;GO:0008150</title>
<path fill="none" stroke="#000000" d="M167.346,-324.5916C210.6407,-336.3387 264.5491,-350.9656 306.9203,-362.4621"/>
<polygon fill="#000000" stroke="#000000" points="306.0337,-365.8481 316.6013,-365.0889 307.8667,-359.0923 306.0337,-365.8481"/>
</g>
<!-- GO:0006950 -->
<g id="node5" class="node">
<title>GO:0006950</title>
<polygon fill="#ffffff" stroke="#000000" points="718.4233,-238.6019 604.4849,-238.6019 604.4849,-197.3981 718.4233,-197.3981 718.4233,-238.6019"/>
<text text-anchor="middle" x="661.4541" y="-222.2" font-family="Times,serif" font-size="14.00" fill="#000000">GO:0006950</text>
<text text-anchor="middle" x="661.4541" y="-205.4" font-family="Times,serif" font-size="14.00" fill="#000000">response to stress</text>
</g>
<!-- GO:0050896 -->
<g id="node6" class="node">
<title>GO:0050896</title>
<polygon fill="#ffffff" stroke="#000000" points="718.7757,-324.6019 588.1325,-324.6019 588.1325,-283.3981 718.7757,-283.3981 718.7757,-324.6019"/>
<text text-anchor="middle" x="653.4541" y="-308.2" font-family="Times,serif" font-size="14.00" fill="#000000">GO:0050896</text>
<text text-anchor="middle" x="653.4541" y="-291.4" font-family="Times,serif" font-size="14.00" fill="#000000">response to stimulus</text>
</g>
<!-- GO:0006950&#45;&gt;GO:0050896 -->
<g id="edge5" class="edge">
<title>GO:0006950&#45;&gt;GO:0050896</title>
<path fill="none" stroke="#000000" d="M659.5175,-238.8182C658.5545,-249.1705 657.3718,-261.8848 656.3074,-273.3271"/>
<polygon fill="#000000" stroke="#000000" points="652.8142,-273.0923 655.3728,-283.3735 659.7841,-273.7407 652.8142,-273.0923"/>
</g>
<!-- GO:0050896&#45;&gt;GO:0008150 -->
<g id="edge6" class="edge">
<title>GO:0050896&#45;&gt;GO:0008150</title>
<path fill="none" stroke="#000000" d="M588.046,-322.3901C545.8978,-334.2405 491.12,-349.6418 447.997,-361.7662"/>
<polygon fill="#000000" stroke="#000000" points="446.8229,-358.4605 438.1435,-364.5366 448.7176,-365.1992 446.8229,-358.4605"/>
</g>
<!-- GO:0044248 -->
<g id="node7" class="node">
<title>GO:0044248</title>
<polygon fill="#ffffff" stroke="#000000" points="294.4605,-153.0014 182.4477,-153.0014 182.4477,-94.1986 294.4605,-94.1986 294.4605,-153.0014"/>
<text text-anchor="middle" x="238.4541" y="-136.2" font-family="Times,serif" font-size="14.00" fill="#000000">GO:0044248</text>
<text text-anchor="middle" x="238.4541" y="-119.4" font-family="Times,serif" font-size="14.00" fill="#000000">cellular catabolic</text>
<text text-anchor="middle" x="238.4541" y="-102.6" font-family="Times,serif" font-size="14.00" fill="#000000">process</text>
</g>
<!-- GO:0009056 -->
<g id="node8" class="node">
<title>GO:0009056</title>
<polygon fill="#ffffff" stroke="#000000" points="294.4633,-238.6019 182.4449,-238.6019 182.4449,-197.3981 294.4633,-197.3981 294.4633,-238.6019"/>
<text text-anchor="middle" x="238.4541" y="-222.2" font-family="Times,serif" font-size="14.00" fill="#000000">GO:0009056</text>
<text text-anchor="middle" x="238.4541" y="-205.4" font-family="Times,serif" font-size="14.00" fill="#000000">catabolic process</text>
</g>
<!-- GO:0044248&#45;&gt;GO:0009056 -->
<g id="edge7" class="edge">
<title>GO:0044248&#45;&gt;GO:0009056</title>
<path fill="none" stroke="#000000" d="M238.4541,-152.9513C238.4541,-163.8614 238.4541,-176.2637 238.4541,-187.292"/>
<polygon fill="#000000" stroke="#000000" points="234.9542,-187.3509 238.4541,-197.351 241.9542,-187.351 234.9542,-187.3509"/>
</g>
<!-- GO:0044237 -->
<g id="node9" class="node">
<title>GO:0044237</title>
<polygon fill="#ffffff" stroke="#000000" points="428.6369,-247.4014 312.2713,-247.4014 312.2713,-188.5986 428.6369,-188.5986 428.6369,-247.4014"/>
<text text-anchor="middle" x="370.4541" y="-230.6" font-family="Times,serif" font-size="14.00" fill="#000000">GO:0044237</text>
<text text-anchor="middle" x="370.4541" y="-213.8" font-family="Times,serif" font-size="14.00" fill="#000000">cellular metabolic</text>
<text text-anchor="middle" x="370.4541" y="-197" font-family="Times,serif" font-size="14.00" fill="#000000">process</text>
</g>
<!-- GO:0044248&#45;&gt;GO:0044237 -->
<g id="edge8" class="edge">
<title>GO:0044248&#45;&gt;GO:0044237</title>
<path fill="none" stroke="#000000" d="M279.4962,-152.9513C292.6576,-162.3637 307.372,-172.8867 321.0659,-182.68"/>
<polygon fill="#000000" stroke="#000000" points="319.2674,-185.6967 329.4374,-188.6669 323.3394,-180.0029 319.2674,-185.6967"/>
</g>
<!-- GO:0009056&#45;&gt;GO:0008152 -->
<g id="edge9" class="edge">
<title>GO:0009056&#45;&gt;GO:0008152</title>
<path fill="none" stroke="#000000" d="M240.6327,-238.8182C241.7161,-249.1705 243.0467,-261.8848 244.2442,-273.3271"/>
<polygon fill="#000000" stroke="#000000" points="240.7736,-273.7921 245.2955,-283.3735 247.7356,-273.0635 240.7736,-273.7921"/>
</g>
<!-- GO:0044237&#45;&gt;GO:0008152 -->
<g id="edge11" class="edge">
<title>GO:0044237&#45;&gt;GO:0008152</title>
<path fill="none" stroke="#000000" d="M328.4685,-247.3558C314.5214,-257.1074 299.0805,-267.9035 285.4521,-277.4323"/>
<polygon fill="#000000" stroke="#000000" points="283.4201,-274.5823 277.2302,-283.1809 287.4312,-280.3192 283.4201,-274.5823"/>
</g>
<!-- GO:0009987 -->
<g id="node10" class="node">
<title>GO:0009987</title>
<polygon fill="#ffffff" stroke="#000000" points="429.4103,-324.6019 325.4979,-324.6019 325.4979,-283.3981 429.4103,-283.3981 429.4103,-324.6019"/>
<text text-anchor="middle" x="377.4541" y="-308.2" font-family="Times,serif" font-size="14.00" fill="#000000">GO:0009987</text>
<text text-anchor="middle" x="377.4541" y="-291.4" font-family="Times,serif" font-size="14.00" fill="#000000">cellular process</text>
</g>
<!-- GO:0044237&#45;&gt;GO:0009987 -->
<g id="edge10" class="edge">
<title>GO:0044237&#45;&gt;GO:0009987</title>
<path fill="none" stroke="#000000" d="M372.8631,-247.5963C373.536,-255.8638 374.2688,-264.8657 374.9472,-273.2008"/>
<polygon fill="#000000" stroke="#000000" points="371.4691,-273.6135 375.7689,-283.2966 378.446,-273.0455 371.4691,-273.6135"/>
</g>
<!-- GO:0009987&#45;&gt;GO:0008150 -->
<g id="edge12" class="edge">
<title>GO:0009987&#45;&gt;GO:0008150</title>
<path fill="none" stroke="#000000" d="M377.4541,-324.7954C377.4541,-332.7109 377.4541,-341.9109 377.4541,-350.5722"/>
<polygon fill="#000000" stroke="#000000" points="373.9542,-350.7472 377.4541,-360.7472 380.9542,-350.7473 373.9542,-350.7472"/>
</g>
<!-- GO:1990748 -->
<g id="node11" class="node">
<title>GO:1990748</title>
<polygon fill="#ffffff" stroke="#000000" points="586.1879,-238.6019 446.7203,-238.6019 446.7203,-197.3981 586.1879,-197.3981 586.1879,-238.6019"/>
<text text-anchor="middle" x="516.4541" y="-222.2" font-family="Times,serif" font-size="14.00" fill="#000000">GO:1990748</text>
<text text-anchor="middle" x="516.4541" y="-205.4" font-family="Times,serif" font-size="14.00" fill="#000000">cellular detoxification</text>
</g>
<!-- GO:1990748&#45;&gt;GO:0009987 -->
<g id="edge13" class="edge">
<title>GO:1990748&#45;&gt;GO:0009987</title>
<path fill="none" stroke="#000000" d="M482.8061,-238.8182C463.769,-250.5966 439.7898,-265.4326 419.5195,-277.9739"/>
<polygon fill="#000000" stroke="#000000" points="417.4547,-275.1356 410.7923,-283.3735 421.1377,-281.0884 417.4547,-275.1356"/>
</g>
<!-- GO:0098754 -->
<g id="node12" class="node">
<title>GO:0098754</title>
<polygon fill="#ffffff" stroke="#000000" points="555.2118,-324.6019 461.6964,-324.6019 461.6964,-283.3981 555.2118,-283.3981 555.2118,-324.6019"/>
<text text-anchor="middle" x="508.4541" y="-308.2" font-family="Times,serif" font-size="14.00" fill="#000000">GO:0098754</text>
<text text-anchor="middle" x="508.4541" y="-291.4" font-family="Times,serif" font-size="14.00" fill="#000000">detoxification</text>
</g>
<!-- GO:1990748&#45;&gt;GO:0098754 -->
<g id="edge14" class="edge">
<title>GO:1990748&#45;&gt;GO:0098754</title>
<path fill="none" stroke="#000000" d="M514.5175,-238.8182C513.5545,-249.1705 512.3718,-261.8848 511.3074,-273.3271"/>
<polygon fill="#000000" stroke="#000000" points="507.8142,-273.0923 510.3728,-283.3735 514.7841,-273.7407 507.8142,-273.0923"/>
</g>
<!-- GO:0098754&#45;&gt;GO:0008150 -->
<g id="edge15" class="edge">
<title>GO:0098754&#45;&gt;GO:0008150</title>
<path fill="none" stroke="#000000" d="M473.3485,-324.7954C457.3429,-334.2766 438.226,-345.6008 421.2877,-355.6345"/>
<polygon fill="#000000" stroke="#000000" points="419.4766,-352.6393 412.6566,-360.7472 423.0442,-358.6619 419.4766,-352.6393"/>
</g>
<!-- GO:0042743 -->
<g id="node13" class="node">
<title>GO:0042743</title>
<polygon fill="#ffffff" stroke="#000000" points="447.3102,-58.6014 325.598,-58.6014 325.598,.2014 447.3102,.2014 447.3102,-58.6014"/>
<text text-anchor="middle" x="386.4541" y="-41.8" font-family="Times,serif" font-size="14.00" fill="#000000">GO:0042743</text>
<text text-anchor="middle" x="386.4541" y="-25" font-family="Times,serif" font-size="14.00" fill="#000000">hydrogen peroxide</text>
<text text-anchor="middle" x="386.4541" y="-8.2" font-family="Times,serif" font-size="14.00" fill="#000000">metabolic process</text>
</g>
<!-- GO:0072593 -->
<g id="node14" class="node">
<title>GO:0072593</title>
<polygon fill="#ffffff" stroke="#000000" points="460.8925,-153.0014 312.0157,-153.0014 312.0157,-94.1986 460.8925,-94.1986 460.8925,-153.0014"/>
<text text-anchor="middle" x="386.4541" y="-136.2" font-family="Times,serif" font-size="14.00" fill="#000000">GO:0072593</text>
<text text-anchor="middle" x="386.4541" y="-119.4" font-family="Times,serif" font-size="14.00" fill="#000000">reactive oxygen species</text>
<text text-anchor="middle" x="386.4541" y="-102.6" font-family="Times,serif" font-size="14.00" fill="#000000">metabolic process</text>
</g>
<!-- GO:0042743&#45;&gt;GO:0072593 -->
<g id="edge16" class="edge">
<title>GO:0042743&#45;&gt;GO:0072593</title>
<path fill="none" stroke="#000000" d="M386.4541,-58.5513C386.4541,-66.6318 386.4541,-75.5308 386.4541,-84.0838"/>
<polygon fill="#000000" stroke="#000000" points="382.9542,-84.2668 386.4541,-94.2669 389.9542,-84.2669 382.9542,-84.2668"/>
</g>
<!-- GO:0072593&#45;&gt;GO:0044237 -->
<g id="edge17" class="edge">
<title>GO:0072593&#45;&gt;GO:0044237</title>
<path fill="none" stroke="#000000" d="M381.4793,-152.9513C380.0947,-161.1206 378.5683,-170.1264 377.104,-178.7657"/>
<polygon fill="#000000" stroke="#000000" points="373.6462,-178.2226 375.4258,-188.6669 380.5478,-179.3924 373.6462,-178.2226"/>
</g>
</g>
</svg>
