<?xml version="1.0" encoding="UTF-8" standalone="no"?>
<!DOCTYPE svg PUBLIC "-//W3C//DTD SVG 1.1//EN"
 "http://www.w3.org/Graphics/SVG/1.1/DTD/svg11.dtd">
<!-- Generated by graphviz version 2.40.1 (20161225.0304)
 -->
<!-- Title: G Pages: 1 -->
<svg width="268pt" height="471pt"
 viewBox="0.00 0.00 267.58 471.20" xmlns="http://www.w3.org/2000/svg" xmlns:xlink="http://www.w3.org/1999/xlink">
<g id="graph0" class="graph" transform="scale(1 1) rotate(0) translate(4 467.2)">
<title>G</title>
<polygon fill="#ffffff" stroke="transparent" points="-4,4 -4,-467.2 263.5828,-467.2 263.5828,4 -4,4"/>
<!-- GO:0042886 -->
<g id="node1" class="node">
<title>GO:0042886</title>
<polygon fill="#ffffff" stroke="#000000" points="114.6039,-41.4019 10.6577,-41.4019 10.6577,-.1981 114.6039,-.1981 114.6039,-41.4019"/>
<text text-anchor="middle" x="62.6308" y="-25" font-family="Times,serif" font-size="14.00" fill="#000000">GO:0042886</text>
<text text-anchor="middle" x="62.6308" y="-8.2" font-family="Times,serif" font-size="14.00" fill="#000000">amide transport</text>
</g>
<!-- GO:0071705 -->
<g id="node2" class="node">
<title>GO:0071705</title>
<polygon fill="#ffffff" stroke="#000000" points="125.3927,-136.2014 -.1311,-136.2014 -.1311,-77.3986 125.3927,-77.3986 125.3927,-136.2014"/>
<text text-anchor="middle" x="62.6308" y="-119.4" font-family="Times,serif" font-size="14.00" fill="#000000">GO:0071705</text>
<text text-anchor="middle" x="62.6308" y="-102.6" font-family="Times,serif" font-size="14.00" fill="#000000">nitrogen compound</text>
<text text-anchor="middle" x="62.6308" y="-85.8" font-family="Times,serif" font-size="14.00" fill="#000000">transport</text>
</g>
<!-- GO:0042886&#45;&gt;GO:0071705 -->
<g id="edge1" class="edge">
<title>GO:0042886&#45;&gt;GO:0071705</title>
<path fill="none" stroke="#000000" d="M62.6308,-41.6182C62.6308,-49.3358 62.6308,-58.3662 62.6308,-67.2036"/>
<polygon fill="#000000" stroke="#000000" points="59.1309,-67.3991 62.6308,-77.3991 66.1309,-67.3992 59.1309,-67.3991"/>
</g>
<!-- GO:0006810 -->
<g id="node3" class="node">
<title>GO:0006810</title>
<polygon fill="#ffffff" stroke="#000000" points="176.2347,-213.4019 87.0269,-213.4019 87.0269,-172.1981 176.2347,-172.1981 176.2347,-213.4019"/>
<text text-anchor="middle" x="131.6308" y="-197" font-family="Times,serif" font-size="14.00" fill="#000000">GO:0006810</text>
<text text-anchor="middle" x="131.6308" y="-180.2" font-family="Times,serif" font-size="14.00" fill="#000000">transport</text>
</g>
<!-- GO:0071705&#45;&gt;GO:0006810 -->
<g id="edge2" class="edge">
<title>GO:0071705&#45;&gt;GO:0006810</title>
<path fill="none" stroke="#000000" d="M86.3767,-136.3963C93.5995,-145.3986 101.521,-155.2719 108.6897,-164.2067"/>
<polygon fill="#000000" stroke="#000000" points="106.0319,-166.487 115.0199,-172.0966 111.4918,-162.1064 106.0319,-166.487"/>
</g>
<!-- GO:0051234 -->
<g id="node4" class="node">
<title>GO:0051234</title>
<polygon fill="#ffffff" stroke="#000000" points="185.7775,-308.2014 77.4841,-308.2014 77.4841,-249.3986 185.7775,-249.3986 185.7775,-308.2014"/>
<text text-anchor="middle" x="131.6308" y="-291.4" font-family="Times,serif" font-size="14.00" fill="#000000">GO:0051234</text>
<text text-anchor="middle" x="131.6308" y="-274.6" font-family="Times,serif" font-size="14.00" fill="#000000">establishment of</text>
<text text-anchor="middle" x="131.6308" y="-257.8" font-family="Times,serif" font-size="14.00" fill="#000000">localization</text>
</g>
<!-- GO:0006810&#45;&gt;GO:0051234 -->
<g id="edge3" class="edge">
<title>GO:0006810&#45;&gt;GO:0051234</title>
<path fill="none" stroke="#000000" d="M131.6308,-213.6182C131.6308,-221.3358 131.6308,-230.3662 131.6308,-239.2036"/>
<polygon fill="#000000" stroke="#000000" points="128.1309,-239.3991 131.6308,-249.3991 135.1309,-239.3992 128.1309,-239.3991"/>
</g>
<!-- GO:0051179 -->
<g id="node5" class="node">
<title>GO:0051179</title>
<polygon fill="#ffffff" stroke="#000000" points="176.2347,-385.4019 87.0269,-385.4019 87.0269,-344.1981 176.2347,-344.1981 176.2347,-385.4019"/>
<text text-anchor="middle" x="131.6308" y="-369" font-family="Times,serif" font-size="14.00" fill="#000000">GO:0051179</text>
<text text-anchor="middle" x="131.6308" y="-352.2" font-family="Times,serif" font-size="14.00" fill="#000000">localization</text>
</g>
<!-- GO:0051234&#45;&gt;GO:0051179 -->
<g id="edge4" class="edge">
<title>GO:0051234&#45;&gt;GO:0051179</title>
<path fill="none" stroke="#000000" d="M131.6308,-308.3963C131.6308,-316.6638 131.6308,-325.6657 131.6308,-334.0008"/>
<polygon fill="#000000" stroke="#000000" points="128.1309,-334.0965 131.6308,-344.0966 135.1309,-334.0966 128.1309,-334.0965"/>
</g>
<!-- GO:0008150 -->
<g id="node6" class="node">
<title>GO:0008150</title>
<polygon fill="#ffffff" stroke="#000000" points="192.1014,-463.0019 71.1602,-463.0019 71.1602,-421.7981 192.1014,-421.7981 192.1014,-463.0019"/>
<text text-anchor="middle" x="131.6308" y="-446.6" font-family="Times,serif" font-size="14.00" fill="#000000">GO:0008150</text>
<text text-anchor="middle" x="131.6308" y="-429.8" font-family="Times,serif" font-size="14.00" fill="#000000">biological_process</text>
</g>
<!-- GO:0051179&#45;&gt;GO:0008150 -->
<g id="edge5" class="edge">
<title>GO:0051179&#45;&gt;GO:0008150</title>
<path fill="none" stroke="#000000" d="M131.6308,-385.5954C131.6308,-393.5109 131.6308,-402.7109 131.6308,-411.3722"/>
<polygon fill="#000000" stroke="#000000" points="128.1309,-411.5472 131.6308,-421.5472 135.1309,-411.5473 128.1309,-411.5472"/>
</g>
<!-- GO:0071702 -->
<g id="node7" class="node">
<title>GO:0071702</title>
<polygon fill="#ffffff" stroke="#000000" points="259.5348,-136.2014 143.7268,-136.2014 143.7268,-77.3986 259.5348,-77.3986 259.5348,-136.2014"/>
<text text-anchor="middle" x="201.6308" y="-119.4" font-family="Times,serif" font-size="14.00" fill="#000000">GO:0071702</text>
<text text-anchor="middle" x="201.6308" y="-102.6" font-family="Times,serif" font-size="14.00" fill="#000000">organic substance</text>
<text text-anchor="middle" x="201.6308" y="-85.8" font-family="Times,serif" font-size="14.00" fill="#000000">transport</text>
</g>
<!-- GO:0071702&#45;&gt;GO:0006810 -->
<g id="edge6" class="edge">
<title>GO:0071702&#45;&gt;GO:0006810</title>
<path fill="none" stroke="#000000" d="M177.5408,-136.3963C170.2133,-145.3986 162.177,-155.2719 154.9044,-164.2067"/>
<polygon fill="#000000" stroke="#000000" points="152.0807,-162.1314 148.4824,-172.0966 157.5097,-166.5504 152.0807,-162.1314"/>
</g>
</g>
</svg>
