<?xml version="1.0" encoding="UTF-8" standalone="no"?>
<!DOCTYPE svg PUBLIC "-//W3C//DTD SVG 1.1//EN"
 "http://www.w3.org/Graphics/SVG/1.1/DTD/svg11.dtd">
<!-- Generated by graphviz version 2.40.1 (20161225.0304)
 -->
<!-- Title: G Pages: 1 -->
<svg width="1687pt" height="801pt"
 viewBox="0.00 0.00 1687.07 800.80" xmlns="http://www.w3.org/2000/svg" xmlns:xlink="http://www.w3.org/1999/xlink">
<g id="graph0" class="graph" transform="scale(1 1) rotate(0) translate(4 796.8)">
<title>G</title>
<polygon fill="#ffffff" stroke="transparent" points="-4,4 -4,-796.8 1683.0709,-796.8 1683.0709,4 -4,4"/>
<!-- GO:0016989 -->
<g id="node1" class="node">
<title>GO:0016989</title>
<polygon fill="#ffffff" stroke="#000000" points="708.5006,-434.2014 562.2456,-434.2014 562.2456,-375.3986 708.5006,-375.3986 708.5006,-434.2014"/>
<text text-anchor="middle" x="635.3731" y="-417.4" font-family="Times,serif" font-size="14.00" fill="#000000">GO:0016989</text>
<text text-anchor="middle" x="635.3731" y="-400.6" font-family="Times,serif" font-size="14.00" fill="#000000">sigma factor antagonist</text>
<text text-anchor="middle" x="635.3731" y="-383.8" font-family="Times,serif" font-size="14.00" fill="#000000">activity</text>
</g>
<!-- GO:0000989 -->
<g id="node2" class="node">
<title>GO:0000989</title>
<polygon fill="#ffffff" stroke="#000000" points="742.1223,-553.7003 606.6239,-553.7003 606.6239,-478.2997 742.1223,-478.2997 742.1223,-553.7003"/>
<text text-anchor="middle" x="674.3731" y="-537" font-family="Times,serif" font-size="14.00" fill="#000000">GO:0000989</text>
<text text-anchor="middle" x="674.3731" y="-520.2" font-family="Times,serif" font-size="14.00" fill="#000000">transcription factor</text>
<text text-anchor="middle" x="674.3731" y="-503.4" font-family="Times,serif" font-size="14.00" fill="#000000">activity, transcription</text>
<text text-anchor="middle" x="674.3731" y="-486.6" font-family="Times,serif" font-size="14.00" fill="#000000">factor binding</text>
</g>
<!-- GO:0016989&#45;&gt;GO:0000989 -->
<g id="edge1" class="edge">
<title>GO:0016989&#45;&gt;GO:0000989</title>
<path fill="none" stroke="#000000" d="M645.6199,-434.0165C649.3225,-444.5737 653.6046,-456.7831 657.7146,-468.5018"/>
<polygon fill="#000000" stroke="#000000" points="654.4976,-469.9049 661.11,-478.183 661.1031,-467.5882 654.4976,-469.9049"/>
</g>
<!-- GO:0000988 -->
<g id="node3" class="node">
<title>GO:0000988</title>
<polygon fill="#ffffff" stroke="#000000" points="749.8023,-648.2014 598.9439,-648.2014 598.9439,-589.3986 749.8023,-589.3986 749.8023,-648.2014"/>
<text text-anchor="middle" x="674.3731" y="-631.4" font-family="Times,serif" font-size="14.00" fill="#000000">GO:0000988</text>
<text text-anchor="middle" x="674.3731" y="-614.6" font-family="Times,serif" font-size="14.00" fill="#000000">transcription factor</text>
<text text-anchor="middle" x="674.3731" y="-597.8" font-family="Times,serif" font-size="14.00" fill="#000000">activity, protein binding</text>
</g>
<!-- GO:0000989&#45;&gt;GO:0000988 -->
<g id="edge2" class="edge">
<title>GO:0000989&#45;&gt;GO:0000988</title>
<path fill="none" stroke="#000000" d="M674.3731,-553.6952C674.3731,-562.0874 674.3731,-571.0054 674.3731,-579.4618"/>
<polygon fill="#000000" stroke="#000000" points="670.8732,-579.4813 674.3731,-589.4814 677.8732,-579.4814 670.8732,-579.4813"/>
</g>
<!-- GO:0003674 -->
<g id="node4" class="node">
<title>GO:0003674</title>
<polygon fill="#ffffff" stroke="#000000" points="663.0062,-759.0019 537.74,-759.0019 537.74,-717.7981 663.0062,-717.7981 663.0062,-759.0019"/>
<text text-anchor="middle" x="600.3731" y="-742.6" font-family="Times,serif" font-size="14.00" fill="#000000">GO:0003674</text>
<text text-anchor="middle" x="600.3731" y="-725.8" font-family="Times,serif" font-size="14.00" fill="#000000">molecular_function</text>
</g>
<!-- GO:0000988&#45;&gt;GO:0003674 -->
<g id="edge3" class="edge">
<title>GO:0000988&#45;&gt;GO:0003674</title>
<path fill="none" stroke="#000000" d="M656.2707,-648.0575C644.7981,-666.5997 630.012,-690.4972 618.5291,-709.056"/>
<polygon fill="#000000" stroke="#000000" points="615.4716,-707.3456 613.1863,-717.691 621.4243,-711.0287 615.4716,-707.3456"/>
</g>
<!-- GO:0042626 -->
<g id="node5" class="node">
<title>GO:0042626</title>
<polygon fill="#ffffff" stroke="#000000" points="533.1609,-75.3003 353.5853,-75.3003 353.5853,.1003 533.1609,.1003 533.1609,-75.3003"/>
<text text-anchor="middle" x="443.3731" y="-58.6" font-family="Times,serif" font-size="14.00" fill="#000000">GO:0042626</text>
<text text-anchor="middle" x="443.3731" y="-41.8" font-family="Times,serif" font-size="14.00" fill="#000000">ATPase activity, coupled</text>
<text text-anchor="middle" x="443.3731" y="-25" font-family="Times,serif" font-size="14.00" fill="#000000">to transmembrane movement</text>
<text text-anchor="middle" x="443.3731" y="-8.2" font-family="Times,serif" font-size="14.00" fill="#000000">of substances</text>
</g>
<!-- GO:0043492 -->
<g id="node6" class="node">
<title>GO:0043492</title>
<polygon fill="#ffffff" stroke="#000000" points="1548.3935,-178.2014 1380.3527,-178.2014 1380.3527,-119.3986 1548.3935,-119.3986 1548.3935,-178.2014"/>
<text text-anchor="middle" x="1464.3731" y="-161.4" font-family="Times,serif" font-size="14.00" fill="#000000">GO:0043492</text>
<text text-anchor="middle" x="1464.3731" y="-144.6" font-family="Times,serif" font-size="14.00" fill="#000000">ATPase activity, coupled</text>
<text text-anchor="middle" x="1464.3731" y="-127.8" font-family="Times,serif" font-size="14.00" fill="#000000">to movement of substances</text>
</g>
<!-- GO:0042626&#45;&gt;GO:0043492 -->
<g id="edge4" class="edge">
<title>GO:0042626&#45;&gt;GO:0043492</title>
<path fill="none" stroke="#000000" d="M533.2432,-39.9321C693.0735,-45.2307 1036.7955,-61.828 1322.3731,-111.2 1337.9809,-113.8984 1354.3738,-117.5006 1370.252,-121.4093"/>
<polygon fill="#000000" stroke="#000000" points="1369.5085,-124.8313 1380.0603,-123.8773 1371.2167,-118.0429 1369.5085,-124.8313"/>
</g>
<!-- GO:0016820 -->
<g id="node7" class="node">
<title>GO:0016820</title>
<polygon fill="#ffffff" stroke="#000000" points="533.4307,-331.1002 353.3155,-331.1002 353.3155,-222.4998 533.4307,-222.4998 533.4307,-331.1002"/>
<text text-anchor="middle" x="443.3731" y="-314.6" font-family="Times,serif" font-size="14.00" fill="#000000">GO:0016820</text>
<text text-anchor="middle" x="443.3731" y="-297.8" font-family="Times,serif" font-size="14.00" fill="#000000">hydrolase activity,</text>
<text text-anchor="middle" x="443.3731" y="-281" font-family="Times,serif" font-size="14.00" fill="#000000">acting on acid</text>
<text text-anchor="middle" x="443.3731" y="-264.2" font-family="Times,serif" font-size="14.00" fill="#000000">anhydrides, catalyzing</text>
<text text-anchor="middle" x="443.3731" y="-247.4" font-family="Times,serif" font-size="14.00" fill="#000000">transmembrane movement of</text>
<text text-anchor="middle" x="443.3731" y="-230.6" font-family="Times,serif" font-size="14.00" fill="#000000">substances</text>
</g>
<!-- GO:0042626&#45;&gt;GO:0016820 -->
<g id="edge5" class="edge">
<title>GO:0042626&#45;&gt;GO:0016820</title>
<path fill="none" stroke="#000000" d="M443.3731,-75.2381C443.3731,-111.9778 443.3731,-168.5996 443.3731,-212.487"/>
<polygon fill="#000000" stroke="#000000" points="439.8732,-212.4955 443.3731,-222.4955 446.8732,-212.4956 439.8732,-212.4955"/>
</g>
<!-- GO:0015405 -->
<g id="node8" class="node">
<title>GO:0015405</title>
<polygon fill="#ffffff" stroke="#000000" points="368.9356,-186.5003 227.8106,-186.5003 227.8106,-111.0997 368.9356,-111.0997 368.9356,-186.5003"/>
<text text-anchor="middle" x="298.3731" y="-169.8" font-family="Times,serif" font-size="14.00" fill="#000000">GO:0015405</text>
<text text-anchor="middle" x="298.3731" y="-153" font-family="Times,serif" font-size="14.00" fill="#000000">P&#45;P&#45;bond&#45;hydrolysis&#45;</text>
<text text-anchor="middle" x="298.3731" y="-136.2" font-family="Times,serif" font-size="14.00" fill="#000000">driven transmembrane</text>
<text text-anchor="middle" x="298.3731" y="-119.4" font-family="Times,serif" font-size="14.00" fill="#000000">transporter activity</text>
</g>
<!-- GO:0042626&#45;&gt;GO:0015405 -->
<g id="edge6" class="edge">
<title>GO:0042626&#45;&gt;GO:0015405</title>
<path fill="none" stroke="#000000" d="M394.2827,-75.2472C381.8818,-84.7575 368.4572,-95.0527 355.6903,-104.8436"/>
<polygon fill="#000000" stroke="#000000" points="353.2182,-102.3287 347.4129,-111.1915 357.4781,-107.8833 353.2182,-102.3287"/>
</g>
<!-- GO:0042623 -->
<g id="node9" class="node">
<title>GO:0042623</title>
<polygon fill="#ffffff" stroke="#000000" points="1640.0002,-297.4019 1482.746,-297.4019 1482.746,-256.1981 1640.0002,-256.1981 1640.0002,-297.4019"/>
<text text-anchor="middle" x="1561.3731" y="-281" font-family="Times,serif" font-size="14.00" fill="#000000">GO:0042623</text>
<text text-anchor="middle" x="1561.3731" y="-264.2" font-family="Times,serif" font-size="14.00" fill="#000000">ATPase activity, coupled</text>
</g>
<!-- GO:0043492&#45;&gt;GO:0042623 -->
<g id="edge7" class="edge">
<title>GO:0043492&#45;&gt;GO:0042623</title>
<path fill="none" stroke="#000000" d="M1486.6269,-178.1658C1502.4563,-199.0542 1523.6237,-226.9864 1539.3915,-247.7934"/>
<polygon fill="#000000" stroke="#000000" points="1536.744,-250.0947 1545.5733,-255.9508 1542.323,-245.8669 1536.744,-250.0947"/>
</g>
<!-- GO:0016817 -->
<g id="node10" class="node">
<title>GO:0016817</title>
<polygon fill="#ffffff" stroke="#000000" points="517.329,-434.2014 357.4172,-434.2014 357.4172,-375.3986 517.329,-375.3986 517.329,-434.2014"/>
<text text-anchor="middle" x="437.3731" y="-417.4" font-family="Times,serif" font-size="14.00" fill="#000000">GO:0016817</text>
<text text-anchor="middle" x="437.3731" y="-400.6" font-family="Times,serif" font-size="14.00" fill="#000000">hydrolase activity,</text>
<text text-anchor="middle" x="437.3731" y="-383.8" font-family="Times,serif" font-size="14.00" fill="#000000">acting on acid anhydrides</text>
</g>
<!-- GO:0016820&#45;&gt;GO:0016817 -->
<g id="edge8" class="edge">
<title>GO:0016820&#45;&gt;GO:0016817</title>
<path fill="none" stroke="#000000" d="M440.8112,-331.4548C440.2808,-342.7684 439.7318,-354.4801 439.2324,-365.1346"/>
<polygon fill="#000000" stroke="#000000" points="435.7242,-365.2298 438.752,-375.3828 442.7165,-365.5576 435.7242,-365.2298"/>
</g>
<!-- GO:0022804 -->
<g id="node11" class="node">
<title>GO:0022804</title>
<polygon fill="#ffffff" stroke="#000000" points="328.0943,-434.2014 188.6519,-434.2014 188.6519,-375.3986 328.0943,-375.3986 328.0943,-434.2014"/>
<text text-anchor="middle" x="258.3731" y="-417.4" font-family="Times,serif" font-size="14.00" fill="#000000">GO:0022804</text>
<text text-anchor="middle" x="258.3731" y="-400.6" font-family="Times,serif" font-size="14.00" fill="#000000">active transmembrane</text>
<text text-anchor="middle" x="258.3731" y="-383.8" font-family="Times,serif" font-size="14.00" fill="#000000">transporter activity</text>
</g>
<!-- GO:0016820&#45;&gt;GO:0022804 -->
<g id="edge9" class="edge">
<title>GO:0016820&#45;&gt;GO:0022804</title>
<path fill="none" stroke="#000000" d="M364.6482,-331.2691C345.8014,-344.3091 326.1742,-357.889 308.9912,-369.7777"/>
<polygon fill="#000000" stroke="#000000" points="306.9985,-366.9003 300.7664,-375.4684 310.9814,-372.6568 306.9985,-366.9003"/>
</g>
<!-- GO:0015399 -->
<g id="node12" class="node">
<title>GO:0015399</title>
<polygon fill="#ffffff" stroke="#000000" points="335.8065,-314.5003 168.9397,-314.5003 168.9397,-239.0997 335.8065,-239.0997 335.8065,-314.5003"/>
<text text-anchor="middle" x="252.3731" y="-297.8" font-family="Times,serif" font-size="14.00" fill="#000000">GO:0015399</text>
<text text-anchor="middle" x="252.3731" y="-281" font-family="Times,serif" font-size="14.00" fill="#000000">primary active</text>
<text text-anchor="middle" x="252.3731" y="-264.2" font-family="Times,serif" font-size="14.00" fill="#000000">transmembrane transporter</text>
<text text-anchor="middle" x="252.3731" y="-247.4" font-family="Times,serif" font-size="14.00" fill="#000000">activity</text>
</g>
<!-- GO:0015405&#45;&gt;GO:0015399 -->
<g id="edge10" class="edge">
<title>GO:0015405&#45;&gt;GO:0015399</title>
<path fill="none" stroke="#000000" d="M284.8204,-186.5119C279.9971,-199.9333 274.5029,-215.2215 269.4242,-229.3535"/>
<polygon fill="#000000" stroke="#000000" points="266.0762,-228.3208 265.9879,-238.9153 272.6637,-230.6883 266.0762,-228.3208"/>
</g>
<!-- GO:0016887 -->
<g id="node13" class="node">
<title>GO:0016887</title>
<polygon fill="#ffffff" stroke="#000000" points="1627.1805,-425.4019 1521.5657,-425.4019 1521.5657,-384.1981 1627.1805,-384.1981 1627.1805,-425.4019"/>
<text text-anchor="middle" x="1574.3731" y="-409" font-family="Times,serif" font-size="14.00" fill="#000000">GO:0016887</text>
<text text-anchor="middle" x="1574.3731" y="-392.2" font-family="Times,serif" font-size="14.00" fill="#000000">ATPase activity</text>
</g>
<!-- GO:0042623&#45;&gt;GO:0016887 -->
<g id="edge11" class="edge">
<title>GO:0042623&#45;&gt;GO:0016887</title>
<path fill="none" stroke="#000000" d="M1563.4907,-297.6503C1565.5871,-318.2914 1568.8218,-350.1413 1571.2203,-373.7573"/>
<polygon fill="#000000" stroke="#000000" points="1567.7638,-374.3635 1572.2564,-383.9586 1574.728,-373.6561 1567.7638,-374.3635"/>
</g>
<!-- GO:0016787 -->
<g id="node14" class="node">
<title>GO:0016787</title>
<polygon fill="#ffffff" stroke="#000000" points="448.2897,-536.6019 332.4565,-536.6019 332.4565,-495.3981 448.2897,-495.3981 448.2897,-536.6019"/>
<text text-anchor="middle" x="390.3731" y="-520.2" font-family="Times,serif" font-size="14.00" fill="#000000">GO:0016787</text>
<text text-anchor="middle" x="390.3731" y="-503.4" font-family="Times,serif" font-size="14.00" fill="#000000">hydrolase activity</text>
</g>
<!-- GO:0016817&#45;&gt;GO:0016787 -->
<g id="edge12" class="edge">
<title>GO:0016817&#45;&gt;GO:0016787</title>
<path fill="none" stroke="#000000" d="M425.0244,-434.0165C418.3125,-449.8966 410.0206,-469.5148 403.2312,-485.5783"/>
<polygon fill="#000000" stroke="#000000" points="399.8949,-484.4819 399.2255,-495.0556 406.3426,-487.2071 399.8949,-484.4819"/>
</g>
<!-- GO:0022857 -->
<g id="node15" class="node">
<title>GO:0022857</title>
<polygon fill="#ffffff" stroke="#000000" points="314.8065,-545.4014 147.9397,-545.4014 147.9397,-486.5986 314.8065,-486.5986 314.8065,-545.4014"/>
<text text-anchor="middle" x="231.3731" y="-528.6" font-family="Times,serif" font-size="14.00" fill="#000000">GO:0022857</text>
<text text-anchor="middle" x="231.3731" y="-511.8" font-family="Times,serif" font-size="14.00" fill="#000000">transmembrane transporter</text>
<text text-anchor="middle" x="231.3731" y="-495" font-family="Times,serif" font-size="14.00" fill="#000000">activity</text>
</g>
<!-- GO:0022804&#45;&gt;GO:0022857 -->
<g id="edge13" class="edge">
<title>GO:0022804&#45;&gt;GO:0022857</title>
<path fill="none" stroke="#000000" d="M251.2792,-434.0165C248.1109,-447.0652 244.3297,-462.6379 240.9182,-476.6885"/>
<polygon fill="#000000" stroke="#000000" points="237.4718,-476.049 238.5134,-486.5926 244.2742,-477.7008 237.4718,-476.049"/>
</g>
<!-- GO:0015399&#45;&gt;GO:0022804 -->
<g id="edge14" class="edge">
<title>GO:0015399&#45;&gt;GO:0022804</title>
<path fill="none" stroke="#000000" d="M254.1408,-314.5119C254.8894,-330.4821 255.7619,-349.0954 256.5196,-365.2589"/>
<polygon fill="#000000" stroke="#000000" points="253.034,-365.6492 256.9985,-375.4744 260.0263,-365.3214 253.034,-365.6492"/>
</g>
<!-- GO:0017111 -->
<g id="node16" class="node">
<title>GO:0017111</title>
<polygon fill="#ffffff" stroke="#000000" points="1679.2692,-545.4014 1517.477,-545.4014 1517.477,-486.5986 1679.2692,-486.5986 1679.2692,-545.4014"/>
<text text-anchor="middle" x="1598.3731" y="-528.6" font-family="Times,serif" font-size="14.00" fill="#000000">GO:0017111</text>
<text text-anchor="middle" x="1598.3731" y="-511.8" font-family="Times,serif" font-size="14.00" fill="#000000">nucleoside&#45;triphosphatase</text>
<text text-anchor="middle" x="1598.3731" y="-495" font-family="Times,serif" font-size="14.00" fill="#000000">activity</text>
</g>
<!-- GO:0016887&#45;&gt;GO:0017111 -->
<g id="edge15" class="edge">
<title>GO:0016887&#45;&gt;GO:0017111</title>
<path fill="none" stroke="#000000" d="M1578.8311,-425.4553C1581.936,-439.8415 1586.1738,-459.4767 1589.9095,-476.7855"/>
<polygon fill="#000000" stroke="#000000" points="1586.5077,-477.6141 1592.0387,-486.6506 1593.3501,-476.1372 1586.5077,-477.6141"/>
</g>
<!-- GO:0003824 -->
<g id="node17" class="node">
<title>GO:0003824</title>
<polygon fill="#ff00ff" stroke="#000000" points="580.7855,-639.4019 471.9607,-639.4019 471.9607,-598.1981 580.7855,-598.1981 580.7855,-639.4019"/>
<text text-anchor="middle" x="526.3731" y="-623" font-family="Times,serif" font-size="14.00" fill="#000000">GO:0003824</text>
<text text-anchor="middle" x="526.3731" y="-606.2" font-family="Times,serif" font-size="14.00" fill="#000000">catalytic activity</text>
</g>
<!-- GO:0016787&#45;&gt;GO:0003824 -->
<g id="edge16" class="edge">
<title>GO:0016787&#45;&gt;GO:0003824</title>
<path fill="none" stroke="#000000" d="M417.8947,-536.8031C438.9094,-552.6877 468.0333,-574.702 490.8135,-591.9211"/>
<polygon fill="#000000" stroke="#000000" points="488.8045,-594.7899 498.8924,-598.0278 493.0255,-589.2057 488.8045,-594.7899"/>
</g>
<!-- GO:0005215 -->
<g id="node18" class="node">
<title>GO:0005215</title>
<polygon fill="#ffffff" stroke="#000000" points="373.5016,-639.4019 251.2446,-639.4019 251.2446,-598.1981 373.5016,-598.1981 373.5016,-639.4019"/>
<text text-anchor="middle" x="312.3731" y="-623" font-family="Times,serif" font-size="14.00" fill="#000000">GO:0005215</text>
<text text-anchor="middle" x="312.3731" y="-606.2" font-family="Times,serif" font-size="14.00" fill="#000000">transporter activity</text>
</g>
<!-- GO:0022857&#45;&gt;GO:0005215 -->
<g id="edge17" class="edge">
<title>GO:0022857&#45;&gt;GO:0005215</title>
<path fill="none" stroke="#000000" d="M254.5844,-545.4584C265.5792,-559.4121 278.6666,-576.0219 289.6042,-589.9032"/>
<polygon fill="#000000" stroke="#000000" points="287.1606,-592.4571 296.0987,-598.1456 292.6589,-588.1248 287.1606,-592.4571"/>
</g>
<!-- GO:0016462 -->
<g id="node19" class="node">
<title>GO:0016462</title>
<polygon fill="#ffffff" stroke="#000000" points="1675.9495,-639.4019 1520.7967,-639.4019 1520.7967,-598.1981 1675.9495,-598.1981 1675.9495,-639.4019"/>
<text text-anchor="middle" x="1598.3731" y="-623" font-family="Times,serif" font-size="14.00" fill="#000000">GO:0016462</text>
<text text-anchor="middle" x="1598.3731" y="-606.2" font-family="Times,serif" font-size="14.00" fill="#000000">pyrophosphatase activity</text>
</g>
<!-- GO:0017111&#45;&gt;GO:0016462 -->
<g id="edge18" class="edge">
<title>GO:0017111&#45;&gt;GO:0016462</title>
<path fill="none" stroke="#000000" d="M1598.3731,-545.4584C1598.3731,-558.7539 1598.3731,-574.4608 1598.3731,-587.9212"/>
<polygon fill="#000000" stroke="#000000" points="1594.8732,-588.1456 1598.3731,-598.1456 1601.8732,-588.1457 1594.8732,-588.1456"/>
</g>
<!-- GO:0003824&#45;&gt;GO:0003674 -->
<g id="edge19" class="edge">
<title>GO:0003824&#45;&gt;GO:0003674</title>
<path fill="none" stroke="#000000" d="M539.2629,-639.6327C551.0749,-658.7234 568.6934,-687.1988 581.9822,-708.6763"/>
<polygon fill="#000000" stroke="#000000" points="579.1447,-710.7424 587.3827,-717.4047 585.0974,-707.0593 579.1447,-710.7424"/>
</g>
<!-- GO:0005215&#45;&gt;GO:0003674 -->
<g id="edge20" class="edge">
<title>GO:0005215&#45;&gt;GO:0003674</title>
<path fill="none" stroke="#000000" d="M362.2101,-639.4962C412.0254,-660.1834 488.6134,-691.9887 541.4206,-713.9183"/>
<polygon fill="#000000" stroke="#000000" points="540.0867,-717.1541 550.6643,-717.7571 542.7714,-710.6894 540.0867,-717.1541"/>
</g>
<!-- GO:0016818 -->
<g id="node20" class="node">
<title>GO:0016818</title>
<polygon fill="#ffffff" stroke="#000000" points="1670.6848,-792.7002 1526.0614,-792.7002 1526.0614,-684.0998 1670.6848,-684.0998 1670.6848,-792.7002"/>
<text text-anchor="middle" x="1598.3731" y="-776.2" font-family="Times,serif" font-size="14.00" fill="#000000">GO:0016818</text>
<text text-anchor="middle" x="1598.3731" y="-759.4" font-family="Times,serif" font-size="14.00" fill="#000000">hydrolase activity,</text>
<text text-anchor="middle" x="1598.3731" y="-742.6" font-family="Times,serif" font-size="14.00" fill="#000000">acting on acid</text>
<text text-anchor="middle" x="1598.3731" y="-725.8" font-family="Times,serif" font-size="14.00" fill="#000000">anhydrides, in</text>
<text text-anchor="middle" x="1598.3731" y="-709" font-family="Times,serif" font-size="14.00" fill="#000000">phosphorus&#45;containing</text>
<text text-anchor="middle" x="1598.3731" y="-692.2" font-family="Times,serif" font-size="14.00" fill="#000000">anhydrides</text>
</g>
<!-- GO:0016462&#45;&gt;GO:0016818 -->
<g id="edge21" class="edge">
<title>GO:0016462&#45;&gt;GO:0016818</title>
<path fill="none" stroke="#000000" d="M1598.3731,-639.6327C1598.3731,-649.2534 1598.3731,-661.2573 1598.3731,-673.548"/>
<polygon fill="#000000" stroke="#000000" points="1594.8732,-673.8935 1598.3731,-683.8935 1601.8732,-673.8935 1594.8732,-673.8935"/>
</g>
<!-- GO:0051539 -->
<g id="node21" class="node">
<title>GO:0051539</title>
<polygon fill="#ffffff" stroke="#000000" points="1141.3963,-306.2014 1001.3499,-306.2014 1001.3499,-247.3986 1141.3963,-247.3986 1141.3963,-306.2014"/>
<text text-anchor="middle" x="1071.3731" y="-289.4" font-family="Times,serif" font-size="14.00" fill="#000000">GO:0051539</text>
<text text-anchor="middle" x="1071.3731" y="-272.6" font-family="Times,serif" font-size="14.00" fill="#000000">4 iron, 4 sulfur cluster</text>
<text text-anchor="middle" x="1071.3731" y="-255.8" font-family="Times,serif" font-size="14.00" fill="#000000">binding</text>
</g>
<!-- GO:0051536 -->
<g id="node22" class="node">
<title>GO:0051536</title>
<polygon fill="#ffffff" stroke="#000000" points="1129.5573,-434.2014 1013.1889,-434.2014 1013.1889,-375.3986 1129.5573,-375.3986 1129.5573,-434.2014"/>
<text text-anchor="middle" x="1071.3731" y="-417.4" font-family="Times,serif" font-size="14.00" fill="#000000">GO:0051536</text>
<text text-anchor="middle" x="1071.3731" y="-400.6" font-family="Times,serif" font-size="14.00" fill="#000000">iron&#45;sulfur cluster</text>
<text text-anchor="middle" x="1071.3731" y="-383.8" font-family="Times,serif" font-size="14.00" fill="#000000">binding</text>
</g>
<!-- GO:0051539&#45;&gt;GO:0051536 -->
<g id="edge22" class="edge">
<title>GO:0051539&#45;&gt;GO:0051536</title>
<path fill="none" stroke="#000000" d="M1071.3731,-306.1658C1071.3731,-323.7276 1071.3731,-346.2684 1071.3731,-365.3677"/>
<polygon fill="#000000" stroke="#000000" points="1067.8732,-365.5708 1071.3731,-375.5709 1074.8732,-365.5709 1067.8732,-365.5708"/>
</g>
<!-- GO:0051540 -->
<g id="node23" class="node">
<title>GO:0051540</title>
<polygon fill="#ffffff" stroke="#000000" points="1121.571,-536.6019 987.1752,-536.6019 987.1752,-495.3981 1121.571,-495.3981 1121.571,-536.6019"/>
<text text-anchor="middle" x="1054.3731" y="-520.2" font-family="Times,serif" font-size="14.00" fill="#000000">GO:0051540</text>
<text text-anchor="middle" x="1054.3731" y="-503.4" font-family="Times,serif" font-size="14.00" fill="#000000">metal cluster binding</text>
</g>
<!-- GO:0051536&#45;&gt;GO:0051540 -->
<g id="edge23" class="edge">
<title>GO:0051536&#45;&gt;GO:0051540</title>
<path fill="none" stroke="#000000" d="M1066.9066,-434.0165C1064.5017,-449.7468 1061.5362,-469.1449 1059.0935,-485.1227"/>
<polygon fill="#000000" stroke="#000000" points="1055.6265,-484.6414 1057.575,-495.0556 1062.5461,-485.6994 1055.6265,-484.6414"/>
</g>
<!-- GO:0005488 -->
<g id="node24" class="node">
<title>GO:0005488</title>
<polygon fill="#ffffff" stroke="#000000" points="1098.977,-639.4019 1009.7692,-639.4019 1009.7692,-598.1981 1098.977,-598.1981 1098.977,-639.4019"/>
<text text-anchor="middle" x="1054.3731" y="-623" font-family="Times,serif" font-size="14.00" fill="#000000">GO:0005488</text>
<text text-anchor="middle" x="1054.3731" y="-606.2" font-family="Times,serif" font-size="14.00" fill="#000000">binding</text>
</g>
<!-- GO:0051540&#45;&gt;GO:0005488 -->
<g id="edge24" class="edge">
<title>GO:0051540&#45;&gt;GO:0005488</title>
<path fill="none" stroke="#000000" d="M1054.3731,-536.8031C1054.3731,-551.4337 1054.3731,-571.2642 1054.3731,-587.7586"/>
<polygon fill="#000000" stroke="#000000" points="1050.8732,-588.0278 1054.3731,-598.0278 1057.8732,-588.0279 1050.8732,-588.0278"/>
</g>
<!-- GO:0005488&#45;&gt;GO:0003674 -->
<g id="edge25" class="edge">
<title>GO:0005488&#45;&gt;GO:0003674</title>
<path fill="none" stroke="#000000" d="M1009.5993,-630.595C931.0617,-651.2847 767.8209,-694.2882 672.9646,-719.2768"/>
<polygon fill="#000000" stroke="#000000" points="671.936,-715.9282 663.1576,-721.8603 673.7193,-722.6973 671.936,-715.9282"/>
</g>
<!-- GO:1901618 -->
<g id="node25" class="node">
<title>GO:1901618</title>
<polygon fill="#ffffff" stroke="#000000" points="170.6195,-442.5003 .1267,-442.5003 .1267,-367.0997 170.6195,-367.0997 170.6195,-442.5003"/>
<text text-anchor="middle" x="85.3731" y="-425.8" font-family="Times,serif" font-size="14.00" fill="#000000">GO:1901618</text>
<text text-anchor="middle" x="85.3731" y="-409" font-family="Times,serif" font-size="14.00" fill="#000000">organic hydroxy compound</text>
<text text-anchor="middle" x="85.3731" y="-392.2" font-family="Times,serif" font-size="14.00" fill="#000000">transmembrane transporter</text>
<text text-anchor="middle" x="85.3731" y="-375.4" font-family="Times,serif" font-size="14.00" fill="#000000">activity</text>
</g>
<!-- GO:1901618&#45;&gt;GO:0022857 -->
<g id="edge26" class="edge">
<title>GO:1901618&#45;&gt;GO:0022857</title>
<path fill="none" stroke="#000000" d="M134.802,-442.4472C150.8638,-454.6806 168.631,-468.2129 184.5005,-480.2998"/>
<polygon fill="#000000" stroke="#000000" points="182.5311,-483.1994 192.6072,-486.4742 186.7725,-477.6306 182.5311,-483.1994"/>
</g>
<!-- GO:0016740 -->
<g id="node26" class="node">
<title>GO:0016740</title>
<polygon fill="#ffffff" stroke="#000000" points="588.4848,-536.6019 466.2614,-536.6019 466.2614,-495.3981 588.4848,-495.3981 588.4848,-536.6019"/>
<text text-anchor="middle" x="527.3731" y="-520.2" font-family="Times,serif" font-size="14.00" fill="#000000">GO:0016740</text>
<text text-anchor="middle" x="527.3731" y="-503.4" font-family="Times,serif" font-size="14.00" fill="#000000">transferase activity</text>
</g>
<!-- GO:0016740&#45;&gt;GO:0003824 -->
<g id="edge27" class="edge">
<title>GO:0016740&#45;&gt;GO:0003824</title>
<path fill="none" stroke="#000000" d="M527.1707,-536.8031C527.0284,-551.4337 526.8355,-571.2642 526.6751,-587.7586"/>
<polygon fill="#000000" stroke="#000000" points="523.1727,-587.9942 526.5752,-598.0278 530.1724,-588.0624 523.1727,-587.9942"/>
</g>
<!-- GO:0017076 -->
<g id="node27" class="node">
<title>GO:0017076</title>
<polygon fill="#ffffff" stroke="#000000" points="1313.2358,-169.4019 1153.5104,-169.4019 1153.5104,-128.1981 1313.2358,-128.1981 1313.2358,-169.4019"/>
<text text-anchor="middle" x="1233.3731" y="-153" font-family="Times,serif" font-size="14.00" fill="#000000">GO:0017076</text>
<text text-anchor="middle" x="1233.3731" y="-136.2" font-family="Times,serif" font-size="14.00" fill="#000000">purine nucleotide binding</text>
</g>
<!-- GO:0000166 -->
<g id="node28" class="node">
<title>GO:0000166</title>
<polygon fill="#ffffff" stroke="#000000" points="1293.4706,-297.4019 1173.2756,-297.4019 1173.2756,-256.1981 1293.4706,-256.1981 1293.4706,-297.4019"/>
<text text-anchor="middle" x="1233.3731" y="-281" font-family="Times,serif" font-size="14.00" fill="#000000">GO:0000166</text>
<text text-anchor="middle" x="1233.3731" y="-264.2" font-family="Times,serif" font-size="14.00" fill="#000000">nucleotide binding</text>
</g>
<!-- GO:0017076&#45;&gt;GO:0000166 -->
<g id="edge28" class="edge">
<title>GO:0017076&#45;&gt;GO:0000166</title>
<path fill="none" stroke="#000000" d="M1233.3731,-169.6503C1233.3731,-190.2914 1233.3731,-222.1413 1233.3731,-245.7573"/>
<polygon fill="#000000" stroke="#000000" points="1229.8732,-245.9586 1233.3731,-255.9586 1236.8732,-245.9587 1229.8732,-245.9586"/>
</g>
<!-- GO:0036094 -->
<g id="node29" class="node">
<title>GO:0036094</title>
<polygon fill="#ffffff" stroke="#000000" points="1295.3015,-425.4019 1147.4447,-425.4019 1147.4447,-384.1981 1295.3015,-384.1981 1295.3015,-425.4019"/>
<text text-anchor="middle" x="1221.3731" y="-409" font-family="Times,serif" font-size="14.00" fill="#000000">GO:0036094</text>
<text text-anchor="middle" x="1221.3731" y="-392.2" font-family="Times,serif" font-size="14.00" fill="#000000">small molecule binding</text>
</g>
<!-- GO:0000166&#45;&gt;GO:0036094 -->
<g id="edge29" class="edge">
<title>GO:0000166&#45;&gt;GO:0036094</title>
<path fill="none" stroke="#000000" d="M1231.4184,-297.6503C1229.4833,-318.2914 1226.4974,-350.1413 1224.2834,-373.7573"/>
<polygon fill="#000000" stroke="#000000" points="1220.7758,-373.6756 1223.327,-383.9586 1227.7452,-374.329 1220.7758,-373.6756"/>
</g>
<!-- GO:1901265 -->
<g id="node30" class="node">
<title>GO:1901265</title>
<polygon fill="#ffffff" stroke="#000000" points="1449.5072,-434.2014 1313.239,-434.2014 1313.239,-375.3986 1449.5072,-375.3986 1449.5072,-434.2014"/>
<text text-anchor="middle" x="1381.3731" y="-417.4" font-family="Times,serif" font-size="14.00" fill="#000000">GO:1901265</text>
<text text-anchor="middle" x="1381.3731" y="-400.6" font-family="Times,serif" font-size="14.00" fill="#000000">nucleoside phosphate</text>
<text text-anchor="middle" x="1381.3731" y="-383.8" font-family="Times,serif" font-size="14.00" fill="#000000">binding</text>
</g>
<!-- GO:0000166&#45;&gt;GO:1901265 -->
<g id="edge30" class="edge">
<title>GO:0000166&#45;&gt;GO:1901265</title>
<path fill="none" stroke="#000000" d="M1257.4812,-297.6503C1279.7718,-316.9286 1313.3674,-345.9843 1339.9532,-368.9774"/>
<polygon fill="#000000" stroke="#000000" points="1337.7505,-371.6998 1347.6037,-375.594 1342.3296,-366.4052 1337.7505,-371.6998"/>
</g>
<!-- GO:0036094&#45;&gt;GO:0005488 -->
<g id="edge31" class="edge">
<title>GO:0036094&#45;&gt;GO:0005488</title>
<path fill="none" stroke="#000000" d="M1205.1642,-425.4598C1194.1762,-439.8932 1179.6565,-459.8297 1168.3731,-478.4 1148.9281,-510.4027 1153.4747,-524.128 1130.3731,-553.6 1119.4489,-567.5366 1105.186,-580.7049 1091.9707,-591.51"/>
<polygon fill="#000000" stroke="#000000" points="1089.563,-588.9529 1083.9169,-597.918 1093.9213,-594.4306 1089.563,-588.9529"/>
</g>
<!-- GO:0097159 -->
<g id="node31" class="node">
<title>GO:0097159</title>
<polygon fill="#ffffff" stroke="#000000" points="1499.8845,-545.4014 1342.8617,-545.4014 1342.8617,-486.5986 1499.8845,-486.5986 1499.8845,-545.4014"/>
<text text-anchor="middle" x="1421.3731" y="-528.6" font-family="Times,serif" font-size="14.00" fill="#000000">GO:0097159</text>
<text text-anchor="middle" x="1421.3731" y="-511.8" font-family="Times,serif" font-size="14.00" fill="#000000">organic cyclic compound</text>
<text text-anchor="middle" x="1421.3731" y="-495" font-family="Times,serif" font-size="14.00" fill="#000000">binding</text>
</g>
<!-- GO:1901265&#45;&gt;GO:0097159 -->
<g id="edge32" class="edge">
<title>GO:1901265&#45;&gt;GO:0097159</title>
<path fill="none" stroke="#000000" d="M1391.8826,-434.0165C1396.622,-447.1919 1402.287,-462.9405 1407.3793,-477.0973"/>
<polygon fill="#000000" stroke="#000000" points="1404.1166,-478.3675 1410.7949,-486.5926 1410.7034,-475.9981 1404.1166,-478.3675"/>
</g>
<!-- GO:1901363 -->
<g id="node32" class="node">
<title>GO:1901363</title>
<polygon fill="#ffffff" stroke="#000000" points="1324.8837,-545.4014 1177.8625,-545.4014 1177.8625,-486.5986 1324.8837,-486.5986 1324.8837,-545.4014"/>
<text text-anchor="middle" x="1251.3731" y="-528.6" font-family="Times,serif" font-size="14.00" fill="#000000">GO:1901363</text>
<text text-anchor="middle" x="1251.3731" y="-511.8" font-family="Times,serif" font-size="14.00" fill="#000000">heterocyclic compound</text>
<text text-anchor="middle" x="1251.3731" y="-495" font-family="Times,serif" font-size="14.00" fill="#000000">binding</text>
</g>
<!-- GO:1901265&#45;&gt;GO:1901363 -->
<g id="edge33" class="edge">
<title>GO:1901265&#45;&gt;GO:1901363</title>
<path fill="none" stroke="#000000" d="M1347.2171,-434.0165C1330.7775,-448.0787 1310.911,-465.0722 1293.5378,-479.9329"/>
<polygon fill="#000000" stroke="#000000" points="1291.0764,-477.4326 1285.7523,-486.5926 1295.6266,-482.752 1291.0764,-477.4326"/>
</g>
<!-- GO:0097159&#45;&gt;GO:0005488 -->
<g id="edge34" class="edge">
<title>GO:0097159&#45;&gt;GO:0005488</title>
<path fill="none" stroke="#000000" d="M1357.2579,-545.234C1349.6212,-548.2608 1341.8743,-551.1278 1334.3731,-553.6 1257.6807,-578.8755 1166.0934,-598.2445 1109.0682,-609.0776"/>
<polygon fill="#000000" stroke="#000000" points="1108.3624,-605.6489 1099.1811,-610.936 1109.6555,-612.5284 1108.3624,-605.6489"/>
</g>
<!-- GO:1901363&#45;&gt;GO:0005488 -->
<g id="edge35" class="edge">
<title>GO:1901363&#45;&gt;GO:0005488</title>
<path fill="none" stroke="#000000" d="M1195.1844,-545.3208C1166.1665,-560.4631 1131.0997,-578.762 1103.2197,-593.3105"/>
<polygon fill="#000000" stroke="#000000" points="1101.3057,-590.3614 1094.0594,-598.0906 1104.5441,-596.5672 1101.3057,-590.3614"/>
</g>
<!-- GO:0046872 -->
<g id="node33" class="node">
<title>GO:0046872</title>
<polygon fill="#ffffff" stroke="#000000" points="832.6461,-297.4019 718.1001,-297.4019 718.1001,-256.1981 832.6461,-256.1981 832.6461,-297.4019"/>
<text text-anchor="middle" x="775.3731" y="-281" font-family="Times,serif" font-size="14.00" fill="#000000">GO:0046872</text>
<text text-anchor="middle" x="775.3731" y="-264.2" font-family="Times,serif" font-size="14.00" fill="#000000">metal ion binding</text>
</g>
<!-- GO:0043169 -->
<g id="node34" class="node">
<title>GO:0043169</title>
<polygon fill="#ffffff" stroke="#000000" points="823.866,-425.4019 726.8802,-425.4019 726.8802,-384.1981 823.866,-384.1981 823.866,-425.4019"/>
<text text-anchor="middle" x="775.3731" y="-409" font-family="Times,serif" font-size="14.00" fill="#000000">GO:0043169</text>
<text text-anchor="middle" x="775.3731" y="-392.2" font-family="Times,serif" font-size="14.00" fill="#000000">cation binding</text>
</g>
<!-- GO:0046872&#45;&gt;GO:0043169 -->
<g id="edge36" class="edge">
<title>GO:0046872&#45;&gt;GO:0043169</title>
<path fill="none" stroke="#000000" d="M775.3731,-297.6503C775.3731,-318.2914 775.3731,-350.1413 775.3731,-373.7573"/>
<polygon fill="#000000" stroke="#000000" points="771.8732,-373.9586 775.3731,-383.9586 778.8732,-373.9587 771.8732,-373.9586"/>
</g>
<!-- GO:0043167 -->
<g id="node35" class="node">
<title>GO:0043167</title>
<polygon fill="#ffffff" stroke="#000000" points="848.977,-536.6019 759.7692,-536.6019 759.7692,-495.3981 848.977,-495.3981 848.977,-536.6019"/>
<text text-anchor="middle" x="804.3731" y="-520.2" font-family="Times,serif" font-size="14.00" fill="#000000">GO:0043167</text>
<text text-anchor="middle" x="804.3731" y="-503.4" font-family="Times,serif" font-size="14.00" fill="#000000">ion binding</text>
</g>
<!-- GO:0043169&#45;&gt;GO:0043167 -->
<g id="edge37" class="edge">
<title>GO:0043169&#45;&gt;GO:0043167</title>
<path fill="none" stroke="#000000" d="M780.7598,-425.4553C785.1474,-442.2792 791.407,-466.2819 796.3791,-485.3473"/>
<polygon fill="#000000" stroke="#000000" points="793.0065,-486.2849 798.9168,-495.078 799.78,-484.5184 793.0065,-486.2849"/>
</g>
<!-- GO:0043167&#45;&gt;GO:0005488 -->
<g id="edge38" class="edge">
<title>GO:0043167&#45;&gt;GO:0005488</title>
<path fill="none" stroke="#000000" d="M830.8957,-536.7233C839.3611,-542.7094 848.9777,-548.8901 858.3731,-553.6 904.0339,-576.4897 959.5569,-594.0916 999.8341,-605.2041"/>
<polygon fill="#000000" stroke="#000000" points="999.1628,-608.6484 1009.7304,-607.8888 1000.9956,-601.8926 999.1628,-608.6484"/>
</g>
<!-- GO:0042802 -->
<g id="node36" class="node">
<title>GO:0042802</title>
<polygon fill="#ffffff" stroke="#000000" points="995.0173,-425.4019 841.7289,-425.4019 841.7289,-384.1981 995.0173,-384.1981 995.0173,-425.4019"/>
<text text-anchor="middle" x="918.3731" y="-409" font-family="Times,serif" font-size="14.00" fill="#000000">GO:0042802</text>
<text text-anchor="middle" x="918.3731" y="-392.2" font-family="Times,serif" font-size="14.00" fill="#000000">identical protein binding</text>
</g>
<!-- GO:0005515 -->
<g id="node37" class="node">
<title>GO:0005515</title>
<polygon fill="#ffffff" stroke="#000000" points="969.3107,-536.6019 867.4355,-536.6019 867.4355,-495.3981 969.3107,-495.3981 969.3107,-536.6019"/>
<text text-anchor="middle" x="918.3731" y="-520.2" font-family="Times,serif" font-size="14.00" fill="#000000">GO:0005515</text>
<text text-anchor="middle" x="918.3731" y="-503.4" font-family="Times,serif" font-size="14.00" fill="#000000">protein binding</text>
</g>
<!-- GO:0042802&#45;&gt;GO:0005515 -->
<g id="edge39" class="edge">
<title>GO:0042802&#45;&gt;GO:0005515</title>
<path fill="none" stroke="#000000" d="M918.3731,-425.4553C918.3731,-442.1242 918.3731,-465.8401 918.3731,-484.8189"/>
<polygon fill="#000000" stroke="#000000" points="914.8732,-485.078 918.3731,-495.078 921.8732,-485.078 914.8732,-485.078"/>
</g>
<!-- GO:0005515&#45;&gt;GO:0005488 -->
<g id="edge40" class="edge">
<title>GO:0005515&#45;&gt;GO:0005488</title>
<path fill="none" stroke="#000000" d="M945.8947,-536.8031C966.9094,-552.6877 996.0333,-574.702 1018.8135,-591.9211"/>
<polygon fill="#000000" stroke="#000000" points="1016.8045,-594.7899 1026.8924,-598.0278 1021.0255,-589.2057 1016.8045,-594.7899"/>
</g>
</g>
</svg>
