<?xml version="1.0" encoding="UTF-8" standalone="no"?>
<!DOCTYPE svg PUBLIC "-//W3C//DTD SVG 1.1//EN"
 "http://www.w3.org/Graphics/SVG/1.1/DTD/svg11.dtd">
<!-- Generated by graphviz version 2.40.1 (20161225.0304)
 -->
<!-- Title: G Pages: 1 -->
<svg width="1520pt" height="572pt"
 viewBox="0.00 0.00 1519.90 572.00" xmlns="http://www.w3.org/2000/svg" xmlns:xlink="http://www.w3.org/1999/xlink">
<g id="graph0" class="graph" transform="scale(1 1) rotate(0) translate(4 568)">
<title>G</title>
<polygon fill="#ffffff" stroke="transparent" points="-4,4 -4,-568 1515.9047,-568 1515.9047,4 -4,4"/>
<!-- GO:0060059 -->
<g id="node1" class="node">
<title>GO:0060059</title>
<polygon fill="#ffffff" stroke="#000000" points="224.6697,-186.5003 61.2273,-186.5003 61.2273,-111.0997 224.6697,-111.0997 224.6697,-186.5003"/>
<text text-anchor="middle" x="142.9485" y="-169.8" font-family="Times,serif" font-size="14.00" fill="#000000">GO:0060059</text>
<text text-anchor="middle" x="142.9485" y="-153" font-family="Times,serif" font-size="14.00" fill="#000000">embryonic retina</text>
<text text-anchor="middle" x="142.9485" y="-136.2" font-family="Times,serif" font-size="14.00" fill="#000000">morphogenesis in camera&#45;</text>
<text text-anchor="middle" x="142.9485" y="-119.4" font-family="Times,serif" font-size="14.00" fill="#000000">type eye</text>
</g>
<!-- GO:0048598 -->
<g id="node2" class="node">
<title>GO:0048598</title>
<polygon fill="#ffffff" stroke="#000000" points="225.0798,-272.2019 60.8172,-272.2019 60.8172,-230.9981 225.0798,-230.9981 225.0798,-272.2019"/>
<text text-anchor="middle" x="142.9485" y="-255.8" font-family="Times,serif" font-size="14.00" fill="#000000">GO:0048598</text>
<text text-anchor="middle" x="142.9485" y="-239" font-family="Times,serif" font-size="14.00" fill="#000000">embryonic morphogenesis</text>
</g>
<!-- GO:0060059&#45;&gt;GO:0048598 -->
<g id="edge1" class="edge">
<title>GO:0060059&#45;&gt;GO:0048598</title>
<path fill="none" stroke="#000000" d="M142.9485,-186.4952C142.9485,-197.7552 142.9485,-209.9618 142.9485,-220.7299"/>
<polygon fill="#000000" stroke="#000000" points="139.4486,-220.9302 142.9485,-230.9302 146.4486,-220.9302 139.4486,-220.9302"/>
</g>
<!-- GO:0044767 -->
<g id="node3" class="node">
<title>GO:0044767</title>
<polygon fill="#ffffff" stroke="#000000" points="291.8483,-375.4014 148.0487,-375.4014 148.0487,-316.5986 291.8483,-316.5986 291.8483,-375.4014"/>
<text text-anchor="middle" x="219.9485" y="-358.6" font-family="Times,serif" font-size="14.00" fill="#000000">GO:0044767</text>
<text text-anchor="middle" x="219.9485" y="-341.8" font-family="Times,serif" font-size="14.00" fill="#000000">single&#45;organism</text>
<text text-anchor="middle" x="219.9485" y="-325" font-family="Times,serif" font-size="14.00" fill="#000000">developmental process</text>
</g>
<!-- GO:0048598&#45;&gt;GO:0044767 -->
<g id="edge2" class="edge">
<title>GO:0048598&#45;&gt;GO:0044767</title>
<path fill="none" stroke="#000000" d="M160.0373,-272.5504C168.6874,-283.1552 179.4519,-296.3522 189.4605,-308.6225"/>
<polygon fill="#000000" stroke="#000000" points="186.8657,-310.9787 195.8987,-316.5155 192.2901,-306.5541 186.8657,-310.9787"/>
</g>
<!-- GO:0009653 -->
<g id="node4" class="node">
<title>GO:0009653</title>
<polygon fill="#ffffff" stroke="#000000" points="129.8455,-375.4014 .0515,-375.4014 .0515,-316.5986 129.8455,-316.5986 129.8455,-375.4014"/>
<text text-anchor="middle" x="64.9485" y="-358.6" font-family="Times,serif" font-size="14.00" fill="#000000">GO:0009653</text>
<text text-anchor="middle" x="64.9485" y="-341.8" font-family="Times,serif" font-size="14.00" fill="#000000">anatomical structure</text>
<text text-anchor="middle" x="64.9485" y="-325" font-family="Times,serif" font-size="14.00" fill="#000000">morphogenesis</text>
</g>
<!-- GO:0048598&#45;&gt;GO:0009653 -->
<g id="edge3" class="edge">
<title>GO:0048598&#45;&gt;GO:0009653</title>
<path fill="none" stroke="#000000" d="M125.6378,-272.5504C116.8753,-283.1552 105.971,-296.3522 95.8324,-308.6225"/>
<polygon fill="#000000" stroke="#000000" points="92.9822,-306.5772 89.3107,-316.5155 98.3785,-311.036 92.9822,-306.5772"/>
</g>
<!-- GO:0032502 -->
<g id="node5" class="node">
<title>GO:0032502</title>
<polygon fill="#ffffff" stroke="#000000" points="291.8483,-469.4019 148.0487,-469.4019 148.0487,-428.1981 291.8483,-428.1981 291.8483,-469.4019"/>
<text text-anchor="middle" x="219.9485" y="-453" font-family="Times,serif" font-size="14.00" fill="#000000">GO:0032502</text>
<text text-anchor="middle" x="219.9485" y="-436.2" font-family="Times,serif" font-size="14.00" fill="#000000">developmental process</text>
</g>
<!-- GO:0044767&#45;&gt;GO:0032502 -->
<g id="edge4" class="edge">
<title>GO:0044767&#45;&gt;GO:0032502</title>
<path fill="none" stroke="#000000" d="M219.9485,-375.4584C219.9485,-388.7539 219.9485,-404.4608 219.9485,-417.9212"/>
<polygon fill="#000000" stroke="#000000" points="216.4486,-418.1456 219.9485,-428.1456 223.4486,-418.1457 216.4486,-418.1456"/>
</g>
<!-- GO:0044699 -->
<g id="node6" class="node">
<title>GO:0044699</title>
<polygon fill="#ffffff" stroke="#000000" points="562.6298,-469.4019 411.2672,-469.4019 411.2672,-428.1981 562.6298,-428.1981 562.6298,-469.4019"/>
<text text-anchor="middle" x="486.9485" y="-453" font-family="Times,serif" font-size="14.00" fill="#000000">GO:0044699</text>
<text text-anchor="middle" x="486.9485" y="-436.2" font-family="Times,serif" font-size="14.00" fill="#000000">single&#45;organism process</text>
</g>
<!-- GO:0044767&#45;&gt;GO:0044699 -->
<g id="edge5" class="edge">
<title>GO:0044767&#45;&gt;GO:0044699</title>
<path fill="none" stroke="#000000" d="M291.8508,-373.6837C332.9457,-389.5061 384.0145,-409.1685 423.594,-424.4073"/>
<polygon fill="#000000" stroke="#000000" points="422.5481,-427.7551 433.1379,-428.0819 425.0633,-421.2225 422.5481,-427.7551"/>
</g>
<!-- GO:0009653&#45;&gt;GO:0032502 -->
<g id="edge6" class="edge">
<title>GO:0009653&#45;&gt;GO:0032502</title>
<path fill="none" stroke="#000000" d="M109.3653,-375.4584C131.7939,-390.3336 158.7735,-408.2272 180.4688,-422.6161"/>
<polygon fill="#000000" stroke="#000000" points="178.538,-425.5353 188.8062,-428.1456 182.407,-419.7017 178.538,-425.5353"/>
</g>
<!-- GO:0008150 -->
<g id="node7" class="node">
<title>GO:0008150</title>
<polygon fill="#ffffff" stroke="#000000" points="794.4191,-563.8019 673.4779,-563.8019 673.4779,-522.5981 794.4191,-522.5981 794.4191,-563.8019"/>
<text text-anchor="middle" x="733.9485" y="-547.4" font-family="Times,serif" font-size="14.00" fill="#000000">GO:0008150</text>
<text text-anchor="middle" x="733.9485" y="-530.6" font-family="Times,serif" font-size="14.00" fill="#000000">biological_process</text>
</g>
<!-- GO:0032502&#45;&gt;GO:0008150 -->
<g id="edge7" class="edge">
<title>GO:0032502&#45;&gt;GO:0008150</title>
<path fill="none" stroke="#000000" d="M292.0195,-464.282C325.4097,-471.3024 365.6469,-479.5469 401.9485,-486.4 491.8571,-503.3731 595.8856,-520.8169 663.1869,-531.8154"/>
<polygon fill="#000000" stroke="#000000" points="662.8213,-535.3019 673.2543,-533.4573 663.9481,-528.3932 662.8213,-535.3019"/>
</g>
<!-- GO:0044699&#45;&gt;GO:0008150 -->
<g id="edge8" class="edge">
<title>GO:0044699&#45;&gt;GO:0008150</title>
<path fill="none" stroke="#000000" d="M541.1537,-469.5165C579.2797,-484.0877 630.4329,-503.6377 670.4679,-518.9386"/>
<polygon fill="#000000" stroke="#000000" points="669.2792,-522.2311 679.8697,-522.5318 671.7782,-515.6924 669.2792,-522.2311"/>
</g>
<!-- GO:0006720 -->
<g id="node8" class="node">
<title>GO:0006720</title>
<polygon fill="#ffffff" stroke="#000000" points="1066.7558,-67.0014 933.1412,-67.0014 933.1412,-8.1986 1066.7558,-8.1986 1066.7558,-67.0014"/>
<text text-anchor="middle" x="999.9485" y="-50.2" font-family="Times,serif" font-size="14.00" fill="#000000">GO:0006720</text>
<text text-anchor="middle" x="999.9485" y="-33.4" font-family="Times,serif" font-size="14.00" fill="#000000">isoprenoid metabolic</text>
<text text-anchor="middle" x="999.9485" y="-16.6" font-family="Times,serif" font-size="14.00" fill="#000000">process</text>
</g>
<!-- GO:0044255 -->
<g id="node9" class="node">
<title>GO:0044255</title>
<polygon fill="#ffffff" stroke="#000000" points="1072.8028,-178.2014 927.0942,-178.2014 927.0942,-119.3986 1072.8028,-119.3986 1072.8028,-178.2014"/>
<text text-anchor="middle" x="999.9485" y="-161.4" font-family="Times,serif" font-size="14.00" fill="#000000">GO:0044255</text>
<text text-anchor="middle" x="999.9485" y="-144.6" font-family="Times,serif" font-size="14.00" fill="#000000">cellular lipid metabolic</text>
<text text-anchor="middle" x="999.9485" y="-127.8" font-family="Times,serif" font-size="14.00" fill="#000000">process</text>
</g>
<!-- GO:0006720&#45;&gt;GO:0044255 -->
<g id="edge9" class="edge">
<title>GO:0006720&#45;&gt;GO:0044255</title>
<path fill="none" stroke="#000000" d="M999.9485,-66.8165C999.9485,-79.7386 999.9485,-95.1358 999.9485,-109.0788"/>
<polygon fill="#000000" stroke="#000000" points="996.4486,-109.3925 999.9485,-119.3926 1003.4486,-109.3926 996.4486,-109.3925"/>
</g>
<!-- GO:0044763 -->
<g id="node10" class="node">
<title>GO:0044763</title>
<polygon fill="#ffffff" stroke="#000000" points="1109.627,-375.4014 958.27,-375.4014 958.27,-316.5986 1109.627,-316.5986 1109.627,-375.4014"/>
<text text-anchor="middle" x="1033.9485" y="-358.6" font-family="Times,serif" font-size="14.00" fill="#000000">GO:0044763</text>
<text text-anchor="middle" x="1033.9485" y="-341.8" font-family="Times,serif" font-size="14.00" fill="#000000">single&#45;organism cellular</text>
<text text-anchor="middle" x="1033.9485" y="-325" font-family="Times,serif" font-size="14.00" fill="#000000">process</text>
</g>
<!-- GO:0044255&#45;&gt;GO:0044763 -->
<g id="edge10" class="edge">
<title>GO:0044255&#45;&gt;GO:0044763</title>
<path fill="none" stroke="#000000" d="M1003.4449,-178.0135C1006.8232,-204.8377 1012.3846,-245.6362 1018.9485,-280.8 1020.5264,-289.2528 1022.446,-298.2693 1024.3779,-306.8166"/>
<polygon fill="#000000" stroke="#000000" points="1020.9706,-307.6173 1026.6316,-316.5729 1027.791,-306.0417 1020.9706,-307.6173"/>
</g>
<!-- GO:0006629 -->
<g id="node11" class="node">
<title>GO:0006629</title>
<polygon fill="#ffffff" stroke="#000000" points="720.8056,-272.2019 575.0914,-272.2019 575.0914,-230.9981 720.8056,-230.9981 720.8056,-272.2019"/>
<text text-anchor="middle" x="647.9485" y="-255.8" font-family="Times,serif" font-size="14.00" fill="#000000">GO:0006629</text>
<text text-anchor="middle" x="647.9485" y="-239" font-family="Times,serif" font-size="14.00" fill="#000000">lipid metabolic process</text>
</g>
<!-- GO:0044255&#45;&gt;GO:0006629 -->
<g id="edge11" class="edge">
<title>GO:0044255&#45;&gt;GO:0006629</title>
<path fill="none" stroke="#000000" d="M927.0309,-167.074C872.4492,-181.14 796.1216,-201.6318 729.9485,-222.4 724.7218,-224.0404 719.3312,-225.8017 713.9278,-227.6168"/>
<polygon fill="#000000" stroke="#000000" points="712.5555,-224.3868 704.2207,-230.9275 714.8152,-231.012 712.5555,-224.3868"/>
</g>
<!-- GO:0044237 -->
<g id="node12" class="node">
<title>GO:0044237</title>
<polygon fill="#ffffff" stroke="#000000" points="1244.1313,-375.4014 1127.7657,-375.4014 1127.7657,-316.5986 1244.1313,-316.5986 1244.1313,-375.4014"/>
<text text-anchor="middle" x="1185.9485" y="-358.6" font-family="Times,serif" font-size="14.00" fill="#000000">GO:0044237</text>
<text text-anchor="middle" x="1185.9485" y="-341.8" font-family="Times,serif" font-size="14.00" fill="#000000">cellular metabolic</text>
<text text-anchor="middle" x="1185.9485" y="-325" font-family="Times,serif" font-size="14.00" fill="#000000">process</text>
</g>
<!-- GO:0044255&#45;&gt;GO:0044237 -->
<g id="edge12" class="edge">
<title>GO:0044255&#45;&gt;GO:0044237</title>
<path fill="none" stroke="#000000" d="M1072.9563,-163.9024C1106.6257,-174.6228 1144.1039,-192.6043 1166.9485,-222.4 1185.1991,-246.2039 1189.2844,-280.3145 1189.1784,-306.6739"/>
<polygon fill="#000000" stroke="#000000" points="1185.6784,-306.6381 1188.938,-316.719 1192.6764,-306.8057 1185.6784,-306.6381"/>
</g>
<!-- GO:0044763&#45;&gt;GO:0044699 -->
<g id="edge14" class="edge">
<title>GO:0044763&#45;&gt;GO:0044699</title>
<path fill="none" stroke="#000000" d="M958.1726,-372.8876C955.0709,-373.716 951.9878,-374.4918 948.9485,-375.2 825.8947,-403.8741 791.5527,-390.2659 666.9485,-411.2 636.117,-416.3798 602.5336,-423.0989 572.8155,-429.4216"/>
<polygon fill="#000000" stroke="#000000" points="571.9393,-426.0298 562.8949,-431.5478 573.4063,-432.8744 571.9393,-426.0298"/>
</g>
<!-- GO:0009987 -->
<g id="node13" class="node">
<title>GO:0009987</title>
<polygon fill="#ffffff" stroke="#000000" points="1237.9047,-469.4019 1133.9923,-469.4019 1133.9923,-428.1981 1237.9047,-428.1981 1237.9047,-469.4019"/>
<text text-anchor="middle" x="1185.9485" y="-453" font-family="Times,serif" font-size="14.00" fill="#000000">GO:0009987</text>
<text text-anchor="middle" x="1185.9485" y="-436.2" font-family="Times,serif" font-size="14.00" fill="#000000">cellular process</text>
</g>
<!-- GO:0044763&#45;&gt;GO:0009987 -->
<g id="edge13" class="edge">
<title>GO:0044763&#45;&gt;GO:0009987</title>
<path fill="none" stroke="#000000" d="M1077.5056,-375.4584C1099.4028,-390.2678 1125.7235,-408.0689 1146.9502,-422.4249"/>
<polygon fill="#000000" stroke="#000000" points="1145.1647,-425.4426 1155.409,-428.1456 1149.0863,-419.6442 1145.1647,-425.4426"/>
</g>
<!-- GO:0071704 -->
<g id="node14" class="node">
<title>GO:0071704</title>
<polygon fill="#ffffff" stroke="#000000" points="792.1341,-375.4014 675.7629,-375.4014 675.7629,-316.5986 792.1341,-316.5986 792.1341,-375.4014"/>
<text text-anchor="middle" x="733.9485" y="-358.6" font-family="Times,serif" font-size="14.00" fill="#000000">GO:0071704</text>
<text text-anchor="middle" x="733.9485" y="-341.8" font-family="Times,serif" font-size="14.00" fill="#000000">organic substance</text>
<text text-anchor="middle" x="733.9485" y="-325" font-family="Times,serif" font-size="14.00" fill="#000000">metabolic process</text>
</g>
<!-- GO:0006629&#45;&gt;GO:0071704 -->
<g id="edge15" class="edge">
<title>GO:0006629&#45;&gt;GO:0071704</title>
<path fill="none" stroke="#000000" d="M667.0347,-272.5504C676.7879,-283.2562 688.9478,-296.6038 700.2162,-308.9729"/>
<polygon fill="#000000" stroke="#000000" points="697.7658,-311.4803 707.0876,-316.5155 702.9404,-306.7661 697.7658,-311.4803"/>
</g>
<!-- GO:0044710 -->
<g id="node15" class="node">
<title>GO:0044710</title>
<polygon fill="#ffffff" stroke="#000000" points="474.3567,-375.4014 309.5403,-375.4014 309.5403,-316.5986 474.3567,-316.5986 474.3567,-375.4014"/>
<text text-anchor="middle" x="391.9485" y="-358.6" font-family="Times,serif" font-size="14.00" fill="#000000">GO:0044710</text>
<text text-anchor="middle" x="391.9485" y="-341.8" font-family="Times,serif" font-size="14.00" fill="#000000">single&#45;organism metabolic</text>
<text text-anchor="middle" x="391.9485" y="-325" font-family="Times,serif" font-size="14.00" fill="#000000">process</text>
</g>
<!-- GO:0006629&#45;&gt;GO:0044710 -->
<g id="edge16" class="edge">
<title>GO:0006629&#45;&gt;GO:0044710</title>
<path fill="none" stroke="#000000" d="M591.7682,-272.3165C559.3419,-284.2737 517.8237,-299.5835 481.0419,-313.1468"/>
<polygon fill="#000000" stroke="#000000" points="479.4761,-309.9937 471.3046,-316.7374 481.898,-316.5614 479.4761,-309.9937"/>
</g>
<!-- GO:0044238 -->
<g id="node16" class="node">
<title>GO:0044238</title>
<polygon fill="#ffffff" stroke="#000000" points="656.9515,-366.6019 492.9455,-366.6019 492.9455,-325.3981 656.9515,-325.3981 656.9515,-366.6019"/>
<text text-anchor="middle" x="574.9485" y="-350.2" font-family="Times,serif" font-size="14.00" fill="#000000">GO:0044238</text>
<text text-anchor="middle" x="574.9485" y="-333.4" font-family="Times,serif" font-size="14.00" fill="#000000">primary metabolic process</text>
</g>
<!-- GO:0006629&#45;&gt;GO:0044238 -->
<g id="edge17" class="edge">
<title>GO:0006629&#45;&gt;GO:0044238</title>
<path fill="none" stroke="#000000" d="M631.7474,-272.5504C621.6348,-285.6276 608.474,-302.6464 597.3676,-317.0087"/>
<polygon fill="#000000" stroke="#000000" points="594.4529,-315.0564 591.1043,-325.1081 599.9904,-319.3386 594.4529,-315.0564"/>
</g>
<!-- GO:0044237&#45;&gt;GO:0009987 -->
<g id="edge18" class="edge">
<title>GO:0044237&#45;&gt;GO:0009987</title>
<path fill="none" stroke="#000000" d="M1185.9485,-375.4584C1185.9485,-388.7539 1185.9485,-404.4608 1185.9485,-417.9212"/>
<polygon fill="#000000" stroke="#000000" points="1182.4486,-418.1456 1185.9485,-428.1456 1189.4486,-418.1457 1182.4486,-418.1456"/>
</g>
<!-- GO:0008152 -->
<g id="node17" class="node">
<title>GO:0008152</title>
<polygon fill="#ffffff" stroke="#000000" points="792.1341,-469.4019 675.7629,-469.4019 675.7629,-428.1981 792.1341,-428.1981 792.1341,-469.4019"/>
<text text-anchor="middle" x="733.9485" y="-453" font-family="Times,serif" font-size="14.00" fill="#000000">GO:0008152</text>
<text text-anchor="middle" x="733.9485" y="-436.2" font-family="Times,serif" font-size="14.00" fill="#000000">metabolic process</text>
</g>
<!-- GO:0044237&#45;&gt;GO:0008152 -->
<g id="edge19" class="edge">
<title>GO:0044237&#45;&gt;GO:0008152</title>
<path fill="none" stroke="#000000" d="M1127.4026,-372.3923C1124.5645,-373.3947 1121.7366,-374.3377 1118.9485,-375.2 1010.6876,-408.6825 880.3664,-429.7476 802.4926,-440.3826"/>
<polygon fill="#000000" stroke="#000000" points="801.7705,-436.9481 792.3274,-441.7521 802.7052,-443.8855 801.7705,-436.9481"/>
</g>
<!-- GO:0009987&#45;&gt;GO:0008150 -->
<g id="edge20" class="edge">
<title>GO:0009987&#45;&gt;GO:0008150</title>
<path fill="none" stroke="#000000" d="M1134.0984,-459.6289C1052.9651,-476.5735 895.8533,-509.3862 804.4939,-528.4666"/>
<polygon fill="#000000" stroke="#000000" points="803.5773,-525.0824 794.5041,-530.553 805.0084,-531.9346 803.5773,-525.0824"/>
</g>
<!-- GO:0071704&#45;&gt;GO:0008152 -->
<g id="edge21" class="edge">
<title>GO:0071704&#45;&gt;GO:0008152</title>
<path fill="none" stroke="#000000" d="M733.9485,-375.4584C733.9485,-388.7539 733.9485,-404.4608 733.9485,-417.9212"/>
<polygon fill="#000000" stroke="#000000" points="730.4486,-418.1456 733.9485,-428.1456 737.4486,-418.1457 730.4486,-418.1456"/>
</g>
<!-- GO:0044710&#45;&gt;GO:0044699 -->
<g id="edge23" class="edge">
<title>GO:0044710&#45;&gt;GO:0044699</title>
<path fill="none" stroke="#000000" d="M419.1717,-375.4584C432.31,-389.6754 447.9963,-406.6496 460.9677,-420.686"/>
<polygon fill="#000000" stroke="#000000" points="458.5038,-423.1769 467.8613,-428.1456 463.6448,-418.426 458.5038,-423.1769"/>
</g>
<!-- GO:0044710&#45;&gt;GO:0008152 -->
<g id="edge22" class="edge">
<title>GO:0044710&#45;&gt;GO:0008152</title>
<path fill="none" stroke="#000000" d="M474.6749,-372.3469C477.8043,-373.3149 480.9038,-374.2688 483.9485,-375.2 545.3998,-393.9954 615.617,-414.5902 665.9577,-429.2022"/>
<polygon fill="#000000" stroke="#000000" points="665.1732,-432.6188 675.7524,-432.0425 667.1228,-425.8958 665.1732,-432.6188"/>
</g>
<!-- GO:0044238&#45;&gt;GO:0008152 -->
<g id="edge24" class="edge">
<title>GO:0044238&#45;&gt;GO:0008152</title>
<path fill="none" stroke="#000000" d="M607.1245,-366.8031C632.0164,-382.8967 666.6401,-405.2824 693.4225,-422.5983"/>
<polygon fill="#000000" stroke="#000000" points="691.5223,-425.5375 701.8203,-428.0278 695.323,-419.6591 691.5223,-425.5375"/>
</g>
<!-- GO:0008152&#45;&gt;GO:0008150 -->
<g id="edge25" class="edge">
<title>GO:0008152&#45;&gt;GO:0008150</title>
<path fill="none" stroke="#000000" d="M733.9485,-469.7504C733.9485,-482.2165 733.9485,-498.2645 733.9485,-512.1786"/>
<polygon fill="#000000" stroke="#000000" points="730.4486,-512.3081 733.9485,-522.3081 737.4486,-512.3082 730.4486,-512.3081"/>
</g>
<!-- GO:0016043 -->
<g id="node18" class="node">
<title>GO:0016043</title>
<polygon fill="#ffffff" stroke="#000000" points="1492.6355,-375.4014 1369.2615,-375.4014 1369.2615,-316.5986 1492.6355,-316.5986 1492.6355,-375.4014"/>
<text text-anchor="middle" x="1430.9485" y="-358.6" font-family="Times,serif" font-size="14.00" fill="#000000">GO:0016043</text>
<text text-anchor="middle" x="1430.9485" y="-341.8" font-family="Times,serif" font-size="14.00" fill="#000000">cellular component</text>
<text text-anchor="middle" x="1430.9485" y="-325" font-family="Times,serif" font-size="14.00" fill="#000000">organization</text>
</g>
<!-- GO:0016043&#45;&gt;GO:0009987 -->
<g id="edge26" class="edge">
<title>GO:0016043&#45;&gt;GO:0009987</title>
<path fill="none" stroke="#000000" d="M1369.1247,-371.9408C1330.9656,-387.952 1282.2977,-408.3726 1244.7191,-424.1403"/>
<polygon fill="#000000" stroke="#000000" points="1243.2843,-420.9467 1235.4173,-428.0433 1245.9927,-427.4015 1243.2843,-420.9467"/>
</g>
<!-- GO:0071840 -->
<g id="node19" class="node">
<title>GO:0071840</title>
<polygon fill="#ffffff" stroke="#000000" points="1435.6355,-486.5003 1312.2615,-486.5003 1312.2615,-411.0997 1435.6355,-411.0997 1435.6355,-486.5003"/>
<text text-anchor="middle" x="1373.9485" y="-469.8" font-family="Times,serif" font-size="14.00" fill="#000000">GO:0071840</text>
<text text-anchor="middle" x="1373.9485" y="-453" font-family="Times,serif" font-size="14.00" fill="#000000">cellular component</text>
<text text-anchor="middle" x="1373.9485" y="-436.2" font-family="Times,serif" font-size="14.00" fill="#000000">organization or</text>
<text text-anchor="middle" x="1373.9485" y="-419.4" font-family="Times,serif" font-size="14.00" fill="#000000">biogenesis</text>
</g>
<!-- GO:0016043&#45;&gt;GO:0071840 -->
<g id="edge27" class="edge">
<title>GO:0016043&#45;&gt;GO:0071840</title>
<path fill="none" stroke="#000000" d="M1414.6146,-375.4584C1410.0254,-383.735 1404.9181,-392.946 1399.9158,-401.9678"/>
<polygon fill="#000000" stroke="#000000" points="1396.7597,-400.4421 1394.9714,-410.885 1402.8816,-403.8366 1396.7597,-400.4421"/>
</g>
<!-- GO:0071840&#45;&gt;GO:0008150 -->
<g id="edge28" class="edge">
<title>GO:0071840&#45;&gt;GO:0008150</title>
<path fill="none" stroke="#000000" d="M1312.1676,-469.4856C1291.6142,-475.7224 1268.4747,-482.0576 1246.9485,-486.4 1090.8519,-517.889 904.2648,-533.0311 804.7406,-539.3476"/>
<polygon fill="#000000" stroke="#000000" points="804.2696,-535.87 794.5067,-539.9853 804.7051,-542.8565 804.2696,-535.87"/>
</g>
<!-- GO:0044249 -->
<g id="node20" class="node">
<title>GO:0044249</title>
<polygon fill="#ffffff" stroke="#000000" points="1157.8609,-281.0014 1028.0361,-281.0014 1028.0361,-222.1986 1157.8609,-222.1986 1157.8609,-281.0014"/>
<text text-anchor="middle" x="1092.9485" y="-264.2" font-family="Times,serif" font-size="14.00" fill="#000000">GO:0044249</text>
<text text-anchor="middle" x="1092.9485" y="-247.4" font-family="Times,serif" font-size="14.00" fill="#000000">cellular biosynthetic</text>
<text text-anchor="middle" x="1092.9485" y="-230.6" font-family="Times,serif" font-size="14.00" fill="#000000">process</text>
</g>
<!-- GO:0044249&#45;&gt;GO:0044237 -->
<g id="edge30" class="edge">
<title>GO:0044249&#45;&gt;GO:0044237</title>
<path fill="none" stroke="#000000" d="M1121.8645,-280.9513C1130.7,-289.9198 1140.5287,-299.8965 1149.7824,-309.2894"/>
<polygon fill="#000000" stroke="#000000" points="1147.539,-311.9995 1157.0504,-316.6669 1152.5256,-307.0868 1147.539,-311.9995"/>
</g>
<!-- GO:0009058 -->
<g id="node21" class="node">
<title>GO:0009058</title>
<polygon fill="#ffffff" stroke="#000000" points="939.8637,-366.6019 810.0333,-366.6019 810.0333,-325.3981 939.8637,-325.3981 939.8637,-366.6019"/>
<text text-anchor="middle" x="874.9485" y="-350.2" font-family="Times,serif" font-size="14.00" fill="#000000">GO:0009058</text>
<text text-anchor="middle" x="874.9485" y="-333.4" font-family="Times,serif" font-size="14.00" fill="#000000">biosynthetic process</text>
</g>
<!-- GO:0044249&#45;&gt;GO:0009058 -->
<g id="edge29" class="edge">
<title>GO:0044249&#45;&gt;GO:0009058</title>
<path fill="none" stroke="#000000" d="M1027.8366,-279.7952C997.3828,-292.9826 961.442,-308.5459 932.0613,-321.2686"/>
<polygon fill="#000000" stroke="#000000" points="930.5537,-318.1073 922.7679,-325.2929 933.3353,-324.5309 930.5537,-318.1073"/>
</g>
<!-- GO:0009058&#45;&gt;GO:0008152 -->
<g id="edge31" class="edge">
<title>GO:0009058&#45;&gt;GO:0008152</title>
<path fill="none" stroke="#000000" d="M846.415,-366.8031C824.6278,-382.6877 794.4331,-404.702 770.8154,-421.9211"/>
<polygon fill="#000000" stroke="#000000" points="768.458,-419.3084 762.4395,-428.0278 772.5819,-424.9647 768.458,-419.3084"/>
</g>
<!-- GO:0098792 -->
<g id="node22" class="node">
<title>GO:0098792</title>
<polygon fill="#ffffff" stroke="#000000" points="1341.5524,-169.4019 1252.3446,-169.4019 1252.3446,-128.1981 1341.5524,-128.1981 1341.5524,-169.4019"/>
<text text-anchor="middle" x="1296.9485" y="-153" font-family="Times,serif" font-size="14.00" fill="#000000">GO:0098792</text>
<text text-anchor="middle" x="1296.9485" y="-136.2" font-family="Times,serif" font-size="14.00" fill="#000000">xenophagy</text>
</g>
<!-- GO:0016236 -->
<g id="node23" class="node">
<title>GO:0016236</title>
<polygon fill="#ffffff" stroke="#000000" points="1351.7491,-272.2019 1242.1479,-272.2019 1242.1479,-230.9981 1351.7491,-230.9981 1351.7491,-272.2019"/>
<text text-anchor="middle" x="1296.9485" y="-255.8" font-family="Times,serif" font-size="14.00" fill="#000000">GO:0016236</text>
<text text-anchor="middle" x="1296.9485" y="-239" font-family="Times,serif" font-size="14.00" fill="#000000">macroautophagy</text>
</g>
<!-- GO:0098792&#45;&gt;GO:0016236 -->
<g id="edge32" class="edge">
<title>GO:0098792&#45;&gt;GO:0016236</title>
<path fill="none" stroke="#000000" d="M1296.9485,-169.6031C1296.9485,-184.2337 1296.9485,-204.0642 1296.9485,-220.5586"/>
<polygon fill="#000000" stroke="#000000" points="1293.4486,-220.8278 1296.9485,-230.8278 1300.4486,-220.8279 1293.4486,-220.8278"/>
</g>
<!-- GO:0006914 -->
<g id="node24" class="node">
<title>GO:0006914</title>
<polygon fill="#ffffff" stroke="#000000" points="1351.5524,-366.6019 1262.3446,-366.6019 1262.3446,-325.3981 1351.5524,-325.3981 1351.5524,-366.6019"/>
<text text-anchor="middle" x="1306.9485" y="-350.2" font-family="Times,serif" font-size="14.00" fill="#000000">GO:0006914</text>
<text text-anchor="middle" x="1306.9485" y="-333.4" font-family="Times,serif" font-size="14.00" fill="#000000">autophagy</text>
</g>
<!-- GO:0016236&#45;&gt;GO:0006914 -->
<g id="edge33" class="edge">
<title>GO:0016236&#45;&gt;GO:0006914</title>
<path fill="none" stroke="#000000" d="M1299.1678,-272.5504C1300.4884,-285.0165 1302.1884,-301.0645 1303.6623,-314.9786"/>
<polygon fill="#000000" stroke="#000000" points="1300.2013,-315.5325 1304.7354,-325.1081 1307.1624,-314.7951 1300.2013,-315.5325"/>
</g>
<!-- GO:0006914&#45;&gt;GO:0009987 -->
<g id="edge34" class="edge">
<title>GO:0006914&#45;&gt;GO:0009987</title>
<path fill="none" stroke="#000000" d="M1282.4623,-366.8031C1263.9295,-382.5484 1238.3078,-404.3162 1218.1207,-421.4669"/>
<polygon fill="#000000" stroke="#000000" points="1215.7531,-418.8858 1210.3982,-428.0278 1220.2854,-424.2205 1215.7531,-418.8858"/>
</g>
<!-- GO:0071786 -->
<g id="node25" class="node">
<title>GO:0071786</title>
<polygon fill="#ffffff" stroke="#000000" points="1511.8609,-75.3003 1368.0361,-75.3003 1368.0361,.1003 1511.8609,.1003 1511.8609,-75.3003"/>
<text text-anchor="middle" x="1439.9485" y="-58.6" font-family="Times,serif" font-size="14.00" fill="#000000">GO:0071786</text>
<text text-anchor="middle" x="1439.9485" y="-41.8" font-family="Times,serif" font-size="14.00" fill="#000000">endoplasmic reticulum</text>
<text text-anchor="middle" x="1439.9485" y="-25" font-family="Times,serif" font-size="14.00" fill="#000000">tubular network</text>
<text text-anchor="middle" x="1439.9485" y="-8.2" font-family="Times,serif" font-size="14.00" fill="#000000">organization</text>
</g>
<!-- GO:0007029 -->
<g id="node26" class="node">
<title>GO:0007029</title>
<polygon fill="#ffffff" stroke="#000000" points="1511.8609,-178.2014 1368.0361,-178.2014 1368.0361,-119.3986 1511.8609,-119.3986 1511.8609,-178.2014"/>
<text text-anchor="middle" x="1439.9485" y="-161.4" font-family="Times,serif" font-size="14.00" fill="#000000">GO:0007029</text>
<text text-anchor="middle" x="1439.9485" y="-144.6" font-family="Times,serif" font-size="14.00" fill="#000000">endoplasmic reticulum</text>
<text text-anchor="middle" x="1439.9485" y="-127.8" font-family="Times,serif" font-size="14.00" fill="#000000">organization</text>
</g>
<!-- GO:0071786&#45;&gt;GO:0007029 -->
<g id="edge35" class="edge">
<title>GO:0071786&#45;&gt;GO:0007029</title>
<path fill="none" stroke="#000000" d="M1439.9485,-75.2472C1439.9485,-86.1338 1439.9485,-98.049 1439.9485,-109.0589"/>
<polygon fill="#000000" stroke="#000000" points="1436.4486,-109.2741 1439.9485,-119.2742 1443.4486,-109.2742 1436.4486,-109.2741"/>
</g>
<!-- GO:0006996 -->
<g id="node27" class="node">
<title>GO:0006996</title>
<polygon fill="#ffffff" stroke="#000000" points="1510.511,-272.2019 1369.386,-272.2019 1369.386,-230.9981 1510.511,-230.9981 1510.511,-272.2019"/>
<text text-anchor="middle" x="1439.9485" y="-255.8" font-family="Times,serif" font-size="14.00" fill="#000000">GO:0006996</text>
<text text-anchor="middle" x="1439.9485" y="-239" font-family="Times,serif" font-size="14.00" fill="#000000">organelle organization</text>
</g>
<!-- GO:0007029&#45;&gt;GO:0006996 -->
<g id="edge36" class="edge">
<title>GO:0007029&#45;&gt;GO:0006996</title>
<path fill="none" stroke="#000000" d="M1439.9485,-178.2584C1439.9485,-191.5539 1439.9485,-207.2608 1439.9485,-220.7212"/>
<polygon fill="#000000" stroke="#000000" points="1436.4486,-220.9456 1439.9485,-230.9456 1443.4486,-220.9457 1436.4486,-220.9456"/>
</g>
<!-- GO:0006996&#45;&gt;GO:0016043 -->
<g id="edge37" class="edge">
<title>GO:0006996&#45;&gt;GO:0016043</title>
<path fill="none" stroke="#000000" d="M1437.9511,-272.5504C1436.9978,-282.5492 1435.8249,-294.8525 1434.7134,-306.5106"/>
<polygon fill="#000000" stroke="#000000" points="1431.2245,-306.2284 1433.7595,-316.5155 1438.1929,-306.8929 1431.2245,-306.2284"/>
</g>
<!-- GO:0008610 -->
<g id="node28" class="node">
<title>GO:0008610</title>
<polygon fill="#ffffff" stroke="#000000" points="704.5572,-178.2014 591.3398,-178.2014 591.3398,-119.3986 704.5572,-119.3986 704.5572,-178.2014"/>
<text text-anchor="middle" x="647.9485" y="-161.4" font-family="Times,serif" font-size="14.00" fill="#000000">GO:0008610</text>
<text text-anchor="middle" x="647.9485" y="-144.6" font-family="Times,serif" font-size="14.00" fill="#000000">lipid biosynthetic</text>
<text text-anchor="middle" x="647.9485" y="-127.8" font-family="Times,serif" font-size="14.00" fill="#000000">process</text>
</g>
<!-- GO:0008610&#45;&gt;GO:0006629 -->
<g id="edge40" class="edge">
<title>GO:0008610&#45;&gt;GO:0006629</title>
<path fill="none" stroke="#000000" d="M647.9485,-178.2584C647.9485,-191.5539 647.9485,-207.2608 647.9485,-220.7212"/>
<polygon fill="#000000" stroke="#000000" points="644.4486,-220.9456 647.9485,-230.9456 651.4486,-220.9457 644.4486,-220.9456"/>
</g>
<!-- GO:1901576 -->
<g id="node29" class="node">
<title>GO:1901576</title>
<polygon fill="#ffffff" stroke="#000000" points="868.8637,-281.0014 739.0333,-281.0014 739.0333,-222.1986 868.8637,-222.1986 868.8637,-281.0014"/>
<text text-anchor="middle" x="803.9485" y="-264.2" font-family="Times,serif" font-size="14.00" fill="#000000">GO:1901576</text>
<text text-anchor="middle" x="803.9485" y="-247.4" font-family="Times,serif" font-size="14.00" fill="#000000">organic substance</text>
<text text-anchor="middle" x="803.9485" y="-230.6" font-family="Times,serif" font-size="14.00" fill="#000000">biosynthetic process</text>
</g>
<!-- GO:0008610&#45;&gt;GO:1901576 -->
<g id="edge38" class="edge">
<title>GO:0008610&#45;&gt;GO:1901576</title>
<path fill="none" stroke="#000000" d="M692.6518,-178.2584C710.8437,-190.2464 732.0105,-204.1947 750.9709,-216.6891"/>
<polygon fill="#000000" stroke="#000000" points="749.2326,-219.7352 759.5085,-222.3152 753.0844,-213.8902 749.2326,-219.7352"/>
</g>
<!-- GO:0044711 -->
<g id="node30" class="node">
<title>GO:0044711</title>
<polygon fill="#ffffff" stroke="#000000" points="556.8637,-281.0014 427.0333,-281.0014 427.0333,-222.1986 556.8637,-222.1986 556.8637,-281.0014"/>
<text text-anchor="middle" x="491.9485" y="-264.2" font-family="Times,serif" font-size="14.00" fill="#000000">GO:0044711</text>
<text text-anchor="middle" x="491.9485" y="-247.4" font-family="Times,serif" font-size="14.00" fill="#000000">single&#45;organism</text>
<text text-anchor="middle" x="491.9485" y="-230.6" font-family="Times,serif" font-size="14.00" fill="#000000">biosynthetic process</text>
</g>
<!-- GO:0008610&#45;&gt;GO:0044711 -->
<g id="edge39" class="edge">
<title>GO:0008610&#45;&gt;GO:0044711</title>
<path fill="none" stroke="#000000" d="M603.2452,-178.2584C585.0533,-190.2464 563.8865,-204.1947 544.9261,-216.6891"/>
<polygon fill="#000000" stroke="#000000" points="542.8126,-213.8902 536.3885,-222.3152 546.6644,-219.7352 542.8126,-213.8902"/>
</g>
<!-- GO:1901576&#45;&gt;GO:0071704 -->
<g id="edge41" class="edge">
<title>GO:1901576&#45;&gt;GO:0071704</title>
<path fill="none" stroke="#000000" d="M782.1838,-280.9513C775.731,-289.6534 768.5743,-299.3047 761.7921,-308.4509"/>
<polygon fill="#000000" stroke="#000000" points="758.8447,-306.5496 755.6998,-316.6669 764.4676,-310.719 758.8447,-306.5496"/>
</g>
<!-- GO:1901576&#45;&gt;GO:0009058 -->
<g id="edge42" class="edge">
<title>GO:1901576&#45;&gt;GO:0009058</title>
<path fill="none" stroke="#000000" d="M826.0242,-280.9513C834.7375,-292.5363 844.7161,-305.8037 853.3793,-317.322"/>
<polygon fill="#000000" stroke="#000000" points="850.61,-319.4629 859.418,-325.351 856.2043,-315.2553 850.61,-319.4629"/>
</g>
<!-- GO:0044711&#45;&gt;GO:0044710 -->
<g id="edge43" class="edge">
<title>GO:0044711&#45;&gt;GO:0044710</title>
<path fill="none" stroke="#000000" d="M460.856,-280.9513C451.2615,-290.0086 440.5776,-300.0941 430.5414,-309.5683"/>
<polygon fill="#000000" stroke="#000000" points="427.8909,-307.2572 423.0217,-316.6669 432.6961,-312.3474 427.8909,-307.2572"/>
</g>
<!-- GO:0044711&#45;&gt;GO:0009058 -->
<g id="edge44" class="edge">
<title>GO:0044711&#45;&gt;GO:0009058</title>
<path fill="none" stroke="#000000" d="M557.0506,-278.2033C560.0396,-279.1353 563.0152,-280.0074 565.9485,-280.8 667.9527,-308.3643 698.9443,-289.2357 800.9485,-316.8 806.2817,-318.2412 811.7549,-319.9449 817.1942,-321.7939"/>
<polygon fill="#000000" stroke="#000000" points="816.316,-325.1964 826.9107,-325.2537 818.6641,-318.602 816.316,-325.1964"/>
</g>
</g>
</svg>
