<?xml version="1.0" encoding="UTF-8" standalone="no"?>
<!DOCTYPE svg PUBLIC "-//W3C//DTD SVG 1.1//EN"
 "http://www.w3.org/Graphics/SVG/1.1/DTD/svg11.dtd">
<!-- Generated by graphviz version 2.40.1 (20161225.0304)
 -->
<!-- Title: G Pages: 1 -->
<svg width="457pt" height="633pt"
 viewBox="0.00 0.00 457.31 632.80" xmlns="http://www.w3.org/2000/svg" xmlns:xlink="http://www.w3.org/1999/xlink">
<g id="graph0" class="graph" transform="scale(1 1) rotate(0) translate(4 628.8)">
<title>G</title>
<polygon fill="#ffffff" stroke="transparent" points="-4,4 -4,-628.8 453.3051,-628.8 453.3051,4 -4,4"/>
<!-- GO:0046914 -->
<g id="node1" class="node">
<title>GO:0046914</title>
<polygon fill="#ffffff" stroke="#000000" points="449.2421,-153.0014 324.4943,-153.0014 324.4943,-94.1986 449.2421,-94.1986 449.2421,-153.0014"/>
<text text-anchor="middle" x="386.8682" y="-136.2" font-family="Times,serif" font-size="14.00" fill="#000000">GO:0046914</text>
<text text-anchor="middle" x="386.8682" y="-119.4" font-family="Times,serif" font-size="14.00" fill="#000000">transition metal ion</text>
<text text-anchor="middle" x="386.8682" y="-102.6" font-family="Times,serif" font-size="14.00" fill="#000000">binding</text>
</g>
<!-- GO:0046872 -->
<g id="node2" class="node">
<title>GO:0046872</title>
<polygon fill="#ffffff" stroke="#000000" points="444.1412,-255.4019 329.5952,-255.4019 329.5952,-214.1981 444.1412,-214.1981 444.1412,-255.4019"/>
<text text-anchor="middle" x="386.8682" y="-239" font-family="Times,serif" font-size="14.00" fill="#000000">GO:0046872</text>
<text text-anchor="middle" x="386.8682" y="-222.2" font-family="Times,serif" font-size="14.00" fill="#000000">metal ion binding</text>
</g>
<!-- GO:0046914&#45;&gt;GO:0046872 -->
<g id="edge1" class="edge">
<title>GO:0046914&#45;&gt;GO:0046872</title>
<path fill="none" stroke="#000000" d="M386.8682,-152.8165C386.8682,-168.397 386.8682,-187.5758 386.8682,-203.4653"/>
<polygon fill="#000000" stroke="#000000" points="383.3683,-203.8555 386.8682,-213.8556 390.3683,-203.8556 383.3683,-203.8555"/>
</g>
<!-- GO:0043169 -->
<g id="node3" class="node">
<title>GO:0043169</title>
<polygon fill="#ffffff" stroke="#000000" points="432.3611,-366.6019 335.3753,-366.6019 335.3753,-325.3981 432.3611,-325.3981 432.3611,-366.6019"/>
<text text-anchor="middle" x="383.8682" y="-350.2" font-family="Times,serif" font-size="14.00" fill="#000000">GO:0043169</text>
<text text-anchor="middle" x="383.8682" y="-333.4" font-family="Times,serif" font-size="14.00" fill="#000000">cation binding</text>
</g>
<!-- GO:0046872&#45;&gt;GO:0043169 -->
<g id="edge2" class="edge">
<title>GO:0046872&#45;&gt;GO:0043169</title>
<path fill="none" stroke="#000000" d="M386.311,-255.4553C385.8613,-272.1242 385.2214,-295.8401 384.7094,-314.8189"/>
<polygon fill="#000000" stroke="#000000" points="381.2037,-314.9872 384.4326,-325.078 388.2012,-315.1761 381.2037,-314.9872"/>
</g>
<!-- GO:0043167 -->
<g id="node4" class="node">
<title>GO:0043167</title>
<polygon fill="#ffffff" stroke="#000000" points="423.4721,-452.6019 334.2643,-452.6019 334.2643,-411.3981 423.4721,-411.3981 423.4721,-452.6019"/>
<text text-anchor="middle" x="378.8682" y="-436.2" font-family="Times,serif" font-size="14.00" fill="#000000">GO:0043167</text>
<text text-anchor="middle" x="378.8682" y="-419.4" font-family="Times,serif" font-size="14.00" fill="#000000">ion binding</text>
</g>
<!-- GO:0043169&#45;&gt;GO:0043167 -->
<g id="edge3" class="edge">
<title>GO:0043169&#45;&gt;GO:0043167</title>
<path fill="none" stroke="#000000" d="M382.6578,-366.8182C382.056,-377.1705 381.3168,-389.8848 380.6515,-401.3271"/>
<polygon fill="#000000" stroke="#000000" points="377.1538,-401.1872 380.0674,-411.3735 384.142,-401.5936 377.1538,-401.1872"/>
</g>
<!-- GO:0005488 -->
<g id="node5" class="node">
<title>GO:0005488</title>
<polygon fill="#ffffff" stroke="#000000" points="418.4721,-538.6019 329.2643,-538.6019 329.2643,-497.3981 418.4721,-497.3981 418.4721,-538.6019"/>
<text text-anchor="middle" x="373.8682" y="-522.2" font-family="Times,serif" font-size="14.00" fill="#000000">GO:0005488</text>
<text text-anchor="middle" x="373.8682" y="-505.4" font-family="Times,serif" font-size="14.00" fill="#000000">binding</text>
</g>
<!-- GO:0043167&#45;&gt;GO:0005488 -->
<g id="edge4" class="edge">
<title>GO:0043167&#45;&gt;GO:0005488</title>
<path fill="none" stroke="#000000" d="M377.6578,-452.8182C377.056,-463.1705 376.3168,-475.8848 375.6515,-487.3271"/>
<polygon fill="#000000" stroke="#000000" points="372.1538,-487.1872 375.0674,-497.3735 379.142,-487.5936 372.1538,-487.1872"/>
</g>
<!-- GO:0003674 -->
<g id="node6" class="node">
<title>GO:0003674</title>
<polygon fill="#ffffff" stroke="#000000" points="309.5013,-624.6019 184.2351,-624.6019 184.2351,-583.3981 309.5013,-583.3981 309.5013,-624.6019"/>
<text text-anchor="middle" x="246.8682" y="-608.2" font-family="Times,serif" font-size="14.00" fill="#000000">GO:0003674</text>
<text text-anchor="middle" x="246.8682" y="-591.4" font-family="Times,serif" font-size="14.00" fill="#000000">molecular_function</text>
</g>
<!-- GO:0005488&#45;&gt;GO:0003674 -->
<g id="edge5" class="edge">
<title>GO:0005488&#45;&gt;GO:0003674</title>
<path fill="none" stroke="#000000" d="M343.125,-538.8182C325.9654,-550.4381 304.411,-565.034 286.0513,-577.4665"/>
<polygon fill="#000000" stroke="#000000" points="283.6459,-574.8684 277.3282,-583.3735 287.5709,-580.6645 283.6459,-574.8684"/>
</g>
<!-- GO:0060089 -->
<g id="node7" class="node">
<title>GO:0060089</title>
<polygon fill="#ffffff" stroke="#000000" points="174.6448,-547.4014 41.0916,-547.4014 41.0916,-488.5986 174.6448,-488.5986 174.6448,-547.4014"/>
<text text-anchor="middle" x="107.8682" y="-530.6" font-family="Times,serif" font-size="14.00" fill="#000000">GO:0060089</text>
<text text-anchor="middle" x="107.8682" y="-513.8" font-family="Times,serif" font-size="14.00" fill="#000000">molecular transducer</text>
<text text-anchor="middle" x="107.8682" y="-497" font-family="Times,serif" font-size="14.00" fill="#000000">activity</text>
</g>
<!-- GO:0060089&#45;&gt;GO:0003674 -->
<g id="edge6" class="edge">
<title>GO:0060089&#45;&gt;GO:0003674</title>
<path fill="none" stroke="#000000" d="M155.3153,-547.3558C171.2254,-557.1994 188.8555,-568.1073 204.3627,-577.7017"/>
<polygon fill="#000000" stroke="#000000" points="202.8733,-580.8958 213.2188,-583.1809 206.5563,-574.9431 202.8733,-580.8958"/>
</g>
<!-- GO:0008137 -->
<g id="node8" class="node">
<title>GO:0008137</title>
<polygon fill="#ffffff" stroke="#000000" points="226.7582,-58.6014 82.9782,-58.6014 82.9782,.2014 226.7582,.2014 226.7582,-58.6014"/>
<text text-anchor="middle" x="154.8682" y="-41.8" font-family="Times,serif" font-size="14.00" fill="#000000">GO:0008137</text>
<text text-anchor="middle" x="154.8682" y="-25" font-family="Times,serif" font-size="14.00" fill="#000000">NADH dehydrogenase</text>
<text text-anchor="middle" x="154.8682" y="-8.2" font-family="Times,serif" font-size="14.00" fill="#000000">(ubiquinone) activity</text>
</g>
<!-- GO:0050136 -->
<g id="node9" class="node">
<title>GO:0050136</title>
<polygon fill="#ffffff" stroke="#000000" points="226.7582,-153.0014 82.9782,-153.0014 82.9782,-94.1986 226.7582,-94.1986 226.7582,-153.0014"/>
<text text-anchor="middle" x="154.8682" y="-136.2" font-family="Times,serif" font-size="14.00" fill="#000000">GO:0050136</text>
<text text-anchor="middle" x="154.8682" y="-119.4" font-family="Times,serif" font-size="14.00" fill="#000000">NADH dehydrogenase</text>
<text text-anchor="middle" x="154.8682" y="-102.6" font-family="Times,serif" font-size="14.00" fill="#000000">(quinone) activity</text>
</g>
<!-- GO:0008137&#45;&gt;GO:0050136 -->
<g id="edge7" class="edge">
<title>GO:0008137&#45;&gt;GO:0050136</title>
<path fill="none" stroke="#000000" d="M154.8682,-58.5513C154.8682,-66.6318 154.8682,-75.5308 154.8682,-84.0838"/>
<polygon fill="#000000" stroke="#000000" points="151.3683,-84.2668 154.8682,-94.2669 158.3683,-84.2669 151.3683,-84.2668"/>
</g>
<!-- GO:0016655 -->
<g id="node10" class="node">
<title>GO:0016655</title>
<polygon fill="#ffffff" stroke="#000000" points="149.6048,-280.8 .1316,-280.8 .1316,-188.8 149.6048,-188.8 149.6048,-280.8"/>
<text text-anchor="middle" x="74.8682" y="-264.2" font-family="Times,serif" font-size="14.00" fill="#000000">GO:0016655</text>
<text text-anchor="middle" x="74.8682" y="-247.4" font-family="Times,serif" font-size="14.00" fill="#000000">oxidoreductase activity,</text>
<text text-anchor="middle" x="74.8682" y="-230.6" font-family="Times,serif" font-size="14.00" fill="#000000">acting on NAD(P)H,</text>
<text text-anchor="middle" x="74.8682" y="-213.8" font-family="Times,serif" font-size="14.00" fill="#000000">quinone or similar</text>
<text text-anchor="middle" x="74.8682" y="-197" font-family="Times,serif" font-size="14.00" fill="#000000">compound as acceptor</text>
</g>
<!-- GO:0050136&#45;&gt;GO:0016655 -->
<g id="edge8" class="edge">
<title>GO:0050136&#45;&gt;GO:0016655</title>
<path fill="none" stroke="#000000" d="M133.8491,-152.8165C127.7622,-161.2774 120.9118,-170.7994 114.0916,-180.2795"/>
<polygon fill="#000000" stroke="#000000" points="111.1246,-178.4105 108.1257,-188.5721 116.8069,-182.4985 111.1246,-178.4105"/>
</g>
<!-- GO:0003954 -->
<g id="node11" class="node">
<title>GO:0003954</title>
<polygon fill="#ffffff" stroke="#000000" points="311.7582,-264.2014 167.9782,-264.2014 167.9782,-205.3986 311.7582,-205.3986 311.7582,-264.2014"/>
<text text-anchor="middle" x="239.8682" y="-247.4" font-family="Times,serif" font-size="14.00" fill="#000000">GO:0003954</text>
<text text-anchor="middle" x="239.8682" y="-230.6" font-family="Times,serif" font-size="14.00" fill="#000000">NADH dehydrogenase</text>
<text text-anchor="middle" x="239.8682" y="-213.8" font-family="Times,serif" font-size="14.00" fill="#000000">activity</text>
</g>
<!-- GO:0050136&#45;&gt;GO:0003954 -->
<g id="edge9" class="edge">
<title>GO:0050136&#45;&gt;GO:0003954</title>
<path fill="none" stroke="#000000" d="M177.2009,-152.8165C187.5626,-166.372 200.0063,-182.6513 211.0647,-197.1183"/>
<polygon fill="#000000" stroke="#000000" points="208.5359,-199.5733 217.3895,-205.3926 214.0972,-195.3222 208.5359,-199.5733"/>
</g>
<!-- GO:0016651 -->
<g id="node12" class="node">
<title>GO:0016651</title>
<polygon fill="#ffffff" stroke="#000000" points="314.6048,-375.4014 165.1316,-375.4014 165.1316,-316.5986 314.6048,-316.5986 314.6048,-375.4014"/>
<text text-anchor="middle" x="239.8682" y="-358.6" font-family="Times,serif" font-size="14.00" fill="#000000">GO:0016651</text>
<text text-anchor="middle" x="239.8682" y="-341.8" font-family="Times,serif" font-size="14.00" fill="#000000">oxidoreductase activity,</text>
<text text-anchor="middle" x="239.8682" y="-325" font-family="Times,serif" font-size="14.00" fill="#000000">acting on NAD(P)H</text>
</g>
<!-- GO:0016655&#45;&gt;GO:0016651 -->
<g id="edge10" class="edge">
<title>GO:0016655&#45;&gt;GO:0016651</title>
<path fill="none" stroke="#000000" d="M143.4096,-280.9928C158.221,-290.9748 173.6507,-301.3734 187.7135,-310.8509"/>
<polygon fill="#000000" stroke="#000000" points="186.0266,-313.9347 196.2752,-316.621 189.9387,-308.1299 186.0266,-313.9347"/>
</g>
<!-- GO:0003954&#45;&gt;GO:0016651 -->
<g id="edge11" class="edge">
<title>GO:0003954&#45;&gt;GO:0016651</title>
<path fill="none" stroke="#000000" d="M239.8682,-264.0165C239.8682,-276.9386 239.8682,-292.3358 239.8682,-306.2788"/>
<polygon fill="#000000" stroke="#000000" points="236.3683,-306.5925 239.8682,-316.5926 243.3683,-306.5926 236.3683,-306.5925"/>
</g>
<!-- GO:0016491 -->
<g id="node13" class="node">
<title>GO:0016491</title>
<polygon fill="#ffffff" stroke="#000000" points="315.1048,-452.6019 168.6316,-452.6019 168.6316,-411.3981 315.1048,-411.3981 315.1048,-452.6019"/>
<text text-anchor="middle" x="241.8682" y="-436.2" font-family="Times,serif" font-size="14.00" fill="#000000">GO:0016491</text>
<text text-anchor="middle" x="241.8682" y="-419.4" font-family="Times,serif" font-size="14.00" fill="#000000">oxidoreductase activity</text>
</g>
<!-- GO:0016651&#45;&gt;GO:0016491 -->
<g id="edge12" class="edge">
<title>GO:0016651&#45;&gt;GO:0016491</title>
<path fill="none" stroke="#000000" d="M240.5565,-375.5963C240.7488,-383.8638 240.9581,-392.8657 241.1519,-401.2008"/>
<polygon fill="#000000" stroke="#000000" points="237.6551,-401.3807 241.3867,-411.2966 244.6532,-401.2178 237.6551,-401.3807"/>
</g>
<!-- GO:0003824 -->
<g id="node14" class="node">
<title>GO:0003824</title>
<polygon fill="#ffffff" stroke="#000000" points="301.2806,-538.6019 192.4558,-538.6019 192.4558,-497.3981 301.2806,-497.3981 301.2806,-538.6019"/>
<text text-anchor="middle" x="246.8682" y="-522.2" font-family="Times,serif" font-size="14.00" fill="#000000">GO:0003824</text>
<text text-anchor="middle" x="246.8682" y="-505.4" font-family="Times,serif" font-size="14.00" fill="#000000">catalytic activity</text>
</g>
<!-- GO:0016491&#45;&gt;GO:0003824 -->
<g id="edge13" class="edge">
<title>GO:0016491&#45;&gt;GO:0003824</title>
<path fill="none" stroke="#000000" d="M243.0786,-452.8182C243.6804,-463.1705 244.4196,-475.8848 245.0849,-487.3271"/>
<polygon fill="#000000" stroke="#000000" points="241.5944,-487.5936 245.669,-497.3735 248.5826,-487.1872 241.5944,-487.5936"/>
</g>
<!-- GO:0003824&#45;&gt;GO:0003674 -->
<g id="edge14" class="edge">
<title>GO:0003824&#45;&gt;GO:0003674</title>
<path fill="none" stroke="#000000" d="M246.8682,-538.8182C246.8682,-549.1705 246.8682,-561.8848 246.8682,-573.3271"/>
<polygon fill="#000000" stroke="#000000" points="243.3683,-573.3735 246.8682,-583.3735 250.3683,-573.3735 243.3683,-573.3735"/>
</g>
<!-- GO:0050897 -->
<g id="node15" class="node">
<title>GO:0050897</title>
<polygon fill="#ffffff" stroke="#000000" points="445.7505,-49.8019 327.9859,-49.8019 327.9859,-8.5981 445.7505,-8.5981 445.7505,-49.8019"/>
<text text-anchor="middle" x="386.8682" y="-33.4" font-family="Times,serif" font-size="14.00" fill="#000000">GO:0050897</text>
<text text-anchor="middle" x="386.8682" y="-16.6" font-family="Times,serif" font-size="14.00" fill="#000000">cobalt ion binding</text>
</g>
<!-- GO:0050897&#45;&gt;GO:0046914 -->
<g id="edge15" class="edge">
<title>GO:0050897&#45;&gt;GO:0046914</title>
<path fill="none" stroke="#000000" d="M386.8682,-50.1504C386.8682,-60.1492 386.8682,-72.4525 386.8682,-84.1106"/>
<polygon fill="#000000" stroke="#000000" points="383.3683,-84.1155 386.8682,-94.1155 390.3683,-84.1156 383.3683,-84.1155"/>
</g>
</g>
</svg>
