<?xml version="1.0" encoding="UTF-8" standalone="no"?>
<!DOCTYPE svg PUBLIC "-//W3C//DTD SVG 1.1//EN"
 "http://www.w3.org/Graphics/SVG/1.1/DTD/svg11.dtd">
<!-- Generated by graphviz version 2.40.1 (20161225.0304)
 -->
<!-- Title: G Pages: 1 -->
<svg width="143pt" height="566pt"
 viewBox="0.00 0.00 142.58 565.60" xmlns="http://www.w3.org/2000/svg" xmlns:xlink="http://www.w3.org/1999/xlink">
<g id="graph0" class="graph" transform="scale(1 1) rotate(0) translate(4 561.6)">
<title>G</title>
<polygon fill="#ffffff" stroke="transparent" points="-4,4 -4,-561.6 138.58,-561.6 138.58,4 -4,4"/>
<!-- GO:0004721 -->
<g id="node1" class="node">
<title>GO:0004721</title>
<polygon fill="#ffffff" stroke="#000000" points="132.2052,-58.6014 2.3748,-58.6014 2.3748,.2014 132.2052,.2014 132.2052,-58.6014"/>
<text text-anchor="middle" x="67.29" y="-41.8" font-family="Times,serif" font-size="14.00" fill="#000000">GO:0004721</text>
<text text-anchor="middle" x="67.29" y="-25" font-family="Times,serif" font-size="14.00" fill="#000000">phosphoprotein</text>
<text text-anchor="middle" x="67.29" y="-8.2" font-family="Times,serif" font-size="14.00" fill="#000000">phosphatase activity</text>
</g>
<!-- GO:0016791 -->
<g id="node2" class="node">
<title>GO:0016791</title>
<polygon fill="#ffffff" stroke="#000000" points="132.2052,-135.8019 2.3748,-135.8019 2.3748,-94.5981 132.2052,-94.5981 132.2052,-135.8019"/>
<text text-anchor="middle" x="67.29" y="-119.4" font-family="Times,serif" font-size="14.00" fill="#000000">GO:0016791</text>
<text text-anchor="middle" x="67.29" y="-102.6" font-family="Times,serif" font-size="14.00" fill="#000000">phosphatase activity</text>
</g>
<!-- GO:0004721&#45;&gt;GO:0016791 -->
<g id="edge1" class="edge">
<title>GO:0004721&#45;&gt;GO:0016791</title>
<path fill="none" stroke="#000000" d="M67.29,-58.7963C67.29,-67.0638 67.29,-76.0657 67.29,-84.4008"/>
<polygon fill="#000000" stroke="#000000" points="63.7901,-84.4965 67.29,-94.4966 70.7901,-84.4966 63.7901,-84.4965"/>
</g>
<!-- GO:0042578 -->
<g id="node3" class="node">
<title>GO:0042578</title>
<polygon fill="#ffffff" stroke="#000000" points="125.2066,-230.6014 9.3734,-230.6014 9.3734,-171.7986 125.2066,-171.7986 125.2066,-230.6014"/>
<text text-anchor="middle" x="67.29" y="-213.8" font-family="Times,serif" font-size="14.00" fill="#000000">GO:0042578</text>
<text text-anchor="middle" x="67.29" y="-197" font-family="Times,serif" font-size="14.00" fill="#000000">phosphoric ester</text>
<text text-anchor="middle" x="67.29" y="-180.2" font-family="Times,serif" font-size="14.00" fill="#000000">hydrolase activity</text>
</g>
<!-- GO:0016791&#45;&gt;GO:0042578 -->
<g id="edge2" class="edge">
<title>GO:0016791&#45;&gt;GO:0042578</title>
<path fill="none" stroke="#000000" d="M67.29,-136.0182C67.29,-143.7358 67.29,-152.7662 67.29,-161.6036"/>
<polygon fill="#000000" stroke="#000000" points="63.7901,-161.7991 67.29,-171.7991 70.7901,-161.7992 63.7901,-161.7991"/>
</g>
<!-- GO:0016788 -->
<g id="node4" class="node">
<title>GO:0016788</title>
<polygon fill="#ffffff" stroke="#000000" points="134.3707,-325.0014 .2093,-325.0014 .2093,-266.1986 134.3707,-266.1986 134.3707,-325.0014"/>
<text text-anchor="middle" x="67.29" y="-308.2" font-family="Times,serif" font-size="14.00" fill="#000000">GO:0016788</text>
<text text-anchor="middle" x="67.29" y="-291.4" font-family="Times,serif" font-size="14.00" fill="#000000">hydrolase activity,</text>
<text text-anchor="middle" x="67.29" y="-274.6" font-family="Times,serif" font-size="14.00" fill="#000000">acting on ester bonds</text>
</g>
<!-- GO:0042578&#45;&gt;GO:0016788 -->
<g id="edge3" class="edge">
<title>GO:0042578&#45;&gt;GO:0016788</title>
<path fill="none" stroke="#000000" d="M67.29,-230.5513C67.29,-238.6318 67.29,-247.5308 67.29,-256.0838"/>
<polygon fill="#000000" stroke="#000000" points="63.7901,-256.2668 67.29,-266.2669 70.7901,-256.2669 63.7901,-256.2668"/>
</g>
<!-- GO:0016787 -->
<g id="node5" class="node">
<title>GO:0016787</title>
<polygon fill="#ffffff" stroke="#000000" points="125.2066,-402.2019 9.3734,-402.2019 9.3734,-360.9981 125.2066,-360.9981 125.2066,-402.2019"/>
<text text-anchor="middle" x="67.29" y="-385.8" font-family="Times,serif" font-size="14.00" fill="#000000">GO:0016787</text>
<text text-anchor="middle" x="67.29" y="-369" font-family="Times,serif" font-size="14.00" fill="#000000">hydrolase activity</text>
</g>
<!-- GO:0016788&#45;&gt;GO:0016787 -->
<g id="edge4" class="edge">
<title>GO:0016788&#45;&gt;GO:0016787</title>
<path fill="none" stroke="#000000" d="M67.29,-325.1963C67.29,-333.4638 67.29,-342.4657 67.29,-350.8008"/>
<polygon fill="#000000" stroke="#000000" points="63.7901,-350.8965 67.29,-360.8966 70.7901,-350.8966 63.7901,-350.8965"/>
</g>
<!-- GO:0003824 -->
<g id="node6" class="node">
<title>GO:0003824</title>
<polygon fill="#ffffff" stroke="#000000" points="121.7024,-479.8019 12.8776,-479.8019 12.8776,-438.5981 121.7024,-438.5981 121.7024,-479.8019"/>
<text text-anchor="middle" x="67.29" y="-463.4" font-family="Times,serif" font-size="14.00" fill="#000000">GO:0003824</text>
<text text-anchor="middle" x="67.29" y="-446.6" font-family="Times,serif" font-size="14.00" fill="#000000">catalytic activity</text>
</g>
<!-- GO:0016787&#45;&gt;GO:0003824 -->
<g id="edge5" class="edge">
<title>GO:0016787&#45;&gt;GO:0003824</title>
<path fill="none" stroke="#000000" d="M67.29,-402.3954C67.29,-410.3109 67.29,-419.5109 67.29,-428.1722"/>
<polygon fill="#000000" stroke="#000000" points="63.7901,-428.3472 67.29,-438.3472 70.7901,-428.3473 63.7901,-428.3472"/>
</g>
<!-- GO:0003674 -->
<g id="node7" class="node">
<title>GO:0003674</title>
<polygon fill="#ffffff" stroke="#000000" points="129.9231,-557.4019 4.6569,-557.4019 4.6569,-516.1981 129.9231,-516.1981 129.9231,-557.4019"/>
<text text-anchor="middle" x="67.29" y="-541" font-family="Times,serif" font-size="14.00" fill="#000000">GO:0003674</text>
<text text-anchor="middle" x="67.29" y="-524.2" font-family="Times,serif" font-size="14.00" fill="#000000">molecular_function</text>
</g>
<!-- GO:0003824&#45;&gt;GO:0003674 -->
<g id="edge6" class="edge">
<title>GO:0003824&#45;&gt;GO:0003674</title>
<path fill="none" stroke="#000000" d="M67.29,-479.9954C67.29,-487.9109 67.29,-497.1109 67.29,-505.7722"/>
<polygon fill="#000000" stroke="#000000" points="63.7901,-505.9472 67.29,-515.9472 70.7901,-505.9473 63.7901,-505.9472"/>
</g>
</g>
</svg>
