<?xml version="1.0" encoding="UTF-8" standalone="no"?>
<!DOCTYPE svg PUBLIC "-//W3C//DTD SVG 1.1//EN"
 "http://www.w3.org/Graphics/SVG/1.1/DTD/svg11.dtd">
<!-- Generated by graphviz version 2.40.1 (20161225.0304)
 -->
<!-- Title: G Pages: 1 -->
<svg width="1558pt" height="744pt"
 viewBox="0.00 0.00 1557.87 744.00" xmlns="http://www.w3.org/2000/svg" xmlns:xlink="http://www.w3.org/1999/xlink">
<g id="graph0" class="graph" transform="scale(1 1) rotate(0) translate(4 740)">
<title>G</title>
<polygon fill="#ffffff" stroke="transparent" points="-4,4 -4,-740 1553.8689,-740 1553.8689,4 -4,4"/>
<!-- GO:0040007 -->
<g id="node1" class="node">
<title>GO:0040007</title>
<polygon fill="#ff00ff" stroke="#000000" points="270.5152,-658.2019 181.3074,-658.2019 181.3074,-616.9981 270.5152,-616.9981 270.5152,-658.2019"/>
<text text-anchor="middle" x="225.9113" y="-641.8" font-family="Times,serif" font-size="14.00" fill="#000000">GO:0040007</text>
<text text-anchor="middle" x="225.9113" y="-625" font-family="Times,serif" font-size="14.00" fill="#000000">growth</text>
</g>
<!-- GO:0008150 -->
<g id="node2" class="node">
<title>GO:0008150</title>
<polygon fill="#ffffff" stroke="#000000" points="497.3819,-735.8019 376.4407,-735.8019 376.4407,-694.5981 497.3819,-694.5981 497.3819,-735.8019"/>
<text text-anchor="middle" x="436.9113" y="-719.4" font-family="Times,serif" font-size="14.00" fill="#000000">GO:0008150</text>
<text text-anchor="middle" x="436.9113" y="-702.6" font-family="Times,serif" font-size="14.00" fill="#000000">biological_process</text>
</g>
<!-- GO:0040007&#45;&gt;GO:0008150 -->
<g id="edge1" class="edge">
<title>GO:0040007&#45;&gt;GO:0008150</title>
<path fill="none" stroke="#000000" d="M270.6957,-655.2806C273.4726,-656.3444 276.2281,-657.3914 278.9113,-658.4 308.2004,-669.4093 340.7069,-681.1726 368.5829,-691.122"/>
<polygon fill="#000000" stroke="#000000" points="367.6423,-694.5023 378.237,-694.5613 369.9916,-687.9083 367.6423,-694.5023"/>
</g>
<!-- GO:0006783 -->
<g id="node3" class="node">
<title>GO:0006783</title>
<polygon fill="#ffffff" stroke="#000000" points="359.6465,-41.4019 196.1761,-41.4019 196.1761,-.1981 359.6465,-.1981 359.6465,-41.4019"/>
<text text-anchor="middle" x="277.9113" y="-25" font-family="Times,serif" font-size="14.00" fill="#000000">GO:0006783</text>
<text text-anchor="middle" x="277.9113" y="-8.2" font-family="Times,serif" font-size="14.00" fill="#000000">heme biosynthetic process</text>
</g>
<!-- GO:0042168 -->
<g id="node4" class="node">
<title>GO:0042168</title>
<polygon fill="#ffffff" stroke="#000000" points="301.9171,-135.8019 151.9055,-135.8019 151.9055,-94.5981 301.9171,-94.5981 301.9171,-135.8019"/>
<text text-anchor="middle" x="226.9113" y="-119.4" font-family="Times,serif" font-size="14.00" fill="#000000">GO:0042168</text>
<text text-anchor="middle" x="226.9113" y="-102.6" font-family="Times,serif" font-size="14.00" fill="#000000">heme metabolic process</text>
</g>
<!-- GO:0006783&#45;&gt;GO:0042168 -->
<g id="edge2" class="edge">
<title>GO:0006783&#45;&gt;GO:0042168</title>
<path fill="none" stroke="#000000" d="M266.5927,-41.7504C259.6598,-54.5831 250.6762,-71.2116 243.0105,-85.4006"/>
<polygon fill="#000000" stroke="#000000" points="239.8721,-83.8464 238.1982,-94.3081 246.0308,-87.1737 239.8721,-83.8464"/>
</g>
<!-- GO:0044711 -->
<g id="node5" class="node">
<title>GO:0044711</title>
<polygon fill="#ffffff" stroke="#000000" points="395.8265,-478.2014 265.9961,-478.2014 265.9961,-419.3986 395.8265,-419.3986 395.8265,-478.2014"/>
<text text-anchor="middle" x="330.9113" y="-461.4" font-family="Times,serif" font-size="14.00" fill="#000000">GO:0044711</text>
<text text-anchor="middle" x="330.9113" y="-444.6" font-family="Times,serif" font-size="14.00" fill="#000000">single&#45;organism</text>
<text text-anchor="middle" x="330.9113" y="-427.8" font-family="Times,serif" font-size="14.00" fill="#000000">biosynthetic process</text>
</g>
<!-- GO:0006783&#45;&gt;GO:0044711 -->
<g id="edge3" class="edge">
<title>GO:0006783&#45;&gt;GO:0044711</title>
<path fill="none" stroke="#000000" d="M293.1575,-41.5435C299.8738,-51.851 307.0948,-64.8141 310.9113,-77.6 345.6762,-194.0677 340.1142,-340.0697 334.7449,-409.1171"/>
<polygon fill="#000000" stroke="#000000" points="331.253,-408.8755 333.925,-419.1278 338.2297,-409.4469 331.253,-408.8755"/>
</g>
<!-- GO:0046148 -->
<g id="node6" class="node">
<title>GO:0046148</title>
<polygon fill="#ffffff" stroke="#000000" points="133.734,-144.6014 .0886,-144.6014 .0886,-85.7986 133.734,-85.7986 133.734,-144.6014"/>
<text text-anchor="middle" x="66.9113" y="-127.8" font-family="Times,serif" font-size="14.00" fill="#000000">GO:0046148</text>
<text text-anchor="middle" x="66.9113" y="-111" font-family="Times,serif" font-size="14.00" fill="#000000">pigment biosynthetic</text>
<text text-anchor="middle" x="66.9113" y="-94.2" font-family="Times,serif" font-size="14.00" fill="#000000">process</text>
</g>
<!-- GO:0006783&#45;&gt;GO:0046148 -->
<g id="edge4" class="edge">
<title>GO:0006783&#45;&gt;GO:0046148</title>
<path fill="none" stroke="#000000" d="M226.6267,-41.5123C201.2744,-51.9704 170.3144,-65.0707 142.9113,-77.6 140.1229,-78.8749 137.2851,-80.1913 134.4244,-81.5339"/>
<polygon fill="#000000" stroke="#000000" points="132.7758,-78.4422 125.2431,-85.8926 135.7778,-84.7658 132.7758,-78.4422"/>
</g>
<!-- GO:0006779 -->
<g id="node7" class="node">
<title>GO:0006779</title>
<polygon fill="#ffffff" stroke="#000000" points="669.4527,-152.9003 522.3699,-152.9003 522.3699,-77.4997 669.4527,-77.4997 669.4527,-152.9003"/>
<text text-anchor="middle" x="595.9113" y="-136.2" font-family="Times,serif" font-size="14.00" fill="#000000">GO:0006779</text>
<text text-anchor="middle" x="595.9113" y="-119.4" font-family="Times,serif" font-size="14.00" fill="#000000">porphyrin&#45;containing</text>
<text text-anchor="middle" x="595.9113" y="-102.6" font-family="Times,serif" font-size="14.00" fill="#000000">compound biosynthetic</text>
<text text-anchor="middle" x="595.9113" y="-85.8" font-family="Times,serif" font-size="14.00" fill="#000000">process</text>
</g>
<!-- GO:0006783&#45;&gt;GO:0006779 -->
<g id="edge5" class="edge">
<title>GO:0006783&#45;&gt;GO:0006779</title>
<path fill="none" stroke="#000000" d="M359.7474,-36.6175C402.9214,-45.8905 456.737,-58.9144 512.3176,-77.5796"/>
<polygon fill="#000000" stroke="#000000" points="511.3854,-80.9596 521.9799,-80.8761 513.6456,-74.3346 511.3854,-80.9596"/>
</g>
<!-- GO:0042440 -->
<g id="node8" class="node">
<title>GO:0042440</title>
<polygon fill="#ffffff" stroke="#000000" points="198.9829,-247.0019 32.8397,-247.0019 32.8397,-205.7981 198.9829,-205.7981 198.9829,-247.0019"/>
<text text-anchor="middle" x="115.9113" y="-230.6" font-family="Times,serif" font-size="14.00" fill="#000000">GO:0042440</text>
<text text-anchor="middle" x="115.9113" y="-213.8" font-family="Times,serif" font-size="14.00" fill="#000000">pigment metabolic process</text>
</g>
<!-- GO:0042168&#45;&gt;GO:0042440 -->
<g id="edge6" class="edge">
<title>GO:0042168&#45;&gt;GO:0042440</title>
<path fill="none" stroke="#000000" d="M206.2932,-135.8553C188.7256,-153.4545 163.3165,-178.9094 143.9104,-198.3504"/>
<polygon fill="#000000" stroke="#000000" points="141.3833,-195.9279 136.7957,-205.478 146.3375,-200.8732 141.3833,-195.9279"/>
</g>
<!-- GO:0044763 -->
<g id="node9" class="node">
<title>GO:0044763</title>
<polygon fill="#ffffff" stroke="#000000" points="263.5898,-581.0014 112.2328,-581.0014 112.2328,-522.1986 263.5898,-522.1986 263.5898,-581.0014"/>
<text text-anchor="middle" x="187.9113" y="-564.2" font-family="Times,serif" font-size="14.00" fill="#000000">GO:0044763</text>
<text text-anchor="middle" x="187.9113" y="-547.4" font-family="Times,serif" font-size="14.00" fill="#000000">single&#45;organism cellular</text>
<text text-anchor="middle" x="187.9113" y="-530.6" font-family="Times,serif" font-size="14.00" fill="#000000">process</text>
</g>
<!-- GO:0042168&#45;&gt;GO:0044763 -->
<g id="edge7" class="edge">
<title>GO:0042168&#45;&gt;GO:0044763</title>
<path fill="none" stroke="#000000" d="M225.0565,-135.9549C218.9626,-204.1438 199.4885,-422.054 191.4418,-512.0942"/>
<polygon fill="#000000" stroke="#000000" points="187.9454,-511.8989 190.5413,-522.1708 194.9176,-512.522 187.9454,-511.8989"/>
</g>
<!-- GO:0006778 -->
<g id="node10" class="node">
<title>GO:0006778</title>
<polygon fill="#ffffff" stroke="#000000" points="497.3847,-264.1003 362.4379,-264.1003 362.4379,-188.6997 497.3847,-188.6997 497.3847,-264.1003"/>
<text text-anchor="middle" x="429.9113" y="-247.4" font-family="Times,serif" font-size="14.00" fill="#000000">GO:0006778</text>
<text text-anchor="middle" x="429.9113" y="-230.6" font-family="Times,serif" font-size="14.00" fill="#000000">porphyrin&#45;containing</text>
<text text-anchor="middle" x="429.9113" y="-213.8" font-family="Times,serif" font-size="14.00" fill="#000000">compound metabolic</text>
<text text-anchor="middle" x="429.9113" y="-197" font-family="Times,serif" font-size="14.00" fill="#000000">process</text>
</g>
<!-- GO:0042168&#45;&gt;GO:0006778 -->
<g id="edge8" class="edge">
<title>GO:0042168&#45;&gt;GO:0006778</title>
<path fill="none" stroke="#000000" d="M264.6183,-135.8553C289.56,-149.5179 323.1445,-167.9149 353.5257,-184.5573"/>
<polygon fill="#000000" stroke="#000000" points="351.9658,-187.6935 362.4177,-189.4281 355.3288,-181.5542 351.9658,-187.6935"/>
</g>
<!-- GO:0044710 -->
<g id="node11" class="node">
<title>GO:0044710</title>
<polygon fill="#ffffff" stroke="#000000" points="446.3195,-581.0014 281.5031,-581.0014 281.5031,-522.1986 446.3195,-522.1986 446.3195,-581.0014"/>
<text text-anchor="middle" x="363.9113" y="-564.2" font-family="Times,serif" font-size="14.00" fill="#000000">GO:0044710</text>
<text text-anchor="middle" x="363.9113" y="-547.4" font-family="Times,serif" font-size="14.00" fill="#000000">single&#45;organism metabolic</text>
<text text-anchor="middle" x="363.9113" y="-530.6" font-family="Times,serif" font-size="14.00" fill="#000000">process</text>
</g>
<!-- GO:0044711&#45;&gt;GO:0044710 -->
<g id="edge9" class="edge">
<title>GO:0044711&#45;&gt;GO:0044710</title>
<path fill="none" stroke="#000000" d="M340.3678,-478.2584C343.7853,-488.9045 347.6991,-501.0966 351.3416,-512.4435"/>
<polygon fill="#000000" stroke="#000000" points="348.0644,-513.6857 354.4534,-522.1373 354.7294,-511.5461 348.0644,-513.6857"/>
</g>
<!-- GO:0009058 -->
<g id="node12" class="node">
<title>GO:0009058</title>
<polygon fill="#ffffff" stroke="#000000" points="593.8265,-572.2019 463.9961,-572.2019 463.9961,-530.9981 593.8265,-530.9981 593.8265,-572.2019"/>
<text text-anchor="middle" x="528.9113" y="-555.8" font-family="Times,serif" font-size="14.00" fill="#000000">GO:0009058</text>
<text text-anchor="middle" x="528.9113" y="-539" font-family="Times,serif" font-size="14.00" fill="#000000">biosynthetic process</text>
</g>
<!-- GO:0044711&#45;&gt;GO:0009058 -->
<g id="edge10" class="edge">
<title>GO:0044711&#45;&gt;GO:0009058</title>
<path fill="none" stroke="#000000" d="M387.3852,-478.1208C416.5504,-493.2631 451.7952,-511.562 479.8168,-526.1105"/>
<polygon fill="#000000" stroke="#000000" points="478.5357,-529.389 489.0236,-530.8906 481.7612,-523.1764 478.5357,-529.389"/>
</g>
<!-- GO:0046148&#45;&gt;GO:0042440 -->
<g id="edge11" class="edge">
<title>GO:0046148&#45;&gt;GO:0042440</title>
<path fill="none" stroke="#000000" d="M79.7855,-144.4165C86.783,-160.2966 95.4277,-179.9148 102.5061,-195.9783"/>
<polygon fill="#000000" stroke="#000000" points="99.4469,-197.7159 106.6822,-205.4556 105.8526,-194.8932 99.4469,-197.7159"/>
</g>
<!-- GO:0006779&#45;&gt;GO:0006778 -->
<g id="edge14" class="edge">
<title>GO:0006779&#45;&gt;GO:0006778</title>
<path fill="none" stroke="#000000" d="M539.7113,-152.8472C525.2439,-162.5386 509.5596,-173.0452 494.6952,-183.0026"/>
<polygon fill="#000000" stroke="#000000" points="492.4137,-180.3181 486.0535,-188.7915 496.3096,-186.1339 492.4137,-180.3181"/>
</g>
<!-- GO:0033014 -->
<g id="node13" class="node">
<title>GO:0033014</title>
<polygon fill="#ffffff" stroke="#000000" points="1012.6451,-255.8014 859.1775,-255.8014 859.1775,-196.9986 1012.6451,-196.9986 1012.6451,-255.8014"/>
<text text-anchor="middle" x="935.9113" y="-239" font-family="Times,serif" font-size="14.00" fill="#000000">GO:0033014</text>
<text text-anchor="middle" x="935.9113" y="-222.2" font-family="Times,serif" font-size="14.00" fill="#000000">tetrapyrrole biosynthetic</text>
<text text-anchor="middle" x="935.9113" y="-205.4" font-family="Times,serif" font-size="14.00" fill="#000000">process</text>
</g>
<!-- GO:0006779&#45;&gt;GO:0033014 -->
<g id="edge12" class="edge">
<title>GO:0006779&#45;&gt;GO:0033014</title>
<path fill="none" stroke="#000000" d="M669.6862,-139.3287C722.4721,-156.5928 793.7136,-179.893 849.2172,-198.0459"/>
<polygon fill="#000000" stroke="#000000" points="848.4446,-201.4756 859.0372,-201.2576 850.6206,-194.8224 848.4446,-201.4756"/>
</g>
<!-- GO:0051188 -->
<g id="node14" class="node">
<title>GO:0051188</title>
<polygon fill="#ffffff" stroke="#000000" points="648.7033,-255.8014 515.1193,-255.8014 515.1193,-196.9986 648.7033,-196.9986 648.7033,-255.8014"/>
<text text-anchor="middle" x="581.9113" y="-239" font-family="Times,serif" font-size="14.00" fill="#000000">GO:0051188</text>
<text text-anchor="middle" x="581.9113" y="-222.2" font-family="Times,serif" font-size="14.00" fill="#000000">cofactor biosynthetic</text>
<text text-anchor="middle" x="581.9113" y="-205.4" font-family="Times,serif" font-size="14.00" fill="#000000">process</text>
</g>
<!-- GO:0006779&#45;&gt;GO:0051188 -->
<g id="edge13" class="edge">
<title>GO:0006779&#45;&gt;GO:0051188</title>
<path fill="none" stroke="#000000" d="M591.1715,-152.8472C589.8009,-163.7338 588.3008,-175.649 586.9147,-186.6589"/>
<polygon fill="#000000" stroke="#000000" points="583.4052,-186.5153 585.6286,-196.8742 590.3504,-187.3897 583.4052,-186.5153"/>
</g>
<!-- GO:0042440&#45;&gt;GO:0044710 -->
<g id="edge15" class="edge">
<title>GO:0042440&#45;&gt;GO:0044710</title>
<path fill="none" stroke="#000000" d="M122.9158,-247.2419C139.6596,-294.5638 185.9663,-411.7903 256.9113,-486.4 267.7937,-497.8445 281.1089,-508.0414 294.6019,-516.778"/>
<polygon fill="#000000" stroke="#000000" points="293.1329,-519.9866 303.4706,-522.3067 296.8361,-514.0464 293.1329,-519.9866"/>
</g>
<!-- GO:0009987 -->
<g id="node15" class="node">
<title>GO:0009987</title>
<polygon fill="#ffffff" stroke="#000000" points="561.8675,-658.2019 457.9551,-658.2019 457.9551,-616.9981 561.8675,-616.9981 561.8675,-658.2019"/>
<text text-anchor="middle" x="509.9113" y="-641.8" font-family="Times,serif" font-size="14.00" fill="#000000">GO:0009987</text>
<text text-anchor="middle" x="509.9113" y="-625" font-family="Times,serif" font-size="14.00" fill="#000000">cellular process</text>
</g>
<!-- GO:0044763&#45;&gt;GO:0009987 -->
<g id="edge16" class="edge">
<title>GO:0044763&#45;&gt;GO:0009987</title>
<path fill="none" stroke="#000000" d="M263.7601,-578.1991C266.8416,-579.1074 269.9006,-579.9787 272.9113,-580.8 346.9293,-600.993 370.0638,-596.2969 448.3126,-616.8154"/>
<polygon fill="#000000" stroke="#000000" points="447.5704,-620.2399 458.1355,-619.446 449.3813,-613.4782 447.5704,-620.2399"/>
</g>
<!-- GO:0044699 -->
<g id="node16" class="node">
<title>GO:0044699</title>
<polygon fill="#ffffff" stroke="#000000" points="439.5926,-658.2019 288.23,-658.2019 288.23,-616.9981 439.5926,-616.9981 439.5926,-658.2019"/>
<text text-anchor="middle" x="363.9113" y="-641.8" font-family="Times,serif" font-size="14.00" fill="#000000">GO:0044699</text>
<text text-anchor="middle" x="363.9113" y="-625" font-family="Times,serif" font-size="14.00" fill="#000000">single&#45;organism process</text>
</g>
<!-- GO:0044763&#45;&gt;GO:0044699 -->
<g id="edge17" class="edge">
<title>GO:0044763&#45;&gt;GO:0044699</title>
<path fill="none" stroke="#000000" d="M247.9883,-580.9558C268.9728,-591.2096 292.3206,-602.6182 312.5317,-612.494"/>
<polygon fill="#000000" stroke="#000000" points="311.056,-615.6684 321.5773,-616.9141 314.1292,-609.3791 311.056,-615.6684"/>
</g>
<!-- GO:0051186 -->
<g id="node17" class="node">
<title>GO:0051186</title>
<polygon fill="#ffffff" stroke="#000000" points="488.9739,-367.0014 368.8487,-367.0014 368.8487,-308.1986 488.9739,-308.1986 488.9739,-367.0014"/>
<text text-anchor="middle" x="428.9113" y="-350.2" font-family="Times,serif" font-size="14.00" fill="#000000">GO:0051186</text>
<text text-anchor="middle" x="428.9113" y="-333.4" font-family="Times,serif" font-size="14.00" fill="#000000">cofactor metabolic</text>
<text text-anchor="middle" x="428.9113" y="-316.6" font-family="Times,serif" font-size="14.00" fill="#000000">process</text>
</g>
<!-- GO:0006778&#45;&gt;GO:0051186 -->
<g id="edge18" class="edge">
<title>GO:0006778&#45;&gt;GO:0051186</title>
<path fill="none" stroke="#000000" d="M429.5727,-264.0472C429.4748,-274.9338 429.3677,-286.849 429.2687,-297.8589"/>
<polygon fill="#000000" stroke="#000000" points="425.767,-298.0431 429.1768,-308.0742 432.7667,-298.1061 425.767,-298.0431"/>
</g>
<!-- GO:0033013 -->
<g id="node18" class="node">
<title>GO:0033013</title>
<polygon fill="#ffffff" stroke="#000000" points="1167.9149,-367.0014 1027.9077,-367.0014 1027.9077,-308.1986 1167.9149,-308.1986 1167.9149,-367.0014"/>
<text text-anchor="middle" x="1097.9113" y="-350.2" font-family="Times,serif" font-size="14.00" fill="#000000">GO:0033013</text>
<text text-anchor="middle" x="1097.9113" y="-333.4" font-family="Times,serif" font-size="14.00" fill="#000000">tetrapyrrole metabolic</text>
<text text-anchor="middle" x="1097.9113" y="-316.6" font-family="Times,serif" font-size="14.00" fill="#000000">process</text>
</g>
<!-- GO:0006778&#45;&gt;GO:0033013 -->
<g id="edge19" class="edge">
<title>GO:0006778&#45;&gt;GO:0033013</title>
<path fill="none" stroke="#000000" d="M497.7765,-261.5276C500.4943,-262.4378 503.2118,-263.2681 505.9113,-264 726.5088,-323.8058 797.8655,-241.8731 1018.9113,-300 1023.8348,-301.2947 1028.8231,-302.8948 1033.775,-304.6983"/>
<polygon fill="#000000" stroke="#000000" points="1032.6382,-308.0117 1043.2263,-308.3902 1035.1852,-301.4915 1032.6382,-308.0117"/>
</g>
<!-- GO:0044710&#45;&gt;GO:0044699 -->
<g id="edge21" class="edge">
<title>GO:0044710&#45;&gt;GO:0044699</title>
<path fill="none" stroke="#000000" d="M363.9113,-581.1963C363.9113,-589.4638 363.9113,-598.4657 363.9113,-606.8008"/>
<polygon fill="#000000" stroke="#000000" points="360.4114,-606.8965 363.9113,-616.8966 367.4114,-606.8966 360.4114,-606.8965"/>
</g>
<!-- GO:0008152 -->
<g id="node19" class="node">
<title>GO:0008152</title>
<polygon fill="#ffffff" stroke="#000000" points="712.0969,-658.2019 595.7257,-658.2019 595.7257,-616.9981 712.0969,-616.9981 712.0969,-658.2019"/>
<text text-anchor="middle" x="653.9113" y="-641.8" font-family="Times,serif" font-size="14.00" fill="#000000">GO:0008152</text>
<text text-anchor="middle" x="653.9113" y="-625" font-family="Times,serif" font-size="14.00" fill="#000000">metabolic process</text>
</g>
<!-- GO:0044710&#45;&gt;GO:0008152 -->
<g id="edge20" class="edge">
<title>GO:0044710&#45;&gt;GO:0008152</title>
<path fill="none" stroke="#000000" d="M446.7024,-578.2917C449.4697,-579.1437 452.2119,-579.9819 454.9113,-580.8 498.1532,-593.9051 546.9346,-607.842 585.3773,-618.6308"/>
<polygon fill="#000000" stroke="#000000" points="584.8507,-622.1179 595.4241,-621.4448 586.7387,-615.3773 584.8507,-622.1179"/>
</g>
<!-- GO:0009058&#45;&gt;GO:0008152 -->
<g id="edge22" class="edge">
<title>GO:0009058&#45;&gt;GO:0008152</title>
<path fill="none" stroke="#000000" d="M559.1703,-572.4182C576.0597,-584.0381 597.2746,-598.634 615.3452,-611.0665"/>
<polygon fill="#000000" stroke="#000000" points="613.7086,-614.1889 623.9309,-616.9735 617.6763,-608.4219 613.7086,-614.1889"/>
</g>
<!-- GO:0033014&#45;&gt;GO:0033013 -->
<g id="edge25" class="edge">
<title>GO:0033014&#45;&gt;GO:0033013</title>
<path fill="none" stroke="#000000" d="M978.4749,-255.6165C999.5058,-270.0525 1025.037,-287.5777 1047.0872,-302.7133"/>
<polygon fill="#000000" stroke="#000000" points="1045.1257,-305.6121 1055.351,-308.3858 1049.0872,-299.8409 1045.1257,-305.6121"/>
</g>
<!-- GO:0044271 -->
<g id="node20" class="node">
<title>GO:0044271</title>
<polygon fill="#ffffff" stroke="#000000" points="1009.4527,-375.3003 862.3699,-375.3003 862.3699,-299.8997 1009.4527,-299.8997 1009.4527,-375.3003"/>
<text text-anchor="middle" x="935.9113" y="-358.6" font-family="Times,serif" font-size="14.00" fill="#000000">GO:0044271</text>
<text text-anchor="middle" x="935.9113" y="-341.8" font-family="Times,serif" font-size="14.00" fill="#000000">cellular nitrogen</text>
<text text-anchor="middle" x="935.9113" y="-325" font-family="Times,serif" font-size="14.00" fill="#000000">compound biosynthetic</text>
<text text-anchor="middle" x="935.9113" y="-308.2" font-family="Times,serif" font-size="14.00" fill="#000000">process</text>
</g>
<!-- GO:0033014&#45;&gt;GO:0044271 -->
<g id="edge23" class="edge">
<title>GO:0033014&#45;&gt;GO:0044271</title>
<path fill="none" stroke="#000000" d="M935.9113,-255.6165C935.9113,-266.0682 935.9113,-278.1391 935.9113,-289.7501"/>
<polygon fill="#000000" stroke="#000000" points="932.4114,-289.783 935.9113,-299.783 939.4114,-289.7831 932.4114,-289.783"/>
</g>
<!-- GO:1901566 -->
<g id="node21" class="node">
<title>GO:1901566</title>
<polygon fill="#ffffff" stroke="#000000" points="1350.0482,-367.0014 1185.7744,-367.0014 1185.7744,-308.1986 1350.0482,-308.1986 1350.0482,-367.0014"/>
<text text-anchor="middle" x="1267.9113" y="-350.2" font-family="Times,serif" font-size="14.00" fill="#000000">GO:1901566</text>
<text text-anchor="middle" x="1267.9113" y="-333.4" font-family="Times,serif" font-size="14.00" fill="#000000">organonitrogen compound</text>
<text text-anchor="middle" x="1267.9113" y="-316.6" font-family="Times,serif" font-size="14.00" fill="#000000">biosynthetic process</text>
</g>
<!-- GO:0033014&#45;&gt;GO:1901566 -->
<g id="edge24" class="edge">
<title>GO:0033014&#45;&gt;GO:1901566</title>
<path fill="none" stroke="#000000" d="M1012.7727,-247.8418C1060.41,-261.6311 1122.6524,-280.5553 1176.9113,-300 1181.0977,-301.5003 1185.3731,-303.0839 1189.676,-304.7185"/>
<polygon fill="#000000" stroke="#000000" points="1188.5268,-308.0266 1199.1162,-308.3658 1191.0496,-301.497 1188.5268,-308.0266"/>
</g>
<!-- GO:0019438 -->
<g id="node22" class="node">
<title>GO:0019438</title>
<polygon fill="#ffffff" stroke="#000000" points="844.8265,-367.0014 714.9961,-367.0014 714.9961,-308.1986 844.8265,-308.1986 844.8265,-367.0014"/>
<text text-anchor="middle" x="779.9113" y="-350.2" font-family="Times,serif" font-size="14.00" fill="#000000">GO:0019438</text>
<text text-anchor="middle" x="779.9113" y="-333.4" font-family="Times,serif" font-size="14.00" fill="#000000">aromatic compound</text>
<text text-anchor="middle" x="779.9113" y="-316.6" font-family="Times,serif" font-size="14.00" fill="#000000">biosynthetic process</text>
</g>
<!-- GO:0033014&#45;&gt;GO:0019438 -->
<g id="edge26" class="edge">
<title>GO:0033014&#45;&gt;GO:0019438</title>
<path fill="none" stroke="#000000" d="M894.9241,-255.6165C874.7614,-269.9889 850.3031,-287.4233 829.1339,-302.5131"/>
<polygon fill="#000000" stroke="#000000" points="827.0067,-299.7312 820.8953,-308.3858 831.0699,-305.4313 827.0067,-299.7312"/>
</g>
<!-- GO:1901362 -->
<g id="node23" class="node">
<title>GO:1901362</title>
<polygon fill="#ffffff" stroke="#000000" points="1525.4227,-367.0014 1368.3999,-367.0014 1368.3999,-308.1986 1525.4227,-308.1986 1525.4227,-367.0014"/>
<text text-anchor="middle" x="1446.9113" y="-350.2" font-family="Times,serif" font-size="14.00" fill="#000000">GO:1901362</text>
<text text-anchor="middle" x="1446.9113" y="-333.4" font-family="Times,serif" font-size="14.00" fill="#000000">organic cyclic compound</text>
<text text-anchor="middle" x="1446.9113" y="-316.6" font-family="Times,serif" font-size="14.00" fill="#000000">biosynthetic process</text>
</g>
<!-- GO:0033014&#45;&gt;GO:1901362 -->
<g id="edge27" class="edge">
<title>GO:0033014&#45;&gt;GO:1901362</title>
<path fill="none" stroke="#000000" d="M1012.7795,-234.3522C1098.492,-244.4624 1240.6283,-264.9561 1358.9113,-300 1363.7648,-301.438 1368.7096,-303.0662 1373.6551,-304.8192"/>
<polygon fill="#000000" stroke="#000000" points="1372.5496,-308.142 1383.1429,-308.3266 1374.9769,-301.5763 1372.5496,-308.142"/>
</g>
<!-- GO:0018130 -->
<g id="node24" class="node">
<title>GO:0018130</title>
<polygon fill="#ffffff" stroke="#000000" points="697.363,-367.0014 544.4596,-367.0014 544.4596,-308.1986 697.363,-308.1986 697.363,-367.0014"/>
<text text-anchor="middle" x="620.9113" y="-350.2" font-family="Times,serif" font-size="14.00" fill="#000000">GO:0018130</text>
<text text-anchor="middle" x="620.9113" y="-333.4" font-family="Times,serif" font-size="14.00" fill="#000000">heterocycle biosynthetic</text>
<text text-anchor="middle" x="620.9113" y="-316.6" font-family="Times,serif" font-size="14.00" fill="#000000">process</text>
</g>
<!-- GO:0033014&#45;&gt;GO:0018130 -->
<g id="edge28" class="edge">
<title>GO:0033014&#45;&gt;GO:0018130</title>
<path fill="none" stroke="#000000" d="M859.0617,-248.7457C814.0262,-262.3966 756.2728,-280.8659 705.9113,-300 702.1992,-301.4104 698.4152,-302.897 694.6076,-304.4323"/>
<polygon fill="#000000" stroke="#000000" points="693.0391,-301.2929 685.1216,-308.3329 695.7013,-307.7669 693.0391,-301.2929"/>
</g>
<!-- GO:0051188&#45;&gt;GO:0051186 -->
<g id="edge30" class="edge">
<title>GO:0051188&#45;&gt;GO:0051186</title>
<path fill="none" stroke="#000000" d="M541.7124,-255.6165C522.0248,-269.9253 498.1616,-287.2691 477.4631,-302.3127"/>
<polygon fill="#000000" stroke="#000000" points="475.1386,-299.6753 469.1071,-308.3858 479.2541,-305.3378 475.1386,-299.6753"/>
</g>
<!-- GO:0044249 -->
<g id="node25" class="node">
<title>GO:0044249</title>
<polygon fill="#ffffff" stroke="#000000" points="581.8237,-478.2014 451.9989,-478.2014 451.9989,-419.3986 581.8237,-419.3986 581.8237,-478.2014"/>
<text text-anchor="middle" x="516.9113" y="-461.4" font-family="Times,serif" font-size="14.00" fill="#000000">GO:0044249</text>
<text text-anchor="middle" x="516.9113" y="-444.6" font-family="Times,serif" font-size="14.00" fill="#000000">cellular biosynthetic</text>
<text text-anchor="middle" x="516.9113" y="-427.8" font-family="Times,serif" font-size="14.00" fill="#000000">process</text>
</g>
<!-- GO:0051188&#45;&gt;GO:0044249 -->
<g id="edge29" class="edge">
<title>GO:0051188&#45;&gt;GO:0044249</title>
<path fill="none" stroke="#000000" d="M559.528,-255.679C550.7591,-268.6053 541.4826,-284.3894 535.9113,-300 523.2259,-335.5443 518.8139,-378.5283 517.3735,-409.1395"/>
<polygon fill="#000000" stroke="#000000" points="513.8651,-409.2918 516.9792,-419.4186 520.86,-409.5601 513.8651,-409.2918"/>
</g>
<!-- GO:0009987&#45;&gt;GO:0008150 -->
<g id="edge31" class="edge">
<title>GO:0009987&#45;&gt;GO:0008150</title>
<path fill="none" stroke="#000000" d="M490.3486,-658.3954C482.0841,-667.1807 472.331,-677.5484 463.4344,-687.0056"/>
<polygon fill="#000000" stroke="#000000" points="460.8306,-684.6654 456.528,-694.3472 465.9292,-689.4617 460.8306,-684.6654"/>
</g>
<!-- GO:0044699&#45;&gt;GO:0008150 -->
<g id="edge32" class="edge">
<title>GO:0044699&#45;&gt;GO:0008150</title>
<path fill="none" stroke="#000000" d="M383.474,-658.3954C391.7385,-667.1807 401.4916,-677.5484 410.3882,-687.0056"/>
<polygon fill="#000000" stroke="#000000" points="407.8934,-689.4617 417.2946,-694.3472 412.992,-684.6654 407.8934,-689.4617"/>
</g>
<!-- GO:0044237 -->
<g id="node26" class="node">
<title>GO:0044237</title>
<polygon fill="#ffffff" stroke="#000000" points="728.0941,-581.0014 611.7285,-581.0014 611.7285,-522.1986 728.0941,-522.1986 728.0941,-581.0014"/>
<text text-anchor="middle" x="669.9113" y="-564.2" font-family="Times,serif" font-size="14.00" fill="#000000">GO:0044237</text>
<text text-anchor="middle" x="669.9113" y="-547.4" font-family="Times,serif" font-size="14.00" fill="#000000">cellular metabolic</text>
<text text-anchor="middle" x="669.9113" y="-530.6" font-family="Times,serif" font-size="14.00" fill="#000000">process</text>
</g>
<!-- GO:0051186&#45;&gt;GO:0044237 -->
<g id="edge33" class="edge">
<title>GO:0051186&#45;&gt;GO:0044237</title>
<path fill="none" stroke="#000000" d="M422.4798,-366.9561C417.0663,-400.1391 414.1994,-453.7723 442.9113,-486.4 488.9942,-538.7679 529.9662,-503.1164 601.8292,-522.4983"/>
<polygon fill="#000000" stroke="#000000" points="601.1149,-525.9379 611.6988,-525.4547 603.1236,-519.2323 601.1149,-525.9379"/>
</g>
<!-- GO:1901564 -->
<g id="node27" class="node">
<title>GO:1901564</title>
<polygon fill="#ffffff" stroke="#000000" points="1226.0482,-478.2014 1061.7744,-478.2014 1061.7744,-419.3986 1226.0482,-419.3986 1226.0482,-478.2014"/>
<text text-anchor="middle" x="1143.9113" y="-461.4" font-family="Times,serif" font-size="14.00" fill="#000000">GO:1901564</text>
<text text-anchor="middle" x="1143.9113" y="-444.6" font-family="Times,serif" font-size="14.00" fill="#000000">organonitrogen compound</text>
<text text-anchor="middle" x="1143.9113" y="-427.8" font-family="Times,serif" font-size="14.00" fill="#000000">metabolic process</text>
</g>
<!-- GO:0033013&#45;&gt;GO:1901564 -->
<g id="edge34" class="edge">
<title>GO:0033013&#45;&gt;GO:1901564</title>
<path fill="none" stroke="#000000" d="M1109.9973,-366.8165C1115.4475,-379.9919 1121.9622,-395.7405 1127.8184,-409.8973"/>
<polygon fill="#000000" stroke="#000000" points="1124.6895,-411.4899 1131.7463,-419.3926 1131.158,-408.8141 1124.6895,-411.4899"/>
</g>
<!-- GO:0006725 -->
<g id="node28" class="node">
<title>GO:0006725</title>
<polygon fill="#ffffff" stroke="#000000" points="891.7228,-486.5003 758.0998,-486.5003 758.0998,-411.0997 891.7228,-411.0997 891.7228,-486.5003"/>
<text text-anchor="middle" x="824.9113" y="-469.8" font-family="Times,serif" font-size="14.00" fill="#000000">GO:0006725</text>
<text text-anchor="middle" x="824.9113" y="-453" font-family="Times,serif" font-size="14.00" fill="#000000">cellular aromatic</text>
<text text-anchor="middle" x="824.9113" y="-436.2" font-family="Times,serif" font-size="14.00" fill="#000000">compound metabolic</text>
<text text-anchor="middle" x="824.9113" y="-419.4" font-family="Times,serif" font-size="14.00" fill="#000000">process</text>
</g>
<!-- GO:0033013&#45;&gt;GO:0006725 -->
<g id="edge35" class="edge">
<title>GO:0033013&#45;&gt;GO:0006725</title>
<path fill="none" stroke="#000000" d="M1038.7967,-366.8913C1032.1489,-369.8389 1025.4252,-372.6722 1018.9113,-375.2 970.5898,-393.9515 953.7223,-391.3483 901.255,-411.2847"/>
<polygon fill="#000000" stroke="#000000" points="899.8241,-408.0859 891.7787,-414.9795 902.367,-414.6077 899.8241,-408.0859"/>
</g>
<!-- GO:1901360 -->
<g id="node29" class="node">
<title>GO:1901360</title>
<polygon fill="#ffffff" stroke="#000000" points="1401.4227,-478.2014 1244.3999,-478.2014 1244.3999,-419.3986 1401.4227,-419.3986 1401.4227,-478.2014"/>
<text text-anchor="middle" x="1322.9113" y="-461.4" font-family="Times,serif" font-size="14.00" fill="#000000">GO:1901360</text>
<text text-anchor="middle" x="1322.9113" y="-444.6" font-family="Times,serif" font-size="14.00" fill="#000000">organic cyclic compound</text>
<text text-anchor="middle" x="1322.9113" y="-427.8" font-family="Times,serif" font-size="14.00" fill="#000000">metabolic process</text>
</g>
<!-- GO:0033013&#45;&gt;GO:1901360 -->
<g id="edge36" class="edge">
<title>GO:0033013&#45;&gt;GO:1901360</title>
<path fill="none" stroke="#000000" d="M1157.0274,-366.8165C1187.009,-381.6341 1223.5759,-399.7063 1254.7403,-415.1084"/>
<polygon fill="#000000" stroke="#000000" points="1253.2841,-418.2928 1263.7998,-419.5858 1256.3856,-412.0174 1253.2841,-418.2928"/>
</g>
<!-- GO:0046483 -->
<g id="node30" class="node">
<title>GO:0046483</title>
<polygon fill="#ffffff" stroke="#000000" points="739.6325,-478.2014 600.1901,-478.2014 600.1901,-419.3986 739.6325,-419.3986 739.6325,-478.2014"/>
<text text-anchor="middle" x="669.9113" y="-461.4" font-family="Times,serif" font-size="14.00" fill="#000000">GO:0046483</text>
<text text-anchor="middle" x="669.9113" y="-444.6" font-family="Times,serif" font-size="14.00" fill="#000000">heterocycle metabolic</text>
<text text-anchor="middle" x="669.9113" y="-427.8" font-family="Times,serif" font-size="14.00" fill="#000000">process</text>
</g>
<!-- GO:0033013&#45;&gt;GO:0046483 -->
<g id="edge37" class="edge">
<title>GO:0033013&#45;&gt;GO:0046483</title>
<path fill="none" stroke="#000000" d="M1041.7912,-366.8967C1034.2393,-370.0684 1026.4837,-372.9536 1018.9113,-375.2 902.8487,-409.6308 864.9739,-376.7692 748.9113,-411.2 744.5335,-412.4987 740.0945,-414.0109 735.669,-415.6685"/>
<polygon fill="#000000" stroke="#000000" points="734.0289,-412.5542 726.0314,-419.5033 736.6168,-419.0582 734.0289,-412.5542"/>
</g>
<!-- GO:0008152&#45;&gt;GO:0008150 -->
<g id="edge38" class="edge">
<title>GO:0008152&#45;&gt;GO:0008150</title>
<path fill="none" stroke="#000000" d="M596.0443,-658.2934C567.844,-668.378 533.7611,-680.5662 504.384,-691.0715"/>
<polygon fill="#000000" stroke="#000000" points="502.8545,-687.9013 494.617,-694.5642 505.2116,-694.4926 502.8545,-687.9013"/>
</g>
<!-- GO:0044271&#45;&gt;GO:0044249 -->
<g id="edge39" class="edge">
<title>GO:0044271&#45;&gt;GO:0044249</title>
<path fill="none" stroke="#000000" d="M862.0894,-372.6275C859.3499,-373.5505 856.6182,-374.4129 853.9113,-375.2 740.6248,-408.1423 703.5131,-375.9885 590.9113,-411.2 586.8883,-412.458 582.8186,-413.9194 578.7654,-415.5213"/>
<polygon fill="#000000" stroke="#000000" points="577.2216,-412.3738 569.3673,-419.4844 579.9416,-418.8237 577.2216,-412.3738"/>
</g>
<!-- GO:0034641 -->
<g id="node31" class="node">
<title>GO:0034641</title>
<polygon fill="#ffffff" stroke="#000000" points="1043.7228,-486.5003 910.0998,-486.5003 910.0998,-411.0997 1043.7228,-411.0997 1043.7228,-486.5003"/>
<text text-anchor="middle" x="976.9113" y="-469.8" font-family="Times,serif" font-size="14.00" fill="#000000">GO:0034641</text>
<text text-anchor="middle" x="976.9113" y="-453" font-family="Times,serif" font-size="14.00" fill="#000000">cellular nitrogen</text>
<text text-anchor="middle" x="976.9113" y="-436.2" font-family="Times,serif" font-size="14.00" fill="#000000">compound metabolic</text>
<text text-anchor="middle" x="976.9113" y="-419.4" font-family="Times,serif" font-size="14.00" fill="#000000">process</text>
</g>
<!-- GO:0044271&#45;&gt;GO:0034641 -->
<g id="edge40" class="edge">
<title>GO:0044271&#45;&gt;GO:0034641</title>
<path fill="none" stroke="#000000" d="M949.792,-375.2472C952.9312,-383.7612 956.3023,-392.9042 959.5642,-401.7514"/>
<polygon fill="#000000" stroke="#000000" points="956.3015,-403.0198 963.0449,-411.1915 962.8693,-400.5981 956.3015,-403.0198"/>
</g>
<!-- GO:1901566&#45;&gt;GO:1901564 -->
<g id="edge42" class="edge">
<title>GO:1901566&#45;&gt;GO:1901564</title>
<path fill="none" stroke="#000000" d="M1235.3318,-366.8165C1219.7921,-380.7521 1201.0424,-397.5663 1184.5784,-412.3308"/>
<polygon fill="#000000" stroke="#000000" points="1181.8119,-410.1104 1176.7038,-419.3926 1186.4854,-415.3219 1181.8119,-410.1104"/>
</g>
<!-- GO:1901576 -->
<g id="node32" class="node">
<title>GO:1901576</title>
<polygon fill="#ffffff" stroke="#000000" points="1549.8265,-478.2014 1419.9961,-478.2014 1419.9961,-419.3986 1549.8265,-419.3986 1549.8265,-478.2014"/>
<text text-anchor="middle" x="1484.9113" y="-461.4" font-family="Times,serif" font-size="14.00" fill="#000000">GO:1901576</text>
<text text-anchor="middle" x="1484.9113" y="-444.6" font-family="Times,serif" font-size="14.00" fill="#000000">organic substance</text>
<text text-anchor="middle" x="1484.9113" y="-427.8" font-family="Times,serif" font-size="14.00" fill="#000000">biosynthetic process</text>
</g>
<!-- GO:1901566&#45;&gt;GO:1901576 -->
<g id="edge41" class="edge">
<title>GO:1901566&#45;&gt;GO:1901576</title>
<path fill="none" stroke="#000000" d="M1324.9255,-366.8165C1353.717,-381.5705 1388.8053,-399.5512 1418.7769,-414.9099"/>
<polygon fill="#000000" stroke="#000000" points="1417.4058,-418.1401 1427.9015,-419.5858 1420.5982,-411.9104 1417.4058,-418.1401"/>
</g>
<!-- GO:0019438&#45;&gt;GO:0044249 -->
<g id="edge43" class="edge">
<title>GO:0019438&#45;&gt;GO:0044249</title>
<path fill="none" stroke="#000000" d="M724.614,-366.9469C718.3728,-369.884 712.0505,-372.6998 705.9113,-375.2 656.31,-395.4005 640.5126,-390.9995 590.9113,-411.2 587.7458,-412.4892 584.5316,-413.8623 581.3049,-415.2926"/>
<polygon fill="#000000" stroke="#000000" points="579.8467,-412.1108 572.2086,-419.4531 582.7583,-418.4765 579.8467,-412.1108"/>
</g>
<!-- GO:0019438&#45;&gt;GO:0006725 -->
<g id="edge44" class="edge">
<title>GO:0019438&#45;&gt;GO:0006725</title>
<path fill="none" stroke="#000000" d="M791.7345,-366.8165C796.0495,-377.4793 801.0465,-389.8274 805.8321,-401.6532"/>
<polygon fill="#000000" stroke="#000000" points="802.612,-403.0262 809.6077,-410.983 809.1008,-400.4003 802.612,-403.0262"/>
</g>
<!-- GO:1901362&#45;&gt;GO:1901360 -->
<g id="edge46" class="edge">
<title>GO:1901362&#45;&gt;GO:1901360</title>
<path fill="none" stroke="#000000" d="M1414.3318,-366.8165C1398.7921,-380.7521 1380.0424,-397.5663 1363.5784,-412.3308"/>
<polygon fill="#000000" stroke="#000000" points="1360.8119,-410.1104 1355.7038,-419.3926 1365.4854,-415.3219 1360.8119,-410.1104"/>
</g>
<!-- GO:1901362&#45;&gt;GO:1901576 -->
<g id="edge45" class="edge">
<title>GO:1901362&#45;&gt;GO:1901576</title>
<path fill="none" stroke="#000000" d="M1456.8954,-366.8165C1461.3978,-379.9919 1466.7795,-395.7405 1471.6172,-409.8973"/>
<polygon fill="#000000" stroke="#000000" points="1468.3163,-411.0616 1474.862,-419.3926 1474.9402,-408.798 1468.3163,-411.0616"/>
</g>
<!-- GO:0018130&#45;&gt;GO:0044249 -->
<g id="edge47" class="edge">
<title>GO:0018130&#45;&gt;GO:0044249</title>
<path fill="none" stroke="#000000" d="M593.5865,-366.8165C580.6717,-380.6254 565.1134,-397.2608 551.3963,-411.9276"/>
<polygon fill="#000000" stroke="#000000" points="548.6891,-409.6982 544.4147,-419.3926 553.8016,-414.4797 548.6891,-409.6982"/>
</g>
<!-- GO:0018130&#45;&gt;GO:0046483 -->
<g id="edge48" class="edge">
<title>GO:0018130&#45;&gt;GO:0046483</title>
<path fill="none" stroke="#000000" d="M633.7855,-366.8165C639.5912,-379.9919 646.5308,-395.7405 652.7689,-409.8973"/>
<polygon fill="#000000" stroke="#000000" points="649.7177,-411.6529 656.953,-419.3926 656.1234,-408.8302 649.7177,-411.6529"/>
</g>
<!-- GO:0044249&#45;&gt;GO:0009058 -->
<g id="edge49" class="edge">
<title>GO:0044249&#45;&gt;GO:0009058</title>
<path fill="none" stroke="#000000" d="M520.35,-478.2584C521.902,-491.5539 523.7355,-507.2608 525.3068,-520.7212"/>
<polygon fill="#000000" stroke="#000000" points="521.8644,-521.4189 526.5003,-530.9456 528.8172,-520.6072 521.8644,-521.4189"/>
</g>
<!-- GO:0044249&#45;&gt;GO:0044237 -->
<g id="edge50" class="edge">
<title>GO:0044249&#45;&gt;GO:0044237</title>
<path fill="none" stroke="#000000" d="M560.755,-478.2584C578.597,-490.2464 599.3567,-504.1947 617.9525,-516.6891"/>
<polygon fill="#000000" stroke="#000000" points="616.0735,-519.6433 626.3259,-522.3152 619.9775,-513.833 616.0735,-519.6433"/>
</g>
<!-- GO:0044237&#45;&gt;GO:0009987 -->
<g id="edge51" class="edge">
<title>GO:0044237&#45;&gt;GO:0009987</title>
<path fill="none" stroke="#000000" d="M615.2959,-580.9558C596.6399,-590.9834 575.9292,-602.1154 557.8401,-611.8383"/>
<polygon fill="#000000" stroke="#000000" points="555.7956,-608.9636 548.6444,-616.7809 559.1098,-615.1293 555.7956,-608.9636"/>
</g>
<!-- GO:0044237&#45;&gt;GO:0008152 -->
<g id="edge52" class="edge">
<title>GO:0044237&#45;&gt;GO:0008152</title>
<path fill="none" stroke="#000000" d="M664.405,-581.1963C662.8669,-589.4638 661.1921,-598.4657 659.6414,-606.8008"/>
<polygon fill="#000000" stroke="#000000" points="656.1513,-606.425 657.7631,-616.8966 663.0332,-607.7055 656.1513,-606.425"/>
</g>
<!-- GO:0071704 -->
<g id="node33" class="node">
<title>GO:0071704</title>
<polygon fill="#ffffff" stroke="#000000" points="1291.0969,-581.0014 1174.7257,-581.0014 1174.7257,-522.1986 1291.0969,-522.1986 1291.0969,-581.0014"/>
<text text-anchor="middle" x="1232.9113" y="-564.2" font-family="Times,serif" font-size="14.00" fill="#000000">GO:0071704</text>
<text text-anchor="middle" x="1232.9113" y="-547.4" font-family="Times,serif" font-size="14.00" fill="#000000">organic substance</text>
<text text-anchor="middle" x="1232.9113" y="-530.6" font-family="Times,serif" font-size="14.00" fill="#000000">metabolic process</text>
</g>
<!-- GO:1901564&#45;&gt;GO:0071704 -->
<g id="edge53" class="edge">
<title>GO:1901564&#45;&gt;GO:0071704</title>
<path fill="none" stroke="#000000" d="M1169.4151,-478.2584C1179.1907,-489.5497 1190.4719,-502.5801 1200.7888,-514.4967"/>
<polygon fill="#000000" stroke="#000000" points="1198.2122,-516.8679 1207.4037,-522.1373 1203.5044,-512.2861 1198.2122,-516.8679"/>
</g>
<!-- GO:0006807 -->
<g id="node34" class="node">
<title>GO:0006807</title>
<polygon fill="#ffffff" stroke="#000000" points="1039.6732,-581.0014 914.1494,-581.0014 914.1494,-522.1986 1039.6732,-522.1986 1039.6732,-581.0014"/>
<text text-anchor="middle" x="976.9113" y="-564.2" font-family="Times,serif" font-size="14.00" fill="#000000">GO:0006807</text>
<text text-anchor="middle" x="976.9113" y="-547.4" font-family="Times,serif" font-size="14.00" fill="#000000">nitrogen compound</text>
<text text-anchor="middle" x="976.9113" y="-530.6" font-family="Times,serif" font-size="14.00" fill="#000000">metabolic process</text>
</g>
<!-- GO:1901564&#45;&gt;GO:0006807 -->
<g id="edge54" class="edge">
<title>GO:1901564&#45;&gt;GO:0006807</title>
<path fill="none" stroke="#000000" d="M1096.0558,-478.2584C1076.4057,-490.3544 1053.5134,-504.4462 1033.0765,-517.0264"/>
<polygon fill="#000000" stroke="#000000" points="1031.166,-514.0925 1024.4849,-522.3152 1034.8355,-520.0536 1031.166,-514.0925"/>
</g>
<!-- GO:0006725&#45;&gt;GO:0044237 -->
<g id="edge55" class="edge">
<title>GO:0006725&#45;&gt;GO:0044237</title>
<path fill="none" stroke="#000000" d="M768.0752,-486.4952C753.1968,-496.3629 737.2222,-506.9577 722.5719,-516.6741"/>
<polygon fill="#000000" stroke="#000000" points="720.5166,-513.8374 714.1174,-522.2814 724.3857,-519.671 720.5166,-513.8374"/>
</g>
<!-- GO:1901360&#45;&gt;GO:0071704 -->
<g id="edge56" class="edge">
<title>GO:1901360&#45;&gt;GO:0071704</title>
<path fill="none" stroke="#000000" d="M1297.1209,-478.2584C1287.2355,-489.5497 1275.8275,-502.5801 1265.3947,-514.4967"/>
<polygon fill="#000000" stroke="#000000" points="1262.6592,-512.3079 1258.7055,-522.1373 1267.926,-516.9189 1262.6592,-512.3079"/>
</g>
<!-- GO:0046483&#45;&gt;GO:0044237 -->
<g id="edge57" class="edge">
<title>GO:0046483&#45;&gt;GO:0044237</title>
<path fill="none" stroke="#000000" d="M669.9113,-478.2584C669.9113,-488.7969 669.9113,-500.8505 669.9113,-512.0994"/>
<polygon fill="#000000" stroke="#000000" points="666.4114,-512.1373 669.9113,-522.1373 673.4114,-512.1374 666.4114,-512.1373"/>
</g>
<!-- GO:0034641&#45;&gt;GO:0044237 -->
<g id="edge59" class="edge">
<title>GO:0034641&#45;&gt;GO:0044237</title>
<path fill="none" stroke="#000000" d="M910.075,-482.6999C906.9983,-483.9965 903.9339,-485.2371 900.9113,-486.4 847.4669,-506.9609 784.8389,-524.2349 738.2859,-535.8262"/>
<polygon fill="#000000" stroke="#000000" points="737.18,-532.494 728.308,-538.2851 738.855,-539.2906 737.18,-532.494"/>
</g>
<!-- GO:0034641&#45;&gt;GO:0006807 -->
<g id="edge58" class="edge">
<title>GO:0034641&#45;&gt;GO:0006807</title>
<path fill="none" stroke="#000000" d="M976.9113,-486.4952C976.9113,-494.8874 976.9113,-503.8054 976.9113,-512.2618"/>
<polygon fill="#000000" stroke="#000000" points="973.4114,-512.2813 976.9113,-522.2814 980.4114,-512.2814 973.4114,-512.2813"/>
</g>
<!-- GO:1901576&#45;&gt;GO:0009058 -->
<g id="edge61" class="edge">
<title>GO:1901576&#45;&gt;GO:0009058</title>
<path fill="none" stroke="#000000" d="M1434.2751,-478.0291C1426.6464,-481.3919 1418.7155,-484.3463 1410.9113,-486.4 1063.2791,-577.8804 954.4679,-447.4017 602.9113,-522.4 596.7064,-523.7237 590.3455,-525.5126 584.0845,-527.5571"/>
<polygon fill="#000000" stroke="#000000" points="582.6524,-524.3498 574.3647,-530.9501 584.9595,-530.9587 582.6524,-524.3498"/>
</g>
<!-- GO:1901576&#45;&gt;GO:0071704 -->
<g id="edge60" class="edge">
<title>GO:1901576&#45;&gt;GO:0071704</title>
<path fill="none" stroke="#000000" d="M1429.0844,-478.0476C1422.9989,-480.9712 1416.857,-483.8115 1410.9113,-486.4 1375.2082,-501.9438 1334.4841,-517.0471 1301.0072,-528.7968"/>
<polygon fill="#000000" stroke="#000000" points="1299.6073,-525.5782 1291.3171,-532.1755 1301.912,-532.1879 1299.6073,-525.5782"/>
</g>
<!-- GO:0071704&#45;&gt;GO:0008152 -->
<g id="edge63" class="edge">
<title>GO:0071704&#45;&gt;GO:0008152</title>
<path fill="none" stroke="#000000" d="M1174.5233,-561.0884C1138.3658,-566.909 1090.9657,-574.4398 1048.9113,-580.8 934.5104,-598.1018 801.2715,-617.0018 722.4574,-628.0519"/>
<polygon fill="#000000" stroke="#000000" points="721.5951,-624.6384 712.1774,-629.4919 722.5662,-631.5707 721.5951,-624.6384"/>
</g>
<!-- GO:0006807&#45;&gt;GO:0008152 -->
<g id="edge64" class="edge">
<title>GO:0006807&#45;&gt;GO:0008152</title>
<path fill="none" stroke="#000000" d="M914.2507,-568.2836C859.1291,-582.96 779.0474,-604.282 722.2832,-619.3957"/>
<polygon fill="#000000" stroke="#000000" points="721.084,-616.093 712.3212,-622.0481 722.8851,-622.8573 721.084,-616.093"/>
</g>
<!-- GO:0046501 -->
<g id="node35" class="node">
<title>GO:0046501</title>
<polygon fill="#ffffff" stroke="#000000" points="504.1563,-144.6014 357.6663,-144.6014 357.6663,-85.7986 504.1563,-85.7986 504.1563,-144.6014"/>
<text text-anchor="middle" x="430.9113" y="-127.8" font-family="Times,serif" font-size="14.00" fill="#000000">GO:0046501</text>
<text text-anchor="middle" x="430.9113" y="-111" font-family="Times,serif" font-size="14.00" fill="#000000">protoporphyrinogen IX</text>
<text text-anchor="middle" x="430.9113" y="-94.2" font-family="Times,serif" font-size="14.00" fill="#000000">metabolic process</text>
</g>
<!-- GO:0046501&#45;&gt;GO:0006778 -->
<g id="edge62" class="edge">
<title>GO:0046501&#45;&gt;GO:0006778</title>
<path fill="none" stroke="#000000" d="M430.6486,-144.4165C430.5546,-154.8682 430.446,-166.9391 430.3416,-178.5501"/>
<polygon fill="#000000" stroke="#000000" points="426.8415,-178.5519 430.2514,-188.583 433.8413,-178.6149 426.8415,-178.5519"/>
</g>
</g>
</svg>
