<?xml version="1.0" encoding="UTF-8" standalone="no"?>
<!DOCTYPE svg PUBLIC "-//W3C//DTD SVG 1.1//EN"
 "http://www.w3.org/Graphics/SVG/1.1/DTD/svg11.dtd">
<!-- Generated by graphviz version 2.40.1 (20161225.0304)
 -->
<!-- Title: G Pages: 1 -->
<svg width="725pt" height="488pt"
 viewBox="0.00 0.00 725.07 488.00" xmlns="http://www.w3.org/2000/svg" xmlns:xlink="http://www.w3.org/1999/xlink">
<g id="graph0" class="graph" transform="scale(1 1) rotate(0) translate(4 484)">
<title>G</title>
<polygon fill="#ffffff" stroke="transparent" points="-4,4 -4,-484 721.0688,-484 721.0688,4 -4,4"/>
<!-- GO:0005737 -->
<g id="node1" class="node">
<title>GO:0005737</title>
<polygon fill="#ffffff" stroke="#000000" points="216.0622,-221.8019 126.8544,-221.8019 126.8544,-180.5981 216.0622,-180.5981 216.0622,-221.8019"/>
<text text-anchor="middle" x="171.4583" y="-205.4" font-family="Times,serif" font-size="14.00" fill="#000000">GO:0005737</text>
<text text-anchor="middle" x="171.4583" y="-188.6" font-family="Times,serif" font-size="14.00" fill="#000000">cytoplasm</text>
</g>
<!-- GO:0044424 -->
<g id="node2" class="node">
<title>GO:0044424</title>
<polygon fill="#ffffff" stroke="#000000" points="166.8567,-316.2019 58.0599,-316.2019 58.0599,-274.9981 166.8567,-274.9981 166.8567,-316.2019"/>
<text text-anchor="middle" x="112.4583" y="-299.8" font-family="Times,serif" font-size="14.00" fill="#000000">GO:0044424</text>
<text text-anchor="middle" x="112.4583" y="-283" font-family="Times,serif" font-size="14.00" fill="#000000">intracellular part</text>
</g>
<!-- GO:0005737&#45;&gt;GO:0044424 -->
<g id="edge1" class="edge">
<title>GO:0005737&#45;&gt;GO:0044424</title>
<path fill="none" stroke="#000000" d="M158.3643,-222.1504C150.2675,-235.1054 139.7529,-251.9287 130.83,-266.2053"/>
<polygon fill="#000000" stroke="#000000" points="127.8477,-264.3731 125.5157,-274.7081 133.7837,-268.0832 127.8477,-264.3731"/>
</g>
<!-- GO:0044464 -->
<g id="node3" class="node">
<title>GO:0044464</title>
<polygon fill="#ffffff" stroke="#000000" points="309.0622,-402.2019 219.8544,-402.2019 219.8544,-360.9981 309.0622,-360.9981 309.0622,-402.2019"/>
<text text-anchor="middle" x="264.4583" y="-385.8" font-family="Times,serif" font-size="14.00" fill="#000000">GO:0044464</text>
<text text-anchor="middle" x="264.4583" y="-369" font-family="Times,serif" font-size="14.00" fill="#000000">cell part</text>
</g>
<!-- GO:0044424&#45;&gt;GO:0044464 -->
<g id="edge2" class="edge">
<title>GO:0044424&#45;&gt;GO:0044464</title>
<path fill="none" stroke="#000000" d="M149.2533,-316.4182C170.2575,-328.3022 196.7634,-343.299 219.0542,-355.9108"/>
<polygon fill="#000000" stroke="#000000" points="217.5751,-359.0953 228.0022,-360.9735 221.0222,-353.0029 217.5751,-359.0953"/>
</g>
<!-- GO:0005575 -->
<g id="node4" class="node">
<title>GO:0005575</title>
<polygon fill="#ffffff" stroke="#000000" points="494.145,-479.8019 366.7716,-479.8019 366.7716,-438.5981 494.145,-438.5981 494.145,-479.8019"/>
<text text-anchor="middle" x="430.4583" y="-463.4" font-family="Times,serif" font-size="14.00" fill="#000000">GO:0005575</text>
<text text-anchor="middle" x="430.4583" y="-446.6" font-family="Times,serif" font-size="14.00" fill="#000000">cellular_component</text>
</g>
<!-- GO:0044464&#45;&gt;GO:0005575 -->
<g id="edge3" class="edge">
<title>GO:0044464&#45;&gt;GO:0005575</title>
<path fill="none" stroke="#000000" d="M308.9433,-402.3954C329.8674,-412.1768 354.9877,-423.9198 376.944,-434.1837"/>
<polygon fill="#000000" stroke="#000000" points="375.5974,-437.4177 386.1386,-438.4819 378.5618,-431.0763 375.5974,-437.4177"/>
</g>
<!-- GO:0005618 -->
<g id="node5" class="node">
<title>GO:0005618</title>
<polygon fill="#ffffff" stroke="#000000" points="480.0622,-221.8019 390.8544,-221.8019 390.8544,-180.5981 480.0622,-180.5981 480.0622,-221.8019"/>
<text text-anchor="middle" x="435.4583" y="-205.4" font-family="Times,serif" font-size="14.00" fill="#000000">GO:0005618</text>
<text text-anchor="middle" x="435.4583" y="-188.6" font-family="Times,serif" font-size="14.00" fill="#000000">cell wall</text>
</g>
<!-- GO:0030312 -->
<g id="node6" class="node">
<title>GO:0030312</title>
<polygon fill="#ffffff" stroke="#000000" points="326.0194,-325.0014 184.8972,-325.0014 184.8972,-266.1986 326.0194,-266.1986 326.0194,-325.0014"/>
<text text-anchor="middle" x="255.4583" y="-308.2" font-family="Times,serif" font-size="14.00" fill="#000000">GO:0030312</text>
<text text-anchor="middle" x="255.4583" y="-291.4" font-family="Times,serif" font-size="14.00" fill="#000000">external encapsulating</text>
<text text-anchor="middle" x="255.4583" y="-274.6" font-family="Times,serif" font-size="14.00" fill="#000000">structure</text>
</g>
<!-- GO:0005618&#45;&gt;GO:0030312 -->
<g id="edge4" class="edge">
<title>GO:0005618&#45;&gt;GO:0030312</title>
<path fill="none" stroke="#000000" d="M398.1801,-221.9167C392.9149,-224.7906 387.5593,-227.6862 382.4583,-230.4 363.097,-240.7006 341.9469,-251.6701 322.5579,-261.6154"/>
<polygon fill="#000000" stroke="#000000" points="320.7987,-258.584 313.4925,-266.2568 323.9888,-264.8148 320.7987,-258.584"/>
</g>
<!-- GO:0030312&#45;&gt;GO:0044464 -->
<g id="edge5" class="edge">
<title>GO:0030312&#45;&gt;GO:0044464</title>
<path fill="none" stroke="#000000" d="M258.5556,-325.1963C259.4208,-333.4638 260.3629,-342.4657 261.2351,-350.8008"/>
<polygon fill="#000000" stroke="#000000" points="257.7698,-351.3152 262.2917,-360.8966 264.7317,-350.5865 257.7698,-351.3152"/>
</g>
<!-- GO:0005886 -->
<g id="node7" class="node">
<title>GO:0005886</title>
<polygon fill="#ffffff" stroke="#000000" points="462.6991,-316.2019 344.2175,-316.2019 344.2175,-274.9981 462.6991,-274.9981 462.6991,-316.2019"/>
<text text-anchor="middle" x="403.4583" y="-299.8" font-family="Times,serif" font-size="14.00" fill="#000000">GO:0005886</text>
<text text-anchor="middle" x="403.4583" y="-283" font-family="Times,serif" font-size="14.00" fill="#000000">plasma membrane</text>
</g>
<!-- GO:0005886&#45;&gt;GO:0044464 -->
<g id="edge7" class="edge">
<title>GO:0005886&#45;&gt;GO:0044464</title>
<path fill="none" stroke="#000000" d="M369.8103,-316.4182C350.7732,-328.1966 326.794,-343.0326 306.5237,-355.5739"/>
<polygon fill="#000000" stroke="#000000" points="304.4589,-352.7356 297.7965,-360.9735 308.1419,-358.6884 304.4589,-352.7356"/>
</g>
<!-- GO:0016020 -->
<g id="node8" class="node">
<title>GO:0016020</title>
<polygon fill="#ffffff" stroke="#000000" points="421.0622,-402.2019 331.8544,-402.2019 331.8544,-360.9981 421.0622,-360.9981 421.0622,-402.2019"/>
<text text-anchor="middle" x="376.4583" y="-385.8" font-family="Times,serif" font-size="14.00" fill="#000000">GO:0016020</text>
<text text-anchor="middle" x="376.4583" y="-369" font-family="Times,serif" font-size="14.00" fill="#000000">membrane</text>
</g>
<!-- GO:0005886&#45;&gt;GO:0016020 -->
<g id="edge6" class="edge">
<title>GO:0005886&#45;&gt;GO:0016020</title>
<path fill="none" stroke="#000000" d="M396.9224,-316.4182C393.6391,-326.8761 389.599,-339.7446 385.9783,-351.277"/>
<polygon fill="#000000" stroke="#000000" points="382.5902,-350.3843 382.9341,-360.9735 389.2688,-352.4811 382.5902,-350.3843"/>
</g>
<!-- GO:0016020&#45;&gt;GO:0005575 -->
<g id="edge8" class="edge">
<title>GO:0016020&#45;&gt;GO:0005575</title>
<path fill="none" stroke="#000000" d="M390.9293,-402.3954C396.8007,-410.8328 403.6877,-420.7297 410.0537,-429.8778"/>
<polygon fill="#000000" stroke="#000000" points="407.3625,-432.1382 415.9473,-438.3472 413.1083,-428.1398 407.3625,-432.1382"/>
</g>
<!-- GO:0005758 -->
<g id="node9" class="node">
<title>GO:0005758</title>
<polygon fill="#ffffff" stroke="#000000" points="371.2891,-58.6014 235.6275,-58.6014 235.6275,.2014 371.2891,.2014 371.2891,-58.6014"/>
<text text-anchor="middle" x="303.4583" y="-41.8" font-family="Times,serif" font-size="14.00" fill="#000000">GO:0005758</text>
<text text-anchor="middle" x="303.4583" y="-25" font-family="Times,serif" font-size="14.00" fill="#000000">mitochondrial</text>
<text text-anchor="middle" x="303.4583" y="-8.2" font-family="Times,serif" font-size="14.00" fill="#000000">intermembrane space</text>
</g>
<!-- GO:0031970 -->
<g id="node10" class="node">
<title>GO:0031970</title>
<polygon fill="#ffffff" stroke="#000000" points="462.5746,-135.8019 302.342,-135.8019 302.342,-94.5981 462.5746,-94.5981 462.5746,-135.8019"/>
<text text-anchor="middle" x="382.4583" y="-119.4" font-family="Times,serif" font-size="14.00" fill="#000000">GO:0031970</text>
<text text-anchor="middle" x="382.4583" y="-102.6" font-family="Times,serif" font-size="14.00" fill="#000000">organelle envelope lumen</text>
</g>
<!-- GO:0005758&#45;&gt;GO:0031970 -->
<g id="edge9" class="edge">
<title>GO:0005758&#45;&gt;GO:0031970</title>
<path fill="none" stroke="#000000" d="M330.6456,-58.7963C338.9996,-67.8905 348.17,-77.8734 356.4434,-86.88"/>
<polygon fill="#000000" stroke="#000000" points="354.0974,-89.4999 363.44,-94.4966 359.2525,-84.7643 354.0974,-89.4999"/>
</g>
<!-- GO:0044429 -->
<g id="node11" class="node">
<title>GO:0044429</title>
<polygon fill="#ffffff" stroke="#000000" points="284.2671,-135.8019 164.6495,-135.8019 164.6495,-94.5981 284.2671,-94.5981 284.2671,-135.8019"/>
<text text-anchor="middle" x="224.4583" y="-119.4" font-family="Times,serif" font-size="14.00" fill="#000000">GO:0044429</text>
<text text-anchor="middle" x="224.4583" y="-102.6" font-family="Times,serif" font-size="14.00" fill="#000000">mitochondrial part</text>
</g>
<!-- GO:0005758&#45;&gt;GO:0044429 -->
<g id="edge10" class="edge">
<title>GO:0005758&#45;&gt;GO:0044429</title>
<path fill="none" stroke="#000000" d="M276.271,-58.7963C267.917,-67.8905 258.7466,-77.8734 250.4732,-86.88"/>
<polygon fill="#000000" stroke="#000000" points="247.6641,-84.7643 243.4766,-94.4966 252.8192,-89.4999 247.6641,-84.7643"/>
</g>
<!-- GO:0044446 -->
<g id="node12" class="node">
<title>GO:0044446</title>
<polygon fill="#ffffff" stroke="#000000" points="373.1767,-230.6014 233.7399,-230.6014 233.7399,-171.7986 373.1767,-171.7986 373.1767,-230.6014"/>
<text text-anchor="middle" x="303.4583" y="-213.8" font-family="Times,serif" font-size="14.00" fill="#000000">GO:0044446</text>
<text text-anchor="middle" x="303.4583" y="-197" font-family="Times,serif" font-size="14.00" fill="#000000">intracellular organelle</text>
<text text-anchor="middle" x="303.4583" y="-180.2" font-family="Times,serif" font-size="14.00" fill="#000000">part</text>
</g>
<!-- GO:0031970&#45;&gt;GO:0044446 -->
<g id="edge11" class="edge">
<title>GO:0031970&#45;&gt;GO:0044446</title>
<path fill="none" stroke="#000000" d="M363.3346,-136.0182C355.5516,-144.4908 346.3153,-154.5456 337.4556,-164.1903"/>
<polygon fill="#000000" stroke="#000000" points="334.6535,-162.0669 330.4661,-171.7991 339.8087,-166.8025 334.6535,-162.0669"/>
</g>
<!-- GO:0031974 -->
<g id="node13" class="node">
<title>GO:0031974</title>
<polygon fill="#ffffff" stroke="#000000" points="717.1794,-402.2019 549.7372,-402.2019 549.7372,-360.9981 717.1794,-360.9981 717.1794,-402.2019"/>
<text text-anchor="middle" x="633.4583" y="-385.8" font-family="Times,serif" font-size="14.00" fill="#000000">GO:0031974</text>
<text text-anchor="middle" x="633.4583" y="-369" font-family="Times,serif" font-size="14.00" fill="#000000">membrane&#45;enclosed lumen</text>
</g>
<!-- GO:0031970&#45;&gt;GO:0031974 -->
<g id="edge12" class="edge">
<title>GO:0031970&#45;&gt;GO:0031974</title>
<path fill="none" stroke="#000000" d="M433.0232,-135.8286C452.0179,-145.1026 472.9794,-157.2994 489.4583,-172 549.0029,-225.1187 596.2461,-307.7077 618.8777,-351.6774"/>
<polygon fill="#000000" stroke="#000000" points="615.812,-353.3706 623.4571,-360.7056 622.0548,-350.204 615.812,-353.3706"/>
</g>
<!-- GO:0044429&#45;&gt;GO:0044446 -->
<g id="edge13" class="edge">
<title>GO:0044429&#45;&gt;GO:0044446</title>
<path fill="none" stroke="#000000" d="M243.582,-136.0182C251.365,-144.4908 260.6013,-154.5456 269.461,-164.1903"/>
<polygon fill="#000000" stroke="#000000" points="267.1079,-166.8025 276.4505,-171.7991 272.2631,-162.0669 267.1079,-166.8025"/>
</g>
<!-- GO:0044444 -->
<g id="node14" class="node">
<title>GO:0044444</title>
<polygon fill="#ffffff" stroke="#000000" points="108.8749,-221.8019 .0417,-221.8019 .0417,-180.5981 108.8749,-180.5981 108.8749,-221.8019"/>
<text text-anchor="middle" x="54.4583" y="-205.4" font-family="Times,serif" font-size="14.00" fill="#000000">GO:0044444</text>
<text text-anchor="middle" x="54.4583" y="-188.6" font-family="Times,serif" font-size="14.00" fill="#000000">cytoplasmic part</text>
</g>
<!-- GO:0044429&#45;&gt;GO:0044444 -->
<g id="edge14" class="edge">
<title>GO:0044429&#45;&gt;GO:0044444</title>
<path fill="none" stroke="#000000" d="M183.306,-136.0182C159.5012,-148.0606 129.378,-163.2994 104.2446,-176.014"/>
<polygon fill="#000000" stroke="#000000" points="102.5748,-172.9363 95.2316,-180.5735 105.7347,-179.1825 102.5748,-172.9363"/>
</g>
<!-- GO:0044446&#45;&gt;GO:0044424 -->
<g id="edge15" class="edge">
<title>GO:0044446&#45;&gt;GO:0044424</title>
<path fill="none" stroke="#000000" d="M244.3327,-230.4223C218.4911,-243.1942 188.4719,-258.031 163.6083,-270.3196"/>
<polygon fill="#000000" stroke="#000000" points="161.765,-267.3264 154.351,-274.8949 164.8666,-273.6018 161.765,-267.3264"/>
</g>
<!-- GO:0044422 -->
<g id="node15" class="node">
<title>GO:0044422</title>
<polygon fill="#ffffff" stroke="#000000" points="532.3104,-402.2019 438.6062,-402.2019 438.6062,-360.9981 532.3104,-360.9981 532.3104,-402.2019"/>
<text text-anchor="middle" x="485.4583" y="-385.8" font-family="Times,serif" font-size="14.00" fill="#000000">GO:0044422</text>
<text text-anchor="middle" x="485.4583" y="-369" font-family="Times,serif" font-size="14.00" fill="#000000">organelle part</text>
</g>
<!-- GO:0044446&#45;&gt;GO:0044422 -->
<g id="edge16" class="edge">
<title>GO:0044446&#45;&gt;GO:0044422</title>
<path fill="none" stroke="#000000" d="M373.1994,-227.3507C418.6127,-244.5263 469.7602,-264.2155 471.4583,-266.4 489.959,-290.2003 491.6159,-325.5326 489.7985,-350.7863"/>
<polygon fill="#000000" stroke="#000000" points="486.2964,-350.6457 488.8459,-360.9292 493.2657,-351.3004 486.2964,-350.6457"/>
</g>
<!-- GO:0031974&#45;&gt;GO:0005575 -->
<g id="edge17" class="edge">
<title>GO:0031974&#45;&gt;GO:0005575</title>
<path fill="none" stroke="#000000" d="M579.3247,-402.2934C553.0584,-412.3341 521.3368,-424.4602 493.9366,-434.9344"/>
<polygon fill="#000000" stroke="#000000" points="492.5321,-431.7242 484.441,-438.5642 495.0316,-438.2628 492.5321,-431.7242"/>
</g>
<!-- GO:0044444&#45;&gt;GO:0044424 -->
<g id="edge18" class="edge">
<title>GO:0044444&#45;&gt;GO:0044424</title>
<path fill="none" stroke="#000000" d="M67.3304,-222.1504C75.2149,-234.9831 85.4315,-251.6116 94.1494,-265.8006"/>
<polygon fill="#000000" stroke="#000000" points="91.4051,-268.0201 99.6222,-274.7081 97.3693,-264.3556 91.4051,-268.0201"/>
</g>
<!-- GO:0044422&#45;&gt;GO:0005575 -->
<g id="edge19" class="edge">
<title>GO:0044422&#45;&gt;GO:0005575</title>
<path fill="none" stroke="#000000" d="M470.7193,-402.3954C464.6776,-410.9197 457.5799,-420.9339 451.0404,-430.1605"/>
<polygon fill="#000000" stroke="#000000" points="448.165,-428.1647 445.238,-438.3472 453.876,-432.2125 448.165,-428.1647"/>
</g>
</g>
</svg>
