<?xml version="1.0" encoding="UTF-8" standalone="no"?>
<!DOCTYPE svg PUBLIC "-//W3C//DTD SVG 1.1//EN"
 "http://www.w3.org/Graphics/SVG/1.1/DTD/svg11.dtd">
<!-- Generated by graphviz version 2.40.1 (20161225.0304)
 -->
<!-- Title: G Pages: 1 -->
<svg width="699pt" height="599pt"
 viewBox="0.00 0.00 699.39 599.20" xmlns="http://www.w3.org/2000/svg" xmlns:xlink="http://www.w3.org/1999/xlink">
<g id="graph0" class="graph" transform="scale(1 1) rotate(0) translate(4 595.2)">
<title>G</title>
<polygon fill="#ffffff" stroke="transparent" points="-4,4 -4,-595.2 695.3935,-595.2 695.3935,4 -4,4"/>
<!-- GO:0038023 -->
<g id="node1" class="node">
<title>GO:0038023</title>
<polygon fill="#ffffff" stroke="#000000" points="133.0752,-385.8014 16.7012,-385.8014 16.7012,-326.9986 133.0752,-326.9986 133.0752,-385.8014"/>
<text text-anchor="middle" x="74.8882" y="-369" font-family="Times,serif" font-size="14.00" fill="#000000">GO:0038023</text>
<text text-anchor="middle" x="74.8882" y="-352.2" font-family="Times,serif" font-size="14.00" fill="#000000">signaling receptor</text>
<text text-anchor="middle" x="74.8882" y="-335.4" font-family="Times,serif" font-size="14.00" fill="#000000">activity</text>
</g>
<!-- GO:0004872 -->
<g id="node2" class="node">
<title>GO:0004872</title>
<polygon fill="#ffffff" stroke="#000000" points="120.736,-479.8019 13.0404,-479.8019 13.0404,-438.5981 120.736,-438.5981 120.736,-479.8019"/>
<text text-anchor="middle" x="66.8882" y="-463.4" font-family="Times,serif" font-size="14.00" fill="#000000">GO:0004872</text>
<text text-anchor="middle" x="66.8882" y="-446.6" font-family="Times,serif" font-size="14.00" fill="#000000">receptor activity</text>
</g>
<!-- GO:0038023&#45;&gt;GO:0004872 -->
<g id="edge1" class="edge">
<title>GO:0038023&#45;&gt;GO:0004872</title>
<path fill="none" stroke="#000000" d="M72.5957,-385.8584C71.561,-399.1539 70.3387,-414.8608 69.2912,-428.3212"/>
<polygon fill="#000000" stroke="#000000" points="65.782,-428.3042 68.4955,-438.5456 72.7609,-428.8474 65.782,-428.3042"/>
</g>
<!-- GO:0004871 -->
<g id="node3" class="node">
<title>GO:0004871</title>
<polygon fill="#ffffff" stroke="#000000" points="249.6291,-488.6014 138.1473,-488.6014 138.1473,-429.7986 249.6291,-429.7986 249.6291,-488.6014"/>
<text text-anchor="middle" x="193.8882" y="-471.8" font-family="Times,serif" font-size="14.00" fill="#000000">GO:0004871</text>
<text text-anchor="middle" x="193.8882" y="-455" font-family="Times,serif" font-size="14.00" fill="#000000">signal transducer</text>
<text text-anchor="middle" x="193.8882" y="-438.2" font-family="Times,serif" font-size="14.00" fill="#000000">activity</text>
</g>
<!-- GO:0038023&#45;&gt;GO:0004871 -->
<g id="edge2" class="edge">
<title>GO:0038023&#45;&gt;GO:0004871</title>
<path fill="none" stroke="#000000" d="M108.9888,-385.8584C122.433,-397.4723 138.007,-410.9261 152.1171,-423.1154"/>
<polygon fill="#000000" stroke="#000000" points="149.9272,-425.8487 159.7826,-429.7373 154.5032,-420.5515 149.9272,-425.8487"/>
</g>
<!-- GO:0060089 -->
<g id="node4" class="node">
<title>GO:0060089</title>
<polygon fill="#ffffff" stroke="#000000" points="133.6648,-591.4014 .1116,-591.4014 .1116,-532.5986 133.6648,-532.5986 133.6648,-591.4014"/>
<text text-anchor="middle" x="66.8882" y="-574.6" font-family="Times,serif" font-size="14.00" fill="#000000">GO:0060089</text>
<text text-anchor="middle" x="66.8882" y="-557.8" font-family="Times,serif" font-size="14.00" fill="#000000">molecular transducer</text>
<text text-anchor="middle" x="66.8882" y="-541" font-family="Times,serif" font-size="14.00" fill="#000000">activity</text>
</g>
<!-- GO:0004872&#45;&gt;GO:0060089 -->
<g id="edge3" class="edge">
<title>GO:0004872&#45;&gt;GO:0060089</title>
<path fill="none" stroke="#000000" d="M66.8882,-480.0031C66.8882,-492.1833 66.8882,-507.9676 66.8882,-522.4305"/>
<polygon fill="#000000" stroke="#000000" points="63.3883,-522.6577 66.8882,-532.6577 70.3883,-522.6578 63.3883,-522.6577"/>
</g>
<!-- GO:0003674 -->
<g id="node5" class="node">
<title>GO:0003674</title>
<polygon fill="#ffffff" stroke="#000000" points="374.5213,-582.6019 249.2551,-582.6019 249.2551,-541.3981 374.5213,-541.3981 374.5213,-582.6019"/>
<text text-anchor="middle" x="311.8882" y="-566.2" font-family="Times,serif" font-size="14.00" fill="#000000">GO:0003674</text>
<text text-anchor="middle" x="311.8882" y="-549.4" font-family="Times,serif" font-size="14.00" fill="#000000">molecular_function</text>
</g>
<!-- GO:0004871&#45;&gt;GO:0003674 -->
<g id="edge4" class="edge">
<title>GO:0004871&#45;&gt;GO:0003674</title>
<path fill="none" stroke="#000000" d="M227.7023,-488.6584C244.3237,-503.1387 264.2282,-520.4792 280.5089,-534.6628"/>
<polygon fill="#000000" stroke="#000000" points="278.3408,-537.4159 288.1799,-541.3456 282.9389,-532.1378 278.3408,-537.4159"/>
</g>
<!-- GO:0008270 -->
<g id="node6" class="node">
<title>GO:0008270</title>
<polygon fill="#ffffff" stroke="#000000" points="253.3798,-41.4019 146.3966,-41.4019 146.3966,-.1981 253.3798,-.1981 253.3798,-41.4019"/>
<text text-anchor="middle" x="199.8882" y="-25" font-family="Times,serif" font-size="14.00" fill="#000000">GO:0008270</text>
<text text-anchor="middle" x="199.8882" y="-8.2" font-family="Times,serif" font-size="14.00" fill="#000000">zinc ion binding</text>
</g>
<!-- GO:0046914 -->
<g id="node7" class="node">
<title>GO:0046914</title>
<polygon fill="#ffffff" stroke="#000000" points="262.2621,-136.2014 137.5143,-136.2014 137.5143,-77.3986 262.2621,-77.3986 262.2621,-136.2014"/>
<text text-anchor="middle" x="199.8882" y="-119.4" font-family="Times,serif" font-size="14.00" fill="#000000">GO:0046914</text>
<text text-anchor="middle" x="199.8882" y="-102.6" font-family="Times,serif" font-size="14.00" fill="#000000">transition metal ion</text>
<text text-anchor="middle" x="199.8882" y="-85.8" font-family="Times,serif" font-size="14.00" fill="#000000">binding</text>
</g>
<!-- GO:0008270&#45;&gt;GO:0046914 -->
<g id="edge5" class="edge">
<title>GO:0008270&#45;&gt;GO:0046914</title>
<path fill="none" stroke="#000000" d="M199.8882,-41.6182C199.8882,-49.3358 199.8882,-58.3662 199.8882,-67.2036"/>
<polygon fill="#000000" stroke="#000000" points="196.3883,-67.3991 199.8882,-77.3991 203.3883,-67.3992 196.3883,-67.3991"/>
</g>
<!-- GO:0046872 -->
<g id="node8" class="node">
<title>GO:0046872</title>
<polygon fill="#ffffff" stroke="#000000" points="257.1612,-213.4019 142.6152,-213.4019 142.6152,-172.1981 257.1612,-172.1981 257.1612,-213.4019"/>
<text text-anchor="middle" x="199.8882" y="-197" font-family="Times,serif" font-size="14.00" fill="#000000">GO:0046872</text>
<text text-anchor="middle" x="199.8882" y="-180.2" font-family="Times,serif" font-size="14.00" fill="#000000">metal ion binding</text>
</g>
<!-- GO:0046914&#45;&gt;GO:0046872 -->
<g id="edge6" class="edge">
<title>GO:0046914&#45;&gt;GO:0046872</title>
<path fill="none" stroke="#000000" d="M199.8882,-136.3963C199.8882,-144.6638 199.8882,-153.6657 199.8882,-162.0008"/>
<polygon fill="#000000" stroke="#000000" points="196.3883,-162.0965 199.8882,-172.0966 203.3883,-162.0966 196.3883,-162.0965"/>
</g>
<!-- GO:0043169 -->
<g id="node9" class="node">
<title>GO:0043169</title>
<polygon fill="#ffffff" stroke="#000000" points="248.3811,-291.0019 151.3953,-291.0019 151.3953,-249.7981 248.3811,-249.7981 248.3811,-291.0019"/>
<text text-anchor="middle" x="199.8882" y="-274.6" font-family="Times,serif" font-size="14.00" fill="#000000">GO:0043169</text>
<text text-anchor="middle" x="199.8882" y="-257.8" font-family="Times,serif" font-size="14.00" fill="#000000">cation binding</text>
</g>
<!-- GO:0046872&#45;&gt;GO:0043169 -->
<g id="edge7" class="edge">
<title>GO:0046872&#45;&gt;GO:0043169</title>
<path fill="none" stroke="#000000" d="M199.8882,-213.5954C199.8882,-221.5109 199.8882,-230.7109 199.8882,-239.3722"/>
<polygon fill="#000000" stroke="#000000" points="196.3883,-239.5472 199.8882,-249.5472 203.3883,-239.5473 196.3883,-239.5472"/>
</g>
<!-- GO:0043167 -->
<g id="node10" class="node">
<title>GO:0043167</title>
<polygon fill="#ffffff" stroke="#000000" points="244.4921,-377.0019 155.2843,-377.0019 155.2843,-335.7981 244.4921,-335.7981 244.4921,-377.0019"/>
<text text-anchor="middle" x="199.8882" y="-360.6" font-family="Times,serif" font-size="14.00" fill="#000000">GO:0043167</text>
<text text-anchor="middle" x="199.8882" y="-343.8" font-family="Times,serif" font-size="14.00" fill="#000000">ion binding</text>
</g>
<!-- GO:0043169&#45;&gt;GO:0043167 -->
<g id="edge8" class="edge">
<title>GO:0043169&#45;&gt;GO:0043167</title>
<path fill="none" stroke="#000000" d="M199.8882,-291.2182C199.8882,-301.5705 199.8882,-314.2848 199.8882,-325.7271"/>
<polygon fill="#000000" stroke="#000000" points="196.3883,-325.7735 199.8882,-335.7735 203.3883,-325.7735 196.3883,-325.7735"/>
</g>
<!-- GO:0005488 -->
<g id="node11" class="node">
<title>GO:0005488</title>
<polygon fill="#ffffff" stroke="#000000" points="356.4921,-479.8019 267.2843,-479.8019 267.2843,-438.5981 356.4921,-438.5981 356.4921,-479.8019"/>
<text text-anchor="middle" x="311.8882" y="-463.4" font-family="Times,serif" font-size="14.00" fill="#000000">GO:0005488</text>
<text text-anchor="middle" x="311.8882" y="-446.6" font-family="Times,serif" font-size="14.00" fill="#000000">binding</text>
</g>
<!-- GO:0043167&#45;&gt;GO:0005488 -->
<g id="edge9" class="edge">
<title>GO:0043167&#45;&gt;GO:0005488</title>
<path fill="none" stroke="#000000" d="M222.5531,-377.2031C239.5556,-392.809 263.0042,-414.3314 281.6117,-431.4105"/>
<polygon fill="#000000" stroke="#000000" points="279.5231,-434.2443 289.257,-438.4278 284.2566,-429.0873 279.5231,-434.2443"/>
</g>
<!-- GO:0005488&#45;&gt;GO:0003674 -->
<g id="edge10" class="edge">
<title>GO:0005488&#45;&gt;GO:0003674</title>
<path fill="none" stroke="#000000" d="M311.8882,-480.0031C311.8882,-494.6337 311.8882,-514.4642 311.8882,-530.9586"/>
<polygon fill="#000000" stroke="#000000" points="308.3883,-531.2278 311.8882,-541.2278 315.3883,-531.2279 308.3883,-531.2278"/>
</g>
<!-- GO:0008289 -->
<g id="node12" class="node">
<title>GO:0008289</title>
<polygon fill="#ffffff" stroke="#000000" points="351.4921,-377.0019 262.2843,-377.0019 262.2843,-335.7981 351.4921,-335.7981 351.4921,-377.0019"/>
<text text-anchor="middle" x="306.8882" y="-360.6" font-family="Times,serif" font-size="14.00" fill="#000000">GO:0008289</text>
<text text-anchor="middle" x="306.8882" y="-343.8" font-family="Times,serif" font-size="14.00" fill="#000000">lipid binding</text>
</g>
<!-- GO:0008289&#45;&gt;GO:0005488 -->
<g id="edge11" class="edge">
<title>GO:0008289&#45;&gt;GO:0005488</title>
<path fill="none" stroke="#000000" d="M307.9,-377.2031C308.6116,-391.8337 309.5761,-411.6642 310.3784,-428.1586"/>
<polygon fill="#000000" stroke="#000000" points="306.8961,-428.6097 310.8779,-438.4278 313.8878,-428.2696 306.8961,-428.6097"/>
</g>
<!-- GO:0001071 -->
<g id="node13" class="node">
<title>GO:0001071</title>
<polygon fill="#ffffff" stroke="#000000" points="503.4151,-496.9003 374.3613,-496.9003 374.3613,-421.4997 503.4151,-421.4997 503.4151,-496.9003"/>
<text text-anchor="middle" x="438.8882" y="-480.2" font-family="Times,serif" font-size="14.00" fill="#000000">GO:0001071</text>
<text text-anchor="middle" x="438.8882" y="-463.4" font-family="Times,serif" font-size="14.00" fill="#000000">nucleic acid binding</text>
<text text-anchor="middle" x="438.8882" y="-446.6" font-family="Times,serif" font-size="14.00" fill="#000000">transcription factor</text>
<text text-anchor="middle" x="438.8882" y="-429.8" font-family="Times,serif" font-size="14.00" fill="#000000">activity</text>
</g>
<!-- GO:0001071&#45;&gt;GO:0003674 -->
<g id="edge12" class="edge">
<title>GO:0001071&#45;&gt;GO:0003674</title>
<path fill="none" stroke="#000000" d="M392.3192,-496.8952C376.8146,-509.4454 359.8571,-523.1716 345.5269,-534.7712"/>
<polygon fill="#000000" stroke="#000000" points="342.9945,-532.3181 337.4239,-541.3302 347.3987,-537.759 342.9945,-532.3181"/>
</g>
<!-- GO:0003677 -->
<g id="node14" class="node">
<title>GO:0003677</title>
<polygon fill="#ffffff" stroke="#000000" points="578.9901,-213.4019 486.7863,-213.4019 486.7863,-172.1981 578.9901,-172.1981 578.9901,-213.4019"/>
<text text-anchor="middle" x="532.8882" y="-197" font-family="Times,serif" font-size="14.00" fill="#000000">GO:0003677</text>
<text text-anchor="middle" x="532.8882" y="-180.2" font-family="Times,serif" font-size="14.00" fill="#000000">DNA binding</text>
</g>
<!-- GO:0003676 -->
<g id="node15" class="node">
<title>GO:0003676</title>
<polygon fill="#ffffff" stroke="#000000" points="597.4151,-291.0019 468.3613,-291.0019 468.3613,-249.7981 597.4151,-249.7981 597.4151,-291.0019"/>
<text text-anchor="middle" x="532.8882" y="-274.6" font-family="Times,serif" font-size="14.00" fill="#000000">GO:0003676</text>
<text text-anchor="middle" x="532.8882" y="-257.8" font-family="Times,serif" font-size="14.00" fill="#000000">nucleic acid binding</text>
</g>
<!-- GO:0003677&#45;&gt;GO:0003676 -->
<g id="edge13" class="edge">
<title>GO:0003677&#45;&gt;GO:0003676</title>
<path fill="none" stroke="#000000" d="M532.8882,-213.5954C532.8882,-221.5109 532.8882,-230.7109 532.8882,-239.3722"/>
<polygon fill="#000000" stroke="#000000" points="529.3883,-239.5472 532.8882,-249.5472 536.3883,-239.5473 529.3883,-239.5472"/>
</g>
<!-- GO:0097159 -->
<g id="node16" class="node">
<title>GO:0097159</title>
<polygon fill="#ffffff" stroke="#000000" points="526.3996,-385.8014 369.3768,-385.8014 369.3768,-326.9986 526.3996,-326.9986 526.3996,-385.8014"/>
<text text-anchor="middle" x="447.8882" y="-369" font-family="Times,serif" font-size="14.00" fill="#000000">GO:0097159</text>
<text text-anchor="middle" x="447.8882" y="-352.2" font-family="Times,serif" font-size="14.00" fill="#000000">organic cyclic compound</text>
<text text-anchor="middle" x="447.8882" y="-335.4" font-family="Times,serif" font-size="14.00" fill="#000000">binding</text>
</g>
<!-- GO:0003676&#45;&gt;GO:0097159 -->
<g id="edge14" class="edge">
<title>GO:0003676&#45;&gt;GO:0097159</title>
<path fill="none" stroke="#000000" d="M512.3121,-291.2182C503.8551,-299.7747 493.8032,-309.9448 484.1846,-319.6766"/>
<polygon fill="#000000" stroke="#000000" points="481.4875,-317.4264 476.9472,-326.9991 486.4661,-322.3472 481.4875,-317.4264"/>
</g>
<!-- GO:1901363 -->
<g id="node17" class="node">
<title>GO:1901363</title>
<polygon fill="#ffffff" stroke="#000000" points="691.3988,-385.8014 544.3776,-385.8014 544.3776,-326.9986 691.3988,-326.9986 691.3988,-385.8014"/>
<text text-anchor="middle" x="617.8882" y="-369" font-family="Times,serif" font-size="14.00" fill="#000000">GO:1901363</text>
<text text-anchor="middle" x="617.8882" y="-352.2" font-family="Times,serif" font-size="14.00" fill="#000000">heterocyclic compound</text>
<text text-anchor="middle" x="617.8882" y="-335.4" font-family="Times,serif" font-size="14.00" fill="#000000">binding</text>
</g>
<!-- GO:0003676&#45;&gt;GO:1901363 -->
<g id="edge15" class="edge">
<title>GO:0003676&#45;&gt;GO:1901363</title>
<path fill="none" stroke="#000000" d="M553.4643,-291.2182C561.9213,-299.7747 571.9732,-309.9448 581.5918,-319.6766"/>
<polygon fill="#000000" stroke="#000000" points="579.3103,-322.3472 588.8292,-326.9991 584.2889,-317.4264 579.3103,-322.3472"/>
</g>
<!-- GO:0097159&#45;&gt;GO:0005488 -->
<g id="edge16" class="edge">
<title>GO:0097159&#45;&gt;GO:0005488</title>
<path fill="none" stroke="#000000" d="M408.9161,-385.8584C389.498,-400.5362 366.1921,-418.1527 347.2889,-432.4412"/>
<polygon fill="#000000" stroke="#000000" points="345.08,-429.7235 339.213,-438.5456 349.301,-435.3077 345.08,-429.7235"/>
</g>
<!-- GO:1901363&#45;&gt;GO:0005488 -->
<g id="edge17" class="edge">
<title>GO:1901363&#45;&gt;GO:0005488</title>
<path fill="none" stroke="#000000" d="M544.2818,-383.1381C541.4567,-383.9966 538.6517,-384.8209 535.8882,-385.6 461.1362,-406.6747 436.047,-390.4805 364.8882,-421.6 358.0661,-424.5835 351.2389,-428.5278 344.8626,-432.7391"/>
<polygon fill="#000000" stroke="#000000" points="342.6874,-429.9891 336.4901,-438.5823 346.6936,-435.7294 342.6874,-429.9891"/>
</g>
</g>
</svg>
