<?xml version="1.0" encoding="UTF-8" standalone="no"?>
<!DOCTYPE svg PUBLIC "-//W3C//DTD SVG 1.1//EN"
 "http://www.w3.org/Graphics/SVG/1.1/DTD/svg11.dtd">
<!-- Generated by graphviz version 2.40.1 (20161225.0304)
 -->
<!-- Title: G Pages: 1 -->
<svg width="593pt" height="394pt"
 viewBox="0.00 0.00 592.53 393.60" xmlns="http://www.w3.org/2000/svg" xmlns:xlink="http://www.w3.org/1999/xlink">
<g id="graph0" class="graph" transform="scale(1 1) rotate(0) translate(4 389.6)">
<title>G</title>
<polygon fill="#ffffff" stroke="transparent" points="-4,4 -4,-389.6 588.5274,-389.6 588.5274,4 -4,4"/>
<!-- GO:0044699 -->
<g id="node1" class="node">
<title>GO:0044699</title>
<polygon fill="#ff00ff" stroke="#000000" points="303.7546,-307.8019 152.392,-307.8019 152.392,-266.5981 303.7546,-266.5981 303.7546,-307.8019"/>
<text text-anchor="middle" x="228.0733" y="-291.4" font-family="Times,serif" font-size="14.00" fill="#000000">GO:0044699</text>
<text text-anchor="middle" x="228.0733" y="-274.6" font-family="Times,serif" font-size="14.00" fill="#000000">single&#45;organism process</text>
</g>
<!-- GO:0008150 -->
<g id="node2" class="node">
<title>GO:0008150</title>
<polygon fill="#ffffff" stroke="#000000" points="361.5439,-385.4019 240.6027,-385.4019 240.6027,-344.1981 361.5439,-344.1981 361.5439,-385.4019"/>
<text text-anchor="middle" x="301.0733" y="-369" font-family="Times,serif" font-size="14.00" fill="#000000">GO:0008150</text>
<text text-anchor="middle" x="301.0733" y="-352.2" font-family="Times,serif" font-size="14.00" fill="#000000">biological_process</text>
</g>
<!-- GO:0044699&#45;&gt;GO:0008150 -->
<g id="edge1" class="edge">
<title>GO:0044699&#45;&gt;GO:0008150</title>
<path fill="none" stroke="#000000" d="M247.636,-307.9954C255.9005,-316.7807 265.6536,-327.1484 274.5502,-336.6056"/>
<polygon fill="#000000" stroke="#000000" points="272.0554,-339.0617 281.4566,-343.9472 277.154,-334.2654 272.0554,-339.0617"/>
</g>
<!-- GO:0044765 -->
<g id="node3" class="node">
<title>GO:0044765</title>
<polygon fill="#ffffff" stroke="#000000" points="183.0376,-41.4019 23.109,-41.4019 23.109,-.1981 183.0376,-.1981 183.0376,-41.4019"/>
<text text-anchor="middle" x="103.0733" y="-25" font-family="Times,serif" font-size="14.00" fill="#000000">GO:0044765</text>
<text text-anchor="middle" x="103.0733" y="-8.2" font-family="Times,serif" font-size="14.00" fill="#000000">single&#45;organism transport</text>
</g>
<!-- GO:0006810 -->
<g id="node4" class="node">
<title>GO:0006810</title>
<polygon fill="#ffffff" stroke="#000000" points="111.6772,-127.4019 22.4694,-127.4019 22.4694,-86.1981 111.6772,-86.1981 111.6772,-127.4019"/>
<text text-anchor="middle" x="67.0733" y="-111" font-family="Times,serif" font-size="14.00" fill="#000000">GO:0006810</text>
<text text-anchor="middle" x="67.0733" y="-94.2" font-family="Times,serif" font-size="14.00" fill="#000000">transport</text>
</g>
<!-- GO:0044765&#45;&gt;GO:0006810 -->
<g id="edge2" class="edge">
<title>GO:0044765&#45;&gt;GO:0006810</title>
<path fill="none" stroke="#000000" d="M94.3587,-41.6182C89.9368,-52.1818 84.4853,-65.2048 79.6205,-76.8261"/>
<polygon fill="#000000" stroke="#000000" points="76.3405,-75.5976 75.7076,-86.1735 82.7976,-78.3006 76.3405,-75.5976"/>
</g>
<!-- GO:1902578 -->
<g id="node5" class="node">
<title>GO:1902578</title>
<polygon fill="#ffffff" stroke="#000000" points="232.2755,-230.6014 125.8711,-230.6014 125.8711,-171.7986 232.2755,-171.7986 232.2755,-230.6014"/>
<text text-anchor="middle" x="179.0733" y="-213.8" font-family="Times,serif" font-size="14.00" fill="#000000">GO:1902578</text>
<text text-anchor="middle" x="179.0733" y="-197" font-family="Times,serif" font-size="14.00" fill="#000000">single&#45;organism</text>
<text text-anchor="middle" x="179.0733" y="-180.2" font-family="Times,serif" font-size="14.00" fill="#000000">localization</text>
</g>
<!-- GO:0044765&#45;&gt;GO:1902578 -->
<g id="edge3" class="edge">
<title>GO:0044765&#45;&gt;GO:1902578</title>
<path fill="none" stroke="#000000" d="M111.7915,-41.4942C124.1753,-70.8894 147.0866,-125.2737 162.6984,-162.3311"/>
<polygon fill="#000000" stroke="#000000" points="159.5882,-163.9637 166.6961,-171.8204 166.0391,-161.246 159.5882,-163.9637"/>
</g>
<!-- GO:0051234 -->
<g id="node6" class="node">
<title>GO:0051234</title>
<polygon fill="#ffffff" stroke="#000000" points="108.22,-230.6014 -.0734,-230.6014 -.0734,-171.7986 108.22,-171.7986 108.22,-230.6014"/>
<text text-anchor="middle" x="54.0733" y="-213.8" font-family="Times,serif" font-size="14.00" fill="#000000">GO:0051234</text>
<text text-anchor="middle" x="54.0733" y="-197" font-family="Times,serif" font-size="14.00" fill="#000000">establishment of</text>
<text text-anchor="middle" x="54.0733" y="-180.2" font-family="Times,serif" font-size="14.00" fill="#000000">localization</text>
</g>
<!-- GO:0006810&#45;&gt;GO:0051234 -->
<g id="edge4" class="edge">
<title>GO:0006810&#45;&gt;GO:0051234</title>
<path fill="none" stroke="#000000" d="M64.1882,-127.7504C62.8112,-137.7492 61.1169,-150.0525 59.5115,-161.7106"/>
<polygon fill="#000000" stroke="#000000" points="56.0307,-161.3315 58.1337,-171.7155 62.9653,-162.2865 56.0307,-161.3315"/>
</g>
<!-- GO:1902578&#45;&gt;GO:0044699 -->
<g id="edge6" class="edge">
<title>GO:1902578&#45;&gt;GO:0044699</title>
<path fill="none" stroke="#000000" d="M195.9363,-230.7963C200.9085,-239.5231 206.347,-249.0682 211.3128,-257.7836"/>
<polygon fill="#000000" stroke="#000000" points="208.2856,-259.5406 216.2771,-266.4966 214.3676,-256.0752 208.2856,-259.5406"/>
</g>
<!-- GO:0051179 -->
<g id="node7" class="node">
<title>GO:0051179</title>
<polygon fill="#ffffff" stroke="#000000" points="134.6772,-307.8019 45.4694,-307.8019 45.4694,-266.5981 134.6772,-266.5981 134.6772,-307.8019"/>
<text text-anchor="middle" x="90.0733" y="-291.4" font-family="Times,serif" font-size="14.00" fill="#000000">GO:0051179</text>
<text text-anchor="middle" x="90.0733" y="-274.6" font-family="Times,serif" font-size="14.00" fill="#000000">localization</text>
</g>
<!-- GO:1902578&#45;&gt;GO:0051179 -->
<g id="edge5" class="edge">
<title>GO:1902578&#45;&gt;GO:0051179</title>
<path fill="none" stroke="#000000" d="M148.4445,-230.7963C138.843,-240.0742 128.2841,-250.2772 118.8176,-259.4246"/>
<polygon fill="#000000" stroke="#000000" points="116.2581,-257.0308 111.499,-266.4966 121.1223,-262.0646 116.2581,-257.0308"/>
</g>
<!-- GO:0051234&#45;&gt;GO:0051179 -->
<g id="edge7" class="edge">
<title>GO:0051234&#45;&gt;GO:0051179</title>
<path fill="none" stroke="#000000" d="M66.4625,-230.7963C70.0386,-239.3393 73.9431,-248.6667 77.5286,-257.2321"/>
<polygon fill="#000000" stroke="#000000" points="74.3168,-258.6236 81.4067,-266.4966 80.7738,-255.9206 74.3168,-258.6236"/>
</g>
<!-- GO:0051179&#45;&gt;GO:0008150 -->
<g id="edge8" class="edge">
<title>GO:0051179&#45;&gt;GO:0008150</title>
<path fill="none" stroke="#000000" d="M134.8577,-304.8806C137.6346,-305.9444 140.3901,-306.9914 143.0733,-308 172.3624,-319.0093 204.8689,-330.7726 232.7449,-340.722"/>
<polygon fill="#000000" stroke="#000000" points="231.8043,-344.1023 242.399,-344.1613 234.1536,-337.5083 231.8043,-344.1023"/>
</g>
<!-- GO:0044763 -->
<g id="node8" class="node">
<title>GO:0044763</title>
<polygon fill="#ffffff" stroke="#000000" points="401.7518,-230.6014 250.3948,-230.6014 250.3948,-171.7986 401.7518,-171.7986 401.7518,-230.6014"/>
<text text-anchor="middle" x="326.0733" y="-213.8" font-family="Times,serif" font-size="14.00" fill="#000000">GO:0044763</text>
<text text-anchor="middle" x="326.0733" y="-197" font-family="Times,serif" font-size="14.00" fill="#000000">single&#45;organism cellular</text>
<text text-anchor="middle" x="326.0733" y="-180.2" font-family="Times,serif" font-size="14.00" fill="#000000">process</text>
</g>
<!-- GO:0044763&#45;&gt;GO:0044699 -->
<g id="edge10" class="edge">
<title>GO:0044763&#45;&gt;GO:0044699</title>
<path fill="none" stroke="#000000" d="M292.6214,-230.5558C281.9284,-239.9394 270.1334,-250.2902 259.5834,-259.5483"/>
<polygon fill="#000000" stroke="#000000" points="257.005,-257.1543 251.7973,-266.3809 261.6222,-262.4157 257.005,-257.1543"/>
</g>
<!-- GO:0009987 -->
<g id="node9" class="node">
<title>GO:0009987</title>
<polygon fill="#ffffff" stroke="#000000" points="426.0295,-307.8019 322.1171,-307.8019 322.1171,-266.5981 426.0295,-266.5981 426.0295,-307.8019"/>
<text text-anchor="middle" x="374.0733" y="-291.4" font-family="Times,serif" font-size="14.00" fill="#000000">GO:0009987</text>
<text text-anchor="middle" x="374.0733" y="-274.6" font-family="Times,serif" font-size="14.00" fill="#000000">cellular process</text>
</g>
<!-- GO:0044763&#45;&gt;GO:0009987 -->
<g id="edge9" class="edge">
<title>GO:0044763&#45;&gt;GO:0009987</title>
<path fill="none" stroke="#000000" d="M342.5922,-230.7963C347.4116,-239.4312 352.6783,-248.8673 357.5011,-257.5081"/>
<polygon fill="#000000" stroke="#000000" points="354.588,-259.4704 362.5179,-266.4966 360.7004,-256.0588 354.588,-259.4704"/>
</g>
<!-- GO:0009987&#45;&gt;GO:0008150 -->
<g id="edge11" class="edge">
<title>GO:0009987&#45;&gt;GO:0008150</title>
<path fill="none" stroke="#000000" d="M354.5106,-307.9954C346.2461,-316.7807 336.493,-327.1484 327.5964,-336.6056"/>
<polygon fill="#000000" stroke="#000000" points="324.9926,-334.2654 320.69,-343.9472 330.0912,-339.0617 324.9926,-334.2654"/>
</g>
<!-- GO:0055114 -->
<g id="node10" class="node">
<title>GO:0055114</title>
<polygon fill="#ff00ff" stroke="#000000" points="565.492,-136.2014 438.6546,-136.2014 438.6546,-77.3986 565.492,-77.3986 565.492,-136.2014"/>
<text text-anchor="middle" x="502.0733" y="-119.4" font-family="Times,serif" font-size="14.00" fill="#000000">GO:0055114</text>
<text text-anchor="middle" x="502.0733" y="-102.6" font-family="Times,serif" font-size="14.00" fill="#000000">oxidation&#45;reduction</text>
<text text-anchor="middle" x="502.0733" y="-85.8" font-family="Times,serif" font-size="14.00" fill="#000000">process</text>
</g>
<!-- GO:0044710 -->
<g id="node11" class="node">
<title>GO:0044710</title>
<polygon fill="#ffffff" stroke="#000000" points="584.4815,-230.6014 419.6651,-230.6014 419.6651,-171.7986 584.4815,-171.7986 584.4815,-230.6014"/>
<text text-anchor="middle" x="502.0733" y="-213.8" font-family="Times,serif" font-size="14.00" fill="#000000">GO:0044710</text>
<text text-anchor="middle" x="502.0733" y="-197" font-family="Times,serif" font-size="14.00" fill="#000000">single&#45;organism metabolic</text>
<text text-anchor="middle" x="502.0733" y="-180.2" font-family="Times,serif" font-size="14.00" fill="#000000">process</text>
</g>
<!-- GO:0055114&#45;&gt;GO:0044710 -->
<g id="edge12" class="edge">
<title>GO:0055114&#45;&gt;GO:0044710</title>
<path fill="none" stroke="#000000" d="M502.0733,-136.1513C502.0733,-144.2318 502.0733,-153.1308 502.0733,-161.6838"/>
<polygon fill="#000000" stroke="#000000" points="498.5734,-161.8668 502.0733,-171.8669 505.5734,-161.8669 498.5734,-161.8668"/>
</g>
<!-- GO:0044710&#45;&gt;GO:0044699 -->
<g id="edge14" class="edge">
<title>GO:0044710&#45;&gt;GO:0044699</title>
<path fill="none" stroke="#000000" d="M419.2573,-227.8109C416.497,-228.686 413.7631,-229.551 411.0733,-230.4 376.2866,-241.3795 337.7246,-253.3746 305.0042,-263.5007"/>
<polygon fill="#000000" stroke="#000000" points="303.5671,-260.2815 295.0478,-266.5801 305.6355,-266.969 303.5671,-260.2815"/>
</g>
<!-- GO:0008152 -->
<g id="node12" class="node">
<title>GO:0008152</title>
<polygon fill="#ffffff" stroke="#000000" points="560.2589,-307.8019 443.8877,-307.8019 443.8877,-266.5981 560.2589,-266.5981 560.2589,-307.8019"/>
<text text-anchor="middle" x="502.0733" y="-291.4" font-family="Times,serif" font-size="14.00" fill="#000000">GO:0008152</text>
<text text-anchor="middle" x="502.0733" y="-274.6" font-family="Times,serif" font-size="14.00" fill="#000000">metabolic process</text>
</g>
<!-- GO:0044710&#45;&gt;GO:0008152 -->
<g id="edge13" class="edge">
<title>GO:0044710&#45;&gt;GO:0008152</title>
<path fill="none" stroke="#000000" d="M502.0733,-230.7963C502.0733,-239.0638 502.0733,-248.0657 502.0733,-256.4008"/>
<polygon fill="#000000" stroke="#000000" points="498.5734,-256.4965 502.0733,-266.4966 505.5734,-256.4966 498.5734,-256.4965"/>
</g>
<!-- GO:0008152&#45;&gt;GO:0008150 -->
<g id="edge15" class="edge">
<title>GO:0008152&#45;&gt;GO:0008150</title>
<path fill="none" stroke="#000000" d="M448.473,-307.8934C422.4655,-317.9341 391.0565,-330.0602 363.9262,-340.5344"/>
<polygon fill="#000000" stroke="#000000" points="362.5925,-337.2974 354.5242,-344.1642 365.1137,-343.8277 362.5925,-337.2974"/>
</g>
</g>
</svg>
