<?xml version="1.0" encoding="UTF-8" standalone="no"?>
<!DOCTYPE svg PUBLIC "-//W3C//DTD SVG 1.1//EN"
 "http://www.w3.org/Graphics/SVG/1.1/DTD/svg11.dtd">
<!-- Generated by graphviz version 2.40.1 (20161225.0304)
 -->
<!-- Title: G Pages: 1 -->
<svg width="344pt" height="316pt"
 viewBox="0.00 0.00 343.93 316.00" xmlns="http://www.w3.org/2000/svg" xmlns:xlink="http://www.w3.org/1999/xlink">
<g id="graph0" class="graph" transform="scale(1 1) rotate(0) translate(4 312)">
<title>G</title>
<polygon fill="#ffffff" stroke="transparent" points="-4,4 -4,-312 339.9285,-312 339.9285,4 -4,4"/>
<!-- GO:0016021 -->
<g id="node1" class="node">
<title>GO:0016021</title>
<polygon fill="#ffffff" stroke="#000000" points="141.0097,-58.6014 1.7435,-58.6014 1.7435,.2014 141.0097,.2014 141.0097,-58.6014"/>
<text text-anchor="middle" x="71.3766" y="-41.8" font-family="Times,serif" font-size="14.00" fill="#000000">GO:0016021</text>
<text text-anchor="middle" x="71.3766" y="-25" font-family="Times,serif" font-size="14.00" fill="#000000">integral component of</text>
<text text-anchor="middle" x="71.3766" y="-8.2" font-family="Times,serif" font-size="14.00" fill="#000000">membrane</text>
</g>
<!-- GO:0031224 -->
<g id="node2" class="node">
<title>GO:0031224</title>
<polygon fill="#ffffff" stroke="#000000" points="142.63,-153.0014 .1232,-153.0014 .1232,-94.1986 142.63,-94.1986 142.63,-153.0014"/>
<text text-anchor="middle" x="71.3766" y="-136.2" font-family="Times,serif" font-size="14.00" fill="#000000">GO:0031224</text>
<text text-anchor="middle" x="71.3766" y="-119.4" font-family="Times,serif" font-size="14.00" fill="#000000">intrinsic component of</text>
<text text-anchor="middle" x="71.3766" y="-102.6" font-family="Times,serif" font-size="14.00" fill="#000000">membrane</text>
</g>
<!-- GO:0016021&#45;&gt;GO:0031224 -->
<g id="edge1" class="edge">
<title>GO:0016021&#45;&gt;GO:0031224</title>
<path fill="none" stroke="#000000" d="M71.3766,-58.5513C71.3766,-66.6318 71.3766,-75.5308 71.3766,-84.0838"/>
<polygon fill="#000000" stroke="#000000" points="67.8767,-84.2668 71.3766,-94.2669 74.8767,-84.2669 67.8767,-84.2668"/>
</g>
<!-- GO:0044425 -->
<g id="node3" class="node">
<title>GO:0044425</title>
<polygon fill="#ffffff" stroke="#000000" points="121.7286,-230.2019 21.0246,-230.2019 21.0246,-188.9981 121.7286,-188.9981 121.7286,-230.2019"/>
<text text-anchor="middle" x="71.3766" y="-213.8" font-family="Times,serif" font-size="14.00" fill="#000000">GO:0044425</text>
<text text-anchor="middle" x="71.3766" y="-197" font-family="Times,serif" font-size="14.00" fill="#000000">membrane part</text>
</g>
<!-- GO:0031224&#45;&gt;GO:0044425 -->
<g id="edge2" class="edge">
<title>GO:0031224&#45;&gt;GO:0044425</title>
<path fill="none" stroke="#000000" d="M71.3766,-153.1963C71.3766,-161.4638 71.3766,-170.4657 71.3766,-178.8008"/>
<polygon fill="#000000" stroke="#000000" points="67.8767,-178.8965 71.3766,-188.8966 74.8767,-178.8966 67.8767,-178.8965"/>
</g>
<!-- GO:0005575 -->
<g id="node4" class="node">
<title>GO:0005575</title>
<polygon fill="#ffffff" stroke="#000000" points="248.0633,-307.8019 120.6899,-307.8019 120.6899,-266.5981 248.0633,-266.5981 248.0633,-307.8019"/>
<text text-anchor="middle" x="184.3766" y="-291.4" font-family="Times,serif" font-size="14.00" fill="#000000">GO:0005575</text>
<text text-anchor="middle" x="184.3766" y="-274.6" font-family="Times,serif" font-size="14.00" fill="#000000">cellular_component</text>
</g>
<!-- GO:0044425&#45;&gt;GO:0005575 -->
<g id="edge3" class="edge">
<title>GO:0044425&#45;&gt;GO:0005575</title>
<path fill="none" stroke="#000000" d="M101.6585,-230.3954C115.2116,-239.7026 131.3508,-250.7858 145.7598,-260.6809"/>
<polygon fill="#000000" stroke="#000000" points="143.7863,-263.5714 154.0111,-266.3472 147.749,-257.801 143.7863,-263.5714"/>
</g>
<!-- GO:0016020 -->
<g id="node5" class="node">
<title>GO:0016020</title>
<polygon fill="#ffa500" stroke="#000000" points="228.9805,-230.2019 139.7727,-230.2019 139.7727,-188.9981 228.9805,-188.9981 228.9805,-230.2019"/>
<text text-anchor="middle" x="184.3766" y="-213.8" font-family="Times,serif" font-size="14.00" fill="#000000">GO:0016020</text>
<text text-anchor="middle" x="184.3766" y="-197" font-family="Times,serif" font-size="14.00" fill="#000000">membrane</text>
</g>
<!-- GO:0016020&#45;&gt;GO:0005575 -->
<g id="edge4" class="edge">
<title>GO:0016020&#45;&gt;GO:0005575</title>
<path fill="none" stroke="#000000" d="M184.3766,-230.3954C184.3766,-238.3109 184.3766,-247.5109 184.3766,-256.1722"/>
<polygon fill="#000000" stroke="#000000" points="180.8767,-256.3472 184.3766,-266.3472 187.8767,-256.3473 180.8767,-256.3472"/>
</g>
<!-- GO:0044464 -->
<g id="node6" class="node">
<title>GO:0044464</title>
<polygon fill="#ff0000" stroke="#000000" points="335.9805,-230.2019 246.7727,-230.2019 246.7727,-188.9981 335.9805,-188.9981 335.9805,-230.2019"/>
<text text-anchor="middle" x="291.3766" y="-213.8" font-family="Times,serif" font-size="14.00" fill="#000000">GO:0044464</text>
<text text-anchor="middle" x="291.3766" y="-197" font-family="Times,serif" font-size="14.00" fill="#000000">cell part</text>
</g>
<!-- GO:0044464&#45;&gt;GO:0005575 -->
<g id="edge5" class="edge">
<title>GO:0044464&#45;&gt;GO:0005575</title>
<path fill="none" stroke="#000000" d="M262.7026,-230.3954C249.9891,-239.6156 234.8723,-250.5788 221.3259,-260.4031"/>
<polygon fill="#000000" stroke="#000000" points="219.1702,-257.6429 213.1298,-266.3472 223.2798,-263.3096 219.1702,-257.6429"/>
</g>
<!-- GO:0005886 -->
<g id="node7" class="node">
<title>GO:0005886</title>
<polygon fill="#ff00ff" stroke="#000000" points="314.6174,-144.2019 196.1358,-144.2019 196.1358,-102.9981 314.6174,-102.9981 314.6174,-144.2019"/>
<text text-anchor="middle" x="255.3766" y="-127.8" font-family="Times,serif" font-size="14.00" fill="#000000">GO:0005886</text>
<text text-anchor="middle" x="255.3766" y="-111" font-family="Times,serif" font-size="14.00" fill="#000000">plasma membrane</text>
</g>
<!-- GO:0005886&#45;&gt;GO:0016020 -->
<g id="edge6" class="edge">
<title>GO:0005886&#45;&gt;GO:0016020</title>
<path fill="none" stroke="#000000" d="M238.1895,-144.4182C229.1196,-155.4043 217.8535,-169.0506 207.977,-181.0137"/>
<polygon fill="#000000" stroke="#000000" points="205.0729,-179.0337 201.4054,-188.9735 210.471,-183.4902 205.0729,-179.0337"/>
</g>
<!-- GO:0005886&#45;&gt;GO:0044464 -->
<g id="edge7" class="edge">
<title>GO:0005886&#45;&gt;GO:0044464</title>
<path fill="none" stroke="#000000" d="M264.0912,-144.4182C268.5131,-154.9818 273.9646,-168.0048 278.8294,-179.6261"/>
<polygon fill="#000000" stroke="#000000" points="275.6523,-181.1006 282.7423,-188.9735 282.1094,-178.3976 275.6523,-181.1006"/>
</g>
</g>
</svg>
