<?xml version="1.0" encoding="UTF-8" standalone="no"?>
<!DOCTYPE svg PUBLIC "-//W3C//DTD SVG 1.1//EN"
 "http://www.w3.org/Graphics/SVG/1.1/DTD/svg11.dtd">
<!-- Generated by graphviz version 2.40.1 (20161225.0304)
 -->
<!-- Title: G Pages: 1 -->
<svg width="892pt" height="727pt"
 viewBox="0.00 0.00 891.70 727.20" xmlns="http://www.w3.org/2000/svg" xmlns:xlink="http://www.w3.org/1999/xlink">
<g id="graph0" class="graph" transform="scale(1 1) rotate(0) translate(4 723.2)">
<title>G</title>
<polygon fill="#ffffff" stroke="transparent" points="-4,4 -4,-723.2 887.702,-723.2 887.702,4 -4,4"/>
<!-- GO:0016787 -->
<g id="node1" class="node">
<title>GO:0016787</title>
<polygon fill="#ffffff" stroke="#000000" points="585.803,-513.4019 469.9698,-513.4019 469.9698,-472.1981 585.803,-472.1981 585.803,-513.4019"/>
<text text-anchor="middle" x="527.8864" y="-497" font-family="Times,serif" font-size="14.00" fill="#000000">GO:0016787</text>
<text text-anchor="middle" x="527.8864" y="-480.2" font-family="Times,serif" font-size="14.00" fill="#000000">hydrolase activity</text>
</g>
<!-- GO:0003824 -->
<g id="node2" class="node">
<title>GO:0003824</title>
<polygon fill="#00ff00" stroke="#000000" points="619.2988,-624.6019 510.474,-624.6019 510.474,-583.3981 619.2988,-583.3981 619.2988,-624.6019"/>
<text text-anchor="middle" x="564.8864" y="-608.2" font-family="Times,serif" font-size="14.00" fill="#000000">GO:0003824</text>
<text text-anchor="middle" x="564.8864" y="-591.4" font-family="Times,serif" font-size="14.00" fill="#000000">catalytic activity</text>
</g>
<!-- GO:0016787&#45;&gt;GO:0003824 -->
<g id="edge1" class="edge">
<title>GO:0016787&#45;&gt;GO:0003824</title>
<path fill="none" stroke="#000000" d="M534.7591,-513.4553C540.357,-530.2792 548.3435,-554.2819 554.6872,-573.3473"/>
<polygon fill="#000000" stroke="#000000" points="551.4467,-574.6945 557.9249,-583.078 558.0887,-572.4844 551.4467,-574.6945"/>
</g>
<!-- GO:0003674 -->
<g id="node3" class="node">
<title>GO:0003674</title>
<polygon fill="#ffffff" stroke="#000000" points="627.5195,-719.0019 502.2533,-719.0019 502.2533,-677.7981 627.5195,-677.7981 627.5195,-719.0019"/>
<text text-anchor="middle" x="564.8864" y="-702.6" font-family="Times,serif" font-size="14.00" fill="#000000">GO:0003674</text>
<text text-anchor="middle" x="564.8864" y="-685.8" font-family="Times,serif" font-size="14.00" fill="#000000">molecular_function</text>
</g>
<!-- GO:0003824&#45;&gt;GO:0003674 -->
<g id="edge2" class="edge">
<title>GO:0003824&#45;&gt;GO:0003674</title>
<path fill="none" stroke="#000000" d="M564.8864,-624.9504C564.8864,-637.4165 564.8864,-653.4645 564.8864,-667.3786"/>
<polygon fill="#000000" stroke="#000000" points="561.3865,-667.5081 564.8864,-677.5081 568.3865,-667.5082 561.3865,-667.5081"/>
</g>
<!-- GO:0097063 -->
<g id="node4" class="node">
<title>GO:0097063</title>
<polygon fill="#ffffff" stroke="#000000" points="132.1426,-58.6014 3.6302,-58.6014 3.6302,.2014 132.1426,.2014 132.1426,-58.6014"/>
<text text-anchor="middle" x="67.8864" y="-41.8" font-family="Times,serif" font-size="14.00" fill="#000000">GO:0097063</text>
<text text-anchor="middle" x="67.8864" y="-25" font-family="Times,serif" font-size="14.00" fill="#000000">cadmium ion sensor</text>
<text text-anchor="middle" x="67.8864" y="-8.2" font-family="Times,serif" font-size="14.00" fill="#000000">activity</text>
</g>
<!-- GO:0046870 -->
<g id="node5" class="node">
<title>GO:0046870</title>
<polygon fill="#ffffff" stroke="#000000" points="135.6594,-135.8019 .1134,-135.8019 .1134,-94.5981 135.6594,-94.5981 135.6594,-135.8019"/>
<text text-anchor="middle" x="67.8864" y="-119.4" font-family="Times,serif" font-size="14.00" fill="#000000">GO:0046870</text>
<text text-anchor="middle" x="67.8864" y="-102.6" font-family="Times,serif" font-size="14.00" fill="#000000">cadmium ion binding</text>
</g>
<!-- GO:0097063&#45;&gt;GO:0046870 -->
<g id="edge3" class="edge">
<title>GO:0097063&#45;&gt;GO:0046870</title>
<path fill="none" stroke="#000000" d="M67.8864,-58.7963C67.8864,-67.0638 67.8864,-76.0657 67.8864,-84.4008"/>
<polygon fill="#000000" stroke="#000000" points="64.3865,-84.4965 67.8864,-94.4966 71.3865,-84.4966 64.3865,-84.4965"/>
</g>
<!-- GO:0046914 -->
<g id="node6" class="node">
<title>GO:0046914</title>
<polygon fill="#ffffff" stroke="#000000" points="130.2603,-230.6014 5.5125,-230.6014 5.5125,-171.7986 130.2603,-171.7986 130.2603,-230.6014"/>
<text text-anchor="middle" x="67.8864" y="-213.8" font-family="Times,serif" font-size="14.00" fill="#000000">GO:0046914</text>
<text text-anchor="middle" x="67.8864" y="-197" font-family="Times,serif" font-size="14.00" fill="#000000">transition metal ion</text>
<text text-anchor="middle" x="67.8864" y="-180.2" font-family="Times,serif" font-size="14.00" fill="#000000">binding</text>
</g>
<!-- GO:0046870&#45;&gt;GO:0046914 -->
<g id="edge4" class="edge">
<title>GO:0046870&#45;&gt;GO:0046914</title>
<path fill="none" stroke="#000000" d="M67.8864,-136.0182C67.8864,-143.7358 67.8864,-152.7662 67.8864,-161.6036"/>
<polygon fill="#000000" stroke="#000000" points="64.3865,-161.7991 67.8864,-171.7991 71.3865,-161.7992 64.3865,-161.7991"/>
</g>
<!-- GO:0046872 -->
<g id="node7" class="node">
<title>GO:0046872</title>
<polygon fill="#ffffff" stroke="#000000" points="125.1594,-307.8019 10.6134,-307.8019 10.6134,-266.5981 125.1594,-266.5981 125.1594,-307.8019"/>
<text text-anchor="middle" x="67.8864" y="-291.4" font-family="Times,serif" font-size="14.00" fill="#000000">GO:0046872</text>
<text text-anchor="middle" x="67.8864" y="-274.6" font-family="Times,serif" font-size="14.00" fill="#000000">metal ion binding</text>
</g>
<!-- GO:0046914&#45;&gt;GO:0046872 -->
<g id="edge5" class="edge">
<title>GO:0046914&#45;&gt;GO:0046872</title>
<path fill="none" stroke="#000000" d="M67.8864,-230.7963C67.8864,-239.0638 67.8864,-248.0657 67.8864,-256.4008"/>
<polygon fill="#000000" stroke="#000000" points="64.3865,-256.4965 67.8864,-266.4966 71.3865,-256.4966 64.3865,-256.4965"/>
</g>
<!-- GO:0043169 -->
<g id="node8" class="node">
<title>GO:0043169</title>
<polygon fill="#ffffff" stroke="#000000" points="116.3793,-402.2019 19.3935,-402.2019 19.3935,-360.9981 116.3793,-360.9981 116.3793,-402.2019"/>
<text text-anchor="middle" x="67.8864" y="-385.8" font-family="Times,serif" font-size="14.00" fill="#000000">GO:0043169</text>
<text text-anchor="middle" x="67.8864" y="-369" font-family="Times,serif" font-size="14.00" fill="#000000">cation binding</text>
</g>
<!-- GO:0046872&#45;&gt;GO:0043169 -->
<g id="edge6" class="edge">
<title>GO:0046872&#45;&gt;GO:0043169</title>
<path fill="none" stroke="#000000" d="M67.8864,-308.1504C67.8864,-320.6165 67.8864,-336.6645 67.8864,-350.5786"/>
<polygon fill="#000000" stroke="#000000" points="64.3865,-350.7081 67.8864,-360.7081 71.3865,-350.7082 64.3865,-350.7081"/>
</g>
<!-- GO:0043167 -->
<g id="node9" class="node">
<title>GO:0043167</title>
<polygon fill="#ffffff" stroke="#000000" points="112.4903,-513.4019 23.2825,-513.4019 23.2825,-472.1981 112.4903,-472.1981 112.4903,-513.4019"/>
<text text-anchor="middle" x="67.8864" y="-497" font-family="Times,serif" font-size="14.00" fill="#000000">GO:0043167</text>
<text text-anchor="middle" x="67.8864" y="-480.2" font-family="Times,serif" font-size="14.00" fill="#000000">ion binding</text>
</g>
<!-- GO:0043169&#45;&gt;GO:0043167 -->
<g id="edge7" class="edge">
<title>GO:0043169&#45;&gt;GO:0043167</title>
<path fill="none" stroke="#000000" d="M67.8864,-402.2553C67.8864,-418.9242 67.8864,-442.6401 67.8864,-461.6189"/>
<polygon fill="#000000" stroke="#000000" points="64.3865,-461.878 67.8864,-471.878 71.3865,-461.878 64.3865,-461.878"/>
</g>
<!-- GO:0005488 -->
<g id="node10" class="node">
<title>GO:0005488</title>
<polygon fill="#ffffff" stroke="#000000" points="338.4903,-624.6019 249.2825,-624.6019 249.2825,-583.3981 338.4903,-583.3981 338.4903,-624.6019"/>
<text text-anchor="middle" x="293.8864" y="-608.2" font-family="Times,serif" font-size="14.00" fill="#000000">GO:0005488</text>
<text text-anchor="middle" x="293.8864" y="-591.4" font-family="Times,serif" font-size="14.00" fill="#000000">binding</text>
</g>
<!-- GO:0043167&#45;&gt;GO:0005488 -->
<g id="edge8" class="edge">
<title>GO:0043167&#45;&gt;GO:0005488</title>
<path fill="none" stroke="#000000" d="M94.6602,-513.4775C102.8412,-519.3287 112.0231,-525.4465 120.8864,-530.4 159.1703,-551.796 204.9258,-571.0078 239.7627,-584.4339"/>
<polygon fill="#000000" stroke="#000000" points="238.6929,-587.7717 249.2837,-588.0643 241.187,-581.231 238.6929,-587.7717"/>
</g>
<!-- GO:0005488&#45;&gt;GO:0003674 -->
<g id="edge9" class="edge">
<title>GO:0005488&#45;&gt;GO:0003674</title>
<path fill="none" stroke="#000000" d="M338.6365,-619.5882C381.3411,-634.4639 446.3027,-657.0926 495.6794,-674.2925"/>
<polygon fill="#000000" stroke="#000000" points="494.7409,-677.6718 505.3357,-677.6561 497.0436,-671.0613 494.7409,-677.6718"/>
</g>
<!-- GO:0003700 -->
<g id="node11" class="node">
<title>GO:0003700</title>
<polygon fill="#ffffff" stroke="#000000" points="883.5181,-530.5003 744.2547,-530.5003 744.2547,-455.0997 883.5181,-455.0997 883.5181,-530.5003"/>
<text text-anchor="middle" x="813.8864" y="-513.8" font-family="Times,serif" font-size="14.00" fill="#000000">GO:0003700</text>
<text text-anchor="middle" x="813.8864" y="-497" font-family="Times,serif" font-size="14.00" fill="#000000">transcription factor</text>
<text text-anchor="middle" x="813.8864" y="-480.2" font-family="Times,serif" font-size="14.00" fill="#000000">activity, sequence&#45;</text>
<text text-anchor="middle" x="813.8864" y="-463.4" font-family="Times,serif" font-size="14.00" fill="#000000">specific DNA binding</text>
</g>
<!-- GO:0001071 -->
<g id="node12" class="node">
<title>GO:0001071</title>
<polygon fill="#ffffff" stroke="#000000" points="840.4133,-641.7003 711.3595,-641.7003 711.3595,-566.2997 840.4133,-566.2997 840.4133,-641.7003"/>
<text text-anchor="middle" x="775.8864" y="-625" font-family="Times,serif" font-size="14.00" fill="#000000">GO:0001071</text>
<text text-anchor="middle" x="775.8864" y="-608.2" font-family="Times,serif" font-size="14.00" fill="#000000">nucleic acid binding</text>
<text text-anchor="middle" x="775.8864" y="-591.4" font-family="Times,serif" font-size="14.00" fill="#000000">transcription factor</text>
<text text-anchor="middle" x="775.8864" y="-574.6" font-family="Times,serif" font-size="14.00" fill="#000000">activity</text>
</g>
<!-- GO:0003700&#45;&gt;GO:0001071 -->
<g id="edge10" class="edge">
<title>GO:0003700&#45;&gt;GO:0001071</title>
<path fill="none" stroke="#000000" d="M801.0213,-530.4472C798.1429,-538.8706 795.0539,-547.9098 792.0607,-556.6689"/>
<polygon fill="#000000" stroke="#000000" points="788.66,-555.797 788.7382,-566.3915 795.2839,-558.0606 788.66,-555.797"/>
</g>
<!-- GO:0001071&#45;&gt;GO:0003674 -->
<g id="edge11" class="edge">
<title>GO:0001071&#45;&gt;GO:0003674</title>
<path fill="none" stroke="#000000" d="M711.1455,-632.9646C682.0858,-645.9658 648.1506,-661.1482 620.2874,-673.6139"/>
<polygon fill="#000000" stroke="#000000" points="618.7855,-670.4515 611.0868,-677.7303 621.6443,-676.8412 618.7855,-670.4515"/>
</g>
<!-- GO:0097159 -->
<g id="node13" class="node">
<title>GO:0097159</title>
<polygon fill="#ff00ff" stroke="#000000" points="287.3978,-522.2014 130.375,-522.2014 130.375,-463.3986 287.3978,-463.3986 287.3978,-522.2014"/>
<text text-anchor="middle" x="208.8864" y="-505.4" font-family="Times,serif" font-size="14.00" fill="#000000">GO:0097159</text>
<text text-anchor="middle" x="208.8864" y="-488.6" font-family="Times,serif" font-size="14.00" fill="#000000">organic cyclic compound</text>
<text text-anchor="middle" x="208.8864" y="-471.8" font-family="Times,serif" font-size="14.00" fill="#000000">binding</text>
</g>
<!-- GO:0097159&#45;&gt;GO:0005488 -->
<g id="edge12" class="edge">
<title>GO:0097159&#45;&gt;GO:0005488</title>
<path fill="none" stroke="#000000" d="M231.2191,-522.0165C243.7013,-538.346 259.2047,-558.6282 271.6683,-574.9335"/>
<polygon fill="#000000" stroke="#000000" points="269.0231,-577.2363 277.8767,-583.0556 274.5844,-572.9852 269.0231,-577.2363"/>
</g>
<!-- GO:0016301 -->
<g id="node14" class="node">
<title>GO:0016301</title>
<polygon fill="#ffffff" stroke="#000000" points="713.6427,-307.8019 616.1301,-307.8019 616.1301,-266.5981 713.6427,-266.5981 713.6427,-307.8019"/>
<text text-anchor="middle" x="664.8864" y="-291.4" font-family="Times,serif" font-size="14.00" fill="#000000">GO:0016301</text>
<text text-anchor="middle" x="664.8864" y="-274.6" font-family="Times,serif" font-size="14.00" fill="#000000">kinase activity</text>
</g>
<!-- GO:0016772 -->
<g id="node15" class="node">
<title>GO:0016772</title>
<polygon fill="#ffffff" stroke="#000000" points="741.8942,-419.3003 587.8786,-419.3003 587.8786,-343.8997 741.8942,-343.8997 741.8942,-419.3003"/>
<text text-anchor="middle" x="664.8864" y="-402.6" font-family="Times,serif" font-size="14.00" fill="#000000">GO:0016772</text>
<text text-anchor="middle" x="664.8864" y="-385.8" font-family="Times,serif" font-size="14.00" fill="#000000">transferase activity,</text>
<text text-anchor="middle" x="664.8864" y="-369" font-family="Times,serif" font-size="14.00" fill="#000000">transferring phosphorus&#45;</text>
<text text-anchor="middle" x="664.8864" y="-352.2" font-family="Times,serif" font-size="14.00" fill="#000000">containing groups</text>
</g>
<!-- GO:0016301&#45;&gt;GO:0016772 -->
<g id="edge13" class="edge">
<title>GO:0016301&#45;&gt;GO:0016772</title>
<path fill="none" stroke="#000000" d="M664.8864,-308.1504C664.8864,-315.8068 664.8864,-324.8143 664.8864,-333.8487"/>
<polygon fill="#000000" stroke="#000000" points="661.3865,-333.9897 664.8864,-343.9897 668.3865,-333.9897 661.3865,-333.9897"/>
</g>
<!-- GO:0016740 -->
<g id="node16" class="node">
<title>GO:0016740</title>
<polygon fill="#ffffff" stroke="#000000" points="725.9981,-513.4019 603.7747,-513.4019 603.7747,-472.1981 725.9981,-472.1981 725.9981,-513.4019"/>
<text text-anchor="middle" x="664.8864" y="-497" font-family="Times,serif" font-size="14.00" fill="#000000">GO:0016740</text>
<text text-anchor="middle" x="664.8864" y="-480.2" font-family="Times,serif" font-size="14.00" fill="#000000">transferase activity</text>
</g>
<!-- GO:0016772&#45;&gt;GO:0016740 -->
<g id="edge14" class="edge">
<title>GO:0016772&#45;&gt;GO:0016740</title>
<path fill="none" stroke="#000000" d="M664.8864,-419.2472C664.8864,-433.168 664.8864,-448.7708 664.8864,-462.0118"/>
<polygon fill="#000000" stroke="#000000" points="661.3865,-462.0471 664.8864,-472.0471 668.3865,-462.0472 661.3865,-462.0471"/>
</g>
<!-- GO:0016740&#45;&gt;GO:0003824 -->
<g id="edge15" class="edge">
<title>GO:0016740&#45;&gt;GO:0003824</title>
<path fill="none" stroke="#000000" d="M646.3115,-513.4553C630.6243,-530.8995 607.9966,-556.0614 590.5742,-575.4352"/>
<polygon fill="#000000" stroke="#000000" points="587.7854,-573.302 583.7011,-583.078 592.9903,-577.9827 587.7854,-573.302"/>
</g>
<!-- GO:0003676 -->
<g id="node17" class="node">
<title>GO:0003676</title>
<polygon fill="#ffffff" stroke="#000000" points="358.4133,-402.2019 229.3595,-402.2019 229.3595,-360.9981 358.4133,-360.9981 358.4133,-402.2019"/>
<text text-anchor="middle" x="293.8864" y="-385.8" font-family="Times,serif" font-size="14.00" fill="#000000">GO:0003676</text>
<text text-anchor="middle" x="293.8864" y="-369" font-family="Times,serif" font-size="14.00" fill="#000000">nucleic acid binding</text>
</g>
<!-- GO:0003676&#45;&gt;GO:0097159 -->
<g id="edge16" class="edge">
<title>GO:0003676&#45;&gt;GO:0097159</title>
<path fill="none" stroke="#000000" d="M278.0978,-402.2553C266.7928,-417.0448 251.2474,-437.3819 237.753,-455.0357"/>
<polygon fill="#000000" stroke="#000000" points="234.613,-453.3802 231.3208,-463.4506 240.1744,-457.6313 234.613,-453.3802"/>
</g>
<!-- GO:1901363 -->
<g id="node18" class="node">
<title>GO:1901363</title>
<polygon fill="#ff00ff" stroke="#000000" points="452.397,-522.2014 305.3758,-522.2014 305.3758,-463.3986 452.397,-463.3986 452.397,-522.2014"/>
<text text-anchor="middle" x="378.8864" y="-505.4" font-family="Times,serif" font-size="14.00" fill="#000000">GO:1901363</text>
<text text-anchor="middle" x="378.8864" y="-488.6" font-family="Times,serif" font-size="14.00" fill="#000000">heterocyclic compound</text>
<text text-anchor="middle" x="378.8864" y="-471.8" font-family="Times,serif" font-size="14.00" fill="#000000">binding</text>
</g>
<!-- GO:0003676&#45;&gt;GO:1901363 -->
<g id="edge17" class="edge">
<title>GO:0003676&#45;&gt;GO:1901363</title>
<path fill="none" stroke="#000000" d="M309.675,-402.2553C320.98,-417.0448 336.5254,-437.3819 350.0198,-455.0357"/>
<polygon fill="#000000" stroke="#000000" points="347.5984,-457.6313 356.452,-463.4506 353.1598,-453.3802 347.5984,-457.6313"/>
</g>
<!-- GO:1901363&#45;&gt;GO:0005488 -->
<g id="edge18" class="edge">
<title>GO:1901363&#45;&gt;GO:0005488</title>
<path fill="none" stroke="#000000" d="M356.5537,-522.0165C344.0715,-538.346 328.5681,-558.6282 316.1045,-574.9335"/>
<polygon fill="#000000" stroke="#000000" points="313.1884,-572.9852 309.8961,-583.0556 318.7497,-577.2363 313.1884,-572.9852"/>
</g>
<!-- GO:0003677 -->
<g id="node19" class="node">
<title>GO:0003677</title>
<polygon fill="#ffffff" stroke="#000000" points="339.9883,-307.8019 247.7845,-307.8019 247.7845,-266.5981 339.9883,-266.5981 339.9883,-307.8019"/>
<text text-anchor="middle" x="293.8864" y="-291.4" font-family="Times,serif" font-size="14.00" fill="#000000">GO:0003677</text>
<text text-anchor="middle" x="293.8864" y="-274.6" font-family="Times,serif" font-size="14.00" fill="#000000">DNA binding</text>
</g>
<!-- GO:0003677&#45;&gt;GO:0003676 -->
<g id="edge19" class="edge">
<title>GO:0003677&#45;&gt;GO:0003676</title>
<path fill="none" stroke="#000000" d="M293.8864,-308.1504C293.8864,-320.6165 293.8864,-336.6645 293.8864,-350.5786"/>
<polygon fill="#000000" stroke="#000000" points="290.3865,-350.7081 293.8864,-360.7081 297.3865,-350.7082 290.3865,-350.7081"/>
</g>
</g>
</svg>
