<?xml version="1.0" encoding="UTF-8" standalone="no"?>
<!DOCTYPE svg PUBLIC "-//W3C//DTD SVG 1.1//EN"
 "http://www.w3.org/Graphics/SVG/1.1/DTD/svg11.dtd">
<!-- Generated by graphviz version 2.40.1 (20161225.0304)
 -->
<!-- Title: G Pages: 1 -->
<svg width="931pt" height="744pt"
 viewBox="0.00 0.00 930.81 744.00" xmlns="http://www.w3.org/2000/svg" xmlns:xlink="http://www.w3.org/1999/xlink">
<g id="graph0" class="graph" transform="scale(1 1) rotate(0) translate(4 740)">
<title>G</title>
<polygon fill="#ffffff" stroke="transparent" points="-4,4 -4,-740 926.8132,-740 926.8132,4 -4,4"/>
<!-- GO:0036094 -->
<g id="node1" class="node">
<title>GO:0036094</title>
<polygon fill="#ffffff" stroke="#000000" points="583.2363,-572.2019 435.3795,-572.2019 435.3795,-530.9981 583.2363,-530.9981 583.2363,-572.2019"/>
<text text-anchor="middle" x="509.3079" y="-555.8" font-family="Times,serif" font-size="14.00" fill="#000000">GO:0036094</text>
<text text-anchor="middle" x="509.3079" y="-539" font-family="Times,serif" font-size="14.00" fill="#000000">small molecule binding</text>
</g>
<!-- GO:0005488 -->
<g id="node2" class="node">
<title>GO:0005488</title>
<polygon fill="#ffffff" stroke="#000000" points="638.9118,-658.2019 549.704,-658.2019 549.704,-616.9981 638.9118,-616.9981 638.9118,-658.2019"/>
<text text-anchor="middle" x="594.3079" y="-641.8" font-family="Times,serif" font-size="14.00" fill="#000000">GO:0005488</text>
<text text-anchor="middle" x="594.3079" y="-625" font-family="Times,serif" font-size="14.00" fill="#000000">binding</text>
</g>
<!-- GO:0036094&#45;&gt;GO:0005488 -->
<g id="edge1" class="edge">
<title>GO:0036094&#45;&gt;GO:0005488</title>
<path fill="none" stroke="#000000" d="M529.884,-572.4182C540.9512,-583.6156 554.7497,-597.5764 566.7342,-609.7019"/>
<polygon fill="#000000" stroke="#000000" points="564.4023,-612.3216 573.9213,-616.9735 569.3809,-607.4008 564.4023,-612.3216"/>
</g>
<!-- GO:0003674 -->
<g id="node3" class="node">
<title>GO:0003674</title>
<polygon fill="#ffffff" stroke="#000000" points="581.941,-735.8019 456.6748,-735.8019 456.6748,-694.5981 581.941,-694.5981 581.941,-735.8019"/>
<text text-anchor="middle" x="519.3079" y="-719.4" font-family="Times,serif" font-size="14.00" fill="#000000">GO:0003674</text>
<text text-anchor="middle" x="519.3079" y="-702.6" font-family="Times,serif" font-size="14.00" fill="#000000">molecular_function</text>
</g>
<!-- GO:0005488&#45;&gt;GO:0003674 -->
<g id="edge2" class="edge">
<title>GO:0005488&#45;&gt;GO:0003674</title>
<path fill="none" stroke="#000000" d="M574.2093,-658.3954C565.7183,-667.1807 555.698,-677.5484 546.5577,-687.0056"/>
<polygon fill="#000000" stroke="#000000" points="543.8949,-684.7243 539.462,-694.3472 548.9283,-689.5891 543.8949,-684.7243"/>
</g>
<!-- GO:0016896 -->
<g id="node4" class="node">
<title>GO:0016896</title>
<polygon fill="#ffffff" stroke="#000000" points="246.2589,-75.3003 90.3569,-75.3003 90.3569,.1003 246.2589,.1003 246.2589,-75.3003"/>
<text text-anchor="middle" x="168.3079" y="-58.6" font-family="Times,serif" font-size="14.00" fill="#000000">GO:0016896</text>
<text text-anchor="middle" x="168.3079" y="-41.8" font-family="Times,serif" font-size="14.00" fill="#000000">exoribonuclease activity,</text>
<text text-anchor="middle" x="168.3079" y="-25" font-family="Times,serif" font-size="14.00" fill="#000000">producing</text>
<text text-anchor="middle" x="168.3079" y="-8.2" font-family="Times,serif" font-size="14.00" fill="#000000">5&#39;&#45;phosphomonoesters</text>
</g>
<!-- GO:0016796 -->
<g id="node5" class="node">
<title>GO:0016796</title>
<polygon fill="#ffffff" stroke="#000000" points="160.4242,-219.9002 .1916,-219.9002 .1916,-111.2998 160.4242,-111.2998 160.4242,-219.9002"/>
<text text-anchor="middle" x="80.3079" y="-203.4" font-family="Times,serif" font-size="14.00" fill="#000000">GO:0016796</text>
<text text-anchor="middle" x="80.3079" y="-186.6" font-family="Times,serif" font-size="14.00" fill="#000000">exonuclease activity,</text>
<text text-anchor="middle" x="80.3079" y="-169.8" font-family="Times,serif" font-size="14.00" fill="#000000">active with either ribo&#45;</text>
<text text-anchor="middle" x="80.3079" y="-153" font-family="Times,serif" font-size="14.00" fill="#000000">or deoxyribonucleic acids</text>
<text text-anchor="middle" x="80.3079" y="-136.2" font-family="Times,serif" font-size="14.00" fill="#000000">and producing</text>
<text text-anchor="middle" x="80.3079" y="-119.4" font-family="Times,serif" font-size="14.00" fill="#000000">5&#39;&#45;phosphomonoesters</text>
</g>
<!-- GO:0016896&#45;&gt;GO:0016796 -->
<g id="edge3" class="edge">
<title>GO:0016896&#45;&gt;GO:0016796</title>
<path fill="none" stroke="#000000" d="M142.381,-75.3119C136.4207,-83.9814 129.9249,-93.4299 123.4537,-102.8425"/>
<polygon fill="#000000" stroke="#000000" points="120.5685,-100.8612 117.7873,-111.0845 126.3368,-104.8269 120.5685,-100.8612"/>
</g>
<!-- GO:0004532 -->
<g id="node6" class="node">
<title>GO:0004532</title>
<polygon fill="#ffffff" stroke="#000000" points="331.7596,-186.2019 178.8562,-186.2019 178.8562,-144.9981 331.7596,-144.9981 331.7596,-186.2019"/>
<text text-anchor="middle" x="255.3079" y="-169.8" font-family="Times,serif" font-size="14.00" fill="#000000">GO:0004532</text>
<text text-anchor="middle" x="255.3079" y="-153" font-family="Times,serif" font-size="14.00" fill="#000000">exoribonuclease activity</text>
</g>
<!-- GO:0016896&#45;&gt;GO:0004532 -->
<g id="edge4" class="edge">
<title>GO:0016896&#45;&gt;GO:0004532</title>
<path fill="none" stroke="#000000" d="M193.9402,-75.3119C207.2071,-94.831 223.1577,-118.2986 235.4716,-136.4156"/>
<polygon fill="#000000" stroke="#000000" points="232.6808,-138.5359 241.1968,-144.8389 238.4701,-134.6009 232.6808,-138.5359"/>
</g>
<!-- GO:0004527 -->
<g id="node7" class="node">
<title>GO:0004527</title>
<polygon fill="#ffffff" stroke="#000000" points="199.2077,-305.8019 69.4081,-305.8019 69.4081,-264.5981 199.2077,-264.5981 199.2077,-305.8019"/>
<text text-anchor="middle" x="134.3079" y="-289.4" font-family="Times,serif" font-size="14.00" fill="#000000">GO:0004527</text>
<text text-anchor="middle" x="134.3079" y="-272.6" font-family="Times,serif" font-size="14.00" fill="#000000">exonuclease activity</text>
</g>
<!-- GO:0016796&#45;&gt;GO:0004527 -->
<g id="edge5" class="edge">
<title>GO:0016796&#45;&gt;GO:0004527</title>
<path fill="none" stroke="#000000" d="M104.9376,-220.1502C110.3896,-232.2253 115.9715,-244.5882 120.7848,-255.2489"/>
<polygon fill="#000000" stroke="#000000" points="117.6584,-256.83 124.9635,-264.5038 124.0383,-253.9494 117.6584,-256.83"/>
</g>
<!-- GO:0004532&#45;&gt;GO:0004527 -->
<g id="edge6" class="edge">
<title>GO:0004532&#45;&gt;GO:0004527</title>
<path fill="none" stroke="#000000" d="M234.2313,-186.4327C214.486,-205.9495 184.8176,-235.2747 162.9353,-256.9039"/>
<polygon fill="#000000" stroke="#000000" points="160.2006,-254.6856 155.549,-264.2047 165.1215,-259.6641 160.2006,-254.6856"/>
</g>
<!-- GO:0004540 -->
<g id="node8" class="node">
<title>GO:0004540</title>
<polygon fill="#ffffff" stroke="#000000" points="349.5445,-305.8019 217.0713,-305.8019 217.0713,-264.5981 349.5445,-264.5981 349.5445,-305.8019"/>
<text text-anchor="middle" x="283.3079" y="-289.4" font-family="Times,serif" font-size="14.00" fill="#000000">GO:0004540</text>
<text text-anchor="middle" x="283.3079" y="-272.6" font-family="Times,serif" font-size="14.00" fill="#000000">ribonuclease activity</text>
</g>
<!-- GO:0004532&#45;&gt;GO:0004540 -->
<g id="edge7" class="edge">
<title>GO:0004532&#45;&gt;GO:0004540</title>
<path fill="none" stroke="#000000" d="M260.1851,-186.4327C264.5747,-205.1825 271.0836,-232.9848 276.0783,-254.3191"/>
<polygon fill="#000000" stroke="#000000" points="272.7052,-255.2658 278.3926,-264.2047 279.5209,-253.6701 272.7052,-255.2658"/>
</g>
<!-- GO:0004518 -->
<g id="node9" class="node">
<title>GO:0004518</title>
<polygon fill="#ffffff" stroke="#000000" points="413.9936,-391.8019 304.6222,-391.8019 304.6222,-350.5981 413.9936,-350.5981 413.9936,-391.8019"/>
<text text-anchor="middle" x="359.3079" y="-375.4" font-family="Times,serif" font-size="14.00" fill="#000000">GO:0004518</text>
<text text-anchor="middle" x="359.3079" y="-358.6" font-family="Times,serif" font-size="14.00" fill="#000000">nuclease activity</text>
</g>
<!-- GO:0004527&#45;&gt;GO:0004518 -->
<g id="edge8" class="edge">
<title>GO:0004527&#45;&gt;GO:0004518</title>
<path fill="none" stroke="#000000" d="M186.4197,-305.8842C193.7617,-308.763 201.2198,-311.6686 208.3079,-314.4 236.5891,-325.2981 267.9413,-337.1317 294.7151,-347.1627"/>
<polygon fill="#000000" stroke="#000000" points="293.7655,-350.5443 304.3579,-350.7717 296.2192,-343.9884 293.7655,-350.5443"/>
</g>
<!-- GO:0004540&#45;&gt;GO:0004518 -->
<g id="edge9" class="edge">
<title>GO:0004540&#45;&gt;GO:0004518</title>
<path fill="none" stroke="#000000" d="M301.7054,-306.0182C311.5074,-317.1099 323.7056,-330.9132 334.3501,-342.9583"/>
<polygon fill="#000000" stroke="#000000" points="331.8352,-345.3979 341.0798,-350.5735 337.0805,-340.7625 331.8352,-345.3979"/>
</g>
<!-- GO:0016788 -->
<g id="node10" class="node">
<title>GO:0016788</title>
<polygon fill="#ffffff" stroke="#000000" points="426.3886,-486.6014 292.2272,-486.6014 292.2272,-427.7986 426.3886,-427.7986 426.3886,-486.6014"/>
<text text-anchor="middle" x="359.3079" y="-469.8" font-family="Times,serif" font-size="14.00" fill="#000000">GO:0016788</text>
<text text-anchor="middle" x="359.3079" y="-453" font-family="Times,serif" font-size="14.00" fill="#000000">hydrolase activity,</text>
<text text-anchor="middle" x="359.3079" y="-436.2" font-family="Times,serif" font-size="14.00" fill="#000000">acting on ester bonds</text>
</g>
<!-- GO:0004518&#45;&gt;GO:0016788 -->
<g id="edge10" class="edge">
<title>GO:0004518&#45;&gt;GO:0016788</title>
<path fill="none" stroke="#000000" d="M359.3079,-392.0182C359.3079,-399.7358 359.3079,-408.7662 359.3079,-417.6036"/>
<polygon fill="#000000" stroke="#000000" points="355.808,-417.7991 359.3079,-427.7991 362.808,-417.7992 355.808,-417.7991"/>
</g>
<!-- GO:0016787 -->
<g id="node11" class="node">
<title>GO:0016787</title>
<polygon fill="#ffffff" stroke="#000000" points="417.2245,-572.2019 301.3913,-572.2019 301.3913,-530.9981 417.2245,-530.9981 417.2245,-572.2019"/>
<text text-anchor="middle" x="359.3079" y="-555.8" font-family="Times,serif" font-size="14.00" fill="#000000">GO:0016787</text>
<text text-anchor="middle" x="359.3079" y="-539" font-family="Times,serif" font-size="14.00" fill="#000000">hydrolase activity</text>
</g>
<!-- GO:0016788&#45;&gt;GO:0016787 -->
<g id="edge11" class="edge">
<title>GO:0016788&#45;&gt;GO:0016787</title>
<path fill="none" stroke="#000000" d="M359.3079,-486.5513C359.3079,-497.4614 359.3079,-509.8637 359.3079,-520.892"/>
<polygon fill="#000000" stroke="#000000" points="355.808,-520.9509 359.3079,-530.951 362.808,-520.951 355.808,-520.9509"/>
</g>
<!-- GO:0003824 -->
<g id="node12" class="node">
<title>GO:0003824</title>
<polygon fill="#ffffff" stroke="#000000" points="515.7203,-658.2019 406.8955,-658.2019 406.8955,-616.9981 515.7203,-616.9981 515.7203,-658.2019"/>
<text text-anchor="middle" x="461.3079" y="-641.8" font-family="Times,serif" font-size="14.00" fill="#000000">GO:0003824</text>
<text text-anchor="middle" x="461.3079" y="-625" font-family="Times,serif" font-size="14.00" fill="#000000">catalytic activity</text>
</g>
<!-- GO:0016787&#45;&gt;GO:0003824 -->
<g id="edge12" class="edge">
<title>GO:0016787&#45;&gt;GO:0003824</title>
<path fill="none" stroke="#000000" d="M383.9993,-572.4182C397.5304,-583.8268 414.464,-598.1042 429.0312,-610.3863"/>
<polygon fill="#000000" stroke="#000000" points="426.9426,-613.2033 436.8439,-616.9735 431.4548,-607.8517 426.9426,-613.2033"/>
</g>
<!-- GO:0003824&#45;&gt;GO:0003674 -->
<g id="edge13" class="edge">
<title>GO:0003824&#45;&gt;GO:0003674</title>
<path fill="none" stroke="#000000" d="M476.8508,-658.3954C483.2221,-666.9197 490.707,-676.9339 497.6031,-686.1605"/>
<polygon fill="#000000" stroke="#000000" points="494.9318,-688.4327 503.7221,-694.3472 500.5387,-684.2419 494.9318,-688.4327"/>
</g>
<!-- GO:1901265 -->
<g id="node13" class="node">
<title>GO:1901265</title>
<polygon fill="#ffffff" stroke="#000000" points="832.442,-486.6014 696.1738,-486.6014 696.1738,-427.7986 832.442,-427.7986 832.442,-486.6014"/>
<text text-anchor="middle" x="764.3079" y="-469.8" font-family="Times,serif" font-size="14.00" fill="#000000">GO:1901265</text>
<text text-anchor="middle" x="764.3079" y="-453" font-family="Times,serif" font-size="14.00" fill="#000000">nucleoside phosphate</text>
<text text-anchor="middle" x="764.3079" y="-436.2" font-family="Times,serif" font-size="14.00" fill="#000000">binding</text>
</g>
<!-- GO:0097159 -->
<g id="node14" class="node">
<title>GO:0097159</title>
<polygon fill="#ffffff" stroke="#000000" points="757.8193,-581.0014 600.7965,-581.0014 600.7965,-522.1986 757.8193,-522.1986 757.8193,-581.0014"/>
<text text-anchor="middle" x="679.3079" y="-564.2" font-family="Times,serif" font-size="14.00" fill="#000000">GO:0097159</text>
<text text-anchor="middle" x="679.3079" y="-547.4" font-family="Times,serif" font-size="14.00" fill="#000000">organic cyclic compound</text>
<text text-anchor="middle" x="679.3079" y="-530.6" font-family="Times,serif" font-size="14.00" fill="#000000">binding</text>
</g>
<!-- GO:1901265&#45;&gt;GO:0097159 -->
<g id="edge14" class="edge">
<title>GO:1901265&#45;&gt;GO:0097159</title>
<path fill="none" stroke="#000000" d="M737.8793,-486.5513C729.8838,-495.431 720.9984,-505.299 712.6143,-514.6103"/>
<polygon fill="#000000" stroke="#000000" points="709.8106,-512.4935 705.7202,-522.2669 715.0126,-517.1775 709.8106,-512.4935"/>
</g>
<!-- GO:1901363 -->
<g id="node15" class="node">
<title>GO:1901363</title>
<polygon fill="#ffffff" stroke="#000000" points="922.8185,-581.0014 775.7973,-581.0014 775.7973,-522.1986 922.8185,-522.1986 922.8185,-581.0014"/>
<text text-anchor="middle" x="849.3079" y="-564.2" font-family="Times,serif" font-size="14.00" fill="#000000">GO:1901363</text>
<text text-anchor="middle" x="849.3079" y="-547.4" font-family="Times,serif" font-size="14.00" fill="#000000">heterocyclic compound</text>
<text text-anchor="middle" x="849.3079" y="-530.6" font-family="Times,serif" font-size="14.00" fill="#000000">binding</text>
</g>
<!-- GO:1901265&#45;&gt;GO:1901363 -->
<g id="edge15" class="edge">
<title>GO:1901265&#45;&gt;GO:1901363</title>
<path fill="none" stroke="#000000" d="M790.7365,-486.5513C798.732,-495.431 807.6174,-505.299 816.0015,-514.6103"/>
<polygon fill="#000000" stroke="#000000" points="813.6032,-517.1775 822.8956,-522.2669 818.8052,-512.4935 813.6032,-517.1775"/>
</g>
<!-- GO:0097159&#45;&gt;GO:0005488 -->
<g id="edge16" class="edge">
<title>GO:0097159&#45;&gt;GO:0005488</title>
<path fill="none" stroke="#000000" d="M650.0557,-581.1963C640.9765,-590.3824 631.001,-600.4752 622.0292,-609.5526"/>
<polygon fill="#000000" stroke="#000000" points="619.3109,-607.3239 614.7706,-616.8966 624.2896,-612.2446 619.3109,-607.3239"/>
</g>
<!-- GO:1901363&#45;&gt;GO:0005488 -->
<g id="edge17" class="edge">
<title>GO:1901363&#45;&gt;GO:0005488</title>
<path fill="none" stroke="#000000" d="M775.5809,-577.9514C772.7896,-578.9181 770.0245,-579.8705 767.3079,-580.8 727.8351,-594.3057 683.0839,-608.9816 648.9868,-620.032"/>
<polygon fill="#000000" stroke="#000000" points="647.6527,-616.7849 639.2161,-623.1938 649.8079,-623.4449 647.6527,-616.7849"/>
</g>
<!-- GO:0016888 -->
<g id="node16" class="node">
<title>GO:0016888</title>
<polygon fill="#ffffff" stroke="#000000" points="507.482,-75.3003 359.1338,-75.3003 359.1338,.1003 507.482,.1003 507.482,-75.3003"/>
<text text-anchor="middle" x="433.3079" y="-58.6" font-family="Times,serif" font-size="14.00" fill="#000000">GO:0016888</text>
<text text-anchor="middle" x="433.3079" y="-41.8" font-family="Times,serif" font-size="14.00" fill="#000000">endodeoxyribonuclease</text>
<text text-anchor="middle" x="433.3079" y="-25" font-family="Times,serif" font-size="14.00" fill="#000000">activity, producing</text>
<text text-anchor="middle" x="433.3079" y="-8.2" font-family="Times,serif" font-size="14.00" fill="#000000">5&#39;&#45;phosphomonoesters</text>
</g>
<!-- GO:0016893 -->
<g id="node17" class="node">
<title>GO:0016893</title>
<polygon fill="#ffffff" stroke="#000000" points="510.4242,-219.9002 350.1916,-219.9002 350.1916,-111.2998 510.4242,-111.2998 510.4242,-219.9002"/>
<text text-anchor="middle" x="430.3079" y="-203.4" font-family="Times,serif" font-size="14.00" fill="#000000">GO:0016893</text>
<text text-anchor="middle" x="430.3079" y="-186.6" font-family="Times,serif" font-size="14.00" fill="#000000">endonuclease activity,</text>
<text text-anchor="middle" x="430.3079" y="-169.8" font-family="Times,serif" font-size="14.00" fill="#000000">active with either ribo&#45;</text>
<text text-anchor="middle" x="430.3079" y="-153" font-family="Times,serif" font-size="14.00" fill="#000000">or deoxyribonucleic acids</text>
<text text-anchor="middle" x="430.3079" y="-136.2" font-family="Times,serif" font-size="14.00" fill="#000000">and producing</text>
<text text-anchor="middle" x="430.3079" y="-119.4" font-family="Times,serif" font-size="14.00" fill="#000000">5&#39;&#45;phosphomonoesters</text>
</g>
<!-- GO:0016888&#45;&gt;GO:0016893 -->
<g id="edge18" class="edge">
<title>GO:0016888&#45;&gt;GO:0016893</title>
<path fill="none" stroke="#000000" d="M432.424,-75.3119C432.2352,-83.3684 432.0306,-92.0976 431.8256,-100.8456"/>
<polygon fill="#000000" stroke="#000000" points="428.321,-101.0052 431.5856,-111.0845 435.3191,-101.1692 428.321,-101.0052"/>
</g>
<!-- GO:0004520 -->
<g id="node18" class="node">
<title>GO:0004520</title>
<polygon fill="#ffffff" stroke="#000000" points="676.482,-195.0014 528.1338,-195.0014 528.1338,-136.1986 676.482,-136.1986 676.482,-195.0014"/>
<text text-anchor="middle" x="602.3079" y="-178.2" font-family="Times,serif" font-size="14.00" fill="#000000">GO:0004520</text>
<text text-anchor="middle" x="602.3079" y="-161.4" font-family="Times,serif" font-size="14.00" fill="#000000">endodeoxyribonuclease</text>
<text text-anchor="middle" x="602.3079" y="-144.6" font-family="Times,serif" font-size="14.00" fill="#000000">activity</text>
</g>
<!-- GO:0016888&#45;&gt;GO:0004520 -->
<g id="edge19" class="edge">
<title>GO:0016888&#45;&gt;GO:0004520</title>
<path fill="none" stroke="#000000" d="M483.0994,-75.3119C505.9923,-92.6509 532.9991,-113.1057 555.5133,-130.158"/>
<polygon fill="#000000" stroke="#000000" points="553.5041,-133.0267 563.5889,-136.2744 557.7304,-127.4466 553.5041,-133.0267"/>
</g>
<!-- GO:0004519 -->
<g id="node19" class="node">
<title>GO:0004519</title>
<polygon fill="#ffffff" stroke="#000000" points="504.7077,-305.8019 367.9081,-305.8019 367.9081,-264.5981 504.7077,-264.5981 504.7077,-305.8019"/>
<text text-anchor="middle" x="436.3079" y="-289.4" font-family="Times,serif" font-size="14.00" fill="#000000">GO:0004519</text>
<text text-anchor="middle" x="436.3079" y="-272.6" font-family="Times,serif" font-size="14.00" fill="#000000">endonuclease activity</text>
</g>
<!-- GO:0016893&#45;&gt;GO:0004519 -->
<g id="edge20" class="edge">
<title>GO:0016893&#45;&gt;GO:0004519</title>
<path fill="none" stroke="#000000" d="M433.0445,-220.1502C433.6318,-231.8557 434.2326,-243.8316 434.756,-254.2652"/>
<polygon fill="#000000" stroke="#000000" points="431.2729,-254.6918 435.2696,-264.5038 438.2641,-254.341 431.2729,-254.6918"/>
</g>
<!-- GO:0004520&#45;&gt;GO:0004519 -->
<g id="edge22" class="edge">
<title>GO:0004520&#45;&gt;GO:0004519</title>
<path fill="none" stroke="#000000" d="M561.6997,-194.8575C534.6771,-214.3268 499.4596,-239.7003 473.2297,-258.5985"/>
<polygon fill="#000000" stroke="#000000" points="471.1187,-255.8056 465.0511,-264.491 475.2106,-261.4851 471.1187,-255.8056"/>
</g>
<!-- GO:0004536 -->
<g id="node20" class="node">
<title>GO:0004536</title>
<polygon fill="#ffffff" stroke="#000000" points="655.7673,-314.6014 534.8485,-314.6014 534.8485,-255.7986 655.7673,-255.7986 655.7673,-314.6014"/>
<text text-anchor="middle" x="595.3079" y="-297.8" font-family="Times,serif" font-size="14.00" fill="#000000">GO:0004536</text>
<text text-anchor="middle" x="595.3079" y="-281" font-family="Times,serif" font-size="14.00" fill="#000000">deoxyribonuclease</text>
<text text-anchor="middle" x="595.3079" y="-264.2" font-family="Times,serif" font-size="14.00" fill="#000000">activity</text>
</g>
<!-- GO:0004520&#45;&gt;GO:0004536 -->
<g id="edge21" class="edge">
<title>GO:0004520&#45;&gt;GO:0004536</title>
<path fill="none" stroke="#000000" d="M600.5955,-194.8575C599.6972,-210.2056 598.5842,-229.2229 597.6113,-245.8446"/>
<polygon fill="#000000" stroke="#000000" points="594.1172,-245.6426 597.0269,-255.8301 601.1053,-246.0517 594.1172,-245.6426"/>
</g>
<!-- GO:0004519&#45;&gt;GO:0004518 -->
<g id="edge23" class="edge">
<title>GO:0004519&#45;&gt;GO:0004518</title>
<path fill="none" stroke="#000000" d="M417.6683,-306.0182C407.7374,-317.1099 395.3786,-330.9132 384.5941,-342.9583"/>
<polygon fill="#000000" stroke="#000000" points="381.8388,-340.7887 377.7758,-350.5735 387.0539,-345.458 381.8388,-340.7887"/>
</g>
<!-- GO:0004536&#45;&gt;GO:0004518 -->
<g id="edge24" class="edge">
<title>GO:0004536&#45;&gt;GO:0004518</title>
<path fill="none" stroke="#000000" d="M534.8385,-307.2355C500.884,-319.6087 458.5151,-335.0482 423.9104,-347.6584"/>
<polygon fill="#000000" stroke="#000000" points="422.5667,-344.4228 414.3695,-351.1352 424.9634,-350.9998 422.5667,-344.4228"/>
</g>
<!-- GO:0015666 -->
<g id="node21" class="node">
<title>GO:0015666</title>
<polygon fill="#ffffff" stroke="#000000" points="676.482,-75.3003 528.1338,-75.3003 528.1338,.1003 676.482,.1003 676.482,-75.3003"/>
<text text-anchor="middle" x="602.3079" y="-58.6" font-family="Times,serif" font-size="14.00" fill="#000000">GO:0015666</text>
<text text-anchor="middle" x="602.3079" y="-41.8" font-family="Times,serif" font-size="14.00" fill="#000000">restriction</text>
<text text-anchor="middle" x="602.3079" y="-25" font-family="Times,serif" font-size="14.00" fill="#000000">endodeoxyribonuclease</text>
<text text-anchor="middle" x="602.3079" y="-8.2" font-family="Times,serif" font-size="14.00" fill="#000000">activity</text>
</g>
<!-- GO:0015666&#45;&gt;GO:0004520 -->
<g id="edge25" class="edge">
<title>GO:0015666&#45;&gt;GO:0004520</title>
<path fill="none" stroke="#000000" d="M602.3079,-75.3119C602.3079,-91.2821 602.3079,-109.8954 602.3079,-126.0589"/>
<polygon fill="#000000" stroke="#000000" points="598.808,-126.2743 602.3079,-136.2744 605.808,-126.2744 598.808,-126.2743"/>
</g>
</g>
</svg>
