<?xml version="1.0" encoding="UTF-8" standalone="no"?>
<!DOCTYPE svg PUBLIC "-//W3C//DTD SVG 1.1//EN"
 "http://www.w3.org/Graphics/SVG/1.1/DTD/svg11.dtd">
<!-- Generated by graphviz version 2.40.1 (20161225.0304)
 -->
<!-- Title: G Pages: 1 -->
<svg width="654pt" height="855pt"
 viewBox="0.00 0.00 653.79 855.20" xmlns="http://www.w3.org/2000/svg" xmlns:xlink="http://www.w3.org/1999/xlink">
<g id="graph0" class="graph" transform="scale(1 1) rotate(0) translate(4 851.2)">
<title>G</title>
<polygon fill="#ffffff" stroke="transparent" points="-4,4 -4,-851.2 649.7855,-851.2 649.7855,4 -4,4"/>
<!-- GO:0019902 -->
<g id="node1" class="node">
<title>GO:0019902</title>
<polygon fill="#ffffff" stroke="#000000" points="180.5137,-477.8019 50.1035,-477.8019 50.1035,-436.5981 180.5137,-436.5981 180.5137,-477.8019"/>
<text text-anchor="middle" x="115.3086" y="-461.4" font-family="Times,serif" font-size="14.00" fill="#000000">GO:0019902</text>
<text text-anchor="middle" x="115.3086" y="-444.6" font-family="Times,serif" font-size="14.00" fill="#000000">phosphatase binding</text>
</g>
<!-- GO:0019899 -->
<g id="node2" class="node">
<title>GO:0019899</title>
<polygon fill="#ffffff" stroke="#000000" points="168.1244,-563.8019 62.4928,-563.8019 62.4928,-522.5981 168.1244,-522.5981 168.1244,-563.8019"/>
<text text-anchor="middle" x="115.3086" y="-547.4" font-family="Times,serif" font-size="14.00" fill="#000000">GO:0019899</text>
<text text-anchor="middle" x="115.3086" y="-530.6" font-family="Times,serif" font-size="14.00" fill="#000000">enzyme binding</text>
</g>
<!-- GO:0019902&#45;&gt;GO:0019899 -->
<g id="edge1" class="edge">
<title>GO:0019902&#45;&gt;GO:0019899</title>
<path fill="none" stroke="#000000" d="M115.3086,-478.0182C115.3086,-488.3705 115.3086,-501.0848 115.3086,-512.5271"/>
<polygon fill="#000000" stroke="#000000" points="111.8087,-512.5735 115.3086,-522.5735 118.8087,-512.5735 111.8087,-512.5735"/>
</g>
<!-- GO:0005515 -->
<g id="node3" class="node">
<title>GO:0005515</title>
<polygon fill="#ffffff" stroke="#000000" points="166.2462,-649.8019 64.371,-649.8019 64.371,-608.5981 166.2462,-608.5981 166.2462,-649.8019"/>
<text text-anchor="middle" x="115.3086" y="-633.4" font-family="Times,serif" font-size="14.00" fill="#000000">GO:0005515</text>
<text text-anchor="middle" x="115.3086" y="-616.6" font-family="Times,serif" font-size="14.00" fill="#000000">protein binding</text>
</g>
<!-- GO:0019899&#45;&gt;GO:0005515 -->
<g id="edge2" class="edge">
<title>GO:0019899&#45;&gt;GO:0005515</title>
<path fill="none" stroke="#000000" d="M115.3086,-564.0182C115.3086,-574.3705 115.3086,-587.0848 115.3086,-598.5271"/>
<polygon fill="#000000" stroke="#000000" points="111.8087,-598.5735 115.3086,-608.5735 118.8087,-598.5735 111.8087,-598.5735"/>
</g>
<!-- GO:0005488 -->
<g id="node4" class="node">
<title>GO:0005488</title>
<polygon fill="#ffffff" stroke="#000000" points="301.9125,-752.6019 212.7047,-752.6019 212.7047,-711.3981 301.9125,-711.3981 301.9125,-752.6019"/>
<text text-anchor="middle" x="257.3086" y="-736.2" font-family="Times,serif" font-size="14.00" fill="#000000">GO:0005488</text>
<text text-anchor="middle" x="257.3086" y="-719.4" font-family="Times,serif" font-size="14.00" fill="#000000">binding</text>
</g>
<!-- GO:0005515&#45;&gt;GO:0005488 -->
<g id="edge3" class="edge">
<title>GO:0005515&#45;&gt;GO:0005488</title>
<path fill="none" stroke="#000000" d="M144.0444,-650.0031C166.0824,-665.9574 196.6619,-688.0952 220.4928,-705.3474"/>
<polygon fill="#000000" stroke="#000000" points="218.4629,-708.1988 228.6155,-711.2278 222.5678,-702.5287 218.4629,-708.1988"/>
</g>
<!-- GO:0003674 -->
<g id="node5" class="node">
<title>GO:0003674</title>
<polygon fill="#ffffff" stroke="#000000" points="382.9417,-847.0019 257.6755,-847.0019 257.6755,-805.7981 382.9417,-805.7981 382.9417,-847.0019"/>
<text text-anchor="middle" x="320.3086" y="-830.6" font-family="Times,serif" font-size="14.00" fill="#000000">GO:0003674</text>
<text text-anchor="middle" x="320.3086" y="-813.8" font-family="Times,serif" font-size="14.00" fill="#000000">molecular_function</text>
</g>
<!-- GO:0005488&#45;&gt;GO:0003674 -->
<g id="edge4" class="edge">
<title>GO:0005488&#45;&gt;GO:0003674</title>
<path fill="none" stroke="#000000" d="M271.2903,-752.9504C279.9361,-765.9054 291.1635,-782.7287 300.6914,-797.0053"/>
<polygon fill="#000000" stroke="#000000" points="297.9036,-799.1332 306.3659,-805.5081 303.7261,-795.2474 297.9036,-799.1332"/>
</g>
<!-- GO:0001071 -->
<g id="node6" class="node">
<title>GO:0001071</title>
<polygon fill="#ffffff" stroke="#000000" points="448.8355,-769.7003 319.7817,-769.7003 319.7817,-694.2997 448.8355,-694.2997 448.8355,-769.7003"/>
<text text-anchor="middle" x="384.3086" y="-753" font-family="Times,serif" font-size="14.00" fill="#000000">GO:0001071</text>
<text text-anchor="middle" x="384.3086" y="-736.2" font-family="Times,serif" font-size="14.00" fill="#000000">nucleic acid binding</text>
<text text-anchor="middle" x="384.3086" y="-719.4" font-family="Times,serif" font-size="14.00" fill="#000000">transcription factor</text>
<text text-anchor="middle" x="384.3086" y="-702.6" font-family="Times,serif" font-size="14.00" fill="#000000">activity</text>
</g>
<!-- GO:0001071&#45;&gt;GO:0003674 -->
<g id="edge5" class="edge">
<title>GO:0001071&#45;&gt;GO:0003674</title>
<path fill="none" stroke="#000000" d="M358.6461,-769.8522C352.4386,-779.0082 345.8997,-788.6532 340.0149,-797.3333"/>
<polygon fill="#000000" stroke="#000000" points="337.0992,-795.3967 334.3846,-805.6379 342.8932,-799.3249 337.0992,-795.3967"/>
</g>
<!-- GO:0001046 -->
<g id="node7" class="node">
<title>GO:0001046</title>
<polygon fill="#ffffff" stroke="#000000" points="436.6794,-75.4014 281.9378,-75.4014 281.9378,-16.5986 436.6794,-16.5986 436.6794,-75.4014"/>
<text text-anchor="middle" x="359.3086" y="-58.6" font-family="Times,serif" font-size="14.00" fill="#000000">GO:0001046</text>
<text text-anchor="middle" x="359.3086" y="-41.8" font-family="Times,serif" font-size="14.00" fill="#000000">core promoter sequence&#45;</text>
<text text-anchor="middle" x="359.3086" y="-25" font-family="Times,serif" font-size="14.00" fill="#000000">specific DNA binding</text>
</g>
<!-- GO:0000976 -->
<g id="node8" class="node">
<title>GO:0000976</title>
<polygon fill="#ffffff" stroke="#000000" points="319.5684,-203.3003 165.0488,-203.3003 165.0488,-127.8997 319.5684,-127.8997 319.5684,-203.3003"/>
<text text-anchor="middle" x="242.3086" y="-186.6" font-family="Times,serif" font-size="14.00" fill="#000000">GO:0000976</text>
<text text-anchor="middle" x="242.3086" y="-169.8" font-family="Times,serif" font-size="14.00" fill="#000000">transcription regulatory</text>
<text text-anchor="middle" x="242.3086" y="-153" font-family="Times,serif" font-size="14.00" fill="#000000">region sequence&#45;specific</text>
<text text-anchor="middle" x="242.3086" y="-136.2" font-family="Times,serif" font-size="14.00" fill="#000000">DNA binding</text>
</g>
<!-- GO:0001046&#45;&gt;GO:0000976 -->
<g id="edge6" class="edge">
<title>GO:0001046&#45;&gt;GO:0000976</title>
<path fill="none" stroke="#000000" d="M330.6872,-75.2575C317.4317,-88.8075 301.3785,-105.2175 286.6101,-120.314"/>
<polygon fill="#000000" stroke="#000000" points="283.9724,-118.0053 279.4814,-127.6012 288.9763,-122.9004 283.9724,-118.0053"/>
</g>
<!-- GO:0001047 -->
<g id="node9" class="node">
<title>GO:0001047</title>
<polygon fill="#ffffff" stroke="#000000" points="478.9967,-186.2019 337.6205,-186.2019 337.6205,-144.9981 478.9967,-144.9981 478.9967,-186.2019"/>
<text text-anchor="middle" x="408.3086" y="-169.8" font-family="Times,serif" font-size="14.00" fill="#000000">GO:0001047</text>
<text text-anchor="middle" x="408.3086" y="-153" font-family="Times,serif" font-size="14.00" fill="#000000">core promoter binding</text>
</g>
<!-- GO:0001046&#45;&gt;GO:0001047 -->
<g id="edge7" class="edge">
<title>GO:0001046&#45;&gt;GO:0001047</title>
<path fill="none" stroke="#000000" d="M371.2953,-75.2575C378.7885,-93.5468 388.4163,-117.0465 395.9741,-135.4939"/>
<polygon fill="#000000" stroke="#000000" points="392.7942,-136.9644 399.8242,-144.891 399.2717,-134.3106 392.7942,-136.9644"/>
</g>
<!-- GO:0044212 -->
<g id="node10" class="node">
<title>GO:0044212</title>
<polygon fill="#ffffff" stroke="#000000" points="482.0978,-297.8014 334.5194,-297.8014 334.5194,-238.9986 482.0978,-238.9986 482.0978,-297.8014"/>
<text text-anchor="middle" x="408.3086" y="-281" font-family="Times,serif" font-size="14.00" fill="#000000">GO:0044212</text>
<text text-anchor="middle" x="408.3086" y="-264.2" font-family="Times,serif" font-size="14.00" fill="#000000">transcription regulatory</text>
<text text-anchor="middle" x="408.3086" y="-247.4" font-family="Times,serif" font-size="14.00" fill="#000000">region DNA binding</text>
</g>
<!-- GO:0000976&#45;&gt;GO:0044212 -->
<g id="edge8" class="edge">
<title>GO:0000976&#45;&gt;GO:0044212</title>
<path fill="none" stroke="#000000" d="M303.1783,-203.2952C319.2615,-213.2552 336.5406,-223.9558 352.3503,-233.7463"/>
<polygon fill="#000000" stroke="#000000" points="350.6207,-236.792 360.9653,-239.0814 354.3062,-230.8407 350.6207,-236.792"/>
</g>
<!-- GO:1990837 -->
<g id="node11" class="node">
<title>GO:1990837</title>
<polygon fill="#ffffff" stroke="#000000" points="316.0684,-297.8014 154.5488,-297.8014 154.5488,-238.9986 316.0684,-238.9986 316.0684,-297.8014"/>
<text text-anchor="middle" x="235.3086" y="-281" font-family="Times,serif" font-size="14.00" fill="#000000">GO:1990837</text>
<text text-anchor="middle" x="235.3086" y="-264.2" font-family="Times,serif" font-size="14.00" fill="#000000">sequence&#45;specific double&#45;</text>
<text text-anchor="middle" x="235.3086" y="-247.4" font-family="Times,serif" font-size="14.00" fill="#000000">stranded DNA binding</text>
</g>
<!-- GO:0000976&#45;&gt;GO:1990837 -->
<g id="edge9" class="edge">
<title>GO:0000976&#45;&gt;GO:1990837</title>
<path fill="none" stroke="#000000" d="M239.7418,-203.2952C239.1704,-211.6874 238.5631,-220.6054 237.9873,-229.0618"/>
<polygon fill="#000000" stroke="#000000" points="234.4925,-228.8667 237.305,-239.0814 241.4764,-229.3423 234.4925,-228.8667"/>
</g>
<!-- GO:0001047&#45;&gt;GO:0044212 -->
<g id="edge10" class="edge">
<title>GO:0001047&#45;&gt;GO:0044212</title>
<path fill="none" stroke="#000000" d="M408.3086,-186.4031C408.3086,-198.5833 408.3086,-214.3676 408.3086,-228.8305"/>
<polygon fill="#000000" stroke="#000000" points="404.8087,-229.0577 408.3086,-239.0577 411.8087,-229.0578 404.8087,-229.0577"/>
</g>
<!-- GO:0000975 -->
<g id="node12" class="node">
<title>GO:0000975</title>
<polygon fill="#ffffff" stroke="#000000" points="481.4263,-392.2014 335.1909,-392.2014 335.1909,-333.3986 481.4263,-333.3986 481.4263,-392.2014"/>
<text text-anchor="middle" x="408.3086" y="-375.4" font-family="Times,serif" font-size="14.00" fill="#000000">GO:0000975</text>
<text text-anchor="middle" x="408.3086" y="-358.6" font-family="Times,serif" font-size="14.00" fill="#000000">regulatory region DNA</text>
<text text-anchor="middle" x="408.3086" y="-341.8" font-family="Times,serif" font-size="14.00" fill="#000000">binding</text>
</g>
<!-- GO:0044212&#45;&gt;GO:0000975 -->
<g id="edge11" class="edge">
<title>GO:0044212&#45;&gt;GO:0000975</title>
<path fill="none" stroke="#000000" d="M408.3086,-297.7513C408.3086,-305.8318 408.3086,-314.7308 408.3086,-323.2838"/>
<polygon fill="#000000" stroke="#000000" points="404.8087,-323.4668 408.3086,-333.4669 411.8087,-323.4669 404.8087,-323.4668"/>
</g>
<!-- GO:0043565 -->
<g id="node13" class="node">
<title>GO:0043565</title>
<polygon fill="#ffffff" stroke="#000000" points="159.1225,-392.2014 9.4947,-392.2014 9.4947,-333.3986 159.1225,-333.3986 159.1225,-392.2014"/>
<text text-anchor="middle" x="84.3086" y="-375.4" font-family="Times,serif" font-size="14.00" fill="#000000">GO:0043565</text>
<text text-anchor="middle" x="84.3086" y="-358.6" font-family="Times,serif" font-size="14.00" fill="#000000">sequence&#45;specific DNA</text>
<text text-anchor="middle" x="84.3086" y="-341.8" font-family="Times,serif" font-size="14.00" fill="#000000">binding</text>
</g>
<!-- GO:1990837&#45;&gt;GO:0043565 -->
<g id="edge12" class="edge">
<title>GO:1990837&#45;&gt;GO:0043565</title>
<path fill="none" stroke="#000000" d="M188.359,-297.7513C173.019,-307.3413 155.8349,-318.0842 139.9203,-328.0335"/>
<polygon fill="#000000" stroke="#000000" points="137.8532,-325.198 131.2292,-333.4669 141.5639,-331.1336 137.8532,-325.198"/>
</g>
<!-- GO:0003690 -->
<g id="node14" class="node">
<title>GO:0003690</title>
<polygon fill="#ffffff" stroke="#000000" points="317.3192,-392.2014 177.298,-392.2014 177.298,-333.3986 317.3192,-333.3986 317.3192,-392.2014"/>
<text text-anchor="middle" x="247.3086" y="-375.4" font-family="Times,serif" font-size="14.00" fill="#000000">GO:0003690</text>
<text text-anchor="middle" x="247.3086" y="-358.6" font-family="Times,serif" font-size="14.00" fill="#000000">double&#45;stranded DNA</text>
<text text-anchor="middle" x="247.3086" y="-341.8" font-family="Times,serif" font-size="14.00" fill="#000000">binding</text>
</g>
<!-- GO:1990837&#45;&gt;GO:0003690 -->
<g id="edge13" class="edge">
<title>GO:1990837&#45;&gt;GO:0003690</title>
<path fill="none" stroke="#000000" d="M239.0397,-297.7513C240.0669,-305.8318 241.1981,-314.7308 242.2854,-323.2838"/>
<polygon fill="#000000" stroke="#000000" points="238.8466,-323.9881 243.5798,-333.4669 245.7907,-323.1053 238.8466,-323.9881"/>
</g>
<!-- GO:0001067 -->
<g id="node15" class="node">
<title>GO:0001067</title>
<polygon fill="#ffffff" stroke="#000000" points="481.5312,-486.6014 325.086,-486.6014 325.086,-427.7986 481.5312,-427.7986 481.5312,-486.6014"/>
<text text-anchor="middle" x="403.3086" y="-469.8" font-family="Times,serif" font-size="14.00" fill="#000000">GO:0001067</text>
<text text-anchor="middle" x="403.3086" y="-453" font-family="Times,serif" font-size="14.00" fill="#000000">regulatory region nucleic</text>
<text text-anchor="middle" x="403.3086" y="-436.2" font-family="Times,serif" font-size="14.00" fill="#000000">acid binding</text>
</g>
<!-- GO:0000975&#45;&gt;GO:0001067 -->
<g id="edge14" class="edge">
<title>GO:0000975&#45;&gt;GO:0001067</title>
<path fill="none" stroke="#000000" d="M406.754,-392.1513C406.326,-400.2318 405.8546,-409.1308 405.4016,-417.6838"/>
<polygon fill="#000000" stroke="#000000" points="401.8962,-417.6957 404.8623,-427.8669 408.8864,-418.066 401.8962,-417.6957"/>
</g>
<!-- GO:0003677 -->
<g id="node16" class="node">
<title>GO:0003677</title>
<polygon fill="#ffffff" stroke="#000000" points="297.4105,-477.8019 205.2067,-477.8019 205.2067,-436.5981 297.4105,-436.5981 297.4105,-477.8019"/>
<text text-anchor="middle" x="251.3086" y="-461.4" font-family="Times,serif" font-size="14.00" fill="#000000">GO:0003677</text>
<text text-anchor="middle" x="251.3086" y="-444.6" font-family="Times,serif" font-size="14.00" fill="#000000">DNA binding</text>
</g>
<!-- GO:0000975&#45;&gt;GO:0003677 -->
<g id="edge15" class="edge">
<title>GO:0000975&#45;&gt;GO:0003677</title>
<path fill="none" stroke="#000000" d="M359.4934,-392.1513C338.636,-404.6923 314.4996,-419.2049 294.3239,-431.336"/>
<polygon fill="#000000" stroke="#000000" points="292.4173,-428.3984 285.6507,-436.551 296.0244,-434.3975 292.4173,-428.3984"/>
</g>
<!-- GO:0043565&#45;&gt;GO:0003677 -->
<g id="edge16" class="edge">
<title>GO:0043565&#45;&gt;GO:0003677</title>
<path fill="none" stroke="#000000" d="M136.233,-392.1513C158.5185,-404.7486 184.323,-419.3351 205.8419,-431.4991"/>
<polygon fill="#000000" stroke="#000000" points="204.3513,-434.6769 214.7791,-436.551 207.796,-428.5831 204.3513,-434.6769"/>
</g>
<!-- GO:0003690&#45;&gt;GO:0003677 -->
<g id="edge17" class="edge">
<title>GO:0003690&#45;&gt;GO:0003677</title>
<path fill="none" stroke="#000000" d="M248.5523,-392.1513C249.0146,-403.0614 249.5401,-415.4637 250.0074,-426.492"/>
<polygon fill="#000000" stroke="#000000" points="246.5133,-426.7082 250.4336,-436.551 253.5071,-426.4117 246.5133,-426.7082"/>
</g>
<!-- GO:0003676 -->
<g id="node17" class="node">
<title>GO:0003676</title>
<polygon fill="#ffffff" stroke="#000000" points="394.8355,-563.8019 265.7817,-563.8019 265.7817,-522.5981 394.8355,-522.5981 394.8355,-563.8019"/>
<text text-anchor="middle" x="330.3086" y="-547.4" font-family="Times,serif" font-size="14.00" fill="#000000">GO:0003676</text>
<text text-anchor="middle" x="330.3086" y="-530.6" font-family="Times,serif" font-size="14.00" fill="#000000">nucleic acid binding</text>
</g>
<!-- GO:0001067&#45;&gt;GO:0003676 -->
<g id="edge18" class="edge">
<title>GO:0001067&#45;&gt;GO:0003676</title>
<path fill="none" stroke="#000000" d="M378.1861,-486.7963C370.5446,-495.7986 362.1639,-505.6719 354.5796,-514.6067"/>
<polygon fill="#000000" stroke="#000000" points="351.6855,-512.6078 347.8825,-522.4966 357.0222,-517.1377 351.6855,-512.6078"/>
</g>
<!-- GO:0003677&#45;&gt;GO:0003676 -->
<g id="edge19" class="edge">
<title>GO:0003677&#45;&gt;GO:0003676</title>
<path fill="none" stroke="#000000" d="M270.4323,-478.0182C280.6212,-489.1099 293.301,-502.9132 304.3656,-514.9583"/>
<polygon fill="#000000" stroke="#000000" points="302.0184,-517.5768 311.361,-522.5735 307.1735,-512.8413 302.0184,-517.5768"/>
</g>
<!-- GO:0097159 -->
<g id="node18" class="node">
<title>GO:0097159</title>
<polygon fill="#ffffff" stroke="#000000" points="505.82,-658.6014 348.7972,-658.6014 348.7972,-599.7986 505.82,-599.7986 505.82,-658.6014"/>
<text text-anchor="middle" x="427.3086" y="-641.8" font-family="Times,serif" font-size="14.00" fill="#000000">GO:0097159</text>
<text text-anchor="middle" x="427.3086" y="-625" font-family="Times,serif" font-size="14.00" fill="#000000">organic cyclic compound</text>
<text text-anchor="middle" x="427.3086" y="-608.2" font-family="Times,serif" font-size="14.00" fill="#000000">binding</text>
</g>
<!-- GO:0003676&#45;&gt;GO:0097159 -->
<g id="edge20" class="edge">
<title>GO:0003676&#45;&gt;GO:0097159</title>
<path fill="none" stroke="#000000" d="M353.7896,-564.0182C363.6297,-572.7425 375.362,-583.1443 386.5331,-593.0485"/>
<polygon fill="#000000" stroke="#000000" points="384.3426,-595.784 394.1472,-599.7991 388.9865,-590.5461 384.3426,-595.784"/>
</g>
<!-- GO:1901363 -->
<g id="node19" class="node">
<title>GO:1901363</title>
<polygon fill="#ffffff" stroke="#000000" points="330.8192,-658.6014 183.798,-658.6014 183.798,-599.7986 330.8192,-599.7986 330.8192,-658.6014"/>
<text text-anchor="middle" x="257.3086" y="-641.8" font-family="Times,serif" font-size="14.00" fill="#000000">GO:1901363</text>
<text text-anchor="middle" x="257.3086" y="-625" font-family="Times,serif" font-size="14.00" fill="#000000">heterocyclic compound</text>
<text text-anchor="middle" x="257.3086" y="-608.2" font-family="Times,serif" font-size="14.00" fill="#000000">binding</text>
</g>
<!-- GO:0003676&#45;&gt;GO:1901363 -->
<g id="edge21" class="edge">
<title>GO:0003676&#45;&gt;GO:1901363</title>
<path fill="none" stroke="#000000" d="M312.6373,-564.0182C305.5167,-572.4069 297.0795,-582.3466 288.9671,-591.9037"/>
<polygon fill="#000000" stroke="#000000" points="286.0682,-589.9104 282.2651,-599.7991 291.4048,-594.4403 286.0682,-589.9104"/>
</g>
<!-- GO:0097159&#45;&gt;GO:0005488 -->
<g id="edge22" class="edge">
<title>GO:0097159&#45;&gt;GO:0005488</title>
<path fill="none" stroke="#000000" d="M371.8299,-658.5064C352.1318,-669.3321 329.9767,-681.9946 310.3086,-694.4 304.8606,-697.8363 299.2065,-701.61 293.7092,-705.3997"/>
<polygon fill="#000000" stroke="#000000" points="291.4355,-702.719 285.2518,-711.322 295.4508,-708.453 291.4355,-702.719"/>
</g>
<!-- GO:1901363&#45;&gt;GO:0005488 -->
<g id="edge23" class="edge">
<title>GO:1901363&#45;&gt;GO:0005488</title>
<path fill="none" stroke="#000000" d="M257.3086,-658.6584C257.3086,-671.9539 257.3086,-687.6608 257.3086,-701.1212"/>
<polygon fill="#000000" stroke="#000000" points="253.8087,-701.3456 257.3086,-711.3456 260.8087,-701.3457 253.8087,-701.3456"/>
</g>
<!-- GO:0000987 -->
<g id="node20" class="node">
<title>GO:0000987</title>
<polygon fill="#ffffff" stroke="#000000" points="628.5684,-83.7003 474.0488,-83.7003 474.0488,-8.2997 628.5684,-8.2997 628.5684,-83.7003"/>
<text text-anchor="middle" x="551.3086" y="-67" font-family="Times,serif" font-size="14.00" fill="#000000">GO:0000987</text>
<text text-anchor="middle" x="551.3086" y="-50.2" font-family="Times,serif" font-size="14.00" fill="#000000">core promoter proximal</text>
<text text-anchor="middle" x="551.3086" y="-33.4" font-family="Times,serif" font-size="14.00" fill="#000000">region sequence&#45;specific</text>
<text text-anchor="middle" x="551.3086" y="-16.6" font-family="Times,serif" font-size="14.00" fill="#000000">DNA binding</text>
</g>
<!-- GO:0000987&#45;&gt;GO:0000976 -->
<g id="edge24" class="edge">
<title>GO:0000987&#45;&gt;GO:0000976</title>
<path fill="none" stroke="#000000" d="M473.8474,-80.7867C464.2987,-84.7272 454.6231,-88.558 445.3086,-92 397.1662,-109.7902 381.1262,-109.2082 329.6353,-127.6432"/>
<polygon fill="#000000" stroke="#000000" points="328.1539,-124.458 319.9625,-131.1775 330.5563,-131.0329 328.1539,-124.458"/>
</g>
<!-- GO:0001159 -->
<g id="node21" class="node">
<title>GO:0001159</title>
<polygon fill="#ffffff" stroke="#000000" points="645.7624,-195.0014 496.8548,-195.0014 496.8548,-136.1986 645.7624,-136.1986 645.7624,-195.0014"/>
<text text-anchor="middle" x="571.3086" y="-178.2" font-family="Times,serif" font-size="14.00" fill="#000000">GO:0001159</text>
<text text-anchor="middle" x="571.3086" y="-161.4" font-family="Times,serif" font-size="14.00" fill="#000000">core promoter proximal</text>
<text text-anchor="middle" x="571.3086" y="-144.6" font-family="Times,serif" font-size="14.00" fill="#000000">region DNA binding</text>
</g>
<!-- GO:0000987&#45;&gt;GO:0001159 -->
<g id="edge25" class="edge">
<title>GO:0000987&#45;&gt;GO:0001159</title>
<path fill="none" stroke="#000000" d="M557.6367,-83.8422C559.8984,-97.3668 562.451,-112.6315 564.733,-126.278"/>
<polygon fill="#000000" stroke="#000000" points="561.3146,-127.0568 566.416,-136.3425 568.2187,-125.9022 561.3146,-127.0568"/>
</g>
<!-- GO:0001159&#45;&gt;GO:0044212 -->
<g id="edge26" class="edge">
<title>GO:0001159&#45;&gt;GO:0044212</title>
<path fill="none" stroke="#000000" d="M524.5993,-195.0584C505.5055,-207.1004 483.2753,-221.1204 463.3959,-233.6578"/>
<polygon fill="#000000" stroke="#000000" points="461.334,-230.8203 454.7427,-239.1152 465.0681,-236.7411 461.334,-230.8203"/>
</g>
<!-- GO:0000977 -->
<g id="node22" class="node">
<title>GO:0000977</title>
<polygon fill="#ffffff" stroke="#000000" points="225.1225,-92 75.4947,-92 75.4947,0 225.1225,0 225.1225,-92"/>
<text text-anchor="middle" x="150.3086" y="-75.4" font-family="Times,serif" font-size="14.00" fill="#000000">GO:0000977</text>
<text text-anchor="middle" x="150.3086" y="-58.6" font-family="Times,serif" font-size="14.00" fill="#000000">RNA polymerase II</text>
<text text-anchor="middle" x="150.3086" y="-41.8" font-family="Times,serif" font-size="14.00" fill="#000000">regulatory region</text>
<text text-anchor="middle" x="150.3086" y="-25" font-family="Times,serif" font-size="14.00" fill="#000000">sequence&#45;specific DNA</text>
<text text-anchor="middle" x="150.3086" y="-8.2" font-family="Times,serif" font-size="14.00" fill="#000000">binding</text>
</g>
<!-- GO:0000977&#45;&gt;GO:0000976 -->
<g id="edge27" class="edge">
<title>GO:0000977&#45;&gt;GO:0000976</title>
<path fill="none" stroke="#000000" d="M185.8782,-92.2405C192.8466,-101.2993 200.152,-110.7964 207.1082,-119.8395"/>
<polygon fill="#000000" stroke="#000000" points="204.5074,-122.1989 213.3787,-127.9912 210.0558,-117.9309 204.5074,-122.1989"/>
</g>
<!-- GO:0001012 -->
<g id="node23" class="node">
<title>GO:0001012</title>
<polygon fill="#ffffff" stroke="#000000" points="146.4263,-203.3003 .1909,-203.3003 .1909,-127.8997 146.4263,-127.8997 146.4263,-203.3003"/>
<text text-anchor="middle" x="73.3086" y="-186.6" font-family="Times,serif" font-size="14.00" fill="#000000">GO:0001012</text>
<text text-anchor="middle" x="73.3086" y="-169.8" font-family="Times,serif" font-size="14.00" fill="#000000">RNA polymerase II</text>
<text text-anchor="middle" x="73.3086" y="-153" font-family="Times,serif" font-size="14.00" fill="#000000">regulatory region DNA</text>
<text text-anchor="middle" x="73.3086" y="-136.2" font-family="Times,serif" font-size="14.00" fill="#000000">binding</text>
</g>
<!-- GO:0000977&#45;&gt;GO:0001012 -->
<g id="edge28" class="edge">
<title>GO:0000977&#45;&gt;GO:0001012</title>
<path fill="none" stroke="#000000" d="M120.5384,-92.2405C114.7657,-101.2069 108.7166,-110.6027 102.9481,-119.5626"/>
<polygon fill="#000000" stroke="#000000" points="99.9921,-117.6884 97.5216,-127.9912 105.8778,-121.4777 99.9921,-117.6884"/>
</g>
<!-- GO:0001012&#45;&gt;GO:0044212 -->
<g id="edge29" class="edge">
<title>GO:0001012&#45;&gt;GO:0044212</title>
<path fill="none" stroke="#000000" d="M146.7466,-199.8597C149.956,-201.0422 153.1527,-202.1625 156.3086,-203.2 226.2714,-226.2002 249.4791,-219.0783 324.3498,-239.0935"/>
<polygon fill="#000000" stroke="#000000" points="323.6775,-242.5385 334.2476,-241.8151 325.5334,-235.789 323.6775,-242.5385"/>
</g>
</g>
</svg>
