<?xml version="1.0" encoding="UTF-8" standalone="no"?>
<!DOCTYPE svg PUBLIC "-//W3C//DTD SVG 1.1//EN"
 "http://www.w3.org/Graphics/SVG/1.1/DTD/svg11.dtd">
<!-- Generated by graphviz version 2.40.1 (20161225.0304)
 -->
<!-- Title: G Pages: 1 -->
<svg width="419pt" height="532pt"
 viewBox="0.00 0.00 418.79 532.00" xmlns="http://www.w3.org/2000/svg" xmlns:xlink="http://www.w3.org/1999/xlink">
<g id="graph0" class="graph" transform="scale(1 1) rotate(0) translate(4 528)">
<title>G</title>
<polygon fill="#ffffff" stroke="transparent" points="-4,4 -4,-528 414.7918,-528 414.7918,4 -4,4"/>
<!-- GO:0005829 -->
<g id="node1" class="node">
<title>GO:0005829</title>
<polygon fill="#ffffff" stroke="#000000" points="94.0622,-196.6019 4.8544,-196.6019 4.8544,-155.3981 94.0622,-155.3981 94.0622,-196.6019"/>
<text text-anchor="middle" x="49.4583" y="-180.2" font-family="Times,serif" font-size="14.00" fill="#000000">GO:0005829</text>
<text text-anchor="middle" x="49.4583" y="-163.4" font-family="Times,serif" font-size="14.00" fill="#000000">cytosol</text>
</g>
<!-- GO:0044444 -->
<g id="node2" class="node">
<title>GO:0044444</title>
<polygon fill="#ffffff" stroke="#000000" points="108.8749,-282.6019 .0417,-282.6019 .0417,-241.3981 108.8749,-241.3981 108.8749,-282.6019"/>
<text text-anchor="middle" x="54.4583" y="-266.2" font-family="Times,serif" font-size="14.00" fill="#000000">GO:0044444</text>
<text text-anchor="middle" x="54.4583" y="-249.4" font-family="Times,serif" font-size="14.00" fill="#000000">cytoplasmic part</text>
</g>
<!-- GO:0005829&#45;&gt;GO:0044444 -->
<g id="edge1" class="edge">
<title>GO:0005829&#45;&gt;GO:0044444</title>
<path fill="none" stroke="#000000" d="M50.6687,-196.8182C51.2705,-207.1705 52.0097,-219.8848 52.675,-231.3271"/>
<polygon fill="#000000" stroke="#000000" points="49.1845,-231.5936 53.2591,-241.3735 56.1727,-231.1872 49.1845,-231.5936"/>
</g>
<!-- GO:0044424 -->
<g id="node3" class="node">
<title>GO:0044424</title>
<polygon fill="#ffffff" stroke="#000000" points="175.8567,-368.6019 67.0599,-368.6019 67.0599,-327.3981 175.8567,-327.3981 175.8567,-368.6019"/>
<text text-anchor="middle" x="121.4583" y="-352.2" font-family="Times,serif" font-size="14.00" fill="#000000">GO:0044424</text>
<text text-anchor="middle" x="121.4583" y="-335.4" font-family="Times,serif" font-size="14.00" fill="#000000">intracellular part</text>
</g>
<!-- GO:0044444&#45;&gt;GO:0044424 -->
<g id="edge2" class="edge">
<title>GO:0044444&#45;&gt;GO:0044424</title>
<path fill="none" stroke="#000000" d="M70.6771,-282.8182C79.2361,-293.8043 89.8675,-307.4506 99.1875,-319.4137"/>
<polygon fill="#000000" stroke="#000000" points="96.482,-321.6359 105.3888,-327.3735 102.004,-317.3339 96.482,-321.6359"/>
</g>
<!-- GO:0044464 -->
<g id="node4" class="node">
<title>GO:0044464</title>
<polygon fill="#ffffff" stroke="#000000" points="166.0622,-446.2019 76.8544,-446.2019 76.8544,-404.9981 166.0622,-404.9981 166.0622,-446.2019"/>
<text text-anchor="middle" x="121.4583" y="-429.8" font-family="Times,serif" font-size="14.00" fill="#000000">GO:0044464</text>
<text text-anchor="middle" x="121.4583" y="-413" font-family="Times,serif" font-size="14.00" fill="#000000">cell part</text>
</g>
<!-- GO:0044424&#45;&gt;GO:0044464 -->
<g id="edge3" class="edge">
<title>GO:0044424&#45;&gt;GO:0044464</title>
<path fill="none" stroke="#000000" d="M121.4583,-368.7954C121.4583,-376.7109 121.4583,-385.9109 121.4583,-394.5722"/>
<polygon fill="#000000" stroke="#000000" points="117.9584,-394.7472 121.4583,-404.7472 124.9584,-394.7473 117.9584,-394.7472"/>
</g>
<!-- GO:0005575 -->
<g id="node5" class="node">
<title>GO:0005575</title>
<polygon fill="#ffffff" stroke="#000000" points="294.145,-523.8019 166.7716,-523.8019 166.7716,-482.5981 294.145,-482.5981 294.145,-523.8019"/>
<text text-anchor="middle" x="230.4583" y="-507.4" font-family="Times,serif" font-size="14.00" fill="#000000">GO:0005575</text>
<text text-anchor="middle" x="230.4583" y="-490.6" font-family="Times,serif" font-size="14.00" fill="#000000">cellular_component</text>
</g>
<!-- GO:0044464&#45;&gt;GO:0005575 -->
<g id="edge4" class="edge">
<title>GO:0044464&#45;&gt;GO:0005575</title>
<path fill="none" stroke="#000000" d="M150.6683,-446.3954C163.6194,-455.6156 179.0187,-466.5788 192.8184,-476.4031"/>
<polygon fill="#000000" stroke="#000000" points="190.9913,-479.3988 201.1677,-482.3472 195.0511,-473.6963 190.9913,-479.3988"/>
</g>
<!-- GO:0005654 -->
<g id="node6" class="node">
<title>GO:0005654</title>
<polygon fill="#ffffff" stroke="#000000" points="125.0622,-119.0019 35.8544,-119.0019 35.8544,-77.7981 125.0622,-77.7981 125.0622,-119.0019"/>
<text text-anchor="middle" x="80.4583" y="-102.6" font-family="Times,serif" font-size="14.00" fill="#000000">GO:0005654</text>
<text text-anchor="middle" x="80.4583" y="-85.8" font-family="Times,serif" font-size="14.00" fill="#000000">nucleoplasm</text>
</g>
<!-- GO:0044428 -->
<g id="node7" class="node">
<title>GO:0044428</title>
<polygon fill="#ffffff" stroke="#000000" points="201.0622,-196.6019 111.8544,-196.6019 111.8544,-155.3981 201.0622,-155.3981 201.0622,-196.6019"/>
<text text-anchor="middle" x="156.4583" y="-180.2" font-family="Times,serif" font-size="14.00" fill="#000000">GO:0044428</text>
<text text-anchor="middle" x="156.4583" y="-163.4" font-family="Times,serif" font-size="14.00" fill="#000000">nuclear part</text>
</g>
<!-- GO:0005654&#45;&gt;GO:0044428 -->
<g id="edge5" class="edge">
<title>GO:0005654&#45;&gt;GO:0044428</title>
<path fill="none" stroke="#000000" d="M100.8249,-119.1954C109.4291,-127.9807 119.583,-138.3484 128.8452,-147.8056"/>
<polygon fill="#000000" stroke="#000000" points="126.5379,-150.4518 136.0355,-155.1472 131.5389,-145.5539 126.5379,-150.4518"/>
</g>
<!-- GO:0044446 -->
<g id="node8" class="node">
<title>GO:0044446</title>
<polygon fill="#ffffff" stroke="#000000" points="282.1767,-291.4014 142.7399,-291.4014 142.7399,-232.5986 282.1767,-232.5986 282.1767,-291.4014"/>
<text text-anchor="middle" x="212.4583" y="-274.6" font-family="Times,serif" font-size="14.00" fill="#000000">GO:0044446</text>
<text text-anchor="middle" x="212.4583" y="-257.8" font-family="Times,serif" font-size="14.00" fill="#000000">intracellular organelle</text>
<text text-anchor="middle" x="212.4583" y="-241" font-family="Times,serif" font-size="14.00" fill="#000000">part</text>
</g>
<!-- GO:0044428&#45;&gt;GO:0044446 -->
<g id="edge6" class="edge">
<title>GO:0044428&#45;&gt;GO:0044446</title>
<path fill="none" stroke="#000000" d="M170.0143,-196.8182C175.3675,-205.0391 181.6906,-214.7496 187.7986,-224.1298"/>
<polygon fill="#000000" stroke="#000000" points="184.9238,-226.129 193.3136,-232.5991 190.7898,-222.3093 184.9238,-226.129"/>
</g>
<!-- GO:0044446&#45;&gt;GO:0044424 -->
<g id="edge7" class="edge">
<title>GO:0044446&#45;&gt;GO:0044424</title>
<path fill="none" stroke="#000000" d="M181.3958,-291.3558C171.5639,-300.6474 160.7287,-310.8873 151.0061,-320.0757"/>
<polygon fill="#000000" stroke="#000000" points="148.3517,-317.7686 143.4878,-327.1809 153.1597,-322.8561 148.3517,-317.7686"/>
</g>
<!-- GO:0044422 -->
<g id="node9" class="node">
<title>GO:0044422</title>
<polygon fill="#ffffff" stroke="#000000" points="277.3104,-446.2019 183.6062,-446.2019 183.6062,-404.9981 277.3104,-404.9981 277.3104,-446.2019"/>
<text text-anchor="middle" x="230.4583" y="-429.8" font-family="Times,serif" font-size="14.00" fill="#000000">GO:0044422</text>
<text text-anchor="middle" x="230.4583" y="-413" font-family="Times,serif" font-size="14.00" fill="#000000">organelle part</text>
</g>
<!-- GO:0044446&#45;&gt;GO:0044422 -->
<g id="edge8" class="edge">
<title>GO:0044446&#45;&gt;GO:0044422</title>
<path fill="none" stroke="#000000" d="M215.6763,-291.2484C218.8825,-320.3891 223.7865,-364.9603 227.0559,-394.6759"/>
<polygon fill="#000000" stroke="#000000" points="223.6076,-395.3383 228.1803,-404.8955 230.5656,-394.5727 223.6076,-395.3383"/>
</g>
<!-- GO:0044422&#45;&gt;GO:0005575 -->
<g id="edge9" class="edge">
<title>GO:0044422&#45;&gt;GO:0005575</title>
<path fill="none" stroke="#000000" d="M230.4583,-446.3954C230.4583,-454.3109 230.4583,-463.5109 230.4583,-472.1722"/>
<polygon fill="#000000" stroke="#000000" points="226.9584,-472.3472 230.4583,-482.3472 233.9584,-472.3473 226.9584,-472.3472"/>
</g>
<!-- GO:0000790 -->
<g id="node10" class="node">
<title>GO:0000790</title>
<polygon fill="#ffffff" stroke="#000000" points="352.4158,-41.4019 234.5008,-41.4019 234.5008,-.1981 352.4158,-.1981 352.4158,-41.4019"/>
<text text-anchor="middle" x="293.4583" y="-25" font-family="Times,serif" font-size="14.00" fill="#000000">GO:0000790</text>
<text text-anchor="middle" x="293.4583" y="-8.2" font-family="Times,serif" font-size="14.00" fill="#000000">nuclear chromatin</text>
</g>
<!-- GO:0044454 -->
<g id="node11" class="node">
<title>GO:0044454</title>
<polygon fill="#ffffff" stroke="#000000" points="301.7349,-119.0019 143.1817,-119.0019 143.1817,-77.7981 301.7349,-77.7981 301.7349,-119.0019"/>
<text text-anchor="middle" x="222.4583" y="-102.6" font-family="Times,serif" font-size="14.00" fill="#000000">GO:0044454</text>
<text text-anchor="middle" x="222.4583" y="-85.8" font-family="Times,serif" font-size="14.00" fill="#000000">nuclear chromosome part</text>
</g>
<!-- GO:0000790&#45;&gt;GO:0044454 -->
<g id="edge10" class="edge">
<title>GO:0000790&#45;&gt;GO:0044454</title>
<path fill="none" stroke="#000000" d="M274.4316,-41.5954C266.4731,-50.2937 257.0953,-60.5433 248.512,-69.9244"/>
<polygon fill="#000000" stroke="#000000" points="245.7056,-67.8067 241.5375,-77.5472 250.8702,-72.532 245.7056,-67.8067"/>
</g>
<!-- GO:0000785 -->
<g id="node12" class="node">
<title>GO:0000785</title>
<polygon fill="#ffffff" stroke="#000000" points="409.0622,-119.0019 319.8544,-119.0019 319.8544,-77.7981 409.0622,-77.7981 409.0622,-119.0019"/>
<text text-anchor="middle" x="364.4583" y="-102.6" font-family="Times,serif" font-size="14.00" fill="#000000">GO:0000785</text>
<text text-anchor="middle" x="364.4583" y="-85.8" font-family="Times,serif" font-size="14.00" fill="#000000">chromatin</text>
</g>
<!-- GO:0000790&#45;&gt;GO:0000785 -->
<g id="edge11" class="edge">
<title>GO:0000790&#45;&gt;GO:0000785</title>
<path fill="none" stroke="#000000" d="M312.485,-41.5954C320.4435,-50.2937 329.8213,-60.5433 338.4046,-69.9244"/>
<polygon fill="#000000" stroke="#000000" points="336.0464,-72.532 345.3791,-77.5472 341.211,-67.8067 336.0464,-72.532"/>
</g>
<!-- GO:0044454&#45;&gt;GO:0044428 -->
<g id="edge13" class="edge">
<title>GO:0044454&#45;&gt;GO:0044428</title>
<path fill="none" stroke="#000000" d="M204.7715,-119.1954C197.3734,-127.8937 188.656,-138.1433 180.6772,-147.5244"/>
<polygon fill="#000000" stroke="#000000" points="178.0066,-145.2622 174.1939,-155.1472 183.3388,-149.7973 178.0066,-145.2622"/>
</g>
<!-- GO:0044427 -->
<g id="node13" class="node">
<title>GO:0044427</title>
<polygon fill="#ffffff" stroke="#000000" points="336.4313,-196.6019 218.4853,-196.6019 218.4853,-155.3981 336.4313,-155.3981 336.4313,-196.6019"/>
<text text-anchor="middle" x="277.4583" y="-180.2" font-family="Times,serif" font-size="14.00" fill="#000000">GO:0044427</text>
<text text-anchor="middle" x="277.4583" y="-163.4" font-family="Times,serif" font-size="14.00" fill="#000000">chromosomal part</text>
</g>
<!-- GO:0044454&#45;&gt;GO:0044427 -->
<g id="edge12" class="edge">
<title>GO:0044454&#45;&gt;GO:0044427</title>
<path fill="none" stroke="#000000" d="M237.1973,-119.1954C243.239,-127.7197 250.3367,-137.7339 256.8762,-146.9605"/>
<polygon fill="#000000" stroke="#000000" points="254.0406,-149.0125 262.6786,-155.1472 259.7516,-144.9647 254.0406,-149.0125"/>
</g>
<!-- GO:0000785&#45;&gt;GO:0044427 -->
<g id="edge14" class="edge">
<title>GO:0000785&#45;&gt;GO:0044427</title>
<path fill="none" stroke="#000000" d="M341.1439,-119.1954C331.0993,-128.1547 319.2097,-138.7596 308.4394,-148.3663"/>
<polygon fill="#000000" stroke="#000000" points="305.9701,-145.8788 300.8371,-155.1472 310.6296,-151.1027 305.9701,-145.8788"/>
</g>
<!-- GO:0032991 -->
<g id="node14" class="node">
<title>GO:0032991</title>
<polygon fill="#ffffff" stroke="#000000" points="410.6256,-368.6019 252.291,-368.6019 252.291,-327.3981 410.6256,-327.3981 410.6256,-368.6019"/>
<text text-anchor="middle" x="331.4583" y="-352.2" font-family="Times,serif" font-size="14.00" fill="#000000">GO:0032991</text>
<text text-anchor="middle" x="331.4583" y="-335.4" font-family="Times,serif" font-size="14.00" fill="#000000">macromolecular complex</text>
</g>
<!-- GO:0000785&#45;&gt;GO:0032991 -->
<g id="edge15" class="edge">
<title>GO:0000785&#45;&gt;GO:0032991</title>
<path fill="none" stroke="#000000" d="M361.7015,-119.2514C355.8878,-163.2243 342.3471,-265.6412 335.5312,-317.194"/>
<polygon fill="#000000" stroke="#000000" points="332.025,-317.0109 334.184,-327.3834 338.9646,-317.9285 332.025,-317.0109"/>
</g>
<!-- GO:0044427&#45;&gt;GO:0044446 -->
<g id="edge16" class="edge">
<title>GO:0044427&#45;&gt;GO:0044446</title>
<path fill="none" stroke="#000000" d="M261.7236,-196.8182C255.4467,-205.123 248.0209,-214.948 240.8642,-224.4168"/>
<polygon fill="#000000" stroke="#000000" points="237.9174,-222.5111 234.6799,-232.5991 243.5018,-226.7318 237.9174,-222.5111"/>
</g>
<!-- GO:0032991&#45;&gt;GO:0005575 -->
<g id="edge17" class="edge">
<title>GO:0032991&#45;&gt;GO:0005575</title>
<path fill="none" stroke="#000000" d="M324.4174,-368.6952C316.8317,-389.4039 303.5187,-421.6552 286.4583,-446.4 279.3963,-456.6429 270.3937,-466.6922 261.6826,-475.4221"/>
<polygon fill="#000000" stroke="#000000" points="259.214,-472.9406 254.4827,-482.4203 264.093,-477.9602 259.214,-472.9406"/>
</g>
</g>
</svg>
