<?xml version="1.0" encoding="UTF-8" standalone="no"?>
<!DOCTYPE svg PUBLIC "-//W3C//DTD SVG 1.1//EN"
 "http://www.w3.org/Graphics/SVG/1.1/DTD/svg11.dtd">
<!-- Generated by graphviz version 2.40.1 (20161225.0304)
 -->
<!-- Title: G Pages: 1 -->
<svg width="521pt" height="549pt"
 viewBox="0.00 0.00 521.09 548.80" xmlns="http://www.w3.org/2000/svg" xmlns:xlink="http://www.w3.org/1999/xlink">
<g id="graph0" class="graph" transform="scale(1 1) rotate(0) translate(4 544.8)">
<title>G</title>
<polygon fill="#ffffff" stroke="transparent" points="-4,4 -4,-544.8 517.0937,-544.8 517.0937,4 -4,4"/>
<!-- GO:0005777 -->
<g id="node1" class="node">
<title>GO:0005777</title>
<polygon fill="#ffffff" stroke="#000000" points="317.7172,-41.4019 228.5094,-41.4019 228.5094,-.1981 317.7172,-.1981 317.7172,-41.4019"/>
<text text-anchor="middle" x="273.1133" y="-25" font-family="Times,serif" font-size="14.00" fill="#000000">GO:0005777</text>
<text text-anchor="middle" x="273.1133" y="-8.2" font-family="Times,serif" font-size="14.00" fill="#000000">peroxisome</text>
</g>
<!-- GO:0042579 -->
<g id="node2" class="node">
<title>GO:0042579</title>
<polygon fill="#ffffff" stroke="#000000" points="317.7172,-119.0019 228.5094,-119.0019 228.5094,-77.7981 317.7172,-77.7981 317.7172,-119.0019"/>
<text text-anchor="middle" x="273.1133" y="-102.6" font-family="Times,serif" font-size="14.00" fill="#000000">GO:0042579</text>
<text text-anchor="middle" x="273.1133" y="-85.8" font-family="Times,serif" font-size="14.00" fill="#000000">microbody</text>
</g>
<!-- GO:0005777&#45;&gt;GO:0042579 -->
<g id="edge1" class="edge">
<title>GO:0005777&#45;&gt;GO:0042579</title>
<path fill="none" stroke="#000000" d="M273.1133,-41.5954C273.1133,-49.5109 273.1133,-58.7109 273.1133,-67.3722"/>
<polygon fill="#000000" stroke="#000000" points="269.6134,-67.5472 273.1133,-77.5472 276.6134,-67.5473 269.6134,-67.5472"/>
</g>
<!-- GO:0044444 -->
<g id="node3" class="node">
<title>GO:0044444</title>
<polygon fill="#ffffff" stroke="#000000" points="253.5299,-205.0019 144.6967,-205.0019 144.6967,-163.7981 253.5299,-163.7981 253.5299,-205.0019"/>
<text text-anchor="middle" x="199.1133" y="-188.6" font-family="Times,serif" font-size="14.00" fill="#000000">GO:0044444</text>
<text text-anchor="middle" x="199.1133" y="-171.8" font-family="Times,serif" font-size="14.00" fill="#000000">cytoplasmic part</text>
</g>
<!-- GO:0042579&#45;&gt;GO:0044444 -->
<g id="edge2" class="edge">
<title>GO:0042579&#45;&gt;GO:0044444</title>
<path fill="none" stroke="#000000" d="M255.2,-119.2182C245.6559,-130.3099 233.7787,-144.1132 223.4143,-156.1583"/>
<polygon fill="#000000" stroke="#000000" points="220.7311,-153.9105 216.8617,-163.7735 226.0372,-158.4762 220.7311,-153.9105"/>
</g>
<!-- GO:0043231 -->
<g id="node4" class="node">
<title>GO:0043231</title>
<polygon fill="#ffffff" stroke="#000000" points="422.4921,-213.8014 271.7345,-213.8014 271.7345,-154.9986 422.4921,-154.9986 422.4921,-213.8014"/>
<text text-anchor="middle" x="347.1133" y="-197" font-family="Times,serif" font-size="14.00" fill="#000000">GO:0043231</text>
<text text-anchor="middle" x="347.1133" y="-180.2" font-family="Times,serif" font-size="14.00" fill="#000000">intracellular membrane&#45;</text>
<text text-anchor="middle" x="347.1133" y="-163.4" font-family="Times,serif" font-size="14.00" fill="#000000">bounded organelle</text>
</g>
<!-- GO:0042579&#45;&gt;GO:0043231 -->
<g id="edge3" class="edge">
<title>GO:0042579&#45;&gt;GO:0043231</title>
<path fill="none" stroke="#000000" d="M291.0266,-119.2182C298.317,-127.6908 306.9688,-137.7456 315.2677,-147.3903"/>
<polygon fill="#000000" stroke="#000000" points="312.6394,-149.7019 321.8149,-154.9991 317.9455,-145.1362 312.6394,-149.7019"/>
</g>
<!-- GO:0044424 -->
<g id="node5" class="node">
<title>GO:0044424</title>
<polygon fill="#ffffff" stroke="#000000" points="264.5117,-385.4019 155.7149,-385.4019 155.7149,-344.1981 264.5117,-344.1981 264.5117,-385.4019"/>
<text text-anchor="middle" x="210.1133" y="-369" font-family="Times,serif" font-size="14.00" fill="#000000">GO:0044424</text>
<text text-anchor="middle" x="210.1133" y="-352.2" font-family="Times,serif" font-size="14.00" fill="#000000">intracellular part</text>
</g>
<!-- GO:0044444&#45;&gt;GO:0044424 -->
<g id="edge4" class="edge">
<title>GO:0044444&#45;&gt;GO:0044424</title>
<path fill="none" stroke="#000000" d="M200.3751,-205.0942C202.3012,-236.682 205.9868,-297.1259 208.2302,-333.9168"/>
<polygon fill="#000000" stroke="#000000" points="204.7471,-334.3017 208.8493,-344.0701 211.7341,-333.8756 204.7471,-334.3017"/>
</g>
<!-- GO:0043229 -->
<g id="node6" class="node">
<title>GO:0043229</title>
<polygon fill="#ffffff" stroke="#000000" points="366.8317,-299.4019 227.3949,-299.4019 227.3949,-258.1981 366.8317,-258.1981 366.8317,-299.4019"/>
<text text-anchor="middle" x="297.1133" y="-283" font-family="Times,serif" font-size="14.00" fill="#000000">GO:0043229</text>
<text text-anchor="middle" x="297.1133" y="-266.2" font-family="Times,serif" font-size="14.00" fill="#000000">intracellular organelle</text>
</g>
<!-- GO:0043231&#45;&gt;GO:0043229 -->
<g id="edge5" class="edge">
<title>GO:0043231&#45;&gt;GO:0043229</title>
<path fill="none" stroke="#000000" d="M331.5671,-213.7513C325.6097,-224.9989 318.8123,-237.8323 312.8383,-249.1112"/>
<polygon fill="#000000" stroke="#000000" points="309.638,-247.6758 308.0503,-258.151 315.8239,-250.9522 309.638,-247.6758"/>
</g>
<!-- GO:0043227 -->
<g id="node7" class="node">
<title>GO:0043227</title>
<polygon fill="#ffffff" stroke="#000000" points="513.0741,-308.2014 385.1525,-308.2014 385.1525,-249.3986 513.0741,-249.3986 513.0741,-308.2014"/>
<text text-anchor="middle" x="449.1133" y="-291.4" font-family="Times,serif" font-size="14.00" fill="#000000">GO:0043227</text>
<text text-anchor="middle" x="449.1133" y="-274.6" font-family="Times,serif" font-size="14.00" fill="#000000">membrane&#45;bounded</text>
<text text-anchor="middle" x="449.1133" y="-257.8" font-family="Times,serif" font-size="14.00" fill="#000000">organelle</text>
</g>
<!-- GO:0043231&#45;&gt;GO:0043227 -->
<g id="edge6" class="edge">
<title>GO:0043231&#45;&gt;GO:0043227</title>
<path fill="none" stroke="#000000" d="M378.8276,-213.7513C388.71,-222.8973 399.7254,-233.092 410.0494,-242.6467"/>
<polygon fill="#000000" stroke="#000000" points="407.702,-245.2432 417.4186,-249.4669 412.4567,-240.1057 407.702,-245.2432"/>
</g>
<!-- GO:0044464 -->
<g id="node8" class="node">
<title>GO:0044464</title>
<polygon fill="#ffffff" stroke="#000000" points="254.7172,-463.0019 165.5094,-463.0019 165.5094,-421.7981 254.7172,-421.7981 254.7172,-463.0019"/>
<text text-anchor="middle" x="210.1133" y="-446.6" font-family="Times,serif" font-size="14.00" fill="#000000">GO:0044464</text>
<text text-anchor="middle" x="210.1133" y="-429.8" font-family="Times,serif" font-size="14.00" fill="#000000">cell part</text>
</g>
<!-- GO:0044424&#45;&gt;GO:0044464 -->
<g id="edge7" class="edge">
<title>GO:0044424&#45;&gt;GO:0044464</title>
<path fill="none" stroke="#000000" d="M210.1133,-385.5954C210.1133,-393.5109 210.1133,-402.7109 210.1133,-411.3722"/>
<polygon fill="#000000" stroke="#000000" points="206.6134,-411.5472 210.1133,-421.5472 213.6134,-411.5473 206.6134,-411.5472"/>
</g>
<!-- GO:0043229&#45;&gt;GO:0044424 -->
<g id="edge8" class="edge">
<title>GO:0043229&#45;&gt;GO:0044424</title>
<path fill="none" stroke="#000000" d="M276.053,-299.6182C264.7255,-310.8156 250.6023,-324.7764 238.3358,-336.9019"/>
<polygon fill="#000000" stroke="#000000" points="235.6309,-334.6543 230.9796,-344.1735 240.552,-339.6326 235.6309,-334.6543"/>
</g>
<!-- GO:0043226 -->
<g id="node9" class="node">
<title>GO:0043226</title>
<polygon fill="#ffffff" stroke="#000000" points="371.7172,-385.4019 282.5094,-385.4019 282.5094,-344.1981 371.7172,-344.1981 371.7172,-385.4019"/>
<text text-anchor="middle" x="327.1133" y="-369" font-family="Times,serif" font-size="14.00" fill="#000000">GO:0043226</text>
<text text-anchor="middle" x="327.1133" y="-352.2" font-family="Times,serif" font-size="14.00" fill="#000000">organelle</text>
</g>
<!-- GO:0043229&#45;&gt;GO:0043226 -->
<g id="edge9" class="edge">
<title>GO:0043229&#45;&gt;GO:0043226</title>
<path fill="none" stroke="#000000" d="M304.3755,-299.6182C308.0236,-310.0761 312.5126,-322.9446 316.5355,-334.477"/>
<polygon fill="#000000" stroke="#000000" points="313.3195,-335.8843 319.918,-344.1735 319.9289,-333.5787 313.3195,-335.8843"/>
</g>
<!-- GO:0043227&#45;&gt;GO:0043226 -->
<g id="edge10" class="edge">
<title>GO:0043227&#45;&gt;GO:0043226</title>
<path fill="none" stroke="#000000" d="M407.469,-308.1558C393.7659,-317.8154 378.6088,-328.4999 365.1854,-337.9623"/>
<polygon fill="#000000" stroke="#000000" points="362.8042,-335.3586 356.6473,-343.9809 366.8373,-341.08 362.8042,-335.3586"/>
</g>
<!-- GO:0005575 -->
<g id="node10" class="node">
<title>GO:0005575</title>
<polygon fill="#ffffff" stroke="#000000" points="309.8,-540.6019 182.4266,-540.6019 182.4266,-499.3981 309.8,-499.3981 309.8,-540.6019"/>
<text text-anchor="middle" x="246.1133" y="-524.2" font-family="Times,serif" font-size="14.00" fill="#000000">GO:0005575</text>
<text text-anchor="middle" x="246.1133" y="-507.4" font-family="Times,serif" font-size="14.00" fill="#000000">cellular_component</text>
</g>
<!-- GO:0044464&#45;&gt;GO:0005575 -->
<g id="edge11" class="edge">
<title>GO:0044464&#45;&gt;GO:0005575</title>
<path fill="none" stroke="#000000" d="M219.7606,-463.1954C223.5538,-471.3718 227.9829,-480.9189 232.1155,-489.827"/>
<polygon fill="#000000" stroke="#000000" points="229.0559,-491.5488 236.4393,-499.1472 235.4059,-488.6029 229.0559,-491.5488"/>
</g>
<!-- GO:0043226&#45;&gt;GO:0005575 -->
<g id="edge12" class="edge">
<title>GO:0043226&#45;&gt;GO:0005575</title>
<path fill="none" stroke="#000000" d="M316.3571,-385.4094C302.3172,-412.3106 277.6486,-459.5767 261.5974,-490.3317"/>
<polygon fill="#000000" stroke="#000000" points="258.438,-488.8207 256.914,-499.3054 264.6437,-492.0596 258.438,-488.8207"/>
</g>
<!-- GO:0042597 -->
<g id="node11" class="node">
<title>GO:0042597</title>
<polygon fill="#ffffff" stroke="#000000" points="138.0131,-385.4019 22.2135,-385.4019 22.2135,-344.1981 138.0131,-344.1981 138.0131,-385.4019"/>
<text text-anchor="middle" x="80.1133" y="-369" font-family="Times,serif" font-size="14.00" fill="#000000">GO:0042597</text>
<text text-anchor="middle" x="80.1133" y="-352.2" font-family="Times,serif" font-size="14.00" fill="#000000">periplasmic space</text>
</g>
<!-- GO:0042597&#45;&gt;GO:0044464 -->
<g id="edge13" class="edge">
<title>GO:0042597&#45;&gt;GO:0044464</title>
<path fill="none" stroke="#000000" d="M114.9509,-385.5954C130.6886,-394.9896 149.4575,-406.1931 166.1512,-416.158"/>
<polygon fill="#000000" stroke="#000000" points="164.799,-419.427 175.1795,-421.5472 168.3869,-413.4164 164.799,-419.427"/>
</g>
<!-- GO:0030288 -->
<g id="node12" class="node">
<title>GO:0030288</title>
<polygon fill="#ffffff" stroke="#000000" points="160.3401,-308.2014 -.1135,-308.2014 -.1135,-249.3986 160.3401,-249.3986 160.3401,-308.2014"/>
<text text-anchor="middle" x="80.1133" y="-291.4" font-family="Times,serif" font-size="14.00" fill="#000000">GO:0030288</text>
<text text-anchor="middle" x="80.1133" y="-274.6" font-family="Times,serif" font-size="14.00" fill="#000000">outer membrane&#45;bounded</text>
<text text-anchor="middle" x="80.1133" y="-257.8" font-family="Times,serif" font-size="14.00" fill="#000000">periplasmic space</text>
</g>
<!-- GO:0030288&#45;&gt;GO:0042597 -->
<g id="edge14" class="edge">
<title>GO:0030288&#45;&gt;GO:0042597</title>
<path fill="none" stroke="#000000" d="M80.1133,-308.3963C80.1133,-316.6638 80.1133,-325.6657 80.1133,-334.0008"/>
<polygon fill="#000000" stroke="#000000" points="76.6134,-334.0965 80.1133,-344.0966 83.6134,-334.0966 76.6134,-334.0965"/>
</g>
</g>
</svg>
