<?xml version="1.0" encoding="UTF-8" standalone="no"?>
<!DOCTYPE svg PUBLIC "-//W3C//DTD SVG 1.1//EN"
 "http://www.w3.org/Graphics/SVG/1.1/DTD/svg11.dtd">
<!-- Generated by graphviz version 2.40.1 (20161225.0304)
 -->
<!-- Title: G Pages: 1 -->
<svg width="980pt" height="943pt"
 viewBox="0.00 0.00 979.78 943.20" xmlns="http://www.w3.org/2000/svg" xmlns:xlink="http://www.w3.org/1999/xlink">
<g id="graph0" class="graph" transform="scale(1 1) rotate(0) translate(4 939.2)">
<title>G</title>
<polygon fill="#ffffff" stroke="transparent" points="-4,4 -4,-939.2 975.7802,-939.2 975.7802,4 -4,4"/>
<!-- GO:0008152 -->
<g id="node1" class="node">
<title>GO:0008152</title>
<polygon fill="#00ffff" stroke="#000000" points="599.2589,-857.4019 482.8877,-857.4019 482.8877,-816.1981 599.2589,-816.1981 599.2589,-857.4019"/>
<text text-anchor="middle" x="541.0733" y="-841" font-family="Times,serif" font-size="14.00" fill="#000000">GO:0008152</text>
<text text-anchor="middle" x="541.0733" y="-824.2" font-family="Times,serif" font-size="14.00" fill="#000000">metabolic process</text>
</g>
<!-- GO:0008150 -->
<g id="node2" class="node">
<title>GO:0008150</title>
<polygon fill="#ffffff" stroke="#000000" points="427.5439,-935.0019 306.6027,-935.0019 306.6027,-893.7981 427.5439,-893.7981 427.5439,-935.0019"/>
<text text-anchor="middle" x="367.0733" y="-918.6" font-family="Times,serif" font-size="14.00" fill="#000000">GO:0008150</text>
<text text-anchor="middle" x="367.0733" y="-901.8" font-family="Times,serif" font-size="14.00" fill="#000000">biological_process</text>
</g>
<!-- GO:0008152&#45;&gt;GO:0008150 -->
<g id="edge1" class="edge">
<title>GO:0008152&#45;&gt;GO:0008150</title>
<path fill="none" stroke="#000000" d="M494.4445,-857.5954C472.414,-867.4205 445.9458,-879.2247 422.8586,-889.521"/>
<polygon fill="#000000" stroke="#000000" points="421.2362,-886.4122 413.5289,-893.6819 424.0874,-892.8053 421.2362,-886.4122"/>
</g>
<!-- GO:0042592 -->
<g id="node3" class="node">
<title>GO:0042592</title>
<polygon fill="#ff00ff" stroke="#000000" points="675.7032,-677.0019 546.4434,-677.0019 546.4434,-635.7981 675.7032,-635.7981 675.7032,-677.0019"/>
<text text-anchor="middle" x="611.0733" y="-660.6" font-family="Times,serif" font-size="14.00" fill="#000000">GO:0042592</text>
<text text-anchor="middle" x="611.0733" y="-643.8" font-family="Times,serif" font-size="14.00" fill="#000000">homeostatic process</text>
</g>
<!-- GO:0065008 -->
<g id="node4" class="node">
<title>GO:0065008</title>
<polygon fill="#ffffff" stroke="#000000" points="971.9877,-780.2014 824.1589,-780.2014 824.1589,-721.3986 971.9877,-721.3986 971.9877,-780.2014"/>
<text text-anchor="middle" x="898.0733" y="-763.4" font-family="Times,serif" font-size="14.00" fill="#000000">GO:0065008</text>
<text text-anchor="middle" x="898.0733" y="-746.6" font-family="Times,serif" font-size="14.00" fill="#000000">regulation of biological</text>
<text text-anchor="middle" x="898.0733" y="-729.8" font-family="Times,serif" font-size="14.00" fill="#000000">quality</text>
</g>
<!-- GO:0042592&#45;&gt;GO:0065008 -->
<g id="edge2" class="edge">
<title>GO:0042592&#45;&gt;GO:0065008</title>
<path fill="none" stroke="#000000" d="M676.0014,-676.6246C713.8078,-688.5239 762.6038,-704.0907 814.6009,-721.4715"/>
<polygon fill="#000000" stroke="#000000" points="813.7513,-724.8781 824.3452,-724.7375 815.9759,-718.241 813.7513,-724.8781"/>
</g>
<!-- GO:0065007 -->
<g id="node5" class="node">
<title>GO:0065007</title>
<polygon fill="#ff00ff" stroke="#000000" points="868.3267,-857.4019 735.8199,-857.4019 735.8199,-816.1981 868.3267,-816.1981 868.3267,-857.4019"/>
<text text-anchor="middle" x="802.0733" y="-841" font-family="Times,serif" font-size="14.00" fill="#000000">GO:0065007</text>
<text text-anchor="middle" x="802.0733" y="-824.2" font-family="Times,serif" font-size="14.00" fill="#000000">biological regulation</text>
</g>
<!-- GO:0065008&#45;&gt;GO:0065007 -->
<g id="edge3" class="edge">
<title>GO:0065008&#45;&gt;GO:0065007</title>
<path fill="none" stroke="#000000" d="M865.304,-780.1558C854.8293,-789.5394 843.275,-799.8902 832.9403,-809.1483"/>
<polygon fill="#000000" stroke="#000000" points="830.4262,-806.7015 825.3132,-815.9809 835.0969,-811.9154 830.4262,-806.7015"/>
</g>
<!-- GO:0065007&#45;&gt;GO:0008150 -->
<g id="edge4" class="edge">
<title>GO:0065007&#45;&gt;GO:0008150</title>
<path fill="none" stroke="#000000" d="M735.5326,-848.6702C654.9964,-863.0372 519.9706,-887.1245 437.6591,-901.8081"/>
<polygon fill="#000000" stroke="#000000" points="436.8725,-898.3931 427.6426,-903.595 438.1019,-905.2843 436.8725,-898.3931"/>
</g>
<!-- GO:0044699 -->
<g id="node6" class="node">
<title>GO:0044699</title>
<polygon fill="#ffa500" stroke="#000000" points="315.7546,-771.4019 164.392,-771.4019 164.392,-730.1981 315.7546,-730.1981 315.7546,-771.4019"/>
<text text-anchor="middle" x="240.0733" y="-755" font-family="Times,serif" font-size="14.00" fill="#000000">GO:0044699</text>
<text text-anchor="middle" x="240.0733" y="-738.2" font-family="Times,serif" font-size="14.00" fill="#000000">single&#45;organism process</text>
</g>
<!-- GO:0044699&#45;&gt;GO:0008150 -->
<g id="edge5" class="edge">
<title>GO:0044699&#45;&gt;GO:0008150</title>
<path fill="none" stroke="#000000" d="M250.7315,-771.5603C262.6864,-793.9096 283.3944,-829.9692 306.0733,-857.6 314.4765,-867.838 324.6688,-878.0161 334.2965,-886.8684"/>
<polygon fill="#000000" stroke="#000000" points="332.0748,-889.5775 341.8518,-893.6593 336.7542,-884.3714 332.0748,-889.5775"/>
</g>
<!-- GO:0046916 -->
<g id="node7" class="node">
<title>GO:0046916</title>
<polygon fill="#ff00ff" stroke="#000000" points="618.5327,-153.0014 469.6139,-153.0014 469.6139,-94.1986 618.5327,-94.1986 618.5327,-153.0014"/>
<text text-anchor="middle" x="544.0733" y="-136.2" font-family="Times,serif" font-size="14.00" fill="#000000">GO:0046916</text>
<text text-anchor="middle" x="544.0733" y="-119.4" font-family="Times,serif" font-size="14.00" fill="#000000">cellular transition metal</text>
<text text-anchor="middle" x="544.0733" y="-102.6" font-family="Times,serif" font-size="14.00" fill="#000000">ion homeostasis</text>
</g>
<!-- GO:0006875 -->
<g id="node8" class="node">
<title>GO:0006875</title>
<polygon fill="#ffffff" stroke="#000000" points="601.0411,-247.4014 487.1055,-247.4014 487.1055,-188.5986 601.0411,-188.5986 601.0411,-247.4014"/>
<text text-anchor="middle" x="544.0733" y="-230.6" font-family="Times,serif" font-size="14.00" fill="#000000">GO:0006875</text>
<text text-anchor="middle" x="544.0733" y="-213.8" font-family="Times,serif" font-size="14.00" fill="#000000">cellular metal ion</text>
<text text-anchor="middle" x="544.0733" y="-197" font-family="Times,serif" font-size="14.00" fill="#000000">homeostasis</text>
</g>
<!-- GO:0046916&#45;&gt;GO:0006875 -->
<g id="edge6" class="edge">
<title>GO:0046916&#45;&gt;GO:0006875</title>
<path fill="none" stroke="#000000" d="M544.0733,-152.9513C544.0733,-161.0318 544.0733,-169.9308 544.0733,-178.4838"/>
<polygon fill="#000000" stroke="#000000" points="540.5734,-178.6668 544.0733,-188.6669 547.5734,-178.6669 540.5734,-178.6668"/>
</g>
<!-- GO:0055076 -->
<g id="node9" class="node">
<title>GO:0055076</title>
<polygon fill="#ffffff" stroke="#000000" points="743.4472,-247.4014 618.6994,-247.4014 618.6994,-188.5986 743.4472,-188.5986 743.4472,-247.4014"/>
<text text-anchor="middle" x="681.0733" y="-230.6" font-family="Times,serif" font-size="14.00" fill="#000000">GO:0055076</text>
<text text-anchor="middle" x="681.0733" y="-213.8" font-family="Times,serif" font-size="14.00" fill="#000000">transition metal ion</text>
<text text-anchor="middle" x="681.0733" y="-197" font-family="Times,serif" font-size="14.00" fill="#000000">homeostasis</text>
</g>
<!-- GO:0046916&#45;&gt;GO:0055076 -->
<g id="edge7" class="edge">
<title>GO:0046916&#45;&gt;GO:0055076</title>
<path fill="none" stroke="#000000" d="M586.67,-152.9513C600.4589,-162.4525 615.89,-173.0854 630.2163,-182.9569"/>
<polygon fill="#000000" stroke="#000000" points="628.2826,-185.8749 638.503,-188.6669 632.2544,-180.1108 628.2826,-185.8749"/>
</g>
<!-- GO:0030003 -->
<g id="node10" class="node">
<title>GO:0030003</title>
<polygon fill="#ffffff" stroke="#000000" points="591.7604,-341.8014 496.3862,-341.8014 496.3862,-282.9986 591.7604,-282.9986 591.7604,-341.8014"/>
<text text-anchor="middle" x="544.0733" y="-325" font-family="Times,serif" font-size="14.00" fill="#000000">GO:0030003</text>
<text text-anchor="middle" x="544.0733" y="-308.2" font-family="Times,serif" font-size="14.00" fill="#000000">cellular cation</text>
<text text-anchor="middle" x="544.0733" y="-291.4" font-family="Times,serif" font-size="14.00" fill="#000000">homeostasis</text>
</g>
<!-- GO:0006875&#45;&gt;GO:0030003 -->
<g id="edge8" class="edge">
<title>GO:0006875&#45;&gt;GO:0030003</title>
<path fill="none" stroke="#000000" d="M544.0733,-247.3513C544.0733,-255.4318 544.0733,-264.3308 544.0733,-272.8838"/>
<polygon fill="#000000" stroke="#000000" points="540.5734,-273.0668 544.0733,-283.0669 547.5734,-273.0669 540.5734,-273.0668"/>
</g>
<!-- GO:0055065 -->
<g id="node11" class="node">
<title>GO:0055065</title>
<polygon fill="#ffffff" stroke="#000000" points="750.5003,-333.0019 609.6463,-333.0019 609.6463,-291.7981 750.5003,-291.7981 750.5003,-333.0019"/>
<text text-anchor="middle" x="680.0733" y="-316.6" font-family="Times,serif" font-size="14.00" fill="#000000">GO:0055065</text>
<text text-anchor="middle" x="680.0733" y="-299.8" font-family="Times,serif" font-size="14.00" fill="#000000">metal ion homeostasis</text>
</g>
<!-- GO:0006875&#45;&gt;GO:0055065 -->
<g id="edge9" class="edge">
<title>GO:0006875&#45;&gt;GO:0055065</title>
<path fill="none" stroke="#000000" d="M586.3591,-247.3513C604.1836,-259.7236 624.7726,-274.0148 642.1044,-286.0451"/>
<polygon fill="#000000" stroke="#000000" points="640.114,-288.924 650.3247,-291.751 644.1055,-283.1736 640.114,-288.924"/>
</g>
<!-- GO:0055076&#45;&gt;GO:0055065 -->
<g id="edge10" class="edge">
<title>GO:0055076&#45;&gt;GO:0055065</title>
<path fill="none" stroke="#000000" d="M680.7624,-247.3513C680.6468,-258.2614 680.5154,-270.6637 680.3986,-281.692"/>
<polygon fill="#000000" stroke="#000000" points="676.8983,-281.7144 680.292,-291.751 683.8979,-281.7887 676.8983,-281.7144"/>
</g>
<!-- GO:0055080 -->
<g id="node12" class="node">
<title>GO:0055080</title>
<polygon fill="#ffffff" stroke="#000000" points="673.2186,-419.0019 550.928,-419.0019 550.928,-377.7981 673.2186,-377.7981 673.2186,-419.0019"/>
<text text-anchor="middle" x="612.0733" y="-402.6" font-family="Times,serif" font-size="14.00" fill="#000000">GO:0055080</text>
<text text-anchor="middle" x="612.0733" y="-385.8" font-family="Times,serif" font-size="14.00" fill="#000000">cation homeostasis</text>
</g>
<!-- GO:0030003&#45;&gt;GO:0055080 -->
<g id="edge11" class="edge">
<title>GO:0030003&#45;&gt;GO:0055080</title>
<path fill="none" stroke="#000000" d="M567.475,-341.9963C574.5932,-350.9986 582.3999,-360.8719 589.4647,-369.8067"/>
<polygon fill="#000000" stroke="#000000" points="586.7553,-372.0232 595.7031,-377.6966 592.2462,-367.6815 586.7553,-372.0232"/>
</g>
<!-- GO:0006873 -->
<g id="node13" class="node">
<title>GO:0006873</title>
<polygon fill="#ffffff" stroke="#000000" points="532.8752,-419.0019 381.2714,-419.0019 381.2714,-377.7981 532.8752,-377.7981 532.8752,-419.0019"/>
<text text-anchor="middle" x="457.0733" y="-402.6" font-family="Times,serif" font-size="14.00" fill="#000000">GO:0006873</text>
<text text-anchor="middle" x="457.0733" y="-385.8" font-family="Times,serif" font-size="14.00" fill="#000000">cellular ion homeostasis</text>
</g>
<!-- GO:0030003&#45;&gt;GO:0006873 -->
<g id="edge12" class="edge">
<title>GO:0030003&#45;&gt;GO:0006873</title>
<path fill="none" stroke="#000000" d="M514.1328,-341.9963C504.747,-351.2742 494.4255,-361.4772 485.1717,-370.6246"/>
<polygon fill="#000000" stroke="#000000" points="482.6688,-368.1773 478.0175,-377.6966 487.5899,-373.1556 482.6688,-368.1773"/>
</g>
<!-- GO:0055065&#45;&gt;GO:0055080 -->
<g id="edge14" class="edge">
<title>GO:0055065&#45;&gt;GO:0055080</title>
<path fill="none" stroke="#000000" d="M663.6124,-333.2182C654.9257,-344.2043 644.1357,-357.8506 634.6765,-369.8137"/>
<polygon fill="#000000" stroke="#000000" points="631.8395,-367.7585 628.3826,-377.7735 637.3305,-372.1002 631.8395,-367.7585"/>
</g>
<!-- GO:0098771 -->
<g id="node14" class="node">
<title>GO:0098771</title>
<polygon fill="#ffffff" stroke="#000000" points="853.2698,-419.0019 690.8768,-419.0019 690.8768,-377.7981 853.2698,-377.7981 853.2698,-419.0019"/>
<text text-anchor="middle" x="772.0733" y="-402.6" font-family="Times,serif" font-size="14.00" fill="#000000">GO:0098771</text>
<text text-anchor="middle" x="772.0733" y="-385.8" font-family="Times,serif" font-size="14.00" fill="#000000">inorganic ion homeostasis</text>
</g>
<!-- GO:0055065&#45;&gt;GO:0098771 -->
<g id="edge13" class="edge">
<title>GO:0055065&#45;&gt;GO:0098771</title>
<path fill="none" stroke="#000000" d="M702.3439,-333.2182C714.4355,-344.5212 729.5394,-358.6401 742.5954,-370.8446"/>
<polygon fill="#000000" stroke="#000000" points="740.3124,-373.5015 750.0078,-377.7735 745.0926,-368.3878 740.3124,-373.5015"/>
</g>
<!-- GO:0050801 -->
<g id="node15" class="node">
<title>GO:0050801</title>
<polygon fill="#ffffff" stroke="#000000" points="664.8988,-505.0019 559.2478,-505.0019 559.2478,-463.7981 664.8988,-463.7981 664.8988,-505.0019"/>
<text text-anchor="middle" x="612.0733" y="-488.6" font-family="Times,serif" font-size="14.00" fill="#000000">GO:0050801</text>
<text text-anchor="middle" x="612.0733" y="-471.8" font-family="Times,serif" font-size="14.00" fill="#000000">ion homeostasis</text>
</g>
<!-- GO:0055080&#45;&gt;GO:0050801 -->
<g id="edge15" class="edge">
<title>GO:0055080&#45;&gt;GO:0050801</title>
<path fill="none" stroke="#000000" d="M612.0733,-419.2182C612.0733,-429.5705 612.0733,-442.2848 612.0733,-453.7271"/>
<polygon fill="#000000" stroke="#000000" points="608.5734,-453.7735 612.0733,-463.7735 615.5734,-453.7735 608.5734,-453.7735"/>
</g>
<!-- GO:0006873&#45;&gt;GO:0050801 -->
<g id="edge17" class="edge">
<title>GO:0006873&#45;&gt;GO:0050801</title>
<path fill="none" stroke="#000000" d="M494.5945,-419.2182C516.1085,-431.155 543.2827,-446.2323 566.0758,-458.8788"/>
<polygon fill="#000000" stroke="#000000" points="564.4553,-461.9823 574.8977,-463.7735 567.8515,-455.8613 564.4553,-461.9823"/>
</g>
<!-- GO:0055082 -->
<g id="node16" class="node">
<title>GO:0055082</title>
<polygon fill="#ffffff" stroke="#000000" points="514.0797,-513.8014 402.0669,-513.8014 402.0669,-454.9986 514.0797,-454.9986 514.0797,-513.8014"/>
<text text-anchor="middle" x="458.0733" y="-497" font-family="Times,serif" font-size="14.00" fill="#000000">GO:0055082</text>
<text text-anchor="middle" x="458.0733" y="-480.2" font-family="Times,serif" font-size="14.00" fill="#000000">cellular chemical</text>
<text text-anchor="middle" x="458.0733" y="-463.4" font-family="Times,serif" font-size="14.00" fill="#000000">homeostasis</text>
</g>
<!-- GO:0006873&#45;&gt;GO:0055082 -->
<g id="edge16" class="edge">
<title>GO:0006873&#45;&gt;GO:0055082</title>
<path fill="none" stroke="#000000" d="M457.3154,-419.2182C457.4051,-426.9358 457.5101,-435.9662 457.6129,-444.8036"/>
<polygon fill="#000000" stroke="#000000" points="454.1153,-445.0405 457.7314,-454.9991 461.1148,-444.9591 454.1153,-445.0405"/>
</g>
<!-- GO:0098771&#45;&gt;GO:0050801 -->
<g id="edge18" class="edge">
<title>GO:0098771&#45;&gt;GO:0050801</title>
<path fill="none" stroke="#000000" d="M733.3418,-419.2182C711.1337,-431.155 683.0829,-446.2323 659.5545,-458.8788"/>
<polygon fill="#000000" stroke="#000000" points="657.5993,-455.9561 650.4482,-463.7735 660.9135,-462.1219 657.5993,-455.9561"/>
</g>
<!-- GO:0048878 -->
<g id="node17" class="node">
<title>GO:0048878</title>
<polygon fill="#ff00ff" stroke="#000000" points="680.5391,-591.0019 541.6075,-591.0019 541.6075,-549.7981 680.5391,-549.7981 680.5391,-591.0019"/>
<text text-anchor="middle" x="611.0733" y="-574.6" font-family="Times,serif" font-size="14.00" fill="#000000">GO:0048878</text>
<text text-anchor="middle" x="611.0733" y="-557.8" font-family="Times,serif" font-size="14.00" fill="#000000">chemical homeostasis</text>
</g>
<!-- GO:0050801&#45;&gt;GO:0048878 -->
<g id="edge19" class="edge">
<title>GO:0050801&#45;&gt;GO:0048878</title>
<path fill="none" stroke="#000000" d="M611.8312,-505.2182C611.7109,-515.5705 611.563,-528.2848 611.43,-539.7271"/>
<polygon fill="#000000" stroke="#000000" points="607.9297,-539.7335 611.3131,-549.7735 614.9293,-539.8149 607.9297,-539.7335"/>
</g>
<!-- GO:0055082&#45;&gt;GO:0048878 -->
<g id="edge21" class="edge">
<title>GO:0055082&#45;&gt;GO:0048878</title>
<path fill="none" stroke="#000000" d="M510.2993,-513.7558C528.1391,-523.7834 547.9437,-534.9154 565.2414,-544.6383"/>
<polygon fill="#000000" stroke="#000000" points="563.6025,-547.732 574.0347,-549.5809 567.0324,-541.6299 563.6025,-547.732"/>
</g>
<!-- GO:0019725 -->
<g id="node18" class="node">
<title>GO:0019725</title>
<polygon fill="#ffffff" stroke="#000000" points="522.9843,-591.0019 393.1623,-591.0019 393.1623,-549.7981 522.9843,-549.7981 522.9843,-591.0019"/>
<text text-anchor="middle" x="458.0733" y="-574.6" font-family="Times,serif" font-size="14.00" fill="#000000">GO:0019725</text>
<text text-anchor="middle" x="458.0733" y="-557.8" font-family="Times,serif" font-size="14.00" fill="#000000">cellular homeostasis</text>
</g>
<!-- GO:0055082&#45;&gt;GO:0019725 -->
<g id="edge20" class="edge">
<title>GO:0055082&#45;&gt;GO:0019725</title>
<path fill="none" stroke="#000000" d="M458.0733,-513.9963C458.0733,-522.2638 458.0733,-531.2657 458.0733,-539.6008"/>
<polygon fill="#000000" stroke="#000000" points="454.5734,-539.6965 458.0733,-549.6966 461.5734,-539.6966 454.5734,-539.6965"/>
</g>
<!-- GO:0048878&#45;&gt;GO:0042592 -->
<g id="edge22" class="edge">
<title>GO:0048878&#45;&gt;GO:0042592</title>
<path fill="none" stroke="#000000" d="M611.0733,-591.2182C611.0733,-601.5705 611.0733,-614.2848 611.0733,-625.7271"/>
<polygon fill="#000000" stroke="#000000" points="607.5734,-625.7735 611.0733,-635.7735 614.5734,-625.7735 607.5734,-625.7735"/>
</g>
<!-- GO:0019725&#45;&gt;GO:0042592 -->
<g id="edge23" class="edge">
<title>GO:0019725&#45;&gt;GO:0042592</title>
<path fill="none" stroke="#000000" d="M495.1103,-591.2182C516.2528,-603.1022 542.9331,-618.099 565.3704,-630.7108"/>
<polygon fill="#000000" stroke="#000000" points="563.9451,-633.9246 574.3773,-635.7735 567.375,-627.8225 563.9451,-633.9246"/>
</g>
<!-- GO:0044763 -->
<g id="node19" class="node">
<title>GO:0044763</title>
<polygon fill="#00ffff" stroke="#000000" points="416.7518,-685.8014 265.3948,-685.8014 265.3948,-626.9986 416.7518,-626.9986 416.7518,-685.8014"/>
<text text-anchor="middle" x="341.0733" y="-669" font-family="Times,serif" font-size="14.00" fill="#000000">GO:0044763</text>
<text text-anchor="middle" x="341.0733" y="-652.2" font-family="Times,serif" font-size="14.00" fill="#000000">single&#45;organism cellular</text>
<text text-anchor="middle" x="341.0733" y="-635.4" font-family="Times,serif" font-size="14.00" fill="#000000">process</text>
</g>
<!-- GO:0019725&#45;&gt;GO:0044763 -->
<g id="edge24" class="edge">
<title>GO:0019725&#45;&gt;GO:0044763</title>
<path fill="none" stroke="#000000" d="M429.7509,-591.2182C417.6536,-600.1102 403.1854,-610.745 389.4795,-620.8194"/>
<polygon fill="#000000" stroke="#000000" points="387.0567,-618.2564 381.0721,-626.9991 391.2026,-623.8966 387.0567,-618.2564"/>
</g>
<!-- GO:0044763&#45;&gt;GO:0044699 -->
<g id="edge26" class="edge">
<title>GO:0044763&#45;&gt;GO:0044699</title>
<path fill="none" stroke="#000000" d="M309.6699,-685.7513C296.9139,-697.6737 282.2515,-711.378 269.6843,-723.124"/>
<polygon fill="#000000" stroke="#000000" points="267.0818,-720.7656 262.166,-730.151 271.8617,-725.8796 267.0818,-720.7656"/>
</g>
<!-- GO:0009987 -->
<g id="node20" class="node">
<title>GO:0009987</title>
<polygon fill="#ff0000" stroke="#000000" points="419.0295,-857.4019 315.1171,-857.4019 315.1171,-816.1981 419.0295,-816.1981 419.0295,-857.4019"/>
<text text-anchor="middle" x="367.0733" y="-841" font-family="Times,serif" font-size="14.00" fill="#000000">GO:0009987</text>
<text text-anchor="middle" x="367.0733" y="-824.2" font-family="Times,serif" font-size="14.00" fill="#000000">cellular process</text>
</g>
<!-- GO:0044763&#45;&gt;GO:0009987 -->
<g id="edge25" class="edge">
<title>GO:0044763&#45;&gt;GO:0009987</title>
<path fill="none" stroke="#000000" d="M345.3085,-685.7859C350.0737,-718.8492 357.7799,-772.3182 362.6291,-805.9643"/>
<polygon fill="#000000" stroke="#000000" points="359.205,-806.7424 364.0958,-816.1409 366.1334,-805.7438 359.205,-806.7424"/>
</g>
<!-- GO:0009987&#45;&gt;GO:0008150 -->
<g id="edge27" class="edge">
<title>GO:0009987&#45;&gt;GO:0008150</title>
<path fill="none" stroke="#000000" d="M367.0733,-857.5954C367.0733,-865.5109 367.0733,-874.7109 367.0733,-883.3722"/>
<polygon fill="#000000" stroke="#000000" points="363.5734,-883.5472 367.0733,-893.5472 370.5734,-883.5473 363.5734,-883.5472"/>
</g>
<!-- GO:0051179 -->
<g id="node21" class="node">
<title>GO:0051179</title>
<polygon fill="#00ffff" stroke="#000000" points="180.6772,-857.4019 91.4694,-857.4019 91.4694,-816.1981 180.6772,-816.1981 180.6772,-857.4019"/>
<text text-anchor="middle" x="136.0733" y="-841" font-family="Times,serif" font-size="14.00" fill="#000000">GO:0051179</text>
<text text-anchor="middle" x="136.0733" y="-824.2" font-family="Times,serif" font-size="14.00" fill="#000000">localization</text>
</g>
<!-- GO:0051179&#45;&gt;GO:0008150 -->
<g id="edge28" class="edge">
<title>GO:0051179&#45;&gt;GO:0008150</title>
<path fill="none" stroke="#000000" d="M180.8863,-851.8541C213.6461,-862.8591 258.7335,-878.0053 296.3337,-890.6364"/>
<polygon fill="#000000" stroke="#000000" points="295.6263,-894.0909 306.2203,-893.9576 297.8554,-887.4553 295.6263,-894.0909"/>
</g>
<!-- GO:0071704 -->
<g id="node22" class="node">
<title>GO:0071704</title>
<polygon fill="#ff00ff" stroke="#000000" points="623.2589,-780.2014 506.8877,-780.2014 506.8877,-721.3986 623.2589,-721.3986 623.2589,-780.2014"/>
<text text-anchor="middle" x="565.0733" y="-763.4" font-family="Times,serif" font-size="14.00" fill="#000000">GO:0071704</text>
<text text-anchor="middle" x="565.0733" y="-746.6" font-family="Times,serif" font-size="14.00" fill="#000000">organic substance</text>
<text text-anchor="middle" x="565.0733" y="-729.8" font-family="Times,serif" font-size="14.00" fill="#000000">metabolic process</text>
</g>
<!-- GO:0071704&#45;&gt;GO:0008152 -->
<g id="edge29" class="edge">
<title>GO:0071704&#45;&gt;GO:0008152</title>
<path fill="none" stroke="#000000" d="M556.8139,-780.3963C554.481,-788.7556 551.9386,-797.8658 549.591,-806.2784"/>
<polygon fill="#000000" stroke="#000000" points="546.1679,-805.5238 546.851,-816.0966 552.9103,-807.4054 546.1679,-805.5238"/>
</g>
<!-- GO:0006879 -->
<g id="node23" class="node">
<title>GO:0006879</title>
<polygon fill="#ff00ff" stroke="#000000" points="675.9921,-58.6014 570.1545,-58.6014 570.1545,.2014 675.9921,.2014 675.9921,-58.6014"/>
<text text-anchor="middle" x="623.0733" y="-41.8" font-family="Times,serif" font-size="14.00" fill="#000000">GO:0006879</text>
<text text-anchor="middle" x="623.0733" y="-25" font-family="Times,serif" font-size="14.00" fill="#000000">cellular iron ion</text>
<text text-anchor="middle" x="623.0733" y="-8.2" font-family="Times,serif" font-size="14.00" fill="#000000">homeostasis</text>
</g>
<!-- GO:0006879&#45;&gt;GO:0046916 -->
<g id="edge31" class="edge">
<title>GO:0006879&#45;&gt;GO:0046916</title>
<path fill="none" stroke="#000000" d="M598.5103,-58.5513C591.1535,-67.3422 582.986,-77.1018 575.2626,-86.3308"/>
<polygon fill="#000000" stroke="#000000" points="572.3549,-84.3517 568.6212,-94.2669 577.7231,-88.8442 572.3549,-84.3517"/>
</g>
<!-- GO:0055072 -->
<g id="node24" class="node">
<title>GO:0055072</title>
<polygon fill="#ffffff" stroke="#000000" points="767.95,-144.2019 636.1966,-144.2019 636.1966,-102.9981 767.95,-102.9981 767.95,-144.2019"/>
<text text-anchor="middle" x="702.0733" y="-127.8" font-family="Times,serif" font-size="14.00" fill="#000000">GO:0055072</text>
<text text-anchor="middle" x="702.0733" y="-111" font-family="Times,serif" font-size="14.00" fill="#000000">iron ion homeostasis</text>
</g>
<!-- GO:0006879&#45;&gt;GO:0055072 -->
<g id="edge30" class="edge">
<title>GO:0006879&#45;&gt;GO:0055072</title>
<path fill="none" stroke="#000000" d="M647.6363,-58.5513C657.4256,-70.2488 668.6502,-83.6615 678.3541,-95.257"/>
<polygon fill="#000000" stroke="#000000" points="675.6909,-97.5283 684.7929,-102.951 681.0591,-93.0358 675.6909,-97.5283"/>
</g>
<!-- GO:0055072&#45;&gt;GO:0055076 -->
<g id="edge32" class="edge">
<title>GO:0055072&#45;&gt;GO:0055076</title>
<path fill="none" stroke="#000000" d="M697.4127,-144.5504C695.1884,-154.5492 692.4515,-166.8525 689.858,-178.5106"/>
<polygon fill="#000000" stroke="#000000" points="686.3874,-177.9941 687.6323,-188.5155 693.2204,-179.5142 686.3874,-177.9941"/>
</g>
<!-- GO:0006810 -->
<g id="node25" class="node">
<title>GO:0006810</title>
<polygon fill="#00ffff" stroke="#000000" points="111.6772,-677.0019 22.4694,-677.0019 22.4694,-635.7981 111.6772,-635.7981 111.6772,-677.0019"/>
<text text-anchor="middle" x="67.0733" y="-660.6" font-family="Times,serif" font-size="14.00" fill="#000000">GO:0006810</text>
<text text-anchor="middle" x="67.0733" y="-643.8" font-family="Times,serif" font-size="14.00" fill="#000000">transport</text>
</g>
<!-- GO:0051234 -->
<g id="node26" class="node">
<title>GO:0051234</title>
<polygon fill="#ffffff" stroke="#000000" points="108.22,-780.2014 -.0734,-780.2014 -.0734,-721.3986 108.22,-721.3986 108.22,-780.2014"/>
<text text-anchor="middle" x="54.0733" y="-763.4" font-family="Times,serif" font-size="14.00" fill="#000000">GO:0051234</text>
<text text-anchor="middle" x="54.0733" y="-746.6" font-family="Times,serif" font-size="14.00" fill="#000000">establishment of</text>
<text text-anchor="middle" x="54.0733" y="-729.8" font-family="Times,serif" font-size="14.00" fill="#000000">localization</text>
</g>
<!-- GO:0006810&#45;&gt;GO:0051234 -->
<g id="edge33" class="edge">
<title>GO:0006810&#45;&gt;GO:0051234</title>
<path fill="none" stroke="#000000" d="M64.1882,-677.3504C62.8112,-687.3492 61.1169,-699.6525 59.5115,-711.3106"/>
<polygon fill="#000000" stroke="#000000" points="56.0307,-710.9315 58.1337,-721.3155 62.9653,-711.8865 56.0307,-710.9315"/>
</g>
<!-- GO:0051234&#45;&gt;GO:0051179 -->
<g id="edge34" class="edge">
<title>GO:0051234&#45;&gt;GO:0051179</title>
<path fill="none" stroke="#000000" d="M82.293,-780.3963C91.0518,-789.5824 100.6752,-799.6752 109.3304,-808.7526"/>
<polygon fill="#000000" stroke="#000000" points="106.8989,-811.2744 116.3328,-816.0966 111.9651,-806.4439 106.8989,-811.2744"/>
</g>
<!-- GO:0055085 -->
<g id="node27" class="node">
<title>GO:0055085</title>
<polygon fill="#ff00ff" stroke="#000000" points="359.6315,-505.0019 204.5151,-505.0019 204.5151,-463.7981 359.6315,-463.7981 359.6315,-505.0019"/>
<text text-anchor="middle" x="282.0733" y="-488.6" font-family="Times,serif" font-size="14.00" fill="#000000">GO:0055085</text>
<text text-anchor="middle" x="282.0733" y="-471.8" font-family="Times,serif" font-size="14.00" fill="#000000">transmembrane transport</text>
</g>
<!-- GO:0055085&#45;&gt;GO:0044763 -->
<g id="edge36" class="edge">
<title>GO:0055085&#45;&gt;GO:0044763</title>
<path fill="none" stroke="#000000" d="M289.1901,-505.1472C298.6745,-532.7966 315.6471,-582.276 327.5915,-617.097"/>
<polygon fill="#000000" stroke="#000000" points="324.4143,-618.6219 330.9696,-626.9452 331.0355,-616.3506 324.4143,-618.6219"/>
</g>
<!-- GO:0044765 -->
<g id="node28" class="node">
<title>GO:0044765</title>
<polygon fill="#ffffff" stroke="#000000" points="270.0376,-591.0019 110.109,-591.0019 110.109,-549.7981 270.0376,-549.7981 270.0376,-591.0019"/>
<text text-anchor="middle" x="190.0733" y="-574.6" font-family="Times,serif" font-size="14.00" fill="#000000">GO:0044765</text>
<text text-anchor="middle" x="190.0733" y="-557.8" font-family="Times,serif" font-size="14.00" fill="#000000">single&#45;organism transport</text>
</g>
<!-- GO:0055085&#45;&gt;GO:0044765 -->
<g id="edge35" class="edge">
<title>GO:0055085&#45;&gt;GO:0044765</title>
<path fill="none" stroke="#000000" d="M259.8027,-505.2182C247.7111,-516.5212 232.6072,-530.6401 219.5512,-542.8446"/>
<polygon fill="#000000" stroke="#000000" points="217.054,-540.3878 212.1388,-549.7735 221.8342,-545.5015 217.054,-540.3878"/>
</g>
<!-- GO:0044765&#45;&gt;GO:0006810 -->
<g id="edge37" class="edge">
<title>GO:0044765&#45;&gt;GO:0006810</title>
<path fill="none" stroke="#000000" d="M160.2984,-591.2182C143.6793,-602.8381 122.8038,-617.434 105.0223,-629.8665"/>
<polygon fill="#000000" stroke="#000000" points="102.7639,-627.1749 96.574,-635.7735 106.775,-632.9117 102.7639,-627.1749"/>
</g>
<!-- GO:1902578 -->
<g id="node29" class="node">
<title>GO:1902578</title>
<polygon fill="#ffffff" stroke="#000000" points="243.2755,-685.8014 136.8711,-685.8014 136.8711,-626.9986 243.2755,-626.9986 243.2755,-685.8014"/>
<text text-anchor="middle" x="190.0733" y="-669" font-family="Times,serif" font-size="14.00" fill="#000000">GO:1902578</text>
<text text-anchor="middle" x="190.0733" y="-652.2" font-family="Times,serif" font-size="14.00" fill="#000000">single&#45;organism</text>
<text text-anchor="middle" x="190.0733" y="-635.4" font-family="Times,serif" font-size="14.00" fill="#000000">localization</text>
</g>
<!-- GO:0044765&#45;&gt;GO:1902578 -->
<g id="edge38" class="edge">
<title>GO:0044765&#45;&gt;GO:1902578</title>
<path fill="none" stroke="#000000" d="M190.0733,-591.2182C190.0733,-598.9358 190.0733,-607.9662 190.0733,-616.8036"/>
<polygon fill="#000000" stroke="#000000" points="186.5734,-616.9991 190.0733,-626.9991 193.5734,-616.9992 186.5734,-616.9991"/>
</g>
<!-- GO:1902578&#45;&gt;GO:0044699 -->
<g id="edge40" class="edge">
<title>GO:1902578&#45;&gt;GO:0044699</title>
<path fill="none" stroke="#000000" d="M205.6195,-685.7513C211.5769,-696.9989 218.3743,-709.8323 224.3483,-721.1112"/>
<polygon fill="#000000" stroke="#000000" points="221.3627,-722.9522 229.1363,-730.151 227.5486,-719.6758 221.3627,-722.9522"/>
</g>
<!-- GO:1902578&#45;&gt;GO:0051179 -->
<g id="edge39" class="edge">
<title>GO:1902578&#45;&gt;GO:0051179</title>
<path fill="none" stroke="#000000" d="M171.7163,-685.6525C165.584,-696.5765 159.2542,-709.3163 155.0733,-721.6 145.6714,-749.2234 140.8354,-782.2069 138.4032,-805.7878"/>
<polygon fill="#000000" stroke="#000000" points="134.9033,-805.6226 137.4471,-815.9076 141.8723,-806.2811 134.9033,-805.6226"/>
</g>
<!-- GO:0044238 -->
<g id="node30" class="node">
<title>GO:0044238</title>
<polygon fill="#ff00ff" stroke="#000000" points="806.0763,-771.4019 642.0703,-771.4019 642.0703,-730.1981 806.0763,-730.1981 806.0763,-771.4019"/>
<text text-anchor="middle" x="724.0733" y="-755" font-family="Times,serif" font-size="14.00" fill="#000000">GO:0044238</text>
<text text-anchor="middle" x="724.0733" y="-738.2" font-family="Times,serif" font-size="14.00" fill="#000000">primary metabolic process</text>
</g>
<!-- GO:0044238&#45;&gt;GO:0008152 -->
<g id="edge41" class="edge">
<title>GO:0044238&#45;&gt;GO:0008152</title>
<path fill="none" stroke="#000000" d="M679.7741,-771.6182C654.0365,-783.7135 621.4376,-799.0332 594.3111,-811.7812"/>
<polygon fill="#000000" stroke="#000000" points="592.5263,-808.7526 584.9645,-816.1735 595.5036,-815.0879 592.5263,-808.7526"/>
</g>
<!-- GO:0044237 -->
<g id="node31" class="node">
<title>GO:0044237</title>
<polygon fill="#ff00ff" stroke="#000000" points="488.2561,-780.2014 371.8905,-780.2014 371.8905,-721.3986 488.2561,-721.3986 488.2561,-780.2014"/>
<text text-anchor="middle" x="430.0733" y="-763.4" font-family="Times,serif" font-size="14.00" fill="#000000">GO:0044237</text>
<text text-anchor="middle" x="430.0733" y="-746.6" font-family="Times,serif" font-size="14.00" fill="#000000">cellular metabolic</text>
<text text-anchor="middle" x="430.0733" y="-729.8" font-family="Times,serif" font-size="14.00" fill="#000000">process</text>
</g>
<!-- GO:0044237&#45;&gt;GO:0008152 -->
<g id="edge43" class="edge">
<title>GO:0044237&#45;&gt;GO:0008152</title>
<path fill="none" stroke="#000000" d="M467.9627,-780.1558C480.3117,-789.7234 493.9582,-800.2964 506.0846,-809.6916"/>
<polygon fill="#000000" stroke="#000000" points="504.1535,-812.6231 514.2022,-815.9809 508.4408,-807.0895 504.1535,-812.6231"/>
</g>
<!-- GO:0044237&#45;&gt;GO:0009987 -->
<g id="edge42" class="edge">
<title>GO:0044237&#45;&gt;GO:0009987</title>
<path fill="none" stroke="#000000" d="M408.3923,-780.3963C401.8648,-789.3068 394.7124,-799.0705 388.2201,-807.9329"/>
<polygon fill="#000000" stroke="#000000" points="385.3259,-805.9611 382.2398,-816.0966 390.9729,-810.0979 385.3259,-805.9611"/>
</g>
</g>
</svg>
