<?xml version="1.0" encoding="UTF-8" standalone="no"?>
<!DOCTYPE svg PUBLIC "-//W3C//DTD SVG 1.1//EN"
 "http://www.w3.org/Graphics/SVG/1.1/DTD/svg11.dtd">
<!-- Generated by graphviz version 2.40.1 (20161225.0304)
 -->
<!-- Title: G Pages: 1 -->
<svg width="861pt" height="505pt"
 viewBox="0.00 0.00 861.01 504.80" xmlns="http://www.w3.org/2000/svg" xmlns:xlink="http://www.w3.org/1999/xlink">
<g id="graph0" class="graph" transform="scale(1 1) rotate(0) translate(4 500.8)">
<title>G</title>
<polygon fill="#ffffff" stroke="transparent" points="-4,4 -4,-500.8 857.0134,-500.8 857.0134,4 -4,4"/>
<!-- GO:0042393 -->
<g id="node1" class="node">
<title>GO:0042393</title>
<polygon fill="#ffffff" stroke="#000000" points="705.2785,-205.0019 602.8345,-205.0019 602.8345,-163.7981 705.2785,-163.7981 705.2785,-205.0019"/>
<text text-anchor="middle" x="654.0565" y="-188.6" font-family="Times,serif" font-size="14.00" fill="#000000">GO:0042393</text>
<text text-anchor="middle" x="654.0565" y="-171.8" font-family="Times,serif" font-size="14.00" fill="#000000">histone binding</text>
</g>
<!-- GO:0005515 -->
<g id="node2" class="node">
<title>GO:0005515</title>
<polygon fill="#ffffff" stroke="#000000" points="771.9941,-307.8019 670.1189,-307.8019 670.1189,-266.5981 771.9941,-266.5981 771.9941,-307.8019"/>
<text text-anchor="middle" x="721.0565" y="-291.4" font-family="Times,serif" font-size="14.00" fill="#000000">GO:0005515</text>
<text text-anchor="middle" x="721.0565" y="-274.6" font-family="Times,serif" font-size="14.00" fill="#000000">protein binding</text>
</g>
<!-- GO:0042393&#45;&gt;GO:0005515 -->
<g id="edge1" class="edge">
<title>GO:0042393&#45;&gt;GO:0005515</title>
<path fill="none" stroke="#000000" d="M667.6149,-205.2031C677.5137,-220.391 691.0647,-241.1827 702.0441,-258.0287"/>
<polygon fill="#000000" stroke="#000000" points="699.1258,-259.9612 707.5182,-266.4278 704.9902,-256.139 699.1258,-259.9612"/>
</g>
<!-- GO:0005488 -->
<g id="node3" class="node">
<title>GO:0005488</title>
<polygon fill="#ffffff" stroke="#000000" points="441.6604,-410.6019 352.4526,-410.6019 352.4526,-369.3981 441.6604,-369.3981 441.6604,-410.6019"/>
<text text-anchor="middle" x="397.0565" y="-394.2" font-family="Times,serif" font-size="14.00" fill="#000000">GO:0005488</text>
<text text-anchor="middle" x="397.0565" y="-377.4" font-family="Times,serif" font-size="14.00" fill="#000000">binding</text>
</g>
<!-- GO:0005515&#45;&gt;GO:0005488 -->
<g id="edge2" class="edge">
<title>GO:0005515&#45;&gt;GO:0005488</title>
<path fill="none" stroke="#000000" d="M692.1657,-307.8962C682.611,-314.0224 671.6955,-320.2899 661.0565,-324.8 591.8424,-354.1417 506.5893,-372.2076 452.03,-381.6727"/>
<polygon fill="#000000" stroke="#000000" points="451.1494,-378.272 441.8761,-383.3963 452.3209,-385.1733 451.1494,-378.272"/>
</g>
<!-- GO:0003674 -->
<g id="node4" class="node">
<title>GO:0003674</title>
<polygon fill="#ffffff" stroke="#000000" points="295.6896,-496.6019 170.4234,-496.6019 170.4234,-455.3981 295.6896,-455.3981 295.6896,-496.6019"/>
<text text-anchor="middle" x="233.0565" y="-480.2" font-family="Times,serif" font-size="14.00" fill="#000000">GO:0003674</text>
<text text-anchor="middle" x="233.0565" y="-463.4" font-family="Times,serif" font-size="14.00" fill="#000000">molecular_function</text>
</g>
<!-- GO:0005488&#45;&gt;GO:0003674 -->
<g id="edge3" class="edge">
<title>GO:0005488&#45;&gt;GO:0003674</title>
<path fill="none" stroke="#000000" d="M357.3567,-410.8182C334.4927,-422.8078 305.5868,-437.9658 281.4049,-450.6466"/>
<polygon fill="#000000" stroke="#000000" points="279.6215,-447.6297 272.3907,-455.3735 282.8724,-453.829 279.6215,-447.6297"/>
</g>
<!-- GO:0044822 -->
<g id="node5" class="node">
<title>GO:0044822</title>
<polygon fill="#ffffff" stroke="#000000" points="381.7063,-41.4019 242.4067,-41.4019 242.4067,-.1981 381.7063,-.1981 381.7063,-41.4019"/>
<text text-anchor="middle" x="312.0565" y="-25" font-family="Times,serif" font-size="14.00" fill="#000000">GO:0044822</text>
<text text-anchor="middle" x="312.0565" y="-8.2" font-family="Times,serif" font-size="14.00" fill="#000000">poly(A) RNA binding</text>
</g>
<!-- GO:0003723 -->
<g id="node6" class="node">
<title>GO:0003723</title>
<polygon fill="#ffffff" stroke="#000000" points="357.8877,-119.0019 266.2253,-119.0019 266.2253,-77.7981 357.8877,-77.7981 357.8877,-119.0019"/>
<text text-anchor="middle" x="312.0565" y="-102.6" font-family="Times,serif" font-size="14.00" fill="#000000">GO:0003723</text>
<text text-anchor="middle" x="312.0565" y="-85.8" font-family="Times,serif" font-size="14.00" fill="#000000">RNA binding</text>
</g>
<!-- GO:0044822&#45;&gt;GO:0003723 -->
<g id="edge4" class="edge">
<title>GO:0044822&#45;&gt;GO:0003723</title>
<path fill="none" stroke="#000000" d="M312.0565,-41.5954C312.0565,-49.5109 312.0565,-58.7109 312.0565,-67.3722"/>
<polygon fill="#000000" stroke="#000000" points="308.5566,-67.5472 312.0565,-77.5472 315.5566,-67.5473 308.5566,-67.5472"/>
</g>
<!-- GO:0003676 -->
<g id="node7" class="node">
<title>GO:0003676</title>
<polygon fill="#ffffff" stroke="#000000" points="376.5834,-205.0019 247.5296,-205.0019 247.5296,-163.7981 376.5834,-163.7981 376.5834,-205.0019"/>
<text text-anchor="middle" x="312.0565" y="-188.6" font-family="Times,serif" font-size="14.00" fill="#000000">GO:0003676</text>
<text text-anchor="middle" x="312.0565" y="-171.8" font-family="Times,serif" font-size="14.00" fill="#000000">nucleic acid binding</text>
</g>
<!-- GO:0003723&#45;&gt;GO:0003676 -->
<g id="edge5" class="edge">
<title>GO:0003723&#45;&gt;GO:0003676</title>
<path fill="none" stroke="#000000" d="M312.0565,-119.2182C312.0565,-129.5705 312.0565,-142.2848 312.0565,-153.7271"/>
<polygon fill="#000000" stroke="#000000" points="308.5566,-153.7735 312.0565,-163.7735 315.5566,-153.7735 308.5566,-153.7735"/>
</g>
<!-- GO:0097159 -->
<g id="node8" class="node">
<title>GO:0097159</title>
<polygon fill="#ffffff" stroke="#000000" points="475.5679,-316.6014 318.5451,-316.6014 318.5451,-257.7986 475.5679,-257.7986 475.5679,-316.6014"/>
<text text-anchor="middle" x="397.0565" y="-299.8" font-family="Times,serif" font-size="14.00" fill="#000000">GO:0097159</text>
<text text-anchor="middle" x="397.0565" y="-283" font-family="Times,serif" font-size="14.00" fill="#000000">organic cyclic compound</text>
<text text-anchor="middle" x="397.0565" y="-266.2" font-family="Times,serif" font-size="14.00" fill="#000000">binding</text>
</g>
<!-- GO:0003676&#45;&gt;GO:0097159 -->
<g id="edge6" class="edge">
<title>GO:0003676&#45;&gt;GO:0097159</title>
<path fill="none" stroke="#000000" d="M329.2575,-205.2031C339.9154,-218.0928 353.9105,-235.0188 366.4164,-250.1436"/>
<polygon fill="#000000" stroke="#000000" points="363.7252,-252.3813 372.7949,-257.8577 369.1199,-247.9207 363.7252,-252.3813"/>
</g>
<!-- GO:1901363 -->
<g id="node9" class="node">
<title>GO:1901363</title>
<polygon fill="#ffffff" stroke="#000000" points="300.5671,-316.6014 153.5459,-316.6014 153.5459,-257.7986 300.5671,-257.7986 300.5671,-316.6014"/>
<text text-anchor="middle" x="227.0565" y="-299.8" font-family="Times,serif" font-size="14.00" fill="#000000">GO:1901363</text>
<text text-anchor="middle" x="227.0565" y="-283" font-family="Times,serif" font-size="14.00" fill="#000000">heterocyclic compound</text>
<text text-anchor="middle" x="227.0565" y="-266.2" font-family="Times,serif" font-size="14.00" fill="#000000">binding</text>
</g>
<!-- GO:0003676&#45;&gt;GO:1901363 -->
<g id="edge7" class="edge">
<title>GO:0003676&#45;&gt;GO:1901363</title>
<path fill="none" stroke="#000000" d="M294.8555,-205.2031C284.1976,-218.0928 270.2025,-235.0188 257.6966,-250.1436"/>
<polygon fill="#000000" stroke="#000000" points="254.9931,-247.9207 251.3181,-257.8577 260.3878,-252.3813 254.9931,-247.9207"/>
</g>
<!-- GO:0097159&#45;&gt;GO:0005488 -->
<g id="edge8" class="edge">
<title>GO:0097159&#45;&gt;GO:0005488</title>
<path fill="none" stroke="#000000" d="M397.0565,-316.6584C397.0565,-329.9539 397.0565,-345.6608 397.0565,-359.1212"/>
<polygon fill="#000000" stroke="#000000" points="393.5566,-359.3456 397.0565,-369.3456 400.5566,-359.3457 393.5566,-359.3456"/>
</g>
<!-- GO:1901363&#45;&gt;GO:0005488 -->
<g id="edge9" class="edge">
<title>GO:1901363&#45;&gt;GO:0005488</title>
<path fill="none" stroke="#000000" d="M275.7717,-316.6584C300.4797,-331.5994 330.2234,-349.5856 354.0718,-364.0069"/>
<polygon fill="#000000" stroke="#000000" points="352.5322,-367.166 362.9004,-369.3456 356.1544,-361.1761 352.5322,-367.166"/>
</g>
<!-- GO:0003712 -->
<g id="node10" class="node">
<title>GO:0003712</title>
<polygon fill="#ffffff" stroke="#000000" points="136.1695,-213.8014 -.0565,-213.8014 -.0565,-154.9986 136.1695,-154.9986 136.1695,-213.8014"/>
<text text-anchor="middle" x="68.0565" y="-197" font-family="Times,serif" font-size="14.00" fill="#000000">GO:0003712</text>
<text text-anchor="middle" x="68.0565" y="-180.2" font-family="Times,serif" font-size="14.00" fill="#000000">transcription cofactor</text>
<text text-anchor="middle" x="68.0565" y="-163.4" font-family="Times,serif" font-size="14.00" fill="#000000">activity</text>
</g>
<!-- GO:0000989 -->
<g id="node11" class="node">
<title>GO:0000989</title>
<polygon fill="#ffffff" stroke="#000000" points="135.8057,-324.9003 .3073,-324.9003 .3073,-249.4997 135.8057,-249.4997 135.8057,-324.9003"/>
<text text-anchor="middle" x="68.0565" y="-308.2" font-family="Times,serif" font-size="14.00" fill="#000000">GO:0000989</text>
<text text-anchor="middle" x="68.0565" y="-291.4" font-family="Times,serif" font-size="14.00" fill="#000000">transcription factor</text>
<text text-anchor="middle" x="68.0565" y="-274.6" font-family="Times,serif" font-size="14.00" fill="#000000">activity, transcription</text>
<text text-anchor="middle" x="68.0565" y="-257.8" font-family="Times,serif" font-size="14.00" fill="#000000">factor binding</text>
</g>
<!-- GO:0003712&#45;&gt;GO:0000989 -->
<g id="edge10" class="edge">
<title>GO:0003712&#45;&gt;GO:0000989</title>
<path fill="none" stroke="#000000" d="M68.0565,-213.8584C68.0565,-221.7901 68.0565,-230.58 68.0565,-239.2392"/>
<polygon fill="#000000" stroke="#000000" points="64.5566,-239.2849 68.0565,-249.285 71.5566,-239.285 64.5566,-239.2849"/>
</g>
<!-- GO:0000988 -->
<g id="node12" class="node">
<title>GO:0000988</title>
<polygon fill="#ffffff" stroke="#000000" points="239.4857,-419.4014 88.6273,-419.4014 88.6273,-360.5986 239.4857,-360.5986 239.4857,-419.4014"/>
<text text-anchor="middle" x="164.0565" y="-402.6" font-family="Times,serif" font-size="14.00" fill="#000000">GO:0000988</text>
<text text-anchor="middle" x="164.0565" y="-385.8" font-family="Times,serif" font-size="14.00" fill="#000000">transcription factor</text>
<text text-anchor="middle" x="164.0565" y="-369" font-family="Times,serif" font-size="14.00" fill="#000000">activity, protein binding</text>
</g>
<!-- GO:0000989&#45;&gt;GO:0000988 -->
<g id="edge11" class="edge">
<title>GO:0000989&#45;&gt;GO:0000988</title>
<path fill="none" stroke="#000000" d="M103.2582,-324.8952C111.8704,-334.1174 121.0755,-343.9745 129.6499,-353.1563"/>
<polygon fill="#000000" stroke="#000000" points="127.294,-355.7615 136.6772,-360.6814 132.41,-350.9838 127.294,-355.7615"/>
</g>
<!-- GO:0000988&#45;&gt;GO:0003674 -->
<g id="edge12" class="edge">
<title>GO:0000988&#45;&gt;GO:0003674</title>
<path fill="none" stroke="#000000" d="M187.8024,-419.5963C195.0252,-428.5986 202.9467,-438.4719 210.1154,-447.4067"/>
<polygon fill="#000000" stroke="#000000" points="207.4576,-449.687 216.4456,-455.2966 212.9175,-445.3064 207.4576,-449.687"/>
</g>
<!-- GO:0044877 -->
<g id="node13" class="node">
<title>GO:0044877</title>
<polygon fill="#ffffff" stroke="#000000" points="652.2238,-316.6014 493.8892,-316.6014 493.8892,-257.7986 652.2238,-257.7986 652.2238,-316.6014"/>
<text text-anchor="middle" x="573.0565" y="-299.8" font-family="Times,serif" font-size="14.00" fill="#000000">GO:0044877</text>
<text text-anchor="middle" x="573.0565" y="-283" font-family="Times,serif" font-size="14.00" fill="#000000">macromolecular complex</text>
<text text-anchor="middle" x="573.0565" y="-266.2" font-family="Times,serif" font-size="14.00" fill="#000000">binding</text>
</g>
<!-- GO:0044877&#45;&gt;GO:0005488 -->
<g id="edge13" class="edge">
<title>GO:0044877&#45;&gt;GO:0005488</title>
<path fill="none" stroke="#000000" d="M522.622,-316.6584C496.9292,-331.6653 465.9771,-349.7441 441.2324,-364.1973"/>
<polygon fill="#000000" stroke="#000000" points="439.2877,-361.2798 432.4181,-369.3456 442.8183,-367.3242 439.2877,-361.2798"/>
</g>
<!-- GO:0046983 -->
<g id="node14" class="node">
<title>GO:0046983</title>
<polygon fill="#ffffff" stroke="#000000" points="852.9703,-213.8014 723.1427,-213.8014 723.1427,-154.9986 852.9703,-154.9986 852.9703,-213.8014"/>
<text text-anchor="middle" x="788.0565" y="-197" font-family="Times,serif" font-size="14.00" fill="#000000">GO:0046983</text>
<text text-anchor="middle" x="788.0565" y="-180.2" font-family="Times,serif" font-size="14.00" fill="#000000">protein dimerization</text>
<text text-anchor="middle" x="788.0565" y="-163.4" font-family="Times,serif" font-size="14.00" fill="#000000">activity</text>
</g>
<!-- GO:0046983&#45;&gt;GO:0005515 -->
<g id="edge14" class="edge">
<title>GO:0046983&#45;&gt;GO:0005515</title>
<path fill="none" stroke="#000000" d="M768.857,-213.8584C759.8484,-227.6805 749.1413,-244.1087 740.1465,-257.9096"/>
<polygon fill="#000000" stroke="#000000" points="737.046,-256.2568 734.518,-266.5456 742.9104,-260.079 737.046,-256.2568"/>
</g>
</g>
</svg>
