<?xml version="1.0" encoding="UTF-8" standalone="no"?>
<!DOCTYPE svg PUBLIC "-//W3C//DTD SVG 1.1//EN"
 "http://www.w3.org/Graphics/SVG/1.1/DTD/svg11.dtd">
<!-- Generated by graphviz version 2.40.1 (20161225.0304)
 -->
<!-- Title: G Pages: 1 -->
<svg width="336pt" height="394pt"
 viewBox="0.00 0.00 335.78 393.60" xmlns="http://www.w3.org/2000/svg" xmlns:xlink="http://www.w3.org/1999/xlink">
<g id="graph0" class="graph" transform="scale(1 1) rotate(0) translate(4 389.6)">
<title>G</title>
<polygon fill="#ffffff" stroke="transparent" points="-4,4 -4,-389.6 331.7827,-389.6 331.7827,4 -4,4"/>
<!-- GO:0035145 -->
<g id="node1" class="node">
<title>GO:0035145</title>
<polygon fill="#ffffff" stroke="#000000" points="224.8106,-58.6014 99.8564,-58.6014 99.8564,.2014 224.8106,.2014 224.8106,-58.6014"/>
<text text-anchor="middle" x="162.3335" y="-41.8" font-family="Times,serif" font-size="14.00" fill="#000000">GO:0035145</text>
<text text-anchor="middle" x="162.3335" y="-25" font-family="Times,serif" font-size="14.00" fill="#000000">exon&#45;exon junction</text>
<text text-anchor="middle" x="162.3335" y="-8.2" font-family="Times,serif" font-size="14.00" fill="#000000">complex</text>
</g>
<!-- GO:0043234 -->
<g id="node2" class="node">
<title>GO:0043234</title>
<polygon fill="#ffffff" stroke="#000000" points="158.2009,-135.8019 50.4661,-135.8019 50.4661,-94.5981 158.2009,-94.5981 158.2009,-135.8019"/>
<text text-anchor="middle" x="104.3335" y="-119.4" font-family="Times,serif" font-size="14.00" fill="#000000">GO:0043234</text>
<text text-anchor="middle" x="104.3335" y="-102.6" font-family="Times,serif" font-size="14.00" fill="#000000">protein complex</text>
</g>
<!-- GO:0035145&#45;&gt;GO:0043234 -->
<g id="edge1" class="edge">
<title>GO:0035145&#45;&gt;GO:0043234</title>
<path fill="none" stroke="#000000" d="M142.3732,-58.7963C136.4258,-67.6149 129.9147,-77.2692 123.987,-86.0586"/>
<polygon fill="#000000" stroke="#000000" points="120.986,-84.2488 118.2963,-94.4966 126.7895,-88.1628 120.986,-84.2488"/>
</g>
<!-- GO:0044428 -->
<g id="node3" class="node">
<title>GO:0044428</title>
<polygon fill="#ffffff" stroke="#000000" points="277.9374,-135.8019 188.7296,-135.8019 188.7296,-94.5981 277.9374,-94.5981 277.9374,-135.8019"/>
<text text-anchor="middle" x="233.3335" y="-119.4" font-family="Times,serif" font-size="14.00" fill="#000000">GO:0044428</text>
<text text-anchor="middle" x="233.3335" y="-102.6" font-family="Times,serif" font-size="14.00" fill="#000000">nuclear part</text>
</g>
<!-- GO:0035145&#45;&gt;GO:0044428 -->
<g id="edge2" class="edge">
<title>GO:0035145&#45;&gt;GO:0044428</title>
<path fill="none" stroke="#000000" d="M186.7677,-58.7963C194.1998,-67.7986 202.351,-77.6719 209.7274,-86.6067"/>
<polygon fill="#000000" stroke="#000000" points="207.1755,-89.0133 216.2411,-94.4966 212.5736,-84.5567 207.1755,-89.0133"/>
</g>
<!-- GO:0032991 -->
<g id="node4" class="node">
<title>GO:0032991</title>
<polygon fill="#ffffff" stroke="#000000" points="158.5008,-221.8019 .1662,-221.8019 .1662,-180.5981 158.5008,-180.5981 158.5008,-221.8019"/>
<text text-anchor="middle" x="79.3335" y="-205.4" font-family="Times,serif" font-size="14.00" fill="#000000">GO:0032991</text>
<text text-anchor="middle" x="79.3335" y="-188.6" font-family="Times,serif" font-size="14.00" fill="#000000">macromolecular complex</text>
</g>
<!-- GO:0043234&#45;&gt;GO:0032991 -->
<g id="edge3" class="edge">
<title>GO:0043234&#45;&gt;GO:0032991</title>
<path fill="none" stroke="#000000" d="M98.2817,-136.0182C95.2416,-146.4761 91.5008,-159.3446 88.1483,-170.877"/>
<polygon fill="#000000" stroke="#000000" points="84.7602,-169.994 85.3296,-180.5735 91.4819,-171.948 84.7602,-169.994"/>
</g>
<!-- GO:0044446 -->
<g id="node5" class="node">
<title>GO:0044446</title>
<polygon fill="#ffffff" stroke="#000000" points="316.0519,-230.6014 176.6151,-230.6014 176.6151,-171.7986 316.0519,-171.7986 316.0519,-230.6014"/>
<text text-anchor="middle" x="246.3335" y="-213.8" font-family="Times,serif" font-size="14.00" fill="#000000">GO:0044446</text>
<text text-anchor="middle" x="246.3335" y="-197" font-family="Times,serif" font-size="14.00" fill="#000000">intracellular organelle</text>
<text text-anchor="middle" x="246.3335" y="-180.2" font-family="Times,serif" font-size="14.00" fill="#000000">part</text>
</g>
<!-- GO:0044428&#45;&gt;GO:0044446 -->
<g id="edge4" class="edge">
<title>GO:0044428&#45;&gt;GO:0044446</title>
<path fill="none" stroke="#000000" d="M236.4804,-136.0182C237.6597,-143.8197 239.0418,-152.9626 240.3916,-161.8917"/>
<polygon fill="#000000" stroke="#000000" points="236.9338,-162.4346 241.8892,-171.7991 243.8551,-161.3883 236.9338,-162.4346"/>
</g>
<!-- GO:0005575 -->
<g id="node6" class="node">
<title>GO:0005575</title>
<polygon fill="#ffffff" stroke="#000000" points="177.0202,-385.4019 49.6468,-385.4019 49.6468,-344.1981 177.0202,-344.1981 177.0202,-385.4019"/>
<text text-anchor="middle" x="113.3335" y="-369" font-family="Times,serif" font-size="14.00" fill="#000000">GO:0005575</text>
<text text-anchor="middle" x="113.3335" y="-352.2" font-family="Times,serif" font-size="14.00" fill="#000000">cellular_component</text>
</g>
<!-- GO:0032991&#45;&gt;GO:0005575 -->
<g id="edge5" class="edge">
<title>GO:0032991&#45;&gt;GO:0005575</title>
<path fill="none" stroke="#000000" d="M82.5426,-222.1744C85.9707,-243.7828 91.8017,-278.3911 98.3335,-308 100.2236,-316.5677 102.5371,-325.791 104.7761,-334.2619"/>
<polygon fill="#000000" stroke="#000000" points="101.4534,-335.3831 107.4368,-344.1267 108.2119,-333.5602 101.4534,-335.3831"/>
</g>
<!-- GO:0044424 -->
<g id="node7" class="node">
<title>GO:0044424</title>
<polygon fill="#ffffff" stroke="#000000" points="327.7319,-307.8019 218.9351,-307.8019 218.9351,-266.5981 327.7319,-266.5981 327.7319,-307.8019"/>
<text text-anchor="middle" x="273.3335" y="-291.4" font-family="Times,serif" font-size="14.00" fill="#000000">GO:0044424</text>
<text text-anchor="middle" x="273.3335" y="-274.6" font-family="Times,serif" font-size="14.00" fill="#000000">intracellular part</text>
</g>
<!-- GO:0044446&#45;&gt;GO:0044424 -->
<g id="edge6" class="edge">
<title>GO:0044446&#45;&gt;GO:0044424</title>
<path fill="none" stroke="#000000" d="M255.6254,-230.7963C258.2786,-239.2475 261.1729,-248.4662 263.8381,-256.9555"/>
<polygon fill="#000000" stroke="#000000" points="260.4988,-258.0041 266.8336,-266.4966 267.1774,-255.9073 260.4988,-258.0041"/>
</g>
<!-- GO:0044422 -->
<g id="node8" class="node">
<title>GO:0044422</title>
<polygon fill="#ffffff" stroke="#000000" points="201.1856,-307.8019 107.4814,-307.8019 107.4814,-266.5981 201.1856,-266.5981 201.1856,-307.8019"/>
<text text-anchor="middle" x="154.3335" y="-291.4" font-family="Times,serif" font-size="14.00" fill="#000000">GO:0044422</text>
<text text-anchor="middle" x="154.3335" y="-274.6" font-family="Times,serif" font-size="14.00" fill="#000000">organelle part</text>
</g>
<!-- GO:0044446&#45;&gt;GO:0044422 -->
<g id="edge7" class="edge">
<title>GO:0044446&#45;&gt;GO:0044422</title>
<path fill="none" stroke="#000000" d="M214.9296,-230.5558C204.8913,-239.9394 193.8184,-250.2902 183.9144,-259.5483"/>
<polygon fill="#000000" stroke="#000000" points="181.5202,-256.9952 176.6051,-266.3809 186.3005,-262.1089 181.5202,-256.9952"/>
</g>
<!-- GO:0044464 -->
<g id="node9" class="node">
<title>GO:0044464</title>
<polygon fill="#ffffff" stroke="#000000" points="317.9374,-385.4019 228.7296,-385.4019 228.7296,-344.1981 317.9374,-344.1981 317.9374,-385.4019"/>
<text text-anchor="middle" x="273.3335" y="-369" font-family="Times,serif" font-size="14.00" fill="#000000">GO:0044464</text>
<text text-anchor="middle" x="273.3335" y="-352.2" font-family="Times,serif" font-size="14.00" fill="#000000">cell part</text>
</g>
<!-- GO:0044424&#45;&gt;GO:0044464 -->
<g id="edge8" class="edge">
<title>GO:0044424&#45;&gt;GO:0044464</title>
<path fill="none" stroke="#000000" d="M273.3335,-307.9954C273.3335,-315.9109 273.3335,-325.1109 273.3335,-333.7722"/>
<polygon fill="#000000" stroke="#000000" points="269.8336,-333.9472 273.3335,-343.9472 276.8336,-333.9473 269.8336,-333.9472"/>
</g>
<!-- GO:0044422&#45;&gt;GO:0005575 -->
<g id="edge9" class="edge">
<title>GO:0044422&#45;&gt;GO:0005575</title>
<path fill="none" stroke="#000000" d="M143.3463,-307.9954C138.9803,-316.2588 133.8746,-325.9222 129.1254,-334.911"/>
<polygon fill="#000000" stroke="#000000" points="125.9281,-333.4704 124.3511,-343.9472 132.1173,-336.7405 125.9281,-333.4704"/>
</g>
</g>
</svg>
