<?xml version="1.0" encoding="UTF-8" standalone="no"?>
<!DOCTYPE svg PUBLIC "-//W3C//DTD SVG 1.1//EN"
 "http://www.w3.org/Graphics/SVG/1.1/DTD/svg11.dtd">
<!-- Generated by graphviz version 2.40.1 (20161225.0304)
 -->
<!-- Title: G Pages: 1 -->
<svg width="902pt" height="872pt"
 viewBox="0.00 0.00 901.74 872.00" xmlns="http://www.w3.org/2000/svg" xmlns:xlink="http://www.w3.org/1999/xlink">
<g id="graph0" class="graph" transform="scale(1 1) rotate(0) translate(4 868)">
<title>G</title>
<polygon fill="#ffffff" stroke="transparent" points="-4,4 -4,-868 897.7385,-868 897.7385,4 -4,4"/>
<!-- GO:0016787 -->
<g id="node1" class="node">
<title>GO:0016787</title>
<polygon fill="#ffffff" stroke="#000000" points="796.5355,-700.2019 680.7023,-700.2019 680.7023,-658.9981 796.5355,-658.9981 796.5355,-700.2019"/>
<text text-anchor="middle" x="738.6189" y="-683.8" font-family="Times,serif" font-size="14.00" fill="#000000">GO:0016787</text>
<text text-anchor="middle" x="738.6189" y="-667" font-family="Times,serif" font-size="14.00" fill="#000000">hydrolase activity</text>
</g>
<!-- GO:0003824 -->
<g id="node2" class="node">
<title>GO:0003824</title>
<polygon fill="#00ffff" stroke="#000000" points="637.0313,-786.2019 528.2065,-786.2019 528.2065,-744.9981 637.0313,-744.9981 637.0313,-786.2019"/>
<text text-anchor="middle" x="582.6189" y="-769.8" font-family="Times,serif" font-size="14.00" fill="#000000">GO:0003824</text>
<text text-anchor="middle" x="582.6189" y="-753" font-family="Times,serif" font-size="14.00" fill="#000000">catalytic activity</text>
</g>
<!-- GO:0016787&#45;&gt;GO:0003824 -->
<g id="edge1" class="edge">
<title>GO:0016787&#45;&gt;GO:0003824</title>
<path fill="none" stroke="#000000" d="M700.8557,-700.4182C679.2028,-712.355 651.8533,-727.4323 628.9131,-740.0788"/>
<polygon fill="#000000" stroke="#000000" points="627.1021,-737.0806 620.0344,-744.9735 630.4816,-743.2108 627.1021,-737.0806"/>
</g>
<!-- GO:0003674 -->
<g id="node3" class="node">
<title>GO:0003674</title>
<polygon fill="#ffffff" stroke="#000000" points="495.252,-863.8019 369.9858,-863.8019 369.9858,-822.5981 495.252,-822.5981 495.252,-863.8019"/>
<text text-anchor="middle" x="432.6189" y="-847.4" font-family="Times,serif" font-size="14.00" fill="#000000">GO:0003674</text>
<text text-anchor="middle" x="432.6189" y="-830.6" font-family="Times,serif" font-size="14.00" fill="#000000">molecular_function</text>
</g>
<!-- GO:0003824&#45;&gt;GO:0003674 -->
<g id="edge2" class="edge">
<title>GO:0003824&#45;&gt;GO:0003674</title>
<path fill="none" stroke="#000000" d="M542.4217,-786.3954C523.7675,-796.0458 501.4225,-807.6056 481.7739,-817.7705"/>
<polygon fill="#000000" stroke="#000000" points="479.9404,-814.7783 472.6668,-822.4819 483.1569,-820.9956 479.9404,-814.7783"/>
</g>
<!-- GO:0043023 -->
<g id="node4" class="node">
<title>GO:0043023</title>
<polygon fill="#ffffff" stroke="#000000" points="157.8168,-495.0014 9.421,-495.0014 9.421,-436.1986 157.8168,-436.1986 157.8168,-495.0014"/>
<text text-anchor="middle" x="83.6189" y="-478.2" font-family="Times,serif" font-size="14.00" fill="#000000">GO:0043023</text>
<text text-anchor="middle" x="83.6189" y="-461.4" font-family="Times,serif" font-size="14.00" fill="#000000">ribosomal large subunit</text>
<text text-anchor="middle" x="83.6189" y="-444.6" font-family="Times,serif" font-size="14.00" fill="#000000">binding</text>
</g>
<!-- GO:0043021 -->
<g id="node5" class="node">
<title>GO:0043021</title>
<polygon fill="#ffffff" stroke="#000000" points="167.3569,-606.2014 -.1191,-606.2014 -.1191,-547.3986 167.3569,-547.3986 167.3569,-606.2014"/>
<text text-anchor="middle" x="83.6189" y="-589.4" font-family="Times,serif" font-size="14.00" fill="#000000">GO:0043021</text>
<text text-anchor="middle" x="83.6189" y="-572.6" font-family="Times,serif" font-size="14.00" fill="#000000">ribonucleoprotein complex</text>
<text text-anchor="middle" x="83.6189" y="-555.8" font-family="Times,serif" font-size="14.00" fill="#000000">binding</text>
</g>
<!-- GO:0043023&#45;&gt;GO:0043021 -->
<g id="edge3" class="edge">
<title>GO:0043023&#45;&gt;GO:0043021</title>
<path fill="none" stroke="#000000" d="M83.6189,-494.8165C83.6189,-507.7386 83.6189,-523.1358 83.6189,-537.0788"/>
<polygon fill="#000000" stroke="#000000" points="80.119,-537.3925 83.6189,-547.3926 87.119,-537.3926 80.119,-537.3925"/>
</g>
<!-- GO:0044877 -->
<g id="node6" class="node">
<title>GO:0044877</title>
<polygon fill="#ffffff" stroke="#000000" points="162.7862,-709.0014 4.4516,-709.0014 4.4516,-650.1986 162.7862,-650.1986 162.7862,-709.0014"/>
<text text-anchor="middle" x="83.6189" y="-692.2" font-family="Times,serif" font-size="14.00" fill="#000000">GO:0044877</text>
<text text-anchor="middle" x="83.6189" y="-675.4" font-family="Times,serif" font-size="14.00" fill="#000000">macromolecular complex</text>
<text text-anchor="middle" x="83.6189" y="-658.6" font-family="Times,serif" font-size="14.00" fill="#000000">binding</text>
</g>
<!-- GO:0043021&#45;&gt;GO:0044877 -->
<g id="edge4" class="edge">
<title>GO:0043021&#45;&gt;GO:0044877</title>
<path fill="none" stroke="#000000" d="M83.6189,-606.2584C83.6189,-616.7969 83.6189,-628.8505 83.6189,-640.0994"/>
<polygon fill="#000000" stroke="#000000" points="80.119,-640.1373 83.6189,-650.1373 87.119,-640.1374 80.119,-640.1373"/>
</g>
<!-- GO:0005488 -->
<g id="node7" class="node">
<title>GO:0005488</title>
<polygon fill="#ffffff" stroke="#000000" points="321.2228,-786.2019 232.015,-786.2019 232.015,-744.9981 321.2228,-744.9981 321.2228,-786.2019"/>
<text text-anchor="middle" x="276.6189" y="-769.8" font-family="Times,serif" font-size="14.00" fill="#000000">GO:0005488</text>
<text text-anchor="middle" x="276.6189" y="-753" font-family="Times,serif" font-size="14.00" fill="#000000">binding</text>
</g>
<!-- GO:0044877&#45;&gt;GO:0005488 -->
<g id="edge5" class="edge">
<title>GO:0044877&#45;&gt;GO:0005488</title>
<path fill="none" stroke="#000000" d="M149.2292,-708.8357C173.1447,-719.4923 199.8899,-731.4099 222.6763,-741.5634"/>
<polygon fill="#000000" stroke="#000000" points="221.2927,-744.7786 231.8514,-745.6518 224.1418,-738.3846 221.2927,-744.7786"/>
</g>
<!-- GO:0005488&#45;&gt;GO:0003674 -->
<g id="edge6" class="edge">
<title>GO:0005488&#45;&gt;GO:0003674</title>
<path fill="none" stroke="#000000" d="M318.424,-786.3954C337.9121,-796.0895 361.2735,-807.7102 381.7749,-817.9084"/>
<polygon fill="#000000" stroke="#000000" points="380.4568,-821.1618 390.9691,-822.4819 383.5745,-814.8944 380.4568,-821.1618"/>
</g>
<!-- GO:0097159 -->
<g id="node8" class="node">
<title>GO:0097159</title>
<polygon fill="#ffffff" stroke="#000000" points="338.1303,-709.0014 181.1075,-709.0014 181.1075,-650.1986 338.1303,-650.1986 338.1303,-709.0014"/>
<text text-anchor="middle" x="259.6189" y="-692.2" font-family="Times,serif" font-size="14.00" fill="#000000">GO:0097159</text>
<text text-anchor="middle" x="259.6189" y="-675.4" font-family="Times,serif" font-size="14.00" fill="#000000">organic cyclic compound</text>
<text text-anchor="middle" x="259.6189" y="-658.6" font-family="Times,serif" font-size="14.00" fill="#000000">binding</text>
</g>
<!-- GO:0097159&#45;&gt;GO:0005488 -->
<g id="edge7" class="edge">
<title>GO:0097159&#45;&gt;GO:0005488</title>
<path fill="none" stroke="#000000" d="M265.4693,-709.1963C267.1218,-717.5556 268.9226,-726.6658 270.5856,-735.0784"/>
<polygon fill="#000000" stroke="#000000" points="267.1535,-735.7651 272.5264,-744.8966 274.0206,-734.4076 267.1535,-735.7651"/>
</g>
<!-- GO:0070011 -->
<g id="node9" class="node">
<title>GO:0070011</title>
<polygon fill="#ffffff" stroke="#000000" points="893.8583,-503.3003 747.3795,-503.3003 747.3795,-427.8997 893.8583,-427.8997 893.8583,-503.3003"/>
<text text-anchor="middle" x="820.6189" y="-486.6" font-family="Times,serif" font-size="14.00" fill="#000000">GO:0070011</text>
<text text-anchor="middle" x="820.6189" y="-469.8" font-family="Times,serif" font-size="14.00" fill="#000000">peptidase activity,</text>
<text text-anchor="middle" x="820.6189" y="-453" font-family="Times,serif" font-size="14.00" fill="#000000">acting on L&#45;amino acid</text>
<text text-anchor="middle" x="820.6189" y="-436.2" font-family="Times,serif" font-size="14.00" fill="#000000">peptides</text>
</g>
<!-- GO:0008233 -->
<g id="node10" class="node">
<title>GO:0008233</title>
<polygon fill="#ffffff" stroke="#000000" points="814.9807,-597.4019 700.2571,-597.4019 700.2571,-556.1981 814.9807,-556.1981 814.9807,-597.4019"/>
<text text-anchor="middle" x="757.6189" y="-581" font-family="Times,serif" font-size="14.00" fill="#000000">GO:0008233</text>
<text text-anchor="middle" x="757.6189" y="-564.2" font-family="Times,serif" font-size="14.00" fill="#000000">peptidase activity</text>
</g>
<!-- GO:0070011&#45;&gt;GO:0008233 -->
<g id="edge8" class="edge">
<title>GO:0070011&#45;&gt;GO:0008233</title>
<path fill="none" stroke="#000000" d="M799.29,-503.2472C791.1689,-517.5815 782.0375,-533.6992 774.397,-547.1853"/>
<polygon fill="#000000" stroke="#000000" points="771.2605,-545.6212 769.3764,-556.0471 777.351,-549.0717 771.2605,-545.6212"/>
</g>
<!-- GO:0008233&#45;&gt;GO:0016787 -->
<g id="edge9" class="edge">
<title>GO:0008233&#45;&gt;GO:0016787</title>
<path fill="none" stroke="#000000" d="M753.774,-597.6031C751.0699,-612.2337 747.4047,-632.0642 744.3561,-648.5586"/>
<polygon fill="#000000" stroke="#000000" points="740.834,-648.3582 742.4581,-658.8278 747.7174,-649.6305 740.834,-648.3582"/>
</g>
<!-- GO:0070677 -->
<g id="node11" class="node">
<title>GO:0070677</title>
<polygon fill="#ffffff" stroke="#000000" points="408.2109,-58.6014 237.0269,-58.6014 237.0269,.2014 408.2109,.2014 408.2109,-58.6014"/>
<text text-anchor="middle" x="322.6189" y="-41.8" font-family="Times,serif" font-size="14.00" fill="#000000">GO:0070677</text>
<text text-anchor="middle" x="322.6189" y="-25" font-family="Times,serif" font-size="14.00" fill="#000000">rRNA (cytosine&#45;2&#39;&#45;O&#45;)&#45;met</text>
<text text-anchor="middle" x="322.6189" y="-8.2" font-family="Times,serif" font-size="14.00" fill="#000000">hyltransferase activity</text>
</g>
<!-- GO:0008171 -->
<g id="node12" class="node">
<title>GO:0008171</title>
<polygon fill="#ffffff" stroke="#000000" points="307.8928,-264.2014 177.345,-264.2014 177.345,-205.3986 307.8928,-205.3986 307.8928,-264.2014"/>
<text text-anchor="middle" x="242.6189" y="-247.4" font-family="Times,serif" font-size="14.00" fill="#000000">GO:0008171</text>
<text text-anchor="middle" x="242.6189" y="-230.6" font-family="Times,serif" font-size="14.00" fill="#000000">O&#45;methyltransferase</text>
<text text-anchor="middle" x="242.6189" y="-213.8" font-family="Times,serif" font-size="14.00" fill="#000000">activity</text>
</g>
<!-- GO:0070677&#45;&gt;GO:0008171 -->
<g id="edge10" class="edge">
<title>GO:0070677&#45;&gt;GO:0008171</title>
<path fill="none" stroke="#000000" d="M311.1569,-58.6575C297.1073,-94.7649 273.2567,-156.0609 257.7224,-195.9839"/>
<polygon fill="#000000" stroke="#000000" points="254.4242,-194.8086 254.0597,-205.3972 260.9477,-197.347 254.4242,-194.8086"/>
</g>
<!-- GO:0016434 -->
<g id="node13" class="node">
<title>GO:0016434</title>
<polygon fill="#ffffff" stroke="#000000" points="441.1264,-169.7003 326.1114,-169.7003 326.1114,-94.2997 441.1264,-94.2997 441.1264,-169.7003"/>
<text text-anchor="middle" x="383.6189" y="-153" font-family="Times,serif" font-size="14.00" fill="#000000">GO:0016434</text>
<text text-anchor="middle" x="383.6189" y="-136.2" font-family="Times,serif" font-size="14.00" fill="#000000">rRNA (cytosine)</text>
<text text-anchor="middle" x="383.6189" y="-119.4" font-family="Times,serif" font-size="14.00" fill="#000000">methyltransferase</text>
<text text-anchor="middle" x="383.6189" y="-102.6" font-family="Times,serif" font-size="14.00" fill="#000000">activity</text>
</g>
<!-- GO:0070677&#45;&gt;GO:0016434 -->
<g id="edge11" class="edge">
<title>GO:0070677&#45;&gt;GO:0016434</title>
<path fill="none" stroke="#000000" d="M340.0991,-58.6584C345.0614,-67.0212 350.5899,-76.338 355.9966,-85.4497"/>
<polygon fill="#000000" stroke="#000000" points="353.0076,-87.2711 361.1207,-94.085 359.0275,-83.6989 353.0076,-87.2711"/>
</g>
<!-- GO:0008168 -->
<g id="node14" class="node">
<title>GO:0008168</title>
<polygon fill="#ffffff" stroke="#000000" points="413.1264,-495.0014 298.1114,-495.0014 298.1114,-436.1986 413.1264,-436.1986 413.1264,-495.0014"/>
<text text-anchor="middle" x="355.6189" y="-478.2" font-family="Times,serif" font-size="14.00" fill="#000000">GO:0008168</text>
<text text-anchor="middle" x="355.6189" y="-461.4" font-family="Times,serif" font-size="14.00" fill="#000000">methyltransferase</text>
<text text-anchor="middle" x="355.6189" y="-444.6" font-family="Times,serif" font-size="14.00" fill="#000000">activity</text>
</g>
<!-- GO:0008171&#45;&gt;GO:0008168 -->
<g id="edge12" class="edge">
<title>GO:0008171&#45;&gt;GO:0008168</title>
<path fill="none" stroke="#000000" d="M239.7358,-264.0887C237.8557,-297.2975 239.0711,-352.0098 261.6189,-392 269.8804,-406.6524 282.3508,-419.4115 295.5312,-430.0051"/>
<polygon fill="#000000" stroke="#000000" points="293.7267,-433.0309 303.7984,-436.3188 297.9753,-427.4677 293.7267,-433.0309"/>
</g>
<!-- GO:0008649 -->
<g id="node15" class="node">
<title>GO:0008649</title>
<polygon fill="#ffffff" stroke="#000000" points="479.3359,-264.2014 325.9019,-264.2014 325.9019,-205.3986 479.3359,-205.3986 479.3359,-264.2014"/>
<text text-anchor="middle" x="402.6189" y="-247.4" font-family="Times,serif" font-size="14.00" fill="#000000">GO:0008649</text>
<text text-anchor="middle" x="402.6189" y="-230.6" font-family="Times,serif" font-size="14.00" fill="#000000">rRNA methyltransferase</text>
<text text-anchor="middle" x="402.6189" y="-213.8" font-family="Times,serif" font-size="14.00" fill="#000000">activity</text>
</g>
<!-- GO:0016434&#45;&gt;GO:0008649 -->
<g id="edge13" class="edge">
<title>GO:0016434&#45;&gt;GO:0008649</title>
<path fill="none" stroke="#000000" d="M390.5859,-169.6952C392.137,-178.0874 393.7853,-187.0054 395.3482,-195.4618"/>
<polygon fill="#000000" stroke="#000000" points="391.9408,-196.2841 397.2001,-205.4814 398.8242,-195.0118 391.9408,-196.2841"/>
</g>
<!-- GO:0016741 -->
<g id="node16" class="node">
<title>GO:0016741</title>
<polygon fill="#ffffff" stroke="#000000" points="441.3815,-614.5003 293.8563,-614.5003 293.8563,-539.0997 441.3815,-539.0997 441.3815,-614.5003"/>
<text text-anchor="middle" x="367.6189" y="-597.8" font-family="Times,serif" font-size="14.00" fill="#000000">GO:0016741</text>
<text text-anchor="middle" x="367.6189" y="-581" font-family="Times,serif" font-size="14.00" fill="#000000">transferase activity,</text>
<text text-anchor="middle" x="367.6189" y="-564.2" font-family="Times,serif" font-size="14.00" fill="#000000">transferring one&#45;carbon</text>
<text text-anchor="middle" x="367.6189" y="-547.4" font-family="Times,serif" font-size="14.00" fill="#000000">groups</text>
</g>
<!-- GO:0008168&#45;&gt;GO:0016741 -->
<g id="edge14" class="edge">
<title>GO:0008168&#45;&gt;GO:0016741</title>
<path fill="none" stroke="#000000" d="M358.7718,-494.8165C359.8996,-505.2682 361.2023,-517.3391 362.4552,-528.9501"/>
<polygon fill="#000000" stroke="#000000" points="358.9851,-529.4163 363.5379,-538.983 365.9447,-528.6652 358.9851,-529.4163"/>
</g>
<!-- GO:0008757 -->
<g id="node17" class="node">
<title>GO:0008757</title>
<polygon fill="#ffffff" stroke="#000000" points="416.4788,-392 270.759,-392 270.759,-300 416.4788,-300 416.4788,-392"/>
<text text-anchor="middle" x="343.6189" y="-375.4" font-family="Times,serif" font-size="14.00" fill="#000000">GO:0008757</text>
<text text-anchor="middle" x="343.6189" y="-358.6" font-family="Times,serif" font-size="14.00" fill="#000000">S&#45;adenosylmethionine&#45;</text>
<text text-anchor="middle" x="343.6189" y="-341.8" font-family="Times,serif" font-size="14.00" fill="#000000">dependent</text>
<text text-anchor="middle" x="343.6189" y="-325" font-family="Times,serif" font-size="14.00" fill="#000000">methyltransferase</text>
<text text-anchor="middle" x="343.6189" y="-308.2" font-family="Times,serif" font-size="14.00" fill="#000000">activity</text>
</g>
<!-- GO:0008649&#45;&gt;GO:0008757 -->
<g id="edge15" class="edge">
<title>GO:0008649&#45;&gt;GO:0008757</title>
<path fill="none" stroke="#000000" d="M387.1173,-264.0165C382.7189,-272.3064 377.78,-281.6151 372.851,-290.9049"/>
<polygon fill="#000000" stroke="#000000" points="369.7415,-289.298 368.1463,-299.7721 375.925,-292.5789 369.7415,-289.298"/>
</g>
<!-- GO:0008173 -->
<g id="node18" class="node">
<title>GO:0008173</title>
<polygon fill="#ffffff" stroke="#000000" points="582.6758,-375.4014 434.562,-375.4014 434.562,-316.5986 582.6758,-316.5986 582.6758,-375.4014"/>
<text text-anchor="middle" x="508.6189" y="-358.6" font-family="Times,serif" font-size="14.00" fill="#000000">GO:0008173</text>
<text text-anchor="middle" x="508.6189" y="-341.8" font-family="Times,serif" font-size="14.00" fill="#000000">RNA methyltransferase</text>
<text text-anchor="middle" x="508.6189" y="-325" font-family="Times,serif" font-size="14.00" fill="#000000">activity</text>
</g>
<!-- GO:0008649&#45;&gt;GO:0008173 -->
<g id="edge16" class="edge">
<title>GO:0008649&#45;&gt;GO:0008173</title>
<path fill="none" stroke="#000000" d="M430.4692,-264.0165C443.6323,-277.8254 459.4898,-294.4608 473.4707,-309.1276"/>
<polygon fill="#000000" stroke="#000000" points="471.1534,-311.7692 480.5866,-316.5926 476.2202,-306.9393 471.1534,-311.7692"/>
</g>
<!-- GO:0016740 -->
<g id="node19" class="node">
<title>GO:0016740</title>
<polygon fill="#ffffff" stroke="#000000" points="643.7306,-700.2019 521.5072,-700.2019 521.5072,-658.9981 643.7306,-658.9981 643.7306,-700.2019"/>
<text text-anchor="middle" x="582.6189" y="-683.8" font-family="Times,serif" font-size="14.00" fill="#000000">GO:0016740</text>
<text text-anchor="middle" x="582.6189" y="-667" font-family="Times,serif" font-size="14.00" fill="#000000">transferase activity</text>
</g>
<!-- GO:0016741&#45;&gt;GO:0016740 -->
<g id="edge17" class="edge">
<title>GO:0016741&#45;&gt;GO:0016740</title>
<path fill="none" stroke="#000000" d="M441.6097,-612.1779C470.7299,-626.1014 503.495,-641.7677 530.1074,-654.4922"/>
<polygon fill="#000000" stroke="#000000" points="528.7163,-657.7065 539.2479,-658.8626 531.7359,-651.3913 528.7163,-657.7065"/>
</g>
<!-- GO:0008757&#45;&gt;GO:0008168 -->
<g id="edge18" class="edge">
<title>GO:0008757&#45;&gt;GO:0008168</title>
<path fill="none" stroke="#000000" d="M348.2584,-392.2405C349.378,-403.3987 350.5642,-415.2218 351.6499,-426.0424"/>
<polygon fill="#000000" stroke="#000000" points="348.1736,-426.4545 352.6545,-436.0551 355.1386,-425.7556 348.1736,-426.4545"/>
</g>
<!-- GO:0008173&#45;&gt;GO:0008168 -->
<g id="edge19" class="edge">
<title>GO:0008173&#45;&gt;GO:0008168</title>
<path fill="none" stroke="#000000" d="M471.1909,-375.2575C450.0748,-391.7639 423.5295,-412.5143 401.2062,-429.9644"/>
<polygon fill="#000000" stroke="#000000" points="398.9138,-427.3139 393.1908,-436.2301 403.2249,-432.8289 398.9138,-427.3139"/>
</g>
<!-- GO:0016740&#45;&gt;GO:0003824 -->
<g id="edge20" class="edge">
<title>GO:0016740&#45;&gt;GO:0003824</title>
<path fill="none" stroke="#000000" d="M582.6189,-700.4182C582.6189,-710.7705 582.6189,-723.4848 582.6189,-734.9271"/>
<polygon fill="#000000" stroke="#000000" points="579.119,-734.9735 582.6189,-744.9735 586.119,-734.9735 579.119,-734.9735"/>
</g>
<!-- GO:0005215 -->
<g id="node20" class="node">
<title>GO:0005215</title>
<polygon fill="#ffffff" stroke="#000000" points="493.7474,-786.2019 371.4904,-786.2019 371.4904,-744.9981 493.7474,-744.9981 493.7474,-786.2019"/>
<text text-anchor="middle" x="432.6189" y="-769.8" font-family="Times,serif" font-size="14.00" fill="#000000">GO:0005215</text>
<text text-anchor="middle" x="432.6189" y="-753" font-family="Times,serif" font-size="14.00" fill="#000000">transporter activity</text>
</g>
<!-- GO:0005215&#45;&gt;GO:0003674 -->
<g id="edge21" class="edge">
<title>GO:0005215&#45;&gt;GO:0003674</title>
<path fill="none" stroke="#000000" d="M432.6189,-786.3954C432.6189,-794.3109 432.6189,-803.5109 432.6189,-812.1722"/>
<polygon fill="#000000" stroke="#000000" points="429.119,-812.3472 432.6189,-822.3472 436.119,-812.3473 429.119,-812.3472"/>
</g>
<!-- GO:0050515 -->
<g id="node21" class="node">
<title>GO:0050515</title>
<polygon fill="#ffffff" stroke="#000000" points="760.8583,-383.7003 600.3795,-383.7003 600.3795,-308.2997 760.8583,-308.2997 760.8583,-383.7003"/>
<text text-anchor="middle" x="680.6189" y="-367" font-family="Times,serif" font-size="14.00" fill="#000000">GO:0050515</text>
<text text-anchor="middle" x="680.6189" y="-350.2" font-family="Times,serif" font-size="14.00" fill="#000000">4&#45;(cytidine 5&#39;&#45;diphospho)</text>
<text text-anchor="middle" x="680.6189" y="-333.4" font-family="Times,serif" font-size="14.00" fill="#000000">&#45;2&#45;C&#45;methyl&#45;D&#45;erythritol</text>
<text text-anchor="middle" x="680.6189" y="-316.6" font-family="Times,serif" font-size="14.00" fill="#000000">kinase activity</text>
</g>
<!-- GO:0016773 -->
<g id="node22" class="node">
<title>GO:0016773</title>
<polygon fill="#ffffff" stroke="#000000" points="613.982,-503.3003 471.2558,-503.3003 471.2558,-427.8997 613.982,-427.8997 613.982,-503.3003"/>
<text text-anchor="middle" x="542.6189" y="-486.6" font-family="Times,serif" font-size="14.00" fill="#000000">GO:0016773</text>
<text text-anchor="middle" x="542.6189" y="-469.8" font-family="Times,serif" font-size="14.00" fill="#000000">phosphotransferase</text>
<text text-anchor="middle" x="542.6189" y="-453" font-family="Times,serif" font-size="14.00" fill="#000000">activity, alcohol group</text>
<text text-anchor="middle" x="542.6189" y="-436.2" font-family="Times,serif" font-size="14.00" fill="#000000">as acceptor</text>
</g>
<!-- GO:0050515&#45;&gt;GO:0016773 -->
<g id="edge22" class="edge">
<title>GO:0050515&#45;&gt;GO:0016773</title>
<path fill="none" stroke="#000000" d="M636.9548,-383.8422C623.3631,-395.6217 608.2483,-408.7212 594.1706,-420.9219"/>
<polygon fill="#000000" stroke="#000000" points="591.7372,-418.3992 586.4726,-427.5935 596.3218,-423.6891 591.7372,-418.3992"/>
</g>
<!-- GO:0016301 -->
<g id="node23" class="node">
<title>GO:0016301</title>
<polygon fill="#ffffff" stroke="#000000" points="729.3752,-486.2019 631.8626,-486.2019 631.8626,-444.9981 729.3752,-444.9981 729.3752,-486.2019"/>
<text text-anchor="middle" x="680.6189" y="-469.8" font-family="Times,serif" font-size="14.00" fill="#000000">GO:0016301</text>
<text text-anchor="middle" x="680.6189" y="-453" font-family="Times,serif" font-size="14.00" fill="#000000">kinase activity</text>
</g>
<!-- GO:0050515&#45;&gt;GO:0016301 -->
<g id="edge23" class="edge">
<title>GO:0050515&#45;&gt;GO:0016301</title>
<path fill="none" stroke="#000000" d="M680.6189,-383.8422C680.6189,-400.1898 680.6189,-419.0797 680.6189,-434.5812"/>
<polygon fill="#000000" stroke="#000000" points="677.119,-434.6988 680.6189,-444.6989 684.119,-434.6989 677.119,-434.6988"/>
</g>
<!-- GO:0016772 -->
<g id="node24" class="node">
<title>GO:0016772</title>
<polygon fill="#ffffff" stroke="#000000" points="659.6267,-614.5003 505.6111,-614.5003 505.6111,-539.0997 659.6267,-539.0997 659.6267,-614.5003"/>
<text text-anchor="middle" x="582.6189" y="-597.8" font-family="Times,serif" font-size="14.00" fill="#000000">GO:0016772</text>
<text text-anchor="middle" x="582.6189" y="-581" font-family="Times,serif" font-size="14.00" fill="#000000">transferase activity,</text>
<text text-anchor="middle" x="582.6189" y="-564.2" font-family="Times,serif" font-size="14.00" fill="#000000">transferring phosphorus&#45;</text>
<text text-anchor="middle" x="582.6189" y="-547.4" font-family="Times,serif" font-size="14.00" fill="#000000">containing groups</text>
</g>
<!-- GO:0016773&#45;&gt;GO:0016772 -->
<g id="edge24" class="edge">
<title>GO:0016773&#45;&gt;GO:0016772</title>
<path fill="none" stroke="#000000" d="M556.1611,-503.2472C559.2236,-511.7612 562.5125,-520.9042 565.6949,-529.7514"/>
<polygon fill="#000000" stroke="#000000" points="562.4124,-530.9665 569.0907,-539.1915 568.9992,-528.5971 562.4124,-530.9665"/>
</g>
<!-- GO:0016301&#45;&gt;GO:0016772 -->
<g id="edge25" class="edge">
<title>GO:0016301&#45;&gt;GO:0016772</title>
<path fill="none" stroke="#000000" d="M662.4155,-486.2553C651.1892,-498.9937 636.3359,-515.8476 622.4906,-531.5578"/>
<polygon fill="#000000" stroke="#000000" points="619.7811,-529.3387 615.7951,-539.1552 625.0327,-533.967 619.7811,-529.3387"/>
</g>
<!-- GO:0016772&#45;&gt;GO:0016740 -->
<g id="edge26" class="edge">
<title>GO:0016772&#45;&gt;GO:0016740</title>
<path fill="none" stroke="#000000" d="M582.6189,-614.4952C582.6189,-625.7552 582.6189,-637.9618 582.6189,-648.7299"/>
<polygon fill="#000000" stroke="#000000" points="579.119,-648.9302 582.6189,-658.9302 586.119,-648.9302 579.119,-648.9302"/>
</g>
<!-- GO:1901363 -->
<g id="node25" class="node">
<title>GO:1901363</title>
<polygon fill="#ffffff" stroke="#000000" points="503.1295,-709.0014 356.1083,-709.0014 356.1083,-650.1986 503.1295,-650.1986 503.1295,-709.0014"/>
<text text-anchor="middle" x="429.6189" y="-692.2" font-family="Times,serif" font-size="14.00" fill="#000000">GO:1901363</text>
<text text-anchor="middle" x="429.6189" y="-675.4" font-family="Times,serif" font-size="14.00" fill="#000000">heterocyclic compound</text>
<text text-anchor="middle" x="429.6189" y="-658.6" font-family="Times,serif" font-size="14.00" fill="#000000">binding</text>
</g>
<!-- GO:1901363&#45;&gt;GO:0005488 -->
<g id="edge27" class="edge">
<title>GO:1901363&#45;&gt;GO:0005488</title>
<path fill="none" stroke="#000000" d="M377.3929,-708.9558C359.5531,-718.9834 339.7485,-730.1154 322.4508,-739.8383"/>
<polygon fill="#000000" stroke="#000000" points="320.6598,-736.8299 313.6575,-744.7809 324.0897,-742.932 320.6598,-736.8299"/>
</g>
</g>
</svg>
