<?xml version="1.0" encoding="UTF-8" standalone="no"?>
<!DOCTYPE svg PUBLIC "-//W3C//DTD SVG 1.1//EN"
 "http://www.w3.org/Graphics/SVG/1.1/DTD/svg11.dtd">
<!-- Generated by graphviz version 2.40.1 (20161225.0304)
 -->
<!-- Title: G Pages: 1 -->
<svg width="158pt" height="299pt"
 viewBox="0.00 0.00 157.72 299.20" xmlns="http://www.w3.org/2000/svg" xmlns:xlink="http://www.w3.org/1999/xlink">
<g id="graph0" class="graph" transform="scale(1 1) rotate(0) translate(4 295.2)">
<title>G</title>
<polygon fill="#ffffff" stroke="transparent" points="-4,4 -4,-295.2 153.7224,-295.2 153.7224,4 -4,4"/>
<!-- GO:0016746 -->
<g id="node1" class="node">
<title>GO:0016746</title>
<polygon fill="#ffffff" stroke="#000000" points="149.5839,-58.6014 .1385,-58.6014 .1385,.2014 149.5839,.2014 149.5839,-58.6014"/>
<text text-anchor="middle" x="74.8612" y="-41.8" font-family="Times,serif" font-size="14.00" fill="#000000">GO:0016746</text>
<text text-anchor="middle" x="74.8612" y="-25" font-family="Times,serif" font-size="14.00" fill="#000000">transferase activity,</text>
<text text-anchor="middle" x="74.8612" y="-8.2" font-family="Times,serif" font-size="14.00" fill="#000000">transferring acyl groups</text>
</g>
<!-- GO:0016740 -->
<g id="node2" class="node">
<title>GO:0016740</title>
<polygon fill="#ffffff" stroke="#000000" points="135.9729,-135.8019 13.7495,-135.8019 13.7495,-94.5981 135.9729,-94.5981 135.9729,-135.8019"/>
<text text-anchor="middle" x="74.8612" y="-119.4" font-family="Times,serif" font-size="14.00" fill="#000000">GO:0016740</text>
<text text-anchor="middle" x="74.8612" y="-102.6" font-family="Times,serif" font-size="14.00" fill="#000000">transferase activity</text>
</g>
<!-- GO:0016746&#45;&gt;GO:0016740 -->
<g id="edge1" class="edge">
<title>GO:0016746&#45;&gt;GO:0016740</title>
<path fill="none" stroke="#000000" d="M74.8612,-58.7963C74.8612,-67.0638 74.8612,-76.0657 74.8612,-84.4008"/>
<polygon fill="#000000" stroke="#000000" points="71.3613,-84.4965 74.8612,-94.4966 78.3613,-84.4966 71.3613,-84.4965"/>
</g>
<!-- GO:0003824 -->
<g id="node3" class="node">
<title>GO:0003824</title>
<polygon fill="#ffffff" stroke="#000000" points="129.2736,-213.4019 20.4488,-213.4019 20.4488,-172.1981 129.2736,-172.1981 129.2736,-213.4019"/>
<text text-anchor="middle" x="74.8612" y="-197" font-family="Times,serif" font-size="14.00" fill="#000000">GO:0003824</text>
<text text-anchor="middle" x="74.8612" y="-180.2" font-family="Times,serif" font-size="14.00" fill="#000000">catalytic activity</text>
</g>
<!-- GO:0016740&#45;&gt;GO:0003824 -->
<g id="edge2" class="edge">
<title>GO:0016740&#45;&gt;GO:0003824</title>
<path fill="none" stroke="#000000" d="M74.8612,-135.9954C74.8612,-143.9109 74.8612,-153.1109 74.8612,-161.7722"/>
<polygon fill="#000000" stroke="#000000" points="71.3613,-161.9472 74.8612,-171.9472 78.3613,-161.9473 71.3613,-161.9472"/>
</g>
<!-- GO:0003674 -->
<g id="node4" class="node">
<title>GO:0003674</title>
<polygon fill="#ffffff" stroke="#000000" points="137.4943,-291.0019 12.2281,-291.0019 12.2281,-249.7981 137.4943,-249.7981 137.4943,-291.0019"/>
<text text-anchor="middle" x="74.8612" y="-274.6" font-family="Times,serif" font-size="14.00" fill="#000000">GO:0003674</text>
<text text-anchor="middle" x="74.8612" y="-257.8" font-family="Times,serif" font-size="14.00" fill="#000000">molecular_function</text>
</g>
<!-- GO:0003824&#45;&gt;GO:0003674 -->
<g id="edge3" class="edge">
<title>GO:0003824&#45;&gt;GO:0003674</title>
<path fill="none" stroke="#000000" d="M74.8612,-213.5954C74.8612,-221.5109 74.8612,-230.7109 74.8612,-239.3722"/>
<polygon fill="#000000" stroke="#000000" points="71.3613,-239.5472 74.8612,-249.5472 78.3613,-239.5473 71.3613,-239.5472"/>
</g>
</g>
</svg>
