<?xml version="1.0" encoding="UTF-8" standalone="no"?>
<!DOCTYPE svg PUBLIC "-//W3C//DTD SVG 1.1//EN"
 "http://www.w3.org/Graphics/SVG/1.1/DTD/svg11.dtd">
<!-- Generated by graphviz version 2.40.1 (20161225.0304)
 -->
<!-- Title: G Pages: 1 -->
<svg width="1128pt" height="410pt"
 viewBox="0.00 0.00 1128.33 410.40" xmlns="http://www.w3.org/2000/svg" xmlns:xlink="http://www.w3.org/1999/xlink">
<g id="graph0" class="graph" transform="scale(1 1) rotate(0) translate(4 406.4)">
<title>G</title>
<polygon fill="#ffffff" stroke="transparent" points="-4,4 -4,-406.4 1124.3346,-406.4 1124.3346,4 -4,4"/>
<!-- GO:0043169 -->
<g id="node1" class="node">
<title>GO:0043169</title>
<polygon fill="#ffffff" stroke="#000000" points="273.7093,-144.2019 176.7235,-144.2019 176.7235,-102.9981 273.7093,-102.9981 273.7093,-144.2019"/>
<text text-anchor="middle" x="225.2164" y="-127.8" font-family="Times,serif" font-size="14.00" fill="#000000">GO:0043169</text>
<text text-anchor="middle" x="225.2164" y="-111" font-family="Times,serif" font-size="14.00" fill="#000000">cation binding</text>
</g>
<!-- GO:0043167 -->
<g id="node2" class="node">
<title>GO:0043167</title>
<polygon fill="#ffffff" stroke="#000000" points="273.8203,-238.6019 184.6125,-238.6019 184.6125,-197.3981 273.8203,-197.3981 273.8203,-238.6019"/>
<text text-anchor="middle" x="229.2164" y="-222.2" font-family="Times,serif" font-size="14.00" fill="#000000">GO:0043167</text>
<text text-anchor="middle" x="229.2164" y="-205.4" font-family="Times,serif" font-size="14.00" fill="#000000">ion binding</text>
</g>
<!-- GO:0043169&#45;&gt;GO:0043167 -->
<g id="edge1" class="edge">
<title>GO:0043169&#45;&gt;GO:0043167</title>
<path fill="none" stroke="#000000" d="M226.1041,-144.5504C226.6324,-157.0165 227.3124,-173.0645 227.9019,-186.9786"/>
<polygon fill="#000000" stroke="#000000" points="224.4108,-187.2653 228.3312,-197.1081 231.4046,-186.9689 224.4108,-187.2653"/>
</g>
<!-- GO:0005488 -->
<g id="node3" class="node">
<title>GO:0005488</title>
<polygon fill="#ffffff" stroke="#000000" points="586.8203,-324.6019 497.6125,-324.6019 497.6125,-283.3981 586.8203,-283.3981 586.8203,-324.6019"/>
<text text-anchor="middle" x="542.2164" y="-308.2" font-family="Times,serif" font-size="14.00" fill="#000000">GO:0005488</text>
<text text-anchor="middle" x="542.2164" y="-291.4" font-family="Times,serif" font-size="14.00" fill="#000000">binding</text>
</g>
<!-- GO:0043167&#45;&gt;GO:0005488 -->
<g id="edge2" class="edge">
<title>GO:0043167&#45;&gt;GO:0005488</title>
<path fill="none" stroke="#000000" d="M263.9893,-238.628C270.2507,-241.811 276.8226,-244.824 283.2164,-247.2 351.5231,-272.5836 434.3855,-288.2932 487.6849,-296.587"/>
<polygon fill="#000000" stroke="#000000" points="487.1969,-300.053 497.61,-298.0988 488.2511,-293.1328 487.1969,-300.053"/>
</g>
<!-- GO:0003674 -->
<g id="node4" class="node">
<title>GO:0003674</title>
<polygon fill="#ffffff" stroke="#000000" points="604.8495,-402.2019 479.5833,-402.2019 479.5833,-360.9981 604.8495,-360.9981 604.8495,-402.2019"/>
<text text-anchor="middle" x="542.2164" y="-385.8" font-family="Times,serif" font-size="14.00" fill="#000000">GO:0003674</text>
<text text-anchor="middle" x="542.2164" y="-369" font-family="Times,serif" font-size="14.00" fill="#000000">molecular_function</text>
</g>
<!-- GO:0005488&#45;&gt;GO:0003674 -->
<g id="edge3" class="edge">
<title>GO:0005488&#45;&gt;GO:0003674</title>
<path fill="none" stroke="#000000" d="M542.2164,-324.7954C542.2164,-332.7109 542.2164,-341.9109 542.2164,-350.5722"/>
<polygon fill="#000000" stroke="#000000" points="538.7165,-350.7472 542.2164,-360.7472 545.7165,-350.7473 538.7165,-350.7472"/>
</g>
<!-- GO:0005215 -->
<g id="node5" class="node">
<title>GO:0005215</title>
<polygon fill="#ffffff" stroke="#000000" points="312.3449,-324.6019 190.0879,-324.6019 190.0879,-283.3981 312.3449,-283.3981 312.3449,-324.6019"/>
<text text-anchor="middle" x="251.2164" y="-308.2" font-family="Times,serif" font-size="14.00" fill="#000000">GO:0005215</text>
<text text-anchor="middle" x="251.2164" y="-291.4" font-family="Times,serif" font-size="14.00" fill="#000000">transporter activity</text>
</g>
<!-- GO:0005215&#45;&gt;GO:0003674 -->
<g id="edge4" class="edge">
<title>GO:0005215&#45;&gt;GO:0003674</title>
<path fill="none" stroke="#000000" d="M312.5744,-320.3621C358.4392,-332.5927 421.2992,-349.3554 469.6581,-362.2511"/>
<polygon fill="#000000" stroke="#000000" points="468.872,-365.6637 479.4362,-364.8586 470.6757,-358.9001 468.872,-365.6637"/>
</g>
<!-- GO:0043024 -->
<g id="node6" class="node">
<title>GO:0043024</title>
<polygon fill="#ffffff" stroke="#000000" points="450.2655,-58.6014 300.1673,-58.6014 300.1673,.2014 450.2655,.2014 450.2655,-58.6014"/>
<text text-anchor="middle" x="375.2164" y="-41.8" font-family="Times,serif" font-size="14.00" fill="#000000">GO:0043024</text>
<text text-anchor="middle" x="375.2164" y="-25" font-family="Times,serif" font-size="14.00" fill="#000000">ribosomal small subunit</text>
<text text-anchor="middle" x="375.2164" y="-8.2" font-family="Times,serif" font-size="14.00" fill="#000000">binding</text>
</g>
<!-- GO:0043021 -->
<g id="node7" class="node">
<title>GO:0043021</title>
<polygon fill="#ffffff" stroke="#000000" points="458.9544,-153.0014 291.4784,-153.0014 291.4784,-94.1986 458.9544,-94.1986 458.9544,-153.0014"/>
<text text-anchor="middle" x="375.2164" y="-136.2" font-family="Times,serif" font-size="14.00" fill="#000000">GO:0043021</text>
<text text-anchor="middle" x="375.2164" y="-119.4" font-family="Times,serif" font-size="14.00" fill="#000000">ribonucleoprotein complex</text>
<text text-anchor="middle" x="375.2164" y="-102.6" font-family="Times,serif" font-size="14.00" fill="#000000">binding</text>
</g>
<!-- GO:0043024&#45;&gt;GO:0043021 -->
<g id="edge5" class="edge">
<title>GO:0043024&#45;&gt;GO:0043021</title>
<path fill="none" stroke="#000000" d="M375.2164,-58.5513C375.2164,-66.6318 375.2164,-75.5308 375.2164,-84.0838"/>
<polygon fill="#000000" stroke="#000000" points="371.7165,-84.2668 375.2164,-94.2669 378.7165,-84.2669 371.7165,-84.2668"/>
</g>
<!-- GO:0044877 -->
<g id="node8" class="node">
<title>GO:0044877</title>
<polygon fill="#ffffff" stroke="#000000" points="450.3837,-247.4014 292.0491,-247.4014 292.0491,-188.5986 450.3837,-188.5986 450.3837,-247.4014"/>
<text text-anchor="middle" x="371.2164" y="-230.6" font-family="Times,serif" font-size="14.00" fill="#000000">GO:0044877</text>
<text text-anchor="middle" x="371.2164" y="-213.8" font-family="Times,serif" font-size="14.00" fill="#000000">macromolecular complex</text>
<text text-anchor="middle" x="371.2164" y="-197" font-family="Times,serif" font-size="14.00" fill="#000000">binding</text>
</g>
<!-- GO:0043021&#45;&gt;GO:0044877 -->
<g id="edge6" class="edge">
<title>GO:0043021&#45;&gt;GO:0044877</title>
<path fill="none" stroke="#000000" d="M373.9727,-152.9513C373.6303,-161.0318 373.2532,-169.9308 372.8908,-178.4838"/>
<polygon fill="#000000" stroke="#000000" points="369.3859,-178.5276 372.4593,-188.6669 376.3796,-178.824 369.3859,-178.5276"/>
</g>
<!-- GO:0044877&#45;&gt;GO:0005488 -->
<g id="edge7" class="edge">
<title>GO:0044877&#45;&gt;GO:0005488</title>
<path fill="none" stroke="#000000" d="M429.5866,-247.3558C449.8832,-257.5634 472.4552,-268.9154 492.0309,-278.7605"/>
<polygon fill="#000000" stroke="#000000" points="490.5787,-281.9478 501.0851,-283.3141 493.7239,-275.6942 490.5787,-281.9478"/>
</g>
<!-- GO:0036094 -->
<g id="node9" class="node">
<title>GO:0036094</title>
<polygon fill="#ffffff" stroke="#000000" points="616.1448,-238.6019 468.288,-238.6019 468.288,-197.3981 616.1448,-197.3981 616.1448,-238.6019"/>
<text text-anchor="middle" x="542.2164" y="-222.2" font-family="Times,serif" font-size="14.00" fill="#000000">GO:0036094</text>
<text text-anchor="middle" x="542.2164" y="-205.4" font-family="Times,serif" font-size="14.00" fill="#000000">small molecule binding</text>
</g>
<!-- GO:0036094&#45;&gt;GO:0005488 -->
<g id="edge8" class="edge">
<title>GO:0036094&#45;&gt;GO:0005488</title>
<path fill="none" stroke="#000000" d="M542.2164,-238.8182C542.2164,-249.1705 542.2164,-261.8848 542.2164,-273.3271"/>
<polygon fill="#000000" stroke="#000000" points="538.7165,-273.3735 542.2164,-283.3735 545.7165,-273.3735 538.7165,-273.3735"/>
</g>
<!-- GO:0003824 -->
<g id="node10" class="node">
<title>GO:0003824</title>
<polygon fill="#00ff00" stroke="#000000" points="907.6288,-324.6019 798.804,-324.6019 798.804,-283.3981 907.6288,-283.3981 907.6288,-324.6019"/>
<text text-anchor="middle" x="853.2164" y="-308.2" font-family="Times,serif" font-size="14.00" fill="#000000">GO:0003824</text>
<text text-anchor="middle" x="853.2164" y="-291.4" font-family="Times,serif" font-size="14.00" fill="#000000">catalytic activity</text>
</g>
<!-- GO:0003824&#45;&gt;GO:0003674 -->
<g id="edge9" class="edge">
<title>GO:0003824&#45;&gt;GO:0003674</title>
<path fill="none" stroke="#000000" d="M798.6885,-317.6057C747.6612,-330.3379 671.0773,-349.4469 614.8792,-363.4693"/>
<polygon fill="#000000" stroke="#000000" points="613.8422,-360.1207 604.987,-365.9376 615.5369,-366.9125 613.8422,-360.1207"/>
</g>
<!-- GO:0022857 -->
<g id="node11" class="node">
<title>GO:0022857</title>
<polygon fill="#ffffff" stroke="#000000" points="166.6498,-247.4014 -.217,-247.4014 -.217,-188.5986 166.6498,-188.5986 166.6498,-247.4014"/>
<text text-anchor="middle" x="83.2164" y="-230.6" font-family="Times,serif" font-size="14.00" fill="#000000">GO:0022857</text>
<text text-anchor="middle" x="83.2164" y="-213.8" font-family="Times,serif" font-size="14.00" fill="#000000">transmembrane transporter</text>
<text text-anchor="middle" x="83.2164" y="-197" font-family="Times,serif" font-size="14.00" fill="#000000">activity</text>
</g>
<!-- GO:0022857&#45;&gt;GO:0005215 -->
<g id="edge10" class="edge">
<title>GO:0022857&#45;&gt;GO:0005215</title>
<path fill="none" stroke="#000000" d="M140.5626,-247.3558C160.4128,-257.5172 182.4784,-268.8127 201.65,-278.6267"/>
<polygon fill="#000000" stroke="#000000" points="200.3104,-281.8728 210.8067,-283.3141 203.5001,-275.6418 200.3104,-281.8728"/>
</g>
<!-- GO:0097159 -->
<g id="node12" class="node">
<title>GO:0097159</title>
<polygon fill="#ffffff" stroke="#000000" points="790.7278,-247.4014 633.705,-247.4014 633.705,-188.5986 790.7278,-188.5986 790.7278,-247.4014"/>
<text text-anchor="middle" x="712.2164" y="-230.6" font-family="Times,serif" font-size="14.00" fill="#000000">GO:0097159</text>
<text text-anchor="middle" x="712.2164" y="-213.8" font-family="Times,serif" font-size="14.00" fill="#000000">organic cyclic compound</text>
<text text-anchor="middle" x="712.2164" y="-197" font-family="Times,serif" font-size="14.00" fill="#000000">binding</text>
</g>
<!-- GO:0097159&#45;&gt;GO:0005488 -->
<g id="edge11" class="edge">
<title>GO:0097159&#45;&gt;GO:0005488</title>
<path fill="none" stroke="#000000" d="M654.1875,-247.3558C634.0097,-257.5634 611.5697,-268.9154 592.1085,-278.7605"/>
<polygon fill="#000000" stroke="#000000" points="590.4504,-275.6768 583.1072,-283.3141 593.6103,-281.9231 590.4504,-275.6768"/>
</g>
<!-- GO:1901363 -->
<g id="node13" class="node">
<title>GO:1901363</title>
<polygon fill="#ffffff" stroke="#000000" points="955.727,-247.4014 808.7058,-247.4014 808.7058,-188.5986 955.727,-188.5986 955.727,-247.4014"/>
<text text-anchor="middle" x="882.2164" y="-230.6" font-family="Times,serif" font-size="14.00" fill="#000000">GO:1901363</text>
<text text-anchor="middle" x="882.2164" y="-213.8" font-family="Times,serif" font-size="14.00" fill="#000000">heterocyclic compound</text>
<text text-anchor="middle" x="882.2164" y="-197" font-family="Times,serif" font-size="14.00" fill="#000000">binding</text>
</g>
<!-- GO:1901363&#45;&gt;GO:0005488 -->
<g id="edge12" class="edge">
<title>GO:1901363&#45;&gt;GO:0005488</title>
<path fill="none" stroke="#000000" d="M808.6007,-244.7054C805.7782,-245.573 802.9763,-246.4082 800.2164,-247.2 730.988,-267.0618 649.6134,-283.9288 597.0418,-294.0017"/>
<polygon fill="#000000" stroke="#000000" points="596.0944,-290.6191 586.9237,-295.9246 597.4013,-297.496 596.0944,-290.6191"/>
</g>
<!-- GO:0016491 -->
<g id="node14" class="node">
<title>GO:0016491</title>
<polygon fill="#ffffff" stroke="#000000" points="1120.453,-238.6019 973.9798,-238.6019 973.9798,-197.3981 1120.453,-197.3981 1120.453,-238.6019"/>
<text text-anchor="middle" x="1047.2164" y="-222.2" font-family="Times,serif" font-size="14.00" fill="#000000">GO:0016491</text>
<text text-anchor="middle" x="1047.2164" y="-205.4" font-family="Times,serif" font-size="14.00" fill="#000000">oxidoreductase activity</text>
</g>
<!-- GO:0016491&#45;&gt;GO:0003824 -->
<g id="edge13" class="edge">
<title>GO:0016491&#45;&gt;GO:0003824</title>
<path fill="none" stroke="#000000" d="M1000.2544,-238.8182C972.7315,-251.0191 937.8072,-266.501 908.9021,-279.3146"/>
<polygon fill="#000000" stroke="#000000" points="907.4695,-276.1211 899.7459,-283.3735 910.3064,-282.5205 907.4695,-276.1211"/>
</g>
</g>
</svg>
