<?xml version="1.0" encoding="UTF-8" standalone="no"?>
<!DOCTYPE svg PUBLIC "-//W3C//DTD SVG 1.1//EN"
 "http://www.w3.org/Graphics/SVG/1.1/DTD/svg11.dtd">
<!-- Generated by graphviz version 2.40.1 (20161225.0304)
 -->
<!-- Title: G Pages: 1 -->
<svg width="689pt" height="505pt"
 viewBox="0.00 0.00 689.31 504.80" xmlns="http://www.w3.org/2000/svg" xmlns:xlink="http://www.w3.org/1999/xlink">
<g id="graph0" class="graph" transform="scale(1 1) rotate(0) translate(4 500.8)">
<title>G</title>
<polygon fill="#ffffff" stroke="transparent" points="-4,4 -4,-500.8 685.3139,-500.8 685.3139,4 -4,4"/>
<!-- GO:0005737 -->
<g id="node1" class="node">
<title>GO:0005737</title>
<polygon fill="#ffffff" stroke="#000000" points="519.5843,-255.4019 430.3765,-255.4019 430.3765,-214.1981 519.5843,-214.1981 519.5843,-255.4019"/>
<text text-anchor="middle" x="474.9804" y="-239" font-family="Times,serif" font-size="14.00" fill="#000000">GO:0005737</text>
<text text-anchor="middle" x="474.9804" y="-222.2" font-family="Times,serif" font-size="14.00" fill="#000000">cytoplasm</text>
</g>
<!-- GO:0044424 -->
<g id="node2" class="node">
<title>GO:0044424</title>
<polygon fill="#ffffff" stroke="#000000" points="403.3788,-341.4019 294.582,-341.4019 294.582,-300.1981 403.3788,-300.1981 403.3788,-341.4019"/>
<text text-anchor="middle" x="348.9804" y="-325" font-family="Times,serif" font-size="14.00" fill="#000000">GO:0044424</text>
<text text-anchor="middle" x="348.9804" y="-308.2" font-family="Times,serif" font-size="14.00" fill="#000000">intracellular part</text>
</g>
<!-- GO:0005737&#45;&gt;GO:0044424 -->
<g id="edge1" class="edge">
<title>GO:0005737&#45;&gt;GO:0044424</title>
<path fill="none" stroke="#000000" d="M444.4793,-255.6182C427.4548,-267.2381 406.0702,-281.834 387.855,-294.2665"/>
<polygon fill="#000000" stroke="#000000" points="385.487,-291.6452 379.2006,-300.1735 389.4332,-297.4269 385.487,-291.6452"/>
</g>
<!-- GO:0044464 -->
<g id="node3" class="node">
<title>GO:0044464</title>
<polygon fill="#ffffff" stroke="#000000" points="359.5843,-419.0019 270.3765,-419.0019 270.3765,-377.7981 359.5843,-377.7981 359.5843,-419.0019"/>
<text text-anchor="middle" x="314.9804" y="-402.6" font-family="Times,serif" font-size="14.00" fill="#000000">GO:0044464</text>
<text text-anchor="middle" x="314.9804" y="-385.8" font-family="Times,serif" font-size="14.00" fill="#000000">cell part</text>
</g>
<!-- GO:0044424&#45;&gt;GO:0044464 -->
<g id="edge2" class="edge">
<title>GO:0044424&#45;&gt;GO:0044464</title>
<path fill="none" stroke="#000000" d="M339.869,-341.5954C336.2866,-349.7718 332.1036,-359.3189 328.2005,-368.227"/>
<polygon fill="#000000" stroke="#000000" points="324.9243,-366.9832 324.1169,-377.5472 331.3359,-369.7924 324.9243,-366.9832"/>
</g>
<!-- GO:0005575 -->
<g id="node4" class="node">
<title>GO:0005575</title>
<polygon fill="#ffffff" stroke="#000000" points="333.6671,-496.6019 206.2937,-496.6019 206.2937,-455.3981 333.6671,-455.3981 333.6671,-496.6019"/>
<text text-anchor="middle" x="269.9804" y="-480.2" font-family="Times,serif" font-size="14.00" fill="#000000">GO:0005575</text>
<text text-anchor="middle" x="269.9804" y="-463.4" font-family="Times,serif" font-size="14.00" fill="#000000">cellular_component</text>
</g>
<!-- GO:0044464&#45;&gt;GO:0005575 -->
<g id="edge3" class="edge">
<title>GO:0044464&#45;&gt;GO:0005575</title>
<path fill="none" stroke="#000000" d="M302.9212,-419.1954C298.0789,-427.5458 292.4075,-437.3258 287.1484,-446.3947"/>
<polygon fill="#000000" stroke="#000000" points="284.0617,-444.7407 282.0729,-455.1472 290.1172,-448.2523 284.0617,-444.7407"/>
</g>
<!-- GO:0005945 -->
<g id="node5" class="node">
<title>GO:0005945</title>
<polygon fill="#ffffff" stroke="#000000" points="538.2767,-58.6014 393.6841,-58.6014 393.6841,.2014 538.2767,.2014 538.2767,-58.6014"/>
<text text-anchor="middle" x="465.9804" y="-41.8" font-family="Times,serif" font-size="14.00" fill="#000000">GO:0005945</text>
<text text-anchor="middle" x="465.9804" y="-25" font-family="Times,serif" font-size="14.00" fill="#000000">6&#45;phosphofructokinase</text>
<text text-anchor="middle" x="465.9804" y="-8.2" font-family="Times,serif" font-size="14.00" fill="#000000">complex</text>
</g>
<!-- GO:0044445 -->
<g id="node6" class="node">
<title>GO:0044445</title>
<polygon fill="#ffffff" stroke="#000000" points="481.792,-152.6019 390.1688,-152.6019 390.1688,-111.3981 481.792,-111.3981 481.792,-152.6019"/>
<text text-anchor="middle" x="435.9804" y="-136.2" font-family="Times,serif" font-size="14.00" fill="#000000">GO:0044445</text>
<text text-anchor="middle" x="435.9804" y="-119.4" font-family="Times,serif" font-size="14.00" fill="#000000">cytosolic part</text>
</g>
<!-- GO:0005945&#45;&gt;GO:0044445 -->
<g id="edge4" class="edge">
<title>GO:0005945&#45;&gt;GO:0044445</title>
<path fill="none" stroke="#000000" d="M457.3836,-58.6584C453.4652,-72.0856 448.829,-87.9721 444.8752,-101.5204"/>
<polygon fill="#000000" stroke="#000000" points="441.4496,-100.7655 442.0079,-111.3456 448.1693,-102.7266 441.4496,-100.7655"/>
</g>
<!-- GO:0061695 -->
<g id="node7" class="node">
<title>GO:0061695</title>
<polygon fill="#ffffff" stroke="#000000" points="665.9882,-169.7003 511.9726,-169.7003 511.9726,-94.2997 665.9882,-94.2997 665.9882,-169.7003"/>
<text text-anchor="middle" x="588.9804" y="-153" font-family="Times,serif" font-size="14.00" fill="#000000">GO:0061695</text>
<text text-anchor="middle" x="588.9804" y="-136.2" font-family="Times,serif" font-size="14.00" fill="#000000">transferase complex,</text>
<text text-anchor="middle" x="588.9804" y="-119.4" font-family="Times,serif" font-size="14.00" fill="#000000">transferring phosphorus&#45;</text>
<text text-anchor="middle" x="588.9804" y="-102.6" font-family="Times,serif" font-size="14.00" fill="#000000">containing groups</text>
</g>
<!-- GO:0005945&#45;&gt;GO:0061695 -->
<g id="edge5" class="edge">
<title>GO:0005945&#45;&gt;GO:0061695</title>
<path fill="none" stroke="#000000" d="M501.2273,-58.6584C511.9554,-67.6247 523.9958,-77.6876 535.6389,-87.4187"/>
<polygon fill="#000000" stroke="#000000" points="533.6976,-90.3576 543.6151,-94.085 538.1866,-84.9865 533.6976,-90.3576"/>
</g>
<!-- GO:0044444 -->
<g id="node8" class="node">
<title>GO:0044444</title>
<polygon fill="#ffffff" stroke="#000000" points="412.397,-255.4019 303.5638,-255.4019 303.5638,-214.1981 412.397,-214.1981 412.397,-255.4019"/>
<text text-anchor="middle" x="357.9804" y="-239" font-family="Times,serif" font-size="14.00" fill="#000000">GO:0044444</text>
<text text-anchor="middle" x="357.9804" y="-222.2" font-family="Times,serif" font-size="14.00" fill="#000000">cytoplasmic part</text>
</g>
<!-- GO:0044445&#45;&gt;GO:0044444 -->
<g id="edge6" class="edge">
<title>GO:0044445&#45;&gt;GO:0044444</title>
<path fill="none" stroke="#000000" d="M420.1959,-152.8031C408.672,-167.991 392.8963,-188.7827 380.1143,-205.6287"/>
<polygon fill="#000000" stroke="#000000" points="376.9977,-203.9458 373.7414,-214.0278 382.5742,-208.177 376.9977,-203.9458"/>
</g>
<!-- GO:1990234 -->
<g id="node9" class="node">
<title>GO:1990234</title>
<polygon fill="#ffffff" stroke="#000000" points="666.3112,-255.4019 537.6496,-255.4019 537.6496,-214.1981 666.3112,-214.1981 666.3112,-255.4019"/>
<text text-anchor="middle" x="601.9804" y="-239" font-family="Times,serif" font-size="14.00" fill="#000000">GO:1990234</text>
<text text-anchor="middle" x="601.9804" y="-222.2" font-family="Times,serif" font-size="14.00" fill="#000000">transferase complex</text>
</g>
<!-- GO:0061695&#45;&gt;GO:1990234 -->
<g id="edge7" class="edge">
<title>GO:0061695&#45;&gt;GO:1990234</title>
<path fill="none" stroke="#000000" d="M593.7473,-169.6952C595.1712,-180.9552 596.7149,-193.1618 598.0766,-203.9299"/>
<polygon fill="#000000" stroke="#000000" points="594.6395,-204.6483 599.3665,-214.1302 601.5842,-203.7701 594.6395,-204.6483"/>
</g>
<!-- GO:0044444&#45;&gt;GO:0044424 -->
<g id="edge8" class="edge">
<title>GO:0044444&#45;&gt;GO:0044424</title>
<path fill="none" stroke="#000000" d="M355.8018,-255.6182C354.7184,-265.9705 353.3878,-278.6848 352.1903,-290.1271"/>
<polygon fill="#000000" stroke="#000000" points="348.6989,-289.8635 351.139,-300.1735 355.6609,-290.5921 348.6989,-289.8635"/>
</g>
<!-- GO:1902494 -->
<g id="node10" class="node">
<title>GO:1902494</title>
<polygon fill="#ffffff" stroke="#000000" points="659.6117,-341.4019 544.3491,-341.4019 544.3491,-300.1981 659.6117,-300.1981 659.6117,-341.4019"/>
<text text-anchor="middle" x="601.9804" y="-325" font-family="Times,serif" font-size="14.00" fill="#000000">GO:1902494</text>
<text text-anchor="middle" x="601.9804" y="-308.2" font-family="Times,serif" font-size="14.00" fill="#000000">catalytic complex</text>
</g>
<!-- GO:1990234&#45;&gt;GO:1902494 -->
<g id="edge9" class="edge">
<title>GO:1990234&#45;&gt;GO:1902494</title>
<path fill="none" stroke="#000000" d="M601.9804,-255.6182C601.9804,-265.9705 601.9804,-278.6848 601.9804,-290.1271"/>
<polygon fill="#000000" stroke="#000000" points="598.4805,-290.1735 601.9804,-300.1735 605.4805,-290.1735 598.4805,-290.1735"/>
</g>
<!-- GO:0043234 -->
<g id="node11" class="node">
<title>GO:0043234</title>
<polygon fill="#ffffff" stroke="#000000" points="655.8478,-419.0019 548.113,-419.0019 548.113,-377.7981 655.8478,-377.7981 655.8478,-419.0019"/>
<text text-anchor="middle" x="601.9804" y="-402.6" font-family="Times,serif" font-size="14.00" fill="#000000">GO:0043234</text>
<text text-anchor="middle" x="601.9804" y="-385.8" font-family="Times,serif" font-size="14.00" fill="#000000">protein complex</text>
</g>
<!-- GO:1902494&#45;&gt;GO:0043234 -->
<g id="edge10" class="edge">
<title>GO:1902494&#45;&gt;GO:0043234</title>
<path fill="none" stroke="#000000" d="M601.9804,-341.5954C601.9804,-349.5109 601.9804,-358.7109 601.9804,-367.3722"/>
<polygon fill="#000000" stroke="#000000" points="598.4805,-367.5472 601.9804,-377.5472 605.4805,-367.5473 598.4805,-367.5472"/>
</g>
<!-- GO:0032991 -->
<g id="node12" class="node">
<title>GO:0032991</title>
<polygon fill="#ffffff" stroke="#000000" points="681.1477,-496.6019 522.8131,-496.6019 522.8131,-455.3981 681.1477,-455.3981 681.1477,-496.6019"/>
<text text-anchor="middle" x="601.9804" y="-480.2" font-family="Times,serif" font-size="14.00" fill="#000000">GO:0032991</text>
<text text-anchor="middle" x="601.9804" y="-463.4" font-family="Times,serif" font-size="14.00" fill="#000000">macromolecular complex</text>
</g>
<!-- GO:0043234&#45;&gt;GO:0032991 -->
<g id="edge11" class="edge">
<title>GO:0043234&#45;&gt;GO:0032991</title>
<path fill="none" stroke="#000000" d="M601.9804,-419.1954C601.9804,-427.1109 601.9804,-436.3109 601.9804,-444.9722"/>
<polygon fill="#000000" stroke="#000000" points="598.4805,-445.1472 601.9804,-455.1472 605.4805,-445.1473 598.4805,-445.1472"/>
</g>
<!-- GO:0005739 -->
<g id="node13" class="node">
<title>GO:0005739</title>
<polygon fill="#ffffff" stroke="#000000" points="357.419,-49.8019 258.5418,-49.8019 258.5418,-8.5981 357.419,-8.5981 357.419,-49.8019"/>
<text text-anchor="middle" x="307.9804" y="-33.4" font-family="Times,serif" font-size="14.00" fill="#000000">GO:0005739</text>
<text text-anchor="middle" x="307.9804" y="-16.6" font-family="Times,serif" font-size="14.00" fill="#000000">mitochondrion</text>
</g>
<!-- GO:0005739&#45;&gt;GO:0044444 -->
<g id="edge12" class="edge">
<title>GO:0005739&#45;&gt;GO:0044444</title>
<path fill="none" stroke="#000000" d="M313.0498,-50.0455C321.9031,-86.4501 340.2192,-161.766 350.5223,-204.1321"/>
<polygon fill="#000000" stroke="#000000" points="347.1336,-205.0096 352.8976,-213.8994 353.9353,-203.3555 347.1336,-205.0096"/>
</g>
<!-- GO:0043231 -->
<g id="node14" class="node">
<title>GO:0043231</title>
<polygon fill="#ffffff" stroke="#000000" points="291.3592,-161.4014 140.6016,-161.4014 140.6016,-102.5986 291.3592,-102.5986 291.3592,-161.4014"/>
<text text-anchor="middle" x="215.9804" y="-144.6" font-family="Times,serif" font-size="14.00" fill="#000000">GO:0043231</text>
<text text-anchor="middle" x="215.9804" y="-127.8" font-family="Times,serif" font-size="14.00" fill="#000000">intracellular membrane&#45;</text>
<text text-anchor="middle" x="215.9804" y="-111" font-family="Times,serif" font-size="14.00" fill="#000000">bounded organelle</text>
</g>
<!-- GO:0005739&#45;&gt;GO:0043231 -->
<g id="edge13" class="edge">
<title>GO:0005739&#45;&gt;GO:0043231</title>
<path fill="none" stroke="#000000" d="M289.3628,-50.0031C277.8273,-62.8928 262.6795,-79.8188 249.1438,-94.9436"/>
<polygon fill="#000000" stroke="#000000" points="246.3008,-92.872 242.24,-102.6577 251.5169,-97.5401 246.3008,-92.872"/>
</g>
<!-- GO:0043229 -->
<g id="node15" class="node">
<title>GO:0043229</title>
<polygon fill="#ffffff" stroke="#000000" points="285.6988,-255.4019 146.262,-255.4019 146.262,-214.1981 285.6988,-214.1981 285.6988,-255.4019"/>
<text text-anchor="middle" x="215.9804" y="-239" font-family="Times,serif" font-size="14.00" fill="#000000">GO:0043229</text>
<text text-anchor="middle" x="215.9804" y="-222.2" font-family="Times,serif" font-size="14.00" fill="#000000">intracellular organelle</text>
</g>
<!-- GO:0043231&#45;&gt;GO:0043229 -->
<g id="edge14" class="edge">
<title>GO:0043231&#45;&gt;GO:0043229</title>
<path fill="none" stroke="#000000" d="M215.9804,-161.4584C215.9804,-174.7539 215.9804,-190.4608 215.9804,-203.9212"/>
<polygon fill="#000000" stroke="#000000" points="212.4805,-204.1456 215.9804,-214.1456 219.4805,-204.1457 212.4805,-204.1456"/>
</g>
<!-- GO:0043227 -->
<g id="node16" class="node">
<title>GO:0043227</title>
<polygon fill="#ffffff" stroke="#000000" points="127.9412,-264.2014 .0196,-264.2014 .0196,-205.3986 127.9412,-205.3986 127.9412,-264.2014"/>
<text text-anchor="middle" x="63.9804" y="-247.4" font-family="Times,serif" font-size="14.00" fill="#000000">GO:0043227</text>
<text text-anchor="middle" x="63.9804" y="-230.6" font-family="Times,serif" font-size="14.00" fill="#000000">membrane&#45;bounded</text>
<text text-anchor="middle" x="63.9804" y="-213.8" font-family="Times,serif" font-size="14.00" fill="#000000">organelle</text>
</g>
<!-- GO:0043231&#45;&gt;GO:0043227 -->
<g id="edge15" class="edge">
<title>GO:0043231&#45;&gt;GO:0043227</title>
<path fill="none" stroke="#000000" d="M172.4233,-161.4584C154.6979,-173.4464 134.0739,-187.3947 115.5996,-199.8891"/>
<polygon fill="#000000" stroke="#000000" points="113.6035,-197.0137 107.2809,-205.5152 117.5251,-202.8121 113.6035,-197.0137"/>
</g>
<!-- GO:0043229&#45;&gt;GO:0044424 -->
<g id="edge16" class="edge">
<title>GO:0043229&#45;&gt;GO:0044424</title>
<path fill="none" stroke="#000000" d="M248.176,-255.6182C266.3097,-267.3437 289.1298,-282.0996 308.4697,-294.6051"/>
<polygon fill="#000000" stroke="#000000" points="306.7834,-297.6827 317.0813,-300.1735 310.5844,-291.8045 306.7834,-297.6827"/>
</g>
<!-- GO:0043226 -->
<g id="node17" class="node">
<title>GO:0043226</title>
<polygon fill="#ffffff" stroke="#000000" points="260.5843,-341.4019 171.3765,-341.4019 171.3765,-300.1981 260.5843,-300.1981 260.5843,-341.4019"/>
<text text-anchor="middle" x="215.9804" y="-325" font-family="Times,serif" font-size="14.00" fill="#000000">GO:0043226</text>
<text text-anchor="middle" x="215.9804" y="-308.2" font-family="Times,serif" font-size="14.00" fill="#000000">organelle</text>
</g>
<!-- GO:0043229&#45;&gt;GO:0043226 -->
<g id="edge17" class="edge">
<title>GO:0043229&#45;&gt;GO:0043226</title>
<path fill="none" stroke="#000000" d="M215.9804,-255.6182C215.9804,-265.9705 215.9804,-278.6848 215.9804,-290.1271"/>
<polygon fill="#000000" stroke="#000000" points="212.4805,-290.1735 215.9804,-300.1735 219.4805,-290.1735 212.4805,-290.1735"/>
</g>
<!-- GO:0043227&#45;&gt;GO:0043226 -->
<g id="edge18" class="edge">
<title>GO:0043227&#45;&gt;GO:0043226</title>
<path fill="none" stroke="#000000" d="M115.865,-264.1558C133.5883,-274.1834 153.2634,-285.3154 170.448,-295.0383"/>
<polygon fill="#000000" stroke="#000000" points="168.7569,-298.1028 179.1839,-299.9809 172.204,-292.0103 168.7569,-298.1028"/>
</g>
<!-- GO:0043226&#45;&gt;GO:0005575 -->
<g id="edge19" class="edge">
<title>GO:0043226&#45;&gt;GO:0005575</title>
<path fill="none" stroke="#000000" d="M223.1512,-341.4094C232.4305,-368.0787 248.6738,-414.7633 259.3796,-445.5326"/>
<polygon fill="#000000" stroke="#000000" points="256.1881,-447.0109 262.78,-455.3054 262.7994,-444.7106 256.1881,-447.0109"/>
</g>
</g>
</svg>
