<?xml version="1.0" encoding="UTF-8" standalone="no"?>
<!DOCTYPE svg PUBLIC "-//W3C//DTD SVG 1.1//EN"
 "http://www.w3.org/Graphics/SVG/1.1/DTD/svg11.dtd">
<!-- Generated by graphviz version 2.40.1 (20161225.0304)
 -->
<!-- Title: G Pages: 1 -->
<svg width="970pt" height="660pt"
 viewBox="0.00 0.00 969.53 660.00" xmlns="http://www.w3.org/2000/svg" xmlns:xlink="http://www.w3.org/1999/xlink">
<g id="graph0" class="graph" transform="scale(1 1) rotate(0) translate(4 656)">
<title>G</title>
<polygon fill="#ffffff" stroke="transparent" points="-4,4 -4,-656 965.5323,-656 965.5323,4 -4,4"/>
<!-- GO:0009579 -->
<g id="node1" class="node">
<title>GO:0009579</title>
<polygon fill="#ffffff" stroke="#000000" points="619.1558,-410.6019 529.948,-410.6019 529.948,-369.3981 619.1558,-369.3981 619.1558,-410.6019"/>
<text text-anchor="middle" x="574.5519" y="-394.2" font-family="Times,serif" font-size="14.00" fill="#000000">GO:0009579</text>
<text text-anchor="middle" x="574.5519" y="-377.4" font-family="Times,serif" font-size="14.00" fill="#000000">thylakoid</text>
</g>
<!-- GO:0044424 -->
<g id="node2" class="node">
<title>GO:0044424</title>
<polygon fill="#ffffff" stroke="#000000" points="622.9503,-496.6019 514.1535,-496.6019 514.1535,-455.3981 622.9503,-455.3981 622.9503,-496.6019"/>
<text text-anchor="middle" x="568.5519" y="-480.2" font-family="Times,serif" font-size="14.00" fill="#000000">GO:0044424</text>
<text text-anchor="middle" x="568.5519" y="-463.4" font-family="Times,serif" font-size="14.00" fill="#000000">intracellular part</text>
</g>
<!-- GO:0009579&#45;&gt;GO:0044424 -->
<g id="edge1" class="edge">
<title>GO:0009579&#45;&gt;GO:0044424</title>
<path fill="none" stroke="#000000" d="M573.0995,-410.8182C572.3772,-421.1705 571.4902,-433.8848 570.6919,-445.3271"/>
<polygon fill="#000000" stroke="#000000" points="567.1955,-445.1541 569.991,-455.3735 574.1785,-445.6414 567.1955,-445.1541"/>
</g>
<!-- GO:0044464 -->
<g id="node3" class="node">
<title>GO:0044464</title>
<polygon fill="#ffffff" stroke="#000000" points="587.1558,-574.2019 497.948,-574.2019 497.948,-532.9981 587.1558,-532.9981 587.1558,-574.2019"/>
<text text-anchor="middle" x="542.5519" y="-557.8" font-family="Times,serif" font-size="14.00" fill="#000000">GO:0044464</text>
<text text-anchor="middle" x="542.5519" y="-541" font-family="Times,serif" font-size="14.00" fill="#000000">cell part</text>
</g>
<!-- GO:0044424&#45;&gt;GO:0044464 -->
<g id="edge2" class="edge">
<title>GO:0044424&#45;&gt;GO:0044464</title>
<path fill="none" stroke="#000000" d="M561.5844,-496.7954C558.874,-504.8848 555.7141,-514.3159 552.7568,-523.1424"/>
<polygon fill="#000000" stroke="#000000" points="549.397,-522.1533 549.5387,-532.7472 556.0343,-524.3772 549.397,-522.1533"/>
</g>
<!-- GO:0005575 -->
<g id="node4" class="node">
<title>GO:0005575</title>
<polygon fill="#ffffff" stroke="#000000" points="506.2386,-651.8019 378.8652,-651.8019 378.8652,-610.5981 506.2386,-610.5981 506.2386,-651.8019"/>
<text text-anchor="middle" x="442.5519" y="-635.4" font-family="Times,serif" font-size="14.00" fill="#000000">GO:0005575</text>
<text text-anchor="middle" x="442.5519" y="-618.6" font-family="Times,serif" font-size="14.00" fill="#000000">cellular_component</text>
</g>
<!-- GO:0044464&#45;&gt;GO:0005575 -->
<g id="edge3" class="edge">
<title>GO:0044464&#45;&gt;GO:0005575</title>
<path fill="none" stroke="#000000" d="M515.7537,-574.3954C503.9841,-583.5286 490.0105,-594.3721 477.4427,-604.1248"/>
<polygon fill="#000000" stroke="#000000" points="475.1786,-601.4514 469.424,-610.3472 479.4701,-606.9817 475.1786,-601.4514"/>
</g>
<!-- GO:0009535 -->
<g id="node5" class="node">
<title>GO:0009535</title>
<polygon fill="#ffffff" stroke="#000000" points="446.6451,-58.6014 312.4587,-58.6014 312.4587,.2014 446.6451,.2014 446.6451,-58.6014"/>
<text text-anchor="middle" x="379.5519" y="-41.8" font-family="Times,serif" font-size="14.00" fill="#000000">GO:0009535</text>
<text text-anchor="middle" x="379.5519" y="-25" font-family="Times,serif" font-size="14.00" fill="#000000">chloroplast thylakoid</text>
<text text-anchor="middle" x="379.5519" y="-8.2" font-family="Times,serif" font-size="14.00" fill="#000000">membrane</text>
</g>
<!-- GO:0055035 -->
<g id="node6" class="node">
<title>GO:0055035</title>
<polygon fill="#ffffff" stroke="#000000" points="372.2697,-153.0014 262.8341,-153.0014 262.8341,-94.1986 372.2697,-94.1986 372.2697,-153.0014"/>
<text text-anchor="middle" x="317.5519" y="-136.2" font-family="Times,serif" font-size="14.00" fill="#000000">GO:0055035</text>
<text text-anchor="middle" x="317.5519" y="-119.4" font-family="Times,serif" font-size="14.00" fill="#000000">plastid thylakoid</text>
<text text-anchor="middle" x="317.5519" y="-102.6" font-family="Times,serif" font-size="14.00" fill="#000000">membrane</text>
</g>
<!-- GO:0009535&#45;&gt;GO:0055035 -->
<g id="edge4" class="edge">
<title>GO:0009535&#45;&gt;GO:0055035</title>
<path fill="none" stroke="#000000" d="M360.2746,-58.5513C354.6175,-67.1646 348.3497,-76.7078 342.3973,-85.7708"/>
<polygon fill="#000000" stroke="#000000" points="339.3815,-83.987 336.8173,-94.2669 345.2325,-87.8298 339.3815,-83.987"/>
</g>
<!-- GO:0044434 -->
<g id="node7" class="node">
<title>GO:0044434</title>
<polygon fill="#ffffff" stroke="#000000" points="494.525,-144.2019 390.5788,-144.2019 390.5788,-102.9981 494.525,-102.9981 494.525,-144.2019"/>
<text text-anchor="middle" x="442.5519" y="-127.8" font-family="Times,serif" font-size="14.00" fill="#000000">GO:0044434</text>
<text text-anchor="middle" x="442.5519" y="-111" font-family="Times,serif" font-size="14.00" fill="#000000">chloroplast part</text>
</g>
<!-- GO:0009535&#45;&gt;GO:0044434 -->
<g id="edge5" class="edge">
<title>GO:0009535&#45;&gt;GO:0044434</title>
<path fill="none" stroke="#000000" d="M399.1402,-58.5513C406.7966,-70.0238 415.5542,-83.1462 423.1888,-94.5861"/>
<polygon fill="#000000" stroke="#000000" points="420.309,-96.5761 428.7713,-102.951 426.1314,-92.6903 420.309,-96.5761"/>
</g>
<!-- GO:0042651 -->
<g id="node8" class="node">
<title>GO:0042651</title>
<polygon fill="#ffffff" stroke="#000000" points="236.5248,-230.2019 104.579,-230.2019 104.579,-188.9981 236.5248,-188.9981 236.5248,-230.2019"/>
<text text-anchor="middle" x="170.5519" y="-213.8" font-family="Times,serif" font-size="14.00" fill="#000000">GO:0042651</text>
<text text-anchor="middle" x="170.5519" y="-197" font-family="Times,serif" font-size="14.00" fill="#000000">thylakoid membrane</text>
</g>
<!-- GO:0055035&#45;&gt;GO:0042651 -->
<g id="edge6" class="edge">
<title>GO:0055035&#45;&gt;GO:0042651</title>
<path fill="none" stroke="#000000" d="M267.374,-152.9558C250.391,-162.8914 231.5548,-173.9112 215.0445,-183.5703"/>
<polygon fill="#000000" stroke="#000000" points="213.002,-180.7102 206.138,-188.7809 216.5368,-186.7522 213.002,-180.7102"/>
</g>
<!-- GO:0044435 -->
<g id="node9" class="node">
<title>GO:0044435</title>
<polygon fill="#ffffff" stroke="#000000" points="487.1558,-230.2019 397.948,-230.2019 397.948,-188.9981 487.1558,-188.9981 487.1558,-230.2019"/>
<text text-anchor="middle" x="442.5519" y="-213.8" font-family="Times,serif" font-size="14.00" fill="#000000">GO:0044435</text>
<text text-anchor="middle" x="442.5519" y="-197" font-family="Times,serif" font-size="14.00" fill="#000000">plastid part</text>
</g>
<!-- GO:0055035&#45;&gt;GO:0044435 -->
<g id="edge7" class="edge">
<title>GO:0055035&#45;&gt;GO:0044435</title>
<path fill="none" stroke="#000000" d="M360.2202,-152.9558C374.3941,-162.7074 390.086,-173.5035 403.9361,-183.0323"/>
<polygon fill="#000000" stroke="#000000" points="402.0693,-185.9963 412.2916,-188.7809 406.037,-180.2293 402.0693,-185.9963"/>
</g>
<!-- GO:0044434&#45;&gt;GO:0044435 -->
<g id="edge8" class="edge">
<title>GO:0044434&#45;&gt;GO:0044435</title>
<path fill="none" stroke="#000000" d="M442.5519,-144.4182C442.5519,-154.7705 442.5519,-167.4848 442.5519,-178.9271"/>
<polygon fill="#000000" stroke="#000000" points="439.052,-178.9735 442.5519,-188.9735 446.052,-178.9735 439.052,-178.9735"/>
</g>
<!-- GO:0034357 -->
<g id="node10" class="node">
<title>GO:0034357</title>
<polygon fill="#ffffff" stroke="#000000" points="245.0737,-316.2019 84.0301,-316.2019 84.0301,-274.9981 245.0737,-274.9981 245.0737,-316.2019"/>
<text text-anchor="middle" x="164.5519" y="-299.8" font-family="Times,serif" font-size="14.00" fill="#000000">GO:0034357</text>
<text text-anchor="middle" x="164.5519" y="-283" font-family="Times,serif" font-size="14.00" fill="#000000">photosynthetic membrane</text>
</g>
<!-- GO:0042651&#45;&gt;GO:0034357 -->
<g id="edge9" class="edge">
<title>GO:0042651&#45;&gt;GO:0034357</title>
<path fill="none" stroke="#000000" d="M169.0995,-230.4182C168.3772,-240.7705 167.4902,-253.4848 166.6919,-264.9271"/>
<polygon fill="#000000" stroke="#000000" points="163.1955,-264.7541 165.991,-274.9735 170.1785,-265.2414 163.1955,-264.7541"/>
</g>
<!-- GO:0044446 -->
<g id="node11" class="node">
<title>GO:0044446</title>
<polygon fill="#ffffff" stroke="#000000" points="512.2703,-419.4014 372.8335,-419.4014 372.8335,-360.5986 512.2703,-360.5986 512.2703,-419.4014"/>
<text text-anchor="middle" x="442.5519" y="-402.6" font-family="Times,serif" font-size="14.00" fill="#000000">GO:0044446</text>
<text text-anchor="middle" x="442.5519" y="-385.8" font-family="Times,serif" font-size="14.00" fill="#000000">intracellular organelle</text>
<text text-anchor="middle" x="442.5519" y="-369" font-family="Times,serif" font-size="14.00" fill="#000000">part</text>
</g>
<!-- GO:0044435&#45;&gt;GO:0044446 -->
<g id="edge10" class="edge">
<title>GO:0044435&#45;&gt;GO:0044446</title>
<path fill="none" stroke="#000000" d="M442.5519,-230.2942C442.5519,-259.4393 442.5519,-313.1498 442.5519,-350.1813"/>
<polygon fill="#000000" stroke="#000000" points="439.052,-350.6204 442.5519,-360.6204 446.052,-350.6204 439.052,-350.6204"/>
</g>
<!-- GO:0044444 -->
<g id="node12" class="node">
<title>GO:0044444</title>
<polygon fill="#ffffff" stroke="#000000" points="676.9685,-316.2019 568.1353,-316.2019 568.1353,-274.9981 676.9685,-274.9981 676.9685,-316.2019"/>
<text text-anchor="middle" x="622.5519" y="-299.8" font-family="Times,serif" font-size="14.00" fill="#000000">GO:0044444</text>
<text text-anchor="middle" x="622.5519" y="-283" font-family="Times,serif" font-size="14.00" fill="#000000">cytoplasmic part</text>
</g>
<!-- GO:0044435&#45;&gt;GO:0044444 -->
<g id="edge11" class="edge">
<title>GO:0044435&#45;&gt;GO:0044444</title>
<path fill="none" stroke="#000000" d="M486.1249,-230.4182C511.4405,-242.5135 543.505,-257.8332 570.1869,-270.5812"/>
<polygon fill="#000000" stroke="#000000" points="568.8483,-273.8205 579.3802,-274.9735 571.866,-267.5044 568.8483,-273.8205"/>
</g>
<!-- GO:0016020 -->
<g id="node13" class="node">
<title>GO:0016020</title>
<polygon fill="#ffffff" stroke="#000000" points="89.1558,-574.2019 -.052,-574.2019 -.052,-532.9981 89.1558,-532.9981 89.1558,-574.2019"/>
<text text-anchor="middle" x="44.5519" y="-557.8" font-family="Times,serif" font-size="14.00" fill="#000000">GO:0016020</text>
<text text-anchor="middle" x="44.5519" y="-541" font-family="Times,serif" font-size="14.00" fill="#000000">membrane</text>
</g>
<!-- GO:0034357&#45;&gt;GO:0016020 -->
<g id="edge12" class="edge">
<title>GO:0034357&#45;&gt;GO:0016020</title>
<path fill="none" stroke="#000000" d="M114.3486,-316.3405C95.2871,-326.813 75.3475,-341.4697 63.5519,-360.8 32.9144,-411.0079 35.2679,-482.5868 39.8364,-522.9116"/>
<polygon fill="#000000" stroke="#000000" points="36.3762,-523.4485 41.0922,-532.9358 43.3219,-522.5783 36.3762,-523.4485"/>
</g>
<!-- GO:0044436 -->
<g id="node14" class="node">
<title>GO:0044436</title>
<polygon fill="#ffffff" stroke="#000000" points="354.7042,-410.6019 260.3996,-410.6019 260.3996,-369.3981 354.7042,-369.3981 354.7042,-410.6019"/>
<text text-anchor="middle" x="307.5519" y="-394.2" font-family="Times,serif" font-size="14.00" fill="#000000">GO:0044436</text>
<text text-anchor="middle" x="307.5519" y="-377.4" font-family="Times,serif" font-size="14.00" fill="#000000">thylakoid part</text>
</g>
<!-- GO:0034357&#45;&gt;GO:0044436 -->
<g id="edge13" class="edge">
<title>GO:0034357&#45;&gt;GO:0044436</title>
<path fill="none" stroke="#000000" d="M195.9339,-316.3165C217.0755,-330.2729 245.1361,-348.7968 267.8327,-363.7798"/>
<polygon fill="#000000" stroke="#000000" points="265.9693,-366.7435 276.2431,-369.3318 269.8258,-360.9016 265.9693,-366.7435"/>
</g>
<!-- GO:0044446&#45;&gt;GO:0044424 -->
<g id="edge14" class="edge">
<title>GO:0044446&#45;&gt;GO:0044424</title>
<path fill="none" stroke="#000000" d="M485.5615,-419.3558C499.8488,-429.1074 515.6663,-439.9035 529.6271,-449.4323"/>
<polygon fill="#000000" stroke="#000000" points="527.8169,-452.4343 538.0496,-455.1809 531.7632,-446.6526 527.8169,-452.4343"/>
</g>
<!-- GO:0044422 -->
<g id="node15" class="node">
<title>GO:0044422</title>
<polygon fill="#ffffff" stroke="#000000" points="489.404,-496.6019 395.6998,-496.6019 395.6998,-455.3981 489.404,-455.3981 489.404,-496.6019"/>
<text text-anchor="middle" x="442.5519" y="-480.2" font-family="Times,serif" font-size="14.00" fill="#000000">GO:0044422</text>
<text text-anchor="middle" x="442.5519" y="-463.4" font-family="Times,serif" font-size="14.00" fill="#000000">organelle part</text>
</g>
<!-- GO:0044446&#45;&gt;GO:0044422 -->
<g id="edge15" class="edge">
<title>GO:0044446&#45;&gt;GO:0044422</title>
<path fill="none" stroke="#000000" d="M442.5519,-419.5963C442.5519,-427.8638 442.5519,-436.8657 442.5519,-445.2008"/>
<polygon fill="#000000" stroke="#000000" points="439.052,-445.2965 442.5519,-455.2966 446.052,-445.2966 439.052,-445.2965"/>
</g>
<!-- GO:0044444&#45;&gt;GO:0044424 -->
<g id="edge16" class="edge">
<title>GO:0044444&#45;&gt;GO:0044424</title>
<path fill="none" stroke="#000000" d="M628.9,-316.2695C635.5184,-341.6432 643.074,-385.4552 628.5519,-419.2 623.8155,-430.2058 615.782,-440.0767 607.1073,-448.3816"/>
<polygon fill="#000000" stroke="#000000" points="604.5207,-445.9986 599.3857,-455.2658 609.1791,-451.2235 604.5207,-445.9986"/>
</g>
<!-- GO:0016020&#45;&gt;GO:0005575 -->
<g id="edge17" class="edge">
<title>GO:0016020&#45;&gt;GO:0005575</title>
<path fill="none" stroke="#000000" d="M89.1065,-571.5676C92.2795,-572.5979 95.4498,-573.556 98.5519,-574.4 190.1284,-599.3167 298.5673,-615.0185 368.8628,-623.4465"/>
<polygon fill="#000000" stroke="#000000" points="368.6096,-626.9408 378.951,-624.6374 369.4303,-619.9891 368.6096,-626.9408"/>
</g>
<!-- GO:0044436&#45;&gt;GO:0044424 -->
<g id="edge18" class="edge">
<title>GO:0044436&#45;&gt;GO:0044424</title>
<path fill="none" stroke="#000000" d="M344.3722,-410.6494C350.6636,-413.7555 357.2155,-416.7378 363.5519,-419.2 421.4324,-441.6912 438.7837,-438.3547 498.5519,-455.2 500.428,-455.7288 502.3313,-456.2691 504.2517,-456.8176"/>
<polygon fill="#000000" stroke="#000000" points="503.3715,-460.2063 513.9498,-459.6134 505.3106,-453.4802 503.3715,-460.2063"/>
</g>
<!-- GO:0044422&#45;&gt;GO:0005575 -->
<g id="edge19" class="edge">
<title>GO:0044422&#45;&gt;GO:0005575</title>
<path fill="none" stroke="#000000" d="M442.5519,-496.6094C442.5519,-523.1627 442.5519,-569.5577 442.5519,-600.3304"/>
<polygon fill="#000000" stroke="#000000" points="439.052,-600.5054 442.5519,-610.5054 446.052,-600.5054 439.052,-600.5054"/>
</g>
<!-- GO:0009522 -->
<g id="node16" class="node">
<title>GO:0009522</title>
<polygon fill="#ffffff" stroke="#000000" points="354.9881,-230.2019 260.1157,-230.2019 260.1157,-188.9981 354.9881,-188.9981 354.9881,-230.2019"/>
<text text-anchor="middle" x="307.5519" y="-213.8" font-family="Times,serif" font-size="14.00" fill="#000000">GO:0009522</text>
<text text-anchor="middle" x="307.5519" y="-197" font-family="Times,serif" font-size="14.00" fill="#000000">photosystem I</text>
</g>
<!-- GO:0009521 -->
<g id="node17" class="node">
<title>GO:0009521</title>
<polygon fill="#ffffff" stroke="#000000" points="352.1558,-316.2019 262.948,-316.2019 262.948,-274.9981 352.1558,-274.9981 352.1558,-316.2019"/>
<text text-anchor="middle" x="307.5519" y="-299.8" font-family="Times,serif" font-size="14.00" fill="#000000">GO:0009521</text>
<text text-anchor="middle" x="307.5519" y="-283" font-family="Times,serif" font-size="14.00" fill="#000000">photosystem</text>
</g>
<!-- GO:0009522&#45;&gt;GO:0009521 -->
<g id="edge20" class="edge">
<title>GO:0009522&#45;&gt;GO:0009521</title>
<path fill="none" stroke="#000000" d="M307.5519,-230.4182C307.5519,-240.7705 307.5519,-253.4848 307.5519,-264.9271"/>
<polygon fill="#000000" stroke="#000000" points="304.052,-264.9735 307.5519,-274.9735 311.052,-264.9735 304.052,-264.9735"/>
</g>
<!-- GO:0009521&#45;&gt;GO:0044436 -->
<g id="edge22" class="edge">
<title>GO:0009521&#45;&gt;GO:0044436</title>
<path fill="none" stroke="#000000" d="M307.5519,-316.5504C307.5519,-329.0165 307.5519,-345.0645 307.5519,-358.9786"/>
<polygon fill="#000000" stroke="#000000" points="304.052,-359.1081 307.5519,-369.1081 311.052,-359.1082 304.052,-359.1081"/>
</g>
<!-- GO:0098796 -->
<g id="node18" class="node">
<title>GO:0098796</title>
<polygon fill="#ffffff" stroke="#000000" points="242.5043,-410.6019 72.5995,-410.6019 72.5995,-369.3981 242.5043,-369.3981 242.5043,-410.6019"/>
<text text-anchor="middle" x="157.5519" y="-394.2" font-family="Times,serif" font-size="14.00" fill="#000000">GO:0098796</text>
<text text-anchor="middle" x="157.5519" y="-377.4" font-family="Times,serif" font-size="14.00" fill="#000000">membrane protein complex</text>
</g>
<!-- GO:0009521&#45;&gt;GO:0098796 -->
<g id="edge21" class="edge">
<title>GO:0009521&#45;&gt;GO:0098796</title>
<path fill="none" stroke="#000000" d="M274.6338,-316.3165C252.3595,-330.3344 222.7636,-348.9601 198.9011,-363.9776"/>
<polygon fill="#000000" stroke="#000000" points="196.9925,-361.0432 190.3932,-369.3318 200.721,-366.9677 196.9925,-361.0432"/>
</g>
<!-- GO:0043234 -->
<g id="node19" class="node">
<title>GO:0043234</title>
<polygon fill="#ffffff" stroke="#000000" points="225.4193,-496.6019 117.6845,-496.6019 117.6845,-455.3981 225.4193,-455.3981 225.4193,-496.6019"/>
<text text-anchor="middle" x="171.5519" y="-480.2" font-family="Times,serif" font-size="14.00" fill="#000000">GO:0043234</text>
<text text-anchor="middle" x="171.5519" y="-463.4" font-family="Times,serif" font-size="14.00" fill="#000000">protein complex</text>
</g>
<!-- GO:0098796&#45;&gt;GO:0043234 -->
<g id="edge23" class="edge">
<title>GO:0098796&#45;&gt;GO:0043234</title>
<path fill="none" stroke="#000000" d="M160.9409,-410.8182C162.6262,-421.1705 164.6959,-433.8848 166.5586,-445.3271"/>
<polygon fill="#000000" stroke="#000000" points="163.1327,-446.0658 168.1941,-455.3735 170.0418,-444.941 163.1327,-446.0658"/>
</g>
<!-- GO:0044425 -->
<g id="node20" class="node">
<title>GO:0044425</title>
<polygon fill="#ffffff" stroke="#000000" points="399.9039,-574.2019 299.1999,-574.2019 299.1999,-532.9981 399.9039,-532.9981 399.9039,-574.2019"/>
<text text-anchor="middle" x="349.5519" y="-557.8" font-family="Times,serif" font-size="14.00" fill="#000000">GO:0044425</text>
<text text-anchor="middle" x="349.5519" y="-541" font-family="Times,serif" font-size="14.00" fill="#000000">membrane part</text>
</g>
<!-- GO:0098796&#45;&gt;GO:0044425 -->
<g id="edge24" class="edge">
<title>GO:0098796&#45;&gt;GO:0044425</title>
<path fill="none" stroke="#000000" d="M182.2004,-410.8157C197.3247,-423.602 217.0781,-440.3264 234.5519,-455.2 262.6532,-479.1196 294.5323,-506.4093 317.5869,-526.1725"/>
<polygon fill="#000000" stroke="#000000" points="315.4831,-528.979 325.3528,-532.8312 320.0395,-523.665 315.4831,-528.979"/>
</g>
<!-- GO:0032991 -->
<g id="node21" class="node">
<title>GO:0032991</title>
<polygon fill="#ffffff" stroke="#000000" points="265.7192,-574.2019 107.3846,-574.2019 107.3846,-532.9981 265.7192,-532.9981 265.7192,-574.2019"/>
<text text-anchor="middle" x="186.5519" y="-557.8" font-family="Times,serif" font-size="14.00" fill="#000000">GO:0032991</text>
<text text-anchor="middle" x="186.5519" y="-541" font-family="Times,serif" font-size="14.00" fill="#000000">macromolecular complex</text>
</g>
<!-- GO:0043234&#45;&gt;GO:0032991 -->
<g id="edge25" class="edge">
<title>GO:0043234&#45;&gt;GO:0032991</title>
<path fill="none" stroke="#000000" d="M175.5716,-496.7954C177.1185,-504.7978 178.9192,-514.1133 180.6094,-522.8575"/>
<polygon fill="#000000" stroke="#000000" points="177.1868,-523.5932 182.5211,-532.7472 184.0595,-522.2647 177.1868,-523.5932"/>
</g>
<!-- GO:0044425&#45;&gt;GO:0005575 -->
<g id="edge26" class="edge">
<title>GO:0044425&#45;&gt;GO:0005575</title>
<path fill="none" stroke="#000000" d="M374.4742,-574.3954C385.3157,-583.4416 398.168,-594.1657 409.7692,-603.8458"/>
<polygon fill="#000000" stroke="#000000" points="407.6403,-606.6278 417.5608,-610.3472 412.125,-601.2531 407.6403,-606.6278"/>
</g>
<!-- GO:0009507 -->
<g id="node22" class="node">
<title>GO:0009507</title>
<polygon fill="#ffffff" stroke="#000000" points="741.1558,-144.2019 651.948,-144.2019 651.948,-102.9981 741.1558,-102.9981 741.1558,-144.2019"/>
<text text-anchor="middle" x="696.5519" y="-127.8" font-family="Times,serif" font-size="14.00" fill="#000000">GO:0009507</text>
<text text-anchor="middle" x="696.5519" y="-111" font-family="Times,serif" font-size="14.00" fill="#000000">chloroplast</text>
</g>
<!-- GO:0009536 -->
<g id="node23" class="node">
<title>GO:0009536</title>
<polygon fill="#ffffff" stroke="#000000" points="741.1558,-230.2019 651.948,-230.2019 651.948,-188.9981 741.1558,-188.9981 741.1558,-230.2019"/>
<text text-anchor="middle" x="696.5519" y="-213.8" font-family="Times,serif" font-size="14.00" fill="#000000">GO:0009536</text>
<text text-anchor="middle" x="696.5519" y="-197" font-family="Times,serif" font-size="14.00" fill="#000000">plastid</text>
</g>
<!-- GO:0009507&#45;&gt;GO:0009536 -->
<g id="edge27" class="edge">
<title>GO:0009507&#45;&gt;GO:0009536</title>
<path fill="none" stroke="#000000" d="M696.5519,-144.4182C696.5519,-154.7705 696.5519,-167.4848 696.5519,-178.9271"/>
<polygon fill="#000000" stroke="#000000" points="693.052,-178.9735 696.5519,-188.9735 700.052,-178.9735 693.052,-178.9735"/>
</g>
<!-- GO:0009536&#45;&gt;GO:0044444 -->
<g id="edge28" class="edge">
<title>GO:0009536&#45;&gt;GO:0044444</title>
<path fill="none" stroke="#000000" d="M678.6386,-230.4182C669.0945,-241.5099 657.2173,-255.3132 646.8529,-267.3583"/>
<polygon fill="#000000" stroke="#000000" points="644.1697,-265.1105 640.3003,-274.9735 649.4758,-269.6762 644.1697,-265.1105"/>
</g>
<!-- GO:0043231 -->
<g id="node24" class="node">
<title>GO:0043231</title>
<polygon fill="#ffffff" stroke="#000000" points="845.9307,-325.0014 695.1731,-325.0014 695.1731,-266.1986 845.9307,-266.1986 845.9307,-325.0014"/>
<text text-anchor="middle" x="770.5519" y="-308.2" font-family="Times,serif" font-size="14.00" fill="#000000">GO:0043231</text>
<text text-anchor="middle" x="770.5519" y="-291.4" font-family="Times,serif" font-size="14.00" fill="#000000">intracellular membrane&#45;</text>
<text text-anchor="middle" x="770.5519" y="-274.6" font-family="Times,serif" font-size="14.00" fill="#000000">bounded organelle</text>
</g>
<!-- GO:0009536&#45;&gt;GO:0043231 -->
<g id="edge29" class="edge">
<title>GO:0009536&#45;&gt;GO:0043231</title>
<path fill="none" stroke="#000000" d="M714.4652,-230.4182C721.7556,-238.8908 730.4074,-248.9456 738.7063,-258.5903"/>
<polygon fill="#000000" stroke="#000000" points="736.078,-260.9019 745.2535,-266.1991 741.3841,-256.3362 736.078,-260.9019"/>
</g>
<!-- GO:0043229 -->
<g id="node25" class="node">
<title>GO:0043229</title>
<polygon fill="#ffffff" stroke="#000000" points="815.2703,-410.6019 675.8335,-410.6019 675.8335,-369.3981 815.2703,-369.3981 815.2703,-410.6019"/>
<text text-anchor="middle" x="745.5519" y="-394.2" font-family="Times,serif" font-size="14.00" fill="#000000">GO:0043229</text>
<text text-anchor="middle" x="745.5519" y="-377.4" font-family="Times,serif" font-size="14.00" fill="#000000">intracellular organelle</text>
</g>
<!-- GO:0043231&#45;&gt;GO:0043229 -->
<g id="edge30" class="edge">
<title>GO:0043231&#45;&gt;GO:0043229</title>
<path fill="none" stroke="#000000" d="M762.7788,-324.9513C759.8597,-335.9739 756.5372,-348.5196 753.5941,-359.6326"/>
<polygon fill="#000000" stroke="#000000" points="750.1971,-358.7882 751.0204,-369.351 756.9639,-360.5803 750.1971,-358.7882"/>
</g>
<!-- GO:0043227 -->
<g id="node26" class="node">
<title>GO:0043227</title>
<polygon fill="#ffffff" stroke="#000000" points="961.5127,-419.4014 833.5911,-419.4014 833.5911,-360.5986 961.5127,-360.5986 961.5127,-419.4014"/>
<text text-anchor="middle" x="897.5519" y="-402.6" font-family="Times,serif" font-size="14.00" fill="#000000">GO:0043227</text>
<text text-anchor="middle" x="897.5519" y="-385.8" font-family="Times,serif" font-size="14.00" fill="#000000">membrane&#45;bounded</text>
<text text-anchor="middle" x="897.5519" y="-369" font-family="Times,serif" font-size="14.00" fill="#000000">organelle</text>
</g>
<!-- GO:0043231&#45;&gt;GO:0043227 -->
<g id="edge31" class="edge">
<title>GO:0043231&#45;&gt;GO:0043227</title>
<path fill="none" stroke="#000000" d="M810.0393,-324.9513C822.7023,-334.3637 836.8593,-344.8867 850.0345,-354.68"/>
<polygon fill="#000000" stroke="#000000" points="847.9752,-357.5103 858.0889,-360.6669 852.1511,-351.8923 847.9752,-357.5103"/>
</g>
<!-- GO:0043229&#45;&gt;GO:0044424 -->
<g id="edge32" class="edge">
<title>GO:0043229&#45;&gt;GO:0044424</title>
<path fill="none" stroke="#000000" d="M702.7051,-410.8182C677.8114,-422.9135 646.2813,-438.2332 620.0442,-450.9812"/>
<polygon fill="#000000" stroke="#000000" points="618.469,-447.8552 611.0041,-455.3735 621.5282,-454.1513 618.469,-447.8552"/>
</g>
<!-- GO:0043226 -->
<g id="node27" class="node">
<title>GO:0043226</title>
<polygon fill="#ffffff" stroke="#000000" points="790.1558,-496.6019 700.948,-496.6019 700.948,-455.3981 790.1558,-455.3981 790.1558,-496.6019"/>
<text text-anchor="middle" x="745.5519" y="-480.2" font-family="Times,serif" font-size="14.00" fill="#000000">GO:0043226</text>
<text text-anchor="middle" x="745.5519" y="-463.4" font-family="Times,serif" font-size="14.00" fill="#000000">organelle</text>
</g>
<!-- GO:0043229&#45;&gt;GO:0043226 -->
<g id="edge33" class="edge">
<title>GO:0043229&#45;&gt;GO:0043226</title>
<path fill="none" stroke="#000000" d="M745.5519,-410.8182C745.5519,-421.1705 745.5519,-433.8848 745.5519,-445.3271"/>
<polygon fill="#000000" stroke="#000000" points="742.052,-445.3735 745.5519,-455.3735 749.052,-445.3735 742.052,-445.3735"/>
</g>
<!-- GO:0043227&#45;&gt;GO:0043226 -->
<g id="edge34" class="edge">
<title>GO:0043227&#45;&gt;GO:0043226</title>
<path fill="none" stroke="#000000" d="M845.6673,-419.3558C827.944,-429.3834 808.2689,-440.5154 791.0843,-450.2383"/>
<polygon fill="#000000" stroke="#000000" points="789.3283,-447.2103 782.3484,-455.1809 792.7754,-453.3028 789.3283,-447.2103"/>
</g>
<!-- GO:0043226&#45;&gt;GO:0005575 -->
<g id="edge35" class="edge">
<title>GO:0043226&#45;&gt;GO:0005575</title>
<path fill="none" stroke="#000000" d="M718.4298,-496.6873C689.4203,-518.1361 641.4987,-551.6532 596.5519,-574.4 571.1879,-587.2363 542.2073,-598.6934 516.2799,-607.8971"/>
<polygon fill="#000000" stroke="#000000" points="514.792,-604.7095 506.5064,-611.3124 517.1012,-611.3176 514.792,-604.7095"/>
</g>
</g>
</svg>
