<?xml version="1.0" encoding="UTF-8" standalone="no"?>
<!DOCTYPE svg PUBLIC "-//W3C//DTD SVG 1.1//EN"
 "http://www.w3.org/Graphics/SVG/1.1/DTD/svg11.dtd">
<!-- Generated by graphviz version 2.40.1 (20161225.0304)
 -->
<!-- Title: G Pages: 1 -->
<svg width="395pt" height="410pt"
 viewBox="0.00 0.00 395.46 410.40" xmlns="http://www.w3.org/2000/svg" xmlns:xlink="http://www.w3.org/1999/xlink">
<g id="graph0" class="graph" transform="scale(1 1) rotate(0) translate(4 406.4)">
<title>G</title>
<polygon fill="#ffffff" stroke="transparent" points="-4,4 -4,-406.4 391.4615,-406.4 391.4615,4 -4,4"/>
<!-- GO:0004016 -->
<g id="node1" class="node">
<title>GO:0004016</title>
<polygon fill="#ffffff" stroke="#000000" points="161.6763,-58.6014 47.0089,-58.6014 47.0089,.2014 161.6763,.2014 161.6763,-58.6014"/>
<text text-anchor="middle" x="104.3426" y="-41.8" font-family="Times,serif" font-size="14.00" fill="#000000">GO:0004016</text>
<text text-anchor="middle" x="104.3426" y="-25" font-family="Times,serif" font-size="14.00" fill="#000000">adenylate cyclase</text>
<text text-anchor="middle" x="104.3426" y="-8.2" font-family="Times,serif" font-size="14.00" fill="#000000">activity</text>
</g>
<!-- GO:0009975 -->
<g id="node2" class="node">
<title>GO:0009975</title>
<polygon fill="#ffffff" stroke="#000000" points="102.5283,-247.0019 .1569,-247.0019 .1569,-205.7981 102.5283,-205.7981 102.5283,-247.0019"/>
<text text-anchor="middle" x="51.3426" y="-230.6" font-family="Times,serif" font-size="14.00" fill="#000000">GO:0009975</text>
<text text-anchor="middle" x="51.3426" y="-213.8" font-family="Times,serif" font-size="14.00" fill="#000000">cyclase activity</text>
</g>
<!-- GO:0004016&#45;&gt;GO:0009975 -->
<g id="edge1" class="edge">
<title>GO:0004016&#45;&gt;GO:0009975</title>
<path fill="none" stroke="#000000" d="M86.3938,-58.4654C80.4249,-69.3907 74.2983,-82.128 70.3426,-94.4 59.4944,-128.0554 54.8276,-168.5351 52.8277,-195.7179"/>
<polygon fill="#000000" stroke="#000000" points="49.329,-195.5845 52.1641,-205.793 56.3139,-196.0447 49.329,-195.5845"/>
</g>
<!-- GO:0016849 -->
<g id="node3" class="node">
<title>GO:0016849</title>
<polygon fill="#ffffff" stroke="#000000" points="237.5323,-161.4014 79.1529,-161.4014 79.1529,-102.5986 237.5323,-102.5986 237.5323,-161.4014"/>
<text text-anchor="middle" x="158.3426" y="-144.6" font-family="Times,serif" font-size="14.00" fill="#000000">GO:0016849</text>
<text text-anchor="middle" x="158.3426" y="-127.8" font-family="Times,serif" font-size="14.00" fill="#000000">phosphorus&#45;oxygen lyase</text>
<text text-anchor="middle" x="158.3426" y="-111" font-family="Times,serif" font-size="14.00" fill="#000000">activity</text>
</g>
<!-- GO:0004016&#45;&gt;GO:0016849 -->
<g id="edge2" class="edge">
<title>GO:0004016&#45;&gt;GO:0016849</title>
<path fill="none" stroke="#000000" d="M119.8168,-58.6584C125.5221,-69.5195 132.0727,-81.9898 138.1347,-93.5301"/>
<polygon fill="#000000" stroke="#000000" points="135.1172,-95.3121 142.8661,-102.5373 141.3142,-92.0568 135.1172,-95.3121"/>
</g>
<!-- GO:0003824 -->
<g id="node4" class="node">
<title>GO:0003824</title>
<polygon fill="#ffffff" stroke="#000000" points="219.755,-324.6019 110.9302,-324.6019 110.9302,-283.3981 219.755,-283.3981 219.755,-324.6019"/>
<text text-anchor="middle" x="165.3426" y="-308.2" font-family="Times,serif" font-size="14.00" fill="#000000">GO:0003824</text>
<text text-anchor="middle" x="165.3426" y="-291.4" font-family="Times,serif" font-size="14.00" fill="#000000">catalytic activity</text>
</g>
<!-- GO:0009975&#45;&gt;GO:0003824 -->
<g id="edge3" class="edge">
<title>GO:0009975&#45;&gt;GO:0003824</title>
<path fill="none" stroke="#000000" d="M81.8925,-247.1954C95.5655,-256.5026 111.8475,-267.5858 126.3841,-277.4809"/>
<polygon fill="#000000" stroke="#000000" points="124.4723,-280.4134 134.7084,-283.1472 128.4113,-274.6268 124.4723,-280.4134"/>
</g>
<!-- GO:0016829 -->
<g id="node5" class="node">
<title>GO:0016829</title>
<polygon fill="#ffffff" stroke="#000000" points="210.599,-247.0019 120.0862,-247.0019 120.0862,-205.7981 210.599,-205.7981 210.599,-247.0019"/>
<text text-anchor="middle" x="165.3426" y="-230.6" font-family="Times,serif" font-size="14.00" fill="#000000">GO:0016829</text>
<text text-anchor="middle" x="165.3426" y="-213.8" font-family="Times,serif" font-size="14.00" fill="#000000">lyase activity</text>
</g>
<!-- GO:0016849&#45;&gt;GO:0016829 -->
<g id="edge4" class="edge">
<title>GO:0016849&#45;&gt;GO:0016829</title>
<path fill="none" stroke="#000000" d="M160.5191,-161.3513C161.3281,-172.2614 162.2477,-184.6637 163.0655,-195.692"/>
<polygon fill="#000000" stroke="#000000" points="159.5814,-196.0372 163.8114,-205.751 166.5623,-195.5195 159.5814,-196.0372"/>
</g>
<!-- GO:0003674 -->
<g id="node6" class="node">
<title>GO:0003674</title>
<polygon fill="#ffffff" stroke="#000000" points="227.9757,-402.2019 102.7095,-402.2019 102.7095,-360.9981 227.9757,-360.9981 227.9757,-402.2019"/>
<text text-anchor="middle" x="165.3426" y="-385.8" font-family="Times,serif" font-size="14.00" fill="#000000">GO:0003674</text>
<text text-anchor="middle" x="165.3426" y="-369" font-family="Times,serif" font-size="14.00" fill="#000000">molecular_function</text>
</g>
<!-- GO:0003824&#45;&gt;GO:0003674 -->
<g id="edge5" class="edge">
<title>GO:0003824&#45;&gt;GO:0003674</title>
<path fill="none" stroke="#000000" d="M165.3426,-324.7954C165.3426,-332.7109 165.3426,-341.9109 165.3426,-350.5722"/>
<polygon fill="#000000" stroke="#000000" points="161.8427,-350.7472 165.3426,-360.7472 168.8427,-350.7473 161.8427,-350.7472"/>
</g>
<!-- GO:0016829&#45;&gt;GO:0003824 -->
<g id="edge6" class="edge">
<title>GO:0016829&#45;&gt;GO:0003824</title>
<path fill="none" stroke="#000000" d="M165.3426,-247.1954C165.3426,-255.1109 165.3426,-264.3109 165.3426,-272.9722"/>
<polygon fill="#000000" stroke="#000000" points="161.8427,-273.1472 165.3426,-283.1472 168.8427,-273.1473 161.8427,-273.1472"/>
</g>
<!-- GO:0016757 -->
<g id="node7" class="node">
<title>GO:0016757</title>
<polygon fill="#ffffff" stroke="#000000" points="387.5806,-169.7003 255.1046,-169.7003 255.1046,-94.2997 387.5806,-94.2997 387.5806,-169.7003"/>
<text text-anchor="middle" x="321.3426" y="-153" font-family="Times,serif" font-size="14.00" fill="#000000">GO:0016757</text>
<text text-anchor="middle" x="321.3426" y="-136.2" font-family="Times,serif" font-size="14.00" fill="#000000">transferase activity,</text>
<text text-anchor="middle" x="321.3426" y="-119.4" font-family="Times,serif" font-size="14.00" fill="#000000">transferring glycosyl</text>
<text text-anchor="middle" x="321.3426" y="-102.6" font-family="Times,serif" font-size="14.00" fill="#000000">groups</text>
</g>
<!-- GO:0016740 -->
<g id="node8" class="node">
<title>GO:0016740</title>
<polygon fill="#ffffff" stroke="#000000" points="366.4543,-247.0019 244.2309,-247.0019 244.2309,-205.7981 366.4543,-205.7981 366.4543,-247.0019"/>
<text text-anchor="middle" x="305.3426" y="-230.6" font-family="Times,serif" font-size="14.00" fill="#000000">GO:0016740</text>
<text text-anchor="middle" x="305.3426" y="-213.8" font-family="Times,serif" font-size="14.00" fill="#000000">transferase activity</text>
</g>
<!-- GO:0016757&#45;&gt;GO:0016740 -->
<g id="edge7" class="edge">
<title>GO:0016757&#45;&gt;GO:0016740</title>
<path fill="none" stroke="#000000" d="M314.927,-169.8522C313.4721,-178.436 311.9444,-187.4495 310.5469,-195.6948"/>
<polygon fill="#000000" stroke="#000000" points="307.082,-195.1936 308.8616,-205.6379 313.9836,-196.3634 307.082,-195.1936"/>
</g>
<!-- GO:0016740&#45;&gt;GO:0003824 -->
<g id="edge8" class="edge">
<title>GO:0016740&#45;&gt;GO:0003824</title>
<path fill="none" stroke="#000000" d="M267.8252,-247.1954C250.7199,-256.6766 230.2897,-268.0008 212.1876,-278.0345"/>
<polygon fill="#000000" stroke="#000000" points="210.0131,-275.238 202.9636,-283.1472 213.4067,-281.3604 210.0131,-275.238"/>
</g>
</g>
</svg>
