<?xml version="1.0" encoding="UTF-8" standalone="no"?>
<!DOCTYPE svg PUBLIC "-//W3C//DTD SVG 1.1//EN"
 "http://www.w3.org/Graphics/SVG/1.1/DTD/svg11.dtd">
<!-- Generated by graphviz version 2.40.1 (20161225.0304)
 -->
<!-- Title: G Pages: 1 -->
<svg width="1102pt" height="427pt"
 viewBox="0.00 0.00 1101.97 427.20" xmlns="http://www.w3.org/2000/svg" xmlns:xlink="http://www.w3.org/1999/xlink">
<g id="graph0" class="graph" transform="scale(1 1) rotate(0) translate(4 423.2)">
<title>G</title>
<polygon fill="#ffffff" stroke="transparent" points="-4,4 -4,-423.2 1097.9741,-423.2 1097.9741,4 -4,4"/>
<!-- GO:1901576 -->
<g id="node1" class="node">
<title>GO:1901576</title>
<polygon fill="#ff00ff" stroke="#000000" points="487.9836,-161.4014 358.1532,-161.4014 358.1532,-102.5986 487.9836,-102.5986 487.9836,-161.4014"/>
<text text-anchor="middle" x="423.0684" y="-144.6" font-family="Times,serif" font-size="14.00" fill="#000000">GO:1901576</text>
<text text-anchor="middle" x="423.0684" y="-127.8" font-family="Times,serif" font-size="14.00" fill="#000000">organic substance</text>
<text text-anchor="middle" x="423.0684" y="-111" font-family="Times,serif" font-size="14.00" fill="#000000">biosynthetic process</text>
</g>
<!-- GO:0071704 -->
<g id="node2" class="node">
<title>GO:0071704</title>
<polygon fill="#00ff00" stroke="#000000" points="329.254,-264.2014 212.8828,-264.2014 212.8828,-205.3986 329.254,-205.3986 329.254,-264.2014"/>
<text text-anchor="middle" x="271.0684" y="-247.4" font-family="Times,serif" font-size="14.00" fill="#000000">GO:0071704</text>
<text text-anchor="middle" x="271.0684" y="-230.6" font-family="Times,serif" font-size="14.00" fill="#000000">organic substance</text>
<text text-anchor="middle" x="271.0684" y="-213.8" font-family="Times,serif" font-size="14.00" fill="#000000">metabolic process</text>
</g>
<!-- GO:1901576&#45;&gt;GO:0071704 -->
<g id="edge1" class="edge">
<title>GO:1901576&#45;&gt;GO:0071704</title>
<path fill="none" stroke="#000000" d="M379.5113,-161.4584C361.7859,-173.4464 341.1619,-187.3947 322.6876,-199.8891"/>
<polygon fill="#000000" stroke="#000000" points="320.6915,-197.0137 314.3689,-205.5152 324.6131,-202.8121 320.6915,-197.0137"/>
</g>
<!-- GO:0009058 -->
<g id="node3" class="node">
<title>GO:0009058</title>
<polygon fill="#ffffff" stroke="#000000" points="487.9836,-255.4019 358.1532,-255.4019 358.1532,-214.1981 487.9836,-214.1981 487.9836,-255.4019"/>
<text text-anchor="middle" x="423.0684" y="-239" font-family="Times,serif" font-size="14.00" fill="#000000">GO:0009058</text>
<text text-anchor="middle" x="423.0684" y="-222.2" font-family="Times,serif" font-size="14.00" fill="#000000">biosynthetic process</text>
</g>
<!-- GO:1901576&#45;&gt;GO:0009058 -->
<g id="edge2" class="edge">
<title>GO:1901576&#45;&gt;GO:0009058</title>
<path fill="none" stroke="#000000" d="M423.0684,-161.4584C423.0684,-174.7539 423.0684,-190.4608 423.0684,-203.9212"/>
<polygon fill="#000000" stroke="#000000" points="419.5685,-204.1456 423.0684,-214.1456 426.5685,-204.1457 419.5685,-204.1456"/>
</g>
<!-- GO:0008152 -->
<g id="node4" class="node">
<title>GO:0008152</title>
<polygon fill="#ffff00" stroke="#000000" points="494.254,-341.4019 377.8828,-341.4019 377.8828,-300.1981 494.254,-300.1981 494.254,-341.4019"/>
<text text-anchor="middle" x="436.0684" y="-325" font-family="Times,serif" font-size="14.00" fill="#000000">GO:0008152</text>
<text text-anchor="middle" x="436.0684" y="-308.2" font-family="Times,serif" font-size="14.00" fill="#000000">metabolic process</text>
</g>
<!-- GO:0071704&#45;&gt;GO:0008152 -->
<g id="edge3" class="edge">
<title>GO:0071704&#45;&gt;GO:0008152</title>
<path fill="none" stroke="#000000" d="M327.3906,-264.1558C346.8863,-274.3172 368.5579,-285.6127 387.3872,-295.4267"/>
<polygon fill="#000000" stroke="#000000" points="385.8948,-298.5958 396.3803,-300.1141 389.1303,-292.3883 385.8948,-298.5958"/>
</g>
<!-- GO:0009058&#45;&gt;GO:0008152 -->
<g id="edge4" class="edge">
<title>GO:0009058&#45;&gt;GO:0008152</title>
<path fill="none" stroke="#000000" d="M426.2153,-255.6182C427.7802,-265.9705 429.7022,-278.6848 431.4318,-290.1271"/>
<polygon fill="#000000" stroke="#000000" points="427.995,-290.809 432.9504,-300.1735 434.9164,-289.7627 427.995,-290.809"/>
</g>
<!-- GO:0008150 -->
<g id="node5" class="node">
<title>GO:0008150</title>
<polygon fill="#ffffff" stroke="#000000" points="654.539,-419.0019 533.5978,-419.0019 533.5978,-377.7981 654.539,-377.7981 654.539,-419.0019"/>
<text text-anchor="middle" x="594.0684" y="-402.6" font-family="Times,serif" font-size="14.00" fill="#000000">GO:0008150</text>
<text text-anchor="middle" x="594.0684" y="-385.8" font-family="Times,serif" font-size="14.00" fill="#000000">biological_process</text>
</g>
<!-- GO:0008152&#45;&gt;GO:0008150 -->
<g id="edge5" class="edge">
<title>GO:0008152&#45;&gt;GO:0008150</title>
<path fill="none" stroke="#000000" d="M478.4095,-341.5954C498.2364,-351.3331 522.0216,-363.015 542.853,-373.2461"/>
<polygon fill="#000000" stroke="#000000" points="541.3658,-376.415 551.8846,-377.6819 544.4517,-370.1319 541.3658,-376.415"/>
</g>
<!-- GO:0044710 -->
<g id="node6" class="node">
<title>GO:0044710</title>
<polygon fill="#ff00ff" stroke="#000000" points="670.4766,-264.2014 505.6602,-264.2014 505.6602,-205.3986 670.4766,-205.3986 670.4766,-264.2014"/>
<text text-anchor="middle" x="588.0684" y="-247.4" font-family="Times,serif" font-size="14.00" fill="#000000">GO:0044710</text>
<text text-anchor="middle" x="588.0684" y="-230.6" font-family="Times,serif" font-size="14.00" fill="#000000">single&#45;organism metabolic</text>
<text text-anchor="middle" x="588.0684" y="-213.8" font-family="Times,serif" font-size="14.00" fill="#000000">process</text>
</g>
<!-- GO:0044710&#45;&gt;GO:0008152 -->
<g id="edge6" class="edge">
<title>GO:0044710&#45;&gt;GO:0008152</title>
<path fill="none" stroke="#000000" d="M536.1838,-264.1558C518.4605,-274.1834 498.7854,-285.3154 481.6008,-295.0383"/>
<polygon fill="#000000" stroke="#000000" points="479.8448,-292.0103 472.8649,-299.9809 483.2919,-298.1028 479.8448,-292.0103"/>
</g>
<!-- GO:0044699 -->
<g id="node7" class="node">
<title>GO:0044699</title>
<polygon fill="#00ffff" stroke="#000000" points="669.7497,-341.4019 518.3871,-341.4019 518.3871,-300.1981 669.7497,-300.1981 669.7497,-341.4019"/>
<text text-anchor="middle" x="594.0684" y="-325" font-family="Times,serif" font-size="14.00" fill="#000000">GO:0044699</text>
<text text-anchor="middle" x="594.0684" y="-308.2" font-family="Times,serif" font-size="14.00" fill="#000000">single&#45;organism process</text>
</g>
<!-- GO:0044710&#45;&gt;GO:0044699 -->
<g id="edge7" class="edge">
<title>GO:0044710&#45;&gt;GO:0044699</title>
<path fill="none" stroke="#000000" d="M590.1333,-264.3963C590.7101,-272.6638 591.3381,-281.6657 591.9196,-290.0008"/>
<polygon fill="#000000" stroke="#000000" points="588.4364,-290.3644 592.624,-300.0966 595.4194,-289.8772 588.4364,-290.3644"/>
</g>
<!-- GO:0044699&#45;&gt;GO:0008150 -->
<g id="edge8" class="edge">
<title>GO:0044699&#45;&gt;GO:0008150</title>
<path fill="none" stroke="#000000" d="M594.0684,-341.5954C594.0684,-349.5109 594.0684,-358.7109 594.0684,-367.3722"/>
<polygon fill="#000000" stroke="#000000" points="590.5685,-367.5472 594.0684,-377.5472 597.5685,-367.5473 590.5685,-367.5472"/>
</g>
<!-- GO:0044711 -->
<g id="node8" class="node">
<title>GO:0044711</title>
<polygon fill="#ff00ff" stroke="#000000" points="635.9836,-161.4014 506.1532,-161.4014 506.1532,-102.5986 635.9836,-102.5986 635.9836,-161.4014"/>
<text text-anchor="middle" x="571.0684" y="-144.6" font-family="Times,serif" font-size="14.00" fill="#000000">GO:0044711</text>
<text text-anchor="middle" x="571.0684" y="-127.8" font-family="Times,serif" font-size="14.00" fill="#000000">single&#45;organism</text>
<text text-anchor="middle" x="571.0684" y="-111" font-family="Times,serif" font-size="14.00" fill="#000000">biosynthetic process</text>
</g>
<!-- GO:0044711&#45;&gt;GO:0009058 -->
<g id="edge10" class="edge">
<title>GO:0044711&#45;&gt;GO:0009058</title>
<path fill="none" stroke="#000000" d="M528.6575,-161.4584C507.3366,-176.2678 481.7085,-194.0689 461.0404,-208.4249"/>
<polygon fill="#000000" stroke="#000000" points="459.0207,-205.5662 452.8043,-214.1456 463.0141,-211.3154 459.0207,-205.5662"/>
</g>
<!-- GO:0044711&#45;&gt;GO:0044710 -->
<g id="edge9" class="edge">
<title>GO:0044711&#45;&gt;GO:0044710</title>
<path fill="none" stroke="#000000" d="M575.9399,-161.4584C577.6827,-171.9969 579.676,-184.0505 581.5362,-195.2994"/>
<polygon fill="#000000" stroke="#000000" points="578.1114,-196.0424 583.1962,-205.3373 585.0177,-194.9003 578.1114,-196.0424"/>
</g>
<!-- GO:1901564 -->
<g id="node9" class="node">
<title>GO:1901564</title>
<polygon fill="#ff00ff" stroke="#000000" points="164.2053,-161.4014 -.0685,-161.4014 -.0685,-102.5986 164.2053,-102.5986 164.2053,-161.4014"/>
<text text-anchor="middle" x="82.0684" y="-144.6" font-family="Times,serif" font-size="14.00" fill="#000000">GO:1901564</text>
<text text-anchor="middle" x="82.0684" y="-127.8" font-family="Times,serif" font-size="14.00" fill="#000000">organonitrogen compound</text>
<text text-anchor="middle" x="82.0684" y="-111" font-family="Times,serif" font-size="14.00" fill="#000000">metabolic process</text>
</g>
<!-- GO:1901564&#45;&gt;GO:0071704 -->
<g id="edge11" class="edge">
<title>GO:1901564&#45;&gt;GO:0071704</title>
<path fill="none" stroke="#000000" d="M135.9753,-161.3208C158.5176,-173.5819 184.8647,-187.9125 208.2754,-200.6459"/>
<polygon fill="#000000" stroke="#000000" points="206.6329,-203.7368 217.0899,-205.4403 209.9776,-197.5875 206.6329,-203.7368"/>
</g>
<!-- GO:0006807 -->
<g id="node10" class="node">
<title>GO:0006807</title>
<polygon fill="#ff00ff" stroke="#000000" points="174.8303,-264.2014 49.3065,-264.2014 49.3065,-205.3986 174.8303,-205.3986 174.8303,-264.2014"/>
<text text-anchor="middle" x="112.0684" y="-247.4" font-family="Times,serif" font-size="14.00" fill="#000000">GO:0006807</text>
<text text-anchor="middle" x="112.0684" y="-230.6" font-family="Times,serif" font-size="14.00" fill="#000000">nitrogen compound</text>
<text text-anchor="middle" x="112.0684" y="-213.8" font-family="Times,serif" font-size="14.00" fill="#000000">metabolic process</text>
</g>
<!-- GO:1901564&#45;&gt;GO:0006807 -->
<g id="edge12" class="edge">
<title>GO:1901564&#45;&gt;GO:0006807</title>
<path fill="none" stroke="#000000" d="M90.6652,-161.4584C93.772,-172.1045 97.3301,-184.2966 100.6414,-195.6435"/>
<polygon fill="#000000" stroke="#000000" points="97.309,-196.7183 103.4703,-205.3373 104.0287,-194.7572 97.309,-196.7183"/>
</g>
<!-- GO:0006807&#45;&gt;GO:0008152 -->
<g id="edge13" class="edge">
<title>GO:0006807&#45;&gt;GO:0008152</title>
<path fill="none" stroke="#000000" d="M174.7504,-255.314C184.5317,-258.3358 194.5496,-261.3274 204.0684,-264 258.7442,-279.3512 321.3163,-294.5331 367.6887,-305.3336"/>
<polygon fill="#000000" stroke="#000000" points="367.093,-308.7883 377.6252,-307.6386 368.6748,-301.9693 367.093,-308.7883"/>
</g>
<!-- GO:1901566 -->
<g id="node11" class="node">
<title>GO:1901566</title>
<polygon fill="#ff00ff" stroke="#000000" points="334.2053,-58.6014 169.9315,-58.6014 169.9315,.2014 334.2053,.2014 334.2053,-58.6014"/>
<text text-anchor="middle" x="252.0684" y="-41.8" font-family="Times,serif" font-size="14.00" fill="#000000">GO:1901566</text>
<text text-anchor="middle" x="252.0684" y="-25" font-family="Times,serif" font-size="14.00" fill="#000000">organonitrogen compound</text>
<text text-anchor="middle" x="252.0684" y="-8.2" font-family="Times,serif" font-size="14.00" fill="#000000">biosynthetic process</text>
</g>
<!-- GO:1901566&#45;&gt;GO:1901576 -->
<g id="edge14" class="edge">
<title>GO:1901566&#45;&gt;GO:1901576</title>
<path fill="none" stroke="#000000" d="M301.0701,-58.6584C321.1909,-70.7544 344.6316,-84.8462 365.5579,-97.4264"/>
<polygon fill="#000000" stroke="#000000" points="363.9815,-100.5625 374.3554,-102.7152 367.5882,-94.5631 363.9815,-100.5625"/>
</g>
<!-- GO:1901566&#45;&gt;GO:1901564 -->
<g id="edge15" class="edge">
<title>GO:1901566&#45;&gt;GO:1901564</title>
<path fill="none" stroke="#000000" d="M203.3532,-58.6584C183.3501,-70.7544 160.0465,-84.8462 139.2426,-97.4264"/>
<polygon fill="#000000" stroke="#000000" points="137.2426,-94.5456 130.4966,-102.7152 140.8648,-100.5356 137.2426,-94.5456"/>
</g>
<!-- GO:0044249 -->
<g id="node12" class="node">
<title>GO:0044249</title>
<polygon fill="#ff00ff" stroke="#000000" points="783.9808,-161.4014 654.156,-161.4014 654.156,-102.5986 783.9808,-102.5986 783.9808,-161.4014"/>
<text text-anchor="middle" x="719.0684" y="-144.6" font-family="Times,serif" font-size="14.00" fill="#000000">GO:0044249</text>
<text text-anchor="middle" x="719.0684" y="-127.8" font-family="Times,serif" font-size="14.00" fill="#000000">cellular biosynthetic</text>
<text text-anchor="middle" x="719.0684" y="-111" font-family="Times,serif" font-size="14.00" fill="#000000">process</text>
</g>
<!-- GO:0044249&#45;&gt;GO:0009058 -->
<g id="edge16" class="edge">
<title>GO:0044249&#45;&gt;GO:0009058</title>
<path fill="none" stroke="#000000" d="M664.7454,-161.3766C658.2118,-164.3779 651.5557,-167.1998 645.0684,-169.6 581.5787,-193.0898 561.5944,-185.1279 497.0684,-205.6 492.2551,-207.1271 487.3072,-208.8136 482.3614,-210.5829"/>
<polygon fill="#000000" stroke="#000000" points="481.0658,-207.3301 472.8887,-214.0671 483.4823,-213.8998 481.0658,-207.3301"/>
</g>
<!-- GO:0044237 -->
<g id="node13" class="node">
<title>GO:0044237</title>
<polygon fill="#00ffff" stroke="#000000" points="805.2512,-264.2014 688.8856,-264.2014 688.8856,-205.3986 805.2512,-205.3986 805.2512,-264.2014"/>
<text text-anchor="middle" x="747.0684" y="-247.4" font-family="Times,serif" font-size="14.00" fill="#000000">GO:0044237</text>
<text text-anchor="middle" x="747.0684" y="-230.6" font-family="Times,serif" font-size="14.00" fill="#000000">cellular metabolic</text>
<text text-anchor="middle" x="747.0684" y="-213.8" font-family="Times,serif" font-size="14.00" fill="#000000">process</text>
</g>
<!-- GO:0044249&#45;&gt;GO:0044237 -->
<g id="edge17" class="edge">
<title>GO:0044249&#45;&gt;GO:0044237</title>
<path fill="none" stroke="#000000" d="M727.0921,-161.4584C729.9918,-172.1045 733.3126,-184.2966 736.4032,-195.6435"/>
<polygon fill="#000000" stroke="#000000" points="733.0385,-196.6087 739.0436,-205.3373 739.7925,-194.769 733.0385,-196.6087"/>
</g>
<!-- GO:0044237&#45;&gt;GO:0008152 -->
<g id="edge19" class="edge">
<title>GO:0044237&#45;&gt;GO:0008152</title>
<path fill="none" stroke="#000000" d="M688.7408,-260.7119C685.4913,-261.8841 682.2525,-262.9901 679.0684,-264 605.4516,-287.3497 584.0281,-281.4073 509.0684,-300 507.5895,-300.3668 506.0953,-300.7429 504.5901,-301.1268"/>
<polygon fill="#000000" stroke="#000000" points="503.3329,-297.8378 494.5444,-303.755 505.1047,-304.6099 503.3329,-297.8378"/>
</g>
<!-- GO:0009987 -->
<g id="node14" class="node">
<title>GO:0009987</title>
<polygon fill="#00ff00" stroke="#000000" points="799.0246,-341.4019 695.1122,-341.4019 695.1122,-300.1981 799.0246,-300.1981 799.0246,-341.4019"/>
<text text-anchor="middle" x="747.0684" y="-325" font-family="Times,serif" font-size="14.00" fill="#000000">GO:0009987</text>
<text text-anchor="middle" x="747.0684" y="-308.2" font-family="Times,serif" font-size="14.00" fill="#000000">cellular process</text>
</g>
<!-- GO:0044237&#45;&gt;GO:0009987 -->
<g id="edge18" class="edge">
<title>GO:0044237&#45;&gt;GO:0009987</title>
<path fill="none" stroke="#000000" d="M747.0684,-264.3963C747.0684,-272.6638 747.0684,-281.6657 747.0684,-290.0008"/>
<polygon fill="#000000" stroke="#000000" points="743.5685,-290.0965 747.0684,-300.0966 750.5685,-290.0966 743.5685,-290.0965"/>
</g>
<!-- GO:0009987&#45;&gt;GO:0008150 -->
<g id="edge20" class="edge">
<title>GO:0009987&#45;&gt;GO:0008150</title>
<path fill="none" stroke="#000000" d="M706.0672,-341.5954C686.9539,-351.2895 664.0418,-362.9102 643.9346,-373.1084"/>
<polygon fill="#000000" stroke="#000000" points="642.2526,-370.037 634.9173,-377.6819 645.4189,-376.2799 642.2526,-370.037"/>
</g>
<!-- GO:0006725 -->
<g id="node15" class="node">
<title>GO:0006725</title>
<polygon fill="#ff00ff" stroke="#000000" points="1093.8799,-169.7003 960.2569,-169.7003 960.2569,-94.2997 1093.8799,-94.2997 1093.8799,-169.7003"/>
<text text-anchor="middle" x="1027.0684" y="-153" font-family="Times,serif" font-size="14.00" fill="#000000">GO:0006725</text>
<text text-anchor="middle" x="1027.0684" y="-136.2" font-family="Times,serif" font-size="14.00" fill="#000000">cellular aromatic</text>
<text text-anchor="middle" x="1027.0684" y="-119.4" font-family="Times,serif" font-size="14.00" fill="#000000">compound metabolic</text>
<text text-anchor="middle" x="1027.0684" y="-102.6" font-family="Times,serif" font-size="14.00" fill="#000000">process</text>
</g>
<!-- GO:0006725&#45;&gt;GO:0044237 -->
<g id="edge21" class="edge">
<title>GO:0006725&#45;&gt;GO:0044237</title>
<path fill="none" stroke="#000000" d="M959.8378,-166.1426C956.8952,-167.3572 953.9636,-168.5162 951.0684,-169.6 894.9871,-190.5938 875.4548,-185.5491 814.9724,-205.5037"/>
<polygon fill="#000000" stroke="#000000" points="813.6665,-202.2509 805.3237,-208.7814 815.918,-208.8789 813.6665,-202.2509"/>
</g>
<!-- GO:0044763 -->
<g id="node16" class="node">
<title>GO:0044763</title>
<polygon fill="#ff00ff" stroke="#000000" points="974.7469,-264.2014 823.3899,-264.2014 823.3899,-205.3986 974.7469,-205.3986 974.7469,-264.2014"/>
<text text-anchor="middle" x="899.0684" y="-247.4" font-family="Times,serif" font-size="14.00" fill="#000000">GO:0044763</text>
<text text-anchor="middle" x="899.0684" y="-230.6" font-family="Times,serif" font-size="14.00" fill="#000000">single&#45;organism cellular</text>
<text text-anchor="middle" x="899.0684" y="-213.8" font-family="Times,serif" font-size="14.00" fill="#000000">process</text>
</g>
<!-- GO:0044763&#45;&gt;GO:0044699 -->
<g id="edge23" class="edge">
<title>GO:0044763&#45;&gt;GO:0044699</title>
<path fill="none" stroke="#000000" d="M823.1638,-261.2045C820.0978,-262.1667 817.0572,-263.1023 814.0684,-264 770.0921,-277.2085 720.6227,-290.1486 679.7478,-300.3336"/>
<polygon fill="#000000" stroke="#000000" points="678.6838,-296.9913 669.8202,-302.7953 680.3687,-303.7855 678.6838,-296.9913"/>
</g>
<!-- GO:0044763&#45;&gt;GO:0009987 -->
<g id="edge22" class="edge">
<title>GO:0044763&#45;&gt;GO:0009987</title>
<path fill="none" stroke="#000000" d="M847.1838,-264.1558C829.4605,-274.1834 809.7854,-285.3154 792.6008,-295.0383"/>
<polygon fill="#000000" stroke="#000000" points="790.8448,-292.0103 783.8649,-299.9809 794.2919,-298.1028 790.8448,-292.0103"/>
</g>
<!-- GO:1901360 -->
<g id="node17" class="node">
<title>GO:1901360</title>
<polygon fill="#ff00ff" stroke="#000000" points="339.5798,-161.4014 182.557,-161.4014 182.557,-102.5986 339.5798,-102.5986 339.5798,-161.4014"/>
<text text-anchor="middle" x="261.0684" y="-144.6" font-family="Times,serif" font-size="14.00" fill="#000000">GO:1901360</text>
<text text-anchor="middle" x="261.0684" y="-127.8" font-family="Times,serif" font-size="14.00" fill="#000000">organic cyclic compound</text>
<text text-anchor="middle" x="261.0684" y="-111" font-family="Times,serif" font-size="14.00" fill="#000000">metabolic process</text>
</g>
<!-- GO:1901360&#45;&gt;GO:0071704 -->
<g id="edge24" class="edge">
<title>GO:1901360&#45;&gt;GO:0071704</title>
<path fill="none" stroke="#000000" d="M263.934,-161.4584C264.9592,-171.9969 266.1317,-184.0505 267.2259,-195.2994"/>
<polygon fill="#000000" stroke="#000000" points="263.7505,-195.7232 268.2024,-205.3373 270.7177,-195.0454 263.7505,-195.7232"/>
</g>
<!-- GO:0046483 -->
<g id="node18" class="node">
<title>GO:0046483</title>
<polygon fill="#ff00ff" stroke="#000000" points="941.7896,-161.4014 802.3472,-161.4014 802.3472,-102.5986 941.7896,-102.5986 941.7896,-161.4014"/>
<text text-anchor="middle" x="872.0684" y="-144.6" font-family="Times,serif" font-size="14.00" fill="#000000">GO:0046483</text>
<text text-anchor="middle" x="872.0684" y="-127.8" font-family="Times,serif" font-size="14.00" fill="#000000">heterocycle metabolic</text>
<text text-anchor="middle" x="872.0684" y="-111" font-family="Times,serif" font-size="14.00" fill="#000000">process</text>
</g>
<!-- GO:0046483&#45;&gt;GO:0044237 -->
<g id="edge25" class="edge">
<title>GO:0046483&#45;&gt;GO:0044237</title>
<path fill="none" stroke="#000000" d="M836.2484,-161.4584C822.1264,-173.0723 805.7672,-186.5261 790.9456,-198.7154"/>
<polygon fill="#000000" stroke="#000000" points="788.394,-196.2822 782.8936,-205.3373 792.8404,-201.6887 788.394,-196.2822"/>
</g>
</g>
</svg>
