<?xml version="1.0" encoding="UTF-8" standalone="no"?>
<!DOCTYPE svg PUBLIC "-//W3C//DTD SVG 1.1//EN"
 "http://www.w3.org/Graphics/SVG/1.1/DTD/svg11.dtd">
<!-- Generated by graphviz version 2.40.1 (20161225.0304)
 -->
<!-- Title: G Pages: 1 -->
<svg width="559pt" height="549pt"
 viewBox="0.00 0.00 558.53 548.80" xmlns="http://www.w3.org/2000/svg" xmlns:xlink="http://www.w3.org/1999/xlink">
<g id="graph0" class="graph" transform="scale(1 1) rotate(0) translate(4 544.8)">
<title>G</title>
<polygon fill="#ffffff" stroke="transparent" points="-4,4 -4,-544.8 554.5323,-544.8 554.5323,4 -4,4"/>
<!-- GO:0020011 -->
<g id="node1" class="node">
<title>GO:0020011</title>
<polygon fill="#ffffff" stroke="#000000" points="284.5843,-41.4019 195.3765,-41.4019 195.3765,-.1981 284.5843,-.1981 284.5843,-41.4019"/>
<text text-anchor="middle" x="239.9804" y="-25" font-family="Times,serif" font-size="14.00" fill="#000000">GO:0020011</text>
<text text-anchor="middle" x="239.9804" y="-8.2" font-family="Times,serif" font-size="14.00" fill="#000000">apicoplast</text>
</g>
<!-- GO:0009536 -->
<g id="node2" class="node">
<title>GO:0009536</title>
<polygon fill="#ffffff" stroke="#000000" points="284.5843,-119.0019 195.3765,-119.0019 195.3765,-77.7981 284.5843,-77.7981 284.5843,-119.0019"/>
<text text-anchor="middle" x="239.9804" y="-102.6" font-family="Times,serif" font-size="14.00" fill="#000000">GO:0009536</text>
<text text-anchor="middle" x="239.9804" y="-85.8" font-family="Times,serif" font-size="14.00" fill="#000000">plastid</text>
</g>
<!-- GO:0020011&#45;&gt;GO:0009536 -->
<g id="edge1" class="edge">
<title>GO:0020011&#45;&gt;GO:0009536</title>
<path fill="none" stroke="#000000" d="M239.9804,-41.5954C239.9804,-49.5109 239.9804,-58.7109 239.9804,-67.3722"/>
<polygon fill="#000000" stroke="#000000" points="236.4805,-67.5472 239.9804,-77.5472 243.4805,-67.5473 236.4805,-67.5472"/>
</g>
<!-- GO:0044444 -->
<g id="node3" class="node">
<title>GO:0044444</title>
<polygon fill="#ffffff" stroke="#000000" points="368.397,-205.0019 259.5638,-205.0019 259.5638,-163.7981 368.397,-163.7981 368.397,-205.0019"/>
<text text-anchor="middle" x="313.9804" y="-188.6" font-family="Times,serif" font-size="14.00" fill="#000000">GO:0044444</text>
<text text-anchor="middle" x="313.9804" y="-171.8" font-family="Times,serif" font-size="14.00" fill="#000000">cytoplasmic part</text>
</g>
<!-- GO:0009536&#45;&gt;GO:0044444 -->
<g id="edge2" class="edge">
<title>GO:0009536&#45;&gt;GO:0044444</title>
<path fill="none" stroke="#000000" d="M257.8937,-119.2182C267.4378,-130.3099 279.315,-144.1132 289.6794,-156.1583"/>
<polygon fill="#000000" stroke="#000000" points="287.0565,-158.4762 296.232,-163.7735 292.3626,-153.9105 287.0565,-158.4762"/>
</g>
<!-- GO:0043231 -->
<g id="node4" class="node">
<title>GO:0043231</title>
<polygon fill="#ffffff" stroke="#000000" points="241.3592,-213.8014 90.6016,-213.8014 90.6016,-154.9986 241.3592,-154.9986 241.3592,-213.8014"/>
<text text-anchor="middle" x="165.9804" y="-197" font-family="Times,serif" font-size="14.00" fill="#000000">GO:0043231</text>
<text text-anchor="middle" x="165.9804" y="-180.2" font-family="Times,serif" font-size="14.00" fill="#000000">intracellular membrane&#45;</text>
<text text-anchor="middle" x="165.9804" y="-163.4" font-family="Times,serif" font-size="14.00" fill="#000000">bounded organelle</text>
</g>
<!-- GO:0009536&#45;&gt;GO:0043231 -->
<g id="edge3" class="edge">
<title>GO:0009536&#45;&gt;GO:0043231</title>
<path fill="none" stroke="#000000" d="M222.0671,-119.2182C214.7767,-127.6908 206.1249,-137.7456 197.826,-147.3903"/>
<polygon fill="#000000" stroke="#000000" points="195.1482,-145.1362 191.2788,-154.9991 200.4543,-149.7019 195.1482,-145.1362"/>
</g>
<!-- GO:0044424 -->
<g id="node5" class="node">
<title>GO:0044424</title>
<polygon fill="#ffffff" stroke="#000000" points="316.3788,-385.4019 207.582,-385.4019 207.582,-344.1981 316.3788,-344.1981 316.3788,-385.4019"/>
<text text-anchor="middle" x="261.9804" y="-369" font-family="Times,serif" font-size="14.00" fill="#000000">GO:0044424</text>
<text text-anchor="middle" x="261.9804" y="-352.2" font-family="Times,serif" font-size="14.00" fill="#000000">intracellular part</text>
</g>
<!-- GO:0044444&#45;&gt;GO:0044424 -->
<g id="edge4" class="edge">
<title>GO:0044444&#45;&gt;GO:0044424</title>
<path fill="none" stroke="#000000" d="M313.1487,-205.0918C311.6151,-230.1124 307.2686,-273.1981 294.9804,-308 291.69,-317.3189 286.8459,-326.8373 281.8771,-335.3522"/>
<polygon fill="#000000" stroke="#000000" points="278.7339,-333.7835 276.5041,-344.141 284.7063,-337.4347 278.7339,-333.7835"/>
</g>
<!-- GO:0043229 -->
<g id="node6" class="node">
<title>GO:0043229</title>
<polygon fill="#ffffff" stroke="#000000" points="285.6988,-299.4019 146.262,-299.4019 146.262,-258.1981 285.6988,-258.1981 285.6988,-299.4019"/>
<text text-anchor="middle" x="215.9804" y="-283" font-family="Times,serif" font-size="14.00" fill="#000000">GO:0043229</text>
<text text-anchor="middle" x="215.9804" y="-266.2" font-family="Times,serif" font-size="14.00" fill="#000000">intracellular organelle</text>
</g>
<!-- GO:0043231&#45;&gt;GO:0043229 -->
<g id="edge5" class="edge">
<title>GO:0043231&#45;&gt;GO:0043229</title>
<path fill="none" stroke="#000000" d="M181.5266,-213.7513C187.484,-224.9989 194.2814,-237.8323 200.2554,-249.1112"/>
<polygon fill="#000000" stroke="#000000" points="197.2698,-250.9522 205.0434,-258.151 203.4557,-247.6758 197.2698,-250.9522"/>
</g>
<!-- GO:0043227 -->
<g id="node7" class="node">
<title>GO:0043227</title>
<polygon fill="#ffffff" stroke="#000000" points="127.9412,-308.2014 .0196,-308.2014 .0196,-249.3986 127.9412,-249.3986 127.9412,-308.2014"/>
<text text-anchor="middle" x="63.9804" y="-291.4" font-family="Times,serif" font-size="14.00" fill="#000000">GO:0043227</text>
<text text-anchor="middle" x="63.9804" y="-274.6" font-family="Times,serif" font-size="14.00" fill="#000000">membrane&#45;bounded</text>
<text text-anchor="middle" x="63.9804" y="-257.8" font-family="Times,serif" font-size="14.00" fill="#000000">organelle</text>
</g>
<!-- GO:0043231&#45;&gt;GO:0043227 -->
<g id="edge6" class="edge">
<title>GO:0043231&#45;&gt;GO:0043227</title>
<path fill="none" stroke="#000000" d="M134.2661,-213.7513C124.3837,-222.8973 113.3683,-233.092 103.0443,-242.6467"/>
<polygon fill="#000000" stroke="#000000" points="100.637,-240.1057 95.6751,-249.4669 105.3917,-245.2432 100.637,-240.1057"/>
</g>
<!-- GO:0044464 -->
<g id="node8" class="node">
<title>GO:0044464</title>
<polygon fill="#ffffff" stroke="#000000" points="315.5843,-463.0019 226.3765,-463.0019 226.3765,-421.7981 315.5843,-421.7981 315.5843,-463.0019"/>
<text text-anchor="middle" x="270.9804" y="-446.6" font-family="Times,serif" font-size="14.00" fill="#000000">GO:0044464</text>
<text text-anchor="middle" x="270.9804" y="-429.8" font-family="Times,serif" font-size="14.00" fill="#000000">cell part</text>
</g>
<!-- GO:0044424&#45;&gt;GO:0044464 -->
<g id="edge7" class="edge">
<title>GO:0044424&#45;&gt;GO:0044464</title>
<path fill="none" stroke="#000000" d="M264.3922,-385.5954C265.3103,-393.5109 266.3773,-402.7109 267.3818,-411.3722"/>
<polygon fill="#000000" stroke="#000000" points="263.9331,-412.0171 268.5619,-421.5472 270.8864,-411.2106 263.9331,-412.0171"/>
</g>
<!-- GO:0043229&#45;&gt;GO:0044424 -->
<g id="edge8" class="edge">
<title>GO:0043229&#45;&gt;GO:0044424</title>
<path fill="none" stroke="#000000" d="M227.1157,-299.6182C232.8225,-310.2874 239.8712,-323.4655 246.1341,-335.1743"/>
<polygon fill="#000000" stroke="#000000" points="243.1448,-337.0065 250.9476,-344.1735 249.3173,-333.7049 243.1448,-337.0065"/>
</g>
<!-- GO:0043226 -->
<g id="node9" class="node">
<title>GO:0043226</title>
<polygon fill="#ffffff" stroke="#000000" points="189.5843,-385.4019 100.3765,-385.4019 100.3765,-344.1981 189.5843,-344.1981 189.5843,-385.4019"/>
<text text-anchor="middle" x="144.9804" y="-369" font-family="Times,serif" font-size="14.00" fill="#000000">GO:0043226</text>
<text text-anchor="middle" x="144.9804" y="-352.2" font-family="Times,serif" font-size="14.00" fill="#000000">organelle</text>
</g>
<!-- GO:0043229&#45;&gt;GO:0043226 -->
<g id="edge9" class="edge">
<title>GO:0043229&#45;&gt;GO:0043226</title>
<path fill="none" stroke="#000000" d="M198.7933,-299.6182C189.7234,-310.6043 178.4573,-324.2506 168.5808,-336.2137"/>
<polygon fill="#000000" stroke="#000000" points="165.6767,-334.2337 162.0092,-344.1735 171.0748,-338.6902 165.6767,-334.2337"/>
</g>
<!-- GO:0043227&#45;&gt;GO:0043226 -->
<g id="edge10" class="edge">
<title>GO:0043227&#45;&gt;GO:0043226</title>
<path fill="none" stroke="#000000" d="M91.856,-308.3963C100.508,-317.5824 110.014,-327.6752 118.5637,-336.7526"/>
<polygon fill="#000000" stroke="#000000" points="116.0765,-339.2167 125.4806,-344.0966 121.1722,-334.4173 116.0765,-339.2167"/>
</g>
<!-- GO:0005575 -->
<g id="node10" class="node">
<title>GO:0005575</title>
<polygon fill="#ffffff" stroke="#000000" points="334.6671,-540.6019 207.2937,-540.6019 207.2937,-499.3981 334.6671,-499.3981 334.6671,-540.6019"/>
<text text-anchor="middle" x="270.9804" y="-524.2" font-family="Times,serif" font-size="14.00" fill="#000000">GO:0005575</text>
<text text-anchor="middle" x="270.9804" y="-507.4" font-family="Times,serif" font-size="14.00" fill="#000000">cellular_component</text>
</g>
<!-- GO:0044464&#45;&gt;GO:0005575 -->
<g id="edge11" class="edge">
<title>GO:0044464&#45;&gt;GO:0005575</title>
<path fill="none" stroke="#000000" d="M270.9804,-463.1954C270.9804,-471.1109 270.9804,-480.3109 270.9804,-488.9722"/>
<polygon fill="#000000" stroke="#000000" points="267.4805,-489.1472 270.9804,-499.1472 274.4805,-489.1473 267.4805,-489.1472"/>
</g>
<!-- GO:0043226&#45;&gt;GO:0005575 -->
<g id="edge12" class="edge">
<title>GO:0043226&#45;&gt;GO:0005575</title>
<path fill="none" stroke="#000000" d="M159.1294,-385.735C173.138,-406.065 195.5389,-437.5315 216.9804,-463.2 225.0899,-472.9082 234.4311,-483.0562 243.0398,-492.0442"/>
<polygon fill="#000000" stroke="#000000" points="240.5839,-494.5393 250.0558,-499.2862 245.6115,-489.6686 240.5839,-494.5393"/>
</g>
<!-- GO:0016323 -->
<g id="node11" class="node">
<title>GO:0016323</title>
<polygon fill="#ffffff" stroke="#000000" points="512.771,-213.8014 393.1898,-213.8014 393.1898,-154.9986 512.771,-154.9986 512.771,-213.8014"/>
<text text-anchor="middle" x="452.9804" y="-197" font-family="Times,serif" font-size="14.00" fill="#000000">GO:0016323</text>
<text text-anchor="middle" x="452.9804" y="-180.2" font-family="Times,serif" font-size="14.00" fill="#000000">basolateral plasma</text>
<text text-anchor="middle" x="452.9804" y="-163.4" font-family="Times,serif" font-size="14.00" fill="#000000">membrane</text>
</g>
<!-- GO:0098590 -->
<g id="node12" class="node">
<title>GO:0098590</title>
<polygon fill="#ffffff" stroke="#000000" points="531.4876,-299.4019 374.4732,-299.4019 374.4732,-258.1981 531.4876,-258.1981 531.4876,-299.4019"/>
<text text-anchor="middle" x="452.9804" y="-283" font-family="Times,serif" font-size="14.00" fill="#000000">GO:0098590</text>
<text text-anchor="middle" x="452.9804" y="-266.2" font-family="Times,serif" font-size="14.00" fill="#000000">plasma membrane region</text>
</g>
<!-- GO:0016323&#45;&gt;GO:0098590 -->
<g id="edge13" class="edge">
<title>GO:0016323&#45;&gt;GO:0098590</title>
<path fill="none" stroke="#000000" d="M452.9804,-213.7513C452.9804,-224.6614 452.9804,-237.0637 452.9804,-248.092"/>
<polygon fill="#000000" stroke="#000000" points="449.4805,-248.1509 452.9804,-258.151 456.4805,-248.151 449.4805,-248.1509"/>
</g>
<!-- GO:0016020 -->
<g id="node13" class="node">
<title>GO:0016020</title>
<polygon fill="#ffffff" stroke="#000000" points="550.5843,-463.0019 461.3765,-463.0019 461.3765,-421.7981 550.5843,-421.7981 550.5843,-463.0019"/>
<text text-anchor="middle" x="505.9804" y="-446.6" font-family="Times,serif" font-size="14.00" fill="#000000">GO:0016020</text>
<text text-anchor="middle" x="505.9804" y="-429.8" font-family="Times,serif" font-size="14.00" fill="#000000">membrane</text>
</g>
<!-- GO:0098590&#45;&gt;GO:0016020 -->
<g id="edge14" class="edge">
<title>GO:0098590&#45;&gt;GO:0016020</title>
<path fill="none" stroke="#000000" d="M465.7756,-299.5378C472.9642,-312.0169 481.5551,-328.4511 486.9804,-344 494.6571,-366.0015 499.5017,-391.9142 502.3765,-411.624"/>
<polygon fill="#000000" stroke="#000000" points="498.9169,-412.1582 503.7406,-421.5912 505.8522,-411.2089 498.9169,-412.1582"/>
</g>
<!-- GO:0044459 -->
<g id="node14" class="node">
<title>GO:0044459</title>
<polygon fill="#ffffff" stroke="#000000" points="477.4876,-385.4019 334.4732,-385.4019 334.4732,-344.1981 477.4876,-344.1981 477.4876,-385.4019"/>
<text text-anchor="middle" x="405.9804" y="-369" font-family="Times,serif" font-size="14.00" fill="#000000">GO:0044459</text>
<text text-anchor="middle" x="405.9804" y="-352.2" font-family="Times,serif" font-size="14.00" fill="#000000">plasma membrane part</text>
</g>
<!-- GO:0098590&#45;&gt;GO:0044459 -->
<g id="edge15" class="edge">
<title>GO:0098590&#45;&gt;GO:0044459</title>
<path fill="none" stroke="#000000" d="M441.603,-299.6182C435.7722,-310.2874 428.5702,-323.4655 422.1712,-335.1743"/>
<polygon fill="#000000" stroke="#000000" points="418.9775,-333.7199 417.253,-344.1735 425.12,-337.077 418.9775,-333.7199"/>
</g>
<!-- GO:0016020&#45;&gt;GO:0005575 -->
<g id="edge16" class="edge">
<title>GO:0016020&#45;&gt;GO:0005575</title>
<path fill="none" stroke="#000000" d="M461.2722,-459.8725C458.1358,-461.0207 455.0156,-462.1404 451.9804,-463.2 416.8876,-475.451 377.5584,-487.9394 344.5485,-498.075"/>
<polygon fill="#000000" stroke="#000000" points="343.507,-494.7334 334.968,-501.0052 345.5544,-501.4273 343.507,-494.7334"/>
</g>
<!-- GO:0044459&#45;&gt;GO:0044464 -->
<g id="edge18" class="edge">
<title>GO:0044459&#45;&gt;GO:0044464</title>
<path fill="none" stroke="#000000" d="M369.8029,-385.5954C353.3085,-395.0766 333.608,-406.4008 316.1524,-416.4345"/>
<polygon fill="#000000" stroke="#000000" points="314.1833,-413.5292 307.2578,-421.5472 317.6718,-419.5981 314.1833,-413.5292"/>
</g>
<!-- GO:0044425 -->
<g id="node15" class="node">
<title>GO:0044425</title>
<polygon fill="#ffffff" stroke="#000000" points="443.3324,-463.0019 342.6284,-463.0019 342.6284,-421.7981 443.3324,-421.7981 443.3324,-463.0019"/>
<text text-anchor="middle" x="392.9804" y="-446.6" font-family="Times,serif" font-size="14.00" fill="#000000">GO:0044425</text>
<text text-anchor="middle" x="392.9804" y="-429.8" font-family="Times,serif" font-size="14.00" fill="#000000">membrane part</text>
</g>
<!-- GO:0044459&#45;&gt;GO:0044425 -->
<g id="edge17" class="edge">
<title>GO:0044459&#45;&gt;GO:0044425</title>
<path fill="none" stroke="#000000" d="M402.4966,-385.5954C401.156,-393.5978 399.5954,-402.9133 398.1306,-411.6575"/>
<polygon fill="#000000" stroke="#000000" points="394.6742,-411.1063 396.4738,-421.5472 401.578,-412.263 394.6742,-411.1063"/>
</g>
</g>
</svg>
