<?xml version="1.0" encoding="UTF-8" standalone="no"?>
<!DOCTYPE svg PUBLIC "-//W3C//DTD SVG 1.1//EN"
 "http://www.w3.org/Graphics/SVG/1.1/DTD/svg11.dtd">
<!-- Generated by graphviz version 2.40.1 (20161225.0304)
 -->
<!-- Title: G Pages: 1 -->
<svg width="1354pt" height="805pt"
 viewBox="0.00 0.00 1353.88 804.80" xmlns="http://www.w3.org/2000/svg" xmlns:xlink="http://www.w3.org/1999/xlink">
<g id="graph0" class="graph" transform="scale(1 1) rotate(0) translate(4 800.8)">
<title>G</title>
<polygon fill="#ffffff" stroke="transparent" points="-4,4 -4,-800.8 1349.8847,-800.8 1349.8847,4 -4,4"/>
<!-- GO:0006090 -->
<g id="node1" class="node">
<title>GO:0006090</title>
<polygon fill="#ffffff" stroke="#000000" points="305.6141,-58.6014 182.2401,-58.6014 182.2401,.2014 305.6141,.2014 305.6141,-58.6014"/>
<text text-anchor="middle" x="243.9271" y="-41.8" font-family="Times,serif" font-size="14.00" fill="#000000">GO:0006090</text>
<text text-anchor="middle" x="243.9271" y="-25" font-family="Times,serif" font-size="14.00" fill="#000000">pyruvate metabolic</text>
<text text-anchor="middle" x="243.9271" y="-8.2" font-family="Times,serif" font-size="14.00" fill="#000000">process</text>
</g>
<!-- GO:0032787 -->
<g id="node2" class="node">
<title>GO:0032787</title>
<polygon fill="#ffffff" stroke="#000000" points="310.7233,-153.0014 177.1309,-153.0014 177.1309,-94.1986 310.7233,-94.1986 310.7233,-153.0014"/>
<text text-anchor="middle" x="243.9271" y="-136.2" font-family="Times,serif" font-size="14.00" fill="#000000">GO:0032787</text>
<text text-anchor="middle" x="243.9271" y="-119.4" font-family="Times,serif" font-size="14.00" fill="#000000">monocarboxylic acid</text>
<text text-anchor="middle" x="243.9271" y="-102.6" font-family="Times,serif" font-size="14.00" fill="#000000">metabolic process</text>
</g>
<!-- GO:0006090&#45;&gt;GO:0032787 -->
<g id="edge1" class="edge">
<title>GO:0006090&#45;&gt;GO:0032787</title>
<path fill="none" stroke="#000000" d="M243.9271,-58.5513C243.9271,-66.6318 243.9271,-75.5308 243.9271,-84.0838"/>
<polygon fill="#000000" stroke="#000000" points="240.4272,-84.2668 243.9271,-94.2669 247.4272,-84.2669 240.4272,-84.2668"/>
</g>
<!-- GO:0019752 -->
<g id="node3" class="node">
<title>GO:0019752</title>
<polygon fill="#ffffff" stroke="#000000" points="324.0392,-247.4014 163.815,-247.4014 163.815,-188.5986 324.0392,-188.5986 324.0392,-247.4014"/>
<text text-anchor="middle" x="243.9271" y="-230.6" font-family="Times,serif" font-size="14.00" fill="#000000">GO:0019752</text>
<text text-anchor="middle" x="243.9271" y="-213.8" font-family="Times,serif" font-size="14.00" fill="#000000">carboxylic acid metabolic</text>
<text text-anchor="middle" x="243.9271" y="-197" font-family="Times,serif" font-size="14.00" fill="#000000">process</text>
</g>
<!-- GO:0032787&#45;&gt;GO:0019752 -->
<g id="edge2" class="edge">
<title>GO:0032787&#45;&gt;GO:0019752</title>
<path fill="none" stroke="#000000" d="M243.9271,-152.9513C243.9271,-161.0318 243.9271,-169.9308 243.9271,-178.4838"/>
<polygon fill="#000000" stroke="#000000" points="240.4272,-178.6668 243.9271,-188.6669 247.4272,-178.6669 240.4272,-178.6668"/>
</g>
<!-- GO:0043436 -->
<g id="node4" class="node">
<title>GO:0043436</title>
<polygon fill="#ffffff" stroke="#000000" points="325.9328,-333.0019 161.9214,-333.0019 161.9214,-291.7981 325.9328,-291.7981 325.9328,-333.0019"/>
<text text-anchor="middle" x="243.9271" y="-316.6" font-family="Times,serif" font-size="14.00" fill="#000000">GO:0043436</text>
<text text-anchor="middle" x="243.9271" y="-299.8" font-family="Times,serif" font-size="14.00" fill="#000000">oxoacid metabolic process</text>
</g>
<!-- GO:0019752&#45;&gt;GO:0043436 -->
<g id="edge3" class="edge">
<title>GO:0019752&#45;&gt;GO:0043436</title>
<path fill="none" stroke="#000000" d="M243.9271,-247.3513C243.9271,-258.2614 243.9271,-270.6637 243.9271,-281.692"/>
<polygon fill="#000000" stroke="#000000" points="240.4272,-281.7509 243.9271,-291.751 247.4272,-281.751 240.4272,-281.7509"/>
</g>
<!-- GO:0006082 -->
<g id="node5" class="node">
<title>GO:0006082</title>
<polygon fill="#ffffff" stroke="#000000" points="315.4343,-444.6014 172.4199,-444.6014 172.4199,-385.7986 315.4343,-385.7986 315.4343,-444.6014"/>
<text text-anchor="middle" x="243.9271" y="-427.8" font-family="Times,serif" font-size="14.00" fill="#000000">GO:0006082</text>
<text text-anchor="middle" x="243.9271" y="-411" font-family="Times,serif" font-size="14.00" fill="#000000">organic acid metabolic</text>
<text text-anchor="middle" x="243.9271" y="-394.2" font-family="Times,serif" font-size="14.00" fill="#000000">process</text>
</g>
<!-- GO:0043436&#45;&gt;GO:0006082 -->
<g id="edge4" class="edge">
<title>GO:0043436&#45;&gt;GO:0006082</title>
<path fill="none" stroke="#000000" d="M243.9271,-333.2031C243.9271,-345.3833 243.9271,-361.1676 243.9271,-375.6305"/>
<polygon fill="#000000" stroke="#000000" points="240.4272,-375.8577 243.9271,-385.8577 247.4272,-375.8578 240.4272,-375.8577"/>
</g>
<!-- GO:0071704 -->
<g id="node6" class="node">
<title>GO:0071704</title>
<polygon fill="#ffffff" stroke="#000000" points="941.1127,-641.8014 824.7415,-641.8014 824.7415,-582.9986 941.1127,-582.9986 941.1127,-641.8014"/>
<text text-anchor="middle" x="882.9271" y="-625" font-family="Times,serif" font-size="14.00" fill="#000000">GO:0071704</text>
<text text-anchor="middle" x="882.9271" y="-608.2" font-family="Times,serif" font-size="14.00" fill="#000000">organic substance</text>
<text text-anchor="middle" x="882.9271" y="-591.4" font-family="Times,serif" font-size="14.00" fill="#000000">metabolic process</text>
</g>
<!-- GO:0006082&#45;&gt;GO:0071704 -->
<g id="edge5" class="edge">
<title>GO:0006082&#45;&gt;GO:0071704</title>
<path fill="none" stroke="#000000" d="M315.511,-432.4495C347.3297,-439.6095 385.3406,-447.4723 419.9271,-452.8 503.1049,-465.6126 726.3396,-442.9729 796.9271,-488.8 821.9323,-505.034 813.1319,-522.5683 829.9271,-547.2 836.2819,-556.5199 843.6334,-566.1584 850.7997,-575.0726"/>
<polygon fill="#000000" stroke="#000000" points="848.2586,-577.4944 857.295,-583.0256 853.6803,-573.0665 848.2586,-577.4944"/>
</g>
<!-- GO:0044763 -->
<g id="node7" class="node">
<title>GO:0044763</title>
<polygon fill="#ffffff" stroke="#000000" points="305.6056,-641.8014 154.2486,-641.8014 154.2486,-582.9986 305.6056,-582.9986 305.6056,-641.8014"/>
<text text-anchor="middle" x="229.9271" y="-625" font-family="Times,serif" font-size="14.00" fill="#000000">GO:0044763</text>
<text text-anchor="middle" x="229.9271" y="-608.2" font-family="Times,serif" font-size="14.00" fill="#000000">single&#45;organism cellular</text>
<text text-anchor="middle" x="229.9271" y="-591.4" font-family="Times,serif" font-size="14.00" fill="#000000">process</text>
</g>
<!-- GO:0006082&#45;&gt;GO:0044763 -->
<g id="edge6" class="edge">
<title>GO:0006082&#45;&gt;GO:0044763</title>
<path fill="none" stroke="#000000" d="M175.0829,-444.4194C157.1696,-455.5563 140.0688,-470.1806 129.9271,-488.8 117.5117,-511.5936 117.563,-524.3785 129.9271,-547.2 136.2603,-558.8896 145.6985,-568.8148 156.2881,-577.1258"/>
<polygon fill="#000000" stroke="#000000" points="154.4355,-580.1065 164.578,-583.1691 158.5591,-574.45 154.4355,-580.1065"/>
</g>
<!-- GO:0044281 -->
<g id="node8" class="node">
<title>GO:0044281</title>
<polygon fill="#ffffff" stroke="#000000" points="331.78,-547.4014 172.0742,-547.4014 172.0742,-488.5986 331.78,-488.5986 331.78,-547.4014"/>
<text text-anchor="middle" x="251.9271" y="-530.6" font-family="Times,serif" font-size="14.00" fill="#000000">GO:0044281</text>
<text text-anchor="middle" x="251.9271" y="-513.8" font-family="Times,serif" font-size="14.00" fill="#000000">small molecule metabolic</text>
<text text-anchor="middle" x="251.9271" y="-497" font-family="Times,serif" font-size="14.00" fill="#000000">process</text>
</g>
<!-- GO:0006082&#45;&gt;GO:0044281 -->
<g id="edge7" class="edge">
<title>GO:0006082&#45;&gt;GO:0044281</title>
<path fill="none" stroke="#000000" d="M246.2196,-444.6584C247.0397,-455.1969 247.9777,-467.2505 248.8531,-478.4994"/>
<polygon fill="#000000" stroke="#000000" points="245.3689,-478.8391 249.6343,-488.5373 252.3478,-478.2959 245.3689,-478.8391"/>
</g>
<!-- GO:0044237 -->
<g id="node9" class="node">
<title>GO:0044237</title>
<polygon fill="#ffffff" stroke="#000000" points="440.1099,-641.8014 323.7443,-641.8014 323.7443,-582.9986 440.1099,-582.9986 440.1099,-641.8014"/>
<text text-anchor="middle" x="381.9271" y="-625" font-family="Times,serif" font-size="14.00" fill="#000000">GO:0044237</text>
<text text-anchor="middle" x="381.9271" y="-608.2" font-family="Times,serif" font-size="14.00" fill="#000000">cellular metabolic</text>
<text text-anchor="middle" x="381.9271" y="-591.4" font-family="Times,serif" font-size="14.00" fill="#000000">process</text>
</g>
<!-- GO:0006082&#45;&gt;GO:0044237 -->
<g id="edge8" class="edge">
<title>GO:0006082&#45;&gt;GO:0044237</title>
<path fill="none" stroke="#000000" d="M198.9156,-444.5259C184.6576,-456.3932 170.616,-471.4246 162.9271,-488.8 152.4238,-512.5354 146.827,-526.8413 162.9271,-547.2 204.0563,-599.2081 245.1959,-564.6834 313.8312,-583.3005"/>
<polygon fill="#000000" stroke="#000000" points="313.1159,-586.741 323.7013,-586.2947 315.148,-580.0424 313.1159,-586.741"/>
</g>
<!-- GO:0008152 -->
<g id="node10" class="node">
<title>GO:0008152</title>
<polygon fill="#ffffff" stroke="#000000" points="763.1127,-719.0019 646.7415,-719.0019 646.7415,-677.7981 763.1127,-677.7981 763.1127,-719.0019"/>
<text text-anchor="middle" x="704.9271" y="-702.6" font-family="Times,serif" font-size="14.00" fill="#000000">GO:0008152</text>
<text text-anchor="middle" x="704.9271" y="-685.8" font-family="Times,serif" font-size="14.00" fill="#000000">metabolic process</text>
</g>
<!-- GO:0071704&#45;&gt;GO:0008152 -->
<g id="edge9" class="edge">
<title>GO:0071704&#45;&gt;GO:0008152</title>
<path fill="none" stroke="#000000" d="M824.6432,-640.5596C802.8279,-651.0996 778.2061,-662.9955 756.9892,-673.2464"/>
<polygon fill="#000000" stroke="#000000" points="755.2954,-670.1776 747.8138,-677.6794 758.3406,-676.4805 755.2954,-670.1776"/>
</g>
<!-- GO:0009987 -->
<g id="node11" class="node">
<title>GO:0009987</title>
<polygon fill="#ffffff" stroke="#000000" points="433.8833,-719.0019 329.9709,-719.0019 329.9709,-677.7981 433.8833,-677.7981 433.8833,-719.0019"/>
<text text-anchor="middle" x="381.9271" y="-702.6" font-family="Times,serif" font-size="14.00" fill="#000000">GO:0009987</text>
<text text-anchor="middle" x="381.9271" y="-685.8" font-family="Times,serif" font-size="14.00" fill="#000000">cellular process</text>
</g>
<!-- GO:0044763&#45;&gt;GO:0009987 -->
<g id="edge10" class="edge">
<title>GO:0044763&#45;&gt;GO:0009987</title>
<path fill="none" stroke="#000000" d="M281.8117,-641.7558C299.535,-651.7834 319.2101,-662.9154 336.3947,-672.6383"/>
<polygon fill="#000000" stroke="#000000" points="334.7036,-675.7028 345.1306,-677.5809 338.1507,-669.6103 334.7036,-675.7028"/>
</g>
<!-- GO:0044699 -->
<g id="node12" class="node">
<title>GO:0044699</title>
<polygon fill="#ffffff" stroke="#000000" points="609.6084,-719.0019 458.2458,-719.0019 458.2458,-677.7981 609.6084,-677.7981 609.6084,-719.0019"/>
<text text-anchor="middle" x="533.9271" y="-702.6" font-family="Times,serif" font-size="14.00" fill="#000000">GO:0044699</text>
<text text-anchor="middle" x="533.9271" y="-685.8" font-family="Times,serif" font-size="14.00" fill="#000000">single&#45;organism process</text>
</g>
<!-- GO:0044763&#45;&gt;GO:0044699 -->
<g id="edge11" class="edge">
<title>GO:0044763&#45;&gt;GO:0044699</title>
<path fill="none" stroke="#000000" d="M305.833,-638.8002C308.8987,-639.7636 311.9388,-640.7007 314.9271,-641.6 358.535,-654.7241 407.563,-667.6109 448.1571,-677.7835"/>
<polygon fill="#000000" stroke="#000000" points="447.4688,-681.219 458.0186,-680.243 449.1628,-674.427 447.4688,-681.219"/>
</g>
<!-- GO:0044710 -->
<g id="node13" class="node">
<title>GO:0044710</title>
<polygon fill="#ffffff" stroke="#000000" points="623.3353,-641.8014 458.5189,-641.8014 458.5189,-582.9986 623.3353,-582.9986 623.3353,-641.8014"/>
<text text-anchor="middle" x="540.9271" y="-625" font-family="Times,serif" font-size="14.00" fill="#000000">GO:0044710</text>
<text text-anchor="middle" x="540.9271" y="-608.2" font-family="Times,serif" font-size="14.00" fill="#000000">single&#45;organism metabolic</text>
<text text-anchor="middle" x="540.9271" y="-591.4" font-family="Times,serif" font-size="14.00" fill="#000000">process</text>
</g>
<!-- GO:0044281&#45;&gt;GO:0044710 -->
<g id="edge12" class="edge">
<title>GO:0044281&#45;&gt;GO:0044710</title>
<path fill="none" stroke="#000000" d="M331.9783,-544.2719C334.9994,-545.2609 337.9904,-546.2396 340.9271,-547.2 375.9952,-558.6688 414.5328,-571.2398 448.3399,-582.2568"/>
<polygon fill="#000000" stroke="#000000" points="447.6129,-585.701 458.2053,-585.4714 449.7817,-579.0454 447.6129,-585.701"/>
</g>
<!-- GO:0044237&#45;&gt;GO:0008152 -->
<g id="edge14" class="edge">
<title>GO:0044237&#45;&gt;GO:0008152</title>
<path fill="none" stroke="#000000" d="M440.2562,-638.3073C443.5053,-639.4806 446.7436,-640.5881 449.9271,-641.6 523.1156,-664.8621 544.0424,-660.5717 618.9271,-677.6 624.6845,-678.9092 630.6518,-680.2942 636.6362,-681.7027"/>
<polygon fill="#000000" stroke="#000000" points="636.1517,-685.1848 646.6894,-684.086 637.7665,-678.3735 636.1517,-685.1848"/>
</g>
<!-- GO:0044237&#45;&gt;GO:0009987 -->
<g id="edge13" class="edge">
<title>GO:0044237&#45;&gt;GO:0009987</title>
<path fill="none" stroke="#000000" d="M381.9271,-641.9963C381.9271,-650.2638 381.9271,-659.2657 381.9271,-667.6008"/>
<polygon fill="#000000" stroke="#000000" points="378.4272,-667.6965 381.9271,-677.6966 385.4272,-667.6966 378.4272,-667.6965"/>
</g>
<!-- GO:0008150 -->
<g id="node14" class="node">
<title>GO:0008150</title>
<polygon fill="#ffffff" stroke="#000000" points="594.3977,-796.6019 473.4565,-796.6019 473.4565,-755.3981 594.3977,-755.3981 594.3977,-796.6019"/>
<text text-anchor="middle" x="533.9271" y="-780.2" font-family="Times,serif" font-size="14.00" fill="#000000">GO:0008150</text>
<text text-anchor="middle" x="533.9271" y="-763.4" font-family="Times,serif" font-size="14.00" fill="#000000">biological_process</text>
</g>
<!-- GO:0008152&#45;&gt;GO:0008150 -->
<g id="edge15" class="edge">
<title>GO:0008152&#45;&gt;GO:0008150</title>
<path fill="none" stroke="#000000" d="M659.1022,-719.1954C637.4516,-729.0205 611.4397,-740.8247 588.7506,-751.121"/>
<polygon fill="#000000" stroke="#000000" points="587.2416,-747.9622 579.5817,-755.2819 590.1343,-754.3366 587.2416,-747.9622"/>
</g>
<!-- GO:0009987&#45;&gt;GO:0008150 -->
<g id="edge16" class="edge">
<title>GO:0009987&#45;&gt;GO:0008150</title>
<path fill="none" stroke="#000000" d="M422.6603,-719.1954C441.6487,-728.8895 464.4111,-740.5102 484.3868,-750.7084"/>
<polygon fill="#000000" stroke="#000000" points="482.8473,-753.8521 493.3452,-755.2819 486.0302,-747.6176 482.8473,-753.8521"/>
</g>
<!-- GO:0044699&#45;&gt;GO:0008150 -->
<g id="edge17" class="edge">
<title>GO:0044699&#45;&gt;GO:0008150</title>
<path fill="none" stroke="#000000" d="M533.9271,-719.1954C533.9271,-727.1109 533.9271,-736.3109 533.9271,-744.9722"/>
<polygon fill="#000000" stroke="#000000" points="530.4272,-745.1472 533.9271,-755.1472 537.4272,-745.1473 530.4272,-745.1472"/>
</g>
<!-- GO:0044710&#45;&gt;GO:0008152 -->
<g id="edge18" class="edge">
<title>GO:0044710&#45;&gt;GO:0008152</title>
<path fill="none" stroke="#000000" d="M596.9079,-641.7558C616.2855,-651.9172 637.8257,-663.2127 656.5409,-673.0267"/>
<polygon fill="#000000" stroke="#000000" points="654.9979,-676.1696 665.4795,-677.7141 658.2488,-669.9703 654.9979,-676.1696"/>
</g>
<!-- GO:0044710&#45;&gt;GO:0044699 -->
<g id="edge19" class="edge">
<title>GO:0044710&#45;&gt;GO:0044699</title>
<path fill="none" stroke="#000000" d="M538.5181,-641.9963C537.8452,-650.2638 537.1124,-659.2657 536.434,-667.6008"/>
<polygon fill="#000000" stroke="#000000" points="532.9352,-667.4455 535.6123,-677.6966 539.9121,-668.0135 532.9352,-667.4455"/>
</g>
<!-- GO:0019682 -->
<g id="node15" class="node">
<title>GO:0019682</title>
<polygon fill="#ffffff" stroke="#000000" points="865.3133,-341.8014 696.5409,-341.8014 696.5409,-282.9986 865.3133,-282.9986 865.3133,-341.8014"/>
<text text-anchor="middle" x="780.9271" y="-325" font-family="Times,serif" font-size="14.00" fill="#000000">GO:0019682</text>
<text text-anchor="middle" x="780.9271" y="-308.2" font-family="Times,serif" font-size="14.00" fill="#000000">glyceraldehyde&#45;3&#45;phosphat</text>
<text text-anchor="middle" x="780.9271" y="-291.4" font-family="Times,serif" font-size="14.00" fill="#000000">e metabolic process</text>
</g>
<!-- GO:0019637 -->
<g id="node16" class="node">
<title>GO:0019637</title>
<polygon fill="#ffffff" stroke="#000000" points="753.2733,-444.6014 582.5809,-444.6014 582.5809,-385.7986 753.2733,-385.7986 753.2733,-444.6014"/>
<text text-anchor="middle" x="667.9271" y="-427.8" font-family="Times,serif" font-size="14.00" fill="#000000">GO:0019637</text>
<text text-anchor="middle" x="667.9271" y="-411" font-family="Times,serif" font-size="14.00" fill="#000000">organophosphate metabolic</text>
<text text-anchor="middle" x="667.9271" y="-394.2" font-family="Times,serif" font-size="14.00" fill="#000000">process</text>
</g>
<!-- GO:0019682&#45;&gt;GO:0019637 -->
<g id="edge20" class="edge">
<title>GO:0019682&#45;&gt;GO:0019637</title>
<path fill="none" stroke="#000000" d="M748.5458,-341.8584C735.8977,-353.3648 721.2645,-366.6771 707.9647,-378.7765"/>
<polygon fill="#000000" stroke="#000000" points="705.3549,-376.419 700.3131,-385.7373 710.0654,-381.5969 705.3549,-376.419"/>
</g>
<!-- GO:1901135 -->
<g id="node17" class="node">
<title>GO:1901135</title>
<polygon fill="#ffffff" stroke="#000000" points="956.9742,-444.6014 808.88,-444.6014 808.88,-385.7986 956.9742,-385.7986 956.9742,-444.6014"/>
<text text-anchor="middle" x="882.9271" y="-427.8" font-family="Times,serif" font-size="14.00" fill="#000000">GO:1901135</text>
<text text-anchor="middle" x="882.9271" y="-411" font-family="Times,serif" font-size="14.00" fill="#000000">carbohydrate derivative</text>
<text text-anchor="middle" x="882.9271" y="-394.2" font-family="Times,serif" font-size="14.00" fill="#000000">metabolic process</text>
</g>
<!-- GO:0019682&#45;&gt;GO:1901135 -->
<g id="edge21" class="edge">
<title>GO:0019682&#45;&gt;GO:1901135</title>
<path fill="none" stroke="#000000" d="M810.1562,-341.8584C821.4664,-353.2572 834.5351,-366.4285 846.4501,-378.4369"/>
<polygon fill="#000000" stroke="#000000" points="844.1658,-381.1039 853.6937,-385.7373 849.1348,-376.1735 844.1658,-381.1039"/>
</g>
<!-- GO:0006796 -->
<g id="node18" class="node">
<title>GO:0006796</title>
<polygon fill="#ffffff" stroke="#000000" points="564.9539,-452.9003 428.9003,-452.9003 428.9003,-377.4997 564.9539,-377.4997 564.9539,-452.9003"/>
<text text-anchor="middle" x="496.9271" y="-436.2" font-family="Times,serif" font-size="14.00" fill="#000000">GO:0006796</text>
<text text-anchor="middle" x="496.9271" y="-419.4" font-family="Times,serif" font-size="14.00" fill="#000000">phosphate&#45;containing</text>
<text text-anchor="middle" x="496.9271" y="-402.6" font-family="Times,serif" font-size="14.00" fill="#000000">compound metabolic</text>
<text text-anchor="middle" x="496.9271" y="-385.8" font-family="Times,serif" font-size="14.00" fill="#000000">process</text>
</g>
<!-- GO:0019682&#45;&gt;GO:0006796 -->
<g id="edge22" class="edge">
<title>GO:0019682&#45;&gt;GO:0006796</title>
<path fill="none" stroke="#000000" d="M696.4513,-338.931C649.3965,-353.7195 596.9059,-370.2366 574.6277,-377.8269"/>
<polygon fill="#000000" stroke="#000000" points="573.3483,-374.5675 565.1224,-381.2447 575.7169,-381.1546 573.3483,-374.5675"/>
</g>
<!-- GO:0006081 -->
<g id="node19" class="node">
<title>GO:0006081</title>
<polygon fill="#ffffff" stroke="#000000" points="624.1127,-547.4014 507.7415,-547.4014 507.7415,-488.5986 624.1127,-488.5986 624.1127,-547.4014"/>
<text text-anchor="middle" x="565.9271" y="-530.6" font-family="Times,serif" font-size="14.00" fill="#000000">GO:0006081</text>
<text text-anchor="middle" x="565.9271" y="-513.8" font-family="Times,serif" font-size="14.00" fill="#000000">cellular aldehyde</text>
<text text-anchor="middle" x="565.9271" y="-497" font-family="Times,serif" font-size="14.00" fill="#000000">metabolic process</text>
</g>
<!-- GO:0019682&#45;&gt;GO:0006081 -->
<g id="edge23" class="edge">
<title>GO:0019682&#45;&gt;GO:0006081</title>
<path fill="none" stroke="#000000" d="M785.5658,-341.6936C788.7701,-373.0174 788.5032,-422.2891 761.9271,-452.8 724.8165,-495.4052 692.4607,-471.5985 633.8398,-488.8905"/>
<polygon fill="#000000" stroke="#000000" points="632.6225,-485.606 624.2012,-492.0351 634.7937,-492.2608 632.6225,-485.606"/>
</g>
<!-- GO:0019637&#45;&gt;GO:0071704 -->
<g id="edge24" class="edge">
<title>GO:0019637&#45;&gt;GO:0071704</title>
<path fill="none" stroke="#000000" d="M753.101,-440.1518C780.3391,-451.4716 808.8582,-467.2763 829.9271,-488.8 852.664,-512.0277 866.3455,-546.5445 874.0964,-573.2031"/>
<polygon fill="#000000" stroke="#000000" points="870.7619,-574.278 876.7831,-582.9956 877.5124,-572.4258 870.7619,-574.278"/>
</g>
<!-- GO:0006793 -->
<g id="node20" class="node">
<title>GO:0006793</title>
<polygon fill="#ffffff" stroke="#000000" points="489.6833,-547.4014 350.1709,-547.4014 350.1709,-488.5986 489.6833,-488.5986 489.6833,-547.4014"/>
<text text-anchor="middle" x="419.9271" y="-530.6" font-family="Times,serif" font-size="14.00" fill="#000000">GO:0006793</text>
<text text-anchor="middle" x="419.9271" y="-513.8" font-family="Times,serif" font-size="14.00" fill="#000000">phosphorus metabolic</text>
<text text-anchor="middle" x="419.9271" y="-497" font-family="Times,serif" font-size="14.00" fill="#000000">process</text>
</g>
<!-- GO:0019637&#45;&gt;GO:0006793 -->
<g id="edge25" class="edge">
<title>GO:0019637&#45;&gt;GO:0006793</title>
<path fill="none" stroke="#000000" d="M597.1921,-444.5208C566.7018,-457.1595 530.9066,-471.9972 499.495,-485.0178"/>
<polygon fill="#000000" stroke="#000000" points="497.7957,-481.9334 489.8981,-488.9959 500.4762,-488.3998 497.7957,-481.9334"/>
</g>
<!-- GO:1901135&#45;&gt;GO:0071704 -->
<g id="edge26" class="edge">
<title>GO:1901135&#45;&gt;GO:0071704</title>
<path fill="none" stroke="#000000" d="M882.9271,-444.7228C882.9271,-478.8024 882.9271,-535.0074 882.9271,-572.8461"/>
<polygon fill="#000000" stroke="#000000" points="879.4272,-572.9978 882.9271,-582.9978 886.4272,-572.9979 879.4272,-572.9978"/>
</g>
<!-- GO:0006796&#45;&gt;GO:0006793 -->
<g id="edge27" class="edge">
<title>GO:0006796&#45;&gt;GO:0006793</title>
<path fill="none" stroke="#000000" d="M468.6924,-452.8952C461.9229,-461.9329 454.6966,-471.5805 447.9373,-480.6046"/>
<polygon fill="#000000" stroke="#000000" points="445.0813,-478.5793 441.8876,-488.6814 450.6839,-482.7759 445.0813,-478.5793"/>
</g>
<!-- GO:0006081&#45;&gt;GO:0071704 -->
<g id="edge28" class="edge">
<title>GO:0006081&#45;&gt;GO:0071704</title>
<path fill="none" stroke="#000000" d="M624.4799,-544.3702C627.3161,-545.3785 630.1418,-546.3288 632.9271,-547.2 711.6235,-571.8147 736.1645,-558.7978 814.9271,-583.2 815.0268,-583.2309 815.1266,-583.2619 815.2264,-583.293"/>
<polygon fill="#000000" stroke="#000000" points="814.0219,-586.5806 824.6157,-586.4363 816.2441,-579.9427 814.0219,-586.5806"/>
</g>
<!-- GO:0006081&#45;&gt;GO:0044763 -->
<g id="edge30" class="edge">
<title>GO:0006081&#45;&gt;GO:0044763</title>
<path fill="none" stroke="#000000" d="M507.3766,-544.3774C504.5397,-545.3837 501.7133,-546.3317 498.9271,-547.2 422.3248,-571.0727 397.2655,-562.3344 315.4817,-583.218"/>
<polygon fill="#000000" stroke="#000000" points="314.5507,-579.8437 305.767,-585.768 316.328,-586.6143 314.5507,-579.8437"/>
</g>
<!-- GO:0006081&#45;&gt;GO:0044237 -->
<g id="edge31" class="edge">
<title>GO:0006081&#45;&gt;GO:0044237</title>
<path fill="none" stroke="#000000" d="M508.9684,-547.2223C489.6562,-557.1303 467.922,-568.2809 447.9635,-578.5205"/>
<polygon fill="#000000" stroke="#000000" points="446.2331,-575.4744 438.9334,-583.1533 449.4284,-581.7026 446.2331,-575.4744"/>
</g>
<!-- GO:0006081&#45;&gt;GO:0044710 -->
<g id="edge29" class="edge">
<title>GO:0006081&#45;&gt;GO:0044710</title>
<path fill="none" stroke="#000000" d="M558.154,-547.3513C555.9905,-555.5206 553.6055,-564.5264 551.3175,-573.1657"/>
<polygon fill="#000000" stroke="#000000" points="547.8722,-572.5041 548.6954,-583.0669 554.6389,-574.2962 547.8722,-572.5041"/>
</g>
<!-- GO:0006793&#45;&gt;GO:0044237 -->
<g id="edge32" class="edge">
<title>GO:0006793&#45;&gt;GO:0044237</title>
<path fill="none" stroke="#000000" d="M408.112,-547.3513C404.752,-555.6982 401.0405,-564.9184 397.494,-573.7286"/>
<polygon fill="#000000" stroke="#000000" points="394.2224,-572.4832 393.7349,-583.0669 400.716,-575.0972 394.2224,-572.4832"/>
</g>
<!-- GO:0006721 -->
<g id="node21" class="node">
<title>GO:0006721</title>
<polygon fill="#ffffff" stroke="#000000" points="136.505,-247.4014 9.3492,-247.4014 9.3492,-188.5986 136.505,-188.5986 136.505,-247.4014"/>
<text text-anchor="middle" x="72.9271" y="-230.6" font-family="Times,serif" font-size="14.00" fill="#000000">GO:0006721</text>
<text text-anchor="middle" x="72.9271" y="-213.8" font-family="Times,serif" font-size="14.00" fill="#000000">terpenoid metabolic</text>
<text text-anchor="middle" x="72.9271" y="-197" font-family="Times,serif" font-size="14.00" fill="#000000">process</text>
</g>
<!-- GO:0006720 -->
<g id="node22" class="node">
<title>GO:0006720</title>
<polygon fill="#ffffff" stroke="#000000" points="139.7344,-341.8014 6.1198,-341.8014 6.1198,-282.9986 139.7344,-282.9986 139.7344,-341.8014"/>
<text text-anchor="middle" x="72.9271" y="-325" font-family="Times,serif" font-size="14.00" fill="#000000">GO:0006720</text>
<text text-anchor="middle" x="72.9271" y="-308.2" font-family="Times,serif" font-size="14.00" fill="#000000">isoprenoid metabolic</text>
<text text-anchor="middle" x="72.9271" y="-291.4" font-family="Times,serif" font-size="14.00" fill="#000000">process</text>
</g>
<!-- GO:0006721&#45;&gt;GO:0006720 -->
<g id="edge33" class="edge">
<title>GO:0006721&#45;&gt;GO:0006720</title>
<path fill="none" stroke="#000000" d="M72.9271,-247.3513C72.9271,-255.4318 72.9271,-264.3308 72.9271,-272.8838"/>
<polygon fill="#000000" stroke="#000000" points="69.4272,-273.0668 72.9271,-283.0669 76.4272,-273.0669 69.4272,-273.0668"/>
</g>
<!-- GO:0044255 -->
<g id="node23" class="node">
<title>GO:0044255</title>
<polygon fill="#ffffff" stroke="#000000" points="145.7814,-444.6014 .0728,-444.6014 .0728,-385.7986 145.7814,-385.7986 145.7814,-444.6014"/>
<text text-anchor="middle" x="72.9271" y="-427.8" font-family="Times,serif" font-size="14.00" fill="#000000">GO:0044255</text>
<text text-anchor="middle" x="72.9271" y="-411" font-family="Times,serif" font-size="14.00" fill="#000000">cellular lipid metabolic</text>
<text text-anchor="middle" x="72.9271" y="-394.2" font-family="Times,serif" font-size="14.00" fill="#000000">process</text>
</g>
<!-- GO:0006720&#45;&gt;GO:0044255 -->
<g id="edge34" class="edge">
<title>GO:0006720&#45;&gt;GO:0044255</title>
<path fill="none" stroke="#000000" d="M72.9271,-341.8584C72.9271,-352.3969 72.9271,-364.4505 72.9271,-375.6994"/>
<polygon fill="#000000" stroke="#000000" points="69.4272,-375.7373 72.9271,-385.7373 76.4272,-375.7374 69.4272,-375.7373"/>
</g>
<!-- GO:0044255&#45;&gt;GO:0044763 -->
<g id="edge35" class="edge">
<title>GO:0044255&#45;&gt;GO:0044763</title>
<path fill="none" stroke="#000000" d="M57.8708,-444.4077C45.399,-473.1078 32.8321,-516.8893 53.9271,-547.2 65.2094,-563.4112 105.2729,-578.8895 144.3295,-590.6939"/>
<polygon fill="#000000" stroke="#000000" points="143.6375,-594.1389 154.2193,-593.6141 145.6198,-587.4255 143.6375,-594.1389"/>
</g>
<!-- GO:0044255&#45;&gt;GO:0044237 -->
<g id="edge37" class="edge">
<title>GO:0044255&#45;&gt;GO:0044237</title>
<path fill="none" stroke="#000000" d="M81.8503,-444.4569C92.6983,-474.9249 114.0166,-521.694 148.9271,-547.2 207.3837,-589.9091 240.3152,-562.4809 314.0355,-583.2838"/>
<polygon fill="#000000" stroke="#000000" points="313.1379,-586.669 323.7235,-586.227 315.1727,-579.9713 313.1379,-586.669"/>
</g>
<!-- GO:0006629 -->
<g id="node24" class="node">
<title>GO:0006629</title>
<polygon fill="#ffffff" stroke="#000000" points="787.7842,-538.6019 642.07,-538.6019 642.07,-497.3981 787.7842,-497.3981 787.7842,-538.6019"/>
<text text-anchor="middle" x="714.9271" y="-522.2" font-family="Times,serif" font-size="14.00" fill="#000000">GO:0006629</text>
<text text-anchor="middle" x="714.9271" y="-505.4" font-family="Times,serif" font-size="14.00" fill="#000000">lipid metabolic process</text>
</g>
<!-- GO:0044255&#45;&gt;GO:0006629 -->
<g id="edge36" class="edge">
<title>GO:0044255&#45;&gt;GO:0006629</title>
<path fill="none" stroke="#000000" d="M135.9966,-444.4917C144.8922,-447.7516 154.0365,-450.6611 162.9271,-452.8 366.6162,-501.8032 427.9971,-445.2768 632.9271,-488.8 639.6807,-490.2343 646.6354,-492.0867 653.5044,-494.1623"/>
<polygon fill="#000000" stroke="#000000" points="652.8828,-497.6376 663.4734,-497.3402 655.0089,-490.9683 652.8828,-497.6376"/>
</g>
<!-- GO:0006629&#45;&gt;GO:0071704 -->
<g id="edge38" class="edge">
<title>GO:0006629&#45;&gt;GO:0071704</title>
<path fill="none" stroke="#000000" d="M751.7954,-538.7165C772.3508,-550.2666 798.4734,-564.945 821.9839,-578.1557"/>
<polygon fill="#000000" stroke="#000000" points="820.4171,-581.29 830.8496,-583.1374 823.8462,-575.1874 820.4171,-581.29"/>
</g>
<!-- GO:0006629&#45;&gt;GO:0044710 -->
<g id="edge39" class="edge">
<title>GO:0006629&#45;&gt;GO:0044710</title>
<path fill="none" stroke="#000000" d="M676.7421,-538.7165C655.3588,-550.3175 628.1586,-565.0744 603.7252,-578.3302"/>
<polygon fill="#000000" stroke="#000000" points="601.9852,-575.2923 594.8645,-583.1374 605.3233,-581.4451 601.9852,-575.2923"/>
</g>
<!-- GO:0044238 -->
<g id="node25" class="node">
<title>GO:0044238</title>
<polygon fill="#ffffff" stroke="#000000" points="805.9301,-633.0019 641.9241,-633.0019 641.9241,-591.7981 805.9301,-591.7981 805.9301,-633.0019"/>
<text text-anchor="middle" x="723.9271" y="-616.6" font-family="Times,serif" font-size="14.00" fill="#000000">GO:0044238</text>
<text text-anchor="middle" x="723.9271" y="-599.8" font-family="Times,serif" font-size="14.00" fill="#000000">primary metabolic process</text>
</g>
<!-- GO:0006629&#45;&gt;GO:0044238 -->
<g id="edge40" class="edge">
<title>GO:0006629&#45;&gt;GO:0044238</title>
<path fill="none" stroke="#000000" d="M716.9245,-538.9504C718.113,-551.4165 719.643,-567.4645 720.9695,-581.3786"/>
<polygon fill="#000000" stroke="#000000" points="717.5019,-581.8855 721.9353,-591.5081 724.4703,-581.2211 717.5019,-581.8855"/>
</g>
<!-- GO:0044238&#45;&gt;GO:0008152 -->
<g id="edge41" class="edge">
<title>GO:0044238&#45;&gt;GO:0008152</title>
<path fill="none" stroke="#000000" d="M719.3277,-633.2182C717.0406,-643.5705 714.2316,-656.2848 711.7037,-667.7271"/>
<polygon fill="#000000" stroke="#000000" points="708.2239,-667.2539 709.4841,-677.7735 715.0591,-668.7641 708.2239,-667.2539"/>
</g>
<!-- GO:0009240 -->
<g id="node26" class="node">
<title>GO:0009240</title>
<polygon fill="#ffffff" stroke="#000000" points="965.628,-153.0014 814.2262,-153.0014 814.2262,-94.1986 965.628,-94.1986 965.628,-153.0014"/>
<text text-anchor="middle" x="889.9271" y="-136.2" font-family="Times,serif" font-size="14.00" fill="#000000">GO:0009240</text>
<text text-anchor="middle" x="889.9271" y="-119.4" font-family="Times,serif" font-size="14.00" fill="#000000">isopentenyl diphosphate</text>
<text text-anchor="middle" x="889.9271" y="-102.6" font-family="Times,serif" font-size="14.00" fill="#000000">biosynthetic process</text>
</g>
<!-- GO:0046490 -->
<g id="node27" class="node">
<title>GO:0046490</title>
<polygon fill="#ffffff" stroke="#000000" points="775.628,-247.4014 624.2262,-247.4014 624.2262,-188.5986 775.628,-188.5986 775.628,-247.4014"/>
<text text-anchor="middle" x="699.9271" y="-230.6" font-family="Times,serif" font-size="14.00" fill="#000000">GO:0046490</text>
<text text-anchor="middle" x="699.9271" y="-213.8" font-family="Times,serif" font-size="14.00" fill="#000000">isopentenyl diphosphate</text>
<text text-anchor="middle" x="699.9271" y="-197" font-family="Times,serif" font-size="14.00" fill="#000000">metabolic process</text>
</g>
<!-- GO:0009240&#45;&gt;GO:0046490 -->
<g id="edge42" class="edge">
<title>GO:0009240&#45;&gt;GO:0046490</title>
<path fill="none" stroke="#000000" d="M831.1111,-152.8223C811.0793,-162.7749 788.524,-173.9813 767.8385,-184.2588"/>
<polygon fill="#000000" stroke="#000000" points="766.1905,-181.1693 758.7923,-188.7533 769.3052,-187.4382 766.1905,-181.1693"/>
</g>
<!-- GO:0008654 -->
<g id="node28" class="node">
<title>GO:0008654</title>
<polygon fill="#ffffff" stroke="#000000" points="1065.4797,-247.4014 904.3745,-247.4014 904.3745,-188.5986 1065.4797,-188.5986 1065.4797,-247.4014"/>
<text text-anchor="middle" x="984.9271" y="-230.6" font-family="Times,serif" font-size="14.00" fill="#000000">GO:0008654</text>
<text text-anchor="middle" x="984.9271" y="-213.8" font-family="Times,serif" font-size="14.00" fill="#000000">phospholipid biosynthetic</text>
<text text-anchor="middle" x="984.9271" y="-197" font-family="Times,serif" font-size="14.00" fill="#000000">process</text>
</g>
<!-- GO:0009240&#45;&gt;GO:0008654 -->
<g id="edge43" class="edge">
<title>GO:0009240&#45;&gt;GO:0008654</title>
<path fill="none" stroke="#000000" d="M919.4649,-152.9513C928.5798,-162.0086 938.7295,-172.0941 948.2638,-181.5683"/>
<polygon fill="#000000" stroke="#000000" points="945.847,-184.1009 955.4075,-188.6669 950.7811,-179.1355 945.847,-184.1009"/>
</g>
<!-- GO:0006644 -->
<g id="node29" class="node">
<title>GO:0006644</title>
<polygon fill="#ffffff" stroke="#000000" points="678.7498,-341.8014 531.1044,-341.8014 531.1044,-282.9986 678.7498,-282.9986 678.7498,-341.8014"/>
<text text-anchor="middle" x="604.9271" y="-325" font-family="Times,serif" font-size="14.00" fill="#000000">GO:0006644</text>
<text text-anchor="middle" x="604.9271" y="-308.2" font-family="Times,serif" font-size="14.00" fill="#000000">phospholipid metabolic</text>
<text text-anchor="middle" x="604.9271" y="-291.4" font-family="Times,serif" font-size="14.00" fill="#000000">process</text>
</g>
<!-- GO:0046490&#45;&gt;GO:0006644 -->
<g id="edge44" class="edge">
<title>GO:0046490&#45;&gt;GO:0006644</title>
<path fill="none" stroke="#000000" d="M670.3893,-247.3513C661.2744,-256.4086 651.1247,-266.4941 641.5904,-275.9683"/>
<polygon fill="#000000" stroke="#000000" points="639.0731,-273.5355 634.4467,-283.0669 644.0072,-278.5009 639.0731,-273.5355"/>
</g>
<!-- GO:0008654&#45;&gt;GO:0006644 -->
<g id="edge46" class="edge">
<title>GO:0008654&#45;&gt;GO:0006644</title>
<path fill="none" stroke="#000000" d="M904.2203,-232.9445C846.5759,-244.2598 767.1185,-261.1582 689.0078,-283.0077"/>
<polygon fill="#000000" stroke="#000000" points="687.6654,-279.75 678.9947,-285.8384 689.5697,-286.486 687.6654,-279.75"/>
</g>
<!-- GO:0044249 -->
<g id="node30" class="node">
<title>GO:0044249</title>
<polygon fill="#ffffff" stroke="#000000" points="1049.8395,-547.4014 920.0147,-547.4014 920.0147,-488.5986 1049.8395,-488.5986 1049.8395,-547.4014"/>
<text text-anchor="middle" x="984.9271" y="-530.6" font-family="Times,serif" font-size="14.00" fill="#000000">GO:0044249</text>
<text text-anchor="middle" x="984.9271" y="-513.8" font-family="Times,serif" font-size="14.00" fill="#000000">cellular biosynthetic</text>
<text text-anchor="middle" x="984.9271" y="-497" font-family="Times,serif" font-size="14.00" fill="#000000">process</text>
</g>
<!-- GO:0008654&#45;&gt;GO:0044249 -->
<g id="edge45" class="edge">
<title>GO:0008654&#45;&gt;GO:0044249</title>
<path fill="none" stroke="#000000" d="M984.9271,-247.3115C984.9271,-301.528 984.9271,-417.4966 984.9271,-478.5478"/>
<polygon fill="#000000" stroke="#000000" points="981.4272,-478.5695 984.9271,-488.5695 988.4272,-478.5696 981.4272,-478.5695"/>
</g>
<!-- GO:0090407 -->
<g id="node31" class="node">
<title>GO:0090407</title>
<polygon fill="#ffffff" stroke="#000000" points="1180.8423,-341.8014 1051.0119,-341.8014 1051.0119,-282.9986 1180.8423,-282.9986 1180.8423,-341.8014"/>
<text text-anchor="middle" x="1115.9271" y="-325" font-family="Times,serif" font-size="14.00" fill="#000000">GO:0090407</text>
<text text-anchor="middle" x="1115.9271" y="-308.2" font-family="Times,serif" font-size="14.00" fill="#000000">organophosphate</text>
<text text-anchor="middle" x="1115.9271" y="-291.4" font-family="Times,serif" font-size="14.00" fill="#000000">biosynthetic process</text>
</g>
<!-- GO:0008654&#45;&gt;GO:0090407 -->
<g id="edge47" class="edge">
<title>GO:0008654&#45;&gt;GO:0090407</title>
<path fill="none" stroke="#000000" d="M1025.6582,-247.3513C1038.72,-256.7637 1053.3229,-267.2867 1066.9131,-277.08"/>
<polygon fill="#000000" stroke="#000000" points="1065.0619,-280.0601 1075.2212,-283.0669 1069.1544,-274.381 1065.0619,-280.0601"/>
</g>
<!-- GO:0008610 -->
<g id="node32" class="node">
<title>GO:0008610</title>
<polygon fill="#ffffff" stroke="#000000" points="1157.5358,-444.6014 1044.3184,-444.6014 1044.3184,-385.7986 1157.5358,-385.7986 1157.5358,-444.6014"/>
<text text-anchor="middle" x="1100.9271" y="-427.8" font-family="Times,serif" font-size="14.00" fill="#000000">GO:0008610</text>
<text text-anchor="middle" x="1100.9271" y="-411" font-family="Times,serif" font-size="14.00" fill="#000000">lipid biosynthetic</text>
<text text-anchor="middle" x="1100.9271" y="-394.2" font-family="Times,serif" font-size="14.00" fill="#000000">process</text>
</g>
<!-- GO:0008654&#45;&gt;GO:0008610 -->
<g id="edge48" class="edge">
<title>GO:0008654&#45;&gt;GO:0008610</title>
<path fill="none" stroke="#000000" d="M996.0491,-247.2447C1006.3724,-272.9575 1022.9713,-310.9524 1041.9271,-341.6 1049.6215,-354.0403 1059.1291,-366.7594 1068.248,-378.0483"/>
<polygon fill="#000000" stroke="#000000" points="1065.7294,-380.4958 1074.7877,-385.9912 1071.1334,-376.0464 1065.7294,-380.4958"/>
</g>
<!-- GO:0006644&#45;&gt;GO:0019637 -->
<g id="edge49" class="edge">
<title>GO:0006644&#45;&gt;GO:0019637</title>
<path fill="none" stroke="#000000" d="M622.9804,-341.8584C629.7024,-352.8271 637.4303,-365.4369 644.5611,-377.0727"/>
<polygon fill="#000000" stroke="#000000" points="641.6617,-379.0399 649.8712,-385.7373 647.6301,-375.3822 641.6617,-379.0399"/>
</g>
<!-- GO:0006644&#45;&gt;GO:0006796 -->
<g id="edge50" class="edge">
<title>GO:0006644&#45;&gt;GO:0006796</title>
<path fill="none" stroke="#000000" d="M573.9786,-341.8584C564.6493,-350.7385 554.19,-360.6942 544.0585,-370.3379"/>
<polygon fill="#000000" stroke="#000000" points="541.5902,-367.8552 536.76,-377.285 546.4164,-372.9255 541.5902,-367.8552"/>
</g>
<!-- GO:0006644&#45;&gt;GO:0044255 -->
<g id="edge51" class="edge">
<title>GO:0006644&#45;&gt;GO:0044255</title>
<path fill="none" stroke="#000000" d="M530.7596,-321.0691C423.5091,-333.9925 230.561,-358.8019 162.9271,-377.6 157.7266,-379.0454 152.4259,-380.7138 147.1305,-382.5273"/>
<polygon fill="#000000" stroke="#000000" points="145.8613,-379.264 137.6273,-385.9313 148.2219,-385.854 145.8613,-379.264"/>
</g>
<!-- GO:0044249&#45;&gt;GO:0044237 -->
<g id="edge53" class="edge">
<title>GO:0044249&#45;&gt;GO:0044237</title>
<path fill="none" stroke="#000000" d="M919.789,-528.9494C883.6556,-534.8135 837.8733,-541.8996 796.9271,-547.2 643.1601,-567.1048 599.9832,-544.166 449.9271,-583.2 449.8261,-583.2263 449.725,-583.2527 449.6239,-583.2792"/>
<polygon fill="#000000" stroke="#000000" points="448.7372,-579.8916 440.1367,-586.0789 450.7184,-586.6054 448.7372,-579.8916"/>
</g>
<!-- GO:0009058 -->
<g id="node33" class="node">
<title>GO:0009058</title>
<polygon fill="#ffffff" stroke="#000000" points="1147.8423,-633.0019 1018.0119,-633.0019 1018.0119,-591.7981 1147.8423,-591.7981 1147.8423,-633.0019"/>
<text text-anchor="middle" x="1082.9271" y="-616.6" font-family="Times,serif" font-size="14.00" fill="#000000">GO:0009058</text>
<text text-anchor="middle" x="1082.9271" y="-599.8" font-family="Times,serif" font-size="14.00" fill="#000000">biosynthetic process</text>
</g>
<!-- GO:0044249&#45;&gt;GO:0009058 -->
<g id="edge52" class="edge">
<title>GO:0044249&#45;&gt;GO:0009058</title>
<path fill="none" stroke="#000000" d="M1015.3977,-547.3513C1027.7748,-559.2737 1042.0017,-572.978 1054.1956,-584.724"/>
<polygon fill="#000000" stroke="#000000" points="1051.8603,-587.3342 1061.4906,-591.751 1056.7166,-582.2927 1051.8603,-587.3342"/>
</g>
<!-- GO:0090407&#45;&gt;GO:0019637 -->
<g id="edge54" class="edge">
<title>GO:0090407&#45;&gt;GO:0019637</title>
<path fill="none" stroke="#000000" d="M1050.8556,-324.3663C986.7451,-336.4987 886.1585,-356.4533 799.9271,-377.6 787.9662,-380.5332 775.4547,-383.8146 763.1023,-387.184"/>
<polygon fill="#000000" stroke="#000000" points="761.9548,-383.8697 753.2436,-389.9001 763.8141,-390.6182 761.9548,-383.8697"/>
</g>
<!-- GO:1901576 -->
<g id="node34" class="node">
<title>GO:1901576</title>
<polygon fill="#ffffff" stroke="#000000" points="1345.8423,-547.4014 1216.0119,-547.4014 1216.0119,-488.5986 1345.8423,-488.5986 1345.8423,-547.4014"/>
<text text-anchor="middle" x="1280.9271" y="-530.6" font-family="Times,serif" font-size="14.00" fill="#000000">GO:1901576</text>
<text text-anchor="middle" x="1280.9271" y="-513.8" font-family="Times,serif" font-size="14.00" fill="#000000">organic substance</text>
<text text-anchor="middle" x="1280.9271" y="-497" font-family="Times,serif" font-size="14.00" fill="#000000">biosynthetic process</text>
</g>
<!-- GO:0090407&#45;&gt;GO:1901576 -->
<g id="edge55" class="edge">
<title>GO:0090407&#45;&gt;GO:1901576</title>
<path fill="none" stroke="#000000" d="M1139.5676,-341.8575C1168.9124,-378.4229 1218.9879,-440.82 1250.987,-480.6928"/>
<polygon fill="#000000" stroke="#000000" points="1248.3418,-482.9888 1257.3305,-488.5972 1253.8011,-478.6074 1248.3418,-482.9888"/>
</g>
<!-- GO:0008610&#45;&gt;GO:0006629 -->
<g id="edge58" class="edge">
<title>GO:0008610&#45;&gt;GO:0006629</title>
<path fill="none" stroke="#000000" d="M1044.1697,-431.2456C1020.07,-437.997 991.6527,-445.8768 965.9271,-452.8 910.0009,-467.8507 846.9027,-484.2386 797.9615,-496.8195"/>
<polygon fill="#000000" stroke="#000000" points="796.8698,-493.4862 788.0549,-499.3638 798.6112,-500.2661 796.8698,-493.4862"/>
</g>
<!-- GO:0008610&#45;&gt;GO:1901576 -->
<g id="edge56" class="edge">
<title>GO:0008610&#45;&gt;GO:1901576</title>
<path fill="none" stroke="#000000" d="M1152.5079,-444.6584C1173.7822,-456.8084 1198.5824,-470.972 1220.6846,-483.5948"/>
<polygon fill="#000000" stroke="#000000" points="1219.2308,-486.7951 1229.6502,-488.7152 1222.7024,-480.7166 1219.2308,-486.7951"/>
</g>
<!-- GO:0044711 -->
<g id="node35" class="node">
<title>GO:0044711</title>
<polygon fill="#ffffff" stroke="#000000" points="1197.8423,-547.4014 1068.0119,-547.4014 1068.0119,-488.5986 1197.8423,-488.5986 1197.8423,-547.4014"/>
<text text-anchor="middle" x="1132.9271" y="-530.6" font-family="Times,serif" font-size="14.00" fill="#000000">GO:0044711</text>
<text text-anchor="middle" x="1132.9271" y="-513.8" font-family="Times,serif" font-size="14.00" fill="#000000">single&#45;organism</text>
<text text-anchor="middle" x="1132.9271" y="-497" font-family="Times,serif" font-size="14.00" fill="#000000">biosynthetic process</text>
</g>
<!-- GO:0008610&#45;&gt;GO:0044711 -->
<g id="edge57" class="edge">
<title>GO:0008610&#45;&gt;GO:0044711</title>
<path fill="none" stroke="#000000" d="M1110.097,-444.6584C1113.411,-455.3045 1117.2062,-467.4966 1120.7383,-478.8435"/>
<polygon fill="#000000" stroke="#000000" points="1117.4418,-480.0295 1123.7558,-488.5373 1124.1254,-477.949 1117.4418,-480.0295"/>
</g>
<!-- GO:0009058&#45;&gt;GO:0008152 -->
<g id="edge59" class="edge">
<title>GO:0009058&#45;&gt;GO:0008152</title>
<path fill="none" stroke="#000000" d="M1017.9466,-627.1839C949.6423,-642.7241 842.6461,-667.0671 773.1476,-682.8789"/>
<polygon fill="#000000" stroke="#000000" points="772.1493,-679.5165 763.1749,-685.1479 773.7022,-686.3421 772.1493,-679.5165"/>
</g>
<!-- GO:1901576&#45;&gt;GO:0071704 -->
<g id="edge60" class="edge">
<title>GO:1901576&#45;&gt;GO:0071704</title>
<path fill="none" stroke="#000000" d="M1215.7966,-544.5012C1212.8153,-545.4608 1209.849,-546.3666 1206.9271,-547.2 1120.9146,-571.7328 1096.5189,-565.0984 1008.9271,-583.2 990.1007,-587.0906 969.7744,-591.6448 951.057,-595.9835"/>
<polygon fill="#000000" stroke="#000000" points="950.0826,-592.6167 941.139,-598.2968 951.6727,-599.4338 950.0826,-592.6167"/>
</g>
<!-- GO:1901576&#45;&gt;GO:0009058 -->
<g id="edge61" class="edge">
<title>GO:1901576&#45;&gt;GO:0009058</title>
<path fill="none" stroke="#000000" d="M1219.6346,-547.2223C1192.7279,-560.0505 1161.4523,-574.9617 1135.6114,-587.2818"/>
<polygon fill="#000000" stroke="#000000" points="1133.8754,-584.232 1126.3551,-591.6949 1136.888,-590.5506 1133.8754,-584.232"/>
</g>
<!-- GO:0044711&#45;&gt;GO:0044710 -->
<g id="edge62" class="edge">
<title>GO:0044711&#45;&gt;GO:0044710</title>
<path fill="none" stroke="#000000" d="M1067.888,-544.8533C1064.882,-545.7176 1061.8855,-546.5071 1058.9271,-547.2 877.0873,-589.7905 821.2089,-547.7184 633.3708,-583.3231"/>
<polygon fill="#000000" stroke="#000000" points="632.6001,-579.9073 623.4519,-585.2515 633.9361,-586.7786 632.6001,-579.9073"/>
</g>
<!-- GO:0044711&#45;&gt;GO:0009058 -->
<g id="edge63" class="edge">
<title>GO:0044711&#45;&gt;GO:0009058</title>
<path fill="none" stroke="#000000" d="M1117.3809,-547.3513C1111.4235,-558.5989 1104.6261,-571.4323 1098.6521,-582.7112"/>
<polygon fill="#000000" stroke="#000000" points="1095.4518,-581.2758 1093.8641,-591.751 1101.6377,-584.5522 1095.4518,-581.2758"/>
</g>
</g>
</svg>
