<?xml version="1.0" encoding="UTF-8" standalone="no"?>
<!DOCTYPE svg PUBLIC "-//W3C//DTD SVG 1.1//EN"
 "http://www.w3.org/Graphics/SVG/1.1/DTD/svg11.dtd">
<!-- Generated by graphviz version 2.40.1 (20161225.0304)
 -->
<!-- Title: G Pages: 1 -->
<svg width="268pt" height="454pt"
 viewBox="0.00 0.00 267.54 454.40" xmlns="http://www.w3.org/2000/svg" xmlns:xlink="http://www.w3.org/1999/xlink">
<g id="graph0" class="graph" transform="scale(1 1) rotate(0) translate(4 450.4)">
<title>G</title>
<polygon fill="#ffffff" stroke="transparent" points="-4,4 -4,-450.4 263.5358,-450.4 263.5358,4 -4,4"/>
<!-- GO:0051540 -->
<g id="node1" class="node">
<title>GO:0051540</title>
<polygon fill="#ffffff" stroke="#000000" points="134.2968,-291.0019 -.099,-291.0019 -.099,-249.7981 134.2968,-249.7981 134.2968,-291.0019"/>
<text text-anchor="middle" x="67.0989" y="-274.6" font-family="Times,serif" font-size="14.00" fill="#000000">GO:0051540</text>
<text text-anchor="middle" x="67.0989" y="-257.8" font-family="Times,serif" font-size="14.00" fill="#000000">metal cluster binding</text>
</g>
<!-- GO:0005488 -->
<g id="node2" class="node">
<title>GO:0005488</title>
<polygon fill="#ffffff" stroke="#000000" points="176.7028,-368.6019 87.495,-368.6019 87.495,-327.3981 176.7028,-327.3981 176.7028,-368.6019"/>
<text text-anchor="middle" x="132.0989" y="-352.2" font-family="Times,serif" font-size="14.00" fill="#000000">GO:0005488</text>
<text text-anchor="middle" x="132.0989" y="-335.4" font-family="Times,serif" font-size="14.00" fill="#000000">binding</text>
</g>
<!-- GO:0051540&#45;&gt;GO:0005488 -->
<g id="edge1" class="edge">
<title>GO:0051540&#45;&gt;GO:0005488</title>
<path fill="none" stroke="#000000" d="M84.5177,-291.1954C91.7308,-299.8067 100.2174,-309.9384 108.011,-319.2427"/>
<polygon fill="#000000" stroke="#000000" points="105.5276,-321.7287 114.632,-327.1472 110.8938,-317.2338 105.5276,-321.7287"/>
</g>
<!-- GO:0003674 -->
<g id="node3" class="node">
<title>GO:0003674</title>
<polygon fill="#ffffff" stroke="#000000" points="194.732,-446.2019 69.4658,-446.2019 69.4658,-404.9981 194.732,-404.9981 194.732,-446.2019"/>
<text text-anchor="middle" x="132.0989" y="-429.8" font-family="Times,serif" font-size="14.00" fill="#000000">GO:0003674</text>
<text text-anchor="middle" x="132.0989" y="-413" font-family="Times,serif" font-size="14.00" fill="#000000">molecular_function</text>
</g>
<!-- GO:0005488&#45;&gt;GO:0003674 -->
<g id="edge2" class="edge">
<title>GO:0005488&#45;&gt;GO:0003674</title>
<path fill="none" stroke="#000000" d="M132.0989,-368.7954C132.0989,-376.7109 132.0989,-385.9109 132.0989,-394.5722"/>
<polygon fill="#000000" stroke="#000000" points="128.599,-394.7472 132.0989,-404.7472 135.599,-394.7473 128.599,-394.7472"/>
</g>
<!-- GO:0046914 -->
<g id="node4" class="node">
<title>GO:0046914</title>
<polygon fill="#ffffff" stroke="#000000" points="259.4728,-58.6014 134.725,-58.6014 134.725,.2014 259.4728,.2014 259.4728,-58.6014"/>
<text text-anchor="middle" x="197.0989" y="-41.8" font-family="Times,serif" font-size="14.00" fill="#000000">GO:0046914</text>
<text text-anchor="middle" x="197.0989" y="-25" font-family="Times,serif" font-size="14.00" fill="#000000">transition metal ion</text>
<text text-anchor="middle" x="197.0989" y="-8.2" font-family="Times,serif" font-size="14.00" fill="#000000">binding</text>
</g>
<!-- GO:0046872 -->
<g id="node5" class="node">
<title>GO:0046872</title>
<polygon fill="#ffffff" stroke="#000000" points="254.3719,-135.8019 139.8259,-135.8019 139.8259,-94.5981 254.3719,-94.5981 254.3719,-135.8019"/>
<text text-anchor="middle" x="197.0989" y="-119.4" font-family="Times,serif" font-size="14.00" fill="#000000">GO:0046872</text>
<text text-anchor="middle" x="197.0989" y="-102.6" font-family="Times,serif" font-size="14.00" fill="#000000">metal ion binding</text>
</g>
<!-- GO:0046914&#45;&gt;GO:0046872 -->
<g id="edge3" class="edge">
<title>GO:0046914&#45;&gt;GO:0046872</title>
<path fill="none" stroke="#000000" d="M197.0989,-58.7963C197.0989,-67.0638 197.0989,-76.0657 197.0989,-84.4008"/>
<polygon fill="#000000" stroke="#000000" points="193.599,-84.4965 197.0989,-94.4966 200.599,-84.4966 193.599,-84.4965"/>
</g>
<!-- GO:0043169 -->
<g id="node6" class="node">
<title>GO:0043169</title>
<polygon fill="#ffffff" stroke="#000000" points="245.5918,-213.4019 148.606,-213.4019 148.606,-172.1981 245.5918,-172.1981 245.5918,-213.4019"/>
<text text-anchor="middle" x="197.0989" y="-197" font-family="Times,serif" font-size="14.00" fill="#000000">GO:0043169</text>
<text text-anchor="middle" x="197.0989" y="-180.2" font-family="Times,serif" font-size="14.00" fill="#000000">cation binding</text>
</g>
<!-- GO:0046872&#45;&gt;GO:0043169 -->
<g id="edge4" class="edge">
<title>GO:0046872&#45;&gt;GO:0043169</title>
<path fill="none" stroke="#000000" d="M197.0989,-135.9954C197.0989,-143.9109 197.0989,-153.1109 197.0989,-161.7722"/>
<polygon fill="#000000" stroke="#000000" points="193.599,-161.9472 197.0989,-171.9472 200.599,-161.9473 193.599,-161.9472"/>
</g>
<!-- GO:0043167 -->
<g id="node7" class="node">
<title>GO:0043167</title>
<polygon fill="#ffffff" stroke="#000000" points="241.7028,-291.0019 152.495,-291.0019 152.495,-249.7981 241.7028,-249.7981 241.7028,-291.0019"/>
<text text-anchor="middle" x="197.0989" y="-274.6" font-family="Times,serif" font-size="14.00" fill="#000000">GO:0043167</text>
<text text-anchor="middle" x="197.0989" y="-257.8" font-family="Times,serif" font-size="14.00" fill="#000000">ion binding</text>
</g>
<!-- GO:0043169&#45;&gt;GO:0043167 -->
<g id="edge5" class="edge">
<title>GO:0043169&#45;&gt;GO:0043167</title>
<path fill="none" stroke="#000000" d="M197.0989,-213.5954C197.0989,-221.5109 197.0989,-230.7109 197.0989,-239.3722"/>
<polygon fill="#000000" stroke="#000000" points="193.599,-239.5472 197.0989,-249.5472 200.599,-239.5473 193.599,-239.5472"/>
</g>
<!-- GO:0043167&#45;&gt;GO:0005488 -->
<g id="edge6" class="edge">
<title>GO:0043167&#45;&gt;GO:0005488</title>
<path fill="none" stroke="#000000" d="M179.6801,-291.1954C172.467,-299.8067 163.9804,-309.9384 156.1868,-319.2427"/>
<polygon fill="#000000" stroke="#000000" points="153.304,-317.2338 149.5658,-327.1472 158.6702,-321.7287 153.304,-317.2338"/>
</g>
</g>
</svg>
