<?xml version="1.0" encoding="UTF-8" standalone="no"?>
<!DOCTYPE svg PUBLIC "-//W3C//DTD SVG 1.1//EN"
 "http://www.w3.org/Graphics/SVG/1.1/DTD/svg11.dtd">
<!-- Generated by graphviz version 2.40.1 (20161225.0304)
 -->
<!-- Title: G Pages: 1 -->
<svg width="730pt" height="488pt"
 viewBox="0.00 0.00 729.56 488.00" xmlns="http://www.w3.org/2000/svg" xmlns:xlink="http://www.w3.org/1999/xlink">
<g id="graph0" class="graph" transform="scale(1 1) rotate(0) translate(4 484)">
<title>G</title>
<polygon fill="#ffffff" stroke="transparent" points="-4,4 -4,-484 725.5639,-484 725.5639,4 -4,4"/>
<!-- GO:0005856 -->
<g id="node1" class="node">
<title>GO:0005856</title>
<polygon fill="#ffffff" stroke="#000000" points="231.4146,-41.4019 142.2068,-41.4019 142.2068,-.1981 231.4146,-.1981 231.4146,-41.4019"/>
<text text-anchor="middle" x="186.8107" y="-25" font-family="Times,serif" font-size="14.00" fill="#000000">GO:0005856</text>
<text text-anchor="middle" x="186.8107" y="-8.2" font-family="Times,serif" font-size="14.00" fill="#000000">cytoskeleton</text>
</g>
<!-- GO:0043232 -->
<g id="node2" class="node">
<title>GO:0043232</title>
<polygon fill="#ffffff" stroke="#000000" points="250.7715,-152.9003 122.8499,-152.9003 122.8499,-77.4997 250.7715,-77.4997 250.7715,-152.9003"/>
<text text-anchor="middle" x="186.8107" y="-136.2" font-family="Times,serif" font-size="14.00" fill="#000000">GO:0043232</text>
<text text-anchor="middle" x="186.8107" y="-119.4" font-family="Times,serif" font-size="14.00" fill="#000000">intracellular non&#45;</text>
<text text-anchor="middle" x="186.8107" y="-102.6" font-family="Times,serif" font-size="14.00" fill="#000000">membrane&#45;bounded</text>
<text text-anchor="middle" x="186.8107" y="-85.8" font-family="Times,serif" font-size="14.00" fill="#000000">organelle</text>
</g>
<!-- GO:0005856&#45;&gt;GO:0043232 -->
<g id="edge1" class="edge">
<title>GO:0005856&#45;&gt;GO:0043232</title>
<path fill="none" stroke="#000000" d="M186.8107,-41.7504C186.8107,-49.4068 186.8107,-58.4143 186.8107,-67.4487"/>
<polygon fill="#000000" stroke="#000000" points="183.3108,-67.5897 186.8107,-77.5897 190.3108,-67.5897 183.3108,-67.5897"/>
</g>
<!-- GO:0043229 -->
<g id="node3" class="node">
<title>GO:0043229</title>
<polygon fill="#ffffff" stroke="#000000" points="310.5291,-238.6019 171.0923,-238.6019 171.0923,-197.3981 310.5291,-197.3981 310.5291,-238.6019"/>
<text text-anchor="middle" x="240.8107" y="-222.2" font-family="Times,serif" font-size="14.00" fill="#000000">GO:0043229</text>
<text text-anchor="middle" x="240.8107" y="-205.4" font-family="Times,serif" font-size="14.00" fill="#000000">intracellular organelle</text>
</g>
<!-- GO:0043232&#45;&gt;GO:0043229 -->
<g id="edge2" class="edge">
<title>GO:0043232&#45;&gt;GO:0043229</title>
<path fill="none" stroke="#000000" d="M206.6117,-152.8952C212.7729,-164.6244 219.4737,-177.3807 225.2979,-188.4683"/>
<polygon fill="#000000" stroke="#000000" points="222.2041,-190.1049 229.953,-197.3302 228.4011,-186.8496 222.2041,-190.1049"/>
</g>
<!-- GO:0043228 -->
<g id="node4" class="node">
<title>GO:0043228</title>
<polygon fill="#ffffff" stroke="#000000" points="153.4326,-247.4014 .1888,-247.4014 .1888,-188.5986 153.4326,-188.5986 153.4326,-247.4014"/>
<text text-anchor="middle" x="76.8107" y="-230.6" font-family="Times,serif" font-size="14.00" fill="#000000">GO:0043228</text>
<text text-anchor="middle" x="76.8107" y="-213.8" font-family="Times,serif" font-size="14.00" fill="#000000">non&#45;membrane&#45;bounded</text>
<text text-anchor="middle" x="76.8107" y="-197" font-family="Times,serif" font-size="14.00" fill="#000000">organelle</text>
</g>
<!-- GO:0043232&#45;&gt;GO:0043228 -->
<g id="edge3" class="edge">
<title>GO:0043232&#45;&gt;GO:0043228</title>
<path fill="none" stroke="#000000" d="M146.4754,-152.8952C136.4099,-162.3018 125.6376,-172.3691 115.6463,-181.7064"/>
<polygon fill="#000000" stroke="#000000" points="113.0992,-179.2963 108.1828,-188.6814 117.8787,-184.4106 113.0992,-179.2963"/>
</g>
<!-- GO:0044424 -->
<g id="node5" class="node">
<title>GO:0044424</title>
<polygon fill="#ffffff" stroke="#000000" points="295.2091,-324.6019 186.4123,-324.6019 186.4123,-283.3981 295.2091,-283.3981 295.2091,-324.6019"/>
<text text-anchor="middle" x="240.8107" y="-308.2" font-family="Times,serif" font-size="14.00" fill="#000000">GO:0044424</text>
<text text-anchor="middle" x="240.8107" y="-291.4" font-family="Times,serif" font-size="14.00" fill="#000000">intracellular part</text>
</g>
<!-- GO:0043229&#45;&gt;GO:0044424 -->
<g id="edge4" class="edge">
<title>GO:0043229&#45;&gt;GO:0044424</title>
<path fill="none" stroke="#000000" d="M240.8107,-238.8182C240.8107,-249.1705 240.8107,-261.8848 240.8107,-273.3271"/>
<polygon fill="#000000" stroke="#000000" points="237.3108,-273.3735 240.8107,-283.3735 244.3108,-273.3735 237.3108,-273.3735"/>
</g>
<!-- GO:0043226 -->
<g id="node6" class="node">
<title>GO:0043226</title>
<polygon fill="#ffffff" stroke="#000000" points="168.4146,-324.6019 79.2068,-324.6019 79.2068,-283.3981 168.4146,-283.3981 168.4146,-324.6019"/>
<text text-anchor="middle" x="123.8107" y="-308.2" font-family="Times,serif" font-size="14.00" fill="#000000">GO:0043226</text>
<text text-anchor="middle" x="123.8107" y="-291.4" font-family="Times,serif" font-size="14.00" fill="#000000">organelle</text>
</g>
<!-- GO:0043229&#45;&gt;GO:0043226 -->
<g id="edge5" class="edge">
<title>GO:0043229&#45;&gt;GO:0043226</title>
<path fill="none" stroke="#000000" d="M212.4883,-238.8182C196.8235,-250.3325 177.1833,-264.7688 160.3706,-277.1269"/>
<polygon fill="#000000" stroke="#000000" points="157.8569,-274.6308 151.8723,-283.3735 162.0027,-280.271 157.8569,-274.6308"/>
</g>
<!-- GO:0043228&#45;&gt;GO:0043226 -->
<g id="edge6" class="edge">
<title>GO:0043228&#45;&gt;GO:0043226</title>
<path fill="none" stroke="#000000" d="M92.9854,-247.5963C97.7045,-256.2312 102.8615,-265.6673 107.5837,-274.3081"/>
<polygon fill="#000000" stroke="#000000" points="104.629,-276.2 112.496,-283.2966 110.7716,-272.843 104.629,-276.2"/>
</g>
<!-- GO:0044464 -->
<g id="node7" class="node">
<title>GO:0044464</title>
<polygon fill="#ffffff" stroke="#000000" points="423.4146,-402.2019 334.2068,-402.2019 334.2068,-360.9981 423.4146,-360.9981 423.4146,-402.2019"/>
<text text-anchor="middle" x="378.8107" y="-385.8" font-family="Times,serif" font-size="14.00" fill="#000000">GO:0044464</text>
<text text-anchor="middle" x="378.8107" y="-369" font-family="Times,serif" font-size="14.00" fill="#000000">cell part</text>
</g>
<!-- GO:0044424&#45;&gt;GO:0044464 -->
<g id="edge7" class="edge">
<title>GO:0044424&#45;&gt;GO:0044464</title>
<path fill="none" stroke="#000000" d="M277.7922,-324.7954C294.653,-334.2766 314.7914,-345.6008 332.6349,-355.6345"/>
<polygon fill="#000000" stroke="#000000" points="331.2952,-358.8965 341.7272,-360.7472 334.7262,-352.795 331.2952,-358.8965"/>
</g>
<!-- GO:0005575 -->
<g id="node8" class="node">
<title>GO:0005575</title>
<polygon fill="#ffffff" stroke="#000000" points="498.4974,-479.8019 371.124,-479.8019 371.124,-438.5981 498.4974,-438.5981 498.4974,-479.8019"/>
<text text-anchor="middle" x="434.8107" y="-463.4" font-family="Times,serif" font-size="14.00" fill="#000000">GO:0005575</text>
<text text-anchor="middle" x="434.8107" y="-446.6" font-family="Times,serif" font-size="14.00" fill="#000000">cellular_component</text>
</g>
<!-- GO:0043226&#45;&gt;GO:0005575 -->
<g id="edge8" class="edge">
<title>GO:0043226&#45;&gt;GO:0005575</title>
<path fill="none" stroke="#000000" d="M165.1091,-324.6094C221.6877,-352.8441 323.2207,-403.5126 384.2711,-433.9789"/>
<polygon fill="#000000" stroke="#000000" points="382.8309,-437.1718 393.3415,-438.5054 385.9566,-430.9084 382.8309,-437.1718"/>
</g>
<!-- GO:0044464&#45;&gt;GO:0005575 -->
<g id="edge13" class="edge">
<title>GO:0044464&#45;&gt;GO:0005575</title>
<path fill="none" stroke="#000000" d="M393.8177,-402.3954C399.9693,-410.9197 407.196,-420.9339 413.8544,-430.1605"/>
<polygon fill="#000000" stroke="#000000" points="411.0723,-432.2864 419.7623,-438.3472 416.7486,-428.19 411.0723,-432.2864"/>
</g>
<!-- GO:0031256 -->
<g id="node9" class="node">
<title>GO:0031256</title>
<polygon fill="#ffffff" stroke="#000000" points="545.5362,-238.6019 396.0852,-238.6019 396.0852,-197.3981 545.5362,-197.3981 545.5362,-238.6019"/>
<text text-anchor="middle" x="470.8107" y="-222.2" font-family="Times,serif" font-size="14.00" fill="#000000">GO:0031256</text>
<text text-anchor="middle" x="470.8107" y="-205.4" font-family="Times,serif" font-size="14.00" fill="#000000">leading edge membrane</text>
</g>
<!-- GO:0044459 -->
<g id="node10" class="node">
<title>GO:0044459</title>
<polygon fill="#ffffff" stroke="#000000" points="596.3179,-324.6019 453.3035,-324.6019 453.3035,-283.3981 596.3179,-283.3981 596.3179,-324.6019"/>
<text text-anchor="middle" x="524.8107" y="-308.2" font-family="Times,serif" font-size="14.00" fill="#000000">GO:0044459</text>
<text text-anchor="middle" x="524.8107" y="-291.4" font-family="Times,serif" font-size="14.00" fill="#000000">plasma membrane part</text>
</g>
<!-- GO:0031256&#45;&gt;GO:0044459 -->
<g id="edge9" class="edge">
<title>GO:0031256&#45;&gt;GO:0044459</title>
<path fill="none" stroke="#000000" d="M483.8826,-238.8182C490.6482,-249.593 499.0205,-262.9267 506.4266,-274.7216"/>
<polygon fill="#000000" stroke="#000000" points="503.5773,-276.7658 511.8592,-283.3735 509.5056,-273.0434 503.5773,-276.7658"/>
</g>
<!-- GO:0044459&#45;&gt;GO:0044464 -->
<g id="edge11" class="edge">
<title>GO:0044459&#45;&gt;GO:0044464</title>
<path fill="none" stroke="#000000" d="M485.6854,-324.7954C467.5287,-334.4458 445.7796,-346.0056 426.6549,-356.1705"/>
<polygon fill="#000000" stroke="#000000" points="424.9782,-353.0979 417.7907,-360.8819 428.2636,-359.2791 424.9782,-353.0979"/>
</g>
<!-- GO:0044425 -->
<g id="node11" class="node">
<title>GO:0044425</title>
<polygon fill="#ffffff" stroke="#000000" points="560.1627,-402.2019 459.4587,-402.2019 459.4587,-360.9981 560.1627,-360.9981 560.1627,-402.2019"/>
<text text-anchor="middle" x="509.8107" y="-385.8" font-family="Times,serif" font-size="14.00" fill="#000000">GO:0044425</text>
<text text-anchor="middle" x="509.8107" y="-369" font-family="Times,serif" font-size="14.00" fill="#000000">membrane part</text>
</g>
<!-- GO:0044459&#45;&gt;GO:0044425 -->
<g id="edge10" class="edge">
<title>GO:0044459&#45;&gt;GO:0044425</title>
<path fill="none" stroke="#000000" d="M520.791,-324.7954C519.2441,-332.7978 517.4434,-342.1133 515.7532,-350.8575"/>
<polygon fill="#000000" stroke="#000000" points="512.3031,-350.2647 513.8415,-360.7472 519.1758,-351.5932 512.3031,-350.2647"/>
</g>
<!-- GO:0044425&#45;&gt;GO:0005575 -->
<g id="edge12" class="edge">
<title>GO:0044425&#45;&gt;GO:0005575</title>
<path fill="none" stroke="#000000" d="M489.7121,-402.3954C481.2211,-411.1807 471.2008,-421.5484 462.0605,-431.0056"/>
<polygon fill="#000000" stroke="#000000" points="459.3977,-428.7243 454.9648,-438.3472 464.4311,-433.5891 459.3977,-428.7243"/>
</g>
<!-- GO:0031253 -->
<g id="node12" class="node">
<title>GO:0031253</title>
<polygon fill="#ffffff" stroke="#000000" points="495.3683,-135.8019 336.2531,-135.8019 336.2531,-94.5981 495.3683,-94.5981 495.3683,-135.8019"/>
<text text-anchor="middle" x="415.8107" y="-119.4" font-family="Times,serif" font-size="14.00" fill="#000000">GO:0031253</text>
<text text-anchor="middle" x="415.8107" y="-102.6" font-family="Times,serif" font-size="14.00" fill="#000000">cell projection membrane</text>
</g>
<!-- GO:0098590 -->
<g id="node13" class="node">
<title>GO:0098590</title>
<polygon fill="#ffffff" stroke="#000000" points="721.3179,-238.6019 564.3035,-238.6019 564.3035,-197.3981 721.3179,-197.3981 721.3179,-238.6019"/>
<text text-anchor="middle" x="642.8107" y="-222.2" font-family="Times,serif" font-size="14.00" fill="#000000">GO:0098590</text>
<text text-anchor="middle" x="642.8107" y="-205.4" font-family="Times,serif" font-size="14.00" fill="#000000">plasma membrane region</text>
</g>
<!-- GO:0031253&#45;&gt;GO:0098590 -->
<g id="edge14" class="edge">
<title>GO:0031253&#45;&gt;GO:0098590</title>
<path fill="none" stroke="#000000" d="M461.4745,-135.8795C497.8773,-152.365 548.9854,-175.51 587.6692,-193.0284"/>
<polygon fill="#000000" stroke="#000000" points="586.6666,-196.4165 597.2199,-197.3536 589.5543,-190.0399 586.6666,-196.4165"/>
</g>
<!-- GO:0044463 -->
<g id="node14" class="node">
<title>GO:0044463</title>
<polygon fill="#ffffff" stroke="#000000" points="434.5488,-324.6019 313.0726,-324.6019 313.0726,-283.3981 434.5488,-283.3981 434.5488,-324.6019"/>
<text text-anchor="middle" x="373.8107" y="-308.2" font-family="Times,serif" font-size="14.00" fill="#000000">GO:0044463</text>
<text text-anchor="middle" x="373.8107" y="-291.4" font-family="Times,serif" font-size="14.00" fill="#000000">cell projection part</text>
</g>
<!-- GO:0031253&#45;&gt;GO:0044463 -->
<g id="edge15" class="edge">
<title>GO:0031253&#45;&gt;GO:0044463</title>
<path fill="none" stroke="#000000" d="M405.9232,-135.9734C399.4564,-150.4575 391.3868,-170.408 386.8107,-188.8 379.8152,-216.9162 376.5764,-249.8382 375.0815,-273.2709"/>
<polygon fill="#000000" stroke="#000000" points="371.5836,-273.1356 374.5101,-283.3182 378.5723,-273.5331 371.5836,-273.1356"/>
</g>
<!-- GO:0098590&#45;&gt;GO:0044459 -->
<g id="edge17" class="edge">
<title>GO:0098590&#45;&gt;GO:0044459</title>
<path fill="none" stroke="#000000" d="M614.2462,-238.8182C598.3026,-250.4381 578.2757,-265.034 561.2171,-277.4665"/>
<polygon fill="#000000" stroke="#000000" points="559.1321,-274.6551 553.1122,-283.3735 563.2551,-280.3121 559.1321,-274.6551"/>
</g>
<!-- GO:0016020 -->
<g id="node15" class="node">
<title>GO:0016020</title>
<polygon fill="#ffffff" stroke="#000000" points="676.4146,-402.2019 587.2068,-402.2019 587.2068,-360.9981 676.4146,-360.9981 676.4146,-402.2019"/>
<text text-anchor="middle" x="631.8107" y="-385.8" font-family="Times,serif" font-size="14.00" fill="#000000">GO:0016020</text>
<text text-anchor="middle" x="631.8107" y="-369" font-family="Times,serif" font-size="14.00" fill="#000000">membrane</text>
</g>
<!-- GO:0098590&#45;&gt;GO:0016020 -->
<g id="edge16" class="edge">
<title>GO:0098590&#45;&gt;GO:0016020</title>
<path fill="none" stroke="#000000" d="M641.4175,-238.7201C639.5217,-266.9159 636.1134,-317.6064 633.9078,-350.4099"/>
<polygon fill="#000000" stroke="#000000" points="630.3887,-350.5781 633.2099,-360.7904 637.3729,-351.0478 630.3887,-350.5781"/>
</g>
<!-- GO:0044463&#45;&gt;GO:0044464 -->
<g id="edge18" class="edge">
<title>GO:0044463&#45;&gt;GO:0044464</title>
<path fill="none" stroke="#000000" d="M375.1506,-324.7954C375.6606,-332.7109 376.2534,-341.9109 376.8115,-350.5722"/>
<polygon fill="#000000" stroke="#000000" points="373.3312,-350.993 377.4671,-360.7472 380.3168,-350.5428 373.3312,-350.993"/>
</g>
<!-- GO:0016020&#45;&gt;GO:0005575 -->
<g id="edge19" class="edge">
<title>GO:0016020&#45;&gt;GO:0005575</title>
<path fill="none" stroke="#000000" d="M587.1084,-399.2086C560.3726,-409.7401 526.0089,-423.2762 496.6917,-434.8245"/>
<polygon fill="#000000" stroke="#000000" points="495.3879,-431.5763 487.3665,-438.4978 497.9535,-438.0892 495.3879,-431.5763"/>
</g>
</g>
</svg>
