<?xml version="1.0" encoding="UTF-8" standalone="no"?>
<!DOCTYPE svg PUBLIC "-//W3C//DTD SVG 1.1//EN"
 "http://www.w3.org/Graphics/SVG/1.1/DTD/svg11.dtd">
<!-- Generated by graphviz version 2.40.1 (20161225.0304)
 -->
<!-- Title: G Pages: 1 -->
<svg width="1616pt" height="566pt"
 viewBox="0.00 0.00 1615.57 565.60" xmlns="http://www.w3.org/2000/svg" xmlns:xlink="http://www.w3.org/1999/xlink">
<g id="graph0" class="graph" transform="scale(1 1) rotate(0) translate(4 561.6)">
<title>G</title>
<polygon fill="#ffffff" stroke="transparent" points="-4,4 -4,-561.6 1611.5691,-561.6 1611.5691,4 -4,4"/>
<!-- GO:1901681 -->
<g id="node1" class="node">
<title>GO:1901681</title>
<polygon fill="#ffffff" stroke="#000000" points="157.3149,-393.8019 .2279,-393.8019 .2279,-352.5981 157.3149,-352.5981 157.3149,-393.8019"/>
<text text-anchor="middle" x="78.7714" y="-377.4" font-family="Times,serif" font-size="14.00" fill="#000000">GO:1901681</text>
<text text-anchor="middle" x="78.7714" y="-360.6" font-family="Times,serif" font-size="14.00" fill="#000000">sulfur compound binding</text>
</g>
<!-- GO:0005488 -->
<g id="node2" class="node">
<title>GO:0005488</title>
<polygon fill="#ffffff" stroke="#000000" points="710.3753,-479.8019 621.1675,-479.8019 621.1675,-438.5981 710.3753,-438.5981 710.3753,-479.8019"/>
<text text-anchor="middle" x="665.7714" y="-463.4" font-family="Times,serif" font-size="14.00" fill="#000000">GO:0005488</text>
<text text-anchor="middle" x="665.7714" y="-446.6" font-family="Times,serif" font-size="14.00" fill="#000000">binding</text>
</g>
<!-- GO:1901681&#45;&gt;GO:0005488 -->
<g id="edge1" class="edge">
<title>GO:1901681&#45;&gt;GO:0005488</title>
<path fill="none" stroke="#000000" d="M135.5691,-393.9489C145.8512,-397.1582 156.5535,-400.1487 166.7714,-402.4 325.8306,-437.4452 518.4535,-451.5892 610.9671,-456.675"/>
<polygon fill="#000000" stroke="#000000" points="611.0368,-460.1836 621.2097,-457.2233 611.4111,-453.1937 611.0368,-460.1836"/>
</g>
<!-- GO:0003674 -->
<g id="node3" class="node">
<title>GO:0003674</title>
<polygon fill="#ffffff" stroke="#000000" points="1136.4045,-557.4019 1011.1383,-557.4019 1011.1383,-516.1981 1136.4045,-516.1981 1136.4045,-557.4019"/>
<text text-anchor="middle" x="1073.7714" y="-541" font-family="Times,serif" font-size="14.00" fill="#000000">GO:0003674</text>
<text text-anchor="middle" x="1073.7714" y="-524.2" font-family="Times,serif" font-size="14.00" fill="#000000">molecular_function</text>
</g>
<!-- GO:0005488&#45;&gt;GO:0003674 -->
<g id="edge2" class="edge">
<title>GO:0005488&#45;&gt;GO:0003674</title>
<path fill="none" stroke="#000000" d="M710.6016,-467.7265C780.6216,-481.0441 916.6308,-506.9125 1000.8781,-522.936"/>
<polygon fill="#000000" stroke="#000000" points="1000.4098,-526.4096 1010.8877,-524.8398 1001.7178,-519.5329 1000.4098,-526.4096"/>
</g>
<!-- GO:0005178 -->
<g id="node4" class="node">
<title>GO:0005178</title>
<polygon fill="#ffffff" stroke="#000000" points="1288.5997,-213.4019 1182.9431,-213.4019 1182.9431,-172.1981 1288.5997,-172.1981 1288.5997,-213.4019"/>
<text text-anchor="middle" x="1235.7714" y="-197" font-family="Times,serif" font-size="14.00" fill="#000000">GO:0005178</text>
<text text-anchor="middle" x="1235.7714" y="-180.2" font-family="Times,serif" font-size="14.00" fill="#000000">integrin binding</text>
</g>
<!-- GO:0032403 -->
<g id="node5" class="node">
<title>GO:0032403</title>
<polygon fill="#ffffff" stroke="#000000" points="973.4198,-299.4019 820.123,-299.4019 820.123,-258.1981 973.4198,-258.1981 973.4198,-299.4019"/>
<text text-anchor="middle" x="896.7714" y="-283" font-family="Times,serif" font-size="14.00" fill="#000000">GO:0032403</text>
<text text-anchor="middle" x="896.7714" y="-266.2" font-family="Times,serif" font-size="14.00" fill="#000000">protein complex binding</text>
</g>
<!-- GO:0005178&#45;&gt;GO:0032403 -->
<g id="edge3" class="edge">
<title>GO:0005178&#45;&gt;GO:0032403</title>
<path fill="none" stroke="#000000" d="M1182.543,-203.0327C1131.0598,-213.3327 1051.0266,-230.4095 982.7714,-249.6 976.7946,-251.2804 970.6219,-253.1347 964.4548,-255.0696"/>
<polygon fill="#000000" stroke="#000000" points="963.2531,-251.7793 954.7975,-258.1632 965.3886,-258.4456 963.2531,-251.7793"/>
</g>
<!-- GO:0005102 -->
<g id="node6" class="node">
<title>GO:0005102</title>
<polygon fill="#ffffff" stroke="#000000" points="1433.9083,-299.4019 1325.6345,-299.4019 1325.6345,-258.1981 1433.9083,-258.1981 1433.9083,-299.4019"/>
<text text-anchor="middle" x="1379.7714" y="-283" font-family="Times,serif" font-size="14.00" fill="#000000">GO:0005102</text>
<text text-anchor="middle" x="1379.7714" y="-266.2" font-family="Times,serif" font-size="14.00" fill="#000000">receptor binding</text>
</g>
<!-- GO:0005178&#45;&gt;GO:0005102 -->
<g id="edge4" class="edge">
<title>GO:0005178&#45;&gt;GO:0005102</title>
<path fill="none" stroke="#000000" d="M1270.6298,-213.6182C1290.4401,-225.4494 1315.4163,-240.3657 1336.4751,-252.9425"/>
<polygon fill="#000000" stroke="#000000" points="1334.854,-256.051 1345.234,-258.1735 1338.4432,-250.0411 1334.854,-256.051"/>
</g>
<!-- GO:0050839 -->
<g id="node7" class="node">
<title>GO:0050839</title>
<polygon fill="#ffffff" stroke="#000000" points="1308.0621,-308.2014 1163.4807,-308.2014 1163.4807,-249.3986 1308.0621,-249.3986 1308.0621,-308.2014"/>
<text text-anchor="middle" x="1235.7714" y="-291.4" font-family="Times,serif" font-size="14.00" fill="#000000">GO:0050839</text>
<text text-anchor="middle" x="1235.7714" y="-274.6" font-family="Times,serif" font-size="14.00" fill="#000000">cell adhesion molecule</text>
<text text-anchor="middle" x="1235.7714" y="-257.8" font-family="Times,serif" font-size="14.00" fill="#000000">binding</text>
</g>
<!-- GO:0005178&#45;&gt;GO:0050839 -->
<g id="edge5" class="edge">
<title>GO:0005178&#45;&gt;GO:0050839</title>
<path fill="none" stroke="#000000" d="M1235.7714,-213.6182C1235.7714,-221.3358 1235.7714,-230.3662 1235.7714,-239.2036"/>
<polygon fill="#000000" stroke="#000000" points="1232.2715,-239.3991 1235.7714,-249.3991 1239.2715,-239.3992 1232.2715,-239.3991"/>
</g>
<!-- GO:0044877 -->
<g id="node8" class="node">
<title>GO:0044877</title>
<polygon fill="#ffffff" stroke="#000000" points="1005.9387,-402.6014 847.6041,-402.6014 847.6041,-343.7986 1005.9387,-343.7986 1005.9387,-402.6014"/>
<text text-anchor="middle" x="926.7714" y="-385.8" font-family="Times,serif" font-size="14.00" fill="#000000">GO:0044877</text>
<text text-anchor="middle" x="926.7714" y="-369" font-family="Times,serif" font-size="14.00" fill="#000000">macromolecular complex</text>
<text text-anchor="middle" x="926.7714" y="-352.2" font-family="Times,serif" font-size="14.00" fill="#000000">binding</text>
</g>
<!-- GO:0032403&#45;&gt;GO:0044877 -->
<g id="edge6" class="edge">
<title>GO:0032403&#45;&gt;GO:0044877</title>
<path fill="none" stroke="#000000" d="M903.4294,-299.7504C906.6391,-309.8502 910.5959,-322.3012 914.334,-334.0637"/>
<polygon fill="#000000" stroke="#000000" points="911.0369,-335.2453 917.4013,-343.7155 917.7082,-333.1251 911.0369,-335.2453"/>
</g>
<!-- GO:0005515 -->
<g id="node9" class="node">
<title>GO:0005515</title>
<polygon fill="#ffffff" stroke="#000000" points="1125.709,-393.8019 1023.8338,-393.8019 1023.8338,-352.5981 1125.709,-352.5981 1125.709,-393.8019"/>
<text text-anchor="middle" x="1074.7714" y="-377.4" font-family="Times,serif" font-size="14.00" fill="#000000">GO:0005515</text>
<text text-anchor="middle" x="1074.7714" y="-360.6" font-family="Times,serif" font-size="14.00" fill="#000000">protein binding</text>
</g>
<!-- GO:0032403&#45;&gt;GO:0005515 -->
<g id="edge7" class="edge">
<title>GO:0032403&#45;&gt;GO:0005515</title>
<path fill="none" stroke="#000000" d="M935.8343,-299.5165C962.6141,-313.7188 998.3126,-332.6511 1026.8179,-347.7685"/>
<polygon fill="#000000" stroke="#000000" points="1025.3253,-350.9386 1035.7997,-352.5318 1028.605,-344.7545 1025.3253,-350.9386"/>
</g>
<!-- GO:0005102&#45;&gt;GO:0005515 -->
<g id="edge8" class="edge">
<title>GO:0005102&#45;&gt;GO:0005515</title>
<path fill="none" stroke="#000000" d="M1337.828,-299.4441C1330.8775,-302.5154 1323.6828,-305.4881 1316.7714,-308 1256.5133,-329.9 1185.449,-348.1899 1135.9814,-359.7702"/>
<polygon fill="#000000" stroke="#000000" points="1135.0265,-356.3986 1126.0755,-362.067 1136.6076,-363.2177 1135.0265,-356.3986"/>
</g>
<!-- GO:0050839&#45;&gt;GO:0005515 -->
<g id="edge9" class="edge">
<title>GO:0050839&#45;&gt;GO:0005515</title>
<path fill="none" stroke="#000000" d="M1185.7125,-308.1513C1164.3237,-320.6923 1139.5723,-335.2049 1118.8827,-347.336"/>
<polygon fill="#000000" stroke="#000000" points="1116.8447,-344.4736 1109.9885,-352.551 1120.3853,-350.5122 1116.8447,-344.4736"/>
</g>
<!-- GO:0044877&#45;&gt;GO:0005488 -->
<g id="edge10" class="edge">
<title>GO:0044877&#45;&gt;GO:0005488</title>
<path fill="none" stroke="#000000" d="M847.1497,-399.6324C844.3224,-400.567 841.5228,-401.4918 838.7714,-402.4 799.1543,-415.4764 754.4076,-430.1657 720.3487,-441.3297"/>
<polygon fill="#000000" stroke="#000000" points="719.0029,-438.0875 710.5902,-444.5278 721.1829,-444.7394 719.0029,-438.0875"/>
</g>
<!-- GO:0005515&#45;&gt;GO:0005488 -->
<g id="edge11" class="edge">
<title>GO:0005515&#45;&gt;GO:0005488</title>
<path fill="none" stroke="#000000" d="M1036.398,-393.9068C1029.35,-397.1205 1021.9491,-400.1235 1014.7714,-402.4 913.8918,-434.3956 790.6067,-449.0569 720.8442,-455.2205"/>
<polygon fill="#000000" stroke="#000000" points="720.1986,-451.7629 710.5339,-456.1038 720.7961,-458.7374 720.1986,-451.7629"/>
</g>
<!-- GO:0016787 -->
<g id="node10" class="node">
<title>GO:0016787</title>
<polygon fill="#ffffff" stroke="#000000" points="1423.688,-393.8019 1307.8548,-393.8019 1307.8548,-352.5981 1423.688,-352.5981 1423.688,-393.8019"/>
<text text-anchor="middle" x="1365.7714" y="-377.4" font-family="Times,serif" font-size="14.00" fill="#000000">GO:0016787</text>
<text text-anchor="middle" x="1365.7714" y="-360.6" font-family="Times,serif" font-size="14.00" fill="#000000">hydrolase activity</text>
</g>
<!-- GO:0003824 -->
<g id="node11" class="node">
<title>GO:0003824</title>
<polygon fill="#ff00ff" stroke="#000000" points="1128.1838,-479.8019 1019.359,-479.8019 1019.359,-438.5981 1128.1838,-438.5981 1128.1838,-479.8019"/>
<text text-anchor="middle" x="1073.7714" y="-463.4" font-family="Times,serif" font-size="14.00" fill="#000000">GO:0003824</text>
<text text-anchor="middle" x="1073.7714" y="-446.6" font-family="Times,serif" font-size="14.00" fill="#000000">catalytic activity</text>
</g>
<!-- GO:0016787&#45;&gt;GO:0003824 -->
<g id="edge12" class="edge">
<title>GO:0016787&#45;&gt;GO:0003824</title>
<path fill="none" stroke="#000000" d="M1307.5017,-389.245C1261.3331,-402.1067 1195.2589,-420.8447 1137.7714,-438.4 1137.6736,-438.4299 1137.5758,-438.4598 1137.4779,-438.4897"/>
<polygon fill="#000000" stroke="#000000" points="1136.7129,-435.0625 1128.1969,-441.3656 1138.7848,-441.7488 1136.7129,-435.0625"/>
</g>
<!-- GO:0003824&#45;&gt;GO:0003674 -->
<g id="edge13" class="edge">
<title>GO:0003824&#45;&gt;GO:0003674</title>
<path fill="none" stroke="#000000" d="M1073.7714,-479.9954C1073.7714,-487.9109 1073.7714,-497.1109 1073.7714,-505.7722"/>
<polygon fill="#000000" stroke="#000000" points="1070.2715,-505.9472 1073.7714,-515.9472 1077.2715,-505.9473 1070.2715,-505.9472"/>
</g>
<!-- GO:0097367 -->
<g id="node12" class="node">
<title>GO:0097367</title>
<polygon fill="#ffffff" stroke="#000000" points="323.8185,-402.6014 175.7243,-402.6014 175.7243,-343.7986 323.8185,-343.7986 323.8185,-402.6014"/>
<text text-anchor="middle" x="249.7714" y="-385.8" font-family="Times,serif" font-size="14.00" fill="#000000">GO:0097367</text>
<text text-anchor="middle" x="249.7714" y="-369" font-family="Times,serif" font-size="14.00" fill="#000000">carbohydrate derivative</text>
<text text-anchor="middle" x="249.7714" y="-352.2" font-family="Times,serif" font-size="14.00" fill="#000000">binding</text>
</g>
<!-- GO:0097367&#45;&gt;GO:0005488 -->
<g id="edge14" class="edge">
<title>GO:0097367&#45;&gt;GO:0005488</title>
<path fill="none" stroke="#000000" d="M324.2439,-400.069C327.1122,-400.8908 329.9619,-401.6718 332.7714,-402.4 429.2319,-427.4021 544.3393,-444.237 610.8492,-452.7322"/>
<polygon fill="#000000" stroke="#000000" points="610.7368,-456.2457 621.0961,-454.024 611.6124,-449.3007 610.7368,-456.2457"/>
</g>
<!-- GO:0005215 -->
<g id="node13" class="node">
<title>GO:0005215</title>
<polygon fill="#ffffff" stroke="#000000" points="1268.8999,-479.8019 1146.6429,-479.8019 1146.6429,-438.5981 1268.8999,-438.5981 1268.8999,-479.8019"/>
<text text-anchor="middle" x="1207.7714" y="-463.4" font-family="Times,serif" font-size="14.00" fill="#000000">GO:0005215</text>
<text text-anchor="middle" x="1207.7714" y="-446.6" font-family="Times,serif" font-size="14.00" fill="#000000">transporter activity</text>
</g>
<!-- GO:0005215&#45;&gt;GO:0003674 -->
<g id="edge15" class="edge">
<title>GO:0005215&#45;&gt;GO:0003674</title>
<path fill="none" stroke="#000000" d="M1171.8619,-479.9954C1155.4897,-489.4766 1135.9351,-500.8008 1118.6088,-510.8345"/>
<polygon fill="#000000" stroke="#000000" points="1116.6797,-507.907 1109.7801,-515.9472 1120.1878,-513.9646 1116.6797,-507.907"/>
</g>
<!-- GO:0016798 -->
<g id="node14" class="node">
<title>GO:0016798</title>
<polygon fill="#ffffff" stroke="#000000" points="1607.3673,-308.2014 1452.1755,-308.2014 1452.1755,-249.3986 1607.3673,-249.3986 1607.3673,-308.2014"/>
<text text-anchor="middle" x="1529.7714" y="-291.4" font-family="Times,serif" font-size="14.00" fill="#000000">GO:0016798</text>
<text text-anchor="middle" x="1529.7714" y="-274.6" font-family="Times,serif" font-size="14.00" fill="#000000">hydrolase activity,</text>
<text text-anchor="middle" x="1529.7714" y="-257.8" font-family="Times,serif" font-size="14.00" fill="#000000">acting on glycosyl bonds</text>
</g>
<!-- GO:0016798&#45;&gt;GO:0016787 -->
<g id="edge16" class="edge">
<title>GO:0016798&#45;&gt;GO:0016787</title>
<path fill="none" stroke="#000000" d="M1478.7798,-308.1513C1456.8946,-320.7486 1431.5536,-335.3351 1410.4214,-347.4991"/>
<polygon fill="#000000" stroke="#000000" points="1408.5654,-344.5289 1401.6447,-352.551 1412.0575,-350.5956 1408.5654,-344.5289"/>
</g>
<!-- GO:0008327 -->
<g id="node15" class="node">
<title>GO:0008327</title>
<polygon fill="#ffffff" stroke="#000000" points="722.0431,-41.4019 589.4997,-41.4019 589.4997,-.1981 722.0431,-.1981 722.0431,-41.4019"/>
<text text-anchor="middle" x="655.7714" y="-25" font-family="Times,serif" font-size="14.00" fill="#000000">GO:0008327</text>
<text text-anchor="middle" x="655.7714" y="-8.2" font-family="Times,serif" font-size="14.00" fill="#000000">methyl&#45;CpG binding</text>
</g>
<!-- GO:0043565 -->
<g id="node16" class="node">
<title>GO:0043565</title>
<polygon fill="#ffffff" stroke="#000000" points="794.5853,-136.2014 644.9575,-136.2014 644.9575,-77.3986 794.5853,-77.3986 794.5853,-136.2014"/>
<text text-anchor="middle" x="719.7714" y="-119.4" font-family="Times,serif" font-size="14.00" fill="#000000">GO:0043565</text>
<text text-anchor="middle" x="719.7714" y="-102.6" font-family="Times,serif" font-size="14.00" fill="#000000">sequence&#45;specific DNA</text>
<text text-anchor="middle" x="719.7714" y="-85.8" font-family="Times,serif" font-size="14.00" fill="#000000">binding</text>
</g>
<!-- GO:0008327&#45;&gt;GO:0043565 -->
<g id="edge17" class="edge">
<title>GO:0008327&#45;&gt;GO:0043565</title>
<path fill="none" stroke="#000000" d="M671.264,-41.6182C677.4443,-49.923 684.7559,-59.748 691.8025,-69.2168"/>
<polygon fill="#000000" stroke="#000000" points="689.1137,-71.4663 697.8917,-77.3991 694.7294,-67.2872 689.1137,-71.4663"/>
</g>
<!-- GO:0000166 -->
<g id="node17" class="node">
<title>GO:0000166</title>
<polygon fill="#ffffff" stroke="#000000" points="640.8689,-213.4019 520.6739,-213.4019 520.6739,-172.1981 640.8689,-172.1981 640.8689,-213.4019"/>
<text text-anchor="middle" x="580.7714" y="-197" font-family="Times,serif" font-size="14.00" fill="#000000">GO:0000166</text>
<text text-anchor="middle" x="580.7714" y="-180.2" font-family="Times,serif" font-size="14.00" fill="#000000">nucleotide binding</text>
</g>
<!-- GO:0008327&#45;&gt;GO:0000166 -->
<g id="edge18" class="edge">
<title>GO:0008327&#45;&gt;GO:0000166</title>
<path fill="none" stroke="#000000" d="M646.7246,-41.5472C633.5481,-71.7654 609.0018,-128.0583 593.8557,-162.7934"/>
<polygon fill="#000000" stroke="#000000" points="590.639,-161.4138 589.8502,-171.9792 597.0556,-164.2117 590.639,-161.4138"/>
</g>
<!-- GO:0003677 -->
<g id="node18" class="node">
<title>GO:0003677</title>
<polygon fill="#ffffff" stroke="#000000" points="771.8733,-213.4019 679.6695,-213.4019 679.6695,-172.1981 771.8733,-172.1981 771.8733,-213.4019"/>
<text text-anchor="middle" x="725.7714" y="-197" font-family="Times,serif" font-size="14.00" fill="#000000">GO:0003677</text>
<text text-anchor="middle" x="725.7714" y="-180.2" font-family="Times,serif" font-size="14.00" fill="#000000">DNA binding</text>
</g>
<!-- GO:0043565&#45;&gt;GO:0003677 -->
<g id="edge19" class="edge">
<title>GO:0043565&#45;&gt;GO:0003677</title>
<path fill="none" stroke="#000000" d="M721.8363,-136.3963C722.4131,-144.6638 723.0411,-153.6657 723.6226,-162.0008"/>
<polygon fill="#000000" stroke="#000000" points="720.1394,-162.3644 724.327,-172.0966 727.1224,-161.8772 720.1394,-162.3644"/>
</g>
<!-- GO:0036094 -->
<g id="node19" class="node">
<title>GO:0036094</title>
<polygon fill="#ffffff" stroke="#000000" points="489.6998,-393.8019 341.843,-393.8019 341.843,-352.5981 489.6998,-352.5981 489.6998,-393.8019"/>
<text text-anchor="middle" x="415.7714" y="-377.4" font-family="Times,serif" font-size="14.00" fill="#000000">GO:0036094</text>
<text text-anchor="middle" x="415.7714" y="-360.6" font-family="Times,serif" font-size="14.00" fill="#000000">small molecule binding</text>
</g>
<!-- GO:0000166&#45;&gt;GO:0036094 -->
<g id="edge20" class="edge">
<title>GO:0000166&#45;&gt;GO:0036094</title>
<path fill="none" stroke="#000000" d="M547.8545,-213.6404C533.4773,-223.5801 516.9324,-236.2155 503.7714,-249.6 475.3556,-278.4984 449.3092,-317.3066 433.0485,-343.6741"/>
<polygon fill="#000000" stroke="#000000" points="429.9204,-342.082 427.7171,-352.4452 435.9021,-345.7179 429.9204,-342.082"/>
</g>
<!-- GO:1901265 -->
<g id="node20" class="node">
<title>GO:1901265</title>
<polygon fill="#ffffff" stroke="#000000" points="648.9055,-308.2014 512.6373,-308.2014 512.6373,-249.3986 648.9055,-249.3986 648.9055,-308.2014"/>
<text text-anchor="middle" x="580.7714" y="-291.4" font-family="Times,serif" font-size="14.00" fill="#000000">GO:1901265</text>
<text text-anchor="middle" x="580.7714" y="-274.6" font-family="Times,serif" font-size="14.00" fill="#000000">nucleoside phosphate</text>
<text text-anchor="middle" x="580.7714" y="-257.8" font-family="Times,serif" font-size="14.00" fill="#000000">binding</text>
</g>
<!-- GO:0000166&#45;&gt;GO:1901265 -->
<g id="edge21" class="edge">
<title>GO:0000166&#45;&gt;GO:1901265</title>
<path fill="none" stroke="#000000" d="M580.7714,-213.6182C580.7714,-221.3358 580.7714,-230.3662 580.7714,-239.2036"/>
<polygon fill="#000000" stroke="#000000" points="577.2715,-239.3991 580.7714,-249.3991 584.2715,-239.3992 577.2715,-239.3991"/>
</g>
<!-- GO:0003676 -->
<g id="node21" class="node">
<title>GO:0003676</title>
<polygon fill="#ffffff" stroke="#000000" points="796.2983,-299.4019 667.2445,-299.4019 667.2445,-258.1981 796.2983,-258.1981 796.2983,-299.4019"/>
<text text-anchor="middle" x="731.7714" y="-283" font-family="Times,serif" font-size="14.00" fill="#000000">GO:0003676</text>
<text text-anchor="middle" x="731.7714" y="-266.2" font-family="Times,serif" font-size="14.00" fill="#000000">nucleic acid binding</text>
</g>
<!-- GO:0003677&#45;&gt;GO:0003676 -->
<g id="edge22" class="edge">
<title>GO:0003677&#45;&gt;GO:0003676</title>
<path fill="none" stroke="#000000" d="M727.2238,-213.6182C727.9461,-223.9705 728.8331,-236.6848 729.6314,-248.1271"/>
<polygon fill="#000000" stroke="#000000" points="726.1448,-248.4414 730.3323,-258.1735 733.1278,-247.9541 726.1448,-248.4414"/>
</g>
<!-- GO:0036094&#45;&gt;GO:0005488 -->
<g id="edge23" class="edge">
<title>GO:0036094&#45;&gt;GO:0005488</title>
<path fill="none" stroke="#000000" d="M473.5213,-393.8957C481.6564,-396.7728 489.9194,-399.6748 497.7714,-402.4 535.5975,-415.5284 578.3466,-429.9762 611.2556,-441.015"/>
<polygon fill="#000000" stroke="#000000" points="610.5426,-444.4673 621.1365,-444.3262 612.7668,-437.8301 610.5426,-444.4673"/>
</g>
<!-- GO:0097159 -->
<g id="node22" class="node">
<title>GO:0097159</title>
<polygon fill="#ffffff" stroke="#000000" points="829.2828,-402.6014 672.26,-402.6014 672.26,-343.7986 829.2828,-343.7986 829.2828,-402.6014"/>
<text text-anchor="middle" x="750.7714" y="-385.8" font-family="Times,serif" font-size="14.00" fill="#000000">GO:0097159</text>
<text text-anchor="middle" x="750.7714" y="-369" font-family="Times,serif" font-size="14.00" fill="#000000">organic cyclic compound</text>
<text text-anchor="middle" x="750.7714" y="-352.2" font-family="Times,serif" font-size="14.00" fill="#000000">binding</text>
</g>
<!-- GO:1901265&#45;&gt;GO:0097159 -->
<g id="edge24" class="edge">
<title>GO:1901265&#45;&gt;GO:0097159</title>
<path fill="none" stroke="#000000" d="M633.6286,-308.1513C651.2186,-317.9189 670.9624,-328.8825 689.1561,-338.9854"/>
<polygon fill="#000000" stroke="#000000" points="687.5052,-342.072 697.9469,-343.8669 690.9035,-335.9522 687.5052,-342.072"/>
</g>
<!-- GO:1901363 -->
<g id="node23" class="node">
<title>GO:1901363</title>
<polygon fill="#ffffff" stroke="#000000" points="654.282,-402.6014 507.2608,-402.6014 507.2608,-343.7986 654.282,-343.7986 654.282,-402.6014"/>
<text text-anchor="middle" x="580.7714" y="-385.8" font-family="Times,serif" font-size="14.00" fill="#000000">GO:1901363</text>
<text text-anchor="middle" x="580.7714" y="-369" font-family="Times,serif" font-size="14.00" fill="#000000">heterocyclic compound</text>
<text text-anchor="middle" x="580.7714" y="-352.2" font-family="Times,serif" font-size="14.00" fill="#000000">binding</text>
</g>
<!-- GO:1901265&#45;&gt;GO:1901363 -->
<g id="edge25" class="edge">
<title>GO:1901265&#45;&gt;GO:1901363</title>
<path fill="none" stroke="#000000" d="M580.7714,-308.1513C580.7714,-316.2318 580.7714,-325.1308 580.7714,-333.6838"/>
<polygon fill="#000000" stroke="#000000" points="577.2715,-333.8668 580.7714,-343.8669 584.2715,-333.8669 577.2715,-333.8668"/>
</g>
<!-- GO:0003676&#45;&gt;GO:0097159 -->
<g id="edge26" class="edge">
<title>GO:0003676&#45;&gt;GO:0097159</title>
<path fill="none" stroke="#000000" d="M735.9881,-299.7504C738.0006,-309.7492 740.4769,-322.0525 742.8233,-333.7106"/>
<polygon fill="#000000" stroke="#000000" points="739.4326,-334.6027 744.837,-343.7155 746.295,-333.2215 739.4326,-334.6027"/>
</g>
<!-- GO:0003676&#45;&gt;GO:1901363 -->
<g id="edge27" class="edge">
<title>GO:0003676&#45;&gt;GO:1901363</title>
<path fill="none" stroke="#000000" d="M698.6338,-299.5165C680.3213,-310.9649 657.0926,-325.4866 636.1068,-338.6062"/>
<polygon fill="#000000" stroke="#000000" points="634.2031,-335.6686 627.5791,-343.9374 637.9138,-341.6042 634.2031,-335.6686"/>
</g>
<!-- GO:0097159&#45;&gt;GO:0005488 -->
<g id="edge28" class="edge">
<title>GO:0097159&#45;&gt;GO:0005488</title>
<path fill="none" stroke="#000000" d="M721.5192,-402.7963C712.44,-411.9824 702.4645,-422.0752 693.4927,-431.1526"/>
<polygon fill="#000000" stroke="#000000" points="690.7744,-428.9239 686.2341,-438.4966 695.7531,-433.8446 690.7744,-428.9239"/>
</g>
<!-- GO:1901363&#45;&gt;GO:0005488 -->
<g id="edge29" class="edge">
<title>GO:1901363&#45;&gt;GO:0005488</title>
<path fill="none" stroke="#000000" d="M610.0236,-402.7963C619.1028,-411.9824 629.0783,-422.0752 638.0501,-431.1526"/>
<polygon fill="#000000" stroke="#000000" points="635.7897,-433.8446 645.3087,-438.4966 640.7684,-428.9239 635.7897,-433.8446"/>
</g>
<!-- GO:0008201 -->
<g id="node24" class="node">
<title>GO:0008201</title>
<polygon fill="#ffffff" stroke="#000000" points="217.0333,-213.4019 112.5095,-213.4019 112.5095,-172.1981 217.0333,-172.1981 217.0333,-213.4019"/>
<text text-anchor="middle" x="164.7714" y="-197" font-family="Times,serif" font-size="14.00" fill="#000000">GO:0008201</text>
<text text-anchor="middle" x="164.7714" y="-180.2" font-family="Times,serif" font-size="14.00" fill="#000000">heparin binding</text>
</g>
<!-- GO:0008201&#45;&gt;GO:1901681 -->
<g id="edge30" class="edge">
<title>GO:0008201&#45;&gt;GO:1901681</title>
<path fill="none" stroke="#000000" d="M154.9061,-213.4942C139.7183,-245.3532 110.5372,-306.5657 93.0448,-343.259"/>
<polygon fill="#000000" stroke="#000000" points="89.7976,-341.9372 88.6537,-352.4701 96.1164,-344.9495 89.7976,-341.9372"/>
</g>
<!-- GO:0005539 -->
<g id="node25" class="node">
<title>GO:0005539</title>
<polygon fill="#ffffff" stroke="#000000" points="321.4181,-299.4019 150.1247,-299.4019 150.1247,-258.1981 321.4181,-258.1981 321.4181,-299.4019"/>
<text text-anchor="middle" x="235.7714" y="-283" font-family="Times,serif" font-size="14.00" fill="#000000">GO:0005539</text>
<text text-anchor="middle" x="235.7714" y="-266.2" font-family="Times,serif" font-size="14.00" fill="#000000">glycosaminoglycan binding</text>
</g>
<!-- GO:0008201&#45;&gt;GO:0005539 -->
<g id="edge31" class="edge">
<title>GO:0008201&#45;&gt;GO:0005539</title>
<path fill="none" stroke="#000000" d="M181.9585,-213.6182C191.0284,-224.6043 202.2945,-238.2506 212.171,-250.2137"/>
<polygon fill="#000000" stroke="#000000" points="209.677,-252.6902 218.7426,-258.1735 215.0751,-248.2337 209.677,-252.6902"/>
</g>
<!-- GO:0005539&#45;&gt;GO:0097367 -->
<g id="edge32" class="edge">
<title>GO:0005539&#45;&gt;GO:0097367</title>
<path fill="none" stroke="#000000" d="M238.8785,-299.7504C240.3613,-309.7492 242.186,-322.0525 243.9149,-333.7106"/>
<polygon fill="#000000" stroke="#000000" points="240.4695,-334.3372 245.3987,-343.7155 247.3937,-333.3102 240.4695,-334.3372"/>
</g>
<!-- GO:0042802 -->
<g id="node26" class="node">
<title>GO:0042802</title>
<polygon fill="#ffffff" stroke="#000000" points="1145.4156,-299.4019 992.1272,-299.4019 992.1272,-258.1981 1145.4156,-258.1981 1145.4156,-299.4019"/>
<text text-anchor="middle" x="1068.7714" y="-283" font-family="Times,serif" font-size="14.00" fill="#000000">GO:0042802</text>
<text text-anchor="middle" x="1068.7714" y="-266.2" font-family="Times,serif" font-size="14.00" fill="#000000">identical protein binding</text>
</g>
<!-- GO:0042802&#45;&gt;GO:0005515 -->
<g id="edge33" class="edge">
<title>GO:0042802&#45;&gt;GO:0005515</title>
<path fill="none" stroke="#000000" d="M1070.103,-299.7504C1070.8953,-312.2165 1071.9153,-328.2645 1072.7997,-342.1786"/>
<polygon fill="#000000" stroke="#000000" points="1069.3162,-342.5503 1073.4435,-352.3081 1076.3021,-342.1062 1069.3162,-342.5503"/>
</g>
</g>
</svg>
