<?xml version="1.0" encoding="UTF-8" standalone="no"?>
<!DOCTYPE svg PUBLIC "-//W3C//DTD SVG 1.1//EN"
 "http://www.w3.org/Graphics/SVG/1.1/DTD/svg11.dtd">
<!-- Generated by graphviz version 2.40.1 (20161225.0304)
 -->
<!-- Title: G Pages: 1 -->
<svg width="942pt" height="316pt"
 viewBox="0.00 0.00 942.09 316.00" xmlns="http://www.w3.org/2000/svg" xmlns:xlink="http://www.w3.org/1999/xlink">
<g id="graph0" class="graph" transform="scale(1 1) rotate(0) translate(4 312)">
<title>G</title>
<polygon fill="#ffffff" stroke="transparent" points="-4,4 -4,-312 938.0902,-312 938.0902,4 -4,4"/>
<!-- GO:0044238 -->
<g id="node1" class="node">
<title>GO:0044238</title>
<polygon fill="#ff00ff" stroke="#000000" points="164.2541,-144.2019 .2481,-144.2019 .2481,-102.9981 164.2541,-102.9981 164.2541,-144.2019"/>
<text text-anchor="middle" x="82.2511" y="-127.8" font-family="Times,serif" font-size="14.00" fill="#000000">GO:0044238</text>
<text text-anchor="middle" x="82.2511" y="-111" font-family="Times,serif" font-size="14.00" fill="#000000">primary metabolic process</text>
</g>
<!-- GO:0008152 -->
<g id="node2" class="node">
<title>GO:0008152</title>
<polygon fill="#ffffff" stroke="#000000" points="447.4367,-230.2019 331.0655,-230.2019 331.0655,-188.9981 447.4367,-188.9981 447.4367,-230.2019"/>
<text text-anchor="middle" x="389.2511" y="-213.8" font-family="Times,serif" font-size="14.00" fill="#000000">GO:0008152</text>
<text text-anchor="middle" x="389.2511" y="-197" font-family="Times,serif" font-size="14.00" fill="#000000">metabolic process</text>
</g>
<!-- GO:0044238&#45;&gt;GO:0008152 -->
<g id="edge1" class="edge">
<title>GO:0044238&#45;&gt;GO:0008152</title>
<path fill="none" stroke="#000000" d="M145.9718,-144.2699C155.4301,-147.2084 165.0788,-150.1345 174.2511,-152.8 222.9881,-166.9629 278.3662,-181.5582 320.7128,-192.4071"/>
<polygon fill="#000000" stroke="#000000" points="320.0808,-195.858 330.636,-194.9419 321.8134,-189.0758 320.0808,-195.858"/>
</g>
<!-- GO:0008150 -->
<g id="node3" class="node">
<title>GO:0008150</title>
<polygon fill="#ffffff" stroke="#000000" points="676.7217,-307.8019 555.7805,-307.8019 555.7805,-266.5981 676.7217,-266.5981 676.7217,-307.8019"/>
<text text-anchor="middle" x="616.2511" y="-291.4" font-family="Times,serif" font-size="14.00" fill="#000000">GO:0008150</text>
<text text-anchor="middle" x="616.2511" y="-274.6" font-family="Times,serif" font-size="14.00" fill="#000000">biological_process</text>
</g>
<!-- GO:0008152&#45;&gt;GO:0008150 -->
<g id="edge2" class="edge">
<title>GO:0008152&#45;&gt;GO:0008150</title>
<path fill="none" stroke="#000000" d="M447.7092,-229.5839C477.7095,-239.8395 514.4793,-252.4093 546.0108,-263.1883"/>
<polygon fill="#000000" stroke="#000000" points="545.0204,-266.5486 555.615,-266.4715 547.2848,-259.9249 545.0204,-266.5486"/>
</g>
<!-- GO:0044710 -->
<g id="node4" class="node">
<title>GO:0044710</title>
<polygon fill="#ffffff" stroke="#000000" points="629.6593,-153.0014 464.8429,-153.0014 464.8429,-94.1986 629.6593,-94.1986 629.6593,-153.0014"/>
<text text-anchor="middle" x="547.2511" y="-136.2" font-family="Times,serif" font-size="14.00" fill="#000000">GO:0044710</text>
<text text-anchor="middle" x="547.2511" y="-119.4" font-family="Times,serif" font-size="14.00" fill="#000000">single&#45;organism metabolic</text>
<text text-anchor="middle" x="547.2511" y="-102.6" font-family="Times,serif" font-size="14.00" fill="#000000">process</text>
</g>
<!-- GO:0044710&#45;&gt;GO:0008152 -->
<g id="edge3" class="edge">
<title>GO:0044710&#45;&gt;GO:0008152</title>
<path fill="none" stroke="#000000" d="M493.3184,-152.9558C474.8956,-162.9834 454.4437,-174.1154 436.5808,-183.8383"/>
<polygon fill="#000000" stroke="#000000" points="434.61,-180.926 427.5001,-188.7809 437.9566,-187.0743 434.61,-180.926"/>
</g>
<!-- GO:0044699 -->
<g id="node5" class="node">
<title>GO:0044699</title>
<polygon fill="#ffffff" stroke="#000000" points="622.9324,-230.2019 471.5698,-230.2019 471.5698,-188.9981 622.9324,-188.9981 622.9324,-230.2019"/>
<text text-anchor="middle" x="547.2511" y="-213.8" font-family="Times,serif" font-size="14.00" fill="#000000">GO:0044699</text>
<text text-anchor="middle" x="547.2511" y="-197" font-family="Times,serif" font-size="14.00" fill="#000000">single&#45;organism process</text>
</g>
<!-- GO:0044710&#45;&gt;GO:0044699 -->
<g id="edge4" class="edge">
<title>GO:0044710&#45;&gt;GO:0044699</title>
<path fill="none" stroke="#000000" d="M547.2511,-153.1963C547.2511,-161.4638 547.2511,-170.4657 547.2511,-178.8008"/>
<polygon fill="#000000" stroke="#000000" points="543.7512,-178.8965 547.2511,-188.8966 550.7512,-178.8966 543.7512,-178.8965"/>
</g>
<!-- GO:0044699&#45;&gt;GO:0008150 -->
<g id="edge5" class="edge">
<title>GO:0044699&#45;&gt;GO:0008150</title>
<path fill="none" stroke="#000000" d="M565.7418,-230.3954C573.4762,-239.0937 582.5898,-249.3433 590.9313,-258.7244"/>
<polygon fill="#000000" stroke="#000000" points="588.4489,-261.1999 597.7093,-266.3472 593.68,-256.5485 588.4489,-261.1999"/>
</g>
<!-- GO:0040007 -->
<g id="node6" class="node">
<title>GO:0040007</title>
<polygon fill="#ffff00" stroke="#000000" points="729.855,-230.2019 640.6472,-230.2019 640.6472,-188.9981 729.855,-188.9981 729.855,-230.2019"/>
<text text-anchor="middle" x="685.2511" y="-213.8" font-family="Times,serif" font-size="14.00" fill="#000000">GO:0040007</text>
<text text-anchor="middle" x="685.2511" y="-197" font-family="Times,serif" font-size="14.00" fill="#000000">growth</text>
</g>
<!-- GO:0040007&#45;&gt;GO:0008150 -->
<g id="edge6" class="edge">
<title>GO:0040007&#45;&gt;GO:0008150</title>
<path fill="none" stroke="#000000" d="M666.7604,-230.3954C659.026,-239.0937 649.9124,-249.3433 641.5709,-258.7244"/>
<polygon fill="#000000" stroke="#000000" points="638.8222,-256.5485 634.7929,-266.3472 644.0533,-261.1999 638.8222,-256.5485"/>
</g>
<!-- GO:1901576 -->
<g id="node7" class="node">
<title>GO:1901576</title>
<polygon fill="#ffffff" stroke="#000000" points="376.1663,-58.6014 246.3359,-58.6014 246.3359,.2014 376.1663,.2014 376.1663,-58.6014"/>
<text text-anchor="middle" x="311.2511" y="-41.8" font-family="Times,serif" font-size="14.00" fill="#000000">GO:1901576</text>
<text text-anchor="middle" x="311.2511" y="-25" font-family="Times,serif" font-size="14.00" fill="#000000">organic substance</text>
<text text-anchor="middle" x="311.2511" y="-8.2" font-family="Times,serif" font-size="14.00" fill="#000000">biosynthetic process</text>
</g>
<!-- GO:0071704 -->
<g id="node8" class="node">
<title>GO:0071704</title>
<polygon fill="#ff00ff" stroke="#000000" points="299.4367,-153.0014 183.0655,-153.0014 183.0655,-94.1986 299.4367,-94.1986 299.4367,-153.0014"/>
<text text-anchor="middle" x="241.2511" y="-136.2" font-family="Times,serif" font-size="14.00" fill="#000000">GO:0071704</text>
<text text-anchor="middle" x="241.2511" y="-119.4" font-family="Times,serif" font-size="14.00" fill="#000000">organic substance</text>
<text text-anchor="middle" x="241.2511" y="-102.6" font-family="Times,serif" font-size="14.00" fill="#000000">metabolic process</text>
</g>
<!-- GO:1901576&#45;&gt;GO:0071704 -->
<g id="edge7" class="edge">
<title>GO:1901576&#45;&gt;GO:0071704</title>
<path fill="none" stroke="#000000" d="M289.4864,-58.5513C283.0336,-67.2534 275.8769,-76.9047 269.0947,-86.0509"/>
<polygon fill="#000000" stroke="#000000" points="266.1473,-84.1496 263.0024,-94.2669 271.7702,-88.319 266.1473,-84.1496"/>
</g>
<!-- GO:0009058 -->
<g id="node9" class="node">
<title>GO:0009058</title>
<polygon fill="#ffffff" stroke="#000000" points="447.1663,-144.2019 317.3359,-144.2019 317.3359,-102.9981 447.1663,-102.9981 447.1663,-144.2019"/>
<text text-anchor="middle" x="382.2511" y="-127.8" font-family="Times,serif" font-size="14.00" fill="#000000">GO:0009058</text>
<text text-anchor="middle" x="382.2511" y="-111" font-family="Times,serif" font-size="14.00" fill="#000000">biosynthetic process</text>
</g>
<!-- GO:1901576&#45;&gt;GO:0009058 -->
<g id="edge8" class="edge">
<title>GO:1901576&#45;&gt;GO:0009058</title>
<path fill="none" stroke="#000000" d="M333.3268,-58.5513C342.0401,-70.1363 352.0187,-83.4037 360.6819,-94.922"/>
<polygon fill="#000000" stroke="#000000" points="357.9126,-97.0629 366.7206,-102.951 363.5069,-92.8553 357.9126,-97.0629"/>
</g>
<!-- GO:0071704&#45;&gt;GO:0008152 -->
<g id="edge9" class="edge">
<title>GO:0071704&#45;&gt;GO:0008152</title>
<path fill="none" stroke="#000000" d="M291.7704,-152.9558C308.8689,-162.8914 327.8332,-173.9112 344.4558,-183.5703"/>
<polygon fill="#000000" stroke="#000000" points="343.0182,-186.7829 353.423,-188.7809 346.5352,-180.7305 343.0182,-186.7829"/>
</g>
<!-- GO:0009058&#45;&gt;GO:0008152 -->
<g id="edge10" class="edge">
<title>GO:0009058&#45;&gt;GO:0008152</title>
<path fill="none" stroke="#000000" d="M383.9456,-144.4182C384.7882,-154.7705 385.8231,-167.4848 386.7545,-178.9271"/>
<polygon fill="#000000" stroke="#000000" points="383.2724,-179.2905 387.5722,-188.9735 390.2493,-178.7225 383.2724,-179.2905"/>
</g>
<!-- GO:0009987 -->
<g id="node10" class="node">
<title>GO:0009987</title>
<polygon fill="#ffffff" stroke="#000000" points="851.2073,-230.2019 747.2949,-230.2019 747.2949,-188.9981 851.2073,-188.9981 851.2073,-230.2019"/>
<text text-anchor="middle" x="799.2511" y="-213.8" font-family="Times,serif" font-size="14.00" fill="#000000">GO:0009987</text>
<text text-anchor="middle" x="799.2511" y="-197" font-family="Times,serif" font-size="14.00" fill="#000000">cellular process</text>
</g>
<!-- GO:0009987&#45;&gt;GO:0008150 -->
<g id="edge11" class="edge">
<title>GO:0009987&#45;&gt;GO:0008150</title>
<path fill="none" stroke="#000000" d="M750.2105,-230.3954C726.9375,-240.2641 698.9557,-252.1296 674.5983,-262.4582"/>
<polygon fill="#000000" stroke="#000000" points="672.9496,-259.3556 665.1095,-266.4819 675.6824,-265.8001 672.9496,-259.3556"/>
</g>
<!-- GO:0044237 -->
<g id="node11" class="node">
<title>GO:0044237</title>
<polygon fill="#ffffff" stroke="#000000" points="764.4339,-153.0014 648.0683,-153.0014 648.0683,-94.1986 764.4339,-94.1986 764.4339,-153.0014"/>
<text text-anchor="middle" x="706.2511" y="-136.2" font-family="Times,serif" font-size="14.00" fill="#000000">GO:0044237</text>
<text text-anchor="middle" x="706.2511" y="-119.4" font-family="Times,serif" font-size="14.00" fill="#000000">cellular metabolic</text>
<text text-anchor="middle" x="706.2511" y="-102.6" font-family="Times,serif" font-size="14.00" fill="#000000">process</text>
</g>
<!-- GO:0044237&#45;&gt;GO:0008152 -->
<g id="edge13" class="edge">
<title>GO:0044237&#45;&gt;GO:0008152</title>
<path fill="none" stroke="#000000" d="M647.9319,-149.5386C644.6803,-150.7039 641.4387,-151.8011 638.2511,-152.8 562.0627,-176.6756 539.8108,-169.8471 462.2511,-188.8 460.7709,-189.1617 459.2756,-189.5332 457.7694,-189.9128"/>
<polygon fill="#000000" stroke="#000000" points="456.5196,-186.621 447.7182,-192.519 458.2766,-193.3969 456.5196,-186.621"/>
</g>
<!-- GO:0044237&#45;&gt;GO:0009987 -->
<g id="edge12" class="edge">
<title>GO:0044237&#45;&gt;GO:0009987</title>
<path fill="none" stroke="#000000" d="M737.9963,-152.9558C748.1437,-162.3394 759.337,-172.6902 769.3487,-181.9483"/>
<polygon fill="#000000" stroke="#000000" points="767.0192,-184.5613 776.7375,-188.7809 771.7717,-179.4219 767.0192,-184.5613"/>
</g>
<!-- GO:0044763 -->
<g id="node12" class="node">
<title>GO:0044763</title>
<polygon fill="#ffffff" stroke="#000000" points="933.9296,-153.0014 782.5726,-153.0014 782.5726,-94.1986 933.9296,-94.1986 933.9296,-153.0014"/>
<text text-anchor="middle" x="858.2511" y="-136.2" font-family="Times,serif" font-size="14.00" fill="#000000">GO:0044763</text>
<text text-anchor="middle" x="858.2511" y="-119.4" font-family="Times,serif" font-size="14.00" fill="#000000">single&#45;organism cellular</text>
<text text-anchor="middle" x="858.2511" y="-102.6" font-family="Times,serif" font-size="14.00" fill="#000000">process</text>
</g>
<!-- GO:0044763&#45;&gt;GO:0044699 -->
<g id="edge15" class="edge">
<title>GO:0044763&#45;&gt;GO:0044699</title>
<path fill="none" stroke="#000000" d="M782.3538,-150.029C779.2858,-150.9844 776.2428,-151.9119 773.2511,-152.8 766.1904,-154.8959 694.0156,-172.9912 633.1007,-188.2028"/>
<polygon fill="#000000" stroke="#000000" points="631.8996,-184.8952 623.0451,-190.7133 633.5952,-191.6867 631.8996,-184.8952"/>
</g>
<!-- GO:0044763&#45;&gt;GO:0009987 -->
<g id="edge14" class="edge">
<title>GO:0044763&#45;&gt;GO:0009987</title>
<path fill="none" stroke="#000000" d="M837.9466,-153.1963C831.8967,-162.0149 825.2734,-171.6692 819.2435,-180.4586"/>
<polygon fill="#000000" stroke="#000000" points="816.2257,-178.6705 813.4546,-188.8966 821.9979,-182.6305 816.2257,-178.6705"/>
</g>
</g>
</svg>
