<?xml version="1.0" encoding="UTF-8" standalone="no"?>
<!DOCTYPE svg PUBLIC "-//W3C//DTD SVG 1.1//EN"
 "http://www.w3.org/Graphics/SVG/1.1/DTD/svg11.dtd">
<!-- Generated by graphviz version 2.40.1 (20161225.0304)
 -->
<!-- Title: G Pages: 1 -->
<svg width="1216pt" height="427pt"
 viewBox="0.00 0.00 1215.96 427.20" xmlns="http://www.w3.org/2000/svg" xmlns:xlink="http://www.w3.org/1999/xlink">
<g id="graph0" class="graph" transform="scale(1 1) rotate(0) translate(4 423.2)">
<title>G</title>
<polygon fill="#ffffff" stroke="transparent" points="-4,4 -4,-423.2 1211.958,-423.2 1211.958,4 -4,4"/>
<!-- GO:0044238 -->
<g id="node1" class="node">
<title>GO:0044238</title>
<polygon fill="#ff00ff" stroke="#000000" points="164.2541,-238.6019 .2481,-238.6019 .2481,-197.3981 164.2541,-197.3981 164.2541,-238.6019"/>
<text text-anchor="middle" x="82.2511" y="-222.2" font-family="Times,serif" font-size="14.00" fill="#000000">GO:0044238</text>
<text text-anchor="middle" x="82.2511" y="-205.4" font-family="Times,serif" font-size="14.00" fill="#000000">primary metabolic process</text>
</g>
<!-- GO:0008152 -->
<g id="node2" class="node">
<title>GO:0008152</title>
<polygon fill="#ffffff" stroke="#000000" points="438.4367,-333.0019 322.0655,-333.0019 322.0655,-291.7981 438.4367,-291.7981 438.4367,-333.0019"/>
<text text-anchor="middle" x="380.2511" y="-316.6" font-family="Times,serif" font-size="14.00" fill="#000000">GO:0008152</text>
<text text-anchor="middle" x="380.2511" y="-299.8" font-family="Times,serif" font-size="14.00" fill="#000000">metabolic process</text>
</g>
<!-- GO:0044238&#45;&gt;GO:0008152 -->
<g id="edge1" class="edge">
<title>GO:0044238&#45;&gt;GO:0008152</title>
<path fill="none" stroke="#000000" d="M147.5852,-238.7436C156.5445,-241.5861 165.625,-244.466 174.2511,-247.2 220.1704,-261.754 271.8547,-278.1123 311.9666,-290.8028"/>
<polygon fill="#000000" stroke="#000000" points="311.0528,-294.1846 321.6428,-293.864 313.1643,-287.5106 311.0528,-294.1846"/>
</g>
<!-- GO:0008150 -->
<g id="node3" class="node">
<title>GO:0008150</title>
<polygon fill="#ffffff" stroke="#000000" points="819.7217,-419.0019 698.7805,-419.0019 698.7805,-377.7981 819.7217,-377.7981 819.7217,-419.0019"/>
<text text-anchor="middle" x="759.2511" y="-402.6" font-family="Times,serif" font-size="14.00" fill="#000000">GO:0008150</text>
<text text-anchor="middle" x="759.2511" y="-385.8" font-family="Times,serif" font-size="14.00" fill="#000000">biological_process</text>
</g>
<!-- GO:0008152&#45;&gt;GO:0008150 -->
<g id="edge2" class="edge">
<title>GO:0008152&#45;&gt;GO:0008150</title>
<path fill="none" stroke="#000000" d="M433.8985,-333.0761C442.9516,-336.1789 452.3119,-339.1532 461.2511,-341.6 538.0027,-362.6079 627.9591,-378.6033 688.799,-388.1853"/>
<polygon fill="#000000" stroke="#000000" points="688.2621,-391.6438 698.6819,-389.7258 689.3402,-384.7273 688.2621,-391.6438"/>
</g>
<!-- GO:0051716 -->
<g id="node4" class="node">
<title>GO:0051716</title>
<polygon fill="#ff00ff" stroke="#000000" points="889.597,-247.4014 764.9052,-247.4014 764.9052,-188.5986 889.597,-188.5986 889.597,-247.4014"/>
<text text-anchor="middle" x="827.2511" y="-230.6" font-family="Times,serif" font-size="14.00" fill="#000000">GO:0051716</text>
<text text-anchor="middle" x="827.2511" y="-213.8" font-family="Times,serif" font-size="14.00" fill="#000000">cellular response to</text>
<text text-anchor="middle" x="827.2511" y="-197" font-family="Times,serif" font-size="14.00" fill="#000000">stimulus</text>
</g>
<!-- GO:0050896 -->
<g id="node5" class="node">
<title>GO:0050896</title>
<polygon fill="#ffffff" stroke="#000000" points="892.5727,-333.0019 761.9295,-333.0019 761.9295,-291.7981 892.5727,-291.7981 892.5727,-333.0019"/>
<text text-anchor="middle" x="827.2511" y="-316.6" font-family="Times,serif" font-size="14.00" fill="#000000">GO:0050896</text>
<text text-anchor="middle" x="827.2511" y="-299.8" font-family="Times,serif" font-size="14.00" fill="#000000">response to stimulus</text>
</g>
<!-- GO:0051716&#45;&gt;GO:0050896 -->
<g id="edge3" class="edge">
<title>GO:0051716&#45;&gt;GO:0050896</title>
<path fill="none" stroke="#000000" d="M827.2511,-247.3513C827.2511,-258.2614 827.2511,-270.6637 827.2511,-281.692"/>
<polygon fill="#000000" stroke="#000000" points="823.7512,-281.7509 827.2511,-291.751 830.7512,-281.751 823.7512,-281.7509"/>
</g>
<!-- GO:0009987 -->
<g id="node6" class="node">
<title>GO:0009987</title>
<polygon fill="#ff0000" stroke="#000000" points="744.2073,-333.0019 640.2949,-333.0019 640.2949,-291.7981 744.2073,-291.7981 744.2073,-333.0019"/>
<text text-anchor="middle" x="692.2511" y="-316.6" font-family="Times,serif" font-size="14.00" fill="#000000">GO:0009987</text>
<text text-anchor="middle" x="692.2511" y="-299.8" font-family="Times,serif" font-size="14.00" fill="#000000">cellular process</text>
</g>
<!-- GO:0051716&#45;&gt;GO:0009987 -->
<g id="edge4" class="edge">
<title>GO:0051716&#45;&gt;GO:0009987</title>
<path fill="none" stroke="#000000" d="M785.2763,-247.3513C767.7436,-259.6112 747.5166,-273.7551 730.4108,-285.7165"/>
<polygon fill="#000000" stroke="#000000" points="727.9704,-283.1521 721.7809,-291.751 731.9818,-288.8887 727.9704,-283.1521"/>
</g>
<!-- GO:0050896&#45;&gt;GO:0008150 -->
<g id="edge5" class="edge">
<title>GO:0050896&#45;&gt;GO:0008150</title>
<path fill="none" stroke="#000000" d="M810.7902,-333.2182C802.1035,-344.2043 791.3135,-357.8506 781.8543,-369.8137"/>
<polygon fill="#000000" stroke="#000000" points="779.0173,-367.7585 775.5604,-377.7735 784.5083,-372.1002 779.0173,-367.7585"/>
</g>
<!-- GO:0009987&#45;&gt;GO:0008150 -->
<g id="edge6" class="edge">
<title>GO:0009987&#45;&gt;GO:0008150</title>
<path fill="none" stroke="#000000" d="M708.4699,-333.2182C717.0289,-344.2043 727.6603,-357.8506 736.9803,-369.8137"/>
<polygon fill="#000000" stroke="#000000" points="734.2748,-372.0359 743.1816,-377.7735 739.7968,-367.7339 734.2748,-372.0359"/>
</g>
<!-- GO:0071236 -->
<g id="node7" class="node">
<title>GO:0071236</title>
<polygon fill="#ff00ff" stroke="#000000" points="963.597,-58.6014 838.9052,-58.6014 838.9052,.2014 963.597,.2014 963.597,-58.6014"/>
<text text-anchor="middle" x="901.2511" y="-41.8" font-family="Times,serif" font-size="14.00" fill="#000000">GO:0071236</text>
<text text-anchor="middle" x="901.2511" y="-25" font-family="Times,serif" font-size="14.00" fill="#000000">cellular response to</text>
<text text-anchor="middle" x="901.2511" y="-8.2" font-family="Times,serif" font-size="14.00" fill="#000000">antibiotic</text>
</g>
<!-- GO:0046677 -->
<g id="node8" class="node">
<title>GO:0046677</title>
<polygon fill="#ffffff" stroke="#000000" points="1043.0031,-144.2019 907.4991,-144.2019 907.4991,-102.9981 1043.0031,-102.9981 1043.0031,-144.2019"/>
<text text-anchor="middle" x="975.2511" y="-127.8" font-family="Times,serif" font-size="14.00" fill="#000000">GO:0046677</text>
<text text-anchor="middle" x="975.2511" y="-111" font-family="Times,serif" font-size="14.00" fill="#000000">response to antibiotic</text>
</g>
<!-- GO:0071236&#45;&gt;GO:0046677 -->
<g id="edge7" class="edge">
<title>GO:0071236&#45;&gt;GO:0046677</title>
<path fill="none" stroke="#000000" d="M924.2595,-58.5513C933.341,-70.1363 943.7413,-83.4037 952.7705,-94.922"/>
<polygon fill="#000000" stroke="#000000" points="950.1404,-97.2401 959.0644,-102.951 955.6495,-92.9215 950.1404,-97.2401"/>
</g>
<!-- GO:0070887 -->
<g id="node9" class="node">
<title>GO:0070887</title>
<polygon fill="#ffffff" stroke="#000000" points="889.597,-153.0014 764.9052,-153.0014 764.9052,-94.1986 889.597,-94.1986 889.597,-153.0014"/>
<text text-anchor="middle" x="827.2511" y="-136.2" font-family="Times,serif" font-size="14.00" fill="#000000">GO:0070887</text>
<text text-anchor="middle" x="827.2511" y="-119.4" font-family="Times,serif" font-size="14.00" fill="#000000">cellular response to</text>
<text text-anchor="middle" x="827.2511" y="-102.6" font-family="Times,serif" font-size="14.00" fill="#000000">chemical stimulus</text>
</g>
<!-- GO:0071236&#45;&gt;GO:0070887 -->
<g id="edge8" class="edge">
<title>GO:0071236&#45;&gt;GO:0070887</title>
<path fill="none" stroke="#000000" d="M878.2427,-58.5513C871.3515,-67.3422 863.701,-77.1018 856.4664,-86.3308"/>
<polygon fill="#000000" stroke="#000000" points="853.6602,-84.2374 850.2453,-94.2669 859.1693,-88.556 853.6602,-84.2374"/>
</g>
<!-- GO:0042221 -->
<g id="node10" class="node">
<title>GO:0042221</title>
<polygon fill="#ff00ff" stroke="#000000" points="1041.1515,-238.6019 907.3507,-238.6019 907.3507,-197.3981 1041.1515,-197.3981 1041.1515,-238.6019"/>
<text text-anchor="middle" x="974.2511" y="-222.2" font-family="Times,serif" font-size="14.00" fill="#000000">GO:0042221</text>
<text text-anchor="middle" x="974.2511" y="-205.4" font-family="Times,serif" font-size="14.00" fill="#000000">response to chemical</text>
</g>
<!-- GO:0046677&#45;&gt;GO:0042221 -->
<g id="edge9" class="edge">
<title>GO:0046677&#45;&gt;GO:0042221</title>
<path fill="none" stroke="#000000" d="M975.0292,-144.5504C974.8971,-157.0165 974.7271,-173.0645 974.5797,-186.9786"/>
<polygon fill="#000000" stroke="#000000" points="971.0786,-187.0716 974.4724,-197.1081 978.0782,-187.1458 971.0786,-187.0716"/>
</g>
<!-- GO:0070887&#45;&gt;GO:0051716 -->
<g id="edge11" class="edge">
<title>GO:0070887&#45;&gt;GO:0051716</title>
<path fill="none" stroke="#000000" d="M827.2511,-152.9513C827.2511,-161.0318 827.2511,-169.9308 827.2511,-178.4838"/>
<polygon fill="#000000" stroke="#000000" points="823.7512,-178.6668 827.2511,-188.6669 830.7512,-178.6669 823.7512,-178.6668"/>
</g>
<!-- GO:0070887&#45;&gt;GO:0042221 -->
<g id="edge10" class="edge">
<title>GO:0070887&#45;&gt;GO:0042221</title>
<path fill="none" stroke="#000000" d="M872.957,-152.9513C892.3108,-165.3799 914.6799,-179.7448 933.4664,-191.809"/>
<polygon fill="#000000" stroke="#000000" points="931.7907,-194.8925 942.0964,-197.351 935.5732,-189.0024 931.7907,-194.8925"/>
</g>
<!-- GO:0042221&#45;&gt;GO:0050896 -->
<g id="edge12" class="edge">
<title>GO:0042221&#45;&gt;GO:0050896</title>
<path fill="none" stroke="#000000" d="M941.9913,-238.7165C920.2583,-252.6729 891.4128,-271.1968 868.0813,-286.1798"/>
<polygon fill="#000000" stroke="#000000" points="865.9588,-283.3832 859.4356,-291.7318 869.7413,-289.2733 865.9588,-283.3832"/>
</g>
<!-- GO:0044237 -->
<g id="node11" class="node">
<title>GO:0044237</title>
<polygon fill="#ff00ff" stroke="#000000" points="577.4339,-247.4014 461.0683,-247.4014 461.0683,-188.5986 577.4339,-188.5986 577.4339,-247.4014"/>
<text text-anchor="middle" x="519.2511" y="-230.6" font-family="Times,serif" font-size="14.00" fill="#000000">GO:0044237</text>
<text text-anchor="middle" x="519.2511" y="-213.8" font-family="Times,serif" font-size="14.00" fill="#000000">cellular metabolic</text>
<text text-anchor="middle" x="519.2511" y="-197" font-family="Times,serif" font-size="14.00" fill="#000000">process</text>
</g>
<!-- GO:0044237&#45;&gt;GO:0008152 -->
<g id="edge14" class="edge">
<title>GO:0044237&#45;&gt;GO:0008152</title>
<path fill="none" stroke="#000000" d="M476.0326,-247.3513C457.8148,-259.7236 436.7717,-274.0148 419.0575,-286.0451"/>
<polygon fill="#000000" stroke="#000000" points="416.9621,-283.2373 410.6559,-291.751 420.8949,-289.0281 416.9621,-283.2373"/>
</g>
<!-- GO:0044237&#45;&gt;GO:0009987 -->
<g id="edge13" class="edge">
<title>GO:0044237&#45;&gt;GO:0009987</title>
<path fill="none" stroke="#000000" d="M573.0411,-247.3513C596.2303,-260.0048 623.0976,-274.6654 645.4491,-286.8618"/>
<polygon fill="#000000" stroke="#000000" points="643.9545,-290.0334 654.4092,-291.751 647.3075,-283.8886 643.9545,-290.0334"/>
</g>
<!-- GO:0050794 -->
<g id="node12" class="node">
<title>GO:0050794</title>
<polygon fill="#ff00ff" stroke="#000000" points="1197.1501,-247.4014 1063.3521,-247.4014 1063.3521,-188.5986 1197.1501,-188.5986 1197.1501,-247.4014"/>
<text text-anchor="middle" x="1130.2511" y="-230.6" font-family="Times,serif" font-size="14.00" fill="#000000">GO:0050794</text>
<text text-anchor="middle" x="1130.2511" y="-213.8" font-family="Times,serif" font-size="14.00" fill="#000000">regulation of cellular</text>
<text text-anchor="middle" x="1130.2511" y="-197" font-family="Times,serif" font-size="14.00" fill="#000000">process</text>
</g>
<!-- GO:0065007 -->
<g id="node13" class="node">
<title>GO:0065007</title>
<polygon fill="#ffffff" stroke="#000000" points="1042.5045,-333.0019 909.9977,-333.0019 909.9977,-291.7981 1042.5045,-291.7981 1042.5045,-333.0019"/>
<text text-anchor="middle" x="976.2511" y="-316.6" font-family="Times,serif" font-size="14.00" fill="#000000">GO:0065007</text>
<text text-anchor="middle" x="976.2511" y="-299.8" font-family="Times,serif" font-size="14.00" fill="#000000">biological regulation</text>
</g>
<!-- GO:0050794&#45;&gt;GO:0065007 -->
<g id="edge15" class="edge">
<title>GO:0050794&#45;&gt;GO:0065007</title>
<path fill="none" stroke="#000000" d="M1082.3687,-247.3513C1062.0015,-259.8361 1038.4469,-274.2748 1018.711,-286.3727"/>
<polygon fill="#000000" stroke="#000000" points="1016.6335,-283.5408 1009.937,-291.751 1020.2919,-289.5088 1016.6335,-283.5408"/>
</g>
<!-- GO:0050789 -->
<g id="node14" class="node">
<title>GO:0050789</title>
<polygon fill="#ffffff" stroke="#000000" points="1208.1655,-341.8014 1060.3367,-341.8014 1060.3367,-282.9986 1208.1655,-282.9986 1208.1655,-341.8014"/>
<text text-anchor="middle" x="1134.2511" y="-325" font-family="Times,serif" font-size="14.00" fill="#000000">GO:0050789</text>
<text text-anchor="middle" x="1134.2511" y="-308.2" font-family="Times,serif" font-size="14.00" fill="#000000">regulation of biological</text>
<text text-anchor="middle" x="1134.2511" y="-291.4" font-family="Times,serif" font-size="14.00" fill="#000000">process</text>
</g>
<!-- GO:0050794&#45;&gt;GO:0050789 -->
<g id="edge16" class="edge">
<title>GO:0050794&#45;&gt;GO:0050789</title>
<path fill="none" stroke="#000000" d="M1131.4948,-247.3513C1131.8372,-255.4318 1132.2143,-264.3308 1132.5767,-272.8838"/>
<polygon fill="#000000" stroke="#000000" points="1129.0879,-273.224 1133.0082,-283.0669 1136.0816,-272.9276 1129.0879,-273.224"/>
</g>
<!-- GO:0065007&#45;&gt;GO:0008150 -->
<g id="edge17" class="edge">
<title>GO:0065007&#45;&gt;GO:0008150</title>
<path fill="none" stroke="#000000" d="M923.998,-333.1086C892.9512,-345.4129 853.4114,-361.083 820.8501,-373.9875"/>
<polygon fill="#000000" stroke="#000000" points="819.4334,-370.784 811.4264,-377.7222 822.0125,-377.2916 819.4334,-370.784"/>
</g>
<!-- GO:0050789&#45;&gt;GO:0008150 -->
<g id="edge18" class="edge">
<title>GO:0050789&#45;&gt;GO:0008150</title>
<path fill="none" stroke="#000000" d="M1060.2085,-339.0516C1057.1936,-339.9454 1054.1994,-340.7992 1051.2511,-341.6 976.6939,-361.8497 889.5624,-377.829 830.0117,-387.614"/>
<polygon fill="#000000" stroke="#000000" points="829.2691,-384.1888 819.9612,-389.2497 830.3936,-391.0979 829.2691,-384.1888"/>
</g>
<!-- GO:0071704 -->
<g id="node15" class="node">
<title>GO:0071704</title>
<polygon fill="#ff00ff" stroke="#000000" points="299.4367,-247.4014 183.0655,-247.4014 183.0655,-188.5986 299.4367,-188.5986 299.4367,-247.4014"/>
<text text-anchor="middle" x="241.2511" y="-230.6" font-family="Times,serif" font-size="14.00" fill="#000000">GO:0071704</text>
<text text-anchor="middle" x="241.2511" y="-213.8" font-family="Times,serif" font-size="14.00" fill="#000000">organic substance</text>
<text text-anchor="middle" x="241.2511" y="-197" font-family="Times,serif" font-size="14.00" fill="#000000">metabolic process</text>
</g>
<!-- GO:0071704&#45;&gt;GO:0008152 -->
<g id="edge19" class="edge">
<title>GO:0071704&#45;&gt;GO:0008152</title>
<path fill="none" stroke="#000000" d="M284.4696,-247.3513C302.6874,-259.7236 323.7305,-274.0148 341.4447,-286.0451"/>
<polygon fill="#000000" stroke="#000000" points="339.6073,-289.0281 349.8463,-291.751 343.5401,-283.2373 339.6073,-289.0281"/>
</g>
<!-- GO:0006807 -->
<g id="node16" class="node">
<title>GO:0006807</title>
<polygon fill="#ff00ff" stroke="#000000" points="443.013,-247.4014 317.4892,-247.4014 317.4892,-188.5986 443.013,-188.5986 443.013,-247.4014"/>
<text text-anchor="middle" x="380.2511" y="-230.6" font-family="Times,serif" font-size="14.00" fill="#000000">GO:0006807</text>
<text text-anchor="middle" x="380.2511" y="-213.8" font-family="Times,serif" font-size="14.00" fill="#000000">nitrogen compound</text>
<text text-anchor="middle" x="380.2511" y="-197" font-family="Times,serif" font-size="14.00" fill="#000000">metabolic process</text>
</g>
<!-- GO:0006807&#45;&gt;GO:0008152 -->
<g id="edge20" class="edge">
<title>GO:0006807&#45;&gt;GO:0008152</title>
<path fill="none" stroke="#000000" d="M380.2511,-247.3513C380.2511,-258.2614 380.2511,-270.6637 380.2511,-281.692"/>
<polygon fill="#000000" stroke="#000000" points="376.7512,-281.7509 380.2511,-291.751 383.7512,-281.751 376.7512,-281.7509"/>
</g>
<!-- GO:0044763 -->
<g id="node17" class="node">
<title>GO:0044763</title>
<polygon fill="#ff00ff" stroke="#000000" points="746.9296,-247.4014 595.5726,-247.4014 595.5726,-188.5986 746.9296,-188.5986 746.9296,-247.4014"/>
<text text-anchor="middle" x="671.2511" y="-230.6" font-family="Times,serif" font-size="14.00" fill="#000000">GO:0044763</text>
<text text-anchor="middle" x="671.2511" y="-213.8" font-family="Times,serif" font-size="14.00" fill="#000000">single&#45;organism cellular</text>
<text text-anchor="middle" x="671.2511" y="-197" font-family="Times,serif" font-size="14.00" fill="#000000">process</text>
</g>
<!-- GO:0044763&#45;&gt;GO:0009987 -->
<g id="edge21" class="edge">
<title>GO:0044763&#45;&gt;GO:0009987</title>
<path fill="none" stroke="#000000" d="M677.7805,-247.3513C680.2076,-258.2614 682.9665,-270.6637 685.4199,-281.692"/>
<polygon fill="#000000" stroke="#000000" points="682.0695,-282.7496 687.6576,-291.751 688.9025,-281.2295 682.0695,-282.7496"/>
</g>
<!-- GO:0044699 -->
<g id="node18" class="node">
<title>GO:0044699</title>
<polygon fill="#ffffff" stroke="#000000" points="621.9324,-333.0019 470.5698,-333.0019 470.5698,-291.7981 621.9324,-291.7981 621.9324,-333.0019"/>
<text text-anchor="middle" x="546.2511" y="-316.6" font-family="Times,serif" font-size="14.00" fill="#000000">GO:0044699</text>
<text text-anchor="middle" x="546.2511" y="-299.8" font-family="Times,serif" font-size="14.00" fill="#000000">single&#45;organism process</text>
</g>
<!-- GO:0044763&#45;&gt;GO:0044699 -->
<g id="edge22" class="edge">
<title>GO:0044763&#45;&gt;GO:0044699</title>
<path fill="none" stroke="#000000" d="M632.3855,-247.3513C616.1516,-259.6112 597.4228,-273.7551 581.5842,-285.7165"/>
<polygon fill="#000000" stroke="#000000" points="579.4643,-282.9314 573.5935,-291.751 583.6829,-288.5174 579.4643,-282.9314"/>
</g>
<!-- GO:0044699&#45;&gt;GO:0008150 -->
<g id="edge23" class="edge">
<title>GO:0044699&#45;&gt;GO:0008150</title>
<path fill="none" stroke="#000000" d="M597.541,-333.1086C627.8848,-345.3601 666.4935,-360.9486 698.3756,-373.8212"/>
<polygon fill="#000000" stroke="#000000" points="697.4544,-377.2237 708.0375,-377.7222 700.0752,-370.7328 697.4544,-377.2237"/>
</g>
</g>
</svg>
