<?xml version="1.0" encoding="UTF-8" standalone="no"?>
<!DOCTYPE svg PUBLIC "-//W3C//DTD SVG 1.1//EN"
 "http://www.w3.org/Graphics/SVG/1.1/DTD/svg11.dtd">
<!-- Generated by graphviz version 2.40.1 (20161225.0304)
 -->
<!-- Title: G Pages: 1 -->
<svg width="1446pt" height="878pt"
 viewBox="0.00 0.00 1446.05 878.40" xmlns="http://www.w3.org/2000/svg" xmlns:xlink="http://www.w3.org/1999/xlink">
<g id="graph0" class="graph" transform="scale(1 1) rotate(0) translate(4 874.4)">
<title>G</title>
<polygon fill="#ffffff" stroke="transparent" points="-4,4 -4,-874.4 1442.0488,-874.4 1442.0488,4 -4,4"/>
<!-- GO:0035639 -->
<g id="node1" class="node">
<title>GO:0035639</title>
<polygon fill="#ffffff" stroke="#000000" points="919.3848,-417.4014 782.0108,-417.4014 782.0108,-358.5986 919.3848,-358.5986 919.3848,-417.4014"/>
<text text-anchor="middle" x="850.6978" y="-400.6" font-family="Times,serif" font-size="14.00" fill="#000000">GO:0035639</text>
<text text-anchor="middle" x="850.6978" y="-383.8" font-family="Times,serif" font-size="14.00" fill="#000000">purine ribonucleoside</text>
<text text-anchor="middle" x="850.6978" y="-367" font-family="Times,serif" font-size="14.00" fill="#000000">triphosphate binding</text>
</g>
<!-- GO:1901265 -->
<g id="node2" class="node">
<title>GO:1901265</title>
<polygon fill="#ffffff" stroke="#000000" points="987.8319,-545.4014 851.5637,-545.4014 851.5637,-486.5986 987.8319,-486.5986 987.8319,-545.4014"/>
<text text-anchor="middle" x="919.6978" y="-528.6" font-family="Times,serif" font-size="14.00" fill="#000000">GO:1901265</text>
<text text-anchor="middle" x="919.6978" y="-511.8" font-family="Times,serif" font-size="14.00" fill="#000000">nucleoside phosphate</text>
<text text-anchor="middle" x="919.6978" y="-495" font-family="Times,serif" font-size="14.00" fill="#000000">binding</text>
</g>
<!-- GO:0035639&#45;&gt;GO:1901265 -->
<g id="edge1" class="edge">
<title>GO:0035639&#45;&gt;GO:1901265</title>
<path fill="none" stroke="#000000" d="M866.5278,-417.3658C876.2139,-435.3341 888.7096,-458.5146 899.1533,-477.8884"/>
<polygon fill="#000000" stroke="#000000" points="896.1154,-479.6291 903.9415,-486.7709 902.2772,-476.3075 896.1154,-479.6291"/>
</g>
<!-- GO:0097159 -->
<g id="node3" class="node">
<title>GO:0097159</title>
<polygon fill="#ffffff" stroke="#000000" points="1008.2092,-648.2014 851.1864,-648.2014 851.1864,-589.3986 1008.2092,-589.3986 1008.2092,-648.2014"/>
<text text-anchor="middle" x="929.6978" y="-631.4" font-family="Times,serif" font-size="14.00" fill="#000000">GO:0097159</text>
<text text-anchor="middle" x="929.6978" y="-614.6" font-family="Times,serif" font-size="14.00" fill="#000000">organic cyclic compound</text>
<text text-anchor="middle" x="929.6978" y="-597.8" font-family="Times,serif" font-size="14.00" fill="#000000">binding</text>
</g>
<!-- GO:1901265&#45;&gt;GO:0097159 -->
<g id="edge2" class="edge">
<title>GO:1901265&#45;&gt;GO:0097159</title>
<path fill="none" stroke="#000000" d="M922.5634,-545.4584C923.5886,-555.9969 924.7611,-568.0505 925.8553,-579.2994"/>
<polygon fill="#000000" stroke="#000000" points="922.3799,-579.7232 926.8318,-589.3373 929.3471,-579.0454 922.3799,-579.7232"/>
</g>
<!-- GO:1901363 -->
<g id="node4" class="node">
<title>GO:1901363</title>
<polygon fill="#ffffff" stroke="#000000" points="833.2084,-648.2014 686.1872,-648.2014 686.1872,-589.3986 833.2084,-589.3986 833.2084,-648.2014"/>
<text text-anchor="middle" x="759.6978" y="-631.4" font-family="Times,serif" font-size="14.00" fill="#000000">GO:1901363</text>
<text text-anchor="middle" x="759.6978" y="-614.6" font-family="Times,serif" font-size="14.00" fill="#000000">heterocyclic compound</text>
<text text-anchor="middle" x="759.6978" y="-597.8" font-family="Times,serif" font-size="14.00" fill="#000000">binding</text>
</g>
<!-- GO:1901265&#45;&gt;GO:1901363 -->
<g id="edge3" class="edge">
<title>GO:1901265&#45;&gt;GO:1901363</title>
<path fill="none" stroke="#000000" d="M873.8482,-545.4584C855.1058,-557.5004 833.2848,-571.5204 813.7712,-584.0578"/>
<polygon fill="#000000" stroke="#000000" points="811.7985,-581.1651 805.2773,-589.5152 815.5823,-587.0543 811.7985,-581.1651"/>
</g>
<!-- GO:0005488 -->
<g id="node5" class="node">
<title>GO:0005488</title>
<polygon fill="#ffffff" stroke="#000000" points="974.3017,-725.4019 885.0939,-725.4019 885.0939,-684.1981 974.3017,-684.1981 974.3017,-725.4019"/>
<text text-anchor="middle" x="929.6978" y="-709" font-family="Times,serif" font-size="14.00" fill="#000000">GO:0005488</text>
<text text-anchor="middle" x="929.6978" y="-692.2" font-family="Times,serif" font-size="14.00" fill="#000000">binding</text>
</g>
<!-- GO:0097159&#45;&gt;GO:0005488 -->
<g id="edge4" class="edge">
<title>GO:0097159&#45;&gt;GO:0005488</title>
<path fill="none" stroke="#000000" d="M929.6978,-648.3963C929.6978,-656.6638 929.6978,-665.6657 929.6978,-674.0008"/>
<polygon fill="#000000" stroke="#000000" points="926.1979,-674.0965 929.6978,-684.0966 933.1979,-674.0966 926.1979,-674.0965"/>
</g>
<!-- GO:1901363&#45;&gt;GO:0005488 -->
<g id="edge5" class="edge">
<title>GO:1901363&#45;&gt;GO:0005488</title>
<path fill="none" stroke="#000000" d="M817.7267,-648.1558C837.9045,-658.3634 860.3445,-669.7154 879.8057,-679.5605"/>
<polygon fill="#000000" stroke="#000000" points="878.3039,-682.7231 888.807,-684.1141 881.4638,-676.4768 878.3039,-682.7231"/>
</g>
<!-- GO:0003674 -->
<g id="node6" class="node">
<title>GO:0003674</title>
<polygon fill="#ffffff" stroke="#000000" points="587.3309,-836.6019 462.0647,-836.6019 462.0647,-795.3981 587.3309,-795.3981 587.3309,-836.6019"/>
<text text-anchor="middle" x="524.6978" y="-820.2" font-family="Times,serif" font-size="14.00" fill="#000000">GO:0003674</text>
<text text-anchor="middle" x="524.6978" y="-803.4" font-family="Times,serif" font-size="14.00" fill="#000000">molecular_function</text>
</g>
<!-- GO:0005488&#45;&gt;GO:0003674 -->
<g id="edge6" class="edge">
<title>GO:0005488&#45;&gt;GO:0003674</title>
<path fill="none" stroke="#000000" d="M884.8083,-717.1252C815.1738,-736.2446 680.4661,-773.231 596.9982,-796.1486"/>
<polygon fill="#000000" stroke="#000000" points="596.0484,-792.7798 587.332,-798.8027 597.9018,-799.53 596.0484,-792.7798"/>
</g>
<!-- GO:0042626 -->
<g id="node7" class="node">
<title>GO:0042626</title>
<polygon fill="#ffffff" stroke="#000000" points="357.4856,-178.1003 177.91,-178.1003 177.91,-102.6997 357.4856,-102.6997 357.4856,-178.1003"/>
<text text-anchor="middle" x="267.6978" y="-161.4" font-family="Times,serif" font-size="14.00" fill="#000000">GO:0042626</text>
<text text-anchor="middle" x="267.6978" y="-144.6" font-family="Times,serif" font-size="14.00" fill="#000000">ATPase activity, coupled</text>
<text text-anchor="middle" x="267.6978" y="-127.8" font-family="Times,serif" font-size="14.00" fill="#000000">to transmembrane movement</text>
<text text-anchor="middle" x="267.6978" y="-111" font-family="Times,serif" font-size="14.00" fill="#000000">of substances</text>
</g>
<!-- GO:0043492 -->
<g id="node8" class="node">
<title>GO:0043492</title>
<polygon fill="#ffffff" stroke="#000000" points="202.7182,-289.4014 34.6774,-289.4014 34.6774,-230.5986 202.7182,-230.5986 202.7182,-289.4014"/>
<text text-anchor="middle" x="118.6978" y="-272.6" font-family="Times,serif" font-size="14.00" fill="#000000">GO:0043492</text>
<text text-anchor="middle" x="118.6978" y="-255.8" font-family="Times,serif" font-size="14.00" fill="#000000">ATPase activity, coupled</text>
<text text-anchor="middle" x="118.6978" y="-239" font-family="Times,serif" font-size="14.00" fill="#000000">to movement of substances</text>
</g>
<!-- GO:0042626&#45;&gt;GO:0043492 -->
<g id="edge7" class="edge">
<title>GO:0042626&#45;&gt;GO:0043492</title>
<path fill="none" stroke="#000000" d="M220.5533,-178.2422C202.2174,-192.9601 181.3142,-209.7388 163.2356,-224.2502"/>
<polygon fill="#000000" stroke="#000000" points="160.7549,-221.7533 155.1473,-230.7425 165.1367,-227.2123 160.7549,-221.7533"/>
</g>
<!-- GO:0016820 -->
<g id="node9" class="node">
<title>GO:0016820</title>
<polygon fill="#ffffff" stroke="#000000" points="357.7554,-442.3002 177.6402,-442.3002 177.6402,-333.6998 357.7554,-333.6998 357.7554,-442.3002"/>
<text text-anchor="middle" x="267.6978" y="-425.8" font-family="Times,serif" font-size="14.00" fill="#000000">GO:0016820</text>
<text text-anchor="middle" x="267.6978" y="-409" font-family="Times,serif" font-size="14.00" fill="#000000">hydrolase activity,</text>
<text text-anchor="middle" x="267.6978" y="-392.2" font-family="Times,serif" font-size="14.00" fill="#000000">acting on acid</text>
<text text-anchor="middle" x="267.6978" y="-375.4" font-family="Times,serif" font-size="14.00" fill="#000000">anhydrides, catalyzing</text>
<text text-anchor="middle" x="267.6978" y="-358.6" font-family="Times,serif" font-size="14.00" fill="#000000">transmembrane movement of</text>
<text text-anchor="middle" x="267.6978" y="-341.8" font-family="Times,serif" font-size="14.00" fill="#000000">substances</text>
</g>
<!-- GO:0042626&#45;&gt;GO:0016820 -->
<g id="edge8" class="edge">
<title>GO:0042626&#45;&gt;GO:0016820</title>
<path fill="none" stroke="#000000" d="M267.6978,-178.0051C267.6978,-216.4913 267.6978,-277.0404 267.6978,-323.253"/>
<polygon fill="#000000" stroke="#000000" points="264.1979,-323.4764 267.6978,-333.4764 271.1979,-323.4764 264.1979,-323.4764"/>
</g>
<!-- GO:0015405 -->
<g id="node10" class="node">
<title>GO:0015405</title>
<polygon fill="#ffffff" stroke="#000000" points="529.2603,-297.7003 388.1353,-297.7003 388.1353,-222.2997 529.2603,-222.2997 529.2603,-297.7003"/>
<text text-anchor="middle" x="458.6978" y="-281" font-family="Times,serif" font-size="14.00" fill="#000000">GO:0015405</text>
<text text-anchor="middle" x="458.6978" y="-264.2" font-family="Times,serif" font-size="14.00" fill="#000000">P&#45;P&#45;bond&#45;hydrolysis&#45;</text>
<text text-anchor="middle" x="458.6978" y="-247.4" font-family="Times,serif" font-size="14.00" fill="#000000">driven transmembrane</text>
<text text-anchor="middle" x="458.6978" y="-230.6" font-family="Times,serif" font-size="14.00" fill="#000000">transporter activity</text>
</g>
<!-- GO:0042626&#45;&gt;GO:0015405 -->
<g id="edge9" class="edge">
<title>GO:0042626&#45;&gt;GO:0015405</title>
<path fill="none" stroke="#000000" d="M327.8692,-178.078C347.5791,-190.4199 369.6261,-204.2252 389.9218,-216.934"/>
<polygon fill="#000000" stroke="#000000" points="388.1677,-219.9652 398.5008,-222.3059 391.8828,-214.0323 388.1677,-219.9652"/>
</g>
<!-- GO:0042623 -->
<g id="node11" class="node">
<title>GO:0042623</title>
<polygon fill="#ffffff" stroke="#000000" points="159.3249,-408.6019 2.0707,-408.6019 2.0707,-367.3981 159.3249,-367.3981 159.3249,-408.6019"/>
<text text-anchor="middle" x="80.6978" y="-392.2" font-family="Times,serif" font-size="14.00" fill="#000000">GO:0042623</text>
<text text-anchor="middle" x="80.6978" y="-375.4" font-family="Times,serif" font-size="14.00" fill="#000000">ATPase activity, coupled</text>
</g>
<!-- GO:0043492&#45;&gt;GO:0042623 -->
<g id="edge10" class="edge">
<title>GO:0043492&#45;&gt;GO:0042623</title>
<path fill="none" stroke="#000000" d="M109.9798,-289.3658C103.944,-309.6972 95.927,-336.7017 89.8077,-357.3139"/>
<polygon fill="#000000" stroke="#000000" points="86.3782,-356.5682 86.8874,-367.1508 93.0887,-358.5605 86.3782,-356.5682"/>
</g>
<!-- GO:0016817 -->
<g id="node12" class="node">
<title>GO:0016817</title>
<polygon fill="#ffffff" stroke="#000000" points="347.6537,-545.4014 187.7419,-545.4014 187.7419,-486.5986 347.6537,-486.5986 347.6537,-545.4014"/>
<text text-anchor="middle" x="267.6978" y="-528.6" font-family="Times,serif" font-size="14.00" fill="#000000">GO:0016817</text>
<text text-anchor="middle" x="267.6978" y="-511.8" font-family="Times,serif" font-size="14.00" fill="#000000">hydrolase activity,</text>
<text text-anchor="middle" x="267.6978" y="-495" font-family="Times,serif" font-size="14.00" fill="#000000">acting on acid anhydrides</text>
</g>
<!-- GO:0016820&#45;&gt;GO:0016817 -->
<g id="edge11" class="edge">
<title>GO:0016820&#45;&gt;GO:0016817</title>
<path fill="none" stroke="#000000" d="M267.6978,-442.6548C267.6978,-453.9684 267.6978,-465.6801 267.6978,-476.3346"/>
<polygon fill="#000000" stroke="#000000" points="264.1979,-476.5827 267.6978,-486.5828 271.1979,-476.5828 264.1979,-476.5827"/>
</g>
<!-- GO:0022804 -->
<g id="node13" class="node">
<title>GO:0022804</title>
<polygon fill="#ffffff" stroke="#000000" points="504.419,-545.4014 364.9766,-545.4014 364.9766,-486.5986 504.419,-486.5986 504.419,-545.4014"/>
<text text-anchor="middle" x="434.6978" y="-528.6" font-family="Times,serif" font-size="14.00" fill="#000000">GO:0022804</text>
<text text-anchor="middle" x="434.6978" y="-511.8" font-family="Times,serif" font-size="14.00" fill="#000000">active transmembrane</text>
<text text-anchor="middle" x="434.6978" y="-495" font-family="Times,serif" font-size="14.00" fill="#000000">transporter activity</text>
</g>
<!-- GO:0016820&#45;&gt;GO:0022804 -->
<g id="edge12" class="edge">
<title>GO:0016820&#45;&gt;GO:0022804</title>
<path fill="none" stroke="#000000" d="M339.0052,-442.6548C355.611,-455.3825 372.8742,-468.6142 388.0913,-480.2776"/>
<polygon fill="#000000" stroke="#000000" points="386.2515,-483.2773 396.3175,-486.5828 390.5098,-477.7215 386.2515,-483.2773"/>
</g>
<!-- GO:0015399 -->
<g id="node14" class="node">
<title>GO:0015399</title>
<polygon fill="#ffffff" stroke="#000000" points="542.1312,-425.7003 375.2644,-425.7003 375.2644,-350.2997 542.1312,-350.2997 542.1312,-425.7003"/>
<text text-anchor="middle" x="458.6978" y="-409" font-family="Times,serif" font-size="14.00" fill="#000000">GO:0015399</text>
<text text-anchor="middle" x="458.6978" y="-392.2" font-family="Times,serif" font-size="14.00" fill="#000000">primary active</text>
<text text-anchor="middle" x="458.6978" y="-375.4" font-family="Times,serif" font-size="14.00" fill="#000000">transmembrane transporter</text>
<text text-anchor="middle" x="458.6978" y="-358.6" font-family="Times,serif" font-size="14.00" fill="#000000">activity</text>
</g>
<!-- GO:0015405&#45;&gt;GO:0015399 -->
<g id="edge13" class="edge">
<title>GO:0015405&#45;&gt;GO:0015399</title>
<path fill="none" stroke="#000000" d="M458.6978,-297.7119C458.6978,-310.8752 458.6978,-325.8342 458.6978,-339.7369"/>
<polygon fill="#000000" stroke="#000000" points="455.1979,-340.1153 458.6978,-350.1153 462.1979,-340.1153 455.1979,-340.1153"/>
</g>
<!-- GO:0016887 -->
<g id="node15" class="node">
<title>GO:0016887</title>
<polygon fill="#ffffff" stroke="#000000" points="133.5052,-536.6019 27.8904,-536.6019 27.8904,-495.3981 133.5052,-495.3981 133.5052,-536.6019"/>
<text text-anchor="middle" x="80.6978" y="-520.2" font-family="Times,serif" font-size="14.00" fill="#000000">GO:0016887</text>
<text text-anchor="middle" x="80.6978" y="-503.4" font-family="Times,serif" font-size="14.00" fill="#000000">ATPase activity</text>
</g>
<!-- GO:0042623&#45;&gt;GO:0016887 -->
<g id="edge14" class="edge">
<title>GO:0042623&#45;&gt;GO:0016887</title>
<path fill="none" stroke="#000000" d="M80.6978,-408.8503C80.6978,-429.4914 80.6978,-461.3413 80.6978,-484.9573"/>
<polygon fill="#000000" stroke="#000000" points="77.1979,-485.1586 80.6978,-495.1586 84.1979,-485.1587 77.1979,-485.1586"/>
</g>
<!-- GO:0016787 -->
<g id="node16" class="node">
<title>GO:0016787</title>
<polygon fill="#ffffff" stroke="#000000" points="333.6144,-639.4019 217.7812,-639.4019 217.7812,-598.1981 333.6144,-598.1981 333.6144,-639.4019"/>
<text text-anchor="middle" x="275.6978" y="-623" font-family="Times,serif" font-size="14.00" fill="#000000">GO:0016787</text>
<text text-anchor="middle" x="275.6978" y="-606.2" font-family="Times,serif" font-size="14.00" fill="#000000">hydrolase activity</text>
</g>
<!-- GO:0016817&#45;&gt;GO:0016787 -->
<g id="edge15" class="edge">
<title>GO:0016817&#45;&gt;GO:0016787</title>
<path fill="none" stroke="#000000" d="M269.9903,-545.4584C271.025,-558.7539 272.2473,-574.4608 273.2948,-587.9212"/>
<polygon fill="#000000" stroke="#000000" points="269.8251,-588.4474 274.0905,-598.1456 276.804,-587.9042 269.8251,-588.4474"/>
</g>
<!-- GO:0022857 -->
<g id="node17" class="node">
<title>GO:0022857</title>
<polygon fill="#ffffff" stroke="#000000" points="527.1312,-648.2014 360.2644,-648.2014 360.2644,-589.3986 527.1312,-589.3986 527.1312,-648.2014"/>
<text text-anchor="middle" x="443.6978" y="-631.4" font-family="Times,serif" font-size="14.00" fill="#000000">GO:0022857</text>
<text text-anchor="middle" x="443.6978" y="-614.6" font-family="Times,serif" font-size="14.00" fill="#000000">transmembrane transporter</text>
<text text-anchor="middle" x="443.6978" y="-597.8" font-family="Times,serif" font-size="14.00" fill="#000000">activity</text>
</g>
<!-- GO:0022804&#45;&gt;GO:0022857 -->
<g id="edge16" class="edge">
<title>GO:0022804&#45;&gt;GO:0022857</title>
<path fill="none" stroke="#000000" d="M437.2768,-545.4584C438.1995,-555.9969 439.2547,-568.0505 440.2396,-579.2994"/>
<polygon fill="#000000" stroke="#000000" points="436.7595,-579.6807 441.1184,-589.3373 443.7328,-579.0702 436.7595,-579.6807"/>
</g>
<!-- GO:0015399&#45;&gt;GO:0022804 -->
<g id="edge17" class="edge">
<title>GO:0015399&#45;&gt;GO:0022804</title>
<path fill="none" stroke="#000000" d="M451.6268,-425.7119C448.6324,-441.6821 445.1424,-460.2954 442.1118,-476.4589"/>
<polygon fill="#000000" stroke="#000000" points="438.5993,-476.2006 440.1964,-486.6744 445.4794,-477.4907 438.5993,-476.2006"/>
</g>
<!-- GO:0017111 -->
<g id="node18" class="node">
<title>GO:0017111</title>
<polygon fill="#ffffff" stroke="#000000" points="161.5939,-648.2014 -.1983,-648.2014 -.1983,-589.3986 161.5939,-589.3986 161.5939,-648.2014"/>
<text text-anchor="middle" x="80.6978" y="-631.4" font-family="Times,serif" font-size="14.00" fill="#000000">GO:0017111</text>
<text text-anchor="middle" x="80.6978" y="-614.6" font-family="Times,serif" font-size="14.00" fill="#000000">nucleoside&#45;triphosphatase</text>
<text text-anchor="middle" x="80.6978" y="-597.8" font-family="Times,serif" font-size="14.00" fill="#000000">activity</text>
</g>
<!-- GO:0016887&#45;&gt;GO:0017111 -->
<g id="edge18" class="edge">
<title>GO:0016887&#45;&gt;GO:0017111</title>
<path fill="none" stroke="#000000" d="M80.6978,-536.8031C80.6978,-548.9833 80.6978,-564.7676 80.6978,-579.2305"/>
<polygon fill="#000000" stroke="#000000" points="77.1979,-579.4577 80.6978,-589.4577 84.1979,-579.4578 77.1979,-579.4577"/>
</g>
<!-- GO:0003824 -->
<g id="node19" class="node">
<title>GO:0003824</title>
<polygon fill="#ffffff" stroke="#000000" points="347.1102,-725.4019 238.2854,-725.4019 238.2854,-684.1981 347.1102,-684.1981 347.1102,-725.4019"/>
<text text-anchor="middle" x="292.6978" y="-709" font-family="Times,serif" font-size="14.00" fill="#000000">GO:0003824</text>
<text text-anchor="middle" x="292.6978" y="-692.2" font-family="Times,serif" font-size="14.00" fill="#000000">catalytic activity</text>
</g>
<!-- GO:0016787&#45;&gt;GO:0003824 -->
<g id="edge19" class="edge">
<title>GO:0016787&#45;&gt;GO:0003824</title>
<path fill="none" stroke="#000000" d="M279.813,-639.6182C281.8594,-649.9705 284.3727,-662.6848 286.6346,-674.1271"/>
<polygon fill="#000000" stroke="#000000" points="283.2476,-675.0421 288.6205,-684.1735 290.1147,-673.6846 283.2476,-675.0421"/>
</g>
<!-- GO:0005215 -->
<g id="node20" class="node">
<title>GO:0005215</title>
<polygon fill="#ffffff" stroke="#000000" points="585.8263,-725.4019 463.5693,-725.4019 463.5693,-684.1981 585.8263,-684.1981 585.8263,-725.4019"/>
<text text-anchor="middle" x="524.6978" y="-709" font-family="Times,serif" font-size="14.00" fill="#000000">GO:0005215</text>
<text text-anchor="middle" x="524.6978" y="-692.2" font-family="Times,serif" font-size="14.00" fill="#000000">transporter activity</text>
</g>
<!-- GO:0022857&#45;&gt;GO:0005215 -->
<g id="edge20" class="edge">
<title>GO:0022857&#45;&gt;GO:0005215</title>
<path fill="none" stroke="#000000" d="M471.5734,-648.3963C480.2254,-657.5824 489.7314,-667.6752 498.2811,-676.7526"/>
<polygon fill="#000000" stroke="#000000" points="495.7939,-679.2167 505.198,-684.0966 500.8896,-674.4173 495.7939,-679.2167"/>
</g>
<!-- GO:0016462 -->
<g id="node21" class="node">
<title>GO:0016462</title>
<polygon fill="#ffffff" stroke="#000000" points="158.2742,-725.4019 3.1214,-725.4019 3.1214,-684.1981 158.2742,-684.1981 158.2742,-725.4019"/>
<text text-anchor="middle" x="80.6978" y="-709" font-family="Times,serif" font-size="14.00" fill="#000000">GO:0016462</text>
<text text-anchor="middle" x="80.6978" y="-692.2" font-family="Times,serif" font-size="14.00" fill="#000000">pyrophosphatase activity</text>
</g>
<!-- GO:0017111&#45;&gt;GO:0016462 -->
<g id="edge21" class="edge">
<title>GO:0017111&#45;&gt;GO:0016462</title>
<path fill="none" stroke="#000000" d="M80.6978,-648.3963C80.6978,-656.6638 80.6978,-665.6657 80.6978,-674.0008"/>
<polygon fill="#000000" stroke="#000000" points="77.1979,-674.0965 80.6978,-684.0966 84.1979,-674.0966 77.1979,-674.0965"/>
</g>
<!-- GO:0003824&#45;&gt;GO:0003674 -->
<g id="edge22" class="edge">
<title>GO:0003824&#45;&gt;GO:0003674</title>
<path fill="none" stroke="#000000" d="M335.7915,-725.4553C374.4105,-743.9658 431.1599,-771.1663 472.3723,-790.9199"/>
<polygon fill="#000000" stroke="#000000" points="470.9114,-794.1009 481.4419,-795.267 473.937,-787.7885 470.9114,-794.1009"/>
</g>
<!-- GO:0005215&#45;&gt;GO:0003674 -->
<g id="edge23" class="edge">
<title>GO:0005215&#45;&gt;GO:0003674</title>
<path fill="none" stroke="#000000" d="M524.6978,-725.4553C524.6978,-742.1242 524.6978,-765.8401 524.6978,-784.8189"/>
<polygon fill="#000000" stroke="#000000" points="521.1979,-785.078 524.6978,-795.078 528.1979,-785.078 521.1979,-785.078"/>
</g>
<!-- GO:0016818 -->
<g id="node22" class="node">
<title>GO:0016818</title>
<polygon fill="#ffffff" stroke="#000000" points="153.0095,-870.3002 8.3861,-870.3002 8.3861,-761.6998 153.0095,-761.6998 153.0095,-870.3002"/>
<text text-anchor="middle" x="80.6978" y="-853.8" font-family="Times,serif" font-size="14.00" fill="#000000">GO:0016818</text>
<text text-anchor="middle" x="80.6978" y="-837" font-family="Times,serif" font-size="14.00" fill="#000000">hydrolase activity,</text>
<text text-anchor="middle" x="80.6978" y="-820.2" font-family="Times,serif" font-size="14.00" fill="#000000">acting on acid</text>
<text text-anchor="middle" x="80.6978" y="-803.4" font-family="Times,serif" font-size="14.00" fill="#000000">anhydrides, in</text>
<text text-anchor="middle" x="80.6978" y="-786.6" font-family="Times,serif" font-size="14.00" fill="#000000">phosphorus&#45;containing</text>
<text text-anchor="middle" x="80.6978" y="-769.8" font-family="Times,serif" font-size="14.00" fill="#000000">anhydrides</text>
</g>
<!-- GO:0016462&#45;&gt;GO:0016818 -->
<g id="edge24" class="edge">
<title>GO:0016462&#45;&gt;GO:0016818</title>
<path fill="none" stroke="#000000" d="M80.6978,-725.4553C80.6978,-733.0198 80.6978,-742.0357 80.6978,-751.4015"/>
<polygon fill="#000000" stroke="#000000" points="77.1979,-751.6495 80.6978,-761.6496 84.1979,-751.6496 77.1979,-751.6495"/>
</g>
<!-- GO:0015450 -->
<g id="node23" class="node">
<title>GO:0015450</title>
<polygon fill="#ffffff" stroke="#000000" points="634.1312,-186.4 467.2644,-186.4 467.2644,-94.4 634.1312,-94.4 634.1312,-186.4"/>
<text text-anchor="middle" x="550.6978" y="-169.8" font-family="Times,serif" font-size="14.00" fill="#000000">GO:0015450</text>
<text text-anchor="middle" x="550.6978" y="-153" font-family="Times,serif" font-size="14.00" fill="#000000">P&#45;P&#45;bond&#45;hydrolysis&#45;</text>
<text text-anchor="middle" x="550.6978" y="-136.2" font-family="Times,serif" font-size="14.00" fill="#000000">driven protein</text>
<text text-anchor="middle" x="550.6978" y="-119.4" font-family="Times,serif" font-size="14.00" fill="#000000">transmembrane transporter</text>
<text text-anchor="middle" x="550.6978" y="-102.6" font-family="Times,serif" font-size="14.00" fill="#000000">activity</text>
</g>
<!-- GO:0015450&#45;&gt;GO:0015405 -->
<g id="edge25" class="edge">
<title>GO:0015450&#45;&gt;GO:0015405</title>
<path fill="none" stroke="#000000" d="M515.1282,-186.6405C508.1598,-195.6993 500.8544,-205.1964 493.8982,-214.2395"/>
<polygon fill="#000000" stroke="#000000" points="490.9506,-212.3309 487.6277,-222.3912 496.499,-216.5989 490.9506,-212.3309"/>
</g>
<!-- GO:0008320 -->
<g id="node24" class="node">
<title>GO:0008320</title>
<polygon fill="#ffffff" stroke="#000000" points="715.6509,-289.4014 569.7447,-289.4014 569.7447,-230.5986 715.6509,-230.5986 715.6509,-289.4014"/>
<text text-anchor="middle" x="642.6978" y="-272.6" font-family="Times,serif" font-size="14.00" fill="#000000">GO:0008320</text>
<text text-anchor="middle" x="642.6978" y="-255.8" font-family="Times,serif" font-size="14.00" fill="#000000">protein transmembrane</text>
<text text-anchor="middle" x="642.6978" y="-239" font-family="Times,serif" font-size="14.00" fill="#000000">transporter activity</text>
</g>
<!-- GO:0015450&#45;&gt;GO:0008320 -->
<g id="edge26" class="edge">
<title>GO:0015450&#45;&gt;GO:0008320</title>
<path fill="none" stroke="#000000" d="M586.2674,-186.6405C595.3816,-198.4889 605.0724,-211.087 613.8043,-222.4384"/>
<polygon fill="#000000" stroke="#000000" points="611.0996,-224.6629 619.971,-230.4551 616.648,-220.3949 611.0996,-224.6629"/>
</g>
<!-- GO:0008565 -->
<g id="node25" class="node">
<title>GO:0008565</title>
<polygon fill="#ffffff" stroke="#000000" points="826.4912,-545.4014 706.9044,-545.4014 706.9044,-486.5986 826.4912,-486.5986 826.4912,-545.4014"/>
<text text-anchor="middle" x="766.6978" y="-528.6" font-family="Times,serif" font-size="14.00" fill="#000000">GO:0008565</text>
<text text-anchor="middle" x="766.6978" y="-511.8" font-family="Times,serif" font-size="14.00" fill="#000000">protein transporter</text>
<text text-anchor="middle" x="766.6978" y="-495" font-family="Times,serif" font-size="14.00" fill="#000000">activity</text>
</g>
<!-- GO:0008320&#45;&gt;GO:0008565 -->
<g id="edge27" class="edge">
<title>GO:0008320&#45;&gt;GO:0008565</title>
<path fill="none" stroke="#000000" d="M692.4166,-289.4346C708.2787,-301.2242 724.376,-316.1783 734.6978,-333.6 760.762,-377.5926 766.7916,-437.3257 767.6202,-476.2604"/>
<polygon fill="#000000" stroke="#000000" points="764.1245,-476.697 767.7283,-486.6601 771.1241,-476.6242 764.1245,-476.697"/>
</g>
<!-- GO:0022884 -->
<g id="node26" class="node">
<title>GO:0022884</title>
<polygon fill="#ffffff" stroke="#000000" points="726.1312,-425.7003 559.2644,-425.7003 559.2644,-350.2997 726.1312,-350.2997 726.1312,-425.7003"/>
<text text-anchor="middle" x="642.6978" y="-409" font-family="Times,serif" font-size="14.00" fill="#000000">GO:0022884</text>
<text text-anchor="middle" x="642.6978" y="-392.2" font-family="Times,serif" font-size="14.00" fill="#000000">macromolecule</text>
<text text-anchor="middle" x="642.6978" y="-375.4" font-family="Times,serif" font-size="14.00" fill="#000000">transmembrane transporter</text>
<text text-anchor="middle" x="642.6978" y="-358.6" font-family="Times,serif" font-size="14.00" fill="#000000">activity</text>
</g>
<!-- GO:0008320&#45;&gt;GO:0022884 -->
<g id="edge28" class="edge">
<title>GO:0008320&#45;&gt;GO:0022884</title>
<path fill="none" stroke="#000000" d="M642.6978,-289.3658C642.6978,-304.2797 642.6978,-322.7844 642.6978,-339.7227"/>
<polygon fill="#000000" stroke="#000000" points="639.1979,-340.0207 642.6978,-350.0207 646.1979,-340.0208 639.1979,-340.0207"/>
</g>
<!-- GO:0022892 -->
<g id="node27" class="node">
<title>GO:0022892</title>
<polygon fill="#ffffff" stroke="#000000" points="666.8263,-648.2014 544.5693,-648.2014 544.5693,-589.3986 666.8263,-589.3986 666.8263,-648.2014"/>
<text text-anchor="middle" x="605.6978" y="-631.4" font-family="Times,serif" font-size="14.00" fill="#000000">GO:0022892</text>
<text text-anchor="middle" x="605.6978" y="-614.6" font-family="Times,serif" font-size="14.00" fill="#000000">substrate&#45;specific</text>
<text text-anchor="middle" x="605.6978" y="-597.8" font-family="Times,serif" font-size="14.00" fill="#000000">transporter activity</text>
</g>
<!-- GO:0008565&#45;&gt;GO:0022892 -->
<g id="edge29" class="edge">
<title>GO:0008565&#45;&gt;GO:0022892</title>
<path fill="none" stroke="#000000" d="M720.5617,-545.4584C701.7021,-557.5004 679.7447,-571.5204 660.1091,-584.0578"/>
<polygon fill="#000000" stroke="#000000" points="658.107,-581.1836 651.5621,-589.5152 661.8741,-587.0835 658.107,-581.1836"/>
</g>
<!-- GO:0022891 -->
<g id="node28" class="node">
<title>GO:0022891</title>
<polygon fill="#ffffff" stroke="#000000" points="689.1312,-553.7003 522.2644,-553.7003 522.2644,-478.2997 689.1312,-478.2997 689.1312,-553.7003"/>
<text text-anchor="middle" x="605.6978" y="-537" font-family="Times,serif" font-size="14.00" fill="#000000">GO:0022891</text>
<text text-anchor="middle" x="605.6978" y="-520.2" font-family="Times,serif" font-size="14.00" fill="#000000">substrate&#45;specific</text>
<text text-anchor="middle" x="605.6978" y="-503.4" font-family="Times,serif" font-size="14.00" fill="#000000">transmembrane transporter</text>
<text text-anchor="middle" x="605.6978" y="-486.6" font-family="Times,serif" font-size="14.00" fill="#000000">activity</text>
</g>
<!-- GO:0022884&#45;&gt;GO:0022891 -->
<g id="edge30" class="edge">
<title>GO:0022884&#45;&gt;GO:0022891</title>
<path fill="none" stroke="#000000" d="M631.7967,-425.7119C627.9544,-439.0042 623.5828,-454.1277 619.5307,-468.1455"/>
<polygon fill="#000000" stroke="#000000" points="616.0635,-467.5367 616.6488,-478.1153 622.7882,-469.4806 616.0635,-467.5367"/>
</g>
<!-- GO:0022892&#45;&gt;GO:0005215 -->
<g id="edge31" class="edge">
<title>GO:0022892&#45;&gt;GO:0005215</title>
<path fill="none" stroke="#000000" d="M577.8222,-648.3963C569.1702,-657.5824 559.6642,-667.6752 551.1145,-676.7526"/>
<polygon fill="#000000" stroke="#000000" points="548.506,-674.4173 544.1976,-684.0966 553.6017,-679.2167 548.506,-674.4173"/>
</g>
<!-- GO:0022891&#45;&gt;GO:0022857 -->
<g id="edge32" class="edge">
<title>GO:0022891&#45;&gt;GO:0022857</title>
<path fill="none" stroke="#000000" d="M546.2949,-553.6952C530.7445,-563.5629 514.0486,-574.1577 498.7367,-583.8741"/>
<polygon fill="#000000" stroke="#000000" points="496.4685,-581.1681 489.9003,-589.4814 500.2191,-587.0786 496.4685,-581.1681"/>
</g>
<!-- GO:0022891&#45;&gt;GO:0022892 -->
<g id="edge33" class="edge">
<title>GO:0022891&#45;&gt;GO:0022892</title>
<path fill="none" stroke="#000000" d="M605.6978,-553.6952C605.6978,-562.0874 605.6978,-571.0054 605.6978,-579.4618"/>
<polygon fill="#000000" stroke="#000000" points="602.1979,-579.4813 605.6978,-589.4814 609.1979,-579.4814 602.1979,-579.4813"/>
</g>
<!-- GO:0032559 -->
<g id="node29" class="node">
<title>GO:0032559</title>
<polygon fill="#ffffff" stroke="#000000" points="1149.3848,-58.6014 1012.0108,-58.6014 1012.0108,.2014 1149.3848,.2014 1149.3848,-58.6014"/>
<text text-anchor="middle" x="1080.6978" y="-41.8" font-family="Times,serif" font-size="14.00" fill="#000000">GO:0032559</text>
<text text-anchor="middle" x="1080.6978" y="-25" font-family="Times,serif" font-size="14.00" fill="#000000">adenyl ribonucleotide</text>
<text text-anchor="middle" x="1080.6978" y="-8.2" font-family="Times,serif" font-size="14.00" fill="#000000">binding</text>
</g>
<!-- GO:0032555 -->
<g id="node30" class="node">
<title>GO:0032555</title>
<polygon fill="#ffffff" stroke="#000000" points="1232.8305,-169.8014 1096.5651,-169.8014 1096.5651,-110.9986 1232.8305,-110.9986 1232.8305,-169.8014"/>
<text text-anchor="middle" x="1164.6978" y="-153" font-family="Times,serif" font-size="14.00" fill="#000000">GO:0032555</text>
<text text-anchor="middle" x="1164.6978" y="-136.2" font-family="Times,serif" font-size="14.00" fill="#000000">purine ribonucleotide</text>
<text text-anchor="middle" x="1164.6978" y="-119.4" font-family="Times,serif" font-size="14.00" fill="#000000">binding</text>
</g>
<!-- GO:0032559&#45;&gt;GO:0032555 -->
<g id="edge34" class="edge">
<title>GO:0032559&#45;&gt;GO:0032555</title>
<path fill="none" stroke="#000000" d="M1102.7678,-58.4165C1113.0076,-71.972 1125.3049,-88.2513 1136.2332,-102.7183"/>
<polygon fill="#000000" stroke="#000000" points="1133.6632,-105.1229 1142.4835,-110.9926 1139.2487,-100.9036 1133.6632,-105.1229"/>
</g>
<!-- GO:0030554 -->
<g id="node31" class="node">
<title>GO:0030554</title>
<polygon fill="#ffffff" stroke="#000000" points="1078.6149,-161.0019 916.7807,-161.0019 916.7807,-119.7981 1078.6149,-119.7981 1078.6149,-161.0019"/>
<text text-anchor="middle" x="997.6978" y="-144.6" font-family="Times,serif" font-size="14.00" fill="#000000">GO:0030554</text>
<text text-anchor="middle" x="997.6978" y="-127.8" font-family="Times,serif" font-size="14.00" fill="#000000">adenyl nucleotide binding</text>
</g>
<!-- GO:0032559&#45;&gt;GO:0030554 -->
<g id="edge35" class="edge">
<title>GO:0032559&#45;&gt;GO:0030554</title>
<path fill="none" stroke="#000000" d="M1058.8905,-58.4165C1046.7021,-74.746 1031.5634,-95.0282 1019.3931,-111.3335"/>
<polygon fill="#000000" stroke="#000000" points="1016.5075,-109.3482 1013.3308,-119.4556 1022.1172,-113.5353 1016.5075,-109.3482"/>
</g>
<!-- GO:0017076 -->
<g id="node32" class="node">
<title>GO:0017076</title>
<polygon fill="#ffffff" stroke="#000000" points="1077.5605,-280.6019 917.8351,-280.6019 917.8351,-239.3981 1077.5605,-239.3981 1077.5605,-280.6019"/>
<text text-anchor="middle" x="997.6978" y="-264.2" font-family="Times,serif" font-size="14.00" fill="#000000">GO:0017076</text>
<text text-anchor="middle" x="997.6978" y="-247.4" font-family="Times,serif" font-size="14.00" fill="#000000">purine nucleotide binding</text>
</g>
<!-- GO:0032555&#45;&gt;GO:0017076 -->
<g id="edge36" class="edge">
<title>GO:0032555&#45;&gt;GO:0017076</title>
<path fill="none" stroke="#000000" d="M1123.845,-169.6575C1096.6596,-189.1268 1061.2299,-214.5003 1034.8421,-233.3985"/>
<polygon fill="#000000" stroke="#000000" points="1032.7064,-230.6229 1026.6142,-239.291 1036.7822,-236.314 1032.7064,-230.6229"/>
</g>
<!-- GO:0032553 -->
<g id="node33" class="node">
<title>GO:0032553</title>
<polygon fill="#ffffff" stroke="#000000" points="1239.3459,-280.6019 1096.0497,-280.6019 1096.0497,-239.3981 1239.3459,-239.3981 1239.3459,-280.6019"/>
<text text-anchor="middle" x="1167.6978" y="-264.2" font-family="Times,serif" font-size="14.00" fill="#000000">GO:0032553</text>
<text text-anchor="middle" x="1167.6978" y="-247.4" font-family="Times,serif" font-size="14.00" fill="#000000">ribonucleotide binding</text>
</g>
<!-- GO:0032555&#45;&gt;GO:0032553 -->
<g id="edge37" class="edge">
<title>GO:0032555&#45;&gt;GO:0032553</title>
<path fill="none" stroke="#000000" d="M1165.4317,-169.6575C1165.8841,-187.694 1166.4636,-210.7977 1166.9234,-229.1259"/>
<polygon fill="#000000" stroke="#000000" points="1163.4286,-229.382 1167.1783,-239.291 1170.4264,-229.2064 1163.4286,-229.382"/>
</g>
<!-- GO:0030554&#45;&gt;GO:0017076 -->
<g id="edge38" class="edge">
<title>GO:0030554&#45;&gt;GO:0017076</title>
<path fill="none" stroke="#000000" d="M997.6978,-161.2327C997.6978,-179.8973 997.6978,-207.5322 997.6978,-228.8278"/>
<polygon fill="#000000" stroke="#000000" points="994.1979,-229.0047 997.6978,-239.0047 1001.1979,-229.0047 994.1979,-229.0047"/>
</g>
<!-- GO:0000166 -->
<g id="node34" class="node">
<title>GO:0000166</title>
<polygon fill="#ffffff" stroke="#000000" points="1057.7953,-408.6019 937.6003,-408.6019 937.6003,-367.3981 1057.7953,-367.3981 1057.7953,-408.6019"/>
<text text-anchor="middle" x="997.6978" y="-392.2" font-family="Times,serif" font-size="14.00" fill="#000000">GO:0000166</text>
<text text-anchor="middle" x="997.6978" y="-375.4" font-family="Times,serif" font-size="14.00" fill="#000000">nucleotide binding</text>
</g>
<!-- GO:0017076&#45;&gt;GO:0000166 -->
<g id="edge39" class="edge">
<title>GO:0017076&#45;&gt;GO:0000166</title>
<path fill="none" stroke="#000000" d="M997.6978,-280.8503C997.6978,-301.4914 997.6978,-333.3413 997.6978,-356.9573"/>
<polygon fill="#000000" stroke="#000000" points="994.1979,-357.1586 997.6978,-367.1586 1001.1979,-357.1587 994.1979,-357.1586"/>
</g>
<!-- GO:0032553&#45;&gt;GO:0000166 -->
<g id="edge41" class="edge">
<title>GO:0032553&#45;&gt;GO:0000166</title>
<path fill="none" stroke="#000000" d="M1138.751,-280.6509C1118.4412,-295.2477 1090.7302,-315.3803 1066.6978,-333.6 1055.0575,-342.4248 1042.4712,-352.2592 1031.2752,-361.1131"/>
<polygon fill="#000000" stroke="#000000" points="1029.0614,-358.4017 1023.402,-367.3584 1033.4116,-363.8859 1029.0614,-358.4017"/>
</g>
<!-- GO:0097367 -->
<g id="node35" class="node">
<title>GO:0097367</title>
<polygon fill="#ffffff" stroke="#000000" points="1339.7449,-648.2014 1191.6507,-648.2014 1191.6507,-589.3986 1339.7449,-589.3986 1339.7449,-648.2014"/>
<text text-anchor="middle" x="1265.6978" y="-631.4" font-family="Times,serif" font-size="14.00" fill="#000000">GO:0097367</text>
<text text-anchor="middle" x="1265.6978" y="-614.6" font-family="Times,serif" font-size="14.00" fill="#000000">carbohydrate derivative</text>
<text text-anchor="middle" x="1265.6978" y="-597.8" font-family="Times,serif" font-size="14.00" fill="#000000">binding</text>
</g>
<!-- GO:0032553&#45;&gt;GO:0097367 -->
<g id="edge40" class="edge">
<title>GO:0032553&#45;&gt;GO:0097367</title>
<path fill="none" stroke="#000000" d="M1199.8766,-280.852C1216.9568,-293.8167 1236.4793,-312.0983 1246.6978,-333.6 1284.9974,-414.1897 1278.8688,-522.2695 1271.8282,-579.4649"/>
<polygon fill="#000000" stroke="#000000" points="1268.3377,-579.1653 1270.5135,-589.5343 1275.2788,-580.0716 1268.3377,-579.1653"/>
</g>
<!-- GO:0000166&#45;&gt;GO:1901265 -->
<g id="edge43" class="edge">
<title>GO:0000166&#45;&gt;GO:1901265</title>
<path fill="none" stroke="#000000" d="M984.9922,-408.8503C973.6355,-427.4869 956.7108,-455.2608 942.9383,-477.8617"/>
<polygon fill="#000000" stroke="#000000" points="939.8557,-476.1944 937.6408,-486.5551 945.8333,-479.837 939.8557,-476.1944"/>
</g>
<!-- GO:0036094 -->
<g id="node36" class="node">
<title>GO:0036094</title>
<polygon fill="#ffffff" stroke="#000000" points="1173.6262,-639.4019 1025.7694,-639.4019 1025.7694,-598.1981 1173.6262,-598.1981 1173.6262,-639.4019"/>
<text text-anchor="middle" x="1099.6978" y="-623" font-family="Times,serif" font-size="14.00" fill="#000000">GO:0036094</text>
<text text-anchor="middle" x="1099.6978" y="-606.2" font-family="Times,serif" font-size="14.00" fill="#000000">small molecule binding</text>
</g>
<!-- GO:0000166&#45;&gt;GO:0036094 -->
<g id="edge42" class="edge">
<title>GO:0000166&#45;&gt;GO:0036094</title>
<path fill="none" stroke="#000000" d="M1006.9295,-408.889C1025.0975,-449.9985 1065.5447,-541.5202 1086.5169,-588.9749"/>
<polygon fill="#000000" stroke="#000000" points="1083.3168,-590.3927 1090.5604,-598.1245 1089.7194,-587.5631 1083.3168,-590.3927"/>
</g>
<!-- GO:0097367&#45;&gt;GO:0005488 -->
<g id="edge44" class="edge">
<title>GO:0097367&#45;&gt;GO:0005488</title>
<path fill="none" stroke="#000000" d="M1191.6252,-645.3439C1188.6185,-646.2675 1185.6343,-647.157 1182.6978,-648 1115.1573,-667.3897 1035.9198,-684.2513 984.3601,-694.4591"/>
<polygon fill="#000000" stroke="#000000" points="983.5663,-691.048 974.4289,-696.4107 984.9161,-697.9167 983.5663,-691.048"/>
</g>
<!-- GO:0036094&#45;&gt;GO:0005488 -->
<g id="edge45" class="edge">
<title>GO:0036094&#45;&gt;GO:0005488</title>
<path fill="none" stroke="#000000" d="M1058.5455,-639.6182C1034.7407,-651.6606 1004.6175,-666.8994 979.4841,-679.614"/>
<polygon fill="#000000" stroke="#000000" points="977.8143,-676.5363 970.4711,-684.1735 980.9742,-682.7825 977.8143,-676.5363"/>
</g>
<!-- GO:0032550 -->
<g id="node37" class="node">
<title>GO:0032550</title>
<polygon fill="#ffffff" stroke="#000000" points="1414.3848,-289.4014 1277.0108,-289.4014 1277.0108,-230.5986 1414.3848,-230.5986 1414.3848,-289.4014"/>
<text text-anchor="middle" x="1345.6978" y="-272.6" font-family="Times,serif" font-size="14.00" fill="#000000">GO:0032550</text>
<text text-anchor="middle" x="1345.6978" y="-255.8" font-family="Times,serif" font-size="14.00" fill="#000000">purine ribonucleoside</text>
<text text-anchor="middle" x="1345.6978" y="-239" font-family="Times,serif" font-size="14.00" fill="#000000">binding</text>
</g>
<!-- GO:0001883 -->
<g id="node38" class="node">
<title>GO:0001883</title>
<polygon fill="#ffffff" stroke="#000000" points="1237.6149,-408.6019 1075.7807,-408.6019 1075.7807,-367.3981 1237.6149,-367.3981 1237.6149,-408.6019"/>
<text text-anchor="middle" x="1156.6978" y="-392.2" font-family="Times,serif" font-size="14.00" fill="#000000">GO:0001883</text>
<text text-anchor="middle" x="1156.6978" y="-375.4" font-family="Times,serif" font-size="14.00" fill="#000000">purine nucleoside binding</text>
</g>
<!-- GO:0032550&#45;&gt;GO:0001883 -->
<g id="edge46" class="edge">
<title>GO:0032550&#45;&gt;GO:0001883</title>
<path fill="none" stroke="#000000" d="M1302.3374,-289.3658C1270.161,-311.1572 1226.6654,-340.6146 1195.6041,-361.6508"/>
<polygon fill="#000000" stroke="#000000" points="1193.5099,-358.8419 1187.1927,-367.3474 1197.4352,-364.6378 1193.5099,-358.8419"/>
</g>
<!-- GO:0032549 -->
<g id="node39" class="node">
<title>GO:0032549</title>
<polygon fill="#ffffff" stroke="#000000" points="1437.9001,-408.6019 1293.4955,-408.6019 1293.4955,-367.3981 1437.9001,-367.3981 1437.9001,-408.6019"/>
<text text-anchor="middle" x="1365.6978" y="-392.2" font-family="Times,serif" font-size="14.00" fill="#000000">GO:0032549</text>
<text text-anchor="middle" x="1365.6978" y="-375.4" font-family="Times,serif" font-size="14.00" fill="#000000">ribonucleoside binding</text>
</g>
<!-- GO:0032550&#45;&gt;GO:0032549 -->
<g id="edge47" class="edge">
<title>GO:0032550&#45;&gt;GO:0032549</title>
<path fill="none" stroke="#000000" d="M1350.2862,-289.3658C1353.4485,-309.6043 1357.6439,-336.4552 1360.8589,-357.0312"/>
<polygon fill="#000000" stroke="#000000" points="1357.4382,-357.8111 1362.4401,-367.1508 1364.3543,-356.7304 1357.4382,-357.8111"/>
</g>
<!-- GO:0001882 -->
<g id="node40" class="node">
<title>GO:0001882</title>
<polygon fill="#ffffff" stroke="#000000" points="1202.8487,-536.6019 1080.5469,-536.6019 1080.5469,-495.3981 1202.8487,-495.3981 1202.8487,-536.6019"/>
<text text-anchor="middle" x="1141.6978" y="-520.2" font-family="Times,serif" font-size="14.00" fill="#000000">GO:0001882</text>
<text text-anchor="middle" x="1141.6978" y="-503.4" font-family="Times,serif" font-size="14.00" fill="#000000">nucleoside binding</text>
</g>
<!-- GO:0001883&#45;&gt;GO:0001882 -->
<g id="edge48" class="edge">
<title>GO:0001883&#45;&gt;GO:0001882</title>
<path fill="none" stroke="#000000" d="M1154.2544,-408.8503C1151.8355,-429.4914 1148.1031,-461.3413 1145.3356,-484.9573"/>
<polygon fill="#000000" stroke="#000000" points="1141.8279,-484.8192 1144.1401,-495.1586 1148.7804,-485.634 1141.8279,-484.8192"/>
</g>
<!-- GO:0032549&#45;&gt;GO:0001882 -->
<g id="edge49" class="edge">
<title>GO:0032549&#45;&gt;GO:0001882</title>
<path fill="none" stroke="#000000" d="M1329.2098,-408.8503C1290.2876,-431.0916 1228.591,-466.3467 1186.6868,-490.292"/>
<polygon fill="#000000" stroke="#000000" points="1184.745,-487.3704 1177.799,-495.3707 1188.218,-493.4481 1184.745,-487.3704"/>
</g>
<!-- GO:0001882&#45;&gt;GO:0097159 -->
<g id="edge53" class="edge">
<title>GO:0001882&#45;&gt;GO:0097159</title>
<path fill="none" stroke="#000000" d="M1099.0515,-536.6795C1070.4262,-550.56 1032.0648,-569.1617 999.091,-585.1508"/>
<polygon fill="#000000" stroke="#000000" points="997.417,-582.0727 989.9461,-589.5852 1000.4712,-588.3713 997.417,-582.0727"/>
</g>
<!-- GO:0001882&#45;&gt;GO:1901363 -->
<g id="edge52" class="edge">
<title>GO:0001882&#45;&gt;GO:1901363</title>
<path fill="none" stroke="#000000" d="M1080.4037,-532.2637C1054.5987,-539.0146 1024.2256,-546.8353 996.6978,-553.6 931.1038,-569.7192 911.3238,-569.7391 843.2597,-589.2494"/>
<polygon fill="#000000" stroke="#000000" points="841.9519,-585.9845 833.3253,-592.1354 843.9048,-592.7066 841.9519,-585.9845"/>
</g>
<!-- GO:0001882&#45;&gt;GO:0097367 -->
<g id="edge51" class="edge">
<title>GO:0001882&#45;&gt;GO:0097367</title>
<path fill="none" stroke="#000000" d="M1166.7911,-536.8031C1182.7669,-550.0476 1203.883,-567.5535 1222.5007,-582.9882"/>
<polygon fill="#000000" stroke="#000000" points="1220.3721,-585.7699 1230.3044,-589.4577 1224.8397,-580.3809 1220.3721,-585.7699"/>
</g>
<!-- GO:0001882&#45;&gt;GO:0036094 -->
<g id="edge50" class="edge">
<title>GO:0001882&#45;&gt;GO:0036094</title>
<path fill="none" stroke="#000000" d="M1133.1985,-536.8031C1127.1072,-551.7123 1118.8096,-572.0216 1111.9965,-588.6975"/>
<polygon fill="#000000" stroke="#000000" points="1108.7266,-587.4469 1108.1845,-598.0278 1115.2067,-590.0944 1108.7266,-587.4469"/>
</g>
</g>
</svg>
