<?xml version="1.0" encoding="UTF-8" standalone="no"?>
<!DOCTYPE svg PUBLIC "-//W3C//DTD SVG 1.1//EN"
 "http://www.w3.org/Graphics/SVG/1.1/DTD/svg11.dtd">
<!-- Generated by graphviz version 2.40.1 (20161225.0304)
 -->
<!-- Title: G Pages: 1 -->
<svg width="1573pt" height="761pt"
 viewBox="0.00 0.00 1573.46 760.80" xmlns="http://www.w3.org/2000/svg" xmlns:xlink="http://www.w3.org/1999/xlink">
<g id="graph0" class="graph" transform="scale(1 1) rotate(0) translate(4 756.8)">
<title>G</title>
<polygon fill="#ffffff" stroke="transparent" points="-4,4 -4,-756.8 1569.4622,-756.8 1569.4622,4 -4,4"/>
<!-- GO:0022607 -->
<g id="node1" class="node">
<title>GO:0022607</title>
<polygon fill="#ff00ff" stroke="#000000" points="304.3059,-461.4014 180.9319,-461.4014 180.9319,-402.5986 304.3059,-402.5986 304.3059,-461.4014"/>
<text text-anchor="middle" x="242.6189" y="-444.6" font-family="Times,serif" font-size="14.00" fill="#000000">GO:0022607</text>
<text text-anchor="middle" x="242.6189" y="-427.8" font-family="Times,serif" font-size="14.00" fill="#000000">cellular component</text>
<text text-anchor="middle" x="242.6189" y="-411" font-family="Times,serif" font-size="14.00" fill="#000000">assembly</text>
</g>
<!-- GO:0016043 -->
<g id="node2" class="node">
<title>GO:0016043</title>
<polygon fill="#ff00ff" stroke="#000000" points="455.3059,-564.2014 331.9319,-564.2014 331.9319,-505.3986 455.3059,-505.3986 455.3059,-564.2014"/>
<text text-anchor="middle" x="393.6189" y="-547.4" font-family="Times,serif" font-size="14.00" fill="#000000">GO:0016043</text>
<text text-anchor="middle" x="393.6189" y="-530.6" font-family="Times,serif" font-size="14.00" fill="#000000">cellular component</text>
<text text-anchor="middle" x="393.6189" y="-513.8" font-family="Times,serif" font-size="14.00" fill="#000000">organization</text>
</g>
<!-- GO:0022607&#45;&gt;GO:0016043 -->
<g id="edge1" class="edge">
<title>GO:0022607&#45;&gt;GO:0016043</title>
<path fill="none" stroke="#000000" d="M285.8894,-461.4584C303.3396,-473.3384 323.6177,-487.1435 341.8427,-499.5511"/>
<polygon fill="#000000" stroke="#000000" points="340.3674,-502.7807 350.6033,-505.5152 344.3067,-496.9944 340.3674,-502.7807"/>
</g>
<!-- GO:0009987 -->
<g id="node3" class="node">
<title>GO:0009987</title>
<polygon fill="#ff0000" stroke="#000000" points="764.5751,-658.2019 660.6627,-658.2019 660.6627,-616.9981 764.5751,-616.9981 764.5751,-658.2019"/>
<text text-anchor="middle" x="712.6189" y="-641.8" font-family="Times,serif" font-size="14.00" fill="#000000">GO:0009987</text>
<text text-anchor="middle" x="712.6189" y="-625" font-family="Times,serif" font-size="14.00" fill="#000000">cellular process</text>
</g>
<!-- GO:0016043&#45;&gt;GO:0009987 -->
<g id="edge2" class="edge">
<title>GO:0016043&#45;&gt;GO:0009987</title>
<path fill="none" stroke="#000000" d="M455.5036,-554.7428C511.8227,-572.892 594.5249,-599.5434 650.8179,-617.6842"/>
<polygon fill="#000000" stroke="#000000" points="650.069,-621.1201 660.6606,-620.8561 652.2162,-614.4575 650.069,-621.1201"/>
</g>
<!-- GO:0071840 -->
<g id="node4" class="node">
<title>GO:0071840</title>
<polygon fill="#ff00ff" stroke="#000000" points="552.3059,-675.3003 428.9319,-675.3003 428.9319,-599.8997 552.3059,-599.8997 552.3059,-675.3003"/>
<text text-anchor="middle" x="490.6189" y="-658.6" font-family="Times,serif" font-size="14.00" fill="#000000">GO:0071840</text>
<text text-anchor="middle" x="490.6189" y="-641.8" font-family="Times,serif" font-size="14.00" fill="#000000">cellular component</text>
<text text-anchor="middle" x="490.6189" y="-625" font-family="Times,serif" font-size="14.00" fill="#000000">organization or</text>
<text text-anchor="middle" x="490.6189" y="-608.2" font-family="Times,serif" font-size="14.00" fill="#000000">biogenesis</text>
</g>
<!-- GO:0016043&#45;&gt;GO:0071840 -->
<g id="edge3" class="edge">
<title>GO:0016043&#45;&gt;GO:0071840</title>
<path fill="none" stroke="#000000" d="M421.4152,-564.2584C429.6316,-572.966 438.8239,-582.708 447.7575,-592.1758"/>
<polygon fill="#000000" stroke="#000000" points="445.4344,-594.8137 454.843,-599.685 450.5257,-590.0096 445.4344,-594.8137"/>
</g>
<!-- GO:0008150 -->
<g id="node5" class="node">
<title>GO:0008150</title>
<polygon fill="#ffffff" stroke="#000000" points="1149.0895,-752.6019 1028.1483,-752.6019 1028.1483,-711.3981 1149.0895,-711.3981 1149.0895,-752.6019"/>
<text text-anchor="middle" x="1088.6189" y="-736.2" font-family="Times,serif" font-size="14.00" fill="#000000">GO:0008150</text>
<text text-anchor="middle" x="1088.6189" y="-719.4" font-family="Times,serif" font-size="14.00" fill="#000000">biological_process</text>
</g>
<!-- GO:0009987&#45;&gt;GO:0008150 -->
<g id="edge4" class="edge">
<title>GO:0009987&#45;&gt;GO:0008150</title>
<path fill="none" stroke="#000000" d="M764.5053,-650.6268C830.309,-667.1477 944.0651,-695.7078 1017.808,-714.222"/>
<polygon fill="#000000" stroke="#000000" points="1017.3875,-717.7249 1027.9388,-716.7654 1019.0921,-710.9356 1017.3875,-717.7249"/>
</g>
<!-- GO:0071840&#45;&gt;GO:0008150 -->
<g id="edge5" class="edge">
<title>GO:0071840&#45;&gt;GO:0008150</title>
<path fill="none" stroke="#000000" d="M552.6275,-653.6131C582.417,-660.9123 618.7156,-669.235 651.6189,-675.2 779.9694,-698.4684 931.1951,-715.9377 1017.8929,-725.0111"/>
<polygon fill="#000000" stroke="#000000" points="1017.5739,-728.4967 1027.8821,-726.0492 1018.2975,-721.5342 1017.5739,-728.4967"/>
</g>
<!-- GO:0033043 -->
<g id="node6" class="node">
<title>GO:0033043</title>
<polygon fill="#ff00ff" stroke="#000000" points="1559.1275,-350.2014 1416.1103,-350.2014 1416.1103,-291.3986 1559.1275,-291.3986 1559.1275,-350.2014"/>
<text text-anchor="middle" x="1487.6189" y="-333.4" font-family="Times,serif" font-size="14.00" fill="#000000">GO:0033043</text>
<text text-anchor="middle" x="1487.6189" y="-316.6" font-family="Times,serif" font-size="14.00" fill="#000000">regulation of organelle</text>
<text text-anchor="middle" x="1487.6189" y="-299.8" font-family="Times,serif" font-size="14.00" fill="#000000">organization</text>
</g>
<!-- GO:0051128 -->
<g id="node7" class="node">
<title>GO:0051128</title>
<polygon fill="#ffffff" stroke="#000000" points="1565.3058,-461.4014 1413.932,-461.4014 1413.932,-402.5986 1565.3058,-402.5986 1565.3058,-461.4014"/>
<text text-anchor="middle" x="1489.6189" y="-444.6" font-family="Times,serif" font-size="14.00" fill="#000000">GO:0051128</text>
<text text-anchor="middle" x="1489.6189" y="-427.8" font-family="Times,serif" font-size="14.00" fill="#000000">regulation of cellular</text>
<text text-anchor="middle" x="1489.6189" y="-411" font-family="Times,serif" font-size="14.00" fill="#000000">component organization</text>
</g>
<!-- GO:0033043&#45;&gt;GO:0051128 -->
<g id="edge6" class="edge">
<title>GO:0033043&#45;&gt;GO:0051128</title>
<path fill="none" stroke="#000000" d="M1488.1444,-350.0165C1488.3768,-362.9386 1488.6537,-378.3358 1488.9045,-392.2788"/>
<polygon fill="#000000" stroke="#000000" points="1485.4106,-392.6571 1489.09,-402.5926 1492.4095,-392.5312 1485.4106,-392.6571"/>
</g>
<!-- GO:0050794 -->
<g id="node8" class="node">
<title>GO:0050794</title>
<polygon fill="#00ff00" stroke="#000000" points="1542.5179,-564.2014 1408.7199,-564.2014 1408.7199,-505.3986 1542.5179,-505.3986 1542.5179,-564.2014"/>
<text text-anchor="middle" x="1475.6189" y="-547.4" font-family="Times,serif" font-size="14.00" fill="#000000">GO:0050794</text>
<text text-anchor="middle" x="1475.6189" y="-530.6" font-family="Times,serif" font-size="14.00" fill="#000000">regulation of cellular</text>
<text text-anchor="middle" x="1475.6189" y="-513.8" font-family="Times,serif" font-size="14.00" fill="#000000">process</text>
</g>
<!-- GO:0051128&#45;&gt;GO:0050794 -->
<g id="edge7" class="edge">
<title>GO:0051128&#45;&gt;GO:0050794</title>
<path fill="none" stroke="#000000" d="M1485.6071,-461.4584C1484.1718,-471.9969 1482.5303,-484.0505 1480.9984,-495.2994"/>
<polygon fill="#000000" stroke="#000000" points="1477.5128,-494.9565 1479.6313,-505.3373 1484.4488,-495.9011 1477.5128,-494.9565"/>
</g>
<!-- GO:0065007 -->
<g id="node9" class="node">
<title>GO:0065007</title>
<polygon fill="#ffff00" stroke="#000000" points="1228.8723,-658.2019 1096.3655,-658.2019 1096.3655,-616.9981 1228.8723,-616.9981 1228.8723,-658.2019"/>
<text text-anchor="middle" x="1162.6189" y="-641.8" font-family="Times,serif" font-size="14.00" fill="#000000">GO:0065007</text>
<text text-anchor="middle" x="1162.6189" y="-625" font-family="Times,serif" font-size="14.00" fill="#000000">biological regulation</text>
</g>
<!-- GO:0050794&#45;&gt;GO:0065007 -->
<g id="edge8" class="edge">
<title>GO:0050794&#45;&gt;GO:0065007</title>
<path fill="none" stroke="#000000" d="M1408.6691,-561.1408C1405.6232,-562.1438 1402.5963,-563.1026 1399.6189,-564 1329.0005,-585.2847 1307.1113,-575.2856 1237.6189,-600 1227.9439,-603.4408 1217.9096,-607.8381 1208.4478,-612.4041"/>
<polygon fill="#000000" stroke="#000000" points="1206.607,-609.4106 1199.2114,-616.9971 1209.7238,-615.6784 1206.607,-609.4106"/>
</g>
<!-- GO:0050789 -->
<g id="node10" class="node">
<title>GO:0050789</title>
<polygon fill="#00ff00" stroke="#000000" points="1394.5333,-667.0014 1246.7045,-667.0014 1246.7045,-608.1986 1394.5333,-608.1986 1394.5333,-667.0014"/>
<text text-anchor="middle" x="1320.6189" y="-650.2" font-family="Times,serif" font-size="14.00" fill="#000000">GO:0050789</text>
<text text-anchor="middle" x="1320.6189" y="-633.4" font-family="Times,serif" font-size="14.00" fill="#000000">regulation of biological</text>
<text text-anchor="middle" x="1320.6189" y="-616.6" font-family="Times,serif" font-size="14.00" fill="#000000">process</text>
</g>
<!-- GO:0050794&#45;&gt;GO:0050789 -->
<g id="edge9" class="edge">
<title>GO:0050794&#45;&gt;GO:0050789</title>
<path fill="none" stroke="#000000" d="M1431.2021,-564.2584C1413.1268,-576.2464 1392.0958,-590.1947 1373.2569,-602.6891"/>
<polygon fill="#000000" stroke="#000000" points="1371.1732,-599.8712 1364.774,-608.3152 1375.0422,-605.7048 1371.1732,-599.8712"/>
</g>
<!-- GO:0065007&#45;&gt;GO:0008150 -->
<g id="edge10" class="edge">
<title>GO:0065007&#45;&gt;GO:0008150</title>
<path fill="none" stroke="#000000" d="M1146.1959,-658.5504C1135.9447,-671.6276 1122.6037,-688.6464 1111.3451,-703.0087"/>
<polygon fill="#000000" stroke="#000000" points="1108.4109,-701.0787 1104.996,-711.1081 1113.92,-705.3973 1108.4109,-701.0787"/>
</g>
<!-- GO:0050789&#45;&gt;GO:0008150 -->
<g id="edge11" class="edge">
<title>GO:0050789&#45;&gt;GO:0008150</title>
<path fill="none" stroke="#000000" d="M1256.898,-666.9405C1250.4094,-669.7856 1243.898,-672.5838 1237.6189,-675.2 1210.6489,-686.4371 1180.5923,-698.0627 1154.5779,-707.8465"/>
<polygon fill="#000000" stroke="#000000" points="1153.3262,-704.5778 1145.1897,-711.3637 1155.782,-711.1329 1153.3262,-704.5778"/>
</g>
<!-- GO:0043933 -->
<g id="node11" class="node">
<title>GO:0043933</title>
<polygon fill="#ff00ff" stroke="#000000" points="162.7862,-461.4014 4.4516,-461.4014 4.4516,-402.5986 162.7862,-402.5986 162.7862,-461.4014"/>
<text text-anchor="middle" x="83.6189" y="-444.6" font-family="Times,serif" font-size="14.00" fill="#000000">GO:0043933</text>
<text text-anchor="middle" x="83.6189" y="-427.8" font-family="Times,serif" font-size="14.00" fill="#000000">macromolecular complex</text>
<text text-anchor="middle" x="83.6189" y="-411" font-family="Times,serif" font-size="14.00" fill="#000000">subunit organization</text>
</g>
<!-- GO:0043933&#45;&gt;GO:0016043 -->
<g id="edge12" class="edge">
<title>GO:0043933&#45;&gt;GO:0016043</title>
<path fill="none" stroke="#000000" d="M150.0772,-461.3739C157.3007,-464.2734 164.5825,-467.0735 171.6189,-469.6 221.1776,-487.3948 278.1911,-504.0612 322.0307,-516.089"/>
<polygon fill="#000000" stroke="#000000" points="321.1739,-519.4831 331.7424,-518.7369 323.0153,-512.7296 321.1739,-519.4831"/>
</g>
<!-- GO:0034063 -->
<g id="node12" class="node">
<title>GO:0034063</title>
<polygon fill="#ff00ff" stroke="#000000" points="396.7986,-41.4019 248.4392,-41.4019 248.4392,-.1981 396.7986,-.1981 396.7986,-41.4019"/>
<text text-anchor="middle" x="322.6189" y="-25" font-family="Times,serif" font-size="14.00" fill="#000000">GO:0034063</text>
<text text-anchor="middle" x="322.6189" y="-8.2" font-family="Times,serif" font-size="14.00" fill="#000000">stress granule assembly</text>
</g>
<!-- GO:0022618 -->
<g id="node13" class="node">
<title>GO:0022618</title>
<polygon fill="#ffffff" stroke="#000000" points="345.3569,-144.6014 177.8809,-144.6014 177.8809,-85.7986 345.3569,-85.7986 345.3569,-144.6014"/>
<text text-anchor="middle" x="261.6189" y="-127.8" font-family="Times,serif" font-size="14.00" fill="#000000">GO:0022618</text>
<text text-anchor="middle" x="261.6189" y="-111" font-family="Times,serif" font-size="14.00" fill="#000000">ribonucleoprotein complex</text>
<text text-anchor="middle" x="261.6189" y="-94.2" font-family="Times,serif" font-size="14.00" fill="#000000">assembly</text>
</g>
<!-- GO:0034063&#45;&gt;GO:0022618 -->
<g id="edge13" class="edge">
<title>GO:0034063&#45;&gt;GO:0022618</title>
<path fill="none" stroke="#000000" d="M309.081,-41.7504C302.3589,-52.1532 294.0249,-65.0504 286.2254,-77.1204"/>
<polygon fill="#000000" stroke="#000000" points="283.1591,-75.4169 280.6714,-85.7155 289.0384,-79.216 283.1591,-75.4169"/>
</g>
<!-- GO:0070925 -->
<g id="node14" class="node">
<title>GO:0070925</title>
<polygon fill="#ffffff" stroke="#000000" points="445.3045,-341.4019 321.9333,-341.4019 321.9333,-300.1981 445.3045,-300.1981 445.3045,-341.4019"/>
<text text-anchor="middle" x="383.6189" y="-325" font-family="Times,serif" font-size="14.00" fill="#000000">GO:0070925</text>
<text text-anchor="middle" x="383.6189" y="-308.2" font-family="Times,serif" font-size="14.00" fill="#000000">organelle assembly</text>
</g>
<!-- GO:0034063&#45;&gt;GO:0070925 -->
<g id="edge14" class="edge">
<title>GO:0034063&#45;&gt;GO:0070925</title>
<path fill="none" stroke="#000000" d="M336.8733,-41.4544C343.3471,-51.8454 350.47,-64.9051 354.6189,-77.6 378.6376,-151.0938 383.1666,-242.8824 383.7749,-289.8971"/>
<polygon fill="#000000" stroke="#000000" points="380.276,-290.0662 383.8531,-300.0389 387.2758,-290.0122 380.276,-290.0662"/>
</g>
<!-- GO:0071826 -->
<g id="node15" class="node">
<title>GO:0071826</title>
<polygon fill="#ffffff" stroke="#000000" points="167.3569,-247.4014 -.1191,-247.4014 -.1191,-188.5986 167.3569,-188.5986 167.3569,-247.4014"/>
<text text-anchor="middle" x="83.6189" y="-230.6" font-family="Times,serif" font-size="14.00" fill="#000000">GO:0071826</text>
<text text-anchor="middle" x="83.6189" y="-213.8" font-family="Times,serif" font-size="14.00" fill="#000000">ribonucleoprotein complex</text>
<text text-anchor="middle" x="83.6189" y="-197" font-family="Times,serif" font-size="14.00" fill="#000000">subunit organization</text>
</g>
<!-- GO:0022618&#45;&gt;GO:0071826 -->
<g id="edge15" class="edge">
<title>GO:0022618&#45;&gt;GO:0071826</title>
<path fill="none" stroke="#000000" d="M210.6112,-144.6584C189.5733,-156.8084 165.0487,-170.972 143.1921,-183.5948"/>
<polygon fill="#000000" stroke="#000000" points="141.2352,-180.6831 134.326,-188.7152 144.7361,-186.7449 141.2352,-180.6831"/>
</g>
<!-- GO:0034622 -->
<g id="node16" class="node">
<title>GO:0034622</title>
<polygon fill="#ffffff" stroke="#000000" points="338.0523,-247.4014 185.1855,-247.4014 185.1855,-188.5986 338.0523,-188.5986 338.0523,-247.4014"/>
<text text-anchor="middle" x="261.6189" y="-230.6" font-family="Times,serif" font-size="14.00" fill="#000000">GO:0034622</text>
<text text-anchor="middle" x="261.6189" y="-213.8" font-family="Times,serif" font-size="14.00" fill="#000000">cellular macromolecular</text>
<text text-anchor="middle" x="261.6189" y="-197" font-family="Times,serif" font-size="14.00" fill="#000000">complex assembly</text>
</g>
<!-- GO:0022618&#45;&gt;GO:0034622 -->
<g id="edge16" class="edge">
<title>GO:0022618&#45;&gt;GO:0034622</title>
<path fill="none" stroke="#000000" d="M261.6189,-144.6584C261.6189,-155.1969 261.6189,-167.2505 261.6189,-178.4994"/>
<polygon fill="#000000" stroke="#000000" points="258.119,-178.5373 261.6189,-188.5373 265.119,-178.5374 258.119,-178.5373"/>
</g>
<!-- GO:0070925&#45;&gt;GO:0022607 -->
<g id="edge18" class="edge">
<title>GO:0070925&#45;&gt;GO:0022607</title>
<path fill="none" stroke="#000000" d="M357.4283,-341.4553C337.9082,-356.8498 310.7667,-378.2551 287.774,-396.3883"/>
<polygon fill="#000000" stroke="#000000" points="285.5182,-393.7099 279.8336,-402.6506 289.8529,-399.2062 285.5182,-393.7099"/>
</g>
<!-- GO:0006996 -->
<g id="node17" class="node">
<title>GO:0006996</title>
<polygon fill="#ff00ff" stroke="#000000" points="464.1814,-452.6019 323.0564,-452.6019 323.0564,-411.3981 464.1814,-411.3981 464.1814,-452.6019"/>
<text text-anchor="middle" x="393.6189" y="-436.2" font-family="Times,serif" font-size="14.00" fill="#000000">GO:0006996</text>
<text text-anchor="middle" x="393.6189" y="-419.4" font-family="Times,serif" font-size="14.00" fill="#000000">organelle organization</text>
</g>
<!-- GO:0070925&#45;&gt;GO:0006996 -->
<g id="edge17" class="edge">
<title>GO:0070925&#45;&gt;GO:0006996</title>
<path fill="none" stroke="#000000" d="M385.4764,-341.4553C386.9824,-358.2017 389.128,-382.0608 390.8386,-401.0834"/>
<polygon fill="#000000" stroke="#000000" points="387.3557,-401.4317 391.7374,-411.078 394.3276,-400.8047 387.3557,-401.4317"/>
</g>
<!-- GO:0071826&#45;&gt;GO:0043933 -->
<g id="edge19" class="edge">
<title>GO:0071826&#45;&gt;GO:0043933</title>
<path fill="none" stroke="#000000" d="M83.6189,-247.3071C83.6189,-284.9806 83.6189,-350.5333 83.6189,-392.5582"/>
<polygon fill="#000000" stroke="#000000" points="80.119,-392.7042 83.6189,-402.7043 87.119,-392.7043 80.119,-392.7042"/>
</g>
<!-- GO:0065003 -->
<g id="node18" class="node">
<title>GO:0065003</title>
<polygon fill="#ff00ff" stroke="#000000" points="303.7862,-350.2014 145.4516,-350.2014 145.4516,-291.3986 303.7862,-291.3986 303.7862,-350.2014"/>
<text text-anchor="middle" x="224.6189" y="-333.4" font-family="Times,serif" font-size="14.00" fill="#000000">GO:0065003</text>
<text text-anchor="middle" x="224.6189" y="-316.6" font-family="Times,serif" font-size="14.00" fill="#000000">macromolecular complex</text>
<text text-anchor="middle" x="224.6189" y="-299.8" font-family="Times,serif" font-size="14.00" fill="#000000">assembly</text>
</g>
<!-- GO:0034622&#45;&gt;GO:0065003 -->
<g id="edge20" class="edge">
<title>GO:0034622&#45;&gt;GO:0065003</title>
<path fill="none" stroke="#000000" d="M251.0162,-247.4584C247.1844,-258.1045 242.7962,-270.2966 238.7122,-281.6435"/>
<polygon fill="#000000" stroke="#000000" points="235.3166,-280.7429 235.2232,-291.3373 241.903,-283.1135 235.3166,-280.7429"/>
</g>
<!-- GO:0006996&#45;&gt;GO:0016043 -->
<g id="edge21" class="edge">
<title>GO:0006996&#45;&gt;GO:0016043</title>
<path fill="none" stroke="#000000" d="M393.6189,-452.8031C393.6189,-464.9833 393.6189,-480.7676 393.6189,-495.2305"/>
<polygon fill="#000000" stroke="#000000" points="390.119,-495.4577 393.6189,-505.4577 397.119,-495.4578 390.119,-495.4577"/>
</g>
<!-- GO:0065003&#45;&gt;GO:0022607 -->
<g id="edge23" class="edge">
<title>GO:0065003&#45;&gt;GO:0022607</title>
<path fill="none" stroke="#000000" d="M229.3482,-350.0165C231.4604,-363.0652 233.9812,-378.6379 236.2555,-392.6885"/>
<polygon fill="#000000" stroke="#000000" points="232.8057,-393.2803 237.8587,-402.5926 239.7157,-392.1617 232.8057,-393.2803"/>
</g>
<!-- GO:0065003&#45;&gt;GO:0043933 -->
<g id="edge22" class="edge">
<title>GO:0065003&#45;&gt;GO:0043933</title>
<path fill="none" stroke="#000000" d="M187.5728,-350.0165C169.5814,-364.2054 147.8061,-381.3786 128.8428,-396.334"/>
<polygon fill="#000000" stroke="#000000" points="126.5917,-393.6519 120.9071,-402.5926 130.9265,-399.1482 126.5917,-393.6519"/>
</g>
<!-- GO:0090304 -->
<g id="node19" class="node">
<title>GO:0090304</title>
<polygon fill="#ff00ff" stroke="#000000" points="1160.5699,-247.4014 1018.6679,-247.4014 1018.6679,-188.5986 1160.5699,-188.5986 1160.5699,-247.4014"/>
<text text-anchor="middle" x="1089.6189" y="-230.6" font-family="Times,serif" font-size="14.00" fill="#000000">GO:0090304</text>
<text text-anchor="middle" x="1089.6189" y="-213.8" font-family="Times,serif" font-size="14.00" fill="#000000">nucleic acid metabolic</text>
<text text-anchor="middle" x="1089.6189" y="-197" font-family="Times,serif" font-size="14.00" fill="#000000">process</text>
</g>
<!-- GO:0006139 -->
<g id="node20" class="node">
<title>GO:0006139</title>
<polygon fill="#ffffff" stroke="#000000" points="976.5741,-358.5003 834.6637,-358.5003 834.6637,-283.0997 976.5741,-283.0997 976.5741,-358.5003"/>
<text text-anchor="middle" x="905.6189" y="-341.8" font-family="Times,serif" font-size="14.00" fill="#000000">GO:0006139</text>
<text text-anchor="middle" x="905.6189" y="-325" font-family="Times,serif" font-size="14.00" fill="#000000">nucleobase&#45;containing</text>
<text text-anchor="middle" x="905.6189" y="-308.2" font-family="Times,serif" font-size="14.00" fill="#000000">compound metabolic</text>
<text text-anchor="middle" x="905.6189" y="-291.4" font-family="Times,serif" font-size="14.00" fill="#000000">process</text>
</g>
<!-- GO:0090304&#45;&gt;GO:0006139 -->
<g id="edge24" class="edge">
<title>GO:0090304&#45;&gt;GO:0006139</title>
<path fill="none" stroke="#000000" d="M1036.8919,-247.4584C1019.8261,-256.9929 1000.5407,-267.7676 982.1104,-278.0645"/>
<polygon fill="#000000" stroke="#000000" points="980.1678,-275.1406 973.1449,-283.0735 983.582,-281.2516 980.1678,-275.1406"/>
</g>
<!-- GO:0043170 -->
<g id="node21" class="node">
<title>GO:0043170</title>
<polygon fill="#ffffff" stroke="#000000" points="1357.1211,-461.4014 1196.1167,-461.4014 1196.1167,-402.5986 1357.1211,-402.5986 1357.1211,-461.4014"/>
<text text-anchor="middle" x="1276.6189" y="-444.6" font-family="Times,serif" font-size="14.00" fill="#000000">GO:0043170</text>
<text text-anchor="middle" x="1276.6189" y="-427.8" font-family="Times,serif" font-size="14.00" fill="#000000">macromolecule metabolic</text>
<text text-anchor="middle" x="1276.6189" y="-411" font-family="Times,serif" font-size="14.00" fill="#000000">process</text>
</g>
<!-- GO:0090304&#45;&gt;GO:0043170 -->
<g id="edge25" class="edge">
<title>GO:0090304&#45;&gt;GO:0043170</title>
<path fill="none" stroke="#000000" d="M1160.6401,-229.8214C1193.4456,-238.9426 1230.0466,-255.0054 1252.6189,-283.2 1277.189,-313.89 1281.1861,-359.8077 1280.2952,-392.5093"/>
<polygon fill="#000000" stroke="#000000" points="1276.7931,-392.4832 1279.8541,-402.6262 1283.7865,-392.7882 1276.7931,-392.4832"/>
</g>
<!-- GO:0044238 -->
<g id="node22" class="node">
<title>GO:0044238</title>
<polygon fill="#ffffff" stroke="#000000" points="1096.6219,-555.4019 932.6159,-555.4019 932.6159,-514.1981 1096.6219,-514.1981 1096.6219,-555.4019"/>
<text text-anchor="middle" x="1014.6189" y="-539" font-family="Times,serif" font-size="14.00" fill="#000000">GO:0044238</text>
<text text-anchor="middle" x="1014.6189" y="-522.2" font-family="Times,serif" font-size="14.00" fill="#000000">primary metabolic process</text>
</g>
<!-- GO:0006139&#45;&gt;GO:0044238 -->
<g id="edge26" class="edge">
<title>GO:0006139&#45;&gt;GO:0044238</title>
<path fill="none" stroke="#000000" d="M920.7724,-358.5421C933.4666,-389.0767 952.6698,-432.8804 972.6189,-469.6 979.2124,-481.7364 987.2653,-494.6151 994.5495,-505.6927"/>
<polygon fill="#000000" stroke="#000000" points="991.7238,-507.7639 1000.1838,-514.1419 997.5477,-503.8803 991.7238,-507.7639"/>
</g>
<!-- GO:0034641 -->
<g id="node23" class="node">
<title>GO:0034641</title>
<polygon fill="#ffffff" stroke="#000000" points="925.4304,-469.7003 791.8074,-469.7003 791.8074,-394.2997 925.4304,-394.2997 925.4304,-469.7003"/>
<text text-anchor="middle" x="858.6189" y="-453" font-family="Times,serif" font-size="14.00" fill="#000000">GO:0034641</text>
<text text-anchor="middle" x="858.6189" y="-436.2" font-family="Times,serif" font-size="14.00" fill="#000000">cellular nitrogen</text>
<text text-anchor="middle" x="858.6189" y="-419.4" font-family="Times,serif" font-size="14.00" fill="#000000">compound metabolic</text>
<text text-anchor="middle" x="858.6189" y="-402.6" font-family="Times,serif" font-size="14.00" fill="#000000">process</text>
</g>
<!-- GO:0006139&#45;&gt;GO:0034641 -->
<g id="edge27" class="edge">
<title>GO:0006139&#45;&gt;GO:0034641</title>
<path fill="none" stroke="#000000" d="M889.7068,-358.4472C886.1083,-366.9612 882.2439,-376.1042 878.5046,-384.9514"/>
<polygon fill="#000000" stroke="#000000" points="875.1839,-383.8178 874.5146,-394.3915 881.6317,-386.5431 875.1839,-383.8178"/>
</g>
<!-- GO:0006725 -->
<g id="node24" class="node">
<title>GO:0006725</title>
<polygon fill="#ffffff" stroke="#000000" points="773.4304,-469.7003 639.8074,-469.7003 639.8074,-394.2997 773.4304,-394.2997 773.4304,-469.7003"/>
<text text-anchor="middle" x="706.6189" y="-453" font-family="Times,serif" font-size="14.00" fill="#000000">GO:0006725</text>
<text text-anchor="middle" x="706.6189" y="-436.2" font-family="Times,serif" font-size="14.00" fill="#000000">cellular aromatic</text>
<text text-anchor="middle" x="706.6189" y="-419.4" font-family="Times,serif" font-size="14.00" fill="#000000">compound metabolic</text>
<text text-anchor="middle" x="706.6189" y="-402.6" font-family="Times,serif" font-size="14.00" fill="#000000">process</text>
</g>
<!-- GO:0006139&#45;&gt;GO:0006725 -->
<g id="edge28" class="edge">
<title>GO:0006139&#45;&gt;GO:0006725</title>
<path fill="none" stroke="#000000" d="M838.2466,-358.4472C820.32,-368.4645 800.8348,-379.3527 782.4875,-389.6051"/>
<polygon fill="#000000" stroke="#000000" points="780.6061,-386.647 773.5838,-394.5804 784.0207,-392.7577 780.6061,-386.647"/>
</g>
<!-- GO:1901360 -->
<g id="node25" class="node">
<title>GO:1901360</title>
<polygon fill="#ffffff" stroke="#000000" points="1139.1303,-461.4014 982.1075,-461.4014 982.1075,-402.5986 1139.1303,-402.5986 1139.1303,-461.4014"/>
<text text-anchor="middle" x="1060.6189" y="-444.6" font-family="Times,serif" font-size="14.00" fill="#000000">GO:1901360</text>
<text text-anchor="middle" x="1060.6189" y="-427.8" font-family="Times,serif" font-size="14.00" fill="#000000">organic cyclic compound</text>
<text text-anchor="middle" x="1060.6189" y="-411" font-family="Times,serif" font-size="14.00" fill="#000000">metabolic process</text>
</g>
<!-- GO:0006139&#45;&gt;GO:1901360 -->
<g id="edge29" class="edge">
<title>GO:0006139&#45;&gt;GO:1901360</title>
<path fill="none" stroke="#000000" d="M958.0948,-358.4472C975.3032,-370.7928 994.3554,-384.4613 1011.3201,-396.6321"/>
<polygon fill="#000000" stroke="#000000" points="1009.2977,-399.4887 1019.4633,-402.4742 1013.3782,-393.801 1009.2977,-399.4887"/>
</g>
<!-- GO:0046483 -->
<g id="node26" class="node">
<title>GO:0046483</title>
<polygon fill="#ffffff" stroke="#000000" points="621.3401,-461.4014 481.8977,-461.4014 481.8977,-402.5986 621.3401,-402.5986 621.3401,-461.4014"/>
<text text-anchor="middle" x="551.6189" y="-444.6" font-family="Times,serif" font-size="14.00" fill="#000000">GO:0046483</text>
<text text-anchor="middle" x="551.6189" y="-427.8" font-family="Times,serif" font-size="14.00" fill="#000000">heterocycle metabolic</text>
<text text-anchor="middle" x="551.6189" y="-411" font-family="Times,serif" font-size="14.00" fill="#000000">process</text>
</g>
<!-- GO:0006139&#45;&gt;GO:0046483 -->
<g id="edge30" class="edge">
<title>GO:0006139&#45;&gt;GO:0046483</title>
<path fill="none" stroke="#000000" d="M834.437,-336.0762C778.2546,-349.0309 698.3311,-369.463 630.6189,-394.4 626.9553,-395.7492 623.2309,-397.2066 619.495,-398.7367"/>
<polygon fill="#000000" stroke="#000000" points="618.0546,-395.5457 610.2127,-402.67 620.7858,-401.991 618.0546,-395.5457"/>
</g>
<!-- GO:0071704 -->
<g id="node27" class="node">
<title>GO:0071704</title>
<polygon fill="#ffffff" stroke="#000000" points="1231.8045,-564.2014 1115.4333,-564.2014 1115.4333,-505.3986 1231.8045,-505.3986 1231.8045,-564.2014"/>
<text text-anchor="middle" x="1173.6189" y="-547.4" font-family="Times,serif" font-size="14.00" fill="#000000">GO:0071704</text>
<text text-anchor="middle" x="1173.6189" y="-530.6" font-family="Times,serif" font-size="14.00" fill="#000000">organic substance</text>
<text text-anchor="middle" x="1173.6189" y="-513.8" font-family="Times,serif" font-size="14.00" fill="#000000">metabolic process</text>
</g>
<!-- GO:0043170&#45;&gt;GO:0071704 -->
<g id="edge31" class="edge">
<title>GO:0043170&#45;&gt;GO:0071704</title>
<path fill="none" stroke="#000000" d="M1247.1032,-461.4584C1235.6822,-472.8572 1222.4853,-486.0285 1210.4535,-498.0369"/>
<polygon fill="#000000" stroke="#000000" points="1207.7444,-495.7958 1203.1389,-505.3373 1212.6893,-500.7504 1207.7444,-495.7958"/>
</g>
<!-- GO:0008152 -->
<g id="node28" class="node">
<title>GO:0008152</title>
<polygon fill="#00ff00" stroke="#000000" points="1072.8045,-658.2019 956.4333,-658.2019 956.4333,-616.9981 1072.8045,-616.9981 1072.8045,-658.2019"/>
<text text-anchor="middle" x="1014.6189" y="-641.8" font-family="Times,serif" font-size="14.00" fill="#000000">GO:0008152</text>
<text text-anchor="middle" x="1014.6189" y="-625" font-family="Times,serif" font-size="14.00" fill="#000000">metabolic process</text>
</g>
<!-- GO:0044238&#45;&gt;GO:0008152 -->
<g id="edge32" class="edge">
<title>GO:0044238&#45;&gt;GO:0008152</title>
<path fill="none" stroke="#000000" d="M1014.6189,-555.6031C1014.6189,-570.2337 1014.6189,-590.0642 1014.6189,-606.5586"/>
<polygon fill="#000000" stroke="#000000" points="1011.119,-606.8278 1014.6189,-616.8278 1018.119,-606.8279 1011.119,-606.8278"/>
</g>
<!-- GO:0006807 -->
<g id="node29" class="node">
<title>GO:0006807</title>
<polygon fill="#ffffff" stroke="#000000" points="914.3808,-564.2014 788.857,-564.2014 788.857,-505.3986 914.3808,-505.3986 914.3808,-564.2014"/>
<text text-anchor="middle" x="851.6189" y="-547.4" font-family="Times,serif" font-size="14.00" fill="#000000">GO:0006807</text>
<text text-anchor="middle" x="851.6189" y="-530.6" font-family="Times,serif" font-size="14.00" fill="#000000">nitrogen compound</text>
<text text-anchor="middle" x="851.6189" y="-513.8" font-family="Times,serif" font-size="14.00" fill="#000000">metabolic process</text>
</g>
<!-- GO:0034641&#45;&gt;GO:0006807 -->
<g id="edge33" class="edge">
<title>GO:0034641&#45;&gt;GO:0006807</title>
<path fill="none" stroke="#000000" d="M856.0521,-469.6952C855.4807,-478.0874 854.8734,-487.0054 854.2976,-495.4618"/>
<polygon fill="#000000" stroke="#000000" points="850.8028,-495.2667 853.6153,-505.4814 857.7867,-495.7423 850.8028,-495.2667"/>
</g>
<!-- GO:0044237 -->
<g id="node30" class="node">
<title>GO:0044237</title>
<polygon fill="#ff00ff" stroke="#000000" points="770.8017,-564.2014 654.4361,-564.2014 654.4361,-505.3986 770.8017,-505.3986 770.8017,-564.2014"/>
<text text-anchor="middle" x="712.6189" y="-547.4" font-family="Times,serif" font-size="14.00" fill="#000000">GO:0044237</text>
<text text-anchor="middle" x="712.6189" y="-530.6" font-family="Times,serif" font-size="14.00" fill="#000000">cellular metabolic</text>
<text text-anchor="middle" x="712.6189" y="-513.8" font-family="Times,serif" font-size="14.00" fill="#000000">process</text>
</g>
<!-- GO:0034641&#45;&gt;GO:0044237 -->
<g id="edge34" class="edge">
<title>GO:0034641&#45;&gt;GO:0044237</title>
<path fill="none" stroke="#000000" d="M805.0829,-469.6952C791.1994,-479.4707 776.3026,-489.9597 762.6091,-499.6014"/>
<polygon fill="#000000" stroke="#000000" points="760.4197,-496.8624 754.2582,-505.4814 764.4497,-502.586 760.4197,-496.8624"/>
</g>
<!-- GO:0006725&#45;&gt;GO:0044237 -->
<g id="edge35" class="edge">
<title>GO:0006725&#45;&gt;GO:0044237</title>
<path fill="none" stroke="#000000" d="M708.819,-469.6952C709.3088,-478.0874 709.8293,-487.0054 710.3229,-495.4618"/>
<polygon fill="#000000" stroke="#000000" points="706.8309,-495.7023 710.9077,-505.4814 713.819,-495.2944 706.8309,-495.7023"/>
</g>
<!-- GO:1901360&#45;&gt;GO:0071704 -->
<g id="edge36" class="edge">
<title>GO:1901360&#45;&gt;GO:0071704</title>
<path fill="none" stroke="#000000" d="M1093.0002,-461.4584C1105.6483,-472.9648 1120.2815,-486.2771 1133.5813,-498.3765"/>
<polygon fill="#000000" stroke="#000000" points="1131.4806,-501.1969 1141.2329,-505.3373 1136.1911,-496.019 1131.4806,-501.1969"/>
</g>
<!-- GO:0046483&#45;&gt;GO:0044237 -->
<g id="edge37" class="edge">
<title>GO:0046483&#45;&gt;GO:0044237</title>
<path fill="none" stroke="#000000" d="M597.755,-461.4584C616.6146,-473.5004 638.572,-487.5204 658.2076,-500.0578"/>
<polygon fill="#000000" stroke="#000000" points="656.4426,-503.0835 666.7546,-505.5152 660.2097,-497.1836 656.4426,-503.0835"/>
</g>
<!-- GO:0071704&#45;&gt;GO:0008152 -->
<g id="edge38" class="edge">
<title>GO:0071704&#45;&gt;GO:0008152</title>
<path fill="none" stroke="#000000" d="M1128.0559,-564.2584C1105.0484,-579.1336 1077.3726,-597.0272 1055.1174,-611.4161"/>
<polygon fill="#000000" stroke="#000000" points="1053.0622,-608.5769 1046.5649,-616.9456 1056.8629,-614.4553 1053.0622,-608.5769"/>
</g>
<!-- GO:0008152&#45;&gt;GO:0008150 -->
<g id="edge39" class="edge">
<title>GO:0008152&#45;&gt;GO:0008150</title>
<path fill="none" stroke="#000000" d="M1031.0419,-658.5504C1041.2931,-671.6276 1054.6341,-688.6464 1065.8927,-703.0087"/>
<polygon fill="#000000" stroke="#000000" points="1063.3178,-705.3973 1072.2418,-711.1081 1068.8269,-701.0787 1063.3178,-705.3973"/>
</g>
<!-- GO:0006807&#45;&gt;GO:0008152 -->
<g id="edge40" class="edge">
<title>GO:0006807&#45;&gt;GO:0008152</title>
<path fill="none" stroke="#000000" d="M898.3282,-564.2584C922.0188,-579.1994 950.5377,-597.1856 973.4041,-611.6069"/>
<polygon fill="#000000" stroke="#000000" points="971.5438,-614.5716 981.8693,-616.9456 975.278,-608.6507 971.5438,-614.5716"/>
</g>
<!-- GO:0044237&#45;&gt;GO:0009987 -->
<g id="edge41" class="edge">
<title>GO:0044237&#45;&gt;GO:0009987</title>
<path fill="none" stroke="#000000" d="M712.6189,-564.2584C712.6189,-577.5539 712.6189,-593.2608 712.6189,-606.7212"/>
<polygon fill="#000000" stroke="#000000" points="709.119,-606.9456 712.6189,-616.9456 716.119,-606.9457 709.119,-606.9456"/>
</g>
<!-- GO:0044237&#45;&gt;GO:0008152 -->
<g id="edge42" class="edge">
<title>GO:0044237&#45;&gt;GO:0008152</title>
<path fill="none" stroke="#000000" d="M770.9333,-560.6543C773.859,-561.8131 776.7659,-562.935 779.6189,-564 834.9613,-584.6579 899.0219,-604.4569 946.2676,-618.3062"/>
<polygon fill="#000000" stroke="#000000" points="945.505,-621.7295 956.085,-621.1694 947.4649,-615.0095 945.505,-621.7295"/>
</g>
<!-- GO:0044260 -->
<g id="node31" class="node">
<title>GO:0044260</title>
<polygon fill="#ff00ff" stroke="#000000" points="1243.3913,-350.2014 1095.8465,-350.2014 1095.8465,-291.3986 1243.3913,-291.3986 1243.3913,-350.2014"/>
<text text-anchor="middle" x="1169.6189" y="-333.4" font-family="Times,serif" font-size="14.00" fill="#000000">GO:0044260</text>
<text text-anchor="middle" x="1169.6189" y="-316.6" font-family="Times,serif" font-size="14.00" fill="#000000">cellular macromolecule</text>
<text text-anchor="middle" x="1169.6189" y="-299.8" font-family="Times,serif" font-size="14.00" fill="#000000">metabolic process</text>
</g>
<!-- GO:0044260&#45;&gt;GO:0043170 -->
<g id="edge44" class="edge">
<title>GO:0044260&#45;&gt;GO:0043170</title>
<path fill="none" stroke="#000000" d="M1197.7319,-350.0165C1211.0192,-363.8254 1227.0263,-380.4608 1241.1392,-395.1276"/>
<polygon fill="#000000" stroke="#000000" points="1238.8664,-397.8135 1248.3222,-402.5926 1243.9105,-392.9599 1238.8664,-397.8135"/>
</g>
<!-- GO:0044260&#45;&gt;GO:0044237 -->
<g id="edge43" class="edge">
<title>GO:0044260&#45;&gt;GO:0044237</title>
<path fill="none" stroke="#000000" d="M1175.023,-350.1079C1179.4116,-384.0213 1180.4582,-439.0996 1148.6189,-469.6 1091.2149,-524.5899 875.3068,-487.6978 780.8966,-505.8747"/>
<polygon fill="#000000" stroke="#000000" points="780.0599,-502.4754 771.0739,-508.0881 781.5987,-509.3041 780.0599,-502.4754"/>
</g>
<!-- GO:0010603 -->
<g id="node32" class="node">
<title>GO:0010603</title>
<polygon fill="#ff00ff" stroke="#000000" points="1516.1919,-152.9003 1357.0459,-152.9003 1357.0459,-77.4997 1516.1919,-77.4997 1516.1919,-152.9003"/>
<text text-anchor="middle" x="1436.6189" y="-136.2" font-family="Times,serif" font-size="14.00" fill="#000000">GO:0010603</text>
<text text-anchor="middle" x="1436.6189" y="-119.4" font-family="Times,serif" font-size="14.00" fill="#000000">regulation of cytoplasmic</text>
<text text-anchor="middle" x="1436.6189" y="-102.6" font-family="Times,serif" font-size="14.00" fill="#000000">mRNA processing body</text>
<text text-anchor="middle" x="1436.6189" y="-85.8" font-family="Times,serif" font-size="14.00" fill="#000000">assembly</text>
</g>
<!-- GO:1902115 -->
<g id="node33" class="node">
<title>GO:1902115</title>
<polygon fill="#ffffff" stroke="#000000" points="1508.1275,-247.4014 1365.1103,-247.4014 1365.1103,-188.5986 1508.1275,-188.5986 1508.1275,-247.4014"/>
<text text-anchor="middle" x="1436.6189" y="-230.6" font-family="Times,serif" font-size="14.00" fill="#000000">GO:1902115</text>
<text text-anchor="middle" x="1436.6189" y="-213.8" font-family="Times,serif" font-size="14.00" fill="#000000">regulation of organelle</text>
<text text-anchor="middle" x="1436.6189" y="-197" font-family="Times,serif" font-size="14.00" fill="#000000">assembly</text>
</g>
<!-- GO:0010603&#45;&gt;GO:1902115 -->
<g id="edge45" class="edge">
<title>GO:0010603&#45;&gt;GO:1902115</title>
<path fill="none" stroke="#000000" d="M1436.6189,-152.8952C1436.6189,-161.2874 1436.6189,-170.2054 1436.6189,-178.6618"/>
<polygon fill="#000000" stroke="#000000" points="1433.119,-178.6813 1436.6189,-188.6814 1440.119,-178.6814 1433.119,-178.6813"/>
</g>
<!-- GO:1902115&#45;&gt;GO:0033043 -->
<g id="edge47" class="edge">
<title>GO:1902115&#45;&gt;GO:0033043</title>
<path fill="none" stroke="#000000" d="M1451.2335,-247.4584C1456.6218,-258.3195 1462.8084,-270.7898 1468.5337,-282.3301"/>
<polygon fill="#000000" stroke="#000000" points="1465.4226,-283.9347 1473.0022,-291.3373 1471.6933,-280.8237 1465.4226,-283.9347"/>
</g>
<!-- GO:0044087 -->
<g id="node34" class="node">
<title>GO:0044087</title>
<polygon fill="#ff00ff" stroke="#000000" points="1390.929,-564.2014 1250.3088,-564.2014 1250.3088,-505.3986 1390.929,-505.3986 1390.929,-564.2014"/>
<text text-anchor="middle" x="1320.6189" y="-547.4" font-family="Times,serif" font-size="14.00" fill="#000000">GO:0044087</text>
<text text-anchor="middle" x="1320.6189" y="-530.6" font-family="Times,serif" font-size="14.00" fill="#000000">regulation of cellular</text>
<text text-anchor="middle" x="1320.6189" y="-513.8" font-family="Times,serif" font-size="14.00" fill="#000000">component biogenesis</text>
</g>
<!-- GO:1902115&#45;&gt;GO:0044087 -->
<g id="edge46" class="edge">
<title>GO:1902115&#45;&gt;GO:0044087</title>
<path fill="none" stroke="#000000" d="M1421.4689,-247.3046C1416.2106,-258.3409 1410.6327,-271.141 1406.6189,-283.2 1379.8599,-363.5941 1400.6188,-391.9903 1366.6189,-469.6 1362.4915,-479.0215 1356.8886,-488.4626 1351.0134,-497.1193"/>
<polygon fill="#000000" stroke="#000000" points="1348.0128,-495.3005 1345.092,-505.4848 1353.7263,-499.3448 1348.0128,-495.3005"/>
</g>
<!-- GO:0044087&#45;&gt;GO:0065007 -->
<g id="edge48" class="edge">
<title>GO:0044087&#45;&gt;GO:0065007</title>
<path fill="none" stroke="#000000" d="M1275.3424,-564.2584C1252.4797,-579.1336 1224.9779,-597.0272 1202.8627,-611.4161"/>
<polygon fill="#000000" stroke="#000000" points="1200.8372,-608.5583 1194.3639,-616.9456 1204.6547,-614.4257 1200.8372,-608.5583"/>
</g>
<!-- GO:0044087&#45;&gt;GO:0050789 -->
<g id="edge49" class="edge">
<title>GO:0044087&#45;&gt;GO:0050789</title>
<path fill="none" stroke="#000000" d="M1320.6189,-564.2584C1320.6189,-574.7969 1320.6189,-586.8505 1320.6189,-598.0994"/>
<polygon fill="#000000" stroke="#000000" points="1317.119,-598.1373 1320.6189,-608.1373 1324.119,-598.1374 1317.119,-598.1373"/>
</g>
<!-- GO:0044699 -->
<g id="node35" class="node">
<title>GO:0044699</title>
<polygon fill="#ff00ff" stroke="#000000" points="1564.3002,-658.2019 1412.9376,-658.2019 1412.9376,-616.9981 1564.3002,-616.9981 1564.3002,-658.2019"/>
<text text-anchor="middle" x="1488.6189" y="-641.8" font-family="Times,serif" font-size="14.00" fill="#000000">GO:0044699</text>
<text text-anchor="middle" x="1488.6189" y="-625" font-family="Times,serif" font-size="14.00" fill="#000000">single&#45;organism process</text>
</g>
<!-- GO:0044699&#45;&gt;GO:0008150 -->
<g id="edge50" class="edge">
<title>GO:0044699&#45;&gt;GO:0008150</title>
<path fill="none" stroke="#000000" d="M1447.0057,-658.374C1433.4333,-664.5044 1418.121,-670.7547 1403.6189,-675.2 1321.5417,-700.3593 1223.8138,-715.8378 1159.2137,-724.1574"/>
<polygon fill="#000000" stroke="#000000" points="1158.6196,-720.7045 1149.1377,-725.4315 1159.4978,-727.6492 1158.6196,-720.7045"/>
</g>
</g>
</svg>
