<?xml version="1.0" encoding="UTF-8" standalone="no"?>
<!DOCTYPE svg PUBLIC "-//W3C//DTD SVG 1.1//EN"
 "http://www.w3.org/Graphics/SVG/1.1/DTD/svg11.dtd">
<!-- Generated by graphviz version 2.40.1 (20161225.0304)
 -->
<!-- Title: G Pages: 1 -->
<svg width="615pt" height="454pt"
 viewBox="0.00 0.00 614.95 454.40" xmlns="http://www.w3.org/2000/svg" xmlns:xlink="http://www.w3.org/1999/xlink">
<g id="graph0" class="graph" transform="scale(1 1) rotate(0) translate(4 450.4)">
<title>G</title>
<polygon fill="#ffffff" stroke="transparent" points="-4,4 -4,-450.4 610.9454,-450.4 610.9454,4 -4,4"/>
<!-- GO:0009279 -->
<g id="node1" class="node">
<title>GO:0009279</title>
<polygon fill="#ffffff" stroke="#000000" points="207.342,-196.6019 76.2184,-196.6019 76.2184,-155.3981 207.342,-155.3981 207.342,-196.6019"/>
<text text-anchor="middle" x="141.7802" y="-180.2" font-family="Times,serif" font-size="14.00" fill="#000000">GO:0009279</text>
<text text-anchor="middle" x="141.7802" y="-163.4" font-family="Times,serif" font-size="14.00" fill="#000000">cell outer membrane</text>
</g>
<!-- GO:0044462 -->
<g id="node2" class="node">
<title>GO:0044462</title>
<polygon fill="#ffffff" stroke="#000000" points="141.3413,-291.4014 .2191,-291.4014 .2191,-232.5986 141.3413,-232.5986 141.3413,-291.4014"/>
<text text-anchor="middle" x="70.7802" y="-274.6" font-family="Times,serif" font-size="14.00" fill="#000000">GO:0044462</text>
<text text-anchor="middle" x="70.7802" y="-257.8" font-family="Times,serif" font-size="14.00" fill="#000000">external encapsulating</text>
<text text-anchor="middle" x="70.7802" y="-241" font-family="Times,serif" font-size="14.00" fill="#000000">structure part</text>
</g>
<!-- GO:0009279&#45;&gt;GO:0044462 -->
<g id="edge1" class="edge">
<title>GO:0009279&#45;&gt;GO:0044462</title>
<path fill="none" stroke="#000000" d="M124.5931,-196.8182C117.6675,-205.2069 109.4615,-215.1466 101.5714,-224.7037"/>
<polygon fill="#000000" stroke="#000000" points="98.7205,-222.6593 95.053,-232.5991 104.1186,-227.1159 98.7205,-222.6593"/>
</g>
<!-- GO:0019867 -->
<g id="node3" class="node">
<title>GO:0019867</title>
<polygon fill="#ffffff" stroke="#000000" points="266.6322,-282.6019 158.9282,-282.6019 158.9282,-241.3981 266.6322,-241.3981 266.6322,-282.6019"/>
<text text-anchor="middle" x="212.7802" y="-266.2" font-family="Times,serif" font-size="14.00" fill="#000000">GO:0019867</text>
<text text-anchor="middle" x="212.7802" y="-249.4" font-family="Times,serif" font-size="14.00" fill="#000000">outer membrane</text>
</g>
<!-- GO:0009279&#45;&gt;GO:0019867 -->
<g id="edge2" class="edge">
<title>GO:0009279&#45;&gt;GO:0019867</title>
<path fill="none" stroke="#000000" d="M158.9673,-196.8182C168.0372,-207.8043 179.3033,-221.4506 189.1798,-233.4137"/>
<polygon fill="#000000" stroke="#000000" points="186.6858,-235.8902 195.7514,-241.3735 192.0839,-231.4337 186.6858,-235.8902"/>
</g>
<!-- GO:0044464 -->
<g id="node4" class="node">
<title>GO:0044464</title>
<polygon fill="#ffffff" stroke="#000000" points="133.3841,-368.6019 44.1763,-368.6019 44.1763,-327.3981 133.3841,-327.3981 133.3841,-368.6019"/>
<text text-anchor="middle" x="88.7802" y="-352.2" font-family="Times,serif" font-size="14.00" fill="#000000">GO:0044464</text>
<text text-anchor="middle" x="88.7802" y="-335.4" font-family="Times,serif" font-size="14.00" fill="#000000">cell part</text>
</g>
<!-- GO:0044462&#45;&gt;GO:0044464 -->
<g id="edge3" class="edge">
<title>GO:0044462&#45;&gt;GO:0044464</title>
<path fill="none" stroke="#000000" d="M76.9748,-291.5963C78.7244,-299.9556 80.6312,-309.0658 82.392,-317.4784"/>
<polygon fill="#000000" stroke="#000000" points="78.9724,-318.2257 84.4469,-327.2966 85.824,-316.7916 78.9724,-318.2257"/>
</g>
<!-- GO:0016020 -->
<g id="node5" class="node">
<title>GO:0016020</title>
<polygon fill="#ffffff" stroke="#000000" points="257.3841,-368.6019 168.1763,-368.6019 168.1763,-327.3981 257.3841,-327.3981 257.3841,-368.6019"/>
<text text-anchor="middle" x="212.7802" y="-352.2" font-family="Times,serif" font-size="14.00" fill="#000000">GO:0016020</text>
<text text-anchor="middle" x="212.7802" y="-335.4" font-family="Times,serif" font-size="14.00" fill="#000000">membrane</text>
</g>
<!-- GO:0019867&#45;&gt;GO:0016020 -->
<g id="edge4" class="edge">
<title>GO:0019867&#45;&gt;GO:0016020</title>
<path fill="none" stroke="#000000" d="M212.7802,-282.8182C212.7802,-293.1705 212.7802,-305.8848 212.7802,-317.3271"/>
<polygon fill="#000000" stroke="#000000" points="209.2803,-317.3735 212.7802,-327.3735 216.2803,-317.3735 209.2803,-317.3735"/>
</g>
<!-- GO:0005575 -->
<g id="node6" class="node">
<title>GO:0005575</title>
<polygon fill="#ffffff" stroke="#000000" points="345.4669,-446.2019 218.0935,-446.2019 218.0935,-404.9981 345.4669,-404.9981 345.4669,-446.2019"/>
<text text-anchor="middle" x="281.7802" y="-429.8" font-family="Times,serif" font-size="14.00" fill="#000000">GO:0005575</text>
<text text-anchor="middle" x="281.7802" y="-413" font-family="Times,serif" font-size="14.00" fill="#000000">cellular_component</text>
</g>
<!-- GO:0044464&#45;&gt;GO:0005575 -->
<g id="edge5" class="edge">
<title>GO:0044464&#45;&gt;GO:0005575</title>
<path fill="none" stroke="#000000" d="M133.5434,-365.998C159.5554,-376.4568 192.688,-389.7785 221.0294,-401.1738"/>
<polygon fill="#000000" stroke="#000000" points="219.8561,-404.4743 230.4399,-404.9575 222.4675,-397.9796 219.8561,-404.4743"/>
</g>
<!-- GO:0016020&#45;&gt;GO:0005575 -->
<g id="edge6" class="edge">
<title>GO:0016020&#45;&gt;GO:0005575</title>
<path fill="none" stroke="#000000" d="M231.2709,-368.7954C239.0053,-377.4937 248.1189,-387.7433 256.4604,-397.1244"/>
<polygon fill="#000000" stroke="#000000" points="253.978,-399.5999 263.2384,-404.7472 259.2091,-394.9485 253.978,-399.5999"/>
</g>
<!-- GO:0070062 -->
<g id="node7" class="node">
<title>GO:0070062</title>
<polygon fill="#ffffff" stroke="#000000" points="507.5014,-41.4019 368.059,-41.4019 368.059,-.1981 507.5014,-.1981 507.5014,-41.4019"/>
<text text-anchor="middle" x="437.7802" y="-25" font-family="Times,serif" font-size="14.00" fill="#000000">GO:0070062</text>
<text text-anchor="middle" x="437.7802" y="-8.2" font-family="Times,serif" font-size="14.00" fill="#000000">extracellular exosome</text>
</g>
<!-- GO:1903561 -->
<g id="node8" class="node">
<title>GO:1903561</title>
<polygon fill="#ffffff" stroke="#000000" points="419.1068,-119.0019 290.4536,-119.0019 290.4536,-77.7981 419.1068,-77.7981 419.1068,-119.0019"/>
<text text-anchor="middle" x="354.7802" y="-102.6" font-family="Times,serif" font-size="14.00" fill="#000000">GO:1903561</text>
<text text-anchor="middle" x="354.7802" y="-85.8" font-family="Times,serif" font-size="14.00" fill="#000000">extracellular vesicle</text>
</g>
<!-- GO:0070062&#45;&gt;GO:1903561 -->
<g id="edge7" class="edge">
<title>GO:0070062&#45;&gt;GO:1903561</title>
<path fill="none" stroke="#000000" d="M415.5377,-41.5954C406.048,-50.4677 394.8321,-60.9539 384.6364,-70.4862"/>
<polygon fill="#000000" stroke="#000000" points="381.9985,-68.1611 377.0841,-77.5472 386.7791,-73.2744 381.9985,-68.1611"/>
</g>
<!-- GO:0031988 -->
<g id="node9" class="node">
<title>GO:0031988</title>
<polygon fill="#ffffff" stroke="#000000" points="607.1109,-119.0019 436.4495,-119.0019 436.4495,-77.7981 607.1109,-77.7981 607.1109,-119.0019"/>
<text text-anchor="middle" x="521.7802" y="-102.6" font-family="Times,serif" font-size="14.00" fill="#000000">GO:0031988</text>
<text text-anchor="middle" x="521.7802" y="-85.8" font-family="Times,serif" font-size="14.00" fill="#000000">membrane&#45;bounded vesicle</text>
</g>
<!-- GO:0070062&#45;&gt;GO:0031988 -->
<g id="edge8" class="edge">
<title>GO:0070062&#45;&gt;GO:0031988</title>
<path fill="none" stroke="#000000" d="M460.2907,-41.5954C469.8947,-50.4677 481.2457,-60.9539 491.5643,-70.4862"/>
<polygon fill="#000000" stroke="#000000" points="489.4872,-73.3324 499.2076,-77.5472 494.2372,-68.1906 489.4872,-73.3324"/>
</g>
<!-- GO:0043230 -->
<g id="node10" class="node">
<title>GO:0043230</title>
<polygon fill="#ffffff" stroke="#000000" points="425.3231,-282.6019 284.2373,-282.6019 284.2373,-241.3981 425.3231,-241.3981 425.3231,-282.6019"/>
<text text-anchor="middle" x="354.7802" y="-266.2" font-family="Times,serif" font-size="14.00" fill="#000000">GO:0043230</text>
<text text-anchor="middle" x="354.7802" y="-249.4" font-family="Times,serif" font-size="14.00" fill="#000000">extracellular organelle</text>
</g>
<!-- GO:1903561&#45;&gt;GO:0043230 -->
<g id="edge9" class="edge">
<title>GO:1903561&#45;&gt;GO:0043230</title>
<path fill="none" stroke="#000000" d="M354.7802,-119.1201C354.7802,-147.3159 354.7802,-198.0064 354.7802,-230.8099"/>
<polygon fill="#000000" stroke="#000000" points="351.2803,-231.1904 354.7802,-241.1904 358.2803,-231.1905 351.2803,-231.1904"/>
</g>
<!-- GO:0031982 -->
<g id="node11" class="node">
<title>GO:0031982</title>
<polygon fill="#ffffff" stroke="#000000" points="552.3841,-196.6019 463.1763,-196.6019 463.1763,-155.3981 552.3841,-155.3981 552.3841,-196.6019"/>
<text text-anchor="middle" x="507.7802" y="-180.2" font-family="Times,serif" font-size="14.00" fill="#000000">GO:0031982</text>
<text text-anchor="middle" x="507.7802" y="-163.4" font-family="Times,serif" font-size="14.00" fill="#000000">vesicle</text>
</g>
<!-- GO:1903561&#45;&gt;GO:0031982 -->
<g id="edge10" class="edge">
<title>GO:1903561&#45;&gt;GO:0031982</title>
<path fill="none" stroke="#000000" d="M395.7814,-119.1954C414.8947,-128.8895 437.8068,-140.5102 457.914,-150.7084"/>
<polygon fill="#000000" stroke="#000000" points="456.4297,-153.8799 466.9313,-155.2819 459.596,-147.637 456.4297,-153.8799"/>
</g>
<!-- GO:0031988&#45;&gt;GO:0031982 -->
<g id="edge11" class="edge">
<title>GO:0031988&#45;&gt;GO:0031982</title>
<path fill="none" stroke="#000000" d="M518.0285,-119.1954C516.5847,-127.1978 514.9041,-136.5133 513.3265,-145.2575"/>
<polygon fill="#000000" stroke="#000000" points="509.8734,-144.6847 511.5423,-155.1472 516.7622,-145.9275 509.8734,-144.6847"/>
</g>
<!-- GO:0043226 -->
<g id="node12" class="node">
<title>GO:0043226</title>
<polygon fill="#ffffff" stroke="#000000" points="533.3841,-368.6019 444.1763,-368.6019 444.1763,-327.3981 533.3841,-327.3981 533.3841,-368.6019"/>
<text text-anchor="middle" x="488.7802" y="-352.2" font-family="Times,serif" font-size="14.00" fill="#000000">GO:0043226</text>
<text text-anchor="middle" x="488.7802" y="-335.4" font-family="Times,serif" font-size="14.00" fill="#000000">organelle</text>
</g>
<!-- GO:0043230&#45;&gt;GO:0043226 -->
<g id="edge12" class="edge">
<title>GO:0043230&#45;&gt;GO:0043226</title>
<path fill="none" stroke="#000000" d="M387.2179,-282.8182C405.4879,-294.5437 428.4796,-309.2996 447.9649,-321.8051"/>
<polygon fill="#000000" stroke="#000000" points="446.3349,-324.9178 456.6413,-327.3735 450.1158,-319.0267 446.3349,-324.9178"/>
</g>
<!-- GO:0044421 -->
<g id="node13" class="node">
<title>GO:0044421</title>
<polygon fill="#ffffff" stroke="#000000" points="426.2692,-368.6019 275.2912,-368.6019 275.2912,-327.3981 426.2692,-327.3981 426.2692,-368.6019"/>
<text text-anchor="middle" x="350.7802" y="-352.2" font-family="Times,serif" font-size="14.00" fill="#000000">GO:0044421</text>
<text text-anchor="middle" x="350.7802" y="-335.4" font-family="Times,serif" font-size="14.00" fill="#000000">extracellular region part</text>
</g>
<!-- GO:0043230&#45;&gt;GO:0044421 -->
<g id="edge13" class="edge">
<title>GO:0043230&#45;&gt;GO:0044421</title>
<path fill="none" stroke="#000000" d="M353.8119,-282.8182C353.3304,-293.1705 352.739,-305.8848 352.2068,-317.3271"/>
<polygon fill="#000000" stroke="#000000" points="348.7081,-317.2217 351.7396,-327.3735 355.7005,-317.547 348.7081,-317.2217"/>
</g>
<!-- GO:0043227 -->
<g id="node14" class="node">
<title>GO:0043227</title>
<polygon fill="#ffffff" stroke="#000000" points="571.741,-291.4014 443.8194,-291.4014 443.8194,-232.5986 571.741,-232.5986 571.741,-291.4014"/>
<text text-anchor="middle" x="507.7802" y="-274.6" font-family="Times,serif" font-size="14.00" fill="#000000">GO:0043227</text>
<text text-anchor="middle" x="507.7802" y="-257.8" font-family="Times,serif" font-size="14.00" fill="#000000">membrane&#45;bounded</text>
<text text-anchor="middle" x="507.7802" y="-241" font-family="Times,serif" font-size="14.00" fill="#000000">organelle</text>
</g>
<!-- GO:0031982&#45;&gt;GO:0043227 -->
<g id="edge14" class="edge">
<title>GO:0031982&#45;&gt;GO:0043227</title>
<path fill="none" stroke="#000000" d="M507.7802,-196.8182C507.7802,-204.5358 507.7802,-213.5662 507.7802,-222.4036"/>
<polygon fill="#000000" stroke="#000000" points="504.2803,-222.5991 507.7802,-232.5991 511.2803,-222.5992 504.2803,-222.5991"/>
</g>
<!-- GO:0043226&#45;&gt;GO:0005575 -->
<g id="edge15" class="edge">
<title>GO:0043226&#45;&gt;GO:0005575</title>
<path fill="none" stroke="#000000" d="M444.0072,-365.2942C440.8862,-366.4848 437.7872,-367.6628 434.7802,-368.8 406.095,-379.6487 374.3154,-391.4774 347.1859,-401.5181"/>
<polygon fill="#000000" stroke="#000000" points="345.9616,-398.2391 337.7965,-404.9905 348.3897,-404.8045 345.9616,-398.2391"/>
</g>
<!-- GO:0044421&#45;&gt;GO:0005575 -->
<g id="edge16" class="edge">
<title>GO:0044421&#45;&gt;GO:0005575</title>
<path fill="none" stroke="#000000" d="M332.2895,-368.7954C324.5551,-377.4937 315.4415,-387.7433 307.1,-397.1244"/>
<polygon fill="#000000" stroke="#000000" points="304.3513,-394.9485 300.322,-404.7472 309.5824,-399.5999 304.3513,-394.9485"/>
</g>
<!-- GO:0043227&#45;&gt;GO:0043226 -->
<g id="edge17" class="edge">
<title>GO:0043227&#45;&gt;GO:0043226</title>
<path fill="none" stroke="#000000" d="M501.2415,-291.5963C499.3947,-299.9556 497.3819,-309.0658 495.5233,-317.4784"/>
<polygon fill="#000000" stroke="#000000" points="492.094,-316.7769 493.3542,-327.2966 498.9292,-318.2871 492.094,-316.7769"/>
</g>
</g>
</svg>
