<?xml version="1.0" encoding="UTF-8" standalone="no"?>
<!DOCTYPE svg PUBLIC "-//W3C//DTD SVG 1.1//EN"
 "http://www.w3.org/Graphics/SVG/1.1/DTD/svg11.dtd">
<!-- Generated by graphviz version 2.40.1 (20161225.0304)
 -->
<!-- Title: G Pages: 1 -->
<svg width="1128pt" height="1105pt"
 viewBox="0.00 0.00 1127.82 1104.80" xmlns="http://www.w3.org/2000/svg" xmlns:xlink="http://www.w3.org/1999/xlink">
<g id="graph0" class="graph" transform="scale(1 1) rotate(0) translate(4 1100.8)">
<title>G</title>
<polygon fill="#ffffff" stroke="transparent" points="-4,4 -4,-1100.8 1123.8167,-1100.8 1123.8167,4 -4,4"/>
<!-- GO:0016787 -->
<g id="node1" class="node">
<title>GO:0016787</title>
<polygon fill="#ffffff" stroke="#000000" points="468.1144,-933.0019 352.2812,-933.0019 352.2812,-891.7981 468.1144,-891.7981 468.1144,-933.0019"/>
<text text-anchor="middle" x="410.1978" y="-916.6" font-family="Times,serif" font-size="14.00" fill="#000000">GO:0016787</text>
<text text-anchor="middle" x="410.1978" y="-899.8" font-family="Times,serif" font-size="14.00" fill="#000000">hydrolase activity</text>
</g>
<!-- GO:0003824 -->
<g id="node2" class="node">
<title>GO:0003824</title>
<polygon fill="#00ffff" stroke="#000000" points="551.6102,-1019.0019 442.7854,-1019.0019 442.7854,-977.7981 551.6102,-977.7981 551.6102,-1019.0019"/>
<text text-anchor="middle" x="497.1978" y="-1002.6" font-family="Times,serif" font-size="14.00" fill="#000000">GO:0003824</text>
<text text-anchor="middle" x="497.1978" y="-985.8" font-family="Times,serif" font-size="14.00" fill="#000000">catalytic activity</text>
</g>
<!-- GO:0016787&#45;&gt;GO:0003824 -->
<g id="edge1" class="edge">
<title>GO:0016787&#45;&gt;GO:0003824</title>
<path fill="none" stroke="#000000" d="M431.2581,-933.2182C442.5856,-944.4156 456.7088,-958.3764 468.9753,-970.5019"/>
<polygon fill="#000000" stroke="#000000" points="466.7591,-973.2326 476.3315,-977.7735 471.6802,-968.2543 466.7591,-973.2326"/>
</g>
<!-- GO:0003674 -->
<g id="node3" class="node">
<title>GO:0003674</title>
<polygon fill="#ffffff" stroke="#000000" points="617.8309,-1096.6019 492.5647,-1096.6019 492.5647,-1055.3981 617.8309,-1055.3981 617.8309,-1096.6019"/>
<text text-anchor="middle" x="555.1978" y="-1080.2" font-family="Times,serif" font-size="14.00" fill="#000000">GO:0003674</text>
<text text-anchor="middle" x="555.1978" y="-1063.4" font-family="Times,serif" font-size="14.00" fill="#000000">molecular_function</text>
</g>
<!-- GO:0003824&#45;&gt;GO:0003674 -->
<g id="edge2" class="edge">
<title>GO:0003824&#45;&gt;GO:0003674</title>
<path fill="none" stroke="#000000" d="M512.7407,-1019.1954C519.112,-1027.7197 526.5969,-1037.7339 533.493,-1046.9605"/>
<polygon fill="#000000" stroke="#000000" points="530.8217,-1049.2327 539.612,-1055.1472 536.4286,-1045.0419 530.8217,-1049.2327"/>
</g>
<!-- GO:0008026 -->
<g id="node4" class="node">
<title>GO:0008026</title>
<polygon fill="#ffffff" stroke="#000000" points="485.919,-247.4014 332.4766,-247.4014 332.4766,-188.5986 485.919,-188.5986 485.919,-247.4014"/>
<text text-anchor="middle" x="409.1978" y="-230.6" font-family="Times,serif" font-size="14.00" fill="#000000">GO:0008026</text>
<text text-anchor="middle" x="409.1978" y="-213.8" font-family="Times,serif" font-size="14.00" fill="#000000">ATP&#45;dependent helicase</text>
<text text-anchor="middle" x="409.1978" y="-197" font-family="Times,serif" font-size="14.00" fill="#000000">activity</text>
</g>
<!-- GO:0070035 -->
<g id="node5" class="node">
<title>GO:0070035</title>
<polygon fill="#ffffff" stroke="#000000" points="540.1004,-341.8014 396.2952,-341.8014 396.2952,-282.9986 540.1004,-282.9986 540.1004,-341.8014"/>
<text text-anchor="middle" x="468.1978" y="-325" font-family="Times,serif" font-size="14.00" fill="#000000">GO:0070035</text>
<text text-anchor="middle" x="468.1978" y="-308.2" font-family="Times,serif" font-size="14.00" fill="#000000">purine NTP&#45;dependent</text>
<text text-anchor="middle" x="468.1978" y="-291.4" font-family="Times,serif" font-size="14.00" fill="#000000">helicase activity</text>
</g>
<!-- GO:0008026&#45;&gt;GO:0070035 -->
<g id="edge3" class="edge">
<title>GO:0008026&#45;&gt;GO:0070035</title>
<path fill="none" stroke="#000000" d="M427.5424,-247.3513C432.9257,-255.9646 438.8902,-265.5078 444.5546,-274.5708"/>
<polygon fill="#000000" stroke="#000000" points="441.5966,-276.4419 449.8646,-283.0669 447.5326,-272.7319 441.5966,-276.4419"/>
</g>
<!-- GO:0042623 -->
<g id="node6" class="node">
<title>GO:0042623</title>
<polygon fill="#ffffff" stroke="#000000" points="377.8249,-333.0019 220.5707,-333.0019 220.5707,-291.7981 377.8249,-291.7981 377.8249,-333.0019"/>
<text text-anchor="middle" x="299.1978" y="-316.6" font-family="Times,serif" font-size="14.00" fill="#000000">GO:0042623</text>
<text text-anchor="middle" x="299.1978" y="-299.8" font-family="Times,serif" font-size="14.00" fill="#000000">ATPase activity, coupled</text>
</g>
<!-- GO:0008026&#45;&gt;GO:0042623 -->
<g id="edge4" class="edge">
<title>GO:0008026&#45;&gt;GO:0042623</title>
<path fill="none" stroke="#000000" d="M374.9961,-247.3513C360.9724,-259.3862 344.833,-273.2367 331.0607,-285.0559"/>
<polygon fill="#000000" stroke="#000000" points="328.5685,-282.5825 323.2592,-291.751 333.1272,-287.8945 328.5685,-282.5825"/>
</g>
<!-- GO:0004386 -->
<g id="node7" class="node">
<title>GO:0004386</title>
<polygon fill="#ffffff" stroke="#000000" points="509.2744,-419.0019 403.1212,-419.0019 403.1212,-377.7981 509.2744,-377.7981 509.2744,-419.0019"/>
<text text-anchor="middle" x="456.1978" y="-402.6" font-family="Times,serif" font-size="14.00" fill="#000000">GO:0004386</text>
<text text-anchor="middle" x="456.1978" y="-385.8" font-family="Times,serif" font-size="14.00" fill="#000000">helicase activity</text>
</g>
<!-- GO:0070035&#45;&gt;GO:0004386 -->
<g id="edge5" class="edge">
<title>GO:0070035&#45;&gt;GO:0004386</title>
<path fill="none" stroke="#000000" d="M464.0681,-341.9963C462.9145,-350.2638 461.6584,-359.2657 460.4954,-367.6008"/>
<polygon fill="#000000" stroke="#000000" points="457.0023,-367.3088 459.0867,-377.6966 463.9351,-368.2762 457.0023,-367.3088"/>
</g>
<!-- GO:0016887 -->
<g id="node8" class="node">
<title>GO:0016887</title>
<polygon fill="#ffffff" stroke="#000000" points="374.0052,-419.0019 268.3904,-419.0019 268.3904,-377.7981 374.0052,-377.7981 374.0052,-419.0019"/>
<text text-anchor="middle" x="321.1978" y="-402.6" font-family="Times,serif" font-size="14.00" fill="#000000">GO:0016887</text>
<text text-anchor="middle" x="321.1978" y="-385.8" font-family="Times,serif" font-size="14.00" fill="#000000">ATPase activity</text>
</g>
<!-- GO:0042623&#45;&gt;GO:0016887 -->
<g id="edge6" class="edge">
<title>GO:0042623&#45;&gt;GO:0016887</title>
<path fill="none" stroke="#000000" d="M304.5234,-333.2182C307.1987,-343.6761 310.4906,-356.5446 313.4408,-368.077"/>
<polygon fill="#000000" stroke="#000000" points="310.052,-368.9529 315.9213,-377.7735 316.8337,-367.218 310.052,-368.9529"/>
</g>
<!-- GO:0017111 -->
<g id="node9" class="node">
<title>GO:0017111</title>
<polygon fill="#ffffff" stroke="#000000" points="469.0939,-513.8014 307.3017,-513.8014 307.3017,-454.9986 469.0939,-454.9986 469.0939,-513.8014"/>
<text text-anchor="middle" x="388.1978" y="-497" font-family="Times,serif" font-size="14.00" fill="#000000">GO:0017111</text>
<text text-anchor="middle" x="388.1978" y="-480.2" font-family="Times,serif" font-size="14.00" fill="#000000">nucleoside&#45;triphosphatase</text>
<text text-anchor="middle" x="388.1978" y="-463.4" font-family="Times,serif" font-size="14.00" fill="#000000">activity</text>
</g>
<!-- GO:0004386&#45;&gt;GO:0017111 -->
<g id="edge7" class="edge">
<title>GO:0004386&#45;&gt;GO:0017111</title>
<path fill="none" stroke="#000000" d="M439.7369,-419.2182C433.104,-427.6069 425.2447,-437.5466 417.6879,-447.1037"/>
<polygon fill="#000000" stroke="#000000" points="414.9019,-444.9841 411.445,-454.9991 420.3928,-449.3258 414.9019,-444.9841"/>
</g>
<!-- GO:0016887&#45;&gt;GO:0017111 -->
<g id="edge8" class="edge">
<title>GO:0016887&#45;&gt;GO:0017111</title>
<path fill="none" stroke="#000000" d="M337.4166,-419.2182C343.952,-427.6069 351.6957,-437.5466 359.1414,-447.1037"/>
<polygon fill="#000000" stroke="#000000" points="356.3857,-449.2616 365.2925,-454.9991 361.9077,-444.9595 356.3857,-449.2616"/>
</g>
<!-- GO:0016462 -->
<g id="node10" class="node">
<title>GO:0016462</title>
<polygon fill="#ffffff" stroke="#000000" points="465.7742,-599.4019 310.6214,-599.4019 310.6214,-558.1981 465.7742,-558.1981 465.7742,-599.4019"/>
<text text-anchor="middle" x="388.1978" y="-583" font-family="Times,serif" font-size="14.00" fill="#000000">GO:0016462</text>
<text text-anchor="middle" x="388.1978" y="-566.2" font-family="Times,serif" font-size="14.00" fill="#000000">pyrophosphatase activity</text>
</g>
<!-- GO:0017111&#45;&gt;GO:0016462 -->
<g id="edge9" class="edge">
<title>GO:0017111&#45;&gt;GO:0016462</title>
<path fill="none" stroke="#000000" d="M388.1978,-513.7513C388.1978,-524.6614 388.1978,-537.0637 388.1978,-548.092"/>
<polygon fill="#000000" stroke="#000000" points="384.6979,-548.1509 388.1978,-558.151 391.6979,-548.151 384.6979,-548.1509"/>
</g>
<!-- GO:0016818 -->
<g id="node11" class="node">
<title>GO:0016818</title>
<polygon fill="#ffffff" stroke="#000000" points="460.5095,-752.7002 315.8861,-752.7002 315.8861,-644.0998 460.5095,-644.0998 460.5095,-752.7002"/>
<text text-anchor="middle" x="388.1978" y="-736.2" font-family="Times,serif" font-size="14.00" fill="#000000">GO:0016818</text>
<text text-anchor="middle" x="388.1978" y="-719.4" font-family="Times,serif" font-size="14.00" fill="#000000">hydrolase activity,</text>
<text text-anchor="middle" x="388.1978" y="-702.6" font-family="Times,serif" font-size="14.00" fill="#000000">acting on acid</text>
<text text-anchor="middle" x="388.1978" y="-685.8" font-family="Times,serif" font-size="14.00" fill="#000000">anhydrides, in</text>
<text text-anchor="middle" x="388.1978" y="-669" font-family="Times,serif" font-size="14.00" fill="#000000">phosphorus&#45;containing</text>
<text text-anchor="middle" x="388.1978" y="-652.2" font-family="Times,serif" font-size="14.00" fill="#000000">anhydrides</text>
</g>
<!-- GO:0016462&#45;&gt;GO:0016818 -->
<g id="edge10" class="edge">
<title>GO:0016462&#45;&gt;GO:0016818</title>
<path fill="none" stroke="#000000" d="M388.1978,-599.6327C388.1978,-609.2534 388.1978,-621.2573 388.1978,-633.548"/>
<polygon fill="#000000" stroke="#000000" points="384.6979,-633.8935 388.1978,-643.8935 391.6979,-633.8935 384.6979,-633.8935"/>
</g>
<!-- GO:0016817 -->
<g id="node12" class="node">
<title>GO:0016817</title>
<polygon fill="#ffffff" stroke="#000000" points="468.1537,-847.4014 308.2419,-847.4014 308.2419,-788.5986 468.1537,-788.5986 468.1537,-847.4014"/>
<text text-anchor="middle" x="388.1978" y="-830.6" font-family="Times,serif" font-size="14.00" fill="#000000">GO:0016817</text>
<text text-anchor="middle" x="388.1978" y="-813.8" font-family="Times,serif" font-size="14.00" fill="#000000">hydrolase activity,</text>
<text text-anchor="middle" x="388.1978" y="-797" font-family="Times,serif" font-size="14.00" fill="#000000">acting on acid anhydrides</text>
</g>
<!-- GO:0016818&#45;&gt;GO:0016817 -->
<g id="edge11" class="edge">
<title>GO:0016818&#45;&gt;GO:0016817</title>
<path fill="none" stroke="#000000" d="M388.1978,-752.9502C388.1978,-761.6138 388.1978,-770.4255 388.1978,-778.6504"/>
<polygon fill="#000000" stroke="#000000" points="384.6979,-778.6995 388.1978,-788.6995 391.6979,-778.6995 384.6979,-778.6995"/>
</g>
<!-- GO:0016817&#45;&gt;GO:0016787 -->
<g id="edge12" class="edge">
<title>GO:0016817&#45;&gt;GO:0016787</title>
<path fill="none" stroke="#000000" d="M395.0381,-847.3513C397.5808,-858.2614 400.4711,-870.6637 403.0413,-881.692"/>
<polygon fill="#000000" stroke="#000000" points="399.7071,-882.8064 405.3855,-891.751 406.5244,-881.2175 399.7071,-882.8064"/>
</g>
<!-- GO:0042162 -->
<g id="node13" class="node">
<title>GO:0042162</title>
<polygon fill="#ffffff" stroke="#000000" points="862.6656,-505.0019 713.73,-505.0019 713.73,-463.7981 862.6656,-463.7981 862.6656,-505.0019"/>
<text text-anchor="middle" x="788.1978" y="-488.6" font-family="Times,serif" font-size="14.00" fill="#000000">GO:0042162</text>
<text text-anchor="middle" x="788.1978" y="-471.8" font-family="Times,serif" font-size="14.00" fill="#000000">telomeric DNA binding</text>
</g>
<!-- GO:0043565 -->
<g id="node14" class="node">
<title>GO:0043565</title>
<polygon fill="#ffffff" stroke="#000000" points="863.0117,-608.2014 713.3839,-608.2014 713.3839,-549.3986 863.0117,-549.3986 863.0117,-608.2014"/>
<text text-anchor="middle" x="788.1978" y="-591.4" font-family="Times,serif" font-size="14.00" fill="#000000">GO:0043565</text>
<text text-anchor="middle" x="788.1978" y="-574.6" font-family="Times,serif" font-size="14.00" fill="#000000">sequence&#45;specific DNA</text>
<text text-anchor="middle" x="788.1978" y="-557.8" font-family="Times,serif" font-size="14.00" fill="#000000">binding</text>
</g>
<!-- GO:0042162&#45;&gt;GO:0043565 -->
<g id="edge13" class="edge">
<title>GO:0042162&#45;&gt;GO:0043565</title>
<path fill="none" stroke="#000000" d="M788.1978,-505.3504C788.1978,-515.3492 788.1978,-527.6525 788.1978,-539.3106"/>
<polygon fill="#000000" stroke="#000000" points="784.6979,-539.3155 788.1978,-549.3155 791.6979,-539.3156 784.6979,-539.3155"/>
</g>
<!-- GO:0003677 -->
<g id="node15" class="node">
<title>GO:0003677</title>
<polygon fill="#ffffff" stroke="#000000" points="834.2997,-719.0019 742.0959,-719.0019 742.0959,-677.7981 834.2997,-677.7981 834.2997,-719.0019"/>
<text text-anchor="middle" x="788.1978" y="-702.6" font-family="Times,serif" font-size="14.00" fill="#000000">GO:0003677</text>
<text text-anchor="middle" x="788.1978" y="-685.8" font-family="Times,serif" font-size="14.00" fill="#000000">DNA binding</text>
</g>
<!-- GO:0043565&#45;&gt;GO:0003677 -->
<g id="edge14" class="edge">
<title>GO:0043565&#45;&gt;GO:0003677</title>
<path fill="none" stroke="#000000" d="M788.1978,-608.0575C788.1978,-626.094 788.1978,-649.1977 788.1978,-667.5259"/>
<polygon fill="#000000" stroke="#000000" points="784.6979,-667.691 788.1978,-677.691 791.6979,-667.6911 784.6979,-667.691"/>
</g>
<!-- GO:0003676 -->
<g id="node16" class="node">
<title>GO:0003676</title>
<polygon fill="#ffffff" stroke="#000000" points="852.7247,-838.6019 723.6709,-838.6019 723.6709,-797.3981 852.7247,-797.3981 852.7247,-838.6019"/>
<text text-anchor="middle" x="788.1978" y="-822.2" font-family="Times,serif" font-size="14.00" fill="#000000">GO:0003676</text>
<text text-anchor="middle" x="788.1978" y="-805.4" font-family="Times,serif" font-size="14.00" fill="#000000">nucleic acid binding</text>
</g>
<!-- GO:0003677&#45;&gt;GO:0003676 -->
<g id="edge15" class="edge">
<title>GO:0003677&#45;&gt;GO:0003676</title>
<path fill="none" stroke="#000000" d="M788.1978,-719.2327C788.1978,-737.8973 788.1978,-765.5322 788.1978,-786.8278"/>
<polygon fill="#000000" stroke="#000000" points="784.6979,-787.0047 788.1978,-797.0047 791.6979,-787.0047 784.6979,-787.0047"/>
</g>
<!-- GO:0097159 -->
<g id="node17" class="node">
<title>GO:0097159</title>
<polygon fill="#ffffff" stroke="#000000" points="938.7092,-941.8014 781.6864,-941.8014 781.6864,-882.9986 938.7092,-882.9986 938.7092,-941.8014"/>
<text text-anchor="middle" x="860.1978" y="-925" font-family="Times,serif" font-size="14.00" fill="#000000">GO:0097159</text>
<text text-anchor="middle" x="860.1978" y="-908.2" font-family="Times,serif" font-size="14.00" fill="#000000">organic cyclic compound</text>
<text text-anchor="middle" x="860.1978" y="-891.4" font-family="Times,serif" font-size="14.00" fill="#000000">binding</text>
</g>
<!-- GO:0003676&#45;&gt;GO:0097159 -->
<g id="edge16" class="edge">
<title>GO:0003676&#45;&gt;GO:0097159</title>
<path fill="none" stroke="#000000" d="M804.1769,-838.9504C812.1883,-849.4542 822.1393,-862.5011 831.422,-874.6717"/>
<polygon fill="#000000" stroke="#000000" points="828.8622,-877.0869 837.7096,-882.9155 834.428,-872.8417 828.8622,-877.0869"/>
</g>
<!-- GO:1901363 -->
<g id="node18" class="node">
<title>GO:1901363</title>
<polygon fill="#ffffff" stroke="#000000" points="763.7084,-941.8014 616.6872,-941.8014 616.6872,-882.9986 763.7084,-882.9986 763.7084,-941.8014"/>
<text text-anchor="middle" x="690.1978" y="-925" font-family="Times,serif" font-size="14.00" fill="#000000">GO:1901363</text>
<text text-anchor="middle" x="690.1978" y="-908.2" font-family="Times,serif" font-size="14.00" fill="#000000">heterocyclic compound</text>
<text text-anchor="middle" x="690.1978" y="-891.4" font-family="Times,serif" font-size="14.00" fill="#000000">binding</text>
</g>
<!-- GO:0003676&#45;&gt;GO:1901363 -->
<g id="edge17" class="edge">
<title>GO:0003676&#45;&gt;GO:1901363</title>
<path fill="none" stroke="#000000" d="M766.4484,-838.9504C755.2295,-849.7572 741.216,-863.2559 728.2738,-875.7227"/>
<polygon fill="#000000" stroke="#000000" points="725.5807,-873.4572 720.8067,-882.9155 730.437,-878.4987 725.5807,-873.4572"/>
</g>
<!-- GO:0005488 -->
<g id="node19" class="node">
<title>GO:0005488</title>
<polygon fill="#ffffff" stroke="#000000" points="734.8017,-1019.0019 645.5939,-1019.0019 645.5939,-977.7981 734.8017,-977.7981 734.8017,-1019.0019"/>
<text text-anchor="middle" x="690.1978" y="-1002.6" font-family="Times,serif" font-size="14.00" fill="#000000">GO:0005488</text>
<text text-anchor="middle" x="690.1978" y="-985.8" font-family="Times,serif" font-size="14.00" fill="#000000">binding</text>
</g>
<!-- GO:0097159&#45;&gt;GO:0005488 -->
<g id="edge18" class="edge">
<title>GO:0097159&#45;&gt;GO:0005488</title>
<path fill="none" stroke="#000000" d="M802.1689,-941.7558C781.9911,-951.9634 759.5511,-963.3154 740.0899,-973.1605"/>
<polygon fill="#000000" stroke="#000000" points="738.4318,-970.0768 731.0886,-977.7141 741.5917,-976.3231 738.4318,-970.0768"/>
</g>
<!-- GO:1901363&#45;&gt;GO:0005488 -->
<g id="edge19" class="edge">
<title>GO:1901363&#45;&gt;GO:0005488</title>
<path fill="none" stroke="#000000" d="M690.1978,-941.9963C690.1978,-950.2638 690.1978,-959.2657 690.1978,-967.6008"/>
<polygon fill="#000000" stroke="#000000" points="686.6979,-967.6965 690.1978,-977.6966 693.6979,-967.6966 686.6979,-967.6965"/>
</g>
<!-- GO:0005488&#45;&gt;GO:0003674 -->
<g id="edge20" class="edge">
<title>GO:0005488&#45;&gt;GO:0003674</title>
<path fill="none" stroke="#000000" d="M654.0203,-1019.1954C637.5259,-1028.6766 617.8254,-1040.0008 600.3698,-1050.0345"/>
<polygon fill="#000000" stroke="#000000" points="598.4007,-1047.1292 591.4752,-1055.1472 601.8892,-1053.1981 598.4007,-1047.1292"/>
</g>
<!-- GO:0004004 -->
<g id="node20" class="node">
<title>GO:0004004</title>
<polygon fill="#ffffff" stroke="#000000" points="653.8848,-153.0014 516.5108,-153.0014 516.5108,-94.1986 653.8848,-94.1986 653.8848,-153.0014"/>
<text text-anchor="middle" x="585.1978" y="-136.2" font-family="Times,serif" font-size="14.00" fill="#000000">GO:0004004</text>
<text text-anchor="middle" x="585.1978" y="-119.4" font-family="Times,serif" font-size="14.00" fill="#000000">ATP&#45;dependent RNA</text>
<text text-anchor="middle" x="585.1978" y="-102.6" font-family="Times,serif" font-size="14.00" fill="#000000">helicase activity</text>
</g>
<!-- GO:0004004&#45;&gt;GO:0008026 -->
<g id="edge23" class="edge">
<title>GO:0004004&#45;&gt;GO:0008026</title>
<path fill="none" stroke="#000000" d="M530.4751,-152.9513C512.1814,-162.7633 491.6378,-173.7822 472.731,-183.9231"/>
<polygon fill="#000000" stroke="#000000" points="471.0448,-180.8558 463.8867,-188.6669 474.3535,-187.0245 471.0448,-180.8558"/>
</g>
<!-- GO:0008186 -->
<g id="node21" class="node">
<title>GO:0008186</title>
<polygon fill="#ffffff" stroke="#000000" points="658.7588,-247.4014 503.6368,-247.4014 503.6368,-188.5986 658.7588,-188.5986 658.7588,-247.4014"/>
<text text-anchor="middle" x="581.1978" y="-230.6" font-family="Times,serif" font-size="14.00" fill="#000000">GO:0008186</text>
<text text-anchor="middle" x="581.1978" y="-213.8" font-family="Times,serif" font-size="14.00" fill="#000000">RNA&#45;dependent ATPase</text>
<text text-anchor="middle" x="581.1978" y="-197" font-family="Times,serif" font-size="14.00" fill="#000000">activity</text>
</g>
<!-- GO:0004004&#45;&gt;GO:0008186 -->
<g id="edge21" class="edge">
<title>GO:0004004&#45;&gt;GO:0008186</title>
<path fill="none" stroke="#000000" d="M583.9541,-152.9513C583.6117,-161.0318 583.2346,-169.9308 582.8722,-178.4838"/>
<polygon fill="#000000" stroke="#000000" points="579.3673,-178.5276 582.4407,-188.6669 586.361,-178.824 579.3673,-178.5276"/>
</g>
<!-- GO:0003724 -->
<g id="node22" class="node">
<title>GO:0003724</title>
<polygon fill="#ffffff" stroke="#000000" points="816.8239,-238.6019 677.5717,-238.6019 677.5717,-197.3981 816.8239,-197.3981 816.8239,-238.6019"/>
<text text-anchor="middle" x="747.1978" y="-222.2" font-family="Times,serif" font-size="14.00" fill="#000000">GO:0003724</text>
<text text-anchor="middle" x="747.1978" y="-205.4" font-family="Times,serif" font-size="14.00" fill="#000000">RNA helicase activity</text>
</g>
<!-- GO:0004004&#45;&gt;GO:0003724 -->
<g id="edge22" class="edge">
<title>GO:0004004&#45;&gt;GO:0003724</title>
<path fill="none" stroke="#000000" d="M635.5676,-152.9513C657.1858,-165.5486 682.2178,-180.1351 703.0924,-192.2991"/>
<polygon fill="#000000" stroke="#000000" points="701.3597,-195.3402 711.762,-197.351 704.884,-189.2922 701.3597,-195.3402"/>
</g>
<!-- GO:0008186&#45;&gt;GO:0042623 -->
<g id="edge24" class="edge">
<title>GO:0008186&#45;&gt;GO:0042623</title>
<path fill="none" stroke="#000000" d="M503.3894,-244.4427C500.6253,-245.3744 497.8881,-246.2958 495.1978,-247.2 471.793,-255.0661 416.8554,-273.3352 371.0808,-288.5394"/>
<polygon fill="#000000" stroke="#000000" points="369.8538,-285.2589 361.4668,-291.7325 372.0602,-291.9021 369.8538,-285.2589"/>
</g>
<!-- GO:0003724&#45;&gt;GO:0004386 -->
<g id="edge25" class="edge">
<title>GO:0003724&#45;&gt;GO:0004386</title>
<path fill="none" stroke="#000000" d="M714.3269,-238.656C675.0929,-263.2789 607.4679,-305.6195 549.1978,-341.6 532.7633,-351.7479 514.6459,-362.8355 498.8018,-372.4993"/>
<polygon fill="#000000" stroke="#000000" points="496.9758,-369.5134 490.2585,-377.7066 500.619,-375.4906 496.9758,-369.5134"/>
</g>
<!-- GO:0032575 -->
<g id="node23" class="node">
<title>GO:0032575</title>
<polygon fill="#ffffff" stroke="#000000" points="748.8663,-58.6014 579.5293,-58.6014 579.5293,.2014 748.8663,.2014 748.8663,-58.6014"/>
<text text-anchor="middle" x="664.1978" y="-41.8" font-family="Times,serif" font-size="14.00" fill="#000000">GO:0032575</text>
<text text-anchor="middle" x="664.1978" y="-25" font-family="Times,serif" font-size="14.00" fill="#000000">ATP&#45;dependent 5&#39;&#45;3&#39; RNA</text>
<text text-anchor="middle" x="664.1978" y="-8.2" font-family="Times,serif" font-size="14.00" fill="#000000">helicase activity</text>
</g>
<!-- GO:0032575&#45;&gt;GO:0004004 -->
<g id="edge27" class="edge">
<title>GO:0032575&#45;&gt;GO:0004004</title>
<path fill="none" stroke="#000000" d="M639.6348,-58.5513C632.278,-67.3422 624.1105,-77.1018 616.3871,-86.3308"/>
<polygon fill="#000000" stroke="#000000" points="613.4794,-84.3517 609.7457,-94.2669 618.8476,-88.8442 613.4794,-84.3517"/>
</g>
<!-- GO:0032574 -->
<g id="node24" class="node">
<title>GO:0032574</title>
<polygon fill="#ffffff" stroke="#000000" points="805.8142,-153.0014 680.5814,-153.0014 680.5814,-94.1986 805.8142,-94.1986 805.8142,-153.0014"/>
<text text-anchor="middle" x="743.1978" y="-136.2" font-family="Times,serif" font-size="14.00" fill="#000000">GO:0032574</text>
<text text-anchor="middle" x="743.1978" y="-119.4" font-family="Times,serif" font-size="14.00" fill="#000000">5&#39;&#45;3&#39; RNA helicase</text>
<text text-anchor="middle" x="743.1978" y="-102.6" font-family="Times,serif" font-size="14.00" fill="#000000">activity</text>
</g>
<!-- GO:0032575&#45;&gt;GO:0032574 -->
<g id="edge26" class="edge">
<title>GO:0032575&#45;&gt;GO:0032574</title>
<path fill="none" stroke="#000000" d="M688.7608,-58.5513C696.1176,-67.3422 704.2851,-77.1018 712.0085,-86.3308"/>
<polygon fill="#000000" stroke="#000000" points="709.548,-88.8442 718.6499,-94.2669 714.9162,-84.3517 709.548,-88.8442"/>
</g>
<!-- GO:0032574&#45;&gt;GO:0003724 -->
<g id="edge28" class="edge">
<title>GO:0032574&#45;&gt;GO:0003724</title>
<path fill="none" stroke="#000000" d="M744.4415,-152.9513C744.9038,-163.8614 745.4293,-176.2637 745.8966,-187.292"/>
<polygon fill="#000000" stroke="#000000" points="742.4025,-187.5082 746.3228,-197.351 749.3963,-187.2117 742.4025,-187.5082"/>
</g>
<!-- GO:0043141 -->
<g id="node25" class="node">
<title>GO:0043141</title>
<polygon fill="#ffffff" stroke="#000000" points="236.1362,-58.6014 66.2594,-58.6014 66.2594,.2014 236.1362,.2014 236.1362,-58.6014"/>
<text text-anchor="middle" x="151.1978" y="-41.8" font-family="Times,serif" font-size="14.00" fill="#000000">GO:0043141</text>
<text text-anchor="middle" x="151.1978" y="-25" font-family="Times,serif" font-size="14.00" fill="#000000">ATP&#45;dependent 5&#39;&#45;3&#39; DNA</text>
<text text-anchor="middle" x="151.1978" y="-8.2" font-family="Times,serif" font-size="14.00" fill="#000000">helicase activity</text>
</g>
<!-- GO:0004003 -->
<g id="node26" class="node">
<title>GO:0004003</title>
<polygon fill="#ffffff" stroke="#000000" points="297.6552,-153.0014 158.7404,-153.0014 158.7404,-94.1986 297.6552,-94.1986 297.6552,-153.0014"/>
<text text-anchor="middle" x="228.1978" y="-136.2" font-family="Times,serif" font-size="14.00" fill="#000000">GO:0004003</text>
<text text-anchor="middle" x="228.1978" y="-119.4" font-family="Times,serif" font-size="14.00" fill="#000000">ATP&#45;dependent DNA</text>
<text text-anchor="middle" x="228.1978" y="-102.6" font-family="Times,serif" font-size="14.00" fill="#000000">helicase activity</text>
</g>
<!-- GO:0043141&#45;&gt;GO:0004003 -->
<g id="edge29" class="edge">
<title>GO:0043141&#45;&gt;GO:0004003</title>
<path fill="none" stroke="#000000" d="M175.139,-58.5513C182.3095,-67.3422 190.2702,-77.1018 197.7981,-86.3308"/>
<polygon fill="#000000" stroke="#000000" points="195.2384,-88.73 204.2714,-94.2669 200.6628,-84.3055 195.2384,-88.73"/>
</g>
<!-- GO:0043139 -->
<g id="node27" class="node">
<title>GO:0043139</title>
<polygon fill="#ffffff" stroke="#000000" points="137.5842,-153.0014 10.8114,-153.0014 10.8114,-94.1986 137.5842,-94.1986 137.5842,-153.0014"/>
<text text-anchor="middle" x="74.1978" y="-136.2" font-family="Times,serif" font-size="14.00" fill="#000000">GO:0043139</text>
<text text-anchor="middle" x="74.1978" y="-119.4" font-family="Times,serif" font-size="14.00" fill="#000000">5&#39;&#45;3&#39; DNA helicase</text>
<text text-anchor="middle" x="74.1978" y="-102.6" font-family="Times,serif" font-size="14.00" fill="#000000">activity</text>
</g>
<!-- GO:0043141&#45;&gt;GO:0043139 -->
<g id="edge30" class="edge">
<title>GO:0043141&#45;&gt;GO:0043139</title>
<path fill="none" stroke="#000000" d="M127.2566,-58.5513C120.0861,-67.3422 112.1254,-77.1018 104.5975,-86.3308"/>
<polygon fill="#000000" stroke="#000000" points="101.7328,-84.3055 98.1242,-94.2669 107.1572,-88.73 101.7328,-84.3055"/>
</g>
<!-- GO:0004003&#45;&gt;GO:0008026 -->
<g id="edge33" class="edge">
<title>GO:0004003&#45;&gt;GO:0008026</title>
<path fill="none" stroke="#000000" d="M284.4752,-152.9513C303.2885,-162.7633 324.4158,-173.7822 343.8597,-183.9231"/>
<polygon fill="#000000" stroke="#000000" points="342.4702,-187.1458 352.9552,-188.6669 345.7072,-180.9392 342.4702,-187.1458"/>
</g>
<!-- GO:0003678 -->
<g id="node28" class="node">
<title>GO:0003678</title>
<polygon fill="#ffffff" stroke="#000000" points="140.594,-238.6019 -.1984,-238.6019 -.1984,-197.3981 140.594,-197.3981 140.594,-238.6019"/>
<text text-anchor="middle" x="70.1978" y="-222.2" font-family="Times,serif" font-size="14.00" fill="#000000">GO:0003678</text>
<text text-anchor="middle" x="70.1978" y="-205.4" font-family="Times,serif" font-size="14.00" fill="#000000">DNA helicase activity</text>
</g>
<!-- GO:0004003&#45;&gt;GO:0003678 -->
<g id="edge31" class="edge">
<title>GO:0004003&#45;&gt;GO:0003678</title>
<path fill="none" stroke="#000000" d="M179.0717,-152.9513C158.0814,-165.4923 133.7913,-180.0049 113.4871,-192.136"/>
<polygon fill="#000000" stroke="#000000" points="111.548,-189.2174 104.7587,-197.351 115.1383,-195.2265 111.548,-189.2174"/>
</g>
<!-- GO:0008094 -->
<g id="node29" class="node">
<title>GO:0008094</title>
<polygon fill="#ffffff" stroke="#000000" points="314.5285,-247.4014 157.8671,-247.4014 157.8671,-188.5986 314.5285,-188.5986 314.5285,-247.4014"/>
<text text-anchor="middle" x="236.1978" y="-230.6" font-family="Times,serif" font-size="14.00" fill="#000000">GO:0008094</text>
<text text-anchor="middle" x="236.1978" y="-213.8" font-family="Times,serif" font-size="14.00" fill="#000000">DNA&#45;dependent ATPase</text>
<text text-anchor="middle" x="236.1978" y="-197" font-family="Times,serif" font-size="14.00" fill="#000000">activity</text>
</g>
<!-- GO:0004003&#45;&gt;GO:0008094 -->
<g id="edge32" class="edge">
<title>GO:0004003&#45;&gt;GO:0008094</title>
<path fill="none" stroke="#000000" d="M230.6852,-152.9513C231.37,-161.0318 232.1241,-169.9308 232.849,-178.4838"/>
<polygon fill="#000000" stroke="#000000" points="229.3799,-178.9982 233.7119,-188.6669 236.3549,-178.407 229.3799,-178.9982"/>
</g>
<!-- GO:0043139&#45;&gt;GO:0003678 -->
<g id="edge34" class="edge">
<title>GO:0043139&#45;&gt;GO:0003678</title>
<path fill="none" stroke="#000000" d="M72.9541,-152.9513C72.4918,-163.8614 71.9663,-176.2637 71.499,-187.292"/>
<polygon fill="#000000" stroke="#000000" points="67.9993,-187.2117 71.0728,-197.351 74.9931,-187.5082 67.9993,-187.2117"/>
</g>
<!-- GO:0003678&#45;&gt;GO:0004386 -->
<g id="edge35" class="edge">
<title>GO:0003678&#45;&gt;GO:0004386</title>
<path fill="none" stroke="#000000" d="M87.4651,-238.6943C111.9768,-266.6301 159.6462,-315.8641 211.1978,-341.6 281.075,-376.4845 307.3718,-358.8873 383.1978,-377.6 386.3963,-378.3894 389.6664,-379.2229 392.9634,-380.0845"/>
<polygon fill="#000000" stroke="#000000" points="392.3264,-383.537 402.891,-382.7372 394.1335,-376.7743 392.3264,-383.537"/>
</g>
<!-- GO:0008094&#45;&gt;GO:0042623 -->
<g id="edge36" class="edge">
<title>GO:0008094&#45;&gt;GO:0042623</title>
<path fill="none" stroke="#000000" d="M255.7861,-247.3513C263.4425,-258.8238 272.2001,-271.9462 279.8347,-283.3861"/>
<polygon fill="#000000" stroke="#000000" points="276.9549,-285.3761 285.4172,-291.751 282.7773,-281.4903 276.9549,-285.3761"/>
</g>
<!-- GO:0043022 -->
<g id="node30" class="node">
<title>GO:0043022</title>
<polygon fill="#ffffff" stroke="#000000" points="1093.5806,-719.0019 978.815,-719.0019 978.815,-677.7981 1093.5806,-677.7981 1093.5806,-719.0019"/>
<text text-anchor="middle" x="1036.1978" y="-702.6" font-family="Times,serif" font-size="14.00" fill="#000000">GO:0043022</text>
<text text-anchor="middle" x="1036.1978" y="-685.8" font-family="Times,serif" font-size="14.00" fill="#000000">ribosome binding</text>
</g>
<!-- GO:0043021 -->
<g id="node31" class="node">
<title>GO:0043021</title>
<polygon fill="#ffffff" stroke="#000000" points="1119.9358,-847.4014 952.4598,-847.4014 952.4598,-788.5986 1119.9358,-788.5986 1119.9358,-847.4014"/>
<text text-anchor="middle" x="1036.1978" y="-830.6" font-family="Times,serif" font-size="14.00" fill="#000000">GO:0043021</text>
<text text-anchor="middle" x="1036.1978" y="-813.8" font-family="Times,serif" font-size="14.00" fill="#000000">ribonucleoprotein complex</text>
<text text-anchor="middle" x="1036.1978" y="-797" font-family="Times,serif" font-size="14.00" fill="#000000">binding</text>
</g>
<!-- GO:0043022&#45;&gt;GO:0043021 -->
<g id="edge37" class="edge">
<title>GO:0043022&#45;&gt;GO:0043021</title>
<path fill="none" stroke="#000000" d="M1036.1978,-719.2327C1036.1978,-735.4576 1036.1978,-758.4611 1036.1978,-778.1863"/>
<polygon fill="#000000" stroke="#000000" points="1032.6979,-778.4455 1036.1978,-788.4455 1039.6979,-778.4456 1032.6979,-778.4455"/>
</g>
<!-- GO:0044877 -->
<g id="node32" class="node">
<title>GO:0044877</title>
<polygon fill="#ffffff" stroke="#000000" points="1115.3651,-941.8014 957.0305,-941.8014 957.0305,-882.9986 1115.3651,-882.9986 1115.3651,-941.8014"/>
<text text-anchor="middle" x="1036.1978" y="-925" font-family="Times,serif" font-size="14.00" fill="#000000">GO:0044877</text>
<text text-anchor="middle" x="1036.1978" y="-908.2" font-family="Times,serif" font-size="14.00" fill="#000000">macromolecular complex</text>
<text text-anchor="middle" x="1036.1978" y="-891.4" font-family="Times,serif" font-size="14.00" fill="#000000">binding</text>
</g>
<!-- GO:0043021&#45;&gt;GO:0044877 -->
<g id="edge38" class="edge">
<title>GO:0043021&#45;&gt;GO:0044877</title>
<path fill="none" stroke="#000000" d="M1036.1978,-847.3513C1036.1978,-855.4318 1036.1978,-864.3308 1036.1978,-872.8838"/>
<polygon fill="#000000" stroke="#000000" points="1032.6979,-873.0668 1036.1978,-883.0669 1039.6979,-873.0669 1032.6979,-873.0668"/>
</g>
<!-- GO:0044877&#45;&gt;GO:0005488 -->
<g id="edge39" class="edge">
<title>GO:0044877&#45;&gt;GO:0005488</title>
<path fill="none" stroke="#000000" d="M956.6855,-939.1938C953.8272,-940.0262 950.9914,-940.8312 948.1978,-941.6 878.7578,-960.7091 797.4313,-977.7468 744.9284,-988.0643"/>
<polygon fill="#000000" stroke="#000000" points="743.9683,-984.6855 734.8242,-990.0368 745.3095,-991.5559 743.9683,-984.6855"/>
</g>
<!-- GO:0043621 -->
<g id="node33" class="node">
<title>GO:0043621</title>
<polygon fill="#ffffff" stroke="#000000" points="632.4302,-838.6019 485.9654,-838.6019 485.9654,-797.3981 632.4302,-797.3981 632.4302,-838.6019"/>
<text text-anchor="middle" x="559.1978" y="-822.2" font-family="Times,serif" font-size="14.00" fill="#000000">GO:0043621</text>
<text text-anchor="middle" x="559.1978" y="-805.4" font-family="Times,serif" font-size="14.00" fill="#000000">protein self&#45;association</text>
</g>
<!-- GO:0005515 -->
<g id="node34" class="node">
<title>GO:0005515</title>
<polygon fill="#ffffff" stroke="#000000" points="599.1354,-933.0019 497.2602,-933.0019 497.2602,-891.7981 599.1354,-891.7981 599.1354,-933.0019"/>
<text text-anchor="middle" x="548.1978" y="-916.6" font-family="Times,serif" font-size="14.00" fill="#000000">GO:0005515</text>
<text text-anchor="middle" x="548.1978" y="-899.8" font-family="Times,serif" font-size="14.00" fill="#000000">protein binding</text>
</g>
<!-- GO:0043621&#45;&gt;GO:0005515 -->
<g id="edge40" class="edge">
<title>GO:0043621&#45;&gt;GO:0005515</title>
<path fill="none" stroke="#000000" d="M556.7565,-838.9504C555.3039,-851.4165 553.4339,-867.4645 551.8126,-881.3786"/>
<polygon fill="#000000" stroke="#000000" points="548.3133,-881.1702 550.6322,-891.5081 555.2662,-881.9805 548.3133,-881.1702"/>
</g>
<!-- GO:0005515&#45;&gt;GO:0005488 -->
<g id="edge41" class="edge">
<title>GO:0005515&#45;&gt;GO:0005488</title>
<path fill="none" stroke="#000000" d="M582.572,-933.2182C602.1072,-945.0494 626.7365,-959.9657 647.5029,-972.5425"/>
<polygon fill="#000000" stroke="#000000" points="645.7734,-975.5869 656.1401,-977.7735 649.3996,-969.5994 645.7734,-975.5869"/>
</g>
</g>
</svg>
