<?xml version="1.0" encoding="UTF-8" standalone="no"?>
<!DOCTYPE svg PUBLIC "-//W3C//DTD SVG 1.1//EN"
 "http://www.w3.org/Graphics/SVG/1.1/DTD/svg11.dtd">
<!-- Generated by graphviz version 2.40.1 (20161225.0304)
 -->
<!-- Title: G Pages: 1 -->
<svg width="258pt" height="599pt"
 viewBox="0.00 0.00 257.54 599.20" xmlns="http://www.w3.org/2000/svg" xmlns:xlink="http://www.w3.org/1999/xlink">
<g id="graph0" class="graph" transform="scale(1 1) rotate(0) translate(4 595.2)">
<title>G</title>
<polygon fill="#ffffff" stroke="transparent" points="-4,4 -4,-595.2 253.5358,-595.2 253.5358,4 -4,4"/>
<!-- GO:0043169 -->
<g id="node1" class="node">
<title>GO:0043169</title>
<polygon fill="#ffffff" stroke="#000000" points="96.7387,-349.8019 -.2471,-349.8019 -.2471,-308.5981 96.7387,-308.5981 96.7387,-349.8019"/>
<text text-anchor="middle" x="48.2458" y="-333.4" font-family="Times,serif" font-size="14.00" fill="#000000">GO:0043169</text>
<text text-anchor="middle" x="48.2458" y="-316.6" font-family="Times,serif" font-size="14.00" fill="#000000">cation binding</text>
</g>
<!-- GO:0043167 -->
<g id="node2" class="node">
<title>GO:0043167</title>
<polygon fill="#ffffff" stroke="#000000" points="98.8497,-435.8019 9.6419,-435.8019 9.6419,-394.5981 98.8497,-394.5981 98.8497,-435.8019"/>
<text text-anchor="middle" x="54.2458" y="-419.4" font-family="Times,serif" font-size="14.00" fill="#000000">GO:0043167</text>
<text text-anchor="middle" x="54.2458" y="-402.6" font-family="Times,serif" font-size="14.00" fill="#000000">ion binding</text>
</g>
<!-- GO:0043169&#45;&gt;GO:0043167 -->
<g id="edge1" class="edge">
<title>GO:0043169&#45;&gt;GO:0043167</title>
<path fill="none" stroke="#000000" d="M49.6982,-350.0182C50.4205,-360.3705 51.3075,-373.0848 52.1058,-384.5271"/>
<polygon fill="#000000" stroke="#000000" points="48.6192,-384.8414 52.8067,-394.5735 55.6022,-384.3541 48.6192,-384.8414"/>
</g>
<!-- GO:0005488 -->
<g id="node3" class="node">
<title>GO:0005488</title>
<polygon fill="#ffffff" stroke="#000000" points="100.8497,-513.4019 11.6419,-513.4019 11.6419,-472.1981 100.8497,-472.1981 100.8497,-513.4019"/>
<text text-anchor="middle" x="56.2458" y="-497" font-family="Times,serif" font-size="14.00" fill="#000000">GO:0005488</text>
<text text-anchor="middle" x="56.2458" y="-480.2" font-family="Times,serif" font-size="14.00" fill="#000000">binding</text>
</g>
<!-- GO:0043167&#45;&gt;GO:0005488 -->
<g id="edge2" class="edge">
<title>GO:0043167&#45;&gt;GO:0005488</title>
<path fill="none" stroke="#000000" d="M54.7818,-435.9954C54.9858,-443.9109 55.2229,-453.1109 55.4461,-461.7722"/>
<polygon fill="#000000" stroke="#000000" points="51.9518,-462.0408 55.7084,-471.9472 58.9495,-461.8603 51.9518,-462.0408"/>
</g>
<!-- GO:0003674 -->
<g id="node4" class="node">
<title>GO:0003674</title>
<polygon fill="#ffffff" stroke="#000000" points="176.8789,-591.0019 51.6127,-591.0019 51.6127,-549.7981 176.8789,-549.7981 176.8789,-591.0019"/>
<text text-anchor="middle" x="114.2458" y="-574.6" font-family="Times,serif" font-size="14.00" fill="#000000">GO:0003674</text>
<text text-anchor="middle" x="114.2458" y="-557.8" font-family="Times,serif" font-size="14.00" fill="#000000">molecular_function</text>
</g>
<!-- GO:0005488&#45;&gt;GO:0003674 -->
<g id="edge3" class="edge">
<title>GO:0005488&#45;&gt;GO:0003674</title>
<path fill="none" stroke="#000000" d="M71.7887,-513.5954C78.16,-522.1197 85.6449,-532.1339 92.541,-541.3605"/>
<polygon fill="#000000" stroke="#000000" points="89.8697,-543.6327 98.66,-549.5472 95.4766,-539.4419 89.8697,-543.6327"/>
</g>
<!-- GO:0004112 -->
<g id="node5" class="node">
<title>GO:0004112</title>
<polygon fill="#ffffff" stroke="#000000" points="241.3804,-75.3003 123.1112,-75.3003 123.1112,.1003 241.3804,.1003 241.3804,-75.3003"/>
<text text-anchor="middle" x="182.2458" y="-58.6" font-family="Times,serif" font-size="14.00" fill="#000000">GO:0004112</text>
<text text-anchor="middle" x="182.2458" y="-41.8" font-family="Times,serif" font-size="14.00" fill="#000000">cyclic&#45;nucleotide</text>
<text text-anchor="middle" x="182.2458" y="-25" font-family="Times,serif" font-size="14.00" fill="#000000">phosphodiesterase</text>
<text text-anchor="middle" x="182.2458" y="-8.2" font-family="Times,serif" font-size="14.00" fill="#000000">activity</text>
</g>
<!-- GO:0008081 -->
<g id="node6" class="node">
<title>GO:0008081</title>
<polygon fill="#ffffff" stroke="#000000" points="241.7718,-169.8014 122.7198,-169.8014 122.7198,-110.9986 241.7718,-110.9986 241.7718,-169.8014"/>
<text text-anchor="middle" x="182.2458" y="-153" font-family="Times,serif" font-size="14.00" fill="#000000">GO:0008081</text>
<text text-anchor="middle" x="182.2458" y="-136.2" font-family="Times,serif" font-size="14.00" fill="#000000">phosphoric diester</text>
<text text-anchor="middle" x="182.2458" y="-119.4" font-family="Times,serif" font-size="14.00" fill="#000000">hydrolase activity</text>
</g>
<!-- GO:0004112&#45;&gt;GO:0008081 -->
<g id="edge4" class="edge">
<title>GO:0004112&#45;&gt;GO:0008081</title>
<path fill="none" stroke="#000000" d="M182.2458,-75.2952C182.2458,-83.6874 182.2458,-92.6054 182.2458,-101.0618"/>
<polygon fill="#000000" stroke="#000000" points="178.7459,-101.0813 182.2458,-111.0814 185.7459,-101.0814 178.7459,-101.0813"/>
</g>
<!-- GO:0042578 -->
<g id="node7" class="node">
<title>GO:0042578</title>
<polygon fill="#ffffff" stroke="#000000" points="240.1624,-264.2014 124.3292,-264.2014 124.3292,-205.3986 240.1624,-205.3986 240.1624,-264.2014"/>
<text text-anchor="middle" x="182.2458" y="-247.4" font-family="Times,serif" font-size="14.00" fill="#000000">GO:0042578</text>
<text text-anchor="middle" x="182.2458" y="-230.6" font-family="Times,serif" font-size="14.00" fill="#000000">phosphoric ester</text>
<text text-anchor="middle" x="182.2458" y="-213.8" font-family="Times,serif" font-size="14.00" fill="#000000">hydrolase activity</text>
</g>
<!-- GO:0008081&#45;&gt;GO:0042578 -->
<g id="edge5" class="edge">
<title>GO:0008081&#45;&gt;GO:0042578</title>
<path fill="none" stroke="#000000" d="M182.2458,-169.7513C182.2458,-177.8318 182.2458,-186.7308 182.2458,-195.2838"/>
<polygon fill="#000000" stroke="#000000" points="178.7459,-195.4668 182.2458,-205.4669 185.7459,-195.4669 178.7459,-195.4668"/>
</g>
<!-- GO:0016788 -->
<g id="node8" class="node">
<title>GO:0016788</title>
<polygon fill="#ffffff" stroke="#000000" points="249.3265,-358.6014 115.1651,-358.6014 115.1651,-299.7986 249.3265,-299.7986 249.3265,-358.6014"/>
<text text-anchor="middle" x="182.2458" y="-341.8" font-family="Times,serif" font-size="14.00" fill="#000000">GO:0016788</text>
<text text-anchor="middle" x="182.2458" y="-325" font-family="Times,serif" font-size="14.00" fill="#000000">hydrolase activity,</text>
<text text-anchor="middle" x="182.2458" y="-308.2" font-family="Times,serif" font-size="14.00" fill="#000000">acting on ester bonds</text>
</g>
<!-- GO:0042578&#45;&gt;GO:0016788 -->
<g id="edge6" class="edge">
<title>GO:0042578&#45;&gt;GO:0016788</title>
<path fill="none" stroke="#000000" d="M182.2458,-264.1513C182.2458,-272.2318 182.2458,-281.1308 182.2458,-289.6838"/>
<polygon fill="#000000" stroke="#000000" points="178.7459,-289.8668 182.2458,-299.8669 185.7459,-289.8669 178.7459,-289.8668"/>
</g>
<!-- GO:0016787 -->
<g id="node9" class="node">
<title>GO:0016787</title>
<polygon fill="#ffffff" stroke="#000000" points="236.1624,-435.8019 120.3292,-435.8019 120.3292,-394.5981 236.1624,-394.5981 236.1624,-435.8019"/>
<text text-anchor="middle" x="178.2458" y="-419.4" font-family="Times,serif" font-size="14.00" fill="#000000">GO:0016787</text>
<text text-anchor="middle" x="178.2458" y="-402.6" font-family="Times,serif" font-size="14.00" fill="#000000">hydrolase activity</text>
</g>
<!-- GO:0016788&#45;&gt;GO:0016787 -->
<g id="edge7" class="edge">
<title>GO:0016788&#45;&gt;GO:0016787</title>
<path fill="none" stroke="#000000" d="M180.8692,-358.7963C180.4847,-367.0638 180.066,-376.0657 179.6783,-384.4008"/>
<polygon fill="#000000" stroke="#000000" points="176.1772,-384.3447 179.2088,-394.4966 183.1697,-384.67 176.1772,-384.3447"/>
</g>
<!-- GO:0003824 -->
<g id="node10" class="node">
<title>GO:0003824</title>
<polygon fill="#ffffff" stroke="#000000" points="229.6582,-513.4019 120.8334,-513.4019 120.8334,-472.1981 229.6582,-472.1981 229.6582,-513.4019"/>
<text text-anchor="middle" x="175.2458" y="-497" font-family="Times,serif" font-size="14.00" fill="#000000">GO:0003824</text>
<text text-anchor="middle" x="175.2458" y="-480.2" font-family="Times,serif" font-size="14.00" fill="#000000">catalytic activity</text>
</g>
<!-- GO:0016787&#45;&gt;GO:0003824 -->
<g id="edge8" class="edge">
<title>GO:0016787&#45;&gt;GO:0003824</title>
<path fill="none" stroke="#000000" d="M177.4419,-435.9954C177.1358,-443.9109 176.7802,-453.1109 176.4453,-461.7722"/>
<polygon fill="#000000" stroke="#000000" points="172.941,-461.8194 176.052,-471.9472 179.9358,-462.0899 172.941,-461.8194"/>
</g>
<!-- GO:0003824&#45;&gt;GO:0003674 -->
<g id="edge9" class="edge">
<title>GO:0003824&#45;&gt;GO:0003674</title>
<path fill="none" stroke="#000000" d="M158.8989,-513.5954C152.1297,-522.2067 144.1653,-532.3384 136.8514,-541.6427"/>
<polygon fill="#000000" stroke="#000000" points="134.0662,-539.5224 130.6378,-549.5472 139.5695,-543.8484 134.0662,-539.5224"/>
</g>
</g>
</svg>
