<?xml version="1.0" encoding="UTF-8" standalone="no"?>
<!DOCTYPE svg PUBLIC "-//W3C//DTD SVG 1.1//EN"
 "http://www.w3.org/Graphics/SVG/1.1/DTD/svg11.dtd">
<!-- Generated by graphviz version 2.40.1 (20161225.0304)
 -->
<!-- Title: G Pages: 1 -->
<svg width="336pt" height="394pt"
 viewBox="0.00 0.00 335.78 393.60" xmlns="http://www.w3.org/2000/svg" xmlns:xlink="http://www.w3.org/1999/xlink">
<g id="graph0" class="graph" transform="scale(1 1) rotate(0) translate(4 389.6)">
<title>G</title>
<polygon fill="#ffffff" stroke="transparent" points="-4,4 -4,-389.6 331.7827,-389.6 331.7827,4 -4,4"/>
<!-- GO:0005875 -->
<g id="node1" class="node">
<title>GO:0005875</title>
<polygon fill="#ffffff" stroke="#000000" points="234.5149,-58.6014 90.1521,-58.6014 90.1521,.2014 234.5149,.2014 234.5149,-58.6014"/>
<text text-anchor="middle" x="162.3335" y="-41.8" font-family="Times,serif" font-size="14.00" fill="#000000">GO:0005875</text>
<text text-anchor="middle" x="162.3335" y="-25" font-family="Times,serif" font-size="14.00" fill="#000000">microtubule associated</text>
<text text-anchor="middle" x="162.3335" y="-8.2" font-family="Times,serif" font-size="14.00" fill="#000000">complex</text>
</g>
<!-- GO:0043234 -->
<g id="node2" class="node">
<title>GO:0043234</title>
<polygon fill="#ffffff" stroke="#000000" points="153.2009,-135.8019 45.4661,-135.8019 45.4661,-94.5981 153.2009,-94.5981 153.2009,-135.8019"/>
<text text-anchor="middle" x="99.3335" y="-119.4" font-family="Times,serif" font-size="14.00" fill="#000000">GO:0043234</text>
<text text-anchor="middle" x="99.3335" y="-102.6" font-family="Times,serif" font-size="14.00" fill="#000000">protein complex</text>
</g>
<!-- GO:0005875&#45;&gt;GO:0043234 -->
<g id="edge1" class="edge">
<title>GO:0005875&#45;&gt;GO:0043234</title>
<path fill="none" stroke="#000000" d="M140.6525,-58.7963C134.125,-67.7068 126.9726,-77.4705 120.4803,-86.3329"/>
<polygon fill="#000000" stroke="#000000" points="117.5861,-84.3611 114.5,-94.4966 123.2331,-88.4979 117.5861,-84.3611"/>
</g>
<!-- GO:0044430 -->
<g id="node3" class="node">
<title>GO:0044430</title>
<polygon fill="#ffffff" stroke="#000000" points="289.4648,-135.8019 181.2022,-135.8019 181.2022,-94.5981 289.4648,-94.5981 289.4648,-135.8019"/>
<text text-anchor="middle" x="235.3335" y="-119.4" font-family="Times,serif" font-size="14.00" fill="#000000">GO:0044430</text>
<text text-anchor="middle" x="235.3335" y="-102.6" font-family="Times,serif" font-size="14.00" fill="#000000">cytoskeletal part</text>
</g>
<!-- GO:0005875&#45;&gt;GO:0044430 -->
<g id="edge2" class="edge">
<title>GO:0005875&#45;&gt;GO:0044430</title>
<path fill="none" stroke="#000000" d="M187.456,-58.7963C195.0975,-67.7986 203.4782,-77.6719 211.0625,-86.6067"/>
<polygon fill="#000000" stroke="#000000" points="208.6199,-89.1377 217.7596,-94.4966 213.9566,-84.6078 208.6199,-89.1377"/>
</g>
<!-- GO:0032991 -->
<g id="node4" class="node">
<title>GO:0032991</title>
<polygon fill="#ffffff" stroke="#000000" points="158.5008,-221.8019 .1662,-221.8019 .1662,-180.5981 158.5008,-180.5981 158.5008,-221.8019"/>
<text text-anchor="middle" x="79.3335" y="-205.4" font-family="Times,serif" font-size="14.00" fill="#000000">GO:0032991</text>
<text text-anchor="middle" x="79.3335" y="-188.6" font-family="Times,serif" font-size="14.00" fill="#000000">macromolecular complex</text>
</g>
<!-- GO:0043234&#45;&gt;GO:0032991 -->
<g id="edge3" class="edge">
<title>GO:0043234&#45;&gt;GO:0032991</title>
<path fill="none" stroke="#000000" d="M94.4921,-136.0182C92.0846,-146.3705 89.1277,-159.0848 86.4667,-170.5271"/>
<polygon fill="#000000" stroke="#000000" points="82.9865,-170.0406 84.1304,-180.5735 89.8046,-171.6263 82.9865,-170.0406"/>
</g>
<!-- GO:0044446 -->
<g id="node5" class="node">
<title>GO:0044446</title>
<polygon fill="#ffffff" stroke="#000000" points="316.0519,-230.6014 176.6151,-230.6014 176.6151,-171.7986 316.0519,-171.7986 316.0519,-230.6014"/>
<text text-anchor="middle" x="246.3335" y="-213.8" font-family="Times,serif" font-size="14.00" fill="#000000">GO:0044446</text>
<text text-anchor="middle" x="246.3335" y="-197" font-family="Times,serif" font-size="14.00" fill="#000000">intracellular organelle</text>
<text text-anchor="middle" x="246.3335" y="-180.2" font-family="Times,serif" font-size="14.00" fill="#000000">part</text>
</g>
<!-- GO:0044430&#45;&gt;GO:0044446 -->
<g id="edge4" class="edge">
<title>GO:0044430&#45;&gt;GO:0044446</title>
<path fill="none" stroke="#000000" d="M237.9963,-136.0182C238.9834,-143.7358 240.1385,-152.7662 241.2688,-161.6036"/>
<polygon fill="#000000" stroke="#000000" points="237.8324,-162.324 242.5729,-171.7991 244.7758,-161.4359 237.8324,-162.324"/>
</g>
<!-- GO:0005575 -->
<g id="node6" class="node">
<title>GO:0005575</title>
<polygon fill="#ffffff" stroke="#000000" points="177.0202,-385.4019 49.6468,-385.4019 49.6468,-344.1981 177.0202,-344.1981 177.0202,-385.4019"/>
<text text-anchor="middle" x="113.3335" y="-369" font-family="Times,serif" font-size="14.00" fill="#000000">GO:0005575</text>
<text text-anchor="middle" x="113.3335" y="-352.2" font-family="Times,serif" font-size="14.00" fill="#000000">cellular_component</text>
</g>
<!-- GO:0032991&#45;&gt;GO:0005575 -->
<g id="edge5" class="edge">
<title>GO:0032991&#45;&gt;GO:0005575</title>
<path fill="none" stroke="#000000" d="M82.5426,-222.1744C85.9707,-243.7828 91.8017,-278.3911 98.3335,-308 100.2236,-316.5677 102.5371,-325.791 104.7761,-334.2619"/>
<polygon fill="#000000" stroke="#000000" points="101.4534,-335.3831 107.4368,-344.1267 108.2119,-333.5602 101.4534,-335.3831"/>
</g>
<!-- GO:0044424 -->
<g id="node7" class="node">
<title>GO:0044424</title>
<polygon fill="#ffffff" stroke="#000000" points="327.7319,-307.8019 218.9351,-307.8019 218.9351,-266.5981 327.7319,-266.5981 327.7319,-307.8019"/>
<text text-anchor="middle" x="273.3335" y="-291.4" font-family="Times,serif" font-size="14.00" fill="#000000">GO:0044424</text>
<text text-anchor="middle" x="273.3335" y="-274.6" font-family="Times,serif" font-size="14.00" fill="#000000">intracellular part</text>
</g>
<!-- GO:0044446&#45;&gt;GO:0044424 -->
<g id="edge6" class="edge">
<title>GO:0044446&#45;&gt;GO:0044424</title>
<path fill="none" stroke="#000000" d="M255.6254,-230.7963C258.2786,-239.2475 261.1729,-248.4662 263.8381,-256.9555"/>
<polygon fill="#000000" stroke="#000000" points="260.4988,-258.0041 266.8336,-266.4966 267.1774,-255.9073 260.4988,-258.0041"/>
</g>
<!-- GO:0044422 -->
<g id="node8" class="node">
<title>GO:0044422</title>
<polygon fill="#ffffff" stroke="#000000" points="201.1856,-307.8019 107.4814,-307.8019 107.4814,-266.5981 201.1856,-266.5981 201.1856,-307.8019"/>
<text text-anchor="middle" x="154.3335" y="-291.4" font-family="Times,serif" font-size="14.00" fill="#000000">GO:0044422</text>
<text text-anchor="middle" x="154.3335" y="-274.6" font-family="Times,serif" font-size="14.00" fill="#000000">organelle part</text>
</g>
<!-- GO:0044446&#45;&gt;GO:0044422 -->
<g id="edge7" class="edge">
<title>GO:0044446&#45;&gt;GO:0044422</title>
<path fill="none" stroke="#000000" d="M214.9296,-230.5558C204.8913,-239.9394 193.8184,-250.2902 183.9144,-259.5483"/>
<polygon fill="#000000" stroke="#000000" points="181.5202,-256.9952 176.6051,-266.3809 186.3005,-262.1089 181.5202,-256.9952"/>
</g>
<!-- GO:0044464 -->
<g id="node9" class="node">
<title>GO:0044464</title>
<polygon fill="#ffffff" stroke="#000000" points="317.9374,-385.4019 228.7296,-385.4019 228.7296,-344.1981 317.9374,-344.1981 317.9374,-385.4019"/>
<text text-anchor="middle" x="273.3335" y="-369" font-family="Times,serif" font-size="14.00" fill="#000000">GO:0044464</text>
<text text-anchor="middle" x="273.3335" y="-352.2" font-family="Times,serif" font-size="14.00" fill="#000000">cell part</text>
</g>
<!-- GO:0044424&#45;&gt;GO:0044464 -->
<g id="edge8" class="edge">
<title>GO:0044424&#45;&gt;GO:0044464</title>
<path fill="none" stroke="#000000" d="M273.3335,-307.9954C273.3335,-315.9109 273.3335,-325.1109 273.3335,-333.7722"/>
<polygon fill="#000000" stroke="#000000" points="269.8336,-333.9472 273.3335,-343.9472 276.8336,-333.9473 269.8336,-333.9472"/>
</g>
<!-- GO:0044422&#45;&gt;GO:0005575 -->
<g id="edge9" class="edge">
<title>GO:0044422&#45;&gt;GO:0005575</title>
<path fill="none" stroke="#000000" d="M143.3463,-307.9954C138.9803,-316.2588 133.8746,-325.9222 129.1254,-334.911"/>
<polygon fill="#000000" stroke="#000000" points="125.9281,-333.4704 124.3511,-343.9472 132.1173,-336.7405 125.9281,-333.4704"/>
</g>
</g>
</svg>
