<?xml version="1.0" encoding="UTF-8" standalone="no"?>
<!DOCTYPE svg PUBLIC "-//W3C//DTD SVG 1.1//EN"
 "http://www.w3.org/Graphics/SVG/1.1/DTD/svg11.dtd">
<!-- Generated by graphviz version 2.40.1 (20161225.0304)
 -->
<!-- Title: G Pages: 1 -->
<svg width="1785pt" height="566pt"
 viewBox="0.00 0.00 1785.34 565.60" xmlns="http://www.w3.org/2000/svg" xmlns:xlink="http://www.w3.org/1999/xlink">
<g id="graph0" class="graph" transform="scale(1 1) rotate(0) translate(4 561.6)">
<title>G</title>
<polygon fill="#ffffff" stroke="transparent" points="-4,4 -4,-561.6 1781.3367,-561.6 1781.3367,4 -4,4"/>
<!-- GO:0005856 -->
<g id="node1" class="node">
<title>GO:0005856</title>
<polygon fill="#ffffff" stroke="#000000" points="590.375,-119.0019 501.1672,-119.0019 501.1672,-77.7981 590.375,-77.7981 590.375,-119.0019"/>
<text text-anchor="middle" x="545.7711" y="-102.6" font-family="Times,serif" font-size="14.00" fill="#000000">GO:0005856</text>
<text text-anchor="middle" x="545.7711" y="-85.8" font-family="Times,serif" font-size="14.00" fill="#000000">cytoskeleton</text>
</g>
<!-- GO:0043232 -->
<g id="node2" class="node">
<title>GO:0043232</title>
<polygon fill="#ffffff" stroke="#000000" points="609.7319,-230.5003 481.8103,-230.5003 481.8103,-155.0997 609.7319,-155.0997 609.7319,-230.5003"/>
<text text-anchor="middle" x="545.7711" y="-213.8" font-family="Times,serif" font-size="14.00" fill="#000000">GO:0043232</text>
<text text-anchor="middle" x="545.7711" y="-197" font-family="Times,serif" font-size="14.00" fill="#000000">intracellular non&#45;</text>
<text text-anchor="middle" x="545.7711" y="-180.2" font-family="Times,serif" font-size="14.00" fill="#000000">membrane&#45;bounded</text>
<text text-anchor="middle" x="545.7711" y="-163.4" font-family="Times,serif" font-size="14.00" fill="#000000">organelle</text>
</g>
<!-- GO:0005856&#45;&gt;GO:0043232 -->
<g id="edge1" class="edge">
<title>GO:0005856&#45;&gt;GO:0043232</title>
<path fill="none" stroke="#000000" d="M545.7711,-119.3504C545.7711,-127.0068 545.7711,-136.0143 545.7711,-145.0487"/>
<polygon fill="#000000" stroke="#000000" points="542.2712,-145.1897 545.7711,-155.1897 549.2712,-145.1897 542.2712,-145.1897"/>
</g>
<!-- GO:0043229 -->
<g id="node3" class="node">
<title>GO:0043229</title>
<polygon fill="#ffffff" stroke="#000000" points="723.4895,-316.2019 584.0527,-316.2019 584.0527,-274.9981 723.4895,-274.9981 723.4895,-316.2019"/>
<text text-anchor="middle" x="653.7711" y="-299.8" font-family="Times,serif" font-size="14.00" fill="#000000">GO:0043229</text>
<text text-anchor="middle" x="653.7711" y="-283" font-family="Times,serif" font-size="14.00" fill="#000000">intracellular organelle</text>
</g>
<!-- GO:0043232&#45;&gt;GO:0043229 -->
<g id="edge2" class="edge">
<title>GO:0043232&#45;&gt;GO:0043229</title>
<path fill="none" stroke="#000000" d="M585.3731,-230.4952C598.3117,-242.8108 612.44,-256.2589 624.4793,-267.7186"/>
<polygon fill="#000000" stroke="#000000" points="622.3993,-270.5708 632.0557,-274.9302 627.2255,-265.5005 622.3993,-270.5708"/>
</g>
<!-- GO:0043228 -->
<g id="node4" class="node">
<title>GO:0043228</title>
<polygon fill="#ffffff" stroke="#000000" points="459.393,-325.0014 306.1492,-325.0014 306.1492,-266.1986 459.393,-266.1986 459.393,-325.0014"/>
<text text-anchor="middle" x="382.7711" y="-308.2" font-family="Times,serif" font-size="14.00" fill="#000000">GO:0043228</text>
<text text-anchor="middle" x="382.7711" y="-291.4" font-family="Times,serif" font-size="14.00" fill="#000000">non&#45;membrane&#45;bounded</text>
<text text-anchor="middle" x="382.7711" y="-274.6" font-family="Times,serif" font-size="14.00" fill="#000000">organelle</text>
</g>
<!-- GO:0043232&#45;&gt;GO:0043228 -->
<g id="edge3" class="edge">
<title>GO:0043232&#45;&gt;GO:0043228</title>
<path fill="none" stroke="#000000" d="M486.0015,-230.4952C470.2089,-240.4552 453.242,-251.1558 437.7181,-260.9463"/>
<polygon fill="#000000" stroke="#000000" points="435.8501,-257.9864 429.2588,-266.2814 439.5842,-263.9073 435.8501,-257.9864"/>
</g>
<!-- GO:0044424 -->
<g id="node5" class="node">
<title>GO:0044424</title>
<polygon fill="#ffffff" stroke="#000000" points="764.1695,-402.2019 655.3727,-402.2019 655.3727,-360.9981 764.1695,-360.9981 764.1695,-402.2019"/>
<text text-anchor="middle" x="709.7711" y="-385.8" font-family="Times,serif" font-size="14.00" fill="#000000">GO:0044424</text>
<text text-anchor="middle" x="709.7711" y="-369" font-family="Times,serif" font-size="14.00" fill="#000000">intracellular part</text>
</g>
<!-- GO:0043229&#45;&gt;GO:0044424 -->
<g id="edge4" class="edge">
<title>GO:0043229&#45;&gt;GO:0044424</title>
<path fill="none" stroke="#000000" d="M667.3271,-316.4182C674.3433,-327.193 683.0257,-340.5267 690.7061,-352.3216"/>
<polygon fill="#000000" stroke="#000000" points="687.9501,-354.5034 696.3399,-360.9735 693.8161,-350.6836 687.9501,-354.5034"/>
</g>
<!-- GO:0043226 -->
<g id="node6" class="node">
<title>GO:0043226</title>
<polygon fill="#ffffff" stroke="#000000" points="308.375,-402.2019 219.1672,-402.2019 219.1672,-360.9981 308.375,-360.9981 308.375,-402.2019"/>
<text text-anchor="middle" x="263.7711" y="-385.8" font-family="Times,serif" font-size="14.00" fill="#000000">GO:0043226</text>
<text text-anchor="middle" x="263.7711" y="-369" font-family="Times,serif" font-size="14.00" fill="#000000">organelle</text>
</g>
<!-- GO:0043229&#45;&gt;GO:0043226 -->
<g id="edge5" class="edge">
<title>GO:0043229&#45;&gt;GO:0043226</title>
<path fill="none" stroke="#000000" d="M603.5178,-316.2534C594.3946,-319.4728 584.8818,-322.4915 575.7711,-324.8 466.194,-352.5649 431.1135,-332.531 318.066,-360.7558"/>
<polygon fill="#000000" stroke="#000000" points="317.1586,-357.3751 308.3436,-363.2527 318.9,-364.1551 317.1586,-357.3751"/>
</g>
<!-- GO:0043228&#45;&gt;GO:0043226 -->
<g id="edge6" class="edge">
<title>GO:0043228&#45;&gt;GO:0043226</title>
<path fill="none" stroke="#000000" d="M342.1509,-324.9558C328.7847,-334.6154 314.0004,-345.2999 300.907,-354.7623"/>
<polygon fill="#000000" stroke="#000000" points="298.6338,-352.0868 292.5789,-360.7809 302.734,-357.7603 298.6338,-352.0868"/>
</g>
<!-- GO:0044464 -->
<g id="node7" class="node">
<title>GO:0044464</title>
<polygon fill="#ffffff" stroke="#000000" points="795.375,-479.8019 706.1672,-479.8019 706.1672,-438.5981 795.375,-438.5981 795.375,-479.8019"/>
<text text-anchor="middle" x="750.7711" y="-463.4" font-family="Times,serif" font-size="14.00" fill="#000000">GO:0044464</text>
<text text-anchor="middle" x="750.7711" y="-446.6" font-family="Times,serif" font-size="14.00" fill="#000000">cell part</text>
</g>
<!-- GO:0044424&#45;&gt;GO:0044464 -->
<g id="edge7" class="edge">
<title>GO:0044424&#45;&gt;GO:0044464</title>
<path fill="none" stroke="#000000" d="M720.7583,-402.3954C725.1243,-410.6588 730.23,-420.3222 734.9792,-429.311"/>
<polygon fill="#000000" stroke="#000000" points="731.9873,-431.1405 739.7535,-438.3472 738.1765,-427.8704 731.9873,-431.1405"/>
</g>
<!-- GO:0005575 -->
<g id="node8" class="node">
<title>GO:0005575</title>
<polygon fill="#ffffff" stroke="#000000" points="942.4578,-557.4019 815.0844,-557.4019 815.0844,-516.1981 942.4578,-516.1981 942.4578,-557.4019"/>
<text text-anchor="middle" x="878.7711" y="-541" font-family="Times,serif" font-size="14.00" fill="#000000">GO:0005575</text>
<text text-anchor="middle" x="878.7711" y="-524.2" font-family="Times,serif" font-size="14.00" fill="#000000">cellular_component</text>
</g>
<!-- GO:0043226&#45;&gt;GO:0005575 -->
<g id="edge8" class="edge">
<title>GO:0043226&#45;&gt;GO:0005575</title>
<path fill="none" stroke="#000000" d="M308.434,-399.6334C311.241,-400.6096 314.0363,-401.5409 316.7711,-402.4 488.938,-456.4811 696.638,-500.9195 804.9275,-522.564"/>
<polygon fill="#000000" stroke="#000000" points="804.2837,-526.0044 814.7746,-524.524 805.6503,-519.1391 804.2837,-526.0044"/>
</g>
<!-- GO:0044464&#45;&gt;GO:0005575 -->
<g id="edge29" class="edge">
<title>GO:0044464&#45;&gt;GO:0005575</title>
<path fill="none" stroke="#000000" d="M785.0728,-479.9954C800.5683,-489.3896 819.0484,-500.5931 835.4853,-510.558"/>
<polygon fill="#000000" stroke="#000000" points="834.009,-513.7559 844.3748,-515.9472 837.638,-507.77 834.009,-513.7559"/>
</g>
<!-- GO:0070062 -->
<g id="node9" class="node">
<title>GO:0070062</title>
<polygon fill="#ffffff" stroke="#000000" points="223.4923,-41.4019 84.0499,-41.4019 84.0499,-.1981 223.4923,-.1981 223.4923,-41.4019"/>
<text text-anchor="middle" x="153.7711" y="-25" font-family="Times,serif" font-size="14.00" fill="#000000">GO:0070062</text>
<text text-anchor="middle" x="153.7711" y="-8.2" font-family="Times,serif" font-size="14.00" fill="#000000">extracellular exosome</text>
</g>
<!-- GO:1903561 -->
<g id="node10" class="node">
<title>GO:1903561</title>
<polygon fill="#ffffff" stroke="#000000" points="135.0977,-119.0019 6.4445,-119.0019 6.4445,-77.7981 135.0977,-77.7981 135.0977,-119.0019"/>
<text text-anchor="middle" x="70.7711" y="-102.6" font-family="Times,serif" font-size="14.00" fill="#000000">GO:1903561</text>
<text text-anchor="middle" x="70.7711" y="-85.8" font-family="Times,serif" font-size="14.00" fill="#000000">extracellular vesicle</text>
</g>
<!-- GO:0070062&#45;&gt;GO:1903561 -->
<g id="edge9" class="edge">
<title>GO:0070062&#45;&gt;GO:1903561</title>
<path fill="none" stroke="#000000" d="M131.5286,-41.5954C122.0389,-50.4677 110.823,-60.9539 100.6273,-70.4862"/>
<polygon fill="#000000" stroke="#000000" points="97.9894,-68.1611 93.075,-77.5472 102.77,-73.2744 97.9894,-68.1611"/>
</g>
<!-- GO:0031988 -->
<g id="node11" class="node">
<title>GO:0031988</title>
<polygon fill="#ffffff" stroke="#000000" points="323.1018,-119.0019 152.4404,-119.0019 152.4404,-77.7981 323.1018,-77.7981 323.1018,-119.0019"/>
<text text-anchor="middle" x="237.7711" y="-102.6" font-family="Times,serif" font-size="14.00" fill="#000000">GO:0031988</text>
<text text-anchor="middle" x="237.7711" y="-85.8" font-family="Times,serif" font-size="14.00" fill="#000000">membrane&#45;bounded vesicle</text>
</g>
<!-- GO:0070062&#45;&gt;GO:0031988 -->
<g id="edge10" class="edge">
<title>GO:0070062&#45;&gt;GO:0031988</title>
<path fill="none" stroke="#000000" d="M176.2816,-41.5954C185.8856,-50.4677 197.2366,-60.9539 207.5552,-70.4862"/>
<polygon fill="#000000" stroke="#000000" points="205.4781,-73.3324 215.1985,-77.5472 210.2281,-68.1906 205.4781,-73.3324"/>
</g>
<!-- GO:0043230 -->
<g id="node12" class="node">
<title>GO:0043230</title>
<polygon fill="#ffffff" stroke="#000000" points="141.314,-316.2019 .2282,-316.2019 .2282,-274.9981 141.314,-274.9981 141.314,-316.2019"/>
<text text-anchor="middle" x="70.7711" y="-299.8" font-family="Times,serif" font-size="14.00" fill="#000000">GO:0043230</text>
<text text-anchor="middle" x="70.7711" y="-283" font-family="Times,serif" font-size="14.00" fill="#000000">extracellular organelle</text>
</g>
<!-- GO:1903561&#45;&gt;GO:0043230 -->
<g id="edge11" class="edge">
<title>GO:1903561&#45;&gt;GO:0043230</title>
<path fill="none" stroke="#000000" d="M70.7711,-119.1311C70.7711,-153.8982 70.7711,-224.1284 70.7711,-264.724"/>
<polygon fill="#000000" stroke="#000000" points="67.2712,-264.8507 70.7711,-274.8507 74.2712,-264.8508 67.2712,-264.8507"/>
</g>
<!-- GO:0031982 -->
<g id="node13" class="node">
<title>GO:0031982</title>
<polygon fill="#ffffff" stroke="#000000" points="268.375,-213.4019 179.1672,-213.4019 179.1672,-172.1981 268.375,-172.1981 268.375,-213.4019"/>
<text text-anchor="middle" x="223.7711" y="-197" font-family="Times,serif" font-size="14.00" fill="#000000">GO:0031982</text>
<text text-anchor="middle" x="223.7711" y="-180.2" font-family="Times,serif" font-size="14.00" fill="#000000">vesicle</text>
</g>
<!-- GO:1903561&#45;&gt;GO:0031982 -->
<g id="edge12" class="edge">
<title>GO:1903561&#45;&gt;GO:0031982</title>
<path fill="none" stroke="#000000" d="M104.3476,-119.1165C127.0673,-133.1344 157.2552,-151.7601 181.5949,-166.7776"/>
<polygon fill="#000000" stroke="#000000" points="179.9246,-169.8596 190.2729,-172.1318 183.6003,-163.9022 179.9246,-169.8596"/>
</g>
<!-- GO:0031988&#45;&gt;GO:0031982 -->
<g id="edge13" class="edge">
<title>GO:0031988&#45;&gt;GO:0031982</title>
<path fill="none" stroke="#000000" d="M234.664,-119.3504C232.8153,-131.8165 230.4353,-147.8645 228.3717,-161.7786"/>
<polygon fill="#000000" stroke="#000000" points="224.8744,-161.5029 226.8695,-171.9081 231.7987,-162.5298 224.8744,-161.5029"/>
</g>
<!-- GO:0043230&#45;&gt;GO:0043226 -->
<g id="edge14" class="edge">
<title>GO:0043230&#45;&gt;GO:0043226</title>
<path fill="none" stroke="#000000" d="M117.491,-316.4182C145.3754,-328.8434 180.8962,-344.6713 209.9521,-357.6185"/>
<polygon fill="#000000" stroke="#000000" points="208.5819,-360.8396 219.1407,-361.7129 211.4311,-354.4457 208.5819,-360.8396"/>
</g>
<!-- GO:0044421 -->
<g id="node14" class="node">
<title>GO:0044421</title>
<polygon fill="#ffffff" stroke="#000000" points="287.2601,-479.8019 136.2821,-479.8019 136.2821,-438.5981 287.2601,-438.5981 287.2601,-479.8019"/>
<text text-anchor="middle" x="211.7711" y="-463.4" font-family="Times,serif" font-size="14.00" fill="#000000">GO:0044421</text>
<text text-anchor="middle" x="211.7711" y="-446.6" font-family="Times,serif" font-size="14.00" fill="#000000">extracellular region part</text>
</g>
<!-- GO:0043230&#45;&gt;GO:0044421 -->
<g id="edge15" class="edge">
<title>GO:0043230&#45;&gt;GO:0044421</title>
<path fill="none" stroke="#000000" d="M88.6288,-316.3201C113.5636,-345.2514 158.9103,-397.8664 187.0701,-430.5398"/>
<polygon fill="#000000" stroke="#000000" points="184.6565,-433.1005 193.8362,-438.3904 189.9589,-428.5305 184.6565,-433.1005"/>
</g>
<!-- GO:0043227 -->
<g id="node15" class="node">
<title>GO:0043227</title>
<polygon fill="#ffffff" stroke="#000000" points="287.7319,-325.0014 159.8103,-325.0014 159.8103,-266.1986 287.7319,-266.1986 287.7319,-325.0014"/>
<text text-anchor="middle" x="223.7711" y="-308.2" font-family="Times,serif" font-size="14.00" fill="#000000">GO:0043227</text>
<text text-anchor="middle" x="223.7711" y="-291.4" font-family="Times,serif" font-size="14.00" fill="#000000">membrane&#45;bounded</text>
<text text-anchor="middle" x="223.7711" y="-274.6" font-family="Times,serif" font-size="14.00" fill="#000000">organelle</text>
</g>
<!-- GO:0031982&#45;&gt;GO:0043227 -->
<g id="edge16" class="edge">
<title>GO:0031982&#45;&gt;GO:0043227</title>
<path fill="none" stroke="#000000" d="M223.7711,-213.6031C223.7711,-225.7833 223.7711,-241.5676 223.7711,-256.0305"/>
<polygon fill="#000000" stroke="#000000" points="220.2712,-256.2577 223.7711,-266.2577 227.2712,-256.2578 220.2712,-256.2577"/>
</g>
<!-- GO:0044421&#45;&gt;GO:0005575 -->
<g id="edge17" class="edge">
<title>GO:0044421&#45;&gt;GO:0005575</title>
<path fill="none" stroke="#000000" d="M287.3112,-467.9885C416.1581,-482.9788 676.8582,-513.3091 804.6971,-528.1821"/>
<polygon fill="#000000" stroke="#000000" points="804.4481,-531.6767 814.7856,-529.3558 805.2571,-524.7236 804.4481,-531.6767"/>
</g>
<!-- GO:0043227&#45;&gt;GO:0043226 -->
<g id="edge18" class="edge">
<title>GO:0043227&#45;&gt;GO:0043226</title>
<path fill="none" stroke="#000000" d="M237.5368,-325.1963C241.5103,-333.7393 245.8486,-343.0667 249.8325,-351.6321"/>
<polygon fill="#000000" stroke="#000000" points="246.7507,-353.3054 254.1416,-360.8966 253.0978,-350.3533 246.7507,-353.3054"/>
</g>
<!-- GO:0005834 -->
<g id="node16" class="node">
<title>GO:0005834</title>
<polygon fill="#ffffff" stroke="#000000" points="1359.4881,-222.2014 1206.0541,-222.2014 1206.0541,-163.3986 1359.4881,-163.3986 1359.4881,-222.2014"/>
<text text-anchor="middle" x="1282.7711" y="-205.4" font-family="Times,serif" font-size="14.00" fill="#000000">GO:0005834</text>
<text text-anchor="middle" x="1282.7711" y="-188.6" font-family="Times,serif" font-size="14.00" fill="#000000">heterotrimeric G&#45;protein</text>
<text text-anchor="middle" x="1282.7711" y="-171.8" font-family="Times,serif" font-size="14.00" fill="#000000">complex</text>
</g>
<!-- GO:0005834&#45;&gt;GO:0044424 -->
<g id="edge20" class="edge">
<title>GO:0005834&#45;&gt;GO:0044424</title>
<path fill="none" stroke="#000000" d="M1222.2715,-222.1061C1214.1651,-225.2763 1205.857,-228.1585 1197.7711,-230.4 1073.4627,-264.859 1019.1221,-197.9722 909.7711,-266.4 883.5205,-282.8266 896.128,-305.6776 871.7711,-324.8 843.6376,-346.8873 806.2792,-360.7486 774.5279,-369.2425"/>
<polygon fill="#000000" stroke="#000000" points="773.2605,-365.9535 764.4349,-371.8152 774.9896,-372.7366 773.2605,-365.9535"/>
</g>
<!-- GO:0098797 -->
<g id="node17" class="node">
<title>GO:0098797</title>
<polygon fill="#ffffff" stroke="#000000" points="1356.6686,-325.0014 1194.8736,-325.0014 1194.8736,-266.1986 1356.6686,-266.1986 1356.6686,-325.0014"/>
<text text-anchor="middle" x="1275.7711" y="-308.2" font-family="Times,serif" font-size="14.00" fill="#000000">GO:0098797</text>
<text text-anchor="middle" x="1275.7711" y="-291.4" font-family="Times,serif" font-size="14.00" fill="#000000">plasma membrane protein</text>
<text text-anchor="middle" x="1275.7711" y="-274.6" font-family="Times,serif" font-size="14.00" fill="#000000">complex</text>
</g>
<!-- GO:0005834&#45;&gt;GO:0098797 -->
<g id="edge19" class="edge">
<title>GO:0005834&#45;&gt;GO:0098797</title>
<path fill="none" stroke="#000000" d="M1280.7652,-222.2584C1280.0476,-232.7969 1279.2268,-244.8505 1278.4608,-256.0994"/>
<polygon fill="#000000" stroke="#000000" points="1274.9649,-255.9226 1277.7773,-266.1373 1281.9487,-256.3983 1274.9649,-255.9226"/>
</g>
<!-- GO:1902494 -->
<g id="node18" class="node">
<title>GO:1902494</title>
<polygon fill="#ffffff" stroke="#000000" points="1777.4024,-402.2019 1662.1398,-402.2019 1662.1398,-360.9981 1777.4024,-360.9981 1777.4024,-402.2019"/>
<text text-anchor="middle" x="1719.7711" y="-385.8" font-family="Times,serif" font-size="14.00" fill="#000000">GO:1902494</text>
<text text-anchor="middle" x="1719.7711" y="-369" font-family="Times,serif" font-size="14.00" fill="#000000">catalytic complex</text>
</g>
<!-- GO:0005834&#45;&gt;GO:1902494 -->
<g id="edge21" class="edge">
<title>GO:0005834&#45;&gt;GO:1902494</title>
<path fill="none" stroke="#000000" d="M1319.8906,-222.0009C1334.9892,-234.7915 1352.07,-250.4953 1365.7711,-266.4 1385.982,-289.8615 1377.6797,-308.1218 1403.7711,-324.8 1495.3167,-383.318 1541.0767,-338.8282 1652.29,-360.9798"/>
<polygon fill="#000000" stroke="#000000" points="1651.6735,-364.427 1662.1837,-363.0907 1653.1342,-357.5811 1651.6735,-364.427"/>
</g>
<!-- GO:0098796 -->
<g id="node19" class="node">
<title>GO:0098796</title>
<polygon fill="#ffffff" stroke="#000000" points="1643.7235,-402.2019 1473.8187,-402.2019 1473.8187,-360.9981 1643.7235,-360.9981 1643.7235,-402.2019"/>
<text text-anchor="middle" x="1558.7711" y="-385.8" font-family="Times,serif" font-size="14.00" fill="#000000">GO:0098796</text>
<text text-anchor="middle" x="1558.7711" y="-369" font-family="Times,serif" font-size="14.00" fill="#000000">membrane protein complex</text>
</g>
<!-- GO:0098797&#45;&gt;GO:0098796 -->
<g id="edge22" class="edge">
<title>GO:0098797&#45;&gt;GO:0098796</title>
<path fill="none" stroke="#000000" d="M1356.6129,-320.4771C1361.4027,-321.942 1366.1497,-323.3916 1370.7711,-324.8 1406.6898,-335.7461 1446.4968,-347.786 1480.1994,-357.9529"/>
<polygon fill="#000000" stroke="#000000" points="1479.4072,-361.3697 1489.9919,-360.9061 1481.4284,-354.6678 1479.4072,-361.3697"/>
</g>
<!-- GO:0044459 -->
<g id="node20" class="node">
<title>GO:0044459</title>
<polygon fill="#ffffff" stroke="#000000" points="1323.2783,-402.2019 1180.2639,-402.2019 1180.2639,-360.9981 1323.2783,-360.9981 1323.2783,-402.2019"/>
<text text-anchor="middle" x="1251.7711" y="-385.8" font-family="Times,serif" font-size="14.00" fill="#000000">GO:0044459</text>
<text text-anchor="middle" x="1251.7711" y="-369" font-family="Times,serif" font-size="14.00" fill="#000000">plasma membrane part</text>
</g>
<!-- GO:0098797&#45;&gt;GO:0044459 -->
<g id="edge23" class="edge">
<title>GO:0098797&#45;&gt;GO:0044459</title>
<path fill="none" stroke="#000000" d="M1267.5117,-325.1963C1265.1788,-333.5556 1262.6364,-342.6658 1260.2888,-351.0784"/>
<polygon fill="#000000" stroke="#000000" points="1256.8657,-350.3238 1257.5488,-360.8966 1263.6081,-352.2054 1256.8657,-350.3238"/>
</g>
<!-- GO:0043234 -->
<g id="node21" class="node">
<title>GO:0043234</title>
<polygon fill="#ffffff" stroke="#000000" points="1692.6385,-479.8019 1584.9037,-479.8019 1584.9037,-438.5981 1692.6385,-438.5981 1692.6385,-479.8019"/>
<text text-anchor="middle" x="1638.7711" y="-463.4" font-family="Times,serif" font-size="14.00" fill="#000000">GO:0043234</text>
<text text-anchor="middle" x="1638.7711" y="-446.6" font-family="Times,serif" font-size="14.00" fill="#000000">protein complex</text>
</g>
<!-- GO:1902494&#45;&gt;GO:0043234 -->
<g id="edge24" class="edge">
<title>GO:1902494&#45;&gt;GO:0043234</title>
<path fill="none" stroke="#000000" d="M1698.0646,-402.3954C1688.8035,-411.2677 1677.8579,-421.7539 1667.9079,-431.2862"/>
<polygon fill="#000000" stroke="#000000" points="1665.3373,-428.9019 1660.5375,-438.3472 1670.1798,-433.9567 1665.3373,-428.9019"/>
</g>
<!-- GO:0098796&#45;&gt;GO:0043234 -->
<g id="edge25" class="edge">
<title>GO:0098796&#45;&gt;GO:0043234</title>
<path fill="none" stroke="#000000" d="M1580.2096,-402.3954C1589.3563,-411.2677 1600.1668,-421.7539 1609.994,-431.2862"/>
<polygon fill="#000000" stroke="#000000" points="1607.6585,-433.8969 1617.2734,-438.3472 1612.5324,-428.8723 1607.6585,-433.8969"/>
</g>
<!-- GO:0044425 -->
<g id="node22" class="node">
<title>GO:0044425</title>
<polygon fill="#ffffff" stroke="#000000" points="1375.1231,-479.8019 1274.4191,-479.8019 1274.4191,-438.5981 1375.1231,-438.5981 1375.1231,-479.8019"/>
<text text-anchor="middle" x="1324.7711" y="-463.4" font-family="Times,serif" font-size="14.00" fill="#000000">GO:0044425</text>
<text text-anchor="middle" x="1324.7711" y="-446.6" font-family="Times,serif" font-size="14.00" fill="#000000">membrane part</text>
</g>
<!-- GO:0098796&#45;&gt;GO:0044425 -->
<g id="edge26" class="edge">
<title>GO:0098796&#45;&gt;GO:0044425</title>
<path fill="none" stroke="#000000" d="M1496.3708,-402.2934C1461.8678,-413.7355 1419.1987,-427.8856 1385.0407,-439.2132"/>
<polygon fill="#000000" stroke="#000000" points="1383.5801,-436.01 1375.1901,-442.4799 1385.7835,-442.6542 1383.5801,-436.01"/>
</g>
<!-- GO:0044459&#45;&gt;GO:0044464 -->
<g id="edge28" class="edge">
<title>GO:0044459&#45;&gt;GO:0044464</title>
<path fill="none" stroke="#000000" d="M1180.0836,-394.434C1164.4989,-397.1392 1148.092,-399.9224 1132.7711,-402.4 1016.4548,-421.2099 879.8219,-440.9611 805.5774,-451.4975"/>
<polygon fill="#000000" stroke="#000000" points="804.9339,-448.0536 795.5239,-452.922 805.916,-454.9844 804.9339,-448.0536"/>
</g>
<!-- GO:0044459&#45;&gt;GO:0044425 -->
<g id="edge27" class="edge">
<title>GO:0044459&#45;&gt;GO:0044425</title>
<path fill="none" stroke="#000000" d="M1271.3338,-402.3954C1279.5983,-411.1807 1289.3514,-421.5484 1298.248,-431.0056"/>
<polygon fill="#000000" stroke="#000000" points="1295.7532,-433.4617 1305.1544,-438.3472 1300.8518,-428.6654 1295.7532,-433.4617"/>
</g>
<!-- GO:0032991 -->
<g id="node23" class="node">
<title>GO:0032991</title>
<polygon fill="#ffffff" stroke="#000000" points="1717.9384,-557.4019 1559.6038,-557.4019 1559.6038,-516.1981 1717.9384,-516.1981 1717.9384,-557.4019"/>
<text text-anchor="middle" x="1638.7711" y="-541" font-family="Times,serif" font-size="14.00" fill="#000000">GO:0032991</text>
<text text-anchor="middle" x="1638.7711" y="-524.2" font-family="Times,serif" font-size="14.00" fill="#000000">macromolecular complex</text>
</g>
<!-- GO:0043234&#45;&gt;GO:0032991 -->
<g id="edge30" class="edge">
<title>GO:0043234&#45;&gt;GO:0032991</title>
<path fill="none" stroke="#000000" d="M1638.7711,-479.9954C1638.7711,-487.9109 1638.7711,-497.1109 1638.7711,-505.7722"/>
<polygon fill="#000000" stroke="#000000" points="1635.2712,-505.9472 1638.7711,-515.9472 1642.2712,-505.9473 1635.2712,-505.9472"/>
</g>
<!-- GO:0044425&#45;&gt;GO:0005575 -->
<g id="edge35" class="edge">
<title>GO:0044425&#45;&gt;GO:0005575</title>
<path fill="none" stroke="#000000" d="M1274.4762,-467.9509C1195.866,-481.6283 1043.4803,-508.1421 952.4676,-523.9775"/>
<polygon fill="#000000" stroke="#000000" points="951.75,-520.5497 942.498,-525.7121 952.9499,-527.4461 951.75,-520.5497"/>
</g>
<!-- GO:0045121 -->
<g id="node24" class="node">
<title>GO:0045121</title>
<polygon fill="#ffffff" stroke="#000000" points="1538.7831,-213.4019 1440.7591,-213.4019 1440.7591,-172.1981 1538.7831,-172.1981 1538.7831,-213.4019"/>
<text text-anchor="middle" x="1489.7711" y="-197" font-family="Times,serif" font-size="14.00" fill="#000000">GO:0045121</text>
<text text-anchor="middle" x="1489.7711" y="-180.2" font-family="Times,serif" font-size="14.00" fill="#000000">membrane raft</text>
</g>
<!-- GO:0098857 -->
<g id="node25" class="node">
<title>GO:0098857</title>
<polygon fill="#ffffff" stroke="#000000" points="1566.5091,-316.2019 1413.0331,-316.2019 1413.0331,-274.9981 1566.5091,-274.9981 1566.5091,-316.2019"/>
<text text-anchor="middle" x="1489.7711" y="-299.8" font-family="Times,serif" font-size="14.00" fill="#000000">GO:0098857</text>
<text text-anchor="middle" x="1489.7711" y="-283" font-family="Times,serif" font-size="14.00" fill="#000000">membrane microdomain</text>
</g>
<!-- GO:0045121&#45;&gt;GO:0098857 -->
<g id="edge31" class="edge">
<title>GO:0045121&#45;&gt;GO:0098857</title>
<path fill="none" stroke="#000000" d="M1489.7711,-213.6031C1489.7711,-228.2337 1489.7711,-248.0642 1489.7711,-264.5586"/>
<polygon fill="#000000" stroke="#000000" points="1486.2712,-264.8278 1489.7711,-274.8278 1493.2712,-264.8279 1486.2712,-264.8278"/>
</g>
<!-- GO:0098589 -->
<g id="node26" class="node">
<title>GO:0098589</title>
<polygon fill="#ffffff" stroke="#000000" points="1456.123,-402.2019 1341.4192,-402.2019 1341.4192,-360.9981 1456.123,-360.9981 1456.123,-402.2019"/>
<text text-anchor="middle" x="1398.7711" y="-385.8" font-family="Times,serif" font-size="14.00" fill="#000000">GO:0098589</text>
<text text-anchor="middle" x="1398.7711" y="-369" font-family="Times,serif" font-size="14.00" fill="#000000">membrane region</text>
</g>
<!-- GO:0098857&#45;&gt;GO:0098589 -->
<g id="edge32" class="edge">
<title>GO:0098857&#45;&gt;GO:0098589</title>
<path fill="none" stroke="#000000" d="M1467.7425,-316.4182C1455.7824,-327.7212 1440.8427,-341.8401 1427.9285,-354.0446"/>
<polygon fill="#000000" stroke="#000000" points="1425.4607,-351.5611 1420.5968,-360.9735 1430.2688,-356.6487 1425.4607,-351.5611"/>
</g>
<!-- GO:0098589&#45;&gt;GO:0044425 -->
<g id="edge33" class="edge">
<title>GO:0098589&#45;&gt;GO:0044425</title>
<path fill="none" stroke="#000000" d="M1378.9405,-402.3954C1370.5627,-411.1807 1360.676,-421.5484 1351.6575,-431.0056"/>
<polygon fill="#000000" stroke="#000000" points="1349.0248,-428.6948 1344.6565,-438.3472 1354.0907,-433.5257 1349.0248,-428.6948"/>
</g>
<!-- GO:0016020 -->
<g id="node27" class="node">
<title>GO:0016020</title>
<polygon fill="#ffffff" stroke="#000000" points="1002.375,-479.8019 913.1672,-479.8019 913.1672,-438.5981 1002.375,-438.5981 1002.375,-479.8019"/>
<text text-anchor="middle" x="957.7711" y="-463.4" font-family="Times,serif" font-size="14.00" fill="#000000">GO:0016020</text>
<text text-anchor="middle" x="957.7711" y="-446.6" font-family="Times,serif" font-size="14.00" fill="#000000">membrane</text>
</g>
<!-- GO:0098589&#45;&gt;GO:0016020 -->
<g id="edge34" class="edge">
<title>GO:0098589&#45;&gt;GO:0016020</title>
<path fill="none" stroke="#000000" d="M1341.3531,-400.4166C1338.4642,-401.1364 1335.5921,-401.8037 1332.7711,-402.4 1195.0462,-431.513 1152.4616,-405.0438 1012.4242,-438.2871"/>
<polygon fill="#000000" stroke="#000000" points="1011.5032,-434.909 1002.6145,-440.6746 1013.1586,-441.7105 1011.5032,-434.909"/>
</g>
<!-- GO:0016020&#45;&gt;GO:0005575 -->
<g id="edge36" class="edge">
<title>GO:0016020&#45;&gt;GO:0005575</title>
<path fill="none" stroke="#000000" d="M936.6005,-479.9954C927.5682,-488.8677 916.8928,-499.3539 907.1885,-508.8862"/>
<polygon fill="#000000" stroke="#000000" points="904.6815,-506.4427 900.0001,-515.9472 909.5868,-511.4365 904.6815,-506.4427"/>
</g>
<!-- GO:0030496 -->
<g id="node28" class="node">
<title>GO:0030496</title>
<polygon fill="#ffffff" stroke="#000000" points="522.375,-402.2019 433.1672,-402.2019 433.1672,-360.9981 522.375,-360.9981 522.375,-402.2019"/>
<text text-anchor="middle" x="477.7711" y="-385.8" font-family="Times,serif" font-size="14.00" fill="#000000">GO:0030496</text>
<text text-anchor="middle" x="477.7711" y="-369" font-family="Times,serif" font-size="14.00" fill="#000000">midbody</text>
</g>
<!-- GO:0030496&#45;&gt;GO:0044464 -->
<g id="edge37" class="edge">
<title>GO:0030496&#45;&gt;GO:0044464</title>
<path fill="none" stroke="#000000" d="M522.4203,-399.2486C525.5708,-400.3549 528.7102,-401.4171 531.7711,-402.4 587.0528,-420.1521 651.5111,-436.3414 696.1165,-446.8538"/>
<polygon fill="#000000" stroke="#000000" points="695.3493,-450.2687 705.8838,-449.1398 696.9445,-443.4529 695.3493,-450.2687"/>
</g>
<!-- GO:0031526 -->
<g id="node29" class="node">
<title>GO:0031526</title>
<polygon fill="#ffffff" stroke="#000000" points="911.4979,-119.0019 762.0443,-119.0019 762.0443,-77.7981 911.4979,-77.7981 911.4979,-119.0019"/>
<text text-anchor="middle" x="836.7711" y="-102.6" font-family="Times,serif" font-size="14.00" fill="#000000">GO:0031526</text>
<text text-anchor="middle" x="836.7711" y="-85.8" font-family="Times,serif" font-size="14.00" fill="#000000">brush border membrane</text>
</g>
<!-- GO:0031253 -->
<g id="node30" class="node">
<title>GO:0031253</title>
<polygon fill="#ffffff" stroke="#000000" points="916.3287,-213.4019 757.2135,-213.4019 757.2135,-172.1981 916.3287,-172.1981 916.3287,-213.4019"/>
<text text-anchor="middle" x="836.7711" y="-197" font-family="Times,serif" font-size="14.00" fill="#000000">GO:0031253</text>
<text text-anchor="middle" x="836.7711" y="-180.2" font-family="Times,serif" font-size="14.00" fill="#000000">cell projection membrane</text>
</g>
<!-- GO:0031526&#45;&gt;GO:0031253 -->
<g id="edge38" class="edge">
<title>GO:0031526&#45;&gt;GO:0031253</title>
<path fill="none" stroke="#000000" d="M836.7711,-119.3504C836.7711,-131.8165 836.7711,-147.8645 836.7711,-161.7786"/>
<polygon fill="#000000" stroke="#000000" points="833.2712,-161.9081 836.7711,-171.9081 840.2712,-161.9082 833.2712,-161.9081"/>
</g>
<!-- GO:0098590 -->
<g id="node31" class="node">
<title>GO:0098590</title>
<polygon fill="#ffffff" stroke="#000000" points="1076.2783,-316.2019 919.2639,-316.2019 919.2639,-274.9981 1076.2783,-274.9981 1076.2783,-316.2019"/>
<text text-anchor="middle" x="997.7711" y="-299.8" font-family="Times,serif" font-size="14.00" fill="#000000">GO:0098590</text>
<text text-anchor="middle" x="997.7711" y="-283" font-family="Times,serif" font-size="14.00" fill="#000000">plasma membrane region</text>
</g>
<!-- GO:0031253&#45;&gt;GO:0098590 -->
<g id="edge39" class="edge">
<title>GO:0031253&#45;&gt;GO:0098590</title>
<path fill="none" stroke="#000000" d="M869.3519,-213.6031C894.5568,-229.6967 929.616,-252.0824 956.7354,-269.3983"/>
<polygon fill="#000000" stroke="#000000" points="954.9268,-272.3961 965.2388,-274.8278 958.694,-266.4962 954.9268,-272.3961"/>
</g>
<!-- GO:0044463 -->
<g id="node32" class="node">
<title>GO:0044463</title>
<polygon fill="#ffffff" stroke="#000000" points="862.5092,-316.2019 741.033,-316.2019 741.033,-274.9981 862.5092,-274.9981 862.5092,-316.2019"/>
<text text-anchor="middle" x="801.7711" y="-299.8" font-family="Times,serif" font-size="14.00" fill="#000000">GO:0044463</text>
<text text-anchor="middle" x="801.7711" y="-283" font-family="Times,serif" font-size="14.00" fill="#000000">cell projection part</text>
</g>
<!-- GO:0031253&#45;&gt;GO:0044463 -->
<g id="edge40" class="edge">
<title>GO:0031253&#45;&gt;GO:0044463</title>
<path fill="none" stroke="#000000" d="M829.6883,-213.6031C824.6597,-228.373 817.8267,-248.4424 812.1795,-265.029"/>
<polygon fill="#000000" stroke="#000000" points="808.7532,-264.2334 808.8433,-274.8278 815.3796,-266.4895 808.7532,-264.2334"/>
</g>
<!-- GO:0098590&#45;&gt;GO:0044459 -->
<g id="edge42" class="edge">
<title>GO:0098590&#45;&gt;GO:0044459</title>
<path fill="none" stroke="#000000" d="M1058.9337,-316.3086C1095.7422,-328.7713 1142.7493,-344.6871 1181.1371,-357.6845"/>
<polygon fill="#000000" stroke="#000000" points="1180.1052,-361.0303 1190.6995,-360.9222 1182.3502,-354.4 1180.1052,-361.0303"/>
</g>
<!-- GO:0098590&#45;&gt;GO:0016020 -->
<g id="edge41" class="edge">
<title>GO:0098590&#45;&gt;GO:0016020</title>
<path fill="none" stroke="#000000" d="M992.7051,-316.3201C985.7812,-344.6385 973.3096,-395.6476 965.2927,-428.4367"/>
<polygon fill="#000000" stroke="#000000" points="961.8343,-427.8453 962.859,-438.3904 968.634,-429.5078 961.8343,-427.8453"/>
</g>
<!-- GO:0044463&#45;&gt;GO:0044464 -->
<g id="edge43" class="edge">
<title>GO:0044463&#45;&gt;GO:0044464</title>
<path fill="none" stroke="#000000" d="M796.841,-316.2629C791.5166,-337.9155 782.4833,-372.8289 772.7711,-402.4 769.925,-411.0655 766.4995,-420.3394 763.208,-428.828"/>
<polygon fill="#000000" stroke="#000000" points="759.8659,-427.7622 759.4484,-438.3488 766.3767,-430.3332 759.8659,-427.7622"/>
</g>
<!-- GO:0060170 -->
<g id="node33" class="node">
<title>GO:0060170</title>
<polygon fill="#ffffff" stroke="#000000" points="1065.1188,-119.0019 950.4234,-119.0019 950.4234,-77.7981 1065.1188,-77.7981 1065.1188,-119.0019"/>
<text text-anchor="middle" x="1007.7711" y="-102.6" font-family="Times,serif" font-size="14.00" fill="#000000">GO:0060170</text>
<text text-anchor="middle" x="1007.7711" y="-85.8" font-family="Times,serif" font-size="14.00" fill="#000000">ciliary membrane</text>
</g>
<!-- GO:0060170&#45;&gt;GO:0031253 -->
<g id="edge45" class="edge">
<title>GO:0060170&#45;&gt;GO:0031253</title>
<path fill="none" stroke="#000000" d="M970.2444,-119.1165C944.6291,-133.2574 910.5199,-152.0872 883.1948,-167.1719"/>
<polygon fill="#000000" stroke="#000000" points="881.2733,-164.2347 874.2102,-172.1318 884.6564,-170.363 881.2733,-164.2347"/>
</g>
<!-- GO:0098588 -->
<g id="node34" class="node">
<title>GO:0098588</title>
<polygon fill="#ffffff" stroke="#000000" points="1080.9083,-222.2014 934.6339,-222.2014 934.6339,-163.3986 1080.9083,-163.3986 1080.9083,-222.2014"/>
<text text-anchor="middle" x="1007.7711" y="-205.4" font-family="Times,serif" font-size="14.00" fill="#000000">GO:0098588</text>
<text text-anchor="middle" x="1007.7711" y="-188.6" font-family="Times,serif" font-size="14.00" fill="#000000">bounding membrane of</text>
<text text-anchor="middle" x="1007.7711" y="-171.8" font-family="Times,serif" font-size="14.00" fill="#000000">organelle</text>
</g>
<!-- GO:0060170&#45;&gt;GO:0098588 -->
<g id="edge44" class="edge">
<title>GO:0060170&#45;&gt;GO:0098588</title>
<path fill="none" stroke="#000000" d="M1007.7711,-119.3504C1007.7711,-129.3492 1007.7711,-141.6525 1007.7711,-153.3106"/>
<polygon fill="#000000" stroke="#000000" points="1004.2712,-153.3155 1007.7711,-163.3155 1011.2712,-153.3156 1004.2712,-153.3155"/>
</g>
<!-- GO:0044441 -->
<g id="node35" class="node">
<title>GO:0044441</title>
<polygon fill="#ffffff" stroke="#000000" points="1188.375,-213.4019 1099.1672,-213.4019 1099.1672,-172.1981 1188.375,-172.1981 1188.375,-213.4019"/>
<text text-anchor="middle" x="1143.7711" y="-197" font-family="Times,serif" font-size="14.00" fill="#000000">GO:0044441</text>
<text text-anchor="middle" x="1143.7711" y="-180.2" font-family="Times,serif" font-size="14.00" fill="#000000">ciliary part</text>
</g>
<!-- GO:0060170&#45;&gt;GO:0044441 -->
<g id="edge46" class="edge">
<title>GO:0060170&#45;&gt;GO:0044441</title>
<path fill="none" stroke="#000000" d="M1037.7722,-119.1553C1053.2996,-129.9041 1072.56,-143.2471 1089.7711,-155.2 1094.9435,-158.7921 1100.3921,-162.5807 1105.7583,-166.3145"/>
<polygon fill="#000000" stroke="#000000" points="1103.8643,-169.2606 1114.0713,-172.1009 1107.8633,-163.5153 1103.8643,-169.2606"/>
</g>
<!-- GO:0031090 -->
<g id="node36" class="node">
<title>GO:0031090</title>
<polygon fill="#ffffff" stroke="#000000" points="1123.9427,-402.2019 993.5995,-402.2019 993.5995,-360.9981 1123.9427,-360.9981 1123.9427,-402.2019"/>
<text text-anchor="middle" x="1058.7711" y="-385.8" font-family="Times,serif" font-size="14.00" fill="#000000">GO:0031090</text>
<text text-anchor="middle" x="1058.7711" y="-369" font-family="Times,serif" font-size="14.00" fill="#000000">organelle membrane</text>
</g>
<!-- GO:0098588&#45;&gt;GO:0031090 -->
<g id="edge47" class="edge">
<title>GO:0098588&#45;&gt;GO:0031090</title>
<path fill="none" stroke="#000000" d="M1050.7373,-222.0812C1064.6115,-234.0345 1078.3236,-249.133 1085.7711,-266.4 1097.7123,-294.0855 1087.0848,-327.8937 1075.8428,-351.7027"/>
<polygon fill="#000000" stroke="#000000" points="1072.5689,-350.4237 1071.2185,-360.9321 1078.8273,-353.5594 1072.5689,-350.4237"/>
</g>
<!-- GO:0044441&#45;&gt;GO:0044463 -->
<g id="edge48" class="edge">
<title>GO:0044441&#45;&gt;GO:0044463</title>
<path fill="none" stroke="#000000" d="M1119.0257,-213.4464C1110.2663,-219.7962 1100.0292,-226.2093 1089.7711,-230.4 1000.8924,-266.7092 969.3185,-240.851 876.7711,-266.4 871.2488,-267.9245 865.5716,-269.7097 859.9308,-271.6329"/>
<polygon fill="#000000" stroke="#000000" points="858.759,-268.3348 850.5058,-274.9783 861.1005,-274.9316 858.759,-268.3348"/>
</g>
<!-- GO:0044422 -->
<g id="node37" class="node">
<title>GO:0044422</title>
<polygon fill="#ffffff" stroke="#000000" points="1113.6232,-479.8019 1019.919,-479.8019 1019.919,-438.5981 1113.6232,-438.5981 1113.6232,-479.8019"/>
<text text-anchor="middle" x="1066.7711" y="-463.4" font-family="Times,serif" font-size="14.00" fill="#000000">GO:0044422</text>
<text text-anchor="middle" x="1066.7711" y="-446.6" font-family="Times,serif" font-size="14.00" fill="#000000">organelle part</text>
</g>
<!-- GO:0044441&#45;&gt;GO:0044422 -->
<g id="edge49" class="edge">
<title>GO:0044441&#45;&gt;GO:0044422</title>
<path fill="none" stroke="#000000" d="M1147.7816,-213.4679C1154.3243,-252.647 1163.6794,-339.4318 1132.7711,-402.4 1127.2548,-413.6382 1118.4009,-423.5493 1108.946,-431.816"/>
<polygon fill="#000000" stroke="#000000" points="1106.4556,-429.3309 1100.9226,-438.3662 1110.8825,-434.7533 1106.4556,-429.3309"/>
</g>
<!-- GO:0031090&#45;&gt;GO:0016020 -->
<g id="edge50" class="edge">
<title>GO:0031090&#45;&gt;GO:0016020</title>
<path fill="none" stroke="#000000" d="M1031.705,-402.3954C1019.8176,-411.5286 1005.7043,-422.3721 993.0108,-432.1248"/>
<polygon fill="#000000" stroke="#000000" points="990.7093,-429.4792 984.912,-438.3472 994.9741,-435.03 990.7093,-429.4792"/>
</g>
<!-- GO:0031090&#45;&gt;GO:0044422 -->
<g id="edge51" class="edge">
<title>GO:0031090&#45;&gt;GO:0044422</title>
<path fill="none" stroke="#000000" d="M1060.915,-402.3954C1061.731,-410.3109 1062.6794,-419.5109 1063.5724,-428.1722"/>
<polygon fill="#000000" stroke="#000000" points="1060.1142,-428.7589 1064.6213,-438.3472 1067.0773,-428.041 1060.1142,-428.7589"/>
</g>
<!-- GO:0044422&#45;&gt;GO:0005575 -->
<g id="edge52" class="edge">
<title>GO:0044422&#45;&gt;GO:0005575</title>
<path fill="none" stroke="#000000" d="M1019.8157,-478.5816C995.1157,-488.7769 964.5767,-501.3824 938.2386,-512.2538"/>
<polygon fill="#000000" stroke="#000000" points="936.6519,-509.1223 928.7438,-516.173 939.3227,-515.5927 936.6519,-509.1223"/>
</g>
<!-- GO:0005886 -->
<g id="node38" class="node">
<title>GO:0005886</title>
<polygon fill="#ffffff" stroke="#000000" points="938.0119,-402.2019 819.5303,-402.2019 819.5303,-360.9981 938.0119,-360.9981 938.0119,-402.2019"/>
<text text-anchor="middle" x="878.7711" y="-385.8" font-family="Times,serif" font-size="14.00" fill="#000000">GO:0005886</text>
<text text-anchor="middle" x="878.7711" y="-369" font-family="Times,serif" font-size="14.00" fill="#000000">plasma membrane</text>
</g>
<!-- GO:0005886&#45;&gt;GO:0044464 -->
<g id="edge54" class="edge">
<title>GO:0005886&#45;&gt;GO:0044464</title>
<path fill="none" stroke="#000000" d="M844.4694,-402.3954C828.9739,-411.7896 810.4938,-422.9931 794.0569,-432.958"/>
<polygon fill="#000000" stroke="#000000" points="791.9042,-430.17 785.1674,-438.3472 795.5332,-436.1559 791.9042,-430.17"/>
</g>
<!-- GO:0005886&#45;&gt;GO:0016020 -->
<g id="edge53" class="edge">
<title>GO:0005886&#45;&gt;GO:0016020</title>
<path fill="none" stroke="#000000" d="M899.9417,-402.3954C908.974,-411.2677 919.6494,-421.7539 929.3537,-431.2862"/>
<polygon fill="#000000" stroke="#000000" points="926.9554,-433.8365 936.5421,-438.3472 931.8607,-428.8427 926.9554,-433.8365"/>
</g>
<!-- GO:0005929 -->
<g id="node39" class="node">
<title>GO:0005929</title>
<polygon fill="#ffffff" stroke="#000000" points="566.375,-316.2019 477.1672,-316.2019 477.1672,-274.9981 566.375,-274.9981 566.375,-316.2019"/>
<text text-anchor="middle" x="521.7711" y="-299.8" font-family="Times,serif" font-size="14.00" fill="#000000">GO:0005929</text>
<text text-anchor="middle" x="521.7711" y="-283" font-family="Times,serif" font-size="14.00" fill="#000000">cilium</text>
</g>
<!-- GO:0005929&#45;&gt;GO:0043226 -->
<g id="edge56" class="edge">
<title>GO:0005929&#45;&gt;GO:0043226</title>
<path fill="none" stroke="#000000" d="M487.3501,-316.3046C481.2919,-319.4409 474.9463,-322.4186 468.7711,-324.8 406.9061,-348.6573 384.9997,-340.8695 318.1689,-360.5885"/>
<polygon fill="#000000" stroke="#000000" points="316.9749,-357.2934 308.4317,-363.5596 319.0179,-363.9886 316.9749,-357.2934"/>
</g>
<!-- GO:0042995 -->
<g id="node40" class="node">
<title>GO:0042995</title>
<polygon fill="#ffffff" stroke="#000000" points="637.2443,-402.2019 540.2979,-402.2019 540.2979,-360.9981 637.2443,-360.9981 637.2443,-402.2019"/>
<text text-anchor="middle" x="588.7711" y="-385.8" font-family="Times,serif" font-size="14.00" fill="#000000">GO:0042995</text>
<text text-anchor="middle" x="588.7711" y="-369" font-family="Times,serif" font-size="14.00" fill="#000000">cell projection</text>
</g>
<!-- GO:0005929&#45;&gt;GO:0042995 -->
<g id="edge55" class="edge">
<title>GO:0005929&#45;&gt;GO:0042995</title>
<path fill="none" stroke="#000000" d="M537.9899,-316.4182C546.5489,-327.4043 557.1803,-341.0506 566.5003,-353.0137"/>
<polygon fill="#000000" stroke="#000000" points="563.7948,-355.2359 572.7016,-360.9735 569.3168,-350.9339 563.7948,-355.2359"/>
</g>
<!-- GO:0042995&#45;&gt;GO:0044464 -->
<g id="edge57" class="edge">
<title>GO:0042995&#45;&gt;GO:0044464</title>
<path fill="none" stroke="#000000" d="M632.1841,-402.3954C652.5129,-412.1331 676.9003,-423.815 698.2591,-434.0461"/>
<polygon fill="#000000" stroke="#000000" points="696.9886,-437.3183 707.5194,-438.4819 700.0127,-431.0052 696.9886,-437.3183"/>
</g>
<!-- GO:0005622 -->
<g id="node41" class="node">
<title>GO:0005622</title>
<polygon fill="#ffffff" stroke="#000000" points="415.375,-402.2019 326.1672,-402.2019 326.1672,-360.9981 415.375,-360.9981 415.375,-402.2019"/>
<text text-anchor="middle" x="370.7711" y="-385.8" font-family="Times,serif" font-size="14.00" fill="#000000">GO:0005622</text>
<text text-anchor="middle" x="370.7711" y="-369" font-family="Times,serif" font-size="14.00" fill="#000000">intracellular</text>
</g>
<!-- GO:0005622&#45;&gt;GO:0044464 -->
<g id="edge58" class="edge">
<title>GO:0005622&#45;&gt;GO:0044464</title>
<path fill="none" stroke="#000000" d="M415.3736,-399.8367C418.1956,-400.7625 421.0107,-401.6272 423.7711,-402.4 517.6545,-428.6848 630.2803,-445.0367 695.8626,-453.1036"/>
<polygon fill="#000000" stroke="#000000" points="695.626,-456.6004 705.9741,-454.3274 696.4671,-449.6511 695.626,-456.6004"/>
</g>
</g>
</svg>
