<?xml version="1.0" encoding="UTF-8" standalone="no"?>
<!DOCTYPE svg PUBLIC "-//W3C//DTD SVG 1.1//EN"
 "http://www.w3.org/Graphics/SVG/1.1/DTD/svg11.dtd">
<!-- Generated by graphviz version 2.40.1 (20161225.0304)
 -->
<!-- Title: G Pages: 1 -->
<svg width="1590pt" height="761pt"
 viewBox="0.00 0.00 1590.08 760.80" xmlns="http://www.w3.org/2000/svg" xmlns:xlink="http://www.w3.org/1999/xlink">
<g id="graph0" class="graph" transform="scale(1 1) rotate(0) translate(4 756.8)">
<title>G</title>
<polygon fill="#ffffff" stroke="transparent" points="-4,4 -4,-756.8 1586.0779,-756.8 1586.0779,4 -4,4"/>
<!-- GO:1904321 -->
<g id="node1" class="node">
<title>GO:1904321</title>
<polygon fill="#ffffff" stroke="#000000" points="216.188,-247.0019 82.3534,-247.0019 82.3534,-205.7981 216.188,-205.7981 216.188,-247.0019"/>
<text text-anchor="middle" x="149.2707" y="-230.6" font-family="Times,serif" font-size="14.00" fill="#000000">GO:1904321</text>
<text text-anchor="middle" x="149.2707" y="-213.8" font-family="Times,serif" font-size="14.00" fill="#000000">response to forskolin</text>
</g>
<!-- GO:0033993 -->
<g id="node2" class="node">
<title>GO:0033993</title>
<polygon fill="#ffffff" stroke="#000000" points="108.3131,-375.0019 .2283,-375.0019 .2283,-333.7981 108.3131,-333.7981 108.3131,-375.0019"/>
<text text-anchor="middle" x="54.2707" y="-358.6" font-family="Times,serif" font-size="14.00" fill="#000000">GO:0033993</text>
<text text-anchor="middle" x="54.2707" y="-341.8" font-family="Times,serif" font-size="14.00" fill="#000000">response to lipid</text>
</g>
<!-- GO:1904321&#45;&gt;GO:0033993 -->
<g id="edge1" class="edge">
<title>GO:1904321&#45;&gt;GO:0033993</title>
<path fill="none" stroke="#000000" d="M133.7959,-247.2503C118.0622,-268.4493 93.5539,-301.4711 75.9028,-325.2537"/>
<polygon fill="#000000" stroke="#000000" points="72.8882,-323.4427 69.7389,-333.5586 78.5092,-327.6145 72.8882,-323.4427"/>
</g>
<!-- GO:1901654 -->
<g id="node3" class="node">
<title>GO:1901654</title>
<polygon fill="#ffffff" stroke="#000000" points="390.4602,-375.0019 270.0812,-375.0019 270.0812,-333.7981 390.4602,-333.7981 390.4602,-375.0019"/>
<text text-anchor="middle" x="330.2707" y="-358.6" font-family="Times,serif" font-size="14.00" fill="#000000">GO:1901654</text>
<text text-anchor="middle" x="330.2707" y="-341.8" font-family="Times,serif" font-size="14.00" fill="#000000">response to ketone</text>
</g>
<!-- GO:1904321&#45;&gt;GO:1901654 -->
<g id="edge2" class="edge">
<title>GO:1904321&#45;&gt;GO:1901654</title>
<path fill="none" stroke="#000000" d="M178.094,-247.1328C192.2785,-257.31 209.6464,-269.7326 225.2707,-280.8 247.3649,-296.4503 272.1656,-313.8426 292.1142,-327.7891"/>
<polygon fill="#000000" stroke="#000000" points="290.1426,-330.6812 300.3444,-333.5401 294.152,-324.9432 290.1426,-330.6812"/>
</g>
<!-- GO:0014070 -->
<g id="node4" class="node">
<title>GO:0014070</title>
<polygon fill="#ffffff" stroke="#000000" points="251.6208,-383.8014 126.9206,-383.8014 126.9206,-324.9986 251.6208,-324.9986 251.6208,-383.8014"/>
<text text-anchor="middle" x="189.2707" y="-367" font-family="Times,serif" font-size="14.00" fill="#000000">GO:0014070</text>
<text text-anchor="middle" x="189.2707" y="-350.2" font-family="Times,serif" font-size="14.00" fill="#000000">response to organic</text>
<text text-anchor="middle" x="189.2707" y="-333.4" font-family="Times,serif" font-size="14.00" fill="#000000">cyclic compound</text>
</g>
<!-- GO:1904321&#45;&gt;GO:0014070 -->
<g id="edge3" class="edge">
<title>GO:1904321&#45;&gt;GO:0014070</title>
<path fill="none" stroke="#000000" d="M155.7864,-247.2503C161.533,-265.6395 170.0598,-292.925 177.0704,-315.359"/>
<polygon fill="#000000" stroke="#000000" points="173.7457,-316.4543 180.0692,-324.9551 180.427,-314.3664 173.7457,-316.4543"/>
</g>
<!-- GO:0010033 -->
<g id="node5" class="node">
<title>GO:0010033</title>
<polygon fill="#ffffff" stroke="#000000" points="341.6208,-486.6014 216.9206,-486.6014 216.9206,-427.7986 341.6208,-427.7986 341.6208,-486.6014"/>
<text text-anchor="middle" x="279.2707" y="-469.8" font-family="Times,serif" font-size="14.00" fill="#000000">GO:0010033</text>
<text text-anchor="middle" x="279.2707" y="-453" font-family="Times,serif" font-size="14.00" fill="#000000">response to organic</text>
<text text-anchor="middle" x="279.2707" y="-436.2" font-family="Times,serif" font-size="14.00" fill="#000000">substance</text>
</g>
<!-- GO:0033993&#45;&gt;GO:0010033 -->
<g id="edge4" class="edge">
<title>GO:0033993&#45;&gt;GO:0010033</title>
<path fill="none" stroke="#000000" d="M87.3098,-375.0524C97.1137,-380.8395 107.9834,-386.929 118.2707,-392 146.8251,-406.0755 179.2073,-419.6295 207.4048,-430.6986"/>
<polygon fill="#000000" stroke="#000000" points="206.2069,-433.9881 216.7954,-434.3544 208.7464,-427.465 206.2069,-433.9881"/>
</g>
<!-- GO:1901654&#45;&gt;GO:0010033 -->
<g id="edge6" class="edge">
<title>GO:1901654&#45;&gt;GO:0010033</title>
<path fill="none" stroke="#000000" d="M319.9501,-375.2031C313.7314,-387.7381 305.619,-404.0901 298.2763,-418.8907"/>
<polygon fill="#000000" stroke="#000000" points="295.1366,-417.3441 293.8277,-427.8577 301.4073,-420.4551 295.1366,-417.3441"/>
</g>
<!-- GO:1901700 -->
<g id="node6" class="node">
<title>GO:1901700</title>
<polygon fill="#ffffff" stroke="#000000" points="496.9772,-486.6014 359.5642,-486.6014 359.5642,-427.7986 496.9772,-427.7986 496.9772,-486.6014"/>
<text text-anchor="middle" x="428.2707" y="-469.8" font-family="Times,serif" font-size="14.00" fill="#000000">GO:1901700</text>
<text text-anchor="middle" x="428.2707" y="-453" font-family="Times,serif" font-size="14.00" fill="#000000">response to oxygen&#45;</text>
<text text-anchor="middle" x="428.2707" y="-436.2" font-family="Times,serif" font-size="14.00" fill="#000000">containing compound</text>
</g>
<!-- GO:1901654&#45;&gt;GO:1901700 -->
<g id="edge5" class="edge">
<title>GO:1901654&#45;&gt;GO:1901700</title>
<path fill="none" stroke="#000000" d="M350.1025,-375.2031C362.5031,-388.2111 378.8223,-405.3297 393.3409,-420.5594"/>
<polygon fill="#000000" stroke="#000000" points="390.8651,-423.0347 400.2985,-427.8577 395.9317,-418.2046 390.8651,-423.0347"/>
</g>
<!-- GO:0014070&#45;&gt;GO:0010033 -->
<g id="edge7" class="edge">
<title>GO:0014070&#45;&gt;GO:0010033</title>
<path fill="none" stroke="#000000" d="M215.0611,-383.8584C224.9465,-395.1497 236.3545,-408.1801 246.7873,-420.0967"/>
<polygon fill="#000000" stroke="#000000" points="244.256,-422.5189 253.4765,-427.7373 249.5228,-417.9079 244.256,-422.5189"/>
</g>
<!-- GO:0042221 -->
<g id="node7" class="node">
<title>GO:0042221</title>
<polygon fill="#ffffff" stroke="#000000" points="496.1711,-572.2019 362.3703,-572.2019 362.3703,-530.9981 496.1711,-530.9981 496.1711,-572.2019"/>
<text text-anchor="middle" x="429.2707" y="-555.8" font-family="Times,serif" font-size="14.00" fill="#000000">GO:0042221</text>
<text text-anchor="middle" x="429.2707" y="-539" font-family="Times,serif" font-size="14.00" fill="#000000">response to chemical</text>
</g>
<!-- GO:0010033&#45;&gt;GO:0042221 -->
<g id="edge8" class="edge">
<title>GO:0010033&#45;&gt;GO:0042221</title>
<path fill="none" stroke="#000000" d="M325.9094,-486.5513C345.7476,-499.0361 368.6904,-513.4748 387.9137,-525.5727"/>
<polygon fill="#000000" stroke="#000000" points="386.1321,-528.5868 396.4598,-530.951 389.8605,-522.6624 386.1321,-528.5868"/>
</g>
<!-- GO:1901700&#45;&gt;GO:0042221 -->
<g id="edge9" class="edge">
<title>GO:1901700&#45;&gt;GO:0042221</title>
<path fill="none" stroke="#000000" d="M428.5816,-486.5513C428.6972,-497.4614 428.8286,-509.8637 428.9454,-520.892"/>
<polygon fill="#000000" stroke="#000000" points="425.4461,-520.9887 429.052,-530.951 432.4457,-520.9144 425.4461,-520.9887"/>
</g>
<!-- GO:0050896 -->
<g id="node8" class="node">
<title>GO:0050896</title>
<polygon fill="#ffffff" stroke="#000000" points="641.5923,-666.6019 510.9491,-666.6019 510.9491,-625.3981 641.5923,-625.3981 641.5923,-666.6019"/>
<text text-anchor="middle" x="576.2707" y="-650.2" font-family="Times,serif" font-size="14.00" fill="#000000">GO:0050896</text>
<text text-anchor="middle" x="576.2707" y="-633.4" font-family="Times,serif" font-size="14.00" fill="#000000">response to stimulus</text>
</g>
<!-- GO:0042221&#45;&gt;GO:0050896 -->
<g id="edge10" class="edge">
<title>GO:0042221&#45;&gt;GO:0050896</title>
<path fill="none" stroke="#000000" d="M461.5305,-572.3165C483.2635,-586.2729 512.109,-604.7968 535.4405,-619.7798"/>
<polygon fill="#000000" stroke="#000000" points="533.7805,-622.8733 544.0862,-625.3318 537.563,-616.9832 533.7805,-622.8733"/>
</g>
<!-- GO:0008150 -->
<g id="node9" class="node">
<title>GO:0008150</title>
<polygon fill="#ffffff" stroke="#000000" points="872.7413,-752.6019 751.8001,-752.6019 751.8001,-711.3981 872.7413,-711.3981 872.7413,-752.6019"/>
<text text-anchor="middle" x="812.2707" y="-736.2" font-family="Times,serif" font-size="14.00" fill="#000000">GO:0008150</text>
<text text-anchor="middle" x="812.2707" y="-719.4" font-family="Times,serif" font-size="14.00" fill="#000000">biological_process</text>
</g>
<!-- GO:0050896&#45;&gt;GO:0008150 -->
<g id="edge11" class="edge">
<title>GO:0050896&#45;&gt;GO:0008150</title>
<path fill="none" stroke="#000000" d="M633.0989,-666.7086C667.0091,-679.0657 710.2353,-694.8176 745.7337,-707.7535"/>
<polygon fill="#000000" stroke="#000000" points="744.933,-711.1868 755.527,-711.3222 747.3298,-704.6099 744.933,-711.1868"/>
</g>
<!-- GO:0071407 -->
<g id="node10" class="node">
<title>GO:0071407</title>
<polygon fill="#ffffff" stroke="#000000" points="533.7821,-255.8014 376.7593,-255.8014 376.7593,-196.9986 533.7821,-196.9986 533.7821,-255.8014"/>
<text text-anchor="middle" x="455.2707" y="-239" font-family="Times,serif" font-size="14.00" fill="#000000">GO:0071407</text>
<text text-anchor="middle" x="455.2707" y="-222.2" font-family="Times,serif" font-size="14.00" fill="#000000">cellular response to</text>
<text text-anchor="middle" x="455.2707" y="-205.4" font-family="Times,serif" font-size="14.00" fill="#000000">organic cyclic compound</text>
</g>
<!-- GO:0071407&#45;&gt;GO:0014070 -->
<g id="edge13" class="edge">
<title>GO:0071407&#45;&gt;GO:0014070</title>
<path fill="none" stroke="#000000" d="M412.0498,-255.8149C398.1249,-264.5499 382.3798,-273.6769 367.2707,-280.8 322.2672,-302.0165 307.0127,-297.2265 261.2707,-316.8 258.2888,-318.076 255.2616,-319.4262 252.2211,-320.827"/>
<polygon fill="#000000" stroke="#000000" points="250.6274,-317.7091 243.0927,-325.1575 253.6278,-324.0335 250.6274,-317.7091"/>
</g>
<!-- GO:0071310 -->
<g id="node11" class="node">
<title>GO:0071310</title>
<polygon fill="#ffffff" stroke="#000000" points="533.6166,-383.8014 408.9248,-383.8014 408.9248,-324.9986 533.6166,-324.9986 533.6166,-383.8014"/>
<text text-anchor="middle" x="471.2707" y="-367" font-family="Times,serif" font-size="14.00" fill="#000000">GO:0071310</text>
<text text-anchor="middle" x="471.2707" y="-350.2" font-family="Times,serif" font-size="14.00" fill="#000000">cellular response to</text>
<text text-anchor="middle" x="471.2707" y="-333.4" font-family="Times,serif" font-size="14.00" fill="#000000">organic substance</text>
</g>
<!-- GO:0071407&#45;&gt;GO:0071310 -->
<g id="edge12" class="edge">
<title>GO:0071407&#45;&gt;GO:0071310</title>
<path fill="none" stroke="#000000" d="M458.9414,-255.7658C461.1468,-273.4089 463.9803,-296.0772 466.3748,-315.2327"/>
<polygon fill="#000000" stroke="#000000" points="462.9036,-315.6822 467.6171,-325.1709 469.8496,-314.8139 462.9036,-315.6822"/>
</g>
<!-- GO:0071310&#45;&gt;GO:0010033 -->
<g id="edge14" class="edge">
<title>GO:0071310&#45;&gt;GO:0010033</title>
<path fill="none" stroke="#000000" d="M416.5082,-383.7208C393.6081,-395.9819 366.8427,-410.3125 343.0604,-423.0459"/>
<polygon fill="#000000" stroke="#000000" points="341.2698,-420.0345 334.106,-427.8403 344.574,-426.2056 341.2698,-420.0345"/>
</g>
<!-- GO:0070887 -->
<g id="node12" class="node">
<title>GO:0070887</title>
<polygon fill="#ffffff" stroke="#000000" points="639.6166,-486.6014 514.9248,-486.6014 514.9248,-427.7986 639.6166,-427.7986 639.6166,-486.6014"/>
<text text-anchor="middle" x="577.2707" y="-469.8" font-family="Times,serif" font-size="14.00" fill="#000000">GO:0070887</text>
<text text-anchor="middle" x="577.2707" y="-453" font-family="Times,serif" font-size="14.00" fill="#000000">cellular response to</text>
<text text-anchor="middle" x="577.2707" y="-436.2" font-family="Times,serif" font-size="14.00" fill="#000000">chemical stimulus</text>
</g>
<!-- GO:0071310&#45;&gt;GO:0070887 -->
<g id="edge15" class="edge">
<title>GO:0071310&#45;&gt;GO:0070887</title>
<path fill="none" stroke="#000000" d="M501.646,-383.8584C513.3997,-395.2572 526.981,-408.4285 539.3632,-420.4369"/>
<polygon fill="#000000" stroke="#000000" points="537.2756,-423.288 546.8909,-427.7373 542.149,-418.2629 537.2756,-423.288"/>
</g>
<!-- GO:0070887&#45;&gt;GO:0042221 -->
<g id="edge16" class="edge">
<title>GO:0070887&#45;&gt;GO:0042221</title>
<path fill="none" stroke="#000000" d="M531.2539,-486.5513C511.6802,-499.0361 489.0433,-513.4748 470.0763,-525.5727"/>
<polygon fill="#000000" stroke="#000000" points="468.193,-522.6225 461.6442,-530.951 471.9573,-528.5242 468.193,-522.6225"/>
</g>
<!-- GO:0051716 -->
<g id="node13" class="node">
<title>GO:0051716</title>
<polygon fill="#ffffff" stroke="#000000" points="638.6166,-581.0014 513.9248,-581.0014 513.9248,-522.1986 638.6166,-522.1986 638.6166,-581.0014"/>
<text text-anchor="middle" x="576.2707" y="-564.2" font-family="Times,serif" font-size="14.00" fill="#000000">GO:0051716</text>
<text text-anchor="middle" x="576.2707" y="-547.4" font-family="Times,serif" font-size="14.00" fill="#000000">cellular response to</text>
<text text-anchor="middle" x="576.2707" y="-530.6" font-family="Times,serif" font-size="14.00" fill="#000000">stimulus</text>
</g>
<!-- GO:0070887&#45;&gt;GO:0051716 -->
<g id="edge17" class="edge">
<title>GO:0070887&#45;&gt;GO:0051716</title>
<path fill="none" stroke="#000000" d="M576.9598,-486.5513C576.8742,-494.6318 576.7799,-503.5308 576.6893,-512.0838"/>
<polygon fill="#000000" stroke="#000000" points="573.1877,-512.2303 576.5814,-522.2669 580.1873,-512.3045 573.1877,-512.2303"/>
</g>
<!-- GO:0051716&#45;&gt;GO:0050896 -->
<g id="edge18" class="edge">
<title>GO:0051716&#45;&gt;GO:0050896</title>
<path fill="none" stroke="#000000" d="M576.2707,-580.9513C576.2707,-591.8614 576.2707,-604.2637 576.2707,-615.292"/>
<polygon fill="#000000" stroke="#000000" points="572.7708,-615.3509 576.2707,-625.351 579.7708,-615.351 572.7708,-615.3509"/>
</g>
<!-- GO:0009987 -->
<g id="node14" class="node">
<title>GO:0009987</title>
<polygon fill="#ffffff" stroke="#000000" points="790.2269,-666.6019 686.3145,-666.6019 686.3145,-625.3981 790.2269,-625.3981 790.2269,-666.6019"/>
<text text-anchor="middle" x="738.2707" y="-650.2" font-family="Times,serif" font-size="14.00" fill="#000000">GO:0009987</text>
<text text-anchor="middle" x="738.2707" y="-633.4" font-family="Times,serif" font-size="14.00" fill="#000000">cellular process</text>
</g>
<!-- GO:0051716&#45;&gt;GO:0009987 -->
<g id="edge19" class="edge">
<title>GO:0051716&#45;&gt;GO:0009987</title>
<path fill="none" stroke="#000000" d="M626.6405,-580.9513C648.2587,-593.5486 673.2907,-608.1351 694.1653,-620.2991"/>
<polygon fill="#000000" stroke="#000000" points="692.4326,-623.3402 702.8349,-625.351 695.9569,-617.2922 692.4326,-623.3402"/>
</g>
<!-- GO:0009987&#45;&gt;GO:0008150 -->
<g id="edge20" class="edge">
<title>GO:0009987&#45;&gt;GO:0008150</title>
<path fill="none" stroke="#000000" d="M756.184,-666.8182C765.7281,-677.9099 777.6053,-691.7132 787.9697,-703.7583"/>
<polygon fill="#000000" stroke="#000000" points="785.3468,-706.0762 794.5223,-711.3735 790.6529,-701.5105 785.3468,-706.0762"/>
</g>
<!-- GO:0071396 -->
<g id="node15" class="node">
<title>GO:0071396</title>
<polygon fill="#ffffff" stroke="#000000" points="358.6166,-255.8014 233.9248,-255.8014 233.9248,-196.9986 358.6166,-196.9986 358.6166,-255.8014"/>
<text text-anchor="middle" x="296.2707" y="-239" font-family="Times,serif" font-size="14.00" fill="#000000">GO:0071396</text>
<text text-anchor="middle" x="296.2707" y="-222.2" font-family="Times,serif" font-size="14.00" fill="#000000">cellular response to</text>
<text text-anchor="middle" x="296.2707" y="-205.4" font-family="Times,serif" font-size="14.00" fill="#000000">lipid</text>
</g>
<!-- GO:0071396&#45;&gt;GO:0033993 -->
<g id="edge21" class="edge">
<title>GO:0071396&#45;&gt;GO:0033993</title>
<path fill="none" stroke="#000000" d="M262.798,-255.6605C251.4275,-264.5895 238.2928,-273.8681 225.2707,-280.8 180.98,-304.3769 163.9226,-295.9809 118.2707,-316.8 110.6018,-320.2973 102.6738,-324.462 95.1199,-328.7247"/>
<polygon fill="#000000" stroke="#000000" points="93.3608,-325.6988 86.4619,-333.7396 96.8694,-331.756 93.3608,-325.6988"/>
</g>
<!-- GO:0071396&#45;&gt;GO:0071310 -->
<g id="edge22" class="edge">
<title>GO:0071396&#45;&gt;GO:0071310</title>
<path fill="none" stroke="#000000" d="M334.0222,-255.7469C344.7085,-263.9389 356.3929,-272.7881 367.2707,-280.8 384.566,-293.5386 403.7048,-307.2034 420.8,-319.2588"/>
<polygon fill="#000000" stroke="#000000" points="418.8185,-322.1441 429.0109,-325.0365 422.8468,-316.4194 418.8185,-322.1441"/>
</g>
<!-- GO:0050804 -->
<g id="node16" class="node">
<title>GO:0050804</title>
<polygon fill="#ffffff" stroke="#000000" points="1045.8633,-383.8014 900.6781,-383.8014 900.6781,-324.9986 1045.8633,-324.9986 1045.8633,-383.8014"/>
<text text-anchor="middle" x="973.2707" y="-367" font-family="Times,serif" font-size="14.00" fill="#000000">GO:0050804</text>
<text text-anchor="middle" x="973.2707" y="-350.2" font-family="Times,serif" font-size="14.00" fill="#000000">modulation of synaptic</text>
<text text-anchor="middle" x="973.2707" y="-333.4" font-family="Times,serif" font-size="14.00" fill="#000000">transmission</text>
</g>
<!-- GO:0010646 -->
<g id="node17" class="node">
<title>GO:0010646</title>
<polygon fill="#ffffff" stroke="#000000" points="1126.9039,-486.6014 1015.6375,-486.6014 1015.6375,-427.7986 1126.9039,-427.7986 1126.9039,-486.6014"/>
<text text-anchor="middle" x="1071.2707" y="-469.8" font-family="Times,serif" font-size="14.00" fill="#000000">GO:0010646</text>
<text text-anchor="middle" x="1071.2707" y="-453" font-family="Times,serif" font-size="14.00" fill="#000000">regulation of cell</text>
<text text-anchor="middle" x="1071.2707" y="-436.2" font-family="Times,serif" font-size="14.00" fill="#000000">communication</text>
</g>
<!-- GO:0050804&#45;&gt;GO:0010646 -->
<g id="edge23" class="edge">
<title>GO:0050804&#45;&gt;GO:0010646</title>
<path fill="none" stroke="#000000" d="M1001.3536,-383.8584C1012.2202,-395.2572 1024.7764,-408.4285 1036.2242,-420.4369"/>
<polygon fill="#000000" stroke="#000000" points="1033.7503,-422.9143 1043.1837,-427.7373 1038.817,-418.0843 1033.7503,-422.9143"/>
</g>
<!-- GO:0023051 -->
<g id="node18" class="node">
<title>GO:0023051</title>
<polygon fill="#ffffff" stroke="#000000" points="972.5241,-572.2019 830.0173,-572.2019 830.0173,-530.9981 972.5241,-530.9981 972.5241,-572.2019"/>
<text text-anchor="middle" x="901.2707" y="-555.8" font-family="Times,serif" font-size="14.00" fill="#000000">GO:0023051</text>
<text text-anchor="middle" x="901.2707" y="-539" font-family="Times,serif" font-size="14.00" fill="#000000">regulation of signaling</text>
</g>
<!-- GO:0050804&#45;&gt;GO:0023051 -->
<g id="edge24" class="edge">
<title>GO:0050804&#45;&gt;GO:0023051</title>
<path fill="none" stroke="#000000" d="M900.4121,-381.7951C880.624,-392.9773 861.5626,-408.0841 850.2707,-428 837.4689,-450.5789 841.8134,-461.861 850.2707,-486.4 854.8977,-499.8254 863.5511,-512.6006 872.4332,-523.2273"/>
<polygon fill="#000000" stroke="#000000" points="869.9683,-525.724 879.2071,-530.9101 875.2189,-521.0945 869.9683,-525.724"/>
</g>
<!-- GO:0050794 -->
<g id="node19" class="node">
<title>GO:0050794</title>
<polygon fill="#ffffff" stroke="#000000" points="1281.1697,-581.0014 1147.3717,-581.0014 1147.3717,-522.1986 1281.1697,-522.1986 1281.1697,-581.0014"/>
<text text-anchor="middle" x="1214.2707" y="-564.2" font-family="Times,serif" font-size="14.00" fill="#000000">GO:0050794</text>
<text text-anchor="middle" x="1214.2707" y="-547.4" font-family="Times,serif" font-size="14.00" fill="#000000">regulation of cellular</text>
<text text-anchor="middle" x="1214.2707" y="-530.6" font-family="Times,serif" font-size="14.00" fill="#000000">process</text>
</g>
<!-- GO:0010646&#45;&gt;GO:0050794 -->
<g id="edge25" class="edge">
<title>GO:0010646&#45;&gt;GO:0050794</title>
<path fill="none" stroke="#000000" d="M1115.7329,-486.5513C1130.1257,-496.0525 1146.2327,-506.6854 1161.1864,-516.5569"/>
<polygon fill="#000000" stroke="#000000" points="1159.5622,-519.6785 1169.836,-522.2669 1163.4186,-513.8366 1159.5622,-519.6785"/>
</g>
<!-- GO:0065007 -->
<g id="node20" class="node">
<title>GO:0065007</title>
<polygon fill="#ffffff" stroke="#000000" points="953.5241,-666.6019 821.0173,-666.6019 821.0173,-625.3981 953.5241,-625.3981 953.5241,-666.6019"/>
<text text-anchor="middle" x="887.2707" y="-650.2" font-family="Times,serif" font-size="14.00" fill="#000000">GO:0065007</text>
<text text-anchor="middle" x="887.2707" y="-633.4" font-family="Times,serif" font-size="14.00" fill="#000000">biological regulation</text>
</g>
<!-- GO:0023051&#45;&gt;GO:0065007 -->
<g id="edge26" class="edge">
<title>GO:0023051&#45;&gt;GO:0065007</title>
<path fill="none" stroke="#000000" d="M898.1636,-572.5504C896.3149,-585.0165 893.9349,-601.0645 891.8713,-614.9786"/>
<polygon fill="#000000" stroke="#000000" points="888.374,-614.7029 890.3691,-625.1081 895.2983,-615.7298 888.374,-614.7029"/>
</g>
<!-- GO:0050789 -->
<g id="node21" class="node">
<title>GO:0050789</title>
<polygon fill="#ffffff" stroke="#000000" points="1119.1851,-675.4014 971.3563,-675.4014 971.3563,-616.5986 1119.1851,-616.5986 1119.1851,-675.4014"/>
<text text-anchor="middle" x="1045.2707" y="-658.6" font-family="Times,serif" font-size="14.00" fill="#000000">GO:0050789</text>
<text text-anchor="middle" x="1045.2707" y="-641.8" font-family="Times,serif" font-size="14.00" fill="#000000">regulation of biological</text>
<text text-anchor="middle" x="1045.2707" y="-625" font-family="Times,serif" font-size="14.00" fill="#000000">process</text>
</g>
<!-- GO:0023051&#45;&gt;GO:0050789 -->
<g id="edge27" class="edge">
<title>GO:0023051&#45;&gt;GO:0050789</title>
<path fill="none" stroke="#000000" d="M932.8721,-572.3165C950.2581,-583.714 972.2908,-598.1576 992.2336,-611.2312"/>
<polygon fill="#000000" stroke="#000000" points="990.3508,-614.182 1000.6329,-616.7374 994.1886,-608.3278 990.3508,-614.182"/>
</g>
<!-- GO:0050794&#45;&gt;GO:0065007 -->
<g id="edge28" class="edge">
<title>GO:0050794&#45;&gt;GO:0065007</title>
<path fill="none" stroke="#000000" d="M1147.3397,-578.0039C1144.2886,-578.9899 1141.2555,-579.9278 1138.2707,-580.8 1061.6337,-603.1938 1038.8576,-594.2355 962.2707,-616.8 957.0769,-618.3302 951.7371,-620.0662 946.4144,-621.9106"/>
<polygon fill="#000000" stroke="#000000" points="945.1192,-618.6568 936.8874,-625.3267 947.4819,-625.246 945.1192,-618.6568"/>
</g>
<!-- GO:0050794&#45;&gt;GO:0050789 -->
<g id="edge29" class="edge">
<title>GO:0050794&#45;&gt;GO:0050789</title>
<path fill="none" stroke="#000000" d="M1161.7244,-580.9513C1144.2379,-590.7189 1124.6103,-601.6825 1106.5235,-611.7854"/>
<polygon fill="#000000" stroke="#000000" points="1104.808,-608.7346 1097.7845,-616.6669 1108.2216,-614.8458 1104.808,-608.7346"/>
</g>
<!-- GO:0065007&#45;&gt;GO:0008150 -->
<g id="edge30" class="edge">
<title>GO:0065007&#45;&gt;GO:0008150</title>
<path fill="none" stroke="#000000" d="M869.1153,-666.8182C859.4423,-677.9099 847.4045,-691.7132 836.9001,-703.7583"/>
<polygon fill="#000000" stroke="#000000" points="834.1938,-701.5364 830.2589,-711.3735 839.4694,-706.1373 834.1938,-701.5364"/>
</g>
<!-- GO:0050789&#45;&gt;GO:0008150 -->
<g id="edge31" class="edge">
<title>GO:0050789&#45;&gt;GO:0008150</title>
<path fill="none" stroke="#000000" d="M971.548,-673.2109C941.4825,-684.3081 907.0029,-697.0345 877.83,-707.8021"/>
<polygon fill="#000000" stroke="#000000" points="876.3235,-704.6273 868.1541,-711.3735 878.7474,-711.1943 876.3235,-704.6273"/>
</g>
<!-- GO:0023057 -->
<g id="node22" class="node">
<title>GO:0023057</title>
<polygon fill="#ffffff" stroke="#000000" points="997.618,-486.6014 858.9234,-486.6014 858.9234,-427.7986 997.618,-427.7986 997.618,-486.6014"/>
<text text-anchor="middle" x="928.2707" y="-469.8" font-family="Times,serif" font-size="14.00" fill="#000000">GO:0023057</text>
<text text-anchor="middle" x="928.2707" y="-453" font-family="Times,serif" font-size="14.00" fill="#000000">negative regulation of</text>
<text text-anchor="middle" x="928.2707" y="-436.2" font-family="Times,serif" font-size="14.00" fill="#000000">signaling</text>
</g>
<!-- GO:0023057&#45;&gt;GO:0023051 -->
<g id="edge33" class="edge">
<title>GO:0023057&#45;&gt;GO:0023051</title>
<path fill="none" stroke="#000000" d="M919.8757,-486.5513C916.7231,-497.5739 913.1348,-510.1196 909.9563,-521.2326"/>
<polygon fill="#000000" stroke="#000000" points="906.5616,-520.374 907.1767,-530.951 913.2917,-522.299 906.5616,-520.374"/>
</g>
<!-- GO:0048519 -->
<g id="node23" class="node">
<title>GO:0048519</title>
<polygon fill="#ffffff" stroke="#000000" points="1129.618,-581.0014 990.9234,-581.0014 990.9234,-522.1986 1129.618,-522.1986 1129.618,-581.0014"/>
<text text-anchor="middle" x="1060.2707" y="-564.2" font-family="Times,serif" font-size="14.00" fill="#000000">GO:0048519</text>
<text text-anchor="middle" x="1060.2707" y="-547.4" font-family="Times,serif" font-size="14.00" fill="#000000">negative regulation of</text>
<text text-anchor="middle" x="1060.2707" y="-530.6" font-family="Times,serif" font-size="14.00" fill="#000000">biological process</text>
</g>
<!-- GO:0023057&#45;&gt;GO:0048519 -->
<g id="edge32" class="edge">
<title>GO:0023057&#45;&gt;GO:0048519</title>
<path fill="none" stroke="#000000" d="M969.3128,-486.5513C982.4742,-495.9637 997.1886,-506.4867 1010.8825,-516.28"/>
<polygon fill="#000000" stroke="#000000" points="1009.084,-519.2967 1019.254,-522.2669 1013.156,-513.6029 1009.084,-519.2967"/>
</g>
<!-- GO:0048519&#45;&gt;GO:0065007 -->
<g id="edge34" class="edge">
<title>GO:0048519&#45;&gt;GO:0065007</title>
<path fill="none" stroke="#000000" d="M1006.4807,-580.9513C983.2915,-593.6048 956.4242,-608.2654 934.0727,-620.4618"/>
<polygon fill="#000000" stroke="#000000" points="932.2143,-617.4886 925.1126,-625.351 935.5673,-623.6334 932.2143,-617.4886"/>
</g>
<!-- GO:0048519&#45;&gt;GO:0050789 -->
<g id="edge35" class="edge">
<title>GO:0048519&#45;&gt;GO:0050789</title>
<path fill="none" stroke="#000000" d="M1055.6068,-580.9513C1054.3087,-589.1206 1052.8777,-598.1264 1051.505,-606.7657"/>
<polygon fill="#000000" stroke="#000000" points="1048.0444,-606.2415 1049.9317,-616.6669 1054.9577,-607.34 1048.0444,-606.2415"/>
</g>
<!-- GO:1901655 -->
<g id="node24" class="node">
<title>GO:1901655</title>
<polygon fill="#ffffff" stroke="#000000" points="676.6166,-255.8014 551.9248,-255.8014 551.9248,-196.9986 676.6166,-196.9986 676.6166,-255.8014"/>
<text text-anchor="middle" x="614.2707" y="-239" font-family="Times,serif" font-size="14.00" fill="#000000">GO:1901655</text>
<text text-anchor="middle" x="614.2707" y="-222.2" font-family="Times,serif" font-size="14.00" fill="#000000">cellular response to</text>
<text text-anchor="middle" x="614.2707" y="-205.4" font-family="Times,serif" font-size="14.00" fill="#000000">ketone</text>
</g>
<!-- GO:1901655&#45;&gt;GO:1901654 -->
<g id="edge37" class="edge">
<title>GO:1901655&#45;&gt;GO:1901654</title>
<path fill="none" stroke="#000000" d="M581.8211,-255.7026C570.3105,-264.8478 556.8326,-274.2454 543.2707,-280.8 484.2625,-309.3191 461.3796,-293.1142 400.2707,-316.8 391.486,-320.205 382.4063,-324.4693 373.8143,-328.8921"/>
<polygon fill="#000000" stroke="#000000" points="371.9109,-325.9399 364.7196,-333.7204 375.1933,-332.1227 371.9109,-325.9399"/>
</g>
<!-- GO:1901701 -->
<g id="node25" class="node">
<title>GO:1901701</title>
<polygon fill="#ffffff" stroke="#000000" points="676.6166,-392.1003 551.9248,-392.1003 551.9248,-316.6997 676.6166,-316.6997 676.6166,-392.1003"/>
<text text-anchor="middle" x="614.2707" y="-375.4" font-family="Times,serif" font-size="14.00" fill="#000000">GO:1901701</text>
<text text-anchor="middle" x="614.2707" y="-358.6" font-family="Times,serif" font-size="14.00" fill="#000000">cellular response to</text>
<text text-anchor="middle" x="614.2707" y="-341.8" font-family="Times,serif" font-size="14.00" fill="#000000">oxygen&#45;containing</text>
<text text-anchor="middle" x="614.2707" y="-325" font-family="Times,serif" font-size="14.00" fill="#000000">compound</text>
</g>
<!-- GO:1901655&#45;&gt;GO:1901701 -->
<g id="edge36" class="edge">
<title>GO:1901655&#45;&gt;GO:1901701</title>
<path fill="none" stroke="#000000" d="M614.2707,-255.7658C614.2707,-270.6797 614.2707,-289.1844 614.2707,-306.1227"/>
<polygon fill="#000000" stroke="#000000" points="610.7708,-306.4207 614.2707,-316.4207 617.7708,-306.4208 610.7708,-306.4207"/>
</g>
<!-- GO:1901701&#45;&gt;GO:1901700 -->
<g id="edge38" class="edge">
<title>GO:1901701&#45;&gt;GO:1901700</title>
<path fill="none" stroke="#000000" d="M551.818,-388.9169C531.958,-399.8932 510.0074,-412.0251 490.1856,-422.9804"/>
<polygon fill="#000000" stroke="#000000" points="488.3024,-420.0221 481.2432,-427.9227 491.6885,-426.1487 488.3024,-420.0221"/>
</g>
<!-- GO:1901701&#45;&gt;GO:0070887 -->
<g id="edge39" class="edge">
<title>GO:1901701&#45;&gt;GO:0070887</title>
<path fill="none" stroke="#000000" d="M600.7034,-392.0952C597.6164,-400.6718 594.3319,-409.7976 591.229,-418.4187"/>
<polygon fill="#000000" stroke="#000000" points="587.9165,-417.2869 587.8231,-427.8814 594.5029,-419.6576 587.9165,-417.2869"/>
</g>
<!-- GO:0010648 -->
<g id="node26" class="node">
<title>GO:0010648</title>
<polygon fill="#ffffff" stroke="#000000" points="1256.618,-383.8014 1117.9234,-383.8014 1117.9234,-324.9986 1256.618,-324.9986 1256.618,-383.8014"/>
<text text-anchor="middle" x="1187.2707" y="-367" font-family="Times,serif" font-size="14.00" fill="#000000">GO:0010648</text>
<text text-anchor="middle" x="1187.2707" y="-350.2" font-family="Times,serif" font-size="14.00" fill="#000000">negative regulation of</text>
<text text-anchor="middle" x="1187.2707" y="-333.4" font-family="Times,serif" font-size="14.00" fill="#000000">cell communication</text>
</g>
<!-- GO:0010648&#45;&gt;GO:0010646 -->
<g id="edge40" class="edge">
<title>GO:0010648&#45;&gt;GO:0010646</title>
<path fill="none" stroke="#000000" d="M1154.0298,-383.8584C1141.0459,-395.3648 1126.0241,-408.6771 1112.3712,-420.7765"/>
<polygon fill="#000000" stroke="#000000" points="1109.6792,-418.4855 1104.5165,-427.7373 1114.3219,-423.7243 1109.6792,-418.4855"/>
</g>
<!-- GO:0048523 -->
<g id="node27" class="node">
<title>GO:0048523</title>
<polygon fill="#ffffff" stroke="#000000" points="1283.618,-486.6014 1144.9234,-486.6014 1144.9234,-427.7986 1283.618,-427.7986 1283.618,-486.6014"/>
<text text-anchor="middle" x="1214.2707" y="-469.8" font-family="Times,serif" font-size="14.00" fill="#000000">GO:0048523</text>
<text text-anchor="middle" x="1214.2707" y="-453" font-family="Times,serif" font-size="14.00" fill="#000000">negative regulation of</text>
<text text-anchor="middle" x="1214.2707" y="-436.2" font-family="Times,serif" font-size="14.00" fill="#000000">cellular process</text>
</g>
<!-- GO:0010648&#45;&gt;GO:0048523 -->
<g id="edge41" class="edge">
<title>GO:0010648&#45;&gt;GO:0048523</title>
<path fill="none" stroke="#000000" d="M1195.0078,-383.8584C1197.804,-394.5045 1201.0062,-406.6966 1203.9864,-418.0435"/>
<polygon fill="#000000" stroke="#000000" points="1200.6069,-418.9545 1206.5325,-427.7373 1207.3773,-417.1762 1200.6069,-418.9545"/>
</g>
<!-- GO:0048523&#45;&gt;GO:0050794 -->
<g id="edge43" class="edge">
<title>GO:0048523&#45;&gt;GO:0050794</title>
<path fill="none" stroke="#000000" d="M1214.2707,-486.5513C1214.2707,-494.6318 1214.2707,-503.5308 1214.2707,-512.0838"/>
<polygon fill="#000000" stroke="#000000" points="1210.7708,-512.2668 1214.2707,-522.2669 1217.7708,-512.2669 1210.7708,-512.2668"/>
</g>
<!-- GO:0048523&#45;&gt;GO:0048519 -->
<g id="edge42" class="edge">
<title>GO:0048523&#45;&gt;GO:0048519</title>
<path fill="none" stroke="#000000" d="M1166.3883,-486.5513C1150.7435,-496.1413 1133.218,-506.8842 1116.9872,-516.8335"/>
<polygon fill="#000000" stroke="#000000" points="1114.82,-514.0567 1108.1235,-522.2669 1118.4784,-520.0247 1114.82,-514.0567"/>
</g>
<!-- GO:0019933 -->
<g id="node28" class="node">
<title>GO:0019933</title>
<polygon fill="#ffffff" stroke="#000000" points="1405.1267,-41.4019 1241.4147,-41.4019 1241.4147,-.1981 1405.1267,-.1981 1405.1267,-41.4019"/>
<text text-anchor="middle" x="1323.2707" y="-25" font-family="Times,serif" font-size="14.00" fill="#000000">GO:0019933</text>
<text text-anchor="middle" x="1323.2707" y="-8.2" font-family="Times,serif" font-size="14.00" fill="#000000">cAMP&#45;mediated signaling</text>
</g>
<!-- GO:0019935 -->
<g id="node29" class="node">
<title>GO:0019935</title>
<polygon fill="#ffffff" stroke="#000000" points="1384.4174,-136.2014 1262.124,-136.2014 1262.124,-77.3986 1384.4174,-77.3986 1384.4174,-136.2014"/>
<text text-anchor="middle" x="1323.2707" y="-119.4" font-family="Times,serif" font-size="14.00" fill="#000000">GO:0019935</text>
<text text-anchor="middle" x="1323.2707" y="-102.6" font-family="Times,serif" font-size="14.00" fill="#000000">cyclic&#45;nucleotide&#45;</text>
<text text-anchor="middle" x="1323.2707" y="-85.8" font-family="Times,serif" font-size="14.00" fill="#000000">mediated signaling</text>
</g>
<!-- GO:0019933&#45;&gt;GO:0019935 -->
<g id="edge44" class="edge">
<title>GO:0019933&#45;&gt;GO:0019935</title>
<path fill="none" stroke="#000000" d="M1323.2707,-41.6182C1323.2707,-49.3358 1323.2707,-58.3662 1323.2707,-67.2036"/>
<polygon fill="#000000" stroke="#000000" points="1319.7708,-67.3991 1323.2707,-77.3991 1326.7708,-67.3992 1319.7708,-67.3991"/>
</g>
<!-- GO:0019932 -->
<g id="node30" class="node">
<title>GO:0019932</title>
<polygon fill="#ffffff" stroke="#000000" points="1410.366,-255.8014 1236.1754,-255.8014 1236.1754,-196.9986 1410.366,-196.9986 1410.366,-255.8014"/>
<text text-anchor="middle" x="1323.2707" y="-239" font-family="Times,serif" font-size="14.00" fill="#000000">GO:0019932</text>
<text text-anchor="middle" x="1323.2707" y="-222.2" font-family="Times,serif" font-size="14.00" fill="#000000">second&#45;messenger&#45;mediated</text>
<text text-anchor="middle" x="1323.2707" y="-205.4" font-family="Times,serif" font-size="14.00" fill="#000000">signaling</text>
</g>
<!-- GO:0019935&#45;&gt;GO:0019932 -->
<g id="edge45" class="edge">
<title>GO:0019935&#45;&gt;GO:0019932</title>
<path fill="none" stroke="#000000" d="M1323.2707,-136.0575C1323.2707,-151.2608 1323.2707,-170.0644 1323.2707,-186.5735"/>
<polygon fill="#000000" stroke="#000000" points="1319.7708,-187.03 1323.2707,-197.0301 1326.7708,-187.0301 1319.7708,-187.03"/>
</g>
<!-- GO:0035556 -->
<g id="node31" class="node">
<title>GO:0035556</title>
<polygon fill="#ffffff" stroke="#000000" points="1395.3445,-383.8014 1275.1969,-383.8014 1275.1969,-324.9986 1395.3445,-324.9986 1395.3445,-383.8014"/>
<text text-anchor="middle" x="1335.2707" y="-367" font-family="Times,serif" font-size="14.00" fill="#000000">GO:0035556</text>
<text text-anchor="middle" x="1335.2707" y="-350.2" font-family="Times,serif" font-size="14.00" fill="#000000">intracellular signal</text>
<text text-anchor="middle" x="1335.2707" y="-333.4" font-family="Times,serif" font-size="14.00" fill="#000000">transduction</text>
</g>
<!-- GO:0019932&#45;&gt;GO:0035556 -->
<g id="edge46" class="edge">
<title>GO:0019932&#45;&gt;GO:0035556</title>
<path fill="none" stroke="#000000" d="M1326.0237,-255.7658C1327.6702,-273.3276 1329.7834,-295.8684 1331.5739,-314.9677"/>
<polygon fill="#000000" stroke="#000000" points="1328.1123,-315.5412 1332.5305,-325.1709 1335.0817,-314.8878 1328.1123,-315.5412"/>
</g>
<!-- GO:0007165 -->
<g id="node32" class="node">
<title>GO:0007165</title>
<polygon fill="#ffffff" stroke="#000000" points="1423.4174,-477.8019 1301.124,-477.8019 1301.124,-436.5981 1423.4174,-436.5981 1423.4174,-477.8019"/>
<text text-anchor="middle" x="1362.2707" y="-461.4" font-family="Times,serif" font-size="14.00" fill="#000000">GO:0007165</text>
<text text-anchor="middle" x="1362.2707" y="-444.6" font-family="Times,serif" font-size="14.00" fill="#000000">signal transduction</text>
</g>
<!-- GO:0035556&#45;&gt;GO:0007165 -->
<g id="edge47" class="edge">
<title>GO:0035556&#45;&gt;GO:0007165</title>
<path fill="none" stroke="#000000" d="M1343.0078,-383.8584C1346.5344,-397.2856 1350.7069,-413.1721 1354.2654,-426.7204"/>
<polygon fill="#000000" stroke="#000000" points="1350.9204,-427.7628 1356.8459,-436.5456 1357.6907,-425.9845 1350.9204,-427.7628"/>
</g>
<!-- GO:0007165&#45;&gt;GO:0050794 -->
<g id="edge48" class="edge">
<title>GO:0007165&#45;&gt;GO:0050794</title>
<path fill="none" stroke="#000000" d="M1329.7915,-477.9165C1311.9225,-489.314 1289.2778,-503.7576 1268.7811,-516.8312"/>
<polygon fill="#000000" stroke="#000000" points="1266.6973,-514.0089 1260.1485,-522.3374 1270.4616,-519.9106 1266.6973,-514.0089"/>
</g>
<!-- GO:1902531 -->
<g id="node33" class="node">
<title>GO:1902531</title>
<polygon fill="#ffffff" stroke="#000000" points="853.3445,-264.1003 733.1969,-264.1003 733.1969,-188.6997 853.3445,-188.6997 853.3445,-264.1003"/>
<text text-anchor="middle" x="793.2707" y="-247.4" font-family="Times,serif" font-size="14.00" fill="#000000">GO:1902531</text>
<text text-anchor="middle" x="793.2707" y="-230.6" font-family="Times,serif" font-size="14.00" fill="#000000">regulation of</text>
<text text-anchor="middle" x="793.2707" y="-213.8" font-family="Times,serif" font-size="14.00" fill="#000000">intracellular signal</text>
<text text-anchor="middle" x="793.2707" y="-197" font-family="Times,serif" font-size="14.00" fill="#000000">transduction</text>
</g>
<!-- GO:0009966 -->
<g id="node34" class="node">
<title>GO:0009966</title>
<polygon fill="#ffffff" stroke="#000000" points="855.6334,-383.8014 730.908,-383.8014 730.908,-324.9986 855.6334,-324.9986 855.6334,-383.8014"/>
<text text-anchor="middle" x="793.2707" y="-367" font-family="Times,serif" font-size="14.00" fill="#000000">GO:0009966</text>
<text text-anchor="middle" x="793.2707" y="-350.2" font-family="Times,serif" font-size="14.00" fill="#000000">regulation of signal</text>
<text text-anchor="middle" x="793.2707" y="-333.4" font-family="Times,serif" font-size="14.00" fill="#000000">transduction</text>
</g>
<!-- GO:1902531&#45;&gt;GO:0009966 -->
<g id="edge49" class="edge">
<title>GO:1902531&#45;&gt;GO:0009966</title>
<path fill="none" stroke="#000000" d="M793.2707,-264.1119C793.2707,-280.0821 793.2707,-298.6954 793.2707,-314.8589"/>
<polygon fill="#000000" stroke="#000000" points="789.7708,-315.0743 793.2707,-325.0744 796.7708,-315.0744 789.7708,-315.0743"/>
</g>
<!-- GO:0009966&#45;&gt;GO:0010646 -->
<g id="edge50" class="edge">
<title>GO:0009966&#45;&gt;GO:0010646</title>
<path fill="none" stroke="#000000" d="M855.7905,-379.0604C867.5313,-383.4997 879.7394,-387.9874 891.2707,-392 938.9878,-408.6042 954.4584,-409.0036 1005.781,-427.9801"/>
<polygon fill="#000000" stroke="#000000" points="1004.8358,-431.3639 1015.4279,-431.6066 1007.2991,-424.8116 1004.8358,-431.3639"/>
</g>
<!-- GO:0009966&#45;&gt;GO:0023051 -->
<g id="edge52" class="edge">
<title>GO:0009966&#45;&gt;GO:0023051</title>
<path fill="none" stroke="#000000" d="M799.3642,-383.8005C806.0187,-411.6639 818.4541,-453.9616 838.2707,-486.4 846.538,-499.933 858.0558,-512.9125 868.9851,-523.6782"/>
<polygon fill="#000000" stroke="#000000" points="866.7574,-526.3902 876.4104,-530.7573 871.5877,-521.3237 866.7574,-526.3902"/>
</g>
<!-- GO:0048583 -->
<g id="node35" class="node">
<title>GO:0048583</title>
<polygon fill="#ffffff" stroke="#000000" points="811.5626,-581.0014 656.9788,-581.0014 656.9788,-522.1986 811.5626,-522.1986 811.5626,-581.0014"/>
<text text-anchor="middle" x="734.2707" y="-564.2" font-family="Times,serif" font-size="14.00" fill="#000000">GO:0048583</text>
<text text-anchor="middle" x="734.2707" y="-547.4" font-family="Times,serif" font-size="14.00" fill="#000000">regulation of response to</text>
<text text-anchor="middle" x="734.2707" y="-530.6" font-family="Times,serif" font-size="14.00" fill="#000000">stimulus</text>
</g>
<!-- GO:0009966&#45;&gt;GO:0048583 -->
<g id="edge51" class="edge">
<title>GO:0009966&#45;&gt;GO:0048583</title>
<path fill="none" stroke="#000000" d="M784.4378,-383.9228C774.198,-418.1481 757.2818,-474.6882 745.9599,-512.5302"/>
<polygon fill="#000000" stroke="#000000" points="742.5808,-511.6142 743.0675,-522.1978 749.287,-513.6207 742.5808,-511.6142"/>
</g>
<!-- GO:0048583&#45;&gt;GO:0065007 -->
<g id="edge53" class="edge">
<title>GO:0048583&#45;&gt;GO:0065007</title>
<path fill="none" stroke="#000000" d="M781.8422,-580.9513C802.0771,-593.4361 825.4788,-607.8748 845.0865,-619.9727"/>
<polygon fill="#000000" stroke="#000000" points="843.4552,-623.0787 853.8035,-625.351 847.1309,-617.1214 843.4552,-623.0787"/>
</g>
<!-- GO:0048583&#45;&gt;GO:0050789 -->
<g id="edge54" class="edge">
<title>GO:0048583&#45;&gt;GO:0050789</title>
<path fill="none" stroke="#000000" d="M811.9687,-577.9943C815.1048,-578.9593 818.2145,-579.8983 821.2707,-580.8 880.3963,-598.2443 898.6725,-598.1057 961.5544,-616.6838"/>
<polygon fill="#000000" stroke="#000000" points="960.582,-620.0461 971.1659,-619.565 962.5921,-613.3409 960.582,-620.0461"/>
</g>
<!-- GO:0007187 -->
<g id="node36" class="node">
<title>GO:0007187</title>
<polygon fill="#ffffff" stroke="#000000" points="1581.8856,-280.7002 1428.6558,-280.7002 1428.6558,-172.0998 1581.8856,-172.0998 1581.8856,-280.7002"/>
<text text-anchor="middle" x="1505.2707" y="-264.2" font-family="Times,serif" font-size="14.00" fill="#000000">GO:0007187</text>
<text text-anchor="middle" x="1505.2707" y="-247.4" font-family="Times,serif" font-size="14.00" fill="#000000">G&#45;protein coupled</text>
<text text-anchor="middle" x="1505.2707" y="-230.6" font-family="Times,serif" font-size="14.00" fill="#000000">receptor signaling</text>
<text text-anchor="middle" x="1505.2707" y="-213.8" font-family="Times,serif" font-size="14.00" fill="#000000">pathway, coupled to</text>
<text text-anchor="middle" x="1505.2707" y="-197" font-family="Times,serif" font-size="14.00" fill="#000000">cyclic nucleotide second</text>
<text text-anchor="middle" x="1505.2707" y="-180.2" font-family="Times,serif" font-size="14.00" fill="#000000">messenger</text>
</g>
<!-- GO:0007186 -->
<g id="node37" class="node">
<title>GO:0007186</title>
<polygon fill="#ffffff" stroke="#000000" points="1553.5144,-392.1003 1435.027,-392.1003 1435.027,-316.6997 1553.5144,-316.6997 1553.5144,-392.1003"/>
<text text-anchor="middle" x="1494.2707" y="-375.4" font-family="Times,serif" font-size="14.00" fill="#000000">GO:0007186</text>
<text text-anchor="middle" x="1494.2707" y="-358.6" font-family="Times,serif" font-size="14.00" fill="#000000">G&#45;protein coupled</text>
<text text-anchor="middle" x="1494.2707" y="-341.8" font-family="Times,serif" font-size="14.00" fill="#000000">receptor signaling</text>
<text text-anchor="middle" x="1494.2707" y="-325" font-family="Times,serif" font-size="14.00" fill="#000000">pathway</text>
</g>
<!-- GO:0007187&#45;&gt;GO:0007186 -->
<g id="edge55" class="edge">
<title>GO:0007187&#45;&gt;GO:0007186</title>
<path fill="none" stroke="#000000" d="M1500.5738,-281.0548C1499.8512,-289.4635 1499.1097,-298.0922 1498.4006,-306.3433"/>
<polygon fill="#000000" stroke="#000000" points="1494.8928,-306.2847 1497.5236,-316.5477 1501.8671,-306.8842 1494.8928,-306.2847"/>
</g>
<!-- GO:0007186&#45;&gt;GO:0007165 -->
<g id="edge56" class="edge">
<title>GO:0007186&#45;&gt;GO:0007165</title>
<path fill="none" stroke="#000000" d="M1445.8683,-392.0952C1429.6026,-404.7627 1411.7986,-418.6283 1396.8168,-430.2959"/>
<polygon fill="#000000" stroke="#000000" points="1394.5508,-427.6244 1388.8117,-436.5302 1398.8519,-433.1472 1394.5508,-427.6244"/>
</g>
</g>
</svg>
