<?xml version="1.0" encoding="UTF-8" standalone="no"?>
<!DOCTYPE svg PUBLIC "-//W3C//DTD SVG 1.1//EN"
 "http://www.w3.org/Graphics/SVG/1.1/DTD/svg11.dtd">
<!-- Generated by graphviz version 2.40.1 (20161225.0304)
 -->
<!-- Title: G Pages: 1 -->
<svg width="788pt" height="694pt"
 viewBox="0.00 0.00 788.09 693.60" xmlns="http://www.w3.org/2000/svg" xmlns:xlink="http://www.w3.org/1999/xlink">
<g id="graph0" class="graph" transform="scale(1 1) rotate(0) translate(4 689.6)">
<title>G</title>
<polygon fill="#ffffff" stroke="transparent" points="-4,4 -4,-689.6 784.0902,-689.6 784.0902,4 -4,4"/>
<!-- GO:0006520 -->
<g id="node1" class="node">
<title>GO:0006520</title>
<polygon fill="#ffffff" stroke="#000000" points="649.6312,-58.6014 526.047,-58.6014 526.047,.2014 649.6312,.2014 649.6312,-58.6014"/>
<text text-anchor="middle" x="587.8391" y="-41.8" font-family="Times,serif" font-size="14.00" fill="#000000">GO:0006520</text>
<text text-anchor="middle" x="587.8391" y="-25" font-family="Times,serif" font-size="14.00" fill="#000000">cellular amino acid</text>
<text text-anchor="middle" x="587.8391" y="-8.2" font-family="Times,serif" font-size="14.00" fill="#000000">metabolic process</text>
</g>
<!-- GO:0044238 -->
<g id="node2" class="node">
<title>GO:0044238</title>
<polygon fill="#ffffff" stroke="#000000" points="779.8421,-238.6019 615.8361,-238.6019 615.8361,-197.3981 779.8421,-197.3981 779.8421,-238.6019"/>
<text text-anchor="middle" x="697.8391" y="-222.2" font-family="Times,serif" font-size="14.00" fill="#000000">GO:0044238</text>
<text text-anchor="middle" x="697.8391" y="-205.4" font-family="Times,serif" font-size="14.00" fill="#000000">primary metabolic process</text>
</g>
<!-- GO:0006520&#45;&gt;GO:0044238 -->
<g id="edge1" class="edge">
<title>GO:0006520&#45;&gt;GO:0044238</title>
<path fill="none" stroke="#000000" d="M605.0266,-58.7C625.6053,-94.0205 659.8722,-152.835 680.5124,-188.261"/>
<polygon fill="#000000" stroke="#000000" points="677.6414,-190.286 685.6997,-197.1645 683.6897,-186.762 677.6414,-190.286"/>
</g>
<!-- GO:1901564 -->
<g id="node3" class="node">
<title>GO:1901564</title>
<polygon fill="#ffffff" stroke="#000000" points="617.976,-341.8014 453.7022,-341.8014 453.7022,-282.9986 617.976,-282.9986 617.976,-341.8014"/>
<text text-anchor="middle" x="535.8391" y="-325" font-family="Times,serif" font-size="14.00" fill="#000000">GO:1901564</text>
<text text-anchor="middle" x="535.8391" y="-308.2" font-family="Times,serif" font-size="14.00" fill="#000000">organonitrogen compound</text>
<text text-anchor="middle" x="535.8391" y="-291.4" font-family="Times,serif" font-size="14.00" fill="#000000">metabolic process</text>
</g>
<!-- GO:0006520&#45;&gt;GO:1901564 -->
<g id="edge2" class="edge">
<title>GO:0006520&#45;&gt;GO:1901564</title>
<path fill="none" stroke="#000000" d="M583.8523,-58.6262C577.9599,-100.6608 566.0733,-180.2236 551.8391,-247.2 550.0454,-255.6401 547.951,-264.6512 545.88,-273.1972"/>
<polygon fill="#000000" stroke="#000000" points="542.47,-272.4072 543.4788,-282.9539 549.2672,-274.0801 542.47,-272.4072"/>
</g>
<!-- GO:0019752 -->
<g id="node4" class="node">
<title>GO:0019752</title>
<polygon fill="#ffffff" stroke="#000000" points="390.9512,-153.0014 230.727,-153.0014 230.727,-94.1986 390.9512,-94.1986 390.9512,-153.0014"/>
<text text-anchor="middle" x="310.8391" y="-136.2" font-family="Times,serif" font-size="14.00" fill="#000000">GO:0019752</text>
<text text-anchor="middle" x="310.8391" y="-119.4" font-family="Times,serif" font-size="14.00" fill="#000000">carboxylic acid metabolic</text>
<text text-anchor="middle" x="310.8391" y="-102.6" font-family="Times,serif" font-size="14.00" fill="#000000">process</text>
</g>
<!-- GO:0006520&#45;&gt;GO:0019752 -->
<g id="edge3" class="edge">
<title>GO:0006520&#45;&gt;GO:0019752</title>
<path fill="none" stroke="#000000" d="M526.0197,-50.2677C489.1896,-62.8192 441.7958,-78.9707 400.8654,-92.9196"/>
<polygon fill="#000000" stroke="#000000" points="399.4912,-89.6901 391.1548,-96.2289 401.7493,-96.316 399.4912,-89.6901"/>
</g>
<!-- GO:0008152 -->
<g id="node5" class="node">
<title>GO:0008152</title>
<polygon fill="#ffffff" stroke="#000000" points="555.0247,-607.8019 438.6535,-607.8019 438.6535,-566.5981 555.0247,-566.5981 555.0247,-607.8019"/>
<text text-anchor="middle" x="496.8391" y="-591.4" font-family="Times,serif" font-size="14.00" fill="#000000">GO:0008152</text>
<text text-anchor="middle" x="496.8391" y="-574.6" font-family="Times,serif" font-size="14.00" fill="#000000">metabolic process</text>
</g>
<!-- GO:0044238&#45;&gt;GO:0008152 -->
<g id="edge4" class="edge">
<title>GO:0044238&#45;&gt;GO:0008152</title>
<path fill="none" stroke="#000000" d="M701.0503,-238.6768C706.307,-279.1791 713.0204,-370.7036 678.8391,-436 649.3414,-492.3493 588.9489,-535.846 545.8234,-561.4244"/>
<polygon fill="#000000" stroke="#000000" points="544.0579,-558.4022 537.1718,-566.4541 547.5761,-564.4539 544.0579,-558.4022"/>
</g>
<!-- GO:0071704 -->
<g id="node6" class="node">
<title>GO:0071704</title>
<polygon fill="#ffffff" stroke="#000000" points="526.0247,-436.2014 409.6535,-436.2014 409.6535,-377.3986 526.0247,-377.3986 526.0247,-436.2014"/>
<text text-anchor="middle" x="467.8391" y="-419.4" font-family="Times,serif" font-size="14.00" fill="#000000">GO:0071704</text>
<text text-anchor="middle" x="467.8391" y="-402.6" font-family="Times,serif" font-size="14.00" fill="#000000">organic substance</text>
<text text-anchor="middle" x="467.8391" y="-385.8" font-family="Times,serif" font-size="14.00" fill="#000000">metabolic process</text>
</g>
<!-- GO:1901564&#45;&gt;GO:0071704 -->
<g id="edge5" class="edge">
<title>GO:1901564&#45;&gt;GO:0071704</title>
<path fill="none" stroke="#000000" d="M514.6962,-341.7513C508.4278,-350.4534 501.4756,-360.1047 494.8871,-369.2509"/>
<polygon fill="#000000" stroke="#000000" points="491.9739,-367.3071 488.9689,-377.4669 497.6537,-371.3985 491.9739,-367.3071"/>
</g>
<!-- GO:0006807 -->
<g id="node7" class="node">
<title>GO:0006807</title>
<polygon fill="#ffffff" stroke="#000000" points="669.601,-436.2014 544.0772,-436.2014 544.0772,-377.3986 669.601,-377.3986 669.601,-436.2014"/>
<text text-anchor="middle" x="606.8391" y="-419.4" font-family="Times,serif" font-size="14.00" fill="#000000">GO:0006807</text>
<text text-anchor="middle" x="606.8391" y="-402.6" font-family="Times,serif" font-size="14.00" fill="#000000">nitrogen compound</text>
<text text-anchor="middle" x="606.8391" y="-385.8" font-family="Times,serif" font-size="14.00" fill="#000000">metabolic process</text>
</g>
<!-- GO:1901564&#45;&gt;GO:0006807 -->
<g id="edge6" class="edge">
<title>GO:1901564&#45;&gt;GO:0006807</title>
<path fill="none" stroke="#000000" d="M557.9148,-341.7513C564.4597,-350.4534 571.7187,-360.1047 578.5978,-369.2509"/>
<polygon fill="#000000" stroke="#000000" points="575.9691,-371.5788 584.7771,-377.4669 581.5634,-367.3712 575.9691,-371.5788"/>
</g>
<!-- GO:0043436 -->
<g id="node8" class="node">
<title>GO:0043436</title>
<polygon fill="#ffffff" stroke="#000000" points="392.8448,-238.6019 228.8334,-238.6019 228.8334,-197.3981 392.8448,-197.3981 392.8448,-238.6019"/>
<text text-anchor="middle" x="310.8391" y="-222.2" font-family="Times,serif" font-size="14.00" fill="#000000">GO:0043436</text>
<text text-anchor="middle" x="310.8391" y="-205.4" font-family="Times,serif" font-size="14.00" fill="#000000">oxoacid metabolic process</text>
</g>
<!-- GO:0019752&#45;&gt;GO:0043436 -->
<g id="edge7" class="edge">
<title>GO:0019752&#45;&gt;GO:0043436</title>
<path fill="none" stroke="#000000" d="M310.8391,-152.9513C310.8391,-163.8614 310.8391,-176.2637 310.8391,-187.292"/>
<polygon fill="#000000" stroke="#000000" points="307.3392,-187.3509 310.8391,-197.351 314.3392,-187.351 307.3392,-187.3509"/>
</g>
<!-- GO:0008150 -->
<g id="node9" class="node">
<title>GO:0008150</title>
<polygon fill="#ffffff" stroke="#000000" points="405.3097,-685.4019 284.3685,-685.4019 284.3685,-644.1981 405.3097,-644.1981 405.3097,-685.4019"/>
<text text-anchor="middle" x="344.8391" y="-669" font-family="Times,serif" font-size="14.00" fill="#000000">GO:0008150</text>
<text text-anchor="middle" x="344.8391" y="-652.2" font-family="Times,serif" font-size="14.00" fill="#000000">biological_process</text>
</g>
<!-- GO:0008152&#45;&gt;GO:0008150 -->
<g id="edge8" class="edge">
<title>GO:0008152&#45;&gt;GO:0008150</title>
<path fill="none" stroke="#000000" d="M456.1059,-607.9954C437.1175,-617.6895 414.3551,-629.3102 394.3794,-639.5084"/>
<polygon fill="#000000" stroke="#000000" points="392.736,-636.4176 385.421,-644.0819 395.9189,-642.6521 392.736,-636.4176"/>
</g>
<!-- GO:0071704&#45;&gt;GO:0008152 -->
<g id="edge9" class="edge">
<title>GO:0071704&#45;&gt;GO:0008152</title>
<path fill="none" stroke="#000000" d="M472.563,-436.1859C477.878,-469.2492 486.4734,-522.7182 491.8821,-556.3643"/>
<polygon fill="#000000" stroke="#000000" points="488.4752,-557.2232 493.5181,-566.5409 495.3865,-556.1121 488.4752,-557.2232"/>
</g>
<!-- GO:0006807&#45;&gt;GO:0008152 -->
<g id="edge10" class="edge">
<title>GO:0006807&#45;&gt;GO:0008152</title>
<path fill="none" stroke="#000000" d="M588.9209,-436.1859C568.4985,-469.6786 535.3083,-524.1105 514.8482,-557.6651"/>
<polygon fill="#000000" stroke="#000000" points="511.654,-556.1807 509.4361,-566.5409 517.6305,-559.825 511.654,-556.1807"/>
</g>
<!-- GO:0006082 -->
<g id="node10" class="node">
<title>GO:0006082</title>
<polygon fill="#ffffff" stroke="#000000" points="382.3463,-341.8014 239.3319,-341.8014 239.3319,-282.9986 382.3463,-282.9986 382.3463,-341.8014"/>
<text text-anchor="middle" x="310.8391" y="-325" font-family="Times,serif" font-size="14.00" fill="#000000">GO:0006082</text>
<text text-anchor="middle" x="310.8391" y="-308.2" font-family="Times,serif" font-size="14.00" fill="#000000">organic acid metabolic</text>
<text text-anchor="middle" x="310.8391" y="-291.4" font-family="Times,serif" font-size="14.00" fill="#000000">process</text>
</g>
<!-- GO:0043436&#45;&gt;GO:0006082 -->
<g id="edge11" class="edge">
<title>GO:0043436&#45;&gt;GO:0006082</title>
<path fill="none" stroke="#000000" d="M310.8391,-238.9504C310.8391,-248.9492 310.8391,-261.2525 310.8391,-272.9106"/>
<polygon fill="#000000" stroke="#000000" points="307.3392,-272.9155 310.8391,-282.9155 314.3392,-272.9156 307.3392,-272.9155"/>
</g>
<!-- GO:0006082&#45;&gt;GO:0071704 -->
<g id="edge12" class="edge">
<title>GO:0006082&#45;&gt;GO:0071704</title>
<path fill="none" stroke="#000000" d="M359.6543,-341.7513C375.7515,-351.4301 393.8017,-362.2833 410.477,-372.3097"/>
<polygon fill="#000000" stroke="#000000" points="408.6804,-375.3134 419.0541,-377.4669 412.2876,-369.3143 408.6804,-375.3134"/>
</g>
<!-- GO:0044763 -->
<g id="node11" class="node">
<title>GO:0044763</title>
<polygon fill="#ffffff" stroke="#000000" points="151.5176,-530.6014 .1606,-530.6014 .1606,-471.7986 151.5176,-471.7986 151.5176,-530.6014"/>
<text text-anchor="middle" x="75.8391" y="-513.8" font-family="Times,serif" font-size="14.00" fill="#000000">GO:0044763</text>
<text text-anchor="middle" x="75.8391" y="-497" font-family="Times,serif" font-size="14.00" fill="#000000">single&#45;organism cellular</text>
<text text-anchor="middle" x="75.8391" y="-480.2" font-family="Times,serif" font-size="14.00" fill="#000000">process</text>
</g>
<!-- GO:0006082&#45;&gt;GO:0044763 -->
<g id="edge13" class="edge">
<title>GO:0006082&#45;&gt;GO:0044763</title>
<path fill="none" stroke="#000000" d="M261.9008,-341.6109C244.9783,-352.3279 226.173,-364.9456 209.8391,-377.6 174.885,-404.68 138.1732,-439.0147 112.0326,-464.6204"/>
<polygon fill="#000000" stroke="#000000" points="109.2784,-462.4207 104.6123,-471.9327 114.1917,-467.4066 109.2784,-462.4207"/>
</g>
<!-- GO:0044281 -->
<g id="node12" class="node">
<title>GO:0044281</title>
<polygon fill="#ffffff" stroke="#000000" points="391.692,-436.2014 231.9862,-436.2014 231.9862,-377.3986 391.692,-377.3986 391.692,-436.2014"/>
<text text-anchor="middle" x="311.8391" y="-419.4" font-family="Times,serif" font-size="14.00" fill="#000000">GO:0044281</text>
<text text-anchor="middle" x="311.8391" y="-402.6" font-family="Times,serif" font-size="14.00" fill="#000000">small molecule metabolic</text>
<text text-anchor="middle" x="311.8391" y="-385.8" font-family="Times,serif" font-size="14.00" fill="#000000">process</text>
</g>
<!-- GO:0006082&#45;&gt;GO:0044281 -->
<g id="edge14" class="edge">
<title>GO:0006082&#45;&gt;GO:0044281</title>
<path fill="none" stroke="#000000" d="M311.15,-341.7513C311.2356,-349.8318 311.3299,-358.7308 311.4205,-367.2838"/>
<polygon fill="#000000" stroke="#000000" points="307.9225,-367.5045 311.5284,-377.4669 314.9221,-367.4303 307.9225,-367.5045"/>
</g>
<!-- GO:0044237 -->
<g id="node13" class="node">
<title>GO:0044237</title>
<polygon fill="#ffffff" stroke="#000000" points="286.0219,-530.6014 169.6563,-530.6014 169.6563,-471.7986 286.0219,-471.7986 286.0219,-530.6014"/>
<text text-anchor="middle" x="227.8391" y="-513.8" font-family="Times,serif" font-size="14.00" fill="#000000">GO:0044237</text>
<text text-anchor="middle" x="227.8391" y="-497" font-family="Times,serif" font-size="14.00" fill="#000000">cellular metabolic</text>
<text text-anchor="middle" x="227.8391" y="-480.2" font-family="Times,serif" font-size="14.00" fill="#000000">process</text>
</g>
<!-- GO:0006082&#45;&gt;GO:0044237 -->
<g id="edge15" class="edge">
<title>GO:0006082&#45;&gt;GO:0044237</title>
<path fill="none" stroke="#000000" d="M263.6637,-341.7227C245.3838,-354.1773 227.6716,-368.0052 222.8391,-377.6 209.8061,-403.4768 211.8985,-436.4068 216.7938,-461.7691"/>
<polygon fill="#000000" stroke="#000000" points="213.4227,-462.741 218.9446,-471.783 220.2666,-461.271 213.4227,-462.741"/>
</g>
<!-- GO:0009987 -->
<g id="node14" class="node">
<title>GO:0009987</title>
<polygon fill="#ffffff" stroke="#000000" points="250.7953,-607.8019 146.8829,-607.8019 146.8829,-566.5981 250.7953,-566.5981 250.7953,-607.8019"/>
<text text-anchor="middle" x="198.8391" y="-591.4" font-family="Times,serif" font-size="14.00" fill="#000000">GO:0009987</text>
<text text-anchor="middle" x="198.8391" y="-574.6" font-family="Times,serif" font-size="14.00" fill="#000000">cellular process</text>
</g>
<!-- GO:0044763&#45;&gt;GO:0009987 -->
<g id="edge16" class="edge">
<title>GO:0044763&#45;&gt;GO:0009987</title>
<path fill="none" stroke="#000000" d="M117.8247,-530.5558C131.7718,-540.3074 147.2127,-551.1035 160.8411,-560.6323"/>
<polygon fill="#000000" stroke="#000000" points="158.862,-563.5192 169.063,-566.3809 162.8731,-557.7823 158.862,-563.5192"/>
</g>
<!-- GO:0044699 -->
<g id="node15" class="node">
<title>GO:0044699</title>
<polygon fill="#ffffff" stroke="#000000" points="420.5204,-607.8019 269.1578,-607.8019 269.1578,-566.5981 420.5204,-566.5981 420.5204,-607.8019"/>
<text text-anchor="middle" x="344.8391" y="-591.4" font-family="Times,serif" font-size="14.00" fill="#000000">GO:0044699</text>
<text text-anchor="middle" x="344.8391" y="-574.6" font-family="Times,serif" font-size="14.00" fill="#000000">single&#45;organism process</text>
</g>
<!-- GO:0044763&#45;&gt;GO:0044699 -->
<g id="edge17" class="edge">
<title>GO:0044763&#45;&gt;GO:0044699</title>
<path fill="none" stroke="#000000" d="M151.7993,-527.427C154.8499,-528.4383 157.8721,-529.4327 160.8391,-530.4 195.2615,-541.6225 233.4885,-553.5148 266.141,-563.5019"/>
<polygon fill="#000000" stroke="#000000" points="265.499,-566.9653 276.0852,-566.5373 267.5427,-560.2703 265.499,-566.9653"/>
</g>
<!-- GO:0044710 -->
<g id="node16" class="node">
<title>GO:0044710</title>
<polygon fill="#ffffff" stroke="#000000" points="469.2473,-530.6014 304.4309,-530.6014 304.4309,-471.7986 469.2473,-471.7986 469.2473,-530.6014"/>
<text text-anchor="middle" x="386.8391" y="-513.8" font-family="Times,serif" font-size="14.00" fill="#000000">GO:0044710</text>
<text text-anchor="middle" x="386.8391" y="-497" font-family="Times,serif" font-size="14.00" fill="#000000">single&#45;organism metabolic</text>
<text text-anchor="middle" x="386.8391" y="-480.2" font-family="Times,serif" font-size="14.00" fill="#000000">process</text>
</g>
<!-- GO:0044281&#45;&gt;GO:0044710 -->
<g id="edge18" class="edge">
<title>GO:0044281&#45;&gt;GO:0044710</title>
<path fill="none" stroke="#000000" d="M335.1584,-436.1513C342.1427,-444.9422 349.8966,-454.7018 357.229,-463.9308"/>
<polygon fill="#000000" stroke="#000000" points="354.5731,-466.2144 363.5342,-471.8669 360.0539,-461.8599 354.5731,-466.2144"/>
</g>
<!-- GO:0044237&#45;&gt;GO:0008152 -->
<g id="edge20" class="edge">
<title>GO:0044237&#45;&gt;GO:0008152</title>
<path fill="none" stroke="#000000" d="M286.2352,-526.9055C289.467,-528.1309 292.6833,-529.3048 295.8391,-530.4 351.1396,-549.5912 368.8191,-549.3377 428.4677,-566.0783"/>
<polygon fill="#000000" stroke="#000000" points="427.8369,-569.5379 438.4135,-568.9165 429.7578,-562.8067 427.8369,-569.5379"/>
</g>
<!-- GO:0044237&#45;&gt;GO:0009987 -->
<g id="edge19" class="edge">
<title>GO:0044237&#45;&gt;GO:0009987</title>
<path fill="none" stroke="#000000" d="M217.8589,-530.7963C215.0091,-539.2475 211.9005,-548.4662 209.0378,-556.9555"/>
<polygon fill="#000000" stroke="#000000" points="205.6994,-555.9024 205.8205,-566.4966 212.3324,-558.1392 205.6994,-555.9024"/>
</g>
<!-- GO:0009987&#45;&gt;GO:0008150 -->
<g id="edge24" class="edge">
<title>GO:0009987&#45;&gt;GO:0008150</title>
<path fill="none" stroke="#000000" d="M237.9644,-607.9954C256.1211,-617.6458 277.8702,-629.2056 296.9949,-639.3705"/>
<polygon fill="#000000" stroke="#000000" points="295.3862,-642.4791 305.8591,-644.0819 298.6716,-636.2979 295.3862,-642.4791"/>
</g>
<!-- GO:0044699&#45;&gt;GO:0008150 -->
<g id="edge25" class="edge">
<title>GO:0044699&#45;&gt;GO:0008150</title>
<path fill="none" stroke="#000000" d="M344.8391,-607.9954C344.8391,-615.9109 344.8391,-625.1109 344.8391,-633.7722"/>
<polygon fill="#000000" stroke="#000000" points="341.3392,-633.9472 344.8391,-643.9472 348.3392,-633.9473 341.3392,-633.9472"/>
</g>
<!-- GO:0044710&#45;&gt;GO:0008152 -->
<g id="edge26" class="edge">
<title>GO:0044710&#45;&gt;GO:0008152</title>
<path fill="none" stroke="#000000" d="M424.3872,-530.5558C436.6249,-540.1234 450.1485,-550.6964 462.1656,-560.0916"/>
<polygon fill="#000000" stroke="#000000" points="460.1762,-562.979 470.2101,-566.3809 464.4877,-557.4644 460.1762,-562.979"/>
</g>
<!-- GO:0044710&#45;&gt;GO:0044699 -->
<g id="edge27" class="edge">
<title>GO:0044710&#45;&gt;GO:0044699</title>
<path fill="none" stroke="#000000" d="M372.3851,-530.7963C368.168,-539.4312 363.5597,-548.8673 359.3398,-557.5081"/>
<polygon fill="#000000" stroke="#000000" points="356.1935,-555.9749 354.9501,-566.4966 362.4835,-559.0468 356.1935,-555.9749"/>
</g>
<!-- GO:0009064 -->
<g id="node17" class="node">
<title>GO:0009064</title>
<polygon fill="#ffffff" stroke="#000000" points="559.8742,-153.0014 409.804,-153.0014 409.804,-94.1986 559.8742,-94.1986 559.8742,-153.0014"/>
<text text-anchor="middle" x="484.8391" y="-136.2" font-family="Times,serif" font-size="14.00" fill="#000000">GO:0009064</text>
<text text-anchor="middle" x="484.8391" y="-119.4" font-family="Times,serif" font-size="14.00" fill="#000000">glutamine family amino</text>
<text text-anchor="middle" x="484.8391" y="-102.6" font-family="Times,serif" font-size="14.00" fill="#000000">acid metabolic process</text>
</g>
<!-- GO:1901605 -->
<g id="node18" class="node">
<title>GO:1901605</title>
<polygon fill="#ffffff" stroke="#000000" points="543.0247,-247.4014 426.6535,-247.4014 426.6535,-188.5986 543.0247,-188.5986 543.0247,-247.4014"/>
<text text-anchor="middle" x="484.8391" y="-230.6" font-family="Times,serif" font-size="14.00" fill="#000000">GO:1901605</text>
<text text-anchor="middle" x="484.8391" y="-213.8" font-family="Times,serif" font-size="14.00" fill="#000000">alpha&#45;amino acid</text>
<text text-anchor="middle" x="484.8391" y="-197" font-family="Times,serif" font-size="14.00" fill="#000000">metabolic process</text>
</g>
<!-- GO:0009064&#45;&gt;GO:1901605 -->
<g id="edge21" class="edge">
<title>GO:0009064&#45;&gt;GO:1901605</title>
<path fill="none" stroke="#000000" d="M484.8391,-152.9513C484.8391,-161.0318 484.8391,-169.9308 484.8391,-178.4838"/>
<polygon fill="#000000" stroke="#000000" points="481.3392,-178.6668 484.8391,-188.6669 488.3392,-178.6669 481.3392,-178.6668"/>
</g>
<!-- GO:1901605&#45;&gt;GO:1901564 -->
<g id="edge22" class="edge">
<title>GO:1901605&#45;&gt;GO:1901564</title>
<path fill="none" stroke="#000000" d="M500.6963,-247.3513C505.2537,-255.787 510.293,-265.1147 515.0985,-274.0096"/>
<polygon fill="#000000" stroke="#000000" points="512.1591,-275.9324 519.9917,-283.0669 518.3178,-272.6051 512.1591,-275.9324"/>
</g>
<!-- GO:1901605&#45;&gt;GO:0006082 -->
<g id="edge23" class="edge">
<title>GO:1901605&#45;&gt;GO:0006082</title>
<path fill="none" stroke="#000000" d="M430.7382,-247.3513C412.7343,-257.1189 392.526,-268.0825 373.9041,-278.1854"/>
<polygon fill="#000000" stroke="#000000" points="372.0272,-275.2217 364.9065,-283.0669 375.3653,-281.3745 372.0272,-275.2217"/>
</g>
</g>
</svg>
