<?xml version="1.0" encoding="UTF-8" standalone="no"?>
<!DOCTYPE svg PUBLIC "-//W3C//DTD SVG 1.1//EN"
 "http://www.w3.org/Graphics/SVG/1.1/DTD/svg11.dtd">
<!-- Generated by graphviz version 2.40.1 (20161225.0304)
 -->
<!-- Title: G Pages: 1 -->
<svg width="1427pt" height="505pt"
 viewBox="0.00 0.00 1426.52 504.80" xmlns="http://www.w3.org/2000/svg" xmlns:xlink="http://www.w3.org/1999/xlink">
<g id="graph0" class="graph" transform="scale(1 1) rotate(0) translate(4 500.8)">
<title>G</title>
<polygon fill="#ffffff" stroke="transparent" points="-4,4 -4,-500.8 1422.5243,-500.8 1422.5243,4 -4,4"/>
<!-- GO:0005856 -->
<g id="node1" class="node">
<title>GO:0005856</title>
<polygon fill="#ffffff" stroke="#000000" points="1020.3571,-41.4019 931.1493,-41.4019 931.1493,-.1981 1020.3571,-.1981 1020.3571,-41.4019"/>
<text text-anchor="middle" x="975.7532" y="-25" font-family="Times,serif" font-size="14.00" fill="#000000">GO:0005856</text>
<text text-anchor="middle" x="975.7532" y="-8.2" font-family="Times,serif" font-size="14.00" fill="#000000">cytoskeleton</text>
</g>
<!-- GO:0043232 -->
<g id="node2" class="node">
<title>GO:0043232</title>
<polygon fill="#ffffff" stroke="#000000" points="1039.714,-152.9003 911.7924,-152.9003 911.7924,-77.4997 1039.714,-77.4997 1039.714,-152.9003"/>
<text text-anchor="middle" x="975.7532" y="-136.2" font-family="Times,serif" font-size="14.00" fill="#000000">GO:0043232</text>
<text text-anchor="middle" x="975.7532" y="-119.4" font-family="Times,serif" font-size="14.00" fill="#000000">intracellular non&#45;</text>
<text text-anchor="middle" x="975.7532" y="-102.6" font-family="Times,serif" font-size="14.00" fill="#000000">membrane&#45;bounded</text>
<text text-anchor="middle" x="975.7532" y="-85.8" font-family="Times,serif" font-size="14.00" fill="#000000">organelle</text>
</g>
<!-- GO:0005856&#45;&gt;GO:0043232 -->
<g id="edge1" class="edge">
<title>GO:0005856&#45;&gt;GO:0043232</title>
<path fill="none" stroke="#000000" d="M975.7532,-41.7504C975.7532,-49.4068 975.7532,-58.4143 975.7532,-67.4487"/>
<polygon fill="#000000" stroke="#000000" points="972.2533,-67.5897 975.7532,-77.5897 979.2533,-67.5897 972.2533,-67.5897"/>
</g>
<!-- GO:0043229 -->
<g id="node3" class="node">
<title>GO:0043229</title>
<polygon fill="#ffffff" stroke="#000000" points="1008.4716,-238.6019 869.0348,-238.6019 869.0348,-197.3981 1008.4716,-197.3981 1008.4716,-238.6019"/>
<text text-anchor="middle" x="938.7532" y="-222.2" font-family="Times,serif" font-size="14.00" fill="#000000">GO:0043229</text>
<text text-anchor="middle" x="938.7532" y="-205.4" font-family="Times,serif" font-size="14.00" fill="#000000">intracellular organelle</text>
</g>
<!-- GO:0043232&#45;&gt;GO:0043229 -->
<g id="edge2" class="edge">
<title>GO:0043232&#45;&gt;GO:0043229</title>
<path fill="none" stroke="#000000" d="M962.1859,-152.8952C958.0487,-164.3898 953.5565,-176.8709 949.6225,-187.8011"/>
<polygon fill="#000000" stroke="#000000" points="946.2861,-186.7358 946.1927,-197.3302 952.8725,-189.1064 946.2861,-186.7358"/>
</g>
<!-- GO:0043228 -->
<g id="node4" class="node">
<title>GO:0043228</title>
<polygon fill="#ffffff" stroke="#000000" points="1179.3751,-247.4014 1026.1313,-247.4014 1026.1313,-188.5986 1179.3751,-188.5986 1179.3751,-247.4014"/>
<text text-anchor="middle" x="1102.7532" y="-230.6" font-family="Times,serif" font-size="14.00" fill="#000000">GO:0043228</text>
<text text-anchor="middle" x="1102.7532" y="-213.8" font-family="Times,serif" font-size="14.00" fill="#000000">non&#45;membrane&#45;bounded</text>
<text text-anchor="middle" x="1102.7532" y="-197" font-family="Times,serif" font-size="14.00" fill="#000000">organelle</text>
</g>
<!-- GO:0043232&#45;&gt;GO:0043228 -->
<g id="edge3" class="edge">
<title>GO:0043232&#45;&gt;GO:0043228</title>
<path fill="none" stroke="#000000" d="M1022.3222,-152.8952C1034.1711,-162.4863 1046.8684,-172.7641 1058.5933,-182.2548"/>
<polygon fill="#000000" stroke="#000000" points="1056.5579,-185.1102 1066.5327,-188.6814 1060.962,-179.6692 1056.5579,-185.1102"/>
</g>
<!-- GO:0044424 -->
<g id="node5" class="node">
<title>GO:0044424</title>
<polygon fill="#ffffff" stroke="#000000" points="445.1516,-333.0019 336.3548,-333.0019 336.3548,-291.7981 445.1516,-291.7981 445.1516,-333.0019"/>
<text text-anchor="middle" x="390.7532" y="-316.6" font-family="Times,serif" font-size="14.00" fill="#000000">GO:0044424</text>
<text text-anchor="middle" x="390.7532" y="-299.8" font-family="Times,serif" font-size="14.00" fill="#000000">intracellular part</text>
</g>
<!-- GO:0043229&#45;&gt;GO:0044424 -->
<g id="edge4" class="edge">
<title>GO:0043229&#45;&gt;GO:0044424</title>
<path fill="none" stroke="#000000" d="M868.8889,-237.2171C853.4552,-240.9626 837.1226,-244.5452 821.7532,-247.2 659.815,-275.1722 612.3199,-240.0373 453.7532,-283.2 449.0568,-284.4784 444.2747,-286.0799 439.5508,-287.8707"/>
<polygon fill="#000000" stroke="#000000" points="437.922,-284.7549 429.9821,-291.7698 440.5636,-291.2374 437.922,-284.7549"/>
</g>
<!-- GO:0043226 -->
<g id="node6" class="node">
<title>GO:0043226</title>
<polygon fill="#ffffff" stroke="#000000" points="1147.3571,-419.0019 1058.1493,-419.0019 1058.1493,-377.7981 1147.3571,-377.7981 1147.3571,-419.0019"/>
<text text-anchor="middle" x="1102.7532" y="-402.6" font-family="Times,serif" font-size="14.00" fill="#000000">GO:0043226</text>
<text text-anchor="middle" x="1102.7532" y="-385.8" font-family="Times,serif" font-size="14.00" fill="#000000">organelle</text>
</g>
<!-- GO:0043229&#45;&gt;GO:0043226 -->
<g id="edge5" class="edge">
<title>GO:0043229&#45;&gt;GO:0043226</title>
<path fill="none" stroke="#000000" d="M984.7309,-238.617C1005.346,-249.59 1028.7837,-264.6713 1045.7532,-283.2 1068.2714,-307.7872 1083.921,-342.9163 1093.0489,-367.9061"/>
<polygon fill="#000000" stroke="#000000" points="1089.838,-369.3264 1096.4513,-377.6038 1096.4433,-367.0089 1089.838,-369.3264"/>
</g>
<!-- GO:0043228&#45;&gt;GO:0043226 -->
<g id="edge6" class="edge">
<title>GO:0043228&#45;&gt;GO:0043226</title>
<path fill="none" stroke="#000000" d="M1102.7532,-247.3859C1102.7532,-280.4492 1102.7532,-333.9182 1102.7532,-367.5643"/>
<polygon fill="#000000" stroke="#000000" points="1099.2533,-367.7408 1102.7532,-377.7409 1106.2533,-367.7409 1099.2533,-367.7408"/>
</g>
<!-- GO:0044464 -->
<g id="node7" class="node">
<title>GO:0044464</title>
<polygon fill="#ffffff" stroke="#000000" points="622.3571,-419.0019 533.1493,-419.0019 533.1493,-377.7981 622.3571,-377.7981 622.3571,-419.0019"/>
<text text-anchor="middle" x="577.7532" y="-402.6" font-family="Times,serif" font-size="14.00" fill="#000000">GO:0044464</text>
<text text-anchor="middle" x="577.7532" y="-385.8" font-family="Times,serif" font-size="14.00" fill="#000000">cell part</text>
</g>
<!-- GO:0044424&#45;&gt;GO:0044464 -->
<g id="edge7" class="edge">
<title>GO:0044424&#45;&gt;GO:0044464</title>
<path fill="none" stroke="#000000" d="M435.142,-333.0041C441.3891,-335.895 447.7313,-338.8253 453.7532,-341.6 476.7105,-352.1782 502.0832,-363.8108 523.865,-373.7792"/>
<polygon fill="#000000" stroke="#000000" points="522.4131,-376.9638 532.9627,-377.9415 525.3254,-370.5984 522.4131,-376.9638"/>
</g>
<!-- GO:0005575 -->
<g id="node8" class="node">
<title>GO:0005575</title>
<polygon fill="#ffffff" stroke="#000000" points="1053.4399,-496.6019 926.0665,-496.6019 926.0665,-455.3981 1053.4399,-455.3981 1053.4399,-496.6019"/>
<text text-anchor="middle" x="989.7532" y="-480.2" font-family="Times,serif" font-size="14.00" fill="#000000">GO:0005575</text>
<text text-anchor="middle" x="989.7532" y="-463.4" font-family="Times,serif" font-size="14.00" fill="#000000">cellular_component</text>
</g>
<!-- GO:0043226&#45;&gt;GO:0005575 -->
<g id="edge8" class="edge">
<title>GO:0043226&#45;&gt;GO:0005575</title>
<path fill="none" stroke="#000000" d="M1072.4713,-419.1954C1058.9182,-428.5026 1042.779,-439.5858 1028.37,-449.4809"/>
<polygon fill="#000000" stroke="#000000" points="1026.3808,-446.601 1020.1187,-455.1472 1030.3435,-452.3714 1026.3808,-446.601"/>
</g>
<!-- GO:0044464&#45;&gt;GO:0005575 -->
<g id="edge17" class="edge">
<title>GO:0044464&#45;&gt;GO:0005575</title>
<path fill="none" stroke="#000000" d="M622.6287,-406.8523C693.2449,-420.1528 831.0197,-446.1026 916.2437,-462.1545"/>
<polygon fill="#000000" stroke="#000000" points="915.6371,-465.6017 926.1122,-464.0132 916.9328,-458.7227 915.6371,-465.6017"/>
</g>
<!-- GO:0098590 -->
<g id="node9" class="node">
<title>GO:0098590</title>
<polygon fill="#ffffff" stroke="#000000" points="173.2604,-238.6019 16.246,-238.6019 16.246,-197.3981 173.2604,-197.3981 173.2604,-238.6019"/>
<text text-anchor="middle" x="94.7532" y="-222.2" font-family="Times,serif" font-size="14.00" fill="#000000">GO:0098590</text>
<text text-anchor="middle" x="94.7532" y="-205.4" font-family="Times,serif" font-size="14.00" fill="#000000">plasma membrane region</text>
</g>
<!-- GO:0016020 -->
<g id="node10" class="node">
<title>GO:0016020</title>
<polygon fill="#ffffff" stroke="#000000" points="303.3571,-419.0019 214.1493,-419.0019 214.1493,-377.7981 303.3571,-377.7981 303.3571,-419.0019"/>
<text text-anchor="middle" x="258.7532" y="-402.6" font-family="Times,serif" font-size="14.00" fill="#000000">GO:0016020</text>
<text text-anchor="middle" x="258.7532" y="-385.8" font-family="Times,serif" font-size="14.00" fill="#000000">membrane</text>
</g>
<!-- GO:0098590&#45;&gt;GO:0016020 -->
<g id="edge9" class="edge">
<title>GO:0098590&#45;&gt;GO:0016020</title>
<path fill="none" stroke="#000000" d="M114.6585,-238.7478C126.2607,-251.2304 140.8956,-267.6647 152.7532,-283.2 171.5415,-307.8155 170.1978,-318.4396 190.7532,-341.6 200.1103,-352.1429 211.482,-362.4162 222.2269,-371.262"/>
<polygon fill="#000000" stroke="#000000" points="220.2895,-374.1951 230.2777,-377.7289 224.6733,-368.7377 220.2895,-374.1951"/>
</g>
<!-- GO:0044459 -->
<g id="node11" class="node">
<title>GO:0044459</title>
<polygon fill="#ffffff" stroke="#000000" points="143.2604,-333.0019 .246,-333.0019 .246,-291.7981 143.2604,-291.7981 143.2604,-333.0019"/>
<text text-anchor="middle" x="71.7532" y="-316.6" font-family="Times,serif" font-size="14.00" fill="#000000">GO:0044459</text>
<text text-anchor="middle" x="71.7532" y="-299.8" font-family="Times,serif" font-size="14.00" fill="#000000">plasma membrane part</text>
</g>
<!-- GO:0098590&#45;&gt;GO:0044459 -->
<g id="edge10" class="edge">
<title>GO:0098590&#45;&gt;GO:0044459</title>
<path fill="none" stroke="#000000" d="M89.6488,-238.9504C86.5817,-251.5387 82.6247,-267.7795 79.2118,-281.7872"/>
<polygon fill="#000000" stroke="#000000" points="75.8101,-280.9638 76.8434,-291.5081 82.6112,-282.6209 75.8101,-280.9638"/>
</g>
<!-- GO:0016020&#45;&gt;GO:0005575 -->
<g id="edge11" class="edge">
<title>GO:0016020&#45;&gt;GO:0005575</title>
<path fill="none" stroke="#000000" d="M303.3801,-403.1374C425.3456,-416.0848 765.1969,-452.162 916.0269,-468.1735"/>
<polygon fill="#000000" stroke="#000000" points="915.8058,-471.6696 926.1195,-469.2449 916.5448,-464.7087 915.8058,-471.6696"/>
</g>
<!-- GO:0044459&#45;&gt;GO:0044464 -->
<g id="edge13" class="edge">
<title>GO:0044459&#45;&gt;GO:0044464</title>
<path fill="none" stroke="#000000" d="M143.5629,-331.1847C159.0659,-334.9133 175.4087,-338.5984 190.7532,-341.6 308.3473,-364.6033 447.6914,-382.8806 522.9361,-392.0184"/>
<polygon fill="#000000" stroke="#000000" points="522.7719,-395.5239 533.1191,-393.2467 523.6102,-388.5743 522.7719,-395.5239"/>
</g>
<!-- GO:0044425 -->
<g id="node12" class="node">
<title>GO:0044425</title>
<polygon fill="#ffffff" stroke="#000000" points="122.1052,-419.0019 21.4012,-419.0019 21.4012,-377.7981 122.1052,-377.7981 122.1052,-419.0019"/>
<text text-anchor="middle" x="71.7532" y="-402.6" font-family="Times,serif" font-size="14.00" fill="#000000">GO:0044425</text>
<text text-anchor="middle" x="71.7532" y="-385.8" font-family="Times,serif" font-size="14.00" fill="#000000">membrane part</text>
</g>
<!-- GO:0044459&#45;&gt;GO:0044425 -->
<g id="edge12" class="edge">
<title>GO:0044459&#45;&gt;GO:0044425</title>
<path fill="none" stroke="#000000" d="M71.7532,-333.2182C71.7532,-343.5705 71.7532,-356.2848 71.7532,-367.7271"/>
<polygon fill="#000000" stroke="#000000" points="68.2533,-367.7735 71.7532,-377.7735 75.2533,-367.7735 68.2533,-367.7735"/>
</g>
<!-- GO:0042383 -->
<g id="node13" class="node">
<title>GO:0042383</title>
<polygon fill="#ffffff" stroke="#000000" points="303.3571,-238.6019 214.1493,-238.6019 214.1493,-197.3981 303.3571,-197.3981 303.3571,-238.6019"/>
<text text-anchor="middle" x="258.7532" y="-222.2" font-family="Times,serif" font-size="14.00" fill="#000000">GO:0042383</text>
<text text-anchor="middle" x="258.7532" y="-205.4" font-family="Times,serif" font-size="14.00" fill="#000000">sarcolemma</text>
</g>
<!-- GO:0005886 -->
<g id="node14" class="node">
<title>GO:0005886</title>
<polygon fill="#ffffff" stroke="#000000" points="317.994,-333.0019 199.5124,-333.0019 199.5124,-291.7981 317.994,-291.7981 317.994,-333.0019"/>
<text text-anchor="middle" x="258.7532" y="-316.6" font-family="Times,serif" font-size="14.00" fill="#000000">GO:0005886</text>
<text text-anchor="middle" x="258.7532" y="-299.8" font-family="Times,serif" font-size="14.00" fill="#000000">plasma membrane</text>
</g>
<!-- GO:0042383&#45;&gt;GO:0005886 -->
<g id="edge14" class="edge">
<title>GO:0042383&#45;&gt;GO:0005886</title>
<path fill="none" stroke="#000000" d="M258.7532,-238.9504C258.7532,-251.4165 258.7532,-267.4645 258.7532,-281.3786"/>
<polygon fill="#000000" stroke="#000000" points="255.2533,-281.5081 258.7532,-291.5081 262.2533,-281.5082 255.2533,-281.5081"/>
</g>
<!-- GO:0005886&#45;&gt;GO:0044464 -->
<g id="edge16" class="edge">
<title>GO:0005886&#45;&gt;GO:0044464</title>
<path fill="none" stroke="#000000" d="M304.348,-333.0281C312.0725,-336.1367 320.0775,-339.1254 327.7532,-341.6 393.6788,-362.8539 471.8394,-379.2576 522.9963,-388.8536"/>
<polygon fill="#000000" stroke="#000000" points="522.3856,-392.2999 532.856,-390.6814 523.6616,-385.4172 522.3856,-392.2999"/>
</g>
<!-- GO:0005886&#45;&gt;GO:0016020 -->
<g id="edge15" class="edge">
<title>GO:0005886&#45;&gt;GO:0016020</title>
<path fill="none" stroke="#000000" d="M258.7532,-333.2182C258.7532,-343.5705 258.7532,-356.2848 258.7532,-367.7271"/>
<polygon fill="#000000" stroke="#000000" points="255.2533,-367.7735 258.7532,-377.7735 262.2533,-367.7735 255.2533,-367.7735"/>
</g>
<!-- GO:0070062 -->
<g id="node15" class="node">
<title>GO:0070062</title>
<polygon fill="#ffffff" stroke="#000000" points="1333.4744,-41.4019 1194.032,-41.4019 1194.032,-.1981 1333.4744,-.1981 1333.4744,-41.4019"/>
<text text-anchor="middle" x="1263.7532" y="-25" font-family="Times,serif" font-size="14.00" fill="#000000">GO:0070062</text>
<text text-anchor="middle" x="1263.7532" y="-8.2" font-family="Times,serif" font-size="14.00" fill="#000000">extracellular exosome</text>
</g>
<!-- GO:1903561 -->
<g id="node16" class="node">
<title>GO:1903561</title>
<polygon fill="#ffffff" stroke="#000000" points="1412.0798,-135.8019 1283.4266,-135.8019 1283.4266,-94.5981 1412.0798,-94.5981 1412.0798,-135.8019"/>
<text text-anchor="middle" x="1347.7532" y="-119.4" font-family="Times,serif" font-size="14.00" fill="#000000">GO:1903561</text>
<text text-anchor="middle" x="1347.7532" y="-102.6" font-family="Times,serif" font-size="14.00" fill="#000000">extracellular vesicle</text>
</g>
<!-- GO:0070062&#45;&gt;GO:1903561 -->
<g id="edge18" class="edge">
<title>GO:0070062&#45;&gt;GO:1903561</title>
<path fill="none" stroke="#000000" d="M1282.3955,-41.7504C1294.1407,-54.9498 1309.4592,-72.1649 1322.3136,-86.6107"/>
<polygon fill="#000000" stroke="#000000" points="1319.9007,-89.1642 1329.163,-94.3081 1325.1301,-84.5109 1319.9007,-89.1642"/>
</g>
<!-- GO:0031988 -->
<g id="node17" class="node">
<title>GO:0031988</title>
<polygon fill="#ffffff" stroke="#000000" points="1266.0839,-135.8019 1095.4225,-135.8019 1095.4225,-94.5981 1266.0839,-94.5981 1266.0839,-135.8019"/>
<text text-anchor="middle" x="1180.7532" y="-119.4" font-family="Times,serif" font-size="14.00" fill="#000000">GO:0031988</text>
<text text-anchor="middle" x="1180.7532" y="-102.6" font-family="Times,serif" font-size="14.00" fill="#000000">membrane&#45;bounded vesicle</text>
</g>
<!-- GO:0070062&#45;&gt;GO:0031988 -->
<g id="edge19" class="edge">
<title>GO:0070062&#45;&gt;GO:0031988</title>
<path fill="none" stroke="#000000" d="M1245.3328,-41.7504C1233.7274,-54.9498 1218.5913,-72.1649 1205.89,-86.6107"/>
<polygon fill="#000000" stroke="#000000" points="1203.0967,-84.4871 1199.1221,-94.3081 1208.3537,-89.1092 1203.0967,-84.4871"/>
</g>
<!-- GO:0043230 -->
<g id="node18" class="node">
<title>GO:0043230</title>
<polygon fill="#ffffff" stroke="#000000" points="1418.2961,-333.0019 1277.2103,-333.0019 1277.2103,-291.7981 1418.2961,-291.7981 1418.2961,-333.0019"/>
<text text-anchor="middle" x="1347.7532" y="-316.6" font-family="Times,serif" font-size="14.00" fill="#000000">GO:0043230</text>
<text text-anchor="middle" x="1347.7532" y="-299.8" font-family="Times,serif" font-size="14.00" fill="#000000">extracellular organelle</text>
</g>
<!-- GO:1903561&#45;&gt;GO:0043230 -->
<g id="edge20" class="edge">
<title>GO:1903561&#45;&gt;GO:0043230</title>
<path fill="none" stroke="#000000" d="M1347.7532,-135.9311C1347.7532,-170.6982 1347.7532,-240.9284 1347.7532,-281.524"/>
<polygon fill="#000000" stroke="#000000" points="1344.2533,-281.6507 1347.7532,-291.6507 1351.2533,-281.6508 1344.2533,-281.6507"/>
</g>
<!-- GO:0031982 -->
<g id="node19" class="node">
<title>GO:0031982</title>
<polygon fill="#ffffff" stroke="#000000" points="1286.3571,-238.6019 1197.1493,-238.6019 1197.1493,-197.3981 1286.3571,-197.3981 1286.3571,-238.6019"/>
<text text-anchor="middle" x="1241.7532" y="-222.2" font-family="Times,serif" font-size="14.00" fill="#000000">GO:0031982</text>
<text text-anchor="middle" x="1241.7532" y="-205.4" font-family="Times,serif" font-size="14.00" fill="#000000">vesicle</text>
</g>
<!-- GO:1903561&#45;&gt;GO:0031982 -->
<g id="edge21" class="edge">
<title>GO:1903561&#45;&gt;GO:0031982</title>
<path fill="none" stroke="#000000" d="M1326.3025,-136.0031C1310.2108,-151.609 1288.0185,-173.1314 1270.4078,-190.2105"/>
<polygon fill="#000000" stroke="#000000" points="1267.9139,-187.7534 1263.172,-197.2278 1272.7873,-192.7784 1267.9139,-187.7534"/>
</g>
<!-- GO:0031988&#45;&gt;GO:0031982 -->
<g id="edge22" class="edge">
<title>GO:0031988&#45;&gt;GO:0031982</title>
<path fill="none" stroke="#000000" d="M1193.0975,-136.0031C1202.0271,-151.0517 1214.2211,-171.6017 1224.1677,-188.364"/>
<polygon fill="#000000" stroke="#000000" points="1221.3142,-190.414 1229.4273,-197.2278 1227.3342,-186.8418 1221.3142,-190.414"/>
</g>
<!-- GO:0043230&#45;&gt;GO:0043226 -->
<g id="edge23" class="edge">
<title>GO:0043230&#45;&gt;GO:0043226</title>
<path fill="none" stroke="#000000" d="M1291.4188,-333.1097C1283.4811,-335.9846 1275.4175,-338.8823 1267.7532,-341.6 1231.0082,-354.6293 1189.5112,-368.9123 1157.325,-379.8961"/>
<polygon fill="#000000" stroke="#000000" points="1155.9865,-376.6545 1147.6507,-383.1939 1158.2451,-383.2802 1155.9865,-376.6545"/>
</g>
<!-- GO:0044421 -->
<g id="node20" class="node">
<title>GO:0044421</title>
<polygon fill="#ffffff" stroke="#000000" points="1369.2422,-419.0019 1218.2642,-419.0019 1218.2642,-377.7981 1369.2422,-377.7981 1369.2422,-419.0019"/>
<text text-anchor="middle" x="1293.7532" y="-402.6" font-family="Times,serif" font-size="14.00" fill="#000000">GO:0044421</text>
<text text-anchor="middle" x="1293.7532" y="-385.8" font-family="Times,serif" font-size="14.00" fill="#000000">extracellular region part</text>
</g>
<!-- GO:0043230&#45;&gt;GO:0044421 -->
<g id="edge24" class="edge">
<title>GO:0043230&#45;&gt;GO:0044421</title>
<path fill="none" stroke="#000000" d="M1334.6813,-333.2182C1327.9157,-343.993 1319.5434,-357.3267 1312.1373,-369.1216"/>
<polygon fill="#000000" stroke="#000000" points="1309.0583,-367.4434 1306.7047,-377.7735 1314.9866,-371.1658 1309.0583,-367.4434"/>
</g>
<!-- GO:0043227 -->
<g id="node21" class="node">
<title>GO:0043227</title>
<polygon fill="#ffffff" stroke="#000000" points="1258.714,-341.8014 1130.7924,-341.8014 1130.7924,-282.9986 1258.714,-282.9986 1258.714,-341.8014"/>
<text text-anchor="middle" x="1194.7532" y="-325" font-family="Times,serif" font-size="14.00" fill="#000000">GO:0043227</text>
<text text-anchor="middle" x="1194.7532" y="-308.2" font-family="Times,serif" font-size="14.00" fill="#000000">membrane&#45;bounded</text>
<text text-anchor="middle" x="1194.7532" y="-291.4" font-family="Times,serif" font-size="14.00" fill="#000000">organelle</text>
</g>
<!-- GO:0031982&#45;&gt;GO:0043227 -->
<g id="edge25" class="edge">
<title>GO:0031982&#45;&gt;GO:0043227</title>
<path fill="none" stroke="#000000" d="M1231.3224,-238.9504C1226.2436,-249.1512 1219.9706,-261.7505 1214.0628,-273.6164"/>
<polygon fill="#000000" stroke="#000000" points="1210.7568,-272.4037 1209.433,-282.9155 1217.0231,-275.5236 1210.7568,-272.4037"/>
</g>
<!-- GO:0044421&#45;&gt;GO:0005575 -->
<g id="edge26" class="edge">
<title>GO:0044421&#45;&gt;GO:0005575</title>
<path fill="none" stroke="#000000" d="M1218.2165,-417.6817C1170.9358,-429.7508 1110.3083,-445.2267 1063.3911,-457.203"/>
<polygon fill="#000000" stroke="#000000" points="1062.421,-453.8383 1053.5973,-459.7029 1064.1523,-460.6208 1062.421,-453.8383"/>
</g>
<!-- GO:0043227&#45;&gt;GO:0043226 -->
<g id="edge27" class="edge">
<title>GO:0043227&#45;&gt;GO:0043226</title>
<path fill="none" stroke="#000000" d="M1163.3493,-341.7558C1153.311,-351.1394 1142.2381,-361.4902 1132.3341,-370.7483"/>
<polygon fill="#000000" stroke="#000000" points="1129.9399,-368.1952 1125.0248,-377.5809 1134.7202,-373.3089 1129.9399,-368.1952"/>
</g>
<!-- GO:0044463 -->
<g id="node22" class="node">
<title>GO:0044463</title>
<polygon fill="#ffffff" stroke="#000000" points="703.4913,-333.0019 582.0151,-333.0019 582.0151,-291.7981 703.4913,-291.7981 703.4913,-333.0019"/>
<text text-anchor="middle" x="642.7532" y="-316.6" font-family="Times,serif" font-size="14.00" fill="#000000">GO:0044463</text>
<text text-anchor="middle" x="642.7532" y="-299.8" font-family="Times,serif" font-size="14.00" fill="#000000">cell projection part</text>
</g>
<!-- GO:0044463&#45;&gt;GO:0044464 -->
<g id="edge28" class="edge">
<title>GO:0044463&#45;&gt;GO:0044464</title>
<path fill="none" stroke="#000000" d="M627.0185,-333.2182C618.7949,-344.0987 608.5992,-357.5884 599.6203,-369.4681"/>
<polygon fill="#000000" stroke="#000000" points="596.5805,-367.6854 593.343,-377.7735 602.1649,-371.9062 596.5805,-367.6854"/>
</g>
<!-- GO:0097458 -->
<g id="node23" class="node">
<title>GO:0097458</title>
<polygon fill="#ffffff" stroke="#000000" points="810.3571,-333.0019 721.1493,-333.0019 721.1493,-291.7981 810.3571,-291.7981 810.3571,-333.0019"/>
<text text-anchor="middle" x="765.7532" y="-316.6" font-family="Times,serif" font-size="14.00" fill="#000000">GO:0097458</text>
<text text-anchor="middle" x="765.7532" y="-299.8" font-family="Times,serif" font-size="14.00" fill="#000000">neuron part</text>
</g>
<!-- GO:0097458&#45;&gt;GO:0044464 -->
<g id="edge29" class="edge">
<title>GO:0097458&#45;&gt;GO:0044464</title>
<path fill="none" stroke="#000000" d="M729.524,-333.0173C723.957,-335.9937 718.2374,-338.9447 712.7532,-341.6 686.4732,-354.3243 656.607,-367.0617 631.6594,-377.2404"/>
<polygon fill="#000000" stroke="#000000" points="630.3097,-374.0109 622.3566,-381.0108 632.939,-380.4983 630.3097,-374.0109"/>
</g>
<!-- GO:0044430 -->
<g id="node24" class="node">
<title>GO:0044430</title>
<polygon fill="#ffffff" stroke="#000000" points="470.8845,-135.8019 362.6219,-135.8019 362.6219,-94.5981 470.8845,-94.5981 470.8845,-135.8019"/>
<text text-anchor="middle" x="416.7532" y="-119.4" font-family="Times,serif" font-size="14.00" fill="#000000">GO:0044430</text>
<text text-anchor="middle" x="416.7532" y="-102.6" font-family="Times,serif" font-size="14.00" fill="#000000">cytoskeletal part</text>
</g>
<!-- GO:0044446 -->
<g id="node25" class="node">
<title>GO:0044446</title>
<polygon fill="#ffffff" stroke="#000000" points="486.4716,-247.4014 347.0348,-247.4014 347.0348,-188.5986 486.4716,-188.5986 486.4716,-247.4014"/>
<text text-anchor="middle" x="416.7532" y="-230.6" font-family="Times,serif" font-size="14.00" fill="#000000">GO:0044446</text>
<text text-anchor="middle" x="416.7532" y="-213.8" font-family="Times,serif" font-size="14.00" fill="#000000">intracellular organelle</text>
<text text-anchor="middle" x="416.7532" y="-197" font-family="Times,serif" font-size="14.00" fill="#000000">part</text>
</g>
<!-- GO:0044430&#45;&gt;GO:0044446 -->
<g id="edge30" class="edge">
<title>GO:0044430&#45;&gt;GO:0044446</title>
<path fill="none" stroke="#000000" d="M416.7532,-136.0031C416.7532,-148.1833 416.7532,-163.9676 416.7532,-178.4305"/>
<polygon fill="#000000" stroke="#000000" points="413.2533,-178.6577 416.7532,-188.6577 420.2533,-178.6578 413.2533,-178.6577"/>
</g>
<!-- GO:0044446&#45;&gt;GO:0044424 -->
<g id="edge31" class="edge">
<title>GO:0044446&#45;&gt;GO:0044424</title>
<path fill="none" stroke="#000000" d="M408.6692,-247.3513C405.6333,-258.3739 402.1779,-270.9196 399.1171,-282.0326"/>
<polygon fill="#000000" stroke="#000000" points="395.7215,-281.1806 396.4404,-291.751 402.4702,-283.0394 395.7215,-281.1806"/>
</g>
<!-- GO:0044422 -->
<g id="node26" class="node">
<title>GO:0044422</title>
<polygon fill="#ffffff" stroke="#000000" points="1036.6053,-333.0019 942.9011,-333.0019 942.9011,-291.7981 1036.6053,-291.7981 1036.6053,-333.0019"/>
<text text-anchor="middle" x="989.7532" y="-316.6" font-family="Times,serif" font-size="14.00" fill="#000000">GO:0044422</text>
<text text-anchor="middle" x="989.7532" y="-299.8" font-family="Times,serif" font-size="14.00" fill="#000000">organelle part</text>
</g>
<!-- GO:0044446&#45;&gt;GO:0044422 -->
<g id="edge32" class="edge">
<title>GO:0044446&#45;&gt;GO:0044422</title>
<path fill="none" stroke="#000000" d="M486.466,-235.253C506.1838,-239.665 527.7278,-244.0473 547.7532,-247.2 717.9568,-273.9964 768.4918,-234.4558 933.7532,-283.2 937.7758,-284.3865 941.8465,-285.8703 945.8612,-287.5361"/>
<polygon fill="#000000" stroke="#000000" points="944.5236,-290.7724 955.0779,-291.6989 947.405,-284.3929 944.5236,-290.7724"/>
</g>
<!-- GO:0044422&#45;&gt;GO:0005575 -->
<g id="edge33" class="edge">
<title>GO:0044422&#45;&gt;GO:0005575</title>
<path fill="none" stroke="#000000" d="M989.7532,-333.1201C989.7532,-361.3159 989.7532,-412.0064 989.7532,-444.8099"/>
<polygon fill="#000000" stroke="#000000" points="986.2533,-445.1904 989.7532,-455.1904 993.2533,-445.1905 986.2533,-445.1904"/>
</g>
<!-- GO:0098858 -->
<g id="node27" class="node">
<title>GO:0098858</title>
<polygon fill="#ffffff" stroke="#000000" points="812.7094,-247.4014 708.797,-247.4014 708.797,-188.5986 812.7094,-188.5986 812.7094,-247.4014"/>
<text text-anchor="middle" x="760.7532" y="-230.6" font-family="Times,serif" font-size="14.00" fill="#000000">GO:0098858</text>
<text text-anchor="middle" x="760.7532" y="-213.8" font-family="Times,serif" font-size="14.00" fill="#000000">actin&#45;based cell</text>
<text text-anchor="middle" x="760.7532" y="-197" font-family="Times,serif" font-size="14.00" fill="#000000">projection</text>
</g>
<!-- GO:0042995 -->
<g id="node28" class="node">
<title>GO:0042995</title>
<polygon fill="#ffffff" stroke="#000000" points="925.2264,-333.0019 828.28,-333.0019 828.28,-291.7981 925.2264,-291.7981 925.2264,-333.0019"/>
<text text-anchor="middle" x="876.7532" y="-316.6" font-family="Times,serif" font-size="14.00" fill="#000000">GO:0042995</text>
<text text-anchor="middle" x="876.7532" y="-299.8" font-family="Times,serif" font-size="14.00" fill="#000000">cell projection</text>
</g>
<!-- GO:0098858&#45;&gt;GO:0042995 -->
<g id="edge34" class="edge">
<title>GO:0098858&#45;&gt;GO:0042995</title>
<path fill="none" stroke="#000000" d="M796.8205,-247.3513C811.7473,-259.4987 828.9471,-273.4958 843.5589,-285.3867"/>
<polygon fill="#000000" stroke="#000000" points="841.414,-288.1537 851.3794,-291.751 845.8324,-282.7243 841.414,-288.1537"/>
</g>
<!-- GO:0042995&#45;&gt;GO:0044464 -->
<g id="edge35" class="edge">
<title>GO:0042995&#45;&gt;GO:0044464</title>
<path fill="none" stroke="#000000" d="M839.6221,-333.0473C833.1197,-336.1903 826.3286,-339.185 819.7532,-341.6 757.2201,-364.5668 682.1103,-380.4884 632.3279,-389.5105"/>
<polygon fill="#000000" stroke="#000000" points="631.643,-386.0773 622.4119,-391.277 632.8707,-392.9688 631.643,-386.0773"/>
</g>
<!-- GO:0070938 -->
<g id="node29" class="node">
<title>GO:0070938</title>
<polygon fill="#ffffff" stroke="#000000" points="564.3859,-333.0019 463.1205,-333.0019 463.1205,-291.7981 564.3859,-291.7981 564.3859,-333.0019"/>
<text text-anchor="middle" x="513.7532" y="-316.6" font-family="Times,serif" font-size="14.00" fill="#000000">GO:0070938</text>
<text text-anchor="middle" x="513.7532" y="-299.8" font-family="Times,serif" font-size="14.00" fill="#000000">contractile ring</text>
</g>
<!-- GO:0070938&#45;&gt;GO:0044464 -->
<g id="edge36" class="edge">
<title>GO:0070938&#45;&gt;GO:0044464</title>
<path fill="none" stroke="#000000" d="M529.2458,-333.2182C537.3429,-344.0987 547.3818,-357.5884 556.2225,-369.4681"/>
<polygon fill="#000000" stroke="#000000" points="553.6253,-371.8407 562.4033,-377.7735 559.2409,-367.6616 553.6253,-371.8407"/>
</g>
<!-- GO:0044449 -->
<g id="node30" class="node">
<title>GO:0044449</title>
<polygon fill="#ffffff" stroke="#000000" points="785.0271,-135.8019 654.4793,-135.8019 654.4793,-94.5981 785.0271,-94.5981 785.0271,-135.8019"/>
<text text-anchor="middle" x="719.7532" y="-119.4" font-family="Times,serif" font-size="14.00" fill="#000000">GO:0044449</text>
<text text-anchor="middle" x="719.7532" y="-102.6" font-family="Times,serif" font-size="14.00" fill="#000000">contractile fiber part</text>
</g>
<!-- GO:0044449&#45;&gt;GO:0044422 -->
<g id="edge38" class="edge">
<title>GO:0044449&#45;&gt;GO:0044422</title>
<path fill="none" stroke="#000000" d="M754.8453,-135.8939C775.7718,-149.3033 802.0186,-168.0906 821.7532,-188.8 843.1158,-211.2179 836.5411,-226.7031 859.7532,-247.2 887.1688,-271.4088 901.0904,-266.7433 933.7532,-283.2 936.1935,-284.4295 938.6894,-285.6964 941.207,-286.9817"/>
<polygon fill="#000000" stroke="#000000" points="939.8629,-290.226 950.3571,-291.6825 943.0617,-283.9996 939.8629,-290.226"/>
</g>
<!-- GO:0044444 -->
<g id="node31" class="node">
<title>GO:0044444</title>
<polygon fill="#ffffff" stroke="#000000" points="665.1698,-238.6019 556.3366,-238.6019 556.3366,-197.3981 665.1698,-197.3981 665.1698,-238.6019"/>
<text text-anchor="middle" x="610.7532" y="-222.2" font-family="Times,serif" font-size="14.00" fill="#000000">GO:0044444</text>
<text text-anchor="middle" x="610.7532" y="-205.4" font-family="Times,serif" font-size="14.00" fill="#000000">cytoplasmic part</text>
</g>
<!-- GO:0044449&#45;&gt;GO:0044444 -->
<g id="edge37" class="edge">
<title>GO:0044449&#45;&gt;GO:0044444</title>
<path fill="none" stroke="#000000" d="M697.6954,-136.0031C681.1483,-151.609 658.3279,-173.1314 640.2187,-190.2105"/>
<polygon fill="#000000" stroke="#000000" points="637.6517,-187.8204 632.7782,-197.2278 642.4545,-192.9129 637.6517,-187.8204"/>
</g>
<!-- GO:0044444&#45;&gt;GO:0044424 -->
<g id="edge39" class="edge">
<title>GO:0044444&#45;&gt;GO:0044424</title>
<path fill="none" stroke="#000000" d="M559.6231,-238.6237C528.82,-251.1997 488.8828,-267.772 453.7532,-283.2 450.5661,-284.5997 447.2964,-286.0552 444.0034,-287.5359"/>
<polygon fill="#000000" stroke="#000000" points="442.3715,-284.4329 434.7102,-291.751 445.263,-290.8078 442.3715,-284.4329"/>
</g>
</g>
</svg>
