<?xml version="1.0" encoding="UTF-8" standalone="no"?>
<!DOCTYPE svg PUBLIC "-//W3C//DTD SVG 1.1//EN"
 "http://www.w3.org/Graphics/SVG/1.1/DTD/svg11.dtd">
<!-- Generated by graphviz version 2.40.1 (20161225.0304)
 -->
<!-- Title: G Pages: 1 -->
<svg width="1078pt" height="710pt"
 viewBox="0.00 0.00 1078.50 710.40" xmlns="http://www.w3.org/2000/svg" xmlns:xlink="http://www.w3.org/1999/xlink">
<g id="graph0" class="graph" transform="scale(1 1) rotate(0) translate(4 706.4)">
<title>G</title>
<polygon fill="#ffffff" stroke="transparent" points="-4,4 -4,-706.4 1074.4966,-706.4 1074.4966,4 -4,4"/>
<!-- GO:0005737 -->
<g id="node1" class="node">
<title>GO:0005737</title>
<polygon fill="#ffffff" stroke="#000000" points="239.9374,-461.0019 150.7296,-461.0019 150.7296,-419.7981 239.9374,-419.7981 239.9374,-461.0019"/>
<text text-anchor="middle" x="195.3335" y="-444.6" font-family="Times,serif" font-size="14.00" fill="#000000">GO:0005737</text>
<text text-anchor="middle" x="195.3335" y="-427.8" font-family="Times,serif" font-size="14.00" fill="#000000">cytoplasm</text>
</g>
<!-- GO:0044424 -->
<g id="node2" class="node">
<title>GO:0044424</title>
<polygon fill="#ffffff" stroke="#000000" points="420.7319,-547.0019 311.9351,-547.0019 311.9351,-505.7981 420.7319,-505.7981 420.7319,-547.0019"/>
<text text-anchor="middle" x="366.3335" y="-530.6" font-family="Times,serif" font-size="14.00" fill="#000000">GO:0044424</text>
<text text-anchor="middle" x="366.3335" y="-513.8" font-family="Times,serif" font-size="14.00" fill="#000000">intracellular part</text>
</g>
<!-- GO:0005737&#45;&gt;GO:0044424 -->
<g id="edge1" class="edge">
<title>GO:0005737&#45;&gt;GO:0044424</title>
<path fill="none" stroke="#000000" d="M236.7278,-461.2182C260.6727,-473.2606 290.9731,-488.4994 316.2544,-501.214"/>
<polygon fill="#000000" stroke="#000000" points="314.814,-504.4073 325.3204,-505.7735 317.9591,-498.1536 314.814,-504.4073"/>
</g>
<!-- GO:0044464 -->
<g id="node3" class="node">
<title>GO:0044464</title>
<polygon fill="#ffffff" stroke="#000000" points="419.9374,-624.6019 330.7296,-624.6019 330.7296,-583.3981 419.9374,-583.3981 419.9374,-624.6019"/>
<text text-anchor="middle" x="375.3335" y="-608.2" font-family="Times,serif" font-size="14.00" fill="#000000">GO:0044464</text>
<text text-anchor="middle" x="375.3335" y="-591.4" font-family="Times,serif" font-size="14.00" fill="#000000">cell part</text>
</g>
<!-- GO:0044424&#45;&gt;GO:0044464 -->
<g id="edge2" class="edge">
<title>GO:0044424&#45;&gt;GO:0044464</title>
<path fill="none" stroke="#000000" d="M368.7453,-547.1954C369.6634,-555.1109 370.7304,-564.3109 371.7349,-572.9722"/>
<polygon fill="#000000" stroke="#000000" points="368.2862,-573.6171 372.915,-583.1472 375.2395,-572.8106 368.2862,-573.6171"/>
</g>
<!-- GO:0005575 -->
<g id="node4" class="node">
<title>GO:0005575</title>
<polygon fill="#ffffff" stroke="#000000" points="649.0202,-702.2019 521.6468,-702.2019 521.6468,-660.9981 649.0202,-660.9981 649.0202,-702.2019"/>
<text text-anchor="middle" x="585.3335" y="-685.8" font-family="Times,serif" font-size="14.00" fill="#000000">GO:0005575</text>
<text text-anchor="middle" x="585.3335" y="-669" font-family="Times,serif" font-size="14.00" fill="#000000">cellular_component</text>
</g>
<!-- GO:0044464&#45;&gt;GO:0005575 -->
<g id="edge3" class="edge">
<title>GO:0044464&#45;&gt;GO:0005575</title>
<path fill="none" stroke="#000000" d="M420.1262,-620.552C449.1797,-631.2879 487.5221,-645.4564 519.9544,-657.4409"/>
<polygon fill="#000000" stroke="#000000" points="518.7782,-660.7375 529.3714,-660.9207 521.2045,-654.1714 518.7782,-660.7375"/>
</g>
<!-- GO:0070062 -->
<g id="node5" class="node">
<title>GO:0070062</title>
<polygon fill="#ffffff" stroke="#000000" points="992.0547,-152.6019 852.6123,-152.6019 852.6123,-111.3981 992.0547,-111.3981 992.0547,-152.6019"/>
<text text-anchor="middle" x="922.3335" y="-136.2" font-family="Times,serif" font-size="14.00" fill="#000000">GO:0070062</text>
<text text-anchor="middle" x="922.3335" y="-119.4" font-family="Times,serif" font-size="14.00" fill="#000000">extracellular exosome</text>
</g>
<!-- GO:1903561 -->
<g id="node6" class="node">
<title>GO:1903561</title>
<polygon fill="#ffffff" stroke="#000000" points="1070.6601,-255.4019 942.0069,-255.4019 942.0069,-214.1981 1070.6601,-214.1981 1070.6601,-255.4019"/>
<text text-anchor="middle" x="1006.3335" y="-239" font-family="Times,serif" font-size="14.00" fill="#000000">GO:1903561</text>
<text text-anchor="middle" x="1006.3335" y="-222.2" font-family="Times,serif" font-size="14.00" fill="#000000">extracellular vesicle</text>
</g>
<!-- GO:0070062&#45;&gt;GO:1903561 -->
<g id="edge4" class="edge">
<title>GO:0070062&#45;&gt;GO:1903561</title>
<path fill="none" stroke="#000000" d="M939.3322,-152.8031C951.8564,-168.1304 969.0439,-189.1647 982.8751,-206.0913"/>
<polygon fill="#000000" stroke="#000000" points="980.3224,-208.4988 989.3601,-214.0278 985.7429,-204.0696 980.3224,-208.4988"/>
</g>
<!-- GO:0031988 -->
<g id="node7" class="node">
<title>GO:0031988</title>
<polygon fill="#ffffff" stroke="#000000" points="924.6642,-255.4019 754.0028,-255.4019 754.0028,-214.1981 924.6642,-214.1981 924.6642,-255.4019"/>
<text text-anchor="middle" x="839.3335" y="-239" font-family="Times,serif" font-size="14.00" fill="#000000">GO:0031988</text>
<text text-anchor="middle" x="839.3335" y="-222.2" font-family="Times,serif" font-size="14.00" fill="#000000">membrane&#45;bounded vesicle</text>
</g>
<!-- GO:0070062&#45;&gt;GO:0031988 -->
<g id="edge5" class="edge">
<title>GO:0070062&#45;&gt;GO:0031988</title>
<path fill="none" stroke="#000000" d="M905.5372,-152.8031C893.1621,-168.1304 876.1792,-189.1647 862.5127,-206.0913"/>
<polygon fill="#000000" stroke="#000000" points="859.6636,-204.0486 856.1048,-214.0278 865.11,-208.446 859.6636,-204.0486"/>
</g>
<!-- GO:0043230 -->
<g id="node8" class="node">
<title>GO:0043230</title>
<polygon fill="#ffffff" stroke="#000000" points="1069.8764,-461.0019 928.7906,-461.0019 928.7906,-419.7981 1069.8764,-419.7981 1069.8764,-461.0019"/>
<text text-anchor="middle" x="999.3335" y="-444.6" font-family="Times,serif" font-size="14.00" fill="#000000">GO:0043230</text>
<text text-anchor="middle" x="999.3335" y="-427.8" font-family="Times,serif" font-size="14.00" fill="#000000">extracellular organelle</text>
</g>
<!-- GO:1903561&#45;&gt;GO:0043230 -->
<g id="edge6" class="edge">
<title>GO:1903561&#45;&gt;GO:0043230</title>
<path fill="none" stroke="#000000" d="M1005.6238,-255.6455C1004.3869,-291.9732 1001.8309,-367.0478 1000.3868,-409.463"/>
<polygon fill="#000000" stroke="#000000" points="996.8875,-409.386 1000.0451,-419.4994 1003.8834,-409.6243 996.8875,-409.386"/>
</g>
<!-- GO:0031982 -->
<g id="node9" class="node">
<title>GO:0031982</title>
<polygon fill="#ffffff" stroke="#000000" points="890.9374,-358.2019 801.7296,-358.2019 801.7296,-316.9981 890.9374,-316.9981 890.9374,-358.2019"/>
<text text-anchor="middle" x="846.3335" y="-341.8" font-family="Times,serif" font-size="14.00" fill="#000000">GO:0031982</text>
<text text-anchor="middle" x="846.3335" y="-325" font-family="Times,serif" font-size="14.00" fill="#000000">vesicle</text>
</g>
<!-- GO:1903561&#45;&gt;GO:0031982 -->
<g id="edge7" class="edge">
<title>GO:1903561&#45;&gt;GO:0031982</title>
<path fill="none" stroke="#000000" d="M973.9551,-255.6031C948.9067,-271.6967 914.0652,-294.0824 887.1143,-311.3983"/>
<polygon fill="#000000" stroke="#000000" points="885.185,-308.4777 878.6637,-316.8278 888.9688,-314.3669 885.185,-308.4777"/>
</g>
<!-- GO:0031988&#45;&gt;GO:0031982 -->
<g id="edge8" class="edge">
<title>GO:0031988&#45;&gt;GO:0031982</title>
<path fill="none" stroke="#000000" d="M840.7501,-255.6031C841.7463,-270.2337 843.0966,-290.0642 844.2198,-306.5586"/>
<polygon fill="#000000" stroke="#000000" points="840.7477,-307.0887 844.9191,-316.8278 847.7315,-306.6131 840.7477,-307.0887"/>
</g>
<!-- GO:0043226 -->
<g id="node10" class="node">
<title>GO:0043226</title>
<polygon fill="#ffffff" stroke="#000000" points="738.9374,-547.0019 649.7296,-547.0019 649.7296,-505.7981 738.9374,-505.7981 738.9374,-547.0019"/>
<text text-anchor="middle" x="694.3335" y="-530.6" font-family="Times,serif" font-size="14.00" fill="#000000">GO:0043226</text>
<text text-anchor="middle" x="694.3335" y="-513.8" font-family="Times,serif" font-size="14.00" fill="#000000">organelle</text>
</g>
<!-- GO:0043230&#45;&gt;GO:0043226 -->
<g id="edge9" class="edge">
<title>GO:0043230&#45;&gt;GO:0043226</title>
<path fill="none" stroke="#000000" d="M945.397,-461.0489C936.7368,-464.0855 927.8291,-467.0462 919.3335,-469.6 853.2621,-489.4612 835.1115,-488.2621 768.3335,-505.6 762.1455,-507.2066 755.6821,-508.9403 749.263,-510.6973"/>
<polygon fill="#000000" stroke="#000000" points="747.9646,-507.4249 739.2584,-513.4625 749.8294,-514.1719 747.9646,-507.4249"/>
</g>
<!-- GO:0044421 -->
<g id="node11" class="node">
<title>GO:0044421</title>
<polygon fill="#ffffff" stroke="#000000" points="849.8225,-624.6019 698.8445,-624.6019 698.8445,-583.3981 849.8225,-583.3981 849.8225,-624.6019"/>
<text text-anchor="middle" x="774.3335" y="-608.2" font-family="Times,serif" font-size="14.00" fill="#000000">GO:0044421</text>
<text text-anchor="middle" x="774.3335" y="-591.4" font-family="Times,serif" font-size="14.00" fill="#000000">extracellular region part</text>
</g>
<!-- GO:0043230&#45;&gt;GO:0044421 -->
<g id="edge10" class="edge">
<title>GO:0043230&#45;&gt;GO:0044421</title>
<path fill="none" stroke="#000000" d="M970.8371,-461.1201C930.2889,-490.6031 855.9145,-544.6816 811.2098,-577.1868"/>
<polygon fill="#000000" stroke="#000000" points="808.9827,-574.4787 802.953,-583.1904 813.0993,-580.1403 808.9827,-574.4787"/>
</g>
<!-- GO:0043227 -->
<g id="node12" class="node">
<title>GO:0043227</title>
<polygon fill="#ffffff" stroke="#000000" points="910.2943,-469.8014 782.3727,-469.8014 782.3727,-410.9986 910.2943,-410.9986 910.2943,-469.8014"/>
<text text-anchor="middle" x="846.3335" y="-453" font-family="Times,serif" font-size="14.00" fill="#000000">GO:0043227</text>
<text text-anchor="middle" x="846.3335" y="-436.2" font-family="Times,serif" font-size="14.00" fill="#000000">membrane&#45;bounded</text>
<text text-anchor="middle" x="846.3335" y="-419.4" font-family="Times,serif" font-size="14.00" fill="#000000">organelle</text>
</g>
<!-- GO:0031982&#45;&gt;GO:0043227 -->
<g id="edge11" class="edge">
<title>GO:0031982&#45;&gt;GO:0043227</title>
<path fill="none" stroke="#000000" d="M846.3335,-358.4031C846.3335,-370.5833 846.3335,-386.3676 846.3335,-400.8305"/>
<polygon fill="#000000" stroke="#000000" points="842.8336,-401.0577 846.3335,-411.0577 849.8336,-401.0578 842.8336,-401.0577"/>
</g>
<!-- GO:0043226&#45;&gt;GO:0005575 -->
<g id="edge12" class="edge">
<title>GO:0043226&#45;&gt;GO:0005575</title>
<path fill="none" stroke="#000000" d="M679.8591,-547.0094C660.8844,-574.0266 627.4835,-621.5846 605.8915,-652.3284"/>
<polygon fill="#000000" stroke="#000000" points="602.7509,-650.7104 599.8677,-660.9054 608.4793,-654.7336 602.7509,-650.7104"/>
</g>
<!-- GO:0044421&#45;&gt;GO:0005575 -->
<g id="edge13" class="edge">
<title>GO:0044421&#45;&gt;GO:0005575</title>
<path fill="none" stroke="#000000" d="M723.685,-624.7954C699.5426,-634.7078 670.4939,-646.6347 645.26,-656.9953"/>
<polygon fill="#000000" stroke="#000000" points="643.7151,-653.846 635.7939,-660.8819 646.3739,-660.3214 643.7151,-653.846"/>
</g>
<!-- GO:0043227&#45;&gt;GO:0043226 -->
<g id="edge14" class="edge">
<title>GO:0043227&#45;&gt;GO:0043226</title>
<path fill="none" stroke="#000000" d="M794.4489,-469.7558C776.7256,-479.7834 757.0505,-490.9154 739.8659,-500.6383"/>
<polygon fill="#000000" stroke="#000000" points="738.1099,-497.6103 731.13,-505.5809 741.557,-503.7028 738.1099,-497.6103"/>
</g>
<!-- GO:0005730 -->
<g id="node13" class="node">
<title>GO:0005730</title>
<polygon fill="#ffffff" stroke="#000000" points="565.9374,-255.4019 476.7296,-255.4019 476.7296,-214.1981 565.9374,-214.1981 565.9374,-255.4019"/>
<text text-anchor="middle" x="521.3335" y="-239" font-family="Times,serif" font-size="14.00" fill="#000000">GO:0005730</text>
<text text-anchor="middle" x="521.3335" y="-222.2" font-family="Times,serif" font-size="14.00" fill="#000000">nucleolus</text>
</g>
<!-- GO:0044428 -->
<g id="node14" class="node">
<title>GO:0044428</title>
<polygon fill="#ffffff" stroke="#000000" points="414.9374,-358.2019 325.7296,-358.2019 325.7296,-316.9981 414.9374,-316.9981 414.9374,-358.2019"/>
<text text-anchor="middle" x="370.3335" y="-341.8" font-family="Times,serif" font-size="14.00" fill="#000000">GO:0044428</text>
<text text-anchor="middle" x="370.3335" y="-325" font-family="Times,serif" font-size="14.00" fill="#000000">nuclear part</text>
</g>
<!-- GO:0005730&#45;&gt;GO:0044428 -->
<g id="edge15" class="edge">
<title>GO:0005730&#45;&gt;GO:0044428</title>
<path fill="none" stroke="#000000" d="M490.7764,-255.6031C467.2393,-271.6271 434.5398,-293.8887 409.1512,-311.1731"/>
<polygon fill="#000000" stroke="#000000" points="407.1417,-308.307 400.8452,-316.8278 411.0811,-314.0934 407.1417,-308.307"/>
</g>
<!-- GO:0043232 -->
<g id="node15" class="node">
<title>GO:0043232</title>
<polygon fill="#ffffff" stroke="#000000" points="594.2943,-375.3003 466.3727,-375.3003 466.3727,-299.8997 594.2943,-299.8997 594.2943,-375.3003"/>
<text text-anchor="middle" x="530.3335" y="-358.6" font-family="Times,serif" font-size="14.00" fill="#000000">GO:0043232</text>
<text text-anchor="middle" x="530.3335" y="-341.8" font-family="Times,serif" font-size="14.00" fill="#000000">intracellular non&#45;</text>
<text text-anchor="middle" x="530.3335" y="-325" font-family="Times,serif" font-size="14.00" fill="#000000">membrane&#45;bounded</text>
<text text-anchor="middle" x="530.3335" y="-308.2" font-family="Times,serif" font-size="14.00" fill="#000000">organelle</text>
</g>
<!-- GO:0005730&#45;&gt;GO:0043232 -->
<g id="edge16" class="edge">
<title>GO:0005730&#45;&gt;GO:0043232</title>
<path fill="none" stroke="#000000" d="M523.1548,-255.6031C524.0215,-265.5035 525.0968,-277.785 526.1489,-289.8026"/>
<polygon fill="#000000" stroke="#000000" points="522.6633,-290.1206 527.0222,-299.7773 529.6366,-289.5101 522.6633,-290.1206"/>
</g>
<!-- GO:0044446 -->
<g id="node16" class="node">
<title>GO:0044446</title>
<polygon fill="#ffffff" stroke="#000000" points="436.0519,-469.8014 296.6151,-469.8014 296.6151,-410.9986 436.0519,-410.9986 436.0519,-469.8014"/>
<text text-anchor="middle" x="366.3335" y="-453" font-family="Times,serif" font-size="14.00" fill="#000000">GO:0044446</text>
<text text-anchor="middle" x="366.3335" y="-436.2" font-family="Times,serif" font-size="14.00" fill="#000000">intracellular organelle</text>
<text text-anchor="middle" x="366.3335" y="-419.4" font-family="Times,serif" font-size="14.00" fill="#000000">part</text>
</g>
<!-- GO:0044428&#45;&gt;GO:0044446 -->
<g id="edge17" class="edge">
<title>GO:0044428&#45;&gt;GO:0044446</title>
<path fill="none" stroke="#000000" d="M369.524,-358.4031C369.0501,-370.5833 368.4359,-386.3676 367.8732,-400.8305"/>
<polygon fill="#000000" stroke="#000000" points="364.3668,-400.9292 367.4752,-411.0577 371.3615,-401.2014 364.3668,-400.9292"/>
</g>
<!-- GO:0043229 -->
<g id="node17" class="node">
<title>GO:0043229</title>
<polygon fill="#ffffff" stroke="#000000" points="764.0519,-461.0019 624.6151,-461.0019 624.6151,-419.7981 764.0519,-419.7981 764.0519,-461.0019"/>
<text text-anchor="middle" x="694.3335" y="-444.6" font-family="Times,serif" font-size="14.00" fill="#000000">GO:0043229</text>
<text text-anchor="middle" x="694.3335" y="-427.8" font-family="Times,serif" font-size="14.00" fill="#000000">intracellular organelle</text>
</g>
<!-- GO:0043232&#45;&gt;GO:0043229 -->
<g id="edge18" class="edge">
<title>GO:0043232&#45;&gt;GO:0043229</title>
<path fill="none" stroke="#000000" d="M590.4698,-375.2952C611.1465,-388.2559 633.824,-402.4708 652.6995,-414.3026"/>
<polygon fill="#000000" stroke="#000000" points="651.0264,-417.3846 661.3583,-419.7302 654.7442,-411.4535 651.0264,-417.3846"/>
</g>
<!-- GO:0043228 -->
<g id="node18" class="node">
<title>GO:0043228</title>
<polygon fill="#ffffff" stroke="#000000" points="606.9554,-469.8014 453.7116,-469.8014 453.7116,-410.9986 606.9554,-410.9986 606.9554,-469.8014"/>
<text text-anchor="middle" x="530.3335" y="-453" font-family="Times,serif" font-size="14.00" fill="#000000">GO:0043228</text>
<text text-anchor="middle" x="530.3335" y="-436.2" font-family="Times,serif" font-size="14.00" fill="#000000">non&#45;membrane&#45;bounded</text>
<text text-anchor="middle" x="530.3335" y="-419.4" font-family="Times,serif" font-size="14.00" fill="#000000">organelle</text>
</g>
<!-- GO:0043232&#45;&gt;GO:0043228 -->
<g id="edge19" class="edge">
<title>GO:0043232&#45;&gt;GO:0043228</title>
<path fill="none" stroke="#000000" d="M530.3335,-375.2952C530.3335,-383.6874 530.3335,-392.6054 530.3335,-401.0618"/>
<polygon fill="#000000" stroke="#000000" points="526.8336,-401.0813 530.3335,-411.0814 533.8336,-401.0814 526.8336,-401.0813"/>
</g>
<!-- GO:0044446&#45;&gt;GO:0044424 -->
<g id="edge20" class="edge">
<title>GO:0044446&#45;&gt;GO:0044424</title>
<path fill="none" stroke="#000000" d="M366.3335,-469.9963C366.3335,-478.2638 366.3335,-487.2657 366.3335,-495.6008"/>
<polygon fill="#000000" stroke="#000000" points="362.8336,-495.6965 366.3335,-505.6966 369.8336,-495.6966 362.8336,-495.6965"/>
</g>
<!-- GO:0044422 -->
<g id="node19" class="node">
<title>GO:0044422</title>
<polygon fill="#ffffff" stroke="#000000" points="595.1856,-624.6019 501.4814,-624.6019 501.4814,-583.3981 595.1856,-583.3981 595.1856,-624.6019"/>
<text text-anchor="middle" x="548.3335" y="-608.2" font-family="Times,serif" font-size="14.00" fill="#000000">GO:0044422</text>
<text text-anchor="middle" x="548.3335" y="-591.4" font-family="Times,serif" font-size="14.00" fill="#000000">organelle part</text>
</g>
<!-- GO:0044446&#45;&gt;GO:0044422 -->
<g id="edge21" class="edge">
<title>GO:0044446&#45;&gt;GO:0044422</title>
<path fill="none" stroke="#000000" d="M398.8715,-469.6484C432.5693,-499.9394 484.815,-546.9032 517.7668,-576.5235"/>
<polygon fill="#000000" stroke="#000000" points="515.5235,-579.2133 525.3004,-583.2955 520.2032,-574.0074 515.5235,-579.2133"/>
</g>
<!-- GO:0043229&#45;&gt;GO:0044424 -->
<g id="edge22" class="edge">
<title>GO:0043229&#45;&gt;GO:0044424</title>
<path fill="none" stroke="#000000" d="M642.2173,-461.0142C633.6351,-464.0893 624.7834,-467.071 616.3335,-469.6 554.1722,-488.2044 481.7368,-504.0392 430.8865,-514.2257"/>
<polygon fill="#000000" stroke="#000000" points="430.1401,-510.8055 421.0136,-516.1868 431.5039,-517.6713 430.1401,-510.8055"/>
</g>
<!-- GO:0043229&#45;&gt;GO:0043226 -->
<g id="edge23" class="edge">
<title>GO:0043229&#45;&gt;GO:0043226</title>
<path fill="none" stroke="#000000" d="M694.3335,-461.2182C694.3335,-471.5705 694.3335,-484.2848 694.3335,-495.7271"/>
<polygon fill="#000000" stroke="#000000" points="690.8336,-495.7735 694.3335,-505.7735 697.8336,-495.7735 690.8336,-495.7735"/>
</g>
<!-- GO:0043228&#45;&gt;GO:0043226 -->
<g id="edge24" class="edge">
<title>GO:0043228&#45;&gt;GO:0043226</title>
<path fill="none" stroke="#000000" d="M586.3143,-469.7558C605.6919,-479.9172 627.2321,-491.2127 645.9473,-501.0267"/>
<polygon fill="#000000" stroke="#000000" points="644.4043,-504.1696 654.8859,-505.7141 647.6552,-497.9703 644.4043,-504.1696"/>
</g>
<!-- GO:0044422&#45;&gt;GO:0005575 -->
<g id="edge25" class="edge">
<title>GO:0044422&#45;&gt;GO:0005575</title>
<path fill="none" stroke="#000000" d="M558.2488,-624.7954C562.1889,-633.0588 566.7964,-642.7222 571.0823,-651.711"/>
<polygon fill="#000000" stroke="#000000" points="567.9276,-653.2271 575.3908,-660.7472 574.2462,-650.2144 567.9276,-653.2271"/>
</g>
<!-- GO:0005634 -->
<g id="node20" class="node">
<title>GO:0005634</title>
<polygon fill="#ffffff" stroke="#000000" points="735.9374,-255.4019 646.7296,-255.4019 646.7296,-214.1981 735.9374,-214.1981 735.9374,-255.4019"/>
<text text-anchor="middle" x="691.3335" y="-239" font-family="Times,serif" font-size="14.00" fill="#000000">GO:0005634</text>
<text text-anchor="middle" x="691.3335" y="-222.2" font-family="Times,serif" font-size="14.00" fill="#000000">nucleus</text>
</g>
<!-- GO:0043231 -->
<g id="node21" class="node">
<title>GO:0043231</title>
<polygon fill="#ffffff" stroke="#000000" points="769.7123,-367.0014 618.9547,-367.0014 618.9547,-308.1986 769.7123,-308.1986 769.7123,-367.0014"/>
<text text-anchor="middle" x="694.3335" y="-350.2" font-family="Times,serif" font-size="14.00" fill="#000000">GO:0043231</text>
<text text-anchor="middle" x="694.3335" y="-333.4" font-family="Times,serif" font-size="14.00" fill="#000000">intracellular membrane&#45;</text>
<text text-anchor="middle" x="694.3335" y="-316.6" font-family="Times,serif" font-size="14.00" fill="#000000">bounded organelle</text>
</g>
<!-- GO:0005634&#45;&gt;GO:0043231 -->
<g id="edge26" class="edge">
<title>GO:0005634&#45;&gt;GO:0043231</title>
<path fill="none" stroke="#000000" d="M691.9406,-255.6031C692.296,-267.7833 692.7567,-283.5676 693.1787,-298.0305"/>
<polygon fill="#000000" stroke="#000000" points="689.6869,-298.3641 693.4772,-308.2577 696.6839,-298.1599 689.6869,-298.3641"/>
</g>
<!-- GO:0043231&#45;&gt;GO:0043227 -->
<g id="edge28" class="edge">
<title>GO:0043231&#45;&gt;GO:0043227</title>
<path fill="none" stroke="#000000" d="M737.8906,-367.0584C755.616,-379.0464 776.24,-392.9947 794.7143,-405.4891"/>
<polygon fill="#000000" stroke="#000000" points="792.7888,-408.4121 803.033,-411.1152 796.7104,-402.6137 792.7888,-408.4121"/>
</g>
<!-- GO:0043231&#45;&gt;GO:0043229 -->
<g id="edge27" class="edge">
<title>GO:0043231&#45;&gt;GO:0043229</title>
<path fill="none" stroke="#000000" d="M694.3335,-367.0584C694.3335,-380.3539 694.3335,-396.0608 694.3335,-409.5212"/>
<polygon fill="#000000" stroke="#000000" points="690.8336,-409.7456 694.3335,-419.7456 697.8336,-409.7457 690.8336,-409.7456"/>
</g>
<!-- GO:0005654 -->
<g id="node22" class="node">
<title>GO:0005654</title>
<polygon fill="#ffffff" stroke="#000000" points="414.9374,-255.4019 325.7296,-255.4019 325.7296,-214.1981 414.9374,-214.1981 414.9374,-255.4019"/>
<text text-anchor="middle" x="370.3335" y="-239" font-family="Times,serif" font-size="14.00" fill="#000000">GO:0005654</text>
<text text-anchor="middle" x="370.3335" y="-222.2" font-family="Times,serif" font-size="14.00" fill="#000000">nucleoplasm</text>
</g>
<!-- GO:0005654&#45;&gt;GO:0044428 -->
<g id="edge29" class="edge">
<title>GO:0005654&#45;&gt;GO:0044428</title>
<path fill="none" stroke="#000000" d="M370.3335,-255.6031C370.3335,-270.2337 370.3335,-290.0642 370.3335,-306.5586"/>
<polygon fill="#000000" stroke="#000000" points="366.8336,-306.8278 370.3335,-316.8278 373.8336,-306.8279 366.8336,-306.8278"/>
</g>
<!-- GO:0005669 -->
<g id="node23" class="node">
<title>GO:0005669</title>
<polygon fill="#ffffff" stroke="#000000" points="387.7319,-58.6014 264.9351,-58.6014 264.9351,.2014 387.7319,.2014 387.7319,-58.6014"/>
<text text-anchor="middle" x="326.3335" y="-41.8" font-family="Times,serif" font-size="14.00" fill="#000000">GO:0005669</text>
<text text-anchor="middle" x="326.3335" y="-25" font-family="Times,serif" font-size="14.00" fill="#000000">transcription factor</text>
<text text-anchor="middle" x="326.3335" y="-8.2" font-family="Times,serif" font-size="14.00" fill="#000000">TFIID complex</text>
</g>
<!-- GO:0090575 -->
<g id="node24" class="node">
<title>GO:0090575</title>
<polygon fill="#ffffff" stroke="#000000" points="321.7353,-169.7003 194.9317,-169.7003 194.9317,-94.2997 321.7353,-94.2997 321.7353,-169.7003"/>
<text text-anchor="middle" x="258.3335" y="-153" font-family="Times,serif" font-size="14.00" fill="#000000">GO:0090575</text>
<text text-anchor="middle" x="258.3335" y="-136.2" font-family="Times,serif" font-size="14.00" fill="#000000">RNA polymerase II</text>
<text text-anchor="middle" x="258.3335" y="-119.4" font-family="Times,serif" font-size="14.00" fill="#000000">transcription factor</text>
<text text-anchor="middle" x="258.3335" y="-102.6" font-family="Times,serif" font-size="14.00" fill="#000000">complex</text>
</g>
<!-- GO:0005669&#45;&gt;GO:0090575 -->
<g id="edge30" class="edge">
<title>GO:0005669&#45;&gt;GO:0090575</title>
<path fill="none" stroke="#000000" d="M306.8474,-58.6584C301.2586,-67.1074 295.0256,-76.5302 288.9392,-85.7314"/>
<polygon fill="#000000" stroke="#000000" points="286.0114,-83.8136 283.4135,-94.085 291.8497,-87.6755 286.0114,-83.8136"/>
</g>
<!-- GO:0044451 -->
<g id="node25" class="node">
<title>GO:0044451</title>
<polygon fill="#ffffff" stroke="#000000" points="467.3595,-152.6019 355.3075,-152.6019 355.3075,-111.3981 467.3595,-111.3981 467.3595,-152.6019"/>
<text text-anchor="middle" x="411.3335" y="-136.2" font-family="Times,serif" font-size="14.00" fill="#000000">GO:0044451</text>
<text text-anchor="middle" x="411.3335" y="-119.4" font-family="Times,serif" font-size="14.00" fill="#000000">nucleoplasm part</text>
</g>
<!-- GO:0005669&#45;&gt;GO:0044451 -->
<g id="edge31" class="edge">
<title>GO:0005669&#45;&gt;GO:0044451</title>
<path fill="none" stroke="#000000" d="M350.6911,-58.6584C362.3376,-72.7438 376.2218,-89.5355 387.7645,-103.4954"/>
<polygon fill="#000000" stroke="#000000" points="385.1858,-105.8692 394.2555,-111.3456 390.5805,-101.4086 385.1858,-105.8692"/>
</g>
<!-- GO:0044798 -->
<g id="node26" class="node">
<title>GO:0044798</title>
<polygon fill="#ffffff" stroke="#000000" points="308.2867,-264.2014 176.3803,-264.2014 176.3803,-205.3986 308.2867,-205.3986 308.2867,-264.2014"/>
<text text-anchor="middle" x="242.3335" y="-247.4" font-family="Times,serif" font-size="14.00" fill="#000000">GO:0044798</text>
<text text-anchor="middle" x="242.3335" y="-230.6" font-family="Times,serif" font-size="14.00" fill="#000000">nuclear transcription</text>
<text text-anchor="middle" x="242.3335" y="-213.8" font-family="Times,serif" font-size="14.00" fill="#000000">factor complex</text>
</g>
<!-- GO:0090575&#45;&gt;GO:0044798 -->
<g id="edge32" class="edge">
<title>GO:0090575&#45;&gt;GO:0044798</title>
<path fill="none" stroke="#000000" d="M252.4665,-169.6952C251.1604,-178.0874 249.7723,-187.0054 248.4562,-195.4618"/>
<polygon fill="#000000" stroke="#000000" points="244.9763,-195.062 246.8967,-205.4814 251.8931,-196.1386 244.9763,-195.062"/>
</g>
<!-- GO:0044451&#45;&gt;GO:0044428 -->
<g id="edge33" class="edge">
<title>GO:0044451&#45;&gt;GO:0044428</title>
<path fill="none" stroke="#000000" d="M418.457,-152.6903C426.4365,-179.169 436.7324,-226.141 424.3335,-264 418.9521,-280.4318 408.3497,-296.2256 397.9538,-308.9408"/>
<polygon fill="#000000" stroke="#000000" points="395.0484,-306.953 391.209,-316.8277 400.3684,-311.5026 395.0484,-306.953"/>
</g>
<!-- GO:0044798&#45;&gt;GO:0044428 -->
<g id="edge34" class="edge">
<title>GO:0044798&#45;&gt;GO:0044428</title>
<path fill="none" stroke="#000000" d="M279.0132,-264.2584C297.2071,-278.8703 319.0273,-296.3947 336.7756,-310.6488"/>
<polygon fill="#000000" stroke="#000000" points="334.6276,-313.4127 344.616,-316.9456 339.0108,-307.9549 334.6276,-313.4127"/>
</g>
<!-- GO:0005667 -->
<g id="node27" class="node">
<title>GO:0005667</title>
<polygon fill="#ffffff" stroke="#000000" points="303.7319,-367.0014 180.9351,-367.0014 180.9351,-308.1986 303.7319,-308.1986 303.7319,-367.0014"/>
<text text-anchor="middle" x="242.3335" y="-350.2" font-family="Times,serif" font-size="14.00" fill="#000000">GO:0005667</text>
<text text-anchor="middle" x="242.3335" y="-333.4" font-family="Times,serif" font-size="14.00" fill="#000000">transcription factor</text>
<text text-anchor="middle" x="242.3335" y="-316.6" font-family="Times,serif" font-size="14.00" fill="#000000">complex</text>
</g>
<!-- GO:0044798&#45;&gt;GO:0005667 -->
<g id="edge35" class="edge">
<title>GO:0044798&#45;&gt;GO:0005667</title>
<path fill="none" stroke="#000000" d="M242.3335,-264.2584C242.3335,-274.7969 242.3335,-286.8505 242.3335,-298.0994"/>
<polygon fill="#000000" stroke="#000000" points="238.8336,-298.1373 242.3335,-308.1373 245.8336,-298.1374 238.8336,-298.1373"/>
</g>
<!-- GO:0005667&#45;&gt;GO:0044424 -->
<g id="edge37" class="edge">
<title>GO:0005667&#45;&gt;GO:0044424</title>
<path fill="none" stroke="#000000" d="M246.9976,-367.042C252.6735,-395.5184 264.4775,-438.7732 287.3335,-469.6 295.9151,-481.1743 307.5483,-491.3414 319.247,-499.7541"/>
<polygon fill="#000000" stroke="#000000" points="317.5056,-502.8036 327.7343,-505.5649 321.4601,-497.0276 317.5056,-502.8036"/>
</g>
<!-- GO:0043234 -->
<g id="node28" class="node">
<title>GO:0043234</title>
<polygon fill="#ffffff" stroke="#000000" points="133.2009,-461.0019 25.4661,-461.0019 25.4661,-419.7981 133.2009,-419.7981 133.2009,-461.0019"/>
<text text-anchor="middle" x="79.3335" y="-444.6" font-family="Times,serif" font-size="14.00" fill="#000000">GO:0043234</text>
<text text-anchor="middle" x="79.3335" y="-427.8" font-family="Times,serif" font-size="14.00" fill="#000000">protein complex</text>
</g>
<!-- GO:0005667&#45;&gt;GO:0043234 -->
<g id="edge36" class="edge">
<title>GO:0005667&#45;&gt;GO:0043234</title>
<path fill="none" stroke="#000000" d="M195.6242,-367.0584C171.9336,-381.9994 143.4147,-399.9856 120.5483,-414.4069"/>
<polygon fill="#000000" stroke="#000000" points="118.6744,-411.4507 112.0831,-419.7456 122.4086,-417.3716 118.6744,-411.4507"/>
</g>
<!-- GO:0032991 -->
<g id="node29" class="node">
<title>GO:0032991</title>
<polygon fill="#ffffff" stroke="#000000" points="158.5008,-547.0019 .1662,-547.0019 .1662,-505.7981 158.5008,-505.7981 158.5008,-547.0019"/>
<text text-anchor="middle" x="79.3335" y="-530.6" font-family="Times,serif" font-size="14.00" fill="#000000">GO:0032991</text>
<text text-anchor="middle" x="79.3335" y="-513.8" font-family="Times,serif" font-size="14.00" fill="#000000">macromolecular complex</text>
</g>
<!-- GO:0043234&#45;&gt;GO:0032991 -->
<g id="edge38" class="edge">
<title>GO:0043234&#45;&gt;GO:0032991</title>
<path fill="none" stroke="#000000" d="M79.3335,-461.2182C79.3335,-471.5705 79.3335,-484.2848 79.3335,-495.7271"/>
<polygon fill="#000000" stroke="#000000" points="75.8336,-495.7735 79.3335,-505.7735 82.8336,-495.7735 75.8336,-495.7735"/>
</g>
</g>
</svg>
