<?xml version="1.0" encoding="UTF-8" standalone="no"?>
<!DOCTYPE svg PUBLIC "-//W3C//DTD SVG 1.1//EN"
 "http://www.w3.org/Graphics/SVG/1.1/DTD/svg11.dtd">
<!-- Generated by graphviz version 2.40.1 (20161225.0304)
 -->
<!-- Title: G Pages: 1 -->
<svg width="1273pt" height="643pt"
 viewBox="0.00 0.00 1272.84 643.20" xmlns="http://www.w3.org/2000/svg" xmlns:xlink="http://www.w3.org/1999/xlink">
<g id="graph0" class="graph" transform="scale(1 1) rotate(0) translate(4 639.2)">
<title>G</title>
<polygon fill="#ffffff" stroke="transparent" points="-4,4 -4,-639.2 1268.843,-639.2 1268.843,4 -4,4"/>
<!-- GO:0005737 -->
<g id="node1" class="node">
<title>GO:0005737</title>
<polygon fill="#ffffff" stroke="#000000" points="369.6758,-393.8019 280.468,-393.8019 280.468,-352.5981 369.6758,-352.5981 369.6758,-393.8019"/>
<text text-anchor="middle" x="325.0719" y="-377.4" font-family="Times,serif" font-size="14.00" fill="#000000">GO:0005737</text>
<text text-anchor="middle" x="325.0719" y="-360.6" font-family="Times,serif" font-size="14.00" fill="#000000">cytoplasm</text>
</g>
<!-- GO:0044424 -->
<g id="node2" class="node">
<title>GO:0044424</title>
<polygon fill="#ffffff" stroke="#000000" points="519.4703,-479.8019 410.6735,-479.8019 410.6735,-438.5981 519.4703,-438.5981 519.4703,-479.8019"/>
<text text-anchor="middle" x="465.0719" y="-463.4" font-family="Times,serif" font-size="14.00" fill="#000000">GO:0044424</text>
<text text-anchor="middle" x="465.0719" y="-446.6" font-family="Times,serif" font-size="14.00" fill="#000000">intracellular part</text>
</g>
<!-- GO:0005737&#45;&gt;GO:0044424 -->
<g id="edge1" class="edge">
<title>GO:0005737&#45;&gt;GO:0044424</title>
<path fill="none" stroke="#000000" d="M358.962,-394.0182C378.1361,-405.7966 402.2878,-420.6326 422.7039,-433.1739"/>
<polygon fill="#000000" stroke="#000000" points="421.1411,-436.3216 431.4939,-438.5735 424.8051,-430.357 421.1411,-436.3216"/>
</g>
<!-- GO:0044464 -->
<g id="node3" class="node">
<title>GO:0044464</title>
<polygon fill="#ffffff" stroke="#000000" points="679.6758,-557.4019 590.468,-557.4019 590.468,-516.1981 679.6758,-516.1981 679.6758,-557.4019"/>
<text text-anchor="middle" x="635.0719" y="-541" font-family="Times,serif" font-size="14.00" fill="#000000">GO:0044464</text>
<text text-anchor="middle" x="635.0719" y="-524.2" font-family="Times,serif" font-size="14.00" fill="#000000">cell part</text>
</g>
<!-- GO:0044424&#45;&gt;GO:0044464 -->
<g id="edge2" class="edge">
<title>GO:0044424&#45;&gt;GO:0044464</title>
<path fill="none" stroke="#000000" d="M510.6288,-479.9954C532.3257,-489.8994 558.4283,-501.8144 581.1119,-512.1689"/>
<polygon fill="#000000" stroke="#000000" points="579.7222,-515.3818 590.2727,-516.3505 582.629,-509.0139 579.7222,-515.3818"/>
</g>
<!-- GO:0005575 -->
<g id="node4" class="node">
<title>GO:0005575</title>
<polygon fill="#ffffff" stroke="#000000" points="956.7586,-635.0019 829.3852,-635.0019 829.3852,-593.7981 956.7586,-593.7981 956.7586,-635.0019"/>
<text text-anchor="middle" x="893.0719" y="-618.6" font-family="Times,serif" font-size="14.00" fill="#000000">GO:0005575</text>
<text text-anchor="middle" x="893.0719" y="-601.8" font-family="Times,serif" font-size="14.00" fill="#000000">cellular_component</text>
</g>
<!-- GO:0044464&#45;&gt;GO:0005575 -->
<g id="edge3" class="edge">
<title>GO:0044464&#45;&gt;GO:0005575</title>
<path fill="none" stroke="#000000" d="M679.7175,-550.2283C718.146,-561.7866 774.3592,-578.6942 819.4391,-592.2531"/>
<polygon fill="#000000" stroke="#000000" points="818.5867,-595.6515 829.1711,-595.1802 820.603,-588.9482 818.5867,-595.6515"/>
</g>
<!-- GO:0031090 -->
<g id="node5" class="node">
<title>GO:0031090</title>
<polygon fill="#ffffff" stroke="#000000" points="959.2435,-393.8019 828.9003,-393.8019 828.9003,-352.5981 959.2435,-352.5981 959.2435,-393.8019"/>
<text text-anchor="middle" x="894.0719" y="-377.4" font-family="Times,serif" font-size="14.00" fill="#000000">GO:0031090</text>
<text text-anchor="middle" x="894.0719" y="-360.6" font-family="Times,serif" font-size="14.00" fill="#000000">organelle membrane</text>
</g>
<!-- GO:0016020 -->
<g id="node6" class="node">
<title>GO:0016020</title>
<polygon fill="#ffffff" stroke="#000000" points="937.6758,-557.4019 848.468,-557.4019 848.468,-516.1981 937.6758,-516.1981 937.6758,-557.4019"/>
<text text-anchor="middle" x="893.0719" y="-541" font-family="Times,serif" font-size="14.00" fill="#000000">GO:0016020</text>
<text text-anchor="middle" x="893.0719" y="-524.2" font-family="Times,serif" font-size="14.00" fill="#000000">membrane</text>
</g>
<!-- GO:0031090&#45;&gt;GO:0016020 -->
<g id="edge4" class="edge">
<title>GO:0031090&#45;&gt;GO:0016020</title>
<path fill="none" stroke="#000000" d="M893.9452,-393.9201C893.7729,-422.1159 893.4631,-472.8064 893.2625,-505.6099"/>
<polygon fill="#000000" stroke="#000000" points="889.7604,-505.9692 893.1991,-515.9904 896.7603,-506.012 889.7604,-505.9692"/>
</g>
<!-- GO:0044422 -->
<g id="node7" class="node">
<title>GO:0044422</title>
<polygon fill="#ffffff" stroke="#000000" points="865.924,-479.8019 772.2198,-479.8019 772.2198,-438.5981 865.924,-438.5981 865.924,-479.8019"/>
<text text-anchor="middle" x="819.0719" y="-463.4" font-family="Times,serif" font-size="14.00" fill="#000000">GO:0044422</text>
<text text-anchor="middle" x="819.0719" y="-446.6" font-family="Times,serif" font-size="14.00" fill="#000000">organelle part</text>
</g>
<!-- GO:0031090&#45;&gt;GO:0044422 -->
<g id="edge5" class="edge">
<title>GO:0031090&#45;&gt;GO:0044422</title>
<path fill="none" stroke="#000000" d="M875.9165,-394.0182C866.2435,-405.1099 854.2057,-418.9132 843.7013,-430.9583"/>
<polygon fill="#000000" stroke="#000000" points="840.995,-428.7364 837.0601,-438.5735 846.2706,-433.3373 840.995,-428.7364"/>
</g>
<!-- GO:0016020&#45;&gt;GO:0005575 -->
<g id="edge6" class="edge">
<title>GO:0016020&#45;&gt;GO:0005575</title>
<path fill="none" stroke="#000000" d="M893.0719,-557.5954C893.0719,-565.5109 893.0719,-574.7109 893.0719,-583.3722"/>
<polygon fill="#000000" stroke="#000000" points="889.572,-583.5472 893.0719,-593.5472 896.572,-583.5473 889.572,-583.5472"/>
</g>
<!-- GO:0044422&#45;&gt;GO:0005575 -->
<g id="edge7" class="edge">
<title>GO:0044422&#45;&gt;GO:0005575</title>
<path fill="none" stroke="#000000" d="M819.9628,-479.8989C821.5933,-500.6105 826.1838,-532.864 839.0719,-557.6 844.5667,-568.1461 852.6036,-578.1116 860.8063,-586.6637"/>
<polygon fill="#000000" stroke="#000000" points="858.4324,-589.2388 867.9978,-593.7945 863.3612,-584.2681 858.4324,-589.2388"/>
</g>
<!-- GO:0016282 -->
<g id="node8" class="node">
<title>GO:0016282</title>
<polygon fill="#ffffff" stroke="#000000" points="136.2158,-213.8014 -.072,-213.8014 -.072,-154.9986 136.2158,-154.9986 136.2158,-213.8014"/>
<text text-anchor="middle" x="68.0719" y="-197" font-family="Times,serif" font-size="14.00" fill="#000000">GO:0016282</text>
<text text-anchor="middle" x="68.0719" y="-180.2" font-family="Times,serif" font-size="14.00" fill="#000000">eukaryotic 43S</text>
<text text-anchor="middle" x="68.0719" y="-163.4" font-family="Times,serif" font-size="14.00" fill="#000000">preinitiation complex</text>
</g>
<!-- GO:0070993 -->
<g id="node9" class="node">
<title>GO:0070993</title>
<polygon fill="#ffffff" stroke="#000000" points="218.6021,-308.2014 71.5417,-308.2014 71.5417,-249.3986 218.6021,-249.3986 218.6021,-308.2014"/>
<text text-anchor="middle" x="145.0719" y="-291.4" font-family="Times,serif" font-size="14.00" fill="#000000">GO:0070993</text>
<text text-anchor="middle" x="145.0719" y="-274.6" font-family="Times,serif" font-size="14.00" fill="#000000">translation preinitiation</text>
<text text-anchor="middle" x="145.0719" y="-257.8" font-family="Times,serif" font-size="14.00" fill="#000000">complex</text>
</g>
<!-- GO:0016282&#45;&gt;GO:0070993 -->
<g id="edge8" class="edge">
<title>GO:0016282&#45;&gt;GO:0070993</title>
<path fill="none" stroke="#000000" d="M92.0131,-213.7513C99.1836,-222.5422 107.1443,-232.3018 114.6722,-241.5308"/>
<polygon fill="#000000" stroke="#000000" points="112.1125,-243.93 121.1455,-249.4669 117.5369,-239.5055 112.1125,-243.93"/>
</g>
<!-- GO:0044444 -->
<g id="node10" class="node">
<title>GO:0044444</title>
<polygon fill="#ffffff" stroke="#000000" points="496.4885,-393.8019 387.6553,-393.8019 387.6553,-352.5981 496.4885,-352.5981 496.4885,-393.8019"/>
<text text-anchor="middle" x="442.0719" y="-377.4" font-family="Times,serif" font-size="14.00" fill="#000000">GO:0044444</text>
<text text-anchor="middle" x="442.0719" y="-360.6" font-family="Times,serif" font-size="14.00" fill="#000000">cytoplasmic part</text>
</g>
<!-- GO:0070993&#45;&gt;GO:0044444 -->
<g id="edge9" class="edge">
<title>GO:0070993&#45;&gt;GO:0044444</title>
<path fill="none" stroke="#000000" d="M218.7687,-296.066C265.335,-307.7744 326.4386,-324.6155 379.0719,-344 382.7838,-345.3671 386.5791,-346.8634 390.3756,-348.4334"/>
<polygon fill="#000000" stroke="#000000" points="389.1974,-351.7363 399.7678,-352.4561 391.9534,-345.3016 389.1974,-351.7363"/>
</g>
<!-- GO:0030529 -->
<g id="node11" class="node">
<title>GO:0030529</title>
<polygon fill="#ffffff" stroke="#000000" points="223.8099,-402.6014 56.3339,-402.6014 56.3339,-343.7986 223.8099,-343.7986 223.8099,-402.6014"/>
<text text-anchor="middle" x="140.0719" y="-385.8" font-family="Times,serif" font-size="14.00" fill="#000000">GO:0030529</text>
<text text-anchor="middle" x="140.0719" y="-369" font-family="Times,serif" font-size="14.00" fill="#000000">intracellular</text>
<text text-anchor="middle" x="140.0719" y="-352.2" font-family="Times,serif" font-size="14.00" fill="#000000">ribonucleoprotein complex</text>
</g>
<!-- GO:0070993&#45;&gt;GO:0030529 -->
<g id="edge10" class="edge">
<title>GO:0070993&#45;&gt;GO:0030529</title>
<path fill="none" stroke="#000000" d="M143.5173,-308.1513C143.0893,-316.2318 142.6179,-325.1308 142.1649,-333.6838"/>
<polygon fill="#000000" stroke="#000000" points="138.6595,-333.6957 141.6256,-343.8669 145.6497,-334.066 138.6595,-333.6957"/>
</g>
<!-- GO:0044444&#45;&gt;GO:0044424 -->
<g id="edge11" class="edge">
<title>GO:0044444&#45;&gt;GO:0044424</title>
<path fill="none" stroke="#000000" d="M447.6396,-394.0182C450.4364,-404.4761 453.878,-417.3446 456.9623,-428.877"/>
<polygon fill="#000000" stroke="#000000" points="453.5907,-429.8173 459.5555,-438.5735 460.353,-428.0087 453.5907,-429.8173"/>
</g>
<!-- GO:0030529&#45;&gt;GO:0044424 -->
<g id="edge12" class="edge">
<title>GO:0030529&#45;&gt;GO:0044424</title>
<path fill="none" stroke="#000000" d="M223.7675,-395.3471C278.7799,-409.9043 349.6911,-428.6685 400.3811,-442.0818"/>
<polygon fill="#000000" stroke="#000000" points="399.6761,-445.5157 410.2387,-444.6903 401.4668,-438.7486 399.6761,-445.5157"/>
</g>
<!-- GO:1990904 -->
<g id="node12" class="node">
<title>GO:1990904</title>
<polygon fill="#ffffff" stroke="#000000" points="223.8099,-479.8019 56.3339,-479.8019 56.3339,-438.5981 223.8099,-438.5981 223.8099,-479.8019"/>
<text text-anchor="middle" x="140.0719" y="-463.4" font-family="Times,serif" font-size="14.00" fill="#000000">GO:1990904</text>
<text text-anchor="middle" x="140.0719" y="-446.6" font-family="Times,serif" font-size="14.00" fill="#000000">ribonucleoprotein complex</text>
</g>
<!-- GO:0030529&#45;&gt;GO:1990904 -->
<g id="edge13" class="edge">
<title>GO:0030529&#45;&gt;GO:1990904</title>
<path fill="none" stroke="#000000" d="M140.0719,-402.7963C140.0719,-411.0638 140.0719,-420.0657 140.0719,-428.4008"/>
<polygon fill="#000000" stroke="#000000" points="136.572,-428.4965 140.0719,-438.4966 143.572,-428.4966 136.572,-428.4965"/>
</g>
<!-- GO:0032991 -->
<g id="node13" class="node">
<title>GO:0032991</title>
<polygon fill="#ffffff" stroke="#000000" points="374.2392,-557.4019 215.9046,-557.4019 215.9046,-516.1981 374.2392,-516.1981 374.2392,-557.4019"/>
<text text-anchor="middle" x="295.0719" y="-541" font-family="Times,serif" font-size="14.00" fill="#000000">GO:0032991</text>
<text text-anchor="middle" x="295.0719" y="-524.2" font-family="Times,serif" font-size="14.00" fill="#000000">macromolecular complex</text>
</g>
<!-- GO:1990904&#45;&gt;GO:0032991 -->
<g id="edge14" class="edge">
<title>GO:1990904&#45;&gt;GO:0032991</title>
<path fill="none" stroke="#000000" d="M181.6091,-479.9954C200.9722,-489.6895 224.1839,-501.3102 244.5539,-511.5084"/>
<polygon fill="#000000" stroke="#000000" points="243.1802,-514.7348 253.6891,-516.0819 246.314,-508.4754 243.1802,-514.7348"/>
</g>
<!-- GO:0032991&#45;&gt;GO:0005575 -->
<g id="edge15" class="edge">
<title>GO:0032991&#45;&gt;GO:0005575</title>
<path fill="none" stroke="#000000" d="M374.4817,-547.1047C490.9036,-562.2123 706.3169,-590.1656 819.3894,-604.8385"/>
<polygon fill="#000000" stroke="#000000" points="818.9749,-608.314 829.3422,-606.1301 819.8757,-601.3722 818.9749,-608.314"/>
</g>
<!-- GO:0055037 -->
<g id="node14" class="node">
<title>GO:0055037</title>
<polygon fill="#ffffff" stroke="#000000" points="781.4224,-41.4019 652.7214,-41.4019 652.7214,-.1981 781.4224,-.1981 781.4224,-41.4019"/>
<text text-anchor="middle" x="717.0719" y="-25" font-family="Times,serif" font-size="14.00" fill="#000000">GO:0055037</text>
<text text-anchor="middle" x="717.0719" y="-8.2" font-family="Times,serif" font-size="14.00" fill="#000000">recycling endosome</text>
</g>
<!-- GO:0005768 -->
<g id="node15" class="node">
<title>GO:0005768</title>
<polygon fill="#ffffff" stroke="#000000" points="761.6758,-119.0019 672.468,-119.0019 672.468,-77.7981 761.6758,-77.7981 761.6758,-119.0019"/>
<text text-anchor="middle" x="717.0719" y="-102.6" font-family="Times,serif" font-size="14.00" fill="#000000">GO:0005768</text>
<text text-anchor="middle" x="717.0719" y="-85.8" font-family="Times,serif" font-size="14.00" fill="#000000">endosome</text>
</g>
<!-- GO:0055037&#45;&gt;GO:0005768 -->
<g id="edge16" class="edge">
<title>GO:0055037&#45;&gt;GO:0005768</title>
<path fill="none" stroke="#000000" d="M717.0719,-41.5954C717.0719,-49.5109 717.0719,-58.7109 717.0719,-67.3722"/>
<polygon fill="#000000" stroke="#000000" points="713.572,-67.5472 717.0719,-77.5472 720.572,-67.5473 713.572,-67.5472"/>
</g>
<!-- GO:0005773 -->
<g id="node16" class="node">
<title>GO:0005773</title>
<polygon fill="#ffffff" stroke="#000000" points="761.6758,-205.0019 672.468,-205.0019 672.468,-163.7981 761.6758,-163.7981 761.6758,-205.0019"/>
<text text-anchor="middle" x="717.0719" y="-188.6" font-family="Times,serif" font-size="14.00" fill="#000000">GO:0005773</text>
<text text-anchor="middle" x="717.0719" y="-171.8" font-family="Times,serif" font-size="14.00" fill="#000000">vacuole</text>
</g>
<!-- GO:0005768&#45;&gt;GO:0005773 -->
<g id="edge17" class="edge">
<title>GO:0005768&#45;&gt;GO:0005773</title>
<path fill="none" stroke="#000000" d="M717.0719,-119.2182C717.0719,-129.5705 717.0719,-142.2848 717.0719,-153.7271"/>
<polygon fill="#000000" stroke="#000000" points="713.572,-153.7735 717.0719,-163.7735 720.572,-153.7735 713.572,-153.7735"/>
</g>
<!-- GO:0005773&#45;&gt;GO:0044444 -->
<g id="edge18" class="edge">
<title>GO:0005773&#45;&gt;GO:0044444</title>
<path fill="none" stroke="#000000" d="M672.247,-191.822C577.4941,-207.6126 365.0842,-243.5894 360.0719,-249.6 343.4488,-269.534 348.7934,-284.623 360.0719,-308 367.533,-323.4647 380.6427,-336.3902 394.2203,-346.5463"/>
<polygon fill="#000000" stroke="#000000" points="392.4971,-349.6136 402.6884,-352.5099 396.5277,-343.8904 392.4971,-349.6136"/>
</g>
<!-- GO:0043231 -->
<g id="node17" class="node">
<title>GO:0043231</title>
<polygon fill="#ffffff" stroke="#000000" points="816.4507,-308.2014 665.6931,-308.2014 665.6931,-249.3986 816.4507,-249.3986 816.4507,-308.2014"/>
<text text-anchor="middle" x="741.0719" y="-291.4" font-family="Times,serif" font-size="14.00" fill="#000000">GO:0043231</text>
<text text-anchor="middle" x="741.0719" y="-274.6" font-family="Times,serif" font-size="14.00" fill="#000000">intracellular membrane&#45;</text>
<text text-anchor="middle" x="741.0719" y="-257.8" font-family="Times,serif" font-size="14.00" fill="#000000">bounded organelle</text>
</g>
<!-- GO:0005773&#45;&gt;GO:0043231 -->
<g id="edge19" class="edge">
<title>GO:0005773&#45;&gt;GO:0043231</title>
<path fill="none" stroke="#000000" d="M722.3983,-205.3504C724.9404,-215.3492 728.0683,-227.6525 731.0322,-239.3106"/>
<polygon fill="#000000" stroke="#000000" points="727.7197,-240.4862 733.5758,-249.3155 734.5039,-238.7614 727.7197,-240.4862"/>
</g>
<!-- GO:0043229 -->
<g id="node18" class="node">
<title>GO:0043229</title>
<polygon fill="#ffffff" stroke="#000000" points="810.7903,-393.8019 671.3535,-393.8019 671.3535,-352.5981 810.7903,-352.5981 810.7903,-393.8019"/>
<text text-anchor="middle" x="741.0719" y="-377.4" font-family="Times,serif" font-size="14.00" fill="#000000">GO:0043229</text>
<text text-anchor="middle" x="741.0719" y="-360.6" font-family="Times,serif" font-size="14.00" fill="#000000">intracellular organelle</text>
</g>
<!-- GO:0043231&#45;&gt;GO:0043229 -->
<g id="edge20" class="edge">
<title>GO:0043231&#45;&gt;GO:0043229</title>
<path fill="none" stroke="#000000" d="M741.0719,-308.1513C741.0719,-319.0614 741.0719,-331.4637 741.0719,-342.492"/>
<polygon fill="#000000" stroke="#000000" points="737.572,-342.5509 741.0719,-352.551 744.572,-342.551 737.572,-342.5509"/>
</g>
<!-- GO:0043227 -->
<g id="node19" class="node">
<title>GO:0043227</title>
<polygon fill="#ffffff" stroke="#000000" points="1105.0327,-402.6014 977.1111,-402.6014 977.1111,-343.7986 1105.0327,-343.7986 1105.0327,-402.6014"/>
<text text-anchor="middle" x="1041.0719" y="-385.8" font-family="Times,serif" font-size="14.00" fill="#000000">GO:0043227</text>
<text text-anchor="middle" x="1041.0719" y="-369" font-family="Times,serif" font-size="14.00" fill="#000000">membrane&#45;bounded</text>
<text text-anchor="middle" x="1041.0719" y="-352.2" font-family="Times,serif" font-size="14.00" fill="#000000">organelle</text>
</g>
<!-- GO:0043231&#45;&gt;GO:0043227 -->
<g id="edge21" class="edge">
<title>GO:0043231&#45;&gt;GO:0043227</title>
<path fill="none" stroke="#000000" d="M816.5112,-305.0773C819.7346,-306.0856 822.9316,-307.0643 826.0719,-308 885.5437,-325.7209 904.3992,-324.0746 967.1654,-343.8583"/>
<polygon fill="#000000" stroke="#000000" points="966.1634,-347.2125 976.7547,-346.9376 968.3037,-340.5477 966.1634,-347.2125"/>
</g>
<!-- GO:0043229&#45;&gt;GO:0044424 -->
<g id="edge22" class="edge">
<title>GO:0043229&#45;&gt;GO:0044424</title>
<path fill="none" stroke="#000000" d="M687.5613,-393.8655C679.3949,-396.8353 671.0358,-399.7715 663.0719,-402.4 618.9608,-416.9586 568.6384,-431.3664 529.7642,-442.0283"/>
<polygon fill="#000000" stroke="#000000" points="528.355,-438.7848 519.6294,-444.7943 530.1981,-445.5378 528.355,-438.7848"/>
</g>
<!-- GO:0043226 -->
<g id="node20" class="node">
<title>GO:0043226</title>
<polygon fill="#ffffff" stroke="#000000" points="1056.6758,-479.8019 967.468,-479.8019 967.468,-438.5981 1056.6758,-438.5981 1056.6758,-479.8019"/>
<text text-anchor="middle" x="1012.0719" y="-463.4" font-family="Times,serif" font-size="14.00" fill="#000000">GO:0043226</text>
<text text-anchor="middle" x="1012.0719" y="-446.6" font-family="Times,serif" font-size="14.00" fill="#000000">organelle</text>
</g>
<!-- GO:0043229&#45;&gt;GO:0043226 -->
<g id="edge23" class="edge">
<title>GO:0043229&#45;&gt;GO:0043226</title>
<path fill="none" stroke="#000000" d="M795.7285,-393.937C803.8589,-396.866 812.1626,-399.7716 820.0719,-402.4 865.9484,-417.6457 918.6434,-433.0898 957.2094,-444.0174"/>
<polygon fill="#000000" stroke="#000000" points="956.6202,-447.4878 967.1949,-446.8354 958.5214,-440.7509 956.6202,-447.4878"/>
</g>
<!-- GO:0043227&#45;&gt;GO:0043226 -->
<g id="edge24" class="edge">
<title>GO:0043227&#45;&gt;GO:0043226</title>
<path fill="none" stroke="#000000" d="M1031.0917,-402.7963C1028.2419,-411.2475 1025.1333,-420.4662 1022.2706,-428.9555"/>
<polygon fill="#000000" stroke="#000000" points="1018.9322,-427.9024 1019.0533,-438.4966 1025.5652,-430.1392 1018.9322,-427.9024"/>
</g>
<!-- GO:0043226&#45;&gt;GO:0005575 -->
<g id="edge25" class="edge">
<title>GO:0043226&#45;&gt;GO:0005575</title>
<path fill="none" stroke="#000000" d="M999.8761,-479.9029C987.5033,-500.3348 967.337,-532.1232 947.0719,-557.6 939.2635,-567.4165 930.0762,-577.5287 921.5158,-586.4506"/>
<polygon fill="#000000" stroke="#000000" points="918.9894,-584.0282 914.5164,-593.6325 924.0025,-588.9138 918.9894,-584.0282"/>
</g>
<!-- GO:0030427 -->
<g id="node21" class="node">
<title>GO:0030427</title>
<polygon fill="#ffffff" stroke="#000000" points="709.9167,-479.8019 560.2271,-479.8019 560.2271,-438.5981 709.9167,-438.5981 709.9167,-479.8019"/>
<text text-anchor="middle" x="635.0719" y="-463.4" font-family="Times,serif" font-size="14.00" fill="#000000">GO:0030427</text>
<text text-anchor="middle" x="635.0719" y="-446.6" font-family="Times,serif" font-size="14.00" fill="#000000">site of polarized growth</text>
</g>
<!-- GO:0030427&#45;&gt;GO:0044464 -->
<g id="edge26" class="edge">
<title>GO:0030427&#45;&gt;GO:0044464</title>
<path fill="none" stroke="#000000" d="M635.0719,-479.9954C635.0719,-487.9109 635.0719,-497.1109 635.0719,-505.7722"/>
<polygon fill="#000000" stroke="#000000" points="631.572,-505.9472 635.0719,-515.9472 638.572,-505.9473 631.572,-505.9472"/>
</g>
<!-- GO:0030659 -->
<g id="node22" class="node">
<title>GO:0030659</title>
<polygon fill="#ffffff" stroke="#000000" points="918.0923,-213.8014 792.0515,-213.8014 792.0515,-154.9986 918.0923,-154.9986 918.0923,-213.8014"/>
<text text-anchor="middle" x="855.0719" y="-197" font-family="Times,serif" font-size="14.00" fill="#000000">GO:0030659</text>
<text text-anchor="middle" x="855.0719" y="-180.2" font-family="Times,serif" font-size="14.00" fill="#000000">cytoplasmic vesicle</text>
<text text-anchor="middle" x="855.0719" y="-163.4" font-family="Times,serif" font-size="14.00" fill="#000000">membrane</text>
</g>
<!-- GO:0044433 -->
<g id="node23" class="node">
<title>GO:0044433</title>
<polygon fill="#ffffff" stroke="#000000" points="520.8584,-299.4019 369.2854,-299.4019 369.2854,-258.1981 520.8584,-258.1981 520.8584,-299.4019"/>
<text text-anchor="middle" x="445.0719" y="-283" font-family="Times,serif" font-size="14.00" fill="#000000">GO:0044433</text>
<text text-anchor="middle" x="445.0719" y="-266.2" font-family="Times,serif" font-size="14.00" fill="#000000">cytoplasmic vesicle part</text>
</g>
<!-- GO:0030659&#45;&gt;GO:0044433 -->
<g id="edge27" class="edge">
<title>GO:0030659&#45;&gt;GO:0044433</title>
<path fill="none" stroke="#000000" d="M791.6948,-207.8252C784.7881,-209.9596 777.8181,-211.939 771.0719,-213.6 665.913,-239.4921 635.2779,-223.9 530.0719,-249.6 523.5541,-251.1922 516.8277,-253.0733 510.1467,-255.1014"/>
<polygon fill="#000000" stroke="#000000" points="508.909,-251.8216 500.4203,-258.1615 511.0098,-258.499 508.909,-251.8216"/>
</g>
<!-- GO:0012506 -->
<g id="node24" class="node">
<title>GO:0012506</title>
<polygon fill="#ffffff" stroke="#000000" points="953.028,-299.4019 835.1158,-299.4019 835.1158,-258.1981 953.028,-258.1981 953.028,-299.4019"/>
<text text-anchor="middle" x="894.0719" y="-283" font-family="Times,serif" font-size="14.00" fill="#000000">GO:0012506</text>
<text text-anchor="middle" x="894.0719" y="-266.2" font-family="Times,serif" font-size="14.00" fill="#000000">vesicle membrane</text>
</g>
<!-- GO:0030659&#45;&gt;GO:0012506 -->
<g id="edge28" class="edge">
<title>GO:0030659&#45;&gt;GO:0012506</title>
<path fill="none" stroke="#000000" d="M867.198,-213.7513C871.7983,-224.8864 877.0407,-237.5758 881.6664,-248.7724"/>
<polygon fill="#000000" stroke="#000000" points="878.4879,-250.2451 885.5411,-258.151 884.9575,-247.5722 878.4879,-250.2451"/>
</g>
<!-- GO:0044433&#45;&gt;GO:0044444 -->
<g id="edge30" class="edge">
<title>GO:0044433&#45;&gt;GO:0044444</title>
<path fill="none" stroke="#000000" d="M444.4061,-299.7504C444.0099,-312.2165 443.4999,-328.2645 443.0578,-342.1786"/>
<polygon fill="#000000" stroke="#000000" points="439.5553,-342.202 442.7358,-352.3081 446.5518,-342.4244 439.5553,-342.202"/>
</g>
<!-- GO:0044446 -->
<g id="node25" class="node">
<title>GO:0044446</title>
<polygon fill="#ffffff" stroke="#000000" points="653.7903,-402.6014 514.3535,-402.6014 514.3535,-343.7986 653.7903,-343.7986 653.7903,-402.6014"/>
<text text-anchor="middle" x="584.0719" y="-385.8" font-family="Times,serif" font-size="14.00" fill="#000000">GO:0044446</text>
<text text-anchor="middle" x="584.0719" y="-369" font-family="Times,serif" font-size="14.00" fill="#000000">intracellular organelle</text>
<text text-anchor="middle" x="584.0719" y="-352.2" font-family="Times,serif" font-size="14.00" fill="#000000">part</text>
</g>
<!-- GO:0044433&#45;&gt;GO:0044446 -->
<g id="edge29" class="edge">
<title>GO:0044433&#45;&gt;GO:0044446</title>
<path fill="none" stroke="#000000" d="M475.576,-299.5165C492.2835,-310.8631 513.4362,-325.2287 532.6184,-338.256"/>
<polygon fill="#000000" stroke="#000000" points="530.745,-341.2146 540.984,-343.9374 534.6778,-335.4238 530.745,-341.2146"/>
</g>
<!-- GO:0012506&#45;&gt;GO:0031090 -->
<g id="edge31" class="edge">
<title>GO:0012506&#45;&gt;GO:0031090</title>
<path fill="none" stroke="#000000" d="M894.0719,-299.7504C894.0719,-312.2165 894.0719,-328.2645 894.0719,-342.1786"/>
<polygon fill="#000000" stroke="#000000" points="890.572,-342.3081 894.0719,-352.3081 897.572,-342.3082 890.572,-342.3081"/>
</g>
<!-- GO:0044446&#45;&gt;GO:0044424 -->
<g id="edge32" class="edge">
<title>GO:0044446&#45;&gt;GO:0044424</title>
<path fill="none" stroke="#000000" d="M543.4517,-402.5558C530.0855,-412.2154 515.3012,-422.8999 502.2078,-432.3623"/>
<polygon fill="#000000" stroke="#000000" points="499.9346,-429.6868 493.8797,-438.3809 504.0348,-435.3603 499.9346,-429.6868"/>
</g>
<!-- GO:0044446&#45;&gt;GO:0044422 -->
<g id="edge33" class="edge">
<title>GO:0044446&#45;&gt;GO:0044422</title>
<path fill="none" stroke="#000000" d="M653.7988,-399.3465C656.5921,-400.3801 659.358,-401.4011 662.0719,-402.4 695.4538,-414.6865 732.909,-428.2458 762.8613,-439.0343"/>
<polygon fill="#000000" stroke="#000000" points="761.7134,-442.3408 772.3078,-442.4345 764.0842,-435.7545 761.7134,-442.3408"/>
</g>
<!-- GO:0016459 -->
<g id="node26" class="node">
<title>GO:0016459</title>
<polygon fill="#ffffff" stroke="#000000" points="532.5081,-205.0019 423.6357,-205.0019 423.6357,-163.7981 532.5081,-163.7981 532.5081,-205.0019"/>
<text text-anchor="middle" x="478.0719" y="-188.6" font-family="Times,serif" font-size="14.00" fill="#000000">GO:0016459</text>
<text text-anchor="middle" x="478.0719" y="-171.8" font-family="Times,serif" font-size="14.00" fill="#000000">myosin complex</text>
</g>
<!-- GO:0043234 -->
<g id="node27" class="node">
<title>GO:0043234</title>
<polygon fill="#ffffff" stroke="#000000" points="348.9393,-479.8019 241.2045,-479.8019 241.2045,-438.5981 348.9393,-438.5981 348.9393,-479.8019"/>
<text text-anchor="middle" x="295.0719" y="-463.4" font-family="Times,serif" font-size="14.00" fill="#000000">GO:0043234</text>
<text text-anchor="middle" x="295.0719" y="-446.6" font-family="Times,serif" font-size="14.00" fill="#000000">protein complex</text>
</g>
<!-- GO:0016459&#45;&gt;GO:0043234 -->
<g id="edge34" class="edge">
<title>GO:0016459&#45;&gt;GO:0043234</title>
<path fill="none" stroke="#000000" d="M423.5177,-204.8624C398.4086,-215.8444 369.1431,-230.9773 346.0719,-249.6 304.3753,-283.2567 288.7238,-293.4056 271.0719,-344 262.5217,-368.5068 265.9181,-376.9613 271.0719,-402.4 272.9098,-411.4716 276.2438,-420.8945 279.8537,-429.3967"/>
<polygon fill="#000000" stroke="#000000" points="276.6759,-430.8639 283.9817,-438.537 283.0555,-427.9827 276.6759,-430.8639"/>
</g>
<!-- GO:0044430 -->
<g id="node28" class="node">
<title>GO:0044430</title>
<polygon fill="#ffffff" stroke="#000000" points="647.2032,-299.4019 538.9406,-299.4019 538.9406,-258.1981 647.2032,-258.1981 647.2032,-299.4019"/>
<text text-anchor="middle" x="593.0719" y="-283" font-family="Times,serif" font-size="14.00" fill="#000000">GO:0044430</text>
<text text-anchor="middle" x="593.0719" y="-266.2" font-family="Times,serif" font-size="14.00" fill="#000000">cytoskeletal part</text>
</g>
<!-- GO:0016459&#45;&gt;GO:0044430 -->
<g id="edge35" class="edge">
<title>GO:0016459&#45;&gt;GO:0044430</title>
<path fill="none" stroke="#000000" d="M503.3091,-205.1165C519.9366,-218.7655 541.8859,-236.783 559.9176,-251.5846"/>
<polygon fill="#000000" stroke="#000000" points="557.9434,-254.4923 567.8935,-258.1318 562.3848,-249.0817 557.9434,-254.4923"/>
</g>
<!-- GO:0043234&#45;&gt;GO:0032991 -->
<g id="edge36" class="edge">
<title>GO:0043234&#45;&gt;GO:0032991</title>
<path fill="none" stroke="#000000" d="M295.0719,-479.9954C295.0719,-487.9109 295.0719,-497.1109 295.0719,-505.7722"/>
<polygon fill="#000000" stroke="#000000" points="291.572,-505.9472 295.0719,-515.9472 298.572,-505.9473 291.572,-505.9472"/>
</g>
<!-- GO:0044430&#45;&gt;GO:0044446 -->
<g id="edge37" class="edge">
<title>GO:0044430&#45;&gt;GO:0044446</title>
<path fill="none" stroke="#000000" d="M591.0745,-299.7504C590.1212,-309.7492 588.9483,-322.0525 587.8368,-333.7106"/>
<polygon fill="#000000" stroke="#000000" points="584.3479,-333.4284 586.8829,-343.7155 591.3163,-334.0929 584.3479,-333.4284"/>
</g>
<!-- GO:0045202 -->
<g id="node29" class="node">
<title>GO:0045202</title>
<polygon fill="#ffffff" stroke="#000000" points="1251.6758,-557.4019 1162.468,-557.4019 1162.468,-516.1981 1251.6758,-516.1981 1251.6758,-557.4019"/>
<text text-anchor="middle" x="1207.0719" y="-541" font-family="Times,serif" font-size="14.00" fill="#000000">GO:0045202</text>
<text text-anchor="middle" x="1207.0719" y="-524.2" font-family="Times,serif" font-size="14.00" fill="#000000">synapse</text>
</g>
<!-- GO:0045202&#45;&gt;GO:0005575 -->
<g id="edge38" class="edge">
<title>GO:0045202&#45;&gt;GO:0005575</title>
<path fill="none" stroke="#000000" d="M1162.4651,-554.585C1159.3045,-555.6588 1156.1512,-556.6765 1153.0719,-557.6 1091.1231,-576.1792 1019.1854,-591.4226 966.7041,-601.4234"/>
<polygon fill="#000000" stroke="#000000" points="965.9847,-597.9973 956.8073,-603.2912 967.2829,-604.8758 965.9847,-597.9973"/>
</g>
<!-- GO:0033290 -->
<g id="node30" class="node">
<title>GO:0033290</title>
<polygon fill="#ffffff" stroke="#000000" points="290.2158,-213.8014 153.928,-213.8014 153.928,-154.9986 290.2158,-154.9986 290.2158,-213.8014"/>
<text text-anchor="middle" x="222.0719" y="-197" font-family="Times,serif" font-size="14.00" fill="#000000">GO:0033290</text>
<text text-anchor="middle" x="222.0719" y="-180.2" font-family="Times,serif" font-size="14.00" fill="#000000">eukaryotic 48S</text>
<text text-anchor="middle" x="222.0719" y="-163.4" font-family="Times,serif" font-size="14.00" fill="#000000">preinitiation complex</text>
</g>
<!-- GO:0033290&#45;&gt;GO:0070993 -->
<g id="edge39" class="edge">
<title>GO:0033290&#45;&gt;GO:0070993</title>
<path fill="none" stroke="#000000" d="M198.1307,-213.7513C190.9602,-222.5422 182.9995,-232.3018 175.4716,-241.5308"/>
<polygon fill="#000000" stroke="#000000" points="172.6069,-239.5055 168.9983,-249.4669 178.0313,-243.93 172.6069,-239.5055"/>
</g>
<!-- GO:0070062 -->
<g id="node31" class="node">
<title>GO:0070062</title>
<polygon fill="#ffffff" stroke="#000000" points="1179.7931,-119.0019 1040.3507,-119.0019 1040.3507,-77.7981 1179.7931,-77.7981 1179.7931,-119.0019"/>
<text text-anchor="middle" x="1110.0719" y="-102.6" font-family="Times,serif" font-size="14.00" fill="#000000">GO:0070062</text>
<text text-anchor="middle" x="1110.0719" y="-85.8" font-family="Times,serif" font-size="14.00" fill="#000000">extracellular exosome</text>
</g>
<!-- GO:1903561 -->
<g id="node32" class="node">
<title>GO:1903561</title>
<polygon fill="#ffffff" stroke="#000000" points="1258.3985,-205.0019 1129.7453,-205.0019 1129.7453,-163.7981 1258.3985,-163.7981 1258.3985,-205.0019"/>
<text text-anchor="middle" x="1194.0719" y="-188.6" font-family="Times,serif" font-size="14.00" fill="#000000">GO:1903561</text>
<text text-anchor="middle" x="1194.0719" y="-171.8" font-family="Times,serif" font-size="14.00" fill="#000000">extracellular vesicle</text>
</g>
<!-- GO:0070062&#45;&gt;GO:1903561 -->
<g id="edge40" class="edge">
<title>GO:0070062&#45;&gt;GO:1903561</title>
<path fill="none" stroke="#000000" d="M1130.406,-119.2182C1141.3429,-130.4156 1154.9791,-144.3764 1166.8226,-156.5019"/>
<polygon fill="#000000" stroke="#000000" points="1164.4338,-159.0653 1173.9251,-163.7735 1169.4415,-154.1741 1164.4338,-159.0653"/>
</g>
<!-- GO:0031988 -->
<g id="node33" class="node">
<title>GO:0031988</title>
<polygon fill="#ffffff" stroke="#000000" points="1112.4026,-205.0019 941.7412,-205.0019 941.7412,-163.7981 1112.4026,-163.7981 1112.4026,-205.0019"/>
<text text-anchor="middle" x="1027.0719" y="-188.6" font-family="Times,serif" font-size="14.00" fill="#000000">GO:0031988</text>
<text text-anchor="middle" x="1027.0719" y="-171.8" font-family="Times,serif" font-size="14.00" fill="#000000">membrane&#45;bounded vesicle</text>
</g>
<!-- GO:0070062&#45;&gt;GO:0031988 -->
<g id="edge41" class="edge">
<title>GO:0070062&#45;&gt;GO:0031988</title>
<path fill="none" stroke="#000000" d="M1089.9799,-119.2182C1079.1732,-130.4156 1065.6993,-144.3764 1053.9968,-156.5019"/>
<polygon fill="#000000" stroke="#000000" points="1051.4049,-154.1475 1046.9789,-163.7735 1056.4418,-159.0086 1051.4049,-154.1475"/>
</g>
<!-- GO:0043230 -->
<g id="node34" class="node">
<title>GO:0043230</title>
<polygon fill="#ffffff" stroke="#000000" points="1264.6148,-393.8019 1123.529,-393.8019 1123.529,-352.5981 1264.6148,-352.5981 1264.6148,-393.8019"/>
<text text-anchor="middle" x="1194.0719" y="-377.4" font-family="Times,serif" font-size="14.00" fill="#000000">GO:0043230</text>
<text text-anchor="middle" x="1194.0719" y="-360.6" font-family="Times,serif" font-size="14.00" fill="#000000">extracellular organelle</text>
</g>
<!-- GO:1903561&#45;&gt;GO:0043230 -->
<g id="edge42" class="edge">
<title>GO:1903561&#45;&gt;GO:0043230</title>
<path fill="none" stroke="#000000" d="M1194.0719,-205.3263C1194.0719,-238.5865 1194.0719,-303.6928 1194.0719,-342.3227"/>
<polygon fill="#000000" stroke="#000000" points="1190.572,-342.4677 1194.0719,-352.4677 1197.572,-342.4678 1190.572,-342.4677"/>
</g>
<!-- GO:0031982 -->
<g id="node35" class="node">
<title>GO:0031982</title>
<polygon fill="#ffffff" stroke="#000000" points="1085.6758,-299.4019 996.468,-299.4019 996.468,-258.1981 1085.6758,-258.1981 1085.6758,-299.4019"/>
<text text-anchor="middle" x="1041.0719" y="-283" font-family="Times,serif" font-size="14.00" fill="#000000">GO:0031982</text>
<text text-anchor="middle" x="1041.0719" y="-266.2" font-family="Times,serif" font-size="14.00" fill="#000000">vesicle</text>
</g>
<!-- GO:1903561&#45;&gt;GO:0031982 -->
<g id="edge43" class="edge">
<title>GO:1903561&#45;&gt;GO:0031982</title>
<path fill="none" stroke="#000000" d="M1160.4954,-205.1165C1137.7757,-219.1344 1107.5878,-237.7601 1083.2481,-252.7776"/>
<polygon fill="#000000" stroke="#000000" points="1081.2427,-249.9022 1074.5701,-258.1318 1084.9184,-255.8596 1081.2427,-249.9022"/>
</g>
<!-- GO:0031988&#45;&gt;GO:0031982 -->
<g id="edge44" class="edge">
<title>GO:0031988&#45;&gt;GO:0031982</title>
<path fill="none" stroke="#000000" d="M1030.179,-205.3504C1032.0277,-217.8165 1034.4077,-233.8645 1036.4713,-247.7786"/>
<polygon fill="#000000" stroke="#000000" points="1033.0443,-248.5298 1037.9735,-257.9081 1039.9686,-247.5029 1033.0443,-248.5298"/>
</g>
<!-- GO:0043230&#45;&gt;GO:0043226 -->
<g id="edge45" class="edge">
<title>GO:0043230&#45;&gt;GO:0043226</title>
<path fill="none" stroke="#000000" d="M1150.0148,-394.0182C1124.4178,-406.1135 1091.9971,-421.4332 1065.0188,-434.1812"/>
<polygon fill="#000000" stroke="#000000" points="1063.2694,-431.1366 1055.7233,-438.5735 1066.2601,-437.4656 1063.2694,-431.1366"/>
</g>
<!-- GO:0044421 -->
<g id="node36" class="node">
<title>GO:0044421</title>
<polygon fill="#ffffff" stroke="#000000" points="1144.5609,-557.4019 993.5829,-557.4019 993.5829,-516.1981 1144.5609,-516.1981 1144.5609,-557.4019"/>
<text text-anchor="middle" x="1069.0719" y="-541" font-family="Times,serif" font-size="14.00" fill="#000000">GO:0044421</text>
<text text-anchor="middle" x="1069.0719" y="-524.2" font-family="Times,serif" font-size="14.00" fill="#000000">extracellular region part</text>
</g>
<!-- GO:0043230&#45;&gt;GO:0044421 -->
<g id="edge46" class="edge">
<title>GO:0043230&#45;&gt;GO:0044421</title>
<path fill="none" stroke="#000000" d="M1178.2406,-393.9201C1156.2289,-422.7289 1116.2747,-475.021 1091.2881,-507.7234"/>
<polygon fill="#000000" stroke="#000000" points="1088.2618,-505.9194 1084.9716,-515.9904 1093.8241,-510.1693 1088.2618,-505.9194"/>
</g>
<!-- GO:0031982&#45;&gt;GO:0043227 -->
<g id="edge47" class="edge">
<title>GO:0031982&#45;&gt;GO:0043227</title>
<path fill="none" stroke="#000000" d="M1041.0719,-299.7504C1041.0719,-309.7492 1041.0719,-322.0525 1041.0719,-333.7106"/>
<polygon fill="#000000" stroke="#000000" points="1037.572,-333.7155 1041.0719,-343.7155 1044.572,-333.7156 1037.572,-333.7155"/>
</g>
<!-- GO:0044421&#45;&gt;GO:0005575 -->
<g id="edge48" class="edge">
<title>GO:0044421&#45;&gt;GO:0005575</title>
<path fill="none" stroke="#000000" d="M1021.9071,-557.5954C999.6234,-567.4205 972.851,-579.2247 949.4984,-589.521"/>
<polygon fill="#000000" stroke="#000000" points="947.7995,-586.4449 940.0614,-593.6819 950.6236,-592.85 947.7995,-586.4449"/>
</g>
</g>
</svg>
