<?xml version="1.0" encoding="UTF-8" standalone="no"?>
<!DOCTYPE svg PUBLIC "-//W3C//DTD SVG 1.1//EN"
 "http://www.w3.org/Graphics/SVG/1.1/DTD/svg11.dtd">
<!-- Generated by graphviz version 2.40.1 (20161225.0304)
 -->
<!-- Title: G Pages: 1 -->
<svg width="1152pt" height="838pt"
 viewBox="0.00 0.00 1152.27 838.40" xmlns="http://www.w3.org/2000/svg" xmlns:xlink="http://www.w3.org/1999/xlink">
<g id="graph0" class="graph" transform="scale(1 1) rotate(0) translate(4 834.4)">
<title>G</title>
<polygon fill="#ffffff" stroke="transparent" points="-4,4 -4,-834.4 1148.2718,-834.4 1148.2718,4 -4,4"/>
<!-- GO:0030507 -->
<g id="node1" class="node">
<title>GO:0030507</title>
<polygon fill="#ff00ff" stroke="#000000" points="705.6716,-452.6019 599.4764,-452.6019 599.4764,-411.3981 705.6716,-411.3981 705.6716,-452.6019"/>
<text text-anchor="middle" x="652.574" y="-436.2" font-family="Times,serif" font-size="14.00" fill="#000000">GO:0030507</text>
<text text-anchor="middle" x="652.574" y="-419.4" font-family="Times,serif" font-size="14.00" fill="#000000">spectrin binding</text>
</g>
<!-- GO:0008092 -->
<g id="node2" class="node">
<title>GO:0008092</title>
<polygon fill="#ffffff" stroke="#000000" points="650.5958,-581.0014 524.5522,-581.0014 524.5522,-522.1986 650.5958,-522.1986 650.5958,-581.0014"/>
<text text-anchor="middle" x="587.574" y="-564.2" font-family="Times,serif" font-size="14.00" fill="#000000">GO:0008092</text>
<text text-anchor="middle" x="587.574" y="-547.4" font-family="Times,serif" font-size="14.00" fill="#000000">cytoskeletal protein</text>
<text text-anchor="middle" x="587.574" y="-530.6" font-family="Times,serif" font-size="14.00" fill="#000000">binding</text>
</g>
<!-- GO:0030507&#45;&gt;GO:0008092 -->
<g id="edge1" class="edge">
<title>GO:0030507&#45;&gt;GO:0008092</title>
<path fill="none" stroke="#000000" d="M641.2519,-452.8327C632.2308,-469.4315 619.354,-493.1248 608.4737,-513.1445"/>
<polygon fill="#000000" stroke="#000000" points="605.3362,-511.588 603.6362,-522.0455 611.4866,-514.9306 605.3362,-511.588"/>
</g>
<!-- GO:0005515 -->
<g id="node3" class="node">
<title>GO:0005515</title>
<polygon fill="#ffffff" stroke="#000000" points="782.5116,-666.6019 680.6364,-666.6019 680.6364,-625.3981 782.5116,-625.3981 782.5116,-666.6019"/>
<text text-anchor="middle" x="731.574" y="-650.2" font-family="Times,serif" font-size="14.00" fill="#000000">GO:0005515</text>
<text text-anchor="middle" x="731.574" y="-633.4" font-family="Times,serif" font-size="14.00" fill="#000000">protein binding</text>
</g>
<!-- GO:0008092&#45;&gt;GO:0005515 -->
<g id="edge2" class="edge">
<title>GO:0008092&#45;&gt;GO:0005515</title>
<path fill="none" stroke="#000000" d="M632.3471,-580.9513C651.2202,-593.3236 673.0203,-607.6148 691.3716,-619.6451"/>
<polygon fill="#000000" stroke="#000000" points="689.7935,-622.7955 700.0755,-625.351 693.6312,-616.9413 689.7935,-622.7955"/>
</g>
<!-- GO:0005488 -->
<g id="node4" class="node">
<title>GO:0005488</title>
<polygon fill="#ffffff" stroke="#000000" points="628.1779,-752.6019 538.9701,-752.6019 538.9701,-711.3981 628.1779,-711.3981 628.1779,-752.6019"/>
<text text-anchor="middle" x="583.574" y="-736.2" font-family="Times,serif" font-size="14.00" fill="#000000">GO:0005488</text>
<text text-anchor="middle" x="583.574" y="-719.4" font-family="Times,serif" font-size="14.00" fill="#000000">binding</text>
</g>
<!-- GO:0005515&#45;&gt;GO:0005488 -->
<g id="edge3" class="edge">
<title>GO:0005515&#45;&gt;GO:0005488</title>
<path fill="none" stroke="#000000" d="M695.7473,-666.8182C675.2958,-678.7022 649.4874,-693.699 627.7833,-706.3108"/>
<polygon fill="#000000" stroke="#000000" points="625.9585,-703.3231 619.0707,-711.3735 629.4755,-709.3755 625.9585,-703.3231"/>
</g>
<!-- GO:0003674 -->
<g id="node5" class="node">
<title>GO:0003674</title>
<polygon fill="#ffffff" stroke="#000000" points="704.2071,-830.2019 578.9409,-830.2019 578.9409,-788.9981 704.2071,-788.9981 704.2071,-830.2019"/>
<text text-anchor="middle" x="641.574" y="-813.8" font-family="Times,serif" font-size="14.00" fill="#000000">GO:0003674</text>
<text text-anchor="middle" x="641.574" y="-797" font-family="Times,serif" font-size="14.00" fill="#000000">molecular_function</text>
</g>
<!-- GO:0005488&#45;&gt;GO:0003674 -->
<g id="edge4" class="edge">
<title>GO:0005488&#45;&gt;GO:0003674</title>
<path fill="none" stroke="#000000" d="M599.1169,-752.7954C605.4882,-761.3197 612.9731,-771.3339 619.8692,-780.5605"/>
<polygon fill="#000000" stroke="#000000" points="617.1979,-782.8327 625.9882,-788.7472 622.8048,-778.6419 617.1979,-782.8327"/>
</g>
<!-- GO:0000146 -->
<g id="node6" class="node">
<title>GO:0000146</title>
<polygon fill="#ff00ff" stroke="#000000" points="1129.8246,-58.6014 997.3234,-58.6014 997.3234,.2014 1129.8246,.2014 1129.8246,-58.6014"/>
<text text-anchor="middle" x="1063.574" y="-41.8" font-family="Times,serif" font-size="14.00" fill="#000000">GO:0000146</text>
<text text-anchor="middle" x="1063.574" y="-25" font-family="Times,serif" font-size="14.00" fill="#000000">microfilament motor</text>
<text text-anchor="middle" x="1063.574" y="-8.2" font-family="Times,serif" font-size="14.00" fill="#000000">activity</text>
</g>
<!-- GO:0003774 -->
<g id="node7" class="node">
<title>GO:0003774</title>
<polygon fill="#ff00ff" stroke="#000000" points="1111.0074,-144.2019 1016.1406,-144.2019 1016.1406,-102.9981 1111.0074,-102.9981 1111.0074,-144.2019"/>
<text text-anchor="middle" x="1063.574" y="-127.8" font-family="Times,serif" font-size="14.00" fill="#000000">GO:0003774</text>
<text text-anchor="middle" x="1063.574" y="-111" font-family="Times,serif" font-size="14.00" fill="#000000">motor activity</text>
</g>
<!-- GO:0000146&#45;&gt;GO:0003774 -->
<g id="edge5" class="edge">
<title>GO:0000146&#45;&gt;GO:0003774</title>
<path fill="none" stroke="#000000" d="M1063.574,-58.5513C1063.574,-69.4614 1063.574,-81.8637 1063.574,-92.892"/>
<polygon fill="#000000" stroke="#000000" points="1060.0741,-92.9509 1063.574,-102.951 1067.0741,-92.951 1060.0741,-92.9509"/>
</g>
<!-- GO:0017111 -->
<g id="node8" class="node">
<title>GO:0017111</title>
<polygon fill="#ffffff" stroke="#000000" points="1144.4701,-247.4014 982.6779,-247.4014 982.6779,-188.5986 1144.4701,-188.5986 1144.4701,-247.4014"/>
<text text-anchor="middle" x="1063.574" y="-230.6" font-family="Times,serif" font-size="14.00" fill="#000000">GO:0017111</text>
<text text-anchor="middle" x="1063.574" y="-213.8" font-family="Times,serif" font-size="14.00" fill="#000000">nucleoside&#45;triphosphatase</text>
<text text-anchor="middle" x="1063.574" y="-197" font-family="Times,serif" font-size="14.00" fill="#000000">activity</text>
</g>
<!-- GO:0003774&#45;&gt;GO:0017111 -->
<g id="edge6" class="edge">
<title>GO:0003774&#45;&gt;GO:0017111</title>
<path fill="none" stroke="#000000" d="M1063.574,-144.5504C1063.574,-154.5492 1063.574,-166.8525 1063.574,-178.5106"/>
<polygon fill="#000000" stroke="#000000" points="1060.0741,-178.5155 1063.574,-188.5155 1067.0741,-178.5156 1060.0741,-178.5155"/>
</g>
<!-- GO:0016462 -->
<g id="node9" class="node">
<title>GO:0016462</title>
<polygon fill="#ffffff" stroke="#000000" points="1141.1504,-333.0019 985.9976,-333.0019 985.9976,-291.7981 1141.1504,-291.7981 1141.1504,-333.0019"/>
<text text-anchor="middle" x="1063.574" y="-316.6" font-family="Times,serif" font-size="14.00" fill="#000000">GO:0016462</text>
<text text-anchor="middle" x="1063.574" y="-299.8" font-family="Times,serif" font-size="14.00" fill="#000000">pyrophosphatase activity</text>
</g>
<!-- GO:0017111&#45;&gt;GO:0016462 -->
<g id="edge7" class="edge">
<title>GO:0017111&#45;&gt;GO:0016462</title>
<path fill="none" stroke="#000000" d="M1063.574,-247.3513C1063.574,-258.2614 1063.574,-270.6637 1063.574,-281.692"/>
<polygon fill="#000000" stroke="#000000" points="1060.0741,-281.7509 1063.574,-291.751 1067.0741,-281.751 1060.0741,-281.7509"/>
</g>
<!-- GO:0016818 -->
<g id="node10" class="node">
<title>GO:0016818</title>
<polygon fill="#ffffff" stroke="#000000" points="1135.8857,-486.3002 991.2623,-486.3002 991.2623,-377.6998 1135.8857,-377.6998 1135.8857,-486.3002"/>
<text text-anchor="middle" x="1063.574" y="-469.8" font-family="Times,serif" font-size="14.00" fill="#000000">GO:0016818</text>
<text text-anchor="middle" x="1063.574" y="-453" font-family="Times,serif" font-size="14.00" fill="#000000">hydrolase activity,</text>
<text text-anchor="middle" x="1063.574" y="-436.2" font-family="Times,serif" font-size="14.00" fill="#000000">acting on acid</text>
<text text-anchor="middle" x="1063.574" y="-419.4" font-family="Times,serif" font-size="14.00" fill="#000000">anhydrides, in</text>
<text text-anchor="middle" x="1063.574" y="-402.6" font-family="Times,serif" font-size="14.00" fill="#000000">phosphorus&#45;containing</text>
<text text-anchor="middle" x="1063.574" y="-385.8" font-family="Times,serif" font-size="14.00" fill="#000000">anhydrides</text>
</g>
<!-- GO:0016462&#45;&gt;GO:0016818 -->
<g id="edge8" class="edge">
<title>GO:0016462&#45;&gt;GO:0016818</title>
<path fill="none" stroke="#000000" d="M1063.574,-333.2327C1063.574,-342.8534 1063.574,-354.8573 1063.574,-367.148"/>
<polygon fill="#000000" stroke="#000000" points="1060.0741,-367.4935 1063.574,-377.4935 1067.0741,-367.4935 1060.0741,-367.4935"/>
</g>
<!-- GO:0016817 -->
<g id="node11" class="node">
<title>GO:0016817</title>
<polygon fill="#ffffff" stroke="#000000" points="1143.5299,-581.0014 983.6181,-581.0014 983.6181,-522.1986 1143.5299,-522.1986 1143.5299,-581.0014"/>
<text text-anchor="middle" x="1063.574" y="-564.2" font-family="Times,serif" font-size="14.00" fill="#000000">GO:0016817</text>
<text text-anchor="middle" x="1063.574" y="-547.4" font-family="Times,serif" font-size="14.00" fill="#000000">hydrolase activity,</text>
<text text-anchor="middle" x="1063.574" y="-530.6" font-family="Times,serif" font-size="14.00" fill="#000000">acting on acid anhydrides</text>
</g>
<!-- GO:0016818&#45;&gt;GO:0016817 -->
<g id="edge9" class="edge">
<title>GO:0016818&#45;&gt;GO:0016817</title>
<path fill="none" stroke="#000000" d="M1063.574,-486.5502C1063.574,-495.2138 1063.574,-504.0255 1063.574,-512.2504"/>
<polygon fill="#000000" stroke="#000000" points="1060.0741,-512.2995 1063.574,-522.2995 1067.0741,-512.2995 1060.0741,-512.2995"/>
</g>
<!-- GO:0016787 -->
<g id="node12" class="node">
<title>GO:0016787</title>
<polygon fill="#ffffff" stroke="#000000" points="1111.4906,-666.6019 995.6574,-666.6019 995.6574,-625.3981 1111.4906,-625.3981 1111.4906,-666.6019"/>
<text text-anchor="middle" x="1053.574" y="-650.2" font-family="Times,serif" font-size="14.00" fill="#000000">GO:0016787</text>
<text text-anchor="middle" x="1053.574" y="-633.4" font-family="Times,serif" font-size="14.00" fill="#000000">hydrolase activity</text>
</g>
<!-- GO:0016817&#45;&gt;GO:0016787 -->
<g id="edge10" class="edge">
<title>GO:0016817&#45;&gt;GO:0016787</title>
<path fill="none" stroke="#000000" d="M1060.4648,-580.9513C1059.309,-591.8614 1057.9952,-604.2637 1056.827,-615.292"/>
<polygon fill="#000000" stroke="#000000" points="1053.3344,-615.0379 1055.7614,-625.351 1060.2954,-615.7754 1053.3344,-615.0379"/>
</g>
<!-- GO:0003824 -->
<g id="node13" class="node">
<title>GO:0003824</title>
<polygon fill="#ffffff" stroke="#000000" points="935.9864,-752.6019 827.1616,-752.6019 827.1616,-711.3981 935.9864,-711.3981 935.9864,-752.6019"/>
<text text-anchor="middle" x="881.574" y="-736.2" font-family="Times,serif" font-size="14.00" fill="#000000">GO:0003824</text>
<text text-anchor="middle" x="881.574" y="-719.4" font-family="Times,serif" font-size="14.00" fill="#000000">catalytic activity</text>
</g>
<!-- GO:0016787&#45;&gt;GO:0003824 -->
<g id="edge11" class="edge">
<title>GO:0016787&#45;&gt;GO:0003824</title>
<path fill="none" stroke="#000000" d="M1011.9376,-666.8182C987.8527,-678.8606 957.3751,-694.0994 931.946,-706.814"/>
<polygon fill="#000000" stroke="#000000" points="930.206,-703.7708 922.827,-711.3735 933.3365,-710.0318 930.206,-703.7708"/>
</g>
<!-- GO:0003824&#45;&gt;GO:0003674 -->
<g id="edge12" class="edge">
<title>GO:0003824&#45;&gt;GO:0003674</title>
<path fill="none" stroke="#000000" d="M827.1143,-749.6086C793.5979,-760.4456 750.2417,-774.4641 713.8696,-786.2244"/>
<polygon fill="#000000" stroke="#000000" points="712.7363,-782.9124 704.2981,-789.3192 714.8899,-789.5729 712.7363,-782.9124"/>
</g>
<!-- GO:0003779 -->
<g id="node14" class="node">
<title>GO:0003779</title>
<polygon fill="#ff00ff" stroke="#000000" points="836.567,-452.6019 746.581,-452.6019 746.581,-411.3981 836.567,-411.3981 836.567,-452.6019"/>
<text text-anchor="middle" x="791.574" y="-436.2" font-family="Times,serif" font-size="14.00" fill="#000000">GO:0003779</text>
<text text-anchor="middle" x="791.574" y="-419.4" font-family="Times,serif" font-size="14.00" fill="#000000">actin binding</text>
</g>
<!-- GO:0003779&#45;&gt;GO:0008092 -->
<g id="edge13" class="edge">
<title>GO:0003779&#45;&gt;GO:0008092</title>
<path fill="none" stroke="#000000" d="M764.4072,-452.6065C749.9412,-463.2134 731.653,-476.0533 714.574,-486.4 696.6303,-497.2706 676.6675,-508.0809 657.9828,-517.6823"/>
<polygon fill="#000000" stroke="#000000" points="656.2503,-514.6368 648.9274,-522.2935 659.4268,-520.8746 656.2503,-514.6368"/>
</g>
<!-- GO:0005524 -->
<g id="node15" class="node">
<title>GO:0005524</title>
<polygon fill="#ffffff" stroke="#000000" points="471.1779,-49.8019 381.9701,-49.8019 381.9701,-8.5981 471.1779,-8.5981 471.1779,-49.8019"/>
<text text-anchor="middle" x="426.574" y="-33.4" font-family="Times,serif" font-size="14.00" fill="#000000">GO:0005524</text>
<text text-anchor="middle" x="426.574" y="-16.6" font-family="Times,serif" font-size="14.00" fill="#000000">ATP binding</text>
</g>
<!-- GO:0035639 -->
<g id="node16" class="node">
<title>GO:0035639</title>
<polygon fill="#ffffff" stroke="#000000" points="616.261,-153.0014 478.887,-153.0014 478.887,-94.1986 616.261,-94.1986 616.261,-153.0014"/>
<text text-anchor="middle" x="547.574" y="-136.2" font-family="Times,serif" font-size="14.00" fill="#000000">GO:0035639</text>
<text text-anchor="middle" x="547.574" y="-119.4" font-family="Times,serif" font-size="14.00" fill="#000000">purine ribonucleoside</text>
<text text-anchor="middle" x="547.574" y="-102.6" font-family="Times,serif" font-size="14.00" fill="#000000">triphosphate binding</text>
</g>
<!-- GO:0005524&#45;&gt;GO:0035639 -->
<g id="edge14" class="edge">
<title>GO:0005524&#45;&gt;GO:0035639</title>
<path fill="none" stroke="#000000" d="M453.128,-49.9165C467.4762,-61.1105 485.5906,-75.2427 502.1087,-88.1296"/>
<polygon fill="#000000" stroke="#000000" points="500.0285,-90.9458 510.0658,-94.3374 504.3343,-85.4267 500.0285,-90.9458"/>
</g>
<!-- GO:0032559 -->
<g id="node17" class="node">
<title>GO:0032559</title>
<polygon fill="#ffffff" stroke="#000000" points="357.261,-153.0014 219.887,-153.0014 219.887,-94.1986 357.261,-94.1986 357.261,-153.0014"/>
<text text-anchor="middle" x="288.574" y="-136.2" font-family="Times,serif" font-size="14.00" fill="#000000">GO:0032559</text>
<text text-anchor="middle" x="288.574" y="-119.4" font-family="Times,serif" font-size="14.00" fill="#000000">adenyl ribonucleotide</text>
<text text-anchor="middle" x="288.574" y="-102.6" font-family="Times,serif" font-size="14.00" fill="#000000">binding</text>
</g>
<!-- GO:0005524&#45;&gt;GO:0032559 -->
<g id="edge15" class="edge">
<title>GO:0005524&#45;&gt;GO:0032559</title>
<path fill="none" stroke="#000000" d="M396.2893,-49.9165C379.7021,-61.2631 358.7015,-75.6287 339.6573,-88.656"/>
<polygon fill="#000000" stroke="#000000" points="337.6295,-85.8026 331.3519,-94.3374 341.5817,-91.5802 337.6295,-85.8026"/>
</g>
<!-- GO:0032550 -->
<g id="node18" class="node">
<title>GO:0032550</title>
<polygon fill="#ffffff" stroke="#000000" points="495.261,-341.8014 357.887,-341.8014 357.887,-282.9986 495.261,-282.9986 495.261,-341.8014"/>
<text text-anchor="middle" x="426.574" y="-325" font-family="Times,serif" font-size="14.00" fill="#000000">GO:0032550</text>
<text text-anchor="middle" x="426.574" y="-308.2" font-family="Times,serif" font-size="14.00" fill="#000000">purine ribonucleoside</text>
<text text-anchor="middle" x="426.574" y="-291.4" font-family="Times,serif" font-size="14.00" fill="#000000">binding</text>
</g>
<!-- GO:0005524&#45;&gt;GO:0032550 -->
<g id="edge16" class="edge">
<title>GO:0005524&#45;&gt;GO:0032550</title>
<path fill="none" stroke="#000000" d="M426.574,-50.0244C426.574,-96.9968 426.574,-211.8388 426.574,-272.8304"/>
<polygon fill="#000000" stroke="#000000" points="423.0741,-272.8515 426.574,-282.8515 430.0741,-272.8516 423.0741,-272.8515"/>
</g>
<!-- GO:1901265 -->
<g id="node19" class="node">
<title>GO:1901265</title>
<polygon fill="#ffffff" stroke="#000000" points="506.7081,-581.0014 370.4399,-581.0014 370.4399,-522.1986 506.7081,-522.1986 506.7081,-581.0014"/>
<text text-anchor="middle" x="438.574" y="-564.2" font-family="Times,serif" font-size="14.00" fill="#000000">GO:1901265</text>
<text text-anchor="middle" x="438.574" y="-547.4" font-family="Times,serif" font-size="14.00" fill="#000000">nucleoside phosphate</text>
<text text-anchor="middle" x="438.574" y="-530.6" font-family="Times,serif" font-size="14.00" fill="#000000">binding</text>
</g>
<!-- GO:0035639&#45;&gt;GO:1901265 -->
<g id="edge17" class="edge">
<title>GO:0035639&#45;&gt;GO:1901265</title>
<path fill="none" stroke="#000000" d="M557.4115,-152.9304C577.3709,-218.0874 615.6302,-377.6955 552.574,-486.4 543.9192,-501.3202 530.4241,-513.116 515.7052,-522.3311"/>
<polygon fill="#000000" stroke="#000000" points="513.7924,-519.395 506.9248,-527.4626 517.3245,-525.4385 513.7924,-519.395"/>
</g>
<!-- GO:0032555 -->
<g id="node20" class="node">
<title>GO:0032555</title>
<polygon fill="#ffffff" stroke="#000000" points="189.7067,-247.4014 53.4413,-247.4014 53.4413,-188.5986 189.7067,-188.5986 189.7067,-247.4014"/>
<text text-anchor="middle" x="121.574" y="-230.6" font-family="Times,serif" font-size="14.00" fill="#000000">GO:0032555</text>
<text text-anchor="middle" x="121.574" y="-213.8" font-family="Times,serif" font-size="14.00" fill="#000000">purine ribonucleotide</text>
<text text-anchor="middle" x="121.574" y="-197" font-family="Times,serif" font-size="14.00" fill="#000000">binding</text>
</g>
<!-- GO:0032559&#45;&gt;GO:0032555 -->
<g id="edge18" class="edge">
<title>GO:0032559&#45;&gt;GO:0032555</title>
<path fill="none" stroke="#000000" d="M236.6496,-152.9513C219.5271,-162.6301 200.3271,-173.4833 182.5897,-183.5097"/>
<polygon fill="#000000" stroke="#000000" points="180.4494,-180.699 173.4663,-188.6669 183.8941,-186.7928 180.4494,-180.699"/>
</g>
<!-- GO:0030554 -->
<g id="node21" class="node">
<title>GO:0030554</title>
<polygon fill="#ffffff" stroke="#000000" points="369.4911,-238.6019 207.6569,-238.6019 207.6569,-197.3981 369.4911,-197.3981 369.4911,-238.6019"/>
<text text-anchor="middle" x="288.574" y="-222.2" font-family="Times,serif" font-size="14.00" fill="#000000">GO:0030554</text>
<text text-anchor="middle" x="288.574" y="-205.4" font-family="Times,serif" font-size="14.00" fill="#000000">adenyl nucleotide binding</text>
</g>
<!-- GO:0032559&#45;&gt;GO:0030554 -->
<g id="edge19" class="edge">
<title>GO:0032559&#45;&gt;GO:0030554</title>
<path fill="none" stroke="#000000" d="M288.574,-152.9513C288.574,-163.8614 288.574,-176.2637 288.574,-187.292"/>
<polygon fill="#000000" stroke="#000000" points="285.0741,-187.3509 288.574,-197.351 292.0741,-187.351 285.0741,-187.3509"/>
</g>
<!-- GO:0001883 -->
<g id="node22" class="node">
<title>GO:0001883</title>
<polygon fill="#ffffff" stroke="#000000" points="543.4911,-452.6019 381.6569,-452.6019 381.6569,-411.3981 543.4911,-411.3981 543.4911,-452.6019"/>
<text text-anchor="middle" x="462.574" y="-436.2" font-family="Times,serif" font-size="14.00" fill="#000000">GO:0001883</text>
<text text-anchor="middle" x="462.574" y="-419.4" font-family="Times,serif" font-size="14.00" fill="#000000">purine nucleoside binding</text>
</g>
<!-- GO:0032550&#45;&gt;GO:0001883 -->
<g id="edge20" class="edge">
<title>GO:0032550&#45;&gt;GO:0001883</title>
<path fill="none" stroke="#000000" d="M435.3806,-341.6575C440.8604,-359.8625 447.8941,-383.23 453.4351,-401.6385"/>
<polygon fill="#000000" stroke="#000000" points="450.1067,-402.7242 456.3405,-411.291 456.8096,-400.7066 450.1067,-402.7242"/>
</g>
<!-- GO:0032549 -->
<g id="node23" class="node">
<title>GO:0032549</title>
<polygon fill="#ffffff" stroke="#000000" points="363.7763,-452.6019 219.3717,-452.6019 219.3717,-411.3981 363.7763,-411.3981 363.7763,-452.6019"/>
<text text-anchor="middle" x="291.574" y="-436.2" font-family="Times,serif" font-size="14.00" fill="#000000">GO:0032549</text>
<text text-anchor="middle" x="291.574" y="-419.4" font-family="Times,serif" font-size="14.00" fill="#000000">ribonucleoside binding</text>
</g>
<!-- GO:0032550&#45;&gt;GO:0032549 -->
<g id="edge21" class="edge">
<title>GO:0032550&#45;&gt;GO:0032549</title>
<path fill="none" stroke="#000000" d="M393.5493,-341.6575C371.8584,-360.8739 343.6751,-385.8423 322.4356,-404.6589"/>
<polygon fill="#000000" stroke="#000000" points="320.1137,-402.04 314.9495,-411.291 324.7556,-407.2795 320.1137,-402.04"/>
</g>
<!-- GO:0097159 -->
<g id="node24" class="node">
<title>GO:0097159</title>
<polygon fill="#ffffff" stroke="#000000" points="662.0854,-675.4014 505.0626,-675.4014 505.0626,-616.5986 662.0854,-616.5986 662.0854,-675.4014"/>
<text text-anchor="middle" x="583.574" y="-658.6" font-family="Times,serif" font-size="14.00" fill="#000000">GO:0097159</text>
<text text-anchor="middle" x="583.574" y="-641.8" font-family="Times,serif" font-size="14.00" fill="#000000">organic cyclic compound</text>
<text text-anchor="middle" x="583.574" y="-625" font-family="Times,serif" font-size="14.00" fill="#000000">binding</text>
</g>
<!-- GO:1901265&#45;&gt;GO:0097159 -->
<g id="edge22" class="edge">
<title>GO:1901265&#45;&gt;GO:0097159</title>
<path fill="none" stroke="#000000" d="M483.6581,-580.9513C498.2522,-590.4525 514.5844,-601.0854 529.7472,-610.9569"/>
<polygon fill="#000000" stroke="#000000" points="528.2277,-614.144 538.5178,-616.6669 532.0469,-608.2777 528.2277,-614.144"/>
</g>
<!-- GO:1901363 -->
<g id="node25" class="node">
<title>GO:1901363</title>
<polygon fill="#ffffff" stroke="#000000" points="487.0846,-675.4014 340.0634,-675.4014 340.0634,-616.5986 487.0846,-616.5986 487.0846,-675.4014"/>
<text text-anchor="middle" x="413.574" y="-658.6" font-family="Times,serif" font-size="14.00" fill="#000000">GO:1901363</text>
<text text-anchor="middle" x="413.574" y="-641.8" font-family="Times,serif" font-size="14.00" fill="#000000">heterocyclic compound</text>
<text text-anchor="middle" x="413.574" y="-625" font-family="Times,serif" font-size="14.00" fill="#000000">binding</text>
</g>
<!-- GO:1901265&#45;&gt;GO:1901363 -->
<g id="edge23" class="edge">
<title>GO:1901265&#45;&gt;GO:1901363</title>
<path fill="none" stroke="#000000" d="M430.8009,-580.9513C428.6374,-589.1206 426.2524,-598.1264 423.9644,-606.7657"/>
<polygon fill="#000000" stroke="#000000" points="420.5191,-606.1041 421.3423,-616.6669 427.2858,-607.8962 420.5191,-606.1041"/>
</g>
<!-- GO:0017076 -->
<g id="node26" class="node">
<title>GO:0017076</title>
<polygon fill="#ffffff" stroke="#000000" points="321.4367,-333.0019 161.7113,-333.0019 161.7113,-291.7981 321.4367,-291.7981 321.4367,-333.0019"/>
<text text-anchor="middle" x="241.574" y="-316.6" font-family="Times,serif" font-size="14.00" fill="#000000">GO:0017076</text>
<text text-anchor="middle" x="241.574" y="-299.8" font-family="Times,serif" font-size="14.00" fill="#000000">purine nucleotide binding</text>
</g>
<!-- GO:0032555&#45;&gt;GO:0017076 -->
<g id="edge24" class="edge">
<title>GO:0032555&#45;&gt;GO:0017076</title>
<path fill="none" stroke="#000000" d="M158.885,-247.3513C174.3266,-259.4987 192.1194,-273.4958 207.2351,-285.3867"/>
<polygon fill="#000000" stroke="#000000" points="205.3017,-288.319 215.3253,-291.751 209.6297,-282.8173 205.3017,-288.319"/>
</g>
<!-- GO:0032553 -->
<g id="node27" class="node">
<title>GO:0032553</title>
<polygon fill="#ffffff" stroke="#000000" points="143.2221,-333.0019 -.0741,-333.0019 -.0741,-291.7981 143.2221,-291.7981 143.2221,-333.0019"/>
<text text-anchor="middle" x="71.574" y="-316.6" font-family="Times,serif" font-size="14.00" fill="#000000">GO:0032553</text>
<text text-anchor="middle" x="71.574" y="-299.8" font-family="Times,serif" font-size="14.00" fill="#000000">ribonucleotide binding</text>
</g>
<!-- GO:0032555&#45;&gt;GO:0032553 -->
<g id="edge25" class="edge">
<title>GO:0032555&#45;&gt;GO:0032553</title>
<path fill="none" stroke="#000000" d="M106.0278,-247.3513C100.0704,-258.5989 93.273,-271.4323 87.299,-282.7112"/>
<polygon fill="#000000" stroke="#000000" points="84.0987,-281.2758 82.511,-291.751 90.2846,-284.5522 84.0987,-281.2758"/>
</g>
<!-- GO:0030554&#45;&gt;GO:0017076 -->
<g id="edge26" class="edge">
<title>GO:0030554&#45;&gt;GO:0017076</title>
<path fill="none" stroke="#000000" d="M278.1432,-238.9504C271.8149,-251.6609 263.6325,-268.0952 256.6127,-282.1945"/>
<polygon fill="#000000" stroke="#000000" points="253.2995,-280.9963 251.9757,-291.5081 259.5658,-284.1162 253.2995,-280.9963"/>
</g>
<!-- GO:0001882 -->
<g id="node28" class="node">
<title>GO:0001882</title>
<polygon fill="#ffffff" stroke="#000000" points="352.7249,-572.2019 230.4231,-572.2019 230.4231,-530.9981 352.7249,-530.9981 352.7249,-572.2019"/>
<text text-anchor="middle" x="291.574" y="-555.8" font-family="Times,serif" font-size="14.00" fill="#000000">GO:0001882</text>
<text text-anchor="middle" x="291.574" y="-539" font-family="Times,serif" font-size="14.00" fill="#000000">nucleoside binding</text>
</g>
<!-- GO:0001883&#45;&gt;GO:0001882 -->
<g id="edge27" class="edge">
<title>GO:0001883&#45;&gt;GO:0001882</title>
<path fill="none" stroke="#000000" d="M432.7881,-452.8327C404.1869,-472.8369 360.853,-503.1452 329.7354,-524.9093"/>
<polygon fill="#000000" stroke="#000000" points="327.4936,-522.2062 321.305,-530.8057 331.5056,-527.9424 327.4936,-522.2062"/>
</g>
<!-- GO:0032549&#45;&gt;GO:0001882 -->
<g id="edge28" class="edge">
<title>GO:0032549&#45;&gt;GO:0001882</title>
<path fill="none" stroke="#000000" d="M291.574,-452.8327C291.574,-471.4973 291.574,-499.1322 291.574,-520.4278"/>
<polygon fill="#000000" stroke="#000000" points="288.0741,-520.6047 291.574,-530.6047 295.0741,-520.6047 288.0741,-520.6047"/>
</g>
<!-- GO:0097159&#45;&gt;GO:0005488 -->
<g id="edge29" class="edge">
<title>GO:0097159&#45;&gt;GO:0005488</title>
<path fill="none" stroke="#000000" d="M583.574,-675.5963C583.574,-683.8638 583.574,-692.8657 583.574,-701.2008"/>
<polygon fill="#000000" stroke="#000000" points="580.0741,-701.2965 583.574,-711.2966 587.0741,-701.2966 580.0741,-701.2965"/>
</g>
<!-- GO:1901363&#45;&gt;GO:0005488 -->
<g id="edge30" class="edge">
<title>GO:1901363&#45;&gt;GO:0005488</title>
<path fill="none" stroke="#000000" d="M471.6029,-675.3558C491.7807,-685.5634 514.2207,-696.9154 533.6819,-706.7605"/>
<polygon fill="#000000" stroke="#000000" points="532.1801,-709.9231 542.6832,-711.3141 535.34,-703.6768 532.1801,-709.9231"/>
</g>
<!-- GO:0000166 -->
<g id="node29" class="node">
<title>GO:0000166</title>
<polygon fill="#ffffff" stroke="#000000" points="200.6715,-452.6019 80.4765,-452.6019 80.4765,-411.3981 200.6715,-411.3981 200.6715,-452.6019"/>
<text text-anchor="middle" x="140.574" y="-436.2" font-family="Times,serif" font-size="14.00" fill="#000000">GO:0000166</text>
<text text-anchor="middle" x="140.574" y="-419.4" font-family="Times,serif" font-size="14.00" fill="#000000">nucleotide binding</text>
</g>
<!-- GO:0017076&#45;&gt;GO:0000166 -->
<g id="edge31" class="edge">
<title>GO:0017076&#45;&gt;GO:0000166</title>
<path fill="none" stroke="#000000" d="M223.9811,-333.2327C207.6435,-352.5791 183.1669,-381.5632 164.9496,-403.1354"/>
<polygon fill="#000000" stroke="#000000" points="162.0821,-401.1063 158.3041,-411.0047 167.4302,-405.6227 162.0821,-401.1063"/>
</g>
<!-- GO:0032553&#45;&gt;GO:0000166 -->
<g id="edge33" class="edge">
<title>GO:0032553&#45;&gt;GO:0000166</title>
<path fill="none" stroke="#000000" d="M83.5929,-333.2327C94.6067,-352.3234 111.0348,-380.7988 123.4257,-402.2763"/>
<polygon fill="#000000" stroke="#000000" points="120.4324,-404.0919 128.4613,-411.0047 126.4957,-400.5938 120.4324,-404.0919"/>
</g>
<!-- GO:0097367 -->
<g id="node30" class="node">
<title>GO:0097367</title>
<polygon fill="#ffffff" stroke="#000000" points="156.6211,-675.4014 8.5269,-675.4014 8.5269,-616.5986 156.6211,-616.5986 156.6211,-675.4014"/>
<text text-anchor="middle" x="82.574" y="-658.6" font-family="Times,serif" font-size="14.00" fill="#000000">GO:0097367</text>
<text text-anchor="middle" x="82.574" y="-641.8" font-family="Times,serif" font-size="14.00" fill="#000000">carbohydrate derivative</text>
<text text-anchor="middle" x="82.574" y="-625" font-family="Times,serif" font-size="14.00" fill="#000000">binding</text>
</g>
<!-- GO:0032553&#45;&gt;GO:0097367 -->
<g id="edge32" class="edge">
<title>GO:0032553&#45;&gt;GO:0097367</title>
<path fill="none" stroke="#000000" d="M71.1152,-333.0322C70.4939,-365.6206 69.6671,-431.0005 71.574,-486.4 72.9818,-527.2991 76.413,-573.9892 79.0721,-606.2554"/>
<polygon fill="#000000" stroke="#000000" points="75.6173,-606.9429 79.9402,-616.6157 82.5929,-606.3583 75.6173,-606.9429"/>
</g>
<!-- GO:0001882&#45;&gt;GO:0097159 -->
<g id="edge37" class="edge">
<title>GO:0001882&#45;&gt;GO:0097159</title>
<path fill="none" stroke="#000000" d="M338.6874,-572.2653C346.2755,-575.2998 354.0943,-578.2556 361.574,-580.8 417.3769,-599.783 435.3003,-599.047 494.9764,-616.4075"/>
<polygon fill="#000000" stroke="#000000" points="494.3424,-619.87 504.9247,-619.3549 496.3309,-613.1583 494.3424,-619.87"/>
</g>
<!-- GO:0001882&#45;&gt;GO:1901363 -->
<g id="edge36" class="edge">
<title>GO:0001882&#45;&gt;GO:1901363</title>
<path fill="none" stroke="#000000" d="M318.3474,-572.3165C332.8142,-583.5105 351.0784,-597.6427 367.733,-610.5296"/>
<polygon fill="#000000" stroke="#000000" points="365.7051,-613.3859 375.7558,-616.7374 369.9889,-607.8496 365.7051,-613.3859"/>
</g>
<!-- GO:0001882&#45;&gt;GO:0097367 -->
<g id="edge35" class="edge">
<title>GO:0001882&#45;&gt;GO:0097367</title>
<path fill="none" stroke="#000000" d="M245.7081,-572.3165C219.6856,-584.0702 186.491,-599.0633 156.8471,-612.4527"/>
<polygon fill="#000000" stroke="#000000" points="155.0336,-609.4313 147.3608,-616.7374 157.9151,-615.8108 155.0336,-609.4313"/>
</g>
<!-- GO:0036094 -->
<g id="node31" class="node">
<title>GO:0036094</title>
<polygon fill="#ffffff" stroke="#000000" points="322.5024,-666.6019 174.6456,-666.6019 174.6456,-625.3981 322.5024,-625.3981 322.5024,-666.6019"/>
<text text-anchor="middle" x="248.574" y="-650.2" font-family="Times,serif" font-size="14.00" fill="#000000">GO:0036094</text>
<text text-anchor="middle" x="248.574" y="-633.4" font-family="Times,serif" font-size="14.00" fill="#000000">small molecule binding</text>
</g>
<!-- GO:0001882&#45;&gt;GO:0036094 -->
<g id="edge34" class="edge">
<title>GO:0001882&#45;&gt;GO:0036094</title>
<path fill="none" stroke="#000000" d="M282.0309,-572.5504C276.2412,-585.2609 268.7552,-601.6952 262.3328,-615.7945"/>
<polygon fill="#000000" stroke="#000000" points="259.0506,-614.5569 258.0904,-625.1081 265.4209,-617.4586 259.0506,-614.5569"/>
</g>
<!-- GO:0000166&#45;&gt;GO:1901265 -->
<g id="edge39" class="edge">
<title>GO:0000166&#45;&gt;GO:1901265</title>
<path fill="none" stroke="#000000" d="M162.2524,-452.8085C175.3119,-464.278 192.8119,-477.878 210.574,-486.4 269.9829,-514.9034 293.4955,-503.3062 360.5408,-522.2975"/>
<polygon fill="#000000" stroke="#000000" points="359.7161,-525.7034 370.2983,-525.1876 361.7041,-518.9916 359.7161,-525.7034"/>
</g>
<!-- GO:0000166&#45;&gt;GO:0036094 -->
<g id="edge38" class="edge">
<title>GO:0000166&#45;&gt;GO:0036094</title>
<path fill="none" stroke="#000000" d="M151.1261,-452.9089C170.4113,-491.122 211.3999,-572.3401 233.5763,-616.2823"/>
<polygon fill="#000000" stroke="#000000" points="230.5079,-617.9707 238.138,-625.3213 236.7571,-614.8169 230.5079,-617.9707"/>
</g>
<!-- GO:0097367&#45;&gt;GO:0005488 -->
<g id="edge40" class="edge">
<title>GO:0097367&#45;&gt;GO:0005488</title>
<path fill="none" stroke="#000000" d="M157.0158,-672.9916C159.8927,-673.7792 162.7526,-674.5195 165.574,-675.2 293.4987,-706.0543 447.7712,-721.5784 528.3841,-728.0922"/>
<polygon fill="#000000" stroke="#000000" points="528.5426,-731.6156 538.7876,-728.9156 529.095,-724.6374 528.5426,-731.6156"/>
</g>
<!-- GO:0036094&#45;&gt;GO:0005488 -->
<g id="edge41" class="edge">
<title>GO:0036094&#45;&gt;GO:0005488</title>
<path fill="none" stroke="#000000" d="M303.8549,-666.7109C312.732,-669.7395 321.8637,-672.6815 330.574,-675.2 398.0774,-694.7184 477.3231,-711.5518 528.8948,-721.7179"/>
<polygon fill="#000000" stroke="#000000" points="528.3425,-725.1761 538.8284,-723.661 529.6864,-718.3063 528.3425,-725.1761"/>
</g>
<!-- GO:0051015 -->
<g id="node32" class="node">
<title>GO:0051015</title>
<polygon fill="#ff00ff" stroke="#000000" points="903.2183,-333.0019 763.9297,-333.0019 763.9297,-291.7981 903.2183,-291.7981 903.2183,-333.0019"/>
<text text-anchor="middle" x="833.574" y="-316.6" font-family="Times,serif" font-size="14.00" fill="#000000">GO:0051015</text>
<text text-anchor="middle" x="833.574" y="-299.8" font-family="Times,serif" font-size="14.00" fill="#000000">actin filament binding</text>
</g>
<!-- GO:0051015&#45;&gt;GO:0003779 -->
<g id="edge42" class="edge">
<title>GO:0051015&#45;&gt;GO:0003779</title>
<path fill="none" stroke="#000000" d="M826.2582,-333.2327C819.6439,-352.0677 809.8216,-380.0377 802.3164,-401.4096"/>
<polygon fill="#000000" stroke="#000000" points="798.958,-400.4099 798.9469,-411.0047 805.5626,-402.7293 798.958,-400.4099"/>
</g>
<!-- GO:0032403 -->
<g id="node33" class="node">
<title>GO:0032403</title>
<polygon fill="#ffffff" stroke="#000000" points="965.2224,-572.2019 811.9256,-572.2019 811.9256,-530.9981 965.2224,-530.9981 965.2224,-572.2019"/>
<text text-anchor="middle" x="888.574" y="-555.8" font-family="Times,serif" font-size="14.00" fill="#000000">GO:0032403</text>
<text text-anchor="middle" x="888.574" y="-539" font-family="Times,serif" font-size="14.00" fill="#000000">protein complex binding</text>
</g>
<!-- GO:0051015&#45;&gt;GO:0032403 -->
<g id="edge43" class="edge">
<title>GO:0051015&#45;&gt;GO:0032403</title>
<path fill="none" stroke="#000000" d="M838.3587,-333.209C848.0697,-375.4431 870.1328,-471.3976 881.5051,-520.8566"/>
<polygon fill="#000000" stroke="#000000" points="878.1093,-521.7074 883.7612,-530.6688 884.9313,-520.1388 878.1093,-521.7074"/>
</g>
<!-- GO:0032403&#45;&gt;GO:0005515 -->
<g id="edge45" class="edge">
<title>GO:0032403&#45;&gt;GO:0005515</title>
<path fill="none" stroke="#000000" d="M854.1197,-572.3165C830.7038,-586.3959 799.557,-605.1236 774.5245,-620.175"/>
<polygon fill="#000000" stroke="#000000" points="772.7145,-617.1793 765.9479,-625.3318 776.3216,-623.1784 772.7145,-617.1793"/>
</g>
<!-- GO:0044877 -->
<g id="node34" class="node">
<title>GO:0044877</title>
<polygon fill="#ffffff" stroke="#000000" points="963.7413,-675.4014 805.4067,-675.4014 805.4067,-616.5986 963.7413,-616.5986 963.7413,-675.4014"/>
<text text-anchor="middle" x="884.574" y="-658.6" font-family="Times,serif" font-size="14.00" fill="#000000">GO:0044877</text>
<text text-anchor="middle" x="884.574" y="-641.8" font-family="Times,serif" font-size="14.00" fill="#000000">macromolecular complex</text>
<text text-anchor="middle" x="884.574" y="-625" font-family="Times,serif" font-size="14.00" fill="#000000">binding</text>
</g>
<!-- GO:0032403&#45;&gt;GO:0044877 -->
<g id="edge44" class="edge">
<title>GO:0032403&#45;&gt;GO:0044877</title>
<path fill="none" stroke="#000000" d="M887.6863,-572.5504C887.2626,-582.5492 886.7413,-594.8525 886.2473,-606.5106"/>
<polygon fill="#000000" stroke="#000000" points="882.7499,-606.3763 885.8233,-616.5155 889.7436,-606.6727 882.7499,-606.3763"/>
</g>
<!-- GO:0044877&#45;&gt;GO:0005488 -->
<g id="edge46" class="edge">
<title>GO:0044877&#45;&gt;GO:0005488</title>
<path fill="none" stroke="#000000" d="M805.236,-671.1299C800.6189,-672.524 796.0396,-673.8897 791.574,-675.2 739.699,-690.4209 680.1557,-706.5454 638.106,-717.7098"/>
<polygon fill="#000000" stroke="#000000" points="637.1133,-714.352 628.3431,-720.2963 638.906,-721.1186 637.1133,-714.352"/>
</g>
<!-- GO:0005516 -->
<g id="node35" class="node">
<title>GO:0005516</title>
<polygon fill="#ff00ff" stroke="#000000" points="794.3471,-572.2019 668.8009,-572.2019 668.8009,-530.9981 794.3471,-530.9981 794.3471,-572.2019"/>
<text text-anchor="middle" x="731.574" y="-555.8" font-family="Times,serif" font-size="14.00" fill="#000000">GO:0005516</text>
<text text-anchor="middle" x="731.574" y="-539" font-family="Times,serif" font-size="14.00" fill="#000000">calmodulin binding</text>
</g>
<!-- GO:0005516&#45;&gt;GO:0005515 -->
<g id="edge47" class="edge">
<title>GO:0005516&#45;&gt;GO:0005515</title>
<path fill="none" stroke="#000000" d="M731.574,-572.5504C731.574,-585.0165 731.574,-601.0645 731.574,-614.9786"/>
<polygon fill="#000000" stroke="#000000" points="728.0741,-615.1081 731.574,-625.1081 735.0741,-615.1082 728.0741,-615.1081"/>
</g>
</g>
</svg>
