<?xml version="1.0" encoding="UTF-8" standalone="no"?>
<!DOCTYPE svg PUBLIC "-//W3C//DTD SVG 1.1//EN"
 "http://www.w3.org/Graphics/SVG/1.1/DTD/svg11.dtd">
<!-- Generated by graphviz version 2.40.1 (20161225.0304)
 -->
<!-- Title: G Pages: 1 -->
<svg width="578pt" height="549pt"
 viewBox="0.00 0.00 577.59 548.80" xmlns="http://www.w3.org/2000/svg" xmlns:xlink="http://www.w3.org/1999/xlink">
<g id="graph0" class="graph" transform="scale(1 1) rotate(0) translate(4 544.8)">
<title>G</title>
<polygon fill="#ffffff" stroke="transparent" points="-4,4 -4,-544.8 573.5895,-544.8 573.5895,4 -4,4"/>
<!-- GO:0009570 -->
<g id="node1" class="node">
<title>GO:0009570</title>
<polygon fill="#ffffff" stroke="#000000" points="155.4165,-41.4019 35.8017,-41.4019 35.8017,-.1981 155.4165,-.1981 155.4165,-41.4019"/>
<text text-anchor="middle" x="95.6091" y="-25" font-family="Times,serif" font-size="14.00" fill="#000000">GO:0009570</text>
<text text-anchor="middle" x="95.6091" y="-8.2" font-family="Times,serif" font-size="14.00" fill="#000000">chloroplast stroma</text>
</g>
<!-- GO:0044434 -->
<g id="node2" class="node">
<title>GO:0044434</title>
<polygon fill="#ffffff" stroke="#000000" points="124.5822,-119.0019 20.636,-119.0019 20.636,-77.7981 124.5822,-77.7981 124.5822,-119.0019"/>
<text text-anchor="middle" x="72.6091" y="-102.6" font-family="Times,serif" font-size="14.00" fill="#000000">GO:0044434</text>
<text text-anchor="middle" x="72.6091" y="-85.8" font-family="Times,serif" font-size="14.00" fill="#000000">chloroplast part</text>
</g>
<!-- GO:0009570&#45;&gt;GO:0044434 -->
<g id="edge1" class="edge">
<title>GO:0009570&#45;&gt;GO:0044434</title>
<path fill="none" stroke="#000000" d="M89.4455,-41.5954C87.0479,-49.6848 84.2526,-59.1159 81.6365,-67.9424"/>
<polygon fill="#000000" stroke="#000000" points="78.2758,-66.9649 78.7897,-77.5472 84.9872,-68.9541 78.2758,-66.9649"/>
</g>
<!-- GO:0009532 -->
<g id="node3" class="node">
<title>GO:0009532</title>
<polygon fill="#ffffff" stroke="#000000" points="237.0411,-119.0019 142.1771,-119.0019 142.1771,-77.7981 237.0411,-77.7981 237.0411,-119.0019"/>
<text text-anchor="middle" x="189.6091" y="-102.6" font-family="Times,serif" font-size="14.00" fill="#000000">GO:0009532</text>
<text text-anchor="middle" x="189.6091" y="-85.8" font-family="Times,serif" font-size="14.00" fill="#000000">plastid stroma</text>
</g>
<!-- GO:0009570&#45;&gt;GO:0009532 -->
<g id="edge2" class="edge">
<title>GO:0009570&#45;&gt;GO:0009532</title>
<path fill="none" stroke="#000000" d="M120.7994,-41.5954C131.7575,-50.6416 144.748,-61.3657 156.4739,-71.0458"/>
<polygon fill="#000000" stroke="#000000" points="154.4093,-73.88 164.3493,-77.5472 158.8658,-68.4818 154.4093,-73.88"/>
</g>
<!-- GO:0044435 -->
<g id="node4" class="node">
<title>GO:0044435</title>
<polygon fill="#ffffff" stroke="#000000" points="148.213,-205.0019 59.0052,-205.0019 59.0052,-163.7981 148.213,-163.7981 148.213,-205.0019"/>
<text text-anchor="middle" x="103.6091" y="-188.6" font-family="Times,serif" font-size="14.00" fill="#000000">GO:0044435</text>
<text text-anchor="middle" x="103.6091" y="-171.8" font-family="Times,serif" font-size="14.00" fill="#000000">plastid part</text>
</g>
<!-- GO:0044434&#45;&gt;GO:0044435 -->
<g id="edge3" class="edge">
<title>GO:0044434&#45;&gt;GO:0044435</title>
<path fill="none" stroke="#000000" d="M80.1133,-119.2182C83.883,-129.6761 88.5217,-142.5446 92.6787,-154.077"/>
<polygon fill="#000000" stroke="#000000" points="89.4902,-155.5529 96.174,-163.7735 96.0755,-153.1791 89.4902,-155.5529"/>
</g>
<!-- GO:0009532&#45;&gt;GO:0044435 -->
<g id="edge4" class="edge">
<title>GO:0009532&#45;&gt;GO:0044435</title>
<path fill="none" stroke="#000000" d="M168.7909,-119.2182C157.5935,-130.4156 143.6327,-144.3764 131.5072,-156.5019"/>
<polygon fill="#000000" stroke="#000000" points="128.8318,-154.2275 124.2356,-163.7735 133.7816,-159.1773 128.8318,-154.2275"/>
</g>
<!-- GO:0044446 -->
<g id="node5" class="node">
<title>GO:0044446</title>
<polygon fill="#ffffff" stroke="#000000" points="139.3275,-308.2014 -.1093,-308.2014 -.1093,-249.3986 139.3275,-249.3986 139.3275,-308.2014"/>
<text text-anchor="middle" x="69.6091" y="-291.4" font-family="Times,serif" font-size="14.00" fill="#000000">GO:0044446</text>
<text text-anchor="middle" x="69.6091" y="-274.6" font-family="Times,serif" font-size="14.00" fill="#000000">intracellular organelle</text>
<text text-anchor="middle" x="69.6091" y="-257.8" font-family="Times,serif" font-size="14.00" fill="#000000">part</text>
</g>
<!-- GO:0044435&#45;&gt;GO:0044446 -->
<g id="edge5" class="edge">
<title>GO:0044435&#45;&gt;GO:0044446</title>
<path fill="none" stroke="#000000" d="M96.0634,-205.3504C92.4258,-215.4502 87.9413,-227.9012 83.7048,-239.6637"/>
<polygon fill="#000000" stroke="#000000" points="80.3243,-238.7211 80.2285,-249.3155 86.9101,-241.0932 80.3243,-238.7211"/>
</g>
<!-- GO:0044444 -->
<g id="node6" class="node">
<title>GO:0044444</title>
<polygon fill="#ffffff" stroke="#000000" points="266.0257,-299.4019 157.1925,-299.4019 157.1925,-258.1981 266.0257,-258.1981 266.0257,-299.4019"/>
<text text-anchor="middle" x="211.6091" y="-283" font-family="Times,serif" font-size="14.00" fill="#000000">GO:0044444</text>
<text text-anchor="middle" x="211.6091" y="-266.2" font-family="Times,serif" font-size="14.00" fill="#000000">cytoplasmic part</text>
</g>
<!-- GO:0044435&#45;&gt;GO:0044444 -->
<g id="edge6" class="edge">
<title>GO:0044435&#45;&gt;GO:0044444</title>
<path fill="none" stroke="#000000" d="M127.3102,-205.1165C142.7849,-218.6425 163.1678,-236.4587 180.0143,-251.1838"/>
<polygon fill="#000000" stroke="#000000" points="178.1307,-254.186 187.9633,-258.1318 182.7375,-248.9155 178.1307,-254.186"/>
</g>
<!-- GO:0044424 -->
<g id="node7" class="node">
<title>GO:0044424</title>
<polygon fill="#ffffff" stroke="#000000" points="266.0075,-385.4019 157.2107,-385.4019 157.2107,-344.1981 266.0075,-344.1981 266.0075,-385.4019"/>
<text text-anchor="middle" x="211.6091" y="-369" font-family="Times,serif" font-size="14.00" fill="#000000">GO:0044424</text>
<text text-anchor="middle" x="211.6091" y="-352.2" font-family="Times,serif" font-size="14.00" fill="#000000">intracellular part</text>
</g>
<!-- GO:0044446&#45;&gt;GO:0044424 -->
<g id="edge7" class="edge">
<title>GO:0044446&#45;&gt;GO:0044424</title>
<path fill="none" stroke="#000000" d="M118.0803,-308.1558C134.4856,-318.0914 152.6811,-329.1112 168.6298,-338.7703"/>
<polygon fill="#000000" stroke="#000000" points="166.8667,-341.7943 177.2334,-343.9809 170.493,-335.8068 166.8667,-341.7943"/>
</g>
<!-- GO:0044422 -->
<g id="node8" class="node">
<title>GO:0044422</title>
<polygon fill="#ffffff" stroke="#000000" points="141.4612,-463.0019 47.757,-463.0019 47.757,-421.7981 141.4612,-421.7981 141.4612,-463.0019"/>
<text text-anchor="middle" x="94.6091" y="-446.6" font-family="Times,serif" font-size="14.00" fill="#000000">GO:0044422</text>
<text text-anchor="middle" x="94.6091" y="-429.8" font-family="Times,serif" font-size="14.00" fill="#000000">organelle part</text>
</g>
<!-- GO:0044446&#45;&gt;GO:0044422 -->
<g id="edge8" class="edge">
<title>GO:0044446&#45;&gt;GO:0044422</title>
<path fill="none" stroke="#000000" d="M74.0786,-308.0484C78.5316,-337.1891 85.3426,-381.7603 89.8835,-411.4759"/>
<polygon fill="#000000" stroke="#000000" points="86.4747,-412.339 91.4452,-421.6955 93.3944,-411.2815 86.4747,-412.339"/>
</g>
<!-- GO:0044444&#45;&gt;GO:0044424 -->
<g id="edge9" class="edge">
<title>GO:0044444&#45;&gt;GO:0044424</title>
<path fill="none" stroke="#000000" d="M211.6091,-299.6182C211.6091,-309.9705 211.6091,-322.6848 211.6091,-334.1271"/>
<polygon fill="#000000" stroke="#000000" points="208.1092,-334.1735 211.6091,-344.1735 215.1092,-334.1735 208.1092,-334.1735"/>
</g>
<!-- GO:0044464 -->
<g id="node9" class="node">
<title>GO:0044464</title>
<polygon fill="#ffffff" stroke="#000000" points="256.213,-463.0019 167.0052,-463.0019 167.0052,-421.7981 256.213,-421.7981 256.213,-463.0019"/>
<text text-anchor="middle" x="211.6091" y="-446.6" font-family="Times,serif" font-size="14.00" fill="#000000">GO:0044464</text>
<text text-anchor="middle" x="211.6091" y="-429.8" font-family="Times,serif" font-size="14.00" fill="#000000">cell part</text>
</g>
<!-- GO:0044424&#45;&gt;GO:0044464 -->
<g id="edge10" class="edge">
<title>GO:0044424&#45;&gt;GO:0044464</title>
<path fill="none" stroke="#000000" d="M211.6091,-385.5954C211.6091,-393.5109 211.6091,-402.7109 211.6091,-411.3722"/>
<polygon fill="#000000" stroke="#000000" points="208.1092,-411.5472 211.6091,-421.5472 215.1092,-411.5473 208.1092,-411.5472"/>
</g>
<!-- GO:0005575 -->
<g id="node10" class="node">
<title>GO:0005575</title>
<polygon fill="#ffffff" stroke="#000000" points="275.2958,-540.6019 147.9224,-540.6019 147.9224,-499.3981 275.2958,-499.3981 275.2958,-540.6019"/>
<text text-anchor="middle" x="211.6091" y="-524.2" font-family="Times,serif" font-size="14.00" fill="#000000">GO:0005575</text>
<text text-anchor="middle" x="211.6091" y="-507.4" font-family="Times,serif" font-size="14.00" fill="#000000">cellular_component</text>
</g>
<!-- GO:0044422&#45;&gt;GO:0005575 -->
<g id="edge11" class="edge">
<title>GO:0044422&#45;&gt;GO:0005575</title>
<path fill="none" stroke="#000000" d="M125.963,-463.1954C139.9957,-472.5026 156.7063,-483.5858 171.6254,-493.4809"/>
<polygon fill="#000000" stroke="#000000" points="169.9005,-496.5367 180.1687,-499.1472 173.7696,-490.7031 169.9005,-496.5367"/>
</g>
<!-- GO:0044464&#45;&gt;GO:0005575 -->
<g id="edge20" class="edge">
<title>GO:0044464&#45;&gt;GO:0005575</title>
<path fill="none" stroke="#000000" d="M211.6091,-463.1954C211.6091,-471.1109 211.6091,-480.3109 211.6091,-488.9722"/>
<polygon fill="#000000" stroke="#000000" points="208.1092,-489.1472 211.6091,-499.1472 215.1092,-489.1473 208.1092,-489.1472"/>
</g>
<!-- GO:0009509 -->
<g id="node11" class="node">
<title>GO:0009509</title>
<polygon fill="#ffffff" stroke="#000000" points="305.213,-41.4019 216.0052,-41.4019 216.0052,-.1981 305.213,-.1981 305.213,-41.4019"/>
<text text-anchor="middle" x="260.6091" y="-25" font-family="Times,serif" font-size="14.00" fill="#000000">GO:0009509</text>
<text text-anchor="middle" x="260.6091" y="-8.2" font-family="Times,serif" font-size="14.00" fill="#000000">chromoplast</text>
</g>
<!-- GO:0009536 -->
<g id="node12" class="node">
<title>GO:0009536</title>
<polygon fill="#ffffff" stroke="#000000" points="375.213,-119.0019 286.0052,-119.0019 286.0052,-77.7981 375.213,-77.7981 375.213,-119.0019"/>
<text text-anchor="middle" x="330.6091" y="-102.6" font-family="Times,serif" font-size="14.00" fill="#000000">GO:0009536</text>
<text text-anchor="middle" x="330.6091" y="-85.8" font-family="Times,serif" font-size="14.00" fill="#000000">plastid</text>
</g>
<!-- GO:0009509&#45;&gt;GO:0009536 -->
<g id="edge12" class="edge">
<title>GO:0009509&#45;&gt;GO:0009536</title>
<path fill="none" stroke="#000000" d="M279.3678,-41.5954C287.2143,-50.2937 296.46,-60.5433 304.9224,-69.9244"/>
<polygon fill="#000000" stroke="#000000" points="302.5016,-72.4662 311.7986,-77.5472 307.6993,-67.7775 302.5016,-72.4662"/>
</g>
<!-- GO:0009536&#45;&gt;GO:0044444 -->
<g id="edge13" class="edge">
<title>GO:0009536&#45;&gt;GO:0044444</title>
<path fill="none" stroke="#000000" d="M304.0946,-119.1362C292.4858,-129.1478 279.3264,-141.8694 269.6091,-155.2 248.4376,-184.2438 231.9983,-222.2436 222.1128,-248.401"/>
<polygon fill="#000000" stroke="#000000" points="218.8219,-247.2095 218.6488,-257.8029 225.3903,-249.6295 218.8219,-247.2095"/>
</g>
<!-- GO:0043231 -->
<g id="node13" class="node">
<title>GO:0043231</title>
<polygon fill="#ffffff" stroke="#000000" points="428.9879,-213.8014 278.2303,-213.8014 278.2303,-154.9986 428.9879,-154.9986 428.9879,-213.8014"/>
<text text-anchor="middle" x="353.6091" y="-197" font-family="Times,serif" font-size="14.00" fill="#000000">GO:0043231</text>
<text text-anchor="middle" x="353.6091" y="-180.2" font-family="Times,serif" font-size="14.00" fill="#000000">intracellular membrane&#45;</text>
<text text-anchor="middle" x="353.6091" y="-163.4" font-family="Times,serif" font-size="14.00" fill="#000000">bounded organelle</text>
</g>
<!-- GO:0009536&#45;&gt;GO:0043231 -->
<g id="edge14" class="edge">
<title>GO:0009536&#45;&gt;GO:0043231</title>
<path fill="none" stroke="#000000" d="M336.1768,-119.2182C338.2632,-127.0197 340.7084,-136.1626 343.0964,-145.0917"/>
<polygon fill="#000000" stroke="#000000" points="339.7812,-146.2429 345.7461,-154.9991 346.5436,-144.4344 339.7812,-146.2429"/>
</g>
<!-- GO:0043229 -->
<g id="node14" class="node">
<title>GO:0043229</title>
<polygon fill="#ffffff" stroke="#000000" points="423.3275,-299.4019 283.8907,-299.4019 283.8907,-258.1981 423.3275,-258.1981 423.3275,-299.4019"/>
<text text-anchor="middle" x="353.6091" y="-283" font-family="Times,serif" font-size="14.00" fill="#000000">GO:0043229</text>
<text text-anchor="middle" x="353.6091" y="-266.2" font-family="Times,serif" font-size="14.00" fill="#000000">intracellular organelle</text>
</g>
<!-- GO:0043231&#45;&gt;GO:0043229 -->
<g id="edge15" class="edge">
<title>GO:0043231&#45;&gt;GO:0043229</title>
<path fill="none" stroke="#000000" d="M353.6091,-213.7513C353.6091,-224.6614 353.6091,-237.0637 353.6091,-248.092"/>
<polygon fill="#000000" stroke="#000000" points="350.1092,-248.1509 353.6091,-258.151 357.1092,-248.151 350.1092,-248.1509"/>
</g>
<!-- GO:0043227 -->
<g id="node15" class="node">
<title>GO:0043227</title>
<polygon fill="#ffffff" stroke="#000000" points="569.5699,-308.2014 441.6483,-308.2014 441.6483,-249.3986 569.5699,-249.3986 569.5699,-308.2014"/>
<text text-anchor="middle" x="505.6091" y="-291.4" font-family="Times,serif" font-size="14.00" fill="#000000">GO:0043227</text>
<text text-anchor="middle" x="505.6091" y="-274.6" font-family="Times,serif" font-size="14.00" fill="#000000">membrane&#45;bounded</text>
<text text-anchor="middle" x="505.6091" y="-257.8" font-family="Times,serif" font-size="14.00" fill="#000000">organelle</text>
</g>
<!-- GO:0043231&#45;&gt;GO:0043227 -->
<g id="edge16" class="edge">
<title>GO:0043231&#45;&gt;GO:0043227</title>
<path fill="none" stroke="#000000" d="M400.8696,-213.7513C416.3112,-223.3413 433.6091,-234.0842 449.6291,-244.0335"/>
<polygon fill="#000000" stroke="#000000" points="448.0362,-247.1642 458.3778,-249.4669 451.7293,-241.2177 448.0362,-247.1642"/>
</g>
<!-- GO:0043229&#45;&gt;GO:0044424 -->
<g id="edge17" class="edge">
<title>GO:0043229&#45;&gt;GO:0044424</title>
<path fill="none" stroke="#000000" d="M319.2349,-299.6182C299.6997,-311.4494 275.0704,-326.3657 254.304,-338.9425"/>
<polygon fill="#000000" stroke="#000000" points="252.4073,-335.9994 245.6668,-344.1735 256.0335,-341.9869 252.4073,-335.9994"/>
</g>
<!-- GO:0043226 -->
<g id="node16" class="node">
<title>GO:0043226</title>
<polygon fill="#ffffff" stroke="#000000" points="398.213,-385.4019 309.0052,-385.4019 309.0052,-344.1981 398.213,-344.1981 398.213,-385.4019"/>
<text text-anchor="middle" x="353.6091" y="-369" font-family="Times,serif" font-size="14.00" fill="#000000">GO:0043226</text>
<text text-anchor="middle" x="353.6091" y="-352.2" font-family="Times,serif" font-size="14.00" fill="#000000">organelle</text>
</g>
<!-- GO:0043229&#45;&gt;GO:0043226 -->
<g id="edge18" class="edge">
<title>GO:0043229&#45;&gt;GO:0043226</title>
<path fill="none" stroke="#000000" d="M353.6091,-299.6182C353.6091,-309.9705 353.6091,-322.6848 353.6091,-334.1271"/>
<polygon fill="#000000" stroke="#000000" points="350.1092,-334.1735 353.6091,-344.1735 357.1092,-334.1735 350.1092,-334.1735"/>
</g>
<!-- GO:0043227&#45;&gt;GO:0043226 -->
<g id="edge19" class="edge">
<title>GO:0043227&#45;&gt;GO:0043226</title>
<path fill="none" stroke="#000000" d="M453.7245,-308.1558C436.0012,-318.1834 416.3261,-329.3154 399.1415,-339.0383"/>
<polygon fill="#000000" stroke="#000000" points="397.3855,-336.0103 390.4056,-343.9809 400.8326,-342.1028 397.3855,-336.0103"/>
</g>
<!-- GO:0043226&#45;&gt;GO:0005575 -->
<g id="edge21" class="edge">
<title>GO:0043226&#45;&gt;GO:0005575</title>
<path fill="none" stroke="#000000" d="M335.2499,-385.6978C317.5728,-405.7312 290.001,-436.7477 265.6091,-463.2 256.8898,-472.6558 247.2468,-482.8732 238.5511,-492.0004"/>
<polygon fill="#000000" stroke="#000000" points="235.8876,-489.7217 231.5107,-499.3702 240.9492,-494.5571 235.8876,-489.7217"/>
</g>
<!-- GO:0009507 -->
<g id="node17" class="node">
<title>GO:0009507</title>
<polygon fill="#ffffff" stroke="#000000" points="412.213,-41.4019 323.0052,-41.4019 323.0052,-.1981 412.213,-.1981 412.213,-41.4019"/>
<text text-anchor="middle" x="367.6091" y="-25" font-family="Times,serif" font-size="14.00" fill="#000000">GO:0009507</text>
<text text-anchor="middle" x="367.6091" y="-8.2" font-family="Times,serif" font-size="14.00" fill="#000000">chloroplast</text>
</g>
<!-- GO:0009507&#45;&gt;GO:0009536 -->
<g id="edge22" class="edge">
<title>GO:0009507&#45;&gt;GO:0009536</title>
<path fill="none" stroke="#000000" d="M357.6938,-41.5954C353.7537,-49.8588 349.1462,-59.5222 344.8603,-68.511"/>
<polygon fill="#000000" stroke="#000000" points="341.6964,-67.0144 340.5518,-77.5472 348.015,-70.0271 341.6964,-67.0144"/>
</g>
</g>
</svg>
