<?xml version="1.0" encoding="UTF-8" standalone="no"?>
<!DOCTYPE svg PUBLIC "-//W3C//DTD SVG 1.1//EN"
 "http://www.w3.org/Graphics/SVG/1.1/DTD/svg11.dtd">
<!-- Generated by graphviz version 2.40.1 (20161225.0304)
 -->
<!-- Title: G Pages: 1 -->
<svg width="655pt" height="488pt"
 viewBox="0.00 0.00 655.15 488.00" xmlns="http://www.w3.org/2000/svg" xmlns:xlink="http://www.w3.org/1999/xlink">
<g id="graph0" class="graph" transform="scale(1 1) rotate(0) translate(4 484)">
<title>G</title>
<polygon fill="#ffffff" stroke="transparent" points="-4,4 -4,-484 651.1512,-484 651.1512,4 -4,4"/>
<!-- GO:0019538 -->
<g id="node1" class="node">
<title>GO:0019538</title>
<polygon fill="#ffffff" stroke="#000000" points="253.0928,-119.0019 93.4094,-119.0019 93.4094,-77.7981 253.0928,-77.7981 253.0928,-119.0019"/>
<text text-anchor="middle" x="173.2511" y="-102.6" font-family="Times,serif" font-size="14.00" fill="#000000">GO:0019538</text>
<text text-anchor="middle" x="173.2511" y="-85.8" font-family="Times,serif" font-size="14.00" fill="#000000">protein metabolic process</text>
</g>
<!-- GO:0044238 -->
<g id="node2" class="node">
<title>GO:0044238</title>
<polygon fill="#ffffff" stroke="#000000" points="164.2541,-213.4019 .2481,-213.4019 .2481,-172.1981 164.2541,-172.1981 164.2541,-213.4019"/>
<text text-anchor="middle" x="82.2511" y="-197" font-family="Times,serif" font-size="14.00" fill="#000000">GO:0044238</text>
<text text-anchor="middle" x="82.2511" y="-180.2" font-family="Times,serif" font-size="14.00" fill="#000000">primary metabolic process</text>
</g>
<!-- GO:0019538&#45;&gt;GO:0044238 -->
<g id="edge1" class="edge">
<title>GO:0019538&#45;&gt;GO:0044238</title>
<path fill="none" stroke="#000000" d="M153.0553,-119.3504C140.2135,-132.672 123.4286,-150.084 109.4246,-164.6112"/>
<polygon fill="#000000" stroke="#000000" points="106.8109,-162.2795 102.3905,-171.9081 111.8506,-167.1377 106.8109,-162.2795"/>
</g>
<!-- GO:0043170 -->
<g id="node3" class="node">
<title>GO:0043170</title>
<polygon fill="#ffffff" stroke="#000000" points="343.7533,-222.2014 182.7489,-222.2014 182.7489,-163.3986 343.7533,-163.3986 343.7533,-222.2014"/>
<text text-anchor="middle" x="263.2511" y="-205.4" font-family="Times,serif" font-size="14.00" fill="#000000">GO:0043170</text>
<text text-anchor="middle" x="263.2511" y="-188.6" font-family="Times,serif" font-size="14.00" fill="#000000">macromolecule metabolic</text>
<text text-anchor="middle" x="263.2511" y="-171.8" font-family="Times,serif" font-size="14.00" fill="#000000">process</text>
</g>
<!-- GO:0019538&#45;&gt;GO:0043170 -->
<g id="edge2" class="edge">
<title>GO:0019538&#45;&gt;GO:0043170</title>
<path fill="none" stroke="#000000" d="M193.225,-119.3504C203.4318,-130.0562 216.1573,-143.4038 227.9498,-155.7729"/>
<polygon fill="#000000" stroke="#000000" points="225.7073,-158.4929 235.1409,-163.3155 230.7737,-153.6626 225.7073,-158.4929"/>
</g>
<!-- GO:0008152 -->
<g id="node4" class="node">
<title>GO:0008152</title>
<polygon fill="#ffffff" stroke="#000000" points="317.4367,-402.2019 201.0655,-402.2019 201.0655,-360.9981 317.4367,-360.9981 317.4367,-402.2019"/>
<text text-anchor="middle" x="259.2511" y="-385.8" font-family="Times,serif" font-size="14.00" fill="#000000">GO:0008152</text>
<text text-anchor="middle" x="259.2511" y="-369" font-family="Times,serif" font-size="14.00" fill="#000000">metabolic process</text>
</g>
<!-- GO:0044238&#45;&gt;GO:0008152 -->
<g id="edge3" class="edge">
<title>GO:0044238&#45;&gt;GO:0008152</title>
<path fill="none" stroke="#000000" d="M97.6298,-213.4087C118.0207,-240.2074 155.7038,-287.9424 192.2511,-324.8 202.2619,-334.8958 213.8678,-345.1718 224.579,-354.1577"/>
<polygon fill="#000000" stroke="#000000" points="222.6176,-357.0774 232.5543,-360.7533 227.0787,-351.6831 222.6176,-357.0774"/>
</g>
<!-- GO:0071704 -->
<g id="node5" class="node">
<title>GO:0071704</title>
<polygon fill="#ffffff" stroke="#000000" points="317.4367,-325.0014 201.0655,-325.0014 201.0655,-266.1986 317.4367,-266.1986 317.4367,-325.0014"/>
<text text-anchor="middle" x="259.2511" y="-308.2" font-family="Times,serif" font-size="14.00" fill="#000000">GO:0071704</text>
<text text-anchor="middle" x="259.2511" y="-291.4" font-family="Times,serif" font-size="14.00" fill="#000000">organic substance</text>
<text text-anchor="middle" x="259.2511" y="-274.6" font-family="Times,serif" font-size="14.00" fill="#000000">metabolic process</text>
</g>
<!-- GO:0043170&#45;&gt;GO:0071704 -->
<g id="edge4" class="edge">
<title>GO:0043170&#45;&gt;GO:0071704</title>
<path fill="none" stroke="#000000" d="M262.1049,-222.2584C261.6948,-232.7969 261.2258,-244.8505 260.7881,-256.0994"/>
<polygon fill="#000000" stroke="#000000" points="257.2891,-256.0088 260.3975,-266.1373 264.2838,-256.281 257.2891,-256.0088"/>
</g>
<!-- GO:0008150 -->
<g id="node6" class="node">
<title>GO:0008150</title>
<polygon fill="#ffffff" stroke="#000000" points="479.7217,-479.8019 358.7805,-479.8019 358.7805,-438.5981 479.7217,-438.5981 479.7217,-479.8019"/>
<text text-anchor="middle" x="419.2511" y="-463.4" font-family="Times,serif" font-size="14.00" fill="#000000">GO:0008150</text>
<text text-anchor="middle" x="419.2511" y="-446.6" font-family="Times,serif" font-size="14.00" fill="#000000">biological_process</text>
</g>
<!-- GO:0008152&#45;&gt;GO:0008150 -->
<g id="edge5" class="edge">
<title>GO:0008152&#45;&gt;GO:0008150</title>
<path fill="none" stroke="#000000" d="M302.1282,-402.3954C322.206,-412.1331 346.2923,-423.815 367.3874,-434.0461"/>
<polygon fill="#000000" stroke="#000000" points="366.0084,-437.2672 376.5333,-438.4819 369.0631,-430.9688 366.0084,-437.2672"/>
</g>
<!-- GO:0071704&#45;&gt;GO:0008152 -->
<g id="edge6" class="edge">
<title>GO:0071704&#45;&gt;GO:0008152</title>
<path fill="none" stroke="#000000" d="M259.2511,-325.1963C259.2511,-333.4638 259.2511,-342.4657 259.2511,-350.8008"/>
<polygon fill="#000000" stroke="#000000" points="255.7512,-350.8965 259.2511,-360.8966 262.7512,-350.8966 255.7512,-350.8965"/>
</g>
<!-- GO:0019058 -->
<g id="node7" class="node">
<title>GO:0019058</title>
<polygon fill="#ffffff" stroke="#000000" points="560.5984,-41.4019 463.9038,-41.4019 463.9038,-.1981 560.5984,-.1981 560.5984,-41.4019"/>
<text text-anchor="middle" x="512.2511" y="-25" font-family="Times,serif" font-size="14.00" fill="#000000">GO:0019058</text>
<text text-anchor="middle" x="512.2511" y="-8.2" font-family="Times,serif" font-size="14.00" fill="#000000">viral life cycle</text>
</g>
<!-- GO:0016032 -->
<g id="node8" class="node">
<title>GO:0016032</title>
<polygon fill="#ffffff" stroke="#000000" points="556.855,-119.0019 467.6472,-119.0019 467.6472,-77.7981 556.855,-77.7981 556.855,-119.0019"/>
<text text-anchor="middle" x="512.2511" y="-102.6" font-family="Times,serif" font-size="14.00" fill="#000000">GO:0016032</text>
<text text-anchor="middle" x="512.2511" y="-85.8" font-family="Times,serif" font-size="14.00" fill="#000000">viral process</text>
</g>
<!-- GO:0019058&#45;&gt;GO:0016032 -->
<g id="edge7" class="edge">
<title>GO:0019058&#45;&gt;GO:0016032</title>
<path fill="none" stroke="#000000" d="M512.2511,-41.5954C512.2511,-49.5109 512.2511,-58.7109 512.2511,-67.3722"/>
<polygon fill="#000000" stroke="#000000" points="508.7512,-67.5472 512.2511,-77.5472 515.7512,-67.5473 508.7512,-67.5472"/>
</g>
<!-- GO:0044403 -->
<g id="node9" class="node">
<title>GO:0044403</title>
<polygon fill="#ffffff" stroke="#000000" points="534.5712,-230.5003 375.931,-230.5003 375.931,-155.0997 534.5712,-155.0997 534.5712,-230.5003"/>
<text text-anchor="middle" x="455.2511" y="-213.8" font-family="Times,serif" font-size="14.00" fill="#000000">GO:0044403</text>
<text text-anchor="middle" x="455.2511" y="-197" font-family="Times,serif" font-size="14.00" fill="#000000">symbiosis, encompassing</text>
<text text-anchor="middle" x="455.2511" y="-180.2" font-family="Times,serif" font-size="14.00" fill="#000000">mutualism through</text>
<text text-anchor="middle" x="455.2511" y="-163.4" font-family="Times,serif" font-size="14.00" fill="#000000">parasitism</text>
</g>
<!-- GO:0016032&#45;&gt;GO:0044403 -->
<g id="edge8" class="edge">
<title>GO:0016032&#45;&gt;GO:0044403</title>
<path fill="none" stroke="#000000" d="M499.601,-119.3504C494.7294,-127.4184 488.9519,-136.9867 483.2041,-146.5059"/>
<polygon fill="#000000" stroke="#000000" points="480.1335,-144.82 477.9607,-155.1897 486.1259,-148.4383 480.1335,-144.82"/>
</g>
<!-- GO:0044764 -->
<g id="node10" class="node">
<title>GO:0044764</title>
<polygon fill="#ffffff" stroke="#000000" points="647.0514,-325.0014 499.4508,-325.0014 499.4508,-266.1986 647.0514,-266.1986 647.0514,-325.0014"/>
<text text-anchor="middle" x="573.2511" y="-308.2" font-family="Times,serif" font-size="14.00" fill="#000000">GO:0044764</text>
<text text-anchor="middle" x="573.2511" y="-291.4" font-family="Times,serif" font-size="14.00" fill="#000000">multi&#45;organism cellular</text>
<text text-anchor="middle" x="573.2511" y="-274.6" font-family="Times,serif" font-size="14.00" fill="#000000">process</text>
</g>
<!-- GO:0016032&#45;&gt;GO:0044764 -->
<g id="edge9" class="edge">
<title>GO:0016032&#45;&gt;GO:0044764</title>
<path fill="none" stroke="#000000" d="M525.3902,-119.0207C531.5784,-129.5105 538.6036,-142.6651 543.2511,-155.2 555.4829,-188.1909 563.3469,-227.4889 567.9409,-256.1068"/>
<polygon fill="#000000" stroke="#000000" points="564.5041,-256.7859 569.4875,-266.1356 571.4224,-255.7189 564.5041,-256.7859"/>
</g>
<!-- GO:0044419 -->
<g id="node11" class="node">
<title>GO:0044419</title>
<polygon fill="#ffffff" stroke="#000000" points="481.1986,-325.0014 335.3036,-325.0014 335.3036,-266.1986 481.1986,-266.1986 481.1986,-325.0014"/>
<text text-anchor="middle" x="408.2511" y="-308.2" font-family="Times,serif" font-size="14.00" fill="#000000">GO:0044419</text>
<text text-anchor="middle" x="408.2511" y="-291.4" font-family="Times,serif" font-size="14.00" fill="#000000">interspecies interaction</text>
<text text-anchor="middle" x="408.2511" y="-274.6" font-family="Times,serif" font-size="14.00" fill="#000000">between organisms</text>
</g>
<!-- GO:0044403&#45;&gt;GO:0044419 -->
<g id="edge10" class="edge">
<title>GO:0044403&#45;&gt;GO:0044419</title>
<path fill="none" stroke="#000000" d="M438.0169,-230.4952C434.0535,-239.164 429.8336,-248.394 425.8548,-257.0966"/>
<polygon fill="#000000" stroke="#000000" points="422.6305,-255.7315 421.6555,-266.2814 428.9967,-258.6421 422.6305,-255.7315"/>
</g>
<!-- GO:0009987 -->
<g id="node12" class="node">
<title>GO:0009987</title>
<polygon fill="#ffffff" stroke="#000000" points="620.2073,-402.2019 516.2949,-402.2019 516.2949,-360.9981 620.2073,-360.9981 620.2073,-402.2019"/>
<text text-anchor="middle" x="568.2511" y="-385.8" font-family="Times,serif" font-size="14.00" fill="#000000">GO:0009987</text>
<text text-anchor="middle" x="568.2511" y="-369" font-family="Times,serif" font-size="14.00" fill="#000000">cellular process</text>
</g>
<!-- GO:0044764&#45;&gt;GO:0009987 -->
<g id="edge11" class="edge">
<title>GO:0044764&#45;&gt;GO:0009987</title>
<path fill="none" stroke="#000000" d="M571.5304,-325.1963C571.0497,-333.4638 570.5263,-342.4657 570.0417,-350.8008"/>
<polygon fill="#000000" stroke="#000000" points="566.5412,-350.7102 569.4548,-360.8966 573.5294,-351.1166 566.5412,-350.7102"/>
</g>
<!-- GO:0051704 -->
<g id="node13" class="node">
<title>GO:0051704</title>
<polygon fill="#ffffff" stroke="#000000" points="493.0542,-402.2019 345.448,-402.2019 345.448,-360.9981 493.0542,-360.9981 493.0542,-402.2019"/>
<text text-anchor="middle" x="419.2511" y="-385.8" font-family="Times,serif" font-size="14.00" fill="#000000">GO:0051704</text>
<text text-anchor="middle" x="419.2511" y="-369" font-family="Times,serif" font-size="14.00" fill="#000000">multi&#45;organism process</text>
</g>
<!-- GO:0044764&#45;&gt;GO:0051704 -->
<g id="edge12" class="edge">
<title>GO:0044764&#45;&gt;GO:0051704</title>
<path fill="none" stroke="#000000" d="M520.6838,-324.9558C502.7273,-334.9834 482.7933,-346.1154 465.3826,-355.8383"/>
<polygon fill="#000000" stroke="#000000" points="463.5561,-352.8494 456.5317,-360.7809 466.9691,-358.961 463.5561,-352.8494"/>
</g>
<!-- GO:0044419&#45;&gt;GO:0051704 -->
<g id="edge13" class="edge">
<title>GO:0044419&#45;&gt;GO:0051704</title>
<path fill="none" stroke="#000000" d="M412.0367,-325.1963C413.0941,-333.4638 414.2456,-342.4657 415.3117,-350.8008"/>
<polygon fill="#000000" stroke="#000000" points="411.8624,-351.4214 416.603,-360.8966 418.8059,-350.5333 411.8624,-351.4214"/>
</g>
<!-- GO:0009987&#45;&gt;GO:0008150 -->
<g id="edge14" class="edge">
<title>GO:0009987&#45;&gt;GO:0008150</title>
<path fill="none" stroke="#000000" d="M528.3218,-402.3954C509.792,-412.0458 487.596,-423.6056 468.0784,-433.7705"/>
<polygon fill="#000000" stroke="#000000" points="466.2845,-430.7584 459.032,-438.4819 469.518,-436.9669 466.2845,-430.7584"/>
</g>
<!-- GO:0051704&#45;&gt;GO:0008150 -->
<g id="edge15" class="edge">
<title>GO:0051704&#45;&gt;GO:0008150</title>
<path fill="none" stroke="#000000" d="M419.2511,-402.3954C419.2511,-410.3109 419.2511,-419.5109 419.2511,-428.1722"/>
<polygon fill="#000000" stroke="#000000" points="415.7512,-428.3472 419.2511,-438.3472 422.7512,-428.3473 415.7512,-428.3472"/>
</g>
</g>
</svg>
