<?xml version="1.0" encoding="UTF-8" standalone="no"?>
<!DOCTYPE svg PUBLIC "-//W3C//DTD SVG 1.1//EN"
 "http://www.w3.org/Graphics/SVG/1.1/DTD/svg11.dtd">
<!-- Generated by graphviz version 2.40.1 (20161225.0304)
 -->
<!-- Title: G Pages: 1 -->
<svg width="269pt" height="566pt"
 viewBox="0.00 0.00 269.03 565.60" xmlns="http://www.w3.org/2000/svg" xmlns:xlink="http://www.w3.org/1999/xlink">
<g id="graph0" class="graph" transform="scale(1 1) rotate(0) translate(4 561.6)">
<title>G</title>
<polygon fill="#ffffff" stroke="transparent" points="-4,4 -4,-561.6 265.026,-561.6 265.026,4 -4,4"/>
<!-- GO:0030430 -->
<g id="node1" class="node">
<title>GO:0030430</title>
<polygon fill="#ffffff" stroke="#000000" points="124.1368,-238.6019 -.0456,-238.6019 -.0456,-197.3981 124.1368,-197.3981 124.1368,-238.6019"/>
<text text-anchor="middle" x="62.0456" y="-222.2" font-family="Times,serif" font-size="14.00" fill="#000000">GO:0030430</text>
<text text-anchor="middle" x="62.0456" y="-205.4" font-family="Times,serif" font-size="14.00" fill="#000000">host cell cytoplasm</text>
</g>
<!-- GO:0033646 -->
<g id="node2" class="node">
<title>GO:0033646</title>
<polygon fill="#ffffff" stroke="#000000" points="196.7795,-324.6019 61.3117,-324.6019 61.3117,-283.3981 196.7795,-283.3981 196.7795,-324.6019"/>
<text text-anchor="middle" x="129.0456" y="-308.2" font-family="Times,serif" font-size="14.00" fill="#000000">GO:0033646</text>
<text text-anchor="middle" x="129.0456" y="-291.4" font-family="Times,serif" font-size="14.00" fill="#000000">host intracellular part</text>
</g>
<!-- GO:0030430&#45;&gt;GO:0033646 -->
<g id="edge1" class="edge">
<title>GO:0030430&#45;&gt;GO:0033646</title>
<path fill="none" stroke="#000000" d="M78.2644,-238.8182C86.8234,-249.8043 97.4548,-263.4506 106.7748,-275.4137"/>
<polygon fill="#000000" stroke="#000000" points="104.0693,-277.6359 112.9761,-283.3735 109.5913,-273.3339 104.0693,-277.6359"/>
</g>
<!-- GO:0033643 -->
<g id="node3" class="node">
<title>GO:0033643</title>
<polygon fill="#ffffff" stroke="#000000" points="173.6495,-402.2019 84.4417,-402.2019 84.4417,-360.9981 173.6495,-360.9981 173.6495,-402.2019"/>
<text text-anchor="middle" x="129.0456" y="-385.8" font-family="Times,serif" font-size="14.00" fill="#000000">GO:0033643</text>
<text text-anchor="middle" x="129.0456" y="-369" font-family="Times,serif" font-size="14.00" fill="#000000">host cell part</text>
</g>
<!-- GO:0033646&#45;&gt;GO:0033643 -->
<g id="edge2" class="edge">
<title>GO:0033646&#45;&gt;GO:0033643</title>
<path fill="none" stroke="#000000" d="M129.0456,-324.7954C129.0456,-332.7109 129.0456,-341.9109 129.0456,-350.5722"/>
<polygon fill="#000000" stroke="#000000" points="125.5457,-350.7472 129.0456,-360.7472 132.5457,-350.7473 125.5457,-350.7472"/>
</g>
<!-- GO:0044217 -->
<g id="node4" class="node">
<title>GO:0044217</title>
<polygon fill="#ffffff" stroke="#000000" points="191.6787,-479.8019 66.4125,-479.8019 66.4125,-438.5981 191.6787,-438.5981 191.6787,-479.8019"/>
<text text-anchor="middle" x="129.0456" y="-463.4" font-family="Times,serif" font-size="14.00" fill="#000000">GO:0044217</text>
<text text-anchor="middle" x="129.0456" y="-446.6" font-family="Times,serif" font-size="14.00" fill="#000000">other organism part</text>
</g>
<!-- GO:0033643&#45;&gt;GO:0044217 -->
<g id="edge3" class="edge">
<title>GO:0033643&#45;&gt;GO:0044217</title>
<path fill="none" stroke="#000000" d="M129.0456,-402.3954C129.0456,-410.3109 129.0456,-419.5109 129.0456,-428.1722"/>
<polygon fill="#000000" stroke="#000000" points="125.5457,-428.3472 129.0456,-438.3472 132.5457,-428.3473 125.5457,-428.3472"/>
</g>
<!-- GO:0005575 -->
<g id="node5" class="node">
<title>GO:0005575</title>
<polygon fill="#ffffff" stroke="#000000" points="192.7323,-557.4019 65.3589,-557.4019 65.3589,-516.1981 192.7323,-516.1981 192.7323,-557.4019"/>
<text text-anchor="middle" x="129.0456" y="-541" font-family="Times,serif" font-size="14.00" fill="#000000">GO:0005575</text>
<text text-anchor="middle" x="129.0456" y="-524.2" font-family="Times,serif" font-size="14.00" fill="#000000">cellular_component</text>
</g>
<!-- GO:0044217&#45;&gt;GO:0005575 -->
<g id="edge4" class="edge">
<title>GO:0044217&#45;&gt;GO:0005575</title>
<path fill="none" stroke="#000000" d="M129.0456,-479.9954C129.0456,-487.9109 129.0456,-497.1109 129.0456,-505.7722"/>
<polygon fill="#000000" stroke="#000000" points="125.5457,-505.9472 129.0456,-515.9472 132.5457,-505.9473 125.5457,-505.9472"/>
</g>
<!-- GO:0042025 -->
<g id="node6" class="node">
<title>GO:0042025</title>
<polygon fill="#ffffff" stroke="#000000" points="251.856,-41.4019 142.2352,-41.4019 142.2352,-.1981 251.856,-.1981 251.856,-41.4019"/>
<text text-anchor="middle" x="197.0456" y="-25" font-family="Times,serif" font-size="14.00" fill="#000000">GO:0042025</text>
<text text-anchor="middle" x="197.0456" y="-8.2" font-family="Times,serif" font-size="14.00" fill="#000000">host cell nucleus</text>
</g>
<!-- GO:0033648 -->
<g id="node7" class="node">
<title>GO:0033648</title>
<polygon fill="#ffffff" stroke="#000000" points="261.0064,-152.9003 133.0848,-152.9003 133.0848,-77.4997 261.0064,-77.4997 261.0064,-152.9003"/>
<text text-anchor="middle" x="197.0456" y="-136.2" font-family="Times,serif" font-size="14.00" fill="#000000">GO:0033648</text>
<text text-anchor="middle" x="197.0456" y="-119.4" font-family="Times,serif" font-size="14.00" fill="#000000">host intracellular</text>
<text text-anchor="middle" x="197.0456" y="-102.6" font-family="Times,serif" font-size="14.00" fill="#000000">membrane&#45;bounded</text>
<text text-anchor="middle" x="197.0456" y="-85.8" font-family="Times,serif" font-size="14.00" fill="#000000">organelle</text>
</g>
<!-- GO:0042025&#45;&gt;GO:0033648 -->
<g id="edge5" class="edge">
<title>GO:0042025&#45;&gt;GO:0033648</title>
<path fill="none" stroke="#000000" d="M197.0456,-41.7504C197.0456,-49.4068 197.0456,-58.4143 197.0456,-67.4487"/>
<polygon fill="#000000" stroke="#000000" points="193.5457,-67.5897 197.0456,-77.5897 200.5457,-67.5897 193.5457,-67.5897"/>
</g>
<!-- GO:0033647 -->
<g id="node8" class="node">
<title>GO:0033647</title>
<polygon fill="#ffffff" stroke="#000000" points="252.5144,-247.4014 141.5768,-247.4014 141.5768,-188.5986 252.5144,-188.5986 252.5144,-247.4014"/>
<text text-anchor="middle" x="197.0456" y="-230.6" font-family="Times,serif" font-size="14.00" fill="#000000">GO:0033647</text>
<text text-anchor="middle" x="197.0456" y="-213.8" font-family="Times,serif" font-size="14.00" fill="#000000">host intracellular</text>
<text text-anchor="middle" x="197.0456" y="-197" font-family="Times,serif" font-size="14.00" fill="#000000">organelle</text>
</g>
<!-- GO:0033648&#45;&gt;GO:0033647 -->
<g id="edge6" class="edge">
<title>GO:0033648&#45;&gt;GO:0033647</title>
<path fill="none" stroke="#000000" d="M197.0456,-152.8952C197.0456,-161.2874 197.0456,-170.2054 197.0456,-178.6618"/>
<polygon fill="#000000" stroke="#000000" points="193.5457,-178.6813 197.0456,-188.6814 200.5457,-178.6814 193.5457,-178.6813"/>
</g>
<!-- GO:0033647&#45;&gt;GO:0033646 -->
<g id="edge7" class="edge">
<title>GO:0033647&#45;&gt;GO:0033646</title>
<path fill="none" stroke="#000000" d="M173.6439,-247.5963C166.5257,-256.5986 158.719,-266.4719 151.6542,-275.4067"/>
<polygon fill="#000000" stroke="#000000" points="148.8727,-273.2815 145.4158,-283.2966 154.3636,-277.6232 148.8727,-273.2815"/>
</g>
</g>
</svg>
