<?xml version="1.0" encoding="UTF-8" standalone="no"?>
<!DOCTYPE svg PUBLIC "-//W3C//DTD SVG 1.1//EN"
 "http://www.w3.org/Graphics/SVG/1.1/DTD/svg11.dtd">
<!-- Generated by graphviz version 2.40.1 (20161225.0304)
 -->
<!-- Title: G Pages: 1 -->
<svg width="354pt" height="394pt"
 viewBox="0.00 0.00 353.83 393.60" xmlns="http://www.w3.org/2000/svg" xmlns:xlink="http://www.w3.org/1999/xlink">
<g id="graph0" class="graph" transform="scale(1 1) rotate(0) translate(4 389.6)">
<title>G</title>
<polygon fill="#ffffff" stroke="transparent" points="-4,4 -4,-389.6 349.8349,-389.6 349.8349,4 -4,4"/>
<!-- GO:0005829 -->
<g id="node1" class="node">
<title>GO:0005829</title>
<polygon fill="#00ff00" stroke="#000000" points="99.0622,-41.4019 9.8544,-41.4019 9.8544,-.1981 99.0622,-.1981 99.0622,-41.4019"/>
<text text-anchor="middle" x="54.4583" y="-25" font-family="Times,serif" font-size="14.00" fill="#000000">GO:0005829</text>
<text text-anchor="middle" x="54.4583" y="-8.2" font-family="Times,serif" font-size="14.00" fill="#000000">cytosol</text>
</g>
<!-- GO:0044444 -->
<g id="node2" class="node">
<title>GO:0044444</title>
<polygon fill="#ffffff" stroke="#000000" points="108.8749,-127.4019 .0417,-127.4019 .0417,-86.1981 108.8749,-86.1981 108.8749,-127.4019"/>
<text text-anchor="middle" x="54.4583" y="-111" font-family="Times,serif" font-size="14.00" fill="#000000">GO:0044444</text>
<text text-anchor="middle" x="54.4583" y="-94.2" font-family="Times,serif" font-size="14.00" fill="#000000">cytoplasmic part</text>
</g>
<!-- GO:0005829&#45;&gt;GO:0044444 -->
<g id="edge1" class="edge">
<title>GO:0005829&#45;&gt;GO:0044444</title>
<path fill="none" stroke="#000000" d="M54.4583,-41.6182C54.4583,-51.9705 54.4583,-64.6848 54.4583,-76.1271"/>
<polygon fill="#000000" stroke="#000000" points="50.9584,-76.1735 54.4583,-86.1735 57.9584,-76.1735 50.9584,-76.1735"/>
</g>
<!-- GO:0044424 -->
<g id="node3" class="node">
<title>GO:0044424</title>
<polygon fill="#ffffff" stroke="#000000" points="108.8567,-221.8019 .0599,-221.8019 .0599,-180.5981 108.8567,-180.5981 108.8567,-221.8019"/>
<text text-anchor="middle" x="54.4583" y="-205.4" font-family="Times,serif" font-size="14.00" fill="#000000">GO:0044424</text>
<text text-anchor="middle" x="54.4583" y="-188.6" font-family="Times,serif" font-size="14.00" fill="#000000">intracellular part</text>
</g>
<!-- GO:0044444&#45;&gt;GO:0044424 -->
<g id="edge2" class="edge">
<title>GO:0044444&#45;&gt;GO:0044424</title>
<path fill="none" stroke="#000000" d="M54.4583,-127.7504C54.4583,-140.2165 54.4583,-156.2645 54.4583,-170.1786"/>
<polygon fill="#000000" stroke="#000000" points="50.9584,-170.3081 54.4583,-180.3081 57.9584,-170.3082 50.9584,-170.3081"/>
</g>
<!-- GO:0044464 -->
<g id="node4" class="node">
<title>GO:0044464</title>
<polygon fill="#ffa500" stroke="#000000" points="99.0622,-307.8019 9.8544,-307.8019 9.8544,-266.5981 99.0622,-266.5981 99.0622,-307.8019"/>
<text text-anchor="middle" x="54.4583" y="-291.4" font-family="Times,serif" font-size="14.00" fill="#000000">GO:0044464</text>
<text text-anchor="middle" x="54.4583" y="-274.6" font-family="Times,serif" font-size="14.00" fill="#000000">cell part</text>
</g>
<!-- GO:0044424&#45;&gt;GO:0044464 -->
<g id="edge3" class="edge">
<title>GO:0044424&#45;&gt;GO:0044464</title>
<path fill="none" stroke="#000000" d="M54.4583,-222.0182C54.4583,-232.3705 54.4583,-245.0848 54.4583,-256.5271"/>
<polygon fill="#000000" stroke="#000000" points="50.9584,-256.5735 54.4583,-266.5735 57.9584,-256.5735 50.9584,-256.5735"/>
</g>
<!-- GO:0005575 -->
<g id="node5" class="node">
<title>GO:0005575</title>
<polygon fill="#ffffff" stroke="#000000" points="225.145,-385.4019 97.7716,-385.4019 97.7716,-344.1981 225.145,-344.1981 225.145,-385.4019"/>
<text text-anchor="middle" x="161.4583" y="-369" font-family="Times,serif" font-size="14.00" fill="#000000">GO:0005575</text>
<text text-anchor="middle" x="161.4583" y="-352.2" font-family="Times,serif" font-size="14.00" fill="#000000">cellular_component</text>
</g>
<!-- GO:0044464&#45;&gt;GO:0005575 -->
<g id="edge4" class="edge">
<title>GO:0044464&#45;&gt;GO:0005575</title>
<path fill="none" stroke="#000000" d="M83.1323,-307.9954C95.8458,-317.2156 110.9626,-328.1788 124.509,-338.0031"/>
<polygon fill="#000000" stroke="#000000" points="122.5551,-340.9096 132.7051,-343.9472 126.6647,-335.2429 122.5551,-340.9096"/>
</g>
<!-- GO:0016020 -->
<g id="node6" class="node">
<title>GO:0016020</title>
<polygon fill="#ff00ff" stroke="#000000" points="206.0622,-307.8019 116.8544,-307.8019 116.8544,-266.5981 206.0622,-266.5981 206.0622,-307.8019"/>
<text text-anchor="middle" x="161.4583" y="-291.4" font-family="Times,serif" font-size="14.00" fill="#000000">GO:0016020</text>
<text text-anchor="middle" x="161.4583" y="-274.6" font-family="Times,serif" font-size="14.00" fill="#000000">membrane</text>
</g>
<!-- GO:0016020&#45;&gt;GO:0005575 -->
<g id="edge5" class="edge">
<title>GO:0016020&#45;&gt;GO:0005575</title>
<path fill="none" stroke="#000000" d="M161.4583,-307.9954C161.4583,-315.9109 161.4583,-325.1109 161.4583,-333.7722"/>
<polygon fill="#000000" stroke="#000000" points="157.9584,-333.9472 161.4583,-343.9472 164.9584,-333.9473 157.9584,-333.9472"/>
</g>
<!-- GO:0044425 -->
<g id="node7" class="node">
<title>GO:0044425</title>
<polygon fill="#ff00ff" stroke="#000000" points="324.8103,-307.8019 224.1063,-307.8019 224.1063,-266.5981 324.8103,-266.5981 324.8103,-307.8019"/>
<text text-anchor="middle" x="274.4583" y="-291.4" font-family="Times,serif" font-size="14.00" fill="#000000">GO:0044425</text>
<text text-anchor="middle" x="274.4583" y="-274.6" font-family="Times,serif" font-size="14.00" fill="#000000">membrane part</text>
</g>
<!-- GO:0044425&#45;&gt;GO:0005575 -->
<g id="edge6" class="edge">
<title>GO:0044425&#45;&gt;GO:0005575</title>
<path fill="none" stroke="#000000" d="M244.1764,-307.9954C230.6233,-317.3026 214.4841,-328.3858 200.0751,-338.2809"/>
<polygon fill="#000000" stroke="#000000" points="198.0859,-335.401 191.8238,-343.9472 202.0486,-341.1714 198.0859,-335.401"/>
</g>
<!-- GO:0016021 -->
<g id="node8" class="node">
<title>GO:0016021</title>
<polygon fill="#ff00ff" stroke="#000000" points="344.0914,-136.2014 204.8252,-136.2014 204.8252,-77.3986 344.0914,-77.3986 344.0914,-136.2014"/>
<text text-anchor="middle" x="274.4583" y="-119.4" font-family="Times,serif" font-size="14.00" fill="#000000">GO:0016021</text>
<text text-anchor="middle" x="274.4583" y="-102.6" font-family="Times,serif" font-size="14.00" fill="#000000">integral component of</text>
<text text-anchor="middle" x="274.4583" y="-85.8" font-family="Times,serif" font-size="14.00" fill="#000000">membrane</text>
</g>
<!-- GO:0031224 -->
<g id="node9" class="node">
<title>GO:0031224</title>
<polygon fill="#ffffff" stroke="#000000" points="345.7117,-230.6014 203.2049,-230.6014 203.2049,-171.7986 345.7117,-171.7986 345.7117,-230.6014"/>
<text text-anchor="middle" x="274.4583" y="-213.8" font-family="Times,serif" font-size="14.00" fill="#000000">GO:0031224</text>
<text text-anchor="middle" x="274.4583" y="-197" font-family="Times,serif" font-size="14.00" fill="#000000">intrinsic component of</text>
<text text-anchor="middle" x="274.4583" y="-180.2" font-family="Times,serif" font-size="14.00" fill="#000000">membrane</text>
</g>
<!-- GO:0016021&#45;&gt;GO:0031224 -->
<g id="edge7" class="edge">
<title>GO:0016021&#45;&gt;GO:0031224</title>
<path fill="none" stroke="#000000" d="M274.4583,-136.1513C274.4583,-144.2318 274.4583,-153.1308 274.4583,-161.6838"/>
<polygon fill="#000000" stroke="#000000" points="270.9584,-161.8668 274.4583,-171.8669 277.9584,-161.8669 270.9584,-161.8668"/>
</g>
<!-- GO:0031224&#45;&gt;GO:0044425 -->
<g id="edge8" class="edge">
<title>GO:0031224&#45;&gt;GO:0044425</title>
<path fill="none" stroke="#000000" d="M274.4583,-230.7963C274.4583,-239.0638 274.4583,-248.0657 274.4583,-256.4008"/>
<polygon fill="#000000" stroke="#000000" points="270.9584,-256.4965 274.4583,-266.4966 277.9584,-256.4966 270.9584,-256.4965"/>
</g>
</g>
</svg>
