<?xml version="1.0" encoding="UTF-8" standalone="no"?>
<!DOCTYPE svg PUBLIC "-//W3C//DTD SVG 1.1//EN"
 "http://www.w3.org/Graphics/SVG/1.1/DTD/svg11.dtd">
<!-- Generated by graphviz version 2.40.1 (20161225.0304)
 -->
<!-- Title: G Pages: 1 -->
<svg width="940pt" height="555pt"
 viewBox="0.00 0.00 940.41 555.20" xmlns="http://www.w3.org/2000/svg" xmlns:xlink="http://www.w3.org/1999/xlink">
<g id="graph0" class="graph" transform="scale(1 1) rotate(0) translate(4 551.2)">
<title>G</title>
<polygon fill="#ffffff" stroke="transparent" points="-4,4 -4,-551.2 936.4061,-551.2 936.4061,4 -4,4"/>
<!-- GO:0022891 -->
<g id="node1" class="node">
<title>GO:0022891</title>
<polygon fill="#ffffff" stroke="#000000" points="864.7753,-297.7003 697.9085,-297.7003 697.9085,-222.2997 864.7753,-222.2997 864.7753,-297.7003"/>
<text text-anchor="middle" x="781.3419" y="-281" font-family="Times,serif" font-size="14.00" fill="#000000">GO:0022891</text>
<text text-anchor="middle" x="781.3419" y="-264.2" font-family="Times,serif" font-size="14.00" fill="#000000">substrate&#45;specific</text>
<text text-anchor="middle" x="781.3419" y="-247.4" font-family="Times,serif" font-size="14.00" fill="#000000">transmembrane transporter</text>
<text text-anchor="middle" x="781.3419" y="-230.6" font-family="Times,serif" font-size="14.00" fill="#000000">activity</text>
</g>
<!-- GO:0022857 -->
<g id="node2" class="node">
<title>GO:0022857</title>
<polygon fill="#ffffff" stroke="#000000" points="792.7753,-392.2014 625.9085,-392.2014 625.9085,-333.3986 792.7753,-333.3986 792.7753,-392.2014"/>
<text text-anchor="middle" x="709.3419" y="-375.4" font-family="Times,serif" font-size="14.00" fill="#000000">GO:0022857</text>
<text text-anchor="middle" x="709.3419" y="-358.6" font-family="Times,serif" font-size="14.00" fill="#000000">transmembrane transporter</text>
<text text-anchor="middle" x="709.3419" y="-341.8" font-family="Times,serif" font-size="14.00" fill="#000000">activity</text>
</g>
<!-- GO:0022891&#45;&gt;GO:0022857 -->
<g id="edge1" class="edge">
<title>GO:0022891&#45;&gt;GO:0022857</title>
<path fill="none" stroke="#000000" d="M754.9406,-297.6952C748.6753,-306.6407 741.9915,-316.1837 735.7268,-325.1282"/>
<polygon fill="#000000" stroke="#000000" points="732.7464,-323.2826 729.8763,-333.4814 738.4799,-327.2984 732.7464,-323.2826"/>
</g>
<!-- GO:0022892 -->
<g id="node3" class="node">
<title>GO:0022892</title>
<polygon fill="#ffffff" stroke="#000000" points="932.4704,-392.2014 810.2134,-392.2014 810.2134,-333.3986 932.4704,-333.3986 932.4704,-392.2014"/>
<text text-anchor="middle" x="871.3419" y="-375.4" font-family="Times,serif" font-size="14.00" fill="#000000">GO:0022892</text>
<text text-anchor="middle" x="871.3419" y="-358.6" font-family="Times,serif" font-size="14.00" fill="#000000">substrate&#45;specific</text>
<text text-anchor="middle" x="871.3419" y="-341.8" font-family="Times,serif" font-size="14.00" fill="#000000">transporter activity</text>
</g>
<!-- GO:0022891&#45;&gt;GO:0022892 -->
<g id="edge2" class="edge">
<title>GO:0022891&#45;&gt;GO:0022892</title>
<path fill="none" stroke="#000000" d="M814.3435,-297.6952C822.4174,-306.9174 831.0472,-316.7745 839.0857,-325.9563"/>
<polygon fill="#000000" stroke="#000000" points="836.4533,-328.2629 845.6738,-333.4814 841.7201,-323.6519 836.4533,-328.2629"/>
</g>
<!-- GO:0005215 -->
<g id="node4" class="node">
<title>GO:0005215</title>
<polygon fill="#ffffff" stroke="#000000" points="770.4704,-469.4019 648.2134,-469.4019 648.2134,-428.1981 770.4704,-428.1981 770.4704,-469.4019"/>
<text text-anchor="middle" x="709.3419" y="-453" font-family="Times,serif" font-size="14.00" fill="#000000">GO:0005215</text>
<text text-anchor="middle" x="709.3419" y="-436.2" font-family="Times,serif" font-size="14.00" fill="#000000">transporter activity</text>
</g>
<!-- GO:0022857&#45;&gt;GO:0005215 -->
<g id="edge3" class="edge">
<title>GO:0022857&#45;&gt;GO:0005215</title>
<path fill="none" stroke="#000000" d="M709.3419,-392.3963C709.3419,-400.6638 709.3419,-409.6657 709.3419,-418.0008"/>
<polygon fill="#000000" stroke="#000000" points="705.842,-418.0965 709.3419,-428.0966 712.842,-418.0966 705.842,-418.0965"/>
</g>
<!-- GO:0022892&#45;&gt;GO:0005215 -->
<g id="edge4" class="edge">
<title>GO:0022892&#45;&gt;GO:0005215</title>
<path fill="none" stroke="#000000" d="M816.0438,-392.1558C796.9895,-402.271 775.8183,-413.51 757.3903,-423.2928"/>
<polygon fill="#000000" stroke="#000000" points="755.4998,-420.3337 748.3084,-428.1141 758.7821,-426.5165 755.4998,-420.3337"/>
</g>
<!-- GO:0003674 -->
<g id="node5" class="node">
<title>GO:0003674</title>
<polygon fill="#ffffff" stroke="#000000" points="612.975,-547.0019 487.7088,-547.0019 487.7088,-505.7981 612.975,-505.7981 612.975,-547.0019"/>
<text text-anchor="middle" x="550.3419" y="-530.6" font-family="Times,serif" font-size="14.00" fill="#000000">GO:0003674</text>
<text text-anchor="middle" x="550.3419" y="-513.8" font-family="Times,serif" font-size="14.00" fill="#000000">molecular_function</text>
</g>
<!-- GO:0005215&#45;&gt;GO:0003674 -->
<g id="edge5" class="edge">
<title>GO:0005215&#45;&gt;GO:0003674</title>
<path fill="none" stroke="#000000" d="M666.7328,-469.5954C646.7805,-479.3331 622.8447,-491.015 601.8814,-501.2461"/>
<polygon fill="#000000" stroke="#000000" points="600.2444,-498.1504 592.7927,-505.6819 603.3146,-504.4412 600.2444,-498.1504"/>
</g>
<!-- GO:0051536 -->
<g id="node6" class="node">
<title>GO:0051536</title>
<polygon fill="#ffffff" stroke="#000000" points="116.5261,-289.4014 .1577,-289.4014 .1577,-230.5986 116.5261,-230.5986 116.5261,-289.4014"/>
<text text-anchor="middle" x="58.3419" y="-272.6" font-family="Times,serif" font-size="14.00" fill="#000000">GO:0051536</text>
<text text-anchor="middle" x="58.3419" y="-255.8" font-family="Times,serif" font-size="14.00" fill="#000000">iron&#45;sulfur cluster</text>
<text text-anchor="middle" x="58.3419" y="-239" font-family="Times,serif" font-size="14.00" fill="#000000">binding</text>
</g>
<!-- GO:0051540 -->
<g id="node7" class="node">
<title>GO:0051540</title>
<polygon fill="#ffffff" stroke="#000000" points="141.5398,-383.4019 7.144,-383.4019 7.144,-342.1981 141.5398,-342.1981 141.5398,-383.4019"/>
<text text-anchor="middle" x="74.3419" y="-367" font-family="Times,serif" font-size="14.00" fill="#000000">GO:0051540</text>
<text text-anchor="middle" x="74.3419" y="-350.2" font-family="Times,serif" font-size="14.00" fill="#000000">metal cluster binding</text>
</g>
<!-- GO:0051536&#45;&gt;GO:0051540 -->
<g id="edge6" class="edge">
<title>GO:0051536&#45;&gt;GO:0051540</title>
<path fill="none" stroke="#000000" d="M62.9269,-289.4584C64.9962,-302.7539 67.4409,-318.4608 69.5359,-331.9212"/>
<polygon fill="#000000" stroke="#000000" points="66.1309,-332.8029 71.1272,-342.1456 73.0476,-331.7263 66.1309,-332.8029"/>
</g>
<!-- GO:0005488 -->
<g id="node8" class="node">
<title>GO:0005488</title>
<polygon fill="#ffffff" stroke="#000000" points="344.9458,-469.4019 255.738,-469.4019 255.738,-428.1981 344.9458,-428.1981 344.9458,-469.4019"/>
<text text-anchor="middle" x="300.3419" y="-453" font-family="Times,serif" font-size="14.00" fill="#000000">GO:0005488</text>
<text text-anchor="middle" x="300.3419" y="-436.2" font-family="Times,serif" font-size="14.00" fill="#000000">binding</text>
</g>
<!-- GO:0051540&#45;&gt;GO:0005488 -->
<g id="edge7" class="edge">
<title>GO:0051540&#45;&gt;GO:0005488</title>
<path fill="none" stroke="#000000" d="M128.7621,-383.5086C164.2201,-397.0015 210.3147,-414.5419 245.7975,-428.0442"/>
<polygon fill="#000000" stroke="#000000" points="244.9154,-431.4533 255.5064,-431.7387 247.405,-424.911 244.9154,-431.4533"/>
</g>
<!-- GO:0005488&#45;&gt;GO:0003674 -->
<g id="edge8" class="edge">
<title>GO:0005488&#45;&gt;GO:0003674</title>
<path fill="none" stroke="#000000" d="M345.0369,-462.6733C381.7808,-474.0786 434.579,-490.4672 477.4308,-503.7684"/>
<polygon fill="#000000" stroke="#000000" points="476.6632,-507.1948 487.2513,-506.8167 478.7384,-500.5095 476.6632,-507.1948"/>
</g>
<!-- GO:0016788 -->
<g id="node9" class="node">
<title>GO:0016788</title>
<polygon fill="#ffffff" stroke="#000000" points="625.4226,-289.4014 491.2612,-289.4014 491.2612,-230.5986 625.4226,-230.5986 625.4226,-289.4014"/>
<text text-anchor="middle" x="558.3419" y="-272.6" font-family="Times,serif" font-size="14.00" fill="#000000">GO:0016788</text>
<text text-anchor="middle" x="558.3419" y="-255.8" font-family="Times,serif" font-size="14.00" fill="#000000">hydrolase activity,</text>
<text text-anchor="middle" x="558.3419" y="-239" font-family="Times,serif" font-size="14.00" fill="#000000">acting on ester bonds</text>
</g>
<!-- GO:0016787 -->
<g id="node10" class="node">
<title>GO:0016787</title>
<polygon fill="#ffffff" stroke="#000000" points="608.2585,-383.4019 492.4253,-383.4019 492.4253,-342.1981 608.2585,-342.1981 608.2585,-383.4019"/>
<text text-anchor="middle" x="550.3419" y="-367" font-family="Times,serif" font-size="14.00" fill="#000000">GO:0016787</text>
<text text-anchor="middle" x="550.3419" y="-350.2" font-family="Times,serif" font-size="14.00" fill="#000000">hydrolase activity</text>
</g>
<!-- GO:0016788&#45;&gt;GO:0016787 -->
<g id="edge9" class="edge">
<title>GO:0016788&#45;&gt;GO:0016787</title>
<path fill="none" stroke="#000000" d="M556.0494,-289.4584C555.0147,-302.7539 553.7924,-318.4608 552.7449,-331.9212"/>
<polygon fill="#000000" stroke="#000000" points="549.2357,-331.9042 551.9492,-342.1456 556.2146,-332.4474 549.2357,-331.9042"/>
</g>
<!-- GO:0003824 -->
<g id="node11" class="node">
<title>GO:0003824</title>
<polygon fill="#ffffff" stroke="#000000" points="604.7543,-469.4019 495.9295,-469.4019 495.9295,-428.1981 604.7543,-428.1981 604.7543,-469.4019"/>
<text text-anchor="middle" x="550.3419" y="-453" font-family="Times,serif" font-size="14.00" fill="#000000">GO:0003824</text>
<text text-anchor="middle" x="550.3419" y="-436.2" font-family="Times,serif" font-size="14.00" fill="#000000">catalytic activity</text>
</g>
<!-- GO:0016787&#45;&gt;GO:0003824 -->
<g id="edge10" class="edge">
<title>GO:0016787&#45;&gt;GO:0003824</title>
<path fill="none" stroke="#000000" d="M550.3419,-383.6182C550.3419,-393.9705 550.3419,-406.6848 550.3419,-418.1271"/>
<polygon fill="#000000" stroke="#000000" points="546.842,-418.1735 550.3419,-428.1735 553.842,-418.1735 546.842,-418.1735"/>
</g>
<!-- GO:0003824&#45;&gt;GO:0003674 -->
<g id="edge11" class="edge">
<title>GO:0003824&#45;&gt;GO:0003674</title>
<path fill="none" stroke="#000000" d="M550.3419,-469.5954C550.3419,-477.5109 550.3419,-486.7109 550.3419,-495.3722"/>
<polygon fill="#000000" stroke="#000000" points="546.842,-495.5472 550.3419,-505.5472 553.842,-495.5473 546.842,-495.5472"/>
</g>
<!-- GO:0042802 -->
<g id="node12" class="node">
<title>GO:0042802</title>
<polygon fill="#ffffff" stroke="#000000" points="287.9861,-280.6019 134.6977,-280.6019 134.6977,-239.3981 287.9861,-239.3981 287.9861,-280.6019"/>
<text text-anchor="middle" x="211.3419" y="-264.2" font-family="Times,serif" font-size="14.00" fill="#000000">GO:0042802</text>
<text text-anchor="middle" x="211.3419" y="-247.4" font-family="Times,serif" font-size="14.00" fill="#000000">identical protein binding</text>
</g>
<!-- GO:0005515 -->
<g id="node13" class="node">
<title>GO:0005515</title>
<polygon fill="#ffffff" stroke="#000000" points="269.2795,-383.4019 167.4043,-383.4019 167.4043,-342.1981 269.2795,-342.1981 269.2795,-383.4019"/>
<text text-anchor="middle" x="218.3419" y="-367" font-family="Times,serif" font-size="14.00" fill="#000000">GO:0005515</text>
<text text-anchor="middle" x="218.3419" y="-350.2" font-family="Times,serif" font-size="14.00" fill="#000000">protein binding</text>
</g>
<!-- GO:0042802&#45;&gt;GO:0005515 -->
<g id="edge12" class="edge">
<title>GO:0042802&#45;&gt;GO:0005515</title>
<path fill="none" stroke="#000000" d="M212.7585,-280.8031C213.7547,-295.4337 215.105,-315.2642 216.2282,-331.7586"/>
<polygon fill="#000000" stroke="#000000" points="212.7561,-332.2887 216.9275,-342.0278 219.7399,-331.8131 212.7561,-332.2887"/>
</g>
<!-- GO:0005515&#45;&gt;GO:0005488 -->
<g id="edge13" class="edge">
<title>GO:0005515&#45;&gt;GO:0005488</title>
<path fill="none" stroke="#000000" d="M238.1918,-383.6182C248.8684,-394.8156 262.1799,-408.7764 273.7414,-420.9019"/>
<polygon fill="#000000" stroke="#000000" points="271.2409,-423.3514 280.6748,-428.1735 276.3071,-418.5208 271.2409,-423.3514"/>
</g>
<!-- GO:0043024 -->
<g id="node14" class="node">
<title>GO:0043024</title>
<polygon fill="#ffffff" stroke="#000000" points="464.391,-178.2014 314.2928,-178.2014 314.2928,-119.3986 464.391,-119.3986 464.391,-178.2014"/>
<text text-anchor="middle" x="389.3419" y="-161.4" font-family="Times,serif" font-size="14.00" fill="#000000">GO:0043024</text>
<text text-anchor="middle" x="389.3419" y="-144.6" font-family="Times,serif" font-size="14.00" fill="#000000">ribosomal small subunit</text>
<text text-anchor="middle" x="389.3419" y="-127.8" font-family="Times,serif" font-size="14.00" fill="#000000">binding</text>
</g>
<!-- GO:0043021 -->
<g id="node15" class="node">
<title>GO:0043021</title>
<polygon fill="#ffffff" stroke="#000000" points="473.0799,-289.4014 305.6039,-289.4014 305.6039,-230.5986 473.0799,-230.5986 473.0799,-289.4014"/>
<text text-anchor="middle" x="389.3419" y="-272.6" font-family="Times,serif" font-size="14.00" fill="#000000">GO:0043021</text>
<text text-anchor="middle" x="389.3419" y="-255.8" font-family="Times,serif" font-size="14.00" fill="#000000">ribonucleoprotein complex</text>
<text text-anchor="middle" x="389.3419" y="-239" font-family="Times,serif" font-size="14.00" fill="#000000">binding</text>
</g>
<!-- GO:0043024&#45;&gt;GO:0043021 -->
<g id="edge14" class="edge">
<title>GO:0043024&#45;&gt;GO:0043021</title>
<path fill="none" stroke="#000000" d="M389.3419,-178.0165C389.3419,-190.9386 389.3419,-206.3358 389.3419,-220.2788"/>
<polygon fill="#000000" stroke="#000000" points="385.842,-220.5925 389.3419,-230.5926 392.842,-220.5926 385.842,-220.5925"/>
</g>
<!-- GO:0044877 -->
<g id="node16" class="node">
<title>GO:0044877</title>
<polygon fill="#ffffff" stroke="#000000" points="460.5092,-392.2014 302.1746,-392.2014 302.1746,-333.3986 460.5092,-333.3986 460.5092,-392.2014"/>
<text text-anchor="middle" x="381.3419" y="-375.4" font-family="Times,serif" font-size="14.00" fill="#000000">GO:0044877</text>
<text text-anchor="middle" x="381.3419" y="-358.6" font-family="Times,serif" font-size="14.00" fill="#000000">macromolecular complex</text>
<text text-anchor="middle" x="381.3419" y="-341.8" font-family="Times,serif" font-size="14.00" fill="#000000">binding</text>
</g>
<!-- GO:0043021&#45;&gt;GO:0044877 -->
<g id="edge15" class="edge">
<title>GO:0043021&#45;&gt;GO:0044877</title>
<path fill="none" stroke="#000000" d="M387.0494,-289.4584C386.2293,-299.9969 385.2913,-312.0505 384.4159,-323.2994"/>
<polygon fill="#000000" stroke="#000000" points="380.9212,-323.0959 383.6347,-333.3373 387.9001,-323.6391 380.9212,-323.0959"/>
</g>
<!-- GO:0044877&#45;&gt;GO:0005488 -->
<g id="edge16" class="edge">
<title>GO:0044877&#45;&gt;GO:0005488</title>
<path fill="none" stroke="#000000" d="M353.4663,-392.3963C344.8143,-401.5824 335.3083,-411.6752 326.7586,-420.7526"/>
<polygon fill="#000000" stroke="#000000" points="324.1501,-418.4173 319.8417,-428.0966 329.2458,-423.2167 324.1501,-418.4173"/>
</g>
<!-- GO:0046943 -->
<g id="node17" class="node">
<title>GO:0046943</title>
<polygon fill="#ffffff" stroke="#000000" points="864.7753,-75.3003 697.9085,-75.3003 697.9085,.1003 864.7753,.1003 864.7753,-75.3003"/>
<text text-anchor="middle" x="781.3419" y="-58.6" font-family="Times,serif" font-size="14.00" fill="#000000">GO:0046943</text>
<text text-anchor="middle" x="781.3419" y="-41.8" font-family="Times,serif" font-size="14.00" fill="#000000">carboxylic acid</text>
<text text-anchor="middle" x="781.3419" y="-25" font-family="Times,serif" font-size="14.00" fill="#000000">transmembrane transporter</text>
<text text-anchor="middle" x="781.3419" y="-8.2" font-family="Times,serif" font-size="14.00" fill="#000000">activity</text>
</g>
<!-- GO:0005342 -->
<g id="node18" class="node">
<title>GO:0005342</title>
<polygon fill="#ffffff" stroke="#000000" points="864.7753,-186.5003 697.9085,-186.5003 697.9085,-111.0997 864.7753,-111.0997 864.7753,-186.5003"/>
<text text-anchor="middle" x="781.3419" y="-169.8" font-family="Times,serif" font-size="14.00" fill="#000000">GO:0005342</text>
<text text-anchor="middle" x="781.3419" y="-153" font-family="Times,serif" font-size="14.00" fill="#000000">organic acid</text>
<text text-anchor="middle" x="781.3419" y="-136.2" font-family="Times,serif" font-size="14.00" fill="#000000">transmembrane transporter</text>
<text text-anchor="middle" x="781.3419" y="-119.4" font-family="Times,serif" font-size="14.00" fill="#000000">activity</text>
</g>
<!-- GO:0046943&#45;&gt;GO:0005342 -->
<g id="edge17" class="edge">
<title>GO:0046943&#45;&gt;GO:0005342</title>
<path fill="none" stroke="#000000" d="M781.3419,-75.2472C781.3419,-83.58 781.3419,-92.5155 781.3419,-101.1863"/>
<polygon fill="#000000" stroke="#000000" points="777.842,-101.1915 781.3419,-111.1915 784.842,-101.1916 777.842,-101.1915"/>
</g>
<!-- GO:0005342&#45;&gt;GO:0022891 -->
<g id="edge18" class="edge">
<title>GO:0005342&#45;&gt;GO:0022891</title>
<path fill="none" stroke="#000000" d="M781.3419,-186.4472C781.3419,-194.78 781.3419,-203.7155 781.3419,-212.3863"/>
<polygon fill="#000000" stroke="#000000" points="777.842,-212.3915 781.3419,-222.3915 784.842,-212.3916 777.842,-212.3915"/>
</g>
</g>
</svg>
