<?xml version="1.0" encoding="UTF-8" standalone="no"?>
<!DOCTYPE svg PUBLIC "-//W3C//DTD SVG 1.1//EN"
 "http://www.w3.org/Graphics/SVG/1.1/DTD/svg11.dtd">
<!-- Generated by graphviz version 2.40.1 (20161225.0304)
 -->
<!-- Title: G Pages: 1 -->
<svg width="854pt" height="350pt"
 viewBox="0.00 0.00 853.71 349.60" xmlns="http://www.w3.org/2000/svg" xmlns:xlink="http://www.w3.org/1999/xlink">
<g id="graph0" class="graph" transform="scale(1 1) rotate(0) translate(4 345.6)">
<title>G</title>
<polygon fill="#ffffff" stroke="transparent" points="-4,4 -4,-345.6 849.7101,-345.6 849.7101,4 -4,4"/>
<!-- GO:0080090 -->
<g id="node1" class="node">
<title>GO:0080090</title>
<polygon fill="#ffffff" stroke="#000000" points="135.6091,-67.0014 .1301,-67.0014 .1301,-8.1986 135.6091,-8.1986 135.6091,-67.0014"/>
<text text-anchor="middle" x="67.8696" y="-50.2" font-family="Times,serif" font-size="14.00" fill="#000000">GO:0080090</text>
<text text-anchor="middle" x="67.8696" y="-33.4" font-family="Times,serif" font-size="14.00" fill="#000000">regulation of primary</text>
<text text-anchor="middle" x="67.8696" y="-16.6" font-family="Times,serif" font-size="14.00" fill="#000000">metabolic process</text>
</g>
<!-- GO:0019222 -->
<g id="node2" class="node">
<title>GO:0019222</title>
<polygon fill="#ffffff" stroke="#000000" points="315.9985,-169.8014 169.7407,-169.8014 169.7407,-110.9986 315.9985,-110.9986 315.9985,-169.8014"/>
<text text-anchor="middle" x="242.8696" y="-153" font-family="Times,serif" font-size="14.00" fill="#000000">GO:0019222</text>
<text text-anchor="middle" x="242.8696" y="-136.2" font-family="Times,serif" font-size="14.00" fill="#000000">regulation of metabolic</text>
<text text-anchor="middle" x="242.8696" y="-119.4" font-family="Times,serif" font-size="14.00" fill="#000000">process</text>
</g>
<!-- GO:0080090&#45;&gt;GO:0019222 -->
<g id="edge1" class="edge">
<title>GO:0080090&#45;&gt;GO:0019222</title>
<path fill="none" stroke="#000000" d="M118.0176,-67.0584C138.7009,-79.2084 162.8122,-93.372 184.3005,-105.9948"/>
<polygon fill="#000000" stroke="#000000" points="182.6219,-109.068 193.0171,-111.1152 186.1675,-103.0323 182.6219,-109.068"/>
</g>
<!-- GO:0065007 -->
<g id="node3" class="node">
<title>GO:0065007</title>
<polygon fill="#ff00ff" stroke="#000000" points="389.123,-255.4019 256.6162,-255.4019 256.6162,-214.1981 389.123,-214.1981 389.123,-255.4019"/>
<text text-anchor="middle" x="322.8696" y="-239" font-family="Times,serif" font-size="14.00" fill="#000000">GO:0065007</text>
<text text-anchor="middle" x="322.8696" y="-222.2" font-family="Times,serif" font-size="14.00" fill="#000000">biological regulation</text>
</g>
<!-- GO:0019222&#45;&gt;GO:0065007 -->
<g id="edge2" class="edge">
<title>GO:0019222&#45;&gt;GO:0065007</title>
<path fill="none" stroke="#000000" d="M267.7436,-169.7513C277.6567,-181.4488 289.0234,-194.8615 298.8501,-206.457"/>
<polygon fill="#000000" stroke="#000000" points="296.235,-208.7848 305.3704,-214.151 301.5753,-204.2592 296.235,-208.7848"/>
</g>
<!-- GO:0050789 -->
<g id="node4" class="node">
<title>GO:0050789</title>
<polygon fill="#ffffff" stroke="#000000" points="554.784,-264.2014 406.9552,-264.2014 406.9552,-205.3986 554.784,-205.3986 554.784,-264.2014"/>
<text text-anchor="middle" x="480.8696" y="-247.4" font-family="Times,serif" font-size="14.00" fill="#000000">GO:0050789</text>
<text text-anchor="middle" x="480.8696" y="-230.6" font-family="Times,serif" font-size="14.00" fill="#000000">regulation of biological</text>
<text text-anchor="middle" x="480.8696" y="-213.8" font-family="Times,serif" font-size="14.00" fill="#000000">process</text>
</g>
<!-- GO:0019222&#45;&gt;GO:0050789 -->
<g id="edge3" class="edge">
<title>GO:0019222&#45;&gt;GO:0050789</title>
<path fill="none" stroke="#000000" d="M316.2195,-169.4934C341.8862,-179.6738 370.8926,-191.1789 397.3293,-201.6647"/>
<polygon fill="#000000" stroke="#000000" points="396.356,-205.0439 406.942,-205.4775 398.9369,-198.537 396.356,-205.0439"/>
</g>
<!-- GO:0008150 -->
<g id="node5" class="node">
<title>GO:0008150</title>
<polygon fill="#ffffff" stroke="#000000" points="612.3402,-341.4019 491.399,-341.4019 491.399,-300.1981 612.3402,-300.1981 612.3402,-341.4019"/>
<text text-anchor="middle" x="551.8696" y="-325" font-family="Times,serif" font-size="14.00" fill="#000000">GO:0008150</text>
<text text-anchor="middle" x="551.8696" y="-308.2" font-family="Times,serif" font-size="14.00" fill="#000000">biological_process</text>
</g>
<!-- GO:0065007&#45;&gt;GO:0008150 -->
<g id="edge4" class="edge">
<title>GO:0065007&#45;&gt;GO:0008150</title>
<path fill="none" stroke="#000000" d="M375.6814,-255.4981C383.1232,-258.3748 390.6834,-261.2761 397.8696,-264 426.5923,-274.8873 458.4298,-286.6763 485.6669,-296.6774"/>
<polygon fill="#000000" stroke="#000000" points="484.5028,-299.9784 495.0965,-300.136 486.9133,-293.4065 484.5028,-299.9784"/>
</g>
<!-- GO:0050789&#45;&gt;GO:0008150 -->
<g id="edge5" class="edge">
<title>GO:0050789&#45;&gt;GO:0008150</title>
<path fill="none" stroke="#000000" d="M505.3038,-264.3963C512.7359,-273.3986 520.8871,-283.2719 528.2635,-292.2067"/>
<polygon fill="#000000" stroke="#000000" points="525.7116,-294.6133 534.7772,-300.0966 531.1097,-290.1567 525.7116,-294.6133"/>
</g>
<!-- GO:0060255 -->
<g id="node6" class="node">
<title>GO:0060255</title>
<polygon fill="#ffffff" stroke="#000000" points="314.3718,-75.3003 153.3674,-75.3003 153.3674,.1003 314.3718,.1003 314.3718,-75.3003"/>
<text text-anchor="middle" x="233.8696" y="-58.6" font-family="Times,serif" font-size="14.00" fill="#000000">GO:0060255</text>
<text text-anchor="middle" x="233.8696" y="-41.8" font-family="Times,serif" font-size="14.00" fill="#000000">regulation of</text>
<text text-anchor="middle" x="233.8696" y="-25" font-family="Times,serif" font-size="14.00" fill="#000000">macromolecule metabolic</text>
<text text-anchor="middle" x="233.8696" y="-8.2" font-family="Times,serif" font-size="14.00" fill="#000000">process</text>
</g>
<!-- GO:0060255&#45;&gt;GO:0019222 -->
<g id="edge6" class="edge">
<title>GO:0060255&#45;&gt;GO:0019222</title>
<path fill="none" stroke="#000000" d="M237.1698,-75.2952C237.9045,-83.6874 238.6852,-92.6054 239.4256,-101.0618"/>
<polygon fill="#000000" stroke="#000000" points="235.9439,-101.4248 240.3028,-111.0814 242.9172,-100.8142 235.9439,-101.4248"/>
</g>
<!-- GO:0009987 -->
<g id="node7" class="node">
<title>GO:0009987</title>
<polygon fill="#00ffff" stroke="#000000" points="675.8258,-255.4019 571.9134,-255.4019 571.9134,-214.1981 675.8258,-214.1981 675.8258,-255.4019"/>
<text text-anchor="middle" x="623.8696" y="-239" font-family="Times,serif" font-size="14.00" fill="#000000">GO:0009987</text>
<text text-anchor="middle" x="623.8696" y="-222.2" font-family="Times,serif" font-size="14.00" fill="#000000">cellular process</text>
</g>
<!-- GO:0009987&#45;&gt;GO:0008150 -->
<g id="edge7" class="edge">
<title>GO:0009987&#45;&gt;GO:0008150</title>
<path fill="none" stroke="#000000" d="M606.4404,-255.6182C597.2428,-266.6043 585.818,-280.2506 575.8024,-292.2137"/>
<polygon fill="#000000" stroke="#000000" points="572.874,-290.2591 569.1383,-300.1735 578.2413,-294.7527 572.874,-290.2591"/>
</g>
<!-- GO:0050794 -->
<g id="node8" class="node">
<title>GO:0050794</title>
<polygon fill="#ff00ff" stroke="#000000" points="624.7686,-169.8014 490.9706,-169.8014 490.9706,-110.9986 624.7686,-110.9986 624.7686,-169.8014"/>
<text text-anchor="middle" x="557.8696" y="-153" font-family="Times,serif" font-size="14.00" fill="#000000">GO:0050794</text>
<text text-anchor="middle" x="557.8696" y="-136.2" font-family="Times,serif" font-size="14.00" fill="#000000">regulation of cellular</text>
<text text-anchor="middle" x="557.8696" y="-119.4" font-family="Times,serif" font-size="14.00" fill="#000000">process</text>
</g>
<!-- GO:0050794&#45;&gt;GO:0065007 -->
<g id="edge8" class="edge">
<title>GO:0050794&#45;&gt;GO:0065007</title>
<path fill="none" stroke="#000000" d="M491.1566,-167.1987C457.4399,-180.7428 416.8145,-197.0621 383.9267,-210.2732"/>
<polygon fill="#000000" stroke="#000000" points="382.4024,-207.1137 374.4277,-214.089 385.0117,-213.6092 382.4024,-207.1137"/>
</g>
<!-- GO:0050794&#45;&gt;GO:0050789 -->
<g id="edge9" class="edge">
<title>GO:0050794&#45;&gt;GO:0050789</title>
<path fill="none" stroke="#000000" d="M533.9284,-169.7513C526.7579,-178.5422 518.7972,-188.3018 511.2693,-197.5308"/>
<polygon fill="#000000" stroke="#000000" points="508.4046,-195.5055 504.796,-205.4669 513.829,-199.93 508.4046,-195.5055"/>
</g>
<!-- GO:0048523 -->
<g id="node9" class="node">
<title>GO:0048523</title>
<polygon fill="#ff00ff" stroke="#000000" points="627.2169,-67.0014 488.5223,-67.0014 488.5223,-8.1986 627.2169,-8.1986 627.2169,-67.0014"/>
<text text-anchor="middle" x="557.8696" y="-50.2" font-family="Times,serif" font-size="14.00" fill="#000000">GO:0048523</text>
<text text-anchor="middle" x="557.8696" y="-33.4" font-family="Times,serif" font-size="14.00" fill="#000000">negative regulation of</text>
<text text-anchor="middle" x="557.8696" y="-16.6" font-family="Times,serif" font-size="14.00" fill="#000000">cellular process</text>
</g>
<!-- GO:0048523&#45;&gt;GO:0050794 -->
<g id="edge11" class="edge">
<title>GO:0048523&#45;&gt;GO:0050794</title>
<path fill="none" stroke="#000000" d="M557.8696,-67.0584C557.8696,-77.5969 557.8696,-89.6505 557.8696,-100.8994"/>
<polygon fill="#000000" stroke="#000000" points="554.3697,-100.9373 557.8696,-110.9373 561.3697,-100.9374 554.3697,-100.9373"/>
</g>
<!-- GO:0048519 -->
<g id="node10" class="node">
<title>GO:0048519</title>
<polygon fill="#ff00ff" stroke="#000000" points="473.2169,-169.8014 334.5223,-169.8014 334.5223,-110.9986 473.2169,-110.9986 473.2169,-169.8014"/>
<text text-anchor="middle" x="403.8696" y="-153" font-family="Times,serif" font-size="14.00" fill="#000000">GO:0048519</text>
<text text-anchor="middle" x="403.8696" y="-136.2" font-family="Times,serif" font-size="14.00" fill="#000000">negative regulation of</text>
<text text-anchor="middle" x="403.8696" y="-119.4" font-family="Times,serif" font-size="14.00" fill="#000000">biological process</text>
</g>
<!-- GO:0048523&#45;&gt;GO:0048519 -->
<g id="edge10" class="edge">
<title>GO:0048523&#45;&gt;GO:0048519</title>
<path fill="none" stroke="#000000" d="M513.7394,-67.0584C495.7807,-79.0464 474.8853,-92.9947 456.168,-105.4891"/>
<polygon fill="#000000" stroke="#000000" points="454.1138,-102.6521 447.7398,-111.1152 458.0002,-108.4742 454.1138,-102.6521"/>
</g>
<!-- GO:0048519&#45;&gt;GO:0065007 -->
<g id="edge12" class="edge">
<title>GO:0048519&#45;&gt;GO:0065007</title>
<path fill="none" stroke="#000000" d="M378.6847,-169.7513C368.6477,-181.4488 357.1389,-194.8615 347.1893,-206.457"/>
<polygon fill="#000000" stroke="#000000" points="344.4432,-204.2826 340.5875,-214.151 349.7556,-208.841 344.4432,-204.2826"/>
</g>
<!-- GO:0048519&#45;&gt;GO:0050789 -->
<g id="edge13" class="edge">
<title>GO:0048519&#45;&gt;GO:0050789</title>
<path fill="none" stroke="#000000" d="M427.8108,-169.7513C434.9813,-178.5422 442.942,-188.3018 450.4699,-197.5308"/>
<polygon fill="#000000" stroke="#000000" points="447.9102,-199.93 456.9432,-205.4669 453.3346,-195.5055 447.9102,-199.93"/>
</g>
<!-- GO:0044699 -->
<g id="node11" class="node">
<title>GO:0044699</title>
<polygon fill="#ff00ff" stroke="#000000" points="845.5509,-255.4019 694.1883,-255.4019 694.1883,-214.1981 845.5509,-214.1981 845.5509,-255.4019"/>
<text text-anchor="middle" x="769.8696" y="-239" font-family="Times,serif" font-size="14.00" fill="#000000">GO:0044699</text>
<text text-anchor="middle" x="769.8696" y="-222.2" font-family="Times,serif" font-size="14.00" fill="#000000">single&#45;organism process</text>
</g>
<!-- GO:0044699&#45;&gt;GO:0008150 -->
<g id="edge14" class="edge">
<title>GO:0044699&#45;&gt;GO:0008150</title>
<path fill="none" stroke="#000000" d="M717.3758,-255.5086C686.1858,-267.8129 646.4638,-283.483 613.7525,-296.3875"/>
<polygon fill="#000000" stroke="#000000" points="612.3033,-293.1966 604.2854,-300.1222 614.8721,-299.7082 612.3033,-293.1966"/>
</g>
<!-- GO:0051171 -->
<g id="node12" class="node">
<title>GO:0051171</title>
<polygon fill="#ffffff" stroke="#000000" points="470.9482,-75.3003 332.791,-75.3003 332.791,.1003 470.9482,.1003 470.9482,-75.3003"/>
<text text-anchor="middle" x="401.8696" y="-58.6" font-family="Times,serif" font-size="14.00" fill="#000000">GO:0051171</text>
<text text-anchor="middle" x="401.8696" y="-41.8" font-family="Times,serif" font-size="14.00" fill="#000000">regulation of nitrogen</text>
<text text-anchor="middle" x="401.8696" y="-25" font-family="Times,serif" font-size="14.00" fill="#000000">compound metabolic</text>
<text text-anchor="middle" x="401.8696" y="-8.2" font-family="Times,serif" font-size="14.00" fill="#000000">process</text>
</g>
<!-- GO:0051171&#45;&gt;GO:0019222 -->
<g id="edge15" class="edge">
<title>GO:0051171&#45;&gt;GO:0019222</title>
<path fill="none" stroke="#000000" d="M343.5667,-75.2952C328.3044,-85.1629 311.9176,-95.7577 296.8892,-105.4741"/>
<polygon fill="#000000" stroke="#000000" points="294.7139,-102.7127 288.2165,-111.0814 298.5145,-108.5911 294.7139,-102.7127"/>
</g>
</g>
</svg>
