<?xml version="1.0" encoding="UTF-8" standalone="no"?>
<!DOCTYPE svg PUBLIC "-//W3C//DTD SVG 1.1//EN"
 "http://www.w3.org/Graphics/SVG/1.1/DTD/svg11.dtd">
<!-- Generated by graphviz version 2.40.1 (20161225.0304)
 -->
<!-- Title: G Pages: 1 -->
<svg width="1060pt" height="660pt"
 viewBox="0.00 0.00 1060.38 660.00" xmlns="http://www.w3.org/2000/svg" xmlns:xlink="http://www.w3.org/1999/xlink">
<g id="graph0" class="graph" transform="scale(1 1) rotate(0) translate(4 656)">
<title>G</title>
<polygon fill="#ffffff" stroke="transparent" points="-4,4 -4,-656 1056.3802,-656 1056.3802,4 -4,4"/>
<!-- GO:0005737 -->
<g id="node1" class="node">
<title>GO:0005737</title>
<polygon fill="#ffffff" stroke="#000000" points="667.213,-393.8019 578.0052,-393.8019 578.0052,-352.5981 667.213,-352.5981 667.213,-393.8019"/>
<text text-anchor="middle" x="622.6091" y="-377.4" font-family="Times,serif" font-size="14.00" fill="#000000">GO:0005737</text>
<text text-anchor="middle" x="622.6091" y="-360.6" font-family="Times,serif" font-size="14.00" fill="#000000">cytoplasm</text>
</g>
<!-- GO:0044424 -->
<g id="node2" class="node">
<title>GO:0044424</title>
<polygon fill="#ffffff" stroke="#000000" points="453.0075,-488.2019 344.2107,-488.2019 344.2107,-446.9981 453.0075,-446.9981 453.0075,-488.2019"/>
<text text-anchor="middle" x="398.6091" y="-471.8" font-family="Times,serif" font-size="14.00" fill="#000000">GO:0044424</text>
<text text-anchor="middle" x="398.6091" y="-455" font-family="Times,serif" font-size="14.00" fill="#000000">intracellular part</text>
</g>
<!-- GO:0005737&#45;&gt;GO:0044424 -->
<g id="edge1" class="edge">
<title>GO:0005737&#45;&gt;GO:0044424</title>
<path fill="none" stroke="#000000" d="M585.7478,-393.9483C580.0687,-396.9066 574.2254,-399.8177 568.6091,-402.4 534.3832,-418.1368 495.1829,-433.3513 463.0565,-445.1195"/>
<polygon fill="#000000" stroke="#000000" points="461.5283,-441.9509 453.3266,-448.6578 463.9207,-448.5294 461.5283,-441.9509"/>
</g>
<!-- GO:0044464 -->
<g id="node3" class="node">
<title>GO:0044464</title>
<polygon fill="#ffffff" stroke="#000000" points="673.213,-574.2019 584.0052,-574.2019 584.0052,-532.9981 673.213,-532.9981 673.213,-574.2019"/>
<text text-anchor="middle" x="628.6091" y="-557.8" font-family="Times,serif" font-size="14.00" fill="#000000">GO:0044464</text>
<text text-anchor="middle" x="628.6091" y="-541" font-family="Times,serif" font-size="14.00" fill="#000000">cell part</text>
</g>
<!-- GO:0044424&#45;&gt;GO:0044464 -->
<g id="edge2" class="edge">
<title>GO:0044424&#45;&gt;GO:0044464</title>
<path fill="none" stroke="#000000" d="M453.1159,-487.9808C489.6988,-501.6596 537.6992,-519.6076 574.2511,-533.2748"/>
<polygon fill="#000000" stroke="#000000" points="573.1671,-536.6061 583.7595,-536.8302 575.6187,-530.0495 573.1671,-536.6061"/>
</g>
<!-- GO:0005575 -->
<g id="node4" class="node">
<title>GO:0005575</title>
<polygon fill="#ffffff" stroke="#000000" points="728.2958,-651.8019 600.9224,-651.8019 600.9224,-610.5981 728.2958,-610.5981 728.2958,-651.8019"/>
<text text-anchor="middle" x="664.6091" y="-635.4" font-family="Times,serif" font-size="14.00" fill="#000000">GO:0005575</text>
<text text-anchor="middle" x="664.6091" y="-618.6" font-family="Times,serif" font-size="14.00" fill="#000000">cellular_component</text>
</g>
<!-- GO:0044464&#45;&gt;GO:0005575 -->
<g id="edge3" class="edge">
<title>GO:0044464&#45;&gt;GO:0005575</title>
<path fill="none" stroke="#000000" d="M638.2564,-574.3954C642.0496,-582.5718 646.4787,-592.1189 650.6113,-601.027"/>
<polygon fill="#000000" stroke="#000000" points="647.5517,-602.7488 654.9351,-610.3472 653.9017,-599.8029 647.5517,-602.7488"/>
</g>
<!-- GO:0005765 -->
<g id="node5" class="node">
<title>GO:0005765</title>
<polygon fill="#ffffff" stroke="#000000" points="568.4708,-41.4019 432.7474,-41.4019 432.7474,-.1981 568.4708,-.1981 568.4708,-41.4019"/>
<text text-anchor="middle" x="500.6091" y="-25" font-family="Times,serif" font-size="14.00" fill="#000000">GO:0005765</text>
<text text-anchor="middle" x="500.6091" y="-8.2" font-family="Times,serif" font-size="14.00" fill="#000000">lysosomal membrane</text>
</g>
<!-- GO:0098852 -->
<g id="node6" class="node">
<title>GO:0098852</title>
<polygon fill="#ffffff" stroke="#000000" points="575.6163,-119.0019 425.6019,-119.0019 425.6019,-77.7981 575.6163,-77.7981 575.6163,-119.0019"/>
<text text-anchor="middle" x="500.6091" y="-102.6" font-family="Times,serif" font-size="14.00" fill="#000000">GO:0098852</text>
<text text-anchor="middle" x="500.6091" y="-85.8" font-family="Times,serif" font-size="14.00" fill="#000000">lytic vacuole membrane</text>
</g>
<!-- GO:0005765&#45;&gt;GO:0098852 -->
<g id="edge4" class="edge">
<title>GO:0005765&#45;&gt;GO:0098852</title>
<path fill="none" stroke="#000000" d="M500.6091,-41.5954C500.6091,-49.5109 500.6091,-58.7109 500.6091,-67.3722"/>
<polygon fill="#000000" stroke="#000000" points="497.1092,-67.5472 500.6091,-77.5472 504.1092,-67.5473 497.1092,-67.5472"/>
</g>
<!-- GO:0005774 -->
<g id="node7" class="node">
<title>GO:0005774</title>
<polygon fill="#ffffff" stroke="#000000" points="563.8899,-205.0019 437.3283,-205.0019 437.3283,-163.7981 563.8899,-163.7981 563.8899,-205.0019"/>
<text text-anchor="middle" x="500.6091" y="-188.6" font-family="Times,serif" font-size="14.00" fill="#000000">GO:0005774</text>
<text text-anchor="middle" x="500.6091" y="-171.8" font-family="Times,serif" font-size="14.00" fill="#000000">vacuolar membrane</text>
</g>
<!-- GO:0098852&#45;&gt;GO:0005774 -->
<g id="edge5" class="edge">
<title>GO:0098852&#45;&gt;GO:0005774</title>
<path fill="none" stroke="#000000" d="M500.6091,-119.2182C500.6091,-129.5705 500.6091,-142.2848 500.6091,-153.7271"/>
<polygon fill="#000000" stroke="#000000" points="497.1092,-153.7735 500.6091,-163.7735 504.1092,-153.7735 497.1092,-153.7735"/>
</g>
<!-- GO:0098588 -->
<g id="node8" class="node">
<title>GO:0098588</title>
<polygon fill="#ffffff" stroke="#000000" points="573.7463,-308.2014 427.4719,-308.2014 427.4719,-249.3986 573.7463,-249.3986 573.7463,-308.2014"/>
<text text-anchor="middle" x="500.6091" y="-291.4" font-family="Times,serif" font-size="14.00" fill="#000000">GO:0098588</text>
<text text-anchor="middle" x="500.6091" y="-274.6" font-family="Times,serif" font-size="14.00" fill="#000000">bounding membrane of</text>
<text text-anchor="middle" x="500.6091" y="-257.8" font-family="Times,serif" font-size="14.00" fill="#000000">organelle</text>
</g>
<!-- GO:0005774&#45;&gt;GO:0098588 -->
<g id="edge6" class="edge">
<title>GO:0005774&#45;&gt;GO:0098588</title>
<path fill="none" stroke="#000000" d="M500.6091,-205.3504C500.6091,-215.3492 500.6091,-227.6525 500.6091,-239.3106"/>
<polygon fill="#000000" stroke="#000000" points="497.1092,-239.3155 500.6091,-249.3155 504.1092,-239.3156 497.1092,-239.3155"/>
</g>
<!-- GO:0044437 -->
<g id="node9" class="node">
<title>GO:0044437</title>
<polygon fill="#ffffff" stroke="#000000" points="409.5711,-299.4019 319.6471,-299.4019 319.6471,-258.1981 409.5711,-258.1981 409.5711,-299.4019"/>
<text text-anchor="middle" x="364.6091" y="-283" font-family="Times,serif" font-size="14.00" fill="#000000">GO:0044437</text>
<text text-anchor="middle" x="364.6091" y="-266.2" font-family="Times,serif" font-size="14.00" fill="#000000">vacuolar part</text>
</g>
<!-- GO:0005774&#45;&gt;GO:0044437 -->
<g id="edge7" class="edge">
<title>GO:0005774&#45;&gt;GO:0044437</title>
<path fill="none" stroke="#000000" d="M470.7633,-205.1165C450.7452,-219.0114 424.2046,-237.4337 402.6696,-252.3815"/>
<polygon fill="#000000" stroke="#000000" points="400.6045,-249.5544 394.3853,-258.1318 404.596,-255.3049 400.6045,-249.5544"/>
</g>
<!-- GO:0098805 -->
<g id="node10" class="node">
<title>GO:0098805</title>
<polygon fill="#ffffff" stroke="#000000" points="708.9067,-299.4019 596.3115,-299.4019 596.3115,-258.1981 708.9067,-258.1981 708.9067,-299.4019"/>
<text text-anchor="middle" x="652.6091" y="-283" font-family="Times,serif" font-size="14.00" fill="#000000">GO:0098805</text>
<text text-anchor="middle" x="652.6091" y="-266.2" font-family="Times,serif" font-size="14.00" fill="#000000">whole membrane</text>
</g>
<!-- GO:0005774&#45;&gt;GO:0098805 -->
<g id="edge8" class="edge">
<title>GO:0005774&#45;&gt;GO:0098805</title>
<path fill="none" stroke="#000000" d="M533.9661,-205.1165C556.5374,-219.1344 586.5279,-237.7601 610.7086,-252.7776"/>
<polygon fill="#000000" stroke="#000000" points="608.9883,-255.8292 619.3299,-258.1318 612.6814,-249.8827 608.9883,-255.8292"/>
</g>
<!-- GO:0031090 -->
<g id="node11" class="node">
<title>GO:0031090</title>
<polygon fill="#ffffff" stroke="#000000" points="559.7807,-393.8019 429.4375,-393.8019 429.4375,-352.5981 559.7807,-352.5981 559.7807,-393.8019"/>
<text text-anchor="middle" x="494.6091" y="-377.4" font-family="Times,serif" font-size="14.00" fill="#000000">GO:0031090</text>
<text text-anchor="middle" x="494.6091" y="-360.6" font-family="Times,serif" font-size="14.00" fill="#000000">organelle membrane</text>
</g>
<!-- GO:0098588&#45;&gt;GO:0031090 -->
<g id="edge9" class="edge">
<title>GO:0098588&#45;&gt;GO:0031090</title>
<path fill="none" stroke="#000000" d="M498.7436,-308.1513C498.0501,-319.0614 497.2618,-331.4637 496.5609,-342.492"/>
<polygon fill="#000000" stroke="#000000" points="493.063,-342.3491 495.9215,-352.551 500.0489,-342.7932 493.063,-342.3491"/>
</g>
<!-- GO:0044446 -->
<g id="node12" class="node">
<title>GO:0044446</title>
<polygon fill="#ffffff" stroke="#000000" points="284.3275,-402.6014 144.8907,-402.6014 144.8907,-343.7986 284.3275,-343.7986 284.3275,-402.6014"/>
<text text-anchor="middle" x="214.6091" y="-385.8" font-family="Times,serif" font-size="14.00" fill="#000000">GO:0044446</text>
<text text-anchor="middle" x="214.6091" y="-369" font-family="Times,serif" font-size="14.00" fill="#000000">intracellular organelle</text>
<text text-anchor="middle" x="214.6091" y="-352.2" font-family="Times,serif" font-size="14.00" fill="#000000">part</text>
</g>
<!-- GO:0044437&#45;&gt;GO:0044446 -->
<g id="edge10" class="edge">
<title>GO:0044437&#45;&gt;GO:0044446</title>
<path fill="none" stroke="#000000" d="M331.691,-299.5165C313.4997,-310.9649 290.4248,-325.4866 269.578,-338.6062"/>
<polygon fill="#000000" stroke="#000000" points="267.7061,-335.6488 261.1068,-343.9374 271.4345,-341.5733 267.7061,-335.6488"/>
</g>
<!-- GO:0044444 -->
<g id="node13" class="node">
<title>GO:0044444</title>
<polygon fill="#ffffff" stroke="#000000" points="411.0257,-393.8019 302.1925,-393.8019 302.1925,-352.5981 411.0257,-352.5981 411.0257,-393.8019"/>
<text text-anchor="middle" x="356.6091" y="-377.4" font-family="Times,serif" font-size="14.00" fill="#000000">GO:0044444</text>
<text text-anchor="middle" x="356.6091" y="-360.6" font-family="Times,serif" font-size="14.00" fill="#000000">cytoplasmic part</text>
</g>
<!-- GO:0044437&#45;&gt;GO:0044444 -->
<g id="edge11" class="edge">
<title>GO:0044437&#45;&gt;GO:0044444</title>
<path fill="none" stroke="#000000" d="M362.8336,-299.7504C361.7772,-312.2165 360.4172,-328.2645 359.238,-342.1786"/>
<polygon fill="#000000" stroke="#000000" points="355.7366,-342.0483 358.3796,-352.3081 362.7116,-342.6394 355.7366,-342.0483"/>
</g>
<!-- GO:0016020 -->
<g id="node14" class="node">
<title>GO:0016020</title>
<polygon fill="#ffffff" stroke="#000000" points="746.213,-488.2019 657.0052,-488.2019 657.0052,-446.9981 746.213,-446.9981 746.213,-488.2019"/>
<text text-anchor="middle" x="701.6091" y="-471.8" font-family="Times,serif" font-size="14.00" fill="#000000">GO:0016020</text>
<text text-anchor="middle" x="701.6091" y="-455" font-family="Times,serif" font-size="14.00" fill="#000000">membrane</text>
</g>
<!-- GO:0098805&#45;&gt;GO:0016020 -->
<g id="edge12" class="edge">
<title>GO:0098805&#45;&gt;GO:0016020</title>
<path fill="none" stroke="#000000" d="M700.0825,-299.4194C706.9544,-302.336 713.9526,-305.2693 720.6091,-308 761.2317,-324.6646 787.8566,-307.7341 812.6091,-344 827.2412,-365.4381 825.5025,-379.8734 812.6091,-402.4 810.6597,-405.8058 777.4299,-425.1044 747.8341,-441.8293"/>
<polygon fill="#000000" stroke="#000000" points="745.7988,-438.9587 738.8045,-446.9168 749.235,-445.0574 745.7988,-438.9587"/>
</g>
<!-- GO:0031090&#45;&gt;GO:0016020 -->
<g id="edge13" class="edge">
<title>GO:0031090&#45;&gt;GO:0016020</title>
<path fill="none" stroke="#000000" d="M540.0361,-393.9165C571.801,-408.4025 614.356,-427.8092 647.8191,-443.0697"/>
<polygon fill="#000000" stroke="#000000" points="646.4489,-446.2916 656.9997,-447.2564 649.3535,-439.9226 646.4489,-446.2916"/>
</g>
<!-- GO:0044422 -->
<g id="node15" class="node">
<title>GO:0044422</title>
<polygon fill="#ffffff" stroke="#000000" points="315.4612,-488.2019 221.757,-488.2019 221.757,-446.9981 315.4612,-446.9981 315.4612,-488.2019"/>
<text text-anchor="middle" x="268.6091" y="-471.8" font-family="Times,serif" font-size="14.00" fill="#000000">GO:0044422</text>
<text text-anchor="middle" x="268.6091" y="-455" font-family="Times,serif" font-size="14.00" fill="#000000">organelle part</text>
</g>
<!-- GO:0031090&#45;&gt;GO:0044422 -->
<g id="edge14" class="edge">
<title>GO:0031090&#45;&gt;GO:0044422</title>
<path fill="none" stroke="#000000" d="M443.2925,-393.9116C412.0865,-406.5887 371.469,-423.2355 335.6091,-438.4 332.0301,-439.9135 328.3485,-441.4828 324.6402,-443.0728"/>
<polygon fill="#000000" stroke="#000000" points="323.2101,-439.8778 315.4102,-447.048 325.9791,-446.3069 323.2101,-439.8778"/>
</g>
<!-- GO:0044446&#45;&gt;GO:0044424 -->
<g id="edge15" class="edge">
<title>GO:0044446&#45;&gt;GO:0044424</title>
<path fill="none" stroke="#000000" d="M271.5678,-402.4223C296.4623,-415.1942 325.3814,-430.031 349.3337,-442.3196"/>
<polygon fill="#000000" stroke="#000000" points="347.7567,-445.4442 358.2517,-446.8949 350.952,-439.216 347.7567,-445.4442"/>
</g>
<!-- GO:0044446&#45;&gt;GO:0044422 -->
<g id="edge16" class="edge">
<title>GO:0044446&#45;&gt;GO:0044422</title>
<path fill="none" stroke="#000000" d="M231.399,-402.5513C237.8974,-413.9113 245.3211,-426.8891 251.8194,-438.2491"/>
<polygon fill="#000000" stroke="#000000" points="248.7937,-440.0087 256.7972,-446.951 254.8698,-436.5329 248.7937,-440.0087"/>
</g>
<!-- GO:0044444&#45;&gt;GO:0044424 -->
<g id="edge17" class="edge">
<title>GO:0044444&#45;&gt;GO:0044424</title>
<path fill="none" stroke="#000000" d="M365.9303,-394.1504C371.5854,-406.8609 378.8972,-423.2952 385.1702,-437.3945"/>
<polygon fill="#000000" stroke="#000000" points="382.0512,-438.9944 389.314,-446.7081 388.4467,-436.1489 382.0512,-438.9944"/>
</g>
<!-- GO:0016020&#45;&gt;GO:0005575 -->
<g id="edge18" class="edge">
<title>GO:0016020&#45;&gt;GO:0005575</title>
<path fill="none" stroke="#000000" d="M698.7562,-488.2415C695.5755,-509.8767 689.9049,-544.7761 682.6091,-574.4 680.4755,-583.0632 677.7364,-592.3363 675.042,-600.825"/>
<polygon fill="#000000" stroke="#000000" points="671.71,-599.7538 671.9384,-610.3461 678.3653,-601.9232 671.71,-599.7538"/>
</g>
<!-- GO:0044422&#45;&gt;GO:0005575 -->
<g id="edge19" class="edge">
<title>GO:0044422&#45;&gt;GO:0005575</title>
<path fill="none" stroke="#000000" d="M315.4069,-488.1599C322.1744,-491.0852 329.0627,-494.0368 335.6091,-496.8 428.662,-536.0775 537.2364,-580.0787 603.4329,-606.702"/>
<polygon fill="#000000" stroke="#000000" points="602.3014,-610.0193 612.8852,-610.5013 604.912,-603.5243 602.3014,-610.0193"/>
</g>
<!-- GO:0005788 -->
<g id="node16" class="node">
<title>GO:0005788</title>
<polygon fill="#ffffff" stroke="#000000" points="221.5215,-213.8014 77.6967,-213.8014 77.6967,-154.9986 221.5215,-154.9986 221.5215,-213.8014"/>
<text text-anchor="middle" x="149.6091" y="-197" font-family="Times,serif" font-size="14.00" fill="#000000">GO:0005788</text>
<text text-anchor="middle" x="149.6091" y="-180.2" font-family="Times,serif" font-size="14.00" fill="#000000">endoplasmic reticulum</text>
<text text-anchor="middle" x="149.6091" y="-163.4" font-family="Times,serif" font-size="14.00" fill="#000000">lumen</text>
</g>
<!-- GO:0070013 -->
<g id="node17" class="node">
<title>GO:0070013</title>
<polygon fill="#ffffff" stroke="#000000" points="139.3275,-308.2014 -.1093,-308.2014 -.1093,-249.3986 139.3275,-249.3986 139.3275,-308.2014"/>
<text text-anchor="middle" x="69.6091" y="-291.4" font-family="Times,serif" font-size="14.00" fill="#000000">GO:0070013</text>
<text text-anchor="middle" x="69.6091" y="-274.6" font-family="Times,serif" font-size="14.00" fill="#000000">intracellular organelle</text>
<text text-anchor="middle" x="69.6091" y="-257.8" font-family="Times,serif" font-size="14.00" fill="#000000">lumen</text>
</g>
<!-- GO:0005788&#45;&gt;GO:0070013 -->
<g id="edge20" class="edge">
<title>GO:0005788&#45;&gt;GO:0070013</title>
<path fill="none" stroke="#000000" d="M124.7351,-213.7513C117.21,-222.631 108.8472,-232.499 100.9563,-241.8103"/>
<polygon fill="#000000" stroke="#000000" points="98.2628,-239.575 94.4677,-249.4669 103.6031,-244.1007 98.2628,-239.575"/>
</g>
<!-- GO:0044432 -->
<g id="node18" class="node">
<title>GO:0044432</title>
<polygon fill="#ffffff" stroke="#000000" points="301.5215,-308.2014 157.6967,-308.2014 157.6967,-249.3986 301.5215,-249.3986 301.5215,-308.2014"/>
<text text-anchor="middle" x="229.6091" y="-291.4" font-family="Times,serif" font-size="14.00" fill="#000000">GO:0044432</text>
<text text-anchor="middle" x="229.6091" y="-274.6" font-family="Times,serif" font-size="14.00" fill="#000000">endoplasmic reticulum</text>
<text text-anchor="middle" x="229.6091" y="-257.8" font-family="Times,serif" font-size="14.00" fill="#000000">part</text>
</g>
<!-- GO:0005788&#45;&gt;GO:0044432 -->
<g id="edge21" class="edge">
<title>GO:0005788&#45;&gt;GO:0044432</title>
<path fill="none" stroke="#000000" d="M174.4831,-213.7513C182.0082,-222.631 190.371,-232.499 198.2619,-241.8103"/>
<polygon fill="#000000" stroke="#000000" points="195.6151,-244.1007 204.7505,-249.4669 200.9554,-239.575 195.6151,-244.1007"/>
</g>
<!-- GO:0070013&#45;&gt;GO:0044446 -->
<g id="edge22" class="edge">
<title>GO:0070013&#45;&gt;GO:0044446</title>
<path fill="none" stroke="#000000" d="M114.6932,-308.1513C129.2873,-317.6525 145.6195,-328.2854 160.7823,-338.1569"/>
<polygon fill="#000000" stroke="#000000" points="159.2628,-341.344 169.5529,-343.8669 163.082,-335.4777 159.2628,-341.344"/>
</g>
<!-- GO:0043233 -->
<g id="node19" class="node">
<title>GO:0043233</title>
<polygon fill="#ffffff" stroke="#000000" points="126.6913,-393.8019 20.5269,-393.8019 20.5269,-352.5981 126.6913,-352.5981 126.6913,-393.8019"/>
<text text-anchor="middle" x="73.6091" y="-377.4" font-family="Times,serif" font-size="14.00" fill="#000000">GO:0043233</text>
<text text-anchor="middle" x="73.6091" y="-360.6" font-family="Times,serif" font-size="14.00" fill="#000000">organelle lumen</text>
</g>
<!-- GO:0070013&#45;&gt;GO:0043233 -->
<g id="edge23" class="edge">
<title>GO:0070013&#45;&gt;GO:0043233</title>
<path fill="none" stroke="#000000" d="M70.8528,-308.1513C71.3151,-319.0614 71.8406,-331.4637 72.3079,-342.492"/>
<polygon fill="#000000" stroke="#000000" points="68.8138,-342.7082 72.7341,-352.551 75.8076,-342.4117 68.8138,-342.7082"/>
</g>
<!-- GO:0044432&#45;&gt;GO:0044446 -->
<g id="edge24" class="edge">
<title>GO:0044432&#45;&gt;GO:0044446</title>
<path fill="none" stroke="#000000" d="M224.9452,-308.1513C223.6471,-316.3206 222.2161,-325.3264 220.8434,-333.9657"/>
<polygon fill="#000000" stroke="#000000" points="217.3828,-333.4415 219.2701,-343.8669 224.2961,-334.54 217.3828,-333.4415"/>
</g>
<!-- GO:0044432&#45;&gt;GO:0044444 -->
<g id="edge25" class="edge">
<title>GO:0044432&#45;&gt;GO:0044444</title>
<path fill="none" stroke="#000000" d="M269.0965,-308.1513C285.5902,-320.4112 304.6186,-334.5551 320.7107,-346.5165"/>
<polygon fill="#000000" stroke="#000000" points="318.7155,-349.3944 328.8292,-352.551 322.8914,-343.7764 318.7155,-349.3944"/>
</g>
<!-- GO:0043233&#45;&gt;GO:0044422 -->
<g id="edge26" class="edge">
<title>GO:0043233&#45;&gt;GO:0044422</title>
<path fill="none" stroke="#000000" d="M116.4027,-393.9165C145.9942,-408.2418 185.526,-427.3792 216.8851,-442.5603"/>
<polygon fill="#000000" stroke="#000000" points="215.3895,-445.7248 225.9153,-446.9318 218.4396,-439.4242 215.3895,-445.7248"/>
</g>
<!-- GO:0031974 -->
<g id="node20" class="node">
<title>GO:0031974</title>
<polygon fill="#ffffff" stroke="#000000" points="275.3302,-574.2019 107.888,-574.2019 107.888,-532.9981 275.3302,-532.9981 275.3302,-574.2019"/>
<text text-anchor="middle" x="191.6091" y="-557.8" font-family="Times,serif" font-size="14.00" fill="#000000">GO:0031974</text>
<text text-anchor="middle" x="191.6091" y="-541" font-family="Times,serif" font-size="14.00" fill="#000000">membrane&#45;enclosed lumen</text>
</g>
<!-- GO:0043233&#45;&gt;GO:0031974 -->
<g id="edge27" class="edge">
<title>GO:0043233&#45;&gt;GO:0031974</title>
<path fill="none" stroke="#000000" d="M87.1452,-393.8942C108.0729,-425.8888 148.3646,-487.4872 172.3301,-524.1261"/>
<polygon fill="#000000" stroke="#000000" points="169.6465,-526.4173 178.0496,-532.8701 175.5046,-522.5854 169.6465,-526.4173"/>
</g>
<!-- GO:0031974&#45;&gt;GO:0005575 -->
<g id="edge28" class="edge">
<title>GO:0031974&#45;&gt;GO:0005575</title>
<path fill="none" stroke="#000000" d="M275.3549,-567.3393C364.943,-582.037 505.6457,-605.1206 591.0913,-619.1387"/>
<polygon fill="#000000" stroke="#000000" points="590.5394,-622.5949 600.9741,-620.7601 591.6727,-615.6872 590.5394,-622.5949"/>
</g>
<!-- GO:0005886 -->
<g id="node21" class="node">
<title>GO:0005886</title>
<polygon fill="#ffffff" stroke="#000000" points="803.8499,-393.8019 685.3683,-393.8019 685.3683,-352.5981 803.8499,-352.5981 803.8499,-393.8019"/>
<text text-anchor="middle" x="744.6091" y="-377.4" font-family="Times,serif" font-size="14.00" fill="#000000">GO:0005886</text>
<text text-anchor="middle" x="744.6091" y="-360.6" font-family="Times,serif" font-size="14.00" fill="#000000">plasma membrane</text>
</g>
<!-- GO:0005886&#45;&gt;GO:0044464 -->
<g id="edge30" class="edge">
<title>GO:0005886&#45;&gt;GO:0044464</title>
<path fill="none" stroke="#000000" d="M698.475,-393.8769C679.8192,-404.5455 659.8414,-419.3674 647.6091,-438.4 631.4752,-463.5032 627.6141,-497.8305 627.2459,-522.4717"/>
<polygon fill="#000000" stroke="#000000" points="623.7467,-522.7263 627.2834,-532.7134 630.7466,-522.7006 623.7467,-522.7263"/>
</g>
<!-- GO:0005886&#45;&gt;GO:0016020 -->
<g id="edge29" class="edge">
<title>GO:0005886&#45;&gt;GO:0016020</title>
<path fill="none" stroke="#000000" d="M735.066,-394.1504C729.2763,-406.8609 721.7903,-423.2952 715.3679,-437.3945"/>
<polygon fill="#000000" stroke="#000000" points="712.0857,-436.1569 711.1255,-446.7081 718.456,-439.0586 712.0857,-436.1569"/>
</g>
<!-- GO:0070062 -->
<g id="node22" class="node">
<title>GO:0070062</title>
<polygon fill="#ffffff" stroke="#000000" points="967.3303,-205.0019 827.8879,-205.0019 827.8879,-163.7981 967.3303,-163.7981 967.3303,-205.0019"/>
<text text-anchor="middle" x="897.6091" y="-188.6" font-family="Times,serif" font-size="14.00" fill="#000000">GO:0070062</text>
<text text-anchor="middle" x="897.6091" y="-171.8" font-family="Times,serif" font-size="14.00" fill="#000000">extracellular exosome</text>
</g>
<!-- GO:1903561 -->
<g id="node23" class="node">
<title>GO:1903561</title>
<polygon fill="#ffffff" stroke="#000000" points="1045.9357,-299.4019 917.2825,-299.4019 917.2825,-258.1981 1045.9357,-258.1981 1045.9357,-299.4019"/>
<text text-anchor="middle" x="981.6091" y="-283" font-family="Times,serif" font-size="14.00" fill="#000000">GO:1903561</text>
<text text-anchor="middle" x="981.6091" y="-266.2" font-family="Times,serif" font-size="14.00" fill="#000000">extracellular vesicle</text>
</g>
<!-- GO:0070062&#45;&gt;GO:1903561 -->
<g id="edge31" class="edge">
<title>GO:0070062&#45;&gt;GO:1903561</title>
<path fill="none" stroke="#000000" d="M916.2514,-205.3504C927.9966,-218.5498 943.3151,-235.7649 956.1695,-250.2107"/>
<polygon fill="#000000" stroke="#000000" points="953.7566,-252.7642 963.0189,-257.9081 958.986,-248.1109 953.7566,-252.7642"/>
</g>
<!-- GO:0031988 -->
<g id="node24" class="node">
<title>GO:0031988</title>
<polygon fill="#ffffff" stroke="#000000" points="899.9398,-299.4019 729.2784,-299.4019 729.2784,-258.1981 899.9398,-258.1981 899.9398,-299.4019"/>
<text text-anchor="middle" x="814.6091" y="-283" font-family="Times,serif" font-size="14.00" fill="#000000">GO:0031988</text>
<text text-anchor="middle" x="814.6091" y="-266.2" font-family="Times,serif" font-size="14.00" fill="#000000">membrane&#45;bounded vesicle</text>
</g>
<!-- GO:0070062&#45;&gt;GO:0031988 -->
<g id="edge32" class="edge">
<title>GO:0070062&#45;&gt;GO:0031988</title>
<path fill="none" stroke="#000000" d="M879.1887,-205.3504C867.5833,-218.5498 852.4472,-235.7649 839.7459,-250.2107"/>
<polygon fill="#000000" stroke="#000000" points="836.9526,-248.0871 832.978,-257.9081 842.2096,-252.7092 836.9526,-248.0871"/>
</g>
<!-- GO:0043230 -->
<g id="node25" class="node">
<title>GO:0043230</title>
<polygon fill="#ffffff" stroke="#000000" points="1052.152,-488.2019 911.0662,-488.2019 911.0662,-446.9981 1052.152,-446.9981 1052.152,-488.2019"/>
<text text-anchor="middle" x="981.6091" y="-471.8" font-family="Times,serif" font-size="14.00" fill="#000000">GO:0043230</text>
<text text-anchor="middle" x="981.6091" y="-455" font-family="Times,serif" font-size="14.00" fill="#000000">extracellular organelle</text>
</g>
<!-- GO:1903561&#45;&gt;GO:0043230 -->
<g id="edge33" class="edge">
<title>GO:1903561&#45;&gt;GO:0043230</title>
<path fill="none" stroke="#000000" d="M981.6091,-299.7263C981.6091,-332.9865 981.6091,-398.0928 981.6091,-436.7227"/>
<polygon fill="#000000" stroke="#000000" points="978.1092,-436.8677 981.6091,-446.8677 985.1092,-436.8678 978.1092,-436.8677"/>
</g>
<!-- GO:0031982 -->
<g id="node26" class="node">
<title>GO:0031982</title>
<polygon fill="#ffffff" stroke="#000000" points="949.213,-393.8019 860.0052,-393.8019 860.0052,-352.5981 949.213,-352.5981 949.213,-393.8019"/>
<text text-anchor="middle" x="904.6091" y="-377.4" font-family="Times,serif" font-size="14.00" fill="#000000">GO:0031982</text>
<text text-anchor="middle" x="904.6091" y="-360.6" font-family="Times,serif" font-size="14.00" fill="#000000">vesicle</text>
</g>
<!-- GO:1903561&#45;&gt;GO:0031982 -->
<g id="edge34" class="edge">
<title>GO:1903561&#45;&gt;GO:0031982</title>
<path fill="none" stroke="#000000" d="M964.5203,-299.7504C953.8536,-312.8276 939.9717,-329.8464 928.2567,-344.2087"/>
<polygon fill="#000000" stroke="#000000" points="925.2587,-342.3468 921.6501,-352.3081 930.6831,-346.7713 925.2587,-342.3468"/>
</g>
<!-- GO:0031988&#45;&gt;GO:0031982 -->
<g id="edge35" class="edge">
<title>GO:0031988&#45;&gt;GO:0031982</title>
<path fill="none" stroke="#000000" d="M834.583,-299.7504C847.2837,-313.072 863.8841,-330.484 877.7342,-345.0112"/>
<polygon fill="#000000" stroke="#000000" points="875.2574,-347.4855 884.691,-352.3081 880.3238,-342.6552 875.2574,-347.4855"/>
</g>
<!-- GO:0043226 -->
<g id="node27" class="node">
<title>GO:0043226</title>
<polygon fill="#ffffff" stroke="#000000" points="873.213,-574.2019 784.0052,-574.2019 784.0052,-532.9981 873.213,-532.9981 873.213,-574.2019"/>
<text text-anchor="middle" x="828.6091" y="-557.8" font-family="Times,serif" font-size="14.00" fill="#000000">GO:0043226</text>
<text text-anchor="middle" x="828.6091" y="-541" font-family="Times,serif" font-size="14.00" fill="#000000">organelle</text>
</g>
<!-- GO:0043230&#45;&gt;GO:0043226 -->
<g id="edge36" class="edge">
<title>GO:0043230&#45;&gt;GO:0043226</title>
<path fill="none" stroke="#000000" d="M944.5721,-488.4182C923.4296,-500.3022 896.7493,-515.299 874.312,-527.9108"/>
<polygon fill="#000000" stroke="#000000" points="872.3074,-525.0225 865.3051,-532.9735 875.7373,-531.1246 872.3074,-525.0225"/>
</g>
<!-- GO:0044421 -->
<g id="node28" class="node">
<title>GO:0044421</title>
<polygon fill="#ffffff" stroke="#000000" points="1049.0981,-574.2019 898.1201,-574.2019 898.1201,-532.9981 1049.0981,-532.9981 1049.0981,-574.2019"/>
<text text-anchor="middle" x="973.6091" y="-557.8" font-family="Times,serif" font-size="14.00" fill="#000000">GO:0044421</text>
<text text-anchor="middle" x="973.6091" y="-541" font-family="Times,serif" font-size="14.00" fill="#000000">extracellular region part</text>
</g>
<!-- GO:0043230&#45;&gt;GO:0044421 -->
<g id="edge37" class="edge">
<title>GO:0043230&#45;&gt;GO:0044421</title>
<path fill="none" stroke="#000000" d="M979.6725,-488.4182C978.7095,-498.7705 977.5268,-511.4848 976.4624,-522.9271"/>
<polygon fill="#000000" stroke="#000000" points="972.9692,-522.6923 975.5278,-532.9735 979.9391,-523.3407 972.9692,-522.6923"/>
</g>
<!-- GO:0043227 -->
<g id="node29" class="node">
<title>GO:0043227</title>
<polygon fill="#ffffff" stroke="#000000" points="892.5699,-497.0014 764.6483,-497.0014 764.6483,-438.1986 892.5699,-438.1986 892.5699,-497.0014"/>
<text text-anchor="middle" x="828.6091" y="-480.2" font-family="Times,serif" font-size="14.00" fill="#000000">GO:0043227</text>
<text text-anchor="middle" x="828.6091" y="-463.4" font-family="Times,serif" font-size="14.00" fill="#000000">membrane&#45;bounded</text>
<text text-anchor="middle" x="828.6091" y="-446.6" font-family="Times,serif" font-size="14.00" fill="#000000">organelle</text>
</g>
<!-- GO:0031982&#45;&gt;GO:0043227 -->
<g id="edge38" class="edge">
<title>GO:0031982&#45;&gt;GO:0043227</title>
<path fill="none" stroke="#000000" d="M887.7422,-394.1504C879.2045,-404.7552 868.5798,-417.9522 858.7011,-430.2225"/>
<polygon fill="#000000" stroke="#000000" points="855.8914,-428.1313 852.3466,-438.1155 861.344,-432.5211 855.8914,-428.1313"/>
</g>
<!-- GO:0043226&#45;&gt;GO:0005575 -->
<g id="edge39" class="edge">
<title>GO:0043226&#45;&gt;GO:0005575</title>
<path fill="none" stroke="#000000" d="M784.6601,-574.3954C763.988,-584.1768 739.1704,-595.9198 717.4787,-606.1837"/>
<polygon fill="#000000" stroke="#000000" points="715.937,-603.041 708.3948,-610.4819 718.931,-609.3685 715.937,-603.041"/>
</g>
<!-- GO:0044421&#45;&gt;GO:0005575 -->
<g id="edge40" class="edge">
<title>GO:0044421&#45;&gt;GO:0005575</title>
<path fill="none" stroke="#000000" d="M898.0192,-572.5831C849.2938,-584.8196 786.2548,-600.6508 737.9739,-612.7757"/>
<polygon fill="#000000" stroke="#000000" points="737.0612,-609.3962 728.2148,-615.2265 738.7662,-616.1853 737.0612,-609.3962"/>
</g>
<!-- GO:0043227&#45;&gt;GO:0043226 -->
<g id="edge41" class="edge">
<title>GO:0043227&#45;&gt;GO:0043226</title>
<path fill="none" stroke="#000000" d="M828.6091,-497.1963C828.6091,-505.4638 828.6091,-514.4657 828.6091,-522.8008"/>
<polygon fill="#000000" stroke="#000000" points="825.1092,-522.8965 828.6091,-532.8966 832.1092,-522.8966 825.1092,-522.8965"/>
</g>
</g>
</svg>
