<?xml version="1.0" encoding="UTF-8" standalone="no"?>
<!DOCTYPE svg PUBLIC "-//W3C//DTD SVG 1.1//EN"
 "http://www.w3.org/Graphics/SVG/1.1/DTD/svg11.dtd">
<!-- Generated by graphviz version 2.40.1 (20161225.0304)
 -->
<!-- Title: G Pages: 1 -->
<svg width="154pt" height="471pt"
 viewBox="0.00 0.00 153.85 471.20" xmlns="http://www.w3.org/2000/svg" xmlns:xlink="http://www.w3.org/1999/xlink">
<g id="graph0" class="graph" transform="scale(1 1) rotate(0) translate(4 467.2)">
<title>G</title>
<polygon fill="#ffffff" stroke="transparent" points="-4,4 -4,-467.2 149.85,-467.2 149.85,4 -4,4"/>
<!-- GO:0004139 -->
<g id="node1" class="node">
<title>GO:0004139</title>
<polygon fill="#ffffff" stroke="#000000" points="145.7751,-58.6014 .0749,-58.6014 .0749,.2014 145.7751,.2014 145.7751,-58.6014"/>
<text text-anchor="middle" x="72.925" y="-41.8" font-family="Times,serif" font-size="14.00" fill="#000000">GO:0004139</text>
<text text-anchor="middle" x="72.925" y="-25" font-family="Times,serif" font-size="14.00" fill="#000000">deoxyribose&#45;phosphate</text>
<text text-anchor="middle" x="72.925" y="-8.2" font-family="Times,serif" font-size="14.00" fill="#000000">aldolase activity</text>
</g>
<!-- GO:0016832 -->
<g id="node2" class="node">
<title>GO:0016832</title>
<polygon fill="#ffffff" stroke="#000000" points="145.8767,-135.8019 -.0267,-135.8019 -.0267,-94.5981 145.8767,-94.5981 145.8767,-135.8019"/>
<text text-anchor="middle" x="72.925" y="-119.4" font-family="Times,serif" font-size="14.00" fill="#000000">GO:0016832</text>
<text text-anchor="middle" x="72.925" y="-102.6" font-family="Times,serif" font-size="14.00" fill="#000000">aldehyde&#45;lyase activity</text>
</g>
<!-- GO:0004139&#45;&gt;GO:0016832 -->
<g id="edge1" class="edge">
<title>GO:0004139&#45;&gt;GO:0016832</title>
<path fill="none" stroke="#000000" d="M72.925,-58.7963C72.925,-67.0638 72.925,-76.0657 72.925,-84.4008"/>
<polygon fill="#000000" stroke="#000000" points="69.4251,-84.4965 72.925,-94.4966 76.4251,-84.4966 69.4251,-84.4965"/>
</g>
<!-- GO:0016830 -->
<g id="node3" class="node">
<title>GO:0016830</title>
<polygon fill="#ffffff" stroke="#000000" points="137.5296,-230.6014 8.3204,-230.6014 8.3204,-171.7986 137.5296,-171.7986 137.5296,-230.6014"/>
<text text-anchor="middle" x="72.925" y="-213.8" font-family="Times,serif" font-size="14.00" fill="#000000">GO:0016830</text>
<text text-anchor="middle" x="72.925" y="-197" font-family="Times,serif" font-size="14.00" fill="#000000">carbon&#45;carbon lyase</text>
<text text-anchor="middle" x="72.925" y="-180.2" font-family="Times,serif" font-size="14.00" fill="#000000">activity</text>
</g>
<!-- GO:0016832&#45;&gt;GO:0016830 -->
<g id="edge2" class="edge">
<title>GO:0016832&#45;&gt;GO:0016830</title>
<path fill="none" stroke="#000000" d="M72.925,-136.0182C72.925,-143.7358 72.925,-152.7662 72.925,-161.6036"/>
<polygon fill="#000000" stroke="#000000" points="69.4251,-161.7991 72.925,-171.7991 76.4251,-161.7992 69.4251,-161.7991"/>
</g>
<!-- GO:0016829 -->
<g id="node4" class="node">
<title>GO:0016829</title>
<polygon fill="#ffffff" stroke="#000000" points="118.1814,-307.8019 27.6686,-307.8019 27.6686,-266.5981 118.1814,-266.5981 118.1814,-307.8019"/>
<text text-anchor="middle" x="72.925" y="-291.4" font-family="Times,serif" font-size="14.00" fill="#000000">GO:0016829</text>
<text text-anchor="middle" x="72.925" y="-274.6" font-family="Times,serif" font-size="14.00" fill="#000000">lyase activity</text>
</g>
<!-- GO:0016830&#45;&gt;GO:0016829 -->
<g id="edge3" class="edge">
<title>GO:0016830&#45;&gt;GO:0016829</title>
<path fill="none" stroke="#000000" d="M72.925,-230.7963C72.925,-239.0638 72.925,-248.0657 72.925,-256.4008"/>
<polygon fill="#000000" stroke="#000000" points="69.4251,-256.4965 72.925,-266.4966 76.4251,-256.4966 69.4251,-256.4965"/>
</g>
<!-- GO:0003824 -->
<g id="node5" class="node">
<title>GO:0003824</title>
<polygon fill="#ffffff" stroke="#000000" points="127.3374,-385.4019 18.5126,-385.4019 18.5126,-344.1981 127.3374,-344.1981 127.3374,-385.4019"/>
<text text-anchor="middle" x="72.925" y="-369" font-family="Times,serif" font-size="14.00" fill="#000000">GO:0003824</text>
<text text-anchor="middle" x="72.925" y="-352.2" font-family="Times,serif" font-size="14.00" fill="#000000">catalytic activity</text>
</g>
<!-- GO:0016829&#45;&gt;GO:0003824 -->
<g id="edge4" class="edge">
<title>GO:0016829&#45;&gt;GO:0003824</title>
<path fill="none" stroke="#000000" d="M72.925,-307.9954C72.925,-315.9109 72.925,-325.1109 72.925,-333.7722"/>
<polygon fill="#000000" stroke="#000000" points="69.4251,-333.9472 72.925,-343.9472 76.4251,-333.9473 69.4251,-333.9472"/>
</g>
<!-- GO:0003674 -->
<g id="node6" class="node">
<title>GO:0003674</title>
<polygon fill="#ffffff" stroke="#000000" points="135.5581,-463.0019 10.2919,-463.0019 10.2919,-421.7981 135.5581,-421.7981 135.5581,-463.0019"/>
<text text-anchor="middle" x="72.925" y="-446.6" font-family="Times,serif" font-size="14.00" fill="#000000">GO:0003674</text>
<text text-anchor="middle" x="72.925" y="-429.8" font-family="Times,serif" font-size="14.00" fill="#000000">molecular_function</text>
</g>
<!-- GO:0003824&#45;&gt;GO:0003674 -->
<g id="edge5" class="edge">
<title>GO:0003824&#45;&gt;GO:0003674</title>
<path fill="none" stroke="#000000" d="M72.925,-385.5954C72.925,-393.5109 72.925,-402.7109 72.925,-411.3722"/>
<polygon fill="#000000" stroke="#000000" points="69.4251,-411.5472 72.925,-421.5472 76.4251,-411.5473 69.4251,-411.5472"/>
</g>
</g>
</svg>
