<?xml version="1.0" encoding="UTF-8" standalone="no"?>
<!DOCTYPE svg PUBLIC "-//W3C//DTD SVG 1.1//EN"
 "http://www.w3.org/Graphics/SVG/1.1/DTD/svg11.dtd">
<!-- Generated by graphviz version 2.40.1 (20161225.0304)
 -->
<!-- Title: G Pages: 1 -->
<svg width="1199pt" height="599pt"
 viewBox="0.00 0.00 1199.50 599.20" xmlns="http://www.w3.org/2000/svg" xmlns:xlink="http://www.w3.org/1999/xlink">
<g id="graph0" class="graph" transform="scale(1 1) rotate(0) translate(4 595.2)">
<title>G</title>
<polygon fill="#ffffff" stroke="transparent" points="-4,4 -4,-595.2 1195.4976,-595.2 1195.4976,4 -4,4"/>
<!-- GO:0055036 -->
<g id="node1" class="node">
<title>GO:0055036</title>
<polygon fill="#ffffff" stroke="#000000" points="234.1484,-427.4019 122.0936,-427.4019 122.0936,-386.1981 234.1484,-386.1981 234.1484,-427.4019"/>
<text text-anchor="middle" x="178.121" y="-411" font-family="Times,serif" font-size="14.00" fill="#000000">GO:0055036</text>
<text text-anchor="middle" x="178.121" y="-394.2" font-family="Times,serif" font-size="14.00" fill="#000000">virion membrane</text>
</g>
<!-- GO:0016020 -->
<g id="node2" class="node">
<title>GO:0016020</title>
<polygon fill="#ffffff" stroke="#000000" points="350.7249,-513.4019 261.5171,-513.4019 261.5171,-472.1981 350.7249,-472.1981 350.7249,-513.4019"/>
<text text-anchor="middle" x="306.121" y="-497" font-family="Times,serif" font-size="14.00" fill="#000000">GO:0016020</text>
<text text-anchor="middle" x="306.121" y="-480.2" font-family="Times,serif" font-size="14.00" fill="#000000">membrane</text>
</g>
<!-- GO:0055036&#45;&gt;GO:0016020 -->
<g id="edge1" class="edge">
<title>GO:0055036&#45;&gt;GO:0016020</title>
<path fill="none" stroke="#000000" d="M209.1062,-427.6182C226.4796,-439.2909 248.3226,-453.9667 266.8815,-466.4359"/>
<polygon fill="#000000" stroke="#000000" points="265.1687,-469.5018 275.4211,-472.1735 269.0725,-463.6914 265.1687,-469.5018"/>
</g>
<!-- GO:0044423 -->
<g id="node3" class="node">
<title>GO:0044423</title>
<polygon fill="#ffffff" stroke="#000000" points="222.7249,-513.4019 133.5171,-513.4019 133.5171,-472.1981 222.7249,-472.1981 222.7249,-513.4019"/>
<text text-anchor="middle" x="178.121" y="-497" font-family="Times,serif" font-size="14.00" fill="#000000">GO:0044423</text>
<text text-anchor="middle" x="178.121" y="-480.2" font-family="Times,serif" font-size="14.00" fill="#000000">virion part</text>
</g>
<!-- GO:0055036&#45;&gt;GO:0044423 -->
<g id="edge2" class="edge">
<title>GO:0055036&#45;&gt;GO:0044423</title>
<path fill="none" stroke="#000000" d="M178.121,-427.6182C178.121,-437.9705 178.121,-450.6848 178.121,-462.1271"/>
<polygon fill="#000000" stroke="#000000" points="174.6211,-462.1735 178.121,-472.1735 181.6211,-462.1735 174.6211,-462.1735"/>
</g>
<!-- GO:0005575 -->
<g id="node4" class="node">
<title>GO:0005575</title>
<polygon fill="#ffffff" stroke="#000000" points="745.8077,-591.0019 618.4343,-591.0019 618.4343,-549.7981 745.8077,-549.7981 745.8077,-591.0019"/>
<text text-anchor="middle" x="682.121" y="-574.6" font-family="Times,serif" font-size="14.00" fill="#000000">GO:0005575</text>
<text text-anchor="middle" x="682.121" y="-557.8" font-family="Times,serif" font-size="14.00" fill="#000000">cellular_component</text>
</g>
<!-- GO:0016020&#45;&gt;GO:0005575 -->
<g id="edge3" class="edge">
<title>GO:0016020&#45;&gt;GO:0005575</title>
<path fill="none" stroke="#000000" d="M350.7297,-502.0065C414.3066,-515.1277 531.7485,-539.3657 608.3824,-555.1816"/>
<polygon fill="#000000" stroke="#000000" points="607.948,-558.6657 618.4491,-557.2592 609.363,-551.8101 607.948,-558.6657"/>
</g>
<!-- GO:0044423&#45;&gt;GO:0005575 -->
<g id="edge4" class="edge">
<title>GO:0044423&#45;&gt;GO:0005575</title>
<path fill="none" stroke="#000000" d="M222.8723,-506.4845C232.4609,-509.1052 242.5785,-511.6391 252.121,-513.6 375.8044,-539.0161 521.9478,-555.5061 608.0623,-563.8588"/>
<polygon fill="#000000" stroke="#000000" points="607.9724,-567.3661 618.261,-564.8371 608.6409,-560.3981 607.9724,-567.3661"/>
</g>
<!-- GO:0009279 -->
<g id="node5" class="node">
<title>GO:0009279</title>
<polygon fill="#ffffff" stroke="#000000" points="437.6828,-333.0019 306.5592,-333.0019 306.5592,-291.7981 437.6828,-291.7981 437.6828,-333.0019"/>
<text text-anchor="middle" x="372.121" y="-316.6" font-family="Times,serif" font-size="14.00" fill="#000000">GO:0009279</text>
<text text-anchor="middle" x="372.121" y="-299.8" font-family="Times,serif" font-size="14.00" fill="#000000">cell outer membrane</text>
</g>
<!-- GO:0044462 -->
<g id="node6" class="node">
<title>GO:0044462</title>
<polygon fill="#ffffff" stroke="#000000" points="518.6821,-436.2014 377.5599,-436.2014 377.5599,-377.3986 518.6821,-377.3986 518.6821,-436.2014"/>
<text text-anchor="middle" x="448.121" y="-419.4" font-family="Times,serif" font-size="14.00" fill="#000000">GO:0044462</text>
<text text-anchor="middle" x="448.121" y="-402.6" font-family="Times,serif" font-size="14.00" fill="#000000">external encapsulating</text>
<text text-anchor="middle" x="448.121" y="-385.8" font-family="Times,serif" font-size="14.00" fill="#000000">structure part</text>
</g>
<!-- GO:0009279&#45;&gt;GO:0044462 -->
<g id="edge5" class="edge">
<title>GO:0009279&#45;&gt;GO:0044462</title>
<path fill="none" stroke="#000000" d="M388.9879,-333.3504C397.5256,-343.9552 408.1503,-357.1522 418.029,-369.4225"/>
<polygon fill="#000000" stroke="#000000" points="415.3861,-371.7211 424.3835,-377.3155 420.8387,-367.3313 415.3861,-371.7211"/>
</g>
<!-- GO:0019867 -->
<g id="node7" class="node">
<title>GO:0019867</title>
<polygon fill="#ffffff" stroke="#000000" points="359.973,-427.4019 252.269,-427.4019 252.269,-386.1981 359.973,-386.1981 359.973,-427.4019"/>
<text text-anchor="middle" x="306.121" y="-411" font-family="Times,serif" font-size="14.00" fill="#000000">GO:0019867</text>
<text text-anchor="middle" x="306.121" y="-394.2" font-family="Times,serif" font-size="14.00" fill="#000000">outer membrane</text>
</g>
<!-- GO:0009279&#45;&gt;GO:0019867 -->
<g id="edge6" class="edge">
<title>GO:0009279&#45;&gt;GO:0019867</title>
<path fill="none" stroke="#000000" d="M357.4735,-333.3504C348.416,-346.3054 336.6539,-363.1287 326.6724,-377.4053"/>
<polygon fill="#000000" stroke="#000000" points="323.5891,-375.707 320.7276,-385.9081 329.3261,-379.718 323.5891,-375.707"/>
</g>
<!-- GO:0044464 -->
<g id="node8" class="node">
<title>GO:0044464</title>
<polygon fill="#ffffff" stroke="#000000" points="617.7249,-513.4019 528.5171,-513.4019 528.5171,-472.1981 617.7249,-472.1981 617.7249,-513.4019"/>
<text text-anchor="middle" x="573.121" y="-497" font-family="Times,serif" font-size="14.00" fill="#000000">GO:0044464</text>
<text text-anchor="middle" x="573.121" y="-480.2" font-family="Times,serif" font-size="14.00" fill="#000000">cell part</text>
</g>
<!-- GO:0044462&#45;&gt;GO:0044464 -->
<g id="edge7" class="edge">
<title>GO:0044462&#45;&gt;GO:0044464</title>
<path fill="none" stroke="#000000" d="M490.7893,-436.1558C504.9632,-445.9074 520.6551,-456.7035 534.5052,-466.2323"/>
<polygon fill="#000000" stroke="#000000" points="532.6384,-469.1963 542.8607,-471.9809 536.6061,-463.4293 532.6384,-469.1963"/>
</g>
<!-- GO:0019867&#45;&gt;GO:0016020 -->
<g id="edge8" class="edge">
<title>GO:0019867&#45;&gt;GO:0016020</title>
<path fill="none" stroke="#000000" d="M306.121,-427.6182C306.121,-437.9705 306.121,-450.6848 306.121,-462.1271"/>
<polygon fill="#000000" stroke="#000000" points="302.6211,-462.1735 306.121,-472.1735 309.6211,-462.1735 302.6211,-462.1735"/>
</g>
<!-- GO:0044464&#45;&gt;GO:0005575 -->
<g id="edge9" class="edge">
<title>GO:0044464&#45;&gt;GO:0005575</title>
<path fill="none" stroke="#000000" d="M602.331,-513.5954C615.2821,-522.8156 630.6814,-533.7788 644.4811,-543.6031"/>
<polygon fill="#000000" stroke="#000000" points="642.654,-546.5988 652.8304,-549.5472 646.7138,-540.8963 642.654,-546.5988"/>
</g>
<!-- GO:0044174 -->
<g id="node9" class="node">
<title>GO:0044174</title>
<polygon fill="#ffffff" stroke="#000000" points="811.9314,-41.4019 688.3106,-41.4019 688.3106,-.1981 811.9314,-.1981 811.9314,-41.4019"/>
<text text-anchor="middle" x="750.121" y="-25" font-family="Times,serif" font-size="14.00" fill="#000000">GO:0044174</text>
<text text-anchor="middle" x="750.121" y="-8.2" font-family="Times,serif" font-size="14.00" fill="#000000">host cell endosome</text>
</g>
<!-- GO:0033648 -->
<g id="node10" class="node">
<title>GO:0033648</title>
<polygon fill="#ffffff" stroke="#000000" points="736.0818,-152.9003 608.1602,-152.9003 608.1602,-77.4997 736.0818,-77.4997 736.0818,-152.9003"/>
<text text-anchor="middle" x="672.121" y="-136.2" font-family="Times,serif" font-size="14.00" fill="#000000">GO:0033648</text>
<text text-anchor="middle" x="672.121" y="-119.4" font-family="Times,serif" font-size="14.00" fill="#000000">host intracellular</text>
<text text-anchor="middle" x="672.121" y="-102.6" font-family="Times,serif" font-size="14.00" fill="#000000">membrane&#45;bounded</text>
<text text-anchor="middle" x="672.121" y="-85.8" font-family="Times,serif" font-size="14.00" fill="#000000">organelle</text>
</g>
<!-- GO:0044174&#45;&gt;GO:0033648 -->
<g id="edge10" class="edge">
<title>GO:0044174&#45;&gt;GO:0033648</title>
<path fill="none" stroke="#000000" d="M732.8103,-41.7504C725.9399,-50.0654 717.7527,-59.9739 709.6503,-69.7799"/>
<polygon fill="#000000" stroke="#000000" points="706.8689,-67.6514 703.1973,-77.5897 712.2651,-72.1101 706.8689,-67.6514"/>
</g>
<!-- GO:0033655 -->
<g id="node11" class="node">
<title>GO:0033655</title>
<polygon fill="#ffffff" stroke="#000000" points="903.9784,-135.8019 754.2636,-135.8019 754.2636,-94.5981 903.9784,-94.5981 903.9784,-135.8019"/>
<text text-anchor="middle" x="829.121" y="-119.4" font-family="Times,serif" font-size="14.00" fill="#000000">GO:0033655</text>
<text text-anchor="middle" x="829.121" y="-102.6" font-family="Times,serif" font-size="14.00" fill="#000000">host cell cytoplasm part</text>
</g>
<!-- GO:0044174&#45;&gt;GO:0033655 -->
<g id="edge11" class="edge">
<title>GO:0044174&#45;&gt;GO:0033655</title>
<path fill="none" stroke="#000000" d="M767.6537,-41.7504C778.6997,-54.9498 793.1064,-72.1649 805.1956,-86.6107"/>
<polygon fill="#000000" stroke="#000000" points="802.5354,-88.8855 811.6373,-94.3081 807.9036,-84.393 802.5354,-88.8855"/>
</g>
<!-- GO:0033647 -->
<g id="node12" class="node">
<title>GO:0033647</title>
<polygon fill="#ffffff" stroke="#000000" points="801.5898,-247.4014 690.6522,-247.4014 690.6522,-188.5986 801.5898,-188.5986 801.5898,-247.4014"/>
<text text-anchor="middle" x="746.121" y="-230.6" font-family="Times,serif" font-size="14.00" fill="#000000">GO:0033647</text>
<text text-anchor="middle" x="746.121" y="-213.8" font-family="Times,serif" font-size="14.00" fill="#000000">host intracellular</text>
<text text-anchor="middle" x="746.121" y="-197" font-family="Times,serif" font-size="14.00" fill="#000000">organelle</text>
</g>
<!-- GO:0033648&#45;&gt;GO:0033647 -->
<g id="edge12" class="edge">
<title>GO:0033648&#45;&gt;GO:0033647</title>
<path fill="none" stroke="#000000" d="M699.2557,-152.8952C705.6951,-161.8407 712.5645,-171.3837 719.0031,-180.3282"/>
<polygon fill="#000000" stroke="#000000" points="716.3333,-182.6102 725.0161,-188.6814 722.0145,-178.5206 716.3333,-182.6102"/>
</g>
<!-- GO:0033646 -->
<g id="node13" class="node">
<title>GO:0033646</title>
<polygon fill="#ffffff" stroke="#000000" points="843.8549,-333.0019 708.3871,-333.0019 708.3871,-291.7981 843.8549,-291.7981 843.8549,-333.0019"/>
<text text-anchor="middle" x="776.121" y="-316.6" font-family="Times,serif" font-size="14.00" fill="#000000">GO:0033646</text>
<text text-anchor="middle" x="776.121" y="-299.8" font-family="Times,serif" font-size="14.00" fill="#000000">host intracellular part</text>
</g>
<!-- GO:0033655&#45;&gt;GO:0033646 -->
<g id="edge13" class="edge">
<title>GO:0033655&#45;&gt;GO:0033646</title>
<path fill="none" stroke="#000000" d="M828.2995,-135.807C826.7661,-162.1979 822.4093,-209.0771 810.121,-247.2 806.2134,-259.3229 800.1872,-271.9 794.2873,-282.7357"/>
<polygon fill="#000000" stroke="#000000" points="791.0636,-281.3265 789.1916,-291.7546 797.1581,-284.77 791.0636,-281.3265"/>
</g>
<!-- GO:0033647&#45;&gt;GO:0033646 -->
<g id="edge14" class="edge">
<title>GO:0033647&#45;&gt;GO:0033646</title>
<path fill="none" stroke="#000000" d="M755.4487,-247.3513C758.9517,-258.3739 762.9387,-270.9196 766.4704,-282.0326"/>
<polygon fill="#000000" stroke="#000000" points="763.1944,-283.2807 769.5588,-291.751 769.8657,-281.1606 763.1944,-283.2807"/>
</g>
<!-- GO:0033643 -->
<g id="node14" class="node">
<title>GO:0033643</title>
<polygon fill="#ffffff" stroke="#000000" points="849.7249,-427.4019 760.5171,-427.4019 760.5171,-386.1981 849.7249,-386.1981 849.7249,-427.4019"/>
<text text-anchor="middle" x="805.121" y="-411" font-family="Times,serif" font-size="14.00" fill="#000000">GO:0033643</text>
<text text-anchor="middle" x="805.121" y="-394.2" font-family="Times,serif" font-size="14.00" fill="#000000">host cell part</text>
</g>
<!-- GO:0033646&#45;&gt;GO:0033643 -->
<g id="edge15" class="edge">
<title>GO:0033646&#45;&gt;GO:0033643</title>
<path fill="none" stroke="#000000" d="M782.557,-333.3504C786.4242,-345.9387 791.4134,-362.1795 795.7166,-376.1872"/>
<polygon fill="#000000" stroke="#000000" points="792.4206,-377.3769 798.703,-385.9081 799.112,-375.3212 792.4206,-377.3769"/>
</g>
<!-- GO:0044217 -->
<g id="node15" class="node">
<title>GO:0044217</title>
<polygon fill="#ffffff" stroke="#000000" points="871.7541,-513.4019 746.4879,-513.4019 746.4879,-472.1981 871.7541,-472.1981 871.7541,-513.4019"/>
<text text-anchor="middle" x="809.121" y="-497" font-family="Times,serif" font-size="14.00" fill="#000000">GO:0044217</text>
<text text-anchor="middle" x="809.121" y="-480.2" font-family="Times,serif" font-size="14.00" fill="#000000">other organism part</text>
</g>
<!-- GO:0033643&#45;&gt;GO:0044217 -->
<g id="edge16" class="edge">
<title>GO:0033643&#45;&gt;GO:0044217</title>
<path fill="none" stroke="#000000" d="M806.0893,-427.6182C806.5708,-437.9705 807.1622,-450.6848 807.6944,-462.1271"/>
<polygon fill="#000000" stroke="#000000" points="804.2007,-462.347 808.1616,-472.1735 811.1931,-462.0217 804.2007,-462.347"/>
</g>
<!-- GO:0044217&#45;&gt;GO:0005575 -->
<g id="edge17" class="edge">
<title>GO:0044217&#45;&gt;GO:0005575</title>
<path fill="none" stroke="#000000" d="M775.0873,-513.5954C759.7128,-522.9896 741.3771,-534.1931 725.0686,-544.158"/>
<polygon fill="#000000" stroke="#000000" points="722.9569,-541.3466 716.2486,-549.5472 726.6067,-547.3198 722.9569,-541.3466"/>
</g>
<!-- GO:0044175 -->
<g id="node16" class="node">
<title>GO:0044175</title>
<polygon fill="#ffffff" stroke="#000000" points="1044.9314,-144.6014 921.3106,-144.6014 921.3106,-85.7986 1044.9314,-85.7986 1044.9314,-144.6014"/>
<text text-anchor="middle" x="983.121" y="-127.8" font-family="Times,serif" font-size="14.00" fill="#000000">GO:0044175</text>
<text text-anchor="middle" x="983.121" y="-111" font-family="Times,serif" font-size="14.00" fill="#000000">host cell endosome</text>
<text text-anchor="middle" x="983.121" y="-94.2" font-family="Times,serif" font-size="14.00" fill="#000000">membrane</text>
</g>
<!-- GO:0033644 -->
<g id="node17" class="node">
<title>GO:0033644</title>
<polygon fill="#ffffff" stroke="#000000" points="1024.7527,-238.6019 899.4893,-238.6019 899.4893,-197.3981 1024.7527,-197.3981 1024.7527,-238.6019"/>
<text text-anchor="middle" x="962.121" y="-222.2" font-family="Times,serif" font-size="14.00" fill="#000000">GO:0033644</text>
<text text-anchor="middle" x="962.121" y="-205.4" font-family="Times,serif" font-size="14.00" fill="#000000">host cell membrane</text>
</g>
<!-- GO:0044175&#45;&gt;GO:0033644 -->
<g id="edge18" class="edge">
<title>GO:0044175&#45;&gt;GO:0033644</title>
<path fill="none" stroke="#000000" d="M977.1032,-144.6584C974.3603,-158.0856 971.115,-173.9721 968.3474,-187.5204"/>
<polygon fill="#000000" stroke="#000000" points="964.9126,-186.8474 966.3403,-197.3456 971.771,-188.2485 964.9126,-186.8474"/>
</g>
<!-- GO:0033644&#45;&gt;GO:0033643 -->
<g id="edge19" class="edge">
<title>GO:0033644&#45;&gt;GO:0033643</title>
<path fill="none" stroke="#000000" d="M936.6649,-238.6241C922.4332,-250.8041 904.8522,-266.9772 891.121,-283.2 871.1149,-306.8364 870.7522,-316.1429 853.121,-341.6 844.7666,-353.6627 835.2441,-366.7291 826.8954,-377.975"/>
<polygon fill="#000000" stroke="#000000" points="823.9535,-376.0651 820.7787,-386.173 829.564,-380.2512 823.9535,-376.0651"/>
</g>
<!-- GO:0044218 -->
<g id="node18" class="node">
<title>GO:0044218</title>
<polygon fill="#ffffff" stroke="#000000" points="1024.1982,-341.8014 900.0438,-341.8014 900.0438,-282.9986 1024.1982,-282.9986 1024.1982,-341.8014"/>
<text text-anchor="middle" x="962.121" y="-325" font-family="Times,serif" font-size="14.00" fill="#000000">GO:0044218</text>
<text text-anchor="middle" x="962.121" y="-308.2" font-family="Times,serif" font-size="14.00" fill="#000000">other organism cell</text>
<text text-anchor="middle" x="962.121" y="-291.4" font-family="Times,serif" font-size="14.00" fill="#000000">membrane</text>
</g>
<!-- GO:0033644&#45;&gt;GO:0044218 -->
<g id="edge20" class="edge">
<title>GO:0033644&#45;&gt;GO:0044218</title>
<path fill="none" stroke="#000000" d="M962.121,-238.9504C962.121,-248.9492 962.121,-261.2525 962.121,-272.9106"/>
<polygon fill="#000000" stroke="#000000" points="958.6211,-272.9155 962.121,-282.9155 965.6211,-272.9156 958.6211,-272.9155"/>
</g>
<!-- GO:0044279 -->
<g id="node19" class="node">
<title>GO:0044279</title>
<polygon fill="#ffffff" stroke="#000000" points="1030.5734,-427.4019 867.6686,-427.4019 867.6686,-386.1981 1030.5734,-386.1981 1030.5734,-427.4019"/>
<text text-anchor="middle" x="949.121" y="-411" font-family="Times,serif" font-size="14.00" fill="#000000">GO:0044279</text>
<text text-anchor="middle" x="949.121" y="-394.2" font-family="Times,serif" font-size="14.00" fill="#000000">other organism membrane</text>
</g>
<!-- GO:0044218&#45;&gt;GO:0044279 -->
<g id="edge21" class="edge">
<title>GO:0044218&#45;&gt;GO:0044279</title>
<path fill="none" stroke="#000000" d="M958.079,-341.7513C956.5765,-352.6614 954.8686,-365.0637 953.3499,-376.092"/>
<polygon fill="#000000" stroke="#000000" points="949.8617,-375.767 951.9646,-386.151 956.7962,-376.722 949.8617,-375.767"/>
</g>
<!-- GO:0044279&#45;&gt;GO:0044217 -->
<g id="edge22" class="edge">
<title>GO:0044279&#45;&gt;GO:0044217</title>
<path fill="none" stroke="#000000" d="M915.2309,-427.6182C896.0568,-439.3966 871.9051,-454.2326 851.489,-466.7739"/>
<polygon fill="#000000" stroke="#000000" points="849.3878,-463.957 842.699,-472.1735 853.0518,-469.9216 849.3878,-463.957"/>
</g>
<!-- GO:0016021 -->
<g id="node20" class="node">
<title>GO:0016021</title>
<polygon fill="#ffffff" stroke="#000000" points="1189.7541,-341.8014 1050.4879,-341.8014 1050.4879,-282.9986 1189.7541,-282.9986 1189.7541,-341.8014"/>
<text text-anchor="middle" x="1120.121" y="-325" font-family="Times,serif" font-size="14.00" fill="#000000">GO:0016021</text>
<text text-anchor="middle" x="1120.121" y="-308.2" font-family="Times,serif" font-size="14.00" fill="#000000">integral component of</text>
<text text-anchor="middle" x="1120.121" y="-291.4" font-family="Times,serif" font-size="14.00" fill="#000000">membrane</text>
</g>
<!-- GO:0031224 -->
<g id="node21" class="node">
<title>GO:0031224</title>
<polygon fill="#ffffff" stroke="#000000" points="1191.3744,-436.2014 1048.8676,-436.2014 1048.8676,-377.3986 1191.3744,-377.3986 1191.3744,-436.2014"/>
<text text-anchor="middle" x="1120.121" y="-419.4" font-family="Times,serif" font-size="14.00" fill="#000000">GO:0031224</text>
<text text-anchor="middle" x="1120.121" y="-402.6" font-family="Times,serif" font-size="14.00" fill="#000000">intrinsic component of</text>
<text text-anchor="middle" x="1120.121" y="-385.8" font-family="Times,serif" font-size="14.00" fill="#000000">membrane</text>
</g>
<!-- GO:0016021&#45;&gt;GO:0031224 -->
<g id="edge23" class="edge">
<title>GO:0016021&#45;&gt;GO:0031224</title>
<path fill="none" stroke="#000000" d="M1120.121,-341.7513C1120.121,-349.8318 1120.121,-358.7308 1120.121,-367.2838"/>
<polygon fill="#000000" stroke="#000000" points="1116.6211,-367.4668 1120.121,-377.4669 1123.6211,-367.4669 1116.6211,-367.4668"/>
</g>
<!-- GO:0044425 -->
<g id="node22" class="node">
<title>GO:0044425</title>
<polygon fill="#ffffff" stroke="#000000" points="990.473,-513.4019 889.769,-513.4019 889.769,-472.1981 990.473,-472.1981 990.473,-513.4019"/>
<text text-anchor="middle" x="940.121" y="-497" font-family="Times,serif" font-size="14.00" fill="#000000">GO:0044425</text>
<text text-anchor="middle" x="940.121" y="-480.2" font-family="Times,serif" font-size="14.00" fill="#000000">membrane part</text>
</g>
<!-- GO:0031224&#45;&gt;GO:0044425 -->
<g id="edge24" class="edge">
<title>GO:0031224&#45;&gt;GO:0044425</title>
<path fill="none" stroke="#000000" d="M1058.93,-436.0357C1037.3647,-446.3391 1013.3324,-457.8212 992.5553,-467.748"/>
<polygon fill="#000000" stroke="#000000" points="990.7729,-464.7206 983.2587,-472.1898 993.7907,-471.0368 990.7729,-464.7206"/>
</g>
<!-- GO:0044425&#45;&gt;GO:0005575 -->
<g id="edge25" class="edge">
<title>GO:0044425&#45;&gt;GO:0005575</title>
<path fill="none" stroke="#000000" d="M889.6587,-510.8174C886.776,-511.7757 883.915,-512.7097 881.121,-513.6 839.9553,-526.7178 793.5532,-540.045 755.9179,-550.4903"/>
<polygon fill="#000000" stroke="#000000" points="754.7539,-547.1807 746.0484,-553.2193 756.6195,-553.9276 754.7539,-547.1807"/>
</g>
<!-- GO:0019012 -->
<g id="node23" class="node">
<title>GO:0019012</title>
<polygon fill="#ffffff" stroke="#000000" points="1097.7249,-513.4019 1008.5171,-513.4019 1008.5171,-472.1981 1097.7249,-472.1981 1097.7249,-513.4019"/>
<text text-anchor="middle" x="1053.121" y="-497" font-family="Times,serif" font-size="14.00" fill="#000000">GO:0019012</text>
<text text-anchor="middle" x="1053.121" y="-480.2" font-family="Times,serif" font-size="14.00" fill="#000000">virion</text>
</g>
<!-- GO:0019012&#45;&gt;GO:0005575 -->
<g id="edge26" class="edge">
<title>GO:0019012&#45;&gt;GO:0005575</title>
<path fill="none" stroke="#000000" d="M1008.553,-510.719C1005.3832,-511.7609 1002.2172,-512.7348 999.121,-513.6 917.211,-536.4885 820.7209,-552.2306 755.8965,-561.238"/>
<polygon fill="#000000" stroke="#000000" points="755.2036,-557.8001 745.7716,-562.6258 756.1543,-564.7353 755.2036,-557.8001"/>
</g>
<!-- GO:0019031 -->
<g id="node24" class="node">
<title>GO:0019031</title>
<polygon fill="#ffffff" stroke="#000000" points="99.8123,-333.0019 4.4297,-333.0019 4.4297,-291.7981 99.8123,-291.7981 99.8123,-333.0019"/>
<text text-anchor="middle" x="52.121" y="-316.6" font-family="Times,serif" font-size="14.00" fill="#000000">GO:0019031</text>
<text text-anchor="middle" x="52.121" y="-299.8" font-family="Times,serif" font-size="14.00" fill="#000000">viral envelope</text>
</g>
<!-- GO:0036338 -->
<g id="node25" class="node">
<title>GO:0036338</title>
<polygon fill="#ffffff" stroke="#000000" points="104.3633,-427.4019 -.1213,-427.4019 -.1213,-386.1981 104.3633,-386.1981 104.3633,-427.4019"/>
<text text-anchor="middle" x="52.121" y="-411" font-family="Times,serif" font-size="14.00" fill="#000000">GO:0036338</text>
<text text-anchor="middle" x="52.121" y="-394.2" font-family="Times,serif" font-size="14.00" fill="#000000">viral membrane</text>
</g>
<!-- GO:0019031&#45;&gt;GO:0036338 -->
<g id="edge27" class="edge">
<title>GO:0019031&#45;&gt;GO:0036338</title>
<path fill="none" stroke="#000000" d="M52.121,-333.3504C52.121,-345.8165 52.121,-361.8645 52.121,-375.7786"/>
<polygon fill="#000000" stroke="#000000" points="48.6211,-375.9081 52.121,-385.9081 55.6211,-375.9082 48.6211,-375.9081"/>
</g>
<!-- GO:0036338&#45;&gt;GO:0044423 -->
<g id="edge28" class="edge">
<title>GO:0036338&#45;&gt;GO:0044423</title>
<path fill="none" stroke="#000000" d="M82.6221,-427.6182C99.6466,-439.2381 121.0312,-453.834 139.2464,-466.2665"/>
<polygon fill="#000000" stroke="#000000" points="137.6682,-469.4269 147.9008,-472.1735 141.6144,-463.6452 137.6682,-469.4269"/>
</g>
<!-- GO:0009425 -->
<g id="node26" class="node">
<title>GO:0009425</title>
<polygon fill="#ffffff" stroke="#000000" points="505.2298,-247.4014 355.0122,-247.4014 355.0122,-188.5986 505.2298,-188.5986 505.2298,-247.4014"/>
<text text-anchor="middle" x="430.121" y="-230.6" font-family="Times,serif" font-size="14.00" fill="#000000">GO:0009425</text>
<text text-anchor="middle" x="430.121" y="-213.8" font-family="Times,serif" font-size="14.00" fill="#000000">bacterial&#45;type flagellum</text>
<text text-anchor="middle" x="430.121" y="-197" font-family="Times,serif" font-size="14.00" fill="#000000">basal body</text>
</g>
<!-- GO:0044461 -->
<g id="node27" class="node">
<title>GO:0044461</title>
<polygon fill="#ffffff" stroke="#000000" points="673.2298,-341.8014 523.0122,-341.8014 523.0122,-282.9986 673.2298,-282.9986 673.2298,-341.8014"/>
<text text-anchor="middle" x="598.121" y="-325" font-family="Times,serif" font-size="14.00" fill="#000000">GO:0044461</text>
<text text-anchor="middle" x="598.121" y="-308.2" font-family="Times,serif" font-size="14.00" fill="#000000">bacterial&#45;type flagellum</text>
<text text-anchor="middle" x="598.121" y="-291.4" font-family="Times,serif" font-size="14.00" fill="#000000">part</text>
</g>
<!-- GO:0009425&#45;&gt;GO:0044461 -->
<g id="edge29" class="edge">
<title>GO:0009425&#45;&gt;GO:0044461</title>
<path fill="none" stroke="#000000" d="M482.3563,-247.3513C499.5814,-257.0301 518.8963,-267.8833 536.7399,-277.9097"/>
<polygon fill="#000000" stroke="#000000" points="535.4854,-281.2194 545.918,-283.0669 538.9145,-275.1169 535.4854,-281.2194"/>
</g>
<!-- GO:0044463 -->
<g id="node28" class="node">
<title>GO:0044463</title>
<polygon fill="#ffffff" stroke="#000000" points="658.8591,-427.4019 537.3829,-427.4019 537.3829,-386.1981 658.8591,-386.1981 658.8591,-427.4019"/>
<text text-anchor="middle" x="598.121" y="-411" font-family="Times,serif" font-size="14.00" fill="#000000">GO:0044463</text>
<text text-anchor="middle" x="598.121" y="-394.2" font-family="Times,serif" font-size="14.00" fill="#000000">cell projection part</text>
</g>
<!-- GO:0044461&#45;&gt;GO:0044463 -->
<g id="edge30" class="edge">
<title>GO:0044461&#45;&gt;GO:0044463</title>
<path fill="none" stroke="#000000" d="M598.121,-341.7513C598.121,-352.6614 598.121,-365.0637 598.121,-376.092"/>
<polygon fill="#000000" stroke="#000000" points="594.6211,-376.1509 598.121,-386.151 601.6211,-376.151 594.6211,-376.1509"/>
</g>
<!-- GO:0044422 -->
<g id="node29" class="node">
<title>GO:0044422</title>
<polygon fill="#ffffff" stroke="#000000" points="728.9731,-513.4019 635.2689,-513.4019 635.2689,-472.1981 728.9731,-472.1981 728.9731,-513.4019"/>
<text text-anchor="middle" x="682.121" y="-497" font-family="Times,serif" font-size="14.00" fill="#000000">GO:0044422</text>
<text text-anchor="middle" x="682.121" y="-480.2" font-family="Times,serif" font-size="14.00" fill="#000000">organelle part</text>
</g>
<!-- GO:0044461&#45;&gt;GO:0044422 -->
<g id="edge31" class="edge">
<title>GO:0044461&#45;&gt;GO:0044422</title>
<path fill="none" stroke="#000000" d="M638.9624,-341.6263C650.1987,-351.7337 661.1889,-363.9839 668.121,-377.6 681.4979,-403.8749 684.1559,-437.7556 683.9786,-461.96"/>
<polygon fill="#000000" stroke="#000000" points="680.4783,-461.9332 683.7392,-472.0137 687.4763,-462.0999 680.4783,-461.9332"/>
</g>
<!-- GO:0044463&#45;&gt;GO:0044464 -->
<g id="edge32" class="edge">
<title>GO:0044463&#45;&gt;GO:0044464</title>
<path fill="none" stroke="#000000" d="M592.0692,-427.6182C589.0291,-438.0761 585.2883,-450.9446 581.9358,-462.477"/>
<polygon fill="#000000" stroke="#000000" points="578.5477,-461.594 579.1171,-472.1735 585.2694,-463.548 578.5477,-461.594"/>
</g>
<!-- GO:0044422&#45;&gt;GO:0005575 -->
<g id="edge33" class="edge">
<title>GO:0044422&#45;&gt;GO:0005575</title>
<path fill="none" stroke="#000000" d="M682.121,-513.5954C682.121,-521.5109 682.121,-530.7109 682.121,-539.3722"/>
<polygon fill="#000000" stroke="#000000" points="678.6211,-539.5472 682.121,-549.5472 685.6211,-539.5473 678.6211,-539.5472"/>
</g>
<!-- GO:0009424 -->
<g id="node30" class="node">
<title>GO:0009424</title>
<polygon fill="#ffffff" stroke="#000000" points="673.2298,-247.4014 523.0122,-247.4014 523.0122,-188.5986 673.2298,-188.5986 673.2298,-247.4014"/>
<text text-anchor="middle" x="598.121" y="-230.6" font-family="Times,serif" font-size="14.00" fill="#000000">GO:0009424</text>
<text text-anchor="middle" x="598.121" y="-213.8" font-family="Times,serif" font-size="14.00" fill="#000000">bacterial&#45;type flagellum</text>
<text text-anchor="middle" x="598.121" y="-197" font-family="Times,serif" font-size="14.00" fill="#000000">hook</text>
</g>
<!-- GO:0009424&#45;&gt;GO:0044461 -->
<g id="edge34" class="edge">
<title>GO:0009424&#45;&gt;GO:0044461</title>
<path fill="none" stroke="#000000" d="M598.121,-247.3513C598.121,-255.4318 598.121,-264.3308 598.121,-272.8838"/>
<polygon fill="#000000" stroke="#000000" points="594.6211,-273.0668 598.121,-283.0669 601.6211,-273.0669 594.6211,-273.0668"/>
</g>
</g>
</svg>
