<?xml version="1.0" encoding="UTF-8" standalone="no"?>
<!DOCTYPE svg PUBLIC "-//W3C//DTD SVG 1.1//EN"
 "http://www.w3.org/Graphics/SVG/1.1/DTD/svg11.dtd">
<!-- Generated by graphviz version 2.40.1 (20161225.0304)
 -->
<!-- Title: G Pages: 1 -->
<svg width="1026pt" height="522pt"
 viewBox="0.00 0.00 1025.83 521.60" xmlns="http://www.w3.org/2000/svg" xmlns:xlink="http://www.w3.org/1999/xlink">
<g id="graph0" class="graph" transform="scale(1 1) rotate(0) translate(4 517.6)">
<title>G</title>
<polygon fill="#ffffff" stroke="transparent" points="-4,4 -4,-517.6 1021.8258,-517.6 1021.8258,4 -4,4"/>
<!-- GO:0016778 -->
<g id="node1" class="node">
<title>GO:0016778</title>
<polygon fill="#ffffff" stroke="#000000" points="143.4591,-153.0014 8.5487,-153.0014 8.5487,-94.1986 143.4591,-94.1986 143.4591,-153.0014"/>
<text text-anchor="middle" x="76.0039" y="-136.2" font-family="Times,serif" font-size="14.00" fill="#000000">GO:0016778</text>
<text text-anchor="middle" x="76.0039" y="-119.4" font-family="Times,serif" font-size="14.00" fill="#000000">diphosphotransferase</text>
<text text-anchor="middle" x="76.0039" y="-102.6" font-family="Times,serif" font-size="14.00" fill="#000000">activity</text>
</g>
<!-- GO:0016772 -->
<g id="node2" class="node">
<title>GO:0016772</title>
<polygon fill="#ffffff" stroke="#000000" points="154.0117,-264.1003 -.0039,-264.1003 -.0039,-188.6997 154.0117,-188.6997 154.0117,-264.1003"/>
<text text-anchor="middle" x="77.0039" y="-247.4" font-family="Times,serif" font-size="14.00" fill="#000000">GO:0016772</text>
<text text-anchor="middle" x="77.0039" y="-230.6" font-family="Times,serif" font-size="14.00" fill="#000000">transferase activity,</text>
<text text-anchor="middle" x="77.0039" y="-213.8" font-family="Times,serif" font-size="14.00" fill="#000000">transferring phosphorus&#45;</text>
<text text-anchor="middle" x="77.0039" y="-197" font-family="Times,serif" font-size="14.00" fill="#000000">containing groups</text>
</g>
<!-- GO:0016778&#45;&gt;GO:0016772 -->
<g id="edge1" class="edge">
<title>GO:0016778&#45;&gt;GO:0016772</title>
<path fill="none" stroke="#000000" d="M76.2905,-153.0584C76.3676,-160.9901 76.4531,-169.78 76.5374,-178.4392"/>
<polygon fill="#000000" stroke="#000000" points="73.0379,-178.5195 76.6351,-188.485 80.0375,-178.4514 73.0379,-178.5195"/>
</g>
<!-- GO:0016740 -->
<g id="node3" class="node">
<title>GO:0016740</title>
<polygon fill="#ffffff" stroke="#000000" points="142.1156,-349.8019 19.8922,-349.8019 19.8922,-308.5981 142.1156,-308.5981 142.1156,-349.8019"/>
<text text-anchor="middle" x="81.0039" y="-333.4" font-family="Times,serif" font-size="14.00" fill="#000000">GO:0016740</text>
<text text-anchor="middle" x="81.0039" y="-316.6" font-family="Times,serif" font-size="14.00" fill="#000000">transferase activity</text>
</g>
<!-- GO:0016772&#45;&gt;GO:0016740 -->
<g id="edge2" class="edge">
<title>GO:0016772&#45;&gt;GO:0016740</title>
<path fill="none" stroke="#000000" d="M78.4706,-264.0952C78.9088,-275.3552 79.3837,-287.5618 79.8027,-298.3299"/>
<polygon fill="#000000" stroke="#000000" points="76.3134,-298.6739 80.1996,-308.5302 83.3081,-298.4016 76.3134,-298.6739"/>
</g>
<!-- GO:0003824 -->
<g id="node4" class="node">
<title>GO:0003824</title>
<polygon fill="#ff0000" stroke="#000000" points="287.4163,-435.8019 178.5915,-435.8019 178.5915,-394.5981 287.4163,-394.5981 287.4163,-435.8019"/>
<text text-anchor="middle" x="233.0039" y="-419.4" font-family="Times,serif" font-size="14.00" fill="#000000">GO:0003824</text>
<text text-anchor="middle" x="233.0039" y="-402.6" font-family="Times,serif" font-size="14.00" fill="#000000">catalytic activity</text>
</g>
<!-- GO:0016740&#45;&gt;GO:0003824 -->
<g id="edge3" class="edge">
<title>GO:0016740&#45;&gt;GO:0003824</title>
<path fill="none" stroke="#000000" d="M117.7989,-350.0182C138.8031,-361.9022 165.309,-376.899 187.5998,-389.5108"/>
<polygon fill="#000000" stroke="#000000" points="186.1207,-392.6953 196.5478,-394.5735 189.5678,-386.6029 186.1207,-392.6953"/>
</g>
<!-- GO:0003674 -->
<g id="node5" class="node">
<title>GO:0003674</title>
<polygon fill="#ffffff" stroke="#000000" points="353.637,-513.4019 228.3708,-513.4019 228.3708,-472.1981 353.637,-472.1981 353.637,-513.4019"/>
<text text-anchor="middle" x="291.0039" y="-497" font-family="Times,serif" font-size="14.00" fill="#000000">GO:0003674</text>
<text text-anchor="middle" x="291.0039" y="-480.2" font-family="Times,serif" font-size="14.00" fill="#000000">molecular_function</text>
</g>
<!-- GO:0003824&#45;&gt;GO:0003674 -->
<g id="edge4" class="edge">
<title>GO:0003824&#45;&gt;GO:0003674</title>
<path fill="none" stroke="#000000" d="M248.5468,-435.9954C254.9181,-444.5197 262.403,-454.5339 269.2991,-463.7605"/>
<polygon fill="#000000" stroke="#000000" points="266.6278,-466.0327 275.4181,-471.9472 272.2347,-461.8419 266.6278,-466.0327"/>
</g>
<!-- GO:0051539 -->
<g id="node6" class="node">
<title>GO:0051539</title>
<polygon fill="#ffffff" stroke="#000000" points="301.0271,-153.0014 160.9807,-153.0014 160.9807,-94.1986 301.0271,-94.1986 301.0271,-153.0014"/>
<text text-anchor="middle" x="231.0039" y="-136.2" font-family="Times,serif" font-size="14.00" fill="#000000">GO:0051539</text>
<text text-anchor="middle" x="231.0039" y="-119.4" font-family="Times,serif" font-size="14.00" fill="#000000">4 iron, 4 sulfur cluster</text>
<text text-anchor="middle" x="231.0039" y="-102.6" font-family="Times,serif" font-size="14.00" fill="#000000">binding</text>
</g>
<!-- GO:0051536 -->
<g id="node7" class="node">
<title>GO:0051536</title>
<polygon fill="#ffffff" stroke="#000000" points="289.1881,-255.8014 172.8197,-255.8014 172.8197,-196.9986 289.1881,-196.9986 289.1881,-255.8014"/>
<text text-anchor="middle" x="231.0039" y="-239" font-family="Times,serif" font-size="14.00" fill="#000000">GO:0051536</text>
<text text-anchor="middle" x="231.0039" y="-222.2" font-family="Times,serif" font-size="14.00" fill="#000000">iron&#45;sulfur cluster</text>
<text text-anchor="middle" x="231.0039" y="-205.4" font-family="Times,serif" font-size="14.00" fill="#000000">binding</text>
</g>
<!-- GO:0051539&#45;&gt;GO:0051536 -->
<g id="edge5" class="edge">
<title>GO:0051539&#45;&gt;GO:0051536</title>
<path fill="none" stroke="#000000" d="M231.0039,-153.0584C231.0039,-163.5969 231.0039,-175.6505 231.0039,-186.8994"/>
<polygon fill="#000000" stroke="#000000" points="227.504,-186.9373 231.0039,-196.9373 234.504,-186.9374 227.504,-186.9373"/>
</g>
<!-- GO:0051540 -->
<g id="node8" class="node">
<title>GO:0051540</title>
<polygon fill="#ffffff" stroke="#000000" points="298.2018,-349.8019 163.806,-349.8019 163.806,-308.5981 298.2018,-308.5981 298.2018,-349.8019"/>
<text text-anchor="middle" x="231.0039" y="-333.4" font-family="Times,serif" font-size="14.00" fill="#000000">GO:0051540</text>
<text text-anchor="middle" x="231.0039" y="-316.6" font-family="Times,serif" font-size="14.00" fill="#000000">metal cluster binding</text>
</g>
<!-- GO:0051536&#45;&gt;GO:0051540 -->
<g id="edge6" class="edge">
<title>GO:0051536&#45;&gt;GO:0051540</title>
<path fill="none" stroke="#000000" d="M231.0039,-255.8584C231.0039,-269.1539 231.0039,-284.8608 231.0039,-298.3212"/>
<polygon fill="#000000" stroke="#000000" points="227.504,-298.5456 231.0039,-308.5456 234.504,-298.5457 227.504,-298.5456"/>
</g>
<!-- GO:0005488 -->
<g id="node9" class="node">
<title>GO:0005488</title>
<polygon fill="#ffffff" stroke="#000000" points="546.6078,-435.8019 457.4,-435.8019 457.4,-394.5981 546.6078,-394.5981 546.6078,-435.8019"/>
<text text-anchor="middle" x="502.0039" y="-419.4" font-family="Times,serif" font-size="14.00" fill="#000000">GO:0005488</text>
<text text-anchor="middle" x="502.0039" y="-402.6" font-family="Times,serif" font-size="14.00" fill="#000000">binding</text>
</g>
<!-- GO:0051540&#45;&gt;GO:0005488 -->
<g id="edge7" class="edge">
<title>GO:0051540&#45;&gt;GO:0005488</title>
<path fill="none" stroke="#000000" d="M283.1264,-349.8829C291.0856,-352.8502 299.2352,-355.7812 307.0039,-358.4 353.9789,-374.235 408.1683,-389.8077 447.4815,-400.6308"/>
<polygon fill="#000000" stroke="#000000" points="446.573,-404.0108 457.1424,-403.2773 448.4225,-397.2595 446.573,-404.0108"/>
</g>
<!-- GO:0005488&#45;&gt;GO:0003674 -->
<g id="edge8" class="edge">
<title>GO:0005488&#45;&gt;GO:0003674</title>
<path fill="none" stroke="#000000" d="M457.2562,-431.657C428.0791,-442.3875 389.4976,-456.5767 356.847,-468.5847"/>
<polygon fill="#000000" stroke="#000000" points="355.5434,-465.3349 347.3661,-472.0715 357.9596,-471.9047 355.5434,-465.3349"/>
</g>
<!-- GO:0046914 -->
<g id="node10" class="node">
<title>GO:0046914</title>
<polygon fill="#ffffff" stroke="#000000" points="438.3778,-58.6014 313.63,-58.6014 313.63,.2014 438.3778,.2014 438.3778,-58.6014"/>
<text text-anchor="middle" x="376.0039" y="-41.8" font-family="Times,serif" font-size="14.00" fill="#000000">GO:0046914</text>
<text text-anchor="middle" x="376.0039" y="-25" font-family="Times,serif" font-size="14.00" fill="#000000">transition metal ion</text>
<text text-anchor="middle" x="376.0039" y="-8.2" font-family="Times,serif" font-size="14.00" fill="#000000">binding</text>
</g>
<!-- GO:0046872 -->
<g id="node11" class="node">
<title>GO:0046872</title>
<polygon fill="#ffffff" stroke="#000000" points="433.2769,-144.2019 318.7309,-144.2019 318.7309,-102.9981 433.2769,-102.9981 433.2769,-144.2019"/>
<text text-anchor="middle" x="376.0039" y="-127.8" font-family="Times,serif" font-size="14.00" fill="#000000">GO:0046872</text>
<text text-anchor="middle" x="376.0039" y="-111" font-family="Times,serif" font-size="14.00" fill="#000000">metal ion binding</text>
</g>
<!-- GO:0046914&#45;&gt;GO:0046872 -->
<g id="edge9" class="edge">
<title>GO:0046914&#45;&gt;GO:0046872</title>
<path fill="none" stroke="#000000" d="M376.0039,-58.5513C376.0039,-69.4614 376.0039,-81.8637 376.0039,-92.892"/>
<polygon fill="#000000" stroke="#000000" points="372.504,-92.9509 376.0039,-102.951 379.504,-92.951 372.504,-92.9509"/>
</g>
<!-- GO:0043169 -->
<g id="node12" class="node">
<title>GO:0043169</title>
<polygon fill="#ffffff" stroke="#000000" points="417.4968,-247.0019 320.511,-247.0019 320.511,-205.7981 417.4968,-205.7981 417.4968,-247.0019"/>
<text text-anchor="middle" x="369.0039" y="-230.6" font-family="Times,serif" font-size="14.00" fill="#000000">GO:0043169</text>
<text text-anchor="middle" x="369.0039" y="-213.8" font-family="Times,serif" font-size="14.00" fill="#000000">cation binding</text>
</g>
<!-- GO:0046872&#45;&gt;GO:0043169 -->
<g id="edge10" class="edge">
<title>GO:0046872&#45;&gt;GO:0043169</title>
<path fill="none" stroke="#000000" d="M374.5873,-144.4031C373.5911,-159.0337 372.2408,-178.8642 371.1176,-195.3586"/>
<polygon fill="#000000" stroke="#000000" points="367.6059,-195.4131 370.4183,-205.6278 374.5897,-195.8887 367.6059,-195.4131"/>
</g>
<!-- GO:0043167 -->
<g id="node13" class="node">
<title>GO:0043167</title>
<polygon fill="#ffffff" stroke="#000000" points="405.6078,-349.8019 316.4,-349.8019 316.4,-308.5981 405.6078,-308.5981 405.6078,-349.8019"/>
<text text-anchor="middle" x="361.0039" y="-333.4" font-family="Times,serif" font-size="14.00" fill="#000000">GO:0043167</text>
<text text-anchor="middle" x="361.0039" y="-316.6" font-family="Times,serif" font-size="14.00" fill="#000000">ion binding</text>
</g>
<!-- GO:0043169&#45;&gt;GO:0043167 -->
<g id="edge11" class="edge">
<title>GO:0043169&#45;&gt;GO:0043167</title>
<path fill="none" stroke="#000000" d="M367.385,-247.2031C366.2464,-261.8337 364.7032,-281.6642 363.4196,-298.1586"/>
<polygon fill="#000000" stroke="#000000" points="359.9069,-298.1864 362.6204,-308.4278 366.8858,-298.7296 359.9069,-298.1864"/>
</g>
<!-- GO:0043167&#45;&gt;GO:0005488 -->
<g id="edge12" class="edge">
<title>GO:0043167&#45;&gt;GO:0005488</title>
<path fill="none" stroke="#000000" d="M395.1361,-350.0182C414.5337,-361.8494 438.9896,-376.7657 459.6096,-389.3425"/>
<polygon fill="#000000" stroke="#000000" points="457.8262,-392.3544 468.1861,-394.5735 461.4713,-386.3783 457.8262,-392.3544"/>
</g>
<!-- GO:0097159 -->
<g id="node14" class="node">
<title>GO:0097159</title>
<polygon fill="#ffffff" stroke="#000000" points="580.5153,-358.6014 423.4925,-358.6014 423.4925,-299.7986 580.5153,-299.7986 580.5153,-358.6014"/>
<text text-anchor="middle" x="502.0039" y="-341.8" font-family="Times,serif" font-size="14.00" fill="#000000">GO:0097159</text>
<text text-anchor="middle" x="502.0039" y="-325" font-family="Times,serif" font-size="14.00" fill="#000000">organic cyclic compound</text>
<text text-anchor="middle" x="502.0039" y="-308.2" font-family="Times,serif" font-size="14.00" fill="#000000">binding</text>
</g>
<!-- GO:0097159&#45;&gt;GO:0005488 -->
<g id="edge13" class="edge">
<title>GO:0097159&#45;&gt;GO:0005488</title>
<path fill="none" stroke="#000000" d="M502.0039,-358.7963C502.0039,-367.0638 502.0039,-376.0657 502.0039,-384.4008"/>
<polygon fill="#000000" stroke="#000000" points="498.504,-384.4965 502.0039,-394.4966 505.504,-384.4966 498.504,-384.4965"/>
</g>
<!-- GO:0048037 -->
<g id="node15" class="node">
<title>GO:0048037</title>
<polygon fill="#ffffff" stroke="#000000" points="707.1408,-349.8019 598.867,-349.8019 598.867,-308.5981 707.1408,-308.5981 707.1408,-349.8019"/>
<text text-anchor="middle" x="653.0039" y="-333.4" font-family="Times,serif" font-size="14.00" fill="#000000">GO:0048037</text>
<text text-anchor="middle" x="653.0039" y="-316.6" font-family="Times,serif" font-size="14.00" fill="#000000">cofactor binding</text>
</g>
<!-- GO:0048037&#45;&gt;GO:0005488 -->
<g id="edge14" class="edge">
<title>GO:0048037&#45;&gt;GO:0005488</title>
<path fill="none" stroke="#000000" d="M616.451,-350.0182C595.5849,-361.9022 569.2534,-376.899 547.1093,-389.5108"/>
<polygon fill="#000000" stroke="#000000" points="545.1775,-386.5831 538.2202,-394.5735 548.6419,-392.6658 545.1775,-386.5831"/>
</g>
<!-- GO:1901363 -->
<g id="node16" class="node">
<title>GO:1901363</title>
<polygon fill="#ffffff" stroke="#000000" points="872.5145,-358.6014 725.4933,-358.6014 725.4933,-299.7986 872.5145,-299.7986 872.5145,-358.6014"/>
<text text-anchor="middle" x="799.0039" y="-341.8" font-family="Times,serif" font-size="14.00" fill="#000000">GO:1901363</text>
<text text-anchor="middle" x="799.0039" y="-325" font-family="Times,serif" font-size="14.00" fill="#000000">heterocyclic compound</text>
<text text-anchor="middle" x="799.0039" y="-308.2" font-family="Times,serif" font-size="14.00" fill="#000000">binding</text>
</g>
<!-- GO:1901363&#45;&gt;GO:0005488 -->
<g id="edge15" class="edge">
<title>GO:1901363&#45;&gt;GO:0005488</title>
<path fill="none" stroke="#000000" d="M725.3378,-355.4551C722.1908,-356.4695 719.0695,-357.4555 716.0039,-358.4 662.1566,-374.9898 599.8128,-391.2035 556.3566,-402.0329"/>
<polygon fill="#000000" stroke="#000000" points="555.4216,-398.6586 546.5583,-404.4631 557.1068,-405.4528 555.4216,-398.6586"/>
</g>
<!-- GO:0042802 -->
<g id="node17" class="node">
<title>GO:0042802</title>
<polygon fill="#ffffff" stroke="#000000" points="1017.6481,-247.0019 864.3597,-247.0019 864.3597,-205.7981 1017.6481,-205.7981 1017.6481,-247.0019"/>
<text text-anchor="middle" x="941.0039" y="-230.6" font-family="Times,serif" font-size="14.00" fill="#000000">GO:0042802</text>
<text text-anchor="middle" x="941.0039" y="-213.8" font-family="Times,serif" font-size="14.00" fill="#000000">identical protein binding</text>
</g>
<!-- GO:0005515 -->
<g id="node18" class="node">
<title>GO:0005515</title>
<polygon fill="#ffffff" stroke="#000000" points="991.9415,-349.8019 890.0663,-349.8019 890.0663,-308.5981 991.9415,-308.5981 991.9415,-349.8019"/>
<text text-anchor="middle" x="941.0039" y="-333.4" font-family="Times,serif" font-size="14.00" fill="#000000">GO:0005515</text>
<text text-anchor="middle" x="941.0039" y="-316.6" font-family="Times,serif" font-size="14.00" fill="#000000">protein binding</text>
</g>
<!-- GO:0042802&#45;&gt;GO:0005515 -->
<g id="edge16" class="edge">
<title>GO:0042802&#45;&gt;GO:0005515</title>
<path fill="none" stroke="#000000" d="M941.0039,-247.2031C941.0039,-261.8337 941.0039,-281.6642 941.0039,-298.1586"/>
<polygon fill="#000000" stroke="#000000" points="937.504,-298.4278 941.0039,-308.4278 944.504,-298.4279 937.504,-298.4278"/>
</g>
<!-- GO:0005515&#45;&gt;GO:0005488 -->
<g id="edge17" class="edge">
<title>GO:0005515&#45;&gt;GO:0005488</title>
<path fill="none" stroke="#000000" d="M903.6402,-349.8472C896.6089,-353.1078 889.2012,-356.1423 882.0039,-358.4 769.6983,-393.6297 631.6779,-407.2791 556.7453,-412.3601"/>
<polygon fill="#000000" stroke="#000000" points="556.351,-408.8783 546.5999,-413.0216 556.8064,-415.8635 556.351,-408.8783"/>
</g>
</g>
</svg>
