<?xml version="1.0" encoding="UTF-8" standalone="no"?>
<!DOCTYPE svg PUBLIC "-//W3C//DTD SVG 1.1//EN"
 "http://www.w3.org/Graphics/SVG/1.1/DTD/svg11.dtd">
<!-- Generated by graphviz version 2.40.1 (20161225.0304)
 -->
<!-- Title: G Pages: 1 -->
<svg width="1413pt" height="788pt"
 viewBox="0.00 0.00 1412.94 788.00" xmlns="http://www.w3.org/2000/svg" xmlns:xlink="http://www.w3.org/1999/xlink">
<g id="graph0" class="graph" transform="scale(1 1) rotate(0) translate(4 784)">
<title>G</title>
<polygon fill="#ffffff" stroke="transparent" points="-4,4 -4,-784 1408.9422,-784 1408.9422,4 -4,4"/>
<!-- GO:0006631 -->
<g id="node1" class="node">
<title>GO:0006631</title>
<polygon fill="#ffffff" stroke="#000000" points="783.6401,-58.6014 656.2751,-58.6014 656.2751,.2014 783.6401,.2014 783.6401,-58.6014"/>
<text text-anchor="middle" x="719.9576" y="-41.8" font-family="Times,serif" font-size="14.00" fill="#000000">GO:0006631</text>
<text text-anchor="middle" x="719.9576" y="-25" font-family="Times,serif" font-size="14.00" fill="#000000">fatty acid metabolic</text>
<text text-anchor="middle" x="719.9576" y="-8.2" font-family="Times,serif" font-size="14.00" fill="#000000">process</text>
</g>
<!-- GO:0044255 -->
<g id="node2" class="node">
<title>GO:0044255</title>
<polygon fill="#ffffff" stroke="#000000" points="898.8119,-436.2014 753.1033,-436.2014 753.1033,-377.3986 898.8119,-377.3986 898.8119,-436.2014"/>
<text text-anchor="middle" x="825.9576" y="-419.4" font-family="Times,serif" font-size="14.00" fill="#000000">GO:0044255</text>
<text text-anchor="middle" x="825.9576" y="-402.6" font-family="Times,serif" font-size="14.00" fill="#000000">cellular lipid metabolic</text>
<text text-anchor="middle" x="825.9576" y="-385.8" font-family="Times,serif" font-size="14.00" fill="#000000">process</text>
</g>
<!-- GO:0006631&#45;&gt;GO:0044255 -->
<g id="edge1" class="edge">
<title>GO:0006631&#45;&gt;GO:0044255</title>
<path fill="none" stroke="#000000" d="M731.8692,-58.4104C750.4865,-105.1368 786.4656,-199.9175 806.9576,-283.2 813.8112,-311.0541 818.6514,-343.0801 821.7309,-367.5521"/>
<polygon fill="#000000" stroke="#000000" points="818.2641,-368.0381 822.9436,-377.5435 825.2131,-367.1946 818.2641,-368.0381"/>
</g>
<!-- GO:0032787 -->
<g id="node3" class="node">
<title>GO:0032787</title>
<polygon fill="#ffffff" stroke="#000000" points="712.7538,-153.0014 579.1614,-153.0014 579.1614,-94.1986 712.7538,-94.1986 712.7538,-153.0014"/>
<text text-anchor="middle" x="645.9576" y="-136.2" font-family="Times,serif" font-size="14.00" fill="#000000">GO:0032787</text>
<text text-anchor="middle" x="645.9576" y="-119.4" font-family="Times,serif" font-size="14.00" fill="#000000">monocarboxylic acid</text>
<text text-anchor="middle" x="645.9576" y="-102.6" font-family="Times,serif" font-size="14.00" fill="#000000">metabolic process</text>
</g>
<!-- GO:0006631&#45;&gt;GO:0032787 -->
<g id="edge2" class="edge">
<title>GO:0006631&#45;&gt;GO:0032787</title>
<path fill="none" stroke="#000000" d="M696.9492,-58.5513C690.058,-67.3422 682.4075,-77.1018 675.1729,-86.3308"/>
<polygon fill="#000000" stroke="#000000" points="672.3667,-84.2374 668.9518,-94.2669 677.8758,-88.556 672.3667,-84.2374"/>
</g>
<!-- GO:0044763 -->
<g id="node4" class="node">
<title>GO:0044763</title>
<polygon fill="#ffffff" stroke="#000000" points="1037.6361,-530.6014 886.2791,-530.6014 886.2791,-471.7986 1037.6361,-471.7986 1037.6361,-530.6014"/>
<text text-anchor="middle" x="961.9576" y="-513.8" font-family="Times,serif" font-size="14.00" fill="#000000">GO:0044763</text>
<text text-anchor="middle" x="961.9576" y="-497" font-family="Times,serif" font-size="14.00" fill="#000000">single&#45;organism cellular</text>
<text text-anchor="middle" x="961.9576" y="-480.2" font-family="Times,serif" font-size="14.00" fill="#000000">process</text>
</g>
<!-- GO:0044255&#45;&gt;GO:0044763 -->
<g id="edge3" class="edge">
<title>GO:0044255&#45;&gt;GO:0044763</title>
<path fill="none" stroke="#000000" d="M868.2434,-436.1513C881.9316,-445.6525 897.2501,-456.2854 911.4718,-466.1569"/>
<polygon fill="#000000" stroke="#000000" points="909.4873,-469.0399 919.698,-471.8669 913.4788,-463.2894 909.4873,-469.0399"/>
</g>
<!-- GO:0006629 -->
<g id="node5" class="node">
<title>GO:0006629</title>
<polygon fill="#ffffff" stroke="#000000" points="695.8147,-521.8019 550.1005,-521.8019 550.1005,-480.5981 695.8147,-480.5981 695.8147,-521.8019"/>
<text text-anchor="middle" x="622.9576" y="-505.4" font-family="Times,serif" font-size="14.00" fill="#000000">GO:0006629</text>
<text text-anchor="middle" x="622.9576" y="-488.6" font-family="Times,serif" font-size="14.00" fill="#000000">lipid metabolic process</text>
</g>
<!-- GO:0044255&#45;&gt;GO:0006629 -->
<g id="edge4" class="edge">
<title>GO:0044255&#45;&gt;GO:0006629</title>
<path fill="none" stroke="#000000" d="M763.1173,-436.0223C735.4102,-448.9068 703.1843,-463.8926 676.624,-476.2438"/>
<polygon fill="#000000" stroke="#000000" points="675.074,-473.1046 667.4823,-480.4949 678.0257,-479.4519 675.074,-473.1046"/>
</g>
<!-- GO:0044237 -->
<g id="node6" class="node">
<title>GO:0044237</title>
<polygon fill="#ffffff" stroke="#000000" points="868.1404,-530.6014 751.7748,-530.6014 751.7748,-471.7986 868.1404,-471.7986 868.1404,-530.6014"/>
<text text-anchor="middle" x="809.9576" y="-513.8" font-family="Times,serif" font-size="14.00" fill="#000000">GO:0044237</text>
<text text-anchor="middle" x="809.9576" y="-497" font-family="Times,serif" font-size="14.00" fill="#000000">cellular metabolic</text>
<text text-anchor="middle" x="809.9576" y="-480.2" font-family="Times,serif" font-size="14.00" fill="#000000">process</text>
</g>
<!-- GO:0044255&#45;&gt;GO:0044237 -->
<g id="edge5" class="edge">
<title>GO:0044255&#45;&gt;GO:0044237</title>
<path fill="none" stroke="#000000" d="M820.9828,-436.1513C819.5982,-444.3206 818.0718,-453.3264 816.6075,-461.9657"/>
<polygon fill="#000000" stroke="#000000" points="813.1497,-461.4226 814.9293,-471.8669 820.0513,-462.5924 813.1497,-461.4226"/>
</g>
<!-- GO:0019752 -->
<g id="node7" class="node">
<title>GO:0019752</title>
<polygon fill="#ffffff" stroke="#000000" points="630.0697,-247.4014 469.8455,-247.4014 469.8455,-188.5986 630.0697,-188.5986 630.0697,-247.4014"/>
<text text-anchor="middle" x="549.9576" y="-230.6" font-family="Times,serif" font-size="14.00" fill="#000000">GO:0019752</text>
<text text-anchor="middle" x="549.9576" y="-213.8" font-family="Times,serif" font-size="14.00" fill="#000000">carboxylic acid metabolic</text>
<text text-anchor="middle" x="549.9576" y="-197" font-family="Times,serif" font-size="14.00" fill="#000000">process</text>
</g>
<!-- GO:0032787&#45;&gt;GO:0019752 -->
<g id="edge6" class="edge">
<title>GO:0032787&#45;&gt;GO:0019752</title>
<path fill="none" stroke="#000000" d="M616.1088,-152.9513C606.8981,-162.0086 596.6415,-172.0941 587.0068,-181.5683"/>
<polygon fill="#000000" stroke="#000000" points="584.4642,-179.1598 579.7879,-188.6669 589.3722,-184.151 584.4642,-179.1598"/>
</g>
<!-- GO:0009987 -->
<g id="node8" class="node">
<title>GO:0009987</title>
<polygon fill="#ffffff" stroke="#000000" points="967.9138,-702.2019 864.0014,-702.2019 864.0014,-660.9981 967.9138,-660.9981 967.9138,-702.2019"/>
<text text-anchor="middle" x="915.9576" y="-685.8" font-family="Times,serif" font-size="14.00" fill="#000000">GO:0009987</text>
<text text-anchor="middle" x="915.9576" y="-669" font-family="Times,serif" font-size="14.00" fill="#000000">cellular process</text>
</g>
<!-- GO:0044763&#45;&gt;GO:0009987 -->
<g id="edge7" class="edge">
<title>GO:0044763&#45;&gt;GO:0009987</title>
<path fill="none" stroke="#000000" d="M954.4645,-530.5859C945.9973,-563.7923 932.2816,-617.5815 923.7092,-651.2002"/>
<polygon fill="#000000" stroke="#000000" points="920.3049,-650.3861 921.2255,-660.9409 927.0878,-652.1157 920.3049,-650.3861"/>
</g>
<!-- GO:0044699 -->
<g id="node9" class="node">
<title>GO:0044699</title>
<polygon fill="#ffffff" stroke="#000000" points="845.6389,-702.2019 694.2763,-702.2019 694.2763,-660.9981 845.6389,-660.9981 845.6389,-702.2019"/>
<text text-anchor="middle" x="769.9576" y="-685.8" font-family="Times,serif" font-size="14.00" fill="#000000">GO:0044699</text>
<text text-anchor="middle" x="769.9576" y="-669" font-family="Times,serif" font-size="14.00" fill="#000000">single&#45;organism process</text>
</g>
<!-- GO:0044763&#45;&gt;GO:0044699 -->
<g id="edge8" class="edge">
<title>GO:0044763&#45;&gt;GO:0044699</title>
<path fill="none" stroke="#000000" d="M930.6822,-530.5859C894.4265,-564.6511 835.1168,-620.3775 799.5799,-653.7673"/>
<polygon fill="#000000" stroke="#000000" points="796.8363,-651.5426 791.9452,-660.9409 801.6296,-656.6441 796.8363,-651.5426"/>
</g>
<!-- GO:0071704 -->
<g id="node10" class="node">
<title>GO:0071704</title>
<polygon fill="#ffffff" stroke="#000000" points="415.1432,-625.0014 298.772,-625.0014 298.772,-566.1986 415.1432,-566.1986 415.1432,-625.0014"/>
<text text-anchor="middle" x="356.9576" y="-608.2" font-family="Times,serif" font-size="14.00" fill="#000000">GO:0071704</text>
<text text-anchor="middle" x="356.9576" y="-591.4" font-family="Times,serif" font-size="14.00" fill="#000000">organic substance</text>
<text text-anchor="middle" x="356.9576" y="-574.6" font-family="Times,serif" font-size="14.00" fill="#000000">metabolic process</text>
</g>
<!-- GO:0006629&#45;&gt;GO:0071704 -->
<g id="edge9" class="edge">
<title>GO:0006629&#45;&gt;GO:0071704</title>
<path fill="none" stroke="#000000" d="M565.7139,-521.923C557.4267,-524.8244 548.9866,-527.7258 540.9576,-530.4 489.7424,-547.458 475.6055,-547.7247 424.9576,-566.4 424.8597,-566.4361 424.7616,-566.4723 424.6636,-566.5085"/>
<polygon fill="#000000" stroke="#000000" points="423.5013,-563.2058 415.4061,-570.0409 425.9969,-569.7459 423.5013,-563.2058"/>
</g>
<!-- GO:0044710 -->
<g id="node11" class="node">
<title>GO:0044710</title>
<polygon fill="#ffffff" stroke="#000000" points="598.3658,-625.0014 433.5494,-625.0014 433.5494,-566.1986 598.3658,-566.1986 598.3658,-625.0014"/>
<text text-anchor="middle" x="515.9576" y="-608.2" font-family="Times,serif" font-size="14.00" fill="#000000">GO:0044710</text>
<text text-anchor="middle" x="515.9576" y="-591.4" font-family="Times,serif" font-size="14.00" fill="#000000">single&#45;organism metabolic</text>
<text text-anchor="middle" x="515.9576" y="-574.6" font-family="Times,serif" font-size="14.00" fill="#000000">process</text>
</g>
<!-- GO:0006629&#45;&gt;GO:0044710 -->
<g id="edge10" class="edge">
<title>GO:0006629&#45;&gt;GO:0044710</title>
<path fill="none" stroke="#000000" d="M599.476,-521.9165C587.0186,-532.9069 571.3507,-546.7298 556.9606,-559.4254"/>
<polygon fill="#000000" stroke="#000000" points="554.3093,-557.0971 549.126,-566.3374 558.9403,-562.3462 554.3093,-557.0971"/>
</g>
<!-- GO:0044238 -->
<g id="node12" class="node">
<title>GO:0044238</title>
<polygon fill="#ffffff" stroke="#000000" points="780.9606,-616.2019 616.9546,-616.2019 616.9546,-574.9981 780.9606,-574.9981 780.9606,-616.2019"/>
<text text-anchor="middle" x="698.9576" y="-599.8" font-family="Times,serif" font-size="14.00" fill="#000000">GO:0044238</text>
<text text-anchor="middle" x="698.9576" y="-583" font-family="Times,serif" font-size="14.00" fill="#000000">primary metabolic process</text>
</g>
<!-- GO:0006629&#45;&gt;GO:0044238 -->
<g id="edge11" class="edge">
<title>GO:0006629&#45;&gt;GO:0044238</title>
<path fill="none" stroke="#000000" d="M639.8245,-522.1504C650.3527,-535.2276 664.0543,-552.2464 675.6172,-566.6087"/>
<polygon fill="#000000" stroke="#000000" points="673.1405,-569.1137 682.1379,-574.7081 678.5931,-564.7239 673.1405,-569.1137"/>
</g>
<!-- GO:0044237&#45;&gt;GO:0009987 -->
<g id="edge12" class="edge">
<title>GO:0044237&#45;&gt;GO:0009987</title>
<path fill="none" stroke="#000000" d="M827.2242,-530.5859C846.904,-564.0786 878.8873,-618.5105 898.6034,-652.0651"/>
<polygon fill="#000000" stroke="#000000" points="895.7349,-654.0922 903.8186,-660.9409 901.7702,-650.5459 895.7349,-654.0922"/>
</g>
<!-- GO:0008152 -->
<g id="node13" class="node">
<title>GO:0008152</title>
<polygon fill="#ffffff" stroke="#000000" points="628.1432,-702.2019 511.772,-702.2019 511.772,-660.9981 628.1432,-660.9981 628.1432,-702.2019"/>
<text text-anchor="middle" x="569.9576" y="-685.8" font-family="Times,serif" font-size="14.00" fill="#000000">GO:0008152</text>
<text text-anchor="middle" x="569.9576" y="-669" font-family="Times,serif" font-size="14.00" fill="#000000">metabolic process</text>
</g>
<!-- GO:0044237&#45;&gt;GO:0008152 -->
<g id="edge13" class="edge">
<title>GO:0044237&#45;&gt;GO:0008152</title>
<path fill="none" stroke="#000000" d="M813.5821,-530.5135C815.2927,-558.287 813.0978,-599.4204 789.9576,-624.8 779.5096,-636.2591 698.8921,-655.0712 638.2493,-667.8797"/>
<polygon fill="#000000" stroke="#000000" points="637.3917,-664.4834 628.3226,-669.9608 638.828,-671.3344 637.3917,-664.4834"/>
</g>
<!-- GO:0043436 -->
<g id="node14" class="node">
<title>GO:0043436</title>
<polygon fill="#ffffff" stroke="#000000" points="631.9633,-333.0019 467.9519,-333.0019 467.9519,-291.7981 631.9633,-291.7981 631.9633,-333.0019"/>
<text text-anchor="middle" x="549.9576" y="-316.6" font-family="Times,serif" font-size="14.00" fill="#000000">GO:0043436</text>
<text text-anchor="middle" x="549.9576" y="-299.8" font-family="Times,serif" font-size="14.00" fill="#000000">oxoacid metabolic process</text>
</g>
<!-- GO:0019752&#45;&gt;GO:0043436 -->
<g id="edge14" class="edge">
<title>GO:0019752&#45;&gt;GO:0043436</title>
<path fill="none" stroke="#000000" d="M549.9576,-247.3513C549.9576,-258.2614 549.9576,-270.6637 549.9576,-281.692"/>
<polygon fill="#000000" stroke="#000000" points="546.4577,-281.7509 549.9576,-291.751 553.4577,-281.751 546.4577,-281.7509"/>
</g>
<!-- GO:0008150 -->
<g id="node15" class="node">
<title>GO:0008150</title>
<polygon fill="#ffffff" stroke="#000000" points="976.4282,-779.8019 855.487,-779.8019 855.487,-738.5981 976.4282,-738.5981 976.4282,-779.8019"/>
<text text-anchor="middle" x="915.9576" y="-763.4" font-family="Times,serif" font-size="14.00" fill="#000000">GO:0008150</text>
<text text-anchor="middle" x="915.9576" y="-746.6" font-family="Times,serif" font-size="14.00" fill="#000000">biological_process</text>
</g>
<!-- GO:0009987&#45;&gt;GO:0008150 -->
<g id="edge15" class="edge">
<title>GO:0009987&#45;&gt;GO:0008150</title>
<path fill="none" stroke="#000000" d="M915.9576,-702.3954C915.9576,-710.3109 915.9576,-719.5109 915.9576,-728.1722"/>
<polygon fill="#000000" stroke="#000000" points="912.4577,-728.3472 915.9576,-738.3472 919.4577,-728.3473 912.4577,-728.3472"/>
</g>
<!-- GO:0044699&#45;&gt;GO:0008150 -->
<g id="edge16" class="edge">
<title>GO:0044699&#45;&gt;GO:0008150</title>
<path fill="none" stroke="#000000" d="M809.0829,-702.3954C827.2396,-712.0458 848.9887,-723.6056 868.1134,-733.7705"/>
<polygon fill="#000000" stroke="#000000" points="866.5047,-736.8791 876.9776,-738.4819 869.7901,-730.6979 866.5047,-736.8791"/>
</g>
<!-- GO:0071704&#45;&gt;GO:0008152 -->
<g id="edge17" class="edge">
<title>GO:0071704&#45;&gt;GO:0008152</title>
<path fill="none" stroke="#000000" d="M415.1442,-620.7321C418.4598,-622.1187 421.7484,-623.4828 424.9576,-624.8 451.5712,-635.7234 481.1118,-647.3792 506.5483,-657.2714"/>
<polygon fill="#000000" stroke="#000000" points="505.4926,-660.616 516.0815,-660.9711 508.0252,-654.0902 505.4926,-660.616"/>
</g>
<!-- GO:0044710&#45;&gt;GO:0044699 -->
<g id="edge19" class="edge">
<title>GO:0044710&#45;&gt;GO:0044699</title>
<path fill="none" stroke="#000000" d="M598.4241,-623.5217C630.9805,-634.5448 668.0075,-647.0815 699.3069,-657.6789"/>
<polygon fill="#000000" stroke="#000000" points="698.2311,-661.0098 708.8254,-660.9017 700.476,-654.3795 698.2311,-661.0098"/>
</g>
<!-- GO:0044710&#45;&gt;GO:0008152 -->
<g id="edge18" class="edge">
<title>GO:0044710&#45;&gt;GO:0008152</title>
<path fill="none" stroke="#000000" d="M534.5413,-625.1963C540.0209,-633.9231 546.0144,-643.4682 551.4868,-652.1836"/>
<polygon fill="#000000" stroke="#000000" points="548.6759,-654.2888 556.9578,-660.8966 554.6042,-650.5664 548.6759,-654.2888"/>
</g>
<!-- GO:0044238&#45;&gt;GO:0008152 -->
<g id="edge20" class="edge">
<title>GO:0044238&#45;&gt;GO:0008152</title>
<path fill="none" stroke="#000000" d="M667.7303,-616.4182C650.142,-628.1437 628.0082,-642.8996 609.25,-655.4051"/>
<polygon fill="#000000" stroke="#000000" points="607.2764,-652.5143 600.8973,-660.9735 611.1593,-658.3386 607.2764,-652.5143"/>
</g>
<!-- GO:0008152&#45;&gt;GO:0008150 -->
<g id="edge21" class="edge">
<title>GO:0008152&#45;&gt;GO:0008150</title>
<path fill="none" stroke="#000000" d="M628.2605,-694.676C688.1316,-708.1038 781.359,-729.0126 845.3656,-743.3678"/>
<polygon fill="#000000" stroke="#000000" points="844.8542,-746.84 855.3778,-745.6133 846.3862,-740.0097 844.8542,-746.84"/>
</g>
<!-- GO:0006082 -->
<g id="node16" class="node">
<title>GO:0006082</title>
<polygon fill="#ffffff" stroke="#000000" points="687.4648,-436.2014 544.4504,-436.2014 544.4504,-377.3986 687.4648,-377.3986 687.4648,-436.2014"/>
<text text-anchor="middle" x="615.9576" y="-419.4" font-family="Times,serif" font-size="14.00" fill="#000000">GO:0006082</text>
<text text-anchor="middle" x="615.9576" y="-402.6" font-family="Times,serif" font-size="14.00" fill="#000000">organic acid metabolic</text>
<text text-anchor="middle" x="615.9576" y="-385.8" font-family="Times,serif" font-size="14.00" fill="#000000">process</text>
</g>
<!-- GO:0043436&#45;&gt;GO:0006082 -->
<g id="edge22" class="edge">
<title>GO:0043436&#45;&gt;GO:0006082</title>
<path fill="none" stroke="#000000" d="M564.6051,-333.3504C571.9489,-343.8542 581.0706,-356.9011 589.5798,-369.0717"/>
<polygon fill="#000000" stroke="#000000" points="586.745,-371.1254 595.3434,-377.3155 592.4819,-367.1144 586.745,-371.1254"/>
</g>
<!-- GO:0006082&#45;&gt;GO:0044763 -->
<g id="edge24" class="edge">
<title>GO:0006082&#45;&gt;GO:0044763</title>
<path fill="none" stroke="#000000" d="M687.5797,-422.937C737.9077,-434.6818 806.9418,-451.6021 876.2782,-471.8819"/>
<polygon fill="#000000" stroke="#000000" points="875.4804,-475.2955 886.062,-474.7656 877.4594,-468.5811 875.4804,-475.2955"/>
</g>
<!-- GO:0006082&#45;&gt;GO:0044237 -->
<g id="edge26" class="edge">
<title>GO:0006082&#45;&gt;GO:0044237</title>
<path fill="none" stroke="#000000" d="M676.0118,-436.0223C697.0439,-446.2564 720.8005,-457.8163 742.4042,-468.3287"/>
<polygon fill="#000000" stroke="#000000" points="740.9935,-471.5345 751.5169,-472.7629 744.0564,-465.2402 740.9935,-471.5345"/>
</g>
<!-- GO:0006082&#45;&gt;GO:0071704 -->
<g id="edge23" class="edge">
<title>GO:0006082&#45;&gt;GO:0071704</title>
<path fill="none" stroke="#000000" d="M544.1384,-433.279C541.0476,-434.2321 537.9778,-435.1441 534.9576,-436 459.8159,-457.2951 413.6582,-412.5929 362.9576,-472 343.4802,-494.8221 343.4686,-529.5285 347.4807,-556.3604"/>
<polygon fill="#000000" stroke="#000000" points="344.0321,-556.9588 349.1832,-566.2172 350.93,-555.7673 344.0321,-556.9588"/>
</g>
<!-- GO:0044281 -->
<g id="node17" class="node">
<title>GO:0044281</title>
<polygon fill="#ffffff" stroke="#000000" points="531.8105,-530.6014 372.1047,-530.6014 372.1047,-471.7986 531.8105,-471.7986 531.8105,-530.6014"/>
<text text-anchor="middle" x="451.9576" y="-513.8" font-family="Times,serif" font-size="14.00" fill="#000000">GO:0044281</text>
<text text-anchor="middle" x="451.9576" y="-497" font-family="Times,serif" font-size="14.00" fill="#000000">small molecule metabolic</text>
<text text-anchor="middle" x="451.9576" y="-480.2" font-family="Times,serif" font-size="14.00" fill="#000000">process</text>
</g>
<!-- GO:0006082&#45;&gt;GO:0044281 -->
<g id="edge25" class="edge">
<title>GO:0006082&#45;&gt;GO:0044281</title>
<path fill="none" stroke="#000000" d="M564.966,-436.1513C548.151,-445.8301 529.296,-456.6833 511.8773,-466.7097"/>
<polygon fill="#000000" stroke="#000000" points="509.8384,-463.8448 502.9177,-471.8669 513.3306,-469.9115 509.8384,-463.8448"/>
</g>
<!-- GO:0044281&#45;&gt;GO:0044710 -->
<g id="edge29" class="edge">
<title>GO:0044281&#45;&gt;GO:0044710</title>
<path fill="none" stroke="#000000" d="M471.8568,-530.5513C477.6963,-539.1646 484.1663,-548.7078 490.3107,-557.7708"/>
<polygon fill="#000000" stroke="#000000" points="487.5621,-559.9538 496.0707,-566.2669 493.3561,-556.0257 487.5621,-559.9538"/>
</g>
<!-- GO:0006099 -->
<g id="node18" class="node">
<title>GO:0006099</title>
<polygon fill="#ff00ff" stroke="#000000" points="797.8397,-333.0019 650.0755,-333.0019 650.0755,-291.7981 797.8397,-291.7981 797.8397,-333.0019"/>
<text text-anchor="middle" x="723.9576" y="-316.6" font-family="Times,serif" font-size="14.00" fill="#000000">GO:0006099</text>
<text text-anchor="middle" x="723.9576" y="-299.8" font-family="Times,serif" font-size="14.00" fill="#000000">tricarboxylic acid cycle</text>
</g>
<!-- GO:0006099&#45;&gt;GO:0044238 -->
<g id="edge27" class="edge">
<title>GO:0006099&#45;&gt;GO:0044238</title>
<path fill="none" stroke="#000000" d="M722.1833,-333.143C718.8608,-371.8988 711.4494,-457.938 704.9576,-530.4 703.961,-541.5238 702.8456,-553.7128 701.8494,-564.5109"/>
<polygon fill="#000000" stroke="#000000" points="698.3379,-564.4744 700.9017,-574.7544 705.3082,-565.1193 698.3379,-564.4744"/>
</g>
<!-- GO:0006099&#45;&gt;GO:0006082 -->
<g id="edge28" class="edge">
<title>GO:0006099&#45;&gt;GO:0006082</title>
<path fill="none" stroke="#000000" d="M700.2565,-333.1165C687.6827,-344.1069 671.8684,-357.9298 657.3438,-370.6254"/>
<polygon fill="#000000" stroke="#000000" points="654.6618,-368.3211 649.436,-377.5374 659.2686,-373.5915 654.6618,-368.3211"/>
</g>
<!-- GO:0072330 -->
<g id="node19" class="node">
<title>GO:0072330</title>
<polygon fill="#ffffff" stroke="#000000" points="637.7538,-58.6014 504.1614,-58.6014 504.1614,.2014 637.7538,.2014 637.7538,-58.6014"/>
<text text-anchor="middle" x="570.9576" y="-41.8" font-family="Times,serif" font-size="14.00" fill="#000000">GO:0072330</text>
<text text-anchor="middle" x="570.9576" y="-25" font-family="Times,serif" font-size="14.00" fill="#000000">monocarboxylic acid</text>
<text text-anchor="middle" x="570.9576" y="-8.2" font-family="Times,serif" font-size="14.00" fill="#000000">biosynthetic process</text>
</g>
<!-- GO:0072330&#45;&gt;GO:0032787 -->
<g id="edge31" class="edge">
<title>GO:0072330&#45;&gt;GO:0032787</title>
<path fill="none" stroke="#000000" d="M594.2769,-58.5513C601.2612,-67.3422 609.0151,-77.1018 616.3475,-86.3308"/>
<polygon fill="#000000" stroke="#000000" points="613.6916,-88.6144 622.6527,-94.2669 619.1724,-84.2599 613.6916,-88.6144"/>
</g>
<!-- GO:0046394 -->
<g id="node20" class="node">
<title>GO:0046394</title>
<polygon fill="#ffffff" stroke="#000000" points="560.8728,-153.0014 431.0424,-153.0014 431.0424,-94.1986 560.8728,-94.1986 560.8728,-153.0014"/>
<text text-anchor="middle" x="495.9576" y="-136.2" font-family="Times,serif" font-size="14.00" fill="#000000">GO:0046394</text>
<text text-anchor="middle" x="495.9576" y="-119.4" font-family="Times,serif" font-size="14.00" fill="#000000">carboxylic acid</text>
<text text-anchor="middle" x="495.9576" y="-102.6" font-family="Times,serif" font-size="14.00" fill="#000000">biosynthetic process</text>
</g>
<!-- GO:0072330&#45;&gt;GO:0046394 -->
<g id="edge30" class="edge">
<title>GO:0072330&#45;&gt;GO:0046394</title>
<path fill="none" stroke="#000000" d="M547.6383,-58.5513C540.654,-67.3422 532.9001,-77.1018 525.5677,-86.3308"/>
<polygon fill="#000000" stroke="#000000" points="522.7428,-84.2599 519.2625,-94.2669 528.2236,-88.6144 522.7428,-84.2599"/>
</g>
<!-- GO:0046394&#45;&gt;GO:0019752 -->
<g id="edge33" class="edge">
<title>GO:0046394&#45;&gt;GO:0019752</title>
<path fill="none" stroke="#000000" d="M512.7475,-152.9513C517.6238,-161.4758 523.0212,-170.9111 528.1576,-179.8904"/>
<polygon fill="#000000" stroke="#000000" points="525.1746,-181.7246 533.1781,-188.6669 531.2507,-178.2488 525.1746,-181.7246"/>
</g>
<!-- GO:0016053 -->
<g id="node21" class="node">
<title>GO:0016053</title>
<polygon fill="#ffffff" stroke="#000000" points="449.1942,-341.8014 292.721,-341.8014 292.721,-282.9986 449.1942,-282.9986 449.1942,-341.8014"/>
<text text-anchor="middle" x="370.9576" y="-325" font-family="Times,serif" font-size="14.00" fill="#000000">GO:0016053</text>
<text text-anchor="middle" x="370.9576" y="-308.2" font-family="Times,serif" font-size="14.00" fill="#000000">organic acid biosynthetic</text>
<text text-anchor="middle" x="370.9576" y="-291.4" font-family="Times,serif" font-size="14.00" fill="#000000">process</text>
</g>
<!-- GO:0046394&#45;&gt;GO:0016053 -->
<g id="edge32" class="edge">
<title>GO:0046394&#45;&gt;GO:0016053</title>
<path fill="none" stroke="#000000" d="M476.4264,-153.1C454.7777,-185.7981 419.7982,-238.6312 396.1146,-274.4029"/>
<polygon fill="#000000" stroke="#000000" points="392.9539,-272.8368 390.3517,-283.1072 398.7906,-276.7012 392.9539,-272.8368"/>
</g>
<!-- GO:0016053&#45;&gt;GO:0006082 -->
<g id="edge36" class="edge">
<title>GO:0016053&#45;&gt;GO:0006082</title>
<path fill="none" stroke="#000000" d="M446.7993,-341.6223C474.7032,-352.3738 506.4045,-364.5885 534.7615,-375.5146"/>
<polygon fill="#000000" stroke="#000000" points="533.6499,-378.8371 544.2397,-379.1666 536.1668,-372.3052 533.6499,-378.8371"/>
</g>
<!-- GO:1901576 -->
<g id="node22" class="node">
<title>GO:1901576</title>
<polygon fill="#ffffff" stroke="#000000" points="129.8728,-530.6014 .0424,-530.6014 .0424,-471.7986 129.8728,-471.7986 129.8728,-530.6014"/>
<text text-anchor="middle" x="64.9576" y="-513.8" font-family="Times,serif" font-size="14.00" fill="#000000">GO:1901576</text>
<text text-anchor="middle" x="64.9576" y="-497" font-family="Times,serif" font-size="14.00" fill="#000000">organic substance</text>
<text text-anchor="middle" x="64.9576" y="-480.2" font-family="Times,serif" font-size="14.00" fill="#000000">biosynthetic process</text>
</g>
<!-- GO:0016053&#45;&gt;GO:1901576 -->
<g id="edge34" class="edge">
<title>GO:0016053&#45;&gt;GO:1901576</title>
<path fill="none" stroke="#000000" d="M292.6899,-323.284C225.0056,-334.1743 133.9106,-352.8568 106.9576,-377.6 83.4193,-399.2084 73.0688,-434.5049 68.5194,-461.8583"/>
<polygon fill="#000000" stroke="#000000" points="65.0338,-461.5055 67.0445,-471.9078 71.9596,-462.5221 65.0338,-461.5055"/>
</g>
<!-- GO:0044283 -->
<g id="node23" class="node">
<title>GO:0044283</title>
<polygon fill="#ffffff" stroke="#000000" points="377.8728,-436.2014 248.0424,-436.2014 248.0424,-377.3986 377.8728,-377.3986 377.8728,-436.2014"/>
<text text-anchor="middle" x="312.9576" y="-419.4" font-family="Times,serif" font-size="14.00" fill="#000000">GO:0044283</text>
<text text-anchor="middle" x="312.9576" y="-402.6" font-family="Times,serif" font-size="14.00" fill="#000000">small molecule</text>
<text text-anchor="middle" x="312.9576" y="-385.8" font-family="Times,serif" font-size="14.00" fill="#000000">biosynthetic process</text>
</g>
<!-- GO:0016053&#45;&gt;GO:0044283 -->
<g id="edge35" class="edge">
<title>GO:0016053&#45;&gt;GO:0044283</title>
<path fill="none" stroke="#000000" d="M352.924,-341.7513C347.6865,-350.2758 341.8893,-359.7111 336.3724,-368.6904"/>
<polygon fill="#000000" stroke="#000000" points="333.2329,-367.1143 330.9801,-377.4669 339.1972,-370.7788 333.2329,-367.1143"/>
</g>
<!-- GO:0044249 -->
<g id="node24" class="node">
<title>GO:0044249</title>
<polygon fill="#ffffff" stroke="#000000" points="525.87,-436.2014 396.0452,-436.2014 396.0452,-377.3986 525.87,-377.3986 525.87,-436.2014"/>
<text text-anchor="middle" x="460.9576" y="-419.4" font-family="Times,serif" font-size="14.00" fill="#000000">GO:0044249</text>
<text text-anchor="middle" x="460.9576" y="-402.6" font-family="Times,serif" font-size="14.00" fill="#000000">cellular biosynthetic</text>
<text text-anchor="middle" x="460.9576" y="-385.8" font-family="Times,serif" font-size="14.00" fill="#000000">process</text>
</g>
<!-- GO:0016053&#45;&gt;GO:0044249 -->
<g id="edge37" class="edge">
<title>GO:0016053&#45;&gt;GO:0044249</title>
<path fill="none" stroke="#000000" d="M398.9408,-341.7513C407.4913,-350.7198 417.003,-360.6965 425.9581,-370.0894"/>
<polygon fill="#000000" stroke="#000000" points="423.5581,-372.6442 432.9917,-377.4669 428.6245,-367.814 423.5581,-372.6442"/>
</g>
<!-- GO:1901576&#45;&gt;GO:0071704 -->
<g id="edge38" class="edge">
<title>GO:1901576&#45;&gt;GO:0071704</title>
<path fill="none" stroke="#000000" d="M130.1491,-527.4981C133.1139,-528.5126 136.06,-529.4856 138.9576,-530.4 204.3389,-551.0332 223.8906,-544.7961 288.9576,-566.4 289.0567,-566.4329 289.1558,-566.4659 289.255,-566.4989"/>
<polygon fill="#000000" stroke="#000000" points="288.0016,-569.7682 298.5965,-569.7914 290.3286,-563.1662 288.0016,-569.7682"/>
</g>
<!-- GO:0009058 -->
<g id="node25" class="node">
<title>GO:0009058</title>
<polygon fill="#ffffff" stroke="#000000" points="279.8728,-616.2019 150.0424,-616.2019 150.0424,-574.9981 279.8728,-574.9981 279.8728,-616.2019"/>
<text text-anchor="middle" x="214.9576" y="-599.8" font-family="Times,serif" font-size="14.00" fill="#000000">GO:0009058</text>
<text text-anchor="middle" x="214.9576" y="-583" font-family="Times,serif" font-size="14.00" fill="#000000">biosynthetic process</text>
</g>
<!-- GO:1901576&#45;&gt;GO:0009058 -->
<g id="edge39" class="edge">
<title>GO:1901576&#45;&gt;GO:0009058</title>
<path fill="none" stroke="#000000" d="M111.5963,-530.5513C131.4345,-543.0361 154.3773,-557.4748 173.6006,-569.5727"/>
<polygon fill="#000000" stroke="#000000" points="171.819,-572.5868 182.1467,-574.951 175.5474,-566.6624 171.819,-572.5868"/>
</g>
<!-- GO:0044283&#45;&gt;GO:0044281 -->
<g id="edge41" class="edge">
<title>GO:0044283&#45;&gt;GO:0044281</title>
<path fill="none" stroke="#000000" d="M356.1761,-436.1513C370.1663,-445.6525 385.8227,-456.2854 400.3582,-466.1569"/>
<polygon fill="#000000" stroke="#000000" points="398.5268,-469.144 408.7658,-471.8669 402.4596,-463.3532 398.5268,-469.144"/>
</g>
<!-- GO:0044711 -->
<g id="node26" class="node">
<title>GO:0044711</title>
<polygon fill="#ffffff" stroke="#000000" points="277.8728,-530.6014 148.0424,-530.6014 148.0424,-471.7986 277.8728,-471.7986 277.8728,-530.6014"/>
<text text-anchor="middle" x="212.9576" y="-513.8" font-family="Times,serif" font-size="14.00" fill="#000000">GO:0044711</text>
<text text-anchor="middle" x="212.9576" y="-497" font-family="Times,serif" font-size="14.00" fill="#000000">single&#45;organism</text>
<text text-anchor="middle" x="212.9576" y="-480.2" font-family="Times,serif" font-size="14.00" fill="#000000">biosynthetic process</text>
</g>
<!-- GO:0044283&#45;&gt;GO:0044711 -->
<g id="edge40" class="edge">
<title>GO:0044283&#45;&gt;GO:0044711</title>
<path fill="none" stroke="#000000" d="M281.8651,-436.1513C272.2706,-445.2086 261.5867,-455.2941 251.5505,-464.7683"/>
<polygon fill="#000000" stroke="#000000" points="248.9,-462.4572 244.0308,-471.8669 253.7052,-467.5474 248.9,-462.4572"/>
</g>
<!-- GO:0044249&#45;&gt;GO:0044237 -->
<g id="edge43" class="edge">
<title>GO:0044249&#45;&gt;GO:0044237</title>
<path fill="none" stroke="#000000" d="M526.1189,-433.1958C529.0919,-434.1839 532.048,-435.1246 534.9576,-436 608.9137,-458.2516 629.9394,-453.6448 704.9576,-472 716.9218,-474.9273 729.5908,-478.2541 741.8326,-481.5877"/>
<polygon fill="#000000" stroke="#000000" points="740.9669,-484.9795 751.537,-484.2553 742.8223,-478.2299 740.9669,-484.9795"/>
</g>
<!-- GO:0044249&#45;&gt;GO:0009058 -->
<g id="edge42" class="edge">
<title>GO:0044249&#45;&gt;GO:0009058</title>
<path fill="none" stroke="#000000" d="M395.9726,-431.7168C373.6478,-442.1298 349.4047,-455.6542 329.9576,-472 305.2835,-492.7392 308.5674,-506.4847 286.9576,-530.4 275.0669,-543.5593 260.7941,-556.9106 248.1035,-568.0751"/>
<polygon fill="#000000" stroke="#000000" points="245.7012,-565.5256 240.4416,-574.7228 250.2887,-570.813 245.7012,-565.5256"/>
</g>
<!-- GO:0009058&#45;&gt;GO:0008152 -->
<g id="edge44" class="edge">
<title>GO:0009058&#45;&gt;GO:0008152</title>
<path fill="none" stroke="#000000" d="M264.5709,-616.2849C272.9606,-619.3867 281.6456,-622.3584 289.9576,-624.8 361.0038,-645.6695 444.4069,-661.5146 501.5947,-671.0982"/>
<polygon fill="#000000" stroke="#000000" points="501.1661,-674.5748 511.6037,-672.7565 502.3103,-667.669 501.1661,-674.5748"/>
</g>
<!-- GO:0044711&#45;&gt;GO:0044710 -->
<g id="edge45" class="edge">
<title>GO:0044711&#45;&gt;GO:0044710</title>
<path fill="none" stroke="#000000" d="M278.1084,-521.1914C317.4671,-533.3013 368.8931,-549.1814 423.3712,-566.2237"/>
<polygon fill="#000000" stroke="#000000" points="422.626,-569.6579 433.215,-569.3054 424.7174,-562.9776 422.626,-569.6579"/>
</g>
<!-- GO:0044711&#45;&gt;GO:0009058 -->
<g id="edge46" class="edge">
<title>GO:0044711&#45;&gt;GO:0009058</title>
<path fill="none" stroke="#000000" d="M213.5794,-530.5513C213.8106,-541.4614 214.0734,-553.8637 214.307,-564.892"/>
<polygon fill="#000000" stroke="#000000" points="210.809,-565.0274 214.5201,-574.951 217.8074,-564.8791 210.809,-565.0274"/>
</g>
<!-- GO:0044010 -->
<g id="node27" class="node">
<title>GO:0044010</title>
<polygon fill="#ffffff" stroke="#000000" points="1183.7054,-436.2014 1044.2098,-436.2014 1044.2098,-377.3986 1183.7054,-377.3986 1183.7054,-436.2014"/>
<text text-anchor="middle" x="1113.9576" y="-419.4" font-family="Times,serif" font-size="14.00" fill="#000000">GO:0044010</text>
<text text-anchor="middle" x="1113.9576" y="-402.6" font-family="Times,serif" font-size="14.00" fill="#000000">single&#45;species biofilm</text>
<text text-anchor="middle" x="1113.9576" y="-385.8" font-family="Times,serif" font-size="14.00" fill="#000000">formation</text>
</g>
<!-- GO:0042710 -->
<g id="node28" class="node">
<title>GO:0042710</title>
<polygon fill="#ffffff" stroke="#000000" points="1171.8882,-521.8019 1056.027,-521.8019 1056.027,-480.5981 1171.8882,-480.5981 1171.8882,-521.8019"/>
<text text-anchor="middle" x="1113.9576" y="-505.4" font-family="Times,serif" font-size="14.00" fill="#000000">GO:0042710</text>
<text text-anchor="middle" x="1113.9576" y="-488.6" font-family="Times,serif" font-size="14.00" fill="#000000">biofilm formation</text>
</g>
<!-- GO:0044010&#45;&gt;GO:0042710 -->
<g id="edge47" class="edge">
<title>GO:0044010&#45;&gt;GO:0042710</title>
<path fill="none" stroke="#000000" d="M1113.9576,-436.1513C1113.9576,-447.0614 1113.9576,-459.4637 1113.9576,-470.492"/>
<polygon fill="#000000" stroke="#000000" points="1110.4577,-470.5509 1113.9576,-480.551 1117.4577,-470.551 1110.4577,-470.5509"/>
</g>
<!-- GO:0044764 -->
<g id="node29" class="node">
<title>GO:0044764</title>
<polygon fill="#ffffff" stroke="#000000" points="1130.7579,-625.0014 983.1573,-625.0014 983.1573,-566.1986 1130.7579,-566.1986 1130.7579,-625.0014"/>
<text text-anchor="middle" x="1056.9576" y="-608.2" font-family="Times,serif" font-size="14.00" fill="#000000">GO:0044764</text>
<text text-anchor="middle" x="1056.9576" y="-591.4" font-family="Times,serif" font-size="14.00" fill="#000000">multi&#45;organism cellular</text>
<text text-anchor="middle" x="1056.9576" y="-574.6" font-family="Times,serif" font-size="14.00" fill="#000000">process</text>
</g>
<!-- GO:0042710&#45;&gt;GO:0044764 -->
<g id="edge48" class="edge">
<title>GO:0042710&#45;&gt;GO:0044764</title>
<path fill="none" stroke="#000000" d="M1101.3075,-522.1504C1095.0261,-532.5532 1087.2386,-545.4504 1079.9506,-557.5204"/>
<polygon fill="#000000" stroke="#000000" points="1076.9335,-555.7459 1074.7607,-566.1155 1082.9259,-559.3642 1076.9335,-555.7459"/>
</g>
<!-- GO:0044764&#45;&gt;GO:0009987 -->
<g id="edge49" class="edge">
<title>GO:0044764&#45;&gt;GO:0009987</title>
<path fill="none" stroke="#000000" d="M1008.8278,-624.9558C992.538,-634.8914 974.4706,-645.9112 958.6342,-655.5703"/>
<polygon fill="#000000" stroke="#000000" points="956.806,-652.5857 950.0912,-660.7809 960.451,-658.5618 956.806,-652.5857"/>
</g>
<!-- GO:0051704 -->
<g id="node30" class="node">
<title>GO:0051704</title>
<polygon fill="#ffffff" stroke="#000000" points="1133.7607,-702.2019 986.1545,-702.2019 986.1545,-660.9981 1133.7607,-660.9981 1133.7607,-702.2019"/>
<text text-anchor="middle" x="1059.9576" y="-685.8" font-family="Times,serif" font-size="14.00" fill="#000000">GO:0051704</text>
<text text-anchor="middle" x="1059.9576" y="-669" font-family="Times,serif" font-size="14.00" fill="#000000">multi&#45;organism process</text>
</g>
<!-- GO:0044764&#45;&gt;GO:0051704 -->
<g id="edge50" class="edge">
<title>GO:0044764&#45;&gt;GO:0051704</title>
<path fill="none" stroke="#000000" d="M1057.99,-625.1963C1058.2784,-633.4638 1058.5925,-642.4657 1058.8832,-650.8008"/>
<polygon fill="#000000" stroke="#000000" points="1055.3888,-651.0247 1059.2354,-660.8966 1062.3845,-650.7806 1055.3888,-651.0247"/>
</g>
<!-- GO:0051704&#45;&gt;GO:0008150 -->
<g id="edge51" class="edge">
<title>GO:0051704&#45;&gt;GO:0008150</title>
<path fill="none" stroke="#000000" d="M1021.3682,-702.3954C1003.6129,-711.9635 982.3745,-723.4087 963.6292,-733.5103"/>
<polygon fill="#000000" stroke="#000000" points="961.7962,-730.5222 954.6535,-738.3472 965.117,-736.6844 961.7962,-730.5222"/>
</g>
<!-- GO:0006974 -->
<g id="node31" class="node">
<title>GO:0006974</title>
<polygon fill="#ffffff" stroke="#000000" points="1378.1236,-436.2014 1219.7916,-436.2014 1219.7916,-377.3986 1378.1236,-377.3986 1378.1236,-436.2014"/>
<text text-anchor="middle" x="1298.9576" y="-419.4" font-family="Times,serif" font-size="14.00" fill="#000000">GO:0006974</text>
<text text-anchor="middle" x="1298.9576" y="-402.6" font-family="Times,serif" font-size="14.00" fill="#000000">cellular response to DNA</text>
<text text-anchor="middle" x="1298.9576" y="-385.8" font-family="Times,serif" font-size="14.00" fill="#000000">damage stimulus</text>
</g>
<!-- GO:0033554 -->
<g id="node32" class="node">
<title>GO:0033554</title>
<polygon fill="#ffffff" stroke="#000000" points="1361.3035,-530.6014 1236.6117,-530.6014 1236.6117,-471.7986 1361.3035,-471.7986 1361.3035,-530.6014"/>
<text text-anchor="middle" x="1298.9576" y="-513.8" font-family="Times,serif" font-size="14.00" fill="#000000">GO:0033554</text>
<text text-anchor="middle" x="1298.9576" y="-497" font-family="Times,serif" font-size="14.00" fill="#000000">cellular response to</text>
<text text-anchor="middle" x="1298.9576" y="-480.2" font-family="Times,serif" font-size="14.00" fill="#000000">stress</text>
</g>
<!-- GO:0006974&#45;&gt;GO:0033554 -->
<g id="edge52" class="edge">
<title>GO:0006974&#45;&gt;GO:0033554</title>
<path fill="none" stroke="#000000" d="M1298.9576,-436.1513C1298.9576,-444.2318 1298.9576,-453.1308 1298.9576,-461.6838"/>
<polygon fill="#000000" stroke="#000000" points="1295.4577,-461.8668 1298.9576,-471.8669 1302.4577,-461.8669 1295.4577,-461.8668"/>
</g>
<!-- GO:0006950 -->
<g id="node33" class="node">
<title>GO:0006950</title>
<polygon fill="#ffffff" stroke="#000000" points="1404.9268,-616.2019 1290.9884,-616.2019 1290.9884,-574.9981 1404.9268,-574.9981 1404.9268,-616.2019"/>
<text text-anchor="middle" x="1347.9576" y="-599.8" font-family="Times,serif" font-size="14.00" fill="#000000">GO:0006950</text>
<text text-anchor="middle" x="1347.9576" y="-583" font-family="Times,serif" font-size="14.00" fill="#000000">response to stress</text>
</g>
<!-- GO:0033554&#45;&gt;GO:0006950 -->
<g id="edge53" class="edge">
<title>GO:0033554&#45;&gt;GO:0006950</title>
<path fill="none" stroke="#000000" d="M1314.1929,-530.5513C1320.0312,-541.7989 1326.6926,-554.6323 1332.5471,-565.9112"/>
<polygon fill="#000000" stroke="#000000" points="1329.5258,-567.6879 1337.2394,-574.951 1335.7387,-564.4629 1329.5258,-567.6879"/>
</g>
<!-- GO:0051716 -->
<g id="node34" class="node">
<title>GO:0051716</title>
<polygon fill="#ffffff" stroke="#000000" points="1273.3035,-625.0014 1148.6117,-625.0014 1148.6117,-566.1986 1273.3035,-566.1986 1273.3035,-625.0014"/>
<text text-anchor="middle" x="1210.9576" y="-608.2" font-family="Times,serif" font-size="14.00" fill="#000000">GO:0051716</text>
<text text-anchor="middle" x="1210.9576" y="-591.4" font-family="Times,serif" font-size="14.00" fill="#000000">cellular response to</text>
<text text-anchor="middle" x="1210.9576" y="-574.6" font-family="Times,serif" font-size="14.00" fill="#000000">stimulus</text>
</g>
<!-- GO:0033554&#45;&gt;GO:0051716 -->
<g id="edge54" class="edge">
<title>GO:0033554&#45;&gt;GO:0051716</title>
<path fill="none" stroke="#000000" d="M1271.5962,-530.5513C1263.2358,-539.5198 1253.9355,-549.4965 1245.1793,-558.8894"/>
<polygon fill="#000000" stroke="#000000" points="1242.5607,-556.5656 1238.302,-566.2669 1247.681,-561.3387 1242.5607,-556.5656"/>
</g>
<!-- GO:0050896 -->
<g id="node35" class="node">
<title>GO:0050896</title>
<polygon fill="#ffffff" stroke="#000000" points="1282.2792,-702.2019 1151.636,-702.2019 1151.636,-660.9981 1282.2792,-660.9981 1282.2792,-702.2019"/>
<text text-anchor="middle" x="1216.9576" y="-685.8" font-family="Times,serif" font-size="14.00" fill="#000000">GO:0050896</text>
<text text-anchor="middle" x="1216.9576" y="-669" font-family="Times,serif" font-size="14.00" fill="#000000">response to stimulus</text>
</g>
<!-- GO:0006950&#45;&gt;GO:0050896 -->
<g id="edge55" class="edge">
<title>GO:0006950&#45;&gt;GO:0050896</title>
<path fill="none" stroke="#000000" d="M1316.2462,-616.4182C1298.3852,-628.1437 1275.9082,-642.8996 1256.8592,-655.4051"/>
<polygon fill="#000000" stroke="#000000" points="1254.8158,-652.5597 1248.377,-660.9735 1258.6574,-658.4114 1254.8158,-652.5597"/>
</g>
<!-- GO:0051716&#45;&gt;GO:0009987 -->
<g id="edge57" class="edge">
<title>GO:0051716&#45;&gt;GO:0009987</title>
<path fill="none" stroke="#000000" d="M1148.4536,-621.9917C1145.5969,-622.9809 1142.7555,-623.9229 1139.9576,-624.8 1072.2061,-646.0386 1050.2772,-641.2771 977.8224,-660.7308"/>
<polygon fill="#000000" stroke="#000000" points="976.4623,-657.4749 967.7489,-663.5021 978.3191,-664.2241 976.4623,-657.4749"/>
</g>
<!-- GO:0051716&#45;&gt;GO:0050896 -->
<g id="edge56" class="edge">
<title>GO:0051716&#45;&gt;GO:0050896</title>
<path fill="none" stroke="#000000" d="M1213.0225,-625.1963C1213.5993,-633.4638 1214.2273,-642.4657 1214.8088,-650.8008"/>
<polygon fill="#000000" stroke="#000000" points="1211.3256,-651.1644 1215.5132,-660.8966 1218.3086,-650.6772 1211.3256,-651.1644"/>
</g>
<!-- GO:0050896&#45;&gt;GO:0008150 -->
<g id="edge58" class="edge">
<title>GO:0050896&#45;&gt;GO:0008150</title>
<path fill="none" stroke="#000000" d="M1151.6156,-700.0766C1148.6915,-700.8687 1145.7951,-701.6464 1142.9576,-702.4 1090.7586,-716.2636 1031.5555,-731.0464 986.7006,-742.0548"/>
<polygon fill="#000000" stroke="#000000" points="985.6587,-738.7065 976.7789,-744.4857 987.3246,-745.5054 985.6587,-738.7065"/>
</g>
<!-- GO:0008610 -->
<g id="node36" class="node">
<title>GO:0008610</title>
<polygon fill="#ffffff" stroke="#000000" points="229.5663,-436.2014 116.3489,-436.2014 116.3489,-377.3986 229.5663,-377.3986 229.5663,-436.2014"/>
<text text-anchor="middle" x="172.9576" y="-419.4" font-family="Times,serif" font-size="14.00" fill="#000000">GO:0008610</text>
<text text-anchor="middle" x="172.9576" y="-402.6" font-family="Times,serif" font-size="14.00" fill="#000000">lipid biosynthetic</text>
<text text-anchor="middle" x="172.9576" y="-385.8" font-family="Times,serif" font-size="14.00" fill="#000000">process</text>
</g>
<!-- GO:0008610&#45;&gt;GO:0006629 -->
<g id="edge61" class="edge">
<title>GO:0008610&#45;&gt;GO:0006629</title>
<path fill="none" stroke="#000000" d="M229.8131,-433.1959C232.8763,-434.2268 235.9367,-435.1718 238.9576,-436 369.3194,-471.7408 409.3561,-441.1349 540.9576,-472 547.4817,-473.5301 554.206,-475.4063 560.8653,-477.4627"/>
<polygon fill="#000000" stroke="#000000" points="559.9531,-480.846 570.5447,-480.5853 562.1023,-474.1841 559.9531,-480.846"/>
</g>
<!-- GO:0008610&#45;&gt;GO:1901576 -->
<g id="edge59" class="edge">
<title>GO:0008610&#45;&gt;GO:1901576</title>
<path fill="none" stroke="#000000" d="M139.3777,-436.1513C128.914,-445.2973 117.2507,-455.492 106.3194,-465.0467"/>
<polygon fill="#000000" stroke="#000000" points="103.7425,-462.6505 98.5167,-471.8669 108.3493,-467.921 103.7425,-462.6505"/>
</g>
<!-- GO:0008610&#45;&gt;GO:0044711 -->
<g id="edge60" class="edge">
<title>GO:0008610&#45;&gt;GO:0044711</title>
<path fill="none" stroke="#000000" d="M185.3946,-436.1513C188.9314,-444.4982 192.8383,-453.7184 196.5714,-462.5286"/>
<polygon fill="#000000" stroke="#000000" points="193.4041,-464.0249 200.5283,-471.8669 199.8494,-461.2938 193.4041,-464.0249"/>
</g>
</g>
</svg>
