<?xml version="1.0" encoding="UTF-8" standalone="no"?>
<!DOCTYPE svg PUBLIC "-//W3C//DTD SVG 1.1//EN"
 "http://www.w3.org/Graphics/SVG/1.1/DTD/svg11.dtd">
<!-- Generated by graphviz version 2.40.1 (20161225.0304)
 -->
<!-- Title: G Pages: 1 -->
<svg width="1363pt" height="784pt"
 viewBox="0.00 0.00 1362.91 784.00" xmlns="http://www.w3.org/2000/svg" xmlns:xlink="http://www.w3.org/1999/xlink">
<g id="graph0" class="graph" transform="scale(1 1) rotate(0) translate(4 780)">
<title>G</title>
<polygon fill="#ffffff" stroke="transparent" points="-4,4 -4,-780 1358.9068,-780 1358.9068,4 -4,4"/>
<!-- GO:0022891 -->
<g id="node1" class="node">
<title>GO:0022891</title>
<polygon fill="#ffffff" stroke="#000000" points="1217.4436,-442.5003 1050.5768,-442.5003 1050.5768,-367.0997 1217.4436,-367.0997 1217.4436,-442.5003"/>
<text text-anchor="middle" x="1134.0102" y="-425.8" font-family="Times,serif" font-size="14.00" fill="#000000">GO:0022891</text>
<text text-anchor="middle" x="1134.0102" y="-409" font-family="Times,serif" font-size="14.00" fill="#000000">substrate&#45;specific</text>
<text text-anchor="middle" x="1134.0102" y="-392.2" font-family="Times,serif" font-size="14.00" fill="#000000">transmembrane transporter</text>
<text text-anchor="middle" x="1134.0102" y="-375.4" font-family="Times,serif" font-size="14.00" fill="#000000">activity</text>
</g>
<!-- GO:0022857 -->
<g id="node2" class="node">
<title>GO:0022857</title>
<polygon fill="#ffffff" stroke="#000000" points="1150.4436,-537.0014 983.5768,-537.0014 983.5768,-478.1986 1150.4436,-478.1986 1150.4436,-537.0014"/>
<text text-anchor="middle" x="1067.0102" y="-520.2" font-family="Times,serif" font-size="14.00" fill="#000000">GO:0022857</text>
<text text-anchor="middle" x="1067.0102" y="-503.4" font-family="Times,serif" font-size="14.00" fill="#000000">transmembrane transporter</text>
<text text-anchor="middle" x="1067.0102" y="-486.6" font-family="Times,serif" font-size="14.00" fill="#000000">activity</text>
</g>
<!-- GO:0022891&#45;&gt;GO:0022857 -->
<g id="edge1" class="edge">
<title>GO:0022891&#45;&gt;GO:0022857</title>
<path fill="none" stroke="#000000" d="M1109.4423,-442.4952C1103.6722,-451.3485 1097.5206,-460.787 1091.7433,-469.6513"/>
<polygon fill="#000000" stroke="#000000" points="1088.6467,-467.9925 1086.1186,-478.2814 1094.5111,-471.8147 1088.6467,-467.9925"/>
</g>
<!-- GO:0022892 -->
<g id="node3" class="node">
<title>GO:0022892</title>
<polygon fill="#ffffff" stroke="#000000" points="1290.1387,-537.0014 1167.8817,-537.0014 1167.8817,-478.1986 1290.1387,-478.1986 1290.1387,-537.0014"/>
<text text-anchor="middle" x="1229.0102" y="-520.2" font-family="Times,serif" font-size="14.00" fill="#000000">GO:0022892</text>
<text text-anchor="middle" x="1229.0102" y="-503.4" font-family="Times,serif" font-size="14.00" fill="#000000">substrate&#45;specific</text>
<text text-anchor="middle" x="1229.0102" y="-486.6" font-family="Times,serif" font-size="14.00" fill="#000000">transporter activity</text>
</g>
<!-- GO:0022891&#45;&gt;GO:0022892 -->
<g id="edge2" class="edge">
<title>GO:0022891&#45;&gt;GO:0022892</title>
<path fill="none" stroke="#000000" d="M1168.8453,-442.4952C1177.3677,-451.7174 1186.4769,-461.5745 1194.962,-470.7563"/>
<polygon fill="#000000" stroke="#000000" points="1192.5587,-473.3126 1201.9161,-478.2814 1197.6996,-468.5617 1192.5587,-473.3126"/>
</g>
<!-- GO:0005215 -->
<g id="node4" class="node">
<title>GO:0005215</title>
<polygon fill="#ffffff" stroke="#000000" points="1128.1387,-622.6019 1005.8817,-622.6019 1005.8817,-581.3981 1128.1387,-581.3981 1128.1387,-622.6019"/>
<text text-anchor="middle" x="1067.0102" y="-606.2" font-family="Times,serif" font-size="14.00" fill="#000000">GO:0005215</text>
<text text-anchor="middle" x="1067.0102" y="-589.4" font-family="Times,serif" font-size="14.00" fill="#000000">transporter activity</text>
</g>
<!-- GO:0022857&#45;&gt;GO:0005215 -->
<g id="edge3" class="edge">
<title>GO:0022857&#45;&gt;GO:0005215</title>
<path fill="none" stroke="#000000" d="M1067.0102,-536.9513C1067.0102,-547.8614 1067.0102,-560.2637 1067.0102,-571.292"/>
<polygon fill="#000000" stroke="#000000" points="1063.5103,-571.3509 1067.0102,-581.351 1070.5103,-571.351 1063.5103,-571.3509"/>
</g>
<!-- GO:0022892&#45;&gt;GO:0005215 -->
<g id="edge4" class="edge">
<title>GO:0022892&#45;&gt;GO:0005215</title>
<path fill="none" stroke="#000000" d="M1178.6404,-536.9513C1157.0222,-549.5486 1131.9902,-564.1351 1111.1156,-576.2991"/>
<polygon fill="#000000" stroke="#000000" points="1109.324,-573.2922 1102.446,-581.351 1112.8483,-579.3402 1109.324,-573.2922"/>
</g>
<!-- GO:0003674 -->
<g id="node5" class="node">
<title>GO:0003674</title>
<polygon fill="#ffffff" stroke="#000000" points="904.6433,-742.2019 779.3771,-742.2019 779.3771,-700.9981 904.6433,-700.9981 904.6433,-742.2019"/>
<text text-anchor="middle" x="842.0102" y="-725.8" font-family="Times,serif" font-size="14.00" fill="#000000">GO:0003674</text>
<text text-anchor="middle" x="842.0102" y="-709" font-family="Times,serif" font-size="14.00" fill="#000000">molecular_function</text>
</g>
<!-- GO:0005215&#45;&gt;GO:0003674 -->
<g id="edge5" class="edge">
<title>GO:0005215&#45;&gt;GO:0003674</title>
<path fill="none" stroke="#000000" d="M1028.0751,-622.6962C989.7209,-643.0836 931.0524,-674.2691 889.8721,-696.1587"/>
<polygon fill="#000000" stroke="#000000" points="888.0324,-693.1728 880.8452,-700.9571 891.318,-699.3539 888.0324,-693.1728"/>
</g>
<!-- GO:0008565 -->
<g id="node6" class="node">
<title>GO:0008565</title>
<polygon fill="#ffffff" stroke="#000000" points="1354.8036,-434.2014 1235.2168,-434.2014 1235.2168,-375.3986 1354.8036,-375.3986 1354.8036,-434.2014"/>
<text text-anchor="middle" x="1295.0102" y="-417.4" font-family="Times,serif" font-size="14.00" fill="#000000">GO:0008565</text>
<text text-anchor="middle" x="1295.0102" y="-400.6" font-family="Times,serif" font-size="14.00" fill="#000000">protein transporter</text>
<text text-anchor="middle" x="1295.0102" y="-383.8" font-family="Times,serif" font-size="14.00" fill="#000000">activity</text>
</g>
<!-- GO:0008565&#45;&gt;GO:0022892 -->
<g id="edge6" class="edge">
<title>GO:0008565&#45;&gt;GO:0022892</title>
<path fill="none" stroke="#000000" d="M1276.0972,-434.2584C1269.0551,-445.2271 1260.9592,-457.8369 1253.4888,-469.4727"/>
<polygon fill="#000000" stroke="#000000" points="1250.3833,-467.8314 1247.9259,-478.1373 1256.2738,-471.6133 1250.3833,-467.8314"/>
</g>
<!-- GO:0042626 -->
<g id="node7" class="node">
<title>GO:0042626</title>
<polygon fill="#ffffff" stroke="#000000" points="749.798,-75.3003 570.2224,-75.3003 570.2224,.1003 749.798,.1003 749.798,-75.3003"/>
<text text-anchor="middle" x="660.0102" y="-58.6" font-family="Times,serif" font-size="14.00" fill="#000000">GO:0042626</text>
<text text-anchor="middle" x="660.0102" y="-41.8" font-family="Times,serif" font-size="14.00" fill="#000000">ATPase activity, coupled</text>
<text text-anchor="middle" x="660.0102" y="-25" font-family="Times,serif" font-size="14.00" fill="#000000">to transmembrane movement</text>
<text text-anchor="middle" x="660.0102" y="-8.2" font-family="Times,serif" font-size="14.00" fill="#000000">of substances</text>
</g>
<!-- GO:0043492 -->
<g id="node8" class="node">
<title>GO:0043492</title>
<polygon fill="#ffffff" stroke="#000000" points="168.0306,-178.2014 -.0102,-178.2014 -.0102,-119.3986 168.0306,-119.3986 168.0306,-178.2014"/>
<text text-anchor="middle" x="84.0102" y="-161.4" font-family="Times,serif" font-size="14.00" fill="#000000">GO:0043492</text>
<text text-anchor="middle" x="84.0102" y="-144.6" font-family="Times,serif" font-size="14.00" fill="#000000">ATPase activity, coupled</text>
<text text-anchor="middle" x="84.0102" y="-127.8" font-family="Times,serif" font-size="14.00" fill="#000000">to movement of substances</text>
</g>
<!-- GO:0042626&#45;&gt;GO:0043492 -->
<g id="edge7" class="edge">
<title>GO:0042626&#45;&gt;GO:0043492</title>
<path fill="none" stroke="#000000" d="M570.1323,-44.9835C472.1454,-54.4856 311.3677,-74.346 177.0102,-111.2 171.7092,-112.654 166.3017,-114.3211 160.8945,-116.1265"/>
<polygon fill="#000000" stroke="#000000" points="159.4766,-112.9141 151.185,-119.5096 161.7798,-119.5244 159.4766,-112.9141"/>
</g>
<!-- GO:0016820 -->
<g id="node9" class="node">
<title>GO:0016820</title>
<polygon fill="#ffffff" stroke="#000000" points="750.0678,-331.1002 569.9526,-331.1002 569.9526,-222.4998 750.0678,-222.4998 750.0678,-331.1002"/>
<text text-anchor="middle" x="660.0102" y="-314.6" font-family="Times,serif" font-size="14.00" fill="#000000">GO:0016820</text>
<text text-anchor="middle" x="660.0102" y="-297.8" font-family="Times,serif" font-size="14.00" fill="#000000">hydrolase activity,</text>
<text text-anchor="middle" x="660.0102" y="-281" font-family="Times,serif" font-size="14.00" fill="#000000">acting on acid</text>
<text text-anchor="middle" x="660.0102" y="-264.2" font-family="Times,serif" font-size="14.00" fill="#000000">anhydrides, catalyzing</text>
<text text-anchor="middle" x="660.0102" y="-247.4" font-family="Times,serif" font-size="14.00" fill="#000000">transmembrane movement of</text>
<text text-anchor="middle" x="660.0102" y="-230.6" font-family="Times,serif" font-size="14.00" fill="#000000">substances</text>
</g>
<!-- GO:0042626&#45;&gt;GO:0016820 -->
<g id="edge8" class="edge">
<title>GO:0042626&#45;&gt;GO:0016820</title>
<path fill="none" stroke="#000000" d="M660.0102,-75.2381C660.0102,-111.9778 660.0102,-168.5996 660.0102,-212.487"/>
<polygon fill="#000000" stroke="#000000" points="656.5103,-212.4955 660.0102,-222.4955 663.5103,-212.4956 656.5103,-212.4955"/>
</g>
<!-- GO:0015405 -->
<g id="node10" class="node">
<title>GO:0015405</title>
<polygon fill="#ffffff" stroke="#000000" points="875.5727,-186.5003 734.4477,-186.5003 734.4477,-111.0997 875.5727,-111.0997 875.5727,-186.5003"/>
<text text-anchor="middle" x="805.0102" y="-169.8" font-family="Times,serif" font-size="14.00" fill="#000000">GO:0015405</text>
<text text-anchor="middle" x="805.0102" y="-153" font-family="Times,serif" font-size="14.00" fill="#000000">P&#45;P&#45;bond&#45;hydrolysis&#45;</text>
<text text-anchor="middle" x="805.0102" y="-136.2" font-family="Times,serif" font-size="14.00" fill="#000000">driven transmembrane</text>
<text text-anchor="middle" x="805.0102" y="-119.4" font-family="Times,serif" font-size="14.00" fill="#000000">transporter activity</text>
</g>
<!-- GO:0042626&#45;&gt;GO:0015405 -->
<g id="edge9" class="edge">
<title>GO:0042626&#45;&gt;GO:0015405</title>
<path fill="none" stroke="#000000" d="M709.1006,-75.2472C721.5015,-84.7575 734.9261,-95.0527 747.693,-104.8436"/>
<polygon fill="#000000" stroke="#000000" points="745.9052,-107.8833 755.9704,-111.1915 750.1651,-102.3287 745.9052,-107.8833"/>
</g>
<!-- GO:0042623 -->
<g id="node11" class="node">
<title>GO:0042623</title>
<polygon fill="#ffffff" stroke="#000000" points="162.6373,-297.4019 5.3831,-297.4019 5.3831,-256.1981 162.6373,-256.1981 162.6373,-297.4019"/>
<text text-anchor="middle" x="84.0102" y="-281" font-family="Times,serif" font-size="14.00" fill="#000000">GO:0042623</text>
<text text-anchor="middle" x="84.0102" y="-264.2" font-family="Times,serif" font-size="14.00" fill="#000000">ATPase activity, coupled</text>
</g>
<!-- GO:0043492&#45;&gt;GO:0042623 -->
<g id="edge10" class="edge">
<title>GO:0043492&#45;&gt;GO:0042623</title>
<path fill="none" stroke="#000000" d="M84.0102,-178.1658C84.0102,-198.4043 84.0102,-225.2552 84.0102,-245.8312"/>
<polygon fill="#000000" stroke="#000000" points="80.5103,-245.9508 84.0102,-255.9508 87.5103,-245.9509 80.5103,-245.9508"/>
</g>
<!-- GO:0016817 -->
<g id="node12" class="node">
<title>GO:0016817</title>
<polygon fill="#ffffff" stroke="#000000" points="702.9661,-434.2014 543.0543,-434.2014 543.0543,-375.3986 702.9661,-375.3986 702.9661,-434.2014"/>
<text text-anchor="middle" x="623.0102" y="-417.4" font-family="Times,serif" font-size="14.00" fill="#000000">GO:0016817</text>
<text text-anchor="middle" x="623.0102" y="-400.6" font-family="Times,serif" font-size="14.00" fill="#000000">hydrolase activity,</text>
<text text-anchor="middle" x="623.0102" y="-383.8" font-family="Times,serif" font-size="14.00" fill="#000000">acting on acid anhydrides</text>
</g>
<!-- GO:0016820&#45;&gt;GO:0016817 -->
<g id="edge11" class="edge">
<title>GO:0016820&#45;&gt;GO:0016817</title>
<path fill="none" stroke="#000000" d="M644.2115,-331.4548C640.9072,-342.8862 637.4853,-354.7241 634.3798,-365.4672"/>
<polygon fill="#000000" stroke="#000000" points="630.9283,-364.8041 631.5136,-375.3828 637.653,-366.748 630.9283,-364.8041"/>
</g>
<!-- GO:0022804 -->
<g id="node13" class="node">
<title>GO:0022804</title>
<polygon fill="#ffffff" stroke="#000000" points="1032.7314,-434.2014 893.289,-434.2014 893.289,-375.3986 1032.7314,-375.3986 1032.7314,-434.2014"/>
<text text-anchor="middle" x="963.0102" y="-417.4" font-family="Times,serif" font-size="14.00" fill="#000000">GO:0022804</text>
<text text-anchor="middle" x="963.0102" y="-400.6" font-family="Times,serif" font-size="14.00" fill="#000000">active transmembrane</text>
<text text-anchor="middle" x="963.0102" y="-383.8" font-family="Times,serif" font-size="14.00" fill="#000000">transporter activity</text>
</g>
<!-- GO:0016820&#45;&gt;GO:0022804 -->
<g id="edge12" class="edge">
<title>GO:0016820&#45;&gt;GO:0022804</title>
<path fill="none" stroke="#000000" d="M750.1808,-311.7458C791.2481,-328.0308 840.3356,-348.0147 884.0102,-367.2 887.0002,-368.5134 890.0451,-369.8715 893.1148,-371.2573"/>
<polygon fill="#000000" stroke="#000000" points="891.817,-374.5123 902.3674,-375.4817 894.7242,-368.1445 891.817,-374.5123"/>
</g>
<!-- GO:0015399 -->
<g id="node14" class="node">
<title>GO:0015399</title>
<polygon fill="#ffffff" stroke="#000000" points="1008.4436,-314.5003 841.5768,-314.5003 841.5768,-239.0997 1008.4436,-239.0997 1008.4436,-314.5003"/>
<text text-anchor="middle" x="925.0102" y="-297.8" font-family="Times,serif" font-size="14.00" fill="#000000">GO:0015399</text>
<text text-anchor="middle" x="925.0102" y="-281" font-family="Times,serif" font-size="14.00" fill="#000000">primary active</text>
<text text-anchor="middle" x="925.0102" y="-264.2" font-family="Times,serif" font-size="14.00" fill="#000000">transmembrane transporter</text>
<text text-anchor="middle" x="925.0102" y="-247.4" font-family="Times,serif" font-size="14.00" fill="#000000">activity</text>
</g>
<!-- GO:0015405&#45;&gt;GO:0015399 -->
<g id="edge13" class="edge">
<title>GO:0015405&#45;&gt;GO:0015399</title>
<path fill="none" stroke="#000000" d="M840.3651,-186.5119C853.5526,-200.5785 868.6626,-216.6959 882.4322,-231.3834"/>
<polygon fill="#000000" stroke="#000000" points="880.1005,-234.0137 889.4933,-238.9153 885.2073,-229.2261 880.1005,-234.0137"/>
</g>
<!-- GO:0016887 -->
<g id="node15" class="node">
<title>GO:0016887</title>
<polygon fill="#ffffff" stroke="#000000" points="136.8176,-425.4019 31.2028,-425.4019 31.2028,-384.1981 136.8176,-384.1981 136.8176,-425.4019"/>
<text text-anchor="middle" x="84.0102" y="-409" font-family="Times,serif" font-size="14.00" fill="#000000">GO:0016887</text>
<text text-anchor="middle" x="84.0102" y="-392.2" font-family="Times,serif" font-size="14.00" fill="#000000">ATPase activity</text>
</g>
<!-- GO:0042623&#45;&gt;GO:0016887 -->
<g id="edge14" class="edge">
<title>GO:0042623&#45;&gt;GO:0016887</title>
<path fill="none" stroke="#000000" d="M84.0102,-297.6503C84.0102,-318.2914 84.0102,-350.1413 84.0102,-373.7573"/>
<polygon fill="#000000" stroke="#000000" points="80.5103,-373.9586 84.0102,-383.9586 87.5103,-373.9587 80.5103,-373.9586"/>
</g>
<!-- GO:0016787 -->
<g id="node16" class="node">
<title>GO:0016787</title>
<polygon fill="#ffffff" stroke="#000000" points="699.9268,-528.2019 584.0936,-528.2019 584.0936,-486.9981 699.9268,-486.9981 699.9268,-528.2019"/>
<text text-anchor="middle" x="642.0102" y="-511.8" font-family="Times,serif" font-size="14.00" fill="#000000">GO:0016787</text>
<text text-anchor="middle" x="642.0102" y="-495" font-family="Times,serif" font-size="14.00" fill="#000000">hydrolase activity</text>
</g>
<!-- GO:0016817&#45;&gt;GO:0016787 -->
<g id="edge15" class="edge">
<title>GO:0016817&#45;&gt;GO:0016787</title>
<path fill="none" stroke="#000000" d="M628.4548,-434.2584C630.9122,-447.5539 633.8152,-463.2608 636.303,-476.7212"/>
<polygon fill="#000000" stroke="#000000" points="632.9335,-477.7483 638.1928,-486.9456 639.8169,-476.476 632.9335,-477.7483"/>
</g>
<!-- GO:0022804&#45;&gt;GO:0022857 -->
<g id="edge16" class="edge">
<title>GO:0022804&#45;&gt;GO:0022857</title>
<path fill="none" stroke="#000000" d="M992.8124,-434.2584C1004.3444,-445.6572 1017.6694,-458.8285 1029.818,-470.8369"/>
<polygon fill="#000000" stroke="#000000" points="1027.6311,-473.5966 1037.2036,-478.1373 1032.5521,-468.6182 1027.6311,-473.5966"/>
</g>
<!-- GO:0015399&#45;&gt;GO:0022804 -->
<g id="edge17" class="edge">
<title>GO:0015399&#45;&gt;GO:0022804</title>
<path fill="none" stroke="#000000" d="M936.2059,-314.5119C940.9922,-330.6342 946.5782,-349.4502 951.4083,-365.72"/>
<polygon fill="#000000" stroke="#000000" points="948.1028,-366.884 954.3041,-375.4744 954.8134,-364.8918 948.1028,-366.884"/>
</g>
<!-- GO:0017111 -->
<g id="node17" class="node">
<title>GO:0017111</title>
<polygon fill="#ffffff" stroke="#000000" points="164.9063,-537.0014 3.1141,-537.0014 3.1141,-478.1986 164.9063,-478.1986 164.9063,-537.0014"/>
<text text-anchor="middle" x="84.0102" y="-520.2" font-family="Times,serif" font-size="14.00" fill="#000000">GO:0017111</text>
<text text-anchor="middle" x="84.0102" y="-503.4" font-family="Times,serif" font-size="14.00" fill="#000000">nucleoside&#45;triphosphatase</text>
<text text-anchor="middle" x="84.0102" y="-486.6" font-family="Times,serif" font-size="14.00" fill="#000000">activity</text>
</g>
<!-- GO:0016887&#45;&gt;GO:0017111 -->
<g id="edge18" class="edge">
<title>GO:0016887&#45;&gt;GO:0017111</title>
<path fill="none" stroke="#000000" d="M84.0102,-425.6031C84.0102,-437.7833 84.0102,-453.5676 84.0102,-468.0305"/>
<polygon fill="#000000" stroke="#000000" points="80.5103,-468.2577 84.0102,-478.2577 87.5103,-468.2578 80.5103,-468.2577"/>
</g>
<!-- GO:0003824 -->
<g id="node18" class="node">
<title>GO:0003824</title>
<polygon fill="#ffffff" stroke="#000000" points="827.4226,-622.6019 718.5978,-622.6019 718.5978,-581.3981 827.4226,-581.3981 827.4226,-622.6019"/>
<text text-anchor="middle" x="773.0102" y="-606.2" font-family="Times,serif" font-size="14.00" fill="#000000">GO:0003824</text>
<text text-anchor="middle" x="773.0102" y="-589.4" font-family="Times,serif" font-size="14.00" fill="#000000">catalytic activity</text>
</g>
<!-- GO:0016787&#45;&gt;GO:0003824 -->
<g id="edge19" class="edge">
<title>GO:0016787&#45;&gt;GO:0003824</title>
<path fill="none" stroke="#000000" d="M670.7587,-528.3165C689.9556,-542.1499 715.3796,-560.4708 736.0734,-575.3829"/>
<polygon fill="#000000" stroke="#000000" points="734.1695,-578.325 744.3288,-581.3318 738.262,-572.6459 734.1695,-578.325"/>
</g>
<!-- GO:0016462 -->
<g id="node19" class="node">
<title>GO:0016462</title>
<polygon fill="#ffffff" stroke="#000000" points="161.5866,-622.6019 6.4338,-622.6019 6.4338,-581.3981 161.5866,-581.3981 161.5866,-622.6019"/>
<text text-anchor="middle" x="84.0102" y="-606.2" font-family="Times,serif" font-size="14.00" fill="#000000">GO:0016462</text>
<text text-anchor="middle" x="84.0102" y="-589.4" font-family="Times,serif" font-size="14.00" fill="#000000">pyrophosphatase activity</text>
</g>
<!-- GO:0017111&#45;&gt;GO:0016462 -->
<g id="edge20" class="edge">
<title>GO:0017111&#45;&gt;GO:0016462</title>
<path fill="none" stroke="#000000" d="M84.0102,-536.9513C84.0102,-547.8614 84.0102,-560.2637 84.0102,-571.292"/>
<polygon fill="#000000" stroke="#000000" points="80.5103,-571.3509 84.0102,-581.351 87.5103,-571.351 80.5103,-571.3509"/>
</g>
<!-- GO:0003824&#45;&gt;GO:0003674 -->
<g id="edge21" class="edge">
<title>GO:0003824&#45;&gt;GO:0003674</title>
<path fill="none" stroke="#000000" d="M785.0291,-622.8327C796.0429,-641.9234 812.471,-670.3988 824.8619,-691.8763"/>
<polygon fill="#000000" stroke="#000000" points="821.8686,-693.6919 829.8975,-700.6047 827.9319,-690.1938 821.8686,-693.6919"/>
</g>
<!-- GO:0016818 -->
<g id="node20" class="node">
<title>GO:0016818</title>
<polygon fill="#ffffff" stroke="#000000" points="156.3219,-775.9002 11.6985,-775.9002 11.6985,-667.2998 156.3219,-667.2998 156.3219,-775.9002"/>
<text text-anchor="middle" x="84.0102" y="-759.4" font-family="Times,serif" font-size="14.00" fill="#000000">GO:0016818</text>
<text text-anchor="middle" x="84.0102" y="-742.6" font-family="Times,serif" font-size="14.00" fill="#000000">hydrolase activity,</text>
<text text-anchor="middle" x="84.0102" y="-725.8" font-family="Times,serif" font-size="14.00" fill="#000000">acting on acid</text>
<text text-anchor="middle" x="84.0102" y="-709" font-family="Times,serif" font-size="14.00" fill="#000000">anhydrides, in</text>
<text text-anchor="middle" x="84.0102" y="-692.2" font-family="Times,serif" font-size="14.00" fill="#000000">phosphorus&#45;containing</text>
<text text-anchor="middle" x="84.0102" y="-675.4" font-family="Times,serif" font-size="14.00" fill="#000000">anhydrides</text>
</g>
<!-- GO:0016462&#45;&gt;GO:0016818 -->
<g id="edge22" class="edge">
<title>GO:0016462&#45;&gt;GO:0016818</title>
<path fill="none" stroke="#000000" d="M84.0102,-622.8327C84.0102,-632.4534 84.0102,-644.4573 84.0102,-656.748"/>
<polygon fill="#000000" stroke="#000000" points="80.5103,-657.0935 84.0102,-667.0935 87.5103,-657.0935 80.5103,-657.0935"/>
</g>
<!-- GO:0046914 -->
<g id="node21" class="node">
<title>GO:0046914</title>
<polygon fill="#ffffff" stroke="#000000" points="310.3841,-178.2014 185.6363,-178.2014 185.6363,-119.3986 310.3841,-119.3986 310.3841,-178.2014"/>
<text text-anchor="middle" x="248.0102" y="-161.4" font-family="Times,serif" font-size="14.00" fill="#000000">GO:0046914</text>
<text text-anchor="middle" x="248.0102" y="-144.6" font-family="Times,serif" font-size="14.00" fill="#000000">transition metal ion</text>
<text text-anchor="middle" x="248.0102" y="-127.8" font-family="Times,serif" font-size="14.00" fill="#000000">binding</text>
</g>
<!-- GO:0046872 -->
<g id="node22" class="node">
<title>GO:0046872</title>
<polygon fill="#ffffff" stroke="#000000" points="300.2832,-297.4019 185.7372,-297.4019 185.7372,-256.1981 300.2832,-256.1981 300.2832,-297.4019"/>
<text text-anchor="middle" x="243.0102" y="-281" font-family="Times,serif" font-size="14.00" fill="#000000">GO:0046872</text>
<text text-anchor="middle" x="243.0102" y="-264.2" font-family="Times,serif" font-size="14.00" fill="#000000">metal ion binding</text>
</g>
<!-- GO:0046914&#45;&gt;GO:0046872 -->
<g id="edge23" class="edge">
<title>GO:0046914&#45;&gt;GO:0046872</title>
<path fill="none" stroke="#000000" d="M246.8631,-178.1658C246.0725,-198.4043 245.0237,-225.2552 244.2199,-245.8312"/>
<polygon fill="#000000" stroke="#000000" points="240.7177,-245.8218 243.8246,-255.9508 247.7124,-246.0951 240.7177,-245.8218"/>
</g>
<!-- GO:0043169 -->
<g id="node23" class="node">
<title>GO:0043169</title>
<polygon fill="#ffffff" stroke="#000000" points="287.5031,-425.4019 190.5173,-425.4019 190.5173,-384.1981 287.5031,-384.1981 287.5031,-425.4019"/>
<text text-anchor="middle" x="239.0102" y="-409" font-family="Times,serif" font-size="14.00" fill="#000000">GO:0043169</text>
<text text-anchor="middle" x="239.0102" y="-392.2" font-family="Times,serif" font-size="14.00" fill="#000000">cation binding</text>
</g>
<!-- GO:0046872&#45;&gt;GO:0043169 -->
<g id="edge24" class="edge">
<title>GO:0046872&#45;&gt;GO:0043169</title>
<path fill="none" stroke="#000000" d="M242.3586,-297.6503C241.7136,-318.2914 240.7183,-350.1413 239.9803,-373.7573"/>
<polygon fill="#000000" stroke="#000000" points="236.4756,-373.8542 239.6615,-383.9586 243.4722,-374.0729 236.4756,-373.8542"/>
</g>
<!-- GO:0043167 -->
<g id="node24" class="node">
<title>GO:0043167</title>
<polygon fill="#ffffff" stroke="#000000" points="279.6141,-528.2019 190.4063,-528.2019 190.4063,-486.9981 279.6141,-486.9981 279.6141,-528.2019"/>
<text text-anchor="middle" x="235.0102" y="-511.8" font-family="Times,serif" font-size="14.00" fill="#000000">GO:0043167</text>
<text text-anchor="middle" x="235.0102" y="-495" font-family="Times,serif" font-size="14.00" fill="#000000">ion binding</text>
</g>
<!-- GO:0043169&#45;&gt;GO:0043167 -->
<g id="edge25" class="edge">
<title>GO:0043169&#45;&gt;GO:0043167</title>
<path fill="none" stroke="#000000" d="M238.2007,-425.6031C237.6315,-440.2337 236.8598,-460.0642 236.218,-476.5586"/>
<polygon fill="#000000" stroke="#000000" points="232.71,-476.6993 235.8185,-486.8278 239.7047,-476.9715 232.71,-476.6993"/>
</g>
<!-- GO:0005488 -->
<g id="node25" class="node">
<title>GO:0005488</title>
<polygon fill="#ffffff" stroke="#000000" points="488.6141,-622.6019 399.4063,-622.6019 399.4063,-581.3981 488.6141,-581.3981 488.6141,-622.6019"/>
<text text-anchor="middle" x="444.0102" y="-606.2" font-family="Times,serif" font-size="14.00" fill="#000000">GO:0005488</text>
<text text-anchor="middle" x="444.0102" y="-589.4" font-family="Times,serif" font-size="14.00" fill="#000000">binding</text>
</g>
<!-- GO:0043167&#45;&gt;GO:0005488 -->
<g id="edge26" class="edge">
<title>GO:0043167&#45;&gt;GO:0005488</title>
<path fill="none" stroke="#000000" d="M272.2401,-528.342C277.8161,-531.2703 283.5319,-534.1743 289.0102,-536.8 322.0297,-552.6259 359.9009,-568.5951 389.9434,-580.7683"/>
<polygon fill="#000000" stroke="#000000" points="388.8229,-584.0902 399.4063,-584.5823 391.4397,-577.5977 388.8229,-584.0902"/>
</g>
<!-- GO:0005488&#45;&gt;GO:0003674 -->
<g id="edge27" class="edge">
<title>GO:0005488&#45;&gt;GO:0003674</title>
<path fill="none" stroke="#000000" d="M488.8922,-615.4872C557.1684,-636.0043 687.8101,-675.2625 769.6222,-699.8472"/>
<polygon fill="#000000" stroke="#000000" points="768.7655,-703.2443 779.3498,-702.7704 770.7801,-696.5405 768.7655,-703.2443"/>
</g>
<!-- GO:0097367 -->
<g id="node26" class="node">
<title>GO:0097367</title>
<polygon fill="#ffffff" stroke="#000000" points="446.0573,-537.0014 297.9631,-537.0014 297.9631,-478.1986 446.0573,-478.1986 446.0573,-537.0014"/>
<text text-anchor="middle" x="372.0102" y="-520.2" font-family="Times,serif" font-size="14.00" fill="#000000">GO:0097367</text>
<text text-anchor="middle" x="372.0102" y="-503.4" font-family="Times,serif" font-size="14.00" fill="#000000">carbohydrate derivative</text>
<text text-anchor="middle" x="372.0102" y="-486.6" font-family="Times,serif" font-size="14.00" fill="#000000">binding</text>
</g>
<!-- GO:0097367&#45;&gt;GO:0005488 -->
<g id="edge28" class="edge">
<title>GO:0097367&#45;&gt;GO:0005488</title>
<path fill="none" stroke="#000000" d="M394.3968,-536.9513C403.2328,-548.5363 413.352,-561.8037 422.1372,-573.322"/>
<polygon fill="#000000" stroke="#000000" points="419.4135,-575.5223 428.261,-581.351 424.9794,-571.2772 419.4135,-575.5223"/>
</g>
<!-- GO:0004872 -->
<g id="node27" class="node">
<title>GO:0004872</title>
<polygon fill="#ffffff" stroke="#000000" points="965.858,-528.2019 858.1624,-528.2019 858.1624,-486.9981 965.858,-486.9981 965.858,-528.2019"/>
<text text-anchor="middle" x="912.0102" y="-511.8" font-family="Times,serif" font-size="14.00" fill="#000000">GO:0004872</text>
<text text-anchor="middle" x="912.0102" y="-495" font-family="Times,serif" font-size="14.00" fill="#000000">receptor activity</text>
</g>
<!-- GO:0060089 -->
<g id="node28" class="node">
<title>GO:0060089</title>
<polygon fill="#ffffff" stroke="#000000" points="978.7868,-631.4014 845.2336,-631.4014 845.2336,-572.5986 978.7868,-572.5986 978.7868,-631.4014"/>
<text text-anchor="middle" x="912.0102" y="-614.6" font-family="Times,serif" font-size="14.00" fill="#000000">GO:0060089</text>
<text text-anchor="middle" x="912.0102" y="-597.8" font-family="Times,serif" font-size="14.00" fill="#000000">molecular transducer</text>
<text text-anchor="middle" x="912.0102" y="-581" font-family="Times,serif" font-size="14.00" fill="#000000">activity</text>
</g>
<!-- GO:0004872&#45;&gt;GO:0060089 -->
<g id="edge29" class="edge">
<title>GO:0004872&#45;&gt;GO:0060089</title>
<path fill="none" stroke="#000000" d="M912.0102,-528.5504C912.0102,-538.5492 912.0102,-550.8525 912.0102,-562.5106"/>
<polygon fill="#000000" stroke="#000000" points="908.5103,-562.5155 912.0102,-572.5155 915.5103,-562.5156 908.5103,-562.5155"/>
</g>
<!-- GO:0060089&#45;&gt;GO:0003674 -->
<g id="edge30" class="edge">
<title>GO:0060089&#45;&gt;GO:0003674</title>
<path fill="none" stroke="#000000" d="M894.8863,-631.2575C884.0338,-649.7997 870.047,-673.6972 859.1848,-692.256"/>
<polygon fill="#000000" stroke="#000000" points="856.1615,-690.4926 854.1308,-700.891 862.2028,-694.0285 856.1615,-690.4926"/>
</g>
<!-- GO:0016772 -->
<g id="node29" class="node">
<title>GO:0016772</title>
<polygon fill="#ffffff" stroke="#000000" points="875.018,-442.5003 721.0024,-442.5003 721.0024,-367.0997 875.018,-367.0997 875.018,-442.5003"/>
<text text-anchor="middle" x="798.0102" y="-425.8" font-family="Times,serif" font-size="14.00" fill="#000000">GO:0016772</text>
<text text-anchor="middle" x="798.0102" y="-409" font-family="Times,serif" font-size="14.00" fill="#000000">transferase activity,</text>
<text text-anchor="middle" x="798.0102" y="-392.2" font-family="Times,serif" font-size="14.00" fill="#000000">transferring phosphorus&#45;</text>
<text text-anchor="middle" x="798.0102" y="-375.4" font-family="Times,serif" font-size="14.00" fill="#000000">containing groups</text>
</g>
<!-- GO:0016740 -->
<g id="node30" class="node">
<title>GO:0016740</title>
<polygon fill="#ffffff" stroke="#000000" points="840.1219,-528.2019 717.8985,-528.2019 717.8985,-486.9981 840.1219,-486.9981 840.1219,-528.2019"/>
<text text-anchor="middle" x="779.0102" y="-511.8" font-family="Times,serif" font-size="14.00" fill="#000000">GO:0016740</text>
<text text-anchor="middle" x="779.0102" y="-495" font-family="Times,serif" font-size="14.00" fill="#000000">transferase activity</text>
</g>
<!-- GO:0016772&#45;&gt;GO:0016740 -->
<g id="edge31" class="edge">
<title>GO:0016772&#45;&gt;GO:0016740</title>
<path fill="none" stroke="#000000" d="M791.0432,-442.4952C788.9404,-453.8725 786.6589,-466.2162 784.6536,-477.066"/>
<polygon fill="#000000" stroke="#000000" points="781.2063,-476.4606 782.8305,-486.9302 788.0898,-477.7329 781.2063,-476.4606"/>
</g>
<!-- GO:0016740&#45;&gt;GO:0003824 -->
<g id="edge32" class="edge">
<title>GO:0016740&#45;&gt;GO:0003824</title>
<path fill="none" stroke="#000000" d="M777.6786,-528.5504C776.8863,-541.0165 775.8663,-557.0645 774.9819,-570.9786"/>
<polygon fill="#000000" stroke="#000000" points="771.4795,-570.9062 774.3381,-581.1081 778.4654,-571.3503 771.4795,-570.9062"/>
</g>
<!-- GO:0042802 -->
<g id="node31" class="node">
<title>GO:0042802</title>
<polygon fill="#ffffff" stroke="#000000" points="524.6544,-425.4019 371.366,-425.4019 371.366,-384.1981 524.6544,-384.1981 524.6544,-425.4019"/>
<text text-anchor="middle" x="448.0102" y="-409" font-family="Times,serif" font-size="14.00" fill="#000000">GO:0042802</text>
<text text-anchor="middle" x="448.0102" y="-392.2" font-family="Times,serif" font-size="14.00" fill="#000000">identical protein binding</text>
</g>
<!-- GO:0005515 -->
<g id="node32" class="node">
<title>GO:0005515</title>
<polygon fill="#ffffff" stroke="#000000" points="565.9478,-528.2019 464.0726,-528.2019 464.0726,-486.9981 565.9478,-486.9981 565.9478,-528.2019"/>
<text text-anchor="middle" x="515.0102" y="-511.8" font-family="Times,serif" font-size="14.00" fill="#000000">GO:0005515</text>
<text text-anchor="middle" x="515.0102" y="-495" font-family="Times,serif" font-size="14.00" fill="#000000">protein binding</text>
</g>
<!-- GO:0042802&#45;&gt;GO:0005515 -->
<g id="edge33" class="edge">
<title>GO:0042802&#45;&gt;GO:0005515</title>
<path fill="none" stroke="#000000" d="M461.5686,-425.6031C471.4674,-440.791 485.0184,-461.5827 495.9978,-478.4287"/>
<polygon fill="#000000" stroke="#000000" points="493.0795,-480.3612 501.4719,-486.8278 498.9439,-476.539 493.0795,-480.3612"/>
</g>
<!-- GO:0005515&#45;&gt;GO:0005488 -->
<g id="edge34" class="edge">
<title>GO:0005515&#45;&gt;GO:0005488</title>
<path fill="none" stroke="#000000" d="M499.253,-528.5504C489.4174,-541.6276 476.6172,-558.6464 465.8151,-573.0087"/>
<polygon fill="#000000" stroke="#000000" points="462.9371,-571.0125 459.7234,-581.1081 468.5314,-575.2201 462.9371,-571.0125"/>
</g>
</g>
</svg>
