<?xml version="1.0" encoding="UTF-8" standalone="no"?>
<!DOCTYPE svg PUBLIC "-//W3C//DTD SVG 1.1//EN"
 "http://www.w3.org/Graphics/SVG/1.1/DTD/svg11.dtd">
<!-- Generated by graphviz version 2.40.1 (20161225.0304)
 -->
<!-- Title: G Pages: 1 -->
<svg width="167pt" height="522pt"
 viewBox="0.00 0.00 167.46 521.60" xmlns="http://www.w3.org/2000/svg" xmlns:xlink="http://www.w3.org/1999/xlink">
<g id="graph0" class="graph" transform="scale(1 1) rotate(0) translate(4 517.6)">
<title>G</title>
<polygon fill="#ffffff" stroke="transparent" points="-4,4 -4,-517.6 163.4552,-517.6 163.4552,4 -4,4"/>
<!-- GO:0016462 -->
<g id="node1" class="node">
<title>GO:0016462</title>
<polygon fill="#ffffff" stroke="#000000" points="157.304,-41.4019 2.1512,-41.4019 2.1512,-.1981 157.304,-.1981 157.304,-41.4019"/>
<text text-anchor="middle" x="79.7276" y="-25" font-family="Times,serif" font-size="14.00" fill="#000000">GO:0016462</text>
<text text-anchor="middle" x="79.7276" y="-8.2" font-family="Times,serif" font-size="14.00" fill="#000000">pyrophosphatase activity</text>
</g>
<!-- GO:0016818 -->
<g id="node2" class="node">
<title>GO:0016818</title>
<polygon fill="#ffffff" stroke="#000000" points="152.0393,-186.3002 7.4159,-186.3002 7.4159,-77.6998 152.0393,-77.6998 152.0393,-186.3002"/>
<text text-anchor="middle" x="79.7276" y="-169.8" font-family="Times,serif" font-size="14.00" fill="#000000">GO:0016818</text>
<text text-anchor="middle" x="79.7276" y="-153" font-family="Times,serif" font-size="14.00" fill="#000000">hydrolase activity,</text>
<text text-anchor="middle" x="79.7276" y="-136.2" font-family="Times,serif" font-size="14.00" fill="#000000">acting on acid</text>
<text text-anchor="middle" x="79.7276" y="-119.4" font-family="Times,serif" font-size="14.00" fill="#000000">anhydrides, in</text>
<text text-anchor="middle" x="79.7276" y="-102.6" font-family="Times,serif" font-size="14.00" fill="#000000">phosphorus&#45;containing</text>
<text text-anchor="middle" x="79.7276" y="-85.8" font-family="Times,serif" font-size="14.00" fill="#000000">anhydrides</text>
</g>
<!-- GO:0016462&#45;&gt;GO:0016818 -->
<g id="edge1" class="edge">
<title>GO:0016462&#45;&gt;GO:0016818</title>
<path fill="none" stroke="#000000" d="M79.7276,-41.4553C79.7276,-49.0198 79.7276,-58.0357 79.7276,-67.4015"/>
<polygon fill="#000000" stroke="#000000" points="76.2277,-67.6495 79.7276,-77.6496 83.2277,-67.6496 76.2277,-67.6495"/>
</g>
<!-- GO:0016817 -->
<g id="node3" class="node">
<title>GO:0016817</title>
<polygon fill="#ffffff" stroke="#000000" points="159.6835,-281.0014 -.2283,-281.0014 -.2283,-222.1986 159.6835,-222.1986 159.6835,-281.0014"/>
<text text-anchor="middle" x="79.7276" y="-264.2" font-family="Times,serif" font-size="14.00" fill="#000000">GO:0016817</text>
<text text-anchor="middle" x="79.7276" y="-247.4" font-family="Times,serif" font-size="14.00" fill="#000000">hydrolase activity,</text>
<text text-anchor="middle" x="79.7276" y="-230.6" font-family="Times,serif" font-size="14.00" fill="#000000">acting on acid anhydrides</text>
</g>
<!-- GO:0016818&#45;&gt;GO:0016817 -->
<g id="edge2" class="edge">
<title>GO:0016818&#45;&gt;GO:0016817</title>
<path fill="none" stroke="#000000" d="M79.7276,-186.5502C79.7276,-195.2138 79.7276,-204.0255 79.7276,-212.2504"/>
<polygon fill="#000000" stroke="#000000" points="76.2277,-212.2995 79.7276,-222.2995 83.2277,-212.2995 76.2277,-212.2995"/>
</g>
<!-- GO:0016787 -->
<g id="node4" class="node">
<title>GO:0016787</title>
<polygon fill="#ffffff" stroke="#000000" points="137.6442,-358.2019 21.811,-358.2019 21.811,-316.9981 137.6442,-316.9981 137.6442,-358.2019"/>
<text text-anchor="middle" x="79.7276" y="-341.8" font-family="Times,serif" font-size="14.00" fill="#000000">GO:0016787</text>
<text text-anchor="middle" x="79.7276" y="-325" font-family="Times,serif" font-size="14.00" fill="#000000">hydrolase activity</text>
</g>
<!-- GO:0016817&#45;&gt;GO:0016787 -->
<g id="edge3" class="edge">
<title>GO:0016817&#45;&gt;GO:0016787</title>
<path fill="none" stroke="#000000" d="M79.7276,-281.1963C79.7276,-289.4638 79.7276,-298.4657 79.7276,-306.8008"/>
<polygon fill="#000000" stroke="#000000" points="76.2277,-306.8965 79.7276,-316.8966 83.2277,-306.8966 76.2277,-306.8965"/>
</g>
<!-- GO:0003824 -->
<g id="node5" class="node">
<title>GO:0003824</title>
<polygon fill="#ffffff" stroke="#000000" points="134.14,-435.8019 25.3152,-435.8019 25.3152,-394.5981 134.14,-394.5981 134.14,-435.8019"/>
<text text-anchor="middle" x="79.7276" y="-419.4" font-family="Times,serif" font-size="14.00" fill="#000000">GO:0003824</text>
<text text-anchor="middle" x="79.7276" y="-402.6" font-family="Times,serif" font-size="14.00" fill="#000000">catalytic activity</text>
</g>
<!-- GO:0016787&#45;&gt;GO:0003824 -->
<g id="edge4" class="edge">
<title>GO:0016787&#45;&gt;GO:0003824</title>
<path fill="none" stroke="#000000" d="M79.7276,-358.3954C79.7276,-366.3109 79.7276,-375.5109 79.7276,-384.1722"/>
<polygon fill="#000000" stroke="#000000" points="76.2277,-384.3472 79.7276,-394.3472 83.2277,-384.3473 76.2277,-384.3472"/>
</g>
<!-- GO:0003674 -->
<g id="node6" class="node">
<title>GO:0003674</title>
<polygon fill="#ffffff" stroke="#000000" points="142.3607,-513.4019 17.0945,-513.4019 17.0945,-472.1981 142.3607,-472.1981 142.3607,-513.4019"/>
<text text-anchor="middle" x="79.7276" y="-497" font-family="Times,serif" font-size="14.00" fill="#000000">GO:0003674</text>
<text text-anchor="middle" x="79.7276" y="-480.2" font-family="Times,serif" font-size="14.00" fill="#000000">molecular_function</text>
</g>
<!-- GO:0003824&#45;&gt;GO:0003674 -->
<g id="edge5" class="edge">
<title>GO:0003824&#45;&gt;GO:0003674</title>
<path fill="none" stroke="#000000" d="M79.7276,-435.9954C79.7276,-443.9109 79.7276,-453.1109 79.7276,-461.7722"/>
<polygon fill="#000000" stroke="#000000" points="76.2277,-461.9472 79.7276,-471.9472 83.2277,-461.9473 76.2277,-461.9472"/>
</g>
</g>
</svg>
