<?xml version="1.0" encoding="UTF-8" standalone="no"?>
<!DOCTYPE svg PUBLIC "-//W3C//DTD SVG 1.1//EN"
 "http://www.w3.org/Graphics/SVG/1.1/DTD/svg11.dtd">
<!-- Generated by graphviz version 2.40.1 (20161225.0304)
 -->
<!-- Title: G Pages: 1 -->
<svg width="1665pt" height="1111pt"
 viewBox="0.00 0.00 1665.08 1111.20" xmlns="http://www.w3.org/2000/svg" xmlns:xlink="http://www.w3.org/1999/xlink">
<g id="graph0" class="graph" transform="scale(1 1) rotate(0) translate(4 1107.2)">
<title>G</title>
<polygon fill="#ffffff" stroke="transparent" points="-4,4 -4,-1107.2 1661.0779,-1107.2 1661.0779,4 -4,4"/>
<!-- GO:0016787 -->
<g id="node1" class="node">
<title>GO:0016787</title>
<polygon fill="#ffffff" stroke="#000000" points="1462.8181,-922.6019 1346.9849,-922.6019 1346.9849,-881.3981 1462.8181,-881.3981 1462.8181,-922.6019"/>
<text text-anchor="middle" x="1404.9015" y="-906.2" font-family="Times,serif" font-size="14.00" fill="#000000">GO:0016787</text>
<text text-anchor="middle" x="1404.9015" y="-889.4" font-family="Times,serif" font-size="14.00" fill="#000000">hydrolase activity</text>
</g>
<!-- GO:0003824 -->
<g id="node2" class="node">
<title>GO:0003824</title>
<polygon fill="#ffffff" stroke="#000000" points="1310.3139,-1017.0019 1201.4891,-1017.0019 1201.4891,-975.7981 1310.3139,-975.7981 1310.3139,-1017.0019"/>
<text text-anchor="middle" x="1255.9015" y="-1000.6" font-family="Times,serif" font-size="14.00" fill="#000000">GO:0003824</text>
<text text-anchor="middle" x="1255.9015" y="-983.8" font-family="Times,serif" font-size="14.00" fill="#000000">catalytic activity</text>
</g>
<!-- GO:0016787&#45;&gt;GO:0003824 -->
<g id="edge1" class="edge">
<title>GO:0016787&#45;&gt;GO:0003824</title>
<path fill="none" stroke="#000000" d="M1372.2028,-922.7165C1350.0771,-936.7344 1320.6784,-955.3601 1296.975,-970.3776"/>
<polygon fill="#000000" stroke="#000000" points="1295.0981,-967.4234 1288.5239,-975.7318 1298.8444,-973.3365 1295.0981,-967.4234"/>
</g>
<!-- GO:0003674 -->
<g id="node3" class="node">
<title>GO:0003674</title>
<polygon fill="#ffffff" stroke="#000000" points="896.5346,-1103.0019 771.2684,-1103.0019 771.2684,-1061.7981 896.5346,-1061.7981 896.5346,-1103.0019"/>
<text text-anchor="middle" x="833.9015" y="-1086.6" font-family="Times,serif" font-size="14.00" fill="#000000">GO:0003674</text>
<text text-anchor="middle" x="833.9015" y="-1069.8" font-family="Times,serif" font-size="14.00" fill="#000000">molecular_function</text>
</g>
<!-- GO:0003824&#45;&gt;GO:0003674 -->
<g id="edge2" class="edge">
<title>GO:0003824&#45;&gt;GO:0003674</title>
<path fill="none" stroke="#000000" d="M1201.165,-1007.5548C1125.945,-1022.884 990.4469,-1050.4974 906.7328,-1067.5576"/>
<polygon fill="#000000" stroke="#000000" points="905.8877,-1064.1578 896.788,-1069.5843 907.2855,-1071.0168 905.8877,-1064.1578"/>
</g>
<!-- GO:0005201 -->
<g id="node4" class="node">
<title>GO:0005201</title>
<polygon fill="#ffffff" stroke="#000000" points="133.7046,-931.4014 .0984,-931.4014 .0984,-872.5986 133.7046,-872.5986 133.7046,-931.4014"/>
<text text-anchor="middle" x="66.9015" y="-914.6" font-family="Times,serif" font-size="14.00" fill="#000000">GO:0005201</text>
<text text-anchor="middle" x="66.9015" y="-897.8" font-family="Times,serif" font-size="14.00" fill="#000000">extracellular matrix</text>
<text text-anchor="middle" x="66.9015" y="-881" font-family="Times,serif" font-size="14.00" fill="#000000">structural constituent</text>
</g>
<!-- GO:0005198 -->
<g id="node5" class="node">
<title>GO:0005198</title>
<polygon fill="#ffffff" stroke="#000000" points="128.5843,-1025.8014 5.2187,-1025.8014 5.2187,-966.9986 128.5843,-966.9986 128.5843,-1025.8014"/>
<text text-anchor="middle" x="66.9015" y="-1009" font-family="Times,serif" font-size="14.00" fill="#000000">GO:0005198</text>
<text text-anchor="middle" x="66.9015" y="-992.2" font-family="Times,serif" font-size="14.00" fill="#000000">structural molecule</text>
<text text-anchor="middle" x="66.9015" y="-975.4" font-family="Times,serif" font-size="14.00" fill="#000000">activity</text>
</g>
<!-- GO:0005201&#45;&gt;GO:0005198 -->
<g id="edge3" class="edge">
<title>GO:0005201&#45;&gt;GO:0005198</title>
<path fill="none" stroke="#000000" d="M66.9015,-931.3513C66.9015,-939.4318 66.9015,-948.3308 66.9015,-956.8838"/>
<polygon fill="#000000" stroke="#000000" points="63.4016,-957.0668 66.9015,-967.0669 70.4016,-957.0669 63.4016,-957.0668"/>
</g>
<!-- GO:0005198&#45;&gt;GO:0003674 -->
<g id="edge4" class="edge">
<title>GO:0005198&#45;&gt;GO:0003674</title>
<path fill="none" stroke="#000000" d="M128.7726,-1023.393C131.4971,-1024.2054 134.2144,-1024.9474 136.9015,-1025.6 253.7438,-1053.9772 607.0386,-1072.4455 760.9392,-1079.3503"/>
<polygon fill="#000000" stroke="#000000" points="761.0809,-1082.86 771.2266,-1079.808 761.3921,-1075.8669 761.0809,-1082.86"/>
</g>
<!-- GO:0046914 -->
<g id="node6" class="node">
<title>GO:0046914</title>
<polygon fill="#ffffff" stroke="#000000" points="265.2754,-581.0014 140.5276,-581.0014 140.5276,-522.1986 265.2754,-522.1986 265.2754,-581.0014"/>
<text text-anchor="middle" x="202.9015" y="-564.2" font-family="Times,serif" font-size="14.00" fill="#000000">GO:0046914</text>
<text text-anchor="middle" x="202.9015" y="-547.4" font-family="Times,serif" font-size="14.00" fill="#000000">transition metal ion</text>
<text text-anchor="middle" x="202.9015" y="-530.6" font-family="Times,serif" font-size="14.00" fill="#000000">binding</text>
</g>
<!-- GO:0046872 -->
<g id="node7" class="node">
<title>GO:0046872</title>
<polygon fill="#ffffff" stroke="#000000" points="263.1745,-691.8019 148.6285,-691.8019 148.6285,-650.5981 263.1745,-650.5981 263.1745,-691.8019"/>
<text text-anchor="middle" x="205.9015" y="-675.4" font-family="Times,serif" font-size="14.00" fill="#000000">GO:0046872</text>
<text text-anchor="middle" x="205.9015" y="-658.6" font-family="Times,serif" font-size="14.00" fill="#000000">metal ion binding</text>
</g>
<!-- GO:0046914&#45;&gt;GO:0046872 -->
<g id="edge5" class="edge">
<title>GO:0046914&#45;&gt;GO:0046872</title>
<path fill="none" stroke="#000000" d="M203.6354,-580.8575C204.0878,-598.894 204.6673,-621.9977 205.1271,-640.3259"/>
<polygon fill="#000000" stroke="#000000" points="201.6323,-640.582 205.382,-650.491 208.6301,-640.4064 201.6323,-640.582"/>
</g>
<!-- GO:0043169 -->
<g id="node8" class="node">
<title>GO:0043169</title>
<polygon fill="#ffffff" stroke="#000000" points="273.3944,-819.8019 176.4086,-819.8019 176.4086,-778.5981 273.3944,-778.5981 273.3944,-819.8019"/>
<text text-anchor="middle" x="224.9015" y="-803.4" font-family="Times,serif" font-size="14.00" fill="#000000">GO:0043169</text>
<text text-anchor="middle" x="224.9015" y="-786.6" font-family="Times,serif" font-size="14.00" fill="#000000">cation binding</text>
</g>
<!-- GO:0046872&#45;&gt;GO:0043169 -->
<g id="edge6" class="edge">
<title>GO:0046872&#45;&gt;GO:0043169</title>
<path fill="none" stroke="#000000" d="M208.9965,-692.0503C212.0604,-712.6914 216.7881,-744.5413 220.2936,-768.1573"/>
<polygon fill="#000000" stroke="#000000" points="216.8774,-768.9809 221.8079,-778.3586 223.8016,-767.9531 216.8774,-768.9809"/>
</g>
<!-- GO:0043167 -->
<g id="node9" class="node">
<title>GO:0043167</title>
<polygon fill="#ffffff" stroke="#000000" points="395.5054,-922.6019 306.2976,-922.6019 306.2976,-881.3981 395.5054,-881.3981 395.5054,-922.6019"/>
<text text-anchor="middle" x="350.9015" y="-906.2" font-family="Times,serif" font-size="14.00" fill="#000000">GO:0043167</text>
<text text-anchor="middle" x="350.9015" y="-889.4" font-family="Times,serif" font-size="14.00" fill="#000000">ion binding</text>
</g>
<!-- GO:0043169&#45;&gt;GO:0043167 -->
<g id="edge7" class="edge">
<title>GO:0043169&#45;&gt;GO:0043167</title>
<path fill="none" stroke="#000000" d="M250.3995,-820.0031C269.7835,-835.818 296.6148,-857.709 317.6785,-874.8943"/>
<polygon fill="#000000" stroke="#000000" points="315.4805,-877.6181 325.4414,-881.2278 319.9057,-872.1942 315.4805,-877.6181"/>
</g>
<!-- GO:0005488 -->
<g id="node10" class="node">
<title>GO:0005488</title>
<polygon fill="#ffffff" stroke="#000000" points="686.5054,-1017.0019 597.2976,-1017.0019 597.2976,-975.7981 686.5054,-975.7981 686.5054,-1017.0019"/>
<text text-anchor="middle" x="641.9015" y="-1000.6" font-family="Times,serif" font-size="14.00" fill="#000000">GO:0005488</text>
<text text-anchor="middle" x="641.9015" y="-983.8" font-family="Times,serif" font-size="14.00" fill="#000000">binding</text>
</g>
<!-- GO:0043167&#45;&gt;GO:0005488 -->
<g id="edge8" class="edge">
<title>GO:0043167&#45;&gt;GO:0005488</title>
<path fill="none" stroke="#000000" d="M385.6831,-922.6721C391.6454,-925.7754 397.8661,-928.751 403.9015,-931.2 464.8101,-955.9154 538.1996,-974.4252 587.2309,-985.29"/>
<polygon fill="#000000" stroke="#000000" points="586.4892,-988.7105 597.0059,-987.4262 587.9837,-981.8719 586.4892,-988.7105"/>
</g>
<!-- GO:0005488&#45;&gt;GO:0003674 -->
<g id="edge9" class="edge">
<title>GO:0005488&#45;&gt;GO:0003674</title>
<path fill="none" stroke="#000000" d="M686.917,-1016.5632C714.321,-1028.8379 749.5334,-1044.6101 778.6227,-1057.6397"/>
<polygon fill="#000000" stroke="#000000" points="777.2774,-1060.8721 787.8345,-1061.7658 780.1389,-1054.4837 777.2774,-1060.8721"/>
</g>
<!-- GO:0015343 -->
<g id="node11" class="node">
<title>GO:0015343</title>
<polygon fill="#ffffff" stroke="#000000" points="1169.7831,-58.6014 998.0199,-58.6014 998.0199,.2014 1169.7831,.2014 1169.7831,-58.6014"/>
<text text-anchor="middle" x="1083.9015" y="-41.8" font-family="Times,serif" font-size="14.00" fill="#000000">GO:0015343</text>
<text text-anchor="middle" x="1083.9015" y="-25" font-family="Times,serif" font-size="14.00" fill="#000000">siderophore transmembrane</text>
<text text-anchor="middle" x="1083.9015" y="-8.2" font-family="Times,serif" font-size="14.00" fill="#000000">transporter activity</text>
</g>
<!-- GO:0042927 -->
<g id="node12" class="node">
<title>GO:0042927</title>
<polygon fill="#ffffff" stroke="#000000" points="1051.1241,-255.8014 904.6789,-255.8014 904.6789,-196.9986 1051.1241,-196.9986 1051.1241,-255.8014"/>
<text text-anchor="middle" x="977.9015" y="-239" font-family="Times,serif" font-size="14.00" fill="#000000">GO:0042927</text>
<text text-anchor="middle" x="977.9015" y="-222.2" font-family="Times,serif" font-size="14.00" fill="#000000">siderophore transporter</text>
<text text-anchor="middle" x="977.9015" y="-205.4" font-family="Times,serif" font-size="14.00" fill="#000000">activity</text>
</g>
<!-- GO:0015343&#45;&gt;GO:0042927 -->
<g id="edge10" class="edge">
<title>GO:0015343&#45;&gt;GO:0042927</title>
<path fill="none" stroke="#000000" d="M1068.0322,-58.7228C1049.557,-93.0937 1018.9847,-149.9698 998.6434,-187.8123"/>
<polygon fill="#000000" stroke="#000000" points="995.3577,-186.5326 993.7059,-196.9978 1001.5234,-189.8468 995.3577,-186.5326"/>
</g>
<!-- GO:0015603 -->
<g id="node13" class="node">
<title>GO:0015603</title>
<polygon fill="#ffffff" stroke="#000000" points="1167.3349,-375.3003 1000.4681,-375.3003 1000.4681,-299.8997 1167.3349,-299.8997 1167.3349,-375.3003"/>
<text text-anchor="middle" x="1083.9015" y="-358.6" font-family="Times,serif" font-size="14.00" fill="#000000">GO:0015603</text>
<text text-anchor="middle" x="1083.9015" y="-341.8" font-family="Times,serif" font-size="14.00" fill="#000000">iron chelate</text>
<text text-anchor="middle" x="1083.9015" y="-325" font-family="Times,serif" font-size="14.00" fill="#000000">transmembrane transporter</text>
<text text-anchor="middle" x="1083.9015" y="-308.2" font-family="Times,serif" font-size="14.00" fill="#000000">activity</text>
</g>
<!-- GO:0015343&#45;&gt;GO:0015603 -->
<g id="edge11" class="edge">
<title>GO:0015343&#45;&gt;GO:0015603</title>
<path fill="none" stroke="#000000" d="M1083.9015,-58.4916C1083.9015,-111.759 1083.9015,-224.9447 1083.9015,-289.624"/>
<polygon fill="#000000" stroke="#000000" points="1080.4016,-289.9564 1083.9015,-299.9565 1087.4016,-289.9565 1080.4016,-289.9564"/>
</g>
<!-- GO:0005381 -->
<g id="node14" class="node">
<title>GO:0005381</title>
<polygon fill="#ffffff" stroke="#000000" points="1282.6395,-153.0014 1133.1635,-153.0014 1133.1635,-94.1986 1282.6395,-94.1986 1282.6395,-153.0014"/>
<text text-anchor="middle" x="1207.9015" y="-136.2" font-family="Times,serif" font-size="14.00" fill="#000000">GO:0005381</text>
<text text-anchor="middle" x="1207.9015" y="-119.4" font-family="Times,serif" font-size="14.00" fill="#000000">iron ion transmembrane</text>
<text text-anchor="middle" x="1207.9015" y="-102.6" font-family="Times,serif" font-size="14.00" fill="#000000">transporter activity</text>
</g>
<!-- GO:0015343&#45;&gt;GO:0005381 -->
<g id="edge12" class="edge">
<title>GO:0015343&#45;&gt;GO:0005381</title>
<path fill="none" stroke="#000000" d="M1122.4562,-58.5513C1134.7033,-67.8749 1148.3819,-78.2883 1161.1422,-88.0026"/>
<polygon fill="#000000" stroke="#000000" points="1159.2939,-90.9943 1169.3707,-94.2669 1163.5341,-85.4246 1159.2939,-90.9943"/>
</g>
<!-- GO:0005215 -->
<g id="node15" class="node">
<title>GO:0005215</title>
<polygon fill="#ffffff" stroke="#000000" points="1034.03,-1017.0019 911.773,-1017.0019 911.773,-975.7981 1034.03,-975.7981 1034.03,-1017.0019"/>
<text text-anchor="middle" x="972.9015" y="-1000.6" font-family="Times,serif" font-size="14.00" fill="#000000">GO:0005215</text>
<text text-anchor="middle" x="972.9015" y="-983.8" font-family="Times,serif" font-size="14.00" fill="#000000">transporter activity</text>
</g>
<!-- GO:0042927&#45;&gt;GO:0005215 -->
<g id="edge13" class="edge">
<title>GO:0042927&#45;&gt;GO:0005215</title>
<path fill="none" stroke="#000000" d="M976.8166,-255.8947C975.346,-298.4803 972.9015,-379.6686 972.9015,-448.8 972.9015,-448.8 972.9015,-448.8 972.9015,-799.2 972.9015,-858.0326 972.9015,-926.7383 972.9015,-965.5524"/>
<polygon fill="#000000" stroke="#000000" points="969.4016,-965.6742 972.9015,-975.6743 976.4016,-965.6743 969.4016,-965.6742"/>
</g>
<!-- GO:0022857 -->
<g id="node16" class="node">
<title>GO:0022857</title>
<polygon fill="#ffffff" stroke="#000000" points="1167.3349,-931.4014 1000.4681,-931.4014 1000.4681,-872.5986 1167.3349,-872.5986 1167.3349,-931.4014"/>
<text text-anchor="middle" x="1083.9015" y="-914.6" font-family="Times,serif" font-size="14.00" fill="#000000">GO:0022857</text>
<text text-anchor="middle" x="1083.9015" y="-897.8" font-family="Times,serif" font-size="14.00" fill="#000000">transmembrane transporter</text>
<text text-anchor="middle" x="1083.9015" y="-881" font-family="Times,serif" font-size="14.00" fill="#000000">activity</text>
</g>
<!-- GO:0015603&#45;&gt;GO:0022857 -->
<g id="edge14" class="edge">
<title>GO:0015603&#45;&gt;GO:0022857</title>
<path fill="none" stroke="#000000" d="M1083.9015,-375.4835C1083.9015,-418.2549 1083.9015,-489.9264 1083.9015,-551.6 1083.9015,-551.6 1083.9015,-551.6 1083.9015,-671.2 1083.9015,-738.2987 1083.9015,-816.3702 1083.9015,-862.3491"/>
<polygon fill="#000000" stroke="#000000" points="1080.4016,-862.4891 1083.9015,-872.4891 1087.4016,-862.4891 1080.4016,-862.4891"/>
</g>
<!-- GO:0046915 -->
<g id="node17" class="node">
<title>GO:0046915</title>
<polygon fill="#ffffff" stroke="#000000" points="1312.3349,-264.1003 1145.4681,-264.1003 1145.4681,-188.6997 1312.3349,-188.6997 1312.3349,-264.1003"/>
<text text-anchor="middle" x="1228.9015" y="-247.4" font-family="Times,serif" font-size="14.00" fill="#000000">GO:0046915</text>
<text text-anchor="middle" x="1228.9015" y="-230.6" font-family="Times,serif" font-size="14.00" fill="#000000">transition metal ion</text>
<text text-anchor="middle" x="1228.9015" y="-213.8" font-family="Times,serif" font-size="14.00" fill="#000000">transmembrane transporter</text>
<text text-anchor="middle" x="1228.9015" y="-197" font-family="Times,serif" font-size="14.00" fill="#000000">activity</text>
</g>
<!-- GO:0005381&#45;&gt;GO:0046915 -->
<g id="edge15" class="edge">
<title>GO:0005381&#45;&gt;GO:0046915</title>
<path fill="none" stroke="#000000" d="M1213.9193,-153.0584C1215.5396,-160.9901 1217.3352,-169.78 1219.1041,-178.4392"/>
<polygon fill="#000000" stroke="#000000" points="1215.7255,-179.3878 1221.1562,-188.485 1222.5838,-177.9868 1215.7255,-179.3878"/>
</g>
<!-- GO:0005215&#45;&gt;GO:0003674 -->
<g id="edge16" class="edge">
<title>GO:0005215&#45;&gt;GO:0003674</title>
<path fill="none" stroke="#000000" d="M939.2535,-1017.2182C920.2164,-1028.9966 896.2372,-1043.8326 875.9669,-1056.3739"/>
<polygon fill="#000000" stroke="#000000" points="873.9021,-1053.5356 867.2397,-1061.7735 877.5851,-1059.4884 873.9021,-1053.5356"/>
</g>
<!-- GO:0022857&#45;&gt;GO:0005215 -->
<g id="edge17" class="edge">
<title>GO:0022857&#45;&gt;GO:0005215</title>
<path fill="none" stroke="#000000" d="M1049.3889,-931.3513C1035.2376,-943.3862 1018.9516,-957.2367 1005.054,-969.0559"/>
<polygon fill="#000000" stroke="#000000" points="1002.5318,-966.6063 997.1816,-975.751 1007.0668,-971.9387 1002.5318,-966.6063"/>
</g>
<!-- GO:0046873 -->
<g id="node18" class="node">
<title>GO:0046873</title>
<polygon fill="#ffffff" stroke="#000000" points="1343.1894,-367.0014 1184.6136,-367.0014 1184.6136,-308.1986 1343.1894,-308.1986 1343.1894,-367.0014"/>
<text text-anchor="middle" x="1263.9015" y="-350.2" font-family="Times,serif" font-size="14.00" fill="#000000">GO:0046873</text>
<text text-anchor="middle" x="1263.9015" y="-333.4" font-family="Times,serif" font-size="14.00" fill="#000000">metal ion transmembrane</text>
<text text-anchor="middle" x="1263.9015" y="-316.6" font-family="Times,serif" font-size="14.00" fill="#000000">transporter activity</text>
</g>
<!-- GO:0046915&#45;&gt;GO:0046873 -->
<g id="edge18" class="edge">
<title>GO:0046915&#45;&gt;GO:0046873</title>
<path fill="none" stroke="#000000" d="M1240.7509,-264.0472C1244.2128,-275.046 1248.0051,-287.0948 1251.5001,-298.1991"/>
<polygon fill="#000000" stroke="#000000" points="1248.2674,-299.5863 1254.6083,-308.0742 1254.9445,-297.4847 1248.2674,-299.5863"/>
</g>
<!-- GO:0022890 -->
<g id="node19" class="node">
<title>GO:0022890</title>
<polygon fill="#ffffff" stroke="#000000" points="1307.3349,-486.5003 1140.4681,-486.5003 1140.4681,-411.0997 1307.3349,-411.0997 1307.3349,-486.5003"/>
<text text-anchor="middle" x="1223.9015" y="-469.8" font-family="Times,serif" font-size="14.00" fill="#000000">GO:0022890</text>
<text text-anchor="middle" x="1223.9015" y="-453" font-family="Times,serif" font-size="14.00" fill="#000000">inorganic cation</text>
<text text-anchor="middle" x="1223.9015" y="-436.2" font-family="Times,serif" font-size="14.00" fill="#000000">transmembrane transporter</text>
<text text-anchor="middle" x="1223.9015" y="-419.4" font-family="Times,serif" font-size="14.00" fill="#000000">activity</text>
</g>
<!-- GO:0046873&#45;&gt;GO:0022890 -->
<g id="edge19" class="edge">
<title>GO:0046873&#45;&gt;GO:0022890</title>
<path fill="none" stroke="#000000" d="M1253.392,-366.8165C1249.5944,-377.3737 1245.2025,-389.5831 1240.9872,-401.3018"/>
<polygon fill="#000000" stroke="#000000" points="1237.5962,-400.3886 1237.5047,-410.983 1244.183,-402.758 1237.5962,-400.3886"/>
</g>
<!-- GO:0008324 -->
<g id="node20" class="node">
<title>GO:0008324</title>
<polygon fill="#ffffff" stroke="#000000" points="1293.9079,-581.0014 1153.8951,-581.0014 1153.8951,-522.1986 1293.9079,-522.1986 1293.9079,-581.0014"/>
<text text-anchor="middle" x="1223.9015" y="-564.2" font-family="Times,serif" font-size="14.00" fill="#000000">GO:0008324</text>
<text text-anchor="middle" x="1223.9015" y="-547.4" font-family="Times,serif" font-size="14.00" fill="#000000">cation transmembrane</text>
<text text-anchor="middle" x="1223.9015" y="-530.6" font-family="Times,serif" font-size="14.00" fill="#000000">transporter activity</text>
</g>
<!-- GO:0022890&#45;&gt;GO:0008324 -->
<g id="edge20" class="edge">
<title>GO:0022890&#45;&gt;GO:0008324</title>
<path fill="none" stroke="#000000" d="M1223.9015,-486.4952C1223.9015,-494.8874 1223.9015,-503.8054 1223.9015,-512.2618"/>
<polygon fill="#000000" stroke="#000000" points="1220.4016,-512.2813 1223.9015,-522.2814 1227.4016,-512.2814 1220.4016,-512.2813"/>
</g>
<!-- GO:0015075 -->
<g id="node21" class="node">
<title>GO:0015075</title>
<polygon fill="#ffffff" stroke="#000000" points="1285.5885,-700.6014 1162.2145,-700.6014 1162.2145,-641.7986 1285.5885,-641.7986 1285.5885,-700.6014"/>
<text text-anchor="middle" x="1223.9015" y="-683.8" font-family="Times,serif" font-size="14.00" fill="#000000">GO:0015075</text>
<text text-anchor="middle" x="1223.9015" y="-667" font-family="Times,serif" font-size="14.00" fill="#000000">ion transmembrane</text>
<text text-anchor="middle" x="1223.9015" y="-650.2" font-family="Times,serif" font-size="14.00" fill="#000000">transporter activity</text>
</g>
<!-- GO:0008324&#45;&gt;GO:0015075 -->
<g id="edge21" class="edge">
<title>GO:0008324&#45;&gt;GO:0015075</title>
<path fill="none" stroke="#000000" d="M1223.9015,-580.8575C1223.9015,-596.0608 1223.9015,-614.8644 1223.9015,-631.3735"/>
<polygon fill="#000000" stroke="#000000" points="1220.4016,-631.83 1223.9015,-641.8301 1227.4016,-631.8301 1220.4016,-631.83"/>
</g>
<!-- GO:0022891 -->
<g id="node22" class="node">
<title>GO:0022891</title>
<polygon fill="#ffffff" stroke="#000000" points="1307.3349,-836.9003 1140.4681,-836.9003 1140.4681,-761.4997 1307.3349,-761.4997 1307.3349,-836.9003"/>
<text text-anchor="middle" x="1223.9015" y="-820.2" font-family="Times,serif" font-size="14.00" fill="#000000">GO:0022891</text>
<text text-anchor="middle" x="1223.9015" y="-803.4" font-family="Times,serif" font-size="14.00" fill="#000000">substrate&#45;specific</text>
<text text-anchor="middle" x="1223.9015" y="-786.6" font-family="Times,serif" font-size="14.00" fill="#000000">transmembrane transporter</text>
<text text-anchor="middle" x="1223.9015" y="-769.8" font-family="Times,serif" font-size="14.00" fill="#000000">activity</text>
</g>
<!-- GO:0015075&#45;&gt;GO:0022891 -->
<g id="edge22" class="edge">
<title>GO:0015075&#45;&gt;GO:0022891</title>
<path fill="none" stroke="#000000" d="M1223.9015,-700.5658C1223.9015,-715.4797 1223.9015,-733.9844 1223.9015,-750.9227"/>
<polygon fill="#000000" stroke="#000000" points="1220.4016,-751.2207 1223.9015,-761.2207 1227.4016,-751.2208 1220.4016,-751.2207"/>
</g>
<!-- GO:0022891&#45;&gt;GO:0022857 -->
<g id="edge23" class="edge">
<title>GO:0022891&#45;&gt;GO:0022857</title>
<path fill="none" stroke="#000000" d="M1172.5656,-836.8952C1159.3783,-846.5785 1145.2375,-856.9618 1132.2092,-866.5283"/>
<polygon fill="#000000" stroke="#000000" points="1129.8185,-863.9416 1123.8296,-872.6814 1133.9615,-869.5838 1129.8185,-863.9416"/>
</g>
<!-- GO:0022892 -->
<g id="node23" class="node">
<title>GO:0022892</title>
<polygon fill="#ffffff" stroke="#000000" points="1307.03,-931.4014 1184.773,-931.4014 1184.773,-872.5986 1307.03,-872.5986 1307.03,-931.4014"/>
<text text-anchor="middle" x="1245.9015" y="-914.6" font-family="Times,serif" font-size="14.00" fill="#000000">GO:0022892</text>
<text text-anchor="middle" x="1245.9015" y="-897.8" font-family="Times,serif" font-size="14.00" fill="#000000">substrate&#45;specific</text>
<text text-anchor="middle" x="1245.9015" y="-881" font-family="Times,serif" font-size="14.00" fill="#000000">transporter activity</text>
</g>
<!-- GO:0022891&#45;&gt;GO:0022892 -->
<g id="edge24" class="edge">
<title>GO:0022891&#45;&gt;GO:0022892</title>
<path fill="none" stroke="#000000" d="M1231.9686,-836.8952C1233.7646,-845.2874 1235.6731,-854.2054 1237.4828,-862.6618"/>
<polygon fill="#000000" stroke="#000000" points="1234.1118,-863.6353 1239.6271,-872.6814 1240.9568,-862.1703 1234.1118,-863.6353"/>
</g>
<!-- GO:0017111 -->
<g id="node24" class="node">
<title>GO:0017111</title>
<polygon fill="#ffffff" stroke="#000000" points="1486.7976,-478.2014 1325.0054,-478.2014 1325.0054,-419.3986 1486.7976,-419.3986 1486.7976,-478.2014"/>
<text text-anchor="middle" x="1405.9015" y="-461.4" font-family="Times,serif" font-size="14.00" fill="#000000">GO:0017111</text>
<text text-anchor="middle" x="1405.9015" y="-444.6" font-family="Times,serif" font-size="14.00" fill="#000000">nucleoside&#45;triphosphatase</text>
<text text-anchor="middle" x="1405.9015" y="-427.8" font-family="Times,serif" font-size="14.00" fill="#000000">activity</text>
</g>
<!-- GO:0016462 -->
<g id="node25" class="node">
<title>GO:0016462</title>
<polygon fill="#ffffff" stroke="#000000" points="1482.4779,-572.2019 1327.3251,-572.2019 1327.3251,-530.9981 1482.4779,-530.9981 1482.4779,-572.2019"/>
<text text-anchor="middle" x="1404.9015" y="-555.8" font-family="Times,serif" font-size="14.00" fill="#000000">GO:0016462</text>
<text text-anchor="middle" x="1404.9015" y="-539" font-family="Times,serif" font-size="14.00" fill="#000000">pyrophosphatase activity</text>
</g>
<!-- GO:0017111&#45;&gt;GO:0016462 -->
<g id="edge25" class="edge">
<title>GO:0017111&#45;&gt;GO:0016462</title>
<path fill="none" stroke="#000000" d="M1405.6149,-478.2584C1405.4856,-491.5539 1405.3328,-507.2608 1405.2019,-520.7212"/>
<polygon fill="#000000" stroke="#000000" points="1401.7,-520.912 1405.1024,-530.9456 1408.6996,-520.9802 1401.7,-520.912"/>
</g>
<!-- GO:0016818 -->
<g id="node26" class="node">
<title>GO:0016818</title>
<polygon fill="#ffffff" stroke="#000000" points="1477.2132,-725.5002 1332.5898,-725.5002 1332.5898,-616.8998 1477.2132,-616.8998 1477.2132,-725.5002"/>
<text text-anchor="middle" x="1404.9015" y="-709" font-family="Times,serif" font-size="14.00" fill="#000000">GO:0016818</text>
<text text-anchor="middle" x="1404.9015" y="-692.2" font-family="Times,serif" font-size="14.00" fill="#000000">hydrolase activity,</text>
<text text-anchor="middle" x="1404.9015" y="-675.4" font-family="Times,serif" font-size="14.00" fill="#000000">acting on acid</text>
<text text-anchor="middle" x="1404.9015" y="-658.6" font-family="Times,serif" font-size="14.00" fill="#000000">anhydrides, in</text>
<text text-anchor="middle" x="1404.9015" y="-641.8" font-family="Times,serif" font-size="14.00" fill="#000000">phosphorus&#45;containing</text>
<text text-anchor="middle" x="1404.9015" y="-625" font-family="Times,serif" font-size="14.00" fill="#000000">anhydrides</text>
</g>
<!-- GO:0016462&#45;&gt;GO:0016818 -->
<g id="edge26" class="edge">
<title>GO:0016462&#45;&gt;GO:0016818</title>
<path fill="none" stroke="#000000" d="M1404.9015,-572.4327C1404.9015,-582.0534 1404.9015,-594.0573 1404.9015,-606.348"/>
<polygon fill="#000000" stroke="#000000" points="1401.4016,-606.6935 1404.9015,-616.6935 1408.4016,-606.6935 1401.4016,-606.6935"/>
</g>
<!-- GO:0016817 -->
<g id="node27" class="node">
<title>GO:0016817</title>
<polygon fill="#ffffff" stroke="#000000" points="1484.8574,-828.6014 1324.9456,-828.6014 1324.9456,-769.7986 1484.8574,-769.7986 1484.8574,-828.6014"/>
<text text-anchor="middle" x="1404.9015" y="-811.8" font-family="Times,serif" font-size="14.00" fill="#000000">GO:0016817</text>
<text text-anchor="middle" x="1404.9015" y="-795" font-family="Times,serif" font-size="14.00" fill="#000000">hydrolase activity,</text>
<text text-anchor="middle" x="1404.9015" y="-778.2" font-family="Times,serif" font-size="14.00" fill="#000000">acting on acid anhydrides</text>
</g>
<!-- GO:0016818&#45;&gt;GO:0016817 -->
<g id="edge27" class="edge">
<title>GO:0016818&#45;&gt;GO:0016817</title>
<path fill="none" stroke="#000000" d="M1404.9015,-725.8548C1404.9015,-737.1684 1404.9015,-748.8801 1404.9015,-759.5346"/>
<polygon fill="#000000" stroke="#000000" points="1401.4016,-759.7827 1404.9015,-769.7828 1408.4016,-759.7828 1401.4016,-759.7827"/>
</g>
<!-- GO:0016817&#45;&gt;GO:0016787 -->
<g id="edge28" class="edge">
<title>GO:0016817&#45;&gt;GO:0016787</title>
<path fill="none" stroke="#000000" d="M1404.9015,-828.6584C1404.9015,-841.9539 1404.9015,-857.6608 1404.9015,-871.1212"/>
<polygon fill="#000000" stroke="#000000" points="1401.4016,-871.3456 1404.9015,-881.3456 1408.4016,-871.3457 1401.4016,-871.3456"/>
</g>
<!-- GO:0032559 -->
<g id="node28" class="node">
<title>GO:0032559</title>
<polygon fill="#ffffff" stroke="#000000" points="516.5885,-478.2014 379.2145,-478.2014 379.2145,-419.3986 516.5885,-419.3986 516.5885,-478.2014"/>
<text text-anchor="middle" x="447.9015" y="-461.4" font-family="Times,serif" font-size="14.00" fill="#000000">GO:0032559</text>
<text text-anchor="middle" x="447.9015" y="-444.6" font-family="Times,serif" font-size="14.00" fill="#000000">adenyl ribonucleotide</text>
<text text-anchor="middle" x="447.9015" y="-427.8" font-family="Times,serif" font-size="14.00" fill="#000000">binding</text>
</g>
<!-- GO:0032555 -->
<g id="node29" class="node">
<title>GO:0032555</title>
<polygon fill="#ffffff" stroke="#000000" points="599.0342,-581.0014 462.7688,-581.0014 462.7688,-522.1986 599.0342,-522.1986 599.0342,-581.0014"/>
<text text-anchor="middle" x="530.9015" y="-564.2" font-family="Times,serif" font-size="14.00" fill="#000000">GO:0032555</text>
<text text-anchor="middle" x="530.9015" y="-547.4" font-family="Times,serif" font-size="14.00" fill="#000000">purine ribonucleotide</text>
<text text-anchor="middle" x="530.9015" y="-530.6" font-family="Times,serif" font-size="14.00" fill="#000000">binding</text>
</g>
<!-- GO:0032559&#45;&gt;GO:0032555 -->
<g id="edge29" class="edge">
<title>GO:0032559&#45;&gt;GO:0032555</title>
<path fill="none" stroke="#000000" d="M471.686,-478.2584C480.7157,-489.4421 491.1229,-502.3321 500.6694,-514.156"/>
<polygon fill="#000000" stroke="#000000" points="498.1084,-516.5555 507.1136,-522.1373 503.5548,-512.1581 498.1084,-516.5555"/>
</g>
<!-- GO:0030554 -->
<g id="node30" class="node">
<title>GO:0030554</title>
<polygon fill="#ffffff" stroke="#000000" points="444.8186,-572.2019 282.9844,-572.2019 282.9844,-530.9981 444.8186,-530.9981 444.8186,-572.2019"/>
<text text-anchor="middle" x="363.9015" y="-555.8" font-family="Times,serif" font-size="14.00" fill="#000000">GO:0030554</text>
<text text-anchor="middle" x="363.9015" y="-539" font-family="Times,serif" font-size="14.00" fill="#000000">adenyl nucleotide binding</text>
</g>
<!-- GO:0032559&#45;&gt;GO:0030554 -->
<g id="edge30" class="edge">
<title>GO:0032559&#45;&gt;GO:0030554</title>
<path fill="none" stroke="#000000" d="M423.8305,-478.2584C412.321,-492.3438 398.6001,-509.1355 387.1932,-523.0954"/>
<polygon fill="#000000" stroke="#000000" points="384.3958,-520.9874 380.7786,-530.9456 389.8164,-525.4166 384.3958,-520.9874"/>
</g>
<!-- GO:0017076 -->
<g id="node31" class="node">
<title>GO:0017076</title>
<polygon fill="#ffffff" stroke="#000000" points="441.7642,-691.8019 282.0388,-691.8019 282.0388,-650.5981 441.7642,-650.5981 441.7642,-691.8019"/>
<text text-anchor="middle" x="361.9015" y="-675.4" font-family="Times,serif" font-size="14.00" fill="#000000">GO:0017076</text>
<text text-anchor="middle" x="361.9015" y="-658.6" font-family="Times,serif" font-size="14.00" fill="#000000">purine nucleotide binding</text>
</g>
<!-- GO:0032555&#45;&gt;GO:0017076 -->
<g id="edge31" class="edge">
<title>GO:0032555&#45;&gt;GO:0017076</title>
<path fill="none" stroke="#000000" d="M489.5594,-580.8575C462.0485,-600.3268 426.1945,-625.7003 399.4906,-644.5985"/>
<polygon fill="#000000" stroke="#000000" points="397.3051,-641.8573 391.1642,-650.491 401.3488,-647.5712 397.3051,-641.8573"/>
</g>
<!-- GO:0032553 -->
<g id="node32" class="node">
<title>GO:0032553</title>
<polygon fill="#ffffff" stroke="#000000" points="603.5496,-691.8019 460.2534,-691.8019 460.2534,-650.5981 603.5496,-650.5981 603.5496,-691.8019"/>
<text text-anchor="middle" x="531.9015" y="-675.4" font-family="Times,serif" font-size="14.00" fill="#000000">GO:0032553</text>
<text text-anchor="middle" x="531.9015" y="-658.6" font-family="Times,serif" font-size="14.00" fill="#000000">ribonucleotide binding</text>
</g>
<!-- GO:0032555&#45;&gt;GO:0032553 -->
<g id="edge32" class="edge">
<title>GO:0032555&#45;&gt;GO:0032553</title>
<path fill="none" stroke="#000000" d="M531.1461,-580.8575C531.2969,-598.894 531.4901,-621.9977 531.6434,-640.3259"/>
<polygon fill="#000000" stroke="#000000" points="528.1448,-640.5207 531.7283,-650.491 535.1445,-640.4621 528.1448,-640.5207"/>
</g>
<!-- GO:0030554&#45;&gt;GO:0017076 -->
<g id="edge33" class="edge">
<title>GO:0030554&#45;&gt;GO:0017076</title>
<path fill="none" stroke="#000000" d="M363.5531,-572.4327C363.241,-591.0973 362.7789,-618.7322 362.4228,-640.0278"/>
<polygon fill="#000000" stroke="#000000" points="358.9204,-640.1476 362.2526,-650.2047 365.9194,-640.2647 358.9204,-640.1476"/>
</g>
<!-- GO:0000166 -->
<g id="node33" class="node">
<title>GO:0000166</title>
<polygon fill="#ffffff" stroke="#000000" points="425.999,-819.8019 305.804,-819.8019 305.804,-778.5981 425.999,-778.5981 425.999,-819.8019"/>
<text text-anchor="middle" x="365.9015" y="-803.4" font-family="Times,serif" font-size="14.00" fill="#000000">GO:0000166</text>
<text text-anchor="middle" x="365.9015" y="-786.6" font-family="Times,serif" font-size="14.00" fill="#000000">nucleotide binding</text>
</g>
<!-- GO:0017076&#45;&gt;GO:0000166 -->
<g id="edge34" class="edge">
<title>GO:0017076&#45;&gt;GO:0000166</title>
<path fill="none" stroke="#000000" d="M362.5531,-692.0503C363.1981,-712.6914 364.1934,-744.5413 364.9314,-768.1573"/>
<polygon fill="#000000" stroke="#000000" points="361.4395,-768.4729 365.2502,-778.3586 368.4361,-768.2542 361.4395,-768.4729"/>
</g>
<!-- GO:0032553&#45;&gt;GO:0000166 -->
<g id="edge36" class="edge">
<title>GO:0032553&#45;&gt;GO:0000166</title>
<path fill="none" stroke="#000000" d="M504.8613,-692.0503C476.4404,-713.9652 431.6339,-748.5148 400.6181,-772.4306"/>
<polygon fill="#000000" stroke="#000000" points="398.437,-769.6927 392.6551,-778.5707 402.7115,-775.2361 398.437,-769.6927"/>
</g>
<!-- GO:0097367 -->
<g id="node34" class="node">
<title>GO:0097367</title>
<polygon fill="#ffffff" stroke="#000000" points="600.9486,-828.6014 452.8544,-828.6014 452.8544,-769.7986 600.9486,-769.7986 600.9486,-828.6014"/>
<text text-anchor="middle" x="526.9015" y="-811.8" font-family="Times,serif" font-size="14.00" fill="#000000">GO:0097367</text>
<text text-anchor="middle" x="526.9015" y="-795" font-family="Times,serif" font-size="14.00" fill="#000000">carbohydrate derivative</text>
<text text-anchor="middle" x="526.9015" y="-778.2" font-family="Times,serif" font-size="14.00" fill="#000000">binding</text>
</g>
<!-- GO:0032553&#45;&gt;GO:0097367 -->
<g id="edge35" class="edge">
<title>GO:0032553&#45;&gt;GO:0097367</title>
<path fill="none" stroke="#000000" d="M531.087,-692.0503C530.3752,-710.2746 529.322,-737.2363 528.4502,-759.5542"/>
<polygon fill="#000000" stroke="#000000" points="524.9448,-759.6261 528.0517,-769.7551 531.9394,-759.8994 524.9448,-759.6261"/>
</g>
<!-- GO:0036094 -->
<g id="node35" class="node">
<title>GO:0036094</title>
<polygon fill="#ffffff" stroke="#000000" points="560.8299,-922.6019 412.9731,-922.6019 412.9731,-881.3981 560.8299,-881.3981 560.8299,-922.6019"/>
<text text-anchor="middle" x="486.9015" y="-906.2" font-family="Times,serif" font-size="14.00" fill="#000000">GO:0036094</text>
<text text-anchor="middle" x="486.9015" y="-889.4" font-family="Times,serif" font-size="14.00" fill="#000000">small molecule binding</text>
</g>
<!-- GO:0000166&#45;&gt;GO:0036094 -->
<g id="edge37" class="edge">
<title>GO:0000166&#45;&gt;GO:0036094</title>
<path fill="none" stroke="#000000" d="M390.3877,-820.0031C408.9205,-835.7484 434.5422,-857.5162 454.7293,-874.6669"/>
<polygon fill="#000000" stroke="#000000" points="452.5646,-877.4205 462.4518,-881.2278 457.0969,-872.0858 452.5646,-877.4205"/>
</g>
<!-- GO:1901265 -->
<g id="node36" class="node">
<title>GO:1901265</title>
<polygon fill="#ffffff" stroke="#000000" points="288.0356,-931.4014 151.7674,-931.4014 151.7674,-872.5986 288.0356,-872.5986 288.0356,-931.4014"/>
<text text-anchor="middle" x="219.9015" y="-914.6" font-family="Times,serif" font-size="14.00" fill="#000000">GO:1901265</text>
<text text-anchor="middle" x="219.9015" y="-897.8" font-family="Times,serif" font-size="14.00" fill="#000000">nucleoside phosphate</text>
<text text-anchor="middle" x="219.9015" y="-881" font-family="Times,serif" font-size="14.00" fill="#000000">binding</text>
</g>
<!-- GO:0000166&#45;&gt;GO:1901265 -->
<g id="edge38" class="edge">
<title>GO:0000166&#45;&gt;GO:1901265</title>
<path fill="none" stroke="#000000" d="M336.3562,-820.0031C317.294,-833.425 292.0164,-851.2232 269.8835,-866.8072"/>
<polygon fill="#000000" stroke="#000000" points="267.7359,-864.0388 261.5744,-872.6577 271.7659,-869.7623 267.7359,-864.0388"/>
</g>
<!-- GO:0097367&#45;&gt;GO:0005488 -->
<g id="edge39" class="edge">
<title>GO:0097367&#45;&gt;GO:0005488</title>
<path fill="none" stroke="#000000" d="M544.068,-828.5629C551.9436,-842.039 561.4004,-858.2279 569.9015,-872.8 588.6252,-904.8951 610.0577,-941.6955 624.6364,-966.7371"/>
<polygon fill="#000000" stroke="#000000" points="621.6238,-968.519 629.6797,-975.4004 627.6734,-964.9973 621.6238,-968.519"/>
</g>
<!-- GO:0036094&#45;&gt;GO:0005488 -->
<g id="edge40" class="edge">
<title>GO:0036094&#45;&gt;GO:0005488</title>
<path fill="none" stroke="#000000" d="M520.9169,-922.7165C543.9336,-936.7344 574.5161,-955.3601 599.174,-970.3776"/>
<polygon fill="#000000" stroke="#000000" points="597.6042,-973.5195 607.9654,-975.7318 601.2453,-967.541 597.6042,-973.5195"/>
</g>
<!-- GO:0097159 -->
<g id="node37" class="node">
<title>GO:0097159</title>
<polygon fill="#ffffff" stroke="#000000" points="468.4129,-1025.8014 311.3901,-1025.8014 311.3901,-966.9986 468.4129,-966.9986 468.4129,-1025.8014"/>
<text text-anchor="middle" x="389.9015" y="-1009" font-family="Times,serif" font-size="14.00" fill="#000000">GO:0097159</text>
<text text-anchor="middle" x="389.9015" y="-992.2" font-family="Times,serif" font-size="14.00" fill="#000000">organic cyclic compound</text>
<text text-anchor="middle" x="389.9015" y="-975.4" font-family="Times,serif" font-size="14.00" fill="#000000">binding</text>
</g>
<!-- GO:1901265&#45;&gt;GO:0097159 -->
<g id="edge41" class="edge">
<title>GO:1901265&#45;&gt;GO:0097159</title>
<path fill="none" stroke="#000000" d="M272.7587,-931.3513C290.3487,-941.1189 310.0925,-952.0825 328.2862,-962.1854"/>
<polygon fill="#000000" stroke="#000000" points="326.6353,-965.272 337.077,-967.0669 330.0336,-959.1522 326.6353,-965.272"/>
</g>
<!-- GO:1901363 -->
<g id="node38" class="node">
<title>GO:1901363</title>
<polygon fill="#ffffff" stroke="#000000" points="293.4121,-1025.8014 146.3909,-1025.8014 146.3909,-966.9986 293.4121,-966.9986 293.4121,-1025.8014"/>
<text text-anchor="middle" x="219.9015" y="-1009" font-family="Times,serif" font-size="14.00" fill="#000000">GO:1901363</text>
<text text-anchor="middle" x="219.9015" y="-992.2" font-family="Times,serif" font-size="14.00" fill="#000000">heterocyclic compound</text>
<text text-anchor="middle" x="219.9015" y="-975.4" font-family="Times,serif" font-size="14.00" fill="#000000">binding</text>
</g>
<!-- GO:1901265&#45;&gt;GO:1901363 -->
<g id="edge42" class="edge">
<title>GO:1901265&#45;&gt;GO:1901363</title>
<path fill="none" stroke="#000000" d="M219.9015,-931.3513C219.9015,-939.4318 219.9015,-948.3308 219.9015,-956.8838"/>
<polygon fill="#000000" stroke="#000000" points="216.4016,-957.0668 219.9015,-967.0669 223.4016,-957.0669 216.4016,-957.0668"/>
</g>
<!-- GO:0008237 -->
<g id="node39" class="node">
<title>GO:0008237</title>
<polygon fill="#ffffff" stroke="#000000" points="1657.2547,-572.2019 1500.5483,-572.2019 1500.5483,-530.9981 1657.2547,-530.9981 1657.2547,-572.2019"/>
<text text-anchor="middle" x="1578.9015" y="-555.8" font-family="Times,serif" font-size="14.00" fill="#000000">GO:0008237</text>
<text text-anchor="middle" x="1578.9015" y="-539" font-family="Times,serif" font-size="14.00" fill="#000000">metallopeptidase activity</text>
</g>
<!-- GO:0070011 -->
<g id="node40" class="node">
<title>GO:0070011</title>
<polygon fill="#ffffff" stroke="#000000" points="1646.1409,-708.9003 1499.6621,-708.9003 1499.6621,-633.4997 1646.1409,-633.4997 1646.1409,-708.9003"/>
<text text-anchor="middle" x="1572.9015" y="-692.2" font-family="Times,serif" font-size="14.00" fill="#000000">GO:0070011</text>
<text text-anchor="middle" x="1572.9015" y="-675.4" font-family="Times,serif" font-size="14.00" fill="#000000">peptidase activity,</text>
<text text-anchor="middle" x="1572.9015" y="-658.6" font-family="Times,serif" font-size="14.00" fill="#000000">acting on L&#45;amino acid</text>
<text text-anchor="middle" x="1572.9015" y="-641.8" font-family="Times,serif" font-size="14.00" fill="#000000">peptides</text>
</g>
<!-- GO:0008237&#45;&gt;GO:0070011 -->
<g id="edge43" class="edge">
<title>GO:0008237&#45;&gt;GO:0070011</title>
<path fill="none" stroke="#000000" d="M1577.8564,-572.4327C1577.1547,-586.4193 1576.2003,-605.4431 1575.3165,-623.0618"/>
<polygon fill="#000000" stroke="#000000" points="1571.8122,-623.0615 1574.8066,-633.2243 1578.8034,-623.4123 1571.8122,-623.0615"/>
</g>
<!-- GO:0008233 -->
<g id="node41" class="node">
<title>GO:0008233</title>
<polygon fill="#ffffff" stroke="#000000" points="1624.2633,-819.8019 1509.5397,-819.8019 1509.5397,-778.5981 1624.2633,-778.5981 1624.2633,-819.8019"/>
<text text-anchor="middle" x="1566.9015" y="-803.4" font-family="Times,serif" font-size="14.00" fill="#000000">GO:0008233</text>
<text text-anchor="middle" x="1566.9015" y="-786.6" font-family="Times,serif" font-size="14.00" fill="#000000">peptidase activity</text>
</g>
<!-- GO:0070011&#45;&gt;GO:0008233 -->
<g id="edge44" class="edge">
<title>GO:0070011&#45;&gt;GO:0008233</title>
<path fill="none" stroke="#000000" d="M1571.1338,-708.9119C1570.2479,-727.8099 1569.1886,-750.4092 1568.3513,-768.2703"/>
<polygon fill="#000000" stroke="#000000" points="1564.8468,-768.2859 1567.8747,-778.4389 1571.8392,-768.6138 1564.8468,-768.2859"/>
</g>
<!-- GO:0008233&#45;&gt;GO:0016787 -->
<g id="edge45" class="edge">
<title>GO:0008233&#45;&gt;GO:0016787</title>
<path fill="none" stroke="#000000" d="M1534.1184,-820.0031C1508.7569,-836.0967 1473.4799,-858.4824 1446.1921,-875.7983"/>
<polygon fill="#000000" stroke="#000000" points="1444.2041,-872.9146 1437.6359,-881.2278 1447.9547,-878.825 1444.2041,-872.9146"/>
</g>
<!-- GO:0032403 -->
<g id="node42" class="node">
<title>GO:0032403</title>
<polygon fill="#ffffff" stroke="#000000" points="772.5499,-819.8019 619.2531,-819.8019 619.2531,-778.5981 772.5499,-778.5981 772.5499,-819.8019"/>
<text text-anchor="middle" x="695.9015" y="-803.4" font-family="Times,serif" font-size="14.00" fill="#000000">GO:0032403</text>
<text text-anchor="middle" x="695.9015" y="-786.6" font-family="Times,serif" font-size="14.00" fill="#000000">protein complex binding</text>
</g>
<!-- GO:0044877 -->
<g id="node43" class="node">
<title>GO:0044877</title>
<polygon fill="#ffffff" stroke="#000000" points="775.0688,-931.4014 616.7342,-931.4014 616.7342,-872.5986 775.0688,-872.5986 775.0688,-931.4014"/>
<text text-anchor="middle" x="695.9015" y="-914.6" font-family="Times,serif" font-size="14.00" fill="#000000">GO:0044877</text>
<text text-anchor="middle" x="695.9015" y="-897.8" font-family="Times,serif" font-size="14.00" fill="#000000">macromolecular complex</text>
<text text-anchor="middle" x="695.9015" y="-881" font-family="Times,serif" font-size="14.00" fill="#000000">binding</text>
</g>
<!-- GO:0032403&#45;&gt;GO:0044877 -->
<g id="edge46" class="edge">
<title>GO:0032403&#45;&gt;GO:0044877</title>
<path fill="none" stroke="#000000" d="M695.9015,-820.0031C695.9015,-832.1833 695.9015,-847.9676 695.9015,-862.4305"/>
<polygon fill="#000000" stroke="#000000" points="692.4016,-862.6577 695.9015,-872.6577 699.4016,-862.6578 692.4016,-862.6577"/>
</g>
<!-- GO:0005515 -->
<g id="node44" class="node">
<title>GO:0005515</title>
<polygon fill="#ffffff" stroke="#000000" points="894.8391,-922.6019 792.9639,-922.6019 792.9639,-881.3981 894.8391,-881.3981 894.8391,-922.6019"/>
<text text-anchor="middle" x="843.9015" y="-906.2" font-family="Times,serif" font-size="14.00" fill="#000000">GO:0005515</text>
<text text-anchor="middle" x="843.9015" y="-889.4" font-family="Times,serif" font-size="14.00" fill="#000000">protein binding</text>
</g>
<!-- GO:0032403&#45;&gt;GO:0005515 -->
<g id="edge47" class="edge">
<title>GO:0032403&#45;&gt;GO:0005515</title>
<path fill="none" stroke="#000000" d="M725.8515,-820.0031C748.8207,-835.9574 780.6923,-858.0952 805.5301,-875.3474"/>
<polygon fill="#000000" stroke="#000000" points="803.7862,-878.3976 813.996,-881.2278 807.7796,-872.6484 803.7862,-878.3976"/>
</g>
<!-- GO:0044877&#45;&gt;GO:0005488 -->
<g id="edge48" class="edge">
<title>GO:0044877&#45;&gt;GO:0005488</title>
<path fill="none" stroke="#000000" d="M679.1116,-931.3513C672.6132,-942.7113 665.1895,-955.6891 658.6912,-967.0491"/>
<polygon fill="#000000" stroke="#000000" points="655.6408,-965.3329 653.7134,-975.751 661.7169,-968.8087 655.6408,-965.3329"/>
</g>
<!-- GO:0005515&#45;&gt;GO:0005488 -->
<g id="edge49" class="edge">
<title>GO:0005515&#45;&gt;GO:0005488</title>
<path fill="none" stroke="#000000" d="M801.6728,-922.6986C795.7162,-925.5753 789.6616,-928.4764 783.9015,-931.2 754.8344,-944.944 722.2437,-959.9376 695.6231,-972.0775"/>
<polygon fill="#000000" stroke="#000000" points="694.1213,-968.9155 686.4716,-976.2458 697.0229,-975.2859 694.1213,-968.9155"/>
</g>
<!-- GO:0042802 -->
<g id="node45" class="node">
<title>GO:0042802</title>
<polygon fill="#ffffff" stroke="#000000" points="944.5457,-819.8019 791.2573,-819.8019 791.2573,-778.5981 944.5457,-778.5981 944.5457,-819.8019"/>
<text text-anchor="middle" x="867.9015" y="-803.4" font-family="Times,serif" font-size="14.00" fill="#000000">GO:0042802</text>
<text text-anchor="middle" x="867.9015" y="-786.6" font-family="Times,serif" font-size="14.00" fill="#000000">identical protein binding</text>
</g>
<!-- GO:0042802&#45;&gt;GO:0005515 -->
<g id="edge50" class="edge">
<title>GO:0042802&#45;&gt;GO:0005515</title>
<path fill="none" stroke="#000000" d="M863.0447,-820.0031C859.5965,-834.773 854.911,-854.8424 851.0387,-871.429"/>
<polygon fill="#000000" stroke="#000000" points="847.6163,-870.6939 848.751,-881.2278 854.433,-872.2854 847.6163,-870.6939"/>
</g>
</g>
</svg>
