<?xml version="1.0" encoding="UTF-8" standalone="no"?>
<!DOCTYPE svg PUBLIC "-//W3C//DTD SVG 1.1//EN"
 "http://www.w3.org/Graphics/SVG/1.1/DTD/svg11.dtd">
<!-- Generated by graphviz version 2.40.1 (20161225.0304)
 -->
<!-- Title: G Pages: 1 -->
<svg width="658pt" height="1061pt"
 viewBox="0.00 0.00 658.04 1060.80" xmlns="http://www.w3.org/2000/svg" xmlns:xlink="http://www.w3.org/1999/xlink">
<g id="graph0" class="graph" transform="scale(1 1) rotate(0) translate(4 1056.8)">
<title>G</title>
<polygon fill="#ffffff" stroke="transparent" points="-4,4 -4,-1056.8 654.0383,-1056.8 654.0383,4 -4,4"/>
<!-- GO:0015307 -->
<g id="node1" class="node">
<title>GO:0015307</title>
<polygon fill="#ffffff" stroke="#000000" points="381.241,-58.6014 241.1918,-58.6014 241.1918,.2014 381.241,.2014 381.241,-58.6014"/>
<text text-anchor="middle" x="311.2164" y="-41.8" font-family="Times,serif" font-size="14.00" fill="#000000">GO:0015307</text>
<text text-anchor="middle" x="311.2164" y="-25" font-family="Times,serif" font-size="14.00" fill="#000000">drug:proton antiporter</text>
<text text-anchor="middle" x="311.2164" y="-8.2" font-family="Times,serif" font-size="14.00" fill="#000000">activity</text>
</g>
<!-- GO:0015299 -->
<g id="node2" class="node">
<title>GO:0015299</title>
<polygon fill="#ffffff" stroke="#000000" points="331.0209,-153.0014 183.4119,-153.0014 183.4119,-94.1986 331.0209,-94.1986 331.0209,-153.0014"/>
<text text-anchor="middle" x="257.2164" y="-136.2" font-family="Times,serif" font-size="14.00" fill="#000000">GO:0015299</text>
<text text-anchor="middle" x="257.2164" y="-119.4" font-family="Times,serif" font-size="14.00" fill="#000000">solute:proton antiporter</text>
<text text-anchor="middle" x="257.2164" y="-102.6" font-family="Times,serif" font-size="14.00" fill="#000000">activity</text>
</g>
<!-- GO:0015307&#45;&gt;GO:0015299 -->
<g id="edge1" class="edge">
<title>GO:0015307&#45;&gt;GO:0015299</title>
<path fill="none" stroke="#000000" d="M294.4265,-58.5513C289.5502,-67.0758 284.1528,-76.5111 279.0164,-85.4904"/>
<polygon fill="#000000" stroke="#000000" points="275.9233,-83.8488 273.9959,-94.2669 281.9994,-87.3246 275.9233,-83.8488"/>
</g>
<!-- GO:0015238 -->
<g id="node3" class="node">
<title>GO:0015238</title>
<polygon fill="#ffffff" stroke="#000000" points="474.1738,-795.0014 342.259,-795.0014 342.259,-736.1986 474.1738,-736.1986 474.1738,-795.0014"/>
<text text-anchor="middle" x="408.2164" y="-778.2" font-family="Times,serif" font-size="14.00" fill="#000000">GO:0015238</text>
<text text-anchor="middle" x="408.2164" y="-761.4" font-family="Times,serif" font-size="14.00" fill="#000000">drug transmembrane</text>
<text text-anchor="middle" x="408.2164" y="-744.6" font-family="Times,serif" font-size="14.00" fill="#000000">transporter activity</text>
</g>
<!-- GO:0015307&#45;&gt;GO:0015238 -->
<g id="edge2" class="edge">
<title>GO:0015307&#45;&gt;GO:0015238</title>
<path fill="none" stroke="#000000" d="M330.6468,-58.5433C353.4574,-95.8953 388.2164,-163.1841 388.2164,-226.4 388.2164,-226.4 388.2164,-226.4 388.2164,-551.6 388.2164,-612.7884 396.4224,-683.3927 402.3217,-726.2448"/>
<polygon fill="#000000" stroke="#000000" points="398.8711,-726.8418 403.728,-736.2577 405.8031,-725.8681 398.8711,-726.8418"/>
</g>
<!-- GO:0015078 -->
<g id="node4" class="node">
<title>GO:0015078</title>
<polygon fill="#ffffff" stroke="#000000" points="213.6498,-264.1003 46.783,-264.1003 46.783,-188.6997 213.6498,-188.6997 213.6498,-264.1003"/>
<text text-anchor="middle" x="130.2164" y="-247.4" font-family="Times,serif" font-size="14.00" fill="#000000">GO:0015078</text>
<text text-anchor="middle" x="130.2164" y="-230.6" font-family="Times,serif" font-size="14.00" fill="#000000">hydrogen ion</text>
<text text-anchor="middle" x="130.2164" y="-213.8" font-family="Times,serif" font-size="14.00" fill="#000000">transmembrane transporter</text>
<text text-anchor="middle" x="130.2164" y="-197" font-family="Times,serif" font-size="14.00" fill="#000000">activity</text>
</g>
<!-- GO:0015299&#45;&gt;GO:0015078 -->
<g id="edge3" class="edge">
<title>GO:0015299&#45;&gt;GO:0015078</title>
<path fill="none" stroke="#000000" d="M220.8233,-153.0584C209.6397,-162.1109 197.0752,-172.2812 184.9459,-182.0993"/>
<polygon fill="#000000" stroke="#000000" points="182.6276,-179.4728 177.057,-188.485 187.0318,-184.9138 182.6276,-179.4728"/>
</g>
<!-- GO:0015298 -->
<g id="node5" class="node">
<title>GO:0015298</title>
<polygon fill="#ffffff" stroke="#000000" points="330.1807,-478.2014 184.2521,-478.2014 184.2521,-419.3986 330.1807,-419.3986 330.1807,-478.2014"/>
<text text-anchor="middle" x="257.2164" y="-461.4" font-family="Times,serif" font-size="14.00" fill="#000000">GO:0015298</text>
<text text-anchor="middle" x="257.2164" y="-444.6" font-family="Times,serif" font-size="14.00" fill="#000000">solute:cation antiporter</text>
<text text-anchor="middle" x="257.2164" y="-427.8" font-family="Times,serif" font-size="14.00" fill="#000000">activity</text>
</g>
<!-- GO:0015299&#45;&gt;GO:0015298 -->
<g id="edge4" class="edge">
<title>GO:0015299&#45;&gt;GO:0015298</title>
<path fill="none" stroke="#000000" d="M257.2164,-153.0329C257.2164,-211.6548 257.2164,-343.0304 257.2164,-409.1662"/>
<polygon fill="#000000" stroke="#000000" points="253.7165,-409.1993 257.2164,-419.1993 260.7165,-409.1993 253.7165,-409.1993"/>
</g>
<!-- GO:0022857 -->
<g id="node6" class="node">
<title>GO:0022857</title>
<polygon fill="#ffffff" stroke="#000000" points="334.6498,-897.8014 167.783,-897.8014 167.783,-838.9986 334.6498,-838.9986 334.6498,-897.8014"/>
<text text-anchor="middle" x="251.2164" y="-881" font-family="Times,serif" font-size="14.00" fill="#000000">GO:0022857</text>
<text text-anchor="middle" x="251.2164" y="-864.2" font-family="Times,serif" font-size="14.00" fill="#000000">transmembrane transporter</text>
<text text-anchor="middle" x="251.2164" y="-847.4" font-family="Times,serif" font-size="14.00" fill="#000000">activity</text>
</g>
<!-- GO:0015238&#45;&gt;GO:0022857 -->
<g id="edge5" class="edge">
<title>GO:0015238&#45;&gt;GO:0022857</title>
<path fill="none" stroke="#000000" d="M363.2265,-795.0584C344.918,-807.0464 323.6156,-820.9947 304.5336,-833.4891"/>
<polygon fill="#000000" stroke="#000000" points="302.3901,-830.7091 295.9412,-839.1152 306.2247,-836.5654 302.3901,-830.7091"/>
</g>
<!-- GO:0090484 -->
<g id="node7" class="node">
<title>GO:0090484</title>
<polygon fill="#ffffff" stroke="#000000" points="504.0057,-889.0019 352.4271,-889.0019 352.4271,-847.7981 504.0057,-847.7981 504.0057,-889.0019"/>
<text text-anchor="middle" x="428.2164" y="-872.6" font-family="Times,serif" font-size="14.00" fill="#000000">GO:0090484</text>
<text text-anchor="middle" x="428.2164" y="-855.8" font-family="Times,serif" font-size="14.00" fill="#000000">drug transporter activity</text>
</g>
<!-- GO:0015238&#45;&gt;GO:0090484 -->
<g id="edge6" class="edge">
<title>GO:0015238&#45;&gt;GO:0090484</title>
<path fill="none" stroke="#000000" d="M413.9476,-795.0584C416.5599,-808.4856 419.6507,-824.3721 422.2865,-837.9204"/>
<polygon fill="#000000" stroke="#000000" points="418.8527,-838.5981 424.198,-847.7456 425.7238,-837.2612 418.8527,-838.5981"/>
</g>
<!-- GO:0015077 -->
<g id="node8" class="node">
<title>GO:0015077</title>
<polygon fill="#ffffff" stroke="#000000" points="169.2228,-375.3003 29.21,-375.3003 29.21,-299.8997 169.2228,-299.8997 169.2228,-375.3003"/>
<text text-anchor="middle" x="99.2164" y="-358.6" font-family="Times,serif" font-size="14.00" fill="#000000">GO:0015077</text>
<text text-anchor="middle" x="99.2164" y="-341.8" font-family="Times,serif" font-size="14.00" fill="#000000">monovalent inorganic</text>
<text text-anchor="middle" x="99.2164" y="-325" font-family="Times,serif" font-size="14.00" fill="#000000">cation transmembrane</text>
<text text-anchor="middle" x="99.2164" y="-308.2" font-family="Times,serif" font-size="14.00" fill="#000000">transporter activity</text>
</g>
<!-- GO:0015078&#45;&gt;GO:0015077 -->
<g id="edge7" class="edge">
<title>GO:0015078&#45;&gt;GO:0015077</title>
<path fill="none" stroke="#000000" d="M119.7212,-264.0472C117.373,-272.4706 114.8531,-281.5098 112.4112,-290.2689"/>
<polygon fill="#000000" stroke="#000000" points="109.0148,-289.4189 109.7008,-299.9915 115.7577,-291.2987 109.0148,-289.4189"/>
</g>
<!-- GO:0015297 -->
<g id="node9" class="node">
<title>GO:0015297</title>
<polygon fill="#ffffff" stroke="#000000" points="314.1302,-572.2019 198.3026,-572.2019 198.3026,-530.9981 314.1302,-530.9981 314.1302,-572.2019"/>
<text text-anchor="middle" x="256.2164" y="-555.8" font-family="Times,serif" font-size="14.00" fill="#000000">GO:0015297</text>
<text text-anchor="middle" x="256.2164" y="-539" font-family="Times,serif" font-size="14.00" fill="#000000">antiporter activity</text>
</g>
<!-- GO:0015298&#45;&gt;GO:0015297 -->
<g id="edge8" class="edge">
<title>GO:0015298&#45;&gt;GO:0015297</title>
<path fill="none" stroke="#000000" d="M256.9298,-478.2584C256.8005,-491.5539 256.6477,-507.2608 256.5168,-520.7212"/>
<polygon fill="#000000" stroke="#000000" points="253.0149,-520.912 256.4173,-530.9456 260.0145,-520.9802 253.0149,-520.912"/>
</g>
<!-- GO:0008324 -->
<g id="node10" class="node">
<title>GO:0008324</title>
<polygon fill="#ffffff" stroke="#000000" points="154.2228,-581.0014 14.21,-581.0014 14.21,-522.1986 154.2228,-522.1986 154.2228,-581.0014"/>
<text text-anchor="middle" x="84.2164" y="-564.2" font-family="Times,serif" font-size="14.00" fill="#000000">GO:0008324</text>
<text text-anchor="middle" x="84.2164" y="-547.4" font-family="Times,serif" font-size="14.00" fill="#000000">cation transmembrane</text>
<text text-anchor="middle" x="84.2164" y="-530.6" font-family="Times,serif" font-size="14.00" fill="#000000">transporter activity</text>
</g>
<!-- GO:0015298&#45;&gt;GO:0008324 -->
<g id="edge9" class="edge">
<title>GO:0015298&#45;&gt;GO:0008324</title>
<path fill="none" stroke="#000000" d="M207.6415,-478.2584C187.1946,-490.4084 163.3588,-504.572 142.1162,-517.1948"/>
<polygon fill="#000000" stroke="#000000" points="140.308,-514.1979 133.4992,-522.3152 143.8839,-520.2157 140.308,-514.1979"/>
</g>
<!-- GO:0005215 -->
<g id="node11" class="node">
<title>GO:0005215</title>
<polygon fill="#ffffff" stroke="#000000" points="489.3449,-975.0019 367.0879,-975.0019 367.0879,-933.7981 489.3449,-933.7981 489.3449,-975.0019"/>
<text text-anchor="middle" x="428.2164" y="-958.6" font-family="Times,serif" font-size="14.00" fill="#000000">GO:0005215</text>
<text text-anchor="middle" x="428.2164" y="-941.8" font-family="Times,serif" font-size="14.00" fill="#000000">transporter activity</text>
</g>
<!-- GO:0022857&#45;&gt;GO:0005215 -->
<g id="edge10" class="edge">
<title>GO:0022857&#45;&gt;GO:0005215</title>
<path fill="none" stroke="#000000" d="M311.6347,-897.7558C332.7385,-908.0096 356.2189,-919.4182 376.5448,-929.294"/>
<polygon fill="#000000" stroke="#000000" points="375.1178,-932.4919 385.6419,-933.7141 378.177,-926.1957 375.1178,-932.4919"/>
</g>
<!-- GO:0090484&#45;&gt;GO:0005215 -->
<g id="edge11" class="edge">
<title>GO:0090484&#45;&gt;GO:0005215</title>
<path fill="none" stroke="#000000" d="M428.2164,-889.2182C428.2164,-899.5705 428.2164,-912.2848 428.2164,-923.7271"/>
<polygon fill="#000000" stroke="#000000" points="424.7165,-923.7735 428.2164,-933.7735 431.7165,-923.7735 424.7165,-923.7735"/>
</g>
<!-- GO:0022890 -->
<g id="node12" class="node">
<title>GO:0022890</title>
<polygon fill="#ffffff" stroke="#000000" points="166.6498,-486.5003 -.217,-486.5003 -.217,-411.0997 166.6498,-411.0997 166.6498,-486.5003"/>
<text text-anchor="middle" x="83.2164" y="-469.8" font-family="Times,serif" font-size="14.00" fill="#000000">GO:0022890</text>
<text text-anchor="middle" x="83.2164" y="-453" font-family="Times,serif" font-size="14.00" fill="#000000">inorganic cation</text>
<text text-anchor="middle" x="83.2164" y="-436.2" font-family="Times,serif" font-size="14.00" fill="#000000">transmembrane transporter</text>
<text text-anchor="middle" x="83.2164" y="-419.4" font-family="Times,serif" font-size="14.00" fill="#000000">activity</text>
</g>
<!-- GO:0015077&#45;&gt;GO:0022890 -->
<g id="edge12" class="edge">
<title>GO:0015077&#45;&gt;GO:0022890</title>
<path fill="none" stroke="#000000" d="M93.7995,-375.2472C92.6006,-383.58 91.3149,-392.5155 90.0673,-401.1863"/>
<polygon fill="#000000" stroke="#000000" points="86.5876,-400.795 88.6277,-411.1915 93.5163,-401.7919 86.5876,-400.795"/>
</g>
<!-- GO:0015291 -->
<g id="node13" class="node">
<title>GO:0015291</title>
<polygon fill="#ffffff" stroke="#000000" points="339.6498,-692.1003 172.783,-692.1003 172.783,-616.6997 339.6498,-616.6997 339.6498,-692.1003"/>
<text text-anchor="middle" x="256.2164" y="-675.4" font-family="Times,serif" font-size="14.00" fill="#000000">GO:0015291</text>
<text text-anchor="middle" x="256.2164" y="-658.6" font-family="Times,serif" font-size="14.00" fill="#000000">secondary active</text>
<text text-anchor="middle" x="256.2164" y="-641.8" font-family="Times,serif" font-size="14.00" fill="#000000">transmembrane transporter</text>
<text text-anchor="middle" x="256.2164" y="-625" font-family="Times,serif" font-size="14.00" fill="#000000">activity</text>
</g>
<!-- GO:0015297&#45;&gt;GO:0015291 -->
<g id="edge13" class="edge">
<title>GO:0015297&#45;&gt;GO:0015291</title>
<path fill="none" stroke="#000000" d="M256.2164,-572.4031C256.2164,-582.2045 256.2164,-594.3396 256.2164,-606.242"/>
<polygon fill="#000000" stroke="#000000" points="252.7165,-606.5772 256.2164,-616.5773 259.7165,-606.5773 252.7165,-606.5772"/>
</g>
<!-- GO:0015075 -->
<g id="node14" class="node">
<title>GO:0015075</title>
<polygon fill="#ffffff" stroke="#000000" points="145.9034,-683.8014 22.5294,-683.8014 22.5294,-624.9986 145.9034,-624.9986 145.9034,-683.8014"/>
<text text-anchor="middle" x="84.2164" y="-667" font-family="Times,serif" font-size="14.00" fill="#000000">GO:0015075</text>
<text text-anchor="middle" x="84.2164" y="-650.2" font-family="Times,serif" font-size="14.00" fill="#000000">ion transmembrane</text>
<text text-anchor="middle" x="84.2164" y="-633.4" font-family="Times,serif" font-size="14.00" fill="#000000">transporter activity</text>
</g>
<!-- GO:0008324&#45;&gt;GO:0015075 -->
<g id="edge14" class="edge">
<title>GO:0008324&#45;&gt;GO:0015075</title>
<path fill="none" stroke="#000000" d="M84.2164,-581.0584C84.2164,-591.5969 84.2164,-603.6505 84.2164,-614.8994"/>
<polygon fill="#000000" stroke="#000000" points="80.7165,-614.9373 84.2164,-624.9373 87.7165,-614.9374 80.7165,-614.9373"/>
</g>
<!-- GO:0003674 -->
<g id="node15" class="node">
<title>GO:0003674</title>
<polygon fill="#ffffff" stroke="#000000" points="552.8495,-1052.6019 427.5833,-1052.6019 427.5833,-1011.3981 552.8495,-1011.3981 552.8495,-1052.6019"/>
<text text-anchor="middle" x="490.2164" y="-1036.2" font-family="Times,serif" font-size="14.00" fill="#000000">GO:0003674</text>
<text text-anchor="middle" x="490.2164" y="-1019.4" font-family="Times,serif" font-size="14.00" fill="#000000">molecular_function</text>
</g>
<!-- GO:0005215&#45;&gt;GO:0003674 -->
<g id="edge15" class="edge">
<title>GO:0005215&#45;&gt;GO:0003674</title>
<path fill="none" stroke="#000000" d="M444.8313,-975.1954C451.7115,-983.8067 459.8064,-993.9384 467.2402,-1003.2427"/>
<polygon fill="#000000" stroke="#000000" points="464.5792,-1005.5193 473.5557,-1011.1472 470.048,-1001.1499 464.5792,-1005.5193"/>
</g>
<!-- GO:0022890&#45;&gt;GO:0008324 -->
<g id="edge16" class="edge">
<title>GO:0022890&#45;&gt;GO:0008324</title>
<path fill="none" stroke="#000000" d="M83.5831,-486.4952C83.6647,-494.8874 83.7515,-503.8054 83.8337,-512.2618"/>
<polygon fill="#000000" stroke="#000000" points="80.334,-512.3159 83.9312,-522.2814 87.3337,-512.2478 80.334,-512.3159"/>
</g>
<!-- GO:0022804 -->
<g id="node16" class="node">
<title>GO:0022804</title>
<polygon fill="#ffffff" stroke="#000000" points="324.9376,-795.0014 185.4952,-795.0014 185.4952,-736.1986 324.9376,-736.1986 324.9376,-795.0014"/>
<text text-anchor="middle" x="255.2164" y="-778.2" font-family="Times,serif" font-size="14.00" fill="#000000">GO:0022804</text>
<text text-anchor="middle" x="255.2164" y="-761.4" font-family="Times,serif" font-size="14.00" fill="#000000">active transmembrane</text>
<text text-anchor="middle" x="255.2164" y="-744.6" font-family="Times,serif" font-size="14.00" fill="#000000">transporter activity</text>
</g>
<!-- GO:0015291&#45;&gt;GO:0022804 -->
<g id="edge17" class="edge">
<title>GO:0015291&#45;&gt;GO:0022804</title>
<path fill="none" stroke="#000000" d="M255.8778,-692.0472C255.7799,-702.9338 255.6728,-714.849 255.5738,-725.8589"/>
<polygon fill="#000000" stroke="#000000" points="252.0721,-726.0431 255.4819,-736.0742 259.0718,-726.1061 252.0721,-726.0431"/>
</g>
<!-- GO:0022891 -->
<g id="node17" class="node">
<title>GO:0022891</title>
<polygon fill="#ffffff" stroke="#000000" points="167.6498,-803.3003 .783,-803.3003 .783,-727.8997 167.6498,-727.8997 167.6498,-803.3003"/>
<text text-anchor="middle" x="84.2164" y="-786.6" font-family="Times,serif" font-size="14.00" fill="#000000">GO:0022891</text>
<text text-anchor="middle" x="84.2164" y="-769.8" font-family="Times,serif" font-size="14.00" fill="#000000">substrate&#45;specific</text>
<text text-anchor="middle" x="84.2164" y="-753" font-family="Times,serif" font-size="14.00" fill="#000000">transmembrane transporter</text>
<text text-anchor="middle" x="84.2164" y="-736.2" font-family="Times,serif" font-size="14.00" fill="#000000">activity</text>
</g>
<!-- GO:0015075&#45;&gt;GO:0022891 -->
<g id="edge18" class="edge">
<title>GO:0015075&#45;&gt;GO:0022891</title>
<path fill="none" stroke="#000000" d="M84.2164,-683.6165C84.2164,-694.0682 84.2164,-706.1391 84.2164,-717.7501"/>
<polygon fill="#000000" stroke="#000000" points="80.7165,-717.783 84.2164,-727.783 87.7165,-717.7831 80.7165,-717.783"/>
</g>
<!-- GO:0022804&#45;&gt;GO:0022857 -->
<g id="edge19" class="edge">
<title>GO:0022804&#45;&gt;GO:0022857</title>
<path fill="none" stroke="#000000" d="M254.0702,-795.0584C253.6601,-805.5969 253.1911,-817.6505 252.7534,-828.8994"/>
<polygon fill="#000000" stroke="#000000" points="249.2544,-828.8088 252.3628,-838.9373 256.2491,-829.081 249.2544,-828.8088"/>
</g>
<!-- GO:0022891&#45;&gt;GO:0022857 -->
<g id="edge20" class="edge">
<title>GO:0022891&#45;&gt;GO:0022857</title>
<path fill="none" stroke="#000000" d="M145.4528,-803.2952C161.6328,-813.2552 179.0161,-823.9558 194.921,-833.7463"/>
<polygon fill="#000000" stroke="#000000" points="193.2372,-836.8198 203.5879,-839.0814 196.9067,-830.8586 193.2372,-836.8198"/>
</g>
<!-- GO:0022892 -->
<g id="node18" class="node">
<title>GO:0022892</title>
<polygon fill="#ffffff" stroke="#000000" points="145.3449,-897.8014 23.0879,-897.8014 23.0879,-838.9986 145.3449,-838.9986 145.3449,-897.8014"/>
<text text-anchor="middle" x="84.2164" y="-881" font-family="Times,serif" font-size="14.00" fill="#000000">GO:0022892</text>
<text text-anchor="middle" x="84.2164" y="-864.2" font-family="Times,serif" font-size="14.00" fill="#000000">substrate&#45;specific</text>
<text text-anchor="middle" x="84.2164" y="-847.4" font-family="Times,serif" font-size="14.00" fill="#000000">transporter activity</text>
</g>
<!-- GO:0022891&#45;&gt;GO:0022892 -->
<g id="edge21" class="edge">
<title>GO:0022891&#45;&gt;GO:0022892</title>
<path fill="none" stroke="#000000" d="M84.2164,-803.2952C84.2164,-811.6874 84.2164,-820.6054 84.2164,-829.0618"/>
<polygon fill="#000000" stroke="#000000" points="80.7165,-829.0813 84.2164,-839.0814 87.7165,-829.0814 80.7165,-829.0813"/>
</g>
<!-- GO:0042802 -->
<g id="node19" class="node">
<title>GO:0042802</title>
<polygon fill="#ffffff" stroke="#000000" points="649.8606,-786.2019 496.5722,-786.2019 496.5722,-744.9981 649.8606,-744.9981 649.8606,-786.2019"/>
<text text-anchor="middle" x="573.2164" y="-769.8" font-family="Times,serif" font-size="14.00" fill="#000000">GO:0042802</text>
<text text-anchor="middle" x="573.2164" y="-753" font-family="Times,serif" font-size="14.00" fill="#000000">identical protein binding</text>
</g>
<!-- GO:0005515 -->
<g id="node20" class="node">
<title>GO:0005515</title>
<polygon fill="#ffffff" stroke="#000000" points="624.154,-889.0019 522.2788,-889.0019 522.2788,-847.7981 624.154,-847.7981 624.154,-889.0019"/>
<text text-anchor="middle" x="573.2164" y="-872.6" font-family="Times,serif" font-size="14.00" fill="#000000">GO:0005515</text>
<text text-anchor="middle" x="573.2164" y="-855.8" font-family="Times,serif" font-size="14.00" fill="#000000">protein binding</text>
</g>
<!-- GO:0042802&#45;&gt;GO:0005515 -->
<g id="edge22" class="edge">
<title>GO:0042802&#45;&gt;GO:0005515</title>
<path fill="none" stroke="#000000" d="M573.2164,-786.4031C573.2164,-801.0337 573.2164,-820.8642 573.2164,-837.3586"/>
<polygon fill="#000000" stroke="#000000" points="569.7165,-837.6278 573.2164,-847.6278 576.7165,-837.6279 569.7165,-837.6278"/>
</g>
<!-- GO:0005488 -->
<g id="node21" class="node">
<title>GO:0005488</title>
<polygon fill="#ffffff" stroke="#000000" points="606.8203,-975.0019 517.6125,-975.0019 517.6125,-933.7981 606.8203,-933.7981 606.8203,-975.0019"/>
<text text-anchor="middle" x="562.2164" y="-958.6" font-family="Times,serif" font-size="14.00" fill="#000000">GO:0005488</text>
<text text-anchor="middle" x="562.2164" y="-941.8" font-family="Times,serif" font-size="14.00" fill="#000000">binding</text>
</g>
<!-- GO:0005515&#45;&gt;GO:0005488 -->
<g id="edge23" class="edge">
<title>GO:0005515&#45;&gt;GO:0005488</title>
<path fill="none" stroke="#000000" d="M570.5536,-889.2182C569.2295,-899.5705 567.6032,-912.2848 566.1397,-923.7271"/>
<polygon fill="#000000" stroke="#000000" points="562.6518,-923.4102 564.8547,-933.7735 569.5952,-924.2984 562.6518,-923.4102"/>
</g>
<!-- GO:0005488&#45;&gt;GO:0003674 -->
<g id="edge24" class="edge">
<title>GO:0005488&#45;&gt;GO:0003674</title>
<path fill="none" stroke="#000000" d="M542.9217,-975.1954C534.7704,-983.9807 525.1509,-994.3484 516.3762,-1003.8056"/>
<polygon fill="#000000" stroke="#000000" points="513.8003,-1001.436 509.5643,-1011.1472 518.9317,-1006.1971 513.8003,-1001.436"/>
</g>
</g>
</svg>
