<?xml version="1.0" encoding="UTF-8" standalone="no"?>
<!DOCTYPE svg PUBLIC "-//W3C//DTD SVG 1.1//EN"
 "http://www.w3.org/Graphics/SVG/1.1/DTD/svg11.dtd">
<!-- Generated by graphviz version 2.40.1 (20161225.0304)
 -->
<!-- Title: G Pages: 1 -->
<svg width="931pt" height="566pt"
 viewBox="0.00 0.00 931.25 565.60" xmlns="http://www.w3.org/2000/svg" xmlns:xlink="http://www.w3.org/1999/xlink">
<g id="graph0" class="graph" transform="scale(1 1) rotate(0) translate(4 561.6)">
<title>G</title>
<polygon fill="#ffffff" stroke="transparent" points="-4,4 -4,-561.6 927.2532,-561.6 927.2532,4 -4,4"/>
<!-- GO:0019825 -->
<g id="node1" class="node">
<title>GO:0019825</title>
<polygon fill="#ffffff" stroke="#000000" points="103.7449,-393.8019 -.2491,-393.8019 -.2491,-352.5981 103.7449,-352.5981 103.7449,-393.8019"/>
<text text-anchor="middle" x="51.7479" y="-377.4" font-family="Times,serif" font-size="14.00" fill="#000000">GO:0019825</text>
<text text-anchor="middle" x="51.7479" y="-360.6" font-family="Times,serif" font-size="14.00" fill="#000000">oxygen binding</text>
</g>
<!-- GO:0005488 -->
<g id="node2" class="node">
<title>GO:0005488</title>
<polygon fill="#ffffff" stroke="#000000" points="520.3518,-479.8019 431.144,-479.8019 431.144,-438.5981 520.3518,-438.5981 520.3518,-479.8019"/>
<text text-anchor="middle" x="475.7479" y="-463.4" font-family="Times,serif" font-size="14.00" fill="#000000">GO:0005488</text>
<text text-anchor="middle" x="475.7479" y="-446.6" font-family="Times,serif" font-size="14.00" fill="#000000">binding</text>
</g>
<!-- GO:0019825&#45;&gt;GO:0005488 -->
<g id="edge1" class="edge">
<title>GO:0019825&#45;&gt;GO:0005488</title>
<path fill="none" stroke="#000000" d="M90.7749,-393.932C97.9388,-397.1431 105.4589,-400.1386 112.7479,-402.4 218.8657,-435.3231 348.6284,-449.7397 420.7326,-455.5919"/>
<polygon fill="#000000" stroke="#000000" points="420.6993,-459.1 430.9428,-456.3944 421.2478,-452.1215 420.6993,-459.1"/>
</g>
<!-- GO:0003674 -->
<g id="node3" class="node">
<title>GO:0003674</title>
<polygon fill="#ffffff" stroke="#000000" points="538.381,-557.4019 413.1148,-557.4019 413.1148,-516.1981 538.381,-516.1981 538.381,-557.4019"/>
<text text-anchor="middle" x="475.7479" y="-541" font-family="Times,serif" font-size="14.00" fill="#000000">GO:0003674</text>
<text text-anchor="middle" x="475.7479" y="-524.2" font-family="Times,serif" font-size="14.00" fill="#000000">molecular_function</text>
</g>
<!-- GO:0005488&#45;&gt;GO:0003674 -->
<g id="edge2" class="edge">
<title>GO:0005488&#45;&gt;GO:0003674</title>
<path fill="none" stroke="#000000" d="M475.7479,-479.9954C475.7479,-487.9109 475.7479,-497.1109 475.7479,-505.7722"/>
<polygon fill="#000000" stroke="#000000" points="472.248,-505.9472 475.7479,-515.9472 479.248,-505.9473 472.248,-505.9472"/>
</g>
<!-- GO:0015643 -->
<g id="node4" class="node">
<title>GO:0015643</title>
<polygon fill="#ffffff" stroke="#000000" points="269.9486,-393.8019 121.5472,-393.8019 121.5472,-352.5981 269.9486,-352.5981 269.9486,-393.8019"/>
<text text-anchor="middle" x="195.7479" y="-377.4" font-family="Times,serif" font-size="14.00" fill="#000000">GO:0015643</text>
<text text-anchor="middle" x="195.7479" y="-360.6" font-family="Times,serif" font-size="14.00" fill="#000000">toxic substance binding</text>
</g>
<!-- GO:0015643&#45;&gt;GO:0005488 -->
<g id="edge3" class="edge">
<title>GO:0015643&#45;&gt;GO:0005488</title>
<path fill="none" stroke="#000000" d="M253.2019,-393.8943C261.7396,-396.8294 270.4546,-399.748 278.7479,-402.4 326.5676,-417.6915 381.495,-433.3751 421.1818,-444.3769"/>
<polygon fill="#000000" stroke="#000000" points="420.3587,-447.7806 430.9297,-447.07 422.2228,-441.0333 420.3587,-447.7806"/>
</g>
<!-- GO:0008144 -->
<g id="node5" class="node">
<title>GO:0008144</title>
<polygon fill="#ffffff" stroke="#000000" points="377.3518,-393.8019 288.144,-393.8019 288.144,-352.5981 377.3518,-352.5981 377.3518,-393.8019"/>
<text text-anchor="middle" x="332.7479" y="-377.4" font-family="Times,serif" font-size="14.00" fill="#000000">GO:0008144</text>
<text text-anchor="middle" x="332.7479" y="-360.6" font-family="Times,serif" font-size="14.00" fill="#000000">drug binding</text>
</g>
<!-- GO:0008144&#45;&gt;GO:0005488 -->
<g id="edge4" class="edge">
<title>GO:0008144&#45;&gt;GO:0005488</title>
<path fill="none" stroke="#000000" d="M367.3642,-394.0182C387.037,-405.8494 411.8397,-420.7657 432.7523,-433.3425"/>
<polygon fill="#000000" stroke="#000000" points="431.0769,-436.4191 441.4504,-438.5735 434.6846,-430.4203 431.0769,-436.4191"/>
</g>
<!-- GO:0046872 -->
<g id="node6" class="node">
<title>GO:0046872</title>
<polygon fill="#ffffff" stroke="#000000" points="231.0209,-221.8019 116.4749,-221.8019 116.4749,-180.5981 231.0209,-180.5981 231.0209,-221.8019"/>
<text text-anchor="middle" x="173.7479" y="-205.4" font-family="Times,serif" font-size="14.00" fill="#000000">GO:0046872</text>
<text text-anchor="middle" x="173.7479" y="-188.6" font-family="Times,serif" font-size="14.00" fill="#000000">metal ion binding</text>
</g>
<!-- GO:0043169 -->
<g id="node7" class="node">
<title>GO:0043169</title>
<polygon fill="#ffffff" stroke="#000000" points="265.2408,-307.8019 168.255,-307.8019 168.255,-266.5981 265.2408,-266.5981 265.2408,-307.8019"/>
<text text-anchor="middle" x="216.7479" y="-291.4" font-family="Times,serif" font-size="14.00" fill="#000000">GO:0043169</text>
<text text-anchor="middle" x="216.7479" y="-274.6" font-family="Times,serif" font-size="14.00" fill="#000000">cation binding</text>
</g>
<!-- GO:0046872&#45;&gt;GO:0043169 -->
<g id="edge5" class="edge">
<title>GO:0046872&#45;&gt;GO:0043169</title>
<path fill="none" stroke="#000000" d="M184.157,-222.0182C189.4916,-232.6874 196.0806,-245.8655 201.935,-257.5743"/>
<polygon fill="#000000" stroke="#000000" points="198.832,-259.1945 206.4347,-266.5735 205.093,-256.064 198.832,-259.1945"/>
</g>
<!-- GO:0043167 -->
<g id="node8" class="node">
<title>GO:0043167</title>
<polygon fill="#ffffff" stroke="#000000" points="484.3518,-393.8019 395.144,-393.8019 395.144,-352.5981 484.3518,-352.5981 484.3518,-393.8019"/>
<text text-anchor="middle" x="439.7479" y="-377.4" font-family="Times,serif" font-size="14.00" fill="#000000">GO:0043167</text>
<text text-anchor="middle" x="439.7479" y="-360.6" font-family="Times,serif" font-size="14.00" fill="#000000">ion binding</text>
</g>
<!-- GO:0043169&#45;&gt;GO:0043167 -->
<g id="edge6" class="edge">
<title>GO:0043169&#45;&gt;GO:0043167</title>
<path fill="none" stroke="#000000" d="M265.2517,-300.8474C299.7447,-311.1664 346.8462,-326.5144 386.7479,-344 389.5443,-345.2254 392.3889,-346.549 395.2346,-347.9325"/>
<polygon fill="#000000" stroke="#000000" points="393.7675,-351.1127 404.2699,-352.5092 396.9306,-344.8681 393.7675,-351.1127"/>
</g>
<!-- GO:0043167&#45;&gt;GO:0005488 -->
<g id="edge7" class="edge">
<title>GO:0043167&#45;&gt;GO:0005488</title>
<path fill="none" stroke="#000000" d="M448.4625,-394.0182C452.8844,-404.5818 458.3359,-417.6048 463.2007,-429.2261"/>
<polygon fill="#000000" stroke="#000000" points="460.0236,-430.7006 467.1136,-438.5735 466.4807,-427.9976 460.0236,-430.7006"/>
</g>
<!-- GO:0030170 -->
<g id="node9" class="node">
<title>GO:0030170</title>
<polygon fill="#ffffff" stroke="#000000" points="544.6687,-230.6014 414.8271,-230.6014 414.8271,-171.7986 544.6687,-171.7986 544.6687,-230.6014"/>
<text text-anchor="middle" x="479.7479" y="-213.8" font-family="Times,serif" font-size="14.00" fill="#000000">GO:0030170</text>
<text text-anchor="middle" x="479.7479" y="-197" font-family="Times,serif" font-size="14.00" fill="#000000">pyridoxal phosphate</text>
<text text-anchor="middle" x="479.7479" y="-180.2" font-family="Times,serif" font-size="14.00" fill="#000000">binding</text>
</g>
<!-- GO:0043168 -->
<g id="node10" class="node">
<title>GO:0043168</title>
<polygon fill="#ffffff" stroke="#000000" points="418.6351,-307.8019 324.8607,-307.8019 324.8607,-266.5981 418.6351,-266.5981 418.6351,-307.8019"/>
<text text-anchor="middle" x="371.7479" y="-291.4" font-family="Times,serif" font-size="14.00" fill="#000000">GO:0043168</text>
<text text-anchor="middle" x="371.7479" y="-274.6" font-family="Times,serif" font-size="14.00" fill="#000000">anion binding</text>
</g>
<!-- GO:0030170&#45;&gt;GO:0043168 -->
<g id="edge8" class="edge">
<title>GO:0030170&#45;&gt;GO:0043168</title>
<path fill="none" stroke="#000000" d="M442.8825,-230.5558C430.8673,-240.1234 417.5896,-250.6964 405.791,-260.0916"/>
<polygon fill="#000000" stroke="#000000" points="403.5353,-257.4136 397.8928,-266.3809 407.8958,-262.8896 403.5353,-257.4136"/>
</g>
<!-- GO:0048037 -->
<g id="node11" class="node">
<title>GO:0048037</title>
<polygon fill="#ffffff" stroke="#000000" points="544.8848,-307.8019 436.611,-307.8019 436.611,-266.5981 544.8848,-266.5981 544.8848,-307.8019"/>
<text text-anchor="middle" x="490.7479" y="-291.4" font-family="Times,serif" font-size="14.00" fill="#000000">GO:0048037</text>
<text text-anchor="middle" x="490.7479" y="-274.6" font-family="Times,serif" font-size="14.00" fill="#000000">cofactor binding</text>
</g>
<!-- GO:0030170&#45;&gt;GO:0048037 -->
<g id="edge9" class="edge">
<title>GO:0030170&#45;&gt;GO:0048037</title>
<path fill="none" stroke="#000000" d="M483.5335,-230.7963C484.5909,-239.0638 485.7424,-248.0657 486.8085,-256.4008"/>
<polygon fill="#000000" stroke="#000000" points="483.3592,-257.0214 488.0998,-266.4966 490.3027,-256.1333 483.3592,-257.0214"/>
</g>
<!-- GO:0043168&#45;&gt;GO:0043167 -->
<g id="edge10" class="edge">
<title>GO:0043168&#45;&gt;GO:0043167</title>
<path fill="none" stroke="#000000" d="M388.2088,-308.0182C396.8955,-319.0043 407.6855,-332.6506 417.1447,-344.6137"/>
<polygon fill="#000000" stroke="#000000" points="414.4907,-346.9002 423.4386,-352.5735 419.9817,-342.5585 414.4907,-346.9002"/>
</g>
<!-- GO:0048037&#45;&gt;GO:0005488 -->
<g id="edge11" class="edge">
<title>GO:0048037&#45;&gt;GO:0005488</title>
<path fill="none" stroke="#000000" d="M493.5283,-308.154C496.0887,-331.3504 498.7934,-369.7767 493.7479,-402.4 492.3842,-411.2172 489.8962,-420.5406 487.1963,-429.0282"/>
<polygon fill="#000000" stroke="#000000" points="483.8719,-427.9333 483.9842,-438.5276 490.5031,-430.1757 483.8719,-427.9333"/>
</g>
<!-- GO:0003677 -->
<g id="node12" class="node">
<title>GO:0003677</title>
<polygon fill="#ffffff" stroke="#000000" points="810.8498,-221.8019 718.646,-221.8019 718.646,-180.5981 810.8498,-180.5981 810.8498,-221.8019"/>
<text text-anchor="middle" x="764.7479" y="-205.4" font-family="Times,serif" font-size="14.00" fill="#000000">GO:0003677</text>
<text text-anchor="middle" x="764.7479" y="-188.6" font-family="Times,serif" font-size="14.00" fill="#000000">DNA binding</text>
</g>
<!-- GO:0003676 -->
<g id="node13" class="node">
<title>GO:0003676</title>
<polygon fill="#ffffff" stroke="#000000" points="829.2748,-307.8019 700.221,-307.8019 700.221,-266.5981 829.2748,-266.5981 829.2748,-307.8019"/>
<text text-anchor="middle" x="764.7479" y="-291.4" font-family="Times,serif" font-size="14.00" fill="#000000">GO:0003676</text>
<text text-anchor="middle" x="764.7479" y="-274.6" font-family="Times,serif" font-size="14.00" fill="#000000">nucleic acid binding</text>
</g>
<!-- GO:0003677&#45;&gt;GO:0003676 -->
<g id="edge12" class="edge">
<title>GO:0003677&#45;&gt;GO:0003676</title>
<path fill="none" stroke="#000000" d="M764.7479,-222.0182C764.7479,-232.3705 764.7479,-245.0848 764.7479,-256.5271"/>
<polygon fill="#000000" stroke="#000000" points="761.248,-256.5735 764.7479,-266.5735 768.248,-256.5735 761.248,-256.5735"/>
</g>
<!-- GO:0097159 -->
<g id="node14" class="node">
<title>GO:0097159</title>
<polygon fill="#ffffff" stroke="#000000" points="758.2593,-402.6014 601.2365,-402.6014 601.2365,-343.7986 758.2593,-343.7986 758.2593,-402.6014"/>
<text text-anchor="middle" x="679.7479" y="-385.8" font-family="Times,serif" font-size="14.00" fill="#000000">GO:0097159</text>
<text text-anchor="middle" x="679.7479" y="-369" font-family="Times,serif" font-size="14.00" fill="#000000">organic cyclic compound</text>
<text text-anchor="middle" x="679.7479" y="-352.2" font-family="Times,serif" font-size="14.00" fill="#000000">binding</text>
</g>
<!-- GO:0003676&#45;&gt;GO:0097159 -->
<g id="edge13" class="edge">
<title>GO:0003676&#45;&gt;GO:0097159</title>
<path fill="none" stroke="#000000" d="M744.1718,-308.0182C735.7148,-316.5747 725.6629,-326.7448 716.0443,-336.4766"/>
<polygon fill="#000000" stroke="#000000" points="713.3472,-334.2264 708.8069,-343.7991 718.3258,-339.1472 713.3472,-334.2264"/>
</g>
<!-- GO:1901363 -->
<g id="node15" class="node">
<title>GO:1901363</title>
<polygon fill="#ffffff" stroke="#000000" points="923.2585,-402.6014 776.2373,-402.6014 776.2373,-343.7986 923.2585,-343.7986 923.2585,-402.6014"/>
<text text-anchor="middle" x="849.7479" y="-385.8" font-family="Times,serif" font-size="14.00" fill="#000000">GO:1901363</text>
<text text-anchor="middle" x="849.7479" y="-369" font-family="Times,serif" font-size="14.00" fill="#000000">heterocyclic compound</text>
<text text-anchor="middle" x="849.7479" y="-352.2" font-family="Times,serif" font-size="14.00" fill="#000000">binding</text>
</g>
<!-- GO:0003676&#45;&gt;GO:1901363 -->
<g id="edge14" class="edge">
<title>GO:0003676&#45;&gt;GO:1901363</title>
<path fill="none" stroke="#000000" d="M785.324,-308.0182C793.781,-316.5747 803.8329,-326.7448 813.4515,-336.4766"/>
<polygon fill="#000000" stroke="#000000" points="811.17,-339.1472 820.6889,-343.7991 816.1486,-334.2264 811.17,-339.1472"/>
</g>
<!-- GO:0097159&#45;&gt;GO:0005488 -->
<g id="edge15" class="edge">
<title>GO:0097159&#45;&gt;GO:0005488</title>
<path fill="none" stroke="#000000" d="M610.3981,-402.4357C584.1914,-413.4836 554.7702,-425.8867 530.1294,-436.2745"/>
<polygon fill="#000000" stroke="#000000" points="528.4431,-433.187 520.588,-440.2968 531.1623,-439.6373 528.4431,-433.187"/>
</g>
<!-- GO:1901363&#45;&gt;GO:0005488 -->
<g id="edge16" class="edge">
<title>GO:1901363&#45;&gt;GO:0005488</title>
<path fill="none" stroke="#000000" d="M776.1567,-399.9928C773.3273,-400.836 770.5173,-401.6422 767.7479,-402.4 686.4522,-424.6464 590.1369,-441.6127 530.9917,-450.9898"/>
<polygon fill="#000000" stroke="#000000" points="530.0882,-447.5886 520.7515,-452.5963 531.1732,-454.504 530.0882,-447.5886"/>
</g>
<!-- GO:0005504 -->
<g id="node16" class="node">
<title>GO:0005504</title>
<polygon fill="#ffffff" stroke="#000000" points="504.0056,-41.4019 389.4902,-41.4019 389.4902,-.1981 504.0056,-.1981 504.0056,-41.4019"/>
<text text-anchor="middle" x="446.7479" y="-25" font-family="Times,serif" font-size="14.00" fill="#000000">GO:0005504</text>
<text text-anchor="middle" x="446.7479" y="-8.2" font-family="Times,serif" font-size="14.00" fill="#000000">fatty acid binding</text>
</g>
<!-- GO:0033293 -->
<g id="node17" class="node">
<title>GO:0033293</title>
<polygon fill="#ffffff" stroke="#000000" points="449.5441,-136.2014 315.9517,-136.2014 315.9517,-77.3986 449.5441,-77.3986 449.5441,-136.2014"/>
<text text-anchor="middle" x="382.7479" y="-119.4" font-family="Times,serif" font-size="14.00" fill="#000000">GO:0033293</text>
<text text-anchor="middle" x="382.7479" y="-102.6" font-family="Times,serif" font-size="14.00" fill="#000000">monocarboxylic acid</text>
<text text-anchor="middle" x="382.7479" y="-85.8" font-family="Times,serif" font-size="14.00" fill="#000000">binding</text>
</g>
<!-- GO:0005504&#45;&gt;GO:0033293 -->
<g id="edge17" class="edge">
<title>GO:0005504&#45;&gt;GO:0033293</title>
<path fill="none" stroke="#000000" d="M431.2553,-41.6182C425.075,-49.923 417.7634,-59.748 410.7168,-69.2168"/>
<polygon fill="#000000" stroke="#000000" points="407.7899,-67.2872 404.6276,-77.3991 413.4056,-71.4663 407.7899,-67.2872"/>
</g>
<!-- GO:0008289 -->
<g id="node18" class="node">
<title>GO:0008289</title>
<polygon fill="#ffffff" stroke="#000000" points="586.3518,-127.4019 497.144,-127.4019 497.144,-86.1981 586.3518,-86.1981 586.3518,-127.4019"/>
<text text-anchor="middle" x="541.7479" y="-111" font-family="Times,serif" font-size="14.00" fill="#000000">GO:0008289</text>
<text text-anchor="middle" x="541.7479" y="-94.2" font-family="Times,serif" font-size="14.00" fill="#000000">lipid binding</text>
</g>
<!-- GO:0005504&#45;&gt;GO:0008289 -->
<g id="edge18" class="edge">
<title>GO:0005504&#45;&gt;GO:0008289</title>
<path fill="none" stroke="#000000" d="M469.7448,-41.6182C482.2306,-52.9212 497.827,-67.0401 511.3088,-79.2446"/>
<polygon fill="#000000" stroke="#000000" points="509.2004,-82.057 518.9628,-86.1735 513.8982,-76.8676 509.2004,-82.057"/>
</g>
<!-- GO:0031406 -->
<g id="node19" class="node">
<title>GO:0031406</title>
<polygon fill="#ffffff" stroke="#000000" points="396.9346,-221.8019 248.5612,-221.8019 248.5612,-180.5981 396.9346,-180.5981 396.9346,-221.8019"/>
<text text-anchor="middle" x="322.7479" y="-205.4" font-family="Times,serif" font-size="14.00" fill="#000000">GO:0031406</text>
<text text-anchor="middle" x="322.7479" y="-188.6" font-family="Times,serif" font-size="14.00" fill="#000000">carboxylic acid binding</text>
</g>
<!-- GO:0033293&#45;&gt;GO:0031406 -->
<g id="edge19" class="edge">
<title>GO:0033293&#45;&gt;GO:0031406</title>
<path fill="none" stroke="#000000" d="M364.0924,-136.1513C356.872,-147.5113 348.6235,-160.4891 341.4031,-171.8491"/>
<polygon fill="#000000" stroke="#000000" points="338.2826,-170.234 335.8723,-180.551 344.1903,-173.9889 338.2826,-170.234"/>
</g>
<!-- GO:0008289&#45;&gt;GO:0005488 -->
<g id="edge20" class="edge">
<title>GO:0008289&#45;&gt;GO:0005488</title>
<path fill="none" stroke="#000000" d="M546.7814,-127.6753C554.8435,-164.5687 568.3366,-243.493 553.7479,-308 543.4148,-353.6901 515.949,-400.7984 496.5439,-430.0324"/>
<polygon fill="#000000" stroke="#000000" points="493.5132,-428.266 490.8083,-438.5098 499.3109,-432.1886 493.5132,-428.266"/>
</g>
<!-- GO:0031406&#45;&gt;GO:0043168 -->
<g id="edge21" class="edge">
<title>GO:0031406&#45;&gt;GO:0043168</title>
<path fill="none" stroke="#000000" d="M334.6094,-222.0182C340.6884,-232.6874 348.1968,-245.8655 354.8681,-257.5743"/>
<polygon fill="#000000" stroke="#000000" points="352.004,-259.6176 359.9956,-266.5735 358.0861,-256.1522 352.004,-259.6176"/>
</g>
</g>
</svg>
