<?xml version="1.0" encoding="UTF-8" standalone="no"?>
<!DOCTYPE svg PUBLIC "-//W3C//DTD SVG 1.1//EN"
 "http://www.w3.org/Graphics/SVG/1.1/DTD/svg11.dtd">
<!-- Generated by graphviz version 2.40.1 (20161225.0304)
 -->
<!-- Title: G Pages: 1 -->
<svg width="895pt" height="721pt"
 viewBox="0.00 0.00 894.67 720.80" xmlns="http://www.w3.org/2000/svg" xmlns:xlink="http://www.w3.org/1999/xlink">
<g id="graph0" class="graph" transform="scale(1 1) rotate(0) translate(4 716.8)">
<title>G</title>
<polygon fill="#ffffff" stroke="transparent" points="-4,4 -4,-716.8 890.6733,-716.8 890.6733,4 -4,4"/>
<!-- GO:0005737 -->
<g id="node1" class="node">
<title>GO:0005737</title>
<polygon fill="#ffffff" stroke="#000000" points="488.8378,-463.0019 399.63,-463.0019 399.63,-421.7981 488.8378,-421.7981 488.8378,-463.0019"/>
<text text-anchor="middle" x="444.2339" y="-446.6" font-family="Times,serif" font-size="14.00" fill="#000000">GO:0005737</text>
<text text-anchor="middle" x="444.2339" y="-429.8" font-family="Times,serif" font-size="14.00" fill="#000000">cytoplasm</text>
</g>
<!-- GO:0044424 -->
<g id="node2" class="node">
<title>GO:0044424</title>
<polygon fill="#ffffff" stroke="#000000" points="586.6323,-549.0019 477.8355,-549.0019 477.8355,-507.7981 586.6323,-507.7981 586.6323,-549.0019"/>
<text text-anchor="middle" x="532.2339" y="-532.6" font-family="Times,serif" font-size="14.00" fill="#000000">GO:0044424</text>
<text text-anchor="middle" x="532.2339" y="-515.8" font-family="Times,serif" font-size="14.00" fill="#000000">intracellular part</text>
</g>
<!-- GO:0005737&#45;&gt;GO:0044424 -->
<g id="edge1" class="edge">
<title>GO:0005737&#45;&gt;GO:0044424</title>
<path fill="none" stroke="#000000" d="M465.5362,-463.2182C476.994,-474.4156 491.2795,-488.3764 503.687,-500.5019"/>
<polygon fill="#000000" stroke="#000000" points="501.5296,-503.2873 511.1277,-507.7735 506.4221,-498.281 501.5296,-503.2873"/>
</g>
<!-- GO:0044464 -->
<g id="node3" class="node">
<title>GO:0044464</title>
<polygon fill="#ffffff" stroke="#000000" points="558.8378,-635.0019 469.63,-635.0019 469.63,-593.7981 558.8378,-593.7981 558.8378,-635.0019"/>
<text text-anchor="middle" x="514.2339" y="-618.6" font-family="Times,serif" font-size="14.00" fill="#000000">GO:0044464</text>
<text text-anchor="middle" x="514.2339" y="-601.8" font-family="Times,serif" font-size="14.00" fill="#000000">cell part</text>
</g>
<!-- GO:0044424&#45;&gt;GO:0044464 -->
<g id="edge2" class="edge">
<title>GO:0044424&#45;&gt;GO:0044464</title>
<path fill="none" stroke="#000000" d="M527.8766,-549.2182C525.7098,-559.5705 523.0487,-572.2848 520.6538,-583.7271"/>
<polygon fill="#000000" stroke="#000000" points="517.174,-583.2686 518.5511,-593.7735 524.0255,-584.7027 517.174,-583.2686"/>
</g>
<!-- GO:0005575 -->
<g id="node4" class="node">
<title>GO:0005575</title>
<polygon fill="#ffffff" stroke="#000000" points="464.9206,-712.6019 337.5472,-712.6019 337.5472,-671.3981 464.9206,-671.3981 464.9206,-712.6019"/>
<text text-anchor="middle" x="401.2339" y="-696.2" font-family="Times,serif" font-size="14.00" fill="#000000">GO:0005575</text>
<text text-anchor="middle" x="401.2339" y="-679.4" font-family="Times,serif" font-size="14.00" fill="#000000">cellular_component</text>
</g>
<!-- GO:0044464&#45;&gt;GO:0005575 -->
<g id="edge3" class="edge">
<title>GO:0044464&#45;&gt;GO:0005575</title>
<path fill="none" stroke="#000000" d="M483.952,-635.1954C470.3989,-644.5026 454.2597,-655.5858 439.8507,-665.4809"/>
<polygon fill="#000000" stroke="#000000" points="437.8615,-662.601 431.5994,-671.1472 441.8242,-668.3714 437.8615,-662.601"/>
</g>
<!-- GO:0042470 -->
<g id="node5" class="node">
<title>GO:0042470</title>
<polygon fill="#ffffff" stroke="#000000" points="742.8378,-41.4019 653.63,-41.4019 653.63,-.1981 742.8378,-.1981 742.8378,-41.4019"/>
<text text-anchor="middle" x="698.2339" y="-25" font-family="Times,serif" font-size="14.00" fill="#000000">GO:0042470</text>
<text text-anchor="middle" x="698.2339" y="-8.2" font-family="Times,serif" font-size="14.00" fill="#000000">melanosome</text>
</g>
<!-- GO:0048770 -->
<g id="node6" class="node">
<title>GO:0048770</title>
<polygon fill="#ffffff" stroke="#000000" points="752.1013,-119.0019 644.3665,-119.0019 644.3665,-77.7981 752.1013,-77.7981 752.1013,-119.0019"/>
<text text-anchor="middle" x="698.2339" y="-102.6" font-family="Times,serif" font-size="14.00" fill="#000000">GO:0048770</text>
<text text-anchor="middle" x="698.2339" y="-85.8" font-family="Times,serif" font-size="14.00" fill="#000000">pigment granule</text>
</g>
<!-- GO:0042470&#45;&gt;GO:0048770 -->
<g id="edge4" class="edge">
<title>GO:0042470&#45;&gt;GO:0048770</title>
<path fill="none" stroke="#000000" d="M698.2339,-41.5954C698.2339,-49.5109 698.2339,-58.7109 698.2339,-67.3722"/>
<polygon fill="#000000" stroke="#000000" points="694.734,-67.5472 698.2339,-77.5472 701.734,-67.5473 694.734,-67.5472"/>
</g>
<!-- GO:0016023 -->
<g id="node7" class="node">
<title>GO:0016023</title>
<polygon fill="#ffffff" stroke="#000000" points="775.6314,-213.8014 620.8364,-213.8014 620.8364,-154.9986 775.6314,-154.9986 775.6314,-213.8014"/>
<text text-anchor="middle" x="698.2339" y="-197" font-family="Times,serif" font-size="14.00" fill="#000000">GO:0016023</text>
<text text-anchor="middle" x="698.2339" y="-180.2" font-family="Times,serif" font-size="14.00" fill="#000000">cytoplasmic, membrane&#45;</text>
<text text-anchor="middle" x="698.2339" y="-163.4" font-family="Times,serif" font-size="14.00" fill="#000000">bounded vesicle</text>
</g>
<!-- GO:0048770&#45;&gt;GO:0016023 -->
<g id="edge5" class="edge">
<title>GO:0048770&#45;&gt;GO:0016023</title>
<path fill="none" stroke="#000000" d="M698.2339,-119.2182C698.2339,-126.9358 698.2339,-135.9662 698.2339,-144.8036"/>
<polygon fill="#000000" stroke="#000000" points="694.734,-144.9991 698.2339,-154.9991 701.734,-144.9992 694.734,-144.9991"/>
</g>
<!-- GO:0031410 -->
<g id="node8" class="node">
<title>GO:0031410</title>
<polygon fill="#ffffff" stroke="#000000" points="595.2543,-291.0019 469.2135,-291.0019 469.2135,-249.7981 595.2543,-249.7981 595.2543,-291.0019"/>
<text text-anchor="middle" x="532.2339" y="-274.6" font-family="Times,serif" font-size="14.00" fill="#000000">GO:0031410</text>
<text text-anchor="middle" x="532.2339" y="-257.8" font-family="Times,serif" font-size="14.00" fill="#000000">cytoplasmic vesicle</text>
</g>
<!-- GO:0016023&#45;&gt;GO:0031410 -->
<g id="edge6" class="edge">
<title>GO:0016023&#45;&gt;GO:0031410</title>
<path fill="none" stroke="#000000" d="M641.5704,-213.7558C621.9565,-223.9172 600.1536,-235.2127 581.2102,-245.0267"/>
<polygon fill="#000000" stroke="#000000" points="579.4317,-242.0063 572.1625,-249.7141 582.6517,-248.2217 579.4317,-242.0063"/>
</g>
<!-- GO:0043231 -->
<g id="node9" class="node">
<title>GO:0043231</title>
<polygon fill="#ffffff" stroke="#000000" points="886.6127,-385.8014 735.8551,-385.8014 735.8551,-326.9986 886.6127,-326.9986 886.6127,-385.8014"/>
<text text-anchor="middle" x="811.2339" y="-369" font-family="Times,serif" font-size="14.00" fill="#000000">GO:0043231</text>
<text text-anchor="middle" x="811.2339" y="-352.2" font-family="Times,serif" font-size="14.00" fill="#000000">intracellular membrane&#45;</text>
<text text-anchor="middle" x="811.2339" y="-335.4" font-family="Times,serif" font-size="14.00" fill="#000000">bounded organelle</text>
</g>
<!-- GO:0016023&#45;&gt;GO:0043231 -->
<g id="edge7" class="edge">
<title>GO:0016023&#45;&gt;GO:0043231</title>
<path fill="none" stroke="#000000" d="M755.8284,-213.7876C769.6965,-223.4273 783.1209,-235.3892 792.2339,-249.6 804.9893,-269.4908 809.8055,-295.5386 811.4008,-316.9301"/>
<polygon fill="#000000" stroke="#000000" points="807.9109,-317.2136 811.9458,-327.01 814.9007,-316.8356 807.9109,-317.2136"/>
</g>
<!-- GO:0031988 -->
<g id="node10" class="node">
<title>GO:0031988</title>
<polygon fill="#ffffff" stroke="#000000" points="783.5646,-291.0019 612.9032,-291.0019 612.9032,-249.7981 783.5646,-249.7981 783.5646,-291.0019"/>
<text text-anchor="middle" x="698.2339" y="-274.6" font-family="Times,serif" font-size="14.00" fill="#000000">GO:0031988</text>
<text text-anchor="middle" x="698.2339" y="-257.8" font-family="Times,serif" font-size="14.00" fill="#000000">membrane&#45;bounded vesicle</text>
</g>
<!-- GO:0016023&#45;&gt;GO:0031988 -->
<g id="edge8" class="edge">
<title>GO:0016023&#45;&gt;GO:0031988</title>
<path fill="none" stroke="#000000" d="M698.2339,-213.9963C698.2339,-222.2638 698.2339,-231.2657 698.2339,-239.6008"/>
<polygon fill="#000000" stroke="#000000" points="694.734,-239.6965 698.2339,-249.6966 701.734,-239.6966 694.734,-239.6965"/>
</g>
<!-- GO:0044444 -->
<g id="node11" class="node">
<title>GO:0044444</title>
<polygon fill="#ffffff" stroke="#000000" points="526.6505,-377.0019 417.8173,-377.0019 417.8173,-335.7981 526.6505,-335.7981 526.6505,-377.0019"/>
<text text-anchor="middle" x="472.2339" y="-360.6" font-family="Times,serif" font-size="14.00" fill="#000000">GO:0044444</text>
<text text-anchor="middle" x="472.2339" y="-343.8" font-family="Times,serif" font-size="14.00" fill="#000000">cytoplasmic part</text>
</g>
<!-- GO:0031410&#45;&gt;GO:0044444 -->
<g id="edge9" class="edge">
<title>GO:0031410&#45;&gt;GO:0044444</title>
<path fill="none" stroke="#000000" d="M517.7096,-291.2182C510.1186,-302.0987 500.7071,-315.5884 492.4189,-327.4681"/>
<polygon fill="#000000" stroke="#000000" points="489.4759,-325.5696 486.6245,-335.7735 495.2168,-329.5749 489.4759,-325.5696"/>
</g>
<!-- GO:0097708 -->
<g id="node12" class="node">
<title>GO:0097708</title>
<polygon fill="#ffffff" stroke="#000000" points="670.2361,-377.0019 544.2317,-377.0019 544.2317,-335.7981 670.2361,-335.7981 670.2361,-377.0019"/>
<text text-anchor="middle" x="607.2339" y="-360.6" font-family="Times,serif" font-size="14.00" fill="#000000">GO:0097708</text>
<text text-anchor="middle" x="607.2339" y="-343.8" font-family="Times,serif" font-size="14.00" fill="#000000">intracellular vesicle</text>
</g>
<!-- GO:0031410&#45;&gt;GO:0097708 -->
<g id="edge10" class="edge">
<title>GO:0031410&#45;&gt;GO:0097708</title>
<path fill="none" stroke="#000000" d="M550.3893,-291.2182C560.0623,-302.3099 572.1001,-316.1132 582.6045,-328.1583"/>
<polygon fill="#000000" stroke="#000000" points="580.0352,-330.5373 589.2457,-335.7735 585.3108,-325.9364 580.0352,-330.5373"/>
</g>
<!-- GO:0043229 -->
<g id="node13" class="node">
<title>GO:0043229</title>
<polygon fill="#ffffff" stroke="#000000" points="829.9523,-463.0019 690.5155,-463.0019 690.5155,-421.7981 829.9523,-421.7981 829.9523,-463.0019"/>
<text text-anchor="middle" x="760.2339" y="-446.6" font-family="Times,serif" font-size="14.00" fill="#000000">GO:0043229</text>
<text text-anchor="middle" x="760.2339" y="-429.8" font-family="Times,serif" font-size="14.00" fill="#000000">intracellular organelle</text>
</g>
<!-- GO:0043231&#45;&gt;GO:0043229 -->
<g id="edge11" class="edge">
<title>GO:0043231&#45;&gt;GO:0043229</title>
<path fill="none" stroke="#000000" d="M793.6826,-385.9963C788.5074,-394.7231 782.8469,-404.2682 777.6785,-412.9836"/>
<polygon fill="#000000" stroke="#000000" points="774.6019,-411.31 772.5115,-421.6966 780.6228,-414.8805 774.6019,-411.31"/>
</g>
<!-- GO:0043227 -->
<g id="node14" class="node">
<title>GO:0043227</title>
<polygon fill="#ffffff" stroke="#000000" points="732.1947,-557.8014 604.2731,-557.8014 604.2731,-498.9986 732.1947,-498.9986 732.1947,-557.8014"/>
<text text-anchor="middle" x="668.2339" y="-541" font-family="Times,serif" font-size="14.00" fill="#000000">GO:0043227</text>
<text text-anchor="middle" x="668.2339" y="-524.2" font-family="Times,serif" font-size="14.00" fill="#000000">membrane&#45;bounded</text>
<text text-anchor="middle" x="668.2339" y="-507.4" font-family="Times,serif" font-size="14.00" fill="#000000">organelle</text>
</g>
<!-- GO:0043231&#45;&gt;GO:0043227 -->
<g id="edge12" class="edge">
<title>GO:0043231&#45;&gt;GO:0043227</title>
<path fill="none" stroke="#000000" d="M831.0945,-385.8452C843.7712,-408.6575 855.1111,-440.1541 839.2339,-463.2 827.4274,-480.3372 782.9279,-497.0084 742.2856,-509.203"/>
<polygon fill="#000000" stroke="#000000" points="741.2119,-505.8705 732.6041,-512.0476 743.1852,-512.5866 741.2119,-505.8705"/>
</g>
<!-- GO:0031982 -->
<g id="node15" class="node">
<title>GO:0031982</title>
<polygon fill="#ffffff" stroke="#000000" points="672.8378,-463.0019 583.63,-463.0019 583.63,-421.7981 672.8378,-421.7981 672.8378,-463.0019"/>
<text text-anchor="middle" x="628.2339" y="-446.6" font-family="Times,serif" font-size="14.00" fill="#000000">GO:0031982</text>
<text text-anchor="middle" x="628.2339" y="-429.8" font-family="Times,serif" font-size="14.00" fill="#000000">vesicle</text>
</g>
<!-- GO:0031988&#45;&gt;GO:0031982 -->
<g id="edge13" class="edge">
<title>GO:0031988&#45;&gt;GO:0031982</title>
<path fill="none" stroke="#000000" d="M698.2532,-291.4243C697.5054,-315.3574 693.8834,-355.0828 679.2339,-385.6 674.272,-395.9365 666.839,-405.7737 659.172,-414.2686"/>
<polygon fill="#000000" stroke="#000000" points="656.4881,-412.0118 652.1292,-421.6684 661.5586,-416.8377 656.4881,-412.0118"/>
</g>
<!-- GO:0044444&#45;&gt;GO:0044424 -->
<g id="edge14" class="edge">
<title>GO:0044444&#45;&gt;GO:0044424</title>
<path fill="none" stroke="#000000" d="M480.9279,-377.1041C486.1704,-389.8496 492.8525,-406.5703 498.2339,-421.6 507.3658,-447.1044 516.6207,-476.4545 523.1641,-497.9247"/>
<polygon fill="#000000" stroke="#000000" points="519.9,-499.2224 526.1461,-507.7803 526.6,-497.1952 519.9,-499.2224"/>
</g>
<!-- GO:0097708&#45;&gt;GO:0044424 -->
<g id="edge15" class="edge">
<title>GO:0097708&#45;&gt;GO:0044424</title>
<path fill="none" stroke="#000000" d="M596.1785,-377.0078C589.517,-389.7182 581.0352,-406.4358 574.2339,-421.6 562.8311,-447.0239 551.3525,-476.5431 543.2839,-498.0956"/>
<polygon fill="#000000" stroke="#000000" points="539.9219,-497.0953 539.7209,-507.6882 546.4839,-499.5327 539.9219,-497.0953"/>
</g>
<!-- GO:0097708&#45;&gt;GO:0031982 -->
<g id="edge16" class="edge">
<title>GO:0097708&#45;&gt;GO:0031982</title>
<path fill="none" stroke="#000000" d="M612.3174,-377.2182C614.8453,-387.5705 617.95,-400.2848 620.744,-411.7271"/>
<polygon fill="#000000" stroke="#000000" points="617.4249,-412.8892 623.1972,-421.7735 624.2251,-411.2287 617.4249,-412.8892"/>
</g>
<!-- GO:0043229&#45;&gt;GO:0044424 -->
<g id="edge17" class="edge">
<title>GO:0043229&#45;&gt;GO:0044424</title>
<path fill="none" stroke="#000000" d="M695.4153,-463.0054C664.768,-473.1813 627.8336,-486.0742 595.2339,-499.2 591.7882,-500.5874 588.2593,-502.0638 584.7171,-503.5877"/>
<polygon fill="#000000" stroke="#000000" points="583.1025,-500.4742 575.3578,-507.704 585.9207,-506.8818 583.1025,-500.4742"/>
</g>
<!-- GO:0043226 -->
<g id="node16" class="node">
<title>GO:0043226</title>
<polygon fill="#ffffff" stroke="#000000" points="712.8378,-635.0019 623.63,-635.0019 623.63,-593.7981 712.8378,-593.7981 712.8378,-635.0019"/>
<text text-anchor="middle" x="668.2339" y="-618.6" font-family="Times,serif" font-size="14.00" fill="#000000">GO:0043226</text>
<text text-anchor="middle" x="668.2339" y="-601.8" font-family="Times,serif" font-size="14.00" fill="#000000">organelle</text>
</g>
<!-- GO:0043229&#45;&gt;GO:0043226 -->
<g id="edge18" class="edge">
<title>GO:0043229&#45;&gt;GO:0043226</title>
<path fill="none" stroke="#000000" d="M761.2091,-463.0699C761.4155,-487.3828 758.7439,-528.1565 741.2339,-557.6 734.3662,-569.1483 724.1894,-579.2154 713.6004,-587.5358"/>
<polygon fill="#000000" stroke="#000000" points="711.4258,-584.7909 705.4706,-593.5536 715.5905,-590.4172 711.4258,-584.7909"/>
</g>
<!-- GO:0043227&#45;&gt;GO:0043226 -->
<g id="edge19" class="edge">
<title>GO:0043227&#45;&gt;GO:0043226</title>
<path fill="none" stroke="#000000" d="M668.2339,-557.9963C668.2339,-566.2638 668.2339,-575.2657 668.2339,-583.6008"/>
<polygon fill="#000000" stroke="#000000" points="664.734,-583.6965 668.2339,-593.6966 671.734,-583.6966 664.734,-583.6965"/>
</g>
<!-- GO:0031982&#45;&gt;GO:0043227 -->
<g id="edge20" class="edge">
<title>GO:0031982&#45;&gt;GO:0043227</title>
<path fill="none" stroke="#000000" d="M637.9168,-463.2182C641.6234,-471.1875 645.9811,-480.5565 650.2188,-489.6675"/>
<polygon fill="#000000" stroke="#000000" points="647.1682,-491.408 654.5591,-498.9991 653.5152,-488.4558 647.1682,-491.408"/>
</g>
<!-- GO:0043226&#45;&gt;GO:0005575 -->
<g id="edge21" class="edge">
<title>GO:0043226&#45;&gt;GO:0005575</title>
<path fill="none" stroke="#000000" d="M623.5441,-627.3885C582.9201,-639.1953 522.2163,-656.8381 474.5013,-670.7058"/>
<polygon fill="#000000" stroke="#000000" points="473.4611,-667.3632 464.8353,-673.5151 475.4147,-674.0851 473.4611,-667.3632"/>
</g>
<!-- GO:0016324 -->
<g id="node17" class="node">
<title>GO:0016324</title>
<polygon fill="#ffffff" stroke="#000000" points="372.8996,-377.0019 217.5682,-377.0019 217.5682,-335.7981 372.8996,-335.7981 372.8996,-377.0019"/>
<text text-anchor="middle" x="295.2339" y="-360.6" font-family="Times,serif" font-size="14.00" fill="#000000">GO:0016324</text>
<text text-anchor="middle" x="295.2339" y="-343.8" font-family="Times,serif" font-size="14.00" fill="#000000">apical plasma membrane</text>
</g>
<!-- GO:0098590 -->
<g id="node18" class="node">
<title>GO:0098590</title>
<polygon fill="#ffffff" stroke="#000000" points="373.7411,-463.0019 216.7267,-463.0019 216.7267,-421.7981 373.7411,-421.7981 373.7411,-463.0019"/>
<text text-anchor="middle" x="295.2339" y="-446.6" font-family="Times,serif" font-size="14.00" fill="#000000">GO:0098590</text>
<text text-anchor="middle" x="295.2339" y="-429.8" font-family="Times,serif" font-size="14.00" fill="#000000">plasma membrane region</text>
</g>
<!-- GO:0016324&#45;&gt;GO:0098590 -->
<g id="edge22" class="edge">
<title>GO:0016324&#45;&gt;GO:0098590</title>
<path fill="none" stroke="#000000" d="M295.2339,-377.2182C295.2339,-387.5705 295.2339,-400.2848 295.2339,-411.7271"/>
<polygon fill="#000000" stroke="#000000" points="291.734,-411.7735 295.2339,-421.7735 298.734,-411.7735 291.734,-411.7735"/>
</g>
<!-- GO:0016020 -->
<g id="node19" class="node">
<title>GO:0016020</title>
<polygon fill="#ffffff" stroke="#000000" points="332.8378,-635.0019 243.63,-635.0019 243.63,-593.7981 332.8378,-593.7981 332.8378,-635.0019"/>
<text text-anchor="middle" x="288.2339" y="-618.6" font-family="Times,serif" font-size="14.00" fill="#000000">GO:0016020</text>
<text text-anchor="middle" x="288.2339" y="-601.8" font-family="Times,serif" font-size="14.00" fill="#000000">membrane</text>
</g>
<!-- GO:0098590&#45;&gt;GO:0016020 -->
<g id="edge23" class="edge">
<title>GO:0098590&#45;&gt;GO:0016020</title>
<path fill="none" stroke="#000000" d="M294.3895,-463.1472C293.1702,-493.1071 290.9078,-548.6979 289.4915,-583.498"/>
<polygon fill="#000000" stroke="#000000" points="285.9909,-583.4451 289.0813,-593.5792 292.9851,-583.7298 285.9909,-583.4451"/>
</g>
<!-- GO:0044459 -->
<g id="node20" class="node">
<title>GO:0044459</title>
<polygon fill="#ffffff" stroke="#000000" points="459.7411,-549.0019 316.7267,-549.0019 316.7267,-507.7981 459.7411,-507.7981 459.7411,-549.0019"/>
<text text-anchor="middle" x="388.2339" y="-532.6" font-family="Times,serif" font-size="14.00" fill="#000000">GO:0044459</text>
<text text-anchor="middle" x="388.2339" y="-515.8" font-family="Times,serif" font-size="14.00" fill="#000000">plasma membrane part</text>
</g>
<!-- GO:0098590&#45;&gt;GO:0044459 -->
<g id="edge24" class="edge">
<title>GO:0098590&#45;&gt;GO:0044459</title>
<path fill="none" stroke="#000000" d="M317.7466,-463.2182C329.9696,-474.5212 345.2377,-488.6401 358.4356,-500.8446"/>
<polygon fill="#000000" stroke="#000000" points="356.2102,-503.5538 365.9285,-507.7735 360.9628,-498.4144 356.2102,-503.5538"/>
</g>
<!-- GO:0016020&#45;&gt;GO:0005575 -->
<g id="edge25" class="edge">
<title>GO:0016020&#45;&gt;GO:0005575</title>
<path fill="none" stroke="#000000" d="M318.5158,-635.1954C332.0689,-644.5026 348.2081,-655.5858 362.6171,-665.4809"/>
<polygon fill="#000000" stroke="#000000" points="360.6436,-668.3714 370.8684,-671.1472 364.6063,-662.601 360.6436,-668.3714"/>
</g>
<!-- GO:0044459&#45;&gt;GO:0044464 -->
<g id="edge27" class="edge">
<title>GO:0044459&#45;&gt;GO:0044464</title>
<path fill="none" stroke="#000000" d="M418.735,-549.2182C435.7595,-560.8381 457.1441,-575.434 475.3593,-587.8665"/>
<polygon fill="#000000" stroke="#000000" points="473.7811,-591.0269 484.0137,-593.7735 477.7273,-585.2452 473.7811,-591.0269"/>
</g>
<!-- GO:0044425 -->
<g id="node21" class="node">
<title>GO:0044425</title>
<polygon fill="#ffffff" stroke="#000000" points="451.5859,-635.0019 350.8819,-635.0019 350.8819,-593.7981 451.5859,-593.7981 451.5859,-635.0019"/>
<text text-anchor="middle" x="401.2339" y="-618.6" font-family="Times,serif" font-size="14.00" fill="#000000">GO:0044425</text>
<text text-anchor="middle" x="401.2339" y="-601.8" font-family="Times,serif" font-size="14.00" fill="#000000">membrane part</text>
</g>
<!-- GO:0044459&#45;&gt;GO:0044425 -->
<g id="edge26" class="edge">
<title>GO:0044459&#45;&gt;GO:0044425</title>
<path fill="none" stroke="#000000" d="M391.3808,-549.2182C392.9457,-559.5705 394.8677,-572.2848 396.5973,-583.7271"/>
<polygon fill="#000000" stroke="#000000" points="393.1605,-584.409 398.1159,-593.7735 400.0819,-583.3627 393.1605,-584.409"/>
</g>
<!-- GO:0005913 -->
<g id="node22" class="node">
<title>GO:0005913</title>
<polygon fill="#ffffff" stroke="#000000" points="155.5648,-385.8014 40.903,-385.8014 40.903,-326.9986 155.5648,-326.9986 155.5648,-385.8014"/>
<text text-anchor="middle" x="98.2339" y="-369" font-family="Times,serif" font-size="14.00" fill="#000000">GO:0005913</text>
<text text-anchor="middle" x="98.2339" y="-352.2" font-family="Times,serif" font-size="14.00" fill="#000000">cell&#45;cell adherens</text>
<text text-anchor="middle" x="98.2339" y="-335.4" font-family="Times,serif" font-size="14.00" fill="#000000">junction</text>
</g>
<!-- GO:0005912 -->
<g id="node23" class="node">
<title>GO:0005912</title>
<polygon fill="#ffffff" stroke="#000000" points="198.8694,-463.0019 83.5984,-463.0019 83.5984,-421.7981 198.8694,-421.7981 198.8694,-463.0019"/>
<text text-anchor="middle" x="141.2339" y="-446.6" font-family="Times,serif" font-size="14.00" fill="#000000">GO:0005912</text>
<text text-anchor="middle" x="141.2339" y="-429.8" font-family="Times,serif" font-size="14.00" fill="#000000">adherens junction</text>
</g>
<!-- GO:0005913&#45;&gt;GO:0005912 -->
<g id="edge28" class="edge">
<title>GO:0005913&#45;&gt;GO:0005912</title>
<path fill="none" stroke="#000000" d="M113.0321,-385.9963C117.3495,-394.6312 122.0676,-404.0673 126.388,-412.7081"/>
<polygon fill="#000000" stroke="#000000" points="123.2795,-414.3175 130.8822,-421.6966 129.5405,-411.187 123.2795,-414.3175"/>
</g>
<!-- GO:0005911 -->
<g id="node24" class="node">
<title>GO:0005911</title>
<polygon fill="#ffffff" stroke="#000000" points="110.7027,-549.0019 -.2349,-549.0019 -.2349,-507.7981 110.7027,-507.7981 110.7027,-549.0019"/>
<text text-anchor="middle" x="55.2339" y="-532.6" font-family="Times,serif" font-size="14.00" fill="#000000">GO:0005911</text>
<text text-anchor="middle" x="55.2339" y="-515.8" font-family="Times,serif" font-size="14.00" fill="#000000">cell&#45;cell junction</text>
</g>
<!-- GO:0005913&#45;&gt;GO:0005911 -->
<g id="edge29" class="edge">
<title>GO:0005913&#45;&gt;GO:0005911</title>
<path fill="none" stroke="#000000" d="M86.1182,-385.9035C81.912,-396.9614 77.4489,-409.7243 74.2339,-421.6 67.4137,-446.7927 62.4096,-476.0082 59.254,-497.5079"/>
<polygon fill="#000000" stroke="#000000" points="55.7492,-497.2959 57.8131,-507.6877 62.6801,-498.277 55.7492,-497.2959"/>
</g>
<!-- GO:0070161 -->
<g id="node25" class="node">
<title>GO:0070161</title>
<polygon fill="#ffffff" stroke="#000000" points="250.1013,-549.0019 128.3665,-549.0019 128.3665,-507.7981 250.1013,-507.7981 250.1013,-549.0019"/>
<text text-anchor="middle" x="189.2339" y="-532.6" font-family="Times,serif" font-size="14.00" fill="#000000">GO:0070161</text>
<text text-anchor="middle" x="189.2339" y="-515.8" font-family="Times,serif" font-size="14.00" fill="#000000">anchoring junction</text>
</g>
<!-- GO:0005912&#45;&gt;GO:0070161 -->
<g id="edge30" class="edge">
<title>GO:0005912&#45;&gt;GO:0070161</title>
<path fill="none" stroke="#000000" d="M152.8534,-463.2182C158.8083,-473.8874 166.1635,-487.0655 172.6986,-498.7743"/>
<polygon fill="#000000" stroke="#000000" points="169.7915,-500.7473 177.7214,-507.7735 175.9039,-497.3357 169.7915,-500.7473"/>
</g>
<!-- GO:0030054 -->
<g id="node26" class="node">
<title>GO:0030054</title>
<polygon fill="#ffffff" stroke="#000000" points="225.8378,-635.0019 136.63,-635.0019 136.63,-593.7981 225.8378,-593.7981 225.8378,-635.0019"/>
<text text-anchor="middle" x="181.2339" y="-618.6" font-family="Times,serif" font-size="14.00" fill="#000000">GO:0030054</text>
<text text-anchor="middle" x="181.2339" y="-601.8" font-family="Times,serif" font-size="14.00" fill="#000000">cell junction</text>
</g>
<!-- GO:0005911&#45;&gt;GO:0030054 -->
<g id="edge31" class="edge">
<title>GO:0005911&#45;&gt;GO:0030054</title>
<path fill="none" stroke="#000000" d="M85.735,-549.2182C102.7595,-560.8381 124.1441,-575.434 142.3593,-587.8665"/>
<polygon fill="#000000" stroke="#000000" points="140.7811,-591.0269 151.0137,-593.7735 144.7273,-585.2452 140.7811,-591.0269"/>
</g>
<!-- GO:0070161&#45;&gt;GO:0030054 -->
<g id="edge32" class="edge">
<title>GO:0070161&#45;&gt;GO:0030054</title>
<path fill="none" stroke="#000000" d="M187.2973,-549.2182C186.3343,-559.5705 185.1516,-572.2848 184.0872,-583.7271"/>
<polygon fill="#000000" stroke="#000000" points="180.594,-583.4923 183.1526,-593.7735 187.5639,-584.1407 180.594,-583.4923"/>
</g>
<!-- GO:0030054&#45;&gt;GO:0005575 -->
<g id="edge33" class="edge">
<title>GO:0030054&#45;&gt;GO:0005575</title>
<path fill="none" stroke="#000000" d="M225.998,-632.1354C228.7799,-633.1855 231.5421,-634.2146 234.2339,-635.2 264.9801,-646.4551 299.1728,-658.2161 328.5705,-668.0974"/>
<polygon fill="#000000" stroke="#000000" points="327.7505,-671.5138 338.3444,-671.3729 329.9749,-664.8766 327.7505,-671.5138"/>
</g>
</g>
</svg>
