<?xml version="1.0" encoding="UTF-8" standalone="no"?>
<!DOCTYPE svg PUBLIC "-//W3C//DTD SVG 1.1//EN"
 "http://www.w3.org/Graphics/SVG/1.1/DTD/svg11.dtd">
<!-- Generated by graphviz version 2.40.1 (20161225.0304)
 -->
<!-- Title: G Pages: 1 -->
<svg width="1609pt" height="650pt"
 viewBox="0.00 0.00 1608.92 649.60" xmlns="http://www.w3.org/2000/svg" xmlns:xlink="http://www.w3.org/1999/xlink">
<g id="graph0" class="graph" transform="scale(1 1) rotate(0) translate(4 645.6)">
<title>G</title>
<polygon fill="#ffffff" stroke="transparent" points="-4,4 -4,-645.6 1604.9159,-645.6 1604.9159,4 -4,4"/>
<!-- GO:0044700 -->
<g id="node1" class="node">
<title>GO:0044700</title>
<polygon fill="#ffffff" stroke="#000000" points="617.0331,-444.2019 457.2881,-444.2019 457.2881,-402.9981 617.0331,-402.9981 617.0331,-444.2019"/>
<text text-anchor="middle" x="537.1606" y="-427.8" font-family="Times,serif" font-size="14.00" fill="#000000">GO:0044700</text>
<text text-anchor="middle" x="537.1606" y="-411" font-family="Times,serif" font-size="14.00" fill="#000000">single organism signaling</text>
</g>
<!-- GO:0023052 -->
<g id="node2" class="node">
<title>GO:0023052</title>
<polygon fill="#ffffff" stroke="#000000" points="583.7645,-547.0019 494.5567,-547.0019 494.5567,-505.7981 583.7645,-505.7981 583.7645,-547.0019"/>
<text text-anchor="middle" x="539.1606" y="-530.6" font-family="Times,serif" font-size="14.00" fill="#000000">GO:0023052</text>
<text text-anchor="middle" x="539.1606" y="-513.8" font-family="Times,serif" font-size="14.00" fill="#000000">signaling</text>
</g>
<!-- GO:0044700&#45;&gt;GO:0023052 -->
<g id="edge1" class="edge">
<title>GO:0044700&#45;&gt;GO:0023052</title>
<path fill="none" stroke="#000000" d="M537.5653,-444.4031C537.85,-459.0337 538.2358,-478.8642 538.5567,-495.3586"/>
<polygon fill="#000000" stroke="#000000" points="535.0625,-495.6978 538.7565,-505.6278 542.0612,-495.5616 535.0625,-495.6978"/>
</g>
<!-- GO:0044699 -->
<g id="node3" class="node">
<title>GO:0044699</title>
<polygon fill="#ffffff" stroke="#000000" points="756.8419,-547.0019 605.4793,-547.0019 605.4793,-505.7981 756.8419,-505.7981 756.8419,-547.0019"/>
<text text-anchor="middle" x="681.1606" y="-530.6" font-family="Times,serif" font-size="14.00" fill="#000000">GO:0044699</text>
<text text-anchor="middle" x="681.1606" y="-513.8" font-family="Times,serif" font-size="14.00" fill="#000000">single&#45;organism process</text>
</g>
<!-- GO:0044700&#45;&gt;GO:0044699 -->
<g id="edge2" class="edge">
<title>GO:0044700&#45;&gt;GO:0044699</title>
<path fill="none" stroke="#000000" d="M566.3011,-444.4031C588.6495,-460.3574 619.6597,-482.4952 643.8262,-499.7474"/>
<polygon fill="#000000" stroke="#000000" points="641.8909,-502.6661 652.0634,-505.6278 645.9581,-496.9689 641.8909,-502.6661"/>
</g>
<!-- GO:0008150 -->
<g id="node4" class="node">
<title>GO:0008150</title>
<polygon fill="#ffffff" stroke="#000000" points="814.6312,-641.4019 693.69,-641.4019 693.69,-600.1981 814.6312,-600.1981 814.6312,-641.4019"/>
<text text-anchor="middle" x="754.1606" y="-625" font-family="Times,serif" font-size="14.00" fill="#000000">GO:0008150</text>
<text text-anchor="middle" x="754.1606" y="-608.2" font-family="Times,serif" font-size="14.00" fill="#000000">biological_process</text>
</g>
<!-- GO:0023052&#45;&gt;GO:0008150 -->
<g id="edge3" class="edge">
<title>GO:0023052&#45;&gt;GO:0008150</title>
<path fill="none" stroke="#000000" d="M567.6514,-547.1062C576.5229,-553.024 586.5138,-559.1709 596.1606,-564 623.9074,-577.8897 655.8978,-590.0492 683.8052,-599.5158"/>
<polygon fill="#000000" stroke="#000000" points="682.8987,-602.903 693.4924,-602.7504 685.1157,-596.2633 682.8987,-602.903"/>
</g>
<!-- GO:0044699&#45;&gt;GO:0008150 -->
<g id="edge4" class="edge">
<title>GO:0044699&#45;&gt;GO:0008150</title>
<path fill="none" stroke="#000000" d="M697.3617,-547.3504C707.4743,-560.4276 720.6351,-577.4464 731.7415,-591.8087"/>
<polygon fill="#000000" stroke="#000000" points="729.1187,-594.1386 738.0048,-599.9081 734.6562,-589.8564 729.1187,-594.1386"/>
</g>
<!-- GO:0051716 -->
<g id="node5" class="node">
<title>GO:0051716</title>
<polygon fill="#ff00ff" stroke="#000000" points="127.5065,-453.0014 2.8147,-453.0014 2.8147,-394.1986 127.5065,-394.1986 127.5065,-453.0014"/>
<text text-anchor="middle" x="65.1606" y="-436.2" font-family="Times,serif" font-size="14.00" fill="#000000">GO:0051716</text>
<text text-anchor="middle" x="65.1606" y="-419.4" font-family="Times,serif" font-size="14.00" fill="#000000">cellular response to</text>
<text text-anchor="middle" x="65.1606" y="-402.6" font-family="Times,serif" font-size="14.00" fill="#000000">stimulus</text>
</g>
<!-- GO:0050896 -->
<g id="node6" class="node">
<title>GO:0050896</title>
<polygon fill="#ffffff" stroke="#000000" points="130.4822,-547.0019 -.161,-547.0019 -.161,-505.7981 130.4822,-505.7981 130.4822,-547.0019"/>
<text text-anchor="middle" x="65.1606" y="-530.6" font-family="Times,serif" font-size="14.00" fill="#000000">GO:0050896</text>
<text text-anchor="middle" x="65.1606" y="-513.8" font-family="Times,serif" font-size="14.00" fill="#000000">response to stimulus</text>
</g>
<!-- GO:0051716&#45;&gt;GO:0050896 -->
<g id="edge5" class="edge">
<title>GO:0051716&#45;&gt;GO:0050896</title>
<path fill="none" stroke="#000000" d="M65.1606,-453.0584C65.1606,-466.3539 65.1606,-482.0608 65.1606,-495.5212"/>
<polygon fill="#000000" stroke="#000000" points="61.6607,-495.7456 65.1606,-505.7456 68.6607,-495.7457 61.6607,-495.7456"/>
</g>
<!-- GO:0009987 -->
<g id="node7" class="node">
<title>GO:0009987</title>
<polygon fill="#ffffff" stroke="#000000" points="405.1168,-547.0019 301.2044,-547.0019 301.2044,-505.7981 405.1168,-505.7981 405.1168,-547.0019"/>
<text text-anchor="middle" x="353.1606" y="-530.6" font-family="Times,serif" font-size="14.00" fill="#000000">GO:0009987</text>
<text text-anchor="middle" x="353.1606" y="-513.8" font-family="Times,serif" font-size="14.00" fill="#000000">cellular process</text>
</g>
<!-- GO:0051716&#45;&gt;GO:0009987 -->
<g id="edge6" class="edge">
<title>GO:0051716&#45;&gt;GO:0009987</title>
<path fill="none" stroke="#000000" d="M127.6937,-449.9007C130.5425,-450.9146 133.3743,-451.8866 136.1606,-452.8 199.2579,-473.4837 219.0704,-465.2651 281.1606,-488.8 290.2623,-492.2499 299.6901,-496.5729 308.6064,-501.0473"/>
<polygon fill="#000000" stroke="#000000" points="307.1872,-504.2536 317.678,-505.7347 310.4006,-498.0347 307.1872,-504.2536"/>
</g>
<!-- GO:0050896&#45;&gt;GO:0008150 -->
<g id="edge7" class="edge">
<title>GO:0050896&#45;&gt;GO:0008150</title>
<path fill="none" stroke="#000000" d="M99.0541,-547.0141C111.282,-553.5224 125.4542,-560.0423 139.1606,-564 239.6621,-593.0199 544.2254,-610.7991 683.4056,-617.6143"/>
<polygon fill="#000000" stroke="#000000" points="683.3803,-621.1171 693.538,-618.1054 683.7192,-614.1253 683.3803,-621.1171"/>
</g>
<!-- GO:0009987&#45;&gt;GO:0008150 -->
<g id="edge8" class="edge">
<title>GO:0009987&#45;&gt;GO:0008150</title>
<path fill="none" stroke="#000000" d="M404.9737,-542.0585C429.2231,-549.1552 458.5618,-557.4119 485.1606,-564 552.1118,-580.5827 629.1906,-596.5427 683.6306,-607.2992"/>
<polygon fill="#000000" stroke="#000000" points="683.0371,-610.7495 693.5248,-609.2461 684.3887,-603.8812 683.0371,-610.7495"/>
</g>
<!-- GO:1903044 -->
<g id="node8" class="node">
<title>GO:1903044</title>
<polygon fill="#ffffff" stroke="#000000" points="723.5191,-58.6014 584.8021,-58.6014 584.8021,.2014 723.5191,.2014 723.5191,-58.6014"/>
<text text-anchor="middle" x="654.1606" y="-41.8" font-family="Times,serif" font-size="14.00" fill="#000000">GO:1903044</text>
<text text-anchor="middle" x="654.1606" y="-25" font-family="Times,serif" font-size="14.00" fill="#000000">protein localization to</text>
<text text-anchor="middle" x="654.1606" y="-8.2" font-family="Times,serif" font-size="14.00" fill="#000000">membrane raft</text>
</g>
<!-- GO:0072657 -->
<g id="node9" class="node">
<title>GO:0072657</title>
<polygon fill="#ffffff" stroke="#000000" points="723.5191,-161.4014 584.8021,-161.4014 584.8021,-102.5986 723.5191,-102.5986 723.5191,-161.4014"/>
<text text-anchor="middle" x="654.1606" y="-144.6" font-family="Times,serif" font-size="14.00" fill="#000000">GO:0072657</text>
<text text-anchor="middle" x="654.1606" y="-127.8" font-family="Times,serif" font-size="14.00" fill="#000000">protein localization to</text>
<text text-anchor="middle" x="654.1606" y="-111" font-family="Times,serif" font-size="14.00" fill="#000000">membrane</text>
</g>
<!-- GO:1903044&#45;&gt;GO:0072657 -->
<g id="edge9" class="edge">
<title>GO:1903044&#45;&gt;GO:0072657</title>
<path fill="none" stroke="#000000" d="M654.1606,-58.6584C654.1606,-69.1969 654.1606,-81.2505 654.1606,-92.4994"/>
<polygon fill="#000000" stroke="#000000" points="650.6607,-92.5373 654.1606,-102.5373 657.6607,-92.5374 650.6607,-92.5373"/>
</g>
<!-- GO:0034613 -->
<g id="node10" class="node">
<title>GO:0034613</title>
<polygon fill="#ffffff" stroke="#000000" points="872.7933,-264.2014 771.5279,-264.2014 771.5279,-205.3986 872.7933,-205.3986 872.7933,-264.2014"/>
<text text-anchor="middle" x="822.1606" y="-247.4" font-family="Times,serif" font-size="14.00" fill="#000000">GO:0034613</text>
<text text-anchor="middle" x="822.1606" y="-230.6" font-family="Times,serif" font-size="14.00" fill="#000000">cellular protein</text>
<text text-anchor="middle" x="822.1606" y="-213.8" font-family="Times,serif" font-size="14.00" fill="#000000">localization</text>
</g>
<!-- GO:0072657&#45;&gt;GO:0034613 -->
<g id="edge10" class="edge">
<title>GO:0072657&#45;&gt;GO:0034613</title>
<path fill="none" stroke="#000000" d="M702.3027,-161.4584C722.0704,-173.5544 745.0999,-187.6462 765.659,-200.2264"/>
<polygon fill="#000000" stroke="#000000" points="763.9455,-203.2812 774.3022,-205.5152 767.5992,-197.3103 763.9455,-203.2812"/>
</g>
<!-- GO:0044802 -->
<g id="node11" class="node">
<title>GO:0044802</title>
<polygon fill="#ffffff" stroke="#000000" points="434.4483,-264.2014 265.8729,-264.2014 265.8729,-205.3986 434.4483,-205.3986 434.4483,-264.2014"/>
<text text-anchor="middle" x="350.1606" y="-247.4" font-family="Times,serif" font-size="14.00" fill="#000000">GO:0044802</text>
<text text-anchor="middle" x="350.1606" y="-230.6" font-family="Times,serif" font-size="14.00" fill="#000000">single&#45;organism membrane</text>
<text text-anchor="middle" x="350.1606" y="-213.8" font-family="Times,serif" font-size="14.00" fill="#000000">organization</text>
</g>
<!-- GO:0072657&#45;&gt;GO:0044802 -->
<g id="edge11" class="edge">
<title>GO:0072657&#45;&gt;GO:0044802</title>
<path fill="none" stroke="#000000" d="M584.7979,-155.4555C543.1611,-169.5354 489.6385,-187.6345 444.2281,-202.9903"/>
<polygon fill="#000000" stroke="#000000" points="443.0202,-199.704 434.6684,-206.223 445.2627,-206.3351 443.0202,-199.704"/>
</g>
<!-- GO:1902580 -->
<g id="node12" class="node">
<title>GO:1902580</title>
<polygon fill="#ffffff" stroke="#000000" points="729.8391,-358.6014 578.4821,-358.6014 578.4821,-299.7986 729.8391,-299.7986 729.8391,-358.6014"/>
<text text-anchor="middle" x="654.1606" y="-341.8" font-family="Times,serif" font-size="14.00" fill="#000000">GO:1902580</text>
<text text-anchor="middle" x="654.1606" y="-325" font-family="Times,serif" font-size="14.00" fill="#000000">single&#45;organism cellular</text>
<text text-anchor="middle" x="654.1606" y="-308.2" font-family="Times,serif" font-size="14.00" fill="#000000">localization</text>
</g>
<!-- GO:0072657&#45;&gt;GO:1902580 -->
<g id="edge12" class="edge">
<title>GO:0072657&#45;&gt;GO:1902580</title>
<path fill="none" stroke="#000000" d="M654.1606,-161.5228C654.1606,-195.6024 654.1606,-251.8074 654.1606,-289.6461"/>
<polygon fill="#000000" stroke="#000000" points="650.6607,-289.7978 654.1606,-299.7978 657.6607,-289.7979 650.6607,-289.7978"/>
</g>
<!-- GO:0008104 -->
<g id="node13" class="node">
<title>GO:0008104</title>
<polygon fill="#ffffff" stroke="#000000" points="1038.6293,-349.8019 913.6919,-349.8019 913.6919,-308.5981 1038.6293,-308.5981 1038.6293,-349.8019"/>
<text text-anchor="middle" x="976.1606" y="-333.4" font-family="Times,serif" font-size="14.00" fill="#000000">GO:0008104</text>
<text text-anchor="middle" x="976.1606" y="-316.6" font-family="Times,serif" font-size="14.00" fill="#000000">protein localization</text>
</g>
<!-- GO:0034613&#45;&gt;GO:0008104 -->
<g id="edge13" class="edge">
<title>GO:0034613&#45;&gt;GO:0008104</title>
<path fill="none" stroke="#000000" d="M870.043,-264.1513C890.4102,-276.6361 913.9648,-291.0748 933.7007,-303.1727"/>
<polygon fill="#000000" stroke="#000000" points="932.1198,-306.3088 942.4747,-308.551 935.7782,-300.3408 932.1198,-306.3088"/>
</g>
<!-- GO:0070727 -->
<g id="node14" class="node">
<title>GO:0070727</title>
<polygon fill="#ffffff" stroke="#000000" points="895.933,-358.6014 748.3882,-358.6014 748.3882,-299.7986 895.933,-299.7986 895.933,-358.6014"/>
<text text-anchor="middle" x="822.1606" y="-341.8" font-family="Times,serif" font-size="14.00" fill="#000000">GO:0070727</text>
<text text-anchor="middle" x="822.1606" y="-325" font-family="Times,serif" font-size="14.00" fill="#000000">cellular macromolecule</text>
<text text-anchor="middle" x="822.1606" y="-308.2" font-family="Times,serif" font-size="14.00" fill="#000000">localization</text>
</g>
<!-- GO:0034613&#45;&gt;GO:0070727 -->
<g id="edge14" class="edge">
<title>GO:0034613&#45;&gt;GO:0070727</title>
<path fill="none" stroke="#000000" d="M822.1606,-264.1513C822.1606,-272.2318 822.1606,-281.1308 822.1606,-289.6838"/>
<polygon fill="#000000" stroke="#000000" points="818.6607,-289.8668 822.1606,-299.8669 825.6607,-289.8669 818.6607,-289.8668"/>
</g>
<!-- GO:0061024 -->
<g id="node15" class="node">
<title>GO:0061024</title>
<polygon fill="#ffffff" stroke="#000000" points="295.223,-349.8019 147.0982,-349.8019 147.0982,-308.5981 295.223,-308.5981 295.223,-349.8019"/>
<text text-anchor="middle" x="221.1606" y="-333.4" font-family="Times,serif" font-size="14.00" fill="#000000">GO:0061024</text>
<text text-anchor="middle" x="221.1606" y="-316.6" font-family="Times,serif" font-size="14.00" fill="#000000">membrane organization</text>
</g>
<!-- GO:0044802&#45;&gt;GO:0061024 -->
<g id="edge15" class="edge">
<title>GO:0044802&#45;&gt;GO:0061024</title>
<path fill="none" stroke="#000000" d="M310.0513,-264.1513C293.2979,-276.4112 273.9698,-290.5551 257.6243,-302.5165"/>
<polygon fill="#000000" stroke="#000000" points="255.3811,-299.8209 249.378,-308.551 259.515,-305.47 255.3811,-299.8209"/>
</g>
<!-- GO:0044763 -->
<g id="node16" class="node">
<title>GO:0044763</title>
<polygon fill="#ff00ff" stroke="#000000" points="438.8391,-453.0014 287.4821,-453.0014 287.4821,-394.1986 438.8391,-394.1986 438.8391,-453.0014"/>
<text text-anchor="middle" x="363.1606" y="-436.2" font-family="Times,serif" font-size="14.00" fill="#000000">GO:0044763</text>
<text text-anchor="middle" x="363.1606" y="-419.4" font-family="Times,serif" font-size="14.00" fill="#000000">single&#45;organism cellular</text>
<text text-anchor="middle" x="363.1606" y="-402.6" font-family="Times,serif" font-size="14.00" fill="#000000">process</text>
</g>
<!-- GO:0044802&#45;&gt;GO:0044763 -->
<g id="edge16" class="edge">
<title>GO:0044802&#45;&gt;GO:0044763</title>
<path fill="none" stroke="#000000" d="M352.1918,-264.3C354.4147,-296.5825 357.9889,-348.4912 360.4498,-384.2305"/>
<polygon fill="#000000" stroke="#000000" points="356.9649,-384.5712 361.1436,-394.3072 363.9483,-384.0903 356.9649,-384.5712"/>
</g>
<!-- GO:1902578 -->
<g id="node17" class="node">
<title>GO:1902578</title>
<polygon fill="#ffffff" stroke="#000000" points="741.3628,-453.0014 634.9584,-453.0014 634.9584,-394.1986 741.3628,-394.1986 741.3628,-453.0014"/>
<text text-anchor="middle" x="688.1606" y="-436.2" font-family="Times,serif" font-size="14.00" fill="#000000">GO:1902578</text>
<text text-anchor="middle" x="688.1606" y="-419.4" font-family="Times,serif" font-size="14.00" fill="#000000">single&#45;organism</text>
<text text-anchor="middle" x="688.1606" y="-402.6" font-family="Times,serif" font-size="14.00" fill="#000000">localization</text>
</g>
<!-- GO:1902580&#45;&gt;GO:1902578 -->
<g id="edge17" class="edge">
<title>GO:1902580&#45;&gt;GO:1902578</title>
<path fill="none" stroke="#000000" d="M664.732,-358.5513C667.7064,-366.8094 670.9886,-375.9223 674.131,-384.6473"/>
<polygon fill="#000000" stroke="#000000" points="670.9141,-386.0445 677.5957,-394.2669 677.5,-383.6725 670.9141,-386.0445"/>
</g>
<!-- GO:0051641 -->
<g id="node18" class="node">
<title>GO:0051641</title>
<polygon fill="#ffffff" stroke="#000000" points="885.4484,-444.2019 758.8728,-444.2019 758.8728,-402.9981 885.4484,-402.9981 885.4484,-444.2019"/>
<text text-anchor="middle" x="822.1606" y="-427.8" font-family="Times,serif" font-size="14.00" fill="#000000">GO:0051641</text>
<text text-anchor="middle" x="822.1606" y="-411" font-family="Times,serif" font-size="14.00" fill="#000000">cellular localization</text>
</g>
<!-- GO:1902580&#45;&gt;GO:0051641 -->
<g id="edge18" class="edge">
<title>GO:1902580&#45;&gt;GO:0051641</title>
<path fill="none" stroke="#000000" d="M706.3959,-358.5513C728.8148,-371.1486 754.7739,-385.7351 776.4216,-397.8991"/>
<polygon fill="#000000" stroke="#000000" points="774.9798,-401.1036 785.4124,-402.951 778.4089,-395.001 774.9798,-401.1036"/>
</g>
<!-- GO:0033036 -->
<g id="node19" class="node">
<title>GO:0033036</title>
<polygon fill="#ffffff" stroke="#000000" points="1006.457,-453.0014 903.8642,-453.0014 903.8642,-394.1986 1006.457,-394.1986 1006.457,-453.0014"/>
<text text-anchor="middle" x="955.1606" y="-436.2" font-family="Times,serif" font-size="14.00" fill="#000000">GO:0033036</text>
<text text-anchor="middle" x="955.1606" y="-419.4" font-family="Times,serif" font-size="14.00" fill="#000000">macromolecule</text>
<text text-anchor="middle" x="955.1606" y="-402.6" font-family="Times,serif" font-size="14.00" fill="#000000">localization</text>
</g>
<!-- GO:0008104&#45;&gt;GO:0033036 -->
<g id="edge19" class="edge">
<title>GO:0008104&#45;&gt;GO:0033036</title>
<path fill="none" stroke="#000000" d="M971.5,-350.1504C969.2757,-360.1492 966.5388,-372.4525 963.9453,-384.1106"/>
<polygon fill="#000000" stroke="#000000" points="960.4747,-383.5941 961.7196,-394.1155 967.3077,-385.1142 960.4747,-383.5941"/>
</g>
<!-- GO:0070727&#45;&gt;GO:0051641 -->
<g id="edge21" class="edge">
<title>GO:0070727&#45;&gt;GO:0051641</title>
<path fill="none" stroke="#000000" d="M822.1606,-358.5513C822.1606,-369.4614 822.1606,-381.8637 822.1606,-392.892"/>
<polygon fill="#000000" stroke="#000000" points="818.6607,-392.9509 822.1606,-402.951 825.6607,-392.951 818.6607,-392.9509"/>
</g>
<!-- GO:0070727&#45;&gt;GO:0033036 -->
<g id="edge20" class="edge">
<title>GO:0070727&#45;&gt;GO:0033036</title>
<path fill="none" stroke="#000000" d="M863.5136,-358.5513C876.7748,-367.9637 891.6006,-378.4867 905.3983,-388.28"/>
<polygon fill="#000000" stroke="#000000" points="903.6527,-391.333 913.8332,-394.2669 907.7043,-385.6247 903.6527,-391.333"/>
</g>
<!-- GO:0016043 -->
<g id="node20" class="node">
<title>GO:0016043</title>
<polygon fill="#ffffff" stroke="#000000" points="268.8476,-453.0014 145.4736,-453.0014 145.4736,-394.1986 268.8476,-394.1986 268.8476,-453.0014"/>
<text text-anchor="middle" x="207.1606" y="-436.2" font-family="Times,serif" font-size="14.00" fill="#000000">GO:0016043</text>
<text text-anchor="middle" x="207.1606" y="-419.4" font-family="Times,serif" font-size="14.00" fill="#000000">cellular component</text>
<text text-anchor="middle" x="207.1606" y="-402.6" font-family="Times,serif" font-size="14.00" fill="#000000">organization</text>
</g>
<!-- GO:0061024&#45;&gt;GO:0016043 -->
<g id="edge22" class="edge">
<title>GO:0061024&#45;&gt;GO:0016043</title>
<path fill="none" stroke="#000000" d="M218.0535,-350.1504C216.5707,-360.1492 214.746,-372.4525 213.0171,-384.1106"/>
<polygon fill="#000000" stroke="#000000" points="209.5383,-383.7102 211.5333,-394.1155 216.4625,-384.7372 209.5383,-383.7102"/>
</g>
<!-- GO:0044763&#45;&gt;GO:0044699 -->
<g id="edge24" class="edge">
<title>GO:0044763&#45;&gt;GO:0044699</title>
<path fill="none" stroke="#000000" d="M439.0546,-450.04C442.1236,-450.9923 445.1677,-451.9162 448.1606,-452.8 511.8432,-471.6046 530.2055,-467.6873 593.1606,-488.8 604.2471,-492.518 615.8893,-497.0337 626.9436,-501.6274"/>
<polygon fill="#000000" stroke="#000000" points="625.9047,-504.9884 636.4779,-505.6664 628.6352,-498.5429 625.9047,-504.9884"/>
</g>
<!-- GO:0044763&#45;&gt;GO:0009987 -->
<g id="edge23" class="edge">
<title>GO:0044763&#45;&gt;GO:0009987</title>
<path fill="none" stroke="#000000" d="M360.295,-453.0584C359.0017,-466.3539 357.4737,-482.0608 356.1644,-495.5212"/>
<polygon fill="#000000" stroke="#000000" points="352.6545,-495.4537 355.1698,-505.7456 359.6216,-496.1315 352.6545,-495.4537"/>
</g>
<!-- GO:1902578&#45;&gt;GO:0044699 -->
<g id="edge26" class="edge">
<title>GO:1902578&#45;&gt;GO:0044699</title>
<path fill="none" stroke="#000000" d="M686.1547,-453.0584C685.2493,-466.3539 684.1798,-482.0608 683.2632,-495.5212"/>
<polygon fill="#000000" stroke="#000000" points="679.7546,-495.5309 682.567,-505.7456 686.7384,-496.0065 679.7546,-495.5309"/>
</g>
<!-- GO:0051179 -->
<g id="node21" class="node">
<title>GO:0051179</title>
<polygon fill="#ffffff" stroke="#000000" points="866.7645,-547.0019 777.5567,-547.0019 777.5567,-505.7981 866.7645,-505.7981 866.7645,-547.0019"/>
<text text-anchor="middle" x="822.1606" y="-530.6" font-family="Times,serif" font-size="14.00" fill="#000000">GO:0051179</text>
<text text-anchor="middle" x="822.1606" y="-513.8" font-family="Times,serif" font-size="14.00" fill="#000000">localization</text>
</g>
<!-- GO:1902578&#45;&gt;GO:0051179 -->
<g id="edge25" class="edge">
<title>GO:1902578&#45;&gt;GO:0051179</title>
<path fill="none" stroke="#000000" d="M726.5596,-453.0584C745.6922,-467.7362 768.6553,-485.3527 787.2805,-499.6412"/>
<polygon fill="#000000" stroke="#000000" points="785.173,-502.4358 795.2376,-505.7456 789.4338,-496.8818 785.173,-502.4358"/>
</g>
<!-- GO:0051641&#45;&gt;GO:0051179 -->
<g id="edge27" class="edge">
<title>GO:0051641&#45;&gt;GO:0051179</title>
<path fill="none" stroke="#000000" d="M822.1606,-444.4031C822.1606,-459.0337 822.1606,-478.8642 822.1606,-495.3586"/>
<polygon fill="#000000" stroke="#000000" points="818.6607,-495.6278 822.1606,-505.6278 825.6607,-495.6279 818.6607,-495.6278"/>
</g>
<!-- GO:0033036&#45;&gt;GO:0051179 -->
<g id="edge28" class="edge">
<title>GO:0033036&#45;&gt;GO:0051179</title>
<path fill="none" stroke="#000000" d="M917.0481,-453.0584C898.1435,-467.6703 875.4709,-485.1947 857.0294,-499.4488"/>
<polygon fill="#000000" stroke="#000000" points="854.6543,-496.8609 848.8827,-505.7456 858.9352,-502.3993 854.6543,-496.8609"/>
</g>
<!-- GO:0016043&#45;&gt;GO:0009987 -->
<g id="edge29" class="edge">
<title>GO:0016043&#45;&gt;GO:0009987</title>
<path fill="none" stroke="#000000" d="M248.9983,-453.0584C269.9377,-467.802 295.0883,-485.5107 315.4296,-499.8332"/>
<polygon fill="#000000" stroke="#000000" points="313.635,-502.8502 323.8266,-505.7456 317.6651,-497.1267 313.635,-502.8502"/>
</g>
<!-- GO:0071840 -->
<g id="node22" class="node">
<title>GO:0071840</title>
<polygon fill="#ffffff" stroke="#000000" points="271.8476,-564.1003 148.4736,-564.1003 148.4736,-488.6997 271.8476,-488.6997 271.8476,-564.1003"/>
<text text-anchor="middle" x="210.1606" y="-547.4" font-family="Times,serif" font-size="14.00" fill="#000000">GO:0071840</text>
<text text-anchor="middle" x="210.1606" y="-530.6" font-family="Times,serif" font-size="14.00" fill="#000000">cellular component</text>
<text text-anchor="middle" x="210.1606" y="-513.8" font-family="Times,serif" font-size="14.00" fill="#000000">organization or</text>
<text text-anchor="middle" x="210.1606" y="-497" font-family="Times,serif" font-size="14.00" fill="#000000">biogenesis</text>
</g>
<!-- GO:0016043&#45;&gt;GO:0071840 -->
<g id="edge30" class="edge">
<title>GO:0016043&#45;&gt;GO:0071840</title>
<path fill="none" stroke="#000000" d="M208.0203,-453.0584C208.2518,-460.9901 208.5083,-469.78 208.761,-478.4392"/>
<polygon fill="#000000" stroke="#000000" points="205.2638,-478.5913 209.0541,-488.485 212.2608,-478.3871 205.2638,-478.5913"/>
</g>
<!-- GO:0051179&#45;&gt;GO:0008150 -->
<g id="edge31" class="edge">
<title>GO:0051179&#45;&gt;GO:0008150</title>
<path fill="none" stroke="#000000" d="M807.0692,-547.3504C797.7373,-560.3054 785.6188,-577.1287 775.3347,-591.4053"/>
<polygon fill="#000000" stroke="#000000" points="772.2148,-589.7484 769.2098,-599.9081 777.8946,-593.8398 772.2148,-589.7484"/>
</g>
<!-- GO:0050794 -->
<g id="node23" class="node">
<title>GO:0050794</title>
<polygon fill="#ff00ff" stroke="#000000" points="1446.0596,-453.0014 1312.2616,-453.0014 1312.2616,-394.1986 1446.0596,-394.1986 1446.0596,-453.0014"/>
<text text-anchor="middle" x="1379.1606" y="-436.2" font-family="Times,serif" font-size="14.00" fill="#000000">GO:0050794</text>
<text text-anchor="middle" x="1379.1606" y="-419.4" font-family="Times,serif" font-size="14.00" fill="#000000">regulation of cellular</text>
<text text-anchor="middle" x="1379.1606" y="-402.6" font-family="Times,serif" font-size="14.00" fill="#000000">process</text>
</g>
<!-- GO:0065007 -->
<g id="node24" class="node">
<title>GO:0065007</title>
<polygon fill="#ffffff" stroke="#000000" points="1327.414,-547.0019 1194.9072,-547.0019 1194.9072,-505.7981 1327.414,-505.7981 1327.414,-547.0019"/>
<text text-anchor="middle" x="1261.1606" y="-530.6" font-family="Times,serif" font-size="14.00" fill="#000000">GO:0065007</text>
<text text-anchor="middle" x="1261.1606" y="-513.8" font-family="Times,serif" font-size="14.00" fill="#000000">biological regulation</text>
</g>
<!-- GO:0050794&#45;&gt;GO:0065007 -->
<g id="edge32" class="edge">
<title>GO:0050794&#45;&gt;GO:0065007</title>
<path fill="none" stroke="#000000" d="M1345.3465,-453.0584C1328.7251,-467.5387 1308.8206,-484.8792 1292.5399,-499.0628"/>
<polygon fill="#000000" stroke="#000000" points="1290.1099,-496.5378 1284.8689,-505.7456 1294.708,-501.8159 1290.1099,-496.5378"/>
</g>
<!-- GO:0050789 -->
<g id="node25" class="node">
<title>GO:0050789</title>
<polygon fill="#ffffff" stroke="#000000" points="1177.075,-555.8014 1029.2462,-555.8014 1029.2462,-496.9986 1177.075,-496.9986 1177.075,-555.8014"/>
<text text-anchor="middle" x="1103.1606" y="-539" font-family="Times,serif" font-size="14.00" fill="#000000">GO:0050789</text>
<text text-anchor="middle" x="1103.1606" y="-522.2" font-family="Times,serif" font-size="14.00" fill="#000000">regulation of biological</text>
<text text-anchor="middle" x="1103.1606" y="-505.4" font-family="Times,serif" font-size="14.00" fill="#000000">process</text>
</g>
<!-- GO:0050794&#45;&gt;GO:0050789 -->
<g id="edge33" class="edge">
<title>GO:0050794&#45;&gt;GO:0050789</title>
<path fill="none" stroke="#000000" d="M1312.1151,-449.6448C1309.0951,-450.7279 1306.0998,-451.7845 1303.1606,-452.8 1251.7374,-470.5667 1237.0419,-469.5361 1186.1606,-488.8 1182.5198,-490.1784 1178.8119,-491.6393 1175.0836,-493.1541"/>
<polygon fill="#000000" stroke="#000000" points="1173.6902,-489.9429 1165.8002,-497.0139 1176.3777,-496.4064 1173.6902,-489.9429"/>
</g>
<!-- GO:0065007&#45;&gt;GO:0008150 -->
<g id="edge34" class="edge">
<title>GO:0065007&#45;&gt;GO:0008150</title>
<path fill="none" stroke="#000000" d="M1225.9352,-547.0998C1213.7066,-553.4535 1199.6676,-559.8555 1186.1606,-564 1120.3727,-584.1865 929.8908,-604.3696 825.1869,-614.3578"/>
<polygon fill="#000000" stroke="#000000" points="824.6454,-610.8934 815.0202,-615.3214 825.3059,-617.8622 824.6454,-610.8934"/>
</g>
<!-- GO:0050789&#45;&gt;GO:0008150 -->
<g id="edge35" class="edge">
<title>GO:0050789&#45;&gt;GO:0008150</title>
<path fill="none" stroke="#000000" d="M1029.1467,-546.4198C968.6841,-562.7742 883.8058,-585.7326 824.3924,-601.8032"/>
<polygon fill="#000000" stroke="#000000" points="823.4543,-598.4311 814.7151,-604.4208 825.2821,-605.1883 823.4543,-598.4311"/>
</g>
<!-- GO:0051147 -->
<g id="node26" class="node">
<title>GO:0051147</title>
<polygon fill="#ffffff" stroke="#000000" points="1409.4483,-264.2014 1254.8729,-264.2014 1254.8729,-205.3986 1409.4483,-205.3986 1409.4483,-264.2014"/>
<text text-anchor="middle" x="1332.1606" y="-247.4" font-family="Times,serif" font-size="14.00" fill="#000000">GO:0051147</text>
<text text-anchor="middle" x="1332.1606" y="-230.6" font-family="Times,serif" font-size="14.00" fill="#000000">regulation of muscle cell</text>
<text text-anchor="middle" x="1332.1606" y="-213.8" font-family="Times,serif" font-size="14.00" fill="#000000">differentiation</text>
</g>
<!-- GO:0050793 -->
<g id="node27" class="node">
<title>GO:0050793</title>
<polygon fill="#ffffff" stroke="#000000" points="1294.0604,-453.0014 1150.2608,-453.0014 1150.2608,-394.1986 1294.0604,-394.1986 1294.0604,-453.0014"/>
<text text-anchor="middle" x="1222.1606" y="-436.2" font-family="Times,serif" font-size="14.00" fill="#000000">GO:0050793</text>
<text text-anchor="middle" x="1222.1606" y="-419.4" font-family="Times,serif" font-size="14.00" fill="#000000">regulation of</text>
<text text-anchor="middle" x="1222.1606" y="-402.6" font-family="Times,serif" font-size="14.00" fill="#000000">developmental process</text>
</g>
<!-- GO:0051147&#45;&gt;GO:0050793 -->
<g id="edge36" class="edge">
<title>GO:0051147&#45;&gt;GO:0050793</title>
<path fill="none" stroke="#000000" d="M1313.8208,-264.2036C1306.9406,-275.3618 1299.1084,-288.2177 1292.1606,-300 1275.4442,-328.3484 1257.1338,-360.729 1243.434,-385.2344"/>
<polygon fill="#000000" stroke="#000000" points="1240.2387,-383.7779 1238.422,-394.2159 1246.3513,-387.189 1240.2387,-383.7779"/>
</g>
<!-- GO:0045595 -->
<g id="node28" class="node">
<title>GO:0045595</title>
<polygon fill="#ffffff" stroke="#000000" points="1412.7938,-358.6014 1301.5274,-358.6014 1301.5274,-299.7986 1412.7938,-299.7986 1412.7938,-358.6014"/>
<text text-anchor="middle" x="1357.1606" y="-341.8" font-family="Times,serif" font-size="14.00" fill="#000000">GO:0045595</text>
<text text-anchor="middle" x="1357.1606" y="-325" font-family="Times,serif" font-size="14.00" fill="#000000">regulation of cell</text>
<text text-anchor="middle" x="1357.1606" y="-308.2" font-family="Times,serif" font-size="14.00" fill="#000000">differentiation</text>
</g>
<!-- GO:0051147&#45;&gt;GO:0045595 -->
<g id="edge37" class="edge">
<title>GO:0051147&#45;&gt;GO:0045595</title>
<path fill="none" stroke="#000000" d="M1339.9337,-264.1513C1342.0972,-272.3206 1344.4822,-281.3264 1346.7702,-289.9657"/>
<polygon fill="#000000" stroke="#000000" points="1343.4488,-291.0962 1349.3923,-299.8669 1350.2155,-289.3041 1343.4488,-291.0962"/>
</g>
<!-- GO:0050793&#45;&gt;GO:0065007 -->
<g id="edge38" class="edge">
<title>GO:0050793&#45;&gt;GO:0065007</title>
<path fill="none" stroke="#000000" d="M1233.3364,-453.0584C1238.4804,-466.6172 1244.5757,-482.6838 1249.7482,-496.3182"/>
<polygon fill="#000000" stroke="#000000" points="1246.5052,-497.6374 1253.3248,-505.7456 1253.0501,-495.1544 1246.5052,-497.6374"/>
</g>
<!-- GO:0050793&#45;&gt;GO:0050789 -->
<g id="edge39" class="edge">
<title>GO:0050793&#45;&gt;GO:0050789</title>
<path fill="none" stroke="#000000" d="M1188.06,-453.0584C1174.6158,-464.6723 1159.0418,-478.1261 1144.9317,-490.3154"/>
<polygon fill="#000000" stroke="#000000" points="1142.5456,-487.7515 1137.2662,-496.9373 1147.1216,-493.0487 1142.5456,-487.7515"/>
</g>
<!-- GO:0045595&#45;&gt;GO:0050794 -->
<g id="edge40" class="edge">
<title>GO:0045595&#45;&gt;GO:0050794</title>
<path fill="none" stroke="#000000" d="M1364.0009,-358.5513C1365.9048,-366.7206 1368.0036,-375.7264 1370.017,-384.3657"/>
<polygon fill="#000000" stroke="#000000" points="1366.6461,-385.3223 1372.3245,-394.2669 1373.4634,-383.7334 1366.6461,-385.3223"/>
</g>
<!-- GO:0007154 -->
<g id="node29" class="node">
<title>GO:0007154</title>
<polygon fill="#ffffff" stroke="#000000" points="504.4679,-349.8019 377.8533,-349.8019 377.8533,-308.5981 504.4679,-308.5981 504.4679,-349.8019"/>
<text text-anchor="middle" x="441.1606" y="-333.4" font-family="Times,serif" font-size="14.00" fill="#000000">GO:0007154</text>
<text text-anchor="middle" x="441.1606" y="-316.6" font-family="Times,serif" font-size="14.00" fill="#000000">cell communication</text>
</g>
<!-- GO:0007154&#45;&gt;GO:0044763 -->
<g id="edge41" class="edge">
<title>GO:0007154&#45;&gt;GO:0044763</title>
<path fill="none" stroke="#000000" d="M423.8499,-350.1504C415.0874,-360.7552 404.1831,-373.9522 394.0445,-386.2225"/>
<polygon fill="#000000" stroke="#000000" points="391.1943,-384.1772 387.5228,-394.1155 396.5906,-388.636 391.1943,-384.1772"/>
</g>
<!-- GO:0090002 -->
<g id="node30" class="node">
<title>GO:0090002</title>
<polygon fill="#ffffff" stroke="#000000" points="1207.9639,-169.7003 1056.3573,-169.7003 1056.3573,-94.2997 1207.9639,-94.2997 1207.9639,-169.7003"/>
<text text-anchor="middle" x="1132.1606" y="-153" font-family="Times,serif" font-size="14.00" fill="#000000">GO:0090002</text>
<text text-anchor="middle" x="1132.1606" y="-136.2" font-family="Times,serif" font-size="14.00" fill="#000000">establishment of protein</text>
<text text-anchor="middle" x="1132.1606" y="-119.4" font-family="Times,serif" font-size="14.00" fill="#000000">localization to plasma</text>
<text text-anchor="middle" x="1132.1606" y="-102.6" font-family="Times,serif" font-size="14.00" fill="#000000">membrane</text>
</g>
<!-- GO:0090150 -->
<g id="node31" class="node">
<title>GO:0090150</title>
<polygon fill="#ffffff" stroke="#000000" points="1211.4485,-264.2014 1052.8727,-264.2014 1052.8727,-205.3986 1211.4485,-205.3986 1211.4485,-264.2014"/>
<text text-anchor="middle" x="1132.1606" y="-247.4" font-family="Times,serif" font-size="14.00" fill="#000000">GO:0090150</text>
<text text-anchor="middle" x="1132.1606" y="-230.6" font-family="Times,serif" font-size="14.00" fill="#000000">establishment of protein</text>
<text text-anchor="middle" x="1132.1606" y="-213.8" font-family="Times,serif" font-size="14.00" fill="#000000">localization to membrane</text>
</g>
<!-- GO:0090002&#45;&gt;GO:0090150 -->
<g id="edge42" class="edge">
<title>GO:0090002&#45;&gt;GO:0090150</title>
<path fill="none" stroke="#000000" d="M1132.1606,-169.6952C1132.1606,-178.0874 1132.1606,-187.0054 1132.1606,-195.4618"/>
<polygon fill="#000000" stroke="#000000" points="1128.6607,-195.4813 1132.1606,-205.4814 1135.6607,-195.4814 1128.6607,-195.4813"/>
</g>
<!-- GO:0045184 -->
<g id="node32" class="node">
<title>GO:0045184</title>
<polygon fill="#ffffff" stroke="#000000" points="1207.9639,-358.6014 1056.3573,-358.6014 1056.3573,-299.7986 1207.9639,-299.7986 1207.9639,-358.6014"/>
<text text-anchor="middle" x="1132.1606" y="-341.8" font-family="Times,serif" font-size="14.00" fill="#000000">GO:0045184</text>
<text text-anchor="middle" x="1132.1606" y="-325" font-family="Times,serif" font-size="14.00" fill="#000000">establishment of protein</text>
<text text-anchor="middle" x="1132.1606" y="-308.2" font-family="Times,serif" font-size="14.00" fill="#000000">localization</text>
</g>
<!-- GO:0090150&#45;&gt;GO:0045184 -->
<g id="edge43" class="edge">
<title>GO:0090150&#45;&gt;GO:0045184</title>
<path fill="none" stroke="#000000" d="M1132.1606,-264.1513C1132.1606,-272.2318 1132.1606,-281.1308 1132.1606,-289.6838"/>
<polygon fill="#000000" stroke="#000000" points="1128.6607,-289.8668 1132.1606,-299.8669 1135.6607,-289.8669 1128.6607,-289.8668"/>
</g>
<!-- GO:0051234 -->
<g id="node33" class="node">
<title>GO:0051234</title>
<polygon fill="#ffffff" stroke="#000000" points="1132.3073,-453.0014 1024.0139,-453.0014 1024.0139,-394.1986 1132.3073,-394.1986 1132.3073,-453.0014"/>
<text text-anchor="middle" x="1078.1606" y="-436.2" font-family="Times,serif" font-size="14.00" fill="#000000">GO:0051234</text>
<text text-anchor="middle" x="1078.1606" y="-419.4" font-family="Times,serif" font-size="14.00" fill="#000000">establishment of</text>
<text text-anchor="middle" x="1078.1606" y="-402.6" font-family="Times,serif" font-size="14.00" fill="#000000">localization</text>
</g>
<!-- GO:0045184&#45;&gt;GO:0051234 -->
<g id="edge44" class="edge">
<title>GO:0045184&#45;&gt;GO:0051234</title>
<path fill="none" stroke="#000000" d="M1115.3707,-358.5513C1110.4944,-367.0758 1105.097,-376.5111 1099.9606,-385.4904"/>
<polygon fill="#000000" stroke="#000000" points="1096.8675,-383.8488 1094.9401,-394.2669 1102.9436,-387.3246 1096.8675,-383.8488"/>
</g>
<!-- GO:0051234&#45;&gt;GO:0051179 -->
<g id="edge45" class="edge">
<title>GO:0051234&#45;&gt;GO:0051179</title>
<path fill="none" stroke="#000000" d="M1023.9715,-449.0077C1020.9997,-450.3099 1018.0485,-451.5818 1015.1606,-452.8 968.8613,-472.3298 915.423,-492.5308 876.5325,-506.817"/>
<polygon fill="#000000" stroke="#000000" points="875.1587,-503.5928 866.9718,-510.3177 877.5655,-510.166 875.1587,-503.5928"/>
</g>
<!-- GO:1901360 -->
<g id="node34" class="node">
<title>GO:1901360</title>
<polygon fill="#ffffff" stroke="#000000" points="1600.672,-358.6014 1443.6492,-358.6014 1443.6492,-299.7986 1600.672,-299.7986 1600.672,-358.6014"/>
<text text-anchor="middle" x="1522.1606" y="-341.8" font-family="Times,serif" font-size="14.00" fill="#000000">GO:1901360</text>
<text text-anchor="middle" x="1522.1606" y="-325" font-family="Times,serif" font-size="14.00" fill="#000000">organic cyclic compound</text>
<text text-anchor="middle" x="1522.1606" y="-308.2" font-family="Times,serif" font-size="14.00" fill="#000000">metabolic process</text>
</g>
<!-- GO:0071704 -->
<g id="node35" class="node">
<title>GO:0071704</title>
<polygon fill="#ffffff" stroke="#000000" points="1580.3462,-453.0014 1463.975,-453.0014 1463.975,-394.1986 1580.3462,-394.1986 1580.3462,-453.0014"/>
<text text-anchor="middle" x="1522.1606" y="-436.2" font-family="Times,serif" font-size="14.00" fill="#000000">GO:0071704</text>
<text text-anchor="middle" x="1522.1606" y="-419.4" font-family="Times,serif" font-size="14.00" fill="#000000">organic substance</text>
<text text-anchor="middle" x="1522.1606" y="-402.6" font-family="Times,serif" font-size="14.00" fill="#000000">metabolic process</text>
</g>
<!-- GO:1901360&#45;&gt;GO:0071704 -->
<g id="edge46" class="edge">
<title>GO:1901360&#45;&gt;GO:0071704</title>
<path fill="none" stroke="#000000" d="M1522.1606,-358.5513C1522.1606,-366.6318 1522.1606,-375.5308 1522.1606,-384.0838"/>
<polygon fill="#000000" stroke="#000000" points="1518.6607,-384.2668 1522.1606,-394.2669 1525.6607,-384.2669 1518.6607,-384.2668"/>
</g>
<!-- GO:0008152 -->
<g id="node36" class="node">
<title>GO:0008152</title>
<polygon fill="#ffffff" stroke="#000000" points="1540.3462,-547.0019 1423.975,-547.0019 1423.975,-505.7981 1540.3462,-505.7981 1540.3462,-547.0019"/>
<text text-anchor="middle" x="1482.1606" y="-530.6" font-family="Times,serif" font-size="14.00" fill="#000000">GO:0008152</text>
<text text-anchor="middle" x="1482.1606" y="-513.8" font-family="Times,serif" font-size="14.00" fill="#000000">metabolic process</text>
</g>
<!-- GO:0071704&#45;&gt;GO:0008152 -->
<g id="edge47" class="edge">
<title>GO:0071704&#45;&gt;GO:0008152</title>
<path fill="none" stroke="#000000" d="M1510.6982,-453.0584C1505.4224,-466.6172 1499.1708,-482.6838 1493.8656,-496.3182"/>
<polygon fill="#000000" stroke="#000000" points="1490.5618,-495.1571 1490.1973,-505.7456 1497.0854,-497.6955 1490.5618,-495.1571"/>
</g>
<!-- GO:0008152&#45;&gt;GO:0008150 -->
<g id="edge48" class="edge">
<title>GO:0008152&#45;&gt;GO:0008150</title>
<path fill="none" stroke="#000000" d="M1423.6524,-543.6781C1397.1474,-550.9317 1365.2875,-558.86 1336.1606,-564 1153.5934,-596.2177 935.3484,-611.3736 825.2192,-617.4156"/>
<polygon fill="#000000" stroke="#000000" points="824.7008,-613.9383 814.9039,-617.9721 825.0779,-620.9282 824.7008,-613.9383"/>
</g>
</g>
</svg>
