<?xml version="1.0" encoding="UTF-8" standalone="no"?>
<!DOCTYPE svg PUBLIC "-//W3C//DTD SVG 1.1//EN"
 "http://www.w3.org/Graphics/SVG/1.1/DTD/svg11.dtd">
<!-- Generated by graphviz version 2.40.1 (20161225.0304)
 -->
<!-- Title: G Pages: 1 -->
<svg width="459pt" height="549pt"
 viewBox="0.00 0.00 459.07 548.80" xmlns="http://www.w3.org/2000/svg" xmlns:xlink="http://www.w3.org/1999/xlink">
<g id="graph0" class="graph" transform="scale(1 1) rotate(0) translate(4 544.8)">
<title>G</title>
<polygon fill="#ffffff" stroke="transparent" points="-4,4 -4,-544.8 455.0674,-544.8 455.0674,4 -4,4"/>
<!-- GO:0015934 -->
<g id="node1" class="node">
<title>GO:0015934</title>
<polygon fill="#ffa500" stroke="#000000" points="341.807,-135.8019 193.4112,-135.8019 193.4112,-94.5981 341.807,-94.5981 341.807,-135.8019"/>
<text text-anchor="middle" x="267.6091" y="-119.4" font-family="Times,serif" font-size="14.00" fill="#000000">GO:0015934</text>
<text text-anchor="middle" x="267.6091" y="-102.6" font-family="Times,serif" font-size="14.00" fill="#000000">large ribosomal subunit</text>
</g>
<!-- GO:0044391 -->
<g id="node2" class="node">
<title>GO:0044391</title>
<polygon fill="#ff0000" stroke="#000000" points="315.8268,-213.4019 199.3914,-213.4019 199.3914,-172.1981 315.8268,-172.1981 315.8268,-213.4019"/>
<text text-anchor="middle" x="257.6091" y="-197" font-family="Times,serif" font-size="14.00" fill="#000000">GO:0044391</text>
<text text-anchor="middle" x="257.6091" y="-180.2" font-family="Times,serif" font-size="14.00" fill="#000000">ribosomal subunit</text>
</g>
<!-- GO:0015934&#45;&gt;GO:0044391 -->
<g id="edge1" class="edge">
<title>GO:0015934&#45;&gt;GO:0044391</title>
<path fill="none" stroke="#000000" d="M264.9293,-135.9954C263.9092,-143.9109 262.7237,-153.1109 261.6075,-161.7722"/>
<polygon fill="#000000" stroke="#000000" points="258.1032,-161.5819 260.2963,-171.9472 265.0458,-162.4766 258.1032,-161.5819"/>
</g>
<!-- GO:0044446 -->
<g id="node3" class="node">
<title>GO:0044446</title>
<polygon fill="#ffffff" stroke="#000000" points="139.3275,-308.2014 -.1093,-308.2014 -.1093,-249.3986 139.3275,-249.3986 139.3275,-308.2014"/>
<text text-anchor="middle" x="69.6091" y="-291.4" font-family="Times,serif" font-size="14.00" fill="#000000">GO:0044446</text>
<text text-anchor="middle" x="69.6091" y="-274.6" font-family="Times,serif" font-size="14.00" fill="#000000">intracellular organelle</text>
<text text-anchor="middle" x="69.6091" y="-257.8" font-family="Times,serif" font-size="14.00" fill="#000000">part</text>
</g>
<!-- GO:0044391&#45;&gt;GO:0044446 -->
<g id="edge2" class="edge">
<title>GO:0044391&#45;&gt;GO:0044446</title>
<path fill="none" stroke="#000000" d="M212.0995,-213.6182C191.2816,-223.1413 166.094,-234.6633 142.7211,-245.3551"/>
<polygon fill="#000000" stroke="#000000" points="141.1615,-242.2197 133.5238,-249.5624 144.0734,-248.5853 141.1615,-242.2197"/>
</g>
<!-- GO:0044444 -->
<g id="node4" class="node">
<title>GO:0044444</title>
<polygon fill="#ff0000" stroke="#000000" points="451.0257,-299.4019 342.1925,-299.4019 342.1925,-258.1981 451.0257,-258.1981 451.0257,-299.4019"/>
<text text-anchor="middle" x="396.6091" y="-283" font-family="Times,serif" font-size="14.00" fill="#000000">GO:0044444</text>
<text text-anchor="middle" x="396.6091" y="-266.2" font-family="Times,serif" font-size="14.00" fill="#000000">cytoplasmic part</text>
</g>
<!-- GO:0044391&#45;&gt;GO:0044444 -->
<g id="edge3" class="edge">
<title>GO:0044391&#45;&gt;GO:0044444</title>
<path fill="none" stroke="#000000" d="M291.2571,-213.6182C310.2942,-225.3966 334.2734,-240.2326 354.5437,-252.7739"/>
<polygon fill="#000000" stroke="#000000" points="352.9255,-255.8884 363.2709,-258.1735 356.6085,-249.9356 352.9255,-255.8884"/>
</g>
<!-- GO:0030529 -->
<g id="node5" class="node">
<title>GO:0030529</title>
<polygon fill="#ff0000" stroke="#000000" points="324.3471,-308.2014 156.8711,-308.2014 156.8711,-249.3986 324.3471,-249.3986 324.3471,-308.2014"/>
<text text-anchor="middle" x="240.6091" y="-291.4" font-family="Times,serif" font-size="14.00" fill="#000000">GO:0030529</text>
<text text-anchor="middle" x="240.6091" y="-274.6" font-family="Times,serif" font-size="14.00" fill="#000000">intracellular</text>
<text text-anchor="middle" x="240.6091" y="-257.8" font-family="Times,serif" font-size="14.00" fill="#000000">ribonucleoprotein complex</text>
</g>
<!-- GO:0044391&#45;&gt;GO:0030529 -->
<g id="edge4" class="edge">
<title>GO:0044391&#45;&gt;GO:0030529</title>
<path fill="none" stroke="#000000" d="M253.4939,-213.6182C251.9517,-221.4197 250.1444,-230.5626 248.3793,-239.4917"/>
<polygon fill="#000000" stroke="#000000" points="244.9266,-238.9102 246.4209,-249.3991 251.7938,-240.2677 244.9266,-238.9102"/>
</g>
<!-- GO:0044424 -->
<g id="node6" class="node">
<title>GO:0044424</title>
<polygon fill="#ffffff" stroke="#000000" points="229.0075,-385.4019 120.2107,-385.4019 120.2107,-344.1981 229.0075,-344.1981 229.0075,-385.4019"/>
<text text-anchor="middle" x="174.6091" y="-369" font-family="Times,serif" font-size="14.00" fill="#000000">GO:0044424</text>
<text text-anchor="middle" x="174.6091" y="-352.2" font-family="Times,serif" font-size="14.00" fill="#000000">intracellular part</text>
</g>
<!-- GO:0044446&#45;&gt;GO:0044424 -->
<g id="edge5" class="edge">
<title>GO:0044446&#45;&gt;GO:0044424</title>
<path fill="none" stroke="#000000" d="M105.4505,-308.1558C117.0196,-317.6314 129.7927,-328.0932 141.1804,-337.4203"/>
<polygon fill="#000000" stroke="#000000" points="139.2364,-340.3522 149.1905,-343.9809 143.6719,-334.9368 139.2364,-340.3522"/>
</g>
<!-- GO:0044422 -->
<g id="node7" class="node">
<title>GO:0044422</title>
<polygon fill="#ffffff" stroke="#000000" points="116.4612,-463.0019 22.757,-463.0019 22.757,-421.7981 116.4612,-421.7981 116.4612,-463.0019"/>
<text text-anchor="middle" x="69.6091" y="-446.6" font-family="Times,serif" font-size="14.00" fill="#000000">GO:0044422</text>
<text text-anchor="middle" x="69.6091" y="-429.8" font-family="Times,serif" font-size="14.00" fill="#000000">organelle part</text>
</g>
<!-- GO:0044446&#45;&gt;GO:0044422 -->
<g id="edge6" class="edge">
<title>GO:0044446&#45;&gt;GO:0044422</title>
<path fill="none" stroke="#000000" d="M69.6091,-308.0484C69.6091,-337.1891 69.6091,-381.7603 69.6091,-411.4759"/>
<polygon fill="#000000" stroke="#000000" points="66.1092,-411.6955 69.6091,-421.6955 73.1092,-411.6955 66.1092,-411.6955"/>
</g>
<!-- GO:0044444&#45;&gt;GO:0044424 -->
<g id="edge7" class="edge">
<title>GO:0044444&#45;&gt;GO:0044424</title>
<path fill="none" stroke="#000000" d="M353.4579,-299.4287C346.8525,-302.4035 340.0799,-305.351 333.6091,-308 302.778,-320.6214 267.9839,-333.2312 238.8223,-343.352"/>
<polygon fill="#000000" stroke="#000000" points="237.4738,-340.1148 229.1625,-346.6853 239.7572,-346.7319 237.4738,-340.1148"/>
</g>
<!-- GO:0030529&#45;&gt;GO:0044424 -->
<g id="edge8" class="edge">
<title>GO:0030529&#45;&gt;GO:0044424</title>
<path fill="none" stroke="#000000" d="M217.8956,-308.3963C211.0574,-317.3068 203.5643,-327.0705 196.7629,-335.9329"/>
<polygon fill="#000000" stroke="#000000" points="193.8094,-334.0326 190.4978,-344.0966 199.3626,-338.2943 193.8094,-334.0326"/>
</g>
<!-- GO:1990904 -->
<g id="node8" class="node">
<title>GO:1990904</title>
<polygon fill="#ffffff" stroke="#000000" points="414.3471,-385.4019 246.8711,-385.4019 246.8711,-344.1981 414.3471,-344.1981 414.3471,-385.4019"/>
<text text-anchor="middle" x="330.6091" y="-369" font-family="Times,serif" font-size="14.00" fill="#000000">GO:1990904</text>
<text text-anchor="middle" x="330.6091" y="-352.2" font-family="Times,serif" font-size="14.00" fill="#000000">ribonucleoprotein complex</text>
</g>
<!-- GO:0030529&#45;&gt;GO:1990904 -->
<g id="edge9" class="edge">
<title>GO:0030529&#45;&gt;GO:1990904</title>
<path fill="none" stroke="#000000" d="M271.3303,-308.1558C281.0541,-317.4474 291.7702,-327.6873 301.386,-336.8757"/>
<polygon fill="#000000" stroke="#000000" points="299.1738,-339.6028 308.8217,-343.9809 304.0098,-334.5419 299.1738,-339.6028"/>
</g>
<!-- GO:0044464 -->
<g id="node9" class="node">
<title>GO:0044464</title>
<polygon fill="#ffffff" stroke="#000000" points="223.213,-463.0019 134.0052,-463.0019 134.0052,-421.7981 223.213,-421.7981 223.213,-463.0019"/>
<text text-anchor="middle" x="178.6091" y="-446.6" font-family="Times,serif" font-size="14.00" fill="#000000">GO:0044464</text>
<text text-anchor="middle" x="178.6091" y="-429.8" font-family="Times,serif" font-size="14.00" fill="#000000">cell part</text>
</g>
<!-- GO:0044424&#45;&gt;GO:0044464 -->
<g id="edge10" class="edge">
<title>GO:0044424&#45;&gt;GO:0044464</title>
<path fill="none" stroke="#000000" d="M175.681,-385.5954C176.089,-393.5109 176.5633,-402.7109 177.0097,-411.3722"/>
<polygon fill="#000000" stroke="#000000" points="173.524,-411.7407 177.5342,-421.5472 180.5147,-411.3803 173.524,-411.7407"/>
</g>
<!-- GO:0005575 -->
<g id="node10" class="node">
<title>GO:0005575</title>
<polygon fill="#ffffff" stroke="#000000" points="242.2958,-540.6019 114.9224,-540.6019 114.9224,-499.3981 242.2958,-499.3981 242.2958,-540.6019"/>
<text text-anchor="middle" x="178.6091" y="-524.2" font-family="Times,serif" font-size="14.00" fill="#000000">GO:0005575</text>
<text text-anchor="middle" x="178.6091" y="-507.4" font-family="Times,serif" font-size="14.00" fill="#000000">cellular_component</text>
</g>
<!-- GO:0044422&#45;&gt;GO:0005575 -->
<g id="edge11" class="edge">
<title>GO:0044422&#45;&gt;GO:0005575</title>
<path fill="none" stroke="#000000" d="M98.8191,-463.1954C111.7702,-472.4156 127.1695,-483.3788 140.9692,-493.2031"/>
<polygon fill="#000000" stroke="#000000" points="139.1421,-496.1988 149.3185,-499.1472 143.2019,-490.4963 139.1421,-496.1988"/>
</g>
<!-- GO:0032991 -->
<g id="node11" class="node">
<title>GO:0032991</title>
<polygon fill="#ffffff" stroke="#000000" points="406.7764,-463.0019 248.4418,-463.0019 248.4418,-421.7981 406.7764,-421.7981 406.7764,-463.0019"/>
<text text-anchor="middle" x="327.6091" y="-446.6" font-family="Times,serif" font-size="14.00" fill="#000000">GO:0032991</text>
<text text-anchor="middle" x="327.6091" y="-429.8" font-family="Times,serif" font-size="14.00" fill="#000000">macromolecular complex</text>
</g>
<!-- GO:1990904&#45;&gt;GO:0032991 -->
<g id="edge12" class="edge">
<title>GO:1990904&#45;&gt;GO:0032991</title>
<path fill="none" stroke="#000000" d="M329.8052,-385.5954C329.4991,-393.5109 329.1435,-402.7109 328.8086,-411.3722"/>
<polygon fill="#000000" stroke="#000000" points="325.3043,-411.4194 328.4153,-421.5472 332.2991,-411.6899 325.3043,-411.4194"/>
</g>
<!-- GO:0044464&#45;&gt;GO:0005575 -->
<g id="edge16" class="edge">
<title>GO:0044464&#45;&gt;GO:0005575</title>
<path fill="none" stroke="#000000" d="M178.6091,-463.1954C178.6091,-471.1109 178.6091,-480.3109 178.6091,-488.9722"/>
<polygon fill="#000000" stroke="#000000" points="175.1092,-489.1472 178.6091,-499.1472 182.1092,-489.1473 175.1092,-489.1472"/>
</g>
<!-- GO:0032991&#45;&gt;GO:0005575 -->
<g id="edge17" class="edge">
<title>GO:0032991&#45;&gt;GO:0005575</title>
<path fill="none" stroke="#000000" d="M287.6798,-463.1954C269.15,-472.8458 246.954,-484.4056 227.4364,-494.5705"/>
<polygon fill="#000000" stroke="#000000" points="225.6425,-491.5584 218.39,-499.2819 228.876,-497.7669 225.6425,-491.5584"/>
</g>
<!-- GO:0022625 -->
<g id="node12" class="node">
<title>GO:0022625</title>
<polygon fill="#ffff00" stroke="#000000" points="397.1274,-58.6014 240.0908,-58.6014 240.0908,.2014 397.1274,.2014 397.1274,-58.6014"/>
<text text-anchor="middle" x="318.6091" y="-41.8" font-family="Times,serif" font-size="14.00" fill="#000000">GO:0022625</text>
<text text-anchor="middle" x="318.6091" y="-25" font-family="Times,serif" font-size="14.00" fill="#000000">cytosolic large ribosomal</text>
<text text-anchor="middle" x="318.6091" y="-8.2" font-family="Times,serif" font-size="14.00" fill="#000000">subunit</text>
</g>
<!-- GO:0022625&#45;&gt;GO:0015934 -->
<g id="edge14" class="edge">
<title>GO:0022625&#45;&gt;GO:0015934</title>
<path fill="none" stroke="#000000" d="M301.0578,-58.7963C295.8826,-67.5231 290.2221,-77.0682 285.0537,-85.7836"/>
<polygon fill="#000000" stroke="#000000" points="281.9771,-84.11 279.8867,-94.4966 287.998,-87.6805 281.9771,-84.11"/>
</g>
<!-- GO:0044445 -->
<g id="node13" class="node">
<title>GO:0044445</title>
<polygon fill="#ff0000" stroke="#000000" points="433.4207,-213.4019 341.7975,-213.4019 341.7975,-172.1981 433.4207,-172.1981 433.4207,-213.4019"/>
<text text-anchor="middle" x="387.6091" y="-197" font-family="Times,serif" font-size="14.00" fill="#000000">GO:0044445</text>
<text text-anchor="middle" x="387.6091" y="-180.2" font-family="Times,serif" font-size="14.00" fill="#000000">cytosolic part</text>
</g>
<!-- GO:0022625&#45;&gt;GO:0044445 -->
<g id="edge13" class="edge">
<title>GO:0022625&#45;&gt;GO:0044445</title>
<path fill="none" stroke="#000000" d="M333.7155,-58.4543C339.2699,-69.5952 345.4564,-82.4783 350.6091,-94.4 360.2898,-116.7984 369.9506,-142.6396 376.9718,-162.2186"/>
<polygon fill="#000000" stroke="#000000" points="373.7426,-163.5842 380.389,-171.835 380.3385,-161.2403 373.7426,-163.5842"/>
</g>
<!-- GO:0044445&#45;&gt;GO:0044444 -->
<g id="edge15" class="edge">
<title>GO:0044445&#45;&gt;GO:0044444</title>
<path fill="none" stroke="#000000" d="M389.7877,-213.6182C390.8711,-223.9705 392.2017,-236.6848 393.3992,-248.1271"/>
<polygon fill="#000000" stroke="#000000" points="389.9286,-248.5921 394.4505,-258.1735 396.8906,-247.8635 389.9286,-248.5921"/>
</g>
</g>
</svg>
