<?xml version="1.0" encoding="UTF-8" standalone="no"?>
<!DOCTYPE svg PUBLIC "-//W3C//DTD SVG 1.1//EN"
 "http://www.w3.org/Graphics/SVG/1.1/DTD/svg11.dtd">
<!-- Generated by graphviz version 2.40.1 (20161225.0304)
 -->
<!-- Title: G Pages: 1 -->
<svg width="1056pt" height="410pt"
 viewBox="0.00 0.00 1056.01 410.40" xmlns="http://www.w3.org/2000/svg" xmlns:xlink="http://www.w3.org/1999/xlink">
<g id="graph0" class="graph" transform="scale(1 1) rotate(0) translate(4 406.4)">
<title>G</title>
<polygon fill="#ffffff" stroke="transparent" points="-4,4 -4,-406.4 1052.0141,-406.4 1052.0141,4 -4,4"/>
<!-- GO:0016787 -->
<g id="node1" class="node">
<title>GO:0016787</title>
<polygon fill="#ff00ff" stroke="#000000" points="1014.133,-238.6019 898.2998,-238.6019 898.2998,-197.3981 1014.133,-197.3981 1014.133,-238.6019"/>
<text text-anchor="middle" x="956.2164" y="-222.2" font-family="Times,serif" font-size="14.00" fill="#000000">GO:0016787</text>
<text text-anchor="middle" x="956.2164" y="-205.4" font-family="Times,serif" font-size="14.00" fill="#000000">hydrolase activity</text>
</g>
<!-- GO:0003824 -->
<g id="node2" class="node">
<title>GO:0003824</title>
<polygon fill="#ff0000" stroke="#000000" points="798.6288,-324.6019 689.804,-324.6019 689.804,-283.3981 798.6288,-283.3981 798.6288,-324.6019"/>
<text text-anchor="middle" x="744.2164" y="-308.2" font-family="Times,serif" font-size="14.00" fill="#000000">GO:0003824</text>
<text text-anchor="middle" x="744.2164" y="-291.4" font-family="Times,serif" font-size="14.00" fill="#000000">catalytic activity</text>
</g>
<!-- GO:0016787&#45;&gt;GO:0003824 -->
<g id="edge1" class="edge">
<title>GO:0016787&#45;&gt;GO:0003824</title>
<path fill="none" stroke="#000000" d="M905.1673,-238.7086C874.966,-250.9601 836.5385,-266.5486 804.8061,-279.4212"/>
<polygon fill="#000000" stroke="#000000" points="803.1404,-276.3198 795.1895,-283.3222 805.7718,-282.8064 803.1404,-276.3198"/>
</g>
<!-- GO:0003674 -->
<g id="node3" class="node">
<title>GO:0003674</title>
<polygon fill="#ffffff" stroke="#000000" points="433.8495,-402.2019 308.5833,-402.2019 308.5833,-360.9981 433.8495,-360.9981 433.8495,-402.2019"/>
<text text-anchor="middle" x="371.2164" y="-385.8" font-family="Times,serif" font-size="14.00" fill="#000000">GO:0003674</text>
<text text-anchor="middle" x="371.2164" y="-369" font-family="Times,serif" font-size="14.00" fill="#000000">molecular_function</text>
</g>
<!-- GO:0003824&#45;&gt;GO:0003674 -->
<g id="edge2" class="edge">
<title>GO:0003824&#45;&gt;GO:0003674</title>
<path fill="none" stroke="#000000" d="M689.5795,-315.3668C624.6434,-328.8763 516.0414,-351.4702 444.0199,-366.4538"/>
<polygon fill="#000000" stroke="#000000" points="443.1859,-363.0522 434.1085,-368.5157 444.6118,-369.9055 443.1859,-363.0522"/>
</g>
<!-- GO:0022857 -->
<g id="node4" class="node">
<title>GO:0022857</title>
<polygon fill="#ffffff" stroke="#000000" points="166.6498,-247.4014 -.217,-247.4014 -.217,-188.5986 166.6498,-188.5986 166.6498,-247.4014"/>
<text text-anchor="middle" x="83.2164" y="-230.6" font-family="Times,serif" font-size="14.00" fill="#000000">GO:0022857</text>
<text text-anchor="middle" x="83.2164" y="-213.8" font-family="Times,serif" font-size="14.00" fill="#000000">transmembrane transporter</text>
<text text-anchor="middle" x="83.2164" y="-197" font-family="Times,serif" font-size="14.00" fill="#000000">activity</text>
</g>
<!-- GO:0005215 -->
<g id="node5" class="node">
<title>GO:0005215</title>
<polygon fill="#ffffff" stroke="#000000" points="226.3449,-324.6019 104.0879,-324.6019 104.0879,-283.3981 226.3449,-283.3981 226.3449,-324.6019"/>
<text text-anchor="middle" x="165.2164" y="-308.2" font-family="Times,serif" font-size="14.00" fill="#000000">GO:0005215</text>
<text text-anchor="middle" x="165.2164" y="-291.4" font-family="Times,serif" font-size="14.00" fill="#000000">transporter activity</text>
</g>
<!-- GO:0022857&#45;&gt;GO:0005215 -->
<g id="edge3" class="edge">
<title>GO:0022857&#45;&gt;GO:0005215</title>
<path fill="none" stroke="#000000" d="M111.4361,-247.5963C120.1949,-256.7824 129.8183,-266.8752 138.4735,-275.9526"/>
<polygon fill="#000000" stroke="#000000" points="136.042,-278.4744 145.4759,-283.2966 141.1082,-273.6439 136.042,-278.4744"/>
</g>
<!-- GO:0005215&#45;&gt;GO:0003674 -->
<g id="edge4" class="edge">
<title>GO:0005215&#45;&gt;GO:0003674</title>
<path fill="none" stroke="#000000" d="M220.15,-324.6934C246.8045,-334.7341 278.9948,-346.8602 306.8,-357.3344"/>
<polygon fill="#000000" stroke="#000000" points="305.844,-360.7143 316.4359,-360.9642 308.3117,-354.1637 305.844,-360.7143"/>
</g>
<!-- GO:0016772 -->
<g id="node6" class="node">
<title>GO:0016772</title>
<polygon fill="#ffffff" stroke="#000000" points="706.2242,-152.9003 552.2086,-152.9003 552.2086,-77.4997 706.2242,-77.4997 706.2242,-152.9003"/>
<text text-anchor="middle" x="629.2164" y="-136.2" font-family="Times,serif" font-size="14.00" fill="#000000">GO:0016772</text>
<text text-anchor="middle" x="629.2164" y="-119.4" font-family="Times,serif" font-size="14.00" fill="#000000">transferase activity,</text>
<text text-anchor="middle" x="629.2164" y="-102.6" font-family="Times,serif" font-size="14.00" fill="#000000">transferring phosphorus&#45;</text>
<text text-anchor="middle" x="629.2164" y="-85.8" font-family="Times,serif" font-size="14.00" fill="#000000">containing groups</text>
</g>
<!-- GO:0016740 -->
<g id="node7" class="node">
<title>GO:0016740</title>
<polygon fill="#ff00ff" stroke="#000000" points="743.3281,-238.6019 621.1047,-238.6019 621.1047,-197.3981 743.3281,-197.3981 743.3281,-238.6019"/>
<text text-anchor="middle" x="682.2164" y="-222.2" font-family="Times,serif" font-size="14.00" fill="#000000">GO:0016740</text>
<text text-anchor="middle" x="682.2164" y="-205.4" font-family="Times,serif" font-size="14.00" fill="#000000">transferase activity</text>
</g>
<!-- GO:0016772&#45;&gt;GO:0016740 -->
<g id="edge5" class="edge">
<title>GO:0016772&#45;&gt;GO:0016740</title>
<path fill="none" stroke="#000000" d="M648.6507,-152.8952C654.6374,-164.5071 661.1431,-177.1257 666.8192,-188.1352"/>
<polygon fill="#000000" stroke="#000000" points="663.8664,-190.0458 671.5598,-197.3302 670.0882,-186.8381 663.8664,-190.0458"/>
</g>
<!-- GO:0016740&#45;&gt;GO:0003824 -->
<g id="edge6" class="edge">
<title>GO:0016740&#45;&gt;GO:0003824</title>
<path fill="none" stroke="#000000" d="M697.2249,-238.8182C705.0689,-249.6987 714.7941,-263.1884 723.3585,-275.0681"/>
<polygon fill="#000000" stroke="#000000" points="720.659,-277.3086 729.3461,-283.3735 726.3372,-273.2149 720.659,-277.3086"/>
</g>
<!-- GO:0016829 -->
<g id="node8" class="node">
<title>GO:0016829</title>
<polygon fill="#ffffff" stroke="#000000" points="851.4728,-238.6019 760.96,-238.6019 760.96,-197.3981 851.4728,-197.3981 851.4728,-238.6019"/>
<text text-anchor="middle" x="806.2164" y="-222.2" font-family="Times,serif" font-size="14.00" fill="#000000">GO:0016829</text>
<text text-anchor="middle" x="806.2164" y="-205.4" font-family="Times,serif" font-size="14.00" fill="#000000">lyase activity</text>
</g>
<!-- GO:0016829&#45;&gt;GO:0003824 -->
<g id="edge7" class="edge">
<title>GO:0016829&#45;&gt;GO:0003824</title>
<path fill="none" stroke="#000000" d="M791.2079,-238.8182C783.3639,-249.6987 773.6387,-263.1884 765.0743,-275.0681"/>
<polygon fill="#000000" stroke="#000000" points="762.0956,-273.2149 759.0867,-283.3735 767.7738,-277.3086 762.0956,-273.2149"/>
</g>
<!-- GO:0030247 -->
<g id="node9" class="node">
<title>GO:0030247</title>
<polygon fill="#ffffff" stroke="#000000" points="414.4572,-135.8019 267.9756,-135.8019 267.9756,-94.5981 414.4572,-94.5981 414.4572,-135.8019"/>
<text text-anchor="middle" x="341.2164" y="-119.4" font-family="Times,serif" font-size="14.00" fill="#000000">GO:0030247</text>
<text text-anchor="middle" x="341.2164" y="-102.6" font-family="Times,serif" font-size="14.00" fill="#000000">polysaccharide binding</text>
</g>
<!-- GO:0001871 -->
<g id="node10" class="node">
<title>GO:0001871</title>
<polygon fill="#ffffff" stroke="#000000" points="285.8687,-238.6019 184.5641,-238.6019 184.5641,-197.3981 285.8687,-197.3981 285.8687,-238.6019"/>
<text text-anchor="middle" x="235.2164" y="-222.2" font-family="Times,serif" font-size="14.00" fill="#000000">GO:0001871</text>
<text text-anchor="middle" x="235.2164" y="-205.4" font-family="Times,serif" font-size="14.00" fill="#000000">pattern binding</text>
</g>
<!-- GO:0030247&#45;&gt;GO:0001871 -->
<g id="edge8" class="edge">
<title>GO:0030247&#45;&gt;GO:0001871</title>
<path fill="none" stroke="#000000" d="M319.7657,-136.0031C303.674,-151.609 281.4817,-173.1314 263.871,-190.2105"/>
<polygon fill="#000000" stroke="#000000" points="261.3771,-187.7534 256.6352,-197.2278 266.2505,-192.7784 261.3771,-187.7534"/>
</g>
<!-- GO:0030246 -->
<g id="node11" class="node">
<title>GO:0030246</title>
<polygon fill="#ffffff" stroke="#000000" points="439.0683,-238.6019 303.3645,-238.6019 303.3645,-197.3981 439.0683,-197.3981 439.0683,-238.6019"/>
<text text-anchor="middle" x="371.2164" y="-222.2" font-family="Times,serif" font-size="14.00" fill="#000000">GO:0030246</text>
<text text-anchor="middle" x="371.2164" y="-205.4" font-family="Times,serif" font-size="14.00" fill="#000000">carbohydrate binding</text>
</g>
<!-- GO:0030247&#45;&gt;GO:0030246 -->
<g id="edge9" class="edge">
<title>GO:0030247&#45;&gt;GO:0030246</title>
<path fill="none" stroke="#000000" d="M347.2873,-136.0031C351.5976,-150.773 357.4545,-170.8424 362.2949,-187.429"/>
<polygon fill="#000000" stroke="#000000" points="358.9931,-188.6088 365.1545,-197.2278 365.7128,-186.6477 358.9931,-188.6088"/>
</g>
<!-- GO:0005488 -->
<g id="node12" class="node">
<title>GO:0005488</title>
<polygon fill="#ffffff" stroke="#000000" points="415.8203,-324.6019 326.6125,-324.6019 326.6125,-283.3981 415.8203,-283.3981 415.8203,-324.6019"/>
<text text-anchor="middle" x="371.2164" y="-308.2" font-family="Times,serif" font-size="14.00" fill="#000000">GO:0005488</text>
<text text-anchor="middle" x="371.2164" y="-291.4" font-family="Times,serif" font-size="14.00" fill="#000000">binding</text>
</g>
<!-- GO:0001871&#45;&gt;GO:0005488 -->
<g id="edge10" class="edge">
<title>GO:0001871&#45;&gt;GO:0005488</title>
<path fill="none" stroke="#000000" d="M268.1382,-238.8182C286.7644,-250.5966 310.2261,-265.4326 330.0589,-277.9739"/>
<polygon fill="#000000" stroke="#000000" points="328.2752,-280.987 338.5978,-283.3735 332.0164,-275.0707 328.2752,-280.987"/>
</g>
<!-- GO:0030246&#45;&gt;GO:0005488 -->
<g id="edge11" class="edge">
<title>GO:0030246&#45;&gt;GO:0005488</title>
<path fill="none" stroke="#000000" d="M371.2164,-238.8182C371.2164,-249.1705 371.2164,-261.8848 371.2164,-273.3271"/>
<polygon fill="#000000" stroke="#000000" points="367.7165,-273.3735 371.2164,-283.3735 374.7165,-273.3735 367.7165,-273.3735"/>
</g>
<!-- GO:0005488&#45;&gt;GO:0003674 -->
<g id="edge12" class="edge">
<title>GO:0005488&#45;&gt;GO:0003674</title>
<path fill="none" stroke="#000000" d="M371.2164,-324.7954C371.2164,-332.7109 371.2164,-341.9109 371.2164,-350.5722"/>
<polygon fill="#000000" stroke="#000000" points="367.7165,-350.7472 371.2164,-360.7472 374.7165,-350.7473 367.7165,-350.7472"/>
</g>
<!-- GO:0016798 -->
<g id="node13" class="node">
<title>GO:0016798</title>
<polygon fill="#ffffff" stroke="#000000" points="1047.8123,-144.6014 892.6205,-144.6014 892.6205,-85.7986 1047.8123,-85.7986 1047.8123,-144.6014"/>
<text text-anchor="middle" x="970.2164" y="-127.8" font-family="Times,serif" font-size="14.00" fill="#000000">GO:0016798</text>
<text text-anchor="middle" x="970.2164" y="-111" font-family="Times,serif" font-size="14.00" fill="#000000">hydrolase activity,</text>
<text text-anchor="middle" x="970.2164" y="-94.2" font-family="Times,serif" font-size="14.00" fill="#000000">acting on glycosyl bonds</text>
</g>
<!-- GO:0016798&#45;&gt;GO:0016787 -->
<g id="edge13" class="edge">
<title>GO:0016798&#45;&gt;GO:0016787</title>
<path fill="none" stroke="#000000" d="M966.2046,-144.6584C964.3939,-157.9539 962.2548,-173.6608 960.4217,-187.1212"/>
<polygon fill="#000000" stroke="#000000" points="956.9108,-186.9648 959.0293,-197.3456 963.8467,-187.9094 956.9108,-186.9648"/>
</g>
<!-- GO:0016746 -->
<g id="node14" class="node">
<title>GO:0016746</title>
<polygon fill="#ff00ff" stroke="#000000" points="873.9391,-144.6014 724.4937,-144.6014 724.4937,-85.7986 873.9391,-85.7986 873.9391,-144.6014"/>
<text text-anchor="middle" x="799.2164" y="-127.8" font-family="Times,serif" font-size="14.00" fill="#000000">GO:0016746</text>
<text text-anchor="middle" x="799.2164" y="-111" font-family="Times,serif" font-size="14.00" fill="#000000">transferase activity,</text>
<text text-anchor="middle" x="799.2164" y="-94.2" font-family="Times,serif" font-size="14.00" fill="#000000">transferring acyl groups</text>
</g>
<!-- GO:0016746&#45;&gt;GO:0016740 -->
<g id="edge14" class="edge">
<title>GO:0016746&#45;&gt;GO:0016740</title>
<path fill="none" stroke="#000000" d="M765.6889,-144.6584C749.2083,-159.1387 729.4725,-176.4792 713.3298,-190.6628"/>
<polygon fill="#000000" stroke="#000000" points="710.9259,-188.1158 705.7238,-197.3456 715.5462,-193.3744 710.9259,-188.1158"/>
</g>
<!-- GO:0046872 -->
<g id="node15" class="node">
<title>GO:0046872</title>
<polygon fill="#ffffff" stroke="#000000" points="543.4894,-41.4019 428.9434,-41.4019 428.9434,-.1981 543.4894,-.1981 543.4894,-41.4019"/>
<text text-anchor="middle" x="486.2164" y="-25" font-family="Times,serif" font-size="14.00" fill="#000000">GO:0046872</text>
<text text-anchor="middle" x="486.2164" y="-8.2" font-family="Times,serif" font-size="14.00" fill="#000000">metal ion binding</text>
</g>
<!-- GO:0043169 -->
<g id="node16" class="node">
<title>GO:0043169</title>
<polygon fill="#ffffff" stroke="#000000" points="534.7093,-135.8019 437.7235,-135.8019 437.7235,-94.5981 534.7093,-94.5981 534.7093,-135.8019"/>
<text text-anchor="middle" x="486.2164" y="-119.4" font-family="Times,serif" font-size="14.00" fill="#000000">GO:0043169</text>
<text text-anchor="middle" x="486.2164" y="-102.6" font-family="Times,serif" font-size="14.00" fill="#000000">cation binding</text>
</g>
<!-- GO:0046872&#45;&gt;GO:0043169 -->
<g id="edge15" class="edge">
<title>GO:0046872&#45;&gt;GO:0043169</title>
<path fill="none" stroke="#000000" d="M486.2164,-41.7504C486.2164,-54.2165 486.2164,-70.2645 486.2164,-84.1786"/>
<polygon fill="#000000" stroke="#000000" points="482.7165,-84.3081 486.2164,-94.3081 489.7165,-84.3082 482.7165,-84.3081"/>
</g>
<!-- GO:0043167 -->
<g id="node17" class="node">
<title>GO:0043167</title>
<polygon fill="#ffffff" stroke="#000000" points="545.8203,-238.6019 456.6125,-238.6019 456.6125,-197.3981 545.8203,-197.3981 545.8203,-238.6019"/>
<text text-anchor="middle" x="501.2164" y="-222.2" font-family="Times,serif" font-size="14.00" fill="#000000">GO:0043167</text>
<text text-anchor="middle" x="501.2164" y="-205.4" font-family="Times,serif" font-size="14.00" fill="#000000">ion binding</text>
</g>
<!-- GO:0043169&#45;&gt;GO:0043167 -->
<g id="edge16" class="edge">
<title>GO:0043169&#45;&gt;GO:0043167</title>
<path fill="none" stroke="#000000" d="M489.2519,-136.0031C491.3867,-150.6337 494.2802,-170.4642 496.687,-186.9586"/>
<polygon fill="#000000" stroke="#000000" points="493.2782,-187.838 498.1854,-197.2278 500.2048,-186.8272 493.2782,-187.838"/>
</g>
<!-- GO:0043167&#45;&gt;GO:0005488 -->
<g id="edge17" class="edge">
<title>GO:0043167&#45;&gt;GO:0005488</title>
<path fill="none" stroke="#000000" d="M469.747,-238.8182C452.0224,-250.5437 429.717,-265.2996 410.8134,-277.8051"/>
<polygon fill="#000000" stroke="#000000" points="408.8051,-274.937 402.396,-283.3735 412.6673,-280.7752 408.8051,-274.937"/>
</g>
</g>
</svg>
