<?xml version="1.0" encoding="UTF-8" standalone="no"?>
<!DOCTYPE svg PUBLIC "-//W3C//DTD SVG 1.1//EN"
 "http://www.w3.org/Graphics/SVG/1.1/DTD/svg11.dtd">
<!-- Generated by graphviz version 2.40.1 (20161225.0304)
 -->
<!-- Title: G Pages: 1 -->
<svg width="540pt" height="488pt"
 viewBox="0.00 0.00 540.22 488.00" xmlns="http://www.w3.org/2000/svg" xmlns:xlink="http://www.w3.org/1999/xlink">
<g id="graph0" class="graph" transform="scale(1 1) rotate(0) translate(4 484)">
<title>G</title>
<polygon fill="#ffffff" stroke="transparent" points="-4,4 -4,-484 536.2203,-484 536.2203,4 -4,4"/>
<!-- GO:0005737 -->
<g id="node1" class="node">
<title>GO:0005737</title>
<polygon fill="#ffffff" stroke="#000000" points="97.0531,-221.8019 7.8453,-221.8019 7.8453,-180.5981 97.0531,-180.5981 97.0531,-221.8019"/>
<text text-anchor="middle" x="52.4492" y="-205.4" font-family="Times,serif" font-size="14.00" fill="#000000">GO:0005737</text>
<text text-anchor="middle" x="52.4492" y="-188.6" font-family="Times,serif" font-size="14.00" fill="#000000">cytoplasm</text>
</g>
<!-- GO:0044424 -->
<g id="node2" class="node">
<title>GO:0044424</title>
<polygon fill="#ffffff" stroke="#000000" points="108.8476,-316.2019 .0508,-316.2019 .0508,-274.9981 108.8476,-274.9981 108.8476,-316.2019"/>
<text text-anchor="middle" x="54.4492" y="-299.8" font-family="Times,serif" font-size="14.00" fill="#000000">GO:0044424</text>
<text text-anchor="middle" x="54.4492" y="-283" font-family="Times,serif" font-size="14.00" fill="#000000">intracellular part</text>
</g>
<!-- GO:0005737&#45;&gt;GO:0044424 -->
<g id="edge1" class="edge">
<title>GO:0005737&#45;&gt;GO:0044424</title>
<path fill="none" stroke="#000000" d="M52.8931,-222.1504C53.1572,-234.6165 53.4972,-250.6645 53.792,-264.5786"/>
<polygon fill="#000000" stroke="#000000" points="50.2954,-264.7846 54.0066,-274.7081 57.2939,-264.6362 50.2954,-264.7846"/>
</g>
<!-- GO:0044464 -->
<g id="node3" class="node">
<title>GO:0044464</title>
<polygon fill="#ffffff" stroke="#000000" points="102.0531,-402.2019 12.8453,-402.2019 12.8453,-360.9981 102.0531,-360.9981 102.0531,-402.2019"/>
<text text-anchor="middle" x="57.4492" y="-385.8" font-family="Times,serif" font-size="14.00" fill="#000000">GO:0044464</text>
<text text-anchor="middle" x="57.4492" y="-369" font-family="Times,serif" font-size="14.00" fill="#000000">cell part</text>
</g>
<!-- GO:0044424&#45;&gt;GO:0044464 -->
<g id="edge2" class="edge">
<title>GO:0044424&#45;&gt;GO:0044464</title>
<path fill="none" stroke="#000000" d="M55.1754,-316.4182C55.5365,-326.7705 55.9801,-339.4848 56.3792,-350.9271"/>
<polygon fill="#000000" stroke="#000000" points="52.8831,-351.1016 56.7297,-360.9735 59.8788,-350.8575 52.8831,-351.1016"/>
</g>
<!-- GO:0005575 -->
<g id="node4" class="node">
<title>GO:0005575</title>
<polygon fill="#ffffff" stroke="#000000" points="309.1359,-479.8019 181.7625,-479.8019 181.7625,-438.5981 309.1359,-438.5981 309.1359,-479.8019"/>
<text text-anchor="middle" x="245.4492" y="-463.4" font-family="Times,serif" font-size="14.00" fill="#000000">GO:0005575</text>
<text text-anchor="middle" x="245.4492" y="-446.6" font-family="Times,serif" font-size="14.00" fill="#000000">cellular_component</text>
</g>
<!-- GO:0044464&#45;&gt;GO:0005575 -->
<g id="edge3" class="edge">
<title>GO:0044464&#45;&gt;GO:0005575</title>
<path fill="none" stroke="#000000" d="M102.0026,-399.9901C127.0622,-410.3339 158.6762,-423.3831 185.8439,-434.597"/>
<polygon fill="#000000" stroke="#000000" points="184.6711,-437.8993 195.25,-438.4795 187.3419,-431.4288 184.6711,-437.8993"/>
</g>
<!-- GO:0020003 -->
<g id="node5" class="node">
<title>GO:0020003</title>
<polygon fill="#ffffff" stroke="#000000" points="402.3273,-58.6014 270.5711,-58.6014 270.5711,.2014 402.3273,.2014 402.3273,-58.6014"/>
<text text-anchor="middle" x="336.4492" y="-41.8" font-family="Times,serif" font-size="14.00" fill="#000000">GO:0020003</text>
<text text-anchor="middle" x="336.4492" y="-25" font-family="Times,serif" font-size="14.00" fill="#000000">symbiont&#45;containing</text>
<text text-anchor="middle" x="336.4492" y="-8.2" font-family="Times,serif" font-size="14.00" fill="#000000">vacuole</text>
</g>
<!-- GO:0033655 -->
<g id="node6" class="node">
<title>GO:0033655</title>
<polygon fill="#ffffff" stroke="#000000" points="264.3066,-135.8019 114.5918,-135.8019 114.5918,-94.5981 264.3066,-94.5981 264.3066,-135.8019"/>
<text text-anchor="middle" x="189.4492" y="-119.4" font-family="Times,serif" font-size="14.00" fill="#000000">GO:0033655</text>
<text text-anchor="middle" x="189.4492" y="-102.6" font-family="Times,serif" font-size="14.00" fill="#000000">host cell cytoplasm part</text>
</g>
<!-- GO:0020003&#45;&gt;GO:0033655 -->
<g id="edge4" class="edge">
<title>GO:0020003&#45;&gt;GO:0033655</title>
<path fill="none" stroke="#000000" d="M286.2713,-58.5558C269.2883,-68.4914 250.4521,-79.5112 233.9418,-89.1703"/>
<polygon fill="#000000" stroke="#000000" points="231.8993,-86.3102 225.0353,-94.3809 235.4341,-92.3522 231.8993,-86.3102"/>
</g>
<!-- GO:0065010 -->
<g id="node7" class="node">
<title>GO:0065010</title>
<polygon fill="#ffffff" stroke="#000000" points="421.1521,-230.6014 267.7463,-230.6014 267.7463,-171.7986 421.1521,-171.7986 421.1521,-230.6014"/>
<text text-anchor="middle" x="344.4492" y="-213.8" font-family="Times,serif" font-size="14.00" fill="#000000">GO:0065010</text>
<text text-anchor="middle" x="344.4492" y="-197" font-family="Times,serif" font-size="14.00" fill="#000000">extracellular membrane&#45;</text>
<text text-anchor="middle" x="344.4492" y="-180.2" font-family="Times,serif" font-size="14.00" fill="#000000">bounded organelle</text>
</g>
<!-- GO:0020003&#45;&gt;GO:0065010 -->
<g id="edge5" class="edge">
<title>GO:0020003&#45;&gt;GO:0065010</title>
<path fill="none" stroke="#000000" d="M337.8244,-58.7679C339.145,-87.1587 341.1488,-130.2404 342.6068,-161.5878"/>
<polygon fill="#000000" stroke="#000000" points="339.1176,-161.9041 343.0785,-171.7307 346.11,-161.5788 339.1176,-161.9041"/>
</g>
<!-- GO:0033646 -->
<g id="node8" class="node">
<title>GO:0033646</title>
<polygon fill="#ffffff" stroke="#000000" points="250.1831,-221.8019 114.7153,-221.8019 114.7153,-180.5981 250.1831,-180.5981 250.1831,-221.8019"/>
<text text-anchor="middle" x="182.4492" y="-205.4" font-family="Times,serif" font-size="14.00" fill="#000000">GO:0033646</text>
<text text-anchor="middle" x="182.4492" y="-188.6" font-family="Times,serif" font-size="14.00" fill="#000000">host intracellular part</text>
</g>
<!-- GO:0033655&#45;&gt;GO:0033646 -->
<g id="edge6" class="edge">
<title>GO:0033655&#45;&gt;GO:0033646</title>
<path fill="none" stroke="#000000" d="M187.7547,-136.0182C186.9121,-146.3705 185.8772,-159.0848 184.9458,-170.5271"/>
<polygon fill="#000000" stroke="#000000" points="181.451,-170.3225 184.1281,-180.5735 188.4279,-170.8905 181.451,-170.3225"/>
</g>
<!-- GO:0043230 -->
<g id="node9" class="node">
<title>GO:0043230</title>
<polygon fill="#ffffff" stroke="#000000" points="531.9921,-316.2019 390.9063,-316.2019 390.9063,-274.9981 531.9921,-274.9981 531.9921,-316.2019"/>
<text text-anchor="middle" x="461.4492" y="-299.8" font-family="Times,serif" font-size="14.00" fill="#000000">GO:0043230</text>
<text text-anchor="middle" x="461.4492" y="-283" font-family="Times,serif" font-size="14.00" fill="#000000">extracellular organelle</text>
</g>
<!-- GO:0065010&#45;&gt;GO:0043230 -->
<g id="edge7" class="edge">
<title>GO:0065010&#45;&gt;GO:0043230</title>
<path fill="none" stroke="#000000" d="M380.8274,-230.5513C395.8829,-242.6987 413.231,-256.6958 427.9687,-268.5867"/>
<polygon fill="#000000" stroke="#000000" points="425.8762,-271.3955 435.8567,-274.951 430.2718,-265.9477 425.8762,-271.3955"/>
</g>
<!-- GO:0043227 -->
<g id="node10" class="node">
<title>GO:0043227</title>
<polygon fill="#ffffff" stroke="#000000" points="372.41,-325.0014 244.4884,-325.0014 244.4884,-266.1986 372.41,-266.1986 372.41,-325.0014"/>
<text text-anchor="middle" x="308.4492" y="-308.2" font-family="Times,serif" font-size="14.00" fill="#000000">GO:0043227</text>
<text text-anchor="middle" x="308.4492" y="-291.4" font-family="Times,serif" font-size="14.00" fill="#000000">membrane&#45;bounded</text>
<text text-anchor="middle" x="308.4492" y="-274.6" font-family="Times,serif" font-size="14.00" fill="#000000">organelle</text>
</g>
<!-- GO:0065010&#45;&gt;GO:0043227 -->
<g id="edge8" class="edge">
<title>GO:0065010&#45;&gt;GO:0043227</title>
<path fill="none" stroke="#000000" d="M333.2559,-230.5513C330.1066,-238.8094 326.6314,-247.9223 323.3041,-256.6473"/>
<polygon fill="#000000" stroke="#000000" points="319.9286,-255.6761 319.6356,-266.2669 326.4691,-258.1704 319.9286,-255.6761"/>
</g>
<!-- GO:0033643 -->
<g id="node11" class="node">
<title>GO:0033643</title>
<polygon fill="#ffffff" stroke="#000000" points="226.0531,-316.2019 136.8453,-316.2019 136.8453,-274.9981 226.0531,-274.9981 226.0531,-316.2019"/>
<text text-anchor="middle" x="181.4492" y="-299.8" font-family="Times,serif" font-size="14.00" fill="#000000">GO:0033643</text>
<text text-anchor="middle" x="181.4492" y="-283" font-family="Times,serif" font-size="14.00" fill="#000000">host cell part</text>
</g>
<!-- GO:0033646&#45;&gt;GO:0033643 -->
<g id="edge9" class="edge">
<title>GO:0033646&#45;&gt;GO:0033643</title>
<path fill="none" stroke="#000000" d="M182.2273,-222.1504C182.0952,-234.6165 181.9252,-250.6645 181.7778,-264.5786"/>
<polygon fill="#000000" stroke="#000000" points="178.2767,-264.6716 181.6705,-274.7081 185.2763,-264.7458 178.2767,-264.6716"/>
</g>
<!-- GO:0043226 -->
<g id="node12" class="node">
<title>GO:0043226</title>
<polygon fill="#ffffff" stroke="#000000" points="353.0531,-402.2019 263.8453,-402.2019 263.8453,-360.9981 353.0531,-360.9981 353.0531,-402.2019"/>
<text text-anchor="middle" x="308.4492" y="-385.8" font-family="Times,serif" font-size="14.00" fill="#000000">GO:0043226</text>
<text text-anchor="middle" x="308.4492" y="-369" font-family="Times,serif" font-size="14.00" fill="#000000">organelle</text>
</g>
<!-- GO:0043230&#45;&gt;GO:0043226 -->
<g id="edge10" class="edge">
<title>GO:0043230&#45;&gt;GO:0043226</title>
<path fill="none" stroke="#000000" d="M424.4122,-316.4182C403.2697,-328.3022 376.5894,-343.299 354.1521,-355.9108"/>
<polygon fill="#000000" stroke="#000000" points="352.1475,-353.0225 345.1452,-360.9735 355.5774,-359.1246 352.1475,-353.0225"/>
</g>
<!-- GO:0044421 -->
<g id="node13" class="node">
<title>GO:0044421</title>
<polygon fill="#ffffff" stroke="#000000" points="528.9382,-402.2019 377.9602,-402.2019 377.9602,-360.9981 528.9382,-360.9981 528.9382,-402.2019"/>
<text text-anchor="middle" x="453.4492" y="-385.8" font-family="Times,serif" font-size="14.00" fill="#000000">GO:0044421</text>
<text text-anchor="middle" x="453.4492" y="-369" font-family="Times,serif" font-size="14.00" fill="#000000">extracellular region part</text>
</g>
<!-- GO:0043230&#45;&gt;GO:0044421 -->
<g id="edge11" class="edge">
<title>GO:0043230&#45;&gt;GO:0044421</title>
<path fill="none" stroke="#000000" d="M459.5126,-316.4182C458.5496,-326.7705 457.3669,-339.4848 456.3025,-350.9271"/>
<polygon fill="#000000" stroke="#000000" points="452.8093,-350.6923 455.3679,-360.9735 459.7792,-351.3407 452.8093,-350.6923"/>
</g>
<!-- GO:0043227&#45;&gt;GO:0043226 -->
<g id="edge12" class="edge">
<title>GO:0043227&#45;&gt;GO:0043226</title>
<path fill="none" stroke="#000000" d="M308.4492,-325.1963C308.4492,-333.4638 308.4492,-342.4657 308.4492,-350.8008"/>
<polygon fill="#000000" stroke="#000000" points="304.9493,-350.8965 308.4492,-360.8966 311.9493,-350.8966 304.9493,-350.8965"/>
</g>
<!-- GO:0044217 -->
<g id="node14" class="node">
<title>GO:0044217</title>
<polygon fill="#ffffff" stroke="#000000" points="246.0823,-402.2019 120.8161,-402.2019 120.8161,-360.9981 246.0823,-360.9981 246.0823,-402.2019"/>
<text text-anchor="middle" x="183.4492" y="-385.8" font-family="Times,serif" font-size="14.00" fill="#000000">GO:0044217</text>
<text text-anchor="middle" x="183.4492" y="-369" font-family="Times,serif" font-size="14.00" fill="#000000">other organism part</text>
</g>
<!-- GO:0033643&#45;&gt;GO:0044217 -->
<g id="edge13" class="edge">
<title>GO:0033643&#45;&gt;GO:0044217</title>
<path fill="none" stroke="#000000" d="M181.9333,-316.4182C182.1741,-326.7705 182.4698,-339.4848 182.7359,-350.9271"/>
<polygon fill="#000000" stroke="#000000" points="179.2379,-351.0576 182.9695,-360.9735 186.236,-350.8948 179.2379,-351.0576"/>
</g>
<!-- GO:0043226&#45;&gt;GO:0005575 -->
<g id="edge14" class="edge">
<title>GO:0043226&#45;&gt;GO:0005575</title>
<path fill="none" stroke="#000000" d="M291.5664,-402.3954C284.5752,-411.0067 276.3497,-421.1384 268.796,-430.4427"/>
<polygon fill="#000000" stroke="#000000" points="265.9643,-428.3776 262.3786,-438.3472 271.3989,-432.7896 265.9643,-428.3776"/>
</g>
<!-- GO:0044421&#45;&gt;GO:0005575 -->
<g id="edge15" class="edge">
<title>GO:0044421&#45;&gt;GO:0005575</title>
<path fill="none" stroke="#000000" d="M397.9823,-402.2934C371.069,-412.3341 338.5661,-424.4602 310.491,-434.9344"/>
<polygon fill="#000000" stroke="#000000" points="308.9073,-431.7895 300.7616,-438.5642 311.3542,-438.348 308.9073,-431.7895"/>
</g>
<!-- GO:0044217&#45;&gt;GO:0005575 -->
<g id="edge17" class="edge">
<title>GO:0044217&#45;&gt;GO:0005575</title>
<path fill="none" stroke="#000000" d="M200.0641,-402.3954C206.9443,-411.0067 215.0392,-421.1384 222.473,-430.4427"/>
<polygon fill="#000000" stroke="#000000" points="219.812,-432.7193 228.7885,-438.3472 225.2808,-428.3499 219.812,-432.7193"/>
</g>
<!-- GO:0020036 -->
<g id="node15" class="node">
<title>GO:0020036</title>
<polygon fill="#ffffff" stroke="#000000" points="237.121,-49.8019 141.7774,-49.8019 141.7774,-8.5981 237.121,-8.5981 237.121,-49.8019"/>
<text text-anchor="middle" x="189.4492" y="-33.4" font-family="Times,serif" font-size="14.00" fill="#000000">GO:0020036</text>
<text text-anchor="middle" x="189.4492" y="-16.6" font-family="Times,serif" font-size="14.00" fill="#000000">Maurer&#39;s cleft</text>
</g>
<!-- GO:0020036&#45;&gt;GO:0033655 -->
<g id="edge16" class="edge">
<title>GO:0020036&#45;&gt;GO:0033655</title>
<path fill="none" stroke="#000000" d="M189.4492,-50.0182C189.4492,-60.3705 189.4492,-73.0848 189.4492,-84.5271"/>
<polygon fill="#000000" stroke="#000000" points="185.9493,-84.5735 189.4492,-94.5735 192.9493,-84.5735 185.9493,-84.5735"/>
</g>
</g>
</svg>
