<?xml version="1.0" encoding="UTF-8" standalone="no"?>
<!DOCTYPE svg PUBLIC "-//W3C//DTD SVG 1.1//EN"
 "http://www.w3.org/Graphics/SVG/1.1/DTD/svg11.dtd">
<!-- Generated by graphviz version 2.40.1 (20161225.0304)
 -->
<!-- Title: G Pages: 1 -->
<svg width="643pt" height="316pt"
 viewBox="0.00 0.00 642.58 316.00" xmlns="http://www.w3.org/2000/svg" xmlns:xlink="http://www.w3.org/1999/xlink">
<g id="graph0" class="graph" transform="scale(1 1) rotate(0) translate(4 312)">
<title>G</title>
<polygon fill="#ffffff" stroke="transparent" points="-4,4 -4,-312 638.5776,-312 638.5776,4 -4,4"/>
<!-- GO:0005615 -->
<g id="node1" class="node">
<title>GO:0005615</title>
<polygon fill="#ffffff" stroke="#000000" points="619.3794,-144.2019 499.2876,-144.2019 499.2876,-102.9981 619.3794,-102.9981 619.3794,-144.2019"/>
<text text-anchor="middle" x="559.3335" y="-127.8" font-family="Times,serif" font-size="14.00" fill="#000000">GO:0005615</text>
<text text-anchor="middle" x="559.3335" y="-111" font-family="Times,serif" font-size="14.00" fill="#000000">extracellular space</text>
</g>
<!-- GO:0044421 -->
<g id="node2" class="node">
<title>GO:0044421</title>
<polygon fill="#ffffff" stroke="#000000" points="634.8225,-230.2019 483.8445,-230.2019 483.8445,-188.9981 634.8225,-188.9981 634.8225,-230.2019"/>
<text text-anchor="middle" x="559.3335" y="-213.8" font-family="Times,serif" font-size="14.00" fill="#000000">GO:0044421</text>
<text text-anchor="middle" x="559.3335" y="-197" font-family="Times,serif" font-size="14.00" fill="#000000">extracellular region part</text>
</g>
<!-- GO:0005615&#45;&gt;GO:0044421 -->
<g id="edge1" class="edge">
<title>GO:0005615&#45;&gt;GO:0044421</title>
<path fill="none" stroke="#000000" d="M559.3335,-144.4182C559.3335,-154.7705 559.3335,-167.4848 559.3335,-178.9271"/>
<polygon fill="#000000" stroke="#000000" points="555.8336,-178.9735 559.3335,-188.9735 562.8336,-178.9735 555.8336,-178.9735"/>
</g>
<!-- GO:0005575 -->
<g id="node3" class="node">
<title>GO:0005575</title>
<polygon fill="#ffffff" stroke="#000000" points="428.0202,-307.8019 300.6468,-307.8019 300.6468,-266.5981 428.0202,-266.5981 428.0202,-307.8019"/>
<text text-anchor="middle" x="364.3335" y="-291.4" font-family="Times,serif" font-size="14.00" fill="#000000">GO:0005575</text>
<text text-anchor="middle" x="364.3335" y="-274.6" font-family="Times,serif" font-size="14.00" fill="#000000">cellular_component</text>
</g>
<!-- GO:0044421&#45;&gt;GO:0005575 -->
<g id="edge2" class="edge">
<title>GO:0044421&#45;&gt;GO:0005575</title>
<path fill="none" stroke="#000000" d="M507.3332,-230.2934C482.2123,-240.2903 451.8966,-252.3544 425.6552,-262.7971"/>
<polygon fill="#000000" stroke="#000000" points="424.186,-259.6147 416.1888,-266.5642 426.7743,-266.1187 424.186,-259.6147"/>
</g>
<!-- GO:0016020 -->
<g id="node4" class="node">
<title>GO:0016020</title>
<polygon fill="#ffffff" stroke="#000000" points="239.9374,-230.2019 150.7296,-230.2019 150.7296,-188.9981 239.9374,-188.9981 239.9374,-230.2019"/>
<text text-anchor="middle" x="195.3335" y="-213.8" font-family="Times,serif" font-size="14.00" fill="#000000">GO:0016020</text>
<text text-anchor="middle" x="195.3335" y="-197" font-family="Times,serif" font-size="14.00" fill="#000000">membrane</text>
</g>
<!-- GO:0016020&#45;&gt;GO:0005575 -->
<g id="edge3" class="edge">
<title>GO:0016020&#45;&gt;GO:0005575</title>
<path fill="none" stroke="#000000" d="M240.1787,-230.1916C261.6652,-240.0576 287.5756,-251.9549 310.1556,-262.323"/>
<polygon fill="#000000" stroke="#000000" points="308.7305,-265.52 319.2787,-266.5121 311.6515,-259.1585 308.7305,-265.52"/>
</g>
<!-- GO:1990063 -->
<g id="node5" class="node">
<title>GO:1990063</title>
<polygon fill="#ffffff" stroke="#000000" points="247.1424,-49.8019 109.5246,-49.8019 109.5246,-8.5981 247.1424,-8.5981 247.1424,-49.8019"/>
<text text-anchor="middle" x="178.3335" y="-33.4" font-family="Times,serif" font-size="14.00" fill="#000000">GO:1990063</text>
<text text-anchor="middle" x="178.3335" y="-16.6" font-family="Times,serif" font-size="14.00" fill="#000000">Bam protein complex</text>
</g>
<!-- GO:0098796 -->
<g id="node6" class="node">
<title>GO:0098796</title>
<polygon fill="#ffffff" stroke="#000000" points="186.2859,-144.2019 16.3811,-144.2019 16.3811,-102.9981 186.2859,-102.9981 186.2859,-144.2019"/>
<text text-anchor="middle" x="101.3335" y="-127.8" font-family="Times,serif" font-size="14.00" fill="#000000">GO:0098796</text>
<text text-anchor="middle" x="101.3335" y="-111" font-family="Times,serif" font-size="14.00" fill="#000000">membrane protein complex</text>
</g>
<!-- GO:1990063&#45;&gt;GO:0098796 -->
<g id="edge4" class="edge">
<title>GO:1990063&#45;&gt;GO:0098796</title>
<path fill="none" stroke="#000000" d="M161.2447,-50.1504C150.578,-63.2276 136.6961,-80.2464 124.9811,-94.6087"/>
<polygon fill="#000000" stroke="#000000" points="121.9831,-92.7468 118.3745,-102.7081 127.4075,-97.1713 121.9831,-92.7468"/>
</g>
<!-- GO:0044462 -->
<g id="node7" class="node">
<title>GO:0044462</title>
<polygon fill="#ffffff" stroke="#000000" points="345.8946,-153.0014 204.7724,-153.0014 204.7724,-94.1986 345.8946,-94.1986 345.8946,-153.0014"/>
<text text-anchor="middle" x="275.3335" y="-136.2" font-family="Times,serif" font-size="14.00" fill="#000000">GO:0044462</text>
<text text-anchor="middle" x="275.3335" y="-119.4" font-family="Times,serif" font-size="14.00" fill="#000000">external encapsulating</text>
<text text-anchor="middle" x="275.3335" y="-102.6" font-family="Times,serif" font-size="14.00" fill="#000000">structure part</text>
</g>
<!-- GO:1990063&#45;&gt;GO:0044462 -->
<g id="edge5" class="edge">
<title>GO:1990063&#45;&gt;GO:0044462</title>
<path fill="none" stroke="#000000" d="M199.8609,-50.1504C210.9654,-60.9572 224.8359,-74.4559 237.646,-86.9227"/>
<polygon fill="#000000" stroke="#000000" points="235.4294,-89.6494 245.0369,-94.1155 240.3115,-84.6328 235.4294,-89.6494"/>
</g>
<!-- GO:0043234 -->
<g id="node8" class="node">
<title>GO:0043234</title>
<polygon fill="#ffffff" stroke="#000000" points="133.2009,-230.2019 25.4661,-230.2019 25.4661,-188.9981 133.2009,-188.9981 133.2009,-230.2019"/>
<text text-anchor="middle" x="79.3335" y="-213.8" font-family="Times,serif" font-size="14.00" fill="#000000">GO:0043234</text>
<text text-anchor="middle" x="79.3335" y="-197" font-family="Times,serif" font-size="14.00" fill="#000000">protein complex</text>
</g>
<!-- GO:0098796&#45;&gt;GO:0043234 -->
<g id="edge6" class="edge">
<title>GO:0098796&#45;&gt;GO:0043234</title>
<path fill="none" stroke="#000000" d="M96.0079,-144.4182C93.3326,-154.8761 90.0407,-167.7446 87.0905,-179.277"/>
<polygon fill="#000000" stroke="#000000" points="83.6976,-178.418 84.61,-188.9735 90.4793,-180.1529 83.6976,-178.418"/>
</g>
<!-- GO:0044425 -->
<g id="node9" class="node">
<title>GO:0044425</title>
<polygon fill="#ffffff" stroke="#000000" points="358.6855,-230.2019 257.9815,-230.2019 257.9815,-188.9981 358.6855,-188.9981 358.6855,-230.2019"/>
<text text-anchor="middle" x="308.3335" y="-213.8" font-family="Times,serif" font-size="14.00" fill="#000000">GO:0044425</text>
<text text-anchor="middle" x="308.3335" y="-197" font-family="Times,serif" font-size="14.00" fill="#000000">membrane part</text>
</g>
<!-- GO:0098796&#45;&gt;GO:0044425 -->
<g id="edge7" class="edge">
<title>GO:0098796&#45;&gt;GO:0044425</title>
<path fill="none" stroke="#000000" d="M151.1786,-144.3086C180.6676,-156.5601 218.1888,-172.1486 249.1728,-185.0212"/>
<polygon fill="#000000" stroke="#000000" points="247.985,-188.3177 258.5626,-188.9222 250.6707,-181.8533 247.985,-188.3177"/>
</g>
<!-- GO:0044464 -->
<g id="node10" class="node">
<title>GO:0044464</title>
<polygon fill="#ffffff" stroke="#000000" points="465.9374,-230.2019 376.7296,-230.2019 376.7296,-188.9981 465.9374,-188.9981 465.9374,-230.2019"/>
<text text-anchor="middle" x="421.3335" y="-213.8" font-family="Times,serif" font-size="14.00" fill="#000000">GO:0044464</text>
<text text-anchor="middle" x="421.3335" y="-197" font-family="Times,serif" font-size="14.00" fill="#000000">cell part</text>
</g>
<!-- GO:0044462&#45;&gt;GO:0044464 -->
<g id="edge8" class="edge">
<title>GO:0044462&#45;&gt;GO:0044464</title>
<path fill="none" stroke="#000000" d="M325.1701,-152.9558C342.0375,-162.8914 360.7456,-173.9112 377.1436,-183.5703"/>
<polygon fill="#000000" stroke="#000000" points="375.5968,-186.7212 385.9895,-188.7809 379.1496,-180.6898 375.5968,-186.7212"/>
</g>
<!-- GO:0032991 -->
<g id="node11" class="node">
<title>GO:0032991</title>
<polygon fill="#ffffff" stroke="#000000" points="158.5008,-307.8019 .1662,-307.8019 .1662,-266.5981 158.5008,-266.5981 158.5008,-307.8019"/>
<text text-anchor="middle" x="79.3335" y="-291.4" font-family="Times,serif" font-size="14.00" fill="#000000">GO:0032991</text>
<text text-anchor="middle" x="79.3335" y="-274.6" font-family="Times,serif" font-size="14.00" fill="#000000">macromolecular complex</text>
</g>
<!-- GO:0043234&#45;&gt;GO:0032991 -->
<g id="edge9" class="edge">
<title>GO:0043234&#45;&gt;GO:0032991</title>
<path fill="none" stroke="#000000" d="M79.3335,-230.3954C79.3335,-238.3109 79.3335,-247.5109 79.3335,-256.1722"/>
<polygon fill="#000000" stroke="#000000" points="75.8336,-256.3472 79.3335,-266.3472 82.8336,-256.3473 75.8336,-256.3472"/>
</g>
<!-- GO:0044425&#45;&gt;GO:0005575 -->
<g id="edge10" class="edge">
<title>GO:0044425&#45;&gt;GO:0005575</title>
<path fill="none" stroke="#000000" d="M323.3405,-230.3954C329.4921,-238.9197 336.7188,-248.9339 343.3772,-258.1605"/>
<polygon fill="#000000" stroke="#000000" points="340.5951,-260.2864 349.2851,-266.3472 346.2714,-256.19 340.5951,-260.2864"/>
</g>
<!-- GO:0044464&#45;&gt;GO:0005575 -->
<g id="edge11" class="edge">
<title>GO:0044464&#45;&gt;GO:0005575</title>
<path fill="none" stroke="#000000" d="M406.0585,-230.3954C399.7971,-238.9197 392.4413,-248.9339 385.664,-258.1605"/>
<polygon fill="#000000" stroke="#000000" points="382.7498,-256.2158 379.6506,-266.3472 388.3914,-260.3598 382.7498,-256.2158"/>
</g>
<!-- GO:0042597 -->
<g id="node12" class="node">
<title>GO:0042597</title>
<polygon fill="#ffffff" stroke="#000000" points="480.2333,-144.2019 364.4337,-144.2019 364.4337,-102.9981 480.2333,-102.9981 480.2333,-144.2019"/>
<text text-anchor="middle" x="422.3335" y="-127.8" font-family="Times,serif" font-size="14.00" fill="#000000">GO:0042597</text>
<text text-anchor="middle" x="422.3335" y="-111" font-family="Times,serif" font-size="14.00" fill="#000000">periplasmic space</text>
</g>
<!-- GO:0042597&#45;&gt;GO:0044464 -->
<g id="edge12" class="edge">
<title>GO:0042597&#45;&gt;GO:0044464</title>
<path fill="none" stroke="#000000" d="M422.0914,-144.4182C421.9711,-154.7705 421.8232,-167.4848 421.6902,-178.9271"/>
<polygon fill="#000000" stroke="#000000" points="418.1899,-178.9335 421.5733,-188.9735 425.1895,-179.0149 418.1899,-178.9335"/>
</g>
<!-- GO:0030288 -->
<g id="node13" class="node">
<title>GO:0030288</title>
<polygon fill="#ffffff" stroke="#000000" points="502.5603,-58.6014 342.1067,-58.6014 342.1067,.2014 502.5603,.2014 502.5603,-58.6014"/>
<text text-anchor="middle" x="422.3335" y="-41.8" font-family="Times,serif" font-size="14.00" fill="#000000">GO:0030288</text>
<text text-anchor="middle" x="422.3335" y="-25" font-family="Times,serif" font-size="14.00" fill="#000000">outer membrane&#45;bounded</text>
<text text-anchor="middle" x="422.3335" y="-8.2" font-family="Times,serif" font-size="14.00" fill="#000000">periplasmic space</text>
</g>
<!-- GO:0030288&#45;&gt;GO:0042597 -->
<g id="edge13" class="edge">
<title>GO:0030288&#45;&gt;GO:0042597</title>
<path fill="none" stroke="#000000" d="M422.3335,-58.5513C422.3335,-69.4614 422.3335,-81.8637 422.3335,-92.892"/>
<polygon fill="#000000" stroke="#000000" points="418.8336,-92.9509 422.3335,-102.951 425.8336,-92.951 418.8336,-92.9509"/>
</g>
</g>
</svg>
