<?xml version="1.0" encoding="UTF-8" standalone="no"?>
<!DOCTYPE svg PUBLIC "-//W3C//DTD SVG 1.1//EN"
 "http://www.w3.org/Graphics/SVG/1.1/DTD/svg11.dtd">
<!-- Generated by graphviz version 2.40.1 (20161225.0304)
 -->
<!-- Title: G Pages: 1 -->
<svg width="917pt" height="754pt"
 viewBox="0.00 0.00 917.32 754.40" xmlns="http://www.w3.org/2000/svg" xmlns:xlink="http://www.w3.org/1999/xlink">
<g id="graph0" class="graph" transform="scale(1 1) rotate(0) translate(4 750.4)">
<title>G</title>
<polygon fill="#ffffff" stroke="transparent" points="-4,4 -4,-750.4 913.3195,-750.4 913.3195,4 -4,4"/>
<!-- GO:0044710 -->
<g id="node1" class="node">
<title>GO:0044710</title>
<polygon fill="#ffffff" stroke="#000000" points="593.4766,-591.4014 428.6602,-591.4014 428.6602,-532.5986 593.4766,-532.5986 593.4766,-591.4014"/>
<text text-anchor="middle" x="511.0684" y="-574.6" font-family="Times,serif" font-size="14.00" fill="#000000">GO:0044710</text>
<text text-anchor="middle" x="511.0684" y="-557.8" font-family="Times,serif" font-size="14.00" fill="#000000">single&#45;organism metabolic</text>
<text text-anchor="middle" x="511.0684" y="-541" font-family="Times,serif" font-size="14.00" fill="#000000">process</text>
</g>
<!-- GO:0008152 -->
<g id="node2" class="node">
<title>GO:0008152</title>
<polygon fill="#ffffff" stroke="#000000" points="695.254,-668.6019 578.8828,-668.6019 578.8828,-627.3981 695.254,-627.3981 695.254,-668.6019"/>
<text text-anchor="middle" x="637.0684" y="-652.2" font-family="Times,serif" font-size="14.00" fill="#000000">GO:0008152</text>
<text text-anchor="middle" x="637.0684" y="-635.4" font-family="Times,serif" font-size="14.00" fill="#000000">metabolic process</text>
</g>
<!-- GO:0044710&#45;&gt;GO:0008152 -->
<g id="edge1" class="edge">
<title>GO:0044710&#45;&gt;GO:0008152</title>
<path fill="none" stroke="#000000" d="M554.078,-591.3558C568.3653,-601.1074 584.1828,-611.9035 598.1436,-621.4323"/>
<polygon fill="#000000" stroke="#000000" points="596.3334,-624.4343 606.5661,-627.1809 600.2797,-618.6526 596.3334,-624.4343"/>
</g>
<!-- GO:0044699 -->
<g id="node3" class="node">
<title>GO:0044699</title>
<polygon fill="#ffffff" stroke="#000000" points="405.7497,-668.6019 254.3871,-668.6019 254.3871,-627.3981 405.7497,-627.3981 405.7497,-668.6019"/>
<text text-anchor="middle" x="330.0684" y="-652.2" font-family="Times,serif" font-size="14.00" fill="#000000">GO:0044699</text>
<text text-anchor="middle" x="330.0684" y="-635.4" font-family="Times,serif" font-size="14.00" fill="#000000">single&#45;organism process</text>
</g>
<!-- GO:0044710&#45;&gt;GO:0044699 -->
<g id="edge2" class="edge">
<title>GO:0044710&#45;&gt;GO:0044699</title>
<path fill="none" stroke="#000000" d="M449.5375,-591.2357C427.7547,-601.5855 403.4688,-613.1247 382.5119,-623.0821"/>
<polygon fill="#000000" stroke="#000000" points="380.976,-619.9368 373.4458,-627.3898 383.9802,-626.2594 380.976,-619.9368"/>
</g>
<!-- GO:0008150 -->
<g id="node4" class="node">
<title>GO:0008150</title>
<polygon fill="#ffffff" stroke="#000000" points="463.539,-746.2019 342.5978,-746.2019 342.5978,-704.9981 463.539,-704.9981 463.539,-746.2019"/>
<text text-anchor="middle" x="403.0684" y="-729.8" font-family="Times,serif" font-size="14.00" fill="#000000">GO:0008150</text>
<text text-anchor="middle" x="403.0684" y="-713" font-family="Times,serif" font-size="14.00" fill="#000000">biological_process</text>
</g>
<!-- GO:0008152&#45;&gt;GO:0008150 -->
<g id="edge3" class="edge">
<title>GO:0008152&#45;&gt;GO:0008150</title>
<path fill="none" stroke="#000000" d="M578.6239,-667.3816C546.7132,-677.9639 506.9726,-691.1429 473.3765,-702.2842"/>
<polygon fill="#000000" stroke="#000000" points="472.0104,-699.0497 463.6204,-705.5195 474.2138,-705.6938 472.0104,-699.0497"/>
</g>
<!-- GO:0044699&#45;&gt;GO:0008150 -->
<g id="edge4" class="edge">
<title>GO:0044699&#45;&gt;GO:0008150</title>
<path fill="none" stroke="#000000" d="M349.6311,-668.7954C357.8956,-677.5807 367.6487,-687.9484 376.5453,-697.4056"/>
<polygon fill="#000000" stroke="#000000" points="374.0505,-699.8617 383.4517,-704.7472 379.1491,-695.0654 374.0505,-699.8617"/>
</g>
<!-- GO:0015992 -->
<g id="node5" class="node">
<title>GO:0015992</title>
<polygon fill="#ffffff" stroke="#000000" points="162.8814,-49.8019 57.2554,-49.8019 57.2554,-8.5981 162.8814,-8.5981 162.8814,-49.8019"/>
<text text-anchor="middle" x="110.0684" y="-33.4" font-family="Times,serif" font-size="14.00" fill="#000000">GO:0015992</text>
<text text-anchor="middle" x="110.0684" y="-16.6" font-family="Times,serif" font-size="14.00" fill="#000000">proton transport</text>
</g>
<!-- GO:0006818 -->
<g id="node6" class="node">
<title>GO:0006818</title>
<polygon fill="#ffffff" stroke="#000000" points="122.2053,-238.6019 -.0685,-238.6019 -.0685,-197.3981 122.2053,-197.3981 122.2053,-238.6019"/>
<text text-anchor="middle" x="61.0684" y="-222.2" font-family="Times,serif" font-size="14.00" fill="#000000">GO:0006818</text>
<text text-anchor="middle" x="61.0684" y="-205.4" font-family="Times,serif" font-size="14.00" fill="#000000">hydrogen transport</text>
</g>
<!-- GO:0015992&#45;&gt;GO:0006818 -->
<g id="edge5" class="edge">
<title>GO:0015992&#45;&gt;GO:0006818</title>
<path fill="none" stroke="#000000" d="M98.6592,-50.0523C92.2752,-62.5708 84.6937,-79.0062 80.0684,-94.4 70.8302,-125.1463 65.925,-161.6131 63.4295,-186.9328"/>
<polygon fill="#000000" stroke="#000000" points="59.9294,-186.7746 62.5019,-197.0524 66.9002,-187.4136 59.9294,-186.7746"/>
</g>
<!-- GO:0015672 -->
<g id="node7" class="node">
<title>GO:0015672</title>
<polygon fill="#ffffff" stroke="#000000" points="227.5412,-153.0014 88.5956,-153.0014 88.5956,-94.1986 227.5412,-94.1986 227.5412,-153.0014"/>
<text text-anchor="middle" x="158.0684" y="-136.2" font-family="Times,serif" font-size="14.00" fill="#000000">GO:0015672</text>
<text text-anchor="middle" x="158.0684" y="-119.4" font-family="Times,serif" font-size="14.00" fill="#000000">monovalent inorganic</text>
<text text-anchor="middle" x="158.0684" y="-102.6" font-family="Times,serif" font-size="14.00" fill="#000000">cation transport</text>
</g>
<!-- GO:0015992&#45;&gt;GO:0015672 -->
<g id="edge6" class="edge">
<title>GO:0015992&#45;&gt;GO:0015672</title>
<path fill="none" stroke="#000000" d="M120.7212,-50.1504C125.9594,-60.4522 132.4414,-73.2002 138.527,-85.1686"/>
<polygon fill="#000000" stroke="#000000" points="135.4239,-86.788 143.0763,-94.1155 141.6636,-83.6153 135.4239,-86.788"/>
</g>
<!-- GO:0044765 -->
<g id="node8" class="node">
<title>GO:0044765</title>
<polygon fill="#ffffff" stroke="#000000" points="268.0327,-402.2019 108.1041,-402.2019 108.1041,-360.9981 268.0327,-360.9981 268.0327,-402.2019"/>
<text text-anchor="middle" x="188.0684" y="-385.8" font-family="Times,serif" font-size="14.00" fill="#000000">GO:0044765</text>
<text text-anchor="middle" x="188.0684" y="-369" font-family="Times,serif" font-size="14.00" fill="#000000">single&#45;organism transport</text>
</g>
<!-- GO:0006818&#45;&gt;GO:0044765 -->
<g id="edge7" class="edge">
<title>GO:0006818&#45;&gt;GO:0044765</title>
<path fill="none" stroke="#000000" d="M74.4137,-238.6445C88.858,-260.5835 112.9394,-296.0088 136.0684,-324.8 143.7748,-334.3931 152.6614,-344.4302 160.8835,-353.352"/>
<polygon fill="#000000" stroke="#000000" points="158.5114,-355.9402 167.8915,-360.8661 163.6305,-351.1658 158.5114,-355.9402"/>
</g>
<!-- GO:0006812 -->
<g id="node9" class="node">
<title>GO:0006812</title>
<polygon fill="#ffffff" stroke="#000000" points="244.0415,-238.6019 140.0953,-238.6019 140.0953,-197.3981 244.0415,-197.3981 244.0415,-238.6019"/>
<text text-anchor="middle" x="192.0684" y="-222.2" font-family="Times,serif" font-size="14.00" fill="#000000">GO:0006812</text>
<text text-anchor="middle" x="192.0684" y="-205.4" font-family="Times,serif" font-size="14.00" fill="#000000">cation transport</text>
</g>
<!-- GO:0015672&#45;&gt;GO:0006812 -->
<g id="edge8" class="edge">
<title>GO:0015672&#45;&gt;GO:0006812</title>
<path fill="none" stroke="#000000" d="M168.6398,-152.9513C172.6099,-163.9739 177.1284,-176.5196 181.131,-187.6326"/>
<polygon fill="#000000" stroke="#000000" points="177.9497,-189.1286 184.6313,-197.351 184.5355,-186.7566 177.9497,-189.1286"/>
</g>
<!-- GO:0006810 -->
<g id="node10" class="node">
<title>GO:0006810</title>
<polygon fill="#ffffff" stroke="#000000" points="133.6723,-488.2019 44.4645,-488.2019 44.4645,-446.9981 133.6723,-446.9981 133.6723,-488.2019"/>
<text text-anchor="middle" x="89.0684" y="-471.8" font-family="Times,serif" font-size="14.00" fill="#000000">GO:0006810</text>
<text text-anchor="middle" x="89.0684" y="-455" font-family="Times,serif" font-size="14.00" fill="#000000">transport</text>
</g>
<!-- GO:0044765&#45;&gt;GO:0006810 -->
<g id="edge9" class="edge">
<title>GO:0044765&#45;&gt;GO:0006810</title>
<path fill="none" stroke="#000000" d="M164.1033,-402.4182C150.9701,-413.8268 134.5345,-428.1042 120.3958,-440.3863"/>
<polygon fill="#000000" stroke="#000000" points="118.0669,-437.7732 112.8128,-446.9735 122.6575,-443.0577 118.0669,-437.7732"/>
</g>
<!-- GO:1902578 -->
<g id="node11" class="node">
<title>GO:1902578</title>
<polygon fill="#ffffff" stroke="#000000" points="241.2706,-591.4014 134.8662,-591.4014 134.8662,-532.5986 241.2706,-532.5986 241.2706,-591.4014"/>
<text text-anchor="middle" x="188.0684" y="-574.6" font-family="Times,serif" font-size="14.00" fill="#000000">GO:1902578</text>
<text text-anchor="middle" x="188.0684" y="-557.8" font-family="Times,serif" font-size="14.00" fill="#000000">single&#45;organism</text>
<text text-anchor="middle" x="188.0684" y="-541" font-family="Times,serif" font-size="14.00" fill="#000000">localization</text>
</g>
<!-- GO:0044765&#45;&gt;GO:1902578 -->
<g id="edge10" class="edge">
<title>GO:0044765&#45;&gt;GO:1902578</title>
<path fill="none" stroke="#000000" d="M188.0684,-402.2942C188.0684,-431.4393 188.0684,-485.1498 188.0684,-522.1813"/>
<polygon fill="#000000" stroke="#000000" points="184.5685,-522.6204 188.0684,-532.6204 191.5685,-522.6204 184.5685,-522.6204"/>
</g>
<!-- GO:0006811 -->
<g id="node12" class="node">
<title>GO:0006811</title>
<polygon fill="#ffffff" stroke="#000000" points="234.6723,-324.6019 145.4645,-324.6019 145.4645,-283.3981 234.6723,-283.3981 234.6723,-324.6019"/>
<text text-anchor="middle" x="190.0684" y="-308.2" font-family="Times,serif" font-size="14.00" fill="#000000">GO:0006811</text>
<text text-anchor="middle" x="190.0684" y="-291.4" font-family="Times,serif" font-size="14.00" fill="#000000">ion transport</text>
</g>
<!-- GO:0006812&#45;&gt;GO:0006811 -->
<g id="edge11" class="edge">
<title>GO:0006812&#45;&gt;GO:0006811</title>
<path fill="none" stroke="#000000" d="M191.5843,-238.8182C191.3435,-249.1705 191.0478,-261.8848 190.7817,-273.3271"/>
<polygon fill="#000000" stroke="#000000" points="187.2816,-273.2948 190.5481,-283.3735 194.2797,-273.4576 187.2816,-273.2948"/>
</g>
<!-- GO:0051234 -->
<g id="node13" class="node">
<title>GO:0051234</title>
<polygon fill="#ffffff" stroke="#000000" points="117.2151,-591.4014 8.9217,-591.4014 8.9217,-532.5986 117.2151,-532.5986 117.2151,-591.4014"/>
<text text-anchor="middle" x="63.0684" y="-574.6" font-family="Times,serif" font-size="14.00" fill="#000000">GO:0051234</text>
<text text-anchor="middle" x="63.0684" y="-557.8" font-family="Times,serif" font-size="14.00" fill="#000000">establishment of</text>
<text text-anchor="middle" x="63.0684" y="-541" font-family="Times,serif" font-size="14.00" fill="#000000">localization</text>
</g>
<!-- GO:0006810&#45;&gt;GO:0051234 -->
<g id="edge12" class="edge">
<title>GO:0006810&#45;&gt;GO:0051234</title>
<path fill="none" stroke="#000000" d="M83.2982,-488.5504C80.5164,-498.6502 77.0871,-511.1012 73.8475,-522.8637"/>
<polygon fill="#000000" stroke="#000000" points="70.4702,-521.9451 71.1891,-532.5155 77.2189,-523.8039 70.4702,-521.9451"/>
</g>
<!-- GO:1902578&#45;&gt;GO:0044699 -->
<g id="edge14" class="edge">
<title>GO:1902578&#45;&gt;GO:0044699</title>
<path fill="none" stroke="#000000" d="M236.5396,-591.3558C252.9449,-601.2914 271.1404,-612.3112 287.0891,-621.9703"/>
<polygon fill="#000000" stroke="#000000" points="285.326,-624.9943 295.6927,-627.1809 288.9523,-619.0068 285.326,-624.9943"/>
</g>
<!-- GO:0051179 -->
<g id="node14" class="node">
<title>GO:0051179</title>
<polygon fill="#ffffff" stroke="#000000" points="232.6723,-668.6019 143.4645,-668.6019 143.4645,-627.3981 232.6723,-627.3981 232.6723,-668.6019"/>
<text text-anchor="middle" x="188.0684" y="-652.2" font-family="Times,serif" font-size="14.00" fill="#000000">GO:0051179</text>
<text text-anchor="middle" x="188.0684" y="-635.4" font-family="Times,serif" font-size="14.00" fill="#000000">localization</text>
</g>
<!-- GO:1902578&#45;&gt;GO:0051179 -->
<g id="edge13" class="edge">
<title>GO:1902578&#45;&gt;GO:0051179</title>
<path fill="none" stroke="#000000" d="M188.0684,-591.5963C188.0684,-599.8638 188.0684,-608.8657 188.0684,-617.2008"/>
<polygon fill="#000000" stroke="#000000" points="184.5685,-617.2965 188.0684,-627.2966 191.5685,-617.2966 184.5685,-617.2965"/>
</g>
<!-- GO:0006811&#45;&gt;GO:0044765 -->
<g id="edge15" class="edge">
<title>GO:0006811&#45;&gt;GO:0044765</title>
<path fill="none" stroke="#000000" d="M189.5324,-324.7954C189.3284,-332.7109 189.0913,-341.9109 188.8681,-350.5722"/>
<polygon fill="#000000" stroke="#000000" points="185.3647,-350.6603 188.6058,-360.7472 192.3624,-350.8408 185.3647,-350.6603"/>
</g>
<!-- GO:0051234&#45;&gt;GO:0051179 -->
<g id="edge16" class="edge">
<title>GO:0051234&#45;&gt;GO:0051179</title>
<path fill="none" stroke="#000000" d="M105.7367,-591.3558C119.9106,-601.1074 135.6025,-611.9035 149.4526,-621.4323"/>
<polygon fill="#000000" stroke="#000000" points="147.5858,-624.3963 157.8081,-627.1809 151.5535,-618.6293 147.5858,-624.3963"/>
</g>
<!-- GO:0051179&#45;&gt;GO:0008150 -->
<g id="edge17" class="edge">
<title>GO:0051179&#45;&gt;GO:0008150</title>
<path fill="none" stroke="#000000" d="M232.8671,-664.3705C236.9913,-665.8707 241.1066,-667.365 245.0684,-668.8 274.7331,-679.5446 307.5578,-691.3573 335.5674,-701.4141"/>
<polygon fill="#000000" stroke="#000000" points="334.6663,-704.8092 345.2608,-704.8934 337.0312,-698.2208 334.6663,-704.8092"/>
</g>
<!-- GO:0009987 -->
<g id="node15" class="node">
<title>GO:0009987</title>
<polygon fill="#ff00ff" stroke="#000000" points="528.0246,-668.6019 424.1122,-668.6019 424.1122,-627.3981 528.0246,-627.3981 528.0246,-668.6019"/>
<text text-anchor="middle" x="476.0684" y="-652.2" font-family="Times,serif" font-size="14.00" fill="#000000">GO:0009987</text>
<text text-anchor="middle" x="476.0684" y="-635.4" font-family="Times,serif" font-size="14.00" fill="#000000">cellular process</text>
</g>
<!-- GO:0009987&#45;&gt;GO:0008150 -->
<g id="edge18" class="edge">
<title>GO:0009987&#45;&gt;GO:0008150</title>
<path fill="none" stroke="#000000" d="M456.5057,-668.7954C448.2412,-677.5807 438.4881,-687.9484 429.5915,-697.4056"/>
<polygon fill="#000000" stroke="#000000" points="426.9877,-695.0654 422.6851,-704.7472 432.0863,-699.8617 426.9877,-695.0654"/>
</g>
<!-- GO:0071704 -->
<g id="node16" class="node">
<title>GO:0071704</title>
<polygon fill="#ffffff" stroke="#000000" points="728.254,-591.4014 611.8828,-591.4014 611.8828,-532.5986 728.254,-532.5986 728.254,-591.4014"/>
<text text-anchor="middle" x="670.0684" y="-574.6" font-family="Times,serif" font-size="14.00" fill="#000000">GO:0071704</text>
<text text-anchor="middle" x="670.0684" y="-557.8" font-family="Times,serif" font-size="14.00" fill="#000000">organic substance</text>
<text text-anchor="middle" x="670.0684" y="-541" font-family="Times,serif" font-size="14.00" fill="#000000">metabolic process</text>
</g>
<!-- GO:0071704&#45;&gt;GO:0008152 -->
<g id="edge19" class="edge">
<title>GO:0071704&#45;&gt;GO:0008152</title>
<path fill="none" stroke="#000000" d="M658.7117,-591.5963C655.4688,-600.0475 651.9314,-609.2662 648.6738,-617.7555"/>
<polygon fill="#000000" stroke="#000000" points="645.3276,-616.7064 645.0127,-627.2966 651.863,-619.2142 645.3276,-616.7064"/>
</g>
<!-- GO:0044763 -->
<g id="node17" class="node">
<title>GO:0044763</title>
<polygon fill="#ff00ff" stroke="#000000" points="410.7469,-591.4014 259.3899,-591.4014 259.3899,-532.5986 410.7469,-532.5986 410.7469,-591.4014"/>
<text text-anchor="middle" x="335.0684" y="-574.6" font-family="Times,serif" font-size="14.00" fill="#000000">GO:0044763</text>
<text text-anchor="middle" x="335.0684" y="-557.8" font-family="Times,serif" font-size="14.00" fill="#000000">single&#45;organism cellular</text>
<text text-anchor="middle" x="335.0684" y="-541" font-family="Times,serif" font-size="14.00" fill="#000000">process</text>
</g>
<!-- GO:0044763&#45;&gt;GO:0044699 -->
<g id="edge21" class="edge">
<title>GO:0044763&#45;&gt;GO:0044699</title>
<path fill="none" stroke="#000000" d="M333.3477,-591.5963C332.867,-599.8638 332.3436,-608.8657 331.859,-617.2008"/>
<polygon fill="#000000" stroke="#000000" points="328.3585,-617.1102 331.2721,-627.2966 335.3467,-617.5166 328.3585,-617.1102"/>
</g>
<!-- GO:0044763&#45;&gt;GO:0009987 -->
<g id="edge20" class="edge">
<title>GO:0044763&#45;&gt;GO:0009987</title>
<path fill="none" stroke="#000000" d="M383.1982,-591.3558C399.488,-601.2914 417.5554,-612.3112 433.3918,-621.9703"/>
<polygon fill="#000000" stroke="#000000" points="431.575,-624.9618 441.9348,-627.1809 435.22,-618.9857 431.575,-624.9618"/>
</g>
<!-- GO:0098662 -->
<g id="node18" class="node">
<title>GO:0098662</title>
<polygon fill="#ffffff" stroke="#000000" points="475.6266,-58.6014 320.5102,-58.6014 320.5102,.2014 475.6266,.2014 475.6266,-58.6014"/>
<text text-anchor="middle" x="398.0684" y="-41.8" font-family="Times,serif" font-size="14.00" fill="#000000">GO:0098662</text>
<text text-anchor="middle" x="398.0684" y="-25" font-family="Times,serif" font-size="14.00" fill="#000000">inorganic cation</text>
<text text-anchor="middle" x="398.0684" y="-8.2" font-family="Times,serif" font-size="14.00" fill="#000000">transmembrane transport</text>
</g>
<!-- GO:0098655 -->
<g id="node19" class="node">
<title>GO:0098655</title>
<polygon fill="#ffffff" stroke="#000000" points="385.0748,-153.0014 245.062,-153.0014 245.062,-94.1986 385.0748,-94.1986 385.0748,-153.0014"/>
<text text-anchor="middle" x="315.0684" y="-136.2" font-family="Times,serif" font-size="14.00" fill="#000000">GO:0098655</text>
<text text-anchor="middle" x="315.0684" y="-119.4" font-family="Times,serif" font-size="14.00" fill="#000000">cation transmembrane</text>
<text text-anchor="middle" x="315.0684" y="-102.6" font-family="Times,serif" font-size="14.00" fill="#000000">transport</text>
</g>
<!-- GO:0098662&#45;&gt;GO:0098655 -->
<g id="edge22" class="edge">
<title>GO:0098662&#45;&gt;GO:0098655</title>
<path fill="none" stroke="#000000" d="M372.2617,-58.5513C364.4543,-67.431 355.778,-77.299 347.5911,-86.6103"/>
<polygon fill="#000000" stroke="#000000" points="344.8338,-84.4458 340.8592,-94.2669 350.0908,-89.0679 344.8338,-84.4458"/>
</g>
<!-- GO:0098660 -->
<g id="node20" class="node">
<title>GO:0098660</title>
<polygon fill="#ffffff" stroke="#000000" points="558.6266,-153.0014 403.5102,-153.0014 403.5102,-94.1986 558.6266,-94.1986 558.6266,-153.0014"/>
<text text-anchor="middle" x="481.0684" y="-136.2" font-family="Times,serif" font-size="14.00" fill="#000000">GO:0098660</text>
<text text-anchor="middle" x="481.0684" y="-119.4" font-family="Times,serif" font-size="14.00" fill="#000000">inorganic ion</text>
<text text-anchor="middle" x="481.0684" y="-102.6" font-family="Times,serif" font-size="14.00" fill="#000000">transmembrane transport</text>
</g>
<!-- GO:0098662&#45;&gt;GO:0098660 -->
<g id="edge23" class="edge">
<title>GO:0098662&#45;&gt;GO:0098660</title>
<path fill="none" stroke="#000000" d="M423.8751,-58.5513C431.6825,-67.431 440.3588,-77.299 448.5457,-86.6103"/>
<polygon fill="#000000" stroke="#000000" points="446.046,-89.0679 455.2776,-94.2669 451.303,-84.4458 446.046,-89.0679"/>
</g>
<!-- GO:0098655&#45;&gt;GO:0006812 -->
<g id="edge24" class="edge">
<title>GO:0098655&#45;&gt;GO:0006812</title>
<path fill="none" stroke="#000000" d="M276.8247,-152.9513C260.997,-165.0987 242.7593,-179.0958 227.2658,-190.9867"/>
<polygon fill="#000000" stroke="#000000" points="224.7754,-188.486 218.9734,-197.351 229.0373,-194.0391 224.7754,-188.486"/>
</g>
<!-- GO:0034220 -->
<g id="node21" class="node">
<title>GO:0034220</title>
<polygon fill="#ffffff" stroke="#000000" points="389.7554,-247.4014 266.3814,-247.4014 266.3814,-188.5986 389.7554,-188.5986 389.7554,-247.4014"/>
<text text-anchor="middle" x="328.0684" y="-230.6" font-family="Times,serif" font-size="14.00" fill="#000000">GO:0034220</text>
<text text-anchor="middle" x="328.0684" y="-213.8" font-family="Times,serif" font-size="14.00" fill="#000000">ion transmembrane</text>
<text text-anchor="middle" x="328.0684" y="-197" font-family="Times,serif" font-size="14.00" fill="#000000">transport</text>
</g>
<!-- GO:0098655&#45;&gt;GO:0034220 -->
<g id="edge25" class="edge">
<title>GO:0098655&#45;&gt;GO:0034220</title>
<path fill="none" stroke="#000000" d="M319.1104,-152.9513C320.2232,-161.0318 321.4487,-169.9308 322.6266,-178.4838"/>
<polygon fill="#000000" stroke="#000000" points="319.1973,-179.2379 324.0289,-188.6669 326.1318,-178.2828 319.1973,-179.2379"/>
</g>
<!-- GO:0098660&#45;&gt;GO:0034220 -->
<g id="edge26" class="edge">
<title>GO:0098660&#45;&gt;GO:0034220</title>
<path fill="none" stroke="#000000" d="M433.4969,-152.9513C417.9537,-162.5413 400.5421,-173.2842 384.4166,-183.2335"/>
<polygon fill="#000000" stroke="#000000" points="382.2831,-180.4372 375.6105,-188.6669 385.9588,-186.3946 382.2831,-180.4372"/>
</g>
<!-- GO:0034220&#45;&gt;GO:0006811 -->
<g id="edge27" class="edge">
<title>GO:0034220&#45;&gt;GO:0006811</title>
<path fill="none" stroke="#000000" d="M280.9626,-247.3558C265.167,-257.1994 247.6637,-268.1073 232.2681,-277.7017"/>
<polygon fill="#000000" stroke="#000000" points="230.1115,-274.9216 223.4757,-283.1809 233.8138,-280.8624 230.1115,-274.9216"/>
</g>
<!-- GO:0055085 -->
<g id="node22" class="node">
<title>GO:0055085</title>
<polygon fill="#ffffff" stroke="#000000" points="407.6266,-324.6019 252.5102,-324.6019 252.5102,-283.3981 407.6266,-283.3981 407.6266,-324.6019"/>
<text text-anchor="middle" x="330.0684" y="-308.2" font-family="Times,serif" font-size="14.00" fill="#000000">GO:0055085</text>
<text text-anchor="middle" x="330.0684" y="-291.4" font-family="Times,serif" font-size="14.00" fill="#000000">transmembrane transport</text>
</g>
<!-- GO:0034220&#45;&gt;GO:0055085 -->
<g id="edge28" class="edge">
<title>GO:0034220&#45;&gt;GO:0055085</title>
<path fill="none" stroke="#000000" d="M328.7567,-247.5963C328.949,-255.8638 329.1583,-264.8657 329.3521,-273.2008"/>
<polygon fill="#000000" stroke="#000000" points="325.8553,-273.3807 329.5869,-283.2966 332.8534,-273.2178 325.8553,-273.3807"/>
</g>
<!-- GO:0055085&#45;&gt;GO:0044765 -->
<g id="edge29" class="edge">
<title>GO:0055085&#45;&gt;GO:0044765</title>
<path fill="none" stroke="#000000" d="M292.015,-324.7954C274.5062,-334.3635 253.5628,-345.8087 235.0779,-355.9103"/>
<polygon fill="#000000" stroke="#000000" points="233.3236,-352.8804 226.2268,-360.7472 236.6804,-359.023 233.3236,-352.8804"/>
</g>
<!-- GO:0055085&#45;&gt;GO:0044763 -->
<g id="edge30" class="edge">
<title>GO:0055085&#45;&gt;GO:0044763</title>
<path fill="none" stroke="#000000" d="M330.4691,-324.6771C331.3007,-367.5891 333.2261,-466.9395 334.3034,-522.5284"/>
<polygon fill="#000000" stroke="#000000" points="330.8075,-522.774 334.5007,-532.7043 337.8061,-522.6383 330.8075,-522.774"/>
</g>
<!-- GO:0016485 -->
<g id="node23" class="node">
<title>GO:0016485</title>
<polygon fill="#ffffff" stroke="#000000" points="795.5944,-238.6019 676.5424,-238.6019 676.5424,-197.3981 795.5944,-197.3981 795.5944,-238.6019"/>
<text text-anchor="middle" x="736.0684" y="-222.2" font-family="Times,serif" font-size="14.00" fill="#000000">GO:0016485</text>
<text text-anchor="middle" x="736.0684" y="-205.4" font-family="Times,serif" font-size="14.00" fill="#000000">protein processing</text>
</g>
<!-- GO:0006508 -->
<g id="node24" class="node">
<title>GO:0006508</title>
<polygon fill="#ffffff" stroke="#000000" points="719.6723,-324.6019 630.4645,-324.6019 630.4645,-283.3981 719.6723,-283.3981 719.6723,-324.6019"/>
<text text-anchor="middle" x="675.0684" y="-308.2" font-family="Times,serif" font-size="14.00" fill="#000000">GO:0006508</text>
<text text-anchor="middle" x="675.0684" y="-291.4" font-family="Times,serif" font-size="14.00" fill="#000000">proteolysis</text>
</g>
<!-- GO:0016485&#45;&gt;GO:0006508 -->
<g id="edge31" class="edge">
<title>GO:0016485&#45;&gt;GO:0006508</title>
<path fill="none" stroke="#000000" d="M721.302,-238.8182C713.5845,-249.6987 704.0162,-263.1884 695.5899,-275.0681"/>
<polygon fill="#000000" stroke="#000000" points="692.6295,-273.1921 689.6988,-283.3735 698.3391,-277.2419 692.6295,-273.1921"/>
</g>
<!-- GO:0051604 -->
<g id="node25" class="node">
<title>GO:0051604</title>
<polygon fill="#ffffff" stroke="#000000" points="856.8772,-324.6019 737.2596,-324.6019 737.2596,-283.3981 856.8772,-283.3981 856.8772,-324.6019"/>
<text text-anchor="middle" x="797.0684" y="-308.2" font-family="Times,serif" font-size="14.00" fill="#000000">GO:0051604</text>
<text text-anchor="middle" x="797.0684" y="-291.4" font-family="Times,serif" font-size="14.00" fill="#000000">protein maturation</text>
</g>
<!-- GO:0016485&#45;&gt;GO:0051604 -->
<g id="edge32" class="edge">
<title>GO:0016485&#45;&gt;GO:0051604</title>
<path fill="none" stroke="#000000" d="M750.8348,-238.8182C758.5523,-249.6987 768.1206,-263.1884 776.5469,-275.0681"/>
<polygon fill="#000000" stroke="#000000" points="773.7977,-277.2419 782.438,-283.3735 779.5073,-273.1921 773.7977,-277.2419"/>
</g>
<!-- GO:0019538 -->
<g id="node26" class="node">
<title>GO:0019538</title>
<polygon fill="#ffffff" stroke="#000000" points="815.9101,-402.2019 656.2267,-402.2019 656.2267,-360.9981 815.9101,-360.9981 815.9101,-402.2019"/>
<text text-anchor="middle" x="736.0684" y="-385.8" font-family="Times,serif" font-size="14.00" fill="#000000">GO:0019538</text>
<text text-anchor="middle" x="736.0684" y="-369" font-family="Times,serif" font-size="14.00" fill="#000000">protein metabolic process</text>
</g>
<!-- GO:0006508&#45;&gt;GO:0019538 -->
<g id="edge33" class="edge">
<title>GO:0006508&#45;&gt;GO:0019538</title>
<path fill="none" stroke="#000000" d="M691.4153,-324.7954C698.1845,-333.4067 706.1489,-343.5384 713.4628,-352.8427"/>
<polygon fill="#000000" stroke="#000000" points="710.7447,-355.0484 719.6764,-360.7472 716.248,-350.7224 710.7447,-355.0484"/>
</g>
<!-- GO:0051604&#45;&gt;GO:0019538 -->
<g id="edge34" class="edge">
<title>GO:0051604&#45;&gt;GO:0019538</title>
<path fill="none" stroke="#000000" d="M780.7215,-324.7954C773.9523,-333.4067 765.9879,-343.5384 758.674,-352.8427"/>
<polygon fill="#000000" stroke="#000000" points="755.8888,-350.7224 752.4604,-360.7472 761.3921,-355.0484 755.8888,-350.7224"/>
</g>
<!-- GO:0044238 -->
<g id="node27" class="node">
<title>GO:0044238</title>
<polygon fill="#ffffff" stroke="#000000" points="909.0714,-488.2019 745.0654,-488.2019 745.0654,-446.9981 909.0714,-446.9981 909.0714,-488.2019"/>
<text text-anchor="middle" x="827.0684" y="-471.8" font-family="Times,serif" font-size="14.00" fill="#000000">GO:0044238</text>
<text text-anchor="middle" x="827.0684" y="-455" font-family="Times,serif" font-size="14.00" fill="#000000">primary metabolic process</text>
</g>
<!-- GO:0019538&#45;&gt;GO:0044238 -->
<g id="edge35" class="edge">
<title>GO:0019538&#45;&gt;GO:0044238</title>
<path fill="none" stroke="#000000" d="M758.097,-402.4182C770.0571,-413.7212 784.9968,-427.8401 797.911,-440.0446"/>
<polygon fill="#000000" stroke="#000000" points="795.5707,-442.6487 805.2427,-446.9735 800.3788,-437.5611 795.5707,-442.6487"/>
</g>
<!-- GO:0043170 -->
<g id="node28" class="node">
<title>GO:0043170</title>
<polygon fill="#ffffff" stroke="#000000" points="726.5706,-497.0014 565.5662,-497.0014 565.5662,-438.1986 726.5706,-438.1986 726.5706,-497.0014"/>
<text text-anchor="middle" x="646.0684" y="-480.2" font-family="Times,serif" font-size="14.00" fill="#000000">GO:0043170</text>
<text text-anchor="middle" x="646.0684" y="-463.4" font-family="Times,serif" font-size="14.00" fill="#000000">macromolecule metabolic</text>
<text text-anchor="middle" x="646.0684" y="-446.6" font-family="Times,serif" font-size="14.00" fill="#000000">process</text>
</g>
<!-- GO:0019538&#45;&gt;GO:0043170 -->
<g id="edge36" class="edge">
<title>GO:0019538&#45;&gt;GO:0043170</title>
<path fill="none" stroke="#000000" d="M714.2819,-402.4182C705.2397,-411.0586 694.4754,-421.3444 684.2004,-431.1627"/>
<polygon fill="#000000" stroke="#000000" points="681.6487,-428.7601 676.8367,-438.1991 686.4847,-433.821 681.6487,-428.7601"/>
</g>
<!-- GO:0044238&#45;&gt;GO:0008152 -->
<g id="edge37" class="edge">
<title>GO:0044238&#45;&gt;GO:0008152</title>
<path fill="none" stroke="#000000" d="M815.6222,-488.5064C800.379,-514.9191 771.319,-560.6108 737.0684,-591.2 723.6862,-603.1517 707.377,-613.7115 691.8446,-622.384"/>
<polygon fill="#000000" stroke="#000000" points="689.9468,-619.4314 682.8172,-627.2684 693.2779,-625.588 689.9468,-619.4314"/>
</g>
<!-- GO:0043170&#45;&gt;GO:0071704 -->
<g id="edge38" class="edge">
<title>GO:0043170&#45;&gt;GO:0071704</title>
<path fill="none" stroke="#000000" d="M653.5306,-496.9513C655.6075,-505.1206 657.8972,-514.1264 660.0936,-522.7657"/>
<polygon fill="#000000" stroke="#000000" points="656.7547,-523.8376 662.6108,-532.6669 663.5389,-522.1128 656.7547,-523.8376"/>
</g>
</g>
</svg>
