<?xml version="1.0" encoding="UTF-8" standalone="no"?>
<!DOCTYPE svg PUBLIC "-//W3C//DTD SVG 1.1//EN"
 "http://www.w3.org/Graphics/SVG/1.1/DTD/svg11.dtd">
<!-- Generated by graphviz version 2.40.1 (20161225.0304)
 -->
<!-- Title: G Pages: 1 -->
<svg width="1459pt" height="778pt"
 viewBox="0.00 0.00 1458.65 777.60" xmlns="http://www.w3.org/2000/svg" xmlns:xlink="http://www.w3.org/1999/xlink">
<g id="graph0" class="graph" transform="scale(1 1) rotate(0) translate(4 773.6)">
<title>G</title>
<polygon fill="#ffffff" stroke="transparent" points="-4,4 -4,-773.6 1454.6498,-773.6 1454.6498,4 -4,4"/>
<!-- GO:0016787 -->
<g id="node1" class="node">
<title>GO:0016787</title>
<polygon fill="#ff00ff" stroke="#000000" points="1180.8686,-589.0019 1065.0354,-589.0019 1065.0354,-547.7981 1180.8686,-547.7981 1180.8686,-589.0019"/>
<text text-anchor="middle" x="1122.952" y="-572.6" font-family="Times,serif" font-size="14.00" fill="#000000">GO:0016787</text>
<text text-anchor="middle" x="1122.952" y="-555.8" font-family="Times,serif" font-size="14.00" fill="#000000">hydrolase activity</text>
</g>
<!-- GO:0003824 -->
<g id="node2" class="node">
<title>GO:0003824</title>
<polygon fill="#ffffff" stroke="#000000" points="923.3644,-683.4019 814.5396,-683.4019 814.5396,-642.1981 923.3644,-642.1981 923.3644,-683.4019"/>
<text text-anchor="middle" x="868.952" y="-667" font-family="Times,serif" font-size="14.00" fill="#000000">GO:0003824</text>
<text text-anchor="middle" x="868.952" y="-650.2" font-family="Times,serif" font-size="14.00" fill="#000000">catalytic activity</text>
</g>
<!-- GO:0016787&#45;&gt;GO:0003824 -->
<g id="edge1" class="edge">
<title>GO:0016787&#45;&gt;GO:0003824</title>
<path fill="none" stroke="#000000" d="M1067.2106,-589.1165C1027.6504,-603.8192 974.4511,-623.5909 933.1203,-638.9516"/>
<polygon fill="#000000" stroke="#000000" points="931.8443,-635.6919 923.6901,-642.4564 934.2829,-642.2534 931.8443,-635.6919"/>
</g>
<!-- GO:0003674 -->
<g id="node3" class="node">
<title>GO:0003674</title>
<polygon fill="#ffffff" stroke="#000000" points="491.5851,-769.4019 366.3189,-769.4019 366.3189,-728.1981 491.5851,-728.1981 491.5851,-769.4019"/>
<text text-anchor="middle" x="428.952" y="-753" font-family="Times,serif" font-size="14.00" fill="#000000">GO:0003674</text>
<text text-anchor="middle" x="428.952" y="-736.2" font-family="Times,serif" font-size="14.00" fill="#000000">molecular_function</text>
</g>
<!-- GO:0003824&#45;&gt;GO:0003674 -->
<g id="edge2" class="edge">
<title>GO:0003824&#45;&gt;GO:0003674</title>
<path fill="none" stroke="#000000" d="M814.1153,-673.5181C735.1468,-688.9528 589.2717,-717.4648 501.4764,-734.6248"/>
<polygon fill="#000000" stroke="#000000" points="500.7345,-731.2035 491.5916,-736.5568 502.0773,-738.0735 500.7345,-731.2035"/>
</g>
<!-- GO:0000156 -->
<g id="node4" class="node">
<title>GO:0000156</title>
<polygon fill="#ffffff" stroke="#000000" points="143.856,-597.8014 .048,-597.8014 .048,-538.9986 143.856,-538.9986 143.856,-597.8014"/>
<text text-anchor="middle" x="71.952" y="-581" font-family="Times,serif" font-size="14.00" fill="#000000">GO:0000156</text>
<text text-anchor="middle" x="71.952" y="-564.2" font-family="Times,serif" font-size="14.00" fill="#000000">phosphorelay response</text>
<text text-anchor="middle" x="71.952" y="-547.4" font-family="Times,serif" font-size="14.00" fill="#000000">regulator activity</text>
</g>
<!-- GO:0004871 -->
<g id="node5" class="node">
<title>GO:0004871</title>
<polygon fill="#ffffff" stroke="#000000" points="250.6929,-692.2014 139.2111,-692.2014 139.2111,-633.3986 250.6929,-633.3986 250.6929,-692.2014"/>
<text text-anchor="middle" x="194.952" y="-675.4" font-family="Times,serif" font-size="14.00" fill="#000000">GO:0004871</text>
<text text-anchor="middle" x="194.952" y="-658.6" font-family="Times,serif" font-size="14.00" fill="#000000">signal transducer</text>
<text text-anchor="middle" x="194.952" y="-641.8" font-family="Times,serif" font-size="14.00" fill="#000000">activity</text>
</g>
<!-- GO:0000156&#45;&gt;GO:0004871 -->
<g id="edge3" class="edge">
<title>GO:0000156&#45;&gt;GO:0004871</title>
<path fill="none" stroke="#000000" d="M110.1957,-597.7513C122.3441,-607.0749 135.9124,-617.4883 148.5698,-627.2026"/>
<polygon fill="#000000" stroke="#000000" points="146.668,-630.155 156.7319,-633.4669 150.9299,-624.6019 146.668,-630.155"/>
</g>
<!-- GO:0004871&#45;&gt;GO:0003674 -->
<g id="edge4" class="edge">
<title>GO:0004871&#45;&gt;GO:0003674</title>
<path fill="none" stroke="#000000" d="M250.7035,-683.2899C284.4363,-695.6874 327.6289,-711.5616 363.0472,-724.5786"/>
<polygon fill="#000000" stroke="#000000" points="362.223,-728.0045 372.8166,-728.169 364.6378,-721.4342 362.223,-728.0045"/>
</g>
<!-- GO:0016798 -->
<g id="node6" class="node">
<title>GO:0016798</title>
<polygon fill="#ffffff" stroke="#000000" points="1119.5479,-495.0014 964.3561,-495.0014 964.3561,-436.1986 1119.5479,-436.1986 1119.5479,-495.0014"/>
<text text-anchor="middle" x="1041.952" y="-478.2" font-family="Times,serif" font-size="14.00" fill="#000000">GO:0016798</text>
<text text-anchor="middle" x="1041.952" y="-461.4" font-family="Times,serif" font-size="14.00" fill="#000000">hydrolase activity,</text>
<text text-anchor="middle" x="1041.952" y="-444.6" font-family="Times,serif" font-size="14.00" fill="#000000">acting on glycosyl bonds</text>
</g>
<!-- GO:0016798&#45;&gt;GO:0016787 -->
<g id="edge5" class="edge">
<title>GO:0016798&#45;&gt;GO:0016787</title>
<path fill="none" stroke="#000000" d="M1065.1633,-495.0584C1076.1581,-509.0121 1089.2455,-525.6219 1100.1831,-539.5032"/>
<polygon fill="#000000" stroke="#000000" points="1097.7395,-542.0571 1106.6776,-547.7456 1103.2378,-537.7248 1097.7395,-542.0571"/>
</g>
<!-- GO:0005198 -->
<g id="node7" class="node">
<title>GO:0005198</title>
<polygon fill="#ffffff" stroke="#000000" points="428.6348,-692.2014 305.2692,-692.2014 305.2692,-633.3986 428.6348,-633.3986 428.6348,-692.2014"/>
<text text-anchor="middle" x="366.952" y="-675.4" font-family="Times,serif" font-size="14.00" fill="#000000">GO:0005198</text>
<text text-anchor="middle" x="366.952" y="-658.6" font-family="Times,serif" font-size="14.00" fill="#000000">structural molecule</text>
<text text-anchor="middle" x="366.952" y="-641.8" font-family="Times,serif" font-size="14.00" fill="#000000">activity</text>
</g>
<!-- GO:0005198&#45;&gt;GO:0003674 -->
<g id="edge6" class="edge">
<title>GO:0005198&#45;&gt;GO:0003674</title>
<path fill="none" stroke="#000000" d="M388.2889,-692.3963C394.7127,-701.3068 401.7516,-711.0705 408.1409,-719.9329"/>
<polygon fill="#000000" stroke="#000000" points="405.3391,-722.0316 414.0263,-728.0966 411.0173,-717.9379 405.3391,-722.0316"/>
</g>
<!-- GO:0042578 -->
<g id="node8" class="node">
<title>GO:0042578</title>
<polygon fill="#ffffff" stroke="#000000" points="1262.8686,-367.0014 1147.0354,-367.0014 1147.0354,-308.1986 1262.8686,-308.1986 1262.8686,-367.0014"/>
<text text-anchor="middle" x="1204.952" y="-350.2" font-family="Times,serif" font-size="14.00" fill="#000000">GO:0042578</text>
<text text-anchor="middle" x="1204.952" y="-333.4" font-family="Times,serif" font-size="14.00" fill="#000000">phosphoric ester</text>
<text text-anchor="middle" x="1204.952" y="-316.6" font-family="Times,serif" font-size="14.00" fill="#000000">hydrolase activity</text>
</g>
<!-- GO:0016788 -->
<g id="node9" class="node">
<title>GO:0016788</title>
<polygon fill="#ffffff" stroke="#000000" points="1272.0327,-495.0014 1137.8713,-495.0014 1137.8713,-436.1986 1272.0327,-436.1986 1272.0327,-495.0014"/>
<text text-anchor="middle" x="1204.952" y="-478.2" font-family="Times,serif" font-size="14.00" fill="#000000">GO:0016788</text>
<text text-anchor="middle" x="1204.952" y="-461.4" font-family="Times,serif" font-size="14.00" fill="#000000">hydrolase activity,</text>
<text text-anchor="middle" x="1204.952" y="-444.6" font-family="Times,serif" font-size="14.00" fill="#000000">acting on ester bonds</text>
</g>
<!-- GO:0042578&#45;&gt;GO:0016788 -->
<g id="edge7" class="edge">
<title>GO:0042578&#45;&gt;GO:0016788</title>
<path fill="none" stroke="#000000" d="M1204.952,-366.9658C1204.952,-384.5276 1204.952,-407.0684 1204.952,-426.1677"/>
<polygon fill="#000000" stroke="#000000" points="1201.4521,-426.3708 1204.952,-436.3709 1208.4521,-426.3709 1201.4521,-426.3708"/>
</g>
<!-- GO:0016788&#45;&gt;GO:0016787 -->
<g id="edge8" class="edge">
<title>GO:0016788&#45;&gt;GO:0016787</title>
<path fill="none" stroke="#000000" d="M1181.4541,-495.0584C1170.2186,-509.1438 1156.8245,-525.9355 1145.6892,-539.8954"/>
<polygon fill="#000000" stroke="#000000" points="1142.927,-537.7455 1139.4273,-547.7456 1148.3993,-542.1106 1142.927,-537.7455"/>
</g>
<!-- GO:0004673 -->
<g id="node10" class="node">
<title>GO:0004673</title>
<polygon fill="#ffffff" stroke="#000000" points="920.0948,-136.2014 773.8092,-136.2014 773.8092,-77.3986 920.0948,-77.3986 920.0948,-136.2014"/>
<text text-anchor="middle" x="846.952" y="-119.4" font-family="Times,serif" font-size="14.00" fill="#000000">GO:0004673</text>
<text text-anchor="middle" x="846.952" y="-102.6" font-family="Times,serif" font-size="14.00" fill="#000000">protein histidine kinase</text>
<text text-anchor="middle" x="846.952" y="-85.8" font-family="Times,serif" font-size="14.00" fill="#000000">activity</text>
</g>
<!-- GO:0016775 -->
<g id="node11" class="node">
<title>GO:0016775</title>
<polygon fill="#ffffff" stroke="#000000" points="835.5446,-247.3003 704.3594,-247.3003 704.3594,-171.8997 835.5446,-171.8997 835.5446,-247.3003"/>
<text text-anchor="middle" x="769.952" y="-230.6" font-family="Times,serif" font-size="14.00" fill="#000000">GO:0016775</text>
<text text-anchor="middle" x="769.952" y="-213.8" font-family="Times,serif" font-size="14.00" fill="#000000">phosphotransferase</text>
<text text-anchor="middle" x="769.952" y="-197" font-family="Times,serif" font-size="14.00" fill="#000000">activity, nitrogenous</text>
<text text-anchor="middle" x="769.952" y="-180.2" font-family="Times,serif" font-size="14.00" fill="#000000">group as acceptor</text>
</g>
<!-- GO:0004673&#45;&gt;GO:0016775 -->
<g id="edge9" class="edge">
<title>GO:0004673&#45;&gt;GO:0016775</title>
<path fill="none" stroke="#000000" d="M824.8869,-136.2584C818.4938,-144.7936 811.3563,-154.3226 804.3975,-163.613"/>
<polygon fill="#000000" stroke="#000000" points="801.5451,-161.5829 798.3514,-171.685 807.1478,-165.7795 801.5451,-161.5829"/>
</g>
<!-- GO:0004672 -->
<g id="node12" class="node">
<title>GO:0004672</title>
<polygon fill="#ffffff" stroke="#000000" points="994.365,-230.2019 853.539,-230.2019 853.539,-188.9981 994.365,-188.9981 994.365,-230.2019"/>
<text text-anchor="middle" x="923.952" y="-213.8" font-family="Times,serif" font-size="14.00" fill="#000000">GO:0004672</text>
<text text-anchor="middle" x="923.952" y="-197" font-family="Times,serif" font-size="14.00" fill="#000000">protein kinase activity</text>
</g>
<!-- GO:0004673&#45;&gt;GO:0004672 -->
<g id="edge10" class="edge">
<title>GO:0004673&#45;&gt;GO:0004672</title>
<path fill="none" stroke="#000000" d="M869.0171,-136.2584C879.4689,-150.2121 891.91,-166.8219 902.3075,-180.7032"/>
<polygon fill="#000000" stroke="#000000" points="899.6849,-183.0401 908.4813,-188.9456 905.2876,-178.8436 899.6849,-183.0401"/>
</g>
<!-- GO:0016772 -->
<g id="node13" class="node">
<title>GO:0016772</title>
<polygon fill="#ffffff" stroke="#000000" points="945.9598,-503.3003 791.9442,-503.3003 791.9442,-427.8997 945.9598,-427.8997 945.9598,-503.3003"/>
<text text-anchor="middle" x="868.952" y="-486.6" font-family="Times,serif" font-size="14.00" fill="#000000">GO:0016772</text>
<text text-anchor="middle" x="868.952" y="-469.8" font-family="Times,serif" font-size="14.00" fill="#000000">transferase activity,</text>
<text text-anchor="middle" x="868.952" y="-453" font-family="Times,serif" font-size="14.00" fill="#000000">transferring phosphorus&#45;</text>
<text text-anchor="middle" x="868.952" y="-436.2" font-family="Times,serif" font-size="14.00" fill="#000000">containing groups</text>
</g>
<!-- GO:0016775&#45;&gt;GO:0016772 -->
<g id="edge11" class="edge">
<title>GO:0016775&#45;&gt;GO:0016772</title>
<path fill="none" stroke="#000000" d="M766.3555,-247.3883C764.3631,-285.8592 765.9471,-346.193 788.952,-392 794.1272,-402.3049 801.3894,-411.8834 809.4475,-420.4954"/>
<polygon fill="#000000" stroke="#000000" points="807.1741,-423.1735 816.7013,-427.8085 812.1441,-418.2439 807.1741,-423.1735"/>
</g>
<!-- GO:0016773 -->
<g id="node14" class="node">
<title>GO:0016773</title>
<polygon fill="#ffffff" stroke="#000000" points="940.3151,-375.3003 797.5889,-375.3003 797.5889,-299.8997 940.3151,-299.8997 940.3151,-375.3003"/>
<text text-anchor="middle" x="868.952" y="-358.6" font-family="Times,serif" font-size="14.00" fill="#000000">GO:0016773</text>
<text text-anchor="middle" x="868.952" y="-341.8" font-family="Times,serif" font-size="14.00" fill="#000000">phosphotransferase</text>
<text text-anchor="middle" x="868.952" y="-325" font-family="Times,serif" font-size="14.00" fill="#000000">activity, alcohol group</text>
<text text-anchor="middle" x="868.952" y="-308.2" font-family="Times,serif" font-size="14.00" fill="#000000">as acceptor</text>
</g>
<!-- GO:0004672&#45;&gt;GO:0016773 -->
<g id="edge12" class="edge">
<title>GO:0004672&#45;&gt;GO:0016773</title>
<path fill="none" stroke="#000000" d="M914.9929,-230.4503C907.9978,-246.7298 898.0069,-269.9814 889.1186,-290.6669"/>
<polygon fill="#000000" stroke="#000000" points="885.8593,-289.3867 885.1271,-299.9562 892.2907,-292.1502 885.8593,-289.3867"/>
</g>
<!-- GO:0016301 -->
<g id="node15" class="node">
<title>GO:0016301</title>
<polygon fill="#ffffff" stroke="#000000" points="1055.7083,-358.2019 958.1957,-358.2019 958.1957,-316.9981 1055.7083,-316.9981 1055.7083,-358.2019"/>
<text text-anchor="middle" x="1006.952" y="-341.8" font-family="Times,serif" font-size="14.00" fill="#000000">GO:0016301</text>
<text text-anchor="middle" x="1006.952" y="-325" font-family="Times,serif" font-size="14.00" fill="#000000">kinase activity</text>
</g>
<!-- GO:0004672&#45;&gt;GO:0016301 -->
<g id="edge13" class="edge">
<title>GO:0004672&#45;&gt;GO:0016301</title>
<path fill="none" stroke="#000000" d="M937.4721,-230.4503C951.1581,-251.5563 972.4432,-284.3816 987.8492,-308.1402"/>
<polygon fill="#000000" stroke="#000000" points="985.0603,-310.2724 993.4377,-316.7586 990.9336,-306.4639 985.0603,-310.2724"/>
</g>
<!-- GO:0016740 -->
<g id="node16" class="node">
<title>GO:0016740</title>
<polygon fill="#ffffff" stroke="#000000" points="930.0637,-589.0019 807.8403,-589.0019 807.8403,-547.7981 930.0637,-547.7981 930.0637,-589.0019"/>
<text text-anchor="middle" x="868.952" y="-572.6" font-family="Times,serif" font-size="14.00" fill="#000000">GO:0016740</text>
<text text-anchor="middle" x="868.952" y="-555.8" font-family="Times,serif" font-size="14.00" fill="#000000">transferase activity</text>
</g>
<!-- GO:0016772&#45;&gt;GO:0016740 -->
<g id="edge14" class="edge">
<title>GO:0016772&#45;&gt;GO:0016740</title>
<path fill="none" stroke="#000000" d="M868.952,-503.2952C868.952,-514.5552 868.952,-526.7618 868.952,-537.5299"/>
<polygon fill="#000000" stroke="#000000" points="865.4521,-537.7302 868.952,-547.7302 872.4521,-537.7302 865.4521,-537.7302"/>
</g>
<!-- GO:0016773&#45;&gt;GO:0016772 -->
<g id="edge15" class="edge">
<title>GO:0016773&#45;&gt;GO:0016772</title>
<path fill="none" stroke="#000000" d="M868.952,-375.3119C868.952,-388.4752 868.952,-403.4342 868.952,-417.3369"/>
<polygon fill="#000000" stroke="#000000" points="865.4521,-417.7153 868.952,-427.7153 872.4521,-417.7153 865.4521,-417.7153"/>
</g>
<!-- GO:0016301&#45;&gt;GO:0016772 -->
<g id="edge16" class="edge">
<title>GO:0016301&#45;&gt;GO:0016772</title>
<path fill="none" stroke="#000000" d="M984.9654,-358.3156C974.1428,-368.4887 960.8874,-380.9129 948.952,-392 938.8268,-401.4056 927.9485,-411.4523 917.5763,-421.0038"/>
<polygon fill="#000000" stroke="#000000" points="915.1197,-418.5081 910.1312,-427.8551 919.8598,-423.659 915.1197,-418.5081"/>
</g>
<!-- GO:0016740&#45;&gt;GO:0003824 -->
<g id="edge17" class="edge">
<title>GO:0016740&#45;&gt;GO:0003824</title>
<path fill="none" stroke="#000000" d="M868.952,-589.3504C868.952,-601.8165 868.952,-617.8645 868.952,-631.7786"/>
<polygon fill="#000000" stroke="#000000" points="865.4521,-631.9081 868.952,-641.9081 872.4521,-631.9082 865.4521,-631.9081"/>
</g>
<!-- GO:0017076 -->
<g id="node17" class="node">
<title>GO:0017076</title>
<polygon fill="#ffffff" stroke="#000000" points="437.8147,-230.2019 278.0893,-230.2019 278.0893,-188.9981 437.8147,-188.9981 437.8147,-230.2019"/>
<text text-anchor="middle" x="357.952" y="-213.8" font-family="Times,serif" font-size="14.00" fill="#000000">GO:0017076</text>
<text text-anchor="middle" x="357.952" y="-197" font-family="Times,serif" font-size="14.00" fill="#000000">purine nucleotide binding</text>
</g>
<!-- GO:0000166 -->
<g id="node18" class="node">
<title>GO:0000166</title>
<polygon fill="#ffffff" stroke="#000000" points="418.0495,-358.2019 297.8545,-358.2019 297.8545,-316.9981 418.0495,-316.9981 418.0495,-358.2019"/>
<text text-anchor="middle" x="357.952" y="-341.8" font-family="Times,serif" font-size="14.00" fill="#000000">GO:0000166</text>
<text text-anchor="middle" x="357.952" y="-325" font-family="Times,serif" font-size="14.00" fill="#000000">nucleotide binding</text>
</g>
<!-- GO:0017076&#45;&gt;GO:0000166 -->
<g id="edge18" class="edge">
<title>GO:0017076&#45;&gt;GO:0000166</title>
<path fill="none" stroke="#000000" d="M357.952,-230.4503C357.952,-251.0914 357.952,-282.9413 357.952,-306.5573"/>
<polygon fill="#000000" stroke="#000000" points="354.4521,-306.7586 357.952,-316.7586 361.4521,-306.7587 354.4521,-306.7586"/>
</g>
<!-- GO:0036094 -->
<g id="node19" class="node">
<title>GO:0036094</title>
<polygon fill="#ffffff" stroke="#000000" points="309.8804,-589.0019 162.0236,-589.0019 162.0236,-547.7981 309.8804,-547.7981 309.8804,-589.0019"/>
<text text-anchor="middle" x="235.952" y="-572.6" font-family="Times,serif" font-size="14.00" fill="#000000">GO:0036094</text>
<text text-anchor="middle" x="235.952" y="-555.8" font-family="Times,serif" font-size="14.00" fill="#000000">small molecule binding</text>
</g>
<!-- GO:0000166&#45;&gt;GO:0036094 -->
<g id="edge19" class="edge">
<title>GO:0000166&#45;&gt;GO:0036094</title>
<path fill="none" stroke="#000000" d="M346.9101,-358.489C325.1344,-399.6844 276.5997,-491.5026 251.5606,-538.8715"/>
<polygon fill="#000000" stroke="#000000" points="248.46,-537.2479 246.881,-547.7245 254.6486,-540.5192 248.46,-537.2479"/>
</g>
<!-- GO:1901265 -->
<g id="node20" class="node">
<title>GO:1901265</title>
<polygon fill="#ffffff" stroke="#000000" points="474.0861,-495.0014 337.8179,-495.0014 337.8179,-436.1986 474.0861,-436.1986 474.0861,-495.0014"/>
<text text-anchor="middle" x="405.952" y="-478.2" font-family="Times,serif" font-size="14.00" fill="#000000">GO:1901265</text>
<text text-anchor="middle" x="405.952" y="-461.4" font-family="Times,serif" font-size="14.00" fill="#000000">nucleoside phosphate</text>
<text text-anchor="middle" x="405.952" y="-444.6" font-family="Times,serif" font-size="14.00" fill="#000000">binding</text>
</g>
<!-- GO:0000166&#45;&gt;GO:1901265 -->
<g id="edge20" class="edge">
<title>GO:0000166&#45;&gt;GO:1901265</title>
<path fill="none" stroke="#000000" d="M365.7709,-358.4503C372.6668,-376.8395 382.8989,-404.125 391.3116,-426.559"/>
<polygon fill="#000000" stroke="#000000" points="388.1217,-428.0208 394.9102,-436.1551 394.676,-425.5629 388.1217,-428.0208"/>
</g>
<!-- GO:0005488 -->
<g id="node21" class="node">
<title>GO:0005488</title>
<polygon fill="#ffffff" stroke="#000000" points="535.5559,-683.4019 446.3481,-683.4019 446.3481,-642.1981 535.5559,-642.1981 535.5559,-683.4019"/>
<text text-anchor="middle" x="490.952" y="-667" font-family="Times,serif" font-size="14.00" fill="#000000">GO:0005488</text>
<text text-anchor="middle" x="490.952" y="-650.2" font-family="Times,serif" font-size="14.00" fill="#000000">binding</text>
</g>
<!-- GO:0036094&#45;&gt;GO:0005488 -->
<g id="edge21" class="edge">
<title>GO:0036094&#45;&gt;GO:0005488</title>
<path fill="none" stroke="#000000" d="M292.7287,-589.0377C301.1615,-591.9808 309.7669,-594.9168 317.952,-597.6 370.8632,-614.9451 386.612,-612.0442 437.952,-633.6 440.814,-634.8017 443.7214,-636.1149 446.6255,-637.498"/>
<polygon fill="#000000" stroke="#000000" points="445.3211,-640.7589 455.8305,-642.1019 448.4524,-634.4983 445.3211,-640.7589"/>
</g>
<!-- GO:0097159 -->
<g id="node22" class="node">
<title>GO:0097159</title>
<polygon fill="#ffffff" stroke="#000000" points="484.4634,-597.8014 327.4406,-597.8014 327.4406,-538.9986 484.4634,-538.9986 484.4634,-597.8014"/>
<text text-anchor="middle" x="405.952" y="-581" font-family="Times,serif" font-size="14.00" fill="#000000">GO:0097159</text>
<text text-anchor="middle" x="405.952" y="-564.2" font-family="Times,serif" font-size="14.00" fill="#000000">organic cyclic compound</text>
<text text-anchor="middle" x="405.952" y="-547.4" font-family="Times,serif" font-size="14.00" fill="#000000">binding</text>
</g>
<!-- GO:1901265&#45;&gt;GO:0097159 -->
<g id="edge22" class="edge">
<title>GO:1901265&#45;&gt;GO:0097159</title>
<path fill="none" stroke="#000000" d="M405.952,-495.0584C405.952,-505.5969 405.952,-517.6505 405.952,-528.8994"/>
<polygon fill="#000000" stroke="#000000" points="402.4521,-528.9373 405.952,-538.9373 409.4521,-528.9374 402.4521,-528.9373"/>
</g>
<!-- GO:1901363 -->
<g id="node23" class="node">
<title>GO:1901363</title>
<polygon fill="#ffffff" stroke="#000000" points="649.4626,-597.8014 502.4414,-597.8014 502.4414,-538.9986 649.4626,-538.9986 649.4626,-597.8014"/>
<text text-anchor="middle" x="575.952" y="-581" font-family="Times,serif" font-size="14.00" fill="#000000">GO:1901363</text>
<text text-anchor="middle" x="575.952" y="-564.2" font-family="Times,serif" font-size="14.00" fill="#000000">heterocyclic compound</text>
<text text-anchor="middle" x="575.952" y="-547.4" font-family="Times,serif" font-size="14.00" fill="#000000">binding</text>
</g>
<!-- GO:1901265&#45;&gt;GO:1901363 -->
<g id="edge23" class="edge">
<title>GO:1901265&#45;&gt;GO:1901363</title>
<path fill="none" stroke="#000000" d="M454.6672,-495.0584C474.6703,-507.1544 497.9739,-521.2462 518.7778,-533.8264"/>
<polygon fill="#000000" stroke="#000000" points="517.1556,-536.9356 527.5238,-539.1152 520.7778,-530.9456 517.1556,-536.9356"/>
</g>
<!-- GO:0005488&#45;&gt;GO:0003674 -->
<g id="edge24" class="edge">
<title>GO:0005488&#45;&gt;GO:0003674</title>
<path fill="none" stroke="#000000" d="M475.9435,-683.6182C468.0995,-694.4987 458.3743,-707.9884 449.8099,-719.8681"/>
<polygon fill="#000000" stroke="#000000" points="446.8312,-718.0149 443.8223,-728.1735 452.5094,-722.1086 446.8312,-718.0149"/>
</g>
<!-- GO:0097159&#45;&gt;GO:0005488 -->
<g id="edge25" class="edge">
<title>GO:0097159&#45;&gt;GO:0005488</title>
<path fill="none" stroke="#000000" d="M432.3806,-597.7513C442.9133,-609.4488 454.9904,-622.8615 465.4313,-634.457"/>
<polygon fill="#000000" stroke="#000000" points="463.0667,-637.0616 472.3591,-642.151 468.2687,-632.3776 463.0667,-637.0616"/>
</g>
<!-- GO:1901363&#45;&gt;GO:0005488 -->
<g id="edge26" class="edge">
<title>GO:1901363&#45;&gt;GO:0005488</title>
<path fill="none" stroke="#000000" d="M549.5234,-597.7513C538.9907,-609.4488 526.9136,-622.8615 516.4727,-634.457"/>
<polygon fill="#000000" stroke="#000000" points="513.6353,-632.3776 509.5449,-642.151 518.8373,-637.0616 513.6353,-632.3776"/>
</g>
<!-- GO:0003774 -->
<g id="node24" class="node">
<title>GO:0003774</title>
<polygon fill="#ffffff" stroke="#000000" points="1417.3854,-41.4019 1322.5186,-41.4019 1322.5186,-.1981 1417.3854,-.1981 1417.3854,-41.4019"/>
<text text-anchor="middle" x="1369.952" y="-25" font-family="Times,serif" font-size="14.00" fill="#000000">GO:0003774</text>
<text text-anchor="middle" x="1369.952" y="-8.2" font-family="Times,serif" font-size="14.00" fill="#000000">motor activity</text>
</g>
<!-- GO:0017111 -->
<g id="node25" class="node">
<title>GO:0017111</title>
<polygon fill="#ffffff" stroke="#000000" points="1450.8481,-136.2014 1289.0559,-136.2014 1289.0559,-77.3986 1450.8481,-77.3986 1450.8481,-136.2014"/>
<text text-anchor="middle" x="1369.952" y="-119.4" font-family="Times,serif" font-size="14.00" fill="#000000">GO:0017111</text>
<text text-anchor="middle" x="1369.952" y="-102.6" font-family="Times,serif" font-size="14.00" fill="#000000">nucleoside&#45;triphosphatase</text>
<text text-anchor="middle" x="1369.952" y="-85.8" font-family="Times,serif" font-size="14.00" fill="#000000">activity</text>
</g>
<!-- GO:0003774&#45;&gt;GO:0017111 -->
<g id="edge27" class="edge">
<title>GO:0003774&#45;&gt;GO:0017111</title>
<path fill="none" stroke="#000000" d="M1369.952,-41.6182C1369.952,-49.3358 1369.952,-58.3662 1369.952,-67.2036"/>
<polygon fill="#000000" stroke="#000000" points="1366.4521,-67.3991 1369.952,-77.3991 1373.4521,-67.3992 1366.4521,-67.3991"/>
</g>
<!-- GO:0016462 -->
<g id="node26" class="node">
<title>GO:0016462</title>
<polygon fill="#ffffff" stroke="#000000" points="1447.5284,-230.2019 1292.3756,-230.2019 1292.3756,-188.9981 1447.5284,-188.9981 1447.5284,-230.2019"/>
<text text-anchor="middle" x="1369.952" y="-213.8" font-family="Times,serif" font-size="14.00" fill="#000000">GO:0016462</text>
<text text-anchor="middle" x="1369.952" y="-197" font-family="Times,serif" font-size="14.00" fill="#000000">pyrophosphatase activity</text>
</g>
<!-- GO:0017111&#45;&gt;GO:0016462 -->
<g id="edge28" class="edge">
<title>GO:0017111&#45;&gt;GO:0016462</title>
<path fill="none" stroke="#000000" d="M1369.952,-136.2584C1369.952,-149.5539 1369.952,-165.2608 1369.952,-178.7212"/>
<polygon fill="#000000" stroke="#000000" points="1366.4521,-178.9456 1369.952,-188.9456 1373.4521,-178.9457 1366.4521,-178.9456"/>
</g>
<!-- GO:0016818 -->
<g id="node27" class="node">
<title>GO:0016818</title>
<polygon fill="#ffffff" stroke="#000000" points="1442.2637,-391.9002 1297.6403,-391.9002 1297.6403,-283.2998 1442.2637,-283.2998 1442.2637,-391.9002"/>
<text text-anchor="middle" x="1369.952" y="-375.4" font-family="Times,serif" font-size="14.00" fill="#000000">GO:0016818</text>
<text text-anchor="middle" x="1369.952" y="-358.6" font-family="Times,serif" font-size="14.00" fill="#000000">hydrolase activity,</text>
<text text-anchor="middle" x="1369.952" y="-341.8" font-family="Times,serif" font-size="14.00" fill="#000000">acting on acid</text>
<text text-anchor="middle" x="1369.952" y="-325" font-family="Times,serif" font-size="14.00" fill="#000000">anhydrides, in</text>
<text text-anchor="middle" x="1369.952" y="-308.2" font-family="Times,serif" font-size="14.00" fill="#000000">phosphorus&#45;containing</text>
<text text-anchor="middle" x="1369.952" y="-291.4" font-family="Times,serif" font-size="14.00" fill="#000000">anhydrides</text>
</g>
<!-- GO:0016462&#45;&gt;GO:0016818 -->
<g id="edge29" class="edge">
<title>GO:0016462&#45;&gt;GO:0016818</title>
<path fill="none" stroke="#000000" d="M1369.952,-230.4503C1369.952,-242.1888 1369.952,-257.5523 1369.952,-272.9649"/>
<polygon fill="#000000" stroke="#000000" points="1366.4521,-273.0627 1369.952,-283.0627 1373.4521,-273.0627 1366.4521,-273.0627"/>
</g>
<!-- GO:0016817 -->
<g id="node28" class="node">
<title>GO:0016817</title>
<polygon fill="#ffffff" stroke="#000000" points="1449.9079,-495.0014 1289.9961,-495.0014 1289.9961,-436.1986 1449.9079,-436.1986 1449.9079,-495.0014"/>
<text text-anchor="middle" x="1369.952" y="-478.2" font-family="Times,serif" font-size="14.00" fill="#000000">GO:0016817</text>
<text text-anchor="middle" x="1369.952" y="-461.4" font-family="Times,serif" font-size="14.00" fill="#000000">hydrolase activity,</text>
<text text-anchor="middle" x="1369.952" y="-444.6" font-family="Times,serif" font-size="14.00" fill="#000000">acting on acid anhydrides</text>
</g>
<!-- GO:0016818&#45;&gt;GO:0016817 -->
<g id="edge30" class="edge">
<title>GO:0016818&#45;&gt;GO:0016817</title>
<path fill="none" stroke="#000000" d="M1369.952,-392.2548C1369.952,-403.5684 1369.952,-415.2801 1369.952,-425.9346"/>
<polygon fill="#000000" stroke="#000000" points="1366.4521,-426.1827 1369.952,-436.1828 1373.4521,-426.1828 1366.4521,-426.1827"/>
</g>
<!-- GO:0016817&#45;&gt;GO:0016787 -->
<g id="edge31" class="edge">
<title>GO:0016817&#45;&gt;GO:0016787</title>
<path fill="none" stroke="#000000" d="M1300.9812,-494.8052C1294.2164,-497.6496 1287.453,-500.4855 1280.952,-503.2 1248.5833,-516.7157 1212.4198,-531.6511 1182.8672,-543.8133"/>
<polygon fill="#000000" stroke="#000000" points="1181.4343,-540.6181 1173.5177,-547.6593 1184.0973,-547.0918 1181.4343,-540.6181"/>
</g>
<!-- GO:0042802 -->
<g id="node29" class="node">
<title>GO:0042802</title>
<polygon fill="#ffffff" stroke="#000000" points="773.5962,-486.2019 620.3078,-486.2019 620.3078,-444.9981 773.5962,-444.9981 773.5962,-486.2019"/>
<text text-anchor="middle" x="696.952" y="-469.8" font-family="Times,serif" font-size="14.00" fill="#000000">GO:0042802</text>
<text text-anchor="middle" x="696.952" y="-453" font-family="Times,serif" font-size="14.00" fill="#000000">identical protein binding</text>
</g>
<!-- GO:0005515 -->
<g id="node30" class="node">
<title>GO:0005515</title>
<polygon fill="#ffffff" stroke="#000000" points="768.8896,-589.0019 667.0144,-589.0019 667.0144,-547.7981 768.8896,-547.7981 768.8896,-589.0019"/>
<text text-anchor="middle" x="717.952" y="-572.6" font-family="Times,serif" font-size="14.00" fill="#000000">GO:0005515</text>
<text text-anchor="middle" x="717.952" y="-555.8" font-family="Times,serif" font-size="14.00" fill="#000000">protein binding</text>
</g>
<!-- GO:0042802&#45;&gt;GO:0005515 -->
<g id="edge32" class="edge">
<title>GO:0042802&#45;&gt;GO:0005515</title>
<path fill="none" stroke="#000000" d="M701.2017,-486.4031C704.2189,-501.173 708.3186,-521.2424 711.7069,-537.829"/>
<polygon fill="#000000" stroke="#000000" points="708.2779,-538.5307 713.7087,-547.6278 715.1363,-537.1296 708.2779,-538.5307"/>
</g>
<!-- GO:0005515&#45;&gt;GO:0005488 -->
<g id="edge33" class="edge">
<title>GO:0005515&#45;&gt;GO:0005488</title>
<path fill="none" stroke="#000000" d="M677.2319,-589.1416C671.1457,-592.0699 664.9138,-594.9741 658.952,-597.6 621.4263,-614.1283 578.2903,-630.8222 545.1243,-643.1799"/>
<polygon fill="#000000" stroke="#000000" points="543.7682,-639.9498 535.609,-646.7084 546.2021,-646.5131 543.7682,-639.9498"/>
</g>
</g>
</svg>
