<?xml version="1.0" encoding="UTF-8" standalone="no"?>
<!DOCTYPE svg PUBLIC "-//W3C//DTD SVG 1.1//EN"
 "http://www.w3.org/Graphics/SVG/1.1/DTD/svg11.dtd">
<!-- Generated by graphviz version 2.40.1 (20161225.0304)
 -->
<!-- Title: G Pages: 1 -->
<svg width="441pt" height="299pt"
 viewBox="0.00 0.00 440.75 299.20" xmlns="http://www.w3.org/2000/svg" xmlns:xlink="http://www.w3.org/1999/xlink">
<g id="graph0" class="graph" transform="scale(1 1) rotate(0) translate(4 295.2)">
<title>G</title>
<polygon fill="#ffffff" stroke="transparent" points="-4,4 -4,-295.2 436.7511,-295.2 436.7511,4 -4,4"/>
<!-- GO:0043169 -->
<g id="node1" class="node">
<title>GO:0043169</title>
<polygon fill="#ffffff" stroke="#000000" points="96.7387,-41.4019 -.2471,-41.4019 -.2471,-.1981 96.7387,-.1981 96.7387,-41.4019"/>
<text text-anchor="middle" x="48.2458" y="-25" font-family="Times,serif" font-size="14.00" fill="#000000">GO:0043169</text>
<text text-anchor="middle" x="48.2458" y="-8.2" font-family="Times,serif" font-size="14.00" fill="#000000">cation binding</text>
</g>
<!-- GO:0043167 -->
<g id="node2" class="node">
<title>GO:0043167</title>
<polygon fill="#ffffff" stroke="#000000" points="92.8497,-127.4019 3.6419,-127.4019 3.6419,-86.1981 92.8497,-86.1981 92.8497,-127.4019"/>
<text text-anchor="middle" x="48.2458" y="-111" font-family="Times,serif" font-size="14.00" fill="#000000">GO:0043167</text>
<text text-anchor="middle" x="48.2458" y="-94.2" font-family="Times,serif" font-size="14.00" fill="#000000">ion binding</text>
</g>
<!-- GO:0043169&#45;&gt;GO:0043167 -->
<g id="edge1" class="edge">
<title>GO:0043169&#45;&gt;GO:0043167</title>
<path fill="none" stroke="#000000" d="M48.2458,-41.6182C48.2458,-51.9705 48.2458,-64.6848 48.2458,-76.1271"/>
<polygon fill="#000000" stroke="#000000" points="44.7459,-76.1735 48.2458,-86.1735 51.7459,-76.1735 44.7459,-76.1735"/>
</g>
<!-- GO:0005488 -->
<g id="node3" class="node">
<title>GO:0005488</title>
<polygon fill="#ffffff" stroke="#000000" points="233.8497,-213.4019 144.6419,-213.4019 144.6419,-172.1981 233.8497,-172.1981 233.8497,-213.4019"/>
<text text-anchor="middle" x="189.2458" y="-197" font-family="Times,serif" font-size="14.00" fill="#000000">GO:0005488</text>
<text text-anchor="middle" x="189.2458" y="-180.2" font-family="Times,serif" font-size="14.00" fill="#000000">binding</text>
</g>
<!-- GO:0043167&#45;&gt;GO:0005488 -->
<g id="edge2" class="edge">
<title>GO:0043167&#45;&gt;GO:0005488</title>
<path fill="none" stroke="#000000" d="M82.378,-127.6182C101.7756,-139.4494 126.2315,-154.3657 146.8515,-166.9425"/>
<polygon fill="#000000" stroke="#000000" points="145.0681,-169.9544 155.428,-172.1735 148.7132,-163.9783 145.0681,-169.9544"/>
</g>
<!-- GO:0003674 -->
<g id="node4" class="node">
<title>GO:0003674</title>
<polygon fill="#ffffff" stroke="#000000" points="251.8789,-291.0019 126.6127,-291.0019 126.6127,-249.7981 251.8789,-249.7981 251.8789,-291.0019"/>
<text text-anchor="middle" x="189.2458" y="-274.6" font-family="Times,serif" font-size="14.00" fill="#000000">GO:0003674</text>
<text text-anchor="middle" x="189.2458" y="-257.8" font-family="Times,serif" font-size="14.00" fill="#000000">molecular_function</text>
</g>
<!-- GO:0005488&#45;&gt;GO:0003674 -->
<g id="edge3" class="edge">
<title>GO:0005488&#45;&gt;GO:0003674</title>
<path fill="none" stroke="#000000" d="M189.2458,-213.5954C189.2458,-221.5109 189.2458,-230.7109 189.2458,-239.3722"/>
<polygon fill="#000000" stroke="#000000" points="185.7459,-239.5472 189.2458,-249.5472 192.7459,-239.5473 185.7459,-239.5472"/>
</g>
<!-- GO:0097159 -->
<g id="node5" class="node">
<title>GO:0097159</title>
<polygon fill="#ffffff" stroke="#000000" points="267.7572,-136.2014 110.7344,-136.2014 110.7344,-77.3986 267.7572,-77.3986 267.7572,-136.2014"/>
<text text-anchor="middle" x="189.2458" y="-119.4" font-family="Times,serif" font-size="14.00" fill="#000000">GO:0097159</text>
<text text-anchor="middle" x="189.2458" y="-102.6" font-family="Times,serif" font-size="14.00" fill="#000000">organic cyclic compound</text>
<text text-anchor="middle" x="189.2458" y="-85.8" font-family="Times,serif" font-size="14.00" fill="#000000">binding</text>
</g>
<!-- GO:0097159&#45;&gt;GO:0005488 -->
<g id="edge4" class="edge">
<title>GO:0097159&#45;&gt;GO:0005488</title>
<path fill="none" stroke="#000000" d="M189.2458,-136.3963C189.2458,-144.6638 189.2458,-153.6657 189.2458,-162.0008"/>
<polygon fill="#000000" stroke="#000000" points="185.7459,-162.0965 189.2458,-172.0966 192.7459,-162.0966 185.7459,-162.0965"/>
</g>
<!-- GO:1901363 -->
<g id="node6" class="node">
<title>GO:1901363</title>
<polygon fill="#ffffff" stroke="#000000" points="432.7564,-136.2014 285.7352,-136.2014 285.7352,-77.3986 432.7564,-77.3986 432.7564,-136.2014"/>
<text text-anchor="middle" x="359.2458" y="-119.4" font-family="Times,serif" font-size="14.00" fill="#000000">GO:1901363</text>
<text text-anchor="middle" x="359.2458" y="-102.6" font-family="Times,serif" font-size="14.00" fill="#000000">heterocyclic compound</text>
<text text-anchor="middle" x="359.2458" y="-85.8" font-family="Times,serif" font-size="14.00" fill="#000000">binding</text>
</g>
<!-- GO:1901363&#45;&gt;GO:0005488 -->
<g id="edge5" class="edge">
<title>GO:1901363&#45;&gt;GO:0005488</title>
<path fill="none" stroke="#000000" d="M301.2169,-136.1558C281.0391,-146.3634 258.5991,-157.7154 239.1379,-167.5605"/>
<polygon fill="#000000" stroke="#000000" points="237.4798,-164.4768 230.1366,-172.1141 240.6397,-170.7231 237.4798,-164.4768"/>
</g>
</g>
</svg>
