<?xml version="1.0" encoding="UTF-8" standalone="no"?>
<!DOCTYPE svg PUBLIC "-//W3C//DTD SVG 1.1//EN"
 "http://www.w3.org/Graphics/SVG/1.1/DTD/svg11.dtd">
<!-- Generated by graphviz version 2.40.1 (20161225.0304)
 -->
<!-- Title: G Pages: 1 -->
<svg width="368pt" height="522pt"
 viewBox="0.00 0.00 368.30 521.60" xmlns="http://www.w3.org/2000/svg" xmlns:xlink="http://www.w3.org/1999/xlink">
<g id="graph0" class="graph" transform="scale(1 1) rotate(0) translate(4 517.6)">
<title>G</title>
<polygon fill="#ffffff" stroke="transparent" points="-4,4 -4,-517.6 364.3027,-517.6 364.3027,4 -4,4"/>
<!-- GO:0004018 -->
<g id="node1" class="node">
<title>GO:0004018</title>
<polygon fill="#ffffff" stroke="#000000" points="175.6647,-92.1003 .1117,-92.1003 .1117,-16.6997 175.6647,-16.6997 175.6647,-92.1003"/>
<text text-anchor="middle" x="87.8882" y="-75.4" font-family="Times,serif" font-size="14.00" fill="#000000">GO:0004018</text>
<text text-anchor="middle" x="87.8882" y="-58.6" font-family="Times,serif" font-size="14.00" fill="#000000">N6&#45;(1,2&#45;dicarboxyethyl)AM</text>
<text text-anchor="middle" x="87.8882" y="-41.8" font-family="Times,serif" font-size="14.00" fill="#000000">P AMP&#45;lyase (fumarate&#45;</text>
<text text-anchor="middle" x="87.8882" y="-25" font-family="Times,serif" font-size="14.00" fill="#000000">forming) activity</text>
</g>
<!-- GO:0016842 -->
<g id="node2" class="node">
<title>GO:0016842</title>
<polygon fill="#ffffff" stroke="#000000" points="251.9058,-186.2019 111.8706,-186.2019 111.8706,-144.9981 251.9058,-144.9981 251.9058,-186.2019"/>
<text text-anchor="middle" x="181.8882" y="-169.8" font-family="Times,serif" font-size="14.00" fill="#000000">GO:0016842</text>
<text text-anchor="middle" x="181.8882" y="-153" font-family="Times,serif" font-size="14.00" fill="#000000">amidine&#45;lyase activity</text>
</g>
<!-- GO:0004018&#45;&gt;GO:0016842 -->
<g id="edge1" class="edge">
<title>GO:0004018&#45;&gt;GO:0016842</title>
<path fill="none" stroke="#000000" d="M119.7123,-92.0472C132.1789,-106.795 146.2413,-123.4305 157.8351,-137.1457"/>
<polygon fill="#000000" stroke="#000000" points="155.2166,-139.4697 164.3453,-144.8471 160.5625,-134.9506 155.2166,-139.4697"/>
</g>
<!-- GO:0016840 -->
<g id="node3" class="node">
<title>GO:0016840</title>
<polygon fill="#ffffff" stroke="#000000" points="250.5598,-281.0014 113.2166,-281.0014 113.2166,-222.1986 250.5598,-222.1986 250.5598,-281.0014"/>
<text text-anchor="middle" x="181.8882" y="-264.2" font-family="Times,serif" font-size="14.00" fill="#000000">GO:0016840</text>
<text text-anchor="middle" x="181.8882" y="-247.4" font-family="Times,serif" font-size="14.00" fill="#000000">carbon&#45;nitrogen lyase</text>
<text text-anchor="middle" x="181.8882" y="-230.6" font-family="Times,serif" font-size="14.00" fill="#000000">activity</text>
</g>
<!-- GO:0016842&#45;&gt;GO:0016840 -->
<g id="edge2" class="edge">
<title>GO:0016842&#45;&gt;GO:0016840</title>
<path fill="none" stroke="#000000" d="M181.8882,-186.4182C181.8882,-194.1358 181.8882,-203.1662 181.8882,-212.0036"/>
<polygon fill="#000000" stroke="#000000" points="178.3883,-212.1991 181.8882,-222.1991 185.3883,-212.1992 178.3883,-212.1991"/>
</g>
<!-- GO:0016829 -->
<g id="node4" class="node">
<title>GO:0016829</title>
<polygon fill="#ffffff" stroke="#000000" points="227.1446,-358.2019 136.6318,-358.2019 136.6318,-316.9981 227.1446,-316.9981 227.1446,-358.2019"/>
<text text-anchor="middle" x="181.8882" y="-341.8" font-family="Times,serif" font-size="14.00" fill="#000000">GO:0016829</text>
<text text-anchor="middle" x="181.8882" y="-325" font-family="Times,serif" font-size="14.00" fill="#000000">lyase activity</text>
</g>
<!-- GO:0016840&#45;&gt;GO:0016829 -->
<g id="edge3" class="edge">
<title>GO:0016840&#45;&gt;GO:0016829</title>
<path fill="none" stroke="#000000" d="M181.8882,-281.1963C181.8882,-289.4638 181.8882,-298.4657 181.8882,-306.8008"/>
<polygon fill="#000000" stroke="#000000" points="178.3883,-306.8965 181.8882,-316.8966 185.3883,-306.8966 178.3883,-306.8965"/>
</g>
<!-- GO:0003824 -->
<g id="node5" class="node">
<title>GO:0003824</title>
<polygon fill="#ffffff" stroke="#000000" points="236.3006,-435.8019 127.4758,-435.8019 127.4758,-394.5981 236.3006,-394.5981 236.3006,-435.8019"/>
<text text-anchor="middle" x="181.8882" y="-419.4" font-family="Times,serif" font-size="14.00" fill="#000000">GO:0003824</text>
<text text-anchor="middle" x="181.8882" y="-402.6" font-family="Times,serif" font-size="14.00" fill="#000000">catalytic activity</text>
</g>
<!-- GO:0016829&#45;&gt;GO:0003824 -->
<g id="edge4" class="edge">
<title>GO:0016829&#45;&gt;GO:0003824</title>
<path fill="none" stroke="#000000" d="M181.8882,-358.3954C181.8882,-366.3109 181.8882,-375.5109 181.8882,-384.1722"/>
<polygon fill="#000000" stroke="#000000" points="178.3883,-384.3472 181.8882,-394.3472 185.3883,-384.3473 178.3883,-384.3472"/>
</g>
<!-- GO:0003674 -->
<g id="node6" class="node">
<title>GO:0003674</title>
<polygon fill="#ffffff" stroke="#000000" points="244.5213,-513.4019 119.2551,-513.4019 119.2551,-472.1981 244.5213,-472.1981 244.5213,-513.4019"/>
<text text-anchor="middle" x="181.8882" y="-497" font-family="Times,serif" font-size="14.00" fill="#000000">GO:0003674</text>
<text text-anchor="middle" x="181.8882" y="-480.2" font-family="Times,serif" font-size="14.00" fill="#000000">molecular_function</text>
</g>
<!-- GO:0003824&#45;&gt;GO:0003674 -->
<g id="edge5" class="edge">
<title>GO:0003824&#45;&gt;GO:0003674</title>
<path fill="none" stroke="#000000" d="M181.8882,-435.9954C181.8882,-443.9109 181.8882,-453.1109 181.8882,-461.7722"/>
<polygon fill="#000000" stroke="#000000" points="178.3883,-461.9472 181.8882,-471.9472 185.3883,-461.9473 178.3883,-461.9472"/>
</g>
<!-- GO:0070626 -->
<g id="node7" class="node">
<title>GO:0070626</title>
<polygon fill="#ffffff" stroke="#000000" points="360.2173,-108.7002 193.5591,-108.7002 193.5591,-.0998 360.2173,-.0998 360.2173,-108.7002"/>
<text text-anchor="middle" x="276.8882" y="-92.2" font-family="Times,serif" font-size="14.00" fill="#000000">GO:0070626</text>
<text text-anchor="middle" x="276.8882" y="-75.4" font-family="Times,serif" font-size="14.00" fill="#000000">(S)&#45;2&#45;(5&#45;amino&#45;1&#45;(5&#45;phosp</text>
<text text-anchor="middle" x="276.8882" y="-58.6" font-family="Times,serif" font-size="14.00" fill="#000000">ho&#45;D&#45;ribosyl)imidazole&#45;4&#45;</text>
<text text-anchor="middle" x="276.8882" y="-41.8" font-family="Times,serif" font-size="14.00" fill="#000000">carboxamido)succinate</text>
<text text-anchor="middle" x="276.8882" y="-25" font-family="Times,serif" font-size="14.00" fill="#000000">AMP&#45;lyase (fumarate&#45;</text>
<text text-anchor="middle" x="276.8882" y="-8.2" font-family="Times,serif" font-size="14.00" fill="#000000">forming) activity</text>
</g>
<!-- GO:0070626&#45;&gt;GO:0016842 -->
<g id="edge6" class="edge">
<title>GO:0070626&#45;&gt;GO:0016842</title>
<path fill="none" stroke="#000000" d="M230.2231,-109.0227C221.9733,-118.6793 213.6899,-128.3752 206.3688,-136.9449"/>
<polygon fill="#000000" stroke="#000000" points="203.5113,-134.9013 199.6768,-144.7779 208.8335,-139.4482 203.5113,-134.9013"/>
</g>
</g>
</svg>
