<?xml version="1.0" encoding="UTF-8" standalone="no"?>
<!DOCTYPE svg PUBLIC "-//W3C//DTD SVG 1.1//EN"
 "http://www.w3.org/Graphics/SVG/1.1/DTD/svg11.dtd">
<!-- Generated by graphviz version 2.40.1 (20161225.0304)
 -->
<!-- Title: G Pages: 1 -->
<svg width="434pt" height="410pt"
 viewBox="0.00 0.00 433.71 410.40" xmlns="http://www.w3.org/2000/svg" xmlns:xlink="http://www.w3.org/1999/xlink">
<g id="graph0" class="graph" transform="scale(1 1) rotate(0) translate(4 406.4)">
<title>G</title>
<polygon fill="#ffffff" stroke="transparent" points="-4,4 -4,-406.4 429.7101,-406.4 429.7101,4 -4,4"/>
<!-- GO:0016021 -->
<g id="node1" class="node">
<title>GO:0016021</title>
<polygon fill="#ffffff" stroke="#000000" points="141.0097,-153.0014 1.7435,-153.0014 1.7435,-94.1986 141.0097,-94.1986 141.0097,-153.0014"/>
<text text-anchor="middle" x="71.3766" y="-136.2" font-family="Times,serif" font-size="14.00" fill="#000000">GO:0016021</text>
<text text-anchor="middle" x="71.3766" y="-119.4" font-family="Times,serif" font-size="14.00" fill="#000000">integral component of</text>
<text text-anchor="middle" x="71.3766" y="-102.6" font-family="Times,serif" font-size="14.00" fill="#000000">membrane</text>
</g>
<!-- GO:0031224 -->
<g id="node2" class="node">
<title>GO:0031224</title>
<polygon fill="#ffffff" stroke="#000000" points="142.63,-247.4014 .1232,-247.4014 .1232,-188.5986 142.63,-188.5986 142.63,-247.4014"/>
<text text-anchor="middle" x="71.3766" y="-230.6" font-family="Times,serif" font-size="14.00" fill="#000000">GO:0031224</text>
<text text-anchor="middle" x="71.3766" y="-213.8" font-family="Times,serif" font-size="14.00" fill="#000000">intrinsic component of</text>
<text text-anchor="middle" x="71.3766" y="-197" font-family="Times,serif" font-size="14.00" fill="#000000">membrane</text>
</g>
<!-- GO:0016021&#45;&gt;GO:0031224 -->
<g id="edge1" class="edge">
<title>GO:0016021&#45;&gt;GO:0031224</title>
<path fill="none" stroke="#000000" d="M71.3766,-152.9513C71.3766,-161.0318 71.3766,-169.9308 71.3766,-178.4838"/>
<polygon fill="#000000" stroke="#000000" points="67.8767,-178.6668 71.3766,-188.6669 74.8767,-178.6669 67.8767,-178.6668"/>
</g>
<!-- GO:0044425 -->
<g id="node3" class="node">
<title>GO:0044425</title>
<polygon fill="#ffffff" stroke="#000000" points="129.7286,-324.6019 29.0246,-324.6019 29.0246,-283.3981 129.7286,-283.3981 129.7286,-324.6019"/>
<text text-anchor="middle" x="79.3766" y="-308.2" font-family="Times,serif" font-size="14.00" fill="#000000">GO:0044425</text>
<text text-anchor="middle" x="79.3766" y="-291.4" font-family="Times,serif" font-size="14.00" fill="#000000">membrane part</text>
</g>
<!-- GO:0031224&#45;&gt;GO:0044425 -->
<g id="edge2" class="edge">
<title>GO:0031224&#45;&gt;GO:0044425</title>
<path fill="none" stroke="#000000" d="M74.1297,-247.5963C74.8988,-255.8638 75.7362,-264.8657 76.5116,-273.2008"/>
<polygon fill="#000000" stroke="#000000" points="73.0394,-273.6638 77.4507,-283.2966 80.0093,-273.0153 73.0394,-273.6638"/>
</g>
<!-- GO:0005575 -->
<g id="node4" class="node">
<title>GO:0005575</title>
<polygon fill="#ffffff" stroke="#000000" points="268.0633,-402.2019 140.6899,-402.2019 140.6899,-360.9981 268.0633,-360.9981 268.0633,-402.2019"/>
<text text-anchor="middle" x="204.3766" y="-385.8" font-family="Times,serif" font-size="14.00" fill="#000000">GO:0005575</text>
<text text-anchor="middle" x="204.3766" y="-369" font-family="Times,serif" font-size="14.00" fill="#000000">cellular_component</text>
</g>
<!-- GO:0044425&#45;&gt;GO:0005575 -->
<g id="edge3" class="edge">
<title>GO:0044425&#45;&gt;GO:0005575</title>
<path fill="none" stroke="#000000" d="M112.8743,-324.7954C128.0067,-334.1896 146.0537,-345.3931 162.1053,-355.358"/>
<polygon fill="#000000" stroke="#000000" points="160.4444,-358.4465 170.7864,-360.7472 164.1365,-352.4993 160.4444,-358.4465"/>
</g>
<!-- GO:0005829 -->
<g id="node5" class="node">
<title>GO:0005829</title>
<polygon fill="#ffffff" stroke="#000000" points="254.9805,-49.8019 165.7727,-49.8019 165.7727,-8.5981 254.9805,-8.5981 254.9805,-49.8019"/>
<text text-anchor="middle" x="210.3766" y="-33.4" font-family="Times,serif" font-size="14.00" fill="#000000">GO:0005829</text>
<text text-anchor="middle" x="210.3766" y="-16.6" font-family="Times,serif" font-size="14.00" fill="#000000">cytosol</text>
</g>
<!-- GO:0044444 -->
<g id="node6" class="node">
<title>GO:0044444</title>
<polygon fill="#ffffff" stroke="#000000" points="269.7932,-144.2019 160.96,-144.2019 160.96,-102.9981 269.7932,-102.9981 269.7932,-144.2019"/>
<text text-anchor="middle" x="215.3766" y="-127.8" font-family="Times,serif" font-size="14.00" fill="#000000">GO:0044444</text>
<text text-anchor="middle" x="215.3766" y="-111" font-family="Times,serif" font-size="14.00" fill="#000000">cytoplasmic part</text>
</g>
<!-- GO:0005829&#45;&gt;GO:0044444 -->
<g id="edge4" class="edge">
<title>GO:0005829&#45;&gt;GO:0044444</title>
<path fill="none" stroke="#000000" d="M211.4863,-50.1504C212.1465,-62.6165 212.9965,-78.6645 213.7335,-92.5786"/>
<polygon fill="#000000" stroke="#000000" points="210.2459,-92.9073 214.27,-102.7081 217.2361,-92.537 210.2459,-92.9073"/>
</g>
<!-- GO:0044424 -->
<g id="node7" class="node">
<title>GO:0044424</title>
<polygon fill="#ffffff" stroke="#000000" points="269.775,-238.6019 160.9782,-238.6019 160.9782,-197.3981 269.775,-197.3981 269.775,-238.6019"/>
<text text-anchor="middle" x="215.3766" y="-222.2" font-family="Times,serif" font-size="14.00" fill="#000000">GO:0044424</text>
<text text-anchor="middle" x="215.3766" y="-205.4" font-family="Times,serif" font-size="14.00" fill="#000000">intracellular part</text>
</g>
<!-- GO:0044444&#45;&gt;GO:0044424 -->
<g id="edge5" class="edge">
<title>GO:0044444&#45;&gt;GO:0044424</title>
<path fill="none" stroke="#000000" d="M215.3766,-144.5504C215.3766,-157.0165 215.3766,-173.0645 215.3766,-186.9786"/>
<polygon fill="#000000" stroke="#000000" points="211.8767,-187.1081 215.3766,-197.1081 218.8767,-187.1082 211.8767,-187.1081"/>
</g>
<!-- GO:0044464 -->
<g id="node8" class="node">
<title>GO:0044464</title>
<polygon fill="#ffffff" stroke="#000000" points="248.9805,-324.6019 159.7727,-324.6019 159.7727,-283.3981 248.9805,-283.3981 248.9805,-324.6019"/>
<text text-anchor="middle" x="204.3766" y="-308.2" font-family="Times,serif" font-size="14.00" fill="#000000">GO:0044464</text>
<text text-anchor="middle" x="204.3766" y="-291.4" font-family="Times,serif" font-size="14.00" fill="#000000">cell part</text>
</g>
<!-- GO:0044424&#45;&gt;GO:0044464 -->
<g id="edge6" class="edge">
<title>GO:0044424&#45;&gt;GO:0044464</title>
<path fill="none" stroke="#000000" d="M212.7138,-238.8182C211.3897,-249.1705 209.7634,-261.8848 208.2999,-273.3271"/>
<polygon fill="#000000" stroke="#000000" points="204.812,-273.0102 207.0149,-283.3735 211.7554,-273.8984 204.812,-273.0102"/>
</g>
<!-- GO:0044464&#45;&gt;GO:0005575 -->
<g id="edge7" class="edge">
<title>GO:0044464&#45;&gt;GO:0005575</title>
<path fill="none" stroke="#000000" d="M204.3766,-324.7954C204.3766,-332.7109 204.3766,-341.9109 204.3766,-350.5722"/>
<polygon fill="#000000" stroke="#000000" points="200.8767,-350.7472 204.3766,-360.7472 207.8767,-350.7473 200.8767,-350.7472"/>
</g>
<!-- GO:0045239 -->
<g id="node9" class="node">
<title>GO:0045239</title>
<polygon fill="#ffffff" stroke="#000000" points="420.2587,-58.6014 272.4945,-58.6014 272.4945,.2014 420.2587,.2014 420.2587,-58.6014"/>
<text text-anchor="middle" x="346.3766" y="-41.8" font-family="Times,serif" font-size="14.00" fill="#000000">GO:0045239</text>
<text text-anchor="middle" x="346.3766" y="-25" font-family="Times,serif" font-size="14.00" fill="#000000">tricarboxylic acid cycle</text>
<text text-anchor="middle" x="346.3766" y="-8.2" font-family="Times,serif" font-size="14.00" fill="#000000">enzyme complex</text>
</g>
<!-- GO:0045239&#45;&gt;GO:0044444 -->
<g id="edge9" class="edge">
<title>GO:0045239&#45;&gt;GO:0044444</title>
<path fill="none" stroke="#000000" d="M305.6455,-58.5513C288.6323,-70.8112 269.0046,-84.9551 252.4057,-96.9165"/>
<polygon fill="#000000" stroke="#000000" points="250.0983,-94.2651 244.0315,-102.951 254.1907,-99.9442 250.0983,-94.2651"/>
</g>
<!-- GO:0043234 -->
<g id="node10" class="node">
<title>GO:0043234</title>
<polygon fill="#ffffff" stroke="#000000" points="400.244,-144.2019 292.5092,-144.2019 292.5092,-102.9981 400.244,-102.9981 400.244,-144.2019"/>
<text text-anchor="middle" x="346.3766" y="-127.8" font-family="Times,serif" font-size="14.00" fill="#000000">GO:0043234</text>
<text text-anchor="middle" x="346.3766" y="-111" font-family="Times,serif" font-size="14.00" fill="#000000">protein complex</text>
</g>
<!-- GO:0045239&#45;&gt;GO:0043234 -->
<g id="edge8" class="edge">
<title>GO:0045239&#45;&gt;GO:0043234</title>
<path fill="none" stroke="#000000" d="M346.3766,-58.5513C346.3766,-69.4614 346.3766,-81.8637 346.3766,-92.892"/>
<polygon fill="#000000" stroke="#000000" points="342.8767,-92.9509 346.3766,-102.951 349.8767,-92.951 342.8767,-92.9509"/>
</g>
<!-- GO:0032991 -->
<g id="node11" class="node">
<title>GO:0032991</title>
<polygon fill="#ffffff" stroke="#000000" points="425.5439,-324.6019 267.2093,-324.6019 267.2093,-283.3981 425.5439,-283.3981 425.5439,-324.6019"/>
<text text-anchor="middle" x="346.3766" y="-308.2" font-family="Times,serif" font-size="14.00" fill="#000000">GO:0032991</text>
<text text-anchor="middle" x="346.3766" y="-291.4" font-family="Times,serif" font-size="14.00" fill="#000000">macromolecular complex</text>
</g>
<!-- GO:0043234&#45;&gt;GO:0032991 -->
<g id="edge10" class="edge">
<title>GO:0043234&#45;&gt;GO:0032991</title>
<path fill="none" stroke="#000000" d="M346.3766,-144.2942C346.3766,-175.882 346.3766,-236.3259 346.3766,-273.1168"/>
<polygon fill="#000000" stroke="#000000" points="342.8767,-273.27 346.3766,-283.2701 349.8767,-273.2701 342.8767,-273.27"/>
</g>
<!-- GO:0032991&#45;&gt;GO:0005575 -->
<g id="edge11" class="edge">
<title>GO:0032991&#45;&gt;GO:0005575</title>
<path fill="none" stroke="#000000" d="M308.3232,-324.7954C290.8144,-334.3635 269.871,-345.8087 251.3861,-355.9103"/>
<polygon fill="#000000" stroke="#000000" points="249.6318,-352.8804 242.535,-360.7472 252.9886,-359.023 249.6318,-352.8804"/>
</g>
</g>
</svg>
