<?xml version="1.0" encoding="UTF-8" standalone="no"?>
<!DOCTYPE svg PUBLIC "-//W3C//DTD SVG 1.1//EN"
 "http://www.w3.org/Graphics/SVG/1.1/DTD/svg11.dtd">
<!-- Generated by graphviz version 2.40.1 (20161225.0304)
 -->
<!-- Title: G Pages: 1 -->
<svg width="616pt" height="549pt"
 viewBox="0.00 0.00 616.43 548.80" xmlns="http://www.w3.org/2000/svg" xmlns:xlink="http://www.w3.org/1999/xlink">
<g id="graph0" class="graph" transform="scale(1 1) rotate(0) translate(4 544.8)">
<title>G</title>
<polygon fill="#ffffff" stroke="transparent" points="-4,4 -4,-544.8 612.4289,-544.8 612.4289,4 -4,4"/>
<!-- GO:0005794 -->
<g id="node1" class="node">
<title>GO:0005794</title>
<polygon fill="#ffffff" stroke="#000000" points="281.5078,-119.0019 176.453,-119.0019 176.453,-77.7981 281.5078,-77.7981 281.5078,-119.0019"/>
<text text-anchor="middle" x="228.9804" y="-102.6" font-family="Times,serif" font-size="14.00" fill="#000000">GO:0005794</text>
<text text-anchor="middle" x="228.9804" y="-85.8" font-family="Times,serif" font-size="14.00" fill="#000000">Golgi apparatus</text>
</g>
<!-- GO:0044444 -->
<g id="node2" class="node">
<title>GO:0044444</title>
<polygon fill="#ffffff" stroke="#000000" points="412.397,-299.4019 303.5638,-299.4019 303.5638,-258.1981 412.397,-258.1981 412.397,-299.4019"/>
<text text-anchor="middle" x="357.9804" y="-283" font-family="Times,serif" font-size="14.00" fill="#000000">GO:0044444</text>
<text text-anchor="middle" x="357.9804" y="-266.2" font-family="Times,serif" font-size="14.00" fill="#000000">cytoplasmic part</text>
</g>
<!-- GO:0005794&#45;&gt;GO:0044444 -->
<g id="edge1" class="edge">
<title>GO:0005794&#45;&gt;GO:0044444</title>
<path fill="none" stroke="#000000" d="M236.5431,-119.2771C245.8927,-143.4264 263.3769,-183.6929 285.9804,-213.6 296.4216,-227.4149 310.0711,-240.6375 322.6752,-251.5202"/>
<polygon fill="#000000" stroke="#000000" points="320.4448,-254.2177 330.3499,-257.9782 324.9518,-248.8616 320.4448,-254.2177"/>
</g>
<!-- GO:0043231 -->
<g id="node3" class="node">
<title>GO:0043231</title>
<polygon fill="#ffffff" stroke="#000000" points="239.3592,-213.8014 88.6016,-213.8014 88.6016,-154.9986 239.3592,-154.9986 239.3592,-213.8014"/>
<text text-anchor="middle" x="163.9804" y="-197" font-family="Times,serif" font-size="14.00" fill="#000000">GO:0043231</text>
<text text-anchor="middle" x="163.9804" y="-180.2" font-family="Times,serif" font-size="14.00" fill="#000000">intracellular membrane&#45;</text>
<text text-anchor="middle" x="163.9804" y="-163.4" font-family="Times,serif" font-size="14.00" fill="#000000">bounded organelle</text>
</g>
<!-- GO:0005794&#45;&gt;GO:0043231 -->
<g id="edge2" class="edge">
<title>GO:0005794&#45;&gt;GO:0043231</title>
<path fill="none" stroke="#000000" d="M213.2457,-119.2182C206.9688,-127.523 199.543,-137.348 192.3863,-146.8168"/>
<polygon fill="#000000" stroke="#000000" points="189.4395,-144.9111 186.202,-154.9991 195.0239,-149.1318 189.4395,-144.9111"/>
</g>
<!-- GO:0044424 -->
<g id="node4" class="node">
<title>GO:0044424</title>
<polygon fill="#ffffff" stroke="#000000" points="392.3788,-385.4019 283.582,-385.4019 283.582,-344.1981 392.3788,-344.1981 392.3788,-385.4019"/>
<text text-anchor="middle" x="337.9804" y="-369" font-family="Times,serif" font-size="14.00" fill="#000000">GO:0044424</text>
<text text-anchor="middle" x="337.9804" y="-352.2" font-family="Times,serif" font-size="14.00" fill="#000000">intracellular part</text>
</g>
<!-- GO:0044444&#45;&gt;GO:0044424 -->
<g id="edge3" class="edge">
<title>GO:0044444&#45;&gt;GO:0044424</title>
<path fill="none" stroke="#000000" d="M353.139,-299.6182C350.7315,-309.9705 347.7746,-322.6848 345.1136,-334.1271"/>
<polygon fill="#000000" stroke="#000000" points="341.6334,-333.6406 342.7773,-344.1735 348.4515,-335.2263 341.6334,-333.6406"/>
</g>
<!-- GO:0043229 -->
<g id="node5" class="node">
<title>GO:0043229</title>
<polygon fill="#ffffff" stroke="#000000" points="285.6988,-299.4019 146.262,-299.4019 146.262,-258.1981 285.6988,-258.1981 285.6988,-299.4019"/>
<text text-anchor="middle" x="215.9804" y="-283" font-family="Times,serif" font-size="14.00" fill="#000000">GO:0043229</text>
<text text-anchor="middle" x="215.9804" y="-266.2" font-family="Times,serif" font-size="14.00" fill="#000000">intracellular organelle</text>
</g>
<!-- GO:0043231&#45;&gt;GO:0043229 -->
<g id="edge4" class="edge">
<title>GO:0043231&#45;&gt;GO:0043229</title>
<path fill="none" stroke="#000000" d="M180.1485,-213.7513C186.3442,-224.9989 193.4134,-237.8323 199.6264,-249.1112"/>
<polygon fill="#000000" stroke="#000000" points="196.7153,-251.0807 204.6059,-258.151 202.8467,-247.7032 196.7153,-251.0807"/>
</g>
<!-- GO:0043227 -->
<g id="node6" class="node">
<title>GO:0043227</title>
<polygon fill="#ffffff" stroke="#000000" points="127.9412,-308.2014 .0196,-308.2014 .0196,-249.3986 127.9412,-249.3986 127.9412,-308.2014"/>
<text text-anchor="middle" x="63.9804" y="-291.4" font-family="Times,serif" font-size="14.00" fill="#000000">GO:0043227</text>
<text text-anchor="middle" x="63.9804" y="-274.6" font-family="Times,serif" font-size="14.00" fill="#000000">membrane&#45;bounded</text>
<text text-anchor="middle" x="63.9804" y="-257.8" font-family="Times,serif" font-size="14.00" fill="#000000">organelle</text>
</g>
<!-- GO:0043231&#45;&gt;GO:0043227 -->
<g id="edge5" class="edge">
<title>GO:0043231&#45;&gt;GO:0043227</title>
<path fill="none" stroke="#000000" d="M132.8879,-213.7513C123.2934,-222.8086 112.6095,-232.8941 102.5733,-242.3683"/>
<polygon fill="#000000" stroke="#000000" points="99.9228,-240.0572 95.0536,-249.4669 104.728,-245.1474 99.9228,-240.0572"/>
</g>
<!-- GO:0044464 -->
<g id="node7" class="node">
<title>GO:0044464</title>
<polygon fill="#ffffff" stroke="#000000" points="317.5843,-463.0019 228.3765,-463.0019 228.3765,-421.7981 317.5843,-421.7981 317.5843,-463.0019"/>
<text text-anchor="middle" x="272.9804" y="-446.6" font-family="Times,serif" font-size="14.00" fill="#000000">GO:0044464</text>
<text text-anchor="middle" x="272.9804" y="-429.8" font-family="Times,serif" font-size="14.00" fill="#000000">cell part</text>
</g>
<!-- GO:0044424&#45;&gt;GO:0044464 -->
<g id="edge6" class="edge">
<title>GO:0044424&#45;&gt;GO:0044464</title>
<path fill="none" stroke="#000000" d="M320.5616,-385.5954C313.3485,-394.2067 304.8619,-404.3384 297.0683,-413.6427"/>
<polygon fill="#000000" stroke="#000000" points="294.1855,-411.6338 290.4473,-421.5472 299.5517,-416.1287 294.1855,-411.6338"/>
</g>
<!-- GO:0043229&#45;&gt;GO:0044424 -->
<g id="edge7" class="edge">
<title>GO:0043229&#45;&gt;GO:0044424</title>
<path fill="none" stroke="#000000" d="M245.5132,-299.6182C261.9972,-311.2381 282.703,-325.834 300.3399,-338.2665"/>
<polygon fill="#000000" stroke="#000000" points="298.5296,-341.2726 308.7196,-344.1735 302.5627,-335.5512 298.5296,-341.2726"/>
</g>
<!-- GO:0043226 -->
<g id="node8" class="node">
<title>GO:0043226</title>
<polygon fill="#ffffff" stroke="#000000" points="244.5843,-385.4019 155.3765,-385.4019 155.3765,-344.1981 244.5843,-344.1981 244.5843,-385.4019"/>
<text text-anchor="middle" x="199.9804" y="-369" font-family="Times,serif" font-size="14.00" fill="#000000">GO:0043226</text>
<text text-anchor="middle" x="199.9804" y="-352.2" font-family="Times,serif" font-size="14.00" fill="#000000">organelle</text>
</g>
<!-- GO:0043229&#45;&gt;GO:0043226 -->
<g id="edge8" class="edge">
<title>GO:0043229&#45;&gt;GO:0043226</title>
<path fill="none" stroke="#000000" d="M212.1072,-299.6182C210.1812,-309.9705 207.8158,-322.6848 205.687,-334.1271"/>
<polygon fill="#000000" stroke="#000000" points="202.2061,-333.702 203.8179,-344.1735 209.088,-334.9824 202.2061,-333.702"/>
</g>
<!-- GO:0043227&#45;&gt;GO:0043226 -->
<g id="edge9" class="edge">
<title>GO:0043227&#45;&gt;GO:0043226</title>
<path fill="none" stroke="#000000" d="M110.4035,-308.1558C125.9702,-317.9994 143.2198,-328.9073 158.3923,-338.5017"/>
<polygon fill="#000000" stroke="#000000" points="156.7347,-341.5945 167.0572,-343.9809 160.4759,-335.6781 156.7347,-341.5945"/>
</g>
<!-- GO:0005575 -->
<g id="node9" class="node">
<title>GO:0005575</title>
<polygon fill="#ffffff" stroke="#000000" points="398.6671,-540.6019 271.2937,-540.6019 271.2937,-499.3981 398.6671,-499.3981 398.6671,-540.6019"/>
<text text-anchor="middle" x="334.9804" y="-524.2" font-family="Times,serif" font-size="14.00" fill="#000000">GO:0005575</text>
<text text-anchor="middle" x="334.9804" y="-507.4" font-family="Times,serif" font-size="14.00" fill="#000000">cellular_component</text>
</g>
<!-- GO:0044464&#45;&gt;GO:0005575 -->
<g id="edge10" class="edge">
<title>GO:0044464&#45;&gt;GO:0005575</title>
<path fill="none" stroke="#000000" d="M289.5953,-463.1954C296.4755,-471.8067 304.5704,-481.9384 312.0042,-491.2427"/>
<polygon fill="#000000" stroke="#000000" points="309.3432,-493.5193 318.3197,-499.1472 314.812,-489.1499 309.3432,-493.5193"/>
</g>
<!-- GO:0043226&#45;&gt;GO:0005575 -->
<g id="edge11" class="edge">
<title>GO:0043226&#45;&gt;GO:0005575</title>
<path fill="none" stroke="#000000" d="M198.8581,-385.4056C198.7567,-406.9427 201.7473,-440.6762 218.9804,-463.2 230.0747,-477.7003 245.8462,-488.7227 262.1974,-497.0126"/>
<polygon fill="#000000" stroke="#000000" points="260.7804,-500.2142 271.3151,-501.3417 263.7828,-493.8908 260.7804,-500.2142"/>
</g>
<!-- GO:0005576 -->
<g id="node10" class="node">
<title>GO:0005576</title>
<polygon fill="#ffffff" stroke="#000000" points="460.703,-463.0019 335.2578,-463.0019 335.2578,-421.7981 460.703,-421.7981 460.703,-463.0019"/>
<text text-anchor="middle" x="397.9804" y="-446.6" font-family="Times,serif" font-size="14.00" fill="#000000">GO:0005576</text>
<text text-anchor="middle" x="397.9804" y="-429.8" font-family="Times,serif" font-size="14.00" fill="#000000">extracellular region</text>
</g>
<!-- GO:0005576&#45;&gt;GO:0005575 -->
<g id="edge12" class="edge">
<title>GO:0005576&#45;&gt;GO:0005575</title>
<path fill="none" stroke="#000000" d="M381.0976,-463.1954C374.1064,-471.8067 365.8809,-481.9384 358.3272,-491.2427"/>
<polygon fill="#000000" stroke="#000000" points="355.4955,-489.1776 351.9098,-499.1472 360.9301,-493.5896 355.4955,-489.1776"/>
</g>
<!-- GO:0005802 -->
<g id="node11" class="node">
<title>GO:0005802</title>
<polygon fill="#ffffff" stroke="#000000" points="462.6117,-41.4019 333.3491,-41.4019 333.3491,-.1981 462.6117,-.1981 462.6117,-41.4019"/>
<text text-anchor="middle" x="397.9804" y="-25" font-family="Times,serif" font-size="14.00" fill="#000000">GO:0005802</text>
<text text-anchor="middle" x="397.9804" y="-8.2" font-family="Times,serif" font-size="14.00" fill="#000000">trans&#45;Golgi network</text>
</g>
<!-- GO:0098791 -->
<g id="node12" class="node">
<title>GO:0098791</title>
<polygon fill="#ffffff" stroke="#000000" points="470.1799,-119.0019 325.7809,-119.0019 325.7809,-77.7981 470.1799,-77.7981 470.1799,-119.0019"/>
<text text-anchor="middle" x="397.9804" y="-102.6" font-family="Times,serif" font-size="14.00" fill="#000000">GO:0098791</text>
<text text-anchor="middle" x="397.9804" y="-85.8" font-family="Times,serif" font-size="14.00" fill="#000000">Golgi subcompartment</text>
</g>
<!-- GO:0005802&#45;&gt;GO:0098791 -->
<g id="edge13" class="edge">
<title>GO:0005802&#45;&gt;GO:0098791</title>
<path fill="none" stroke="#000000" d="M397.9804,-41.5954C397.9804,-49.5109 397.9804,-58.7109 397.9804,-67.3722"/>
<polygon fill="#000000" stroke="#000000" points="394.4805,-67.5472 397.9804,-77.5472 401.4805,-67.5473 394.4805,-67.5472"/>
</g>
<!-- GO:0044431 -->
<g id="node13" class="node">
<title>GO:0044431</title>
<polygon fill="#ffffff" stroke="#000000" points="425.2739,-205.0019 294.6869,-205.0019 294.6869,-163.7981 425.2739,-163.7981 425.2739,-205.0019"/>
<text text-anchor="middle" x="359.9804" y="-188.6" font-family="Times,serif" font-size="14.00" fill="#000000">GO:0044431</text>
<text text-anchor="middle" x="359.9804" y="-171.8" font-family="Times,serif" font-size="14.00" fill="#000000">Golgi apparatus part</text>
</g>
<!-- GO:0098791&#45;&gt;GO:0044431 -->
<g id="edge14" class="edge">
<title>GO:0098791&#45;&gt;GO:0044431</title>
<path fill="none" stroke="#000000" d="M388.7817,-119.2182C384.114,-129.7818 378.3597,-142.8048 373.2247,-154.4261"/>
<polygon fill="#000000" stroke="#000000" points="369.9347,-153.212 369.0944,-163.7735 376.3375,-156.0412 369.9347,-153.212"/>
</g>
<!-- GO:0031984 -->
<g id="node14" class="node">
<title>GO:0031984</title>
<polygon fill="#ffffff" stroke="#000000" points="608.3774,-205.0019 443.5834,-205.0019 443.5834,-163.7981 608.3774,-163.7981 608.3774,-205.0019"/>
<text text-anchor="middle" x="525.9804" y="-188.6" font-family="Times,serif" font-size="14.00" fill="#000000">GO:0031984</text>
<text text-anchor="middle" x="525.9804" y="-171.8" font-family="Times,serif" font-size="14.00" fill="#000000">organelle subcompartment</text>
</g>
<!-- GO:0098791&#45;&gt;GO:0031984 -->
<g id="edge15" class="edge">
<title>GO:0098791&#45;&gt;GO:0031984</title>
<path fill="none" stroke="#000000" d="M428.9656,-119.2182C446.339,-130.8909 468.182,-145.5667 486.7409,-158.0359"/>
<polygon fill="#000000" stroke="#000000" points="485.0281,-161.1018 495.2805,-163.7735 488.9319,-155.2914 485.0281,-161.1018"/>
</g>
<!-- GO:0044431&#45;&gt;GO:0044444 -->
<g id="edge17" class="edge">
<title>GO:0044431&#45;&gt;GO:0044444</title>
<path fill="none" stroke="#000000" d="M359.5365,-205.3504C359.2724,-217.8165 358.9324,-233.8645 358.6376,-247.7786"/>
<polygon fill="#000000" stroke="#000000" points="355.1357,-247.8362 358.423,-257.9081 362.1342,-247.9846 355.1357,-247.8362"/>
</g>
<!-- GO:0044446 -->
<g id="node15" class="node">
<title>GO:0044446</title>
<polygon fill="#ffffff" stroke="#000000" points="582.6988,-308.2014 443.262,-308.2014 443.262,-249.3986 582.6988,-249.3986 582.6988,-308.2014"/>
<text text-anchor="middle" x="512.9804" y="-291.4" font-family="Times,serif" font-size="14.00" fill="#000000">GO:0044446</text>
<text text-anchor="middle" x="512.9804" y="-274.6" font-family="Times,serif" font-size="14.00" fill="#000000">intracellular organelle</text>
<text text-anchor="middle" x="512.9804" y="-257.8" font-family="Times,serif" font-size="14.00" fill="#000000">part</text>
</g>
<!-- GO:0044431&#45;&gt;GO:0044446 -->
<g id="edge16" class="edge">
<title>GO:0044431&#45;&gt;GO:0044446</title>
<path fill="none" stroke="#000000" d="M393.5569,-205.1165C412.112,-216.5649 435.6484,-231.0866 456.9121,-244.2062"/>
<polygon fill="#000000" stroke="#000000" points="455.2044,-247.2651 465.5527,-249.5374 458.8801,-241.3078 455.2044,-247.2651"/>
</g>
<!-- GO:0031984&#45;&gt;GO:0044446 -->
<g id="edge18" class="edge">
<title>GO:0031984&#45;&gt;GO:0044446</title>
<path fill="none" stroke="#000000" d="M523.0953,-205.3504C521.7183,-215.3492 520.024,-227.6525 518.4186,-239.3106"/>
<polygon fill="#000000" stroke="#000000" points="514.9378,-238.9315 517.0408,-249.3155 521.8724,-239.8865 514.9378,-238.9315"/>
</g>
<!-- GO:0044446&#45;&gt;GO:0044424 -->
<g id="edge19" class="edge">
<title>GO:0044446&#45;&gt;GO:0044424</title>
<path fill="none" stroke="#000000" d="M453.2448,-308.1558C432.3795,-318.4096 409.1644,-329.8182 389.0681,-339.694"/>
<polygon fill="#000000" stroke="#000000" points="387.505,-336.5624 380.0738,-344.1141 390.5924,-342.8447 387.505,-336.5624"/>
</g>
<!-- GO:0044422 -->
<g id="node16" class="node">
<title>GO:0044422</title>
<polygon fill="#ffffff" stroke="#000000" points="571.8325,-463.0019 478.1283,-463.0019 478.1283,-421.7981 571.8325,-421.7981 571.8325,-463.0019"/>
<text text-anchor="middle" x="524.9804" y="-446.6" font-family="Times,serif" font-size="14.00" fill="#000000">GO:0044422</text>
<text text-anchor="middle" x="524.9804" y="-429.8" font-family="Times,serif" font-size="14.00" fill="#000000">organelle part</text>
</g>
<!-- GO:0044446&#45;&gt;GO:0044422 -->
<g id="edge20" class="edge">
<title>GO:0044446&#45;&gt;GO:0044422</title>
<path fill="none" stroke="#000000" d="M515.1258,-308.0484C517.2632,-337.1891 520.5325,-381.7603 522.7121,-411.4759"/>
<polygon fill="#000000" stroke="#000000" points="519.2395,-411.9784 523.4617,-421.6955 526.2207,-411.4662 519.2395,-411.9784"/>
</g>
<!-- GO:0044422&#45;&gt;GO:0005575 -->
<g id="edge21" class="edge">
<title>GO:0044422&#45;&gt;GO:0005575</title>
<path fill="none" stroke="#000000" d="M478.0141,-461.582C452.9472,-471.8199 421.8256,-484.5306 395.0196,-495.4787"/>
<polygon fill="#000000" stroke="#000000" points="393.6693,-492.2495 385.735,-499.2707 396.3161,-498.7298 393.6693,-492.2495"/>
</g>
</g>
</svg>
