<?xml version="1.0" encoding="UTF-8" standalone="no"?>
<!DOCTYPE svg PUBLIC "-//W3C//DTD SVG 1.1//EN"
 "http://www.w3.org/Graphics/SVG/1.1/DTD/svg11.dtd">
<!-- Generated by graphviz version 2.40.1 (20161225.0304)
 -->
<!-- Title: G Pages: 1 -->
<svg width="403pt" height="488pt"
 viewBox="0.00 0.00 402.67 488.00" xmlns="http://www.w3.org/2000/svg" xmlns:xlink="http://www.w3.org/1999/xlink">
<g id="graph0" class="graph" transform="scale(1 1) rotate(0) translate(4 484)">
<title>G</title>
<polygon fill="#ffffff" stroke="transparent" points="-4,4 -4,-484 398.6666,-484 398.6666,4 -4,4"/>
<!-- GO:0043169 -->
<g id="node1" class="node">
<title>GO:0043169</title>
<polygon fill="#ffffff" stroke="#000000" points="96.7387,-247.0019 -.2471,-247.0019 -.2471,-205.7981 96.7387,-205.7981 96.7387,-247.0019"/>
<text text-anchor="middle" x="48.2458" y="-230.6" font-family="Times,serif" font-size="14.00" fill="#000000">GO:0043169</text>
<text text-anchor="middle" x="48.2458" y="-213.8" font-family="Times,serif" font-size="14.00" fill="#000000">cation binding</text>
</g>
<!-- GO:0043167 -->
<g id="node2" class="node">
<title>GO:0043167</title>
<polygon fill="#ffffff" stroke="#000000" points="93.8497,-324.6019 4.6419,-324.6019 4.6419,-283.3981 93.8497,-283.3981 93.8497,-324.6019"/>
<text text-anchor="middle" x="49.2458" y="-308.2" font-family="Times,serif" font-size="14.00" fill="#000000">GO:0043167</text>
<text text-anchor="middle" x="49.2458" y="-291.4" font-family="Times,serif" font-size="14.00" fill="#000000">ion binding</text>
</g>
<!-- GO:0043169&#45;&gt;GO:0043167 -->
<g id="edge1" class="edge">
<title>GO:0043169&#45;&gt;GO:0043167</title>
<path fill="none" stroke="#000000" d="M48.5138,-247.1954C48.6158,-255.1109 48.7343,-264.3109 48.846,-272.9722"/>
<polygon fill="#000000" stroke="#000000" points="45.3484,-273.1932 48.9771,-283.1472 52.3478,-273.1029 45.3484,-273.1932"/>
</g>
<!-- GO:0005488 -->
<g id="node3" class="node">
<title>GO:0005488</title>
<polygon fill="#ffffff" stroke="#000000" points="95.8497,-402.2019 6.6419,-402.2019 6.6419,-360.9981 95.8497,-360.9981 95.8497,-402.2019"/>
<text text-anchor="middle" x="51.2458" y="-385.8" font-family="Times,serif" font-size="14.00" fill="#000000">GO:0005488</text>
<text text-anchor="middle" x="51.2458" y="-369" font-family="Times,serif" font-size="14.00" fill="#000000">binding</text>
</g>
<!-- GO:0043167&#45;&gt;GO:0005488 -->
<g id="edge2" class="edge">
<title>GO:0043167&#45;&gt;GO:0005488</title>
<path fill="none" stroke="#000000" d="M49.7818,-324.7954C49.9858,-332.7109 50.2229,-341.9109 50.4461,-350.5722"/>
<polygon fill="#000000" stroke="#000000" points="46.9518,-350.8408 50.7084,-360.7472 53.9495,-350.6603 46.9518,-350.8408"/>
</g>
<!-- GO:0003674 -->
<g id="node4" class="node">
<title>GO:0003674</title>
<polygon fill="#ffffff" stroke="#000000" points="171.8789,-479.8019 46.6127,-479.8019 46.6127,-438.5981 171.8789,-438.5981 171.8789,-479.8019"/>
<text text-anchor="middle" x="109.2458" y="-463.4" font-family="Times,serif" font-size="14.00" fill="#000000">GO:0003674</text>
<text text-anchor="middle" x="109.2458" y="-446.6" font-family="Times,serif" font-size="14.00" fill="#000000">molecular_function</text>
</g>
<!-- GO:0005488&#45;&gt;GO:0003674 -->
<g id="edge3" class="edge">
<title>GO:0005488&#45;&gt;GO:0003674</title>
<path fill="none" stroke="#000000" d="M66.7887,-402.3954C73.16,-410.9197 80.6449,-420.9339 87.541,-430.1605"/>
<polygon fill="#000000" stroke="#000000" points="84.8697,-432.4327 93.66,-438.3472 90.4766,-428.2419 84.8697,-432.4327"/>
</g>
<!-- GO:0004175 -->
<g id="node5" class="node">
<title>GO:0004175</title>
<polygon fill="#ffffff" stroke="#000000" points="220.8222,-49.8019 79.6694,-49.8019 79.6694,-8.5981 220.8222,-8.5981 220.8222,-49.8019"/>
<text text-anchor="middle" x="150.2458" y="-33.4" font-family="Times,serif" font-size="14.00" fill="#000000">GO:0004175</text>
<text text-anchor="middle" x="150.2458" y="-16.6" font-family="Times,serif" font-size="14.00" fill="#000000">endopeptidase activity</text>
</g>
<!-- GO:0070011 -->
<g id="node6" class="node">
<title>GO:0070011</title>
<polygon fill="#ffffff" stroke="#000000" points="223.4852,-169.7003 77.0064,-169.7003 77.0064,-94.2997 223.4852,-94.2997 223.4852,-169.7003"/>
<text text-anchor="middle" x="150.2458" y="-153" font-family="Times,serif" font-size="14.00" fill="#000000">GO:0070011</text>
<text text-anchor="middle" x="150.2458" y="-136.2" font-family="Times,serif" font-size="14.00" fill="#000000">peptidase activity,</text>
<text text-anchor="middle" x="150.2458" y="-119.4" font-family="Times,serif" font-size="14.00" fill="#000000">acting on L&#45;amino acid</text>
<text text-anchor="middle" x="150.2458" y="-102.6" font-family="Times,serif" font-size="14.00" fill="#000000">peptides</text>
</g>
<!-- GO:0004175&#45;&gt;GO:0070011 -->
<g id="edge4" class="edge">
<title>GO:0004175&#45;&gt;GO:0070011</title>
<path fill="none" stroke="#000000" d="M150.2458,-50.0031C150.2458,-59.8045 150.2458,-71.9396 150.2458,-83.842"/>
<polygon fill="#000000" stroke="#000000" points="146.7459,-84.1772 150.2458,-94.1773 153.7459,-84.1773 146.7459,-84.1772"/>
</g>
<!-- GO:0008233 -->
<g id="node7" class="node">
<title>GO:0008233</title>
<polygon fill="#ffffff" stroke="#000000" points="228.6076,-247.0019 113.884,-247.0019 113.884,-205.7981 228.6076,-205.7981 228.6076,-247.0019"/>
<text text-anchor="middle" x="171.2458" y="-230.6" font-family="Times,serif" font-size="14.00" fill="#000000">GO:0008233</text>
<text text-anchor="middle" x="171.2458" y="-213.8" font-family="Times,serif" font-size="14.00" fill="#000000">peptidase activity</text>
</g>
<!-- GO:0070011&#45;&gt;GO:0008233 -->
<g id="edge5" class="edge">
<title>GO:0070011&#45;&gt;GO:0008233</title>
<path fill="none" stroke="#000000" d="M158.6663,-169.8522C160.5758,-178.436 162.581,-187.4495 164.4152,-195.6948"/>
<polygon fill="#000000" stroke="#000000" points="161.0391,-196.6366 166.6271,-205.6379 167.872,-195.1165 161.0391,-196.6366"/>
</g>
<!-- GO:0016787 -->
<g id="node8" class="node">
<title>GO:0016787</title>
<polygon fill="#ffffff" stroke="#000000" points="229.1624,-324.6019 113.3292,-324.6019 113.3292,-283.3981 229.1624,-283.3981 229.1624,-324.6019"/>
<text text-anchor="middle" x="171.2458" y="-308.2" font-family="Times,serif" font-size="14.00" fill="#000000">GO:0016787</text>
<text text-anchor="middle" x="171.2458" y="-291.4" font-family="Times,serif" font-size="14.00" fill="#000000">hydrolase activity</text>
</g>
<!-- GO:0008233&#45;&gt;GO:0016787 -->
<g id="edge6" class="edge">
<title>GO:0008233&#45;&gt;GO:0016787</title>
<path fill="none" stroke="#000000" d="M171.2458,-247.1954C171.2458,-255.1109 171.2458,-264.3109 171.2458,-272.9722"/>
<polygon fill="#000000" stroke="#000000" points="167.7459,-273.1472 171.2458,-283.1472 174.7459,-273.1473 167.7459,-273.1472"/>
</g>
<!-- GO:0003824 -->
<g id="node9" class="node">
<title>GO:0003824</title>
<polygon fill="#ffffff" stroke="#000000" points="223.6582,-402.2019 114.8334,-402.2019 114.8334,-360.9981 223.6582,-360.9981 223.6582,-402.2019"/>
<text text-anchor="middle" x="169.2458" y="-385.8" font-family="Times,serif" font-size="14.00" fill="#000000">GO:0003824</text>
<text text-anchor="middle" x="169.2458" y="-369" font-family="Times,serif" font-size="14.00" fill="#000000">catalytic activity</text>
</g>
<!-- GO:0016787&#45;&gt;GO:0003824 -->
<g id="edge7" class="edge">
<title>GO:0016787&#45;&gt;GO:0003824</title>
<path fill="none" stroke="#000000" d="M170.7098,-324.7954C170.5058,-332.7109 170.2687,-341.9109 170.0455,-350.5722"/>
<polygon fill="#000000" stroke="#000000" points="166.5421,-350.6603 169.7832,-360.7472 173.5398,-350.8408 166.5421,-350.6603"/>
</g>
<!-- GO:0003824&#45;&gt;GO:0003674 -->
<g id="edge8" class="edge">
<title>GO:0003824&#45;&gt;GO:0003674</title>
<path fill="none" stroke="#000000" d="M153.1669,-402.3954C146.5759,-410.9197 138.833,-420.9339 131.699,-430.1605"/>
<polygon fill="#000000" stroke="#000000" points="128.717,-428.2953 125.3691,-438.3472 134.2548,-432.577 128.717,-428.2953"/>
</g>
<!-- GO:0008236 -->
<g id="node10" class="node">
<title>GO:0008236</title>
<polygon fill="#ffffff" stroke="#000000" points="379.3069,-58.6014 245.1847,-58.6014 245.1847,.2014 379.3069,.2014 379.3069,-58.6014"/>
<text text-anchor="middle" x="312.2458" y="-41.8" font-family="Times,serif" font-size="14.00" fill="#000000">GO:0008236</text>
<text text-anchor="middle" x="312.2458" y="-25" font-family="Times,serif" font-size="14.00" fill="#000000">serine&#45;type peptidase</text>
<text text-anchor="middle" x="312.2458" y="-8.2" font-family="Times,serif" font-size="14.00" fill="#000000">activity</text>
</g>
<!-- GO:0008236&#45;&gt;GO:0070011 -->
<g id="edge9" class="edge">
<title>GO:0008236&#45;&gt;GO:0070011</title>
<path fill="none" stroke="#000000" d="M265.8231,-58.6584C251.071,-68.0196 234.4351,-78.5762 218.4774,-88.7024"/>
<polygon fill="#000000" stroke="#000000" points="216.2663,-85.9603 209.6981,-94.2735 220.0169,-91.8707 216.2663,-85.9603"/>
</g>
<!-- GO:0017171 -->
<g id="node11" class="node">
<title>GO:0017171</title>
<polygon fill="#ffffff" stroke="#000000" points="394.5875,-152.6019 241.9041,-152.6019 241.9041,-111.3981 394.5875,-111.3981 394.5875,-152.6019"/>
<text text-anchor="middle" x="318.2458" y="-136.2" font-family="Times,serif" font-size="14.00" fill="#000000">GO:0017171</text>
<text text-anchor="middle" x="318.2458" y="-119.4" font-family="Times,serif" font-size="14.00" fill="#000000">serine hydrolase activity</text>
</g>
<!-- GO:0008236&#45;&gt;GO:0017171 -->
<g id="edge10" class="edge">
<title>GO:0008236&#45;&gt;GO:0017171</title>
<path fill="none" stroke="#000000" d="M313.9652,-58.6584C314.7412,-71.9539 315.6579,-87.6608 316.4435,-101.1212"/>
<polygon fill="#000000" stroke="#000000" points="312.9635,-101.5666 317.0403,-111.3456 319.9516,-101.1587 312.9635,-101.5666"/>
</g>
<!-- GO:0017171&#45;&gt;GO:0016787 -->
<g id="edge11" class="edge">
<title>GO:0017171&#45;&gt;GO:0016787</title>
<path fill="none" stroke="#000000" d="M305.8925,-152.6921C291.0974,-176.6676 264.8354,-216.7711 237.2458,-247.2 227.8594,-257.5524 216.6464,-267.8343 206.1497,-276.7468"/>
<polygon fill="#000000" stroke="#000000" points="203.7533,-274.1876 198.3045,-283.2739 208.2304,-279.5687 203.7533,-274.1876"/>
</g>
</g>
</svg>
