<?xml version="1.0" encoding="UTF-8" standalone="no"?>
<!DOCTYPE svg PUBLIC "-//W3C//DTD SVG 1.1//EN"
 "http://www.w3.org/Graphics/SVG/1.1/DTD/svg11.dtd">
<!-- Generated by graphviz version 2.40.1 (20161225.0304)
 -->
<!-- Title: G Pages: 1 -->
<svg width="1118pt" height="966pt"
 viewBox="0.00 0.00 1118.18 966.40" xmlns="http://www.w3.org/2000/svg" xmlns:xlink="http://www.w3.org/1999/xlink">
<g id="graph0" class="graph" transform="scale(1 1) rotate(0) translate(4 962.4)">
<title>G</title>
<polygon fill="#ffffff" stroke="transparent" points="-4,4 -4,-962.4 1114.1757,-962.4 1114.1757,4 -4,4"/>
<!-- GO:0005506 -->
<g id="node1" class="node">
<title>GO:0005506</title>
<polygon fill="#ffffff" stroke="#000000" points="106.3347,-41.4019 -.1117,-41.4019 -.1117,-.1981 106.3347,-.1981 106.3347,-41.4019"/>
<text text-anchor="middle" x="53.1115" y="-25" font-family="Times,serif" font-size="14.00" fill="#000000">GO:0005506</text>
<text text-anchor="middle" x="53.1115" y="-8.2" font-family="Times,serif" font-size="14.00" fill="#000000">iron ion binding</text>
</g>
<!-- GO:0046914 -->
<g id="node2" class="node">
<title>GO:0046914</title>
<polygon fill="#ffffff" stroke="#000000" points="181.4854,-136.2014 56.7376,-136.2014 56.7376,-77.3986 181.4854,-77.3986 181.4854,-136.2014"/>
<text text-anchor="middle" x="119.1115" y="-119.4" font-family="Times,serif" font-size="14.00" fill="#000000">GO:0046914</text>
<text text-anchor="middle" x="119.1115" y="-102.6" font-family="Times,serif" font-size="14.00" fill="#000000">transition metal ion</text>
<text text-anchor="middle" x="119.1115" y="-85.8" font-family="Times,serif" font-size="14.00" fill="#000000">binding</text>
</g>
<!-- GO:0005506&#45;&gt;GO:0046914 -->
<g id="edge1" class="edge">
<title>GO:0005506&#45;&gt;GO:0046914</title>
<path fill="none" stroke="#000000" d="M69.0883,-41.6182C75.4617,-49.923 83.0018,-59.748 90.2686,-69.2168"/>
<polygon fill="#000000" stroke="#000000" points="87.6832,-71.5969 96.5481,-77.3991 93.2364,-67.3352 87.6832,-71.5969"/>
</g>
<!-- GO:0046872 -->
<g id="node3" class="node">
<title>GO:0046872</title>
<polygon fill="#ffffff" stroke="#000000" points="176.3845,-238.6019 61.8385,-238.6019 61.8385,-197.3981 176.3845,-197.3981 176.3845,-238.6019"/>
<text text-anchor="middle" x="119.1115" y="-222.2" font-family="Times,serif" font-size="14.00" fill="#000000">GO:0046872</text>
<text text-anchor="middle" x="119.1115" y="-205.4" font-family="Times,serif" font-size="14.00" fill="#000000">metal ion binding</text>
</g>
<!-- GO:0046914&#45;&gt;GO:0046872 -->
<g id="edge2" class="edge">
<title>GO:0046914&#45;&gt;GO:0046872</title>
<path fill="none" stroke="#000000" d="M119.1115,-136.0165C119.1115,-151.597 119.1115,-170.7758 119.1115,-186.6653"/>
<polygon fill="#000000" stroke="#000000" points="115.6116,-187.0555 119.1115,-197.0556 122.6116,-187.0556 115.6116,-187.0555"/>
</g>
<!-- GO:0043169 -->
<g id="node4" class="node">
<title>GO:0043169</title>
<polygon fill="#ffffff" stroke="#000000" points="167.6044,-358.2019 70.6186,-358.2019 70.6186,-316.9981 167.6044,-316.9981 167.6044,-358.2019"/>
<text text-anchor="middle" x="119.1115" y="-341.8" font-family="Times,serif" font-size="14.00" fill="#000000">GO:0043169</text>
<text text-anchor="middle" x="119.1115" y="-325" font-family="Times,serif" font-size="14.00" fill="#000000">cation binding</text>
</g>
<!-- GO:0046872&#45;&gt;GO:0043169 -->
<g id="edge3" class="edge">
<title>GO:0046872&#45;&gt;GO:0043169</title>
<path fill="none" stroke="#000000" d="M119.1115,-238.8327C119.1115,-257.4973 119.1115,-285.1322 119.1115,-306.4278"/>
<polygon fill="#000000" stroke="#000000" points="115.6116,-306.6047 119.1115,-316.6047 122.6116,-306.6047 115.6116,-306.6047"/>
</g>
<!-- GO:0043167 -->
<g id="node5" class="node">
<title>GO:0043167</title>
<polygon fill="#ffffff" stroke="#000000" points="163.7154,-469.4019 74.5076,-469.4019 74.5076,-428.1981 163.7154,-428.1981 163.7154,-469.4019"/>
<text text-anchor="middle" x="119.1115" y="-453" font-family="Times,serif" font-size="14.00" fill="#000000">GO:0043167</text>
<text text-anchor="middle" x="119.1115" y="-436.2" font-family="Times,serif" font-size="14.00" fill="#000000">ion binding</text>
</g>
<!-- GO:0043169&#45;&gt;GO:0043167 -->
<g id="edge4" class="edge">
<title>GO:0043169&#45;&gt;GO:0043167</title>
<path fill="none" stroke="#000000" d="M119.1115,-358.2553C119.1115,-374.9242 119.1115,-398.6401 119.1115,-417.6189"/>
<polygon fill="#000000" stroke="#000000" points="115.6116,-417.878 119.1115,-427.878 122.6116,-417.878 115.6116,-417.878"/>
</g>
<!-- GO:0005488 -->
<g id="node6" class="node">
<title>GO:0005488</title>
<polygon fill="#ffffff" stroke="#000000" points="350.7154,-572.2019 261.5076,-572.2019 261.5076,-530.9981 350.7154,-530.9981 350.7154,-572.2019"/>
<text text-anchor="middle" x="306.1115" y="-555.8" font-family="Times,serif" font-size="14.00" fill="#000000">GO:0005488</text>
<text text-anchor="middle" x="306.1115" y="-539" font-family="Times,serif" font-size="14.00" fill="#000000">binding</text>
</g>
<!-- GO:0043167&#45;&gt;GO:0005488 -->
<g id="edge5" class="edge">
<title>GO:0043167&#45;&gt;GO:0005488</title>
<path fill="none" stroke="#000000" d="M146.5941,-469.5867C154.6387,-475.3143 163.5705,-481.3389 172.1115,-486.4 197.6696,-501.5449 227.2603,-516.2215 252.1236,-527.8028"/>
<polygon fill="#000000" stroke="#000000" points="250.8565,-531.0727 261.4029,-532.0843 253.7893,-524.7167 250.8565,-531.0727"/>
</g>
<!-- GO:0003674 -->
<g id="node7" class="node">
<title>GO:0003674</title>
<polygon fill="#ffffff" stroke="#000000" points="572.7446,-666.6019 447.4784,-666.6019 447.4784,-625.3981 572.7446,-625.3981 572.7446,-666.6019"/>
<text text-anchor="middle" x="510.1115" y="-650.2" font-family="Times,serif" font-size="14.00" fill="#000000">GO:0003674</text>
<text text-anchor="middle" x="510.1115" y="-633.4" font-family="Times,serif" font-size="14.00" fill="#000000">molecular_function</text>
</g>
<!-- GO:0005488&#45;&gt;GO:0003674 -->
<g id="edge6" class="edge">
<title>GO:0005488&#45;&gt;GO:0003674</title>
<path fill="none" stroke="#000000" d="M350.8802,-572.3165C381.8374,-586.6418 423.1938,-605.7792 456.0002,-620.9603"/>
<polygon fill="#000000" stroke="#000000" points="454.902,-624.3086 465.4473,-625.3318 457.8417,-617.9558 454.902,-624.3086"/>
</g>
<!-- GO:0005507 -->
<g id="node8" class="node">
<title>GO:0005507</title>
<polygon fill="#ffffff" stroke="#000000" points="245.8733,-41.4019 124.3497,-41.4019 124.3497,-.1981 245.8733,-.1981 245.8733,-41.4019"/>
<text text-anchor="middle" x="185.1115" y="-25" font-family="Times,serif" font-size="14.00" fill="#000000">GO:0005507</text>
<text text-anchor="middle" x="185.1115" y="-8.2" font-family="Times,serif" font-size="14.00" fill="#000000">copper ion binding</text>
</g>
<!-- GO:0005507&#45;&gt;GO:0046914 -->
<g id="edge7" class="edge">
<title>GO:0005507&#45;&gt;GO:0046914</title>
<path fill="none" stroke="#000000" d="M169.1347,-41.6182C162.7613,-49.923 155.2212,-59.748 147.9544,-69.2168"/>
<polygon fill="#000000" stroke="#000000" points="144.9866,-67.3352 141.6749,-77.3991 150.5398,-71.5969 144.9866,-67.3352"/>
</g>
<!-- GO:0004129 -->
<g id="node9" class="node">
<title>GO:0004129</title>
<polygon fill="#ffffff" stroke="#000000" points="771.8369,-136.2014 632.3861,-136.2014 632.3861,-77.3986 771.8369,-77.3986 771.8369,-136.2014"/>
<text text-anchor="middle" x="702.1115" y="-119.4" font-family="Times,serif" font-size="14.00" fill="#000000">GO:0004129</text>
<text text-anchor="middle" x="702.1115" y="-102.6" font-family="Times,serif" font-size="14.00" fill="#000000">cytochrome&#45;c oxidase</text>
<text text-anchor="middle" x="702.1115" y="-85.8" font-family="Times,serif" font-size="14.00" fill="#000000">activity</text>
</g>
<!-- GO:0016676 -->
<g id="node10" class="node">
<title>GO:0016676</title>
<polygon fill="#ffffff" stroke="#000000" points="849.1781,-264 687.0449,-264 687.0449,-172 849.1781,-172 849.1781,-264"/>
<text text-anchor="middle" x="768.1115" y="-247.4" font-family="Times,serif" font-size="14.00" fill="#000000">GO:0016676</text>
<text text-anchor="middle" x="768.1115" y="-230.6" font-family="Times,serif" font-size="14.00" fill="#000000">oxidoreductase activity,</text>
<text text-anchor="middle" x="768.1115" y="-213.8" font-family="Times,serif" font-size="14.00" fill="#000000">acting on a heme group of</text>
<text text-anchor="middle" x="768.1115" y="-197" font-family="Times,serif" font-size="14.00" fill="#000000">donors, oxygen as</text>
<text text-anchor="middle" x="768.1115" y="-180.2" font-family="Times,serif" font-size="14.00" fill="#000000">acceptor</text>
</g>
<!-- GO:0004129&#45;&gt;GO:0016676 -->
<g id="edge8" class="edge">
<title>GO:0004129&#45;&gt;GO:0016676</title>
<path fill="none" stroke="#000000" d="M719.4522,-136.0165C724.3725,-144.3064 729.8974,-153.6151 735.4112,-162.9049"/>
<polygon fill="#000000" stroke="#000000" points="732.5603,-164.9591 740.6741,-171.7721 738.5798,-161.3863 732.5603,-164.9591"/>
</g>
<!-- GO:0015078 -->
<g id="node11" class="node">
<title>GO:0015078</title>
<polygon fill="#ffffff" stroke="#000000" points="1045.5449,-255.7003 878.6781,-255.7003 878.6781,-180.2997 1045.5449,-180.2997 1045.5449,-255.7003"/>
<text text-anchor="middle" x="962.1115" y="-239" font-family="Times,serif" font-size="14.00" fill="#000000">GO:0015078</text>
<text text-anchor="middle" x="962.1115" y="-222.2" font-family="Times,serif" font-size="14.00" fill="#000000">hydrogen ion</text>
<text text-anchor="middle" x="962.1115" y="-205.4" font-family="Times,serif" font-size="14.00" fill="#000000">transmembrane transporter</text>
<text text-anchor="middle" x="962.1115" y="-188.6" font-family="Times,serif" font-size="14.00" fill="#000000">activity</text>
</g>
<!-- GO:0004129&#45;&gt;GO:0015078 -->
<g id="edge9" class="edge">
<title>GO:0004129&#45;&gt;GO:0015078</title>
<path fill="none" stroke="#000000" d="M771.7438,-135.5437C798.7647,-146.7917 829.9325,-159.8809 858.1115,-172 861.7813,-173.5783 865.5208,-175.1945 869.2959,-176.8327"/>
<polygon fill="#000000" stroke="#000000" points="868.168,-180.1589 878.7339,-180.9412 870.962,-173.7407 868.168,-180.1589"/>
</g>
<!-- GO:0015002 -->
<g id="node12" class="node">
<title>GO:0015002</title>
<polygon fill="#ffffff" stroke="#000000" points="699.8341,-367.0014 560.3889,-367.0014 560.3889,-308.1986 699.8341,-308.1986 699.8341,-367.0014"/>
<text text-anchor="middle" x="630.1115" y="-350.2" font-family="Times,serif" font-size="14.00" fill="#000000">GO:0015002</text>
<text text-anchor="middle" x="630.1115" y="-333.4" font-family="Times,serif" font-size="14.00" fill="#000000">heme&#45;copper terminal</text>
<text text-anchor="middle" x="630.1115" y="-316.6" font-family="Times,serif" font-size="14.00" fill="#000000">oxidase activity</text>
</g>
<!-- GO:0004129&#45;&gt;GO:0015002 -->
<g id="edge10" class="edge">
<title>GO:0004129&#45;&gt;GO:0015002</title>
<path fill="none" stroke="#000000" d="M690.7958,-136.1813C686.6316,-147.3369 681.9891,-160.1968 678.1115,-172 664.0145,-214.9104 649.8597,-264.768 640.6128,-298.4756"/>
<polygon fill="#000000" stroke="#000000" points="637.1627,-297.8238 637.9061,-308.3926 643.9157,-299.667 637.1627,-297.8238"/>
</g>
<!-- GO:0009055 -->
<g id="node13" class="node">
<title>GO:0009055</title>
<polygon fill="#ffffff" stroke="#000000" points="583.2055,-572.2019 437.0175,-572.2019 437.0175,-530.9981 583.2055,-530.9981 583.2055,-572.2019"/>
<text text-anchor="middle" x="510.1115" y="-555.8" font-family="Times,serif" font-size="14.00" fill="#000000">GO:0009055</text>
<text text-anchor="middle" x="510.1115" y="-539" font-family="Times,serif" font-size="14.00" fill="#000000">electron carrier activity</text>
</g>
<!-- GO:0004129&#45;&gt;GO:0009055 -->
<g id="edge11" class="edge">
<title>GO:0004129&#45;&gt;GO:0009055</title>
<path fill="none" stroke="#000000" d="M670.7232,-136.2412C635.2897,-171.5078 578.963,-234.1268 551.1115,-300 534.4404,-339.4298 519.5516,-462.9495 513.2719,-520.9482"/>
<polygon fill="#000000" stroke="#000000" points="509.7824,-520.6652 512.2011,-530.9802 516.7428,-521.4082 509.7824,-520.6652"/>
</g>
<!-- GO:0016675 -->
<g id="node14" class="node">
<title>GO:0016675</title>
<polygon fill="#ffffff" stroke="#000000" points="880.1781,-375.3003 718.0449,-375.3003 718.0449,-299.8997 880.1781,-299.8997 880.1781,-375.3003"/>
<text text-anchor="middle" x="799.1115" y="-358.6" font-family="Times,serif" font-size="14.00" fill="#000000">GO:0016675</text>
<text text-anchor="middle" x="799.1115" y="-341.8" font-family="Times,serif" font-size="14.00" fill="#000000">oxidoreductase activity,</text>
<text text-anchor="middle" x="799.1115" y="-325" font-family="Times,serif" font-size="14.00" fill="#000000">acting on a heme group of</text>
<text text-anchor="middle" x="799.1115" y="-308.2" font-family="Times,serif" font-size="14.00" fill="#000000">donors</text>
</g>
<!-- GO:0016676&#45;&gt;GO:0016675 -->
<g id="edge12" class="edge">
<title>GO:0016676&#45;&gt;GO:0016675</title>
<path fill="none" stroke="#000000" d="M780.0969,-264.2405C782.3012,-272.7447 784.6056,-281.6352 786.8187,-290.1736"/>
<polygon fill="#000000" stroke="#000000" points="783.4662,-291.1893 789.3634,-299.9912 790.2423,-289.4329 783.4662,-291.1893"/>
</g>
<!-- GO:0015077 -->
<g id="node15" class="node">
<title>GO:0015077</title>
<polygon fill="#ffffff" stroke="#000000" points="1038.1179,-375.3003 898.1051,-375.3003 898.1051,-299.8997 1038.1179,-299.8997 1038.1179,-375.3003"/>
<text text-anchor="middle" x="968.1115" y="-358.6" font-family="Times,serif" font-size="14.00" fill="#000000">GO:0015077</text>
<text text-anchor="middle" x="968.1115" y="-341.8" font-family="Times,serif" font-size="14.00" fill="#000000">monovalent inorganic</text>
<text text-anchor="middle" x="968.1115" y="-325" font-family="Times,serif" font-size="14.00" fill="#000000">cation transmembrane</text>
<text text-anchor="middle" x="968.1115" y="-308.2" font-family="Times,serif" font-size="14.00" fill="#000000">transporter activity</text>
</g>
<!-- GO:0015078&#45;&gt;GO:0015077 -->
<g id="edge13" class="edge">
<title>GO:0015078&#45;&gt;GO:0015077</title>
<path fill="none" stroke="#000000" d="M964.0099,-255.8422C964.5462,-266.531 965.1369,-278.3067 965.699,-289.5114"/>
<polygon fill="#000000" stroke="#000000" points="962.2081,-289.7814 966.2048,-299.5935 969.1993,-289.4306 962.2081,-289.7814"/>
</g>
<!-- GO:0016491 -->
<g id="node16" class="node">
<title>GO:0016491</title>
<polygon fill="#ffffff" stroke="#000000" points="729.3481,-469.4019 582.8749,-469.4019 582.8749,-428.1981 729.3481,-428.1981 729.3481,-469.4019"/>
<text text-anchor="middle" x="656.1115" y="-453" font-family="Times,serif" font-size="14.00" fill="#000000">GO:0016491</text>
<text text-anchor="middle" x="656.1115" y="-436.2" font-family="Times,serif" font-size="14.00" fill="#000000">oxidoreductase activity</text>
</g>
<!-- GO:0015002&#45;&gt;GO:0016491 -->
<g id="edge14" class="edge">
<title>GO:0015002&#45;&gt;GO:0016491</title>
<path fill="none" stroke="#000000" d="M636.9427,-366.8165C640.6206,-382.5468 645.1562,-401.9449 648.892,-417.9227"/>
<polygon fill="#000000" stroke="#000000" points="645.5295,-418.9151 651.2144,-427.8556 652.3457,-417.3213 645.5295,-418.9151"/>
</g>
<!-- GO:0009055&#45;&gt;GO:0003674 -->
<g id="edge15" class="edge">
<title>GO:0009055&#45;&gt;GO:0003674</title>
<path fill="none" stroke="#000000" d="M510.1115,-572.5504C510.1115,-585.0165 510.1115,-601.0645 510.1115,-614.9786"/>
<polygon fill="#000000" stroke="#000000" points="506.6116,-615.1081 510.1115,-625.1081 513.6116,-615.1082 506.6116,-615.1081"/>
</g>
<!-- GO:0016675&#45;&gt;GO:0016491 -->
<g id="edge16" class="edge">
<title>GO:0016675&#45;&gt;GO:0016491</title>
<path fill="none" stroke="#000000" d="M750.6982,-375.2472C731.0241,-390.5463 708.7374,-407.8769 690.741,-421.8713"/>
<polygon fill="#000000" stroke="#000000" points="688.5447,-419.1455 682.7991,-428.0471 692.8418,-424.6714 688.5447,-419.1455"/>
</g>
<!-- GO:0022890 -->
<g id="node17" class="node">
<title>GO:0022890</title>
<polygon fill="#ffffff" stroke="#000000" points="1051.5449,-486.5003 884.6781,-486.5003 884.6781,-411.0997 1051.5449,-411.0997 1051.5449,-486.5003"/>
<text text-anchor="middle" x="968.1115" y="-469.8" font-family="Times,serif" font-size="14.00" fill="#000000">GO:0022890</text>
<text text-anchor="middle" x="968.1115" y="-453" font-family="Times,serif" font-size="14.00" fill="#000000">inorganic cation</text>
<text text-anchor="middle" x="968.1115" y="-436.2" font-family="Times,serif" font-size="14.00" fill="#000000">transmembrane transporter</text>
<text text-anchor="middle" x="968.1115" y="-419.4" font-family="Times,serif" font-size="14.00" fill="#000000">activity</text>
</g>
<!-- GO:0015077&#45;&gt;GO:0022890 -->
<g id="edge17" class="edge">
<title>GO:0015077&#45;&gt;GO:0022890</title>
<path fill="none" stroke="#000000" d="M968.1115,-375.2472C968.1115,-383.58 968.1115,-392.5155 968.1115,-401.1863"/>
<polygon fill="#000000" stroke="#000000" points="964.6116,-401.1915 968.1115,-411.1915 971.6116,-401.1916 964.6116,-401.1915"/>
</g>
<!-- GO:0003824 -->
<g id="node18" class="node">
<title>GO:0003824</title>
<polygon fill="#ffffff" stroke="#000000" points="710.5239,-572.2019 601.6991,-572.2019 601.6991,-530.9981 710.5239,-530.9981 710.5239,-572.2019"/>
<text text-anchor="middle" x="656.1115" y="-555.8" font-family="Times,serif" font-size="14.00" fill="#000000">GO:0003824</text>
<text text-anchor="middle" x="656.1115" y="-539" font-family="Times,serif" font-size="14.00" fill="#000000">catalytic activity</text>
</g>
<!-- GO:0016491&#45;&gt;GO:0003824 -->
<g id="edge18" class="edge">
<title>GO:0016491&#45;&gt;GO:0003824</title>
<path fill="none" stroke="#000000" d="M656.1115,-469.6031C656.1115,-484.2337 656.1115,-504.0642 656.1115,-520.5586"/>
<polygon fill="#000000" stroke="#000000" points="652.6116,-520.8278 656.1115,-530.8278 659.6116,-520.8279 652.6116,-520.8278"/>
</g>
<!-- GO:0008324 -->
<g id="node19" class="node">
<title>GO:0008324</title>
<polygon fill="#ffffff" stroke="#000000" points="1038.1179,-581.0014 898.1051,-581.0014 898.1051,-522.1986 1038.1179,-522.1986 1038.1179,-581.0014"/>
<text text-anchor="middle" x="968.1115" y="-564.2" font-family="Times,serif" font-size="14.00" fill="#000000">GO:0008324</text>
<text text-anchor="middle" x="968.1115" y="-547.4" font-family="Times,serif" font-size="14.00" fill="#000000">cation transmembrane</text>
<text text-anchor="middle" x="968.1115" y="-530.6" font-family="Times,serif" font-size="14.00" fill="#000000">transporter activity</text>
</g>
<!-- GO:0022890&#45;&gt;GO:0008324 -->
<g id="edge19" class="edge">
<title>GO:0022890&#45;&gt;GO:0008324</title>
<path fill="none" stroke="#000000" d="M968.1115,-486.4952C968.1115,-494.8874 968.1115,-503.8054 968.1115,-512.2618"/>
<polygon fill="#000000" stroke="#000000" points="964.6116,-512.2813 968.1115,-522.2814 971.6116,-512.2814 964.6116,-512.2813"/>
</g>
<!-- GO:0003824&#45;&gt;GO:0003674 -->
<g id="edge20" class="edge">
<title>GO:0003824&#45;&gt;GO:0003674</title>
<path fill="none" stroke="#000000" d="M624.0712,-572.3165C602.486,-586.2729 573.8368,-604.7968 550.664,-619.7798"/>
<polygon fill="#000000" stroke="#000000" points="548.5743,-616.963 542.0771,-625.3318 552.375,-622.8413 548.5743,-616.963"/>
</g>
<!-- GO:0015075 -->
<g id="node20" class="node">
<title>GO:0015075</title>
<polygon fill="#ffffff" stroke="#000000" points="1029.7985,-675.4014 906.4245,-675.4014 906.4245,-616.5986 1029.7985,-616.5986 1029.7985,-675.4014"/>
<text text-anchor="middle" x="968.1115" y="-658.6" font-family="Times,serif" font-size="14.00" fill="#000000">GO:0015075</text>
<text text-anchor="middle" x="968.1115" y="-641.8" font-family="Times,serif" font-size="14.00" fill="#000000">ion transmembrane</text>
<text text-anchor="middle" x="968.1115" y="-625" font-family="Times,serif" font-size="14.00" fill="#000000">transporter activity</text>
</g>
<!-- GO:0008324&#45;&gt;GO:0015075 -->
<g id="edge21" class="edge">
<title>GO:0008324&#45;&gt;GO:0015075</title>
<path fill="none" stroke="#000000" d="M968.1115,-580.9513C968.1115,-589.0318 968.1115,-597.9308 968.1115,-606.4838"/>
<polygon fill="#000000" stroke="#000000" points="964.6116,-606.6668 968.1115,-616.6669 971.6116,-606.6669 964.6116,-606.6668"/>
</g>
<!-- GO:0022891 -->
<g id="node21" class="node">
<title>GO:0022891</title>
<polygon fill="#ffffff" stroke="#000000" points="1051.5449,-786.5003 884.6781,-786.5003 884.6781,-711.0997 1051.5449,-711.0997 1051.5449,-786.5003"/>
<text text-anchor="middle" x="968.1115" y="-769.8" font-family="Times,serif" font-size="14.00" fill="#000000">GO:0022891</text>
<text text-anchor="middle" x="968.1115" y="-753" font-family="Times,serif" font-size="14.00" fill="#000000">substrate&#45;specific</text>
<text text-anchor="middle" x="968.1115" y="-736.2" font-family="Times,serif" font-size="14.00" fill="#000000">transmembrane transporter</text>
<text text-anchor="middle" x="968.1115" y="-719.4" font-family="Times,serif" font-size="14.00" fill="#000000">activity</text>
</g>
<!-- GO:0015075&#45;&gt;GO:0022891 -->
<g id="edge22" class="edge">
<title>GO:0015075&#45;&gt;GO:0022891</title>
<path fill="none" stroke="#000000" d="M968.1115,-675.4584C968.1115,-683.3901 968.1115,-692.18 968.1115,-700.8392"/>
<polygon fill="#000000" stroke="#000000" points="964.6116,-700.8849 968.1115,-710.885 971.6116,-700.885 964.6116,-700.8849"/>
</g>
<!-- GO:0022857 -->
<g id="node22" class="node">
<title>GO:0022857</title>
<polygon fill="#ffffff" stroke="#000000" points="970.5449,-881.0014 803.6781,-881.0014 803.6781,-822.1986 970.5449,-822.1986 970.5449,-881.0014"/>
<text text-anchor="middle" x="887.1115" y="-864.2" font-family="Times,serif" font-size="14.00" fill="#000000">GO:0022857</text>
<text text-anchor="middle" x="887.1115" y="-847.4" font-family="Times,serif" font-size="14.00" fill="#000000">transmembrane transporter</text>
<text text-anchor="middle" x="887.1115" y="-830.6" font-family="Times,serif" font-size="14.00" fill="#000000">activity</text>
</g>
<!-- GO:0022891&#45;&gt;GO:0022857 -->
<g id="edge23" class="edge">
<title>GO:0022891&#45;&gt;GO:0022857</title>
<path fill="none" stroke="#000000" d="M938.41,-786.4952C931.2889,-795.5329 923.6872,-805.1805 916.5767,-814.2046"/>
<polygon fill="#000000" stroke="#000000" points="913.6527,-812.2605 910.2128,-822.2814 919.151,-816.5928 913.6527,-812.2605"/>
</g>
<!-- GO:0022892 -->
<g id="node23" class="node">
<title>GO:0022892</title>
<polygon fill="#ffffff" stroke="#000000" points="1110.24,-881.0014 987.983,-881.0014 987.983,-822.1986 1110.24,-822.1986 1110.24,-881.0014"/>
<text text-anchor="middle" x="1049.1115" y="-864.2" font-family="Times,serif" font-size="14.00" fill="#000000">GO:0022892</text>
<text text-anchor="middle" x="1049.1115" y="-847.4" font-family="Times,serif" font-size="14.00" fill="#000000">substrate&#45;specific</text>
<text text-anchor="middle" x="1049.1115" y="-830.6" font-family="Times,serif" font-size="14.00" fill="#000000">transporter activity</text>
</g>
<!-- GO:0022891&#45;&gt;GO:0022892 -->
<g id="edge24" class="edge">
<title>GO:0022891&#45;&gt;GO:0022892</title>
<path fill="none" stroke="#000000" d="M997.813,-786.4952C1004.9341,-795.5329 1012.5358,-805.1805 1019.6463,-814.2046"/>
<polygon fill="#000000" stroke="#000000" points="1017.072,-816.5928 1026.0102,-822.2814 1022.5703,-812.2605 1017.072,-816.5928"/>
</g>
<!-- GO:0005215 -->
<g id="node24" class="node">
<title>GO:0005215</title>
<polygon fill="#ffffff" stroke="#000000" points="1029.24,-958.2019 906.983,-958.2019 906.983,-916.9981 1029.24,-916.9981 1029.24,-958.2019"/>
<text text-anchor="middle" x="968.1115" y="-941.8" font-family="Times,serif" font-size="14.00" fill="#000000">GO:0005215</text>
<text text-anchor="middle" x="968.1115" y="-925" font-family="Times,serif" font-size="14.00" fill="#000000">transporter activity</text>
</g>
<!-- GO:0022857&#45;&gt;GO:0005215 -->
<g id="edge25" class="edge">
<title>GO:0022857&#45;&gt;GO:0005215</title>
<path fill="none" stroke="#000000" d="M914.9871,-881.1963C923.6391,-890.3824 933.1451,-900.4752 941.6948,-909.5526"/>
<polygon fill="#000000" stroke="#000000" points="939.2076,-912.0167 948.6117,-916.8966 944.3033,-907.2173 939.2076,-912.0167"/>
</g>
<!-- GO:0022892&#45;&gt;GO:0005215 -->
<g id="edge26" class="edge">
<title>GO:0022892&#45;&gt;GO:0005215</title>
<path fill="none" stroke="#000000" d="M1021.2359,-881.1963C1012.5839,-890.3824 1003.0779,-900.4752 994.5282,-909.5526"/>
<polygon fill="#000000" stroke="#000000" points="991.9197,-907.2173 987.6113,-916.8966 997.0154,-912.0167 991.9197,-907.2173"/>
</g>
<!-- GO:0020037 -->
<g id="node25" class="node">
<title>GO:0020037</title>
<polygon fill="#ffffff" stroke="#000000" points="391.2134,-238.6019 299.0096,-238.6019 299.0096,-197.3981 391.2134,-197.3981 391.2134,-238.6019"/>
<text text-anchor="middle" x="345.1115" y="-222.2" font-family="Times,serif" font-size="14.00" fill="#000000">GO:0020037</text>
<text text-anchor="middle" x="345.1115" y="-205.4" font-family="Times,serif" font-size="14.00" fill="#000000">heme binding</text>
</g>
<!-- GO:0046906 -->
<g id="node26" class="node">
<title>GO:0046906</title>
<polygon fill="#ffffff" stroke="#000000" points="408.6908,-358.2019 281.5322,-358.2019 281.5322,-316.9981 408.6908,-316.9981 408.6908,-358.2019"/>
<text text-anchor="middle" x="345.1115" y="-341.8" font-family="Times,serif" font-size="14.00" fill="#000000">GO:0046906</text>
<text text-anchor="middle" x="345.1115" y="-325" font-family="Times,serif" font-size="14.00" fill="#000000">tetrapyrrole binding</text>
</g>
<!-- GO:0020037&#45;&gt;GO:0046906 -->
<g id="edge27" class="edge">
<title>GO:0020037&#45;&gt;GO:0046906</title>
<path fill="none" stroke="#000000" d="M345.1115,-238.8327C345.1115,-257.4973 345.1115,-285.1322 345.1115,-306.4278"/>
<polygon fill="#000000" stroke="#000000" points="341.6116,-306.6047 345.1115,-316.6047 348.6116,-306.6047 341.6116,-306.6047"/>
</g>
<!-- GO:0097159 -->
<g id="node27" class="node">
<title>GO:0097159</title>
<polygon fill="#ffffff" stroke="#000000" points="338.6229,-478.2014 181.6001,-478.2014 181.6001,-419.3986 338.6229,-419.3986 338.6229,-478.2014"/>
<text text-anchor="middle" x="260.1115" y="-461.4" font-family="Times,serif" font-size="14.00" fill="#000000">GO:0097159</text>
<text text-anchor="middle" x="260.1115" y="-444.6" font-family="Times,serif" font-size="14.00" fill="#000000">organic cyclic compound</text>
<text text-anchor="middle" x="260.1115" y="-427.8" font-family="Times,serif" font-size="14.00" fill="#000000">binding</text>
</g>
<!-- GO:0046906&#45;&gt;GO:0097159 -->
<g id="edge28" class="edge">
<title>GO:0046906&#45;&gt;GO:0097159</title>
<path fill="none" stroke="#000000" d="M329.3229,-358.2553C318.0179,-373.0448 302.4725,-393.3819 288.9781,-411.0357"/>
<polygon fill="#000000" stroke="#000000" points="285.8381,-409.3802 282.5459,-419.4506 291.3995,-413.6313 285.8381,-409.3802"/>
</g>
<!-- GO:1901363 -->
<g id="node28" class="node">
<title>GO:1901363</title>
<polygon fill="#ffffff" stroke="#000000" points="503.6221,-478.2014 356.6009,-478.2014 356.6009,-419.3986 503.6221,-419.3986 503.6221,-478.2014"/>
<text text-anchor="middle" x="430.1115" y="-461.4" font-family="Times,serif" font-size="14.00" fill="#000000">GO:1901363</text>
<text text-anchor="middle" x="430.1115" y="-444.6" font-family="Times,serif" font-size="14.00" fill="#000000">heterocyclic compound</text>
<text text-anchor="middle" x="430.1115" y="-427.8" font-family="Times,serif" font-size="14.00" fill="#000000">binding</text>
</g>
<!-- GO:0046906&#45;&gt;GO:1901363 -->
<g id="edge29" class="edge">
<title>GO:0046906&#45;&gt;GO:1901363</title>
<path fill="none" stroke="#000000" d="M360.9001,-358.2553C372.2051,-373.0448 387.7505,-393.3819 401.2449,-411.0357"/>
<polygon fill="#000000" stroke="#000000" points="398.8235,-413.6313 407.6771,-419.4506 404.3849,-409.3802 398.8235,-413.6313"/>
</g>
<!-- GO:0097159&#45;&gt;GO:0005488 -->
<g id="edge30" class="edge">
<title>GO:0097159&#45;&gt;GO:0005488</title>
<path fill="none" stroke="#000000" d="M273.2933,-478.2584C279.3605,-491.8172 286.5498,-507.8838 292.6508,-521.5182"/>
<polygon fill="#000000" stroke="#000000" points="289.59,-523.2474 296.8693,-530.9456 295.9795,-520.3882 289.59,-523.2474"/>
</g>
<!-- GO:1901363&#45;&gt;GO:0005488 -->
<g id="edge31" class="edge">
<title>GO:1901363&#45;&gt;GO:0005488</title>
<path fill="none" stroke="#000000" d="M394.5781,-478.2584C377.1115,-492.7387 356.1949,-510.0792 339.0864,-524.2628"/>
<polygon fill="#000000" stroke="#000000" points="336.49,-521.8688 331.0253,-530.9456 340.9576,-527.2578 336.49,-521.8688"/>
</g>
</g>
</svg>
