<?xml version="1.0" encoding="UTF-8" standalone="no"?>
<!DOCTYPE svg PUBLIC "-//W3C//DTD SVG 1.1//EN"
 "http://www.w3.org/Graphics/SVG/1.1/DTD/svg11.dtd">
<!-- Generated by graphviz version 2.40.1 (20161225.0304)
 -->
<!-- Title: G Pages: 1 -->
<svg width="633pt" height="582pt"
 viewBox="0.00 0.00 633.17 582.40" xmlns="http://www.w3.org/2000/svg" xmlns:xlink="http://www.w3.org/1999/xlink">
<g id="graph0" class="graph" transform="scale(1 1) rotate(0) translate(4 578.4)">
<title>G</title>
<polygon fill="#ffffff" stroke="transparent" points="-4,4 -4,-578.4 629.1743,-578.4 629.1743,4 -4,4"/>
<!-- GO:0004252 -->
<g id="node1" class="node">
<title>GO:0004252</title>
<polygon fill="#ffffff" stroke="#000000" points="305.5631,-58.6014 144.0127,-58.6014 144.0127,.2014 305.5631,.2014 305.5631,-58.6014"/>
<text text-anchor="middle" x="224.7879" y="-41.8" font-family="Times,serif" font-size="14.00" fill="#000000">GO:0004252</text>
<text text-anchor="middle" x="224.7879" y="-25" font-family="Times,serif" font-size="14.00" fill="#000000">serine&#45;type endopeptidase</text>
<text text-anchor="middle" x="224.7879" y="-8.2" font-family="Times,serif" font-size="14.00" fill="#000000">activity</text>
</g>
<!-- GO:0004175 -->
<g id="node2" class="node">
<title>GO:0004175</title>
<polygon fill="#ffffff" stroke="#000000" points="141.3643,-144.2019 .2115,-144.2019 .2115,-102.9981 141.3643,-102.9981 141.3643,-144.2019"/>
<text text-anchor="middle" x="70.7879" y="-127.8" font-family="Times,serif" font-size="14.00" fill="#000000">GO:0004175</text>
<text text-anchor="middle" x="70.7879" y="-111" font-family="Times,serif" font-size="14.00" fill="#000000">endopeptidase activity</text>
</g>
<!-- GO:0004252&#45;&gt;GO:0004175 -->
<g id="edge1" class="edge">
<title>GO:0004252&#45;&gt;GO:0004175</title>
<path fill="none" stroke="#000000" d="M176.9055,-58.5513C156.5383,-71.0361 132.9837,-85.4748 113.2478,-97.5727"/>
<polygon fill="#000000" stroke="#000000" points="111.1703,-94.7408 104.4738,-102.951 114.8287,-100.7088 111.1703,-94.7408"/>
</g>
<!-- GO:0008236 -->
<g id="node3" class="node">
<title>GO:0008236</title>
<polygon fill="#ffffff" stroke="#000000" points="446.849,-153.0014 312.7268,-153.0014 312.7268,-94.1986 446.849,-94.1986 446.849,-153.0014"/>
<text text-anchor="middle" x="379.7879" y="-136.2" font-family="Times,serif" font-size="14.00" fill="#000000">GO:0008236</text>
<text text-anchor="middle" x="379.7879" y="-119.4" font-family="Times,serif" font-size="14.00" fill="#000000">serine&#45;type peptidase</text>
<text text-anchor="middle" x="379.7879" y="-102.6" font-family="Times,serif" font-size="14.00" fill="#000000">activity</text>
</g>
<!-- GO:0004252&#45;&gt;GO:0008236 -->
<g id="edge2" class="edge">
<title>GO:0004252&#45;&gt;GO:0008236</title>
<path fill="none" stroke="#000000" d="M272.9812,-58.5513C288.7276,-68.1413 306.3669,-78.8842 322.7031,-88.8335"/>
<polygon fill="#000000" stroke="#000000" points="321.2631,-92.0545 331.6244,-94.2669 324.9042,-86.076 321.2631,-92.0545"/>
</g>
<!-- GO:0070011 -->
<g id="node4" class="node">
<title>GO:0070011</title>
<polygon fill="#ffffff" stroke="#000000" points="300.0273,-264.1003 153.5485,-264.1003 153.5485,-188.6997 300.0273,-188.6997 300.0273,-264.1003"/>
<text text-anchor="middle" x="226.7879" y="-247.4" font-family="Times,serif" font-size="14.00" fill="#000000">GO:0070011</text>
<text text-anchor="middle" x="226.7879" y="-230.6" font-family="Times,serif" font-size="14.00" fill="#000000">peptidase activity,</text>
<text text-anchor="middle" x="226.7879" y="-213.8" font-family="Times,serif" font-size="14.00" fill="#000000">acting on L&#45;amino acid</text>
<text text-anchor="middle" x="226.7879" y="-197" font-family="Times,serif" font-size="14.00" fill="#000000">peptides</text>
</g>
<!-- GO:0004175&#45;&gt;GO:0070011 -->
<g id="edge3" class="edge">
<title>GO:0004175&#45;&gt;GO:0070011</title>
<path fill="none" stroke="#000000" d="M102.3568,-144.4031C119.337,-155.5926 140.9328,-169.8237 161.3494,-183.2777"/>
<polygon fill="#000000" stroke="#000000" points="159.4301,-186.2045 169.706,-188.7845 163.2818,-180.3595 159.4301,-186.2045"/>
</g>
<!-- GO:0008236&#45;&gt;GO:0070011 -->
<g id="edge4" class="edge">
<title>GO:0008236&#45;&gt;GO:0070011</title>
<path fill="none" stroke="#000000" d="M335.9442,-153.0584C322.1407,-162.3329 306.5908,-172.7808 291.6477,-182.821"/>
<polygon fill="#000000" stroke="#000000" points="289.2857,-180.1913 282.9373,-188.6735 293.1897,-186.0016 289.2857,-180.1913"/>
</g>
<!-- GO:0017171 -->
<g id="node5" class="node">
<title>GO:0017171</title>
<polygon fill="#ffffff" stroke="#000000" points="455.1296,-341.4019 302.4462,-341.4019 302.4462,-300.1981 455.1296,-300.1981 455.1296,-341.4019"/>
<text text-anchor="middle" x="378.7879" y="-325" font-family="Times,serif" font-size="14.00" fill="#000000">GO:0017171</text>
<text text-anchor="middle" x="378.7879" y="-308.2" font-family="Times,serif" font-size="14.00" fill="#000000">serine hydrolase activity</text>
</g>
<!-- GO:0008236&#45;&gt;GO:0017171 -->
<g id="edge5" class="edge">
<title>GO:0008236&#45;&gt;GO:0017171</title>
<path fill="none" stroke="#000000" d="M379.6382,-153.1228C379.4517,-189.8928 379.1347,-252.4193 378.9449,-289.8441"/>
<polygon fill="#000000" stroke="#000000" points="375.4435,-290.1266 378.8926,-300.1442 382.4434,-290.1622 375.4435,-290.1266"/>
</g>
<!-- GO:0008233 -->
<g id="node6" class="node">
<title>GO:0008233</title>
<polygon fill="#ffffff" stroke="#000000" points="284.1497,-341.4019 169.4261,-341.4019 169.4261,-300.1981 284.1497,-300.1981 284.1497,-341.4019"/>
<text text-anchor="middle" x="226.7879" y="-325" font-family="Times,serif" font-size="14.00" fill="#000000">GO:0008233</text>
<text text-anchor="middle" x="226.7879" y="-308.2" font-family="Times,serif" font-size="14.00" fill="#000000">peptidase activity</text>
</g>
<!-- GO:0070011&#45;&gt;GO:0008233 -->
<g id="edge6" class="edge">
<title>GO:0070011&#45;&gt;GO:0008233</title>
<path fill="none" stroke="#000000" d="M226.7879,-264.2522C226.7879,-272.7406 226.7879,-281.6492 226.7879,-289.8197"/>
<polygon fill="#000000" stroke="#000000" points="223.288,-290.0379 226.7879,-300.0379 230.288,-290.0379 223.288,-290.0379"/>
</g>
<!-- GO:0016787 -->
<g id="node7" class="node">
<title>GO:0016787</title>
<polygon fill="#ffffff" stroke="#000000" points="390.7045,-419.0019 274.8713,-419.0019 274.8713,-377.7981 390.7045,-377.7981 390.7045,-419.0019"/>
<text text-anchor="middle" x="332.7879" y="-402.6" font-family="Times,serif" font-size="14.00" fill="#000000">GO:0016787</text>
<text text-anchor="middle" x="332.7879" y="-385.8" font-family="Times,serif" font-size="14.00" fill="#000000">hydrolase activity</text>
</g>
<!-- GO:0017171&#45;&gt;GO:0016787 -->
<g id="edge7" class="edge">
<title>GO:0017171&#45;&gt;GO:0016787</title>
<path fill="none" stroke="#000000" d="M366.4607,-341.5954C361.5108,-349.9458 355.7133,-359.7258 350.3375,-368.7947"/>
<polygon fill="#000000" stroke="#000000" points="347.2376,-367.1603 345.1491,-377.5472 353.2591,-370.7298 347.2376,-367.1603"/>
</g>
<!-- GO:0008233&#45;&gt;GO:0016787 -->
<g id="edge8" class="edge">
<title>GO:0008233&#45;&gt;GO:0016787</title>
<path fill="none" stroke="#000000" d="M255.194,-341.5954C267.7886,-350.8156 282.7641,-361.7788 296.1839,-371.6031"/>
<polygon fill="#000000" stroke="#000000" points="294.1671,-374.4643 304.3034,-377.5472 298.302,-368.816 294.1671,-374.4643"/>
</g>
<!-- GO:0003824 -->
<g id="node8" class="node">
<title>GO:0003824</title>
<polygon fill="#ffffff" stroke="#000000" points="391.2003,-496.6019 282.3755,-496.6019 282.3755,-455.3981 391.2003,-455.3981 391.2003,-496.6019"/>
<text text-anchor="middle" x="336.7879" y="-480.2" font-family="Times,serif" font-size="14.00" fill="#000000">GO:0003824</text>
<text text-anchor="middle" x="336.7879" y="-463.4" font-family="Times,serif" font-size="14.00" fill="#000000">catalytic activity</text>
</g>
<!-- GO:0016787&#45;&gt;GO:0003824 -->
<g id="edge9" class="edge">
<title>GO:0016787&#45;&gt;GO:0003824</title>
<path fill="none" stroke="#000000" d="M333.8598,-419.1954C334.2678,-427.1109 334.7421,-436.3109 335.1885,-444.9722"/>
<polygon fill="#000000" stroke="#000000" points="331.7028,-445.3407 335.713,-455.1472 338.6935,-444.9803 331.7028,-445.3407"/>
</g>
<!-- GO:0003674 -->
<g id="node9" class="node">
<title>GO:0003674</title>
<polygon fill="#ffffff" stroke="#000000" points="457.421,-574.2019 332.1548,-574.2019 332.1548,-532.9981 457.421,-532.9981 457.421,-574.2019"/>
<text text-anchor="middle" x="394.7879" y="-557.8" font-family="Times,serif" font-size="14.00" fill="#000000">GO:0003674</text>
<text text-anchor="middle" x="394.7879" y="-541" font-family="Times,serif" font-size="14.00" fill="#000000">molecular_function</text>
</g>
<!-- GO:0003824&#45;&gt;GO:0003674 -->
<g id="edge10" class="edge">
<title>GO:0003824&#45;&gt;GO:0003674</title>
<path fill="none" stroke="#000000" d="M352.3308,-496.7954C358.7021,-505.3197 366.187,-515.3339 373.0831,-524.5605"/>
<polygon fill="#000000" stroke="#000000" points="370.4118,-526.8327 379.2021,-532.7472 376.0187,-522.6419 370.4118,-526.8327"/>
</g>
<!-- GO:0033218 -->
<g id="node10" class="node">
<title>GO:0033218</title>
<polygon fill="#ffffff" stroke="#000000" points="505.2808,-419.0019 408.295,-419.0019 408.295,-377.7981 505.2808,-377.7981 505.2808,-419.0019"/>
<text text-anchor="middle" x="456.7879" y="-402.6" font-family="Times,serif" font-size="14.00" fill="#000000">GO:0033218</text>
<text text-anchor="middle" x="456.7879" y="-385.8" font-family="Times,serif" font-size="14.00" fill="#000000">amide binding</text>
</g>
<!-- GO:0005488 -->
<g id="node11" class="node">
<title>GO:0005488</title>
<polygon fill="#ffffff" stroke="#000000" points="501.3918,-496.6019 412.184,-496.6019 412.184,-455.3981 501.3918,-455.3981 501.3918,-496.6019"/>
<text text-anchor="middle" x="456.7879" y="-480.2" font-family="Times,serif" font-size="14.00" fill="#000000">GO:0005488</text>
<text text-anchor="middle" x="456.7879" y="-463.4" font-family="Times,serif" font-size="14.00" fill="#000000">binding</text>
</g>
<!-- GO:0033218&#45;&gt;GO:0005488 -->
<g id="edge11" class="edge">
<title>GO:0033218&#45;&gt;GO:0005488</title>
<path fill="none" stroke="#000000" d="M456.7879,-419.1954C456.7879,-427.1109 456.7879,-436.3109 456.7879,-444.9722"/>
<polygon fill="#000000" stroke="#000000" points="453.288,-445.1472 456.7879,-455.1472 460.288,-445.1473 453.288,-445.1472"/>
</g>
<!-- GO:0005488&#45;&gt;GO:0003674 -->
<g id="edge12" class="edge">
<title>GO:0005488&#45;&gt;GO:0003674</title>
<path fill="none" stroke="#000000" d="M440.173,-496.7954C433.2928,-505.4067 425.1979,-515.5384 417.7641,-524.8427"/>
<polygon fill="#000000" stroke="#000000" points="414.9563,-522.7499 411.4486,-532.7472 420.4251,-527.1193 414.9563,-522.7499"/>
</g>
<!-- GO:0008238 -->
<g id="node12" class="node">
<title>GO:0008238</title>
<polygon fill="#ffffff" stroke="#000000" points="293.8644,-144.2019 159.7114,-144.2019 159.7114,-102.9981 293.8644,-102.9981 293.8644,-144.2019"/>
<text text-anchor="middle" x="226.7879" y="-127.8" font-family="Times,serif" font-size="14.00" fill="#000000">GO:0008238</text>
<text text-anchor="middle" x="226.7879" y="-111" font-family="Times,serif" font-size="14.00" fill="#000000">exopeptidase activity</text>
</g>
<!-- GO:0008238&#45;&gt;GO:0070011 -->
<g id="edge13" class="edge">
<title>GO:0008238&#45;&gt;GO:0070011</title>
<path fill="none" stroke="#000000" d="M226.7879,-144.4031C226.7879,-154.2045 226.7879,-166.3396 226.7879,-178.242"/>
<polygon fill="#000000" stroke="#000000" points="223.288,-178.5772 226.7879,-188.5773 230.288,-178.5773 223.288,-178.5772"/>
</g>
<!-- GO:0046872 -->
<g id="node13" class="node">
<title>GO:0046872</title>
<polygon fill="#ffffff" stroke="#000000" points="625.0609,-247.0019 510.5149,-247.0019 510.5149,-205.7981 625.0609,-205.7981 625.0609,-247.0019"/>
<text text-anchor="middle" x="567.7879" y="-230.6" font-family="Times,serif" font-size="14.00" fill="#000000">GO:0046872</text>
<text text-anchor="middle" x="567.7879" y="-213.8" font-family="Times,serif" font-size="14.00" fill="#000000">metal ion binding</text>
</g>
<!-- GO:0043169 -->
<g id="node14" class="node">
<title>GO:0043169</title>
<polygon fill="#ffffff" stroke="#000000" points="616.2808,-341.4019 519.295,-341.4019 519.295,-300.1981 616.2808,-300.1981 616.2808,-341.4019"/>
<text text-anchor="middle" x="567.7879" y="-325" font-family="Times,serif" font-size="14.00" fill="#000000">GO:0043169</text>
<text text-anchor="middle" x="567.7879" y="-308.2" font-family="Times,serif" font-size="14.00" fill="#000000">cation binding</text>
</g>
<!-- GO:0046872&#45;&gt;GO:0043169 -->
<g id="edge14" class="edge">
<title>GO:0046872&#45;&gt;GO:0043169</title>
<path fill="none" stroke="#000000" d="M567.7879,-247.3504C567.7879,-259.8165 567.7879,-275.8645 567.7879,-289.7786"/>
<polygon fill="#000000" stroke="#000000" points="564.288,-289.9081 567.7879,-299.9081 571.288,-289.9082 564.288,-289.9081"/>
</g>
<!-- GO:0043167 -->
<g id="node15" class="node">
<title>GO:0043167</title>
<polygon fill="#ffffff" stroke="#000000" points="612.3918,-419.0019 523.184,-419.0019 523.184,-377.7981 612.3918,-377.7981 612.3918,-419.0019"/>
<text text-anchor="middle" x="567.7879" y="-402.6" font-family="Times,serif" font-size="14.00" fill="#000000">GO:0043167</text>
<text text-anchor="middle" x="567.7879" y="-385.8" font-family="Times,serif" font-size="14.00" fill="#000000">ion binding</text>
</g>
<!-- GO:0043169&#45;&gt;GO:0043167 -->
<g id="edge15" class="edge">
<title>GO:0043169&#45;&gt;GO:0043167</title>
<path fill="none" stroke="#000000" d="M567.7879,-341.5954C567.7879,-349.5109 567.7879,-358.7109 567.7879,-367.3722"/>
<polygon fill="#000000" stroke="#000000" points="564.288,-367.5472 567.7879,-377.5472 571.288,-367.5473 564.288,-367.5472"/>
</g>
<!-- GO:0043167&#45;&gt;GO:0005488 -->
<g id="edge16" class="edge">
<title>GO:0043167&#45;&gt;GO:0005488</title>
<path fill="none" stroke="#000000" d="M538.0419,-419.1954C524.8532,-428.4156 509.1713,-439.3788 495.1185,-449.2031"/>
<polygon fill="#000000" stroke="#000000" points="492.8064,-446.549 486.616,-455.1472 496.8172,-452.286 492.8064,-446.549"/>
</g>
</g>
</svg>
