<?xml version="1.0" encoding="UTF-8" standalone="no"?>
<!DOCTYPE svg PUBLIC "-//W3C//DTD SVG 1.1//EN"
 "http://www.w3.org/Graphics/SVG/1.1/DTD/svg11.dtd">
<!-- Generated by graphviz version 2.40.1 (20161225.0304)
 -->
<!-- Title: G Pages: 1 -->
<svg width="751pt" height="377pt"
 viewBox="0.00 0.00 751.47 376.80" xmlns="http://www.w3.org/2000/svg" xmlns:xlink="http://www.w3.org/1999/xlink">
<g id="graph0" class="graph" transform="scale(1 1) rotate(0) translate(4 372.8)">
<title>G</title>
<polygon fill="#ffffff" stroke="transparent" points="-4,4 -4,-372.8 747.4692,-372.8 747.4692,4 -4,4"/>
<!-- GO:0006810 -->
<g id="node1" class="node">
<title>GO:0006810</title>
<polygon fill="#ff00ff" stroke="#000000" points="648.9465,-119.0019 559.7387,-119.0019 559.7387,-77.7981 648.9465,-77.7981 648.9465,-119.0019"/>
<text text-anchor="middle" x="604.3426" y="-102.6" font-family="Times,serif" font-size="14.00" fill="#000000">GO:0006810</text>
<text text-anchor="middle" x="604.3426" y="-85.8" font-family="Times,serif" font-size="14.00" fill="#000000">transport</text>
</g>
<!-- GO:0051234 -->
<g id="node2" class="node">
<title>GO:0051234</title>
<polygon fill="#ffffff" stroke="#000000" points="671.4893,-213.8014 563.1959,-213.8014 563.1959,-154.9986 671.4893,-154.9986 671.4893,-213.8014"/>
<text text-anchor="middle" x="617.3426" y="-197" font-family="Times,serif" font-size="14.00" fill="#000000">GO:0051234</text>
<text text-anchor="middle" x="617.3426" y="-180.2" font-family="Times,serif" font-size="14.00" fill="#000000">establishment of</text>
<text text-anchor="middle" x="617.3426" y="-163.4" font-family="Times,serif" font-size="14.00" fill="#000000">localization</text>
</g>
<!-- GO:0006810&#45;&gt;GO:0051234 -->
<g id="edge1" class="edge">
<title>GO:0006810&#45;&gt;GO:0051234</title>
<path fill="none" stroke="#000000" d="M607.4895,-119.2182C608.6688,-127.0197 610.0509,-136.1626 611.4007,-145.0917"/>
<polygon fill="#000000" stroke="#000000" points="607.9429,-145.6346 612.8983,-154.9991 614.8642,-144.5883 607.9429,-145.6346"/>
</g>
<!-- GO:0051179 -->
<g id="node3" class="node">
<title>GO:0051179</title>
<polygon fill="#ffffff" stroke="#000000" points="592.9465,-291.0019 503.7387,-291.0019 503.7387,-249.7981 592.9465,-249.7981 592.9465,-291.0019"/>
<text text-anchor="middle" x="548.3426" y="-274.6" font-family="Times,serif" font-size="14.00" fill="#000000">GO:0051179</text>
<text text-anchor="middle" x="548.3426" y="-257.8" font-family="Times,serif" font-size="14.00" fill="#000000">localization</text>
</g>
<!-- GO:0051234&#45;&gt;GO:0051179 -->
<g id="edge2" class="edge">
<title>GO:0051234&#45;&gt;GO:0051179</title>
<path fill="none" stroke="#000000" d="M593.5967,-213.9963C586.3739,-222.9986 578.4524,-232.8719 571.2837,-241.8067"/>
<polygon fill="#000000" stroke="#000000" points="568.4816,-239.7064 564.9535,-249.6966 573.9415,-244.087 568.4816,-239.7064"/>
</g>
<!-- GO:0008150 -->
<g id="node4" class="node">
<title>GO:0008150</title>
<polygon fill="#ffffff" stroke="#000000" points="470.8132,-368.6019 349.872,-368.6019 349.872,-327.3981 470.8132,-327.3981 470.8132,-368.6019"/>
<text text-anchor="middle" x="410.3426" y="-352.2" font-family="Times,serif" font-size="14.00" fill="#000000">GO:0008150</text>
<text text-anchor="middle" x="410.3426" y="-335.4" font-family="Times,serif" font-size="14.00" fill="#000000">biological_process</text>
</g>
<!-- GO:0051179&#45;&gt;GO:0008150 -->
<g id="edge3" class="edge">
<title>GO:0051179&#45;&gt;GO:0008150</title>
<path fill="none" stroke="#000000" d="M511.3611,-291.1954C494.5003,-300.6766 474.3619,-312.0008 456.5184,-322.0345"/>
<polygon fill="#000000" stroke="#000000" points="454.4271,-319.195 447.4261,-327.1472 457.8581,-325.2965 454.4271,-319.195"/>
</g>
<!-- GO:0009987 -->
<g id="node5" class="node">
<title>GO:0009987</title>
<polygon fill="#ff00ff" stroke="#000000" points="316.2988,-291.0019 212.3864,-291.0019 212.3864,-249.7981 316.2988,-249.7981 316.2988,-291.0019"/>
<text text-anchor="middle" x="264.3426" y="-274.6" font-family="Times,serif" font-size="14.00" fill="#000000">GO:0009987</text>
<text text-anchor="middle" x="264.3426" y="-257.8" font-family="Times,serif" font-size="14.00" fill="#000000">cellular process</text>
</g>
<!-- GO:0009987&#45;&gt;GO:0008150 -->
<g id="edge4" class="edge">
<title>GO:0009987&#45;&gt;GO:0008150</title>
<path fill="none" stroke="#000000" d="M303.4679,-291.1954C321.6246,-300.8458 343.3737,-312.4056 362.4984,-322.5705"/>
<polygon fill="#000000" stroke="#000000" points="360.8897,-325.6791 371.3626,-327.2819 364.1751,-319.4979 360.8897,-325.6791"/>
</g>
<!-- GO:0044237 -->
<g id="node6" class="node">
<title>GO:0044237</title>
<polygon fill="#ffffff" stroke="#000000" points="251.5254,-213.8014 135.1598,-213.8014 135.1598,-154.9986 251.5254,-154.9986 251.5254,-213.8014"/>
<text text-anchor="middle" x="193.3426" y="-197" font-family="Times,serif" font-size="14.00" fill="#000000">GO:0044237</text>
<text text-anchor="middle" x="193.3426" y="-180.2" font-family="Times,serif" font-size="14.00" fill="#000000">cellular metabolic</text>
<text text-anchor="middle" x="193.3426" y="-163.4" font-family="Times,serif" font-size="14.00" fill="#000000">process</text>
</g>
<!-- GO:0044237&#45;&gt;GO:0009987 -->
<g id="edge5" class="edge">
<title>GO:0044237&#45;&gt;GO:0009987</title>
<path fill="none" stroke="#000000" d="M217.7768,-213.9963C225.2089,-222.9986 233.3601,-232.8719 240.7365,-241.8067"/>
<polygon fill="#000000" stroke="#000000" points="238.1846,-244.2133 247.2502,-249.6966 243.5827,-239.7567 238.1846,-244.2133"/>
</g>
<!-- GO:0008152 -->
<g id="node7" class="node">
<title>GO:0008152</title>
<polygon fill="#ffffff" stroke="#000000" points="194.5282,-291.0019 78.157,-291.0019 78.157,-249.7981 194.5282,-249.7981 194.5282,-291.0019"/>
<text text-anchor="middle" x="136.3426" y="-274.6" font-family="Times,serif" font-size="14.00" fill="#000000">GO:0008152</text>
<text text-anchor="middle" x="136.3426" y="-257.8" font-family="Times,serif" font-size="14.00" fill="#000000">metabolic process</text>
</g>
<!-- GO:0044237&#45;&gt;GO:0008152 -->
<g id="edge6" class="edge">
<title>GO:0044237&#45;&gt;GO:0008152</title>
<path fill="none" stroke="#000000" d="M173.7264,-213.9963C167.8815,-222.8149 161.4828,-232.4692 155.6573,-241.2586"/>
<polygon fill="#000000" stroke="#000000" points="152.6719,-239.4275 150.0647,-249.6966 158.5067,-243.2948 152.6719,-239.4275"/>
</g>
<!-- GO:0008152&#45;&gt;GO:0008150 -->
<g id="edge7" class="edge">
<title>GO:0008152&#45;&gt;GO:0008150</title>
<path fill="none" stroke="#000000" d="M194.7736,-288.665C197.6685,-289.5306 200.5369,-290.3798 203.3426,-291.2 248.6132,-304.4342 299.7167,-318.4659 339.8203,-329.2718"/>
<polygon fill="#000000" stroke="#000000" points="338.9406,-332.6595 349.5065,-331.8766 340.7585,-325.8996 338.9406,-332.6595"/>
</g>
<!-- GO:0071704 -->
<g id="node8" class="node">
<title>GO:0071704</title>
<polygon fill="#ffffff" stroke="#000000" points="116.5282,-213.8014 .157,-213.8014 .157,-154.9986 116.5282,-154.9986 116.5282,-213.8014"/>
<text text-anchor="middle" x="58.3426" y="-197" font-family="Times,serif" font-size="14.00" fill="#000000">GO:0071704</text>
<text text-anchor="middle" x="58.3426" y="-180.2" font-family="Times,serif" font-size="14.00" fill="#000000">organic substance</text>
<text text-anchor="middle" x="58.3426" y="-163.4" font-family="Times,serif" font-size="14.00" fill="#000000">metabolic process</text>
</g>
<!-- GO:0071704&#45;&gt;GO:0008152 -->
<g id="edge8" class="edge">
<title>GO:0071704&#45;&gt;GO:0008152</title>
<path fill="none" stroke="#000000" d="M85.1858,-213.9963C93.434,-223.0905 102.4883,-233.0734 110.657,-242.08"/>
<polygon fill="#000000" stroke="#000000" points="108.2543,-244.6407 117.5651,-249.6966 113.4394,-239.938 108.2543,-244.6407"/>
</g>
<!-- GO:0044765 -->
<g id="node9" class="node">
<title>GO:0044765</title>
<polygon fill="#ffffff" stroke="#000000" points="634.3069,-41.4019 474.3783,-41.4019 474.3783,-.1981 634.3069,-.1981 634.3069,-41.4019"/>
<text text-anchor="middle" x="554.3426" y="-25" font-family="Times,serif" font-size="14.00" fill="#000000">GO:0044765</text>
<text text-anchor="middle" x="554.3426" y="-8.2" font-family="Times,serif" font-size="14.00" fill="#000000">single&#45;organism transport</text>
</g>
<!-- GO:0044765&#45;&gt;GO:0006810 -->
<g id="edge9" class="edge">
<title>GO:0044765&#45;&gt;GO:0006810</title>
<path fill="none" stroke="#000000" d="M567.7417,-41.5954C573.1781,-50.0328 579.555,-59.9297 585.4495,-69.0778"/>
<polygon fill="#000000" stroke="#000000" points="582.548,-71.0368 590.9065,-77.5472 588.4323,-67.2453 582.548,-71.0368"/>
</g>
<!-- GO:1902578 -->
<g id="node10" class="node">
<title>GO:1902578</title>
<polygon fill="#ffffff" stroke="#000000" points="545.5448,-213.8014 439.1404,-213.8014 439.1404,-154.9986 545.5448,-154.9986 545.5448,-213.8014"/>
<text text-anchor="middle" x="492.3426" y="-197" font-family="Times,serif" font-size="14.00" fill="#000000">GO:1902578</text>
<text text-anchor="middle" x="492.3426" y="-180.2" font-family="Times,serif" font-size="14.00" fill="#000000">single&#45;organism</text>
<text text-anchor="middle" x="492.3426" y="-163.4" font-family="Times,serif" font-size="14.00" fill="#000000">localization</text>
</g>
<!-- GO:0044765&#45;&gt;GO:1902578 -->
<g id="edge10" class="edge">
<title>GO:0044765&#45;&gt;GO:1902578</title>
<path fill="none" stroke="#000000" d="M546.4903,-41.5201C536.6273,-67.5455 519.5013,-112.736 507.1471,-145.3352"/>
<polygon fill="#000000" stroke="#000000" points="503.7505,-144.4215 503.4795,-155.0129 510.2962,-146.9022 503.7505,-144.4215"/>
</g>
<!-- GO:1902578&#45;&gt;GO:0051179 -->
<g id="edge11" class="edge">
<title>GO:1902578&#45;&gt;GO:0051179</title>
<path fill="none" stroke="#000000" d="M511.6146,-213.9963C517.357,-222.8149 523.6435,-232.4692 529.3668,-241.2586"/>
<polygon fill="#000000" stroke="#000000" points="526.4715,-243.2264 534.8613,-249.6966 532.3375,-239.4067 526.4715,-243.2264"/>
</g>
<!-- GO:0044699 -->
<g id="node11" class="node">
<title>GO:0044699</title>
<polygon fill="#ffffff" stroke="#000000" points="486.0239,-291.0019 334.6613,-291.0019 334.6613,-249.7981 486.0239,-249.7981 486.0239,-291.0019"/>
<text text-anchor="middle" x="410.3426" y="-274.6" font-family="Times,serif" font-size="14.00" fill="#000000">GO:0044699</text>
<text text-anchor="middle" x="410.3426" y="-257.8" font-family="Times,serif" font-size="14.00" fill="#000000">single&#45;organism process</text>
</g>
<!-- GO:1902578&#45;&gt;GO:0044699 -->
<g id="edge12" class="edge">
<title>GO:1902578&#45;&gt;GO:0044699</title>
<path fill="none" stroke="#000000" d="M464.1229,-213.9963C455.3641,-223.1824 445.7407,-233.2752 437.0855,-242.3526"/>
<polygon fill="#000000" stroke="#000000" points="434.4508,-240.0439 430.0831,-249.6966 439.517,-244.8744 434.4508,-240.0439"/>
</g>
<!-- GO:0044699&#45;&gt;GO:0008150 -->
<g id="edge13" class="edge">
<title>GO:0044699&#45;&gt;GO:0008150</title>
<path fill="none" stroke="#000000" d="M410.3426,-291.1954C410.3426,-299.1109 410.3426,-308.3109 410.3426,-316.9722"/>
<polygon fill="#000000" stroke="#000000" points="406.8427,-317.1472 410.3426,-327.1472 413.8427,-317.1473 406.8427,-317.1472"/>
</g>
<!-- GO:0044763 -->
<g id="node12" class="node">
<title>GO:0044763</title>
<polygon fill="#ffffff" stroke="#000000" points="421.0211,-213.8014 269.6641,-213.8014 269.6641,-154.9986 421.0211,-154.9986 421.0211,-213.8014"/>
<text text-anchor="middle" x="345.3426" y="-197" font-family="Times,serif" font-size="14.00" fill="#000000">GO:0044763</text>
<text text-anchor="middle" x="345.3426" y="-180.2" font-family="Times,serif" font-size="14.00" fill="#000000">single&#45;organism cellular</text>
<text text-anchor="middle" x="345.3426" y="-163.4" font-family="Times,serif" font-size="14.00" fill="#000000">process</text>
</g>
<!-- GO:0044763&#45;&gt;GO:0009987 -->
<g id="edge14" class="edge">
<title>GO:0044763&#45;&gt;GO:0009987</title>
<path fill="none" stroke="#000000" d="M317.467,-213.9963C308.815,-223.1824 299.309,-233.2752 290.7593,-242.3526"/>
<polygon fill="#000000" stroke="#000000" points="288.1508,-240.0173 283.8424,-249.6966 293.2465,-244.8167 288.1508,-240.0173"/>
</g>
<!-- GO:0044763&#45;&gt;GO:0044699 -->
<g id="edge15" class="edge">
<title>GO:0044763&#45;&gt;GO:0044699</title>
<path fill="none" stroke="#000000" d="M367.7119,-213.9963C374.4466,-222.9068 381.8261,-232.6705 388.5245,-241.5329"/>
<polygon fill="#000000" stroke="#000000" points="385.8728,-243.8292 394.6946,-249.6966 391.4572,-239.6085 385.8728,-243.8292"/>
</g>
<!-- GO:0065007 -->
<g id="node13" class="node">
<title>GO:0065007</title>
<polygon fill="#ffffff" stroke="#000000" points="743.596,-291.0019 611.0892,-291.0019 611.0892,-249.7981 743.596,-249.7981 743.596,-291.0019"/>
<text text-anchor="middle" x="677.3426" y="-274.6" font-family="Times,serif" font-size="14.00" fill="#000000">GO:0065007</text>
<text text-anchor="middle" x="677.3426" y="-257.8" font-family="Times,serif" font-size="14.00" fill="#000000">biological regulation</text>
</g>
<!-- GO:0065007&#45;&gt;GO:0008150 -->
<g id="edge16" class="edge">
<title>GO:0065007&#45;&gt;GO:0008150</title>
<path fill="none" stroke="#000000" d="M610.9995,-289.6817C571.3345,-301.2098 520.9744,-315.8463 480.629,-327.5722"/>
<polygon fill="#000000" stroke="#000000" points="479.491,-324.258 470.8652,-330.4099 481.4446,-330.9799 479.491,-324.258"/>
</g>
</g>
</svg>
