<?xml version="1.0" encoding="UTF-8" standalone="no"?>
<!DOCTYPE svg PUBLIC "-//W3C//DTD SVG 1.1//EN"
 "http://www.w3.org/Graphics/SVG/1.1/DTD/svg11.dtd">
<!-- Generated by graphviz version 2.40.1 (20161225.0304)
 -->
<!-- Title: G Pages: 1 -->
<svg width="538pt" height="505pt"
 viewBox="0.00 0.00 537.68 504.80" xmlns="http://www.w3.org/2000/svg" xmlns:xlink="http://www.w3.org/1999/xlink">
<g id="graph0" class="graph" transform="scale(1 1) rotate(0) translate(4 500.8)">
<title>G</title>
<polygon fill="#ffffff" stroke="transparent" points="-4,4 -4,-500.8 533.6768,-500.8 533.6768,4 -4,4"/>
<!-- GO:0005789 -->
<g id="node1" class="node">
<title>GO:0005789</title>
<polygon fill="#ffffff" stroke="#000000" points="272.1407,-153.0014 128.3159,-153.0014 128.3159,-94.1986 272.1407,-94.1986 272.1407,-153.0014"/>
<text text-anchor="middle" x="200.2283" y="-136.2" font-family="Times,serif" font-size="14.00" fill="#000000">GO:0005789</text>
<text text-anchor="middle" x="200.2283" y="-119.4" font-family="Times,serif" font-size="14.00" fill="#000000">endoplasmic reticulum</text>
<text text-anchor="middle" x="200.2283" y="-102.6" font-family="Times,serif" font-size="14.00" fill="#000000">membrane</text>
</g>
<!-- GO:0044425 -->
<g id="node2" class="node">
<title>GO:0044425</title>
<polygon fill="#ffffff" stroke="#000000" points="138.5803,-238.6019 37.8763,-238.6019 37.8763,-197.3981 138.5803,-197.3981 138.5803,-238.6019"/>
<text text-anchor="middle" x="88.2283" y="-222.2" font-family="Times,serif" font-size="14.00" fill="#000000">GO:0044425</text>
<text text-anchor="middle" x="88.2283" y="-205.4" font-family="Times,serif" font-size="14.00" fill="#000000">membrane part</text>
</g>
<!-- GO:0005789&#45;&gt;GO:0044425 -->
<g id="edge1" class="edge">
<title>GO:0005789&#45;&gt;GO:0044425</title>
<path fill="none" stroke="#000000" d="M165.4047,-152.9513C151.126,-164.9862 134.6932,-178.8367 120.6705,-190.6559"/>
<polygon fill="#000000" stroke="#000000" points="118.1178,-188.23 112.7271,-197.351 122.6291,-193.5824 118.1178,-188.23"/>
</g>
<!-- GO:0016020 -->
<g id="node3" class="node">
<title>GO:0016020</title>
<polygon fill="#ffffff" stroke="#000000" points="205.8322,-333.0019 116.6244,-333.0019 116.6244,-291.7981 205.8322,-291.7981 205.8322,-333.0019"/>
<text text-anchor="middle" x="161.2283" y="-316.6" font-family="Times,serif" font-size="14.00" fill="#000000">GO:0016020</text>
<text text-anchor="middle" x="161.2283" y="-299.8" font-family="Times,serif" font-size="14.00" fill="#000000">membrane</text>
</g>
<!-- GO:0005789&#45;&gt;GO:0016020 -->
<g id="edge2" class="edge">
<title>GO:0005789&#45;&gt;GO:0016020</title>
<path fill="none" stroke="#000000" d="M194.1346,-153.1C186.9006,-188.1199 174.8957,-246.2356 167.5593,-281.7515"/>
<polygon fill="#000000" stroke="#000000" points="164.1277,-281.0631 165.5323,-291.5645 170.9829,-282.4793 164.1277,-281.0631"/>
</g>
<!-- GO:0044432 -->
<g id="node4" class="node">
<title>GO:0044432</title>
<polygon fill="#ffffff" stroke="#000000" points="347.1407,-247.4014 203.3159,-247.4014 203.3159,-188.5986 347.1407,-188.5986 347.1407,-247.4014"/>
<text text-anchor="middle" x="275.2283" y="-230.6" font-family="Times,serif" font-size="14.00" fill="#000000">GO:0044432</text>
<text text-anchor="middle" x="275.2283" y="-213.8" font-family="Times,serif" font-size="14.00" fill="#000000">endoplasmic reticulum</text>
<text text-anchor="middle" x="275.2283" y="-197" font-family="Times,serif" font-size="14.00" fill="#000000">part</text>
</g>
<!-- GO:0005789&#45;&gt;GO:0044432 -->
<g id="edge3" class="edge">
<title>GO:0005789&#45;&gt;GO:0044432</title>
<path fill="none" stroke="#000000" d="M223.5476,-152.9513C230.5319,-161.7422 238.2858,-171.5018 245.6182,-180.7308"/>
<polygon fill="#000000" stroke="#000000" points="242.9623,-183.0144 251.9234,-188.6669 248.4431,-178.6599 242.9623,-183.0144"/>
</g>
<!-- GO:0005575 -->
<g id="node5" class="node">
<title>GO:0005575</title>
<polygon fill="#ffffff" stroke="#000000" points="224.915,-496.6019 97.5416,-496.6019 97.5416,-455.3981 224.915,-455.3981 224.915,-496.6019"/>
<text text-anchor="middle" x="161.2283" y="-480.2" font-family="Times,serif" font-size="14.00" fill="#000000">GO:0005575</text>
<text text-anchor="middle" x="161.2283" y="-463.4" font-family="Times,serif" font-size="14.00" fill="#000000">cellular_component</text>
</g>
<!-- GO:0044425&#45;&gt;GO:0005575 -->
<g id="edge4" class="edge">
<title>GO:0044425&#45;&gt;GO:0005575</title>
<path fill="none" stroke="#000000" d="M89.9624,-238.8613C92.3615,-263.6818 97.5378,-306.2123 107.2283,-341.6 117.3431,-378.5371 134.5347,-419.0922 146.8031,-445.8879"/>
<polygon fill="#000000" stroke="#000000" points="143.6955,-447.5061 151.0781,-455.1053 150.0457,-444.5609 143.6955,-447.5061"/>
</g>
<!-- GO:0016020&#45;&gt;GO:0005575 -->
<g id="edge5" class="edge">
<title>GO:0016020&#45;&gt;GO:0005575</title>
<path fill="none" stroke="#000000" d="M161.2283,-333.1201C161.2283,-361.3159 161.2283,-412.0064 161.2283,-444.8099"/>
<polygon fill="#000000" stroke="#000000" points="157.7284,-445.1904 161.2283,-455.1904 164.7284,-445.1905 157.7284,-445.1904"/>
</g>
<!-- GO:0044446 -->
<g id="node6" class="node">
<title>GO:0044446</title>
<polygon fill="#ffffff" stroke="#000000" points="489.9467,-341.8014 350.5099,-341.8014 350.5099,-282.9986 489.9467,-282.9986 489.9467,-341.8014"/>
<text text-anchor="middle" x="420.2283" y="-325" font-family="Times,serif" font-size="14.00" fill="#000000">GO:0044446</text>
<text text-anchor="middle" x="420.2283" y="-308.2" font-family="Times,serif" font-size="14.00" fill="#000000">intracellular organelle</text>
<text text-anchor="middle" x="420.2283" y="-291.4" font-family="Times,serif" font-size="14.00" fill="#000000">part</text>
</g>
<!-- GO:0044432&#45;&gt;GO:0044446 -->
<g id="edge6" class="edge">
<title>GO:0044432&#45;&gt;GO:0044446</title>
<path fill="none" stroke="#000000" d="M320.3124,-247.3513C334.9065,-256.8525 351.2387,-267.4854 366.4015,-277.3569"/>
<polygon fill="#000000" stroke="#000000" points="364.882,-280.544 375.1721,-283.0669 368.7012,-274.6777 364.882,-280.544"/>
</g>
<!-- GO:0044444 -->
<g id="node7" class="node">
<title>GO:0044444</title>
<polygon fill="#ffffff" stroke="#000000" points="332.6449,-333.0019 223.8117,-333.0019 223.8117,-291.7981 332.6449,-291.7981 332.6449,-333.0019"/>
<text text-anchor="middle" x="278.2283" y="-316.6" font-family="Times,serif" font-size="14.00" fill="#000000">GO:0044444</text>
<text text-anchor="middle" x="278.2283" y="-299.8" font-family="Times,serif" font-size="14.00" fill="#000000">cytoplasmic part</text>
</g>
<!-- GO:0044432&#45;&gt;GO:0044444 -->
<g id="edge7" class="edge">
<title>GO:0044432&#45;&gt;GO:0044444</title>
<path fill="none" stroke="#000000" d="M276.1611,-247.3513C276.5078,-258.2614 276.9019,-270.6637 277.2524,-281.692"/>
<polygon fill="#000000" stroke="#000000" points="273.7561,-281.8672 277.5721,-291.751 280.7526,-281.6448 273.7561,-281.8672"/>
</g>
<!-- GO:0044424 -->
<g id="node8" class="node">
<title>GO:0044424</title>
<polygon fill="#ffffff" stroke="#000000" points="348.6267,-419.0019 239.8299,-419.0019 239.8299,-377.7981 348.6267,-377.7981 348.6267,-419.0019"/>
<text text-anchor="middle" x="294.2283" y="-402.6" font-family="Times,serif" font-size="14.00" fill="#000000">GO:0044424</text>
<text text-anchor="middle" x="294.2283" y="-385.8" font-family="Times,serif" font-size="14.00" fill="#000000">intracellular part</text>
</g>
<!-- GO:0044446&#45;&gt;GO:0044424 -->
<g id="edge8" class="edge">
<title>GO:0044446&#45;&gt;GO:0044424</title>
<path fill="none" stroke="#000000" d="M377.2187,-341.7558C362.9314,-351.5074 347.1139,-362.3035 333.1531,-371.8323"/>
<polygon fill="#000000" stroke="#000000" points="331.017,-369.0526 324.7306,-377.5809 334.9633,-374.8343 331.017,-369.0526"/>
</g>
<!-- GO:0044422 -->
<g id="node9" class="node">
<title>GO:0044422</title>
<polygon fill="#ffffff" stroke="#000000" points="463.0804,-419.0019 369.3762,-419.0019 369.3762,-377.7981 463.0804,-377.7981 463.0804,-419.0019"/>
<text text-anchor="middle" x="416.2283" y="-402.6" font-family="Times,serif" font-size="14.00" fill="#000000">GO:0044422</text>
<text text-anchor="middle" x="416.2283" y="-385.8" font-family="Times,serif" font-size="14.00" fill="#000000">organelle part</text>
</g>
<!-- GO:0044446&#45;&gt;GO:0044422 -->
<g id="edge9" class="edge">
<title>GO:0044446&#45;&gt;GO:0044422</title>
<path fill="none" stroke="#000000" d="M418.8517,-341.9963C418.4672,-350.2638 418.0485,-359.2657 417.6608,-367.6008"/>
<polygon fill="#000000" stroke="#000000" points="414.1597,-367.5447 417.1913,-377.6966 421.1522,-367.87 414.1597,-367.5447"/>
</g>
<!-- GO:0044444&#45;&gt;GO:0044424 -->
<g id="edge10" class="edge">
<title>GO:0044444&#45;&gt;GO:0044424</title>
<path fill="none" stroke="#000000" d="M282.1015,-333.2182C284.0275,-343.5705 286.3929,-356.2848 288.5217,-367.7271"/>
<polygon fill="#000000" stroke="#000000" points="285.1207,-368.5824 290.3908,-377.7735 292.0026,-367.302 285.1207,-368.5824"/>
</g>
<!-- GO:0044464 -->
<g id="node10" class="node">
<title>GO:0044464</title>
<polygon fill="#ffffff" stroke="#000000" points="338.8322,-496.6019 249.6244,-496.6019 249.6244,-455.3981 338.8322,-455.3981 338.8322,-496.6019"/>
<text text-anchor="middle" x="294.2283" y="-480.2" font-family="Times,serif" font-size="14.00" fill="#000000">GO:0044464</text>
<text text-anchor="middle" x="294.2283" y="-463.4" font-family="Times,serif" font-size="14.00" fill="#000000">cell part</text>
</g>
<!-- GO:0044424&#45;&gt;GO:0044464 -->
<g id="edge11" class="edge">
<title>GO:0044424&#45;&gt;GO:0044464</title>
<path fill="none" stroke="#000000" d="M294.2283,-419.1954C294.2283,-427.1109 294.2283,-436.3109 294.2283,-444.9722"/>
<polygon fill="#000000" stroke="#000000" points="290.7284,-445.1472 294.2283,-455.1472 297.7284,-445.1473 290.7284,-445.1472"/>
</g>
<!-- GO:0044422&#45;&gt;GO:0005575 -->
<g id="edge12" class="edge">
<title>GO:0044422&#45;&gt;GO:0005575</title>
<path fill="none" stroke="#000000" d="M369.2915,-415.2179C365.2212,-416.594 361.1581,-417.939 357.2283,-419.2 316.9719,-432.1176 271.656,-445.3347 234.7453,-455.765"/>
<polygon fill="#000000" stroke="#000000" points="233.7379,-452.4125 225.0611,-458.4923 235.6355,-459.1504 233.7379,-452.4125"/>
</g>
<!-- GO:0070469 -->
<g id="node11" class="node">
<title>GO:0070469</title>
<polygon fill="#ffffff" stroke="#000000" points="110.6858,-144.2019 -.2292,-144.2019 -.2292,-102.9981 110.6858,-102.9981 110.6858,-144.2019"/>
<text text-anchor="middle" x="55.2283" y="-127.8" font-family="Times,serif" font-size="14.00" fill="#000000">GO:0070469</text>
<text text-anchor="middle" x="55.2283" y="-111" font-family="Times,serif" font-size="14.00" fill="#000000">respiratory chain</text>
</g>
<!-- GO:0070469&#45;&gt;GO:0044425 -->
<g id="edge13" class="edge">
<title>GO:0070469&#45;&gt;GO:0044425</title>
<path fill="none" stroke="#000000" d="M62.5521,-144.5504C66.9526,-157.1387 72.63,-173.3795 77.5268,-187.3872"/>
<polygon fill="#000000" stroke="#000000" points="74.3211,-188.8233 80.925,-197.1081 80.9289,-186.5133 74.3211,-188.8233"/>
</g>
<!-- GO:0071782 -->
<g id="node12" class="node">
<title>GO:0071782</title>
<polygon fill="#ffffff" stroke="#000000" points="455.1407,-58.6014 311.3159,-58.6014 311.3159,.2014 455.1407,.2014 455.1407,-58.6014"/>
<text text-anchor="middle" x="383.2283" y="-41.8" font-family="Times,serif" font-size="14.00" fill="#000000">GO:0071782</text>
<text text-anchor="middle" x="383.2283" y="-25" font-family="Times,serif" font-size="14.00" fill="#000000">endoplasmic reticulum</text>
<text text-anchor="middle" x="383.2283" y="-8.2" font-family="Times,serif" font-size="14.00" fill="#000000">tubular network</text>
</g>
<!-- GO:0098827 -->
<g id="node13" class="node">
<title>GO:0098827</title>
<polygon fill="#ffffff" stroke="#000000" points="455.1407,-153.0014 311.3159,-153.0014 311.3159,-94.1986 455.1407,-94.1986 455.1407,-153.0014"/>
<text text-anchor="middle" x="383.2283" y="-136.2" font-family="Times,serif" font-size="14.00" fill="#000000">GO:0098827</text>
<text text-anchor="middle" x="383.2283" y="-119.4" font-family="Times,serif" font-size="14.00" fill="#000000">endoplasmic reticulum</text>
<text text-anchor="middle" x="383.2283" y="-102.6" font-family="Times,serif" font-size="14.00" fill="#000000">subcompartment</text>
</g>
<!-- GO:0071782&#45;&gt;GO:0098827 -->
<g id="edge14" class="edge">
<title>GO:0071782&#45;&gt;GO:0098827</title>
<path fill="none" stroke="#000000" d="M383.2283,-58.5513C383.2283,-66.6318 383.2283,-75.5308 383.2283,-84.0838"/>
<polygon fill="#000000" stroke="#000000" points="379.7284,-84.2668 383.2283,-94.2669 386.7284,-84.2669 379.7284,-84.2668"/>
</g>
<!-- GO:0098827&#45;&gt;GO:0044432 -->
<g id="edge15" class="edge">
<title>GO:0098827&#45;&gt;GO:0044432</title>
<path fill="none" stroke="#000000" d="M349.6484,-152.9513C339.1847,-162.0973 327.5214,-172.292 316.5901,-181.8467"/>
<polygon fill="#000000" stroke="#000000" points="314.0132,-179.4505 308.7874,-188.6669 318.62,-184.721 314.0132,-179.4505"/>
</g>
<!-- GO:0031984 -->
<g id="node14" class="node">
<title>GO:0031984</title>
<polygon fill="#ffffff" stroke="#000000" points="529.6253,-238.6019 364.8313,-238.6019 364.8313,-197.3981 529.6253,-197.3981 529.6253,-238.6019"/>
<text text-anchor="middle" x="447.2283" y="-222.2" font-family="Times,serif" font-size="14.00" fill="#000000">GO:0031984</text>
<text text-anchor="middle" x="447.2283" y="-205.4" font-family="Times,serif" font-size="14.00" fill="#000000">organelle subcompartment</text>
</g>
<!-- GO:0098827&#45;&gt;GO:0031984 -->
<g id="edge16" class="edge">
<title>GO:0098827&#45;&gt;GO:0031984</title>
<path fill="none" stroke="#000000" d="M403.1275,-152.9513C410.9055,-164.4238 419.802,-177.5462 427.5578,-188.9861"/>
<polygon fill="#000000" stroke="#000000" points="424.7204,-191.038 433.229,-197.351 430.5143,-187.1098 424.7204,-191.038"/>
</g>
<!-- GO:0031984&#45;&gt;GO:0044446 -->
<g id="edge17" class="edge">
<title>GO:0031984&#45;&gt;GO:0044446</title>
<path fill="none" stroke="#000000" d="M441.2361,-238.9504C438.3474,-249.0502 434.7862,-261.5012 431.4219,-273.2637"/>
<polygon fill="#000000" stroke="#000000" points="428.0463,-272.3386 428.6614,-282.9155 434.7764,-274.2635 428.0463,-272.3386"/>
</g>
</g>
</svg>
