<?xml version="1.0" encoding="UTF-8" standalone="no"?>
<!DOCTYPE svg PUBLIC "-//W3C//DTD SVG 1.1//EN"
 "http://www.w3.org/Graphics/SVG/1.1/DTD/svg11.dtd">
<!-- Generated by graphviz version 2.40.1 (20161225.0304)
 -->
<!-- Title: G Pages: 1 -->
<svg width="1300pt" height="710pt"
 viewBox="0.00 0.00 1299.85 710.40" xmlns="http://www.w3.org/2000/svg" xmlns:xlink="http://www.w3.org/1999/xlink">
<g id="graph0" class="graph" transform="scale(1 1) rotate(0) translate(4 706.4)">
<title>G</title>
<polygon fill="#ffffff" stroke="transparent" points="-4,4 -4,-706.4 1295.85,-706.4 1295.85,4 -4,4"/>
<!-- GO:0071941 -->
<g id="node1" class="node">
<title>GO:0071941</title>
<polygon fill="#ffffff" stroke="#000000" points="154.596,-436.2014 -.199,-436.2014 -.199,-377.3986 154.596,-377.3986 154.596,-436.2014"/>
<text text-anchor="middle" x="77.1985" y="-419.4" font-family="Times,serif" font-size="14.00" fill="#000000">GO:0071941</text>
<text text-anchor="middle" x="77.1985" y="-402.6" font-family="Times,serif" font-size="14.00" fill="#000000">nitrogen cycle metabolic</text>
<text text-anchor="middle" x="77.1985" y="-385.8" font-family="Times,serif" font-size="14.00" fill="#000000">process</text>
</g>
<!-- GO:0006807 -->
<g id="node2" class="node">
<title>GO:0006807</title>
<polygon fill="#ffffff" stroke="#000000" points="139.9604,-530.6014 14.4366,-530.6014 14.4366,-471.7986 139.9604,-471.7986 139.9604,-530.6014"/>
<text text-anchor="middle" x="77.1985" y="-513.8" font-family="Times,serif" font-size="14.00" fill="#000000">GO:0006807</text>
<text text-anchor="middle" x="77.1985" y="-497" font-family="Times,serif" font-size="14.00" fill="#000000">nitrogen compound</text>
<text text-anchor="middle" x="77.1985" y="-480.2" font-family="Times,serif" font-size="14.00" fill="#000000">metabolic process</text>
</g>
<!-- GO:0071941&#45;&gt;GO:0006807 -->
<g id="edge1" class="edge">
<title>GO:0071941&#45;&gt;GO:0006807</title>
<path fill="none" stroke="#000000" d="M77.1985,-436.1513C77.1985,-444.2318 77.1985,-453.1308 77.1985,-461.6838"/>
<polygon fill="#000000" stroke="#000000" points="73.6986,-461.8668 77.1985,-471.8669 80.6986,-461.8669 73.6986,-461.8668"/>
</g>
<!-- GO:0008152 -->
<g id="node3" class="node">
<title>GO:0008152</title>
<polygon fill="#ffffff" stroke="#000000" points="457.3841,-616.2019 341.0129,-616.2019 341.0129,-574.9981 457.3841,-574.9981 457.3841,-616.2019"/>
<text text-anchor="middle" x="399.1985" y="-599.8" font-family="Times,serif" font-size="14.00" fill="#000000">GO:0008152</text>
<text text-anchor="middle" x="399.1985" y="-583" font-family="Times,serif" font-size="14.00" fill="#000000">metabolic process</text>
</g>
<!-- GO:0006807&#45;&gt;GO:0008152 -->
<g id="edge2" class="edge">
<title>GO:0006807&#45;&gt;GO:0008152</title>
<path fill="none" stroke="#000000" d="M139.8478,-527.1676C142.9963,-528.2965 146.1257,-529.381 149.1985,-530.4 209.8674,-550.5186 280.457,-568.4417 331.1245,-580.3798"/>
<polygon fill="#000000" stroke="#000000" points="330.4491,-583.8162 340.9835,-582.6865 332.0439,-577.0003 330.4491,-583.8162"/>
</g>
<!-- GO:0008150 -->
<g id="node4" class="node">
<title>GO:0008150</title>
<polygon fill="#ffffff" stroke="#000000" points="620.6691,-702.2019 499.7279,-702.2019 499.7279,-660.9981 620.6691,-660.9981 620.6691,-702.2019"/>
<text text-anchor="middle" x="560.1985" y="-685.8" font-family="Times,serif" font-size="14.00" fill="#000000">GO:0008150</text>
<text text-anchor="middle" x="560.1985" y="-669" font-family="Times,serif" font-size="14.00" fill="#000000">biological_process</text>
</g>
<!-- GO:0008152&#45;&gt;GO:0008150 -->
<g id="edge3" class="edge">
<title>GO:0008152&#45;&gt;GO:0008150</title>
<path fill="none" stroke="#000000" d="M438.1721,-616.4182C460.6178,-628.4078 488.995,-643.5658 512.7345,-656.2466"/>
<polygon fill="#000000" stroke="#000000" points="511.1142,-659.3491 521.5838,-660.9735 514.4124,-653.1747 511.1142,-659.3491"/>
</g>
<!-- GO:0009987 -->
<g id="node5" class="node">
<title>GO:0009987</title>
<polygon fill="#ff00ff" stroke="#000000" points="617.1547,-521.8019 513.2423,-521.8019 513.2423,-480.5981 617.1547,-480.5981 617.1547,-521.8019"/>
<text text-anchor="middle" x="565.1985" y="-505.4" font-family="Times,serif" font-size="14.00" fill="#000000">GO:0009987</text>
<text text-anchor="middle" x="565.1985" y="-488.6" font-family="Times,serif" font-size="14.00" fill="#000000">cellular process</text>
</g>
<!-- GO:0009987&#45;&gt;GO:0008150 -->
<g id="edge4" class="edge">
<title>GO:0009987&#45;&gt;GO:0008150</title>
<path fill="none" stroke="#000000" d="M564.6249,-521.8942C563.7494,-553.482 562.0742,-613.9259 561.0545,-650.7168"/>
<polygon fill="#000000" stroke="#000000" points="557.5515,-650.7769 560.7731,-660.8701 564.5489,-650.9709 557.5515,-650.7769"/>
</g>
<!-- GO:0006464 -->
<g id="node6" class="node">
<title>GO:0006464</title>
<polygon fill="#ffffff" stroke="#000000" points="400.7203,-153.0014 267.6767,-153.0014 267.6767,-94.1986 400.7203,-94.1986 400.7203,-153.0014"/>
<text text-anchor="middle" x="334.1985" y="-136.2" font-family="Times,serif" font-size="14.00" fill="#000000">GO:0006464</text>
<text text-anchor="middle" x="334.1985" y="-119.4" font-family="Times,serif" font-size="14.00" fill="#000000">cellular protein</text>
<text text-anchor="middle" x="334.1985" y="-102.6" font-family="Times,serif" font-size="14.00" fill="#000000">modification process</text>
</g>
<!-- GO:0044267 -->
<g id="node7" class="node">
<title>GO:0044267</title>
<polygon fill="#ffffff" stroke="#000000" points="463.3841,-247.4014 347.0129,-247.4014 347.0129,-188.5986 463.3841,-188.5986 463.3841,-247.4014"/>
<text text-anchor="middle" x="405.1985" y="-230.6" font-family="Times,serif" font-size="14.00" fill="#000000">GO:0044267</text>
<text text-anchor="middle" x="405.1985" y="-213.8" font-family="Times,serif" font-size="14.00" fill="#000000">cellular protein</text>
<text text-anchor="middle" x="405.1985" y="-197" font-family="Times,serif" font-size="14.00" fill="#000000">metabolic process</text>
</g>
<!-- GO:0006464&#45;&gt;GO:0044267 -->
<g id="edge5" class="edge">
<title>GO:0006464&#45;&gt;GO:0044267</title>
<path fill="none" stroke="#000000" d="M356.2742,-152.9513C362.8191,-161.6534 370.0781,-171.3047 376.9572,-180.4509"/>
<polygon fill="#000000" stroke="#000000" points="374.3285,-182.7788 383.1365,-188.6669 379.9228,-178.5712 374.3285,-182.7788"/>
</g>
<!-- GO:0036211 -->
<g id="node8" class="node">
<title>GO:0036211</title>
<polygon fill="#ffffff" stroke="#000000" points="328.398,-247.4014 197.999,-247.4014 197.999,-188.5986 328.398,-188.5986 328.398,-247.4014"/>
<text text-anchor="middle" x="263.1985" y="-230.6" font-family="Times,serif" font-size="14.00" fill="#000000">GO:0036211</text>
<text text-anchor="middle" x="263.1985" y="-213.8" font-family="Times,serif" font-size="14.00" fill="#000000">protein modification</text>
<text text-anchor="middle" x="263.1985" y="-197" font-family="Times,serif" font-size="14.00" fill="#000000">process</text>
</g>
<!-- GO:0006464&#45;&gt;GO:0036211 -->
<g id="edge6" class="edge">
<title>GO:0006464&#45;&gt;GO:0036211</title>
<path fill="none" stroke="#000000" d="M312.1228,-152.9513C305.5779,-161.6534 298.3189,-171.3047 291.4398,-180.4509"/>
<polygon fill="#000000" stroke="#000000" points="288.4742,-178.5712 285.2605,-188.6669 294.0685,-182.7788 288.4742,-178.5712"/>
</g>
<!-- GO:0019538 -->
<g id="node9" class="node">
<title>GO:0019538</title>
<polygon fill="#ffffff" stroke="#000000" points="414.0402,-333.0019 254.3568,-333.0019 254.3568,-291.7981 414.0402,-291.7981 414.0402,-333.0019"/>
<text text-anchor="middle" x="334.1985" y="-316.6" font-family="Times,serif" font-size="14.00" fill="#000000">GO:0019538</text>
<text text-anchor="middle" x="334.1985" y="-299.8" font-family="Times,serif" font-size="14.00" fill="#000000">protein metabolic process</text>
</g>
<!-- GO:0044267&#45;&gt;GO:0019538 -->
<g id="edge7" class="edge">
<title>GO:0044267&#45;&gt;GO:0019538</title>
<path fill="none" stroke="#000000" d="M383.1228,-247.3513C374.4095,-258.9363 364.4309,-272.2037 355.7677,-283.722"/>
<polygon fill="#000000" stroke="#000000" points="352.9427,-281.6553 349.729,-291.751 358.537,-285.8629 352.9427,-281.6553"/>
</g>
<!-- GO:0044260 -->
<g id="node10" class="node">
<title>GO:0044260</title>
<polygon fill="#ffffff" stroke="#000000" points="579.9709,-341.8014 432.4261,-341.8014 432.4261,-282.9986 579.9709,-282.9986 579.9709,-341.8014"/>
<text text-anchor="middle" x="506.1985" y="-325" font-family="Times,serif" font-size="14.00" fill="#000000">GO:0044260</text>
<text text-anchor="middle" x="506.1985" y="-308.2" font-family="Times,serif" font-size="14.00" fill="#000000">cellular macromolecule</text>
<text text-anchor="middle" x="506.1985" y="-291.4" font-family="Times,serif" font-size="14.00" fill="#000000">metabolic process</text>
</g>
<!-- GO:0044267&#45;&gt;GO:0044260 -->
<g id="edge8" class="edge">
<title>GO:0044267&#45;&gt;GO:0044260</title>
<path fill="none" stroke="#000000" d="M436.6019,-247.3513C446.2924,-256.4086 457.0831,-266.4941 467.2196,-275.9683"/>
<polygon fill="#000000" stroke="#000000" points="465.1188,-278.7955 474.8145,-283.0669 469.8987,-273.6815 465.1188,-278.7955"/>
</g>
<!-- GO:0036211&#45;&gt;GO:0019538 -->
<g id="edge9" class="edge">
<title>GO:0036211&#45;&gt;GO:0019538</title>
<path fill="none" stroke="#000000" d="M285.2742,-247.3513C293.9875,-258.9363 303.9661,-272.2037 312.6293,-283.722"/>
<polygon fill="#000000" stroke="#000000" points="309.86,-285.8629 318.668,-291.751 315.4543,-281.6553 309.86,-285.8629"/>
</g>
<!-- GO:0043412 -->
<g id="node11" class="node">
<title>GO:0043412</title>
<polygon fill="#ffffff" stroke="#000000" points="236.4949,-341.8014 133.9021,-341.8014 133.9021,-282.9986 236.4949,-282.9986 236.4949,-341.8014"/>
<text text-anchor="middle" x="185.1985" y="-325" font-family="Times,serif" font-size="14.00" fill="#000000">GO:0043412</text>
<text text-anchor="middle" x="185.1985" y="-308.2" font-family="Times,serif" font-size="14.00" fill="#000000">macromolecule</text>
<text text-anchor="middle" x="185.1985" y="-291.4" font-family="Times,serif" font-size="14.00" fill="#000000">modification</text>
</g>
<!-- GO:0036211&#45;&gt;GO:0043412 -->
<g id="edge10" class="edge">
<title>GO:0036211&#45;&gt;GO:0043412</title>
<path fill="none" stroke="#000000" d="M238.9464,-247.3513C231.6827,-256.1422 223.6187,-265.9018 215.993,-275.1308"/>
<polygon fill="#000000" stroke="#000000" points="213.1072,-273.1285 209.4356,-283.0669 218.5034,-277.5873 213.1072,-273.1285"/>
</g>
<!-- GO:0044238 -->
<g id="node12" class="node">
<title>GO:0044238</title>
<polygon fill="#ffffff" stroke="#000000" points="322.2015,-521.8019 158.1955,-521.8019 158.1955,-480.5981 322.2015,-480.5981 322.2015,-521.8019"/>
<text text-anchor="middle" x="240.1985" y="-505.4" font-family="Times,serif" font-size="14.00" fill="#000000">GO:0044238</text>
<text text-anchor="middle" x="240.1985" y="-488.6" font-family="Times,serif" font-size="14.00" fill="#000000">primary metabolic process</text>
</g>
<!-- GO:0019538&#45;&gt;GO:0044238 -->
<g id="edge11" class="edge">
<title>GO:0019538&#45;&gt;GO:0044238</title>
<path fill="none" stroke="#000000" d="M300.8818,-333.2701C285.7305,-344.5258 269.0278,-359.7713 259.1985,-377.6 243.3528,-406.3414 239.5959,-444.2386 239.1761,-470.4561"/>
<polygon fill="#000000" stroke="#000000" points="235.6761,-470.5707 239.1697,-480.573 242.6761,-470.5752 235.6761,-470.5707"/>
</g>
<!-- GO:0043170 -->
<g id="node13" class="node">
<title>GO:0043170</title>
<polygon fill="#ffffff" stroke="#000000" points="429.7007,-436.2014 268.6963,-436.2014 268.6963,-377.3986 429.7007,-377.3986 429.7007,-436.2014"/>
<text text-anchor="middle" x="349.1985" y="-419.4" font-family="Times,serif" font-size="14.00" fill="#000000">GO:0043170</text>
<text text-anchor="middle" x="349.1985" y="-402.6" font-family="Times,serif" font-size="14.00" fill="#000000">macromolecule metabolic</text>
<text text-anchor="middle" x="349.1985" y="-385.8" font-family="Times,serif" font-size="14.00" fill="#000000">process</text>
</g>
<!-- GO:0019538&#45;&gt;GO:0043170 -->
<g id="edge12" class="edge">
<title>GO:0019538&#45;&gt;GO:0043170</title>
<path fill="none" stroke="#000000" d="M337.5275,-333.3504C339.1163,-343.3492 341.0712,-355.6525 342.9237,-367.3106"/>
<polygon fill="#000000" stroke="#000000" points="339.4875,-367.9887 344.5135,-377.3155 346.4007,-366.8901 339.4875,-367.9887"/>
</g>
<!-- GO:0044260&#45;&gt;GO:0043170 -->
<g id="edge14" class="edge">
<title>GO:0044260&#45;&gt;GO:0043170</title>
<path fill="none" stroke="#000000" d="M457.3833,-341.7513C441.2861,-351.4301 423.2359,-362.2833 406.5606,-372.3097"/>
<polygon fill="#000000" stroke="#000000" points="404.75,-369.3143 397.9835,-377.4669 408.3572,-375.3134 404.75,-369.3143"/>
</g>
<!-- GO:0044237 -->
<g id="node14" class="node">
<title>GO:0044237</title>
<polygon fill="#ffffff" stroke="#000000" points="564.3813,-436.2014 448.0157,-436.2014 448.0157,-377.3986 564.3813,-377.3986 564.3813,-436.2014"/>
<text text-anchor="middle" x="506.1985" y="-419.4" font-family="Times,serif" font-size="14.00" fill="#000000">GO:0044237</text>
<text text-anchor="middle" x="506.1985" y="-402.6" font-family="Times,serif" font-size="14.00" fill="#000000">cellular metabolic</text>
<text text-anchor="middle" x="506.1985" y="-385.8" font-family="Times,serif" font-size="14.00" fill="#000000">process</text>
</g>
<!-- GO:0044260&#45;&gt;GO:0044237 -->
<g id="edge13" class="edge">
<title>GO:0044260&#45;&gt;GO:0044237</title>
<path fill="none" stroke="#000000" d="M506.1985,-341.7513C506.1985,-349.8318 506.1985,-358.7308 506.1985,-367.2838"/>
<polygon fill="#000000" stroke="#000000" points="502.6986,-367.4668 506.1985,-377.4669 509.6986,-367.4669 502.6986,-367.4668"/>
</g>
<!-- GO:0043412&#45;&gt;GO:0043170 -->
<g id="edge15" class="edge">
<title>GO:0043412&#45;&gt;GO:0043170</title>
<path fill="none" stroke="#000000" d="M236.1901,-341.7513C253.0051,-351.4301 271.8601,-362.2833 289.2788,-372.3097"/>
<polygon fill="#000000" stroke="#000000" points="287.8255,-375.5115 298.2384,-377.4669 291.3177,-369.4448 287.8255,-375.5115"/>
</g>
<!-- GO:0044238&#45;&gt;GO:0008152 -->
<g id="edge16" class="edge">
<title>GO:0044238&#45;&gt;GO:0008152</title>
<path fill="none" stroke="#000000" d="M275.0917,-521.9165C298.8059,-535.9959 330.3495,-554.7236 355.7008,-569.775"/>
<polygon fill="#000000" stroke="#000000" points="354.0011,-572.8362 364.3867,-574.9318 357.5748,-566.8171 354.0011,-572.8362"/>
</g>
<!-- GO:0071704 -->
<g id="node15" class="node">
<title>GO:0071704</title>
<polygon fill="#ffffff" stroke="#000000" points="457.3841,-530.6014 341.0129,-530.6014 341.0129,-471.7986 457.3841,-471.7986 457.3841,-530.6014"/>
<text text-anchor="middle" x="399.1985" y="-513.8" font-family="Times,serif" font-size="14.00" fill="#000000">GO:0071704</text>
<text text-anchor="middle" x="399.1985" y="-497" font-family="Times,serif" font-size="14.00" fill="#000000">organic substance</text>
<text text-anchor="middle" x="399.1985" y="-480.2" font-family="Times,serif" font-size="14.00" fill="#000000">metabolic process</text>
</g>
<!-- GO:0043170&#45;&gt;GO:0071704 -->
<g id="edge17" class="edge">
<title>GO:0043170&#45;&gt;GO:0071704</title>
<path fill="none" stroke="#000000" d="M364.7447,-436.1513C369.2128,-444.587 374.1533,-453.9147 378.8646,-462.8096"/>
<polygon fill="#000000" stroke="#000000" points="375.8883,-464.6681 383.6619,-471.8669 382.0742,-461.3917 375.8883,-464.6681"/>
</g>
<!-- GO:0044237&#45;&gt;GO:0008152 -->
<g id="edge19" class="edge">
<title>GO:0044237&#45;&gt;GO:0008152</title>
<path fill="none" stroke="#000000" d="M500.8839,-436.2344C495.212,-462.4144 484.4709,-500.9943 466.1985,-530.4 457.5551,-544.3097 445.3172,-557.3831 433.6608,-568.1187"/>
<polygon fill="#000000" stroke="#000000" points="431.2724,-565.5589 426.1285,-574.8212 435.9257,-570.7883 431.2724,-565.5589"/>
</g>
<!-- GO:0044237&#45;&gt;GO:0009987 -->
<g id="edge18" class="edge">
<title>GO:0044237&#45;&gt;GO:0009987</title>
<path fill="none" stroke="#000000" d="M524.5431,-436.1513C531.6431,-447.5113 539.7542,-460.4891 546.8542,-471.8491"/>
<polygon fill="#000000" stroke="#000000" points="544.0248,-473.926 552.2929,-480.551 549.9608,-470.216 544.0248,-473.926"/>
</g>
<!-- GO:0071704&#45;&gt;GO:0008152 -->
<g id="edge20" class="edge">
<title>GO:0071704&#45;&gt;GO:0008152</title>
<path fill="none" stroke="#000000" d="M399.1985,-530.5513C399.1985,-541.4614 399.1985,-553.8637 399.1985,-564.892"/>
<polygon fill="#000000" stroke="#000000" points="395.6986,-564.9509 399.1985,-574.951 402.6986,-564.951 395.6986,-564.9509"/>
</g>
<!-- GO:0030255 -->
<g id="node16" class="node">
<title>GO:0030255</title>
<polygon fill="#ff00ff" stroke="#000000" points="942.4862,-58.6014 787.9108,-58.6014 787.9108,.2014 942.4862,.2014 942.4862,-58.6014"/>
<text text-anchor="middle" x="865.1985" y="-41.8" font-family="Times,serif" font-size="14.00" fill="#000000">GO:0030255</text>
<text text-anchor="middle" x="865.1985" y="-25" font-family="Times,serif" font-size="14.00" fill="#000000">protein secretion by the</text>
<text text-anchor="middle" x="865.1985" y="-8.2" font-family="Times,serif" font-size="14.00" fill="#000000">type IV secretion system</text>
</g>
<!-- GO:0009306 -->
<g id="node17" class="node">
<title>GO:0009306</title>
<polygon fill="#ffffff" stroke="#000000" points="1002.8855,-144.2019 893.5115,-144.2019 893.5115,-102.9981 1002.8855,-102.9981 1002.8855,-144.2019"/>
<text text-anchor="middle" x="948.1985" y="-127.8" font-family="Times,serif" font-size="14.00" fill="#000000">GO:0009306</text>
<text text-anchor="middle" x="948.1985" y="-111" font-family="Times,serif" font-size="14.00" fill="#000000">protein secretion</text>
</g>
<!-- GO:0030255&#45;&gt;GO:0009306 -->
<g id="edge21" class="edge">
<title>GO:0030255&#45;&gt;GO:0009306</title>
<path fill="none" stroke="#000000" d="M891.0052,-58.5513C901.2901,-70.2488 913.0831,-83.6615 923.2783,-95.257"/>
<polygon fill="#000000" stroke="#000000" points="920.8115,-97.7521 930.0431,-102.951 926.0685,-93.1299 920.8115,-97.7521"/>
</g>
<!-- GO:0044097 -->
<g id="node18" class="node">
<title>GO:0044097</title>
<polygon fill="#ffffff" stroke="#000000" points="816.2071,-153.0014 666.1899,-153.0014 666.1899,-94.1986 816.2071,-94.1986 816.2071,-153.0014"/>
<text text-anchor="middle" x="741.1985" y="-136.2" font-family="Times,serif" font-size="14.00" fill="#000000">GO:0044097</text>
<text text-anchor="middle" x="741.1985" y="-119.4" font-family="Times,serif" font-size="14.00" fill="#000000">secretion by the type IV</text>
<text text-anchor="middle" x="741.1985" y="-102.6" font-family="Times,serif" font-size="14.00" fill="#000000">secretion system</text>
</g>
<!-- GO:0030255&#45;&gt;GO:0044097 -->
<g id="edge22" class="edge">
<title>GO:0030255&#45;&gt;GO:0044097</title>
<path fill="none" stroke="#000000" d="M826.6438,-58.5513C814.3967,-67.8749 800.7181,-78.2883 787.9578,-88.0026"/>
<polygon fill="#000000" stroke="#000000" points="785.5659,-85.4246 779.7293,-94.2669 789.8061,-90.9943 785.5659,-85.4246"/>
</g>
<!-- GO:0071806 -->
<g id="node19" class="node">
<title>GO:0071806</title>
<polygon fill="#ffffff" stroke="#000000" points="949.1516,-247.4014 803.2454,-247.4014 803.2454,-188.5986 949.1516,-188.5986 949.1516,-247.4014"/>
<text text-anchor="middle" x="876.1985" y="-230.6" font-family="Times,serif" font-size="14.00" fill="#000000">GO:0071806</text>
<text text-anchor="middle" x="876.1985" y="-213.8" font-family="Times,serif" font-size="14.00" fill="#000000">protein transmembrane</text>
<text text-anchor="middle" x="876.1985" y="-197" font-family="Times,serif" font-size="14.00" fill="#000000">transport</text>
</g>
<!-- GO:0030255&#45;&gt;GO:0071806 -->
<g id="edge23" class="edge">
<title>GO:0030255&#45;&gt;GO:0071806</title>
<path fill="none" stroke="#000000" d="M866.9173,-58.7C868.7981,-90.9825 871.8225,-142.8912 873.9047,-178.6305"/>
<polygon fill="#000000" stroke="#000000" points="870.416,-178.9277 874.4918,-188.7072 877.4042,-178.5205 870.416,-178.9277"/>
</g>
<!-- GO:0015031 -->
<g id="node20" class="node">
<title>GO:0015031</title>
<polygon fill="#ffffff" stroke="#000000" points="1075.6165,-333.0019 966.7805,-333.0019 966.7805,-291.7981 1075.6165,-291.7981 1075.6165,-333.0019"/>
<text text-anchor="middle" x="1021.1985" y="-316.6" font-family="Times,serif" font-size="14.00" fill="#000000">GO:0015031</text>
<text text-anchor="middle" x="1021.1985" y="-299.8" font-family="Times,serif" font-size="14.00" fill="#000000">protein transport</text>
</g>
<!-- GO:0009306&#45;&gt;GO:0015031 -->
<g id="edge24" class="edge">
<title>GO:0009306&#45;&gt;GO:0015031</title>
<path fill="none" stroke="#000000" d="M956.2897,-144.5263C969.2048,-177.9286 994.5387,-243.4498 1009.4506,-282.0165"/>
<polygon fill="#000000" stroke="#000000" points="1006.3114,-283.6029 1013.1823,-291.6677 1012.8404,-281.0784 1006.3114,-283.6029"/>
</g>
<!-- GO:0032940 -->
<g id="node21" class="node">
<title>GO:0032940</title>
<polygon fill="#ffffff" stroke="#000000" points="784.9394,-238.6019 677.4576,-238.6019 677.4576,-197.3981 784.9394,-197.3981 784.9394,-238.6019"/>
<text text-anchor="middle" x="731.1985" y="-222.2" font-family="Times,serif" font-size="14.00" fill="#000000">GO:0032940</text>
<text text-anchor="middle" x="731.1985" y="-205.4" font-family="Times,serif" font-size="14.00" fill="#000000">secretion by cell</text>
</g>
<!-- GO:0009306&#45;&gt;GO:0032940 -->
<g id="edge25" class="edge">
<title>GO:0009306&#45;&gt;GO:0032940</title>
<path fill="none" stroke="#000000" d="M898.0797,-144.3199C867.8773,-156.9299 828.7039,-173.5043 794.1985,-188.8 791.0162,-190.2107 787.7503,-191.6746 784.4601,-193.1618"/>
<polygon fill="#000000" stroke="#000000" points="782.8237,-190.0611 775.1727,-197.39 785.7241,-196.432 782.8237,-190.0611"/>
</g>
<!-- GO:0044097&#45;&gt;GO:0032940 -->
<g id="edge26" class="edge">
<title>GO:0044097&#45;&gt;GO:0032940</title>
<path fill="none" stroke="#000000" d="M738.0893,-152.9513C736.9335,-163.8614 735.6197,-176.2637 734.4515,-187.292"/>
<polygon fill="#000000" stroke="#000000" points="730.9589,-187.0379 733.3859,-197.351 737.9199,-187.7754 730.9589,-187.0379"/>
</g>
<!-- GO:0071806&#45;&gt;GO:0015031 -->
<g id="edge27" class="edge">
<title>GO:0071806&#45;&gt;GO:0015031</title>
<path fill="none" stroke="#000000" d="M921.2826,-247.3513C940.3731,-259.7799 962.4378,-274.1448 980.9687,-286.209"/>
<polygon fill="#000000" stroke="#000000" points="979.1912,-289.2281 989.4813,-291.751 983.0104,-283.3618 979.1912,-289.2281"/>
</g>
<!-- GO:0055085 -->
<g id="node22" class="node">
<title>GO:0055085</title>
<polygon fill="#ffffff" stroke="#000000" points="948.7567,-333.0019 793.6403,-333.0019 793.6403,-291.7981 948.7567,-291.7981 948.7567,-333.0019"/>
<text text-anchor="middle" x="871.1985" y="-316.6" font-family="Times,serif" font-size="14.00" fill="#000000">GO:0055085</text>
<text text-anchor="middle" x="871.1985" y="-299.8" font-family="Times,serif" font-size="14.00" fill="#000000">transmembrane transport</text>
</g>
<!-- GO:0071806&#45;&gt;GO:0055085 -->
<g id="edge28" class="edge">
<title>GO:0071806&#45;&gt;GO:0055085</title>
<path fill="none" stroke="#000000" d="M874.6439,-247.3513C874.066,-258.2614 873.4091,-270.6637 872.825,-281.692"/>
<polygon fill="#000000" stroke="#000000" points="869.3261,-281.5798 872.2922,-291.751 876.3163,-281.9501 869.3261,-281.5798"/>
</g>
<!-- GO:0045184 -->
<g id="node23" class="node">
<title>GO:0045184</title>
<polygon fill="#ffffff" stroke="#000000" points="1292.0018,-530.6014 1140.3952,-530.6014 1140.3952,-471.7986 1292.0018,-471.7986 1292.0018,-530.6014"/>
<text text-anchor="middle" x="1216.1985" y="-513.8" font-family="Times,serif" font-size="14.00" fill="#000000">GO:0045184</text>
<text text-anchor="middle" x="1216.1985" y="-497" font-family="Times,serif" font-size="14.00" fill="#000000">establishment of protein</text>
<text text-anchor="middle" x="1216.1985" y="-480.2" font-family="Times,serif" font-size="14.00" fill="#000000">localization</text>
</g>
<!-- GO:0015031&#45;&gt;GO:0045184 -->
<g id="edge29" class="edge">
<title>GO:0015031&#45;&gt;GO:0045184</title>
<path fill="none" stroke="#000000" d="M1075.7531,-318.0413C1115.5586,-325.1562 1167.5386,-341.241 1197.1985,-377.6 1216.2193,-400.9168 1220.2133,-435.2162 1219.8764,-461.7711"/>
<polygon fill="#000000" stroke="#000000" points="1216.3742,-461.7815 1219.5383,-471.8928 1223.3703,-462.0153 1216.3742,-461.7815"/>
</g>
<!-- GO:0008104 -->
<g id="node24" class="node">
<title>GO:0008104</title>
<polygon fill="#ffffff" stroke="#000000" points="1054.6672,-427.4019 929.7298,-427.4019 929.7298,-386.1981 1054.6672,-386.1981 1054.6672,-427.4019"/>
<text text-anchor="middle" x="992.1985" y="-411" font-family="Times,serif" font-size="14.00" fill="#000000">GO:0008104</text>
<text text-anchor="middle" x="992.1985" y="-394.2" font-family="Times,serif" font-size="14.00" fill="#000000">protein localization</text>
</g>
<!-- GO:0015031&#45;&gt;GO:0008104 -->
<g id="edge30" class="edge">
<title>GO:0015031&#45;&gt;GO:0008104</title>
<path fill="none" stroke="#000000" d="M1014.7625,-333.3504C1010.8953,-345.9387 1005.9061,-362.1795 1001.6029,-376.1872"/>
<polygon fill="#000000" stroke="#000000" points="998.2075,-375.3212 998.6165,-385.9081 1004.8989,-377.3769 998.2075,-375.3212"/>
</g>
<!-- GO:0071702 -->
<g id="node25" class="node">
<title>GO:0071702</title>
<polygon fill="#ffffff" stroke="#000000" points="1188.1025,-436.2014 1072.2945,-436.2014 1072.2945,-377.3986 1188.1025,-377.3986 1188.1025,-436.2014"/>
<text text-anchor="middle" x="1130.1985" y="-419.4" font-family="Times,serif" font-size="14.00" fill="#000000">GO:0071702</text>
<text text-anchor="middle" x="1130.1985" y="-402.6" font-family="Times,serif" font-size="14.00" fill="#000000">organic substance</text>
<text text-anchor="middle" x="1130.1985" y="-385.8" font-family="Times,serif" font-size="14.00" fill="#000000">transport</text>
</g>
<!-- GO:0015031&#45;&gt;GO:0071702 -->
<g id="edge31" class="edge">
<title>GO:0015031&#45;&gt;GO:0071702</title>
<path fill="none" stroke="#000000" d="M1045.119,-333.1165C1057.9268,-344.2087 1074.0658,-358.186 1088.836,-370.9778"/>
<polygon fill="#000000" stroke="#000000" points="1086.5596,-373.6365 1096.4102,-377.5374 1091.1423,-368.345 1086.5596,-373.6365"/>
</g>
<!-- GO:0046903 -->
<g id="node26" class="node">
<title>GO:0046903</title>
<polygon fill="#ffffff" stroke="#000000" points="775.8024,-333.0019 686.5946,-333.0019 686.5946,-291.7981 775.8024,-291.7981 775.8024,-333.0019"/>
<text text-anchor="middle" x="731.1985" y="-316.6" font-family="Times,serif" font-size="14.00" fill="#000000">GO:0046903</text>
<text text-anchor="middle" x="731.1985" y="-299.8" font-family="Times,serif" font-size="14.00" fill="#000000">secretion</text>
</g>
<!-- GO:0032940&#45;&gt;GO:0046903 -->
<g id="edge32" class="edge">
<title>GO:0032940&#45;&gt;GO:0046903</title>
<path fill="none" stroke="#000000" d="M731.1985,-238.9504C731.1985,-251.4165 731.1985,-267.4645 731.1985,-281.3786"/>
<polygon fill="#000000" stroke="#000000" points="727.6986,-281.5081 731.1985,-291.5081 734.6986,-281.5082 727.6986,-281.5081"/>
</g>
<!-- GO:0044763 -->
<g id="node27" class="node">
<title>GO:0044763</title>
<polygon fill="#ffffff" stroke="#000000" points="733.877,-436.2014 582.52,-436.2014 582.52,-377.3986 733.877,-377.3986 733.877,-436.2014"/>
<text text-anchor="middle" x="658.1985" y="-419.4" font-family="Times,serif" font-size="14.00" fill="#000000">GO:0044763</text>
<text text-anchor="middle" x="658.1985" y="-402.6" font-family="Times,serif" font-size="14.00" fill="#000000">single&#45;organism cellular</text>
<text text-anchor="middle" x="658.1985" y="-385.8" font-family="Times,serif" font-size="14.00" fill="#000000">process</text>
</g>
<!-- GO:0032940&#45;&gt;GO:0044763 -->
<g id="edge33" class="edge">
<title>GO:0032940&#45;&gt;GO:0044763</title>
<path fill="none" stroke="#000000" d="M708.8888,-238.8672C697.568,-250.758 684.6652,-266.5747 677.1985,-283.2 665.2908,-309.7135 660.6413,-342.2982 658.9151,-367.3534"/>
<polygon fill="#000000" stroke="#000000" points="655.4065,-367.4106 658.3417,-377.5908 662.3956,-367.8022 655.4065,-367.4106"/>
</g>
<!-- GO:0055085&#45;&gt;GO:0044763 -->
<g id="edge35" class="edge">
<title>GO:0055085&#45;&gt;GO:0044763</title>
<path fill="none" stroke="#000000" d="M824.4547,-333.1165C797.8195,-344.921 763.8113,-359.9932 733.501,-373.4265"/>
<polygon fill="#000000" stroke="#000000" points="731.9495,-370.2857 724.2253,-377.5374 734.7858,-376.6854 731.9495,-370.2857"/>
</g>
<!-- GO:0044765 -->
<g id="node28" class="node">
<title>GO:0044765</title>
<polygon fill="#ffffff" stroke="#000000" points="912.1628,-427.4019 752.2342,-427.4019 752.2342,-386.1981 912.1628,-386.1981 912.1628,-427.4019"/>
<text text-anchor="middle" x="832.1985" y="-411" font-family="Times,serif" font-size="14.00" fill="#000000">GO:0044765</text>
<text text-anchor="middle" x="832.1985" y="-394.2" font-family="Times,serif" font-size="14.00" fill="#000000">single&#45;organism transport</text>
</g>
<!-- GO:0055085&#45;&gt;GO:0044765 -->
<g id="edge34" class="edge">
<title>GO:0055085&#45;&gt;GO:0044765</title>
<path fill="none" stroke="#000000" d="M862.5431,-333.3504C857.292,-346.0609 850.5024,-362.4952 844.6774,-376.5945"/>
<polygon fill="#000000" stroke="#000000" points="841.4132,-375.3294 840.8297,-385.9081 847.8829,-378.0023 841.4132,-375.3294"/>
</g>
<!-- GO:0051234 -->
<g id="node29" class="node">
<title>GO:0051234</title>
<polygon fill="#ffffff" stroke="#000000" points="1141.3452,-625.0014 1033.0518,-625.0014 1033.0518,-566.1986 1141.3452,-566.1986 1141.3452,-625.0014"/>
<text text-anchor="middle" x="1087.1985" y="-608.2" font-family="Times,serif" font-size="14.00" fill="#000000">GO:0051234</text>
<text text-anchor="middle" x="1087.1985" y="-591.4" font-family="Times,serif" font-size="14.00" fill="#000000">establishment of</text>
<text text-anchor="middle" x="1087.1985" y="-574.6" font-family="Times,serif" font-size="14.00" fill="#000000">localization</text>
</g>
<!-- GO:0045184&#45;&gt;GO:0051234 -->
<g id="edge36" class="edge">
<title>GO:0045184&#45;&gt;GO:0051234</title>
<path fill="none" stroke="#000000" d="M1176.0892,-530.5513C1163.2269,-539.9637 1148.8469,-550.4867 1135.4642,-560.28"/>
<polygon fill="#000000" stroke="#000000" points="1133.2861,-557.5368 1127.283,-566.2669 1137.4199,-563.1858 1133.2861,-557.5368"/>
</g>
<!-- GO:0033036 -->
<g id="node30" class="node">
<title>GO:0033036</title>
<polygon fill="#ffffff" stroke="#000000" points="1015.4949,-625.0014 912.9021,-625.0014 912.9021,-566.1986 1015.4949,-566.1986 1015.4949,-625.0014"/>
<text text-anchor="middle" x="964.1985" y="-608.2" font-family="Times,serif" font-size="14.00" fill="#000000">GO:0033036</text>
<text text-anchor="middle" x="964.1985" y="-591.4" font-family="Times,serif" font-size="14.00" fill="#000000">macromolecule</text>
<text text-anchor="middle" x="964.1985" y="-574.6" font-family="Times,serif" font-size="14.00" fill="#000000">localization</text>
</g>
<!-- GO:0008104&#45;&gt;GO:0033036 -->
<g id="edge37" class="edge">
<title>GO:0008104&#45;&gt;GO:0033036</title>
<path fill="none" stroke="#000000" d="M989.095,-427.7263C984.5073,-458.6609 975.8339,-517.1439 970.0341,-556.2512"/>
<polygon fill="#000000" stroke="#000000" points="966.558,-555.8323 968.5531,-566.2376 973.4823,-556.8593 966.558,-555.8323"/>
</g>
<!-- GO:0006810 -->
<g id="node31" class="node">
<title>GO:0006810</title>
<polygon fill="#ffffff" stroke="#000000" points="1122.8024,-521.8019 1033.5946,-521.8019 1033.5946,-480.5981 1122.8024,-480.5981 1122.8024,-521.8019"/>
<text text-anchor="middle" x="1078.1985" y="-505.4" font-family="Times,serif" font-size="14.00" fill="#000000">GO:0006810</text>
<text text-anchor="middle" x="1078.1985" y="-488.6" font-family="Times,serif" font-size="14.00" fill="#000000">transport</text>
</g>
<!-- GO:0071702&#45;&gt;GO:0006810 -->
<g id="edge38" class="edge">
<title>GO:0071702&#45;&gt;GO:0006810</title>
<path fill="none" stroke="#000000" d="M1114.0304,-436.1513C1107.8347,-447.3989 1100.7655,-460.2323 1094.5525,-471.5112"/>
<polygon fill="#000000" stroke="#000000" points="1091.3322,-470.1032 1089.573,-480.551 1097.4636,-473.4807 1091.3322,-470.1032"/>
</g>
<!-- GO:0046903&#45;&gt;GO:0044765 -->
<g id="edge39" class="edge">
<title>GO:0046903&#45;&gt;GO:0044765</title>
<path fill="none" stroke="#000000" d="M753.6137,-333.3504C767.9974,-346.7942 786.8382,-364.4039 802.4659,-379.0103"/>
<polygon fill="#000000" stroke="#000000" points="800.1503,-381.6368 809.846,-385.9081 804.9301,-376.5228 800.1503,-381.6368"/>
</g>
<!-- GO:0044763&#45;&gt;GO:0009987 -->
<g id="edge40" class="edge">
<title>GO:0044763&#45;&gt;GO:0009987</title>
<path fill="none" stroke="#000000" d="M629.2825,-436.1513C617.6477,-447.9612 604.2905,-461.5196 592.7921,-473.191"/>
<polygon fill="#000000" stroke="#000000" points="590.0661,-470.9709 585.5413,-480.551 595.0527,-475.8836 590.0661,-470.9709"/>
</g>
<!-- GO:0044699 -->
<g id="node32" class="node">
<title>GO:0044699</title>
<polygon fill="#ffffff" stroke="#000000" points="739.8798,-616.2019 588.5172,-616.2019 588.5172,-574.9981 739.8798,-574.9981 739.8798,-616.2019"/>
<text text-anchor="middle" x="664.1985" y="-599.8" font-family="Times,serif" font-size="14.00" fill="#000000">GO:0044699</text>
<text text-anchor="middle" x="664.1985" y="-583" font-family="Times,serif" font-size="14.00" fill="#000000">single&#45;organism process</text>
</g>
<!-- GO:0044763&#45;&gt;GO:0044699 -->
<g id="edge41" class="edge">
<title>GO:0044763&#45;&gt;GO:0044699</title>
<path fill="none" stroke="#000000" d="M659.136,-436.3C660.2441,-471.1696 662.08,-528.9372 663.2099,-564.4929"/>
<polygon fill="#000000" stroke="#000000" points="659.7204,-564.8807 663.5364,-574.7645 666.7169,-564.6583 659.7204,-564.8807"/>
</g>
<!-- GO:0044765&#45;&gt;GO:0006810 -->
<g id="edge42" class="edge">
<title>GO:0044765&#45;&gt;GO:0006810</title>
<path fill="none" stroke="#000000" d="M886.1842,-427.5165C927.0365,-443.1931 982.9064,-464.6326 1023.8477,-480.3434"/>
<polygon fill="#000000" stroke="#000000" points="1022.801,-483.6906 1033.3911,-484.0056 1025.3089,-477.1552 1022.801,-483.6906"/>
</g>
<!-- GO:1902578 -->
<g id="node33" class="node">
<title>GO:1902578</title>
<polygon fill="#ffffff" stroke="#000000" points="885.4007,-530.6014 778.9963,-530.6014 778.9963,-471.7986 885.4007,-471.7986 885.4007,-530.6014"/>
<text text-anchor="middle" x="832.1985" y="-513.8" font-family="Times,serif" font-size="14.00" fill="#000000">GO:1902578</text>
<text text-anchor="middle" x="832.1985" y="-497" font-family="Times,serif" font-size="14.00" fill="#000000">single&#45;organism</text>
<text text-anchor="middle" x="832.1985" y="-480.2" font-family="Times,serif" font-size="14.00" fill="#000000">localization</text>
</g>
<!-- GO:0044765&#45;&gt;GO:1902578 -->
<g id="edge43" class="edge">
<title>GO:0044765&#45;&gt;GO:1902578</title>
<path fill="none" stroke="#000000" d="M832.1985,-427.7504C832.1985,-437.7492 832.1985,-450.0525 832.1985,-461.7106"/>
<polygon fill="#000000" stroke="#000000" points="828.6986,-461.7155 832.1985,-471.7155 835.6986,-461.7156 828.6986,-461.7155"/>
</g>
<!-- GO:0051179 -->
<g id="node34" class="node">
<title>GO:0051179</title>
<polygon fill="#ffffff" stroke="#000000" points="1008.8024,-702.2019 919.5946,-702.2019 919.5946,-660.9981 1008.8024,-660.9981 1008.8024,-702.2019"/>
<text text-anchor="middle" x="964.1985" y="-685.8" font-family="Times,serif" font-size="14.00" fill="#000000">GO:0051179</text>
<text text-anchor="middle" x="964.1985" y="-669" font-family="Times,serif" font-size="14.00" fill="#000000">localization</text>
</g>
<!-- GO:0051234&#45;&gt;GO:0051179 -->
<g id="edge44" class="edge">
<title>GO:0051234&#45;&gt;GO:0051179</title>
<path fill="none" stroke="#000000" d="M1045.2129,-624.9558C1031.2658,-634.7074 1015.8249,-645.5035 1002.1965,-655.0323"/>
<polygon fill="#000000" stroke="#000000" points="1000.1645,-652.1823 993.9746,-660.7809 1004.1756,-657.9192 1000.1645,-652.1823"/>
</g>
<!-- GO:0033036&#45;&gt;GO:0051179 -->
<g id="edge45" class="edge">
<title>GO:0033036&#45;&gt;GO:0051179</title>
<path fill="none" stroke="#000000" d="M964.1985,-625.1963C964.1985,-633.4638 964.1985,-642.4657 964.1985,-650.8008"/>
<polygon fill="#000000" stroke="#000000" points="960.6986,-650.8965 964.1985,-660.8966 967.6986,-650.8966 960.6986,-650.8965"/>
</g>
<!-- GO:0006810&#45;&gt;GO:0051234 -->
<g id="edge46" class="edge">
<title>GO:0006810&#45;&gt;GO:0051234</title>
<path fill="none" stroke="#000000" d="M1080.1959,-522.1504C1081.1492,-532.1492 1082.3221,-544.4525 1083.4336,-556.1106"/>
<polygon fill="#000000" stroke="#000000" points="1079.9541,-556.4929 1084.3875,-566.1155 1086.9225,-555.8284 1079.9541,-556.4929"/>
</g>
<!-- GO:0044699&#45;&gt;GO:0008150 -->
<g id="edge47" class="edge">
<title>GO:0044699&#45;&gt;GO:0008150</title>
<path fill="none" stroke="#000000" d="M639.023,-616.4182C625.2265,-627.8268 607.9609,-642.1042 593.1081,-654.3863"/>
<polygon fill="#000000" stroke="#000000" points="590.6182,-651.9036 585.1422,-660.9735 595.0791,-657.2981 590.6182,-651.9036"/>
</g>
<!-- GO:1902578&#45;&gt;GO:0044699 -->
<g id="edge49" class="edge">
<title>GO:1902578&#45;&gt;GO:0044699</title>
<path fill="none" stroke="#000000" d="M779.9632,-530.5513C757.5443,-543.1486 731.5852,-557.7351 709.9375,-569.8991"/>
<polygon fill="#000000" stroke="#000000" points="707.9502,-567.001 700.9467,-574.951 711.3793,-573.1036 707.9502,-567.001"/>
</g>
<!-- GO:1902578&#45;&gt;GO:0051179 -->
<g id="edge48" class="edge">
<title>GO:1902578&#45;&gt;GO:0051179</title>
<path fill="none" stroke="#000000" d="M846.1965,-530.4083C859.3532,-556.4378 880.5229,-594.9241 904.1985,-624.8 912.3529,-635.0899 922.3464,-645.2828 931.8215,-654.1326"/>
<polygon fill="#000000" stroke="#000000" points="929.5163,-656.7672 939.2642,-660.9182 934.2325,-651.5944 929.5163,-656.7672"/>
</g>
</g>
</svg>
