<?xml version="1.0" encoding="UTF-8" standalone="no"?>
<!DOCTYPE svg PUBLIC "-//W3C//DTD SVG 1.1//EN"
 "http://www.w3.org/Graphics/SVG/1.1/DTD/svg11.dtd">
<!-- Generated by graphviz version 2.40.1 (20161225.0304)
 -->
<!-- Title: G Pages: 1 -->
<svg width="312pt" height="222pt"
 viewBox="0.00 0.00 311.93 221.60" xmlns="http://www.w3.org/2000/svg" xmlns:xlink="http://www.w3.org/1999/xlink">
<g id="graph0" class="graph" transform="scale(1 1) rotate(0) translate(4 217.6)">
<title>G</title>
<polygon fill="#ffffff" stroke="transparent" points="-4,4 -4,-217.6 307.9268,-217.6 307.9268,4 -4,4"/>
<!-- GO:0043684 -->
<g id="node1" class="node">
<title>GO:0043684</title>
<polygon fill="#ffffff" stroke="#000000" points="236.6212,-58.6014 82.0458,-58.6014 82.0458,.2014 236.6212,.2014 236.6212,-58.6014"/>
<text text-anchor="middle" x="159.3335" y="-41.8" font-family="Times,serif" font-size="14.00" fill="#000000">GO:0043684</text>
<text text-anchor="middle" x="159.3335" y="-25" font-family="Times,serif" font-size="14.00" fill="#000000">type IV secretion system</text>
<text text-anchor="middle" x="159.3335" y="-8.2" font-family="Times,serif" font-size="14.00" fill="#000000">complex</text>
</g>
<!-- GO:0043234 -->
<g id="node2" class="node">
<title>GO:0043234</title>
<polygon fill="#ffffff" stroke="#000000" points="155.2009,-135.8019 47.4661,-135.8019 47.4661,-94.5981 155.2009,-94.5981 155.2009,-135.8019"/>
<text text-anchor="middle" x="101.3335" y="-119.4" font-family="Times,serif" font-size="14.00" fill="#000000">GO:0043234</text>
<text text-anchor="middle" x="101.3335" y="-102.6" font-family="Times,serif" font-size="14.00" fill="#000000">protein complex</text>
</g>
<!-- GO:0043684&#45;&gt;GO:0043234 -->
<g id="edge1" class="edge">
<title>GO:0043684&#45;&gt;GO:0043234</title>
<path fill="none" stroke="#000000" d="M139.3732,-58.7963C133.4258,-67.6149 126.9147,-77.2692 120.987,-86.0586"/>
<polygon fill="#000000" stroke="#000000" points="117.986,-84.2488 115.2963,-94.4966 123.7895,-88.1628 117.986,-84.2488"/>
</g>
<!-- GO:0044464 -->
<g id="node3" class="node">
<title>GO:0044464</title>
<polygon fill="#ffffff" stroke="#000000" points="272.9374,-135.8019 183.7296,-135.8019 183.7296,-94.5981 272.9374,-94.5981 272.9374,-135.8019"/>
<text text-anchor="middle" x="228.3335" y="-119.4" font-family="Times,serif" font-size="14.00" fill="#000000">GO:0044464</text>
<text text-anchor="middle" x="228.3335" y="-102.6" font-family="Times,serif" font-size="14.00" fill="#000000">cell part</text>
</g>
<!-- GO:0043684&#45;&gt;GO:0044464 -->
<g id="edge2" class="edge">
<title>GO:0043684&#45;&gt;GO:0044464</title>
<path fill="none" stroke="#000000" d="M183.0794,-58.7963C190.3022,-67.7986 198.2237,-77.6719 205.3924,-86.6067"/>
<polygon fill="#000000" stroke="#000000" points="202.7346,-88.887 211.7226,-94.4966 208.1945,-84.5064 202.7346,-88.887"/>
</g>
<!-- GO:0032991 -->
<g id="node4" class="node">
<title>GO:0032991</title>
<polygon fill="#ffffff" stroke="#000000" points="158.5008,-213.4019 .1662,-213.4019 .1662,-172.1981 158.5008,-172.1981 158.5008,-213.4019"/>
<text text-anchor="middle" x="79.3335" y="-197" font-family="Times,serif" font-size="14.00" fill="#000000">GO:0032991</text>
<text text-anchor="middle" x="79.3335" y="-180.2" font-family="Times,serif" font-size="14.00" fill="#000000">macromolecular complex</text>
</g>
<!-- GO:0043234&#45;&gt;GO:0032991 -->
<g id="edge3" class="edge">
<title>GO:0043234&#45;&gt;GO:0032991</title>
<path fill="none" stroke="#000000" d="M95.4379,-135.9954C93.1692,-143.9978 90.5282,-153.3133 88.0492,-162.0575"/>
<polygon fill="#000000" stroke="#000000" points="84.6057,-161.3717 85.2454,-171.9472 91.3403,-163.2811 84.6057,-161.3717"/>
</g>
<!-- GO:0005575 -->
<g id="node5" class="node">
<title>GO:0005575</title>
<polygon fill="#ffffff" stroke="#000000" points="304.0202,-213.4019 176.6468,-213.4019 176.6468,-172.1981 304.0202,-172.1981 304.0202,-213.4019"/>
<text text-anchor="middle" x="240.3335" y="-197" font-family="Times,serif" font-size="14.00" fill="#000000">GO:0005575</text>
<text text-anchor="middle" x="240.3335" y="-180.2" font-family="Times,serif" font-size="14.00" fill="#000000">cellular_component</text>
</g>
<!-- GO:0044464&#45;&gt;GO:0005575 -->
<g id="edge4" class="edge">
<title>GO:0044464&#45;&gt;GO:0005575</title>
<path fill="none" stroke="#000000" d="M231.5493,-135.9954C232.7868,-143.9978 234.2273,-153.3133 235.5795,-162.0575"/>
<polygon fill="#000000" stroke="#000000" points="232.1216,-162.5996 237.1088,-171.9472 239.0394,-161.5298 232.1216,-162.5996"/>
</g>
</g>
</svg>
