<?xml version="1.0" encoding="UTF-8" standalone="no"?>
<!DOCTYPE svg PUBLIC "-//W3C//DTD SVG 1.1//EN"
 "http://www.w3.org/Graphics/SVG/1.1/DTD/svg11.dtd">
<!-- Generated by graphviz version 2.40.1 (20161225.0304)
 -->
<!-- Title: G Pages: 1 -->
<svg width="535pt" height="471pt"
 viewBox="0.00 0.00 534.53 471.20" xmlns="http://www.w3.org/2000/svg" xmlns:xlink="http://www.w3.org/1999/xlink">
<g id="graph0" class="graph" transform="scale(1 1) rotate(0) translate(4 467.2)">
<title>G</title>
<polygon fill="#ffffff" stroke="transparent" points="-4,4 -4,-467.2 530.5323,-467.2 530.5323,4 -4,4"/>
<!-- GO:0043231 -->
<g id="node1" class="node">
<title>GO:0043231</title>
<polygon fill="#ff0000" stroke="#000000" points="461.9307,-136.2014 311.1731,-136.2014 311.1731,-77.3986 461.9307,-77.3986 461.9307,-136.2014"/>
<text text-anchor="middle" x="386.5519" y="-119.4" font-family="Times,serif" font-size="14.00" fill="#000000">GO:0043231</text>
<text text-anchor="middle" x="386.5519" y="-102.6" font-family="Times,serif" font-size="14.00" fill="#000000">intracellular membrane&#45;</text>
<text text-anchor="middle" x="386.5519" y="-85.8" font-family="Times,serif" font-size="14.00" fill="#000000">bounded organelle</text>
</g>
<!-- GO:0043229 -->
<g id="node2" class="node">
<title>GO:0043229</title>
<polygon fill="#ffffff" stroke="#000000" points="380.2703,-221.8019 240.8335,-221.8019 240.8335,-180.5981 380.2703,-180.5981 380.2703,-221.8019"/>
<text text-anchor="middle" x="310.5519" y="-205.4" font-family="Times,serif" font-size="14.00" fill="#000000">GO:0043229</text>
<text text-anchor="middle" x="310.5519" y="-188.6" font-family="Times,serif" font-size="14.00" fill="#000000">intracellular organelle</text>
</g>
<!-- GO:0043231&#45;&gt;GO:0043229 -->
<g id="edge1" class="edge">
<title>GO:0043231&#45;&gt;GO:0043229</title>
<path fill="none" stroke="#000000" d="M362.9216,-136.1513C353.5947,-147.7363 342.9133,-161.0037 333.6401,-172.522"/>
<polygon fill="#000000" stroke="#000000" points="330.7209,-170.5667 327.1761,-180.551 336.1735,-174.9565 330.7209,-170.5667"/>
</g>
<!-- GO:0043227 -->
<g id="node3" class="node">
<title>GO:0043227</title>
<polygon fill="#ffffff" stroke="#000000" points="526.5127,-230.6014 398.5911,-230.6014 398.5911,-171.7986 526.5127,-171.7986 526.5127,-230.6014"/>
<text text-anchor="middle" x="462.5519" y="-213.8" font-family="Times,serif" font-size="14.00" fill="#000000">GO:0043227</text>
<text text-anchor="middle" x="462.5519" y="-197" font-family="Times,serif" font-size="14.00" fill="#000000">membrane&#45;bounded</text>
<text text-anchor="middle" x="462.5519" y="-180.2" font-family="Times,serif" font-size="14.00" fill="#000000">organelle</text>
</g>
<!-- GO:0043231&#45;&gt;GO:0043227 -->
<g id="edge2" class="edge">
<title>GO:0043231&#45;&gt;GO:0043227</title>
<path fill="none" stroke="#000000" d="M410.1822,-136.1513C417.2596,-144.9422 425.1169,-154.7018 432.547,-163.9308"/>
<polygon fill="#000000" stroke="#000000" points="429.9389,-166.2724 438.9362,-171.8669 435.3914,-161.8826 429.9389,-166.2724"/>
</g>
<!-- GO:0044424 -->
<g id="node4" class="node">
<title>GO:0044424</title>
<polygon fill="#ff0000" stroke="#000000" points="302.9503,-307.8019 194.1535,-307.8019 194.1535,-266.5981 302.9503,-266.5981 302.9503,-307.8019"/>
<text text-anchor="middle" x="248.5519" y="-291.4" font-family="Times,serif" font-size="14.00" fill="#000000">GO:0044424</text>
<text text-anchor="middle" x="248.5519" y="-274.6" font-family="Times,serif" font-size="14.00" fill="#000000">intracellular part</text>
</g>
<!-- GO:0043229&#45;&gt;GO:0044424 -->
<g id="edge3" class="edge">
<title>GO:0043229&#45;&gt;GO:0044424</title>
<path fill="none" stroke="#000000" d="M295.5434,-222.0182C287.6994,-232.8987 277.9742,-246.3884 269.4098,-258.2681"/>
<polygon fill="#000000" stroke="#000000" points="266.4311,-256.4149 263.4222,-266.5735 272.1093,-260.5086 266.4311,-256.4149"/>
</g>
<!-- GO:0043226 -->
<g id="node5" class="node">
<title>GO:0043226</title>
<polygon fill="#ffffff" stroke="#000000" points="410.1558,-307.8019 320.948,-307.8019 320.948,-266.5981 410.1558,-266.5981 410.1558,-307.8019"/>
<text text-anchor="middle" x="365.5519" y="-291.4" font-family="Times,serif" font-size="14.00" fill="#000000">GO:0043226</text>
<text text-anchor="middle" x="365.5519" y="-274.6" font-family="Times,serif" font-size="14.00" fill="#000000">organelle</text>
</g>
<!-- GO:0043229&#45;&gt;GO:0043226 -->
<g id="edge4" class="edge">
<title>GO:0043229&#45;&gt;GO:0043226</title>
<path fill="none" stroke="#000000" d="M323.8659,-222.0182C330.7567,-232.793 339.2841,-246.1267 346.8274,-257.9216"/>
<polygon fill="#000000" stroke="#000000" points="344.0242,-260.0347 352.3605,-266.5735 349.9213,-256.2633 344.0242,-260.0347"/>
</g>
<!-- GO:0043227&#45;&gt;GO:0043226 -->
<g id="edge5" class="edge">
<title>GO:0043227&#45;&gt;GO:0043226</title>
<path fill="none" stroke="#000000" d="M429.4413,-230.5558C418.8574,-239.9394 407.1828,-250.2902 396.7405,-259.5483"/>
<polygon fill="#000000" stroke="#000000" points="394.1946,-257.1279 389.0339,-266.3809 398.8384,-262.3658 394.1946,-257.1279"/>
</g>
<!-- GO:0044464 -->
<g id="node6" class="node">
<title>GO:0044464</title>
<polygon fill="#ffffff" stroke="#000000" points="307.1558,-385.4019 217.948,-385.4019 217.948,-344.1981 307.1558,-344.1981 307.1558,-385.4019"/>
<text text-anchor="middle" x="262.5519" y="-369" font-family="Times,serif" font-size="14.00" fill="#000000">GO:0044464</text>
<text text-anchor="middle" x="262.5519" y="-352.2" font-family="Times,serif" font-size="14.00" fill="#000000">cell part</text>
</g>
<!-- GO:0044424&#45;&gt;GO:0044464 -->
<g id="edge6" class="edge">
<title>GO:0044424&#45;&gt;GO:0044464</title>
<path fill="none" stroke="#000000" d="M252.3036,-307.9954C253.7474,-315.9978 255.428,-325.3133 257.0056,-334.0575"/>
<polygon fill="#000000" stroke="#000000" points="253.5699,-334.7275 258.7898,-343.9472 260.4587,-333.4847 253.5699,-334.7275"/>
</g>
<!-- GO:0005575 -->
<g id="node7" class="node">
<title>GO:0005575</title>
<polygon fill="#ffffff" stroke="#000000" points="271.2386,-463.0019 143.8652,-463.0019 143.8652,-421.7981 271.2386,-421.7981 271.2386,-463.0019"/>
<text text-anchor="middle" x="207.5519" y="-446.6" font-family="Times,serif" font-size="14.00" fill="#000000">GO:0005575</text>
<text text-anchor="middle" x="207.5519" y="-429.8" font-family="Times,serif" font-size="14.00" fill="#000000">cellular_component</text>
</g>
<!-- GO:0043226&#45;&gt;GO:0005575 -->
<g id="edge7" class="edge">
<title>GO:0043226&#45;&gt;GO:0005575</title>
<path fill="none" stroke="#000000" d="M359.4787,-307.9349C352.2512,-329.5799 338.3452,-363.4028 316.5519,-385.6 304.0549,-398.3286 288.0971,-408.8009 272.2711,-417.1332"/>
<polygon fill="#000000" stroke="#000000" points="270.3602,-414.1762 262.9954,-421.7927 273.5024,-420.4314 270.3602,-414.1762"/>
</g>
<!-- GO:0044464&#45;&gt;GO:0005575 -->
<g id="edge13" class="edge">
<title>GO:0044464&#45;&gt;GO:0005575</title>
<path fill="none" stroke="#000000" d="M247.8129,-385.5954C241.7712,-394.1197 234.6735,-404.1339 228.134,-413.3605"/>
<polygon fill="#000000" stroke="#000000" points="225.2586,-411.3647 222.3316,-421.5472 230.9696,-415.4125 225.2586,-411.3647"/>
</g>
<!-- GO:0005634 -->
<g id="node8" class="node">
<title>GO:0005634</title>
<polygon fill="#ffa500" stroke="#000000" points="431.1558,-41.4019 341.948,-41.4019 341.948,-.1981 431.1558,-.1981 431.1558,-41.4019"/>
<text text-anchor="middle" x="386.5519" y="-25" font-family="Times,serif" font-size="14.00" fill="#000000">GO:0005634</text>
<text text-anchor="middle" x="386.5519" y="-8.2" font-family="Times,serif" font-size="14.00" fill="#000000">nucleus</text>
</g>
<!-- GO:0005634&#45;&gt;GO:0043231 -->
<g id="edge8" class="edge">
<title>GO:0005634&#45;&gt;GO:0043231</title>
<path fill="none" stroke="#000000" d="M386.5519,-41.6182C386.5519,-49.3358 386.5519,-58.3662 386.5519,-67.2036"/>
<polygon fill="#000000" stroke="#000000" points="383.052,-67.3991 386.5519,-77.3991 390.052,-67.3992 383.052,-67.3991"/>
</g>
<!-- GO:0016020 -->
<g id="node9" class="node">
<title>GO:0016020</title>
<polygon fill="#ff00ff" stroke="#000000" points="89.1558,-385.4019 -.052,-385.4019 -.052,-344.1981 89.1558,-344.1981 89.1558,-385.4019"/>
<text text-anchor="middle" x="44.5519" y="-369" font-family="Times,serif" font-size="14.00" fill="#000000">GO:0016020</text>
<text text-anchor="middle" x="44.5519" y="-352.2" font-family="Times,serif" font-size="14.00" fill="#000000">membrane</text>
</g>
<!-- GO:0016020&#45;&gt;GO:0005575 -->
<g id="edge9" class="edge">
<title>GO:0016020&#45;&gt;GO:0005575</title>
<path fill="none" stroke="#000000" d="M88.2329,-385.5954C108.6872,-395.3331 133.2251,-407.015 154.7158,-417.2461"/>
<polygon fill="#000000" stroke="#000000" points="153.4997,-420.5435 164.0332,-421.6819 156.5086,-414.2232 153.4997,-420.5435"/>
</g>
<!-- GO:0044446 -->
<g id="node10" class="node">
<title>GO:0044446</title>
<polygon fill="#ff00ff" stroke="#000000" points="223.2703,-230.6014 83.8335,-230.6014 83.8335,-171.7986 223.2703,-171.7986 223.2703,-230.6014"/>
<text text-anchor="middle" x="153.5519" y="-213.8" font-family="Times,serif" font-size="14.00" fill="#000000">GO:0044446</text>
<text text-anchor="middle" x="153.5519" y="-197" font-family="Times,serif" font-size="14.00" fill="#000000">intracellular organelle</text>
<text text-anchor="middle" x="153.5519" y="-180.2" font-family="Times,serif" font-size="14.00" fill="#000000">part</text>
</g>
<!-- GO:0044446&#45;&gt;GO:0044424 -->
<g id="edge10" class="edge">
<title>GO:0044446&#45;&gt;GO:0044424</title>
<path fill="none" stroke="#000000" d="M185.9798,-230.5558C196.3454,-239.9394 207.7794,-250.2902 218.0064,-259.5483"/>
<polygon fill="#000000" stroke="#000000" points="215.7916,-262.2645 225.5541,-266.3809 220.4895,-257.075 215.7916,-262.2645"/>
</g>
<!-- GO:0044422 -->
<g id="node11" class="node">
<title>GO:0044422</title>
<polygon fill="#ffffff" stroke="#000000" points="200.404,-385.4019 106.6998,-385.4019 106.6998,-344.1981 200.404,-344.1981 200.404,-385.4019"/>
<text text-anchor="middle" x="153.5519" y="-369" font-family="Times,serif" font-size="14.00" fill="#000000">GO:0044422</text>
<text text-anchor="middle" x="153.5519" y="-352.2" font-family="Times,serif" font-size="14.00" fill="#000000">organelle part</text>
</g>
<!-- GO:0044446&#45;&gt;GO:0044422 -->
<g id="edge11" class="edge">
<title>GO:0044446&#45;&gt;GO:0044422</title>
<path fill="none" stroke="#000000" d="M153.5519,-230.4484C153.5519,-259.5891 153.5519,-304.1603 153.5519,-333.8759"/>
<polygon fill="#000000" stroke="#000000" points="150.052,-334.0955 153.5519,-344.0955 157.052,-334.0955 150.052,-334.0955"/>
</g>
<!-- GO:0044422&#45;&gt;GO:0005575 -->
<g id="edge12" class="edge">
<title>GO:0044422&#45;&gt;GO:0005575</title>
<path fill="none" stroke="#000000" d="M168.0229,-385.5954C173.8943,-394.0328 180.7813,-403.9297 187.1473,-413.0778"/>
<polygon fill="#000000" stroke="#000000" points="184.4561,-415.3382 193.0409,-421.5472 190.2019,-411.3398 184.4561,-415.3382"/>
</g>
</g>
</svg>
