<?xml version="1.0" encoding="UTF-8" standalone="no"?>
<!DOCTYPE svg PUBLIC "-//W3C//DTD SVG 1.1//EN"
 "http://www.w3.org/Graphics/SVG/1.1/DTD/svg11.dtd">
<!-- Generated by graphviz version 2.40.1 (20161225.0304)
 -->
<!-- Title: G Pages: 1 -->
<svg width="934pt" height="505pt"
 viewBox="0.00 0.00 933.60 504.80" xmlns="http://www.w3.org/2000/svg" xmlns:xlink="http://www.w3.org/1999/xlink">
<g id="graph0" class="graph" transform="scale(1 1) rotate(0) translate(4 500.8)">
<title>G</title>
<polygon fill="#ffffff" stroke="transparent" points="-4,4 -4,-500.8 929.6,-500.8 929.6,4 -4,4"/>
<!-- GO:0009987 -->
<g id="node1" class="node">
<title>GO:0009987</title>
<polygon fill="#ffff00" stroke="#000000" points="755.7157,-410.6019 651.8033,-410.6019 651.8033,-369.3981 755.7157,-369.3981 755.7157,-410.6019"/>
<text text-anchor="middle" x="703.7595" y="-394.2" font-family="Times,serif" font-size="14.00" fill="#000000">GO:0009987</text>
<text text-anchor="middle" x="703.7595" y="-377.4" font-family="Times,serif" font-size="14.00" fill="#000000">cellular process</text>
</g>
<!-- GO:0008150 -->
<g id="node2" class="node">
<title>GO:0008150</title>
<polygon fill="#ffffff" stroke="#000000" points="628.2301,-496.6019 507.2889,-496.6019 507.2889,-455.3981 628.2301,-455.3981 628.2301,-496.6019"/>
<text text-anchor="middle" x="567.7595" y="-480.2" font-family="Times,serif" font-size="14.00" fill="#000000">GO:0008150</text>
<text text-anchor="middle" x="567.7595" y="-463.4" font-family="Times,serif" font-size="14.00" fill="#000000">biological_process</text>
</g>
<!-- GO:0009987&#45;&gt;GO:0008150 -->
<g id="edge1" class="edge">
<title>GO:0009987&#45;&gt;GO:0008150</title>
<path fill="none" stroke="#000000" d="M670.8377,-410.8182C652.2115,-422.5966 628.7498,-437.4326 608.917,-449.9739"/>
<polygon fill="#000000" stroke="#000000" points="606.9595,-447.0707 600.3781,-455.3735 610.7007,-452.987 606.9595,-447.0707"/>
</g>
<!-- GO:0016192 -->
<g id="node3" class="node">
<title>GO:0016192</title>
<polygon fill="#ff00ff" stroke="#000000" points="127.1054,-136.2014 16.4136,-136.2014 16.4136,-77.3986 127.1054,-77.3986 127.1054,-136.2014"/>
<text text-anchor="middle" x="71.7595" y="-119.4" font-family="Times,serif" font-size="14.00" fill="#000000">GO:0016192</text>
<text text-anchor="middle" x="71.7595" y="-102.6" font-family="Times,serif" font-size="14.00" fill="#000000">vesicle&#45;mediated</text>
<text text-anchor="middle" x="71.7595" y="-85.8" font-family="Times,serif" font-size="14.00" fill="#000000">transport</text>
</g>
<!-- GO:0006810 -->
<g id="node4" class="node">
<title>GO:0006810</title>
<polygon fill="#00ff00" stroke="#000000" points="126.3634,-221.8019 37.1556,-221.8019 37.1556,-180.5981 126.3634,-180.5981 126.3634,-221.8019"/>
<text text-anchor="middle" x="81.7595" y="-205.4" font-family="Times,serif" font-size="14.00" fill="#000000">GO:0006810</text>
<text text-anchor="middle" x="81.7595" y="-188.6" font-family="Times,serif" font-size="14.00" fill="#000000">transport</text>
</g>
<!-- GO:0016192&#45;&gt;GO:0006810 -->
<g id="edge2" class="edge">
<title>GO:0016192&#45;&gt;GO:0006810</title>
<path fill="none" stroke="#000000" d="M74.8687,-136.1513C76.0245,-147.0614 77.3383,-159.4637 78.5065,-170.492"/>
<polygon fill="#000000" stroke="#000000" points="75.0381,-170.9754 79.5721,-180.551 81.9991,-170.2379 75.0381,-170.9754"/>
</g>
<!-- GO:0051234 -->
<g id="node5" class="node">
<title>GO:0051234</title>
<polygon fill="#00ff00" stroke="#000000" points="257.9062,-325.0014 149.6128,-325.0014 149.6128,-266.1986 257.9062,-266.1986 257.9062,-325.0014"/>
<text text-anchor="middle" x="203.7595" y="-308.2" font-family="Times,serif" font-size="14.00" fill="#000000">GO:0051234</text>
<text text-anchor="middle" x="203.7595" y="-291.4" font-family="Times,serif" font-size="14.00" fill="#000000">establishment of</text>
<text text-anchor="middle" x="203.7595" y="-274.6" font-family="Times,serif" font-size="14.00" fill="#000000">localization</text>
</g>
<!-- GO:0006810&#45;&gt;GO:0051234 -->
<g id="edge3" class="edge">
<title>GO:0006810&#45;&gt;GO:0051234</title>
<path fill="none" stroke="#000000" d="M108.5329,-221.9165C122.9997,-233.1105 141.2639,-247.2427 157.9185,-260.1296"/>
<polygon fill="#000000" stroke="#000000" points="155.8906,-262.9859 165.9413,-266.3374 160.1744,-257.4496 155.8906,-262.9859"/>
</g>
<!-- GO:0051179 -->
<g id="node6" class="node">
<title>GO:0051179</title>
<polygon fill="#00ff00" stroke="#000000" points="318.3634,-410.6019 229.1556,-410.6019 229.1556,-369.3981 318.3634,-369.3981 318.3634,-410.6019"/>
<text text-anchor="middle" x="273.7595" y="-394.2" font-family="Times,serif" font-size="14.00" fill="#000000">GO:0051179</text>
<text text-anchor="middle" x="273.7595" y="-377.4" font-family="Times,serif" font-size="14.00" fill="#000000">localization</text>
</g>
<!-- GO:0051234&#45;&gt;GO:0051179 -->
<g id="edge4" class="edge">
<title>GO:0051234&#45;&gt;GO:0051179</title>
<path fill="none" stroke="#000000" d="M225.5242,-324.9513C234.0314,-336.4238 243.762,-349.5462 252.2449,-360.9861"/>
<polygon fill="#000000" stroke="#000000" points="249.6799,-363.4031 258.4477,-369.351 255.3027,-359.2337 249.6799,-363.4031"/>
</g>
<!-- GO:0051179&#45;&gt;GO:0008150 -->
<g id="edge5" class="edge">
<title>GO:0051179&#45;&gt;GO:0008150</title>
<path fill="none" stroke="#000000" d="M308.1783,-410.7104C314.2367,-413.846 320.583,-416.822 326.7595,-419.2 382.3985,-440.6213 448.4885,-455.5036 497.374,-464.6445"/>
<polygon fill="#000000" stroke="#000000" points="496.756,-468.0895 507.2236,-466.4523 498.0198,-461.2045 496.756,-468.0895"/>
</g>
<!-- GO:0046907 -->
<g id="node7" class="node">
<title>GO:0046907</title>
<polygon fill="#ff00ff" stroke="#000000" points="282.1537,-127.4019 145.3653,-127.4019 145.3653,-86.1981 282.1537,-86.1981 282.1537,-127.4019"/>
<text text-anchor="middle" x="213.7595" y="-111" font-family="Times,serif" font-size="14.00" fill="#000000">GO:0046907</text>
<text text-anchor="middle" x="213.7595" y="-94.2" font-family="Times,serif" font-size="14.00" fill="#000000">intracellular transport</text>
</g>
<!-- GO:0046907&#45;&gt;GO:0006810 -->
<g id="edge6" class="edge">
<title>GO:0046907&#45;&gt;GO:0006810</title>
<path fill="none" stroke="#000000" d="M184.7915,-127.5165C165.4481,-141.3499 139.83,-159.6708 118.9783,-174.5829"/>
<polygon fill="#000000" stroke="#000000" points="116.7579,-171.8679 110.6599,-180.5318 120.8299,-177.5617 116.7579,-171.8679"/>
</g>
<!-- GO:0051649 -->
<g id="node8" class="node">
<title>GO:0051649</title>
<polygon fill="#ff00ff" stroke="#000000" points="263.6726,-230.6014 143.8464,-230.6014 143.8464,-171.7986 263.6726,-171.7986 263.6726,-230.6014"/>
<text text-anchor="middle" x="203.7595" y="-213.8" font-family="Times,serif" font-size="14.00" fill="#000000">GO:0051649</text>
<text text-anchor="middle" x="203.7595" y="-197" font-family="Times,serif" font-size="14.00" fill="#000000">establishment of</text>
<text text-anchor="middle" x="203.7595" y="-180.2" font-family="Times,serif" font-size="14.00" fill="#000000">localization in cell</text>
</g>
<!-- GO:0046907&#45;&gt;GO:0051649 -->
<g id="edge7" class="edge">
<title>GO:0046907&#45;&gt;GO:0051649</title>
<path fill="none" stroke="#000000" d="M211.5402,-127.7504C210.481,-137.7492 209.1777,-150.0525 207.9427,-161.7106"/>
<polygon fill="#000000" stroke="#000000" points="204.4558,-161.4024 206.8829,-171.7155 211.4169,-162.1399 204.4558,-161.4024"/>
</g>
<!-- GO:0051641 -->
<g id="node9" class="node">
<title>GO:0051641</title>
<polygon fill="#ff00ff" stroke="#000000" points="408.0473,-221.8019 281.4717,-221.8019 281.4717,-180.5981 408.0473,-180.5981 408.0473,-221.8019"/>
<text text-anchor="middle" x="344.7595" y="-205.4" font-family="Times,serif" font-size="14.00" fill="#000000">GO:0051641</text>
<text text-anchor="middle" x="344.7595" y="-188.6" font-family="Times,serif" font-size="14.00" fill="#000000">cellular localization</text>
</g>
<!-- GO:0046907&#45;&gt;GO:0051641 -->
<g id="edge8" class="edge">
<title>GO:0046907&#45;&gt;GO:0051641</title>
<path fill="none" stroke="#000000" d="M242.508,-127.5165C261.7049,-141.3499 287.1289,-159.6708 307.8227,-174.5829"/>
<polygon fill="#000000" stroke="#000000" points="305.9188,-177.525 316.0781,-180.5318 310.0113,-171.8459 305.9188,-177.525"/>
</g>
<!-- GO:0051649&#45;&gt;GO:0051234 -->
<g id="edge9" class="edge">
<title>GO:0051649&#45;&gt;GO:0051234</title>
<path fill="none" stroke="#000000" d="M203.7595,-230.5513C203.7595,-238.6318 203.7595,-247.5308 203.7595,-256.0838"/>
<polygon fill="#000000" stroke="#000000" points="200.2596,-256.2668 203.7595,-266.2669 207.2596,-256.2669 200.2596,-256.2668"/>
</g>
<!-- GO:0051641&#45;&gt;GO:0051179 -->
<g id="edge10" class="edge">
<title>GO:0051641&#45;&gt;GO:0051179</title>
<path fill="none" stroke="#000000" d="M336.89,-222.1263C324.3287,-255.5286 299.6889,-321.0498 285.1855,-359.6165"/>
<polygon fill="#000000" stroke="#000000" points="281.8,-358.6757 281.5561,-369.2677 288.3521,-361.1397 281.8,-358.6757"/>
</g>
<!-- GO:0048193 -->
<g id="node10" class="node">
<title>GO:0048193</title>
<polygon fill="#ff00ff" stroke="#000000" points="143.2793,-41.4019 .2397,-41.4019 .2397,-.1981 143.2793,-.1981 143.2793,-41.4019"/>
<text text-anchor="middle" x="71.7595" y="-25" font-family="Times,serif" font-size="14.00" fill="#000000">GO:0048193</text>
<text text-anchor="middle" x="71.7595" y="-8.2" font-family="Times,serif" font-size="14.00" fill="#000000">Golgi vesicle transport</text>
</g>
<!-- GO:0048193&#45;&gt;GO:0016192 -->
<g id="edge11" class="edge">
<title>GO:0048193&#45;&gt;GO:0016192</title>
<path fill="none" stroke="#000000" d="M71.7595,-41.6182C71.7595,-49.3358 71.7595,-58.3662 71.7595,-67.2036"/>
<polygon fill="#000000" stroke="#000000" points="68.2596,-67.3991 71.7595,-77.3991 75.2596,-67.3992 68.2596,-67.3991"/>
</g>
<!-- GO:0050789 -->
<g id="node11" class="node">
<title>GO:0050789</title>
<polygon fill="#ff00ff" stroke="#000000" points="483.6739,-419.4014 335.8451,-419.4014 335.8451,-360.5986 483.6739,-360.5986 483.6739,-419.4014"/>
<text text-anchor="middle" x="409.7595" y="-402.6" font-family="Times,serif" font-size="14.00" fill="#000000">GO:0050789</text>
<text text-anchor="middle" x="409.7595" y="-385.8" font-family="Times,serif" font-size="14.00" fill="#000000">regulation of biological</text>
<text text-anchor="middle" x="409.7595" y="-369" font-family="Times,serif" font-size="14.00" fill="#000000">process</text>
</g>
<!-- GO:0050789&#45;&gt;GO:0008150 -->
<g id="edge12" class="edge">
<title>GO:0050789&#45;&gt;GO:0008150</title>
<path fill="none" stroke="#000000" d="M463.6922,-419.3558C482.115,-429.3834 502.5669,-440.5154 520.4298,-450.2383"/>
<polygon fill="#000000" stroke="#000000" points="519.054,-453.4743 529.5105,-455.1809 522.4006,-447.326 519.054,-453.4743"/>
</g>
<!-- GO:0065007 -->
<g id="node12" class="node">
<title>GO:0065007</title>
<polygon fill="#ff00ff" stroke="#000000" points="634.0129,-410.6019 501.5061,-410.6019 501.5061,-369.3981 634.0129,-369.3981 634.0129,-410.6019"/>
<text text-anchor="middle" x="567.7595" y="-394.2" font-family="Times,serif" font-size="14.00" fill="#000000">GO:0065007</text>
<text text-anchor="middle" x="567.7595" y="-377.4" font-family="Times,serif" font-size="14.00" fill="#000000">biological regulation</text>
</g>
<!-- GO:0065007&#45;&gt;GO:0008150 -->
<g id="edge13" class="edge">
<title>GO:0065007&#45;&gt;GO:0008150</title>
<path fill="none" stroke="#000000" d="M567.7595,-410.8182C567.7595,-421.1705 567.7595,-433.8848 567.7595,-445.3271"/>
<polygon fill="#000000" stroke="#000000" points="564.2596,-445.3735 567.7595,-455.3735 571.2596,-445.3735 564.2596,-445.3735"/>
</g>
<!-- GO:0050794 -->
<g id="node13" class="node">
<title>GO:0050794</title>
<polygon fill="#ff00ff" stroke="#000000" points="588.6585,-325.0014 454.8605,-325.0014 454.8605,-266.1986 588.6585,-266.1986 588.6585,-325.0014"/>
<text text-anchor="middle" x="521.7595" y="-308.2" font-family="Times,serif" font-size="14.00" fill="#000000">GO:0050794</text>
<text text-anchor="middle" x="521.7595" y="-291.4" font-family="Times,serif" font-size="14.00" fill="#000000">regulation of cellular</text>
<text text-anchor="middle" x="521.7595" y="-274.6" font-family="Times,serif" font-size="14.00" fill="#000000">process</text>
</g>
<!-- GO:0050794&#45;&gt;GO:0050789 -->
<g id="edge15" class="edge">
<title>GO:0050794&#45;&gt;GO:0050789</title>
<path fill="none" stroke="#000000" d="M486.9359,-324.9513C475.9793,-334.1861 463.7544,-344.49 452.3232,-354.1249"/>
<polygon fill="#000000" stroke="#000000" points="449.9522,-351.5459 444.5615,-360.6669 454.4635,-356.8983 449.9522,-351.5459"/>
</g>
<!-- GO:0050794&#45;&gt;GO:0065007 -->
<g id="edge14" class="edge">
<title>GO:0050794&#45;&gt;GO:0065007</title>
<path fill="none" stroke="#000000" d="M536.062,-324.9513C541.5428,-336.1989 547.7964,-349.0323 553.2925,-360.3112"/>
<polygon fill="#000000" stroke="#000000" points="550.1706,-361.8946 557.6975,-369.351 556.4633,-358.8283 550.1706,-361.8946"/>
</g>
<!-- GO:0044763 -->
<g id="node14" class="node">
<title>GO:0044763</title>
<polygon fill="#ff00ff" stroke="#000000" points="824.438,-325.0014 673.081,-325.0014 673.081,-266.1986 824.438,-266.1986 824.438,-325.0014"/>
<text text-anchor="middle" x="748.7595" y="-308.2" font-family="Times,serif" font-size="14.00" fill="#000000">GO:0044763</text>
<text text-anchor="middle" x="748.7595" y="-291.4" font-family="Times,serif" font-size="14.00" fill="#000000">single&#45;organism cellular</text>
<text text-anchor="middle" x="748.7595" y="-274.6" font-family="Times,serif" font-size="14.00" fill="#000000">process</text>
</g>
<!-- GO:0044763&#45;&gt;GO:0009987 -->
<g id="edge16" class="edge">
<title>GO:0044763&#45;&gt;GO:0009987</title>
<path fill="none" stroke="#000000" d="M734.7679,-324.9513C729.4062,-336.1989 723.2886,-349.0323 717.912,-360.3112"/>
<polygon fill="#000000" stroke="#000000" points="714.7465,-358.8181 713.6028,-369.351 721.0653,-361.8302 714.7465,-358.8181"/>
</g>
<!-- GO:0044699 -->
<g id="node15" class="node">
<title>GO:0044699</title>
<polygon fill="#ff00ff" stroke="#000000" points="925.4408,-410.6019 774.0782,-410.6019 774.0782,-369.3981 925.4408,-369.3981 925.4408,-410.6019"/>
<text text-anchor="middle" x="849.7595" y="-394.2" font-family="Times,serif" font-size="14.00" fill="#000000">GO:0044699</text>
<text text-anchor="middle" x="849.7595" y="-377.4" font-family="Times,serif" font-size="14.00" fill="#000000">single&#45;organism process</text>
</g>
<!-- GO:0044763&#45;&gt;GO:0044699 -->
<g id="edge17" class="edge">
<title>GO:0044763&#45;&gt;GO:0044699</title>
<path fill="none" stroke="#000000" d="M780.1629,-324.9513C792.9189,-336.8737 807.5813,-350.578 820.1485,-362.324"/>
<polygon fill="#000000" stroke="#000000" points="817.9711,-365.0796 827.6668,-369.351 822.751,-359.9656 817.9711,-365.0796"/>
</g>
<!-- GO:0044699&#45;&gt;GO:0008150 -->
<g id="edge18" class="edge">
<title>GO:0044699&#45;&gt;GO:0008150</title>
<path fill="none" stroke="#000000" d="M790.8996,-410.6478C782.1592,-413.5895 773.2408,-416.5224 764.7595,-419.2 723.0067,-432.3817 675.895,-446.0098 638.2142,-456.6119"/>
<polygon fill="#000000" stroke="#000000" points="637.032,-453.3083 628.349,-459.3791 638.9227,-460.0481 637.032,-453.3083"/>
</g>
</g>
</svg>
