<?xml version="1.0" encoding="UTF-8" standalone="no"?>
<!DOCTYPE svg PUBLIC "-//W3C//DTD SVG 1.1//EN"
 "http://www.w3.org/Graphics/SVG/1.1/DTD/svg11.dtd">
<!-- Generated by graphviz version 2.40.1 (20161225.0304)
 -->
<!-- Title: G Pages: 1 -->
<svg width="657pt" height="471pt"
 viewBox="0.00 0.00 657.34 471.20" xmlns="http://www.w3.org/2000/svg" xmlns:xlink="http://www.w3.org/1999/xlink">
<g id="graph0" class="graph" transform="scale(1 1) rotate(0) translate(4 467.2)">
<title>G</title>
<polygon fill="#ffffff" stroke="transparent" points="-4,4 -4,-467.2 653.3409,-467.2 653.3409,4 -4,4"/>
<!-- GO:0043231 -->
<g id="node1" class="node">
<title>GO:0043231</title>
<polygon fill="#ff0000" stroke="#000000" points="305.544,-136.2014 154.7864,-136.2014 154.7864,-77.3986 305.544,-77.3986 305.544,-136.2014"/>
<text text-anchor="middle" x="230.1652" y="-119.4" font-family="Times,serif" font-size="14.00" fill="#000000">GO:0043231</text>
<text text-anchor="middle" x="230.1652" y="-102.6" font-family="Times,serif" font-size="14.00" fill="#000000">intracellular membrane&#45;</text>
<text text-anchor="middle" x="230.1652" y="-85.8" font-family="Times,serif" font-size="14.00" fill="#000000">bounded organelle</text>
</g>
<!-- GO:0043229 -->
<g id="node2" class="node">
<title>GO:0043229</title>
<polygon fill="#ff0000" stroke="#000000" points="306.8836,-221.8019 167.4468,-221.8019 167.4468,-180.5981 306.8836,-180.5981 306.8836,-221.8019"/>
<text text-anchor="middle" x="237.1652" y="-205.4" font-family="Times,serif" font-size="14.00" fill="#000000">GO:0043229</text>
<text text-anchor="middle" x="237.1652" y="-188.6" font-family="Times,serif" font-size="14.00" fill="#000000">intracellular organelle</text>
</g>
<!-- GO:0043231&#45;&gt;GO:0043229 -->
<g id="edge1" class="edge">
<title>GO:0043231&#45;&gt;GO:0043229</title>
<path fill="none" stroke="#000000" d="M232.3417,-136.1513C233.1507,-147.0614 234.0703,-159.4637 234.8881,-170.492"/>
<polygon fill="#000000" stroke="#000000" points="231.404,-170.8372 235.634,-180.551 238.3849,-170.3195 231.404,-170.8372"/>
</g>
<!-- GO:0043227 -->
<g id="node3" class="node">
<title>GO:0043227</title>
<polygon fill="#ff0000" stroke="#000000" points="149.126,-230.6014 21.2044,-230.6014 21.2044,-171.7986 149.126,-171.7986 149.126,-230.6014"/>
<text text-anchor="middle" x="85.1652" y="-213.8" font-family="Times,serif" font-size="14.00" fill="#000000">GO:0043227</text>
<text text-anchor="middle" x="85.1652" y="-197" font-family="Times,serif" font-size="14.00" fill="#000000">membrane&#45;bounded</text>
<text text-anchor="middle" x="85.1652" y="-180.2" font-family="Times,serif" font-size="14.00" fill="#000000">organelle</text>
</g>
<!-- GO:0043231&#45;&gt;GO:0043227 -->
<g id="edge2" class="edge">
<title>GO:0043231&#45;&gt;GO:0043227</title>
<path fill="none" stroke="#000000" d="M185.0811,-136.1513C170.487,-145.6525 154.1548,-156.2854 138.992,-166.1569"/>
<polygon fill="#000000" stroke="#000000" points="136.6923,-163.4777 130.2214,-171.8669 140.5115,-169.344 136.6923,-163.4777"/>
</g>
<!-- GO:0044424 -->
<g id="node4" class="node">
<title>GO:0044424</title>
<polygon fill="#ffffff" stroke="#000000" points="420.5636,-307.8019 311.7668,-307.8019 311.7668,-266.5981 420.5636,-266.5981 420.5636,-307.8019"/>
<text text-anchor="middle" x="366.1652" y="-291.4" font-family="Times,serif" font-size="14.00" fill="#000000">GO:0044424</text>
<text text-anchor="middle" x="366.1652" y="-274.6" font-family="Times,serif" font-size="14.00" fill="#000000">intracellular part</text>
</g>
<!-- GO:0043229&#45;&gt;GO:0044424 -->
<g id="edge3" class="edge">
<title>GO:0043229&#45;&gt;GO:0044424</title>
<path fill="none" stroke="#000000" d="M268.3925,-222.0182C285.9808,-233.7437 308.1146,-248.4996 326.8728,-261.0051"/>
<polygon fill="#000000" stroke="#000000" points="324.9635,-263.9386 335.2255,-266.5735 328.8464,-258.1143 324.9635,-263.9386"/>
</g>
<!-- GO:0043226 -->
<g id="node5" class="node">
<title>GO:0043226</title>
<polygon fill="#ff0000" stroke="#000000" points="281.7691,-307.8019 192.5613,-307.8019 192.5613,-266.5981 281.7691,-266.5981 281.7691,-307.8019"/>
<text text-anchor="middle" x="237.1652" y="-291.4" font-family="Times,serif" font-size="14.00" fill="#000000">GO:0043226</text>
<text text-anchor="middle" x="237.1652" y="-274.6" font-family="Times,serif" font-size="14.00" fill="#000000">organelle</text>
</g>
<!-- GO:0043229&#45;&gt;GO:0043226 -->
<g id="edge4" class="edge">
<title>GO:0043229&#45;&gt;GO:0043226</title>
<path fill="none" stroke="#000000" d="M237.1652,-222.0182C237.1652,-232.3705 237.1652,-245.0848 237.1652,-256.5271"/>
<polygon fill="#000000" stroke="#000000" points="233.6653,-256.5735 237.1652,-266.5735 240.6653,-256.5735 233.6653,-256.5735"/>
</g>
<!-- GO:0043227&#45;&gt;GO:0043226 -->
<g id="edge5" class="edge">
<title>GO:0043227&#45;&gt;GO:0043226</title>
<path fill="none" stroke="#000000" d="M137.0498,-230.5558C154.7731,-240.5834 174.4482,-251.7154 191.6328,-261.4383"/>
<polygon fill="#000000" stroke="#000000" points="189.9417,-264.5028 200.3687,-266.3809 193.3888,-258.4103 189.9417,-264.5028"/>
</g>
<!-- GO:0044464 -->
<g id="node6" class="node">
<title>GO:0044464</title>
<polygon fill="#ffffff" stroke="#000000" points="385.7691,-385.4019 296.5613,-385.4019 296.5613,-344.1981 385.7691,-344.1981 385.7691,-385.4019"/>
<text text-anchor="middle" x="341.1652" y="-369" font-family="Times,serif" font-size="14.00" fill="#000000">GO:0044464</text>
<text text-anchor="middle" x="341.1652" y="-352.2" font-family="Times,serif" font-size="14.00" fill="#000000">cell part</text>
</g>
<!-- GO:0044424&#45;&gt;GO:0044464 -->
<g id="edge6" class="edge">
<title>GO:0044424&#45;&gt;GO:0044464</title>
<path fill="none" stroke="#000000" d="M359.4657,-307.9954C356.8595,-316.0848 353.8212,-325.5159 350.9776,-334.3424"/>
<polygon fill="#000000" stroke="#000000" points="347.6184,-333.3557 347.8832,-343.9472 354.2811,-335.5023 347.6184,-333.3557"/>
</g>
<!-- GO:0005575 -->
<g id="node7" class="node">
<title>GO:0005575</title>
<polygon fill="#ffffff" stroke="#000000" points="511.8519,-463.0019 384.4785,-463.0019 384.4785,-421.7981 511.8519,-421.7981 511.8519,-463.0019"/>
<text text-anchor="middle" x="448.1652" y="-446.6" font-family="Times,serif" font-size="14.00" fill="#000000">GO:0005575</text>
<text text-anchor="middle" x="448.1652" y="-429.8" font-family="Times,serif" font-size="14.00" fill="#000000">cellular_component</text>
</g>
<!-- GO:0043226&#45;&gt;GO:0005575 -->
<g id="edge7" class="edge">
<title>GO:0043226&#45;&gt;GO:0005575</title>
<path fill="none" stroke="#000000" d="M242.7417,-308.1631C249.6625,-330.3242 263.5371,-364.8801 287.1652,-385.6 311.5918,-407.02 344.6162,-420.5103 374.398,-428.9345"/>
<polygon fill="#000000" stroke="#000000" points="373.7915,-432.3953 384.3565,-431.6013 375.6023,-425.6336 373.7915,-432.3953"/>
</g>
<!-- GO:0044464&#45;&gt;GO:0005575 -->
<g id="edge15" class="edge">
<title>GO:0044464&#45;&gt;GO:0005575</title>
<path fill="none" stroke="#000000" d="M369.8392,-385.5954C382.5527,-394.8156 397.6695,-405.7788 411.2159,-415.6031"/>
<polygon fill="#000000" stroke="#000000" points="409.262,-418.5096 419.412,-421.5472 413.3716,-412.8429 409.262,-418.5096"/>
</g>
<!-- GO:0016020 -->
<g id="node8" class="node">
<title>GO:0016020</title>
<polygon fill="#00ffff" stroke="#000000" points="492.7691,-385.4019 403.5613,-385.4019 403.5613,-344.1981 492.7691,-344.1981 492.7691,-385.4019"/>
<text text-anchor="middle" x="448.1652" y="-369" font-family="Times,serif" font-size="14.00" fill="#000000">GO:0016020</text>
<text text-anchor="middle" x="448.1652" y="-352.2" font-family="Times,serif" font-size="14.00" fill="#000000">membrane</text>
</g>
<!-- GO:0016020&#45;&gt;GO:0005575 -->
<g id="edge8" class="edge">
<title>GO:0016020&#45;&gt;GO:0005575</title>
<path fill="none" stroke="#000000" d="M448.1652,-385.5954C448.1652,-393.5109 448.1652,-402.7109 448.1652,-411.3722"/>
<polygon fill="#000000" stroke="#000000" points="444.6653,-411.5472 448.1652,-421.5472 451.6653,-411.5473 444.6653,-411.5472"/>
</g>
<!-- GO:0031988 -->
<g id="node9" class="node">
<title>GO:0031988</title>
<polygon fill="#ff00ff" stroke="#000000" points="170.4959,-41.4019 -.1655,-41.4019 -.1655,-.1981 170.4959,-.1981 170.4959,-41.4019"/>
<text text-anchor="middle" x="85.1652" y="-25" font-family="Times,serif" font-size="14.00" fill="#000000">GO:0031988</text>
<text text-anchor="middle" x="85.1652" y="-8.2" font-family="Times,serif" font-size="14.00" fill="#000000">membrane&#45;bounded vesicle</text>
</g>
<!-- GO:0031982 -->
<g id="node10" class="node">
<title>GO:0031982</title>
<polygon fill="#ff00ff" stroke="#000000" points="129.7691,-127.4019 40.5613,-127.4019 40.5613,-86.1981 129.7691,-86.1981 129.7691,-127.4019"/>
<text text-anchor="middle" x="85.1652" y="-111" font-family="Times,serif" font-size="14.00" fill="#000000">GO:0031982</text>
<text text-anchor="middle" x="85.1652" y="-94.2" font-family="Times,serif" font-size="14.00" fill="#000000">vesicle</text>
</g>
<!-- GO:0031988&#45;&gt;GO:0031982 -->
<g id="edge9" class="edge">
<title>GO:0031988&#45;&gt;GO:0031982</title>
<path fill="none" stroke="#000000" d="M85.1652,-41.6182C85.1652,-51.9705 85.1652,-64.6848 85.1652,-76.1271"/>
<polygon fill="#000000" stroke="#000000" points="81.6653,-76.1735 85.1652,-86.1735 88.6653,-76.1735 81.6653,-76.1735"/>
</g>
<!-- GO:0031982&#45;&gt;GO:0043227 -->
<g id="edge10" class="edge">
<title>GO:0031982&#45;&gt;GO:0043227</title>
<path fill="none" stroke="#000000" d="M85.1652,-127.7504C85.1652,-137.7492 85.1652,-150.0525 85.1652,-161.7106"/>
<polygon fill="#000000" stroke="#000000" points="81.6653,-161.7155 85.1652,-171.7155 88.6653,-161.7156 81.6653,-161.7155"/>
</g>
<!-- GO:0044446 -->
<g id="node11" class="node">
<title>GO:0044446</title>
<polygon fill="#ff00ff" stroke="#000000" points="590.8836,-230.6014 451.4468,-230.6014 451.4468,-171.7986 590.8836,-171.7986 590.8836,-230.6014"/>
<text text-anchor="middle" x="521.1652" y="-213.8" font-family="Times,serif" font-size="14.00" fill="#000000">GO:0044446</text>
<text text-anchor="middle" x="521.1652" y="-197" font-family="Times,serif" font-size="14.00" fill="#000000">intracellular organelle</text>
<text text-anchor="middle" x="521.1652" y="-180.2" font-family="Times,serif" font-size="14.00" fill="#000000">part</text>
</g>
<!-- GO:0044446&#45;&gt;GO:0044424 -->
<g id="edge11" class="edge">
<title>GO:0044446&#45;&gt;GO:0044424</title>
<path fill="none" stroke="#000000" d="M468.2565,-230.5558C450.1835,-240.5834 430.12,-251.7154 412.5962,-261.4383"/>
<polygon fill="#000000" stroke="#000000" points="410.7341,-258.4688 403.6879,-266.3809 414.1303,-264.5897 410.7341,-258.4688"/>
</g>
<!-- GO:0044422 -->
<g id="node12" class="node">
<title>GO:0044422</title>
<polygon fill="#ff00ff" stroke="#000000" points="568.0173,-307.8019 474.3131,-307.8019 474.3131,-266.5981 568.0173,-266.5981 568.0173,-307.8019"/>
<text text-anchor="middle" x="521.1652" y="-291.4" font-family="Times,serif" font-size="14.00" fill="#000000">GO:0044422</text>
<text text-anchor="middle" x="521.1652" y="-274.6" font-family="Times,serif" font-size="14.00" fill="#000000">organelle part</text>
</g>
<!-- GO:0044446&#45;&gt;GO:0044422 -->
<g id="edge12" class="edge">
<title>GO:0044446&#45;&gt;GO:0044422</title>
<path fill="none" stroke="#000000" d="M521.1652,-230.7963C521.1652,-239.0638 521.1652,-248.0657 521.1652,-256.4008"/>
<polygon fill="#000000" stroke="#000000" points="517.6653,-256.4965 521.1652,-266.4966 524.6653,-256.4966 517.6653,-256.4965"/>
</g>
<!-- GO:0044422&#45;&gt;GO:0005575 -->
<g id="edge13" class="edge">
<title>GO:0044422&#45;&gt;GO:0005575</title>
<path fill="none" stroke="#000000" d="M520.5291,-307.8927C519.1438,-328.5994 514.9075,-360.8493 502.1652,-385.6 496.7702,-396.0793 488.8433,-405.9702 480.7157,-414.4711"/>
<polygon fill="#000000" stroke="#000000" points="478.2052,-412.0316 473.5802,-421.5637 483.14,-416.9963 478.2052,-412.0316"/>
</g>
<!-- GO:0044444 -->
<g id="node13" class="node">
<title>GO:0044444</title>
<polygon fill="#ff0000" stroke="#000000" points="433.5818,-221.8019 324.7486,-221.8019 324.7486,-180.5981 433.5818,-180.5981 433.5818,-221.8019"/>
<text text-anchor="middle" x="379.1652" y="-205.4" font-family="Times,serif" font-size="14.00" fill="#000000">GO:0044444</text>
<text text-anchor="middle" x="379.1652" y="-188.6" font-family="Times,serif" font-size="14.00" fill="#000000">cytoplasmic part</text>
</g>
<!-- GO:0044444&#45;&gt;GO:0044424 -->
<g id="edge14" class="edge">
<title>GO:0044444&#45;&gt;GO:0044424</title>
<path fill="none" stroke="#000000" d="M376.0183,-222.0182C374.4534,-232.3705 372.5314,-245.0848 370.8018,-256.5271"/>
<polygon fill="#000000" stroke="#000000" points="367.3172,-256.1627 369.2832,-266.5735 374.2386,-257.209 367.3172,-256.1627"/>
</g>
<!-- GO:0044425 -->
<g id="node14" class="node">
<title>GO:0044425</title>
<polygon fill="#ff00ff" stroke="#000000" points="649.5172,-385.4019 548.8132,-385.4019 548.8132,-344.1981 649.5172,-344.1981 649.5172,-385.4019"/>
<text text-anchor="middle" x="599.1652" y="-369" font-family="Times,serif" font-size="14.00" fill="#000000">GO:0044425</text>
<text text-anchor="middle" x="599.1652" y="-352.2" font-family="Times,serif" font-size="14.00" fill="#000000">membrane part</text>
</g>
<!-- GO:0044425&#45;&gt;GO:0005575 -->
<g id="edge16" class="edge">
<title>GO:0044425&#45;&gt;GO:0005575</title>
<path fill="none" stroke="#000000" d="M558.7,-385.5954C539.8365,-395.2895 517.2239,-406.9102 497.3795,-417.1084"/>
<polygon fill="#000000" stroke="#000000" points="495.7745,-413.998 488.4801,-421.6819 498.9741,-420.224 495.7745,-413.998"/>
</g>
</g>
</svg>
