<?xml version="1.0" encoding="UTF-8" standalone="no"?>
<!DOCTYPE svg PUBLIC "-//W3C//DTD SVG 1.1//EN"
 "http://www.w3.org/Graphics/SVG/1.1/DTD/svg11.dtd">
<!-- Generated by graphviz version 2.40.1 (20161225.0304)
 -->
<!-- Title: G Pages: 1 -->
<svg width="276pt" height="299pt"
 viewBox="0.00 0.00 275.72 299.20" xmlns="http://www.w3.org/2000/svg" xmlns:xlink="http://www.w3.org/1999/xlink">
<g id="graph0" class="graph" transform="scale(1 1) rotate(0) translate(4 295.2)">
<title>G</title>
<polygon fill="#ffffff" stroke="transparent" points="-4,4 -4,-295.2 271.7245,-295.2 271.7245,4 -4,4"/>
<!-- GO:0005576 -->
<g id="node1" class="node">
<title>GO:0005576</title>
<polygon fill="#ffffff" stroke="#000000" points="125.3338,-213.4019 -.1114,-213.4019 -.1114,-172.1981 125.3338,-172.1981 125.3338,-213.4019"/>
<text text-anchor="middle" x="62.6112" y="-197" font-family="Times,serif" font-size="14.00" fill="#000000">GO:0005576</text>
<text text-anchor="middle" x="62.6112" y="-180.2" font-family="Times,serif" font-size="14.00" fill="#000000">extracellular region</text>
</g>
<!-- GO:0005575 -->
<g id="node2" class="node">
<title>GO:0005575</title>
<polygon fill="#ffffff" stroke="#000000" points="188.2979,-291.0019 60.9245,-291.0019 60.9245,-249.7981 188.2979,-249.7981 188.2979,-291.0019"/>
<text text-anchor="middle" x="124.6112" y="-274.6" font-family="Times,serif" font-size="14.00" fill="#000000">GO:0005575</text>
<text text-anchor="middle" x="124.6112" y="-257.8" font-family="Times,serif" font-size="14.00" fill="#000000">cellular_component</text>
</g>
<!-- GO:0005576&#45;&gt;GO:0005575 -->
<g id="edge1" class="edge">
<title>GO:0005576&#45;&gt;GO:0005575</title>
<path fill="none" stroke="#000000" d="M79.2261,-213.5954C86.1063,-222.2067 94.2012,-232.3384 101.635,-241.6427"/>
<polygon fill="#000000" stroke="#000000" points="98.974,-243.9193 107.9505,-249.5472 104.4428,-239.5499 98.974,-243.9193"/>
</g>
<!-- GO:0030288 -->
<g id="node3" class="node">
<title>GO:0030288</title>
<polygon fill="#ffffff" stroke="#000000" points="267.838,-58.6014 107.3844,-58.6014 107.3844,.2014 267.838,.2014 267.838,-58.6014"/>
<text text-anchor="middle" x="187.6112" y="-41.8" font-family="Times,serif" font-size="14.00" fill="#000000">GO:0030288</text>
<text text-anchor="middle" x="187.6112" y="-25" font-family="Times,serif" font-size="14.00" fill="#000000">outer membrane&#45;bounded</text>
<text text-anchor="middle" x="187.6112" y="-8.2" font-family="Times,serif" font-size="14.00" fill="#000000">periplasmic space</text>
</g>
<!-- GO:0042597 -->
<g id="node4" class="node">
<title>GO:0042597</title>
<polygon fill="#ffffff" stroke="#000000" points="245.511,-135.8019 129.7114,-135.8019 129.7114,-94.5981 245.511,-94.5981 245.511,-135.8019"/>
<text text-anchor="middle" x="187.6112" y="-119.4" font-family="Times,serif" font-size="14.00" fill="#000000">GO:0042597</text>
<text text-anchor="middle" x="187.6112" y="-102.6" font-family="Times,serif" font-size="14.00" fill="#000000">periplasmic space</text>
</g>
<!-- GO:0030288&#45;&gt;GO:0042597 -->
<g id="edge2" class="edge">
<title>GO:0030288&#45;&gt;GO:0042597</title>
<path fill="none" stroke="#000000" d="M187.6112,-58.7963C187.6112,-67.0638 187.6112,-76.0657 187.6112,-84.4008"/>
<polygon fill="#000000" stroke="#000000" points="184.1113,-84.4965 187.6112,-94.4966 191.1113,-84.4966 184.1113,-84.4965"/>
</g>
<!-- GO:0044464 -->
<g id="node5" class="node">
<title>GO:0044464</title>
<polygon fill="#ffffff" stroke="#000000" points="232.2151,-213.4019 143.0073,-213.4019 143.0073,-172.1981 232.2151,-172.1981 232.2151,-213.4019"/>
<text text-anchor="middle" x="187.6112" y="-197" font-family="Times,serif" font-size="14.00" fill="#000000">GO:0044464</text>
<text text-anchor="middle" x="187.6112" y="-180.2" font-family="Times,serif" font-size="14.00" fill="#000000">cell part</text>
</g>
<!-- GO:0042597&#45;&gt;GO:0044464 -->
<g id="edge3" class="edge">
<title>GO:0042597&#45;&gt;GO:0044464</title>
<path fill="none" stroke="#000000" d="M187.6112,-135.9954C187.6112,-143.9109 187.6112,-153.1109 187.6112,-161.7722"/>
<polygon fill="#000000" stroke="#000000" points="184.1113,-161.9472 187.6112,-171.9472 191.1113,-161.9473 184.1113,-161.9472"/>
</g>
<!-- GO:0044464&#45;&gt;GO:0005575 -->
<g id="edge4" class="edge">
<title>GO:0044464&#45;&gt;GO:0005575</title>
<path fill="none" stroke="#000000" d="M170.7284,-213.5954C163.7372,-222.2067 155.5117,-232.3384 147.958,-241.6427"/>
<polygon fill="#000000" stroke="#000000" points="145.1263,-239.5776 141.5406,-249.5472 150.5609,-243.9896 145.1263,-239.5776"/>
</g>
</g>
</svg>
