<?xml version="1.0" encoding="UTF-8" standalone="no"?>
<!DOCTYPE svg PUBLIC "-//W3C//DTD SVG 1.1//EN"
 "http://www.w3.org/Graphics/SVG/1.1/DTD/svg11.dtd">
<!-- Generated by graphviz version 2.40.1 (20161225.0304)
 -->
<!-- Title: G Pages: 1 -->
<svg width="1025pt" height="710pt"
 viewBox="0.00 0.00 1024.97 710.40" xmlns="http://www.w3.org/2000/svg" xmlns:xlink="http://www.w3.org/1999/xlink">
<g id="graph0" class="graph" transform="scale(1 1) rotate(0) translate(4 706.4)">
<title>G</title>
<polygon fill="#ffffff" stroke="transparent" points="-4,4 -4,-706.4 1020.971,-706.4 1020.971,4 -4,4"/>
<!-- GO:0016787 -->
<g id="node1" class="node">
<title>GO:0016787</title>
<polygon fill="#ffffff" stroke="#000000" points="882.1898,-538.6019 766.3566,-538.6019 766.3566,-497.3981 882.1898,-497.3981 882.1898,-538.6019"/>
<text text-anchor="middle" x="824.2732" y="-522.2" font-family="Times,serif" font-size="14.00" fill="#000000">GO:0016787</text>
<text text-anchor="middle" x="824.2732" y="-505.4" font-family="Times,serif" font-size="14.00" fill="#000000">hydrolase activity</text>
</g>
<!-- GO:0003824 -->
<g id="node2" class="node">
<title>GO:0003824</title>
<polygon fill="#ffffff" stroke="#000000" points="741.6856,-624.6019 632.8608,-624.6019 632.8608,-583.3981 741.6856,-583.3981 741.6856,-624.6019"/>
<text text-anchor="middle" x="687.2732" y="-608.2" font-family="Times,serif" font-size="14.00" fill="#000000">GO:0003824</text>
<text text-anchor="middle" x="687.2732" y="-591.4" font-family="Times,serif" font-size="14.00" fill="#000000">catalytic activity</text>
</g>
<!-- GO:0016787&#45;&gt;GO:0003824 -->
<g id="edge1" class="edge">
<title>GO:0016787&#45;&gt;GO:0003824</title>
<path fill="none" stroke="#000000" d="M791.1093,-538.8182C772.3461,-550.5966 748.712,-565.4326 728.7333,-577.9739"/>
<polygon fill="#000000" stroke="#000000" points="726.7404,-575.0925 720.1317,-583.3735 730.4621,-581.0212 726.7404,-575.0925"/>
</g>
<!-- GO:0003674 -->
<g id="node3" class="node">
<title>GO:0003674</title>
<polygon fill="#ffffff" stroke="#000000" points="613.9063,-702.2019 488.6401,-702.2019 488.6401,-660.9981 613.9063,-660.9981 613.9063,-702.2019"/>
<text text-anchor="middle" x="551.2732" y="-685.8" font-family="Times,serif" font-size="14.00" fill="#000000">GO:0003674</text>
<text text-anchor="middle" x="551.2732" y="-669" font-family="Times,serif" font-size="14.00" fill="#000000">molecular_function</text>
</g>
<!-- GO:0003824&#45;&gt;GO:0003674 -->
<g id="edge2" class="edge">
<title>GO:0003824&#45;&gt;GO:0003674</title>
<path fill="none" stroke="#000000" d="M650.8277,-624.7954C634.2112,-634.2766 614.3647,-645.6008 596.7798,-655.6345"/>
<polygon fill="#000000" stroke="#000000" points="594.7703,-652.7513 587.8193,-660.7472 598.2395,-658.8312 594.7703,-652.7513"/>
</g>
<!-- GO:0016791 -->
<g id="node4" class="node">
<title>GO:0016791</title>
<polygon fill="#ffffff" stroke="#000000" points="836.1884,-213.4019 706.358,-213.4019 706.358,-172.1981 836.1884,-172.1981 836.1884,-213.4019"/>
<text text-anchor="middle" x="771.2732" y="-197" font-family="Times,serif" font-size="14.00" fill="#000000">GO:0016791</text>
<text text-anchor="middle" x="771.2732" y="-180.2" font-family="Times,serif" font-size="14.00" fill="#000000">phosphatase activity</text>
</g>
<!-- GO:0042578 -->
<g id="node5" class="node">
<title>GO:0042578</title>
<polygon fill="#ffffff" stroke="#000000" points="829.1898,-333.4014 713.3566,-333.4014 713.3566,-274.5986 829.1898,-274.5986 829.1898,-333.4014"/>
<text text-anchor="middle" x="771.2732" y="-316.6" font-family="Times,serif" font-size="14.00" fill="#000000">GO:0042578</text>
<text text-anchor="middle" x="771.2732" y="-299.8" font-family="Times,serif" font-size="14.00" fill="#000000">phosphoric ester</text>
<text text-anchor="middle" x="771.2732" y="-283" font-family="Times,serif" font-size="14.00" fill="#000000">hydrolase activity</text>
</g>
<!-- GO:0016791&#45;&gt;GO:0042578 -->
<g id="edge3" class="edge">
<title>GO:0016791&#45;&gt;GO:0042578</title>
<path fill="none" stroke="#000000" d="M771.2732,-213.4553C771.2732,-227.707 771.2732,-247.1101 771.2732,-264.2996"/>
<polygon fill="#000000" stroke="#000000" points="767.7733,-264.6505 771.2732,-274.6506 774.7733,-264.6506 767.7733,-264.6505"/>
</g>
<!-- GO:0016788 -->
<g id="node6" class="node">
<title>GO:0016788</title>
<polygon fill="#ffffff" stroke="#000000" points="838.3539,-453.0014 704.1925,-453.0014 704.1925,-394.1986 838.3539,-394.1986 838.3539,-453.0014"/>
<text text-anchor="middle" x="771.2732" y="-436.2" font-family="Times,serif" font-size="14.00" fill="#000000">GO:0016788</text>
<text text-anchor="middle" x="771.2732" y="-419.4" font-family="Times,serif" font-size="14.00" fill="#000000">hydrolase activity,</text>
<text text-anchor="middle" x="771.2732" y="-402.6" font-family="Times,serif" font-size="14.00" fill="#000000">acting on ester bonds</text>
</g>
<!-- GO:0042578&#45;&gt;GO:0016788 -->
<g id="edge4" class="edge">
<title>GO:0042578&#45;&gt;GO:0016788</title>
<path fill="none" stroke="#000000" d="M771.2732,-333.2575C771.2732,-348.4608 771.2732,-367.2644 771.2732,-383.7735"/>
<polygon fill="#000000" stroke="#000000" points="767.7733,-384.23 771.2732,-394.2301 774.7733,-384.2301 767.7733,-384.23"/>
</g>
<!-- GO:0016788&#45;&gt;GO:0016787 -->
<g id="edge5" class="edge">
<title>GO:0016788&#45;&gt;GO:0016787</title>
<path fill="none" stroke="#000000" d="M787.7522,-452.9513C794.0671,-464.1989 801.2722,-477.0323 807.6047,-488.3112"/>
<polygon fill="#000000" stroke="#000000" points="804.7325,-490.3447 812.68,-497.351 810.8363,-486.9178 804.7325,-490.3447"/>
</g>
<!-- GO:0016887 -->
<g id="node7" class="node">
<title>GO:0016887</title>
<polygon fill="#ffffff" stroke="#000000" points="989.0806,-41.4019 883.4658,-41.4019 883.4658,-.1981 989.0806,-.1981 989.0806,-41.4019"/>
<text text-anchor="middle" x="936.2732" y="-25" font-family="Times,serif" font-size="14.00" fill="#000000">GO:0016887</text>
<text text-anchor="middle" x="936.2732" y="-8.2" font-family="Times,serif" font-size="14.00" fill="#000000">ATPase activity</text>
</g>
<!-- GO:0017111 -->
<g id="node8" class="node">
<title>GO:0017111</title>
<polygon fill="#ffffff" stroke="#000000" points="1017.1693,-136.2014 855.3771,-136.2014 855.3771,-77.3986 1017.1693,-77.3986 1017.1693,-136.2014"/>
<text text-anchor="middle" x="936.2732" y="-119.4" font-family="Times,serif" font-size="14.00" fill="#000000">GO:0017111</text>
<text text-anchor="middle" x="936.2732" y="-102.6" font-family="Times,serif" font-size="14.00" fill="#000000">nucleoside&#45;triphosphatase</text>
<text text-anchor="middle" x="936.2732" y="-85.8" font-family="Times,serif" font-size="14.00" fill="#000000">activity</text>
</g>
<!-- GO:0016887&#45;&gt;GO:0017111 -->
<g id="edge6" class="edge">
<title>GO:0016887&#45;&gt;GO:0017111</title>
<path fill="none" stroke="#000000" d="M936.2732,-41.6182C936.2732,-49.3358 936.2732,-58.3662 936.2732,-67.2036"/>
<polygon fill="#000000" stroke="#000000" points="932.7733,-67.3991 936.2732,-77.3991 939.7733,-67.3992 932.7733,-67.3991"/>
</g>
<!-- GO:0016462 -->
<g id="node9" class="node">
<title>GO:0016462</title>
<polygon fill="#ffffff" stroke="#000000" points="1013.8496,-213.4019 858.6968,-213.4019 858.6968,-172.1981 1013.8496,-172.1981 1013.8496,-213.4019"/>
<text text-anchor="middle" x="936.2732" y="-197" font-family="Times,serif" font-size="14.00" fill="#000000">GO:0016462</text>
<text text-anchor="middle" x="936.2732" y="-180.2" font-family="Times,serif" font-size="14.00" fill="#000000">pyrophosphatase activity</text>
</g>
<!-- GO:0017111&#45;&gt;GO:0016462 -->
<g id="edge7" class="edge">
<title>GO:0017111&#45;&gt;GO:0016462</title>
<path fill="none" stroke="#000000" d="M936.2732,-136.3963C936.2732,-144.6638 936.2732,-153.6657 936.2732,-162.0008"/>
<polygon fill="#000000" stroke="#000000" points="932.7733,-162.0965 936.2732,-172.0966 939.7733,-162.0966 932.7733,-162.0965"/>
</g>
<!-- GO:0016818 -->
<g id="node10" class="node">
<title>GO:0016818</title>
<polygon fill="#ffffff" stroke="#000000" points="1008.5849,-358.3002 863.9615,-358.3002 863.9615,-249.6998 1008.5849,-249.6998 1008.5849,-358.3002"/>
<text text-anchor="middle" x="936.2732" y="-341.8" font-family="Times,serif" font-size="14.00" fill="#000000">GO:0016818</text>
<text text-anchor="middle" x="936.2732" y="-325" font-family="Times,serif" font-size="14.00" fill="#000000">hydrolase activity,</text>
<text text-anchor="middle" x="936.2732" y="-308.2" font-family="Times,serif" font-size="14.00" fill="#000000">acting on acid</text>
<text text-anchor="middle" x="936.2732" y="-291.4" font-family="Times,serif" font-size="14.00" fill="#000000">anhydrides, in</text>
<text text-anchor="middle" x="936.2732" y="-274.6" font-family="Times,serif" font-size="14.00" fill="#000000">phosphorus&#45;containing</text>
<text text-anchor="middle" x="936.2732" y="-257.8" font-family="Times,serif" font-size="14.00" fill="#000000">anhydrides</text>
</g>
<!-- GO:0016462&#45;&gt;GO:0016818 -->
<g id="edge8" class="edge">
<title>GO:0016462&#45;&gt;GO:0016818</title>
<path fill="none" stroke="#000000" d="M936.2732,-213.4553C936.2732,-221.0198 936.2732,-230.0357 936.2732,-239.4015"/>
<polygon fill="#000000" stroke="#000000" points="932.7733,-239.6495 936.2732,-249.6496 939.7733,-239.6496 932.7733,-239.6495"/>
</g>
<!-- GO:0016817 -->
<g id="node11" class="node">
<title>GO:0016817</title>
<polygon fill="#ffffff" stroke="#000000" points="1016.2291,-453.0014 856.3173,-453.0014 856.3173,-394.1986 1016.2291,-394.1986 1016.2291,-453.0014"/>
<text text-anchor="middle" x="936.2732" y="-436.2" font-family="Times,serif" font-size="14.00" fill="#000000">GO:0016817</text>
<text text-anchor="middle" x="936.2732" y="-419.4" font-family="Times,serif" font-size="14.00" fill="#000000">hydrolase activity,</text>
<text text-anchor="middle" x="936.2732" y="-402.6" font-family="Times,serif" font-size="14.00" fill="#000000">acting on acid anhydrides</text>
</g>
<!-- GO:0016818&#45;&gt;GO:0016817 -->
<g id="edge9" class="edge">
<title>GO:0016818&#45;&gt;GO:0016817</title>
<path fill="none" stroke="#000000" d="M936.2732,-358.5502C936.2732,-367.2138 936.2732,-376.0255 936.2732,-384.2504"/>
<polygon fill="#000000" stroke="#000000" points="932.7733,-384.2995 936.2732,-394.2995 939.7733,-384.2995 932.7733,-384.2995"/>
</g>
<!-- GO:0016817&#45;&gt;GO:0016787 -->
<g id="edge10" class="edge">
<title>GO:0016817&#45;&gt;GO:0016787</title>
<path fill="none" stroke="#000000" d="M901.4496,-452.9513C887.1709,-464.9862 870.7381,-478.8367 856.7154,-490.6559"/>
<polygon fill="#000000" stroke="#000000" points="854.1627,-488.23 848.772,-497.351 858.674,-493.5824 854.1627,-488.23"/>
</g>
<!-- GO:0097367 -->
<g id="node12" class="node">
<title>GO:0097367</title>
<polygon fill="#ffffff" stroke="#000000" points="148.3203,-547.4014 .2261,-547.4014 .2261,-488.5986 148.3203,-488.5986 148.3203,-547.4014"/>
<text text-anchor="middle" x="74.2732" y="-530.6" font-family="Times,serif" font-size="14.00" fill="#000000">GO:0097367</text>
<text text-anchor="middle" x="74.2732" y="-513.8" font-family="Times,serif" font-size="14.00" fill="#000000">carbohydrate derivative</text>
<text text-anchor="middle" x="74.2732" y="-497" font-family="Times,serif" font-size="14.00" fill="#000000">binding</text>
</g>
<!-- GO:0005488 -->
<g id="node13" class="node">
<title>GO:0005488</title>
<polygon fill="#ffffff" stroke="#000000" points="459.8771,-624.6019 370.6693,-624.6019 370.6693,-583.3981 459.8771,-583.3981 459.8771,-624.6019"/>
<text text-anchor="middle" x="415.2732" y="-608.2" font-family="Times,serif" font-size="14.00" fill="#000000">GO:0005488</text>
<text text-anchor="middle" x="415.2732" y="-591.4" font-family="Times,serif" font-size="14.00" fill="#000000">binding</text>
</g>
<!-- GO:0097367&#45;&gt;GO:0005488 -->
<g id="edge11" class="edge">
<title>GO:0097367&#45;&gt;GO:0005488</title>
<path fill="none" stroke="#000000" d="M148.3414,-544.5594C151.3493,-545.4787 154.335,-546.3631 157.2732,-547.2 226.5394,-566.9298 307.9054,-583.8267 360.4647,-593.9425"/>
<polygon fill="#000000" stroke="#000000" points="360.1013,-597.4363 370.5804,-595.8741 361.4143,-590.5606 360.1013,-597.4363"/>
</g>
<!-- GO:0005488&#45;&gt;GO:0003674 -->
<g id="edge12" class="edge">
<title>GO:0005488&#45;&gt;GO:0003674</title>
<path fill="none" stroke="#000000" d="M451.7187,-624.7954C468.3352,-634.2766 488.1817,-645.6008 505.7666,-655.6345"/>
<polygon fill="#000000" stroke="#000000" points="504.3069,-658.8312 514.7271,-660.7472 507.7761,-652.7513 504.3069,-658.8312"/>
</g>
<!-- GO:0097159 -->
<g id="node14" class="node">
<title>GO:0097159</title>
<polygon fill="#ffffff" stroke="#000000" points="323.7846,-547.4014 166.7618,-547.4014 166.7618,-488.5986 323.7846,-488.5986 323.7846,-547.4014"/>
<text text-anchor="middle" x="245.2732" y="-530.6" font-family="Times,serif" font-size="14.00" fill="#000000">GO:0097159</text>
<text text-anchor="middle" x="245.2732" y="-513.8" font-family="Times,serif" font-size="14.00" fill="#000000">organic cyclic compound</text>
<text text-anchor="middle" x="245.2732" y="-497" font-family="Times,serif" font-size="14.00" fill="#000000">binding</text>
</g>
<!-- GO:0097159&#45;&gt;GO:0005488 -->
<g id="edge13" class="edge">
<title>GO:0097159&#45;&gt;GO:0005488</title>
<path fill="none" stroke="#000000" d="M303.3021,-547.3558C323.4799,-557.5634 345.9199,-568.9154 365.3811,-578.7605"/>
<polygon fill="#000000" stroke="#000000" points="363.8793,-581.9231 374.3824,-583.3141 367.0392,-575.6768 363.8793,-581.9231"/>
</g>
<!-- GO:0016740 -->
<g id="node15" class="node">
<title>GO:0016740</title>
<polygon fill="#ffffff" stroke="#000000" points="748.3849,-538.6019 626.1615,-538.6019 626.1615,-497.3981 748.3849,-497.3981 748.3849,-538.6019"/>
<text text-anchor="middle" x="687.2732" y="-522.2" font-family="Times,serif" font-size="14.00" fill="#000000">GO:0016740</text>
<text text-anchor="middle" x="687.2732" y="-505.4" font-family="Times,serif" font-size="14.00" fill="#000000">transferase activity</text>
</g>
<!-- GO:0016740&#45;&gt;GO:0003824 -->
<g id="edge14" class="edge">
<title>GO:0016740&#45;&gt;GO:0003824</title>
<path fill="none" stroke="#000000" d="M687.2732,-538.8182C687.2732,-549.1705 687.2732,-561.8848 687.2732,-573.3271"/>
<polygon fill="#000000" stroke="#000000" points="683.7733,-573.3735 687.2732,-583.3735 690.7733,-573.3735 683.7733,-573.3735"/>
</g>
<!-- GO:0003676 -->
<g id="node16" class="node">
<title>GO:0003676</title>
<polygon fill="#ffffff" stroke="#000000" points="385.8001,-444.2019 256.7463,-444.2019 256.7463,-402.9981 385.8001,-402.9981 385.8001,-444.2019"/>
<text text-anchor="middle" x="321.2732" y="-427.8" font-family="Times,serif" font-size="14.00" fill="#000000">GO:0003676</text>
<text text-anchor="middle" x="321.2732" y="-411" font-family="Times,serif" font-size="14.00" fill="#000000">nucleic acid binding</text>
</g>
<!-- GO:0003676&#45;&gt;GO:0097159 -->
<g id="edge15" class="edge">
<title>GO:0003676&#45;&gt;GO:0097159</title>
<path fill="none" stroke="#000000" d="M304.4063,-444.5504C295.8686,-455.1552 285.2439,-468.3522 275.3652,-480.6225"/>
<polygon fill="#000000" stroke="#000000" points="272.5555,-478.5313 269.0107,-488.5155 278.0081,-482.9211 272.5555,-478.5313"/>
</g>
<!-- GO:1901363 -->
<g id="node17" class="node">
<title>GO:1901363</title>
<polygon fill="#ffffff" stroke="#000000" points="488.7838,-547.4014 341.7626,-547.4014 341.7626,-488.5986 488.7838,-488.5986 488.7838,-547.4014"/>
<text text-anchor="middle" x="415.2732" y="-530.6" font-family="Times,serif" font-size="14.00" fill="#000000">GO:1901363</text>
<text text-anchor="middle" x="415.2732" y="-513.8" font-family="Times,serif" font-size="14.00" fill="#000000">heterocyclic compound</text>
<text text-anchor="middle" x="415.2732" y="-497" font-family="Times,serif" font-size="14.00" fill="#000000">binding</text>
</g>
<!-- GO:0003676&#45;&gt;GO:1901363 -->
<g id="edge16" class="edge">
<title>GO:0003676&#45;&gt;GO:1901363</title>
<path fill="none" stroke="#000000" d="M342.1348,-444.5504C352.8959,-455.3572 366.3373,-468.8559 378.7513,-481.3227"/>
<polygon fill="#000000" stroke="#000000" points="376.3774,-483.899 385.9136,-488.5155 381.3377,-478.9598 376.3774,-483.899"/>
</g>
<!-- GO:1901363&#45;&gt;GO:0005488 -->
<g id="edge17" class="edge">
<title>GO:1901363&#45;&gt;GO:0005488</title>
<path fill="none" stroke="#000000" d="M415.2732,-547.5963C415.2732,-555.8638 415.2732,-564.8657 415.2732,-573.2008"/>
<polygon fill="#000000" stroke="#000000" points="411.7733,-573.2965 415.2732,-583.2966 418.7733,-573.2966 411.7733,-573.2965"/>
</g>
<!-- GO:0042802 -->
<g id="node18" class="node">
<title>GO:0042802</title>
<polygon fill="#ffffff" stroke="#000000" points="633.9174,-444.2019 480.629,-444.2019 480.629,-402.9981 633.9174,-402.9981 633.9174,-444.2019"/>
<text text-anchor="middle" x="557.2732" y="-427.8" font-family="Times,serif" font-size="14.00" fill="#000000">GO:0042802</text>
<text text-anchor="middle" x="557.2732" y="-411" font-family="Times,serif" font-size="14.00" fill="#000000">identical protein binding</text>
</g>
<!-- GO:0005515 -->
<g id="node19" class="node">
<title>GO:0005515</title>
<polygon fill="#ffffff" stroke="#000000" points="608.2108,-538.6019 506.3356,-538.6019 506.3356,-497.3981 608.2108,-497.3981 608.2108,-538.6019"/>
<text text-anchor="middle" x="557.2732" y="-522.2" font-family="Times,serif" font-size="14.00" fill="#000000">GO:0005515</text>
<text text-anchor="middle" x="557.2732" y="-505.4" font-family="Times,serif" font-size="14.00" fill="#000000">protein binding</text>
</g>
<!-- GO:0042802&#45;&gt;GO:0005515 -->
<g id="edge18" class="edge">
<title>GO:0042802&#45;&gt;GO:0005515</title>
<path fill="none" stroke="#000000" d="M557.2732,-444.5504C557.2732,-457.0165 557.2732,-473.0645 557.2732,-486.9786"/>
<polygon fill="#000000" stroke="#000000" points="553.7733,-487.1081 557.2732,-497.1081 560.7733,-487.1082 553.7733,-487.1081"/>
</g>
<!-- GO:0005515&#45;&gt;GO:0005488 -->
<g id="edge19" class="edge">
<title>GO:0005515&#45;&gt;GO:0005488</title>
<path fill="none" stroke="#000000" d="M522.899,-538.8182C503.3638,-550.6494 478.7345,-565.5657 457.9681,-578.1425"/>
<polygon fill="#000000" stroke="#000000" points="456.0714,-575.1994 449.3309,-583.3735 459.6976,-581.1869 456.0714,-575.1994"/>
</g>
</g>
</svg>
