<?xml version="1.0" encoding="UTF-8" standalone="no"?>
<!DOCTYPE svg PUBLIC "-//W3C//DTD SVG 1.1//EN"
 "http://www.w3.org/Graphics/SVG/1.1/DTD/svg11.dtd">
<!-- Generated by graphviz version 2.40.1 (20161225.0304)
 -->
<!-- Title: G Pages: 1 -->
<svg width="622pt" height="377pt"
 viewBox="0.00 0.00 621.62 376.80" xmlns="http://www.w3.org/2000/svg" xmlns:xlink="http://www.w3.org/1999/xlink">
<g id="graph0" class="graph" transform="scale(1 1) rotate(0) translate(4 372.8)">
<title>G</title>
<polygon fill="#ffffff" stroke="transparent" points="-4,4 -4,-372.8 617.6235,-372.8 617.6235,4 -4,4"/>
<!-- GO:0016324 -->
<g id="node1" class="node">
<title>GO:0016324</title>
<polygon fill="#ffffff" stroke="#000000" points="353.124,-41.4019 197.7926,-41.4019 197.7926,-.1981 353.124,-.1981 353.124,-41.4019"/>
<text text-anchor="middle" x="275.4583" y="-25" font-family="Times,serif" font-size="14.00" fill="#000000">GO:0016324</text>
<text text-anchor="middle" x="275.4583" y="-8.2" font-family="Times,serif" font-size="14.00" fill="#000000">apical plasma membrane</text>
</g>
<!-- GO:0098590 -->
<g id="node2" class="node">
<title>GO:0098590</title>
<polygon fill="#ffffff" stroke="#000000" points="353.9655,-119.0019 196.9511,-119.0019 196.9511,-77.7981 353.9655,-77.7981 353.9655,-119.0019"/>
<text text-anchor="middle" x="275.4583" y="-102.6" font-family="Times,serif" font-size="14.00" fill="#000000">GO:0098590</text>
<text text-anchor="middle" x="275.4583" y="-85.8" font-family="Times,serif" font-size="14.00" fill="#000000">plasma membrane region</text>
</g>
<!-- GO:0016324&#45;&gt;GO:0098590 -->
<g id="edge1" class="edge">
<title>GO:0016324&#45;&gt;GO:0098590</title>
<path fill="none" stroke="#000000" d="M275.4583,-41.5954C275.4583,-49.5109 275.4583,-58.7109 275.4583,-67.3722"/>
<polygon fill="#000000" stroke="#000000" points="271.9584,-67.5472 275.4583,-77.5472 278.9584,-67.5473 271.9584,-67.5472"/>
</g>
<!-- GO:0016020 -->
<g id="node3" class="node">
<title>GO:0016020</title>
<polygon fill="#ffffff" stroke="#000000" points="466.0622,-291.0019 376.8544,-291.0019 376.8544,-249.7981 466.0622,-249.7981 466.0622,-291.0019"/>
<text text-anchor="middle" x="421.4583" y="-274.6" font-family="Times,serif" font-size="14.00" fill="#000000">GO:0016020</text>
<text text-anchor="middle" x="421.4583" y="-257.8" font-family="Times,serif" font-size="14.00" fill="#000000">membrane</text>
</g>
<!-- GO:0098590&#45;&gt;GO:0016020 -->
<g id="edge2" class="edge">
<title>GO:0098590&#45;&gt;GO:0016020</title>
<path fill="none" stroke="#000000" d="M354.0471,-113.1896C377.5155,-121.5714 400.854,-134.6871 415.4583,-155.2 432.7361,-179.4681 431.961,-214.4284 428.279,-239.4618"/>
<polygon fill="#000000" stroke="#000000" points="424.7942,-239.0771 426.5671,-249.5226 431.695,-240.2514 424.7942,-239.0771"/>
</g>
<!-- GO:0044459 -->
<g id="node4" class="node">
<title>GO:0044459</title>
<polygon fill="#ffffff" stroke="#000000" points="269.9655,-205.0019 126.9511,-205.0019 126.9511,-163.7981 269.9655,-163.7981 269.9655,-205.0019"/>
<text text-anchor="middle" x="198.4583" y="-188.6" font-family="Times,serif" font-size="14.00" fill="#000000">GO:0044459</text>
<text text-anchor="middle" x="198.4583" y="-171.8" font-family="Times,serif" font-size="14.00" fill="#000000">plasma membrane part</text>
</g>
<!-- GO:0098590&#45;&gt;GO:0044459 -->
<g id="edge3" class="edge">
<title>GO:0098590&#45;&gt;GO:0044459</title>
<path fill="none" stroke="#000000" d="M256.8187,-119.2182C246.8878,-130.3099 234.529,-144.1132 223.7445,-156.1583"/>
<polygon fill="#000000" stroke="#000000" points="220.9892,-153.9887 216.9262,-163.7735 226.2043,-158.658 220.9892,-153.9887"/>
</g>
<!-- GO:0005575 -->
<g id="node5" class="node">
<title>GO:0005575</title>
<polygon fill="#ffffff" stroke="#000000" points="485.145,-368.6019 357.7716,-368.6019 357.7716,-327.3981 485.145,-327.3981 485.145,-368.6019"/>
<text text-anchor="middle" x="421.4583" y="-352.2" font-family="Times,serif" font-size="14.00" fill="#000000">GO:0005575</text>
<text text-anchor="middle" x="421.4583" y="-335.4" font-family="Times,serif" font-size="14.00" fill="#000000">cellular_component</text>
</g>
<!-- GO:0016020&#45;&gt;GO:0005575 -->
<g id="edge4" class="edge">
<title>GO:0016020&#45;&gt;GO:0005575</title>
<path fill="none" stroke="#000000" d="M421.4583,-291.1954C421.4583,-299.1109 421.4583,-308.3109 421.4583,-316.9722"/>
<polygon fill="#000000" stroke="#000000" points="417.9584,-317.1472 421.4583,-327.1472 424.9584,-317.1473 417.9584,-317.1472"/>
</g>
<!-- GO:0044425 -->
<g id="node6" class="node">
<title>GO:0044425</title>
<polygon fill="#ffffff" stroke="#000000" points="358.8103,-291.0019 258.1063,-291.0019 258.1063,-249.7981 358.8103,-249.7981 358.8103,-291.0019"/>
<text text-anchor="middle" x="308.4583" y="-274.6" font-family="Times,serif" font-size="14.00" fill="#000000">GO:0044425</text>
<text text-anchor="middle" x="308.4583" y="-257.8" font-family="Times,serif" font-size="14.00" fill="#000000">membrane part</text>
</g>
<!-- GO:0044459&#45;&gt;GO:0044425 -->
<g id="edge5" class="edge">
<title>GO:0044459&#45;&gt;GO:0044425</title>
<path fill="none" stroke="#000000" d="M225.0862,-205.2182C239.8138,-216.7325 258.2789,-231.1688 274.0858,-243.5269"/>
<polygon fill="#000000" stroke="#000000" points="272.0418,-246.3716 282.0756,-249.7735 276.3532,-240.8569 272.0418,-246.3716"/>
</g>
<!-- GO:0044464 -->
<g id="node7" class="node">
<title>GO:0044464</title>
<polygon fill="#ff0000" stroke="#000000" points="240.0622,-291.0019 150.8544,-291.0019 150.8544,-249.7981 240.0622,-249.7981 240.0622,-291.0019"/>
<text text-anchor="middle" x="195.4583" y="-274.6" font-family="Times,serif" font-size="14.00" fill="#000000">GO:0044464</text>
<text text-anchor="middle" x="195.4583" y="-257.8" font-family="Times,serif" font-size="14.00" fill="#000000">cell part</text>
</g>
<!-- GO:0044459&#45;&gt;GO:0044464 -->
<g id="edge6" class="edge">
<title>GO:0044459&#45;&gt;GO:0044464</title>
<path fill="none" stroke="#000000" d="M197.7321,-205.2182C197.371,-215.5705 196.9274,-228.2848 196.5283,-239.7271"/>
<polygon fill="#000000" stroke="#000000" points="193.0287,-239.6575 196.1778,-249.7735 200.0244,-239.9016 193.0287,-239.6575"/>
</g>
<!-- GO:0044464&#45;&gt;GO:0005575 -->
<g id="edge10" class="edge">
<title>GO:0044464&#45;&gt;GO:0005575</title>
<path fill="none" stroke="#000000" d="M240.1848,-287.8207C243.3169,-288.9812 246.431,-290.1178 249.4583,-291.2 281.5226,-302.662 317.2342,-314.5897 347.7711,-324.5384"/>
<polygon fill="#000000" stroke="#000000" points="346.9005,-327.9356 357.4927,-327.6959 349.0629,-321.278 346.9005,-327.9356"/>
</g>
<!-- GO:0005829 -->
<g id="node8" class="node">
<title>GO:0005829</title>
<polygon fill="#ff00ff" stroke="#000000" points="99.0622,-41.4019 9.8544,-41.4019 9.8544,-.1981 99.0622,-.1981 99.0622,-41.4019"/>
<text text-anchor="middle" x="54.4583" y="-25" font-family="Times,serif" font-size="14.00" fill="#000000">GO:0005829</text>
<text text-anchor="middle" x="54.4583" y="-8.2" font-family="Times,serif" font-size="14.00" fill="#000000">cytosol</text>
</g>
<!-- GO:0044444 -->
<g id="node9" class="node">
<title>GO:0044444</title>
<polygon fill="#00ffff" stroke="#000000" points="108.8749,-119.0019 .0417,-119.0019 .0417,-77.7981 108.8749,-77.7981 108.8749,-119.0019"/>
<text text-anchor="middle" x="54.4583" y="-102.6" font-family="Times,serif" font-size="14.00" fill="#000000">GO:0044444</text>
<text text-anchor="middle" x="54.4583" y="-85.8" font-family="Times,serif" font-size="14.00" fill="#000000">cytoplasmic part</text>
</g>
<!-- GO:0005829&#45;&gt;GO:0044444 -->
<g id="edge7" class="edge">
<title>GO:0005829&#45;&gt;GO:0044444</title>
<path fill="none" stroke="#000000" d="M54.4583,-41.5954C54.4583,-49.5109 54.4583,-58.7109 54.4583,-67.3722"/>
<polygon fill="#000000" stroke="#000000" points="50.9584,-67.5472 54.4583,-77.5472 57.9584,-67.5473 50.9584,-67.5472"/>
</g>
<!-- GO:0044424 -->
<g id="node10" class="node">
<title>GO:0044424</title>
<polygon fill="#ffffff" stroke="#000000" points="108.8567,-205.0019 .0599,-205.0019 .0599,-163.7981 108.8567,-163.7981 108.8567,-205.0019"/>
<text text-anchor="middle" x="54.4583" y="-188.6" font-family="Times,serif" font-size="14.00" fill="#000000">GO:0044424</text>
<text text-anchor="middle" x="54.4583" y="-171.8" font-family="Times,serif" font-size="14.00" fill="#000000">intracellular part</text>
</g>
<!-- GO:0044444&#45;&gt;GO:0044424 -->
<g id="edge8" class="edge">
<title>GO:0044444&#45;&gt;GO:0044424</title>
<path fill="none" stroke="#000000" d="M54.4583,-119.2182C54.4583,-129.5705 54.4583,-142.2848 54.4583,-153.7271"/>
<polygon fill="#000000" stroke="#000000" points="50.9584,-153.7735 54.4583,-163.7735 57.9584,-153.7735 50.9584,-153.7735"/>
</g>
<!-- GO:0044424&#45;&gt;GO:0044464 -->
<g id="edge9" class="edge">
<title>GO:0044424&#45;&gt;GO:0044464</title>
<path fill="none" stroke="#000000" d="M88.5905,-205.2182C107.9881,-217.0494 132.444,-231.9657 153.064,-244.5425"/>
<polygon fill="#000000" stroke="#000000" points="151.2806,-247.5544 161.6405,-249.7735 154.9257,-241.5783 151.2806,-247.5544"/>
</g>
<!-- GO:0031988 -->
<g id="node11" class="node">
<title>GO:0031988</title>
<polygon fill="#ffffff" stroke="#000000" points="613.789,-41.4019 443.1276,-41.4019 443.1276,-.1981 613.789,-.1981 613.789,-41.4019"/>
<text text-anchor="middle" x="528.4583" y="-25" font-family="Times,serif" font-size="14.00" fill="#000000">GO:0031988</text>
<text text-anchor="middle" x="528.4583" y="-8.2" font-family="Times,serif" font-size="14.00" fill="#000000">membrane&#45;bounded vesicle</text>
</g>
<!-- GO:0031982 -->
<g id="node12" class="node">
<title>GO:0031982</title>
<polygon fill="#ffffff" stroke="#000000" points="573.0622,-119.0019 483.8544,-119.0019 483.8544,-77.7981 573.0622,-77.7981 573.0622,-119.0019"/>
<text text-anchor="middle" x="528.4583" y="-102.6" font-family="Times,serif" font-size="14.00" fill="#000000">GO:0031982</text>
<text text-anchor="middle" x="528.4583" y="-85.8" font-family="Times,serif" font-size="14.00" fill="#000000">vesicle</text>
</g>
<!-- GO:0031988&#45;&gt;GO:0031982 -->
<g id="edge11" class="edge">
<title>GO:0031988&#45;&gt;GO:0031982</title>
<path fill="none" stroke="#000000" d="M528.4583,-41.5954C528.4583,-49.5109 528.4583,-58.7109 528.4583,-67.3722"/>
<polygon fill="#000000" stroke="#000000" points="524.9584,-67.5472 528.4583,-77.5472 531.9584,-67.5473 524.9584,-67.5472"/>
</g>
<!-- GO:0043227 -->
<g id="node13" class="node">
<title>GO:0043227</title>
<polygon fill="#ffffff" stroke="#000000" points="592.4191,-213.8014 464.4975,-213.8014 464.4975,-154.9986 592.4191,-154.9986 592.4191,-213.8014"/>
<text text-anchor="middle" x="528.4583" y="-197" font-family="Times,serif" font-size="14.00" fill="#000000">GO:0043227</text>
<text text-anchor="middle" x="528.4583" y="-180.2" font-family="Times,serif" font-size="14.00" fill="#000000">membrane&#45;bounded</text>
<text text-anchor="middle" x="528.4583" y="-163.4" font-family="Times,serif" font-size="14.00" fill="#000000">organelle</text>
</g>
<!-- GO:0031982&#45;&gt;GO:0043227 -->
<g id="edge12" class="edge">
<title>GO:0031982&#45;&gt;GO:0043227</title>
<path fill="none" stroke="#000000" d="M528.4583,-119.2182C528.4583,-126.9358 528.4583,-135.9662 528.4583,-144.8036"/>
<polygon fill="#000000" stroke="#000000" points="524.9584,-144.9991 528.4583,-154.9991 531.9584,-144.9992 524.9584,-144.9991"/>
</g>
<!-- GO:0043226 -->
<g id="node14" class="node">
<title>GO:0043226</title>
<polygon fill="#ffffff" stroke="#000000" points="573.0622,-291.0019 483.8544,-291.0019 483.8544,-249.7981 573.0622,-249.7981 573.0622,-291.0019"/>
<text text-anchor="middle" x="528.4583" y="-274.6" font-family="Times,serif" font-size="14.00" fill="#000000">GO:0043226</text>
<text text-anchor="middle" x="528.4583" y="-257.8" font-family="Times,serif" font-size="14.00" fill="#000000">organelle</text>
</g>
<!-- GO:0043227&#45;&gt;GO:0043226 -->
<g id="edge13" class="edge">
<title>GO:0043227&#45;&gt;GO:0043226</title>
<path fill="none" stroke="#000000" d="M528.4583,-213.9963C528.4583,-222.2638 528.4583,-231.2657 528.4583,-239.6008"/>
<polygon fill="#000000" stroke="#000000" points="524.9584,-239.6965 528.4583,-249.6966 531.9584,-239.6966 524.9584,-239.6965"/>
</g>
<!-- GO:0043226&#45;&gt;GO:0005575 -->
<g id="edge14" class="edge">
<title>GO:0043226&#45;&gt;GO:0005575</title>
<path fill="none" stroke="#000000" d="M499.7843,-291.1954C487.0708,-300.4156 471.954,-311.3788 458.4076,-321.2031"/>
<polygon fill="#000000" stroke="#000000" points="456.2519,-318.4429 450.2115,-327.1472 460.3615,-324.1096 456.2519,-318.4429"/>
</g>
<!-- GO:0005886 -->
<g id="node15" class="node">
<title>GO:0005886</title>
<polygon fill="#ff00ff" stroke="#000000" points="406.6991,-205.0019 288.2175,-205.0019 288.2175,-163.7981 406.6991,-163.7981 406.6991,-205.0019"/>
<text text-anchor="middle" x="347.4583" y="-188.6" font-family="Times,serif" font-size="14.00" fill="#000000">GO:0005886</text>
<text text-anchor="middle" x="347.4583" y="-171.8" font-family="Times,serif" font-size="14.00" fill="#000000">plasma membrane</text>
</g>
<!-- GO:0005886&#45;&gt;GO:0016020 -->
<g id="edge15" class="edge">
<title>GO:0005886&#45;&gt;GO:0016020</title>
<path fill="none" stroke="#000000" d="M365.3716,-205.2182C374.9157,-216.3099 386.7929,-230.1132 397.1573,-242.1583"/>
<polygon fill="#000000" stroke="#000000" points="394.5344,-244.4762 403.7099,-249.7735 399.8405,-239.9105 394.5344,-244.4762"/>
</g>
<!-- GO:0005886&#45;&gt;GO:0044464 -->
<g id="edge16" class="edge">
<title>GO:0005886&#45;&gt;GO:0044464</title>
<path fill="none" stroke="#000000" d="M310.6633,-205.2182C289.6591,-217.1022 263.1532,-232.099 240.8624,-244.7108"/>
<polygon fill="#000000" stroke="#000000" points="238.8944,-241.8029 231.9144,-249.7735 242.3415,-247.8953 238.8944,-241.8029"/>
</g>
</g>
</svg>
