<?xml version="1.0" encoding="UTF-8" standalone="no"?>
<!DOCTYPE svg PUBLIC "-//W3C//DTD SVG 1.1//EN"
 "http://www.w3.org/Graphics/SVG/1.1/DTD/svg11.dtd">
<!-- Generated by graphviz version 2.40.1 (20161225.0304)
 -->
<!-- Title: G Pages: 1 -->
<svg width="942pt" height="316pt"
 viewBox="0.00 0.00 942.09 316.00" xmlns="http://www.w3.org/2000/svg" xmlns:xlink="http://www.w3.org/1999/xlink">
<g id="graph0" class="graph" transform="scale(1 1) rotate(0) translate(4 312)">
<title>G</title>
<polygon fill="#ffffff" stroke="transparent" points="-4,4 -4,-312 938.0902,-312 938.0902,4 -4,4"/>
<!-- GO:0044238 -->
<g id="node1" class="node">
<title>GO:0044238</title>
<polygon fill="#ff00ff" stroke="#000000" points="164.2541,-144.2019 .2481,-144.2019 .2481,-102.9981 164.2541,-102.9981 164.2541,-144.2019"/>
<text text-anchor="middle" x="82.2511" y="-127.8" font-family="Times,serif" font-size="14.00" fill="#000000">GO:0044238</text>
<text text-anchor="middle" x="82.2511" y="-111" font-family="Times,serif" font-size="14.00" fill="#000000">primary metabolic process</text>
</g>
<!-- GO:0008152 -->
<g id="node2" class="node">
<title>GO:0008152</title>
<polygon fill="#00ff00" stroke="#000000" points="456.4367,-230.2019 340.0655,-230.2019 340.0655,-188.9981 456.4367,-188.9981 456.4367,-230.2019"/>
<text text-anchor="middle" x="398.2511" y="-213.8" font-family="Times,serif" font-size="14.00" fill="#000000">GO:0008152</text>
<text text-anchor="middle" x="398.2511" y="-197" font-family="Times,serif" font-size="14.00" fill="#000000">metabolic process</text>
</g>
<!-- GO:0044238&#45;&gt;GO:0008152 -->
<g id="edge1" class="edge">
<title>GO:0044238&#45;&gt;GO:0008152</title>
<path fill="none" stroke="#000000" d="M144.7515,-144.2283C154.269,-147.2032 163.9996,-150.1508 173.2511,-152.8 225.4627,-167.7509 285.0767,-182.706 329.8196,-193.5152"/>
<polygon fill="#000000" stroke="#000000" points="329.1651,-196.9576 339.7065,-195.8948 330.8031,-190.1519 329.1651,-196.9576"/>
</g>
<!-- GO:0008150 -->
<g id="node3" class="node">
<title>GO:0008150</title>
<polygon fill="#ffffff" stroke="#000000" points="613.7217,-307.8019 492.7805,-307.8019 492.7805,-266.5981 613.7217,-266.5981 613.7217,-307.8019"/>
<text text-anchor="middle" x="553.2511" y="-291.4" font-family="Times,serif" font-size="14.00" fill="#000000">GO:0008150</text>
<text text-anchor="middle" x="553.2511" y="-274.6" font-family="Times,serif" font-size="14.00" fill="#000000">biological_process</text>
</g>
<!-- GO:0008152&#45;&gt;GO:0008150 -->
<g id="edge2" class="edge">
<title>GO:0008152&#45;&gt;GO:0008150</title>
<path fill="none" stroke="#000000" d="M439.7883,-230.3954C459.1514,-240.0895 482.3631,-251.7102 502.7331,-261.9084"/>
<polygon fill="#000000" stroke="#000000" points="501.3594,-265.1348 511.8683,-266.4819 504.4932,-258.8754 501.3594,-265.1348"/>
</g>
<!-- GO:0044710 -->
<g id="node4" class="node">
<title>GO:0044710</title>
<polygon fill="#ffffff" stroke="#000000" points="629.6593,-153.0014 464.8429,-153.0014 464.8429,-94.1986 629.6593,-94.1986 629.6593,-153.0014"/>
<text text-anchor="middle" x="547.2511" y="-136.2" font-family="Times,serif" font-size="14.00" fill="#000000">GO:0044710</text>
<text text-anchor="middle" x="547.2511" y="-119.4" font-family="Times,serif" font-size="14.00" fill="#000000">single&#45;organism metabolic</text>
<text text-anchor="middle" x="547.2511" y="-102.6" font-family="Times,serif" font-size="14.00" fill="#000000">process</text>
</g>
<!-- GO:0044710&#45;&gt;GO:0008152 -->
<g id="edge3" class="edge">
<title>GO:0044710&#45;&gt;GO:0008152</title>
<path fill="none" stroke="#000000" d="M496.3905,-152.9558C479.1765,-162.8914 460.084,-173.9112 443.349,-183.5703"/>
<polygon fill="#000000" stroke="#000000" points="441.2326,-180.7507 434.3213,-188.7809 444.7319,-186.8133 441.2326,-180.7507"/>
</g>
<!-- GO:0044699 -->
<g id="node5" class="node">
<title>GO:0044699</title>
<polygon fill="#ffffff" stroke="#000000" points="628.9324,-230.2019 477.5698,-230.2019 477.5698,-188.9981 628.9324,-188.9981 628.9324,-230.2019"/>
<text text-anchor="middle" x="553.2511" y="-213.8" font-family="Times,serif" font-size="14.00" fill="#000000">GO:0044699</text>
<text text-anchor="middle" x="553.2511" y="-197" font-family="Times,serif" font-size="14.00" fill="#000000">single&#45;organism process</text>
</g>
<!-- GO:0044710&#45;&gt;GO:0044699 -->
<g id="edge4" class="edge">
<title>GO:0044710&#45;&gt;GO:0044699</title>
<path fill="none" stroke="#000000" d="M549.316,-153.1963C549.8928,-161.4638 550.5208,-170.4657 551.1023,-178.8008"/>
<polygon fill="#000000" stroke="#000000" points="547.6191,-179.1644 551.8067,-188.8966 554.6021,-178.6772 547.6191,-179.1644"/>
</g>
<!-- GO:0044699&#45;&gt;GO:0008150 -->
<g id="edge5" class="edge">
<title>GO:0044699&#45;&gt;GO:0008150</title>
<path fill="none" stroke="#000000" d="M553.2511,-230.3954C553.2511,-238.3109 553.2511,-247.5109 553.2511,-256.1722"/>
<polygon fill="#000000" stroke="#000000" points="549.7512,-256.3472 553.2511,-266.3472 556.7512,-256.3473 549.7512,-256.3472"/>
</g>
<!-- GO:0044249 -->
<g id="node6" class="node">
<title>GO:0044249</title>
<polygon fill="#ffffff" stroke="#000000" points="541.1635,-58.6014 411.3387,-58.6014 411.3387,.2014 541.1635,.2014 541.1635,-58.6014"/>
<text text-anchor="middle" x="476.2511" y="-41.8" font-family="Times,serif" font-size="14.00" fill="#000000">GO:0044249</text>
<text text-anchor="middle" x="476.2511" y="-25" font-family="Times,serif" font-size="14.00" fill="#000000">cellular biosynthetic</text>
<text text-anchor="middle" x="476.2511" y="-8.2" font-family="Times,serif" font-size="14.00" fill="#000000">process</text>
</g>
<!-- GO:0009058 -->
<g id="node7" class="node">
<title>GO:0009058</title>
<polygon fill="#ffffff" stroke="#000000" points="312.1663,-144.2019 182.3359,-144.2019 182.3359,-102.9981 312.1663,-102.9981 312.1663,-144.2019"/>
<text text-anchor="middle" x="247.2511" y="-127.8" font-family="Times,serif" font-size="14.00" fill="#000000">GO:0009058</text>
<text text-anchor="middle" x="247.2511" y="-111" font-family="Times,serif" font-size="14.00" fill="#000000">biosynthetic process</text>
</g>
<!-- GO:0044249&#45;&gt;GO:0009058 -->
<g id="edge6" class="edge">
<title>GO:0044249&#45;&gt;GO:0009058</title>
<path fill="none" stroke="#000000" d="M411.2414,-55.9987C378.3856,-69.5428 338.7974,-85.8621 306.7493,-99.0732"/>
<polygon fill="#000000" stroke="#000000" points="305.4042,-95.8419 297.4928,-102.889 308.0721,-102.3136 305.4042,-95.8419"/>
</g>
<!-- GO:0044237 -->
<g id="node8" class="node">
<title>GO:0044237</title>
<polygon fill="#ffffff" stroke="#000000" points="764.4339,-153.0014 648.0683,-153.0014 648.0683,-94.1986 764.4339,-94.1986 764.4339,-153.0014"/>
<text text-anchor="middle" x="706.2511" y="-136.2" font-family="Times,serif" font-size="14.00" fill="#000000">GO:0044237</text>
<text text-anchor="middle" x="706.2511" y="-119.4" font-family="Times,serif" font-size="14.00" fill="#000000">cellular metabolic</text>
<text text-anchor="middle" x="706.2511" y="-102.6" font-family="Times,serif" font-size="14.00" fill="#000000">process</text>
</g>
<!-- GO:0044249&#45;&gt;GO:0044237 -->
<g id="edge7" class="edge">
<title>GO:0044249&#45;&gt;GO:0044237</title>
<path fill="none" stroke="#000000" d="M541.4221,-55.0334C571.0357,-66.8737 606.4789,-81.1867 638.2511,-94.4 638.3512,-94.4416 638.4514,-94.4833 638.5516,-94.525"/>
<polygon fill="#000000" stroke="#000000" points="637.474,-97.8682 648.0498,-98.5036 640.1785,-91.4118 637.474,-97.8682"/>
</g>
<!-- GO:0009058&#45;&gt;GO:0008152 -->
<g id="edge8" class="edge">
<title>GO:0009058&#45;&gt;GO:0008152</title>
<path fill="none" stroke="#000000" d="M283.804,-144.4182C304.6701,-156.3022 331.0016,-171.299 353.1457,-183.9108"/>
<polygon fill="#000000" stroke="#000000" points="351.6131,-187.0658 362.0348,-188.9735 355.0775,-180.9831 351.6131,-187.0658"/>
</g>
<!-- GO:0044237&#45;&gt;GO:0008152 -->
<g id="edge10" class="edge">
<title>GO:0044237&#45;&gt;GO:0008152</title>
<path fill="none" stroke="#000000" d="M647.9235,-149.5119C644.674,-150.6841 641.4352,-151.7901 638.2511,-152.8 564.6343,-176.1497 543.1049,-169.7857 468.2511,-188.8 467.6559,-188.9512 467.0582,-189.1041 466.4582,-189.2586"/>
<polygon fill="#000000" stroke="#000000" points="465.3566,-185.9299 456.5928,-191.8835 467.1565,-192.6945 465.3566,-185.9299"/>
</g>
<!-- GO:0009987 -->
<g id="node9" class="node">
<title>GO:0009987</title>
<polygon fill="#ffffff" stroke="#000000" points="758.2073,-230.2019 654.2949,-230.2019 654.2949,-188.9981 758.2073,-188.9981 758.2073,-230.2019"/>
<text text-anchor="middle" x="706.2511" y="-213.8" font-family="Times,serif" font-size="14.00" fill="#000000">GO:0009987</text>
<text text-anchor="middle" x="706.2511" y="-197" font-family="Times,serif" font-size="14.00" fill="#000000">cellular process</text>
</g>
<!-- GO:0044237&#45;&gt;GO:0009987 -->
<g id="edge9" class="edge">
<title>GO:0044237&#45;&gt;GO:0009987</title>
<path fill="none" stroke="#000000" d="M706.2511,-153.1963C706.2511,-161.4638 706.2511,-170.4657 706.2511,-178.8008"/>
<polygon fill="#000000" stroke="#000000" points="702.7512,-178.8965 706.2511,-188.8966 709.7512,-178.8966 702.7512,-178.8965"/>
</g>
<!-- GO:0009987&#45;&gt;GO:0008150 -->
<g id="edge11" class="edge">
<title>GO:0009987&#45;&gt;GO:0008150</title>
<path fill="none" stroke="#000000" d="M665.2499,-230.3954C646.1366,-240.0895 623.2245,-251.7102 603.1173,-261.9084"/>
<polygon fill="#000000" stroke="#000000" points="601.4353,-258.837 594.1,-266.4819 604.6016,-265.0799 601.4353,-258.837"/>
</g>
<!-- GO:0071704 -->
<g id="node10" class="node">
<title>GO:0071704</title>
<polygon fill="#ff00ff" stroke="#000000" points="446.4367,-153.0014 330.0655,-153.0014 330.0655,-94.1986 446.4367,-94.1986 446.4367,-153.0014"/>
<text text-anchor="middle" x="388.2511" y="-136.2" font-family="Times,serif" font-size="14.00" fill="#000000">GO:0071704</text>
<text text-anchor="middle" x="388.2511" y="-119.4" font-family="Times,serif" font-size="14.00" fill="#000000">organic substance</text>
<text text-anchor="middle" x="388.2511" y="-102.6" font-family="Times,serif" font-size="14.00" fill="#000000">metabolic process</text>
</g>
<!-- GO:0071704&#45;&gt;GO:0008152 -->
<g id="edge12" class="edge">
<title>GO:0071704&#45;&gt;GO:0008152</title>
<path fill="none" stroke="#000000" d="M391.6925,-153.1963C392.6539,-161.4638 393.7006,-170.4657 394.6698,-178.8008"/>
<polygon fill="#000000" stroke="#000000" points="391.2121,-179.3678 395.8437,-188.8966 398.1652,-178.5592 391.2121,-179.3678"/>
</g>
<!-- GO:0044763 -->
<g id="node11" class="node">
<title>GO:0044763</title>
<polygon fill="#ffffff" stroke="#000000" points="933.9296,-153.0014 782.5726,-153.0014 782.5726,-94.1986 933.9296,-94.1986 933.9296,-153.0014"/>
<text text-anchor="middle" x="858.2511" y="-136.2" font-family="Times,serif" font-size="14.00" fill="#000000">GO:0044763</text>
<text text-anchor="middle" x="858.2511" y="-119.4" font-family="Times,serif" font-size="14.00" fill="#000000">single&#45;organism cellular</text>
<text text-anchor="middle" x="858.2511" y="-102.6" font-family="Times,serif" font-size="14.00" fill="#000000">process</text>
</g>
<!-- GO:0044763&#45;&gt;GO:0044699 -->
<g id="edge14" class="edge">
<title>GO:0044763&#45;&gt;GO:0044699</title>
<path fill="none" stroke="#000000" d="M782.3465,-150.0045C779.2805,-150.9667 776.2399,-151.9023 773.2511,-152.8 729.2748,-166.0085 679.8054,-178.9486 638.9305,-189.1336"/>
<polygon fill="#000000" stroke="#000000" points="637.8665,-185.7913 629.0029,-191.5953 639.5514,-192.5855 637.8665,-185.7913"/>
</g>
<!-- GO:0044763&#45;&gt;GO:0009987 -->
<g id="edge13" class="edge">
<title>GO:0044763&#45;&gt;GO:0009987</title>
<path fill="none" stroke="#000000" d="M806.3665,-152.9558C788.6432,-162.9834 768.9681,-174.1154 751.7835,-183.8383"/>
<polygon fill="#000000" stroke="#000000" points="750.0275,-180.8103 743.0476,-188.7809 753.4746,-186.9028 750.0275,-180.8103"/>
</g>
</g>
</svg>
