<?xml version="1.0" encoding="UTF-8" standalone="no"?>
<!DOCTYPE svg PUBLIC "-//W3C//DTD SVG 1.1//EN"
 "http://www.w3.org/Graphics/SVG/1.1/DTD/svg11.dtd">
<!-- Generated by graphviz version 2.40.1 (20161225.0304)
 -->
<!-- Title: G Pages: 1 -->
<svg width="1373pt" height="677pt"
 viewBox="0.00 0.00 1372.94 676.80" xmlns="http://www.w3.org/2000/svg" xmlns:xlink="http://www.w3.org/1999/xlink">
<g id="graph0" class="graph" transform="scale(1 1) rotate(0) translate(4 672.8)">
<title>G</title>
<polygon fill="#ffffff" stroke="transparent" points="-4,4 -4,-672.8 1368.9373,-672.8 1368.9373,4 -4,4"/>
<!-- GO:0019897 -->
<g id="node1" class="node">
<title>GO:0019897</title>
<polygon fill="#ffffff" stroke="#000000" points="145.1158,-419.4014 -.0386,-419.4014 -.0386,-360.5986 145.1158,-360.5986 145.1158,-419.4014"/>
<text text-anchor="middle" x="72.5386" y="-402.6" font-family="Times,serif" font-size="14.00" fill="#000000">GO:0019897</text>
<text text-anchor="middle" x="72.5386" y="-385.8" font-family="Times,serif" font-size="14.00" fill="#000000">extrinsic component of</text>
<text text-anchor="middle" x="72.5386" y="-369" font-family="Times,serif" font-size="14.00" fill="#000000">plasma membrane</text>
</g>
<!-- GO:0044459 -->
<g id="node2" class="node">
<title>GO:0044459</title>
<polygon fill="#ffffff" stroke="#000000" points="423.0458,-505.0019 280.0314,-505.0019 280.0314,-463.7981 423.0458,-463.7981 423.0458,-505.0019"/>
<text text-anchor="middle" x="351.5386" y="-488.6" font-family="Times,serif" font-size="14.00" fill="#000000">GO:0044459</text>
<text text-anchor="middle" x="351.5386" y="-471.8" font-family="Times,serif" font-size="14.00" fill="#000000">plasma membrane part</text>
</g>
<!-- GO:0019897&#45;&gt;GO:0044459 -->
<g id="edge1" class="edge">
<title>GO:0019897&#45;&gt;GO:0044459</title>
<path fill="none" stroke="#000000" d="M145.3625,-416.3608C148.1209,-417.3249 150.8536,-418.2741 153.5386,-419.2 194.368,-433.2787 240.1574,-448.3998 277.4101,-460.532"/>
<polygon fill="#000000" stroke="#000000" points="276.5907,-463.9459 287.1829,-463.71 278.7555,-457.289 276.5907,-463.9459"/>
</g>
<!-- GO:0019898 -->
<g id="node3" class="node">
<title>GO:0019898</title>
<polygon fill="#ffffff" stroke="#000000" points="169.1158,-513.8014 23.9614,-513.8014 23.9614,-454.9986 169.1158,-454.9986 169.1158,-513.8014"/>
<text text-anchor="middle" x="96.5386" y="-497" font-family="Times,serif" font-size="14.00" fill="#000000">GO:0019898</text>
<text text-anchor="middle" x="96.5386" y="-480.2" font-family="Times,serif" font-size="14.00" fill="#000000">extrinsic component of</text>
<text text-anchor="middle" x="96.5386" y="-463.4" font-family="Times,serif" font-size="14.00" fill="#000000">membrane</text>
</g>
<!-- GO:0019897&#45;&gt;GO:0019898 -->
<g id="edge2" class="edge">
<title>GO:0019897&#45;&gt;GO:0019898</title>
<path fill="none" stroke="#000000" d="M80.0008,-419.3513C82.0777,-427.5206 84.3674,-436.5264 86.5638,-445.1657"/>
<polygon fill="#000000" stroke="#000000" points="83.2249,-446.2376 89.081,-455.0669 90.0091,-444.5128 83.2249,-446.2376"/>
</g>
<!-- GO:0044425 -->
<g id="node4" class="node">
<title>GO:0044425</title>
<polygon fill="#ffffff" stroke="#000000" points="401.8906,-591.0019 301.1866,-591.0019 301.1866,-549.7981 401.8906,-549.7981 401.8906,-591.0019"/>
<text text-anchor="middle" x="351.5386" y="-574.6" font-family="Times,serif" font-size="14.00" fill="#000000">GO:0044425</text>
<text text-anchor="middle" x="351.5386" y="-557.8" font-family="Times,serif" font-size="14.00" fill="#000000">membrane part</text>
</g>
<!-- GO:0044459&#45;&gt;GO:0044425 -->
<g id="edge3" class="edge">
<title>GO:0044459&#45;&gt;GO:0044425</title>
<path fill="none" stroke="#000000" d="M351.5386,-505.2182C351.5386,-515.5705 351.5386,-528.2848 351.5386,-539.7271"/>
<polygon fill="#000000" stroke="#000000" points="348.0387,-539.7735 351.5386,-549.7735 355.0387,-539.7735 348.0387,-539.7735"/>
</g>
<!-- GO:0044464 -->
<g id="node5" class="node">
<title>GO:0044464</title>
<polygon fill="#ffffff" stroke="#000000" points="720.1425,-591.0019 630.9347,-591.0019 630.9347,-549.7981 720.1425,-549.7981 720.1425,-591.0019"/>
<text text-anchor="middle" x="675.5386" y="-574.6" font-family="Times,serif" font-size="14.00" fill="#000000">GO:0044464</text>
<text text-anchor="middle" x="675.5386" y="-557.8" font-family="Times,serif" font-size="14.00" fill="#000000">cell part</text>
</g>
<!-- GO:0044459&#45;&gt;GO:0044464 -->
<g id="edge4" class="edge">
<title>GO:0044459&#45;&gt;GO:0044464</title>
<path fill="none" stroke="#000000" d="M423.4447,-503.4862C483.1174,-519.3252 566.7033,-541.5116 620.9825,-555.9191"/>
<polygon fill="#000000" stroke="#000000" points="620.201,-559.3328 630.7643,-558.5155 621.9969,-552.567 620.201,-559.3328"/>
</g>
<!-- GO:0019898&#45;&gt;GO:0044425 -->
<g id="edge5" class="edge">
<title>GO:0019898&#45;&gt;GO:0044425</title>
<path fill="none" stroke="#000000" d="M169.2701,-508.9291C208.0534,-522.0089 255.1841,-537.904 291.8028,-550.2538"/>
<polygon fill="#000000" stroke="#000000" points="290.7602,-553.5958 301.3544,-553.4751 292.9973,-546.9629 290.7602,-553.5958"/>
</g>
<!-- GO:0005575 -->
<g id="node6" class="node">
<title>GO:0005575</title>
<polygon fill="#ffffff" stroke="#000000" points="919.2253,-668.6019 791.8519,-668.6019 791.8519,-627.3981 919.2253,-627.3981 919.2253,-668.6019"/>
<text text-anchor="middle" x="855.5386" y="-652.2" font-family="Times,serif" font-size="14.00" fill="#000000">GO:0005575</text>
<text text-anchor="middle" x="855.5386" y="-635.4" font-family="Times,serif" font-size="14.00" fill="#000000">cellular_component</text>
</g>
<!-- GO:0044425&#45;&gt;GO:0005575 -->
<g id="edge6" class="edge">
<title>GO:0044425&#45;&gt;GO:0005575</title>
<path fill="none" stroke="#000000" d="M402.1716,-578.1959C491.5561,-591.9582 677.6639,-620.6129 781.4855,-636.5982"/>
<polygon fill="#000000" stroke="#000000" points="781.1606,-640.0893 791.5768,-638.1519 782.2259,-633.1708 781.1606,-640.0893"/>
</g>
<!-- GO:0044464&#45;&gt;GO:0005575 -->
<g id="edge7" class="edge">
<title>GO:0044464&#45;&gt;GO:0005575</title>
<path fill="none" stroke="#000000" d="M720.4959,-589.7816C744.0411,-599.9322 773.128,-612.4719 798.2696,-623.3107"/>
<polygon fill="#000000" stroke="#000000" points="797.1238,-626.6281 807.6924,-627.373 799.8951,-620.2 797.1238,-626.6281"/>
</g>
<!-- GO:0009330 -->
<g id="node7" class="node">
<title>GO:0009330</title>
<polygon fill="#ffffff" stroke="#000000" points="946.9346,-419.4014 764.1426,-419.4014 764.1426,-360.5986 946.9346,-360.5986 946.9346,-419.4014"/>
<text text-anchor="middle" x="855.5386" y="-402.6" font-family="Times,serif" font-size="14.00" fill="#000000">GO:0009330</text>
<text text-anchor="middle" x="855.5386" y="-385.8" font-family="Times,serif" font-size="14.00" fill="#000000">DNA topoisomerase complex</text>
<text text-anchor="middle" x="855.5386" y="-369" font-family="Times,serif" font-size="14.00" fill="#000000">(ATP&#45;hydrolyzing)</text>
</g>
<!-- GO:0043234 -->
<g id="node8" class="node">
<title>GO:0043234</title>
<polygon fill="#ffffff" stroke="#000000" points="909.406,-505.0019 801.6712,-505.0019 801.6712,-463.7981 909.406,-463.7981 909.406,-505.0019"/>
<text text-anchor="middle" x="855.5386" y="-488.6" font-family="Times,serif" font-size="14.00" fill="#000000">GO:0043234</text>
<text text-anchor="middle" x="855.5386" y="-471.8" font-family="Times,serif" font-size="14.00" fill="#000000">protein complex</text>
</g>
<!-- GO:0009330&#45;&gt;GO:0043234 -->
<g id="edge8" class="edge">
<title>GO:0009330&#45;&gt;GO:0043234</title>
<path fill="none" stroke="#000000" d="M855.5386,-419.3513C855.5386,-430.2614 855.5386,-442.6637 855.5386,-453.692"/>
<polygon fill="#000000" stroke="#000000" points="852.0387,-453.7509 855.5386,-463.751 859.0387,-453.751 852.0387,-453.7509"/>
</g>
<!-- GO:0044424 -->
<g id="node9" class="node">
<title>GO:0044424</title>
<polygon fill="#ffffff" stroke="#000000" points="745.937,-505.0019 637.1402,-505.0019 637.1402,-463.7981 745.937,-463.7981 745.937,-505.0019"/>
<text text-anchor="middle" x="691.5386" y="-488.6" font-family="Times,serif" font-size="14.00" fill="#000000">GO:0044424</text>
<text text-anchor="middle" x="691.5386" y="-471.8" font-family="Times,serif" font-size="14.00" fill="#000000">intracellular part</text>
</g>
<!-- GO:0009330&#45;&gt;GO:0044424 -->
<g id="edge9" class="edge">
<title>GO:0009330&#45;&gt;GO:0044424</title>
<path fill="none" stroke="#000000" d="M804.547,-419.3513C782.6618,-431.9486 757.3208,-446.5351 736.1886,-458.6991"/>
<polygon fill="#000000" stroke="#000000" points="734.3326,-455.7289 727.4119,-463.751 737.8247,-461.7956 734.3326,-455.7289"/>
</g>
<!-- GO:0032991 -->
<g id="node10" class="node">
<title>GO:0032991</title>
<polygon fill="#ffffff" stroke="#000000" points="934.7059,-591.0019 776.3713,-591.0019 776.3713,-549.7981 934.7059,-549.7981 934.7059,-591.0019"/>
<text text-anchor="middle" x="855.5386" y="-574.6" font-family="Times,serif" font-size="14.00" fill="#000000">GO:0032991</text>
<text text-anchor="middle" x="855.5386" y="-557.8" font-family="Times,serif" font-size="14.00" fill="#000000">macromolecular complex</text>
</g>
<!-- GO:0043234&#45;&gt;GO:0032991 -->
<g id="edge10" class="edge">
<title>GO:0043234&#45;&gt;GO:0032991</title>
<path fill="none" stroke="#000000" d="M855.5386,-505.2182C855.5386,-515.5705 855.5386,-528.2848 855.5386,-539.7271"/>
<polygon fill="#000000" stroke="#000000" points="852.0387,-539.7735 855.5386,-549.7735 859.0387,-539.7735 852.0387,-539.7735"/>
</g>
<!-- GO:0044424&#45;&gt;GO:0044464 -->
<g id="edge11" class="edge">
<title>GO:0044424&#45;&gt;GO:0044464</title>
<path fill="none" stroke="#000000" d="M687.6654,-505.2182C685.7394,-515.5705 683.374,-528.2848 681.2452,-539.7271"/>
<polygon fill="#000000" stroke="#000000" points="677.7643,-539.302 679.3761,-549.7735 684.6462,-540.5824 677.7643,-539.302"/>
</g>
<!-- GO:0032991&#45;&gt;GO:0005575 -->
<g id="edge12" class="edge">
<title>GO:0032991&#45;&gt;GO:0005575</title>
<path fill="none" stroke="#000000" d="M855.5386,-591.1954C855.5386,-599.1109 855.5386,-608.3109 855.5386,-616.9722"/>
<polygon fill="#000000" stroke="#000000" points="852.0387,-617.1472 855.5386,-627.1472 859.0387,-617.1473 852.0387,-617.1472"/>
</g>
<!-- GO:0009295 -->
<g id="node11" class="node">
<title>GO:0009295</title>
<polygon fill="#ffffff" stroke="#000000" points="1118.1425,-591.0019 1028.9347,-591.0019 1028.9347,-549.7981 1118.1425,-549.7981 1118.1425,-591.0019"/>
<text text-anchor="middle" x="1073.5386" y="-574.6" font-family="Times,serif" font-size="14.00" fill="#000000">GO:0009295</text>
<text text-anchor="middle" x="1073.5386" y="-557.8" font-family="Times,serif" font-size="14.00" fill="#000000">nucleoid</text>
</g>
<!-- GO:0009295&#45;&gt;GO:0005575 -->
<g id="edge13" class="edge">
<title>GO:0009295&#45;&gt;GO:0005575</title>
<path fill="none" stroke="#000000" d="M1028.897,-586.2908C998.4956,-597.1125 957.6877,-611.6387 923.3017,-623.8788"/>
<polygon fill="#000000" stroke="#000000" points="922.0346,-620.6147 913.7874,-627.2656 924.3821,-627.2093 922.0346,-620.6147"/>
</g>
<!-- GO:0010008 -->
<g id="node12" class="node">
<title>GO:0010008</title>
<polygon fill="#ffffff" stroke="#000000" points="1099.3891,-127.4019 963.6881,-127.4019 963.6881,-86.1981 1099.3891,-86.1981 1099.3891,-127.4019"/>
<text text-anchor="middle" x="1031.5386" y="-111" font-family="Times,serif" font-size="14.00" fill="#000000">GO:0010008</text>
<text text-anchor="middle" x="1031.5386" y="-94.2" font-family="Times,serif" font-size="14.00" fill="#000000">endosome membrane</text>
</g>
<!-- GO:0044440 -->
<g id="node13" class="node">
<title>GO:0044440</title>
<polygon fill="#ffffff" stroke="#000000" points="1077.4594,-213.4019 975.6178,-213.4019 975.6178,-172.1981 1077.4594,-172.1981 1077.4594,-213.4019"/>
<text text-anchor="middle" x="1026.5386" y="-197" font-family="Times,serif" font-size="14.00" fill="#000000">GO:0044440</text>
<text text-anchor="middle" x="1026.5386" y="-180.2" font-family="Times,serif" font-size="14.00" fill="#000000">endosomal part</text>
</g>
<!-- GO:0010008&#45;&gt;GO:0044440 -->
<g id="edge14" class="edge">
<title>GO:0010008&#45;&gt;GO:0044440</title>
<path fill="none" stroke="#000000" d="M1030.3282,-127.6182C1029.7264,-137.9705 1028.9872,-150.6848 1028.3219,-162.1271"/>
<polygon fill="#000000" stroke="#000000" points="1024.8242,-161.9872 1027.7378,-172.1735 1031.8124,-162.3936 1024.8242,-161.9872"/>
</g>
<!-- GO:0005774 -->
<g id="node14" class="node">
<title>GO:0005774</title>
<polygon fill="#ffffff" stroke="#000000" points="1223.8194,-213.4019 1097.2578,-213.4019 1097.2578,-172.1981 1223.8194,-172.1981 1223.8194,-213.4019"/>
<text text-anchor="middle" x="1160.5386" y="-197" font-family="Times,serif" font-size="14.00" fill="#000000">GO:0005774</text>
<text text-anchor="middle" x="1160.5386" y="-180.2" font-family="Times,serif" font-size="14.00" fill="#000000">vacuolar membrane</text>
</g>
<!-- GO:0010008&#45;&gt;GO:0005774 -->
<g id="edge15" class="edge">
<title>GO:0010008&#45;&gt;GO:0005774</title>
<path fill="none" stroke="#000000" d="M1062.7659,-127.6182C1080.3542,-139.3437 1102.488,-154.0996 1121.2462,-166.6051"/>
<polygon fill="#000000" stroke="#000000" points="1119.3369,-169.5386 1129.5989,-172.1735 1123.2198,-163.7143 1119.3369,-169.5386"/>
</g>
<!-- GO:0044437 -->
<g id="node15" class="node">
<title>GO:0044437</title>
<polygon fill="#ffffff" stroke="#000000" points="1069.5006,-307.8019 979.5766,-307.8019 979.5766,-266.5981 1069.5006,-266.5981 1069.5006,-307.8019"/>
<text text-anchor="middle" x="1024.5386" y="-291.4" font-family="Times,serif" font-size="14.00" fill="#000000">GO:0044437</text>
<text text-anchor="middle" x="1024.5386" y="-274.6" font-family="Times,serif" font-size="14.00" fill="#000000">vacuolar part</text>
</g>
<!-- GO:0044440&#45;&gt;GO:0044437 -->
<g id="edge16" class="edge">
<title>GO:0044440&#45;&gt;GO:0044437</title>
<path fill="none" stroke="#000000" d="M1026.0947,-213.7504C1025.8306,-226.2165 1025.4906,-242.2645 1025.1958,-256.1786"/>
<polygon fill="#000000" stroke="#000000" points="1021.6939,-256.2362 1024.9812,-266.3081 1028.6924,-256.3846 1021.6939,-256.2362"/>
</g>
<!-- GO:0005774&#45;&gt;GO:0044437 -->
<g id="edge18" class="edge">
<title>GO:0005774&#45;&gt;GO:0044437</title>
<path fill="none" stroke="#000000" d="M1130.5375,-213.5553C1115.0101,-224.3041 1095.7497,-237.6471 1078.5386,-249.6 1073.3662,-253.1921 1067.9176,-256.9807 1062.5514,-260.7145"/>
<polygon fill="#000000" stroke="#000000" points="1060.4464,-257.9153 1054.2384,-266.5009 1064.4454,-263.6606 1060.4464,-257.9153"/>
</g>
<!-- GO:0098588 -->
<g id="node16" class="node">
<title>GO:0098588</title>
<polygon fill="#ffffff" stroke="#000000" points="1233.6758,-316.6014 1087.4014,-316.6014 1087.4014,-257.7986 1233.6758,-257.7986 1233.6758,-316.6014"/>
<text text-anchor="middle" x="1160.5386" y="-299.8" font-family="Times,serif" font-size="14.00" fill="#000000">GO:0098588</text>
<text text-anchor="middle" x="1160.5386" y="-283" font-family="Times,serif" font-size="14.00" fill="#000000">bounding membrane of</text>
<text text-anchor="middle" x="1160.5386" y="-266.2" font-family="Times,serif" font-size="14.00" fill="#000000">organelle</text>
</g>
<!-- GO:0005774&#45;&gt;GO:0098588 -->
<g id="edge17" class="edge">
<title>GO:0005774&#45;&gt;GO:0098588</title>
<path fill="none" stroke="#000000" d="M1160.5386,-213.7504C1160.5386,-223.7492 1160.5386,-236.0525 1160.5386,-247.7106"/>
<polygon fill="#000000" stroke="#000000" points="1157.0387,-247.7155 1160.5386,-257.7155 1164.0387,-247.7156 1157.0387,-247.7155"/>
</g>
<!-- GO:0098805 -->
<g id="node17" class="node">
<title>GO:0098805</title>
<polygon fill="#ffffff" stroke="#000000" points="1364.8362,-307.8019 1252.241,-307.8019 1252.241,-266.5981 1364.8362,-266.5981 1364.8362,-307.8019"/>
<text text-anchor="middle" x="1308.5386" y="-291.4" font-family="Times,serif" font-size="14.00" fill="#000000">GO:0098805</text>
<text text-anchor="middle" x="1308.5386" y="-274.6" font-family="Times,serif" font-size="14.00" fill="#000000">whole membrane</text>
</g>
<!-- GO:0005774&#45;&gt;GO:0098805 -->
<g id="edge19" class="edge">
<title>GO:0005774&#45;&gt;GO:0098805</title>
<path fill="none" stroke="#000000" d="M1193.0178,-213.5165C1214.8987,-227.4729 1243.9404,-245.9968 1267.4306,-260.9798"/>
<polygon fill="#000000" stroke="#000000" points="1265.822,-264.1051 1276.1351,-266.5318 1269.5863,-258.2034 1265.822,-264.1051"/>
</g>
<!-- GO:0044446 -->
<g id="node18" class="node">
<title>GO:0044446</title>
<polygon fill="#ffffff" stroke="#000000" points="1104.257,-419.4014 964.8202,-419.4014 964.8202,-360.5986 1104.257,-360.5986 1104.257,-419.4014"/>
<text text-anchor="middle" x="1034.5386" y="-402.6" font-family="Times,serif" font-size="14.00" fill="#000000">GO:0044446</text>
<text text-anchor="middle" x="1034.5386" y="-385.8" font-family="Times,serif" font-size="14.00" fill="#000000">intracellular organelle</text>
<text text-anchor="middle" x="1034.5386" y="-369" font-family="Times,serif" font-size="14.00" fill="#000000">part</text>
</g>
<!-- GO:0044437&#45;&gt;GO:0044446 -->
<g id="edge20" class="edge">
<title>GO:0044437&#45;&gt;GO:0044446</title>
<path fill="none" stroke="#000000" d="M1026.5622,-308.0031C1027.7471,-320.1833 1029.2825,-335.9676 1030.6894,-350.4305"/>
<polygon fill="#000000" stroke="#000000" points="1027.2325,-351.0436 1031.6843,-360.6577 1034.1996,-350.3658 1027.2325,-351.0436"/>
</g>
<!-- GO:0044444 -->
<g id="node19" class="node">
<title>GO:0044444</title>
<polygon fill="#ffffff" stroke="#000000" points="745.9552,-410.6019 637.122,-410.6019 637.122,-369.3981 745.9552,-369.3981 745.9552,-410.6019"/>
<text text-anchor="middle" x="691.5386" y="-394.2" font-family="Times,serif" font-size="14.00" fill="#000000">GO:0044444</text>
<text text-anchor="middle" x="691.5386" y="-377.4" font-family="Times,serif" font-size="14.00" fill="#000000">cytoplasmic part</text>
</g>
<!-- GO:0044437&#45;&gt;GO:0044444 -->
<g id="edge21" class="edge">
<title>GO:0044437&#45;&gt;GO:0044444</title>
<path fill="none" stroke="#000000" d="M993.8844,-307.8802C983.3773,-314.1548 971.297,-320.5138 959.5386,-324.8 873.0387,-356.331 843.4572,-333.4729 755.5386,-360.8 751.2234,-362.1412 746.8187,-363.7048 742.4405,-365.3983"/>
<polygon fill="#000000" stroke="#000000" points="740.8771,-362.256 732.943,-369.2775 743.524,-368.7363 740.8771,-362.256"/>
</g>
<!-- GO:0031090 -->
<g id="node20" class="node">
<title>GO:0031090</title>
<polygon fill="#ffffff" stroke="#000000" points="1252.7102,-410.6019 1122.367,-410.6019 1122.367,-369.3981 1252.7102,-369.3981 1252.7102,-410.6019"/>
<text text-anchor="middle" x="1187.5386" y="-394.2" font-family="Times,serif" font-size="14.00" fill="#000000">GO:0031090</text>
<text text-anchor="middle" x="1187.5386" y="-377.4" font-family="Times,serif" font-size="14.00" fill="#000000">organelle membrane</text>
</g>
<!-- GO:0098588&#45;&gt;GO:0031090 -->
<g id="edge22" class="edge">
<title>GO:0098588&#45;&gt;GO:0031090</title>
<path fill="none" stroke="#000000" d="M1168.2757,-316.6584C1171.8023,-330.0856 1175.9748,-345.9721 1179.5333,-359.5204"/>
<polygon fill="#000000" stroke="#000000" points="1176.1883,-360.5628 1182.1138,-369.3456 1182.9586,-358.7845 1176.1883,-360.5628"/>
</g>
<!-- GO:0016020 -->
<g id="node21" class="node">
<title>GO:0016020</title>
<polygon fill="#ffffff" stroke="#000000" points="1232.1425,-505.0019 1142.9347,-505.0019 1142.9347,-463.7981 1232.1425,-463.7981 1232.1425,-505.0019"/>
<text text-anchor="middle" x="1187.5386" y="-488.6" font-family="Times,serif" font-size="14.00" fill="#000000">GO:0016020</text>
<text text-anchor="middle" x="1187.5386" y="-471.8" font-family="Times,serif" font-size="14.00" fill="#000000">membrane</text>
</g>
<!-- GO:0098805&#45;&gt;GO:0016020 -->
<g id="edge23" class="edge">
<title>GO:0098805&#45;&gt;GO:0016020</title>
<path fill="none" stroke="#000000" d="M1304.5698,-307.8959C1298.608,-335.2112 1285.4103,-383.9524 1261.5386,-419.2 1251.838,-433.5233 1238.2686,-446.6961 1225.3949,-457.3957"/>
<polygon fill="#000000" stroke="#000000" points="1223.1165,-454.7364 1217.5099,-463.7262 1227.4989,-460.1949 1223.1165,-454.7364"/>
</g>
<!-- GO:0044446&#45;&gt;GO:0044424 -->
<g id="edge24" class="edge">
<title>GO:0044446&#45;&gt;GO:0044424</title>
<path fill="none" stroke="#000000" d="M964.925,-416.3176C961.7645,-417.3269 958.6251,-418.2934 955.5386,-419.2 884.3558,-440.1095 864.4334,-436.888 792.5386,-455.2 780.6054,-458.2395 767.9473,-461.7049 755.7751,-465.1606"/>
<polygon fill="#000000" stroke="#000000" points="754.7894,-461.8021 746.1406,-467.9217 756.7179,-468.5313 754.7894,-461.8021"/>
</g>
<!-- GO:0044422 -->
<g id="node22" class="node">
<title>GO:0044422</title>
<polygon fill="#ffffff" stroke="#000000" points="1081.3907,-505.0019 987.6865,-505.0019 987.6865,-463.7981 1081.3907,-463.7981 1081.3907,-505.0019"/>
<text text-anchor="middle" x="1034.5386" y="-488.6" font-family="Times,serif" font-size="14.00" fill="#000000">GO:0044422</text>
<text text-anchor="middle" x="1034.5386" y="-471.8" font-family="Times,serif" font-size="14.00" fill="#000000">organelle part</text>
</g>
<!-- GO:0044446&#45;&gt;GO:0044422 -->
<g id="edge25" class="edge">
<title>GO:0044446&#45;&gt;GO:0044422</title>
<path fill="none" stroke="#000000" d="M1034.5386,-419.3513C1034.5386,-430.2614 1034.5386,-442.6637 1034.5386,-453.692"/>
<polygon fill="#000000" stroke="#000000" points="1031.0387,-453.7509 1034.5386,-463.751 1038.0387,-453.751 1031.0387,-453.7509"/>
</g>
<!-- GO:0044444&#45;&gt;GO:0044424 -->
<g id="edge26" class="edge">
<title>GO:0044444&#45;&gt;GO:0044424</title>
<path fill="none" stroke="#000000" d="M691.5386,-410.9504C691.5386,-423.4165 691.5386,-439.4645 691.5386,-453.3786"/>
<polygon fill="#000000" stroke="#000000" points="688.0387,-453.5081 691.5386,-463.5081 695.0387,-453.5082 688.0387,-453.5081"/>
</g>
<!-- GO:0031090&#45;&gt;GO:0016020 -->
<g id="edge27" class="edge">
<title>GO:0031090&#45;&gt;GO:0016020</title>
<path fill="none" stroke="#000000" d="M1187.5386,-410.9504C1187.5386,-423.4165 1187.5386,-439.4645 1187.5386,-453.3786"/>
<polygon fill="#000000" stroke="#000000" points="1184.0387,-453.5081 1187.5386,-463.5081 1191.0387,-453.5082 1184.0387,-453.5081"/>
</g>
<!-- GO:0031090&#45;&gt;GO:0044422 -->
<g id="edge28" class="edge">
<title>GO:0031090&#45;&gt;GO:0044422</title>
<path fill="none" stroke="#000000" d="M1153.9621,-410.7165C1131.2424,-424.7344 1101.0545,-443.3601 1076.7148,-458.3776"/>
<polygon fill="#000000" stroke="#000000" points="1074.7094,-455.5022 1068.0368,-463.7318 1078.3851,-461.4596 1074.7094,-455.5022"/>
</g>
<!-- GO:0016020&#45;&gt;GO:0005575 -->
<g id="edge29" class="edge">
<title>GO:0016020&#45;&gt;GO:0005575</title>
<path fill="none" stroke="#000000" d="M1142.7287,-496.2918C1107.4524,-506.9107 1057.9922,-524.6581 1019.5386,-549.6 997.4961,-563.8973 999.1009,-576.1883 977.5386,-591.2 959.8248,-603.5324 939.008,-614.3609 919.6346,-623.1649"/>
<polygon fill="#000000" stroke="#000000" points="917.9827,-620.0687 910.2599,-627.322 920.8203,-626.4678 917.9827,-620.0687"/>
</g>
<!-- GO:0044422&#45;&gt;GO:0005575 -->
<g id="edge30" class="edge">
<title>GO:0044422&#45;&gt;GO:0005575</title>
<path fill="none" stroke="#000000" d="M1019.681,-505.2543C1002.8409,-528.0097 973.7789,-564.7231 943.5386,-591.2 930.7362,-602.4092 915.5348,-613.0131 901.399,-621.9565"/>
<polygon fill="#000000" stroke="#000000" points="899.4263,-619.0613 892.7662,-627.3011 903.111,-625.0131 899.4263,-619.0613"/>
</g>
<!-- GO:0005694 -->
<g id="node23" class="node">
<title>GO:0005694</title>
<polygon fill="#ffffff" stroke="#000000" points="364.1425,-213.4019 274.9347,-213.4019 274.9347,-172.1981 364.1425,-172.1981 364.1425,-213.4019"/>
<text text-anchor="middle" x="319.5386" y="-197" font-family="Times,serif" font-size="14.00" fill="#000000">GO:0005694</text>
<text text-anchor="middle" x="319.5386" y="-180.2" font-family="Times,serif" font-size="14.00" fill="#000000">chromosome</text>
</g>
<!-- GO:0043232 -->
<g id="node24" class="node">
<title>GO:0043232</title>
<polygon fill="#ffffff" stroke="#000000" points="383.4994,-324.9003 255.5778,-324.9003 255.5778,-249.4997 383.4994,-249.4997 383.4994,-324.9003"/>
<text text-anchor="middle" x="319.5386" y="-308.2" font-family="Times,serif" font-size="14.00" fill="#000000">GO:0043232</text>
<text text-anchor="middle" x="319.5386" y="-291.4" font-family="Times,serif" font-size="14.00" fill="#000000">intracellular non&#45;</text>
<text text-anchor="middle" x="319.5386" y="-274.6" font-family="Times,serif" font-size="14.00" fill="#000000">membrane&#45;bounded</text>
<text text-anchor="middle" x="319.5386" y="-257.8" font-family="Times,serif" font-size="14.00" fill="#000000">organelle</text>
</g>
<!-- GO:0005694&#45;&gt;GO:0043232 -->
<g id="edge31" class="edge">
<title>GO:0005694&#45;&gt;GO:0043232</title>
<path fill="none" stroke="#000000" d="M319.5386,-213.7504C319.5386,-221.4068 319.5386,-230.4143 319.5386,-239.4487"/>
<polygon fill="#000000" stroke="#000000" points="316.0387,-239.5897 319.5386,-249.5897 323.0387,-239.5897 316.0387,-239.5897"/>
</g>
<!-- GO:0043229 -->
<g id="node25" class="node">
<title>GO:0043229</title>
<polygon fill="#ffffff" stroke="#000000" points="473.257,-410.6019 333.8202,-410.6019 333.8202,-369.3981 473.257,-369.3981 473.257,-410.6019"/>
<text text-anchor="middle" x="403.5386" y="-394.2" font-family="Times,serif" font-size="14.00" fill="#000000">GO:0043229</text>
<text text-anchor="middle" x="403.5386" y="-377.4" font-family="Times,serif" font-size="14.00" fill="#000000">intracellular organelle</text>
</g>
<!-- GO:0043232&#45;&gt;GO:0043229 -->
<g id="edge32" class="edge">
<title>GO:0043232&#45;&gt;GO:0043229</title>
<path fill="none" stroke="#000000" d="M350.3401,-324.8952C360.2118,-336.9763 370.9739,-350.147 380.2193,-361.4616"/>
<polygon fill="#000000" stroke="#000000" points="377.6111,-363.8012 386.6489,-369.3302 383.0317,-359.372 377.6111,-363.8012"/>
</g>
<!-- GO:0043228 -->
<g id="node26" class="node">
<title>GO:0043228</title>
<polygon fill="#ffffff" stroke="#000000" points="316.1605,-419.4014 162.9167,-419.4014 162.9167,-360.5986 316.1605,-360.5986 316.1605,-419.4014"/>
<text text-anchor="middle" x="239.5386" y="-402.6" font-family="Times,serif" font-size="14.00" fill="#000000">GO:0043228</text>
<text text-anchor="middle" x="239.5386" y="-385.8" font-family="Times,serif" font-size="14.00" fill="#000000">non&#45;membrane&#45;bounded</text>
<text text-anchor="middle" x="239.5386" y="-369" font-family="Times,serif" font-size="14.00" fill="#000000">organelle</text>
</g>
<!-- GO:0043232&#45;&gt;GO:0043228 -->
<g id="edge33" class="edge">
<title>GO:0043232&#45;&gt;GO:0043228</title>
<path fill="none" stroke="#000000" d="M290.2038,-324.8952C283.1706,-333.9329 275.6627,-343.5805 268.6401,-352.6046"/>
<polygon fill="#000000" stroke="#000000" points="265.7341,-350.6399 262.3547,-360.6814 271.2584,-354.939 265.7341,-350.6399"/>
</g>
<!-- GO:0043229&#45;&gt;GO:0044424 -->
<g id="edge34" class="edge">
<title>GO:0043229&#45;&gt;GO:0044424</title>
<path fill="none" stroke="#000000" d="M458.2308,-410.6313C466.3561,-413.5753 474.6489,-416.5133 482.5386,-419.2 530.6714,-435.591 585.5711,-452.6556 627.0219,-465.2138"/>
<polygon fill="#000000" stroke="#000000" points="626.1364,-468.6025 636.7213,-468.1446 628.1611,-461.9017 626.1364,-468.6025"/>
</g>
<!-- GO:0043226 -->
<g id="node27" class="node">
<title>GO:0043226</title>
<polygon fill="#ffffff" stroke="#000000" points="577.1425,-505.0019 487.9347,-505.0019 487.9347,-463.7981 577.1425,-463.7981 577.1425,-505.0019"/>
<text text-anchor="middle" x="532.5386" y="-488.6" font-family="Times,serif" font-size="14.00" fill="#000000">GO:0043226</text>
<text text-anchor="middle" x="532.5386" y="-471.8" font-family="Times,serif" font-size="14.00" fill="#000000">organelle</text>
</g>
<!-- GO:0043229&#45;&gt;GO:0043226 -->
<g id="edge35" class="edge">
<title>GO:0043229&#45;&gt;GO:0043226</title>
<path fill="none" stroke="#000000" d="M431.8482,-410.7165C450.752,-424.5499 475.7878,-442.8708 496.1657,-457.7829"/>
<polygon fill="#000000" stroke="#000000" points="494.1581,-460.6508 504.295,-463.7318 498.2919,-455.0018 494.1581,-460.6508"/>
</g>
<!-- GO:0043228&#45;&gt;GO:0043226 -->
<g id="edge36" class="edge">
<title>GO:0043228&#45;&gt;GO:0043226</title>
<path fill="none" stroke="#000000" d="M316.418,-416.5148C319.1568,-417.4261 321.8702,-418.3236 324.5386,-419.2 376.4643,-436.2539 436.0012,-454.8167 478.0355,-467.7583"/>
<polygon fill="#000000" stroke="#000000" points="477.2076,-471.1654 487.7946,-470.7588 479.2647,-464.4745 477.2076,-471.1654"/>
</g>
<!-- GO:0043226&#45;&gt;GO:0005575 -->
<g id="edge37" class="edge">
<title>GO:0043226&#45;&gt;GO:0005575</title>
<path fill="none" stroke="#000000" d="M577.1121,-497.8442C631.0944,-514.329 716.4639,-541.125 729.5386,-549.6 750.5517,-563.2206 748.4163,-575.0318 767.5386,-591.2 780.6476,-602.2838 796.0555,-612.9172 810.2842,-621.9251"/>
<polygon fill="#000000" stroke="#000000" points="808.6184,-625.0107 818.96,-627.3133 812.3115,-619.0641 808.6184,-625.0107"/>
</g>
<!-- GO:0005794 -->
<g id="node28" class="node">
<title>GO:0005794</title>
<polygon fill="#ffffff" stroke="#000000" points="668.066,-213.4019 563.0112,-213.4019 563.0112,-172.1981 668.066,-172.1981 668.066,-213.4019"/>
<text text-anchor="middle" x="615.5386" y="-197" font-family="Times,serif" font-size="14.00" fill="#000000">GO:0005794</text>
<text text-anchor="middle" x="615.5386" y="-180.2" font-family="Times,serif" font-size="14.00" fill="#000000">Golgi apparatus</text>
</g>
<!-- GO:0005794&#45;&gt;GO:0044444 -->
<g id="edge38" class="edge">
<title>GO:0005794&#45;&gt;GO:0044444</title>
<path fill="none" stroke="#000000" d="M624.5413,-213.4806C629.1445,-224.2095 634.7671,-237.5575 639.5386,-249.6 654.4416,-287.213 670.4452,-330.9896 680.7018,-359.5306"/>
<polygon fill="#000000" stroke="#000000" points="677.4108,-360.7221 684.0788,-368.9554 684.0005,-358.3608 677.4108,-360.7221"/>
</g>
<!-- GO:0043231 -->
<g id="node29" class="node">
<title>GO:0043231</title>
<polygon fill="#ffffff" stroke="#000000" points="630.9174,-316.6014 480.1598,-316.6014 480.1598,-257.7986 630.9174,-257.7986 630.9174,-316.6014"/>
<text text-anchor="middle" x="555.5386" y="-299.8" font-family="Times,serif" font-size="14.00" fill="#000000">GO:0043231</text>
<text text-anchor="middle" x="555.5386" y="-283" font-family="Times,serif" font-size="14.00" fill="#000000">intracellular membrane&#45;</text>
<text text-anchor="middle" x="555.5386" y="-266.2" font-family="Times,serif" font-size="14.00" fill="#000000">bounded organelle</text>
</g>
<!-- GO:0005794&#45;&gt;GO:0043231 -->
<g id="edge39" class="edge">
<title>GO:0005794&#45;&gt;GO:0043231</title>
<path fill="none" stroke="#000000" d="M602.2227,-213.7504C595.6107,-224.1532 587.4133,-237.0504 579.7417,-249.1204"/>
<polygon fill="#000000" stroke="#000000" points="576.6891,-247.3985 574.2787,-257.7155 582.5968,-251.1534 576.6891,-247.3985"/>
</g>
<!-- GO:0043231&#45;&gt;GO:0043229 -->
<g id="edge40" class="edge">
<title>GO:0043231&#45;&gt;GO:0043229</title>
<path fill="none" stroke="#000000" d="M511.9815,-316.6584C490.0843,-331.4678 463.7636,-349.2689 442.5369,-363.6249"/>
<polygon fill="#000000" stroke="#000000" points="440.4008,-360.8442 434.0781,-369.3456 444.3224,-366.6426 440.4008,-360.8442"/>
</g>
<!-- GO:0043227 -->
<g id="node30" class="node">
<title>GO:0043227</title>
<polygon fill="#ffffff" stroke="#000000" points="619.4994,-419.4014 491.5778,-419.4014 491.5778,-360.5986 619.4994,-360.5986 619.4994,-419.4014"/>
<text text-anchor="middle" x="555.5386" y="-402.6" font-family="Times,serif" font-size="14.00" fill="#000000">GO:0043227</text>
<text text-anchor="middle" x="555.5386" y="-385.8" font-family="Times,serif" font-size="14.00" fill="#000000">membrane&#45;bounded</text>
<text text-anchor="middle" x="555.5386" y="-369" font-family="Times,serif" font-size="14.00" fill="#000000">organelle</text>
</g>
<!-- GO:0043231&#45;&gt;GO:0043227 -->
<g id="edge41" class="edge">
<title>GO:0043231&#45;&gt;GO:0043227</title>
<path fill="none" stroke="#000000" d="M555.5386,-316.6584C555.5386,-327.1969 555.5386,-339.2505 555.5386,-350.4994"/>
<polygon fill="#000000" stroke="#000000" points="552.0387,-350.5373 555.5386,-360.5373 559.0387,-350.5374 552.0387,-350.5373"/>
</g>
<!-- GO:0043227&#45;&gt;GO:0043226 -->
<g id="edge42" class="edge">
<title>GO:0043227&#45;&gt;GO:0043226</title>
<path fill="none" stroke="#000000" d="M548.3873,-419.3513C545.7017,-430.3739 542.6451,-442.9196 539.9374,-454.0326"/>
<polygon fill="#000000" stroke="#000000" points="536.5364,-453.2067 537.5696,-463.751 543.3374,-454.8637 536.5364,-453.2067"/>
</g>
<!-- GO:0032588 -->
<g id="node31" class="node">
<title>GO:0032588</title>
<polygon fill="#ffffff" stroke="#000000" points="946.1699,-136.2014 816.9073,-136.2014 816.9073,-77.3986 946.1699,-77.3986 946.1699,-136.2014"/>
<text text-anchor="middle" x="881.5386" y="-119.4" font-family="Times,serif" font-size="14.00" fill="#000000">GO:0032588</text>
<text text-anchor="middle" x="881.5386" y="-102.6" font-family="Times,serif" font-size="14.00" fill="#000000">trans&#45;Golgi network</text>
<text text-anchor="middle" x="881.5386" y="-85.8" font-family="Times,serif" font-size="14.00" fill="#000000">membrane</text>
</g>
<!-- GO:0000139 -->
<g id="node32" class="node">
<title>GO:0000139</title>
<polygon fill="#ffffff" stroke="#000000" points="941.013,-213.4019 830.0642,-213.4019 830.0642,-172.1981 941.013,-172.1981 941.013,-213.4019"/>
<text text-anchor="middle" x="885.5386" y="-197" font-family="Times,serif" font-size="14.00" fill="#000000">GO:0000139</text>
<text text-anchor="middle" x="885.5386" y="-180.2" font-family="Times,serif" font-size="14.00" fill="#000000">Golgi membrane</text>
</g>
<!-- GO:0032588&#45;&gt;GO:0000139 -->
<g id="edge43" class="edge">
<title>GO:0032588&#45;&gt;GO:0000139</title>
<path fill="none" stroke="#000000" d="M882.9152,-136.3963C883.2997,-144.6638 883.7184,-153.6657 884.1061,-162.0008"/>
<polygon fill="#000000" stroke="#000000" points="880.6147,-162.27 884.5756,-172.0966 887.6072,-161.9447 880.6147,-162.27"/>
</g>
<!-- GO:0000139&#45;&gt;GO:0098588 -->
<g id="edge45" class="edge">
<title>GO:0000139&#45;&gt;GO:0098588</title>
<path fill="none" stroke="#000000" d="M941.1365,-206.8857C980.0765,-217.3014 1033.0682,-232.5847 1078.5386,-249.6 1082.2285,-250.9808 1085.9851,-252.4533 1089.7595,-253.9861"/>
<polygon fill="#000000" stroke="#000000" points="1088.5741,-257.2839 1099.1509,-257.9028 1091.2686,-250.8233 1088.5741,-257.2839"/>
</g>
<!-- GO:0044431 -->
<g id="node33" class="node">
<title>GO:0044431</title>
<polygon fill="#ffffff" stroke="#000000" points="950.8321,-307.8019 820.2451,-307.8019 820.2451,-266.5981 950.8321,-266.5981 950.8321,-307.8019"/>
<text text-anchor="middle" x="885.5386" y="-291.4" font-family="Times,serif" font-size="14.00" fill="#000000">GO:0044431</text>
<text text-anchor="middle" x="885.5386" y="-274.6" font-family="Times,serif" font-size="14.00" fill="#000000">Golgi apparatus part</text>
</g>
<!-- GO:0000139&#45;&gt;GO:0044431 -->
<g id="edge44" class="edge">
<title>GO:0000139&#45;&gt;GO:0044431</title>
<path fill="none" stroke="#000000" d="M885.5386,-213.7504C885.5386,-226.2165 885.5386,-242.2645 885.5386,-256.1786"/>
<polygon fill="#000000" stroke="#000000" points="882.0387,-256.3081 885.5386,-266.3081 889.0387,-256.3082 882.0387,-256.3081"/>
</g>
<!-- GO:0044431&#45;&gt;GO:0044446 -->
<g id="edge46" class="edge">
<title>GO:0044431&#45;&gt;GO:0044446</title>
<path fill="none" stroke="#000000" d="M915.691,-308.0031C935.1449,-321.425 960.9419,-339.2232 983.5296,-354.8072"/>
<polygon fill="#000000" stroke="#000000" points="981.7907,-357.8597 992.0094,-360.6577 985.766,-352.0979 981.7907,-357.8597"/>
</g>
<!-- GO:0044431&#45;&gt;GO:0044444 -->
<g id="edge47" class="edge">
<title>GO:0044431&#45;&gt;GO:0044444</title>
<path fill="none" stroke="#000000" d="M846.2798,-308.0031C815.5142,-324.3057 772.5641,-347.0649 739.7171,-364.4704"/>
<polygon fill="#000000" stroke="#000000" points="737.9363,-361.4529 730.739,-369.2278 741.2139,-367.6382 737.9363,-361.4529"/>
</g>
<!-- GO:0005765 -->
<g id="node34" class="node">
<title>GO:0005765</title>
<polygon fill="#ffffff" stroke="#000000" points="1260.4003,-41.4019 1124.6769,-41.4019 1124.6769,-.1981 1260.4003,-.1981 1260.4003,-41.4019"/>
<text text-anchor="middle" x="1192.5386" y="-25" font-family="Times,serif" font-size="14.00" fill="#000000">GO:0005765</text>
<text text-anchor="middle" x="1192.5386" y="-8.2" font-family="Times,serif" font-size="14.00" fill="#000000">lysosomal membrane</text>
</g>
<!-- GO:0098852 -->
<g id="node35" class="node">
<title>GO:0098852</title>
<polygon fill="#ffffff" stroke="#000000" points="1267.5458,-127.4019 1117.5314,-127.4019 1117.5314,-86.1981 1267.5458,-86.1981 1267.5458,-127.4019"/>
<text text-anchor="middle" x="1192.5386" y="-111" font-family="Times,serif" font-size="14.00" fill="#000000">GO:0098852</text>
<text text-anchor="middle" x="1192.5386" y="-94.2" font-family="Times,serif" font-size="14.00" fill="#000000">lytic vacuole membrane</text>
</g>
<!-- GO:0005765&#45;&gt;GO:0098852 -->
<g id="edge48" class="edge">
<title>GO:0005765&#45;&gt;GO:0098852</title>
<path fill="none" stroke="#000000" d="M1192.5386,-41.6182C1192.5386,-51.9705 1192.5386,-64.6848 1192.5386,-76.1271"/>
<polygon fill="#000000" stroke="#000000" points="1189.0387,-76.1735 1192.5386,-86.1735 1196.0387,-76.1735 1189.0387,-76.1735"/>
</g>
<!-- GO:0098852&#45;&gt;GO:0005774 -->
<g id="edge49" class="edge">
<title>GO:0098852&#45;&gt;GO:0005774</title>
<path fill="none" stroke="#000000" d="M1184.7923,-127.6182C1180.901,-138.0761 1176.1127,-150.9446 1171.8216,-162.477"/>
<polygon fill="#000000" stroke="#000000" points="1168.4207,-161.5807 1168.2136,-172.1735 1174.9813,-164.0219 1168.4207,-161.5807"/>
</g>
</g>
</svg>
