<?xml version="1.0" encoding="UTF-8" standalone="no"?>
<!DOCTYPE svg PUBLIC "-//W3C//DTD SVG 1.1//EN"
 "http://www.w3.org/Graphics/SVG/1.1/DTD/svg11.dtd">
<!-- Generated by graphviz version 2.40.1 (20161225.0304)
 -->
<!-- Title: G Pages: 1 -->
<svg width="881pt" height="522pt"
 viewBox="0.00 0.00 881.32 521.60" xmlns="http://www.w3.org/2000/svg" xmlns:xlink="http://www.w3.org/1999/xlink">
<g id="graph0" class="graph" transform="scale(1 1) rotate(0) translate(4 517.6)">
<title>G</title>
<polygon fill="#ffffff" stroke="transparent" points="-4,4 -4,-517.6 877.3188,-517.6 877.3188,4 -4,4"/>
<!-- GO:0043190 -->
<g id="node1" class="node">
<title>GO:0043190</title>
<polygon fill="#ffffff" stroke="#000000" points="520.5138,-58.6014 350.6174,-58.6014 350.6174,.2014 520.5138,.2014 520.5138,-58.6014"/>
<text text-anchor="middle" x="435.5656" y="-41.8" font-family="Times,serif" font-size="14.00" fill="#000000">GO:0043190</text>
<text text-anchor="middle" x="435.5656" y="-25" font-family="Times,serif" font-size="14.00" fill="#000000">ATP&#45;binding cassette</text>
<text text-anchor="middle" x="435.5656" y="-8.2" font-family="Times,serif" font-size="14.00" fill="#000000">(ABC) transporter complex</text>
</g>
<!-- GO:0098797 -->
<g id="node2" class="node">
<title>GO:0098797</title>
<polygon fill="#ffffff" stroke="#000000" points="694.4631,-264.2014 532.6681,-264.2014 532.6681,-205.3986 694.4631,-205.3986 694.4631,-264.2014"/>
<text text-anchor="middle" x="613.5656" y="-247.4" font-family="Times,serif" font-size="14.00" fill="#000000">GO:0098797</text>
<text text-anchor="middle" x="613.5656" y="-230.6" font-family="Times,serif" font-size="14.00" fill="#000000">plasma membrane protein</text>
<text text-anchor="middle" x="613.5656" y="-213.8" font-family="Times,serif" font-size="14.00" fill="#000000">complex</text>
</g>
<!-- GO:0043190&#45;&gt;GO:0098797 -->
<g id="edge1" class="edge">
<title>GO:0043190&#45;&gt;GO:0098797</title>
<path fill="none" stroke="#000000" d="M461.0687,-58.6575C492.7916,-95.2992 546.972,-157.8807 581.4825,-197.7422"/>
<polygon fill="#000000" stroke="#000000" points="578.9183,-200.1278 588.1098,-205.3972 584.2105,-195.546 578.9183,-200.1278"/>
</g>
<!-- GO:0098533 -->
<g id="node3" class="node">
<title>GO:0098533</title>
<polygon fill="#ffffff" stroke="#000000" points="343.1238,-169.7003 188.0074,-169.7003 188.0074,-94.2997 343.1238,-94.2997 343.1238,-169.7003"/>
<text text-anchor="middle" x="265.5656" y="-153" font-family="Times,serif" font-size="14.00" fill="#000000">GO:0098533</text>
<text text-anchor="middle" x="265.5656" y="-136.2" font-family="Times,serif" font-size="14.00" fill="#000000">ATPase dependent</text>
<text text-anchor="middle" x="265.5656" y="-119.4" font-family="Times,serif" font-size="14.00" fill="#000000">transmembrane transport</text>
<text text-anchor="middle" x="265.5656" y="-102.6" font-family="Times,serif" font-size="14.00" fill="#000000">complex</text>
</g>
<!-- GO:0043190&#45;&gt;GO:0098533 -->
<g id="edge2" class="edge">
<title>GO:0043190&#45;&gt;GO:0098533</title>
<path fill="none" stroke="#000000" d="M386.8504,-58.6584C371.2264,-68.1063 353.5889,-78.7718 336.7017,-88.9836"/>
<polygon fill="#000000" stroke="#000000" points="334.6998,-86.1039 327.9538,-94.2735 338.322,-92.0939 334.6998,-86.1039"/>
</g>
<!-- GO:0098796 -->
<g id="node4" class="node">
<title>GO:0098796</title>
<polygon fill="#ffffff" stroke="#000000" points="449.518,-349.8019 279.6132,-349.8019 279.6132,-308.5981 449.518,-308.5981 449.518,-349.8019"/>
<text text-anchor="middle" x="364.5656" y="-333.4" font-family="Times,serif" font-size="14.00" fill="#000000">GO:0098796</text>
<text text-anchor="middle" x="364.5656" y="-316.6" font-family="Times,serif" font-size="14.00" fill="#000000">membrane protein complex</text>
</g>
<!-- GO:0098797&#45;&gt;GO:0098796 -->
<g id="edge3" class="edge">
<title>GO:0098797&#45;&gt;GO:0098796</title>
<path fill="none" stroke="#000000" d="M536.4857,-264.0223C501.9064,-277.1318 461.5892,-292.4167 428.6921,-304.8886"/>
<polygon fill="#000000" stroke="#000000" points="427.2895,-301.6772 419.1796,-308.4949 429.771,-308.2226 427.2895,-301.6772"/>
</g>
<!-- GO:0044459 -->
<g id="node5" class="node">
<title>GO:0044459</title>
<polygon fill="#ffffff" stroke="#000000" points="771.0728,-349.8019 628.0584,-349.8019 628.0584,-308.5981 771.0728,-308.5981 771.0728,-349.8019"/>
<text text-anchor="middle" x="699.5656" y="-333.4" font-family="Times,serif" font-size="14.00" fill="#000000">GO:0044459</text>
<text text-anchor="middle" x="699.5656" y="-316.6" font-family="Times,serif" font-size="14.00" fill="#000000">plasma membrane part</text>
</g>
<!-- GO:0098797&#45;&gt;GO:0044459 -->
<g id="edge4" class="edge">
<title>GO:0098797&#45;&gt;GO:0044459</title>
<path fill="none" stroke="#000000" d="M640.3051,-264.1513C650.9617,-275.8488 663.1809,-289.2615 673.7447,-300.857"/>
<polygon fill="#000000" stroke="#000000" points="671.4321,-303.5157 680.754,-308.551 676.6068,-298.8016 671.4321,-303.5157"/>
</g>
<!-- GO:1904949 -->
<g id="node6" class="node">
<title>GO:1904949</title>
<polygon fill="#ffffff" stroke="#000000" points="147.5916,-255.4019 35.5396,-255.4019 35.5396,-214.1981 147.5916,-214.1981 147.5916,-255.4019"/>
<text text-anchor="middle" x="91.5656" y="-239" font-family="Times,serif" font-size="14.00" fill="#000000">GO:1904949</text>
<text text-anchor="middle" x="91.5656" y="-222.2" font-family="Times,serif" font-size="14.00" fill="#000000">ATPase complex</text>
</g>
<!-- GO:0098533&#45;&gt;GO:1904949 -->
<g id="edge5" class="edge">
<title>GO:0098533&#45;&gt;GO:1904949</title>
<path fill="none" stroke="#000000" d="M201.7624,-169.6952C179.6265,-182.7732 155.3291,-197.1282 135.1956,-209.0232"/>
<polygon fill="#000000" stroke="#000000" points="133.3808,-206.0301 126.5515,-214.1302 136.9415,-212.0569 133.3808,-206.0301"/>
</g>
<!-- GO:1902495 -->
<g id="node7" class="node">
<title>GO:1902495</title>
<polygon fill="#ffffff" stroke="#000000" points="348.999,-264.2014 182.1322,-264.2014 182.1322,-205.3986 348.999,-205.3986 348.999,-264.2014"/>
<text text-anchor="middle" x="265.5656" y="-247.4" font-family="Times,serif" font-size="14.00" fill="#000000">GO:1902495</text>
<text text-anchor="middle" x="265.5656" y="-230.6" font-family="Times,serif" font-size="14.00" fill="#000000">transmembrane transporter</text>
<text text-anchor="middle" x="265.5656" y="-213.8" font-family="Times,serif" font-size="14.00" fill="#000000">complex</text>
</g>
<!-- GO:0098533&#45;&gt;GO:1902495 -->
<g id="edge6" class="edge">
<title>GO:0098533&#45;&gt;GO:1902495</title>
<path fill="none" stroke="#000000" d="M265.5656,-169.6952C265.5656,-178.0874 265.5656,-187.0054 265.5656,-195.4618"/>
<polygon fill="#000000" stroke="#000000" points="262.0657,-195.4813 265.5656,-205.4814 269.0657,-195.4814 262.0657,-195.4813"/>
</g>
<!-- GO:0043234 -->
<g id="node8" class="node">
<title>GO:0043234</title>
<polygon fill="#ffffff" stroke="#000000" points="251.433,-435.8019 143.6982,-435.8019 143.6982,-394.5981 251.433,-394.5981 251.433,-435.8019"/>
<text text-anchor="middle" x="197.5656" y="-419.4" font-family="Times,serif" font-size="14.00" fill="#000000">GO:0043234</text>
<text text-anchor="middle" x="197.5656" y="-402.6" font-family="Times,serif" font-size="14.00" fill="#000000">protein complex</text>
</g>
<!-- GO:0098796&#45;&gt;GO:0043234 -->
<g id="edge7" class="edge">
<title>GO:0098796&#45;&gt;GO:0043234</title>
<path fill="none" stroke="#000000" d="M324.1396,-350.0182C300.8574,-362.0078 271.4227,-377.1658 246.7984,-389.8466"/>
<polygon fill="#000000" stroke="#000000" points="244.9074,-386.8835 237.6194,-394.5735 248.1122,-393.1068 244.9074,-386.8835"/>
</g>
<!-- GO:0044425 -->
<g id="node9" class="node">
<title>GO:0044425</title>
<polygon fill="#ffffff" stroke="#000000" points="608.9176,-435.8019 508.2136,-435.8019 508.2136,-394.5981 608.9176,-394.5981 608.9176,-435.8019"/>
<text text-anchor="middle" x="558.5656" y="-419.4" font-family="Times,serif" font-size="14.00" fill="#000000">GO:0044425</text>
<text text-anchor="middle" x="558.5656" y="-402.6" font-family="Times,serif" font-size="14.00" fill="#000000">membrane part</text>
</g>
<!-- GO:0098796&#45;&gt;GO:0044425 -->
<g id="edge8" class="edge">
<title>GO:0098796&#45;&gt;GO:0044425</title>
<path fill="none" stroke="#000000" d="M411.5276,-350.0182C439.0505,-362.2191 473.9748,-377.701 502.8799,-390.5146"/>
<polygon fill="#000000" stroke="#000000" points="501.4756,-393.7205 512.0361,-394.5735 504.3125,-387.3211 501.4756,-393.7205"/>
</g>
<!-- GO:0044459&#45;&gt;GO:0044425 -->
<g id="edge9" class="edge">
<title>GO:0044459&#45;&gt;GO:0044425</title>
<path fill="none" stroke="#000000" d="M665.4334,-350.0182C646.0358,-361.8494 621.5799,-376.7657 600.9599,-389.3425"/>
<polygon fill="#000000" stroke="#000000" points="599.0982,-386.3783 592.3834,-394.5735 602.7433,-392.3544 599.0982,-386.3783"/>
</g>
<!-- GO:0044464 -->
<g id="node10" class="node">
<title>GO:0044464</title>
<polygon fill="#ffffff" stroke="#000000" points="737.1695,-435.8019 647.9617,-435.8019 647.9617,-394.5981 737.1695,-394.5981 737.1695,-435.8019"/>
<text text-anchor="middle" x="692.5656" y="-419.4" font-family="Times,serif" font-size="14.00" fill="#000000">GO:0044464</text>
<text text-anchor="middle" x="692.5656" y="-402.6" font-family="Times,serif" font-size="14.00" fill="#000000">cell part</text>
</g>
<!-- GO:0044459&#45;&gt;GO:0044464 -->
<g id="edge10" class="edge">
<title>GO:0044459&#45;&gt;GO:0044464</title>
<path fill="none" stroke="#000000" d="M697.8711,-350.0182C697.0285,-360.3705 695.9936,-373.0848 695.0622,-384.5271"/>
<polygon fill="#000000" stroke="#000000" points="691.5674,-384.3225 694.2445,-394.5735 698.5443,-384.8905 691.5674,-384.3225"/>
</g>
<!-- GO:1902494 -->
<g id="node11" class="node">
<title>GO:1902494</title>
<polygon fill="#ffffff" stroke="#000000" points="115.1969,-349.8019 -.0657,-349.8019 -.0657,-308.5981 115.1969,-308.5981 115.1969,-349.8019"/>
<text text-anchor="middle" x="57.5656" y="-333.4" font-family="Times,serif" font-size="14.00" fill="#000000">GO:1902494</text>
<text text-anchor="middle" x="57.5656" y="-316.6" font-family="Times,serif" font-size="14.00" fill="#000000">catalytic complex</text>
</g>
<!-- GO:1904949&#45;&gt;GO:1902494 -->
<g id="edge11" class="edge">
<title>GO:1904949&#45;&gt;GO:1902494</title>
<path fill="none" stroke="#000000" d="M84.0199,-255.7504C79.486,-268.3387 73.6365,-284.5795 68.5914,-298.5872"/>
<polygon fill="#000000" stroke="#000000" points="65.1859,-297.7137 65.0902,-308.3081 71.7718,-300.0858 65.1859,-297.7137"/>
</g>
<!-- GO:1902495&#45;&gt;GO:0098796 -->
<g id="edge12" class="edge">
<title>GO:1902495&#45;&gt;GO:0098796</title>
<path fill="none" stroke="#000000" d="M296.3471,-264.1513C308.8505,-276.0737 323.2226,-289.778 335.5409,-301.524"/>
<polygon fill="#000000" stroke="#000000" points="333.2578,-304.1831 342.9104,-308.551 338.0885,-299.117 333.2578,-304.1831"/>
</g>
<!-- GO:1990351 -->
<g id="node12" class="node">
<title>GO:1990351</title>
<polygon fill="#ffffff" stroke="#000000" points="261.9133,-349.8019 133.2179,-349.8019 133.2179,-308.5981 261.9133,-308.5981 261.9133,-349.8019"/>
<text text-anchor="middle" x="197.5656" y="-333.4" font-family="Times,serif" font-size="14.00" fill="#000000">GO:1990351</text>
<text text-anchor="middle" x="197.5656" y="-316.6" font-family="Times,serif" font-size="14.00" fill="#000000">transporter complex</text>
</g>
<!-- GO:1902495&#45;&gt;GO:1990351 -->
<g id="edge13" class="edge">
<title>GO:1902495&#45;&gt;GO:1990351</title>
<path fill="none" stroke="#000000" d="M244.4227,-264.1513C236.1586,-275.6238 226.706,-288.7462 218.4655,-300.1861"/>
<polygon fill="#000000" stroke="#000000" points="215.4449,-298.3912 212.4399,-308.551 221.1247,-302.4826 215.4449,-298.3912"/>
</g>
<!-- GO:0032991 -->
<g id="node13" class="node">
<title>GO:0032991</title>
<polygon fill="#ffffff" stroke="#000000" points="276.7329,-513.4019 118.3983,-513.4019 118.3983,-472.1981 276.7329,-472.1981 276.7329,-513.4019"/>
<text text-anchor="middle" x="197.5656" y="-497" font-family="Times,serif" font-size="14.00" fill="#000000">GO:0032991</text>
<text text-anchor="middle" x="197.5656" y="-480.2" font-family="Times,serif" font-size="14.00" fill="#000000">macromolecular complex</text>
</g>
<!-- GO:0043234&#45;&gt;GO:0032991 -->
<g id="edge14" class="edge">
<title>GO:0043234&#45;&gt;GO:0032991</title>
<path fill="none" stroke="#000000" d="M197.5656,-435.9954C197.5656,-443.9109 197.5656,-453.1109 197.5656,-461.7722"/>
<polygon fill="#000000" stroke="#000000" points="194.0657,-461.9472 197.5656,-471.9472 201.0657,-461.9473 194.0657,-461.9472"/>
</g>
<!-- GO:0005575 -->
<g id="node14" class="node">
<title>GO:0005575</title>
<polygon fill="#ffffff" stroke="#000000" points="756.2523,-513.4019 628.8789,-513.4019 628.8789,-472.1981 756.2523,-472.1981 756.2523,-513.4019"/>
<text text-anchor="middle" x="692.5656" y="-497" font-family="Times,serif" font-size="14.00" fill="#000000">GO:0005575</text>
<text text-anchor="middle" x="692.5656" y="-480.2" font-family="Times,serif" font-size="14.00" fill="#000000">cellular_component</text>
</g>
<!-- GO:0044425&#45;&gt;GO:0005575 -->
<g id="edge15" class="edge">
<title>GO:0044425&#45;&gt;GO:0005575</title>
<path fill="none" stroke="#000000" d="M594.4751,-435.9954C610.8473,-445.4766 630.4019,-456.8008 647.7282,-466.8345"/>
<polygon fill="#000000" stroke="#000000" points="646.1492,-469.9646 656.5569,-471.9472 649.6573,-463.907 646.1492,-469.9646"/>
</g>
<!-- GO:0044464&#45;&gt;GO:0005575 -->
<g id="edge16" class="edge">
<title>GO:0044464&#45;&gt;GO:0005575</title>
<path fill="none" stroke="#000000" d="M692.5656,-435.9954C692.5656,-443.9109 692.5656,-453.1109 692.5656,-461.7722"/>
<polygon fill="#000000" stroke="#000000" points="689.0657,-461.9472 692.5656,-471.9472 696.0657,-461.9473 689.0657,-461.9472"/>
</g>
<!-- GO:1902494&#45;&gt;GO:0043234 -->
<g id="edge17" class="edge">
<title>GO:1902494&#45;&gt;GO:0043234</title>
<path fill="none" stroke="#000000" d="M91.4557,-350.0182C110.6298,-361.7966 134.7815,-376.6326 155.1976,-389.1739"/>
<polygon fill="#000000" stroke="#000000" points="153.6348,-392.3216 163.9876,-394.5735 157.2988,-386.357 153.6348,-392.3216"/>
</g>
<!-- GO:1990351&#45;&gt;GO:0043234 -->
<g id="edge18" class="edge">
<title>GO:1990351&#45;&gt;GO:0043234</title>
<path fill="none" stroke="#000000" d="M197.5656,-350.0182C197.5656,-360.3705 197.5656,-373.0848 197.5656,-384.5271"/>
<polygon fill="#000000" stroke="#000000" points="194.0657,-384.5735 197.5656,-394.5735 201.0657,-384.5735 194.0657,-384.5735"/>
</g>
<!-- GO:0016324 -->
<g id="node15" class="node">
<title>GO:0016324</title>
<polygon fill="#ffffff" stroke="#000000" points="872.2313,-152.6019 716.8999,-152.6019 716.8999,-111.3981 872.2313,-111.3981 872.2313,-152.6019"/>
<text text-anchor="middle" x="794.5656" y="-136.2" font-family="Times,serif" font-size="14.00" fill="#000000">GO:0016324</text>
<text text-anchor="middle" x="794.5656" y="-119.4" font-family="Times,serif" font-size="14.00" fill="#000000">apical plasma membrane</text>
</g>
<!-- GO:0098590 -->
<g id="node16" class="node">
<title>GO:0098590</title>
<polygon fill="#ffffff" stroke="#000000" points="873.0728,-255.4019 716.0584,-255.4019 716.0584,-214.1981 873.0728,-214.1981 873.0728,-255.4019"/>
<text text-anchor="middle" x="794.5656" y="-239" font-family="Times,serif" font-size="14.00" fill="#000000">GO:0098590</text>
<text text-anchor="middle" x="794.5656" y="-222.2" font-family="Times,serif" font-size="14.00" fill="#000000">plasma membrane region</text>
</g>
<!-- GO:0016324&#45;&gt;GO:0098590 -->
<g id="edge19" class="edge">
<title>GO:0016324&#45;&gt;GO:0098590</title>
<path fill="none" stroke="#000000" d="M794.5656,-152.8031C794.5656,-167.4337 794.5656,-187.2642 794.5656,-203.7586"/>
<polygon fill="#000000" stroke="#000000" points="791.0657,-204.0278 794.5656,-214.0278 798.0657,-204.0279 791.0657,-204.0278"/>
</g>
<!-- GO:0098590&#45;&gt;GO:0044459 -->
<g id="edge21" class="edge">
<title>GO:0098590&#45;&gt;GO:0044459</title>
<path fill="none" stroke="#000000" d="M773.482,-255.7504C760.0758,-269.072 742.5531,-286.484 727.9335,-301.0112"/>
<polygon fill="#000000" stroke="#000000" points="725.2167,-298.7768 720.5902,-308.3081 730.1507,-303.7422 725.2167,-298.7768"/>
</g>
<!-- GO:0016020 -->
<g id="node17" class="node">
<title>GO:0016020</title>
<polygon fill="#ffffff" stroke="#000000" points="844.1695,-435.8019 754.9617,-435.8019 754.9617,-394.5981 844.1695,-394.5981 844.1695,-435.8019"/>
<text text-anchor="middle" x="799.5656" y="-419.4" font-family="Times,serif" font-size="14.00" fill="#000000">GO:0016020</text>
<text text-anchor="middle" x="799.5656" y="-402.6" font-family="Times,serif" font-size="14.00" fill="#000000">membrane</text>
</g>
<!-- GO:0098590&#45;&gt;GO:0016020 -->
<g id="edge20" class="edge">
<title>GO:0098590&#45;&gt;GO:0016020</title>
<path fill="none" stroke="#000000" d="M795.1392,-255.4942C796.0147,-287.082 797.6899,-347.5259 798.7096,-384.3168"/>
<polygon fill="#000000" stroke="#000000" points="795.2152,-384.5709 798.991,-394.4701 802.2126,-384.3769 795.2152,-384.5709"/>
</g>
<!-- GO:0016020&#45;&gt;GO:0005575 -->
<g id="edge22" class="edge">
<title>GO:0016020&#45;&gt;GO:0005575</title>
<path fill="none" stroke="#000000" d="M770.8916,-435.9954C758.1781,-445.2156 743.0613,-456.1788 729.5149,-466.0031"/>
<polygon fill="#000000" stroke="#000000" points="727.3592,-463.2429 721.3188,-471.9472 731.4688,-468.9096 727.3592,-463.2429"/>
</g>
<!-- GO:0016021 -->
<g id="node18" class="node">
<title>GO:0016021</title>
<polygon fill="#ffffff" stroke="#000000" points="514.1987,-264.2014 374.9325,-264.2014 374.9325,-205.3986 514.1987,-205.3986 514.1987,-264.2014"/>
<text text-anchor="middle" x="444.5656" y="-247.4" font-family="Times,serif" font-size="14.00" fill="#000000">GO:0016021</text>
<text text-anchor="middle" x="444.5656" y="-230.6" font-family="Times,serif" font-size="14.00" fill="#000000">integral component of</text>
<text text-anchor="middle" x="444.5656" y="-213.8" font-family="Times,serif" font-size="14.00" fill="#000000">membrane</text>
</g>
<!-- GO:0031224 -->
<g id="node19" class="node">
<title>GO:0031224</title>
<polygon fill="#ffffff" stroke="#000000" points="609.819,-358.6014 467.3122,-358.6014 467.3122,-299.7986 609.819,-299.7986 609.819,-358.6014"/>
<text text-anchor="middle" x="538.5656" y="-341.8" font-family="Times,serif" font-size="14.00" fill="#000000">GO:0031224</text>
<text text-anchor="middle" x="538.5656" y="-325" font-family="Times,serif" font-size="14.00" fill="#000000">intrinsic component of</text>
<text text-anchor="middle" x="538.5656" y="-308.2" font-family="Times,serif" font-size="14.00" fill="#000000">membrane</text>
</g>
<!-- GO:0016021&#45;&gt;GO:0031224 -->
<g id="edge23" class="edge">
<title>GO:0016021&#45;&gt;GO:0031224</title>
<path fill="none" stroke="#000000" d="M473.7925,-264.1513C482.8114,-273.2086 492.8542,-283.2941 502.2882,-292.7683"/>
<polygon fill="#000000" stroke="#000000" points="499.8206,-295.2504 509.3568,-299.8669 504.7808,-290.3111 499.8206,-295.2504"/>
</g>
<!-- GO:0031224&#45;&gt;GO:0044425 -->
<g id="edge24" class="edge">
<title>GO:0031224&#45;&gt;GO:0044425</title>
<path fill="none" stroke="#000000" d="M545.4485,-358.7963C547.3925,-367.1556 549.5111,-376.2658 551.4676,-384.6784"/>
<polygon fill="#000000" stroke="#000000" points="548.0766,-385.5493 553.7508,-394.4966 554.8947,-383.9636 548.0766,-385.5493"/>
</g>
</g>
</svg>
