<?xml version="1.0" encoding="UTF-8" standalone="no"?>
<!DOCTYPE svg PUBLIC "-//W3C//DTD SVG 1.1//EN"
 "http://www.w3.org/Graphics/SVG/1.1/DTD/svg11.dtd">
<!-- Generated by graphviz version 2.40.1 (20161225.0304)
 -->
<!-- Title: G Pages: 1 -->
<svg width="909pt" height="872pt"
 viewBox="0.00 0.00 908.57 872.00" xmlns="http://www.w3.org/2000/svg" xmlns:xlink="http://www.w3.org/1999/xlink">
<g id="graph0" class="graph" transform="scale(1 1) rotate(0) translate(4 868)">
<title>G</title>
<polygon fill="#ffffff" stroke="transparent" points="-4,4 -4,-868 904.5699,-868 904.5699,4 -4,4"/>
<!-- GO:0022857 -->
<g id="node1" class="node">
<title>GO:0022857</title>
<polygon fill="#ffffff" stroke="#000000" points="166.6498,-709.0014 -.217,-709.0014 -.217,-650.1986 166.6498,-650.1986 166.6498,-709.0014"/>
<text text-anchor="middle" x="83.2164" y="-692.2" font-family="Times,serif" font-size="14.00" fill="#000000">GO:0022857</text>
<text text-anchor="middle" x="83.2164" y="-675.4" font-family="Times,serif" font-size="14.00" fill="#000000">transmembrane transporter</text>
<text text-anchor="middle" x="83.2164" y="-658.6" font-family="Times,serif" font-size="14.00" fill="#000000">activity</text>
</g>
<!-- GO:0005215 -->
<g id="node2" class="node">
<title>GO:0005215</title>
<polygon fill="#ffffff" stroke="#000000" points="306.3449,-786.2019 184.0879,-786.2019 184.0879,-744.9981 306.3449,-744.9981 306.3449,-786.2019"/>
<text text-anchor="middle" x="245.2164" y="-769.8" font-family="Times,serif" font-size="14.00" fill="#000000">GO:0005215</text>
<text text-anchor="middle" x="245.2164" y="-753" font-family="Times,serif" font-size="14.00" fill="#000000">transporter activity</text>
</g>
<!-- GO:0022857&#45;&gt;GO:0005215 -->
<g id="edge1" class="edge">
<title>GO:0022857&#45;&gt;GO:0005215</title>
<path fill="none" stroke="#000000" d="M138.5145,-708.9558C157.5688,-719.071 178.74,-730.31 197.168,-740.0928"/>
<polygon fill="#000000" stroke="#000000" points="195.7762,-743.3165 206.2499,-744.9141 199.0585,-737.1337 195.7762,-743.3165"/>
</g>
<!-- GO:0003674 -->
<g id="node3" class="node">
<title>GO:0003674</title>
<polygon fill="#ffffff" stroke="#000000" points="374.8495,-863.8019 249.5833,-863.8019 249.5833,-822.5981 374.8495,-822.5981 374.8495,-863.8019"/>
<text text-anchor="middle" x="312.2164" y="-847.4" font-family="Times,serif" font-size="14.00" fill="#000000">GO:0003674</text>
<text text-anchor="middle" x="312.2164" y="-830.6" font-family="Times,serif" font-size="14.00" fill="#000000">molecular_function</text>
</g>
<!-- GO:0005215&#45;&gt;GO:0003674 -->
<g id="edge2" class="edge">
<title>GO:0005215&#45;&gt;GO:0003674</title>
<path fill="none" stroke="#000000" d="M263.1712,-786.3954C270.6813,-795.0937 279.5308,-805.3433 287.6305,-814.7244"/>
<polygon fill="#000000" stroke="#000000" points="285.0277,-817.0654 294.2121,-822.3472 290.326,-812.4908 285.0277,-817.0654"/>
</g>
<!-- GO:0050545 -->
<g id="node4" class="node">
<title>GO:0050545</title>
<polygon fill="#ffffff" stroke="#000000" points="455.7775,-375.4014 314.6553,-375.4014 314.6553,-316.5986 455.7775,-316.5986 455.7775,-375.4014"/>
<text text-anchor="middle" x="385.2164" y="-358.6" font-family="Times,serif" font-size="14.00" fill="#000000">GO:0050545</text>
<text text-anchor="middle" x="385.2164" y="-341.8" font-family="Times,serif" font-size="14.00" fill="#000000">sulfopyruvate</text>
<text text-anchor="middle" x="385.2164" y="-325" font-family="Times,serif" font-size="14.00" fill="#000000">decarboxylase activity</text>
</g>
<!-- GO:0016831 -->
<g id="node5" class="node">
<title>GO:0016831</title>
<polygon fill="#ffffff" stroke="#000000" points="456.2228,-477.8019 316.21,-477.8019 316.21,-436.5981 456.2228,-436.5981 456.2228,-477.8019"/>
<text text-anchor="middle" x="386.2164" y="-461.4" font-family="Times,serif" font-size="14.00" fill="#000000">GO:0016831</text>
<text text-anchor="middle" x="386.2164" y="-444.6" font-family="Times,serif" font-size="14.00" fill="#000000">carboxy&#45;lyase activity</text>
</g>
<!-- GO:0050545&#45;&gt;GO:0016831 -->
<g id="edge3" class="edge">
<title>GO:0050545&#45;&gt;GO:0016831</title>
<path fill="none" stroke="#000000" d="M385.4791,-375.2165C385.6193,-390.797 385.7917,-409.9758 385.9346,-425.8653"/>
<polygon fill="#000000" stroke="#000000" points="382.4382,-426.2875 386.0281,-436.2556 389.4379,-426.2245 382.4382,-426.2875"/>
</g>
<!-- GO:0016830 -->
<g id="node6" class="node">
<title>GO:0016830</title>
<polygon fill="#ffffff" stroke="#000000" points="450.821,-606.2014 321.6118,-606.2014 321.6118,-547.3986 450.821,-547.3986 450.821,-606.2014"/>
<text text-anchor="middle" x="386.2164" y="-589.4" font-family="Times,serif" font-size="14.00" fill="#000000">GO:0016830</text>
<text text-anchor="middle" x="386.2164" y="-572.6" font-family="Times,serif" font-size="14.00" fill="#000000">carbon&#45;carbon lyase</text>
<text text-anchor="middle" x="386.2164" y="-555.8" font-family="Times,serif" font-size="14.00" fill="#000000">activity</text>
</g>
<!-- GO:0016831&#45;&gt;GO:0016830 -->
<g id="edge4" class="edge">
<title>GO:0016831&#45;&gt;GO:0016830</title>
<path fill="none" stroke="#000000" d="M386.2164,-478.0327C386.2164,-494.2576 386.2164,-517.2611 386.2164,-536.9863"/>
<polygon fill="#000000" stroke="#000000" points="382.7165,-537.2455 386.2164,-547.2455 389.7165,-537.2456 382.7165,-537.2455"/>
</g>
<!-- GO:0016829 -->
<g id="node7" class="node">
<title>GO:0016829</title>
<polygon fill="#ffffff" stroke="#000000" points="431.4728,-700.2019 340.96,-700.2019 340.96,-658.9981 431.4728,-658.9981 431.4728,-700.2019"/>
<text text-anchor="middle" x="386.2164" y="-683.8" font-family="Times,serif" font-size="14.00" fill="#000000">GO:0016829</text>
<text text-anchor="middle" x="386.2164" y="-667" font-family="Times,serif" font-size="14.00" fill="#000000">lyase activity</text>
</g>
<!-- GO:0016830&#45;&gt;GO:0016829 -->
<g id="edge5" class="edge">
<title>GO:0016830&#45;&gt;GO:0016829</title>
<path fill="none" stroke="#000000" d="M386.2164,-606.2584C386.2164,-619.5539 386.2164,-635.2608 386.2164,-648.7212"/>
<polygon fill="#000000" stroke="#000000" points="382.7165,-648.9456 386.2164,-658.9456 389.7165,-648.9457 382.7165,-648.9456"/>
</g>
<!-- GO:0003824 -->
<g id="node8" class="node">
<title>GO:0003824</title>
<polygon fill="#ffffff" stroke="#000000" points="440.6288,-786.2019 331.804,-786.2019 331.804,-744.9981 440.6288,-744.9981 440.6288,-786.2019"/>
<text text-anchor="middle" x="386.2164" y="-769.8" font-family="Times,serif" font-size="14.00" fill="#000000">GO:0003824</text>
<text text-anchor="middle" x="386.2164" y="-753" font-family="Times,serif" font-size="14.00" fill="#000000">catalytic activity</text>
</g>
<!-- GO:0016829&#45;&gt;GO:0003824 -->
<g id="edge6" class="edge">
<title>GO:0016829&#45;&gt;GO:0003824</title>
<path fill="none" stroke="#000000" d="M386.2164,-700.4182C386.2164,-710.7705 386.2164,-723.4848 386.2164,-734.9271"/>
<polygon fill="#000000" stroke="#000000" points="382.7165,-734.9735 386.2164,-744.9735 389.7165,-734.9735 382.7165,-734.9735"/>
</g>
<!-- GO:0003824&#45;&gt;GO:0003674 -->
<g id="edge7" class="edge">
<title>GO:0003824&#45;&gt;GO:0003674</title>
<path fill="none" stroke="#000000" d="M366.3858,-786.3954C358.008,-795.1807 348.1213,-805.5484 339.1028,-815.0056"/>
<polygon fill="#000000" stroke="#000000" points="336.4701,-812.6948 332.1018,-822.3472 341.536,-817.5257 336.4701,-812.6948"/>
</g>
<!-- GO:0003887 -->
<g id="node9" class="node">
<title>GO:0003887</title>
<polygon fill="#ffffff" stroke="#000000" points="619.1023,-281.0014 489.3305,-281.0014 489.3305,-222.1986 619.1023,-222.1986 619.1023,-281.0014"/>
<text text-anchor="middle" x="554.2164" y="-264.2" font-family="Times,serif" font-size="14.00" fill="#000000">GO:0003887</text>
<text text-anchor="middle" x="554.2164" y="-247.4" font-family="Times,serif" font-size="14.00" fill="#000000">DNA&#45;directed DNA</text>
<text text-anchor="middle" x="554.2164" y="-230.6" font-family="Times,serif" font-size="14.00" fill="#000000">polymerase activity</text>
</g>
<!-- GO:0034061 -->
<g id="node10" class="node">
<title>GO:0034061</title>
<polygon fill="#ffffff" stroke="#000000" points="634.0581,-366.6019 474.3747,-366.6019 474.3747,-325.3981 634.0581,-325.3981 634.0581,-366.6019"/>
<text text-anchor="middle" x="554.2164" y="-350.2" font-family="Times,serif" font-size="14.00" fill="#000000">GO:0034061</text>
<text text-anchor="middle" x="554.2164" y="-333.4" font-family="Times,serif" font-size="14.00" fill="#000000">DNA polymerase activity</text>
</g>
<!-- GO:0003887&#45;&gt;GO:0034061 -->
<g id="edge8" class="edge">
<title>GO:0003887&#45;&gt;GO:0034061</title>
<path fill="none" stroke="#000000" d="M554.2164,-280.9513C554.2164,-291.8614 554.2164,-304.2637 554.2164,-315.292"/>
<polygon fill="#000000" stroke="#000000" points="550.7165,-315.3509 554.2164,-325.351 557.7165,-315.351 550.7165,-315.3509"/>
</g>
<!-- GO:0016779 -->
<g id="node11" class="node">
<title>GO:0016779</title>
<polygon fill="#ffffff" stroke="#000000" points="621.8285,-486.6014 482.6043,-486.6014 482.6043,-427.7986 621.8285,-427.7986 621.8285,-486.6014"/>
<text text-anchor="middle" x="552.2164" y="-469.8" font-family="Times,serif" font-size="14.00" fill="#000000">GO:0016779</text>
<text text-anchor="middle" x="552.2164" y="-453" font-family="Times,serif" font-size="14.00" fill="#000000">nucleotidyltransferase</text>
<text text-anchor="middle" x="552.2164" y="-436.2" font-family="Times,serif" font-size="14.00" fill="#000000">activity</text>
</g>
<!-- GO:0034061&#45;&gt;GO:0016779 -->
<g id="edge9" class="edge">
<title>GO:0034061&#45;&gt;GO:0016779</title>
<path fill="none" stroke="#000000" d="M553.8449,-366.6553C553.5886,-380.907 553.2396,-400.3101 552.9304,-417.4996"/>
<polygon fill="#000000" stroke="#000000" points="549.4248,-417.7892 552.7443,-427.8506 556.4236,-417.9152 549.4248,-417.7892"/>
</g>
<!-- GO:0016772 -->
<g id="node12" class="node">
<title>GO:0016772</title>
<polygon fill="#ffffff" stroke="#000000" points="625.2242,-614.5003 471.2086,-614.5003 471.2086,-539.0997 625.2242,-539.0997 625.2242,-614.5003"/>
<text text-anchor="middle" x="548.2164" y="-597.8" font-family="Times,serif" font-size="14.00" fill="#000000">GO:0016772</text>
<text text-anchor="middle" x="548.2164" y="-581" font-family="Times,serif" font-size="14.00" fill="#000000">transferase activity,</text>
<text text-anchor="middle" x="548.2164" y="-564.2" font-family="Times,serif" font-size="14.00" fill="#000000">transferring phosphorus&#45;</text>
<text text-anchor="middle" x="548.2164" y="-547.4" font-family="Times,serif" font-size="14.00" fill="#000000">containing groups</text>
</g>
<!-- GO:0016779&#45;&gt;GO:0016772 -->
<g id="edge10" class="edge">
<title>GO:0016779&#45;&gt;GO:0016772</title>
<path fill="none" stroke="#000000" d="M551.2379,-486.4575C550.8135,-499.1453 550.3053,-514.3405 549.8279,-528.617"/>
<polygon fill="#000000" stroke="#000000" points="546.3236,-528.6898 549.4873,-538.8012 553.3197,-528.9238 546.3236,-528.6898"/>
</g>
<!-- GO:0016740 -->
<g id="node13" class="node">
<title>GO:0016740</title>
<polygon fill="#ffffff" stroke="#000000" points="609.3281,-700.2019 487.1047,-700.2019 487.1047,-658.9981 609.3281,-658.9981 609.3281,-700.2019"/>
<text text-anchor="middle" x="548.2164" y="-683.8" font-family="Times,serif" font-size="14.00" fill="#000000">GO:0016740</text>
<text text-anchor="middle" x="548.2164" y="-667" font-family="Times,serif" font-size="14.00" fill="#000000">transferase activity</text>
</g>
<!-- GO:0016772&#45;&gt;GO:0016740 -->
<g id="edge11" class="edge">
<title>GO:0016772&#45;&gt;GO:0016740</title>
<path fill="none" stroke="#000000" d="M548.2164,-614.4952C548.2164,-625.7552 548.2164,-637.9618 548.2164,-648.7299"/>
<polygon fill="#000000" stroke="#000000" points="544.7165,-648.9302 548.2164,-658.9302 551.7165,-648.9302 544.7165,-648.9302"/>
</g>
<!-- GO:0016740&#45;&gt;GO:0003824 -->
<g id="edge12" class="edge">
<title>GO:0016740&#45;&gt;GO:0003824</title>
<path fill="none" stroke="#000000" d="M509.0007,-700.4182C486.4156,-712.4078 457.8622,-727.5658 433.9752,-740.2466"/>
<polygon fill="#000000" stroke="#000000" points="432.2624,-737.1932 425.0709,-744.9735 435.5447,-743.376 432.2624,-737.1932"/>
</g>
<!-- GO:0046624 -->
<g id="node14" class="node">
<title>GO:0046624</title>
<polygon fill="#ffffff" stroke="#000000" points="298.3603,-486.6014 148.0725,-486.6014 148.0725,-427.7986 298.3603,-427.7986 298.3603,-486.6014"/>
<text text-anchor="middle" x="223.2164" y="-469.8" font-family="Times,serif" font-size="14.00" fill="#000000">GO:0046624</text>
<text text-anchor="middle" x="223.2164" y="-453" font-family="Times,serif" font-size="14.00" fill="#000000">sphingolipid transporter</text>
<text text-anchor="middle" x="223.2164" y="-436.2" font-family="Times,serif" font-size="14.00" fill="#000000">activity</text>
</g>
<!-- GO:0005319 -->
<g id="node15" class="node">
<title>GO:0005319</title>
<polygon fill="#ffffff" stroke="#000000" points="290.0252,-606.2014 184.4076,-606.2014 184.4076,-547.3986 290.0252,-547.3986 290.0252,-606.2014"/>
<text text-anchor="middle" x="237.2164" y="-589.4" font-family="Times,serif" font-size="14.00" fill="#000000">GO:0005319</text>
<text text-anchor="middle" x="237.2164" y="-572.6" font-family="Times,serif" font-size="14.00" fill="#000000">lipid transporter</text>
<text text-anchor="middle" x="237.2164" y="-555.8" font-family="Times,serif" font-size="14.00" fill="#000000">activity</text>
</g>
<!-- GO:0046624&#45;&gt;GO:0005319 -->
<g id="edge13" class="edge">
<title>GO:0046624&#45;&gt;GO:0005319</title>
<path fill="none" stroke="#000000" d="M226.6412,-486.4575C228.4378,-501.8056 230.6639,-520.8229 232.6096,-537.4446"/>
<polygon fill="#000000" stroke="#000000" points="229.1395,-537.9048 233.7784,-547.4301 236.092,-537.0909 229.1395,-537.9048"/>
</g>
<!-- GO:0022892 -->
<g id="node16" class="node">
<title>GO:0022892</title>
<polygon fill="#ffffff" stroke="#000000" points="306.3449,-709.0014 184.0879,-709.0014 184.0879,-650.1986 306.3449,-650.1986 306.3449,-709.0014"/>
<text text-anchor="middle" x="245.2164" y="-692.2" font-family="Times,serif" font-size="14.00" fill="#000000">GO:0022892</text>
<text text-anchor="middle" x="245.2164" y="-675.4" font-family="Times,serif" font-size="14.00" fill="#000000">substrate&#45;specific</text>
<text text-anchor="middle" x="245.2164" y="-658.6" font-family="Times,serif" font-size="14.00" fill="#000000">transporter activity</text>
</g>
<!-- GO:0005319&#45;&gt;GO:0022892 -->
<g id="edge14" class="edge">
<title>GO:0005319&#45;&gt;GO:0022892</title>
<path fill="none" stroke="#000000" d="M239.5089,-606.2584C240.329,-616.7969 241.267,-628.8505 242.1424,-640.0994"/>
<polygon fill="#000000" stroke="#000000" points="238.6582,-640.4391 242.9236,-650.1373 245.6371,-639.8959 238.6582,-640.4391"/>
</g>
<!-- GO:0022892&#45;&gt;GO:0005215 -->
<g id="edge15" class="edge">
<title>GO:0022892&#45;&gt;GO:0005215</title>
<path fill="none" stroke="#000000" d="M245.2164,-709.1963C245.2164,-717.4638 245.2164,-726.4657 245.2164,-734.8008"/>
<polygon fill="#000000" stroke="#000000" points="241.7165,-734.8965 245.2164,-744.8966 248.7165,-734.8966 241.7165,-734.8965"/>
</g>
<!-- GO:0004596 -->
<g id="node17" class="node">
<title>GO:0004596</title>
<polygon fill="#ff00ff" stroke="#000000" points="858.0091,-75.3003 698.4237,-75.3003 698.4237,.1003 858.0091,.1003 858.0091,-75.3003"/>
<text text-anchor="middle" x="778.2164" y="-58.6" font-family="Times,serif" font-size="14.00" fill="#000000">GO:0004596</text>
<text text-anchor="middle" x="778.2164" y="-41.8" font-family="Times,serif" font-size="14.00" fill="#000000">peptide</text>
<text text-anchor="middle" x="778.2164" y="-25" font-family="Times,serif" font-size="14.00" fill="#000000">alpha&#45;N&#45;acetyltransferase</text>
<text text-anchor="middle" x="778.2164" y="-8.2" font-family="Times,serif" font-size="14.00" fill="#000000">activity</text>
</g>
<!-- GO:0034212 -->
<g id="node18" class="node">
<title>GO:0034212</title>
<polygon fill="#ffffff" stroke="#000000" points="840.5287,-186.5003 715.9041,-186.5003 715.9041,-111.0997 840.5287,-111.0997 840.5287,-186.5003"/>
<text text-anchor="middle" x="778.2164" y="-169.8" font-family="Times,serif" font-size="14.00" fill="#000000">GO:0034212</text>
<text text-anchor="middle" x="778.2164" y="-153" font-family="Times,serif" font-size="14.00" fill="#000000">peptide</text>
<text text-anchor="middle" x="778.2164" y="-136.2" font-family="Times,serif" font-size="14.00" fill="#000000">N&#45;acetyltransferase</text>
<text text-anchor="middle" x="778.2164" y="-119.4" font-family="Times,serif" font-size="14.00" fill="#000000">activity</text>
</g>
<!-- GO:0004596&#45;&gt;GO:0034212 -->
<g id="edge16" class="edge">
<title>GO:0004596&#45;&gt;GO:0034212</title>
<path fill="none" stroke="#000000" d="M778.2164,-75.2472C778.2164,-83.58 778.2164,-92.5155 778.2164,-101.1863"/>
<polygon fill="#000000" stroke="#000000" points="774.7165,-101.1915 778.2164,-111.1915 781.7165,-101.1916 774.7165,-101.1915"/>
</g>
<!-- GO:0008080 -->
<g id="node19" class="node">
<title>GO:0008080</title>
<polygon fill="#ffffff" stroke="#000000" points="840.5287,-281.0014 715.9041,-281.0014 715.9041,-222.1986 840.5287,-222.1986 840.5287,-281.0014"/>
<text text-anchor="middle" x="778.2164" y="-264.2" font-family="Times,serif" font-size="14.00" fill="#000000">GO:0008080</text>
<text text-anchor="middle" x="778.2164" y="-247.4" font-family="Times,serif" font-size="14.00" fill="#000000">N&#45;acetyltransferase</text>
<text text-anchor="middle" x="778.2164" y="-230.6" font-family="Times,serif" font-size="14.00" fill="#000000">activity</text>
</g>
<!-- GO:0034212&#45;&gt;GO:0008080 -->
<g id="edge17" class="edge">
<title>GO:0034212&#45;&gt;GO:0008080</title>
<path fill="none" stroke="#000000" d="M778.2164,-186.4952C778.2164,-194.8874 778.2164,-203.8054 778.2164,-212.2618"/>
<polygon fill="#000000" stroke="#000000" points="774.7165,-212.2813 778.2164,-222.2814 781.7165,-212.2814 774.7165,-212.2813"/>
</g>
<!-- GO:0016407 -->
<g id="node20" class="node">
<title>GO:0016407</title>
<polygon fill="#ffffff" stroke="#000000" points="768.2614,-375.4014 658.1714,-375.4014 658.1714,-316.5986 768.2614,-316.5986 768.2614,-375.4014"/>
<text text-anchor="middle" x="713.2164" y="-358.6" font-family="Times,serif" font-size="14.00" fill="#000000">GO:0016407</text>
<text text-anchor="middle" x="713.2164" y="-341.8" font-family="Times,serif" font-size="14.00" fill="#000000">acetyltransferase</text>
<text text-anchor="middle" x="713.2164" y="-325" font-family="Times,serif" font-size="14.00" fill="#000000">activity</text>
</g>
<!-- GO:0008080&#45;&gt;GO:0016407 -->
<g id="edge18" class="edge">
<title>GO:0008080&#45;&gt;GO:0016407</title>
<path fill="none" stroke="#000000" d="M758.0063,-280.9513C752.0755,-289.5646 745.5044,-299.1078 739.264,-308.1708"/>
<polygon fill="#000000" stroke="#000000" points="736.2025,-306.4456 733.414,-316.6669 741.968,-310.4154 736.2025,-306.4456"/>
</g>
<!-- GO:0016410 -->
<g id="node21" class="node">
<title>GO:0016410</title>
<polygon fill="#ffffff" stroke="#000000" points="900.4238,-375.4014 786.009,-375.4014 786.009,-316.5986 900.4238,-316.5986 900.4238,-375.4014"/>
<text text-anchor="middle" x="843.2164" y="-358.6" font-family="Times,serif" font-size="14.00" fill="#000000">GO:0016410</text>
<text text-anchor="middle" x="843.2164" y="-341.8" font-family="Times,serif" font-size="14.00" fill="#000000">N&#45;acyltransferase</text>
<text text-anchor="middle" x="843.2164" y="-325" font-family="Times,serif" font-size="14.00" fill="#000000">activity</text>
</g>
<!-- GO:0008080&#45;&gt;GO:0016410 -->
<g id="edge19" class="edge">
<title>GO:0008080&#45;&gt;GO:0016410</title>
<path fill="none" stroke="#000000" d="M798.4265,-280.9513C804.3573,-289.5646 810.9284,-299.1078 817.1688,-308.1708"/>
<polygon fill="#000000" stroke="#000000" points="814.4648,-310.4154 823.0188,-316.6669 820.2303,-306.4456 814.4648,-310.4154"/>
</g>
<!-- GO:0016747 -->
<g id="node22" class="node">
<title>GO:0016747</title>
<polygon fill="#ffffff" stroke="#000000" points="792.9391,-503.2 643.4937,-503.2 643.4937,-411.2 792.9391,-411.2 792.9391,-503.2"/>
<text text-anchor="middle" x="718.2164" y="-486.6" font-family="Times,serif" font-size="14.00" fill="#000000">GO:0016747</text>
<text text-anchor="middle" x="718.2164" y="-469.8" font-family="Times,serif" font-size="14.00" fill="#000000">transferase activity,</text>
<text text-anchor="middle" x="718.2164" y="-453" font-family="Times,serif" font-size="14.00" fill="#000000">transferring acyl groups</text>
<text text-anchor="middle" x="718.2164" y="-436.2" font-family="Times,serif" font-size="14.00" fill="#000000">other than amino&#45;acyl</text>
<text text-anchor="middle" x="718.2164" y="-419.4" font-family="Times,serif" font-size="14.00" fill="#000000">groups</text>
</g>
<!-- GO:0016407&#45;&gt;GO:0016747 -->
<g id="edge20" class="edge">
<title>GO:0016407&#45;&gt;GO:0016747</title>
<path fill="none" stroke="#000000" d="M714.5301,-375.2165C714.8875,-383.1646 715.287,-392.0491 715.6874,-400.9556"/>
<polygon fill="#000000" stroke="#000000" points="712.1921,-401.1394 716.1378,-410.9721 719.185,-400.8249 712.1921,-401.1394"/>
</g>
<!-- GO:0016410&#45;&gt;GO:0016747 -->
<g id="edge21" class="edge">
<title>GO:0016410&#45;&gt;GO:0016747</title>
<path fill="none" stroke="#000000" d="M810.3741,-375.2165C800.3829,-384.1047 789.0753,-394.1639 777.8888,-404.1155"/>
<polygon fill="#000000" stroke="#000000" points="775.3264,-401.7104 770.1813,-410.9721 779.9791,-406.9404 775.3264,-401.7104"/>
</g>
<!-- GO:0016746 -->
<g id="node23" class="node">
<title>GO:0016746</title>
<polygon fill="#ffffff" stroke="#000000" points="792.9391,-606.2014 643.4937,-606.2014 643.4937,-547.3986 792.9391,-547.3986 792.9391,-606.2014"/>
<text text-anchor="middle" x="718.2164" y="-589.4" font-family="Times,serif" font-size="14.00" fill="#000000">GO:0016746</text>
<text text-anchor="middle" x="718.2164" y="-572.6" font-family="Times,serif" font-size="14.00" fill="#000000">transferase activity,</text>
<text text-anchor="middle" x="718.2164" y="-555.8" font-family="Times,serif" font-size="14.00" fill="#000000">transferring acyl groups</text>
</g>
<!-- GO:0016747&#45;&gt;GO:0016746 -->
<g id="edge22" class="edge">
<title>GO:0016747&#45;&gt;GO:0016746</title>
<path fill="none" stroke="#000000" d="M718.2164,-503.4405C718.2164,-514.5987 718.2164,-526.4218 718.2164,-537.2424"/>
<polygon fill="#000000" stroke="#000000" points="714.7165,-537.2551 718.2164,-547.2551 721.7165,-537.2552 714.7165,-537.2551"/>
</g>
<!-- GO:0016746&#45;&gt;GO:0016740 -->
<g id="edge23" class="edge">
<title>GO:0016746&#45;&gt;GO:0016740</title>
<path fill="none" stroke="#000000" d="M669.5012,-606.2584C644.7932,-621.1994 615.0495,-639.1856 591.2011,-653.6069"/>
<polygon fill="#000000" stroke="#000000" points="589.1185,-650.7761 582.3725,-658.9456 592.7407,-656.766 589.1185,-650.7761"/>
</g>
</g>
</svg>
