<?xml version="1.0" encoding="UTF-8" standalone="no"?>
<!DOCTYPE svg PUBLIC "-//W3C//DTD SVG 1.1//EN"
 "http://www.w3.org/Graphics/SVG/1.1/DTD/svg11.dtd">
<!-- Generated by graphviz version 2.40.1 (20161225.0304)
 -->
<!-- Title: G Pages: 1 -->
<svg width="1176pt" height="899pt"
 viewBox="0.00 0.00 1176.27 899.20" xmlns="http://www.w3.org/2000/svg" xmlns:xlink="http://www.w3.org/1999/xlink">
<g id="graph0" class="graph" transform="scale(1 1) rotate(0) translate(4 895.2)">
<title>G</title>
<polygon fill="#ffffff" stroke="transparent" points="-4,4 -4,-895.2 1172.2697,-895.2 1172.2697,4 -4,4"/>
<!-- GO:0040011 -->
<g id="node1" class="node">
<title>GO:0040011</title>
<polygon fill="#ffffff" stroke="#000000" points="302.7519,-805.0019 213.5441,-805.0019 213.5441,-763.7981 302.7519,-763.7981 302.7519,-805.0019"/>
<text text-anchor="middle" x="258.148" y="-788.6" font-family="Times,serif" font-size="14.00" fill="#000000">GO:0040011</text>
<text text-anchor="middle" x="258.148" y="-771.8" font-family="Times,serif" font-size="14.00" fill="#000000">locomotion</text>
</g>
<!-- GO:0008150 -->
<g id="node2" class="node">
<title>GO:0008150</title>
<polygon fill="#ffffff" stroke="#000000" points="677.6186,-891.0019 556.6774,-891.0019 556.6774,-849.7981 677.6186,-849.7981 677.6186,-891.0019"/>
<text text-anchor="middle" x="617.148" y="-874.6" font-family="Times,serif" font-size="14.00" fill="#000000">GO:0008150</text>
<text text-anchor="middle" x="617.148" y="-857.8" font-family="Times,serif" font-size="14.00" fill="#000000">biological_process</text>
</g>
<!-- GO:0040011&#45;&gt;GO:0008150 -->
<g id="edge1" class="edge">
<title>GO:0040011&#45;&gt;GO:0008150</title>
<path fill="none" stroke="#000000" d="M292.565,-805.0514C298.9209,-808.271 305.6168,-811.2903 312.148,-813.6 389.833,-841.0725 483.5904,-855.9945 546.4683,-863.5553"/>
<polygon fill="#000000" stroke="#000000" points="546.3351,-867.0635 556.6743,-864.7505 547.1493,-860.111 546.3351,-867.0635"/>
</g>
<!-- GO:0044710 -->
<g id="node3" class="node">
<title>GO:0044710</title>
<polygon fill="#ff00ff" stroke="#000000" points="654.5562,-719.4014 489.7398,-719.4014 489.7398,-660.5986 654.5562,-660.5986 654.5562,-719.4014"/>
<text text-anchor="middle" x="572.148" y="-702.6" font-family="Times,serif" font-size="14.00" fill="#000000">GO:0044710</text>
<text text-anchor="middle" x="572.148" y="-685.8" font-family="Times,serif" font-size="14.00" fill="#000000">single&#45;organism metabolic</text>
<text text-anchor="middle" x="572.148" y="-669" font-family="Times,serif" font-size="14.00" fill="#000000">process</text>
</g>
<!-- GO:0008152 -->
<g id="node4" class="node">
<title>GO:0008152</title>
<polygon fill="#ff0000" stroke="#000000" points="437.3336,-805.0019 320.9624,-805.0019 320.9624,-763.7981 437.3336,-763.7981 437.3336,-805.0019"/>
<text text-anchor="middle" x="379.148" y="-788.6" font-family="Times,serif" font-size="14.00" fill="#000000">GO:0008152</text>
<text text-anchor="middle" x="379.148" y="-771.8" font-family="Times,serif" font-size="14.00" fill="#000000">metabolic process</text>
</g>
<!-- GO:0044710&#45;&gt;GO:0008152 -->
<g id="edge2" class="edge">
<title>GO:0044710&#45;&gt;GO:0008152</title>
<path fill="none" stroke="#000000" d="M512.4033,-719.2223C486.1761,-732.0505 455.6902,-746.9617 430.5019,-759.2818"/>
<polygon fill="#000000" stroke="#000000" points="428.9246,-756.157 421.4794,-763.6949 432.0002,-762.4452 428.9246,-756.157"/>
</g>
<!-- GO:0044699 -->
<g id="node5" class="node">
<title>GO:0044699</title>
<polygon fill="#00ffff" stroke="#000000" points="692.8293,-805.0019 541.4667,-805.0019 541.4667,-763.7981 692.8293,-763.7981 692.8293,-805.0019"/>
<text text-anchor="middle" x="617.148" y="-788.6" font-family="Times,serif" font-size="14.00" fill="#000000">GO:0044699</text>
<text text-anchor="middle" x="617.148" y="-771.8" font-family="Times,serif" font-size="14.00" fill="#000000">single&#45;organism process</text>
</g>
<!-- GO:0044710&#45;&gt;GO:0044699 -->
<g id="edge3" class="edge">
<title>GO:0044710&#45;&gt;GO:0044699</title>
<path fill="none" stroke="#000000" d="M586.1396,-719.3513C591.5013,-730.5989 597.6189,-743.4323 602.9955,-754.7112"/>
<polygon fill="#000000" stroke="#000000" points="599.8422,-756.2302 607.3047,-763.751 606.161,-753.2181 599.8422,-756.2302"/>
</g>
<!-- GO:0008152&#45;&gt;GO:0008150 -->
<g id="edge4" class="edge">
<title>GO:0008152&#45;&gt;GO:0008150</title>
<path fill="none" stroke="#000000" d="M436.4578,-805.1086C470.8015,-817.5185 514.6206,-833.3523 550.5057,-846.3192"/>
<polygon fill="#000000" stroke="#000000" points="549.3291,-849.6155 559.9234,-849.7222 551.708,-843.0321 549.3291,-849.6155"/>
</g>
<!-- GO:0044699&#45;&gt;GO:0008150 -->
<g id="edge5" class="edge">
<title>GO:0044699&#45;&gt;GO:0008150</title>
<path fill="none" stroke="#000000" d="M617.148,-805.2182C617.148,-815.5705 617.148,-828.2848 617.148,-839.7271"/>
<polygon fill="#000000" stroke="#000000" points="613.6481,-839.7735 617.148,-849.7735 620.6481,-839.7735 613.6481,-839.7735"/>
</g>
<!-- GO:0003376 -->
<g id="node6" class="node">
<title>GO:0003376</title>
<polygon fill="#ffffff" stroke="#000000" points="1060.1186,-419.4014 904.1774,-419.4014 904.1774,-360.5986 1060.1186,-360.5986 1060.1186,-419.4014"/>
<text text-anchor="middle" x="982.148" y="-402.6" font-family="Times,serif" font-size="14.00" fill="#000000">GO:0003376</text>
<text text-anchor="middle" x="982.148" y="-385.8" font-family="Times,serif" font-size="14.00" fill="#000000">sphingosine&#45;1&#45;phosphate</text>
<text text-anchor="middle" x="982.148" y="-369" font-family="Times,serif" font-size="14.00" fill="#000000">signaling pathway</text>
</g>
<!-- GO:0090520 -->
<g id="node7" class="node">
<title>GO:0090520</title>
<polygon fill="#ffffff" stroke="#000000" points="1031.4707,-522.2014 890.8253,-522.2014 890.8253,-463.3986 1031.4707,-463.3986 1031.4707,-522.2014"/>
<text text-anchor="middle" x="961.148" y="-505.4" font-family="Times,serif" font-size="14.00" fill="#000000">GO:0090520</text>
<text text-anchor="middle" x="961.148" y="-488.6" font-family="Times,serif" font-size="14.00" fill="#000000">sphingolipid mediated</text>
<text text-anchor="middle" x="961.148" y="-471.8" font-family="Times,serif" font-size="14.00" fill="#000000">signaling pathway</text>
</g>
<!-- GO:0003376&#45;&gt;GO:0090520 -->
<g id="edge6" class="edge">
<title>GO:0003376&#45;&gt;GO:0090520</title>
<path fill="none" stroke="#000000" d="M976.1302,-419.4584C973.9774,-429.9969 971.5151,-442.0505 969.2172,-453.2994"/>
<polygon fill="#000000" stroke="#000000" points="965.739,-452.8391 967.1666,-463.3373 972.5974,-454.2402 965.739,-452.8391"/>
</g>
<!-- GO:0007186 -->
<g id="node8" class="node">
<title>GO:0007186</title>
<polygon fill="#ffffff" stroke="#000000" points="1168.3917,-530.5003 1049.9043,-530.5003 1049.9043,-455.0997 1168.3917,-455.0997 1168.3917,-530.5003"/>
<text text-anchor="middle" x="1109.148" y="-513.8" font-family="Times,serif" font-size="14.00" fill="#000000">GO:0007186</text>
<text text-anchor="middle" x="1109.148" y="-497" font-family="Times,serif" font-size="14.00" fill="#000000">G&#45;protein coupled</text>
<text text-anchor="middle" x="1109.148" y="-480.2" font-family="Times,serif" font-size="14.00" fill="#000000">receptor signaling</text>
<text text-anchor="middle" x="1109.148" y="-463.4" font-family="Times,serif" font-size="14.00" fill="#000000">pathway</text>
</g>
<!-- GO:0003376&#45;&gt;GO:0007186 -->
<g id="edge7" class="edge">
<title>GO:0003376&#45;&gt;GO:0007186</title>
<path fill="none" stroke="#000000" d="M1018.5411,-419.4584C1029.7247,-428.5109 1042.2892,-438.6812 1054.4185,-448.4993"/>
<polygon fill="#000000" stroke="#000000" points="1052.3326,-451.3138 1062.3074,-454.885 1056.7368,-445.8728 1052.3326,-451.3138"/>
</g>
<!-- GO:0007165 -->
<g id="node9" class="node">
<title>GO:0007165</title>
<polygon fill="#ffffff" stroke="#000000" points="1103.2947,-616.2019 981.0013,-616.2019 981.0013,-574.9981 1103.2947,-574.9981 1103.2947,-616.2019"/>
<text text-anchor="middle" x="1042.148" y="-599.8" font-family="Times,serif" font-size="14.00" fill="#000000">GO:0007165</text>
<text text-anchor="middle" x="1042.148" y="-583" font-family="Times,serif" font-size="14.00" fill="#000000">signal transduction</text>
</g>
<!-- GO:0090520&#45;&gt;GO:0007165 -->
<g id="edge8" class="edge">
<title>GO:0090520&#45;&gt;GO:0007165</title>
<path fill="none" stroke="#000000" d="M984.3593,-522.2584C995.3541,-536.2121 1008.4415,-552.8219 1019.3791,-566.7032"/>
<polygon fill="#000000" stroke="#000000" points="1016.9355,-569.2571 1025.8736,-574.9456 1022.4338,-564.9248 1016.9355,-569.2571"/>
</g>
<!-- GO:0007186&#45;&gt;GO:0007165 -->
<g id="edge9" class="edge">
<title>GO:0007186&#45;&gt;GO:0007165</title>
<path fill="none" stroke="#000000" d="M1084.5801,-530.4952C1076.8592,-542.3417 1068.4553,-555.2359 1061.1789,-566.4004"/>
<polygon fill="#000000" stroke="#000000" points="1058.1476,-564.6414 1055.6196,-574.9302 1064.012,-568.4635 1058.1476,-564.6414"/>
</g>
<!-- GO:0050794 -->
<g id="node10" class="node">
<title>GO:0050794</title>
<polygon fill="#ffffff" stroke="#000000" points="1109.047,-719.4014 975.249,-719.4014 975.249,-660.5986 1109.047,-660.5986 1109.047,-719.4014"/>
<text text-anchor="middle" x="1042.148" y="-702.6" font-family="Times,serif" font-size="14.00" fill="#000000">GO:0050794</text>
<text text-anchor="middle" x="1042.148" y="-685.8" font-family="Times,serif" font-size="14.00" fill="#000000">regulation of cellular</text>
<text text-anchor="middle" x="1042.148" y="-669" font-family="Times,serif" font-size="14.00" fill="#000000">process</text>
</g>
<!-- GO:0007165&#45;&gt;GO:0050794 -->
<g id="edge10" class="edge">
<title>GO:0007165&#45;&gt;GO:0050794</title>
<path fill="none" stroke="#000000" d="M1042.148,-616.5504C1042.148,-626.5492 1042.148,-638.8525 1042.148,-650.5106"/>
<polygon fill="#000000" stroke="#000000" points="1038.6481,-650.5155 1042.148,-660.5155 1045.6481,-650.5156 1038.6481,-650.5155"/>
</g>
<!-- GO:0065007 -->
<g id="node11" class="node">
<title>GO:0065007</title>
<polygon fill="#ffffff" stroke="#000000" points="1115.4014,-805.0019 982.8946,-805.0019 982.8946,-763.7981 1115.4014,-763.7981 1115.4014,-805.0019"/>
<text text-anchor="middle" x="1049.148" y="-788.6" font-family="Times,serif" font-size="14.00" fill="#000000">GO:0065007</text>
<text text-anchor="middle" x="1049.148" y="-771.8" font-family="Times,serif" font-size="14.00" fill="#000000">biological regulation</text>
</g>
<!-- GO:0050794&#45;&gt;GO:0065007 -->
<g id="edge11" class="edge">
<title>GO:0050794&#45;&gt;GO:0065007</title>
<path fill="none" stroke="#000000" d="M1044.3245,-719.3513C1045.1335,-730.2614 1046.0531,-742.6637 1046.8709,-753.692"/>
<polygon fill="#000000" stroke="#000000" points="1043.3868,-754.0372 1047.6168,-763.751 1050.3677,-753.5195 1043.3868,-754.0372"/>
</g>
<!-- GO:0050789 -->
<g id="node12" class="node">
<title>GO:0050789</title>
<polygon fill="#ffffff" stroke="#000000" points="965.0624,-813.8014 817.2336,-813.8014 817.2336,-754.9986 965.0624,-754.9986 965.0624,-813.8014"/>
<text text-anchor="middle" x="891.148" y="-797" font-family="Times,serif" font-size="14.00" fill="#000000">GO:0050789</text>
<text text-anchor="middle" x="891.148" y="-780.2" font-family="Times,serif" font-size="14.00" fill="#000000">regulation of biological</text>
<text text-anchor="middle" x="891.148" y="-763.4" font-family="Times,serif" font-size="14.00" fill="#000000">process</text>
</g>
<!-- GO:0050794&#45;&gt;GO:0050789 -->
<g id="edge12" class="edge">
<title>GO:0050794&#45;&gt;GO:0050789</title>
<path fill="none" stroke="#000000" d="M995.1984,-719.3513C979.8584,-728.9413 962.6743,-739.6842 946.7597,-749.6335"/>
<polygon fill="#000000" stroke="#000000" points="944.6926,-746.798 938.0686,-755.0669 948.4033,-752.7336 944.6926,-746.798"/>
</g>
<!-- GO:0065007&#45;&gt;GO:0008150 -->
<g id="edge13" class="edge">
<title>GO:0065007&#45;&gt;GO:0008150</title>
<path fill="none" stroke="#000000" d="M1000.4325,-805.092C991.7829,-808.2679 982.7796,-811.2619 974.148,-813.6 876.5185,-840.0456 760.3187,-855.7056 687.6272,-863.6787"/>
<polygon fill="#000000" stroke="#000000" points="687.2324,-860.2009 677.6654,-864.753 687.983,-867.1605 687.2324,-860.2009"/>
</g>
<!-- GO:0050789&#45;&gt;GO:0008150 -->
<g id="edge14" class="edge">
<title>GO:0050789&#45;&gt;GO:0008150</title>
<path fill="none" stroke="#000000" d="M817.0136,-811.003C814.3625,-811.8893 811.7344,-812.7576 809.148,-813.6 769.2681,-826.5888 724.3299,-839.9513 687.9603,-850.4501"/>
<polygon fill="#000000" stroke="#000000" points="686.5832,-847.2042 677.9407,-853.3326 688.5186,-853.9313 686.5832,-847.2042"/>
</g>
<!-- GO:0006810 -->
<g id="node13" class="node">
<title>GO:0006810</title>
<polygon fill="#ffffff" stroke="#000000" points="919.7519,-616.2019 830.5441,-616.2019 830.5441,-574.9981 919.7519,-574.9981 919.7519,-616.2019"/>
<text text-anchor="middle" x="875.148" y="-599.8" font-family="Times,serif" font-size="14.00" fill="#000000">GO:0006810</text>
<text text-anchor="middle" x="875.148" y="-583" font-family="Times,serif" font-size="14.00" fill="#000000">transport</text>
</g>
<!-- GO:0051234 -->
<g id="node14" class="node">
<title>GO:0051234</title>
<polygon fill="#ffffff" stroke="#000000" points="942.2947,-719.4014 834.0013,-719.4014 834.0013,-660.5986 942.2947,-660.5986 942.2947,-719.4014"/>
<text text-anchor="middle" x="888.148" y="-702.6" font-family="Times,serif" font-size="14.00" fill="#000000">GO:0051234</text>
<text text-anchor="middle" x="888.148" y="-685.8" font-family="Times,serif" font-size="14.00" fill="#000000">establishment of</text>
<text text-anchor="middle" x="888.148" y="-669" font-family="Times,serif" font-size="14.00" fill="#000000">localization</text>
</g>
<!-- GO:0006810&#45;&gt;GO:0051234 -->
<g id="edge15" class="edge">
<title>GO:0006810&#45;&gt;GO:0051234</title>
<path fill="none" stroke="#000000" d="M878.0331,-616.5504C879.4101,-626.5492 881.1044,-638.8525 882.7098,-650.5106"/>
<polygon fill="#000000" stroke="#000000" points="879.256,-651.0865 884.0876,-660.5155 886.1906,-650.1315 879.256,-651.0865"/>
</g>
<!-- GO:0051179 -->
<g id="node15" class="node">
<title>GO:0051179</title>
<polygon fill="#ffffff" stroke="#000000" points="799.7519,-805.0019 710.5441,-805.0019 710.5441,-763.7981 799.7519,-763.7981 799.7519,-805.0019"/>
<text text-anchor="middle" x="755.148" y="-788.6" font-family="Times,serif" font-size="14.00" fill="#000000">GO:0051179</text>
<text text-anchor="middle" x="755.148" y="-771.8" font-family="Times,serif" font-size="14.00" fill="#000000">localization</text>
</g>
<!-- GO:0051234&#45;&gt;GO:0051179 -->
<g id="edge16" class="edge">
<title>GO:0051234&#45;&gt;GO:0051179</title>
<path fill="none" stroke="#000000" d="M846.795,-719.3513C829.5221,-731.6112 809.5947,-745.7551 792.7424,-757.7165"/>
<polygon fill="#000000" stroke="#000000" points="790.3693,-755.1088 784.2404,-763.751 794.4209,-760.8171 790.3693,-755.1088"/>
</g>
<!-- GO:0051179&#45;&gt;GO:0008150 -->
<g id="edge17" class="edge">
<title>GO:0051179&#45;&gt;GO:0008150</title>
<path fill="none" stroke="#000000" d="M721.742,-805.2182C702.8419,-816.9966 679.0352,-831.8326 658.9108,-844.3739"/>
<polygon fill="#000000" stroke="#000000" points="656.8821,-841.5141 650.2463,-849.7735 660.5844,-847.455 656.8821,-841.5141"/>
</g>
<!-- GO:0030153 -->
<g id="node16" class="node">
<title>GO:0030153</title>
<polygon fill="#ff00ff" stroke="#000000" points="606.2919,-410.6019 470.0041,-410.6019 470.0041,-369.3981 606.2919,-369.3981 606.2919,-410.6019"/>
<text text-anchor="middle" x="538.148" y="-394.2" font-family="Times,serif" font-size="14.00" fill="#000000">GO:0030153</text>
<text text-anchor="middle" x="538.148" y="-377.4" font-family="Times,serif" font-size="14.00" fill="#000000">bacteriocin immunity</text>
</g>
<!-- GO:0009404 -->
<g id="node17" class="node">
<title>GO:0009404</title>
<polygon fill="#ffffff" stroke="#000000" points="612.6144,-513.4019 463.6816,-513.4019 463.6816,-472.1981 612.6144,-472.1981 612.6144,-513.4019"/>
<text text-anchor="middle" x="538.148" y="-497" font-family="Times,serif" font-size="14.00" fill="#000000">GO:0009404</text>
<text text-anchor="middle" x="538.148" y="-480.2" font-family="Times,serif" font-size="14.00" fill="#000000">toxin metabolic process</text>
</g>
<!-- GO:0030153&#45;&gt;GO:0009404 -->
<g id="edge18" class="edge">
<title>GO:0030153&#45;&gt;GO:0009404</title>
<path fill="none" stroke="#000000" d="M538.148,-410.8031C538.148,-425.4337 538.148,-445.2642 538.148,-461.7586"/>
<polygon fill="#000000" stroke="#000000" points="534.6481,-462.0278 538.148,-472.0278 541.6481,-462.0279 534.6481,-462.0278"/>
</g>
<!-- GO:0019748 -->
<g id="node18" class="node">
<title>GO:0019748</title>
<polygon fill="#ffffff" stroke="#000000" points="588.104,-625.0014 456.192,-625.0014 456.192,-566.1986 588.104,-566.1986 588.104,-625.0014"/>
<text text-anchor="middle" x="522.148" y="-608.2" font-family="Times,serif" font-size="14.00" fill="#000000">GO:0019748</text>
<text text-anchor="middle" x="522.148" y="-591.4" font-family="Times,serif" font-size="14.00" fill="#000000">secondary metabolic</text>
<text text-anchor="middle" x="522.148" y="-574.6" font-family="Times,serif" font-size="14.00" fill="#000000">process</text>
</g>
<!-- GO:0009404&#45;&gt;GO:0019748 -->
<g id="edge19" class="edge">
<title>GO:0009404&#45;&gt;GO:0019748</title>
<path fill="none" stroke="#000000" d="M534.9102,-513.6031C533.0144,-525.7833 530.5577,-541.5676 528.3067,-556.0305"/>
<polygon fill="#000000" stroke="#000000" points="524.7945,-555.8384 526.7149,-566.2577 531.7112,-556.915 524.7945,-555.8384"/>
</g>
<!-- GO:0044763 -->
<g id="node19" class="node">
<title>GO:0044763</title>
<polygon fill="#ffffff" stroke="#000000" points="757.8265,-625.0014 606.4695,-625.0014 606.4695,-566.1986 757.8265,-566.1986 757.8265,-625.0014"/>
<text text-anchor="middle" x="682.148" y="-608.2" font-family="Times,serif" font-size="14.00" fill="#000000">GO:0044763</text>
<text text-anchor="middle" x="682.148" y="-591.4" font-family="Times,serif" font-size="14.00" fill="#000000">single&#45;organism cellular</text>
<text text-anchor="middle" x="682.148" y="-574.6" font-family="Times,serif" font-size="14.00" fill="#000000">process</text>
</g>
<!-- GO:0009404&#45;&gt;GO:0044763 -->
<g id="edge20" class="edge">
<title>GO:0009404&#45;&gt;GO:0044763</title>
<path fill="none" stroke="#000000" d="M567.2885,-513.6031C586.0896,-527.025 611.021,-544.8232 632.8507,-560.4072"/>
<polygon fill="#000000" stroke="#000000" points="630.8735,-563.2961 641.046,-566.2577 634.9407,-557.5988 630.8735,-563.2961"/>
</g>
<!-- GO:0044237 -->
<g id="node20" class="node">
<title>GO:0044237</title>
<polygon fill="#ff0000" stroke="#000000" points="430.3308,-625.0014 313.9652,-625.0014 313.9652,-566.1986 430.3308,-566.1986 430.3308,-625.0014"/>
<text text-anchor="middle" x="372.148" y="-608.2" font-family="Times,serif" font-size="14.00" fill="#000000">GO:0044237</text>
<text text-anchor="middle" x="372.148" y="-591.4" font-family="Times,serif" font-size="14.00" fill="#000000">cellular metabolic</text>
<text text-anchor="middle" x="372.148" y="-574.6" font-family="Times,serif" font-size="14.00" fill="#000000">process</text>
</g>
<!-- GO:0009404&#45;&gt;GO:0044237 -->
<g id="edge21" class="edge">
<title>GO:0009404&#45;&gt;GO:0044237</title>
<path fill="none" stroke="#000000" d="M504.5554,-513.6031C482.691,-527.1432 453.6347,-545.1372 428.3126,-560.8186"/>
<polygon fill="#000000" stroke="#000000" points="426.1885,-558.0171 419.5295,-566.2577 429.874,-563.9684 426.1885,-558.0171"/>
</g>
<!-- GO:0019748&#45;&gt;GO:0044710 -->
<g id="edge22" class="edge">
<title>GO:0019748&#45;&gt;GO:0044710</title>
<path fill="none" stroke="#000000" d="M537.6942,-624.9513C542.1623,-633.387 547.1028,-642.7147 551.8141,-651.6096"/>
<polygon fill="#000000" stroke="#000000" points="548.8378,-653.4681 556.6114,-660.6669 555.0237,-650.1917 548.8378,-653.4681"/>
</g>
<!-- GO:0044763&#45;&gt;GO:0044699 -->
<g id="edge24" class="edge">
<title>GO:0044763&#45;&gt;GO:0044699</title>
<path fill="none" stroke="#000000" d="M681.4166,-624.8172C679.9067,-650.5122 675.5353,-688.4963 663.148,-719.2 657.9949,-731.9727 649.9063,-744.6584 641.9395,-755.3982"/>
<polygon fill="#000000" stroke="#000000" points="638.9789,-753.5055 635.6348,-763.5587 644.5183,-757.7852 638.9789,-753.5055"/>
</g>
<!-- GO:0009987 -->
<g id="node21" class="node">
<title>GO:0009987</title>
<polygon fill="#ffffff" stroke="#000000" points="472.1042,-710.6019 368.1918,-710.6019 368.1918,-669.3981 472.1042,-669.3981 472.1042,-710.6019"/>
<text text-anchor="middle" x="420.148" y="-694.2" font-family="Times,serif" font-size="14.00" fill="#000000">GO:0009987</text>
<text text-anchor="middle" x="420.148" y="-677.4" font-family="Times,serif" font-size="14.00" fill="#000000">cellular process</text>
</g>
<!-- GO:0044763&#45;&gt;GO:0009987 -->
<g id="edge23" class="edge">
<title>GO:0044763&#45;&gt;GO:0009987</title>
<path fill="none" stroke="#000000" d="M606.186,-621.8213C603.1358,-622.8342 600.1143,-623.8305 597.148,-624.8 545.8381,-641.571 531.4039,-641.0941 481.148,-660.8 477.6638,-662.1662 474.1016,-663.6449 470.5347,-665.1868"/>
<polygon fill="#000000" stroke="#000000" points="468.8384,-662.111 461.1328,-669.3825 471.6911,-668.5034 468.8384,-662.111"/>
</g>
<!-- GO:0044237&#45;&gt;GO:0008152 -->
<g id="edge26" class="edge">
<title>GO:0044237&#45;&gt;GO:0008152</title>
<path fill="none" stroke="#000000" d="M364.8911,-624.9107C359.6726,-650.013 354.3333,-687.086 359.148,-719.2 360.8775,-730.7353 364.2377,-743.048 367.7174,-753.8315"/>
<polygon fill="#000000" stroke="#000000" points="364.5133,-755.2814 371.0409,-763.6265 371.1421,-753.0321 364.5133,-755.2814"/>
</g>
<!-- GO:0044237&#45;&gt;GO:0009987 -->
<g id="edge25" class="edge">
<title>GO:0044237&#45;&gt;GO:0009987</title>
<path fill="none" stroke="#000000" d="M387.0724,-624.9513C392.7915,-636.1989 399.3169,-649.0323 405.052,-660.3112"/>
<polygon fill="#000000" stroke="#000000" points="401.9961,-662.0235 409.6485,-669.351 408.2358,-658.8507 401.9961,-662.0235"/>
</g>
<!-- GO:0009987&#45;&gt;GO:0008150 -->
<g id="edge27" class="edge">
<title>GO:0009987&#45;&gt;GO:0008150</title>
<path fill="none" stroke="#000000" d="M436.2294,-710.6806C456.8409,-736.4536 494.436,-781.0645 532.148,-813.6 544.7151,-824.442 559.4432,-834.9424 573.0766,-843.904"/>
<polygon fill="#000000" stroke="#000000" points="571.5432,-847.0798 581.8439,-849.5589 575.3374,-841.1973 571.5432,-847.0798"/>
</g>
<!-- GO:0006474 -->
<g id="node22" class="node">
<title>GO:0006474</title>
<polygon fill="#ff00ff" stroke="#000000" points="279.7196,-58.6014 120.5764,-58.6014 120.5764,.2014 279.7196,.2014 279.7196,-58.6014"/>
<text text-anchor="middle" x="200.148" y="-41.8" font-family="Times,serif" font-size="14.00" fill="#000000">GO:0006474</text>
<text text-anchor="middle" x="200.148" y="-25" font-family="Times,serif" font-size="14.00" fill="#000000">N&#45;terminal protein amino</text>
<text text-anchor="middle" x="200.148" y="-8.2" font-family="Times,serif" font-size="14.00" fill="#000000">acid acetylation</text>
</g>
<!-- GO:0006473 -->
<g id="node23" class="node">
<title>GO:0006473</title>
<polygon fill="#ffffff" stroke="#000000" points="320.2259,-135.8019 200.0701,-135.8019 200.0701,-94.5981 320.2259,-94.5981 320.2259,-135.8019"/>
<text text-anchor="middle" x="260.148" y="-119.4" font-family="Times,serif" font-size="14.00" fill="#000000">GO:0006473</text>
<text text-anchor="middle" x="260.148" y="-102.6" font-family="Times,serif" font-size="14.00" fill="#000000">protein acetylation</text>
</g>
<!-- GO:0006474&#45;&gt;GO:0006473 -->
<g id="edge28" class="edge">
<title>GO:0006474&#45;&gt;GO:0006473</title>
<path fill="none" stroke="#000000" d="M220.7966,-58.7963C226.9491,-67.6149 233.6847,-77.2692 239.8168,-86.0586"/>
<polygon fill="#000000" stroke="#000000" points="237.1114,-88.2979 245.7037,-94.4966 242.8523,-84.2926 237.1114,-88.2979"/>
</g>
<!-- GO:0031365 -->
<g id="node24" class="node">
<title>GO:0031365</title>
<polygon fill="#ffffff" stroke="#000000" points="203.7196,-230.6014 44.5764,-230.6014 44.5764,-171.7986 203.7196,-171.7986 203.7196,-230.6014"/>
<text text-anchor="middle" x="124.148" y="-213.8" font-family="Times,serif" font-size="14.00" fill="#000000">GO:0031365</text>
<text text-anchor="middle" x="124.148" y="-197" font-family="Times,serif" font-size="14.00" fill="#000000">N&#45;terminal protein amino</text>
<text text-anchor="middle" x="124.148" y="-180.2" font-family="Times,serif" font-size="14.00" fill="#000000">acid modification</text>
</g>
<!-- GO:0006474&#45;&gt;GO:0031365 -->
<g id="edge29" class="edge">
<title>GO:0006474&#45;&gt;GO:0031365</title>
<path fill="none" stroke="#000000" d="M187.0831,-58.7679C174.4292,-87.4056 155.1707,-130.9907 141.2909,-162.4029"/>
<polygon fill="#000000" stroke="#000000" points="138.0096,-161.1692 137.1693,-171.7307 144.4124,-163.9984 138.0096,-161.1692"/>
</g>
<!-- GO:0043543 -->
<g id="node25" class="node">
<title>GO:0043543</title>
<polygon fill="#ffffff" stroke="#000000" points="332.621,-221.8019 221.675,-221.8019 221.675,-180.5981 332.621,-180.5981 332.621,-221.8019"/>
<text text-anchor="middle" x="277.148" y="-205.4" font-family="Times,serif" font-size="14.00" fill="#000000">GO:0043543</text>
<text text-anchor="middle" x="277.148" y="-188.6" font-family="Times,serif" font-size="14.00" fill="#000000">protein acylation</text>
</g>
<!-- GO:0006473&#45;&gt;GO:0043543 -->
<g id="edge30" class="edge">
<title>GO:0006473&#45;&gt;GO:0043543</title>
<path fill="none" stroke="#000000" d="M264.2632,-136.0182C266.3096,-146.3705 268.8229,-159.0848 271.0848,-170.5271"/>
<polygon fill="#000000" stroke="#000000" points="267.6978,-171.4421 273.0707,-180.5735 274.5649,-170.0846 267.6978,-171.4421"/>
</g>
<!-- GO:0006464 -->
<g id="node26" class="node">
<title>GO:0006464</title>
<polygon fill="#ffffff" stroke="#000000" points="266.6698,-325.0014 133.6262,-325.0014 133.6262,-266.1986 266.6698,-266.1986 266.6698,-325.0014"/>
<text text-anchor="middle" x="200.148" y="-308.2" font-family="Times,serif" font-size="14.00" fill="#000000">GO:0006464</text>
<text text-anchor="middle" x="200.148" y="-291.4" font-family="Times,serif" font-size="14.00" fill="#000000">cellular protein</text>
<text text-anchor="middle" x="200.148" y="-274.6" font-family="Times,serif" font-size="14.00" fill="#000000">modification process</text>
</g>
<!-- GO:0031365&#45;&gt;GO:0006464 -->
<g id="edge31" class="edge">
<title>GO:0031365&#45;&gt;GO:0006464</title>
<path fill="none" stroke="#000000" d="M147.7783,-230.5513C154.8557,-239.3422 162.713,-249.1018 170.1431,-258.3308"/>
<polygon fill="#000000" stroke="#000000" points="167.535,-260.6724 176.5323,-266.2669 172.9875,-256.2826 167.535,-260.6724"/>
</g>
<!-- GO:0043543&#45;&gt;GO:0006464 -->
<g id="edge32" class="edge">
<title>GO:0043543&#45;&gt;GO:0006464</title>
<path fill="none" stroke="#000000" d="M260.0592,-222.1504C251.4091,-232.7552 240.6446,-245.9522 230.636,-258.2225"/>
<polygon fill="#000000" stroke="#000000" points="227.8064,-256.1541 224.1978,-266.1155 233.2308,-260.5787 227.8064,-256.1541"/>
</g>
<!-- GO:0044267 -->
<g id="node27" class="node">
<title>GO:0044267</title>
<polygon fill="#ffffff" stroke="#000000" points="329.3336,-419.4014 212.9624,-419.4014 212.9624,-360.5986 329.3336,-360.5986 329.3336,-419.4014"/>
<text text-anchor="middle" x="271.148" y="-402.6" font-family="Times,serif" font-size="14.00" fill="#000000">GO:0044267</text>
<text text-anchor="middle" x="271.148" y="-385.8" font-family="Times,serif" font-size="14.00" fill="#000000">cellular protein</text>
<text text-anchor="middle" x="271.148" y="-369" font-family="Times,serif" font-size="14.00" fill="#000000">metabolic process</text>
</g>
<!-- GO:0006464&#45;&gt;GO:0044267 -->
<g id="edge33" class="edge">
<title>GO:0006464&#45;&gt;GO:0044267</title>
<path fill="none" stroke="#000000" d="M222.2237,-324.9513C228.7686,-333.6534 236.0276,-343.3047 242.9067,-352.4509"/>
<polygon fill="#000000" stroke="#000000" points="240.278,-354.7788 249.086,-360.6669 245.8723,-350.5712 240.278,-354.7788"/>
</g>
<!-- GO:0036211 -->
<g id="node28" class="node">
<title>GO:0036211</title>
<polygon fill="#ffffff" stroke="#000000" points="194.3475,-419.4014 63.9485,-419.4014 63.9485,-360.5986 194.3475,-360.5986 194.3475,-419.4014"/>
<text text-anchor="middle" x="129.148" y="-402.6" font-family="Times,serif" font-size="14.00" fill="#000000">GO:0036211</text>
<text text-anchor="middle" x="129.148" y="-385.8" font-family="Times,serif" font-size="14.00" fill="#000000">protein modification</text>
<text text-anchor="middle" x="129.148" y="-369" font-family="Times,serif" font-size="14.00" fill="#000000">process</text>
</g>
<!-- GO:0006464&#45;&gt;GO:0036211 -->
<g id="edge34" class="edge">
<title>GO:0006464&#45;&gt;GO:0036211</title>
<path fill="none" stroke="#000000" d="M178.0723,-324.9513C171.5274,-333.6534 164.2684,-343.3047 157.3893,-352.4509"/>
<polygon fill="#000000" stroke="#000000" points="154.4237,-350.5712 151.21,-360.6669 160.018,-354.7788 154.4237,-350.5712"/>
</g>
<!-- GO:0019538 -->
<g id="node29" class="node">
<title>GO:0019538</title>
<polygon fill="#ffffff" stroke="#000000" points="279.9897,-513.4019 120.3063,-513.4019 120.3063,-472.1981 279.9897,-472.1981 279.9897,-513.4019"/>
<text text-anchor="middle" x="200.148" y="-497" font-family="Times,serif" font-size="14.00" fill="#000000">GO:0019538</text>
<text text-anchor="middle" x="200.148" y="-480.2" font-family="Times,serif" font-size="14.00" fill="#000000">protein metabolic process</text>
</g>
<!-- GO:0044267&#45;&gt;GO:0019538 -->
<g id="edge35" class="edge">
<title>GO:0044267&#45;&gt;GO:0019538</title>
<path fill="none" stroke="#000000" d="M250.8022,-419.4584C241.1649,-433.4121 229.6932,-450.0219 220.1059,-463.9032"/>
<polygon fill="#000000" stroke="#000000" points="217.2163,-461.9283 214.4132,-472.1456 222.9761,-465.9064 217.2163,-461.9283"/>
</g>
<!-- GO:0044260 -->
<g id="node30" class="node">
<title>GO:0044260</title>
<polygon fill="#ffffff" stroke="#000000" points="445.9204,-522.2014 298.3756,-522.2014 298.3756,-463.3986 445.9204,-463.3986 445.9204,-522.2014"/>
<text text-anchor="middle" x="372.148" y="-505.4" font-family="Times,serif" font-size="14.00" fill="#000000">GO:0044260</text>
<text text-anchor="middle" x="372.148" y="-488.6" font-family="Times,serif" font-size="14.00" fill="#000000">cellular macromolecule</text>
<text text-anchor="middle" x="372.148" y="-471.8" font-family="Times,serif" font-size="14.00" fill="#000000">metabolic process</text>
</g>
<!-- GO:0044267&#45;&gt;GO:0044260 -->
<g id="edge36" class="edge">
<title>GO:0044267&#45;&gt;GO:0044260</title>
<path fill="none" stroke="#000000" d="M300.0905,-419.4584C311.2898,-430.8572 324.2305,-444.0285 336.0286,-456.0369"/>
<polygon fill="#000000" stroke="#000000" points="333.6962,-458.657 343.2012,-463.3373 338.6895,-453.7511 333.6962,-458.657"/>
</g>
<!-- GO:0036211&#45;&gt;GO:0019538 -->
<g id="edge37" class="edge">
<title>GO:0036211&#45;&gt;GO:0019538</title>
<path fill="none" stroke="#000000" d="M149.4938,-419.4584C159.1311,-433.4121 170.6028,-450.0219 180.1901,-463.9032"/>
<polygon fill="#000000" stroke="#000000" points="177.3199,-465.9064 185.8828,-472.1456 183.0797,-461.9283 177.3199,-465.9064"/>
</g>
<!-- GO:0043412 -->
<g id="node31" class="node">
<title>GO:0043412</title>
<polygon fill="#ffffff" stroke="#000000" points="102.4444,-522.2014 -.1484,-522.2014 -.1484,-463.3986 102.4444,-463.3986 102.4444,-522.2014"/>
<text text-anchor="middle" x="51.148" y="-505.4" font-family="Times,serif" font-size="14.00" fill="#000000">GO:0043412</text>
<text text-anchor="middle" x="51.148" y="-488.6" font-family="Times,serif" font-size="14.00" fill="#000000">macromolecule</text>
<text text-anchor="middle" x="51.148" y="-471.8" font-family="Times,serif" font-size="14.00" fill="#000000">modification</text>
</g>
<!-- GO:0036211&#45;&gt;GO:0043412 -->
<g id="edge38" class="edge">
<title>GO:0036211&#45;&gt;GO:0043412</title>
<path fill="none" stroke="#000000" d="M106.7963,-419.4584C98.3106,-430.6421 88.5303,-443.5321 79.5588,-455.356"/>
<polygon fill="#000000" stroke="#000000" points="76.7593,-453.2553 73.5029,-463.3373 82.3358,-457.4865 76.7593,-453.2553"/>
</g>
<!-- GO:0044238 -->
<g id="node32" class="node">
<title>GO:0044238</title>
<polygon fill="#ffffff" stroke="#000000" points="177.151,-710.6019 13.145,-710.6019 13.145,-669.3981 177.151,-669.3981 177.151,-710.6019"/>
<text text-anchor="middle" x="95.148" y="-694.2" font-family="Times,serif" font-size="14.00" fill="#000000">GO:0044238</text>
<text text-anchor="middle" x="95.148" y="-677.4" font-family="Times,serif" font-size="14.00" fill="#000000">primary metabolic process</text>
</g>
<!-- GO:0019538&#45;&gt;GO:0044238 -->
<g id="edge39" class="edge">
<title>GO:0019538&#45;&gt;GO:0044238</title>
<path fill="none" stroke="#000000" d="M167.6859,-513.4709C149.9485,-526.4945 129.1985,-544.8945 117.148,-566.4 101.0416,-595.1438 96.2857,-633.0406 95.0916,-659.2573"/>
<polygon fill="#000000" stroke="#000000" points="91.5896,-659.271 94.7804,-669.3739 98.5863,-659.4862 91.5896,-659.271"/>
</g>
<!-- GO:0043170 -->
<g id="node33" class="node">
<title>GO:0043170</title>
<polygon fill="#ffffff" stroke="#000000" points="287.6502,-625.0014 126.6458,-625.0014 126.6458,-566.1986 287.6502,-566.1986 287.6502,-625.0014"/>
<text text-anchor="middle" x="207.148" y="-608.2" font-family="Times,serif" font-size="14.00" fill="#000000">GO:0043170</text>
<text text-anchor="middle" x="207.148" y="-591.4" font-family="Times,serif" font-size="14.00" fill="#000000">macromolecule metabolic</text>
<text text-anchor="middle" x="207.148" y="-574.6" font-family="Times,serif" font-size="14.00" fill="#000000">process</text>
</g>
<!-- GO:0019538&#45;&gt;GO:0043170 -->
<g id="edge40" class="edge">
<title>GO:0019538&#45;&gt;GO:0043170</title>
<path fill="none" stroke="#000000" d="M201.5646,-513.6031C202.3939,-525.7833 203.4688,-541.5676 204.4536,-556.0305"/>
<polygon fill="#000000" stroke="#000000" points="200.9786,-556.5186 205.15,-566.2577 207.9624,-556.043 200.9786,-556.5186"/>
</g>
<!-- GO:0044260&#45;&gt;GO:0044237 -->
<g id="edge41" class="edge">
<title>GO:0044260&#45;&gt;GO:0044237</title>
<path fill="none" stroke="#000000" d="M372.148,-522.2584C372.148,-532.7969 372.148,-544.8505 372.148,-556.0994"/>
<polygon fill="#000000" stroke="#000000" points="368.6481,-556.1373 372.148,-566.1373 375.6481,-556.1374 368.6481,-556.1373"/>
</g>
<!-- GO:0044260&#45;&gt;GO:0043170 -->
<g id="edge42" class="edge">
<title>GO:0044260&#45;&gt;GO:0043170</title>
<path fill="none" stroke="#000000" d="M324.8656,-522.2584C305.4508,-534.3544 282.8327,-548.4462 262.6406,-561.0264"/>
<polygon fill="#000000" stroke="#000000" points="260.7885,-558.0566 254.1518,-566.3152 264.4901,-563.9978 260.7885,-558.0566"/>
</g>
<!-- GO:0043412&#45;&gt;GO:0043170 -->
<g id="edge43" class="edge">
<title>GO:0043412&#45;&gt;GO:0043170</title>
<path fill="none" stroke="#000000" d="M95.8513,-522.2584C114.0432,-534.2464 135.21,-548.1947 154.1704,-560.6891"/>
<polygon fill="#000000" stroke="#000000" points="152.4321,-563.7352 162.708,-566.3152 156.2839,-557.8902 152.4321,-563.7352"/>
</g>
<!-- GO:0044238&#45;&gt;GO:0008152 -->
<g id="edge44" class="edge">
<title>GO:0044238&#45;&gt;GO:0008152</title>
<path fill="none" stroke="#000000" d="M159.4207,-710.6423C168.7115,-713.5555 178.1662,-716.4818 187.148,-719.2 242.4831,-735.9464 257.7548,-735.6092 312.148,-755.2 316.289,-756.6915 320.5379,-758.3148 324.7894,-760.007"/>
<polygon fill="#000000" stroke="#000000" points="323.4792,-763.2525 334.0601,-763.7968 326.1281,-756.773 323.4792,-763.2525"/>
</g>
<!-- GO:0071704 -->
<g id="node34" class="node">
<title>GO:0071704</title>
<polygon fill="#ffffff" stroke="#000000" points="312.3336,-719.4014 195.9624,-719.4014 195.9624,-660.5986 312.3336,-660.5986 312.3336,-719.4014"/>
<text text-anchor="middle" x="254.148" y="-702.6" font-family="Times,serif" font-size="14.00" fill="#000000">GO:0071704</text>
<text text-anchor="middle" x="254.148" y="-685.8" font-family="Times,serif" font-size="14.00" fill="#000000">organic substance</text>
<text text-anchor="middle" x="254.148" y="-669" font-family="Times,serif" font-size="14.00" fill="#000000">metabolic process</text>
</g>
<!-- GO:0043170&#45;&gt;GO:0071704 -->
<g id="edge45" class="edge">
<title>GO:0043170&#45;&gt;GO:0071704</title>
<path fill="none" stroke="#000000" d="M221.7615,-624.9513C225.9614,-633.387 230.6055,-642.7147 235.0341,-651.6096"/>
<polygon fill="#000000" stroke="#000000" points="231.9534,-653.275 239.5436,-660.6669 238.2197,-650.1551 231.9534,-653.275"/>
</g>
<!-- GO:0071704&#45;&gt;GO:0008152 -->
<g id="edge46" class="edge">
<title>GO:0071704&#45;&gt;GO:0008152</title>
<path fill="none" stroke="#000000" d="M293.0136,-719.3513C309.2475,-731.6112 327.9763,-745.7551 343.8149,-757.7165"/>
<polygon fill="#000000" stroke="#000000" points="341.7162,-760.5174 351.8056,-763.751 345.9348,-754.9314 341.7162,-760.5174"/>
</g>
<!-- GO:0055085 -->
<g id="node35" class="node">
<title>GO:0055085</title>
<polygon fill="#ffffff" stroke="#000000" points="845.7062,-410.6019 690.5898,-410.6019 690.5898,-369.3981 845.7062,-369.3981 845.7062,-410.6019"/>
<text text-anchor="middle" x="768.148" y="-394.2" font-family="Times,serif" font-size="14.00" fill="#000000">GO:0055085</text>
<text text-anchor="middle" x="768.148" y="-377.4" font-family="Times,serif" font-size="14.00" fill="#000000">transmembrane transport</text>
</g>
<!-- GO:0055085&#45;&gt;GO:0044763 -->
<g id="edge48" class="edge">
<title>GO:0055085&#45;&gt;GO:0044763</title>
<path fill="none" stroke="#000000" d="M739.2756,-410.6399C725.4369,-422.1367 709.9855,-437.6618 701.148,-455.2 685.3259,-486.5994 681.2493,-526.7083 680.7345,-556.0103"/>
<polygon fill="#000000" stroke="#000000" points="677.2334,-556.2658 680.6908,-566.2807 684.2334,-556.2957 677.2334,-556.2658"/>
</g>
<!-- GO:0044765 -->
<g id="node36" class="node">
<title>GO:0044765</title>
<polygon fill="#ffffff" stroke="#000000" points="870.1123,-513.4019 710.1837,-513.4019 710.1837,-472.1981 870.1123,-472.1981 870.1123,-513.4019"/>
<text text-anchor="middle" x="790.148" y="-497" font-family="Times,serif" font-size="14.00" fill="#000000">GO:0044765</text>
<text text-anchor="middle" x="790.148" y="-480.2" font-family="Times,serif" font-size="14.00" fill="#000000">single&#45;organism transport</text>
</g>
<!-- GO:0055085&#45;&gt;GO:0044765 -->
<g id="edge47" class="edge">
<title>GO:0055085&#45;&gt;GO:0044765</title>
<path fill="none" stroke="#000000" d="M772.6,-410.8031C775.7609,-425.573 780.0559,-445.6424 783.6056,-462.229"/>
<polygon fill="#000000" stroke="#000000" points="780.1873,-462.9817 785.7026,-472.0278 787.0323,-461.5168 780.1873,-462.9817"/>
</g>
<!-- GO:0044765&#45;&gt;GO:0006810 -->
<g id="edge49" class="edge">
<title>GO:0044765&#45;&gt;GO:0006810</title>
<path fill="none" stroke="#000000" d="M807.349,-513.6031C820.0223,-528.9304 837.4145,-549.9647 851.4103,-566.8913"/>
<polygon fill="#000000" stroke="#000000" points="848.9029,-569.3514 857.9726,-574.8278 854.2976,-564.8907 848.9029,-569.3514"/>
</g>
<!-- GO:1902578 -->
<g id="node37" class="node">
<title>GO:1902578</title>
<polygon fill="#ffffff" stroke="#000000" points="816.3502,-719.4014 709.9458,-719.4014 709.9458,-660.5986 816.3502,-660.5986 816.3502,-719.4014"/>
<text text-anchor="middle" x="763.148" y="-702.6" font-family="Times,serif" font-size="14.00" fill="#000000">GO:1902578</text>
<text text-anchor="middle" x="763.148" y="-685.8" font-family="Times,serif" font-size="14.00" fill="#000000">single&#45;organism</text>
<text text-anchor="middle" x="763.148" y="-669" font-family="Times,serif" font-size="14.00" fill="#000000">localization</text>
</g>
<!-- GO:0044765&#45;&gt;GO:1902578 -->
<g id="edge50" class="edge">
<title>GO:0044765&#45;&gt;GO:1902578</title>
<path fill="none" stroke="#000000" d="M787.3096,-513.5311C782.8661,-545.9847 774.1918,-609.3391 768.5363,-650.6458"/>
<polygon fill="#000000" stroke="#000000" points="765.0568,-650.2579 767.1678,-660.6402 771.9921,-651.2075 765.0568,-650.2579"/>
</g>
<!-- GO:1902578&#45;&gt;GO:0044699 -->
<g id="edge52" class="edge">
<title>GO:1902578&#45;&gt;GO:0044699</title>
<path fill="none" stroke="#000000" d="M717.753,-719.3513C698.5308,-731.7799 676.3139,-746.1448 657.6552,-758.209"/>
<polygon fill="#000000" stroke="#000000" points="655.5812,-755.3821 649.084,-763.751 659.3819,-761.2604 655.5812,-755.3821"/>
</g>
<!-- GO:1902578&#45;&gt;GO:0051179 -->
<g id="edge51" class="edge">
<title>GO:1902578&#45;&gt;GO:0051179</title>
<path fill="none" stroke="#000000" d="M760.6606,-719.3513C759.736,-730.2614 758.685,-742.6637 757.7504,-753.692"/>
<polygon fill="#000000" stroke="#000000" points="754.2549,-753.4911 756.8979,-763.751 761.2299,-754.0823 754.2549,-753.4911"/>
</g>
</g>
</svg>
