<?xml version="1.0" encoding="UTF-8" standalone="no"?>
<!DOCTYPE svg PUBLIC "-//W3C//DTD SVG 1.1//EN"
 "http://www.w3.org/Graphics/SVG/1.1/DTD/svg11.dtd">
<!-- Generated by graphviz version 2.40.1 (20161225.0304)
 -->
<!-- Title: G Pages: 1 -->
<svg width="755pt" height="410pt"
 viewBox="0.00 0.00 755.18 410.40" xmlns="http://www.w3.org/2000/svg" xmlns:xlink="http://www.w3.org/1999/xlink">
<g id="graph0" class="graph" transform="scale(1 1) rotate(0) translate(4 406.4)">
<title>G</title>
<polygon fill="#ffffff" stroke="transparent" points="-4,4 -4,-406.4 751.1817,-406.4 751.1817,4 -4,4"/>
<!-- GO:0044238 -->
<g id="node1" class="node">
<title>GO:0044238</title>
<polygon fill="#ff00ff" stroke="#000000" points="442.3456,-238.6019 278.3396,-238.6019 278.3396,-197.3981 442.3456,-197.3981 442.3456,-238.6019"/>
<text text-anchor="middle" x="360.3426" y="-222.2" font-family="Times,serif" font-size="14.00" fill="#000000">GO:0044238</text>
<text text-anchor="middle" x="360.3426" y="-205.4" font-family="Times,serif" font-size="14.00" fill="#000000">primary metabolic process</text>
</g>
<!-- GO:0008152 -->
<g id="node2" class="node">
<title>GO:0008152</title>
<polygon fill="#ffffff" stroke="#000000" points="418.5282,-324.6019 302.157,-324.6019 302.157,-283.3981 418.5282,-283.3981 418.5282,-324.6019"/>
<text text-anchor="middle" x="360.3426" y="-308.2" font-family="Times,serif" font-size="14.00" fill="#000000">GO:0008152</text>
<text text-anchor="middle" x="360.3426" y="-291.4" font-family="Times,serif" font-size="14.00" fill="#000000">metabolic process</text>
</g>
<!-- GO:0044238&#45;&gt;GO:0008152 -->
<g id="edge1" class="edge">
<title>GO:0044238&#45;&gt;GO:0008152</title>
<path fill="none" stroke="#000000" d="M360.3426,-238.8182C360.3426,-249.1705 360.3426,-261.8848 360.3426,-273.3271"/>
<polygon fill="#000000" stroke="#000000" points="356.8427,-273.3735 360.3426,-283.3735 363.8427,-273.3735 356.8427,-273.3735"/>
</g>
<!-- GO:0008150 -->
<g id="node3" class="node">
<title>GO:0008150</title>
<polygon fill="#ffffff" stroke="#000000" points="580.8132,-402.2019 459.872,-402.2019 459.872,-360.9981 580.8132,-360.9981 580.8132,-402.2019"/>
<text text-anchor="middle" x="520.3426" y="-385.8" font-family="Times,serif" font-size="14.00" fill="#000000">GO:0008150</text>
<text text-anchor="middle" x="520.3426" y="-369" font-family="Times,serif" font-size="14.00" fill="#000000">biological_process</text>
</g>
<!-- GO:0008152&#45;&gt;GO:0008150 -->
<g id="edge2" class="edge">
<title>GO:0008152&#45;&gt;GO:0008150</title>
<path fill="none" stroke="#000000" d="M403.2197,-324.7954C423.2975,-334.5331 447.3838,-346.215 468.4789,-356.4461"/>
<polygon fill="#000000" stroke="#000000" points="467.0999,-359.6672 477.6248,-360.8819 470.1546,-353.3688 467.0999,-359.6672"/>
</g>
<!-- GO:0044260 -->
<g id="node4" class="node">
<title>GO:0044260</title>
<polygon fill="#ffffff" stroke="#000000" points="362.115,-58.6014 214.5702,-58.6014 214.5702,.2014 362.115,.2014 362.115,-58.6014"/>
<text text-anchor="middle" x="288.3426" y="-41.8" font-family="Times,serif" font-size="14.00" fill="#000000">GO:0044260</text>
<text text-anchor="middle" x="288.3426" y="-25" font-family="Times,serif" font-size="14.00" fill="#000000">cellular macromolecule</text>
<text text-anchor="middle" x="288.3426" y="-8.2" font-family="Times,serif" font-size="14.00" fill="#000000">metabolic process</text>
</g>
<!-- GO:0044237 -->
<g id="node5" class="node">
<title>GO:0044237</title>
<polygon fill="#ffffff" stroke="#000000" points="577.5254,-247.4014 461.1598,-247.4014 461.1598,-188.5986 577.5254,-188.5986 577.5254,-247.4014"/>
<text text-anchor="middle" x="519.3426" y="-230.6" font-family="Times,serif" font-size="14.00" fill="#000000">GO:0044237</text>
<text text-anchor="middle" x="519.3426" y="-213.8" font-family="Times,serif" font-size="14.00" fill="#000000">cellular metabolic</text>
<text text-anchor="middle" x="519.3426" y="-197" font-family="Times,serif" font-size="14.00" fill="#000000">process</text>
</g>
<!-- GO:0044260&#45;&gt;GO:0044237 -->
<g id="edge3" class="edge">
<title>GO:0044260&#45;&gt;GO:0044237</title>
<path fill="none" stroke="#000000" d="M324.1829,-58.4928C364.9837,-91.84 431.6424,-146.3212 475.5048,-182.1707"/>
<polygon fill="#000000" stroke="#000000" points="473.4604,-185.02 483.4182,-188.6384 477.8903,-179.6 473.4604,-185.02"/>
</g>
<!-- GO:0043170 -->
<g id="node6" class="node">
<title>GO:0043170</title>
<polygon fill="#ffffff" stroke="#000000" points="314.8448,-153.0014 153.8404,-153.0014 153.8404,-94.1986 314.8448,-94.1986 314.8448,-153.0014"/>
<text text-anchor="middle" x="234.3426" y="-136.2" font-family="Times,serif" font-size="14.00" fill="#000000">GO:0043170</text>
<text text-anchor="middle" x="234.3426" y="-119.4" font-family="Times,serif" font-size="14.00" fill="#000000">macromolecule metabolic</text>
<text text-anchor="middle" x="234.3426" y="-102.6" font-family="Times,serif" font-size="14.00" fill="#000000">process</text>
</g>
<!-- GO:0044260&#45;&gt;GO:0043170 -->
<g id="edge4" class="edge">
<title>GO:0044260&#45;&gt;GO:0043170</title>
<path fill="none" stroke="#000000" d="M271.5527,-58.5513C266.6764,-67.0758 261.279,-76.5111 256.1426,-85.4904"/>
<polygon fill="#000000" stroke="#000000" points="253.0495,-83.8488 251.1221,-94.2669 259.1256,-87.3246 253.0495,-83.8488"/>
</g>
<!-- GO:0044237&#45;&gt;GO:0008152 -->
<g id="edge6" class="edge">
<title>GO:0044237&#45;&gt;GO:0008152</title>
<path fill="none" stroke="#000000" d="M465.0685,-247.3558C446.5291,-257.3834 425.9478,-268.5154 407.9718,-278.2383"/>
<polygon fill="#000000" stroke="#000000" points="405.9643,-275.3449 398.8336,-283.1809 409.2946,-281.5019 405.9643,-275.3449"/>
</g>
<!-- GO:0009987 -->
<g id="node7" class="node">
<title>GO:0009987</title>
<polygon fill="#ff00ff" stroke="#000000" points="572.2988,-324.6019 468.3864,-324.6019 468.3864,-283.3981 572.2988,-283.3981 572.2988,-324.6019"/>
<text text-anchor="middle" x="520.3426" y="-308.2" font-family="Times,serif" font-size="14.00" fill="#000000">GO:0009987</text>
<text text-anchor="middle" x="520.3426" y="-291.4" font-family="Times,serif" font-size="14.00" fill="#000000">cellular process</text>
</g>
<!-- GO:0044237&#45;&gt;GO:0009987 -->
<g id="edge5" class="edge">
<title>GO:0044237&#45;&gt;GO:0009987</title>
<path fill="none" stroke="#000000" d="M519.6867,-247.5963C519.7829,-255.8638 519.8876,-264.8657 519.9845,-273.2008"/>
<polygon fill="#000000" stroke="#000000" points="516.4857,-273.338 520.1019,-283.2966 523.4853,-273.2565 516.4857,-273.338"/>
</g>
<!-- GO:0071704 -->
<g id="node8" class="node">
<title>GO:0071704</title>
<polygon fill="#ff00ff" stroke="#000000" points="116.5282,-247.4014 .157,-247.4014 .157,-188.5986 116.5282,-188.5986 116.5282,-247.4014"/>
<text text-anchor="middle" x="58.3426" y="-230.6" font-family="Times,serif" font-size="14.00" fill="#000000">GO:0071704</text>
<text text-anchor="middle" x="58.3426" y="-213.8" font-family="Times,serif" font-size="14.00" fill="#000000">organic substance</text>
<text text-anchor="middle" x="58.3426" y="-197" font-family="Times,serif" font-size="14.00" fill="#000000">metabolic process</text>
</g>
<!-- GO:0043170&#45;&gt;GO:0071704 -->
<g id="edge7" class="edge">
<title>GO:0043170&#45;&gt;GO:0071704</title>
<path fill="none" stroke="#000000" d="M179.6199,-152.9513C161.3262,-162.7633 140.7826,-173.7822 121.8758,-183.9231"/>
<polygon fill="#000000" stroke="#000000" points="120.1896,-180.8558 113.0315,-188.6669 123.4983,-187.0245 120.1896,-180.8558"/>
</g>
<!-- GO:0009987&#45;&gt;GO:0008150 -->
<g id="edge8" class="edge">
<title>GO:0009987&#45;&gt;GO:0008150</title>
<path fill="none" stroke="#000000" d="M520.3426,-324.7954C520.3426,-332.7109 520.3426,-341.9109 520.3426,-350.5722"/>
<polygon fill="#000000" stroke="#000000" points="516.8427,-350.7472 520.3426,-360.7472 523.8427,-350.7473 516.8427,-350.7472"/>
</g>
<!-- GO:0071704&#45;&gt;GO:0008152 -->
<g id="edge9" class="edge">
<title>GO:0071704&#45;&gt;GO:0008152</title>
<path fill="none" stroke="#000000" d="M116.5738,-244.0889C119.5215,-245.1857 122.4558,-246.2303 125.3426,-247.2 180.5048,-265.7301 244.8419,-280.8485 292.2381,-290.8159"/>
<polygon fill="#000000" stroke="#000000" points="291.5822,-294.2543 302.0854,-292.8641 293.0077,-287.401 291.5822,-294.2543"/>
</g>
<!-- GO:0006807 -->
<g id="node9" class="node">
<title>GO:0006807</title>
<polygon fill="#ffffff" stroke="#000000" points="260.1045,-247.4014 134.5807,-247.4014 134.5807,-188.5986 260.1045,-188.5986 260.1045,-247.4014"/>
<text text-anchor="middle" x="197.3426" y="-230.6" font-family="Times,serif" font-size="14.00" fill="#000000">GO:0006807</text>
<text text-anchor="middle" x="197.3426" y="-213.8" font-family="Times,serif" font-size="14.00" fill="#000000">nitrogen compound</text>
<text text-anchor="middle" x="197.3426" y="-197" font-family="Times,serif" font-size="14.00" fill="#000000">metabolic process</text>
</g>
<!-- GO:0006807&#45;&gt;GO:0008152 -->
<g id="edge10" class="edge">
<title>GO:0006807&#45;&gt;GO:0008152</title>
<path fill="none" stroke="#000000" d="M252.9821,-247.3558C272.2415,-257.5172 293.6504,-268.8127 312.2514,-278.6267"/>
<polygon fill="#000000" stroke="#000000" points="310.6578,-281.7432 321.1356,-283.3141 313.9244,-275.5521 310.6578,-281.7432"/>
</g>
<!-- GO:0044763 -->
<g id="node10" class="node">
<title>GO:0044763</title>
<polygon fill="#ffffff" stroke="#000000" points="747.0211,-247.4014 595.6641,-247.4014 595.6641,-188.5986 747.0211,-188.5986 747.0211,-247.4014"/>
<text text-anchor="middle" x="671.3426" y="-230.6" font-family="Times,serif" font-size="14.00" fill="#000000">GO:0044763</text>
<text text-anchor="middle" x="671.3426" y="-213.8" font-family="Times,serif" font-size="14.00" fill="#000000">single&#45;organism cellular</text>
<text text-anchor="middle" x="671.3426" y="-197" font-family="Times,serif" font-size="14.00" fill="#000000">process</text>
</g>
<!-- GO:0044763&#45;&gt;GO:0009987 -->
<g id="edge11" class="edge">
<title>GO:0044763&#45;&gt;GO:0009987</title>
<path fill="none" stroke="#000000" d="M619.7993,-247.3558C602.3542,-257.2914 583.0054,-268.3112 566.0459,-277.9703"/>
<polygon fill="#000000" stroke="#000000" points="563.8543,-275.1906 556.897,-283.1809 567.3187,-281.2732 563.8543,-275.1906"/>
</g>
<!-- GO:0044699 -->
<g id="node11" class="node">
<title>GO:0044699</title>
<polygon fill="#ffffff" stroke="#000000" points="745.0239,-324.6019 593.6613,-324.6019 593.6613,-283.3981 745.0239,-283.3981 745.0239,-324.6019"/>
<text text-anchor="middle" x="669.3426" y="-308.2" font-family="Times,serif" font-size="14.00" fill="#000000">GO:0044699</text>
<text text-anchor="middle" x="669.3426" y="-291.4" font-family="Times,serif" font-size="14.00" fill="#000000">single&#45;organism process</text>
</g>
<!-- GO:0044763&#45;&gt;GO:0044699 -->
<g id="edge12" class="edge">
<title>GO:0044763&#45;&gt;GO:0044699</title>
<path fill="none" stroke="#000000" d="M670.6543,-247.5963C670.462,-255.8638 670.2527,-264.8657 670.0589,-273.2008"/>
<polygon fill="#000000" stroke="#000000" points="666.5576,-273.2178 669.8241,-283.2966 673.5557,-273.3807 666.5576,-273.2178"/>
</g>
<!-- GO:0044699&#45;&gt;GO:0008150 -->
<g id="edge13" class="edge">
<title>GO:0044699&#45;&gt;GO:0008150</title>
<path fill="none" stroke="#000000" d="M629.4133,-324.7954C610.8835,-334.4458 588.6875,-346.0056 569.1699,-356.1705"/>
<polygon fill="#000000" stroke="#000000" points="567.376,-353.1584 560.1235,-360.8819 570.6095,-359.3669 567.376,-353.1584"/>
</g>
</g>
</svg>
