<?xml version="1.0" encoding="UTF-8" standalone="no"?>
<!DOCTYPE svg PUBLIC "-//W3C//DTD SVG 1.1//EN"
 "http://www.w3.org/Graphics/SVG/1.1/DTD/svg11.dtd">
<!-- Generated by graphviz version 2.40.1 (20161225.0304)
 -->
<!-- Title: G Pages: 1 -->
<svg width="935pt" height="650pt"
 viewBox="0.00 0.00 934.56 649.60" xmlns="http://www.w3.org/2000/svg" xmlns:xlink="http://www.w3.org/1999/xlink">
<g id="graph0" class="graph" transform="scale(1 1) rotate(0) translate(4 645.6)">
<title>G</title>
<polygon fill="#ffffff" stroke="transparent" points="-4,4 -4,-645.6 930.5565,-645.6 930.5565,4 -4,4"/>
<!-- GO:0016787 -->
<g id="node1" class="node">
<title>GO:0016787</title>
<polygon fill="#ffffff" stroke="#000000" points="870.3535,-469.4019 754.5203,-469.4019 754.5203,-428.1981 870.3535,-428.1981 870.3535,-469.4019"/>
<text text-anchor="middle" x="812.4369" y="-453" font-family="Times,serif" font-size="14.00" fill="#000000">GO:0016787</text>
<text text-anchor="middle" x="812.4369" y="-436.2" font-family="Times,serif" font-size="14.00" fill="#000000">hydrolase activity</text>
</g>
<!-- GO:0003824 -->
<g id="node2" class="node">
<title>GO:0003824</title>
<polygon fill="#ffffff" stroke="#000000" points="648.8493,-555.4019 540.0245,-555.4019 540.0245,-514.1981 648.8493,-514.1981 648.8493,-555.4019"/>
<text text-anchor="middle" x="594.4369" y="-539" font-family="Times,serif" font-size="14.00" fill="#000000">GO:0003824</text>
<text text-anchor="middle" x="594.4369" y="-522.2" font-family="Times,serif" font-size="14.00" fill="#000000">catalytic activity</text>
</g>
<!-- GO:0016787&#45;&gt;GO:0003824 -->
<g id="edge1" class="edge">
<title>GO:0016787&#45;&gt;GO:0003824</title>
<path fill="none" stroke="#000000" d="M759.9431,-469.5086C728.7531,-481.8129 689.0311,-497.483 656.3198,-510.3875"/>
<polygon fill="#000000" stroke="#000000" points="654.8706,-507.1966 646.8527,-514.1222 657.4394,-513.7082 654.8706,-507.1966"/>
</g>
<!-- GO:0003674 -->
<g id="node3" class="node">
<title>GO:0003674</title>
<polygon fill="#ffffff" stroke="#000000" points="444.07,-641.4019 318.8038,-641.4019 318.8038,-600.1981 444.07,-600.1981 444.07,-641.4019"/>
<text text-anchor="middle" x="381.4369" y="-625" font-family="Times,serif" font-size="14.00" fill="#000000">GO:0003674</text>
<text text-anchor="middle" x="381.4369" y="-608.2" font-family="Times,serif" font-size="14.00" fill="#000000">molecular_function</text>
</g>
<!-- GO:0003824&#45;&gt;GO:0003674 -->
<g id="edge2" class="edge">
<title>GO:0003824&#45;&gt;GO:0003674</title>
<path fill="none" stroke="#000000" d="M543.147,-555.5086C512.8032,-567.7601 474.1945,-583.3486 442.3124,-596.2212"/>
<polygon fill="#000000" stroke="#000000" points="440.6128,-593.1328 432.6505,-600.1222 443.2336,-599.6237 440.6128,-593.1328"/>
</g>
<!-- GO:0008238 -->
<g id="node4" class="node">
<title>GO:0008238</title>
<polygon fill="#ffffff" stroke="#000000" points="920.5134,-144.2019 786.3604,-144.2019 786.3604,-102.9981 920.5134,-102.9981 920.5134,-144.2019"/>
<text text-anchor="middle" x="853.4369" y="-127.8" font-family="Times,serif" font-size="14.00" fill="#000000">GO:0008238</text>
<text text-anchor="middle" x="853.4369" y="-111" font-family="Times,serif" font-size="14.00" fill="#000000">exopeptidase activity</text>
</g>
<!-- GO:0070011 -->
<g id="node5" class="node">
<title>GO:0070011</title>
<polygon fill="#ffffff" stroke="#000000" points="926.6763,-280.9003 780.1975,-280.9003 780.1975,-205.4997 926.6763,-205.4997 926.6763,-280.9003"/>
<text text-anchor="middle" x="853.4369" y="-264.2" font-family="Times,serif" font-size="14.00" fill="#000000">GO:0070011</text>
<text text-anchor="middle" x="853.4369" y="-247.4" font-family="Times,serif" font-size="14.00" fill="#000000">peptidase activity,</text>
<text text-anchor="middle" x="853.4369" y="-230.6" font-family="Times,serif" font-size="14.00" fill="#000000">acting on L&#45;amino acid</text>
<text text-anchor="middle" x="853.4369" y="-213.8" font-family="Times,serif" font-size="14.00" fill="#000000">peptides</text>
</g>
<!-- GO:0008238&#45;&gt;GO:0070011 -->
<g id="edge3" class="edge">
<title>GO:0008238&#45;&gt;GO:0070011</title>
<path fill="none" stroke="#000000" d="M853.4369,-144.4327C853.4369,-158.4193 853.4369,-177.4431 853.4369,-195.0618"/>
<polygon fill="#000000" stroke="#000000" points="849.937,-195.2243 853.4369,-205.2243 856.937,-195.2243 849.937,-195.2243"/>
</g>
<!-- GO:0008233 -->
<g id="node6" class="node">
<title>GO:0008233</title>
<polygon fill="#ffffff" stroke="#000000" points="910.7987,-375.0019 796.0751,-375.0019 796.0751,-333.7981 910.7987,-333.7981 910.7987,-375.0019"/>
<text text-anchor="middle" x="853.4369" y="-358.6" font-family="Times,serif" font-size="14.00" fill="#000000">GO:0008233</text>
<text text-anchor="middle" x="853.4369" y="-341.8" font-family="Times,serif" font-size="14.00" fill="#000000">peptidase activity</text>
</g>
<!-- GO:0070011&#45;&gt;GO:0008233 -->
<g id="edge4" class="edge">
<title>GO:0070011&#45;&gt;GO:0008233</title>
<path fill="none" stroke="#000000" d="M853.4369,-280.8472C853.4369,-294.768 853.4369,-310.3708 853.4369,-323.6118"/>
<polygon fill="#000000" stroke="#000000" points="849.937,-323.6471 853.4369,-333.6471 856.937,-323.6472 849.937,-323.6471"/>
</g>
<!-- GO:0008233&#45;&gt;GO:0016787 -->
<g id="edge5" class="edge">
<title>GO:0008233&#45;&gt;GO:0016787</title>
<path fill="none" stroke="#000000" d="M844.3377,-375.3504C838.8172,-388.0609 831.6795,-404.4952 825.5558,-418.5945"/>
<polygon fill="#000000" stroke="#000000" points="822.2842,-417.3416 821.5107,-427.9081 828.7047,-420.1302 822.2842,-417.3416"/>
</g>
<!-- GO:0008757 -->
<g id="node7" class="node">
<title>GO:0008757</title>
<polygon fill="#ffffff" stroke="#000000" points="627.2968,-169.6 481.577,-169.6 481.577,-77.6 627.2968,-77.6 627.2968,-169.6"/>
<text text-anchor="middle" x="554.4369" y="-153" font-family="Times,serif" font-size="14.00" fill="#000000">GO:0008757</text>
<text text-anchor="middle" x="554.4369" y="-136.2" font-family="Times,serif" font-size="14.00" fill="#000000">S&#45;adenosylmethionine&#45;</text>
<text text-anchor="middle" x="554.4369" y="-119.4" font-family="Times,serif" font-size="14.00" fill="#000000">dependent</text>
<text text-anchor="middle" x="554.4369" y="-102.6" font-family="Times,serif" font-size="14.00" fill="#000000">methyltransferase</text>
<text text-anchor="middle" x="554.4369" y="-85.8" font-family="Times,serif" font-size="14.00" fill="#000000">activity</text>
</g>
<!-- GO:0008168 -->
<g id="node8" class="node">
<title>GO:0008168</title>
<polygon fill="#ffffff" stroke="#000000" points="611.9444,-272.6014 496.9294,-272.6014 496.9294,-213.7986 611.9444,-213.7986 611.9444,-272.6014"/>
<text text-anchor="middle" x="554.4369" y="-255.8" font-family="Times,serif" font-size="14.00" fill="#000000">GO:0008168</text>
<text text-anchor="middle" x="554.4369" y="-239" font-family="Times,serif" font-size="14.00" fill="#000000">methyltransferase</text>
<text text-anchor="middle" x="554.4369" y="-222.2" font-family="Times,serif" font-size="14.00" fill="#000000">activity</text>
</g>
<!-- GO:0008757&#45;&gt;GO:0008168 -->
<g id="edge6" class="edge">
<title>GO:0008757&#45;&gt;GO:0008168</title>
<path fill="none" stroke="#000000" d="M554.4369,-169.8405C554.4369,-180.9987 554.4369,-192.8218 554.4369,-203.6424"/>
<polygon fill="#000000" stroke="#000000" points="550.937,-203.6551 554.4369,-213.6551 557.937,-203.6552 550.937,-203.6551"/>
</g>
<!-- GO:0016741 -->
<g id="node9" class="node">
<title>GO:0016741</title>
<polygon fill="#ffffff" stroke="#000000" points="628.1995,-392.1003 480.6743,-392.1003 480.6743,-316.6997 628.1995,-316.6997 628.1995,-392.1003"/>
<text text-anchor="middle" x="554.4369" y="-375.4" font-family="Times,serif" font-size="14.00" fill="#000000">GO:0016741</text>
<text text-anchor="middle" x="554.4369" y="-358.6" font-family="Times,serif" font-size="14.00" fill="#000000">transferase activity,</text>
<text text-anchor="middle" x="554.4369" y="-341.8" font-family="Times,serif" font-size="14.00" fill="#000000">transferring one&#45;carbon</text>
<text text-anchor="middle" x="554.4369" y="-325" font-family="Times,serif" font-size="14.00" fill="#000000">groups</text>
</g>
<!-- GO:0008168&#45;&gt;GO:0016741 -->
<g id="edge7" class="edge">
<title>GO:0008168&#45;&gt;GO:0016741</title>
<path fill="none" stroke="#000000" d="M554.4369,-272.4165C554.4369,-282.8682 554.4369,-294.9391 554.4369,-306.5501"/>
<polygon fill="#000000" stroke="#000000" points="550.937,-306.583 554.4369,-316.583 557.937,-306.5831 550.937,-306.583"/>
</g>
<!-- GO:0016740 -->
<g id="node10" class="node">
<title>GO:0016740</title>
<polygon fill="#ffffff" stroke="#000000" points="655.5486,-469.4019 533.3252,-469.4019 533.3252,-428.1981 655.5486,-428.1981 655.5486,-469.4019"/>
<text text-anchor="middle" x="594.4369" y="-453" font-family="Times,serif" font-size="14.00" fill="#000000">GO:0016740</text>
<text text-anchor="middle" x="594.4369" y="-436.2" font-family="Times,serif" font-size="14.00" fill="#000000">transferase activity</text>
</g>
<!-- GO:0016741&#45;&gt;GO:0016740 -->
<g id="edge8" class="edge">
<title>GO:0016741&#45;&gt;GO:0016740</title>
<path fill="none" stroke="#000000" d="M570.476,-392.2522C574.194,-401.0267 578.1023,-410.2503 581.6587,-418.6433"/>
<polygon fill="#000000" stroke="#000000" points="578.5152,-420.1959 585.6394,-428.0379 584.9605,-417.4648 578.5152,-420.1959"/>
</g>
<!-- GO:0016740&#45;&gt;GO:0003824 -->
<g id="edge9" class="edge">
<title>GO:0016740&#45;&gt;GO:0003824</title>
<path fill="none" stroke="#000000" d="M594.4369,-469.6182C594.4369,-479.9705 594.4369,-492.6848 594.4369,-504.1271"/>
<polygon fill="#000000" stroke="#000000" points="590.937,-504.1735 594.4369,-514.1735 597.937,-504.1735 590.937,-504.1735"/>
</g>
<!-- GO:0008270 -->
<g id="node11" class="node">
<title>GO:0008270</title>
<polygon fill="#ffffff" stroke="#000000" points="115.9285,-41.4019 8.9453,-41.4019 8.9453,-.1981 115.9285,-.1981 115.9285,-41.4019"/>
<text text-anchor="middle" x="62.4369" y="-25" font-family="Times,serif" font-size="14.00" fill="#000000">GO:0008270</text>
<text text-anchor="middle" x="62.4369" y="-8.2" font-family="Times,serif" font-size="14.00" fill="#000000">zinc ion binding</text>
</g>
<!-- GO:0046914 -->
<g id="node12" class="node">
<title>GO:0046914</title>
<polygon fill="#ffffff" stroke="#000000" points="124.8108,-153.0014 .063,-153.0014 .063,-94.1986 124.8108,-94.1986 124.8108,-153.0014"/>
<text text-anchor="middle" x="62.4369" y="-136.2" font-family="Times,serif" font-size="14.00" fill="#000000">GO:0046914</text>
<text text-anchor="middle" x="62.4369" y="-119.4" font-family="Times,serif" font-size="14.00" fill="#000000">transition metal ion</text>
<text text-anchor="middle" x="62.4369" y="-102.6" font-family="Times,serif" font-size="14.00" fill="#000000">binding</text>
</g>
<!-- GO:0008270&#45;&gt;GO:0046914 -->
<g id="edge10" class="edge">
<title>GO:0008270&#45;&gt;GO:0046914</title>
<path fill="none" stroke="#000000" d="M62.4369,-41.6031C62.4369,-53.7833 62.4369,-69.5676 62.4369,-84.0305"/>
<polygon fill="#000000" stroke="#000000" points="58.937,-84.2577 62.4369,-94.2577 65.937,-84.2578 58.937,-84.2577"/>
</g>
<!-- GO:0046872 -->
<g id="node13" class="node">
<title>GO:0046872</title>
<polygon fill="#ffffff" stroke="#000000" points="119.7099,-263.8019 5.1639,-263.8019 5.1639,-222.5981 119.7099,-222.5981 119.7099,-263.8019"/>
<text text-anchor="middle" x="62.4369" y="-247.4" font-family="Times,serif" font-size="14.00" fill="#000000">GO:0046872</text>
<text text-anchor="middle" x="62.4369" y="-230.6" font-family="Times,serif" font-size="14.00" fill="#000000">metal ion binding</text>
</g>
<!-- GO:0046914&#45;&gt;GO:0046872 -->
<g id="edge11" class="edge">
<title>GO:0046914&#45;&gt;GO:0046872</title>
<path fill="none" stroke="#000000" d="M62.4369,-152.8575C62.4369,-170.894 62.4369,-193.9977 62.4369,-212.3259"/>
<polygon fill="#000000" stroke="#000000" points="58.937,-212.491 62.4369,-222.491 65.937,-212.4911 58.937,-212.491"/>
</g>
<!-- GO:0043169 -->
<g id="node14" class="node">
<title>GO:0043169</title>
<polygon fill="#ffffff" stroke="#000000" points="110.9298,-375.0019 13.944,-375.0019 13.944,-333.7981 110.9298,-333.7981 110.9298,-375.0019"/>
<text text-anchor="middle" x="62.4369" y="-358.6" font-family="Times,serif" font-size="14.00" fill="#000000">GO:0043169</text>
<text text-anchor="middle" x="62.4369" y="-341.8" font-family="Times,serif" font-size="14.00" fill="#000000">cation binding</text>
</g>
<!-- GO:0046872&#45;&gt;GO:0043169 -->
<g id="edge12" class="edge">
<title>GO:0046872&#45;&gt;GO:0043169</title>
<path fill="none" stroke="#000000" d="M62.4369,-263.8553C62.4369,-280.5242 62.4369,-304.2401 62.4369,-323.2189"/>
<polygon fill="#000000" stroke="#000000" points="58.937,-323.478 62.4369,-333.478 65.937,-323.478 58.937,-323.478"/>
</g>
<!-- GO:0043167 -->
<g id="node15" class="node">
<title>GO:0043167</title>
<polygon fill="#ffffff" stroke="#000000" points="122.0408,-469.4019 32.833,-469.4019 32.833,-428.1981 122.0408,-428.1981 122.0408,-469.4019"/>
<text text-anchor="middle" x="77.4369" y="-453" font-family="Times,serif" font-size="14.00" fill="#000000">GO:0043167</text>
<text text-anchor="middle" x="77.4369" y="-436.2" font-family="Times,serif" font-size="14.00" fill="#000000">ion binding</text>
</g>
<!-- GO:0043169&#45;&gt;GO:0043167 -->
<g id="edge13" class="edge">
<title>GO:0043169&#45;&gt;GO:0043167</title>
<path fill="none" stroke="#000000" d="M65.7659,-375.3504C67.7467,-387.8165 70.2967,-403.8645 72.5076,-417.7786"/>
<polygon fill="#000000" stroke="#000000" points="69.0912,-418.5813 74.1172,-427.9081 76.0045,-417.4828 69.0912,-418.5813"/>
</g>
<!-- GO:0005488 -->
<g id="node16" class="node">
<title>GO:0005488</title>
<polygon fill="#ffffff" stroke="#000000" points="250.0408,-555.4019 160.833,-555.4019 160.833,-514.1981 250.0408,-514.1981 250.0408,-555.4019"/>
<text text-anchor="middle" x="205.4369" y="-539" font-family="Times,serif" font-size="14.00" fill="#000000">GO:0005488</text>
<text text-anchor="middle" x="205.4369" y="-522.2" font-family="Times,serif" font-size="14.00" fill="#000000">binding</text>
</g>
<!-- GO:0043167&#45;&gt;GO:0005488 -->
<g id="edge14" class="edge">
<title>GO:0043167&#45;&gt;GO:0005488</title>
<path fill="none" stroke="#000000" d="M108.4221,-469.6182C125.7955,-481.2909 147.6385,-495.9667 166.1974,-508.4359"/>
<polygon fill="#000000" stroke="#000000" points="164.4846,-511.5018 174.737,-514.1735 168.3884,-505.6914 164.4846,-511.5018"/>
</g>
<!-- GO:0005488&#45;&gt;GO:0003674 -->
<g id="edge15" class="edge">
<title>GO:0005488&#45;&gt;GO:0003674</title>
<path fill="none" stroke="#000000" d="M248.0416,-555.6182C272.7947,-567.7135 304.1466,-583.0332 330.2355,-595.7812"/>
<polygon fill="#000000" stroke="#000000" points="328.7032,-598.9278 339.2246,-600.1735 331.7764,-592.6385 328.7032,-598.9278"/>
</g>
<!-- GO:0016757 -->
<g id="node17" class="node">
<title>GO:0016757</title>
<polygon fill="#ffffff" stroke="#000000" points="778.6749,-392.1003 646.1989,-392.1003 646.1989,-316.6997 778.6749,-316.6997 778.6749,-392.1003"/>
<text text-anchor="middle" x="712.4369" y="-375.4" font-family="Times,serif" font-size="14.00" fill="#000000">GO:0016757</text>
<text text-anchor="middle" x="712.4369" y="-358.6" font-family="Times,serif" font-size="14.00" fill="#000000">transferase activity,</text>
<text text-anchor="middle" x="712.4369" y="-341.8" font-family="Times,serif" font-size="14.00" fill="#000000">transferring glycosyl</text>
<text text-anchor="middle" x="712.4369" y="-325" font-family="Times,serif" font-size="14.00" fill="#000000">groups</text>
</g>
<!-- GO:0016757&#45;&gt;GO:0016740 -->
<g id="edge16" class="edge">
<title>GO:0016757&#45;&gt;GO:0016740</title>
<path fill="none" stroke="#000000" d="M665.1217,-392.2522C652.8421,-402.0759 639.859,-412.4623 628.4168,-421.6161"/>
<polygon fill="#000000" stroke="#000000" points="626.0118,-419.0579 620.3895,-428.0379 630.3847,-424.524 626.0118,-419.0579"/>
</g>
<!-- GO:0060589 -->
<g id="node18" class="node">
<title>GO:0060589</title>
<polygon fill="#ffffff" stroke="#000000" points="462.333,-383.8014 300.5408,-383.8014 300.5408,-324.9986 462.333,-324.9986 462.333,-383.8014"/>
<text text-anchor="middle" x="381.4369" y="-367" font-family="Times,serif" font-size="14.00" fill="#000000">GO:0060589</text>
<text text-anchor="middle" x="381.4369" y="-350.2" font-family="Times,serif" font-size="14.00" fill="#000000">nucleoside&#45;triphosphatase</text>
<text text-anchor="middle" x="381.4369" y="-333.4" font-family="Times,serif" font-size="14.00" fill="#000000">regulator activity</text>
</g>
<!-- GO:0030234 -->
<g id="node19" class="node">
<title>GO:0030234</title>
<polygon fill="#ffffff" stroke="#000000" points="460.9945,-469.4019 301.8793,-469.4019 301.8793,-428.1981 460.9945,-428.1981 460.9945,-469.4019"/>
<text text-anchor="middle" x="381.4369" y="-453" font-family="Times,serif" font-size="14.00" fill="#000000">GO:0030234</text>
<text text-anchor="middle" x="381.4369" y="-436.2" font-family="Times,serif" font-size="14.00" fill="#000000">enzyme regulator activity</text>
</g>
<!-- GO:0060589&#45;&gt;GO:0030234 -->
<g id="edge17" class="edge">
<title>GO:0060589&#45;&gt;GO:0030234</title>
<path fill="none" stroke="#000000" d="M381.4369,-383.7513C381.4369,-394.6614 381.4369,-407.0637 381.4369,-418.092"/>
<polygon fill="#000000" stroke="#000000" points="377.937,-418.1509 381.4369,-428.151 384.937,-418.151 377.937,-418.1509"/>
</g>
<!-- GO:0098772 -->
<g id="node20" class="node">
<title>GO:0098772</title>
<polygon fill="#ffffff" stroke="#000000" points="442.5696,-564.2014 320.3042,-564.2014 320.3042,-505.3986 442.5696,-505.3986 442.5696,-564.2014"/>
<text text-anchor="middle" x="381.4369" y="-547.4" font-family="Times,serif" font-size="14.00" fill="#000000">GO:0098772</text>
<text text-anchor="middle" x="381.4369" y="-530.6" font-family="Times,serif" font-size="14.00" fill="#000000">molecular function</text>
<text text-anchor="middle" x="381.4369" y="-513.8" font-family="Times,serif" font-size="14.00" fill="#000000">regulator</text>
</g>
<!-- GO:0030234&#45;&gt;GO:0098772 -->
<g id="edge18" class="edge">
<title>GO:0030234&#45;&gt;GO:0098772</title>
<path fill="none" stroke="#000000" d="M381.4369,-469.6182C381.4369,-477.3358 381.4369,-486.3662 381.4369,-495.2036"/>
<polygon fill="#000000" stroke="#000000" points="377.937,-495.3991 381.4369,-505.3991 384.937,-495.3992 377.937,-495.3991"/>
</g>
<!-- GO:0098772&#45;&gt;GO:0003674 -->
<g id="edge19" class="edge">
<title>GO:0098772&#45;&gt;GO:0003674</title>
<path fill="none" stroke="#000000" d="M381.4369,-564.3963C381.4369,-572.6638 381.4369,-581.6657 381.4369,-590.0008"/>
<polygon fill="#000000" stroke="#000000" points="377.937,-590.0965 381.4369,-600.0966 384.937,-590.0966 377.937,-590.0965"/>
</g>
<!-- GO:0042802 -->
<g id="node21" class="node">
<title>GO:0042802</title>
<polygon fill="#ffffff" stroke="#000000" points="282.0811,-375.0019 128.7927,-375.0019 128.7927,-333.7981 282.0811,-333.7981 282.0811,-375.0019"/>
<text text-anchor="middle" x="205.4369" y="-358.6" font-family="Times,serif" font-size="14.00" fill="#000000">GO:0042802</text>
<text text-anchor="middle" x="205.4369" y="-341.8" font-family="Times,serif" font-size="14.00" fill="#000000">identical protein binding</text>
</g>
<!-- GO:0005515 -->
<g id="node22" class="node">
<title>GO:0005515</title>
<polygon fill="#ffffff" stroke="#000000" points="256.3745,-469.4019 154.4993,-469.4019 154.4993,-428.1981 256.3745,-428.1981 256.3745,-469.4019"/>
<text text-anchor="middle" x="205.4369" y="-453" font-family="Times,serif" font-size="14.00" fill="#000000">GO:0005515</text>
<text text-anchor="middle" x="205.4369" y="-436.2" font-family="Times,serif" font-size="14.00" fill="#000000">protein binding</text>
</g>
<!-- GO:0042802&#45;&gt;GO:0005515 -->
<g id="edge20" class="edge">
<title>GO:0042802&#45;&gt;GO:0005515</title>
<path fill="none" stroke="#000000" d="M205.4369,-375.3504C205.4369,-387.8165 205.4369,-403.8645 205.4369,-417.7786"/>
<polygon fill="#000000" stroke="#000000" points="201.937,-417.9081 205.4369,-427.9081 208.937,-417.9082 201.937,-417.9081"/>
</g>
<!-- GO:0005515&#45;&gt;GO:0005488 -->
<g id="edge21" class="edge">
<title>GO:0005515&#45;&gt;GO:0005488</title>
<path fill="none" stroke="#000000" d="M205.4369,-469.6182C205.4369,-479.9705 205.4369,-492.6848 205.4369,-504.1271"/>
<polygon fill="#000000" stroke="#000000" points="201.937,-504.1735 205.4369,-514.1735 208.937,-504.1735 201.937,-504.1735"/>
</g>
</g>
</svg>
