<?xml version="1.0" encoding="UTF-8" standalone="no"?>
<!DOCTYPE svg PUBLIC "-//W3C//DTD SVG 1.1//EN"
 "http://www.w3.org/Graphics/SVG/1.1/DTD/svg11.dtd">
<!-- Generated by graphviz version 2.40.1 (20161225.0304)
 -->
<!-- Title: G Pages: 1 -->
<svg width="1202pt" height="633pt"
 viewBox="0.00 0.00 1202.12 632.80" xmlns="http://www.w3.org/2000/svg" xmlns:xlink="http://www.w3.org/1999/xlink">
<g id="graph0" class="graph" transform="scale(1 1) rotate(0) translate(4 628.8)">
<title>G</title>
<polygon fill="#ffffff" stroke="transparent" points="-4,4 -4,-628.8 1198.1172,-628.8 1198.1172,4 -4,4"/>
<!-- GO:0034645 -->
<g id="node1" class="node">
<title>GO:0034645</title>
<polygon fill="#ffffff" stroke="#000000" points="743.9688,-153.0014 596.424,-153.0014 596.424,-94.1986 743.9688,-94.1986 743.9688,-153.0014"/>
<text text-anchor="middle" x="670.1964" y="-136.2" font-family="Times,serif" font-size="14.00" fill="#000000">GO:0034645</text>
<text text-anchor="middle" x="670.1964" y="-119.4" font-family="Times,serif" font-size="14.00" fill="#000000">cellular macromolecule</text>
<text text-anchor="middle" x="670.1964" y="-102.6" font-family="Times,serif" font-size="14.00" fill="#000000">biosynthetic process</text>
</g>
<!-- GO:0044249 -->
<g id="node2" class="node">
<title>GO:0044249</title>
<polygon fill="#ffffff" stroke="#000000" points="423.1088,-367.0014 293.284,-367.0014 293.284,-308.1986 423.1088,-308.1986 423.1088,-367.0014"/>
<text text-anchor="middle" x="358.1964" y="-350.2" font-family="Times,serif" font-size="14.00" fill="#000000">GO:0044249</text>
<text text-anchor="middle" x="358.1964" y="-333.4" font-family="Times,serif" font-size="14.00" fill="#000000">cellular biosynthetic</text>
<text text-anchor="middle" x="358.1964" y="-316.6" font-family="Times,serif" font-size="14.00" fill="#000000">process</text>
</g>
<!-- GO:0034645&#45;&gt;GO:0044249 -->
<g id="edge1" class="edge">
<title>GO:0034645&#45;&gt;GO:0044249</title>
<path fill="none" stroke="#000000" d="M596.4034,-133.5443C527.9476,-144.1878 432.6348,-163.0818 405.1964,-188.8 375.013,-217.0911 364.1152,-264.5754 360.2349,-298.2893"/>
<polygon fill="#000000" stroke="#000000" points="356.7489,-297.9764 359.2424,-308.2736 363.7145,-298.6689 356.7489,-297.9764"/>
</g>
<!-- GO:0009059 -->
<g id="node3" class="node">
<title>GO:0009059</title>
<polygon fill="#ffffff" stroke="#000000" points="892.1116,-255.8014 762.2812,-255.8014 762.2812,-196.9986 892.1116,-196.9986 892.1116,-255.8014"/>
<text text-anchor="middle" x="827.1964" y="-239" font-family="Times,serif" font-size="14.00" fill="#000000">GO:0009059</text>
<text text-anchor="middle" x="827.1964" y="-222.2" font-family="Times,serif" font-size="14.00" fill="#000000">macromolecule</text>
<text text-anchor="middle" x="827.1964" y="-205.4" font-family="Times,serif" font-size="14.00" fill="#000000">biosynthetic process</text>
</g>
<!-- GO:0034645&#45;&gt;GO:0009059 -->
<g id="edge2" class="edge">
<title>GO:0034645&#45;&gt;GO:0009059</title>
<path fill="none" stroke="#000000" d="M715.1863,-153.0584C733.4948,-165.0464 754.7972,-178.9947 773.8792,-191.4891"/>
<polygon fill="#000000" stroke="#000000" points="772.1881,-194.5654 782.4716,-197.1152 776.0227,-188.7091 772.1881,-194.5654"/>
</g>
<!-- GO:0044260 -->
<g id="node4" class="node">
<title>GO:0044260</title>
<polygon fill="#ffffff" stroke="#000000" points="743.9688,-255.8014 596.424,-255.8014 596.424,-196.9986 743.9688,-196.9986 743.9688,-255.8014"/>
<text text-anchor="middle" x="670.1964" y="-239" font-family="Times,serif" font-size="14.00" fill="#000000">GO:0044260</text>
<text text-anchor="middle" x="670.1964" y="-222.2" font-family="Times,serif" font-size="14.00" fill="#000000">cellular macromolecule</text>
<text text-anchor="middle" x="670.1964" y="-205.4" font-family="Times,serif" font-size="14.00" fill="#000000">metabolic process</text>
</g>
<!-- GO:0034645&#45;&gt;GO:0044260 -->
<g id="edge3" class="edge">
<title>GO:0034645&#45;&gt;GO:0044260</title>
<path fill="none" stroke="#000000" d="M670.1964,-153.0584C670.1964,-163.5969 670.1964,-175.6505 670.1964,-186.8994"/>
<polygon fill="#000000" stroke="#000000" points="666.6965,-186.9373 670.1964,-196.9373 673.6965,-186.9374 666.6965,-186.9373"/>
</g>
<!-- GO:0009058 -->
<g id="node5" class="node">
<title>GO:0009058</title>
<polygon fill="#ffffff" stroke="#000000" points="708.1116,-461.0019 578.2812,-461.0019 578.2812,-419.7981 708.1116,-419.7981 708.1116,-461.0019"/>
<text text-anchor="middle" x="643.1964" y="-444.6" font-family="Times,serif" font-size="14.00" fill="#000000">GO:0009058</text>
<text text-anchor="middle" x="643.1964" y="-427.8" font-family="Times,serif" font-size="14.00" fill="#000000">biosynthetic process</text>
</g>
<!-- GO:0044249&#45;&gt;GO:0009058 -->
<g id="edge4" class="edge">
<title>GO:0044249&#45;&gt;GO:0009058</title>
<path fill="none" stroke="#000000" d="M412.5636,-366.8589C419.0892,-369.8813 425.7314,-372.7404 432.1964,-375.2 491.0379,-397.5861 509.3655,-391.6113 569.1964,-411.2 573.9955,-412.7712 578.9332,-414.4893 583.872,-416.2801"/>
<polygon fill="#000000" stroke="#000000" points="582.7421,-419.594 593.335,-419.7944 585.1791,-413.0319 582.7421,-419.594"/>
</g>
<!-- GO:0044237 -->
<g id="node6" class="node">
<title>GO:0044237</title>
<polygon fill="#ffffff" stroke="#000000" points="416.3792,-469.8014 300.0136,-469.8014 300.0136,-410.9986 416.3792,-410.9986 416.3792,-469.8014"/>
<text text-anchor="middle" x="358.1964" y="-453" font-family="Times,serif" font-size="14.00" fill="#000000">GO:0044237</text>
<text text-anchor="middle" x="358.1964" y="-436.2" font-family="Times,serif" font-size="14.00" fill="#000000">cellular metabolic</text>
<text text-anchor="middle" x="358.1964" y="-419.4" font-family="Times,serif" font-size="14.00" fill="#000000">process</text>
</g>
<!-- GO:0044249&#45;&gt;GO:0044237 -->
<g id="edge5" class="edge">
<title>GO:0044249&#45;&gt;GO:0044237</title>
<path fill="none" stroke="#000000" d="M358.1964,-367.0584C358.1964,-377.5969 358.1964,-389.6505 358.1964,-400.8994"/>
<polygon fill="#000000" stroke="#000000" points="354.6965,-400.9373 358.1964,-410.9373 361.6965,-400.9374 354.6965,-400.9373"/>
</g>
<!-- GO:1901576 -->
<g id="node7" class="node">
<title>GO:1901576</title>
<polygon fill="#ffffff" stroke="#000000" points="791.1116,-367.0014 661.2812,-367.0014 661.2812,-308.1986 791.1116,-308.1986 791.1116,-367.0014"/>
<text text-anchor="middle" x="726.1964" y="-350.2" font-family="Times,serif" font-size="14.00" fill="#000000">GO:1901576</text>
<text text-anchor="middle" x="726.1964" y="-333.4" font-family="Times,serif" font-size="14.00" fill="#000000">organic substance</text>
<text text-anchor="middle" x="726.1964" y="-316.6" font-family="Times,serif" font-size="14.00" fill="#000000">biosynthetic process</text>
</g>
<!-- GO:0009059&#45;&gt;GO:1901576 -->
<g id="edge6" class="edge">
<title>GO:0009059&#45;&gt;GO:1901576</title>
<path fill="none" stroke="#000000" d="M800.6598,-255.6165C788.1176,-269.4254 773.0081,-286.0608 759.6866,-300.7276"/>
<polygon fill="#000000" stroke="#000000" points="757.039,-298.4369 752.9064,-308.1926 762.2207,-303.1433 757.039,-298.4369"/>
</g>
<!-- GO:0043170 -->
<g id="node8" class="node">
<title>GO:0043170</title>
<polygon fill="#ffffff" stroke="#000000" points="969.6986,-367.0014 808.6942,-367.0014 808.6942,-308.1986 969.6986,-308.1986 969.6986,-367.0014"/>
<text text-anchor="middle" x="889.1964" y="-350.2" font-family="Times,serif" font-size="14.00" fill="#000000">GO:0043170</text>
<text text-anchor="middle" x="889.1964" y="-333.4" font-family="Times,serif" font-size="14.00" fill="#000000">macromolecule metabolic</text>
<text text-anchor="middle" x="889.1964" y="-316.6" font-family="Times,serif" font-size="14.00" fill="#000000">process</text>
</g>
<!-- GO:0009059&#45;&gt;GO:0043170 -->
<g id="edge7" class="edge">
<title>GO:0009059&#45;&gt;GO:0043170</title>
<path fill="none" stroke="#000000" d="M843.4862,-255.6165C850.9028,-268.9186 859.7819,-284.8436 867.7335,-299.1052"/>
<polygon fill="#000000" stroke="#000000" points="864.8734,-301.1628 872.8002,-308.1926 870.9873,-297.754 864.8734,-301.1628"/>
</g>
<!-- GO:0044260&#45;&gt;GO:0044237 -->
<g id="edge8" class="edge">
<title>GO:0044260&#45;&gt;GO:0044237</title>
<path fill="none" stroke="#000000" d="M662.8289,-255.6716C652.5026,-294.36 632.8873,-359.4718 614.1964,-375.2 551.1969,-428.2136 510.0374,-389.1125 426.5826,-411.1734"/>
<polygon fill="#000000" stroke="#000000" points="425.3837,-407.8763 416.7416,-414.0054 427.3195,-414.6033 425.3837,-407.8763"/>
</g>
<!-- GO:0044260&#45;&gt;GO:0043170 -->
<g id="edge9" class="edge">
<title>GO:0044260&#45;&gt;GO:0043170</title>
<path fill="none" stroke="#000000" d="M727.7361,-255.6165C756.793,-270.3705 792.2046,-288.3512 822.4525,-303.7099"/>
<polygon fill="#000000" stroke="#000000" points="821.1602,-306.9791 831.6612,-308.3858 824.3294,-300.7376 821.1602,-306.9791"/>
</g>
<!-- GO:0008152 -->
<g id="node9" class="node">
<title>GO:0008152</title>
<polygon fill="#ffffff" stroke="#000000" points="628.382,-547.0019 512.0108,-547.0019 512.0108,-505.7981 628.382,-505.7981 628.382,-547.0019"/>
<text text-anchor="middle" x="570.1964" y="-530.6" font-family="Times,serif" font-size="14.00" fill="#000000">GO:0008152</text>
<text text-anchor="middle" x="570.1964" y="-513.8" font-family="Times,serif" font-size="14.00" fill="#000000">metabolic process</text>
</g>
<!-- GO:0009058&#45;&gt;GO:0008152 -->
<g id="edge10" class="edge">
<title>GO:0009058&#45;&gt;GO:0008152</title>
<path fill="none" stroke="#000000" d="M625.5251,-461.2182C616.1997,-472.2043 604.6163,-485.8506 594.4616,-497.8137"/>
<polygon fill="#000000" stroke="#000000" points="591.508,-495.8847 587.7049,-505.7735 596.8446,-500.4147 591.508,-495.8847"/>
</g>
<!-- GO:0044237&#45;&gt;GO:0008152 -->
<g id="edge12" class="edge">
<title>GO:0044237&#45;&gt;GO:0008152</title>
<path fill="none" stroke="#000000" d="M416.6067,-466.0105C419.507,-467.2338 422.3823,-468.4361 425.1964,-469.6 451.6697,-480.5494 481.07,-492.1659 506.4386,-502.0213"/>
<polygon fill="#000000" stroke="#000000" points="505.3604,-505.3571 515.9494,-505.7072 507.8899,-498.8301 505.3604,-505.3571"/>
</g>
<!-- GO:0009987 -->
<g id="node10" class="node">
<title>GO:0009987</title>
<polygon fill="#ffffff" stroke="#000000" points="489.1526,-547.0019 385.2402,-547.0019 385.2402,-505.7981 489.1526,-505.7981 489.1526,-547.0019"/>
<text text-anchor="middle" x="437.1964" y="-530.6" font-family="Times,serif" font-size="14.00" fill="#000000">GO:0009987</text>
<text text-anchor="middle" x="437.1964" y="-513.8" font-family="Times,serif" font-size="14.00" fill="#000000">cellular process</text>
</g>
<!-- GO:0044237&#45;&gt;GO:0009987 -->
<g id="edge11" class="edge">
<title>GO:0044237&#45;&gt;GO:0009987</title>
<path fill="none" stroke="#000000" d="M385.3837,-469.9963C393.7377,-479.0905 402.9081,-489.0734 411.1815,-498.08"/>
<polygon fill="#000000" stroke="#000000" points="408.8355,-500.6999 418.1781,-505.6966 413.9906,-495.9643 408.8355,-500.6999"/>
</g>
<!-- GO:1901576&#45;&gt;GO:0009058 -->
<g id="edge14" class="edge">
<title>GO:1901576&#45;&gt;GO:0009058</title>
<path fill="none" stroke="#000000" d="M702.4119,-367.0584C691.0395,-381.1438 677.4819,-397.9355 666.2108,-411.8954"/>
<polygon fill="#000000" stroke="#000000" points="663.4314,-409.7664 659.8726,-419.7456 668.8778,-414.1638 663.4314,-409.7664"/>
</g>
<!-- GO:0071704 -->
<g id="node11" class="node">
<title>GO:0071704</title>
<polygon fill="#ffffff" stroke="#000000" points="842.382,-469.8014 726.0108,-469.8014 726.0108,-410.9986 842.382,-410.9986 842.382,-469.8014"/>
<text text-anchor="middle" x="784.1964" y="-453" font-family="Times,serif" font-size="14.00" fill="#000000">GO:0071704</text>
<text text-anchor="middle" x="784.1964" y="-436.2" font-family="Times,serif" font-size="14.00" fill="#000000">organic substance</text>
<text text-anchor="middle" x="784.1964" y="-419.4" font-family="Times,serif" font-size="14.00" fill="#000000">metabolic process</text>
</g>
<!-- GO:1901576&#45;&gt;GO:0071704 -->
<g id="edge13" class="edge">
<title>GO:1901576&#45;&gt;GO:0071704</title>
<path fill="none" stroke="#000000" d="M742.8169,-367.0584C748.9448,-377.9195 755.9806,-390.3898 762.4916,-401.9301"/>
<polygon fill="#000000" stroke="#000000" points="759.6113,-403.9478 767.5735,-410.9373 765.7079,-400.508 759.6113,-403.9478"/>
</g>
<!-- GO:0043170&#45;&gt;GO:0071704 -->
<g id="edge15" class="edge">
<title>GO:0043170&#45;&gt;GO:0071704</title>
<path fill="none" stroke="#000000" d="M859.1076,-367.0584C847.4648,-378.4572 834.0117,-391.6285 821.7463,-403.6369"/>
<polygon fill="#000000" stroke="#000000" points="818.9866,-401.4406 814.2896,-410.9373 823.8837,-406.4424 818.9866,-401.4406"/>
</g>
<!-- GO:0008150 -->
<g id="node12" class="node">
<title>GO:0008150</title>
<polygon fill="#ffffff" stroke="#000000" points="561.667,-624.6019 440.7258,-624.6019 440.7258,-583.3981 561.667,-583.3981 561.667,-624.6019"/>
<text text-anchor="middle" x="501.1964" y="-608.2" font-family="Times,serif" font-size="14.00" fill="#000000">GO:0008150</text>
<text text-anchor="middle" x="501.1964" y="-591.4" font-family="Times,serif" font-size="14.00" fill="#000000">biological_process</text>
</g>
<!-- GO:0008152&#45;&gt;GO:0008150 -->
<g id="edge16" class="edge">
<title>GO:0008152&#45;&gt;GO:0008150</title>
<path fill="none" stroke="#000000" d="M551.7057,-547.1954C543.9713,-555.8937 534.8577,-566.1433 526.5162,-575.5244"/>
<polygon fill="#000000" stroke="#000000" points="523.7675,-573.3485 519.7382,-583.1472 528.9986,-577.9999 523.7675,-573.3485"/>
</g>
<!-- GO:0009987&#45;&gt;GO:0008150 -->
<g id="edge17" class="edge">
<title>GO:0009987&#45;&gt;GO:0008150</title>
<path fill="none" stroke="#000000" d="M454.3472,-547.1954C461.4494,-555.8067 469.8054,-565.9384 477.4791,-575.2427"/>
<polygon fill="#000000" stroke="#000000" points="474.9354,-577.6594 483.9982,-583.1472 480.3357,-573.2056 474.9354,-577.6594"/>
</g>
<!-- GO:0071704&#45;&gt;GO:0008152 -->
<g id="edge18" class="edge">
<title>GO:0071704&#45;&gt;GO:0008152</title>
<path fill="none" stroke="#000000" d="M725.7927,-466.0266C722.8906,-467.2456 720.0132,-468.4426 717.1964,-469.6 690.3807,-480.6184 660.5788,-492.2468 634.857,-502.0924"/>
<polygon fill="#000000" stroke="#000000" points="633.3077,-498.9375 625.2134,-505.7736 635.8041,-505.4772 633.3077,-498.9375"/>
</g>
<!-- GO:0044267 -->
<g id="node13" class="node">
<title>GO:0044267</title>
<polygon fill="#ffffff" stroke="#000000" points="1025.382,-153.0014 909.0108,-153.0014 909.0108,-94.1986 1025.382,-94.1986 1025.382,-153.0014"/>
<text text-anchor="middle" x="967.1964" y="-136.2" font-family="Times,serif" font-size="14.00" fill="#000000">GO:0044267</text>
<text text-anchor="middle" x="967.1964" y="-119.4" font-family="Times,serif" font-size="14.00" fill="#000000">cellular protein</text>
<text text-anchor="middle" x="967.1964" y="-102.6" font-family="Times,serif" font-size="14.00" fill="#000000">metabolic process</text>
</g>
<!-- GO:0044267&#45;&gt;GO:0044260 -->
<g id="edge20" class="edge">
<title>GO:0044267&#45;&gt;GO:0044260</title>
<path fill="none" stroke="#000000" d="M908.8391,-139.1702C865.4245,-151.2846 804.9833,-169.2749 753.1964,-188.8 749.4727,-190.2039 745.6794,-191.695 741.866,-193.2426"/>
<polygon fill="#000000" stroke="#000000" points="740.2647,-190.1178 732.3742,-197.1882 742.9517,-196.5816 740.2647,-190.1178"/>
</g>
<!-- GO:0019538 -->
<g id="node14" class="node">
<title>GO:0019538</title>
<polygon fill="#ffffff" stroke="#000000" points="1194.0381,-247.0019 1034.3547,-247.0019 1034.3547,-205.7981 1194.0381,-205.7981 1194.0381,-247.0019"/>
<text text-anchor="middle" x="1114.1964" y="-230.6" font-family="Times,serif" font-size="14.00" fill="#000000">GO:0019538</text>
<text text-anchor="middle" x="1114.1964" y="-213.8" font-family="Times,serif" font-size="14.00" fill="#000000">protein metabolic process</text>
</g>
<!-- GO:0044267&#45;&gt;GO:0019538 -->
<g id="edge19" class="edge">
<title>GO:0044267&#45;&gt;GO:0019538</title>
<path fill="none" stroke="#000000" d="M1009.3207,-153.0584C1030.4035,-167.802 1055.7263,-185.5107 1076.207,-199.8332"/>
<polygon fill="#000000" stroke="#000000" points="1074.4607,-202.8829 1084.6615,-205.7456 1078.4723,-197.1465 1074.4607,-202.8829"/>
</g>
<!-- GO:0019538&#45;&gt;GO:0043170 -->
<g id="edge22" class="edge">
<title>GO:0019538&#45;&gt;GO:0043170</title>
<path fill="none" stroke="#000000" d="M1072.4029,-247.0553C1040.3017,-262.9204 995.2836,-285.1693 957.9069,-303.6417"/>
<polygon fill="#000000" stroke="#000000" points="955.9957,-300.6821 948.5815,-308.2506 959.0972,-306.9576 955.9957,-300.6821"/>
</g>
<!-- GO:0044238 -->
<g id="node15" class="node">
<title>GO:0044238</title>
<polygon fill="#ffffff" stroke="#000000" points="1052.1994,-461.0019 888.1934,-461.0019 888.1934,-419.7981 1052.1994,-419.7981 1052.1994,-461.0019"/>
<text text-anchor="middle" x="970.1964" y="-444.6" font-family="Times,serif" font-size="14.00" fill="#000000">GO:0044238</text>
<text text-anchor="middle" x="970.1964" y="-427.8" font-family="Times,serif" font-size="14.00" fill="#000000">primary metabolic process</text>
</g>
<!-- GO:0019538&#45;&gt;GO:0044238 -->
<g id="edge21" class="edge">
<title>GO:0019538&#45;&gt;GO:0044238</title>
<path fill="none" stroke="#000000" d="M1100.1269,-247.3089C1074.3056,-285.6822 1019.3031,-367.422 989.8227,-411.2331"/>
<polygon fill="#000000" stroke="#000000" points="986.79,-409.4708 984.111,-419.7213 992.5976,-413.3787 986.79,-409.4708"/>
</g>
<!-- GO:0044238&#45;&gt;GO:0008152 -->
<g id="edge23" class="edge">
<title>GO:0044238&#45;&gt;GO:0008152</title>
<path fill="none" stroke="#000000" d="M888.0403,-461.027C875.7113,-463.9867 863.1332,-466.9302 851.1964,-469.6 778.8004,-485.7919 695.45,-502.3837 638.4428,-513.4208"/>
<polygon fill="#000000" stroke="#000000" points="637.6222,-510.0145 628.4674,-515.3475 638.9497,-516.8875 637.6222,-510.0145"/>
</g>
<!-- GO:0043043 -->
<g id="node16" class="node">
<title>GO:0043043</title>
<polygon fill="#ffffff" stroke="#000000" points="412.8431,-58.6014 283.5497,-58.6014 283.5497,.2014 412.8431,.2014 412.8431,-58.6014"/>
<text text-anchor="middle" x="348.1964" y="-41.8" font-family="Times,serif" font-size="14.00" fill="#000000">GO:0043043</text>
<text text-anchor="middle" x="348.1964" y="-25" font-family="Times,serif" font-size="14.00" fill="#000000">peptide biosynthetic</text>
<text text-anchor="middle" x="348.1964" y="-8.2" font-family="Times,serif" font-size="14.00" fill="#000000">process</text>
</g>
<!-- GO:0043604 -->
<g id="node17" class="node">
<title>GO:0043604</title>
<polygon fill="#ffffff" stroke="#000000" points="249.3431,-153.0014 127.0497,-153.0014 127.0497,-94.1986 249.3431,-94.1986 249.3431,-153.0014"/>
<text text-anchor="middle" x="188.1964" y="-136.2" font-family="Times,serif" font-size="14.00" fill="#000000">GO:0043604</text>
<text text-anchor="middle" x="188.1964" y="-119.4" font-family="Times,serif" font-size="14.00" fill="#000000">amide biosynthetic</text>
<text text-anchor="middle" x="188.1964" y="-102.6" font-family="Times,serif" font-size="14.00" fill="#000000">process</text>
</g>
<!-- GO:0043043&#45;&gt;GO:0043604 -->
<g id="edge24" class="edge">
<title>GO:0043043&#45;&gt;GO:0043604</title>
<path fill="none" stroke="#000000" d="M298.4485,-58.5513C282.0436,-68.2301 263.6485,-79.0833 246.6546,-89.1097"/>
<polygon fill="#000000" stroke="#000000" points="244.7477,-86.1709 237.9136,-94.2669 248.3048,-92.1998 244.7477,-86.1709"/>
</g>
<!-- GO:0006518 -->
<g id="node18" class="node">
<title>GO:0006518</title>
<polygon fill="#ffffff" stroke="#000000" points="429.0925,-144.2019 267.3003,-144.2019 267.3003,-102.9981 429.0925,-102.9981 429.0925,-144.2019"/>
<text text-anchor="middle" x="348.1964" y="-127.8" font-family="Times,serif" font-size="14.00" fill="#000000">GO:0006518</text>
<text text-anchor="middle" x="348.1964" y="-111" font-family="Times,serif" font-size="14.00" fill="#000000">peptide metabolic process</text>
</g>
<!-- GO:0043043&#45;&gt;GO:0006518 -->
<g id="edge25" class="edge">
<title>GO:0043043&#45;&gt;GO:0006518</title>
<path fill="none" stroke="#000000" d="M348.1964,-58.5513C348.1964,-69.4614 348.1964,-81.8637 348.1964,-92.892"/>
<polygon fill="#000000" stroke="#000000" points="344.6965,-92.9509 348.1964,-102.951 351.6965,-92.951 344.6965,-92.9509"/>
</g>
<!-- GO:1901566 -->
<g id="node19" class="node">
<title>GO:1901566</title>
<polygon fill="#ffffff" stroke="#000000" points="578.3333,-255.8014 414.0595,-255.8014 414.0595,-196.9986 578.3333,-196.9986 578.3333,-255.8014"/>
<text text-anchor="middle" x="496.1964" y="-239" font-family="Times,serif" font-size="14.00" fill="#000000">GO:1901566</text>
<text text-anchor="middle" x="496.1964" y="-222.2" font-family="Times,serif" font-size="14.00" fill="#000000">organonitrogen compound</text>
<text text-anchor="middle" x="496.1964" y="-205.4" font-family="Times,serif" font-size="14.00" fill="#000000">biosynthetic process</text>
</g>
<!-- GO:0043043&#45;&gt;GO:1901566 -->
<g id="edge26" class="edge">
<title>GO:0043043&#45;&gt;GO:1901566</title>
<path fill="none" stroke="#000000" d="M398.4239,-58.5121C412.6115,-68.5473 427.1708,-80.7357 438.1964,-94.4 460.3854,-121.8996 475.7393,-159.2082 485.0491,-187.1462"/>
<polygon fill="#000000" stroke="#000000" points="481.817,-188.5289 488.2071,-196.9797 488.4818,-186.3885 481.817,-188.5289"/>
</g>
<!-- GO:0044271 -->
<g id="node20" class="node">
<title>GO:0044271</title>
<polygon fill="#ffffff" stroke="#000000" points="319.7378,-264.1003 172.655,-264.1003 172.655,-188.6997 319.7378,-188.6997 319.7378,-264.1003"/>
<text text-anchor="middle" x="246.1964" y="-247.4" font-family="Times,serif" font-size="14.00" fill="#000000">GO:0044271</text>
<text text-anchor="middle" x="246.1964" y="-230.6" font-family="Times,serif" font-size="14.00" fill="#000000">cellular nitrogen</text>
<text text-anchor="middle" x="246.1964" y="-213.8" font-family="Times,serif" font-size="14.00" fill="#000000">compound biosynthetic</text>
<text text-anchor="middle" x="246.1964" y="-197" font-family="Times,serif" font-size="14.00" fill="#000000">process</text>
</g>
<!-- GO:0043604&#45;&gt;GO:0044271 -->
<g id="edge27" class="edge">
<title>GO:0043604&#45;&gt;GO:0044271</title>
<path fill="none" stroke="#000000" d="M204.8169,-153.0584C209.4865,-161.335 214.6834,-170.546 219.7736,-179.5678"/>
<polygon fill="#000000" stroke="#000000" points="216.8424,-181.4954 224.8046,-188.485 222.939,-178.0557 216.8424,-181.4954"/>
</g>
<!-- GO:0043603 -->
<g id="node21" class="node">
<title>GO:0043603</title>
<polygon fill="#ffffff" stroke="#000000" points="154.5897,-255.8014 -.1969,-255.8014 -.1969,-196.9986 154.5897,-196.9986 154.5897,-255.8014"/>
<text text-anchor="middle" x="77.1964" y="-239" font-family="Times,serif" font-size="14.00" fill="#000000">GO:0043603</text>
<text text-anchor="middle" x="77.1964" y="-222.2" font-family="Times,serif" font-size="14.00" fill="#000000">cellular amide metabolic</text>
<text text-anchor="middle" x="77.1964" y="-205.4" font-family="Times,serif" font-size="14.00" fill="#000000">process</text>
</g>
<!-- GO:0043604&#45;&gt;GO:0043603 -->
<g id="edge28" class="edge">
<title>GO:0043604&#45;&gt;GO:0043603</title>
<path fill="none" stroke="#000000" d="M156.3883,-153.0584C143.964,-164.5648 129.5898,-177.8771 116.5253,-189.9765"/>
<polygon fill="#000000" stroke="#000000" points="113.9679,-187.5745 109.0092,-196.9373 118.7243,-192.7104 113.9679,-187.5745"/>
</g>
<!-- GO:0006518&#45;&gt;GO:0043603 -->
<g id="edge30" class="edge">
<title>GO:0006518&#45;&gt;GO:0043603</title>
<path fill="none" stroke="#000000" d="M286.1107,-144.2104C249.9988,-156.5139 203.7488,-172.8139 163.1964,-188.8 159.5486,-190.238 155.8267,-191.7379 152.0769,-193.2753"/>
<polygon fill="#000000" stroke="#000000" points="150.617,-190.0917 142.7248,-197.1602 153.3024,-196.5561 150.617,-190.0917"/>
</g>
<!-- GO:1901564 -->
<g id="node22" class="node">
<title>GO:1901564</title>
<polygon fill="#ffffff" stroke="#000000" points="605.3333,-367.0014 441.0595,-367.0014 441.0595,-308.1986 605.3333,-308.1986 605.3333,-367.0014"/>
<text text-anchor="middle" x="523.1964" y="-350.2" font-family="Times,serif" font-size="14.00" fill="#000000">GO:1901564</text>
<text text-anchor="middle" x="523.1964" y="-333.4" font-family="Times,serif" font-size="14.00" fill="#000000">organonitrogen compound</text>
<text text-anchor="middle" x="523.1964" y="-316.6" font-family="Times,serif" font-size="14.00" fill="#000000">metabolic process</text>
</g>
<!-- GO:0006518&#45;&gt;GO:1901564 -->
<g id="edge29" class="edge">
<title>GO:0006518&#45;&gt;GO:1901564</title>
<path fill="none" stroke="#000000" d="M352.3371,-144.2845C359.093,-173.6801 374.8825,-227.965 405.1964,-264 417.9689,-279.183 434.7002,-292.2023 451.5327,-302.8826"/>
<polygon fill="#000000" stroke="#000000" points="449.9657,-306.0267 460.3239,-308.2535 453.6152,-300.0533 449.9657,-306.0267"/>
</g>
<!-- GO:1901566&#45;&gt;GO:1901576 -->
<g id="edge31" class="edge">
<title>GO:1901566&#45;&gt;GO:1901576</title>
<path fill="none" stroke="#000000" d="M556.6262,-255.6165C587.2741,-270.4341 624.6536,-288.5063 656.5105,-303.9084"/>
<polygon fill="#000000" stroke="#000000" points="655.2448,-307.184 665.7713,-308.3858 658.2918,-300.8819 655.2448,-307.184"/>
</g>
<!-- GO:1901566&#45;&gt;GO:1901564 -->
<g id="edge32" class="edge">
<title>GO:1901566&#45;&gt;GO:1901564</title>
<path fill="none" stroke="#000000" d="M503.2903,-255.6165C506.4586,-268.6652 510.2398,-284.2379 513.6513,-298.2885"/>
<polygon fill="#000000" stroke="#000000" points="510.2953,-299.3008 516.0561,-308.1926 517.0977,-297.649 510.2953,-299.3008"/>
</g>
<!-- GO:0044271&#45;&gt;GO:0044249 -->
<g id="edge33" class="edge">
<title>GO:0044271&#45;&gt;GO:0044249</title>
<path fill="none" stroke="#000000" d="M284.1145,-264.0472C296.0967,-275.9439 309.3162,-289.069 321.2309,-300.8986"/>
<polygon fill="#000000" stroke="#000000" points="318.8958,-303.5122 328.4581,-308.0742 323.8278,-298.5447 318.8958,-303.5122"/>
</g>
<!-- GO:0034641 -->
<g id="node23" class="node">
<title>GO:0034641</title>
<polygon fill="#ffffff" stroke="#000000" points="275.0079,-375.3003 141.3849,-375.3003 141.3849,-299.8997 275.0079,-299.8997 275.0079,-375.3003"/>
<text text-anchor="middle" x="208.1964" y="-358.6" font-family="Times,serif" font-size="14.00" fill="#000000">GO:0034641</text>
<text text-anchor="middle" x="208.1964" y="-341.8" font-family="Times,serif" font-size="14.00" fill="#000000">cellular nitrogen</text>
<text text-anchor="middle" x="208.1964" y="-325" font-family="Times,serif" font-size="14.00" fill="#000000">compound metabolic</text>
<text text-anchor="middle" x="208.1964" y="-308.2" font-family="Times,serif" font-size="14.00" fill="#000000">process</text>
</g>
<!-- GO:0044271&#45;&gt;GO:0034641 -->
<g id="edge34" class="edge">
<title>GO:0044271&#45;&gt;GO:0034641</title>
<path fill="none" stroke="#000000" d="M233.3313,-264.0472C230.4529,-272.4706 227.3639,-281.5098 224.3707,-290.2689"/>
<polygon fill="#000000" stroke="#000000" points="220.97,-289.397 221.0482,-299.9915 227.5939,-291.6606 220.97,-289.397"/>
</g>
<!-- GO:0043603&#45;&gt;GO:0034641 -->
<g id="edge35" class="edge">
<title>GO:0043603&#45;&gt;GO:0034641</title>
<path fill="none" stroke="#000000" d="M111.6151,-255.6165C125.1715,-267.1239 141.0402,-280.5942 155.9523,-293.2523"/>
<polygon fill="#000000" stroke="#000000" points="153.7571,-295.9799 163.6458,-299.783 158.2871,-290.6433 153.7571,-295.9799"/>
</g>
<!-- GO:1901564&#45;&gt;GO:0071704 -->
<g id="edge36" class="edge">
<title>GO:1901564&#45;&gt;GO:0071704</title>
<path fill="none" stroke="#000000" d="M602.8217,-366.8173C635.6214,-379.09 674.147,-393.8074 716.4332,-410.9415"/>
<polygon fill="#000000" stroke="#000000" points="715.2196,-414.2263 725.8014,-414.7522 717.8572,-407.7422 715.2196,-414.2263"/>
</g>
<!-- GO:0006807 -->
<g id="node24" class="node">
<title>GO:0006807</title>
<polygon fill="#ffffff" stroke="#000000" points="559.9583,-469.8014 434.4345,-469.8014 434.4345,-410.9986 559.9583,-410.9986 559.9583,-469.8014"/>
<text text-anchor="middle" x="497.1964" y="-453" font-family="Times,serif" font-size="14.00" fill="#000000">GO:0006807</text>
<text text-anchor="middle" x="497.1964" y="-436.2" font-family="Times,serif" font-size="14.00" fill="#000000">nitrogen compound</text>
<text text-anchor="middle" x="497.1964" y="-419.4" font-family="Times,serif" font-size="14.00" fill="#000000">metabolic process</text>
</g>
<!-- GO:1901564&#45;&gt;GO:0006807 -->
<g id="edge37" class="edge">
<title>GO:1901564&#45;&gt;GO:0006807</title>
<path fill="none" stroke="#000000" d="M515.7458,-367.0584C513.0804,-377.5969 510.0319,-389.6505 507.1868,-400.8994"/>
<polygon fill="#000000" stroke="#000000" points="503.7069,-400.3844 504.648,-410.9373 510.4932,-402.1008 503.7069,-400.3844"/>
</g>
<!-- GO:0034641&#45;&gt;GO:0044237 -->
<g id="edge39" class="edge">
<title>GO:0034641&#45;&gt;GO:0044237</title>
<path fill="none" stroke="#000000" d="M263.1991,-375.2952C277.463,-385.0707 292.7679,-395.5597 306.8366,-405.2014"/>
<polygon fill="#000000" stroke="#000000" points="305.1889,-408.3153 315.4163,-411.0814 309.1461,-402.5411 305.1889,-408.3153"/>
</g>
<!-- GO:0034641&#45;&gt;GO:0006807 -->
<g id="edge38" class="edge">
<title>GO:0034641&#45;&gt;GO:0006807</title>
<path fill="none" stroke="#000000" d="M275.4175,-371.7682C278.3627,-372.9758 281.2974,-374.1263 284.1964,-375.2 342.0042,-396.6101 361.8904,-391.5608 424.9299,-411.3127"/>
<polygon fill="#000000" stroke="#000000" points="423.962,-414.678 434.5535,-414.413 426.1085,-408.0152 423.962,-414.678"/>
</g>
<!-- GO:0006807&#45;&gt;GO:0008152 -->
<g id="edge40" class="edge">
<title>GO:0006807&#45;&gt;GO:0008152</title>
<path fill="none" stroke="#000000" d="M522.3189,-469.9963C529.9604,-478.9986 538.3411,-488.8719 545.9254,-497.8067"/>
<polygon fill="#000000" stroke="#000000" points="543.4828,-500.3377 552.6225,-505.6966 548.8195,-495.8078 543.4828,-500.3377"/>
</g>
<!-- GO:0010467 -->
<g id="node25" class="node">
<title>GO:0010467</title>
<polygon fill="#ffffff" stroke="#000000" points="1015.9954,-247.0019 910.3974,-247.0019 910.3974,-205.7981 1015.9954,-205.7981 1015.9954,-247.0019"/>
<text text-anchor="middle" x="963.1964" y="-230.6" font-family="Times,serif" font-size="14.00" fill="#000000">GO:0010467</text>
<text text-anchor="middle" x="963.1964" y="-213.8" font-family="Times,serif" font-size="14.00" fill="#000000">gene expression</text>
</g>
<!-- GO:0010467&#45;&gt;GO:0043170 -->
<g id="edge41" class="edge">
<title>GO:0010467&#45;&gt;GO:0043170</title>
<path fill="none" stroke="#000000" d="M949.451,-247.0553C939.609,-261.8448 926.0754,-282.1819 914.3273,-299.8357"/>
<polygon fill="#000000" stroke="#000000" points="911.3538,-297.9864 908.7275,-308.2506 917.1814,-301.8645 911.3538,-297.9864"/>
</g>
</g>
</svg>
