<?xml version="1.0" encoding="UTF-8" standalone="no"?>
<!DOCTYPE svg PUBLIC "-//W3C//DTD SVG 1.1//EN"
 "http://www.w3.org/Graphics/SVG/1.1/DTD/svg11.dtd">
<!-- Generated by graphviz version 2.40.1 (20161225.0304)
 -->
<!-- Title: G Pages: 1 -->
<svg width="1372pt" height="444pt"
 viewBox="0.00 0.00 1372.22 444.00" xmlns="http://www.w3.org/2000/svg" xmlns:xlink="http://www.w3.org/1999/xlink">
<g id="graph0" class="graph" transform="scale(1 1) rotate(0) translate(4 440)">
<title>G</title>
<polygon fill="#ffffff" stroke="transparent" points="-4,4 -4,-440 1368.2155,-440 1368.2155,4 -4,4"/>
<!-- GO:0044238 -->
<g id="node1" class="node">
<title>GO:0044238</title>
<polygon fill="#ff00ff" stroke="#000000" points="185.5904,-272.2019 21.5845,-272.2019 21.5845,-230.9981 185.5904,-230.9981 185.5904,-272.2019"/>
<text text-anchor="middle" x="103.5875" y="-255.8" font-family="Times,serif" font-size="14.00" fill="#000000">GO:0044238</text>
<text text-anchor="middle" x="103.5875" y="-239" font-family="Times,serif" font-size="14.00" fill="#000000">primary metabolic process</text>
</g>
<!-- GO:0008152 -->
<g id="node2" class="node">
<title>GO:0008152</title>
<polygon fill="#ffffff" stroke="#000000" points="596.7731,-358.2019 480.4018,-358.2019 480.4018,-316.9981 596.7731,-316.9981 596.7731,-358.2019"/>
<text text-anchor="middle" x="538.5875" y="-341.8" font-family="Times,serif" font-size="14.00" fill="#000000">GO:0008152</text>
<text text-anchor="middle" x="538.5875" y="-325" font-family="Times,serif" font-size="14.00" fill="#000000">metabolic process</text>
</g>
<!-- GO:0044238&#45;&gt;GO:0008152 -->
<g id="edge1" class="edge">
<title>GO:0044238&#45;&gt;GO:0008152</title>
<path fill="none" stroke="#000000" d="M185.6632,-267.8265C267.8987,-284.0845 393.0326,-308.8236 470.0989,-324.0597"/>
<polygon fill="#000000" stroke="#000000" points="469.6914,-327.5468 480.1803,-326.0528 471.0491,-320.6798 469.6914,-327.5468"/>
</g>
<!-- GO:0008150 -->
<g id="node3" class="node">
<title>GO:0008150</title>
<polygon fill="#ffffff" stroke="#000000" points="820.0581,-435.8019 699.1169,-435.8019 699.1169,-394.5981 820.0581,-394.5981 820.0581,-435.8019"/>
<text text-anchor="middle" x="759.5875" y="-419.4" font-family="Times,serif" font-size="14.00" fill="#000000">GO:0008150</text>
<text text-anchor="middle" x="759.5875" y="-402.6" font-family="Times,serif" font-size="14.00" fill="#000000">biological_process</text>
</g>
<!-- GO:0008152&#45;&gt;GO:0008150 -->
<g id="edge2" class="edge">
<title>GO:0008152&#45;&gt;GO:0008150</title>
<path fill="none" stroke="#000000" d="M596.9417,-358.09C625.9056,-368.2601 661.0714,-380.6079 691.2845,-391.2167"/>
<polygon fill="#000000" stroke="#000000" points="690.311,-394.5843 700.9058,-394.595 692.6301,-387.9796 690.311,-394.5843"/>
</g>
<!-- GO:0044710 -->
<g id="node4" class="node">
<title>GO:0044710</title>
<polygon fill="#ff00ff" stroke="#000000" points="461.9957,-281.0014 297.1792,-281.0014 297.1792,-222.1986 461.9957,-222.1986 461.9957,-281.0014"/>
<text text-anchor="middle" x="379.5875" y="-264.2" font-family="Times,serif" font-size="14.00" fill="#000000">GO:0044710</text>
<text text-anchor="middle" x="379.5875" y="-247.4" font-family="Times,serif" font-size="14.00" fill="#000000">single&#45;organism metabolic</text>
<text text-anchor="middle" x="379.5875" y="-230.6" font-family="Times,serif" font-size="14.00" fill="#000000">process</text>
</g>
<!-- GO:0044710&#45;&gt;GO:0008152 -->
<g id="edge3" class="edge">
<title>GO:0044710&#45;&gt;GO:0008152</title>
<path fill="none" stroke="#000000" d="M433.8615,-280.9558C452.401,-290.9834 472.9822,-302.1154 490.9582,-311.8383"/>
<polygon fill="#000000" stroke="#000000" points="489.6355,-315.1019 500.0964,-316.7809 492.9657,-308.9449 489.6355,-315.1019"/>
</g>
<!-- GO:0044699 -->
<g id="node5" class="node">
<title>GO:0044699</title>
<polygon fill="#ff00ff" stroke="#000000" points="766.2688,-358.2019 614.9061,-358.2019 614.9061,-316.9981 766.2688,-316.9981 766.2688,-358.2019"/>
<text text-anchor="middle" x="690.5875" y="-341.8" font-family="Times,serif" font-size="14.00" fill="#000000">GO:0044699</text>
<text text-anchor="middle" x="690.5875" y="-325" font-family="Times,serif" font-size="14.00" fill="#000000">single&#45;organism process</text>
</g>
<!-- GO:0044710&#45;&gt;GO:0044699 -->
<g id="edge4" class="edge">
<title>GO:0044710&#45;&gt;GO:0044699</title>
<path fill="none" stroke="#000000" d="M462.2759,-278.0746C465.416,-279.0069 468.528,-279.9184 471.5875,-280.8 515.347,-293.4094 564.3892,-306.2477 604.9536,-316.5213"/>
<polygon fill="#000000" stroke="#000000" points="604.2543,-319.9545 614.8069,-319.0087 605.9677,-313.1674 604.2543,-319.9545"/>
</g>
<!-- GO:0044699&#45;&gt;GO:0008150 -->
<g id="edge5" class="edge">
<title>GO:0044699&#45;&gt;GO:0008150</title>
<path fill="none" stroke="#000000" d="M709.0782,-358.3954C716.8125,-367.0937 725.9262,-377.3433 734.2677,-386.7244"/>
<polygon fill="#000000" stroke="#000000" points="731.7853,-389.1999 741.0457,-394.3472 737.0164,-384.5485 731.7853,-389.1999"/>
</g>
<!-- GO:1901564 -->
<g id="node6" class="node">
<title>GO:1901564</title>
<polygon fill="#ff00ff" stroke="#000000" points="745.7243,-178.2014 581.4506,-178.2014 581.4506,-119.3986 745.7243,-119.3986 745.7243,-178.2014"/>
<text text-anchor="middle" x="663.5875" y="-161.4" font-family="Times,serif" font-size="14.00" fill="#000000">GO:1901564</text>
<text text-anchor="middle" x="663.5875" y="-144.6" font-family="Times,serif" font-size="14.00" fill="#000000">organonitrogen compound</text>
<text text-anchor="middle" x="663.5875" y="-127.8" font-family="Times,serif" font-size="14.00" fill="#000000">metabolic process</text>
</g>
<!-- GO:0071704 -->
<g id="node7" class="node">
<title>GO:0071704</title>
<polygon fill="#00ffff" stroke="#000000" points="596.7731,-281.0014 480.4018,-281.0014 480.4018,-222.1986 596.7731,-222.1986 596.7731,-281.0014"/>
<text text-anchor="middle" x="538.5875" y="-264.2" font-family="Times,serif" font-size="14.00" fill="#000000">GO:0071704</text>
<text text-anchor="middle" x="538.5875" y="-247.4" font-family="Times,serif" font-size="14.00" fill="#000000">organic substance</text>
<text text-anchor="middle" x="538.5875" y="-230.6" font-family="Times,serif" font-size="14.00" fill="#000000">metabolic process</text>
</g>
<!-- GO:1901564&#45;&gt;GO:0071704 -->
<g id="edge6" class="edge">
<title>GO:1901564&#45;&gt;GO:0071704</title>
<path fill="none" stroke="#000000" d="M627.7675,-178.2584C613.6455,-189.8723 597.2862,-203.3261 582.4647,-215.5154"/>
<polygon fill="#000000" stroke="#000000" points="579.9131,-213.0822 574.4127,-222.1373 584.3594,-218.4887 579.9131,-213.0822"/>
</g>
<!-- GO:0006807 -->
<g id="node8" class="node">
<title>GO:0006807</title>
<polygon fill="#ff00ff" stroke="#000000" points="740.3493,-281.0014 614.8256,-281.0014 614.8256,-222.1986 740.3493,-222.1986 740.3493,-281.0014"/>
<text text-anchor="middle" x="677.5875" y="-264.2" font-family="Times,serif" font-size="14.00" fill="#000000">GO:0006807</text>
<text text-anchor="middle" x="677.5875" y="-247.4" font-family="Times,serif" font-size="14.00" fill="#000000">nitrogen compound</text>
<text text-anchor="middle" x="677.5875" y="-230.6" font-family="Times,serif" font-size="14.00" fill="#000000">metabolic process</text>
</g>
<!-- GO:1901564&#45;&gt;GO:0006807 -->
<g id="edge7" class="edge">
<title>GO:1901564&#45;&gt;GO:0006807</title>
<path fill="none" stroke="#000000" d="M667.5993,-178.2584C669.0345,-188.7969 670.676,-200.8505 672.208,-212.0994"/>
<polygon fill="#000000" stroke="#000000" points="668.7576,-212.7011 673.575,-222.1373 675.6935,-211.7565 668.7576,-212.7011"/>
</g>
<!-- GO:0071704&#45;&gt;GO:0008152 -->
<g id="edge8" class="edge">
<title>GO:0071704&#45;&gt;GO:0008152</title>
<path fill="none" stroke="#000000" d="M538.5875,-281.1963C538.5875,-289.4638 538.5875,-298.4657 538.5875,-306.8008"/>
<polygon fill="#000000" stroke="#000000" points="535.0876,-306.8965 538.5875,-316.8966 542.0876,-306.8966 535.0876,-306.8965"/>
</g>
<!-- GO:0006807&#45;&gt;GO:0008152 -->
<g id="edge9" class="edge">
<title>GO:0006807&#45;&gt;GO:0008152</title>
<path fill="none" stroke="#000000" d="M630.1403,-280.9558C614.2303,-290.7994 596.6001,-301.7073 581.0929,-311.3017"/>
<polygon fill="#000000" stroke="#000000" points="578.8993,-308.5431 572.2369,-316.7809 582.5824,-314.4958 578.8993,-308.5431"/>
</g>
<!-- GO:0040007 -->
<g id="node9" class="node">
<title>GO:0040007</title>
<polygon fill="#00ff00" stroke="#000000" points="873.1913,-358.2019 783.9836,-358.2019 783.9836,-316.9981 873.1913,-316.9981 873.1913,-358.2019"/>
<text text-anchor="middle" x="828.5875" y="-341.8" font-family="Times,serif" font-size="14.00" fill="#000000">GO:0040007</text>
<text text-anchor="middle" x="828.5875" y="-325" font-family="Times,serif" font-size="14.00" fill="#000000">growth</text>
</g>
<!-- GO:0040007&#45;&gt;GO:0008150 -->
<g id="edge10" class="edge">
<title>GO:0040007&#45;&gt;GO:0008150</title>
<path fill="none" stroke="#000000" d="M810.0967,-358.3954C802.3624,-367.0937 793.2487,-377.3433 784.9072,-386.7244"/>
<polygon fill="#000000" stroke="#000000" points="782.1585,-384.5485 778.1292,-394.3472 787.3897,-389.1999 782.1585,-384.5485"/>
</g>
<!-- GO:0006139 -->
<g id="node10" class="node">
<title>GO:0006139</title>
<polygon fill="#ff00ff" stroke="#000000" points="901.5427,-75.3003 759.6323,-75.3003 759.6323,.1003 901.5427,.1003 901.5427,-75.3003"/>
<text text-anchor="middle" x="830.5875" y="-58.6" font-family="Times,serif" font-size="14.00" fill="#000000">GO:0006139</text>
<text text-anchor="middle" x="830.5875" y="-41.8" font-family="Times,serif" font-size="14.00" fill="#000000">nucleobase&#45;containing</text>
<text text-anchor="middle" x="830.5875" y="-25" font-family="Times,serif" font-size="14.00" fill="#000000">compound metabolic</text>
<text text-anchor="middle" x="830.5875" y="-8.2" font-family="Times,serif" font-size="14.00" fill="#000000">process</text>
</g>
<!-- GO:0006139&#45;&gt;GO:0044238 -->
<g id="edge11" class="edge">
<title>GO:0006139&#45;&gt;GO:0044238</title>
<path fill="none" stroke="#000000" d="M759.5224,-38.6526C570.158,-42.1897 64.3947,-56.6981 14.5875,-111.2 -7.9591,-135.8718 -.5272,-156.5907 14.5875,-186.4 22.6249,-202.2516 36.5283,-215.1778 50.9894,-225.2167"/>
<polygon fill="#000000" stroke="#000000" points="49.2419,-228.2558 59.5282,-230.7942 53.07,-222.3952 49.2419,-228.2558"/>
</g>
<!-- GO:0034641 -->
<g id="node11" class="node">
<title>GO:0034641</title>
<polygon fill="#ffffff" stroke="#000000" points="897.399,-186.5003 763.7759,-186.5003 763.7759,-111.0997 897.399,-111.0997 897.399,-186.5003"/>
<text text-anchor="middle" x="830.5875" y="-169.8" font-family="Times,serif" font-size="14.00" fill="#000000">GO:0034641</text>
<text text-anchor="middle" x="830.5875" y="-153" font-family="Times,serif" font-size="14.00" fill="#000000">cellular nitrogen</text>
<text text-anchor="middle" x="830.5875" y="-136.2" font-family="Times,serif" font-size="14.00" fill="#000000">compound metabolic</text>
<text text-anchor="middle" x="830.5875" y="-119.4" font-family="Times,serif" font-size="14.00" fill="#000000">process</text>
</g>
<!-- GO:0006139&#45;&gt;GO:0034641 -->
<g id="edge12" class="edge">
<title>GO:0006139&#45;&gt;GO:0034641</title>
<path fill="none" stroke="#000000" d="M830.5875,-75.2472C830.5875,-83.58 830.5875,-92.5155 830.5875,-101.1863"/>
<polygon fill="#000000" stroke="#000000" points="827.0876,-101.1915 830.5875,-111.1915 834.0876,-101.1916 827.0876,-101.1915"/>
</g>
<!-- GO:0006725 -->
<g id="node12" class="node">
<title>GO:0006725</title>
<polygon fill="#ffffff" stroke="#000000" points="1049.399,-186.5003 915.7759,-186.5003 915.7759,-111.0997 1049.399,-111.0997 1049.399,-186.5003"/>
<text text-anchor="middle" x="982.5875" y="-169.8" font-family="Times,serif" font-size="14.00" fill="#000000">GO:0006725</text>
<text text-anchor="middle" x="982.5875" y="-153" font-family="Times,serif" font-size="14.00" fill="#000000">cellular aromatic</text>
<text text-anchor="middle" x="982.5875" y="-136.2" font-family="Times,serif" font-size="14.00" fill="#000000">compound metabolic</text>
<text text-anchor="middle" x="982.5875" y="-119.4" font-family="Times,serif" font-size="14.00" fill="#000000">process</text>
</g>
<!-- GO:0006139&#45;&gt;GO:0006725 -->
<g id="edge13" class="edge">
<title>GO:0006139&#45;&gt;GO:0006725</title>
<path fill="none" stroke="#000000" d="M882.0477,-75.2472C895.1711,-84.8481 909.3881,-95.2489 922.8854,-105.1232"/>
<polygon fill="#000000" stroke="#000000" points="921.0428,-108.1118 931.1802,-111.1915 925.1759,-102.4623 921.0428,-108.1118"/>
</g>
<!-- GO:1901360 -->
<g id="node13" class="node">
<title>GO:1901360</title>
<polygon fill="#ffffff" stroke="#000000" points="359.0988,-178.2014 202.0761,-178.2014 202.0761,-119.3986 359.0988,-119.3986 359.0988,-178.2014"/>
<text text-anchor="middle" x="280.5875" y="-161.4" font-family="Times,serif" font-size="14.00" fill="#000000">GO:1901360</text>
<text text-anchor="middle" x="280.5875" y="-144.6" font-family="Times,serif" font-size="14.00" fill="#000000">organic cyclic compound</text>
<text text-anchor="middle" x="280.5875" y="-127.8" font-family="Times,serif" font-size="14.00" fill="#000000">metabolic process</text>
</g>
<!-- GO:0006139&#45;&gt;GO:1901360 -->
<g id="edge14" class="edge">
<title>GO:0006139&#45;&gt;GO:1901360</title>
<path fill="none" stroke="#000000" d="M759.3567,-43.4719C667.5878,-52.2738 503.7861,-72.1932 368.5875,-111.2 363.7238,-112.6032 358.7713,-114.2051 353.82,-115.9384"/>
<polygon fill="#000000" stroke="#000000" points="352.5102,-112.6907 344.3235,-119.4159 354.9173,-119.2638 352.5102,-112.6907"/>
</g>
<!-- GO:0046483 -->
<g id="node14" class="node">
<title>GO:0046483</title>
<polygon fill="#ffffff" stroke="#000000" points="1207.3086,-178.2014 1067.8663,-178.2014 1067.8663,-119.3986 1207.3086,-119.3986 1207.3086,-178.2014"/>
<text text-anchor="middle" x="1137.5875" y="-161.4" font-family="Times,serif" font-size="14.00" fill="#000000">GO:0046483</text>
<text text-anchor="middle" x="1137.5875" y="-144.6" font-family="Times,serif" font-size="14.00" fill="#000000">heterocycle metabolic</text>
<text text-anchor="middle" x="1137.5875" y="-127.8" font-family="Times,serif" font-size="14.00" fill="#000000">process</text>
</g>
<!-- GO:0006139&#45;&gt;GO:0046483 -->
<g id="edge15" class="edge">
<title>GO:0006139&#45;&gt;GO:0046483</title>
<path fill="none" stroke="#000000" d="M901.796,-57.9436C947.1972,-71.5602 1006.9835,-90.6943 1058.5875,-111.2 1061.8628,-112.5015 1065.1934,-113.876 1068.5423,-115.2995"/>
<polygon fill="#000000" stroke="#000000" points="1067.4325,-118.6338 1077.9981,-119.4212 1070.2297,-112.2169 1067.4325,-118.6338"/>
</g>
<!-- GO:0034641&#45;&gt;GO:0006807 -->
<g id="edge16" class="edge">
<title>GO:0034641&#45;&gt;GO:0006807</title>
<path fill="none" stroke="#000000" d="M774.4847,-186.4952C759.7983,-196.3629 744.0299,-206.9577 729.5686,-216.6741"/>
<polygon fill="#000000" stroke="#000000" points="727.5716,-213.7992 721.2232,-222.2814 731.4756,-219.6095 727.5716,-213.7992"/>
</g>
<!-- GO:0044237 -->
<g id="node15" class="node">
<title>GO:0044237</title>
<polygon fill="#00ffff" stroke="#000000" points="937.7703,-281.0014 821.4046,-281.0014 821.4046,-222.1986 937.7703,-222.1986 937.7703,-281.0014"/>
<text text-anchor="middle" x="879.5875" y="-264.2" font-family="Times,serif" font-size="14.00" fill="#000000">GO:0044237</text>
<text text-anchor="middle" x="879.5875" y="-247.4" font-family="Times,serif" font-size="14.00" fill="#000000">cellular metabolic</text>
<text text-anchor="middle" x="879.5875" y="-230.6" font-family="Times,serif" font-size="14.00" fill="#000000">process</text>
</g>
<!-- GO:0034641&#45;&gt;GO:0044237 -->
<g id="edge17" class="edge">
<title>GO:0034641&#45;&gt;GO:0044237</title>
<path fill="none" stroke="#000000" d="M848.555,-186.4952C852.6871,-195.164 857.0865,-204.394 861.2347,-213.0966"/>
<polygon fill="#000000" stroke="#000000" points="858.1504,-214.7604 865.6126,-222.2814 864.4693,-211.7484 858.1504,-214.7604"/>
</g>
<!-- GO:0006725&#45;&gt;GO:0044237 -->
<g id="edge18" class="edge">
<title>GO:0006725&#45;&gt;GO:0044237</title>
<path fill="none" stroke="#000000" d="M944.8189,-186.4952C935.4864,-195.8096 925.5049,-205.7717 916.2271,-215.0316"/>
<polygon fill="#000000" stroke="#000000" points="913.5686,-212.7399 908.9631,-222.2814 918.5136,-217.6944 913.5686,-212.7399"/>
</g>
<!-- GO:1901360&#45;&gt;GO:0071704 -->
<g id="edge19" class="edge">
<title>GO:1901360&#45;&gt;GO:0071704</title>
<path fill="none" stroke="#000000" d="M348.1487,-178.1873C355.0278,-181.0232 361.9309,-183.8063 368.5875,-186.4 413.3813,-203.8535 425.8094,-204.9061 470.5875,-222.4 470.6847,-222.438 470.782,-222.476 470.8794,-222.5141"/>
<polygon fill="#000000" stroke="#000000" points="469.4987,-225.7315 480.0838,-226.186 472.0925,-219.2298 469.4987,-225.7315"/>
</g>
<!-- GO:0046483&#45;&gt;GO:0044237 -->
<g id="edge20" class="edge">
<title>GO:0046483&#45;&gt;GO:0044237</title>
<path fill="none" stroke="#000000" d="M1078.0013,-178.1869C1071.5022,-181.0839 1064.9412,-183.8798 1058.5875,-186.4 1012.738,-204.586 997.2533,-204.0624 947.2969,-222.2798"/>
<polygon fill="#000000" stroke="#000000" points="946.0634,-219.0043 937.9117,-225.772 948.5046,-225.5648 946.0634,-219.0043"/>
</g>
<!-- GO:0044237&#45;&gt;GO:0008152 -->
<g id="edge22" class="edge">
<title>GO:0044237&#45;&gt;GO:0008152</title>
<path fill="none" stroke="#000000" d="M821.1691,-265.0136C757.5878,-279.6934 658.978,-302.7149 606.7813,-316.5724"/>
<polygon fill="#000000" stroke="#000000" points="605.7274,-313.2315 596.9849,-319.2165 607.5515,-319.9897 605.7274,-313.2315"/>
</g>
<!-- GO:0009987 -->
<g id="node16" class="node">
<title>GO:0009987</title>
<polygon fill="#ffff00" stroke="#000000" points="994.5437,-358.2019 890.6313,-358.2019 890.6313,-316.9981 994.5437,-316.9981 994.5437,-358.2019"/>
<text text-anchor="middle" x="942.5875" y="-341.8" font-family="Times,serif" font-size="14.00" fill="#000000">GO:0009987</text>
<text text-anchor="middle" x="942.5875" y="-325" font-family="Times,serif" font-size="14.00" fill="#000000">cellular process</text>
</g>
<!-- GO:0044237&#45;&gt;GO:0009987 -->
<g id="edge21" class="edge">
<title>GO:0044237&#45;&gt;GO:0009987</title>
<path fill="none" stroke="#000000" d="M901.2685,-281.1963C907.7959,-290.1068 914.9484,-299.8705 921.4407,-308.7329"/>
<polygon fill="#000000" stroke="#000000" points="918.6879,-310.8979 927.421,-316.8966 924.3348,-306.7611 918.6879,-310.8979"/>
</g>
<!-- GO:0009987&#45;&gt;GO:0008150 -->
<g id="edge24" class="edge">
<title>GO:0009987&#45;&gt;GO:0008150</title>
<path fill="none" stroke="#000000" d="M893.5468,-358.3954C870.2739,-368.2641 842.2921,-380.1296 817.9347,-390.4582"/>
<polygon fill="#000000" stroke="#000000" points="816.286,-387.3556 808.4459,-394.4819 819.0188,-393.8001 816.286,-387.3556"/>
</g>
<!-- GO:1901135 -->
<g id="node17" class="node">
<title>GO:1901135</title>
<polygon fill="#ff00ff" stroke="#000000" points="525.6346,-178.2014 377.5404,-178.2014 377.5404,-119.3986 525.6346,-119.3986 525.6346,-178.2014"/>
<text text-anchor="middle" x="451.5875" y="-161.4" font-family="Times,serif" font-size="14.00" fill="#000000">GO:1901135</text>
<text text-anchor="middle" x="451.5875" y="-144.6" font-family="Times,serif" font-size="14.00" fill="#000000">carbohydrate derivative</text>
<text text-anchor="middle" x="451.5875" y="-127.8" font-family="Times,serif" font-size="14.00" fill="#000000">metabolic process</text>
</g>
<!-- GO:1901135&#45;&gt;GO:0071704 -->
<g id="edge23" class="edge">
<title>GO:1901135&#45;&gt;GO:0071704</title>
<path fill="none" stroke="#000000" d="M476.5182,-178.2584C486.0741,-189.5497 497.1018,-202.5801 507.1868,-214.4967"/>
<polygon fill="#000000" stroke="#000000" points="504.5213,-216.7651 513.6531,-222.1373 509.8647,-212.243 504.5213,-216.7651"/>
</g>
<!-- GO:0006796 -->
<g id="node18" class="node">
<title>GO:0006796</title>
<polygon fill="#ff00ff" stroke="#000000" points="1362.6143,-75.3003 1226.5606,-75.3003 1226.5606,.1003 1362.6143,.1003 1362.6143,-75.3003"/>
<text text-anchor="middle" x="1294.5875" y="-58.6" font-family="Times,serif" font-size="14.00" fill="#000000">GO:0006796</text>
<text text-anchor="middle" x="1294.5875" y="-41.8" font-family="Times,serif" font-size="14.00" fill="#000000">phosphate&#45;containing</text>
<text text-anchor="middle" x="1294.5875" y="-25" font-family="Times,serif" font-size="14.00" fill="#000000">compound metabolic</text>
<text text-anchor="middle" x="1294.5875" y="-8.2" font-family="Times,serif" font-size="14.00" fill="#000000">process</text>
</g>
<!-- GO:0006793 -->
<g id="node19" class="node">
<title>GO:0006793</title>
<polygon fill="#ffffff" stroke="#000000" points="1364.3437,-178.2014 1224.8312,-178.2014 1224.8312,-119.3986 1364.3437,-119.3986 1364.3437,-178.2014"/>
<text text-anchor="middle" x="1294.5875" y="-161.4" font-family="Times,serif" font-size="14.00" fill="#000000">GO:0006793</text>
<text text-anchor="middle" x="1294.5875" y="-144.6" font-family="Times,serif" font-size="14.00" fill="#000000">phosphorus metabolic</text>
<text text-anchor="middle" x="1294.5875" y="-127.8" font-family="Times,serif" font-size="14.00" fill="#000000">process</text>
</g>
<!-- GO:0006796&#45;&gt;GO:0006793 -->
<g id="edge25" class="edge">
<title>GO:0006796&#45;&gt;GO:0006793</title>
<path fill="none" stroke="#000000" d="M1294.5875,-75.2472C1294.5875,-86.1338 1294.5875,-98.049 1294.5875,-109.0589"/>
<polygon fill="#000000" stroke="#000000" points="1291.0876,-109.2741 1294.5875,-119.2742 1298.0876,-109.2742 1291.0876,-109.2741"/>
</g>
<!-- GO:0006793&#45;&gt;GO:0044237 -->
<g id="edge26" class="edge">
<title>GO:0006793&#45;&gt;GO:0044237</title>
<path fill="none" stroke="#000000" d="M1239.2011,-178.1054C1231.7409,-181.2757 1224.0762,-184.1582 1216.5875,-186.4 1103.6687,-220.2033 1065.2331,-191.5022 947.7938,-222.3703"/>
<polygon fill="#000000" stroke="#000000" points="946.8077,-219.0113 938.0758,-225.0117 948.6437,-225.7663 946.8077,-219.0113"/>
</g>
<!-- GO:0044763 -->
<g id="node20" class="node">
<title>GO:0044763</title>
<polygon fill="#ff00ff" stroke="#000000" points="1107.266,-281.0014 955.9089,-281.0014 955.9089,-222.1986 1107.266,-222.1986 1107.266,-281.0014"/>
<text text-anchor="middle" x="1031.5875" y="-264.2" font-family="Times,serif" font-size="14.00" fill="#000000">GO:0044763</text>
<text text-anchor="middle" x="1031.5875" y="-247.4" font-family="Times,serif" font-size="14.00" fill="#000000">single&#45;organism cellular</text>
<text text-anchor="middle" x="1031.5875" y="-230.6" font-family="Times,serif" font-size="14.00" fill="#000000">process</text>
</g>
<!-- GO:0044763&#45;&gt;GO:0044699 -->
<g id="edge28" class="edge">
<title>GO:0044763&#45;&gt;GO:0044699</title>
<path fill="none" stroke="#000000" d="M955.7339,-278.1816C952.6537,-279.0948 949.5962,-279.9718 946.5875,-280.8 874.3757,-300.6773 852.5065,-299.5461 776.6072,-316.3921"/>
<polygon fill="#000000" stroke="#000000" points="775.5499,-313.0425 766.5639,-318.6553 777.0888,-319.8713 775.5499,-313.0425"/>
</g>
<!-- GO:0044763&#45;&gt;GO:0009987 -->
<g id="edge27" class="edge">
<title>GO:0044763&#45;&gt;GO:0009987</title>
<path fill="none" stroke="#000000" d="M1000.9587,-281.1963C991.3572,-290.4742 980.7983,-300.6772 971.3318,-309.8246"/>
<polygon fill="#000000" stroke="#000000" points="968.7723,-307.4308 964.0131,-316.8966 973.6365,-312.4646 968.7723,-307.4308"/>
</g>
<!-- GO:0019637 -->
<g id="node21" class="node">
<title>GO:0019637</title>
<polygon fill="#ff00ff" stroke="#000000" points="1149.9336,-67.0014 979.2413,-67.0014 979.2413,-8.1986 1149.9336,-8.1986 1149.9336,-67.0014"/>
<text text-anchor="middle" x="1064.5875" y="-50.2" font-family="Times,serif" font-size="14.00" fill="#000000">GO:0019637</text>
<text text-anchor="middle" x="1064.5875" y="-33.4" font-family="Times,serif" font-size="14.00" fill="#000000">organophosphate metabolic</text>
<text text-anchor="middle" x="1064.5875" y="-16.6" font-family="Times,serif" font-size="14.00" fill="#000000">process</text>
</g>
<!-- GO:0019637&#45;&gt;GO:0071704 -->
<g id="edge29" class="edge">
<title>GO:0019637&#45;&gt;GO:0071704</title>
<path fill="none" stroke="#000000" d="M979.0813,-60.6228C956.8991,-66.0037 932.9546,-71.2963 910.5875,-75.2 836.1763,-88.187 629.3929,-61.4122 572.5875,-111.2 544.3739,-135.9281 537.5235,-179.6965 536.7032,-211.8099"/>
<polygon fill="#000000" stroke="#000000" points="533.2007,-212.1864 536.634,-222.2094 540.2005,-212.233 533.2007,-212.1864"/>
</g>
<!-- GO:0019637&#45;&gt;GO:0006793 -->
<g id="edge30" class="edge">
<title>GO:0019637&#45;&gt;GO:0006793</title>
<path fill="none" stroke="#000000" d="M1125.0173,-66.8165C1155.6652,-81.6341 1193.0447,-99.7063 1224.9016,-115.1084"/>
<polygon fill="#000000" stroke="#000000" points="1223.6359,-118.384 1234.1624,-119.5858 1226.6829,-112.0819 1223.6359,-118.384"/>
</g>
<!-- GO:0044281 -->
<g id="node22" class="node">
<title>GO:0044281</title>
<polygon fill="#ff00ff" stroke="#000000" points="183.4403,-178.2014 23.7346,-178.2014 23.7346,-119.3986 183.4403,-119.3986 183.4403,-178.2014"/>
<text text-anchor="middle" x="103.5875" y="-161.4" font-family="Times,serif" font-size="14.00" fill="#000000">GO:0044281</text>
<text text-anchor="middle" x="103.5875" y="-144.6" font-family="Times,serif" font-size="14.00" fill="#000000">small molecule metabolic</text>
<text text-anchor="middle" x="103.5875" y="-127.8" font-family="Times,serif" font-size="14.00" fill="#000000">process</text>
</g>
<!-- GO:0044281&#45;&gt;GO:0044710 -->
<g id="edge31" class="edge">
<title>GO:0044281&#45;&gt;GO:0044710</title>
<path fill="none" stroke="#000000" d="M171.9192,-178.1905C178.876,-181.0257 185.8566,-183.8079 192.5875,-186.4 223.1315,-198.1628 256.818,-210.1934 287.0861,-220.6659"/>
<polygon fill="#000000" stroke="#000000" points="286.1902,-224.0592 296.785,-224.009 288.4714,-217.4413 286.1902,-224.0592"/>
</g>
</g>
</svg>
