<?xml version="1.0" encoding="UTF-8" standalone="no"?>
<!DOCTYPE svg PUBLIC "-//W3C//DTD SVG 1.1//EN"
 "http://www.w3.org/Graphics/SVG/1.1/DTD/svg11.dtd">
<!-- Generated by graphviz version 2.40.1 (20161225.0304)
 -->
<!-- Title: G Pages: 1 -->
<svg width="1008pt" height="977pt"
 viewBox="0.00 0.00 1007.80 976.80" xmlns="http://www.w3.org/2000/svg" xmlns:xlink="http://www.w3.org/1999/xlink">
<g id="graph0" class="graph" transform="scale(1 1) rotate(0) translate(4 972.8)">
<title>G</title>
<polygon fill="#ffffff" stroke="transparent" points="-4,4 -4,-972.8 1003.7967,-972.8 1003.7967,4 -4,4"/>
<!-- GO:0051121 -->
<g id="node1" class="node">
<title>GO:0051121</title>
<polygon fill="#ffffff" stroke="#000000" points="370.4323,-58.6014 243.2459,-58.6014 243.2459,.2014 370.4323,.2014 370.4323,-58.6014"/>
<text text-anchor="middle" x="306.8391" y="-41.8" font-family="Times,serif" font-size="14.00" fill="#000000">GO:0051121</text>
<text text-anchor="middle" x="306.8391" y="-25" font-family="Times,serif" font-size="14.00" fill="#000000">hepoxilin metabolic</text>
<text text-anchor="middle" x="306.8391" y="-8.2" font-family="Times,serif" font-size="14.00" fill="#000000">process</text>
</g>
<!-- GO:0001676 -->
<g id="node2" class="node">
<title>GO:0001676</title>
<polygon fill="#ffffff" stroke="#000000" points="372.6864,-153.0014 240.9918,-153.0014 240.9918,-94.1986 372.6864,-94.1986 372.6864,-153.0014"/>
<text text-anchor="middle" x="306.8391" y="-136.2" font-family="Times,serif" font-size="14.00" fill="#000000">GO:0001676</text>
<text text-anchor="middle" x="306.8391" y="-119.4" font-family="Times,serif" font-size="14.00" fill="#000000">long&#45;chain fatty acid</text>
<text text-anchor="middle" x="306.8391" y="-102.6" font-family="Times,serif" font-size="14.00" fill="#000000">metabolic process</text>
</g>
<!-- GO:0051121&#45;&gt;GO:0001676 -->
<g id="edge1" class="edge">
<title>GO:0051121&#45;&gt;GO:0001676</title>
<path fill="none" stroke="#000000" d="M306.8391,-58.5513C306.8391,-66.6318 306.8391,-75.5308 306.8391,-84.0838"/>
<polygon fill="#000000" stroke="#000000" points="303.3392,-84.2668 306.8391,-94.2669 310.3392,-84.2669 303.3392,-84.2668"/>
</g>
<!-- GO:0006631 -->
<g id="node3" class="node">
<title>GO:0006631</title>
<polygon fill="#ffffff" stroke="#000000" points="522.5216,-247.4014 395.1566,-247.4014 395.1566,-188.5986 522.5216,-188.5986 522.5216,-247.4014"/>
<text text-anchor="middle" x="458.8391" y="-230.6" font-family="Times,serif" font-size="14.00" fill="#000000">GO:0006631</text>
<text text-anchor="middle" x="458.8391" y="-213.8" font-family="Times,serif" font-size="14.00" fill="#000000">fatty acid metabolic</text>
<text text-anchor="middle" x="458.8391" y="-197" font-family="Times,serif" font-size="14.00" fill="#000000">process</text>
</g>
<!-- GO:0001676&#45;&gt;GO:0006631 -->
<g id="edge2" class="edge">
<title>GO:0001676&#45;&gt;GO:0006631</title>
<path fill="none" stroke="#000000" d="M354.0996,-152.9513C369.5412,-162.5413 386.8391,-173.2842 402.8591,-183.2335"/>
<polygon fill="#000000" stroke="#000000" points="401.2662,-186.3642 411.6078,-188.6669 404.9593,-180.4177 401.2662,-186.3642"/>
</g>
<!-- GO:0044255 -->
<g id="node4" class="node">
<title>GO:0044255</title>
<polygon fill="#ffffff" stroke="#000000" points="293.6934,-625.0014 147.9848,-625.0014 147.9848,-566.1986 293.6934,-566.1986 293.6934,-625.0014"/>
<text text-anchor="middle" x="220.8391" y="-608.2" font-family="Times,serif" font-size="14.00" fill="#000000">GO:0044255</text>
<text text-anchor="middle" x="220.8391" y="-591.4" font-family="Times,serif" font-size="14.00" fill="#000000">cellular lipid metabolic</text>
<text text-anchor="middle" x="220.8391" y="-574.6" font-family="Times,serif" font-size="14.00" fill="#000000">process</text>
</g>
<!-- GO:0006631&#45;&gt;GO:0044255 -->
<g id="edge3" class="edge">
<title>GO:0006631&#45;&gt;GO:0044255</title>
<path fill="none" stroke="#000000" d="M395.1513,-228.6636C337.6827,-239.6939 259.2655,-258.7344 239.8391,-283.2 176.8163,-362.5708 195.544,-492.1224 210.3515,-556.5968"/>
<polygon fill="#000000" stroke="#000000" points="206.9574,-557.4525 212.6813,-566.3681 213.7665,-555.829 206.9574,-557.4525"/>
</g>
<!-- GO:0032787 -->
<g id="node5" class="node">
<title>GO:0032787</title>
<polygon fill="#ffffff" stroke="#000000" points="528.6353,-341.8014 395.0429,-341.8014 395.0429,-282.9986 528.6353,-282.9986 528.6353,-341.8014"/>
<text text-anchor="middle" x="461.8391" y="-325" font-family="Times,serif" font-size="14.00" fill="#000000">GO:0032787</text>
<text text-anchor="middle" x="461.8391" y="-308.2" font-family="Times,serif" font-size="14.00" fill="#000000">monocarboxylic acid</text>
<text text-anchor="middle" x="461.8391" y="-291.4" font-family="Times,serif" font-size="14.00" fill="#000000">metabolic process</text>
</g>
<!-- GO:0006631&#45;&gt;GO:0032787 -->
<g id="edge4" class="edge">
<title>GO:0006631&#45;&gt;GO:0032787</title>
<path fill="none" stroke="#000000" d="M459.7719,-247.3513C460.0287,-255.4318 460.3115,-264.3308 460.5833,-272.8838"/>
<polygon fill="#000000" stroke="#000000" points="457.0909,-273.1831 460.9069,-283.0669 464.0874,-272.9607 457.0909,-273.1831"/>
</g>
<!-- GO:0044763 -->
<g id="node6" class="node">
<title>GO:0044763</title>
<polygon fill="#ffffff" stroke="#000000" points="151.5176,-719.4014 .1606,-719.4014 .1606,-660.5986 151.5176,-660.5986 151.5176,-719.4014"/>
<text text-anchor="middle" x="75.8391" y="-702.6" font-family="Times,serif" font-size="14.00" fill="#000000">GO:0044763</text>
<text text-anchor="middle" x="75.8391" y="-685.8" font-family="Times,serif" font-size="14.00" fill="#000000">single&#45;organism cellular</text>
<text text-anchor="middle" x="75.8391" y="-669" font-family="Times,serif" font-size="14.00" fill="#000000">process</text>
</g>
<!-- GO:0044255&#45;&gt;GO:0044763 -->
<g id="edge5" class="edge">
<title>GO:0044255&#45;&gt;GO:0044763</title>
<path fill="none" stroke="#000000" d="M175.755,-624.9513C161.1609,-634.4525 144.8287,-645.0854 129.6659,-654.9569"/>
<polygon fill="#000000" stroke="#000000" points="127.3662,-652.2777 120.8953,-660.6669 131.1854,-658.144 127.3662,-652.2777"/>
</g>
<!-- GO:0006629 -->
<g id="node7" class="node">
<title>GO:0006629</title>
<polygon fill="#ffffff" stroke="#000000" points="627.6962,-710.6019 481.982,-710.6019 481.982,-669.3981 627.6962,-669.3981 627.6962,-710.6019"/>
<text text-anchor="middle" x="554.8391" y="-694.2" font-family="Times,serif" font-size="14.00" fill="#000000">GO:0006629</text>
<text text-anchor="middle" x="554.8391" y="-677.4" font-family="Times,serif" font-size="14.00" fill="#000000">lipid metabolic process</text>
</g>
<!-- GO:0044255&#45;&gt;GO:0006629 -->
<g id="edge6" class="edge">
<title>GO:0044255&#45;&gt;GO:0006629</title>
<path fill="none" stroke="#000000" d="M294.0005,-622.1978C296.9761,-623.1065 299.9306,-623.9782 302.8391,-624.8 377.1601,-645.8008 398.5181,-639.7992 472.8391,-660.8 478.522,-662.4058 484.3806,-664.2018 490.229,-666.0924"/>
<polygon fill="#000000" stroke="#000000" points="489.4352,-669.5167 500.0287,-669.3468 491.6414,-662.8735 489.4352,-669.5167"/>
</g>
<!-- GO:0044237 -->
<g id="node8" class="node">
<title>GO:0044237</title>
<polygon fill="#ffffff" stroke="#000000" points="286.0219,-719.4014 169.6563,-719.4014 169.6563,-660.5986 286.0219,-660.5986 286.0219,-719.4014"/>
<text text-anchor="middle" x="227.8391" y="-702.6" font-family="Times,serif" font-size="14.00" fill="#000000">GO:0044237</text>
<text text-anchor="middle" x="227.8391" y="-685.8" font-family="Times,serif" font-size="14.00" fill="#000000">cellular metabolic</text>
<text text-anchor="middle" x="227.8391" y="-669" font-family="Times,serif" font-size="14.00" fill="#000000">process</text>
</g>
<!-- GO:0044255&#45;&gt;GO:0044237 -->
<g id="edge7" class="edge">
<title>GO:0044255&#45;&gt;GO:0044237</title>
<path fill="none" stroke="#000000" d="M223.0156,-624.9513C223.6148,-633.0318 224.2746,-641.9308 224.9089,-650.4838"/>
<polygon fill="#000000" stroke="#000000" points="221.434,-650.9531 225.664,-660.6669 228.4148,-650.4354 221.434,-650.9531"/>
</g>
<!-- GO:0019752 -->
<g id="node9" class="node">
<title>GO:0019752</title>
<polygon fill="#ffffff" stroke="#000000" points="521.9512,-436.2014 361.727,-436.2014 361.727,-377.3986 521.9512,-377.3986 521.9512,-436.2014"/>
<text text-anchor="middle" x="441.8391" y="-419.4" font-family="Times,serif" font-size="14.00" fill="#000000">GO:0019752</text>
<text text-anchor="middle" x="441.8391" y="-402.6" font-family="Times,serif" font-size="14.00" fill="#000000">carboxylic acid metabolic</text>
<text text-anchor="middle" x="441.8391" y="-385.8" font-family="Times,serif" font-size="14.00" fill="#000000">process</text>
</g>
<!-- GO:0032787&#45;&gt;GO:0019752 -->
<g id="edge8" class="edge">
<title>GO:0032787&#45;&gt;GO:0019752</title>
<path fill="none" stroke="#000000" d="M455.6206,-341.7513C453.8898,-349.9206 451.9818,-358.9264 450.1515,-367.5657"/>
<polygon fill="#000000" stroke="#000000" points="446.7025,-366.9586 448.0537,-377.4669 453.5505,-368.4095 446.7025,-366.9586"/>
</g>
<!-- GO:0009987 -->
<g id="node10" class="node">
<title>GO:0009987</title>
<polygon fill="#ffffff" stroke="#000000" points="226.7953,-805.0019 122.8829,-805.0019 122.8829,-763.7981 226.7953,-763.7981 226.7953,-805.0019"/>
<text text-anchor="middle" x="174.8391" y="-788.6" font-family="Times,serif" font-size="14.00" fill="#000000">GO:0009987</text>
<text text-anchor="middle" x="174.8391" y="-771.8" font-family="Times,serif" font-size="14.00" fill="#000000">cellular process</text>
</g>
<!-- GO:0044763&#45;&gt;GO:0009987 -->
<g id="edge9" class="edge">
<title>GO:0044763&#45;&gt;GO:0009987</title>
<path fill="none" stroke="#000000" d="M106.6206,-719.3513C119.124,-731.2737 133.4961,-744.978 145.8144,-756.724"/>
<polygon fill="#000000" stroke="#000000" points="143.5313,-759.3831 153.1839,-763.751 148.362,-754.317 143.5313,-759.3831"/>
</g>
<!-- GO:0044699 -->
<g id="node11" class="node">
<title>GO:0044699</title>
<polygon fill="#ffffff" stroke="#000000" points="301.5204,-891.0019 150.1578,-891.0019 150.1578,-849.7981 301.5204,-849.7981 301.5204,-891.0019"/>
<text text-anchor="middle" x="225.8391" y="-874.6" font-family="Times,serif" font-size="14.00" fill="#000000">GO:0044699</text>
<text text-anchor="middle" x="225.8391" y="-857.8" font-family="Times,serif" font-size="14.00" fill="#000000">single&#45;organism process</text>
</g>
<!-- GO:0044763&#45;&gt;GO:0044699 -->
<g id="edge10" class="edge">
<title>GO:0044763&#45;&gt;GO:0044699</title>
<path fill="none" stroke="#000000" d="M78.3424,-719.3213C82.0464,-746.517 91.2092,-786.7252 113.8391,-813.6 124.8738,-826.7045 139.6865,-837.1157 154.9184,-845.2524"/>
<polygon fill="#000000" stroke="#000000" points="153.4044,-848.4087 163.9097,-849.7835 156.5546,-842.1576 153.4044,-848.4087"/>
</g>
<!-- GO:0071704 -->
<g id="node12" class="node">
<title>GO:0071704</title>
<polygon fill="#ffffff" stroke="#000000" points="765.0247,-813.8014 648.6535,-813.8014 648.6535,-754.9986 765.0247,-754.9986 765.0247,-813.8014"/>
<text text-anchor="middle" x="706.8391" y="-797" font-family="Times,serif" font-size="14.00" fill="#000000">GO:0071704</text>
<text text-anchor="middle" x="706.8391" y="-780.2" font-family="Times,serif" font-size="14.00" fill="#000000">organic substance</text>
<text text-anchor="middle" x="706.8391" y="-763.4" font-family="Times,serif" font-size="14.00" fill="#000000">metabolic process</text>
</g>
<!-- GO:0006629&#45;&gt;GO:0071704 -->
<g id="edge11" class="edge">
<title>GO:0006629&#45;&gt;GO:0071704</title>
<path fill="none" stroke="#000000" d="M588.1961,-710.7165C606.63,-722.1649 630.0125,-736.6866 651.1373,-749.8062"/>
<polygon fill="#000000" stroke="#000000" points="649.3798,-752.8348 659.7214,-755.1374 653.0729,-746.8883 649.3798,-752.8348"/>
</g>
<!-- GO:0044710 -->
<g id="node13" class="node">
<title>GO:0044710</title>
<polygon fill="#ffffff" stroke="#000000" points="447.2473,-813.8014 282.4309,-813.8014 282.4309,-754.9986 447.2473,-754.9986 447.2473,-813.8014"/>
<text text-anchor="middle" x="364.8391" y="-797" font-family="Times,serif" font-size="14.00" fill="#000000">GO:0044710</text>
<text text-anchor="middle" x="364.8391" y="-780.2" font-family="Times,serif" font-size="14.00" fill="#000000">single&#45;organism metabolic</text>
<text text-anchor="middle" x="364.8391" y="-763.4" font-family="Times,serif" font-size="14.00" fill="#000000">process</text>
</g>
<!-- GO:0006629&#45;&gt;GO:0044710 -->
<g id="edge12" class="edge">
<title>GO:0006629&#45;&gt;GO:0044710</title>
<path fill="none" stroke="#000000" d="M513.1428,-710.7165C489.5885,-722.4193 459.5703,-737.3336 432.7103,-750.6787"/>
<polygon fill="#000000" stroke="#000000" points="431.1344,-747.5534 423.7362,-755.1374 434.2491,-753.8223 431.1344,-747.5534"/>
</g>
<!-- GO:0044238 -->
<g id="node14" class="node">
<title>GO:0044238</title>
<polygon fill="#ffffff" stroke="#000000" points="629.8421,-805.0019 465.8361,-805.0019 465.8361,-763.7981 629.8421,-763.7981 629.8421,-805.0019"/>
<text text-anchor="middle" x="547.8391" y="-788.6" font-family="Times,serif" font-size="14.00" fill="#000000">GO:0044238</text>
<text text-anchor="middle" x="547.8391" y="-771.8" font-family="Times,serif" font-size="14.00" fill="#000000">primary metabolic process</text>
</g>
<!-- GO:0006629&#45;&gt;GO:0044238 -->
<g id="edge13" class="edge">
<title>GO:0006629&#45;&gt;GO:0044238</title>
<path fill="none" stroke="#000000" d="M553.2856,-710.9504C552.3612,-723.4165 551.1712,-739.4645 550.1394,-753.3786"/>
<polygon fill="#000000" stroke="#000000" points="546.6375,-753.2767 549.3883,-763.5081 553.6183,-753.7944 546.6375,-753.2767"/>
</g>
<!-- GO:0044237&#45;&gt;GO:0009987 -->
<g id="edge14" class="edge">
<title>GO:0044237&#45;&gt;GO:0009987</title>
<path fill="none" stroke="#000000" d="M211.3601,-719.3513C205.0452,-730.5989 197.8401,-743.4323 191.5076,-754.7112"/>
<polygon fill="#000000" stroke="#000000" points="188.276,-753.3178 186.4323,-763.751 194.3798,-756.7447 188.276,-753.3178"/>
</g>
<!-- GO:0008152 -->
<g id="node15" class="node">
<title>GO:0008152</title>
<polygon fill="#ffffff" stroke="#000000" points="514.0247,-891.0019 397.6535,-891.0019 397.6535,-849.7981 514.0247,-849.7981 514.0247,-891.0019"/>
<text text-anchor="middle" x="455.8391" y="-874.6" font-family="Times,serif" font-size="14.00" fill="#000000">GO:0008152</text>
<text text-anchor="middle" x="455.8391" y="-857.8" font-family="Times,serif" font-size="14.00" fill="#000000">metabolic process</text>
</g>
<!-- GO:0044237&#45;&gt;GO:0008152 -->
<g id="edge15" class="edge">
<title>GO:0044237&#45;&gt;GO:0008152</title>
<path fill="none" stroke="#000000" d="M231.311,-719.2668C236.1406,-747.2057 247.4972,-788.6379 273.8391,-813.6 290.5917,-829.4751 343.0995,-844.9095 387.4368,-855.6725"/>
<polygon fill="#000000" stroke="#000000" points="386.7983,-859.1183 397.3373,-858.0326 388.4215,-852.3091 386.7983,-859.1183"/>
</g>
<!-- GO:0043436 -->
<g id="node16" class="node">
<title>GO:0043436</title>
<polygon fill="#ffffff" stroke="#000000" points="484.8448,-521.8019 320.8334,-521.8019 320.8334,-480.5981 484.8448,-480.5981 484.8448,-521.8019"/>
<text text-anchor="middle" x="402.8391" y="-505.4" font-family="Times,serif" font-size="14.00" fill="#000000">GO:0043436</text>
<text text-anchor="middle" x="402.8391" y="-488.6" font-family="Times,serif" font-size="14.00" fill="#000000">oxoacid metabolic process</text>
</g>
<!-- GO:0019752&#45;&gt;GO:0043436 -->
<g id="edge16" class="edge">
<title>GO:0019752&#45;&gt;GO:0043436</title>
<path fill="none" stroke="#000000" d="M429.713,-436.1513C425.1127,-447.2864 419.8703,-459.9758 415.2446,-471.1724"/>
<polygon fill="#000000" stroke="#000000" points="411.9535,-469.9722 411.3699,-480.551 418.4231,-472.6451 411.9535,-469.9722"/>
</g>
<!-- GO:0008150 -->
<g id="node17" class="node">
<title>GO:0008150</title>
<polygon fill="#ffffff" stroke="#000000" points="390.3097,-968.6019 269.3685,-968.6019 269.3685,-927.3981 390.3097,-927.3981 390.3097,-968.6019"/>
<text text-anchor="middle" x="329.8391" y="-952.2" font-family="Times,serif" font-size="14.00" fill="#000000">GO:0008150</text>
<text text-anchor="middle" x="329.8391" y="-935.4" font-family="Times,serif" font-size="14.00" fill="#000000">biological_process</text>
</g>
<!-- GO:0009987&#45;&gt;GO:0008150 -->
<g id="edge17" class="edge">
<title>GO:0009987&#45;&gt;GO:0008150</title>
<path fill="none" stroke="#000000" d="M220.5666,-805.1328C258.8539,-822.6776 307.7497,-845.5966 310.8391,-849.6 325.6613,-868.8071 329.9735,-896.2846 330.8276,-917.3242"/>
<polygon fill="#000000" stroke="#000000" points="327.3287,-917.427 330.9983,-927.366 334.3277,-917.3079 327.3287,-917.427"/>
</g>
<!-- GO:0044699&#45;&gt;GO:0008150 -->
<g id="edge18" class="edge">
<title>GO:0044699&#45;&gt;GO:0008150</title>
<path fill="none" stroke="#000000" d="M253.7092,-891.1954C265.9496,-900.3286 280.4821,-911.1721 293.5527,-920.9248"/>
<polygon fill="#000000" stroke="#000000" points="291.7842,-923.9721 301.8921,-927.1472 295.9704,-918.3618 291.7842,-923.9721"/>
</g>
<!-- GO:0071704&#45;&gt;GO:0008152 -->
<g id="edge19" class="edge">
<title>GO:0071704&#45;&gt;GO:0008152</title>
<path fill="none" stroke="#000000" d="M648.3905,-809.9589C645.1722,-811.2221 641.9733,-812.4443 638.8391,-813.6 601.3413,-827.4272 558.7346,-840.786 524.0728,-851.0706"/>
<polygon fill="#000000" stroke="#000000" points="522.6555,-847.8395 514.053,-854.0239 524.6345,-854.5539 522.6555,-847.8395"/>
</g>
<!-- GO:0044710&#45;&gt;GO:0044699 -->
<g id="edge21" class="edge">
<title>GO:0044710&#45;&gt;GO:0044699</title>
<path fill="none" stroke="#000000" d="M317.392,-813.7558C301.4819,-823.5994 283.8518,-834.5073 268.3446,-844.1017"/>
<polygon fill="#000000" stroke="#000000" points="266.151,-841.3431 259.4885,-849.5809 269.834,-847.2958 266.151,-841.3431"/>
</g>
<!-- GO:0044710&#45;&gt;GO:0008152 -->
<g id="edge20" class="edge">
<title>GO:0044710&#45;&gt;GO:0008152</title>
<path fill="none" stroke="#000000" d="M395.9016,-813.7558C405.7335,-823.0474 416.5687,-833.2873 426.2913,-842.4757"/>
<polygon fill="#000000" stroke="#000000" points="424.1377,-845.2561 433.8096,-849.5809 428.9457,-840.1686 424.1377,-845.2561"/>
</g>
<!-- GO:0044238&#45;&gt;GO:0008152 -->
<g id="edge22" class="edge">
<title>GO:0044238&#45;&gt;GO:0008152</title>
<path fill="none" stroke="#000000" d="M525.5685,-805.2182C513.4769,-816.5212 498.373,-830.6401 485.317,-842.8446"/>
<polygon fill="#000000" stroke="#000000" points="482.8198,-840.3878 477.9046,-849.7735 487.6,-845.5015 482.8198,-840.3878"/>
</g>
<!-- GO:0008152&#45;&gt;GO:0008150 -->
<g id="edge23" class="edge">
<title>GO:0008152&#45;&gt;GO:0008150</title>
<path fill="none" stroke="#000000" d="M422.0734,-891.1954C406.8199,-900.5896 388.6286,-911.7931 372.4486,-921.758"/>
<polygon fill="#000000" stroke="#000000" points="370.3773,-918.923 363.698,-927.1472 374.0481,-924.8833 370.3773,-918.923"/>
</g>
<!-- GO:0006082 -->
<g id="node18" class="node">
<title>GO:0006082</title>
<polygon fill="#ffffff" stroke="#000000" points="455.3463,-625.0014 312.3319,-625.0014 312.3319,-566.1986 455.3463,-566.1986 455.3463,-625.0014"/>
<text text-anchor="middle" x="383.8391" y="-608.2" font-family="Times,serif" font-size="14.00" fill="#000000">GO:0006082</text>
<text text-anchor="middle" x="383.8391" y="-591.4" font-family="Times,serif" font-size="14.00" fill="#000000">organic acid metabolic</text>
<text text-anchor="middle" x="383.8391" y="-574.6" font-family="Times,serif" font-size="14.00" fill="#000000">process</text>
</g>
<!-- GO:0043436&#45;&gt;GO:0006082 -->
<g id="edge24" class="edge">
<title>GO:0043436&#45;&gt;GO:0006082</title>
<path fill="none" stroke="#000000" d="M398.6224,-522.1504C396.6099,-532.1492 394.1336,-544.4525 391.7872,-556.1106"/>
<polygon fill="#000000" stroke="#000000" points="388.3155,-555.6215 389.7735,-566.1155 395.1779,-557.0027 388.3155,-555.6215"/>
</g>
<!-- GO:0006082&#45;&gt;GO:0044763 -->
<g id="edge26" class="edge">
<title>GO:0006082&#45;&gt;GO:0044763</title>
<path fill="none" stroke="#000000" d="M311.9729,-621.9193C308.8949,-622.9161 305.8407,-623.8809 302.8391,-624.8 243.5028,-642.9692 224.9608,-642.3173 161.4462,-660.7208"/>
<polygon fill="#000000" stroke="#000000" points="160.3431,-657.397 151.7387,-663.5789 162.3201,-664.112 160.3431,-657.397"/>
</g>
<!-- GO:0006082&#45;&gt;GO:0044237 -->
<g id="edge28" class="edge">
<title>GO:0006082&#45;&gt;GO:0044237</title>
<path fill="none" stroke="#000000" d="M335.3349,-624.9513C319.4869,-634.5413 301.7338,-645.2842 285.2922,-655.2335"/>
<polygon fill="#000000" stroke="#000000" points="283.0568,-652.4952 276.3133,-660.6669 286.6809,-658.4841 283.0568,-652.4952"/>
</g>
<!-- GO:0006082&#45;&gt;GO:0071704 -->
<g id="edge25" class="edge">
<title>GO:0006082&#45;&gt;GO:0071704</title>
<path fill="none" stroke="#000000" d="M455.6583,-622.079C458.7491,-623.0321 461.8189,-623.9441 464.8391,-624.8 539.9808,-646.0951 573.7955,-614.6995 636.8391,-660.8 660.9042,-678.3975 655.1487,-693.2579 669.8391,-719.2 674.8414,-728.0337 680.2304,-737.5372 685.3059,-746.4823"/>
<polygon fill="#000000" stroke="#000000" points="682.2712,-748.2262 690.251,-755.1957 688.3591,-744.7711 682.2712,-748.2262"/>
</g>
<!-- GO:0044281 -->
<g id="node19" class="node">
<title>GO:0044281</title>
<polygon fill="#ffffff" stroke="#000000" points="463.692,-719.4014 303.9862,-719.4014 303.9862,-660.5986 463.692,-660.5986 463.692,-719.4014"/>
<text text-anchor="middle" x="383.8391" y="-702.6" font-family="Times,serif" font-size="14.00" fill="#000000">GO:0044281</text>
<text text-anchor="middle" x="383.8391" y="-685.8" font-family="Times,serif" font-size="14.00" fill="#000000">small molecule metabolic</text>
<text text-anchor="middle" x="383.8391" y="-669" font-family="Times,serif" font-size="14.00" fill="#000000">process</text>
</g>
<!-- GO:0006082&#45;&gt;GO:0044281 -->
<g id="edge27" class="edge">
<title>GO:0006082&#45;&gt;GO:0044281</title>
<path fill="none" stroke="#000000" d="M383.8391,-624.9513C383.8391,-633.0318 383.8391,-641.9308 383.8391,-650.4838"/>
<polygon fill="#000000" stroke="#000000" points="380.3392,-650.6668 383.8391,-660.6669 387.3392,-650.6669 380.3392,-650.6668"/>
</g>
<!-- GO:0044281&#45;&gt;GO:0044710 -->
<g id="edge55" class="edge">
<title>GO:0044281&#45;&gt;GO:0044710</title>
<path fill="none" stroke="#000000" d="M377.9315,-719.3513C376.2873,-727.5206 374.4747,-736.5264 372.7358,-745.1657"/>
<polygon fill="#000000" stroke="#000000" points="369.285,-744.5728 370.743,-755.0669 376.1474,-745.9541 369.285,-744.5728"/>
</g>
<!-- GO:0042759 -->
<g id="node20" class="node">
<title>GO:0042759</title>
<polygon fill="#ffffff" stroke="#000000" points="600.6864,-58.6014 468.9918,-58.6014 468.9918,.2014 600.6864,.2014 600.6864,-58.6014"/>
<text text-anchor="middle" x="534.8391" y="-41.8" font-family="Times,serif" font-size="14.00" fill="#000000">GO:0042759</text>
<text text-anchor="middle" x="534.8391" y="-25" font-family="Times,serif" font-size="14.00" fill="#000000">long&#45;chain fatty acid</text>
<text text-anchor="middle" x="534.8391" y="-8.2" font-family="Times,serif" font-size="14.00" fill="#000000">biosynthetic process</text>
</g>
<!-- GO:0042759&#45;&gt;GO:0001676 -->
<g id="edge29" class="edge">
<title>GO:0042759&#45;&gt;GO:0001676</title>
<path fill="none" stroke="#000000" d="M468.8921,-56.5044C441.8333,-67.7077 410.3536,-80.7414 382.3752,-92.3254"/>
<polygon fill="#000000" stroke="#000000" points="380.933,-89.1343 373.0326,-96.1936 383.6109,-95.6019 380.933,-89.1343"/>
</g>
<!-- GO:0006633 -->
<g id="node21" class="node">
<title>GO:0006633</title>
<polygon fill="#ffffff" stroke="#000000" points="685.2521,-153.0014 544.4261,-153.0014 544.4261,-94.1986 685.2521,-94.1986 685.2521,-153.0014"/>
<text text-anchor="middle" x="614.8391" y="-136.2" font-family="Times,serif" font-size="14.00" fill="#000000">GO:0006633</text>
<text text-anchor="middle" x="614.8391" y="-119.4" font-family="Times,serif" font-size="14.00" fill="#000000">fatty acid biosynthetic</text>
<text text-anchor="middle" x="614.8391" y="-102.6" font-family="Times,serif" font-size="14.00" fill="#000000">process</text>
</g>
<!-- GO:0042759&#45;&gt;GO:0006633 -->
<g id="edge30" class="edge">
<title>GO:0042759&#45;&gt;GO:0006633</title>
<path fill="none" stroke="#000000" d="M559.7131,-58.5513C567.2382,-67.431 575.601,-77.299 583.4919,-86.6103"/>
<polygon fill="#000000" stroke="#000000" points="580.8451,-88.9007 589.9805,-94.2669 586.1854,-84.375 580.8451,-88.9007"/>
</g>
<!-- GO:0006633&#45;&gt;GO:0006631 -->
<g id="edge31" class="edge">
<title>GO:0006633&#45;&gt;GO:0006631</title>
<path fill="none" stroke="#000000" d="M566.3349,-152.9513C550.4869,-162.5413 532.7338,-173.2842 516.2922,-183.2335"/>
<polygon fill="#000000" stroke="#000000" points="514.0568,-180.4952 507.3133,-188.6669 517.6809,-186.4841 514.0568,-180.4952"/>
</g>
<!-- GO:0072330 -->
<g id="node22" class="node">
<title>GO:0072330</title>
<polygon fill="#ffffff" stroke="#000000" points="678.6353,-247.4014 545.0429,-247.4014 545.0429,-188.5986 678.6353,-188.5986 678.6353,-247.4014"/>
<text text-anchor="middle" x="611.8391" y="-230.6" font-family="Times,serif" font-size="14.00" fill="#000000">GO:0072330</text>
<text text-anchor="middle" x="611.8391" y="-213.8" font-family="Times,serif" font-size="14.00" fill="#000000">monocarboxylic acid</text>
<text text-anchor="middle" x="611.8391" y="-197" font-family="Times,serif" font-size="14.00" fill="#000000">biosynthetic process</text>
</g>
<!-- GO:0006633&#45;&gt;GO:0072330 -->
<g id="edge32" class="edge">
<title>GO:0006633&#45;&gt;GO:0072330</title>
<path fill="none" stroke="#000000" d="M613.9063,-152.9513C613.6495,-161.0318 613.3667,-169.9308 613.0949,-178.4838"/>
<polygon fill="#000000" stroke="#000000" points="609.5908,-178.5607 612.7713,-188.6669 616.5873,-178.7831 609.5908,-178.5607"/>
</g>
<!-- GO:0008610 -->
<g id="node23" class="node">
<title>GO:0008610</title>
<polygon fill="#ffffff" stroke="#000000" points="883.4478,-625.0014 770.2304,-625.0014 770.2304,-566.1986 883.4478,-566.1986 883.4478,-625.0014"/>
<text text-anchor="middle" x="826.8391" y="-608.2" font-family="Times,serif" font-size="14.00" fill="#000000">GO:0008610</text>
<text text-anchor="middle" x="826.8391" y="-591.4" font-family="Times,serif" font-size="14.00" fill="#000000">lipid biosynthetic</text>
<text text-anchor="middle" x="826.8391" y="-574.6" font-family="Times,serif" font-size="14.00" fill="#000000">process</text>
</g>
<!-- GO:0006633&#45;&gt;GO:0008610 -->
<g id="edge33" class="edge">
<title>GO:0006633&#45;&gt;GO:0008610</title>
<path fill="none" stroke="#000000" d="M662.3703,-153.036C708.5795,-185.7249 771.8391,-243.1261 771.8391,-312.4 771.8391,-312.4 771.8391,-312.4 771.8391,-406.8 771.8391,-460.3909 792.5182,-519.2462 808.5165,-556.7607"/>
<polygon fill="#000000" stroke="#000000" points="805.4668,-558.5229 812.6752,-566.2875 811.8822,-555.7224 805.4668,-558.5229"/>
</g>
<!-- GO:0072330&#45;&gt;GO:0032787 -->
<g id="edge35" class="edge">
<title>GO:0072330&#45;&gt;GO:0032787</title>
<path fill="none" stroke="#000000" d="M565.2004,-247.3513C549.962,-256.9413 532.8917,-267.6842 517.0825,-277.6335"/>
<polygon fill="#000000" stroke="#000000" points="515.0482,-274.7783 508.449,-283.0669 518.7767,-280.7027 515.0482,-274.7783"/>
</g>
<!-- GO:0046394 -->
<g id="node24" class="node">
<title>GO:0046394</title>
<polygon fill="#ffffff" stroke="#000000" points="676.7543,-341.8014 546.9239,-341.8014 546.9239,-282.9986 676.7543,-282.9986 676.7543,-341.8014"/>
<text text-anchor="middle" x="611.8391" y="-325" font-family="Times,serif" font-size="14.00" fill="#000000">GO:0046394</text>
<text text-anchor="middle" x="611.8391" y="-308.2" font-family="Times,serif" font-size="14.00" fill="#000000">carboxylic acid</text>
<text text-anchor="middle" x="611.8391" y="-291.4" font-family="Times,serif" font-size="14.00" fill="#000000">biosynthetic process</text>
</g>
<!-- GO:0072330&#45;&gt;GO:0046394 -->
<g id="edge34" class="edge">
<title>GO:0072330&#45;&gt;GO:0046394</title>
<path fill="none" stroke="#000000" d="M611.8391,-247.3513C611.8391,-255.4318 611.8391,-264.3308 611.8391,-272.8838"/>
<polygon fill="#000000" stroke="#000000" points="608.3392,-273.0668 611.8391,-283.0669 615.3392,-273.0669 608.3392,-273.0668"/>
</g>
<!-- GO:0008610&#45;&gt;GO:0006629 -->
<g id="edge38" class="edge">
<title>GO:0008610&#45;&gt;GO:0006629</title>
<path fill="none" stroke="#000000" d="M770.122,-621.1673C766.9952,-622.4283 763.8862,-623.6477 760.8391,-624.8 720.5776,-640.0251 675.0217,-654.7007 637.0065,-666.2607"/>
<polygon fill="#000000" stroke="#000000" points="635.5649,-663.0399 627.005,-669.2832 637.5899,-669.7406 635.5649,-663.0399"/>
</g>
<!-- GO:1901576 -->
<g id="node25" class="node">
<title>GO:1901576</title>
<polygon fill="#ffffff" stroke="#000000" points="999.7543,-719.4014 869.9239,-719.4014 869.9239,-660.5986 999.7543,-660.5986 999.7543,-719.4014"/>
<text text-anchor="middle" x="934.8391" y="-702.6" font-family="Times,serif" font-size="14.00" fill="#000000">GO:1901576</text>
<text text-anchor="middle" x="934.8391" y="-685.8" font-family="Times,serif" font-size="14.00" fill="#000000">organic substance</text>
<text text-anchor="middle" x="934.8391" y="-669" font-family="Times,serif" font-size="14.00" fill="#000000">biosynthetic process</text>
</g>
<!-- GO:0008610&#45;&gt;GO:1901576 -->
<g id="edge36" class="edge">
<title>GO:0008610&#45;&gt;GO:1901576</title>
<path fill="none" stroke="#000000" d="M860.419,-624.9513C870.8827,-634.0973 882.546,-644.292 893.4773,-653.8467"/>
<polygon fill="#000000" stroke="#000000" points="891.4474,-656.721 901.28,-660.6669 896.0542,-651.4505 891.4474,-656.721"/>
</g>
<!-- GO:0044711 -->
<g id="node26" class="node">
<title>GO:0044711</title>
<polygon fill="#ffffff" stroke="#000000" points="851.7543,-719.4014 721.9239,-719.4014 721.9239,-660.5986 851.7543,-660.5986 851.7543,-719.4014"/>
<text text-anchor="middle" x="786.8391" y="-702.6" font-family="Times,serif" font-size="14.00" fill="#000000">GO:0044711</text>
<text text-anchor="middle" x="786.8391" y="-685.8" font-family="Times,serif" font-size="14.00" fill="#000000">single&#45;organism</text>
<text text-anchor="middle" x="786.8391" y="-669" font-family="Times,serif" font-size="14.00" fill="#000000">biosynthetic process</text>
</g>
<!-- GO:0008610&#45;&gt;GO:0044711 -->
<g id="edge37" class="edge">
<title>GO:0008610&#45;&gt;GO:0044711</title>
<path fill="none" stroke="#000000" d="M814.4021,-624.9513C810.8653,-633.2982 806.9584,-642.5184 803.2253,-651.3286"/>
<polygon fill="#000000" stroke="#000000" points="799.9473,-650.0938 799.2684,-660.6669 806.3926,-652.8249 799.9473,-650.0938"/>
</g>
<!-- GO:0046394&#45;&gt;GO:0019752 -->
<g id="edge40" class="edge">
<title>GO:0046394&#45;&gt;GO:0019752</title>
<path fill="none" stroke="#000000" d="M558.9819,-341.7513C541.3919,-351.5189 521.6481,-362.4825 503.4544,-372.5854"/>
<polygon fill="#000000" stroke="#000000" points="501.707,-369.5522 494.6636,-377.4669 505.1053,-375.672 501.707,-369.5522"/>
</g>
<!-- GO:0016053 -->
<g id="node27" class="node">
<title>GO:0016053</title>
<polygon fill="#ffffff" stroke="#000000" points="690.0757,-530.6014 533.6025,-530.6014 533.6025,-471.7986 690.0757,-471.7986 690.0757,-530.6014"/>
<text text-anchor="middle" x="611.8391" y="-513.8" font-family="Times,serif" font-size="14.00" fill="#000000">GO:0016053</text>
<text text-anchor="middle" x="611.8391" y="-497" font-family="Times,serif" font-size="14.00" fill="#000000">organic acid biosynthetic</text>
<text text-anchor="middle" x="611.8391" y="-480.2" font-family="Times,serif" font-size="14.00" fill="#000000">process</text>
</g>
<!-- GO:0046394&#45;&gt;GO:0016053 -->
<g id="edge39" class="edge">
<title>GO:0046394&#45;&gt;GO:0016053</title>
<path fill="none" stroke="#000000" d="M611.8391,-341.9C611.8391,-374.1825 611.8391,-426.0912 611.8391,-461.8305"/>
<polygon fill="#000000" stroke="#000000" points="608.3392,-461.9071 611.8391,-471.9072 615.3392,-461.9072 608.3392,-461.9071"/>
</g>
<!-- GO:1901576&#45;&gt;GO:0071704 -->
<g id="edge41" class="edge">
<title>GO:1901576&#45;&gt;GO:0071704</title>
<path fill="none" stroke="#000000" d="M869.6602,-715.9443C842.5978,-726.8233 810.6957,-739.7844 774.5473,-754.9311"/>
<polygon fill="#000000" stroke="#000000" points="773.1305,-751.7299 765.2659,-758.8291 775.8411,-758.1838 773.1305,-751.7299"/>
</g>
<!-- GO:0009058 -->
<g id="node28" class="node">
<title>GO:0009058</title>
<polygon fill="#ffffff" stroke="#000000" points="912.7543,-805.0019 782.9239,-805.0019 782.9239,-763.7981 912.7543,-763.7981 912.7543,-805.0019"/>
<text text-anchor="middle" x="847.8391" y="-788.6" font-family="Times,serif" font-size="14.00" fill="#000000">GO:0009058</text>
<text text-anchor="middle" x="847.8391" y="-771.8" font-family="Times,serif" font-size="14.00" fill="#000000">biosynthetic process</text>
</g>
<!-- GO:1901576&#45;&gt;GO:0009058 -->
<g id="edge42" class="edge">
<title>GO:1901576&#45;&gt;GO:0009058</title>
<path fill="none" stroke="#000000" d="M907.7887,-719.3513C896.9045,-731.1612 884.409,-744.7196 873.6525,-756.391"/>
<polygon fill="#000000" stroke="#000000" points="871.0727,-754.0256 866.8694,-763.751 876.2202,-758.7695 871.0727,-754.0256"/>
</g>
<!-- GO:0044711&#45;&gt;GO:0044710 -->
<g id="edge43" class="edge">
<title>GO:0044711&#45;&gt;GO:0044710</title>
<path fill="none" stroke="#000000" d="M721.7583,-702.6638C638.151,-718.9581 499.5826,-746.0586 457.4289,-755.3691"/>
<polygon fill="#000000" stroke="#000000" points="456.4079,-752.0133 447.4644,-757.6935 457.9981,-758.8303 456.4079,-752.0133"/>
</g>
<!-- GO:0044711&#45;&gt;GO:0009058 -->
<g id="edge44" class="edge">
<title>GO:0044711&#45;&gt;GO:0009058</title>
<path fill="none" stroke="#000000" d="M805.8055,-719.3513C813.1462,-730.7113 821.5323,-743.6891 828.873,-755.0491"/>
<polygon fill="#000000" stroke="#000000" points="826.1289,-757.2515 834.496,-763.751 832.0083,-753.4523 826.1289,-757.2515"/>
</g>
<!-- GO:0016053&#45;&gt;GO:0006082 -->
<g id="edge47" class="edge">
<title>GO:0016053&#45;&gt;GO:0006082</title>
<path fill="none" stroke="#000000" d="M541.2599,-530.4223C516.7906,-540.5534 489.1834,-551.9838 463.9992,-562.4109"/>
<polygon fill="#000000" stroke="#000000" points="462.3778,-559.294 454.4773,-566.3533 465.0556,-565.7616 462.3778,-559.294"/>
</g>
<!-- GO:0016053&#45;&gt;GO:1901576 -->
<g id="edge45" class="edge">
<title>GO:0016053&#45;&gt;GO:1901576</title>
<path fill="none" stroke="#000000" d="M690.2666,-510.7789C762.7075,-521.1197 863.4129,-539.767 892.8391,-566.4 916.5295,-587.8416 926.8646,-623.155 931.3694,-650.5573"/>
<polygon fill="#000000" stroke="#000000" points="927.9303,-651.2309 932.8261,-660.6268 934.8582,-650.2286 927.9303,-651.2309"/>
</g>
<!-- GO:0044283 -->
<g id="node29" class="node">
<title>GO:0044283</title>
<polygon fill="#ffffff" stroke="#000000" points="751.7543,-625.0014 621.9239,-625.0014 621.9239,-566.1986 751.7543,-566.1986 751.7543,-625.0014"/>
<text text-anchor="middle" x="686.8391" y="-608.2" font-family="Times,serif" font-size="14.00" fill="#000000">GO:0044283</text>
<text text-anchor="middle" x="686.8391" y="-591.4" font-family="Times,serif" font-size="14.00" fill="#000000">small molecule</text>
<text text-anchor="middle" x="686.8391" y="-574.6" font-family="Times,serif" font-size="14.00" fill="#000000">biosynthetic process</text>
</g>
<!-- GO:0016053&#45;&gt;GO:0044283 -->
<g id="edge46" class="edge">
<title>GO:0016053&#45;&gt;GO:0044283</title>
<path fill="none" stroke="#000000" d="M635.1584,-530.5513C642.1427,-539.3422 649.8966,-549.1018 657.229,-558.3308"/>
<polygon fill="#000000" stroke="#000000" points="654.5731,-560.6144 663.5342,-566.2669 660.0539,-556.2599 654.5731,-560.6144"/>
</g>
<!-- GO:0044249 -->
<g id="node30" class="node">
<title>GO:0044249</title>
<polygon fill="#ffffff" stroke="#000000" points="603.7515,-625.0014 473.9267,-625.0014 473.9267,-566.1986 603.7515,-566.1986 603.7515,-625.0014"/>
<text text-anchor="middle" x="538.8391" y="-608.2" font-family="Times,serif" font-size="14.00" fill="#000000">GO:0044249</text>
<text text-anchor="middle" x="538.8391" y="-591.4" font-family="Times,serif" font-size="14.00" fill="#000000">cellular biosynthetic</text>
<text text-anchor="middle" x="538.8391" y="-574.6" font-family="Times,serif" font-size="14.00" fill="#000000">process</text>
</g>
<!-- GO:0016053&#45;&gt;GO:0044249 -->
<g id="edge48" class="edge">
<title>GO:0016053&#45;&gt;GO:0044249</title>
<path fill="none" stroke="#000000" d="M589.1416,-530.5513C582.3436,-539.3422 574.7964,-549.1018 567.6596,-558.3308"/>
<polygon fill="#000000" stroke="#000000" points="564.8712,-556.2151 561.5226,-566.2669 570.4087,-560.4973 564.8712,-556.2151"/>
</g>
<!-- GO:0009058&#45;&gt;GO:0008152 -->
<g id="edge49" class="edge">
<title>GO:0009058&#45;&gt;GO:0008152</title>
<path fill="none" stroke="#000000" d="M799.3518,-805.1179C790.9427,-808.2526 782.2102,-811.2264 773.8391,-813.6 689.3341,-837.5612 589.202,-853.4637 524.1944,-862.1994"/>
<polygon fill="#000000" stroke="#000000" points="523.5244,-858.7575 514.0705,-863.5401 524.4434,-865.6969 523.5244,-858.7575"/>
</g>
<!-- GO:0044283&#45;&gt;GO:0044281 -->
<g id="edge51" class="edge">
<title>GO:0044283&#45;&gt;GO:0044281</title>
<path fill="none" stroke="#000000" d="M621.6289,-621.8395C618.6691,-622.8699 615.7292,-623.8622 612.8391,-624.8 554.7131,-643.6609 536.2922,-642.9055 473.7996,-660.6098"/>
<polygon fill="#000000" stroke="#000000" points="472.4553,-657.3547 463.8158,-663.4874 474.394,-664.0809 472.4553,-657.3547"/>
</g>
<!-- GO:0044283&#45;&gt;GO:0044711 -->
<g id="edge50" class="edge">
<title>GO:0044283&#45;&gt;GO:0044711</title>
<path fill="none" stroke="#000000" d="M717.9316,-624.9513C727.5261,-634.0086 738.21,-644.0941 748.2462,-653.5683"/>
<polygon fill="#000000" stroke="#000000" points="746.0915,-656.3474 755.7659,-660.6669 750.8967,-651.2572 746.0915,-656.3474"/>
</g>
<!-- GO:0044249&#45;&gt;GO:0044237 -->
<g id="edge53" class="edge">
<title>GO:0044249&#45;&gt;GO:0044237</title>
<path fill="none" stroke="#000000" d="M473.6778,-621.9958C470.7048,-622.9839 467.7487,-623.9246 464.8391,-624.8 393.9163,-646.1389 370.3241,-638.0017 295.8762,-660.7205"/>
<polygon fill="#000000" stroke="#000000" points="294.5295,-657.4748 286.037,-663.8096 296.6263,-664.1534 294.5295,-657.4748"/>
</g>
<!-- GO:0044249&#45;&gt;GO:0009058 -->
<g id="edge52" class="edge">
<title>GO:0044249&#45;&gt;GO:0009058</title>
<path fill="none" stroke="#000000" d="M603.8241,-620.5168C626.1489,-630.9298 650.392,-644.4542 669.8391,-660.8 694.5132,-681.5392 688.0421,-698.6079 712.8391,-719.2 725.587,-729.7862 759.0505,-745.9711 789.4692,-759.5666"/>
<polygon fill="#000000" stroke="#000000" points="788.2247,-762.8433 798.7854,-763.6936 791.06,-756.4432 788.2247,-762.8433"/>
</g>
<!-- GO:0006690 -->
<g id="node31" class="node">
<title>GO:0006690</title>
<polygon fill="#ffffff" stroke="#000000" points="377.2008,-341.8014 248.4774,-341.8014 248.4774,-282.9986 377.2008,-282.9986 377.2008,-341.8014"/>
<text text-anchor="middle" x="312.8391" y="-325" font-family="Times,serif" font-size="14.00" fill="#000000">GO:0006690</text>
<text text-anchor="middle" x="312.8391" y="-308.2" font-family="Times,serif" font-size="14.00" fill="#000000">icosanoid metabolic</text>
<text text-anchor="middle" x="312.8391" y="-291.4" font-family="Times,serif" font-size="14.00" fill="#000000">process</text>
</g>
<!-- GO:0006690&#45;&gt;GO:0019752 -->
<g id="edge54" class="edge">
<title>GO:0006690&#45;&gt;GO:0019752</title>
<path fill="none" stroke="#000000" d="M352.9484,-341.7513C365.8107,-351.1637 380.1907,-361.6867 393.5734,-371.48"/>
<polygon fill="#000000" stroke="#000000" points="391.6177,-374.3858 401.7546,-377.4669 395.7515,-368.7368 391.6177,-374.3858"/>
</g>
<!-- GO:0033559 -->
<g id="node32" class="node">
<title>GO:0033559</title>
<polygon fill="#ffffff" stroke="#000000" points="526.8464,-153.0014 390.8318,-153.0014 390.8318,-94.1986 526.8464,-94.1986 526.8464,-153.0014"/>
<text text-anchor="middle" x="458.8391" y="-136.2" font-family="Times,serif" font-size="14.00" fill="#000000">GO:0033559</text>
<text text-anchor="middle" x="458.8391" y="-119.4" font-family="Times,serif" font-size="14.00" fill="#000000">unsaturated fatty acid</text>
<text text-anchor="middle" x="458.8391" y="-102.6" font-family="Times,serif" font-size="14.00" fill="#000000">metabolic process</text>
</g>
<!-- GO:0033559&#45;&gt;GO:0006631 -->
<g id="edge56" class="edge">
<title>GO:0033559&#45;&gt;GO:0006631</title>
<path fill="none" stroke="#000000" d="M458.8391,-152.9513C458.8391,-161.0318 458.8391,-169.9308 458.8391,-178.4838"/>
<polygon fill="#000000" stroke="#000000" points="455.3392,-178.6668 458.8391,-188.6669 462.3392,-178.6669 455.3392,-178.6668"/>
</g>
</g>
</svg>
