<?xml version="1.0" encoding="UTF-8" standalone="no"?>
<!DOCTYPE svg PUBLIC "-//W3C//DTD SVG 1.1//EN"
 "http://www.w3.org/Graphics/SVG/1.1/DTD/svg11.dtd">
<!-- Generated by graphviz version 2.40.1 (20161225.0304)
 -->
<!-- Title: G Pages: 1 -->
<svg width="1018pt" height="950pt"
 viewBox="0.00 0.00 1018.27 949.60" xmlns="http://www.w3.org/2000/svg" xmlns:xlink="http://www.w3.org/1999/xlink">
<g id="graph0" class="graph" transform="scale(1 1) rotate(0) translate(4 945.6)">
<title>G</title>
<polygon fill="#ffffff" stroke="transparent" points="-4,4 -4,-945.6 1014.2683,-945.6 1014.2683,4 -4,4"/>
<!-- GO:0043169 -->
<g id="node1" class="node">
<title>GO:0043169</title>
<polygon fill="#ffffff" stroke="#000000" points="1010.5154,-675.0019 913.5296,-675.0019 913.5296,-633.7981 1010.5154,-633.7981 1010.5154,-675.0019"/>
<text text-anchor="middle" x="962.0225" y="-658.6" font-family="Times,serif" font-size="14.00" fill="#000000">GO:0043169</text>
<text text-anchor="middle" x="962.0225" y="-641.8" font-family="Times,serif" font-size="14.00" fill="#000000">cation binding</text>
</g>
<!-- GO:0043167 -->
<g id="node2" class="node">
<title>GO:0043167</title>
<polygon fill="#ffffff" stroke="#000000" points="1005.6264,-777.8019 916.4186,-777.8019 916.4186,-736.5981 1005.6264,-736.5981 1005.6264,-777.8019"/>
<text text-anchor="middle" x="961.0225" y="-761.4" font-family="Times,serif" font-size="14.00" fill="#000000">GO:0043167</text>
<text text-anchor="middle" x="961.0225" y="-744.6" font-family="Times,serif" font-size="14.00" fill="#000000">ion binding</text>
</g>
<!-- GO:0043169&#45;&gt;GO:0043167 -->
<g id="edge1" class="edge">
<title>GO:0043169&#45;&gt;GO:0043167</title>
<path fill="none" stroke="#000000" d="M961.8201,-675.2031C961.6778,-689.8337 961.4849,-709.6642 961.3245,-726.1586"/>
<polygon fill="#000000" stroke="#000000" points="957.8221,-726.3942 961.2246,-736.4278 964.8218,-726.4624 957.8221,-726.3942"/>
</g>
<!-- GO:0005488 -->
<g id="node3" class="node">
<title>GO:0005488</title>
<polygon fill="#ffffff" stroke="#000000" points="662.6264,-863.8019 573.4186,-863.8019 573.4186,-822.5981 662.6264,-822.5981 662.6264,-863.8019"/>
<text text-anchor="middle" x="618.0225" y="-847.4" font-family="Times,serif" font-size="14.00" fill="#000000">GO:0005488</text>
<text text-anchor="middle" x="618.0225" y="-830.6" font-family="Times,serif" font-size="14.00" fill="#000000">binding</text>
</g>
<!-- GO:0043167&#45;&gt;GO:0005488 -->
<g id="edge2" class="edge">
<title>GO:0043167&#45;&gt;GO:0005488</title>
<path fill="none" stroke="#000000" d="M924.9441,-777.9106C918.4528,-781.0844 911.6427,-784.073 905.0225,-786.4 826.8186,-813.889 731.6851,-829.4135 672.9904,-837.0564"/>
<polygon fill="#000000" stroke="#000000" points="672.3025,-833.6156 662.8237,-838.3488 673.1853,-840.5598 672.3025,-833.6156"/>
</g>
<!-- GO:0003674 -->
<g id="node4" class="node">
<title>GO:0003674</title>
<polygon fill="#ffffff" stroke="#000000" points="513.6556,-941.4019 388.3894,-941.4019 388.3894,-900.1981 513.6556,-900.1981 513.6556,-941.4019"/>
<text text-anchor="middle" x="451.0225" y="-925" font-family="Times,serif" font-size="14.00" fill="#000000">GO:0003674</text>
<text text-anchor="middle" x="451.0225" y="-908.2" font-family="Times,serif" font-size="14.00" fill="#000000">molecular_function</text>
</g>
<!-- GO:0005488&#45;&gt;GO:0003674 -->
<g id="edge3" class="edge">
<title>GO:0005488&#45;&gt;GO:0003674</title>
<path fill="none" stroke="#000000" d="M573.2696,-863.9954C552.2193,-873.7768 526.9477,-885.5198 504.8592,-895.7837"/>
<polygon fill="#000000" stroke="#000000" points="503.203,-892.6938 495.6092,-900.0819 506.1528,-899.0419 503.203,-892.6938"/>
</g>
<!-- GO:0004402 -->
<g id="node5" class="node">
<title>GO:0004402</title>
<polygon fill="#ff00ff" stroke="#000000" points="197.0079,-58.6014 43.0371,-58.6014 43.0371,.2014 197.0079,.2014 197.0079,-58.6014"/>
<text text-anchor="middle" x="120.0225" y="-41.8" font-family="Times,serif" font-size="14.00" fill="#000000">GO:0004402</text>
<text text-anchor="middle" x="120.0225" y="-25" font-family="Times,serif" font-size="14.00" fill="#000000">histone acetyltransferase</text>
<text text-anchor="middle" x="120.0225" y="-8.2" font-family="Times,serif" font-size="14.00" fill="#000000">activity</text>
</g>
<!-- GO:0061733 -->
<g id="node6" class="node">
<title>GO:0061733</title>
<polygon fill="#ffffff" stroke="#000000" points="198.2382,-153.0014 41.8068,-153.0014 41.8068,-94.1986 198.2382,-94.1986 198.2382,-153.0014"/>
<text text-anchor="middle" x="120.0225" y="-136.2" font-family="Times,serif" font-size="14.00" fill="#000000">GO:0061733</text>
<text text-anchor="middle" x="120.0225" y="-119.4" font-family="Times,serif" font-size="14.00" fill="#000000">peptide&#45;lysine&#45;N&#45;acetyltr</text>
<text text-anchor="middle" x="120.0225" y="-102.6" font-family="Times,serif" font-size="14.00" fill="#000000">ansferase activity</text>
</g>
<!-- GO:0004402&#45;&gt;GO:0061733 -->
<g id="edge4" class="edge">
<title>GO:0004402&#45;&gt;GO:0061733</title>
<path fill="none" stroke="#000000" d="M120.0225,-58.5513C120.0225,-66.6318 120.0225,-75.5308 120.0225,-84.0838"/>
<polygon fill="#000000" stroke="#000000" points="116.5226,-84.2668 120.0225,-94.2669 123.5226,-84.2669 116.5226,-84.2668"/>
</g>
<!-- GO:0034212 -->
<g id="node7" class="node">
<title>GO:0034212</title>
<polygon fill="#ffffff" stroke="#000000" points="182.3348,-264.1003 57.7102,-264.1003 57.7102,-188.6997 182.3348,-188.6997 182.3348,-264.1003"/>
<text text-anchor="middle" x="120.0225" y="-247.4" font-family="Times,serif" font-size="14.00" fill="#000000">GO:0034212</text>
<text text-anchor="middle" x="120.0225" y="-230.6" font-family="Times,serif" font-size="14.00" fill="#000000">peptide</text>
<text text-anchor="middle" x="120.0225" y="-213.8" font-family="Times,serif" font-size="14.00" fill="#000000">N&#45;acetyltransferase</text>
<text text-anchor="middle" x="120.0225" y="-197" font-family="Times,serif" font-size="14.00" fill="#000000">activity</text>
</g>
<!-- GO:0061733&#45;&gt;GO:0034212 -->
<g id="edge5" class="edge">
<title>GO:0061733&#45;&gt;GO:0034212</title>
<path fill="none" stroke="#000000" d="M120.0225,-153.0584C120.0225,-160.9901 120.0225,-169.78 120.0225,-178.4392"/>
<polygon fill="#000000" stroke="#000000" points="116.5226,-178.4849 120.0225,-188.485 123.5226,-178.485 116.5226,-178.4849"/>
</g>
<!-- GO:0008080 -->
<g id="node8" class="node">
<title>GO:0008080</title>
<polygon fill="#ffffff" stroke="#000000" points="182.3348,-358.6014 57.7102,-358.6014 57.7102,-299.7986 182.3348,-299.7986 182.3348,-358.6014"/>
<text text-anchor="middle" x="120.0225" y="-341.8" font-family="Times,serif" font-size="14.00" fill="#000000">GO:0008080</text>
<text text-anchor="middle" x="120.0225" y="-325" font-family="Times,serif" font-size="14.00" fill="#000000">N&#45;acetyltransferase</text>
<text text-anchor="middle" x="120.0225" y="-308.2" font-family="Times,serif" font-size="14.00" fill="#000000">activity</text>
</g>
<!-- GO:0034212&#45;&gt;GO:0008080 -->
<g id="edge6" class="edge">
<title>GO:0034212&#45;&gt;GO:0008080</title>
<path fill="none" stroke="#000000" d="M120.0225,-264.0952C120.0225,-272.4874 120.0225,-281.4054 120.0225,-289.8618"/>
<polygon fill="#000000" stroke="#000000" points="116.5226,-289.8813 120.0225,-299.8814 123.5226,-289.8814 116.5226,-289.8813"/>
</g>
<!-- GO:0016407 -->
<g id="node9" class="node">
<title>GO:0016407</title>
<polygon fill="#ff00ff" stroke="#000000" points="110.0675,-453.0014 -.0225,-453.0014 -.0225,-394.1986 110.0675,-394.1986 110.0675,-453.0014"/>
<text text-anchor="middle" x="55.0225" y="-436.2" font-family="Times,serif" font-size="14.00" fill="#000000">GO:0016407</text>
<text text-anchor="middle" x="55.0225" y="-419.4" font-family="Times,serif" font-size="14.00" fill="#000000">acetyltransferase</text>
<text text-anchor="middle" x="55.0225" y="-402.6" font-family="Times,serif" font-size="14.00" fill="#000000">activity</text>
</g>
<!-- GO:0008080&#45;&gt;GO:0016407 -->
<g id="edge7" class="edge">
<title>GO:0008080&#45;&gt;GO:0016407</title>
<path fill="none" stroke="#000000" d="M99.8124,-358.5513C93.8816,-367.1646 87.3105,-376.7078 81.0701,-385.7708"/>
<polygon fill="#000000" stroke="#000000" points="78.0086,-384.0456 75.2201,-394.2669 83.7741,-388.0154 78.0086,-384.0456"/>
</g>
<!-- GO:0016410 -->
<g id="node10" class="node">
<title>GO:0016410</title>
<polygon fill="#ffffff" stroke="#000000" points="242.2299,-453.0014 127.8151,-453.0014 127.8151,-394.1986 242.2299,-394.1986 242.2299,-453.0014"/>
<text text-anchor="middle" x="185.0225" y="-436.2" font-family="Times,serif" font-size="14.00" fill="#000000">GO:0016410</text>
<text text-anchor="middle" x="185.0225" y="-419.4" font-family="Times,serif" font-size="14.00" fill="#000000">N&#45;acyltransferase</text>
<text text-anchor="middle" x="185.0225" y="-402.6" font-family="Times,serif" font-size="14.00" fill="#000000">activity</text>
</g>
<!-- GO:0008080&#45;&gt;GO:0016410 -->
<g id="edge8" class="edge">
<title>GO:0008080&#45;&gt;GO:0016410</title>
<path fill="none" stroke="#000000" d="M140.2326,-358.5513C146.1634,-367.1646 152.7345,-376.7078 158.9749,-385.7708"/>
<polygon fill="#000000" stroke="#000000" points="156.2709,-388.0154 164.8249,-394.2669 162.0364,-384.0456 156.2709,-388.0154"/>
</g>
<!-- GO:0016747 -->
<g id="node11" class="node">
<title>GO:0016747</title>
<polygon fill="#ffffff" stroke="#000000" points="194.7452,-580.8 45.2998,-580.8 45.2998,-488.8 194.7452,-488.8 194.7452,-580.8"/>
<text text-anchor="middle" x="120.0225" y="-564.2" font-family="Times,serif" font-size="14.00" fill="#000000">GO:0016747</text>
<text text-anchor="middle" x="120.0225" y="-547.4" font-family="Times,serif" font-size="14.00" fill="#000000">transferase activity,</text>
<text text-anchor="middle" x="120.0225" y="-530.6" font-family="Times,serif" font-size="14.00" fill="#000000">transferring acyl groups</text>
<text text-anchor="middle" x="120.0225" y="-513.8" font-family="Times,serif" font-size="14.00" fill="#000000">other than amino&#45;acyl</text>
<text text-anchor="middle" x="120.0225" y="-497" font-family="Times,serif" font-size="14.00" fill="#000000">groups</text>
</g>
<!-- GO:0016407&#45;&gt;GO:0016747 -->
<g id="edge9" class="edge">
<title>GO:0016407&#45;&gt;GO:0016747</title>
<path fill="none" stroke="#000000" d="M72.1005,-452.8165C76.9462,-461.1064 82.3874,-470.4151 87.8176,-479.7049"/>
<polygon fill="#000000" stroke="#000000" points="84.9326,-481.705 93.0008,-488.5721 90.9759,-478.1725 84.9326,-481.705"/>
</g>
<!-- GO:0016410&#45;&gt;GO:0016747 -->
<g id="edge10" class="edge">
<title>GO:0016410&#45;&gt;GO:0016747</title>
<path fill="none" stroke="#000000" d="M167.9445,-452.8165C163.0988,-461.1064 157.6576,-470.4151 152.2274,-479.7049"/>
<polygon fill="#000000" stroke="#000000" points="149.0691,-478.1725 147.0442,-488.5721 155.1124,-481.705 149.0691,-478.1725"/>
</g>
<!-- GO:0016746 -->
<g id="node12" class="node">
<title>GO:0016746</title>
<polygon fill="#ffffff" stroke="#000000" points="194.7452,-683.8014 45.2998,-683.8014 45.2998,-624.9986 194.7452,-624.9986 194.7452,-683.8014"/>
<text text-anchor="middle" x="120.0225" y="-667" font-family="Times,serif" font-size="14.00" fill="#000000">GO:0016746</text>
<text text-anchor="middle" x="120.0225" y="-650.2" font-family="Times,serif" font-size="14.00" fill="#000000">transferase activity,</text>
<text text-anchor="middle" x="120.0225" y="-633.4" font-family="Times,serif" font-size="14.00" fill="#000000">transferring acyl groups</text>
</g>
<!-- GO:0016747&#45;&gt;GO:0016746 -->
<g id="edge11" class="edge">
<title>GO:0016747&#45;&gt;GO:0016746</title>
<path fill="none" stroke="#000000" d="M120.0225,-581.0405C120.0225,-592.1987 120.0225,-604.0218 120.0225,-614.8424"/>
<polygon fill="#000000" stroke="#000000" points="116.5226,-614.8551 120.0225,-624.8551 123.5226,-614.8552 116.5226,-614.8551"/>
</g>
<!-- GO:0016740 -->
<g id="node13" class="node">
<title>GO:0016740</title>
<polygon fill="#ff0000" stroke="#000000" points="260.1342,-777.8019 137.9108,-777.8019 137.9108,-736.5981 260.1342,-736.5981 260.1342,-777.8019"/>
<text text-anchor="middle" x="199.0225" y="-761.4" font-family="Times,serif" font-size="14.00" fill="#000000">GO:0016740</text>
<text text-anchor="middle" x="199.0225" y="-744.6" font-family="Times,serif" font-size="14.00" fill="#000000">transferase activity</text>
</g>
<!-- GO:0016746&#45;&gt;GO:0016740 -->
<g id="edge12" class="edge">
<title>GO:0016746&#45;&gt;GO:0016740</title>
<path fill="none" stroke="#000000" d="M142.6607,-683.8584C153.384,-697.8121 166.1483,-714.4219 176.8158,-728.3032"/>
<polygon fill="#000000" stroke="#000000" points="174.2814,-730.7492 183.15,-736.5456 179.8318,-726.4838 174.2814,-730.7492"/>
</g>
<!-- GO:0003824 -->
<g id="node14" class="node">
<title>GO:0003824</title>
<polygon fill="#ff0000" stroke="#000000" points="447.4349,-863.8019 338.6101,-863.8019 338.6101,-822.5981 447.4349,-822.5981 447.4349,-863.8019"/>
<text text-anchor="middle" x="393.0225" y="-847.4" font-family="Times,serif" font-size="14.00" fill="#000000">GO:0003824</text>
<text text-anchor="middle" x="393.0225" y="-830.6" font-family="Times,serif" font-size="14.00" fill="#000000">catalytic activity</text>
</g>
<!-- GO:0016740&#45;&gt;GO:0003824 -->
<g id="edge13" class="edge">
<title>GO:0016740&#45;&gt;GO:0003824</title>
<path fill="none" stroke="#000000" d="M245.9845,-778.0182C273.5074,-790.2191 308.4317,-805.701 337.3368,-818.5146"/>
<polygon fill="#000000" stroke="#000000" points="335.9325,-821.7205 346.493,-822.5735 338.7694,-815.3211 335.9325,-821.7205"/>
</g>
<!-- GO:0003824&#45;&gt;GO:0003674 -->
<g id="edge14" class="edge">
<title>GO:0003824&#45;&gt;GO:0003674</title>
<path fill="none" stroke="#000000" d="M408.5654,-863.9954C414.9367,-872.5197 422.4216,-882.5339 429.3177,-891.7605"/>
<polygon fill="#000000" stroke="#000000" points="426.6464,-894.0327 435.4367,-899.9472 432.2533,-889.8419 426.6464,-894.0327"/>
</g>
<!-- GO:0044877 -->
<g id="node15" class="node">
<title>GO:0044877</title>
<polygon fill="#ffffff" stroke="#000000" points="436.1898,-786.6014 277.8552,-786.6014 277.8552,-727.7986 436.1898,-727.7986 436.1898,-786.6014"/>
<text text-anchor="middle" x="357.0225" y="-769.8" font-family="Times,serif" font-size="14.00" fill="#000000">GO:0044877</text>
<text text-anchor="middle" x="357.0225" y="-753" font-family="Times,serif" font-size="14.00" fill="#000000">macromolecular complex</text>
<text text-anchor="middle" x="357.0225" y="-736.2" font-family="Times,serif" font-size="14.00" fill="#000000">binding</text>
</g>
<!-- GO:0044877&#45;&gt;GO:0005488 -->
<g id="edge15" class="edge">
<title>GO:0044877&#45;&gt;GO:0005488</title>
<path fill="none" stroke="#000000" d="M436.6442,-783.6324C439.4715,-784.567 442.2711,-785.4918 445.0225,-786.4 484.6396,-799.4764 529.3863,-814.1657 563.4452,-825.3297"/>
<polygon fill="#000000" stroke="#000000" points="562.611,-828.7394 573.2037,-828.5278 564.791,-822.0875 562.611,-828.7394"/>
</g>
<!-- GO:0003676 -->
<g id="node16" class="node">
<title>GO:0003676</title>
<polygon fill="#ff00ff" stroke="#000000" points="681.5494,-675.0019 552.4956,-675.0019 552.4956,-633.7981 681.5494,-633.7981 681.5494,-675.0019"/>
<text text-anchor="middle" x="617.0225" y="-658.6" font-family="Times,serif" font-size="14.00" fill="#000000">GO:0003676</text>
<text text-anchor="middle" x="617.0225" y="-641.8" font-family="Times,serif" font-size="14.00" fill="#000000">nucleic acid binding</text>
</g>
<!-- GO:0097159 -->
<g id="node17" class="node">
<title>GO:0097159</title>
<polygon fill="#ffffff" stroke="#000000" points="611.5339,-786.6014 454.5111,-786.6014 454.5111,-727.7986 611.5339,-727.7986 611.5339,-786.6014"/>
<text text-anchor="middle" x="533.0225" y="-769.8" font-family="Times,serif" font-size="14.00" fill="#000000">GO:0097159</text>
<text text-anchor="middle" x="533.0225" y="-753" font-family="Times,serif" font-size="14.00" fill="#000000">organic cyclic compound</text>
<text text-anchor="middle" x="533.0225" y="-736.2" font-family="Times,serif" font-size="14.00" fill="#000000">binding</text>
</g>
<!-- GO:0003676&#45;&gt;GO:0097159 -->
<g id="edge16" class="edge">
<title>GO:0003676&#45;&gt;GO:0097159</title>
<path fill="none" stroke="#000000" d="M600.0238,-675.2031C589.588,-687.9746 575.9143,-704.7086 563.6426,-719.7268"/>
<polygon fill="#000000" stroke="#000000" points="560.6159,-717.8995 556.9987,-727.8577 566.0364,-722.3287 560.6159,-717.8995"/>
</g>
<!-- GO:1901363 -->
<g id="node18" class="node">
<title>GO:1901363</title>
<polygon fill="#ffffff" stroke="#000000" points="776.5331,-786.6014 629.5119,-786.6014 629.5119,-727.7986 776.5331,-727.7986 776.5331,-786.6014"/>
<text text-anchor="middle" x="703.0225" y="-769.8" font-family="Times,serif" font-size="14.00" fill="#000000">GO:1901363</text>
<text text-anchor="middle" x="703.0225" y="-753" font-family="Times,serif" font-size="14.00" fill="#000000">heterocyclic compound</text>
<text text-anchor="middle" x="703.0225" y="-736.2" font-family="Times,serif" font-size="14.00" fill="#000000">binding</text>
</g>
<!-- GO:0003676&#45;&gt;GO:1901363 -->
<g id="edge17" class="edge">
<title>GO:0003676&#45;&gt;GO:1901363</title>
<path fill="none" stroke="#000000" d="M634.4259,-675.2031C645.2091,-688.0928 659.369,-705.0188 672.022,-720.1436"/>
<polygon fill="#000000" stroke="#000000" points="669.3744,-722.4335 678.4755,-727.8577 674.7434,-717.942 669.3744,-722.4335"/>
</g>
<!-- GO:0097159&#45;&gt;GO:0005488 -->
<g id="edge18" class="edge">
<title>GO:0097159&#45;&gt;GO:0005488</title>
<path fill="none" stroke="#000000" d="M562.2747,-786.7963C571.3539,-795.9824 581.3294,-806.0752 590.3012,-815.1526"/>
<polygon fill="#000000" stroke="#000000" points="588.0408,-817.8446 597.5598,-822.4966 593.0195,-812.9239 588.0408,-817.8446"/>
</g>
<!-- GO:1901363&#45;&gt;GO:0005488 -->
<g id="edge19" class="edge">
<title>GO:1901363&#45;&gt;GO:0005488</title>
<path fill="none" stroke="#000000" d="M673.7703,-786.7963C664.6911,-795.9824 654.7156,-806.0752 645.7438,-815.1526"/>
<polygon fill="#000000" stroke="#000000" points="643.0255,-812.9239 638.4852,-822.4966 648.0042,-817.8446 643.0255,-812.9239"/>
</g>
<!-- GO:0003677 -->
<g id="node19" class="node">
<title>GO:0003677</title>
<polygon fill="#ffffff" stroke="#000000" points="663.1244,-555.4019 570.9206,-555.4019 570.9206,-514.1981 663.1244,-514.1981 663.1244,-555.4019"/>
<text text-anchor="middle" x="617.0225" y="-539" font-family="Times,serif" font-size="14.00" fill="#000000">GO:0003677</text>
<text text-anchor="middle" x="617.0225" y="-522.2" font-family="Times,serif" font-size="14.00" fill="#000000">DNA binding</text>
</g>
<!-- GO:0003677&#45;&gt;GO:0003676 -->
<g id="edge20" class="edge">
<title>GO:0003677&#45;&gt;GO:0003676</title>
<path fill="none" stroke="#000000" d="M617.0225,-555.6327C617.0225,-574.2973 617.0225,-601.9322 617.0225,-623.2278"/>
<polygon fill="#000000" stroke="#000000" points="613.5226,-623.4047 617.0225,-633.4047 620.5226,-623.4047 613.5226,-623.4047"/>
</g>
<!-- GO:0016758 -->
<g id="node20" class="node">
<title>GO:0016758</title>
<polygon fill="#ffffff" stroke="#000000" points="343.3702,-572.5003 214.6748,-572.5003 214.6748,-497.0997 343.3702,-497.0997 343.3702,-572.5003"/>
<text text-anchor="middle" x="279.0225" y="-555.8" font-family="Times,serif" font-size="14.00" fill="#000000">GO:0016758</text>
<text text-anchor="middle" x="279.0225" y="-539" font-family="Times,serif" font-size="14.00" fill="#000000">transferase activity,</text>
<text text-anchor="middle" x="279.0225" y="-522.2" font-family="Times,serif" font-size="14.00" fill="#000000">transferring hexosyl</text>
<text text-anchor="middle" x="279.0225" y="-505.4" font-family="Times,serif" font-size="14.00" fill="#000000">groups</text>
</g>
<!-- GO:0016757 -->
<g id="node21" class="node">
<title>GO:0016757</title>
<polygon fill="#ffffff" stroke="#000000" points="345.2605,-692.1003 212.7845,-692.1003 212.7845,-616.6997 345.2605,-616.6997 345.2605,-692.1003"/>
<text text-anchor="middle" x="279.0225" y="-675.4" font-family="Times,serif" font-size="14.00" fill="#000000">GO:0016757</text>
<text text-anchor="middle" x="279.0225" y="-658.6" font-family="Times,serif" font-size="14.00" fill="#000000">transferase activity,</text>
<text text-anchor="middle" x="279.0225" y="-641.8" font-family="Times,serif" font-size="14.00" fill="#000000">transferring glycosyl</text>
<text text-anchor="middle" x="279.0225" y="-625" font-family="Times,serif" font-size="14.00" fill="#000000">groups</text>
</g>
<!-- GO:0016758&#45;&gt;GO:0016757 -->
<g id="edge21" class="edge">
<title>GO:0016758&#45;&gt;GO:0016757</title>
<path fill="none" stroke="#000000" d="M279.0225,-572.6422C279.0225,-583.331 279.0225,-595.1067 279.0225,-606.3114"/>
<polygon fill="#000000" stroke="#000000" points="275.5226,-606.3934 279.0225,-616.3935 282.5226,-606.3935 275.5226,-606.3934"/>
</g>
<!-- GO:0016757&#45;&gt;GO:0016740 -->
<g id="edge22" class="edge">
<title>GO:0016757&#45;&gt;GO:0016740</title>
<path fill="none" stroke="#000000" d="M249.6877,-692.0952C240.3774,-704.059 230.2354,-717.0914 221.4882,-728.3315"/>
<polygon fill="#000000" stroke="#000000" points="218.4874,-726.4888 215.1079,-736.5302 224.0117,-730.7879 218.4874,-726.4888"/>
</g>
<!-- GO:0070577 -->
<g id="node22" class="node">
<title>GO:0070577</title>
<polygon fill="#ffffff" stroke="#000000" points="921.3088,-564.2014 766.7362,-564.2014 766.7362,-505.3986 921.3088,-505.3986 921.3088,-564.2014"/>
<text text-anchor="middle" x="844.0225" y="-547.4" font-family="Times,serif" font-size="14.00" fill="#000000">GO:0070577</text>
<text text-anchor="middle" x="844.0225" y="-530.6" font-family="Times,serif" font-size="14.00" fill="#000000">lysine&#45;acetylated histone</text>
<text text-anchor="middle" x="844.0225" y="-513.8" font-family="Times,serif" font-size="14.00" fill="#000000">binding</text>
</g>
<!-- GO:0042393 -->
<g id="node23" class="node">
<title>GO:0042393</title>
<polygon fill="#ffffff" stroke="#000000" points="895.2445,-675.0019 792.8005,-675.0019 792.8005,-633.7981 895.2445,-633.7981 895.2445,-675.0019"/>
<text text-anchor="middle" x="844.0225" y="-658.6" font-family="Times,serif" font-size="14.00" fill="#000000">GO:0042393</text>
<text text-anchor="middle" x="844.0225" y="-641.8" font-family="Times,serif" font-size="14.00" fill="#000000">histone binding</text>
</g>
<!-- GO:0070577&#45;&gt;GO:0042393 -->
<g id="edge23" class="edge">
<title>GO:0070577&#45;&gt;GO:0042393</title>
<path fill="none" stroke="#000000" d="M844.0225,-564.0575C844.0225,-582.094 844.0225,-605.1977 844.0225,-623.5259"/>
<polygon fill="#000000" stroke="#000000" points="840.5226,-623.691 844.0225,-633.691 847.5226,-623.6911 840.5226,-623.691"/>
</g>
<!-- GO:0005515 -->
<g id="node24" class="node">
<title>GO:0005515</title>
<polygon fill="#ffffff" stroke="#000000" points="895.9601,-777.8019 794.0849,-777.8019 794.0849,-736.5981 895.9601,-736.5981 895.9601,-777.8019"/>
<text text-anchor="middle" x="845.0225" y="-761.4" font-family="Times,serif" font-size="14.00" fill="#000000">GO:0005515</text>
<text text-anchor="middle" x="845.0225" y="-744.6" font-family="Times,serif" font-size="14.00" fill="#000000">protein binding</text>
</g>
<!-- GO:0042393&#45;&gt;GO:0005515 -->
<g id="edge24" class="edge">
<title>GO:0042393&#45;&gt;GO:0005515</title>
<path fill="none" stroke="#000000" d="M844.2249,-675.2031C844.3672,-689.8337 844.5601,-709.6642 844.7205,-726.1586"/>
<polygon fill="#000000" stroke="#000000" points="841.2232,-726.4624 844.8204,-736.4278 848.2229,-726.3942 841.2232,-726.4624"/>
</g>
<!-- GO:0005515&#45;&gt;GO:0005488 -->
<g id="edge25" class="edge">
<title>GO:0005515&#45;&gt;GO:0005488</title>
<path fill="none" stroke="#000000" d="M805.0464,-777.8766C798.7439,-780.8766 792.252,-783.8189 786.0225,-786.4 748.9034,-801.7796 705.9718,-816.2394 672.7994,-826.7205"/>
<polygon fill="#000000" stroke="#000000" points="671.3314,-823.5126 662.8351,-829.8421 673.4242,-830.1924 671.3314,-823.5126"/>
</g>
</g>
</svg>
