<?xml version="1.0" encoding="UTF-8" standalone="no"?>
<!DOCTYPE svg PUBLIC "-//W3C//DTD SVG 1.1//EN"
 "http://www.w3.org/Graphics/SVG/1.1/DTD/svg11.dtd">
<!-- Generated by graphviz version 2.40.1 (20161225.0304)
 -->
<!-- Title: G Pages: 1 -->
<svg width="950pt" height="694pt"
 viewBox="0.00 0.00 949.93 693.60" xmlns="http://www.w3.org/2000/svg" xmlns:xlink="http://www.w3.org/1999/xlink">
<g id="graph0" class="graph" transform="scale(1 1) rotate(0) translate(4 689.6)">
<title>G</title>
<polygon fill="#ffffff" stroke="transparent" points="-4,4 -4,-689.6 945.9275,-689.6 945.9275,4 -4,4"/>
<!-- GO:0005829 -->
<g id="node1" class="node">
<title>GO:0005829</title>
<polygon fill="#ffffff" stroke="#000000" points="435.7151,-324.6019 346.5073,-324.6019 346.5073,-283.3981 435.7151,-283.3981 435.7151,-324.6019"/>
<text text-anchor="middle" x="391.1112" y="-308.2" font-family="Times,serif" font-size="14.00" fill="#000000">GO:0005829</text>
<text text-anchor="middle" x="391.1112" y="-291.4" font-family="Times,serif" font-size="14.00" fill="#000000">cytosol</text>
</g>
<!-- GO:0044444 -->
<g id="node2" class="node">
<title>GO:0044444</title>
<polygon fill="#ffffff" stroke="#000000" points="445.5278,-427.4019 336.6946,-427.4019 336.6946,-386.1981 445.5278,-386.1981 445.5278,-427.4019"/>
<text text-anchor="middle" x="391.1112" y="-411" font-family="Times,serif" font-size="14.00" fill="#000000">GO:0044444</text>
<text text-anchor="middle" x="391.1112" y="-394.2" font-family="Times,serif" font-size="14.00" fill="#000000">cytoplasmic part</text>
</g>
<!-- GO:0005829&#45;&gt;GO:0044444 -->
<g id="edge1" class="edge">
<title>GO:0005829&#45;&gt;GO:0044444</title>
<path fill="none" stroke="#000000" d="M391.1112,-324.8031C391.1112,-339.4337 391.1112,-359.2642 391.1112,-375.7586"/>
<polygon fill="#000000" stroke="#000000" points="387.6113,-376.0278 391.1112,-386.0278 394.6113,-376.0279 387.6113,-376.0278"/>
</g>
<!-- GO:0044424 -->
<g id="node3" class="node">
<title>GO:0044424</title>
<polygon fill="#ffffff" stroke="#000000" points="468.5096,-521.8019 359.7128,-521.8019 359.7128,-480.5981 468.5096,-480.5981 468.5096,-521.8019"/>
<text text-anchor="middle" x="414.1112" y="-505.4" font-family="Times,serif" font-size="14.00" fill="#000000">GO:0044424</text>
<text text-anchor="middle" x="414.1112" y="-488.6" font-family="Times,serif" font-size="14.00" fill="#000000">intracellular part</text>
</g>
<!-- GO:0044444&#45;&gt;GO:0044424 -->
<g id="edge2" class="edge">
<title>GO:0044444&#45;&gt;GO:0044424</title>
<path fill="none" stroke="#000000" d="M396.2156,-427.7504C399.2827,-440.3387 403.2397,-456.5795 406.6526,-470.5872"/>
<polygon fill="#000000" stroke="#000000" points="403.2532,-471.4209 409.021,-480.3081 410.0543,-469.7638 403.2532,-471.4209"/>
</g>
<!-- GO:0044464 -->
<g id="node4" class="node">
<title>GO:0044464</title>
<polygon fill="#ffffff" stroke="#000000" points="458.7151,-607.8019 369.5073,-607.8019 369.5073,-566.5981 458.7151,-566.5981 458.7151,-607.8019"/>
<text text-anchor="middle" x="414.1112" y="-591.4" font-family="Times,serif" font-size="14.00" fill="#000000">GO:0044464</text>
<text text-anchor="middle" x="414.1112" y="-574.6" font-family="Times,serif" font-size="14.00" fill="#000000">cell part</text>
</g>
<!-- GO:0044424&#45;&gt;GO:0044464 -->
<g id="edge3" class="edge">
<title>GO:0044424&#45;&gt;GO:0044464</title>
<path fill="none" stroke="#000000" d="M414.1112,-522.0182C414.1112,-532.3705 414.1112,-545.0848 414.1112,-556.5271"/>
<polygon fill="#000000" stroke="#000000" points="410.6113,-556.5735 414.1112,-566.5735 417.6113,-556.5735 410.6113,-556.5735"/>
</g>
<!-- GO:0005575 -->
<g id="node5" class="node">
<title>GO:0005575</title>
<polygon fill="#ffffff" stroke="#000000" points="369.7979,-685.4019 242.4245,-685.4019 242.4245,-644.1981 369.7979,-644.1981 369.7979,-685.4019"/>
<text text-anchor="middle" x="306.1112" y="-669" font-family="Times,serif" font-size="14.00" fill="#000000">GO:0005575</text>
<text text-anchor="middle" x="306.1112" y="-652.2" font-family="Times,serif" font-size="14.00" fill="#000000">cellular_component</text>
</g>
<!-- GO:0044464&#45;&gt;GO:0005575 -->
<g id="edge4" class="edge">
<title>GO:0044464&#45;&gt;GO:0005575</title>
<path fill="none" stroke="#000000" d="M385.1692,-607.9954C372.3369,-617.2156 357.0789,-628.1788 343.4058,-638.0031"/>
<polygon fill="#000000" stroke="#000000" points="341.2119,-635.2697 335.1331,-643.9472 345.2965,-640.9544 341.2119,-635.2697"/>
</g>
<!-- GO:0030288 -->
<g id="node6" class="node">
<title>GO:0030288</title>
<polygon fill="#ffffff" stroke="#000000" points="624.338,-436.2014 463.8844,-436.2014 463.8844,-377.3986 624.338,-377.3986 624.338,-436.2014"/>
<text text-anchor="middle" x="544.1112" y="-419.4" font-family="Times,serif" font-size="14.00" fill="#000000">GO:0030288</text>
<text text-anchor="middle" x="544.1112" y="-402.6" font-family="Times,serif" font-size="14.00" fill="#000000">outer membrane&#45;bounded</text>
<text text-anchor="middle" x="544.1112" y="-385.8" font-family="Times,serif" font-size="14.00" fill="#000000">periplasmic space</text>
</g>
<!-- GO:0042597 -->
<g id="node7" class="node">
<title>GO:0042597</title>
<polygon fill="#ffffff" stroke="#000000" points="602.011,-521.8019 486.2114,-521.8019 486.2114,-480.5981 602.011,-480.5981 602.011,-521.8019"/>
<text text-anchor="middle" x="544.1112" y="-505.4" font-family="Times,serif" font-size="14.00" fill="#000000">GO:0042597</text>
<text text-anchor="middle" x="544.1112" y="-488.6" font-family="Times,serif" font-size="14.00" fill="#000000">periplasmic space</text>
</g>
<!-- GO:0030288&#45;&gt;GO:0042597 -->
<g id="edge5" class="edge">
<title>GO:0030288&#45;&gt;GO:0042597</title>
<path fill="none" stroke="#000000" d="M544.1112,-436.1513C544.1112,-447.0614 544.1112,-459.4637 544.1112,-470.492"/>
<polygon fill="#000000" stroke="#000000" points="540.6113,-470.5509 544.1112,-480.551 547.6113,-470.551 540.6113,-470.5509"/>
</g>
<!-- GO:0042597&#45;&gt;GO:0044464 -->
<g id="edge6" class="edge">
<title>GO:0042597&#45;&gt;GO:0044464</title>
<path fill="none" stroke="#000000" d="M512.6418,-522.0182C494.9172,-533.7437 472.6118,-548.4996 453.7082,-561.0051"/>
<polygon fill="#000000" stroke="#000000" points="451.6999,-558.137 445.2908,-566.5735 455.5621,-563.9752 451.6999,-558.137"/>
</g>
<!-- GO:0005880 -->
<g id="node8" class="node">
<title>GO:0005880</title>
<polygon fill="#ffffff" stroke="#000000" points="240.4589,-41.4019 111.7635,-41.4019 111.7635,-.1981 240.4589,-.1981 240.4589,-41.4019"/>
<text text-anchor="middle" x="176.1112" y="-25" font-family="Times,serif" font-size="14.00" fill="#000000">GO:0005880</text>
<text text-anchor="middle" x="176.1112" y="-8.2" font-family="Times,serif" font-size="14.00" fill="#000000">nuclear microtubule</text>
</g>
<!-- GO:0005874 -->
<g id="node9" class="node">
<title>GO:0005874</title>
<polygon fill="#ffffff" stroke="#000000" points="167.7151,-119.0019 78.5073,-119.0019 78.5073,-77.7981 167.7151,-77.7981 167.7151,-119.0019"/>
<text text-anchor="middle" x="123.1112" y="-102.6" font-family="Times,serif" font-size="14.00" fill="#000000">GO:0005874</text>
<text text-anchor="middle" x="123.1112" y="-85.8" font-family="Times,serif" font-size="14.00" fill="#000000">microtubule</text>
</g>
<!-- GO:0005880&#45;&gt;GO:0005874 -->
<g id="edge7" class="edge">
<title>GO:0005880&#45;&gt;GO:0005874</title>
<path fill="none" stroke="#000000" d="M161.9082,-41.5954C156.1455,-50.0328 149.386,-59.9297 143.1379,-69.0778"/>
<polygon fill="#000000" stroke="#000000" points="140.1032,-67.3154 137.3534,-77.5472 145.8837,-71.2634 140.1032,-67.3154"/>
</g>
<!-- GO:0044428 -->
<g id="node10" class="node">
<title>GO:0044428</title>
<polygon fill="#ffffff" stroke="#000000" points="274.7151,-119.0019 185.5073,-119.0019 185.5073,-77.7981 274.7151,-77.7981 274.7151,-119.0019"/>
<text text-anchor="middle" x="230.1112" y="-102.6" font-family="Times,serif" font-size="14.00" fill="#000000">GO:0044428</text>
<text text-anchor="middle" x="230.1112" y="-85.8" font-family="Times,serif" font-size="14.00" fill="#000000">nuclear part</text>
</g>
<!-- GO:0005880&#45;&gt;GO:0044428 -->
<g id="edge8" class="edge">
<title>GO:0005880&#45;&gt;GO:0044428</title>
<path fill="none" stroke="#000000" d="M190.5822,-41.5954C196.4536,-50.0328 203.3406,-59.9297 209.7066,-69.0778"/>
<polygon fill="#000000" stroke="#000000" points="207.0154,-71.3382 215.6002,-77.5472 212.7612,-67.3398 207.0154,-71.3382"/>
</g>
<!-- GO:0099513 -->
<g id="node11" class="node">
<title>GO:0099513</title>
<polygon fill="#ffffff" stroke="#000000" points="194.7383,-222.2014 51.4841,-222.2014 51.4841,-163.3986 194.7383,-163.3986 194.7383,-222.2014"/>
<text text-anchor="middle" x="123.1112" y="-205.4" font-family="Times,serif" font-size="14.00" fill="#000000">GO:0099513</text>
<text text-anchor="middle" x="123.1112" y="-188.6" font-family="Times,serif" font-size="14.00" fill="#000000">polymeric cytoskeletal</text>
<text text-anchor="middle" x="123.1112" y="-171.8" font-family="Times,serif" font-size="14.00" fill="#000000">fiber</text>
</g>
<!-- GO:0005874&#45;&gt;GO:0099513 -->
<g id="edge9" class="edge">
<title>GO:0005874&#45;&gt;GO:0099513</title>
<path fill="none" stroke="#000000" d="M123.1112,-119.3504C123.1112,-129.3492 123.1112,-141.6525 123.1112,-153.3106"/>
<polygon fill="#000000" stroke="#000000" points="119.6113,-153.3155 123.1112,-163.3155 126.6113,-153.3156 119.6113,-153.3155"/>
</g>
<!-- GO:0044446 -->
<g id="node12" class="node">
<title>GO:0044446</title>
<polygon fill="#ffffff" stroke="#000000" points="281.8296,-436.2014 142.3928,-436.2014 142.3928,-377.3986 281.8296,-377.3986 281.8296,-436.2014"/>
<text text-anchor="middle" x="212.1112" y="-419.4" font-family="Times,serif" font-size="14.00" fill="#000000">GO:0044446</text>
<text text-anchor="middle" x="212.1112" y="-402.6" font-family="Times,serif" font-size="14.00" fill="#000000">intracellular organelle</text>
<text text-anchor="middle" x="212.1112" y="-385.8" font-family="Times,serif" font-size="14.00" fill="#000000">part</text>
</g>
<!-- GO:0044428&#45;&gt;GO:0044446 -->
<g id="edge10" class="edge">
<title>GO:0044428&#45;&gt;GO:0044446</title>
<path fill="none" stroke="#000000" d="M228.9022,-119.1139C225.9393,-169.879 218.2766,-301.1653 214.412,-367.3797"/>
<polygon fill="#000000" stroke="#000000" points="210.9144,-367.2387 213.8257,-377.4257 217.9025,-367.6466 210.9144,-367.2387"/>
</g>
<!-- GO:0044430 -->
<g id="node13" class="node">
<title>GO:0044430</title>
<polygon fill="#ffffff" stroke="#000000" points="202.2425,-324.6019 93.9799,-324.6019 93.9799,-283.3981 202.2425,-283.3981 202.2425,-324.6019"/>
<text text-anchor="middle" x="148.1112" y="-308.2" font-family="Times,serif" font-size="14.00" fill="#000000">GO:0044430</text>
<text text-anchor="middle" x="148.1112" y="-291.4" font-family="Times,serif" font-size="14.00" fill="#000000">cytoskeletal part</text>
</g>
<!-- GO:0099513&#45;&gt;GO:0044430 -->
<g id="edge11" class="edge">
<title>GO:0099513&#45;&gt;GO:0044430</title>
<path fill="none" stroke="#000000" d="M129.6797,-222.0165C133.2161,-237.7468 137.5772,-257.1449 141.1694,-273.1227"/>
<polygon fill="#000000" stroke="#000000" points="137.7942,-274.0668 143.4025,-283.0556 144.6237,-272.5313 137.7942,-274.0668"/>
</g>
<!-- GO:0099512 -->
<g id="node14" class="node">
<title>GO:0099512</title>
<polygon fill="#ffffff" stroke="#000000" points="132.3338,-607.8019 -.1114,-607.8019 -.1114,-566.5981 132.3338,-566.5981 132.3338,-607.8019"/>
<text text-anchor="middle" x="66.1112" y="-591.4" font-family="Times,serif" font-size="14.00" fill="#000000">GO:0099512</text>
<text text-anchor="middle" x="66.1112" y="-574.6" font-family="Times,serif" font-size="14.00" fill="#000000">supramolecular fiber</text>
</g>
<!-- GO:0099513&#45;&gt;GO:0099512 -->
<g id="edge12" class="edge">
<title>GO:0099513&#45;&gt;GO:0099512</title>
<path fill="none" stroke="#000000" d="M104.4147,-222.0733C97.0415,-235.1257 89.3362,-251.0071 85.1112,-266.4 56.8094,-369.511 60.2342,-498.0285 63.7443,-556.1248"/>
<polygon fill="#000000" stroke="#000000" points="60.2744,-556.7024 64.4156,-566.4543 67.2596,-556.2484 60.2744,-556.7024"/>
</g>
<!-- GO:0044446&#45;&gt;GO:0044424 -->
<g id="edge13" class="edge">
<title>GO:0044446&#45;&gt;GO:0044424</title>
<path fill="none" stroke="#000000" d="M274.6419,-436.0223C302.2126,-448.9068 334.2797,-463.8926 360.7091,-476.2438"/>
<polygon fill="#000000" stroke="#000000" points="359.2645,-479.4319 369.8058,-480.4949 362.2281,-473.0903 359.2645,-479.4319"/>
</g>
<!-- GO:0044422 -->
<g id="node15" class="node">
<title>GO:0044422</title>
<polygon fill="#ffffff" stroke="#000000" points="243.9633,-607.8019 150.2591,-607.8019 150.2591,-566.5981 243.9633,-566.5981 243.9633,-607.8019"/>
<text text-anchor="middle" x="197.1112" y="-591.4" font-family="Times,serif" font-size="14.00" fill="#000000">GO:0044422</text>
<text text-anchor="middle" x="197.1112" y="-574.6" font-family="Times,serif" font-size="14.00" fill="#000000">organelle part</text>
</g>
<!-- GO:0044446&#45;&gt;GO:0044422 -->
<g id="edge14" class="edge">
<title>GO:0044446&#45;&gt;GO:0044422</title>
<path fill="none" stroke="#000000" d="M209.6678,-436.1859C206.9186,-469.2492 202.4728,-522.7182 199.6751,-556.3643"/>
<polygon fill="#000000" stroke="#000000" points="196.1697,-556.2852 198.829,-566.5409 203.1457,-556.8653 196.1697,-556.2852"/>
</g>
<!-- GO:0044430&#45;&gt;GO:0044446 -->
<g id="edge15" class="edge">
<title>GO:0044430&#45;&gt;GO:0044446</title>
<path fill="none" stroke="#000000" d="M161.0626,-324.8031C168.94,-337.4563 179.239,-353.999 188.5216,-368.9092"/>
<polygon fill="#000000" stroke="#000000" points="185.5872,-370.8183 193.8436,-377.4577 191.5297,-367.1187 185.5872,-370.8183"/>
</g>
<!-- GO:0099512&#45;&gt;GO:0005575 -->
<g id="edge16" class="edge">
<title>GO:0099512&#45;&gt;GO:0005575</title>
<path fill="none" stroke="#000000" d="M130.1115,-607.8934C161.7077,-618.1095 199.9807,-630.4845 232.7558,-641.0817"/>
<polygon fill="#000000" stroke="#000000" points="231.6975,-644.4179 242.2893,-644.1642 233.8511,-637.7574 231.6975,-644.4179"/>
</g>
<!-- GO:0044422&#45;&gt;GO:0005575 -->
<g id="edge17" class="edge">
<title>GO:0044422&#45;&gt;GO:0005575</title>
<path fill="none" stroke="#000000" d="M226.3212,-607.9954C239.2723,-617.2156 254.6716,-628.1788 268.4713,-638.0031"/>
<polygon fill="#000000" stroke="#000000" points="266.6442,-640.9988 276.8206,-643.9472 270.704,-635.2963 266.6442,-640.9988"/>
</g>
<!-- GO:0005886 -->
<g id="node16" class="node">
<title>GO:0005886</title>
<polygon fill="#ffffff" stroke="#000000" points="341.352,-521.8019 222.8704,-521.8019 222.8704,-480.5981 341.352,-480.5981 341.352,-521.8019"/>
<text text-anchor="middle" x="282.1112" y="-505.4" font-family="Times,serif" font-size="14.00" fill="#000000">GO:0005886</text>
<text text-anchor="middle" x="282.1112" y="-488.6" font-family="Times,serif" font-size="14.00" fill="#000000">plasma membrane</text>
</g>
<!-- GO:0005886&#45;&gt;GO:0044464 -->
<g id="edge19" class="edge">
<title>GO:0005886&#45;&gt;GO:0044464</title>
<path fill="none" stroke="#000000" d="M314.0647,-522.0182C332.0621,-533.7437 354.7106,-548.4996 373.905,-561.0051"/>
<polygon fill="#000000" stroke="#000000" points="372.1627,-564.0472 382.4519,-566.5735 375.9839,-558.1821 372.1627,-564.0472"/>
</g>
<!-- GO:0016020 -->
<g id="node17" class="node">
<title>GO:0016020</title>
<polygon fill="#ffffff" stroke="#000000" points="350.7151,-607.8019 261.5073,-607.8019 261.5073,-566.5981 350.7151,-566.5981 350.7151,-607.8019"/>
<text text-anchor="middle" x="306.1112" y="-591.4" font-family="Times,serif" font-size="14.00" fill="#000000">GO:0016020</text>
<text text-anchor="middle" x="306.1112" y="-574.6" font-family="Times,serif" font-size="14.00" fill="#000000">membrane</text>
</g>
<!-- GO:0005886&#45;&gt;GO:0016020 -->
<g id="edge18" class="edge">
<title>GO:0005886&#45;&gt;GO:0016020</title>
<path fill="none" stroke="#000000" d="M287.9209,-522.0182C290.8394,-532.4761 294.4306,-545.3446 297.649,-556.877"/>
<polygon fill="#000000" stroke="#000000" points="294.2957,-557.8824 300.355,-566.5735 301.0381,-556.0007 294.2957,-557.8824"/>
</g>
<!-- GO:0016020&#45;&gt;GO:0005575 -->
<g id="edge20" class="edge">
<title>GO:0016020&#45;&gt;GO:0005575</title>
<path fill="none" stroke="#000000" d="M306.1112,-607.9954C306.1112,-615.9109 306.1112,-625.1109 306.1112,-633.7722"/>
<polygon fill="#000000" stroke="#000000" points="302.6113,-633.9472 306.1112,-643.9472 309.6113,-633.9473 302.6113,-633.9472"/>
</g>
<!-- GO:0071575 -->
<g id="node18" class="node">
<title>GO:0071575</title>
<polygon fill="#ffffff" stroke="#000000" points="864.0629,-230.5003 718.1595,-230.5003 718.1595,-155.0997 864.0629,-155.0997 864.0629,-230.5003"/>
<text text-anchor="middle" x="791.1112" y="-213.8" font-family="Times,serif" font-size="14.00" fill="#000000">GO:0071575</text>
<text text-anchor="middle" x="791.1112" y="-197" font-family="Times,serif" font-size="14.00" fill="#000000">integral component of</text>
<text text-anchor="middle" x="791.1112" y="-180.2" font-family="Times,serif" font-size="14.00" fill="#000000">external side of plasma</text>
<text text-anchor="middle" x="791.1112" y="-163.4" font-family="Times,serif" font-size="14.00" fill="#000000">membrane</text>
</g>
<!-- GO:0031233 -->
<g id="node19" class="node">
<title>GO:0031233</title>
<polygon fill="#ffffff" stroke="#000000" points="784.0629,-341.7003 638.1595,-341.7003 638.1595,-266.2997 784.0629,-266.2997 784.0629,-341.7003"/>
<text text-anchor="middle" x="711.1112" y="-325" font-family="Times,serif" font-size="14.00" fill="#000000">GO:0031233</text>
<text text-anchor="middle" x="711.1112" y="-308.2" font-family="Times,serif" font-size="14.00" fill="#000000">intrinsic component of</text>
<text text-anchor="middle" x="711.1112" y="-291.4" font-family="Times,serif" font-size="14.00" fill="#000000">external side of plasma</text>
<text text-anchor="middle" x="711.1112" y="-274.6" font-family="Times,serif" font-size="14.00" fill="#000000">membrane</text>
</g>
<!-- GO:0071575&#45;&gt;GO:0031233 -->
<g id="edge21" class="edge">
<title>GO:0071575&#45;&gt;GO:0031233</title>
<path fill="none" stroke="#000000" d="M764.0268,-230.4472C757.6411,-239.3235 750.7633,-248.8835 744.1478,-258.0791"/>
<polygon fill="#000000" stroke="#000000" points="741.1665,-256.2299 738.1677,-266.3915 746.8488,-260.3179 741.1665,-256.2299"/>
</g>
<!-- GO:0005887 -->
<g id="node20" class="node">
<title>GO:0005887</title>
<polygon fill="#ffffff" stroke="#000000" points="941.7443,-333.4014 802.4781,-333.4014 802.4781,-274.5986 941.7443,-274.5986 941.7443,-333.4014"/>
<text text-anchor="middle" x="872.1112" y="-316.6" font-family="Times,serif" font-size="14.00" fill="#000000">GO:0005887</text>
<text text-anchor="middle" x="872.1112" y="-299.8" font-family="Times,serif" font-size="14.00" fill="#000000">integral component of</text>
<text text-anchor="middle" x="872.1112" y="-283" font-family="Times,serif" font-size="14.00" fill="#000000">plasma membrane</text>
</g>
<!-- GO:0071575&#45;&gt;GO:0005887 -->
<g id="edge22" class="edge">
<title>GO:0071575&#45;&gt;GO:0005887</title>
<path fill="none" stroke="#000000" d="M818.5341,-230.4472C826.9546,-242.0072 836.2199,-254.727 844.6434,-266.2911"/>
<polygon fill="#000000" stroke="#000000" points="841.8872,-268.4519 850.6041,-274.4742 847.5453,-264.3305 841.8872,-268.4519"/>
</g>
<!-- GO:0031226 -->
<g id="node21" class="node">
<title>GO:0031226</title>
<polygon fill="#ffffff" stroke="#000000" points="784.3646,-436.2014 641.8578,-436.2014 641.8578,-377.3986 784.3646,-377.3986 784.3646,-436.2014"/>
<text text-anchor="middle" x="713.1112" y="-419.4" font-family="Times,serif" font-size="14.00" fill="#000000">GO:0031226</text>
<text text-anchor="middle" x="713.1112" y="-402.6" font-family="Times,serif" font-size="14.00" fill="#000000">intrinsic component of</text>
<text text-anchor="middle" x="713.1112" y="-385.8" font-family="Times,serif" font-size="14.00" fill="#000000">plasma membrane</text>
</g>
<!-- GO:0031233&#45;&gt;GO:0031226 -->
<g id="edge23" class="edge">
<title>GO:0031233&#45;&gt;GO:0031226</title>
<path fill="none" stroke="#000000" d="M711.8446,-341.6952C712.0078,-350.0874 712.1813,-359.0054 712.3459,-367.4618"/>
<polygon fill="#000000" stroke="#000000" points="708.8468,-367.5514 712.5408,-377.4814 715.8455,-367.4151 708.8468,-367.5514"/>
</g>
<!-- GO:0005887&#45;&gt;GO:0031226 -->
<g id="edge25" class="edge">
<title>GO:0005887&#45;&gt;GO:0031226</title>
<path fill="none" stroke="#000000" d="M826.5482,-333.4584C807.9229,-345.5004 786.2382,-359.5204 766.8466,-372.0578"/>
<polygon fill="#000000" stroke="#000000" points="764.9032,-369.1465 758.4058,-377.5152 768.7038,-375.0249 764.9032,-369.1465"/>
</g>
<!-- GO:0016021 -->
<g id="node22" class="node">
<title>GO:0016021</title>
<polygon fill="#ffffff" stroke="#000000" points="941.7443,-436.2014 802.4781,-436.2014 802.4781,-377.3986 941.7443,-377.3986 941.7443,-436.2014"/>
<text text-anchor="middle" x="872.1112" y="-419.4" font-family="Times,serif" font-size="14.00" fill="#000000">GO:0016021</text>
<text text-anchor="middle" x="872.1112" y="-402.6" font-family="Times,serif" font-size="14.00" fill="#000000">integral component of</text>
<text text-anchor="middle" x="872.1112" y="-385.8" font-family="Times,serif" font-size="14.00" fill="#000000">membrane</text>
</g>
<!-- GO:0005887&#45;&gt;GO:0016021 -->
<g id="edge24" class="edge">
<title>GO:0005887&#45;&gt;GO:0016021</title>
<path fill="none" stroke="#000000" d="M872.1112,-333.4584C872.1112,-343.9969 872.1112,-356.0505 872.1112,-367.2994"/>
<polygon fill="#000000" stroke="#000000" points="868.6113,-367.3373 872.1112,-377.3373 875.6113,-367.3374 868.6113,-367.3373"/>
</g>
<!-- GO:0044459 -->
<g id="node23" class="node">
<title>GO:0044459</title>
<polygon fill="#ffffff" stroke="#000000" points="763.6184,-521.8019 620.604,-521.8019 620.604,-480.5981 763.6184,-480.5981 763.6184,-521.8019"/>
<text text-anchor="middle" x="692.1112" y="-505.4" font-family="Times,serif" font-size="14.00" fill="#000000">GO:0044459</text>
<text text-anchor="middle" x="692.1112" y="-488.6" font-family="Times,serif" font-size="14.00" fill="#000000">plasma membrane part</text>
</g>
<!-- GO:0031226&#45;&gt;GO:0044459 -->
<g id="edge26" class="edge">
<title>GO:0031226&#45;&gt;GO:0044459</title>
<path fill="none" stroke="#000000" d="M706.5818,-436.1513C704.1547,-447.0614 701.3958,-459.4637 698.9424,-470.492"/>
<polygon fill="#000000" stroke="#000000" points="695.4598,-470.0295 696.7047,-480.551 702.2928,-471.5496 695.4598,-470.0295"/>
</g>
<!-- GO:0031224 -->
<g id="node24" class="node">
<title>GO:0031224</title>
<polygon fill="#ffffff" stroke="#000000" points="924.3646,-530.6014 781.8578,-530.6014 781.8578,-471.7986 924.3646,-471.7986 924.3646,-530.6014"/>
<text text-anchor="middle" x="853.1112" y="-513.8" font-family="Times,serif" font-size="14.00" fill="#000000">GO:0031224</text>
<text text-anchor="middle" x="853.1112" y="-497" font-family="Times,serif" font-size="14.00" fill="#000000">intrinsic component of</text>
<text text-anchor="middle" x="853.1112" y="-480.2" font-family="Times,serif" font-size="14.00" fill="#000000">membrane</text>
</g>
<!-- GO:0031226&#45;&gt;GO:0031224 -->
<g id="edge27" class="edge">
<title>GO:0031226&#45;&gt;GO:0031224</title>
<path fill="none" stroke="#000000" d="M756.6407,-436.1513C770.7315,-445.6525 786.5005,-456.2854 801.1405,-466.1569"/>
<polygon fill="#000000" stroke="#000000" points="799.3607,-469.1781 809.6087,-471.8669 803.2742,-463.3742 799.3607,-469.1781"/>
</g>
<!-- GO:0016021&#45;&gt;GO:0031224 -->
<g id="edge28" class="edge">
<title>GO:0016021&#45;&gt;GO:0031224</title>
<path fill="none" stroke="#000000" d="M866.2036,-436.1513C864.5594,-444.3206 862.7468,-453.3264 861.0079,-461.9657"/>
<polygon fill="#000000" stroke="#000000" points="857.5571,-461.3728 859.0151,-471.8669 864.4195,-462.7541 857.5571,-461.3728"/>
</g>
<!-- GO:0044459&#45;&gt;GO:0044464 -->
<g id="edge30" class="edge">
<title>GO:0044459&#45;&gt;GO:0044464</title>
<path fill="none" stroke="#000000" d="M636.0638,-521.9406C627.7286,-524.8691 619.2169,-527.7735 611.1112,-530.4 563.3508,-545.8757 508.4173,-561.5406 468.7132,-572.4884"/>
<polygon fill="#000000" stroke="#000000" points="467.6765,-569.1434 458.9607,-575.1671 469.5306,-575.8934 467.6765,-569.1434"/>
</g>
<!-- GO:0044425 -->
<g id="node25" class="node">
<title>GO:0044425</title>
<polygon fill="#ffffff" stroke="#000000" points="742.4632,-607.8019 641.7592,-607.8019 641.7592,-566.5981 742.4632,-566.5981 742.4632,-607.8019"/>
<text text-anchor="middle" x="692.1112" y="-591.4" font-family="Times,serif" font-size="14.00" fill="#000000">GO:0044425</text>
<text text-anchor="middle" x="692.1112" y="-574.6" font-family="Times,serif" font-size="14.00" fill="#000000">membrane part</text>
</g>
<!-- GO:0044459&#45;&gt;GO:0044425 -->
<g id="edge29" class="edge">
<title>GO:0044459&#45;&gt;GO:0044425</title>
<path fill="none" stroke="#000000" d="M692.1112,-522.0182C692.1112,-532.3705 692.1112,-545.0848 692.1112,-556.5271"/>
<polygon fill="#000000" stroke="#000000" points="688.6113,-556.5735 692.1112,-566.5735 695.6113,-556.5735 688.6113,-556.5735"/>
</g>
<!-- GO:0031224&#45;&gt;GO:0044425 -->
<g id="edge31" class="edge">
<title>GO:0031224&#45;&gt;GO:0044425</title>
<path fill="none" stroke="#000000" d="M798.1544,-530.5558C779.2957,-540.6294 758.3504,-551.8176 740.0892,-561.572"/>
<polygon fill="#000000" stroke="#000000" points="738.2579,-558.5821 731.0864,-566.3809 741.556,-564.7565 738.2579,-558.5821"/>
</g>
<!-- GO:0044425&#45;&gt;GO:0005575 -->
<g id="edge32" class="edge">
<title>GO:0044425&#45;&gt;GO:0005575</title>
<path fill="none" stroke="#000000" d="M641.6484,-597.3448C574.8598,-610.7718 456.6171,-634.5429 379.8242,-649.981"/>
<polygon fill="#000000" stroke="#000000" points="378.8537,-646.606 369.7397,-652.0084 380.2334,-653.4687 378.8537,-646.606"/>
</g>
</g>
</svg>
