<?xml version="1.0" encoding="UTF-8" standalone="no"?>
<!DOCTYPE svg PUBLIC "-//W3C//DTD SVG 1.1//EN"
 "http://www.w3.org/Graphics/SVG/1.1/DTD/svg11.dtd">
<!-- Generated by graphviz version 2.40.1 (20161225.0304)
 -->
<!-- Title: G Pages: 1 -->
<svg width="1261pt" height="744pt"
 viewBox="0.00 0.00 1261.22 744.00" xmlns="http://www.w3.org/2000/svg" xmlns:xlink="http://www.w3.org/1999/xlink">
<g id="graph0" class="graph" transform="scale(1 1) rotate(0) translate(4 740)">
<title>G</title>
<polygon fill="#ffffff" stroke="transparent" points="-4,4 -4,-740 1257.2238,-740 1257.2238,4 -4,4"/>
<!-- GO:0016881 -->
<g id="node1" class="node">
<title>GO:0016881</title>
<polygon fill="#ffffff" stroke="#000000" points="509.9016,-350.2014 367.9996,-350.2014 367.9996,-291.3986 509.9016,-291.3986 509.9016,-350.2014"/>
<text text-anchor="middle" x="438.9506" y="-333.4" font-family="Times,serif" font-size="14.00" fill="#000000">GO:0016881</text>
<text text-anchor="middle" x="438.9506" y="-316.6" font-family="Times,serif" font-size="14.00" fill="#000000">acid&#45;amino acid ligase</text>
<text text-anchor="middle" x="438.9506" y="-299.8" font-family="Times,serif" font-size="14.00" fill="#000000">activity</text>
</g>
<!-- GO:0016879 -->
<g id="node2" class="node">
<title>GO:0016879</title>
<polygon fill="#ffffff" stroke="#000000" points="512.1998,-469.8014 365.7014,-469.8014 365.7014,-410.9986 512.1998,-410.9986 512.1998,-469.8014"/>
<text text-anchor="middle" x="438.9506" y="-453" font-family="Times,serif" font-size="14.00" fill="#000000">GO:0016879</text>
<text text-anchor="middle" x="438.9506" y="-436.2" font-family="Times,serif" font-size="14.00" fill="#000000">ligase activity, forming</text>
<text text-anchor="middle" x="438.9506" y="-419.4" font-family="Times,serif" font-size="14.00" fill="#000000">carbon&#45;nitrogen bonds</text>
</g>
<!-- GO:0016881&#45;&gt;GO:0016879 -->
<g id="edge1" class="edge">
<title>GO:0016881&#45;&gt;GO:0016879</title>
<path fill="none" stroke="#000000" d="M438.9506,-350.0575C438.9506,-365.2608 438.9506,-384.0644 438.9506,-400.5735"/>
<polygon fill="#000000" stroke="#000000" points="435.4507,-401.03 438.9506,-411.0301 442.4507,-401.0301 435.4507,-401.03"/>
</g>
<!-- GO:0016874 -->
<g id="node3" class="node">
<title>GO:0016874</title>
<polygon fill="#ffffff" stroke="#000000" points="510.0973,-555.4019 415.8039,-555.4019 415.8039,-514.1981 510.0973,-514.1981 510.0973,-555.4019"/>
<text text-anchor="middle" x="462.9506" y="-539" font-family="Times,serif" font-size="14.00" fill="#000000">GO:0016874</text>
<text text-anchor="middle" x="462.9506" y="-522.2" font-family="Times,serif" font-size="14.00" fill="#000000">ligase activity</text>
</g>
<!-- GO:0016879&#45;&gt;GO:0016874 -->
<g id="edge2" class="edge">
<title>GO:0016879&#45;&gt;GO:0016874</title>
<path fill="none" stroke="#000000" d="M446.4128,-469.7513C449.2152,-480.7739 452.4047,-493.3196 455.2301,-504.4326"/>
<polygon fill="#000000" stroke="#000000" points="451.8447,-505.3217 457.7009,-514.151 458.6289,-503.5969 451.8447,-505.3217"/>
</g>
<!-- GO:0003824 -->
<g id="node4" class="node">
<title>GO:0003824</title>
<polygon fill="#ffffff" stroke="#000000" points="640.363,-649.8019 531.5382,-649.8019 531.5382,-608.5981 640.363,-608.5981 640.363,-649.8019"/>
<text text-anchor="middle" x="585.9506" y="-633.4" font-family="Times,serif" font-size="14.00" fill="#000000">GO:0003824</text>
<text text-anchor="middle" x="585.9506" y="-616.6" font-family="Times,serif" font-size="14.00" fill="#000000">catalytic activity</text>
</g>
<!-- GO:0016874&#45;&gt;GO:0003824 -->
<g id="edge3" class="edge">
<title>GO:0016874&#45;&gt;GO:0003824</title>
<path fill="none" stroke="#000000" d="M489.9435,-555.5165C507.8879,-569.2885 531.6273,-587.508 551.0101,-602.3839"/>
<polygon fill="#000000" stroke="#000000" points="548.9568,-605.22 559.0207,-608.5318 553.2187,-599.6669 548.9568,-605.22"/>
</g>
<!-- GO:0003674 -->
<g id="node5" class="node">
<title>GO:0003674</title>
<polygon fill="#ffffff" stroke="#000000" points="715.5837,-735.8019 590.3175,-735.8019 590.3175,-694.5981 715.5837,-694.5981 715.5837,-735.8019"/>
<text text-anchor="middle" x="652.9506" y="-719.4" font-family="Times,serif" font-size="14.00" fill="#000000">GO:0003674</text>
<text text-anchor="middle" x="652.9506" y="-702.6" font-family="Times,serif" font-size="14.00" fill="#000000">molecular_function</text>
</g>
<!-- GO:0003824&#45;&gt;GO:0003674 -->
<g id="edge4" class="edge">
<title>GO:0003824&#45;&gt;GO:0003674</title>
<path fill="none" stroke="#000000" d="M602.1694,-650.0182C610.7284,-661.0043 621.3598,-674.6506 630.6798,-686.6137"/>
<polygon fill="#000000" stroke="#000000" points="627.9743,-688.8359 636.8811,-694.5735 633.4963,-684.5339 627.9743,-688.8359"/>
</g>
<!-- GO:0016887 -->
<g id="node6" class="node">
<title>GO:0016887</title>
<polygon fill="#ffffff" stroke="#000000" points="662.758,-41.4019 557.1432,-41.4019 557.1432,-.1981 662.758,-.1981 662.758,-41.4019"/>
<text text-anchor="middle" x="609.9506" y="-25" font-family="Times,serif" font-size="14.00" fill="#000000">GO:0016887</text>
<text text-anchor="middle" x="609.9506" y="-8.2" font-family="Times,serif" font-size="14.00" fill="#000000">ATPase activity</text>
</g>
<!-- GO:0017111 -->
<g id="node7" class="node">
<title>GO:0017111</title>
<polygon fill="#ffffff" stroke="#000000" points="690.8467,-136.2014 529.0545,-136.2014 529.0545,-77.3986 690.8467,-77.3986 690.8467,-136.2014"/>
<text text-anchor="middle" x="609.9506" y="-119.4" font-family="Times,serif" font-size="14.00" fill="#000000">GO:0017111</text>
<text text-anchor="middle" x="609.9506" y="-102.6" font-family="Times,serif" font-size="14.00" fill="#000000">nucleoside&#45;triphosphatase</text>
<text text-anchor="middle" x="609.9506" y="-85.8" font-family="Times,serif" font-size="14.00" fill="#000000">activity</text>
</g>
<!-- GO:0016887&#45;&gt;GO:0017111 -->
<g id="edge5" class="edge">
<title>GO:0016887&#45;&gt;GO:0017111</title>
<path fill="none" stroke="#000000" d="M609.9506,-41.6182C609.9506,-49.3358 609.9506,-58.3662 609.9506,-67.2036"/>
<polygon fill="#000000" stroke="#000000" points="606.4507,-67.3991 609.9506,-77.3991 613.4507,-67.3992 606.4507,-67.3991"/>
</g>
<!-- GO:0016462 -->
<g id="node8" class="node">
<title>GO:0016462</title>
<polygon fill="#ffffff" stroke="#000000" points="687.527,-221.8019 532.3742,-221.8019 532.3742,-180.5981 687.527,-180.5981 687.527,-221.8019"/>
<text text-anchor="middle" x="609.9506" y="-205.4" font-family="Times,serif" font-size="14.00" fill="#000000">GO:0016462</text>
<text text-anchor="middle" x="609.9506" y="-188.6" font-family="Times,serif" font-size="14.00" fill="#000000">pyrophosphatase activity</text>
</g>
<!-- GO:0017111&#45;&gt;GO:0016462 -->
<g id="edge6" class="edge">
<title>GO:0017111&#45;&gt;GO:0016462</title>
<path fill="none" stroke="#000000" d="M609.9506,-136.1513C609.9506,-147.0614 609.9506,-159.4637 609.9506,-170.492"/>
<polygon fill="#000000" stroke="#000000" points="606.4507,-170.5509 609.9506,-180.551 613.4507,-170.551 606.4507,-170.5509"/>
</g>
<!-- GO:0016818 -->
<g id="node9" class="node">
<title>GO:0016818</title>
<polygon fill="#ffffff" stroke="#000000" points="682.2623,-375.1002 537.6389,-375.1002 537.6389,-266.4998 682.2623,-266.4998 682.2623,-375.1002"/>
<text text-anchor="middle" x="609.9506" y="-358.6" font-family="Times,serif" font-size="14.00" fill="#000000">GO:0016818</text>
<text text-anchor="middle" x="609.9506" y="-341.8" font-family="Times,serif" font-size="14.00" fill="#000000">hydrolase activity,</text>
<text text-anchor="middle" x="609.9506" y="-325" font-family="Times,serif" font-size="14.00" fill="#000000">acting on acid</text>
<text text-anchor="middle" x="609.9506" y="-308.2" font-family="Times,serif" font-size="14.00" fill="#000000">anhydrides, in</text>
<text text-anchor="middle" x="609.9506" y="-291.4" font-family="Times,serif" font-size="14.00" fill="#000000">phosphorus&#45;containing</text>
<text text-anchor="middle" x="609.9506" y="-274.6" font-family="Times,serif" font-size="14.00" fill="#000000">anhydrides</text>
</g>
<!-- GO:0016462&#45;&gt;GO:0016818 -->
<g id="edge7" class="edge">
<title>GO:0016462&#45;&gt;GO:0016818</title>
<path fill="none" stroke="#000000" d="M609.9506,-222.0327C609.9506,-231.6534 609.9506,-243.6573 609.9506,-255.948"/>
<polygon fill="#000000" stroke="#000000" points="606.4507,-256.2935 609.9506,-266.2935 613.4507,-256.2935 606.4507,-256.2935"/>
</g>
<!-- GO:0016817 -->
<g id="node10" class="node">
<title>GO:0016817</title>
<polygon fill="#ffffff" stroke="#000000" points="689.9065,-469.8014 529.9947,-469.8014 529.9947,-410.9986 689.9065,-410.9986 689.9065,-469.8014"/>
<text text-anchor="middle" x="609.9506" y="-453" font-family="Times,serif" font-size="14.00" fill="#000000">GO:0016817</text>
<text text-anchor="middle" x="609.9506" y="-436.2" font-family="Times,serif" font-size="14.00" fill="#000000">hydrolase activity,</text>
<text text-anchor="middle" x="609.9506" y="-419.4" font-family="Times,serif" font-size="14.00" fill="#000000">acting on acid anhydrides</text>
</g>
<!-- GO:0016818&#45;&gt;GO:0016817 -->
<g id="edge8" class="edge">
<title>GO:0016818&#45;&gt;GO:0016817</title>
<path fill="none" stroke="#000000" d="M609.9506,-375.3502C609.9506,-384.0138 609.9506,-392.8255 609.9506,-401.0504"/>
<polygon fill="#000000" stroke="#000000" points="606.4507,-401.0995 609.9506,-411.0995 613.4507,-401.0995 606.4507,-401.0995"/>
</g>
<!-- GO:0016787 -->
<g id="node11" class="node">
<title>GO:0016787</title>
<polygon fill="#ffffff" stroke="#000000" points="643.8672,-555.4019 528.034,-555.4019 528.034,-514.1981 643.8672,-514.1981 643.8672,-555.4019"/>
<text text-anchor="middle" x="585.9506" y="-539" font-family="Times,serif" font-size="14.00" fill="#000000">GO:0016787</text>
<text text-anchor="middle" x="585.9506" y="-522.2" font-family="Times,serif" font-size="14.00" fill="#000000">hydrolase activity</text>
</g>
<!-- GO:0016817&#45;&gt;GO:0016787 -->
<g id="edge9" class="edge">
<title>GO:0016817&#45;&gt;GO:0016787</title>
<path fill="none" stroke="#000000" d="M602.4884,-469.7513C599.686,-480.7739 596.4965,-493.3196 593.6711,-504.4326"/>
<polygon fill="#000000" stroke="#000000" points="590.2723,-503.5969 591.2003,-514.151 597.0565,-505.3217 590.2723,-503.5969"/>
</g>
<!-- GO:0016787&#45;&gt;GO:0003824 -->
<g id="edge10" class="edge">
<title>GO:0016787&#45;&gt;GO:0003824</title>
<path fill="none" stroke="#000000" d="M585.9506,-555.7504C585.9506,-568.2165 585.9506,-584.2645 585.9506,-598.1786"/>
<polygon fill="#000000" stroke="#000000" points="582.4507,-598.3081 585.9506,-608.3081 589.4507,-598.3082 582.4507,-598.3081"/>
</g>
<!-- GO:0097367 -->
<g id="node12" class="node">
<title>GO:0097367</title>
<polygon fill="#ffffff" stroke="#000000" points="397.9977,-564.2014 249.9035,-564.2014 249.9035,-505.3986 397.9977,-505.3986 397.9977,-564.2014"/>
<text text-anchor="middle" x="323.9506" y="-547.4" font-family="Times,serif" font-size="14.00" fill="#000000">GO:0097367</text>
<text text-anchor="middle" x="323.9506" y="-530.6" font-family="Times,serif" font-size="14.00" fill="#000000">carbohydrate derivative</text>
<text text-anchor="middle" x="323.9506" y="-513.8" font-family="Times,serif" font-size="14.00" fill="#000000">binding</text>
</g>
<!-- GO:0005488 -->
<g id="node13" class="node">
<title>GO:0005488</title>
<polygon fill="#ffffff" stroke="#000000" points="368.5545,-649.8019 279.3467,-649.8019 279.3467,-608.5981 368.5545,-608.5981 368.5545,-649.8019"/>
<text text-anchor="middle" x="323.9506" y="-633.4" font-family="Times,serif" font-size="14.00" fill="#000000">GO:0005488</text>
<text text-anchor="middle" x="323.9506" y="-616.6" font-family="Times,serif" font-size="14.00" fill="#000000">binding</text>
</g>
<!-- GO:0097367&#45;&gt;GO:0005488 -->
<g id="edge11" class="edge">
<title>GO:0097367&#45;&gt;GO:0005488</title>
<path fill="none" stroke="#000000" d="M323.9506,-564.1513C323.9506,-575.0614 323.9506,-587.4637 323.9506,-598.492"/>
<polygon fill="#000000" stroke="#000000" points="320.4507,-598.5509 323.9506,-608.551 327.4507,-598.551 320.4507,-598.5509"/>
</g>
<!-- GO:0005488&#45;&gt;GO:0003674 -->
<g id="edge12" class="edge">
<title>GO:0005488&#45;&gt;GO:0003674</title>
<path fill="none" stroke="#000000" d="M368.6634,-640.8878C423.059,-655.1068 515.6216,-679.3025 580.3017,-696.2097"/>
<polygon fill="#000000" stroke="#000000" points="579.4732,-699.6107 590.0333,-698.7535 581.2436,-692.8382 579.4732,-699.6107"/>
</g>
<!-- GO:0030546 -->
<g id="node14" class="node">
<title>GO:0030546</title>
<polygon fill="#ffffff" stroke="#000000" points="909.2829,-469.8014 794.6183,-469.8014 794.6183,-410.9986 909.2829,-410.9986 909.2829,-469.8014"/>
<text text-anchor="middle" x="851.9506" y="-453" font-family="Times,serif" font-size="14.00" fill="#000000">GO:0030546</text>
<text text-anchor="middle" x="851.9506" y="-436.2" font-family="Times,serif" font-size="14.00" fill="#000000">receptor activator</text>
<text text-anchor="middle" x="851.9506" y="-419.4" font-family="Times,serif" font-size="14.00" fill="#000000">activity</text>
</g>
<!-- GO:0030545 -->
<g id="node15" class="node">
<title>GO:0030545</title>
<polygon fill="#ffffff" stroke="#000000" points="909.8379,-564.2014 794.0633,-564.2014 794.0633,-505.3986 909.8379,-505.3986 909.8379,-564.2014"/>
<text text-anchor="middle" x="851.9506" y="-547.4" font-family="Times,serif" font-size="14.00" fill="#000000">GO:0030545</text>
<text text-anchor="middle" x="851.9506" y="-530.6" font-family="Times,serif" font-size="14.00" fill="#000000">receptor regulator</text>
<text text-anchor="middle" x="851.9506" y="-513.8" font-family="Times,serif" font-size="14.00" fill="#000000">activity</text>
</g>
<!-- GO:0030546&#45;&gt;GO:0030545 -->
<g id="edge13" class="edge">
<title>GO:0030546&#45;&gt;GO:0030545</title>
<path fill="none" stroke="#000000" d="M851.9506,-469.7513C851.9506,-477.8318 851.9506,-486.7308 851.9506,-495.2838"/>
<polygon fill="#000000" stroke="#000000" points="848.4507,-495.4668 851.9506,-505.4669 855.4507,-495.4669 848.4507,-495.4668"/>
</g>
<!-- GO:0098772 -->
<g id="node16" class="node">
<title>GO:0098772</title>
<polygon fill="#ffffff" stroke="#000000" points="847.0833,-658.6014 724.8179,-658.6014 724.8179,-599.7986 847.0833,-599.7986 847.0833,-658.6014"/>
<text text-anchor="middle" x="785.9506" y="-641.8" font-family="Times,serif" font-size="14.00" fill="#000000">GO:0098772</text>
<text text-anchor="middle" x="785.9506" y="-625" font-family="Times,serif" font-size="14.00" fill="#000000">molecular function</text>
<text text-anchor="middle" x="785.9506" y="-608.2" font-family="Times,serif" font-size="14.00" fill="#000000">regulator</text>
</g>
<!-- GO:0030545&#45;&gt;GO:0098772 -->
<g id="edge14" class="edge">
<title>GO:0030545&#45;&gt;GO:0098772</title>
<path fill="none" stroke="#000000" d="M831.4296,-564.1513C825.3455,-572.8534 818.5977,-582.5047 812.2031,-591.6509"/>
<polygon fill="#000000" stroke="#000000" points="809.3205,-589.6658 806.4589,-599.8669 815.0574,-593.6768 809.3205,-589.6658"/>
</g>
<!-- GO:0098772&#45;&gt;GO:0003674 -->
<g id="edge15" class="edge">
<title>GO:0098772&#45;&gt;GO:0003674</title>
<path fill="none" stroke="#000000" d="M740.5515,-658.5558C725.3283,-668.3994 708.4591,-679.3073 693.6213,-688.9017"/>
<polygon fill="#000000" stroke="#000000" points="691.6444,-686.0119 685.1475,-694.3809 695.4454,-691.8901 691.6444,-686.0119"/>
</g>
<!-- GO:0031701 -->
<g id="node17" class="node">
<title>GO:0031701</title>
<polygon fill="#ffffff" stroke="#000000" points="129.8518,-230.6014 .0494,-230.6014 .0494,-171.7986 129.8518,-171.7986 129.8518,-230.6014"/>
<text text-anchor="middle" x="64.9506" y="-213.8" font-family="Times,serif" font-size="14.00" fill="#000000">GO:0031701</text>
<text text-anchor="middle" x="64.9506" y="-197" font-family="Times,serif" font-size="14.00" fill="#000000">angiotensin receptor</text>
<text text-anchor="middle" x="64.9506" y="-180.2" font-family="Times,serif" font-size="14.00" fill="#000000">binding</text>
</g>
<!-- GO:0001664 -->
<g id="node18" class="node">
<title>GO:0001664</title>
<polygon fill="#ffffff" stroke="#000000" points="124.1943,-350.2014 5.7069,-350.2014 5.7069,-291.3986 124.1943,-291.3986 124.1943,-350.2014"/>
<text text-anchor="middle" x="64.9506" y="-333.4" font-family="Times,serif" font-size="14.00" fill="#000000">GO:0001664</text>
<text text-anchor="middle" x="64.9506" y="-316.6" font-family="Times,serif" font-size="14.00" fill="#000000">G&#45;protein coupled</text>
<text text-anchor="middle" x="64.9506" y="-299.8" font-family="Times,serif" font-size="14.00" fill="#000000">receptor binding</text>
</g>
<!-- GO:0031701&#45;&gt;GO:0001664 -->
<g id="edge16" class="edge">
<title>GO:0031701&#45;&gt;GO:0001664</title>
<path fill="none" stroke="#000000" d="M64.9506,-230.4575C64.9506,-245.6608 64.9506,-264.4644 64.9506,-280.9735"/>
<polygon fill="#000000" stroke="#000000" points="61.4507,-281.43 64.9506,-291.4301 68.4507,-281.4301 61.4507,-281.43"/>
</g>
<!-- GO:0005102 -->
<g id="node19" class="node">
<title>GO:0005102</title>
<polygon fill="#ffffff" stroke="#000000" points="119.0875,-461.0019 10.8137,-461.0019 10.8137,-419.7981 119.0875,-419.7981 119.0875,-461.0019"/>
<text text-anchor="middle" x="64.9506" y="-444.6" font-family="Times,serif" font-size="14.00" fill="#000000">GO:0005102</text>
<text text-anchor="middle" x="64.9506" y="-427.8" font-family="Times,serif" font-size="14.00" fill="#000000">receptor binding</text>
</g>
<!-- GO:0001664&#45;&gt;GO:0005102 -->
<g id="edge17" class="edge">
<title>GO:0001664&#45;&gt;GO:0005102</title>
<path fill="none" stroke="#000000" d="M64.9506,-350.0575C64.9506,-368.094 64.9506,-391.1977 64.9506,-409.5259"/>
<polygon fill="#000000" stroke="#000000" points="61.4507,-409.691 64.9506,-419.691 68.4507,-409.6911 61.4507,-409.691"/>
</g>
<!-- GO:0005515 -->
<g id="node20" class="node">
<title>GO:0005515</title>
<polygon fill="#ffffff" stroke="#000000" points="231.8882,-555.4019 130.013,-555.4019 130.013,-514.1981 231.8882,-514.1981 231.8882,-555.4019"/>
<text text-anchor="middle" x="180.9506" y="-539" font-family="Times,serif" font-size="14.00" fill="#000000">GO:0005515</text>
<text text-anchor="middle" x="180.9506" y="-522.2" font-family="Times,serif" font-size="14.00" fill="#000000">protein binding</text>
</g>
<!-- GO:0005102&#45;&gt;GO:0005515 -->
<g id="edge18" class="edge">
<title>GO:0005102&#45;&gt;GO:0005515</title>
<path fill="none" stroke="#000000" d="M90.4073,-461.1165C107.1794,-474.7655 129.3195,-492.783 147.508,-507.5846"/>
<polygon fill="#000000" stroke="#000000" points="145.5878,-510.5345 155.5533,-514.1318 150.0062,-505.1052 145.5878,-510.5345"/>
</g>
<!-- GO:0005515&#45;&gt;GO:0005488 -->
<g id="edge19" class="edge">
<title>GO:0005515&#45;&gt;GO:0005488</title>
<path fill="none" stroke="#000000" d="M212.3326,-555.5165C233.4742,-569.4729 261.5348,-587.9968 284.2314,-602.9798"/>
<polygon fill="#000000" stroke="#000000" points="282.368,-605.9435 292.6418,-608.5318 286.2245,-600.1016 282.368,-605.9435"/>
</g>
<!-- GO:0004866 -->
<g id="node21" class="node">
<title>GO:0004866</title>
<polygon fill="#ffffff" stroke="#000000" points="1147.7579,-230.6014 1000.1433,-230.6014 1000.1433,-171.7986 1147.7579,-171.7986 1147.7579,-230.6014"/>
<text text-anchor="middle" x="1073.9506" y="-213.8" font-family="Times,serif" font-size="14.00" fill="#000000">GO:0004866</text>
<text text-anchor="middle" x="1073.9506" y="-197" font-family="Times,serif" font-size="14.00" fill="#000000">endopeptidase inhibitor</text>
<text text-anchor="middle" x="1073.9506" y="-180.2" font-family="Times,serif" font-size="14.00" fill="#000000">activity</text>
</g>
<!-- GO:0061135 -->
<g id="node22" class="node">
<title>GO:0061135</title>
<polygon fill="#ffffff" stroke="#000000" points="1073.0664,-350.2014 922.8348,-350.2014 922.8348,-291.3986 1073.0664,-291.3986 1073.0664,-350.2014"/>
<text text-anchor="middle" x="997.9506" y="-333.4" font-family="Times,serif" font-size="14.00" fill="#000000">GO:0061135</text>
<text text-anchor="middle" x="997.9506" y="-316.6" font-family="Times,serif" font-size="14.00" fill="#000000">endopeptidase regulator</text>
<text text-anchor="middle" x="997.9506" y="-299.8" font-family="Times,serif" font-size="14.00" fill="#000000">activity</text>
</g>
<!-- GO:0004866&#45;&gt;GO:0061135 -->
<g id="edge20" class="edge">
<title>GO:0004866&#45;&gt;GO:0061135</title>
<path fill="none" stroke="#000000" d="M1055.3589,-230.4575C1045.3299,-246.2399 1032.8354,-265.9023 1022.066,-282.8499"/>
<polygon fill="#000000" stroke="#000000" points="1019.023,-281.1128 1016.6138,-291.4301 1024.9311,-284.8671 1019.023,-281.1128"/>
</g>
<!-- GO:0030414 -->
<g id="node23" class="node">
<title>GO:0030414</title>
<polygon fill="#ffffff" stroke="#000000" points="1211.0439,-350.2014 1090.8573,-350.2014 1090.8573,-291.3986 1211.0439,-291.3986 1211.0439,-350.2014"/>
<text text-anchor="middle" x="1150.9506" y="-333.4" font-family="Times,serif" font-size="14.00" fill="#000000">GO:0030414</text>
<text text-anchor="middle" x="1150.9506" y="-316.6" font-family="Times,serif" font-size="14.00" fill="#000000">peptidase inhibitor</text>
<text text-anchor="middle" x="1150.9506" y="-299.8" font-family="Times,serif" font-size="14.00" fill="#000000">activity</text>
</g>
<!-- GO:0004866&#45;&gt;GO:0030414 -->
<g id="edge21" class="edge">
<title>GO:0004866&#45;&gt;GO:0030414</title>
<path fill="none" stroke="#000000" d="M1092.7869,-230.4575C1102.9479,-246.2399 1115.6067,-265.9023 1126.5179,-282.8499"/>
<polygon fill="#000000" stroke="#000000" points="1123.6857,-284.9166 1132.0419,-291.4301 1129.5714,-281.1273 1123.6857,-284.9166"/>
</g>
<!-- GO:0061134 -->
<g id="node24" class="node">
<title>GO:0061134</title>
<polygon fill="#ffffff" stroke="#000000" points="1059.3518,-469.8014 936.5494,-469.8014 936.5494,-410.9986 1059.3518,-410.9986 1059.3518,-469.8014"/>
<text text-anchor="middle" x="997.9506" y="-453" font-family="Times,serif" font-size="14.00" fill="#000000">GO:0061134</text>
<text text-anchor="middle" x="997.9506" y="-436.2" font-family="Times,serif" font-size="14.00" fill="#000000">peptidase regulator</text>
<text text-anchor="middle" x="997.9506" y="-419.4" font-family="Times,serif" font-size="14.00" fill="#000000">activity</text>
</g>
<!-- GO:0061135&#45;&gt;GO:0061134 -->
<g id="edge22" class="edge">
<title>GO:0061135&#45;&gt;GO:0061134</title>
<path fill="none" stroke="#000000" d="M997.9506,-350.0575C997.9506,-365.2608 997.9506,-384.0644 997.9506,-400.5735"/>
<polygon fill="#000000" stroke="#000000" points="994.4507,-401.03 997.9506,-411.0301 1001.4507,-401.0301 994.4507,-401.03"/>
</g>
<!-- GO:0030414&#45;&gt;GO:0061134 -->
<g id="edge24" class="edge">
<title>GO:0030414&#45;&gt;GO:0061134</title>
<path fill="none" stroke="#000000" d="M1113.7492,-350.2136C1103.4608,-358.3253 1092.2834,-367.1169 1081.9506,-375.2 1069.6651,-384.8107 1056.339,-395.1797 1043.9974,-404.7596"/>
<polygon fill="#000000" stroke="#000000" points="1041.8059,-402.03 1036.0503,-410.9251 1046.0967,-407.5607 1041.8059,-402.03"/>
</g>
<!-- GO:0004857 -->
<g id="node25" class="node">
<title>GO:0004857</title>
<polygon fill="#ffffff" stroke="#000000" points="1234.1998,-461.0019 1077.7014,-461.0019 1077.7014,-419.7981 1234.1998,-419.7981 1234.1998,-461.0019"/>
<text text-anchor="middle" x="1155.9506" y="-444.6" font-family="Times,serif" font-size="14.00" fill="#000000">GO:0004857</text>
<text text-anchor="middle" x="1155.9506" y="-427.8" font-family="Times,serif" font-size="14.00" fill="#000000">enzyme inhibitor activity</text>
</g>
<!-- GO:0030414&#45;&gt;GO:0004857 -->
<g id="edge23" class="edge">
<title>GO:0030414&#45;&gt;GO:0004857</title>
<path fill="none" stroke="#000000" d="M1152.1737,-350.0575C1152.9278,-368.094 1153.8936,-391.1977 1154.6599,-409.5259"/>
<polygon fill="#000000" stroke="#000000" points="1151.1701,-409.846 1155.0848,-419.691 1158.164,-409.5535 1151.1701,-409.846"/>
</g>
<!-- GO:0030234 -->
<g id="node26" class="node">
<title>GO:0030234</title>
<polygon fill="#ffffff" stroke="#000000" points="1086.5082,-555.4019 927.393,-555.4019 927.393,-514.1981 1086.5082,-514.1981 1086.5082,-555.4019"/>
<text text-anchor="middle" x="1006.9506" y="-539" font-family="Times,serif" font-size="14.00" fill="#000000">GO:0030234</text>
<text text-anchor="middle" x="1006.9506" y="-522.2" font-family="Times,serif" font-size="14.00" fill="#000000">enzyme regulator activity</text>
</g>
<!-- GO:0061134&#45;&gt;GO:0030234 -->
<g id="edge25" class="edge">
<title>GO:0061134&#45;&gt;GO:0030234</title>
<path fill="none" stroke="#000000" d="M1000.7489,-469.7513C1001.7891,-480.6614 1002.9715,-493.0637 1004.0229,-504.092"/>
<polygon fill="#000000" stroke="#000000" points="1000.5486,-504.5283 1004.9819,-514.151 1007.517,-503.8639 1000.5486,-504.5283"/>
</g>
<!-- GO:0004857&#45;&gt;GO:0030234 -->
<g id="edge26" class="edge">
<title>GO:0004857&#45;&gt;GO:0030234</title>
<path fill="none" stroke="#000000" d="M1123.2519,-461.1165C1101.1262,-475.1344 1071.7275,-493.7601 1048.0241,-508.7776"/>
<polygon fill="#000000" stroke="#000000" points="1046.1472,-505.8234 1039.573,-514.1318 1049.8935,-511.7365 1046.1472,-505.8234"/>
</g>
<!-- GO:0030234&#45;&gt;GO:0098772 -->
<g id="edge27" class="edge">
<title>GO:0030234&#45;&gt;GO:0098772</title>
<path fill="none" stroke="#000000" d="M958.4512,-555.5165C928.6029,-568.2662 889.8308,-584.8276 856.6072,-599.0191"/>
<polygon fill="#000000" stroke="#000000" points="855.2169,-595.8069 847.3956,-602.9538 857.9666,-602.2443 855.2169,-595.8069"/>
</g>
<!-- GO:1901505 -->
<g id="node27" class="node">
<title>GO:1901505</title>
<polygon fill="#ffffff" stroke="#000000" points="1252.9977,-564.2014 1104.9035,-564.2014 1104.9035,-505.3986 1252.9977,-505.3986 1252.9977,-564.2014"/>
<text text-anchor="middle" x="1178.9506" y="-547.4" font-family="Times,serif" font-size="14.00" fill="#000000">GO:1901505</text>
<text text-anchor="middle" x="1178.9506" y="-530.6" font-family="Times,serif" font-size="14.00" fill="#000000">carbohydrate derivative</text>
<text text-anchor="middle" x="1178.9506" y="-513.8" font-family="Times,serif" font-size="14.00" fill="#000000">transporter activity</text>
</g>
<!-- GO:0005215 -->
<g id="node28" class="node">
<title>GO:0005215</title>
<polygon fill="#ffffff" stroke="#000000" points="1146.0791,-649.8019 1023.8221,-649.8019 1023.8221,-608.5981 1146.0791,-608.5981 1146.0791,-649.8019"/>
<text text-anchor="middle" x="1084.9506" y="-633.4" font-family="Times,serif" font-size="14.00" fill="#000000">GO:0005215</text>
<text text-anchor="middle" x="1084.9506" y="-616.6" font-family="Times,serif" font-size="14.00" fill="#000000">transporter activity</text>
</g>
<!-- GO:1901505&#45;&gt;GO:0005215 -->
<g id="edge28" class="edge">
<title>GO:1901505&#45;&gt;GO:0005215</title>
<path fill="none" stroke="#000000" d="M1149.7237,-564.1513C1137.9638,-575.9612 1124.4629,-589.5196 1112.8409,-601.191"/>
<polygon fill="#000000" stroke="#000000" points="1110.0881,-598.9953 1105.5121,-608.551 1115.0483,-603.9345 1110.0881,-598.9953"/>
</g>
<!-- GO:0005215&#45;&gt;GO:0003674 -->
<g id="edge29" class="edge">
<title>GO:0005215&#45;&gt;GO:0003674</title>
<path fill="none" stroke="#000000" d="M1023.5143,-641.4304C945.0566,-657.0493 809.465,-684.042 725.8599,-700.6857"/>
<polygon fill="#000000" stroke="#000000" points="725.0533,-697.2775 715.9292,-702.6626 726.4201,-704.1427 725.0533,-697.2775"/>
</g>
<!-- GO:0016247 -->
<g id="node29" class="node">
<title>GO:0016247</title>
<polygon fill="#ffffff" stroke="#000000" points="775.5174,-564.2014 662.3838,-564.2014 662.3838,-505.3986 775.5174,-505.3986 775.5174,-564.2014"/>
<text text-anchor="middle" x="718.9506" y="-547.4" font-family="Times,serif" font-size="14.00" fill="#000000">GO:0016247</text>
<text text-anchor="middle" x="718.9506" y="-530.6" font-family="Times,serif" font-size="14.00" fill="#000000">channel regulator</text>
<text text-anchor="middle" x="718.9506" y="-513.8" font-family="Times,serif" font-size="14.00" fill="#000000">activity</text>
</g>
<!-- GO:0016247&#45;&gt;GO:0098772 -->
<g id="edge30" class="edge">
<title>GO:0016247&#45;&gt;GO:0098772</title>
<path fill="none" stroke="#000000" d="M739.7826,-564.1513C745.9588,-572.8534 752.8088,-582.5047 759.3003,-591.6509"/>
<polygon fill="#000000" stroke="#000000" points="756.4895,-593.7378 765.1315,-599.8669 762.1978,-589.6863 756.4895,-593.7378"/>
</g>
<!-- GO:0042802 -->
<g id="node30" class="node">
<title>GO:0042802</title>
<polygon fill="#ffffff" stroke="#000000" points="290.5948,-461.0019 137.3064,-461.0019 137.3064,-419.7981 290.5948,-419.7981 290.5948,-461.0019"/>
<text text-anchor="middle" x="213.9506" y="-444.6" font-family="Times,serif" font-size="14.00" fill="#000000">GO:0042802</text>
<text text-anchor="middle" x="213.9506" y="-427.8" font-family="Times,serif" font-size="14.00" fill="#000000">identical protein binding</text>
</g>
<!-- GO:0042802&#45;&gt;GO:0005515 -->
<g id="edge31" class="edge">
<title>GO:0042802&#45;&gt;GO:0005515</title>
<path fill="none" stroke="#000000" d="M206.6268,-461.3504C202.2263,-473.9387 196.5489,-490.1795 191.6521,-504.1872"/>
<polygon fill="#000000" stroke="#000000" points="188.25,-503.3133 188.2539,-513.9081 194.8578,-505.6233 188.25,-503.3133"/>
</g>
</g>
</svg>
