<?xml version="1.0" encoding="UTF-8" standalone="no"?>
<!DOCTYPE svg PUBLIC "-//W3C//DTD SVG 1.1//EN"
 "http://www.w3.org/Graphics/SVG/1.1/DTD/svg11.dtd">
<!-- Generated by graphviz version 2.40.1 (20161225.0304)
 -->
<!-- Title: G Pages: 1 -->
<svg width="565pt" height="410pt"
 viewBox="0.00 0.00 564.83 410.40" xmlns="http://www.w3.org/2000/svg" xmlns:xlink="http://www.w3.org/1999/xlink">
<g id="graph0" class="graph" transform="scale(1 1) rotate(0) translate(4 406.4)">
<title>G</title>
<polygon fill="#ffffff" stroke="transparent" points="-4,4 -4,-406.4 560.8349,-406.4 560.8349,4 -4,4"/>
<!-- GO:0032153 -->
<g id="node1" class="node">
<title>GO:0032153</title>
<polygon fill="#ff00ff" stroke="#000000" points="430.1441,-238.6019 322.6091,-238.6019 322.6091,-197.3981 430.1441,-197.3981 430.1441,-238.6019"/>
<text text-anchor="middle" x="376.3766" y="-222.2" font-family="Times,serif" font-size="14.00" fill="#000000">GO:0032153</text>
<text text-anchor="middle" x="376.3766" y="-205.4" font-family="Times,serif" font-size="14.00" fill="#000000">cell division site</text>
</g>
<!-- GO:0044464 -->
<g id="node2" class="node">
<title>GO:0044464</title>
<polygon fill="#ff0000" stroke="#000000" points="404.9805,-324.6019 315.7727,-324.6019 315.7727,-283.3981 404.9805,-283.3981 404.9805,-324.6019"/>
<text text-anchor="middle" x="360.3766" y="-308.2" font-family="Times,serif" font-size="14.00" fill="#000000">GO:0044464</text>
<text text-anchor="middle" x="360.3766" y="-291.4" font-family="Times,serif" font-size="14.00" fill="#000000">cell part</text>
</g>
<!-- GO:0032153&#45;&gt;GO:0044464 -->
<g id="edge1" class="edge">
<title>GO:0032153&#45;&gt;GO:0044464</title>
<path fill="none" stroke="#000000" d="M372.5034,-238.8182C370.5774,-249.1705 368.212,-261.8848 366.0832,-273.3271"/>
<polygon fill="#000000" stroke="#000000" points="362.6023,-272.902 364.2141,-283.3735 369.4842,-274.1824 362.6023,-272.902"/>
</g>
<!-- GO:0005575 -->
<g id="node3" class="node">
<title>GO:0005575</title>
<polygon fill="#ffffff" stroke="#000000" points="352.0633,-402.2019 224.6899,-402.2019 224.6899,-360.9981 352.0633,-360.9981 352.0633,-402.2019"/>
<text text-anchor="middle" x="288.3766" y="-385.8" font-family="Times,serif" font-size="14.00" fill="#000000">GO:0005575</text>
<text text-anchor="middle" x="288.3766" y="-369" font-family="Times,serif" font-size="14.00" fill="#000000">cellular_component</text>
</g>
<!-- GO:0044464&#45;&gt;GO:0005575 -->
<g id="edge2" class="edge">
<title>GO:0044464&#45;&gt;GO:0005575</title>
<path fill="none" stroke="#000000" d="M341.0819,-324.7954C332.9306,-333.5807 323.3111,-343.9484 314.5364,-353.4056"/>
<polygon fill="#000000" stroke="#000000" points="311.9605,-351.036 307.7245,-360.7472 317.0919,-355.7971 311.9605,-351.036"/>
</g>
<!-- GO:0005887 -->
<g id="node4" class="node">
<title>GO:0005887</title>
<polygon fill="#ff00ff" stroke="#000000" points="221.0097,-58.6014 81.7435,-58.6014 81.7435,.2014 221.0097,.2014 221.0097,-58.6014"/>
<text text-anchor="middle" x="151.3766" y="-41.8" font-family="Times,serif" font-size="14.00" fill="#000000">GO:0005887</text>
<text text-anchor="middle" x="151.3766" y="-25" font-family="Times,serif" font-size="14.00" fill="#000000">integral component of</text>
<text text-anchor="middle" x="151.3766" y="-8.2" font-family="Times,serif" font-size="14.00" fill="#000000">plasma membrane</text>
</g>
<!-- GO:0016021 -->
<g id="node5" class="node">
<title>GO:0016021</title>
<polygon fill="#ffffff" stroke="#000000" points="141.0097,-153.0014 1.7435,-153.0014 1.7435,-94.1986 141.0097,-94.1986 141.0097,-153.0014"/>
<text text-anchor="middle" x="71.3766" y="-136.2" font-family="Times,serif" font-size="14.00" fill="#000000">GO:0016021</text>
<text text-anchor="middle" x="71.3766" y="-119.4" font-family="Times,serif" font-size="14.00" fill="#000000">integral component of</text>
<text text-anchor="middle" x="71.3766" y="-102.6" font-family="Times,serif" font-size="14.00" fill="#000000">membrane</text>
</g>
<!-- GO:0005887&#45;&gt;GO:0016021 -->
<g id="edge3" class="edge">
<title>GO:0005887&#45;&gt;GO:0016021</title>
<path fill="none" stroke="#000000" d="M126.5026,-58.5513C118.9775,-67.431 110.6147,-77.299 102.7238,-86.6103"/>
<polygon fill="#000000" stroke="#000000" points="100.0303,-84.375 96.2352,-94.2669 105.3706,-88.9007 100.0303,-84.375"/>
</g>
<!-- GO:0031226 -->
<g id="node6" class="node">
<title>GO:0031226</title>
<polygon fill="#ffffff" stroke="#000000" points="301.63,-153.0014 159.1232,-153.0014 159.1232,-94.1986 301.63,-94.1986 301.63,-153.0014"/>
<text text-anchor="middle" x="230.3766" y="-136.2" font-family="Times,serif" font-size="14.00" fill="#000000">GO:0031226</text>
<text text-anchor="middle" x="230.3766" y="-119.4" font-family="Times,serif" font-size="14.00" fill="#000000">intrinsic component of</text>
<text text-anchor="middle" x="230.3766" y="-102.6" font-family="Times,serif" font-size="14.00" fill="#000000">plasma membrane</text>
</g>
<!-- GO:0005887&#45;&gt;GO:0031226 -->
<g id="edge4" class="edge">
<title>GO:0005887&#45;&gt;GO:0031226</title>
<path fill="none" stroke="#000000" d="M175.9396,-58.5513C183.2964,-67.3422 191.4639,-77.1018 199.1873,-86.3308"/>
<polygon fill="#000000" stroke="#000000" points="196.7268,-88.8442 205.8287,-94.2669 202.095,-84.3517 196.7268,-88.8442"/>
</g>
<!-- GO:0031224 -->
<g id="node7" class="node">
<title>GO:0031224</title>
<polygon fill="#ffffff" stroke="#000000" points="142.63,-247.4014 .1232,-247.4014 .1232,-188.5986 142.63,-188.5986 142.63,-247.4014"/>
<text text-anchor="middle" x="71.3766" y="-230.6" font-family="Times,serif" font-size="14.00" fill="#000000">GO:0031224</text>
<text text-anchor="middle" x="71.3766" y="-213.8" font-family="Times,serif" font-size="14.00" fill="#000000">intrinsic component of</text>
<text text-anchor="middle" x="71.3766" y="-197" font-family="Times,serif" font-size="14.00" fill="#000000">membrane</text>
</g>
<!-- GO:0016021&#45;&gt;GO:0031224 -->
<g id="edge5" class="edge">
<title>GO:0016021&#45;&gt;GO:0031224</title>
<path fill="none" stroke="#000000" d="M71.3766,-152.9513C71.3766,-161.0318 71.3766,-169.9308 71.3766,-178.4838"/>
<polygon fill="#000000" stroke="#000000" points="67.8767,-178.6668 71.3766,-188.6669 74.8767,-178.6669 67.8767,-178.6668"/>
</g>
<!-- GO:0031226&#45;&gt;GO:0031224 -->
<g id="edge7" class="edge">
<title>GO:0031226&#45;&gt;GO:0031224</title>
<path fill="none" stroke="#000000" d="M180.9396,-152.9513C164.6373,-162.6301 146.3571,-173.4833 129.4694,-183.5097"/>
<polygon fill="#000000" stroke="#000000" points="127.5949,-180.5521 120.783,-188.6669 131.1686,-186.5712 127.5949,-180.5521"/>
</g>
<!-- GO:0044459 -->
<g id="node8" class="node">
<title>GO:0044459</title>
<polygon fill="#ffffff" stroke="#000000" points="303.8838,-238.6019 160.8694,-238.6019 160.8694,-197.3981 303.8838,-197.3981 303.8838,-238.6019"/>
<text text-anchor="middle" x="232.3766" y="-222.2" font-family="Times,serif" font-size="14.00" fill="#000000">GO:0044459</text>
<text text-anchor="middle" x="232.3766" y="-205.4" font-family="Times,serif" font-size="14.00" fill="#000000">plasma membrane part</text>
</g>
<!-- GO:0031226&#45;&gt;GO:0044459 -->
<g id="edge6" class="edge">
<title>GO:0031226&#45;&gt;GO:0044459</title>
<path fill="none" stroke="#000000" d="M230.9984,-152.9513C231.2296,-163.8614 231.4924,-176.2637 231.726,-187.292"/>
<polygon fill="#000000" stroke="#000000" points="228.228,-187.4274 231.9391,-197.351 235.2264,-187.2791 228.228,-187.4274"/>
</g>
<!-- GO:0044425 -->
<g id="node9" class="node">
<title>GO:0044425</title>
<polygon fill="#ffffff" stroke="#000000" points="282.7286,-324.6019 182.0246,-324.6019 182.0246,-283.3981 282.7286,-283.3981 282.7286,-324.6019"/>
<text text-anchor="middle" x="232.3766" y="-308.2" font-family="Times,serif" font-size="14.00" fill="#000000">GO:0044425</text>
<text text-anchor="middle" x="232.3766" y="-291.4" font-family="Times,serif" font-size="14.00" fill="#000000">membrane part</text>
</g>
<!-- GO:0031224&#45;&gt;GO:0044425 -->
<g id="edge8" class="edge">
<title>GO:0031224&#45;&gt;GO:0044425</title>
<path fill="none" stroke="#000000" d="M126.3334,-247.3558C145.1921,-257.4294 166.1374,-268.6176 184.3986,-278.372"/>
<polygon fill="#000000" stroke="#000000" points="182.9318,-281.5565 193.4014,-283.1809 186.2299,-275.3821 182.9318,-281.5565"/>
</g>
<!-- GO:0044459&#45;&gt;GO:0044464 -->
<g id="edge10" class="edge">
<title>GO:0044459&#45;&gt;GO:0044464</title>
<path fill="none" stroke="#000000" d="M263.3618,-238.8182C280.7352,-250.4909 302.5782,-265.1667 321.1371,-277.6359"/>
<polygon fill="#000000" stroke="#000000" points="319.4243,-280.7018 329.6767,-283.3735 323.3281,-274.8914 319.4243,-280.7018"/>
</g>
<!-- GO:0044459&#45;&gt;GO:0044425 -->
<g id="edge9" class="edge">
<title>GO:0044459&#45;&gt;GO:0044425</title>
<path fill="none" stroke="#000000" d="M232.3766,-238.8182C232.3766,-249.1705 232.3766,-261.8848 232.3766,-273.3271"/>
<polygon fill="#000000" stroke="#000000" points="228.8767,-273.3735 232.3766,-283.3735 235.8767,-273.3735 228.8767,-273.3735"/>
</g>
<!-- GO:0044425&#45;&gt;GO:0005575 -->
<g id="edge11" class="edge">
<title>GO:0044425&#45;&gt;GO:0005575</title>
<path fill="none" stroke="#000000" d="M247.3836,-324.7954C253.5352,-333.3197 260.7619,-343.3339 267.4203,-352.5605"/>
<polygon fill="#000000" stroke="#000000" points="264.6382,-354.6864 273.3282,-360.7472 270.3145,-350.59 264.6382,-354.6864"/>
</g>
<!-- GO:0005829 -->
<g id="node10" class="node">
<title>GO:0005829</title>
<polygon fill="#ffffff" stroke="#000000" points="546.9805,-49.8019 457.7727,-49.8019 457.7727,-8.5981 546.9805,-8.5981 546.9805,-49.8019"/>
<text text-anchor="middle" x="502.3766" y="-33.4" font-family="Times,serif" font-size="14.00" fill="#000000">GO:0005829</text>
<text text-anchor="middle" x="502.3766" y="-16.6" font-family="Times,serif" font-size="14.00" fill="#000000">cytosol</text>
</g>
<!-- GO:0044444 -->
<g id="node11" class="node">
<title>GO:0044444</title>
<polygon fill="#ffffff" stroke="#000000" points="556.7932,-144.2019 447.96,-144.2019 447.96,-102.9981 556.7932,-102.9981 556.7932,-144.2019"/>
<text text-anchor="middle" x="502.3766" y="-127.8" font-family="Times,serif" font-size="14.00" fill="#000000">GO:0044444</text>
<text text-anchor="middle" x="502.3766" y="-111" font-family="Times,serif" font-size="14.00" fill="#000000">cytoplasmic part</text>
</g>
<!-- GO:0005829&#45;&gt;GO:0044444 -->
<g id="edge12" class="edge">
<title>GO:0005829&#45;&gt;GO:0044444</title>
<path fill="none" stroke="#000000" d="M502.3766,-50.1504C502.3766,-62.6165 502.3766,-78.6645 502.3766,-92.5786"/>
<polygon fill="#000000" stroke="#000000" points="498.8767,-92.7081 502.3766,-102.7081 505.8767,-92.7082 498.8767,-92.7081"/>
</g>
<!-- GO:0044424 -->
<g id="node12" class="node">
<title>GO:0044424</title>
<polygon fill="#ffffff" stroke="#000000" points="556.775,-238.6019 447.9782,-238.6019 447.9782,-197.3981 556.775,-197.3981 556.775,-238.6019"/>
<text text-anchor="middle" x="502.3766" y="-222.2" font-family="Times,serif" font-size="14.00" fill="#000000">GO:0044424</text>
<text text-anchor="middle" x="502.3766" y="-205.4" font-family="Times,serif" font-size="14.00" fill="#000000">intracellular part</text>
</g>
<!-- GO:0044444&#45;&gt;GO:0044424 -->
<g id="edge13" class="edge">
<title>GO:0044444&#45;&gt;GO:0044424</title>
<path fill="none" stroke="#000000" d="M502.3766,-144.5504C502.3766,-157.0165 502.3766,-173.0645 502.3766,-186.9786"/>
<polygon fill="#000000" stroke="#000000" points="498.8767,-187.1081 502.3766,-197.1081 505.8767,-187.1082 498.8767,-187.1081"/>
</g>
<!-- GO:0044424&#45;&gt;GO:0044464 -->
<g id="edge14" class="edge">
<title>GO:0044424&#45;&gt;GO:0044464</title>
<path fill="none" stroke="#000000" d="M468.0024,-238.8182C448.4672,-250.6494 423.8379,-265.5657 403.0715,-278.1425"/>
<polygon fill="#000000" stroke="#000000" points="401.1748,-275.1994 394.4343,-283.3735 404.801,-281.1869 401.1748,-275.1994"/>
</g>
</g>
</svg>
