<?xml version="1.0" encoding="UTF-8" standalone="no"?>
<!DOCTYPE svg PUBLIC "-//W3C//DTD SVG 1.1//EN"
 "http://www.w3.org/Graphics/SVG/1.1/DTD/svg11.dtd">
<!-- Generated by graphviz version 2.40.1 (20161225.0304)
 -->
<!-- Title: G Pages: 1 -->
<svg width="1076pt" height="788pt"
 viewBox="0.00 0.00 1076.24 788.00" xmlns="http://www.w3.org/2000/svg" xmlns:xlink="http://www.w3.org/1999/xlink">
<g id="graph0" class="graph" transform="scale(1 1) rotate(0) translate(4 784)">
<title>G</title>
<polygon fill="#ffffff" stroke="transparent" points="-4,4 -4,-784 1072.2393,-784 1072.2393,4 -4,4"/>
<!-- GO:0044238 -->
<g id="node1" class="node">
<title>GO:0044238</title>
<polygon fill="#ff00ff" stroke="#000000" points="190.4032,-616.2019 26.3973,-616.2019 26.3973,-574.9981 190.4032,-574.9981 190.4032,-616.2019"/>
<text text-anchor="middle" x="108.4002" y="-599.8" font-family="Times,serif" font-size="14.00" fill="#000000">GO:0044238</text>
<text text-anchor="middle" x="108.4002" y="-583" font-family="Times,serif" font-size="14.00" fill="#000000">primary metabolic process</text>
</g>
<!-- GO:0008152 -->
<g id="node2" class="node">
<title>GO:0008152</title>
<polygon fill="#ffffff" stroke="#000000" points="590.5859,-702.2019 474.2146,-702.2019 474.2146,-660.9981 590.5859,-660.9981 590.5859,-702.2019"/>
<text text-anchor="middle" x="532.4002" y="-685.8" font-family="Times,serif" font-size="14.00" fill="#000000">GO:0008152</text>
<text text-anchor="middle" x="532.4002" y="-669" font-family="Times,serif" font-size="14.00" fill="#000000">metabolic process</text>
</g>
<!-- GO:0044238&#45;&gt;GO:0008152 -->
<g id="edge1" class="edge">
<title>GO:0044238&#45;&gt;GO:0008152</title>
<path fill="none" stroke="#000000" d="M190.6544,-612.2836C270.2362,-628.4252 389.4518,-652.6057 463.9884,-667.724"/>
<polygon fill="#000000" stroke="#000000" points="463.7043,-671.2376 474.2005,-669.7953 465.0958,-664.3773 463.7043,-671.2376"/>
</g>
<!-- GO:0008150 -->
<g id="node3" class="node">
<title>GO:0008150</title>
<polygon fill="#ffffff" stroke="#000000" points="723.8708,-779.8019 602.9296,-779.8019 602.9296,-738.5981 723.8708,-738.5981 723.8708,-779.8019"/>
<text text-anchor="middle" x="663.4002" y="-763.4" font-family="Times,serif" font-size="14.00" fill="#000000">GO:0008150</text>
<text text-anchor="middle" x="663.4002" y="-746.6" font-family="Times,serif" font-size="14.00" fill="#000000">biological_process</text>
</g>
<!-- GO:0008152&#45;&gt;GO:0008150 -->
<g id="edge2" class="edge">
<title>GO:0008152&#45;&gt;GO:0008150</title>
<path fill="none" stroke="#000000" d="M567.5058,-702.3954C583.5114,-711.8766 602.6283,-723.2008 619.5667,-733.2345"/>
<polygon fill="#000000" stroke="#000000" points="617.8101,-736.2619 628.1977,-738.3472 621.3778,-730.2393 617.8101,-736.2619"/>
</g>
<!-- GO:0044710 -->
<g id="node4" class="node">
<title>GO:0044710</title>
<polygon fill="#ff00ff" stroke="#000000" points="898.8085,-625.0014 733.992,-625.0014 733.992,-566.1986 898.8085,-566.1986 898.8085,-625.0014"/>
<text text-anchor="middle" x="816.4002" y="-608.2" font-family="Times,serif" font-size="14.00" fill="#000000">GO:0044710</text>
<text text-anchor="middle" x="816.4002" y="-591.4" font-family="Times,serif" font-size="14.00" fill="#000000">single&#45;organism metabolic</text>
<text text-anchor="middle" x="816.4002" y="-574.6" font-family="Times,serif" font-size="14.00" fill="#000000">process</text>
</g>
<!-- GO:0044710&#45;&gt;GO:0008152 -->
<g id="edge3" class="edge">
<title>GO:0044710&#45;&gt;GO:0008152</title>
<path fill="none" stroke="#000000" d="M733.6731,-621.9445C730.5439,-622.9131 727.4446,-623.8678 724.4002,-624.8 670.344,-641.3521 656.6073,-644.7486 602.4002,-660.8 601.8114,-660.9744 601.2198,-661.1496 600.6258,-661.3255"/>
<polygon fill="#000000" stroke="#000000" points="599.4295,-658.0295 590.8364,-664.2271 601.4188,-664.7409 599.4295,-658.0295"/>
</g>
<!-- GO:0044699 -->
<g id="node5" class="node">
<title>GO:0044699</title>
<polygon fill="#ffffff" stroke="#000000" points="892.0816,-702.2019 740.7189,-702.2019 740.7189,-660.9981 892.0816,-660.9981 892.0816,-702.2019"/>
<text text-anchor="middle" x="816.4002" y="-685.8" font-family="Times,serif" font-size="14.00" fill="#000000">GO:0044699</text>
<text text-anchor="middle" x="816.4002" y="-669" font-family="Times,serif" font-size="14.00" fill="#000000">single&#45;organism process</text>
</g>
<!-- GO:0044710&#45;&gt;GO:0044699 -->
<g id="edge4" class="edge">
<title>GO:0044710&#45;&gt;GO:0044699</title>
<path fill="none" stroke="#000000" d="M816.4002,-625.1963C816.4002,-633.4638 816.4002,-642.4657 816.4002,-650.8008"/>
<polygon fill="#000000" stroke="#000000" points="812.9003,-650.8965 816.4002,-660.8966 819.9003,-650.8966 812.9003,-650.8965"/>
</g>
<!-- GO:0044699&#45;&gt;GO:0008150 -->
<g id="edge5" class="edge">
<title>GO:0044699&#45;&gt;GO:0008150</title>
<path fill="none" stroke="#000000" d="M775.399,-702.3954C756.2857,-712.0895 733.3736,-723.7102 713.2664,-733.9084"/>
<polygon fill="#000000" stroke="#000000" points="711.5844,-730.837 704.2491,-738.4819 714.7508,-737.0799 711.5844,-730.837"/>
</g>
<!-- GO:0006313 -->
<g id="node6" class="node">
<title>GO:0006313</title>
<polygon fill="#ffffff" stroke="#000000" points="984.7078,-58.6014 854.0927,-58.6014 854.0927,.2014 984.7078,.2014 984.7078,-58.6014"/>
<text text-anchor="middle" x="919.4002" y="-41.8" font-family="Times,serif" font-size="14.00" fill="#000000">GO:0006313</text>
<text text-anchor="middle" x="919.4002" y="-25" font-family="Times,serif" font-size="14.00" fill="#000000">transposition, DNA&#45;</text>
<text text-anchor="middle" x="919.4002" y="-8.2" font-family="Times,serif" font-size="14.00" fill="#000000">mediated</text>
</g>
<!-- GO:0006313&#45;&gt;GO:0044710 -->
<g id="edge7" class="edge">
<title>GO:0006313&#45;&gt;GO:0044710</title>
<path fill="none" stroke="#000000" d="M919.4002,-58.4575C919.4002,-91.1895 919.4002,-145.7934 919.4002,-192.8 919.4002,-192.8 919.4002,-192.8 919.4002,-381.6 919.4002,-450.3173 911.1631,-470.5491 877.4002,-530.4 871.7452,-540.4245 864.2391,-550.1188 856.4314,-558.8312"/>
<polygon fill="#000000" stroke="#000000" points="853.7996,-556.5213 849.5313,-566.2184 858.9151,-561.2996 853.7996,-556.5213"/>
</g>
<!-- GO:0006310 -->
<g id="node7" class="node">
<title>GO:0006310</title>
<polygon fill="#ffffff" stroke="#000000" points="886.5872,-135.8019 756.2133,-135.8019 756.2133,-94.5981 886.5872,-94.5981 886.5872,-135.8019"/>
<text text-anchor="middle" x="821.4002" y="-119.4" font-family="Times,serif" font-size="14.00" fill="#000000">GO:0006310</text>
<text text-anchor="middle" x="821.4002" y="-102.6" font-family="Times,serif" font-size="14.00" fill="#000000">DNA recombination</text>
</g>
<!-- GO:0006313&#45;&gt;GO:0006310 -->
<g id="edge6" class="edge">
<title>GO:0006313&#45;&gt;GO:0006310</title>
<path fill="none" stroke="#000000" d="M885.9483,-58.5558C875.2553,-67.9394 863.4603,-78.2902 852.9103,-87.5483"/>
<polygon fill="#000000" stroke="#000000" points="850.332,-85.1543 845.1243,-94.3809 854.9491,-90.4157 850.332,-85.1543"/>
</g>
<!-- GO:0032196 -->
<g id="node8" class="node">
<title>GO:0032196</title>
<polygon fill="#ffffff" stroke="#000000" points="1037.0041,-135.8019 947.7964,-135.8019 947.7964,-94.5981 1037.0041,-94.5981 1037.0041,-135.8019"/>
<text text-anchor="middle" x="992.4002" y="-119.4" font-family="Times,serif" font-size="14.00" fill="#000000">GO:0032196</text>
<text text-anchor="middle" x="992.4002" y="-102.6" font-family="Times,serif" font-size="14.00" fill="#000000">transposition</text>
</g>
<!-- GO:0006313&#45;&gt;GO:0032196 -->
<g id="edge8" class="edge">
<title>GO:0006313&#45;&gt;GO:0032196</title>
<path fill="none" stroke="#000000" d="M944.5227,-58.7963C952.1642,-67.7986 960.545,-77.6719 968.1292,-86.6067"/>
<polygon fill="#000000" stroke="#000000" points="965.6867,-89.1377 974.8264,-94.4966 971.0233,-84.6078 965.6867,-89.1377"/>
</g>
<!-- GO:0006259 -->
<g id="node9" class="node">
<title>GO:0006259</title>
<polygon fill="#ffffff" stroke="#000000" points="891.406,-213.4019 741.3944,-213.4019 741.3944,-172.1981 891.406,-172.1981 891.406,-213.4019"/>
<text text-anchor="middle" x="816.4002" y="-197" font-family="Times,serif" font-size="14.00" fill="#000000">GO:0006259</text>
<text text-anchor="middle" x="816.4002" y="-180.2" font-family="Times,serif" font-size="14.00" fill="#000000">DNA metabolic process</text>
</g>
<!-- GO:0006310&#45;&gt;GO:0006259 -->
<g id="edge9" class="edge">
<title>GO:0006310&#45;&gt;GO:0006259</title>
<path fill="none" stroke="#000000" d="M820.0603,-135.9954C819.5503,-143.9109 818.9575,-153.1109 818.3995,-161.7722"/>
<polygon fill="#000000" stroke="#000000" points="814.8942,-161.7428 817.7438,-171.9472 821.8797,-162.193 814.8942,-161.7428"/>
</g>
<!-- GO:0044763 -->
<g id="node10" class="node">
<title>GO:0044763</title>
<polygon fill="#ffffff" stroke="#000000" points="1068.0788,-625.0014 916.7217,-625.0014 916.7217,-566.1986 1068.0788,-566.1986 1068.0788,-625.0014"/>
<text text-anchor="middle" x="992.4002" y="-608.2" font-family="Times,serif" font-size="14.00" fill="#000000">GO:0044763</text>
<text text-anchor="middle" x="992.4002" y="-591.4" font-family="Times,serif" font-size="14.00" fill="#000000">single&#45;organism cellular</text>
<text text-anchor="middle" x="992.4002" y="-574.6" font-family="Times,serif" font-size="14.00" fill="#000000">process</text>
</g>
<!-- GO:0032196&#45;&gt;GO:0044763 -->
<g id="edge10" class="edge">
<title>GO:0032196&#45;&gt;GO:0044763</title>
<path fill="none" stroke="#000000" d="M992.4002,-135.8606C992.4002,-166.895 992.4002,-227.391 992.4002,-278.8 992.4002,-278.8 992.4002,-278.8 992.4002,-381.6 992.4002,-442.5229 992.4002,-513.2018 992.4002,-556.1419"/>
<polygon fill="#000000" stroke="#000000" points="988.9003,-556.1766 992.4002,-566.1767 995.9003,-556.1767 988.9003,-556.1766"/>
</g>
<!-- GO:0090304 -->
<g id="node11" class="node">
<title>GO:0090304</title>
<polygon fill="#ffffff" stroke="#000000" points="724.3512,-308.2014 582.4492,-308.2014 582.4492,-249.3986 724.3512,-249.3986 724.3512,-308.2014"/>
<text text-anchor="middle" x="653.4002" y="-291.4" font-family="Times,serif" font-size="14.00" fill="#000000">GO:0090304</text>
<text text-anchor="middle" x="653.4002" y="-274.6" font-family="Times,serif" font-size="14.00" fill="#000000">nucleic acid metabolic</text>
<text text-anchor="middle" x="653.4002" y="-257.8" font-family="Times,serif" font-size="14.00" fill="#000000">process</text>
</g>
<!-- GO:0006259&#45;&gt;GO:0090304 -->
<g id="edge11" class="edge">
<title>GO:0006259&#45;&gt;GO:0090304</title>
<path fill="none" stroke="#000000" d="M776.9425,-213.6182C759.2123,-222.9728 737.8265,-234.2561 717.8674,-244.7867"/>
<polygon fill="#000000" stroke="#000000" points="716.0268,-241.8004 708.8156,-249.5624 719.2933,-247.9916 716.0268,-241.8004"/>
</g>
<!-- GO:0044260 -->
<g id="node12" class="node">
<title>GO:0044260</title>
<polygon fill="#ffffff" stroke="#000000" points="890.1726,-308.2014 742.6279,-308.2014 742.6279,-249.3986 890.1726,-249.3986 890.1726,-308.2014"/>
<text text-anchor="middle" x="816.4002" y="-291.4" font-family="Times,serif" font-size="14.00" fill="#000000">GO:0044260</text>
<text text-anchor="middle" x="816.4002" y="-274.6" font-family="Times,serif" font-size="14.00" fill="#000000">cellular macromolecule</text>
<text text-anchor="middle" x="816.4002" y="-257.8" font-family="Times,serif" font-size="14.00" fill="#000000">metabolic process</text>
</g>
<!-- GO:0006259&#45;&gt;GO:0044260 -->
<g id="edge12" class="edge">
<title>GO:0006259&#45;&gt;GO:0044260</title>
<path fill="none" stroke="#000000" d="M816.4002,-213.6182C816.4002,-221.3358 816.4002,-230.3662 816.4002,-239.2036"/>
<polygon fill="#000000" stroke="#000000" points="812.9003,-239.3991 816.4002,-249.3991 819.9003,-239.3992 812.9003,-239.3991"/>
</g>
<!-- GO:0044763&#45;&gt;GO:0044699 -->
<g id="edge14" class="edge">
<title>GO:0044763&#45;&gt;GO:0044699</title>
<path fill="none" stroke="#000000" d="M932.3233,-624.9558C911.3388,-635.2096 887.991,-646.6182 867.7799,-656.494"/>
<polygon fill="#000000" stroke="#000000" points="866.1823,-653.3791 858.7342,-660.9141 869.2556,-659.6684 866.1823,-653.3791"/>
</g>
<!-- GO:0009987 -->
<g id="node13" class="node">
<title>GO:0009987</title>
<polygon fill="#ffffff" stroke="#000000" points="715.3564,-702.2019 611.444,-702.2019 611.444,-660.9981 715.3564,-660.9981 715.3564,-702.2019"/>
<text text-anchor="middle" x="663.4002" y="-685.8" font-family="Times,serif" font-size="14.00" fill="#000000">GO:0009987</text>
<text text-anchor="middle" x="663.4002" y="-669" font-family="Times,serif" font-size="14.00" fill="#000000">cellular process</text>
</g>
<!-- GO:0044763&#45;&gt;GO:0009987 -->
<g id="edge13" class="edge">
<title>GO:0044763&#45;&gt;GO:0009987</title>
<path fill="none" stroke="#000000" d="M916.5514,-622.1991C913.4699,-623.1074 910.4109,-623.9787 907.4002,-624.8 830.3734,-645.8138 808.7737,-641.1007 731.4002,-660.8 729.2617,-661.3445 727.0903,-661.9143 724.901,-662.5033"/>
<polygon fill="#000000" stroke="#000000" points="723.9321,-659.1399 715.2342,-665.1895 725.8062,-665.8843 723.9321,-659.1399"/>
</g>
<!-- GO:0006139 -->
<g id="node14" class="node">
<title>GO:0006139</title>
<polygon fill="#ffffff" stroke="#000000" points="585.3554,-419.3003 443.445,-419.3003 443.445,-343.8997 585.3554,-343.8997 585.3554,-419.3003"/>
<text text-anchor="middle" x="514.4002" y="-402.6" font-family="Times,serif" font-size="14.00" fill="#000000">GO:0006139</text>
<text text-anchor="middle" x="514.4002" y="-385.8" font-family="Times,serif" font-size="14.00" fill="#000000">nucleobase&#45;containing</text>
<text text-anchor="middle" x="514.4002" y="-369" font-family="Times,serif" font-size="14.00" fill="#000000">compound metabolic</text>
<text text-anchor="middle" x="514.4002" y="-352.2" font-family="Times,serif" font-size="14.00" fill="#000000">process</text>
</g>
<!-- GO:0090304&#45;&gt;GO:0006139 -->
<g id="edge15" class="edge">
<title>GO:0090304&#45;&gt;GO:0006139</title>
<path fill="none" stroke="#000000" d="M613.5684,-308.2584C601.1451,-317.4462 587.1648,-327.7856 573.7059,-337.7394"/>
<polygon fill="#000000" stroke="#000000" points="571.3707,-335.1132 565.4118,-343.8735 575.533,-340.7413 571.3707,-335.1132"/>
</g>
<!-- GO:0043170 -->
<g id="node15" class="node">
<title>GO:0043170</title>
<polygon fill="#ffffff" stroke="#000000" points="852.9024,-411.0014 691.898,-411.0014 691.898,-352.1986 852.9024,-352.1986 852.9024,-411.0014"/>
<text text-anchor="middle" x="772.4002" y="-394.2" font-family="Times,serif" font-size="14.00" fill="#000000">GO:0043170</text>
<text text-anchor="middle" x="772.4002" y="-377.4" font-family="Times,serif" font-size="14.00" fill="#000000">macromolecule metabolic</text>
<text text-anchor="middle" x="772.4002" y="-360.6" font-family="Times,serif" font-size="14.00" fill="#000000">process</text>
</g>
<!-- GO:0090304&#45;&gt;GO:0043170 -->
<g id="edge16" class="edge">
<title>GO:0090304&#45;&gt;GO:0043170</title>
<path fill="none" stroke="#000000" d="M687.5009,-308.2584C700.945,-319.8723 716.519,-333.3261 730.6291,-345.5154"/>
<polygon fill="#000000" stroke="#000000" points="728.4392,-348.2487 738.2946,-352.1373 733.0153,-342.9515 728.4392,-348.2487"/>
</g>
<!-- GO:0044260&#45;&gt;GO:0043170 -->
<g id="edge18" class="edge">
<title>GO:0044260&#45;&gt;GO:0043170</title>
<path fill="none" stroke="#000000" d="M803.7916,-308.2584C799.1889,-319.012 793.911,-331.3431 789.0128,-342.7871"/>
<polygon fill="#000000" stroke="#000000" points="785.728,-341.5668 785.0107,-352.1373 792.1633,-344.3213 785.728,-341.5668"/>
</g>
<!-- GO:0044237 -->
<g id="node16" class="node">
<title>GO:0044237</title>
<polygon fill="#ff00ff" stroke="#000000" points="715.5831,-625.0014 599.2174,-625.0014 599.2174,-566.1986 715.5831,-566.1986 715.5831,-625.0014"/>
<text text-anchor="middle" x="657.4002" y="-608.2" font-family="Times,serif" font-size="14.00" fill="#000000">GO:0044237</text>
<text text-anchor="middle" x="657.4002" y="-591.4" font-family="Times,serif" font-size="14.00" fill="#000000">cellular metabolic</text>
<text text-anchor="middle" x="657.4002" y="-574.6" font-family="Times,serif" font-size="14.00" fill="#000000">process</text>
</g>
<!-- GO:0044260&#45;&gt;GO:0044237 -->
<g id="edge17" class="edge">
<title>GO:0044260&#45;&gt;GO:0044237</title>
<path fill="none" stroke="#000000" d="M842.8897,-308.1887C850.7484,-318.7289 858.3367,-331.1916 862.4002,-344 887.569,-423.333 899.2027,-467.759 844.4002,-530.4 808.017,-571.9872 777.3123,-547.4692 725.4002,-566.4 725.3022,-566.4358 725.204,-566.4716 725.1058,-566.5075"/>
<polygon fill="#000000" stroke="#000000" points="723.9531,-563.2014 715.8388,-570.0138 726.4303,-569.7484 723.9531,-563.2014"/>
</g>
<!-- GO:0009987&#45;&gt;GO:0008150 -->
<g id="edge19" class="edge">
<title>GO:0009987&#45;&gt;GO:0008150</title>
<path fill="none" stroke="#000000" d="M663.4002,-702.3954C663.4002,-710.3109 663.4002,-719.5109 663.4002,-728.1722"/>
<polygon fill="#000000" stroke="#000000" points="659.9003,-728.3472 663.4002,-738.3472 666.9003,-728.3473 659.9003,-728.3472"/>
</g>
<!-- GO:0006139&#45;&gt;GO:0044238 -->
<g id="edge20" class="edge">
<title>GO:0006139&#45;&gt;GO:0044238</title>
<path fill="none" stroke="#000000" d="M443.233,-386.9775C311.8565,-397.6305 42.0522,-423.1797 14.4002,-455.2 -7.4443,-480.4955 -1.0981,-500.7884 14.4002,-530.4 22.7919,-546.4334 37.1182,-559.3131 52.0915,-569.253"/>
<polygon fill="#000000" stroke="#000000" points="50.604,-572.4499 60.9423,-574.7673 54.3056,-566.5087 50.604,-572.4499"/>
</g>
<!-- GO:0034641 -->
<g id="node17" class="node">
<title>GO:0034641</title>
<polygon fill="#ffffff" stroke="#000000" points="505.2118,-530.5003 371.5887,-530.5003 371.5887,-455.0997 505.2118,-455.0997 505.2118,-530.5003"/>
<text text-anchor="middle" x="438.4002" y="-513.8" font-family="Times,serif" font-size="14.00" fill="#000000">GO:0034641</text>
<text text-anchor="middle" x="438.4002" y="-497" font-family="Times,serif" font-size="14.00" fill="#000000">cellular nitrogen</text>
<text text-anchor="middle" x="438.4002" y="-480.2" font-family="Times,serif" font-size="14.00" fill="#000000">compound metabolic</text>
<text text-anchor="middle" x="438.4002" y="-463.4" font-family="Times,serif" font-size="14.00" fill="#000000">process</text>
</g>
<!-- GO:0006139&#45;&gt;GO:0034641 -->
<g id="edge21" class="edge">
<title>GO:0006139&#45;&gt;GO:0034641</title>
<path fill="none" stroke="#000000" d="M488.6701,-419.2472C482.6036,-428.1235 476.0698,-437.6835 469.785,-446.8791"/>
<polygon fill="#000000" stroke="#000000" points="466.8569,-444.9606 464.1039,-455.1915 472.6361,-448.9104 466.8569,-444.9606"/>
</g>
<!-- GO:0006725 -->
<g id="node18" class="node">
<title>GO:0006725</title>
<polygon fill="#ffffff" stroke="#000000" points="657.2118,-530.5003 523.5887,-530.5003 523.5887,-455.0997 657.2118,-455.0997 657.2118,-530.5003"/>
<text text-anchor="middle" x="590.4002" y="-513.8" font-family="Times,serif" font-size="14.00" fill="#000000">GO:0006725</text>
<text text-anchor="middle" x="590.4002" y="-497" font-family="Times,serif" font-size="14.00" fill="#000000">cellular aromatic</text>
<text text-anchor="middle" x="590.4002" y="-480.2" font-family="Times,serif" font-size="14.00" fill="#000000">compound metabolic</text>
<text text-anchor="middle" x="590.4002" y="-463.4" font-family="Times,serif" font-size="14.00" fill="#000000">process</text>
</g>
<!-- GO:0006139&#45;&gt;GO:0006725 -->
<g id="edge22" class="edge">
<title>GO:0006139&#45;&gt;GO:0006725</title>
<path fill="none" stroke="#000000" d="M540.1304,-419.2472C546.1968,-428.1235 552.7307,-437.6835 559.0155,-446.8791"/>
<polygon fill="#000000" stroke="#000000" points="556.1644,-448.9104 564.6966,-455.1915 561.9436,-444.9606 556.1644,-448.9104"/>
</g>
<!-- GO:1901360 -->
<g id="node19" class="node">
<title>GO:1901360</title>
<polygon fill="#ffffff" stroke="#000000" points="352.9116,-522.2014 195.8889,-522.2014 195.8889,-463.3986 352.9116,-463.3986 352.9116,-522.2014"/>
<text text-anchor="middle" x="274.4002" y="-505.4" font-family="Times,serif" font-size="14.00" fill="#000000">GO:1901360</text>
<text text-anchor="middle" x="274.4002" y="-488.6" font-family="Times,serif" font-size="14.00" fill="#000000">organic cyclic compound</text>
<text text-anchor="middle" x="274.4002" y="-471.8" font-family="Times,serif" font-size="14.00" fill="#000000">metabolic process</text>
</g>
<!-- GO:0006139&#45;&gt;GO:1901360 -->
<g id="edge23" class="edge">
<title>GO:0006139&#45;&gt;GO:1901360</title>
<path fill="none" stroke="#000000" d="M443.3665,-414.5123C412.9272,-428.6159 377.4141,-445.0702 346.8231,-459.2441"/>
<polygon fill="#000000" stroke="#000000" points="345.1004,-456.1847 337.4985,-463.5645 348.0433,-462.5361 345.1004,-456.1847"/>
</g>
<!-- GO:0046483 -->
<g id="node20" class="node">
<title>GO:0046483</title>
<polygon fill="#ffffff" stroke="#000000" points="815.1214,-522.2014 675.6791,-522.2014 675.6791,-463.3986 815.1214,-463.3986 815.1214,-522.2014"/>
<text text-anchor="middle" x="745.4002" y="-505.4" font-family="Times,serif" font-size="14.00" fill="#000000">GO:0046483</text>
<text text-anchor="middle" x="745.4002" y="-488.6" font-family="Times,serif" font-size="14.00" fill="#000000">heterocycle metabolic</text>
<text text-anchor="middle" x="745.4002" y="-471.8" font-family="Times,serif" font-size="14.00" fill="#000000">process</text>
</g>
<!-- GO:0006139&#45;&gt;GO:0046483 -->
<g id="edge24" class="edge">
<title>GO:0006139&#45;&gt;GO:0046483</title>
<path fill="none" stroke="#000000" d="M585.5927,-415.871C614.1817,-429.6333 647.0396,-445.4506 675.4979,-459.15"/>
<polygon fill="#000000" stroke="#000000" points="674.0435,-462.3343 684.572,-463.5182 677.0798,-456.0271 674.0435,-462.3343"/>
</g>
<!-- GO:0071704 -->
<g id="node21" class="node">
<title>GO:0071704</title>
<polygon fill="#ff00ff" stroke="#000000" points="580.5859,-625.0014 464.2146,-625.0014 464.2146,-566.1986 580.5859,-566.1986 580.5859,-625.0014"/>
<text text-anchor="middle" x="522.4002" y="-608.2" font-family="Times,serif" font-size="14.00" fill="#000000">GO:0071704</text>
<text text-anchor="middle" x="522.4002" y="-591.4" font-family="Times,serif" font-size="14.00" fill="#000000">organic substance</text>
<text text-anchor="middle" x="522.4002" y="-574.6" font-family="Times,serif" font-size="14.00" fill="#000000">metabolic process</text>
</g>
<!-- GO:0043170&#45;&gt;GO:0071704 -->
<g id="edge25" class="edge">
<title>GO:0043170&#45;&gt;GO:0071704</title>
<path fill="none" stroke="#000000" d="M798.1297,-411.0584C823.3332,-443.5922 853.9788,-495.9229 824.4002,-530.4 790.1431,-570.3305 640.9758,-551.9047 590.4002,-566.4 590.2999,-566.4288 590.1995,-566.4576 590.099,-566.4866"/>
<polygon fill="#000000" stroke="#000000" points="589.1415,-563.1185 580.6624,-569.4711 591.2523,-569.7927 589.1415,-563.1185"/>
</g>
<!-- GO:0044237&#45;&gt;GO:0008152 -->
<g id="edge27" class="edge">
<title>GO:0044237&#45;&gt;GO:0008152</title>
<path fill="none" stroke="#000000" d="M614.7319,-624.9558C600.5581,-634.7074 584.8661,-645.5035 571.0161,-655.0323"/>
<polygon fill="#000000" stroke="#000000" points="568.9152,-652.2293 562.6605,-660.7809 572.8829,-657.9963 568.9152,-652.2293"/>
</g>
<!-- GO:0044237&#45;&gt;GO:0009987 -->
<g id="edge26" class="edge">
<title>GO:0044237&#45;&gt;GO:0009987</title>
<path fill="none" stroke="#000000" d="M659.4651,-625.1963C660.0419,-633.4638 660.6699,-642.4657 661.2515,-650.8008"/>
<polygon fill="#000000" stroke="#000000" points="657.7682,-651.1644 661.9558,-660.8966 664.7512,-650.6772 657.7682,-651.1644"/>
</g>
<!-- GO:0034641&#45;&gt;GO:0044237 -->
<g id="edge29" class="edge">
<title>GO:0034641&#45;&gt;GO:0044237</title>
<path fill="none" stroke="#000000" d="M505.4809,-526.1306C508.4914,-527.5812 511.4751,-529.01 514.4002,-530.4 538.876,-542.0307 565.8835,-554.4503 589.7746,-565.296"/>
<polygon fill="#000000" stroke="#000000" points="588.5577,-568.5871 599.1108,-569.5264 591.4468,-562.2111 588.5577,-568.5871"/>
</g>
<!-- GO:0006807 -->
<g id="node22" class="node">
<title>GO:0006807</title>
<polygon fill="#ff00ff" stroke="#000000" points="446.1621,-625.0014 320.6384,-625.0014 320.6384,-566.1986 446.1621,-566.1986 446.1621,-625.0014"/>
<text text-anchor="middle" x="383.4002" y="-608.2" font-family="Times,serif" font-size="14.00" fill="#000000">GO:0006807</text>
<text text-anchor="middle" x="383.4002" y="-591.4" font-family="Times,serif" font-size="14.00" fill="#000000">nitrogen compound</text>
<text text-anchor="middle" x="383.4002" y="-574.6" font-family="Times,serif" font-size="14.00" fill="#000000">metabolic process</text>
</g>
<!-- GO:0034641&#45;&gt;GO:0006807 -->
<g id="edge28" class="edge">
<title>GO:0034641&#45;&gt;GO:0006807</title>
<path fill="none" stroke="#000000" d="M418.2326,-530.4952C413.5452,-539.2563 408.5513,-548.5904 403.8518,-557.3741"/>
<polygon fill="#000000" stroke="#000000" points="400.7177,-555.8129 399.0863,-566.2814 406.8899,-559.1151 400.7177,-555.8129"/>
</g>
<!-- GO:0006725&#45;&gt;GO:0044237 -->
<g id="edge30" class="edge">
<title>GO:0006725&#45;&gt;GO:0044237</title>
<path fill="none" stroke="#000000" d="M614.9681,-530.4952C620.7383,-539.3485 626.8898,-548.787 632.6672,-557.6513"/>
<polygon fill="#000000" stroke="#000000" points="629.8993,-559.8147 638.2918,-566.2814 635.7638,-555.9925 629.8993,-559.8147"/>
</g>
<!-- GO:1901360&#45;&gt;GO:0071704 -->
<g id="edge31" class="edge">
<title>GO:1901360&#45;&gt;GO:0071704</title>
<path fill="none" stroke="#000000" d="M342.5227,-522.181C349.2263,-524.9897 355.9373,-527.7693 362.4002,-530.4 400.7257,-546.0001 412.8212,-549.1564 454.608,-566.1336"/>
<polygon fill="#000000" stroke="#000000" points="453.415,-569.4271 463.9957,-569.9756 456.0664,-562.9486 453.415,-569.4271"/>
</g>
<!-- GO:0046483&#45;&gt;GO:0044237 -->
<g id="edge32" class="edge">
<title>GO:0046483&#45;&gt;GO:0044237</title>
<path fill="none" stroke="#000000" d="M720.183,-522.2584C710.5172,-533.5497 699.3628,-546.5801 689.1618,-558.4967"/>
<polygon fill="#000000" stroke="#000000" points="686.4654,-556.2645 682.6212,-566.1373 691.7831,-560.8167 686.4654,-556.2645"/>
</g>
<!-- GO:0071704&#45;&gt;GO:0008152 -->
<g id="edge33" class="edge">
<title>GO:0071704&#45;&gt;GO:0008152</title>
<path fill="none" stroke="#000000" d="M525.8417,-625.1963C526.803,-633.4638 527.8497,-642.4657 528.8189,-650.8008"/>
<polygon fill="#000000" stroke="#000000" points="525.3612,-651.3678 529.9929,-660.8966 532.3143,-650.5592 525.3612,-651.3678"/>
</g>
<!-- GO:0006807&#45;&gt;GO:0008152 -->
<g id="edge34" class="edge">
<title>GO:0006807&#45;&gt;GO:0008152</title>
<path fill="none" stroke="#000000" d="M434.2608,-624.9558C451.4749,-634.8914 470.5674,-645.9112 487.3023,-655.5703"/>
<polygon fill="#000000" stroke="#000000" points="485.9195,-658.8133 496.33,-660.7809 489.4187,-652.7507 485.9195,-658.8133"/>
</g>
<!-- GO:0071941 -->
<g id="node23" class="node">
<title>GO:0071941</title>
<polygon fill="#ffffff" stroke="#000000" points="177.7977,-522.2014 23.0027,-522.2014 23.0027,-463.3986 177.7977,-463.3986 177.7977,-522.2014"/>
<text text-anchor="middle" x="100.4002" y="-505.4" font-family="Times,serif" font-size="14.00" fill="#000000">GO:0071941</text>
<text text-anchor="middle" x="100.4002" y="-488.6" font-family="Times,serif" font-size="14.00" fill="#000000">nitrogen cycle metabolic</text>
<text text-anchor="middle" x="100.4002" y="-471.8" font-family="Times,serif" font-size="14.00" fill="#000000">process</text>
</g>
<!-- GO:0071941&#45;&gt;GO:0006807 -->
<g id="edge35" class="edge">
<title>GO:0071941&#45;&gt;GO:0006807</title>
<path fill="none" stroke="#000000" d="M165.8773,-522.1719C172.7707,-525.0406 179.705,-527.8347 186.4002,-530.4 227.0095,-545.9592 273.1233,-561.3419 310.5213,-573.255"/>
<polygon fill="#000000" stroke="#000000" points="309.7381,-576.6783 320.3282,-576.3633 311.8531,-570.0054 309.7381,-576.6783"/>
</g>
</g>
</svg>
