<?xml version="1.0" encoding="UTF-8" standalone="no"?>
<!DOCTYPE svg PUBLIC "-//W3C//DTD SVG 1.1//EN"
 "http://www.w3.org/Graphics/SVG/1.1/DTD/svg11.dtd">
<!-- Generated by graphviz version 2.40.1 (20161225.0304)
 -->
<!-- Title: G Pages: 1 -->
<svg width="446pt" height="222pt"
 viewBox="0.00 0.00 445.61 221.60" xmlns="http://www.w3.org/2000/svg" xmlns:xlink="http://www.w3.org/1999/xlink">
<g id="graph0" class="graph" transform="scale(1 1) rotate(0) translate(4 217.6)">
<title>G</title>
<polygon fill="#ffffff" stroke="transparent" points="-4,4 -4,-217.6 441.613,-217.6 441.613,4 -4,4"/>
<!-- GO:0005576 -->
<g id="node1" class="node">
<title>GO:0005576</title>
<polygon fill="#ffffff" stroke="#000000" points="125.3338,-135.8019 -.1114,-135.8019 -.1114,-94.5981 125.3338,-94.5981 125.3338,-135.8019"/>
<text text-anchor="middle" x="62.6112" y="-119.4" font-family="Times,serif" font-size="14.00" fill="#000000">GO:0005576</text>
<text text-anchor="middle" x="62.6112" y="-102.6" font-family="Times,serif" font-size="14.00" fill="#000000">extracellular region</text>
</g>
<!-- GO:0005575 -->
<g id="node2" class="node">
<title>GO:0005575</title>
<polygon fill="#ffffff" stroke="#000000" points="282.2979,-213.4019 154.9245,-213.4019 154.9245,-172.1981 282.2979,-172.1981 282.2979,-213.4019"/>
<text text-anchor="middle" x="218.6112" y="-197" font-family="Times,serif" font-size="14.00" fill="#000000">GO:0005575</text>
<text text-anchor="middle" x="218.6112" y="-180.2" font-family="Times,serif" font-size="14.00" fill="#000000">cellular_component</text>
</g>
<!-- GO:0005576&#45;&gt;GO:0005575 -->
<g id="edge1" class="edge">
<title>GO:0005576&#45;&gt;GO:0005575</title>
<path fill="none" stroke="#000000" d="M104.4163,-135.9954C123.9044,-145.6895 147.2658,-157.3102 167.7672,-167.5084"/>
<polygon fill="#000000" stroke="#000000" points="166.4491,-170.7618 176.9614,-172.0819 169.5668,-164.4944 166.4491,-170.7618"/>
</g>
<!-- GO:0005578 -->
<g id="node3" class="node">
<title>GO:0005578</title>
<polygon fill="#ffffff" stroke="#000000" points="359.6148,-58.6014 233.6076,-58.6014 233.6076,.2014 359.6148,.2014 359.6148,-58.6014"/>
<text text-anchor="middle" x="296.6112" y="-41.8" font-family="Times,serif" font-size="14.00" fill="#000000">GO:0005578</text>
<text text-anchor="middle" x="296.6112" y="-25" font-family="Times,serif" font-size="14.00" fill="#000000">proteinaceous</text>
<text text-anchor="middle" x="296.6112" y="-8.2" font-family="Times,serif" font-size="14.00" fill="#000000">extracellular matrix</text>
</g>
<!-- GO:0044421 -->
<g id="node4" class="node">
<title>GO:0044421</title>
<polygon fill="#ffffff" stroke="#000000" points="294.1002,-135.8019 143.1222,-135.8019 143.1222,-94.5981 294.1002,-94.5981 294.1002,-135.8019"/>
<text text-anchor="middle" x="218.6112" y="-119.4" font-family="Times,serif" font-size="14.00" fill="#000000">GO:0044421</text>
<text text-anchor="middle" x="218.6112" y="-102.6" font-family="Times,serif" font-size="14.00" fill="#000000">extracellular region part</text>
</g>
<!-- GO:0005578&#45;&gt;GO:0044421 -->
<g id="edge2" class="edge">
<title>GO:0005578&#45;&gt;GO:0044421</title>
<path fill="none" stroke="#000000" d="M269.768,-58.7963C261.5198,-67.8905 252.4655,-77.8734 244.2968,-86.88"/>
<polygon fill="#000000" stroke="#000000" points="241.5144,-84.738 237.3887,-94.4966 246.6995,-89.4407 241.5144,-84.738"/>
</g>
<!-- GO:0031012 -->
<g id="node5" class="node">
<title>GO:0031012</title>
<polygon fill="#ffffff" stroke="#000000" points="437.6148,-135.8019 311.6076,-135.8019 311.6076,-94.5981 437.6148,-94.5981 437.6148,-135.8019"/>
<text text-anchor="middle" x="374.6112" y="-119.4" font-family="Times,serif" font-size="14.00" fill="#000000">GO:0031012</text>
<text text-anchor="middle" x="374.6112" y="-102.6" font-family="Times,serif" font-size="14.00" fill="#000000">extracellular matrix</text>
</g>
<!-- GO:0005578&#45;&gt;GO:0031012 -->
<g id="edge3" class="edge">
<title>GO:0005578&#45;&gt;GO:0031012</title>
<path fill="none" stroke="#000000" d="M323.4544,-58.7963C331.7026,-67.8905 340.7569,-77.8734 348.9256,-86.88"/>
<polygon fill="#000000" stroke="#000000" points="346.5229,-89.4407 355.8337,-94.4966 351.708,-84.738 346.5229,-89.4407"/>
</g>
<!-- GO:0044421&#45;&gt;GO:0005575 -->
<g id="edge4" class="edge">
<title>GO:0044421&#45;&gt;GO:0005575</title>
<path fill="none" stroke="#000000" d="M218.6112,-135.9954C218.6112,-143.9109 218.6112,-153.1109 218.6112,-161.7722"/>
<polygon fill="#000000" stroke="#000000" points="215.1113,-161.9472 218.6112,-171.9472 222.1113,-161.9473 215.1113,-161.9472"/>
</g>
<!-- GO:0031012&#45;&gt;GO:0005575 -->
<g id="edge5" class="edge">
<title>GO:0031012&#45;&gt;GO:0005575</title>
<path fill="none" stroke="#000000" d="M332.8061,-135.9954C313.318,-145.6895 289.9566,-157.3102 269.4552,-167.5084"/>
<polygon fill="#000000" stroke="#000000" points="267.6556,-164.4944 260.261,-172.0819 270.7733,-170.7618 267.6556,-164.4944"/>
</g>
</g>
</svg>
