<?xml version="1.0" encoding="UTF-8" standalone="no"?>
<!DOCTYPE svg PUBLIC "-//W3C//DTD SVG 1.1//EN"
 "http://www.w3.org/Graphics/SVG/1.1/DTD/svg11.dtd">
<!-- Generated by graphviz version 2.40.1 (20161225.0304)
 -->
<!-- Title: G Pages: 1 -->
<svg width="652pt" height="566pt"
 viewBox="0.00 0.00 651.70 565.60" xmlns="http://www.w3.org/2000/svg" xmlns:xlink="http://www.w3.org/1999/xlink">
<g id="graph0" class="graph" transform="scale(1 1) rotate(0) translate(4 561.6)">
<title>G</title>
<polygon fill="#ffffff" stroke="transparent" points="-4,4 -4,-561.6 647.6968,-561.6 647.6968,4 -4,4"/>
<!-- GO:0005743 -->
<g id="node1" class="node">
<title>GO:0005743</title>
<polygon fill="#ffffff" stroke="#000000" points="198.7772,-58.6014 72.1598,-58.6014 72.1598,.2014 198.7772,.2014 198.7772,-58.6014"/>
<text text-anchor="middle" x="135.4685" y="-41.8" font-family="Times,serif" font-size="14.00" fill="#000000">GO:0005743</text>
<text text-anchor="middle" x="135.4685" y="-25" font-family="Times,serif" font-size="14.00" fill="#000000">mitochondrial inner</text>
<text text-anchor="middle" x="135.4685" y="-8.2" font-family="Times,serif" font-size="14.00" fill="#000000">membrane</text>
</g>
<!-- GO:0019866 -->
<g id="node2" class="node">
<title>GO:0019866</title>
<polygon fill="#ffffff" stroke="#000000" points="162.9055,-230.2019 .0315,-230.2019 .0315,-188.9981 162.9055,-188.9981 162.9055,-230.2019"/>
<text text-anchor="middle" x="81.4685" y="-213.8" font-family="Times,serif" font-size="14.00" fill="#000000">GO:0019866</text>
<text text-anchor="middle" x="81.4685" y="-197" font-family="Times,serif" font-size="14.00" fill="#000000">organelle inner membrane</text>
</g>
<!-- GO:0005743&#45;&gt;GO:0019866 -->
<g id="edge1" class="edge">
<title>GO:0005743&#45;&gt;GO:0019866</title>
<path fill="none" stroke="#000000" d="M118.3173,-58.6049C112.5512,-69.5443 106.553,-82.2548 102.4685,-94.4 93.1398,-122.1384 87.6622,-155.1075 84.6545,-178.6539"/>
<polygon fill="#000000" stroke="#000000" points="81.1586,-178.4107 83.4413,-188.7567 88.1087,-179.2454 81.1586,-178.4107"/>
</g>
<!-- GO:0031966 -->
<g id="node3" class="node">
<title>GO:0031966</title>
<polygon fill="#ffffff" stroke="#000000" points="269.097,-144.2019 111.84,-144.2019 111.84,-102.9981 269.097,-102.9981 269.097,-144.2019"/>
<text text-anchor="middle" x="190.4685" y="-127.8" font-family="Times,serif" font-size="14.00" fill="#000000">GO:0031966</text>
<text text-anchor="middle" x="190.4685" y="-111" font-family="Times,serif" font-size="14.00" fill="#000000">mitochondrial membrane</text>
</g>
<!-- GO:0005743&#45;&gt;GO:0031966 -->
<g id="edge2" class="edge">
<title>GO:0005743&#45;&gt;GO:0031966</title>
<path fill="none" stroke="#000000" d="M152.5694,-58.5513C159.188,-69.9113 166.7492,-82.8891 173.3679,-94.2491"/>
<polygon fill="#000000" stroke="#000000" points="170.3795,-96.0725 178.4378,-102.951 176.4278,-92.5486 170.3795,-96.0725"/>
</g>
<!-- GO:0044424 -->
<g id="node4" class="node">
<title>GO:0044424</title>
<polygon fill="#ffffff" stroke="#000000" points="329.8669,-402.2019 221.0701,-402.2019 221.0701,-360.9981 329.8669,-360.9981 329.8669,-402.2019"/>
<text text-anchor="middle" x="275.4685" y="-385.8" font-family="Times,serif" font-size="14.00" fill="#000000">GO:0044424</text>
<text text-anchor="middle" x="275.4685" y="-369" font-family="Times,serif" font-size="14.00" fill="#000000">intracellular part</text>
</g>
<!-- GO:0019866&#45;&gt;GO:0044424 -->
<g id="edge3" class="edge">
<title>GO:0019866&#45;&gt;GO:0044424</title>
<path fill="none" stroke="#000000" d="M113.3093,-230.3939C127.1664,-240.3247 143.0408,-252.9659 155.4685,-266.4 176.4971,-289.1316 171.891,-302.5888 193.4685,-324.8 204.4562,-336.1104 218.0014,-346.5607 230.8948,-355.3319"/>
<polygon fill="#000000" stroke="#000000" points="228.9672,-358.2533 239.24,-360.8456 232.826,-352.4129 228.9672,-358.2533"/>
</g>
<!-- GO:0031090 -->
<g id="node5" class="node">
<title>GO:0031090</title>
<polygon fill="#ffffff" stroke="#000000" points="146.6401,-316.2019 16.2969,-316.2019 16.2969,-274.9981 146.6401,-274.9981 146.6401,-316.2019"/>
<text text-anchor="middle" x="81.4685" y="-299.8" font-family="Times,serif" font-size="14.00" fill="#000000">GO:0031090</text>
<text text-anchor="middle" x="81.4685" y="-283" font-family="Times,serif" font-size="14.00" fill="#000000">organelle membrane</text>
</g>
<!-- GO:0019866&#45;&gt;GO:0031090 -->
<g id="edge4" class="edge">
<title>GO:0019866&#45;&gt;GO:0031090</title>
<path fill="none" stroke="#000000" d="M81.4685,-230.4182C81.4685,-240.7705 81.4685,-253.4848 81.4685,-264.9271"/>
<polygon fill="#000000" stroke="#000000" points="77.9686,-264.9735 81.4685,-274.9735 84.9686,-264.9735 77.9686,-264.9735"/>
</g>
<!-- GO:0031966&#45;&gt;GO:0031090 -->
<g id="edge6" class="edge">
<title>GO:0031966&#45;&gt;GO:0031090</title>
<path fill="none" stroke="#000000" d="M191.2295,-144.5106C191.0955,-167.3152 187.9735,-204.0716 171.4685,-230.4 161.7023,-245.9788 146.7356,-258.994 131.7935,-269.1954"/>
<polygon fill="#000000" stroke="#000000" points="129.5229,-266.4964 123.0381,-274.8749 133.3324,-272.369 129.5229,-266.4964"/>
</g>
<!-- GO:0044429 -->
<g id="node6" class="node">
<title>GO:0044429</title>
<polygon fill="#ffffff" stroke="#000000" points="338.2773,-230.2019 218.6597,-230.2019 218.6597,-188.9981 338.2773,-188.9981 338.2773,-230.2019"/>
<text text-anchor="middle" x="278.4685" y="-213.8" font-family="Times,serif" font-size="14.00" fill="#000000">GO:0044429</text>
<text text-anchor="middle" x="278.4685" y="-197" font-family="Times,serif" font-size="14.00" fill="#000000">mitochondrial part</text>
</g>
<!-- GO:0031966&#45;&gt;GO:0044429 -->
<g id="edge5" class="edge">
<title>GO:0031966&#45;&gt;GO:0044429</title>
<path fill="none" stroke="#000000" d="M211.7708,-144.4182C223.2286,-155.6156 237.5141,-169.5764 249.9216,-181.7019"/>
<polygon fill="#000000" stroke="#000000" points="247.7642,-184.4873 257.3623,-188.9735 252.6567,-179.481 247.7642,-184.4873"/>
</g>
<!-- GO:0044464 -->
<g id="node7" class="node">
<title>GO:0044464</title>
<polygon fill="#ffffff" stroke="#000000" points="320.0724,-479.8019 230.8646,-479.8019 230.8646,-438.5981 320.0724,-438.5981 320.0724,-479.8019"/>
<text text-anchor="middle" x="275.4685" y="-463.4" font-family="Times,serif" font-size="14.00" fill="#000000">GO:0044464</text>
<text text-anchor="middle" x="275.4685" y="-446.6" font-family="Times,serif" font-size="14.00" fill="#000000">cell part</text>
</g>
<!-- GO:0044424&#45;&gt;GO:0044464 -->
<g id="edge7" class="edge">
<title>GO:0044424&#45;&gt;GO:0044464</title>
<path fill="none" stroke="#000000" d="M275.4685,-402.3954C275.4685,-410.3109 275.4685,-419.5109 275.4685,-428.1722"/>
<polygon fill="#000000" stroke="#000000" points="271.9686,-428.3472 275.4685,-438.3472 278.9686,-428.3473 271.9686,-428.3472"/>
</g>
<!-- GO:0016020 -->
<g id="node8" class="node">
<title>GO:0016020</title>
<polygon fill="#ffffff" stroke="#000000" points="150.0724,-479.8019 60.8646,-479.8019 60.8646,-438.5981 150.0724,-438.5981 150.0724,-479.8019"/>
<text text-anchor="middle" x="105.4685" y="-463.4" font-family="Times,serif" font-size="14.00" fill="#000000">GO:0016020</text>
<text text-anchor="middle" x="105.4685" y="-446.6" font-family="Times,serif" font-size="14.00" fill="#000000">membrane</text>
</g>
<!-- GO:0031090&#45;&gt;GO:0016020 -->
<g id="edge8" class="edge">
<title>GO:0031090&#45;&gt;GO:0016020</title>
<path fill="none" stroke="#000000" d="M84.5081,-316.3201C88.6624,-344.6385 96.1454,-395.6476 100.9555,-428.4367"/>
<polygon fill="#000000" stroke="#000000" points="97.5013,-429.0044 102.4158,-438.3904 104.4271,-427.9883 97.5013,-429.0044"/>
</g>
<!-- GO:0044422 -->
<g id="node9" class="node">
<title>GO:0044422</title>
<polygon fill="#ffffff" stroke="#000000" points="203.3206,-402.2019 109.6164,-402.2019 109.6164,-360.9981 203.3206,-360.9981 203.3206,-402.2019"/>
<text text-anchor="middle" x="156.4685" y="-385.8" font-family="Times,serif" font-size="14.00" fill="#000000">GO:0044422</text>
<text text-anchor="middle" x="156.4685" y="-369" font-family="Times,serif" font-size="14.00" fill="#000000">organelle part</text>
</g>
<!-- GO:0031090&#45;&gt;GO:0044422 -->
<g id="edge9" class="edge">
<title>GO:0031090&#45;&gt;GO:0044422</title>
<path fill="none" stroke="#000000" d="M99.6239,-316.4182C109.2969,-327.5099 121.3347,-341.3132 131.8391,-353.3583"/>
<polygon fill="#000000" stroke="#000000" points="129.2698,-355.7373 138.4803,-360.9735 134.5454,-351.1364 129.2698,-355.7373"/>
</g>
<!-- GO:0044446 -->
<g id="node10" class="node">
<title>GO:0044446</title>
<polygon fill="#ffffff" stroke="#000000" points="342.1869,-325.0014 202.7501,-325.0014 202.7501,-266.1986 342.1869,-266.1986 342.1869,-325.0014"/>
<text text-anchor="middle" x="272.4685" y="-308.2" font-family="Times,serif" font-size="14.00" fill="#000000">GO:0044446</text>
<text text-anchor="middle" x="272.4685" y="-291.4" font-family="Times,serif" font-size="14.00" fill="#000000">intracellular organelle</text>
<text text-anchor="middle" x="272.4685" y="-274.6" font-family="Times,serif" font-size="14.00" fill="#000000">part</text>
</g>
<!-- GO:0044429&#45;&gt;GO:0044446 -->
<g id="edge10" class="edge">
<title>GO:0044429&#45;&gt;GO:0044446</title>
<path fill="none" stroke="#000000" d="M277.0161,-230.4182C276.4776,-238.1358 275.8476,-247.1662 275.231,-256.0036"/>
<polygon fill="#000000" stroke="#000000" points="271.7243,-255.9798 274.5197,-266.1991 278.7073,-256.467 271.7243,-255.9798"/>
</g>
<!-- GO:0044444 -->
<g id="node11" class="node">
<title>GO:0044444</title>
<polygon fill="#ffffff" stroke="#000000" points="468.8851,-316.2019 360.0519,-316.2019 360.0519,-274.9981 468.8851,-274.9981 468.8851,-316.2019"/>
<text text-anchor="middle" x="414.4685" y="-299.8" font-family="Times,serif" font-size="14.00" fill="#000000">GO:0044444</text>
<text text-anchor="middle" x="414.4685" y="-283" font-family="Times,serif" font-size="14.00" fill="#000000">cytoplasmic part</text>
</g>
<!-- GO:0044429&#45;&gt;GO:0044444 -->
<g id="edge11" class="edge">
<title>GO:0044429&#45;&gt;GO:0044444</title>
<path fill="none" stroke="#000000" d="M311.3903,-230.4182C330.0165,-242.1966 353.4782,-257.0326 373.311,-269.5739"/>
<polygon fill="#000000" stroke="#000000" points="371.5273,-272.587 381.8499,-274.9735 375.2685,-266.6707 371.5273,-272.587"/>
</g>
<!-- GO:0005575 -->
<g id="node12" class="node">
<title>GO:0005575</title>
<polygon fill="#ffffff" stroke="#000000" points="339.1552,-557.4019 211.7818,-557.4019 211.7818,-516.1981 339.1552,-516.1981 339.1552,-557.4019"/>
<text text-anchor="middle" x="275.4685" y="-541" font-family="Times,serif" font-size="14.00" fill="#000000">GO:0005575</text>
<text text-anchor="middle" x="275.4685" y="-524.2" font-family="Times,serif" font-size="14.00" fill="#000000">cellular_component</text>
</g>
<!-- GO:0044464&#45;&gt;GO:0005575 -->
<g id="edge12" class="edge">
<title>GO:0044464&#45;&gt;GO:0005575</title>
<path fill="none" stroke="#000000" d="M275.4685,-479.9954C275.4685,-487.9109 275.4685,-497.1109 275.4685,-505.7722"/>
<polygon fill="#000000" stroke="#000000" points="271.9686,-505.9472 275.4685,-515.9472 278.9686,-505.9473 271.9686,-505.9472"/>
</g>
<!-- GO:0016020&#45;&gt;GO:0005575 -->
<g id="edge13" class="edge">
<title>GO:0016020&#45;&gt;GO:0005575</title>
<path fill="none" stroke="#000000" d="M150.134,-479.5885C171.8361,-489.4949 198.1048,-501.4858 220.976,-511.9258"/>
<polygon fill="#000000" stroke="#000000" points="219.6646,-515.1745 230.2151,-516.1432 222.5715,-508.8066 219.6646,-515.1745"/>
</g>
<!-- GO:0044422&#45;&gt;GO:0005575 -->
<g id="edge14" class="edge">
<title>GO:0044422&#45;&gt;GO:0005575</title>
<path fill="none" stroke="#000000" d="M168.6643,-402.3029C181.0371,-422.7348 201.2034,-454.5232 221.4685,-480 229.2769,-489.8165 238.4642,-499.9287 247.0246,-508.8506"/>
<polygon fill="#000000" stroke="#000000" points="244.5379,-511.3138 254.024,-516.0325 249.551,-506.4282 244.5379,-511.3138"/>
</g>
<!-- GO:0044446&#45;&gt;GO:0044424 -->
<g id="edge15" class="edge">
<title>GO:0044446&#45;&gt;GO:0044424</title>
<path fill="none" stroke="#000000" d="M273.5009,-325.1963C273.7893,-333.4638 274.1034,-342.4657 274.3941,-350.8008"/>
<polygon fill="#000000" stroke="#000000" points="270.8997,-351.0247 274.7463,-360.8966 277.8954,-350.7806 270.8997,-351.0247"/>
</g>
<!-- GO:0044446&#45;&gt;GO:0044422 -->
<g id="edge16" class="edge">
<title>GO:0044446&#45;&gt;GO:0044422</title>
<path fill="none" stroke="#000000" d="M232.8723,-324.9558C219.8431,-334.6154 205.4315,-345.2999 192.6682,-354.7623"/>
<polygon fill="#000000" stroke="#000000" points="190.4987,-352.0137 184.55,-360.7809 194.6676,-357.6369 190.4987,-352.0137"/>
</g>
<!-- GO:0044444&#45;&gt;GO:0044424 -->
<g id="edge17" class="edge">
<title>GO:0044444&#45;&gt;GO:0044424</title>
<path fill="none" stroke="#000000" d="M380.8205,-316.4182C361.7834,-328.1966 337.8042,-343.0326 317.5339,-355.5739"/>
<polygon fill="#000000" stroke="#000000" points="315.4691,-352.7356 308.8067,-360.9735 319.1521,-358.6884 315.4691,-352.7356"/>
</g>
<!-- GO:0005758 -->
<g id="node13" class="node">
<title>GO:0005758</title>
<polygon fill="#ffffff" stroke="#000000" points="463.2993,-153.0014 327.6377,-153.0014 327.6377,-94.1986 463.2993,-94.1986 463.2993,-153.0014"/>
<text text-anchor="middle" x="395.4685" y="-136.2" font-family="Times,serif" font-size="14.00" fill="#000000">GO:0005758</text>
<text text-anchor="middle" x="395.4685" y="-119.4" font-family="Times,serif" font-size="14.00" fill="#000000">mitochondrial</text>
<text text-anchor="middle" x="395.4685" y="-102.6" font-family="Times,serif" font-size="14.00" fill="#000000">intermembrane space</text>
</g>
<!-- GO:0005758&#45;&gt;GO:0044429 -->
<g id="edge19" class="edge">
<title>GO:0005758&#45;&gt;GO:0044429</title>
<path fill="none" stroke="#000000" d="M355.531,-152.9558C342.3894,-162.6154 327.8536,-173.2999 314.9803,-182.7623"/>
<polygon fill="#000000" stroke="#000000" points="312.7767,-180.0382 306.7921,-188.7809 316.9225,-185.6784 312.7767,-180.0382"/>
</g>
<!-- GO:0031970 -->
<g id="node14" class="node">
<title>GO:0031970</title>
<polygon fill="#ffffff" stroke="#000000" points="516.5848,-230.2019 356.3522,-230.2019 356.3522,-188.9981 516.5848,-188.9981 516.5848,-230.2019"/>
<text text-anchor="middle" x="436.4685" y="-213.8" font-family="Times,serif" font-size="14.00" fill="#000000">GO:0031970</text>
<text text-anchor="middle" x="436.4685" y="-197" font-family="Times,serif" font-size="14.00" fill="#000000">organelle envelope lumen</text>
</g>
<!-- GO:0005758&#45;&gt;GO:0031970 -->
<g id="edge18" class="edge">
<title>GO:0005758&#45;&gt;GO:0031970</title>
<path fill="none" stroke="#000000" d="M409.5784,-153.1963C413.6512,-161.7393 418.098,-171.0667 422.1815,-179.6321"/>
<polygon fill="#000000" stroke="#000000" points="419.1355,-181.3761 426.5983,-188.8966 425.4541,-178.3637 419.1355,-181.3761"/>
</g>
<!-- GO:0031970&#45;&gt;GO:0044446 -->
<g id="edge20" class="edge">
<title>GO:0031970&#45;&gt;GO:0044446</title>
<path fill="none" stroke="#000000" d="M396.7687,-230.4182C378.9297,-239.7728 357.4128,-251.0561 337.3311,-261.5867"/>
<polygon fill="#000000" stroke="#000000" points="335.4546,-258.6186 328.2238,-266.3624 338.7055,-264.818 335.4546,-258.6186"/>
</g>
<!-- GO:0031974 -->
<g id="node15" class="node">
<title>GO:0031974</title>
<polygon fill="#ffffff" stroke="#000000" points="515.1896,-402.2019 347.7474,-402.2019 347.7474,-360.9981 515.1896,-360.9981 515.1896,-402.2019"/>
<text text-anchor="middle" x="431.4685" y="-385.8" font-family="Times,serif" font-size="14.00" fill="#000000">GO:0031974</text>
<text text-anchor="middle" x="431.4685" y="-369" font-family="Times,serif" font-size="14.00" fill="#000000">membrane&#45;enclosed lumen</text>
</g>
<!-- GO:0031970&#45;&gt;GO:0031974 -->
<g id="edge21" class="edge">
<title>GO:0031970&#45;&gt;GO:0031974</title>
<path fill="none" stroke="#000000" d="M456.3826,-230.4637C464.6077,-240.501 473.2045,-253.2076 477.4685,-266.4 485.4511,-291.0976 486.1332,-300.3334 477.4685,-324.8 473.841,-335.0429 467.4933,-344.7887 460.6511,-353.2239"/>
<polygon fill="#000000" stroke="#000000" points="457.9173,-351.0342 454.0122,-360.8831 463.2068,-355.6191 457.9173,-351.0342"/>
</g>
<!-- GO:0031974&#45;&gt;GO:0005575 -->
<g id="edge22" class="edge">
<title>GO:0031974&#45;&gt;GO:0005575</title>
<path fill="none" stroke="#000000" d="M410.7529,-402.2094C383.2468,-429.5744 334.5589,-478.0127 303.7058,-508.7075"/>
<polygon fill="#000000" stroke="#000000" points="300.8905,-506.5713 296.2698,-516.1054 305.8275,-511.5337 300.8905,-506.5713"/>
</g>
<!-- GO:0070469 -->
<g id="node16" class="node">
<title>GO:0070469</title>
<polygon fill="#ffffff" stroke="#000000" points="643.926,-402.2019 533.011,-402.2019 533.011,-360.9981 643.926,-360.9981 643.926,-402.2019"/>
<text text-anchor="middle" x="588.4685" y="-385.8" font-family="Times,serif" font-size="14.00" fill="#000000">GO:0070469</text>
<text text-anchor="middle" x="588.4685" y="-369" font-family="Times,serif" font-size="14.00" fill="#000000">respiratory chain</text>
</g>
<!-- GO:0044425 -->
<g id="node17" class="node">
<title>GO:0044425</title>
<polygon fill="#ffffff" stroke="#000000" points="577.8205,-479.8019 477.1165,-479.8019 477.1165,-438.5981 577.8205,-438.5981 577.8205,-479.8019"/>
<text text-anchor="middle" x="527.4685" y="-463.4" font-family="Times,serif" font-size="14.00" fill="#000000">GO:0044425</text>
<text text-anchor="middle" x="527.4685" y="-446.6" font-family="Times,serif" font-size="14.00" fill="#000000">membrane part</text>
</g>
<!-- GO:0070469&#45;&gt;GO:0044425 -->
<g id="edge23" class="edge">
<title>GO:0070469&#45;&gt;GO:0044425</title>
<path fill="none" stroke="#000000" d="M572.1216,-402.3954C565.3524,-411.0067 557.388,-421.1384 550.0741,-430.4427"/>
<polygon fill="#000000" stroke="#000000" points="547.2889,-428.3224 543.8605,-438.3472 552.7922,-432.6484 547.2889,-428.3224"/>
</g>
<!-- GO:0044425&#45;&gt;GO:0005575 -->
<g id="edge24" class="edge">
<title>GO:0044425&#45;&gt;GO:0005575</title>
<path fill="none" stroke="#000000" d="M477.0782,-474.717C440.3778,-486.0184 390.0965,-501.5019 348.9299,-514.1786"/>
<polygon fill="#000000" stroke="#000000" points="347.7435,-510.8816 339.2165,-517.1697 349.8037,-517.5716 347.7435,-510.8816"/>
</g>
</g>
</svg>
