<?xml version="1.0" encoding="UTF-8" standalone="no"?>
<!DOCTYPE svg PUBLIC "-//W3C//DTD SVG 1.1//EN"
 "http://www.w3.org/Graphics/SVG/1.1/DTD/svg11.dtd">
<!-- Generated by graphviz version 2.40.1 (20161225.0304)
 -->
<!-- Title: G Pages: 1 -->
<svg width="135pt" height="127pt"
 viewBox="0.00 0.00 135.19 127.20" xmlns="http://www.w3.org/2000/svg" xmlns:xlink="http://www.w3.org/1999/xlink">
<g id="graph0" class="graph" transform="scale(1 1) rotate(0) translate(4 123.2)">
<title>G</title>
<polygon fill="#ffffff" stroke="transparent" points="-4,4 -4,-123.2 131.1866,-123.2 131.1866,4 -4,4"/>
<!-- GO:0005576 -->
<g id="node1" class="node">
<title>GO:0005576</title>
<polygon fill="#ffffff" stroke="#000000" points="126.3159,-41.4019 .8707,-41.4019 .8707,-.1981 126.3159,-.1981 126.3159,-41.4019"/>
<text text-anchor="middle" x="63.5933" y="-25" font-family="Times,serif" font-size="14.00" fill="#000000">GO:0005576</text>
<text text-anchor="middle" x="63.5933" y="-8.2" font-family="Times,serif" font-size="14.00" fill="#000000">extracellular region</text>
</g>
<!-- GO:0005575 -->
<g id="node2" class="node">
<title>GO:0005575</title>
<polygon fill="#ffffff" stroke="#000000" points="127.28,-119.0019 -.0934,-119.0019 -.0934,-77.7981 127.28,-77.7981 127.28,-119.0019"/>
<text text-anchor="middle" x="63.5933" y="-102.6" font-family="Times,serif" font-size="14.00" fill="#000000">GO:0005575</text>
<text text-anchor="middle" x="63.5933" y="-85.8" font-family="Times,serif" font-size="14.00" fill="#000000">cellular_component</text>
</g>
<!-- GO:0005576&#45;&gt;GO:0005575 -->
<g id="edge1" class="edge">
<title>GO:0005576&#45;&gt;GO:0005575</title>
<path fill="none" stroke="#000000" d="M63.5933,-41.5954C63.5933,-49.5109 63.5933,-58.7109 63.5933,-67.3722"/>
<polygon fill="#000000" stroke="#000000" points="60.0934,-67.5472 63.5933,-77.5472 67.0934,-67.5473 60.0934,-67.5472"/>
</g>
</g>
</svg>
