<?xml version="1.0" encoding="UTF-8" standalone="no"?>
<!DOCTYPE svg PUBLIC "-//W3C//DTD SVG 1.1//EN"
 "http://www.w3.org/Graphics/SVG/1.1/DTD/svg11.dtd">
<!-- Generated by graphviz version 2.40.1 (20161225.0304)
 -->
<!-- Title: G Pages: 1 -->
<svg width="614pt" height="427pt"
 viewBox="0.00 0.00 614.45 427.20" xmlns="http://www.w3.org/2000/svg" xmlns:xlink="http://www.w3.org/1999/xlink">
<g id="graph0" class="graph" transform="scale(1 1) rotate(0) translate(4 423.2)">
<title>G</title>
<polygon fill="#ffffff" stroke="transparent" points="-4,4 -4,-423.2 610.4475,-423.2 610.4475,4 -4,4"/>
<!-- GO:1901564 -->
<g id="node1" class="node">
<title>GO:1901564</title>
<polygon fill="#ffffff" stroke="#000000" points="444.388,-161.4014 280.1142,-161.4014 280.1142,-102.5986 444.388,-102.5986 444.388,-161.4014"/>
<text text-anchor="middle" x="362.2511" y="-144.6" font-family="Times,serif" font-size="14.00" fill="#000000">GO:1901564</text>
<text text-anchor="middle" x="362.2511" y="-127.8" font-family="Times,serif" font-size="14.00" fill="#000000">organonitrogen compound</text>
<text text-anchor="middle" x="362.2511" y="-111" font-family="Times,serif" font-size="14.00" fill="#000000">metabolic process</text>
</g>
<!-- GO:0071704 -->
<g id="node2" class="node">
<title>GO:0071704</title>
<polygon fill="#ffffff" stroke="#000000" points="304.4367,-264.2014 188.0655,-264.2014 188.0655,-205.3986 304.4367,-205.3986 304.4367,-264.2014"/>
<text text-anchor="middle" x="246.2511" y="-247.4" font-family="Times,serif" font-size="14.00" fill="#000000">GO:0071704</text>
<text text-anchor="middle" x="246.2511" y="-230.6" font-family="Times,serif" font-size="14.00" fill="#000000">organic substance</text>
<text text-anchor="middle" x="246.2511" y="-213.8" font-family="Times,serif" font-size="14.00" fill="#000000">metabolic process</text>
</g>
<!-- GO:1901564&#45;&gt;GO:0071704 -->
<g id="edge1" class="edge">
<title>GO:1901564&#45;&gt;GO:0071704</title>
<path fill="none" stroke="#000000" d="M329.0102,-161.4584C316.0263,-172.9648 301.0045,-186.2771 287.3516,-198.3765"/>
<polygon fill="#000000" stroke="#000000" points="284.6596,-196.0855 279.4969,-205.3373 289.3023,-201.3243 284.6596,-196.0855"/>
</g>
<!-- GO:0006807 -->
<g id="node3" class="node">
<title>GO:0006807</title>
<polygon fill="#ffffff" stroke="#000000" points="448.013,-264.2014 322.4892,-264.2014 322.4892,-205.3986 448.013,-205.3986 448.013,-264.2014"/>
<text text-anchor="middle" x="385.2511" y="-247.4" font-family="Times,serif" font-size="14.00" fill="#000000">GO:0006807</text>
<text text-anchor="middle" x="385.2511" y="-230.6" font-family="Times,serif" font-size="14.00" fill="#000000">nitrogen compound</text>
<text text-anchor="middle" x="385.2511" y="-213.8" font-family="Times,serif" font-size="14.00" fill="#000000">metabolic process</text>
</g>
<!-- GO:1901564&#45;&gt;GO:0006807 -->
<g id="edge2" class="edge">
<title>GO:1901564&#45;&gt;GO:0006807</title>
<path fill="none" stroke="#000000" d="M368.842,-161.4584C371.1998,-171.9969 373.8966,-184.0505 376.4134,-195.2994"/>
<polygon fill="#000000" stroke="#000000" points="373.0603,-196.3428 378.6593,-205.3373 379.8914,-194.8144 373.0603,-196.3428"/>
</g>
<!-- GO:0008152 -->
<g id="node4" class="node">
<title>GO:0008152</title>
<polygon fill="#ffffff" stroke="#000000" points="443.4367,-341.4019 327.0655,-341.4019 327.0655,-300.1981 443.4367,-300.1981 443.4367,-341.4019"/>
<text text-anchor="middle" x="385.2511" y="-325" font-family="Times,serif" font-size="14.00" fill="#000000">GO:0008152</text>
<text text-anchor="middle" x="385.2511" y="-308.2" font-family="Times,serif" font-size="14.00" fill="#000000">metabolic process</text>
</g>
<!-- GO:0071704&#45;&gt;GO:0008152 -->
<g id="edge3" class="edge">
<title>GO:0071704&#45;&gt;GO:0008152</title>
<path fill="none" stroke="#000000" d="M293.6982,-264.1558C309.6083,-273.9994 327.2384,-284.9073 342.7456,-294.5017"/>
<polygon fill="#000000" stroke="#000000" points="341.2562,-297.6958 351.6017,-299.9809 344.9392,-291.7431 341.2562,-297.6958"/>
</g>
<!-- GO:0006807&#45;&gt;GO:0008152 -->
<g id="edge4" class="edge">
<title>GO:0006807&#45;&gt;GO:0008152</title>
<path fill="none" stroke="#000000" d="M385.2511,-264.3963C385.2511,-272.6638 385.2511,-281.6657 385.2511,-290.0008"/>
<polygon fill="#000000" stroke="#000000" points="381.7512,-290.0965 385.2511,-300.0966 388.7512,-290.0966 381.7512,-290.0965"/>
</g>
<!-- GO:0008150 -->
<g id="node5" class="node">
<title>GO:0008150</title>
<polygon fill="#ffffff" stroke="#000000" points="509.7217,-419.0019 388.7805,-419.0019 388.7805,-377.7981 509.7217,-377.7981 509.7217,-419.0019"/>
<text text-anchor="middle" x="449.2511" y="-402.6" font-family="Times,serif" font-size="14.00" fill="#000000">GO:0008150</text>
<text text-anchor="middle" x="449.2511" y="-385.8" font-family="Times,serif" font-size="14.00" fill="#000000">biological_process</text>
</g>
<!-- GO:0008152&#45;&gt;GO:0008150 -->
<g id="edge5" class="edge">
<title>GO:0008152&#45;&gt;GO:0008150</title>
<path fill="none" stroke="#000000" d="M402.4019,-341.5954C409.5041,-350.2067 417.8601,-360.3384 425.5338,-369.6427"/>
<polygon fill="#000000" stroke="#000000" points="422.9901,-372.0594 432.0529,-377.5472 428.3904,-367.6056 422.9901,-372.0594"/>
</g>
<!-- GO:0043603 -->
<g id="node6" class="node">
<title>GO:0043603</title>
<polygon fill="#ffffff" stroke="#000000" points="606.6444,-58.6014 451.8578,-58.6014 451.8578,.2014 606.6444,.2014 606.6444,-58.6014"/>
<text text-anchor="middle" x="529.2511" y="-41.8" font-family="Times,serif" font-size="14.00" fill="#000000">GO:0043603</text>
<text text-anchor="middle" x="529.2511" y="-25" font-family="Times,serif" font-size="14.00" fill="#000000">cellular amide metabolic</text>
<text text-anchor="middle" x="529.2511" y="-8.2" font-family="Times,serif" font-size="14.00" fill="#000000">process</text>
</g>
<!-- GO:0034641 -->
<g id="node7" class="node">
<title>GO:0034641</title>
<polygon fill="#ffffff" stroke="#000000" points="596.0626,-169.7003 462.4396,-169.7003 462.4396,-94.2997 596.0626,-94.2997 596.0626,-169.7003"/>
<text text-anchor="middle" x="529.2511" y="-153" font-family="Times,serif" font-size="14.00" fill="#000000">GO:0034641</text>
<text text-anchor="middle" x="529.2511" y="-136.2" font-family="Times,serif" font-size="14.00" fill="#000000">cellular nitrogen</text>
<text text-anchor="middle" x="529.2511" y="-119.4" font-family="Times,serif" font-size="14.00" fill="#000000">compound metabolic</text>
<text text-anchor="middle" x="529.2511" y="-102.6" font-family="Times,serif" font-size="14.00" fill="#000000">process</text>
</g>
<!-- GO:0043603&#45;&gt;GO:0034641 -->
<g id="edge6" class="edge">
<title>GO:0043603&#45;&gt;GO:0034641</title>
<path fill="none" stroke="#000000" d="M529.2511,-58.6584C529.2511,-66.5901 529.2511,-75.38 529.2511,-84.0392"/>
<polygon fill="#000000" stroke="#000000" points="525.7512,-84.0849 529.2511,-94.085 532.7512,-84.085 525.7512,-84.0849"/>
</g>
<!-- GO:0034641&#45;&gt;GO:0006807 -->
<g id="edge7" class="edge">
<title>GO:0034641&#45;&gt;GO:0006807</title>
<path fill="none" stroke="#000000" d="M476.4485,-169.6952C462.7552,-179.4707 448.0624,-189.9597 434.5565,-199.6014"/>
<polygon fill="#000000" stroke="#000000" points="432.4253,-196.8225 426.32,-205.4814 436.4925,-202.5197 432.4253,-196.8225"/>
</g>
<!-- GO:0044237 -->
<g id="node8" class="node">
<title>GO:0044237</title>
<polygon fill="#ffffff" stroke="#000000" points="582.4339,-264.2014 466.0683,-264.2014 466.0683,-205.3986 582.4339,-205.3986 582.4339,-264.2014"/>
<text text-anchor="middle" x="524.2511" y="-247.4" font-family="Times,serif" font-size="14.00" fill="#000000">GO:0044237</text>
<text text-anchor="middle" x="524.2511" y="-230.6" font-family="Times,serif" font-size="14.00" fill="#000000">cellular metabolic</text>
<text text-anchor="middle" x="524.2511" y="-213.8" font-family="Times,serif" font-size="14.00" fill="#000000">process</text>
</g>
<!-- GO:0034641&#45;&gt;GO:0044237 -->
<g id="edge8" class="edge">
<title>GO:0034641&#45;&gt;GO:0044237</title>
<path fill="none" stroke="#000000" d="M527.4177,-169.6952C527.0095,-178.0874 526.5757,-187.0054 526.1644,-195.4618"/>
<polygon fill="#000000" stroke="#000000" points="522.6671,-195.3231 525.6771,-205.4814 529.6589,-195.6632 522.6671,-195.3231"/>
</g>
<!-- GO:0044237&#45;&gt;GO:0008152 -->
<g id="edge10" class="edge">
<title>GO:0044237&#45;&gt;GO:0008152</title>
<path fill="none" stroke="#000000" d="M476.804,-264.1558C460.8939,-273.9994 443.2638,-284.9073 427.7566,-294.5017"/>
<polygon fill="#000000" stroke="#000000" points="425.563,-291.7431 418.9005,-299.9809 429.246,-297.6958 425.563,-291.7431"/>
</g>
<!-- GO:0009987 -->
<g id="node9" class="node">
<title>GO:0009987</title>
<polygon fill="#ffffff" stroke="#000000" points="570.2073,-341.4019 466.2949,-341.4019 466.2949,-300.1981 570.2073,-300.1981 570.2073,-341.4019"/>
<text text-anchor="middle" x="518.2511" y="-325" font-family="Times,serif" font-size="14.00" fill="#000000">GO:0009987</text>
<text text-anchor="middle" x="518.2511" y="-308.2" font-family="Times,serif" font-size="14.00" fill="#000000">cellular process</text>
</g>
<!-- GO:0044237&#45;&gt;GO:0009987 -->
<g id="edge9" class="edge">
<title>GO:0044237&#45;&gt;GO:0009987</title>
<path fill="none" stroke="#000000" d="M522.1862,-264.3963C521.6094,-272.6638 520.9814,-281.6657 520.3999,-290.0008"/>
<polygon fill="#000000" stroke="#000000" points="516.9001,-289.8772 519.6955,-300.0966 523.8831,-290.3644 516.9001,-289.8772"/>
</g>
<!-- GO:0009987&#45;&gt;GO:0008150 -->
<g id="edge11" class="edge">
<title>GO:0009987&#45;&gt;GO:0008150</title>
<path fill="none" stroke="#000000" d="M499.7604,-341.5954C492.026,-350.2937 482.9124,-360.5433 474.5709,-369.9244"/>
<polygon fill="#000000" stroke="#000000" points="471.8222,-367.7485 467.7929,-377.5472 477.0533,-372.3999 471.8222,-367.7485"/>
</g>
<!-- GO:0019538 -->
<g id="node10" class="node">
<title>GO:0019538</title>
<polygon fill="#ffffff" stroke="#000000" points="207.0928,-49.8019 47.4094,-49.8019 47.4094,-8.5981 207.0928,-8.5981 207.0928,-49.8019"/>
<text text-anchor="middle" x="127.2511" y="-33.4" font-family="Times,serif" font-size="14.00" fill="#000000">GO:0019538</text>
<text text-anchor="middle" x="127.2511" y="-16.6" font-family="Times,serif" font-size="14.00" fill="#000000">protein metabolic process</text>
</g>
<!-- GO:0044238 -->
<g id="node11" class="node">
<title>GO:0044238</title>
<polygon fill="#ffffff" stroke="#000000" points="164.2541,-255.4019 .2481,-255.4019 .2481,-214.1981 164.2541,-214.1981 164.2541,-255.4019"/>
<text text-anchor="middle" x="82.2511" y="-239" font-family="Times,serif" font-size="14.00" fill="#000000">GO:0044238</text>
<text text-anchor="middle" x="82.2511" y="-222.2" font-family="Times,serif" font-size="14.00" fill="#000000">primary metabolic process</text>
</g>
<!-- GO:0019538&#45;&gt;GO:0044238 -->
<g id="edge12" class="edge">
<title>GO:0019538&#45;&gt;GO:0044238</title>
<path fill="none" stroke="#000000" d="M112.7322,-49.885C104.8926,-62.2134 95.8926,-78.5134 91.2511,-94.4 80.6219,-130.7808 79.5718,-174.6431 80.3934,-203.5499"/>
<polygon fill="#000000" stroke="#000000" points="76.9074,-203.9894 80.7838,-213.8496 83.9024,-203.7242 76.9074,-203.9894"/>
</g>
<!-- GO:0043170 -->
<g id="node12" class="node">
<title>GO:0043170</title>
<polygon fill="#ffffff" stroke="#000000" points="261.7533,-161.4014 100.7489,-161.4014 100.7489,-102.5986 261.7533,-102.5986 261.7533,-161.4014"/>
<text text-anchor="middle" x="181.2511" y="-144.6" font-family="Times,serif" font-size="14.00" fill="#000000">GO:0043170</text>
<text text-anchor="middle" x="181.2511" y="-127.8" font-family="Times,serif" font-size="14.00" fill="#000000">macromolecule metabolic</text>
<text text-anchor="middle" x="181.2511" y="-111" font-family="Times,serif" font-size="14.00" fill="#000000">process</text>
</g>
<!-- GO:0019538&#45;&gt;GO:0043170 -->
<g id="edge13" class="edge">
<title>GO:0019538&#45;&gt;GO:0043170</title>
<path fill="none" stroke="#000000" d="M138.1788,-50.0031C144.7633,-62.5381 153.3529,-78.8901 161.1276,-93.6907"/>
<polygon fill="#000000" stroke="#000000" points="158.0889,-95.4325 165.8378,-102.6577 164.286,-92.1772 158.0889,-95.4325"/>
</g>
<!-- GO:0044238&#45;&gt;GO:0008152 -->
<g id="edge14" class="edge">
<title>GO:0044238&#45;&gt;GO:0008152</title>
<path fill="none" stroke="#000000" d="M150.0296,-255.4234C159.8235,-258.3394 169.788,-261.2714 179.2511,-264 225.1899,-277.2459 277.0819,-291.55 317.2912,-302.4901"/>
<polygon fill="#000000" stroke="#000000" points="316.4213,-305.8805 326.9891,-305.1251 318.2567,-299.1254 316.4213,-305.8805"/>
</g>
<!-- GO:0043170&#45;&gt;GO:0071704 -->
<g id="edge15" class="edge">
<title>GO:0043170&#45;&gt;GO:0071704</title>
<path fill="none" stroke="#000000" d="M199.8775,-161.4584C206.813,-172.4271 214.7861,-185.0369 222.1433,-196.6727"/>
<polygon fill="#000000" stroke="#000000" points="219.3194,-198.7557 227.622,-205.3373 225.2359,-195.0147 219.3194,-198.7557"/>
</g>
</g>
</svg>
