<?xml version="1.0" encoding="UTF-8" standalone="no"?>
<!DOCTYPE svg PUBLIC "-//W3C//DTD SVG 1.1//EN"
 "http://www.w3.org/Graphics/SVG/1.1/DTD/svg11.dtd">
<!-- Generated by graphviz version 2.40.1 (20161225.0304)
 -->
<!-- Title: G Pages: 1 -->
<svg width="460pt" height="582pt"
 viewBox="0.00 0.00 459.61 582.40" xmlns="http://www.w3.org/2000/svg" xmlns:xlink="http://www.w3.org/1999/xlink">
<g id="graph0" class="graph" transform="scale(1 1) rotate(0) translate(4 578.4)">
<title>G</title>
<polygon fill="#ffffff" stroke="transparent" points="-4,4 -4,-578.4 455.6133,-578.4 455.6133,4 -4,4"/>
<!-- GO:0046914 -->
<g id="node1" class="node">
<title>GO:0046914</title>
<polygon fill="#ffffff" stroke="#000000" points="124.8108,-153.0014 .063,-153.0014 .063,-94.1986 124.8108,-94.1986 124.8108,-153.0014"/>
<text text-anchor="middle" x="62.4369" y="-136.2" font-family="Times,serif" font-size="14.00" fill="#000000">GO:0046914</text>
<text text-anchor="middle" x="62.4369" y="-119.4" font-family="Times,serif" font-size="14.00" fill="#000000">transition metal ion</text>
<text text-anchor="middle" x="62.4369" y="-102.6" font-family="Times,serif" font-size="14.00" fill="#000000">binding</text>
</g>
<!-- GO:0046872 -->
<g id="node2" class="node">
<title>GO:0046872</title>
<polygon fill="#ffffff" stroke="#000000" points="119.7099,-247.0019 5.1639,-247.0019 5.1639,-205.7981 119.7099,-205.7981 119.7099,-247.0019"/>
<text text-anchor="middle" x="62.4369" y="-230.6" font-family="Times,serif" font-size="14.00" fill="#000000">GO:0046872</text>
<text text-anchor="middle" x="62.4369" y="-213.8" font-family="Times,serif" font-size="14.00" fill="#000000">metal ion binding</text>
</g>
<!-- GO:0046914&#45;&gt;GO:0046872 -->
<g id="edge1" class="edge">
<title>GO:0046914&#45;&gt;GO:0046872</title>
<path fill="none" stroke="#000000" d="M62.4369,-153.0584C62.4369,-166.3539 62.4369,-182.0608 62.4369,-195.5212"/>
<polygon fill="#000000" stroke="#000000" points="58.937,-195.7456 62.4369,-205.7456 65.937,-195.7457 58.937,-195.7456"/>
</g>
<!-- GO:0043169 -->
<g id="node3" class="node">
<title>GO:0043169</title>
<polygon fill="#ffffff" stroke="#000000" points="123.9298,-341.4019 26.944,-341.4019 26.944,-300.1981 123.9298,-300.1981 123.9298,-341.4019"/>
<text text-anchor="middle" x="75.4369" y="-325" font-family="Times,serif" font-size="14.00" fill="#000000">GO:0043169</text>
<text text-anchor="middle" x="75.4369" y="-308.2" font-family="Times,serif" font-size="14.00" fill="#000000">cation binding</text>
</g>
<!-- GO:0046872&#45;&gt;GO:0043169 -->
<g id="edge2" class="edge">
<title>GO:0046872&#45;&gt;GO:0043169</title>
<path fill="none" stroke="#000000" d="M65.322,-247.3504C67.0387,-259.8165 69.2487,-275.8645 71.1649,-289.7786"/>
<polygon fill="#000000" stroke="#000000" points="67.7282,-290.4792 72.5598,-299.9081 74.6628,-289.5241 67.7282,-290.4792"/>
</g>
<!-- GO:0043167 -->
<g id="node4" class="node">
<title>GO:0043167</title>
<polygon fill="#ffffff" stroke="#000000" points="121.0408,-419.0019 31.833,-419.0019 31.833,-377.7981 121.0408,-377.7981 121.0408,-419.0019"/>
<text text-anchor="middle" x="76.4369" y="-402.6" font-family="Times,serif" font-size="14.00" fill="#000000">GO:0043167</text>
<text text-anchor="middle" x="76.4369" y="-385.8" font-family="Times,serif" font-size="14.00" fill="#000000">ion binding</text>
</g>
<!-- GO:0043169&#45;&gt;GO:0043167 -->
<g id="edge3" class="edge">
<title>GO:0043169&#45;&gt;GO:0043167</title>
<path fill="none" stroke="#000000" d="M75.7049,-341.5954C75.8069,-349.5109 75.9254,-358.7109 76.0371,-367.3722"/>
<polygon fill="#000000" stroke="#000000" points="72.5395,-367.5932 76.1682,-377.5472 79.5389,-367.5029 72.5395,-367.5932"/>
</g>
<!-- GO:0005488 -->
<g id="node5" class="node">
<title>GO:0005488</title>
<polygon fill="#ffffff" stroke="#000000" points="123.0408,-496.6019 33.833,-496.6019 33.833,-455.3981 123.0408,-455.3981 123.0408,-496.6019"/>
<text text-anchor="middle" x="78.4369" y="-480.2" font-family="Times,serif" font-size="14.00" fill="#000000">GO:0005488</text>
<text text-anchor="middle" x="78.4369" y="-463.4" font-family="Times,serif" font-size="14.00" fill="#000000">binding</text>
</g>
<!-- GO:0043167&#45;&gt;GO:0005488 -->
<g id="edge4" class="edge">
<title>GO:0043167&#45;&gt;GO:0005488</title>
<path fill="none" stroke="#000000" d="M76.9729,-419.1954C77.1769,-427.1109 77.414,-436.3109 77.6372,-444.9722"/>
<polygon fill="#000000" stroke="#000000" points="74.1429,-445.2408 77.8995,-455.1472 81.1406,-445.0603 74.1429,-445.2408"/>
</g>
<!-- GO:0003674 -->
<g id="node6" class="node">
<title>GO:0003674</title>
<polygon fill="#ffffff" stroke="#000000" points="199.07,-574.2019 73.8038,-574.2019 73.8038,-532.9981 199.07,-532.9981 199.07,-574.2019"/>
<text text-anchor="middle" x="136.4369" y="-557.8" font-family="Times,serif" font-size="14.00" fill="#000000">GO:0003674</text>
<text text-anchor="middle" x="136.4369" y="-541" font-family="Times,serif" font-size="14.00" fill="#000000">molecular_function</text>
</g>
<!-- GO:0005488&#45;&gt;GO:0003674 -->
<g id="edge5" class="edge">
<title>GO:0005488&#45;&gt;GO:0003674</title>
<path fill="none" stroke="#000000" d="M93.9798,-496.7954C100.3511,-505.3197 107.836,-515.3339 114.7321,-524.5605"/>
<polygon fill="#000000" stroke="#000000" points="112.0608,-526.8327 120.8511,-532.7472 117.6677,-522.6419 112.0608,-526.8327"/>
</g>
<!-- GO:0008235 -->
<g id="node7" class="node">
<title>GO:0008235</title>
<polygon fill="#ffffff" stroke="#000000" points="357.0127,-58.6014 225.8611,-58.6014 225.8611,.2014 357.0127,.2014 357.0127,-58.6014"/>
<text text-anchor="middle" x="291.4369" y="-41.8" font-family="Times,serif" font-size="14.00" fill="#000000">GO:0008235</text>
<text text-anchor="middle" x="291.4369" y="-25" font-family="Times,serif" font-size="14.00" fill="#000000">metalloexopeptidase</text>
<text text-anchor="middle" x="291.4369" y="-8.2" font-family="Times,serif" font-size="14.00" fill="#000000">activity</text>
</g>
<!-- GO:0008238 -->
<g id="node8" class="node">
<title>GO:0008238</title>
<polygon fill="#ffffff" stroke="#000000" points="277.5134,-144.2019 143.3604,-144.2019 143.3604,-102.9981 277.5134,-102.9981 277.5134,-144.2019"/>
<text text-anchor="middle" x="210.4369" y="-127.8" font-family="Times,serif" font-size="14.00" fill="#000000">GO:0008238</text>
<text text-anchor="middle" x="210.4369" y="-111" font-family="Times,serif" font-size="14.00" fill="#000000">exopeptidase activity</text>
</g>
<!-- GO:0008235&#45;&gt;GO:0008238 -->
<g id="edge6" class="edge">
<title>GO:0008235&#45;&gt;GO:0008238</title>
<path fill="none" stroke="#000000" d="M266.252,-58.5513C256.215,-70.2488 244.7062,-83.6615 234.7566,-95.257"/>
<polygon fill="#000000" stroke="#000000" points="232.0105,-93.0826 228.1548,-102.951 237.3229,-97.641 232.0105,-93.0826"/>
</g>
<!-- GO:0008237 -->
<g id="node9" class="node">
<title>GO:0008237</title>
<polygon fill="#ffffff" stroke="#000000" points="451.7901,-144.2019 295.0837,-144.2019 295.0837,-102.9981 451.7901,-102.9981 451.7901,-144.2019"/>
<text text-anchor="middle" x="373.4369" y="-127.8" font-family="Times,serif" font-size="14.00" fill="#000000">GO:0008237</text>
<text text-anchor="middle" x="373.4369" y="-111" font-family="Times,serif" font-size="14.00" fill="#000000">metallopeptidase activity</text>
</g>
<!-- GO:0008235&#45;&gt;GO:0008237 -->
<g id="edge7" class="edge">
<title>GO:0008235&#45;&gt;GO:0008237</title>
<path fill="none" stroke="#000000" d="M316.9327,-58.5513C327.0937,-70.2488 338.7445,-83.6615 348.8169,-95.257"/>
<polygon fill="#000000" stroke="#000000" points="346.3001,-97.6967 355.5003,-102.951 351.5847,-93.1062 346.3001,-97.6967"/>
</g>
<!-- GO:0070011 -->
<g id="node10" class="node">
<title>GO:0070011</title>
<polygon fill="#ffffff" stroke="#000000" points="284.6763,-264.1003 138.1975,-264.1003 138.1975,-188.6997 284.6763,-188.6997 284.6763,-264.1003"/>
<text text-anchor="middle" x="211.4369" y="-247.4" font-family="Times,serif" font-size="14.00" fill="#000000">GO:0070011</text>
<text text-anchor="middle" x="211.4369" y="-230.6" font-family="Times,serif" font-size="14.00" fill="#000000">peptidase activity,</text>
<text text-anchor="middle" x="211.4369" y="-213.8" font-family="Times,serif" font-size="14.00" fill="#000000">acting on L&#45;amino acid</text>
<text text-anchor="middle" x="211.4369" y="-197" font-family="Times,serif" font-size="14.00" fill="#000000">peptides</text>
</g>
<!-- GO:0008238&#45;&gt;GO:0070011 -->
<g id="edge8" class="edge">
<title>GO:0008238&#45;&gt;GO:0070011</title>
<path fill="none" stroke="#000000" d="M210.6393,-144.4031C210.7346,-154.2045 210.8527,-166.3396 210.9684,-178.242"/>
<polygon fill="#000000" stroke="#000000" points="207.4718,-178.6118 211.069,-188.5773 214.4714,-178.5436 207.4718,-178.6118"/>
</g>
<!-- GO:0008237&#45;&gt;GO:0070011 -->
<g id="edge9" class="edge">
<title>GO:0008237&#45;&gt;GO:0070011</title>
<path fill="none" stroke="#000000" d="M340.6538,-144.4031C323.0206,-155.5926 300.5941,-169.8237 279.3922,-183.2777"/>
<polygon fill="#000000" stroke="#000000" points="277.2825,-180.4713 270.7143,-188.7845 281.0331,-186.3817 277.2825,-180.4713"/>
</g>
<!-- GO:0008233 -->
<g id="node11" class="node">
<title>GO:0008233</title>
<polygon fill="#ffffff" stroke="#000000" points="261.7987,-341.4019 147.0751,-341.4019 147.0751,-300.1981 261.7987,-300.1981 261.7987,-341.4019"/>
<text text-anchor="middle" x="204.4369" y="-325" font-family="Times,serif" font-size="14.00" fill="#000000">GO:0008233</text>
<text text-anchor="middle" x="204.4369" y="-308.2" font-family="Times,serif" font-size="14.00" fill="#000000">peptidase activity</text>
</g>
<!-- GO:0070011&#45;&gt;GO:0008233 -->
<g id="edge10" class="edge">
<title>GO:0070011&#45;&gt;GO:0008233</title>
<path fill="none" stroke="#000000" d="M208.6301,-264.2522C208.0006,-272.7406 207.34,-281.6492 206.7342,-289.8197"/>
<polygon fill="#000000" stroke="#000000" points="203.2256,-289.8064 205.9765,-300.0379 210.2065,-290.3241 203.2256,-289.8064"/>
</g>
<!-- GO:0016787 -->
<g id="node12" class="node">
<title>GO:0016787</title>
<polygon fill="#ffffff" stroke="#000000" points="258.3535,-419.0019 142.5203,-419.0019 142.5203,-377.7981 258.3535,-377.7981 258.3535,-419.0019"/>
<text text-anchor="middle" x="200.4369" y="-402.6" font-family="Times,serif" font-size="14.00" fill="#000000">GO:0016787</text>
<text text-anchor="middle" x="200.4369" y="-385.8" font-family="Times,serif" font-size="14.00" fill="#000000">hydrolase activity</text>
</g>
<!-- GO:0008233&#45;&gt;GO:0016787 -->
<g id="edge11" class="edge">
<title>GO:0008233&#45;&gt;GO:0016787</title>
<path fill="none" stroke="#000000" d="M203.365,-341.5954C202.957,-349.5109 202.4827,-358.7109 202.0363,-367.3722"/>
<polygon fill="#000000" stroke="#000000" points="198.5313,-367.3803 201.5118,-377.5472 205.522,-367.7407 198.5313,-367.3803"/>
</g>
<!-- GO:0003824 -->
<g id="node13" class="node">
<title>GO:0003824</title>
<polygon fill="#ffffff" stroke="#000000" points="251.8493,-496.6019 143.0245,-496.6019 143.0245,-455.3981 251.8493,-455.3981 251.8493,-496.6019"/>
<text text-anchor="middle" x="197.4369" y="-480.2" font-family="Times,serif" font-size="14.00" fill="#000000">GO:0003824</text>
<text text-anchor="middle" x="197.4369" y="-463.4" font-family="Times,serif" font-size="14.00" fill="#000000">catalytic activity</text>
</g>
<!-- GO:0016787&#45;&gt;GO:0003824 -->
<g id="edge12" class="edge">
<title>GO:0016787&#45;&gt;GO:0003824</title>
<path fill="none" stroke="#000000" d="M199.633,-419.1954C199.3269,-427.1109 198.9713,-436.3109 198.6364,-444.9722"/>
<polygon fill="#000000" stroke="#000000" points="195.1321,-445.0194 198.2431,-455.1472 202.1269,-445.2899 195.1321,-445.0194"/>
</g>
<!-- GO:0003824&#45;&gt;GO:0003674 -->
<g id="edge13" class="edge">
<title>GO:0003824&#45;&gt;GO:0003674</title>
<path fill="none" stroke="#000000" d="M181.09,-496.7954C174.3208,-505.4067 166.3564,-515.5384 159.0425,-524.8427"/>
<polygon fill="#000000" stroke="#000000" points="156.2573,-522.7224 152.8289,-532.7472 161.7606,-527.0484 156.2573,-522.7224"/>
</g>
</g>
</svg>
