<?xml version="1.0" encoding="UTF-8" standalone="no"?>
<!DOCTYPE svg PUBLIC "-//W3C//DTD SVG 1.1//EN"
 "http://www.w3.org/Graphics/SVG/1.1/DTD/svg11.dtd">
<!-- Generated by graphviz version 2.40.1 (20161225.0304)
 -->
<!-- Title: G Pages: 1 -->
<svg width="1257pt" height="394pt"
 viewBox="0.00 0.00 1256.62 393.60" xmlns="http://www.w3.org/2000/svg" xmlns:xlink="http://www.w3.org/1999/xlink">
<g id="graph0" class="graph" transform="scale(1 1) rotate(0) translate(4 389.6)">
<title>G</title>
<polygon fill="#ffffff" stroke="transparent" points="-4,4 -4,-389.6 1252.62,-389.6 1252.62,4 -4,4"/>
<!-- GO:0098590 -->
<g id="node1" class="node">
<title>GO:0098590</title>
<polygon fill="#ffffff" stroke="#000000" points="157.2604,-127.4019 .246,-127.4019 .246,-86.1981 157.2604,-86.1981 157.2604,-127.4019"/>
<text text-anchor="middle" x="78.7532" y="-111" font-family="Times,serif" font-size="14.00" fill="#000000">GO:0098590</text>
<text text-anchor="middle" x="78.7532" y="-94.2" font-family="Times,serif" font-size="14.00" fill="#000000">plasma membrane region</text>
</g>
<!-- GO:0016020 -->
<g id="node2" class="node">
<title>GO:0016020</title>
<polygon fill="#ffffff" stroke="#000000" points="208.3571,-307.8019 119.1493,-307.8019 119.1493,-266.5981 208.3571,-266.5981 208.3571,-307.8019"/>
<text text-anchor="middle" x="163.7532" y="-291.4" font-family="Times,serif" font-size="14.00" fill="#000000">GO:0016020</text>
<text text-anchor="middle" x="163.7532" y="-274.6" font-family="Times,serif" font-size="14.00" fill="#000000">membrane</text>
</g>
<!-- GO:0098590&#45;&gt;GO:0016020 -->
<g id="edge1" class="edge">
<title>GO:0098590&#45;&gt;GO:0016020</title>
<path fill="none" stroke="#000000" d="M77.6981,-127.4416C77.2913,-153.1744 79.6427,-197.7438 97.7532,-230.4 104.0013,-241.6663 113.4032,-251.726 123.1669,-260.1339"/>
<polygon fill="#000000" stroke="#000000" points="121.0527,-262.9258 131.0214,-266.5143 125.4663,-257.4926 121.0527,-262.9258"/>
</g>
<!-- GO:0044459 -->
<g id="node3" class="node">
<title>GO:0044459</title>
<polygon fill="#ffffff" stroke="#000000" points="382.2604,-221.8019 239.246,-221.8019 239.246,-180.5981 382.2604,-180.5981 382.2604,-221.8019"/>
<text text-anchor="middle" x="310.7532" y="-205.4" font-family="Times,serif" font-size="14.00" fill="#000000">GO:0044459</text>
<text text-anchor="middle" x="310.7532" y="-188.6" font-family="Times,serif" font-size="14.00" fill="#000000">plasma membrane part</text>
</g>
<!-- GO:0098590&#45;&gt;GO:0044459 -->
<g id="edge2" class="edge">
<title>GO:0098590&#45;&gt;GO:0044459</title>
<path fill="none" stroke="#000000" d="M129.6666,-127.5165C165.3262,-142.0262 213.1187,-161.4729 250.6511,-176.7447"/>
<polygon fill="#000000" stroke="#000000" points="249.3769,-180.0048 259.9586,-180.5318 252.0151,-173.521 249.3769,-180.0048"/>
</g>
<!-- GO:0005575 -->
<g id="node4" class="node">
<title>GO:0005575</title>
<polygon fill="#ffffff" stroke="#000000" points="898.4399,-385.4019 771.0665,-385.4019 771.0665,-344.1981 898.4399,-344.1981 898.4399,-385.4019"/>
<text text-anchor="middle" x="834.7532" y="-369" font-family="Times,serif" font-size="14.00" fill="#000000">GO:0005575</text>
<text text-anchor="middle" x="834.7532" y="-352.2" font-family="Times,serif" font-size="14.00" fill="#000000">cellular_component</text>
</g>
<!-- GO:0016020&#45;&gt;GO:0005575 -->
<g id="edge3" class="edge">
<title>GO:0016020&#45;&gt;GO:0005575</title>
<path fill="none" stroke="#000000" d="M208.5723,-292.8374C242.6245,-297.0912 290.625,-303.0243 332.7532,-308 484.8115,-325.9595 662.9248,-345.838 760.8484,-356.6669"/>
<polygon fill="#000000" stroke="#000000" points="760.6147,-360.1623 770.9387,-357.7821 761.3838,-353.2046 760.6147,-360.1623"/>
</g>
<!-- GO:0044425 -->
<g id="node5" class="node">
<title>GO:0044425</title>
<polygon fill="#ffffff" stroke="#000000" points="442.1052,-307.8019 341.4012,-307.8019 341.4012,-266.5981 442.1052,-266.5981 442.1052,-307.8019"/>
<text text-anchor="middle" x="391.7532" y="-291.4" font-family="Times,serif" font-size="14.00" fill="#000000">GO:0044425</text>
<text text-anchor="middle" x="391.7532" y="-274.6" font-family="Times,serif" font-size="14.00" fill="#000000">membrane part</text>
</g>
<!-- GO:0044459&#45;&gt;GO:0044425 -->
<g id="edge4" class="edge">
<title>GO:0044459&#45;&gt;GO:0044425</title>
<path fill="none" stroke="#000000" d="M330.361,-222.0182C340.8079,-233.1099 353.8087,-246.9132 365.1534,-258.9583"/>
<polygon fill="#000000" stroke="#000000" points="362.9218,-261.6937 372.3259,-266.5735 368.0175,-256.8943 362.9218,-261.6937"/>
</g>
<!-- GO:0044464 -->
<g id="node6" class="node">
<title>GO:0044464</title>
<polygon fill="#ffffff" stroke="#000000" points="826.3571,-307.8019 737.1493,-307.8019 737.1493,-266.5981 826.3571,-266.5981 826.3571,-307.8019"/>
<text text-anchor="middle" x="781.7532" y="-291.4" font-family="Times,serif" font-size="14.00" fill="#000000">GO:0044464</text>
<text text-anchor="middle" x="781.7532" y="-274.6" font-family="Times,serif" font-size="14.00" fill="#000000">cell part</text>
</g>
<!-- GO:0044459&#45;&gt;GO:0044464 -->
<g id="edge5" class="edge">
<title>GO:0044459&#45;&gt;GO:0044464</title>
<path fill="none" stroke="#000000" d="M363.436,-221.9168C372.7699,-225.0899 382.4727,-228.0766 391.7532,-230.4 509.188,-259.7998 650.5838,-275.6925 726.7271,-282.7053"/>
<polygon fill="#000000" stroke="#000000" points="726.7544,-286.222 737.0289,-283.6364 727.3846,-279.2504 726.7544,-286.222"/>
</g>
<!-- GO:0044425&#45;&gt;GO:0005575 -->
<g id="edge10" class="edge">
<title>GO:0044425&#45;&gt;GO:0005575</title>
<path fill="none" stroke="#000000" d="M442.1396,-296.0262C520.1738,-309.6953 670.6546,-336.055 760.9569,-351.8732"/>
<polygon fill="#000000" stroke="#000000" points="760.3979,-355.3284 770.8518,-353.6064 761.6057,-348.4334 760.3979,-355.3284"/>
</g>
<!-- GO:0044464&#45;&gt;GO:0005575 -->
<g id="edge14" class="edge">
<title>GO:0044464&#45;&gt;GO:0005575</title>
<path fill="none" stroke="#000000" d="M795.9562,-307.9954C801.7189,-316.4328 808.4784,-326.3297 814.7265,-335.4778"/>
<polygon fill="#000000" stroke="#000000" points="811.9807,-337.6634 820.511,-343.9472 817.7612,-333.7154 811.9807,-337.6634"/>
</g>
<!-- GO:0045121 -->
<g id="node7" class="node">
<title>GO:0045121</title>
<polygon fill="#ffffff" stroke="#000000" points="300.7652,-41.4019 202.7412,-41.4019 202.7412,-.1981 300.7652,-.1981 300.7652,-41.4019"/>
<text text-anchor="middle" x="251.7532" y="-25" font-family="Times,serif" font-size="14.00" fill="#000000">GO:0045121</text>
<text text-anchor="middle" x="251.7532" y="-8.2" font-family="Times,serif" font-size="14.00" fill="#000000">membrane raft</text>
</g>
<!-- GO:0098857 -->
<g id="node8" class="node">
<title>GO:0098857</title>
<polygon fill="#ffffff" stroke="#000000" points="328.4912,-127.4019 175.0152,-127.4019 175.0152,-86.1981 328.4912,-86.1981 328.4912,-127.4019"/>
<text text-anchor="middle" x="251.7532" y="-111" font-family="Times,serif" font-size="14.00" fill="#000000">GO:0098857</text>
<text text-anchor="middle" x="251.7532" y="-94.2" font-family="Times,serif" font-size="14.00" fill="#000000">membrane microdomain</text>
</g>
<!-- GO:0045121&#45;&gt;GO:0098857 -->
<g id="edge6" class="edge">
<title>GO:0045121&#45;&gt;GO:0098857</title>
<path fill="none" stroke="#000000" d="M251.7532,-41.6182C251.7532,-51.9705 251.7532,-64.6848 251.7532,-76.1271"/>
<polygon fill="#000000" stroke="#000000" points="248.2533,-76.1735 251.7532,-86.1735 255.2533,-76.1735 248.2533,-76.1735"/>
</g>
<!-- GO:0098589 -->
<g id="node9" class="node">
<title>GO:0098589</title>
<polygon fill="#ffffff" stroke="#000000" points="221.1051,-221.8019 106.4013,-221.8019 106.4013,-180.5981 221.1051,-180.5981 221.1051,-221.8019"/>
<text text-anchor="middle" x="163.7532" y="-205.4" font-family="Times,serif" font-size="14.00" fill="#000000">GO:0098589</text>
<text text-anchor="middle" x="163.7532" y="-188.6" font-family="Times,serif" font-size="14.00" fill="#000000">membrane region</text>
</g>
<!-- GO:0098857&#45;&gt;GO:0098589 -->
<g id="edge7" class="edge">
<title>GO:0098857&#45;&gt;GO:0098589</title>
<path fill="none" stroke="#000000" d="M232.2231,-127.7504C219.9187,-140.9498 203.8707,-158.1649 190.4043,-172.6107"/>
<polygon fill="#000000" stroke="#000000" points="187.4873,-170.6069 183.2287,-180.3081 192.6076,-175.38 187.4873,-170.6069"/>
</g>
<!-- GO:0098589&#45;&gt;GO:0016020 -->
<g id="edge9" class="edge">
<title>GO:0098589&#45;&gt;GO:0016020</title>
<path fill="none" stroke="#000000" d="M163.7532,-222.0182C163.7532,-232.3705 163.7532,-245.0848 163.7532,-256.5271"/>
<polygon fill="#000000" stroke="#000000" points="160.2533,-256.5735 163.7532,-266.5735 167.2533,-256.5735 160.2533,-256.5735"/>
</g>
<!-- GO:0098589&#45;&gt;GO:0044425 -->
<g id="edge8" class="edge">
<title>GO:0098589&#45;&gt;GO:0044425</title>
<path fill="none" stroke="#000000" d="M209.3561,-221.9371C216.157,-224.8661 223.1125,-227.7716 229.7532,-230.4 263.1358,-243.6128 300.9723,-256.9678 331.6794,-267.4055"/>
<polygon fill="#000000" stroke="#000000" points="330.7898,-270.7993 341.384,-270.6879 333.0327,-264.1683 330.7898,-270.7993"/>
</g>
<!-- GO:0016021 -->
<g id="node10" class="node">
<title>GO:0016021</title>
<polygon fill="#ffffff" stroke="#000000" points="541.3863,-136.2014 402.1201,-136.2014 402.1201,-77.3986 541.3863,-77.3986 541.3863,-136.2014"/>
<text text-anchor="middle" x="471.7532" y="-119.4" font-family="Times,serif" font-size="14.00" fill="#000000">GO:0016021</text>
<text text-anchor="middle" x="471.7532" y="-102.6" font-family="Times,serif" font-size="14.00" fill="#000000">integral component of</text>
<text text-anchor="middle" x="471.7532" y="-85.8" font-family="Times,serif" font-size="14.00" fill="#000000">membrane</text>
</g>
<!-- GO:0031224 -->
<g id="node11" class="node">
<title>GO:0031224</title>
<polygon fill="#ffffff" stroke="#000000" points="543.0066,-230.6014 400.4998,-230.6014 400.4998,-171.7986 543.0066,-171.7986 543.0066,-230.6014"/>
<text text-anchor="middle" x="471.7532" y="-213.8" font-family="Times,serif" font-size="14.00" fill="#000000">GO:0031224</text>
<text text-anchor="middle" x="471.7532" y="-197" font-family="Times,serif" font-size="14.00" fill="#000000">intrinsic component of</text>
<text text-anchor="middle" x="471.7532" y="-180.2" font-family="Times,serif" font-size="14.00" fill="#000000">membrane</text>
</g>
<!-- GO:0016021&#45;&gt;GO:0031224 -->
<g id="edge11" class="edge">
<title>GO:0016021&#45;&gt;GO:0031224</title>
<path fill="none" stroke="#000000" d="M471.7532,-136.1513C471.7532,-144.2318 471.7532,-153.1308 471.7532,-161.6838"/>
<polygon fill="#000000" stroke="#000000" points="468.2533,-161.8668 471.7532,-171.8669 475.2533,-161.8669 468.2533,-161.8668"/>
</g>
<!-- GO:0031224&#45;&gt;GO:0044425 -->
<g id="edge12" class="edge">
<title>GO:0031224&#45;&gt;GO:0044425</title>
<path fill="none" stroke="#000000" d="M444.2217,-230.7963C435.6766,-239.9824 426.2879,-250.0752 417.8438,-259.1526"/>
<polygon fill="#000000" stroke="#000000" points="415.2606,-256.7908 411.0122,-266.4966 420.386,-261.5585 415.2606,-256.7908"/>
</g>
<!-- GO:0044463 -->
<g id="node12" class="node">
<title>GO:0044463</title>
<polygon fill="#ffffff" stroke="#000000" points="904.4913,-221.8019 783.0151,-221.8019 783.0151,-180.5981 904.4913,-180.5981 904.4913,-221.8019"/>
<text text-anchor="middle" x="843.7532" y="-205.4" font-family="Times,serif" font-size="14.00" fill="#000000">GO:0044463</text>
<text text-anchor="middle" x="843.7532" y="-188.6" font-family="Times,serif" font-size="14.00" fill="#000000">cell projection part</text>
</g>
<!-- GO:0044463&#45;&gt;GO:0044464 -->
<g id="edge13" class="edge">
<title>GO:0044463&#45;&gt;GO:0044464</title>
<path fill="none" stroke="#000000" d="M828.7447,-222.0182C820.9007,-232.8987 811.1755,-246.3884 802.6111,-258.2681"/>
<polygon fill="#000000" stroke="#000000" points="799.6324,-256.4149 796.6235,-266.5735 805.3106,-260.5086 799.6324,-256.4149"/>
</g>
<!-- GO:0030425 -->
<g id="node13" class="node">
<title>GO:0030425</title>
<polygon fill="#ffffff" stroke="#000000" points="782.3571,-41.4019 693.1493,-41.4019 693.1493,-.1981 782.3571,-.1981 782.3571,-41.4019"/>
<text text-anchor="middle" x="737.7532" y="-25" font-family="Times,serif" font-size="14.00" fill="#000000">GO:0030425</text>
<text text-anchor="middle" x="737.7532" y="-8.2" font-family="Times,serif" font-size="14.00" fill="#000000">dendrite</text>
</g>
<!-- GO:0043005 -->
<g id="node14" class="node">
<title>GO:0043005</title>
<polygon fill="#ffffff" stroke="#000000" points="849.3901,-127.4019 734.1163,-127.4019 734.1163,-86.1981 849.3901,-86.1981 849.3901,-127.4019"/>
<text text-anchor="middle" x="791.7532" y="-111" font-family="Times,serif" font-size="14.00" fill="#000000">GO:0043005</text>
<text text-anchor="middle" x="791.7532" y="-94.2" font-family="Times,serif" font-size="14.00" fill="#000000">neuron projection</text>
</g>
<!-- GO:0030425&#45;&gt;GO:0043005 -->
<g id="edge15" class="edge">
<title>GO:0030425&#45;&gt;GO:0043005</title>
<path fill="none" stroke="#000000" d="M750.8251,-41.6182C757.5907,-52.393 765.963,-65.7267 773.3691,-77.5216"/>
<polygon fill="#000000" stroke="#000000" points="770.5198,-79.5658 778.8017,-86.1735 776.4481,-75.8434 770.5198,-79.5658"/>
</g>
<!-- GO:0097458 -->
<g id="node15" class="node">
<title>GO:0097458</title>
<polygon fill="#ffffff" stroke="#000000" points="1011.3571,-221.8019 922.1493,-221.8019 922.1493,-180.5981 1011.3571,-180.5981 1011.3571,-221.8019"/>
<text text-anchor="middle" x="966.7532" y="-205.4" font-family="Times,serif" font-size="14.00" fill="#000000">GO:0097458</text>
<text text-anchor="middle" x="966.7532" y="-188.6" font-family="Times,serif" font-size="14.00" fill="#000000">neuron part</text>
</g>
<!-- GO:0043005&#45;&gt;GO:0097458 -->
<g id="edge16" class="edge">
<title>GO:0043005&#45;&gt;GO:0097458</title>
<path fill="none" stroke="#000000" d="M830.8313,-127.5216C854.8035,-140.2735 886.1018,-156.9948 913.7532,-172 915.975,-173.2057 918.2474,-174.4427 920.5412,-175.6945"/>
<polygon fill="#000000" stroke="#000000" points="918.9807,-178.8303 929.4333,-180.561 922.3414,-172.6898 918.9807,-178.8303"/>
</g>
<!-- GO:0042995 -->
<g id="node16" class="node">
<title>GO:0042995</title>
<polygon fill="#ffffff" stroke="#000000" points="658.2264,-221.8019 561.28,-221.8019 561.28,-180.5981 658.2264,-180.5981 658.2264,-221.8019"/>
<text text-anchor="middle" x="609.7532" y="-205.4" font-family="Times,serif" font-size="14.00" fill="#000000">GO:0042995</text>
<text text-anchor="middle" x="609.7532" y="-188.6" font-family="Times,serif" font-size="14.00" fill="#000000">cell projection</text>
</g>
<!-- GO:0043005&#45;&gt;GO:0042995 -->
<g id="edge17" class="edge">
<title>GO:0043005&#45;&gt;GO:0042995</title>
<path fill="none" stroke="#000000" d="M751.8125,-127.5165C724.4309,-141.7188 687.9302,-160.6511 658.7843,-175.7685"/>
<polygon fill="#000000" stroke="#000000" points="656.8661,-172.8205 649.6007,-180.5318 660.0892,-179.0344 656.8661,-172.8205"/>
</g>
<!-- GO:0097458&#45;&gt;GO:0044464 -->
<g id="edge18" class="edge">
<title>GO:0097458&#45;&gt;GO:0044464</title>
<path fill="none" stroke="#000000" d="M930.2167,-221.9317C924.7434,-224.8615 919.1322,-227.7687 913.7532,-230.4 888.5283,-242.7397 859.967,-255.2089 835.8797,-265.3082"/>
<polygon fill="#000000" stroke="#000000" points="834.4267,-262.1219 826.5422,-269.199 837.1191,-268.5834 834.4267,-262.1219"/>
</g>
<!-- GO:0042995&#45;&gt;GO:0044464 -->
<g id="edge19" class="edge">
<title>GO:0042995&#45;&gt;GO:0044464</title>
<path fill="none" stroke="#000000" d="M649.8874,-221.8531C655.5436,-224.7366 661.2902,-227.6518 666.7532,-230.4 687.5323,-240.8532 710.5008,-252.2326 730.4125,-262.0421"/>
<polygon fill="#000000" stroke="#000000" points="729.1042,-265.299 739.622,-266.5746 732.1953,-259.0185 729.1042,-265.299"/>
</g>
<!-- GO:0030424 -->
<g id="node17" class="node">
<title>GO:0030424</title>
<polygon fill="#ffffff" stroke="#000000" points="889.3571,-41.4019 800.1493,-41.4019 800.1493,-.1981 889.3571,-.1981 889.3571,-41.4019"/>
<text text-anchor="middle" x="844.7532" y="-25" font-family="Times,serif" font-size="14.00" fill="#000000">GO:0030424</text>
<text text-anchor="middle" x="844.7532" y="-8.2" font-family="Times,serif" font-size="14.00" fill="#000000">axon</text>
</g>
<!-- GO:0030424&#45;&gt;GO:0043005 -->
<g id="edge20" class="edge">
<title>GO:0030424&#45;&gt;GO:0043005</title>
<path fill="none" stroke="#000000" d="M831.9234,-41.6182C825.2831,-52.393 817.0658,-65.7267 809.7968,-77.5216"/>
<polygon fill="#000000" stroke="#000000" points="806.7318,-75.824 804.4649,-86.1735 812.691,-79.4966 806.7318,-75.824"/>
</g>
<!-- GO:0098794 -->
<g id="node18" class="node">
<title>GO:0098794</title>
<polygon fill="#ffffff" stroke="#000000" points="1118.3571,-221.8019 1029.1493,-221.8019 1029.1493,-180.5981 1118.3571,-180.5981 1118.3571,-221.8019"/>
<text text-anchor="middle" x="1073.7532" y="-205.4" font-family="Times,serif" font-size="14.00" fill="#000000">GO:0098794</text>
<text text-anchor="middle" x="1073.7532" y="-188.6" font-family="Times,serif" font-size="14.00" fill="#000000">postsynapse</text>
</g>
<!-- GO:0098794&#45;&gt;GO:0044464 -->
<g id="edge22" class="edge">
<title>GO:0098794&#45;&gt;GO:0044464</title>
<path fill="none" stroke="#000000" d="M1039.9909,-221.8264C1033.7509,-225.0487 1027.1739,-228.0753 1020.7532,-230.4 944.5198,-258.0009 917.615,-244.058 836.053,-266.2897"/>
<polygon fill="#000000" stroke="#000000" points="835.0444,-262.9375 826.3735,-269.0257 836.9485,-269.6736 835.0444,-262.9375"/>
</g>
<!-- GO:0044456 -->
<g id="node19" class="node">
<title>GO:0044456</title>
<polygon fill="#ffffff" stroke="#000000" points="933.3571,-307.8019 844.1493,-307.8019 844.1493,-266.5981 933.3571,-266.5981 933.3571,-307.8019"/>
<text text-anchor="middle" x="888.7532" y="-291.4" font-family="Times,serif" font-size="14.00" fill="#000000">GO:0044456</text>
<text text-anchor="middle" x="888.7532" y="-274.6" font-family="Times,serif" font-size="14.00" fill="#000000">synapse part</text>
</g>
<!-- GO:0098794&#45;&gt;GO:0044456 -->
<g id="edge21" class="edge">
<title>GO:0098794&#45;&gt;GO:0044456</title>
<path fill="none" stroke="#000000" d="M1037.2167,-221.9317C1031.7434,-224.8615 1026.1322,-227.7687 1020.7532,-230.4 995.5283,-242.7397 966.967,-255.2089 942.8797,-265.3082"/>
<polygon fill="#000000" stroke="#000000" points="941.4267,-262.1219 933.5422,-269.199 944.1191,-268.5834 941.4267,-262.1219"/>
</g>
<!-- GO:0044456&#45;&gt;GO:0005575 -->
<g id="edge23" class="edge">
<title>GO:0044456&#45;&gt;GO:0005575</title>
<path fill="none" stroke="#000000" d="M874.2822,-307.9954C868.4108,-316.4328 861.5238,-326.3297 855.1578,-335.4778"/>
<polygon fill="#000000" stroke="#000000" points="852.1032,-333.7398 849.2642,-343.9472 857.849,-337.7382 852.1032,-333.7398"/>
</g>
<!-- GO:0030430 -->
<g id="node20" class="node">
<title>GO:0030430</title>
<polygon fill="#ffffff" stroke="#000000" points="1242.8444,-41.4019 1118.662,-41.4019 1118.662,-.1981 1242.8444,-.1981 1242.8444,-41.4019"/>
<text text-anchor="middle" x="1180.7532" y="-25" font-family="Times,serif" font-size="14.00" fill="#000000">GO:0030430</text>
<text text-anchor="middle" x="1180.7532" y="-8.2" font-family="Times,serif" font-size="14.00" fill="#000000">host cell cytoplasm</text>
</g>
<!-- GO:0033646 -->
<g id="node21" class="node">
<title>GO:0033646</title>
<polygon fill="#ffffff" stroke="#000000" points="1248.4871,-127.4019 1113.0193,-127.4019 1113.0193,-86.1981 1248.4871,-86.1981 1248.4871,-127.4019"/>
<text text-anchor="middle" x="1180.7532" y="-111" font-family="Times,serif" font-size="14.00" fill="#000000">GO:0033646</text>
<text text-anchor="middle" x="1180.7532" y="-94.2" font-family="Times,serif" font-size="14.00" fill="#000000">host intracellular part</text>
</g>
<!-- GO:0030430&#45;&gt;GO:0033646 -->
<g id="edge24" class="edge">
<title>GO:0030430&#45;&gt;GO:0033646</title>
<path fill="none" stroke="#000000" d="M1180.7532,-41.6182C1180.7532,-51.9705 1180.7532,-64.6848 1180.7532,-76.1271"/>
<polygon fill="#000000" stroke="#000000" points="1177.2533,-76.1735 1180.7532,-86.1735 1184.2533,-76.1735 1177.2533,-76.1735"/>
</g>
<!-- GO:0033643 -->
<g id="node22" class="node">
<title>GO:0033643</title>
<polygon fill="#ffffff" stroke="#000000" points="1225.3571,-221.8019 1136.1493,-221.8019 1136.1493,-180.5981 1225.3571,-180.5981 1225.3571,-221.8019"/>
<text text-anchor="middle" x="1180.7532" y="-205.4" font-family="Times,serif" font-size="14.00" fill="#000000">GO:0033643</text>
<text text-anchor="middle" x="1180.7532" y="-188.6" font-family="Times,serif" font-size="14.00" fill="#000000">host cell part</text>
</g>
<!-- GO:0033646&#45;&gt;GO:0033643 -->
<g id="edge25" class="edge">
<title>GO:0033646&#45;&gt;GO:0033643</title>
<path fill="none" stroke="#000000" d="M1180.7532,-127.7504C1180.7532,-140.2165 1180.7532,-156.2645 1180.7532,-170.1786"/>
<polygon fill="#000000" stroke="#000000" points="1177.2533,-170.3081 1180.7532,-180.3081 1184.2533,-170.3082 1177.2533,-170.3081"/>
</g>
<!-- GO:0044217 -->
<g id="node23" class="node">
<title>GO:0044217</title>
<polygon fill="#ffffff" stroke="#000000" points="1076.3863,-307.8019 951.1201,-307.8019 951.1201,-266.5981 1076.3863,-266.5981 1076.3863,-307.8019"/>
<text text-anchor="middle" x="1013.7532" y="-291.4" font-family="Times,serif" font-size="14.00" fill="#000000">GO:0044217</text>
<text text-anchor="middle" x="1013.7532" y="-274.6" font-family="Times,serif" font-size="14.00" fill="#000000">other organism part</text>
</g>
<!-- GO:0033643&#45;&gt;GO:0044217 -->
<g id="edge26" class="edge">
<title>GO:0033643&#45;&gt;GO:0044217</title>
<path fill="none" stroke="#000000" d="M1143.7924,-221.8174C1138.4305,-224.7343 1132.9635,-227.6682 1127.7532,-230.4 1107.4657,-241.0369 1084.9297,-252.3662 1065.287,-262.0857"/>
<polygon fill="#000000" stroke="#000000" points="1063.6115,-259.0095 1056.1926,-266.5733 1066.7091,-265.2869 1063.6115,-259.0095"/>
</g>
<!-- GO:0044217&#45;&gt;GO:0005575 -->
<g id="edge27" class="edge">
<title>GO:0044217&#45;&gt;GO:0005575</title>
<path fill="none" stroke="#000000" d="M965.7845,-307.9954C943.0202,-317.8641 915.65,-329.7296 891.825,-340.0582"/>
<polygon fill="#000000" stroke="#000000" points="890.3265,-336.8931 882.5437,-344.0819 893.1108,-343.3155 890.3265,-336.8931"/>
</g>
<!-- GO:0045202 -->
<g id="node24" class="node">
<title>GO:0045202</title>
<polygon fill="#ffffff" stroke="#000000" points="1183.3571,-307.8019 1094.1493,-307.8019 1094.1493,-266.5981 1183.3571,-266.5981 1183.3571,-307.8019"/>
<text text-anchor="middle" x="1138.7532" y="-291.4" font-family="Times,serif" font-size="14.00" fill="#000000">GO:0045202</text>
<text text-anchor="middle" x="1138.7532" y="-274.6" font-family="Times,serif" font-size="14.00" fill="#000000">synapse</text>
</g>
<!-- GO:0045202&#45;&gt;GO:0005575 -->
<g id="edge28" class="edge">
<title>GO:0045202&#45;&gt;GO:0005575</title>
<path fill="none" stroke="#000000" d="M1094.1026,-305.2727C1091.2925,-306.2392 1088.4932,-307.1576 1085.7532,-308 1026.8996,-326.0937 958.6717,-341.1673 908.2182,-351.2288"/>
<polygon fill="#000000" stroke="#000000" points="907.5046,-347.802 898.3725,-353.1737 908.8612,-354.6693 907.5046,-347.802"/>
</g>
<!-- GO:0009986 -->
<g id="node25" class="node">
<title>GO:0009986</title>
<polygon fill="#ffffff" stroke="#000000" points="765.3571,-221.8019 676.1493,-221.8019 676.1493,-180.5981 765.3571,-180.5981 765.3571,-221.8019"/>
<text text-anchor="middle" x="720.7532" y="-205.4" font-family="Times,serif" font-size="14.00" fill="#000000">GO:0009986</text>
<text text-anchor="middle" x="720.7532" y="-188.6" font-family="Times,serif" font-size="14.00" fill="#000000">cell surface</text>
</g>
<!-- GO:0009986&#45;&gt;GO:0044464 -->
<g id="edge29" class="edge">
<title>GO:0009986&#45;&gt;GO:0044464</title>
<path fill="none" stroke="#000000" d="M735.5196,-222.0182C743.2371,-232.8987 752.8054,-246.3884 761.2317,-258.2681"/>
<polygon fill="#000000" stroke="#000000" points="758.4825,-260.4419 767.1228,-266.5735 764.1921,-256.3921 758.4825,-260.4419"/>
</g>
</g>
</svg>
