<?xml version="1.0" encoding="UTF-8" standalone="no"?>
<!DOCTYPE svg PUBLIC "-//W3C//DTD SVG 1.1//EN"
 "http://www.w3.org/Graphics/SVG/1.1/DTD/svg11.dtd">
<!-- Generated by graphviz version 2.40.1 (20161225.0304)
 -->
<!-- Title: G Pages: 1 -->
<svg width="1428pt" height="710pt"
 viewBox="0.00 0.00 1428.22 710.40" xmlns="http://www.w3.org/2000/svg" xmlns:xlink="http://www.w3.org/1999/xlink">
<g id="graph0" class="graph" transform="scale(1 1) rotate(0) translate(4 706.4)">
<title>G</title>
<polygon fill="#ffffff" stroke="transparent" points="-4,4 -4,-706.4 1424.2164,-706.4 1424.2164,4 -4,4"/>
<!-- GO:0006818 -->
<g id="node1" class="node">
<title>GO:0006818</title>
<polygon fill="#ffffff" stroke="#000000" points="122.2053,-238.6019 -.0685,-238.6019 -.0685,-197.3981 122.2053,-197.3981 122.2053,-238.6019"/>
<text text-anchor="middle" x="61.0684" y="-222.2" font-family="Times,serif" font-size="14.00" fill="#000000">GO:0006818</text>
<text text-anchor="middle" x="61.0684" y="-205.4" font-family="Times,serif" font-size="14.00" fill="#000000">hydrogen transport</text>
</g>
<!-- GO:0044765 -->
<g id="node2" class="node">
<title>GO:0044765</title>
<polygon fill="#ffffff" stroke="#000000" points="264.0327,-333.0019 104.1041,-333.0019 104.1041,-291.7981 264.0327,-291.7981 264.0327,-333.0019"/>
<text text-anchor="middle" x="184.0684" y="-316.6" font-family="Times,serif" font-size="14.00" fill="#000000">GO:0044765</text>
<text text-anchor="middle" x="184.0684" y="-299.8" font-family="Times,serif" font-size="14.00" fill="#000000">single&#45;organism transport</text>
</g>
<!-- GO:0006818&#45;&gt;GO:0044765 -->
<g id="edge1" class="edge">
<title>GO:0006818&#45;&gt;GO:0044765</title>
<path fill="none" stroke="#000000" d="M88.0613,-238.7165C106.0057,-252.4885 129.7451,-270.708 149.1279,-285.5839"/>
<polygon fill="#000000" stroke="#000000" points="147.0746,-288.42 157.1385,-291.7318 151.3365,-282.8669 147.0746,-288.42"/>
</g>
<!-- GO:0006810 -->
<g id="node3" class="node">
<title>GO:0006810</title>
<polygon fill="#ffffff" stroke="#000000" points="129.6723,-427.4019 40.4645,-427.4019 40.4645,-386.1981 129.6723,-386.1981 129.6723,-427.4019"/>
<text text-anchor="middle" x="85.0684" y="-411" font-family="Times,serif" font-size="14.00" fill="#000000">GO:0006810</text>
<text text-anchor="middle" x="85.0684" y="-394.2" font-family="Times,serif" font-size="14.00" fill="#000000">transport</text>
</g>
<!-- GO:0044765&#45;&gt;GO:0006810 -->
<g id="edge2" class="edge">
<title>GO:0044765&#45;&gt;GO:0006810</title>
<path fill="none" stroke="#000000" d="M162.0971,-333.3504C148.1264,-346.672 129.8659,-364.084 114.6308,-378.6112"/>
<polygon fill="#000000" stroke="#000000" points="111.8002,-376.4742 106.9783,-385.9081 116.6309,-381.5402 111.8002,-376.4742"/>
</g>
<!-- GO:1902578 -->
<g id="node4" class="node">
<title>GO:1902578</title>
<polygon fill="#ffffff" stroke="#000000" points="237.2706,-530.6014 130.8662,-530.6014 130.8662,-471.7986 237.2706,-471.7986 237.2706,-530.6014"/>
<text text-anchor="middle" x="184.0684" y="-513.8" font-family="Times,serif" font-size="14.00" fill="#000000">GO:1902578</text>
<text text-anchor="middle" x="184.0684" y="-497" font-family="Times,serif" font-size="14.00" fill="#000000">single&#45;organism</text>
<text text-anchor="middle" x="184.0684" y="-480.2" font-family="Times,serif" font-size="14.00" fill="#000000">localization</text>
</g>
<!-- GO:0044765&#45;&gt;GO:1902578 -->
<g id="edge3" class="edge">
<title>GO:0044765&#45;&gt;GO:1902578</title>
<path fill="none" stroke="#000000" d="M184.0684,-333.3263C184.0684,-364.1951 184.0684,-422.4952 184.0684,-461.6013"/>
<polygon fill="#000000" stroke="#000000" points="180.5685,-461.8376 184.0684,-471.8376 187.5685,-461.8377 180.5685,-461.8376"/>
</g>
<!-- GO:0051234 -->
<g id="node5" class="node">
<title>GO:0051234</title>
<polygon fill="#ffffff" stroke="#000000" points="113.2151,-530.6014 4.9217,-530.6014 4.9217,-471.7986 113.2151,-471.7986 113.2151,-530.6014"/>
<text text-anchor="middle" x="59.0684" y="-513.8" font-family="Times,serif" font-size="14.00" fill="#000000">GO:0051234</text>
<text text-anchor="middle" x="59.0684" y="-497" font-family="Times,serif" font-size="14.00" fill="#000000">establishment of</text>
<text text-anchor="middle" x="59.0684" y="-480.2" font-family="Times,serif" font-size="14.00" fill="#000000">localization</text>
</g>
<!-- GO:0006810&#45;&gt;GO:0051234 -->
<g id="edge4" class="edge">
<title>GO:0006810&#45;&gt;GO:0051234</title>
<path fill="none" stroke="#000000" d="M79.2982,-427.7504C76.5164,-437.8502 73.0871,-450.3012 69.8475,-462.0637"/>
<polygon fill="#000000" stroke="#000000" points="66.4702,-461.1451 67.1891,-471.7155 73.2189,-463.0039 66.4702,-461.1451"/>
</g>
<!-- GO:0051179 -->
<g id="node6" class="node">
<title>GO:0051179</title>
<polygon fill="#ffffff" stroke="#000000" points="166.6723,-616.2019 77.4645,-616.2019 77.4645,-574.9981 166.6723,-574.9981 166.6723,-616.2019"/>
<text text-anchor="middle" x="122.0684" y="-599.8" font-family="Times,serif" font-size="14.00" fill="#000000">GO:0051179</text>
<text text-anchor="middle" x="122.0684" y="-583" font-family="Times,serif" font-size="14.00" fill="#000000">localization</text>
</g>
<!-- GO:1902578&#45;&gt;GO:0051179 -->
<g id="edge5" class="edge">
<title>GO:1902578&#45;&gt;GO:0051179</title>
<path fill="none" stroke="#000000" d="M164.7911,-530.5513C157.2561,-542.0238 148.6376,-555.1462 141.1242,-566.5861"/>
<polygon fill="#000000" stroke="#000000" points="138.1945,-564.6711 135.6303,-574.951 144.0454,-568.5139 138.1945,-564.6711"/>
</g>
<!-- GO:0044699 -->
<g id="node7" class="node">
<title>GO:0044699</title>
<polygon fill="#ffffff" stroke="#000000" points="335.7497,-616.2019 184.3871,-616.2019 184.3871,-574.9981 335.7497,-574.9981 335.7497,-616.2019"/>
<text text-anchor="middle" x="260.0684" y="-599.8" font-family="Times,serif" font-size="14.00" fill="#000000">GO:0044699</text>
<text text-anchor="middle" x="260.0684" y="-583" font-family="Times,serif" font-size="14.00" fill="#000000">single&#45;organism process</text>
</g>
<!-- GO:1902578&#45;&gt;GO:0044699 -->
<g id="edge6" class="edge">
<title>GO:1902578&#45;&gt;GO:0044699</title>
<path fill="none" stroke="#000000" d="M207.6987,-530.5513C217.0256,-542.1363 227.707,-555.4037 236.9802,-566.922"/>
<polygon fill="#000000" stroke="#000000" points="234.4468,-569.3565 243.4442,-574.951 239.8994,-564.9667 234.4468,-569.3565"/>
</g>
<!-- GO:0051234&#45;&gt;GO:0051179 -->
<g id="edge7" class="edge">
<title>GO:0051234&#45;&gt;GO:0051179</title>
<path fill="none" stroke="#000000" d="M78.6567,-530.5513C86.3131,-542.0238 95.0707,-555.1462 102.7053,-566.5861"/>
<polygon fill="#000000" stroke="#000000" points="99.8255,-568.5761 108.2878,-574.951 105.6479,-564.6903 99.8255,-568.5761"/>
</g>
<!-- GO:0008150 -->
<g id="node8" class="node">
<title>GO:0008150</title>
<polygon fill="#ffffff" stroke="#000000" points="616.539,-702.2019 495.5978,-702.2019 495.5978,-660.9981 616.539,-660.9981 616.539,-702.2019"/>
<text text-anchor="middle" x="556.0684" y="-685.8" font-family="Times,serif" font-size="14.00" fill="#000000">GO:0008150</text>
<text text-anchor="middle" x="556.0684" y="-669" font-family="Times,serif" font-size="14.00" fill="#000000">biological_process</text>
</g>
<!-- GO:0051179&#45;&gt;GO:0008150 -->
<g id="edge8" class="edge">
<title>GO:0051179&#45;&gt;GO:0008150</title>
<path fill="none" stroke="#000000" d="M155.4612,-616.3111C161.7949,-619.5652 168.4995,-622.5809 175.0684,-624.8 279.5152,-660.0838 407.432,-673.4789 485.2825,-678.5446"/>
<polygon fill="#000000" stroke="#000000" points="485.261,-682.0499 495.4591,-679.1778 485.6958,-675.0635 485.261,-682.0499"/>
</g>
<!-- GO:0044699&#45;&gt;GO:0008150 -->
<g id="edge9" class="edge">
<title>GO:0044699&#45;&gt;GO:0008150</title>
<path fill="none" stroke="#000000" d="M318.4256,-616.2307C327.3187,-619.2052 336.4145,-622.1521 345.0684,-624.8 391.4835,-639.0019 444.2105,-653.1964 485.3452,-663.8431"/>
<polygon fill="#000000" stroke="#000000" points="484.7166,-667.2954 495.2738,-666.4023 486.4639,-660.517 484.7166,-667.2954"/>
</g>
<!-- GO:0007165 -->
<g id="node9" class="node">
<title>GO:0007165</title>
<polygon fill="#ffffff" stroke="#000000" points="553.2151,-427.4019 430.9217,-427.4019 430.9217,-386.1981 553.2151,-386.1981 553.2151,-427.4019"/>
<text text-anchor="middle" x="492.0684" y="-411" font-family="Times,serif" font-size="14.00" fill="#000000">GO:0007165</text>
<text text-anchor="middle" x="492.0684" y="-394.2" font-family="Times,serif" font-size="14.00" fill="#000000">signal transduction</text>
</g>
<!-- GO:0050794 -->
<g id="node10" class="node">
<title>GO:0050794</title>
<polygon fill="#ffffff" stroke="#000000" points="558.9674,-530.6014 425.1694,-530.6014 425.1694,-471.7986 558.9674,-471.7986 558.9674,-530.6014"/>
<text text-anchor="middle" x="492.0684" y="-513.8" font-family="Times,serif" font-size="14.00" fill="#000000">GO:0050794</text>
<text text-anchor="middle" x="492.0684" y="-497" font-family="Times,serif" font-size="14.00" fill="#000000">regulation of cellular</text>
<text text-anchor="middle" x="492.0684" y="-480.2" font-family="Times,serif" font-size="14.00" fill="#000000">process</text>
</g>
<!-- GO:0007165&#45;&gt;GO:0050794 -->
<g id="edge10" class="edge">
<title>GO:0007165&#45;&gt;GO:0050794</title>
<path fill="none" stroke="#000000" d="M492.0684,-427.7504C492.0684,-437.7492 492.0684,-450.0525 492.0684,-461.7106"/>
<polygon fill="#000000" stroke="#000000" points="488.5685,-461.7155 492.0684,-471.7155 495.5685,-461.7156 488.5685,-461.7155"/>
</g>
<!-- GO:0065007 -->
<g id="node11" class="node">
<title>GO:0065007</title>
<polygon fill="#ffffff" stroke="#000000" points="486.3218,-616.2019 353.815,-616.2019 353.815,-574.9981 486.3218,-574.9981 486.3218,-616.2019"/>
<text text-anchor="middle" x="420.0684" y="-599.8" font-family="Times,serif" font-size="14.00" fill="#000000">GO:0065007</text>
<text text-anchor="middle" x="420.0684" y="-583" font-family="Times,serif" font-size="14.00" fill="#000000">biological regulation</text>
</g>
<!-- GO:0050794&#45;&gt;GO:0065007 -->
<g id="edge11" class="edge">
<title>GO:0050794&#45;&gt;GO:0065007</title>
<path fill="none" stroke="#000000" d="M469.6818,-530.5513C460.8458,-542.1363 450.7266,-555.4037 441.9414,-566.922"/>
<polygon fill="#000000" stroke="#000000" points="439.0992,-564.8772 435.8176,-574.951 444.6651,-569.1223 439.0992,-564.8772"/>
</g>
<!-- GO:0050789 -->
<g id="node12" class="node">
<title>GO:0050789</title>
<polygon fill="#ffffff" stroke="#000000" points="772.9828,-625.0014 625.154,-625.0014 625.154,-566.1986 772.9828,-566.1986 772.9828,-625.0014"/>
<text text-anchor="middle" x="699.0684" y="-608.2" font-family="Times,serif" font-size="14.00" fill="#000000">GO:0050789</text>
<text text-anchor="middle" x="699.0684" y="-591.4" font-family="Times,serif" font-size="14.00" fill="#000000">regulation of biological</text>
<text text-anchor="middle" x="699.0684" y="-574.6" font-family="Times,serif" font-size="14.00" fill="#000000">process</text>
</g>
<!-- GO:0050794&#45;&gt;GO:0050789 -->
<g id="edge12" class="edge">
<title>GO:0050794&#45;&gt;GO:0050789</title>
<path fill="none" stroke="#000000" d="M556.1469,-530.4223C578.1667,-540.4642 602.9854,-551.7825 625.6866,-562.1351"/>
<polygon fill="#000000" stroke="#000000" points="624.3855,-565.3884 634.9363,-566.3533 627.2901,-559.0195 624.3855,-565.3884"/>
</g>
<!-- GO:0065007&#45;&gt;GO:0008150 -->
<g id="edge13" class="edge">
<title>GO:0065007&#45;&gt;GO:0008150</title>
<path fill="none" stroke="#000000" d="M452.9902,-616.4182C471.6164,-628.1966 495.0781,-643.0326 514.9109,-655.5739"/>
<polygon fill="#000000" stroke="#000000" points="513.1272,-658.587 523.4498,-660.9735 516.8684,-652.6707 513.1272,-658.587"/>
</g>
<!-- GO:0050789&#45;&gt;GO:0008150 -->
<g id="edge14" class="edge">
<title>GO:0050789&#45;&gt;GO:0008150</title>
<path fill="none" stroke="#000000" d="M650.2559,-624.9558C633.735,-634.8914 615.4113,-645.9112 599.3503,-655.5703"/>
<polygon fill="#000000" stroke="#000000" points="597.452,-652.6277 590.6861,-660.7809 601.0596,-658.6265 597.452,-652.6277"/>
</g>
<!-- GO:0015672 -->
<g id="node13" class="node">
<title>GO:0015672</title>
<polygon fill="#ffffff" stroke="#000000" points="254.5412,-58.6014 115.5956,-58.6014 115.5956,.2014 254.5412,.2014 254.5412,-58.6014"/>
<text text-anchor="middle" x="185.0684" y="-41.8" font-family="Times,serif" font-size="14.00" fill="#000000">GO:0015672</text>
<text text-anchor="middle" x="185.0684" y="-25" font-family="Times,serif" font-size="14.00" fill="#000000">monovalent inorganic</text>
<text text-anchor="middle" x="185.0684" y="-8.2" font-family="Times,serif" font-size="14.00" fill="#000000">cation transport</text>
</g>
<!-- GO:0006812 -->
<g id="node14" class="node">
<title>GO:0006812</title>
<polygon fill="#ffffff" stroke="#000000" points="237.0415,-144.2019 133.0953,-144.2019 133.0953,-102.9981 237.0415,-102.9981 237.0415,-144.2019"/>
<text text-anchor="middle" x="185.0684" y="-127.8" font-family="Times,serif" font-size="14.00" fill="#000000">GO:0006812</text>
<text text-anchor="middle" x="185.0684" y="-111" font-family="Times,serif" font-size="14.00" fill="#000000">cation transport</text>
</g>
<!-- GO:0015672&#45;&gt;GO:0006812 -->
<g id="edge15" class="edge">
<title>GO:0015672&#45;&gt;GO:0006812</title>
<path fill="none" stroke="#000000" d="M185.0684,-58.5513C185.0684,-69.4614 185.0684,-81.8637 185.0684,-92.892"/>
<polygon fill="#000000" stroke="#000000" points="181.5685,-92.9509 185.0684,-102.951 188.5685,-92.951 181.5685,-92.9509"/>
</g>
<!-- GO:0006811 -->
<g id="node15" class="node">
<title>GO:0006811</title>
<polygon fill="#ffffff" stroke="#000000" points="229.6723,-238.6019 140.4645,-238.6019 140.4645,-197.3981 229.6723,-197.3981 229.6723,-238.6019"/>
<text text-anchor="middle" x="185.0684" y="-222.2" font-family="Times,serif" font-size="14.00" fill="#000000">GO:0006811</text>
<text text-anchor="middle" x="185.0684" y="-205.4" font-family="Times,serif" font-size="14.00" fill="#000000">ion transport</text>
</g>
<!-- GO:0006812&#45;&gt;GO:0006811 -->
<g id="edge16" class="edge">
<title>GO:0006812&#45;&gt;GO:0006811</title>
<path fill="none" stroke="#000000" d="M185.0684,-144.5504C185.0684,-157.0165 185.0684,-173.0645 185.0684,-186.9786"/>
<polygon fill="#000000" stroke="#000000" points="181.5685,-187.1081 185.0684,-197.1081 188.5685,-187.1082 181.5685,-187.1081"/>
</g>
<!-- GO:0006811&#45;&gt;GO:0044765 -->
<g id="edge17" class="edge">
<title>GO:0006811&#45;&gt;GO:0044765</title>
<path fill="none" stroke="#000000" d="M184.8465,-238.9504C184.7144,-251.4165 184.5444,-267.4645 184.397,-281.3786"/>
<polygon fill="#000000" stroke="#000000" points="180.8959,-281.4716 184.2897,-291.5081 187.8955,-281.5458 180.8959,-281.4716"/>
</g>
<!-- GO:0009583 -->
<g id="node16" class="node">
<title>GO:0009583</title>
<polygon fill="#ffffff" stroke="#000000" points="845.717,-247.4014 734.4198,-247.4014 734.4198,-188.5986 845.717,-188.5986 845.717,-247.4014"/>
<text text-anchor="middle" x="790.0684" y="-230.6" font-family="Times,serif" font-size="14.00" fill="#000000">GO:0009583</text>
<text text-anchor="middle" x="790.0684" y="-213.8" font-family="Times,serif" font-size="14.00" fill="#000000">detection of light</text>
<text text-anchor="middle" x="790.0684" y="-197" font-family="Times,serif" font-size="14.00" fill="#000000">stimulus</text>
</g>
<!-- GO:0009581 -->
<g id="node17" class="node">
<title>GO:0009581</title>
<polygon fill="#ffffff" stroke="#000000" points="709.6302,-436.2014 578.5066,-436.2014 578.5066,-377.3986 709.6302,-377.3986 709.6302,-436.2014"/>
<text text-anchor="middle" x="644.0684" y="-419.4" font-family="Times,serif" font-size="14.00" fill="#000000">GO:0009581</text>
<text text-anchor="middle" x="644.0684" y="-402.6" font-family="Times,serif" font-size="14.00" fill="#000000">detection of external</text>
<text text-anchor="middle" x="644.0684" y="-385.8" font-family="Times,serif" font-size="14.00" fill="#000000">stimulus</text>
</g>
<!-- GO:0009583&#45;&gt;GO:0009581 -->
<g id="edge18" class="edge">
<title>GO:0009583&#45;&gt;GO:0009581</title>
<path fill="none" stroke="#000000" d="M767.2559,-247.5C741.8631,-280.3367 700.7677,-333.4793 673.1008,-369.2567"/>
<polygon fill="#000000" stroke="#000000" points="670.0694,-367.4554 666.7207,-377.5072 675.6068,-371.7376 670.0694,-367.4554"/>
</g>
<!-- GO:0009582 -->
<g id="node18" class="node">
<title>GO:0009582</title>
<polygon fill="#ffffff" stroke="#000000" points="852.1456,-436.2014 727.9912,-436.2014 727.9912,-377.3986 852.1456,-377.3986 852.1456,-436.2014"/>
<text text-anchor="middle" x="790.0684" y="-419.4" font-family="Times,serif" font-size="14.00" fill="#000000">GO:0009582</text>
<text text-anchor="middle" x="790.0684" y="-402.6" font-family="Times,serif" font-size="14.00" fill="#000000">detection of abiotic</text>
<text text-anchor="middle" x="790.0684" y="-385.8" font-family="Times,serif" font-size="14.00" fill="#000000">stimulus</text>
</g>
<!-- GO:0009583&#45;&gt;GO:0009582 -->
<g id="edge19" class="edge">
<title>GO:0009583&#45;&gt;GO:0009582</title>
<path fill="none" stroke="#000000" d="M790.0684,-247.5C790.0684,-279.7825 790.0684,-331.6912 790.0684,-367.4305"/>
<polygon fill="#000000" stroke="#000000" points="786.5685,-367.5071 790.0684,-377.5072 793.5685,-367.5072 786.5685,-367.5071"/>
</g>
<!-- GO:0009416 -->
<g id="node19" class="node">
<title>GO:0009416</title>
<polygon fill="#ffffff" stroke="#000000" points="941.1108,-341.8014 833.026,-341.8014 833.026,-282.9986 941.1108,-282.9986 941.1108,-341.8014"/>
<text text-anchor="middle" x="887.0684" y="-325" font-family="Times,serif" font-size="14.00" fill="#000000">GO:0009416</text>
<text text-anchor="middle" x="887.0684" y="-308.2" font-family="Times,serif" font-size="14.00" fill="#000000">response to light</text>
<text text-anchor="middle" x="887.0684" y="-291.4" font-family="Times,serif" font-size="14.00" fill="#000000">stimulus</text>
</g>
<!-- GO:0009583&#45;&gt;GO:0009416 -->
<g id="edge20" class="edge">
<title>GO:0009583&#45;&gt;GO:0009416</title>
<path fill="none" stroke="#000000" d="M820.2281,-247.3513C829.5348,-256.4086 839.8982,-266.4941 849.6333,-275.9683"/>
<polygon fill="#000000" stroke="#000000" points="847.3198,-278.6007 856.9274,-283.0669 852.2019,-273.5842 847.3198,-278.6007"/>
</g>
<!-- GO:0051606 -->
<g id="node20" class="node">
<title>GO:0051606</title>
<polygon fill="#ffffff" stroke="#000000" points="856.9969,-521.8019 723.1399,-521.8019 723.1399,-480.5981 856.9969,-480.5981 856.9969,-521.8019"/>
<text text-anchor="middle" x="790.0684" y="-505.4" font-family="Times,serif" font-size="14.00" fill="#000000">GO:0051606</text>
<text text-anchor="middle" x="790.0684" y="-488.6" font-family="Times,serif" font-size="14.00" fill="#000000">detection of stimulus</text>
</g>
<!-- GO:0009581&#45;&gt;GO:0051606 -->
<g id="edge21" class="edge">
<title>GO:0009581&#45;&gt;GO:0051606</title>
<path fill="none" stroke="#000000" d="M689.4634,-436.1513C708.6856,-448.5799 730.9025,-462.9448 749.5612,-475.009"/>
<polygon fill="#000000" stroke="#000000" points="747.8345,-478.0604 758.1324,-480.551 751.6352,-472.1821 747.8345,-478.0604"/>
</g>
<!-- GO:0009605 -->
<g id="node21" class="node">
<title>GO:0009605</title>
<polygon fill="#ffffff" stroke="#000000" points="705.0236,-530.6014 577.1132,-530.6014 577.1132,-471.7986 705.0236,-471.7986 705.0236,-530.6014"/>
<text text-anchor="middle" x="641.0684" y="-513.8" font-family="Times,serif" font-size="14.00" fill="#000000">GO:0009605</text>
<text text-anchor="middle" x="641.0684" y="-497" font-family="Times,serif" font-size="14.00" fill="#000000">response to external</text>
<text text-anchor="middle" x="641.0684" y="-480.2" font-family="Times,serif" font-size="14.00" fill="#000000">stimulus</text>
</g>
<!-- GO:0009581&#45;&gt;GO:0009605 -->
<g id="edge22" class="edge">
<title>GO:0009581&#45;&gt;GO:0009605</title>
<path fill="none" stroke="#000000" d="M643.1356,-436.1513C642.8788,-444.2318 642.596,-453.1308 642.3242,-461.6838"/>
<polygon fill="#000000" stroke="#000000" points="638.8201,-461.7607 642.0006,-471.8669 645.8166,-461.9831 638.8201,-461.7607"/>
</g>
<!-- GO:0009582&#45;&gt;GO:0051606 -->
<g id="edge24" class="edge">
<title>GO:0009582&#45;&gt;GO:0051606</title>
<path fill="none" stroke="#000000" d="M790.0684,-436.1513C790.0684,-447.0614 790.0684,-459.4637 790.0684,-470.492"/>
<polygon fill="#000000" stroke="#000000" points="786.5685,-470.5509 790.0684,-480.551 793.5685,-470.551 786.5685,-470.5509"/>
</g>
<!-- GO:0009628 -->
<g id="node22" class="node">
<title>GO:0009628</title>
<polygon fill="#ffffff" stroke="#000000" points="995.539,-530.6014 874.5978,-530.6014 874.5978,-471.7986 995.539,-471.7986 995.539,-530.6014"/>
<text text-anchor="middle" x="935.0684" y="-513.8" font-family="Times,serif" font-size="14.00" fill="#000000">GO:0009628</text>
<text text-anchor="middle" x="935.0684" y="-497" font-family="Times,serif" font-size="14.00" fill="#000000">response to abiotic</text>
<text text-anchor="middle" x="935.0684" y="-480.2" font-family="Times,serif" font-size="14.00" fill="#000000">stimulus</text>
</g>
<!-- GO:0009582&#45;&gt;GO:0009628 -->
<g id="edge23" class="edge">
<title>GO:0009582&#45;&gt;GO:0009628</title>
<path fill="none" stroke="#000000" d="M835.1525,-436.1513C849.7466,-445.6525 866.0788,-456.2854 881.2416,-466.1569"/>
<polygon fill="#000000" stroke="#000000" points="879.7221,-469.344 890.0122,-471.8669 883.5413,-463.4777 879.7221,-469.344"/>
</g>
<!-- GO:0009314 -->
<g id="node23" class="node">
<title>GO:0009314</title>
<polygon fill="#ffffff" stroke="#000000" points="1002.2001,-427.4019 869.9367,-427.4019 869.9367,-386.1981 1002.2001,-386.1981 1002.2001,-427.4019"/>
<text text-anchor="middle" x="936.0684" y="-411" font-family="Times,serif" font-size="14.00" fill="#000000">GO:0009314</text>
<text text-anchor="middle" x="936.0684" y="-394.2" font-family="Times,serif" font-size="14.00" fill="#000000">response to radiation</text>
</g>
<!-- GO:0009416&#45;&gt;GO:0009314 -->
<g id="edge25" class="edge">
<title>GO:0009416&#45;&gt;GO:0009314</title>
<path fill="none" stroke="#000000" d="M902.3037,-341.7513C908.142,-352.9989 914.8034,-365.8323 920.6579,-377.1112"/>
<polygon fill="#000000" stroke="#000000" points="917.6366,-378.8879 925.3502,-386.151 923.8495,-375.6629 917.6366,-378.8879"/>
</g>
<!-- GO:0050896 -->
<g id="node24" class="node">
<title>GO:0050896</title>
<polygon fill="#ffffff" stroke="#000000" points="921.39,-616.2019 790.7468,-616.2019 790.7468,-574.9981 921.39,-574.9981 921.39,-616.2019"/>
<text text-anchor="middle" x="856.0684" y="-599.8" font-family="Times,serif" font-size="14.00" fill="#000000">GO:0050896</text>
<text text-anchor="middle" x="856.0684" y="-583" font-family="Times,serif" font-size="14.00" fill="#000000">response to stimulus</text>
</g>
<!-- GO:0051606&#45;&gt;GO:0050896 -->
<g id="edge26" class="edge">
<title>GO:0051606&#45;&gt;GO:0050896</title>
<path fill="none" stroke="#000000" d="M804.7159,-522.1504C813.7734,-535.1054 825.5355,-551.9287 835.517,-566.2053"/>
<polygon fill="#000000" stroke="#000000" points="832.8633,-568.518 841.4618,-574.7081 838.6003,-564.507 832.8633,-568.518"/>
</g>
<!-- GO:0009605&#45;&gt;GO:0050896 -->
<g id="edge27" class="edge">
<title>GO:0009605&#45;&gt;GO:0050896</title>
<path fill="none" stroke="#000000" d="M705.2843,-529.3952C735.319,-542.5826 770.7652,-558.1459 799.7415,-570.8686"/>
<polygon fill="#000000" stroke="#000000" points="798.3436,-574.0773 808.907,-574.8929 801.1578,-567.6679 798.3436,-574.0773"/>
</g>
<!-- GO:0009628&#45;&gt;GO:0050896 -->
<g id="edge28" class="edge">
<title>GO:0009628&#45;&gt;GO:0050896</title>
<path fill="none" stroke="#000000" d="M910.5054,-530.5513C900.7161,-542.2488 889.4915,-555.6615 879.7876,-567.257"/>
<polygon fill="#000000" stroke="#000000" points="877.0826,-565.0358 873.3488,-574.951 882.4508,-569.5283 877.0826,-565.0358"/>
</g>
<!-- GO:0009314&#45;&gt;GO:0009628 -->
<g id="edge29" class="edge">
<title>GO:0009314&#45;&gt;GO:0009628</title>
<path fill="none" stroke="#000000" d="M935.8465,-427.7504C935.7405,-437.7492 935.6102,-450.0525 935.4867,-461.7106"/>
<polygon fill="#000000" stroke="#000000" points="931.987,-461.679 935.3807,-471.7155 938.9866,-461.7532 931.987,-461.679"/>
</g>
<!-- GO:0050896&#45;&gt;GO:0008150 -->
<g id="edge30" class="edge">
<title>GO:0050896&#45;&gt;GO:0008150</title>
<path fill="none" stroke="#000000" d="M806.2312,-616.28C798.2136,-619.3126 789.9575,-622.2639 782.0684,-624.8 730.6853,-641.318 671.48,-656.0455 626.56,-666.3629"/>
<polygon fill="#000000" stroke="#000000" points="625.5953,-662.9929 616.6227,-668.6269 627.1504,-669.818 625.5953,-662.9929"/>
</g>
<!-- GO:0006464 -->
<g id="node25" class="node">
<title>GO:0006464</title>
<polygon fill="#ffffff" stroke="#000000" points="1286.5902,-153.0014 1153.5466,-153.0014 1153.5466,-94.1986 1286.5902,-94.1986 1286.5902,-153.0014"/>
<text text-anchor="middle" x="1220.0684" y="-136.2" font-family="Times,serif" font-size="14.00" fill="#000000">GO:0006464</text>
<text text-anchor="middle" x="1220.0684" y="-119.4" font-family="Times,serif" font-size="14.00" fill="#000000">cellular protein</text>
<text text-anchor="middle" x="1220.0684" y="-102.6" font-family="Times,serif" font-size="14.00" fill="#000000">modification process</text>
</g>
<!-- GO:0044267 -->
<g id="node26" class="node">
<title>GO:0044267</title>
<polygon fill="#ffffff" stroke="#000000" points="1207.254,-247.4014 1090.8828,-247.4014 1090.8828,-188.5986 1207.254,-188.5986 1207.254,-247.4014"/>
<text text-anchor="middle" x="1149.0684" y="-230.6" font-family="Times,serif" font-size="14.00" fill="#000000">GO:0044267</text>
<text text-anchor="middle" x="1149.0684" y="-213.8" font-family="Times,serif" font-size="14.00" fill="#000000">cellular protein</text>
<text text-anchor="middle" x="1149.0684" y="-197" font-family="Times,serif" font-size="14.00" fill="#000000">metabolic process</text>
</g>
<!-- GO:0006464&#45;&gt;GO:0044267 -->
<g id="edge31" class="edge">
<title>GO:0006464&#45;&gt;GO:0044267</title>
<path fill="none" stroke="#000000" d="M1197.9927,-152.9513C1191.4478,-161.6534 1184.1888,-171.3047 1177.3097,-180.4509"/>
<polygon fill="#000000" stroke="#000000" points="1174.3441,-178.5712 1171.1304,-188.6669 1179.9384,-182.7788 1174.3441,-178.5712"/>
</g>
<!-- GO:0036211 -->
<g id="node27" class="node">
<title>GO:0036211</title>
<polygon fill="#ffffff" stroke="#000000" points="1356.2679,-247.4014 1225.8689,-247.4014 1225.8689,-188.5986 1356.2679,-188.5986 1356.2679,-247.4014"/>
<text text-anchor="middle" x="1291.0684" y="-230.6" font-family="Times,serif" font-size="14.00" fill="#000000">GO:0036211</text>
<text text-anchor="middle" x="1291.0684" y="-213.8" font-family="Times,serif" font-size="14.00" fill="#000000">protein modification</text>
<text text-anchor="middle" x="1291.0684" y="-197" font-family="Times,serif" font-size="14.00" fill="#000000">process</text>
</g>
<!-- GO:0006464&#45;&gt;GO:0036211 -->
<g id="edge32" class="edge">
<title>GO:0006464&#45;&gt;GO:0036211</title>
<path fill="none" stroke="#000000" d="M1242.1441,-152.9513C1248.689,-161.6534 1255.948,-171.3047 1262.8271,-180.4509"/>
<polygon fill="#000000" stroke="#000000" points="1260.1984,-182.7788 1269.0064,-188.6669 1265.7927,-178.5712 1260.1984,-182.7788"/>
</g>
<!-- GO:0019538 -->
<g id="node28" class="node">
<title>GO:0019538</title>
<polygon fill="#ffffff" stroke="#000000" points="1299.9101,-333.0019 1140.2267,-333.0019 1140.2267,-291.7981 1299.9101,-291.7981 1299.9101,-333.0019"/>
<text text-anchor="middle" x="1220.0684" y="-316.6" font-family="Times,serif" font-size="14.00" fill="#000000">GO:0019538</text>
<text text-anchor="middle" x="1220.0684" y="-299.8" font-family="Times,serif" font-size="14.00" fill="#000000">protein metabolic process</text>
</g>
<!-- GO:0044267&#45;&gt;GO:0019538 -->
<g id="edge33" class="edge">
<title>GO:0044267&#45;&gt;GO:0019538</title>
<path fill="none" stroke="#000000" d="M1171.1441,-247.3513C1179.8574,-258.9363 1189.836,-272.2037 1198.4992,-283.722"/>
<polygon fill="#000000" stroke="#000000" points="1195.7299,-285.8629 1204.5379,-291.751 1201.3242,-281.6553 1195.7299,-285.8629"/>
</g>
<!-- GO:0044260 -->
<g id="node29" class="node">
<title>GO:0044260</title>
<polygon fill="#ffffff" stroke="#000000" points="1121.8408,-341.8014 974.296,-341.8014 974.296,-282.9986 1121.8408,-282.9986 1121.8408,-341.8014"/>
<text text-anchor="middle" x="1048.0684" y="-325" font-family="Times,serif" font-size="14.00" fill="#000000">GO:0044260</text>
<text text-anchor="middle" x="1048.0684" y="-308.2" font-family="Times,serif" font-size="14.00" fill="#000000">cellular macromolecule</text>
<text text-anchor="middle" x="1048.0684" y="-291.4" font-family="Times,serif" font-size="14.00" fill="#000000">metabolic process</text>
</g>
<!-- GO:0044267&#45;&gt;GO:0044260 -->
<g id="edge34" class="edge">
<title>GO:0044267&#45;&gt;GO:0044260</title>
<path fill="none" stroke="#000000" d="M1117.665,-247.3513C1107.9745,-256.4086 1097.1838,-266.4941 1087.0473,-275.9683"/>
<polygon fill="#000000" stroke="#000000" points="1084.3682,-273.6815 1079.4524,-283.0669 1089.1481,-278.7955 1084.3682,-273.6815"/>
</g>
<!-- GO:0036211&#45;&gt;GO:0019538 -->
<g id="edge35" class="edge">
<title>GO:0036211&#45;&gt;GO:0019538</title>
<path fill="none" stroke="#000000" d="M1268.9927,-247.3513C1260.2794,-258.9363 1250.3008,-272.2037 1241.6376,-283.722"/>
<polygon fill="#000000" stroke="#000000" points="1238.8126,-281.6553 1235.5989,-291.751 1244.4069,-285.8629 1238.8126,-281.6553"/>
</g>
<!-- GO:0043412 -->
<g id="node30" class="node">
<title>GO:0043412</title>
<polygon fill="#ffffff" stroke="#000000" points="1420.3648,-341.8014 1317.772,-341.8014 1317.772,-282.9986 1420.3648,-282.9986 1420.3648,-341.8014"/>
<text text-anchor="middle" x="1369.0684" y="-325" font-family="Times,serif" font-size="14.00" fill="#000000">GO:0043412</text>
<text text-anchor="middle" x="1369.0684" y="-308.2" font-family="Times,serif" font-size="14.00" fill="#000000">macromolecule</text>
<text text-anchor="middle" x="1369.0684" y="-291.4" font-family="Times,serif" font-size="14.00" fill="#000000">modification</text>
</g>
<!-- GO:0036211&#45;&gt;GO:0043412 -->
<g id="edge36" class="edge">
<title>GO:0036211&#45;&gt;GO:0043412</title>
<path fill="none" stroke="#000000" d="M1315.3205,-247.3513C1322.5842,-256.1422 1330.6482,-265.9018 1338.2739,-275.1308"/>
<polygon fill="#000000" stroke="#000000" points="1335.7635,-277.5873 1344.8313,-283.0669 1341.1597,-273.1285 1335.7635,-277.5873"/>
</g>
<!-- GO:0044238 -->
<g id="node31" class="node">
<title>GO:0044238</title>
<polygon fill="#ffffff" stroke="#000000" points="1240.0714,-427.4019 1076.0654,-427.4019 1076.0654,-386.1981 1240.0714,-386.1981 1240.0714,-427.4019"/>
<text text-anchor="middle" x="1158.0684" y="-411" font-family="Times,serif" font-size="14.00" fill="#000000">GO:0044238</text>
<text text-anchor="middle" x="1158.0684" y="-394.2" font-family="Times,serif" font-size="14.00" fill="#000000">primary metabolic process</text>
</g>
<!-- GO:0019538&#45;&gt;GO:0044238 -->
<g id="edge37" class="edge">
<title>GO:0019538&#45;&gt;GO:0044238</title>
<path fill="none" stroke="#000000" d="M1206.3086,-333.3504C1197.8001,-346.3054 1186.7508,-363.1287 1177.3742,-377.4053"/>
<polygon fill="#000000" stroke="#000000" points="1174.354,-375.6283 1171.7897,-385.9081 1180.2049,-379.4711 1174.354,-375.6283"/>
</g>
<!-- GO:0043170 -->
<g id="node32" class="node">
<title>GO:0043170</title>
<polygon fill="#ffffff" stroke="#000000" points="1419.5706,-436.2014 1258.5662,-436.2014 1258.5662,-377.3986 1419.5706,-377.3986 1419.5706,-436.2014"/>
<text text-anchor="middle" x="1339.0684" y="-419.4" font-family="Times,serif" font-size="14.00" fill="#000000">GO:0043170</text>
<text text-anchor="middle" x="1339.0684" y="-402.6" font-family="Times,serif" font-size="14.00" fill="#000000">macromolecule metabolic</text>
<text text-anchor="middle" x="1339.0684" y="-385.8" font-family="Times,serif" font-size="14.00" fill="#000000">process</text>
</g>
<!-- GO:0019538&#45;&gt;GO:0043170 -->
<g id="edge38" class="edge">
<title>GO:0019538&#45;&gt;GO:0043170</title>
<path fill="none" stroke="#000000" d="M1246.1835,-333.1165C1260.1662,-344.2087 1277.786,-358.186 1293.9112,-370.9778"/>
<polygon fill="#000000" stroke="#000000" points="1292.1707,-374.0646 1302.1802,-377.5374 1296.5211,-368.5806 1292.1707,-374.0646"/>
</g>
<!-- GO:0044260&#45;&gt;GO:0043170 -->
<g id="edge40" class="edge">
<title>GO:0044260&#45;&gt;GO:0043170</title>
<path fill="none" stroke="#000000" d="M1122.2272,-338.6637C1125.21,-339.6649 1128.1657,-340.6471 1131.0684,-341.6 1180.3149,-357.7668 1195.1639,-360.8284 1248.4828,-377.4431"/>
<polygon fill="#000000" stroke="#000000" points="1247.5478,-380.8179 1258.1369,-380.4679 1249.6408,-374.1381 1247.5478,-380.8179"/>
</g>
<!-- GO:0044237 -->
<g id="node33" class="node">
<title>GO:0044237</title>
<polygon fill="#ffffff" stroke="#000000" points="1130.2512,-530.6014 1013.8856,-530.6014 1013.8856,-471.7986 1130.2512,-471.7986 1130.2512,-530.6014"/>
<text text-anchor="middle" x="1072.0684" y="-513.8" font-family="Times,serif" font-size="14.00" fill="#000000">GO:0044237</text>
<text text-anchor="middle" x="1072.0684" y="-497" font-family="Times,serif" font-size="14.00" fill="#000000">cellular metabolic</text>
<text text-anchor="middle" x="1072.0684" y="-480.2" font-family="Times,serif" font-size="14.00" fill="#000000">process</text>
</g>
<!-- GO:0044260&#45;&gt;GO:0044237 -->
<g id="edge39" class="edge">
<title>GO:0044260&#45;&gt;GO:0044237</title>
<path fill="none" stroke="#000000" d="M1051.8184,-341.9C1055.9221,-374.1825 1062.5207,-426.0912 1067.0638,-461.8305"/>
<polygon fill="#000000" stroke="#000000" points="1063.6115,-462.4284 1068.3447,-471.9072 1070.5557,-461.5456 1063.6115,-462.4284"/>
</g>
<!-- GO:0043412&#45;&gt;GO:0043170 -->
<g id="edge41" class="edge">
<title>GO:0043412&#45;&gt;GO:0043170</title>
<path fill="none" stroke="#000000" d="M1359.7407,-341.7513C1357.1163,-350.0094 1354.2202,-359.1223 1351.4474,-367.8473"/>
<polygon fill="#000000" stroke="#000000" points="1348.0835,-366.8765 1348.3904,-377.4669 1354.7548,-368.9966 1348.0835,-366.8765"/>
</g>
<!-- GO:0008152 -->
<g id="node34" class="node">
<title>GO:0008152</title>
<polygon fill="#ffffff" stroke="#000000" points="1173.254,-616.2019 1056.8828,-616.2019 1056.8828,-574.9981 1173.254,-574.9981 1173.254,-616.2019"/>
<text text-anchor="middle" x="1115.0684" y="-599.8" font-family="Times,serif" font-size="14.00" fill="#000000">GO:0008152</text>
<text text-anchor="middle" x="1115.0684" y="-583" font-family="Times,serif" font-size="14.00" fill="#000000">metabolic process</text>
</g>
<!-- GO:0044238&#45;&gt;GO:0008152 -->
<g id="edge42" class="edge">
<title>GO:0044238&#45;&gt;GO:0008152</title>
<path fill="none" stroke="#000000" d="M1156.1541,-427.6134C1153.5817,-452.3877 1148.2388,-494.8739 1139.0684,-530.4 1136.0678,-542.0244 1131.7725,-554.4655 1127.643,-565.3311"/>
<polygon fill="#000000" stroke="#000000" points="1124.3232,-564.2102 1123.9389,-574.7981 1130.842,-566.7608 1124.3232,-564.2102"/>
</g>
<!-- GO:0071704 -->
<g id="node35" class="node">
<title>GO:0071704</title>
<polygon fill="#ffffff" stroke="#000000" points="1350.254,-530.6014 1233.8828,-530.6014 1233.8828,-471.7986 1350.254,-471.7986 1350.254,-530.6014"/>
<text text-anchor="middle" x="1292.0684" y="-513.8" font-family="Times,serif" font-size="14.00" fill="#000000">GO:0071704</text>
<text text-anchor="middle" x="1292.0684" y="-497" font-family="Times,serif" font-size="14.00" fill="#000000">organic substance</text>
<text text-anchor="middle" x="1292.0684" y="-480.2" font-family="Times,serif" font-size="14.00" fill="#000000">metabolic process</text>
</g>
<!-- GO:0043170&#45;&gt;GO:0071704 -->
<g id="edge43" class="edge">
<title>GO:0043170&#45;&gt;GO:0071704</title>
<path fill="none" stroke="#000000" d="M1324.4549,-436.1513C1320.255,-444.587 1315.6109,-453.9147 1311.1823,-462.8096"/>
<polygon fill="#000000" stroke="#000000" points="1307.9967,-461.3551 1306.6728,-471.8669 1314.263,-464.475 1307.9967,-461.3551"/>
</g>
<!-- GO:0044237&#45;&gt;GO:0008152 -->
<g id="edge45" class="edge">
<title>GO:0044237&#45;&gt;GO:0008152</title>
<path fill="none" stroke="#000000" d="M1085.4382,-530.5513C1090.5103,-541.6864 1096.2904,-554.3758 1101.3906,-565.5724"/>
<polygon fill="#000000" stroke="#000000" points="1098.3321,-567.3015 1105.6626,-574.951 1104.7024,-564.3997 1098.3321,-567.3015"/>
</g>
<!-- GO:0009987 -->
<g id="node36" class="node">
<title>GO:0009987</title>
<polygon fill="#ffffff" stroke="#000000" points="608.0246,-616.2019 504.1122,-616.2019 504.1122,-574.9981 608.0246,-574.9981 608.0246,-616.2019"/>
<text text-anchor="middle" x="556.0684" y="-599.8" font-family="Times,serif" font-size="14.00" fill="#000000">GO:0009987</text>
<text text-anchor="middle" x="556.0684" y="-583" font-family="Times,serif" font-size="14.00" fill="#000000">cellular process</text>
</g>
<!-- GO:0044237&#45;&gt;GO:0009987 -->
<g id="edge44" class="edge">
<title>GO:0044237&#45;&gt;GO:0009987</title>
<path fill="none" stroke="#000000" d="M1013.8698,-527.5637C1010.587,-528.6193 1007.3058,-529.5766 1004.0684,-530.4 836.227,-573.0889 782.8529,-519.752 616.0684,-566.4 611.6825,-567.6267 607.2287,-569.1652 602.8313,-570.8909"/>
<polygon fill="#000000" stroke="#000000" points="601.1799,-567.7896 593.3429,-574.9193 603.9155,-574.2329 601.1799,-567.7896"/>
</g>
<!-- GO:0008152&#45;&gt;GO:0008150 -->
<g id="edge46" class="edge">
<title>GO:0008152&#45;&gt;GO:0008150</title>
<path fill="none" stroke="#000000" d="M1056.7571,-604.8928C1020.3439,-610.6737 972.4835,-618.2319 930.0684,-624.8 824.5371,-641.1419 702.1811,-659.6392 626.9481,-670.961"/>
<polygon fill="#000000" stroke="#000000" points="626.0198,-667.5612 616.6518,-672.51 627.0612,-674.4833 626.0198,-667.5612"/>
</g>
<!-- GO:0071704&#45;&gt;GO:0008152 -->
<g id="edge47" class="edge">
<title>GO:0071704&#45;&gt;GO:0008152</title>
<path fill="none" stroke="#000000" d="M1237.0347,-530.5513C1213.2039,-543.2611 1185.5764,-557.9957 1162.6479,-570.2243"/>
<polygon fill="#000000" stroke="#000000" points="1160.9618,-567.1568 1153.7853,-574.951 1164.2559,-573.3333 1160.9618,-567.1568"/>
</g>
<!-- GO:0009987&#45;&gt;GO:0008150 -->
<g id="edge48" class="edge">
<title>GO:0009987&#45;&gt;GO:0008150</title>
<path fill="none" stroke="#000000" d="M556.0684,-616.4182C556.0684,-626.7705 556.0684,-639.4848 556.0684,-650.9271"/>
<polygon fill="#000000" stroke="#000000" points="552.5685,-650.9735 556.0684,-660.9735 559.5685,-650.9735 552.5685,-650.9735"/>
</g>
<!-- GO:0055085 -->
<g id="node37" class="node">
<title>GO:0055085</title>
<polygon fill="#ffffff" stroke="#000000" points="405.6266,-238.6019 250.5102,-238.6019 250.5102,-197.3981 405.6266,-197.3981 405.6266,-238.6019"/>
<text text-anchor="middle" x="328.0684" y="-222.2" font-family="Times,serif" font-size="14.00" fill="#000000">GO:0055085</text>
<text text-anchor="middle" x="328.0684" y="-205.4" font-family="Times,serif" font-size="14.00" fill="#000000">transmembrane transport</text>
</g>
<!-- GO:0055085&#45;&gt;GO:0044765 -->
<g id="edge49" class="edge">
<title>GO:0055085&#45;&gt;GO:0044765</title>
<path fill="none" stroke="#000000" d="M296.467,-238.7165C275.1775,-252.6729 246.9207,-271.1968 224.0654,-286.1798"/>
<polygon fill="#000000" stroke="#000000" points="222.0404,-283.3222 215.5961,-291.7318 225.8781,-289.1764 222.0404,-283.3222"/>
</g>
<!-- GO:0044763 -->
<g id="node38" class="node">
<title>GO:0044763</title>
<polygon fill="#ffffff" stroke="#000000" points="406.7469,-530.6014 255.3899,-530.6014 255.3899,-471.7986 406.7469,-471.7986 406.7469,-530.6014"/>
<text text-anchor="middle" x="331.0684" y="-513.8" font-family="Times,serif" font-size="14.00" fill="#000000">GO:0044763</text>
<text text-anchor="middle" x="331.0684" y="-497" font-family="Times,serif" font-size="14.00" fill="#000000">single&#45;organism cellular</text>
<text text-anchor="middle" x="331.0684" y="-480.2" font-family="Times,serif" font-size="14.00" fill="#000000">process</text>
</g>
<!-- GO:0055085&#45;&gt;GO:0044763 -->
<g id="edge50" class="edge">
<title>GO:0055085&#45;&gt;GO:0044763</title>
<path fill="none" stroke="#000000" d="M328.289,-238.8244C328.7866,-285.7968 330.0031,-400.6388 330.6492,-461.6304"/>
<polygon fill="#000000" stroke="#000000" points="327.1496,-461.6892 330.7554,-471.6515 334.1492,-461.615 327.1496,-461.6892"/>
</g>
<!-- GO:0044763&#45;&gt;GO:0044699 -->
<g id="edge52" class="edge">
<title>GO:0044763&#45;&gt;GO:0044699</title>
<path fill="none" stroke="#000000" d="M308.9927,-530.5513C300.2794,-542.1363 290.3008,-555.4037 281.6376,-566.922"/>
<polygon fill="#000000" stroke="#000000" points="278.8126,-564.8553 275.5989,-574.951 284.4069,-569.0629 278.8126,-564.8553"/>
</g>
<!-- GO:0044763&#45;&gt;GO:0009987 -->
<g id="edge51" class="edge">
<title>GO:0044763&#45;&gt;GO:0009987</title>
<path fill="none" stroke="#000000" d="M407.0367,-530.158C434.8972,-541.1041 466.5767,-553.9343 495.0684,-566.4 498.2298,-567.7832 501.4694,-569.2337 504.7274,-570.7177"/>
<polygon fill="#000000" stroke="#000000" points="503.363,-573.9428 513.9088,-574.9611 506.2998,-567.5886 503.363,-573.9428"/>
</g>
</g>
</svg>
