<?xml version="1.0" encoding="UTF-8" standalone="no"?>
<!DOCTYPE svg PUBLIC "-//W3C//DTD SVG 1.1//EN"
 "http://www.w3.org/Graphics/SVG/1.1/DTD/svg11.dtd">
<!-- Generated by graphviz version 2.40.1 (20161225.0304)
 -->
<!-- Title: G Pages: 1 -->
<svg width="909pt" height="738pt"
 viewBox="0.00 0.00 909.36 737.60" xmlns="http://www.w3.org/2000/svg" xmlns:xlink="http://www.w3.org/1999/xlink">
<g id="graph0" class="graph" transform="scale(1 1) rotate(0) translate(4 733.6)">
<title>G</title>
<polygon fill="#ffffff" stroke="transparent" points="-4,4 -4,-733.6 905.3626,-733.6 905.3626,4 -4,4"/>
<!-- GO:0005856 -->
<g id="node1" class="node">
<title>GO:0005856</title>
<polygon fill="#ffffff" stroke="#000000" points="131.4146,-282.6019 42.2068,-282.6019 42.2068,-241.3981 131.4146,-241.3981 131.4146,-282.6019"/>
<text text-anchor="middle" x="86.8107" y="-266.2" font-family="Times,serif" font-size="14.00" fill="#000000">GO:0005856</text>
<text text-anchor="middle" x="86.8107" y="-249.4" font-family="Times,serif" font-size="14.00" fill="#000000">cytoskeleton</text>
</g>
<!-- GO:0043232 -->
<g id="node2" class="node">
<title>GO:0043232</title>
<polygon fill="#ffffff" stroke="#000000" points="150.7715,-402.5003 22.8499,-402.5003 22.8499,-327.0997 150.7715,-327.0997 150.7715,-402.5003"/>
<text text-anchor="middle" x="86.8107" y="-385.8" font-family="Times,serif" font-size="14.00" fill="#000000">GO:0043232</text>
<text text-anchor="middle" x="86.8107" y="-369" font-family="Times,serif" font-size="14.00" fill="#000000">intracellular non&#45;</text>
<text text-anchor="middle" x="86.8107" y="-352.2" font-family="Times,serif" font-size="14.00" fill="#000000">membrane&#45;bounded</text>
<text text-anchor="middle" x="86.8107" y="-335.4" font-family="Times,serif" font-size="14.00" fill="#000000">organelle</text>
</g>
<!-- GO:0005856&#45;&gt;GO:0043232 -->
<g id="edge1" class="edge">
<title>GO:0005856&#45;&gt;GO:0043232</title>
<path fill="none" stroke="#000000" d="M86.8107,-282.8031C86.8107,-292.6045 86.8107,-304.7396 86.8107,-316.642"/>
<polygon fill="#000000" stroke="#000000" points="83.3108,-316.9772 86.8107,-326.9773 90.3108,-316.9773 83.3108,-316.9772"/>
</g>
<!-- GO:0043229 -->
<g id="node3" class="node">
<title>GO:0043229</title>
<polygon fill="#ffffff" stroke="#000000" points="310.5291,-488.2019 171.0923,-488.2019 171.0923,-446.9981 310.5291,-446.9981 310.5291,-488.2019"/>
<text text-anchor="middle" x="240.8107" y="-471.8" font-family="Times,serif" font-size="14.00" fill="#000000">GO:0043229</text>
<text text-anchor="middle" x="240.8107" y="-455" font-family="Times,serif" font-size="14.00" fill="#000000">intracellular organelle</text>
</g>
<!-- GO:0043232&#45;&gt;GO:0043229 -->
<g id="edge2" class="edge">
<title>GO:0043232&#45;&gt;GO:0043229</title>
<path fill="none" stroke="#000000" d="M143.2802,-402.4952C162.6082,-415.3973 183.7981,-429.5422 201.4745,-441.3418"/>
<polygon fill="#000000" stroke="#000000" points="199.5858,-444.2892 209.8462,-446.9302 203.4722,-438.4671 199.5858,-444.2892"/>
</g>
<!-- GO:0043228 -->
<g id="node4" class="node">
<title>GO:0043228</title>
<polygon fill="#ffffff" stroke="#000000" points="153.4326,-497.0014 .1888,-497.0014 .1888,-438.1986 153.4326,-438.1986 153.4326,-497.0014"/>
<text text-anchor="middle" x="76.8107" y="-480.2" font-family="Times,serif" font-size="14.00" fill="#000000">GO:0043228</text>
<text text-anchor="middle" x="76.8107" y="-463.4" font-family="Times,serif" font-size="14.00" fill="#000000">non&#45;membrane&#45;bounded</text>
<text text-anchor="middle" x="76.8107" y="-446.6" font-family="Times,serif" font-size="14.00" fill="#000000">organelle</text>
</g>
<!-- GO:0043232&#45;&gt;GO:0043228 -->
<g id="edge3" class="edge">
<title>GO:0043232&#45;&gt;GO:0043228</title>
<path fill="none" stroke="#000000" d="M83.1439,-402.4952C82.3275,-410.8874 81.46,-419.8054 80.6374,-428.2618"/>
<polygon fill="#000000" stroke="#000000" points="77.1474,-427.9894 79.6627,-438.2814 84.1145,-428.6672 77.1474,-427.9894"/>
</g>
<!-- GO:0044424 -->
<g id="node5" class="node">
<title>GO:0044424</title>
<polygon fill="#ffffff" stroke="#000000" points="532.2091,-574.2019 423.4123,-574.2019 423.4123,-532.9981 532.2091,-532.9981 532.2091,-574.2019"/>
<text text-anchor="middle" x="477.8107" y="-557.8" font-family="Times,serif" font-size="14.00" fill="#000000">GO:0044424</text>
<text text-anchor="middle" x="477.8107" y="-541" font-family="Times,serif" font-size="14.00" fill="#000000">intracellular part</text>
</g>
<!-- GO:0043229&#45;&gt;GO:0044424 -->
<g id="edge4" class="edge">
<title>GO:0043229&#45;&gt;GO:0044424</title>
<path fill="none" stroke="#000000" d="M297.8797,-488.3086C332.8335,-500.9922 377.6438,-517.2525 413.8014,-530.373"/>
<polygon fill="#000000" stroke="#000000" points="412.6801,-533.6894 423.2743,-533.8104 415.0679,-527.1092 412.6801,-533.6894"/>
</g>
<!-- GO:0043226 -->
<g id="node6" class="node">
<title>GO:0043226</title>
<polygon fill="#ffffff" stroke="#000000" points="254.4146,-574.2019 165.2068,-574.2019 165.2068,-532.9981 254.4146,-532.9981 254.4146,-574.2019"/>
<text text-anchor="middle" x="209.8107" y="-557.8" font-family="Times,serif" font-size="14.00" fill="#000000">GO:0043226</text>
<text text-anchor="middle" x="209.8107" y="-541" font-family="Times,serif" font-size="14.00" fill="#000000">organelle</text>
</g>
<!-- GO:0043229&#45;&gt;GO:0043226 -->
<g id="edge5" class="edge">
<title>GO:0043229&#45;&gt;GO:0043226</title>
<path fill="none" stroke="#000000" d="M233.3065,-488.4182C229.5368,-498.8761 224.8981,-511.7446 220.7411,-523.277"/>
<polygon fill="#000000" stroke="#000000" points="217.3443,-522.3791 217.2458,-532.9735 223.9296,-524.7529 217.3443,-522.3791"/>
</g>
<!-- GO:0043228&#45;&gt;GO:0043226 -->
<g id="edge6" class="edge">
<title>GO:0043228&#45;&gt;GO:0043226</title>
<path fill="none" stroke="#000000" d="M122.2098,-496.9558C137.433,-506.7994 154.3022,-517.7073 169.14,-527.3017"/>
<polygon fill="#000000" stroke="#000000" points="167.3159,-530.2901 177.6138,-532.7809 171.1169,-524.4119 167.3159,-530.2901"/>
</g>
<!-- GO:0044464 -->
<g id="node7" class="node">
<title>GO:0044464</title>
<polygon fill="#ffffff" stroke="#000000" points="505.4146,-651.8019 416.2068,-651.8019 416.2068,-610.5981 505.4146,-610.5981 505.4146,-651.8019"/>
<text text-anchor="middle" x="460.8107" y="-635.4" font-family="Times,serif" font-size="14.00" fill="#000000">GO:0044464</text>
<text text-anchor="middle" x="460.8107" y="-618.6" font-family="Times,serif" font-size="14.00" fill="#000000">cell part</text>
</g>
<!-- GO:0044424&#45;&gt;GO:0044464 -->
<g id="edge7" class="edge">
<title>GO:0044424&#45;&gt;GO:0044464</title>
<path fill="none" stroke="#000000" d="M473.255,-574.3954C471.5019,-582.3978 469.4611,-591.7133 467.5455,-600.4575"/>
<polygon fill="#000000" stroke="#000000" points="464.1001,-599.8299 465.379,-610.3472 470.9379,-601.3279 464.1001,-599.8299"/>
</g>
<!-- GO:0005575 -->
<g id="node8" class="node">
<title>GO:0005575</title>
<polygon fill="#ffffff" stroke="#000000" points="524.4974,-729.4019 397.124,-729.4019 397.124,-688.1981 524.4974,-688.1981 524.4974,-729.4019"/>
<text text-anchor="middle" x="460.8107" y="-713" font-family="Times,serif" font-size="14.00" fill="#000000">GO:0005575</text>
<text text-anchor="middle" x="460.8107" y="-696.2" font-family="Times,serif" font-size="14.00" fill="#000000">cellular_component</text>
</g>
<!-- GO:0043226&#45;&gt;GO:0005575 -->
<g id="edge8" class="edge">
<title>GO:0043226&#45;&gt;GO:0005575</title>
<path fill="none" stroke="#000000" d="M243.1416,-574.2094C288.4296,-602.2122 369.4057,-652.2818 418.8008,-682.8242"/>
<polygon fill="#000000" stroke="#000000" points="416.9959,-685.8231 427.342,-688.1054 420.6773,-679.8693 416.9959,-685.8231"/>
</g>
<!-- GO:0044464&#45;&gt;GO:0005575 -->
<g id="edge32" class="edge">
<title>GO:0044464&#45;&gt;GO:0005575</title>
<path fill="none" stroke="#000000" d="M460.8107,-651.9954C460.8107,-659.9109 460.8107,-669.1109 460.8107,-677.7722"/>
<polygon fill="#000000" stroke="#000000" points="457.3108,-677.9472 460.8107,-687.9472 464.3108,-677.9473 457.3108,-677.9472"/>
</g>
<!-- GO:0045298 -->
<g id="node9" class="node">
<title>GO:0045298</title>
<polygon fill="#ffffff" stroke="#000000" points="790.6936,-282.6019 682.9278,-282.6019 682.9278,-241.3981 790.6936,-241.3981 790.6936,-282.6019"/>
<text text-anchor="middle" x="736.8107" y="-266.2" font-family="Times,serif" font-size="14.00" fill="#000000">GO:0045298</text>
<text text-anchor="middle" x="736.8107" y="-249.4" font-family="Times,serif" font-size="14.00" fill="#000000">tubulin complex</text>
</g>
<!-- GO:0043234 -->
<g id="node10" class="node">
<title>GO:0043234</title>
<polygon fill="#ffffff" stroke="#000000" points="790.6781,-385.4019 682.9433,-385.4019 682.9433,-344.1981 790.6781,-344.1981 790.6781,-385.4019"/>
<text text-anchor="middle" x="736.8107" y="-369" font-family="Times,serif" font-size="14.00" fill="#000000">GO:0043234</text>
<text text-anchor="middle" x="736.8107" y="-352.2" font-family="Times,serif" font-size="14.00" fill="#000000">protein complex</text>
</g>
<!-- GO:0045298&#45;&gt;GO:0043234 -->
<g id="edge9" class="edge">
<title>GO:0045298&#45;&gt;GO:0043234</title>
<path fill="none" stroke="#000000" d="M736.8107,-282.8031C736.8107,-297.4337 736.8107,-317.2642 736.8107,-333.7586"/>
<polygon fill="#000000" stroke="#000000" points="733.3108,-334.0278 736.8107,-344.0278 740.3108,-334.0279 733.3108,-334.0278"/>
</g>
<!-- GO:0044430 -->
<g id="node11" class="node">
<title>GO:0044430</title>
<polygon fill="#ffffff" stroke="#000000" points="623.942,-385.4019 515.6794,-385.4019 515.6794,-344.1981 623.942,-344.1981 623.942,-385.4019"/>
<text text-anchor="middle" x="569.8107" y="-369" font-family="Times,serif" font-size="14.00" fill="#000000">GO:0044430</text>
<text text-anchor="middle" x="569.8107" y="-352.2" font-family="Times,serif" font-size="14.00" fill="#000000">cytoskeletal part</text>
</g>
<!-- GO:0045298&#45;&gt;GO:0044430 -->
<g id="edge10" class="edge">
<title>GO:0045298&#45;&gt;GO:0044430</title>
<path fill="none" stroke="#000000" d="M703.0158,-282.8031C676.8715,-298.8967 640.5057,-321.2824 612.3757,-338.5983"/>
<polygon fill="#000000" stroke="#000000" points="610.2365,-335.8051 603.5554,-344.0278 613.906,-341.7662 610.2365,-335.8051"/>
</g>
<!-- GO:0032991 -->
<g id="node12" class="node">
<title>GO:0032991</title>
<polygon fill="#ffffff" stroke="#000000" points="797.978,-651.8019 639.6434,-651.8019 639.6434,-610.5981 797.978,-610.5981 797.978,-651.8019"/>
<text text-anchor="middle" x="718.8107" y="-635.4" font-family="Times,serif" font-size="14.00" fill="#000000">GO:0032991</text>
<text text-anchor="middle" x="718.8107" y="-618.6" font-family="Times,serif" font-size="14.00" fill="#000000">macromolecular complex</text>
</g>
<!-- GO:0043234&#45;&gt;GO:0032991 -->
<g id="edge11" class="edge">
<title>GO:0043234&#45;&gt;GO:0032991</title>
<path fill="none" stroke="#000000" d="M735.3983,-385.704C732.2437,-432.391 724.6122,-545.3378 720.9035,-600.2264"/>
<polygon fill="#000000" stroke="#000000" points="717.3988,-600.1799 720.2166,-610.3931 724.3828,-600.6519 717.3988,-600.1799"/>
</g>
<!-- GO:0044446 -->
<g id="node13" class="node">
<title>GO:0044446</title>
<polygon fill="#ffffff" stroke="#000000" points="639.5291,-497.0014 500.0923,-497.0014 500.0923,-438.1986 639.5291,-438.1986 639.5291,-497.0014"/>
<text text-anchor="middle" x="569.8107" y="-480.2" font-family="Times,serif" font-size="14.00" fill="#000000">GO:0044446</text>
<text text-anchor="middle" x="569.8107" y="-463.4" font-family="Times,serif" font-size="14.00" fill="#000000">intracellular organelle</text>
<text text-anchor="middle" x="569.8107" y="-446.6" font-family="Times,serif" font-size="14.00" fill="#000000">part</text>
</g>
<!-- GO:0044430&#45;&gt;GO:0044446 -->
<g id="edge12" class="edge">
<title>GO:0044430&#45;&gt;GO:0044446</title>
<path fill="none" stroke="#000000" d="M569.8107,-385.6031C569.8107,-397.7833 569.8107,-413.5676 569.8107,-428.0305"/>
<polygon fill="#000000" stroke="#000000" points="566.3108,-428.2577 569.8107,-438.2577 573.3108,-428.2578 566.3108,-428.2577"/>
</g>
<!-- GO:0032991&#45;&gt;GO:0005575 -->
<g id="edge13" class="edge">
<title>GO:0032991&#45;&gt;GO:0005575</title>
<path fill="none" stroke="#000000" d="M650.0104,-651.8934C614.3978,-662.6048 570.8948,-675.6894 534.5866,-686.61"/>
<polygon fill="#000000" stroke="#000000" points="533.1172,-683.397 524.5491,-689.6291 535.1335,-690.1004 533.1172,-683.397"/>
</g>
<!-- GO:0044446&#45;&gt;GO:0044424 -->
<g id="edge14" class="edge">
<title>GO:0044446&#45;&gt;GO:0044424</title>
<path fill="none" stroke="#000000" d="M538.4068,-496.9558C528.3685,-506.3394 517.2956,-516.6902 507.3916,-525.9483"/>
<polygon fill="#000000" stroke="#000000" points="504.9974,-523.3952 500.0823,-532.7809 509.7777,-528.5089 504.9974,-523.3952"/>
</g>
<!-- GO:0044422 -->
<g id="node14" class="node">
<title>GO:0044422</title>
<polygon fill="#ffffff" stroke="#000000" points="616.6628,-651.8019 522.9586,-651.8019 522.9586,-610.5981 616.6628,-610.5981 616.6628,-651.8019"/>
<text text-anchor="middle" x="569.8107" y="-635.4" font-family="Times,serif" font-size="14.00" fill="#000000">GO:0044422</text>
<text text-anchor="middle" x="569.8107" y="-618.6" font-family="Times,serif" font-size="14.00" fill="#000000">organelle part</text>
</g>
<!-- GO:0044446&#45;&gt;GO:0044422 -->
<g id="edge15" class="edge">
<title>GO:0044446&#45;&gt;GO:0044422</title>
<path fill="none" stroke="#000000" d="M569.8107,-496.8484C569.8107,-525.9891 569.8107,-570.5603 569.8107,-600.2759"/>
<polygon fill="#000000" stroke="#000000" points="566.3108,-600.4955 569.8107,-610.4955 573.3108,-600.4955 566.3108,-600.4955"/>
</g>
<!-- GO:0044422&#45;&gt;GO:0005575 -->
<g id="edge16" class="edge">
<title>GO:0044422&#45;&gt;GO:0005575</title>
<path fill="none" stroke="#000000" d="M540.6007,-651.9954C527.6496,-661.2156 512.2503,-672.1788 498.4506,-682.0031"/>
<polygon fill="#000000" stroke="#000000" points="496.2179,-679.2963 490.1013,-687.9472 500.2777,-684.9988 496.2179,-679.2963"/>
</g>
<!-- GO:0005828 -->
<g id="node15" class="node">
<title>GO:0005828</title>
<polygon fill="#ffffff" stroke="#000000" points="322.5487,-41.4019 169.0727,-41.4019 169.0727,-.1981 322.5487,-.1981 322.5487,-41.4019"/>
<text text-anchor="middle" x="245.8107" y="-25" font-family="Times,serif" font-size="14.00" fill="#000000">GO:0005828</text>
<text text-anchor="middle" x="245.8107" y="-8.2" font-family="Times,serif" font-size="14.00" fill="#000000">kinetochore microtubule</text>
</g>
<!-- GO:0005876 -->
<g id="node16" class="node">
<title>GO:0005876</title>
<polygon fill="#ffffff" stroke="#000000" points="386.4039,-119.0019 259.2175,-119.0019 259.2175,-77.7981 386.4039,-77.7981 386.4039,-119.0019"/>
<text text-anchor="middle" x="322.8107" y="-102.6" font-family="Times,serif" font-size="14.00" fill="#000000">GO:0005876</text>
<text text-anchor="middle" x="322.8107" y="-85.8" font-family="Times,serif" font-size="14.00" fill="#000000">spindle microtubule</text>
</g>
<!-- GO:0005828&#45;&gt;GO:0005876 -->
<g id="edge17" class="edge">
<title>GO:0005828&#45;&gt;GO:0005876</title>
<path fill="none" stroke="#000000" d="M266.4453,-41.5954C275.1627,-50.3807 285.4502,-60.7484 294.8343,-70.2056"/>
<polygon fill="#000000" stroke="#000000" points="292.5911,-72.914 302.1192,-77.5472 297.56,-67.9835 292.5911,-72.914"/>
</g>
<!-- GO:0005874 -->
<g id="node17" class="node">
<title>GO:0005874</title>
<polygon fill="#ffffff" stroke="#000000" points="337.4146,-196.6019 248.2068,-196.6019 248.2068,-155.3981 337.4146,-155.3981 337.4146,-196.6019"/>
<text text-anchor="middle" x="292.8107" y="-180.2" font-family="Times,serif" font-size="14.00" fill="#000000">GO:0005874</text>
<text text-anchor="middle" x="292.8107" y="-163.4" font-family="Times,serif" font-size="14.00" fill="#000000">microtubule</text>
</g>
<!-- GO:0005876&#45;&gt;GO:0005874 -->
<g id="edge18" class="edge">
<title>GO:0005876&#45;&gt;GO:0005874</title>
<path fill="none" stroke="#000000" d="M314.7713,-119.1954C311.6439,-127.2848 307.9978,-136.7159 304.5855,-145.5424"/>
<polygon fill="#000000" stroke="#000000" points="301.2138,-144.5579 300.8723,-155.1472 307.7428,-147.0821 301.2138,-144.5579"/>
</g>
<!-- GO:0099513 -->
<g id="node18" class="node">
<title>GO:0099513</title>
<polygon fill="#ffffff" stroke="#000000" points="335.4378,-291.4014 192.1836,-291.4014 192.1836,-232.5986 335.4378,-232.5986 335.4378,-291.4014"/>
<text text-anchor="middle" x="263.8107" y="-274.6" font-family="Times,serif" font-size="14.00" fill="#000000">GO:0099513</text>
<text text-anchor="middle" x="263.8107" y="-257.8" font-family="Times,serif" font-size="14.00" fill="#000000">polymeric cytoskeletal</text>
<text text-anchor="middle" x="263.8107" y="-241" font-family="Times,serif" font-size="14.00" fill="#000000">fiber</text>
</g>
<!-- GO:0005874&#45;&gt;GO:0099513 -->
<g id="edge19" class="edge">
<title>GO:0005874&#45;&gt;GO:0099513</title>
<path fill="none" stroke="#000000" d="M285.7906,-196.8182C283.1316,-204.7036 280.0104,-213.9594 276.9687,-222.9797"/>
<polygon fill="#000000" stroke="#000000" points="273.6038,-222.005 273.7249,-232.5991 280.2368,-224.2418 273.6038,-222.005"/>
</g>
<!-- GO:0099513&#45;&gt;GO:0044430 -->
<g id="edge20" class="edge">
<title>GO:0099513&#45;&gt;GO:0044430</title>
<path fill="none" stroke="#000000" d="M335.6449,-288.6354C338.3947,-289.5226 341.1236,-290.3809 343.8107,-291.2 407.7393,-310.6861 426.8166,-304.8772 489.8107,-327.2 499.8956,-330.7737 510.4209,-335.1896 520.3988,-339.724"/>
<polygon fill="#000000" stroke="#000000" points="519.2223,-343.0369 529.7653,-344.084 522.1764,-336.6908 519.2223,-343.0369"/>
</g>
<!-- GO:0099512 -->
<g id="node19" class="node">
<title>GO:0099512</title>
<polygon fill="#ffffff" stroke="#000000" points="405.0333,-574.2019 272.5881,-574.2019 272.5881,-532.9981 405.0333,-532.9981 405.0333,-574.2019"/>
<text text-anchor="middle" x="338.8107" y="-557.8" font-family="Times,serif" font-size="14.00" fill="#000000">GO:0099512</text>
<text text-anchor="middle" x="338.8107" y="-541" font-family="Times,serif" font-size="14.00" fill="#000000">supramolecular fiber</text>
</g>
<!-- GO:0099513&#45;&gt;GO:0099512 -->
<g id="edge21" class="edge">
<title>GO:0099513&#45;&gt;GO:0099512</title>
<path fill="none" stroke="#000000" d="M274.539,-291.2847C286.9167,-325.9885 307.1818,-385.7525 319.8107,-438.4 326.5761,-466.6037 331.7144,-499.2684 334.9309,-522.5964"/>
<polygon fill="#000000" stroke="#000000" points="331.4753,-523.1616 336.2725,-532.6081 338.4133,-522.2318 331.4753,-523.1616"/>
</g>
<!-- GO:0099512&#45;&gt;GO:0005575 -->
<g id="edge22" class="edge">
<title>GO:0099512&#45;&gt;GO:0005575</title>
<path fill="none" stroke="#000000" d="M351.7319,-574.2399C364.7992,-594.6239 385.9877,-626.3768 406.8107,-652 414.7214,-661.7343 423.9373,-671.8235 432.4925,-680.7496"/>
<polygon fill="#000000" stroke="#000000" points="430.0012,-683.2081 439.4803,-687.9407 435.0214,-678.3298 430.0012,-683.2081"/>
</g>
<!-- GO:0005816 -->
<g id="node20" class="node">
<title>GO:0005816</title>
<polygon fill="#ffffff" stroke="#000000" points="623.3572,-196.6019 508.2642,-196.6019 508.2642,-155.3981 623.3572,-155.3981 623.3572,-196.6019"/>
<text text-anchor="middle" x="565.8107" y="-180.2" font-family="Times,serif" font-size="14.00" fill="#000000">GO:0005816</text>
<text text-anchor="middle" x="565.8107" y="-163.4" font-family="Times,serif" font-size="14.00" fill="#000000">spindle pole body</text>
</g>
<!-- GO:0005815 -->
<g id="node21" class="node">
<title>GO:0005815</title>
<polygon fill="#ffffff" stroke="#000000" points="665.3339,-291.4014 518.2875,-291.4014 518.2875,-232.5986 665.3339,-232.5986 665.3339,-291.4014"/>
<text text-anchor="middle" x="591.8107" y="-274.6" font-family="Times,serif" font-size="14.00" fill="#000000">GO:0005815</text>
<text text-anchor="middle" x="591.8107" y="-257.8" font-family="Times,serif" font-size="14.00" fill="#000000">microtubule organizing</text>
<text text-anchor="middle" x="591.8107" y="-241" font-family="Times,serif" font-size="14.00" fill="#000000">center</text>
</g>
<!-- GO:0005816&#45;&gt;GO:0005815 -->
<g id="edge23" class="edge">
<title>GO:0005816&#45;&gt;GO:0005815</title>
<path fill="none" stroke="#000000" d="M572.1046,-196.8182C574.4885,-204.7036 577.2868,-213.9594 580.0139,-222.9797"/>
<polygon fill="#000000" stroke="#000000" points="576.6779,-224.0399 582.9221,-232.5991 583.3783,-222.0141 576.6779,-224.0399"/>
</g>
<!-- GO:0005815&#45;&gt;GO:0044430 -->
<g id="edge24" class="edge">
<title>GO:0005815&#45;&gt;GO:0044430</title>
<path fill="none" stroke="#000000" d="M585.5064,-291.4584C582.6329,-304.8856 579.233,-320.7721 576.3336,-334.3204"/>
<polygon fill="#000000" stroke="#000000" points="572.9012,-333.6346 574.2309,-344.1456 579.7462,-335.0995 572.9012,-333.6346"/>
</g>
<!-- GO:0000930 -->
<g id="node22" class="node">
<title>GO:0000930</title>
<polygon fill="#ffffff" stroke="#000000" points="794.5641,-196.6019 641.0573,-196.6019 641.0573,-155.3981 794.5641,-155.3981 794.5641,-196.6019"/>
<text text-anchor="middle" x="717.8107" y="-180.2" font-family="Times,serif" font-size="14.00" fill="#000000">GO:0000930</text>
<text text-anchor="middle" x="717.8107" y="-163.4" font-family="Times,serif" font-size="14.00" fill="#000000">gamma&#45;tubulin complex</text>
</g>
<!-- GO:0000930&#45;&gt;GO:0043234 -->
<g id="edge25" class="edge">
<title>GO:0000930&#45;&gt;GO:0043234</title>
<path fill="none" stroke="#000000" d="M763.5299,-196.7498C777.7901,-205.6772 791.8557,-217.6126 799.8107,-232.8 811.8539,-255.7924 808.8077,-266.8537 799.8107,-291.2 793.4858,-308.3154 781.2081,-324.1419 769.1585,-336.6983"/>
<polygon fill="#000000" stroke="#000000" points="766.3626,-334.5427 761.7407,-344.0762 771.299,-339.5058 766.3626,-334.5427"/>
</g>
<!-- GO:0044450 -->
<g id="node23" class="node">
<title>GO:0044450</title>
<polygon fill="#ffffff" stroke="#000000" points="500.3339,-291.4014 353.2875,-291.4014 353.2875,-232.5986 500.3339,-232.5986 500.3339,-291.4014"/>
<text text-anchor="middle" x="426.8107" y="-274.6" font-family="Times,serif" font-size="14.00" fill="#000000">GO:0044450</text>
<text text-anchor="middle" x="426.8107" y="-257.8" font-family="Times,serif" font-size="14.00" fill="#000000">microtubule organizing</text>
<text text-anchor="middle" x="426.8107" y="-241" font-family="Times,serif" font-size="14.00" fill="#000000">center part</text>
</g>
<!-- GO:0000930&#45;&gt;GO:0044450 -->
<g id="edge26" class="edge">
<title>GO:0000930&#45;&gt;GO:0044450</title>
<path fill="none" stroke="#000000" d="M640.9666,-195.3752C603.7706,-205.1102 558.3217,-217.5255 510.1476,-232.4486"/>
<polygon fill="#000000" stroke="#000000" points="508.9811,-229.1461 500.478,-235.4666 511.0667,-235.8282 508.9811,-229.1461"/>
</g>
<!-- GO:0044450&#45;&gt;GO:0044430 -->
<g id="edge28" class="edge">
<title>GO:0044450&#45;&gt;GO:0044430</title>
<path fill="none" stroke="#000000" d="M467.7888,-291.4584C488.2979,-306.202 512.9317,-323.9107 532.855,-338.2332"/>
<polygon fill="#000000" stroke="#000000" points="530.9168,-341.1504 541.0794,-344.1456 535.0028,-335.4666 530.9168,-341.1504"/>
</g>
<!-- GO:0044444 -->
<g id="node24" class="node">
<title>GO:0044444</title>
<polygon fill="#ffffff" stroke="#000000" points="481.2273,-385.4019 372.3941,-385.4019 372.3941,-344.1981 481.2273,-344.1981 481.2273,-385.4019"/>
<text text-anchor="middle" x="426.8107" y="-369" font-family="Times,serif" font-size="14.00" fill="#000000">GO:0044444</text>
<text text-anchor="middle" x="426.8107" y="-352.2" font-family="Times,serif" font-size="14.00" fill="#000000">cytoplasmic part</text>
</g>
<!-- GO:0044450&#45;&gt;GO:0044444 -->
<g id="edge27" class="edge">
<title>GO:0044450&#45;&gt;GO:0044444</title>
<path fill="none" stroke="#000000" d="M426.8107,-291.4584C426.8107,-304.7539 426.8107,-320.4608 426.8107,-333.9212"/>
<polygon fill="#000000" stroke="#000000" points="423.3108,-334.1456 426.8107,-344.1456 430.3108,-334.1457 423.3108,-334.1456"/>
</g>
<!-- GO:0044444&#45;&gt;GO:0044424 -->
<g id="edge29" class="edge">
<title>GO:0044444&#45;&gt;GO:0044424</title>
<path fill="none" stroke="#000000" d="M432.4635,-385.7263C441.4479,-418.9865 459.0349,-484.0928 469.4699,-522.7227"/>
<polygon fill="#000000" stroke="#000000" points="466.2236,-524.1265 472.2104,-532.8677 472.9814,-522.301 466.2236,-524.1265"/>
</g>
<!-- GO:0005881 -->
<g id="node25" class="node">
<title>GO:0005881</title>
<polygon fill="#ffffff" stroke="#000000" points="241.1138,-119.0019 86.5076,-119.0019 86.5076,-77.7981 241.1138,-77.7981 241.1138,-119.0019"/>
<text text-anchor="middle" x="163.8107" y="-102.6" font-family="Times,serif" font-size="14.00" fill="#000000">GO:0005881</text>
<text text-anchor="middle" x="163.8107" y="-85.8" font-family="Times,serif" font-size="14.00" fill="#000000">cytoplasmic microtubule</text>
</g>
<!-- GO:0005881&#45;&gt;GO:0005874 -->
<g id="edge31" class="edge">
<title>GO:0005881&#45;&gt;GO:0005874</title>
<path fill="none" stroke="#000000" d="M198.3803,-119.1954C213.997,-128.5896 232.6214,-139.7931 249.1867,-149.758"/>
<polygon fill="#000000" stroke="#000000" points="247.7724,-152.9916 258.1456,-155.1472 251.3807,-146.9933 247.7724,-152.9916"/>
</g>
<!-- GO:0005881&#45;&gt;GO:0044444 -->
<g id="edge30" class="edge">
<title>GO:0005881&#45;&gt;GO:0044444</title>
<path fill="none" stroke="#000000" d="M159.0904,-119.1713C151.6191,-157.8069 141.8024,-241.3137 182.8107,-291.2 205.6473,-318.9805 297.8618,-341.1562 362.1401,-353.644"/>
<polygon fill="#000000" stroke="#000000" points="361.7227,-357.1274 372.2016,-355.5644 363.0352,-350.2516 361.7227,-357.1274"/>
</g>
<!-- GO:0005880 -->
<g id="node26" class="node">
<title>GO:0005880</title>
<polygon fill="#ffffff" stroke="#000000" points="727.1584,-119.0019 598.463,-119.0019 598.463,-77.7981 727.1584,-77.7981 727.1584,-119.0019"/>
<text text-anchor="middle" x="662.8107" y="-102.6" font-family="Times,serif" font-size="14.00" fill="#000000">GO:0005880</text>
<text text-anchor="middle" x="662.8107" y="-85.8" font-family="Times,serif" font-size="14.00" fill="#000000">nuclear microtubule</text>
</g>
<!-- GO:0005880&#45;&gt;GO:0005874 -->
<g id="edge33" class="edge">
<title>GO:0005880&#45;&gt;GO:0005874</title>
<path fill="none" stroke="#000000" d="M598.3616,-111.9169C527.3661,-126.8068 414.4172,-150.4955 347.5525,-164.519"/>
<polygon fill="#000000" stroke="#000000" points="346.6999,-161.1216 337.6313,-166.5998 348.1368,-167.9725 346.6999,-161.1216"/>
</g>
<!-- GO:0044428 -->
<g id="node27" class="node">
<title>GO:0044428</title>
<polygon fill="#ffffff" stroke="#000000" points="901.4146,-196.6019 812.2068,-196.6019 812.2068,-155.3981 901.4146,-155.3981 901.4146,-196.6019"/>
<text text-anchor="middle" x="856.8107" y="-180.2" font-family="Times,serif" font-size="14.00" fill="#000000">GO:0044428</text>
<text text-anchor="middle" x="856.8107" y="-163.4" font-family="Times,serif" font-size="14.00" fill="#000000">nuclear part</text>
</g>
<!-- GO:0005880&#45;&gt;GO:0044428 -->
<g id="edge34" class="edge">
<title>GO:0005880&#45;&gt;GO:0044428</title>
<path fill="none" stroke="#000000" d="M714.5443,-119.0934C741.7546,-129.9776 775.091,-143.3121 802.6525,-154.3367"/>
<polygon fill="#000000" stroke="#000000" points="801.5563,-157.6678 812.141,-158.1321 804.1561,-151.1685 801.5563,-157.6678"/>
</g>
<!-- GO:0044428&#45;&gt;GO:0044446 -->
<g id="edge35" class="edge">
<title>GO:0044428&#45;&gt;GO:0044446</title>
<path fill="none" stroke="#000000" d="M857.9674,-196.7308C859.2391,-240.8748 855.7128,-344.8188 799.8107,-402.4 778.7671,-424.0756 707.2798,-442.1833 649.5249,-453.7715"/>
<polygon fill="#000000" stroke="#000000" points="648.7864,-450.3496 639.6516,-455.7166 650.1396,-457.2176 648.7864,-450.3496"/>
</g>
<!-- GO:0005827 -->
<g id="node28" class="node">
<title>GO:0005827</title>
<polygon fill="#ffffff" stroke="#000000" points="456.7287,-41.4019 340.8927,-41.4019 340.8927,-.1981 456.7287,-.1981 456.7287,-41.4019"/>
<text text-anchor="middle" x="398.8107" y="-25" font-family="Times,serif" font-size="14.00" fill="#000000">GO:0005827</text>
<text text-anchor="middle" x="398.8107" y="-8.2" font-family="Times,serif" font-size="14.00" fill="#000000">polar microtubule</text>
</g>
<!-- GO:0005827&#45;&gt;GO:0005876 -->
<g id="edge36" class="edge">
<title>GO:0005827&#45;&gt;GO:0005876</title>
<path fill="none" stroke="#000000" d="M378.4441,-41.5954C369.8399,-50.3807 359.686,-60.7484 350.4238,-70.2056"/>
<polygon fill="#000000" stroke="#000000" points="347.7301,-67.9539 343.2335,-77.5472 352.7311,-72.8518 347.7301,-67.9539"/>
</g>
</g>
</svg>
